<?xml version="1.0" encoding="utf-8" standalone="no"?>
<!DOCTYPE svg PUBLIC "-//W3C//DTD SVG 1.1//EN"
  "http://www.w3.org/Graphics/SVG/1.1/DTD/svg11.dtd">
<!-- Created with matplotlib (https://matplotlib.org/) -->
<svg height="345.6pt" version="1.1" viewBox="0 0 460.8 345.6" width="460.8pt" xmlns="http://www.w3.org/2000/svg" xmlns:xlink="http://www.w3.org/1999/xlink">
 <metadata>
  <rdf:RDF xmlns:cc="http://creativecommons.org/ns#" xmlns:dc="http://purl.org/dc/elements/1.1/" xmlns:rdf="http://www.w3.org/1999/02/22-rdf-syntax-ns#">
   <cc:Work>
    <dc:type rdf:resource="http://purl.org/dc/dcmitype/StillImage"/>
    <dc:date>2021-04-25T22:54:49.278933</dc:date>
    <dc:format>image/svg+xml</dc:format>
    <dc:creator>
     <cc:Agent>
      <dc:title>Matplotlib v3.3.2, https://matplotlib.org/</dc:title>
     </cc:Agent>
    </dc:creator>
   </cc:Work>
  </rdf:RDF>
 </metadata>
 <defs>
  <style type="text/css">*{stroke-linecap:butt;stroke-linejoin:round;}</style>
 </defs>
 <g id="figure_1">
  <g id="patch_1">
   <path d="M 0 345.6 
L 460.8 345.6 
L 460.8 0 
L 0 0 
z
" style="fill:#ffffff;"/>
  </g>
  <g id="axes_1">
   <g id="patch_2">
    <path d="M 57.6 298.944 
L 338.688 298.944 
L 338.688 27.648 
L 57.6 27.648 
z
" style="fill:#ffffff;"/>
   </g>
   <g id="line2d_1">
    <path d="M 64.67102 298.944 
L 64.67102 293.677139 
L 69.687988 293.677139 
L 69.687988 288.410278 
L 79.447285 288.410278 
L 79.447285 283.143418 
L 83.830028 283.143418 
L 83.830028 277.876557 
L 87.329581 277.876557 
L 87.329581 272.609696 
L 96.86091 272.609696 
L 96.86091 267.342835 
L 105.951954 267.342835 
L 105.951954 262.075974 
L 112.280765 262.075974 
L 112.280765 256.809114 
L 118.576578 256.809114 
L 118.576578 251.542253 
L 126.50685 251.542253 
L 126.50685 246.275392 
L 130.926816 246.275392 
L 130.926816 241.008531 
L 132.422528 241.008531 
L 132.422528 235.74167 
L 137.558536 235.74167 
L 137.558536 230.47481 
L 140.11924 230.47481 
L 140.11924 225.207949 
L 155.647315 225.207949 
L 155.647315 219.941088 
L 158.889829 219.941088 
L 158.889829 214.674227 
L 159.507213 214.674227 
L 159.507213 209.407366 
L 160.346039 209.407366 
L 160.346039 204.140506 
L 169.53167 204.140506 
L 169.53167 198.873645 
L 169.78585 198.873645 
L 169.78585 193.606784 
L 169.855803 193.606784 
L 169.855803 188.339923 
L 173.222844 188.339923 
L 173.222844 183.073062 
L 173.349008 183.073062 
L 173.349008 177.806202 
L 173.83362 177.806202 
L 173.83362 172.539341 
L 174.218366 172.539341 
L 174.218366 167.27248 
L 175.313947 167.27248 
L 175.313947 162.005619 
L 176.392805 162.005619 
L 176.392805 156.738758 
L 176.507601 156.738758 
L 176.507601 151.471897 
L 176.922168 151.471897 
L 176.922168 146.205037 
L 177.426892 146.205037 
L 177.426892 140.938176 
L 178.691478 140.938176 
L 178.691478 135.671315 
L 178.825562 135.671315 
L 178.825562 130.404454 
L 178.858923 130.404454 
L 178.858923 125.137593 
L 181.267628 125.137593 
L 181.267628 119.870733 
L 181.32559 119.870733 
L 181.32559 114.603872 
L 181.519801 114.603872 
L 181.519801 109.337011 
L 181.697718 109.337011 
L 181.697718 104.07015 
L 182.554315 104.07015 
L 182.554315 98.803289 
L 182.635021 98.803289 
L 182.635021 93.536429 
L 182.715356 93.536429 
L 182.715356 88.269568 
L 182.788672 88.269568 
L 182.788672 83.002707 
L 183.370799 83.002707 
L 183.370799 77.735846 
L 183.670549 77.735846 
L 183.670549 72.468985 
L 183.915425 72.468985 
L 183.915425 67.202125 
L 184.199902 67.202125 
L 184.199902 61.935264 
L 184.291671 61.935264 
L 184.291671 56.668403 
L 184.401161 56.668403 
L 184.401161 51.401542 
L 184.491881 51.401542 
L 184.491881 46.134681 
L 184.546087 46.134681 
L 184.546087 40.867821 
L 184.665945 40.867821 
L 184.665945 35.60096 
L 184.725567 35.60096 
L 184.725567 30.334099 
L 338.688 30.334099 
" style="fill:none;stroke:#f5deb3;stroke-linecap:square;stroke-width:4;"/>
   </g>
   <g id="line2d_2">
    <defs>
     <path d="M 0 7.778175 
L 7.778175 0 
L 0 -7.778175 
L -7.778175 0 
z
" id="m0eb7f6b5f1" style="stroke:#f5deb3;stroke-linejoin:miter;stroke-width:1.5;"/>
    </defs>
    <g>
     <use style="fill:#f5deb3;stroke:#f5deb3;stroke-linejoin:miter;stroke-width:1.5;" x="174.218366" xlink:href="#m0eb7f6b5f1" y="167.27248"/>
     <use style="fill:#f5deb3;stroke:#f5deb3;stroke-linejoin:miter;stroke-width:1.5;" x="183.670549" xlink:href="#m0eb7f6b5f1" y="77.735846"/>
     <use style="fill:#f5deb3;stroke:#f5deb3;stroke-linejoin:miter;stroke-width:1.5;" x="184.725567" xlink:href="#m0eb7f6b5f1" y="30.334099"/>
     <use style="fill:#f5deb3;stroke:#f5deb3;stroke-linejoin:miter;stroke-width:1.5;" x="184.725567" xlink:href="#m0eb7f6b5f1" y="30.334099"/>
     <use style="fill:#f5deb3;stroke:#f5deb3;stroke-linejoin:miter;stroke-width:1.5;" x="338.688" xlink:href="#m0eb7f6b5f1" y="30.334099"/>
    </g>
   </g>
   <g id="line2d_3">
    <path style="fill:none;stroke:#f5deb3;stroke-linecap:square;stroke-width:4;"/>
    <g/>
   </g>
   <g id="line2d_4">
    <path d="M 338.688 30.334099 
L 369.60768 35.706297 
" style="fill:none;stroke:#f5deb3;stroke-linecap:square;stroke-width:4;"/>
    <g>
     <use style="fill:#f5deb3;stroke:#f5deb3;stroke-linejoin:miter;stroke-width:1.5;" x="338.688" xlink:href="#m0eb7f6b5f1" y="30.334099"/>
     <use style="fill:#f5deb3;stroke:#f5deb3;stroke-linejoin:miter;stroke-width:1.5;" x="369.60768" xlink:href="#m0eb7f6b5f1" y="35.706297"/>
    </g>
   </g>
   <g id="matplotlib.axis_1">
    <g id="xtick_1">
     <g id="line2d_5">
      <path clip-path="url(#p305ffcd215)" d="M 57.6 298.944 
L 57.6 27.648 
" style="fill:none;stroke:#b0b0b0;stroke-linecap:square;stroke-width:0.8;"/>
     </g>
     <g id="line2d_6">
      <defs>
       <path d="M 0 0 
L 0 3.5 
" id="mb688ec51f3" style="stroke:#000000;stroke-width:0.8;"/>
      </defs>
      <g>
       <use style="stroke:#000000;stroke-width:0.8;" x="57.6" xlink:href="#mb688ec51f3" y="298.944"/>
      </g>
     </g>
     <g id="text_1">
      <!-- 0 -->
      <g transform="translate(51.2375 321.140875)scale(0.2 -0.2)">
       <defs>
        <path d="M 31.78125 66.40625 
Q 24.171875 66.40625 20.328125 58.90625 
Q 16.5 51.421875 16.5 36.375 
Q 16.5 21.390625 20.328125 13.890625 
Q 24.171875 6.390625 31.78125 6.390625 
Q 39.453125 6.390625 43.28125 13.890625 
Q 47.125 21.390625 47.125 36.375 
Q 47.125 51.421875 43.28125 58.90625 
Q 39.453125 66.40625 31.78125 66.40625 
z
M 31.78125 74.21875 
Q 44.046875 74.21875 50.515625 64.515625 
Q 56.984375 54.828125 56.984375 36.375 
Q 56.984375 17.96875 50.515625 8.265625 
Q 44.046875 -1.421875 31.78125 -1.421875 
Q 19.53125 -1.421875 13.0625 8.265625 
Q 6.59375 17.96875 6.59375 36.375 
Q 6.59375 54.828125 13.0625 64.515625 
Q 19.53125 74.21875 31.78125 74.21875 
z
" id="DejaVuSans-48"/>
       </defs>
       <use xlink:href="#DejaVuSans-48"/>
      </g>
     </g>
    </g>
    <g id="xtick_2">
     <g id="line2d_7">
      <path clip-path="url(#p305ffcd215)" d="M 137.910857 298.944 
L 137.910857 27.648 
" style="fill:none;stroke:#b0b0b0;stroke-linecap:square;stroke-width:0.8;"/>
     </g>
     <g id="line2d_8">
      <g>
       <use style="stroke:#000000;stroke-width:0.8;" x="137.910857" xlink:href="#mb688ec51f3" y="298.944"/>
      </g>
     </g>
     <g id="text_2">
      <!-- 2 -->
      <g transform="translate(131.548357 321.140875)scale(0.2 -0.2)">
       <defs>
        <path d="M 19.1875 8.296875 
L 53.609375 8.296875 
L 53.609375 0 
L 7.328125 0 
L 7.328125 8.296875 
Q 12.9375 14.109375 22.625 23.890625 
Q 32.328125 33.6875 34.8125 36.53125 
Q 39.546875 41.84375 41.421875 45.53125 
Q 43.3125 49.21875 43.3125 52.78125 
Q 43.3125 58.59375 39.234375 62.25 
Q 35.15625 65.921875 28.609375 65.921875 
Q 23.96875 65.921875 18.8125 64.3125 
Q 13.671875 62.703125 7.8125 59.421875 
L 7.8125 69.390625 
Q 13.765625 71.78125 18.9375 73 
Q 24.125 74.21875 28.421875 74.21875 
Q 39.75 74.21875 46.484375 68.546875 
Q 53.21875 62.890625 53.21875 53.421875 
Q 53.21875 48.921875 51.53125 44.890625 
Q 49.859375 40.875 45.40625 35.40625 
Q 44.1875 33.984375 37.640625 27.21875 
Q 31.109375 20.453125 19.1875 8.296875 
z
" id="DejaVuSans-50"/>
       </defs>
       <use xlink:href="#DejaVuSans-50"/>
      </g>
     </g>
    </g>
    <g id="xtick_3">
     <g id="line2d_9">
      <path clip-path="url(#p305ffcd215)" d="M 218.221714 298.944 
L 218.221714 27.648 
" style="fill:none;stroke:#b0b0b0;stroke-linecap:square;stroke-width:0.8;"/>
     </g>
     <g id="line2d_10">
      <g>
       <use style="stroke:#000000;stroke-width:0.8;" x="218.221714" xlink:href="#mb688ec51f3" y="298.944"/>
      </g>
     </g>
     <g id="text_3">
      <!-- 4 -->
      <g transform="translate(211.859214 321.140875)scale(0.2 -0.2)">
       <defs>
        <path d="M 37.796875 64.3125 
L 12.890625 25.390625 
L 37.796875 25.390625 
z
M 35.203125 72.90625 
L 47.609375 72.90625 
L 47.609375 25.390625 
L 58.015625 25.390625 
L 58.015625 17.1875 
L 47.609375 17.1875 
L 47.609375 0 
L 37.796875 0 
L 37.796875 17.1875 
L 4.890625 17.1875 
L 4.890625 26.703125 
z
" id="DejaVuSans-52"/>
       </defs>
       <use xlink:href="#DejaVuSans-52"/>
      </g>
     </g>
    </g>
    <g id="xtick_4">
     <g id="line2d_11">
      <path clip-path="url(#p305ffcd215)" d="M 298.532571 298.944 
L 298.532571 27.648 
" style="fill:none;stroke:#b0b0b0;stroke-linecap:square;stroke-width:0.8;"/>
     </g>
     <g id="line2d_12">
      <g>
       <use style="stroke:#000000;stroke-width:0.8;" x="298.532571" xlink:href="#mb688ec51f3" y="298.944"/>
      </g>
     </g>
     <g id="text_4">
      <!-- 6 -->
      <g transform="translate(292.170071 321.140875)scale(0.2 -0.2)">
       <defs>
        <path d="M 33.015625 40.375 
Q 26.375 40.375 22.484375 35.828125 
Q 18.609375 31.296875 18.609375 23.390625 
Q 18.609375 15.53125 22.484375 10.953125 
Q 26.375 6.390625 33.015625 6.390625 
Q 39.65625 6.390625 43.53125 10.953125 
Q 47.40625 15.53125 47.40625 23.390625 
Q 47.40625 31.296875 43.53125 35.828125 
Q 39.65625 40.375 33.015625 40.375 
z
M 52.59375 71.296875 
L 52.59375 62.3125 
Q 48.875 64.0625 45.09375 64.984375 
Q 41.3125 65.921875 37.59375 65.921875 
Q 27.828125 65.921875 22.671875 59.328125 
Q 17.53125 52.734375 16.796875 39.40625 
Q 19.671875 43.65625 24.015625 45.921875 
Q 28.375 48.1875 33.59375 48.1875 
Q 44.578125 48.1875 50.953125 41.515625 
Q 57.328125 34.859375 57.328125 23.390625 
Q 57.328125 12.15625 50.6875 5.359375 
Q 44.046875 -1.421875 33.015625 -1.421875 
Q 20.359375 -1.421875 13.671875 8.265625 
Q 6.984375 17.96875 6.984375 36.375 
Q 6.984375 53.65625 15.1875 63.9375 
Q 23.390625 74.21875 37.203125 74.21875 
Q 40.921875 74.21875 44.703125 73.484375 
Q 48.484375 72.75 52.59375 71.296875 
z
" id="DejaVuSans-54"/>
       </defs>
       <use xlink:href="#DejaVuSans-54"/>
      </g>
     </g>
    </g>
    <g id="xtick_5">
     <g id="line2d_13">
      <path clip-path="url(#p305ffcd215)" d="M 97.755429 298.944 
L 97.755429 27.648 
" style="fill:none;stroke:#b0b0b0;stroke-linecap:square;stroke-width:0.8;"/>
     </g>
     <g id="line2d_14">
      <defs>
       <path d="M 0 0 
L 0 2 
" id="m4dfedae00f" style="stroke:#000000;stroke-width:0.6;"/>
      </defs>
      <g>
       <use style="stroke:#000000;stroke-width:0.6;" x="97.755429" xlink:href="#m4dfedae00f" y="298.944"/>
      </g>
     </g>
    </g>
    <g id="xtick_6">
     <g id="line2d_15">
      <path clip-path="url(#p305ffcd215)" d="M 178.066286 298.944 
L 178.066286 27.648 
" style="fill:none;stroke:#b0b0b0;stroke-linecap:square;stroke-width:0.8;"/>
     </g>
     <g id="line2d_16">
      <g>
       <use style="stroke:#000000;stroke-width:0.6;" x="178.066286" xlink:href="#m4dfedae00f" y="298.944"/>
      </g>
     </g>
    </g>
    <g id="xtick_7">
     <g id="line2d_17">
      <path clip-path="url(#p305ffcd215)" d="M 258.377143 298.944 
L 258.377143 27.648 
" style="fill:none;stroke:#b0b0b0;stroke-linecap:square;stroke-width:0.8;"/>
     </g>
     <g id="line2d_18">
      <g>
       <use style="stroke:#000000;stroke-width:0.6;" x="258.377143" xlink:href="#m4dfedae00f" y="298.944"/>
      </g>
     </g>
    </g>
    <g id="xtick_8">
     <g id="line2d_19">
      <path clip-path="url(#p305ffcd215)" d="M 338.688 298.944 
L 338.688 27.648 
" style="fill:none;stroke:#b0b0b0;stroke-linecap:square;stroke-width:0.8;"/>
     </g>
     <g id="line2d_20">
      <g>
       <use style="stroke:#000000;stroke-width:0.6;" x="338.688" xlink:href="#m4dfedae00f" y="298.944"/>
      </g>
     </g>
    </g>
    <g id="text_5">
     <!-- log10(# f-evals / dimension) -->
     <g transform="translate(77.764078 342.217594)scale(0.17 -0.17)">
      <defs>
       <path d="M 9.421875 75.984375 
L 18.40625 75.984375 
L 18.40625 0 
L 9.421875 0 
z
" id="DejaVuSans-108"/>
       <path d="M 30.609375 48.390625 
Q 23.390625 48.390625 19.1875 42.75 
Q 14.984375 37.109375 14.984375 27.296875 
Q 14.984375 17.484375 19.15625 11.84375 
Q 23.34375 6.203125 30.609375 6.203125 
Q 37.796875 6.203125 41.984375 11.859375 
Q 46.1875 17.53125 46.1875 27.296875 
Q 46.1875 37.015625 41.984375 42.703125 
Q 37.796875 48.390625 30.609375 48.390625 
z
M 30.609375 56 
Q 42.328125 56 49.015625 48.375 
Q 55.71875 40.765625 55.71875 27.296875 
Q 55.71875 13.875 49.015625 6.21875 
Q 42.328125 -1.421875 30.609375 -1.421875 
Q 18.84375 -1.421875 12.171875 6.21875 
Q 5.515625 13.875 5.515625 27.296875 
Q 5.515625 40.765625 12.171875 48.375 
Q 18.84375 56 30.609375 56 
z
" id="DejaVuSans-111"/>
       <path d="M 45.40625 27.984375 
Q 45.40625 37.75 41.375 43.109375 
Q 37.359375 48.484375 30.078125 48.484375 
Q 22.859375 48.484375 18.828125 43.109375 
Q 14.796875 37.75 14.796875 27.984375 
Q 14.796875 18.265625 18.828125 12.890625 
Q 22.859375 7.515625 30.078125 7.515625 
Q 37.359375 7.515625 41.375 12.890625 
Q 45.40625 18.265625 45.40625 27.984375 
z
M 54.390625 6.78125 
Q 54.390625 -7.171875 48.1875 -13.984375 
Q 42 -20.796875 29.203125 -20.796875 
Q 24.46875 -20.796875 20.265625 -20.09375 
Q 16.0625 -19.390625 12.109375 -17.921875 
L 12.109375 -9.1875 
Q 16.0625 -11.328125 19.921875 -12.34375 
Q 23.78125 -13.375 27.78125 -13.375 
Q 36.625 -13.375 41.015625 -8.765625 
Q 45.40625 -4.15625 45.40625 5.171875 
L 45.40625 9.625 
Q 42.625 4.78125 38.28125 2.390625 
Q 33.9375 0 27.875 0 
Q 17.828125 0 11.671875 7.65625 
Q 5.515625 15.328125 5.515625 27.984375 
Q 5.515625 40.671875 11.671875 48.328125 
Q 17.828125 56 27.875 56 
Q 33.9375 56 38.28125 53.609375 
Q 42.625 51.21875 45.40625 46.390625 
L 45.40625 54.6875 
L 54.390625 54.6875 
z
" id="DejaVuSans-103"/>
       <path d="M 12.40625 8.296875 
L 28.515625 8.296875 
L 28.515625 63.921875 
L 10.984375 60.40625 
L 10.984375 69.390625 
L 28.421875 72.90625 
L 38.28125 72.90625 
L 38.28125 8.296875 
L 54.390625 8.296875 
L 54.390625 0 
L 12.40625 0 
z
" id="DejaVuSans-49"/>
       <path d="M 31 75.875 
Q 24.46875 64.65625 21.28125 53.65625 
Q 18.109375 42.671875 18.109375 31.390625 
Q 18.109375 20.125 21.3125 9.0625 
Q 24.515625 -2 31 -13.1875 
L 23.1875 -13.1875 
Q 15.875 -1.703125 12.234375 9.375 
Q 8.59375 20.453125 8.59375 31.390625 
Q 8.59375 42.28125 12.203125 53.3125 
Q 15.828125 64.359375 23.1875 75.875 
z
" id="DejaVuSans-40"/>
       <path d="M 51.125 44 
L 36.921875 44 
L 32.8125 27.6875 
L 47.125 27.6875 
z
M 43.796875 71.78125 
L 38.71875 51.515625 
L 52.984375 51.515625 
L 58.109375 71.78125 
L 65.921875 71.78125 
L 60.890625 51.515625 
L 76.125 51.515625 
L 76.125 44 
L 58.984375 44 
L 54.984375 27.6875 
L 70.515625 27.6875 
L 70.515625 20.21875 
L 53.078125 20.21875 
L 48 0 
L 40.1875 0 
L 45.21875 20.21875 
L 30.90625 20.21875 
L 25.875 0 
L 18.015625 0 
L 23.09375 20.21875 
L 7.71875 20.21875 
L 7.71875 27.6875 
L 24.90625 27.6875 
L 29 44 
L 13.28125 44 
L 13.28125 51.515625 
L 30.90625 51.515625 
L 35.890625 71.78125 
z
" id="DejaVuSans-35"/>
       <path id="DejaVuSans-32"/>
       <path d="M 37.109375 75.984375 
L 37.109375 68.5 
L 28.515625 68.5 
Q 23.6875 68.5 21.796875 66.546875 
Q 19.921875 64.59375 19.921875 59.515625 
L 19.921875 54.6875 
L 34.71875 54.6875 
L 34.71875 47.703125 
L 19.921875 47.703125 
L 19.921875 0 
L 10.890625 0 
L 10.890625 47.703125 
L 2.296875 47.703125 
L 2.296875 54.6875 
L 10.890625 54.6875 
L 10.890625 58.5 
Q 10.890625 67.625 15.140625 71.796875 
Q 19.390625 75.984375 28.609375 75.984375 
z
" id="DejaVuSans-102"/>
       <path d="M 4.890625 31.390625 
L 31.203125 31.390625 
L 31.203125 23.390625 
L 4.890625 23.390625 
z
" id="DejaVuSans-45"/>
       <path d="M 56.203125 29.59375 
L 56.203125 25.203125 
L 14.890625 25.203125 
Q 15.484375 15.921875 20.484375 11.0625 
Q 25.484375 6.203125 34.421875 6.203125 
Q 39.59375 6.203125 44.453125 7.46875 
Q 49.3125 8.734375 54.109375 11.28125 
L 54.109375 2.78125 
Q 49.265625 0.734375 44.1875 -0.34375 
Q 39.109375 -1.421875 33.890625 -1.421875 
Q 20.796875 -1.421875 13.15625 6.1875 
Q 5.515625 13.8125 5.515625 26.8125 
Q 5.515625 40.234375 12.765625 48.109375 
Q 20.015625 56 32.328125 56 
Q 43.359375 56 49.78125 48.890625 
Q 56.203125 41.796875 56.203125 29.59375 
z
M 47.21875 32.234375 
Q 47.125 39.59375 43.09375 43.984375 
Q 39.0625 48.390625 32.421875 48.390625 
Q 24.90625 48.390625 20.390625 44.140625 
Q 15.875 39.890625 15.1875 32.171875 
z
" id="DejaVuSans-101"/>
       <path d="M 2.984375 54.6875 
L 12.5 54.6875 
L 29.59375 8.796875 
L 46.6875 54.6875 
L 56.203125 54.6875 
L 35.6875 0 
L 23.484375 0 
z
" id="DejaVuSans-118"/>
       <path d="M 34.28125 27.484375 
Q 23.390625 27.484375 19.1875 25 
Q 14.984375 22.515625 14.984375 16.5 
Q 14.984375 11.71875 18.140625 8.90625 
Q 21.296875 6.109375 26.703125 6.109375 
Q 34.1875 6.109375 38.703125 11.40625 
Q 43.21875 16.703125 43.21875 25.484375 
L 43.21875 27.484375 
z
M 52.203125 31.203125 
L 52.203125 0 
L 43.21875 0 
L 43.21875 8.296875 
Q 40.140625 3.328125 35.546875 0.953125 
Q 30.953125 -1.421875 24.3125 -1.421875 
Q 15.921875 -1.421875 10.953125 3.296875 
Q 6 8.015625 6 15.921875 
Q 6 25.140625 12.171875 29.828125 
Q 18.359375 34.515625 30.609375 34.515625 
L 43.21875 34.515625 
L 43.21875 35.40625 
Q 43.21875 41.609375 39.140625 45 
Q 35.0625 48.390625 27.6875 48.390625 
Q 23 48.390625 18.546875 47.265625 
Q 14.109375 46.140625 10.015625 43.890625 
L 10.015625 52.203125 
Q 14.9375 54.109375 19.578125 55.046875 
Q 24.21875 56 28.609375 56 
Q 40.484375 56 46.34375 49.84375 
Q 52.203125 43.703125 52.203125 31.203125 
z
" id="DejaVuSans-97"/>
       <path d="M 44.28125 53.078125 
L 44.28125 44.578125 
Q 40.484375 46.53125 36.375 47.5 
Q 32.28125 48.484375 27.875 48.484375 
Q 21.1875 48.484375 17.84375 46.4375 
Q 14.5 44.390625 14.5 40.28125 
Q 14.5 37.15625 16.890625 35.375 
Q 19.28125 33.59375 26.515625 31.984375 
L 29.59375 31.296875 
Q 39.15625 29.25 43.1875 25.515625 
Q 47.21875 21.78125 47.21875 15.09375 
Q 47.21875 7.46875 41.1875 3.015625 
Q 35.15625 -1.421875 24.609375 -1.421875 
Q 20.21875 -1.421875 15.453125 -0.5625 
Q 10.6875 0.296875 5.421875 2 
L 5.421875 11.28125 
Q 10.40625 8.6875 15.234375 7.390625 
Q 20.0625 6.109375 24.8125 6.109375 
Q 31.15625 6.109375 34.5625 8.28125 
Q 37.984375 10.453125 37.984375 14.40625 
Q 37.984375 18.0625 35.515625 20.015625 
Q 33.0625 21.96875 24.703125 23.78125 
L 21.578125 24.515625 
Q 13.234375 26.265625 9.515625 29.90625 
Q 5.8125 33.546875 5.8125 39.890625 
Q 5.8125 47.609375 11.28125 51.796875 
Q 16.75 56 26.8125 56 
Q 31.78125 56 36.171875 55.265625 
Q 40.578125 54.546875 44.28125 53.078125 
z
" id="DejaVuSans-115"/>
       <path d="M 25.390625 72.90625 
L 33.6875 72.90625 
L 8.296875 -9.28125 
L 0 -9.28125 
z
" id="DejaVuSans-47"/>
       <path d="M 45.40625 46.390625 
L 45.40625 75.984375 
L 54.390625 75.984375 
L 54.390625 0 
L 45.40625 0 
L 45.40625 8.203125 
Q 42.578125 3.328125 38.25 0.953125 
Q 33.9375 -1.421875 27.875 -1.421875 
Q 17.96875 -1.421875 11.734375 6.484375 
Q 5.515625 14.40625 5.515625 27.296875 
Q 5.515625 40.1875 11.734375 48.09375 
Q 17.96875 56 27.875 56 
Q 33.9375 56 38.25 53.625 
Q 42.578125 51.265625 45.40625 46.390625 
z
M 14.796875 27.296875 
Q 14.796875 17.390625 18.875 11.75 
Q 22.953125 6.109375 30.078125 6.109375 
Q 37.203125 6.109375 41.296875 11.75 
Q 45.40625 17.390625 45.40625 27.296875 
Q 45.40625 37.203125 41.296875 42.84375 
Q 37.203125 48.484375 30.078125 48.484375 
Q 22.953125 48.484375 18.875 42.84375 
Q 14.796875 37.203125 14.796875 27.296875 
z
" id="DejaVuSans-100"/>
       <path d="M 9.421875 54.6875 
L 18.40625 54.6875 
L 18.40625 0 
L 9.421875 0 
z
M 9.421875 75.984375 
L 18.40625 75.984375 
L 18.40625 64.59375 
L 9.421875 64.59375 
z
" id="DejaVuSans-105"/>
       <path d="M 52 44.1875 
Q 55.375 50.25 60.0625 53.125 
Q 64.75 56 71.09375 56 
Q 79.640625 56 84.28125 50.015625 
Q 88.921875 44.046875 88.921875 33.015625 
L 88.921875 0 
L 79.890625 0 
L 79.890625 32.71875 
Q 79.890625 40.578125 77.09375 44.375 
Q 74.3125 48.1875 68.609375 48.1875 
Q 61.625 48.1875 57.5625 43.546875 
Q 53.515625 38.921875 53.515625 30.90625 
L 53.515625 0 
L 44.484375 0 
L 44.484375 32.71875 
Q 44.484375 40.625 41.703125 44.40625 
Q 38.921875 48.1875 33.109375 48.1875 
Q 26.21875 48.1875 22.15625 43.53125 
Q 18.109375 38.875 18.109375 30.90625 
L 18.109375 0 
L 9.078125 0 
L 9.078125 54.6875 
L 18.109375 54.6875 
L 18.109375 46.1875 
Q 21.1875 51.21875 25.484375 53.609375 
Q 29.78125 56 35.6875 56 
Q 41.65625 56 45.828125 52.96875 
Q 50 49.953125 52 44.1875 
z
" id="DejaVuSans-109"/>
       <path d="M 54.890625 33.015625 
L 54.890625 0 
L 45.90625 0 
L 45.90625 32.71875 
Q 45.90625 40.484375 42.875 44.328125 
Q 39.84375 48.1875 33.796875 48.1875 
Q 26.515625 48.1875 22.3125 43.546875 
Q 18.109375 38.921875 18.109375 30.90625 
L 18.109375 0 
L 9.078125 0 
L 9.078125 54.6875 
L 18.109375 54.6875 
L 18.109375 46.1875 
Q 21.34375 51.125 25.703125 53.5625 
Q 30.078125 56 35.796875 56 
Q 45.21875 56 50.046875 50.171875 
Q 54.890625 44.34375 54.890625 33.015625 
z
" id="DejaVuSans-110"/>
       <path d="M 8.015625 75.875 
L 15.828125 75.875 
Q 23.140625 64.359375 26.78125 53.3125 
Q 30.421875 42.28125 30.421875 31.390625 
Q 30.421875 20.453125 26.78125 9.375 
Q 23.140625 -1.703125 15.828125 -13.1875 
L 8.015625 -13.1875 
Q 14.5 -2 17.703125 9.0625 
Q 20.90625 20.125 20.90625 31.390625 
Q 20.90625 42.671875 17.703125 53.65625 
Q 14.5 64.65625 8.015625 75.875 
z
" id="DejaVuSans-41"/>
      </defs>
      <use xlink:href="#DejaVuSans-108"/>
      <use x="27.783203" xlink:href="#DejaVuSans-111"/>
      <use x="88.964844" xlink:href="#DejaVuSans-103"/>
      <use x="152.441406" xlink:href="#DejaVuSans-49"/>
      <use x="216.064453" xlink:href="#DejaVuSans-48"/>
      <use x="279.6875" xlink:href="#DejaVuSans-40"/>
      <use x="318.701172" xlink:href="#DejaVuSans-35"/>
      <use x="402.490234" xlink:href="#DejaVuSans-32"/>
      <use x="434.277344" xlink:href="#DejaVuSans-102"/>
      <use x="463.982422" xlink:href="#DejaVuSans-45"/>
      <use x="500.066406" xlink:href="#DejaVuSans-101"/>
      <use x="561.589844" xlink:href="#DejaVuSans-118"/>
      <use x="620.769531" xlink:href="#DejaVuSans-97"/>
      <use x="682.048828" xlink:href="#DejaVuSans-108"/>
      <use x="709.832031" xlink:href="#DejaVuSans-115"/>
      <use x="761.931641" xlink:href="#DejaVuSans-32"/>
      <use x="793.71875" xlink:href="#DejaVuSans-47"/>
      <use x="827.410156" xlink:href="#DejaVuSans-32"/>
      <use x="859.197266" xlink:href="#DejaVuSans-100"/>
      <use x="922.673828" xlink:href="#DejaVuSans-105"/>
      <use x="950.457031" xlink:href="#DejaVuSans-109"/>
      <use x="1047.869141" xlink:href="#DejaVuSans-101"/>
      <use x="1109.392578" xlink:href="#DejaVuSans-110"/>
      <use x="1172.771484" xlink:href="#DejaVuSans-115"/>
      <use x="1224.871094" xlink:href="#DejaVuSans-105"/>
      <use x="1252.654297" xlink:href="#DejaVuSans-111"/>
      <use x="1313.835938" xlink:href="#DejaVuSans-110"/>
      <use x="1377.214844" xlink:href="#DejaVuSans-41"/>
     </g>
    </g>
   </g>
   <g id="matplotlib.axis_2">
    <g id="ytick_1">
     <g id="line2d_21">
      <path clip-path="url(#p305ffcd215)" d="M 57.6 298.944 
L 338.688 298.944 
" style="fill:none;stroke:#b0b0b0;stroke-linecap:square;stroke-width:0.8;"/>
     </g>
     <g id="line2d_22">
      <defs>
       <path d="M 0 0 
L -3.5 0 
" id="m3619f79bd7" style="stroke:#000000;stroke-width:0.8;"/>
      </defs>
      <g>
       <use style="stroke:#000000;stroke-width:0.8;" x="57.6" xlink:href="#m3619f79bd7" y="298.944"/>
      </g>
     </g>
     <g id="text_6">
      <!-- 0.0 -->
      <g transform="translate(25.155 305.02275)scale(0.16 -0.16)">
       <defs>
        <path d="M 10.6875 12.40625 
L 21 12.40625 
L 21 0 
L 10.6875 0 
z
" id="DejaVuSans-46"/>
       </defs>
       <use xlink:href="#DejaVuSans-48"/>
       <use x="63.623047" xlink:href="#DejaVuSans-46"/>
       <use x="95.410156" xlink:href="#DejaVuSans-48"/>
      </g>
     </g>
    </g>
    <g id="ytick_2">
     <g id="line2d_23">
      <path clip-path="url(#p305ffcd215)" d="M 57.6 245.22202 
L 338.688 245.22202 
" style="fill:none;stroke:#b0b0b0;stroke-linecap:square;stroke-width:0.8;"/>
     </g>
     <g id="line2d_24">
      <g>
       <use style="stroke:#000000;stroke-width:0.8;" x="57.6" xlink:href="#m3619f79bd7" y="245.22202"/>
      </g>
     </g>
     <g id="text_7">
      <!-- 0.2 -->
      <g transform="translate(25.155 251.30077)scale(0.16 -0.16)">
       <use xlink:href="#DejaVuSans-48"/>
       <use x="63.623047" xlink:href="#DejaVuSans-46"/>
       <use x="95.410156" xlink:href="#DejaVuSans-50"/>
      </g>
     </g>
    </g>
    <g id="ytick_3">
     <g id="line2d_25">
      <path clip-path="url(#p305ffcd215)" d="M 57.6 191.50004 
L 338.688 191.50004 
" style="fill:none;stroke:#b0b0b0;stroke-linecap:square;stroke-width:0.8;"/>
     </g>
     <g id="line2d_26">
      <g>
       <use style="stroke:#000000;stroke-width:0.8;" x="57.6" xlink:href="#m3619f79bd7" y="191.50004"/>
      </g>
     </g>
     <g id="text_8">
      <!-- 0.4 -->
      <g transform="translate(25.155 197.57879)scale(0.16 -0.16)">
       <use xlink:href="#DejaVuSans-48"/>
       <use x="63.623047" xlink:href="#DejaVuSans-46"/>
       <use x="95.410156" xlink:href="#DejaVuSans-52"/>
      </g>
     </g>
    </g>
    <g id="ytick_4">
     <g id="line2d_27">
      <path clip-path="url(#p305ffcd215)" d="M 57.6 137.778059 
L 338.688 137.778059 
" style="fill:none;stroke:#b0b0b0;stroke-linecap:square;stroke-width:0.8;"/>
     </g>
     <g id="line2d_28">
      <g>
       <use style="stroke:#000000;stroke-width:0.8;" x="57.6" xlink:href="#m3619f79bd7" y="137.778059"/>
      </g>
     </g>
     <g id="text_9">
      <!-- 0.6 -->
      <g transform="translate(25.155 143.856809)scale(0.16 -0.16)">
       <use xlink:href="#DejaVuSans-48"/>
       <use x="63.623047" xlink:href="#DejaVuSans-46"/>
       <use x="95.410156" xlink:href="#DejaVuSans-54"/>
      </g>
     </g>
    </g>
    <g id="ytick_5">
     <g id="line2d_29">
      <path clip-path="url(#p305ffcd215)" d="M 57.6 84.056079 
L 338.688 84.056079 
" style="fill:none;stroke:#b0b0b0;stroke-linecap:square;stroke-width:0.8;"/>
     </g>
     <g id="line2d_30">
      <g>
       <use style="stroke:#000000;stroke-width:0.8;" x="57.6" xlink:href="#m3619f79bd7" y="84.056079"/>
      </g>
     </g>
     <g id="text_10">
      <!-- 0.8 -->
      <g transform="translate(25.155 90.134829)scale(0.16 -0.16)">
       <defs>
        <path d="M 31.78125 34.625 
Q 24.75 34.625 20.71875 30.859375 
Q 16.703125 27.09375 16.703125 20.515625 
Q 16.703125 13.921875 20.71875 10.15625 
Q 24.75 6.390625 31.78125 6.390625 
Q 38.8125 6.390625 42.859375 10.171875 
Q 46.921875 13.96875 46.921875 20.515625 
Q 46.921875 27.09375 42.890625 30.859375 
Q 38.875 34.625 31.78125 34.625 
z
M 21.921875 38.8125 
Q 15.578125 40.375 12.03125 44.71875 
Q 8.5 49.078125 8.5 55.328125 
Q 8.5 64.0625 14.71875 69.140625 
Q 20.953125 74.21875 31.78125 74.21875 
Q 42.671875 74.21875 48.875 69.140625 
Q 55.078125 64.0625 55.078125 55.328125 
Q 55.078125 49.078125 51.53125 44.71875 
Q 48 40.375 41.703125 38.8125 
Q 48.828125 37.15625 52.796875 32.3125 
Q 56.78125 27.484375 56.78125 20.515625 
Q 56.78125 9.90625 50.3125 4.234375 
Q 43.84375 -1.421875 31.78125 -1.421875 
Q 19.734375 -1.421875 13.25 4.234375 
Q 6.78125 9.90625 6.78125 20.515625 
Q 6.78125 27.484375 10.78125 32.3125 
Q 14.796875 37.15625 21.921875 38.8125 
z
M 18.3125 54.390625 
Q 18.3125 48.734375 21.84375 45.5625 
Q 25.390625 42.390625 31.78125 42.390625 
Q 38.140625 42.390625 41.71875 45.5625 
Q 45.3125 48.734375 45.3125 54.390625 
Q 45.3125 60.0625 41.71875 63.234375 
Q 38.140625 66.40625 31.78125 66.40625 
Q 25.390625 66.40625 21.84375 63.234375 
Q 18.3125 60.0625 18.3125 54.390625 
z
" id="DejaVuSans-56"/>
       </defs>
       <use xlink:href="#DejaVuSans-48"/>
       <use x="63.623047" xlink:href="#DejaVuSans-46"/>
       <use x="95.410156" xlink:href="#DejaVuSans-56"/>
      </g>
     </g>
    </g>
    <g id="ytick_6">
     <g id="line2d_31">
      <path clip-path="url(#p305ffcd215)" d="M 57.6 30.334099 
L 338.688 30.334099 
" style="fill:none;stroke:#b0b0b0;stroke-linecap:square;stroke-width:0.8;"/>
     </g>
     <g id="line2d_32">
      <g>
       <use style="stroke:#000000;stroke-width:0.8;" x="57.6" xlink:href="#m3619f79bd7" y="30.334099"/>
      </g>
     </g>
     <g id="text_11">
      <!-- 1.0 -->
      <g transform="translate(25.155 36.412849)scale(0.16 -0.16)">
       <use xlink:href="#DejaVuSans-49"/>
       <use x="63.623047" xlink:href="#DejaVuSans-46"/>
       <use x="95.410156" xlink:href="#DejaVuSans-48"/>
      </g>
     </g>
    </g>
    <g id="text_12">
     <!-- Fraction of function,target pairs -->
     <g transform="translate(17.619531 297.681)rotate(-90)scale(0.17 -0.17)">
      <defs>
       <path d="M 9.8125 72.90625 
L 51.703125 72.90625 
L 51.703125 64.59375 
L 19.671875 64.59375 
L 19.671875 43.109375 
L 48.578125 43.109375 
L 48.578125 34.8125 
L 19.671875 34.8125 
L 19.671875 0 
L 9.8125 0 
z
" id="DejaVuSans-70"/>
       <path d="M 41.109375 46.296875 
Q 39.59375 47.171875 37.8125 47.578125 
Q 36.03125 48 33.890625 48 
Q 26.265625 48 22.1875 43.046875 
Q 18.109375 38.09375 18.109375 28.8125 
L 18.109375 0 
L 9.078125 0 
L 9.078125 54.6875 
L 18.109375 54.6875 
L 18.109375 46.1875 
Q 20.953125 51.171875 25.484375 53.578125 
Q 30.03125 56 36.53125 56 
Q 37.453125 56 38.578125 55.875 
Q 39.703125 55.765625 41.0625 55.515625 
z
" id="DejaVuSans-114"/>
       <path d="M 48.78125 52.59375 
L 48.78125 44.1875 
Q 44.96875 46.296875 41.140625 47.34375 
Q 37.3125 48.390625 33.40625 48.390625 
Q 24.65625 48.390625 19.8125 42.84375 
Q 14.984375 37.3125 14.984375 27.296875 
Q 14.984375 17.28125 19.8125 11.734375 
Q 24.65625 6.203125 33.40625 6.203125 
Q 37.3125 6.203125 41.140625 7.25 
Q 44.96875 8.296875 48.78125 10.40625 
L 48.78125 2.09375 
Q 45.015625 0.34375 40.984375 -0.53125 
Q 36.96875 -1.421875 32.421875 -1.421875 
Q 20.0625 -1.421875 12.78125 6.34375 
Q 5.515625 14.109375 5.515625 27.296875 
Q 5.515625 40.671875 12.859375 48.328125 
Q 20.21875 56 33.015625 56 
Q 37.15625 56 41.109375 55.140625 
Q 45.0625 54.296875 48.78125 52.59375 
z
" id="DejaVuSans-99"/>
       <path d="M 18.3125 70.21875 
L 18.3125 54.6875 
L 36.8125 54.6875 
L 36.8125 47.703125 
L 18.3125 47.703125 
L 18.3125 18.015625 
Q 18.3125 11.328125 20.140625 9.421875 
Q 21.96875 7.515625 27.59375 7.515625 
L 36.8125 7.515625 
L 36.8125 0 
L 27.59375 0 
Q 17.1875 0 13.234375 3.875 
Q 9.28125 7.765625 9.28125 18.015625 
L 9.28125 47.703125 
L 2.6875 47.703125 
L 2.6875 54.6875 
L 9.28125 54.6875 
L 9.28125 70.21875 
z
" id="DejaVuSans-116"/>
       <path d="M 8.5 21.578125 
L 8.5 54.6875 
L 17.484375 54.6875 
L 17.484375 21.921875 
Q 17.484375 14.15625 20.5 10.265625 
Q 23.53125 6.390625 29.59375 6.390625 
Q 36.859375 6.390625 41.078125 11.03125 
Q 45.3125 15.671875 45.3125 23.6875 
L 45.3125 54.6875 
L 54.296875 54.6875 
L 54.296875 0 
L 45.3125 0 
L 45.3125 8.40625 
Q 42.046875 3.421875 37.71875 1 
Q 33.40625 -1.421875 27.6875 -1.421875 
Q 18.265625 -1.421875 13.375 4.4375 
Q 8.5 10.296875 8.5 21.578125 
z
M 31.109375 56 
z
" id="DejaVuSans-117"/>
       <path d="M 11.71875 12.40625 
L 22.015625 12.40625 
L 22.015625 4 
L 14.015625 -11.625 
L 7.71875 -11.625 
L 11.71875 4 
z
" id="DejaVuSans-44"/>
       <path d="M 18.109375 8.203125 
L 18.109375 -20.796875 
L 9.078125 -20.796875 
L 9.078125 54.6875 
L 18.109375 54.6875 
L 18.109375 46.390625 
Q 20.953125 51.265625 25.265625 53.625 
Q 29.59375 56 35.59375 56 
Q 45.5625 56 51.78125 48.09375 
Q 58.015625 40.1875 58.015625 27.296875 
Q 58.015625 14.40625 51.78125 6.484375 
Q 45.5625 -1.421875 35.59375 -1.421875 
Q 29.59375 -1.421875 25.265625 0.953125 
Q 20.953125 3.328125 18.109375 8.203125 
z
M 48.6875 27.296875 
Q 48.6875 37.203125 44.609375 42.84375 
Q 40.53125 48.484375 33.40625 48.484375 
Q 26.265625 48.484375 22.1875 42.84375 
Q 18.109375 37.203125 18.109375 27.296875 
Q 18.109375 17.390625 22.1875 11.75 
Q 26.265625 6.109375 33.40625 6.109375 
Q 40.53125 6.109375 44.609375 11.75 
Q 48.6875 17.390625 48.6875 27.296875 
z
" id="DejaVuSans-112"/>
      </defs>
      <use xlink:href="#DejaVuSans-70"/>
      <use x="50.269531" xlink:href="#DejaVuSans-114"/>
      <use x="91.382812" xlink:href="#DejaVuSans-97"/>
      <use x="152.662109" xlink:href="#DejaVuSans-99"/>
      <use x="207.642578" xlink:href="#DejaVuSans-116"/>
      <use x="246.851562" xlink:href="#DejaVuSans-105"/>
      <use x="274.634766" xlink:href="#DejaVuSans-111"/>
      <use x="335.816406" xlink:href="#DejaVuSans-110"/>
      <use x="399.195312" xlink:href="#DejaVuSans-32"/>
      <use x="430.982422" xlink:href="#DejaVuSans-111"/>
      <use x="492.164062" xlink:href="#DejaVuSans-102"/>
      <use x="527.369141" xlink:href="#DejaVuSans-32"/>
      <use x="559.15625" xlink:href="#DejaVuSans-102"/>
      <use x="594.361328" xlink:href="#DejaVuSans-117"/>
      <use x="657.740234" xlink:href="#DejaVuSans-110"/>
      <use x="721.119141" xlink:href="#DejaVuSans-99"/>
      <use x="776.099609" xlink:href="#DejaVuSans-116"/>
      <use x="815.308594" xlink:href="#DejaVuSans-105"/>
      <use x="843.091797" xlink:href="#DejaVuSans-111"/>
      <use x="904.273438" xlink:href="#DejaVuSans-110"/>
      <use x="967.652344" xlink:href="#DejaVuSans-44"/>
      <use x="999.439453" xlink:href="#DejaVuSans-116"/>
      <use x="1038.648438" xlink:href="#DejaVuSans-97"/>
      <use x="1099.927734" xlink:href="#DejaVuSans-114"/>
      <use x="1139.291016" xlink:href="#DejaVuSans-103"/>
      <use x="1202.767578" xlink:href="#DejaVuSans-101"/>
      <use x="1264.291016" xlink:href="#DejaVuSans-116"/>
      <use x="1303.5" xlink:href="#DejaVuSans-32"/>
      <use x="1335.287109" xlink:href="#DejaVuSans-112"/>
      <use x="1398.763672" xlink:href="#DejaVuSans-97"/>
      <use x="1460.042969" xlink:href="#DejaVuSans-105"/>
      <use x="1487.826172" xlink:href="#DejaVuSans-114"/>
      <use x="1528.939453" xlink:href="#DejaVuSans-115"/>
     </g>
    </g>
   </g>
   <g id="line2d_33">
    <defs>
     <path d="M 0 1.5 
C 0.397805 1.5 0.77937 1.341951 1.06066 1.06066 
C 1.341951 0.77937 1.5 0.397805 1.5 0 
C 1.5 -0.397805 1.341951 -0.77937 1.06066 -1.06066 
C 0.77937 -1.341951 0.397805 -1.5 0 -1.5 
C -0.397805 -1.5 -0.77937 -1.341951 -1.06066 -1.06066 
C -1.341951 -0.77937 -1.5 -0.397805 -1.5 0 
C -1.5 0.397805 -1.341951 0.77937 -1.06066 1.06066 
C -0.77937 1.341951 -0.397805 1.5 0 1.5 
z
" id="mad818c5c3a" style="stroke:#f5deb3;"/>
    </defs>
    <g>
     <use style="fill:#f5deb3;stroke:#f5deb3;" x="184.725567" xlink:href="#mad818c5c3a" y="30.334099"/>
     <use style="fill:#f5deb3;stroke:#f5deb3;" x="184.725567" xlink:href="#mad818c5c3a" y="30.334099"/>
    </g>
   </g>
   <g id="line2d_34">
    <defs>
     <path d="M 0 1.5 
C 0.397805 1.5 0.77937 1.341951 1.06066 1.06066 
C 1.341951 0.77937 1.5 0.397805 1.5 0 
C 1.5 -0.397805 1.341951 -0.77937 1.06066 -1.06066 
C 0.77937 -1.341951 0.397805 -1.5 0 -1.5 
C -0.397805 -1.5 -0.77937 -1.341951 -1.06066 -1.06066 
C -1.341951 -0.77937 -1.5 -0.397805 -1.5 0 
C -1.5 0.397805 -1.341951 0.77937 -1.06066 1.06066 
C -0.77937 1.341951 -0.397805 1.5 0 1.5 
z
" id="m2a4c0fc1d4" style="stroke:#000080;"/>
    </defs>
    <g>
     <use style="fill:#000080;stroke:#000080;" x="295.078045" xlink:href="#m2a4c0fc1d4" y="109.337011"/>
     <use style="fill:#000080;stroke:#000080;" x="295.078045" xlink:href="#m2a4c0fc1d4" y="109.337011"/>
    </g>
   </g>
   <g id="line2d_35">
    <path d="M 45.512012 298.944 
L 45.512012 296.31057 
L 57.6 296.31057 
L 57.6 295.257197 
L 64.67102 295.257197 
L 64.67102 292.623767 
L 69.687988 292.623767 
L 69.687988 291.570395 
L 73.579452 291.570395 
L 73.579452 289.463651 
L 76.759008 289.463651 
L 76.759008 288.936964 
L 79.447285 288.936964 
L 79.447285 285.776848 
L 85.66744 285.776848 
L 85.66744 284.19679 
L 87.329581 284.19679 
L 87.329581 282.616732 
L 88.846997 282.616732 
L 88.846997 280.509987 
L 90.242884 280.509987 
L 90.242884 279.456615 
L 91.535274 279.456615 
L 91.535274 277.876557 
L 98.606294 277.876557 
L 98.606294 277.349871 
L 100.192776 277.349871 
L 100.192776 275.769812 
L 100.934985 275.769812 
L 100.934985 274.71644 
L 101.646892 274.71644 
L 101.646892 274.189754 
L 104.23523 274.189754 
L 104.23523 272.08301 
L 104.826449 272.08301 
L 104.826449 270.502952 
L 105.398279 270.502952 
L 105.398279 269.976266 
L 105.951954 269.976266 
L 105.951954 269.449579 
L 108.006005 269.449579 
L 108.006005 267.869521 
L 108.948899 267.869521 
L 108.948899 266.289463 
L 109.843417 266.289463 
L 109.843417 265.236091 
L 110.694282 265.236091 
L 110.694282 264.709405 
L 111.505558 264.709405 
L 111.505558 264.182719 
L 113.382559 264.182719 
L 113.382559 262.60266 
L 116.323218 262.60266 
L 116.323218 261.549288 
L 118.310324 261.549288 
L 118.310324 261.022602 
L 119.351785 261.022602 
L 119.351785 259.442544 
L 121.712041 259.442544 
L 121.712041 258.915858 
L 126.839037 258.915858 
L 126.839037 258.389172 
L 128.856489 258.389172 
L 128.856489 257.3358 
L 129.574256 257.3358 
L 129.574256 255.755741 
L 134.019394 255.755741 
L 134.019394 255.229055 
L 136.456742 255.229055 
L 136.456742 254.175683 
L 138.256201 254.175683 
L 138.256201 253.122311 
L 139.090775 253.122311 
L 139.090775 252.068939 
L 143.840863 252.068939 
L 143.840863 251.015567 
L 144.510517 251.015567 
L 144.510517 249.962195 
L 145.497361 249.962195 
L 145.497361 249.435508 
L 146.324022 249.435508 
L 146.324022 248.908822 
L 147.113265 248.908822 
L 147.113265 248.382136 
L 147.670154 248.382136 
L 147.670154 247.85545 
L 149.195872 247.85545 
L 149.195872 246.275392 
L 150.598782 246.275392 
L 150.598782 245.748706 
L 151.381313 245.748706 
L 151.461678 244.695334 
L 153.750233 244.695334 
L 153.750233 244.168648 
L 158.572743 244.168648 
L 158.572743 242.588589 
L 160.938061 242.588589 
L 160.938061 241.535217 
L 162.68677 241.535217 
L 162.68677 239.955159 
L 163.808326 239.955159 
L 163.808326 239.428473 
L 164.082658 239.428473 
L 164.082658 238.901787 
L 165.375047 238.901787 
L 165.375047 237.321729 
L 165.7501 237.321729 
L 165.7501 236.795043 
L 168.293904 236.795043 
L 168.293904 236.268356 
L 171.708567 236.268356 
L 171.708567 234.161612 
L 172.506141 234.161612 
L 172.506141 233.634926 
L 172.744386 233.634926 
L 172.744386 233.10824 
L 173.643636 233.10824 
L 173.643636 232.581554 
L 174.498781 232.581554 
L 174.541525 231.001496 
L 177.454007 231.001496 
L 177.535099 229.421437 
L 179.416503 229.421437 
L 179.416503 228.894751 
L 179.712566 228.894751 
L 179.712566 228.368065 
L 180.05044 228.368065 
L 180.05044 227.314693 
L 180.343674 227.314693 
L 180.343674 226.788007 
L 180.997019 226.788007 
L 180.997019 226.261321 
L 181.253107 226.261321 
L 181.253107 225.734635 
L 183.196243 225.734635 
L 183.196243 224.154577 
L 183.600855 224.154577 
L 183.600855 223.627891 
L 184.45565 223.627891 
L 184.45565 223.101204 
L 186.344367 223.101204 
L 186.344367 222.047832 
L 186.709376 222.047832 
L 186.709376 221.521146 
L 188.423112 221.521146 
L 188.423112 220.99446 
L 188.719104 220.99446 
L 188.728569 219.941088 
L 189.236794 219.941088 
L 189.236794 219.414402 
L 189.578083 219.414402 
L 189.578083 218.887716 
L 190.284581 218.887716 
L 190.284581 218.36103 
L 190.550835 218.36103 
L 190.550835 217.834344 
L 191.268877 217.834344 
L 191.268877 217.307658 
L 191.572952 217.307658 
L 191.572952 216.780971 
L 192.58783 216.780971 
L 192.58783 216.254285 
L 193.169567 216.254285 
L 193.169567 215.727599 
L 193.337464 215.727599 
L 193.337464 215.200913 
L 194.301947 215.200913 
L 194.301947 214.674227 
L 195.53581 214.674227 
L 195.53581 213.620855 
L 195.890821 213.620855 
L 195.893958 212.040797 
L 196.321595 212.040797 
L 196.370505 210.987425 
L 197.105717 210.987425 
L 197.105717 210.460738 
L 198.017932 210.460738 
L 198.017932 209.407366 
L 198.386187 209.407366 
L 198.386187 208.88068 
L 198.802675 208.88068 
L 198.802675 208.353994 
L 199.084491 208.353994 
L 199.084491 207.827308 
L 199.634818 207.827308 
L 199.634818 207.300622 
L 199.823652 207.300622 
L 199.823652 205.193878 
L 200.09203 205.193878 
L 200.09203 204.140506 
L 200.631057 204.140506 
L 200.631057 203.613819 
L 200.811826 203.613819 
L 200.823653 201.507075 
L 201.244179 201.507075 
L 201.244179 200.980389 
L 201.38213 200.980389 
L 201.38213 199.400331 
L 202.785239 199.400331 
L 202.785239 198.873645 
L 203.775113 198.873645 
L 203.775113 198.346959 
L 204.728826 198.346959 
L 204.728826 197.820273 
L 204.839995 197.820273 
L 204.839995 197.293586 
L 205.12502 197.293586 
L 205.12502 196.240214 
L 205.323447 196.240214 
L 205.4309 193.606784 
L 205.443605 193.606784 
L 205.443605 192.553412 
L 206.15464 192.553412 
L 206.15464 192.026726 
L 206.47565 192.026726 
L 206.47565 191.50004 
L 206.733662 191.50004 
L 206.733662 190.973354 
L 206.986252 190.973354 
L 206.986252 189.919981 
L 207.362471 189.919981 
L 207.411161 188.866609 
L 207.737109 188.866609 
L 207.737109 188.339923 
L 208.394271 188.339923 
L 208.394271 187.286551 
L 208.883679 187.286551 
L 208.883679 186.759865 
L 210.030769 186.759865 
L 210.030769 186.233179 
L 210.151687 186.233179 
L 210.151687 185.706493 
L 211.818738 185.706493 
L 211.818738 184.653121 
L 212.01899 184.653121 
L 212.027699 182.546376 
L 212.603903 182.546376 
L 212.631558 181.493004 
L 212.817987 181.493004 
L 212.817987 179.912946 
L 213.105642 179.912946 
L 213.105642 179.38626 
L 213.280153 179.38626 
L 213.280153 178.859574 
L 213.463247 178.859574 
L 213.463247 178.332888 
L 213.745045 178.332888 
L 213.745045 177.806202 
L 214.004603 177.806202 
L 214.087692 176.226143 
L 214.52427 176.226143 
L 214.52427 175.699457 
L 214.682005 175.699457 
L 214.78956 174.646085 
L 214.873227 174.646085 
L 214.873227 174.119399 
L 215.791079 174.119399 
L 215.791079 173.592713 
L 216.093169 173.592713 
L 216.187489 172.539341 
L 216.336764 172.539341 
L 216.336764 172.012655 
L 216.548234 172.012655 
L 216.548234 171.485969 
L 216.796009 171.485969 
L 216.796009 170.959282 
L 217.303315 170.959282 
L 217.394986 169.90591 
L 217.689629 169.90591 
L 217.689629 169.379224 
L 217.970532 169.379224 
L 217.970532 168.852538 
L 218.085155 168.852538 
L 218.16057 167.27248 
L 218.246983 167.27248 
L 218.246983 166.745794 
L 218.384878 166.745794 
L 218.384878 166.219108 
L 218.637868 166.219108 
L 218.637868 165.692422 
L 218.917429 165.692422 
L 218.917429 164.63905 
L 219.194229 164.63905 
L 219.194229 163.585677 
L 219.71819 163.585677 
L 219.71819 163.058991 
L 219.845764 163.058991 
L 219.845764 160.952247 
L 220.657546 160.952247 
L 220.657546 160.425561 
L 220.838593 160.425561 
L 220.879071 158.845503 
L 221.011838 158.845503 
L 221.073402 157.265444 
L 221.819837 157.265444 
L 221.870839 154.632014 
L 222.313619 154.632014 
L 222.313619 154.105328 
L 222.710417 154.105328 
L 222.710417 153.578642 
L 223.606452 153.578642 
L 223.606452 153.051956 
L 223.7975 153.051956 
L 223.899172 151.998584 
L 224.822568 151.998584 
L 224.827345 150.945211 
L 225.026802 150.945211 
L 225.026802 150.418525 
L 225.538057 150.418525 
L 225.538057 148.838467 
L 225.85331 148.838467 
L 225.85331 148.311781 
L 226.038092 148.311781 
L 226.038092 147.785095 
L 226.390424 147.785095 
L 226.390424 146.731723 
L 226.641337 146.731723 
L 226.736848 145.151665 
L 227.52466 145.151665 
L 227.535398 144.098292 
L 227.641397 144.098292 
L 227.641397 143.04492 
L 227.809263 143.04492 
L 227.809263 141.991548 
L 229.050684 141.991548 
L 229.050684 140.938176 
L 229.268631 140.938176 
L 229.311157 139.358118 
L 229.379811 139.358118 
L 229.379811 138.831432 
L 229.746575 138.831432 
L 229.746575 138.304745 
L 230.134873 138.304745 
L 230.24287 137.251373 
L 230.279594 137.251373 
L 230.324084 135.671315 
L 230.4979 135.671315 
L 230.593387 134.091257 
L 230.927743 134.091257 
L 230.927743 133.564571 
L 231.274794 133.564571 
L 231.299527 132.511199 
L 231.425123 132.511199 
L 231.490028 131.457826 
L 231.788164 131.457826 
L 231.854528 129.351082 
L 232.76183 129.351082 
L 232.76183 128.824396 
L 233.321327 128.824396 
L 233.321327 127.771024 
L 234.009329 127.771024 
L 234.009329 127.244338 
L 240.352439 127.244338 
L 240.352439 126.717652 
L 241.174953 126.717652 
L 241.174953 126.190966 
L 242.817463 126.190966 
L 242.817463 125.66428 
L 244.014987 125.66428 
L 244.014987 124.610907 
L 244.535637 124.610907 
L 244.566464 123.557535 
L 244.898614 123.557535 
L 244.898614 123.030849 
L 251.877476 123.030849 
L 251.877476 122.504163 
L 252.230824 122.504163 
L 252.230824 121.450791 
L 257.522414 121.450791 
L 257.53706 120.397419 
L 260.846686 120.397419 
L 260.846686 119.870733 
L 261.725621 119.870733 
L 261.725621 118.817361 
L 264.892628 118.817361 
L 264.996858 117.763988 
L 272.144465 117.763988 
L 272.1508 116.710616 
L 274.025402 116.710616 
L 274.025402 116.18393 
L 275.717912 116.18393 
L 275.717912 115.130558 
L 278.677835 115.130558 
L 278.677835 114.603872 
L 279.988506 114.603872 
L 280.03244 113.5505 
L 281.20752 113.5505 
L 281.20752 113.023814 
L 282.346863 113.023814 
L 282.346863 112.497128 
L 283.416313 112.497128 
L 283.416313 111.970441 
L 287.138522 111.970441 
L 287.138522 111.443755 
L 289.486906 111.443755 
L 289.486906 110.390383 
L 290.893388 110.390383 
L 290.893388 109.863697 
L 295.078045 109.863697 
L 295.078045 109.337011 
L 338.688 109.337011 
L 338.688 109.337011 
" style="fill:none;stroke:#000080;stroke-linecap:square;stroke-width:1.5;"/>
   </g>
   <g id="line2d_36">
    <defs>
     <path d="M 0 6 
C 1.591219 6 3.117479 5.367802 4.242641 4.242641 
C 5.367802 3.117479 6 1.591219 6 0 
C 6 -1.591219 5.367802 -3.117479 4.242641 -4.242641 
C 3.117479 -5.367802 1.591219 -6 0 -6 
C -1.591219 -6 -3.117479 -5.367802 -4.242641 -4.242641 
C -5.367802 -3.117479 -6 -1.591219 -6 0 
C -6 1.591219 -5.367802 3.117479 -4.242641 4.242641 
C -3.117479 5.367802 -1.591219 6 0 6 
z
" id="m89ff1e8902" style="stroke:#000080;stroke-width:1.5;"/>
    </defs>
    <g>
     <use style="fill-opacity:0;stroke:#000080;stroke-width:1.5;" x="116.323218" xlink:href="#m89ff1e8902" y="261.549288"/>
     <use style="fill-opacity:0;stroke:#000080;stroke-width:1.5;" x="173.643636" xlink:href="#m89ff1e8902" y="233.10824"/>
     <use style="fill-opacity:0;stroke:#000080;stroke-width:1.5;" x="233.321327" xlink:href="#m89ff1e8902" y="128.824396"/>
     <use style="fill-opacity:0;stroke:#000080;stroke-width:1.5;" x="295.078045" xlink:href="#m89ff1e8902" y="109.863697"/>
     <use style="fill-opacity:0;stroke:#000080;stroke-width:1.5;" x="295.078045" xlink:href="#m89ff1e8902" y="109.337011"/>
     <use style="fill-opacity:0;stroke:#000080;stroke-width:1.5;" x="338.688" xlink:href="#m89ff1e8902" y="109.337011"/>
    </g>
   </g>
   <g id="line2d_37">
    <path style="fill:none;stroke:#000080;stroke-linecap:square;stroke-width:1.5;"/>
    <g/>
   </g>
   <g id="line2d_38">
    <path clip-path="url(#p305ffcd215)" d="M 234.201166 127.244338 
" style="fill:none;stroke:#000080;stroke-linecap:square;stroke-width:1.5;"/>
    <defs>
     <path d="M -12 12 
L 12 -12 
M -12 -12 
L 12 12 
" id="m2c03742c9a" style="stroke:#000080;"/>
    </defs>
    <g clip-path="url(#p305ffcd215)">
     <use style="fill:#000080;stroke:#000080;" x="234.201166" xlink:href="#m2c03742c9a" y="127.244338"/>
    </g>
   </g>
   <g id="line2d_39">
    <defs>
     <path d="M 0 1.5 
C 0.397805 1.5 0.77937 1.341951 1.06066 1.06066 
C 1.341951 0.77937 1.5 0.397805 1.5 0 
C 1.5 -0.397805 1.341951 -0.77937 1.06066 -1.06066 
C 0.77937 -1.341951 0.397805 -1.5 0 -1.5 
C -0.397805 -1.5 -0.77937 -1.341951 -1.06066 -1.06066 
C -1.341951 -0.77937 -1.5 -0.397805 -1.5 0 
C -1.5 0.397805 -1.341951 0.77937 -1.06066 1.06066 
C -0.77937 1.341951 -0.397805 1.5 0 1.5 
z
" id="mcddf6fd571" style="stroke:#ff00ff;"/>
    </defs>
    <g>
     <use style="fill:#ff00ff;stroke:#ff00ff;" x="247.056944" xlink:href="#mcddf6fd571" y="30.334099"/>
     <use style="fill:#ff00ff;stroke:#ff00ff;" x="247.056944" xlink:href="#mcddf6fd571" y="30.334099"/>
    </g>
   </g>
   <g id="line2d_40">
    <path d="M 45.512012 298.944 
L 45.512012 294.203825 
L 57.6 294.203825 
L 57.6 290.517023 
L 64.67102 290.517023 
L 64.67102 289.463651 
L 69.687988 289.463651 
L 69.687988 286.303534 
L 73.579452 286.303534 
L 73.579452 285.776848 
L 76.759008 285.776848 
L 76.759008 284.723476 
L 79.447285 284.723476 
L 79.447285 284.19679 
L 81.775977 284.19679 
L 81.775977 283.670104 
L 83.830028 283.670104 
L 83.830028 277.876557 
L 88.846997 277.876557 
L 88.846997 276.823185 
L 90.242884 276.823185 
L 90.242884 274.189754 
L 92.73846 274.189754 
L 92.73846 273.663068 
L 98.606294 273.663068 
L 98.606294 273.136382 
L 99.41757 273.136382 
L 99.41757 271.556324 
L 105.398279 271.556324 
L 105.398279 271.029638 
L 108.483824 271.029638 
L 108.483824 270.502952 
L 109.843417 270.502952 
L 109.843417 269.449579 
L 111.104637 269.449579 
L 111.104637 268.922893 
L 111.505558 268.922893 
L 111.505558 268.396207 
L 111.897469 268.396207 
L 111.897469 267.869521 
L 115.077025 267.869521 
L 115.077025 266.289463 
L 118.576578 266.289463 
L 118.576578 265.762777 
L 122.782271 265.762777 
L 122.782271 265.236091 
L 123.192626 265.236091 
L 123.192626 264.709405 
L 123.394238 264.709405 
L 123.394238 264.182719 
L 123.790603 264.182719 
L 123.790603 262.075974 
L 133.689303 262.075974 
L 133.689303 261.022602 
L 133.910056 261.022602 
L 133.910056 260.495916 
L 134.55603 260.495916 
L 134.55603 259.96923 
L 134.870259 259.96923 
L 134.870259 259.442544 
L 135.280614 259.442544 
L 135.280614 258.915858 
L 137.289545 258.915858 
L 137.289545 258.389172 
L 138.341479 258.389172 
L 138.341479 257.862486 
L 138.510793 257.862486 
L 138.510793 257.3358 
L 139.090775 257.3358 
L 139.090775 256.282427 
L 139.253002 256.282427 
L 139.253002 255.755741 
L 139.964909 255.755741 
L 139.964909 255.229055 
L 140.195896 255.229055 
L 140.195896 254.175683 
L 140.944478 254.175683 
L 140.944478 253.122311 
L 142.351634 253.122311 
L 142.351634 252.595625 
L 142.486301 252.595625 
L 142.486301 251.542253 
L 142.686372 251.542253 
L 142.686372 247.85545 
L 143.464461 247.85545 
L 143.464461 246.802078 
L 144.087359 246.802078 
L 144.087359 246.275392 
L 144.570138 246.275392 
L 144.570138 245.748706 
L 144.747789 245.748706 
L 144.747789 245.22202 
L 144.865226 245.22202 
L 144.865226 244.695334 
L 145.609873 244.695334 
L 145.665858 243.115275 
L 146.484754 243.115275 
L 146.484754 241.008531 
L 146.854132 241.008531 
L 146.854132 239.955159 
L 147.96658 239.955159 
L 147.96658 239.428473 
L 148.209809 239.428473 
L 148.209809 237.848415 
L 148.686322 237.848415 
L 148.686322 237.321729 
L 149.998846 237.321729 
L 149.998846 236.795043 
L 151.621307 236.795043 
L 151.621307 235.214984 
L 152.699575 235.214984 
L 152.699575 234.688298 
L 153.573542 234.688298 
L 153.573542 234.161612 
L 153.715038 234.161612 
L 153.715038 233.634926 
L 153.994632 233.634926 
L 154.029268 231.528182 
L 154.439623 231.528182 
L 154.439623 231.001496 
L 155.488919 231.001496 
L 155.488919 230.47481 
L 155.61575 230.47481 
L 155.61575 229.948123 
L 157.528821 229.948123 
L 157.528821 228.368065 
L 157.697862 228.368065 
L 157.697862 227.841379 
L 158.222599 227.841379 
L 158.249784 225.207949 
L 159.175513 225.207949 
L 159.175513 224.681263 
L 159.481921 224.681263 
L 159.481921 224.154577 
L 159.807898 224.154577 
L 159.807898 223.627891 
L 162.043181 223.627891 
L 162.043181 222.047832 
L 162.303474 222.047832 
L 162.303474 221.521146 
L 162.517456 221.521146 
L 162.559939 220.467774 
L 163.082425 220.467774 
L 163.082425 219.941088 
L 163.828065 219.941088 
L 163.906798 218.887716 
L 164.024234 218.887716 
L 164.043731 217.307658 
L 164.179597 217.307658 
L 164.179597 216.780971 
L 164.429145 216.780971 
L 164.429145 216.254285 
L 164.731458 216.254285 
L 164.824867 214.674227 
L 164.843488 214.674227 
L 164.880672 213.620855 
L 164.991751 213.620855 
L 165.010195 212.567483 
L 165.157053 212.567483 
L 165.157053 212.040797 
L 165.284547 212.040797 
L 165.284547 211.514111 
L 165.838222 211.514111 
L 165.838222 210.987425 
L 166.6119 210.987425 
L 166.6119 210.460738 
L 166.994465 210.460738 
L 167.027338 209.407366 
L 167.860992 209.407366 
L 167.892273 207.827308 
L 168.032349 207.827308 
L 168.032349 206.24725 
L 168.309168 206.24725 
L 168.400474 204.667192 
L 169.157854 204.667192 
L 169.157854 204.140506 
L 169.474679 204.140506 
L 169.574291 202.560447 
L 169.883706 202.560447 
L 169.967148 200.980389 
L 170.091567 200.980389 
L 170.160306 196.7669 
L 170.40555 196.7669 
L 170.40555 196.240214 
L 170.553741 196.240214 
L 170.553741 195.713528 
L 170.713981 195.713528 
L 170.819995 194.660156 
L 170.951613 194.660156 
L 170.951613 194.13347 
L 171.095254 194.13347 
L 171.095254 193.606784 
L 171.276376 193.606784 
L 171.276376 193.080098 
L 172.130306 193.080098 
L 172.191475 190.973354 
L 172.288901 190.973354 
L 172.288901 189.919981 
L 172.649478 189.919981 
L 172.756213 186.759865 
L 172.815229 186.759865 
L 172.874047 184.653121 
L 172.991089 184.653121 
L 172.991089 184.126434 
L 173.188276 184.126434 
L 173.245851 182.546376 
L 173.417442 182.546376 
L 173.417442 181.493004 
L 173.855836 181.493004 
L 173.855836 180.966318 
L 174.087407 180.966318 
L 174.087407 180.439632 
L 174.584164 180.439632 
L 174.584164 179.912946 
L 175.025688 179.912946 
L 175.025688 179.38626 
L 175.170413 179.38626 
L 175.170413 178.859574 
L 175.516968 178.859574 
L 175.617599 177.279515 
L 176.02422 177.279515 
L 176.02422 176.226143 
L 176.209486 176.226143 
L 176.257915 174.119399 
L 176.383205 174.119399 
L 176.383205 173.066027 
L 176.536182 173.066027 
L 176.60269 172.012655 
L 177.088964 172.012655 
L 177.088964 169.90591 
L 177.399735 169.90591 
L 177.399735 168.325852 
L 177.562046 168.325852 
L 177.65157 166.219108 
L 177.705065 166.219108 
L 177.705065 165.692422 
L 177.934998 165.692422 
L 178.013889 163.585677 
L 178.239812 163.585677 
L 178.239812 163.058991 
L 178.377401 163.058991 
L 178.377401 162.005619 
L 178.556354 162.005619 
L 178.58177 159.898875 
L 178.691478 159.898875 
L 178.725096 156.212072 
L 178.875579 156.212072 
L 178.966907 153.051956 
L 179.057758 153.051956 
L 179.057758 152.52527 
L 179.432635 152.52527 
L 179.432635 151.471897 
L 179.839052 151.471897 
L 179.941152 146.205037 
L 180.381893 146.205037 
L 180.381893 145.678351 
L 180.662139 145.678351 
L 180.662139 144.098292 
L 181.026478 144.098292 
L 181.026478 143.04492 
L 181.22403 143.04492 
L 181.22403 142.518234 
L 181.361719 142.518234 
L 181.397773 141.464862 
L 181.569801 141.464862 
L 181.640982 139.358118 
L 181.824704 139.358118 
L 181.887852 137.251373 
L 182.378159 137.251373 
L 182.459683 135.671315 
L 182.762047 135.671315 
L 182.762047 135.144629 
L 182.987073 135.144629 
L 183.039601 133.037885 
L 183.157214 133.037885 
L 183.196243 130.93114 
L 183.312807 130.93114 
L 183.409353 128.824396 
L 183.479815 128.824396 
L 183.479815 126.717652 
L 183.771427 126.717652 
L 183.834181 124.610907 
L 183.93412 124.610907 
L 183.93412 123.557535 
L 184.242788 123.557535 
L 184.242788 123.030849 
L 184.491881 123.030849 
L 184.491881 121.977477 
L 184.767181 121.977477 
L 184.767181 121.450791 
L 184.944411 121.450791 
L 185.038202 118.290674 
L 185.351075 118.290674 
L 185.459838 116.18393 
L 185.494044 116.18393 
L 185.494044 115.130558 
L 185.776513 115.130558 
L 185.865946 114.077186 
L 185.982634 114.077186 
L 186.021357 112.497128 
L 186.120538 112.497128 
L 186.186347 109.863697 
L 186.490213 109.863697 
L 186.560002 107.756953 
L 186.618837 107.756953 
L 186.634849 105.650209 
L 186.74652 105.650209 
L 186.74652 105.123522 
L 186.90482 105.123522 
L 186.90482 104.596836 
L 187.035648 104.596836 
L 187.035648 104.07015 
L 187.263548 104.07015 
L 187.273837 102.490092 
L 187.503741 102.490092 
L 187.59991 100.910034 
L 187.630169 100.910034 
L 187.650312 99.856662 
L 187.785676 99.856662 
L 187.835545 95.643173 
L 188.048373 95.643173 
L 188.131803 93.009743 
L 188.219708 93.009743 
L 188.248911 91.95637 
L 188.336229 91.95637 
L 188.336229 91.429684 
L 188.538286 91.429684 
L 188.538286 90.902998 
L 188.879315 90.902998 
L 188.879315 90.376312 
L 189.010157 90.376312 
L 189.112277 87.742882 
L 189.301011 87.742882 
L 189.39234 86.162824 
L 189.433283 86.162824 
L 189.433283 85.636137 
L 189.555537 85.636137 
L 189.591596 84.582765 
L 189.735094 84.582765 
L 189.833067 81.422649 
L 189.890703 81.422649 
L 189.908399 79.315904 
L 190.370914 79.315904 
L 190.370914 77.735846 
L 190.669758 77.735846 
L 190.669758 77.20916 
L 190.842447 77.20916 
L 190.926069 76.155788 
L 191.092119 76.155788 
L 191.11689 74.049044 
L 191.350483 74.049044 
L 191.43171 72.995672 
L 191.740946 72.995672 
L 191.816415 71.942299 
L 191.883664 71.942299 
L 191.883664 71.415613 
L 192.033055 71.415613 
L 192.044795 70.362241 
L 192.196696 70.362241 
L 192.227692 68.255497 
L 192.335747 68.255497 
L 192.335747 67.728811 
L 192.492773 67.728811 
L 192.557468 66.148752 
L 192.780157 66.148752 
L 192.80639 65.09538 
L 192.948112 65.09538 
L 192.948112 64.568694 
L 193.103425 64.568694 
L 193.103425 64.042008 
L 193.456924 64.042008 
L 193.456924 63.515322 
L 193.643519 63.515322 
L 193.643519 62.988636 
L 193.83873 62.988636 
L 193.83873 62.46195 
L 193.989842 62.46195 
L 193.989842 61.935264 
L 194.205445 61.935264 
L 194.24342 60.355206 
L 194.564608 60.355206 
L 194.564608 59.82852 
L 194.716298 59.82852 
L 194.716298 59.301833 
L 195.215874 59.301833 
L 195.326414 57.721775 
L 195.465219 57.721775 
L 195.465219 57.195089 
L 196.327716 57.195089 
L 196.327716 56.141717 
L 196.8522 56.141717 
L 196.870007 54.034973 
L 197.582032 54.034973 
L 197.582032 53.508287 
L 234.632128 53.508287 
L 234.727483 48.768112 
L 234.759265 48.768112 
L 234.869377 47.188054 
L 234.904253 47.188054 
L 234.96111 44.554623 
L 235.055021 44.554623 
L 235.127604 42.974565 
L 235.181431 42.974565 
L 235.278429 40.341135 
L 235.296781 40.341135 
L 235.330486 38.761076 
L 235.436736 38.761076 
L 235.512604 37.181018 
L 235.559451 37.181018 
L 235.665923 35.60096 
L 235.73154 35.60096 
L 235.751975 34.547588 
L 235.881371 34.547588 
L 235.881371 34.020902 
L 236.083548 34.020902 
L 236.083548 33.494215 
L 246.482354 33.494215 
L 246.49718 32.440843 
L 246.689294 32.440843 
L 246.768029 31.387471 
L 247.020693 31.387471 
L 247.056944 30.334099 
L 338.688 30.334099 
L 338.688 30.334099 
" style="fill:none;stroke:#ff00ff;stroke-linecap:square;stroke-width:1.5;"/>
   </g>
   <g id="line2d_41">
    <defs>
     <path d="M 0 8.485281 
L 5.091169 0 
L 0 -8.485281 
L -5.091169 0 
z
" id="me103e0106c" style="stroke:#ff00ff;stroke-linejoin:miter;stroke-width:1.5;"/>
    </defs>
    <g>
     <use style="fill-opacity:0;stroke:#ff00ff;stroke-linejoin:miter;stroke-width:1.5;" x="92.73846" xlink:href="#me103e0106c" y="274.189754"/>
     <use style="fill-opacity:0;stroke:#ff00ff;stroke-linejoin:miter;stroke-width:1.5;" x="159.807898" xlink:href="#me103e0106c" y="223.627891"/>
     <use style="fill-opacity:0;stroke:#ff00ff;stroke-linejoin:miter;stroke-width:1.5;" x="189.047361" xlink:href="#me103e0106c" y="89.849626"/>
     <use style="fill-opacity:0;stroke:#ff00ff;stroke-linejoin:miter;stroke-width:1.5;" x="247.056944" xlink:href="#me103e0106c" y="30.860785"/>
     <use style="fill-opacity:0;stroke:#ff00ff;stroke-linejoin:miter;stroke-width:1.5;" x="247.056944" xlink:href="#me103e0106c" y="30.334099"/>
     <use style="fill-opacity:0;stroke:#ff00ff;stroke-linejoin:miter;stroke-width:1.5;" x="338.688" xlink:href="#me103e0106c" y="30.334099"/>
    </g>
   </g>
   <g id="line2d_42">
    <path style="fill:none;stroke:#ff00ff;stroke-linecap:square;stroke-width:1.5;"/>
    <g/>
   </g>
   <g id="line2d_43">
    <path clip-path="url(#p305ffcd215)" d="M 234.201166 53.508287 
" style="fill:none;stroke:#ff00ff;stroke-linecap:square;stroke-width:1.5;"/>
    <defs>
     <path d="M -12 12 
L 12 -12 
M -12 -12 
L 12 12 
" id="mbc3a02d876" style="stroke:#ff00ff;"/>
    </defs>
    <g clip-path="url(#p305ffcd215)">
     <use style="fill:#ff00ff;stroke:#ff00ff;" x="234.201166" xlink:href="#mbc3a02d876" y="53.508287"/>
    </g>
   </g>
   <g id="line2d_44">
    <path d="M 338.688 109.337011 
L 369.60768 293.571802 
" style="fill:none;stroke:#000080;stroke-linecap:square;stroke-width:1.5;"/>
    <g>
     <use style="fill-opacity:0;stroke:#000080;stroke-width:1.5;" x="338.688" xlink:href="#m89ff1e8902" y="109.337011"/>
     <use style="fill-opacity:0;stroke:#000080;stroke-width:1.5;" x="369.60768" xlink:href="#m89ff1e8902" y="293.571802"/>
    </g>
   </g>
   <g id="line2d_45">
    <path d="M 338.688 30.334099 
L 369.60768 164.63905 
" style="fill:none;stroke:#ff00ff;stroke-linecap:square;stroke-width:1.5;"/>
    <g>
     <use style="fill-opacity:0;stroke:#ff00ff;stroke-linejoin:miter;stroke-width:1.5;" x="338.688" xlink:href="#me103e0106c" y="30.334099"/>
     <use style="fill-opacity:0;stroke:#ff00ff;stroke-linejoin:miter;stroke-width:1.5;" x="369.60768" xlink:href="#me103e0106c" y="164.63905"/>
    </g>
   </g>
   <g id="line2d_46">
    <path d="M 338.688 298.944 
L 338.688 30.334099 
" style="fill:none;stroke:#000000;stroke-linecap:square;stroke-width:1.5;"/>
   </g>
   <g id="patch_3">
    <path d="M 57.6 298.944 
L 57.6 27.648 
" style="fill:none;stroke:#000000;stroke-linecap:square;stroke-linejoin:miter;stroke-width:0.8;"/>
   </g>
   <g id="patch_4">
    <path d="M 338.688 298.944 
L 338.688 27.648 
" style="fill:none;stroke:#000000;stroke-linecap:square;stroke-linejoin:miter;stroke-width:0.8;"/>
   </g>
   <g id="patch_5">
    <path d="M 57.6 298.944 
L 338.688 298.944 
" style="fill:none;stroke:#000000;stroke-linecap:square;stroke-linejoin:miter;stroke-width:0.8;"/>
   </g>
   <g id="patch_6">
    <path d="M 57.6 27.648 
L 338.688 27.648 
" style="fill:none;stroke:#000000;stroke-linecap:square;stroke-linejoin:miter;stroke-width:0.8;"/>
   </g>
   <g id="text_13">
    <!-- DEPSOmax5 -->
    <g transform="translate(375.22944 298.262739)scale(0.17 -0.17)">
     <defs>
      <path d="M 19.671875 64.796875 
L 19.671875 8.109375 
L 31.59375 8.109375 
Q 46.6875 8.109375 53.6875 14.9375 
Q 60.6875 21.78125 60.6875 36.53125 
Q 60.6875 51.171875 53.6875 57.984375 
Q 46.6875 64.796875 31.59375 64.796875 
z
M 9.8125 72.90625 
L 30.078125 72.90625 
Q 51.265625 72.90625 61.171875 64.09375 
Q 71.09375 55.28125 71.09375 36.53125 
Q 71.09375 17.671875 61.125 8.828125 
Q 51.171875 0 30.078125 0 
L 9.8125 0 
z
" id="DejaVuSans-68"/>
      <path d="M 9.8125 72.90625 
L 55.90625 72.90625 
L 55.90625 64.59375 
L 19.671875 64.59375 
L 19.671875 43.015625 
L 54.390625 43.015625 
L 54.390625 34.71875 
L 19.671875 34.71875 
L 19.671875 8.296875 
L 56.78125 8.296875 
L 56.78125 0 
L 9.8125 0 
z
" id="DejaVuSans-69"/>
      <path d="M 19.671875 64.796875 
L 19.671875 37.40625 
L 32.078125 37.40625 
Q 38.96875 37.40625 42.71875 40.96875 
Q 46.484375 44.53125 46.484375 51.125 
Q 46.484375 57.671875 42.71875 61.234375 
Q 38.96875 64.796875 32.078125 64.796875 
z
M 9.8125 72.90625 
L 32.078125 72.90625 
Q 44.34375 72.90625 50.609375 67.359375 
Q 56.890625 61.8125 56.890625 51.125 
Q 56.890625 40.328125 50.609375 34.8125 
Q 44.34375 29.296875 32.078125 29.296875 
L 19.671875 29.296875 
L 19.671875 0 
L 9.8125 0 
z
" id="DejaVuSans-80"/>
      <path d="M 53.515625 70.515625 
L 53.515625 60.890625 
Q 47.90625 63.578125 42.921875 64.890625 
Q 37.9375 66.21875 33.296875 66.21875 
Q 25.25 66.21875 20.875 63.09375 
Q 16.5 59.96875 16.5 54.203125 
Q 16.5 49.359375 19.40625 46.890625 
Q 22.3125 44.4375 30.421875 42.921875 
L 36.375 41.703125 
Q 47.40625 39.59375 52.65625 34.296875 
Q 57.90625 29 57.90625 20.125 
Q 57.90625 9.515625 50.796875 4.046875 
Q 43.703125 -1.421875 29.984375 -1.421875 
Q 24.8125 -1.421875 18.96875 -0.25 
Q 13.140625 0.921875 6.890625 3.21875 
L 6.890625 13.375 
Q 12.890625 10.015625 18.65625 8.296875 
Q 24.421875 6.59375 29.984375 6.59375 
Q 38.421875 6.59375 43.015625 9.90625 
Q 47.609375 13.234375 47.609375 19.390625 
Q 47.609375 24.75 44.3125 27.78125 
Q 41.015625 30.8125 33.5 32.328125 
L 27.484375 33.5 
Q 16.453125 35.6875 11.515625 40.375 
Q 6.59375 45.0625 6.59375 53.421875 
Q 6.59375 63.09375 13.40625 68.65625 
Q 20.21875 74.21875 32.171875 74.21875 
Q 37.3125 74.21875 42.625 73.28125 
Q 47.953125 72.359375 53.515625 70.515625 
z
" id="DejaVuSans-83"/>
      <path d="M 39.40625 66.21875 
Q 28.65625 66.21875 22.328125 58.203125 
Q 16.015625 50.203125 16.015625 36.375 
Q 16.015625 22.609375 22.328125 14.59375 
Q 28.65625 6.59375 39.40625 6.59375 
Q 50.140625 6.59375 56.421875 14.59375 
Q 62.703125 22.609375 62.703125 36.375 
Q 62.703125 50.203125 56.421875 58.203125 
Q 50.140625 66.21875 39.40625 66.21875 
z
M 39.40625 74.21875 
Q 54.734375 74.21875 63.90625 63.9375 
Q 73.09375 53.65625 73.09375 36.375 
Q 73.09375 19.140625 63.90625 8.859375 
Q 54.734375 -1.421875 39.40625 -1.421875 
Q 24.03125 -1.421875 14.8125 8.828125 
Q 5.609375 19.09375 5.609375 36.375 
Q 5.609375 53.65625 14.8125 63.9375 
Q 24.03125 74.21875 39.40625 74.21875 
z
" id="DejaVuSans-79"/>
      <path d="M 54.890625 54.6875 
L 35.109375 28.078125 
L 55.90625 0 
L 45.3125 0 
L 29.390625 21.484375 
L 13.484375 0 
L 2.875 0 
L 24.125 28.609375 
L 4.6875 54.6875 
L 15.28125 54.6875 
L 29.78125 35.203125 
L 44.28125 54.6875 
z
" id="DejaVuSans-120"/>
      <path d="M 10.796875 72.90625 
L 49.515625 72.90625 
L 49.515625 64.59375 
L 19.828125 64.59375 
L 19.828125 46.734375 
Q 21.96875 47.46875 24.109375 47.828125 
Q 26.265625 48.1875 28.421875 48.1875 
Q 40.625 48.1875 47.75 41.5 
Q 54.890625 34.8125 54.890625 23.390625 
Q 54.890625 11.625 47.5625 5.09375 
Q 40.234375 -1.421875 26.90625 -1.421875 
Q 22.3125 -1.421875 17.546875 -0.640625 
Q 12.796875 0.140625 7.71875 1.703125 
L 7.71875 11.625 
Q 12.109375 9.234375 16.796875 8.0625 
Q 21.484375 6.890625 26.703125 6.890625 
Q 35.15625 6.890625 40.078125 11.328125 
Q 45.015625 15.765625 45.015625 23.390625 
Q 45.015625 31 40.078125 35.4375 
Q 35.15625 39.890625 26.703125 39.890625 
Q 22.75 39.890625 18.8125 39.015625 
Q 14.890625 38.140625 10.796875 36.28125 
z
" id="DejaVuSans-53"/>
     </defs>
     <use xlink:href="#DejaVuSans-68"/>
     <use x="77.001953" xlink:href="#DejaVuSans-69"/>
     <use x="140.185547" xlink:href="#DejaVuSans-80"/>
     <use x="200.488281" xlink:href="#DejaVuSans-83"/>
     <use x="263.964844" xlink:href="#DejaVuSans-79"/>
     <use x="342.675781" xlink:href="#DejaVuSans-109"/>
     <use x="440.087891" xlink:href="#DejaVuSans-97"/>
     <use x="501.367188" xlink:href="#DejaVuSans-120"/>
     <use x="560.546875" xlink:href="#DejaVuSans-53"/>
    </g>
   </g>
   <g id="text_14">
    <!-- SimpleDEm -->
    <g transform="translate(375.22944 169.329987)scale(0.17 -0.17)">
     <use xlink:href="#DejaVuSans-83"/>
     <use x="63.476562" xlink:href="#DejaVuSans-105"/>
     <use x="91.259766" xlink:href="#DejaVuSans-109"/>
     <use x="188.671875" xlink:href="#DejaVuSans-112"/>
     <use x="252.148438" xlink:href="#DejaVuSans-108"/>
     <use x="279.931641" xlink:href="#DejaVuSans-101"/>
     <use x="341.455078" xlink:href="#DejaVuSans-68"/>
     <use x="418.457031" xlink:href="#DejaVuSans-69"/>
     <use x="481.640625" xlink:href="#DejaVuSans-109"/>
    </g>
   </g>
   <g id="text_15">
    <!-- best 2009 -->
    <g transform="translate(375.22944 40.397235)scale(0.17 -0.17)">
     <defs>
      <path d="M 48.6875 27.296875 
Q 48.6875 37.203125 44.609375 42.84375 
Q 40.53125 48.484375 33.40625 48.484375 
Q 26.265625 48.484375 22.1875 42.84375 
Q 18.109375 37.203125 18.109375 27.296875 
Q 18.109375 17.390625 22.1875 11.75 
Q 26.265625 6.109375 33.40625 6.109375 
Q 40.53125 6.109375 44.609375 11.75 
Q 48.6875 17.390625 48.6875 27.296875 
z
M 18.109375 46.390625 
Q 20.953125 51.265625 25.265625 53.625 
Q 29.59375 56 35.59375 56 
Q 45.5625 56 51.78125 48.09375 
Q 58.015625 40.1875 58.015625 27.296875 
Q 58.015625 14.40625 51.78125 6.484375 
Q 45.5625 -1.421875 35.59375 -1.421875 
Q 29.59375 -1.421875 25.265625 0.953125 
Q 20.953125 3.328125 18.109375 8.203125 
L 18.109375 0 
L 9.078125 0 
L 9.078125 75.984375 
L 18.109375 75.984375 
z
" id="DejaVuSans-98"/>
      <path d="M 10.984375 1.515625 
L 10.984375 10.5 
Q 14.703125 8.734375 18.5 7.8125 
Q 22.3125 6.890625 25.984375 6.890625 
Q 35.75 6.890625 40.890625 13.453125 
Q 46.046875 20.015625 46.78125 33.40625 
Q 43.953125 29.203125 39.59375 26.953125 
Q 35.25 24.703125 29.984375 24.703125 
Q 19.046875 24.703125 12.671875 31.3125 
Q 6.296875 37.9375 6.296875 49.421875 
Q 6.296875 60.640625 12.9375 67.421875 
Q 19.578125 74.21875 30.609375 74.21875 
Q 43.265625 74.21875 49.921875 64.515625 
Q 56.59375 54.828125 56.59375 36.375 
Q 56.59375 19.140625 48.40625 8.859375 
Q 40.234375 -1.421875 26.421875 -1.421875 
Q 22.703125 -1.421875 18.890625 -0.6875 
Q 15.09375 0.046875 10.984375 1.515625 
z
M 30.609375 32.421875 
Q 37.25 32.421875 41.125 36.953125 
Q 45.015625 41.5 45.015625 49.421875 
Q 45.015625 57.28125 41.125 61.84375 
Q 37.25 66.40625 30.609375 66.40625 
Q 23.96875 66.40625 20.09375 61.84375 
Q 16.21875 57.28125 16.21875 49.421875 
Q 16.21875 41.5 20.09375 36.953125 
Q 23.96875 32.421875 30.609375 32.421875 
z
" id="DejaVuSans-57"/>
     </defs>
     <use xlink:href="#DejaVuSans-98"/>
     <use x="63.476562" xlink:href="#DejaVuSans-101"/>
     <use x="125" xlink:href="#DejaVuSans-115"/>
     <use x="177.099609" xlink:href="#DejaVuSans-116"/>
     <use x="216.308594" xlink:href="#DejaVuSans-32"/>
     <use x="248.095703" xlink:href="#DejaVuSans-50"/>
     <use x="311.71875" xlink:href="#DejaVuSans-48"/>
     <use x="375.341797" xlink:href="#DejaVuSans-48"/>
     <use x="438.964844" xlink:href="#DejaVuSans-57"/>
    </g>
   </g>
   <g id="text_16">
    <!-- bbob f18, 2-D -->
    <g transform="translate(60.41088 38.111366)scale(0.102 -0.102)">
     <use xlink:href="#DejaVuSans-98"/>
     <use x="63.476562" xlink:href="#DejaVuSans-98"/>
     <use x="126.953125" xlink:href="#DejaVuSans-111"/>
     <use x="188.134766" xlink:href="#DejaVuSans-98"/>
     <use x="251.611328" xlink:href="#DejaVuSans-32"/>
     <use x="283.398438" xlink:href="#DejaVuSans-102"/>
     <use x="318.603516" xlink:href="#DejaVuSans-49"/>
     <use x="382.226562" xlink:href="#DejaVuSans-56"/>
     <use x="445.849609" xlink:href="#DejaVuSans-44"/>
     <use x="477.636719" xlink:href="#DejaVuSans-32"/>
     <use x="509.423828" xlink:href="#DejaVuSans-50"/>
     <use x="573.046875" xlink:href="#DejaVuSans-45"/>
     <use x="609.130859" xlink:href="#DejaVuSans-68"/>
    </g>
    <!-- 51 targets: 100..1e-08 -->
    <g transform="translate(60.41088 49.533135)scale(0.102 -0.102)">
     <defs>
      <path d="M 11.71875 12.40625 
L 22.015625 12.40625 
L 22.015625 0 
L 11.71875 0 
z
M 11.71875 51.703125 
L 22.015625 51.703125 
L 22.015625 39.3125 
L 11.71875 39.3125 
z
" id="DejaVuSans-58"/>
     </defs>
     <use xlink:href="#DejaVuSans-53"/>
     <use x="63.623047" xlink:href="#DejaVuSans-49"/>
     <use x="127.246094" xlink:href="#DejaVuSans-32"/>
     <use x="159.033203" xlink:href="#DejaVuSans-116"/>
     <use x="198.242188" xlink:href="#DejaVuSans-97"/>
     <use x="259.521484" xlink:href="#DejaVuSans-114"/>
     <use x="298.884766" xlink:href="#DejaVuSans-103"/>
     <use x="362.361328" xlink:href="#DejaVuSans-101"/>
     <use x="423.884766" xlink:href="#DejaVuSans-116"/>
     <use x="463.09375" xlink:href="#DejaVuSans-115"/>
     <use x="515.193359" xlink:href="#DejaVuSans-58"/>
     <use x="548.884766" xlink:href="#DejaVuSans-32"/>
     <use x="580.671875" xlink:href="#DejaVuSans-49"/>
     <use x="644.294922" xlink:href="#DejaVuSans-48"/>
     <use x="707.917969" xlink:href="#DejaVuSans-48"/>
     <use x="771.541016" xlink:href="#DejaVuSans-46"/>
     <use x="803.328125" xlink:href="#DejaVuSans-46"/>
     <use x="835.115234" xlink:href="#DejaVuSans-49"/>
     <use x="898.738281" xlink:href="#DejaVuSans-101"/>
     <use x="960.261719" xlink:href="#DejaVuSans-45"/>
     <use x="996.345703" xlink:href="#DejaVuSans-48"/>
     <use x="1059.96875" xlink:href="#DejaVuSans-56"/>
    </g>
    <!-- 15 instances -->
    <g transform="translate(60.41088 60.954904)scale(0.102 -0.102)">
     <use xlink:href="#DejaVuSans-49"/>
     <use x="63.623047" xlink:href="#DejaVuSans-53"/>
     <use x="127.246094" xlink:href="#DejaVuSans-32"/>
     <use x="159.033203" xlink:href="#DejaVuSans-105"/>
     <use x="186.816406" xlink:href="#DejaVuSans-110"/>
     <use x="250.195312" xlink:href="#DejaVuSans-115"/>
     <use x="302.294922" xlink:href="#DejaVuSans-116"/>
     <use x="341.503906" xlink:href="#DejaVuSans-97"/>
     <use x="402.783203" xlink:href="#DejaVuSans-110"/>
     <use x="466.162109" xlink:href="#DejaVuSans-99"/>
     <use x="521.142578" xlink:href="#DejaVuSans-101"/>
     <use x="582.666016" xlink:href="#DejaVuSans-115"/>
    </g>
   </g>
   <g id="text_17">
    <!-- v2.4 -->
    <g style="fill:#808080;" transform="translate(187.233062 294.151352)scale(0.1 -0.1)">
     <use xlink:href="#DejaVuSans-118"/>
     <use x="59.179688" xlink:href="#DejaVuSans-50"/>
     <use x="122.802734" xlink:href="#DejaVuSans-46"/>
     <use x="154.589844" xlink:href="#DejaVuSans-52"/>
    </g>
   </g>
   <g id="text_18">
    <!-- 18 Schaffer F7, condition 1000 -->
    <g transform="translate(44.111187 21.648)scale(0.2 -0.2)">
     <defs>
      <path d="M 54.890625 33.015625 
L 54.890625 0 
L 45.90625 0 
L 45.90625 32.71875 
Q 45.90625 40.484375 42.875 44.328125 
Q 39.84375 48.1875 33.796875 48.1875 
Q 26.515625 48.1875 22.3125 43.546875 
Q 18.109375 38.921875 18.109375 30.90625 
L 18.109375 0 
L 9.078125 0 
L 9.078125 75.984375 
L 18.109375 75.984375 
L 18.109375 46.1875 
Q 21.34375 51.125 25.703125 53.5625 
Q 30.078125 56 35.796875 56 
Q 45.21875 56 50.046875 50.171875 
Q 54.890625 44.34375 54.890625 33.015625 
z
" id="DejaVuSans-104"/>
      <path d="M 8.203125 72.90625 
L 55.078125 72.90625 
L 55.078125 68.703125 
L 28.609375 0 
L 18.3125 0 
L 43.21875 64.59375 
L 8.203125 64.59375 
z
" id="DejaVuSans-55"/>
     </defs>
     <use xlink:href="#DejaVuSans-49"/>
     <use x="63.623047" xlink:href="#DejaVuSans-56"/>
     <use x="127.246094" xlink:href="#DejaVuSans-32"/>
     <use x="159.033203" xlink:href="#DejaVuSans-83"/>
     <use x="222.509766" xlink:href="#DejaVuSans-99"/>
     <use x="277.490234" xlink:href="#DejaVuSans-104"/>
     <use x="340.869141" xlink:href="#DejaVuSans-97"/>
     <use x="402.148438" xlink:href="#DejaVuSans-102"/>
     <use x="437.353516" xlink:href="#DejaVuSans-102"/>
     <use x="472.558594" xlink:href="#DejaVuSans-101"/>
     <use x="534.082031" xlink:href="#DejaVuSans-114"/>
     <use x="575.195312" xlink:href="#DejaVuSans-32"/>
     <use x="606.982422" xlink:href="#DejaVuSans-70"/>
     <use x="664.501953" xlink:href="#DejaVuSans-55"/>
     <use x="728.125" xlink:href="#DejaVuSans-44"/>
     <use x="759.912109" xlink:href="#DejaVuSans-32"/>
     <use x="791.699219" xlink:href="#DejaVuSans-99"/>
     <use x="846.679688" xlink:href="#DejaVuSans-111"/>
     <use x="907.861328" xlink:href="#DejaVuSans-110"/>
     <use x="971.240234" xlink:href="#DejaVuSans-100"/>
     <use x="1034.716797" xlink:href="#DejaVuSans-105"/>
     <use x="1062.5" xlink:href="#DejaVuSans-116"/>
     <use x="1101.708984" xlink:href="#DejaVuSans-105"/>
     <use x="1129.492188" xlink:href="#DejaVuSans-111"/>
     <use x="1190.673828" xlink:href="#DejaVuSans-110"/>
     <use x="1254.052734" xlink:href="#DejaVuSans-32"/>
     <use x="1285.839844" xlink:href="#DejaVuSans-49"/>
     <use x="1349.462891" xlink:href="#DejaVuSans-48"/>
     <use x="1413.085938" xlink:href="#DejaVuSans-48"/>
     <use x="1476.708984" xlink:href="#DejaVuSans-48"/>
    </g>
   </g>
  </g>
 </g>
 <defs>
  <clipPath id="p305ffcd215">
   <rect height="271.296" width="281.088" x="57.6" y="27.648"/>
  </clipPath>
 </defs>
</svg>
