<?xml version="1.0" encoding="utf-8" standalone="no"?>
<!DOCTYPE svg PUBLIC "-//W3C//DTD SVG 1.1//EN"
  "http://www.w3.org/Graphics/SVG/1.1/DTD/svg11.dtd">
<!-- Created with matplotlib (https://matplotlib.org/) -->
<svg height="345.6pt" version="1.1" viewBox="0 0 460.8 345.6" width="460.8pt" xmlns="http://www.w3.org/2000/svg" xmlns:xlink="http://www.w3.org/1999/xlink">
 <metadata>
  <rdf:RDF xmlns:cc="http://creativecommons.org/ns#" xmlns:dc="http://purl.org/dc/elements/1.1/" xmlns:rdf="http://www.w3.org/1999/02/22-rdf-syntax-ns#">
   <cc:Work>
    <dc:type rdf:resource="http://purl.org/dc/dcmitype/StillImage"/>
    <dc:date>2021-04-25T22:54:52.542761</dc:date>
    <dc:format>image/svg+xml</dc:format>
    <dc:creator>
     <cc:Agent>
      <dc:title>Matplotlib v3.3.2, https://matplotlib.org/</dc:title>
     </cc:Agent>
    </dc:creator>
   </cc:Work>
  </rdf:RDF>
 </metadata>
 <defs>
  <style type="text/css">*{stroke-linecap:butt;stroke-linejoin:round;}</style>
 </defs>
 <g id="figure_1">
  <g id="patch_1">
   <path d="M 0 345.6 
L 460.8 345.6 
L 460.8 0 
L 0 0 
z
" style="fill:#ffffff;"/>
  </g>
  <g id="axes_1">
   <g id="patch_2">
    <path d="M 57.6 298.944 
L 338.688 298.944 
L 338.688 27.648 
L 57.6 27.648 
z
" style="fill:#ffffff;"/>
   </g>
   <g id="line2d_1">
    <path d="M 29.53256 298.944 
L 29.53256 293.677139 
L 53.708537 293.677139 
L 53.708537 288.410278 
L 76.759008 288.410278 
L 76.759008 283.143418 
L 89.972502 283.143418 
L 89.972502 277.876557 
L 97.043522 277.876557 
L 97.043522 272.609696 
L 103.870632 272.609696 
L 103.870632 267.342835 
L 109.668146 267.342835 
L 109.668146 262.075974 
L 113.73488 262.075974 
L 113.73488 256.809114 
L 118.148599 256.809114 
L 118.148599 251.542253 
L 131.236397 251.542253 
L 131.236397 246.275392 
L 133.398082 246.275392 
L 133.398082 241.008531 
L 148.411533 241.008531 
L 148.411533 235.74167 
L 148.582601 235.74167 
L 148.582601 230.47481 
L 148.620389 230.47481 
L 148.620389 225.207949 
L 148.733265 225.207949 
L 148.733265 219.941088 
L 148.882639 219.941088 
L 148.882639 214.674227 
L 149.049169 214.674227 
L 149.049169 209.407366 
L 149.25057 209.407366 
L 149.25057 204.140506 
L 149.341352 204.140506 
L 149.341352 198.873645 
L 149.485628 198.873645 
L 149.485628 193.606784 
L 149.646525 193.606784 
L 149.646525 188.339923 
L 149.699829 188.339923 
L 149.699829 183.073062 
L 149.770648 183.073062 
L 149.770648 177.806202 
L 150.085825 177.806202 
L 150.085825 172.539341 
L 150.103169 172.539341 
L 150.103169 167.27248 
L 150.137805 167.27248 
L 150.137805 162.005619 
L 150.241302 162.005619 
L 150.241302 156.738758 
L 150.309961 156.738758 
L 150.309961 151.471897 
L 150.37835 151.471897 
L 150.37835 146.205037 
L 150.412445 146.205037 
L 150.412445 140.938176 
L 150.463462 140.938176 
L 150.463462 135.671315 
L 150.51433 135.671315 
L 150.51433 130.404454 
L 150.531253 130.404454 
L 150.531253 125.137593 
L 150.632448 125.137593 
L 150.632448 119.870733 
L 150.649257 119.870733 
L 150.649257 114.603872 
L 150.682827 114.603872 
L 150.682827 109.337011 
L 150.783149 109.337011 
L 150.783149 104.07015 
L 150.799813 104.07015 
L 150.799813 93.536429 
L 150.899466 93.536429 
L 150.899466 88.269568 
L 150.94908 88.269568 
L 150.94908 83.002707 
L 150.982078 83.002707 
L 150.982078 77.735846 
L 151.015013 77.735846 
L 151.015013 72.468985 
L 151.047887 72.468985 
L 151.047887 67.202125 
L 151.097081 67.202125 
L 151.097081 61.935264 
L 151.146137 61.935264 
L 151.146137 56.668403 
L 151.162458 56.668403 
L 151.162458 51.401542 
L 151.227591 51.401542 
L 151.227591 46.134681 
L 151.260066 46.134681 
L 151.260066 40.867821 
L 151.276281 40.867821 
L 151.276281 35.60096 
L 151.340991 35.60096 
L 151.340991 30.334099 
L 338.688 30.334099 
" style="fill:none;stroke:#f5deb3;stroke-linecap:square;stroke-width:4;"/>
   </g>
   <g id="line2d_2">
    <defs>
     <path d="M 0 7.778175 
L 7.778175 0 
L 0 -7.778175 
L -7.778175 0 
z
" id="mab51f50fe1" style="stroke:#f5deb3;stroke-linejoin:miter;stroke-width:1.5;"/>
    </defs>
    <g>
     <use style="fill:#f5deb3;stroke:#f5deb3;stroke-linejoin:miter;stroke-width:1.5;" x="131.236397" xlink:href="#mab51f50fe1" y="251.542253"/>
     <use style="fill:#f5deb3;stroke:#f5deb3;stroke-linejoin:miter;stroke-width:1.5;" x="150.463462" xlink:href="#mab51f50fe1" y="135.671315"/>
     <use style="fill:#f5deb3;stroke:#f5deb3;stroke-linejoin:miter;stroke-width:1.5;" x="151.260066" xlink:href="#mab51f50fe1" y="40.867821"/>
     <use style="fill:#f5deb3;stroke:#f5deb3;stroke-linejoin:miter;stroke-width:1.5;" x="151.340991" xlink:href="#mab51f50fe1" y="30.334099"/>
     <use style="fill:#f5deb3;stroke:#f5deb3;stroke-linejoin:miter;stroke-width:1.5;" x="151.340991" xlink:href="#mab51f50fe1" y="30.334099"/>
     <use style="fill:#f5deb3;stroke:#f5deb3;stroke-linejoin:miter;stroke-width:1.5;" x="338.688" xlink:href="#mab51f50fe1" y="30.334099"/>
    </g>
   </g>
   <g id="line2d_3">
    <path style="fill:none;stroke:#f5deb3;stroke-linecap:square;stroke-width:4;"/>
    <g/>
   </g>
   <g id="line2d_4">
    <path d="M 338.688 30.334099 
L 369.60768 35.706297 
" style="fill:none;stroke:#f5deb3;stroke-linecap:square;stroke-width:4;"/>
    <g>
     <use style="fill:#f5deb3;stroke:#f5deb3;stroke-linejoin:miter;stroke-width:1.5;" x="338.688" xlink:href="#mab51f50fe1" y="30.334099"/>
     <use style="fill:#f5deb3;stroke:#f5deb3;stroke-linejoin:miter;stroke-width:1.5;" x="369.60768" xlink:href="#mab51f50fe1" y="35.706297"/>
    </g>
   </g>
   <g id="matplotlib.axis_1">
    <g id="xtick_1">
     <g id="line2d_5">
      <path clip-path="url(#p7e2480d15b)" d="M 57.6 298.944 
L 57.6 27.648 
" style="fill:none;stroke:#b0b0b0;stroke-linecap:square;stroke-width:0.8;"/>
     </g>
     <g id="line2d_6">
      <defs>
       <path d="M 0 0 
L 0 3.5 
" id="mc708afdffb" style="stroke:#000000;stroke-width:0.8;"/>
      </defs>
      <g>
       <use style="stroke:#000000;stroke-width:0.8;" x="57.6" xlink:href="#mc708afdffb" y="298.944"/>
      </g>
     </g>
     <g id="text_1">
      <!-- 0 -->
      <g transform="translate(51.2375 321.140875)scale(0.2 -0.2)">
       <defs>
        <path d="M 31.78125 66.40625 
Q 24.171875 66.40625 20.328125 58.90625 
Q 16.5 51.421875 16.5 36.375 
Q 16.5 21.390625 20.328125 13.890625 
Q 24.171875 6.390625 31.78125 6.390625 
Q 39.453125 6.390625 43.28125 13.890625 
Q 47.125 21.390625 47.125 36.375 
Q 47.125 51.421875 43.28125 58.90625 
Q 39.453125 66.40625 31.78125 66.40625 
z
M 31.78125 74.21875 
Q 44.046875 74.21875 50.515625 64.515625 
Q 56.984375 54.828125 56.984375 36.375 
Q 56.984375 17.96875 50.515625 8.265625 
Q 44.046875 -1.421875 31.78125 -1.421875 
Q 19.53125 -1.421875 13.0625 8.265625 
Q 6.59375 17.96875 6.59375 36.375 
Q 6.59375 54.828125 13.0625 64.515625 
Q 19.53125 74.21875 31.78125 74.21875 
z
" id="DejaVuSans-48"/>
       </defs>
       <use xlink:href="#DejaVuSans-48"/>
      </g>
     </g>
    </g>
    <g id="xtick_2">
     <g id="line2d_7">
      <path clip-path="url(#p7e2480d15b)" d="M 137.910857 298.944 
L 137.910857 27.648 
" style="fill:none;stroke:#b0b0b0;stroke-linecap:square;stroke-width:0.8;"/>
     </g>
     <g id="line2d_8">
      <g>
       <use style="stroke:#000000;stroke-width:0.8;" x="137.910857" xlink:href="#mc708afdffb" y="298.944"/>
      </g>
     </g>
     <g id="text_2">
      <!-- 2 -->
      <g transform="translate(131.548357 321.140875)scale(0.2 -0.2)">
       <defs>
        <path d="M 19.1875 8.296875 
L 53.609375 8.296875 
L 53.609375 0 
L 7.328125 0 
L 7.328125 8.296875 
Q 12.9375 14.109375 22.625 23.890625 
Q 32.328125 33.6875 34.8125 36.53125 
Q 39.546875 41.84375 41.421875 45.53125 
Q 43.3125 49.21875 43.3125 52.78125 
Q 43.3125 58.59375 39.234375 62.25 
Q 35.15625 65.921875 28.609375 65.921875 
Q 23.96875 65.921875 18.8125 64.3125 
Q 13.671875 62.703125 7.8125 59.421875 
L 7.8125 69.390625 
Q 13.765625 71.78125 18.9375 73 
Q 24.125 74.21875 28.421875 74.21875 
Q 39.75 74.21875 46.484375 68.546875 
Q 53.21875 62.890625 53.21875 53.421875 
Q 53.21875 48.921875 51.53125 44.890625 
Q 49.859375 40.875 45.40625 35.40625 
Q 44.1875 33.984375 37.640625 27.21875 
Q 31.109375 20.453125 19.1875 8.296875 
z
" id="DejaVuSans-50"/>
       </defs>
       <use xlink:href="#DejaVuSans-50"/>
      </g>
     </g>
    </g>
    <g id="xtick_3">
     <g id="line2d_9">
      <path clip-path="url(#p7e2480d15b)" d="M 218.221714 298.944 
L 218.221714 27.648 
" style="fill:none;stroke:#b0b0b0;stroke-linecap:square;stroke-width:0.8;"/>
     </g>
     <g id="line2d_10">
      <g>
       <use style="stroke:#000000;stroke-width:0.8;" x="218.221714" xlink:href="#mc708afdffb" y="298.944"/>
      </g>
     </g>
     <g id="text_3">
      <!-- 4 -->
      <g transform="translate(211.859214 321.140875)scale(0.2 -0.2)">
       <defs>
        <path d="M 37.796875 64.3125 
L 12.890625 25.390625 
L 37.796875 25.390625 
z
M 35.203125 72.90625 
L 47.609375 72.90625 
L 47.609375 25.390625 
L 58.015625 25.390625 
L 58.015625 17.1875 
L 47.609375 17.1875 
L 47.609375 0 
L 37.796875 0 
L 37.796875 17.1875 
L 4.890625 17.1875 
L 4.890625 26.703125 
z
" id="DejaVuSans-52"/>
       </defs>
       <use xlink:href="#DejaVuSans-52"/>
      </g>
     </g>
    </g>
    <g id="xtick_4">
     <g id="line2d_11">
      <path clip-path="url(#p7e2480d15b)" d="M 298.532571 298.944 
L 298.532571 27.648 
" style="fill:none;stroke:#b0b0b0;stroke-linecap:square;stroke-width:0.8;"/>
     </g>
     <g id="line2d_12">
      <g>
       <use style="stroke:#000000;stroke-width:0.8;" x="298.532571" xlink:href="#mc708afdffb" y="298.944"/>
      </g>
     </g>
     <g id="text_4">
      <!-- 6 -->
      <g transform="translate(292.170071 321.140875)scale(0.2 -0.2)">
       <defs>
        <path d="M 33.015625 40.375 
Q 26.375 40.375 22.484375 35.828125 
Q 18.609375 31.296875 18.609375 23.390625 
Q 18.609375 15.53125 22.484375 10.953125 
Q 26.375 6.390625 33.015625 6.390625 
Q 39.65625 6.390625 43.53125 10.953125 
Q 47.40625 15.53125 47.40625 23.390625 
Q 47.40625 31.296875 43.53125 35.828125 
Q 39.65625 40.375 33.015625 40.375 
z
M 52.59375 71.296875 
L 52.59375 62.3125 
Q 48.875 64.0625 45.09375 64.984375 
Q 41.3125 65.921875 37.59375 65.921875 
Q 27.828125 65.921875 22.671875 59.328125 
Q 17.53125 52.734375 16.796875 39.40625 
Q 19.671875 43.65625 24.015625 45.921875 
Q 28.375 48.1875 33.59375 48.1875 
Q 44.578125 48.1875 50.953125 41.515625 
Q 57.328125 34.859375 57.328125 23.390625 
Q 57.328125 12.15625 50.6875 5.359375 
Q 44.046875 -1.421875 33.015625 -1.421875 
Q 20.359375 -1.421875 13.671875 8.265625 
Q 6.984375 17.96875 6.984375 36.375 
Q 6.984375 53.65625 15.1875 63.9375 
Q 23.390625 74.21875 37.203125 74.21875 
Q 40.921875 74.21875 44.703125 73.484375 
Q 48.484375 72.75 52.59375 71.296875 
z
" id="DejaVuSans-54"/>
       </defs>
       <use xlink:href="#DejaVuSans-54"/>
      </g>
     </g>
    </g>
    <g id="xtick_5">
     <g id="line2d_13">
      <path clip-path="url(#p7e2480d15b)" d="M 97.755429 298.944 
L 97.755429 27.648 
" style="fill:none;stroke:#b0b0b0;stroke-linecap:square;stroke-width:0.8;"/>
     </g>
     <g id="line2d_14">
      <defs>
       <path d="M 0 0 
L 0 2 
" id="mf0f0458f00" style="stroke:#000000;stroke-width:0.6;"/>
      </defs>
      <g>
       <use style="stroke:#000000;stroke-width:0.6;" x="97.755429" xlink:href="#mf0f0458f00" y="298.944"/>
      </g>
     </g>
    </g>
    <g id="xtick_6">
     <g id="line2d_15">
      <path clip-path="url(#p7e2480d15b)" d="M 178.066286 298.944 
L 178.066286 27.648 
" style="fill:none;stroke:#b0b0b0;stroke-linecap:square;stroke-width:0.8;"/>
     </g>
     <g id="line2d_16">
      <g>
       <use style="stroke:#000000;stroke-width:0.6;" x="178.066286" xlink:href="#mf0f0458f00" y="298.944"/>
      </g>
     </g>
    </g>
    <g id="xtick_7">
     <g id="line2d_17">
      <path clip-path="url(#p7e2480d15b)" d="M 258.377143 298.944 
L 258.377143 27.648 
" style="fill:none;stroke:#b0b0b0;stroke-linecap:square;stroke-width:0.8;"/>
     </g>
     <g id="line2d_18">
      <g>
       <use style="stroke:#000000;stroke-width:0.6;" x="258.377143" xlink:href="#mf0f0458f00" y="298.944"/>
      </g>
     </g>
    </g>
    <g id="xtick_8">
     <g id="line2d_19">
      <path clip-path="url(#p7e2480d15b)" d="M 338.688 298.944 
L 338.688 27.648 
" style="fill:none;stroke:#b0b0b0;stroke-linecap:square;stroke-width:0.8;"/>
     </g>
     <g id="line2d_20">
      <g>
       <use style="stroke:#000000;stroke-width:0.6;" x="338.688" xlink:href="#mf0f0458f00" y="298.944"/>
      </g>
     </g>
    </g>
    <g id="text_5">
     <!-- log10(# f-evals / dimension) -->
     <g transform="translate(77.764078 342.217594)scale(0.17 -0.17)">
      <defs>
       <path d="M 9.421875 75.984375 
L 18.40625 75.984375 
L 18.40625 0 
L 9.421875 0 
z
" id="DejaVuSans-108"/>
       <path d="M 30.609375 48.390625 
Q 23.390625 48.390625 19.1875 42.75 
Q 14.984375 37.109375 14.984375 27.296875 
Q 14.984375 17.484375 19.15625 11.84375 
Q 23.34375 6.203125 30.609375 6.203125 
Q 37.796875 6.203125 41.984375 11.859375 
Q 46.1875 17.53125 46.1875 27.296875 
Q 46.1875 37.015625 41.984375 42.703125 
Q 37.796875 48.390625 30.609375 48.390625 
z
M 30.609375 56 
Q 42.328125 56 49.015625 48.375 
Q 55.71875 40.765625 55.71875 27.296875 
Q 55.71875 13.875 49.015625 6.21875 
Q 42.328125 -1.421875 30.609375 -1.421875 
Q 18.84375 -1.421875 12.171875 6.21875 
Q 5.515625 13.875 5.515625 27.296875 
Q 5.515625 40.765625 12.171875 48.375 
Q 18.84375 56 30.609375 56 
z
" id="DejaVuSans-111"/>
       <path d="M 45.40625 27.984375 
Q 45.40625 37.75 41.375 43.109375 
Q 37.359375 48.484375 30.078125 48.484375 
Q 22.859375 48.484375 18.828125 43.109375 
Q 14.796875 37.75 14.796875 27.984375 
Q 14.796875 18.265625 18.828125 12.890625 
Q 22.859375 7.515625 30.078125 7.515625 
Q 37.359375 7.515625 41.375 12.890625 
Q 45.40625 18.265625 45.40625 27.984375 
z
M 54.390625 6.78125 
Q 54.390625 -7.171875 48.1875 -13.984375 
Q 42 -20.796875 29.203125 -20.796875 
Q 24.46875 -20.796875 20.265625 -20.09375 
Q 16.0625 -19.390625 12.109375 -17.921875 
L 12.109375 -9.1875 
Q 16.0625 -11.328125 19.921875 -12.34375 
Q 23.78125 -13.375 27.78125 -13.375 
Q 36.625 -13.375 41.015625 -8.765625 
Q 45.40625 -4.15625 45.40625 5.171875 
L 45.40625 9.625 
Q 42.625 4.78125 38.28125 2.390625 
Q 33.9375 0 27.875 0 
Q 17.828125 0 11.671875 7.65625 
Q 5.515625 15.328125 5.515625 27.984375 
Q 5.515625 40.671875 11.671875 48.328125 
Q 17.828125 56 27.875 56 
Q 33.9375 56 38.28125 53.609375 
Q 42.625 51.21875 45.40625 46.390625 
L 45.40625 54.6875 
L 54.390625 54.6875 
z
" id="DejaVuSans-103"/>
       <path d="M 12.40625 8.296875 
L 28.515625 8.296875 
L 28.515625 63.921875 
L 10.984375 60.40625 
L 10.984375 69.390625 
L 28.421875 72.90625 
L 38.28125 72.90625 
L 38.28125 8.296875 
L 54.390625 8.296875 
L 54.390625 0 
L 12.40625 0 
z
" id="DejaVuSans-49"/>
       <path d="M 31 75.875 
Q 24.46875 64.65625 21.28125 53.65625 
Q 18.109375 42.671875 18.109375 31.390625 
Q 18.109375 20.125 21.3125 9.0625 
Q 24.515625 -2 31 -13.1875 
L 23.1875 -13.1875 
Q 15.875 -1.703125 12.234375 9.375 
Q 8.59375 20.453125 8.59375 31.390625 
Q 8.59375 42.28125 12.203125 53.3125 
Q 15.828125 64.359375 23.1875 75.875 
z
" id="DejaVuSans-40"/>
       <path d="M 51.125 44 
L 36.921875 44 
L 32.8125 27.6875 
L 47.125 27.6875 
z
M 43.796875 71.78125 
L 38.71875 51.515625 
L 52.984375 51.515625 
L 58.109375 71.78125 
L 65.921875 71.78125 
L 60.890625 51.515625 
L 76.125 51.515625 
L 76.125 44 
L 58.984375 44 
L 54.984375 27.6875 
L 70.515625 27.6875 
L 70.515625 20.21875 
L 53.078125 20.21875 
L 48 0 
L 40.1875 0 
L 45.21875 20.21875 
L 30.90625 20.21875 
L 25.875 0 
L 18.015625 0 
L 23.09375 20.21875 
L 7.71875 20.21875 
L 7.71875 27.6875 
L 24.90625 27.6875 
L 29 44 
L 13.28125 44 
L 13.28125 51.515625 
L 30.90625 51.515625 
L 35.890625 71.78125 
z
" id="DejaVuSans-35"/>
       <path id="DejaVuSans-32"/>
       <path d="M 37.109375 75.984375 
L 37.109375 68.5 
L 28.515625 68.5 
Q 23.6875 68.5 21.796875 66.546875 
Q 19.921875 64.59375 19.921875 59.515625 
L 19.921875 54.6875 
L 34.71875 54.6875 
L 34.71875 47.703125 
L 19.921875 47.703125 
L 19.921875 0 
L 10.890625 0 
L 10.890625 47.703125 
L 2.296875 47.703125 
L 2.296875 54.6875 
L 10.890625 54.6875 
L 10.890625 58.5 
Q 10.890625 67.625 15.140625 71.796875 
Q 19.390625 75.984375 28.609375 75.984375 
z
" id="DejaVuSans-102"/>
       <path d="M 4.890625 31.390625 
L 31.203125 31.390625 
L 31.203125 23.390625 
L 4.890625 23.390625 
z
" id="DejaVuSans-45"/>
       <path d="M 56.203125 29.59375 
L 56.203125 25.203125 
L 14.890625 25.203125 
Q 15.484375 15.921875 20.484375 11.0625 
Q 25.484375 6.203125 34.421875 6.203125 
Q 39.59375 6.203125 44.453125 7.46875 
Q 49.3125 8.734375 54.109375 11.28125 
L 54.109375 2.78125 
Q 49.265625 0.734375 44.1875 -0.34375 
Q 39.109375 -1.421875 33.890625 -1.421875 
Q 20.796875 -1.421875 13.15625 6.1875 
Q 5.515625 13.8125 5.515625 26.8125 
Q 5.515625 40.234375 12.765625 48.109375 
Q 20.015625 56 32.328125 56 
Q 43.359375 56 49.78125 48.890625 
Q 56.203125 41.796875 56.203125 29.59375 
z
M 47.21875 32.234375 
Q 47.125 39.59375 43.09375 43.984375 
Q 39.0625 48.390625 32.421875 48.390625 
Q 24.90625 48.390625 20.390625 44.140625 
Q 15.875 39.890625 15.1875 32.171875 
z
" id="DejaVuSans-101"/>
       <path d="M 2.984375 54.6875 
L 12.5 54.6875 
L 29.59375 8.796875 
L 46.6875 54.6875 
L 56.203125 54.6875 
L 35.6875 0 
L 23.484375 0 
z
" id="DejaVuSans-118"/>
       <path d="M 34.28125 27.484375 
Q 23.390625 27.484375 19.1875 25 
Q 14.984375 22.515625 14.984375 16.5 
Q 14.984375 11.71875 18.140625 8.90625 
Q 21.296875 6.109375 26.703125 6.109375 
Q 34.1875 6.109375 38.703125 11.40625 
Q 43.21875 16.703125 43.21875 25.484375 
L 43.21875 27.484375 
z
M 52.203125 31.203125 
L 52.203125 0 
L 43.21875 0 
L 43.21875 8.296875 
Q 40.140625 3.328125 35.546875 0.953125 
Q 30.953125 -1.421875 24.3125 -1.421875 
Q 15.921875 -1.421875 10.953125 3.296875 
Q 6 8.015625 6 15.921875 
Q 6 25.140625 12.171875 29.828125 
Q 18.359375 34.515625 30.609375 34.515625 
L 43.21875 34.515625 
L 43.21875 35.40625 
Q 43.21875 41.609375 39.140625 45 
Q 35.0625 48.390625 27.6875 48.390625 
Q 23 48.390625 18.546875 47.265625 
Q 14.109375 46.140625 10.015625 43.890625 
L 10.015625 52.203125 
Q 14.9375 54.109375 19.578125 55.046875 
Q 24.21875 56 28.609375 56 
Q 40.484375 56 46.34375 49.84375 
Q 52.203125 43.703125 52.203125 31.203125 
z
" id="DejaVuSans-97"/>
       <path d="M 44.28125 53.078125 
L 44.28125 44.578125 
Q 40.484375 46.53125 36.375 47.5 
Q 32.28125 48.484375 27.875 48.484375 
Q 21.1875 48.484375 17.84375 46.4375 
Q 14.5 44.390625 14.5 40.28125 
Q 14.5 37.15625 16.890625 35.375 
Q 19.28125 33.59375 26.515625 31.984375 
L 29.59375 31.296875 
Q 39.15625 29.25 43.1875 25.515625 
Q 47.21875 21.78125 47.21875 15.09375 
Q 47.21875 7.46875 41.1875 3.015625 
Q 35.15625 -1.421875 24.609375 -1.421875 
Q 20.21875 -1.421875 15.453125 -0.5625 
Q 10.6875 0.296875 5.421875 2 
L 5.421875 11.28125 
Q 10.40625 8.6875 15.234375 7.390625 
Q 20.0625 6.109375 24.8125 6.109375 
Q 31.15625 6.109375 34.5625 8.28125 
Q 37.984375 10.453125 37.984375 14.40625 
Q 37.984375 18.0625 35.515625 20.015625 
Q 33.0625 21.96875 24.703125 23.78125 
L 21.578125 24.515625 
Q 13.234375 26.265625 9.515625 29.90625 
Q 5.8125 33.546875 5.8125 39.890625 
Q 5.8125 47.609375 11.28125 51.796875 
Q 16.75 56 26.8125 56 
Q 31.78125 56 36.171875 55.265625 
Q 40.578125 54.546875 44.28125 53.078125 
z
" id="DejaVuSans-115"/>
       <path d="M 25.390625 72.90625 
L 33.6875 72.90625 
L 8.296875 -9.28125 
L 0 -9.28125 
z
" id="DejaVuSans-47"/>
       <path d="M 45.40625 46.390625 
L 45.40625 75.984375 
L 54.390625 75.984375 
L 54.390625 0 
L 45.40625 0 
L 45.40625 8.203125 
Q 42.578125 3.328125 38.25 0.953125 
Q 33.9375 -1.421875 27.875 -1.421875 
Q 17.96875 -1.421875 11.734375 6.484375 
Q 5.515625 14.40625 5.515625 27.296875 
Q 5.515625 40.1875 11.734375 48.09375 
Q 17.96875 56 27.875 56 
Q 33.9375 56 38.25 53.625 
Q 42.578125 51.265625 45.40625 46.390625 
z
M 14.796875 27.296875 
Q 14.796875 17.390625 18.875 11.75 
Q 22.953125 6.109375 30.078125 6.109375 
Q 37.203125 6.109375 41.296875 11.75 
Q 45.40625 17.390625 45.40625 27.296875 
Q 45.40625 37.203125 41.296875 42.84375 
Q 37.203125 48.484375 30.078125 48.484375 
Q 22.953125 48.484375 18.875 42.84375 
Q 14.796875 37.203125 14.796875 27.296875 
z
" id="DejaVuSans-100"/>
       <path d="M 9.421875 54.6875 
L 18.40625 54.6875 
L 18.40625 0 
L 9.421875 0 
z
M 9.421875 75.984375 
L 18.40625 75.984375 
L 18.40625 64.59375 
L 9.421875 64.59375 
z
" id="DejaVuSans-105"/>
       <path d="M 52 44.1875 
Q 55.375 50.25 60.0625 53.125 
Q 64.75 56 71.09375 56 
Q 79.640625 56 84.28125 50.015625 
Q 88.921875 44.046875 88.921875 33.015625 
L 88.921875 0 
L 79.890625 0 
L 79.890625 32.71875 
Q 79.890625 40.578125 77.09375 44.375 
Q 74.3125 48.1875 68.609375 48.1875 
Q 61.625 48.1875 57.5625 43.546875 
Q 53.515625 38.921875 53.515625 30.90625 
L 53.515625 0 
L 44.484375 0 
L 44.484375 32.71875 
Q 44.484375 40.625 41.703125 44.40625 
Q 38.921875 48.1875 33.109375 48.1875 
Q 26.21875 48.1875 22.15625 43.53125 
Q 18.109375 38.875 18.109375 30.90625 
L 18.109375 0 
L 9.078125 0 
L 9.078125 54.6875 
L 18.109375 54.6875 
L 18.109375 46.1875 
Q 21.1875 51.21875 25.484375 53.609375 
Q 29.78125 56 35.6875 56 
Q 41.65625 56 45.828125 52.96875 
Q 50 49.953125 52 44.1875 
z
" id="DejaVuSans-109"/>
       <path d="M 54.890625 33.015625 
L 54.890625 0 
L 45.90625 0 
L 45.90625 32.71875 
Q 45.90625 40.484375 42.875 44.328125 
Q 39.84375 48.1875 33.796875 48.1875 
Q 26.515625 48.1875 22.3125 43.546875 
Q 18.109375 38.921875 18.109375 30.90625 
L 18.109375 0 
L 9.078125 0 
L 9.078125 54.6875 
L 18.109375 54.6875 
L 18.109375 46.1875 
Q 21.34375 51.125 25.703125 53.5625 
Q 30.078125 56 35.796875 56 
Q 45.21875 56 50.046875 50.171875 
Q 54.890625 44.34375 54.890625 33.015625 
z
" id="DejaVuSans-110"/>
       <path d="M 8.015625 75.875 
L 15.828125 75.875 
Q 23.140625 64.359375 26.78125 53.3125 
Q 30.421875 42.28125 30.421875 31.390625 
Q 30.421875 20.453125 26.78125 9.375 
Q 23.140625 -1.703125 15.828125 -13.1875 
L 8.015625 -13.1875 
Q 14.5 -2 17.703125 9.0625 
Q 20.90625 20.125 20.90625 31.390625 
Q 20.90625 42.671875 17.703125 53.65625 
Q 14.5 64.65625 8.015625 75.875 
z
" id="DejaVuSans-41"/>
      </defs>
      <use xlink:href="#DejaVuSans-108"/>
      <use x="27.783203" xlink:href="#DejaVuSans-111"/>
      <use x="88.964844" xlink:href="#DejaVuSans-103"/>
      <use x="152.441406" xlink:href="#DejaVuSans-49"/>
      <use x="216.064453" xlink:href="#DejaVuSans-48"/>
      <use x="279.6875" xlink:href="#DejaVuSans-40"/>
      <use x="318.701172" xlink:href="#DejaVuSans-35"/>
      <use x="402.490234" xlink:href="#DejaVuSans-32"/>
      <use x="434.277344" xlink:href="#DejaVuSans-102"/>
      <use x="463.982422" xlink:href="#DejaVuSans-45"/>
      <use x="500.066406" xlink:href="#DejaVuSans-101"/>
      <use x="561.589844" xlink:href="#DejaVuSans-118"/>
      <use x="620.769531" xlink:href="#DejaVuSans-97"/>
      <use x="682.048828" xlink:href="#DejaVuSans-108"/>
      <use x="709.832031" xlink:href="#DejaVuSans-115"/>
      <use x="761.931641" xlink:href="#DejaVuSans-32"/>
      <use x="793.71875" xlink:href="#DejaVuSans-47"/>
      <use x="827.410156" xlink:href="#DejaVuSans-32"/>
      <use x="859.197266" xlink:href="#DejaVuSans-100"/>
      <use x="922.673828" xlink:href="#DejaVuSans-105"/>
      <use x="950.457031" xlink:href="#DejaVuSans-109"/>
      <use x="1047.869141" xlink:href="#DejaVuSans-101"/>
      <use x="1109.392578" xlink:href="#DejaVuSans-110"/>
      <use x="1172.771484" xlink:href="#DejaVuSans-115"/>
      <use x="1224.871094" xlink:href="#DejaVuSans-105"/>
      <use x="1252.654297" xlink:href="#DejaVuSans-111"/>
      <use x="1313.835938" xlink:href="#DejaVuSans-110"/>
      <use x="1377.214844" xlink:href="#DejaVuSans-41"/>
     </g>
    </g>
   </g>
   <g id="matplotlib.axis_2">
    <g id="ytick_1">
     <g id="line2d_21">
      <path clip-path="url(#p7e2480d15b)" d="M 57.6 298.944 
L 338.688 298.944 
" style="fill:none;stroke:#b0b0b0;stroke-linecap:square;stroke-width:0.8;"/>
     </g>
     <g id="line2d_22">
      <defs>
       <path d="M 0 0 
L -3.5 0 
" id="m0477f0bd95" style="stroke:#000000;stroke-width:0.8;"/>
      </defs>
      <g>
       <use style="stroke:#000000;stroke-width:0.8;" x="57.6" xlink:href="#m0477f0bd95" y="298.944"/>
      </g>
     </g>
     <g id="text_6">
      <!-- 0.0 -->
      <g transform="translate(25.155 305.02275)scale(0.16 -0.16)">
       <defs>
        <path d="M 10.6875 12.40625 
L 21 12.40625 
L 21 0 
L 10.6875 0 
z
" id="DejaVuSans-46"/>
       </defs>
       <use xlink:href="#DejaVuSans-48"/>
       <use x="63.623047" xlink:href="#DejaVuSans-46"/>
       <use x="95.410156" xlink:href="#DejaVuSans-48"/>
      </g>
     </g>
    </g>
    <g id="ytick_2">
     <g id="line2d_23">
      <path clip-path="url(#p7e2480d15b)" d="M 57.6 245.22202 
L 338.688 245.22202 
" style="fill:none;stroke:#b0b0b0;stroke-linecap:square;stroke-width:0.8;"/>
     </g>
     <g id="line2d_24">
      <g>
       <use style="stroke:#000000;stroke-width:0.8;" x="57.6" xlink:href="#m0477f0bd95" y="245.22202"/>
      </g>
     </g>
     <g id="text_7">
      <!-- 0.2 -->
      <g transform="translate(25.155 251.30077)scale(0.16 -0.16)">
       <use xlink:href="#DejaVuSans-48"/>
       <use x="63.623047" xlink:href="#DejaVuSans-46"/>
       <use x="95.410156" xlink:href="#DejaVuSans-50"/>
      </g>
     </g>
    </g>
    <g id="ytick_3">
     <g id="line2d_25">
      <path clip-path="url(#p7e2480d15b)" d="M 57.6 191.50004 
L 338.688 191.50004 
" style="fill:none;stroke:#b0b0b0;stroke-linecap:square;stroke-width:0.8;"/>
     </g>
     <g id="line2d_26">
      <g>
       <use style="stroke:#000000;stroke-width:0.8;" x="57.6" xlink:href="#m0477f0bd95" y="191.50004"/>
      </g>
     </g>
     <g id="text_8">
      <!-- 0.4 -->
      <g transform="translate(25.155 197.57879)scale(0.16 -0.16)">
       <use xlink:href="#DejaVuSans-48"/>
       <use x="63.623047" xlink:href="#DejaVuSans-46"/>
       <use x="95.410156" xlink:href="#DejaVuSans-52"/>
      </g>
     </g>
    </g>
    <g id="ytick_4">
     <g id="line2d_27">
      <path clip-path="url(#p7e2480d15b)" d="M 57.6 137.778059 
L 338.688 137.778059 
" style="fill:none;stroke:#b0b0b0;stroke-linecap:square;stroke-width:0.8;"/>
     </g>
     <g id="line2d_28">
      <g>
       <use style="stroke:#000000;stroke-width:0.8;" x="57.6" xlink:href="#m0477f0bd95" y="137.778059"/>
      </g>
     </g>
     <g id="text_9">
      <!-- 0.6 -->
      <g transform="translate(25.155 143.856809)scale(0.16 -0.16)">
       <use xlink:href="#DejaVuSans-48"/>
       <use x="63.623047" xlink:href="#DejaVuSans-46"/>
       <use x="95.410156" xlink:href="#DejaVuSans-54"/>
      </g>
     </g>
    </g>
    <g id="ytick_5">
     <g id="line2d_29">
      <path clip-path="url(#p7e2480d15b)" d="M 57.6 84.056079 
L 338.688 84.056079 
" style="fill:none;stroke:#b0b0b0;stroke-linecap:square;stroke-width:0.8;"/>
     </g>
     <g id="line2d_30">
      <g>
       <use style="stroke:#000000;stroke-width:0.8;" x="57.6" xlink:href="#m0477f0bd95" y="84.056079"/>
      </g>
     </g>
     <g id="text_10">
      <!-- 0.8 -->
      <g transform="translate(25.155 90.134829)scale(0.16 -0.16)">
       <defs>
        <path d="M 31.78125 34.625 
Q 24.75 34.625 20.71875 30.859375 
Q 16.703125 27.09375 16.703125 20.515625 
Q 16.703125 13.921875 20.71875 10.15625 
Q 24.75 6.390625 31.78125 6.390625 
Q 38.8125 6.390625 42.859375 10.171875 
Q 46.921875 13.96875 46.921875 20.515625 
Q 46.921875 27.09375 42.890625 30.859375 
Q 38.875 34.625 31.78125 34.625 
z
M 21.921875 38.8125 
Q 15.578125 40.375 12.03125 44.71875 
Q 8.5 49.078125 8.5 55.328125 
Q 8.5 64.0625 14.71875 69.140625 
Q 20.953125 74.21875 31.78125 74.21875 
Q 42.671875 74.21875 48.875 69.140625 
Q 55.078125 64.0625 55.078125 55.328125 
Q 55.078125 49.078125 51.53125 44.71875 
Q 48 40.375 41.703125 38.8125 
Q 48.828125 37.15625 52.796875 32.3125 
Q 56.78125 27.484375 56.78125 20.515625 
Q 56.78125 9.90625 50.3125 4.234375 
Q 43.84375 -1.421875 31.78125 -1.421875 
Q 19.734375 -1.421875 13.25 4.234375 
Q 6.78125 9.90625 6.78125 20.515625 
Q 6.78125 27.484375 10.78125 32.3125 
Q 14.796875 37.15625 21.921875 38.8125 
z
M 18.3125 54.390625 
Q 18.3125 48.734375 21.84375 45.5625 
Q 25.390625 42.390625 31.78125 42.390625 
Q 38.140625 42.390625 41.71875 45.5625 
Q 45.3125 48.734375 45.3125 54.390625 
Q 45.3125 60.0625 41.71875 63.234375 
Q 38.140625 66.40625 31.78125 66.40625 
Q 25.390625 66.40625 21.84375 63.234375 
Q 18.3125 60.0625 18.3125 54.390625 
z
" id="DejaVuSans-56"/>
       </defs>
       <use xlink:href="#DejaVuSans-48"/>
       <use x="63.623047" xlink:href="#DejaVuSans-46"/>
       <use x="95.410156" xlink:href="#DejaVuSans-56"/>
      </g>
     </g>
    </g>
    <g id="ytick_6">
     <g id="line2d_31">
      <path clip-path="url(#p7e2480d15b)" d="M 57.6 30.334099 
L 338.688 30.334099 
" style="fill:none;stroke:#b0b0b0;stroke-linecap:square;stroke-width:0.8;"/>
     </g>
     <g id="line2d_32">
      <g>
       <use style="stroke:#000000;stroke-width:0.8;" x="57.6" xlink:href="#m0477f0bd95" y="30.334099"/>
      </g>
     </g>
     <g id="text_11">
      <!-- 1.0 -->
      <g transform="translate(25.155 36.412849)scale(0.16 -0.16)">
       <use xlink:href="#DejaVuSans-49"/>
       <use x="63.623047" xlink:href="#DejaVuSans-46"/>
       <use x="95.410156" xlink:href="#DejaVuSans-48"/>
      </g>
     </g>
    </g>
    <g id="text_12">
     <!-- Fraction of function,target pairs -->
     <g transform="translate(17.619531 297.681)rotate(-90)scale(0.17 -0.17)">
      <defs>
       <path d="M 9.8125 72.90625 
L 51.703125 72.90625 
L 51.703125 64.59375 
L 19.671875 64.59375 
L 19.671875 43.109375 
L 48.578125 43.109375 
L 48.578125 34.8125 
L 19.671875 34.8125 
L 19.671875 0 
L 9.8125 0 
z
" id="DejaVuSans-70"/>
       <path d="M 41.109375 46.296875 
Q 39.59375 47.171875 37.8125 47.578125 
Q 36.03125 48 33.890625 48 
Q 26.265625 48 22.1875 43.046875 
Q 18.109375 38.09375 18.109375 28.8125 
L 18.109375 0 
L 9.078125 0 
L 9.078125 54.6875 
L 18.109375 54.6875 
L 18.109375 46.1875 
Q 20.953125 51.171875 25.484375 53.578125 
Q 30.03125 56 36.53125 56 
Q 37.453125 56 38.578125 55.875 
Q 39.703125 55.765625 41.0625 55.515625 
z
" id="DejaVuSans-114"/>
       <path d="M 48.78125 52.59375 
L 48.78125 44.1875 
Q 44.96875 46.296875 41.140625 47.34375 
Q 37.3125 48.390625 33.40625 48.390625 
Q 24.65625 48.390625 19.8125 42.84375 
Q 14.984375 37.3125 14.984375 27.296875 
Q 14.984375 17.28125 19.8125 11.734375 
Q 24.65625 6.203125 33.40625 6.203125 
Q 37.3125 6.203125 41.140625 7.25 
Q 44.96875 8.296875 48.78125 10.40625 
L 48.78125 2.09375 
Q 45.015625 0.34375 40.984375 -0.53125 
Q 36.96875 -1.421875 32.421875 -1.421875 
Q 20.0625 -1.421875 12.78125 6.34375 
Q 5.515625 14.109375 5.515625 27.296875 
Q 5.515625 40.671875 12.859375 48.328125 
Q 20.21875 56 33.015625 56 
Q 37.15625 56 41.109375 55.140625 
Q 45.0625 54.296875 48.78125 52.59375 
z
" id="DejaVuSans-99"/>
       <path d="M 18.3125 70.21875 
L 18.3125 54.6875 
L 36.8125 54.6875 
L 36.8125 47.703125 
L 18.3125 47.703125 
L 18.3125 18.015625 
Q 18.3125 11.328125 20.140625 9.421875 
Q 21.96875 7.515625 27.59375 7.515625 
L 36.8125 7.515625 
L 36.8125 0 
L 27.59375 0 
Q 17.1875 0 13.234375 3.875 
Q 9.28125 7.765625 9.28125 18.015625 
L 9.28125 47.703125 
L 2.6875 47.703125 
L 2.6875 54.6875 
L 9.28125 54.6875 
L 9.28125 70.21875 
z
" id="DejaVuSans-116"/>
       <path d="M 8.5 21.578125 
L 8.5 54.6875 
L 17.484375 54.6875 
L 17.484375 21.921875 
Q 17.484375 14.15625 20.5 10.265625 
Q 23.53125 6.390625 29.59375 6.390625 
Q 36.859375 6.390625 41.078125 11.03125 
Q 45.3125 15.671875 45.3125 23.6875 
L 45.3125 54.6875 
L 54.296875 54.6875 
L 54.296875 0 
L 45.3125 0 
L 45.3125 8.40625 
Q 42.046875 3.421875 37.71875 1 
Q 33.40625 -1.421875 27.6875 -1.421875 
Q 18.265625 -1.421875 13.375 4.4375 
Q 8.5 10.296875 8.5 21.578125 
z
M 31.109375 56 
z
" id="DejaVuSans-117"/>
       <path d="M 11.71875 12.40625 
L 22.015625 12.40625 
L 22.015625 4 
L 14.015625 -11.625 
L 7.71875 -11.625 
L 11.71875 4 
z
" id="DejaVuSans-44"/>
       <path d="M 18.109375 8.203125 
L 18.109375 -20.796875 
L 9.078125 -20.796875 
L 9.078125 54.6875 
L 18.109375 54.6875 
L 18.109375 46.390625 
Q 20.953125 51.265625 25.265625 53.625 
Q 29.59375 56 35.59375 56 
Q 45.5625 56 51.78125 48.09375 
Q 58.015625 40.1875 58.015625 27.296875 
Q 58.015625 14.40625 51.78125 6.484375 
Q 45.5625 -1.421875 35.59375 -1.421875 
Q 29.59375 -1.421875 25.265625 0.953125 
Q 20.953125 3.328125 18.109375 8.203125 
z
M 48.6875 27.296875 
Q 48.6875 37.203125 44.609375 42.84375 
Q 40.53125 48.484375 33.40625 48.484375 
Q 26.265625 48.484375 22.1875 42.84375 
Q 18.109375 37.203125 18.109375 27.296875 
Q 18.109375 17.390625 22.1875 11.75 
Q 26.265625 6.109375 33.40625 6.109375 
Q 40.53125 6.109375 44.609375 11.75 
Q 48.6875 17.390625 48.6875 27.296875 
z
" id="DejaVuSans-112"/>
      </defs>
      <use xlink:href="#DejaVuSans-70"/>
      <use x="50.269531" xlink:href="#DejaVuSans-114"/>
      <use x="91.382812" xlink:href="#DejaVuSans-97"/>
      <use x="152.662109" xlink:href="#DejaVuSans-99"/>
      <use x="207.642578" xlink:href="#DejaVuSans-116"/>
      <use x="246.851562" xlink:href="#DejaVuSans-105"/>
      <use x="274.634766" xlink:href="#DejaVuSans-111"/>
      <use x="335.816406" xlink:href="#DejaVuSans-110"/>
      <use x="399.195312" xlink:href="#DejaVuSans-32"/>
      <use x="430.982422" xlink:href="#DejaVuSans-111"/>
      <use x="492.164062" xlink:href="#DejaVuSans-102"/>
      <use x="527.369141" xlink:href="#DejaVuSans-32"/>
      <use x="559.15625" xlink:href="#DejaVuSans-102"/>
      <use x="594.361328" xlink:href="#DejaVuSans-117"/>
      <use x="657.740234" xlink:href="#DejaVuSans-110"/>
      <use x="721.119141" xlink:href="#DejaVuSans-99"/>
      <use x="776.099609" xlink:href="#DejaVuSans-116"/>
      <use x="815.308594" xlink:href="#DejaVuSans-105"/>
      <use x="843.091797" xlink:href="#DejaVuSans-111"/>
      <use x="904.273438" xlink:href="#DejaVuSans-110"/>
      <use x="967.652344" xlink:href="#DejaVuSans-44"/>
      <use x="999.439453" xlink:href="#DejaVuSans-116"/>
      <use x="1038.648438" xlink:href="#DejaVuSans-97"/>
      <use x="1099.927734" xlink:href="#DejaVuSans-114"/>
      <use x="1139.291016" xlink:href="#DejaVuSans-103"/>
      <use x="1202.767578" xlink:href="#DejaVuSans-101"/>
      <use x="1264.291016" xlink:href="#DejaVuSans-116"/>
      <use x="1303.5" xlink:href="#DejaVuSans-32"/>
      <use x="1335.287109" xlink:href="#DejaVuSans-112"/>
      <use x="1398.763672" xlink:href="#DejaVuSans-97"/>
      <use x="1460.042969" xlink:href="#DejaVuSans-105"/>
      <use x="1487.826172" xlink:href="#DejaVuSans-114"/>
      <use x="1528.939453" xlink:href="#DejaVuSans-115"/>
     </g>
    </g>
   </g>
   <g id="line2d_33">
    <defs>
     <path d="M 0 1.5 
C 0.397805 1.5 0.77937 1.341951 1.06066 1.06066 
C 1.341951 0.77937 1.5 0.397805 1.5 0 
C 1.5 -0.397805 1.341951 -0.77937 1.06066 -1.06066 
C 0.77937 -1.341951 0.397805 -1.5 0 -1.5 
C -0.397805 -1.5 -0.77937 -1.341951 -1.06066 -1.06066 
C -1.341951 -0.77937 -1.5 -0.397805 -1.5 0 
C -1.5 0.397805 -1.341951 0.77937 -1.06066 1.06066 
C -0.77937 1.341951 -0.397805 1.5 0 1.5 
z
" id="m8e1442f248" style="stroke:#f5deb3;"/>
    </defs>
    <g>
     <use style="fill:#f5deb3;stroke:#f5deb3;" x="151.340991" xlink:href="#m8e1442f248" y="30.334099"/>
     <use style="fill:#f5deb3;stroke:#f5deb3;" x="151.340991" xlink:href="#m8e1442f248" y="30.334099"/>
    </g>
   </g>
   <g id="line2d_34">
    <defs>
     <path d="M 0 1.5 
C 0.397805 1.5 0.77937 1.341951 1.06066 1.06066 
C 1.341951 0.77937 1.5 0.397805 1.5 0 
C 1.5 -0.397805 1.341951 -0.77937 1.06066 -1.06066 
C 0.77937 -1.341951 0.397805 -1.5 0 -1.5 
C -0.397805 -1.5 -0.77937 -1.341951 -1.06066 -1.06066 
C -1.341951 -0.77937 -1.5 -0.397805 -1.5 0 
C -1.5 0.397805 -1.341951 0.77937 -1.06066 1.06066 
C -0.77937 1.341951 -0.397805 1.5 0 1.5 
z
" id="m2a77cf3594" style="stroke:#000080;"/>
    </defs>
    <g>
     <use style="fill:#000080;stroke:#000080;" x="293.264817" xlink:href="#m2a77cf3594" y="35.60096"/>
     <use style="fill:#000080;stroke:#000080;" x="293.264817" xlink:href="#m2a77cf3594" y="35.60096"/>
    </g>
   </g>
   <g id="line2d_35">
    <path d="M 29.53256 298.944 
L 29.53256 292.623767 
L 41.620548 292.623767 
L 41.620548 291.570395 
L 48.691568 291.570395 
L 48.691568 289.990337 
L 53.708537 289.990337 
L 53.708537 288.410278 
L 63.467834 288.410278 
L 63.467834 287.883592 
L 65.796525 287.883592 
L 65.796525 285.250162 
L 71.35013 285.250162 
L 71.35013 284.19679 
L 76.759008 284.19679 
L 76.759008 283.670104 
L 79.938565 283.670104 
L 79.938565 282.090045 
L 82.626842 282.090045 
L 82.626842 281.563359 
L 83.438118 281.563359 
L 83.438118 280.509987 
L 91.535274 280.509987 
L 91.535274 279.456615 
L 92.969447 279.456615 
L 92.969447 278.929929 
L 93.422441 278.929929 
L 93.422441 278.403243 
L 93.863965 278.403243 
L 93.863965 276.296499 
L 94.714831 276.296499 
L 94.714831 275.243126 
L 98.43941 275.243126 
L 98.43941 274.71644 
L 100.343767 274.71644 
L 100.343767 273.663068 
L 101.223245 273.663068 
L 101.223245 273.136382 
L 104.355088 273.136382 
L 104.355088 272.08301 
L 113.022974 272.08301 
L 113.022974 271.029638 
L 113.167699 271.029638 
L 113.167699 270.502952 
L 116.323218 270.502952 
L 116.323218 269.976266 
L 118.039942 269.976266 
L 118.039942 269.449579 
L 120.093994 269.449579 
L 120.093994 268.922893 
L 120.571812 268.922893 
L 120.571812 268.396207 
L 121.931406 268.396207 
L 121.931406 266.816149 
L 123.985457 266.816149 
L 123.985457 266.289463 
L 127.48501 266.289463 
L 127.48501 265.762777 
L 127.799239 265.762777 
L 127.799239 265.236091 
L 130.664567 265.236091 
L 130.664567 263.656033 
L 134.364738 263.656033 
L 134.364738 262.60266 
L 135.401861 262.60266 
L 135.401861 261.549288 
L 135.878591 261.549288 
L 135.878591 261.022602 
L 136.5324 261.022602 
L 136.5324 260.495916 
L 137.126135 260.495916 
L 137.126135 259.96923 
L 138.594838 259.96923 
L 138.594838 258.915858 
L 141.032186 258.915858 
L 141.119455 256.809114 
L 142.243147 256.809114 
L 142.243147 255.229055 
L 144.462672 255.229055 
L 144.462672 254.175683 
L 145.212864 254.175683 
L 145.212864 253.122311 
L 146.665144 253.122311 
L 146.665144 252.595625 
L 149.323233 252.595625 
L 149.323233 251.542253 
L 149.610898 251.542253 
L 149.610898 250.488881 
L 152.052897 250.488881 
L 152.052897 249.962195 
L 152.26858 249.962195 
L 152.26858 248.908822 
L 153.438049 248.908822 
L 153.438049 248.382136 
L 156.442528 248.382136 
L 156.442528 247.85545 
L 157.753847 247.85545 
L 157.753847 246.275392 
L 159.385473 246.275392 
L 159.385473 244.695334 
L 159.995685 244.695334 
L 159.995685 244.168648 
L 164.809955 244.168648 
L 164.809955 243.641962 
L 165.069087 243.641962 
L 165.069087 243.115275 
L 165.943384 243.115275 
L 166.013141 242.061903 
L 166.520851 242.061903 
L 166.520851 241.535217 
L 166.974711 241.535217 
L 166.974711 240.481845 
L 168.078792 240.481845 
L 168.189752 237.848415 
L 169.616809 237.848415 
L 169.616809 237.321729 
L 170.489231 237.321729 
L 170.489231 236.795043 
L 170.767069 236.795043 
L 170.767069 236.268356 
L 172.477331 236.268356 
L 172.477331 235.214984 
L 172.8058 235.214984 
L 172.8058 234.688298 
L 173.280304 234.688298 
L 173.280304 234.161612 
L 173.494678 234.161612 
L 173.526381 233.10824 
L 175.025688 233.10824 
L 175.025688 232.581554 
L 176.8157 232.581554 
L 176.8157 231.528182 
L 177.441359 231.528182 
L 177.441359 231.001496 
L 179.39874 231.001496 
L 179.39874 230.47481 
L 179.537135 230.47481 
L 179.617095 229.421437 
L 179.851651 229.421437 
L 179.851651 228.368065 
L 180.039542 228.368065 
L 180.039542 227.841379 
L 180.366615 227.841379 
L 180.366615 226.788007 
L 181.129191 226.788007 
L 181.129191 226.261321 
L 181.809233 226.261321 
L 181.809233 225.207949 
L 182.62831 225.207949 
L 182.62831 224.681263 
L 183.015983 224.681263 
L 183.031732 223.627891 
L 183.320551 223.627891 
L 183.320551 222.574518 
L 185.930499 222.574518 
L 185.994813 219.414402 
L 186.109546 219.414402 
L 186.109546 218.887716 
L 186.803674 218.887716 
L 186.803674 217.307658 
L 186.963553 217.307658 
L 186.963553 216.254285 
L 188.004042 216.254285 
L 188.098479 215.200913 
L 189.365904 215.200913 
L 189.475036 213.620855 
L 189.757409 213.620855 
L 189.757409 210.460738 
L 190.015957 210.460738 
L 190.015957 209.934052 
L 191.170442 209.934052 
L 191.170442 209.407366 
L 191.637941 209.407366 
L 191.637941 208.88068 
L 192.273311 208.88068 
L 192.273311 207.827308 
L 193.15856 207.827308 
L 193.15856 207.300622 
L 193.490083 207.300622 
L 193.490083 205.720564 
L 194.273053 205.720564 
L 194.273053 205.193878 
L 194.483843 205.193878 
L 194.483843 204.667192 
L 194.622068 204.667192 
L 194.696149 203.613819 
L 194.808687 203.613819 
L 194.832708 202.560447 
L 194.923157 202.560447 
L 194.923157 200.980389 
L 195.121033 200.980389 
L 195.138077 197.820273 
L 195.246505 197.820273 
L 195.246505 197.293586 
L 195.566524 197.293586 
L 195.566524 196.7669 
L 195.739557 196.7669 
L 195.739557 196.240214 
L 195.960964 196.240214 
L 195.960964 194.660156 
L 196.422321 194.660156 
L 196.422321 194.13347 
L 196.726439 194.13347 
L 196.726439 193.606784 
L 197.659318 193.606784 
L 197.659318 192.553412 
L 197.854412 192.553412 
L 197.854412 192.026726 
L 198.393256 192.026726 
L 198.393256 190.973354 
L 198.637272 190.973354 
L 198.637272 188.866609 
L 199.474602 188.866609 
L 199.474602 188.339923 
L 200.273563 188.339923 
L 200.273563 187.813237 
L 200.63775 187.813237 
L 200.63775 186.759865 
L 201.539437 186.759865 
L 201.539437 186.233179 
L 201.686788 186.233179 
L 201.686788 185.706493 
L 201.983117 185.706493 
L 202.052894 184.653121 
L 202.179368 184.653121 
L 202.179368 184.126434 
L 202.389005 184.126434 
L 202.389005 183.599748 
L 202.809311 183.599748 
L 202.809311 183.073062 
L 203.079836 183.073062 
L 203.079836 182.546376 
L 203.199102 182.546376 
L 203.199102 182.01969 
L 203.329032 182.01969 
L 203.336404 179.912946 
L 204.095188 179.912946 
L 204.095188 178.859574 
L 204.957923 178.859574 
L 204.957923 178.332888 
L 205.848896 178.332888 
L 205.848896 177.806202 
L 206.354154 177.806202 
L 206.395434 176.226143 
L 206.726921 176.226143 
L 206.726921 175.699457 
L 207.085282 175.699457 
L 207.085282 173.592713 
L 207.367021 173.592713 
L 207.367021 173.066027 
L 207.504912 173.066027 
L 207.504912 172.539341 
L 208.37097 172.539341 
L 208.37097 171.485969 
L 208.907495 171.485969 
L 208.907495 170.959282 
L 209.100392 170.959282 
L 209.133314 169.90591 
L 209.313864 169.90591 
L 209.313864 169.379224 
L 209.457431 169.379224 
L 209.466653 168.325852 
L 209.695631 168.325852 
L 209.695631 167.27248 
L 209.955852 167.27248 
L 209.955852 166.219108 
L 210.364513 166.219108 
L 210.366702 165.165736 
L 210.495374 165.165736 
L 210.569636 162.005619 
L 210.846532 162.005619 
L 210.881103 160.425561 
L 211.135341 160.425561 
L 211.135341 159.898875 
L 211.302624 159.898875 
L 211.343549 158.845503 
L 211.668549 158.845503 
L 211.672611 155.685386 
L 212.076636 155.685386 
L 212.076636 153.578642 
L 212.192837 153.578642 
L 212.192837 151.998584 
L 212.317569 151.998584 
L 212.425861 150.945211 
L 212.697514 150.945211 
L 212.700387 149.365153 
L 212.844356 149.365153 
L 212.844356 148.838467 
L 213.76352 148.838467 
L 213.806704 147.785095 
L 214.019699 147.785095 
L 214.019699 146.205037 
L 214.608358 146.205037 
L 214.68286 144.098292 
L 214.854622 144.098292 
L 214.854622 143.571606 
L 214.981923 143.571606 
L 214.981923 141.991548 
L 215.191494 141.991548 
L 215.191494 141.464862 
L 215.653009 141.464862 
L 215.653009 140.938176 
L 215.943573 140.938176 
L 216.032773 137.778059 
L 216.471667 137.778059 
L 216.471667 136.198001 
L 216.651584 136.198001 
L 216.651584 135.671315 
L 216.810008 135.671315 
L 216.837972 133.564571 
L 216.92648 133.564571 
L 216.92648 132.511199 
L 217.228154 132.511199 
L 217.338941 131.457826 
L 217.460691 131.457826 
L 217.550452 128.824396 
L 217.68873 128.824396 
L 217.769813 127.771024 
L 217.976547 127.771024 
L 218.003762 125.137593 
L 222.322582 125.137593 
L 222.322582 124.610907 
L 222.502508 124.610907 
L 222.502508 122.504163 
L 223.063148 122.504163 
L 223.063148 121.977477 
L 224.243577 121.977477 
L 224.243577 121.450791 
L 224.900031 121.450791 
L 224.900031 120.924105 
L 225.371151 120.924105 
L 225.371151 120.397419 
L 225.60659 120.397419 
L 225.60659 119.870733 
L 226.220054 119.870733 
L 226.329948 118.817361 
L 226.342213 118.817361 
L 226.342213 118.290674 
L 226.46374 118.290674 
L 226.46374 117.763988 
L 226.653385 117.763988 
L 226.653385 117.237302 
L 226.81139 117.237302 
L 226.877336 116.18393 
L 227.199208 116.18393 
L 227.280105 115.130558 
L 227.330863 115.130558 
L 227.330863 114.077186 
L 227.498248 114.077186 
L 227.498248 113.5505 
L 227.758568 113.5505 
L 227.758568 113.023814 
L 228.327136 113.023814 
L 228.327136 110.390383 
L 228.588745 110.390383 
L 228.699645 106.176895 
L 228.75731 106.176895 
L 228.75731 105.650209 
L 229.065112 105.650209 
L 229.065112 104.07015 
L 229.200374 104.07015 
L 229.242139 102.490092 
L 229.535011 102.490092 
L 229.535011 100.910034 
L 229.926213 100.910034 
L 229.97019 98.276603 
L 230.126151 98.276603 
L 230.194046 92.483056 
L 233.220081 92.483056 
L 233.220081 91.95637 
L 233.502189 91.95637 
L 233.502189 91.429684 
L 234.825483 91.429684 
L 234.825483 90.902998 
L 235.174374 90.902998 
L 235.174374 90.376312 
L 235.354334 90.376312 
L 235.447195 89.32294 
L 235.55248 89.32294 
L 235.55248 88.269568 
L 235.674836 88.269568 
L 235.674836 87.742882 
L 236.247527 87.742882 
L 236.356366 86.162824 
L 236.644215 86.162824 
L 236.671481 85.109451 
L 236.950046 85.109451 
L 237.046307 83.529393 
L 237.150405 83.529393 
L 237.150405 81.949335 
L 237.299032 81.949335 
L 237.299032 80.369277 
L 240.572773 80.369277 
L 240.572773 79.842591 
L 240.758154 79.842591 
L 240.758154 79.315904 
L 241.130423 79.315904 
L 241.130423 78.789218 
L 241.325214 78.789218 
L 241.325214 77.20916 
L 241.631475 77.20916 
L 241.631475 76.155788 
L 241.864886 76.155788 
L 241.864886 75.629102 
L 242.072132 75.629102 
L 242.143944 74.049044 
L 242.221716 74.049044 
L 242.255418 71.942299 
L 242.332959 71.942299 
L 242.332959 69.835555 
L 245.676009 69.835555 
L 245.676009 69.308869 
L 246.2292 69.308869 
L 246.234589 67.202125 
L 248.904112 67.202125 
L 248.904112 66.675439 
L 249.204845 66.675439 
L 249.295261 64.042008 
L 249.416431 64.042008 
L 249.42092 61.408578 
L 251.232759 61.408578 
L 251.232759 60.881892 
L 251.672125 60.881892 
L 251.672125 60.355206 
L 252.114035 60.355206 
L 252.114035 58.248461 
L 254.099649 58.248461 
L 254.099649 57.721775 
L 254.446353 57.721775 
L 254.446353 56.141717 
L 255.941736 56.141717 
L 255.941736 55.615031 
L 256.500235 55.615031 
L 256.503226 54.034973 
L 258.340202 54.034973 
L 258.342893 52.9816 
L 259.548943 52.9816 
L 259.548943 52.454914 
L 259.966585 52.454914 
L 260.00688 50.34817 
L 261.269595 50.34817 
L 261.269595 49.821484 
L 261.525834 49.821484 
L 261.525834 49.294798 
L 262.923022 49.294798 
L 262.923022 48.768112 
L 264.216528 48.768112 
L 264.216528 48.241426 
L 265.42068 48.241426 
L 265.42068 47.71474 
L 266.355253 47.71474 
L 266.355253 47.188054 
L 267.605027 47.188054 
L 267.605027 46.134681 
L 268.602492 46.134681 
L 268.602492 45.607995 
L 269.545979 45.607995 
L 269.545979 45.081309 
L 270.441031 45.081309 
L 270.441031 44.554623 
L 272.104094 44.554623 
L 272.104094 43.501251 
L 273.622279 43.501251 
L 273.622279 42.447879 
L 274.334523 42.447879 
L 274.334523 40.867821 
L 275.018816 40.867821 
L 275.018816 39.814448 
L 275.67727 39.814448 
L 275.67727 39.287762 
L 278.641361 39.287762 
L 278.641361 38.23439 
L 280.092699 38.23439 
L 280.092699 37.707704 
L 281.174087 37.707704 
L 281.174087 37.181018 
L 282.964837 37.181018 
L 282.964837 36.127646 
L 293.264817 36.127646 
L 293.264817 35.60096 
L 338.688 35.60096 
L 338.688 35.60096 
" style="fill:none;stroke:#000080;stroke-linecap:square;stroke-width:1.5;"/>
   </g>
   <g id="line2d_36">
    <defs>
     <path d="M 0 6 
C 1.591219 6 3.117479 5.367802 4.242641 4.242641 
C 5.367802 3.117479 6 1.591219 6 0 
C 6 -1.591219 5.367802 -3.117479 4.242641 -4.242641 
C 3.117479 -5.367802 1.591219 -6 0 -6 
C -1.591219 -6 -3.117479 -5.367802 -4.242641 -4.242641 
C -5.367802 -3.117479 -6 -1.591219 -6 0 
C -6 1.591219 -5.367802 3.117479 -4.242641 4.242641 
C -3.117479 5.367802 -1.591219 6 0 6 
z
" id="mc7fa67f6e8" style="stroke:#000080;stroke-width:1.5;"/>
    </defs>
    <g>
     <use style="fill-opacity:0;stroke:#000080;stroke-width:1.5;" x="146.665144" xlink:href="#mc7fa67f6e8" y="252.595625"/>
     <use style="fill-opacity:0;stroke:#000080;stroke-width:1.5;" x="191.637941" xlink:href="#mc7fa67f6e8" y="209.407366"/>
     <use style="fill-opacity:0;stroke:#000080;stroke-width:1.5;" x="249.247639" xlink:href="#mc7fa67f6e8" y="66.148752"/>
     <use style="fill-opacity:0;stroke:#000080;stroke-width:1.5;" x="293.264817" xlink:href="#mc7fa67f6e8" y="35.60096"/>
     <use style="fill-opacity:0;stroke:#000080;stroke-width:1.5;" x="293.264817" xlink:href="#mc7fa67f6e8" y="35.60096"/>
     <use style="fill-opacity:0;stroke:#000080;stroke-width:1.5;" x="338.688" xlink:href="#mc7fa67f6e8" y="35.60096"/>
    </g>
   </g>
   <g id="line2d_37">
    <path style="fill:none;stroke:#000080;stroke-linecap:square;stroke-width:1.5;"/>
    <g/>
   </g>
   <g id="line2d_38">
    <path clip-path="url(#p7e2480d15b)" d="M 218.207757 125.137593 
" style="fill:none;stroke:#000080;stroke-linecap:square;stroke-width:1.5;"/>
    <defs>
     <path d="M -12 12 
L 12 -12 
M -12 -12 
L 12 12 
" id="m6920a07b93" style="stroke:#000080;"/>
    </defs>
    <g clip-path="url(#p7e2480d15b)">
     <use style="fill:#000080;stroke:#000080;" x="218.207757" xlink:href="#m6920a07b93" y="125.137593"/>
    </g>
   </g>
   <g id="line2d_39">
    <defs>
     <path d="M 0 1.5 
C 0.397805 1.5 0.77937 1.341951 1.06066 1.06066 
C 1.341951 0.77937 1.5 0.397805 1.5 0 
C 1.5 -0.397805 1.341951 -0.77937 1.06066 -1.06066 
C 0.77937 -1.341951 0.397805 -1.5 0 -1.5 
C -0.397805 -1.5 -0.77937 -1.341951 -1.06066 -1.06066 
C -1.341951 -0.77937 -1.5 -0.397805 -1.5 0 
C -1.5 0.397805 -1.341951 0.77937 -1.06066 1.06066 
C -0.77937 1.341951 -0.397805 1.5 0 1.5 
z
" id="m86f40be1c7" style="stroke:#ff00ff;"/>
    </defs>
    <g>
     <use style="fill:#ff00ff;stroke:#ff00ff;" x="264.331832" xlink:href="#m86f40be1c7" y="30.334099"/>
     <use style="fill:#ff00ff;stroke:#ff00ff;" x="264.331832" xlink:href="#m86f40be1c7" y="30.334099"/>
    </g>
   </g>
   <g id="line2d_40">
    <path d="M 29.53256 298.944 
L 29.53256 292.623767 
L 41.620548 292.623767 
L 41.620548 292.097081 
L 53.708537 292.097081 
L 53.708537 291.043709 
L 63.467834 291.043709 
L 63.467834 290.517023 
L 65.796525 290.517023 
L 65.796525 289.463651 
L 71.35013 289.463651 
L 71.35013 288.410278 
L 72.867545 288.410278 
L 72.867545 287.356906 
L 74.263433 287.356906 
L 74.263433 286.303534 
L 76.759008 286.303534 
L 76.759008 285.250162 
L 77.884514 285.250162 
L 77.884514 284.723476 
L 78.941764 284.723476 
L 78.941764 284.19679 
L 79.938565 284.19679 
L 79.938565 282.616732 
L 81.775977 282.616732 
L 81.775977 281.036673 
L 87.643811 281.036673 
L 87.643811 279.983301 
L 91.535274 279.983301 
L 91.535274 279.456615 
L 92.504372 279.456615 
L 92.504372 278.929929 
L 100.343767 278.929929 
L 100.343767 277.876557 
L 100.641881 277.876557 
L 100.641881 277.349871 
L 101.223245 277.349871 
L 101.223245 276.296499 
L 110.188761 276.296499 
L 110.188761 274.189754 
L 111.185562 274.189754 
L 111.185562 272.609696 
L 113.022974 272.609696 
L 113.022974 271.556324 
L 113.311233 271.556324 
L 113.311233 271.029638 
L 113.73488 271.029638 
L 113.73488 270.502952 
L 114.148479 270.502952 
L 114.148479 269.976266 
L 118.786692 269.976266 
L 118.786692 269.449579 
L 121.036887 269.449579 
L 121.036887 268.922893 
L 121.489881 268.922893 
L 121.489881 266.816149 
L 123.434283 266.816149 
L 123.434283 265.762777 
L 125.399222 265.762777 
L 125.470548 264.182719 
L 128.944197 264.182719 
L 128.944197 263.129347 
L 129.742212 263.129347 
L 129.79784 261.022602 
L 131.082294 261.022602 
L 131.082294 260.495916 
L 131.987128 260.495916 
L 131.987128 259.442544 
L 132.278599 259.442544 
L 132.278599 258.915858 
L 132.612604 258.915858 
L 132.612604 258.389172 
L 132.893889 258.389172 
L 132.893889 256.282427 
L 134.062938 256.282427 
L 134.149701 255.229055 
L 134.450015 255.229055 
L 134.450015 254.702369 
L 135.158519 254.702369 
L 135.158519 254.175683 
L 136.189322 254.175683 
L 136.266147 253.122311 
L 137.307607 253.122311 
L 137.307607 252.595625 
L 138.426341 252.595625 
L 138.426341 251.542253 
L 140.708409 251.542253 
L 140.708409 250.488881 
L 141.177393 250.488881 
L 141.177393 249.962195 
L 142.243147 249.962195 
L 142.243147 249.435508 
L 143.066785 249.435508 
L 143.066785 248.908822 
L 144.818346 248.908822 
L 144.818346 248.382136 
L 145.888018 248.382136 
L 145.888018 247.328764 
L 146.150926 247.328764 
L 146.150926 246.802078 
L 146.580487 246.802078 
L 146.580487 245.748706 
L 147.368603 245.748706 
L 147.368603 245.22202 
L 147.96658 245.22202 
L 147.96658 244.695334 
L 148.901221 244.695334 
L 148.901221 243.641962 
L 149.286939 243.641962 
L 149.286939 243.115275 
L 149.646525 243.115275 
L 149.699829 241.535217 
L 151.533692 241.535217 
L 151.62925 238.901787 
L 152.944315 238.901787 
L 152.944315 236.795043 
L 153.580644 236.795043 
L 153.580644 235.74167 
L 153.987696 235.74167 
L 153.987696 234.688298 
L 154.46664 234.688298 
L 154.46664 234.161612 
L 155.766741 234.161612 
L 155.86668 232.581554 
L 156.114049 232.581554 
L 156.175347 230.47481 
L 157.243392 230.47481 
L 157.243392 229.948123 
L 158.0201 229.948123 
L 158.053098 228.368065 
L 158.9003 228.368065 
L 158.9003 226.788007 
L 159.768105 226.788007 
L 159.807898 225.207949 
L 161.438393 225.207949 
L 161.438393 224.681263 
L 162.217141 224.681263 
L 162.217141 223.101204 
L 162.593851 223.101204 
L 162.593851 222.574518 
L 163.053576 222.574518 
L 163.053576 222.047832 
L 163.217788 222.047832 
L 163.217788 220.99446 
L 164.024234 220.99446 
L 164.024234 220.467774 
L 164.577177 220.467774 
L 164.607388 218.887716 
L 164.965896 218.887716 
L 164.965896 218.36103 
L 165.200871 218.36103 
L 165.200871 216.254285 
L 165.418321 216.254285 
L 165.418321 215.727599 
L 165.725346 215.727599 
L 165.781875 213.094169 
L 166.054862 213.094169 
L 166.054862 212.567483 
L 166.541125 212.567483 
L 166.541125 211.514111 
L 166.868978 211.514111 
L 166.868978 210.460738 
L 167.027338 210.460738 
L 167.027338 209.407366 
L 168.103511 209.407366 
L 168.146685 208.353994 
L 168.367051 208.353994 
L 168.367051 207.300622 
L 168.482242 207.300622 
L 168.482242 206.773936 
L 168.620674 206.773936 
L 168.662588 205.193878 
L 168.852923 205.193878 
L 168.852923 204.140506 
L 169.140406 204.140506 
L 169.140406 203.613819 
L 169.588476 203.613819 
L 169.684622 201.507075 
L 169.86976 201.507075 
L 169.86976 200.980389 
L 170.113593 200.980389 
L 170.113593 200.453703 
L 170.256089 200.453703 
L 170.305145 199.400331 
L 170.596616 199.400331 
L 170.687376 197.820273 
L 170.909603 197.820273 
L 170.909603 196.7669 
L 171.03533 196.7669 
L 171.103055 194.660156 
L 171.61036 194.660156 
L 171.61036 194.13347 
L 171.8212 194.13347 
L 171.915749 192.553412 
L 172.201242 192.553412 
L 172.201242 192.026726 
L 173.335289 192.026726 
L 173.335289 190.973354 
L 173.728826 190.973354 
L 173.773496 189.393295 
L 174.287811 189.393295 
L 174.287811 188.339923 
L 174.596935 188.339923 
L 174.686074 186.233179 
L 174.724137 186.233179 
L 174.724137 185.706493 
L 175.063018 185.706493 
L 175.170413 184.126434 
L 175.516968 184.126434 
L 175.516968 183.599748 
L 176.186193 183.599748 
L 176.186193 183.073062 
L 176.665166 183.073062 
L 176.665166 182.546376 
L 176.912855 182.546376 
L 176.912855 181.493004 
L 177.127655 181.493004 
L 177.16075 180.439632 
L 177.299796 180.439632 
L 177.299796 179.912946 
L 177.678338 179.912946 
L 177.678338 179.38626 
L 177.809795 179.38626 
L 177.809795 178.859574 
L 178.024381 178.859574 
L 178.024381 177.806202 
L 178.551267 177.806202 
L 178.561441 176.752829 
L 178.709976 176.752829 
L 178.709976 175.699457 
L 179.039625 175.699457 
L 179.039625 175.172771 
L 179.575561 175.172771 
L 179.575561 174.119399 
L 179.892533 174.119399 
L 179.892533 173.592713 
L 180.253144 173.592713 
L 180.253144 173.066027 
L 180.648609 173.066027 
L 180.648609 172.539341 
L 180.848977 172.539341 
L 180.872748 169.90591 
L 181.035305 169.90591 
L 181.035305 169.379224 
L 181.280686 169.379224 
L 181.280686 168.852538 
L 182.431193 168.852538 
L 182.431193 168.325852 
L 182.820568 168.325852 
L 182.820568 167.799166 
L 183.005476 167.799166 
L 183.005476 167.27248 
L 183.204038 167.27248 
L 183.292142 166.219108 
L 183.513025 166.219108 
L 183.543625 164.63905 
L 183.846704 164.63905 
L 183.846704 163.585677 
L 184.425399 163.585677 
L 184.425399 163.058991 
L 185.537275 163.058991 
L 185.537275 162.532305 
L 185.839164 162.532305 
L 185.839164 162.005619 
L 186.105147 162.005619 
L 186.105147 161.478933 
L 186.513865 161.478933 
L 186.513865 160.952247 
L 188.869931 160.952247 
L 188.869931 160.425561 
L 218.34752 160.425561 
L 218.425259 158.318817 
L 218.546187 158.318817 
L 218.644848 155.685386 
L 218.700588 155.685386 
L 218.79332 153.578642 
L 218.823335 153.578642 
L 218.910725 152.52527 
L 218.943886 152.52527 
L 219.036335 150.418525 
L 219.063276 150.418525 
L 219.116041 148.311781 
L 219.182185 148.311781 
L 219.277979 141.991548 
L 219.293402 141.991548 
L 219.353976 137.778059 
L 219.406195 137.778059 
L 219.503039 134.617943 
L 219.590321 134.617943 
L 219.666898 130.93114 
L 219.782094 130.93114 
L 219.88005 127.244338 
L 219.92819 127.244338 
L 220.018725 124.610907 
L 220.05801 124.610907 
L 220.15849 120.397419 
L 220.263981 120.397419 
L 220.37377 118.290674 
L 220.39195 118.290674 
L 220.499409 114.077186 
L 230.472694 114.077186 
L 230.555599 110.390383 
L 230.642561 110.390383 
L 230.73556 107.756953 
L 230.785692 107.756953 
L 230.884178 104.596836 
L 230.911998 104.596836 
L 231.010109 100.910034 
L 231.07549 100.910034 
L 231.183971 97.749917 
L 231.231344 97.749917 
L 231.314021 94.063115 
L 231.395161 94.063115 
L 231.483916 90.376312 
L 231.620817 90.376312 
L 231.620817 89.32294 
L 231.858916 89.32294 
L 231.858916 88.796254 
L 237.438178 88.796254 
L 237.545038 87.742882 
L 237.583578 87.742882 
L 237.667724 84.582765 
L 237.7109 84.582765 
L 237.777624 79.315904 
L 237.828236 79.315904 
L 237.935894 75.629102 
L 237.951203 75.629102 
L 238.050501 68.782183 
L 238.098543 68.782183 
L 238.198339 66.675439 
L 238.278914 66.675439 
L 238.278914 66.148752 
L 242.550053 66.148752 
L 242.653558 64.568694 
L 242.706408 64.568694 
L 242.801069 59.301833 
L 242.822101 59.301833 
L 242.907079 57.195089 
L 242.948864 57.195089 
L 243.054318 54.034973 
L 246.44105 54.034973 
L 246.516126 50.34817 
L 246.574143 50.34817 
L 246.665383 47.188054 
L 246.6941 47.188054 
L 246.759407 46.134681 
L 246.816419 46.134681 
L 246.825486 45.081309 
L 249.611822 45.081309 
L 249.7122 42.447879 
L 249.826133 42.447879 
L 249.826133 41.921193 
L 252.29748 41.921193 
L 252.365457 38.23439 
L 252.446799 38.23439 
L 252.535225 37.181018 
L 254.669348 37.181018 
L 254.777384 35.60096 
L 256.737836 35.60096 
L 256.765861 33.494215 
L 258.479663 33.494215 
L 258.523644 32.440843 
L 260.110007 32.440843 
L 260.189155 31.387471 
L 261.639832 31.387471 
L 261.639832 30.860785 
L 264.331832 30.860785 
L 264.331832 30.334099 
L 338.688 30.334099 
L 338.688 30.334099 
" style="fill:none;stroke:#ff00ff;stroke-linecap:square;stroke-width:1.5;"/>
   </g>
   <g id="line2d_41">
    <defs>
     <path d="M 0 8.485281 
L 5.091169 0 
L 0 -8.485281 
L -5.091169 0 
z
" id="m0533950df4" style="stroke:#ff00ff;stroke-linejoin:miter;stroke-width:1.5;"/>
    </defs>
    <g>
     <use style="fill-opacity:0;stroke:#ff00ff;stroke-linejoin:miter;stroke-width:1.5;" x="92.504372" xlink:href="#m0533950df4" y="279.456615"/>
     <use style="fill-opacity:0;stroke:#ff00ff;stroke-linejoin:miter;stroke-width:1.5;" x="166.541125" xlink:href="#m0533950df4" y="211.514111"/>
     <use style="fill-opacity:0;stroke:#ff00ff;stroke-linejoin:miter;stroke-width:1.5;" x="219.92819" xlink:href="#m0533950df4" y="126.717652"/>
     <use style="fill-opacity:0;stroke:#ff00ff;stroke-linejoin:miter;stroke-width:1.5;" x="264.331832" xlink:href="#m0533950df4" y="30.860785"/>
     <use style="fill-opacity:0;stroke:#ff00ff;stroke-linejoin:miter;stroke-width:1.5;" x="264.331832" xlink:href="#m0533950df4" y="30.334099"/>
     <use style="fill-opacity:0;stroke:#ff00ff;stroke-linejoin:miter;stroke-width:1.5;" x="338.688" xlink:href="#m0533950df4" y="30.334099"/>
    </g>
   </g>
   <g id="line2d_42">
    <path style="fill:none;stroke:#ff00ff;stroke-linecap:square;stroke-width:1.5;"/>
    <g/>
   </g>
   <g id="line2d_43">
    <path clip-path="url(#p7e2480d15b)" d="M 218.221714 160.425561 
" style="fill:none;stroke:#ff00ff;stroke-linecap:square;stroke-width:1.5;"/>
    <defs>
     <path d="M -12 12 
L 12 -12 
M -12 -12 
L 12 12 
" id="me99fdf3e07" style="stroke:#ff00ff;"/>
    </defs>
    <g clip-path="url(#p7e2480d15b)">
     <use style="fill:#ff00ff;stroke:#ff00ff;" x="218.221714" xlink:href="#me99fdf3e07" y="160.425561"/>
    </g>
   </g>
   <g id="line2d_44">
    <path d="M 338.688 35.60096 
L 369.60768 293.571802 
" style="fill:none;stroke:#000080;stroke-linecap:square;stroke-width:1.5;"/>
    <g>
     <use style="fill-opacity:0;stroke:#000080;stroke-width:1.5;" x="338.688" xlink:href="#mc7fa67f6e8" y="35.60096"/>
     <use style="fill-opacity:0;stroke:#000080;stroke-width:1.5;" x="369.60768" xlink:href="#mc7fa67f6e8" y="293.571802"/>
    </g>
   </g>
   <g id="line2d_45">
    <path d="M 338.688 30.334099 
L 369.60768 164.63905 
" style="fill:none;stroke:#ff00ff;stroke-linecap:square;stroke-width:1.5;"/>
    <g>
     <use style="fill-opacity:0;stroke:#ff00ff;stroke-linejoin:miter;stroke-width:1.5;" x="338.688" xlink:href="#m0533950df4" y="30.334099"/>
     <use style="fill-opacity:0;stroke:#ff00ff;stroke-linejoin:miter;stroke-width:1.5;" x="369.60768" xlink:href="#m0533950df4" y="164.63905"/>
    </g>
   </g>
   <g id="line2d_46">
    <path d="M 338.688 298.944 
L 338.688 30.334099 
" style="fill:none;stroke:#000000;stroke-linecap:square;stroke-width:1.5;"/>
   </g>
   <g id="patch_3">
    <path d="M 57.6 298.944 
L 57.6 27.648 
" style="fill:none;stroke:#000000;stroke-linecap:square;stroke-linejoin:miter;stroke-width:0.8;"/>
   </g>
   <g id="patch_4">
    <path d="M 338.688 298.944 
L 338.688 27.648 
" style="fill:none;stroke:#000000;stroke-linecap:square;stroke-linejoin:miter;stroke-width:0.8;"/>
   </g>
   <g id="patch_5">
    <path d="M 57.6 298.944 
L 338.688 298.944 
" style="fill:none;stroke:#000000;stroke-linecap:square;stroke-linejoin:miter;stroke-width:0.8;"/>
   </g>
   <g id="patch_6">
    <path d="M 57.6 27.648 
L 338.688 27.648 
" style="fill:none;stroke:#000000;stroke-linecap:square;stroke-linejoin:miter;stroke-width:0.8;"/>
   </g>
   <g id="text_13">
    <!-- DEPSOmax5 -->
    <g transform="translate(375.22944 298.262739)scale(0.17 -0.17)">
     <defs>
      <path d="M 19.671875 64.796875 
L 19.671875 8.109375 
L 31.59375 8.109375 
Q 46.6875 8.109375 53.6875 14.9375 
Q 60.6875 21.78125 60.6875 36.53125 
Q 60.6875 51.171875 53.6875 57.984375 
Q 46.6875 64.796875 31.59375 64.796875 
z
M 9.8125 72.90625 
L 30.078125 72.90625 
Q 51.265625 72.90625 61.171875 64.09375 
Q 71.09375 55.28125 71.09375 36.53125 
Q 71.09375 17.671875 61.125 8.828125 
Q 51.171875 0 30.078125 0 
L 9.8125 0 
z
" id="DejaVuSans-68"/>
      <path d="M 9.8125 72.90625 
L 55.90625 72.90625 
L 55.90625 64.59375 
L 19.671875 64.59375 
L 19.671875 43.015625 
L 54.390625 43.015625 
L 54.390625 34.71875 
L 19.671875 34.71875 
L 19.671875 8.296875 
L 56.78125 8.296875 
L 56.78125 0 
L 9.8125 0 
z
" id="DejaVuSans-69"/>
      <path d="M 19.671875 64.796875 
L 19.671875 37.40625 
L 32.078125 37.40625 
Q 38.96875 37.40625 42.71875 40.96875 
Q 46.484375 44.53125 46.484375 51.125 
Q 46.484375 57.671875 42.71875 61.234375 
Q 38.96875 64.796875 32.078125 64.796875 
z
M 9.8125 72.90625 
L 32.078125 72.90625 
Q 44.34375 72.90625 50.609375 67.359375 
Q 56.890625 61.8125 56.890625 51.125 
Q 56.890625 40.328125 50.609375 34.8125 
Q 44.34375 29.296875 32.078125 29.296875 
L 19.671875 29.296875 
L 19.671875 0 
L 9.8125 0 
z
" id="DejaVuSans-80"/>
      <path d="M 53.515625 70.515625 
L 53.515625 60.890625 
Q 47.90625 63.578125 42.921875 64.890625 
Q 37.9375 66.21875 33.296875 66.21875 
Q 25.25 66.21875 20.875 63.09375 
Q 16.5 59.96875 16.5 54.203125 
Q 16.5 49.359375 19.40625 46.890625 
Q 22.3125 44.4375 30.421875 42.921875 
L 36.375 41.703125 
Q 47.40625 39.59375 52.65625 34.296875 
Q 57.90625 29 57.90625 20.125 
Q 57.90625 9.515625 50.796875 4.046875 
Q 43.703125 -1.421875 29.984375 -1.421875 
Q 24.8125 -1.421875 18.96875 -0.25 
Q 13.140625 0.921875 6.890625 3.21875 
L 6.890625 13.375 
Q 12.890625 10.015625 18.65625 8.296875 
Q 24.421875 6.59375 29.984375 6.59375 
Q 38.421875 6.59375 43.015625 9.90625 
Q 47.609375 13.234375 47.609375 19.390625 
Q 47.609375 24.75 44.3125 27.78125 
Q 41.015625 30.8125 33.5 32.328125 
L 27.484375 33.5 
Q 16.453125 35.6875 11.515625 40.375 
Q 6.59375 45.0625 6.59375 53.421875 
Q 6.59375 63.09375 13.40625 68.65625 
Q 20.21875 74.21875 32.171875 74.21875 
Q 37.3125 74.21875 42.625 73.28125 
Q 47.953125 72.359375 53.515625 70.515625 
z
" id="DejaVuSans-83"/>
      <path d="M 39.40625 66.21875 
Q 28.65625 66.21875 22.328125 58.203125 
Q 16.015625 50.203125 16.015625 36.375 
Q 16.015625 22.609375 22.328125 14.59375 
Q 28.65625 6.59375 39.40625 6.59375 
Q 50.140625 6.59375 56.421875 14.59375 
Q 62.703125 22.609375 62.703125 36.375 
Q 62.703125 50.203125 56.421875 58.203125 
Q 50.140625 66.21875 39.40625 66.21875 
z
M 39.40625 74.21875 
Q 54.734375 74.21875 63.90625 63.9375 
Q 73.09375 53.65625 73.09375 36.375 
Q 73.09375 19.140625 63.90625 8.859375 
Q 54.734375 -1.421875 39.40625 -1.421875 
Q 24.03125 -1.421875 14.8125 8.828125 
Q 5.609375 19.09375 5.609375 36.375 
Q 5.609375 53.65625 14.8125 63.9375 
Q 24.03125 74.21875 39.40625 74.21875 
z
" id="DejaVuSans-79"/>
      <path d="M 54.890625 54.6875 
L 35.109375 28.078125 
L 55.90625 0 
L 45.3125 0 
L 29.390625 21.484375 
L 13.484375 0 
L 2.875 0 
L 24.125 28.609375 
L 4.6875 54.6875 
L 15.28125 54.6875 
L 29.78125 35.203125 
L 44.28125 54.6875 
z
" id="DejaVuSans-120"/>
      <path d="M 10.796875 72.90625 
L 49.515625 72.90625 
L 49.515625 64.59375 
L 19.828125 64.59375 
L 19.828125 46.734375 
Q 21.96875 47.46875 24.109375 47.828125 
Q 26.265625 48.1875 28.421875 48.1875 
Q 40.625 48.1875 47.75 41.5 
Q 54.890625 34.8125 54.890625 23.390625 
Q 54.890625 11.625 47.5625 5.09375 
Q 40.234375 -1.421875 26.90625 -1.421875 
Q 22.3125 -1.421875 17.546875 -0.640625 
Q 12.796875 0.140625 7.71875 1.703125 
L 7.71875 11.625 
Q 12.109375 9.234375 16.796875 8.0625 
Q 21.484375 6.890625 26.703125 6.890625 
Q 35.15625 6.890625 40.078125 11.328125 
Q 45.015625 15.765625 45.015625 23.390625 
Q 45.015625 31 40.078125 35.4375 
Q 35.15625 39.890625 26.703125 39.890625 
Q 22.75 39.890625 18.8125 39.015625 
Q 14.890625 38.140625 10.796875 36.28125 
z
" id="DejaVuSans-53"/>
     </defs>
     <use xlink:href="#DejaVuSans-68"/>
     <use x="77.001953" xlink:href="#DejaVuSans-69"/>
     <use x="140.185547" xlink:href="#DejaVuSans-80"/>
     <use x="200.488281" xlink:href="#DejaVuSans-83"/>
     <use x="263.964844" xlink:href="#DejaVuSans-79"/>
     <use x="342.675781" xlink:href="#DejaVuSans-109"/>
     <use x="440.087891" xlink:href="#DejaVuSans-97"/>
     <use x="501.367188" xlink:href="#DejaVuSans-120"/>
     <use x="560.546875" xlink:href="#DejaVuSans-53"/>
    </g>
   </g>
   <g id="text_14">
    <!-- SimpleDEm -->
    <g transform="translate(375.22944 169.329987)scale(0.17 -0.17)">
     <use xlink:href="#DejaVuSans-83"/>
     <use x="63.476562" xlink:href="#DejaVuSans-105"/>
     <use x="91.259766" xlink:href="#DejaVuSans-109"/>
     <use x="188.671875" xlink:href="#DejaVuSans-112"/>
     <use x="252.148438" xlink:href="#DejaVuSans-108"/>
     <use x="279.931641" xlink:href="#DejaVuSans-101"/>
     <use x="341.455078" xlink:href="#DejaVuSans-68"/>
     <use x="418.457031" xlink:href="#DejaVuSans-69"/>
     <use x="481.640625" xlink:href="#DejaVuSans-109"/>
    </g>
   </g>
   <g id="text_15">
    <!-- best 2009 -->
    <g transform="translate(375.22944 40.397235)scale(0.17 -0.17)">
     <defs>
      <path d="M 48.6875 27.296875 
Q 48.6875 37.203125 44.609375 42.84375 
Q 40.53125 48.484375 33.40625 48.484375 
Q 26.265625 48.484375 22.1875 42.84375 
Q 18.109375 37.203125 18.109375 27.296875 
Q 18.109375 17.390625 22.1875 11.75 
Q 26.265625 6.109375 33.40625 6.109375 
Q 40.53125 6.109375 44.609375 11.75 
Q 48.6875 17.390625 48.6875 27.296875 
z
M 18.109375 46.390625 
Q 20.953125 51.265625 25.265625 53.625 
Q 29.59375 56 35.59375 56 
Q 45.5625 56 51.78125 48.09375 
Q 58.015625 40.1875 58.015625 27.296875 
Q 58.015625 14.40625 51.78125 6.484375 
Q 45.5625 -1.421875 35.59375 -1.421875 
Q 29.59375 -1.421875 25.265625 0.953125 
Q 20.953125 3.328125 18.109375 8.203125 
L 18.109375 0 
L 9.078125 0 
L 9.078125 75.984375 
L 18.109375 75.984375 
z
" id="DejaVuSans-98"/>
      <path d="M 10.984375 1.515625 
L 10.984375 10.5 
Q 14.703125 8.734375 18.5 7.8125 
Q 22.3125 6.890625 25.984375 6.890625 
Q 35.75 6.890625 40.890625 13.453125 
Q 46.046875 20.015625 46.78125 33.40625 
Q 43.953125 29.203125 39.59375 26.953125 
Q 35.25 24.703125 29.984375 24.703125 
Q 19.046875 24.703125 12.671875 31.3125 
Q 6.296875 37.9375 6.296875 49.421875 
Q 6.296875 60.640625 12.9375 67.421875 
Q 19.578125 74.21875 30.609375 74.21875 
Q 43.265625 74.21875 49.921875 64.515625 
Q 56.59375 54.828125 56.59375 36.375 
Q 56.59375 19.140625 48.40625 8.859375 
Q 40.234375 -1.421875 26.421875 -1.421875 
Q 22.703125 -1.421875 18.890625 -0.6875 
Q 15.09375 0.046875 10.984375 1.515625 
z
M 30.609375 32.421875 
Q 37.25 32.421875 41.125 36.953125 
Q 45.015625 41.5 45.015625 49.421875 
Q 45.015625 57.28125 41.125 61.84375 
Q 37.25 66.40625 30.609375 66.40625 
Q 23.96875 66.40625 20.09375 61.84375 
Q 16.21875 57.28125 16.21875 49.421875 
Q 16.21875 41.5 20.09375 36.953125 
Q 23.96875 32.421875 30.609375 32.421875 
z
" id="DejaVuSans-57"/>
     </defs>
     <use xlink:href="#DejaVuSans-98"/>
     <use x="63.476562" xlink:href="#DejaVuSans-101"/>
     <use x="125" xlink:href="#DejaVuSans-115"/>
     <use x="177.099609" xlink:href="#DejaVuSans-116"/>
     <use x="216.308594" xlink:href="#DejaVuSans-32"/>
     <use x="248.095703" xlink:href="#DejaVuSans-50"/>
     <use x="311.71875" xlink:href="#DejaVuSans-48"/>
     <use x="375.341797" xlink:href="#DejaVuSans-48"/>
     <use x="438.964844" xlink:href="#DejaVuSans-57"/>
    </g>
   </g>
   <g id="text_16">
    <!-- bbob f22, 5-D -->
    <g transform="translate(60.41088 38.111366)scale(0.102 -0.102)">
     <use xlink:href="#DejaVuSans-98"/>
     <use x="63.476562" xlink:href="#DejaVuSans-98"/>
     <use x="126.953125" xlink:href="#DejaVuSans-111"/>
     <use x="188.134766" xlink:href="#DejaVuSans-98"/>
     <use x="251.611328" xlink:href="#DejaVuSans-32"/>
     <use x="283.398438" xlink:href="#DejaVuSans-102"/>
     <use x="318.603516" xlink:href="#DejaVuSans-50"/>
     <use x="382.226562" xlink:href="#DejaVuSans-50"/>
     <use x="445.849609" xlink:href="#DejaVuSans-44"/>
     <use x="477.636719" xlink:href="#DejaVuSans-32"/>
     <use x="509.423828" xlink:href="#DejaVuSans-53"/>
     <use x="573.046875" xlink:href="#DejaVuSans-45"/>
     <use x="609.130859" xlink:href="#DejaVuSans-68"/>
    </g>
    <!-- 51 targets: 100..1e-08 -->
    <g transform="translate(60.41088 49.533135)scale(0.102 -0.102)">
     <defs>
      <path d="M 11.71875 12.40625 
L 22.015625 12.40625 
L 22.015625 0 
L 11.71875 0 
z
M 11.71875 51.703125 
L 22.015625 51.703125 
L 22.015625 39.3125 
L 11.71875 39.3125 
z
" id="DejaVuSans-58"/>
     </defs>
     <use xlink:href="#DejaVuSans-53"/>
     <use x="63.623047" xlink:href="#DejaVuSans-49"/>
     <use x="127.246094" xlink:href="#DejaVuSans-32"/>
     <use x="159.033203" xlink:href="#DejaVuSans-116"/>
     <use x="198.242188" xlink:href="#DejaVuSans-97"/>
     <use x="259.521484" xlink:href="#DejaVuSans-114"/>
     <use x="298.884766" xlink:href="#DejaVuSans-103"/>
     <use x="362.361328" xlink:href="#DejaVuSans-101"/>
     <use x="423.884766" xlink:href="#DejaVuSans-116"/>
     <use x="463.09375" xlink:href="#DejaVuSans-115"/>
     <use x="515.193359" xlink:href="#DejaVuSans-58"/>
     <use x="548.884766" xlink:href="#DejaVuSans-32"/>
     <use x="580.671875" xlink:href="#DejaVuSans-49"/>
     <use x="644.294922" xlink:href="#DejaVuSans-48"/>
     <use x="707.917969" xlink:href="#DejaVuSans-48"/>
     <use x="771.541016" xlink:href="#DejaVuSans-46"/>
     <use x="803.328125" xlink:href="#DejaVuSans-46"/>
     <use x="835.115234" xlink:href="#DejaVuSans-49"/>
     <use x="898.738281" xlink:href="#DejaVuSans-101"/>
     <use x="960.261719" xlink:href="#DejaVuSans-45"/>
     <use x="996.345703" xlink:href="#DejaVuSans-48"/>
     <use x="1059.96875" xlink:href="#DejaVuSans-56"/>
    </g>
    <!-- 15 instances -->
    <g transform="translate(60.41088 60.954904)scale(0.102 -0.102)">
     <use xlink:href="#DejaVuSans-49"/>
     <use x="63.623047" xlink:href="#DejaVuSans-53"/>
     <use x="127.246094" xlink:href="#DejaVuSans-32"/>
     <use x="159.033203" xlink:href="#DejaVuSans-105"/>
     <use x="186.816406" xlink:href="#DejaVuSans-110"/>
     <use x="250.195312" xlink:href="#DejaVuSans-115"/>
     <use x="302.294922" xlink:href="#DejaVuSans-116"/>
     <use x="341.503906" xlink:href="#DejaVuSans-97"/>
     <use x="402.783203" xlink:href="#DejaVuSans-110"/>
     <use x="466.162109" xlink:href="#DejaVuSans-99"/>
     <use x="521.142578" xlink:href="#DejaVuSans-101"/>
     <use x="582.666016" xlink:href="#DejaVuSans-115"/>
    </g>
   </g>
   <g id="text_17">
    <!-- v2.4 -->
    <g style="fill:#808080;" transform="translate(187.233062 294.151352)scale(0.1 -0.1)">
     <use xlink:href="#DejaVuSans-118"/>
     <use x="59.179688" xlink:href="#DejaVuSans-50"/>
     <use x="122.802734" xlink:href="#DejaVuSans-46"/>
     <use x="154.589844" xlink:href="#DejaVuSans-52"/>
    </g>
   </g>
   <g id="text_18">
    <!-- 22 Gallagher 21 peaks -->
    <g transform="translate(85.019 21.648)scale(0.2 -0.2)">
     <defs>
      <path d="M 59.515625 10.40625 
L 59.515625 29.984375 
L 43.40625 29.984375 
L 43.40625 38.09375 
L 69.28125 38.09375 
L 69.28125 6.78125 
Q 63.578125 2.734375 56.6875 0.65625 
Q 49.8125 -1.421875 42 -1.421875 
Q 24.90625 -1.421875 15.25 8.5625 
Q 5.609375 18.5625 5.609375 36.375 
Q 5.609375 54.25 15.25 64.234375 
Q 24.90625 74.21875 42 74.21875 
Q 49.125 74.21875 55.546875 72.453125 
Q 61.96875 70.703125 67.390625 67.28125 
L 67.390625 56.78125 
Q 61.921875 61.421875 55.765625 63.765625 
Q 49.609375 66.109375 42.828125 66.109375 
Q 29.4375 66.109375 22.71875 58.640625 
Q 16.015625 51.171875 16.015625 36.375 
Q 16.015625 21.625 22.71875 14.15625 
Q 29.4375 6.6875 42.828125 6.6875 
Q 48.046875 6.6875 52.140625 7.59375 
Q 56.25 8.5 59.515625 10.40625 
z
" id="DejaVuSans-71"/>
      <path d="M 54.890625 33.015625 
L 54.890625 0 
L 45.90625 0 
L 45.90625 32.71875 
Q 45.90625 40.484375 42.875 44.328125 
Q 39.84375 48.1875 33.796875 48.1875 
Q 26.515625 48.1875 22.3125 43.546875 
Q 18.109375 38.921875 18.109375 30.90625 
L 18.109375 0 
L 9.078125 0 
L 9.078125 75.984375 
L 18.109375 75.984375 
L 18.109375 46.1875 
Q 21.34375 51.125 25.703125 53.5625 
Q 30.078125 56 35.796875 56 
Q 45.21875 56 50.046875 50.171875 
Q 54.890625 44.34375 54.890625 33.015625 
z
" id="DejaVuSans-104"/>
      <path d="M 9.078125 75.984375 
L 18.109375 75.984375 
L 18.109375 31.109375 
L 44.921875 54.6875 
L 56.390625 54.6875 
L 27.390625 29.109375 
L 57.625 0 
L 45.90625 0 
L 18.109375 26.703125 
L 18.109375 0 
L 9.078125 0 
z
" id="DejaVuSans-107"/>
     </defs>
     <use xlink:href="#DejaVuSans-50"/>
     <use x="63.623047" xlink:href="#DejaVuSans-50"/>
     <use x="127.246094" xlink:href="#DejaVuSans-32"/>
     <use x="159.033203" xlink:href="#DejaVuSans-71"/>
     <use x="236.523438" xlink:href="#DejaVuSans-97"/>
     <use x="297.802734" xlink:href="#DejaVuSans-108"/>
     <use x="325.585938" xlink:href="#DejaVuSans-108"/>
     <use x="353.369141" xlink:href="#DejaVuSans-97"/>
     <use x="414.648438" xlink:href="#DejaVuSans-103"/>
     <use x="478.125" xlink:href="#DejaVuSans-104"/>
     <use x="541.503906" xlink:href="#DejaVuSans-101"/>
     <use x="603.027344" xlink:href="#DejaVuSans-114"/>
     <use x="644.140625" xlink:href="#DejaVuSans-32"/>
     <use x="675.927734" xlink:href="#DejaVuSans-50"/>
     <use x="739.550781" xlink:href="#DejaVuSans-49"/>
     <use x="803.173828" xlink:href="#DejaVuSans-32"/>
     <use x="834.960938" xlink:href="#DejaVuSans-112"/>
     <use x="898.4375" xlink:href="#DejaVuSans-101"/>
     <use x="959.960938" xlink:href="#DejaVuSans-97"/>
     <use x="1021.240234" xlink:href="#DejaVuSans-107"/>
     <use x="1079.150391" xlink:href="#DejaVuSans-115"/>
    </g>
   </g>
  </g>
 </g>
 <defs>
  <clipPath id="p7e2480d15b">
   <rect height="271.296" width="281.088" x="57.6" y="27.648"/>
  </clipPath>
 </defs>
</svg>
