<?xml version="1.0" encoding="utf-8" standalone="no"?>
<!DOCTYPE svg PUBLIC "-//W3C//DTD SVG 1.1//EN"
  "http://www.w3.org/Graphics/SVG/1.1/DTD/svg11.dtd">
<!-- Created with matplotlib (https://matplotlib.org/) -->
<svg height="345.6pt" version="1.1" viewBox="0 0 460.8 345.6" width="460.8pt" xmlns="http://www.w3.org/2000/svg" xmlns:xlink="http://www.w3.org/1999/xlink">
 <defs>
  <style type="text/css">
*{stroke-linecap:butt;stroke-linejoin:round;}
  </style>
 </defs>
 <g id="figure_1">
  <g id="patch_1">
   <path d="M 0 345.6 
L 460.8 345.6 
L 460.8 0 
L 0 0 
z
" style="fill:#ffffff;"/>
  </g>
  <g id="axes_1">
   <g id="patch_2">
    <path d="M 57.6 298.944 
L 338.688 298.944 
L 338.688 3.456 
L 57.6 3.456 
z
" style="fill:#ffffff;"/>
   </g>
   <g id="line2d_1">
    <path d="M 92.969447 298.944 
L 92.969447 297.509871 
L 105.897371 297.509871 
L 105.897371 296.075741 
L 107.860069 296.075741 
L 107.860069 294.641612 
L 108.102622 294.641612 
L 108.102622 293.207483 
L 110.527398 293.207483 
L 110.527398 291.773354 
L 110.652711 291.773354 
L 110.652711 290.339224 
L 114.182507 290.339224 
L 114.182507 288.905095 
L 114.418861 288.905095 
L 114.418861 287.470966 
L 115.711251 287.470966 
L 115.711251 286.036836 
L 116.680349 286.036836 
L 116.680349 284.602707 
L 118.012672 284.602707 
L 118.012672 283.168578 
L 119.199476 283.168578 
L 119.199476 281.734448 
L 119.40226 281.734448 
L 119.40226 280.300319 
L 120.944859 280.300319 
L 120.944859 278.86619 
L 121.623516 278.86619 
L 121.623516 277.432061 
L 124.101333 277.432061 
L 124.101333 275.997931 
L 124.57603 275.997931 
L 124.57603 274.563802 
L 125.074593 274.563802 
L 125.074593 273.129673 
L 127.132689 273.129673 
L 127.132689 271.695543 
L 130.344571 271.695543 
L 130.344571 270.261414 
L 131.06939 270.261414 
L 131.06939 268.827285 
L 132.541568 268.827285 
L 132.636218 265.959026 
L 134.513701 265.959026 
L 134.513701 264.524897 
L 135.240011 264.524897 
L 135.240011 263.090768 
L 136.776048 263.090768 
L 136.776048 261.656638 
L 138.230536 261.656638 
L 138.24765 258.78838 
L 138.358484 258.78838 
L 138.358484 257.35425 
L 140.671233 257.35425 
L 140.708409 254.485992 
L 141.648175 254.485992 
L 141.648175 253.051863 
L 142.586623 253.051863 
L 142.586623 251.617733 
L 143.809805 251.617733 
L 143.809805 250.183604 
L 144.263915 250.183604 
L 144.263915 248.749475 
L 144.859373 248.749475 
L 144.859373 247.315345 
L 145.120836 247.315345 
L 145.120836 245.881216 
L 145.264418 245.881216 
L 145.264418 244.447087 
L 145.378437 244.447087 
L 145.378437 243.012957 
L 145.564956 243.012957 
L 145.564956 241.578828 
L 145.805039 241.578828 
L 145.805039 240.144699 
L 146.052799 240.144699 
L 146.06373 237.27644 
L 146.243097 237.27644 
L 146.243097 235.842311 
L 146.388493 235.842311 
L 146.388493 234.408182 
L 146.522046 234.408182 
L 146.522046 232.974052 
L 146.633446 232.974052 
L 146.733626 230.105794 
L 146.838461 230.105794 
L 146.937474 227.237535 
L 147.056585 227.237535 
L 147.159502 224.369277 
L 147.226074 224.369277 
L 147.292393 220.066889 
L 147.368603 220.066889 
L 147.444481 215.764501 
L 147.515004 215.764501 
L 147.580235 212.896242 
L 147.645223 212.896242 
L 147.724877 210.027984 
L 147.814056 210.027984 
L 147.883103 207.159725 
L 147.951877 207.159725 
L 148.035027 204.291467 
L 148.074019 204.291467 
L 148.132344 201.423208 
L 148.190475 201.423208 
L 148.272497 197.12082 
L 148.306159 197.12082 
L 148.378074 192.818432 
L 148.45922 192.818432 
L 148.52102 189.950174 
L 148.606228 189.950174 
L 148.709809 185.647786 
L 148.76605 185.647786 
L 148.864037 179.911268 
L 148.924421 179.911268 
L 149.030744 175.608881 
L 149.18674 175.608881 
L 149.200437 172.740622 
L 149.42716 172.740622 
L 149.42716 171.306493 
L 149.633173 171.306493 
L 149.708697 167.004105 
L 149.805951 167.004105 
L 149.805951 165.569976 
L 149.950822 165.569976 
L 149.950822 164.135846 
L 150.077146 164.135846 
L 150.172372 161.267588 
L 150.271374 161.267588 
L 150.374084 156.9652 
L 150.467706 156.9652 
L 150.556607 154.096941 
L 150.632448 154.096941 
L 150.691209 151.228683 
L 150.758122 151.228683 
L 150.808139 148.360424 
L 150.874606 148.360424 
L 150.928425 145.492165 
L 150.994436 145.492165 
L 151.088891 139.755648 
L 151.154299 139.755648 
L 151.223527 135.45326 
L 151.296529 135.45326 
L 151.373256 132.585002 
L 151.433593 132.585002 
L 151.497722 129.716743 
L 151.545665 129.716743 
L 151.625279 125.414355 
L 151.684751 125.414355 
L 151.783423 121.111967 
L 151.822737 121.111967 
L 151.908915 116.809579 
L 151.951845 116.809579 
L 152.037389 112.507192 
L 152.076134 112.507192 
L 152.168773 106.770674 
L 152.207228 106.770674 
L 152.207228 105.336545 
L 153.243677 105.336545 
L 153.243677 103.902416 
L 153.711515 103.902416 
L 153.711515 102.468287 
L 154.167129 102.468287 
L 154.167129 101.034157 
L 154.641235 101.034157 
L 154.641235 99.600028 
L 155.04413 99.600028 
L 155.04413 98.165899 
L 155.596784 98.165899 
L 155.596784 96.731769 
L 156.120189 96.731769 
L 156.120189 95.29764 
L 156.397275 95.29764 
L 156.397275 93.863511 
L 156.941506 93.863511 
L 156.941506 92.429381 
L 157.63607 92.429381 
L 157.63607 90.995252 
L 158.086033 90.995252 
L 158.086033 89.561123 
L 158.449648 89.561123 
L 158.449648 88.126994 
L 158.721434 88.126994 
L 158.721434 86.692864 
L 159.066985 86.692864 
L 159.066985 85.258735 
L 159.454056 85.258735 
L 159.454056 83.824606 
L 159.738201 83.824606 
L 159.778062 80.956347 
L 160.186333 80.956347 
L 160.186333 79.522218 
L 160.509069 79.522218 
L 160.509069 78.088089 
L 160.776661 78.088089 
L 160.776661 76.653959 
L 161.233571 76.653959 
L 161.233571 75.21983 
L 161.667653 75.21983 
L 161.667653 73.785701 
L 161.984076 73.785701 
L 161.984076 72.351571 
L 162.243086 72.351571 
L 162.243086 70.917442 
L 162.585379 70.917442 
L 162.585379 69.483313 
L 162.956374 69.483313 
L 162.956374 68.049183 
L 163.115337 68.049183 
L 163.115337 66.615054 
L 163.557683 66.615054 
L 163.557683 65.180925 
L 163.887148 65.180925 
L 163.973442 62.312666 
L 164.471025 62.312666 
L 164.567726 59.444408 
L 164.858371 59.444408 
L 164.858371 58.010278 
L 165.089285 58.010278 
L 165.089285 56.576149 
L 165.876855 56.576149 
L 165.876855 55.14202 
L 166.920273 55.14202 
L 166.920273 53.707891 
L 171.492539 53.707891 
L 171.492539 52.273761 
L 174.483796 52.273761 
L 174.483796 50.839632 
L 174.735751 50.839632 
L 174.806323 17.854658 
L 174.881845 17.854658 
L 174.881845 16.420529 
L 175.025688 16.420529 
L 175.025688 14.9864 
L 175.200242 14.9864 
L 175.255651 12.118141 
L 175.322114 12.118141 
L 175.322114 10.684012 
L 175.524031 10.684012 
L 175.524031 9.249882 
L 175.816143 9.249882 
L 175.816143 7.815753 
L 176.056539 7.815753 
L 176.056539 6.381624 
L 338.688 6.381624 
L 338.688 6.381624 
" style="fill:none;stroke:#f5deb3;stroke-linecap:square;stroke-width:4;"/>
   </g>
   <g id="line2d_2">
    <defs>
     <path d="M -0 7.778175 
L 7.778175 0 
L 0 -7.778175 
L -7.778175 -0 
z
" id="m74c97536a9" style="stroke:#f5deb3;stroke-linejoin:miter;stroke-width:1.5;"/>
    </defs>
    <g>
     <use style="fill:#f5deb3;stroke:#f5deb3;stroke-linejoin:miter;stroke-width:1.5;" x="148.709809" xlink:href="#m74c97536a9" y="187.081915"/>
     <use style="fill:#f5deb3;stroke:#f5deb3;stroke-linejoin:miter;stroke-width:1.5;" x="163.973442" xlink:href="#m74c97536a9" y="63.746796"/>
     <use style="fill:#f5deb3;stroke:#f5deb3;stroke-linejoin:miter;stroke-width:1.5;" x="176.056539" xlink:href="#m74c97536a9" y="6.381624"/>
     <use style="fill:#f5deb3;stroke:#f5deb3;stroke-linejoin:miter;stroke-width:1.5;" x="176.056539" xlink:href="#m74c97536a9" y="6.381624"/>
     <use style="fill:#f5deb3;stroke:#f5deb3;stroke-linejoin:miter;stroke-width:1.5;" x="338.688" xlink:href="#m74c97536a9" y="6.381624"/>
    </g>
   </g>
   <g id="line2d_3">
    <path style="fill:none;stroke:#f5deb3;stroke-linecap:square;stroke-width:4;"/>
    <g/>
   </g>
   <g id="line2d_4">
    <path d="M 338.688 6.381624 
L 369.60768 12.232871 
" style="fill:none;stroke:#f5deb3;stroke-linecap:square;stroke-width:4;"/>
    <g>
     <use style="fill:#f5deb3;stroke:#f5deb3;stroke-linejoin:miter;stroke-width:1.5;" x="338.688" xlink:href="#m74c97536a9" y="6.381624"/>
     <use style="fill:#f5deb3;stroke:#f5deb3;stroke-linejoin:miter;stroke-width:1.5;" x="369.60768" xlink:href="#m74c97536a9" y="12.232871"/>
    </g>
   </g>
   <g id="matplotlib.axis_1">
    <g id="xtick_1">
     <g id="line2d_5">
      <path clip-path="url(#pd5c11b564f)" d="M 57.6 298.944 
L 57.6 3.456 
" style="fill:none;stroke:#b0b0b0;stroke-linecap:square;stroke-width:0.8;"/>
     </g>
     <g id="line2d_6">
      <defs>
       <path d="M 0 0 
L 0 3.5 
" id="m076c7b9bbc" style="stroke:#000000;stroke-width:0.8;"/>
      </defs>
      <g>
       <use style="stroke:#000000;stroke-width:0.8;" x="57.6" xlink:href="#m076c7b9bbc" y="298.944"/>
      </g>
     </g>
     <g id="text_1">
      <!-- 0 -->
      <defs>
       <path d="M 31.78125 66.40625 
Q 24.171875 66.40625 20.328125 58.90625 
Q 16.5 51.421875 16.5 36.375 
Q 16.5 21.390625 20.328125 13.890625 
Q 24.171875 6.390625 31.78125 6.390625 
Q 39.453125 6.390625 43.28125 13.890625 
Q 47.125 21.390625 47.125 36.375 
Q 47.125 51.421875 43.28125 58.90625 
Q 39.453125 66.40625 31.78125 66.40625 
z
M 31.78125 74.21875 
Q 44.046875 74.21875 50.515625 64.515625 
Q 56.984375 54.828125 56.984375 36.375 
Q 56.984375 17.96875 50.515625 8.265625 
Q 44.046875 -1.421875 31.78125 -1.421875 
Q 19.53125 -1.421875 13.0625 8.265625 
Q 6.59375 17.96875 6.59375 36.375 
Q 6.59375 54.828125 13.0625 64.515625 
Q 19.53125 74.21875 31.78125 74.21875 
z
" id="DejaVuSans-48"/>
      </defs>
      <g transform="translate(51.2375 321.140875)scale(0.2 -0.2)">
       <use xlink:href="#DejaVuSans-48"/>
      </g>
     </g>
    </g>
    <g id="xtick_2">
     <g id="line2d_7">
      <path clip-path="url(#pd5c11b564f)" d="M 137.910857 298.944 
L 137.910857 3.456 
" style="fill:none;stroke:#b0b0b0;stroke-linecap:square;stroke-width:0.8;"/>
     </g>
     <g id="line2d_8">
      <g>
       <use style="stroke:#000000;stroke-width:0.8;" x="137.910857" xlink:href="#m076c7b9bbc" y="298.944"/>
      </g>
     </g>
     <g id="text_2">
      <!-- 2 -->
      <defs>
       <path d="M 19.1875 8.296875 
L 53.609375 8.296875 
L 53.609375 0 
L 7.328125 0 
L 7.328125 8.296875 
Q 12.9375 14.109375 22.625 23.890625 
Q 32.328125 33.6875 34.8125 36.53125 
Q 39.546875 41.84375 41.421875 45.53125 
Q 43.3125 49.21875 43.3125 52.78125 
Q 43.3125 58.59375 39.234375 62.25 
Q 35.15625 65.921875 28.609375 65.921875 
Q 23.96875 65.921875 18.8125 64.3125 
Q 13.671875 62.703125 7.8125 59.421875 
L 7.8125 69.390625 
Q 13.765625 71.78125 18.9375 73 
Q 24.125 74.21875 28.421875 74.21875 
Q 39.75 74.21875 46.484375 68.546875 
Q 53.21875 62.890625 53.21875 53.421875 
Q 53.21875 48.921875 51.53125 44.890625 
Q 49.859375 40.875 45.40625 35.40625 
Q 44.1875 33.984375 37.640625 27.21875 
Q 31.109375 20.453125 19.1875 8.296875 
z
" id="DejaVuSans-50"/>
      </defs>
      <g transform="translate(131.548357 321.140875)scale(0.2 -0.2)">
       <use xlink:href="#DejaVuSans-50"/>
      </g>
     </g>
    </g>
    <g id="xtick_3">
     <g id="line2d_9">
      <path clip-path="url(#pd5c11b564f)" d="M 218.221714 298.944 
L 218.221714 3.456 
" style="fill:none;stroke:#b0b0b0;stroke-linecap:square;stroke-width:0.8;"/>
     </g>
     <g id="line2d_10">
      <g>
       <use style="stroke:#000000;stroke-width:0.8;" x="218.221714" xlink:href="#m076c7b9bbc" y="298.944"/>
      </g>
     </g>
     <g id="text_3">
      <!-- 4 -->
      <defs>
       <path d="M 37.796875 64.3125 
L 12.890625 25.390625 
L 37.796875 25.390625 
z
M 35.203125 72.90625 
L 47.609375 72.90625 
L 47.609375 25.390625 
L 58.015625 25.390625 
L 58.015625 17.1875 
L 47.609375 17.1875 
L 47.609375 0 
L 37.796875 0 
L 37.796875 17.1875 
L 4.890625 17.1875 
L 4.890625 26.703125 
z
" id="DejaVuSans-52"/>
      </defs>
      <g transform="translate(211.859214 321.140875)scale(0.2 -0.2)">
       <use xlink:href="#DejaVuSans-52"/>
      </g>
     </g>
    </g>
    <g id="xtick_4">
     <g id="line2d_11">
      <path clip-path="url(#pd5c11b564f)" d="M 298.532571 298.944 
L 298.532571 3.456 
" style="fill:none;stroke:#b0b0b0;stroke-linecap:square;stroke-width:0.8;"/>
     </g>
     <g id="line2d_12">
      <g>
       <use style="stroke:#000000;stroke-width:0.8;" x="298.532571" xlink:href="#m076c7b9bbc" y="298.944"/>
      </g>
     </g>
     <g id="text_4">
      <!-- 6 -->
      <defs>
       <path d="M 33.015625 40.375 
Q 26.375 40.375 22.484375 35.828125 
Q 18.609375 31.296875 18.609375 23.390625 
Q 18.609375 15.53125 22.484375 10.953125 
Q 26.375 6.390625 33.015625 6.390625 
Q 39.65625 6.390625 43.53125 10.953125 
Q 47.40625 15.53125 47.40625 23.390625 
Q 47.40625 31.296875 43.53125 35.828125 
Q 39.65625 40.375 33.015625 40.375 
z
M 52.59375 71.296875 
L 52.59375 62.3125 
Q 48.875 64.0625 45.09375 64.984375 
Q 41.3125 65.921875 37.59375 65.921875 
Q 27.828125 65.921875 22.671875 59.328125 
Q 17.53125 52.734375 16.796875 39.40625 
Q 19.671875 43.65625 24.015625 45.921875 
Q 28.375 48.1875 33.59375 48.1875 
Q 44.578125 48.1875 50.953125 41.515625 
Q 57.328125 34.859375 57.328125 23.390625 
Q 57.328125 12.15625 50.6875 5.359375 
Q 44.046875 -1.421875 33.015625 -1.421875 
Q 20.359375 -1.421875 13.671875 8.265625 
Q 6.984375 17.96875 6.984375 36.375 
Q 6.984375 53.65625 15.1875 63.9375 
Q 23.390625 74.21875 37.203125 74.21875 
Q 40.921875 74.21875 44.703125 73.484375 
Q 48.484375 72.75 52.59375 71.296875 
z
" id="DejaVuSans-54"/>
      </defs>
      <g transform="translate(292.170071 321.140875)scale(0.2 -0.2)">
       <use xlink:href="#DejaVuSans-54"/>
      </g>
     </g>
    </g>
    <g id="xtick_5">
     <g id="line2d_13">
      <path clip-path="url(#pd5c11b564f)" d="M 97.755429 298.944 
L 97.755429 3.456 
" style="fill:none;stroke:#b0b0b0;stroke-linecap:square;stroke-width:0.8;"/>
     </g>
     <g id="line2d_14">
      <defs>
       <path d="M 0 0 
L 0 2 
" id="md750a5c5bd" style="stroke:#000000;stroke-width:0.6;"/>
      </defs>
      <g>
       <use style="stroke:#000000;stroke-width:0.6;" x="97.755429" xlink:href="#md750a5c5bd" y="298.944"/>
      </g>
     </g>
    </g>
    <g id="xtick_6">
     <g id="line2d_15">
      <path clip-path="url(#pd5c11b564f)" d="M 178.066286 298.944 
L 178.066286 3.456 
" style="fill:none;stroke:#b0b0b0;stroke-linecap:square;stroke-width:0.8;"/>
     </g>
     <g id="line2d_16">
      <g>
       <use style="stroke:#000000;stroke-width:0.6;" x="178.066286" xlink:href="#md750a5c5bd" y="298.944"/>
      </g>
     </g>
    </g>
    <g id="xtick_7">
     <g id="line2d_17">
      <path clip-path="url(#pd5c11b564f)" d="M 258.377143 298.944 
L 258.377143 3.456 
" style="fill:none;stroke:#b0b0b0;stroke-linecap:square;stroke-width:0.8;"/>
     </g>
     <g id="line2d_18">
      <g>
       <use style="stroke:#000000;stroke-width:0.6;" x="258.377143" xlink:href="#md750a5c5bd" y="298.944"/>
      </g>
     </g>
    </g>
    <g id="xtick_8">
     <g id="line2d_19">
      <path clip-path="url(#pd5c11b564f)" d="M 338.688 298.944 
L 338.688 3.456 
" style="fill:none;stroke:#b0b0b0;stroke-linecap:square;stroke-width:0.8;"/>
     </g>
     <g id="line2d_20">
      <g>
       <use style="stroke:#000000;stroke-width:0.6;" x="338.688" xlink:href="#md750a5c5bd" y="298.944"/>
      </g>
     </g>
    </g>
    <g id="text_5">
     <!-- log10(# f-evals / dimension) -->
     <defs>
      <path d="M 9.421875 75.984375 
L 18.40625 75.984375 
L 18.40625 0 
L 9.421875 0 
z
" id="DejaVuSans-108"/>
      <path d="M 30.609375 48.390625 
Q 23.390625 48.390625 19.1875 42.75 
Q 14.984375 37.109375 14.984375 27.296875 
Q 14.984375 17.484375 19.15625 11.84375 
Q 23.34375 6.203125 30.609375 6.203125 
Q 37.796875 6.203125 41.984375 11.859375 
Q 46.1875 17.53125 46.1875 27.296875 
Q 46.1875 37.015625 41.984375 42.703125 
Q 37.796875 48.390625 30.609375 48.390625 
z
M 30.609375 56 
Q 42.328125 56 49.015625 48.375 
Q 55.71875 40.765625 55.71875 27.296875 
Q 55.71875 13.875 49.015625 6.21875 
Q 42.328125 -1.421875 30.609375 -1.421875 
Q 18.84375 -1.421875 12.171875 6.21875 
Q 5.515625 13.875 5.515625 27.296875 
Q 5.515625 40.765625 12.171875 48.375 
Q 18.84375 56 30.609375 56 
z
" id="DejaVuSans-111"/>
      <path d="M 45.40625 27.984375 
Q 45.40625 37.75 41.375 43.109375 
Q 37.359375 48.484375 30.078125 48.484375 
Q 22.859375 48.484375 18.828125 43.109375 
Q 14.796875 37.75 14.796875 27.984375 
Q 14.796875 18.265625 18.828125 12.890625 
Q 22.859375 7.515625 30.078125 7.515625 
Q 37.359375 7.515625 41.375 12.890625 
Q 45.40625 18.265625 45.40625 27.984375 
z
M 54.390625 6.78125 
Q 54.390625 -7.171875 48.1875 -13.984375 
Q 42 -20.796875 29.203125 -20.796875 
Q 24.46875 -20.796875 20.265625 -20.09375 
Q 16.0625 -19.390625 12.109375 -17.921875 
L 12.109375 -9.1875 
Q 16.0625 -11.328125 19.921875 -12.34375 
Q 23.78125 -13.375 27.78125 -13.375 
Q 36.625 -13.375 41.015625 -8.765625 
Q 45.40625 -4.15625 45.40625 5.171875 
L 45.40625 9.625 
Q 42.625 4.78125 38.28125 2.390625 
Q 33.9375 0 27.875 0 
Q 17.828125 0 11.671875 7.65625 
Q 5.515625 15.328125 5.515625 27.984375 
Q 5.515625 40.671875 11.671875 48.328125 
Q 17.828125 56 27.875 56 
Q 33.9375 56 38.28125 53.609375 
Q 42.625 51.21875 45.40625 46.390625 
L 45.40625 54.6875 
L 54.390625 54.6875 
z
" id="DejaVuSans-103"/>
      <path d="M 12.40625 8.296875 
L 28.515625 8.296875 
L 28.515625 63.921875 
L 10.984375 60.40625 
L 10.984375 69.390625 
L 28.421875 72.90625 
L 38.28125 72.90625 
L 38.28125 8.296875 
L 54.390625 8.296875 
L 54.390625 0 
L 12.40625 0 
z
" id="DejaVuSans-49"/>
      <path d="M 31 75.875 
Q 24.46875 64.65625 21.28125 53.65625 
Q 18.109375 42.671875 18.109375 31.390625 
Q 18.109375 20.125 21.3125 9.0625 
Q 24.515625 -2 31 -13.1875 
L 23.1875 -13.1875 
Q 15.875 -1.703125 12.234375 9.375 
Q 8.59375 20.453125 8.59375 31.390625 
Q 8.59375 42.28125 12.203125 53.3125 
Q 15.828125 64.359375 23.1875 75.875 
z
" id="DejaVuSans-40"/>
      <path d="M 51.125 44 
L 36.921875 44 
L 32.8125 27.6875 
L 47.125 27.6875 
z
M 43.796875 71.78125 
L 38.71875 51.515625 
L 52.984375 51.515625 
L 58.109375 71.78125 
L 65.921875 71.78125 
L 60.890625 51.515625 
L 76.125 51.515625 
L 76.125 44 
L 58.984375 44 
L 54.984375 27.6875 
L 70.515625 27.6875 
L 70.515625 20.21875 
L 53.078125 20.21875 
L 48 0 
L 40.1875 0 
L 45.21875 20.21875 
L 30.90625 20.21875 
L 25.875 0 
L 18.015625 0 
L 23.09375 20.21875 
L 7.71875 20.21875 
L 7.71875 27.6875 
L 24.90625 27.6875 
L 29 44 
L 13.28125 44 
L 13.28125 51.515625 
L 30.90625 51.515625 
L 35.890625 71.78125 
z
" id="DejaVuSans-35"/>
      <path id="DejaVuSans-32"/>
      <path d="M 37.109375 75.984375 
L 37.109375 68.5 
L 28.515625 68.5 
Q 23.6875 68.5 21.796875 66.546875 
Q 19.921875 64.59375 19.921875 59.515625 
L 19.921875 54.6875 
L 34.71875 54.6875 
L 34.71875 47.703125 
L 19.921875 47.703125 
L 19.921875 0 
L 10.890625 0 
L 10.890625 47.703125 
L 2.296875 47.703125 
L 2.296875 54.6875 
L 10.890625 54.6875 
L 10.890625 58.5 
Q 10.890625 67.625 15.140625 71.796875 
Q 19.390625 75.984375 28.609375 75.984375 
z
" id="DejaVuSans-102"/>
      <path d="M 4.890625 31.390625 
L 31.203125 31.390625 
L 31.203125 23.390625 
L 4.890625 23.390625 
z
" id="DejaVuSans-45"/>
      <path d="M 56.203125 29.59375 
L 56.203125 25.203125 
L 14.890625 25.203125 
Q 15.484375 15.921875 20.484375 11.0625 
Q 25.484375 6.203125 34.421875 6.203125 
Q 39.59375 6.203125 44.453125 7.46875 
Q 49.3125 8.734375 54.109375 11.28125 
L 54.109375 2.78125 
Q 49.265625 0.734375 44.1875 -0.34375 
Q 39.109375 -1.421875 33.890625 -1.421875 
Q 20.796875 -1.421875 13.15625 6.1875 
Q 5.515625 13.8125 5.515625 26.8125 
Q 5.515625 40.234375 12.765625 48.109375 
Q 20.015625 56 32.328125 56 
Q 43.359375 56 49.78125 48.890625 
Q 56.203125 41.796875 56.203125 29.59375 
z
M 47.21875 32.234375 
Q 47.125 39.59375 43.09375 43.984375 
Q 39.0625 48.390625 32.421875 48.390625 
Q 24.90625 48.390625 20.390625 44.140625 
Q 15.875 39.890625 15.1875 32.171875 
z
" id="DejaVuSans-101"/>
      <path d="M 2.984375 54.6875 
L 12.5 54.6875 
L 29.59375 8.796875 
L 46.6875 54.6875 
L 56.203125 54.6875 
L 35.6875 0 
L 23.484375 0 
z
" id="DejaVuSans-118"/>
      <path d="M 34.28125 27.484375 
Q 23.390625 27.484375 19.1875 25 
Q 14.984375 22.515625 14.984375 16.5 
Q 14.984375 11.71875 18.140625 8.90625 
Q 21.296875 6.109375 26.703125 6.109375 
Q 34.1875 6.109375 38.703125 11.40625 
Q 43.21875 16.703125 43.21875 25.484375 
L 43.21875 27.484375 
z
M 52.203125 31.203125 
L 52.203125 0 
L 43.21875 0 
L 43.21875 8.296875 
Q 40.140625 3.328125 35.546875 0.953125 
Q 30.953125 -1.421875 24.3125 -1.421875 
Q 15.921875 -1.421875 10.953125 3.296875 
Q 6 8.015625 6 15.921875 
Q 6 25.140625 12.171875 29.828125 
Q 18.359375 34.515625 30.609375 34.515625 
L 43.21875 34.515625 
L 43.21875 35.40625 
Q 43.21875 41.609375 39.140625 45 
Q 35.0625 48.390625 27.6875 48.390625 
Q 23 48.390625 18.546875 47.265625 
Q 14.109375 46.140625 10.015625 43.890625 
L 10.015625 52.203125 
Q 14.9375 54.109375 19.578125 55.046875 
Q 24.21875 56 28.609375 56 
Q 40.484375 56 46.34375 49.84375 
Q 52.203125 43.703125 52.203125 31.203125 
z
" id="DejaVuSans-97"/>
      <path d="M 44.28125 53.078125 
L 44.28125 44.578125 
Q 40.484375 46.53125 36.375 47.5 
Q 32.28125 48.484375 27.875 48.484375 
Q 21.1875 48.484375 17.84375 46.4375 
Q 14.5 44.390625 14.5 40.28125 
Q 14.5 37.15625 16.890625 35.375 
Q 19.28125 33.59375 26.515625 31.984375 
L 29.59375 31.296875 
Q 39.15625 29.25 43.1875 25.515625 
Q 47.21875 21.78125 47.21875 15.09375 
Q 47.21875 7.46875 41.1875 3.015625 
Q 35.15625 -1.421875 24.609375 -1.421875 
Q 20.21875 -1.421875 15.453125 -0.5625 
Q 10.6875 0.296875 5.421875 2 
L 5.421875 11.28125 
Q 10.40625 8.6875 15.234375 7.390625 
Q 20.0625 6.109375 24.8125 6.109375 
Q 31.15625 6.109375 34.5625 8.28125 
Q 37.984375 10.453125 37.984375 14.40625 
Q 37.984375 18.0625 35.515625 20.015625 
Q 33.0625 21.96875 24.703125 23.78125 
L 21.578125 24.515625 
Q 13.234375 26.265625 9.515625 29.90625 
Q 5.8125 33.546875 5.8125 39.890625 
Q 5.8125 47.609375 11.28125 51.796875 
Q 16.75 56 26.8125 56 
Q 31.78125 56 36.171875 55.265625 
Q 40.578125 54.546875 44.28125 53.078125 
z
" id="DejaVuSans-115"/>
      <path d="M 25.390625 72.90625 
L 33.6875 72.90625 
L 8.296875 -9.28125 
L 0 -9.28125 
z
" id="DejaVuSans-47"/>
      <path d="M 45.40625 46.390625 
L 45.40625 75.984375 
L 54.390625 75.984375 
L 54.390625 0 
L 45.40625 0 
L 45.40625 8.203125 
Q 42.578125 3.328125 38.25 0.953125 
Q 33.9375 -1.421875 27.875 -1.421875 
Q 17.96875 -1.421875 11.734375 6.484375 
Q 5.515625 14.40625 5.515625 27.296875 
Q 5.515625 40.1875 11.734375 48.09375 
Q 17.96875 56 27.875 56 
Q 33.9375 56 38.25 53.625 
Q 42.578125 51.265625 45.40625 46.390625 
z
M 14.796875 27.296875 
Q 14.796875 17.390625 18.875 11.75 
Q 22.953125 6.109375 30.078125 6.109375 
Q 37.203125 6.109375 41.296875 11.75 
Q 45.40625 17.390625 45.40625 27.296875 
Q 45.40625 37.203125 41.296875 42.84375 
Q 37.203125 48.484375 30.078125 48.484375 
Q 22.953125 48.484375 18.875 42.84375 
Q 14.796875 37.203125 14.796875 27.296875 
z
" id="DejaVuSans-100"/>
      <path d="M 9.421875 54.6875 
L 18.40625 54.6875 
L 18.40625 0 
L 9.421875 0 
z
M 9.421875 75.984375 
L 18.40625 75.984375 
L 18.40625 64.59375 
L 9.421875 64.59375 
z
" id="DejaVuSans-105"/>
      <path d="M 52 44.1875 
Q 55.375 50.25 60.0625 53.125 
Q 64.75 56 71.09375 56 
Q 79.640625 56 84.28125 50.015625 
Q 88.921875 44.046875 88.921875 33.015625 
L 88.921875 0 
L 79.890625 0 
L 79.890625 32.71875 
Q 79.890625 40.578125 77.09375 44.375 
Q 74.3125 48.1875 68.609375 48.1875 
Q 61.625 48.1875 57.5625 43.546875 
Q 53.515625 38.921875 53.515625 30.90625 
L 53.515625 0 
L 44.484375 0 
L 44.484375 32.71875 
Q 44.484375 40.625 41.703125 44.40625 
Q 38.921875 48.1875 33.109375 48.1875 
Q 26.21875 48.1875 22.15625 43.53125 
Q 18.109375 38.875 18.109375 30.90625 
L 18.109375 0 
L 9.078125 0 
L 9.078125 54.6875 
L 18.109375 54.6875 
L 18.109375 46.1875 
Q 21.1875 51.21875 25.484375 53.609375 
Q 29.78125 56 35.6875 56 
Q 41.65625 56 45.828125 52.96875 
Q 50 49.953125 52 44.1875 
z
" id="DejaVuSans-109"/>
      <path d="M 54.890625 33.015625 
L 54.890625 0 
L 45.90625 0 
L 45.90625 32.71875 
Q 45.90625 40.484375 42.875 44.328125 
Q 39.84375 48.1875 33.796875 48.1875 
Q 26.515625 48.1875 22.3125 43.546875 
Q 18.109375 38.921875 18.109375 30.90625 
L 18.109375 0 
L 9.078125 0 
L 9.078125 54.6875 
L 18.109375 54.6875 
L 18.109375 46.1875 
Q 21.34375 51.125 25.703125 53.5625 
Q 30.078125 56 35.796875 56 
Q 45.21875 56 50.046875 50.171875 
Q 54.890625 44.34375 54.890625 33.015625 
z
" id="DejaVuSans-110"/>
      <path d="M 8.015625 75.875 
L 15.828125 75.875 
Q 23.140625 64.359375 26.78125 53.3125 
Q 30.421875 42.28125 30.421875 31.390625 
Q 30.421875 20.453125 26.78125 9.375 
Q 23.140625 -1.703125 15.828125 -13.1875 
L 8.015625 -13.1875 
Q 14.5 -2 17.703125 9.0625 
Q 20.90625 20.125 20.90625 31.390625 
Q 20.90625 42.671875 17.703125 53.65625 
Q 14.5 64.65625 8.015625 75.875 
z
" id="DejaVuSans-41"/>
     </defs>
     <g transform="translate(77.764078 342.217594)scale(0.17 -0.17)">
      <use xlink:href="#DejaVuSans-108"/>
      <use x="27.783203" xlink:href="#DejaVuSans-111"/>
      <use x="88.964844" xlink:href="#DejaVuSans-103"/>
      <use x="152.441406" xlink:href="#DejaVuSans-49"/>
      <use x="216.064453" xlink:href="#DejaVuSans-48"/>
      <use x="279.6875" xlink:href="#DejaVuSans-40"/>
      <use x="318.701172" xlink:href="#DejaVuSans-35"/>
      <use x="402.490234" xlink:href="#DejaVuSans-32"/>
      <use x="434.277344" xlink:href="#DejaVuSans-102"/>
      <use x="463.982422" xlink:href="#DejaVuSans-45"/>
      <use x="500.066406" xlink:href="#DejaVuSans-101"/>
      <use x="561.589844" xlink:href="#DejaVuSans-118"/>
      <use x="620.769531" xlink:href="#DejaVuSans-97"/>
      <use x="682.048828" xlink:href="#DejaVuSans-108"/>
      <use x="709.832031" xlink:href="#DejaVuSans-115"/>
      <use x="761.931641" xlink:href="#DejaVuSans-32"/>
      <use x="793.71875" xlink:href="#DejaVuSans-47"/>
      <use x="827.410156" xlink:href="#DejaVuSans-32"/>
      <use x="859.197266" xlink:href="#DejaVuSans-100"/>
      <use x="922.673828" xlink:href="#DejaVuSans-105"/>
      <use x="950.457031" xlink:href="#DejaVuSans-109"/>
      <use x="1047.869141" xlink:href="#DejaVuSans-101"/>
      <use x="1109.392578" xlink:href="#DejaVuSans-110"/>
      <use x="1172.771484" xlink:href="#DejaVuSans-115"/>
      <use x="1224.871094" xlink:href="#DejaVuSans-105"/>
      <use x="1252.654297" xlink:href="#DejaVuSans-111"/>
      <use x="1313.835938" xlink:href="#DejaVuSans-110"/>
      <use x="1377.214844" xlink:href="#DejaVuSans-41"/>
     </g>
    </g>
   </g>
   <g id="matplotlib.axis_2">
    <g id="ytick_1">
     <g id="line2d_21">
      <path clip-path="url(#pd5c11b564f)" d="M 57.6 298.944 
L 338.688 298.944 
" style="fill:none;stroke:#b0b0b0;stroke-linecap:square;stroke-width:0.8;"/>
     </g>
     <g id="line2d_22">
      <defs>
       <path d="M 0 0 
L -3.5 0 
" id="m722d414366" style="stroke:#000000;stroke-width:0.8;"/>
      </defs>
      <g>
       <use style="stroke:#000000;stroke-width:0.8;" x="57.6" xlink:href="#m722d414366" y="298.944"/>
      </g>
     </g>
     <g id="text_6">
      <!-- 0.0 -->
      <defs>
       <path d="M 10.6875 12.40625 
L 21 12.40625 
L 21 0 
L 10.6875 0 
z
" id="DejaVuSans-46"/>
      </defs>
      <g transform="translate(25.155 305.02275)scale(0.16 -0.16)">
       <use xlink:href="#DejaVuSans-48"/>
       <use x="63.623047" xlink:href="#DejaVuSans-46"/>
       <use x="95.410156" xlink:href="#DejaVuSans-48"/>
      </g>
     </g>
    </g>
    <g id="ytick_2">
     <g id="line2d_23">
      <path clip-path="url(#pd5c11b564f)" d="M 57.6 240.431525 
L 338.688 240.431525 
" style="fill:none;stroke:#b0b0b0;stroke-linecap:square;stroke-width:0.8;"/>
     </g>
     <g id="line2d_24">
      <g>
       <use style="stroke:#000000;stroke-width:0.8;" x="57.6" xlink:href="#m722d414366" y="240.431525"/>
      </g>
     </g>
     <g id="text_7">
      <!-- 0.2 -->
      <g transform="translate(25.155 246.510275)scale(0.16 -0.16)">
       <use xlink:href="#DejaVuSans-48"/>
       <use x="63.623047" xlink:href="#DejaVuSans-46"/>
       <use x="95.410156" xlink:href="#DejaVuSans-50"/>
      </g>
     </g>
    </g>
    <g id="ytick_3">
     <g id="line2d_25">
      <path clip-path="url(#pd5c11b564f)" d="M 57.6 181.91905 
L 338.688 181.91905 
" style="fill:none;stroke:#b0b0b0;stroke-linecap:square;stroke-width:0.8;"/>
     </g>
     <g id="line2d_26">
      <g>
       <use style="stroke:#000000;stroke-width:0.8;" x="57.6" xlink:href="#m722d414366" y="181.91905"/>
      </g>
     </g>
     <g id="text_8">
      <!-- 0.4 -->
      <g transform="translate(25.155 187.9978)scale(0.16 -0.16)">
       <use xlink:href="#DejaVuSans-48"/>
       <use x="63.623047" xlink:href="#DejaVuSans-46"/>
       <use x="95.410156" xlink:href="#DejaVuSans-52"/>
      </g>
     </g>
    </g>
    <g id="ytick_4">
     <g id="line2d_27">
      <path clip-path="url(#pd5c11b564f)" d="M 57.6 123.406574 
L 338.688 123.406574 
" style="fill:none;stroke:#b0b0b0;stroke-linecap:square;stroke-width:0.8;"/>
     </g>
     <g id="line2d_28">
      <g>
       <use style="stroke:#000000;stroke-width:0.8;" x="57.6" xlink:href="#m722d414366" y="123.406574"/>
      </g>
     </g>
     <g id="text_9">
      <!-- 0.6 -->
      <g transform="translate(25.155 129.485324)scale(0.16 -0.16)">
       <use xlink:href="#DejaVuSans-48"/>
       <use x="63.623047" xlink:href="#DejaVuSans-46"/>
       <use x="95.410156" xlink:href="#DejaVuSans-54"/>
      </g>
     </g>
    </g>
    <g id="ytick_5">
     <g id="line2d_29">
      <path clip-path="url(#pd5c11b564f)" d="M 57.6 64.894099 
L 338.688 64.894099 
" style="fill:none;stroke:#b0b0b0;stroke-linecap:square;stroke-width:0.8;"/>
     </g>
     <g id="line2d_30">
      <g>
       <use style="stroke:#000000;stroke-width:0.8;" x="57.6" xlink:href="#m722d414366" y="64.894099"/>
      </g>
     </g>
     <g id="text_10">
      <!-- 0.8 -->
      <defs>
       <path d="M 31.78125 34.625 
Q 24.75 34.625 20.71875 30.859375 
Q 16.703125 27.09375 16.703125 20.515625 
Q 16.703125 13.921875 20.71875 10.15625 
Q 24.75 6.390625 31.78125 6.390625 
Q 38.8125 6.390625 42.859375 10.171875 
Q 46.921875 13.96875 46.921875 20.515625 
Q 46.921875 27.09375 42.890625 30.859375 
Q 38.875 34.625 31.78125 34.625 
z
M 21.921875 38.8125 
Q 15.578125 40.375 12.03125 44.71875 
Q 8.5 49.078125 8.5 55.328125 
Q 8.5 64.0625 14.71875 69.140625 
Q 20.953125 74.21875 31.78125 74.21875 
Q 42.671875 74.21875 48.875 69.140625 
Q 55.078125 64.0625 55.078125 55.328125 
Q 55.078125 49.078125 51.53125 44.71875 
Q 48 40.375 41.703125 38.8125 
Q 48.828125 37.15625 52.796875 32.3125 
Q 56.78125 27.484375 56.78125 20.515625 
Q 56.78125 9.90625 50.3125 4.234375 
Q 43.84375 -1.421875 31.78125 -1.421875 
Q 19.734375 -1.421875 13.25 4.234375 
Q 6.78125 9.90625 6.78125 20.515625 
Q 6.78125 27.484375 10.78125 32.3125 
Q 14.796875 37.15625 21.921875 38.8125 
z
M 18.3125 54.390625 
Q 18.3125 48.734375 21.84375 45.5625 
Q 25.390625 42.390625 31.78125 42.390625 
Q 38.140625 42.390625 41.71875 45.5625 
Q 45.3125 48.734375 45.3125 54.390625 
Q 45.3125 60.0625 41.71875 63.234375 
Q 38.140625 66.40625 31.78125 66.40625 
Q 25.390625 66.40625 21.84375 63.234375 
Q 18.3125 60.0625 18.3125 54.390625 
z
" id="DejaVuSans-56"/>
      </defs>
      <g transform="translate(25.155 70.972849)scale(0.16 -0.16)">
       <use xlink:href="#DejaVuSans-48"/>
       <use x="63.623047" xlink:href="#DejaVuSans-46"/>
       <use x="95.410156" xlink:href="#DejaVuSans-56"/>
      </g>
     </g>
    </g>
    <g id="ytick_6">
     <g id="line2d_31">
      <path clip-path="url(#pd5c11b564f)" d="M 57.6 6.381624 
L 338.688 6.381624 
" style="fill:none;stroke:#b0b0b0;stroke-linecap:square;stroke-width:0.8;"/>
     </g>
     <g id="line2d_32">
      <g>
       <use style="stroke:#000000;stroke-width:0.8;" x="57.6" xlink:href="#m722d414366" y="6.381624"/>
      </g>
     </g>
     <g id="text_11">
      <!-- 1.0 -->
      <g transform="translate(25.155 12.460374)scale(0.16 -0.16)">
       <use xlink:href="#DejaVuSans-49"/>
       <use x="63.623047" xlink:href="#DejaVuSans-46"/>
       <use x="95.410156" xlink:href="#DejaVuSans-48"/>
      </g>
     </g>
    </g>
    <g id="text_12">
     <!-- Fraction of function,target pairs -->
     <defs>
      <path d="M 9.8125 72.90625 
L 51.703125 72.90625 
L 51.703125 64.59375 
L 19.671875 64.59375 
L 19.671875 43.109375 
L 48.578125 43.109375 
L 48.578125 34.8125 
L 19.671875 34.8125 
L 19.671875 0 
L 9.8125 0 
z
" id="DejaVuSans-70"/>
      <path d="M 41.109375 46.296875 
Q 39.59375 47.171875 37.8125 47.578125 
Q 36.03125 48 33.890625 48 
Q 26.265625 48 22.1875 43.046875 
Q 18.109375 38.09375 18.109375 28.8125 
L 18.109375 0 
L 9.078125 0 
L 9.078125 54.6875 
L 18.109375 54.6875 
L 18.109375 46.1875 
Q 20.953125 51.171875 25.484375 53.578125 
Q 30.03125 56 36.53125 56 
Q 37.453125 56 38.578125 55.875 
Q 39.703125 55.765625 41.0625 55.515625 
z
" id="DejaVuSans-114"/>
      <path d="M 48.78125 52.59375 
L 48.78125 44.1875 
Q 44.96875 46.296875 41.140625 47.34375 
Q 37.3125 48.390625 33.40625 48.390625 
Q 24.65625 48.390625 19.8125 42.84375 
Q 14.984375 37.3125 14.984375 27.296875 
Q 14.984375 17.28125 19.8125 11.734375 
Q 24.65625 6.203125 33.40625 6.203125 
Q 37.3125 6.203125 41.140625 7.25 
Q 44.96875 8.296875 48.78125 10.40625 
L 48.78125 2.09375 
Q 45.015625 0.34375 40.984375 -0.53125 
Q 36.96875 -1.421875 32.421875 -1.421875 
Q 20.0625 -1.421875 12.78125 6.34375 
Q 5.515625 14.109375 5.515625 27.296875 
Q 5.515625 40.671875 12.859375 48.328125 
Q 20.21875 56 33.015625 56 
Q 37.15625 56 41.109375 55.140625 
Q 45.0625 54.296875 48.78125 52.59375 
z
" id="DejaVuSans-99"/>
      <path d="M 18.3125 70.21875 
L 18.3125 54.6875 
L 36.8125 54.6875 
L 36.8125 47.703125 
L 18.3125 47.703125 
L 18.3125 18.015625 
Q 18.3125 11.328125 20.140625 9.421875 
Q 21.96875 7.515625 27.59375 7.515625 
L 36.8125 7.515625 
L 36.8125 0 
L 27.59375 0 
Q 17.1875 0 13.234375 3.875 
Q 9.28125 7.765625 9.28125 18.015625 
L 9.28125 47.703125 
L 2.6875 47.703125 
L 2.6875 54.6875 
L 9.28125 54.6875 
L 9.28125 70.21875 
z
" id="DejaVuSans-116"/>
      <path d="M 8.5 21.578125 
L 8.5 54.6875 
L 17.484375 54.6875 
L 17.484375 21.921875 
Q 17.484375 14.15625 20.5 10.265625 
Q 23.53125 6.390625 29.59375 6.390625 
Q 36.859375 6.390625 41.078125 11.03125 
Q 45.3125 15.671875 45.3125 23.6875 
L 45.3125 54.6875 
L 54.296875 54.6875 
L 54.296875 0 
L 45.3125 0 
L 45.3125 8.40625 
Q 42.046875 3.421875 37.71875 1 
Q 33.40625 -1.421875 27.6875 -1.421875 
Q 18.265625 -1.421875 13.375 4.4375 
Q 8.5 10.296875 8.5 21.578125 
z
M 31.109375 56 
z
" id="DejaVuSans-117"/>
      <path d="M 11.71875 12.40625 
L 22.015625 12.40625 
L 22.015625 4 
L 14.015625 -11.625 
L 7.71875 -11.625 
L 11.71875 4 
z
" id="DejaVuSans-44"/>
      <path d="M 18.109375 8.203125 
L 18.109375 -20.796875 
L 9.078125 -20.796875 
L 9.078125 54.6875 
L 18.109375 54.6875 
L 18.109375 46.390625 
Q 20.953125 51.265625 25.265625 53.625 
Q 29.59375 56 35.59375 56 
Q 45.5625 56 51.78125 48.09375 
Q 58.015625 40.1875 58.015625 27.296875 
Q 58.015625 14.40625 51.78125 6.484375 
Q 45.5625 -1.421875 35.59375 -1.421875 
Q 29.59375 -1.421875 25.265625 0.953125 
Q 20.953125 3.328125 18.109375 8.203125 
z
M 48.6875 27.296875 
Q 48.6875 37.203125 44.609375 42.84375 
Q 40.53125 48.484375 33.40625 48.484375 
Q 26.265625 48.484375 22.1875 42.84375 
Q 18.109375 37.203125 18.109375 27.296875 
Q 18.109375 17.390625 22.1875 11.75 
Q 26.265625 6.109375 33.40625 6.109375 
Q 40.53125 6.109375 44.609375 11.75 
Q 48.6875 17.390625 48.6875 27.296875 
z
" id="DejaVuSans-112"/>
     </defs>
     <g transform="translate(17.619531 285.585)rotate(-90)scale(0.17 -0.17)">
      <use xlink:href="#DejaVuSans-70"/>
      <use x="50.269531" xlink:href="#DejaVuSans-114"/>
      <use x="91.382812" xlink:href="#DejaVuSans-97"/>
      <use x="152.662109" xlink:href="#DejaVuSans-99"/>
      <use x="207.642578" xlink:href="#DejaVuSans-116"/>
      <use x="246.851562" xlink:href="#DejaVuSans-105"/>
      <use x="274.634766" xlink:href="#DejaVuSans-111"/>
      <use x="335.816406" xlink:href="#DejaVuSans-110"/>
      <use x="399.195312" xlink:href="#DejaVuSans-32"/>
      <use x="430.982422" xlink:href="#DejaVuSans-111"/>
      <use x="492.164062" xlink:href="#DejaVuSans-102"/>
      <use x="527.369141" xlink:href="#DejaVuSans-32"/>
      <use x="559.15625" xlink:href="#DejaVuSans-102"/>
      <use x="594.361328" xlink:href="#DejaVuSans-117"/>
      <use x="657.740234" xlink:href="#DejaVuSans-110"/>
      <use x="721.119141" xlink:href="#DejaVuSans-99"/>
      <use x="776.099609" xlink:href="#DejaVuSans-116"/>
      <use x="815.308594" xlink:href="#DejaVuSans-105"/>
      <use x="843.091797" xlink:href="#DejaVuSans-111"/>
      <use x="904.273438" xlink:href="#DejaVuSans-110"/>
      <use x="967.652344" xlink:href="#DejaVuSans-44"/>
      <use x="999.439453" xlink:href="#DejaVuSans-116"/>
      <use x="1038.648438" xlink:href="#DejaVuSans-97"/>
      <use x="1099.927734" xlink:href="#DejaVuSans-114"/>
      <use x="1139.291016" xlink:href="#DejaVuSans-103"/>
      <use x="1202.767578" xlink:href="#DejaVuSans-101"/>
      <use x="1264.291016" xlink:href="#DejaVuSans-116"/>
      <use x="1303.5" xlink:href="#DejaVuSans-32"/>
      <use x="1335.287109" xlink:href="#DejaVuSans-112"/>
      <use x="1398.763672" xlink:href="#DejaVuSans-97"/>
      <use x="1460.042969" xlink:href="#DejaVuSans-105"/>
      <use x="1487.826172" xlink:href="#DejaVuSans-114"/>
      <use x="1528.939453" xlink:href="#DejaVuSans-115"/>
     </g>
    </g>
   </g>
   <g id="line2d_33">
    <defs>
     <path d="M 0 1.5 
C 0.397805 1.5 0.77937 1.341951 1.06066 1.06066 
C 1.341951 0.77937 1.5 0.397805 1.5 0 
C 1.5 -0.397805 1.341951 -0.77937 1.06066 -1.06066 
C 0.77937 -1.341951 0.397805 -1.5 0 -1.5 
C -0.397805 -1.5 -0.77937 -1.341951 -1.06066 -1.06066 
C -1.341951 -0.77937 -1.5 -0.397805 -1.5 0 
C -1.5 0.397805 -1.341951 0.77937 -1.06066 1.06066 
C -0.77937 1.341951 -0.397805 1.5 0 1.5 
z
" id="m72069ef3a5" style="stroke:#f5deb3;"/>
    </defs>
    <g>
     <use style="fill:#f5deb3;stroke:#f5deb3;" x="176.056539" xlink:href="#m72069ef3a5" y="6.381624"/>
     <use style="fill:#f5deb3;stroke:#f5deb3;" x="176.056539" xlink:href="#m72069ef3a5" y="6.381624"/>
    </g>
   </g>
   <g id="line2d_34">
    <path clip-path="url(#pd5c11b564f)" d="M 57.6 298.944 
L 57.6 298.944 
L 57.6 298.944 
L 57.6 298.944 
L 338.688 298.944 
" style="fill:none;stroke:#000080;stroke-linecap:square;stroke-width:1.5;"/>
   </g>
   <g id="line2d_35">
    <defs>
     <path d="M 0 6 
C 1.591219 6 3.117479 5.367802 4.242641 4.242641 
C 5.367802 3.117479 6 1.591219 6 0 
C 6 -1.591219 5.367802 -3.117479 4.242641 -4.242641 
C 3.117479 -5.367802 1.591219 -6 0 -6 
C -1.591219 -6 -3.117479 -5.367802 -4.242641 -4.242641 
C -5.367802 -3.117479 -6 -1.591219 -6 0 
C -6 1.591219 -5.367802 3.117479 -4.242641 4.242641 
C -3.117479 5.367802 -1.591219 6 0 6 
z
" id="m452ce4f9dd" style="stroke:#000080;stroke-width:1.5;"/>
    </defs>
    <g clip-path="url(#pd5c11b564f)">
     <use style="fill-opacity:0;stroke:#000080;stroke-width:1.5;" x="57.6" xlink:href="#m452ce4f9dd" y="298.944"/>
    </g>
   </g>
   <g id="line2d_36">
    <path clip-path="url(#pd5c11b564f)" style="fill:none;stroke:#000080;stroke-linecap:square;stroke-width:1.5;"/>
    <g clip-path="url(#pd5c11b564f)">
     <use style="fill-opacity:0;stroke:#000080;stroke-width:1.5;" x="-1" xlink:href="#m452ce4f9dd" y="591.506376"/>
     <use style="fill-opacity:0;stroke:#000080;stroke-width:1.5;" x="338.688" xlink:href="#m452ce4f9dd" y="591.506376"/>
    </g>
   </g>
   <g id="line2d_37">
    <defs>
     <path d="M 0 1.5 
C 0.397805 1.5 0.77937 1.341951 1.06066 1.06066 
C 1.341951 0.77937 1.5 0.397805 1.5 0 
C 1.5 -0.397805 1.341951 -0.77937 1.06066 -1.06066 
C 0.77937 -1.341951 0.397805 -1.5 0 -1.5 
C -0.397805 -1.5 -0.77937 -1.341951 -1.06066 -1.06066 
C -1.341951 -0.77937 -1.5 -0.397805 -1.5 0 
C -1.5 0.397805 -1.341951 0.77937 -1.06066 1.06066 
C -0.77937 1.341951 -0.397805 1.5 0 1.5 
z
" id="md48bec1b7f" style="stroke:#ff00ff;"/>
    </defs>
    <g>
     <use style="fill:#ff00ff;stroke:#ff00ff;" x="221.726514" xlink:href="#md48bec1b7f" y="232.974052"/>
     <use style="fill:#ff00ff;stroke:#ff00ff;" x="221.726514" xlink:href="#md48bec1b7f" y="232.974052"/>
    </g>
   </g>
   <g id="line2d_38">
    <path d="M 79.196356 298.944 
L 79.196356 298.800587 
L 93.644601 298.800587 
L 93.644601 298.657174 
L 95.023499 298.657174 
L 95.023499 298.513761 
L 97.403108 298.513761 
L 97.403108 298.370348 
L 98.935347 298.370348 
L 98.935347 298.226935 
L 102.263669 298.226935 
L 102.263669 298.083522 
L 102.924327 298.083522 
L 102.924327 297.796697 
L 103.993014 297.796697 
L 103.993014 297.653284 
L 104.114542 297.653284 
L 104.114542 297.509871 
L 104.23523 297.509871 
L 104.23523 297.366458 
L 104.533344 297.366458 
L 104.533344 297.223045 
L 105.114708 297.223045 
L 105.114708 297.079632 
L 105.398279 297.079632 
L 105.398279 296.936219 
L 105.621863 296.936219 
L 105.621863 296.792806 
L 106.48859 296.792806 
L 106.48859 296.649393 
L 106.802819 296.649393 
L 106.802819 296.50598 
L 107.564481 296.50598 
L 107.663568 296.219154 
L 107.90885 296.219154 
L 107.90885 296.075741 
L 108.294265 296.075741 
L 108.294265 295.932328 
L 108.436627 295.932328 
L 108.436627 295.788916 
L 108.764355 295.788916 
L 108.764355 295.215264 
L 108.902946 295.215264 
L 108.902946 294.928438 
L 109.176867 294.928438 
L 109.176867 294.785025 
L 110.103064 294.785025 
L 110.103064 294.641612 
L 110.231452 294.641612 
L 110.231452 294.211373 
L 110.77713 294.211373 
L 110.818406 293.924547 
L 111.266113 293.924547 
L 111.30625 293.637722 
L 111.386247 293.637722 
L 111.386247 293.494309 
L 111.780817 293.494309 
L 111.780817 293.350896 
L 112.618673 293.350896 
L 112.618673 293.06407 
L 113.346933 293.06407 
L 113.346933 292.777244 
L 113.55961 292.777244 
L 113.629929 292.347005 
L 113.804498 292.347005 
L 113.804498 292.060179 
L 114.0117 292.060179 
L 114.0117 291.916766 
L 114.284194 291.916766 
L 114.351658 291.343115 
L 114.452366 291.343115 
L 114.519183 291.056289 
L 114.618932 291.056289 
L 114.618932 290.912876 
L 114.882171 290.912876 
L 114.97987 290.482637 
L 115.173642 290.482637 
L 115.173642 290.339224 
L 115.301637 290.339224 
L 115.301637 289.908985 
L 116.232781 289.908985 
L 116.232781 289.765573 
L 116.797786 289.765573 
L 116.797786 289.62216 
L 117.145424 289.62216 
L 117.174084 289.335334 
L 117.458117 289.335334 
L 117.542433 289.048508 
L 117.654224 289.048508 
L 117.765302 288.618269 
L 117.958004 288.618269 
L 117.985359 288.331443 
L 118.148599 288.331443 
L 118.175657 288.044617 
L 118.283474 288.044617 
L 118.390628 287.470966 
L 118.708196 287.470966 
L 118.786692 287.040727 
L 118.838828 287.040727 
L 118.91674 286.753901 
L 118.968488 286.753901 
L 118.968488 286.610488 
L 119.250393 286.610488 
L 119.301163 286.180249 
L 119.40226 286.180249 
L 119.40226 286.036836 
L 119.89914 286.036836 
L 119.89914 285.893423 
L 120.214681 285.893423 
L 120.286695 285.176359 
L 120.47729 285.176359 
L 120.47729 285.032946 
L 120.642369 285.032946 
L 120.736003 284.602707 
L 120.8059 284.602707 
L 120.8059 284.459294 
L 120.944859 284.459294 
L 120.944859 284.315881 
L 121.151244 284.315881 
L 121.151244 284.172468 
L 121.734102 284.172468 
L 121.756135 283.885642 
L 122.061712 283.885642 
L 122.104932 283.311991 
L 122.340747 283.311991 
L 122.340747 283.168578 
L 122.678156 283.168578 
L 122.678156 283.025165 
L 122.968126 283.025165 
L 122.968126 282.881752 
L 123.152022 282.881752 
L 123.212892 282.594926 
L 123.652898 282.594926 
L 123.672636 282.3081 
L 123.770997 282.3081 
L 123.849288 281.877861 
L 124.197312 281.877861 
L 124.292765 281.591036 
L 124.311793 281.591036 
L 124.387699 281.160797 
L 124.500941 281.160797 
L 124.594752 280.730558 
L 124.669438 280.730558 
L 124.762349 280.300319 
L 124.854767 280.300319 
L 124.854767 280.156906 
L 125.056379 280.156906 
L 125.092787 279.87008 
L 125.381344 279.87008 
L 125.399222 279.439842 
L 125.700364 279.439842 
L 125.752972 279.153016 
L 126.030894 279.153016 
L 126.030894 279.009603 
L 126.47328 279.009603 
L 126.557083 278.435951 
L 126.953823 278.435951 
L 127.035353 278.005712 
L 127.132689 278.005712 
L 127.132689 277.718886 
L 127.373678 277.718886 
L 127.40556 277.432061 
L 127.674226 277.432061 
L 127.76807 277.001822 
L 127.923363 277.001822 
L 127.923363 276.858409 
L 128.214663 276.858409 
L 128.305651 276.571583 
L 128.486215 276.571583 
L 128.545989 276.284757 
L 128.635269 276.284757 
L 128.635269 276.141344 
L 128.987887 276.141344 
L 128.987887 275.997931 
L 129.219065 275.997931 
L 129.219065 275.854518 
L 129.79784 275.854518 
L 129.79784 275.711105 
L 130.182344 275.711105 
L 130.250122 275.42428 
L 130.677773 275.42428 
L 130.677773 275.280867 
L 130.848555 275.280867 
L 130.848555 275.137454 
L 131.26195 275.137454 
L 131.26195 274.994041 
L 131.376473 274.994041 
L 131.376473 274.850628 
L 131.790072 274.850628 
L 131.876558 274.563802 
L 131.950349 274.563802 
L 132.048254 274.276976 
L 132.084827 274.276976 
L 132.157744 273.846737 
L 132.206187 273.846737 
L 132.230358 273.559911 
L 132.398622 273.559911 
L 132.398622 273.416499 
L 132.517825 273.416499 
L 132.624415 273.129673 
L 132.648014 273.129673 
L 132.683351 272.842847 
L 132.80063 272.842847 
L 132.858975 272.556021 
L 133.067415 272.556021 
L 133.067415 272.412608 
L 133.19358 272.412608 
L 133.19358 272.269195 
L 133.352844 272.269195 
L 133.352844 272.125782 
L 133.510666 272.125782 
L 133.611375 271.838956 
L 133.997581 271.838956 
L 133.997581 271.695543 
L 134.311226 271.695543 
L 134.386096 271.408718 
L 134.577155 271.408718 
L 134.587709 271.121892 
L 134.83909 271.121892 
L 134.83909 270.978479 
L 135.209496 270.978479 
L 135.240011 270.691653 
L 135.780341 270.691653 
L 135.780341 270.54824 
L 135.995765 270.54824 
L 136.034648 270.261414 
L 136.121821 270.261414 
L 136.179695 269.974588 
L 136.39027 269.974588 
L 136.39027 269.831175 
L 136.504067 269.831175 
L 136.58893 269.544349 
L 136.635898 269.544349 
L 136.635898 269.400937 
L 136.757427 269.400937 
L 136.757427 269.257524 
L 137.016339 269.257524 
L 137.016339 269.114111 
L 137.144368 269.114111 
L 137.144368 268.970698 
L 137.788353 268.970698 
L 137.788353 268.827285 
L 138.426341 268.827285 
L 138.426341 268.683872 
L 138.60322 268.683872 
L 138.670134 267.966807 
L 138.786618 267.966807 
L 138.852833 267.679981 
L 139.204493 267.679981 
L 139.204493 267.536568 
L 139.389719 267.536568 
L 139.485583 267.10633 
L 139.572998 267.10633 
L 139.572998 266.962917 
L 140.423864 266.962917 
L 140.423864 266.819504 
L 140.566717 266.819504 
L 140.604116 266.532678 
L 141.032186 266.532678 
L 141.119455 266.102439 
L 141.184622 266.102439 
L 141.235139 265.815613 
L 141.357218 265.815613 
L 141.392962 265.241962 
L 141.620002 265.241962 
L 141.620002 265.098549 
L 141.788363 265.098549 
L 141.788363 264.955136 
L 142.168169 264.955136 
L 142.181825 264.66831 
L 142.351634 264.66831 
L 142.351634 264.381484 
L 142.466167 264.381484 
L 142.466167 264.238071 
L 142.798734 264.238071 
L 142.90383 263.377593 
L 143.04731 263.377593 
L 143.131543 262.947355 
L 143.432725 262.947355 
L 143.445426 262.517116 
L 143.628567 262.517116 
L 143.653678 262.23029 
L 143.75376 262.23029 
L 143.834656 261.943464 
L 143.976867 261.943464 
L 144.038338 261.513225 
L 144.197155 261.513225 
L 144.227532 261.2264 
L 144.456682 261.2264 
L 144.552273 260.939574 
L 144.812477 260.939574 
L 144.91198 260.509335 
L 145.138129 260.509335 
L 145.2186 260.079096 
L 145.401152 260.079096 
L 145.480422 259.648857 
L 145.542453 259.648857 
L 145.542453 259.505444 
L 145.882498 259.505444 
L 145.904566 259.218619 
L 146.13461 259.218619 
L 146.226867 258.931793 
L 146.420639 258.931793 
L 146.527367 258.501554 
L 146.644018 258.501554 
L 146.744138 257.927902 
L 147.210734 257.927902 
L 147.317833 257.497663 
L 147.368603 257.497663 
L 147.424279 256.924012 
L 147.494884 256.924012 
L 147.565203 256.637186 
L 147.660186 256.637186 
L 147.660186 256.493773 
L 147.888024 256.493773 
L 147.976374 255.920121 
L 148.156589 255.920121 
L 148.23877 255.489882 
L 148.27731 255.489882 
L 148.378074 255.203056 
L 148.397201 255.203056 
L 148.40198 254.916231 
L 148.525764 254.916231 
L 148.629823 254.485992 
L 148.648676 254.485992 
L 148.648676 254.342579 
L 148.82211 254.342579 
L 148.882639 253.625514 
L 149.012299 253.625514 
L 149.11809 252.621624 
L 149.141003 252.621624 
L 149.141003 252.478211 
L 149.286939 252.478211 
L 149.286939 252.334798 
L 149.449671 252.334798 
L 149.449671 252.191385 
L 149.615356 252.191385 
L 149.637625 251.904559 
L 149.730848 251.904559 
L 149.730848 251.761146 
L 149.849978 251.761146 
L 149.849978 251.617733 
L 149.994485 251.617733 
L 149.994485 251.47432 
L 150.107502 251.47432 
L 150.172372 251.187494 
L 150.399667 251.187494 
L 150.442223 250.47043 
L 150.691209 250.47043 
L 150.720515 250.040191 
L 150.812301 250.040191 
L 150.812301 249.896778 
L 151.051992 249.896778 
L 151.158379 249.323126 
L 151.182838 249.323126 
L 151.251953 248.892888 
L 151.409483 248.892888 
L 151.509721 248.606062 
L 151.601433 248.606062 
L 151.62925 248.175823 
L 151.897188 248.175823 
L 152.002444 247.745584 
L 152.110931 247.745584 
L 152.134091 247.458758 
L 152.257093 247.458758 
L 152.356397 247.171932 
L 152.383036 247.171932 
L 152.443774 246.598281 
L 152.560855 246.598281 
L 152.662192 245.881216 
L 152.673415 245.881216 
L 152.673415 245.737803 
L 152.911143 245.737803 
L 152.914832 245.450977 
L 153.047115 245.450977 
L 153.069065 245.020738 
L 153.196559 245.020738 
L 153.276224 244.447087 
L 153.530869 244.447087 
L 153.587744 243.873435 
L 153.655043 243.873435 
L 153.757264 243.443196 
L 153.795881 243.443196 
L 153.795881 243.299783 
L 156.233382 243.299783 
L 156.233382 243.15637 
L 156.51169 243.15637 
L 156.51169 243.012957 
L 160.278464 243.012957 
L 160.34363 242.726132 
L 161.573617 242.726132 
L 161.573617 242.582719 
L 163.953867 242.582719 
L 163.953867 242.439306 
L 164.662013 242.439306 
L 164.768882 242.009067 
L 164.860231 242.009067 
L 164.860231 241.865654 
L 165.257306 241.865654 
L 165.360599 241.435415 
L 165.682828 241.435415 
L 165.698785 241.005176 
L 165.806549 241.005176 
L 165.917153 240.431525 
L 171.210614 240.431525 
L 171.210614 240.288112 
L 172.160917 240.288112 
L 172.160917 240.144699 
L 172.564812 240.144699 
L 172.614946 239.857873 
L 172.869348 239.857873 
L 172.930325 239.571047 
L 172.986423 239.571047 
L 172.986423 239.427634 
L 173.784646 239.427634 
L 173.784646 239.284221 
L 173.981928 239.284221 
L 173.981928 239.140808 
L 176.076098 239.140808 
L 176.076098 238.997395 
L 176.967732 238.997395 
L 176.967732 238.853983 
L 177.745967 238.853983 
L 177.745967 238.71057 
L 177.91302 238.71057 
L 177.91302 238.567157 
L 178.59531 238.567157 
L 178.59531 238.423744 
L 180.780453 238.423744 
L 180.780453 238.280331 
L 181.819783 238.280331 
L 181.90885 237.850092 
L 182.24006 237.850092 
L 182.24006 237.706679 
L 182.9423 237.706679 
L 182.9423 237.563266 
L 184.882585 237.563266 
L 184.882585 237.419853 
L 185.033524 237.419853 
L 185.091905 237.133027 
L 185.347629 237.133027 
L 185.347629 236.989614 
L 187.603442 236.989614 
L 187.603442 236.846202 
L 192.124805 236.846202 
L 192.145431 236.559376 
L 193.80446 236.559376 
L 193.80446 236.415963 
L 193.986343 236.415963 
L 194.007329 236.129137 
L 195.670423 236.129137 
L 195.692652 235.842311 
L 197.019757 235.842311 
L 197.019757 235.698898 
L 197.153062 235.698898 
L 197.171148 235.268659 
L 198.474614 235.268659 
L 198.474614 235.125246 
L 198.58815 235.125246 
L 198.58815 234.981833 
L 201.055496 234.981833 
L 201.055496 234.838421 
L 201.195637 234.838421 
L 201.195637 234.695008 
L 205.150132 234.695008 
L 205.150132 234.551595 
L 205.935893 234.551595 
L 205.935893 234.408182 
L 206.10056 234.408182 
L 206.10056 234.264769 
L 207.753644 234.264769 
L 207.816148 233.977943 
L 209.950809 233.977943 
L 209.984683 233.547704 
L 210.186279 233.547704 
L 210.186279 233.404291 
L 211.32776 233.404291 
L 211.32776 233.260878 
L 213.738506 233.260878 
L 213.738506 233.117465 
L 221.726514 233.117465 
L 221.726514 232.974052 
L 338.688 232.974052 
L 338.688 232.974052 
" style="fill:none;stroke:#ff00ff;stroke-linecap:square;stroke-width:1.5;"/>
   </g>
   <g id="line2d_39">
    <defs>
     <path d="M -0 8.485281 
L 5.091169 0 
L 0 -8.485281 
L -5.091169 -0 
z
" id="m52af2f3520" style="stroke:#ff00ff;stroke-linejoin:miter;stroke-width:1.5;"/>
    </defs>
    <g>
     <use style="fill-opacity:0;stroke:#ff00ff;stroke-linejoin:miter;stroke-width:1.5;" x="164.860231" xlink:href="#m52af2f3520" y="242.009067"/>
     <use style="fill-opacity:0;stroke:#ff00ff;stroke-linejoin:miter;stroke-width:1.5;" x="221.726514" xlink:href="#m52af2f3520" y="233.117465"/>
     <use style="fill-opacity:0;stroke:#ff00ff;stroke-linejoin:miter;stroke-width:1.5;" x="221.726514" xlink:href="#m52af2f3520" y="232.974052"/>
     <use style="fill-opacity:0;stroke:#ff00ff;stroke-linejoin:miter;stroke-width:1.5;" x="221.726514" xlink:href="#m52af2f3520" y="232.974052"/>
     <use style="fill-opacity:0;stroke:#ff00ff;stroke-linejoin:miter;stroke-width:1.5;" x="338.688" xlink:href="#m52af2f3520" y="232.974052"/>
    </g>
   </g>
   <g id="line2d_40">
    <path style="fill:none;stroke:#ff00ff;stroke-linecap:square;stroke-width:1.5;"/>
    <g/>
   </g>
   <g id="line2d_41">
    <path clip-path="url(#pd5c11b564f)" d="M 153.862384 243.299783 
" style="fill:none;stroke:#ff00ff;stroke-linecap:square;stroke-width:1.5;"/>
    <defs>
     <path d="M -12 12 
L 12 -12 
M -12 -12 
L 12 12 
" id="m7a5a9b7e09" style="stroke:#ff00ff;"/>
    </defs>
    <g clip-path="url(#pd5c11b564f)">
     <use style="fill:#ff00ff;stroke:#ff00ff;" x="153.862384" xlink:href="#m7a5a9b7e09" y="243.299783"/>
    </g>
   </g>
   <g id="line2d_42">
    <defs>
     <path d="M 0 1.5 
C 0.397805 1.5 0.77937 1.341951 1.06066 1.06066 
C 1.341951 0.77937 1.5 0.397805 1.5 0 
C 1.5 -0.397805 1.341951 -0.77937 1.06066 -1.06066 
C 0.77937 -1.341951 0.397805 -1.5 0 -1.5 
C -0.397805 -1.5 -0.77937 -1.341951 -1.06066 -1.06066 
C -1.341951 -0.77937 -1.5 -0.397805 -1.5 0 
C -1.5 0.397805 -1.341951 0.77937 -1.06066 1.06066 
C -0.77937 1.341951 -0.397805 1.5 0 1.5 
z
" id="m156d6baa4e" style="stroke:#ff7500;"/>
    </defs>
    <g>
     <use style="fill:#ff7500;stroke:#ff7500;" x="220.637743" xlink:href="#m156d6baa4e" y="271.695543"/>
     <use style="fill:#ff7500;stroke:#ff7500;" x="220.637743" xlink:href="#m156d6baa4e" y="271.695543"/>
    </g>
   </g>
   <g id="line2d_43">
    <path d="M 120.429836 298.944 
L 120.429836 298.800587 
L 121.931406 298.800587 
L 121.931406 298.657174 
L 125.700364 298.657174 
L 125.700364 298.513761 
L 126.756581 298.513761 
L 126.756581 298.370348 
L 127.721211 298.370348 
L 127.721211 298.226935 
L 128.229861 298.226935 
L 128.229861 298.083522 
L 129.161557 298.083522 
L 129.161557 297.940109 
L 129.333516 297.940109 
L 129.404667 297.653284 
L 129.503795 297.653284 
L 129.503795 297.509871 
L 129.867126 297.509871 
L 129.867126 297.366458 
L 131.338382 297.366458 
L 131.338382 297.223045 
L 132.084827 297.223045 
L 132.084827 297.079632 
L 132.577122 297.079632 
L 132.577122 296.936219 
L 132.917126 296.936219 
L 132.975083 296.649393 
L 133.29613 296.649393 
L 133.29613 296.50598 
L 134.332651 296.50598 
L 134.332651 296.362567 
L 134.682402 296.362567 
L 134.682402 296.219154 
L 135.681535 296.219154 
L 135.770486 295.932328 
L 136.005494 295.932328 
L 136.005494 295.788916 
L 137.162581 295.788916 
L 137.162581 295.645503 
L 137.52291 295.645503 
L 137.52291 295.50209 
L 137.849713 295.50209 
L 137.849713 295.358677 
L 138.084384 295.358677 
L 138.084384 295.215264 
L 138.341479 295.215264 
L 138.341479 295.071851 
L 138.836303 295.071851 
L 138.836303 294.928438 
L 139.090775 294.928438 
L 139.090775 294.785025 
L 139.220677 294.785025 
L 139.220677 294.641612 
L 139.659977 294.641612 
L 139.770054 294.354786 
L 139.801378 294.354786 
L 139.801378 294.211373 
L 139.933878 294.211373 
L 139.972658 293.924547 
L 140.203543 293.924547 
L 140.203543 293.781135 
L 140.596643 293.781135 
L 140.596643 293.637722 
L 140.730677 293.637722 
L 140.730677 293.494309 
L 140.878406 293.494309 
L 140.878406 293.350896 
L 141.097679 293.350896 
L 141.097679 293.207483 
L 141.335737 293.207483 
L 141.335737 293.06407 
L 141.788363 293.06407 
L 141.837164 292.777244 
L 141.989655 292.777244 
L 142.003452 292.490418 
L 142.195471 292.490418 
L 142.195471 292.347005 
L 142.412363 292.347005 
L 142.479593 292.060179 
L 142.606619 292.060179 
L 142.606619 291.916766 
L 142.949611 291.916766 
L 143.060296 291.629941 
L 143.2025 291.629941 
L 143.234658 291.343115 
L 143.407294 291.343115 
L 143.407294 291.199702 
L 143.60342 291.199702 
L 143.65995 290.912876 
L 143.735038 290.912876 
L 143.816021 290.482637 
L 144.148442 290.482637 
L 144.148442 290.339224 
L 144.360565 290.339224 
L 144.40869 289.908985 
L 144.55823 289.908985 
L 144.55823 289.765573 
L 144.706499 289.765573 
L 144.812477 289.335334 
L 145.281568 289.335334 
L 145.34431 289.048508 
L 145.48607 289.048508 
L 145.48607 288.905095 
L 145.632289 288.905095 
L 145.632289 288.761682 
L 145.959614 288.761682 
L 145.959614 288.618269 
L 146.38313 288.618269 
L 146.43669 288.331443 
L 146.522046 288.331443 
L 146.522046 288.18803 
L 146.665144 288.18803 
L 146.675697 287.757791 
L 146.78088 287.757791 
L 146.78088 287.614379 
L 146.999721 287.614379 
L 146.999721 287.470966 
L 147.210734 287.470966 
L 147.261816 287.18414 
L 147.322917 287.18414 
L 147.322917 287.040727 
L 147.4697 287.040727 
L 147.580235 286.753901 
L 147.744734 286.753901 
L 147.764568 286.467075 
L 147.946974 286.467075 
L 147.946974 286.323662 
L 148.229122 286.323662 
L 148.310963 286.036836 
L 148.349344 286.036836 
L 148.38764 285.75001 
L 148.463982 285.75001 
L 148.463982 285.606598 
L 149.792721 285.606598 
L 149.792721 285.463185 
L 150.024985 285.463185 
L 150.111834 285.176359 
L 150.284246 285.176359 
L 150.369816 284.74612 
L 150.403927 284.74612 
L 150.403927 284.602707 
L 150.649257 284.602707 
L 150.703775 284.172468 
L 151.272229 284.172468 
L 151.284383 283.885642 
L 152.184165 283.885642 
L 152.28006 283.598817 
L 152.564618 283.598817 
L 152.654705 283.311991 
L 152.736878 283.311991 
L 152.774102 282.881752 
L 152.870513 282.881752 
L 152.881603 282.594926 
L 153.163864 282.594926 
L 153.265382 282.3081 
L 159.882266 282.3081 
L 159.882266 282.164687 
L 161.233571 282.164687 
L 161.233571 282.021274 
L 161.390816 282.021274 
L 161.390816 281.877861 
L 161.602778 281.877861 
L 161.629652 281.591036 
L 162.021314 281.591036 
L 162.036624 281.160797 
L 162.199823 281.160797 
L 162.199823 280.873971 
L 162.741445 280.873971 
L 162.741445 280.730558 
L 162.871137 280.730558 
L 162.871137 280.443732 
L 163.00194 280.443732 
L 163.051513 280.156906 
L 163.183022 280.156906 
L 163.183022 280.013493 
L 163.631659 280.013493 
L 163.631659 279.87008 
L 164.723964 279.87008 
L 164.723964 279.726667 
L 165.618857 279.726667 
L 165.716497 279.439842 
L 170.030851 279.439842 
L 170.033615 279.153016 
L 170.959479 279.153016 
L 171.040549 278.86619 
L 171.421208 278.86619 
L 171.487454 278.579364 
L 171.878488 278.579364 
L 171.878488 278.435951 
L 172.273106 278.435951 
L 172.273106 278.149125 
L 172.647099 278.149125 
L 172.647099 278.005712 
L 175.85281 278.005712 
L 175.921971 277.718886 
L 176.837233 277.718886 
L 176.837233 277.575474 
L 177.677447 277.575474 
L 177.785001 276.714996 
L 177.819526 276.714996 
L 177.912141 276.141344 
L 181.264725 276.141344 
L 181.365327 275.711105 
L 181.733085 275.711105 
L 181.733085 275.280867 
L 184.645029 275.280867 
L 184.645029 275.137454 
L 186.890632 275.137454 
L 186.890632 274.994041 
L 187.333392 274.994041 
L 187.364116 274.563802 
L 187.648802 274.563802 
L 187.648802 274.420389 
L 189.960938 274.420389 
L 190.014199 274.133563 
L 191.826717 274.133563 
L 191.826717 273.99015 
L 192.099086 273.99015 
L 192.099086 273.846737 
L 193.702668 273.846737 
L 193.702668 273.703324 
L 193.891241 273.703324 
L 193.891241 273.559911 
L 195.618551 273.559911 
L 195.66057 273.273086 
L 196.939874 273.273086 
L 196.939874 273.129673 
L 197.143428 273.129673 
L 197.143428 272.98626 
L 198.19506 272.98626 
L 198.19506 272.842847 
L 198.535114 272.842847 
L 198.535114 272.699434 
L 207.640762 272.699434 
L 207.640762 272.556021 
L 209.272398 272.556021 
L 209.272398 272.412608 
L 209.985941 272.412608 
L 209.985941 272.269195 
L 212.579698 272.269195 
L 212.579698 272.125782 
L 215.358651 272.125782 
L 215.358651 271.982369 
L 216.353272 271.982369 
L 216.353272 271.838956 
L 220.637743 271.838956 
L 220.637743 271.695543 
L 338.688 271.695543 
L 338.688 271.695543 
" style="fill:none;stroke:#ff7500;stroke-linecap:square;stroke-width:1.5;"/>
   </g>
   <g id="line2d_44">
    <defs>
     <path d="M 0 -6 
L -1.347084 -1.854102 
L -5.706339 -1.854102 
L -2.179628 0.708204 
L -3.526712 4.854102 
L -0 2.291796 
L 3.526712 4.854102 
L 2.179628 0.708204 
L 5.706339 -1.854102 
L 1.347084 -1.854102 
z
" id="m23ddf79c35" style="stroke:#ff7500;stroke-linejoin:bevel;stroke-width:1.5;"/>
    </defs>
    <g>
     <use style="fill-opacity:0;stroke:#ff7500;stroke-linejoin:bevel;stroke-width:1.5;" x="159.882266" xlink:href="#m23ddf79c35" y="282.164687"/>
     <use style="fill-opacity:0;stroke:#ff7500;stroke-linejoin:bevel;stroke-width:1.5;" x="207.640762" xlink:href="#m23ddf79c35" y="272.699434"/>
     <use style="fill-opacity:0;stroke:#ff7500;stroke-linejoin:bevel;stroke-width:1.5;" x="220.637743" xlink:href="#m23ddf79c35" y="271.695543"/>
     <use style="fill-opacity:0;stroke:#ff7500;stroke-linejoin:bevel;stroke-width:1.5;" x="220.637743" xlink:href="#m23ddf79c35" y="271.695543"/>
     <use style="fill-opacity:0;stroke:#ff7500;stroke-linejoin:bevel;stroke-width:1.5;" x="338.688" xlink:href="#m23ddf79c35" y="271.695543"/>
    </g>
   </g>
   <g id="line2d_45">
    <path style="fill:none;stroke:#ff7500;stroke-linecap:square;stroke-width:1.5;"/>
    <g/>
   </g>
   <g id="line2d_46">
    <path clip-path="url(#pd5c11b564f)" d="M 153.890309 282.3081 
" style="fill:none;stroke:#ff7500;stroke-linecap:square;stroke-width:1.5;"/>
    <defs>
     <path d="M -12 12 
L 12 -12 
M -12 -12 
L 12 12 
" id="m5118a60781" style="stroke:#ff7500;"/>
    </defs>
    <g clip-path="url(#pd5c11b564f)">
     <use style="fill:#ff7500;stroke:#ff7500;" x="153.890309" xlink:href="#m5118a60781" y="282.3081"/>
    </g>
   </g>
   <g id="line2d_47">
    <defs>
     <path d="M 0 1.5 
C 0.397805 1.5 0.77937 1.341951 1.06066 1.06066 
C 1.341951 0.77937 1.5 0.397805 1.5 0 
C 1.5 -0.397805 1.341951 -0.77937 1.06066 -1.06066 
C 0.77937 -1.341951 0.397805 -1.5 0 -1.5 
C -0.397805 -1.5 -0.77937 -1.341951 -1.06066 -1.06066 
C -1.341951 -0.77937 -1.5 -0.397805 -1.5 0 
C -1.5 0.397805 -1.341951 0.77937 -1.06066 1.06066 
C -0.77937 1.341951 -0.397805 1.5 0 1.5 
z
" id="me7119497a5" style="stroke:#6495ed;"/>
    </defs>
    <g>
     <use style="fill:#6495ed;stroke:#6495ed;" x="219.465081" xlink:href="#me7119497a5" y="261.656638"/>
     <use style="fill:#6495ed;stroke:#6495ed;" x="219.465081" xlink:href="#me7119497a5" y="261.656638"/>
    </g>
   </g>
   <g id="line2d_48">
    <path d="M 109.31223 298.944 
L 109.31223 298.800587 
L 111.545148 298.800587 
L 111.545148 298.657174 
L 114.519183 298.657174 
L 114.519183 298.513761 
L 117.001416 298.513761 
L 117.001416 298.370348 
L 117.316679 298.370348 
L 117.316679 298.226935 
L 117.626343 298.226935 
L 117.626343 298.083522 
L 118.363901 298.083522 
L 118.363901 297.940109 
L 119.726838 297.940109 
L 119.726838 297.796697 
L 120.689249 297.796697 
L 120.689249 297.653284 
L 121.445108 297.653284 
L 121.445108 297.509871 
L 121.865885 297.509871 
L 121.865885 297.366458 
L 122.906394 297.366458 
L 122.906394 297.223045 
L 123.029641 297.223045 
L 123.029641 297.079632 
L 123.394238 297.079632 
L 123.474235 296.792806 
L 124.043491 296.792806 
L 124.043491 296.649393 
L 124.425528 296.649393 
L 124.425528 296.50598 
L 124.780872 296.50598 
L 124.799375 296.219154 
L 126.151107 296.219154 
L 126.219429 295.788916 
L 127.019078 295.788916 
L 127.019078 295.645503 
L 127.197279 295.645503 
L 127.197279 295.50209 
L 127.421479 295.50209 
L 127.421479 295.358677 
L 128.366047 295.358677 
L 128.45625 295.071851 
L 129.977414 295.071851 
L 129.977414 294.928438 
L 130.304155 294.928438 
L 130.304155 294.785025 
L 130.598383 294.785025 
L 130.598383 294.641612 
L 131.06939 294.641612 
L 131.06939 294.498199 
L 132.097001 294.498199 
L 132.097001 294.354786 
L 132.314693 294.354786 
L 132.314693 294.06796 
L 132.753813 294.06796 
L 132.753813 293.924547 
L 132.975083 293.924547 
L 132.986651 293.637722 
L 133.273393 293.637722 
L 133.273393 293.494309 
L 134.04118 293.494309 
L 134.04118 293.350896 
L 134.692892 293.350896 
L 134.692892 293.207483 
L 134.859876 293.207483 
L 134.859876 293.06407 
L 135.035562 293.06407 
L 135.035562 292.920657 
L 135.280614 292.920657 
L 135.381712 292.633831 
L 135.46217 292.633831 
L 135.572198 292.347005 
L 135.839358 292.347005 
L 135.927509 292.060179 
L 135.966545 292.060179 
L 136.024936 291.773354 
L 136.102487 291.773354 
L 136.112156 291.486528 
L 136.757427 291.486528 
L 136.757427 291.343115 
L 137.007158 291.343115 
L 137.007158 291.199702 
L 137.153477 291.199702 
L 137.153477 291.056289 
L 137.664982 291.056289 
L 137.70032 290.769463 
L 137.832203 290.769463 
L 137.832203 290.62605 
L 138.383962 290.62605 
L 138.383962 290.482637 
L 138.510793 290.482637 
L 138.552866 290.195811 
L 138.761723 290.195811 
L 138.761723 290.052398 
L 138.959898 290.052398 
L 138.959898 289.908985 
L 139.163964 289.908985 
L 139.163964 289.62216 
L 139.413734 289.62216 
L 139.501509 289.335334 
L 139.69937 289.335334 
L 139.69937 289.191921 
L 140.11924 289.191921 
L 140.11924 289.048508 
L 140.393639 289.048508 
L 140.393639 288.905095 
L 140.686113 288.905095 
L 140.686113 288.761682 
L 140.922482 288.761682 
L 141.002999 288.474856 
L 141.407239 288.474856 
L 141.485554 288.044617 
L 141.641136 288.044617 
L 141.669275 287.757791 
L 141.823235 287.757791 
L 141.823235 287.614379 
L 141.982752 287.614379 
L 142.037896 287.327553 
L 142.161336 287.327553 
L 142.161336 287.18414 
L 142.358392 287.18414 
L 142.358392 287.040727 
L 142.486301 287.040727 
L 142.57328 286.467075 
L 142.844792 286.467075 
L 142.844792 286.323662 
L 143.060296 286.323662 
L 143.060296 286.180249 
L 143.183176 286.180249 
L 143.183176 286.036836 
L 143.578237 286.036836 
L 143.609711 285.75001 
L 144.081239 285.75001 
L 144.087359 285.463185 
L 144.215388 285.463185 
L 144.306265 285.176359 
L 144.510517 285.176359 
L 144.570138 284.889533 
L 144.653267 284.889533 
L 144.718306 284.459294 
L 145.010918 284.459294 
L 145.022521 284.172468 
L 145.143889 284.172468 
L 145.201387 283.742229 
L 145.321521 283.742229 
L 145.418169 283.311991 
L 145.480422 283.311991 
L 145.576196 283.025165 
L 145.910079 283.025165 
L 146.014489 282.451513 
L 146.350914 282.451513 
L 146.458068 281.734448 
L 146.484754 281.734448 
L 146.511399 281.447623 
L 146.890644 281.447623 
L 146.932277 281.160797 
L 147.077217 281.160797 
L 147.169761 280.730558 
L 147.19538 280.730558 
L 147.277111 280.300319 
L 147.368603 280.300319 
L 147.383805 280.013493 
L 147.550159 280.013493 
L 147.660186 279.439842 
L 147.700024 279.439842 
L 147.744734 279.009603 
L 148.025265 279.009603 
L 148.074019 278.722777 
L 148.151743 278.722777 
L 148.248413 278.292538 
L 148.363715 278.292538 
L 148.468742 277.862299 
L 148.497276 277.862299 
L 148.497276 277.718886 
L 149.090554 277.718886 
L 149.131841 277.432061 
L 149.2278 277.432061 
L 149.309632 277.001822 
L 149.472153 277.001822 
L 149.472153 276.858409 
L 149.588594 276.858409 
L 149.695393 276.42817 
L 149.721991 276.42817 
L 149.810358 276.141344 
L 149.854375 276.141344 
L 149.928949 275.567692 
L 150.501627 275.567692 
L 150.543935 275.137454 
L 150.707961 275.137454 
L 150.707961 274.994041 
L 150.891184 274.994041 
L 150.924291 274.707215 
L 151.304621 274.707215 
L 151.304621 274.563802 
L 151.63719 274.563802 
L 151.63719 274.420389 
L 151.759793 274.420389 
L 151.84236 273.99015 
L 152.451351 273.99015 
L 152.55709 273.703324 
L 152.762943 273.703324 
L 152.803824 273.416499 
L 153.279836 273.416499 
L 153.279836 273.273086 
L 153.402218 273.273086 
L 153.448784 272.98626 
L 153.655043 272.98626 
L 153.655043 272.842847 
L 159.436301 272.842847 
L 159.436301 272.699434 
L 159.730716 272.699434 
L 159.730716 272.556021 
L 160.597141 272.556021 
L 160.597141 272.412608 
L 161.315788 272.412608 
L 161.315788 272.269195 
L 161.647545 272.269195 
L 161.647545 272.125782 
L 161.803334 272.125782 
L 161.836537 271.838956 
L 161.957743 271.838956 
L 161.957743 271.695543 
L 162.785481 271.695543 
L 162.785481 271.55213 
L 163.743029 271.55213 
L 163.83201 271.265305 
L 163.908762 271.265305 
L 163.983221 270.835066 
L 164.076824 270.835066 
L 164.109855 270.54824 
L 164.366135 270.54824 
L 164.366135 270.404827 
L 164.529868 270.404827 
L 164.529868 270.118001 
L 164.984368 270.118001 
L 164.984368 269.974588 
L 165.302685 269.974588 
L 165.302685 269.831175 
L 165.758932 269.831175 
L 165.861061 269.544349 
L 168.541059 269.544349 
L 168.541059 269.400937 
L 169.683212 269.400937 
L 169.683212 269.257524 
L 169.873945 269.257524 
L 169.873945 269.114111 
L 170.124596 269.114111 
L 170.124596 268.970698 
L 170.284722 268.970698 
L 170.284722 268.827285 
L 171.023582 268.827285 
L 171.023582 268.683872 
L 172.229292 268.683872 
L 172.229292 268.397046 
L 172.36887 268.397046 
L 172.393031 267.966807 
L 172.60183 267.966807 
L 172.60183 267.823394 
L 172.791647 267.823394 
L 172.897518 267.536568 
L 172.971247 267.536568 
L 172.971247 267.393156 
L 176.558063 267.393156 
L 176.558063 267.249743 
L 177.141452 267.249743 
L 177.141452 267.10633 
L 177.36346 267.10633 
L 177.36346 266.962917 
L 177.557558 266.962917 
L 177.576401 266.532678 
L 178.007766 266.532678 
L 178.007766 266.389265 
L 181.221847 266.389265 
L 181.221847 266.245852 
L 181.837352 266.245852 
L 181.910949 265.959026 
L 184.671916 265.959026 
L 184.671916 265.815613 
L 185.008946 265.815613 
L 185.061571 264.955136 
L 187.760688 264.955136 
L 187.792167 264.66831 
L 190.058093 264.66831 
L 190.097504 264.381484 
L 194.000336 264.381484 
L 194.000336 264.238071 
L 195.531327 264.238071 
L 195.531327 264.094658 
L 197.109813 264.094658 
L 197.109813 263.951245 
L 198.466224 263.951245 
L 198.466224 263.807832 
L 199.858676 263.807832 
L 199.858676 263.664419 
L 201.065527 263.664419 
L 201.065527 263.521006 
L 203.185477 263.521006 
L 203.254317 263.234181 
L 204.184734 263.234181 
L 204.271106 262.803942 
L 206.095317 262.803942 
L 206.095317 262.660529 
L 209.281281 262.660529 
L 209.29438 262.373703 
L 209.947726 262.373703 
L 209.947726 262.23029 
L 212.546769 262.23029 
L 212.546769 262.086877 
L 217.276273 262.086877 
L 217.276273 261.943464 
L 217.760504 261.943464 
L 217.760504 261.800051 
L 219.465081 261.800051 
L 219.465081 261.656638 
L 338.688 261.656638 
L 338.688 261.656638 
" style="fill:none;stroke:#6495ed;stroke-linecap:square;stroke-width:1.5;"/>
   </g>
   <g id="line2d_49">
    <defs>
     <path d="M -0 6 
L 6 -6 
L -6 -6 
z
" id="m98c769db9e" style="stroke:#6495ed;stroke-linejoin:miter;stroke-width:1.5;"/>
    </defs>
    <g>
     <use style="fill-opacity:0;stroke:#6495ed;stroke-linejoin:miter;stroke-width:1.5;" x="151.763734" xlink:href="#m98c769db9e" y="274.133563"/>
     <use style="fill-opacity:0;stroke:#6495ed;stroke-linejoin:miter;stroke-width:1.5;" x="219.465081" xlink:href="#m98c769db9e" y="261.800051"/>
     <use style="fill-opacity:0;stroke:#6495ed;stroke-linejoin:miter;stroke-width:1.5;" x="219.465081" xlink:href="#m98c769db9e" y="261.656638"/>
     <use style="fill-opacity:0;stroke:#6495ed;stroke-linejoin:miter;stroke-width:1.5;" x="219.465081" xlink:href="#m98c769db9e" y="261.656638"/>
     <use style="fill-opacity:0;stroke:#6495ed;stroke-linejoin:miter;stroke-width:1.5;" x="338.688" xlink:href="#m98c769db9e" y="261.656638"/>
    </g>
   </g>
   <g id="line2d_50">
    <path style="fill:none;stroke:#6495ed;stroke-linecap:square;stroke-width:1.5;"/>
    <g/>
   </g>
   <g id="line2d_51">
    <path clip-path="url(#pd5c11b564f)" d="M 153.890309 272.842847 
" style="fill:none;stroke:#6495ed;stroke-linecap:square;stroke-width:1.5;"/>
    <defs>
     <path d="M -12 12 
L 12 -12 
M -12 -12 
L 12 12 
" id="m7fc0735fb7" style="stroke:#6495ed;"/>
    </defs>
    <g clip-path="url(#pd5c11b564f)">
     <use style="fill:#6495ed;stroke:#6495ed;" x="153.890309" xlink:href="#m7fc0735fb7" y="272.842847"/>
    </g>
   </g>
   <g id="line2d_52">
    <defs>
     <path d="M 0 1.5 
C 0.397805 1.5 0.77937 1.341951 1.06066 1.06066 
C 1.341951 0.77937 1.5 0.397805 1.5 0 
C 1.5 -0.397805 1.341951 -0.77937 1.06066 -1.06066 
C 0.77937 -1.341951 0.397805 -1.5 0 -1.5 
C -0.397805 -1.5 -0.77937 -1.341951 -1.06066 -1.06066 
C -1.341951 -0.77937 -1.5 -0.397805 -1.5 0 
C -1.5 0.397805 -1.341951 0.77937 -1.06066 1.06066 
C -0.77937 1.341951 -0.397805 1.5 0 1.5 
z
" id="m1e942b9352" style="stroke:#ff0000;"/>
    </defs>
    <g>
     <use style="fill:#ff0000;stroke:#ff0000;" x="222.584788" xlink:href="#m1e942b9352" y="278.86619"/>
     <use style="fill:#ff0000;stroke:#ff0000;" x="222.584788" xlink:href="#m1e942b9352" y="278.86619"/>
    </g>
   </g>
   <g id="line2d_53">
    <path d="M 103.93193 298.944 
L 103.93193 298.800587 
L 104.17499 298.800587 
L 104.17499 298.657174 
L 106.275913 298.657174 
L 106.275913 298.513761 
L 108.341848 298.513761 
L 108.341848 298.370348 
L 109.491096 298.370348 
L 109.491096 298.226935 
L 110.401178 298.226935 
L 110.401178 298.083522 
L 111.064034 298.083522 
L 111.064034 297.940109 
L 111.185562 297.940109 
L 111.185562 297.796697 
L 111.936179 297.796697 
L 111.936179 297.653284 
L 115.141496 297.653284 
L 115.237757 297.366458 
L 115.269727 297.366458 
L 115.269727 297.223045 
L 116.443076 297.223045 
L 116.443076 297.079632 
L 116.59175 297.079632 
L 116.59175 296.936219 
L 116.885347 296.936219 
L 116.885347 296.792806 
L 118.390628 296.792806 
L 118.390628 296.649393 
L 118.734401 296.649393 
L 118.734401 296.50598 
L 120.852343 296.50598 
L 120.852343 296.362567 
L 121.377731 296.362567 
L 121.377731 296.219154 
L 122.594413 296.219154 
L 122.678156 295.932328 
L 122.968126 295.932328 
L 122.968126 295.788916 
L 124.669438 295.788916 
L 124.669438 295.645503 
L 125.345535 295.645503 
L 125.345535 295.50209 
L 127.985095 295.50209 
L 127.985095 295.358677 
L 129.175952 295.358677 
L 129.175952 295.215264 
L 130.900768 295.215264 
L 130.900768 295.071851 
L 131.030622 295.071851 
L 131.030622 294.928438 
L 131.665771 294.928438 
L 131.665771 294.785025 
L 132.290639 294.785025 
L 132.290639 294.641612 
L 132.870621 294.641612 
L 132.870621 294.498199 
L 133.633675 294.498199 
L 133.633675 294.354786 
L 134.891008 294.354786 
L 134.891008 294.211373 
L 135.351444 294.211373 
L 135.351444 294.06796 
L 136.015217 294.06796 
L 136.015217 293.924547 
L 136.896607 293.924547 
L 136.896607 293.781135 
L 137.071324 293.781135 
L 137.071324 293.637722 
L 137.37967 293.637722 
L 137.37967 293.494309 
L 137.709143 293.494309 
L 137.709143 293.350896 
L 137.884679 293.350896 
L 137.884679 293.207483 
L 138.058465 293.207483 
L 138.058465 293.06407 
L 138.628343 293.06407 
L 138.628343 292.920657 
L 138.794909 292.920657 
L 138.794909 292.777244 
L 140.663789 292.777244 
L 140.663789 292.633831 
L 141.061324 292.633831 
L 141.061324 292.490418 
L 141.407239 292.490418 
L 141.407239 292.347005 
L 142.452732 292.347005 
L 142.452732 292.203592 
L 143.092717 292.203592 
L 143.092717 292.060179 
L 144.40869 292.060179 
L 144.40869 291.916766 
L 151.019126 291.916766 
L 151.019126 291.773354 
L 155.533415 291.773354 
L 155.533415 291.629941 
L 155.83239 291.629941 
L 155.83239 291.486528 
L 156.333721 291.486528 
L 156.333721 291.343115 
L 156.571609 291.343115 
L 156.616413 291.056289 
L 157.675417 291.056289 
L 157.675417 290.769463 
L 158.025604 290.769463 
L 158.025604 290.62605 
L 158.276927 290.62605 
L 158.276927 290.482637 
L 158.962994 290.482637 
L 158.962994 290.195811 
L 159.474326 290.195811 
L 159.474326 289.908985 
L 159.700748 289.908985 
L 159.750667 289.478747 
L 160.590016 289.478747 
L 160.590016 289.335334 
L 160.717812 289.335334 
L 160.823597 288.761682 
L 161.180839 288.761682 
L 161.180839 288.618269 
L 167.73688 288.618269 
L 167.73688 288.474856 
L 168.183606 288.474856 
L 168.183606 288.331443 
L 168.756528 288.331443 
L 168.756528 288.18803 
L 168.942904 288.18803 
L 168.942904 288.044617 
L 169.182542 288.044617 
L 169.182542 287.901204 
L 170.077786 287.901204 
L 170.077786 287.757791 
L 173.98964 287.757791 
L 173.994046 287.327553 
L 174.241183 287.327553 
L 174.241183 287.18414 
L 175.170413 287.18414 
L 175.228995 286.897314 
L 175.318031 286.897314 
L 175.338435 286.610488 
L 175.886437 286.610488 
L 175.886437 286.467075 
L 177.39158 286.467075 
L 177.39158 286.323662 
L 179.376915 286.323662 
L 179.376915 286.180249 
L 179.510667 286.180249 
L 179.61151 285.893423 
L 179.794886 285.893423 
L 179.810673 285.606598 
L 179.959153 285.606598 
L 179.959153 285.319772 
L 180.076879 285.319772 
L 180.076879 285.176359 
L 180.42993 285.176359 
L 180.42993 284.889533 
L 182.940322 284.889533 
L 182.940322 284.74612 
L 183.354065 284.74612 
L 183.354065 284.602707 
L 183.714755 284.602707 
L 183.714755 284.459294 
L 183.8736 284.459294 
L 183.8736 284.315881 
L 185.616067 284.315881 
L 185.616067 284.172468 
L 185.827993 284.172468 
L 185.827993 284.029055 
L 186.211508 284.029055 
L 186.211508 283.885642 
L 186.448204 283.885642 
L 186.501505 283.598817 
L 186.635916 283.598817 
L 186.635916 283.455404 
L 188.242101 283.455404 
L 188.242101 283.311991 
L 188.66553 283.311991 
L 188.750319 283.025165 
L 188.843631 283.025165 
L 188.843631 282.881752 
L 189.001309 282.881752 
L 189.001309 282.738339 
L 189.11783 282.738339 
L 189.11783 282.594926 
L 190.966065 282.594926 
L 190.966065 282.451513 
L 191.290131 282.451513 
L 191.290131 282.164687 
L 192.912045 282.164687 
L 192.912045 282.021274 
L 193.129544 282.021274 
L 193.129544 281.877861 
L 194.334568 281.877861 
L 194.334568 281.734448 
L 194.946358 281.734448 
L 195.029959 281.447623 
L 196.24705 281.447623 
L 196.335976 281.160797 
L 196.604885 281.160797 
L 196.604885 281.017384 
L 199.111381 281.017384 
L 199.111381 280.730558 
L 202.863879 280.730558 
L 202.863879 280.587145 
L 204.651723 280.587145 
L 204.651723 280.443732 
L 205.460289 280.443732 
L 205.460289 280.300319 
L 206.632779 280.300319 
L 206.632779 280.156906 
L 207.298317 280.156906 
L 207.298317 280.013493 
L 210.264481 280.013493 
L 210.281811 279.726667 
L 211.03359 279.726667 
L 211.03359 279.583255 
L 213.418859 279.583255 
L 213.418859 279.439842 
L 215.171045 279.439842 
L 215.171045 279.296429 
L 215.576561 279.296429 
L 215.576561 279.153016 
L 217.133651 279.153016 
L 217.133651 279.009603 
L 222.584788 279.009603 
L 222.584788 278.86619 
L 338.688 278.86619 
L 338.688 278.86619 
" style="fill:none;stroke:#ff0000;stroke-linecap:square;stroke-width:1.5;"/>
   </g>
   <g id="line2d_54">
    <defs>
     <path d="M 0 -6 
L -5.196152 -3 
L -5.196152 3 
L -0 6 
L 5.196152 3 
L 5.196152 -3 
z
" id="m73e16a7997" style="stroke:#ff0000;stroke-linejoin:miter;stroke-width:1.5;"/>
    </defs>
    <g>
     <use style="fill-opacity:0;stroke:#ff0000;stroke-linejoin:miter;stroke-width:1.5;" x="177.39158" xlink:href="#m73e16a7997" y="286.467075"/>
     <use style="fill-opacity:0;stroke:#ff0000;stroke-linejoin:miter;stroke-width:1.5;" x="222.584788" xlink:href="#m73e16a7997" y="279.009603"/>
     <use style="fill-opacity:0;stroke:#ff0000;stroke-linejoin:miter;stroke-width:1.5;" x="222.584788" xlink:href="#m73e16a7997" y="278.86619"/>
     <use style="fill-opacity:0;stroke:#ff0000;stroke-linejoin:miter;stroke-width:1.5;" x="222.584788" xlink:href="#m73e16a7997" y="278.86619"/>
     <use style="fill-opacity:0;stroke:#ff0000;stroke-linejoin:miter;stroke-width:1.5;" x="338.688" xlink:href="#m73e16a7997" y="278.86619"/>
    </g>
   </g>
   <g id="line2d_55">
    <path style="fill:none;stroke:#ff0000;stroke-linecap:square;stroke-width:1.5;"/>
    <g/>
   </g>
   <g id="line2d_56">
    <path clip-path="url(#pd5c11b564f)" d="M 153.890309 291.773354 
" style="fill:none;stroke:#ff0000;stroke-linecap:square;stroke-width:1.5;"/>
    <defs>
     <path d="M -12 12 
L 12 -12 
M -12 -12 
L 12 12 
" id="m8d83d197ed" style="stroke:#ff0000;"/>
    </defs>
    <g clip-path="url(#pd5c11b564f)">
     <use style="fill:#ff0000;stroke:#ff0000;" x="153.890309" xlink:href="#m8d83d197ed" y="291.773354"/>
    </g>
   </g>
   <g id="line2d_57">
    <path d="M 338.688 298.944 
L 369.60768 293.092752 
" style="fill:none;stroke:#000080;stroke-linecap:square;stroke-width:1.5;"/>
    <g>
     <use style="fill-opacity:0;stroke:#000080;stroke-width:1.5;" x="338.688" xlink:href="#m452ce4f9dd" y="298.944"/>
     <use style="fill-opacity:0;stroke:#000080;stroke-width:1.5;" x="369.60768" xlink:href="#m452ce4f9dd" y="293.092752"/>
    </g>
   </g>
   <g id="line2d_58">
    <path d="M 338.688 278.86619 
L 369.60768 236.920776 
" style="fill:none;stroke:#ff0000;stroke-linecap:square;stroke-width:1.5;"/>
    <g>
     <use style="fill-opacity:0;stroke:#ff0000;stroke-linejoin:miter;stroke-width:1.5;" x="338.688" xlink:href="#m73e16a7997" y="278.86619"/>
     <use style="fill-opacity:0;stroke:#ff0000;stroke-linejoin:miter;stroke-width:1.5;" x="369.60768" xlink:href="#m73e16a7997" y="236.920776"/>
    </g>
   </g>
   <g id="line2d_59">
    <path d="M 338.688 271.695543 
L 369.60768 180.7488 
" style="fill:none;stroke:#ff7500;stroke-linecap:square;stroke-width:1.5;"/>
    <g>
     <use style="fill-opacity:0;stroke:#ff7500;stroke-linejoin:bevel;stroke-width:1.5;" x="338.688" xlink:href="#m23ddf79c35" y="271.695543"/>
     <use style="fill-opacity:0;stroke:#ff7500;stroke-linejoin:bevel;stroke-width:1.5;" x="369.60768" xlink:href="#m23ddf79c35" y="180.7488"/>
    </g>
   </g>
   <g id="line2d_60">
    <path d="M 338.688 261.656638 
L 369.60768 124.576824 
" style="fill:none;stroke:#6495ed;stroke-linecap:square;stroke-width:1.5;"/>
    <g>
     <use style="fill-opacity:0;stroke:#6495ed;stroke-linejoin:miter;stroke-width:1.5;" x="338.688" xlink:href="#m98c769db9e" y="261.656638"/>
     <use style="fill-opacity:0;stroke:#6495ed;stroke-linejoin:miter;stroke-width:1.5;" x="369.60768" xlink:href="#m98c769db9e" y="124.576824"/>
    </g>
   </g>
   <g id="line2d_61">
    <path d="M 338.688 232.974052 
L 369.60768 68.404848 
" style="fill:none;stroke:#ff00ff;stroke-linecap:square;stroke-width:1.5;"/>
    <g>
     <use style="fill-opacity:0;stroke:#ff00ff;stroke-linejoin:miter;stroke-width:1.5;" x="338.688" xlink:href="#m52af2f3520" y="232.974052"/>
     <use style="fill-opacity:0;stroke:#ff00ff;stroke-linejoin:miter;stroke-width:1.5;" x="369.60768" xlink:href="#m52af2f3520" y="68.404848"/>
    </g>
   </g>
   <g id="line2d_62">
    <path d="M 338.688 298.944 
L 338.688 6.381624 
" style="fill:none;stroke:#000000;stroke-linecap:square;stroke-width:1.5;"/>
   </g>
   <g id="patch_3">
    <path d="M 57.6 298.944 
L 57.6 3.456 
" style="fill:none;stroke:#000000;stroke-linecap:square;stroke-linejoin:miter;stroke-width:0.8;"/>
   </g>
   <g id="patch_4">
    <path d="M 338.688 298.944 
L 338.688 3.456 
" style="fill:none;stroke:#000000;stroke-linecap:square;stroke-linejoin:miter;stroke-width:0.8;"/>
   </g>
   <g id="patch_5">
    <path d="M 57.6 298.944 
L 338.688 298.944 
" style="fill:none;stroke:#000000;stroke-linecap:square;stroke-linejoin:miter;stroke-width:0.8;"/>
   </g>
   <g id="patch_6">
    <path d="M 57.6 3.456 
L 338.688 3.456 
" style="fill:none;stroke:#000000;stroke-linecap:square;stroke-linejoin:miter;stroke-width:0.8;"/>
   </g>
   <g id="text_13">
    <!-- ABC -->
    <defs>
     <path d="M 34.1875 63.1875 
L 20.796875 26.90625 
L 47.609375 26.90625 
z
M 28.609375 72.90625 
L 39.796875 72.90625 
L 67.578125 0 
L 57.328125 0 
L 50.6875 18.703125 
L 17.828125 18.703125 
L 11.1875 0 
L 0.78125 0 
z
" id="DejaVuSans-65"/>
     <path d="M 19.671875 34.8125 
L 19.671875 8.109375 
L 35.5 8.109375 
Q 43.453125 8.109375 47.28125 11.40625 
Q 51.125 14.703125 51.125 21.484375 
Q 51.125 28.328125 47.28125 31.5625 
Q 43.453125 34.8125 35.5 34.8125 
z
M 19.671875 64.796875 
L 19.671875 42.828125 
L 34.28125 42.828125 
Q 41.5 42.828125 45.03125 45.53125 
Q 48.578125 48.25 48.578125 53.8125 
Q 48.578125 59.328125 45.03125 62.0625 
Q 41.5 64.796875 34.28125 64.796875 
z
M 9.8125 72.90625 
L 35.015625 72.90625 
Q 46.296875 72.90625 52.390625 68.21875 
Q 58.5 63.53125 58.5 54.890625 
Q 58.5 48.1875 55.375 44.234375 
Q 52.25 40.28125 46.1875 39.3125 
Q 53.46875 37.75 57.5 32.78125 
Q 61.53125 27.828125 61.53125 20.40625 
Q 61.53125 10.640625 54.890625 5.3125 
Q 48.25 0 35.984375 0 
L 9.8125 0 
z
" id="DejaVuSans-66"/>
     <path d="M 64.40625 67.28125 
L 64.40625 56.890625 
Q 59.421875 61.53125 53.78125 63.8125 
Q 48.140625 66.109375 41.796875 66.109375 
Q 29.296875 66.109375 22.65625 58.46875 
Q 16.015625 50.828125 16.015625 36.375 
Q 16.015625 21.96875 22.65625 14.328125 
Q 29.296875 6.6875 41.796875 6.6875 
Q 48.140625 6.6875 53.78125 8.984375 
Q 59.421875 11.28125 64.40625 15.921875 
L 64.40625 5.609375 
Q 59.234375 2.09375 53.4375 0.328125 
Q 47.65625 -1.421875 41.21875 -1.421875 
Q 24.65625 -1.421875 15.125 8.703125 
Q 5.609375 18.84375 5.609375 36.375 
Q 5.609375 53.953125 15.125 64.078125 
Q 24.65625 74.21875 41.21875 74.21875 
Q 47.75 74.21875 53.53125 72.484375 
Q 59.328125 70.75 64.40625 67.28125 
z
" id="DejaVuSans-67"/>
    </defs>
    <g transform="translate(375.22944 297.78369)scale(0.17 -0.17)">
     <use xlink:href="#DejaVuSans-65"/>
     <use x="68.408203" xlink:href="#DejaVuSans-66"/>
     <use x="135.261719" xlink:href="#DejaVuSans-67"/>
    </g>
   </g>
   <g id="text_14">
    <!-- PSO -->
    <defs>
     <path d="M 19.671875 64.796875 
L 19.671875 37.40625 
L 32.078125 37.40625 
Q 38.96875 37.40625 42.71875 40.96875 
Q 46.484375 44.53125 46.484375 51.125 
Q 46.484375 57.671875 42.71875 61.234375 
Q 38.96875 64.796875 32.078125 64.796875 
z
M 9.8125 72.90625 
L 32.078125 72.90625 
Q 44.34375 72.90625 50.609375 67.359375 
Q 56.890625 61.8125 56.890625 51.125 
Q 56.890625 40.328125 50.609375 34.8125 
Q 44.34375 29.296875 32.078125 29.296875 
L 19.671875 29.296875 
L 19.671875 0 
L 9.8125 0 
z
" id="DejaVuSans-80"/>
     <path d="M 53.515625 70.515625 
L 53.515625 60.890625 
Q 47.90625 63.578125 42.921875 64.890625 
Q 37.9375 66.21875 33.296875 66.21875 
Q 25.25 66.21875 20.875 63.09375 
Q 16.5 59.96875 16.5 54.203125 
Q 16.5 49.359375 19.40625 46.890625 
Q 22.3125 44.4375 30.421875 42.921875 
L 36.375 41.703125 
Q 47.40625 39.59375 52.65625 34.296875 
Q 57.90625 29 57.90625 20.125 
Q 57.90625 9.515625 50.796875 4.046875 
Q 43.703125 -1.421875 29.984375 -1.421875 
Q 24.8125 -1.421875 18.96875 -0.25 
Q 13.140625 0.921875 6.890625 3.21875 
L 6.890625 13.375 
Q 12.890625 10.015625 18.65625 8.296875 
Q 24.421875 6.59375 29.984375 6.59375 
Q 38.421875 6.59375 43.015625 9.90625 
Q 47.609375 13.234375 47.609375 19.390625 
Q 47.609375 24.75 44.3125 27.78125 
Q 41.015625 30.8125 33.5 32.328125 
L 27.484375 33.5 
Q 16.453125 35.6875 11.515625 40.375 
Q 6.59375 45.0625 6.59375 53.421875 
Q 6.59375 63.09375 13.40625 68.65625 
Q 20.21875 74.21875 32.171875 74.21875 
Q 37.3125 74.21875 42.625 73.28125 
Q 47.953125 72.359375 53.515625 70.515625 
z
" id="DejaVuSans-83"/>
     <path d="M 39.40625 66.21875 
Q 28.65625 66.21875 22.328125 58.203125 
Q 16.015625 50.203125 16.015625 36.375 
Q 16.015625 22.609375 22.328125 14.59375 
Q 28.65625 6.59375 39.40625 6.59375 
Q 50.140625 6.59375 56.421875 14.59375 
Q 62.703125 22.609375 62.703125 36.375 
Q 62.703125 50.203125 56.421875 58.203125 
Q 50.140625 66.21875 39.40625 66.21875 
z
M 39.40625 74.21875 
Q 54.734375 74.21875 63.90625 63.9375 
Q 73.09375 53.65625 73.09375 36.375 
Q 73.09375 19.140625 63.90625 8.859375 
Q 54.734375 -1.421875 39.40625 -1.421875 
Q 24.03125 -1.421875 14.8125 8.828125 
Q 5.609375 19.09375 5.609375 36.375 
Q 5.609375 53.65625 14.8125 63.9375 
Q 24.03125 74.21875 39.40625 74.21875 
z
" id="DejaVuSans-79"/>
    </defs>
    <g transform="translate(375.22944 241.611714)scale(0.17 -0.17)">
     <use xlink:href="#DejaVuSans-80"/>
     <use x="60.302734" xlink:href="#DejaVuSans-83"/>
     <use x="123.779297" xlink:href="#DejaVuSans-79"/>
    </g>
   </g>
   <g id="text_15">
    <!-- DE -->
    <defs>
     <path d="M 19.671875 64.796875 
L 19.671875 8.109375 
L 31.59375 8.109375 
Q 46.6875 8.109375 53.6875 14.9375 
Q 60.6875 21.78125 60.6875 36.53125 
Q 60.6875 51.171875 53.6875 57.984375 
Q 46.6875 64.796875 31.59375 64.796875 
z
M 9.8125 72.90625 
L 30.078125 72.90625 
Q 51.265625 72.90625 61.171875 64.09375 
Q 71.09375 55.28125 71.09375 36.53125 
Q 71.09375 17.671875 61.125 8.828125 
Q 51.171875 0 30.078125 0 
L 9.8125 0 
z
" id="DejaVuSans-68"/>
     <path d="M 9.8125 72.90625 
L 55.90625 72.90625 
L 55.90625 64.59375 
L 19.671875 64.59375 
L 19.671875 43.015625 
L 54.390625 43.015625 
L 54.390625 34.71875 
L 19.671875 34.71875 
L 19.671875 8.296875 
L 56.78125 8.296875 
L 56.78125 0 
L 9.8125 0 
z
" id="DejaVuSans-69"/>
    </defs>
    <g transform="translate(375.22944 185.439737)scale(0.17 -0.17)">
     <use xlink:href="#DejaVuSans-68"/>
     <use x="77.001953" xlink:href="#DejaVuSans-69"/>
    </g>
   </g>
   <g id="text_16">
    <!-- DEPSO -->
    <g transform="translate(375.22944 129.267761)scale(0.17 -0.17)">
     <use xlink:href="#DejaVuSans-68"/>
     <use x="77.001953" xlink:href="#DejaVuSans-69"/>
     <use x="140.185547" xlink:href="#DejaVuSans-80"/>
     <use x="200.488281" xlink:href="#DejaVuSans-83"/>
     <use x="263.964844" xlink:href="#DejaVuSans-79"/>
    </g>
   </g>
   <g id="text_17">
    <!-- CMA-ES -->
    <defs>
     <path d="M 9.8125 72.90625 
L 24.515625 72.90625 
L 43.109375 23.296875 
L 61.8125 72.90625 
L 76.515625 72.90625 
L 76.515625 0 
L 66.890625 0 
L 66.890625 64.015625 
L 48.09375 14.015625 
L 38.1875 14.015625 
L 19.390625 64.015625 
L 19.390625 0 
L 9.8125 0 
z
" id="DejaVuSans-77"/>
    </defs>
    <g transform="translate(375.22944 73.095785)scale(0.17 -0.17)">
     <use xlink:href="#DejaVuSans-67"/>
     <use x="69.824219" xlink:href="#DejaVuSans-77"/>
     <use x="156.103516" xlink:href="#DejaVuSans-65"/>
     <use x="222.261719" xlink:href="#DejaVuSans-45"/>
     <use x="258.345703" xlink:href="#DejaVuSans-69"/>
     <use x="321.529297" xlink:href="#DejaVuSans-83"/>
    </g>
   </g>
   <g id="text_18">
    <!-- best 2009 -->
    <defs>
     <path d="M 48.6875 27.296875 
Q 48.6875 37.203125 44.609375 42.84375 
Q 40.53125 48.484375 33.40625 48.484375 
Q 26.265625 48.484375 22.1875 42.84375 
Q 18.109375 37.203125 18.109375 27.296875 
Q 18.109375 17.390625 22.1875 11.75 
Q 26.265625 6.109375 33.40625 6.109375 
Q 40.53125 6.109375 44.609375 11.75 
Q 48.6875 17.390625 48.6875 27.296875 
z
M 18.109375 46.390625 
Q 20.953125 51.265625 25.265625 53.625 
Q 29.59375 56 35.59375 56 
Q 45.5625 56 51.78125 48.09375 
Q 58.015625 40.1875 58.015625 27.296875 
Q 58.015625 14.40625 51.78125 6.484375 
Q 45.5625 -1.421875 35.59375 -1.421875 
Q 29.59375 -1.421875 25.265625 0.953125 
Q 20.953125 3.328125 18.109375 8.203125 
L 18.109375 0 
L 9.078125 0 
L 9.078125 75.984375 
L 18.109375 75.984375 
z
" id="DejaVuSans-98"/>
     <path d="M 10.984375 1.515625 
L 10.984375 10.5 
Q 14.703125 8.734375 18.5 7.8125 
Q 22.3125 6.890625 25.984375 6.890625 
Q 35.75 6.890625 40.890625 13.453125 
Q 46.046875 20.015625 46.78125 33.40625 
Q 43.953125 29.203125 39.59375 26.953125 
Q 35.25 24.703125 29.984375 24.703125 
Q 19.046875 24.703125 12.671875 31.3125 
Q 6.296875 37.9375 6.296875 49.421875 
Q 6.296875 60.640625 12.9375 67.421875 
Q 19.578125 74.21875 30.609375 74.21875 
Q 43.265625 74.21875 49.921875 64.515625 
Q 56.59375 54.828125 56.59375 36.375 
Q 56.59375 19.140625 48.40625 8.859375 
Q 40.234375 -1.421875 26.421875 -1.421875 
Q 22.703125 -1.421875 18.890625 -0.6875 
Q 15.09375 0.046875 10.984375 1.515625 
z
M 30.609375 32.421875 
Q 37.25 32.421875 41.125 36.953125 
Q 45.015625 41.5 45.015625 49.421875 
Q 45.015625 57.28125 41.125 61.84375 
Q 37.25 66.40625 30.609375 66.40625 
Q 23.96875 66.40625 20.09375 61.84375 
Q 16.21875 57.28125 16.21875 49.421875 
Q 16.21875 41.5 20.09375 36.953125 
Q 23.96875 32.421875 30.609375 32.421875 
z
" id="DejaVuSans-57"/>
    </defs>
    <g transform="translate(375.22944 16.923809)scale(0.17 -0.17)">
     <use xlink:href="#DejaVuSans-98"/>
     <use x="63.476562" xlink:href="#DejaVuSans-101"/>
     <use x="125" xlink:href="#DejaVuSans-115"/>
     <use x="177.099609" xlink:href="#DejaVuSans-116"/>
     <use x="216.308594" xlink:href="#DejaVuSans-32"/>
     <use x="248.095703" xlink:href="#DejaVuSans-50"/>
     <use x="311.71875" xlink:href="#DejaVuSans-48"/>
     <use x="375.341797" xlink:href="#DejaVuSans-48"/>
     <use x="438.964844" xlink:href="#DejaVuSans-57"/>
    </g>
   </g>
   <g id="text_19">
    <!-- bbob f6-f9, 20-D -->
    <g transform="translate(60.41088 14.161286)scale(0.102 -0.102)">
     <use xlink:href="#DejaVuSans-98"/>
     <use x="63.476562" xlink:href="#DejaVuSans-98"/>
     <use x="126.953125" xlink:href="#DejaVuSans-111"/>
     <use x="188.134766" xlink:href="#DejaVuSans-98"/>
     <use x="251.611328" xlink:href="#DejaVuSans-32"/>
     <use x="283.398438" xlink:href="#DejaVuSans-102"/>
     <use x="318.603516" xlink:href="#DejaVuSans-54"/>
     <use x="382.226562" xlink:href="#DejaVuSans-45"/>
     <use x="418.310547" xlink:href="#DejaVuSans-102"/>
     <use x="453.515625" xlink:href="#DejaVuSans-57"/>
     <use x="517.138672" xlink:href="#DejaVuSans-44"/>
     <use x="548.925781" xlink:href="#DejaVuSans-32"/>
     <use x="580.712891" xlink:href="#DejaVuSans-50"/>
     <use x="644.335938" xlink:href="#DejaVuSans-48"/>
     <use x="707.958984" xlink:href="#DejaVuSans-45"/>
     <use x="744.042969" xlink:href="#DejaVuSans-68"/>
    </g>
    <!-- 51 targets: 100..1e-08 -->
    <defs>
     <path d="M 10.796875 72.90625 
L 49.515625 72.90625 
L 49.515625 64.59375 
L 19.828125 64.59375 
L 19.828125 46.734375 
Q 21.96875 47.46875 24.109375 47.828125 
Q 26.265625 48.1875 28.421875 48.1875 
Q 40.625 48.1875 47.75 41.5 
Q 54.890625 34.8125 54.890625 23.390625 
Q 54.890625 11.625 47.5625 5.09375 
Q 40.234375 -1.421875 26.90625 -1.421875 
Q 22.3125 -1.421875 17.546875 -0.640625 
Q 12.796875 0.140625 7.71875 1.703125 
L 7.71875 11.625 
Q 12.109375 9.234375 16.796875 8.0625 
Q 21.484375 6.890625 26.703125 6.890625 
Q 35.15625 6.890625 40.078125 11.328125 
Q 45.015625 15.765625 45.015625 23.390625 
Q 45.015625 31 40.078125 35.4375 
Q 35.15625 39.890625 26.703125 39.890625 
Q 22.75 39.890625 18.8125 39.015625 
Q 14.890625 38.140625 10.796875 36.28125 
z
" id="DejaVuSans-53"/>
     <path d="M 11.71875 12.40625 
L 22.015625 12.40625 
L 22.015625 0 
L 11.71875 0 
z
M 11.71875 51.703125 
L 22.015625 51.703125 
L 22.015625 39.3125 
L 11.71875 39.3125 
z
" id="DejaVuSans-58"/>
    </defs>
    <g transform="translate(60.41088 25.583055)scale(0.102 -0.102)">
     <use xlink:href="#DejaVuSans-53"/>
     <use x="63.623047" xlink:href="#DejaVuSans-49"/>
     <use x="127.246094" xlink:href="#DejaVuSans-32"/>
     <use x="159.033203" xlink:href="#DejaVuSans-116"/>
     <use x="198.242188" xlink:href="#DejaVuSans-97"/>
     <use x="259.521484" xlink:href="#DejaVuSans-114"/>
     <use x="298.884766" xlink:href="#DejaVuSans-103"/>
     <use x="362.361328" xlink:href="#DejaVuSans-101"/>
     <use x="423.884766" xlink:href="#DejaVuSans-116"/>
     <use x="463.09375" xlink:href="#DejaVuSans-115"/>
     <use x="515.193359" xlink:href="#DejaVuSans-58"/>
     <use x="548.884766" xlink:href="#DejaVuSans-32"/>
     <use x="580.671875" xlink:href="#DejaVuSans-49"/>
     <use x="644.294922" xlink:href="#DejaVuSans-48"/>
     <use x="707.917969" xlink:href="#DejaVuSans-48"/>
     <use x="771.541016" xlink:href="#DejaVuSans-46"/>
     <use x="803.328125" xlink:href="#DejaVuSans-46"/>
     <use x="835.115234" xlink:href="#DejaVuSans-49"/>
     <use x="898.738281" xlink:href="#DejaVuSans-101"/>
     <use x="960.261719" xlink:href="#DejaVuSans-45"/>
     <use x="996.345703" xlink:href="#DejaVuSans-48"/>
     <use x="1059.96875" xlink:href="#DejaVuSans-56"/>
    </g>
    <!-- 24, 15 instances -->
    <g transform="translate(60.41088 37.004824)scale(0.102 -0.102)">
     <use xlink:href="#DejaVuSans-50"/>
     <use x="63.623047" xlink:href="#DejaVuSans-52"/>
     <use x="127.246094" xlink:href="#DejaVuSans-44"/>
     <use x="159.033203" xlink:href="#DejaVuSans-32"/>
     <use x="190.820312" xlink:href="#DejaVuSans-49"/>
     <use x="254.443359" xlink:href="#DejaVuSans-53"/>
     <use x="318.066406" xlink:href="#DejaVuSans-32"/>
     <use x="349.853516" xlink:href="#DejaVuSans-105"/>
     <use x="377.636719" xlink:href="#DejaVuSans-110"/>
     <use x="441.015625" xlink:href="#DejaVuSans-115"/>
     <use x="493.115234" xlink:href="#DejaVuSans-116"/>
     <use x="532.324219" xlink:href="#DejaVuSans-97"/>
     <use x="593.603516" xlink:href="#DejaVuSans-110"/>
     <use x="656.982422" xlink:href="#DejaVuSans-99"/>
     <use x="711.962891" xlink:href="#DejaVuSans-101"/>
     <use x="773.486328" xlink:href="#DejaVuSans-115"/>
    </g>
   </g>
   <g id="text_20">
    <!-- v2.4 -->
    <g style="fill:#808080;" transform="translate(187.233062 293.909432)scale(0.1 -0.1)">
     <use xlink:href="#DejaVuSans-118"/>
     <use x="59.179688" xlink:href="#DejaVuSans-50"/>
     <use x="122.802734" xlink:href="#DejaVuSans-46"/>
     <use x="154.589844" xlink:href="#DejaVuSans-52"/>
    </g>
   </g>
  </g>
 </g>
 <defs>
  <clipPath id="pd5c11b564f">
   <rect height="295.488" width="281.088" x="57.6" y="3.456"/>
  </clipPath>
 </defs>
</svg>
