<?xml version="1.0" encoding="utf-8" standalone="no"?>
<!DOCTYPE svg PUBLIC "-//W3C//DTD SVG 1.1//EN"
  "http://www.w3.org/Graphics/SVG/1.1/DTD/svg11.dtd">
<!-- Created with matplotlib (https://matplotlib.org/) -->
<svg height="345.6pt" version="1.1" viewBox="0 0 460.8 345.6" width="460.8pt" xmlns="http://www.w3.org/2000/svg" xmlns:xlink="http://www.w3.org/1999/xlink">
 <metadata>
  <rdf:RDF xmlns:cc="http://creativecommons.org/ns#" xmlns:dc="http://purl.org/dc/elements/1.1/" xmlns:rdf="http://www.w3.org/1999/02/22-rdf-syntax-ns#">
   <cc:Work>
    <dc:type rdf:resource="http://purl.org/dc/dcmitype/StillImage"/>
    <dc:date>2021-04-25T22:54:24.022530</dc:date>
    <dc:format>image/svg+xml</dc:format>
    <dc:creator>
     <cc:Agent>
      <dc:title>Matplotlib v3.3.2, https://matplotlib.org/</dc:title>
     </cc:Agent>
    </dc:creator>
   </cc:Work>
  </rdf:RDF>
 </metadata>
 <defs>
  <style type="text/css">*{stroke-linecap:butt;stroke-linejoin:round;}</style>
 </defs>
 <g id="figure_1">
  <g id="patch_1">
   <path d="M 0 345.6 
L 460.8 345.6 
L 460.8 0 
L 0 0 
z
" style="fill:#ffffff;"/>
  </g>
  <g id="axes_1">
   <g id="patch_2">
    <path d="M 34.16 291.28 
L 453.192 291.28 
L 453.192 3 
L 34.16 3 
z
" style="fill:#ffffff;"/>
   </g>
   <g id="matplotlib.axis_1">
    <g id="xtick_1">
     <g id="line2d_1">
      <path clip-path="url(#p792ff047b2)" d="M 97.811322 291.28 
L 97.811322 3 
" style="fill:none;stroke:#b0b0b0;stroke-linecap:square;stroke-width:0.8;"/>
     </g>
     <g id="line2d_2">
      <defs>
       <path d="M 0 0 
L 0 3.5 
" id="m24cabae54f" style="stroke:#000000;stroke-width:0.8;"/>
      </defs>
      <g>
       <use style="stroke:#000000;stroke-width:0.8;" x="97.811322" xlink:href="#m24cabae54f" y="291.28"/>
      </g>
     </g>
     <g id="text_1">
      <!-- -1 -->
      <g transform="translate(87.841009 313.476875)scale(0.2 -0.2)">
       <defs>
        <path d="M 4.890625 31.390625 
L 31.203125 31.390625 
L 31.203125 23.390625 
L 4.890625 23.390625 
z
" id="DejaVuSans-45"/>
        <path d="M 12.40625 8.296875 
L 28.515625 8.296875 
L 28.515625 63.921875 
L 10.984375 60.40625 
L 10.984375 69.390625 
L 28.421875 72.90625 
L 38.28125 72.90625 
L 38.28125 8.296875 
L 54.390625 8.296875 
L 54.390625 0 
L 12.40625 0 
z
" id="DejaVuSans-49"/>
       </defs>
       <use xlink:href="#DejaVuSans-45"/>
       <use x="36.083984" xlink:href="#DejaVuSans-49"/>
      </g>
     </g>
    </g>
    <g id="xtick_2">
     <g id="line2d_3">
      <path clip-path="url(#p792ff047b2)" d="M 243.676 291.28 
L 243.676 3 
" style="fill:none;stroke:#b0b0b0;stroke-linecap:square;stroke-width:0.8;"/>
     </g>
     <g id="line2d_4">
      <g>
       <use style="stroke:#000000;stroke-width:0.8;" x="243.676" xlink:href="#m24cabae54f" y="291.28"/>
      </g>
     </g>
     <g id="text_2">
      <!-- 0 -->
      <g transform="translate(237.3135 313.476875)scale(0.2 -0.2)">
       <defs>
        <path d="M 31.78125 66.40625 
Q 24.171875 66.40625 20.328125 58.90625 
Q 16.5 51.421875 16.5 36.375 
Q 16.5 21.390625 20.328125 13.890625 
Q 24.171875 6.390625 31.78125 6.390625 
Q 39.453125 6.390625 43.28125 13.890625 
Q 47.125 21.390625 47.125 36.375 
Q 47.125 51.421875 43.28125 58.90625 
Q 39.453125 66.40625 31.78125 66.40625 
z
M 31.78125 74.21875 
Q 44.046875 74.21875 50.515625 64.515625 
Q 56.984375 54.828125 56.984375 36.375 
Q 56.984375 17.96875 50.515625 8.265625 
Q 44.046875 -1.421875 31.78125 -1.421875 
Q 19.53125 -1.421875 13.0625 8.265625 
Q 6.59375 17.96875 6.59375 36.375 
Q 6.59375 54.828125 13.0625 64.515625 
Q 19.53125 74.21875 31.78125 74.21875 
z
" id="DejaVuSans-48"/>
       </defs>
       <use xlink:href="#DejaVuSans-48"/>
      </g>
     </g>
    </g>
    <g id="xtick_3">
     <g id="line2d_5">
      <path clip-path="url(#p792ff047b2)" d="M 389.540678 291.28 
L 389.540678 3 
" style="fill:none;stroke:#b0b0b0;stroke-linecap:square;stroke-width:0.8;"/>
     </g>
     <g id="line2d_6">
      <g>
       <use style="stroke:#000000;stroke-width:0.8;" x="389.540678" xlink:href="#m24cabae54f" y="291.28"/>
      </g>
     </g>
     <g id="text_3">
      <!-- 1 -->
      <g transform="translate(383.178178 313.476875)scale(0.2 -0.2)">
       <use xlink:href="#DejaVuSans-49"/>
      </g>
     </g>
    </g>
    <g id="xtick_4">
     <g id="line2d_7">
      <defs>
       <path d="M 0 0 
L 0 2 
" id="m3122295682" style="stroke:#000000;stroke-width:0.6;"/>
      </defs>
      <g>
       <use style="stroke:#000000;stroke-width:0.6;" x="39.765931" xlink:href="#m3122295682" y="291.28"/>
      </g>
     </g>
    </g>
    <g id="xtick_5">
     <g id="line2d_8">
      <g>
       <use style="stroke:#000000;stroke-width:0.6;" x="53.901679" xlink:href="#m3122295682" y="291.28"/>
      </g>
     </g>
    </g>
    <g id="xtick_6">
     <g id="line2d_9">
      <g>
       <use style="stroke:#000000;stroke-width:0.6;" x="65.451426" xlink:href="#m3122295682" y="291.28"/>
      </g>
     </g>
    </g>
    <g id="xtick_7">
     <g id="line2d_10">
      <g>
       <use style="stroke:#000000;stroke-width:0.6;" x="75.216597" xlink:href="#m3122295682" y="291.28"/>
      </g>
     </g>
    </g>
    <g id="xtick_8">
     <g id="line2d_11">
      <g>
       <use style="stroke:#000000;stroke-width:0.6;" x="83.675574" xlink:href="#m3122295682" y="291.28"/>
      </g>
     </g>
    </g>
    <g id="xtick_9">
     <g id="line2d_12">
      <g>
       <use style="stroke:#000000;stroke-width:0.6;" x="91.13692" xlink:href="#m3122295682" y="291.28"/>
      </g>
     </g>
    </g>
    <g id="xtick_10">
     <g id="line2d_13">
      <g>
       <use style="stroke:#000000;stroke-width:0.6;" x="141.720965" xlink:href="#m3122295682" y="291.28"/>
      </g>
     </g>
    </g>
    <g id="xtick_11">
     <g id="line2d_14">
      <g>
       <use style="stroke:#000000;stroke-width:0.6;" x="167.40646" xlink:href="#m3122295682" y="291.28"/>
      </g>
     </g>
    </g>
    <g id="xtick_12">
     <g id="line2d_15">
      <g>
       <use style="stroke:#000000;stroke-width:0.6;" x="185.630609" xlink:href="#m3122295682" y="291.28"/>
      </g>
     </g>
    </g>
    <g id="xtick_13">
     <g id="line2d_16">
      <g>
       <use style="stroke:#000000;stroke-width:0.6;" x="199.766357" xlink:href="#m3122295682" y="291.28"/>
      </g>
     </g>
    </g>
    <g id="xtick_14">
     <g id="line2d_17">
      <g>
       <use style="stroke:#000000;stroke-width:0.6;" x="211.316104" xlink:href="#m3122295682" y="291.28"/>
      </g>
     </g>
    </g>
    <g id="xtick_15">
     <g id="line2d_18">
      <g>
       <use style="stroke:#000000;stroke-width:0.6;" x="221.081275" xlink:href="#m3122295682" y="291.28"/>
      </g>
     </g>
    </g>
    <g id="xtick_16">
     <g id="line2d_19">
      <g>
       <use style="stroke:#000000;stroke-width:0.6;" x="229.540252" xlink:href="#m3122295682" y="291.28"/>
      </g>
     </g>
    </g>
    <g id="xtick_17">
     <g id="line2d_20">
      <g>
       <use style="stroke:#000000;stroke-width:0.6;" x="237.001598" xlink:href="#m3122295682" y="291.28"/>
      </g>
     </g>
    </g>
    <g id="xtick_18">
     <g id="line2d_21">
      <g>
       <use style="stroke:#000000;stroke-width:0.6;" x="287.585643" xlink:href="#m3122295682" y="291.28"/>
      </g>
     </g>
    </g>
    <g id="xtick_19">
     <g id="line2d_22">
      <g>
       <use style="stroke:#000000;stroke-width:0.6;" x="313.271138" xlink:href="#m3122295682" y="291.28"/>
      </g>
     </g>
    </g>
    <g id="xtick_20">
     <g id="line2d_23">
      <g>
       <use style="stroke:#000000;stroke-width:0.6;" x="331.495287" xlink:href="#m3122295682" y="291.28"/>
      </g>
     </g>
    </g>
    <g id="xtick_21">
     <g id="line2d_24">
      <g>
       <use style="stroke:#000000;stroke-width:0.6;" x="345.631035" xlink:href="#m3122295682" y="291.28"/>
      </g>
     </g>
    </g>
    <g id="xtick_22">
     <g id="line2d_25">
      <g>
       <use style="stroke:#000000;stroke-width:0.6;" x="357.180782" xlink:href="#m3122295682" y="291.28"/>
      </g>
     </g>
    </g>
    <g id="xtick_23">
     <g id="line2d_26">
      <g>
       <use style="stroke:#000000;stroke-width:0.6;" x="366.945954" xlink:href="#m3122295682" y="291.28"/>
      </g>
     </g>
    </g>
    <g id="xtick_24">
     <g id="line2d_27">
      <g>
       <use style="stroke:#000000;stroke-width:0.6;" x="375.40493" xlink:href="#m3122295682" y="291.28"/>
      </g>
     </g>
    </g>
    <g id="xtick_25">
     <g id="line2d_28">
      <g>
       <use style="stroke:#000000;stroke-width:0.6;" x="382.866276" xlink:href="#m3122295682" y="291.28"/>
      </g>
     </g>
    </g>
    <g id="xtick_26">
     <g id="line2d_29">
      <g>
       <use style="stroke:#000000;stroke-width:0.6;" x="433.450321" xlink:href="#m3122295682" y="291.28"/>
      </g>
     </g>
    </g>
    <g id="text_4">
     <!-- log10 of FEvals ratio -->
     <g transform="translate(141.371312 336.833125)scale(0.2 -0.2)">
      <defs>
       <path d="M 9.421875 75.984375 
L 18.40625 75.984375 
L 18.40625 0 
L 9.421875 0 
z
" id="DejaVuSans-108"/>
       <path d="M 30.609375 48.390625 
Q 23.390625 48.390625 19.1875 42.75 
Q 14.984375 37.109375 14.984375 27.296875 
Q 14.984375 17.484375 19.15625 11.84375 
Q 23.34375 6.203125 30.609375 6.203125 
Q 37.796875 6.203125 41.984375 11.859375 
Q 46.1875 17.53125 46.1875 27.296875 
Q 46.1875 37.015625 41.984375 42.703125 
Q 37.796875 48.390625 30.609375 48.390625 
z
M 30.609375 56 
Q 42.328125 56 49.015625 48.375 
Q 55.71875 40.765625 55.71875 27.296875 
Q 55.71875 13.875 49.015625 6.21875 
Q 42.328125 -1.421875 30.609375 -1.421875 
Q 18.84375 -1.421875 12.171875 6.21875 
Q 5.515625 13.875 5.515625 27.296875 
Q 5.515625 40.765625 12.171875 48.375 
Q 18.84375 56 30.609375 56 
z
" id="DejaVuSans-111"/>
       <path d="M 45.40625 27.984375 
Q 45.40625 37.75 41.375 43.109375 
Q 37.359375 48.484375 30.078125 48.484375 
Q 22.859375 48.484375 18.828125 43.109375 
Q 14.796875 37.75 14.796875 27.984375 
Q 14.796875 18.265625 18.828125 12.890625 
Q 22.859375 7.515625 30.078125 7.515625 
Q 37.359375 7.515625 41.375 12.890625 
Q 45.40625 18.265625 45.40625 27.984375 
z
M 54.390625 6.78125 
Q 54.390625 -7.171875 48.1875 -13.984375 
Q 42 -20.796875 29.203125 -20.796875 
Q 24.46875 -20.796875 20.265625 -20.09375 
Q 16.0625 -19.390625 12.109375 -17.921875 
L 12.109375 -9.1875 
Q 16.0625 -11.328125 19.921875 -12.34375 
Q 23.78125 -13.375 27.78125 -13.375 
Q 36.625 -13.375 41.015625 -8.765625 
Q 45.40625 -4.15625 45.40625 5.171875 
L 45.40625 9.625 
Q 42.625 4.78125 38.28125 2.390625 
Q 33.9375 0 27.875 0 
Q 17.828125 0 11.671875 7.65625 
Q 5.515625 15.328125 5.515625 27.984375 
Q 5.515625 40.671875 11.671875 48.328125 
Q 17.828125 56 27.875 56 
Q 33.9375 56 38.28125 53.609375 
Q 42.625 51.21875 45.40625 46.390625 
L 45.40625 54.6875 
L 54.390625 54.6875 
z
" id="DejaVuSans-103"/>
       <path id="DejaVuSans-32"/>
       <path d="M 37.109375 75.984375 
L 37.109375 68.5 
L 28.515625 68.5 
Q 23.6875 68.5 21.796875 66.546875 
Q 19.921875 64.59375 19.921875 59.515625 
L 19.921875 54.6875 
L 34.71875 54.6875 
L 34.71875 47.703125 
L 19.921875 47.703125 
L 19.921875 0 
L 10.890625 0 
L 10.890625 47.703125 
L 2.296875 47.703125 
L 2.296875 54.6875 
L 10.890625 54.6875 
L 10.890625 58.5 
Q 10.890625 67.625 15.140625 71.796875 
Q 19.390625 75.984375 28.609375 75.984375 
z
" id="DejaVuSans-102"/>
       <path d="M 9.8125 72.90625 
L 51.703125 72.90625 
L 51.703125 64.59375 
L 19.671875 64.59375 
L 19.671875 43.109375 
L 48.578125 43.109375 
L 48.578125 34.8125 
L 19.671875 34.8125 
L 19.671875 0 
L 9.8125 0 
z
" id="DejaVuSans-70"/>
       <path d="M 9.8125 72.90625 
L 55.90625 72.90625 
L 55.90625 64.59375 
L 19.671875 64.59375 
L 19.671875 43.015625 
L 54.390625 43.015625 
L 54.390625 34.71875 
L 19.671875 34.71875 
L 19.671875 8.296875 
L 56.78125 8.296875 
L 56.78125 0 
L 9.8125 0 
z
" id="DejaVuSans-69"/>
       <path d="M 2.984375 54.6875 
L 12.5 54.6875 
L 29.59375 8.796875 
L 46.6875 54.6875 
L 56.203125 54.6875 
L 35.6875 0 
L 23.484375 0 
z
" id="DejaVuSans-118"/>
       <path d="M 34.28125 27.484375 
Q 23.390625 27.484375 19.1875 25 
Q 14.984375 22.515625 14.984375 16.5 
Q 14.984375 11.71875 18.140625 8.90625 
Q 21.296875 6.109375 26.703125 6.109375 
Q 34.1875 6.109375 38.703125 11.40625 
Q 43.21875 16.703125 43.21875 25.484375 
L 43.21875 27.484375 
z
M 52.203125 31.203125 
L 52.203125 0 
L 43.21875 0 
L 43.21875 8.296875 
Q 40.140625 3.328125 35.546875 0.953125 
Q 30.953125 -1.421875 24.3125 -1.421875 
Q 15.921875 -1.421875 10.953125 3.296875 
Q 6 8.015625 6 15.921875 
Q 6 25.140625 12.171875 29.828125 
Q 18.359375 34.515625 30.609375 34.515625 
L 43.21875 34.515625 
L 43.21875 35.40625 
Q 43.21875 41.609375 39.140625 45 
Q 35.0625 48.390625 27.6875 48.390625 
Q 23 48.390625 18.546875 47.265625 
Q 14.109375 46.140625 10.015625 43.890625 
L 10.015625 52.203125 
Q 14.9375 54.109375 19.578125 55.046875 
Q 24.21875 56 28.609375 56 
Q 40.484375 56 46.34375 49.84375 
Q 52.203125 43.703125 52.203125 31.203125 
z
" id="DejaVuSans-97"/>
       <path d="M 44.28125 53.078125 
L 44.28125 44.578125 
Q 40.484375 46.53125 36.375 47.5 
Q 32.28125 48.484375 27.875 48.484375 
Q 21.1875 48.484375 17.84375 46.4375 
Q 14.5 44.390625 14.5 40.28125 
Q 14.5 37.15625 16.890625 35.375 
Q 19.28125 33.59375 26.515625 31.984375 
L 29.59375 31.296875 
Q 39.15625 29.25 43.1875 25.515625 
Q 47.21875 21.78125 47.21875 15.09375 
Q 47.21875 7.46875 41.1875 3.015625 
Q 35.15625 -1.421875 24.609375 -1.421875 
Q 20.21875 -1.421875 15.453125 -0.5625 
Q 10.6875 0.296875 5.421875 2 
L 5.421875 11.28125 
Q 10.40625 8.6875 15.234375 7.390625 
Q 20.0625 6.109375 24.8125 6.109375 
Q 31.15625 6.109375 34.5625 8.28125 
Q 37.984375 10.453125 37.984375 14.40625 
Q 37.984375 18.0625 35.515625 20.015625 
Q 33.0625 21.96875 24.703125 23.78125 
L 21.578125 24.515625 
Q 13.234375 26.265625 9.515625 29.90625 
Q 5.8125 33.546875 5.8125 39.890625 
Q 5.8125 47.609375 11.28125 51.796875 
Q 16.75 56 26.8125 56 
Q 31.78125 56 36.171875 55.265625 
Q 40.578125 54.546875 44.28125 53.078125 
z
" id="DejaVuSans-115"/>
       <path d="M 41.109375 46.296875 
Q 39.59375 47.171875 37.8125 47.578125 
Q 36.03125 48 33.890625 48 
Q 26.265625 48 22.1875 43.046875 
Q 18.109375 38.09375 18.109375 28.8125 
L 18.109375 0 
L 9.078125 0 
L 9.078125 54.6875 
L 18.109375 54.6875 
L 18.109375 46.1875 
Q 20.953125 51.171875 25.484375 53.578125 
Q 30.03125 56 36.53125 56 
Q 37.453125 56 38.578125 55.875 
Q 39.703125 55.765625 41.0625 55.515625 
z
" id="DejaVuSans-114"/>
       <path d="M 18.3125 70.21875 
L 18.3125 54.6875 
L 36.8125 54.6875 
L 36.8125 47.703125 
L 18.3125 47.703125 
L 18.3125 18.015625 
Q 18.3125 11.328125 20.140625 9.421875 
Q 21.96875 7.515625 27.59375 7.515625 
L 36.8125 7.515625 
L 36.8125 0 
L 27.59375 0 
Q 17.1875 0 13.234375 3.875 
Q 9.28125 7.765625 9.28125 18.015625 
L 9.28125 47.703125 
L 2.6875 47.703125 
L 2.6875 54.6875 
L 9.28125 54.6875 
L 9.28125 70.21875 
z
" id="DejaVuSans-116"/>
       <path d="M 9.421875 54.6875 
L 18.40625 54.6875 
L 18.40625 0 
L 9.421875 0 
z
M 9.421875 75.984375 
L 18.40625 75.984375 
L 18.40625 64.59375 
L 9.421875 64.59375 
z
" id="DejaVuSans-105"/>
      </defs>
      <use xlink:href="#DejaVuSans-108"/>
      <use x="27.783203" xlink:href="#DejaVuSans-111"/>
      <use x="88.964844" xlink:href="#DejaVuSans-103"/>
      <use x="152.441406" xlink:href="#DejaVuSans-49"/>
      <use x="216.064453" xlink:href="#DejaVuSans-48"/>
      <use x="279.6875" xlink:href="#DejaVuSans-32"/>
      <use x="311.474609" xlink:href="#DejaVuSans-111"/>
      <use x="372.65625" xlink:href="#DejaVuSans-102"/>
      <use x="407.861328" xlink:href="#DejaVuSans-32"/>
      <use x="439.648438" xlink:href="#DejaVuSans-70"/>
      <use x="497.167969" xlink:href="#DejaVuSans-69"/>
      <use x="560.351562" xlink:href="#DejaVuSans-118"/>
      <use x="619.53125" xlink:href="#DejaVuSans-97"/>
      <use x="680.810547" xlink:href="#DejaVuSans-108"/>
      <use x="708.59375" xlink:href="#DejaVuSans-115"/>
      <use x="760.693359" xlink:href="#DejaVuSans-32"/>
      <use x="792.480469" xlink:href="#DejaVuSans-114"/>
      <use x="833.59375" xlink:href="#DejaVuSans-97"/>
      <use x="894.873047" xlink:href="#DejaVuSans-116"/>
      <use x="934.082031" xlink:href="#DejaVuSans-105"/>
      <use x="961.865234" xlink:href="#DejaVuSans-111"/>
     </g>
    </g>
   </g>
   <g id="matplotlib.axis_2">
    <g id="ytick_1">
     <g id="line2d_30">
      <path clip-path="url(#p792ff047b2)" d="M 34.16 288.453725 
L 453.192 288.453725 
" style="fill:none;stroke:#b0b0b0;stroke-linecap:square;stroke-width:0.8;"/>
     </g>
     <g id="line2d_31">
      <defs>
       <path d="M 0 0 
L -3.5 0 
" id="m7127b79942" style="stroke:#000000;stroke-width:0.8;"/>
      </defs>
      <g>
       <use style="stroke:#000000;stroke-width:0.8;" x="34.16" xlink:href="#m7127b79942" y="288.453725"/>
      </g>
     </g>
    </g>
    <g id="ytick_2">
     <g id="line2d_32">
      <path clip-path="url(#p792ff047b2)" d="M 34.16 217.796863 
L 453.192 217.796863 
" style="fill:none;stroke:#b0b0b0;stroke-linecap:square;stroke-width:0.8;"/>
     </g>
     <g id="line2d_33">
      <g>
       <use style="stroke:#000000;stroke-width:0.8;" x="34.16" xlink:href="#m7127b79942" y="217.796863"/>
      </g>
     </g>
    </g>
    <g id="ytick_3">
     <g id="line2d_34">
      <path clip-path="url(#p792ff047b2)" d="M 34.16 147.14 
L 453.192 147.14 
" style="fill:none;stroke:#b0b0b0;stroke-linecap:square;stroke-width:0.8;"/>
     </g>
     <g id="line2d_35">
      <g>
       <use style="stroke:#000000;stroke-width:0.8;" x="34.16" xlink:href="#m7127b79942" y="147.14"/>
      </g>
     </g>
    </g>
    <g id="ytick_4">
     <g id="line2d_36">
      <path clip-path="url(#p792ff047b2)" d="M 34.16 76.483137 
L 453.192 76.483137 
" style="fill:none;stroke:#b0b0b0;stroke-linecap:square;stroke-width:0.8;"/>
     </g>
     <g id="line2d_37">
      <g>
       <use style="stroke:#000000;stroke-width:0.8;" x="34.16" xlink:href="#m7127b79942" y="76.483137"/>
      </g>
     </g>
    </g>
    <g id="ytick_5">
     <g id="line2d_38">
      <path clip-path="url(#p792ff047b2)" d="M 34.16 5.826275 
L 453.192 5.826275 
" style="fill:none;stroke:#b0b0b0;stroke-linecap:square;stroke-width:0.8;"/>
     </g>
     <g id="line2d_39">
      <g>
       <use style="stroke:#000000;stroke-width:0.8;" x="34.16" xlink:href="#m7127b79942" y="5.826275"/>
      </g>
     </g>
    </g>
    <g id="text_5">
     <!-- proportion of trials -->
     <g transform="translate(19.000625 240.14625)rotate(-90)scale(0.2 -0.2)">
      <defs>
       <path d="M 18.109375 8.203125 
L 18.109375 -20.796875 
L 9.078125 -20.796875 
L 9.078125 54.6875 
L 18.109375 54.6875 
L 18.109375 46.390625 
Q 20.953125 51.265625 25.265625 53.625 
Q 29.59375 56 35.59375 56 
Q 45.5625 56 51.78125 48.09375 
Q 58.015625 40.1875 58.015625 27.296875 
Q 58.015625 14.40625 51.78125 6.484375 
Q 45.5625 -1.421875 35.59375 -1.421875 
Q 29.59375 -1.421875 25.265625 0.953125 
Q 20.953125 3.328125 18.109375 8.203125 
z
M 48.6875 27.296875 
Q 48.6875 37.203125 44.609375 42.84375 
Q 40.53125 48.484375 33.40625 48.484375 
Q 26.265625 48.484375 22.1875 42.84375 
Q 18.109375 37.203125 18.109375 27.296875 
Q 18.109375 17.390625 22.1875 11.75 
Q 26.265625 6.109375 33.40625 6.109375 
Q 40.53125 6.109375 44.609375 11.75 
Q 48.6875 17.390625 48.6875 27.296875 
z
" id="DejaVuSans-112"/>
       <path d="M 54.890625 33.015625 
L 54.890625 0 
L 45.90625 0 
L 45.90625 32.71875 
Q 45.90625 40.484375 42.875 44.328125 
Q 39.84375 48.1875 33.796875 48.1875 
Q 26.515625 48.1875 22.3125 43.546875 
Q 18.109375 38.921875 18.109375 30.90625 
L 18.109375 0 
L 9.078125 0 
L 9.078125 54.6875 
L 18.109375 54.6875 
L 18.109375 46.1875 
Q 21.34375 51.125 25.703125 53.5625 
Q 30.078125 56 35.796875 56 
Q 45.21875 56 50.046875 50.171875 
Q 54.890625 44.34375 54.890625 33.015625 
z
" id="DejaVuSans-110"/>
      </defs>
      <use xlink:href="#DejaVuSans-112"/>
      <use x="63.476562" xlink:href="#DejaVuSans-114"/>
      <use x="102.339844" xlink:href="#DejaVuSans-111"/>
      <use x="163.521484" xlink:href="#DejaVuSans-112"/>
      <use x="226.998047" xlink:href="#DejaVuSans-111"/>
      <use x="288.179688" xlink:href="#DejaVuSans-114"/>
      <use x="329.292969" xlink:href="#DejaVuSans-116"/>
      <use x="368.501953" xlink:href="#DejaVuSans-105"/>
      <use x="396.285156" xlink:href="#DejaVuSans-111"/>
      <use x="457.466797" xlink:href="#DejaVuSans-110"/>
      <use x="520.845703" xlink:href="#DejaVuSans-32"/>
      <use x="552.632812" xlink:href="#DejaVuSans-111"/>
      <use x="613.814453" xlink:href="#DejaVuSans-102"/>
      <use x="649.019531" xlink:href="#DejaVuSans-32"/>
      <use x="680.806641" xlink:href="#DejaVuSans-116"/>
      <use x="720.015625" xlink:href="#DejaVuSans-114"/>
      <use x="761.128906" xlink:href="#DejaVuSans-105"/>
      <use x="788.912109" xlink:href="#DejaVuSans-97"/>
      <use x="850.191406" xlink:href="#DejaVuSans-108"/>
      <use x="877.974609" xlink:href="#DejaVuSans-115"/>
     </g>
    </g>
   </g>
   <g id="line2d_40">
    <path clip-path="url(#p792ff047b2)" d="M 34.16 279.03281 
L 89.853801 279.03281 
L 89.853801 278.71878 
L 103.305621 278.71878 
L 103.305621 278.404749 
L 109.045117 278.404749 
L 109.045117 278.090719 
L 116.885795 278.090719 
L 116.885795 277.776688 
L 120.685114 277.776688 
L 120.685114 277.462658 
L 122.496937 277.462658 
L 122.496937 277.148627 
L 125.175668 277.148627 
L 125.175668 276.834597 
L 125.443542 276.834597 
L 125.443542 276.520566 
L 136.077111 276.520566 
L 136.077111 276.206536 
L 138.895362 276.206536 
L 138.908932 275.578475 
L 139.87643 275.578475 
L 139.87643 275.264444 
L 140.946054 275.264444 
L 140.946054 274.950414 
L 142.112005 274.950414 
L 142.112005 274.636383 
L 144.366984 274.636383 
L 144.366984 274.322353 
L 147.641853 274.322353 
L 147.641853 274.008322 
L 150.757492 274.008322 
L 150.757492 273.694292 
L 152.360752 273.694292 
L 152.360752 273.380261 
L 152.475536 273.380261 
L 152.475536 273.066231 
L 156.274855 273.066231 
L 156.274855 272.7522 
L 156.863403 272.7522 
L 156.863403 272.43817 
L 157.519112 272.43817 
L 157.519112 272.124139 
L 157.665752 272.124139 
L 157.665752 271.810109 
L 158.595177 271.810109 
L 158.595177 271.496078 
L 160.13737 271.496078 
L 160.13737 271.182048 
L 160.765408 271.182048 
L 160.765408 270.868017 
L 161.303321 270.868017 
L 161.303321 270.553987 
L 161.994396 270.553987 
L 161.994396 270.239956 
L 162.151783 270.239956 
L 162.151783 269.925926 
L 163.232047 269.925926 
L 163.232047 269.611895 
L 163.344817 269.611895 
L 163.344817 269.297865 
L 164.209312 269.297865 
L 164.209312 268.983834 
L 164.734754 268.983834 
L 164.734754 268.669804 
L 165.940926 268.669804 
L 165.940926 268.355773 
L 166.833169 268.355773 
L 166.833169 268.041743 
L 168.529226 268.041743 
L 168.529226 267.727712 
L 169.740245 267.727712 
L 169.740245 267.413682 
L 170.297754 267.413682 
L 170.297754 267.099651 
L 174.176051 267.099651 
L 174.230798 266.47159 
L 176.535795 266.47159 
L 176.535795 266.15756 
L 176.683867 266.15756 
L 176.683867 265.843529 
L 177.701746 265.843529 
L 177.789486 264.901438 
L 181.456195 264.901438 
L 181.456195 264.587407 
L 181.588805 264.587407 
L 181.588805 264.273377 
L 182.367696 264.273377 
L 182.367696 263.959346 
L 183.231594 263.959346 
L 183.231594 263.645316 
L 183.926069 263.645316 
L 183.93193 263.017255 
L 186.079358 263.017255 
L 186.079358 262.703224 
L 187.955575 262.703224 
L 187.955575 262.389194 
L 189.48907 262.389194 
L 189.48907 262.075163 
L 190.001185 262.075163 
L 190.001185 261.761133 
L 190.264041 261.761133 
L 190.264041 261.447102 
L 191.167136 261.447102 
L 191.167136 261.133072 
L 192.115061 261.133072 
L 192.115061 260.819041 
L 194.06336 260.819041 
L 194.06336 260.505011 
L 194.184918 260.505011 
L 194.184918 260.19098 
L 194.480542 260.19098 
L 194.480542 259.87695 
L 194.908015 259.87695 
L 194.908015 259.562919 
L 195.819516 259.562919 
L 195.819516 259.248889 
L 196.696984 259.248889 
L 196.696984 258.934858 
L 197.375574 258.934858 
L 197.383749 258.306797 
L 198.111807 258.306797 
L 198.111807 257.992767 
L 198.553913 257.992767 
L 198.553913 257.678736 
L 200.255535 257.678736 
L 200.324494 257.050675 
L 201.199635 257.050675 
L 201.199635 256.736645 
L 201.849745 256.736645 
L 201.855345 256.108584 
L 202.001984 256.108584 
L 202.001984 255.794553 
L 203.015696 255.794553 
L 203.015696 255.480523 
L 205.887495 255.480523 
L 205.887495 255.166492 
L 206.330628 255.166492 
L 206.330628 254.852462 
L 206.488015 254.852462 
L 206.488015 254.538431 
L 207.650308 254.538431 
L 207.681049 253.91037 
L 207.932362 253.91037 
L 207.932362 253.59634 
L 208.488189 253.59634 
L 208.545544 252.968279 
L 209.39969 252.968279 
L 209.39969 252.654248 
L 209.626717 252.654248 
L 209.626717 252.340218 
L 210.963924 252.340218 
L 210.963924 252.026187 
L 211.563627 252.026187 
L 211.563627 251.712157 
L 212.287508 251.712157 
L 212.287508 251.398126 
L 212.865458 251.398126 
L 212.865458 251.084096 
L 213.199009 251.084096 
L 213.199009 250.770065 
L 213.441866 250.770065 
L 213.441866 250.456035 
L 213.789884 250.456035 
L 213.789884 250.142004 
L 214.3243 250.142004 
L 214.3243 249.827974 
L 214.514169 249.827974 
L 214.514169 249.513943 
L 214.763242 249.513943 
L 214.763242 249.199913 
L 215.490251 249.199913 
L 215.490251 248.885882 
L 216.32335 248.885882 
L 216.32335 248.571852 
L 216.56689 248.571852 
L 216.56689 248.257821 
L 216.778062 248.257821 
L 216.778062 247.943791 
L 217.689563 247.943791 
L 217.689563 247.62976 
L 218.512283 247.62976 
L 218.512283 247.31573 
L 219.253796 247.31573 
L 219.352885 246.687669 
L 219.44685 246.687669 
L 219.498868 246.059608 
L 219.957699 246.059608 
L 219.957699 245.745577 
L 220.944169 245.745577 
L 221.020099 245.117516 
L 221.512536 245.117516 
L 221.512536 244.803486 
L 222.839183 244.803486 
L 222.839183 244.489455 
L 225.143801 244.489455 
L 225.143801 244.175425 
L 225.306724 244.175425 
L 225.311855 243.547364 
L 225.638444 243.547364 
L 225.638444 243.233333 
L 225.88525 243.233333 
L 225.962433 242.605272 
L 226.109072 242.605272 
L 226.109072 242.291242 
L 226.540959 242.291242 
L 226.540959 241.977211 
L 226.687599 241.977211 
L 226.687599 241.663181 
L 226.974526 241.663181 
L 226.974526 241.34915 
L 227.136957 241.34915 
L 227.136957 241.03512 
L 227.460002 241.03512 
L 227.460002 240.721089 
L 227.620462 240.721089 
L 227.70877 240.093028 
L 228.451624 240.093028 
L 228.451624 239.778998 
L 228.94312 239.778998 
L 228.94312 239.464967 
L 229.371548 239.464967 
L 229.455844 238.836906 
L 229.802409 238.836906 
L 229.802409 238.522876 
L 230.437717 238.522876 
L 230.437717 238.208845 
L 230.595104 238.208845 
L 230.595104 237.894815 
L 231.016243 237.894815 
L 231.016243 237.580784 
L 231.17363 237.580784 
L 231.201445 236.952723 
L 231.788137 236.952723 
L 231.788137 236.638693 
L 231.973423 236.638693 
L 232.03833 236.010632 
L 232.126253 236.010632 
L 232.126253 235.696601 
L 232.291808 235.696601 
L 232.366664 235.06854 
L 232.548448 235.06854 
L 232.548448 234.75451 
L 232.687149 234.75451 
L 232.687149 234.440479 
L 232.965315 234.440479 
L 232.965315 234.126449 
L 233.433674 234.126449 
L 233.490359 233.184357 
L 233.65279 233.184357 
L 233.714399 232.242266 
L 234.224603 232.242266 
L 234.224603 231.928235 
L 234.6259 231.928235 
L 234.6259 231.614205 
L 234.967457 231.614205 
L 235.024182 230.986144 
L 235.32744 230.986144 
L 235.32744 230.672113 
L 235.568633 230.672113 
L 235.568633 230.358083 
L 235.845275 230.358083 
L 235.887381 229.730022 
L 235.971677 229.730022 
L 235.971677 229.415991 
L 236.190133 229.415991 
L 236.190133 229.101961 
L 236.451293 229.101961 
L 236.451293 228.78793 
L 236.972546 228.78793 
L 236.972546 228.4739 
L 237.160167 228.4739 
L 237.160167 228.159869 
L 237.54236 228.159869 
L 237.551073 227.531808 
L 238.112999 227.531808 
L 238.216796 226.903747 
L 238.554163 226.903747 
L 238.554163 226.589717 
L 239.244248 226.589717 
L 239.244248 226.275686 
L 239.896924 226.275686 
L 239.896924 225.961656 
L 240.155749 225.961656 
L 240.189452 225.333595 
L 240.953759 225.333595 
L 240.953759 225.019564 
L 241.072282 225.019564 
L 241.072282 224.705534 
L 241.719982 224.705534 
L 241.803502 224.077473 
L 241.986614 224.077473 
L 241.986614 223.763442 
L 242.619371 223.763442 
L 242.619371 223.449412 
L 242.778408 223.449412 
L 242.778408 223.135381 
L 243.197898 223.135381 
L 243.197898 222.821351 
L 243.544844 222.821351 
L 243.544844 222.50732 
L 243.676 222.50732 
L 243.676 221.879259 
L 244.058193 221.879259 
L 244.058193 221.565229 
L 244.249291 221.565229 
L 244.249291 221.251198 
L 244.732629 221.251198 
L 244.732629 220.937168 
L 244.908621 220.937168 
L 244.908621 220.623137 
L 245.572795 220.623137 
L 245.572795 220.309107 
L 246.219809 220.309107 
L 246.219809 219.995076 
L 246.38224 219.995076 
L 246.430705 219.052985 
L 246.738746 219.052985 
L 246.738746 218.738954 
L 246.954053 218.738954 
L 246.954053 218.424924 
L 247.242269 218.424924 
L 247.242269 218.110893 
L 247.399227 218.110893 
L 247.399227 217.796863 
L 247.696907 217.796863 
L 247.790105 217.168802 
L 248.319335 217.168802 
L 248.319335 216.854771 
L 248.616831 216.854771 
L 248.701127 216.22671 
L 248.779259 216.22671 
L 248.779259 215.91268 
L 249.20406 215.91268 
L 249.310665 215.284619 
L 250.10391 215.284619 
L 250.197571 214.342527 
L 250.370011 214.342527 
L 250.370011 214.028497 
L 251.047147 214.028497 
L 251.109072 213.400436 
L 251.283613 213.400436 
L 251.317569 212.772375 
L 252.268595 212.772375 
L 252.268595 212.458344 
L 252.410924 212.458344 
L 252.410924 212.144314 
L 252.673305 212.144314 
L 252.673305 211.830283 
L 253.093955 211.830283 
L 253.093955 211.516253 
L 253.429583 211.516253 
L 253.429583 211.202222 
L 253.592015 211.202222 
L 253.592015 210.888192 
L 253.96295 210.888192 
L 253.96295 210.574161 
L 254.163827 210.574161 
L 254.163827 210.260131 
L 254.405578 210.260131 
L 254.405578 209.9461 
L 254.652456 209.9461 
L 254.744572 209.318039 
L 254.906682 209.318039 
L 254.970112 208.689978 
L 255.826606 208.689978 
L 255.910902 207.747887 
L 255.975439 207.747887 
L 255.975439 207.433856 
L 256.337148 207.433856 
L 256.40545 206.491765 
L 256.714839 206.491765 
L 256.787643 205.863704 
L 256.906549 205.863704 
L 256.977422 205.235643 
L 257.077504 205.235643 
L 257.077504 204.921612 
L 257.239935 204.921612 
L 257.248649 204.293551 
L 257.462079 204.293551 
L 257.562258 203.66549 
L 257.608476 203.66549 
L 257.708898 202.723399 
L 257.811748 202.723399 
L 257.811748 202.409368 
L 258.086294 202.409368 
L 258.086294 202.095338 
L 258.264185 202.095338 
L 258.279265 201.467277 
L 258.410824 201.467277 
L 258.493388 200.211155 
L 258.554602 200.211155 
L 258.603712 199.583094 
L 258.812882 199.583094 
L 258.812882 199.269063 
L 259.175524 199.269063 
L 259.175524 198.955033 
L 259.32643 198.955033 
L 259.32643 198.641002 
L 259.474526 198.641002 
L 259.558822 198.012941 
L 259.596323 198.012941 
L 259.596323 197.698911 
L 259.918379 197.698911 
L 259.918379 197.38488 
L 260.548946 197.38488 
L 260.632166 196.128758 
L 260.774929 196.128758 
L 260.838303 195.186667 
L 260.922599 195.186667 
L 260.967778 194.244575 
L 261.048785 194.244575 
L 261.159225 193.302484 
L 261.509172 193.302484 
L 261.509172 192.988453 
L 261.900149 192.988453 
L 261.921633 192.360392 
L 262.037542 192.360392 
L 262.141308 191.732331 
L 262.194929 191.732331 
L 262.252027 190.476209 
L 262.359433 190.476209 
L 262.359433 190.162179 
L 262.739469 190.162179 
L 262.81165 189.534118 
L 262.859127 189.534118 
L 262.942329 188.592026 
L 263.171951 188.592026 
L 263.268791 187.335904 
L 263.387963 187.335904 
L 263.46274 186.393813 
L 263.505085 186.393813 
L 263.615225 185.451721 
L 263.915336 185.451721 
L 263.997417 184.82366 
L 264.08989 184.82366 
L 264.08989 184.50963 
L 264.217142 184.50963 
L 264.217142 184.195599 
L 264.375883 184.195599 
L 264.375883 183.881569 
L 264.571045 183.881569 
L 264.671853 183.253508 
L 264.717685 183.253508 
L 264.717685 182.939477 
L 264.892476 182.939477 
L 264.908029 182.311416 
L 265.108339 182.311416 
L 265.169765 181.683355 
L 265.515238 181.683355 
L 265.588598 180.741264 
L 265.710378 180.741264 
L 265.740611 180.113203 
L 265.838733 180.113203 
L 265.838733 179.799172 
L 266.158752 179.799172 
L 266.158752 179.485142 
L 266.626614 179.485142 
L 266.626614 179.171111 
L 266.789046 179.171111 
L 266.853183 178.22902 
L 267.263145 178.22902 
L 267.360858 177.286928 
L 267.645338 177.286928 
L 267.715994 176.658867 
L 267.954521 176.658867 
L 267.985752 176.030806 
L 268.101161 176.030806 
L 268.103712 175.402745 
L 268.25856 175.402745 
L 268.319774 174.774684 
L 268.572372 174.774684 
L 268.626922 174.146623 
L 268.724331 174.146623 
L 268.724331 173.832593 
L 268.928276 173.832593 
L 269.023637 172.576471 
L 269.046329 172.576471 
L 269.124276 171.634379 
L 269.203716 171.634379 
L 269.274298 171.006318 
L 269.361495 171.006318 
L 269.361495 170.692288 
L 269.683551 170.692288 
L 269.729158 170.064227 
L 270.039022 170.064227 
L 270.039022 169.750196 
L 270.196409 169.750196 
L 270.247498 169.122135 
L 270.36143 169.122135 
L 270.412457 167.551983 
L 270.649306 167.551983 
L 270.75382 166.923922 
L 270.96057 166.923922 
L 270.981742 166.295861 
L 271.200121 166.295861 
L 271.200121 165.98183 
L 271.342762 165.98183 
L 271.389443 165.039739 
L 271.618954 165.039739 
L 271.724596 163.783617 
L 271.761419 163.783617 
L 271.785071 162.841525 
L 271.90648 162.841525 
L 272.017198 161.899434 
L 272.181913 161.899434 
L 272.181913 161.585403 
L 272.353198 161.585403 
L 272.429805 160.957342 
L 272.587192 160.957342 
L 272.677219 160.015251 
L 272.725012 160.015251 
L 272.794186 159.073159 
L 272.859089 159.073159 
L 272.885664 158.445098 
L 272.99276 158.445098 
L 273.096052 157.503007 
L 273.191155 157.503007 
L 273.270257 156.874946 
L 273.449896 156.874946 
L 273.541373 156.246885 
L 273.593333 156.246885 
L 273.688013 154.362702 
L 273.780226 154.362702 
L 273.813917 153.734641 
L 273.904715 153.734641 
L 273.904715 153.42061 
L 274.015976 153.42061 
L 274.100272 152.792549 
L 274.219197 152.792549 
L 274.219197 152.478519 
L 274.336187 152.478519 
L 274.336187 152.164488 
L 274.59033 152.164488 
L 274.59033 151.850458 
L 274.78376 151.850458 
L 274.78376 151.536427 
L 274.921123 151.536427 
L 274.924496 150.908366 
L 275.256112 150.908366 
L 275.340408 149.966275 
L 275.373453 149.966275 
L 275.41786 149.338214 
L 275.581158 149.338214 
L 275.603905 148.710153 
L 275.759515 148.710153 
L 275.759515 148.396122 
L 275.921946 148.396122 
L 275.921946 148.082092 
L 276.035896 148.082092 
L 276.074512 147.454031 
L 276.229326 147.454031 
L 276.275625 146.197908 
L 276.391786 146.197908 
L 276.493759 145.569847 
L 276.554218 145.569847 
L 276.573852 144.941786 
L 276.682759 144.941786 
L 276.682759 144.627756 
L 276.812256 144.627756 
L 276.812256 144.313725 
L 277.023011 144.313725 
L 277.12603 143.685664 
L 277.194448 143.685664 
L 277.236613 143.057603 
L 277.353619 143.057603 
L 277.420903 142.429542 
L 277.868884 142.429542 
L 277.925179 141.17342 
L 278.001725 141.17342 
L 278.082566 139.289237 
L 278.156537 139.289237 
L 278.240833 138.033115 
L 278.55576 138.033115 
L 278.648565 137.405054 
L 278.712715 137.405054 
L 278.799185 136.462963 
L 278.837801 136.462963 
L 278.905085 134.89281 
L 278.964635 134.89281 
L 278.964635 134.57878 
L 279.230126 134.57878 
L 279.2756 133.950719 
L 279.367078 133.950719 
L 279.473401 133.322658 
L 279.878666 133.322658 
L 279.885835 132.694597 
L 280.032475 132.694597 
L 280.032475 132.380566 
L 280.296206 132.380566 
L 280.334821 131.752505 
L 280.43314 131.752505 
L 280.480593 131.124444 
L 280.815332 131.124444 
L 280.918968 130.182353 
L 280.957583 130.182353 
L 281.023692 129.554292 
L 281.093802 129.554292 
L 281.181384 128.926231 
L 281.227984 128.926231 
L 281.227984 128.6122 
L 281.385763 128.6122 
L 281.489768 127.356078 
L 281.767955 127.356078 
L 281.804595 126.728017 
L 282.186788 126.728017 
L 282.220677 125.785926 
L 282.442391 125.785926 
L 282.442391 125.471895 
L 282.682495 125.471895 
L 282.682495 125.157865 
L 282.861224 125.157865 
L 282.861224 124.843834 
L 283.044731 124.843834 
L 283.044731 124.529804 
L 283.426923 124.529804 
L 283.426923 124.215773 
L 283.668686 124.215773 
L 283.737133 123.587712 
L 283.862116 123.587712 
L 283.930563 122.959651 
L 284.101359 122.959651 
L 284.166676 122.01756 
L 284.361119 122.01756 
L 284.460009 121.389499 
L 284.517558 121.389499 
L 284.61146 120.133377 
L 285.076475 120.133377 
L 285.076475 119.819346 
L 285.408514 119.819346 
L 285.408514 119.505316 
L 285.612391 119.505316 
L 285.714621 118.563224 
L 285.945156 118.563224 
L 286.029098 117.935163 
L 286.140077 117.935163 
L 286.140077 117.621133 
L 286.322846 117.621133 
L 286.431975 116.365011 
L 286.44793 116.365011 
L 286.500422 115.422919 
L 286.567707 115.422919 
L 286.577428 114.794858 
L 286.683176 114.794858 
L 286.683176 114.480828 
L 286.95962 114.480828 
L 287.001785 113.852767 
L 287.585643 113.852767 
L 287.688066 112.282614 
L 287.862879 112.282614 
L 287.928995 111.340523 
L 287.997443 111.340523 
L 287.998721 110.712462 
L 288.128742 110.712462 
L 288.167358 110.084401 
L 288.551757 110.084401 
L 288.620205 109.142309 
L 288.694484 109.142309 
L 288.700648 108.514248 
L 288.953627 108.514248 
L 288.977968 107.886187 
L 289.308445 107.886187 
L 289.347061 107.258126 
L 289.889469 107.258126 
L 289.889469 106.944096 
L 290.106834 106.944096 
L 290.198312 106.316035 
L 290.237549 106.316035 
L 290.237549 106.002004 
L 290.588491 106.002004 
L 290.588491 105.687974 
L 290.715834 105.687974 
L 290.715834 105.373943 
L 290.895949 105.373943 
L 290.895949 105.059913 
L 291.220763 105.059913 
L 291.274446 104.431852 
L 291.453702 104.431852 
L 291.467876 103.803791 
L 291.744977 103.803791 
L 291.829298 102.861699 
L 291.857929 102.861699 
L 291.907409 102.233638 
L 292.046011 102.233638 
L 292.046011 101.919608 
L 292.158207 101.919608 
L 292.158207 101.605577 
L 292.479221 101.605577 
L 292.479221 101.291547 
L 292.752946 101.291547 
L 292.860133 100.349455 
L 293.029944 100.349455 
L 293.115492 99.407364 
L 293.211962 99.407364 
L 293.222075 98.779303 
L 294.037735 98.779303 
L 294.142 97.837211 
L 294.226295 97.837211 
L 294.333663 97.20915 
L 294.356539 97.20915 
L 294.356539 96.89512 
L 294.549969 96.89512 
L 294.549969 96.581089 
L 294.804925 96.581089 
L 294.804925 96.267059 
L 295.007508 96.267059 
L 295.007508 95.953028 
L 295.218433 95.953028 
L 295.28688 95.324967 
L 295.460634 95.324967 
L 295.534755 94.696906 
L 295.607274 94.696906 
L 295.607274 94.382876 
L 295.761532 94.382876 
L 295.829979 93.754815 
L 295.899603 93.754815 
L 296.000202 93.126754 
L 296.093033 93.126754 
L 296.157517 92.498693 
L 296.361838 92.498693 
L 296.361838 92.184662 
L 296.542774 92.184662 
L 296.542774 91.870632 
L 296.808782 91.870632 
L 296.808782 91.556601 
L 296.941235 91.556601 
L 297.023264 90.61451 
L 297.119828 90.61451 
L 297.187112 89.986449 
L 297.2435 89.986449 
L 297.247008 89.358388 
L 298.390984 89.358388 
L 298.390984 89.044357 
L 298.616848 89.044357 
L 298.662892 88.416296 
L 298.730176 88.416296 
L 298.769526 87.474205 
L 298.962955 87.474205 
L 299.014513 86.846144 
L 299.166993 86.846144 
L 299.23961 86.218083 
L 299.366611 86.218083 
L 299.366611 85.904052 
L 299.778403 85.904052 
L 299.778403 85.590022 
L 299.935918 85.590022 
L 299.935918 85.275991 
L 300.093305 85.275991 
L 300.159912 84.3339 
L 300.434112 84.3339 
L 300.434112 84.019869 
L 300.580752 84.019869 
L 300.580752 83.705839 
L 300.772336 83.705839 
L 300.782674 83.077778 
L 301.286339 83.077778 
L 301.286339 82.763747 
L 301.532815 82.763747 
L 301.600099 82.135686 
L 301.930618 82.135686 
L 302.002315 81.507625 
L 302.312811 81.507625 
L 302.312811 81.193595 
L 302.448704 81.193595 
L 302.55047 80.251503 
L 302.824193 80.251503 
L 302.824193 79.937473 
L 302.987247 79.937473 
L 303.029835 79.309412 
L 303.367292 79.309412 
L 303.381015 78.681351 
L 303.652597 78.681351 
L 303.652597 78.36732 
L 303.886358 78.36732 
L 303.991768 77.425229 
L 304.036724 77.425229 
L 304.068815 76.797168 
L 304.183364 76.797168 
L 304.183364 76.483137 
L 304.456783 76.483137 
L 304.546995 75.855076 
L 304.673997 75.855076 
L 304.673997 75.541046 
L 304.882276 75.541046 
L 304.909396 74.912985 
L 305.066783 74.912985 
L 305.066783 74.598954 
L 305.321944 74.598954 
L 305.321944 74.284924 
L 305.504499 74.284924 
L 305.504499 73.970893 
L 305.63358 73.970893 
L 305.63358 73.656863 
L 305.906286 73.656863 
L 305.906286 73.342832 
L 306.116564 73.342832 
L 306.158179 72.400741 
L 306.259817 72.400741 
L 306.259817 72.08671 
L 306.434391 72.08671 
L 306.503212 70.830588 
L 306.573954 70.830588 
L 306.627821 70.202527 
L 306.86169 70.202527 
L 306.86169 69.888497 
L 307.028065 69.888497 
L 307.028065 69.574466 
L 307.44935 69.574466 
L 307.44935 69.260436 
L 307.629088 69.260436 
L 307.629088 68.946405 
L 307.992449 68.946405 
L 308.064415 68.004314 
L 308.104703 68.004314 
L 308.137321 67.376253 
L 308.512008 67.376253 
L 308.592298 66.434161 
L 308.669395 66.434161 
L 308.669395 66.120131 
L 308.802119 66.120131 
L 308.802119 65.8061 
L 309.172152 65.8061 
L 309.264964 64.864009 
L 309.46848 64.864009 
L 309.46848 64.549978 
L 309.669864 64.549978 
L 309.695134 63.921917 
L 309.862429 63.921917 
L 309.862429 63.607887 
L 310.208392 63.607887 
L 310.319273 62.979826 
L 310.322298 62.979826 
L 310.429934 62.037734 
L 310.6947 62.037734 
L 310.6947 61.723704 
L 310.862372 61.723704 
L 310.862372 61.409673 
L 310.981428 61.409673 
L 311.008461 60.781612 
L 311.317462 60.781612 
L 311.317462 60.467582 
L 311.444226 60.467582 
L 311.444226 60.153551 
L 311.802128 60.153551 
L 311.802128 59.839521 
L 312.042075 59.839521 
L 312.117573 59.21146 
L 312.426994 59.21146 
L 312.46561 58.583399 
L 312.692612 58.583399 
L 312.692612 58.269368 
L 313.013886 58.269368 
L 313.013886 57.955338 
L 313.271138 57.955338 
L 313.271138 57.641307 
L 313.752353 57.641307 
L 313.820801 57.013246 
L 314.179837 57.013246 
L 314.179837 56.699216 
L 314.481784 56.699216 
L 314.526556 56.071155 
L 314.801891 56.071155 
L 314.801891 55.757124 
L 315.046838 55.757124 
L 315.046838 55.443094 
L 315.771393 55.443094 
L 315.834711 54.815033 
L 316.67865 54.815033 
L 316.67865 54.501002 
L 317.091051 54.501002 
L 317.100798 53.872941 
L 317.653814 53.872941 
L 317.671344 53.24488 
L 317.83244 53.24488 
L 317.83244 52.93085 
L 317.984138 52.93085 
L 317.984138 52.616819 
L 318.527237 52.616819 
L 318.527237 52.302789 
L 319.140911 52.302789 
L 319.140911 51.988758 
L 319.70694 51.988758 
L 319.709686 51.360697 
L 320.059784 51.360697 
L 320.128231 50.418606 
L 320.461375 50.418606 
L 320.461375 50.104575 
L 320.693663 50.104575 
L 320.693663 49.790545 
L 321.274698 49.790545 
L 321.358113 49.162484 
L 321.397712 49.162484 
L 321.397712 48.848453 
L 321.906942 48.848453 
L 321.984722 47.906362 
L 322.227321 47.906362 
L 322.227321 47.592331 
L 322.646154 47.592331 
L 322.646154 47.278301 
L 322.760283 47.278301 
L 322.772175 46.65024 
L 323.494494 46.65024 
L 323.494494 46.336209 
L 323.687924 46.336209 
L 323.728647 45.708148 
L 323.886289 45.708148 
L 323.886289 45.394118 
L 324.205849 45.394118 
L 324.244464 44.766057 
L 324.440206 44.766057 
L 324.440206 44.452026 
L 324.640148 44.452026 
L 324.640148 44.137996 
L 325.557501 44.137996 
L 325.648978 43.509935 
L 325.897097 43.509935 
L 325.983271 42.881874 
L 326.204381 42.881874 
L 326.257783 42.253813 
L 326.325067 42.253813 
L 326.325067 41.939782 
L 326.786714 41.939782 
L 326.786714 41.625752 
L 327.107888 41.625752 
L 327.107888 41.311721 
L 327.418986 41.311721 
L 327.418986 40.997691 
L 327.646777 40.997691 
L 327.754803 40.055599 
L 327.840207 40.055599 
L 327.840207 39.741569 
L 328.377565 39.741569 
L 328.377565 39.427538 
L 328.853193 39.427538 
L 328.853193 39.113508 
L 329.539731 39.113508 
L 329.608179 38.485447 
L 330.056582 38.485447 
L 330.056582 38.171416 
L 330.410066 38.171416 
L 330.47735 37.543355 
L 330.663009 37.543355 
L 330.747637 36.915294 
L 330.870575 36.915294 
L 330.870575 36.601264 
L 331.586659 36.601264 
L 331.586659 36.287233 
L 331.838638 36.287233 
L 331.907086 35.345142 
L 331.993441 35.345142 
L 331.993441 35.031111 
L 332.290701 35.031111 
L 332.290701 34.717081 
L 332.529848 34.717081 
L 332.529848 34.40305 
L 332.769942 34.40305 
L 332.769942 34.08902 
L 332.963372 34.08902 
L 332.963372 33.774989 
L 334.473187 33.774989 
L 334.473187 33.460959 
L 335.03006 33.460959 
L 335.044241 32.832898 
L 335.142235 32.832898 
L 335.160624 32.204837 
L 335.533231 32.204837 
L 335.600515 31.262745 
L 335.738942 31.262745 
L 335.738942 30.948715 
L 336.518058 30.948715 
L 336.518058 30.634684 
L 336.752994 30.634684 
L 336.802586 29.692593 
L 337.030251 29.692593 
L 337.030251 29.378562 
L 337.145491 29.378562 
L 337.145491 29.064532 
L 337.653013 29.064532 
L 337.653013 28.750501 
L 338.022195 28.750501 
L 338.022195 28.436471 
L 338.632673 28.436471 
L 338.632673 28.12244 
L 339.196524 28.12244 
L 339.196524 27.80841 
L 339.444398 27.80841 
L 339.444398 27.494379 
L 339.739623 27.494379 
L 339.739623 27.180349 
L 340.227584 27.180349 
L 340.227584 26.866318 
L 340.384259 26.866318 
L 340.384259 26.552288 
L 340.862107 26.552288 
L 340.919326 25.924227 
L 341.770649 25.924227 
L 341.770649 25.610196 
L 342.02976 25.610196 
L 342.02976 25.296166 
L 342.365587 25.296166 
L 342.365587 24.982135 
L 342.526492 24.982135 
L 342.526492 24.668105 
L 342.731687 24.668105 
L 342.825489 23.726013 
L 342.849212 23.726013 
L 342.849212 23.411983 
L 344.069556 23.411983 
L 344.069556 23.097952 
L 344.292437 23.097952 
L 344.319689 22.469891 
L 344.640571 22.469891 
L 344.640571 22.155861 
L 344.862788 22.155861 
L 344.862788 21.84183 
L 344.994364 21.84183 
L 344.994364 21.5278 
L 345.729173 21.5278 
L 345.729173 21.213769 
L 346.042491 21.213769 
L 346.042491 20.899739 
L 346.939478 20.899739 
L 346.939478 20.585708 
L 347.568239 20.585708 
L 347.568239 20.271678 
L 348.475531 20.271678 
L 348.475531 19.957647 
L 349.038547 19.957647 
L 349.038547 19.643617 
L 350.03124 19.643617 
L 350.03124 19.329586 
L 351.301224 19.329586 
L 351.355492 18.701525 
L 352.28083 18.701525 
L 352.305436 17.759434 
L 352.422023 17.759434 
L 352.422023 17.445403 
L 352.541717 17.445403 
L 352.541717 17.131373 
L 353.578161 17.131373 
L 353.578161 16.817342 
L 354.604343 16.817342 
L 354.6847 16.189281 
L 356.144329 16.189281 
L 356.144329 15.875251 
L 357.730444 15.875251 
L 357.730444 15.56122 
L 357.917397 15.56122 
L 358.008875 14.933159 
L 359.885592 14.933159 
L 359.987808 14.305098 
L 360.180074 14.305098 
L 360.271552 13.677037 
L 362.853609 13.677037 
L 362.853609 13.363007 
L 364.037875 13.363007 
L 364.037875 13.048976 
L 364.353337 13.048976 
L 364.353337 12.734946 
L 365.614127 12.734946 
L 365.614127 12.420915 
L 366.616014 12.420915 
L 366.616014 12.106885 
L 369.16104 12.106885 
L 369.16104 11.792854 
L 369.365539 11.792854 
L 369.443406 11.164793 
L 369.892914 11.164793 
L 369.892914 10.850763 
L 371.664447 10.850763 
L 371.664447 10.536732 
L 372.323367 10.536732 
L 372.323367 10.222702 
L 373.517822 10.222702 
L 373.517822 9.908671 
L 375.816729 9.908671 
L 375.816729 9.594641 
L 377.599891 9.594641 
L 377.599891 9.28061 
L 378.640987 9.28061 
L 378.640987 8.96658 
L 379.928136 8.96658 
L 379.928136 8.652549 
L 380.939895 8.652549 
L 380.939895 8.338519 
L 382.190813 8.338519 
L 382.190813 8.024488 
L 383.22621 8.024488 
L 383.22621 7.710458 
L 384.901614 7.710458 
L 384.901614 7.396427 
L 386.582002 7.396427 
L 386.582002 7.082397 
L 387.164291 7.082397 
L 387.164291 6.768366 
L 388.504226 6.768366 
L 388.504226 6.454336 
L 390.766903 6.454336 
L 390.766903 6.140305 
L 404.194085 6.140305 
L 404.194085 5.826275 
L 453.192 5.826275 
L 453.192 5.826275 
" style="fill:none;stroke:#000000;stroke-linecap:square;stroke-width:3;"/>
   </g>
   <g id="line2d_41">
    <path clip-path="url(#p792ff047b2)" style="fill:none;stroke:#000000;stroke-linecap:square;stroke-width:3;"/>
   </g>
   <g id="line2d_42">
    <path clip-path="url(#p792ff047b2)" d="M 34.16 99.05408 
L 174.898508 99.05408 
L 174.898508 98.726964 
L 175.720868 98.726964 
L 175.720868 98.399849 
L 177.15699 98.399849 
L 177.263398 97.745619 
L 177.334238 97.745619 
L 177.334238 97.418504 
L 192.247533 97.418504 
L 192.247533 97.091389 
L 193.342999 97.091389 
L 193.342999 96.764274 
L 194.413084 96.764274 
L 194.446868 96.110044 
L 195.618096 96.110044 
L 195.618096 95.782928 
L 201.654018 95.782928 
L 201.654018 95.455813 
L 208.009914 95.455813 
L 208.009914 95.128698 
L 211.432968 95.128698 
L 211.432968 94.801583 
L 221.336738 94.801583 
L 221.336738 94.474468 
L 226.420556 94.474468 
L 226.420556 94.147353 
L 275.45598 94.147353 
L 275.45598 93.820238 
L 287.973096 93.820238 
L 287.973096 93.493123 
L 288.795455 93.493123 
L 288.795455 93.166008 
L 290.231577 93.166008 
L 290.337985 92.184662 
L 290.408825 92.184662 
L 290.408825 91.857547 
L 291.751017 91.857547 
L 291.751017 91.530432 
L 297.072455 91.530432 
L 297.072455 91.203317 
L 297.647627 91.203317 
L 297.647627 90.876202 
L 297.894815 90.876202 
L 297.894815 90.549087 
L 299.330937 90.549087 
L 299.437345 89.894857 
L 299.508185 89.894857 
L 299.508185 89.567741 
L 301.039901 89.567741 
L 301.039901 89.240626 
L 301.862261 89.240626 
L 301.862261 88.913511 
L 303.298383 88.913511 
L 303.404791 88.259281 
L 303.475631 88.259281 
L 303.481155 87.605051 
L 305.32212 87.605051 
L 305.32212 87.277936 
L 306.417586 87.277936 
L 306.417586 86.950821 
L 306.558149 86.950821 
L 306.558149 86.623706 
L 307.487671 86.623706 
L 307.521455 85.969475 
L 308.692683 85.969475 
L 308.692683 85.64236 
L 312.454759 85.64236 
L 312.454759 85.315245 
L 314.160251 85.315245 
L 314.160251 84.98813 
L 314.42148 84.98813 
L 314.42148 84.661015 
L 314.728605 84.661015 
L 314.728605 84.3339 
L 314.98261 84.3339 
L 314.98261 84.006785 
L 315.516946 84.006785 
L 315.516946 83.67967 
L 315.890487 83.67967 
L 315.890487 83.352554 
L 316.418733 83.352554 
L 316.525141 82.698324 
L 316.587031 82.698324 
L 316.620815 81.716979 
L 316.712846 81.716979 
L 316.712846 81.389864 
L 317.792043 81.389864 
L 317.792043 81.062749 
L 318.148969 81.062749 
L 318.255377 80.408519 
L 318.326216 80.408519 
L 318.388926 79.754288 
L 318.987915 79.754288 
L 318.987915 79.427173 
L 319.384932 79.427173 
L 319.484392 78.772943 
L 319.776193 78.772943 
L 319.776193 78.445828 
L 320.554477 78.445828 
L 320.588261 77.791598 
L 321.084502 77.791598 
L 321.084502 77.464483 
L 321.759489 77.464483 
L 321.759489 77.137367 
L 322.412467 77.137367 
L 322.412467 76.810252 
L 323.553441 76.810252 
L 323.553441 76.483137 
L 323.827965 76.483137 
L 323.827965 76.156022 
L 324.375801 76.156022 
L 324.375801 75.828907 
L 324.507555 75.828907 
L 324.507555 75.501792 
L 325.672803 75.501792 
L 325.672803 75.174677 
L 325.811923 75.174677 
L 325.918331 74.520447 
L 325.989171 74.520447 
L 325.989171 74.193332 
L 327.795411 74.193332 
L 327.795411 73.866216 
L 330.183861 73.866216 
L 330.183861 73.539101 
L 331.09191 73.539101 
L 331.09191 73.211986 
L 331.509276 73.211986 
L 331.509276 72.884871 
L 331.809887 72.884871 
L 331.91427 72.230641 
L 332.604741 72.230641 
L 332.604741 71.903526 
L 333.05952 71.903526 
L 333.05952 71.576411 
L 333.239512 71.576411 
L 333.350392 70.92218 
L 333.4568 70.92218 
L 333.52764 70.26795 
L 333.606915 70.26795 
L 333.70861 69.286605 
L 333.88188 69.286605 
L 333.971021 68.632375 
L 334.151307 68.632375 
L 334.151307 68.30526 
L 334.334977 68.30526 
L 334.411325 67.651029 
L 334.793381 67.651029 
L 334.879838 66.996799 
L 335.282952 66.996799 
L 335.318002 66.342569 
L 335.405062 66.342569 
L 335.495249 65.034109 
L 335.67997 65.034109 
L 335.67997 64.706993 
L 336.058364 64.706993 
L 336.058364 64.379878 
L 336.229503 64.379878 
L 336.335911 63.725648 
L 336.40675 63.725648 
L 336.40675 63.398533 
L 336.610074 63.398533 
L 336.610074 63.071418 
L 337.574361 63.071418 
L 337.574361 62.744303 
L 338.707504 62.744303 
L 338.707504 62.417188 
L 339.44132 62.417188 
L 339.495143 61.762958 
L 340.263679 61.762958 
L 340.263679 61.435842 
L 340.863198 61.435842 
L 340.91576 60.454497 
L 341.179562 60.454497 
L 341.179562 60.127382 
L 341.57658 60.127382 
L 341.57658 59.800267 
L 341.699802 59.800267 
L 341.80621 59.146037 
L 341.877049 59.146037 
L 341.877049 58.818922 
L 341.997932 58.818922 
L 341.997932 58.491806 
L 342.645996 58.491806 
L 342.645996 58.164691 
L 343.068017 58.164691 
L 343.101801 57.510461 
L 343.510685 57.510461 
L 343.510685 57.183346 
L 343.651748 57.183346 
L 343.651748 56.856231 
L 343.9916 56.856231 
L 343.9916 56.529116 
L 344.179325 56.529116 
L 344.273029 55.874886 
L 344.447974 55.874886 
L 344.447974 55.547771 
L 344.604114 55.547771 
L 344.604114 55.220655 
L 344.74185 55.220655 
L 344.794716 54.566425 
L 345.170953 54.566425 
L 345.170953 54.23931 
L 345.356651 54.23931 
L 345.356651 53.912195 
L 345.985966 53.912195 
L 345.985966 53.58508 
L 346.617019 53.58508 
L 346.617019 53.257965 
L 347.271657 53.257965 
L 347.271657 52.93085 
L 347.478131 52.93085 
L 347.478131 52.603735 
L 348.440935 52.603735 
L 348.440935 52.276619 
L 348.594502 52.276619 
L 348.594502 51.949504 
L 349.001893 51.949504 
L 349.001893 51.622389 
L 349.536401 51.622389 
L 349.536401 51.295274 
L 349.713018 51.295274 
L 349.713018 50.968159 
L 349.975787 50.968159 
L 349.975787 50.641044 
L 350.308951 50.641044 
L 350.408545 49.986814 
L 350.606486 49.986814 
L 350.69471 49.005468 
L 351.314897 49.005468 
L 351.320046 48.351238 
L 351.50401 48.351238 
L 351.50401 48.024123 
L 351.811498 48.024123 
L 351.811498 47.697008 
L 352.415511 47.697008 
L 352.424946 47.042778 
L 352.561949 47.042778 
L 352.60788 45.734317 
L 353.485597 45.734317 
L 353.519381 45.080087 
L 353.779107 45.080087 
L 353.854439 44.425857 
L 354.131067 44.425857 
L 354.131067 44.098742 
L 354.46924 44.098742 
L 354.46924 43.771627 
L 354.596207 43.771627 
L 354.690608 43.117397 
L 355.098555 43.117397 
L 355.098555 42.790281 
L 356.664847 42.790281 
L 356.664847 42.463166 
L 356.790344 42.463166 
L 356.790344 42.136051 
L 357.84742 42.136051 
L 357.88581 41.481821 
L 358.798732 41.481821 
L 358.825607 40.827591 
L 358.955895 40.827591 
L 358.989679 40.173361 
L 359.685963 40.173361 
L 359.685963 39.846245 
L 359.815029 39.846245 
L 359.835062 39.192015 
L 359.946785 39.192015 
L 360.031264 38.537785 
L 360.087901 38.537785 
L 360.160907 37.883555 
L 360.474362 37.883555 
L 360.474362 37.55644 
L 360.59848 37.55644 
L 360.59848 37.229325 
L 360.72653 37.229325 
L 360.743011 36.575094 
L 361.015204 36.575094 
L 361.089753 35.920864 
L 361.68032 35.920864 
L 361.68032 35.593749 
L 362.328716 35.593749 
L 362.328716 35.266634 
L 362.542892 35.266634 
L 362.542892 34.939519 
L 363.243655 34.939519 
L 363.243655 34.612404 
L 363.708796 34.612404 
L 363.708796 34.285289 
L 364.203316 34.285289 
L 364.203316 33.958174 
L 365.682298 33.958174 
L 365.682298 33.631058 
L 365.843395 33.631058 
L 365.843395 33.303943 
L 366.12203 33.303943 
L 366.196829 32.322598 
L 366.370972 32.322598 
L 366.370972 31.995483 
L 366.639621 31.995483 
L 366.639621 31.668368 
L 366.986363 31.668368 
L 367.082427 31.014138 
L 367.412534 31.014138 
L 367.412534 30.687023 
L 367.62637 30.687023 
L 367.62637 30.359907 
L 368.798552 30.359907 
L 368.798552 30.032792 
L 369.593979 30.032792 
L 369.64977 29.378562 
L 369.991671 29.378562 
L 369.991671 29.051447 
L 370.127793 29.051447 
L 370.127793 28.724332 
L 370.50548 28.724332 
L 370.50548 28.397217 
L 371.655481 28.397217 
L 371.655481 28.070102 
L 372.016775 28.070102 
L 372.016775 27.742987 
L 372.552726 27.742987 
L 372.552726 27.415871 
L 373.295375 27.415871 
L 373.295375 27.088756 
L 375.075489 27.088756 
L 375.075489 26.761641 
L 375.341822 26.761641 
L 375.341822 26.434526 
L 375.738839 26.434526 
L 375.738839 26.107411 
L 375.975779 26.107411 
L 375.975779 25.780296 
L 376.326301 25.780296 
L 376.326301 25.453181 
L 377.53014 25.453181 
L 377.53014 25.126066 
L 378.542944 25.126066 
L 378.542944 24.798951 
L 378.762359 24.798951 
L 378.766374 24.14472 
L 379.340073 24.14472 
L 379.340073 23.817605 
L 379.49775 23.817605 
L 379.49775 23.49049 
L 380.409251 23.49049 
L 380.409251 23.163375 
L 382.222911 23.163375 
L 382.222911 22.83626 
L 382.407964 22.83626 
L 382.407964 22.509145 
L 382.613958 22.509145 
L 382.613958 22.18203 
L 384.581567 22.18203 
L 384.581567 21.854915 
L 385.493068 21.854915 
L 385.493068 21.5278 
L 385.879549 21.5278 
L 385.879549 21.200684 
L 387.523535 21.200684 
L 387.523535 20.873569 
L 387.655533 20.873569 
L 387.655533 20.546454 
L 387.920552 20.546454 
L 387.920552 20.219339 
L 390.948087 20.219339 
L 390.963367 19.565109 
L 394.846833 19.565109 
L 394.846833 19.237994 
L 395.24385 19.237994 
L 395.24385 18.910879 
L 398.271384 18.910879 
L 398.271384 18.583764 
L 400.005655 18.583764 
L 400.005655 18.256649 
L 400.533232 18.256649 
L 400.533232 17.929533 
L 400.801881 17.929533 
L 400.801881 17.602418 
L 401.148623 17.602418 
L 401.148623 17.275303 
L 412.187368 17.275303 
L 412.187368 16.948188 
L 412.714945 16.948188 
L 412.714945 16.621073 
L 412.983594 16.621073 
L 412.983594 16.293958 
L 413.330336 16.293958 
L 413.330336 15.966843 
L 416.385171 15.966843 
L 416.385171 15.639728 
L 419.510665 15.639728 
L 419.510665 15.312613 
L 420.038242 15.312613 
L 420.038242 14.985497 
L 420.306892 14.985497 
L 420.306892 14.658382 
L 420.653633 14.658382 
L 420.653633 14.331267 
L 428.566884 14.331267 
L 428.566884 14.004152 
L 435.890181 14.004152 
L 435.890181 13.677037 
L 453.192 13.677037 
L 453.192 13.677037 
" style="fill:none;stroke:#00bfbf;stroke-linecap:square;stroke-width:3;"/>
   </g>
   <g id="line2d_43">
    <path clip-path="url(#p792ff047b2)" style="fill:none;stroke:#00bfbf;stroke-linecap:square;stroke-width:3;"/>
   </g>
   <g id="line2d_44">
    <path clip-path="url(#p792ff047b2)" d="M 34.16 100.035425 
L 267.287414 100.035425 
L 267.287414 99.46446 
L 273.631621 99.46446 
L 273.631621 98.893496 
L 276.848462 98.893496 
L 276.848462 98.322531 
L 279.132158 98.322531 
L 279.132158 97.751567 
L 285.997081 97.751567 
L 285.997081 97.180602 
L 286.39736 97.180602 
L 286.39736 96.609638 
L 291.63379 96.609638 
L 291.63379 96.038673 
L 296.503626 96.038673 
L 296.503626 95.467708 
L 302.98678 95.467708 
L 302.98678 94.896744 
L 304.171941 94.896744 
L 304.171941 94.325779 
L 305.375261 94.325779 
L 305.375261 93.754815 
L 307.223957 93.754815 
L 307.223957 93.18385 
L 315.384884 93.18385 
L 315.384884 92.612886 
L 316.360585 92.612886 
L 316.360585 92.041921 
L 320.756682 92.041921 
L 320.756682 91.470957 
L 322.704792 91.470957 
L 322.704792 90.899992 
L 323.392246 90.899992 
L 323.392246 90.329028 
L 324.78978 90.329028 
L 324.78978 89.758063 
L 325.921633 89.758063 
L 325.921633 89.187098 
L 328.205328 89.187098 
L 328.205328 88.616134 
L 331.133987 88.616134 
L 331.133987 88.045169 
L 334.350828 88.045169 
L 334.350828 87.474205 
L 335.070251 87.474205 
L 335.070251 86.90324 
L 335.47053 86.90324 
L 335.47053 86.332276 
L 336.634523 86.332276 
L 336.634523 85.761311 
L 339.586985 85.761311 
L 339.586985 85.190347 
L 340.70696 85.190347 
L 340.70696 84.619382 
L 341.202011 84.619382 
L 341.202011 84.048418 
L 343.499446 84.048418 
L 343.499446 83.477453 
L 343.899725 83.477453 
L 343.899725 82.906488 
L 345.576796 82.906488 
L 345.576796 82.335524 
L 345.776838 82.335524 
L 345.776838 81.764559 
L 345.931193 81.764559 
L 345.931193 81.193595 
L 347.546218 81.193595 
L 347.546218 80.62263 
L 349.136156 80.62263 
L 349.148033 79.480701 
L 350.763059 79.480701 
L 350.763059 78.909737 
L 351.431729 78.909737 
L 351.431729 78.338772 
L 352.059951 78.338772 
L 352.121045 77.196843 
L 353.046754 77.196843 
L 353.046754 76.625878 
L 353.245111 76.625878 
L 353.245111 76.054914 
L 354.005992 76.054914 
L 354.005992 75.483949 
L 354.448431 75.483949 
L 354.448431 74.912985 
L 355.337886 74.912985 
L 355.337886 74.34202 
L 356.297127 74.34202 
L 356.297127 73.771056 
L 357.621582 73.771056 
L 357.621582 73.200091 
L 358.296652 73.200091 
L 358.296652 72.629127 
L 358.696931 72.629127 
L 358.696931 72.058162 
L 359.911677 72.058162 
L 359.911677 71.487197 
L 360.311956 71.487197 
L 360.311956 70.916233 
L 360.489146 70.916233 
L 360.489146 70.345268 
L 361.674306 70.345268 
L 361.674306 69.774304 
L 362.877626 69.774304 
L 362.877626 69.203339 
L 363.933361 69.203339 
L 363.933361 68.632375 
L 364.458055 68.632375 
L 364.486504 66.919481 
L 364.726323 66.919481 
L 364.726323 66.348517 
L 364.886783 66.348517 
L 364.886783 65.777552 
L 365.548387 65.777552 
L 365.548387 65.206587 
L 368.803197 65.206587 
L 368.803197 64.635623 
L 369.829853 64.635623 
L 369.829853 64.064658 
L 370.123214 64.064658 
L 370.123214 63.493694 
L 370.418223 63.493694 
L 370.418223 62.922729 
L 370.816929 62.922729 
L 370.816929 62.351765 
L 372.465416 62.351765 
L 372.465416 61.7808 
L 372.88725 61.7808 
L 372.88725 61.209836 
L 374.03377 61.209836 
L 374.03377 60.638871 
L 374.99305 60.638871 
L 374.99305 60.067907 
L 375.286352 60.067907 
L 375.286352 59.496942 
L 376.317466 59.496942 
L 376.317466 58.925977 
L 376.471512 58.925977 
L 376.471512 58.355013 
L 376.901377 58.355013 
L 376.94269 57.213084 
L 377.674832 57.213084 
L 377.674832 56.642119 
L 378.086537 56.642119 
L 378.086537 56.071155 
L 378.259048 56.071155 
L 378.259048 55.50019 
L 379.289857 55.50019 
L 379.289857 54.929226 
L 379.523528 54.929226 
L 379.523528 54.358261 
L 380.894612 54.358261 
L 380.894612 53.787296 
L 381.138554 53.787296 
L 381.138554 53.216332 
L 381.476204 53.216332 
L 381.476204 52.645367 
L 382.661364 52.645367 
L 382.661364 52.074403 
L 383.182388 52.074403 
L 383.286897 50.932474 
L 383.582667 50.932474 
L 383.582667 50.361509 
L 383.864684 50.361509 
L 383.864684 49.790545 
L 385.713381 49.790545 
L 385.713381 49.21958 
L 386.503738 49.21958 
L 386.503738 48.648616 
L 387.684455 48.648616 
L 387.684455 48.077651 
L 388.787433 48.077651 
L 388.819098 46.935722 
L 389.299481 46.935722 
L 389.299481 46.364757 
L 393.056254 46.364757 
L 393.056254 45.793793 
L 393.688934 45.793793 
L 393.688934 45.222828 
L 393.874308 45.222828 
L 393.874308 44.651864 
L 394.671279 44.651864 
L 394.671279 44.080899 
L 395.652356 44.080899 
L 395.691817 42.93897 
L 396.052635 42.93897 
L 396.052635 42.368006 
L 397.306843 42.368006 
L 397.306843 41.797041 
L 399.246106 41.797041 
L 399.246106 41.226076 
L 400.172088 41.226076 
L 400.172088 40.655112 
L 401.289066 40.655112 
L 401.357248 39.513183 
L 401.88167 39.513183 
L 401.88167 38.942218 
L 402.560568 38.942218 
L 402.560568 38.371254 
L 404.409265 38.371254 
L 404.409265 37.800289 
L 406.158902 37.800289 
L 406.158902 37.229325 
L 412.570192 37.229325 
L 412.642056 36.087396 
L 413.827216 36.087396 
L 413.827216 35.516431 
L 415.030536 35.516431 
L 415.030536 34.945466 
L 416.879233 34.945466 
L 416.879233 34.374502 
L 417.94199 34.374502 
L 417.94199 33.803537 
L 420.577554 33.803537 
L 420.577554 33.232573 
L 425.04016 33.232573 
L 425.04016 32.661608 
L 430.411958 32.661608 
L 430.411958 32.090644 
L 433.047522 32.090644 
L 433.047522 31.519679 
L 453.192 31.519679 
L 453.192 31.519679 
" style="fill:none;stroke:#bf00bf;stroke-linecap:square;stroke-width:3;"/>
   </g>
   <g id="line2d_45">
    <path clip-path="url(#p792ff047b2)" style="fill:none;stroke:#bf00bf;stroke-linecap:square;stroke-width:3;"/>
   </g>
   <g id="line2d_46">
    <path clip-path="url(#p792ff047b2)" d="M 34.16 180.048676 
L 272.71023 180.048676 
L 272.71023 178.758139 
L 289.463734 178.758139 
L 289.463734 177.467603 
L 300.633647 177.467603 
L 300.633647 176.177067 
L 305.854225 176.177067 
L 305.854225 174.886531 
L 305.973869 174.886531 
L 305.973869 173.595994 
L 306.116808 173.595994 
L 306.116808 172.305458 
L 312.388811 172.305458 
L 312.388811 171.014922 
L 314.031738 171.014922 
L 314.031738 169.724385 
L 316.773095 169.724385 
L 316.773095 168.433849 
L 317.410437 168.433849 
L 317.410437 167.143313 
L 320.170195 167.143313 
L 320.170195 165.852776 
L 321.422546 165.852776 
L 321.422546 164.56224 
L 323.210968 164.56224 
L 323.210968 163.271704 
L 326.245665 163.271704 
L 326.245665 161.981168 
L 330.257961 161.981168 
L 330.257961 160.690631 
L 333.5266 160.690631 
L 333.5266 159.400095 
L 339.652067 159.400095 
L 339.742777 156.819022 
L 342.99917 156.819022 
L 342.99917 155.528486 
L 344.696512 155.528486 
L 344.696512 154.23795 
L 347.011465 154.23795 
L 347.011465 152.947413 
L 349.91709 152.947413 
L 349.91709 151.656877 
L 350.036734 151.656877 
L 350.036734 150.366341 
L 350.179674 150.366341 
L 350.179674 149.075804 
L 354.169082 149.075804 
L 354.169082 147.785268 
L 355.487351 147.785268 
L 355.487351 146.494732 
L 356.405571 146.494732 
L 356.496282 142.623123 
L 358.094603 142.623123 
L 358.181378 140.04205 
L 359.38966 140.04205 
L 359.38966 138.751514 
L 359.509304 138.751514 
L 359.509304 137.460978 
L 359.652244 137.460978 
L 359.652244 136.170441 
L 361.473302 136.170441 
L 361.473302 134.879905 
L 363.401956 134.879905 
L 363.401956 133.589369 
L 363.5216 133.589369 
L 363.5216 132.298832 
L 363.664539 132.298832 
L 363.664539 131.008296 
L 364.23306 131.008296 
L 364.23306 129.71776 
L 365.485411 129.71776 
L 365.485411 128.427224 
L 365.924247 128.427224 
L 365.924247 127.136687 
L 367.273834 127.136687 
L 367.273834 125.846151 
L 367.567173 125.846151 
L 367.666194 121.974542 
L 369.936543 121.974542 
L 369.936543 120.684006 
L 370.945872 120.684006 
L 370.945872 119.393469 
L 371.500377 119.393469 
L 371.579469 116.812397 
L 372.240856 116.812397 
L 372.240856 115.521861 
L 372.796062 115.521861 
L 372.886772 112.940788 
L 372.915706 112.940788 
L 373.006416 110.359715 
L 373.058645 110.359715 
L 373.149356 107.778643 
L 373.70563 107.778643 
L 373.70563 106.488106 
L 374.957981 106.488106 
L 374.958168 103.907034 
L 376.746404 103.907034 
L 376.746404 102.616497 
L 377.717926 102.616497 
L 377.717926 101.325961 
L 378.970277 101.325961 
L 378.970277 100.035425 
L 379.330648 100.035425 
L 379.421359 97.454352 
L 380.758699 97.454352 
L 380.758699 96.163816 
L 380.973575 96.163816 
L 381.064285 93.582743 
L 383.410768 93.582743 
L 383.410768 92.292207 
L 384.352274 92.292207 
L 384.442984 89.711134 
L 387.112032 89.711134 
L 387.202742 87.130062 
L 388.253881 87.130062 
L 388.364383 84.548989 
L 388.455093 84.548989 
L 388.455093 83.258453 
L 388.631346 83.258453 
L 388.631346 81.967917 
L 388.75099 81.967917 
L 388.75099 80.67738 
L 388.893929 80.67738 
L 388.893929 79.386844 
L 390.152805 79.386844 
L 390.243516 76.805771 
L 395.165933 76.805771 
L 395.165933 75.515235 
L 396.808859 75.515235 
L 396.808859 74.224699 
L 399.423794 74.224699 
L 399.423794 72.934162 
L 400.187558 72.934162 
L 400.187558 71.643626 
L 402.947316 71.643626 
L 402.947316 70.35309 
L 404.199667 70.35309 
L 404.199667 69.062553 
L 404.644372 69.062553 
L 404.644372 67.772017 
L 404.764016 67.772017 
L 404.764016 66.481481 
L 404.906955 66.481481 
L 404.906955 65.190945 
L 405.988089 65.190945 
L 405.988089 63.900408 
L 411.178959 63.900408 
L 411.178959 62.609872 
L 412.821885 62.609872 
L 412.821885 61.319336 
L 416.200584 61.319336 
L 416.200584 60.028799 
L 418.960342 60.028799 
L 418.960342 58.738263 
L 420.212693 58.738263 
L 420.212693 57.447727 
L 422.001115 57.447727 
L 422.001115 56.15719 
L 453.192 56.15719 
L 453.192 56.15719 
" style="fill:none;stroke:#ff0000;stroke-linecap:square;stroke-width:3;"/>
   </g>
   <g id="line2d_47">
    <path clip-path="url(#p792ff047b2)" style="fill:none;stroke:#ff0000;stroke-linecap:square;stroke-width:3;"/>
   </g>
   <g id="line2d_48">
    <path clip-path="url(#p792ff047b2)" d="M 243.676 291.28 
L 243.676 3 
" style="fill:none;stroke:#000000;stroke-linecap:square;stroke-width:1.5;"/>
   </g>
   <g id="line2d_49">
    <path clip-path="url(#p792ff047b2)" d="M 34.16 147.14 
L 453.192 147.14 
" style="fill:none;stroke:#000000;stroke-dasharray:2,3.3;stroke-dashoffset:0;stroke-width:2;"/>
   </g>
   <g id="patch_3">
    <path d="M 34.16 291.28 
L 34.16 3 
" style="fill:none;stroke:#000000;stroke-linecap:square;stroke-linejoin:miter;stroke-width:0.8;"/>
   </g>
   <g id="patch_4">
    <path d="M 453.192 291.28 
L 453.192 3 
" style="fill:none;stroke:#000000;stroke-linecap:square;stroke-linejoin:miter;stroke-width:0.8;"/>
   </g>
   <g id="patch_5">
    <path d="M 34.16 291.28 
L 453.192 291.28 
" style="fill:none;stroke:#000000;stroke-linecap:square;stroke-linejoin:miter;stroke-width:0.8;"/>
   </g>
   <g id="patch_6">
    <path d="M 34.16 3 
L 453.192 3 
" style="fill:none;stroke:#000000;stroke-linecap:square;stroke-linejoin:miter;stroke-width:0.8;"/>
   </g>
   <g id="text_6">
    <!-- f6-f9,5-D -->
    <g transform="translate(356.36761 285.5144)scale(0.2 -0.2)">
     <defs>
      <path d="M 33.015625 40.375 
Q 26.375 40.375 22.484375 35.828125 
Q 18.609375 31.296875 18.609375 23.390625 
Q 18.609375 15.53125 22.484375 10.953125 
Q 26.375 6.390625 33.015625 6.390625 
Q 39.65625 6.390625 43.53125 10.953125 
Q 47.40625 15.53125 47.40625 23.390625 
Q 47.40625 31.296875 43.53125 35.828125 
Q 39.65625 40.375 33.015625 40.375 
z
M 52.59375 71.296875 
L 52.59375 62.3125 
Q 48.875 64.0625 45.09375 64.984375 
Q 41.3125 65.921875 37.59375 65.921875 
Q 27.828125 65.921875 22.671875 59.328125 
Q 17.53125 52.734375 16.796875 39.40625 
Q 19.671875 43.65625 24.015625 45.921875 
Q 28.375 48.1875 33.59375 48.1875 
Q 44.578125 48.1875 50.953125 41.515625 
Q 57.328125 34.859375 57.328125 23.390625 
Q 57.328125 12.15625 50.6875 5.359375 
Q 44.046875 -1.421875 33.015625 -1.421875 
Q 20.359375 -1.421875 13.671875 8.265625 
Q 6.984375 17.96875 6.984375 36.375 
Q 6.984375 53.65625 15.1875 63.9375 
Q 23.390625 74.21875 37.203125 74.21875 
Q 40.921875 74.21875 44.703125 73.484375 
Q 48.484375 72.75 52.59375 71.296875 
z
" id="DejaVuSans-54"/>
      <path d="M 10.984375 1.515625 
L 10.984375 10.5 
Q 14.703125 8.734375 18.5 7.8125 
Q 22.3125 6.890625 25.984375 6.890625 
Q 35.75 6.890625 40.890625 13.453125 
Q 46.046875 20.015625 46.78125 33.40625 
Q 43.953125 29.203125 39.59375 26.953125 
Q 35.25 24.703125 29.984375 24.703125 
Q 19.046875 24.703125 12.671875 31.3125 
Q 6.296875 37.9375 6.296875 49.421875 
Q 6.296875 60.640625 12.9375 67.421875 
Q 19.578125 74.21875 30.609375 74.21875 
Q 43.265625 74.21875 49.921875 64.515625 
Q 56.59375 54.828125 56.59375 36.375 
Q 56.59375 19.140625 48.40625 8.859375 
Q 40.234375 -1.421875 26.421875 -1.421875 
Q 22.703125 -1.421875 18.890625 -0.6875 
Q 15.09375 0.046875 10.984375 1.515625 
z
M 30.609375 32.421875 
Q 37.25 32.421875 41.125 36.953125 
Q 45.015625 41.5 45.015625 49.421875 
Q 45.015625 57.28125 41.125 61.84375 
Q 37.25 66.40625 30.609375 66.40625 
Q 23.96875 66.40625 20.09375 61.84375 
Q 16.21875 57.28125 16.21875 49.421875 
Q 16.21875 41.5 20.09375 36.953125 
Q 23.96875 32.421875 30.609375 32.421875 
z
" id="DejaVuSans-57"/>
      <path d="M 11.71875 12.40625 
L 22.015625 12.40625 
L 22.015625 4 
L 14.015625 -11.625 
L 7.71875 -11.625 
L 11.71875 4 
z
" id="DejaVuSans-44"/>
      <path d="M 10.796875 72.90625 
L 49.515625 72.90625 
L 49.515625 64.59375 
L 19.828125 64.59375 
L 19.828125 46.734375 
Q 21.96875 47.46875 24.109375 47.828125 
Q 26.265625 48.1875 28.421875 48.1875 
Q 40.625 48.1875 47.75 41.5 
Q 54.890625 34.8125 54.890625 23.390625 
Q 54.890625 11.625 47.5625 5.09375 
Q 40.234375 -1.421875 26.90625 -1.421875 
Q 22.3125 -1.421875 17.546875 -0.640625 
Q 12.796875 0.140625 7.71875 1.703125 
L 7.71875 11.625 
Q 12.109375 9.234375 16.796875 8.0625 
Q 21.484375 6.890625 26.703125 6.890625 
Q 35.15625 6.890625 40.078125 11.328125 
Q 45.015625 15.765625 45.015625 23.390625 
Q 45.015625 31 40.078125 35.4375 
Q 35.15625 39.890625 26.703125 39.890625 
Q 22.75 39.890625 18.8125 39.015625 
Q 14.890625 38.140625 10.796875 36.28125 
z
" id="DejaVuSans-53"/>
      <path d="M 19.671875 64.796875 
L 19.671875 8.109375 
L 31.59375 8.109375 
Q 46.6875 8.109375 53.6875 14.9375 
Q 60.6875 21.78125 60.6875 36.53125 
Q 60.6875 51.171875 53.6875 57.984375 
Q 46.6875 64.796875 31.59375 64.796875 
z
M 9.8125 72.90625 
L 30.078125 72.90625 
Q 51.265625 72.90625 61.171875 64.09375 
Q 71.09375 55.28125 71.09375 36.53125 
Q 71.09375 17.671875 61.125 8.828125 
Q 51.171875 0 30.078125 0 
L 9.8125 0 
z
" id="DejaVuSans-68"/>
     </defs>
     <use xlink:href="#DejaVuSans-102"/>
     <use x="35.205078" xlink:href="#DejaVuSans-54"/>
     <use x="98.828125" xlink:href="#DejaVuSans-45"/>
     <use x="134.912109" xlink:href="#DejaVuSans-102"/>
     <use x="170.117188" xlink:href="#DejaVuSans-57"/>
     <use x="233.740234" xlink:href="#DejaVuSans-44"/>
     <use x="265.527344" xlink:href="#DejaVuSans-53"/>
     <use x="329.150391" xlink:href="#DejaVuSans-45"/>
     <use x="365.234375" xlink:href="#DejaVuSans-68"/>
    </g>
   </g>
   <g id="text_7">
    <!-- v2.4 -->
    <g style="fill:#808080;" transform="translate(232.765062 286.317512)scale(0.1 -0.1)">
     <defs>
      <path d="M 19.1875 8.296875 
L 53.609375 8.296875 
L 53.609375 0 
L 7.328125 0 
L 7.328125 8.296875 
Q 12.9375 14.109375 22.625 23.890625 
Q 32.328125 33.6875 34.8125 36.53125 
Q 39.546875 41.84375 41.421875 45.53125 
Q 43.3125 49.21875 43.3125 52.78125 
Q 43.3125 58.59375 39.234375 62.25 
Q 35.15625 65.921875 28.609375 65.921875 
Q 23.96875 65.921875 18.8125 64.3125 
Q 13.671875 62.703125 7.8125 59.421875 
L 7.8125 69.390625 
Q 13.765625 71.78125 18.9375 73 
Q 24.125 74.21875 28.421875 74.21875 
Q 39.75 74.21875 46.484375 68.546875 
Q 53.21875 62.890625 53.21875 53.421875 
Q 53.21875 48.921875 51.53125 44.890625 
Q 49.859375 40.875 45.40625 35.40625 
Q 44.1875 33.984375 37.640625 27.21875 
Q 31.109375 20.453125 19.1875 8.296875 
z
" id="DejaVuSans-50"/>
      <path d="M 10.6875 12.40625 
L 21 12.40625 
L 21 0 
L 10.6875 0 
z
" id="DejaVuSans-46"/>
      <path d="M 37.796875 64.3125 
L 12.890625 25.390625 
L 37.796875 25.390625 
z
M 35.203125 72.90625 
L 47.609375 72.90625 
L 47.609375 25.390625 
L 58.015625 25.390625 
L 58.015625 17.1875 
L 47.609375 17.1875 
L 47.609375 0 
L 37.796875 0 
L 37.796875 17.1875 
L 4.890625 17.1875 
L 4.890625 26.703125 
z
" id="DejaVuSans-52"/>
     </defs>
     <use xlink:href="#DejaVuSans-118"/>
     <use x="59.179688" xlink:href="#DejaVuSans-50"/>
     <use x="122.802734" xlink:href="#DejaVuSans-46"/>
     <use x="154.589844" xlink:href="#DejaVuSans-52"/>
    </g>
   </g>
   <g id="legend_1">
    <g id="patch_7">
     <path d="M 48.16 136.425 
L 177.381875 136.425 
Q 181.381875 136.425 181.381875 132.425 
L 181.381875 17 
Q 181.381875 13 177.381875 13 
L 48.16 13 
Q 44.16 13 44.16 17 
L 44.16 132.425 
Q 44.16 136.425 48.16 136.425 
z
" style="fill:#ffffff;opacity:0.2;stroke:#cccccc;stroke-linejoin:miter;"/>
    </g>
    <g id="line2d_50">
     <path d="M 52.16 29.196875 
L 92.16 29.196875 
" style="fill:none;stroke:#000000;stroke-linecap:square;stroke-width:3;"/>
    </g>
    <g id="line2d_51"/>
    <g id="text_8">
     <!-- 1: 4/4 -->
     <g transform="translate(108.16 36.196875)scale(0.2 -0.2)">
      <defs>
       <path d="M 11.71875 12.40625 
L 22.015625 12.40625 
L 22.015625 0 
L 11.71875 0 
z
M 11.71875 51.703125 
L 22.015625 51.703125 
L 22.015625 39.3125 
L 11.71875 39.3125 
z
" id="DejaVuSans-58"/>
       <path d="M 25.390625 72.90625 
L 33.6875 72.90625 
L 8.296875 -9.28125 
L 0 -9.28125 
z
" id="DejaVuSans-47"/>
      </defs>
      <use xlink:href="#DejaVuSans-49"/>
      <use x="63.623047" xlink:href="#DejaVuSans-58"/>
      <use x="97.314453" xlink:href="#DejaVuSans-32"/>
      <use x="129.101562" xlink:href="#DejaVuSans-52"/>
      <use x="192.724609" xlink:href="#DejaVuSans-47"/>
      <use x="226.416016" xlink:href="#DejaVuSans-52"/>
     </g>
    </g>
    <g id="line2d_52">
     <path d="M 52.16 58.553125 
L 92.16 58.553125 
" style="fill:none;stroke:#00bfbf;stroke-linecap:square;stroke-width:3;"/>
    </g>
    <g id="line2d_53"/>
    <g id="text_9">
     <!-- -1: 4/3 -->
     <g transform="translate(108.16 65.553125)scale(0.2 -0.2)">
      <defs>
       <path d="M 40.578125 39.3125 
Q 47.65625 37.796875 51.625 33 
Q 55.609375 28.21875 55.609375 21.1875 
Q 55.609375 10.40625 48.1875 4.484375 
Q 40.765625 -1.421875 27.09375 -1.421875 
Q 22.515625 -1.421875 17.65625 -0.515625 
Q 12.796875 0.390625 7.625 2.203125 
L 7.625 11.71875 
Q 11.71875 9.328125 16.59375 8.109375 
Q 21.484375 6.890625 26.8125 6.890625 
Q 36.078125 6.890625 40.9375 10.546875 
Q 45.796875 14.203125 45.796875 21.1875 
Q 45.796875 27.640625 41.28125 31.265625 
Q 36.765625 34.90625 28.71875 34.90625 
L 20.21875 34.90625 
L 20.21875 43.015625 
L 29.109375 43.015625 
Q 36.375 43.015625 40.234375 45.921875 
Q 44.09375 48.828125 44.09375 54.296875 
Q 44.09375 59.90625 40.109375 62.90625 
Q 36.140625 65.921875 28.71875 65.921875 
Q 24.65625 65.921875 20.015625 65.03125 
Q 15.375 64.15625 9.8125 62.3125 
L 9.8125 71.09375 
Q 15.4375 72.65625 20.34375 73.4375 
Q 25.25 74.21875 29.59375 74.21875 
Q 40.828125 74.21875 47.359375 69.109375 
Q 53.90625 64.015625 53.90625 55.328125 
Q 53.90625 49.265625 50.4375 45.09375 
Q 46.96875 40.921875 40.578125 39.3125 
z
" id="DejaVuSans-51"/>
      </defs>
      <use xlink:href="#DejaVuSans-45"/>
      <use x="36.083984" xlink:href="#DejaVuSans-49"/>
      <use x="99.707031" xlink:href="#DejaVuSans-58"/>
      <use x="133.398438" xlink:href="#DejaVuSans-32"/>
      <use x="165.185547" xlink:href="#DejaVuSans-52"/>
      <use x="228.808594" xlink:href="#DejaVuSans-47"/>
      <use x="262.5" xlink:href="#DejaVuSans-51"/>
     </g>
    </g>
    <g id="line2d_54">
     <path d="M 52.16 87.909375 
L 92.16 87.909375 
" style="fill:none;stroke:#bf00bf;stroke-linecap:square;stroke-width:3;"/>
    </g>
    <g id="line2d_55"/>
    <g id="text_10">
     <!-- -4: 2/2 -->
     <g transform="translate(108.16 94.909375)scale(0.2 -0.2)">
      <use xlink:href="#DejaVuSans-45"/>
      <use x="36.083984" xlink:href="#DejaVuSans-52"/>
      <use x="99.707031" xlink:href="#DejaVuSans-58"/>
      <use x="133.398438" xlink:href="#DejaVuSans-32"/>
      <use x="165.185547" xlink:href="#DejaVuSans-50"/>
      <use x="228.808594" xlink:href="#DejaVuSans-47"/>
      <use x="262.5" xlink:href="#DejaVuSans-50"/>
     </g>
    </g>
    <g id="line2d_56">
     <path d="M 52.16 117.265625 
L 92.16 117.265625 
" style="fill:none;stroke:#ff0000;stroke-linecap:square;stroke-width:3;"/>
    </g>
    <g id="line2d_57"/>
    <g id="text_11">
     <!-- -8: 1/2 -->
     <g transform="translate(108.16 124.265625)scale(0.2 -0.2)">
      <defs>
       <path d="M 31.78125 34.625 
Q 24.75 34.625 20.71875 30.859375 
Q 16.703125 27.09375 16.703125 20.515625 
Q 16.703125 13.921875 20.71875 10.15625 
Q 24.75 6.390625 31.78125 6.390625 
Q 38.8125 6.390625 42.859375 10.171875 
Q 46.921875 13.96875 46.921875 20.515625 
Q 46.921875 27.09375 42.890625 30.859375 
Q 38.875 34.625 31.78125 34.625 
z
M 21.921875 38.8125 
Q 15.578125 40.375 12.03125 44.71875 
Q 8.5 49.078125 8.5 55.328125 
Q 8.5 64.0625 14.71875 69.140625 
Q 20.953125 74.21875 31.78125 74.21875 
Q 42.671875 74.21875 48.875 69.140625 
Q 55.078125 64.0625 55.078125 55.328125 
Q 55.078125 49.078125 51.53125 44.71875 
Q 48 40.375 41.703125 38.8125 
Q 48.828125 37.15625 52.796875 32.3125 
Q 56.78125 27.484375 56.78125 20.515625 
Q 56.78125 9.90625 50.3125 4.234375 
Q 43.84375 -1.421875 31.78125 -1.421875 
Q 19.734375 -1.421875 13.25 4.234375 
Q 6.78125 9.90625 6.78125 20.515625 
Q 6.78125 27.484375 10.78125 32.3125 
Q 14.796875 37.15625 21.921875 38.8125 
z
M 18.3125 54.390625 
Q 18.3125 48.734375 21.84375 45.5625 
Q 25.390625 42.390625 31.78125 42.390625 
Q 38.140625 42.390625 41.71875 45.5625 
Q 45.3125 48.734375 45.3125 54.390625 
Q 45.3125 60.0625 41.71875 63.234375 
Q 38.140625 66.40625 31.78125 66.40625 
Q 25.390625 66.40625 21.84375 63.234375 
Q 18.3125 60.0625 18.3125 54.390625 
z
" id="DejaVuSans-56"/>
      </defs>
      <use xlink:href="#DejaVuSans-45"/>
      <use x="36.083984" xlink:href="#DejaVuSans-56"/>
      <use x="99.707031" xlink:href="#DejaVuSans-58"/>
      <use x="133.398438" xlink:href="#DejaVuSans-32"/>
      <use x="165.185547" xlink:href="#DejaVuSans-49"/>
      <use x="228.808594" xlink:href="#DejaVuSans-47"/>
      <use x="262.5" xlink:href="#DejaVuSans-50"/>
     </g>
    </g>
   </g>
  </g>
 </g>
 <defs>
  <clipPath id="p792ff047b2">
   <rect height="288.28" width="419.032" x="34.16" y="3"/>
  </clipPath>
 </defs>
</svg>
