<?xml version="1.0" encoding="utf-8" standalone="no"?>
<!DOCTYPE svg PUBLIC "-//W3C//DTD SVG 1.1//EN"
  "http://www.w3.org/Graphics/SVG/1.1/DTD/svg11.dtd">
<!-- Created with matplotlib (https://matplotlib.org/) -->
<svg height="345.6pt" version="1.1" viewBox="0 0 460.8 345.6" width="460.8pt" xmlns="http://www.w3.org/2000/svg" xmlns:xlink="http://www.w3.org/1999/xlink">
 <metadata>
  <rdf:RDF xmlns:cc="http://creativecommons.org/ns#" xmlns:dc="http://purl.org/dc/elements/1.1/" xmlns:rdf="http://www.w3.org/1999/02/22-rdf-syntax-ns#">
   <cc:Work>
    <dc:type rdf:resource="http://purl.org/dc/dcmitype/StillImage"/>
    <dc:date>2021-04-25T22:54:23.602622</dc:date>
    <dc:format>image/svg+xml</dc:format>
    <dc:creator>
     <cc:Agent>
      <dc:title>Matplotlib v3.3.2, https://matplotlib.org/</dc:title>
     </cc:Agent>
    </dc:creator>
   </cc:Work>
  </rdf:RDF>
 </metadata>
 <defs>
  <style type="text/css">*{stroke-linecap:butt;stroke-linejoin:round;}</style>
 </defs>
 <g id="figure_1">
  <g id="patch_1">
   <path d="M 0 345.6 
L 460.8 345.6 
L 460.8 0 
L 0 0 
z
" style="fill:#ffffff;"/>
  </g>
  <g id="axes_1">
   <g id="patch_2">
    <path d="M 34.16 291.28 
L 453.192 291.28 
L 453.192 3 
L 34.16 3 
z
" style="fill:#ffffff;"/>
   </g>
   <g id="matplotlib.axis_1">
    <g id="xtick_1">
     <g id="line2d_1">
      <path clip-path="url(#p9f17ff0735)" d="M 118.503369 291.28 
L 118.503369 3 
" style="fill:none;stroke:#b0b0b0;stroke-linecap:square;stroke-width:0.8;"/>
     </g>
     <g id="line2d_2">
      <defs>
       <path d="M 0 0 
L 0 3.5 
" id="mf19938b673" style="stroke:#000000;stroke-width:0.8;"/>
      </defs>
      <g>
       <use style="stroke:#000000;stroke-width:0.8;" x="118.503369" xlink:href="#mf19938b673" y="291.28"/>
      </g>
     </g>
     <g id="text_1">
      <!-- -1 -->
      <g transform="translate(108.533057 313.476875)scale(0.2 -0.2)">
       <defs>
        <path d="M 4.890625 31.390625 
L 31.203125 31.390625 
L 31.203125 23.390625 
L 4.890625 23.390625 
z
" id="DejaVuSans-45"/>
        <path d="M 12.40625 8.296875 
L 28.515625 8.296875 
L 28.515625 63.921875 
L 10.984375 60.40625 
L 10.984375 69.390625 
L 28.421875 72.90625 
L 38.28125 72.90625 
L 38.28125 8.296875 
L 54.390625 8.296875 
L 54.390625 0 
L 12.40625 0 
z
" id="DejaVuSans-49"/>
       </defs>
       <use xlink:href="#DejaVuSans-45"/>
       <use x="36.083984" xlink:href="#DejaVuSans-49"/>
      </g>
     </g>
    </g>
    <g id="xtick_2">
     <g id="line2d_3">
      <path clip-path="url(#p9f17ff0735)" d="M 243.676 291.28 
L 243.676 3 
" style="fill:none;stroke:#b0b0b0;stroke-linecap:square;stroke-width:0.8;"/>
     </g>
     <g id="line2d_4">
      <g>
       <use style="stroke:#000000;stroke-width:0.8;" x="243.676" xlink:href="#mf19938b673" y="291.28"/>
      </g>
     </g>
     <g id="text_2">
      <!-- 0 -->
      <g transform="translate(237.3135 313.476875)scale(0.2 -0.2)">
       <defs>
        <path d="M 31.78125 66.40625 
Q 24.171875 66.40625 20.328125 58.90625 
Q 16.5 51.421875 16.5 36.375 
Q 16.5 21.390625 20.328125 13.890625 
Q 24.171875 6.390625 31.78125 6.390625 
Q 39.453125 6.390625 43.28125 13.890625 
Q 47.125 21.390625 47.125 36.375 
Q 47.125 51.421875 43.28125 58.90625 
Q 39.453125 66.40625 31.78125 66.40625 
z
M 31.78125 74.21875 
Q 44.046875 74.21875 50.515625 64.515625 
Q 56.984375 54.828125 56.984375 36.375 
Q 56.984375 17.96875 50.515625 8.265625 
Q 44.046875 -1.421875 31.78125 -1.421875 
Q 19.53125 -1.421875 13.0625 8.265625 
Q 6.59375 17.96875 6.59375 36.375 
Q 6.59375 54.828125 13.0625 64.515625 
Q 19.53125 74.21875 31.78125 74.21875 
z
" id="DejaVuSans-48"/>
       </defs>
       <use xlink:href="#DejaVuSans-48"/>
      </g>
     </g>
    </g>
    <g id="xtick_3">
     <g id="line2d_5">
      <path clip-path="url(#p9f17ff0735)" d="M 368.848631 291.28 
L 368.848631 3 
" style="fill:none;stroke:#b0b0b0;stroke-linecap:square;stroke-width:0.8;"/>
     </g>
     <g id="line2d_6">
      <g>
       <use style="stroke:#000000;stroke-width:0.8;" x="368.848631" xlink:href="#mf19938b673" y="291.28"/>
      </g>
     </g>
     <g id="text_3">
      <!-- 1 -->
      <g transform="translate(362.486131 313.476875)scale(0.2 -0.2)">
       <use xlink:href="#DejaVuSans-49"/>
      </g>
     </g>
    </g>
    <g id="xtick_4">
     <g id="line2d_7">
      <defs>
       <path d="M 0 0 
L 0 2 
" id="m886b6e368b" style="stroke:#000000;stroke-width:0.6;"/>
      </defs>
      <g>
       <use style="stroke:#000000;stroke-width:0.6;" x="53.053261" xlink:href="#m886b6e368b" y="291.28"/>
      </g>
     </g>
    </g>
    <g id="xtick_5">
     <g id="line2d_8">
      <g>
       <use style="stroke:#000000;stroke-width:0.6;" x="68.692172" xlink:href="#m886b6e368b" y="291.28"/>
      </g>
     </g>
    </g>
    <g id="xtick_6">
     <g id="line2d_9">
      <g>
       <use style="stroke:#000000;stroke-width:0.6;" x="80.822653" xlink:href="#m886b6e368b" y="291.28"/>
      </g>
     </g>
    </g>
    <g id="xtick_7">
     <g id="line2d_10">
      <g>
       <use style="stroke:#000000;stroke-width:0.6;" x="90.733978" xlink:href="#m886b6e368b" y="291.28"/>
      </g>
     </g>
    </g>
    <g id="xtick_8">
     <g id="line2d_11">
      <g>
       <use style="stroke:#000000;stroke-width:0.6;" x="99.113884" xlink:href="#m886b6e368b" y="291.28"/>
      </g>
     </g>
    </g>
    <g id="xtick_9">
     <g id="line2d_12">
      <g>
       <use style="stroke:#000000;stroke-width:0.6;" x="106.372888" xlink:href="#m886b6e368b" y="291.28"/>
      </g>
     </g>
    </g>
    <g id="xtick_10">
     <g id="line2d_13">
      <g>
       <use style="stroke:#000000;stroke-width:0.6;" x="112.775784" xlink:href="#m886b6e368b" y="291.28"/>
      </g>
     </g>
    </g>
    <g id="xtick_11">
     <g id="line2d_14">
      <g>
       <use style="stroke:#000000;stroke-width:0.6;" x="156.184086" xlink:href="#m886b6e368b" y="291.28"/>
      </g>
     </g>
    </g>
    <g id="xtick_12">
     <g id="line2d_15">
      <g>
       <use style="stroke:#000000;stroke-width:0.6;" x="178.225892" xlink:href="#m886b6e368b" y="291.28"/>
      </g>
     </g>
    </g>
    <g id="xtick_13">
     <g id="line2d_16">
      <g>
       <use style="stroke:#000000;stroke-width:0.6;" x="193.864802" xlink:href="#m886b6e368b" y="291.28"/>
      </g>
     </g>
    </g>
    <g id="xtick_14">
     <g id="line2d_17">
      <g>
       <use style="stroke:#000000;stroke-width:0.6;" x="205.995284" xlink:href="#m886b6e368b" y="291.28"/>
      </g>
     </g>
    </g>
    <g id="xtick_15">
     <g id="line2d_18">
      <g>
       <use style="stroke:#000000;stroke-width:0.6;" x="215.906608" xlink:href="#m886b6e368b" y="291.28"/>
      </g>
     </g>
    </g>
    <g id="xtick_16">
     <g id="line2d_19">
      <g>
       <use style="stroke:#000000;stroke-width:0.6;" x="224.286514" xlink:href="#m886b6e368b" y="291.28"/>
      </g>
     </g>
    </g>
    <g id="xtick_17">
     <g id="line2d_20">
      <g>
       <use style="stroke:#000000;stroke-width:0.6;" x="231.545519" xlink:href="#m886b6e368b" y="291.28"/>
      </g>
     </g>
    </g>
    <g id="xtick_18">
     <g id="line2d_21">
      <g>
       <use style="stroke:#000000;stroke-width:0.6;" x="237.948415" xlink:href="#m886b6e368b" y="291.28"/>
      </g>
     </g>
    </g>
    <g id="xtick_19">
     <g id="line2d_22">
      <g>
       <use style="stroke:#000000;stroke-width:0.6;" x="281.356716" xlink:href="#m886b6e368b" y="291.28"/>
      </g>
     </g>
    </g>
    <g id="xtick_20">
     <g id="line2d_23">
      <g>
       <use style="stroke:#000000;stroke-width:0.6;" x="303.398523" xlink:href="#m886b6e368b" y="291.28"/>
      </g>
     </g>
    </g>
    <g id="xtick_21">
     <g id="line2d_24">
      <g>
       <use style="stroke:#000000;stroke-width:0.6;" x="319.037433" xlink:href="#m886b6e368b" y="291.28"/>
      </g>
     </g>
    </g>
    <g id="xtick_22">
     <g id="line2d_25">
      <g>
       <use style="stroke:#000000;stroke-width:0.6;" x="331.167914" xlink:href="#m886b6e368b" y="291.28"/>
      </g>
     </g>
    </g>
    <g id="xtick_23">
     <g id="line2d_26">
      <g>
       <use style="stroke:#000000;stroke-width:0.6;" x="341.079239" xlink:href="#m886b6e368b" y="291.28"/>
      </g>
     </g>
    </g>
    <g id="xtick_24">
     <g id="line2d_27">
      <g>
       <use style="stroke:#000000;stroke-width:0.6;" x="349.459145" xlink:href="#m886b6e368b" y="291.28"/>
      </g>
     </g>
    </g>
    <g id="xtick_25">
     <g id="line2d_28">
      <g>
       <use style="stroke:#000000;stroke-width:0.6;" x="356.718149" xlink:href="#m886b6e368b" y="291.28"/>
      </g>
     </g>
    </g>
    <g id="xtick_26">
     <g id="line2d_29">
      <g>
       <use style="stroke:#000000;stroke-width:0.6;" x="363.121045" xlink:href="#m886b6e368b" y="291.28"/>
      </g>
     </g>
    </g>
    <g id="xtick_27">
     <g id="line2d_30">
      <g>
       <use style="stroke:#000000;stroke-width:0.6;" x="406.529347" xlink:href="#m886b6e368b" y="291.28"/>
      </g>
     </g>
    </g>
    <g id="xtick_28">
     <g id="line2d_31">
      <g>
       <use style="stroke:#000000;stroke-width:0.6;" x="428.571153" xlink:href="#m886b6e368b" y="291.28"/>
      </g>
     </g>
    </g>
    <g id="xtick_29">
     <g id="line2d_32">
      <g>
       <use style="stroke:#000000;stroke-width:0.6;" x="444.210063" xlink:href="#m886b6e368b" y="291.28"/>
      </g>
     </g>
    </g>
    <g id="text_4">
     <!-- log10 of FEvals ratio -->
     <g transform="translate(141.371312 336.833125)scale(0.2 -0.2)">
      <defs>
       <path d="M 9.421875 75.984375 
L 18.40625 75.984375 
L 18.40625 0 
L 9.421875 0 
z
" id="DejaVuSans-108"/>
       <path d="M 30.609375 48.390625 
Q 23.390625 48.390625 19.1875 42.75 
Q 14.984375 37.109375 14.984375 27.296875 
Q 14.984375 17.484375 19.15625 11.84375 
Q 23.34375 6.203125 30.609375 6.203125 
Q 37.796875 6.203125 41.984375 11.859375 
Q 46.1875 17.53125 46.1875 27.296875 
Q 46.1875 37.015625 41.984375 42.703125 
Q 37.796875 48.390625 30.609375 48.390625 
z
M 30.609375 56 
Q 42.328125 56 49.015625 48.375 
Q 55.71875 40.765625 55.71875 27.296875 
Q 55.71875 13.875 49.015625 6.21875 
Q 42.328125 -1.421875 30.609375 -1.421875 
Q 18.84375 -1.421875 12.171875 6.21875 
Q 5.515625 13.875 5.515625 27.296875 
Q 5.515625 40.765625 12.171875 48.375 
Q 18.84375 56 30.609375 56 
z
" id="DejaVuSans-111"/>
       <path d="M 45.40625 27.984375 
Q 45.40625 37.75 41.375 43.109375 
Q 37.359375 48.484375 30.078125 48.484375 
Q 22.859375 48.484375 18.828125 43.109375 
Q 14.796875 37.75 14.796875 27.984375 
Q 14.796875 18.265625 18.828125 12.890625 
Q 22.859375 7.515625 30.078125 7.515625 
Q 37.359375 7.515625 41.375 12.890625 
Q 45.40625 18.265625 45.40625 27.984375 
z
M 54.390625 6.78125 
Q 54.390625 -7.171875 48.1875 -13.984375 
Q 42 -20.796875 29.203125 -20.796875 
Q 24.46875 -20.796875 20.265625 -20.09375 
Q 16.0625 -19.390625 12.109375 -17.921875 
L 12.109375 -9.1875 
Q 16.0625 -11.328125 19.921875 -12.34375 
Q 23.78125 -13.375 27.78125 -13.375 
Q 36.625 -13.375 41.015625 -8.765625 
Q 45.40625 -4.15625 45.40625 5.171875 
L 45.40625 9.625 
Q 42.625 4.78125 38.28125 2.390625 
Q 33.9375 0 27.875 0 
Q 17.828125 0 11.671875 7.65625 
Q 5.515625 15.328125 5.515625 27.984375 
Q 5.515625 40.671875 11.671875 48.328125 
Q 17.828125 56 27.875 56 
Q 33.9375 56 38.28125 53.609375 
Q 42.625 51.21875 45.40625 46.390625 
L 45.40625 54.6875 
L 54.390625 54.6875 
z
" id="DejaVuSans-103"/>
       <path id="DejaVuSans-32"/>
       <path d="M 37.109375 75.984375 
L 37.109375 68.5 
L 28.515625 68.5 
Q 23.6875 68.5 21.796875 66.546875 
Q 19.921875 64.59375 19.921875 59.515625 
L 19.921875 54.6875 
L 34.71875 54.6875 
L 34.71875 47.703125 
L 19.921875 47.703125 
L 19.921875 0 
L 10.890625 0 
L 10.890625 47.703125 
L 2.296875 47.703125 
L 2.296875 54.6875 
L 10.890625 54.6875 
L 10.890625 58.5 
Q 10.890625 67.625 15.140625 71.796875 
Q 19.390625 75.984375 28.609375 75.984375 
z
" id="DejaVuSans-102"/>
       <path d="M 9.8125 72.90625 
L 51.703125 72.90625 
L 51.703125 64.59375 
L 19.671875 64.59375 
L 19.671875 43.109375 
L 48.578125 43.109375 
L 48.578125 34.8125 
L 19.671875 34.8125 
L 19.671875 0 
L 9.8125 0 
z
" id="DejaVuSans-70"/>
       <path d="M 9.8125 72.90625 
L 55.90625 72.90625 
L 55.90625 64.59375 
L 19.671875 64.59375 
L 19.671875 43.015625 
L 54.390625 43.015625 
L 54.390625 34.71875 
L 19.671875 34.71875 
L 19.671875 8.296875 
L 56.78125 8.296875 
L 56.78125 0 
L 9.8125 0 
z
" id="DejaVuSans-69"/>
       <path d="M 2.984375 54.6875 
L 12.5 54.6875 
L 29.59375 8.796875 
L 46.6875 54.6875 
L 56.203125 54.6875 
L 35.6875 0 
L 23.484375 0 
z
" id="DejaVuSans-118"/>
       <path d="M 34.28125 27.484375 
Q 23.390625 27.484375 19.1875 25 
Q 14.984375 22.515625 14.984375 16.5 
Q 14.984375 11.71875 18.140625 8.90625 
Q 21.296875 6.109375 26.703125 6.109375 
Q 34.1875 6.109375 38.703125 11.40625 
Q 43.21875 16.703125 43.21875 25.484375 
L 43.21875 27.484375 
z
M 52.203125 31.203125 
L 52.203125 0 
L 43.21875 0 
L 43.21875 8.296875 
Q 40.140625 3.328125 35.546875 0.953125 
Q 30.953125 -1.421875 24.3125 -1.421875 
Q 15.921875 -1.421875 10.953125 3.296875 
Q 6 8.015625 6 15.921875 
Q 6 25.140625 12.171875 29.828125 
Q 18.359375 34.515625 30.609375 34.515625 
L 43.21875 34.515625 
L 43.21875 35.40625 
Q 43.21875 41.609375 39.140625 45 
Q 35.0625 48.390625 27.6875 48.390625 
Q 23 48.390625 18.546875 47.265625 
Q 14.109375 46.140625 10.015625 43.890625 
L 10.015625 52.203125 
Q 14.9375 54.109375 19.578125 55.046875 
Q 24.21875 56 28.609375 56 
Q 40.484375 56 46.34375 49.84375 
Q 52.203125 43.703125 52.203125 31.203125 
z
" id="DejaVuSans-97"/>
       <path d="M 44.28125 53.078125 
L 44.28125 44.578125 
Q 40.484375 46.53125 36.375 47.5 
Q 32.28125 48.484375 27.875 48.484375 
Q 21.1875 48.484375 17.84375 46.4375 
Q 14.5 44.390625 14.5 40.28125 
Q 14.5 37.15625 16.890625 35.375 
Q 19.28125 33.59375 26.515625 31.984375 
L 29.59375 31.296875 
Q 39.15625 29.25 43.1875 25.515625 
Q 47.21875 21.78125 47.21875 15.09375 
Q 47.21875 7.46875 41.1875 3.015625 
Q 35.15625 -1.421875 24.609375 -1.421875 
Q 20.21875 -1.421875 15.453125 -0.5625 
Q 10.6875 0.296875 5.421875 2 
L 5.421875 11.28125 
Q 10.40625 8.6875 15.234375 7.390625 
Q 20.0625 6.109375 24.8125 6.109375 
Q 31.15625 6.109375 34.5625 8.28125 
Q 37.984375 10.453125 37.984375 14.40625 
Q 37.984375 18.0625 35.515625 20.015625 
Q 33.0625 21.96875 24.703125 23.78125 
L 21.578125 24.515625 
Q 13.234375 26.265625 9.515625 29.90625 
Q 5.8125 33.546875 5.8125 39.890625 
Q 5.8125 47.609375 11.28125 51.796875 
Q 16.75 56 26.8125 56 
Q 31.78125 56 36.171875 55.265625 
Q 40.578125 54.546875 44.28125 53.078125 
z
" id="DejaVuSans-115"/>
       <path d="M 41.109375 46.296875 
Q 39.59375 47.171875 37.8125 47.578125 
Q 36.03125 48 33.890625 48 
Q 26.265625 48 22.1875 43.046875 
Q 18.109375 38.09375 18.109375 28.8125 
L 18.109375 0 
L 9.078125 0 
L 9.078125 54.6875 
L 18.109375 54.6875 
L 18.109375 46.1875 
Q 20.953125 51.171875 25.484375 53.578125 
Q 30.03125 56 36.53125 56 
Q 37.453125 56 38.578125 55.875 
Q 39.703125 55.765625 41.0625 55.515625 
z
" id="DejaVuSans-114"/>
       <path d="M 18.3125 70.21875 
L 18.3125 54.6875 
L 36.8125 54.6875 
L 36.8125 47.703125 
L 18.3125 47.703125 
L 18.3125 18.015625 
Q 18.3125 11.328125 20.140625 9.421875 
Q 21.96875 7.515625 27.59375 7.515625 
L 36.8125 7.515625 
L 36.8125 0 
L 27.59375 0 
Q 17.1875 0 13.234375 3.875 
Q 9.28125 7.765625 9.28125 18.015625 
L 9.28125 47.703125 
L 2.6875 47.703125 
L 2.6875 54.6875 
L 9.28125 54.6875 
L 9.28125 70.21875 
z
" id="DejaVuSans-116"/>
       <path d="M 9.421875 54.6875 
L 18.40625 54.6875 
L 18.40625 0 
L 9.421875 0 
z
M 9.421875 75.984375 
L 18.40625 75.984375 
L 18.40625 64.59375 
L 9.421875 64.59375 
z
" id="DejaVuSans-105"/>
      </defs>
      <use xlink:href="#DejaVuSans-108"/>
      <use x="27.783203" xlink:href="#DejaVuSans-111"/>
      <use x="88.964844" xlink:href="#DejaVuSans-103"/>
      <use x="152.441406" xlink:href="#DejaVuSans-49"/>
      <use x="216.064453" xlink:href="#DejaVuSans-48"/>
      <use x="279.6875" xlink:href="#DejaVuSans-32"/>
      <use x="311.474609" xlink:href="#DejaVuSans-111"/>
      <use x="372.65625" xlink:href="#DejaVuSans-102"/>
      <use x="407.861328" xlink:href="#DejaVuSans-32"/>
      <use x="439.648438" xlink:href="#DejaVuSans-70"/>
      <use x="497.167969" xlink:href="#DejaVuSans-69"/>
      <use x="560.351562" xlink:href="#DejaVuSans-118"/>
      <use x="619.53125" xlink:href="#DejaVuSans-97"/>
      <use x="680.810547" xlink:href="#DejaVuSans-108"/>
      <use x="708.59375" xlink:href="#DejaVuSans-115"/>
      <use x="760.693359" xlink:href="#DejaVuSans-32"/>
      <use x="792.480469" xlink:href="#DejaVuSans-114"/>
      <use x="833.59375" xlink:href="#DejaVuSans-97"/>
      <use x="894.873047" xlink:href="#DejaVuSans-116"/>
      <use x="934.082031" xlink:href="#DejaVuSans-105"/>
      <use x="961.865234" xlink:href="#DejaVuSans-111"/>
     </g>
    </g>
   </g>
   <g id="matplotlib.axis_2">
    <g id="ytick_1">
     <g id="line2d_33">
      <path clip-path="url(#p9f17ff0735)" d="M 34.16 288.453725 
L 453.192 288.453725 
" style="fill:none;stroke:#b0b0b0;stroke-linecap:square;stroke-width:0.8;"/>
     </g>
     <g id="line2d_34">
      <defs>
       <path d="M 0 0 
L -3.5 0 
" id="m4f68b6870e" style="stroke:#000000;stroke-width:0.8;"/>
      </defs>
      <g>
       <use style="stroke:#000000;stroke-width:0.8;" x="34.16" xlink:href="#m4f68b6870e" y="288.453725"/>
      </g>
     </g>
    </g>
    <g id="ytick_2">
     <g id="line2d_35">
      <path clip-path="url(#p9f17ff0735)" d="M 34.16 217.796863 
L 453.192 217.796863 
" style="fill:none;stroke:#b0b0b0;stroke-linecap:square;stroke-width:0.8;"/>
     </g>
     <g id="line2d_36">
      <g>
       <use style="stroke:#000000;stroke-width:0.8;" x="34.16" xlink:href="#m4f68b6870e" y="217.796863"/>
      </g>
     </g>
    </g>
    <g id="ytick_3">
     <g id="line2d_37">
      <path clip-path="url(#p9f17ff0735)" d="M 34.16 147.14 
L 453.192 147.14 
" style="fill:none;stroke:#b0b0b0;stroke-linecap:square;stroke-width:0.8;"/>
     </g>
     <g id="line2d_38">
      <g>
       <use style="stroke:#000000;stroke-width:0.8;" x="34.16" xlink:href="#m4f68b6870e" y="147.14"/>
      </g>
     </g>
    </g>
    <g id="ytick_4">
     <g id="line2d_39">
      <path clip-path="url(#p9f17ff0735)" d="M 34.16 76.483137 
L 453.192 76.483137 
" style="fill:none;stroke:#b0b0b0;stroke-linecap:square;stroke-width:0.8;"/>
     </g>
     <g id="line2d_40">
      <g>
       <use style="stroke:#000000;stroke-width:0.8;" x="34.16" xlink:href="#m4f68b6870e" y="76.483137"/>
      </g>
     </g>
    </g>
    <g id="ytick_5">
     <g id="line2d_41">
      <path clip-path="url(#p9f17ff0735)" d="M 34.16 5.826275 
L 453.192 5.826275 
" style="fill:none;stroke:#b0b0b0;stroke-linecap:square;stroke-width:0.8;"/>
     </g>
     <g id="line2d_42">
      <g>
       <use style="stroke:#000000;stroke-width:0.8;" x="34.16" xlink:href="#m4f68b6870e" y="5.826275"/>
      </g>
     </g>
    </g>
    <g id="text_5">
     <!-- proportion of trials -->
     <g transform="translate(19.000625 240.14625)rotate(-90)scale(0.2 -0.2)">
      <defs>
       <path d="M 18.109375 8.203125 
L 18.109375 -20.796875 
L 9.078125 -20.796875 
L 9.078125 54.6875 
L 18.109375 54.6875 
L 18.109375 46.390625 
Q 20.953125 51.265625 25.265625 53.625 
Q 29.59375 56 35.59375 56 
Q 45.5625 56 51.78125 48.09375 
Q 58.015625 40.1875 58.015625 27.296875 
Q 58.015625 14.40625 51.78125 6.484375 
Q 45.5625 -1.421875 35.59375 -1.421875 
Q 29.59375 -1.421875 25.265625 0.953125 
Q 20.953125 3.328125 18.109375 8.203125 
z
M 48.6875 27.296875 
Q 48.6875 37.203125 44.609375 42.84375 
Q 40.53125 48.484375 33.40625 48.484375 
Q 26.265625 48.484375 22.1875 42.84375 
Q 18.109375 37.203125 18.109375 27.296875 
Q 18.109375 17.390625 22.1875 11.75 
Q 26.265625 6.109375 33.40625 6.109375 
Q 40.53125 6.109375 44.609375 11.75 
Q 48.6875 17.390625 48.6875 27.296875 
z
" id="DejaVuSans-112"/>
       <path d="M 54.890625 33.015625 
L 54.890625 0 
L 45.90625 0 
L 45.90625 32.71875 
Q 45.90625 40.484375 42.875 44.328125 
Q 39.84375 48.1875 33.796875 48.1875 
Q 26.515625 48.1875 22.3125 43.546875 
Q 18.109375 38.921875 18.109375 30.90625 
L 18.109375 0 
L 9.078125 0 
L 9.078125 54.6875 
L 18.109375 54.6875 
L 18.109375 46.1875 
Q 21.34375 51.125 25.703125 53.5625 
Q 30.078125 56 35.796875 56 
Q 45.21875 56 50.046875 50.171875 
Q 54.890625 44.34375 54.890625 33.015625 
z
" id="DejaVuSans-110"/>
      </defs>
      <use xlink:href="#DejaVuSans-112"/>
      <use x="63.476562" xlink:href="#DejaVuSans-114"/>
      <use x="102.339844" xlink:href="#DejaVuSans-111"/>
      <use x="163.521484" xlink:href="#DejaVuSans-112"/>
      <use x="226.998047" xlink:href="#DejaVuSans-111"/>
      <use x="288.179688" xlink:href="#DejaVuSans-114"/>
      <use x="329.292969" xlink:href="#DejaVuSans-116"/>
      <use x="368.501953" xlink:href="#DejaVuSans-105"/>
      <use x="396.285156" xlink:href="#DejaVuSans-111"/>
      <use x="457.466797" xlink:href="#DejaVuSans-110"/>
      <use x="520.845703" xlink:href="#DejaVuSans-32"/>
      <use x="552.632812" xlink:href="#DejaVuSans-111"/>
      <use x="613.814453" xlink:href="#DejaVuSans-102"/>
      <use x="649.019531" xlink:href="#DejaVuSans-32"/>
      <use x="680.806641" xlink:href="#DejaVuSans-116"/>
      <use x="720.015625" xlink:href="#DejaVuSans-114"/>
      <use x="761.128906" xlink:href="#DejaVuSans-105"/>
      <use x="788.912109" xlink:href="#DejaVuSans-97"/>
      <use x="850.191406" xlink:href="#DejaVuSans-108"/>
      <use x="877.974609" xlink:href="#DejaVuSans-115"/>
     </g>
    </g>
   </g>
   <g id="line2d_43">
    <path clip-path="url(#p9f17ff0735)" d="M 34.16 239.85715 
L 79.04014 239.85715 
L 79.04014 239.601379 
L 102.864459 239.601379 
L 102.864459 239.345607 
L 103.698628 239.345607 
L 103.698628 239.089836 
L 106.809531 239.089836 
L 106.809531 238.834064 
L 110.123464 238.834064 
L 110.123464 238.578293 
L 116.720856 238.578293 
L 116.720856 238.322522 
L 118.027552 238.322522 
L 118.027552 238.06675 
L 123.599327 238.06675 
L 123.599327 237.810979 
L 125.100762 237.810979 
L 125.100762 237.555207 
L 126.282586 237.555207 
L 126.282586 237.299436 
L 129.222871 237.299436 
L 129.222871 237.043664 
L 130.633851 237.043664 
L 130.633851 236.532121 
L 132.359767 236.532121 
L 132.359767 236.27635 
L 135.623304 236.27635 
L 135.623304 236.020578 
L 137.892855 236.020578 
L 137.892855 235.509036 
L 138.762662 235.509036 
L 138.762662 235.253264 
L 140.489733 235.253264 
L 140.545176 234.48595 
L 144.490248 234.48595 
L 144.490248 234.230178 
L 144.68882 234.230178 
L 144.68882 233.974407 
L 147.80418 233.974407 
L 147.80418 233.718635 
L 148.925081 233.718635 
L 148.925081 233.462864 
L 149.952229 233.462864 
L 149.952229 233.207093 
L 154.051978 233.207093 
L 154.051978 232.951321 
L 155.524004 232.951321 
L 155.524004 232.69555 
L 156.184086 232.69555 
L 156.184086 231.672464 
L 158.403242 231.672464 
L 158.403242 231.416692 
L 158.752837 231.416692 
L 158.752837 231.160921 
L 161.147548 231.160921 
L 161.147548 230.905149 
L 162.009076 230.905149 
L 162.009076 230.649378 
L 162.586982 230.649378 
L 162.586982 230.393607 
L 163.44309 230.393607 
L 163.44309 230.137835 
L 163.963303 230.137835 
L 163.963303 229.626292 
L 165.662247 229.626292 
L 165.662247 229.370521 
L 165.833196 229.370521 
L 165.833196 229.114749 
L 166.532054 229.114749 
L 166.532054 228.858978 
L 168.314567 228.858978 
L 168.314567 228.091664 
L 169.845986 228.091664 
L 169.845986 227.835892 
L 170.003911 227.835892 
L 170.003911 227.580121 
L 172.343209 227.580121 
L 172.414409 227.068578 
L 173.987529 227.068578 
L 173.987529 226.812806 
L 175.573572 226.812806 
L 175.573572 226.301263 
L 176.338001 226.301263 
L 176.338001 226.045492 
L 176.613497 226.045492 
L 176.694473 225.533949 
L 177.677174 225.533949 
L 177.677174 225.278178 
L 178.225892 225.278178 
L 178.225892 224.766635 
L 179.382569 224.766635 
L 179.382569 224.510863 
L 179.602213 224.510863 
L 179.602213 224.255092 
L 180.295908 224.255092 
L 180.349125 223.743549 
L 181.909776 223.743549 
L 181.909776 223.487777 
L 182.170964 223.487777 
L 182.170964 223.232006 
L 182.577156 223.232006 
L 182.577156 222.976235 
L 183.953477 222.976235 
L 183.953477 221.953149 
L 184.332835 221.953149 
L 184.332835 221.697377 
L 186.005109 221.697377 
L 186.005109 221.441606 
L 186.605798 221.441606 
L 186.605798 221.185834 
L 187.53332 221.185834 
L 187.53332 220.930063 
L 188.316454 220.930063 
L 188.316454 220.674292 
L 189.836161 220.674292 
L 189.904611 220.162749 
L 190.356373 220.162749 
L 190.356373 219.651206 
L 190.589853 219.651206 
L 190.589853 219.395434 
L 190.957062 219.395434 
L 190.957062 219.139663 
L 191.212482 219.139663 
L 191.212482 218.883891 
L 191.732694 218.883891 
L 191.732694 218.372349 
L 192.006099 218.372349 
L 192.082289 217.860806 
L 193.864802 217.860806 
L 193.888229 216.83772 
L 195.440616 216.83772 
L 195.528154 216.326177 
L 196.083959 216.326177 
L 196.083959 216.070405 
L 197.577874 216.070405 
L 197.615378 215.04732 
L 197.757873 215.04732 
L 197.757873 214.791548 
L 197.957815 214.791548 
L 197.957815 214.535777 
L 198.800181 214.535777 
L 198.800181 214.280005 
L 199.511773 214.280005 
L 199.511773 214.024234 
L 200.267698 214.024234 
L 200.267698 213.768462 
L 201.644019 213.768462 
L 201.644019 213.512691 
L 202.244708 213.512691 
L 202.244708 213.001148 
L 202.999269 213.001148 
L 202.999269 212.745377 
L 203.201418 212.745377 
L 203.206889 212.233834 
L 203.342963 212.233834 
L 203.342963 211.978062 
L 204.21277 211.978062 
L 204.21277 211.722291 
L 204.918777 211.722291 
L 204.918777 211.466519 
L 205.995284 211.466519 
L 205.995284 210.187662 
L 206.795016 210.187662 
L 206.795016 209.931891 
L 207.254488 209.931891 
L 207.254488 209.676119 
L 209.503713 209.676119 
L 209.503713 209.164576 
L 210.023925 209.164576 
L 210.023925 208.908805 
L 210.346548 208.908805 
L 210.346548 208.653033 
L 210.465893 208.653033 
L 210.490553 208.141491 
L 210.778634 208.141491 
L 210.778634 207.885719 
L 210.994103 207.885719 
L 211.016862 207.374176 
L 212.220584 207.374176 
L 212.273802 206.862633 
L 213.254288 206.862633 
L 213.254288 206.606862 
L 213.774501 206.606862 
L 213.774501 206.35109 
L 214.468279 206.35109 
L 214.468279 206.095319 
L 214.977722 206.095319 
L 214.977722 205.839548 
L 215.906608 205.839548 
L 215.906608 204.816462 
L 216.114096 204.816462 
L 216.114096 204.56069 
L 217.28293 204.56069 
L 217.28293 204.304919 
L 217.605552 204.304919 
L 217.605552 204.049147 
L 218.125765 204.049147 
L 218.125765 203.793376 
L 218.667366 203.793376 
L 218.667366 203.537604 
L 219.069059 203.537604 
L 219.069059 203.281833 
L 220.257873 203.281833 
L 220.257873 203.026062 
L 220.591723 203.026062 
L 220.591723 202.77029 
L 221.583412 202.77029 
L 221.634194 202.002976 
L 222.881739 202.002976 
L 222.881739 201.747204 
L 223.165613 201.747204 
L 223.165613 201.491433 
L 223.685825 201.491433 
L 223.685825 201.235661 
L 224.143645 201.235661 
L 224.143645 200.97989 
L 224.26051 200.97989 
L 224.286514 200.468347 
L 225.384769 200.468347 
L 225.384769 199.956804 
L 226.625016 199.956804 
L 226.625016 199.701033 
L 227.155187 199.701033 
L 227.155187 199.445261 
L 227.365293 199.445261 
L 227.380958 198.933718 
L 228.03709 198.933718 
L 228.03709 198.422175 
L 229.413411 198.422175 
L 229.413411 197.910633 
L 229.819603 197.910633 
L 229.882492 197.39909 
L 230.078128 197.39909 
L 230.078128 197.143318 
L 230.97628 197.143318 
L 230.97628 196.887547 
L 231.545519 196.887547 
L 231.580045 196.376004 
L 232.138479 196.376004 
L 232.138479 196.120232 
L 232.778731 196.120232 
L 232.778731 195.864461 
L 233.397984 195.864461 
L 233.397984 195.60869 
L 233.764675 195.60869 
L 233.764675 195.352918 
L 234.841181 195.352918 
L 234.841181 195.097147 
L 235.296094 195.097147 
L 235.296094 194.585604 
L 235.896783 194.585604 
L 235.896783 194.074061 
L 236.122098 194.074061 
L 236.122098 193.818289 
L 236.942234 193.818289 
L 236.942234 193.562518 
L 237.078607 193.562518 
L 237.078607 193.306747 
L 237.948415 193.306747 
L 237.948415 193.050975 
L 238.235285 193.050975 
L 238.235285 192.795204 
L 238.490219 192.795204 
L 238.589434 192.283661 
L 238.606356 192.283661 
L 238.659574 191.772118 
L 238.969759 191.772118 
L 238.969759 191.516346 
L 239.324736 191.516346 
L 239.324736 191.260575 
L 239.811743 191.260575 
L 239.811743 191.004803 
L 240.887605 191.004803 
L 240.977839 190.493261 
L 241.02368 190.493261 
L 241.02368 190.237489 
L 242.100186 190.237489 
L 242.100186 189.981718 
L 243.676 189.981718 
L 243.676 188.191318 
L 244.045593 188.191318 
L 244.045593 187.935546 
L 244.16121 187.935546 
L 244.16121 187.679775 
L 244.407053 187.679775 
L 244.407053 187.424003 
L 244.593303 187.424003 
L 244.593303 187.168232 
L 246.601191 187.168232 
L 246.654409 186.656689 
L 248.24468 186.656689 
L 248.24468 186.400917 
L 249.267511 186.400917 
L 249.267511 186.145146 
L 249.784753 186.145146 
L 249.784753 185.889375 
L 249.978828 185.889375 
L 249.978828 185.633603 
L 250.584809 185.633603 
L 250.638027 185.12206 
L 250.935005 185.12206 
L 250.935005 184.610517 
L 251.455217 184.610517 
L 251.455217 184.098974 
L 252.5164 184.098974 
L 252.5164 183.843203 
L 252.724421 183.843203 
L 252.819143 183.33166 
L 253.23773 183.33166 
L 253.23773 183.075889 
L 253.587325 183.075889 
L 253.587325 182.820117 
L 253.751065 182.820117 
L 253.751065 182.564346 
L 254.274454 182.564346 
L 254.327672 182.052803 
L 255.306763 182.052803 
L 255.306763 181.797031 
L 255.602372 181.797031 
L 255.602372 181.54126 
L 255.806481 181.54126 
L 255.860164 181.029717 
L 256.107224 181.029717 
L 256.107224 180.773946 
L 256.268264 180.773946 
L 256.268264 180.518174 
L 256.526515 180.518174 
L 256.619521 179.75086 
L 257.262345 179.75086 
L 257.3379 179.239317 
L 257.588994 179.239317 
L 257.588994 178.983545 
L 257.938589 178.983545 
L 257.938589 178.727774 
L 258.177542 178.727774 
L 258.259309 178.216231 
L 258.390919 178.216231 
L 258.390919 177.96046 
L 258.554044 177.96046 
L 258.554044 177.704688 
L 259.31491 177.704688 
L 259.31491 177.193145 
L 260.059252 177.193145 
L 260.059252 176.937374 
L 260.878539 176.937374 
L 260.878539 176.681602 
L 261.051615 176.681602 
L 261.051615 176.425831 
L 261.245964 176.425831 
L 261.245964 176.170059 
L 261.362146 176.170059 
L 261.362146 175.914288 
L 261.7459 175.914288 
L 261.7459 175.658517 
L 261.927322 175.658517 
L 261.927322 175.402745 
L 262.610573 175.402745 
L 262.610573 175.146974 
L 262.920167 175.146974 
L 262.920167 174.891202 
L 263.065486 174.891202 
L 263.065486 174.379659 
L 263.485344 174.379659 
L 263.485344 174.123888 
L 264.014462 174.123888 
L 264.014462 173.868116 
L 264.263099 173.868116 
L 264.305732 173.356574 
L 264.847999 173.356574 
L 264.935609 172.845031 
L 265.250702 172.845031 
L 265.250702 172.589259 
L 265.717806 172.589259 
L 265.729518 171.566173 
L 266.085796 171.566173 
L 266.085796 171.310402 
L 266.502082 171.310402 
L 266.502082 171.05463 
L 266.869233 171.05463 
L 266.869233 170.798859 
L 267.094127 170.798859 
L 267.187133 170.287316 
L 267.240351 170.287316 
L 267.240351 170.031545 
L 267.500319 170.031545 
L 267.500319 169.775773 
L 267.643817 169.775773 
L 267.643817 169.520002 
L 268.246717 169.520002 
L 268.246717 169.26423 
L 268.866911 169.26423 
L 268.866911 169.008459 
L 269.226235 169.008459 
L 269.226235 168.496916 
L 269.389056 168.496916 
L 269.419163 167.985373 
L 269.869577 167.985373 
L 269.869577 167.729602 
L 270.436149 167.729602 
L 270.436149 167.47383 
L 270.7663 167.47383 
L 270.7663 167.218059 
L 271.068321 167.218059 
L 271.068321 166.962287 
L 271.936362 166.962287 
L 271.936362 166.706516 
L 272.324321 166.706516 
L 272.324321 166.450744 
L 272.521898 166.450744 
L 272.521898 166.194973 
L 272.882968 166.194973 
L 272.882968 165.939201 
L 275.281324 165.939201 
L 275.281324 165.68343 
L 276.007924 165.68343 
L 276.007924 165.427659 
L 277.005452 165.427659 
L 277.005452 165.171887 
L 277.328075 165.171887 
L 277.341701 164.660344 
L 277.567064 164.660344 
L 277.567064 164.404573 
L 277.768944 164.404573 
L 277.848287 163.89303 
L 277.940054 163.89303 
L 277.940054 163.637258 
L 278.454744 163.637258 
L 278.454744 163.381487 
L 278.568322 163.381487 
L 278.568322 163.125716 
L 278.902172 163.125716 
L 278.902172 162.869944 
L 279.125086 162.869944 
L 279.125086 162.614173 
L 279.480411 162.614173 
L 279.498075 162.10263 
L 281.203628 162.10263 
L 281.203628 161.846858 
L 281.356716 161.846858 
L 281.356716 161.079544 
L 281.631468 161.079544 
L 281.631468 160.823773 
L 281.968031 160.823773 
L 281.968031 160.568001 
L 282.084326 160.568001 
L 282.084326 160.31223 
L 282.331842 160.31223 
L 282.331842 160.056458 
L 282.649502 160.056458 
L 282.649502 159.800687 
L 283.13923 159.800687 
L 283.13923 159.289144 
L 283.481195 159.289144 
L 283.481195 159.033372 
L 283.851768 159.033372 
L 283.904985 158.521829 
L 284.078287 158.521829 
L 284.078287 158.266058 
L 284.849041 158.266058 
L 284.849041 158.010287 
L 285.107292 158.010287 
L 285.107292 157.754515 
L 286.395078 157.754515 
L 286.395078 157.498744 
L 286.807976 157.498744 
L 286.897006 156.987201 
L 287.055903 156.987201 
L 287.055903 156.731429 
L 288.160808 156.731429 
L 288.22382 155.964115 
L 288.613925 155.964115 
L 288.613925 155.708344 
L 288.788996 155.708344 
L 288.788996 155.452572 
L 289.135933 155.452572 
L 289.135933 155.196801 
L 290.880625 155.196801 
L 290.918447 154.685258 
L 291.268041 154.685258 
L 291.268041 154.429486 
L 291.48848 154.429486 
L 291.48848 154.173715 
L 292.212697 154.173715 
L 292.245256 153.662172 
L 292.878604 153.662172 
L 292.94747 152.894858 
L 293.118642 152.894858 
L 293.118642 152.639086 
L 293.331733 152.639086 
L 293.331733 152.383315 
L 293.487198 152.383315 
L 293.487198 152.127543 
L 293.75199 152.127543 
L 293.75199 151.871772 
L 293.905367 151.871772 
L 293.929166 151.360229 
L 294.145957 151.360229 
L 294.205119 150.848686 
L 294.512922 150.848686 
L 294.57027 150.081372 
L 294.671284 150.081372 
L 294.671284 149.8256 
L 294.991844 149.8256 
L 294.991844 149.569829 
L 295.206648 149.569829 
L 295.252683 149.058286 
L 295.345149 149.058286 
L 295.345149 148.802514 
L 295.666339 148.802514 
L 295.719557 148.0352 
L 295.940025 148.0352 
L 295.940025 147.779429 
L 296.229306 147.779429 
L 296.291787 147.267886 
L 296.83365 147.267886 
L 296.869575 146.500571 
L 297.097417 146.500571 
L 297.097417 146.2448 
L 297.627974 146.2448 
L 297.705402 145.733257 
L 297.849808 145.733257 
L 297.957807 145.221714 
L 298.289244 145.221714 
L 298.391671 144.710171 
L 298.662234 144.710171 
L 298.671791 144.198628 
L 298.789355 144.198628 
L 298.789355 143.942857 
L 298.996477 143.942857 
L 299.026614 143.431314 
L 299.236967 143.431314 
L 299.263424 142.919771 
L 299.544236 142.919771 
L 299.544236 142.664 
L 299.662741 142.664 
L 299.662741 142.408228 
L 299.9 142.408228 
L 299.9 142.152457 
L 300.449467 142.152457 
L 300.449467 141.896685 
L 300.624787 141.896685 
L 300.686725 141.385142 
L 300.746202 141.385142 
L 300.746202 141.129371 
L 300.85779 141.129371 
L 300.911008 140.617828 
L 301.077019 140.617828 
L 301.077019 140.362057 
L 301.457954 140.362057 
L 301.513675 139.850514 
L 301.591589 139.850514 
L 301.591589 139.594742 
L 302.25263 139.594742 
L 302.33134 138.827428 
L 302.927547 138.827428 
L 302.927547 138.571656 
L 303.112407 138.571656 
L 303.118066 138.060114 
L 303.247518 138.060114 
L 303.247518 137.804342 
L 303.380676 137.804342 
L 303.398523 136.269713 
L 303.703755 136.269713 
L 303.710793 135.758171 
L 304.337103 135.758171 
L 304.428738 135.246628 
L 304.584179 135.246628 
L 304.584179 134.990856 
L 304.790232 134.990856 
L 304.801728 134.479313 
L 305.181036 134.479313 
L 305.181036 134.223542 
L 305.370904 134.223542 
L 305.455523 133.711999 
L 306.027226 133.711999 
L 306.027226 133.456227 
L 306.327494 133.456227 
L 306.328909 132.944685 
L 306.450826 132.944685 
L 306.483888 132.433142 
L 306.675408 132.433142 
L 306.728626 131.921599 
L 306.900612 131.921599 
L 306.900612 131.665827 
L 307.084174 131.665827 
L 307.117236 130.898513 
L 307.231136 130.898513 
L 307.231136 130.642742 
L 307.482948 130.642742 
L 307.570365 129.875427 
L 307.687338 129.875427 
L 307.778084 129.363884 
L 308.075944 129.363884 
L 308.075944 129.108113 
L 308.838298 129.108113 
L 308.838298 128.852341 
L 309.075557 128.852341 
L 309.075557 128.59657 
L 309.851041 128.59657 
L 309.855807 128.085027 
L 310.202614 128.085027 
L 310.247855 127.573484 
L 310.485113 127.573484 
L 310.489156 127.061941 
L 310.657527 127.061941 
L 310.657527 126.80617 
L 310.781746 126.80617 
L 310.811048 126.294627 
L 310.920781 126.294627 
L 310.942284 125.783084 
L 311.409063 125.783084 
L 311.518944 125.01577 
L 311.778428 125.01577 
L 311.778428 124.759998 
L 311.950493 124.759998 
L 311.950493 124.504227 
L 312.12216 124.504227 
L 312.12216 124.248455 
L 312.754978 124.248455 
L 312.823879 123.481141 
L 312.916453 123.481141 
L 312.994926 122.969598 
L 313.027987 122.969598 
L 313.027987 122.713827 
L 313.208637 122.713827 
L 313.265246 121.946512 
L 313.328247 121.946512 
L 313.328247 121.690741 
L 313.610605 121.690741 
L 313.610605 121.434969 
L 313.759736 121.434969 
L 313.759736 121.179198 
L 313.917578 121.179198 
L 313.917578 120.923426 
L 314.312999 120.923426 
L 314.312999 120.667655 
L 314.868137 120.667655 
L 314.876709 120.156112 
L 315.087499 120.156112 
L 315.169292 119.388798 
L 315.249699 119.388798 
L 315.249699 119.133026 
L 315.393464 119.133026 
L 315.504466 118.621483 
L 315.663524 118.621483 
L 315.696586 118.109941 
L 316.002499 118.109941 
L 316.076169 117.598398 
L 316.182509 117.598398 
L 316.182509 117.342626 
L 316.399907 117.342626 
L 316.399907 117.086855 
L 316.637165 117.086855 
L 316.739784 116.575312 
L 316.914022 116.575312 
L 317.013967 116.063769 
L 317.055895 116.063769 
L 317.055895 115.807998 
L 317.336563 115.807998 
L 317.373132 115.296455 
L 317.485726 115.296455 
L 317.575119 114.52914 
L 317.628337 114.52914 
L 317.628337 114.273369 
L 317.756555 114.273369 
L 317.84262 113.250283 
L 317.916363 113.250283 
L 317.949425 112.73874 
L 318.241793 112.73874 
L 318.241793 112.482969 
L 318.389904 112.482969 
L 318.427582 111.971426 
L 318.519698 111.971426 
L 318.519698 111.715654 
L 318.66626 111.715654 
L 318.767843 111.204111 
L 318.843032 111.204111 
L 318.906092 110.436797 
L 319.037433 110.436797 
L 319.068506 109.925254 
L 319.401191 109.925254 
L 319.401191 109.669483 
L 319.539441 109.669483 
L 319.539441 109.413711 
L 319.661093 109.413711 
L 319.694155 108.646397 
L 319.854319 108.646397 
L 319.854319 108.390625 
L 319.992569 108.390625 
L 319.992569 108.134854 
L 320.232797 108.134854 
L 320.265858 107.623311 
L 320.397682 107.623311 
L 320.397682 107.36754 
L 320.548026 107.36754 
L 320.548026 107.111768 
L 320.688612 107.111768 
L 320.688612 106.855997 
L 321.007631 106.855997 
L 321.03103 106.344454 
L 321.321344 106.344454 
L 321.334859 105.57714 
L 321.484159 105.57714 
L 321.532958 105.065597 
L 321.820117 105.065597 
L 321.820117 104.809825 
L 321.999436 104.809825 
L 321.999436 104.554054 
L 322.788008 104.554054 
L 322.788008 104.298282 
L 323.066074 104.298282 
L 323.153461 103.786739 
L 323.283884 103.786739 
L 323.31359 103.275197 
L 323.408993 103.275197 
L 323.408993 103.019425 
L 323.521142 103.019425 
L 323.587697 102.507882 
L 323.637778 102.507882 
L 323.695324 101.996339 
L 323.827101 101.996339 
L 323.83346 101.484796 
L 324.147583 101.484796 
L 324.186976 100.973253 
L 324.300655 100.973253 
L 324.365548 100.205939 
L 324.537913 100.205939 
L 324.570522 99.438625 
L 324.700487 99.438625 
L 324.700487 99.182853 
L 324.836826 99.182853 
L 324.836826 98.927082 
L 324.973701 98.927082 
L 324.973701 98.67131 
L 325.311942 98.67131 
L 325.332427 98.159768 
L 325.440329 98.159768 
L 325.549201 97.136682 
L 325.687451 97.136682 
L 325.748653 96.625139 
L 325.904131 96.625139 
L 325.952482 96.113596 
L 326.156064 96.113596 
L 326.231452 95.346282 
L 326.941781 95.346282 
L 326.969254 94.834739 
L 327.17904 94.834739 
L 327.17904 94.578967 
L 327.641008 94.578967 
L 327.641008 94.323196 
L 327.917113 94.323196 
L 327.980541 93.811653 
L 328.118791 93.811653 
L 328.205321 93.30011 
L 328.236273 93.30011 
L 328.236273 93.044339 
L 328.790499 93.044339 
L 328.790499 92.788567 
L 329.222092 92.788567 
L 329.222092 92.532796 
L 329.561045 92.532796 
L 329.61038 91.50971 
L 329.723583 91.50971 
L 329.723583 91.253938 
L 329.950051 91.253938 
L 329.950051 90.998167 
L 330.232208 90.998167 
L 330.23338 90.486624 
L 330.371629 90.486624 
L 330.421141 89.71931 
L 330.521755 89.71931 
L 330.573221 89.207767 
L 330.966822 89.207767 
L 330.966822 88.951995 
L 331.133139 88.951995 
L 331.167914 87.92891 
L 331.455602 87.92891 
L 331.538526 87.417367 
L 331.827398 87.417367 
L 331.863219 86.905824 
L 331.97811 86.905824 
L 331.980929 86.394281 
L 332.116359 86.394281 
L 332.202123 85.882738 
L 332.549813 85.882738 
L 332.549813 85.626967 
L 332.688063 85.626967 
L 332.757722 84.348109 
L 333.362533 84.348109 
L 333.362533 84.092338 
L 333.477158 84.092338 
L 333.477158 83.836566 
L 333.601432 83.836566 
L 333.607949 83.325024 
L 333.79306 83.325024 
L 333.88021 82.557709 
L 333.913272 82.557709 
L 333.913272 82.301938 
L 334.143295 82.301938 
L 334.179653 81.790395 
L 334.772089 81.790395 
L 334.830561 81.278852 
L 335.015047 81.278852 
L 335.015047 81.02308 
L 335.151324 81.02308 
L 335.237027 80.255766 
L 335.2856 80.255766 
L 335.2856 79.999995 
L 335.962155 79.999995 
L 336.059413 79.488452 
L 336.445022 79.488452 
L 336.493487 78.721137 
L 336.712715 78.721137 
L 336.712715 78.465366 
L 337.285191 78.465366 
L 337.285191 78.209595 
L 337.461793 78.209595 
L 337.552222 77.44228 
L 337.817455 77.44228 
L 337.817455 77.186509 
L 337.966056 77.186509 
L 338.065733 76.419194 
L 338.450803 76.419194 
L 338.47308 75.907651 
L 338.61133 75.907651 
L 338.61133 75.65188 
L 338.903931 75.65188 
L 338.903931 75.396109 
L 339.375613 75.396109 
L 339.375613 75.140337 
L 339.551544 75.140337 
L 339.616652 74.628794 
L 340.10292 74.628794 
L 340.10292 74.373023 
L 340.498094 74.373023 
L 340.498094 74.117251 
L 340.677037 74.117251 
L 340.700932 73.605708 
L 340.924141 73.605708 
L 341.032928 73.094166 
L 341.079239 73.094166 
L 341.153605 72.326851 
L 341.215502 72.326851 
L 341.215502 72.07108 
L 341.437653 72.07108 
L 341.437653 71.815308 
L 341.693808 71.815308 
L 341.693808 71.559537 
L 341.876543 71.559537 
L 341.876543 71.303765 
L 342.122683 71.303765 
L 342.155745 70.792223 
L 342.666238 70.792223 
L 342.705096 70.024908 
L 342.785697 70.024908 
L 342.843345 69.513365 
L 343.190494 69.513365 
L 343.190494 69.257594 
L 343.365659 69.257594 
L 343.365659 69.001822 
L 343.704006 69.001822 
L 343.704006 68.746051 
L 344.131729 68.746051 
L 344.169168 68.234508 
L 344.334935 68.234508 
L 344.419007 67.467194 
L 344.448623 67.467194 
L 344.448623 67.211422 
L 344.598813 67.211422 
L 344.598813 66.955651 
L 344.740806 66.955651 
L 344.740806 66.699879 
L 345.185939 66.699879 
L 345.185939 66.444108 
L 345.430503 66.444108 
L 345.527665 65.932565 
L 345.765038 65.932565 
L 345.812478 65.165251 
L 346.197227 65.165251 
L 346.197227 64.909479 
L 346.335477 64.909479 
L 346.335477 64.653708 
L 346.903299 64.653708 
L 346.971224 64.142165 
L 347.030153 64.142165 
L 347.030153 63.886393 
L 347.160686 63.886393 
L 347.160686 63.630622 
L 347.417869 63.630622 
L 347.417869 63.374851 
L 347.534608 63.374851 
L 347.534608 63.119079 
L 347.646477 63.119079 
L 347.646477 62.863308 
L 347.794018 62.863308 
L 347.849213 61.840222 
L 348.07891 61.840222 
L 348.07891 61.58445 
L 348.321629 61.58445 
L 348.321629 61.328679 
L 348.656068 61.328679 
L 348.656068 61.072907 
L 348.824889 61.072907 
L 348.824889 60.817136 
L 349.167918 60.817136 
L 349.197535 60.049822 
L 349.279786 60.049822 
L 349.3384 59.026736 
L 349.459145 59.026736 
L 349.459145 58.515193 
L 349.831679 58.515193 
L 349.836176 58.00365 
L 349.974426 58.00365 
L 350.064623 57.236336 
L 350.296033 57.236336 
L 350.405659 56.21325 
L 350.487938 56.21325 
L 350.51667 55.701707 
L 351.027722 55.701707 
L 351.027722 55.445936 
L 351.17771 55.445936 
L 351.17771 55.190164 
L 351.466016 55.190164 
L 351.466016 54.934393 
L 351.599425 54.934393 
L 351.599425 54.678621 
L 351.979527 54.678621 
L 351.979527 54.42285 
L 352.312666 54.42285 
L 352.419934 53.655535 
L 352.813232 53.655535 
L 352.813232 53.399764 
L 353.20972 53.399764 
L 353.20972 53.143993 
L 353.404979 53.143993 
L 353.428413 52.63245 
L 353.516848 52.63245 
L 353.516848 52.376678 
L 353.919549 52.376678 
L 353.919549 52.120907 
L 354.031418 52.120907 
L 354.082861 51.353592 
L 354.4397 51.353592 
L 354.4397 51.097821 
L 354.57795 51.097821 
L 354.58059 50.586278 
L 354.692458 50.586278 
L 354.692458 50.330507 
L 355.383314 50.330507 
L 355.383314 50.074735 
L 356.069539 50.074735 
L 356.069539 49.818964 
L 356.608026 49.818964 
L 356.718149 49.051649 
L 357.435557 49.051649 
L 357.522692 48.284335 
L 357.870934 48.284335 
L 357.870934 48.028564 
L 358.290305 48.028564 
L 358.360795 47.517021 
L 358.804875 47.517021 
L 358.804875 47.261249 
L 359.102623 47.261249 
L 359.102623 47.005478 
L 359.465916 47.005478 
L 359.465916 46.749706 
L 359.706827 46.749706 
L 359.769885 46.238163 
L 360.743541 46.238163 
L 360.743541 45.982392 
L 361.403194 45.982392 
L 361.432811 45.470849 
L 361.754708 45.470849 
L 361.754708 45.215078 
L 362.376851 45.215078 
L 362.406468 44.703535 
L 363.109706 44.703535 
L 363.121045 43.93622 
L 363.221575 43.93622 
L 363.321735 43.424677 
L 363.637924 43.424677 
L 363.637924 43.168906 
L 363.845248 43.168906 
L 363.845248 42.913135 
L 364.410424 42.913135 
L 364.460738 42.401592 
L 365.246839 42.401592 
L 365.246839 42.14582 
L 365.390693 42.14582 
L 365.390693 41.890049 
L 365.640256 41.890049 
L 365.640256 41.634277 
L 366.060236 41.634277 
L 366.154826 41.122734 
L 366.613912 41.122734 
L 366.613912 40.866963 
L 366.736725 40.866963 
L 366.815866 40.35542 
L 367.128482 40.35542 
L 367.128482 40.099649 
L 367.789523 40.099649 
L 367.789523 39.843877 
L 367.995032 39.843877 
L 367.995032 39.588106 
L 368.568898 39.588106 
L 368.568898 39.332334 
L 368.848631 39.332334 
L 368.885788 38.309249 
L 369.3993 38.309249 
L 369.3993 38.053477 
L 370.139604 38.053477 
L 370.139604 37.797706 
L 370.251473 37.797706 
L 370.251473 37.541934 
L 370.663105 37.541934 
L 370.663105 37.286163 
L 371.733825 37.286163 
L 371.826036 36.77462 
L 372.415874 36.77462 
L 372.415874 36.518848 
L 373.00032 36.518848 
L 373.00032 36.263077 
L 373.249401 36.263077 
L 373.249401 36.007305 
L 373.489312 36.007305 
L 373.489312 35.751534 
L 373.761906 35.751534 
L 373.761906 35.495763 
L 374.221445 35.495763 
L 374.221445 35.239991 
L 375.02493 35.239991 
L 375.02493 34.98422 
L 375.344983 34.98422 
L 375.447139 34.472677 
L 376.318639 34.472677 
L 376.318639 34.216905 
L 377.164785 34.216905 
L 377.164785 33.961134 
L 377.276654 33.961134 
L 377.276654 33.705362 
L 378.028403 33.705362 
L 378.028403 33.449591 
L 378.759955 33.449591 
L 378.759955 33.19382 
L 379.781172 33.19382 
L 379.781172 32.938048 
L 380.050166 32.938048 
L 380.050166 32.682277 
L 380.423156 32.682277 
L 380.423156 32.426505 
L 381.127204 32.426505 
L 381.127204 32.170734 
L 382.050112 32.170734 
L 382.050112 31.914962 
L 382.374881 31.914962 
L 382.374881 31.659191 
L 383.11122 31.659191 
L 383.11122 31.147648 
L 383.348537 31.147648 
L 383.348537 30.891876 
L 384.364719 30.891876 
L 384.364719 30.636105 
L 384.530083 30.636105 
L 384.530083 30.380334 
L 384.641952 30.380334 
L 384.641952 30.124562 
L 389.350831 30.124562 
L 389.415409 29.357248 
L 389.539005 29.357248 
L 389.539005 29.101476 
L 390.373718 29.101476 
L 390.373718 28.845705 
L 390.567086 28.845705 
L 390.567086 28.589933 
L 390.890437 28.589933 
L 390.890437 27.822619 
L 391.797651 27.822619 
L 391.797651 27.566848 
L 392.319855 27.566848 
L 392.319855 27.311076 
L 392.67295 27.311076 
L 392.67295 27.055305 
L 393.665887 27.055305 
L 393.665887 26.799533 
L 396.629059 26.799533 
L 396.629059 26.543762 
L 396.76536 26.543762 
L 396.76536 26.28799 
L 397.068766 26.28799 
L 397.154386 25.776448 
L 397.180635 25.776448 
L 397.180635 25.520676 
L 397.694528 25.520676 
L 397.739016 25.009133 
L 398.774889 25.009133 
L 398.774889 24.753362 
L 399.316752 24.753362 
L 399.316752 24.49759 
L 400.188504 24.49759 
L 400.188504 24.241819 
L 401.954092 24.241819 
L 401.954092 23.986047 
L 403.740952 23.986047 
L 403.740952 23.474504 
L 406.529347 23.474504 
L 406.529347 22.962962 
L 409.304043 22.962962 
L 409.304043 22.70719 
L 410.277699 22.70719 
L 410.277699 22.451419 
L 412.334143 22.451419 
L 412.334143 22.195647 
L 415.23808 22.195647 
L 415.23808 21.939876 
L 416.440672 21.939876 
L 416.440672 21.428333 
L 428.571153 21.428333 
L 428.571153 20.91679 
L 430.353666 20.91679 
L 430.353666 20.405247 
L 435.375245 20.405247 
L 435.375245 19.893704 
L 453.192 19.893704 
L 453.192 19.893704 
" style="fill:none;stroke:#000000;stroke-linecap:square;stroke-width:3;"/>
   </g>
   <g id="line2d_44">
    <path clip-path="url(#p9f17ff0735)" style="fill:none;stroke:#000000;stroke-linecap:square;stroke-width:3;"/>
   </g>
   <g id="line2d_45">
    <path clip-path="url(#p9f17ff0735)" d="M 34.16 170.609064 
L 249.617079 170.609064 
L 249.617079 170.109722 
L 264.383997 170.109722 
L 264.383997 169.61038 
L 264.5017 169.61038 
L 264.5017 169.111039 
L 265.116659 169.111039 
L 265.116659 168.611697 
L 265.801247 168.611697 
L 265.801247 168.112355 
L 266.563741 168.112355 
L 266.563741 167.613013 
L 268.038673 167.613013 
L 268.038673 167.113671 
L 269.359767 167.113671 
L 269.359767 166.61433 
L 269.56077 166.61433 
L 269.56077 166.114988 
L 270.032605 166.114988 
L 270.032605 165.615646 
L 271.334336 165.615646 
L 271.334336 165.116304 
L 272.881606 165.116304 
L 272.881606 164.616963 
L 273.811299 164.616963 
L 273.811299 164.117621 
L 274.474209 164.117621 
L 274.474209 163.618279 
L 274.695043 163.618279 
L 274.695043 163.118937 
L 275.830271 163.118937 
L 275.830271 162.619595 
L 279.268618 162.619595 
L 279.268618 162.120254 
L 279.883577 162.120254 
L 279.883577 161.620912 
L 280.365289 161.620912 
L 280.365289 161.12157 
L 280.568165 161.12157 
L 280.568165 160.622228 
L 280.858742 160.622228 
L 280.858742 160.122886 
L 281.107159 160.122886 
L 281.107159 159.623545 
L 281.448363 159.623545 
L 281.519233 158.624861 
L 282.063322 158.624861 
L 282.063322 158.125519 
L 282.74791 158.125519 
L 282.805591 157.126836 
L 284.244388 157.126836 
L 284.327688 156.128152 
L 284.799523 156.128152 
L 284.859347 155.129469 
L 284.985336 155.129469 
L 284.985336 154.630127 
L 285.302254 154.630127 
L 285.302254 154.130785 
L 285.543935 154.130785 
L 285.543935 153.631443 
L 286.101254 153.631443 
L 286.101254 153.132101 
L 286.507433 153.132101 
L 286.507433 152.63276 
L 286.979268 152.63276 
L 286.979268 152.133418 
L 287.648524 152.133418 
L 287.648524 151.634076 
L 287.781361 151.634076 
L 287.781361 151.134734 
L 288.280999 151.134734 
L 288.280999 150.635393 
L 288.493514 150.635393 
L 288.493514 150.136051 
L 288.69592 150.136051 
L 288.69592 149.636709 
L 289.241127 149.636709 
L 289.310879 148.138684 
L 289.46196 148.138684 
L 289.46196 147.639342 
L 289.775293 147.639342 
L 289.828269 146.640658 
L 289.995467 146.640658 
L 289.995467 146.141316 
L 290.714892 146.141316 
L 290.714892 145.641975 
L 291.077024 145.641975 
L 291.077024 145.142633 
L 291.329851 145.142633 
L 291.420872 144.143949 
L 291.527064 144.143949 
L 291.527064 143.644607 
L 291.641705 143.644607 
L 291.641705 143.145266 
L 292.014439 143.145266 
L 292.014439 142.645924 
L 292.232893 142.645924 
L 292.311873 141.64724 
L 292.624294 141.64724 
L 292.624294 141.147899 
L 292.935676 141.147899 
L 292.935676 140.648557 
L 293.75499 140.648557 
L 293.75499 140.149215 
L 294.216897 140.149215 
L 294.251865 138.65119 
L 294.437731 138.65119 
L 294.437731 138.151848 
L 295.132207 138.151848 
L 295.132207 137.652506 
L 295.528556 137.652506 
L 295.62566 136.653822 
L 295.773962 136.653822 
L 295.874077 135.655139 
L 296.245797 135.655139 
L 296.245797 135.155797 
L 296.403855 135.155797 
L 296.403855 134.656455 
L 297.018814 134.656455 
L 297.075826 133.657772 
L 297.311952 133.657772 
L 297.311952 133.15843 
L 297.547528 133.15843 
L 297.547528 132.659088 
L 297.703402 132.659088 
L 297.805405 131.660405 
L 298.053822 131.660405 
L 298.053822 131.161063 
L 298.668429 131.161063 
L 298.706463 130.162379 
L 298.889263 130.162379 
L 298.889263 129.663037 
L 299.094798 129.663037 
L 299.094798 129.163696 
L 299.587142 129.163696 
L 299.587142 128.664354 
L 299.940828 128.664354 
L 300.029207 127.66567 
L 300.107977 127.66567 
L 300.186875 126.666987 
L 300.60143 126.666987 
L 300.687401 125.668303 
L 300.801834 125.668303 
L 300.908235 124.170278 
L 301.462925 124.170278 
L 301.486422 123.171594 
L 301.93476 123.171594 
L 301.93476 122.672252 
L 303.23649 122.672252 
L 303.23649 122.172911 
L 303.378136 122.172911 
L 303.378136 121.673569 
L 303.723848 121.673569 
L 303.723848 121.174227 
L 303.993094 121.174227 
L 303.993094 120.674885 
L 304.559509 120.674885 
L 304.559509 120.175544 
L 304.677682 120.175544 
L 304.783761 119.17686 
L 305.052962 119.17686 
L 305.052962 118.677518 
L 305.245945 118.677518 
L 305.301379 117.678835 
L 305.71778 117.678835 
L 305.71778 117.179493 
L 306.376364 117.179493 
L 306.411686 116.180809 
L 306.578481 116.180809 
L 306.597197 115.182126 
L 306.915109 115.182126 
L 307.019511 114.183442 
L 307.026645 114.183442 
L 307.078791 112.685417 
L 307.320351 112.685417 
L 307.320351 112.186075 
L 307.711232 112.186075 
L 307.820298 111.187391 
L 308.435257 111.187391 
L 308.437206 110.188708 
L 308.566781 110.188708 
L 308.566781 109.689366 
L 308.90904 109.689366 
L 308.90904 109.190024 
L 309.119845 109.190024 
L 309.119845 108.690682 
L 309.258536 108.690682 
L 309.258536 108.191341 
L 309.920129 108.191341 
L 309.948659 107.192657 
L 310.159384 107.192657 
L 310.210771 106.193974 
L 310.380218 106.193974 
L 310.380218 105.694632 
L 310.589668 105.694632 
L 310.589668 105.19529 
L 311.357271 105.19529 
L 311.357271 104.695948 
L 311.470756 104.695948 
L 311.470756 104.196606 
L 311.758041 104.196606 
L 311.758041 103.697265 
L 311.942591 103.697265 
L 311.942591 103.197923 
L 312.054561 103.197923 
L 312.054561 102.698581 
L 312.267443 102.698581 
L 312.267443 102.199239 
L 312.760897 102.199239 
L 312.760897 101.699897 
L 312.879368 101.699897 
L 312.879368 101.200556 
L 313.009314 101.200556 
L 313.009314 100.701214 
L 313.244321 100.701214 
L 313.351203 99.203189 
L 313.571478 99.203189 
L 313.591085 98.204505 
L 314.074327 98.204505 
L 314.074327 97.705163 
L 314.206044 97.705163 
L 314.206044 97.205821 
L 314.652934 97.205821 
L 314.652934 96.70648 
L 314.791591 96.70648 
L 314.890632 95.707796 
L 316.034743 95.707796 
L 316.050464 94.709112 
L 316.200204 94.709112 
L 316.260623 93.710429 
L 316.384194 93.710429 
L 316.476808 92.711745 
L 316.506093 92.711745 
L 316.605028 91.21372 
L 316.702688 91.21372 
L 316.792334 90.215036 
L 317.128058 90.215036 
L 317.128058 89.715695 
L 317.792807 89.715695 
L 317.792807 89.216353 
L 318.01364 89.216353 
L 318.01364 88.717011 
L 318.525065 88.717011 
L 318.525065 88.217669 
L 318.650155 88.217669 
L 318.650155 87.718327 
L 319.12199 87.718327 
L 319.12199 87.218986 
L 319.241724 87.218986 
L 319.241724 86.719644 
L 319.735178 86.719644 
L 319.735178 86.220302 
L 319.983595 86.220302 
L 319.983595 85.72096 
L 320.423721 85.72096 
L 320.509199 84.722277 
L 320.951264 84.722277 
L 320.951264 84.222935 
L 321.279669 84.222935 
L 321.279669 83.723593 
L 321.531717 83.723593 
L 321.531717 83.224251 
L 321.721734 83.224251 
L 321.721734 82.72491 
L 321.970991 82.72491 
L 321.973782 81.726226 
L 322.275274 81.726226 
L 322.275274 81.226884 
L 322.768728 81.226884 
L 322.768728 80.727542 
L 323.017145 80.727542 
L 323.017145 80.228201 
L 323.563594 80.228201 
L 323.563594 79.728859 
L 323.683886 79.728859 
L 323.784427 78.730175 
L 324.087359 78.730175 
L 324.17734 77.731492 
L 324.214028 77.731492 
L 324.214028 77.23215 
L 324.425757 77.23215 
L 324.425757 76.732808 
L 324.804751 76.732808 
L 324.804751 76.233466 
L 325.41971 76.233466 
L 325.47429 75.234783 
L 325.557593 75.234783 
L 325.557593 74.735441 
L 325.920006 74.735441 
L 325.920006 74.236099 
L 326.089249 74.236099 
L 326.104298 73.237416 
L 326.61289 73.237416 
L 326.61289 72.738074 
L 326.773837 72.738074 
L 326.773837 72.238732 
L 327.054956 72.238732 
L 327.054956 71.73939 
L 327.997049 71.73939 
L 327.997049 71.240048 
L 328.341724 71.240048 
L 328.341724 70.740707 
L 328.958948 70.740707 
L 329.011263 69.742023 
L 329.454674 69.742023 
L 329.454674 69.242681 
L 329.573907 69.242681 
L 329.573907 68.74334 
L 329.863821 68.74334 
L 329.948127 67.744656 
L 330.196544 67.744656 
L 330.258495 66.745972 
L 330.335656 66.745972 
L 330.335656 66.246631 
L 330.53336 66.246631 
L 330.53336 65.747289 
L 331.005195 65.747289 
L 331.005195 65.247947 
L 331.188309 65.247947 
L 331.188309 64.748605 
L 331.637386 64.748605 
L 331.637386 64.249263 
L 332.306925 64.249263 
L 332.306925 63.749922 
L 332.495921 63.749922 
L 332.495921 63.25058 
L 333.184657 63.25058 
L 333.184657 62.751238 
L 333.854196 62.751238 
L 333.854196 62.251896 
L 334.018018 62.251896 
L 334.018018 61.752555 
L 334.221859 61.752555 
L 334.221859 61.253213 
L 334.345506 61.253213 
L 334.345506 60.753871 
L 334.489853 60.753871 
L 334.489853 60.254529 
L 334.707963 60.254529 
L 334.787571 58.756504 
L 334.998093 58.756504 
L 334.998093 58.257162 
L 335.41794 58.257162 
L 335.446799 57.258478 
L 335.630471 57.258478 
L 335.667632 56.259795 
L 335.791584 56.259795 
L 335.902172 54.76177 
L 336.344238 54.76177 
L 336.344238 54.262428 
L 337.338854 54.262428 
L 337.338854 53.763086 
L 338.931457 53.763086 
L 338.931457 53.263744 
L 339.152291 53.263744 
L 339.152291 52.764402 
L 339.383959 52.764402 
L 339.383959 52.265061 
L 340.53496 52.265061 
L 340.53496 51.765719 
L 340.668339 51.765719 
L 340.76084 50.767035 
L 341.161793 50.767035 
L 341.161793 50.267693 
L 341.337878 50.267693 
L 341.41021 48.769668 
L 341.831332 48.769668 
L 341.831332 48.270326 
L 342.079749 48.270326 
L 342.079749 47.770985 
L 342.367606 47.770985 
L 342.367606 47.271643 
L 342.593487 47.271643 
L 342.593487 46.772301 
L 344.822537 46.772301 
L 344.822537 46.272959 
L 345.009416 46.272959 
L 345.009416 45.773617 
L 345.31599 45.773617 
L 345.31599 45.274276 
L 345.564407 45.274276 
L 345.630239 44.275592 
L 345.779886 44.275592 
L 345.779886 43.77625 
L 346.031934 43.77625 
L 346.031934 43.276908 
L 346.685501 43.276908 
L 346.685501 42.777567 
L 346.842063 42.777567 
L 346.842063 42.278225 
L 347.612533 42.278225 
L 347.612533 41.778883 
L 347.864581 41.778883 
L 347.864581 41.279541 
L 349.285106 41.279541 
L 349.285106 40.7802 
L 351.113107 40.7802 
L 351.113107 40.280858 
L 352.614924 40.280858 
L 352.614924 39.781516 
L 352.945754 39.781516 
L 352.945754 39.282174 
L 353.284463 39.282174 
L 353.284463 38.782832 
L 355.650099 38.782832 
L 355.650099 38.283491 
L 356.769121 38.283491 
L 356.769121 37.784149 
L 357.434766 37.784149 
L 357.434766 37.284807 
L 357.59007 37.284807 
L 357.59007 36.785465 
L 358.845723 36.785465 
L 358.845723 36.286123 
L 359.918158 36.286123 
L 359.918158 35.786782 
L 360.40239 35.786782 
L 360.40239 35.28744 
L 360.67837 35.28744 
L 360.67837 34.788098 
L 361.750804 34.788098 
L 361.750804 34.288756 
L 362.235036 34.288756 
L 362.235036 33.789415 
L 453.192 33.789415 
L 453.192 33.789415 
" style="fill:none;stroke:#00bfbf;stroke-linecap:square;stroke-width:3;"/>
   </g>
   <g id="line2d_46">
    <path clip-path="url(#p9f17ff0735)" style="fill:none;stroke:#00bfbf;stroke-linecap:square;stroke-width:3;"/>
   </g>
   <g id="line2d_47">
    <path clip-path="url(#p9f17ff0735)" d="M 34.16 175.402745 
L 249.842754 175.402745 
L 249.842754 174.146623 
L 256.472592 174.146623 
L 256.472592 172.890501 
L 261.98415 172.890501 
L 261.98415 171.634379 
L 263.307581 171.634379 
L 263.307581 170.378257 
L 265.642607 170.378257 
L 265.642607 169.122135 
L 268.410081 169.122135 
L 268.410081 167.866013 
L 270.322723 167.866013 
L 270.322723 166.609891 
L 272.011764 166.609891 
L 272.011764 165.353769 
L 279.106027 165.353769 
L 279.106027 164.097647 
L 280.499819 164.097647 
L 280.499819 162.841525 
L 281.023266 162.841525 
L 281.023266 161.585403 
L 281.30702 161.585403 
L 281.30702 160.329281 
L 282.015655 160.329281 
L 282.015655 159.073159 
L 282.133179 159.073159 
L 282.133179 157.817037 
L 285.122574 157.817037 
L 285.122574 156.560915 
L 288.763018 156.560915 
L 288.763018 155.304793 
L 291.805415 155.304793 
L 291.805415 154.048671 
L 293.867172 154.048671 
L 293.867172 152.792549 
L 294.274575 152.792549 
L 294.274575 151.536427 
L 295.598007 151.536427 
L 295.598007 150.280305 
L 297.933033 150.280305 
L 297.933033 149.024183 
L 300.497011 149.024183 
L 300.497011 147.768061 
L 300.700507 147.768061 
L 300.700507 146.511939 
L 302.104133 146.511939 
L 302.104133 145.255817 
L 302.613149 145.255817 
L 302.613149 143.999695 
L 304.30219 143.999695 
L 304.30219 142.743573 
L 304.473391 142.743573 
L 304.473391 141.487451 
L 305.516714 141.487451 
L 305.516714 140.231329 
L 306.008568 140.231329 
L 306.008568 138.975207 
L 307.332 138.975207 
L 307.332 137.719085 
L 308.733972 137.719085 
L 308.733972 136.462963 
L 309.667026 136.462963 
L 309.667026 135.206841 
L 311.10323 135.206841 
L 311.10323 133.950719 
L 311.396453 133.950719 
L 311.396453 132.694597 
L 312.146553 132.694597 
L 312.146553 131.438475 
L 312.434499 131.438475 
L 312.434499 130.182353 
L 312.790245 130.182353 
L 312.790245 128.926231 
L 313.313692 128.926231 
L 313.313692 127.670109 
L 313.597446 127.670109 
L 313.597446 126.413987 
L 314.245529 126.413987 
L 314.347142 122.645621 
L 315.568961 122.645621 
L 315.568961 121.389499 
L 316.036183 121.389499 
L 316.036183 120.133377 
L 316.614787 120.133377 
L 316.614787 118.877255 
L 317.413 118.877255 
L 317.413 117.621133 
L 317.65811 117.621133 
L 317.65811 116.365011 
L 317.903987 116.365011 
L 317.938219 113.852767 
L 318.197957 113.852767 
L 318.197957 112.596645 
L 318.981542 112.596645 
L 318.981542 111.340523 
L 320.273245 111.340523 
L 320.273245 110.084401 
L 320.671461 110.084401 
L 320.671461 108.828279 
L 321.316568 108.828279 
L 321.316568 107.572157 
L 322.584103 107.572157 
L 322.584103 106.316035 
L 323.040719 106.316035 
L 323.130446 103.803791 
L 323.470629 103.803791 
L 323.470629 102.547669 
L 324.084042 102.547669 
L 324.095841 100.035425 
L 324.273144 100.035425 
L 324.273144 98.779303 
L 324.524238 98.779303 
L 324.524238 97.523181 
L 324.827795 97.523181 
L 324.827795 96.267059 
L 324.953361 96.267059 
L 325.047685 93.754815 
L 325.331439 93.754815 
L 325.331439 92.498693 
L 325.996684 92.498693 
L 326.040074 89.986449 
L 326.624908 89.986449 
L 326.642402 87.474205 
L 327.685725 87.474205 
L 327.685725 86.218083 
L 329.146992 86.218083 
L 329.146992 84.961961 
L 330.100468 84.961961 
L 330.100468 83.705839 
L 330.339353 83.705839 
L 330.339353 82.449717 
L 331.367407 82.449717 
L 331.367407 81.193595 
L 331.662784 81.193595 
L 331.662784 79.937473 
L 332.761199 79.937473 
L 332.761199 78.681351 
L 333.254747 78.681351 
L 333.284646 76.169107 
L 333.5684 76.169107 
L 333.5684 74.912985 
L 333.736665 74.912985 
L 333.736665 73.656863 
L 333.99781 73.656863 
L 333.99781 72.400741 
L 334.277035 72.400741 
L 334.277035 71.144619 
L 334.779988 71.144619 
L 334.779988 69.888497 
L 335.130457 69.888497 
L 335.130457 68.632375 
L 335.612025 68.632375 
L 335.653904 66.120131 
L 335.829834 66.120131 
L 335.937658 63.607887 
L 336.17378 63.607887 
L 336.17378 62.351765 
L 336.646293 62.351765 
L 336.697227 59.839521 
L 336.765284 59.839521 
L 336.765284 58.583399 
L 336.935457 58.583399 
L 336.980981 56.071155 
L 337.383954 56.071155 
L 337.383954 54.815033 
L 337.689616 54.815033 
L 337.689616 53.558911 
L 338.677926 53.558911 
L 338.766305 51.046667 
L 339.270483 51.046667 
L 339.270483 49.790545 
L 339.753212 49.790545 
L 339.753212 48.534423 
L 340.089736 48.534423 
L 340.089736 47.278301 
L 340.366967 47.278301 
L 340.366967 46.022179 
L 340.796535 46.022179 
L 340.796535 44.766057 
L 342.037956 44.766057 
L 342.037956 43.509935 
L 342.424762 43.509935 
L 342.424762 42.253813 
L 343.950599 42.253813 
L 343.950599 40.997691 
L 344.066795 40.997691 
L 344.066795 39.741569 
L 345.192236 39.741569 
L 345.192236 38.485447 
L 345.63964 38.485447 
L 345.63964 37.229325 
L 346.436053 37.229325 
L 346.436053 35.973203 
L 347.104878 35.973203 
L 347.104878 34.717081 
L 347.46123 34.717081 
L 347.479376 32.204837 
L 348.793919 32.204837 
L 348.855022 29.692593 
L 349.378469 29.692593 
L 349.378469 28.436471 
L 349.662223 28.436471 
L 349.662223 27.180349 
L 350.370858 27.180349 
L 350.370858 25.924227 
L 352.733903 25.924227 
L 352.733903 24.668105 
L 353.477777 24.668105 
L 353.477777 23.411983 
L 354.127695 23.411983 
L 354.127695 22.155861 
L 354.651142 22.155861 
L 354.651142 20.899739 
L 354.934896 20.899739 
L 354.934896 19.643617 
L 355.643531 19.643617 
L 355.643531 18.387495 
L 355.888182 18.387495 
L 355.888182 17.131373 
L 357.281974 17.131373 
L 357.281974 15.875251 
L 357.805421 15.875251 
L 357.805421 14.619129 
L 358.089175 14.619129 
L 358.089175 13.363007 
L 358.750449 13.363007 
L 358.79781 10.850763 
L 360.160618 10.850763 
L 360.160618 9.594641 
L 361.904729 9.594641 
L 361.904729 8.338519 
L 365.433291 8.338519 
L 365.433291 7.082397 
L 368.58757 7.082397 
L 368.58757 5.826275 
L 453.192 5.826275 
L 453.192 5.826275 
" style="fill:none;stroke:#bf00bf;stroke-linecap:square;stroke-width:3;"/>
   </g>
   <g id="line2d_48">
    <path clip-path="url(#p9f17ff0735)" style="fill:none;stroke:#bf00bf;stroke-linecap:square;stroke-width:3;"/>
   </g>
   <g id="line2d_49"/>
   <g id="line2d_50">
    <path clip-path="url(#p9f17ff0735)" d="M 243.676 291.28 
L 243.676 3 
" style="fill:none;stroke:#000000;stroke-linecap:square;stroke-width:1.5;"/>
   </g>
   <g id="line2d_51">
    <path clip-path="url(#p9f17ff0735)" d="M 34.16 147.14 
L 453.192 147.14 
" style="fill:none;stroke:#000000;stroke-dasharray:2,3.3;stroke-dashoffset:0;stroke-width:2;"/>
   </g>
   <g id="patch_3">
    <path d="M 34.16 291.28 
L 34.16 3 
" style="fill:none;stroke:#000000;stroke-linecap:square;stroke-linejoin:miter;stroke-width:0.8;"/>
   </g>
   <g id="patch_4">
    <path d="M 453.192 291.28 
L 453.192 3 
" style="fill:none;stroke:#000000;stroke-linecap:square;stroke-linejoin:miter;stroke-width:0.8;"/>
   </g>
   <g id="patch_5">
    <path d="M 34.16 291.28 
L 453.192 291.28 
" style="fill:none;stroke:#000000;stroke-linecap:square;stroke-linejoin:miter;stroke-width:0.8;"/>
   </g>
   <g id="patch_6">
    <path d="M 34.16 3 
L 453.192 3 
" style="fill:none;stroke:#000000;stroke-linecap:square;stroke-linejoin:miter;stroke-width:0.8;"/>
   </g>
   <g id="text_6">
    <!-- f10-f14,5-D -->
    <g transform="translate(330.91761 285.5144)scale(0.2 -0.2)">
     <defs>
      <path d="M 37.796875 64.3125 
L 12.890625 25.390625 
L 37.796875 25.390625 
z
M 35.203125 72.90625 
L 47.609375 72.90625 
L 47.609375 25.390625 
L 58.015625 25.390625 
L 58.015625 17.1875 
L 47.609375 17.1875 
L 47.609375 0 
L 37.796875 0 
L 37.796875 17.1875 
L 4.890625 17.1875 
L 4.890625 26.703125 
z
" id="DejaVuSans-52"/>
      <path d="M 11.71875 12.40625 
L 22.015625 12.40625 
L 22.015625 4 
L 14.015625 -11.625 
L 7.71875 -11.625 
L 11.71875 4 
z
" id="DejaVuSans-44"/>
      <path d="M 10.796875 72.90625 
L 49.515625 72.90625 
L 49.515625 64.59375 
L 19.828125 64.59375 
L 19.828125 46.734375 
Q 21.96875 47.46875 24.109375 47.828125 
Q 26.265625 48.1875 28.421875 48.1875 
Q 40.625 48.1875 47.75 41.5 
Q 54.890625 34.8125 54.890625 23.390625 
Q 54.890625 11.625 47.5625 5.09375 
Q 40.234375 -1.421875 26.90625 -1.421875 
Q 22.3125 -1.421875 17.546875 -0.640625 
Q 12.796875 0.140625 7.71875 1.703125 
L 7.71875 11.625 
Q 12.109375 9.234375 16.796875 8.0625 
Q 21.484375 6.890625 26.703125 6.890625 
Q 35.15625 6.890625 40.078125 11.328125 
Q 45.015625 15.765625 45.015625 23.390625 
Q 45.015625 31 40.078125 35.4375 
Q 35.15625 39.890625 26.703125 39.890625 
Q 22.75 39.890625 18.8125 39.015625 
Q 14.890625 38.140625 10.796875 36.28125 
z
" id="DejaVuSans-53"/>
      <path d="M 19.671875 64.796875 
L 19.671875 8.109375 
L 31.59375 8.109375 
Q 46.6875 8.109375 53.6875 14.9375 
Q 60.6875 21.78125 60.6875 36.53125 
Q 60.6875 51.171875 53.6875 57.984375 
Q 46.6875 64.796875 31.59375 64.796875 
z
M 9.8125 72.90625 
L 30.078125 72.90625 
Q 51.265625 72.90625 61.171875 64.09375 
Q 71.09375 55.28125 71.09375 36.53125 
Q 71.09375 17.671875 61.125 8.828125 
Q 51.171875 0 30.078125 0 
L 9.8125 0 
z
" id="DejaVuSans-68"/>
     </defs>
     <use xlink:href="#DejaVuSans-102"/>
     <use x="35.205078" xlink:href="#DejaVuSans-49"/>
     <use x="98.828125" xlink:href="#DejaVuSans-48"/>
     <use x="162.451172" xlink:href="#DejaVuSans-45"/>
     <use x="198.535156" xlink:href="#DejaVuSans-102"/>
     <use x="233.740234" xlink:href="#DejaVuSans-49"/>
     <use x="297.363281" xlink:href="#DejaVuSans-52"/>
     <use x="360.986328" xlink:href="#DejaVuSans-44"/>
     <use x="392.773438" xlink:href="#DejaVuSans-53"/>
     <use x="456.396484" xlink:href="#DejaVuSans-45"/>
     <use x="492.480469" xlink:href="#DejaVuSans-68"/>
    </g>
   </g>
   <g id="text_7">
    <!-- v2.4 -->
    <g style="fill:#808080;" transform="translate(232.765062 286.317512)scale(0.1 -0.1)">
     <defs>
      <path d="M 19.1875 8.296875 
L 53.609375 8.296875 
L 53.609375 0 
L 7.328125 0 
L 7.328125 8.296875 
Q 12.9375 14.109375 22.625 23.890625 
Q 32.328125 33.6875 34.8125 36.53125 
Q 39.546875 41.84375 41.421875 45.53125 
Q 43.3125 49.21875 43.3125 52.78125 
Q 43.3125 58.59375 39.234375 62.25 
Q 35.15625 65.921875 28.609375 65.921875 
Q 23.96875 65.921875 18.8125 64.3125 
Q 13.671875 62.703125 7.8125 59.421875 
L 7.8125 69.390625 
Q 13.765625 71.78125 18.9375 73 
Q 24.125 74.21875 28.421875 74.21875 
Q 39.75 74.21875 46.484375 68.546875 
Q 53.21875 62.890625 53.21875 53.421875 
Q 53.21875 48.921875 51.53125 44.890625 
Q 49.859375 40.875 45.40625 35.40625 
Q 44.1875 33.984375 37.640625 27.21875 
Q 31.109375 20.453125 19.1875 8.296875 
z
" id="DejaVuSans-50"/>
      <path d="M 10.6875 12.40625 
L 21 12.40625 
L 21 0 
L 10.6875 0 
z
" id="DejaVuSans-46"/>
     </defs>
     <use xlink:href="#DejaVuSans-118"/>
     <use x="59.179688" xlink:href="#DejaVuSans-50"/>
     <use x="122.802734" xlink:href="#DejaVuSans-46"/>
     <use x="154.589844" xlink:href="#DejaVuSans-52"/>
    </g>
   </g>
   <g id="legend_1">
    <g id="patch_7">
     <path d="M 48.16 136.425 
L 177.381875 136.425 
Q 181.381875 136.425 181.381875 132.425 
L 181.381875 17 
Q 181.381875 13 177.381875 13 
L 48.16 13 
Q 44.16 13 44.16 17 
L 44.16 132.425 
Q 44.16 136.425 48.16 136.425 
z
" style="fill:#ffffff;opacity:0.2;stroke:#cccccc;stroke-linejoin:miter;"/>
    </g>
    <g id="line2d_52">
     <path d="M 52.16 29.196875 
L 92.16 29.196875 
" style="fill:none;stroke:#000000;stroke-linecap:square;stroke-width:3;"/>
    </g>
    <g id="line2d_53"/>
    <g id="text_8">
     <!-- 1: 5/5 -->
     <g transform="translate(108.16 36.196875)scale(0.2 -0.2)">
      <defs>
       <path d="M 11.71875 12.40625 
L 22.015625 12.40625 
L 22.015625 0 
L 11.71875 0 
z
M 11.71875 51.703125 
L 22.015625 51.703125 
L 22.015625 39.3125 
L 11.71875 39.3125 
z
" id="DejaVuSans-58"/>
       <path d="M 25.390625 72.90625 
L 33.6875 72.90625 
L 8.296875 -9.28125 
L 0 -9.28125 
z
" id="DejaVuSans-47"/>
      </defs>
      <use xlink:href="#DejaVuSans-49"/>
      <use x="63.623047" xlink:href="#DejaVuSans-58"/>
      <use x="97.314453" xlink:href="#DejaVuSans-32"/>
      <use x="129.101562" xlink:href="#DejaVuSans-53"/>
      <use x="192.724609" xlink:href="#DejaVuSans-47"/>
      <use x="226.416016" xlink:href="#DejaVuSans-53"/>
     </g>
    </g>
    <g id="line2d_54">
     <path d="M 52.16 58.553125 
L 92.16 58.553125 
" style="fill:none;stroke:#00bfbf;stroke-linecap:square;stroke-width:3;"/>
    </g>
    <g id="line2d_55"/>
    <g id="text_9">
     <!-- -1: 3/4 -->
     <g transform="translate(108.16 65.553125)scale(0.2 -0.2)">
      <defs>
       <path d="M 40.578125 39.3125 
Q 47.65625 37.796875 51.625 33 
Q 55.609375 28.21875 55.609375 21.1875 
Q 55.609375 10.40625 48.1875 4.484375 
Q 40.765625 -1.421875 27.09375 -1.421875 
Q 22.515625 -1.421875 17.65625 -0.515625 
Q 12.796875 0.390625 7.625 2.203125 
L 7.625 11.71875 
Q 11.71875 9.328125 16.59375 8.109375 
Q 21.484375 6.890625 26.8125 6.890625 
Q 36.078125 6.890625 40.9375 10.546875 
Q 45.796875 14.203125 45.796875 21.1875 
Q 45.796875 27.640625 41.28125 31.265625 
Q 36.765625 34.90625 28.71875 34.90625 
L 20.21875 34.90625 
L 20.21875 43.015625 
L 29.109375 43.015625 
Q 36.375 43.015625 40.234375 45.921875 
Q 44.09375 48.828125 44.09375 54.296875 
Q 44.09375 59.90625 40.109375 62.90625 
Q 36.140625 65.921875 28.71875 65.921875 
Q 24.65625 65.921875 20.015625 65.03125 
Q 15.375 64.15625 9.8125 62.3125 
L 9.8125 71.09375 
Q 15.4375 72.65625 20.34375 73.4375 
Q 25.25 74.21875 29.59375 74.21875 
Q 40.828125 74.21875 47.359375 69.109375 
Q 53.90625 64.015625 53.90625 55.328125 
Q 53.90625 49.265625 50.4375 45.09375 
Q 46.96875 40.921875 40.578125 39.3125 
z
" id="DejaVuSans-51"/>
      </defs>
      <use xlink:href="#DejaVuSans-45"/>
      <use x="36.083984" xlink:href="#DejaVuSans-49"/>
      <use x="99.707031" xlink:href="#DejaVuSans-58"/>
      <use x="133.398438" xlink:href="#DejaVuSans-32"/>
      <use x="165.185547" xlink:href="#DejaVuSans-51"/>
      <use x="228.808594" xlink:href="#DejaVuSans-47"/>
      <use x="262.5" xlink:href="#DejaVuSans-52"/>
     </g>
    </g>
    <g id="line2d_56">
     <path d="M 52.16 87.909375 
L 92.16 87.909375 
" style="fill:none;stroke:#bf00bf;stroke-linecap:square;stroke-width:3;"/>
    </g>
    <g id="line2d_57"/>
    <g id="text_10">
     <!-- -4: 1/1 -->
     <g transform="translate(108.16 94.909375)scale(0.2 -0.2)">
      <use xlink:href="#DejaVuSans-45"/>
      <use x="36.083984" xlink:href="#DejaVuSans-52"/>
      <use x="99.707031" xlink:href="#DejaVuSans-58"/>
      <use x="133.398438" xlink:href="#DejaVuSans-32"/>
      <use x="165.185547" xlink:href="#DejaVuSans-49"/>
      <use x="228.808594" xlink:href="#DejaVuSans-47"/>
      <use x="262.5" xlink:href="#DejaVuSans-49"/>
     </g>
    </g>
    <g id="line2d_58">
     <path d="M 52.16 117.265625 
L 92.16 117.265625 
" style="fill:none;stroke:#ff0000;stroke-linecap:square;stroke-width:3;"/>
    </g>
    <g id="line2d_59"/>
    <g id="text_11">
     <!-- -8: 0/0 -->
     <g transform="translate(108.16 124.265625)scale(0.2 -0.2)">
      <defs>
       <path d="M 31.78125 34.625 
Q 24.75 34.625 20.71875 30.859375 
Q 16.703125 27.09375 16.703125 20.515625 
Q 16.703125 13.921875 20.71875 10.15625 
Q 24.75 6.390625 31.78125 6.390625 
Q 38.8125 6.390625 42.859375 10.171875 
Q 46.921875 13.96875 46.921875 20.515625 
Q 46.921875 27.09375 42.890625 30.859375 
Q 38.875 34.625 31.78125 34.625 
z
M 21.921875 38.8125 
Q 15.578125 40.375 12.03125 44.71875 
Q 8.5 49.078125 8.5 55.328125 
Q 8.5 64.0625 14.71875 69.140625 
Q 20.953125 74.21875 31.78125 74.21875 
Q 42.671875 74.21875 48.875 69.140625 
Q 55.078125 64.0625 55.078125 55.328125 
Q 55.078125 49.078125 51.53125 44.71875 
Q 48 40.375 41.703125 38.8125 
Q 48.828125 37.15625 52.796875 32.3125 
Q 56.78125 27.484375 56.78125 20.515625 
Q 56.78125 9.90625 50.3125 4.234375 
Q 43.84375 -1.421875 31.78125 -1.421875 
Q 19.734375 -1.421875 13.25 4.234375 
Q 6.78125 9.90625 6.78125 20.515625 
Q 6.78125 27.484375 10.78125 32.3125 
Q 14.796875 37.15625 21.921875 38.8125 
z
M 18.3125 54.390625 
Q 18.3125 48.734375 21.84375 45.5625 
Q 25.390625 42.390625 31.78125 42.390625 
Q 38.140625 42.390625 41.71875 45.5625 
Q 45.3125 48.734375 45.3125 54.390625 
Q 45.3125 60.0625 41.71875 63.234375 
Q 38.140625 66.40625 31.78125 66.40625 
Q 25.390625 66.40625 21.84375 63.234375 
Q 18.3125 60.0625 18.3125 54.390625 
z
" id="DejaVuSans-56"/>
      </defs>
      <use xlink:href="#DejaVuSans-45"/>
      <use x="36.083984" xlink:href="#DejaVuSans-56"/>
      <use x="99.707031" xlink:href="#DejaVuSans-58"/>
      <use x="133.398438" xlink:href="#DejaVuSans-32"/>
      <use x="165.185547" xlink:href="#DejaVuSans-48"/>
      <use x="228.808594" xlink:href="#DejaVuSans-47"/>
      <use x="262.5" xlink:href="#DejaVuSans-48"/>
     </g>
    </g>
   </g>
  </g>
 </g>
 <defs>
  <clipPath id="p9f17ff0735">
   <rect height="288.28" width="419.032" x="34.16" y="3"/>
  </clipPath>
 </defs>
</svg>
