<?xml version="1.0" encoding="utf-8" standalone="no"?>
<!DOCTYPE svg PUBLIC "-//W3C//DTD SVG 1.1//EN"
  "http://www.w3.org/Graphics/SVG/1.1/DTD/svg11.dtd">
<!-- Created with matplotlib (https://matplotlib.org/) -->
<svg height="345.6pt" version="1.1" viewBox="0 0 460.8 345.6" width="460.8pt" xmlns="http://www.w3.org/2000/svg" xmlns:xlink="http://www.w3.org/1999/xlink">
 <metadata>
  <rdf:RDF xmlns:cc="http://creativecommons.org/ns#" xmlns:dc="http://purl.org/dc/elements/1.1/" xmlns:rdf="http://www.w3.org/1999/02/22-rdf-syntax-ns#">
   <cc:Work>
    <dc:type rdf:resource="http://purl.org/dc/dcmitype/StillImage"/>
    <dc:date>2021-04-25T22:54:33.434857</dc:date>
    <dc:format>image/svg+xml</dc:format>
    <dc:creator>
     <cc:Agent>
      <dc:title>Matplotlib v3.3.2, https://matplotlib.org/</dc:title>
     </cc:Agent>
    </dc:creator>
   </cc:Work>
  </rdf:RDF>
 </metadata>
 <defs>
  <style type="text/css">*{stroke-linecap:butt;stroke-linejoin:round;}</style>
 </defs>
 <g id="figure_1">
  <g id="patch_1">
   <path d="M 0 345.6 
L 460.8 345.6 
L 460.8 0 
L 0 0 
z
" style="fill:#ffffff;"/>
  </g>
  <g id="axes_1">
   <g id="patch_2">
    <path d="M 57.6 298.944 
L 338.688 298.944 
L 338.688 3.456 
L 57.6 3.456 
z
" style="fill:#ffffff;"/>
   </g>
   <g id="line2d_1">
    <path d="M 45.512012 298.944 
L 45.512012 290.339224 
L 57.6 290.339224 
L 57.6 283.168578 
L 64.67102 283.168578 
L 64.67102 275.997931 
L 73.579452 275.997931 
L 73.579452 265.959026 
L 76.759008 265.959026 
L 76.759008 264.524897 
L 79.447285 264.524897 
L 79.447285 263.090768 
L 85.66744 263.090768 
L 85.66744 261.656638 
L 88.846997 261.656638 
L 88.846997 255.920121 
L 90.242884 255.920121 
L 90.242884 253.051863 
L 91.535274 253.051863 
L 91.535274 250.183604 
L 92.73846 250.183604 
L 92.73846 247.315345 
L 93.863965 247.315345 
L 93.863965 245.881216 
L 94.921215 245.881216 
L 94.921215 244.447087 
L 95.918017 244.447087 
L 95.918017 238.71057 
L 96.86091 238.71057 
L 96.86091 235.842311 
L 97.755429 235.842311 
L 97.755429 232.974052 
L 98.606294 232.974052 
L 98.606294 228.671665 
L 100.192776 228.671665 
L 100.192776 227.237535 
L 102.989037 227.237535 
L 102.989037 224.369277 
L 104.826449 224.369277 
L 104.826449 222.935147 
L 105.398279 222.935147 
L 105.398279 221.501018 
L 105.951954 221.501018 
L 105.951954 220.066889 
L 107.514726 220.066889 
L 107.514726 217.19863 
L 108.483824 217.19863 
L 108.483824 215.764501 
L 108.948899 215.764501 
L 108.948899 212.896242 
L 109.401893 212.896242 
L 109.401893 211.462113 
L 110.274038 211.462113 
L 110.274038 208.593854 
L 110.694282 208.593854 
L 110.694282 207.159725 
L 111.104637 207.159725 
L 111.104637 204.291467 
L 111.505558 204.291467 
L 111.505558 198.554949 
L 111.897469 198.554949 
L 111.897469 197.12082 
L 112.280765 197.12082 
L 112.280765 191.384303 
L 112.655818 191.384303 
L 112.655818 187.081915 
L 113.382559 187.081915 
L 113.382559 185.647786 
L 113.73488 185.647786 
L 113.73488 182.779527 
L 114.418861 182.779527 
L 114.418861 181.345398 
L 115.077025 181.345398 
L 115.077025 179.911268 
L 116.621333 179.911268 
L 116.621333 178.477139 
L 116.914437 178.477139 
L 116.914437 177.04301 
L 117.202696 177.04301 
L 117.202696 175.608881 
L 117.765302 175.608881 
L 117.765302 174.174751 
L 118.310324 174.174751 
L 118.310324 172.740622 
L 118.576578 172.740622 
L 118.576578 171.306493 
L 118.838828 171.306493 
L 118.838828 169.872363 
L 119.097192 169.872363 
L 119.097192 168.438234 
L 119.351785 168.438234 
L 119.351785 167.004105 
L 120.093994 167.004105 
L 120.093994 164.135846 
L 120.33454 164.135846 
L 120.33454 161.267588 
L 121.036887 161.267588 
L 121.036887 159.833458 
L 121.264855 159.833458 
L 121.264855 156.9652 
L 121.489881 156.9652 
L 121.489881 154.096941 
L 121.931406 154.096941 
L 121.931406 146.926295 
L 122.148045 146.926295 
L 122.148045 141.189778 
L 122.362027 141.189778 
L 122.362027 138.321519 
L 122.782271 138.321519 
L 122.782271 136.88739 
L 122.988655 136.88739 
L 122.988655 135.45326 
L 123.192626 135.45326 
L 123.192626 131.150872 
L 123.593547 131.150872 
L 123.593547 129.716743 
L 123.790603 129.716743 
L 123.790603 122.546097 
L 123.985457 122.546097 
L 123.985457 118.243709 
L 124.178158 118.243709 
L 124.178158 115.37545 
L 124.368753 115.37545 
L 124.368753 108.204804 
L 124.557288 108.204804 
L 124.557288 103.902416 
L 124.743806 103.902416 
L 124.743806 96.731769 
L 124.92835 96.731769 
L 124.92835 93.863511 
L 125.110962 93.863511 
L 125.110962 90.995252 
L 125.470548 90.995252 
L 125.470548 89.561123 
L 125.822869 89.561123 
L 125.822869 86.692864 
L 126.338353 86.692864 
L 126.338353 83.824606 
L 126.839037 83.824606 
L 126.839037 80.956347 
L 127.002787 80.956347 
L 127.002787 78.088089 
L 127.48501 78.088089 
L 127.48501 75.21983 
L 127.799239 75.21983 
L 127.799239 69.483313 
L 128.107907 69.483313 
L 128.107907 65.180925 
L 128.411207 65.180925 
L 128.411207 63.746796 
L 128.709321 63.746796 
L 128.709321 62.312666 
L 129.147151 62.312666 
L 129.147151 60.878537 
L 129.574256 60.878537 
L 129.574256 59.444408 
L 129.714332 59.444408 
L 129.714332 58.010278 
L 129.853291 58.010278 
L 129.853291 56.576149 
L 130.398313 56.576149 
L 130.398313 55.14202 
L 130.796184 55.14202 
L 130.796184 53.707891 
L 131.185181 53.707891 
L 131.185181 52.273761 
L 136.831795 52.273761 
L 136.831795 50.839632 
L 137.289545 50.839632 
L 137.289545 49.405503 
L 138.426341 49.405503 
L 138.426341 47.971373 
L 139.172077 47.971373 
L 139.172077 46.537244 
L 139.333553 46.537244 
L 139.333553 19.288787 
L 139.8092 19.288787 
L 139.8092 17.854658 
L 140.272217 17.854658 
L 140.272217 16.420529 
L 140.723258 16.420529 
L 140.723258 14.9864 
L 141.162927 14.9864 
L 141.162927 13.55227 
L 141.307054 13.55227 
L 141.307054 12.118141 
L 141.80232 12.118141 
L 141.80232 10.684012 
L 142.010346 10.684012 
L 142.010346 9.249882 
L 142.215919 9.249882 
L 142.215919 7.815753 
L 142.351634 7.815753 
L 142.351634 6.381624 
L 338.688 6.381624 
L 338.688 6.381624 
" style="fill:none;stroke:#f5deb3;stroke-linecap:square;stroke-width:4;"/>
   </g>
   <g id="line2d_2">
    <defs>
     <path d="M 0 7.778175 
L 7.778175 0 
L 0 -7.778175 
L -7.778175 0 
z
" id="mef6e99c325" style="stroke:#f5deb3;stroke-linejoin:miter;stroke-width:1.5;"/>
    </defs>
    <g>
     <use style="fill:#f5deb3;stroke:#f5deb3;stroke-linejoin:miter;stroke-width:1.5;" x="111.104637" xlink:href="#mef6e99c325" y="204.291467"/>
     <use style="fill:#f5deb3;stroke:#f5deb3;stroke-linejoin:miter;stroke-width:1.5;" x="131.185181" xlink:href="#mef6e99c325" y="52.273761"/>
     <use style="fill:#f5deb3;stroke:#f5deb3;stroke-linejoin:miter;stroke-width:1.5;" x="142.351634" xlink:href="#mef6e99c325" y="7.815753"/>
     <use style="fill:#f5deb3;stroke:#f5deb3;stroke-linejoin:miter;stroke-width:1.5;" x="142.351634" xlink:href="#mef6e99c325" y="6.381624"/>
     <use style="fill:#f5deb3;stroke:#f5deb3;stroke-linejoin:miter;stroke-width:1.5;" x="142.351634" xlink:href="#mef6e99c325" y="6.381624"/>
     <use style="fill:#f5deb3;stroke:#f5deb3;stroke-linejoin:miter;stroke-width:1.5;" x="338.688" xlink:href="#mef6e99c325" y="6.381624"/>
    </g>
   </g>
   <g id="line2d_3">
    <path style="fill:none;stroke:#f5deb3;stroke-linecap:square;stroke-width:4;"/>
    <g/>
   </g>
   <g id="line2d_4">
    <path d="M 338.688 6.381624 
L 369.60768 12.232871 
" style="fill:none;stroke:#f5deb3;stroke-linecap:square;stroke-width:4;"/>
    <g>
     <use style="fill:#f5deb3;stroke:#f5deb3;stroke-linejoin:miter;stroke-width:1.5;" x="338.688" xlink:href="#mef6e99c325" y="6.381624"/>
     <use style="fill:#f5deb3;stroke:#f5deb3;stroke-linejoin:miter;stroke-width:1.5;" x="369.60768" xlink:href="#mef6e99c325" y="12.232871"/>
    </g>
   </g>
   <g id="matplotlib.axis_1">
    <g id="xtick_1">
     <g id="line2d_5">
      <path clip-path="url(#p94462afb3a)" d="M 57.6 298.944 
L 57.6 3.456 
" style="fill:none;stroke:#b0b0b0;stroke-linecap:square;stroke-width:0.8;"/>
     </g>
     <g id="line2d_6">
      <defs>
       <path d="M 0 0 
L 0 3.5 
" id="mbc87c7a9e2" style="stroke:#000000;stroke-width:0.8;"/>
      </defs>
      <g>
       <use style="stroke:#000000;stroke-width:0.8;" x="57.6" xlink:href="#mbc87c7a9e2" y="298.944"/>
      </g>
     </g>
     <g id="text_1">
      <!-- 0 -->
      <g transform="translate(51.2375 321.140875)scale(0.2 -0.2)">
       <defs>
        <path d="M 31.78125 66.40625 
Q 24.171875 66.40625 20.328125 58.90625 
Q 16.5 51.421875 16.5 36.375 
Q 16.5 21.390625 20.328125 13.890625 
Q 24.171875 6.390625 31.78125 6.390625 
Q 39.453125 6.390625 43.28125 13.890625 
Q 47.125 21.390625 47.125 36.375 
Q 47.125 51.421875 43.28125 58.90625 
Q 39.453125 66.40625 31.78125 66.40625 
z
M 31.78125 74.21875 
Q 44.046875 74.21875 50.515625 64.515625 
Q 56.984375 54.828125 56.984375 36.375 
Q 56.984375 17.96875 50.515625 8.265625 
Q 44.046875 -1.421875 31.78125 -1.421875 
Q 19.53125 -1.421875 13.0625 8.265625 
Q 6.59375 17.96875 6.59375 36.375 
Q 6.59375 54.828125 13.0625 64.515625 
Q 19.53125 74.21875 31.78125 74.21875 
z
" id="DejaVuSans-48"/>
       </defs>
       <use xlink:href="#DejaVuSans-48"/>
      </g>
     </g>
    </g>
    <g id="xtick_2">
     <g id="line2d_7">
      <path clip-path="url(#p94462afb3a)" d="M 137.910857 298.944 
L 137.910857 3.456 
" style="fill:none;stroke:#b0b0b0;stroke-linecap:square;stroke-width:0.8;"/>
     </g>
     <g id="line2d_8">
      <g>
       <use style="stroke:#000000;stroke-width:0.8;" x="137.910857" xlink:href="#mbc87c7a9e2" y="298.944"/>
      </g>
     </g>
     <g id="text_2">
      <!-- 2 -->
      <g transform="translate(131.548357 321.140875)scale(0.2 -0.2)">
       <defs>
        <path d="M 19.1875 8.296875 
L 53.609375 8.296875 
L 53.609375 0 
L 7.328125 0 
L 7.328125 8.296875 
Q 12.9375 14.109375 22.625 23.890625 
Q 32.328125 33.6875 34.8125 36.53125 
Q 39.546875 41.84375 41.421875 45.53125 
Q 43.3125 49.21875 43.3125 52.78125 
Q 43.3125 58.59375 39.234375 62.25 
Q 35.15625 65.921875 28.609375 65.921875 
Q 23.96875 65.921875 18.8125 64.3125 
Q 13.671875 62.703125 7.8125 59.421875 
L 7.8125 69.390625 
Q 13.765625 71.78125 18.9375 73 
Q 24.125 74.21875 28.421875 74.21875 
Q 39.75 74.21875 46.484375 68.546875 
Q 53.21875 62.890625 53.21875 53.421875 
Q 53.21875 48.921875 51.53125 44.890625 
Q 49.859375 40.875 45.40625 35.40625 
Q 44.1875 33.984375 37.640625 27.21875 
Q 31.109375 20.453125 19.1875 8.296875 
z
" id="DejaVuSans-50"/>
       </defs>
       <use xlink:href="#DejaVuSans-50"/>
      </g>
     </g>
    </g>
    <g id="xtick_3">
     <g id="line2d_9">
      <path clip-path="url(#p94462afb3a)" d="M 218.221714 298.944 
L 218.221714 3.456 
" style="fill:none;stroke:#b0b0b0;stroke-linecap:square;stroke-width:0.8;"/>
     </g>
     <g id="line2d_10">
      <g>
       <use style="stroke:#000000;stroke-width:0.8;" x="218.221714" xlink:href="#mbc87c7a9e2" y="298.944"/>
      </g>
     </g>
     <g id="text_3">
      <!-- 4 -->
      <g transform="translate(211.859214 321.140875)scale(0.2 -0.2)">
       <defs>
        <path d="M 37.796875 64.3125 
L 12.890625 25.390625 
L 37.796875 25.390625 
z
M 35.203125 72.90625 
L 47.609375 72.90625 
L 47.609375 25.390625 
L 58.015625 25.390625 
L 58.015625 17.1875 
L 47.609375 17.1875 
L 47.609375 0 
L 37.796875 0 
L 37.796875 17.1875 
L 4.890625 17.1875 
L 4.890625 26.703125 
z
" id="DejaVuSans-52"/>
       </defs>
       <use xlink:href="#DejaVuSans-52"/>
      </g>
     </g>
    </g>
    <g id="xtick_4">
     <g id="line2d_11">
      <path clip-path="url(#p94462afb3a)" d="M 298.532571 298.944 
L 298.532571 3.456 
" style="fill:none;stroke:#b0b0b0;stroke-linecap:square;stroke-width:0.8;"/>
     </g>
     <g id="line2d_12">
      <g>
       <use style="stroke:#000000;stroke-width:0.8;" x="298.532571" xlink:href="#mbc87c7a9e2" y="298.944"/>
      </g>
     </g>
     <g id="text_4">
      <!-- 6 -->
      <g transform="translate(292.170071 321.140875)scale(0.2 -0.2)">
       <defs>
        <path d="M 33.015625 40.375 
Q 26.375 40.375 22.484375 35.828125 
Q 18.609375 31.296875 18.609375 23.390625 
Q 18.609375 15.53125 22.484375 10.953125 
Q 26.375 6.390625 33.015625 6.390625 
Q 39.65625 6.390625 43.53125 10.953125 
Q 47.40625 15.53125 47.40625 23.390625 
Q 47.40625 31.296875 43.53125 35.828125 
Q 39.65625 40.375 33.015625 40.375 
z
M 52.59375 71.296875 
L 52.59375 62.3125 
Q 48.875 64.0625 45.09375 64.984375 
Q 41.3125 65.921875 37.59375 65.921875 
Q 27.828125 65.921875 22.671875 59.328125 
Q 17.53125 52.734375 16.796875 39.40625 
Q 19.671875 43.65625 24.015625 45.921875 
Q 28.375 48.1875 33.59375 48.1875 
Q 44.578125 48.1875 50.953125 41.515625 
Q 57.328125 34.859375 57.328125 23.390625 
Q 57.328125 12.15625 50.6875 5.359375 
Q 44.046875 -1.421875 33.015625 -1.421875 
Q 20.359375 -1.421875 13.671875 8.265625 
Q 6.984375 17.96875 6.984375 36.375 
Q 6.984375 53.65625 15.1875 63.9375 
Q 23.390625 74.21875 37.203125 74.21875 
Q 40.921875 74.21875 44.703125 73.484375 
Q 48.484375 72.75 52.59375 71.296875 
z
" id="DejaVuSans-54"/>
       </defs>
       <use xlink:href="#DejaVuSans-54"/>
      </g>
     </g>
    </g>
    <g id="xtick_5">
     <g id="line2d_13">
      <path clip-path="url(#p94462afb3a)" d="M 97.755429 298.944 
L 97.755429 3.456 
" style="fill:none;stroke:#b0b0b0;stroke-linecap:square;stroke-width:0.8;"/>
     </g>
     <g id="line2d_14">
      <defs>
       <path d="M 0 0 
L 0 2 
" id="m401adc4e1d" style="stroke:#000000;stroke-width:0.6;"/>
      </defs>
      <g>
       <use style="stroke:#000000;stroke-width:0.6;" x="97.755429" xlink:href="#m401adc4e1d" y="298.944"/>
      </g>
     </g>
    </g>
    <g id="xtick_6">
     <g id="line2d_15">
      <path clip-path="url(#p94462afb3a)" d="M 178.066286 298.944 
L 178.066286 3.456 
" style="fill:none;stroke:#b0b0b0;stroke-linecap:square;stroke-width:0.8;"/>
     </g>
     <g id="line2d_16">
      <g>
       <use style="stroke:#000000;stroke-width:0.6;" x="178.066286" xlink:href="#m401adc4e1d" y="298.944"/>
      </g>
     </g>
    </g>
    <g id="xtick_7">
     <g id="line2d_17">
      <path clip-path="url(#p94462afb3a)" d="M 258.377143 298.944 
L 258.377143 3.456 
" style="fill:none;stroke:#b0b0b0;stroke-linecap:square;stroke-width:0.8;"/>
     </g>
     <g id="line2d_18">
      <g>
       <use style="stroke:#000000;stroke-width:0.6;" x="258.377143" xlink:href="#m401adc4e1d" y="298.944"/>
      </g>
     </g>
    </g>
    <g id="xtick_8">
     <g id="line2d_19">
      <path clip-path="url(#p94462afb3a)" d="M 338.688 298.944 
L 338.688 3.456 
" style="fill:none;stroke:#b0b0b0;stroke-linecap:square;stroke-width:0.8;"/>
     </g>
     <g id="line2d_20">
      <g>
       <use style="stroke:#000000;stroke-width:0.6;" x="338.688" xlink:href="#m401adc4e1d" y="298.944"/>
      </g>
     </g>
    </g>
    <g id="text_5">
     <!-- log10(# f-evals / dimension) -->
     <g transform="translate(77.764078 342.217594)scale(0.17 -0.17)">
      <defs>
       <path d="M 9.421875 75.984375 
L 18.40625 75.984375 
L 18.40625 0 
L 9.421875 0 
z
" id="DejaVuSans-108"/>
       <path d="M 30.609375 48.390625 
Q 23.390625 48.390625 19.1875 42.75 
Q 14.984375 37.109375 14.984375 27.296875 
Q 14.984375 17.484375 19.15625 11.84375 
Q 23.34375 6.203125 30.609375 6.203125 
Q 37.796875 6.203125 41.984375 11.859375 
Q 46.1875 17.53125 46.1875 27.296875 
Q 46.1875 37.015625 41.984375 42.703125 
Q 37.796875 48.390625 30.609375 48.390625 
z
M 30.609375 56 
Q 42.328125 56 49.015625 48.375 
Q 55.71875 40.765625 55.71875 27.296875 
Q 55.71875 13.875 49.015625 6.21875 
Q 42.328125 -1.421875 30.609375 -1.421875 
Q 18.84375 -1.421875 12.171875 6.21875 
Q 5.515625 13.875 5.515625 27.296875 
Q 5.515625 40.765625 12.171875 48.375 
Q 18.84375 56 30.609375 56 
z
" id="DejaVuSans-111"/>
       <path d="M 45.40625 27.984375 
Q 45.40625 37.75 41.375 43.109375 
Q 37.359375 48.484375 30.078125 48.484375 
Q 22.859375 48.484375 18.828125 43.109375 
Q 14.796875 37.75 14.796875 27.984375 
Q 14.796875 18.265625 18.828125 12.890625 
Q 22.859375 7.515625 30.078125 7.515625 
Q 37.359375 7.515625 41.375 12.890625 
Q 45.40625 18.265625 45.40625 27.984375 
z
M 54.390625 6.78125 
Q 54.390625 -7.171875 48.1875 -13.984375 
Q 42 -20.796875 29.203125 -20.796875 
Q 24.46875 -20.796875 20.265625 -20.09375 
Q 16.0625 -19.390625 12.109375 -17.921875 
L 12.109375 -9.1875 
Q 16.0625 -11.328125 19.921875 -12.34375 
Q 23.78125 -13.375 27.78125 -13.375 
Q 36.625 -13.375 41.015625 -8.765625 
Q 45.40625 -4.15625 45.40625 5.171875 
L 45.40625 9.625 
Q 42.625 4.78125 38.28125 2.390625 
Q 33.9375 0 27.875 0 
Q 17.828125 0 11.671875 7.65625 
Q 5.515625 15.328125 5.515625 27.984375 
Q 5.515625 40.671875 11.671875 48.328125 
Q 17.828125 56 27.875 56 
Q 33.9375 56 38.28125 53.609375 
Q 42.625 51.21875 45.40625 46.390625 
L 45.40625 54.6875 
L 54.390625 54.6875 
z
" id="DejaVuSans-103"/>
       <path d="M 12.40625 8.296875 
L 28.515625 8.296875 
L 28.515625 63.921875 
L 10.984375 60.40625 
L 10.984375 69.390625 
L 28.421875 72.90625 
L 38.28125 72.90625 
L 38.28125 8.296875 
L 54.390625 8.296875 
L 54.390625 0 
L 12.40625 0 
z
" id="DejaVuSans-49"/>
       <path d="M 31 75.875 
Q 24.46875 64.65625 21.28125 53.65625 
Q 18.109375 42.671875 18.109375 31.390625 
Q 18.109375 20.125 21.3125 9.0625 
Q 24.515625 -2 31 -13.1875 
L 23.1875 -13.1875 
Q 15.875 -1.703125 12.234375 9.375 
Q 8.59375 20.453125 8.59375 31.390625 
Q 8.59375 42.28125 12.203125 53.3125 
Q 15.828125 64.359375 23.1875 75.875 
z
" id="DejaVuSans-40"/>
       <path d="M 51.125 44 
L 36.921875 44 
L 32.8125 27.6875 
L 47.125 27.6875 
z
M 43.796875 71.78125 
L 38.71875 51.515625 
L 52.984375 51.515625 
L 58.109375 71.78125 
L 65.921875 71.78125 
L 60.890625 51.515625 
L 76.125 51.515625 
L 76.125 44 
L 58.984375 44 
L 54.984375 27.6875 
L 70.515625 27.6875 
L 70.515625 20.21875 
L 53.078125 20.21875 
L 48 0 
L 40.1875 0 
L 45.21875 20.21875 
L 30.90625 20.21875 
L 25.875 0 
L 18.015625 0 
L 23.09375 20.21875 
L 7.71875 20.21875 
L 7.71875 27.6875 
L 24.90625 27.6875 
L 29 44 
L 13.28125 44 
L 13.28125 51.515625 
L 30.90625 51.515625 
L 35.890625 71.78125 
z
" id="DejaVuSans-35"/>
       <path id="DejaVuSans-32"/>
       <path d="M 37.109375 75.984375 
L 37.109375 68.5 
L 28.515625 68.5 
Q 23.6875 68.5 21.796875 66.546875 
Q 19.921875 64.59375 19.921875 59.515625 
L 19.921875 54.6875 
L 34.71875 54.6875 
L 34.71875 47.703125 
L 19.921875 47.703125 
L 19.921875 0 
L 10.890625 0 
L 10.890625 47.703125 
L 2.296875 47.703125 
L 2.296875 54.6875 
L 10.890625 54.6875 
L 10.890625 58.5 
Q 10.890625 67.625 15.140625 71.796875 
Q 19.390625 75.984375 28.609375 75.984375 
z
" id="DejaVuSans-102"/>
       <path d="M 4.890625 31.390625 
L 31.203125 31.390625 
L 31.203125 23.390625 
L 4.890625 23.390625 
z
" id="DejaVuSans-45"/>
       <path d="M 56.203125 29.59375 
L 56.203125 25.203125 
L 14.890625 25.203125 
Q 15.484375 15.921875 20.484375 11.0625 
Q 25.484375 6.203125 34.421875 6.203125 
Q 39.59375 6.203125 44.453125 7.46875 
Q 49.3125 8.734375 54.109375 11.28125 
L 54.109375 2.78125 
Q 49.265625 0.734375 44.1875 -0.34375 
Q 39.109375 -1.421875 33.890625 -1.421875 
Q 20.796875 -1.421875 13.15625 6.1875 
Q 5.515625 13.8125 5.515625 26.8125 
Q 5.515625 40.234375 12.765625 48.109375 
Q 20.015625 56 32.328125 56 
Q 43.359375 56 49.78125 48.890625 
Q 56.203125 41.796875 56.203125 29.59375 
z
M 47.21875 32.234375 
Q 47.125 39.59375 43.09375 43.984375 
Q 39.0625 48.390625 32.421875 48.390625 
Q 24.90625 48.390625 20.390625 44.140625 
Q 15.875 39.890625 15.1875 32.171875 
z
" id="DejaVuSans-101"/>
       <path d="M 2.984375 54.6875 
L 12.5 54.6875 
L 29.59375 8.796875 
L 46.6875 54.6875 
L 56.203125 54.6875 
L 35.6875 0 
L 23.484375 0 
z
" id="DejaVuSans-118"/>
       <path d="M 34.28125 27.484375 
Q 23.390625 27.484375 19.1875 25 
Q 14.984375 22.515625 14.984375 16.5 
Q 14.984375 11.71875 18.140625 8.90625 
Q 21.296875 6.109375 26.703125 6.109375 
Q 34.1875 6.109375 38.703125 11.40625 
Q 43.21875 16.703125 43.21875 25.484375 
L 43.21875 27.484375 
z
M 52.203125 31.203125 
L 52.203125 0 
L 43.21875 0 
L 43.21875 8.296875 
Q 40.140625 3.328125 35.546875 0.953125 
Q 30.953125 -1.421875 24.3125 -1.421875 
Q 15.921875 -1.421875 10.953125 3.296875 
Q 6 8.015625 6 15.921875 
Q 6 25.140625 12.171875 29.828125 
Q 18.359375 34.515625 30.609375 34.515625 
L 43.21875 34.515625 
L 43.21875 35.40625 
Q 43.21875 41.609375 39.140625 45 
Q 35.0625 48.390625 27.6875 48.390625 
Q 23 48.390625 18.546875 47.265625 
Q 14.109375 46.140625 10.015625 43.890625 
L 10.015625 52.203125 
Q 14.9375 54.109375 19.578125 55.046875 
Q 24.21875 56 28.609375 56 
Q 40.484375 56 46.34375 49.84375 
Q 52.203125 43.703125 52.203125 31.203125 
z
" id="DejaVuSans-97"/>
       <path d="M 44.28125 53.078125 
L 44.28125 44.578125 
Q 40.484375 46.53125 36.375 47.5 
Q 32.28125 48.484375 27.875 48.484375 
Q 21.1875 48.484375 17.84375 46.4375 
Q 14.5 44.390625 14.5 40.28125 
Q 14.5 37.15625 16.890625 35.375 
Q 19.28125 33.59375 26.515625 31.984375 
L 29.59375 31.296875 
Q 39.15625 29.25 43.1875 25.515625 
Q 47.21875 21.78125 47.21875 15.09375 
Q 47.21875 7.46875 41.1875 3.015625 
Q 35.15625 -1.421875 24.609375 -1.421875 
Q 20.21875 -1.421875 15.453125 -0.5625 
Q 10.6875 0.296875 5.421875 2 
L 5.421875 11.28125 
Q 10.40625 8.6875 15.234375 7.390625 
Q 20.0625 6.109375 24.8125 6.109375 
Q 31.15625 6.109375 34.5625 8.28125 
Q 37.984375 10.453125 37.984375 14.40625 
Q 37.984375 18.0625 35.515625 20.015625 
Q 33.0625 21.96875 24.703125 23.78125 
L 21.578125 24.515625 
Q 13.234375 26.265625 9.515625 29.90625 
Q 5.8125 33.546875 5.8125 39.890625 
Q 5.8125 47.609375 11.28125 51.796875 
Q 16.75 56 26.8125 56 
Q 31.78125 56 36.171875 55.265625 
Q 40.578125 54.546875 44.28125 53.078125 
z
" id="DejaVuSans-115"/>
       <path d="M 25.390625 72.90625 
L 33.6875 72.90625 
L 8.296875 -9.28125 
L 0 -9.28125 
z
" id="DejaVuSans-47"/>
       <path d="M 45.40625 46.390625 
L 45.40625 75.984375 
L 54.390625 75.984375 
L 54.390625 0 
L 45.40625 0 
L 45.40625 8.203125 
Q 42.578125 3.328125 38.25 0.953125 
Q 33.9375 -1.421875 27.875 -1.421875 
Q 17.96875 -1.421875 11.734375 6.484375 
Q 5.515625 14.40625 5.515625 27.296875 
Q 5.515625 40.1875 11.734375 48.09375 
Q 17.96875 56 27.875 56 
Q 33.9375 56 38.25 53.625 
Q 42.578125 51.265625 45.40625 46.390625 
z
M 14.796875 27.296875 
Q 14.796875 17.390625 18.875 11.75 
Q 22.953125 6.109375 30.078125 6.109375 
Q 37.203125 6.109375 41.296875 11.75 
Q 45.40625 17.390625 45.40625 27.296875 
Q 45.40625 37.203125 41.296875 42.84375 
Q 37.203125 48.484375 30.078125 48.484375 
Q 22.953125 48.484375 18.875 42.84375 
Q 14.796875 37.203125 14.796875 27.296875 
z
" id="DejaVuSans-100"/>
       <path d="M 9.421875 54.6875 
L 18.40625 54.6875 
L 18.40625 0 
L 9.421875 0 
z
M 9.421875 75.984375 
L 18.40625 75.984375 
L 18.40625 64.59375 
L 9.421875 64.59375 
z
" id="DejaVuSans-105"/>
       <path d="M 52 44.1875 
Q 55.375 50.25 60.0625 53.125 
Q 64.75 56 71.09375 56 
Q 79.640625 56 84.28125 50.015625 
Q 88.921875 44.046875 88.921875 33.015625 
L 88.921875 0 
L 79.890625 0 
L 79.890625 32.71875 
Q 79.890625 40.578125 77.09375 44.375 
Q 74.3125 48.1875 68.609375 48.1875 
Q 61.625 48.1875 57.5625 43.546875 
Q 53.515625 38.921875 53.515625 30.90625 
L 53.515625 0 
L 44.484375 0 
L 44.484375 32.71875 
Q 44.484375 40.625 41.703125 44.40625 
Q 38.921875 48.1875 33.109375 48.1875 
Q 26.21875 48.1875 22.15625 43.53125 
Q 18.109375 38.875 18.109375 30.90625 
L 18.109375 0 
L 9.078125 0 
L 9.078125 54.6875 
L 18.109375 54.6875 
L 18.109375 46.1875 
Q 21.1875 51.21875 25.484375 53.609375 
Q 29.78125 56 35.6875 56 
Q 41.65625 56 45.828125 52.96875 
Q 50 49.953125 52 44.1875 
z
" id="DejaVuSans-109"/>
       <path d="M 54.890625 33.015625 
L 54.890625 0 
L 45.90625 0 
L 45.90625 32.71875 
Q 45.90625 40.484375 42.875 44.328125 
Q 39.84375 48.1875 33.796875 48.1875 
Q 26.515625 48.1875 22.3125 43.546875 
Q 18.109375 38.921875 18.109375 30.90625 
L 18.109375 0 
L 9.078125 0 
L 9.078125 54.6875 
L 18.109375 54.6875 
L 18.109375 46.1875 
Q 21.34375 51.125 25.703125 53.5625 
Q 30.078125 56 35.796875 56 
Q 45.21875 56 50.046875 50.171875 
Q 54.890625 44.34375 54.890625 33.015625 
z
" id="DejaVuSans-110"/>
       <path d="M 8.015625 75.875 
L 15.828125 75.875 
Q 23.140625 64.359375 26.78125 53.3125 
Q 30.421875 42.28125 30.421875 31.390625 
Q 30.421875 20.453125 26.78125 9.375 
Q 23.140625 -1.703125 15.828125 -13.1875 
L 8.015625 -13.1875 
Q 14.5 -2 17.703125 9.0625 
Q 20.90625 20.125 20.90625 31.390625 
Q 20.90625 42.671875 17.703125 53.65625 
Q 14.5 64.65625 8.015625 75.875 
z
" id="DejaVuSans-41"/>
      </defs>
      <use xlink:href="#DejaVuSans-108"/>
      <use x="27.783203" xlink:href="#DejaVuSans-111"/>
      <use x="88.964844" xlink:href="#DejaVuSans-103"/>
      <use x="152.441406" xlink:href="#DejaVuSans-49"/>
      <use x="216.064453" xlink:href="#DejaVuSans-48"/>
      <use x="279.6875" xlink:href="#DejaVuSans-40"/>
      <use x="318.701172" xlink:href="#DejaVuSans-35"/>
      <use x="402.490234" xlink:href="#DejaVuSans-32"/>
      <use x="434.277344" xlink:href="#DejaVuSans-102"/>
      <use x="463.982422" xlink:href="#DejaVuSans-45"/>
      <use x="500.066406" xlink:href="#DejaVuSans-101"/>
      <use x="561.589844" xlink:href="#DejaVuSans-118"/>
      <use x="620.769531" xlink:href="#DejaVuSans-97"/>
      <use x="682.048828" xlink:href="#DejaVuSans-108"/>
      <use x="709.832031" xlink:href="#DejaVuSans-115"/>
      <use x="761.931641" xlink:href="#DejaVuSans-32"/>
      <use x="793.71875" xlink:href="#DejaVuSans-47"/>
      <use x="827.410156" xlink:href="#DejaVuSans-32"/>
      <use x="859.197266" xlink:href="#DejaVuSans-100"/>
      <use x="922.673828" xlink:href="#DejaVuSans-105"/>
      <use x="950.457031" xlink:href="#DejaVuSans-109"/>
      <use x="1047.869141" xlink:href="#DejaVuSans-101"/>
      <use x="1109.392578" xlink:href="#DejaVuSans-110"/>
      <use x="1172.771484" xlink:href="#DejaVuSans-115"/>
      <use x="1224.871094" xlink:href="#DejaVuSans-105"/>
      <use x="1252.654297" xlink:href="#DejaVuSans-111"/>
      <use x="1313.835938" xlink:href="#DejaVuSans-110"/>
      <use x="1377.214844" xlink:href="#DejaVuSans-41"/>
     </g>
    </g>
   </g>
   <g id="matplotlib.axis_2">
    <g id="ytick_1">
     <g id="line2d_21">
      <path clip-path="url(#p94462afb3a)" d="M 57.6 298.944 
L 338.688 298.944 
" style="fill:none;stroke:#b0b0b0;stroke-linecap:square;stroke-width:0.8;"/>
     </g>
     <g id="line2d_22">
      <defs>
       <path d="M 0 0 
L -3.5 0 
" id="mcf529e73fc" style="stroke:#000000;stroke-width:0.8;"/>
      </defs>
      <g>
       <use style="stroke:#000000;stroke-width:0.8;" x="57.6" xlink:href="#mcf529e73fc" y="298.944"/>
      </g>
     </g>
     <g id="text_6">
      <!-- 0.0 -->
      <g transform="translate(25.155 305.02275)scale(0.16 -0.16)">
       <defs>
        <path d="M 10.6875 12.40625 
L 21 12.40625 
L 21 0 
L 10.6875 0 
z
" id="DejaVuSans-46"/>
       </defs>
       <use xlink:href="#DejaVuSans-48"/>
       <use x="63.623047" xlink:href="#DejaVuSans-46"/>
       <use x="95.410156" xlink:href="#DejaVuSans-48"/>
      </g>
     </g>
    </g>
    <g id="ytick_2">
     <g id="line2d_23">
      <path clip-path="url(#p94462afb3a)" d="M 57.6 240.431525 
L 338.688 240.431525 
" style="fill:none;stroke:#b0b0b0;stroke-linecap:square;stroke-width:0.8;"/>
     </g>
     <g id="line2d_24">
      <g>
       <use style="stroke:#000000;stroke-width:0.8;" x="57.6" xlink:href="#mcf529e73fc" y="240.431525"/>
      </g>
     </g>
     <g id="text_7">
      <!-- 0.2 -->
      <g transform="translate(25.155 246.510275)scale(0.16 -0.16)">
       <use xlink:href="#DejaVuSans-48"/>
       <use x="63.623047" xlink:href="#DejaVuSans-46"/>
       <use x="95.410156" xlink:href="#DejaVuSans-50"/>
      </g>
     </g>
    </g>
    <g id="ytick_3">
     <g id="line2d_25">
      <path clip-path="url(#p94462afb3a)" d="M 57.6 181.91905 
L 338.688 181.91905 
" style="fill:none;stroke:#b0b0b0;stroke-linecap:square;stroke-width:0.8;"/>
     </g>
     <g id="line2d_26">
      <g>
       <use style="stroke:#000000;stroke-width:0.8;" x="57.6" xlink:href="#mcf529e73fc" y="181.91905"/>
      </g>
     </g>
     <g id="text_8">
      <!-- 0.4 -->
      <g transform="translate(25.155 187.9978)scale(0.16 -0.16)">
       <use xlink:href="#DejaVuSans-48"/>
       <use x="63.623047" xlink:href="#DejaVuSans-46"/>
       <use x="95.410156" xlink:href="#DejaVuSans-52"/>
      </g>
     </g>
    </g>
    <g id="ytick_4">
     <g id="line2d_27">
      <path clip-path="url(#p94462afb3a)" d="M 57.6 123.406574 
L 338.688 123.406574 
" style="fill:none;stroke:#b0b0b0;stroke-linecap:square;stroke-width:0.8;"/>
     </g>
     <g id="line2d_28">
      <g>
       <use style="stroke:#000000;stroke-width:0.8;" x="57.6" xlink:href="#mcf529e73fc" y="123.406574"/>
      </g>
     </g>
     <g id="text_9">
      <!-- 0.6 -->
      <g transform="translate(25.155 129.485324)scale(0.16 -0.16)">
       <use xlink:href="#DejaVuSans-48"/>
       <use x="63.623047" xlink:href="#DejaVuSans-46"/>
       <use x="95.410156" xlink:href="#DejaVuSans-54"/>
      </g>
     </g>
    </g>
    <g id="ytick_5">
     <g id="line2d_29">
      <path clip-path="url(#p94462afb3a)" d="M 57.6 64.894099 
L 338.688 64.894099 
" style="fill:none;stroke:#b0b0b0;stroke-linecap:square;stroke-width:0.8;"/>
     </g>
     <g id="line2d_30">
      <g>
       <use style="stroke:#000000;stroke-width:0.8;" x="57.6" xlink:href="#mcf529e73fc" y="64.894099"/>
      </g>
     </g>
     <g id="text_10">
      <!-- 0.8 -->
      <g transform="translate(25.155 70.972849)scale(0.16 -0.16)">
       <defs>
        <path d="M 31.78125 34.625 
Q 24.75 34.625 20.71875 30.859375 
Q 16.703125 27.09375 16.703125 20.515625 
Q 16.703125 13.921875 20.71875 10.15625 
Q 24.75 6.390625 31.78125 6.390625 
Q 38.8125 6.390625 42.859375 10.171875 
Q 46.921875 13.96875 46.921875 20.515625 
Q 46.921875 27.09375 42.890625 30.859375 
Q 38.875 34.625 31.78125 34.625 
z
M 21.921875 38.8125 
Q 15.578125 40.375 12.03125 44.71875 
Q 8.5 49.078125 8.5 55.328125 
Q 8.5 64.0625 14.71875 69.140625 
Q 20.953125 74.21875 31.78125 74.21875 
Q 42.671875 74.21875 48.875 69.140625 
Q 55.078125 64.0625 55.078125 55.328125 
Q 55.078125 49.078125 51.53125 44.71875 
Q 48 40.375 41.703125 38.8125 
Q 48.828125 37.15625 52.796875 32.3125 
Q 56.78125 27.484375 56.78125 20.515625 
Q 56.78125 9.90625 50.3125 4.234375 
Q 43.84375 -1.421875 31.78125 -1.421875 
Q 19.734375 -1.421875 13.25 4.234375 
Q 6.78125 9.90625 6.78125 20.515625 
Q 6.78125 27.484375 10.78125 32.3125 
Q 14.796875 37.15625 21.921875 38.8125 
z
M 18.3125 54.390625 
Q 18.3125 48.734375 21.84375 45.5625 
Q 25.390625 42.390625 31.78125 42.390625 
Q 38.140625 42.390625 41.71875 45.5625 
Q 45.3125 48.734375 45.3125 54.390625 
Q 45.3125 60.0625 41.71875 63.234375 
Q 38.140625 66.40625 31.78125 66.40625 
Q 25.390625 66.40625 21.84375 63.234375 
Q 18.3125 60.0625 18.3125 54.390625 
z
" id="DejaVuSans-56"/>
       </defs>
       <use xlink:href="#DejaVuSans-48"/>
       <use x="63.623047" xlink:href="#DejaVuSans-46"/>
       <use x="95.410156" xlink:href="#DejaVuSans-56"/>
      </g>
     </g>
    </g>
    <g id="ytick_6">
     <g id="line2d_31">
      <path clip-path="url(#p94462afb3a)" d="M 57.6 6.381624 
L 338.688 6.381624 
" style="fill:none;stroke:#b0b0b0;stroke-linecap:square;stroke-width:0.8;"/>
     </g>
     <g id="line2d_32">
      <g>
       <use style="stroke:#000000;stroke-width:0.8;" x="57.6" xlink:href="#mcf529e73fc" y="6.381624"/>
      </g>
     </g>
     <g id="text_11">
      <!-- 1.0 -->
      <g transform="translate(25.155 12.460374)scale(0.16 -0.16)">
       <use xlink:href="#DejaVuSans-49"/>
       <use x="63.623047" xlink:href="#DejaVuSans-46"/>
       <use x="95.410156" xlink:href="#DejaVuSans-48"/>
      </g>
     </g>
    </g>
    <g id="text_12">
     <!-- Fraction of function,target pairs -->
     <g transform="translate(17.619531 285.585)rotate(-90)scale(0.17 -0.17)">
      <defs>
       <path d="M 9.8125 72.90625 
L 51.703125 72.90625 
L 51.703125 64.59375 
L 19.671875 64.59375 
L 19.671875 43.109375 
L 48.578125 43.109375 
L 48.578125 34.8125 
L 19.671875 34.8125 
L 19.671875 0 
L 9.8125 0 
z
" id="DejaVuSans-70"/>
       <path d="M 41.109375 46.296875 
Q 39.59375 47.171875 37.8125 47.578125 
Q 36.03125 48 33.890625 48 
Q 26.265625 48 22.1875 43.046875 
Q 18.109375 38.09375 18.109375 28.8125 
L 18.109375 0 
L 9.078125 0 
L 9.078125 54.6875 
L 18.109375 54.6875 
L 18.109375 46.1875 
Q 20.953125 51.171875 25.484375 53.578125 
Q 30.03125 56 36.53125 56 
Q 37.453125 56 38.578125 55.875 
Q 39.703125 55.765625 41.0625 55.515625 
z
" id="DejaVuSans-114"/>
       <path d="M 48.78125 52.59375 
L 48.78125 44.1875 
Q 44.96875 46.296875 41.140625 47.34375 
Q 37.3125 48.390625 33.40625 48.390625 
Q 24.65625 48.390625 19.8125 42.84375 
Q 14.984375 37.3125 14.984375 27.296875 
Q 14.984375 17.28125 19.8125 11.734375 
Q 24.65625 6.203125 33.40625 6.203125 
Q 37.3125 6.203125 41.140625 7.25 
Q 44.96875 8.296875 48.78125 10.40625 
L 48.78125 2.09375 
Q 45.015625 0.34375 40.984375 -0.53125 
Q 36.96875 -1.421875 32.421875 -1.421875 
Q 20.0625 -1.421875 12.78125 6.34375 
Q 5.515625 14.109375 5.515625 27.296875 
Q 5.515625 40.671875 12.859375 48.328125 
Q 20.21875 56 33.015625 56 
Q 37.15625 56 41.109375 55.140625 
Q 45.0625 54.296875 48.78125 52.59375 
z
" id="DejaVuSans-99"/>
       <path d="M 18.3125 70.21875 
L 18.3125 54.6875 
L 36.8125 54.6875 
L 36.8125 47.703125 
L 18.3125 47.703125 
L 18.3125 18.015625 
Q 18.3125 11.328125 20.140625 9.421875 
Q 21.96875 7.515625 27.59375 7.515625 
L 36.8125 7.515625 
L 36.8125 0 
L 27.59375 0 
Q 17.1875 0 13.234375 3.875 
Q 9.28125 7.765625 9.28125 18.015625 
L 9.28125 47.703125 
L 2.6875 47.703125 
L 2.6875 54.6875 
L 9.28125 54.6875 
L 9.28125 70.21875 
z
" id="DejaVuSans-116"/>
       <path d="M 8.5 21.578125 
L 8.5 54.6875 
L 17.484375 54.6875 
L 17.484375 21.921875 
Q 17.484375 14.15625 20.5 10.265625 
Q 23.53125 6.390625 29.59375 6.390625 
Q 36.859375 6.390625 41.078125 11.03125 
Q 45.3125 15.671875 45.3125 23.6875 
L 45.3125 54.6875 
L 54.296875 54.6875 
L 54.296875 0 
L 45.3125 0 
L 45.3125 8.40625 
Q 42.046875 3.421875 37.71875 1 
Q 33.40625 -1.421875 27.6875 -1.421875 
Q 18.265625 -1.421875 13.375 4.4375 
Q 8.5 10.296875 8.5 21.578125 
z
M 31.109375 56 
z
" id="DejaVuSans-117"/>
       <path d="M 11.71875 12.40625 
L 22.015625 12.40625 
L 22.015625 4 
L 14.015625 -11.625 
L 7.71875 -11.625 
L 11.71875 4 
z
" id="DejaVuSans-44"/>
       <path d="M 18.109375 8.203125 
L 18.109375 -20.796875 
L 9.078125 -20.796875 
L 9.078125 54.6875 
L 18.109375 54.6875 
L 18.109375 46.390625 
Q 20.953125 51.265625 25.265625 53.625 
Q 29.59375 56 35.59375 56 
Q 45.5625 56 51.78125 48.09375 
Q 58.015625 40.1875 58.015625 27.296875 
Q 58.015625 14.40625 51.78125 6.484375 
Q 45.5625 -1.421875 35.59375 -1.421875 
Q 29.59375 -1.421875 25.265625 0.953125 
Q 20.953125 3.328125 18.109375 8.203125 
z
M 48.6875 27.296875 
Q 48.6875 37.203125 44.609375 42.84375 
Q 40.53125 48.484375 33.40625 48.484375 
Q 26.265625 48.484375 22.1875 42.84375 
Q 18.109375 37.203125 18.109375 27.296875 
Q 18.109375 17.390625 22.1875 11.75 
Q 26.265625 6.109375 33.40625 6.109375 
Q 40.53125 6.109375 44.609375 11.75 
Q 48.6875 17.390625 48.6875 27.296875 
z
" id="DejaVuSans-112"/>
      </defs>
      <use xlink:href="#DejaVuSans-70"/>
      <use x="50.269531" xlink:href="#DejaVuSans-114"/>
      <use x="91.382812" xlink:href="#DejaVuSans-97"/>
      <use x="152.662109" xlink:href="#DejaVuSans-99"/>
      <use x="207.642578" xlink:href="#DejaVuSans-116"/>
      <use x="246.851562" xlink:href="#DejaVuSans-105"/>
      <use x="274.634766" xlink:href="#DejaVuSans-111"/>
      <use x="335.816406" xlink:href="#DejaVuSans-110"/>
      <use x="399.195312" xlink:href="#DejaVuSans-32"/>
      <use x="430.982422" xlink:href="#DejaVuSans-111"/>
      <use x="492.164062" xlink:href="#DejaVuSans-102"/>
      <use x="527.369141" xlink:href="#DejaVuSans-32"/>
      <use x="559.15625" xlink:href="#DejaVuSans-102"/>
      <use x="594.361328" xlink:href="#DejaVuSans-117"/>
      <use x="657.740234" xlink:href="#DejaVuSans-110"/>
      <use x="721.119141" xlink:href="#DejaVuSans-99"/>
      <use x="776.099609" xlink:href="#DejaVuSans-116"/>
      <use x="815.308594" xlink:href="#DejaVuSans-105"/>
      <use x="843.091797" xlink:href="#DejaVuSans-111"/>
      <use x="904.273438" xlink:href="#DejaVuSans-110"/>
      <use x="967.652344" xlink:href="#DejaVuSans-44"/>
      <use x="999.439453" xlink:href="#DejaVuSans-116"/>
      <use x="1038.648438" xlink:href="#DejaVuSans-97"/>
      <use x="1099.927734" xlink:href="#DejaVuSans-114"/>
      <use x="1139.291016" xlink:href="#DejaVuSans-103"/>
      <use x="1202.767578" xlink:href="#DejaVuSans-101"/>
      <use x="1264.291016" xlink:href="#DejaVuSans-116"/>
      <use x="1303.5" xlink:href="#DejaVuSans-32"/>
      <use x="1335.287109" xlink:href="#DejaVuSans-112"/>
      <use x="1398.763672" xlink:href="#DejaVuSans-97"/>
      <use x="1460.042969" xlink:href="#DejaVuSans-105"/>
      <use x="1487.826172" xlink:href="#DejaVuSans-114"/>
      <use x="1528.939453" xlink:href="#DejaVuSans-115"/>
     </g>
    </g>
   </g>
   <g id="line2d_33">
    <defs>
     <path d="M 0 1.5 
C 0.397805 1.5 0.77937 1.341951 1.06066 1.06066 
C 1.341951 0.77937 1.5 0.397805 1.5 0 
C 1.5 -0.397805 1.341951 -0.77937 1.06066 -1.06066 
C 0.77937 -1.341951 0.397805 -1.5 0 -1.5 
C -0.397805 -1.5 -0.77937 -1.341951 -1.06066 -1.06066 
C -1.341951 -0.77937 -1.5 -0.397805 -1.5 0 
C -1.5 0.397805 -1.341951 0.77937 -1.06066 1.06066 
C -0.77937 1.341951 -0.397805 1.5 0 1.5 
z
" id="m8b456099ff" style="stroke:#f5deb3;"/>
    </defs>
    <g>
     <use style="fill:#f5deb3;stroke:#f5deb3;" x="142.351634" xlink:href="#m8b456099ff" y="6.381624"/>
     <use style="fill:#f5deb3;stroke:#f5deb3;" x="142.351634" xlink:href="#m8b456099ff" y="6.381624"/>
    </g>
   </g>
   <g id="line2d_34">
    <defs>
     <path d="M 0 1.5 
C 0.397805 1.5 0.77937 1.341951 1.06066 1.06066 
C 1.341951 0.77937 1.5 0.397805 1.5 0 
C 1.5 -0.397805 1.341951 -0.77937 1.06066 -1.06066 
C 0.77937 -1.341951 0.397805 -1.5 0 -1.5 
C -0.397805 -1.5 -0.77937 -1.341951 -1.06066 -1.06066 
C -1.341951 -0.77937 -1.5 -0.397805 -1.5 0 
C -1.5 0.397805 -1.341951 0.77937 -1.06066 1.06066 
C -0.77937 1.341951 -0.397805 1.5 0 1.5 
z
" id="md632b43194" style="stroke:#000080;"/>
    </defs>
    <g>
     <use style="fill:#000080;stroke:#000080;" x="229.602791" xlink:href="#md632b43194" y="6.381624"/>
     <use style="fill:#000080;stroke:#000080;" x="229.602791" xlink:href="#md632b43194" y="6.381624"/>
    </g>
   </g>
   <g id="line2d_35">
    <path d="M 45.512012 298.944 
L 45.512012 294.928438 
L 57.6 294.928438 
L 57.6 292.920657 
L 64.67102 292.920657 
L 64.67102 288.761682 
L 69.687988 288.761682 
L 69.687988 287.040727 
L 73.579452 287.040727 
L 73.579452 285.606598 
L 76.759008 285.606598 
L 76.759008 284.602707 
L 79.447285 284.602707 
L 79.447285 283.455404 
L 81.775977 283.455404 
L 81.775977 282.451513 
L 83.830028 282.451513 
L 83.830028 282.164687 
L 85.66744 282.164687 
L 85.66744 281.30421 
L 87.329581 281.30421 
L 87.329581 280.730558 
L 88.846997 280.730558 
L 88.846997 279.296429 
L 90.242884 279.296429 
L 90.242884 277.288648 
L 91.535274 277.288648 
L 91.535274 275.567692 
L 93.863965 275.567692 
L 93.863965 273.559911 
L 94.921215 273.559911 
L 94.921215 271.408718 
L 95.918017 271.408718 
L 95.918017 270.978479 
L 96.86091 270.978479 
L 96.86091 270.691653 
L 97.755429 270.691653 
L 97.755429 269.257524 
L 98.606294 269.257524 
L 98.606294 268.397046 
L 99.41757 268.397046 
L 99.41757 267.393156 
L 100.192776 267.393156 
L 100.192776 267.10633 
L 100.934985 267.10633 
L 100.934985 266.245852 
L 101.646892 266.245852 
L 101.646892 266.102439 
L 102.330873 266.102439 
L 102.330873 265.959026 
L 102.989037 265.959026 
L 102.989037 265.385374 
L 103.623262 265.385374 
L 103.623262 265.241962 
L 104.826449 265.241962 
L 104.826449 264.811723 
L 105.951954 264.811723 
L 105.951954 264.66831 
L 106.48859 264.66831 
L 106.48859 264.524897 
L 107.009204 264.524897 
L 107.009204 262.086877 
L 107.514726 262.086877 
L 107.514726 261.943464 
L 108.006005 261.943464 
L 108.006005 261.513225 
L 108.483824 261.513225 
L 108.483824 260.652748 
L 108.948899 260.652748 
L 108.948899 260.079096 
L 109.401893 260.079096 
L 109.401893 258.358141 
L 109.843417 258.358141 
L 109.843417 258.071315 
L 110.274038 258.071315 
L 110.274038 257.35425 
L 110.694282 257.35425 
L 110.694282 256.35036 
L 111.104637 256.35036 
L 111.104637 255.346469 
L 111.505558 255.346469 
L 111.505558 254.772818 
L 111.897469 254.772818 
L 111.897469 254.342579 
L 112.280765 254.342579 
L 112.280765 253.91234 
L 112.655818 253.91234 
L 112.655818 253.482101 
L 113.022974 253.482101 
L 113.022974 253.051863 
L 114.080224 253.051863 
L 114.080224 252.765037 
L 114.418861 252.765037 
L 114.418861 251.904559 
L 114.751048 251.904559 
L 114.751048 251.617733 
L 115.077025 251.617733 
L 115.077025 250.757256 
L 115.397021 250.757256 
L 115.397021 250.47043 
L 116.019919 250.47043 
L 116.019919 250.183604 
L 116.323218 250.183604 
L 116.323218 249.753365 
L 117.765302 249.753365 
L 117.765302 249.609952 
L 118.838828 249.609952 
L 118.838828 249.466539 
L 119.097192 249.466539 
L 119.097192 249.323126 
L 119.351785 249.323126 
L 119.351785 248.749475 
L 119.850084 248.749475 
L 119.850084 248.606062 
L 120.33454 248.606062 
L 120.33454 248.462649 
L 120.571812 248.462649 
L 120.571812 248.175823 
L 121.036887 248.175823 
L 121.036887 247.745584 
L 122.148045 247.745584 
L 122.148045 247.315345 
L 122.573415 247.315345 
L 122.573415 247.171932 
L 122.988655 247.171932 
L 122.988655 246.741694 
L 123.593547 246.741694 
L 123.593547 246.454868 
L 124.557288 246.454868 
L 124.557288 246.168042 
L 125.291682 246.168042 
L 125.291682 246.024629 
L 126.338353 246.024629 
L 126.338353 245.881216 
L 126.673734 245.881216 
L 126.673734 245.737803 
L 127.002787 245.737803 
L 127.002787 245.59439 
L 127.165014 245.59439 
L 127.165014 245.450977 
L 127.325746 245.450977 
L 127.325746 245.307564 
L 127.799239 245.307564 
L 127.799239 244.877326 
L 127.954256 244.877326 
L 127.954256 244.447087 
L 128.260216 244.447087 
L 128.260216 243.873435 
L 128.560901 243.873435 
L 128.560901 243.730022 
L 128.856489 243.730022 
L 128.856489 243.586609 
L 129.574256 243.586609 
L 129.574256 243.15637 
L 130.531948 243.15637 
L 130.531948 242.439306 
L 130.796184 242.439306 
L 130.796184 242.15248 
L 131.185181 242.15248 
L 131.185181 242.009067 
L 131.690703 242.009067 
L 131.690703 241.292002 
L 132.181982 241.292002 
L 132.181982 240.861764 
L 132.659801 240.861764 
L 132.659801 240.144699 
L 132.777237 240.144699 
L 132.777237 239.857873 
L 133.009765 239.857873 
L 133.009765 239.284221 
L 133.124876 239.284221 
L 133.124876 238.423744 
L 133.352844 238.423744 
L 133.352844 238.280331 
L 133.46572 238.280331 
L 133.46572 238.136918 
L 133.800029 238.136918 
L 133.910056 237.419853 
L 134.12805 237.419853 
L 134.236034 236.702789 
L 134.343353 236.702789 
L 134.450015 236.415963 
L 134.55603 236.415963 
L 134.661403 235.268659 
L 136.266147 235.268659 
L 136.361705 234.264769 
L 136.456742 234.264769 
L 136.456742 234.121356 
L 137.016339 234.121356 
L 137.016339 232.256988 
L 137.37967 232.256988 
L 137.469333 231.109684 
L 137.558536 231.109684 
L 137.558536 230.679446 
L 137.997836 230.679446 
L 137.997836 230.536033 
L 138.426341 230.536033 
L 138.510793 230.105794 
L 139.172077 230.105794 
L 139.253002 229.532142 
L 139.333553 229.532142 
L 139.413734 229.245316 
L 139.493548 229.245316 
L 139.493548 228.528252 
L 139.8092 228.528252 
L 139.887228 226.950709 
L 140.348205 226.950709 
L 140.348205 226.663884 
L 140.723258 226.663884 
L 140.723258 226.520471 
L 140.944478 226.520471 
L 140.944478 226.377058 
L 141.45 226.377058 
L 141.45 226.233645 
L 142.553247 226.233645 
L 142.553247 225.373167 
L 142.884173 225.373167 
L 142.884173 225.086341 
L 143.208936 225.086341 
L 143.208936 223.939038 
L 143.464461 223.939038 
L 143.464461 223.795625 
L 143.840863 223.795625 
L 143.840863 223.652212 
L 143.964547 223.652212 
L 143.964547 223.365386 
L 144.087359 223.365386 
L 144.087359 222.504909 
L 144.269971 222.504909 
L 144.269971 222.07467 
L 144.570138 222.07467 
L 144.629556 221.644431 
L 144.806606 221.644431 
L 144.806606 221.501018 
L 145.888018 221.501018 
L 145.998045 221.070779 
L 146.216039 221.070779 
L 146.324022 220.210302 
L 146.484754 220.210302 
L 146.484754 219.780063 
L 146.696785 219.780063 
L 146.696785 219.63665 
L 147.113265 219.63665 
L 147.215849 219.206411 
L 147.419225 219.206411 
L 147.419225 218.345934 
L 147.670154 218.345934 
L 147.769524 217.485456 
L 148.354135 217.485456 
L 148.449693 216.481566 
L 148.639252 216.481566 
L 148.639252 216.338153 
L 150.215485 216.338153 
L 150.215485 215.621088 
L 150.429467 215.621088 
L 150.47195 215.190849 
L 150.766468 215.190849 
L 150.766468 214.904023 
L 150.932558 214.904023 
L 150.932558 214.76061 
L 151.381313 214.76061 
L 151.381313 214.617197 
L 152.322086 214.617197 
L 152.322086 214.186959 
L 152.736878 214.186959 
L 152.736878 213.75672 
L 152.995791 213.75672 
L 152.995791 213.183068 
L 153.214697 213.183068 
L 153.250915 212.466003 
L 153.430889 212.466003 
L 153.430889 212.322591 
L 153.715038 212.322591 
L 153.820412 210.601635 
L 154.063835 210.601635 
L 154.063835 210.171397 
L 154.269814 210.171397 
L 154.337936 209.454332 
L 154.405793 209.454332 
L 154.473387 208.307029 
L 155.678822 208.307029 
L 155.678822 208.163616 
L 155.83551 208.163616 
L 155.83551 204.865118 
L 155.959855 204.865118 
L 155.959855 204.721705 
L 156.144725 204.721705 
L 156.144725 204.148054 
L 156.297301 204.148054 
L 156.357959 203.574402 
L 156.448553 203.574402 
L 156.448553 203.287576 
L 156.568618 203.287576 
L 156.658127 199.989079 
L 156.894595 199.989079 
L 156.894595 199.702253 
L 157.040776 199.702253 
L 157.040776 199.128601 
L 157.893028 199.128601 
L 157.893028 198.698362 
L 158.222599 198.698362 
L 158.222599 197.981298 
L 158.412011 197.981298 
L 158.51933 197.694472 
L 158.572743 197.694472 
L 158.572743 195.686691 
L 158.942121 195.686691 
L 158.942121 195.543278 
L 159.431225 195.543278 
L 159.507213 194.826213 
L 159.832723 194.826213 
L 159.832723 194.252561 
L 159.980933 194.252561 
L 160.054568 193.248671 
L 160.418152 193.248671 
L 160.513841 191.384303 
L 160.56149 191.384303 
L 160.56149 191.24089 
L 160.797798 191.24089 
L 160.844678 190.810651 
L 161.192316 190.810651 
L 161.192316 190.523825 
L 162.474869 190.523825 
L 162.474869 188.229218 
L 162.62347 188.229218 
L 162.665696 187.79898 
L 162.812686 187.79898 
L 162.812686 187.512154 
L 163.164589 187.512154 
L 163.185069 187.225328 
L 163.828065 187.225328 
L 163.906798 186.651676 
L 163.965615 186.651676 
L 163.965615 185.934612 
L 164.102088 185.934612 
L 164.179597 185.36096 
L 164.218222 185.36096 
L 164.218222 185.074134 
L 164.410075 185.074134 
L 164.410075 184.643895 
L 164.543127 184.643895 
L 164.543127 184.500482 
L 164.75018 184.500482 
L 164.75018 184.357069 
L 165.284547 184.357069 
L 165.284547 184.070243 
L 165.447111 184.070243 
L 165.447111 183.496592 
L 165.572509 183.496592 
L 165.661531 182.92294 
L 165.820633 182.92294 
L 165.820633 182.636114 
L 166.255117 182.636114 
L 166.34073 181.91905 
L 166.812546 181.91905 
L 166.878918 181.345398 
L 166.96153 181.345398 
L 167.010909 180.341507 
L 167.158215 180.341507 
L 167.158215 177.903487 
L 167.751064 177.903487 
L 167.751064 177.760075 
L 168.01684 177.760075 
L 168.094245 175.895706 
L 168.18668 175.895706 
L 168.18668 175.752294 
L 168.309168 175.752294 
L 168.385289 175.035229 
L 168.491304 175.035229 
L 168.551595 174.031338 
L 168.894283 174.031338 
L 168.894283 173.457687 
L 169.288161 173.457687 
L 169.388841 173.027448 
L 169.51744 173.027448 
L 169.51744 172.884035 
L 170.687376 172.884035 
L 170.727268 172.023557 
L 171.134225 172.023557 
L 171.134225 171.736732 
L 171.531901 171.736732 
L 171.557249 170.876254 
L 171.8212 170.876254 
L 171.8212 170.446015 
L 172.349517 170.446015 
L 172.458099 169.011886 
L 172.506141 169.011886 
L 172.60183 168.151408 
L 172.696997 168.151408 
L 172.744386 167.864582 
L 173.326137 167.864582 
L 173.394661 167.434344 
L 173.496944 167.434344 
L 173.496944 167.004105 
L 173.677313 167.004105 
L 173.677313 164.566085 
L 174.261802 164.566085 
L 174.337554 163.84902 
L 174.488079 163.84902 
L 174.584164 162.988543 
L 174.816832 162.988543 
L 174.816832 161.124175 
L 174.952873 161.124175 
L 174.952873 160.980762 
L 175.118863 160.980762 
L 175.118863 159.116394 
L 175.896315 159.116394 
L 175.975136 156.821787 
L 176.014414 156.821787 
L 176.092705 155.817896 
L 176.545699 155.817896 
L 176.640581 155.387658 
L 177.31801 155.387658 
L 177.417845 154.670593 
L 177.526107 154.670593 
L 177.526107 154.240354 
L 177.811565 154.240354 
L 177.811565 154.096941 
L 178.075003 154.096941 
L 178.118525 153.236464 
L 178.222537 153.236464 
L 178.25707 150.941857 
L 178.360262 150.941857 
L 178.411629 150.655031 
L 178.875579 150.655031 
L 178.875579 150.511618 
L 179.074226 150.511618 
L 179.074226 148.503837 
L 179.432635 148.503837 
L 179.529118 147.643359 
L 179.545147 147.643359 
L 179.648977 145.635578 
L 179.656938 145.635578 
L 179.688747 145.348752 
L 180.112585 145.348752 
L 180.197673 143.484384 
L 180.313038 143.484384 
L 180.313038 143.340971 
L 180.692168 143.340971 
L 180.796864 139.612235 
L 180.819217 139.612235 
L 180.886106 138.751758 
L 180.960126 138.751758 
L 180.960126 138.464932 
L 181.397773 138.464932 
L 181.448123 137.747867 
L 182.075935 137.747867 
L 182.138181 137.461041 
L 182.405376 137.461041 
L 182.405376 137.174215 
L 182.861682 137.174215 
L 182.940981 136.170325 
L 183.059259 136.170325 
L 183.124623 135.740086 
L 183.460626 135.740086 
L 183.518129 132.585002 
L 183.940347 132.585002 
L 184.04587 132.298176 
L 184.052058 132.298176 
L 184.095309 131.724524 
L 184.193766 131.724524 
L 184.193766 131.150872 
L 184.45565 131.150872 
L 184.55811 129.143091 
L 184.612111 129.143091 
L 184.624088 128.56944 
L 185.014801 128.56944 
L 185.079078 127.995788 
L 185.160543 127.995788 
L 185.160543 127.278723 
L 185.494044 127.278723 
L 185.567927 125.988007 
L 185.849212 125.988007 
L 185.927165 125.127529 
L 185.971554 125.127529 
L 185.977095 124.410465 
L 186.317224 124.410465 
L 186.425543 123.263161 
L 186.709376 123.263161 
L 186.778295 122.115858 
L 186.873275 122.115858 
L 186.894312 121.829032 
L 187.139609 121.829032 
L 187.217174 118.387122 
L 187.278979 118.387122 
L 187.28412 117.81347 
L 187.564541 117.81347 
L 187.650312 117.526644 
L 188.038531 117.526644 
L 188.092591 116.952992 
L 188.360406 116.952992 
L 188.461588 115.518863 
L 188.475994 115.518863 
L 188.475994 114.945211 
L 188.662206 114.945211 
L 188.662206 114.514973 
L 188.865238 114.514973 
L 188.865238 113.654495 
L 189.000844 113.654495 
L 189.000844 113.080843 
L 189.126156 113.080843 
L 189.199993 112.220366 
L 189.465061 112.220366 
L 189.465061 112.076953 
L 189.587093 112.076953 
L 189.591596 111.646714 
L 189.864126 111.646714 
L 189.965787 111.073062 
L 190.206514 111.073062 
L 190.249927 110.212585 
L 190.345059 110.212585 
L 190.345059 109.925759 
L 190.567873 109.925759 
L 190.648581 108.778455 
L 190.859203 108.778455 
L 190.946912 107.0575 
L 191.19921 107.0575 
L 191.309728 106.340436 
L 191.435761 106.340436 
L 191.435761 106.05361 
L 191.62913 106.05361 
L 191.62913 105.766784 
L 191.836221 105.766784 
L 191.887612 105.049719 
L 191.962451 105.049719 
L 191.962451 104.906306 
L 192.492773 104.906306 
L 192.576451 103.328764 
L 192.855003 103.328764 
L 192.855003 102.324874 
L 193.066571 102.324874 
L 193.118145 101.894635 
L 193.187895 101.894635 
L 193.187895 101.751222 
L 193.402725 101.751222 
L 193.442487 100.17368 
L 193.546882 100.17368 
L 193.632808 99.456615 
L 194.010824 99.456615 
L 194.010824 99.169789 
L 194.250316 99.169789 
L 194.267544 98.452725 
L 194.554448 98.452725 
L 194.554448 98.309312 
L 194.776607 98.309312 
L 194.83004 96.014705 
L 194.999275 96.014705 
L 195.068485 94.580575 
L 195.121033 94.580575 
L 195.121033 94.437162 
L 195.342611 94.437162 
L 195.345848 94.150337 
L 195.577389 94.150337 
L 195.628428 93.576685 
L 195.777496 93.576685 
L 195.83425 93.003033 
L 196.087383 93.003033 
L 196.130764 91.85573 
L 196.281755 91.85573 
L 196.38271 90.565013 
L 196.768858 90.565013 
L 196.768858 90.4216 
L 197.239821 90.4216 
L 197.309381 89.561123 
L 197.704055 89.561123 
L 197.704055 89.41771 
L 197.926036 89.41771 
L 197.973436 88.700645 
L 198.145226 88.700645 
L 198.222257 87.409929 
L 198.397061 87.409929 
L 198.456748 86.406038 
L 198.642632 86.406038 
L 198.666732 85.832387 
L 198.842458 85.832387 
L 198.874219 84.971909 
L 199.092327 84.971909 
L 199.092327 84.398257 
L 199.20426 84.398257 
L 199.297421 83.53778 
L 199.418305 83.53778 
L 199.443917 82.533889 
L 199.657586 82.533889 
L 199.657586 82.390476 
L 199.836169 82.390476 
L 199.903603 81.529999 
L 200.050059 81.529999 
L 200.069823 80.956347 
L 200.244254 80.956347 
L 200.244254 80.526108 
L 200.441145 80.526108 
L 200.441145 79.952457 
L 200.631057 79.952457 
L 200.631057 79.235392 
L 200.823653 79.235392 
L 200.875598 77.514437 
L 200.99074 77.514437 
L 201.044526 76.22372 
L 201.179426 76.22372 
L 201.234943 75.363243 
L 201.359214 75.363243 
L 201.423304 74.933004 
L 201.537167 74.933004 
L 201.575712 73.785701 
L 201.724555 73.785701 
L 201.773888 73.212049 
L 201.898837 73.212049 
L 201.954331 72.351571 
L 202.075798 72.351571 
L 202.075798 72.064745 
L 202.253159 72.064745 
L 202.327073 71.491094 
L 202.626033 71.491094 
L 202.664375 70.917442 
L 202.831665 70.917442 
L 202.831665 70.774029 
L 202.945098 70.774029 
L 202.999452 69.770139 
L 203.142884 69.770139 
L 203.171842 68.336009 
L 203.285145 68.336009 
L 203.336404 67.762358 
L 203.4344 67.762358 
L 203.483193 67.045293 
L 203.622716 67.045293 
L 203.640833 66.184815 
L 203.807027 66.184815 
L 203.811012 65.754577 
L 203.926189 65.754577 
L 203.969679 65.037512 
L 204.089699 65.037512 
L 204.117129 64.607273 
L 204.222526 64.607273 
L 204.249747 64.177034 
L 204.375579 64.177034 
L 204.435273 63.173144 
L 204.681506 63.173144 
L 204.730716 61.452189 
L 204.85689 61.452189 
L 204.88876 60.591711 
L 204.993333 60.591711 
L 205.054663 59.587821 
L 205.14718 59.587821 
L 205.187732 58.58393 
L 205.296022 58.58393 
L 205.31431 58.297104 
L 205.432716 58.297104 
L 205.470799 56.576149 
L 205.595346 56.576149 
L 205.611526 56.002497 
L 205.727938 56.002497 
L 205.776066 54.568368 
L 205.910829 54.568368 
L 206.02 53.564478 
L 206.046311 53.564478 
L 206.046311 53.421065 
L 206.179009 53.421065 
L 206.196394 52.560587 
L 206.296889 52.560587 
L 206.296889 52.417174 
L 206.415694 52.417174 
L 206.419126 51.843522 
L 206.583052 51.843522 
L 206.68473 51.126458 
L 206.703306 51.126458 
L 206.731977 50.122567 
L 206.822737 50.122567 
L 206.87964 48.258199 
L 207.095517 48.258199 
L 207.126845 46.82407 
L 207.271217 46.82407 
L 207.364096 46.250418 
L 207.477486 46.250418 
L 207.540342 44.816289 
L 207.614189 44.816289 
L 207.658988 43.525573 
L 207.74506 43.525573 
L 207.74506 43.38216 
L 207.893885 43.38216 
L 207.986651 42.665095 
L 208.021116 42.665095 
L 208.120993 40.94414 
L 208.144319 40.94414 
L 208.254307 39.51001 
L 208.374345 39.51001 
L 208.398866 39.223185 
L 208.527041 39.223185 
L 208.618021 37.789055 
L 208.660316 37.789055 
L 208.738593 37.071991 
L 208.777601 37.071991 
L 208.883679 35.924687 
L 208.891125 35.924687 
L 208.981711 35.207623 
L 209.093918 35.207623 
L 209.203945 34.203732 
L 209.246304 34.203732 
L 209.345225 32.769603 
L 209.433489 32.769603 
L 209.465213 32.195951 
L 209.567201 32.195951 
L 209.667173 30.474996 
L 209.70416 30.474996 
L 209.712684 29.757931 
L 209.817476 29.757931 
L 209.909006 28.897454 
L 209.937073 28.897454 
L 209.937073 28.754041 
L 210.051676 28.754041 
L 210.115638 28.180389 
L 210.22632 28.180389 
L 210.22632 28.036976 
L 210.376003 28.036976 
L 210.480973 27.033086 
L 210.571799 27.033086 
L 210.582612 26.602847 
L 210.693065 26.602847 
L 210.693065 26.459434 
L 210.88004 26.459434 
L 210.889336 26.029195 
L 211.005784 26.029195 
L 211.02819 25.168718 
L 211.30781 25.168718 
L 211.323358 24.881892 
L 211.54214 24.881892 
L 211.623799 24.164827 
L 211.724072 24.164827 
L 211.828805 23.017524 
L 211.840124 23.017524 
L 211.840124 22.874111 
L 212.108359 22.874111 
L 212.140519 22.157046 
L 212.302883 22.157046 
L 212.302883 21.87022 
L 212.497683 21.87022 
L 212.601496 21.296568 
L 212.615932 21.296568 
L 212.716655 20.722917 
L 212.882059 20.722917 
L 212.923461 20.149265 
L 213.002444 20.149265 
L 213.100965 18.858549 
L 213.254667 18.858549 
L 213.360997 18.284897 
L 213.449495 18.284897 
L 213.467828 17.854658 
L 213.562623 17.854658 
L 213.625156 16.420529 
L 213.724744 16.420529 
L 213.826012 15.99029 
L 214.010154 15.99029 
L 214.010154 14.699574 
L 214.19457 14.699574 
L 214.271294 14.412748 
L 214.37162 14.412748 
L 214.37162 14.125922 
L 214.507015 14.125922 
L 214.513488 13.55227 
L 214.687345 13.55227 
L 214.687345 12.978619 
L 214.883789 12.978619 
L 214.965956 12.691793 
L 215.186306 12.691793 
L 215.186306 12.404967 
L 215.365945 12.404967 
L 215.365945 12.261554 
L 215.52646 12.261554 
L 215.62591 11.544489 
L 215.760982 11.544489 
L 215.776037 11.257663 
L 215.914933 11.257663 
L 216.024071 10.827425 
L 216.026049 10.827425 
L 216.028027 10.397186 
L 216.165919 10.397186 
L 216.183569 10.11036 
L 216.405604 10.11036 
L 216.405604 9.823534 
L 216.564543 9.823534 
L 216.640131 9.536708 
L 216.954258 9.536708 
L 216.954258 9.393295 
L 217.082252 9.393295 
L 217.082252 9.249882 
L 217.962569 9.249882 
L 217.962569 9.106469 
L 218.241758 9.106469 
L 218.241758 8.532818 
L 219.439892 8.532818 
L 219.439892 8.102579 
L 220.228422 8.102579 
L 220.228422 7.959166 
L 220.701471 7.959166 
L 220.701471 7.815753 
L 221.35179 7.815753 
L 221.35179 7.67234 
L 224.342444 7.67234 
L 224.342444 7.528927 
L 224.487935 7.528927 
L 224.487935 7.385514 
L 224.922609 7.385514 
L 224.922609 7.098688 
L 226.468849 7.098688 
L 226.468849 6.955275 
L 227.279482 6.955275 
L 227.279482 6.66845 
L 227.772996 6.66845 
L 227.772996 6.525037 
L 229.602791 6.525037 
L 229.602791 6.381624 
L 338.688 6.381624 
L 338.688 6.381624 
" style="fill:none;stroke:#000080;stroke-linecap:square;stroke-width:1.5;"/>
   </g>
   <g id="line2d_36">
    <defs>
     <path d="M 0 6 
C 1.591219 6 3.117479 5.367802 4.242641 4.242641 
C 5.367802 3.117479 6 1.591219 6 0 
C 6 -1.591219 5.367802 -3.117479 4.242641 -4.242641 
C 3.117479 -5.367802 1.591219 -6 0 -6 
C -1.591219 -6 -3.117479 -5.367802 -4.242641 -4.242641 
C -5.367802 -3.117479 -6 -1.591219 -6 0 
C -6 1.591219 -5.367802 3.117479 -4.242641 4.242641 
C -3.117479 5.367802 -1.591219 6 0 6 
z
" id="m4c70723f73" style="stroke:#000080;stroke-width:1.5;"/>
    </defs>
    <g>
     <use style="fill-opacity:0;stroke:#000080;stroke-width:1.5;" x="104.826449" xlink:href="#m4c70723f73" y="265.241962"/>
     <use style="fill-opacity:0;stroke:#000080;stroke-width:1.5;" x="173.677313" xlink:href="#m4c70723f73" y="164.566085"/>
     <use style="fill-opacity:0;stroke:#000080;stroke-width:1.5;" x="209.203945" xlink:href="#m4c70723f73" y="34.633971"/>
     <use style="fill-opacity:0;stroke:#000080;stroke-width:1.5;" x="229.602791" xlink:href="#m4c70723f73" y="6.381624"/>
     <use style="fill-opacity:0;stroke:#000080;stroke-width:1.5;" x="229.602791" xlink:href="#m4c70723f73" y="6.381624"/>
     <use style="fill-opacity:0;stroke:#000080;stroke-width:1.5;" x="338.688" xlink:href="#m4c70723f73" y="6.381624"/>
    </g>
   </g>
   <g id="line2d_37">
    <path style="fill:none;stroke:#000080;stroke-linecap:square;stroke-width:1.5;"/>
    <g/>
   </g>
   <g id="line2d_38">
    <defs>
     <path d="M 0 1.5 
C 0.397805 1.5 0.77937 1.341951 1.06066 1.06066 
C 1.341951 0.77937 1.5 0.397805 1.5 0 
C 1.5 -0.397805 1.341951 -0.77937 1.06066 -1.06066 
C 0.77937 -1.341951 0.397805 -1.5 0 -1.5 
C -0.397805 -1.5 -0.77937 -1.341951 -1.06066 -1.06066 
C -1.341951 -0.77937 -1.5 -0.397805 -1.5 0 
C -1.5 0.397805 -1.341951 0.77937 -1.06066 1.06066 
C -0.77937 1.341951 -0.397805 1.5 0 1.5 
z
" id="m185a7db76c" style="stroke:#ff00ff;"/>
    </defs>
    <g>
     <use style="fill:#ff00ff;stroke:#ff00ff;" x="277.583116" xlink:href="#m185a7db76c" y="6.381624"/>
     <use style="fill:#ff00ff;stroke:#ff00ff;" x="277.583116" xlink:href="#m185a7db76c" y="6.381624"/>
    </g>
   </g>
   <g id="line2d_39">
    <path d="M 45.512012 298.944 
L 45.512012 294.928438 
L 57.6 294.928438 
L 57.6 291.629941 
L 64.67102 291.629941 
L 64.67102 287.18414 
L 69.687988 287.18414 
L 69.687988 283.598817 
L 73.579452 283.598817 
L 73.579452 280.873971 
L 76.759008 280.873971 
L 76.759008 279.583255 
L 79.447285 279.583255 
L 79.447285 278.579364 
L 81.775977 278.579364 
L 81.775977 277.575474 
L 83.830028 277.575474 
L 83.830028 277.001822 
L 85.66744 277.001822 
L 85.66744 275.567692 
L 87.329581 275.567692 
L 87.329581 274.276976 
L 88.846997 274.276976 
L 88.846997 272.699434 
L 90.242884 272.699434 
L 90.242884 271.55213 
L 91.535274 271.55213 
L 91.535274 270.118001 
L 92.73846 270.118001 
L 92.73846 268.253633 
L 93.863965 268.253633 
L 93.863965 267.393156 
L 94.921215 267.393156 
L 94.921215 266.532678 
L 96.86091 266.532678 
L 96.86091 266.245852 
L 98.606294 266.245852 
L 98.606294 265.815613 
L 99.41757 265.815613 
L 99.41757 265.6722 
L 100.192776 265.6722 
L 100.192776 264.811723 
L 100.934985 264.811723 
L 100.934985 263.807832 
L 102.330873 263.807832 
L 102.330873 262.373703 
L 102.989037 262.373703 
L 102.989037 261.943464 
L 103.623262 261.943464 
L 103.623262 261.369812 
L 104.23523 261.369812 
L 104.23523 260.509335 
L 104.826449 260.509335 
L 104.826449 259.935683 
L 105.398279 259.935683 
L 105.398279 259.648857 
L 105.951954 259.648857 
L 105.951954 259.505444 
L 107.009204 259.505444 
L 107.009204 258.214728 
L 107.514726 258.214728 
L 107.514726 257.067425 
L 108.006005 257.067425 
L 108.006005 255.346469 
L 108.483824 255.346469 
L 108.483824 254.772818 
L 108.948899 254.772818 
L 108.948899 253.91234 
L 110.694282 253.91234 
L 110.694282 253.768927 
L 111.897469 253.768927 
L 111.897469 253.482101 
L 112.280765 253.482101 
L 112.280765 253.195275 
L 112.655818 253.195275 
L 112.655818 252.191385 
L 113.022974 252.191385 
L 113.022974 252.047972 
L 113.73488 252.047972 
L 113.73488 251.617733 
L 114.751048 251.617733 
L 114.751048 251.47432 
L 115.077025 251.47432 
L 115.077025 251.187494 
L 115.711251 251.187494 
L 115.711251 250.613843 
L 116.019919 250.613843 
L 116.019919 250.183604 
L 116.914437 250.183604 
L 116.914437 249.323126 
L 117.486268 249.323126 
L 117.486268 247.888997 
L 117.765302 247.888997 
L 117.765302 247.602171 
L 118.039942 247.602171 
L 118.039942 247.458758 
L 118.576578 247.458758 
L 118.576578 247.315345 
L 119.351785 247.315345 
L 119.351785 247.02852 
L 120.571812 247.02852 
L 120.571812 246.885107 
L 121.036887 246.885107 
L 121.036887 246.598281 
L 121.264855 246.598281 
L 121.264855 246.024629 
L 121.489881 246.024629 
L 121.489881 245.59439 
L 122.148045 245.59439 
L 122.148045 245.020738 
L 122.573415 245.020738 
L 122.573415 243.443196 
L 122.782271 243.443196 
L 122.782271 243.299783 
L 122.988655 243.299783 
L 122.988655 243.15637 
L 123.790603 243.15637 
L 123.790603 242.726132 
L 124.92835 242.726132 
L 124.92835 242.15248 
L 125.470548 242.15248 
L 125.470548 241.722241 
L 126.168212 241.722241 
L 126.168212 241.578828 
L 126.338353 241.578828 
L 126.338353 241.148589 
L 126.50685 241.148589 
L 126.50685 241.005176 
L 127.002787 241.005176 
L 127.002787 240.718351 
L 127.48501 240.718351 
L 127.48501 240.431525 
L 127.799239 240.431525 
L 127.799239 239.427634 
L 128.260216 239.427634 
L 128.260216 239.140808 
L 128.411207 239.140808 
L 128.411207 238.280331 
L 128.560901 238.280331 
L 128.560901 237.706679 
L 129.002426 237.706679 
L 129.002426 237.563266 
L 129.147151 237.563266 
L 129.147151 237.27644 
L 129.433047 237.27644 
L 129.433047 237.133027 
L 129.853291 237.133027 
L 129.853291 236.559376 
L 130.127931 236.559376 
L 130.127931 236.415963 
L 130.263646 236.415963 
L 130.263646 236.27255 
L 130.398313 236.27255 
L 130.398313 235.842311 
L 130.664567 235.842311 
L 130.664567 235.698898 
L 131.312942 235.698898 
L 131.312942 234.981833 
L 131.565689 234.981833 
L 131.565689 234.551595 
L 131.814826 234.551595 
L 131.814826 234.264769 
L 132.659801 234.264769 
L 132.659801 233.547704 
L 132.777237 233.547704 
L 132.777237 233.404291 
L 133.124876 233.404291 
L 133.124876 232.974052 
L 133.57787 232.974052 
L 133.57787 232.830639 
L 133.800029 232.830639 
L 133.800029 232.687227 
L 134.12805 232.687227 
L 134.12805 231.253097 
L 134.450015 231.253097 
L 134.55603 230.679446 
L 134.766144 230.679446 
L 134.766144 230.39262 
L 134.973757 230.39262 
L 134.973757 230.249207 
L 135.582166 230.249207 
L 135.681535 229.675555 
L 135.878591 229.675555 
L 135.97629 227.811187 
L 136.073445 227.811187 
L 136.170062 226.233645 
L 136.266147 226.233645 
L 136.266147 225.946819 
L 136.456742 225.946819 
L 136.456742 225.803406 
L 136.738785 225.803406 
L 136.738785 225.659993 
L 137.016339 225.659993 
L 137.016339 225.51658 
L 137.469333 225.51658 
L 137.558536 224.942928 
L 137.735587 224.942928 
L 137.735587 224.799515 
L 137.910857 224.799515 
L 137.997836 224.225864 
L 138.510793 224.225864 
L 138.594838 220.497128 
L 138.927025 220.497128 
L 138.927025 220.210302 
L 139.172077 220.210302 
L 139.172077 219.780063 
L 139.333553 219.780063 
L 139.333553 219.349824 
L 140.042245 219.349824 
L 140.042245 219.206411 
L 140.272217 219.206411 
L 140.272217 219.062998 
L 140.574203 219.062998 
L 140.574203 218.919585 
L 140.723258 218.919585 
L 140.723258 218.345934 
L 141.090414 218.345934 
L 141.090414 218.202521 
L 141.521035 218.202521 
L 141.591783 217.485456 
L 142.010346 217.485456 
L 142.07914 216.481566 
L 142.147664 216.481566 
L 142.215919 215.477675 
L 142.351634 215.477675 
L 142.351634 215.334262 
L 143.014805 215.334262 
L 143.014805 214.904023 
L 143.144465 214.904023 
L 143.208936 214.617197 
L 143.273169 214.617197 
L 143.337167 211.605526 
L 143.590833 211.605526 
L 143.590833 211.462113 
L 143.778691 211.462113 
L 143.778691 211.175287 
L 143.964547 211.175287 
L 143.964547 211.031874 
L 144.209312 211.031874 
L 144.209312 210.31481 
L 144.570138 210.31481 
L 144.629556 209.310919 
L 144.688773 209.310919 
L 144.688773 209.167506 
L 145.039911 209.167506 
L 145.097753 208.020203 
L 145.497361 208.020203 
L 145.497361 207.87679 
L 145.721664 207.87679 
L 145.832743 207.589964 
L 145.998045 207.589964 
L 145.998045 207.303138 
L 146.216039 207.303138 
L 146.324022 206.872899 
L 146.377764 206.872899 
L 146.484754 206.44266 
L 146.591092 206.44266 
L 146.696785 206.155835 
L 146.854132 206.155835 
L 146.958248 205.869009 
L 147.061745 205.869009 
L 147.061745 205.582183 
L 147.266916 205.582183 
L 147.317833 202.713924 
L 147.419225 202.713924 
L 147.52003 201.710034 
L 148.112924 201.710034 
L 148.161434 198.841775 
L 148.306159 198.841775 
L 148.306159 198.411536 
L 148.497276 198.411536 
L 148.497276 198.268123 
L 148.639252 198.268123 
L 148.686322 197.981298 
L 148.780082 197.981298 
L 148.826773 194.969626 
L 149.012299 194.969626 
L 149.058374 194.539387 
L 149.15016 194.539387 
L 149.15016 192.531606 
L 149.377533 192.531606 
L 149.377533 192.388193 
L 149.955193 192.388193 
L 149.955193 192.24478 
L 150.085825 192.24478 
L 150.085825 190.810651 
L 150.344189 190.810651 
L 150.344189 190.523825 
L 150.556607 190.523825 
L 150.598782 189.806761 
L 150.724698 189.806761 
L 150.724698 189.663348 
L 151.015013 189.663348 
L 151.097081 186.795089 
L 151.13797 186.795089 
L 151.178764 186.078024 
L 151.260066 186.078024 
L 151.260066 183.783418 
L 151.381313 183.783418 
L 151.381313 183.209766 
L 151.541675 183.209766 
L 151.541675 182.779527 
L 151.740076 182.779527 
L 151.818809 181.775637 
L 151.858043 181.775637 
L 151.858043 181.201985 
L 151.975216 181.201985 
L 151.975216 180.915159 
L 152.322086 180.915159 
L 152.398241 180.48492 
L 152.774102 180.48492 
L 152.774102 180.341507 
L 152.959038 180.341507 
L 153.032466 179.624443 
L 153.105587 179.624443 
L 153.142033 179.194204 
L 153.287059 179.194204 
L 153.323128 178.763965 
L 153.537988 178.763965 
L 153.537988 178.477139 
L 153.820412 178.477139 
L 153.820412 177.903487 
L 153.959927 177.903487 
L 153.959927 177.760075 
L 154.201424 177.760075 
L 154.303908 176.899597 
L 154.371897 176.899597 
L 154.371897 176.612771 
L 154.507086 176.612771 
L 154.507086 176.469358 
L 154.707925 176.469358 
L 154.807483 175.465468 
L 154.840544 175.465468 
L 154.93935 174.748403 
L 154.972161 174.748403 
L 155.070227 174.461577 
L 155.296925 174.461577 
L 155.361158 174.174751 
L 155.425155 174.174751 
L 155.425155 173.457687 
L 155.55245 173.457687 
L 155.647315 172.597209 
L 155.741666 172.597209 
L 155.83551 171.880144 
L 155.928852 171.880144 
L 155.959855 171.593319 
L 156.205916 171.593319 
L 156.297301 170.876254 
L 156.38821 170.876254 
L 156.478647 170.015776 
L 156.538679 170.015776 
L 156.538679 169.872363 
L 156.658127 169.872363 
L 156.747178 167.434344 
L 156.806295 167.434344 
L 156.806295 166.860692 
L 156.98245 166.860692 
L 157.069866 164.422672 
L 157.098907 164.422672 
L 157.185742 163.992433 
L 157.300853 163.992433 
L 157.329512 163.705607 
L 157.528821 163.705607 
L 157.613546 162.701717 
L 157.669802 162.701717 
L 157.697862 161.841239 
L 157.781772 161.841239 
L 157.781772 161.697826 
L 157.94839 161.697826 
L 158.031107 157.825677 
L 158.113432 157.825677 
L 158.195371 157.395439 
L 158.249784 157.395439 
L 158.249784 157.252026 
L 158.412011 157.252026 
L 158.51933 154.670593 
L 158.546057 154.670593 
L 158.652556 154.383767 
L 158.732007 154.383767 
L 158.83738 151.945747 
L 158.863624 151.945747 
L 158.968208 151.228683 
L 159.098062 151.228683 
L 159.175513 150.081379 
L 159.405822 150.081379 
L 159.507213 149.507727 
L 159.708245 149.507727 
L 159.758143 147.643359 
L 159.857512 147.643359 
L 159.857512 147.499946 
L 159.980933 147.499946 
L 159.980933 147.356533 
L 160.127894 147.356533 
L 160.127894 147.213121 
L 160.37011 147.213121 
L 160.418152 146.496056 
L 160.680044 146.496056 
L 160.680044 146.352643 
L 160.797798 146.352643 
L 160.797798 146.20923 
L 161.030947 146.20923 
L 161.12334 145.20534 
L 161.283861 145.20534 
L 161.283861 145.061927 
L 161.488097 145.061927 
L 161.510643 144.775101 
L 161.667653 144.775101 
L 161.756743 143.914623 
L 161.778945 143.914623 
L 161.801118 143.627797 
L 161.955547 143.627797 
L 161.977497 142.623907 
L 162.130378 142.623907 
L 162.173813 142.050255 
L 162.281931 142.050255 
L 162.324991 139.468822 
L 162.517456 139.468822 
L 162.559939 139.181997 
L 162.770815 139.181997 
L 162.854457 137.604454 
L 162.896128 137.604454 
L 162.999872 137.174215 
L 163.041197 137.174215 
L 163.144084 136.743977 
L 163.348054 136.743977 
L 163.348054 136.600564 
L 163.469301 136.600564 
L 163.569701 135.023022 
L 163.689421 135.023022 
L 163.748975 133.732305 
L 163.887148 133.732305 
L 163.887148 133.588892 
L 164.024234 133.588892 
L 164.063205 132.154763 
L 164.160252 132.154763 
L 164.237502 130.720634 
L 164.314412 130.720634 
L 164.371873 130.290395 
L 164.580957 130.290395 
L 164.580957 129.860156 
L 164.693955 129.860156 
L 164.712717 129.429917 
L 164.86209 129.429917 
L 164.880672 129.143091 
L 164.973287 129.143091 
L 165.047026 128.426027 
L 165.102127 128.426027 
L 165.157053 127.13531 
L 165.248216 127.13531 
L 165.302685 126.848485 
L 165.375047 126.848485 
L 165.483031 126.418246 
L 165.518877 126.418246 
L 165.625977 124.984116 
L 165.643763 124.984116 
L 165.714726 122.115858 
L 165.838222 122.115858 
L 165.925901 120.968554 
L 165.978297 120.968554 
L 166.065276 120.25149 
L 166.099947 120.25149 
L 166.203547 118.673948 
L 166.220754 118.673948 
L 166.306535 118.243709 
L 166.357802 118.243709 
L 166.442913 117.526644 
L 166.476842 117.526644 
L 166.578233 116.952992 
L 166.595075 116.952992 
L 166.662278 115.518863 
L 166.729224 115.518863 
L 166.829163 114.801798 
L 166.845764 114.801798 
L 166.895472 114.37156 
L 167.010909 114.37156 
L 167.010909 113.797908 
L 167.158215 113.797908 
L 167.207042 113.511082 
L 167.288118 113.511082 
L 167.384913 112.650605 
L 167.43311 112.650605 
L 167.465168 112.363779 
L 167.608702 112.363779 
L 167.608702 112.220366 
L 167.84533 112.220366 
L 167.954668 111.503301 
L 167.970232 111.503301 
L 167.985782 110.642824 
L 168.109685 110.642824 
L 168.18668 110.069172 
L 168.278627 110.069172 
L 168.278627 109.49552 
L 168.415645 109.49552 
L 168.445948 108.921868 
L 168.536542 108.921868 
L 168.626667 108.204804 
L 168.746115 108.204804 
L 168.77585 107.917978 
L 168.879523 107.917978 
L 168.982583 106.627262 
L 168.997257 106.627262 
L 169.055827 105.910197 
L 169.186895 105.910197 
L 169.27373 105.193132 
L 169.431813 105.193132 
L 169.446113 104.61948 
L 169.545889 104.61948 
L 169.616809 103.902416 
L 169.827856 103.902416 
L 169.925477 103.472177 
L 169.939378 103.472177 
L 170.050192 102.611699 
L 170.091567 102.611699 
L 170.201421 100.747331 
L 170.228776 100.747331 
L 170.324185 100.317093 
L 170.351349 100.317093 
L 170.351349 100.17368 
L 170.553741 100.17368 
L 170.647393 98.73955 
L 170.674059 98.73955 
L 170.674059 98.596137 
L 170.859585 98.596137 
L 170.925369 98.309312 
L 171.095254 98.309312 
L 171.173108 97.592247 
L 171.211906 97.592247 
L 171.250617 97.018595 
L 171.353428 97.018595 
L 171.417378 95.871292 
L 171.481095 95.871292 
L 171.569909 94.580575 
L 171.633072 94.580575 
L 171.683438 93.433272 
L 171.796233 93.433272 
L 171.871027 92.572794 
L 171.970255 92.572794 
L 172.056618 91.712317 
L 172.215882 91.712317 
L 172.325296 90.278188 
L 172.349517 90.278188 
L 172.42198 88.844058 
L 172.542086 88.844058 
L 172.542086 88.413819 
L 172.685129 88.413819 
L 172.768032 87.840168 
L 172.885786 87.840168 
L 172.956059 86.97969 
L 173.188276 86.97969 
L 173.245851 85.545561 
L 173.371849 85.545561 
L 173.474266 84.685083 
L 173.519593 84.685083 
L 173.609893 82.964128 
L 173.643636 82.964128 
L 173.744474 81.386586 
L 173.800244 81.386586 
L 173.911252 78.948566 
L 173.955458 78.948566 
L 174.054514 78.374914 
L 174.109302 78.374914 
L 174.196608 77.801263 
L 174.272644 77.801263 
L 174.369919 76.940785 
L 174.391462 76.940785 
L 174.466655 75.21983 
L 174.562857 75.21983 
L 174.637316 74.789591 
L 174.700886 74.789591 
L 174.700886 74.646178 
L 174.83783 74.646178 
L 174.942445 73.929114 
L 174.973708 73.929114 
L 175.046437 73.355462 
L 175.08786 73.355462 
L 175.19099 71.77792 
L 175.211544 71.77792 
L 175.303734 71.491094 
L 175.456309 71.491094 
L 175.456309 70.917442 
L 175.577416 70.917442 
L 175.647675 70.200377 
L 175.697687 70.200377 
L 175.807212 68.192596 
L 175.817135 68.192596 
L 175.817135 68.049183 
L 175.94562 68.049183 
L 176.053603 67.188706 
L 176.073165 67.188706 
L 176.160922 66.90188 
L 176.24824 66.90188 
L 176.315853 66.471641 
L 176.564717 66.471641 
L 176.650041 66.041402 
L 176.744358 66.041402 
L 176.763161 64.750686 
L 176.85687 64.750686 
L 176.912855 64.033621 
L 177.098184 64.033621 
L 177.171768 63.45997 
L 177.299796 63.45997 
L 177.299796 63.316557 
L 177.562046 63.316557 
L 177.615816 63.029731 
L 177.713965 63.029731 
L 177.785001 62.599492 
L 177.917418 62.599492 
L 177.92621 62.169253 
L 178.248444 62.169253 
L 178.343106 61.595602 
L 178.624047 61.595602 
L 178.624047 61.452189 
L 178.817212 61.452189 
L 178.925454 61.165363 
L 178.933752 61.165363 
L 178.966907 60.735124 
L 179.065994 60.735124 
L 179.065994 60.448298 
L 179.303155 60.448298 
L 179.343721 60.161472 
L 179.521099 60.161472 
L 179.521099 60.018059 
L 179.720498 60.018059 
L 179.720498 59.587821 
L 179.9098 59.587821 
L 179.9098 59.444408 
L 180.205388 59.444408 
L 180.205388 59.300995 
L 181.136505 59.300995 
L 181.136505 59.157582 
L 181.754271 59.157582 
L 181.754271 59.014169 
L 182.234569 59.014169 
L 182.234569 58.870756 
L 182.907984 58.870756 
L 182.907984 58.727343 
L 234.276689 58.727343 
L 234.379526 56.719562 
L 234.39609 56.719562 
L 234.505428 52.560587 
L 234.510225 52.560587 
L 234.621235 47.110896 
L 234.623959 47.110896 
L 234.734926 39.079772 
L 234.735265 39.079772 
L 234.840149 31.478886 
L 234.86602 31.478886 
L 234.97246 30.18817 
L 235.065313 30.18817 
L 235.065313 30.044757 
L 246.309372 30.044757 
L 246.403356 28.754041 
L 246.424826 28.754041 
L 246.531095 22.587285 
L 246.537801 22.587285 
L 246.631591 17.424419 
L 246.651758 17.424419 
L 246.72658 16.420529 
L 253.427129 16.420529 
L 253.532089 13.122031 
L 253.546244 13.122031 
L 253.653007 12.118141 
L 258.447108 12.118141 
L 258.547475 10.540599 
L 258.567841 10.540599 
L 258.605835 9.823534 
L 262.336973 9.823534 
L 262.42942 8.532818 
L 265.512743 8.532818 
L 265.549885 7.528927 
L 268.186444 7.528927 
L 268.20437 7.242101 
L 270.490879 7.242101 
L 270.515545 6.811863 
L 272.557198 6.811863 
L 272.575208 6.525037 
L 277.583116 6.525037 
L 277.583116 6.381624 
L 338.688 6.381624 
L 338.688 6.381624 
" style="fill:none;stroke:#ff00ff;stroke-linecap:square;stroke-width:1.5;"/>
   </g>
   <g id="line2d_40">
    <defs>
     <path d="M 0 8.485281 
L 5.091169 0 
L 0 -8.485281 
L -5.091169 0 
z
" id="m4ef8c73687" style="stroke:#ff00ff;stroke-linejoin:miter;stroke-width:1.5;"/>
    </defs>
    <g>
     <use style="fill-opacity:0;stroke:#ff00ff;stroke-linejoin:miter;stroke-width:1.5;" x="134.973757" xlink:href="#m4ef8c73687" y="230.249207"/>
     <use style="fill-opacity:0;stroke:#ff00ff;stroke-linejoin:miter;stroke-width:1.5;" x="168.278627" xlink:href="#m4ef8c73687" y="110.069172"/>
     <use style="fill-opacity:0;stroke:#ff00ff;stroke-linejoin:miter;stroke-width:1.5;" x="234.802787" xlink:href="#m4ef8c73687" y="33.199842"/>
     <use style="fill-opacity:0;stroke:#ff00ff;stroke-linejoin:miter;stroke-width:1.5;" x="277.583116" xlink:href="#m4ef8c73687" y="6.525037"/>
     <use style="fill-opacity:0;stroke:#ff00ff;stroke-linejoin:miter;stroke-width:1.5;" x="277.583116" xlink:href="#m4ef8c73687" y="6.381624"/>
     <use style="fill-opacity:0;stroke:#ff00ff;stroke-linejoin:miter;stroke-width:1.5;" x="338.688" xlink:href="#m4ef8c73687" y="6.381624"/>
    </g>
   </g>
   <g id="line2d_41">
    <path style="fill:none;stroke:#ff00ff;stroke-linecap:square;stroke-width:1.5;"/>
    <g/>
   </g>
   <g id="line2d_42">
    <path clip-path="url(#p94462afb3a)" d="M 234.201166 58.727343 
" style="fill:none;stroke:#ff00ff;stroke-linecap:square;stroke-width:1.5;"/>
    <defs>
     <path d="M -12 12 
L 12 -12 
M -12 -12 
L 12 12 
" id="m009094e036" style="stroke:#ff00ff;"/>
    </defs>
    <g clip-path="url(#p94462afb3a)">
     <use style="fill:#ff00ff;stroke:#ff00ff;" x="234.201166" xlink:href="#m009094e036" y="58.727343"/>
    </g>
   </g>
   <g id="line2d_43">
    <path d="M 338.688 6.381624 
L 369.60768 293.092752 
" style="fill:none;stroke:#ff00ff;stroke-linecap:square;stroke-width:1.5;"/>
    <g>
     <use style="fill-opacity:0;stroke:#ff00ff;stroke-linejoin:miter;stroke-width:1.5;" x="338.688" xlink:href="#m4ef8c73687" y="6.381624"/>
     <use style="fill-opacity:0;stroke:#ff00ff;stroke-linejoin:miter;stroke-width:1.5;" x="369.60768" xlink:href="#m4ef8c73687" y="293.092752"/>
    </g>
   </g>
   <g id="line2d_44">
    <path d="M 338.688 6.381624 
L 369.60768 152.662812 
" style="fill:none;stroke:#000080;stroke-linecap:square;stroke-width:1.5;"/>
    <g>
     <use style="fill-opacity:0;stroke:#000080;stroke-width:1.5;" x="338.688" xlink:href="#m4c70723f73" y="6.381624"/>
     <use style="fill-opacity:0;stroke:#000080;stroke-width:1.5;" x="369.60768" xlink:href="#m4c70723f73" y="152.662812"/>
    </g>
   </g>
   <g id="line2d_45">
    <path d="M 338.688 298.944 
L 338.688 6.381624 
" style="fill:none;stroke:#000000;stroke-linecap:square;stroke-width:1.5;"/>
   </g>
   <g id="patch_3">
    <path d="M 57.6 298.944 
L 57.6 3.456 
" style="fill:none;stroke:#000000;stroke-linecap:square;stroke-linejoin:miter;stroke-width:0.8;"/>
   </g>
   <g id="patch_4">
    <path d="M 338.688 298.944 
L 338.688 3.456 
" style="fill:none;stroke:#000000;stroke-linecap:square;stroke-linejoin:miter;stroke-width:0.8;"/>
   </g>
   <g id="patch_5">
    <path d="M 57.6 298.944 
L 338.688 298.944 
" style="fill:none;stroke:#000000;stroke-linecap:square;stroke-linejoin:miter;stroke-width:0.8;"/>
   </g>
   <g id="patch_6">
    <path d="M 57.6 3.456 
L 338.688 3.456 
" style="fill:none;stroke:#000000;stroke-linecap:square;stroke-linejoin:miter;stroke-width:0.8;"/>
   </g>
   <g id="text_13">
    <!-- SimpleDEm -->
    <g transform="translate(375.22944 297.78369)scale(0.17 -0.17)">
     <defs>
      <path d="M 53.515625 70.515625 
L 53.515625 60.890625 
Q 47.90625 63.578125 42.921875 64.890625 
Q 37.9375 66.21875 33.296875 66.21875 
Q 25.25 66.21875 20.875 63.09375 
Q 16.5 59.96875 16.5 54.203125 
Q 16.5 49.359375 19.40625 46.890625 
Q 22.3125 44.4375 30.421875 42.921875 
L 36.375 41.703125 
Q 47.40625 39.59375 52.65625 34.296875 
Q 57.90625 29 57.90625 20.125 
Q 57.90625 9.515625 50.796875 4.046875 
Q 43.703125 -1.421875 29.984375 -1.421875 
Q 24.8125 -1.421875 18.96875 -0.25 
Q 13.140625 0.921875 6.890625 3.21875 
L 6.890625 13.375 
Q 12.890625 10.015625 18.65625 8.296875 
Q 24.421875 6.59375 29.984375 6.59375 
Q 38.421875 6.59375 43.015625 9.90625 
Q 47.609375 13.234375 47.609375 19.390625 
Q 47.609375 24.75 44.3125 27.78125 
Q 41.015625 30.8125 33.5 32.328125 
L 27.484375 33.5 
Q 16.453125 35.6875 11.515625 40.375 
Q 6.59375 45.0625 6.59375 53.421875 
Q 6.59375 63.09375 13.40625 68.65625 
Q 20.21875 74.21875 32.171875 74.21875 
Q 37.3125 74.21875 42.625 73.28125 
Q 47.953125 72.359375 53.515625 70.515625 
z
" id="DejaVuSans-83"/>
      <path d="M 19.671875 64.796875 
L 19.671875 8.109375 
L 31.59375 8.109375 
Q 46.6875 8.109375 53.6875 14.9375 
Q 60.6875 21.78125 60.6875 36.53125 
Q 60.6875 51.171875 53.6875 57.984375 
Q 46.6875 64.796875 31.59375 64.796875 
z
M 9.8125 72.90625 
L 30.078125 72.90625 
Q 51.265625 72.90625 61.171875 64.09375 
Q 71.09375 55.28125 71.09375 36.53125 
Q 71.09375 17.671875 61.125 8.828125 
Q 51.171875 0 30.078125 0 
L 9.8125 0 
z
" id="DejaVuSans-68"/>
      <path d="M 9.8125 72.90625 
L 55.90625 72.90625 
L 55.90625 64.59375 
L 19.671875 64.59375 
L 19.671875 43.015625 
L 54.390625 43.015625 
L 54.390625 34.71875 
L 19.671875 34.71875 
L 19.671875 8.296875 
L 56.78125 8.296875 
L 56.78125 0 
L 9.8125 0 
z
" id="DejaVuSans-69"/>
     </defs>
     <use xlink:href="#DejaVuSans-83"/>
     <use x="63.476562" xlink:href="#DejaVuSans-105"/>
     <use x="91.259766" xlink:href="#DejaVuSans-109"/>
     <use x="188.671875" xlink:href="#DejaVuSans-112"/>
     <use x="252.148438" xlink:href="#DejaVuSans-108"/>
     <use x="279.931641" xlink:href="#DejaVuSans-101"/>
     <use x="341.455078" xlink:href="#DejaVuSans-68"/>
     <use x="418.457031" xlink:href="#DejaVuSans-69"/>
     <use x="481.640625" xlink:href="#DejaVuSans-109"/>
    </g>
   </g>
   <g id="text_14">
    <!-- DEPSOmax5 -->
    <g transform="translate(375.22944 157.353749)scale(0.17 -0.17)">
     <defs>
      <path d="M 19.671875 64.796875 
L 19.671875 37.40625 
L 32.078125 37.40625 
Q 38.96875 37.40625 42.71875 40.96875 
Q 46.484375 44.53125 46.484375 51.125 
Q 46.484375 57.671875 42.71875 61.234375 
Q 38.96875 64.796875 32.078125 64.796875 
z
M 9.8125 72.90625 
L 32.078125 72.90625 
Q 44.34375 72.90625 50.609375 67.359375 
Q 56.890625 61.8125 56.890625 51.125 
Q 56.890625 40.328125 50.609375 34.8125 
Q 44.34375 29.296875 32.078125 29.296875 
L 19.671875 29.296875 
L 19.671875 0 
L 9.8125 0 
z
" id="DejaVuSans-80"/>
      <path d="M 39.40625 66.21875 
Q 28.65625 66.21875 22.328125 58.203125 
Q 16.015625 50.203125 16.015625 36.375 
Q 16.015625 22.609375 22.328125 14.59375 
Q 28.65625 6.59375 39.40625 6.59375 
Q 50.140625 6.59375 56.421875 14.59375 
Q 62.703125 22.609375 62.703125 36.375 
Q 62.703125 50.203125 56.421875 58.203125 
Q 50.140625 66.21875 39.40625 66.21875 
z
M 39.40625 74.21875 
Q 54.734375 74.21875 63.90625 63.9375 
Q 73.09375 53.65625 73.09375 36.375 
Q 73.09375 19.140625 63.90625 8.859375 
Q 54.734375 -1.421875 39.40625 -1.421875 
Q 24.03125 -1.421875 14.8125 8.828125 
Q 5.609375 19.09375 5.609375 36.375 
Q 5.609375 53.65625 14.8125 63.9375 
Q 24.03125 74.21875 39.40625 74.21875 
z
" id="DejaVuSans-79"/>
      <path d="M 54.890625 54.6875 
L 35.109375 28.078125 
L 55.90625 0 
L 45.3125 0 
L 29.390625 21.484375 
L 13.484375 0 
L 2.875 0 
L 24.125 28.609375 
L 4.6875 54.6875 
L 15.28125 54.6875 
L 29.78125 35.203125 
L 44.28125 54.6875 
z
" id="DejaVuSans-120"/>
      <path d="M 10.796875 72.90625 
L 49.515625 72.90625 
L 49.515625 64.59375 
L 19.828125 64.59375 
L 19.828125 46.734375 
Q 21.96875 47.46875 24.109375 47.828125 
Q 26.265625 48.1875 28.421875 48.1875 
Q 40.625 48.1875 47.75 41.5 
Q 54.890625 34.8125 54.890625 23.390625 
Q 54.890625 11.625 47.5625 5.09375 
Q 40.234375 -1.421875 26.90625 -1.421875 
Q 22.3125 -1.421875 17.546875 -0.640625 
Q 12.796875 0.140625 7.71875 1.703125 
L 7.71875 11.625 
Q 12.109375 9.234375 16.796875 8.0625 
Q 21.484375 6.890625 26.703125 6.890625 
Q 35.15625 6.890625 40.078125 11.328125 
Q 45.015625 15.765625 45.015625 23.390625 
Q 45.015625 31 40.078125 35.4375 
Q 35.15625 39.890625 26.703125 39.890625 
Q 22.75 39.890625 18.8125 39.015625 
Q 14.890625 38.140625 10.796875 36.28125 
z
" id="DejaVuSans-53"/>
     </defs>
     <use xlink:href="#DejaVuSans-68"/>
     <use x="77.001953" xlink:href="#DejaVuSans-69"/>
     <use x="140.185547" xlink:href="#DejaVuSans-80"/>
     <use x="200.488281" xlink:href="#DejaVuSans-83"/>
     <use x="263.964844" xlink:href="#DejaVuSans-79"/>
     <use x="342.675781" xlink:href="#DejaVuSans-109"/>
     <use x="440.087891" xlink:href="#DejaVuSans-97"/>
     <use x="501.367188" xlink:href="#DejaVuSans-120"/>
     <use x="560.546875" xlink:href="#DejaVuSans-53"/>
    </g>
   </g>
   <g id="text_15">
    <!-- best 2009 -->
    <g transform="translate(375.22944 16.923809)scale(0.17 -0.17)">
     <defs>
      <path d="M 48.6875 27.296875 
Q 48.6875 37.203125 44.609375 42.84375 
Q 40.53125 48.484375 33.40625 48.484375 
Q 26.265625 48.484375 22.1875 42.84375 
Q 18.109375 37.203125 18.109375 27.296875 
Q 18.109375 17.390625 22.1875 11.75 
Q 26.265625 6.109375 33.40625 6.109375 
Q 40.53125 6.109375 44.609375 11.75 
Q 48.6875 17.390625 48.6875 27.296875 
z
M 18.109375 46.390625 
Q 20.953125 51.265625 25.265625 53.625 
Q 29.59375 56 35.59375 56 
Q 45.5625 56 51.78125 48.09375 
Q 58.015625 40.1875 58.015625 27.296875 
Q 58.015625 14.40625 51.78125 6.484375 
Q 45.5625 -1.421875 35.59375 -1.421875 
Q 29.59375 -1.421875 25.265625 0.953125 
Q 20.953125 3.328125 18.109375 8.203125 
L 18.109375 0 
L 9.078125 0 
L 9.078125 75.984375 
L 18.109375 75.984375 
z
" id="DejaVuSans-98"/>
      <path d="M 10.984375 1.515625 
L 10.984375 10.5 
Q 14.703125 8.734375 18.5 7.8125 
Q 22.3125 6.890625 25.984375 6.890625 
Q 35.75 6.890625 40.890625 13.453125 
Q 46.046875 20.015625 46.78125 33.40625 
Q 43.953125 29.203125 39.59375 26.953125 
Q 35.25 24.703125 29.984375 24.703125 
Q 19.046875 24.703125 12.671875 31.3125 
Q 6.296875 37.9375 6.296875 49.421875 
Q 6.296875 60.640625 12.9375 67.421875 
Q 19.578125 74.21875 30.609375 74.21875 
Q 43.265625 74.21875 49.921875 64.515625 
Q 56.59375 54.828125 56.59375 36.375 
Q 56.59375 19.140625 48.40625 8.859375 
Q 40.234375 -1.421875 26.421875 -1.421875 
Q 22.703125 -1.421875 18.890625 -0.6875 
Q 15.09375 0.046875 10.984375 1.515625 
z
M 30.609375 32.421875 
Q 37.25 32.421875 41.125 36.953125 
Q 45.015625 41.5 45.015625 49.421875 
Q 45.015625 57.28125 41.125 61.84375 
Q 37.25 66.40625 30.609375 66.40625 
Q 23.96875 66.40625 20.09375 61.84375 
Q 16.21875 57.28125 16.21875 49.421875 
Q 16.21875 41.5 20.09375 36.953125 
Q 23.96875 32.421875 30.609375 32.421875 
z
" id="DejaVuSans-57"/>
     </defs>
     <use xlink:href="#DejaVuSans-98"/>
     <use x="63.476562" xlink:href="#DejaVuSans-101"/>
     <use x="125" xlink:href="#DejaVuSans-115"/>
     <use x="177.099609" xlink:href="#DejaVuSans-116"/>
     <use x="216.308594" xlink:href="#DejaVuSans-32"/>
     <use x="248.095703" xlink:href="#DejaVuSans-50"/>
     <use x="311.71875" xlink:href="#DejaVuSans-48"/>
     <use x="375.341797" xlink:href="#DejaVuSans-48"/>
     <use x="438.964844" xlink:href="#DejaVuSans-57"/>
    </g>
   </g>
   <g id="text_16">
    <!-- bbob f6-f9, 2-D -->
    <g transform="translate(60.41088 14.161286)scale(0.102 -0.102)">
     <use xlink:href="#DejaVuSans-98"/>
     <use x="63.476562" xlink:href="#DejaVuSans-98"/>
     <use x="126.953125" xlink:href="#DejaVuSans-111"/>
     <use x="188.134766" xlink:href="#DejaVuSans-98"/>
     <use x="251.611328" xlink:href="#DejaVuSans-32"/>
     <use x="283.398438" xlink:href="#DejaVuSans-102"/>
     <use x="318.603516" xlink:href="#DejaVuSans-54"/>
     <use x="382.226562" xlink:href="#DejaVuSans-45"/>
     <use x="418.310547" xlink:href="#DejaVuSans-102"/>
     <use x="453.515625" xlink:href="#DejaVuSans-57"/>
     <use x="517.138672" xlink:href="#DejaVuSans-44"/>
     <use x="548.925781" xlink:href="#DejaVuSans-32"/>
     <use x="580.712891" xlink:href="#DejaVuSans-50"/>
     <use x="644.335938" xlink:href="#DejaVuSans-45"/>
     <use x="680.419922" xlink:href="#DejaVuSans-68"/>
    </g>
    <!-- 51 targets: 100..1e-08 -->
    <g transform="translate(60.41088 25.583055)scale(0.102 -0.102)">
     <defs>
      <path d="M 11.71875 12.40625 
L 22.015625 12.40625 
L 22.015625 0 
L 11.71875 0 
z
M 11.71875 51.703125 
L 22.015625 51.703125 
L 22.015625 39.3125 
L 11.71875 39.3125 
z
" id="DejaVuSans-58"/>
     </defs>
     <use xlink:href="#DejaVuSans-53"/>
     <use x="63.623047" xlink:href="#DejaVuSans-49"/>
     <use x="127.246094" xlink:href="#DejaVuSans-32"/>
     <use x="159.033203" xlink:href="#DejaVuSans-116"/>
     <use x="198.242188" xlink:href="#DejaVuSans-97"/>
     <use x="259.521484" xlink:href="#DejaVuSans-114"/>
     <use x="298.884766" xlink:href="#DejaVuSans-103"/>
     <use x="362.361328" xlink:href="#DejaVuSans-101"/>
     <use x="423.884766" xlink:href="#DejaVuSans-116"/>
     <use x="463.09375" xlink:href="#DejaVuSans-115"/>
     <use x="515.193359" xlink:href="#DejaVuSans-58"/>
     <use x="548.884766" xlink:href="#DejaVuSans-32"/>
     <use x="580.671875" xlink:href="#DejaVuSans-49"/>
     <use x="644.294922" xlink:href="#DejaVuSans-48"/>
     <use x="707.917969" xlink:href="#DejaVuSans-48"/>
     <use x="771.541016" xlink:href="#DejaVuSans-46"/>
     <use x="803.328125" xlink:href="#DejaVuSans-46"/>
     <use x="835.115234" xlink:href="#DejaVuSans-49"/>
     <use x="898.738281" xlink:href="#DejaVuSans-101"/>
     <use x="960.261719" xlink:href="#DejaVuSans-45"/>
     <use x="996.345703" xlink:href="#DejaVuSans-48"/>
     <use x="1059.96875" xlink:href="#DejaVuSans-56"/>
    </g>
    <!-- 15 instances -->
    <g transform="translate(60.41088 37.004824)scale(0.102 -0.102)">
     <use xlink:href="#DejaVuSans-49"/>
     <use x="63.623047" xlink:href="#DejaVuSans-53"/>
     <use x="127.246094" xlink:href="#DejaVuSans-32"/>
     <use x="159.033203" xlink:href="#DejaVuSans-105"/>
     <use x="186.816406" xlink:href="#DejaVuSans-110"/>
     <use x="250.195312" xlink:href="#DejaVuSans-115"/>
     <use x="302.294922" xlink:href="#DejaVuSans-116"/>
     <use x="341.503906" xlink:href="#DejaVuSans-97"/>
     <use x="402.783203" xlink:href="#DejaVuSans-110"/>
     <use x="466.162109" xlink:href="#DejaVuSans-99"/>
     <use x="521.142578" xlink:href="#DejaVuSans-101"/>
     <use x="582.666016" xlink:href="#DejaVuSans-115"/>
    </g>
   </g>
   <g id="text_17">
    <!-- v2.4 -->
    <g style="fill:#808080;" transform="translate(187.233062 293.909432)scale(0.1 -0.1)">
     <use xlink:href="#DejaVuSans-118"/>
     <use x="59.179688" xlink:href="#DejaVuSans-50"/>
     <use x="122.802734" xlink:href="#DejaVuSans-46"/>
     <use x="154.589844" xlink:href="#DejaVuSans-52"/>
    </g>
   </g>
  </g>
 </g>
 <defs>
  <clipPath id="p94462afb3a">
   <rect height="295.488" width="281.088" x="57.6" y="3.456"/>
  </clipPath>
 </defs>
</svg>
