<?xml version="1.0" encoding="utf-8" standalone="no"?>
<!DOCTYPE svg PUBLIC "-//W3C//DTD SVG 1.1//EN"
  "http://www.w3.org/Graphics/SVG/1.1/DTD/svg11.dtd">
<!-- Created with matplotlib (https://matplotlib.org/) -->
<svg height="345.6pt" version="1.1" viewBox="0 0 460.8 345.6" width="460.8pt" xmlns="http://www.w3.org/2000/svg" xmlns:xlink="http://www.w3.org/1999/xlink">
 <metadata>
  <rdf:RDF xmlns:cc="http://creativecommons.org/ns#" xmlns:dc="http://purl.org/dc/elements/1.1/" xmlns:rdf="http://www.w3.org/1999/02/22-rdf-syntax-ns#">
   <cc:Work>
    <dc:type rdf:resource="http://purl.org/dc/dcmitype/StillImage"/>
    <dc:date>2021-04-25T22:54:35.638270</dc:date>
    <dc:format>image/svg+xml</dc:format>
    <dc:creator>
     <cc:Agent>
      <dc:title>Matplotlib v3.3.2, https://matplotlib.org/</dc:title>
     </cc:Agent>
    </dc:creator>
   </cc:Work>
  </rdf:RDF>
 </metadata>
 <defs>
  <style type="text/css">*{stroke-linecap:butt;stroke-linejoin:round;}</style>
 </defs>
 <g id="figure_1">
  <g id="patch_1">
   <path d="M 0 345.6 
L 460.8 345.6 
L 460.8 0 
L 0 0 
z
" style="fill:#ffffff;"/>
  </g>
  <g id="axes_1">
   <g id="patch_2">
    <path d="M 57.6 298.944 
L 338.688 298.944 
L 338.688 3.456 
L 57.6 3.456 
z
" style="fill:#ffffff;"/>
   </g>
   <g id="line2d_1">
    <path d="M -1 290.912876 
L 27.203868 290.912876 
L 27.203868 289.765573 
L 66.853775 289.765573 
L 66.853775 288.618269 
L 81.775977 288.618269 
L 81.775977 286.323662 
L 83.138295 286.323662 
L 83.138295 285.176359 
L 84.213325 285.176359 
L 84.213325 284.029055 
L 85.315119 284.029055 
L 85.315119 282.881752 
L 86.012784 282.881752 
L 86.012784 281.734448 
L 86.601153 281.734448 
L 86.601153 280.587145 
L 87.487404 280.587145 
L 87.487404 279.439842 
L 88.180446 279.439842 
L 88.180446 277.145235 
L 90.965519 277.145235 
L 90.965519 275.997931 
L 92.267099 275.997931 
L 92.267099 274.850628 
L 93.026719 274.850628 
L 93.026719 273.703324 
L 96.86091 273.703324 
L 96.86091 272.556021 
L 102.162376 272.556021 
L 102.162376 271.408718 
L 104.913428 271.408718 
L 104.913428 270.261414 
L 107.187808 270.261414 
L 107.187808 269.114111 
L 109.491096 269.114111 
L 109.491096 267.966807 
L 114.485807 267.966807 
L 114.485807 266.819504 
L 119.502775 266.819504 
L 119.502775 265.6722 
L 129.623411 265.6722 
L 129.623411 264.524897 
L 129.78395 264.524897 
L 129.78395 263.377593 
L 132.470242 263.377593 
L 132.470242 262.23029 
L 133.409373 262.23029 
L 133.409373 261.082987 
L 136.813232 261.082987 
L 136.813232 259.935683 
L 143.722546 259.935683 
L 143.722546 258.78838 
L 149.931137 258.78838 
L 149.931137 257.641076 
L 150.501627 257.641076 
L 150.501627 256.493773 
L 154.185999 256.493773 
L 154.185999 255.346469 
L 155.656773 255.346469 
L 155.656773 254.199166 
L 156.960528 254.199166 
L 156.960528 253.051863 
L 166.948338 253.051863 
L 166.948338 251.904559 
L 172.29133 251.904559 
L 172.29133 250.757256 
L 173.56988 250.757256 
L 173.56988 249.609952 
L 175.93577 249.609952 
L 175.956448 247.315345 
L 176.597948 247.315345 
L 176.597948 246.168042 
L 177.479727 246.168042 
L 177.479727 245.020738 
L 177.626103 245.020738 
L 177.626103 243.873435 
L 189.133785 243.873435 
L 189.133785 242.726132 
L 192.807513 242.726132 
L 192.807513 241.578828 
L 194.132716 241.578828 
L 194.236694 227.811187 
L 194.258243 227.811187 
L 194.365758 215.190849 
L 194.372948 215.190849 
L 194.46785 200.275904 
L 194.487584 200.275904 
L 194.520878 195.686691 
L 195.029135 195.686691 
L 195.029135 194.539387 
L 198.80241 194.539387 
L 198.80241 193.392084 
L 201.983339 193.392084 
L 201.983339 192.24478 
L 207.742993 192.24478 
L 207.742993 191.097477 
L 208.98608 191.097477 
L 208.98608 189.950174 
L 220.991057 189.950174 
L 220.991057 188.80287 
L 226.637355 188.80287 
L 226.739256 161.267588 
L 226.751852 161.267588 
L 226.818635 144.058036 
L 226.977927 144.058036 
L 226.977927 142.910733 
L 230.164287 142.910733 
L 230.194485 140.616126 
L 232.417771 140.616126 
L 232.417771 139.468822 
L 233.929679 139.468822 
L 233.929679 138.321519 
L 236.30081 138.321519 
L 236.30081 137.174215 
L 236.48856 137.174215 
L 236.48856 136.026912 
L 238.488126 136.026912 
L 238.488126 134.879609 
L 239.078617 134.879609 
L 239.078617 133.732305 
L 239.549752 133.732305 
L 239.549752 132.585002 
L 245.816587 132.585002 
L 245.816587 131.437698 
L 248.54118 131.437698 
L 248.54118 130.290395 
L 254.146845 130.290395 
L 254.146845 129.143091 
L 254.265156 129.143091 
L 254.265156 127.995788 
L 254.403599 127.995788 
L 254.460571 125.701181 
L 254.565847 125.701181 
L 254.651208 123.406574 
L 254.713915 123.406574 
L 254.797047 121.111967 
L 254.861414 121.111967 
L 254.931352 118.817361 
L 254.982281 118.817361 
L 255.055735 116.522754 
L 255.135776 116.522754 
L 255.237525 113.080843 
L 255.289708 113.080843 
L 255.338777 110.786236 
L 255.415647 110.786236 
L 255.487081 108.49163 
L 255.550324 108.49163 
L 255.609232 106.197023 
L 255.683629 106.197023 
L 255.683629 105.049719 
L 262.350854 105.049719 
L 262.350854 103.902416 
L 264.991202 103.902416 
L 264.991202 102.755112 
L 272.980217 102.755112 
L 272.980217 101.607809 
L 281.16681 101.607809 
L 281.16681 100.460506 
L 299.174853 100.460506 
L 299.174853 99.313202 
L 299.767469 99.313202 
L 299.767469 98.165899 
L 303.129647 98.165899 
L 303.129647 97.018595 
L 307.244286 97.018595 
L 307.244286 95.871292 
L 314.189555 95.871292 
L 314.195299 92.429381 
L 321.553106 92.429381 
L 321.557412 88.987471 
L 322.833938 88.987471 
L 322.833938 87.840168 
L 333.680273 87.840168 
L 333.698792 46.537244 
L 338.688 46.537244 
L 338.688 46.537244 
" style="fill:none;stroke:#f5deb3;stroke-linecap:square;stroke-width:4;"/>
   </g>
   <g id="line2d_2">
    <defs>
     <path d="M 0 7.778175 
L 7.778175 0 
L 0 -7.778175 
L -7.778175 0 
z
" id="m4484cbbe44" style="stroke:#f5deb3;stroke-linejoin:miter;stroke-width:1.5;"/>
    </defs>
    <g>
     <use style="fill:#f5deb3;stroke:#f5deb3;stroke-linejoin:miter;stroke-width:1.5;" x="90.965519" xlink:href="#m4484cbbe44" y="277.145235"/>
     <use style="fill:#f5deb3;stroke:#f5deb3;stroke-linejoin:miter;stroke-width:1.5;" x="175.93577" xlink:href="#m4484cbbe44" y="248.462649"/>
     <use style="fill:#f5deb3;stroke:#f5deb3;stroke-linejoin:miter;stroke-width:1.5;" x="226.722957" xlink:href="#m4484cbbe44" y="165.856801"/>
     <use style="fill:#f5deb3;stroke:#f5deb3;stroke-linejoin:miter;stroke-width:1.5;" x="307.244286" xlink:href="#m4484cbbe44" y="95.871292"/>
     <use style="fill:#f5deb3;stroke:#f5deb3;stroke-linejoin:miter;stroke-width:1.5;" x="333.698792" xlink:href="#m4484cbbe44" y="46.537244"/>
     <use style="fill:#f5deb3;stroke:#f5deb3;stroke-linejoin:miter;stroke-width:1.5;" x="338.688" xlink:href="#m4484cbbe44" y="46.537244"/>
    </g>
   </g>
   <g id="line2d_3">
    <path style="fill:none;stroke:#f5deb3;stroke-linecap:square;stroke-width:4;"/>
    <g/>
   </g>
   <g id="line2d_4">
    <path d="M 338.688 46.537244 
L 369.60768 12.232871 
" style="fill:none;stroke:#f5deb3;stroke-linecap:square;stroke-width:4;"/>
    <g>
     <use style="fill:#f5deb3;stroke:#f5deb3;stroke-linejoin:miter;stroke-width:1.5;" x="338.688" xlink:href="#m4484cbbe44" y="46.537244"/>
     <use style="fill:#f5deb3;stroke:#f5deb3;stroke-linejoin:miter;stroke-width:1.5;" x="369.60768" xlink:href="#m4484cbbe44" y="12.232871"/>
    </g>
   </g>
   <g id="matplotlib.axis_1">
    <g id="xtick_1">
     <g id="line2d_5">
      <path clip-path="url(#p67d606cc86)" d="M 57.6 298.944 
L 57.6 3.456 
" style="fill:none;stroke:#b0b0b0;stroke-linecap:square;stroke-width:0.8;"/>
     </g>
     <g id="line2d_6">
      <defs>
       <path d="M 0 0 
L 0 3.5 
" id="mb2a8309d6e" style="stroke:#000000;stroke-width:0.8;"/>
      </defs>
      <g>
       <use style="stroke:#000000;stroke-width:0.8;" x="57.6" xlink:href="#mb2a8309d6e" y="298.944"/>
      </g>
     </g>
     <g id="text_1">
      <!-- 0 -->
      <g transform="translate(51.2375 321.140875)scale(0.2 -0.2)">
       <defs>
        <path d="M 31.78125 66.40625 
Q 24.171875 66.40625 20.328125 58.90625 
Q 16.5 51.421875 16.5 36.375 
Q 16.5 21.390625 20.328125 13.890625 
Q 24.171875 6.390625 31.78125 6.390625 
Q 39.453125 6.390625 43.28125 13.890625 
Q 47.125 21.390625 47.125 36.375 
Q 47.125 51.421875 43.28125 58.90625 
Q 39.453125 66.40625 31.78125 66.40625 
z
M 31.78125 74.21875 
Q 44.046875 74.21875 50.515625 64.515625 
Q 56.984375 54.828125 56.984375 36.375 
Q 56.984375 17.96875 50.515625 8.265625 
Q 44.046875 -1.421875 31.78125 -1.421875 
Q 19.53125 -1.421875 13.0625 8.265625 
Q 6.59375 17.96875 6.59375 36.375 
Q 6.59375 54.828125 13.0625 64.515625 
Q 19.53125 74.21875 31.78125 74.21875 
z
" id="DejaVuSans-48"/>
       </defs>
       <use xlink:href="#DejaVuSans-48"/>
      </g>
     </g>
    </g>
    <g id="xtick_2">
     <g id="line2d_7">
      <path clip-path="url(#p67d606cc86)" d="M 137.910857 298.944 
L 137.910857 3.456 
" style="fill:none;stroke:#b0b0b0;stroke-linecap:square;stroke-width:0.8;"/>
     </g>
     <g id="line2d_8">
      <g>
       <use style="stroke:#000000;stroke-width:0.8;" x="137.910857" xlink:href="#mb2a8309d6e" y="298.944"/>
      </g>
     </g>
     <g id="text_2">
      <!-- 2 -->
      <g transform="translate(131.548357 321.140875)scale(0.2 -0.2)">
       <defs>
        <path d="M 19.1875 8.296875 
L 53.609375 8.296875 
L 53.609375 0 
L 7.328125 0 
L 7.328125 8.296875 
Q 12.9375 14.109375 22.625 23.890625 
Q 32.328125 33.6875 34.8125 36.53125 
Q 39.546875 41.84375 41.421875 45.53125 
Q 43.3125 49.21875 43.3125 52.78125 
Q 43.3125 58.59375 39.234375 62.25 
Q 35.15625 65.921875 28.609375 65.921875 
Q 23.96875 65.921875 18.8125 64.3125 
Q 13.671875 62.703125 7.8125 59.421875 
L 7.8125 69.390625 
Q 13.765625 71.78125 18.9375 73 
Q 24.125 74.21875 28.421875 74.21875 
Q 39.75 74.21875 46.484375 68.546875 
Q 53.21875 62.890625 53.21875 53.421875 
Q 53.21875 48.921875 51.53125 44.890625 
Q 49.859375 40.875 45.40625 35.40625 
Q 44.1875 33.984375 37.640625 27.21875 
Q 31.109375 20.453125 19.1875 8.296875 
z
" id="DejaVuSans-50"/>
       </defs>
       <use xlink:href="#DejaVuSans-50"/>
      </g>
     </g>
    </g>
    <g id="xtick_3">
     <g id="line2d_9">
      <path clip-path="url(#p67d606cc86)" d="M 218.221714 298.944 
L 218.221714 3.456 
" style="fill:none;stroke:#b0b0b0;stroke-linecap:square;stroke-width:0.8;"/>
     </g>
     <g id="line2d_10">
      <g>
       <use style="stroke:#000000;stroke-width:0.8;" x="218.221714" xlink:href="#mb2a8309d6e" y="298.944"/>
      </g>
     </g>
     <g id="text_3">
      <!-- 4 -->
      <g transform="translate(211.859214 321.140875)scale(0.2 -0.2)">
       <defs>
        <path d="M 37.796875 64.3125 
L 12.890625 25.390625 
L 37.796875 25.390625 
z
M 35.203125 72.90625 
L 47.609375 72.90625 
L 47.609375 25.390625 
L 58.015625 25.390625 
L 58.015625 17.1875 
L 47.609375 17.1875 
L 47.609375 0 
L 37.796875 0 
L 37.796875 17.1875 
L 4.890625 17.1875 
L 4.890625 26.703125 
z
" id="DejaVuSans-52"/>
       </defs>
       <use xlink:href="#DejaVuSans-52"/>
      </g>
     </g>
    </g>
    <g id="xtick_4">
     <g id="line2d_11">
      <path clip-path="url(#p67d606cc86)" d="M 298.532571 298.944 
L 298.532571 3.456 
" style="fill:none;stroke:#b0b0b0;stroke-linecap:square;stroke-width:0.8;"/>
     </g>
     <g id="line2d_12">
      <g>
       <use style="stroke:#000000;stroke-width:0.8;" x="298.532571" xlink:href="#mb2a8309d6e" y="298.944"/>
      </g>
     </g>
     <g id="text_4">
      <!-- 6 -->
      <g transform="translate(292.170071 321.140875)scale(0.2 -0.2)">
       <defs>
        <path d="M 33.015625 40.375 
Q 26.375 40.375 22.484375 35.828125 
Q 18.609375 31.296875 18.609375 23.390625 
Q 18.609375 15.53125 22.484375 10.953125 
Q 26.375 6.390625 33.015625 6.390625 
Q 39.65625 6.390625 43.53125 10.953125 
Q 47.40625 15.53125 47.40625 23.390625 
Q 47.40625 31.296875 43.53125 35.828125 
Q 39.65625 40.375 33.015625 40.375 
z
M 52.59375 71.296875 
L 52.59375 62.3125 
Q 48.875 64.0625 45.09375 64.984375 
Q 41.3125 65.921875 37.59375 65.921875 
Q 27.828125 65.921875 22.671875 59.328125 
Q 17.53125 52.734375 16.796875 39.40625 
Q 19.671875 43.65625 24.015625 45.921875 
Q 28.375 48.1875 33.59375 48.1875 
Q 44.578125 48.1875 50.953125 41.515625 
Q 57.328125 34.859375 57.328125 23.390625 
Q 57.328125 12.15625 50.6875 5.359375 
Q 44.046875 -1.421875 33.015625 -1.421875 
Q 20.359375 -1.421875 13.671875 8.265625 
Q 6.984375 17.96875 6.984375 36.375 
Q 6.984375 53.65625 15.1875 63.9375 
Q 23.390625 74.21875 37.203125 74.21875 
Q 40.921875 74.21875 44.703125 73.484375 
Q 48.484375 72.75 52.59375 71.296875 
z
" id="DejaVuSans-54"/>
       </defs>
       <use xlink:href="#DejaVuSans-54"/>
      </g>
     </g>
    </g>
    <g id="xtick_5">
     <g id="line2d_13">
      <path clip-path="url(#p67d606cc86)" d="M 97.755429 298.944 
L 97.755429 3.456 
" style="fill:none;stroke:#b0b0b0;stroke-linecap:square;stroke-width:0.8;"/>
     </g>
     <g id="line2d_14">
      <defs>
       <path d="M 0 0 
L 0 2 
" id="mc07102bb9d" style="stroke:#000000;stroke-width:0.6;"/>
      </defs>
      <g>
       <use style="stroke:#000000;stroke-width:0.6;" x="97.755429" xlink:href="#mc07102bb9d" y="298.944"/>
      </g>
     </g>
    </g>
    <g id="xtick_6">
     <g id="line2d_15">
      <path clip-path="url(#p67d606cc86)" d="M 178.066286 298.944 
L 178.066286 3.456 
" style="fill:none;stroke:#b0b0b0;stroke-linecap:square;stroke-width:0.8;"/>
     </g>
     <g id="line2d_16">
      <g>
       <use style="stroke:#000000;stroke-width:0.6;" x="178.066286" xlink:href="#mc07102bb9d" y="298.944"/>
      </g>
     </g>
    </g>
    <g id="xtick_7">
     <g id="line2d_17">
      <path clip-path="url(#p67d606cc86)" d="M 258.377143 298.944 
L 258.377143 3.456 
" style="fill:none;stroke:#b0b0b0;stroke-linecap:square;stroke-width:0.8;"/>
     </g>
     <g id="line2d_18">
      <g>
       <use style="stroke:#000000;stroke-width:0.6;" x="258.377143" xlink:href="#mc07102bb9d" y="298.944"/>
      </g>
     </g>
    </g>
    <g id="xtick_8">
     <g id="line2d_19">
      <path clip-path="url(#p67d606cc86)" d="M 338.688 298.944 
L 338.688 3.456 
" style="fill:none;stroke:#b0b0b0;stroke-linecap:square;stroke-width:0.8;"/>
     </g>
     <g id="line2d_20">
      <g>
       <use style="stroke:#000000;stroke-width:0.6;" x="338.688" xlink:href="#mc07102bb9d" y="298.944"/>
      </g>
     </g>
    </g>
    <g id="text_5">
     <!-- log10(# f-evals / dimension) -->
     <g transform="translate(77.764078 342.217594)scale(0.17 -0.17)">
      <defs>
       <path d="M 9.421875 75.984375 
L 18.40625 75.984375 
L 18.40625 0 
L 9.421875 0 
z
" id="DejaVuSans-108"/>
       <path d="M 30.609375 48.390625 
Q 23.390625 48.390625 19.1875 42.75 
Q 14.984375 37.109375 14.984375 27.296875 
Q 14.984375 17.484375 19.15625 11.84375 
Q 23.34375 6.203125 30.609375 6.203125 
Q 37.796875 6.203125 41.984375 11.859375 
Q 46.1875 17.53125 46.1875 27.296875 
Q 46.1875 37.015625 41.984375 42.703125 
Q 37.796875 48.390625 30.609375 48.390625 
z
M 30.609375 56 
Q 42.328125 56 49.015625 48.375 
Q 55.71875 40.765625 55.71875 27.296875 
Q 55.71875 13.875 49.015625 6.21875 
Q 42.328125 -1.421875 30.609375 -1.421875 
Q 18.84375 -1.421875 12.171875 6.21875 
Q 5.515625 13.875 5.515625 27.296875 
Q 5.515625 40.765625 12.171875 48.375 
Q 18.84375 56 30.609375 56 
z
" id="DejaVuSans-111"/>
       <path d="M 45.40625 27.984375 
Q 45.40625 37.75 41.375 43.109375 
Q 37.359375 48.484375 30.078125 48.484375 
Q 22.859375 48.484375 18.828125 43.109375 
Q 14.796875 37.75 14.796875 27.984375 
Q 14.796875 18.265625 18.828125 12.890625 
Q 22.859375 7.515625 30.078125 7.515625 
Q 37.359375 7.515625 41.375 12.890625 
Q 45.40625 18.265625 45.40625 27.984375 
z
M 54.390625 6.78125 
Q 54.390625 -7.171875 48.1875 -13.984375 
Q 42 -20.796875 29.203125 -20.796875 
Q 24.46875 -20.796875 20.265625 -20.09375 
Q 16.0625 -19.390625 12.109375 -17.921875 
L 12.109375 -9.1875 
Q 16.0625 -11.328125 19.921875 -12.34375 
Q 23.78125 -13.375 27.78125 -13.375 
Q 36.625 -13.375 41.015625 -8.765625 
Q 45.40625 -4.15625 45.40625 5.171875 
L 45.40625 9.625 
Q 42.625 4.78125 38.28125 2.390625 
Q 33.9375 0 27.875 0 
Q 17.828125 0 11.671875 7.65625 
Q 5.515625 15.328125 5.515625 27.984375 
Q 5.515625 40.671875 11.671875 48.328125 
Q 17.828125 56 27.875 56 
Q 33.9375 56 38.28125 53.609375 
Q 42.625 51.21875 45.40625 46.390625 
L 45.40625 54.6875 
L 54.390625 54.6875 
z
" id="DejaVuSans-103"/>
       <path d="M 12.40625 8.296875 
L 28.515625 8.296875 
L 28.515625 63.921875 
L 10.984375 60.40625 
L 10.984375 69.390625 
L 28.421875 72.90625 
L 38.28125 72.90625 
L 38.28125 8.296875 
L 54.390625 8.296875 
L 54.390625 0 
L 12.40625 0 
z
" id="DejaVuSans-49"/>
       <path d="M 31 75.875 
Q 24.46875 64.65625 21.28125 53.65625 
Q 18.109375 42.671875 18.109375 31.390625 
Q 18.109375 20.125 21.3125 9.0625 
Q 24.515625 -2 31 -13.1875 
L 23.1875 -13.1875 
Q 15.875 -1.703125 12.234375 9.375 
Q 8.59375 20.453125 8.59375 31.390625 
Q 8.59375 42.28125 12.203125 53.3125 
Q 15.828125 64.359375 23.1875 75.875 
z
" id="DejaVuSans-40"/>
       <path d="M 51.125 44 
L 36.921875 44 
L 32.8125 27.6875 
L 47.125 27.6875 
z
M 43.796875 71.78125 
L 38.71875 51.515625 
L 52.984375 51.515625 
L 58.109375 71.78125 
L 65.921875 71.78125 
L 60.890625 51.515625 
L 76.125 51.515625 
L 76.125 44 
L 58.984375 44 
L 54.984375 27.6875 
L 70.515625 27.6875 
L 70.515625 20.21875 
L 53.078125 20.21875 
L 48 0 
L 40.1875 0 
L 45.21875 20.21875 
L 30.90625 20.21875 
L 25.875 0 
L 18.015625 0 
L 23.09375 20.21875 
L 7.71875 20.21875 
L 7.71875 27.6875 
L 24.90625 27.6875 
L 29 44 
L 13.28125 44 
L 13.28125 51.515625 
L 30.90625 51.515625 
L 35.890625 71.78125 
z
" id="DejaVuSans-35"/>
       <path id="DejaVuSans-32"/>
       <path d="M 37.109375 75.984375 
L 37.109375 68.5 
L 28.515625 68.5 
Q 23.6875 68.5 21.796875 66.546875 
Q 19.921875 64.59375 19.921875 59.515625 
L 19.921875 54.6875 
L 34.71875 54.6875 
L 34.71875 47.703125 
L 19.921875 47.703125 
L 19.921875 0 
L 10.890625 0 
L 10.890625 47.703125 
L 2.296875 47.703125 
L 2.296875 54.6875 
L 10.890625 54.6875 
L 10.890625 58.5 
Q 10.890625 67.625 15.140625 71.796875 
Q 19.390625 75.984375 28.609375 75.984375 
z
" id="DejaVuSans-102"/>
       <path d="M 4.890625 31.390625 
L 31.203125 31.390625 
L 31.203125 23.390625 
L 4.890625 23.390625 
z
" id="DejaVuSans-45"/>
       <path d="M 56.203125 29.59375 
L 56.203125 25.203125 
L 14.890625 25.203125 
Q 15.484375 15.921875 20.484375 11.0625 
Q 25.484375 6.203125 34.421875 6.203125 
Q 39.59375 6.203125 44.453125 7.46875 
Q 49.3125 8.734375 54.109375 11.28125 
L 54.109375 2.78125 
Q 49.265625 0.734375 44.1875 -0.34375 
Q 39.109375 -1.421875 33.890625 -1.421875 
Q 20.796875 -1.421875 13.15625 6.1875 
Q 5.515625 13.8125 5.515625 26.8125 
Q 5.515625 40.234375 12.765625 48.109375 
Q 20.015625 56 32.328125 56 
Q 43.359375 56 49.78125 48.890625 
Q 56.203125 41.796875 56.203125 29.59375 
z
M 47.21875 32.234375 
Q 47.125 39.59375 43.09375 43.984375 
Q 39.0625 48.390625 32.421875 48.390625 
Q 24.90625 48.390625 20.390625 44.140625 
Q 15.875 39.890625 15.1875 32.171875 
z
" id="DejaVuSans-101"/>
       <path d="M 2.984375 54.6875 
L 12.5 54.6875 
L 29.59375 8.796875 
L 46.6875 54.6875 
L 56.203125 54.6875 
L 35.6875 0 
L 23.484375 0 
z
" id="DejaVuSans-118"/>
       <path d="M 34.28125 27.484375 
Q 23.390625 27.484375 19.1875 25 
Q 14.984375 22.515625 14.984375 16.5 
Q 14.984375 11.71875 18.140625 8.90625 
Q 21.296875 6.109375 26.703125 6.109375 
Q 34.1875 6.109375 38.703125 11.40625 
Q 43.21875 16.703125 43.21875 25.484375 
L 43.21875 27.484375 
z
M 52.203125 31.203125 
L 52.203125 0 
L 43.21875 0 
L 43.21875 8.296875 
Q 40.140625 3.328125 35.546875 0.953125 
Q 30.953125 -1.421875 24.3125 -1.421875 
Q 15.921875 -1.421875 10.953125 3.296875 
Q 6 8.015625 6 15.921875 
Q 6 25.140625 12.171875 29.828125 
Q 18.359375 34.515625 30.609375 34.515625 
L 43.21875 34.515625 
L 43.21875 35.40625 
Q 43.21875 41.609375 39.140625 45 
Q 35.0625 48.390625 27.6875 48.390625 
Q 23 48.390625 18.546875 47.265625 
Q 14.109375 46.140625 10.015625 43.890625 
L 10.015625 52.203125 
Q 14.9375 54.109375 19.578125 55.046875 
Q 24.21875 56 28.609375 56 
Q 40.484375 56 46.34375 49.84375 
Q 52.203125 43.703125 52.203125 31.203125 
z
" id="DejaVuSans-97"/>
       <path d="M 44.28125 53.078125 
L 44.28125 44.578125 
Q 40.484375 46.53125 36.375 47.5 
Q 32.28125 48.484375 27.875 48.484375 
Q 21.1875 48.484375 17.84375 46.4375 
Q 14.5 44.390625 14.5 40.28125 
Q 14.5 37.15625 16.890625 35.375 
Q 19.28125 33.59375 26.515625 31.984375 
L 29.59375 31.296875 
Q 39.15625 29.25 43.1875 25.515625 
Q 47.21875 21.78125 47.21875 15.09375 
Q 47.21875 7.46875 41.1875 3.015625 
Q 35.15625 -1.421875 24.609375 -1.421875 
Q 20.21875 -1.421875 15.453125 -0.5625 
Q 10.6875 0.296875 5.421875 2 
L 5.421875 11.28125 
Q 10.40625 8.6875 15.234375 7.390625 
Q 20.0625 6.109375 24.8125 6.109375 
Q 31.15625 6.109375 34.5625 8.28125 
Q 37.984375 10.453125 37.984375 14.40625 
Q 37.984375 18.0625 35.515625 20.015625 
Q 33.0625 21.96875 24.703125 23.78125 
L 21.578125 24.515625 
Q 13.234375 26.265625 9.515625 29.90625 
Q 5.8125 33.546875 5.8125 39.890625 
Q 5.8125 47.609375 11.28125 51.796875 
Q 16.75 56 26.8125 56 
Q 31.78125 56 36.171875 55.265625 
Q 40.578125 54.546875 44.28125 53.078125 
z
" id="DejaVuSans-115"/>
       <path d="M 25.390625 72.90625 
L 33.6875 72.90625 
L 8.296875 -9.28125 
L 0 -9.28125 
z
" id="DejaVuSans-47"/>
       <path d="M 45.40625 46.390625 
L 45.40625 75.984375 
L 54.390625 75.984375 
L 54.390625 0 
L 45.40625 0 
L 45.40625 8.203125 
Q 42.578125 3.328125 38.25 0.953125 
Q 33.9375 -1.421875 27.875 -1.421875 
Q 17.96875 -1.421875 11.734375 6.484375 
Q 5.515625 14.40625 5.515625 27.296875 
Q 5.515625 40.1875 11.734375 48.09375 
Q 17.96875 56 27.875 56 
Q 33.9375 56 38.25 53.625 
Q 42.578125 51.265625 45.40625 46.390625 
z
M 14.796875 27.296875 
Q 14.796875 17.390625 18.875 11.75 
Q 22.953125 6.109375 30.078125 6.109375 
Q 37.203125 6.109375 41.296875 11.75 
Q 45.40625 17.390625 45.40625 27.296875 
Q 45.40625 37.203125 41.296875 42.84375 
Q 37.203125 48.484375 30.078125 48.484375 
Q 22.953125 48.484375 18.875 42.84375 
Q 14.796875 37.203125 14.796875 27.296875 
z
" id="DejaVuSans-100"/>
       <path d="M 9.421875 54.6875 
L 18.40625 54.6875 
L 18.40625 0 
L 9.421875 0 
z
M 9.421875 75.984375 
L 18.40625 75.984375 
L 18.40625 64.59375 
L 9.421875 64.59375 
z
" id="DejaVuSans-105"/>
       <path d="M 52 44.1875 
Q 55.375 50.25 60.0625 53.125 
Q 64.75 56 71.09375 56 
Q 79.640625 56 84.28125 50.015625 
Q 88.921875 44.046875 88.921875 33.015625 
L 88.921875 0 
L 79.890625 0 
L 79.890625 32.71875 
Q 79.890625 40.578125 77.09375 44.375 
Q 74.3125 48.1875 68.609375 48.1875 
Q 61.625 48.1875 57.5625 43.546875 
Q 53.515625 38.921875 53.515625 30.90625 
L 53.515625 0 
L 44.484375 0 
L 44.484375 32.71875 
Q 44.484375 40.625 41.703125 44.40625 
Q 38.921875 48.1875 33.109375 48.1875 
Q 26.21875 48.1875 22.15625 43.53125 
Q 18.109375 38.875 18.109375 30.90625 
L 18.109375 0 
L 9.078125 0 
L 9.078125 54.6875 
L 18.109375 54.6875 
L 18.109375 46.1875 
Q 21.1875 51.21875 25.484375 53.609375 
Q 29.78125 56 35.6875 56 
Q 41.65625 56 45.828125 52.96875 
Q 50 49.953125 52 44.1875 
z
" id="DejaVuSans-109"/>
       <path d="M 54.890625 33.015625 
L 54.890625 0 
L 45.90625 0 
L 45.90625 32.71875 
Q 45.90625 40.484375 42.875 44.328125 
Q 39.84375 48.1875 33.796875 48.1875 
Q 26.515625 48.1875 22.3125 43.546875 
Q 18.109375 38.921875 18.109375 30.90625 
L 18.109375 0 
L 9.078125 0 
L 9.078125 54.6875 
L 18.109375 54.6875 
L 18.109375 46.1875 
Q 21.34375 51.125 25.703125 53.5625 
Q 30.078125 56 35.796875 56 
Q 45.21875 56 50.046875 50.171875 
Q 54.890625 44.34375 54.890625 33.015625 
z
" id="DejaVuSans-110"/>
       <path d="M 8.015625 75.875 
L 15.828125 75.875 
Q 23.140625 64.359375 26.78125 53.3125 
Q 30.421875 42.28125 30.421875 31.390625 
Q 30.421875 20.453125 26.78125 9.375 
Q 23.140625 -1.703125 15.828125 -13.1875 
L 8.015625 -13.1875 
Q 14.5 -2 17.703125 9.0625 
Q 20.90625 20.125 20.90625 31.390625 
Q 20.90625 42.671875 17.703125 53.65625 
Q 14.5 64.65625 8.015625 75.875 
z
" id="DejaVuSans-41"/>
      </defs>
      <use xlink:href="#DejaVuSans-108"/>
      <use x="27.783203" xlink:href="#DejaVuSans-111"/>
      <use x="88.964844" xlink:href="#DejaVuSans-103"/>
      <use x="152.441406" xlink:href="#DejaVuSans-49"/>
      <use x="216.064453" xlink:href="#DejaVuSans-48"/>
      <use x="279.6875" xlink:href="#DejaVuSans-40"/>
      <use x="318.701172" xlink:href="#DejaVuSans-35"/>
      <use x="402.490234" xlink:href="#DejaVuSans-32"/>
      <use x="434.277344" xlink:href="#DejaVuSans-102"/>
      <use x="463.982422" xlink:href="#DejaVuSans-45"/>
      <use x="500.066406" xlink:href="#DejaVuSans-101"/>
      <use x="561.589844" xlink:href="#DejaVuSans-118"/>
      <use x="620.769531" xlink:href="#DejaVuSans-97"/>
      <use x="682.048828" xlink:href="#DejaVuSans-108"/>
      <use x="709.832031" xlink:href="#DejaVuSans-115"/>
      <use x="761.931641" xlink:href="#DejaVuSans-32"/>
      <use x="793.71875" xlink:href="#DejaVuSans-47"/>
      <use x="827.410156" xlink:href="#DejaVuSans-32"/>
      <use x="859.197266" xlink:href="#DejaVuSans-100"/>
      <use x="922.673828" xlink:href="#DejaVuSans-105"/>
      <use x="950.457031" xlink:href="#DejaVuSans-109"/>
      <use x="1047.869141" xlink:href="#DejaVuSans-101"/>
      <use x="1109.392578" xlink:href="#DejaVuSans-110"/>
      <use x="1172.771484" xlink:href="#DejaVuSans-115"/>
      <use x="1224.871094" xlink:href="#DejaVuSans-105"/>
      <use x="1252.654297" xlink:href="#DejaVuSans-111"/>
      <use x="1313.835938" xlink:href="#DejaVuSans-110"/>
      <use x="1377.214844" xlink:href="#DejaVuSans-41"/>
     </g>
    </g>
   </g>
   <g id="matplotlib.axis_2">
    <g id="ytick_1">
     <g id="line2d_21">
      <path clip-path="url(#p67d606cc86)" d="M 57.6 298.944 
L 338.688 298.944 
" style="fill:none;stroke:#b0b0b0;stroke-linecap:square;stroke-width:0.8;"/>
     </g>
     <g id="line2d_22">
      <defs>
       <path d="M 0 0 
L -3.5 0 
" id="m26c82a5ce9" style="stroke:#000000;stroke-width:0.8;"/>
      </defs>
      <g>
       <use style="stroke:#000000;stroke-width:0.8;" x="57.6" xlink:href="#m26c82a5ce9" y="298.944"/>
      </g>
     </g>
     <g id="text_6">
      <!-- 0.0 -->
      <g transform="translate(25.155 305.02275)scale(0.16 -0.16)">
       <defs>
        <path d="M 10.6875 12.40625 
L 21 12.40625 
L 21 0 
L 10.6875 0 
z
" id="DejaVuSans-46"/>
       </defs>
       <use xlink:href="#DejaVuSans-48"/>
       <use x="63.623047" xlink:href="#DejaVuSans-46"/>
       <use x="95.410156" xlink:href="#DejaVuSans-48"/>
      </g>
     </g>
    </g>
    <g id="ytick_2">
     <g id="line2d_23">
      <path clip-path="url(#p67d606cc86)" d="M 57.6 240.431525 
L 338.688 240.431525 
" style="fill:none;stroke:#b0b0b0;stroke-linecap:square;stroke-width:0.8;"/>
     </g>
     <g id="line2d_24">
      <g>
       <use style="stroke:#000000;stroke-width:0.8;" x="57.6" xlink:href="#m26c82a5ce9" y="240.431525"/>
      </g>
     </g>
     <g id="text_7">
      <!-- 0.2 -->
      <g transform="translate(25.155 246.510275)scale(0.16 -0.16)">
       <use xlink:href="#DejaVuSans-48"/>
       <use x="63.623047" xlink:href="#DejaVuSans-46"/>
       <use x="95.410156" xlink:href="#DejaVuSans-50"/>
      </g>
     </g>
    </g>
    <g id="ytick_3">
     <g id="line2d_25">
      <path clip-path="url(#p67d606cc86)" d="M 57.6 181.91905 
L 338.688 181.91905 
" style="fill:none;stroke:#b0b0b0;stroke-linecap:square;stroke-width:0.8;"/>
     </g>
     <g id="line2d_26">
      <g>
       <use style="stroke:#000000;stroke-width:0.8;" x="57.6" xlink:href="#m26c82a5ce9" y="181.91905"/>
      </g>
     </g>
     <g id="text_8">
      <!-- 0.4 -->
      <g transform="translate(25.155 187.9978)scale(0.16 -0.16)">
       <use xlink:href="#DejaVuSans-48"/>
       <use x="63.623047" xlink:href="#DejaVuSans-46"/>
       <use x="95.410156" xlink:href="#DejaVuSans-52"/>
      </g>
     </g>
    </g>
    <g id="ytick_4">
     <g id="line2d_27">
      <path clip-path="url(#p67d606cc86)" d="M 57.6 123.406574 
L 338.688 123.406574 
" style="fill:none;stroke:#b0b0b0;stroke-linecap:square;stroke-width:0.8;"/>
     </g>
     <g id="line2d_28">
      <g>
       <use style="stroke:#000000;stroke-width:0.8;" x="57.6" xlink:href="#m26c82a5ce9" y="123.406574"/>
      </g>
     </g>
     <g id="text_9">
      <!-- 0.6 -->
      <g transform="translate(25.155 129.485324)scale(0.16 -0.16)">
       <use xlink:href="#DejaVuSans-48"/>
       <use x="63.623047" xlink:href="#DejaVuSans-46"/>
       <use x="95.410156" xlink:href="#DejaVuSans-54"/>
      </g>
     </g>
    </g>
    <g id="ytick_5">
     <g id="line2d_29">
      <path clip-path="url(#p67d606cc86)" d="M 57.6 64.894099 
L 338.688 64.894099 
" style="fill:none;stroke:#b0b0b0;stroke-linecap:square;stroke-width:0.8;"/>
     </g>
     <g id="line2d_30">
      <g>
       <use style="stroke:#000000;stroke-width:0.8;" x="57.6" xlink:href="#m26c82a5ce9" y="64.894099"/>
      </g>
     </g>
     <g id="text_10">
      <!-- 0.8 -->
      <g transform="translate(25.155 70.972849)scale(0.16 -0.16)">
       <defs>
        <path d="M 31.78125 34.625 
Q 24.75 34.625 20.71875 30.859375 
Q 16.703125 27.09375 16.703125 20.515625 
Q 16.703125 13.921875 20.71875 10.15625 
Q 24.75 6.390625 31.78125 6.390625 
Q 38.8125 6.390625 42.859375 10.171875 
Q 46.921875 13.96875 46.921875 20.515625 
Q 46.921875 27.09375 42.890625 30.859375 
Q 38.875 34.625 31.78125 34.625 
z
M 21.921875 38.8125 
Q 15.578125 40.375 12.03125 44.71875 
Q 8.5 49.078125 8.5 55.328125 
Q 8.5 64.0625 14.71875 69.140625 
Q 20.953125 74.21875 31.78125 74.21875 
Q 42.671875 74.21875 48.875 69.140625 
Q 55.078125 64.0625 55.078125 55.328125 
Q 55.078125 49.078125 51.53125 44.71875 
Q 48 40.375 41.703125 38.8125 
Q 48.828125 37.15625 52.796875 32.3125 
Q 56.78125 27.484375 56.78125 20.515625 
Q 56.78125 9.90625 50.3125 4.234375 
Q 43.84375 -1.421875 31.78125 -1.421875 
Q 19.734375 -1.421875 13.25 4.234375 
Q 6.78125 9.90625 6.78125 20.515625 
Q 6.78125 27.484375 10.78125 32.3125 
Q 14.796875 37.15625 21.921875 38.8125 
z
M 18.3125 54.390625 
Q 18.3125 48.734375 21.84375 45.5625 
Q 25.390625 42.390625 31.78125 42.390625 
Q 38.140625 42.390625 41.71875 45.5625 
Q 45.3125 48.734375 45.3125 54.390625 
Q 45.3125 60.0625 41.71875 63.234375 
Q 38.140625 66.40625 31.78125 66.40625 
Q 25.390625 66.40625 21.84375 63.234375 
Q 18.3125 60.0625 18.3125 54.390625 
z
" id="DejaVuSans-56"/>
       </defs>
       <use xlink:href="#DejaVuSans-48"/>
       <use x="63.623047" xlink:href="#DejaVuSans-46"/>
       <use x="95.410156" xlink:href="#DejaVuSans-56"/>
      </g>
     </g>
    </g>
    <g id="ytick_6">
     <g id="line2d_31">
      <path clip-path="url(#p67d606cc86)" d="M 57.6 6.381624 
L 338.688 6.381624 
" style="fill:none;stroke:#b0b0b0;stroke-linecap:square;stroke-width:0.8;"/>
     </g>
     <g id="line2d_32">
      <g>
       <use style="stroke:#000000;stroke-width:0.8;" x="57.6" xlink:href="#m26c82a5ce9" y="6.381624"/>
      </g>
     </g>
     <g id="text_11">
      <!-- 1.0 -->
      <g transform="translate(25.155 12.460374)scale(0.16 -0.16)">
       <use xlink:href="#DejaVuSans-49"/>
       <use x="63.623047" xlink:href="#DejaVuSans-46"/>
       <use x="95.410156" xlink:href="#DejaVuSans-48"/>
      </g>
     </g>
    </g>
    <g id="text_12">
     <!-- Fraction of function,target pairs -->
     <g transform="translate(17.619531 285.585)rotate(-90)scale(0.17 -0.17)">
      <defs>
       <path d="M 9.8125 72.90625 
L 51.703125 72.90625 
L 51.703125 64.59375 
L 19.671875 64.59375 
L 19.671875 43.109375 
L 48.578125 43.109375 
L 48.578125 34.8125 
L 19.671875 34.8125 
L 19.671875 0 
L 9.8125 0 
z
" id="DejaVuSans-70"/>
       <path d="M 41.109375 46.296875 
Q 39.59375 47.171875 37.8125 47.578125 
Q 36.03125 48 33.890625 48 
Q 26.265625 48 22.1875 43.046875 
Q 18.109375 38.09375 18.109375 28.8125 
L 18.109375 0 
L 9.078125 0 
L 9.078125 54.6875 
L 18.109375 54.6875 
L 18.109375 46.1875 
Q 20.953125 51.171875 25.484375 53.578125 
Q 30.03125 56 36.53125 56 
Q 37.453125 56 38.578125 55.875 
Q 39.703125 55.765625 41.0625 55.515625 
z
" id="DejaVuSans-114"/>
       <path d="M 48.78125 52.59375 
L 48.78125 44.1875 
Q 44.96875 46.296875 41.140625 47.34375 
Q 37.3125 48.390625 33.40625 48.390625 
Q 24.65625 48.390625 19.8125 42.84375 
Q 14.984375 37.3125 14.984375 27.296875 
Q 14.984375 17.28125 19.8125 11.734375 
Q 24.65625 6.203125 33.40625 6.203125 
Q 37.3125 6.203125 41.140625 7.25 
Q 44.96875 8.296875 48.78125 10.40625 
L 48.78125 2.09375 
Q 45.015625 0.34375 40.984375 -0.53125 
Q 36.96875 -1.421875 32.421875 -1.421875 
Q 20.0625 -1.421875 12.78125 6.34375 
Q 5.515625 14.109375 5.515625 27.296875 
Q 5.515625 40.671875 12.859375 48.328125 
Q 20.21875 56 33.015625 56 
Q 37.15625 56 41.109375 55.140625 
Q 45.0625 54.296875 48.78125 52.59375 
z
" id="DejaVuSans-99"/>
       <path d="M 18.3125 70.21875 
L 18.3125 54.6875 
L 36.8125 54.6875 
L 36.8125 47.703125 
L 18.3125 47.703125 
L 18.3125 18.015625 
Q 18.3125 11.328125 20.140625 9.421875 
Q 21.96875 7.515625 27.59375 7.515625 
L 36.8125 7.515625 
L 36.8125 0 
L 27.59375 0 
Q 17.1875 0 13.234375 3.875 
Q 9.28125 7.765625 9.28125 18.015625 
L 9.28125 47.703125 
L 2.6875 47.703125 
L 2.6875 54.6875 
L 9.28125 54.6875 
L 9.28125 70.21875 
z
" id="DejaVuSans-116"/>
       <path d="M 8.5 21.578125 
L 8.5 54.6875 
L 17.484375 54.6875 
L 17.484375 21.921875 
Q 17.484375 14.15625 20.5 10.265625 
Q 23.53125 6.390625 29.59375 6.390625 
Q 36.859375 6.390625 41.078125 11.03125 
Q 45.3125 15.671875 45.3125 23.6875 
L 45.3125 54.6875 
L 54.296875 54.6875 
L 54.296875 0 
L 45.3125 0 
L 45.3125 8.40625 
Q 42.046875 3.421875 37.71875 1 
Q 33.40625 -1.421875 27.6875 -1.421875 
Q 18.265625 -1.421875 13.375 4.4375 
Q 8.5 10.296875 8.5 21.578125 
z
M 31.109375 56 
z
" id="DejaVuSans-117"/>
       <path d="M 11.71875 12.40625 
L 22.015625 12.40625 
L 22.015625 4 
L 14.015625 -11.625 
L 7.71875 -11.625 
L 11.71875 4 
z
" id="DejaVuSans-44"/>
       <path d="M 18.109375 8.203125 
L 18.109375 -20.796875 
L 9.078125 -20.796875 
L 9.078125 54.6875 
L 18.109375 54.6875 
L 18.109375 46.390625 
Q 20.953125 51.265625 25.265625 53.625 
Q 29.59375 56 35.59375 56 
Q 45.5625 56 51.78125 48.09375 
Q 58.015625 40.1875 58.015625 27.296875 
Q 58.015625 14.40625 51.78125 6.484375 
Q 45.5625 -1.421875 35.59375 -1.421875 
Q 29.59375 -1.421875 25.265625 0.953125 
Q 20.953125 3.328125 18.109375 8.203125 
z
M 48.6875 27.296875 
Q 48.6875 37.203125 44.609375 42.84375 
Q 40.53125 48.484375 33.40625 48.484375 
Q 26.265625 48.484375 22.1875 42.84375 
Q 18.109375 37.203125 18.109375 27.296875 
Q 18.109375 17.390625 22.1875 11.75 
Q 26.265625 6.109375 33.40625 6.109375 
Q 40.53125 6.109375 44.609375 11.75 
Q 48.6875 17.390625 48.6875 27.296875 
z
" id="DejaVuSans-112"/>
      </defs>
      <use xlink:href="#DejaVuSans-70"/>
      <use x="50.269531" xlink:href="#DejaVuSans-114"/>
      <use x="91.382812" xlink:href="#DejaVuSans-97"/>
      <use x="152.662109" xlink:href="#DejaVuSans-99"/>
      <use x="207.642578" xlink:href="#DejaVuSans-116"/>
      <use x="246.851562" xlink:href="#DejaVuSans-105"/>
      <use x="274.634766" xlink:href="#DejaVuSans-111"/>
      <use x="335.816406" xlink:href="#DejaVuSans-110"/>
      <use x="399.195312" xlink:href="#DejaVuSans-32"/>
      <use x="430.982422" xlink:href="#DejaVuSans-111"/>
      <use x="492.164062" xlink:href="#DejaVuSans-102"/>
      <use x="527.369141" xlink:href="#DejaVuSans-32"/>
      <use x="559.15625" xlink:href="#DejaVuSans-102"/>
      <use x="594.361328" xlink:href="#DejaVuSans-117"/>
      <use x="657.740234" xlink:href="#DejaVuSans-110"/>
      <use x="721.119141" xlink:href="#DejaVuSans-99"/>
      <use x="776.099609" xlink:href="#DejaVuSans-116"/>
      <use x="815.308594" xlink:href="#DejaVuSans-105"/>
      <use x="843.091797" xlink:href="#DejaVuSans-111"/>
      <use x="904.273438" xlink:href="#DejaVuSans-110"/>
      <use x="967.652344" xlink:href="#DejaVuSans-44"/>
      <use x="999.439453" xlink:href="#DejaVuSans-116"/>
      <use x="1038.648438" xlink:href="#DejaVuSans-97"/>
      <use x="1099.927734" xlink:href="#DejaVuSans-114"/>
      <use x="1139.291016" xlink:href="#DejaVuSans-103"/>
      <use x="1202.767578" xlink:href="#DejaVuSans-101"/>
      <use x="1264.291016" xlink:href="#DejaVuSans-116"/>
      <use x="1303.5" xlink:href="#DejaVuSans-32"/>
      <use x="1335.287109" xlink:href="#DejaVuSans-112"/>
      <use x="1398.763672" xlink:href="#DejaVuSans-97"/>
      <use x="1460.042969" xlink:href="#DejaVuSans-105"/>
      <use x="1487.826172" xlink:href="#DejaVuSans-114"/>
      <use x="1528.939453" xlink:href="#DejaVuSans-115"/>
     </g>
    </g>
   </g>
   <g id="line2d_33">
    <defs>
     <path d="M 0 1.5 
C 0.397805 1.5 0.77937 1.341951 1.06066 1.06066 
C 1.341951 0.77937 1.5 0.397805 1.5 0 
C 1.5 -0.397805 1.341951 -0.77937 1.06066 -1.06066 
C 0.77937 -1.341951 0.397805 -1.5 0 -1.5 
C -0.397805 -1.5 -0.77937 -1.341951 -1.06066 -1.06066 
C -1.341951 -0.77937 -1.5 -0.397805 -1.5 0 
C -1.5 0.397805 -1.341951 0.77937 -1.06066 1.06066 
C -0.77937 1.341951 -0.397805 1.5 0 1.5 
z
" id="m1d48440ba8" style="stroke:#f5deb3;"/>
    </defs>
    <g>
     <use style="fill:#f5deb3;stroke:#f5deb3;" x="333.698792" xlink:href="#m1d48440ba8" y="46.537244"/>
     <use style="fill:#f5deb3;stroke:#f5deb3;" x="333.698792" xlink:href="#m1d48440ba8" y="46.537244"/>
    </g>
   </g>
   <g id="line2d_34">
    <defs>
     <path d="M 0 1.5 
C 0.397805 1.5 0.77937 1.341951 1.06066 1.06066 
C 1.341951 0.77937 1.5 0.397805 1.5 0 
C 1.5 -0.397805 1.341951 -0.77937 1.06066 -1.06066 
C 0.77937 -1.341951 0.397805 -1.5 0 -1.5 
C -0.397805 -1.5 -0.77937 -1.341951 -1.06066 -1.06066 
C -1.341951 -0.77937 -1.5 -0.397805 -1.5 0 
C -1.5 0.397805 -1.341951 0.77937 -1.06066 1.06066 
C -0.77937 1.341951 -0.397805 1.5 0 1.5 
z
" id="m0c567bf274" style="stroke:#000080;"/>
    </defs>
    <g>
     <use style="fill:#000080;stroke:#000080;" x="234.105704" xlink:href="#m0c567bf274" y="262.23029"/>
     <use style="fill:#000080;stroke:#000080;" x="234.105704" xlink:href="#m0c567bf274" y="262.23029"/>
    </g>
   </g>
   <g id="line2d_35">
    <path d="M -1 291.257067 
L 5.356583 291.257067 
L 5.356583 290.912876 
L 17.444571 290.912876 
L 17.444571 290.798146 
L 24.515591 290.798146 
L 24.515591 290.683415 
L 36.60358 290.683415 
L 36.60358 290.453955 
L 39.291857 290.453955 
L 39.291857 290.339224 
L 40.495043 290.339224 
L 40.495043 290.109764 
L 43.6746 290.109764 
L 43.6746 289.995033 
L 44.617493 289.995033 
L 44.617493 289.880303 
L 57.158476 289.880303 
L 57.158476 289.765573 
L 68.79347 289.765573 
L 68.79347 289.650842 
L 69.687988 289.650842 
L 69.687988 289.536112 
L 73.752978 289.536112 
L 73.752978 289.421381 
L 75.86449 289.421381 
L 75.86449 289.306651 
L 76.016799 289.306651 
L 76.016799 289.07719 
L 90.108217 289.07719 
L 90.108217 288.96246 
L 90.640756 288.96246 
L 90.640756 288.84773 
L 90.771388 288.84773 
L 90.771388 288.732999 
L 95.476493 288.732999 
L 95.476493 288.618269 
L 108.994731 288.618269 
L 108.994731 288.503539 
L 123.633136 288.503539 
L 123.633136 288.388808 
L 125.354494 288.388808 
L 125.354494 288.274078 
L 126.091104 288.274078 
L 126.091104 288.159348 
L 129.26923 288.159348 
L 129.26923 288.044617 
L 130.29741 288.044617 
L 130.29741 287.929887 
L 131.721816 287.929887 
L 131.765283 287.700426 
L 133.347181 287.700426 
L 133.347181 287.585696 
L 134.03029 287.585696 
L 134.03029 287.470966 
L 134.534878 287.470966 
L 134.534878 287.356235 
L 135.173827 287.356235 
L 135.173827 287.241505 
L 136.222974 287.241505 
L 136.222974 287.126775 
L 136.891986 287.126775 
L 136.993377 286.897314 
L 137.66056 286.897314 
L 137.687077 286.667853 
L 140.022943 286.667853 
L 140.022943 286.553123 
L 140.272217 286.553123 
L 140.272217 286.438393 
L 140.889435 286.438393 
L 140.889435 286.323662 
L 141.9793 286.323662 
L 141.9793 286.208932 
L 143.39138 286.208932 
L 143.39138 286.094202 
L 145.039911 286.094202 
L 145.039911 285.979471 
L 145.896294 285.979471 
L 145.907323 285.75001 
L 146.137331 285.75001 
L 146.137331 285.63528 
L 146.425991 285.63528 
L 146.425991 285.52055 
L 146.838461 285.52055 
L 146.838461 285.405819 
L 147.781905 285.405819 
L 147.781905 285.291089 
L 147.976374 285.291089 
L 147.983717 285.061628 
L 148.23877 285.061628 
L 148.241181 284.832168 
L 149.113504 284.832168 
L 149.127259 284.602707 
L 149.373015 284.602707 
L 149.373015 284.373246 
L 150.762296 284.373246 
L 150.762296 284.258516 
L 151.056095 284.258516 
L 151.056095 284.143786 
L 151.359147 284.143786 
L 151.359147 284.029055 
L 151.846282 284.029055 
L 151.846282 283.570134 
L 152.143732 283.570134 
L 152.143732 283.455404 
L 152.903762 283.455404 
L 152.903762 283.225943 
L 153.95124 283.225943 
L 154.041374 282.996482 
L 154.185999 282.996482 
L 154.196284 282.652291 
L 154.580996 282.652291 
L 154.580996 282.537561 
L 154.747816 282.537561 
L 154.747816 282.422831 
L 154.898249 282.422831 
L 154.898249 282.3081 
L 155.541348 282.3081 
L 155.623647 281.963909 
L 155.740098 281.963909 
L 155.788651 281.619718 
L 156.024783 281.619718 
L 156.024783 281.504988 
L 156.138594 281.504988 
L 156.138594 281.390257 
L 156.253191 281.390257 
L 156.253191 281.275527 
L 156.641751 281.275527 
L 156.644729 280.701875 
L 156.843141 280.701875 
L 156.843141 280.587145 
L 157.071319 280.587145 
L 157.071319 280.472415 
L 157.195844 280.472415 
L 157.195844 280.357684 
L 157.346685 280.357684 
L 157.346685 280.128224 
L 157.56841 280.128224 
L 157.56841 280.013493 
L 157.765022 280.013493 
L 157.874997 279.784033 
L 157.881934 279.784033 
L 157.881934 279.669302 
L 158.230759 279.669302 
L 158.238915 279.210381 
L 158.628651 279.210381 
L 158.628651 278.98092 
L 158.795307 278.98092 
L 158.795307 278.86619 
L 159.193535 278.86619 
L 159.293606 278.521999 
L 159.363826 278.521999 
L 159.363826 278.407268 
L 159.502158 278.407268 
L 159.566507 277.948347 
L 159.900809 277.948347 
L 159.984622 277.718886 
L 160.458884 277.718886 
L 160.543637 277.259965 
L 160.580512 277.259965 
L 160.580512 277.145235 
L 161.030947 277.145235 
L 161.030947 277.030504 
L 161.497119 277.030504 
L 161.557895 276.686313 
L 161.854219 276.686313 
L 161.854219 276.571583 
L 162.094462 276.571583 
L 162.094462 276.456853 
L 162.209566 276.456853 
L 162.209566 276.342122 
L 162.464206 276.342122 
L 162.464206 276.227392 
L 163.055638 276.227392 
L 163.114309 275.883201 
L 163.541647 275.883201 
L 163.545657 275.42428 
L 164.483379 275.42428 
L 164.484329 275.194819 
L 164.978828 275.194819 
L 164.978828 275.080089 
L 165.65709 275.080089 
L 165.705872 274.850628 
L 165.935519 274.850628 
L 165.935519 274.735897 
L 166.05052 274.735897 
L 166.05052 274.621167 
L 166.471757 274.621167 
L 166.471757 274.506437 
L 166.622828 274.506437 
L 166.622828 274.391706 
L 166.959057 274.391706 
L 166.959057 274.276976 
L 167.285691 274.276976 
L 167.351096 273.932785 
L 167.518732 273.932785 
L 167.518732 273.703324 
L 167.857078 273.703324 
L 167.857078 273.588594 
L 167.981896 273.588594 
L 167.981896 273.473864 
L 168.228116 273.473864 
L 168.282447 273.244403 
L 168.589172 273.244403 
L 168.589172 273.129673 
L 169.104729 273.129673 
L 169.104729 273.014942 
L 169.236878 273.014942 
L 169.244833 272.785482 
L 169.509608 272.785482 
L 169.570034 272.441291 
L 169.631666 272.441291 
L 169.631666 272.32656 
L 169.813865 272.32656 
L 169.813865 272.21183 
L 169.978243 272.21183 
L 170.023246 271.982369 
L 170.572512 271.982369 
L 170.572512 271.867639 
L 170.686711 271.867639 
L 170.686711 271.752909 
L 170.946367 271.752909 
L 170.946367 271.638178 
L 171.065318 271.638178 
L 171.08745 271.408718 
L 171.395022 271.408718 
L 171.498894 271.179257 
L 171.705428 271.179257 
L 171.705428 271.064526 
L 172.04677 271.064526 
L 172.102709 270.376144 
L 172.450881 270.376144 
L 172.450881 270.261414 
L 172.875808 270.261414 
L 172.875808 270.031953 
L 173.198654 270.031953 
L 173.198654 269.917223 
L 173.32957 269.917223 
L 173.32957 269.802493 
L 173.477103 269.802493 
L 173.559721 269.573032 
L 173.660483 269.573032 
L 173.660483 269.458302 
L 174.273186 269.458302 
L 174.30567 269.114111 
L 174.787918 269.114111 
L 174.787918 268.99938 
L 175.194075 268.99938 
L 175.194075 268.88465 
L 176.077564 268.88465 
L 176.155086 268.655189 
L 177.599255 268.655189 
L 177.599255 268.540459 
L 178.03705 268.540459 
L 178.03705 268.425729 
L 178.85434 268.425729 
L 178.85434 268.310998 
L 179.162065 268.310998 
L 179.162065 268.196268 
L 179.828809 268.196268 
L 179.828809 268.081538 
L 180.236598 268.081538 
L 180.241987 267.852077 
L 180.718027 267.852077 
L 180.718027 267.737347 
L 181.043026 267.737347 
L 181.043026 267.622616 
L 181.506205 267.622616 
L 181.568018 267.278425 
L 181.770496 267.278425 
L 181.770496 267.163695 
L 185.52136 267.163695 
L 185.52136 267.048964 
L 189.704252 267.048964 
L 189.704252 266.934234 
L 190.201732 266.934234 
L 190.201732 266.819504 
L 190.338805 266.819504 
L 190.338805 266.704773 
L 190.618254 266.704773 
L 190.627591 266.245852 
L 191.860947 266.245852 
L 191.860947 266.131122 
L 192.696322 266.131122 
L 192.696322 266.016391 
L 193.199066 266.016391 
L 193.199066 265.901661 
L 193.429665 265.901661 
L 193.429665 265.786931 
L 193.814359 265.786931 
L 193.814359 265.6722 
L 198.14688 265.6722 
L 198.14688 265.55747 
L 198.902886 265.55747 
L 198.902886 265.328009 
L 200.132548 265.328009 
L 200.132548 265.213279 
L 200.553779 265.213279 
L 200.569982 264.983818 
L 204.301061 264.983818 
L 204.301061 264.869088 
L 204.541064 264.869088 
L 204.541064 264.754358 
L 205.46482 264.754358 
L 205.46482 264.639627 
L 205.708381 264.639627 
L 205.708381 264.524897 
L 208.759908 264.524897 
L 208.759908 264.410167 
L 211.894666 264.410167 
L 211.894666 264.295436 
L 212.051129 264.295436 
L 212.124508 263.836515 
L 214.906846 263.836515 
L 214.970002 263.607054 
L 215.469835 263.607054 
L 215.469835 263.492324 
L 215.645177 263.492324 
L 215.645177 263.377593 
L 217.414221 263.377593 
L 217.414221 263.262863 
L 219.51037 263.262863 
L 219.51037 263.148133 
L 226.191064 263.148133 
L 226.191064 263.033402 
L 226.549114 263.033402 
L 226.549114 262.918672 
L 227.850502 262.918672 
L 227.850502 262.803942 
L 228.723273 262.803942 
L 228.723273 262.689211 
L 232.001881 262.689211 
L 232.001881 262.574481 
L 232.940779 262.574481 
L 232.96326 262.34502 
L 234.105704 262.34502 
L 234.105704 262.23029 
L 338.688 262.23029 
L 338.688 262.23029 
" style="fill:none;stroke:#000080;stroke-linecap:square;stroke-width:1.5;"/>
   </g>
   <g id="line2d_36">
    <defs>
     <path d="M 0 6 
C 1.591219 6 3.117479 5.367802 4.242641 4.242641 
C 5.367802 3.117479 6 1.591219 6 0 
C 6 -1.591219 5.367802 -3.117479 4.242641 -4.242641 
C 3.117479 -5.367802 1.591219 -6 0 -6 
C -1.591219 -6 -3.117479 -5.367802 -4.242641 -4.242641 
C -5.367802 -3.117479 -6 -1.591219 -6 0 
C -6 1.591219 -5.367802 3.117479 -4.242641 4.242641 
C -3.117479 5.367802 -1.591219 6 0 6 
z
" id="ma54c0d49ff" style="stroke:#000080;stroke-width:1.5;"/>
    </defs>
    <g>
     <use style="fill-opacity:0;stroke:#000080;stroke-width:1.5;" x="154.747816" xlink:href="#ma54c0d49ff" y="282.422831"/>
     <use style="fill-opacity:0;stroke:#000080;stroke-width:1.5;" x="219.51037" xlink:href="#ma54c0d49ff" y="263.148133"/>
     <use style="fill-opacity:0;stroke:#000080;stroke-width:1.5;" x="234.105704" xlink:href="#ma54c0d49ff" y="262.23029"/>
     <use style="fill-opacity:0;stroke:#000080;stroke-width:1.5;" x="234.105704" xlink:href="#ma54c0d49ff" y="262.23029"/>
     <use style="fill-opacity:0;stroke:#000080;stroke-width:1.5;" x="338.688" xlink:href="#ma54c0d49ff" y="262.23029"/>
    </g>
   </g>
   <g id="line2d_37">
    <path style="fill:none;stroke:#000080;stroke-linecap:square;stroke-width:1.5;"/>
    <g/>
   </g>
   <g id="line2d_38">
    <path clip-path="url(#p67d606cc86)" d="M 181.943792 267.163695 
" style="fill:none;stroke:#000080;stroke-linecap:square;stroke-width:1.5;"/>
    <defs>
     <path d="M -12 12 
L 12 -12 
M -12 -12 
L 12 12 
" id="m761f713bf8" style="stroke:#000080;"/>
    </defs>
    <g clip-path="url(#p67d606cc86)">
     <use style="fill:#000080;stroke:#000080;" x="181.943792" xlink:href="#m761f713bf8" y="267.163695"/>
    </g>
   </g>
   <g id="line2d_39">
    <defs>
     <path d="M 0 1.5 
C 0.397805 1.5 0.77937 1.341951 1.06066 1.06066 
C 1.341951 0.77937 1.5 0.397805 1.5 0 
C 1.5 -0.397805 1.341951 -0.77937 1.06066 -1.06066 
C 0.77937 -1.341951 0.397805 -1.5 0 -1.5 
C -0.397805 -1.5 -0.77937 -1.341951 -1.06066 -1.06066 
C -1.341951 -0.77937 -1.5 -0.397805 -1.5 0 
C -1.5 0.397805 -1.341951 0.77937 -1.06066 1.06066 
C -0.77937 1.341951 -0.397805 1.5 0 1.5 
z
" id="maf04f5c76d" style="stroke:#ff00ff;"/>
    </defs>
    <g>
     <use style="fill:#ff00ff;stroke:#ff00ff;" x="248.235861" xlink:href="#maf04f5c76d" y="249.609952"/>
     <use style="fill:#ff00ff;stroke:#ff00ff;" x="248.235861" xlink:href="#maf04f5c76d" y="249.609952"/>
    </g>
   </g>
   <g id="line2d_40">
    <path d="M -1 290.912876 
L 5.356583 290.912876 
L 5.356583 290.798146 
L 12.427603 290.798146 
L 12.427603 290.568685 
L 17.444571 290.568685 
L 17.444571 290.453955 
L 21.336035 290.453955 
L 21.336035 290.339224 
L 24.515591 290.339224 
L 24.515591 289.995033 
L 27.203868 289.995033 
L 27.203868 289.880303 
L 37.999467 289.880303 
L 37.999467 289.765573 
L 40.495043 289.765573 
L 40.495043 289.650842 
L 43.6746 289.650842 
L 43.6746 289.536112 
L 69.687988 289.536112 
L 69.687988 289.421381 
L 83.732873 289.421381 
L 83.732873 289.306651 
L 90.509138 289.306651 
L 90.509138 289.191921 
L 98.355365 289.191921 
L 98.355365 289.07719 
L 105.454445 289.07719 
L 105.454445 288.96246 
L 106.620207 288.96246 
L 106.620207 288.84773 
L 111.145147 288.84773 
L 111.145147 288.732999 
L 114.469094 288.732999 
L 114.552496 288.503539 
L 114.718113 288.503539 
L 114.718113 288.388808 
L 115.444518 288.388808 
L 115.444518 288.274078 
L 116.650866 288.274078 
L 116.650866 288.159348 
L 117.001416 288.159348 
L 117.001416 288.044617 
L 117.202696 288.044617 
L 117.202696 287.929887 
L 117.751456 287.929887 
L 117.861919 287.585696 
L 117.985359 287.585696 
L 117.985359 287.470966 
L 118.457267 287.470966 
L 118.457267 287.356235 
L 120.583592 287.356235 
L 120.665825 287.012044 
L 121.276176 287.012044 
L 121.276176 286.897314 
L 121.501057 286.897314 
L 121.501057 286.782584 
L 121.712041 286.782584 
L 121.822068 286.553123 
L 121.898676 286.553123 
L 121.898676 285.979471 
L 122.31944 285.979471 
L 122.31944 285.864741 
L 122.625864 285.864741 
L 122.625864 285.75001 
L 122.896085 285.75001 
L 122.968126 285.405819 
L 123.344053 285.405819 
L 123.344053 285.291089 
L 123.810186 285.291089 
L 123.849288 284.602707 
L 123.985457 284.602707 
L 124.091706 284.373246 
L 124.168574 284.373246 
L 124.254646 284.029055 
L 124.321299 284.029055 
L 124.321299 283.914325 
L 124.463275 283.914325 
L 124.463275 283.799595 
L 124.594752 283.799595 
L 124.650796 283.340673 
L 124.799375 283.340673 
L 124.891598 283.111213 
L 124.946698 283.111213 
L 125.056379 282.881752 
L 125.065488 282.881752 
L 125.147256 282.3081 
L 125.372399 282.3081 
L 125.372399 281.963909 
L 125.761724 281.963909 
L 125.866412 280.701875 
L 125.901169 280.701875 
L 125.901169 280.587145 
L 126.022276 280.587145 
L 126.022276 280.472415 
L 126.176759 280.472415 
L 126.261995 280.128224 
L 126.321413 280.128224 
L 126.321413 279.554572 
L 126.598834 279.554572 
L 126.598834 279.325111 
L 126.731768 279.325111 
L 126.830809 278.407268 
L 126.937471 278.407268 
L 127.010934 277.833617 
L 127.285701 277.833617 
L 127.381654 277.259965 
L 127.469149 277.259965 
L 127.579875 277.030504 
L 127.611382 277.030504 
L 127.689902 276.686313 
L 127.799239 276.686313 
L 127.853652 276.342122 
L 128.023567 276.342122 
L 128.107907 275.997931 
L 128.161367 275.997931 
L 128.161367 275.883201 
L 128.313212 275.883201 
L 128.403688 275.53901 
L 128.478728 275.53901 
L 128.523598 275.194819 
L 128.70193 275.194819 
L 128.70193 275.080089 
L 128.819814 275.080089 
L 128.91501 274.621167 
L 129.03872 274.621167 
L 129.103859 274.276976 
L 129.161557 274.276976 
L 129.226241 274.047515 
L 129.340644 274.047515 
L 129.340644 273.818055 
L 129.560187 273.818055 
L 129.567223 273.588594 
L 129.742212 273.588594 
L 129.811719 273.359133 
L 129.922357 273.359133 
L 129.922357 273.244403 
L 130.066513 273.244403 
L 130.14155 273.014942 
L 130.243356 273.014942 
L 130.243356 272.900212 
L 130.431818 272.900212 
L 130.431818 272.785482 
L 130.578479 272.785482 
L 130.644738 272.441291 
L 130.710746 272.441291 
L 130.737079 272.21183 
L 130.881206 272.21183 
L 130.972307 271.867639 
L 130.998249 271.867639 
L 130.998249 271.752909 
L 131.185181 271.752909 
L 131.185181 271.638178 
L 131.376473 271.638178 
L 131.376473 271.523448 
L 131.821009 271.523448 
L 131.821009 271.408718 
L 132.036046 271.408718 
L 132.097001 271.064526 
L 132.188037 271.064526 
L 132.188037 270.949796 
L 132.30267 270.949796 
L 132.386657 270.720335 
L 132.494049 270.720335 
L 132.600785 270.490875 
L 132.648014 270.490875 
L 132.653908 270.261414 
L 132.777237 270.261414 
L 132.777237 270.146684 
L 132.92293 270.146684 
L 132.946128 269.917223 
L 133.084673 269.917223 
L 133.084673 269.802493 
L 133.205004 269.802493 
L 133.250627 269.458302 
L 133.705957 269.458302 
L 133.788988 269.228841 
L 133.882615 269.228841 
L 133.893597 268.99938 
L 134.019394 268.99938 
L 134.019394 268.88465 
L 134.37008 268.88465 
L 134.37008 268.76992 
L 135.163623 268.76992 
L 135.25017 268.540459 
L 135.280614 268.540459 
L 135.356492 268.310998 
L 135.686489 268.310998 
L 135.686489 268.196268 
L 135.809875 268.196268 
L 135.809875 267.966807 
L 136.058907 267.966807 
L 136.058907 267.852077 
L 136.251768 267.852077 
L 136.251768 267.737347 
L 137.162581 267.737347 
L 137.239776 267.507886 
L 137.325651 267.507886 
L 137.420076 267.163695 
L 137.70032 267.163695 
L 137.70032 267.048964 
L 138.213405 267.048964 
L 138.260475 266.819504 
L 139.679685 266.819504 
L 139.734748 266.590043 
L 140.420088 266.590043 
L 140.420088 266.475313 
L 140.922482 266.475313 
L 140.922482 266.360582 
L 141.837164 266.360582 
L 141.837164 266.131122 
L 142.044777 266.131122 
L 142.044777 266.016391 
L 142.273727 266.016391 
L 142.273727 265.901661 
L 142.613279 265.901661 
L 142.613279 265.786931 
L 142.861211 265.786931 
L 142.861211 265.6722 
L 143.451774 265.6722 
L 143.451774 265.55747 
L 144.248764 265.55747 
L 144.248764 265.44274 
L 144.489601 265.44274 
L 144.489601 265.328009 
L 145.143889 265.328009 
L 145.143889 265.213279 
L 145.355693 265.213279 
L 145.355693 265.098549 
L 145.640687 265.098549 
L 145.738371 264.869088 
L 146.908871 264.869088 
L 146.908871 264.754358 
L 147.310205 264.754358 
L 147.310205 264.639627 
L 147.540122 264.639627 
L 147.540122 264.524897 
L 147.98861 264.524897 
L 147.98861 264.295436 
L 148.518647 264.295436 
L 148.518647 264.180706 
L 148.780082 264.180706 
L 148.780082 264.065976 
L 150.640855 264.065976 
L 150.640855 263.951245 
L 151.421542 263.951245 
L 151.439615 263.721785 
L 153.505927 263.721785 
L 153.505927 263.607054 
L 155.984618 263.607054 
L 156.092544 263.377593 
L 156.736812 263.377593 
L 156.736812 263.262863 
L 158.360802 263.262863 
L 158.360802 263.148133 
L 159.459126 263.148133 
L 159.459126 263.033402 
L 160.204556 263.033402 
L 160.204556 262.918672 
L 162.288396 262.918672 
L 162.288396 262.803942 
L 163.384517 262.803942 
L 163.384517 262.689211 
L 163.978333 262.689211 
L 163.978333 262.574481 
L 164.63378 262.574481 
L 164.63378 262.459751 
L 165.148825 262.459751 
L 165.148825 262.34502 
L 165.309029 262.34502 
L 165.309029 262.23029 
L 166.26627 262.23029 
L 166.26627 262.11556 
L 167.058511 262.11556 
L 167.058511 262.000829 
L 167.874294 262.000829 
L 167.874294 261.886099 
L 168.73644 261.886099 
L 168.73644 261.771369 
L 169.446113 261.771369 
L 169.446113 261.656638 
L 170.422454 261.656638 
L 170.422454 261.541908 
L 170.605981 261.541908 
L 170.605981 261.427178 
L 170.814049 261.427178 
L 170.814049 261.312447 
L 173.636331 261.312447 
L 173.636331 261.197717 
L 174.154647 261.197717 
L 174.154647 261.082987 
L 176.322118 261.082987 
L 176.322118 260.968256 
L 178.251463 260.968256 
L 178.251463 260.853526 
L 182.6132 260.853526 
L 182.6132 260.738796 
L 182.728709 260.738796 
L 182.818577 260.394605 
L 182.870621 260.394605 
L 182.960421 259.820953 
L 182.991676 259.820953 
L 183.087069 259.247301 
L 183.192344 259.247301 
L 183.267569 258.90311 
L 183.388801 258.90311 
L 183.388801 258.673649 
L 183.710024 258.673649 
L 183.776456 258.329458 
L 183.900454 258.329458 
L 183.95155 258.099998 
L 184.636058 258.099998 
L 184.636058 257.985267 
L 185.504292 257.985267 
L 185.504292 257.870537 
L 189.349247 257.870537 
L 189.349247 257.755807 
L 190.291071 257.755807 
L 190.376726 257.526346 
L 191.454588 257.526346 
L 191.454588 257.411616 
L 194.455419 257.411616 
L 194.455419 257.296885 
L 194.570362 257.296885 
L 194.624936 256.952694 
L 194.919342 256.952694 
L 194.919342 256.837964 
L 195.061412 256.837964 
L 195.061412 256.608503 
L 195.246668 256.608503 
L 195.246668 256.379043 
L 195.498785 256.379043 
L 195.498785 256.264312 
L 199.96668 256.264312 
L 199.96668 256.149582 
L 201.441686 256.149582 
L 201.441686 256.034851 
L 201.558604 256.034851 
L 201.625581 255.805391 
L 201.703995 255.805391 
L 201.744305 255.4612 
L 201.93515 255.4612 
L 201.93515 255.346469 
L 204.886231 255.346469 
L 204.886231 255.231739 
L 205.278356 255.231739 
L 205.278356 255.117009 
L 206.393802 255.117009 
L 206.412348 254.772818 
L 206.575998 254.772818 
L 206.648956 254.543357 
L 209.034435 254.543357 
L 209.034435 254.428627 
L 210.233559 254.428627 
L 210.332261 253.969705 
L 210.377233 253.969705 
L 210.442603 253.625514 
L 213.390987 253.625514 
L 213.461013 253.281323 
L 216.03475 253.281323 
L 216.03475 253.166593 
L 216.164742 253.166593 
L 216.164742 252.822402 
L 218.481232 252.822402 
L 218.481232 252.592941 
L 220.400148 252.592941 
L 220.487467 252.36348 
L 222.246911 252.36348 
L 222.246911 252.24875 
L 223.877151 252.24875 
L 223.964441 251.904559 
L 224.886738 251.904559 
L 224.886738 251.675098 
L 226.791584 251.675098 
L 226.791584 251.560368 
L 228.12978 251.560368 
L 228.12978 251.445638 
L 230.006095 251.445638 
L 230.006095 251.330907 
L 230.393406 251.330907 
L 230.393406 251.216177 
L 231.432912 251.216177 
L 231.48956 250.871986 
L 232.426056 250.871986 
L 232.426056 250.757256 
L 233.958704 250.757256 
L 233.958704 250.642525 
L 235.958124 250.642525 
L 235.958124 250.527795 
L 238.146246 250.527795 
L 238.164151 250.298334 
L 238.856874 250.298334 
L 238.856874 250.183604 
L 240.109076 250.183604 
L 240.109076 250.068874 
L 240.727198 250.068874 
L 240.727198 249.954143 
L 242.457493 249.954143 
L 242.457493 249.839413 
L 242.787783 249.839413 
L 242.787783 249.724683 
L 248.235861 249.724683 
L 248.235861 249.609952 
L 338.688 249.609952 
L 338.688 249.609952 
" style="fill:none;stroke:#ff00ff;stroke-linecap:square;stroke-width:1.5;"/>
   </g>
   <g id="line2d_41">
    <defs>
     <path d="M 0 8.485281 
L 5.091169 0 
L 0 -8.485281 
L -5.091169 0 
z
" id="m50d3d7d869" style="stroke:#ff00ff;stroke-linejoin:miter;stroke-width:1.5;"/>
    </defs>
    <g>
     <use style="fill-opacity:0;stroke:#ff00ff;stroke-linejoin:miter;stroke-width:1.5;" x="98.355365" xlink:href="#m50d3d7d869" y="289.07719"/>
     <use style="fill-opacity:0;stroke:#ff00ff;stroke-linejoin:miter;stroke-width:1.5;" x="168.73644" xlink:href="#m50d3d7d869" y="261.886099"/>
     <use style="fill-opacity:0;stroke:#ff00ff;stroke-linejoin:miter;stroke-width:1.5;" x="248.235861" xlink:href="#m50d3d7d869" y="249.724683"/>
     <use style="fill-opacity:0;stroke:#ff00ff;stroke-linejoin:miter;stroke-width:1.5;" x="248.235861" xlink:href="#m50d3d7d869" y="249.609952"/>
     <use style="fill-opacity:0;stroke:#ff00ff;stroke-linejoin:miter;stroke-width:1.5;" x="248.235861" xlink:href="#m50d3d7d869" y="249.609952"/>
     <use style="fill-opacity:0;stroke:#ff00ff;stroke-linejoin:miter;stroke-width:1.5;" x="338.688" xlink:href="#m50d3d7d869" y="249.609952"/>
    </g>
   </g>
   <g id="line2d_42">
    <path style="fill:none;stroke:#ff00ff;stroke-linecap:square;stroke-width:1.5;"/>
    <g/>
   </g>
   <g id="line2d_43">
    <path clip-path="url(#p67d606cc86)" d="M 181.957749 260.853526 
" style="fill:none;stroke:#ff00ff;stroke-linecap:square;stroke-width:1.5;"/>
    <defs>
     <path d="M -12 12 
L 12 -12 
M -12 -12 
L 12 12 
" id="m943d259daf" style="stroke:#ff00ff;"/>
    </defs>
    <g clip-path="url(#p67d606cc86)">
     <use style="fill:#ff00ff;stroke:#ff00ff;" x="181.957749" xlink:href="#m943d259daf" y="260.853526"/>
    </g>
   </g>
   <g id="line2d_44">
    <path d="M 338.688 262.23029 
L 369.60768 293.092752 
" style="fill:none;stroke:#000080;stroke-linecap:square;stroke-width:1.5;"/>
    <g>
     <use style="fill-opacity:0;stroke:#000080;stroke-width:1.5;" x="338.688" xlink:href="#ma54c0d49ff" y="262.23029"/>
     <use style="fill-opacity:0;stroke:#000080;stroke-width:1.5;" x="369.60768" xlink:href="#ma54c0d49ff" y="293.092752"/>
    </g>
   </g>
   <g id="line2d_45">
    <path d="M 338.688 249.609952 
L 369.60768 152.662812 
" style="fill:none;stroke:#ff00ff;stroke-linecap:square;stroke-width:1.5;"/>
    <g>
     <use style="fill-opacity:0;stroke:#ff00ff;stroke-linejoin:miter;stroke-width:1.5;" x="338.688" xlink:href="#m50d3d7d869" y="249.609952"/>
     <use style="fill-opacity:0;stroke:#ff00ff;stroke-linejoin:miter;stroke-width:1.5;" x="369.60768" xlink:href="#m50d3d7d869" y="152.662812"/>
    </g>
   </g>
   <g id="line2d_46">
    <path d="M 338.688 298.944 
L 338.688 6.381624 
" style="fill:none;stroke:#000000;stroke-linecap:square;stroke-width:1.5;"/>
   </g>
   <g id="patch_3">
    <path d="M 57.6 298.944 
L 57.6 3.456 
" style="fill:none;stroke:#000000;stroke-linecap:square;stroke-linejoin:miter;stroke-width:0.8;"/>
   </g>
   <g id="patch_4">
    <path d="M 338.688 298.944 
L 338.688 3.456 
" style="fill:none;stroke:#000000;stroke-linecap:square;stroke-linejoin:miter;stroke-width:0.8;"/>
   </g>
   <g id="patch_5">
    <path d="M 57.6 298.944 
L 338.688 298.944 
" style="fill:none;stroke:#000000;stroke-linecap:square;stroke-linejoin:miter;stroke-width:0.8;"/>
   </g>
   <g id="patch_6">
    <path d="M 57.6 3.456 
L 338.688 3.456 
" style="fill:none;stroke:#000000;stroke-linecap:square;stroke-linejoin:miter;stroke-width:0.8;"/>
   </g>
   <g id="text_13">
    <!-- DEPSOmax5 -->
    <g transform="translate(375.22944 297.78369)scale(0.17 -0.17)">
     <defs>
      <path d="M 19.671875 64.796875 
L 19.671875 8.109375 
L 31.59375 8.109375 
Q 46.6875 8.109375 53.6875 14.9375 
Q 60.6875 21.78125 60.6875 36.53125 
Q 60.6875 51.171875 53.6875 57.984375 
Q 46.6875 64.796875 31.59375 64.796875 
z
M 9.8125 72.90625 
L 30.078125 72.90625 
Q 51.265625 72.90625 61.171875 64.09375 
Q 71.09375 55.28125 71.09375 36.53125 
Q 71.09375 17.671875 61.125 8.828125 
Q 51.171875 0 30.078125 0 
L 9.8125 0 
z
" id="DejaVuSans-68"/>
      <path d="M 9.8125 72.90625 
L 55.90625 72.90625 
L 55.90625 64.59375 
L 19.671875 64.59375 
L 19.671875 43.015625 
L 54.390625 43.015625 
L 54.390625 34.71875 
L 19.671875 34.71875 
L 19.671875 8.296875 
L 56.78125 8.296875 
L 56.78125 0 
L 9.8125 0 
z
" id="DejaVuSans-69"/>
      <path d="M 19.671875 64.796875 
L 19.671875 37.40625 
L 32.078125 37.40625 
Q 38.96875 37.40625 42.71875 40.96875 
Q 46.484375 44.53125 46.484375 51.125 
Q 46.484375 57.671875 42.71875 61.234375 
Q 38.96875 64.796875 32.078125 64.796875 
z
M 9.8125 72.90625 
L 32.078125 72.90625 
Q 44.34375 72.90625 50.609375 67.359375 
Q 56.890625 61.8125 56.890625 51.125 
Q 56.890625 40.328125 50.609375 34.8125 
Q 44.34375 29.296875 32.078125 29.296875 
L 19.671875 29.296875 
L 19.671875 0 
L 9.8125 0 
z
" id="DejaVuSans-80"/>
      <path d="M 53.515625 70.515625 
L 53.515625 60.890625 
Q 47.90625 63.578125 42.921875 64.890625 
Q 37.9375 66.21875 33.296875 66.21875 
Q 25.25 66.21875 20.875 63.09375 
Q 16.5 59.96875 16.5 54.203125 
Q 16.5 49.359375 19.40625 46.890625 
Q 22.3125 44.4375 30.421875 42.921875 
L 36.375 41.703125 
Q 47.40625 39.59375 52.65625 34.296875 
Q 57.90625 29 57.90625 20.125 
Q 57.90625 9.515625 50.796875 4.046875 
Q 43.703125 -1.421875 29.984375 -1.421875 
Q 24.8125 -1.421875 18.96875 -0.25 
Q 13.140625 0.921875 6.890625 3.21875 
L 6.890625 13.375 
Q 12.890625 10.015625 18.65625 8.296875 
Q 24.421875 6.59375 29.984375 6.59375 
Q 38.421875 6.59375 43.015625 9.90625 
Q 47.609375 13.234375 47.609375 19.390625 
Q 47.609375 24.75 44.3125 27.78125 
Q 41.015625 30.8125 33.5 32.328125 
L 27.484375 33.5 
Q 16.453125 35.6875 11.515625 40.375 
Q 6.59375 45.0625 6.59375 53.421875 
Q 6.59375 63.09375 13.40625 68.65625 
Q 20.21875 74.21875 32.171875 74.21875 
Q 37.3125 74.21875 42.625 73.28125 
Q 47.953125 72.359375 53.515625 70.515625 
z
" id="DejaVuSans-83"/>
      <path d="M 39.40625 66.21875 
Q 28.65625 66.21875 22.328125 58.203125 
Q 16.015625 50.203125 16.015625 36.375 
Q 16.015625 22.609375 22.328125 14.59375 
Q 28.65625 6.59375 39.40625 6.59375 
Q 50.140625 6.59375 56.421875 14.59375 
Q 62.703125 22.609375 62.703125 36.375 
Q 62.703125 50.203125 56.421875 58.203125 
Q 50.140625 66.21875 39.40625 66.21875 
z
M 39.40625 74.21875 
Q 54.734375 74.21875 63.90625 63.9375 
Q 73.09375 53.65625 73.09375 36.375 
Q 73.09375 19.140625 63.90625 8.859375 
Q 54.734375 -1.421875 39.40625 -1.421875 
Q 24.03125 -1.421875 14.8125 8.828125 
Q 5.609375 19.09375 5.609375 36.375 
Q 5.609375 53.65625 14.8125 63.9375 
Q 24.03125 74.21875 39.40625 74.21875 
z
" id="DejaVuSans-79"/>
      <path d="M 54.890625 54.6875 
L 35.109375 28.078125 
L 55.90625 0 
L 45.3125 0 
L 29.390625 21.484375 
L 13.484375 0 
L 2.875 0 
L 24.125 28.609375 
L 4.6875 54.6875 
L 15.28125 54.6875 
L 29.78125 35.203125 
L 44.28125 54.6875 
z
" id="DejaVuSans-120"/>
      <path d="M 10.796875 72.90625 
L 49.515625 72.90625 
L 49.515625 64.59375 
L 19.828125 64.59375 
L 19.828125 46.734375 
Q 21.96875 47.46875 24.109375 47.828125 
Q 26.265625 48.1875 28.421875 48.1875 
Q 40.625 48.1875 47.75 41.5 
Q 54.890625 34.8125 54.890625 23.390625 
Q 54.890625 11.625 47.5625 5.09375 
Q 40.234375 -1.421875 26.90625 -1.421875 
Q 22.3125 -1.421875 17.546875 -0.640625 
Q 12.796875 0.140625 7.71875 1.703125 
L 7.71875 11.625 
Q 12.109375 9.234375 16.796875 8.0625 
Q 21.484375 6.890625 26.703125 6.890625 
Q 35.15625 6.890625 40.078125 11.328125 
Q 45.015625 15.765625 45.015625 23.390625 
Q 45.015625 31 40.078125 35.4375 
Q 35.15625 39.890625 26.703125 39.890625 
Q 22.75 39.890625 18.8125 39.015625 
Q 14.890625 38.140625 10.796875 36.28125 
z
" id="DejaVuSans-53"/>
     </defs>
     <use xlink:href="#DejaVuSans-68"/>
     <use x="77.001953" xlink:href="#DejaVuSans-69"/>
     <use x="140.185547" xlink:href="#DejaVuSans-80"/>
     <use x="200.488281" xlink:href="#DejaVuSans-83"/>
     <use x="263.964844" xlink:href="#DejaVuSans-79"/>
     <use x="342.675781" xlink:href="#DejaVuSans-109"/>
     <use x="440.087891" xlink:href="#DejaVuSans-97"/>
     <use x="501.367188" xlink:href="#DejaVuSans-120"/>
     <use x="560.546875" xlink:href="#DejaVuSans-53"/>
    </g>
   </g>
   <g id="text_14">
    <!-- SimpleDEm -->
    <g transform="translate(375.22944 157.353749)scale(0.17 -0.17)">
     <use xlink:href="#DejaVuSans-83"/>
     <use x="63.476562" xlink:href="#DejaVuSans-105"/>
     <use x="91.259766" xlink:href="#DejaVuSans-109"/>
     <use x="188.671875" xlink:href="#DejaVuSans-112"/>
     <use x="252.148438" xlink:href="#DejaVuSans-108"/>
     <use x="279.931641" xlink:href="#DejaVuSans-101"/>
     <use x="341.455078" xlink:href="#DejaVuSans-68"/>
     <use x="418.457031" xlink:href="#DejaVuSans-69"/>
     <use x="481.640625" xlink:href="#DejaVuSans-109"/>
    </g>
   </g>
   <g id="text_15">
    <!-- best 2009 -->
    <g transform="translate(375.22944 16.923809)scale(0.17 -0.17)">
     <defs>
      <path d="M 48.6875 27.296875 
Q 48.6875 37.203125 44.609375 42.84375 
Q 40.53125 48.484375 33.40625 48.484375 
Q 26.265625 48.484375 22.1875 42.84375 
Q 18.109375 37.203125 18.109375 27.296875 
Q 18.109375 17.390625 22.1875 11.75 
Q 26.265625 6.109375 33.40625 6.109375 
Q 40.53125 6.109375 44.609375 11.75 
Q 48.6875 17.390625 48.6875 27.296875 
z
M 18.109375 46.390625 
Q 20.953125 51.265625 25.265625 53.625 
Q 29.59375 56 35.59375 56 
Q 45.5625 56 51.78125 48.09375 
Q 58.015625 40.1875 58.015625 27.296875 
Q 58.015625 14.40625 51.78125 6.484375 
Q 45.5625 -1.421875 35.59375 -1.421875 
Q 29.59375 -1.421875 25.265625 0.953125 
Q 20.953125 3.328125 18.109375 8.203125 
L 18.109375 0 
L 9.078125 0 
L 9.078125 75.984375 
L 18.109375 75.984375 
z
" id="DejaVuSans-98"/>
      <path d="M 10.984375 1.515625 
L 10.984375 10.5 
Q 14.703125 8.734375 18.5 7.8125 
Q 22.3125 6.890625 25.984375 6.890625 
Q 35.75 6.890625 40.890625 13.453125 
Q 46.046875 20.015625 46.78125 33.40625 
Q 43.953125 29.203125 39.59375 26.953125 
Q 35.25 24.703125 29.984375 24.703125 
Q 19.046875 24.703125 12.671875 31.3125 
Q 6.296875 37.9375 6.296875 49.421875 
Q 6.296875 60.640625 12.9375 67.421875 
Q 19.578125 74.21875 30.609375 74.21875 
Q 43.265625 74.21875 49.921875 64.515625 
Q 56.59375 54.828125 56.59375 36.375 
Q 56.59375 19.140625 48.40625 8.859375 
Q 40.234375 -1.421875 26.421875 -1.421875 
Q 22.703125 -1.421875 18.890625 -0.6875 
Q 15.09375 0.046875 10.984375 1.515625 
z
M 30.609375 32.421875 
Q 37.25 32.421875 41.125 36.953125 
Q 45.015625 41.5 45.015625 49.421875 
Q 45.015625 57.28125 41.125 61.84375 
Q 37.25 66.40625 30.609375 66.40625 
Q 23.96875 66.40625 20.09375 61.84375 
Q 16.21875 57.28125 16.21875 49.421875 
Q 16.21875 41.5 20.09375 36.953125 
Q 23.96875 32.421875 30.609375 32.421875 
z
" id="DejaVuSans-57"/>
     </defs>
     <use xlink:href="#DejaVuSans-98"/>
     <use x="63.476562" xlink:href="#DejaVuSans-101"/>
     <use x="125" xlink:href="#DejaVuSans-115"/>
     <use x="177.099609" xlink:href="#DejaVuSans-116"/>
     <use x="216.308594" xlink:href="#DejaVuSans-32"/>
     <use x="248.095703" xlink:href="#DejaVuSans-50"/>
     <use x="311.71875" xlink:href="#DejaVuSans-48"/>
     <use x="375.341797" xlink:href="#DejaVuSans-48"/>
     <use x="438.964844" xlink:href="#DejaVuSans-57"/>
    </g>
   </g>
   <g id="text_16">
    <!-- bbob f20-f24, 40-D -->
    <g transform="translate(60.41088 14.161286)scale(0.102 -0.102)">
     <use xlink:href="#DejaVuSans-98"/>
     <use x="63.476562" xlink:href="#DejaVuSans-98"/>
     <use x="126.953125" xlink:href="#DejaVuSans-111"/>
     <use x="188.134766" xlink:href="#DejaVuSans-98"/>
     <use x="251.611328" xlink:href="#DejaVuSans-32"/>
     <use x="283.398438" xlink:href="#DejaVuSans-102"/>
     <use x="318.603516" xlink:href="#DejaVuSans-50"/>
     <use x="382.226562" xlink:href="#DejaVuSans-48"/>
     <use x="445.849609" xlink:href="#DejaVuSans-45"/>
     <use x="481.933594" xlink:href="#DejaVuSans-102"/>
     <use x="517.138672" xlink:href="#DejaVuSans-50"/>
     <use x="580.761719" xlink:href="#DejaVuSans-52"/>
     <use x="644.384766" xlink:href="#DejaVuSans-44"/>
     <use x="676.171875" xlink:href="#DejaVuSans-32"/>
     <use x="707.958984" xlink:href="#DejaVuSans-52"/>
     <use x="771.582031" xlink:href="#DejaVuSans-48"/>
     <use x="835.205078" xlink:href="#DejaVuSans-45"/>
     <use x="871.289062" xlink:href="#DejaVuSans-68"/>
    </g>
    <!-- 51 targets: 100..1e-08 -->
    <g transform="translate(60.41088 25.583055)scale(0.102 -0.102)">
     <defs>
      <path d="M 11.71875 12.40625 
L 22.015625 12.40625 
L 22.015625 0 
L 11.71875 0 
z
M 11.71875 51.703125 
L 22.015625 51.703125 
L 22.015625 39.3125 
L 11.71875 39.3125 
z
" id="DejaVuSans-58"/>
     </defs>
     <use xlink:href="#DejaVuSans-53"/>
     <use x="63.623047" xlink:href="#DejaVuSans-49"/>
     <use x="127.246094" xlink:href="#DejaVuSans-32"/>
     <use x="159.033203" xlink:href="#DejaVuSans-116"/>
     <use x="198.242188" xlink:href="#DejaVuSans-97"/>
     <use x="259.521484" xlink:href="#DejaVuSans-114"/>
     <use x="298.884766" xlink:href="#DejaVuSans-103"/>
     <use x="362.361328" xlink:href="#DejaVuSans-101"/>
     <use x="423.884766" xlink:href="#DejaVuSans-116"/>
     <use x="463.09375" xlink:href="#DejaVuSans-115"/>
     <use x="515.193359" xlink:href="#DejaVuSans-58"/>
     <use x="548.884766" xlink:href="#DejaVuSans-32"/>
     <use x="580.671875" xlink:href="#DejaVuSans-49"/>
     <use x="644.294922" xlink:href="#DejaVuSans-48"/>
     <use x="707.917969" xlink:href="#DejaVuSans-48"/>
     <use x="771.541016" xlink:href="#DejaVuSans-46"/>
     <use x="803.328125" xlink:href="#DejaVuSans-46"/>
     <use x="835.115234" xlink:href="#DejaVuSans-49"/>
     <use x="898.738281" xlink:href="#DejaVuSans-101"/>
     <use x="960.261719" xlink:href="#DejaVuSans-45"/>
     <use x="996.345703" xlink:href="#DejaVuSans-48"/>
     <use x="1059.96875" xlink:href="#DejaVuSans-56"/>
    </g>
    <!-- 15 instances -->
    <g transform="translate(60.41088 37.004824)scale(0.102 -0.102)">
     <use xlink:href="#DejaVuSans-49"/>
     <use x="63.623047" xlink:href="#DejaVuSans-53"/>
     <use x="127.246094" xlink:href="#DejaVuSans-32"/>
     <use x="159.033203" xlink:href="#DejaVuSans-105"/>
     <use x="186.816406" xlink:href="#DejaVuSans-110"/>
     <use x="250.195312" xlink:href="#DejaVuSans-115"/>
     <use x="302.294922" xlink:href="#DejaVuSans-116"/>
     <use x="341.503906" xlink:href="#DejaVuSans-97"/>
     <use x="402.783203" xlink:href="#DejaVuSans-110"/>
     <use x="466.162109" xlink:href="#DejaVuSans-99"/>
     <use x="521.142578" xlink:href="#DejaVuSans-101"/>
     <use x="582.666016" xlink:href="#DejaVuSans-115"/>
    </g>
   </g>
   <g id="text_17">
    <!-- v2.4 -->
    <g style="fill:#808080;" transform="translate(187.233062 293.909432)scale(0.1 -0.1)">
     <use xlink:href="#DejaVuSans-118"/>
     <use x="59.179688" xlink:href="#DejaVuSans-50"/>
     <use x="122.802734" xlink:href="#DejaVuSans-46"/>
     <use x="154.589844" xlink:href="#DejaVuSans-52"/>
    </g>
   </g>
  </g>
 </g>
 <defs>
  <clipPath id="p67d606cc86">
   <rect height="295.488" width="281.088" x="57.6" y="3.456"/>
  </clipPath>
 </defs>
</svg>
