<?xml version="1.0" encoding="utf-8" standalone="no"?>
<!DOCTYPE svg PUBLIC "-//W3C//DTD SVG 1.1//EN"
  "http://www.w3.org/Graphics/SVG/1.1/DTD/svg11.dtd">
<!-- Created with matplotlib (https://matplotlib.org/) -->
<svg height="345.6pt" version="1.1" viewBox="0 0 460.8 345.6" width="460.8pt" xmlns="http://www.w3.org/2000/svg" xmlns:xlink="http://www.w3.org/1999/xlink">
 <metadata>
  <rdf:RDF xmlns:cc="http://creativecommons.org/ns#" xmlns:dc="http://purl.org/dc/elements/1.1/" xmlns:rdf="http://www.w3.org/1999/02/22-rdf-syntax-ns#">
   <cc:Work>
    <dc:type rdf:resource="http://purl.org/dc/dcmitype/StillImage"/>
    <dc:date>2021-04-25T22:54:36.477347</dc:date>
    <dc:format>image/svg+xml</dc:format>
    <dc:creator>
     <cc:Agent>
      <dc:title>Matplotlib v3.3.2, https://matplotlib.org/</dc:title>
     </cc:Agent>
    </dc:creator>
   </cc:Work>
  </rdf:RDF>
 </metadata>
 <defs>
  <style type="text/css">*{stroke-linecap:butt;stroke-linejoin:round;}</style>
 </defs>
 <g id="figure_1">
  <g id="patch_1">
   <path d="M 0 345.6 
L 460.8 345.6 
L 460.8 0 
L 0 0 
z
" style="fill:#ffffff;"/>
  </g>
  <g id="axes_1">
   <g id="patch_2">
    <path d="M 57.6 298.944 
L 338.688 298.944 
L 338.688 3.456 
L 57.6 3.456 
z
" style="fill:#ffffff;"/>
   </g>
   <g id="line2d_1">
    <path d="M -1 278.292538 
L 5.356583 278.292538 
L 5.356583 277.145235 
L 12.427603 277.145235 
L 12.427603 275.997931 
L 24.515591 275.997931 
L 24.515591 274.850628 
L 62.833608 274.850628 
L 62.833608 273.703324 
L 63.153604 273.703324 
L 63.153604 272.556021 
L 76.317484 272.556021 
L 76.317484 271.408718 
L 92.563189 271.408718 
L 92.563189 270.261414 
L 94.347675 270.261414 
L 94.347675 269.114111 
L 97.711776 269.114111 
L 97.711776 267.966807 
L 104.205136 267.966807 
L 104.205136 266.819504 
L 107.213174 266.819504 
L 107.213174 265.6722 
L 113.839203 265.6722 
L 113.839203 264.524897 
L 115.633223 264.524897 
L 115.633223 263.377593 
L 120.118198 263.377593 
L 120.118198 262.23029 
L 121.208142 262.23029 
L 121.208142 261.082987 
L 125.752972 261.082987 
L 125.752972 259.935683 
L 125.875108 259.935683 
L 125.875108 258.78838 
L 131.50914 258.78838 
L 131.50914 257.641076 
L 137.954401 257.641076 
L 137.954401 256.493773 
L 138.84457 256.493773 
L 138.84457 255.346469 
L 140.708409 255.346469 
L 140.708409 254.199166 
L 142.456092 254.199166 
L 142.456092 253.051863 
L 142.633244 253.051863 
L 142.633244 251.904559 
L 147.895404 251.904559 
L 147.895404 250.757256 
L 149.11121 250.757256 
L 149.11121 249.609952 
L 150.344189 249.609952 
L 150.344189 248.462649 
L 152.344968 248.462649 
L 152.344968 247.315345 
L 153.774828 247.315345 
L 153.774828 246.168042 
L 156.279062 246.168042 
L 156.279062 245.020738 
L 159.953855 245.020738 
L 159.953855 243.873435 
L 163.142032 243.873435 
L 163.142032 242.726132 
L 164.277922 242.726132 
L 164.277922 241.578828 
L 164.781961 241.578828 
L 164.781961 240.431525 
L 165.421922 240.431525 
L 165.421922 239.284221 
L 166.039228 239.284221 
L 166.039228 238.136918 
L 167.487573 238.136918 
L 167.487573 236.989614 
L 167.792761 236.989614 
L 167.792761 235.842311 
L 169.513168 235.842311 
L 169.513168 234.695008 
L 171.171166 234.695008 
L 171.171166 233.547704 
L 171.540143 233.547704 
L 171.540143 232.400401 
L 173.874697 232.400401 
L 173.874697 231.253097 
L 175.060428 231.253097 
L 175.060428 230.105794 
L 175.711665 230.105794 
L 175.711665 228.95849 
L 177.824832 228.95849 
L 177.824832 227.811187 
L 179.002064 227.811187 
L 179.002064 226.663884 
L 179.894888 226.663884 
L 179.894888 225.51658 
L 180.903899 225.51658 
L 180.903899 224.369277 
L 181.080478 224.369277 
L 181.080478 223.221973 
L 182.071084 223.221973 
L 182.071084 222.07467 
L 182.239031 222.07467 
L 182.239031 220.927366 
L 182.627639 220.927366 
L 182.627639 219.780063 
L 183.222538 219.780063 
L 183.222538 218.632759 
L 183.873913 218.632759 
L 183.873913 217.485456 
L 184.40298 217.485456 
L 184.40298 216.338153 
L 187.430246 216.338153 
L 187.430246 215.190849 
L 188.346387 215.190849 
L 188.346387 214.043546 
L 188.703239 214.043546 
L 188.72715 211.748939 
L 189.794611 211.748939 
L 189.794611 210.601635 
L 191.944951 210.601635 
L 191.944951 209.454332 
L 193.363779 209.454332 
L 193.363779 208.307029 
L 193.753638 208.307029 
L 193.753638 207.159725 
L 194.372948 207.159725 
L 194.372948 206.012422 
L 195.706134 206.012422 
L 195.706134 204.865118 
L 196.42506 204.865118 
L 196.42506 203.717815 
L 197.177562 203.717815 
L 197.177562 202.570511 
L 197.749947 202.570511 
L 197.749947 201.423208 
L 198.237486 201.423208 
L 198.237486 200.275904 
L 198.812099 200.275904 
L 198.812099 199.128601 
L 199.048923 199.128601 
L 199.048923 197.981298 
L 199.466297 197.981298 
L 199.466297 196.833994 
L 199.779397 196.833994 
L 199.779397 195.686691 
L 200.796794 195.686691 
L 200.796794 194.539387 
L 203.190123 194.539387 
L 203.190123 193.392084 
L 203.68243 193.392084 
L 203.68243 192.24478 
L 203.961088 192.24478 
L 203.961088 191.097477 
L 204.163074 191.097477 
L 204.163074 189.950174 
L 204.999382 189.950174 
L 205.049375 187.655567 
L 205.274967 187.655567 
L 205.345264 185.36096 
L 206.825921 185.36096 
L 206.825921 184.213656 
L 207.206971 184.213656 
L 207.206971 183.066353 
L 207.930028 183.066353 
L 207.930028 181.91905 
L 208.59744 181.91905 
L 208.59744 180.771746 
L 209.010717 180.771746 
L 209.010717 179.624443 
L 209.178554 179.624443 
L 209.178554 178.477139 
L 209.397948 178.477139 
L 209.397948 177.329836 
L 210.179781 177.329836 
L 210.201823 175.035229 
L 210.497411 175.035229 
L 210.497411 173.887925 
L 210.956719 173.887925 
L 210.956719 172.740622 
L 211.072259 172.740622 
L 211.072259 171.593319 
L 211.256989 171.593319 
L 211.256989 170.446015 
L 211.730652 170.446015 
L 211.821759 168.151408 
L 211.89498 168.151408 
L 211.990906 164.709498 
L 212.071488 164.709498 
L 212.071488 163.562195 
L 214.410071 163.562195 
L 214.410071 162.414891 
L 214.771609 162.414891 
L 214.771609 161.267588 
L 215.781805 161.267588 
L 215.781805 160.120284 
L 218.50587 160.120284 
L 218.50587 158.972981 
L 219.384919 158.972981 
L 219.384919 157.825677 
L 223.11957 157.825677 
L 223.203649 155.53107 
L 224.916552 155.53107 
L 224.916552 154.383767 
L 227.244278 154.383767 
L 227.299157 152.08916 
L 227.393667 152.08916 
L 227.393667 150.941857 
L 227.508541 150.941857 
L 227.589523 148.64725 
L 227.904234 148.64725 
L 227.904234 147.499946 
L 228.166275 147.499946 
L 228.249296 145.20534 
L 229.802524 145.20534 
L 229.802524 144.058036 
L 230.020773 144.058036 
L 230.020773 142.910733 
L 231.495895 142.910733 
L 231.495895 141.763429 
L 231.701149 141.763429 
L 231.701149 140.616126 
L 232.376809 140.616126 
L 232.376809 139.468822 
L 232.883038 139.468822 
L 232.992143 136.026912 
L 233.090796 136.026912 
L 233.164981 133.732305 
L 233.223549 133.732305 
L 233.296659 131.437698 
L 234.827317 131.437698 
L 234.922768 127.995788 
L 234.977831 127.995788 
L 235.076844 124.553878 
L 235.127587 124.553878 
L 235.223732 121.111967 
L 235.248105 121.111967 
L 235.31603 116.522754 
L 235.370601 116.522754 
L 235.464511 110.786236 
L 235.482231 110.786236 
L 235.559871 107.344326 
L 235.610629 107.344326 
L 235.711113 103.902416 
L 235.755357 103.902416 
L 235.850397 100.460506 
L 235.901758 100.460506 
L 235.986185 97.018595 
L 236.029768 97.018595 
L 236.125093 93.576685 
L 236.174983 93.576685 
L 236.268203 90.134775 
L 236.312525 90.134775 
L 236.405353 86.692864 
L 236.449145 86.692864 
L 236.53489 82.103651 
L 236.580915 82.103651 
L 236.668135 78.66174 
L 238.55571 78.66174 
L 238.55571 77.514437 
L 239.97228 77.514437 
L 239.97228 76.367133 
L 240.154529 76.367133 
L 240.154529 75.21983 
L 240.327971 75.21983 
L 240.327971 74.072526 
L 244.477292 74.072526 
L 244.560274 71.77792 
L 244.679689 71.77792 
L 244.679689 70.630616 
L 246.026885 70.630616 
L 246.127759 66.041402 
L 246.158183 66.041402 
L 246.247731 61.452189 
L 246.280014 61.452189 
L 246.390617 55.715672 
L 246.424099 55.715672 
L 246.52572 49.979154 
L 246.547169 49.979154 
L 246.592893 46.537244 
L 253.963008 46.537244 
L 253.963008 45.389941 
L 262.988134 45.389941 
L 262.988134 44.242637 
L 272.003333 44.242637 
L 272.003333 43.095334 
L 280.636941 43.095334 
L 280.636941 41.94803 
L 283.437352 41.94803 
L 283.437352 40.800727 
L 287.476939 40.800727 
L 287.476939 39.653423 
L 290.442738 39.653423 
L 290.515767 37.358817 
L 290.591506 37.358817 
L 290.697914 35.06421 
L 292.419798 35.06421 
L 292.419798 33.916906 
L 300.672127 33.916906 
L 300.778682 6.381624 
L 338.688 6.381624 
L 338.688 6.381624 
" style="fill:none;stroke:#f5deb3;stroke-linecap:square;stroke-width:4;"/>
   </g>
   <g id="line2d_2">
    <defs>
     <path d="M 0 7.778175 
L 7.778175 0 
L 0 -7.778175 
L -7.778175 0 
z
" id="m6c0992bfc4" style="stroke:#f5deb3;stroke-linejoin:miter;stroke-width:1.5;"/>
    </defs>
    <g>
     <use style="fill:#f5deb3;stroke:#f5deb3;stroke-linejoin:miter;stroke-width:1.5;" x="63.153604" xlink:href="#m6c0992bfc4" y="273.703324"/>
     <use style="fill:#f5deb3;stroke:#f5deb3;stroke-linejoin:miter;stroke-width:1.5;" x="166.039228" xlink:href="#m6c0992bfc4" y="239.284221"/>
     <use style="fill:#f5deb3;stroke:#f5deb3;stroke-linejoin:miter;stroke-width:1.5;" x="233.223549" xlink:href="#m6c0992bfc4" y="132.585002"/>
     <use style="fill:#f5deb3;stroke:#f5deb3;stroke-linejoin:miter;stroke-width:1.5;" x="292.419798" xlink:href="#m6c0992bfc4" y="35.06421"/>
     <use style="fill:#f5deb3;stroke:#f5deb3;stroke-linejoin:miter;stroke-width:1.5;" x="300.778682" xlink:href="#m6c0992bfc4" y="6.381624"/>
     <use style="fill:#f5deb3;stroke:#f5deb3;stroke-linejoin:miter;stroke-width:1.5;" x="338.688" xlink:href="#m6c0992bfc4" y="6.381624"/>
    </g>
   </g>
   <g id="line2d_3">
    <path style="fill:none;stroke:#f5deb3;stroke-linecap:square;stroke-width:4;"/>
    <g/>
   </g>
   <g id="line2d_4">
    <path d="M 338.688 6.381624 
L 369.60768 12.232871 
" style="fill:none;stroke:#f5deb3;stroke-linecap:square;stroke-width:4;"/>
    <g>
     <use style="fill:#f5deb3;stroke:#f5deb3;stroke-linejoin:miter;stroke-width:1.5;" x="338.688" xlink:href="#m6c0992bfc4" y="6.381624"/>
     <use style="fill:#f5deb3;stroke:#f5deb3;stroke-linejoin:miter;stroke-width:1.5;" x="369.60768" xlink:href="#m6c0992bfc4" y="12.232871"/>
    </g>
   </g>
   <g id="matplotlib.axis_1">
    <g id="xtick_1">
     <g id="line2d_5">
      <path clip-path="url(#p0c401bd6ba)" d="M 57.6 298.944 
L 57.6 3.456 
" style="fill:none;stroke:#b0b0b0;stroke-linecap:square;stroke-width:0.8;"/>
     </g>
     <g id="line2d_6">
      <defs>
       <path d="M 0 0 
L 0 3.5 
" id="mf7f47dec20" style="stroke:#000000;stroke-width:0.8;"/>
      </defs>
      <g>
       <use style="stroke:#000000;stroke-width:0.8;" x="57.6" xlink:href="#mf7f47dec20" y="298.944"/>
      </g>
     </g>
     <g id="text_1">
      <!-- 0 -->
      <g transform="translate(51.2375 321.140875)scale(0.2 -0.2)">
       <defs>
        <path d="M 31.78125 66.40625 
Q 24.171875 66.40625 20.328125 58.90625 
Q 16.5 51.421875 16.5 36.375 
Q 16.5 21.390625 20.328125 13.890625 
Q 24.171875 6.390625 31.78125 6.390625 
Q 39.453125 6.390625 43.28125 13.890625 
Q 47.125 21.390625 47.125 36.375 
Q 47.125 51.421875 43.28125 58.90625 
Q 39.453125 66.40625 31.78125 66.40625 
z
M 31.78125 74.21875 
Q 44.046875 74.21875 50.515625 64.515625 
Q 56.984375 54.828125 56.984375 36.375 
Q 56.984375 17.96875 50.515625 8.265625 
Q 44.046875 -1.421875 31.78125 -1.421875 
Q 19.53125 -1.421875 13.0625 8.265625 
Q 6.59375 17.96875 6.59375 36.375 
Q 6.59375 54.828125 13.0625 64.515625 
Q 19.53125 74.21875 31.78125 74.21875 
z
" id="DejaVuSans-48"/>
       </defs>
       <use xlink:href="#DejaVuSans-48"/>
      </g>
     </g>
    </g>
    <g id="xtick_2">
     <g id="line2d_7">
      <path clip-path="url(#p0c401bd6ba)" d="M 137.910857 298.944 
L 137.910857 3.456 
" style="fill:none;stroke:#b0b0b0;stroke-linecap:square;stroke-width:0.8;"/>
     </g>
     <g id="line2d_8">
      <g>
       <use style="stroke:#000000;stroke-width:0.8;" x="137.910857" xlink:href="#mf7f47dec20" y="298.944"/>
      </g>
     </g>
     <g id="text_2">
      <!-- 2 -->
      <g transform="translate(131.548357 321.140875)scale(0.2 -0.2)">
       <defs>
        <path d="M 19.1875 8.296875 
L 53.609375 8.296875 
L 53.609375 0 
L 7.328125 0 
L 7.328125 8.296875 
Q 12.9375 14.109375 22.625 23.890625 
Q 32.328125 33.6875 34.8125 36.53125 
Q 39.546875 41.84375 41.421875 45.53125 
Q 43.3125 49.21875 43.3125 52.78125 
Q 43.3125 58.59375 39.234375 62.25 
Q 35.15625 65.921875 28.609375 65.921875 
Q 23.96875 65.921875 18.8125 64.3125 
Q 13.671875 62.703125 7.8125 59.421875 
L 7.8125 69.390625 
Q 13.765625 71.78125 18.9375 73 
Q 24.125 74.21875 28.421875 74.21875 
Q 39.75 74.21875 46.484375 68.546875 
Q 53.21875 62.890625 53.21875 53.421875 
Q 53.21875 48.921875 51.53125 44.890625 
Q 49.859375 40.875 45.40625 35.40625 
Q 44.1875 33.984375 37.640625 27.21875 
Q 31.109375 20.453125 19.1875 8.296875 
z
" id="DejaVuSans-50"/>
       </defs>
       <use xlink:href="#DejaVuSans-50"/>
      </g>
     </g>
    </g>
    <g id="xtick_3">
     <g id="line2d_9">
      <path clip-path="url(#p0c401bd6ba)" d="M 218.221714 298.944 
L 218.221714 3.456 
" style="fill:none;stroke:#b0b0b0;stroke-linecap:square;stroke-width:0.8;"/>
     </g>
     <g id="line2d_10">
      <g>
       <use style="stroke:#000000;stroke-width:0.8;" x="218.221714" xlink:href="#mf7f47dec20" y="298.944"/>
      </g>
     </g>
     <g id="text_3">
      <!-- 4 -->
      <g transform="translate(211.859214 321.140875)scale(0.2 -0.2)">
       <defs>
        <path d="M 37.796875 64.3125 
L 12.890625 25.390625 
L 37.796875 25.390625 
z
M 35.203125 72.90625 
L 47.609375 72.90625 
L 47.609375 25.390625 
L 58.015625 25.390625 
L 58.015625 17.1875 
L 47.609375 17.1875 
L 47.609375 0 
L 37.796875 0 
L 37.796875 17.1875 
L 4.890625 17.1875 
L 4.890625 26.703125 
z
" id="DejaVuSans-52"/>
       </defs>
       <use xlink:href="#DejaVuSans-52"/>
      </g>
     </g>
    </g>
    <g id="xtick_4">
     <g id="line2d_11">
      <path clip-path="url(#p0c401bd6ba)" d="M 298.532571 298.944 
L 298.532571 3.456 
" style="fill:none;stroke:#b0b0b0;stroke-linecap:square;stroke-width:0.8;"/>
     </g>
     <g id="line2d_12">
      <g>
       <use style="stroke:#000000;stroke-width:0.8;" x="298.532571" xlink:href="#mf7f47dec20" y="298.944"/>
      </g>
     </g>
     <g id="text_4">
      <!-- 6 -->
      <g transform="translate(292.170071 321.140875)scale(0.2 -0.2)">
       <defs>
        <path d="M 33.015625 40.375 
Q 26.375 40.375 22.484375 35.828125 
Q 18.609375 31.296875 18.609375 23.390625 
Q 18.609375 15.53125 22.484375 10.953125 
Q 26.375 6.390625 33.015625 6.390625 
Q 39.65625 6.390625 43.53125 10.953125 
Q 47.40625 15.53125 47.40625 23.390625 
Q 47.40625 31.296875 43.53125 35.828125 
Q 39.65625 40.375 33.015625 40.375 
z
M 52.59375 71.296875 
L 52.59375 62.3125 
Q 48.875 64.0625 45.09375 64.984375 
Q 41.3125 65.921875 37.59375 65.921875 
Q 27.828125 65.921875 22.671875 59.328125 
Q 17.53125 52.734375 16.796875 39.40625 
Q 19.671875 43.65625 24.015625 45.921875 
Q 28.375 48.1875 33.59375 48.1875 
Q 44.578125 48.1875 50.953125 41.515625 
Q 57.328125 34.859375 57.328125 23.390625 
Q 57.328125 12.15625 50.6875 5.359375 
Q 44.046875 -1.421875 33.015625 -1.421875 
Q 20.359375 -1.421875 13.671875 8.265625 
Q 6.984375 17.96875 6.984375 36.375 
Q 6.984375 53.65625 15.1875 63.9375 
Q 23.390625 74.21875 37.203125 74.21875 
Q 40.921875 74.21875 44.703125 73.484375 
Q 48.484375 72.75 52.59375 71.296875 
z
" id="DejaVuSans-54"/>
       </defs>
       <use xlink:href="#DejaVuSans-54"/>
      </g>
     </g>
    </g>
    <g id="xtick_5">
     <g id="line2d_13">
      <path clip-path="url(#p0c401bd6ba)" d="M 97.755429 298.944 
L 97.755429 3.456 
" style="fill:none;stroke:#b0b0b0;stroke-linecap:square;stroke-width:0.8;"/>
     </g>
     <g id="line2d_14">
      <defs>
       <path d="M 0 0 
L 0 2 
" id="m9113202968" style="stroke:#000000;stroke-width:0.6;"/>
      </defs>
      <g>
       <use style="stroke:#000000;stroke-width:0.6;" x="97.755429" xlink:href="#m9113202968" y="298.944"/>
      </g>
     </g>
    </g>
    <g id="xtick_6">
     <g id="line2d_15">
      <path clip-path="url(#p0c401bd6ba)" d="M 178.066286 298.944 
L 178.066286 3.456 
" style="fill:none;stroke:#b0b0b0;stroke-linecap:square;stroke-width:0.8;"/>
     </g>
     <g id="line2d_16">
      <g>
       <use style="stroke:#000000;stroke-width:0.6;" x="178.066286" xlink:href="#m9113202968" y="298.944"/>
      </g>
     </g>
    </g>
    <g id="xtick_7">
     <g id="line2d_17">
      <path clip-path="url(#p0c401bd6ba)" d="M 258.377143 298.944 
L 258.377143 3.456 
" style="fill:none;stroke:#b0b0b0;stroke-linecap:square;stroke-width:0.8;"/>
     </g>
     <g id="line2d_18">
      <g>
       <use style="stroke:#000000;stroke-width:0.6;" x="258.377143" xlink:href="#m9113202968" y="298.944"/>
      </g>
     </g>
    </g>
    <g id="xtick_8">
     <g id="line2d_19">
      <path clip-path="url(#p0c401bd6ba)" d="M 338.688 298.944 
L 338.688 3.456 
" style="fill:none;stroke:#b0b0b0;stroke-linecap:square;stroke-width:0.8;"/>
     </g>
     <g id="line2d_20">
      <g>
       <use style="stroke:#000000;stroke-width:0.6;" x="338.688" xlink:href="#m9113202968" y="298.944"/>
      </g>
     </g>
    </g>
    <g id="text_5">
     <!-- log10(# f-evals / dimension) -->
     <g transform="translate(77.764078 342.217594)scale(0.17 -0.17)">
      <defs>
       <path d="M 9.421875 75.984375 
L 18.40625 75.984375 
L 18.40625 0 
L 9.421875 0 
z
" id="DejaVuSans-108"/>
       <path d="M 30.609375 48.390625 
Q 23.390625 48.390625 19.1875 42.75 
Q 14.984375 37.109375 14.984375 27.296875 
Q 14.984375 17.484375 19.15625 11.84375 
Q 23.34375 6.203125 30.609375 6.203125 
Q 37.796875 6.203125 41.984375 11.859375 
Q 46.1875 17.53125 46.1875 27.296875 
Q 46.1875 37.015625 41.984375 42.703125 
Q 37.796875 48.390625 30.609375 48.390625 
z
M 30.609375 56 
Q 42.328125 56 49.015625 48.375 
Q 55.71875 40.765625 55.71875 27.296875 
Q 55.71875 13.875 49.015625 6.21875 
Q 42.328125 -1.421875 30.609375 -1.421875 
Q 18.84375 -1.421875 12.171875 6.21875 
Q 5.515625 13.875 5.515625 27.296875 
Q 5.515625 40.765625 12.171875 48.375 
Q 18.84375 56 30.609375 56 
z
" id="DejaVuSans-111"/>
       <path d="M 45.40625 27.984375 
Q 45.40625 37.75 41.375 43.109375 
Q 37.359375 48.484375 30.078125 48.484375 
Q 22.859375 48.484375 18.828125 43.109375 
Q 14.796875 37.75 14.796875 27.984375 
Q 14.796875 18.265625 18.828125 12.890625 
Q 22.859375 7.515625 30.078125 7.515625 
Q 37.359375 7.515625 41.375 12.890625 
Q 45.40625 18.265625 45.40625 27.984375 
z
M 54.390625 6.78125 
Q 54.390625 -7.171875 48.1875 -13.984375 
Q 42 -20.796875 29.203125 -20.796875 
Q 24.46875 -20.796875 20.265625 -20.09375 
Q 16.0625 -19.390625 12.109375 -17.921875 
L 12.109375 -9.1875 
Q 16.0625 -11.328125 19.921875 -12.34375 
Q 23.78125 -13.375 27.78125 -13.375 
Q 36.625 -13.375 41.015625 -8.765625 
Q 45.40625 -4.15625 45.40625 5.171875 
L 45.40625 9.625 
Q 42.625 4.78125 38.28125 2.390625 
Q 33.9375 0 27.875 0 
Q 17.828125 0 11.671875 7.65625 
Q 5.515625 15.328125 5.515625 27.984375 
Q 5.515625 40.671875 11.671875 48.328125 
Q 17.828125 56 27.875 56 
Q 33.9375 56 38.28125 53.609375 
Q 42.625 51.21875 45.40625 46.390625 
L 45.40625 54.6875 
L 54.390625 54.6875 
z
" id="DejaVuSans-103"/>
       <path d="M 12.40625 8.296875 
L 28.515625 8.296875 
L 28.515625 63.921875 
L 10.984375 60.40625 
L 10.984375 69.390625 
L 28.421875 72.90625 
L 38.28125 72.90625 
L 38.28125 8.296875 
L 54.390625 8.296875 
L 54.390625 0 
L 12.40625 0 
z
" id="DejaVuSans-49"/>
       <path d="M 31 75.875 
Q 24.46875 64.65625 21.28125 53.65625 
Q 18.109375 42.671875 18.109375 31.390625 
Q 18.109375 20.125 21.3125 9.0625 
Q 24.515625 -2 31 -13.1875 
L 23.1875 -13.1875 
Q 15.875 -1.703125 12.234375 9.375 
Q 8.59375 20.453125 8.59375 31.390625 
Q 8.59375 42.28125 12.203125 53.3125 
Q 15.828125 64.359375 23.1875 75.875 
z
" id="DejaVuSans-40"/>
       <path d="M 51.125 44 
L 36.921875 44 
L 32.8125 27.6875 
L 47.125 27.6875 
z
M 43.796875 71.78125 
L 38.71875 51.515625 
L 52.984375 51.515625 
L 58.109375 71.78125 
L 65.921875 71.78125 
L 60.890625 51.515625 
L 76.125 51.515625 
L 76.125 44 
L 58.984375 44 
L 54.984375 27.6875 
L 70.515625 27.6875 
L 70.515625 20.21875 
L 53.078125 20.21875 
L 48 0 
L 40.1875 0 
L 45.21875 20.21875 
L 30.90625 20.21875 
L 25.875 0 
L 18.015625 0 
L 23.09375 20.21875 
L 7.71875 20.21875 
L 7.71875 27.6875 
L 24.90625 27.6875 
L 29 44 
L 13.28125 44 
L 13.28125 51.515625 
L 30.90625 51.515625 
L 35.890625 71.78125 
z
" id="DejaVuSans-35"/>
       <path id="DejaVuSans-32"/>
       <path d="M 37.109375 75.984375 
L 37.109375 68.5 
L 28.515625 68.5 
Q 23.6875 68.5 21.796875 66.546875 
Q 19.921875 64.59375 19.921875 59.515625 
L 19.921875 54.6875 
L 34.71875 54.6875 
L 34.71875 47.703125 
L 19.921875 47.703125 
L 19.921875 0 
L 10.890625 0 
L 10.890625 47.703125 
L 2.296875 47.703125 
L 2.296875 54.6875 
L 10.890625 54.6875 
L 10.890625 58.5 
Q 10.890625 67.625 15.140625 71.796875 
Q 19.390625 75.984375 28.609375 75.984375 
z
" id="DejaVuSans-102"/>
       <path d="M 4.890625 31.390625 
L 31.203125 31.390625 
L 31.203125 23.390625 
L 4.890625 23.390625 
z
" id="DejaVuSans-45"/>
       <path d="M 56.203125 29.59375 
L 56.203125 25.203125 
L 14.890625 25.203125 
Q 15.484375 15.921875 20.484375 11.0625 
Q 25.484375 6.203125 34.421875 6.203125 
Q 39.59375 6.203125 44.453125 7.46875 
Q 49.3125 8.734375 54.109375 11.28125 
L 54.109375 2.78125 
Q 49.265625 0.734375 44.1875 -0.34375 
Q 39.109375 -1.421875 33.890625 -1.421875 
Q 20.796875 -1.421875 13.15625 6.1875 
Q 5.515625 13.8125 5.515625 26.8125 
Q 5.515625 40.234375 12.765625 48.109375 
Q 20.015625 56 32.328125 56 
Q 43.359375 56 49.78125 48.890625 
Q 56.203125 41.796875 56.203125 29.59375 
z
M 47.21875 32.234375 
Q 47.125 39.59375 43.09375 43.984375 
Q 39.0625 48.390625 32.421875 48.390625 
Q 24.90625 48.390625 20.390625 44.140625 
Q 15.875 39.890625 15.1875 32.171875 
z
" id="DejaVuSans-101"/>
       <path d="M 2.984375 54.6875 
L 12.5 54.6875 
L 29.59375 8.796875 
L 46.6875 54.6875 
L 56.203125 54.6875 
L 35.6875 0 
L 23.484375 0 
z
" id="DejaVuSans-118"/>
       <path d="M 34.28125 27.484375 
Q 23.390625 27.484375 19.1875 25 
Q 14.984375 22.515625 14.984375 16.5 
Q 14.984375 11.71875 18.140625 8.90625 
Q 21.296875 6.109375 26.703125 6.109375 
Q 34.1875 6.109375 38.703125 11.40625 
Q 43.21875 16.703125 43.21875 25.484375 
L 43.21875 27.484375 
z
M 52.203125 31.203125 
L 52.203125 0 
L 43.21875 0 
L 43.21875 8.296875 
Q 40.140625 3.328125 35.546875 0.953125 
Q 30.953125 -1.421875 24.3125 -1.421875 
Q 15.921875 -1.421875 10.953125 3.296875 
Q 6 8.015625 6 15.921875 
Q 6 25.140625 12.171875 29.828125 
Q 18.359375 34.515625 30.609375 34.515625 
L 43.21875 34.515625 
L 43.21875 35.40625 
Q 43.21875 41.609375 39.140625 45 
Q 35.0625 48.390625 27.6875 48.390625 
Q 23 48.390625 18.546875 47.265625 
Q 14.109375 46.140625 10.015625 43.890625 
L 10.015625 52.203125 
Q 14.9375 54.109375 19.578125 55.046875 
Q 24.21875 56 28.609375 56 
Q 40.484375 56 46.34375 49.84375 
Q 52.203125 43.703125 52.203125 31.203125 
z
" id="DejaVuSans-97"/>
       <path d="M 44.28125 53.078125 
L 44.28125 44.578125 
Q 40.484375 46.53125 36.375 47.5 
Q 32.28125 48.484375 27.875 48.484375 
Q 21.1875 48.484375 17.84375 46.4375 
Q 14.5 44.390625 14.5 40.28125 
Q 14.5 37.15625 16.890625 35.375 
Q 19.28125 33.59375 26.515625 31.984375 
L 29.59375 31.296875 
Q 39.15625 29.25 43.1875 25.515625 
Q 47.21875 21.78125 47.21875 15.09375 
Q 47.21875 7.46875 41.1875 3.015625 
Q 35.15625 -1.421875 24.609375 -1.421875 
Q 20.21875 -1.421875 15.453125 -0.5625 
Q 10.6875 0.296875 5.421875 2 
L 5.421875 11.28125 
Q 10.40625 8.6875 15.234375 7.390625 
Q 20.0625 6.109375 24.8125 6.109375 
Q 31.15625 6.109375 34.5625 8.28125 
Q 37.984375 10.453125 37.984375 14.40625 
Q 37.984375 18.0625 35.515625 20.015625 
Q 33.0625 21.96875 24.703125 23.78125 
L 21.578125 24.515625 
Q 13.234375 26.265625 9.515625 29.90625 
Q 5.8125 33.546875 5.8125 39.890625 
Q 5.8125 47.609375 11.28125 51.796875 
Q 16.75 56 26.8125 56 
Q 31.78125 56 36.171875 55.265625 
Q 40.578125 54.546875 44.28125 53.078125 
z
" id="DejaVuSans-115"/>
       <path d="M 25.390625 72.90625 
L 33.6875 72.90625 
L 8.296875 -9.28125 
L 0 -9.28125 
z
" id="DejaVuSans-47"/>
       <path d="M 45.40625 46.390625 
L 45.40625 75.984375 
L 54.390625 75.984375 
L 54.390625 0 
L 45.40625 0 
L 45.40625 8.203125 
Q 42.578125 3.328125 38.25 0.953125 
Q 33.9375 -1.421875 27.875 -1.421875 
Q 17.96875 -1.421875 11.734375 6.484375 
Q 5.515625 14.40625 5.515625 27.296875 
Q 5.515625 40.1875 11.734375 48.09375 
Q 17.96875 56 27.875 56 
Q 33.9375 56 38.25 53.625 
Q 42.578125 51.265625 45.40625 46.390625 
z
M 14.796875 27.296875 
Q 14.796875 17.390625 18.875 11.75 
Q 22.953125 6.109375 30.078125 6.109375 
Q 37.203125 6.109375 41.296875 11.75 
Q 45.40625 17.390625 45.40625 27.296875 
Q 45.40625 37.203125 41.296875 42.84375 
Q 37.203125 48.484375 30.078125 48.484375 
Q 22.953125 48.484375 18.875 42.84375 
Q 14.796875 37.203125 14.796875 27.296875 
z
" id="DejaVuSans-100"/>
       <path d="M 9.421875 54.6875 
L 18.40625 54.6875 
L 18.40625 0 
L 9.421875 0 
z
M 9.421875 75.984375 
L 18.40625 75.984375 
L 18.40625 64.59375 
L 9.421875 64.59375 
z
" id="DejaVuSans-105"/>
       <path d="M 52 44.1875 
Q 55.375 50.25 60.0625 53.125 
Q 64.75 56 71.09375 56 
Q 79.640625 56 84.28125 50.015625 
Q 88.921875 44.046875 88.921875 33.015625 
L 88.921875 0 
L 79.890625 0 
L 79.890625 32.71875 
Q 79.890625 40.578125 77.09375 44.375 
Q 74.3125 48.1875 68.609375 48.1875 
Q 61.625 48.1875 57.5625 43.546875 
Q 53.515625 38.921875 53.515625 30.90625 
L 53.515625 0 
L 44.484375 0 
L 44.484375 32.71875 
Q 44.484375 40.625 41.703125 44.40625 
Q 38.921875 48.1875 33.109375 48.1875 
Q 26.21875 48.1875 22.15625 43.53125 
Q 18.109375 38.875 18.109375 30.90625 
L 18.109375 0 
L 9.078125 0 
L 9.078125 54.6875 
L 18.109375 54.6875 
L 18.109375 46.1875 
Q 21.1875 51.21875 25.484375 53.609375 
Q 29.78125 56 35.6875 56 
Q 41.65625 56 45.828125 52.96875 
Q 50 49.953125 52 44.1875 
z
" id="DejaVuSans-109"/>
       <path d="M 54.890625 33.015625 
L 54.890625 0 
L 45.90625 0 
L 45.90625 32.71875 
Q 45.90625 40.484375 42.875 44.328125 
Q 39.84375 48.1875 33.796875 48.1875 
Q 26.515625 48.1875 22.3125 43.546875 
Q 18.109375 38.921875 18.109375 30.90625 
L 18.109375 0 
L 9.078125 0 
L 9.078125 54.6875 
L 18.109375 54.6875 
L 18.109375 46.1875 
Q 21.34375 51.125 25.703125 53.5625 
Q 30.078125 56 35.796875 56 
Q 45.21875 56 50.046875 50.171875 
Q 54.890625 44.34375 54.890625 33.015625 
z
" id="DejaVuSans-110"/>
       <path d="M 8.015625 75.875 
L 15.828125 75.875 
Q 23.140625 64.359375 26.78125 53.3125 
Q 30.421875 42.28125 30.421875 31.390625 
Q 30.421875 20.453125 26.78125 9.375 
Q 23.140625 -1.703125 15.828125 -13.1875 
L 8.015625 -13.1875 
Q 14.5 -2 17.703125 9.0625 
Q 20.90625 20.125 20.90625 31.390625 
Q 20.90625 42.671875 17.703125 53.65625 
Q 14.5 64.65625 8.015625 75.875 
z
" id="DejaVuSans-41"/>
      </defs>
      <use xlink:href="#DejaVuSans-108"/>
      <use x="27.783203" xlink:href="#DejaVuSans-111"/>
      <use x="88.964844" xlink:href="#DejaVuSans-103"/>
      <use x="152.441406" xlink:href="#DejaVuSans-49"/>
      <use x="216.064453" xlink:href="#DejaVuSans-48"/>
      <use x="279.6875" xlink:href="#DejaVuSans-40"/>
      <use x="318.701172" xlink:href="#DejaVuSans-35"/>
      <use x="402.490234" xlink:href="#DejaVuSans-32"/>
      <use x="434.277344" xlink:href="#DejaVuSans-102"/>
      <use x="463.982422" xlink:href="#DejaVuSans-45"/>
      <use x="500.066406" xlink:href="#DejaVuSans-101"/>
      <use x="561.589844" xlink:href="#DejaVuSans-118"/>
      <use x="620.769531" xlink:href="#DejaVuSans-97"/>
      <use x="682.048828" xlink:href="#DejaVuSans-108"/>
      <use x="709.832031" xlink:href="#DejaVuSans-115"/>
      <use x="761.931641" xlink:href="#DejaVuSans-32"/>
      <use x="793.71875" xlink:href="#DejaVuSans-47"/>
      <use x="827.410156" xlink:href="#DejaVuSans-32"/>
      <use x="859.197266" xlink:href="#DejaVuSans-100"/>
      <use x="922.673828" xlink:href="#DejaVuSans-105"/>
      <use x="950.457031" xlink:href="#DejaVuSans-109"/>
      <use x="1047.869141" xlink:href="#DejaVuSans-101"/>
      <use x="1109.392578" xlink:href="#DejaVuSans-110"/>
      <use x="1172.771484" xlink:href="#DejaVuSans-115"/>
      <use x="1224.871094" xlink:href="#DejaVuSans-105"/>
      <use x="1252.654297" xlink:href="#DejaVuSans-111"/>
      <use x="1313.835938" xlink:href="#DejaVuSans-110"/>
      <use x="1377.214844" xlink:href="#DejaVuSans-41"/>
     </g>
    </g>
   </g>
   <g id="matplotlib.axis_2">
    <g id="ytick_1">
     <g id="line2d_21">
      <path clip-path="url(#p0c401bd6ba)" d="M 57.6 298.944 
L 338.688 298.944 
" style="fill:none;stroke:#b0b0b0;stroke-linecap:square;stroke-width:0.8;"/>
     </g>
     <g id="line2d_22">
      <defs>
       <path d="M 0 0 
L -3.5 0 
" id="madd80cb63c" style="stroke:#000000;stroke-width:0.8;"/>
      </defs>
      <g>
       <use style="stroke:#000000;stroke-width:0.8;" x="57.6" xlink:href="#madd80cb63c" y="298.944"/>
      </g>
     </g>
     <g id="text_6">
      <!-- 0.0 -->
      <g transform="translate(25.155 305.02275)scale(0.16 -0.16)">
       <defs>
        <path d="M 10.6875 12.40625 
L 21 12.40625 
L 21 0 
L 10.6875 0 
z
" id="DejaVuSans-46"/>
       </defs>
       <use xlink:href="#DejaVuSans-48"/>
       <use x="63.623047" xlink:href="#DejaVuSans-46"/>
       <use x="95.410156" xlink:href="#DejaVuSans-48"/>
      </g>
     </g>
    </g>
    <g id="ytick_2">
     <g id="line2d_23">
      <path clip-path="url(#p0c401bd6ba)" d="M 57.6 240.431525 
L 338.688 240.431525 
" style="fill:none;stroke:#b0b0b0;stroke-linecap:square;stroke-width:0.8;"/>
     </g>
     <g id="line2d_24">
      <g>
       <use style="stroke:#000000;stroke-width:0.8;" x="57.6" xlink:href="#madd80cb63c" y="240.431525"/>
      </g>
     </g>
     <g id="text_7">
      <!-- 0.2 -->
      <g transform="translate(25.155 246.510275)scale(0.16 -0.16)">
       <use xlink:href="#DejaVuSans-48"/>
       <use x="63.623047" xlink:href="#DejaVuSans-46"/>
       <use x="95.410156" xlink:href="#DejaVuSans-50"/>
      </g>
     </g>
    </g>
    <g id="ytick_3">
     <g id="line2d_25">
      <path clip-path="url(#p0c401bd6ba)" d="M 57.6 181.91905 
L 338.688 181.91905 
" style="fill:none;stroke:#b0b0b0;stroke-linecap:square;stroke-width:0.8;"/>
     </g>
     <g id="line2d_26">
      <g>
       <use style="stroke:#000000;stroke-width:0.8;" x="57.6" xlink:href="#madd80cb63c" y="181.91905"/>
      </g>
     </g>
     <g id="text_8">
      <!-- 0.4 -->
      <g transform="translate(25.155 187.9978)scale(0.16 -0.16)">
       <use xlink:href="#DejaVuSans-48"/>
       <use x="63.623047" xlink:href="#DejaVuSans-46"/>
       <use x="95.410156" xlink:href="#DejaVuSans-52"/>
      </g>
     </g>
    </g>
    <g id="ytick_4">
     <g id="line2d_27">
      <path clip-path="url(#p0c401bd6ba)" d="M 57.6 123.406574 
L 338.688 123.406574 
" style="fill:none;stroke:#b0b0b0;stroke-linecap:square;stroke-width:0.8;"/>
     </g>
     <g id="line2d_28">
      <g>
       <use style="stroke:#000000;stroke-width:0.8;" x="57.6" xlink:href="#madd80cb63c" y="123.406574"/>
      </g>
     </g>
     <g id="text_9">
      <!-- 0.6 -->
      <g transform="translate(25.155 129.485324)scale(0.16 -0.16)">
       <use xlink:href="#DejaVuSans-48"/>
       <use x="63.623047" xlink:href="#DejaVuSans-46"/>
       <use x="95.410156" xlink:href="#DejaVuSans-54"/>
      </g>
     </g>
    </g>
    <g id="ytick_5">
     <g id="line2d_29">
      <path clip-path="url(#p0c401bd6ba)" d="M 57.6 64.894099 
L 338.688 64.894099 
" style="fill:none;stroke:#b0b0b0;stroke-linecap:square;stroke-width:0.8;"/>
     </g>
     <g id="line2d_30">
      <g>
       <use style="stroke:#000000;stroke-width:0.8;" x="57.6" xlink:href="#madd80cb63c" y="64.894099"/>
      </g>
     </g>
     <g id="text_10">
      <!-- 0.8 -->
      <g transform="translate(25.155 70.972849)scale(0.16 -0.16)">
       <defs>
        <path d="M 31.78125 34.625 
Q 24.75 34.625 20.71875 30.859375 
Q 16.703125 27.09375 16.703125 20.515625 
Q 16.703125 13.921875 20.71875 10.15625 
Q 24.75 6.390625 31.78125 6.390625 
Q 38.8125 6.390625 42.859375 10.171875 
Q 46.921875 13.96875 46.921875 20.515625 
Q 46.921875 27.09375 42.890625 30.859375 
Q 38.875 34.625 31.78125 34.625 
z
M 21.921875 38.8125 
Q 15.578125 40.375 12.03125 44.71875 
Q 8.5 49.078125 8.5 55.328125 
Q 8.5 64.0625 14.71875 69.140625 
Q 20.953125 74.21875 31.78125 74.21875 
Q 42.671875 74.21875 48.875 69.140625 
Q 55.078125 64.0625 55.078125 55.328125 
Q 55.078125 49.078125 51.53125 44.71875 
Q 48 40.375 41.703125 38.8125 
Q 48.828125 37.15625 52.796875 32.3125 
Q 56.78125 27.484375 56.78125 20.515625 
Q 56.78125 9.90625 50.3125 4.234375 
Q 43.84375 -1.421875 31.78125 -1.421875 
Q 19.734375 -1.421875 13.25 4.234375 
Q 6.78125 9.90625 6.78125 20.515625 
Q 6.78125 27.484375 10.78125 32.3125 
Q 14.796875 37.15625 21.921875 38.8125 
z
M 18.3125 54.390625 
Q 18.3125 48.734375 21.84375 45.5625 
Q 25.390625 42.390625 31.78125 42.390625 
Q 38.140625 42.390625 41.71875 45.5625 
Q 45.3125 48.734375 45.3125 54.390625 
Q 45.3125 60.0625 41.71875 63.234375 
Q 38.140625 66.40625 31.78125 66.40625 
Q 25.390625 66.40625 21.84375 63.234375 
Q 18.3125 60.0625 18.3125 54.390625 
z
" id="DejaVuSans-56"/>
       </defs>
       <use xlink:href="#DejaVuSans-48"/>
       <use x="63.623047" xlink:href="#DejaVuSans-46"/>
       <use x="95.410156" xlink:href="#DejaVuSans-56"/>
      </g>
     </g>
    </g>
    <g id="ytick_6">
     <g id="line2d_31">
      <path clip-path="url(#p0c401bd6ba)" d="M 57.6 6.381624 
L 338.688 6.381624 
" style="fill:none;stroke:#b0b0b0;stroke-linecap:square;stroke-width:0.8;"/>
     </g>
     <g id="line2d_32">
      <g>
       <use style="stroke:#000000;stroke-width:0.8;" x="57.6" xlink:href="#madd80cb63c" y="6.381624"/>
      </g>
     </g>
     <g id="text_11">
      <!-- 1.0 -->
      <g transform="translate(25.155 12.460374)scale(0.16 -0.16)">
       <use xlink:href="#DejaVuSans-49"/>
       <use x="63.623047" xlink:href="#DejaVuSans-46"/>
       <use x="95.410156" xlink:href="#DejaVuSans-48"/>
      </g>
     </g>
    </g>
    <g id="text_12">
     <!-- Fraction of function,target pairs -->
     <g transform="translate(17.619531 285.585)rotate(-90)scale(0.17 -0.17)">
      <defs>
       <path d="M 9.8125 72.90625 
L 51.703125 72.90625 
L 51.703125 64.59375 
L 19.671875 64.59375 
L 19.671875 43.109375 
L 48.578125 43.109375 
L 48.578125 34.8125 
L 19.671875 34.8125 
L 19.671875 0 
L 9.8125 0 
z
" id="DejaVuSans-70"/>
       <path d="M 41.109375 46.296875 
Q 39.59375 47.171875 37.8125 47.578125 
Q 36.03125 48 33.890625 48 
Q 26.265625 48 22.1875 43.046875 
Q 18.109375 38.09375 18.109375 28.8125 
L 18.109375 0 
L 9.078125 0 
L 9.078125 54.6875 
L 18.109375 54.6875 
L 18.109375 46.1875 
Q 20.953125 51.171875 25.484375 53.578125 
Q 30.03125 56 36.53125 56 
Q 37.453125 56 38.578125 55.875 
Q 39.703125 55.765625 41.0625 55.515625 
z
" id="DejaVuSans-114"/>
       <path d="M 48.78125 52.59375 
L 48.78125 44.1875 
Q 44.96875 46.296875 41.140625 47.34375 
Q 37.3125 48.390625 33.40625 48.390625 
Q 24.65625 48.390625 19.8125 42.84375 
Q 14.984375 37.3125 14.984375 27.296875 
Q 14.984375 17.28125 19.8125 11.734375 
Q 24.65625 6.203125 33.40625 6.203125 
Q 37.3125 6.203125 41.140625 7.25 
Q 44.96875 8.296875 48.78125 10.40625 
L 48.78125 2.09375 
Q 45.015625 0.34375 40.984375 -0.53125 
Q 36.96875 -1.421875 32.421875 -1.421875 
Q 20.0625 -1.421875 12.78125 6.34375 
Q 5.515625 14.109375 5.515625 27.296875 
Q 5.515625 40.671875 12.859375 48.328125 
Q 20.21875 56 33.015625 56 
Q 37.15625 56 41.109375 55.140625 
Q 45.0625 54.296875 48.78125 52.59375 
z
" id="DejaVuSans-99"/>
       <path d="M 18.3125 70.21875 
L 18.3125 54.6875 
L 36.8125 54.6875 
L 36.8125 47.703125 
L 18.3125 47.703125 
L 18.3125 18.015625 
Q 18.3125 11.328125 20.140625 9.421875 
Q 21.96875 7.515625 27.59375 7.515625 
L 36.8125 7.515625 
L 36.8125 0 
L 27.59375 0 
Q 17.1875 0 13.234375 3.875 
Q 9.28125 7.765625 9.28125 18.015625 
L 9.28125 47.703125 
L 2.6875 47.703125 
L 2.6875 54.6875 
L 9.28125 54.6875 
L 9.28125 70.21875 
z
" id="DejaVuSans-116"/>
       <path d="M 8.5 21.578125 
L 8.5 54.6875 
L 17.484375 54.6875 
L 17.484375 21.921875 
Q 17.484375 14.15625 20.5 10.265625 
Q 23.53125 6.390625 29.59375 6.390625 
Q 36.859375 6.390625 41.078125 11.03125 
Q 45.3125 15.671875 45.3125 23.6875 
L 45.3125 54.6875 
L 54.296875 54.6875 
L 54.296875 0 
L 45.3125 0 
L 45.3125 8.40625 
Q 42.046875 3.421875 37.71875 1 
Q 33.40625 -1.421875 27.6875 -1.421875 
Q 18.265625 -1.421875 13.375 4.4375 
Q 8.5 10.296875 8.5 21.578125 
z
M 31.109375 56 
z
" id="DejaVuSans-117"/>
       <path d="M 11.71875 12.40625 
L 22.015625 12.40625 
L 22.015625 4 
L 14.015625 -11.625 
L 7.71875 -11.625 
L 11.71875 4 
z
" id="DejaVuSans-44"/>
       <path d="M 18.109375 8.203125 
L 18.109375 -20.796875 
L 9.078125 -20.796875 
L 9.078125 54.6875 
L 18.109375 54.6875 
L 18.109375 46.390625 
Q 20.953125 51.265625 25.265625 53.625 
Q 29.59375 56 35.59375 56 
Q 45.5625 56 51.78125 48.09375 
Q 58.015625 40.1875 58.015625 27.296875 
Q 58.015625 14.40625 51.78125 6.484375 
Q 45.5625 -1.421875 35.59375 -1.421875 
Q 29.59375 -1.421875 25.265625 0.953125 
Q 20.953125 3.328125 18.109375 8.203125 
z
M 48.6875 27.296875 
Q 48.6875 37.203125 44.609375 42.84375 
Q 40.53125 48.484375 33.40625 48.484375 
Q 26.265625 48.484375 22.1875 42.84375 
Q 18.109375 37.203125 18.109375 27.296875 
Q 18.109375 17.390625 22.1875 11.75 
Q 26.265625 6.109375 33.40625 6.109375 
Q 40.53125 6.109375 44.609375 11.75 
Q 48.6875 17.390625 48.6875 27.296875 
z
" id="DejaVuSans-112"/>
      </defs>
      <use xlink:href="#DejaVuSans-70"/>
      <use x="50.269531" xlink:href="#DejaVuSans-114"/>
      <use x="91.382812" xlink:href="#DejaVuSans-97"/>
      <use x="152.662109" xlink:href="#DejaVuSans-99"/>
      <use x="207.642578" xlink:href="#DejaVuSans-116"/>
      <use x="246.851562" xlink:href="#DejaVuSans-105"/>
      <use x="274.634766" xlink:href="#DejaVuSans-111"/>
      <use x="335.816406" xlink:href="#DejaVuSans-110"/>
      <use x="399.195312" xlink:href="#DejaVuSans-32"/>
      <use x="430.982422" xlink:href="#DejaVuSans-111"/>
      <use x="492.164062" xlink:href="#DejaVuSans-102"/>
      <use x="527.369141" xlink:href="#DejaVuSans-32"/>
      <use x="559.15625" xlink:href="#DejaVuSans-102"/>
      <use x="594.361328" xlink:href="#DejaVuSans-117"/>
      <use x="657.740234" xlink:href="#DejaVuSans-110"/>
      <use x="721.119141" xlink:href="#DejaVuSans-99"/>
      <use x="776.099609" xlink:href="#DejaVuSans-116"/>
      <use x="815.308594" xlink:href="#DejaVuSans-105"/>
      <use x="843.091797" xlink:href="#DejaVuSans-111"/>
      <use x="904.273438" xlink:href="#DejaVuSans-110"/>
      <use x="967.652344" xlink:href="#DejaVuSans-44"/>
      <use x="999.439453" xlink:href="#DejaVuSans-116"/>
      <use x="1038.648438" xlink:href="#DejaVuSans-97"/>
      <use x="1099.927734" xlink:href="#DejaVuSans-114"/>
      <use x="1139.291016" xlink:href="#DejaVuSans-103"/>
      <use x="1202.767578" xlink:href="#DejaVuSans-101"/>
      <use x="1264.291016" xlink:href="#DejaVuSans-116"/>
      <use x="1303.5" xlink:href="#DejaVuSans-32"/>
      <use x="1335.287109" xlink:href="#DejaVuSans-112"/>
      <use x="1398.763672" xlink:href="#DejaVuSans-97"/>
      <use x="1460.042969" xlink:href="#DejaVuSans-105"/>
      <use x="1487.826172" xlink:href="#DejaVuSans-114"/>
      <use x="1528.939453" xlink:href="#DejaVuSans-115"/>
     </g>
    </g>
   </g>
   <g id="line2d_33">
    <defs>
     <path d="M 0 1.5 
C 0.397805 1.5 0.77937 1.341951 1.06066 1.06066 
C 1.341951 0.77937 1.5 0.397805 1.5 0 
C 1.5 -0.397805 1.341951 -0.77937 1.06066 -1.06066 
C 0.77937 -1.341951 0.397805 -1.5 0 -1.5 
C -0.397805 -1.5 -0.77937 -1.341951 -1.06066 -1.06066 
C -1.341951 -0.77937 -1.5 -0.397805 -1.5 0 
C -1.5 0.397805 -1.341951 0.77937 -1.06066 1.06066 
C -0.77937 1.341951 -0.397805 1.5 0 1.5 
z
" id="m0f97b8f870" style="stroke:#f5deb3;"/>
    </defs>
    <g>
     <use style="fill:#f5deb3;stroke:#f5deb3;" x="300.778682" xlink:href="#m0f97b8f870" y="6.381624"/>
     <use style="fill:#f5deb3;stroke:#f5deb3;" x="300.778682" xlink:href="#m0f97b8f870" y="6.381624"/>
    </g>
   </g>
   <g id="line2d_34">
    <defs>
     <path d="M 0 1.5 
C 0.397805 1.5 0.77937 1.341951 1.06066 1.06066 
C 1.341951 0.77937 1.5 0.397805 1.5 0 
C 1.5 -0.397805 1.341951 -0.77937 1.06066 -1.06066 
C 0.77937 -1.341951 0.397805 -1.5 0 -1.5 
C -0.397805 -1.5 -0.77937 -1.341951 -1.06066 -1.06066 
C -1.341951 -0.77937 -1.5 -0.397805 -1.5 0 
C -1.5 0.397805 -1.341951 0.77937 -1.06066 1.06066 
C -0.77937 1.341951 -0.397805 1.5 0 1.5 
z
" id="m57ef2effe6" style="stroke:#000080;"/>
    </defs>
    <g>
     <use style="fill:#000080;stroke:#000080;" x="232.271704" xlink:href="#m57ef2effe6" y="272.556021"/>
     <use style="fill:#000080;stroke:#000080;" x="232.271704" xlink:href="#m57ef2effe6" y="272.556021"/>
    </g>
   </g>
   <g id="line2d_35">
    <path d="M -1 293.666404 
L 5.356583 293.666404 
L 5.356583 292.633831 
L 12.427603 292.633831 
L 12.427603 291.486528 
L 17.444571 291.486528 
L 17.444571 291.257067 
L 21.336035 291.257067 
L 21.336035 290.912876 
L 24.515591 290.912876 
L 24.515591 290.798146 
L 27.203868 290.798146 
L 27.203868 290.683415 
L 29.53256 290.683415 
L 29.53256 290.339224 
L 33.424023 290.339224 
L 33.424023 290.109764 
L 36.60358 290.109764 
L 36.60358 289.995033 
L 40.495043 289.995033 
L 40.495043 289.650842 
L 41.620548 289.650842 
L 41.620548 289.421381 
L 42.677798 289.421381 
L 42.677798 289.306651 
L 43.6746 289.306651 
L 43.6746 289.191921 
L 44.617493 289.191921 
L 44.617493 289.07719 
L 45.512012 289.07719 
L 45.512012 288.732999 
L 46.362877 288.732999 
L 46.362877 288.618269 
L 47.174153 288.618269 
L 47.174153 288.503539 
L 47.949359 288.503539 
L 47.949359 288.388808 
L 50.74562 288.388808 
L 50.74562 288.274078 
L 51.991813 288.274078 
L 51.991813 288.159348 
L 57.158476 288.159348 
L 57.158476 288.044617 
L 58.030621 288.044617 
L 58.030621 287.929887 
L 58.450865 287.929887 
L 58.450865 287.815157 
L 58.86122 287.815157 
L 58.86122 287.700426 
L 59.262141 287.700426 
L 59.262141 287.470966 
L 59.654051 287.470966 
L 59.654051 287.356235 
L 60.037348 287.356235 
L 60.037348 287.241505 
L 60.412401 287.241505 
L 60.412401 287.126775 
L 60.779557 287.126775 
L 60.779557 287.012044 
L 61.836807 287.012044 
L 61.836807 286.897314 
L 62.175444 286.897314 
L 62.175444 286.782584 
L 62.507631 286.782584 
L 62.507631 286.667853 
L 63.776502 286.667853 
L 63.776502 286.553123 
L 64.079801 286.553123 
L 64.079801 286.438393 
L 64.67102 286.438393 
L 64.67102 286.208932 
L 64.959279 286.208932 
L 64.959279 286.094202 
L 65.521885 286.094202 
L 65.521885 285.979471 
L 67.108368 285.979471 
L 67.108368 285.864741 
L 68.091122 285.864741 
L 68.091122 285.75001 
L 69.021438 285.75001 
L 69.021438 285.63528 
L 69.246464 285.63528 
L 69.246464 285.52055 
L 76.903734 285.52055 
L 76.903734 285.176359 
L 77.047268 285.176359 
L 77.047268 285.061628 
L 77.18963 285.061628 
L 77.18963 284.946898 
L 77.330839 284.946898 
L 77.330839 284.832168 
L 77.470915 284.832168 
L 77.470915 284.602707 
L 77.609874 284.602707 
L 77.609874 284.373246 
L 77.747734 284.373246 
L 77.747734 284.258516 
L 77.884514 284.258516 
L 77.884514 284.029055 
L 79.196356 284.029055 
L 79.196356 283.914325 
L 81.556612 283.914325 
L 81.556612 283.799595 
L 84.772922 283.799595 
L 84.772922 283.684864 
L 85.840967 283.684864 
L 85.840967 283.455404 
L 86.182924 283.455404 
L 86.182924 283.225943 
L 86.435063 283.225943 
L 86.518305 282.996482 
L 87.170317 282.996482 
L 87.170317 282.881752 
L 90.242884 282.881752 
L 90.242884 282.767022 
L 90.442955 282.767022 
L 90.442955 282.652291 
L 91.905025 282.652291 
L 91.905025 282.537561 
L 93.083804 282.537561 
L 93.083804 282.422831 
L 93.197415 282.422831 
L 93.197415 282.3081 
L 93.478247 282.3081 
L 93.478247 282.19337 
L 94.294587 282.19337 
L 94.294587 282.078639 
L 95.125186 282.078639 
L 95.125186 281.963909 
L 97.536064 281.963909 
L 97.536064 281.849179 
L 98.564722 281.849179 
L 98.564722 281.734448 
L 99.137896 281.734448 
L 99.137896 281.619718 
L 101.258944 281.619718 
L 101.258944 281.504988 
L 101.681735 281.504988 
L 101.681735 281.390257 
L 102.162376 281.390257 
L 102.263669 281.160797 
L 105.897371 281.160797 
L 105.897371 281.046066 
L 106.8805 281.046066 
L 106.8805 280.931336 
L 108.389302 280.931336 
L 108.389302 280.816606 
L 108.601261 280.816606 
L 108.601261 280.701875 
L 110.316522 280.701875 
L 110.316522 280.587145 
L 111.165366 280.587145 
L 111.165366 280.472415 
L 114.402085 280.472415 
L 114.402085 280.357684 
L 114.668593 280.357684 
L 114.668593 280.242954 
L 115.189693 280.242954 
L 115.189693 280.128224 
L 115.38116 280.128224 
L 115.38116 280.013493 
L 116.004615 280.013493 
L 116.004615 279.898763 
L 116.323218 279.898763 
L 116.323218 279.784033 
L 116.547281 279.784033 
L 116.547281 279.669302 
L 118.039942 279.669302 
L 118.039942 279.554572 
L 118.443959 279.554572 
L 118.443959 279.439842 
L 120.214681 279.439842 
L 120.214681 279.325111 
L 122.255364 279.325111 
L 122.298108 279.095651 
L 122.552391 279.095651 
L 122.552391 278.98092 
L 126.896524 278.98092 
L 126.896524 278.86619 
L 130.223042 278.86619 
L 130.223042 278.75146 
L 132.765529 278.75146 
L 132.765529 278.636729 
L 133.176429 278.636729 
L 133.176429 278.521999 
L 133.728137 278.521999 
L 133.744754 278.292538 
L 135.020131 278.292538 
L 135.020131 278.177808 
L 137.094183 278.177808 
L 137.094183 278.063077 
L 139.60072 278.063077 
L 139.60072 277.948347 
L 142.871056 277.948347 
L 142.930005 277.718886 
L 143.276375 277.718886 
L 143.276375 277.604156 
L 144.117927 277.604156 
L 144.117927 277.489426 
L 144.83301 277.489426 
L 144.83301 277.374695 
L 146.172658 277.374695 
L 146.175372 277.145235 
L 146.591092 277.145235 
L 146.591092 277.030504 
L 154.173993 277.030504 
L 154.173993 276.915774 
L 155.274387 276.915774 
L 155.274387 276.801044 
L 156.732368 276.801044 
L 156.732368 276.686313 
L 157.338101 276.686313 
L 157.338101 276.571583 
L 158.222599 276.571583 
L 158.222599 276.456853 
L 159.154893 276.456853 
L 159.154893 276.342122 
L 160.274836 276.342122 
L 160.274836 276.227392 
L 161.013568 276.227392 
L 161.019363 275.997931 
L 162.72359 275.997931 
L 162.72359 275.883201 
L 164.610218 275.883201 
L 164.610218 275.768471 
L 165.751867 275.768471 
L 165.751867 275.65374 
L 165.980913 275.65374 
L 165.980913 275.53901 
L 166.141461 275.53901 
L 166.144916 275.309549 
L 169.395294 275.309549 
L 169.47896 275.080089 
L 173.420857 275.080089 
L 173.420857 274.965358 
L 173.963734 274.965358 
L 173.963734 274.850628 
L 176.190077 274.850628 
L 176.190077 274.735897 
L 179.217658 274.735897 
L 179.217658 274.621167 
L 180.481631 274.621167 
L 180.481631 274.506437 
L 182.336912 274.506437 
L 182.336912 274.391706 
L 186.363342 274.391706 
L 186.363342 274.276976 
L 188.014642 274.276976 
L 188.014642 274.047515 
L 194.229448 274.047515 
L 194.229448 273.932785 
L 196.381185 273.932785 
L 196.381185 273.818055 
L 197.330051 273.818055 
L 197.330051 273.703324 
L 200.628905 273.703324 
L 200.628905 273.473864 
L 201.234828 273.473864 
L 201.234828 273.359133 
L 205.477138 273.359133 
L 205.477138 273.244403 
L 207.846763 273.244403 
L 207.846763 273.129673 
L 213.256927 273.129673 
L 213.256927 273.014942 
L 218.031552 273.014942 
L 218.031552 272.900212 
L 218.825441 272.900212 
L 218.825441 272.785482 
L 221.050545 272.785482 
L 221.050545 272.670751 
L 232.271704 272.670751 
L 232.271704 272.556021 
L 338.688 272.556021 
L 338.688 272.556021 
" style="fill:none;stroke:#000080;stroke-linecap:square;stroke-width:1.5;"/>
   </g>
   <g id="line2d_36">
    <defs>
     <path d="M 0 6 
C 1.591219 6 3.117479 5.367802 4.242641 4.242641 
C 5.367802 3.117479 6 1.591219 6 0 
C 6 -1.591219 5.367802 -3.117479 4.242641 -4.242641 
C 3.117479 -5.367802 1.591219 -6 0 -6 
C -1.591219 -6 -3.117479 -5.367802 -4.242641 -4.242641 
C -5.367802 -3.117479 -6 -1.591219 -6 0 
C -6 1.591219 -5.367802 3.117479 -4.242641 4.242641 
C -3.117479 5.367802 -1.591219 6 0 6 
z
" id="m84fed3df1d" style="stroke:#000080;stroke-width:1.5;"/>
    </defs>
    <g>
     <use style="fill-opacity:0;stroke:#000080;stroke-width:1.5;" x="101.258944" xlink:href="#m84fed3df1d" y="281.504988"/>
     <use style="fill-opacity:0;stroke:#000080;stroke-width:1.5;" x="180.481631" xlink:href="#m84fed3df1d" y="274.621167"/>
     <use style="fill-opacity:0;stroke:#000080;stroke-width:1.5;" x="232.271704" xlink:href="#m84fed3df1d" y="272.556021"/>
     <use style="fill-opacity:0;stroke:#000080;stroke-width:1.5;" x="232.271704" xlink:href="#m84fed3df1d" y="272.556021"/>
     <use style="fill-opacity:0;stroke:#000080;stroke-width:1.5;" x="338.688" xlink:href="#m84fed3df1d" y="272.556021"/>
    </g>
   </g>
   <g id="line2d_37">
    <path style="fill:none;stroke:#000080;stroke-linecap:square;stroke-width:1.5;"/>
    <g/>
   </g>
   <g id="line2d_38">
    <path clip-path="url(#p0c401bd6ba)" d="M 181.943792 274.506437 
" style="fill:none;stroke:#000080;stroke-linecap:square;stroke-width:1.5;"/>
    <defs>
     <path d="M -12 12 
L 12 -12 
M -12 -12 
L 12 12 
" id="m2951260a1f" style="stroke:#000080;"/>
    </defs>
    <g clip-path="url(#p0c401bd6ba)">
     <use style="fill:#000080;stroke:#000080;" x="181.943792" xlink:href="#m2951260a1f" y="274.506437"/>
    </g>
   </g>
   <g id="line2d_39">
    <defs>
     <path d="M 0 1.5 
C 0.397805 1.5 0.77937 1.341951 1.06066 1.06066 
C 1.341951 0.77937 1.5 0.397805 1.5 0 
C 1.5 -0.397805 1.341951 -0.77937 1.06066 -1.06066 
C 0.77937 -1.341951 0.397805 -1.5 0 -1.5 
C -0.397805 -1.5 -0.77937 -1.341951 -1.06066 -1.06066 
C -1.341951 -0.77937 -1.5 -0.397805 -1.5 0 
C -1.5 0.397805 -1.341951 0.77937 -1.06066 1.06066 
C -0.77937 1.341951 -0.397805 1.5 0 1.5 
z
" id="m92d11b9b9b" style="stroke:#ff00ff;"/>
    </defs>
    <g>
     <use style="fill:#ff00ff;stroke:#ff00ff;" x="249.742942" xlink:href="#m92d11b9b9b" y="254.199166"/>
     <use style="fill:#ff00ff;stroke:#ff00ff;" x="249.742942" xlink:href="#m92d11b9b9b" y="254.199166"/>
    </g>
   </g>
   <g id="line2d_40">
    <path d="M -1 294.240056 
L 5.356583 294.240056 
L 5.356583 292.863292 
L 12.427603 292.863292 
L 12.427603 291.945449 
L 17.444571 291.945449 
L 17.444571 291.486528 
L 21.336035 291.486528 
L 21.336035 290.912876 
L 24.515591 290.912876 
L 24.515591 290.683415 
L 27.203868 290.683415 
L 27.203868 290.339224 
L 29.53256 290.339224 
L 29.53256 289.880303 
L 31.586611 289.880303 
L 31.586611 289.765573 
L 33.424023 289.765573 
L 33.424023 289.536112 
L 35.086164 289.536112 
L 35.086164 289.421381 
L 36.60358 289.421381 
L 36.60358 289.306651 
L 37.999467 289.306651 
L 37.999467 289.07719 
L 41.620548 289.07719 
L 41.620548 288.84773 
L 42.677798 288.84773 
L 42.677798 288.388808 
L 43.6746 288.388808 
L 43.6746 288.274078 
L 44.617493 288.274078 
L 44.617493 288.044617 
L 48.691568 288.044617 
L 48.691568 287.929887 
L 51.991813 287.929887 
L 51.991813 287.815157 
L 55.271309 287.815157 
L 55.271309 287.700426 
L 57.6 287.700426 
L 57.6 287.585696 
L 58.450865 287.585696 
L 58.450865 287.470966 
L 59.262141 287.470966 
L 59.262141 287.356235 
L 66.595411 287.356235 
L 66.595411 287.241505 
L 80.995815 287.241505 
L 80.995815 287.126775 
L 82.93551 287.126775 
L 82.93551 287.012044 
L 85.225916 287.012044 
L 85.225916 286.897314 
L 87.170317 286.897314 
L 87.250131 286.667853 
L 87.408671 286.667853 
L 87.408671 286.553123 
L 88.846997 286.553123 
L 88.846997 286.438393 
L 89.206582 286.438393 
L 89.206582 286.323662 
L 89.558903 286.323662 
L 89.558903 286.208932 
L 89.766929 286.208932 
L 89.766929 286.094202 
L 89.972502 286.094202 
L 89.972502 285.979471 
L 90.901048 285.979471 
L 90.901048 285.864741 
L 91.221044 285.864741 
L 91.221044 285.75001 
L 91.472879 285.75001 
L 91.535274 285.52055 
L 93.310291 285.52055 
L 93.310291 285.405819 
L 93.422441 285.405819 
L 93.478247 285.176359 
L 94.294587 285.176359 
L 94.294587 285.061628 
L 94.505975 285.061628 
L 94.610715 284.832168 
L 97.179237 284.832168 
L 97.179237 284.717437 
L 97.755429 284.717437 
L 97.755429 284.602707 
L 98.270913 284.602707 
L 98.270913 284.487977 
L 99.016649 284.487977 
L 99.016649 284.373246 
L 99.178125 284.373246 
L 99.178125 284.258516 
L 100.493461 284.258516 
L 100.567829 284.029055 
L 101.958007 284.029055 
L 101.958007 283.914325 
L 102.162376 283.914325 
L 102.162376 283.799595 
L 102.431195 283.799595 
L 102.431195 283.684864 
L 103.529587 283.684864 
L 103.529587 283.570134 
L 103.685435 283.570134 
L 103.685435 283.455404 
L 103.901308 283.455404 
L 103.901308 283.340673 
L 104.17499 283.340673 
L 104.17499 283.225943 
L 105.313691 283.225943 
L 105.398279 282.996482 
L 105.454445 282.996482 
L 105.454445 282.881752 
L 105.897371 282.881752 
L 105.897371 282.767022 
L 107.688252 282.767022 
L 107.688252 282.652291 
L 108.126693 282.652291 
L 108.126693 282.537561 
L 108.810674 282.537561 
L 108.810674 282.422831 
L 109.930396 282.422831 
L 109.930396 282.3081 
L 110.188761 282.3081 
L 110.231452 282.078639 
L 111.426108 282.078639 
L 111.426108 281.963909 
L 111.643731 281.963909 
L 111.643731 281.849179 
L 111.800314 281.849179 
L 111.800314 281.734448 
L 112.147567 281.734448 
L 112.147567 281.619718 
L 112.488041 281.619718 
L 112.488041 281.504988 
L 114.469094 281.504988 
L 114.469094 281.390257 
L 114.701622 281.390257 
L 114.734588 281.160797 
L 114.898492 281.160797 
L 114.898492 281.046066 
L 115.285689 281.046066 
L 115.285689 280.931336 
L 115.850828 280.931336 
L 115.943263 280.587145 
L 115.973966 280.587145 
L 115.973966 280.357684 
L 116.293125 280.357684 
L 116.293125 280.242954 
L 117.145424 280.242954 
L 117.145424 280.128224 
L 117.751456 280.128224 
L 117.751456 280.013493 
L 118.162133 280.013493 
L 118.162133 279.898763 
L 118.37727 279.898763 
L 118.37727 279.784033 
L 118.602981 279.784033 
L 118.602981 279.669302 
L 118.786692 279.669302 
L 118.838828 279.439842 
L 119.110011 279.439842 
L 119.148409 279.210381 
L 119.565304 279.210381 
L 119.565304 279.095651 
L 119.763903 279.095651 
L 119.874629 278.75146 
L 123.623247 278.75146 
L 123.64302 278.521999 
L 124.359273 278.521999 
L 124.359273 278.407268 
L 124.845547 278.407268 
L 124.845547 278.292538 
L 125.092787 278.292538 
L 125.192518 278.063077 
L 125.381344 278.063077 
L 125.381344 277.948347 
L 125.857712 277.948347 
L 125.857712 277.833617 
L 125.970476 277.833617 
L 125.970476 277.718886 
L 126.355276 277.718886 
L 126.355276 277.604156 
L 126.953823 277.604156 
L 126.953823 277.489426 
L 127.165014 277.489426 
L 127.165014 277.374695 
L 127.453273 277.374695 
L 127.453273 277.259965 
L 127.814803 277.259965 
L 127.814803 277.145235 
L 127.969682 277.145235 
L 127.969682 277.030504 
L 128.583245 277.030504 
L 128.583245 276.915774 
L 129.362011 276.915774 
L 129.362011 276.801044 
L 129.672427 276.801044 
L 129.672427 276.686313 
L 130.45189 276.686313 
L 130.45189 276.571583 
L 130.565197 276.571583 
L 130.565197 276.456853 
L 130.76994 276.456853 
L 130.76994 276.342122 
L 132.428499 276.342122 
L 132.428499 276.227392 
L 133.05014 276.227392 
L 133.084673 275.883201 
L 133.628103 275.883201 
L 133.628103 275.768471 
L 133.744754 275.768471 
L 133.83311 275.53901 
L 134.279041 275.53901 
L 134.279041 275.42428 
L 134.61933 275.42428 
L 134.708614 275.194819 
L 134.745246 275.194819 
L 134.781801 274.965358 
L 135.552244 274.965358 
L 135.552244 274.735897 
L 136.112156 274.735897 
L 136.112156 274.621167 
L 136.475687 274.621167 
L 136.475687 274.506437 
L 136.965784 274.506437 
L 136.965784 274.391706 
L 137.253364 274.391706 
L 137.253364 274.276976 
L 137.580766 274.276976 
L 137.580766 274.162246 
L 138.028177 274.162246 
L 138.028177 274.047515 
L 138.315939 274.047515 
L 138.315939 273.932785 
L 138.951686 273.932785 
L 138.951686 273.818055 
L 139.066311 273.818055 
L 139.066311 273.703324 
L 140.065379 273.703324 
L 140.065379 273.588594 
L 140.712123 273.588594 
L 140.712123 273.473864 
L 141.410806 273.473864 
L 141.410806 273.359133 
L 142.099725 273.359133 
L 142.099725 273.244403 
L 143.063541 273.244403 
L 143.063541 273.129673 
L 143.179954 273.129673 
L 143.179954 273.014942 
L 143.35951 273.014942 
L 143.35951 272.900212 
L 143.728793 272.900212 
L 143.819128 272.670751 
L 144.306265 272.670751 
L 144.360565 272.441291 
L 144.48362 272.441291 
L 144.504543 272.21183 
L 144.897383 272.21183 
L 144.897383 272.0971 
L 145.051495 272.0971 
L 145.051495 271.982369 
L 145.332919 271.982369 
L 145.332919 271.867639 
L 145.477597 271.867639 
L 145.477597 271.752909 
L 145.612677 271.752909 
L 145.612677 271.638178 
L 146.1808 271.638178 
L 146.1808 271.523448 
L 146.439364 271.523448 
L 146.439364 271.408718 
L 147.51249 271.408718 
L 147.557683 271.179257 
L 148.103206 271.179257 
L 148.13477 270.949796 
L 148.313364 270.949796 
L 148.418694 270.720335 
L 148.5139 270.720335 
L 148.5139 270.605605 
L 148.754348 270.605605 
L 148.754348 270.490875 
L 149.19359 270.490875 
L 149.25057 270.261414 
L 149.42716 270.261414 
L 149.42716 270.146684 
L 150.376217 270.146684 
L 150.376217 270.031953 
L 151.084795 270.031953 
L 151.084795 269.917223 
L 151.918681 269.917223 
L 151.918681 269.802493 
L 152.445669 269.802493 
L 152.445669 269.687762 
L 152.55709 269.687762 
L 152.55709 269.573032 
L 152.705175 269.573032 
L 152.705175 269.458302 
L 153.781849 269.458302 
L 153.890309 269.228841 
L 154.015422 269.228841 
L 154.015422 269.114111 
L 154.19457 269.114111 
L 154.19457 268.99938 
L 155.047394 268.99938 
L 155.047394 268.88465 
L 155.169365 268.88465 
L 155.229224 268.425729 
L 155.647315 268.425729 
L 155.647315 268.310998 
L 156.649196 268.310998 
L 156.649196 268.196268 
L 156.931255 268.196268 
L 156.999969 267.966807 
L 158.050351 267.966807 
L 158.050351 267.852077 
L 158.359452 267.852077 
L 158.359452 267.737347 
L 159.028061 267.737347 
L 159.028061 267.622616 
L 159.260313 267.622616 
L 159.260313 267.507886 
L 160.341221 267.507886 
L 160.416953 267.163695 
L 160.599515 267.163695 
L 160.612567 266.934234 
L 161.036736 266.934234 
L 161.036736 266.819504 
L 161.794469 266.819504 
L 161.794469 266.704773 
L 162.082474 266.704773 
L 162.184655 266.475313 
L 162.508946 266.475313 
L 162.508946 266.360582 
L 162.815822 266.360582 
L 162.815822 266.245852 
L 163.552673 266.245852 
L 163.552673 266.131122 
L 163.824119 266.131122 
L 163.853692 265.786931 
L 164.311534 265.786931 
L 164.311534 265.6722 
L 164.575287 265.6722 
L 164.575287 265.55747 
L 166.219034 265.55747 
L 166.219034 265.44274 
L 166.529301 265.44274 
L 166.603489 265.098549 
L 167.299438 265.098549 
L 167.299438 264.983818 
L 167.742397 264.983818 
L 167.742397 264.869088 
L 167.953111 264.869088 
L 168.030798 264.639627 
L 169.226025 264.639627 
L 169.288161 264.410167 
L 169.52171 264.410167 
L 169.616809 264.180706 
L 169.804765 264.180706 
L 169.804765 264.065976 
L 170.558436 264.065976 
L 170.637383 263.836515 
L 171.266721 263.836515 
L 171.32008 263.607054 
L 171.945501 263.607054 
L 171.945501 263.492324 
L 172.05908 263.492324 
L 172.05908 263.377593 
L 172.185367 263.377593 
L 172.204293 263.033402 
L 172.423185 263.033402 
L 172.423185 262.918672 
L 172.549864 262.918672 
L 172.63103 262.689211 
L 172.72663 262.689211 
L 172.727814 262.459751 
L 173.794675 262.459751 
L 173.88689 262.11556 
L 174.865615 262.11556 
L 174.865615 262.000829 
L 175.210516 262.000829 
L 175.252065 261.771369 
L 175.351175 261.771369 
L 175.351175 261.656638 
L 175.747557 261.656638 
L 175.747557 261.541908 
L 176.118562 261.541908 
L 176.118562 261.427178 
L 176.690188 261.427178 
L 176.72836 261.197717 
L 177.026603 261.197717 
L 177.026603 261.082987 
L 177.189198 261.082987 
L 177.189198 260.968256 
L 177.413772 260.968256 
L 177.413772 260.853526 
L 177.811565 260.853526 
L 177.811565 260.738796 
L 179.569163 260.738796 
L 179.569163 260.624065 
L 181.71824 260.624065 
L 181.782126 260.394605 
L 186.948888 260.394605 
L 186.948888 260.279874 
L 187.326471 260.279874 
L 187.326471 260.165144 
L 187.930153 260.165144 
L 187.930153 259.935683 
L 188.043453 259.935683 
L 188.043453 259.706222 
L 188.213374 259.706222 
L 188.213374 259.591492 
L 189.835732 259.591492 
L 189.835732 259.476762 
L 190.033965 259.476762 
L 190.034404 259.132571 
L 190.43753 259.132571 
L 190.43753 259.01784 
L 191.353536 259.01784 
L 191.369402 258.78838 
L 191.753879 258.78838 
L 191.823944 258.558919 
L 191.921329 258.558919 
L 191.921329 258.444189 
L 192.141736 258.444189 
L 192.141736 258.329458 
L 192.892307 258.329458 
L 192.892307 258.214728 
L 193.518326 258.214728 
L 193.518326 258.099998 
L 193.958147 258.099998 
L 193.958147 257.985267 
L 196.00731 257.985267 
L 196.00731 257.870537 
L 196.242746 257.870537 
L 196.242746 257.755807 
L 197.28637 257.755807 
L 197.28637 257.641076 
L 198.425845 257.641076 
L 198.429778 257.411616 
L 199.15476 257.411616 
L 199.15476 257.296885 
L 200.356341 257.296885 
L 200.356341 257.182155 
L 203.723127 257.182155 
L 203.723127 257.067425 
L 204.155458 257.067425 
L 204.155458 256.952694 
L 204.683306 256.952694 
L 204.683306 256.837964 
L 205.025419 256.837964 
L 205.025419 256.723234 
L 207.990493 256.723234 
L 207.990493 256.608503 
L 208.460935 256.608503 
L 208.506733 256.379043 
L 209.170131 256.379043 
L 209.170131 256.264312 
L 211.948726 256.264312 
L 211.96727 256.034851 
L 220.960678 256.034851 
L 220.960678 255.920121 
L 221.547401 255.920121 
L 221.547401 255.805391 
L 221.690888 255.805391 
L 221.690888 255.69066 
L 224.67603 255.69066 
L 224.67603 255.57593 
L 228.692591 255.57593 
L 228.692591 255.4612 
L 230.046973 255.4612 
L 230.046973 255.346469 
L 230.933906 255.346469 
L 230.933906 255.231739 
L 232.130413 255.231739 
L 232.130413 255.002278 
L 233.991299 255.002278 
L 233.991299 254.887548 
L 237.799331 254.887548 
L 237.799331 254.772818 
L 241.708909 254.772818 
L 241.708909 254.658087 
L 242.168975 254.658087 
L 242.168975 254.543357 
L 244.248588 254.543357 
L 244.248588 254.428627 
L 247.785254 254.428627 
L 247.785254 254.313896 
L 249.742942 254.313896 
L 249.742942 254.199166 
L 338.688 254.199166 
L 338.688 254.199166 
" style="fill:none;stroke:#ff00ff;stroke-linecap:square;stroke-width:1.5;"/>
   </g>
   <g id="line2d_41">
    <defs>
     <path d="M 0 8.485281 
L 5.091169 0 
L 0 -8.485281 
L -5.091169 0 
z
" id="mbe3c59529b" style="stroke:#ff00ff;stroke-linejoin:miter;stroke-width:1.5;"/>
    </defs>
    <g>
     <use style="fill-opacity:0;stroke:#ff00ff;stroke-linejoin:miter;stroke-width:1.5;" x="97.179237" xlink:href="#mbe3c59529b" y="284.717437"/>
     <use style="fill-opacity:0;stroke:#ff00ff;stroke-linejoin:miter;stroke-width:1.5;" x="181.782126" xlink:href="#mbe3c59529b" y="260.509335"/>
     <use style="fill-opacity:0;stroke:#ff00ff;stroke-linejoin:miter;stroke-width:1.5;" x="249.742942" xlink:href="#mbe3c59529b" y="254.313896"/>
     <use style="fill-opacity:0;stroke:#ff00ff;stroke-linejoin:miter;stroke-width:1.5;" x="249.742942" xlink:href="#mbe3c59529b" y="254.199166"/>
     <use style="fill-opacity:0;stroke:#ff00ff;stroke-linejoin:miter;stroke-width:1.5;" x="249.742942" xlink:href="#mbe3c59529b" y="254.199166"/>
     <use style="fill-opacity:0;stroke:#ff00ff;stroke-linejoin:miter;stroke-width:1.5;" x="338.688" xlink:href="#mbe3c59529b" y="254.199166"/>
    </g>
   </g>
   <g id="line2d_42">
    <path style="fill:none;stroke:#ff00ff;stroke-linecap:square;stroke-width:1.5;"/>
    <g/>
   </g>
   <g id="line2d_43">
    <path clip-path="url(#p0c401bd6ba)" d="M 181.957749 260.394605 
" style="fill:none;stroke:#ff00ff;stroke-linecap:square;stroke-width:1.5;"/>
    <defs>
     <path d="M -12 12 
L 12 -12 
M -12 -12 
L 12 12 
" id="m2d54e9f44e" style="stroke:#ff00ff;"/>
    </defs>
    <g clip-path="url(#p0c401bd6ba)">
     <use style="fill:#ff00ff;stroke:#ff00ff;" x="181.957749" xlink:href="#m2d54e9f44e" y="260.394605"/>
    </g>
   </g>
   <g id="line2d_44">
    <path d="M 338.688 272.556021 
L 369.60768 293.092752 
" style="fill:none;stroke:#000080;stroke-linecap:square;stroke-width:1.5;"/>
    <g>
     <use style="fill-opacity:0;stroke:#000080;stroke-width:1.5;" x="338.688" xlink:href="#m84fed3df1d" y="272.556021"/>
     <use style="fill-opacity:0;stroke:#000080;stroke-width:1.5;" x="369.60768" xlink:href="#m84fed3df1d" y="293.092752"/>
    </g>
   </g>
   <g id="line2d_45">
    <path d="M 338.688 254.199166 
L 369.60768 152.662812 
" style="fill:none;stroke:#ff00ff;stroke-linecap:square;stroke-width:1.5;"/>
    <g>
     <use style="fill-opacity:0;stroke:#ff00ff;stroke-linejoin:miter;stroke-width:1.5;" x="338.688" xlink:href="#mbe3c59529b" y="254.199166"/>
     <use style="fill-opacity:0;stroke:#ff00ff;stroke-linejoin:miter;stroke-width:1.5;" x="369.60768" xlink:href="#mbe3c59529b" y="152.662812"/>
    </g>
   </g>
   <g id="line2d_46">
    <path d="M 338.688 298.944 
L 338.688 6.381624 
" style="fill:none;stroke:#000000;stroke-linecap:square;stroke-width:1.5;"/>
   </g>
   <g id="patch_3">
    <path d="M 57.6 298.944 
L 57.6 3.456 
" style="fill:none;stroke:#000000;stroke-linecap:square;stroke-linejoin:miter;stroke-width:0.8;"/>
   </g>
   <g id="patch_4">
    <path d="M 338.688 298.944 
L 338.688 3.456 
" style="fill:none;stroke:#000000;stroke-linecap:square;stroke-linejoin:miter;stroke-width:0.8;"/>
   </g>
   <g id="patch_5">
    <path d="M 57.6 298.944 
L 338.688 298.944 
" style="fill:none;stroke:#000000;stroke-linecap:square;stroke-linejoin:miter;stroke-width:0.8;"/>
   </g>
   <g id="patch_6">
    <path d="M 57.6 3.456 
L 338.688 3.456 
" style="fill:none;stroke:#000000;stroke-linecap:square;stroke-linejoin:miter;stroke-width:0.8;"/>
   </g>
   <g id="text_13">
    <!-- DEPSOmax5 -->
    <g transform="translate(375.22944 297.78369)scale(0.17 -0.17)">
     <defs>
      <path d="M 19.671875 64.796875 
L 19.671875 8.109375 
L 31.59375 8.109375 
Q 46.6875 8.109375 53.6875 14.9375 
Q 60.6875 21.78125 60.6875 36.53125 
Q 60.6875 51.171875 53.6875 57.984375 
Q 46.6875 64.796875 31.59375 64.796875 
z
M 9.8125 72.90625 
L 30.078125 72.90625 
Q 51.265625 72.90625 61.171875 64.09375 
Q 71.09375 55.28125 71.09375 36.53125 
Q 71.09375 17.671875 61.125 8.828125 
Q 51.171875 0 30.078125 0 
L 9.8125 0 
z
" id="DejaVuSans-68"/>
      <path d="M 9.8125 72.90625 
L 55.90625 72.90625 
L 55.90625 64.59375 
L 19.671875 64.59375 
L 19.671875 43.015625 
L 54.390625 43.015625 
L 54.390625 34.71875 
L 19.671875 34.71875 
L 19.671875 8.296875 
L 56.78125 8.296875 
L 56.78125 0 
L 9.8125 0 
z
" id="DejaVuSans-69"/>
      <path d="M 19.671875 64.796875 
L 19.671875 37.40625 
L 32.078125 37.40625 
Q 38.96875 37.40625 42.71875 40.96875 
Q 46.484375 44.53125 46.484375 51.125 
Q 46.484375 57.671875 42.71875 61.234375 
Q 38.96875 64.796875 32.078125 64.796875 
z
M 9.8125 72.90625 
L 32.078125 72.90625 
Q 44.34375 72.90625 50.609375 67.359375 
Q 56.890625 61.8125 56.890625 51.125 
Q 56.890625 40.328125 50.609375 34.8125 
Q 44.34375 29.296875 32.078125 29.296875 
L 19.671875 29.296875 
L 19.671875 0 
L 9.8125 0 
z
" id="DejaVuSans-80"/>
      <path d="M 53.515625 70.515625 
L 53.515625 60.890625 
Q 47.90625 63.578125 42.921875 64.890625 
Q 37.9375 66.21875 33.296875 66.21875 
Q 25.25 66.21875 20.875 63.09375 
Q 16.5 59.96875 16.5 54.203125 
Q 16.5 49.359375 19.40625 46.890625 
Q 22.3125 44.4375 30.421875 42.921875 
L 36.375 41.703125 
Q 47.40625 39.59375 52.65625 34.296875 
Q 57.90625 29 57.90625 20.125 
Q 57.90625 9.515625 50.796875 4.046875 
Q 43.703125 -1.421875 29.984375 -1.421875 
Q 24.8125 -1.421875 18.96875 -0.25 
Q 13.140625 0.921875 6.890625 3.21875 
L 6.890625 13.375 
Q 12.890625 10.015625 18.65625 8.296875 
Q 24.421875 6.59375 29.984375 6.59375 
Q 38.421875 6.59375 43.015625 9.90625 
Q 47.609375 13.234375 47.609375 19.390625 
Q 47.609375 24.75 44.3125 27.78125 
Q 41.015625 30.8125 33.5 32.328125 
L 27.484375 33.5 
Q 16.453125 35.6875 11.515625 40.375 
Q 6.59375 45.0625 6.59375 53.421875 
Q 6.59375 63.09375 13.40625 68.65625 
Q 20.21875 74.21875 32.171875 74.21875 
Q 37.3125 74.21875 42.625 73.28125 
Q 47.953125 72.359375 53.515625 70.515625 
z
" id="DejaVuSans-83"/>
      <path d="M 39.40625 66.21875 
Q 28.65625 66.21875 22.328125 58.203125 
Q 16.015625 50.203125 16.015625 36.375 
Q 16.015625 22.609375 22.328125 14.59375 
Q 28.65625 6.59375 39.40625 6.59375 
Q 50.140625 6.59375 56.421875 14.59375 
Q 62.703125 22.609375 62.703125 36.375 
Q 62.703125 50.203125 56.421875 58.203125 
Q 50.140625 66.21875 39.40625 66.21875 
z
M 39.40625 74.21875 
Q 54.734375 74.21875 63.90625 63.9375 
Q 73.09375 53.65625 73.09375 36.375 
Q 73.09375 19.140625 63.90625 8.859375 
Q 54.734375 -1.421875 39.40625 -1.421875 
Q 24.03125 -1.421875 14.8125 8.828125 
Q 5.609375 19.09375 5.609375 36.375 
Q 5.609375 53.65625 14.8125 63.9375 
Q 24.03125 74.21875 39.40625 74.21875 
z
" id="DejaVuSans-79"/>
      <path d="M 54.890625 54.6875 
L 35.109375 28.078125 
L 55.90625 0 
L 45.3125 0 
L 29.390625 21.484375 
L 13.484375 0 
L 2.875 0 
L 24.125 28.609375 
L 4.6875 54.6875 
L 15.28125 54.6875 
L 29.78125 35.203125 
L 44.28125 54.6875 
z
" id="DejaVuSans-120"/>
      <path d="M 10.796875 72.90625 
L 49.515625 72.90625 
L 49.515625 64.59375 
L 19.828125 64.59375 
L 19.828125 46.734375 
Q 21.96875 47.46875 24.109375 47.828125 
Q 26.265625 48.1875 28.421875 48.1875 
Q 40.625 48.1875 47.75 41.5 
Q 54.890625 34.8125 54.890625 23.390625 
Q 54.890625 11.625 47.5625 5.09375 
Q 40.234375 -1.421875 26.90625 -1.421875 
Q 22.3125 -1.421875 17.546875 -0.640625 
Q 12.796875 0.140625 7.71875 1.703125 
L 7.71875 11.625 
Q 12.109375 9.234375 16.796875 8.0625 
Q 21.484375 6.890625 26.703125 6.890625 
Q 35.15625 6.890625 40.078125 11.328125 
Q 45.015625 15.765625 45.015625 23.390625 
Q 45.015625 31 40.078125 35.4375 
Q 35.15625 39.890625 26.703125 39.890625 
Q 22.75 39.890625 18.8125 39.015625 
Q 14.890625 38.140625 10.796875 36.28125 
z
" id="DejaVuSans-53"/>
     </defs>
     <use xlink:href="#DejaVuSans-68"/>
     <use x="77.001953" xlink:href="#DejaVuSans-69"/>
     <use x="140.185547" xlink:href="#DejaVuSans-80"/>
     <use x="200.488281" xlink:href="#DejaVuSans-83"/>
     <use x="263.964844" xlink:href="#DejaVuSans-79"/>
     <use x="342.675781" xlink:href="#DejaVuSans-109"/>
     <use x="440.087891" xlink:href="#DejaVuSans-97"/>
     <use x="501.367188" xlink:href="#DejaVuSans-120"/>
     <use x="560.546875" xlink:href="#DejaVuSans-53"/>
    </g>
   </g>
   <g id="text_14">
    <!-- SimpleDEm -->
    <g transform="translate(375.22944 157.353749)scale(0.17 -0.17)">
     <use xlink:href="#DejaVuSans-83"/>
     <use x="63.476562" xlink:href="#DejaVuSans-105"/>
     <use x="91.259766" xlink:href="#DejaVuSans-109"/>
     <use x="188.671875" xlink:href="#DejaVuSans-112"/>
     <use x="252.148438" xlink:href="#DejaVuSans-108"/>
     <use x="279.931641" xlink:href="#DejaVuSans-101"/>
     <use x="341.455078" xlink:href="#DejaVuSans-68"/>
     <use x="418.457031" xlink:href="#DejaVuSans-69"/>
     <use x="481.640625" xlink:href="#DejaVuSans-109"/>
    </g>
   </g>
   <g id="text_15">
    <!-- best 2009 -->
    <g transform="translate(375.22944 16.923809)scale(0.17 -0.17)">
     <defs>
      <path d="M 48.6875 27.296875 
Q 48.6875 37.203125 44.609375 42.84375 
Q 40.53125 48.484375 33.40625 48.484375 
Q 26.265625 48.484375 22.1875 42.84375 
Q 18.109375 37.203125 18.109375 27.296875 
Q 18.109375 17.390625 22.1875 11.75 
Q 26.265625 6.109375 33.40625 6.109375 
Q 40.53125 6.109375 44.609375 11.75 
Q 48.6875 17.390625 48.6875 27.296875 
z
M 18.109375 46.390625 
Q 20.953125 51.265625 25.265625 53.625 
Q 29.59375 56 35.59375 56 
Q 45.5625 56 51.78125 48.09375 
Q 58.015625 40.1875 58.015625 27.296875 
Q 58.015625 14.40625 51.78125 6.484375 
Q 45.5625 -1.421875 35.59375 -1.421875 
Q 29.59375 -1.421875 25.265625 0.953125 
Q 20.953125 3.328125 18.109375 8.203125 
L 18.109375 0 
L 9.078125 0 
L 9.078125 75.984375 
L 18.109375 75.984375 
z
" id="DejaVuSans-98"/>
      <path d="M 10.984375 1.515625 
L 10.984375 10.5 
Q 14.703125 8.734375 18.5 7.8125 
Q 22.3125 6.890625 25.984375 6.890625 
Q 35.75 6.890625 40.890625 13.453125 
Q 46.046875 20.015625 46.78125 33.40625 
Q 43.953125 29.203125 39.59375 26.953125 
Q 35.25 24.703125 29.984375 24.703125 
Q 19.046875 24.703125 12.671875 31.3125 
Q 6.296875 37.9375 6.296875 49.421875 
Q 6.296875 60.640625 12.9375 67.421875 
Q 19.578125 74.21875 30.609375 74.21875 
Q 43.265625 74.21875 49.921875 64.515625 
Q 56.59375 54.828125 56.59375 36.375 
Q 56.59375 19.140625 48.40625 8.859375 
Q 40.234375 -1.421875 26.421875 -1.421875 
Q 22.703125 -1.421875 18.890625 -0.6875 
Q 15.09375 0.046875 10.984375 1.515625 
z
M 30.609375 32.421875 
Q 37.25 32.421875 41.125 36.953125 
Q 45.015625 41.5 45.015625 49.421875 
Q 45.015625 57.28125 41.125 61.84375 
Q 37.25 66.40625 30.609375 66.40625 
Q 23.96875 66.40625 20.09375 61.84375 
Q 16.21875 57.28125 16.21875 49.421875 
Q 16.21875 41.5 20.09375 36.953125 
Q 23.96875 32.421875 30.609375 32.421875 
z
" id="DejaVuSans-57"/>
     </defs>
     <use xlink:href="#DejaVuSans-98"/>
     <use x="63.476562" xlink:href="#DejaVuSans-101"/>
     <use x="125" xlink:href="#DejaVuSans-115"/>
     <use x="177.099609" xlink:href="#DejaVuSans-116"/>
     <use x="216.308594" xlink:href="#DejaVuSans-32"/>
     <use x="248.095703" xlink:href="#DejaVuSans-50"/>
     <use x="311.71875" xlink:href="#DejaVuSans-48"/>
     <use x="375.341797" xlink:href="#DejaVuSans-48"/>
     <use x="438.964844" xlink:href="#DejaVuSans-57"/>
    </g>
   </g>
   <g id="text_16">
    <!-- bbob f15-f19, 40-D -->
    <g transform="translate(60.41088 14.161286)scale(0.102 -0.102)">
     <use xlink:href="#DejaVuSans-98"/>
     <use x="63.476562" xlink:href="#DejaVuSans-98"/>
     <use x="126.953125" xlink:href="#DejaVuSans-111"/>
     <use x="188.134766" xlink:href="#DejaVuSans-98"/>
     <use x="251.611328" xlink:href="#DejaVuSans-32"/>
     <use x="283.398438" xlink:href="#DejaVuSans-102"/>
     <use x="318.603516" xlink:href="#DejaVuSans-49"/>
     <use x="382.226562" xlink:href="#DejaVuSans-53"/>
     <use x="445.849609" xlink:href="#DejaVuSans-45"/>
     <use x="481.933594" xlink:href="#DejaVuSans-102"/>
     <use x="517.138672" xlink:href="#DejaVuSans-49"/>
     <use x="580.761719" xlink:href="#DejaVuSans-57"/>
     <use x="644.384766" xlink:href="#DejaVuSans-44"/>
     <use x="676.171875" xlink:href="#DejaVuSans-32"/>
     <use x="707.958984" xlink:href="#DejaVuSans-52"/>
     <use x="771.582031" xlink:href="#DejaVuSans-48"/>
     <use x="835.205078" xlink:href="#DejaVuSans-45"/>
     <use x="871.289062" xlink:href="#DejaVuSans-68"/>
    </g>
    <!-- 51 targets: 100..1e-08 -->
    <g transform="translate(60.41088 25.583055)scale(0.102 -0.102)">
     <defs>
      <path d="M 11.71875 12.40625 
L 22.015625 12.40625 
L 22.015625 0 
L 11.71875 0 
z
M 11.71875 51.703125 
L 22.015625 51.703125 
L 22.015625 39.3125 
L 11.71875 39.3125 
z
" id="DejaVuSans-58"/>
     </defs>
     <use xlink:href="#DejaVuSans-53"/>
     <use x="63.623047" xlink:href="#DejaVuSans-49"/>
     <use x="127.246094" xlink:href="#DejaVuSans-32"/>
     <use x="159.033203" xlink:href="#DejaVuSans-116"/>
     <use x="198.242188" xlink:href="#DejaVuSans-97"/>
     <use x="259.521484" xlink:href="#DejaVuSans-114"/>
     <use x="298.884766" xlink:href="#DejaVuSans-103"/>
     <use x="362.361328" xlink:href="#DejaVuSans-101"/>
     <use x="423.884766" xlink:href="#DejaVuSans-116"/>
     <use x="463.09375" xlink:href="#DejaVuSans-115"/>
     <use x="515.193359" xlink:href="#DejaVuSans-58"/>
     <use x="548.884766" xlink:href="#DejaVuSans-32"/>
     <use x="580.671875" xlink:href="#DejaVuSans-49"/>
     <use x="644.294922" xlink:href="#DejaVuSans-48"/>
     <use x="707.917969" xlink:href="#DejaVuSans-48"/>
     <use x="771.541016" xlink:href="#DejaVuSans-46"/>
     <use x="803.328125" xlink:href="#DejaVuSans-46"/>
     <use x="835.115234" xlink:href="#DejaVuSans-49"/>
     <use x="898.738281" xlink:href="#DejaVuSans-101"/>
     <use x="960.261719" xlink:href="#DejaVuSans-45"/>
     <use x="996.345703" xlink:href="#DejaVuSans-48"/>
     <use x="1059.96875" xlink:href="#DejaVuSans-56"/>
    </g>
    <!-- 15 instances -->
    <g transform="translate(60.41088 37.004824)scale(0.102 -0.102)">
     <use xlink:href="#DejaVuSans-49"/>
     <use x="63.623047" xlink:href="#DejaVuSans-53"/>
     <use x="127.246094" xlink:href="#DejaVuSans-32"/>
     <use x="159.033203" xlink:href="#DejaVuSans-105"/>
     <use x="186.816406" xlink:href="#DejaVuSans-110"/>
     <use x="250.195312" xlink:href="#DejaVuSans-115"/>
     <use x="302.294922" xlink:href="#DejaVuSans-116"/>
     <use x="341.503906" xlink:href="#DejaVuSans-97"/>
     <use x="402.783203" xlink:href="#DejaVuSans-110"/>
     <use x="466.162109" xlink:href="#DejaVuSans-99"/>
     <use x="521.142578" xlink:href="#DejaVuSans-101"/>
     <use x="582.666016" xlink:href="#DejaVuSans-115"/>
    </g>
   </g>
   <g id="text_17">
    <!-- v2.4 -->
    <g style="fill:#808080;" transform="translate(187.233062 293.909432)scale(0.1 -0.1)">
     <use xlink:href="#DejaVuSans-118"/>
     <use x="59.179688" xlink:href="#DejaVuSans-50"/>
     <use x="122.802734" xlink:href="#DejaVuSans-46"/>
     <use x="154.589844" xlink:href="#DejaVuSans-52"/>
    </g>
   </g>
  </g>
 </g>
 <defs>
  <clipPath id="p0c401bd6ba">
   <rect height="295.488" width="281.088" x="57.6" y="3.456"/>
  </clipPath>
 </defs>
</svg>
