<?xml version="1.0" encoding="utf-8" standalone="no"?>
<!DOCTYPE svg PUBLIC "-//W3C//DTD SVG 1.1//EN"
  "http://www.w3.org/Graphics/SVG/1.1/DTD/svg11.dtd">
<!-- Created with matplotlib (https://matplotlib.org/) -->
<svg height="345.6pt" version="1.1" viewBox="0 0 460.8 345.6" width="460.8pt" xmlns="http://www.w3.org/2000/svg" xmlns:xlink="http://www.w3.org/1999/xlink">
 <metadata>
  <rdf:RDF xmlns:cc="http://creativecommons.org/ns#" xmlns:dc="http://purl.org/dc/elements/1.1/" xmlns:rdf="http://www.w3.org/1999/02/22-rdf-syntax-ns#">
   <cc:Work>
    <dc:type rdf:resource="http://purl.org/dc/dcmitype/StillImage"/>
    <dc:date>2021-04-25T22:54:32.310380</dc:date>
    <dc:format>image/svg+xml</dc:format>
    <dc:creator>
     <cc:Agent>
      <dc:title>Matplotlib v3.3.2, https://matplotlib.org/</dc:title>
     </cc:Agent>
    </dc:creator>
   </cc:Work>
  </rdf:RDF>
 </metadata>
 <defs>
  <style type="text/css">*{stroke-linecap:butt;stroke-linejoin:round;}</style>
 </defs>
 <g id="figure_1">
  <g id="patch_1">
   <path d="M 0 345.6 
L 460.8 345.6 
L 460.8 0 
L 0 0 
z
" style="fill:#ffffff;"/>
  </g>
  <g id="axes_1">
   <g id="patch_2">
    <path d="M 57.6 298.944 
L 338.688 298.944 
L 338.688 3.456 
L 57.6 3.456 
z
" style="fill:#ffffff;"/>
   </g>
   <g id="line2d_1">
    <path d="M -1 292.968461 
L 5.356583 292.968461 
L 5.356583 292.490418 
L 12.427603 292.490418 
L 12.427603 292.251397 
L 24.515591 292.251397 
L 24.515591 292.012375 
L 27.203868 292.012375 
L 27.203868 291.773354 
L 54.765787 291.773354 
L 54.765787 291.534332 
L 62.833608 291.534332 
L 62.833608 291.29531 
L 63.153604 291.29531 
L 63.153604 291.056289 
L 66.853775 291.056289 
L 66.853775 290.817267 
L 70.329998 290.817267 
L 70.329998 278.627168 
L 70.745238 278.627168 
L 70.745238 278.388147 
L 70.949209 278.388147 
L 70.949209 278.149125 
L 71.35013 278.149125 
L 71.35013 277.910104 
L 71.547186 277.910104 
L 71.547186 277.671082 
L 72.125336 277.671082 
L 72.125336 277.432061 
L 73.227131 277.432061 
L 73.227131 277.193039 
L 73.579452 277.193039 
L 73.579452 276.954017 
L 74.263433 276.954017 
L 74.263433 276.714996 
L 75.241593 276.714996 
L 75.241593 276.475974 
L 75.399415 276.475974 
L 75.399415 276.236953 
L 76.16779 276.236953 
L 76.16779 275.997931 
L 76.317484 275.997931 
L 76.317484 275.280867 
L 76.465904 275.280867 
L 76.465904 275.041845 
L 76.613072 275.041845 
L 76.613072 274.802824 
L 76.759008 274.802824 
L 76.759008 273.846737 
L 76.903734 273.846737 
L 76.903734 266.198048 
L 79.069525 266.198048 
L 79.069525 265.959026 
L 81.775977 265.959026 
L 81.775977 265.480983 
L 83.138295 265.480983 
L 83.138295 265.241962 
L 83.438118 265.241962 
L 83.438118 265.00294 
L 84.213325 265.00294 
L 84.213325 264.763918 
L 85.315119 264.763918 
L 85.315119 264.524897 
L 86.012784 264.524897 
L 86.012784 264.285875 
L 86.601153 264.285875 
L 86.601153 264.046854 
L 87.487404 264.046854 
L 87.487404 263.807832 
L 88.180446 263.807832 
L 88.180446 263.329789 
L 88.627632 263.329789 
L 88.627632 263.090768 
L 90.965519 263.090768 
L 90.965519 262.851746 
L 92.267099 262.851746 
L 92.267099 262.612725 
L 92.563189 262.612725 
L 92.563189 262.373703 
L 92.969447 262.373703 
L 93.026719 261.89566 
L 94.347675 261.89566 
L 94.347675 261.656638 
L 96.442905 261.656638 
L 96.442905 261.417617 
L 96.86091 261.417617 
L 96.86091 261.178595 
L 97.313904 261.178595 
L 97.313904 260.939574 
L 97.711776 260.939574 
L 97.711776 260.700552 
L 98.976045 260.700552 
L 98.976045 260.461531 
L 99.338119 260.461531 
L 99.338119 260.222509 
L 101.506816 260.222509 
L 101.506816 259.983487 
L 101.785851 259.983487 
L 101.785851 259.744466 
L 102.162376 259.744466 
L 102.162376 259.505444 
L 104.084239 259.505444 
L 104.084239 259.266423 
L 104.205136 259.266423 
L 104.205136 259.027401 
L 104.913428 259.027401 
L 104.913428 258.78838 
L 105.285403 258.78838 
L 105.285403 258.549358 
L 106.30264 258.549358 
L 106.30264 258.310337 
L 107.187808 258.310337 
L 107.213174 257.593272 
L 107.90885 257.593272 
L 107.90885 257.35425 
L 108.294265 257.35425 
L 108.294265 257.115229 
L 108.601261 257.115229 
L 108.601261 256.876207 
L 109.334689 256.876207 
L 109.334689 256.637186 
L 109.491096 256.637186 
L 109.491096 256.398164 
L 109.690152 256.398164 
L 109.799764 253.051863 
L 109.821604 253.051863 
L 109.930396 245.403173 
L 110.081574 245.403173 
L 110.081574 245.164151 
L 110.252758 245.164151 
L 110.252758 244.92513 
L 110.464402 244.92513 
L 110.485426 244.447087 
L 111.485729 244.447087 
L 111.485729 244.208065 
L 111.819788 244.208065 
L 111.819788 243.969044 
L 111.955503 243.969044 
L 111.955503 243.730022 
L 112.242812 243.730022 
L 112.242812 243.491001 
L 112.637255 243.491001 
L 112.637255 243.251979 
L 112.877038 243.251979 
L 112.877038 243.012957 
L 113.839203 243.012957 
L 113.839203 242.773936 
L 114.097313 242.773936 
L 114.097313 242.534914 
L 114.368483 242.534914 
L 114.368483 242.295893 
L 114.485807 242.295893 
L 114.485807 242.056871 
L 115.476111 242.056871 
L 115.476111 241.81785 
L 115.633223 241.81785 
L 115.633223 241.578828 
L 116.739166 241.578828 
L 116.739166 241.339807 
L 117.044744 241.339807 
L 117.044744 241.100785 
L 117.202696 241.100785 
L 117.245527 240.38372 
L 117.903163 240.38372 
L 117.903163 240.144699 
L 119.502775 240.144699 
L 119.565304 239.666656 
L 119.813201 239.666656 
L 119.813201 239.427634 
L 120.118198 239.427634 
L 120.118198 239.188613 
L 120.689249 239.188613 
L 120.689249 238.949591 
L 121.208142 238.949591 
L 121.208142 238.71057 
L 121.388979 238.71057 
L 121.388979 238.471548 
L 122.104932 238.471548 
L 122.104932 238.232526 
L 122.740699 238.232526 
L 122.740699 237.993505 
L 124.368753 237.993505 
L 124.378229 237.515462 
L 124.891598 237.515462 
L 124.891598 237.27644 
L 125.083692 237.27644 
L 125.083692 237.037419 
L 125.752972 237.037419 
L 125.752972 236.798397 
L 125.875108 236.798397 
L 125.875108 236.559376 
L 126.073922 236.559376 
L 126.073922 236.320354 
L 126.72349 236.320354 
L 126.72349 236.081333 
L 126.847261 236.081333 
L 126.847261 235.842311 
L 127.325746 235.842311 
L 127.325746 235.603289 
L 127.516689 235.603289 
L 127.54041 235.125246 
L 128.768338 235.125246 
L 128.768338 234.886225 
L 128.987887 234.886225 
L 128.987887 234.647203 
L 129.440135 234.647203 
L 129.468457 234.16916 
L 129.567223 234.16916 
L 129.623411 233.691117 
L 129.78395 233.691117 
L 129.78395 233.452096 
L 130.310898 233.452096 
L 130.310898 233.213074 
L 130.763373 233.213074 
L 130.763373 232.974052 
L 131.332025 232.974052 
L 131.332025 232.735031 
L 131.471338 232.735031 
L 131.50914 232.256988 
L 132.470242 232.256988 
L 132.470242 232.017966 
L 132.818154 232.017966 
L 132.905511 231.539923 
L 133.003989 231.539923 
L 133.003989 231.300902 
L 133.205004 231.300902 
L 133.205004 231.06188 
L 133.409373 231.06188 
L 133.409373 230.822858 
L 134.04118 230.822858 
L 134.04118 230.583837 
L 135.061249 230.583837 
L 135.061249 230.344815 
L 135.194218 230.344815 
L 135.209496 229.866772 
L 135.617009 229.866772 
L 135.617009 229.627751 
L 136.184509 229.627751 
L 136.184509 229.388729 
L 136.813232 229.388729 
L 136.813232 229.149708 
L 137.217107 229.149708 
L 137.217107 228.910686 
L 137.567432 228.910686 
L 137.567432 228.671665 
L 137.954401 228.671665 
L 137.954401 228.432643 
L 138.204833 228.432643 
L 138.264747 227.715578 
L 138.632527 227.715578 
L 138.632527 227.476557 
L 138.84457 227.476557 
L 138.84457 227.237535 
L 139.240888 227.237535 
L 139.240888 226.998514 
L 139.413734 226.998514 
L 139.413734 226.759492 
L 139.53729 226.759492 
L 139.53729 226.520471 
L 140.184419 226.520471 
L 140.184419 226.281449 
L 140.708409 226.281449 
L 140.708409 226.042427 
L 141.181008 226.042427 
L 141.289103 225.325363 
L 142.133981 225.325363 
L 142.133981 225.086341 
L 142.294085 225.086341 
L 142.385399 224.608298 
L 142.456092 224.608298 
L 142.456092 224.369277 
L 142.633244 224.369277 
L 142.633244 224.130255 
L 142.89728 224.130255 
L 142.89728 223.891234 
L 143.044063 223.891234 
L 143.150923 223.174169 
L 143.483476 223.174169 
L 143.537237 222.696126 
L 143.722546 222.696126 
L 143.722546 222.457104 
L 144.49259 222.457104 
L 144.49259 222.218083 
L 145.089089 222.218083 
L 145.135248 221.74004 
L 145.332919 221.74004 
L 145.332919 221.501018 
L 145.61548 221.501018 
L 145.721664 221.022975 
L 145.921099 221.022975 
L 145.921099 220.783953 
L 146.052799 220.783953 
L 146.074653 220.30591 
L 146.299784 220.30591 
L 146.299784 220.066889 
L 146.733626 220.066889 
L 146.804459 219.588846 
L 146.986771 219.588846 
L 146.986771 219.349824 
L 147.238848 219.349824 
L 147.238848 219.110803 
L 147.459617 219.110803 
L 147.459617 218.871781 
L 147.86833 218.871781 
L 147.895404 218.393738 
L 148.015498 218.393738 
L 148.083753 217.915695 
L 148.262868 217.915695 
L 148.262868 217.676673 
L 148.76137 217.676673 
L 148.76137 217.437652 
L 149.049169 217.437652 
L 149.11121 216.720587 
L 149.438419 216.720587 
L 149.438419 216.481566 
L 149.85877 216.481566 
L 149.931137 216.003522 
L 150.072806 216.003522 
L 150.072806 215.764501 
L 150.249899 215.764501 
L 150.344189 215.286458 
L 150.501627 215.286458 
L 150.546047 214.808415 
L 150.67444 214.808415 
L 150.772725 214.330372 
L 150.872533 214.330372 
L 150.872533 214.09135 
L 151.326856 214.09135 
L 151.326856 213.852328 
L 151.477707 213.852328 
L 151.529699 213.135264 
L 152.045145 213.135264 
L 152.045145 212.896242 
L 152.212989 212.896242 
L 152.212989 212.657221 
L 152.337344 212.657221 
L 152.438089 211.701135 
L 152.940632 211.701135 
L 152.940632 211.462113 
L 153.27261 211.462113 
L 153.27261 211.223091 
L 153.464875 211.223091 
L 153.464875 210.98407 
L 153.640896 210.98407 
L 153.640896 210.745048 
L 153.774828 210.745048 
L 153.774828 210.506027 
L 154.11728 210.506027 
L 154.185999 210.027984 
L 154.261279 210.027984 
L 154.288574 209.549941 
L 154.498668 209.549941 
L 154.530637 209.071897 
L 154.626195 209.071897 
L 154.626195 208.832876 
L 154.832284 208.832876 
L 154.921277 208.115811 
L 154.996729 208.115811 
L 155.066967 207.637768 
L 155.117428 207.637768 
L 155.153151 206.920704 
L 155.292098 206.920704 
L 155.394786 206.44266 
L 155.433138 206.44266 
L 155.492101 205.964617 
L 155.571464 205.964617 
L 155.677248 205.008531 
L 155.689836 205.008531 
L 155.798033 204.291467 
L 155.851102 204.291467 
L 155.911776 203.813423 
L 155.967597 203.813423 
L 156.072551 203.096359 
L 156.126326 203.096359 
L 156.222706 202.140273 
L 156.266892 202.140273 
L 156.353417 201.184186 
L 156.385187 201.184186 
L 156.493674 200.2281 
L 156.526689 200.2281 
L 156.629832 199.032992 
L 156.670026 199.032992 
L 156.776762 198.076906 
L 156.816619 198.076906 
L 156.896063 197.12082 
L 156.938578 197.12082 
L 157.024756 195.686691 
L 157.062598 195.686691 
L 157.143825 194.969626 
L 157.185742 194.969626 
L 157.279327 194.252561 
L 157.432298 194.252561 
L 157.432298 194.01354 
L 157.592403 194.01354 
L 157.592403 193.774518 
L 157.710474 193.774518 
L 157.710474 193.535497 
L 157.84861 193.535497 
L 157.84861 193.296475 
L 158.131218 193.296475 
L 158.140788 192.579411 
L 158.305381 192.579411 
L 158.305381 192.340389 
L 158.436215 192.340389 
L 158.441589 191.862346 
L 158.551397 191.862346 
L 158.660518 191.145281 
L 158.7254 191.145281 
L 158.830813 190.428217 
L 158.863624 190.428217 
L 158.923837 189.950174 
L 158.979935 189.950174 
L 159.07735 189.233109 
L 159.092886 189.233109 
L 159.193535 188.277023 
L 159.224387 188.277023 
L 159.326836 187.320937 
L 159.351079 187.320937 
L 159.452789 186.36485 
L 159.464194 186.36485 
L 159.560209 185.169743 
L 159.591677 185.169743 
L 159.699498 183.974635 
L 159.729469 183.974635 
L 159.812866 183.018549 
L 159.841403 183.018549 
L 159.934136 182.062462 
L 159.953855 182.062462 
L 160.058242 180.628333 
L 160.082713 180.628333 
L 160.082713 180.389312 
L 160.537682 180.389312 
L 160.537682 180.15029 
L 160.854038 180.15029 
L 160.854038 179.911268 
L 160.969465 179.911268 
L 160.969465 179.672247 
L 161.137157 179.672247 
L 161.137157 179.433225 
L 161.442917 179.433225 
L 161.442917 179.194204 
L 161.562388 179.194204 
L 161.673235 174.174751 
L 161.689969 174.174751 
L 161.793361 160.311501 
L 161.805549 160.311501 
L 161.812194 159.116394 
L 162.030064 159.116394 
L 162.030064 158.877372 
L 162.146679 158.877372 
L 162.191157 158.399329 
L 162.595968 158.399329 
L 162.595968 158.160308 
L 162.865926 158.160308 
L 162.865926 157.921286 
L 163.142032 157.921286 
L 163.142032 157.682264 
L 163.435034 157.682264 
L 163.435034 157.443243 
L 163.984199 157.443243 
L 164.021308 156.9652 
L 164.277922 156.9652 
L 164.277922 156.726178 
L 164.458662 156.726178 
L 164.502369 156.248135 
L 164.781961 156.248135 
L 164.781961 156.009114 
L 164.968668 156.009114 
L 164.968668 155.770092 
L 165.286362 155.770092 
L 165.286362 155.53107 
L 165.417421 155.53107 
L 165.421922 155.053027 
L 165.528722 155.053027 
L 165.528722 154.814006 
L 165.803907 154.814006 
L 165.833826 154.335963 
L 166.039228 154.335963 
L 166.046178 153.85792 
L 166.179429 153.85792 
L 166.179429 153.618898 
L 166.339876 153.618898 
L 166.339876 153.379877 
L 166.536903 153.379877 
L 166.536903 153.140855 
L 166.671499 153.140855 
L 166.711675 152.662812 
L 166.86815 152.662812 
L 166.948338 152.184769 
L 167.181018 152.184769 
L 167.181018 151.945747 
L 167.330935 151.945747 
L 167.330935 151.706726 
L 167.457159 151.706726 
L 167.487573 151.228683 
L 167.733726 151.228683 
L 167.792761 150.750639 
L 167.932076 150.750639 
L 167.979563 150.272596 
L 168.231181 150.272596 
L 168.231181 150.033575 
L 168.430803 150.033575 
L 168.430803 149.794553 
L 168.628915 149.794553 
L 168.628915 149.555532 
L 168.766191 149.555532 
L 168.839608 149.077489 
L 169.045591 149.077489 
L 169.045591 148.838467 
L 169.217337 148.838467 
L 169.239048 148.360424 
L 169.40461 148.360424 
L 169.513168 147.643359 
L 169.563646 147.643359 
L 169.563646 147.404338 
L 169.714208 147.404338 
L 169.714208 147.165316 
L 169.873248 147.165316 
L 169.873248 146.926295 
L 170.003182 146.926295 
L 170.088122 146.448252 
L 170.12872 146.448252 
L 170.239707 145.970209 
L 170.251995 145.970209 
L 170.251995 145.731187 
L 170.386599 145.731187 
L 170.386599 145.492165 
L 170.560447 145.492165 
L 170.646726 145.014122 
L 170.711322 145.014122 
L 170.711322 144.775101 
L 171.171166 144.775101 
L 171.220946 144.058036 
L 171.463278 144.058036 
L 171.540143 143.579993 
L 171.781861 143.579993 
L 171.781861 143.340971 
L 172.100254 143.340971 
L 172.211004 142.862928 
L 172.29133 142.862928 
L 172.334989 142.384885 
L 172.55106 142.384885 
L 172.55106 142.145864 
L 172.902795 142.145864 
L 172.910414 141.667821 
L 173.485609 141.667821 
L 173.56988 140.950756 
L 173.874697 140.950756 
L 173.984683 140.472713 
L 174.085216 140.472713 
L 174.085216 140.233691 
L 174.388233 140.233691 
L 174.388233 139.99467 
L 174.549528 139.99467 
L 174.633601 139.277605 
L 174.976311 139.277605 
L 175.060428 138.799562 
L 175.236688 138.799562 
L 175.236688 138.56054 
L 175.404075 138.56054 
L 175.404075 138.321519 
L 175.711665 138.321519 
L 175.711665 138.082497 
L 175.826556 138.082497 
L 175.93577 137.604454 
L 175.956448 137.604454 
L 175.956448 137.365433 
L 176.07121 137.365433 
L 176.07121 137.126411 
L 176.242917 137.126411 
L 176.242917 136.88739 
L 176.538086 136.88739 
L 176.637269 136.170325 
L 176.726006 136.170325 
L 176.788512 135.692282 
L 177.142831 135.692282 
L 177.173603 135.214239 
L 177.479727 135.214239 
L 177.479727 134.975217 
L 177.601941 134.975217 
L 177.626103 134.497174 
L 177.773034 134.497174 
L 177.824832 134.019131 
L 177.977994 134.019131 
L 178.006891 133.541088 
L 178.387677 133.541088 
L 178.454747 133.063045 
L 178.512638 133.063045 
L 178.512638 132.824023 
L 178.857673 132.824023 
L 178.857673 132.585002 
L 179.002064 132.585002 
L 179.002064 132.34598 
L 179.197649 132.34598 
L 179.197649 132.106959 
L 179.344126 132.106959 
L 179.344126 131.867937 
L 179.472097 131.867937 
L 179.472097 131.628916 
L 179.59634 131.628916 
L 179.59634 131.389894 
L 179.894888 131.389894 
L 179.923523 130.911851 
L 180.286188 130.911851 
L 180.286188 130.672829 
L 180.635445 130.672829 
L 180.635445 130.433808 
L 180.858267 130.433808 
L 180.903899 129.955765 
L 181.016909 129.955765 
L 181.080478 129.477722 
L 181.322335 129.477722 
L 181.322335 129.2387 
L 181.663699 129.2387 
L 181.663699 128.999679 
L 181.848236 128.999679 
L 181.922486 128.282614 
L 181.991548 128.282614 
L 182.071084 127.565549 
L 182.239031 127.565549 
L 182.246237 127.087506 
L 182.499964 127.087506 
L 182.499964 126.848485 
L 182.621596 126.848485 
L 182.627639 126.370441 
L 182.827538 126.370441 
L 182.827538 126.13142 
L 183.152655 126.13142 
L 183.222538 125.653377 
L 183.414166 125.653377 
L 183.414166 125.414355 
L 183.7075 125.414355 
L 183.7075 125.175334 
L 183.873913 125.175334 
L 183.962435 124.458269 
L 184.225952 124.458269 
L 184.225952 124.219248 
L 184.40298 124.219248 
L 184.495198 123.502183 
L 184.793584 123.502183 
L 184.793584 123.263161 
L 184.963503 123.263161 
L 185.032355 122.785118 
L 185.327803 122.785118 
L 185.412981 122.307075 
L 185.569061 122.307075 
L 185.569061 122.068054 
L 185.746507 122.068054 
L 185.81346 121.59001 
L 185.891573 121.59001 
L 185.900756 121.111967 
L 186.074324 121.111967 
L 186.074324 120.872946 
L 186.270711 120.872946 
L 186.357651 120.155881 
L 186.567501 120.155881 
L 186.605216 119.677838 
L 186.784643 119.677838 
L 186.876958 113.463278 
L 187.053365 113.463278 
L 187.137535 112.985235 
L 187.289259 112.985235 
L 187.357208 112.26817 
L 187.430246 112.26817 
L 187.52175 111.790127 
L 187.620088 111.790127 
L 187.620088 111.551105 
L 187.742424 111.551105 
L 187.762688 110.834041 
L 187.86341 110.834041 
L 187.962812 110.116976 
L 187.987265 110.116976 
L 188.095781 108.204804 
L 188.116864 108.204804 
L 188.142081 107.726761 
L 188.301354 107.726761 
L 188.346387 107.248718 
L 188.703239 107.248718 
L 188.761184 106.531653 
L 189.133785 106.531653 
L 189.133785 106.292631 
L 189.267097 106.292631 
L 189.267097 106.05361 
L 189.780363 106.05361 
L 189.794611 105.575567 
L 190.408121 105.575567 
L 190.408121 105.336545 
L 190.984782 105.336545 
L 190.984782 105.097524 
L 191.736965 105.097524 
L 191.736965 104.858502 
L 191.944951 104.858502 
L 191.944951 104.61948 
L 192.320159 104.61948 
L 192.320159 104.380459 
L 192.807513 104.380459 
L 192.807513 104.141437 
L 192.958139 104.141437 
L 192.958139 103.902416 
L 193.363779 103.902416 
L 193.365048 103.424373 
L 193.753638 103.424373 
L 193.776323 102.94633 
L 194.132716 102.94633 
L 194.236694 99.83905 
L 194.258243 99.83905 
L 194.365758 97.209812 
L 194.372948 97.209812 
L 194.46785 93.863511 
L 194.487584 93.863511 
L 194.526478 92.668403 
L 194.87533 92.668403 
L 194.87533 92.429381 
L 195.029135 92.429381 
L 195.029135 92.19036 
L 195.185842 92.19036 
L 195.185842 91.951338 
L 195.516105 91.951338 
L 195.516105 91.712317 
L 195.706134 91.712317 
L 195.795331 91.234274 
L 196.101959 91.234274 
L 196.101959 90.995252 
L 196.421256 90.995252 
L 196.42506 90.517209 
L 196.594642 90.517209 
L 196.595094 90.039166 
L 196.756472 90.039166 
L 196.756472 89.800144 
L 197.138609 89.800144 
L 197.177562 89.322101 
L 197.452265 89.322101 
L 197.452265 89.08308 
L 197.749947 89.08308 
L 197.794312 88.605037 
L 198.189973 88.605037 
L 198.237486 88.126994 
L 198.493273 88.126994 
L 198.493273 87.887972 
L 198.80241 87.887972 
L 198.813426 87.170907 
L 199.048923 87.170907 
L 199.048923 86.931886 
L 199.466297 86.931886 
L 199.466297 86.692864 
L 199.779397 86.692864 
L 199.779397 86.453843 
L 200.796794 86.453843 
L 200.796794 86.214821 
L 201.983339 86.214821 
L 201.983339 85.9758 
L 203.190123 85.9758 
L 203.190123 85.736778 
L 203.68243 85.736778 
L 203.68243 85.497757 
L 203.961088 85.497757 
L 203.961088 85.258735 
L 204.163074 85.258735 
L 204.163074 85.019713 
L 204.999382 85.019713 
L 205.049375 84.54167 
L 205.274967 84.54167 
L 205.345264 84.063627 
L 206.825921 84.063627 
L 206.825921 83.824606 
L 207.206971 83.824606 
L 207.206971 83.585584 
L 207.742993 83.585584 
L 207.742993 83.346563 
L 207.930028 83.346563 
L 207.930028 83.107541 
L 208.59744 83.107541 
L 208.59744 82.86852 
L 208.98608 82.86852 
L 209.010717 82.390476 
L 209.178554 82.390476 
L 209.178554 82.151455 
L 209.397948 82.151455 
L 209.397948 81.912433 
L 210.179781 81.912433 
L 210.201823 81.43439 
L 210.497411 81.43439 
L 210.497411 81.195369 
L 210.956719 81.195369 
L 210.956719 80.956347 
L 211.072259 80.956347 
L 211.072259 80.717326 
L 211.256989 80.717326 
L 211.256989 80.478304 
L 211.730652 80.478304 
L 211.821759 80.000261 
L 211.89498 80.000261 
L 211.990906 79.283196 
L 212.071488 79.283196 
L 212.151082 78.32711 
L 214.410071 78.32711 
L 214.410071 78.088089 
L 214.771609 78.088089 
L 214.771609 77.849067 
L 215.781805 77.849067 
L 215.781805 77.610045 
L 218.50587 77.610045 
L 218.50587 77.371024 
L 219.384919 77.371024 
L 219.384919 77.132002 
L 220.991057 77.132002 
L 220.991057 76.892981 
L 223.11957 76.892981 
L 223.203649 76.414938 
L 224.916552 76.414938 
L 224.916552 76.175916 
L 225.744553 76.175916 
L 225.746224 75.21983 
L 226.637355 75.21983 
L 226.739256 69.483313 
L 226.751852 69.483313 
L 226.818635 65.89799 
L 226.977927 65.89799 
L 226.977927 65.658968 
L 227.244278 65.658968 
L 227.299157 65.180925 
L 227.393667 65.180925 
L 227.393667 64.941903 
L 227.508541 64.941903 
L 227.589523 64.46386 
L 227.904234 64.46386 
L 227.904234 64.224839 
L 228.166275 64.224839 
L 228.249296 63.746796 
L 229.802524 63.746796 
L 229.802524 63.507774 
L 230.020773 63.507774 
L 230.020773 63.268752 
L 230.164287 63.268752 
L 230.194485 62.790709 
L 231.495895 62.790709 
L 231.495895 62.551688 
L 231.701149 62.551688 
L 231.701149 62.312666 
L 232.376809 62.312666 
L 232.417771 61.834623 
L 232.883038 61.834623 
L 232.992143 61.117559 
L 233.090796 61.117559 
L 233.164981 60.639515 
L 233.223549 60.639515 
L 233.296659 60.161472 
L 233.929679 60.161472 
L 233.929679 59.922451 
L 234.827317 59.922451 
L 234.922768 59.205386 
L 234.977831 59.205386 
L 235.076844 58.488321 
L 235.127587 58.488321 
L 235.223732 57.771257 
L 235.248105 57.771257 
L 235.31603 56.815171 
L 235.370601 56.815171 
L 235.464511 55.620063 
L 235.482231 55.620063 
L 235.559871 54.902998 
L 235.610629 54.902998 
L 235.711113 54.185934 
L 235.755357 54.185934 
L 235.850397 53.468869 
L 235.901758 53.468869 
L 235.986185 52.751804 
L 236.029768 52.751804 
L 236.125093 52.03474 
L 236.174983 52.03474 
L 236.268203 51.317675 
L 236.30081 51.317675 
L 236.405353 50.361589 
L 236.449145 50.361589 
L 236.53489 49.166481 
L 236.580915 49.166481 
L 236.668135 48.449416 
L 238.488126 48.449416 
L 238.55571 47.971373 
L 239.078617 47.971373 
L 239.078617 47.732352 
L 239.549752 47.732352 
L 239.549752 47.49333 
L 239.97228 47.49333 
L 239.97228 47.254309 
L 240.154529 47.254309 
L 240.154529 47.015287 
L 240.327971 47.015287 
L 240.327971 46.776266 
L 244.477292 46.776266 
L 244.560274 46.298222 
L 244.679689 46.298222 
L 244.679689 46.059201 
L 245.816587 46.059201 
L 245.816587 45.820179 
L 246.026885 45.820179 
L 246.127759 44.864093 
L 246.158183 44.864093 
L 246.247731 43.908007 
L 246.280014 43.908007 
L 246.390617 42.712899 
L 246.424099 42.712899 
L 246.52572 41.517791 
L 246.547169 41.517791 
L 246.592893 40.800727 
L 248.54118 40.800727 
L 248.54118 40.561705 
L 253.963008 40.561705 
L 253.963008 40.322684 
L 254.146845 40.322684 
L 254.146845 40.083662 
L 254.265156 40.083662 
L 254.265156 39.844641 
L 254.403599 39.844641 
L 254.460571 39.366598 
L 254.565847 39.366598 
L 254.651208 38.888554 
L 254.713915 38.888554 
L 254.797047 38.410511 
L 254.861414 38.410511 
L 254.931352 37.932468 
L 254.982281 37.932468 
L 255.055735 37.454425 
L 255.135776 37.454425 
L 255.237525 36.737361 
L 255.289708 36.737361 
L 255.338777 36.259317 
L 255.415647 36.259317 
L 255.487081 35.781274 
L 255.550324 35.781274 
L 255.609232 35.303231 
L 255.683629 35.303231 
L 255.683629 35.06421 
L 262.350854 35.06421 
L 262.350854 34.825188 
L 262.988134 34.825188 
L 262.988134 34.586167 
L 264.991202 34.586167 
L 264.991202 34.347145 
L 272.003333 34.347145 
L 272.003333 34.108123 
L 272.980217 34.108123 
L 272.980217 33.869102 
L 280.636941 33.869102 
L 280.636941 33.63008 
L 281.16681 33.63008 
L 281.16681 33.391059 
L 283.437352 33.391059 
L 283.437352 33.152037 
L 287.476939 33.152037 
L 287.476939 32.913016 
L 290.442738 32.913016 
L 290.515767 32.434973 
L 290.591506 32.434973 
L 290.697914 31.95693 
L 292.419798 31.95693 
L 292.419798 31.717908 
L 299.174853 31.717908 
L 299.174853 31.478886 
L 299.767469 31.478886 
L 299.767469 31.239865 
L 300.672127 31.239865 
L 300.778682 25.503348 
L 303.129647 25.503348 
L 303.129647 25.264326 
L 307.244286 25.264326 
L 307.244286 25.025305 
L 314.189555 25.025305 
L 314.195299 24.30824 
L 321.553106 24.30824 
L 321.557412 23.591175 
L 322.833938 23.591175 
L 322.833938 23.352154 
L 333.680273 23.352154 
L 333.698792 14.747378 
L 338.688 14.747378 
L 338.688 14.747378 
" style="fill:none;stroke:#f5deb3;stroke-linecap:square;stroke-width:4;"/>
   </g>
   <g id="line2d_2">
    <defs>
     <path d="M 0 7.778175 
L 7.778175 0 
L 0 -7.778175 
L -7.778175 0 
z
" id="m8b6f197286" style="stroke:#f5deb3;stroke-linejoin:miter;stroke-width:1.5;"/>
    </defs>
    <g>
     <use style="fill:#f5deb3;stroke:#f5deb3;stroke-linejoin:miter;stroke-width:1.5;" x="76.317484" xlink:href="#m8b6f197286" y="275.280867"/>
     <use style="fill:#f5deb3;stroke:#f5deb3;stroke-linejoin:miter;stroke-width:1.5;" x="131.50914" xlink:href="#m8b6f197286" y="232.256988"/>
     <use style="fill:#f5deb3;stroke:#f5deb3;stroke-linejoin:miter;stroke-width:1.5;" x="180.635445" xlink:href="#m8b6f197286" y="130.433808"/>
     <use style="fill:#f5deb3;stroke:#f5deb3;stroke-linejoin:miter;stroke-width:1.5;" x="246.592893" xlink:href="#m8b6f197286" y="41.039748"/>
     <use style="fill:#f5deb3;stroke:#f5deb3;stroke-linejoin:miter;stroke-width:1.5;" x="333.698792" xlink:href="#m8b6f197286" y="14.747378"/>
     <use style="fill:#f5deb3;stroke:#f5deb3;stroke-linejoin:miter;stroke-width:1.5;" x="338.688" xlink:href="#m8b6f197286" y="14.747378"/>
    </g>
   </g>
   <g id="line2d_3">
    <path style="fill:none;stroke:#f5deb3;stroke-linecap:square;stroke-width:4;"/>
    <g/>
   </g>
   <g id="line2d_4">
    <path d="M 338.688 14.747378 
L 369.60768 12.232871 
" style="fill:none;stroke:#f5deb3;stroke-linecap:square;stroke-width:4;"/>
    <g>
     <use style="fill:#f5deb3;stroke:#f5deb3;stroke-linejoin:miter;stroke-width:1.5;" x="338.688" xlink:href="#m8b6f197286" y="14.747378"/>
     <use style="fill:#f5deb3;stroke:#f5deb3;stroke-linejoin:miter;stroke-width:1.5;" x="369.60768" xlink:href="#m8b6f197286" y="12.232871"/>
    </g>
   </g>
   <g id="matplotlib.axis_1">
    <g id="xtick_1">
     <g id="line2d_5">
      <path clip-path="url(#paef6850abd)" d="M 57.6 298.944 
L 57.6 3.456 
" style="fill:none;stroke:#b0b0b0;stroke-linecap:square;stroke-width:0.8;"/>
     </g>
     <g id="line2d_6">
      <defs>
       <path d="M 0 0 
L 0 3.5 
" id="ma38f1a7766" style="stroke:#000000;stroke-width:0.8;"/>
      </defs>
      <g>
       <use style="stroke:#000000;stroke-width:0.8;" x="57.6" xlink:href="#ma38f1a7766" y="298.944"/>
      </g>
     </g>
     <g id="text_1">
      <!-- 0 -->
      <g transform="translate(51.2375 321.140875)scale(0.2 -0.2)">
       <defs>
        <path d="M 31.78125 66.40625 
Q 24.171875 66.40625 20.328125 58.90625 
Q 16.5 51.421875 16.5 36.375 
Q 16.5 21.390625 20.328125 13.890625 
Q 24.171875 6.390625 31.78125 6.390625 
Q 39.453125 6.390625 43.28125 13.890625 
Q 47.125 21.390625 47.125 36.375 
Q 47.125 51.421875 43.28125 58.90625 
Q 39.453125 66.40625 31.78125 66.40625 
z
M 31.78125 74.21875 
Q 44.046875 74.21875 50.515625 64.515625 
Q 56.984375 54.828125 56.984375 36.375 
Q 56.984375 17.96875 50.515625 8.265625 
Q 44.046875 -1.421875 31.78125 -1.421875 
Q 19.53125 -1.421875 13.0625 8.265625 
Q 6.59375 17.96875 6.59375 36.375 
Q 6.59375 54.828125 13.0625 64.515625 
Q 19.53125 74.21875 31.78125 74.21875 
z
" id="DejaVuSans-48"/>
       </defs>
       <use xlink:href="#DejaVuSans-48"/>
      </g>
     </g>
    </g>
    <g id="xtick_2">
     <g id="line2d_7">
      <path clip-path="url(#paef6850abd)" d="M 137.910857 298.944 
L 137.910857 3.456 
" style="fill:none;stroke:#b0b0b0;stroke-linecap:square;stroke-width:0.8;"/>
     </g>
     <g id="line2d_8">
      <g>
       <use style="stroke:#000000;stroke-width:0.8;" x="137.910857" xlink:href="#ma38f1a7766" y="298.944"/>
      </g>
     </g>
     <g id="text_2">
      <!-- 2 -->
      <g transform="translate(131.548357 321.140875)scale(0.2 -0.2)">
       <defs>
        <path d="M 19.1875 8.296875 
L 53.609375 8.296875 
L 53.609375 0 
L 7.328125 0 
L 7.328125 8.296875 
Q 12.9375 14.109375 22.625 23.890625 
Q 32.328125 33.6875 34.8125 36.53125 
Q 39.546875 41.84375 41.421875 45.53125 
Q 43.3125 49.21875 43.3125 52.78125 
Q 43.3125 58.59375 39.234375 62.25 
Q 35.15625 65.921875 28.609375 65.921875 
Q 23.96875 65.921875 18.8125 64.3125 
Q 13.671875 62.703125 7.8125 59.421875 
L 7.8125 69.390625 
Q 13.765625 71.78125 18.9375 73 
Q 24.125 74.21875 28.421875 74.21875 
Q 39.75 74.21875 46.484375 68.546875 
Q 53.21875 62.890625 53.21875 53.421875 
Q 53.21875 48.921875 51.53125 44.890625 
Q 49.859375 40.875 45.40625 35.40625 
Q 44.1875 33.984375 37.640625 27.21875 
Q 31.109375 20.453125 19.1875 8.296875 
z
" id="DejaVuSans-50"/>
       </defs>
       <use xlink:href="#DejaVuSans-50"/>
      </g>
     </g>
    </g>
    <g id="xtick_3">
     <g id="line2d_9">
      <path clip-path="url(#paef6850abd)" d="M 218.221714 298.944 
L 218.221714 3.456 
" style="fill:none;stroke:#b0b0b0;stroke-linecap:square;stroke-width:0.8;"/>
     </g>
     <g id="line2d_10">
      <g>
       <use style="stroke:#000000;stroke-width:0.8;" x="218.221714" xlink:href="#ma38f1a7766" y="298.944"/>
      </g>
     </g>
     <g id="text_3">
      <!-- 4 -->
      <g transform="translate(211.859214 321.140875)scale(0.2 -0.2)">
       <defs>
        <path d="M 37.796875 64.3125 
L 12.890625 25.390625 
L 37.796875 25.390625 
z
M 35.203125 72.90625 
L 47.609375 72.90625 
L 47.609375 25.390625 
L 58.015625 25.390625 
L 58.015625 17.1875 
L 47.609375 17.1875 
L 47.609375 0 
L 37.796875 0 
L 37.796875 17.1875 
L 4.890625 17.1875 
L 4.890625 26.703125 
z
" id="DejaVuSans-52"/>
       </defs>
       <use xlink:href="#DejaVuSans-52"/>
      </g>
     </g>
    </g>
    <g id="xtick_4">
     <g id="line2d_11">
      <path clip-path="url(#paef6850abd)" d="M 298.532571 298.944 
L 298.532571 3.456 
" style="fill:none;stroke:#b0b0b0;stroke-linecap:square;stroke-width:0.8;"/>
     </g>
     <g id="line2d_12">
      <g>
       <use style="stroke:#000000;stroke-width:0.8;" x="298.532571" xlink:href="#ma38f1a7766" y="298.944"/>
      </g>
     </g>
     <g id="text_4">
      <!-- 6 -->
      <g transform="translate(292.170071 321.140875)scale(0.2 -0.2)">
       <defs>
        <path d="M 33.015625 40.375 
Q 26.375 40.375 22.484375 35.828125 
Q 18.609375 31.296875 18.609375 23.390625 
Q 18.609375 15.53125 22.484375 10.953125 
Q 26.375 6.390625 33.015625 6.390625 
Q 39.65625 6.390625 43.53125 10.953125 
Q 47.40625 15.53125 47.40625 23.390625 
Q 47.40625 31.296875 43.53125 35.828125 
Q 39.65625 40.375 33.015625 40.375 
z
M 52.59375 71.296875 
L 52.59375 62.3125 
Q 48.875 64.0625 45.09375 64.984375 
Q 41.3125 65.921875 37.59375 65.921875 
Q 27.828125 65.921875 22.671875 59.328125 
Q 17.53125 52.734375 16.796875 39.40625 
Q 19.671875 43.65625 24.015625 45.921875 
Q 28.375 48.1875 33.59375 48.1875 
Q 44.578125 48.1875 50.953125 41.515625 
Q 57.328125 34.859375 57.328125 23.390625 
Q 57.328125 12.15625 50.6875 5.359375 
Q 44.046875 -1.421875 33.015625 -1.421875 
Q 20.359375 -1.421875 13.671875 8.265625 
Q 6.984375 17.96875 6.984375 36.375 
Q 6.984375 53.65625 15.1875 63.9375 
Q 23.390625 74.21875 37.203125 74.21875 
Q 40.921875 74.21875 44.703125 73.484375 
Q 48.484375 72.75 52.59375 71.296875 
z
" id="DejaVuSans-54"/>
       </defs>
       <use xlink:href="#DejaVuSans-54"/>
      </g>
     </g>
    </g>
    <g id="xtick_5">
     <g id="line2d_13">
      <path clip-path="url(#paef6850abd)" d="M 97.755429 298.944 
L 97.755429 3.456 
" style="fill:none;stroke:#b0b0b0;stroke-linecap:square;stroke-width:0.8;"/>
     </g>
     <g id="line2d_14">
      <defs>
       <path d="M 0 0 
L 0 2 
" id="m340c88c57a" style="stroke:#000000;stroke-width:0.6;"/>
      </defs>
      <g>
       <use style="stroke:#000000;stroke-width:0.6;" x="97.755429" xlink:href="#m340c88c57a" y="298.944"/>
      </g>
     </g>
    </g>
    <g id="xtick_6">
     <g id="line2d_15">
      <path clip-path="url(#paef6850abd)" d="M 178.066286 298.944 
L 178.066286 3.456 
" style="fill:none;stroke:#b0b0b0;stroke-linecap:square;stroke-width:0.8;"/>
     </g>
     <g id="line2d_16">
      <g>
       <use style="stroke:#000000;stroke-width:0.6;" x="178.066286" xlink:href="#m340c88c57a" y="298.944"/>
      </g>
     </g>
    </g>
    <g id="xtick_7">
     <g id="line2d_17">
      <path clip-path="url(#paef6850abd)" d="M 258.377143 298.944 
L 258.377143 3.456 
" style="fill:none;stroke:#b0b0b0;stroke-linecap:square;stroke-width:0.8;"/>
     </g>
     <g id="line2d_18">
      <g>
       <use style="stroke:#000000;stroke-width:0.6;" x="258.377143" xlink:href="#m340c88c57a" y="298.944"/>
      </g>
     </g>
    </g>
    <g id="xtick_8">
     <g id="line2d_19">
      <path clip-path="url(#paef6850abd)" d="M 338.688 298.944 
L 338.688 3.456 
" style="fill:none;stroke:#b0b0b0;stroke-linecap:square;stroke-width:0.8;"/>
     </g>
     <g id="line2d_20">
      <g>
       <use style="stroke:#000000;stroke-width:0.6;" x="338.688" xlink:href="#m340c88c57a" y="298.944"/>
      </g>
     </g>
    </g>
    <g id="text_5">
     <!-- log10(# f-evals / dimension) -->
     <g transform="translate(77.764078 342.217594)scale(0.17 -0.17)">
      <defs>
       <path d="M 9.421875 75.984375 
L 18.40625 75.984375 
L 18.40625 0 
L 9.421875 0 
z
" id="DejaVuSans-108"/>
       <path d="M 30.609375 48.390625 
Q 23.390625 48.390625 19.1875 42.75 
Q 14.984375 37.109375 14.984375 27.296875 
Q 14.984375 17.484375 19.15625 11.84375 
Q 23.34375 6.203125 30.609375 6.203125 
Q 37.796875 6.203125 41.984375 11.859375 
Q 46.1875 17.53125 46.1875 27.296875 
Q 46.1875 37.015625 41.984375 42.703125 
Q 37.796875 48.390625 30.609375 48.390625 
z
M 30.609375 56 
Q 42.328125 56 49.015625 48.375 
Q 55.71875 40.765625 55.71875 27.296875 
Q 55.71875 13.875 49.015625 6.21875 
Q 42.328125 -1.421875 30.609375 -1.421875 
Q 18.84375 -1.421875 12.171875 6.21875 
Q 5.515625 13.875 5.515625 27.296875 
Q 5.515625 40.765625 12.171875 48.375 
Q 18.84375 56 30.609375 56 
z
" id="DejaVuSans-111"/>
       <path d="M 45.40625 27.984375 
Q 45.40625 37.75 41.375 43.109375 
Q 37.359375 48.484375 30.078125 48.484375 
Q 22.859375 48.484375 18.828125 43.109375 
Q 14.796875 37.75 14.796875 27.984375 
Q 14.796875 18.265625 18.828125 12.890625 
Q 22.859375 7.515625 30.078125 7.515625 
Q 37.359375 7.515625 41.375 12.890625 
Q 45.40625 18.265625 45.40625 27.984375 
z
M 54.390625 6.78125 
Q 54.390625 -7.171875 48.1875 -13.984375 
Q 42 -20.796875 29.203125 -20.796875 
Q 24.46875 -20.796875 20.265625 -20.09375 
Q 16.0625 -19.390625 12.109375 -17.921875 
L 12.109375 -9.1875 
Q 16.0625 -11.328125 19.921875 -12.34375 
Q 23.78125 -13.375 27.78125 -13.375 
Q 36.625 -13.375 41.015625 -8.765625 
Q 45.40625 -4.15625 45.40625 5.171875 
L 45.40625 9.625 
Q 42.625 4.78125 38.28125 2.390625 
Q 33.9375 0 27.875 0 
Q 17.828125 0 11.671875 7.65625 
Q 5.515625 15.328125 5.515625 27.984375 
Q 5.515625 40.671875 11.671875 48.328125 
Q 17.828125 56 27.875 56 
Q 33.9375 56 38.28125 53.609375 
Q 42.625 51.21875 45.40625 46.390625 
L 45.40625 54.6875 
L 54.390625 54.6875 
z
" id="DejaVuSans-103"/>
       <path d="M 12.40625 8.296875 
L 28.515625 8.296875 
L 28.515625 63.921875 
L 10.984375 60.40625 
L 10.984375 69.390625 
L 28.421875 72.90625 
L 38.28125 72.90625 
L 38.28125 8.296875 
L 54.390625 8.296875 
L 54.390625 0 
L 12.40625 0 
z
" id="DejaVuSans-49"/>
       <path d="M 31 75.875 
Q 24.46875 64.65625 21.28125 53.65625 
Q 18.109375 42.671875 18.109375 31.390625 
Q 18.109375 20.125 21.3125 9.0625 
Q 24.515625 -2 31 -13.1875 
L 23.1875 -13.1875 
Q 15.875 -1.703125 12.234375 9.375 
Q 8.59375 20.453125 8.59375 31.390625 
Q 8.59375 42.28125 12.203125 53.3125 
Q 15.828125 64.359375 23.1875 75.875 
z
" id="DejaVuSans-40"/>
       <path d="M 51.125 44 
L 36.921875 44 
L 32.8125 27.6875 
L 47.125 27.6875 
z
M 43.796875 71.78125 
L 38.71875 51.515625 
L 52.984375 51.515625 
L 58.109375 71.78125 
L 65.921875 71.78125 
L 60.890625 51.515625 
L 76.125 51.515625 
L 76.125 44 
L 58.984375 44 
L 54.984375 27.6875 
L 70.515625 27.6875 
L 70.515625 20.21875 
L 53.078125 20.21875 
L 48 0 
L 40.1875 0 
L 45.21875 20.21875 
L 30.90625 20.21875 
L 25.875 0 
L 18.015625 0 
L 23.09375 20.21875 
L 7.71875 20.21875 
L 7.71875 27.6875 
L 24.90625 27.6875 
L 29 44 
L 13.28125 44 
L 13.28125 51.515625 
L 30.90625 51.515625 
L 35.890625 71.78125 
z
" id="DejaVuSans-35"/>
       <path id="DejaVuSans-32"/>
       <path d="M 37.109375 75.984375 
L 37.109375 68.5 
L 28.515625 68.5 
Q 23.6875 68.5 21.796875 66.546875 
Q 19.921875 64.59375 19.921875 59.515625 
L 19.921875 54.6875 
L 34.71875 54.6875 
L 34.71875 47.703125 
L 19.921875 47.703125 
L 19.921875 0 
L 10.890625 0 
L 10.890625 47.703125 
L 2.296875 47.703125 
L 2.296875 54.6875 
L 10.890625 54.6875 
L 10.890625 58.5 
Q 10.890625 67.625 15.140625 71.796875 
Q 19.390625 75.984375 28.609375 75.984375 
z
" id="DejaVuSans-102"/>
       <path d="M 4.890625 31.390625 
L 31.203125 31.390625 
L 31.203125 23.390625 
L 4.890625 23.390625 
z
" id="DejaVuSans-45"/>
       <path d="M 56.203125 29.59375 
L 56.203125 25.203125 
L 14.890625 25.203125 
Q 15.484375 15.921875 20.484375 11.0625 
Q 25.484375 6.203125 34.421875 6.203125 
Q 39.59375 6.203125 44.453125 7.46875 
Q 49.3125 8.734375 54.109375 11.28125 
L 54.109375 2.78125 
Q 49.265625 0.734375 44.1875 -0.34375 
Q 39.109375 -1.421875 33.890625 -1.421875 
Q 20.796875 -1.421875 13.15625 6.1875 
Q 5.515625 13.8125 5.515625 26.8125 
Q 5.515625 40.234375 12.765625 48.109375 
Q 20.015625 56 32.328125 56 
Q 43.359375 56 49.78125 48.890625 
Q 56.203125 41.796875 56.203125 29.59375 
z
M 47.21875 32.234375 
Q 47.125 39.59375 43.09375 43.984375 
Q 39.0625 48.390625 32.421875 48.390625 
Q 24.90625 48.390625 20.390625 44.140625 
Q 15.875 39.890625 15.1875 32.171875 
z
" id="DejaVuSans-101"/>
       <path d="M 2.984375 54.6875 
L 12.5 54.6875 
L 29.59375 8.796875 
L 46.6875 54.6875 
L 56.203125 54.6875 
L 35.6875 0 
L 23.484375 0 
z
" id="DejaVuSans-118"/>
       <path d="M 34.28125 27.484375 
Q 23.390625 27.484375 19.1875 25 
Q 14.984375 22.515625 14.984375 16.5 
Q 14.984375 11.71875 18.140625 8.90625 
Q 21.296875 6.109375 26.703125 6.109375 
Q 34.1875 6.109375 38.703125 11.40625 
Q 43.21875 16.703125 43.21875 25.484375 
L 43.21875 27.484375 
z
M 52.203125 31.203125 
L 52.203125 0 
L 43.21875 0 
L 43.21875 8.296875 
Q 40.140625 3.328125 35.546875 0.953125 
Q 30.953125 -1.421875 24.3125 -1.421875 
Q 15.921875 -1.421875 10.953125 3.296875 
Q 6 8.015625 6 15.921875 
Q 6 25.140625 12.171875 29.828125 
Q 18.359375 34.515625 30.609375 34.515625 
L 43.21875 34.515625 
L 43.21875 35.40625 
Q 43.21875 41.609375 39.140625 45 
Q 35.0625 48.390625 27.6875 48.390625 
Q 23 48.390625 18.546875 47.265625 
Q 14.109375 46.140625 10.015625 43.890625 
L 10.015625 52.203125 
Q 14.9375 54.109375 19.578125 55.046875 
Q 24.21875 56 28.609375 56 
Q 40.484375 56 46.34375 49.84375 
Q 52.203125 43.703125 52.203125 31.203125 
z
" id="DejaVuSans-97"/>
       <path d="M 44.28125 53.078125 
L 44.28125 44.578125 
Q 40.484375 46.53125 36.375 47.5 
Q 32.28125 48.484375 27.875 48.484375 
Q 21.1875 48.484375 17.84375 46.4375 
Q 14.5 44.390625 14.5 40.28125 
Q 14.5 37.15625 16.890625 35.375 
Q 19.28125 33.59375 26.515625 31.984375 
L 29.59375 31.296875 
Q 39.15625 29.25 43.1875 25.515625 
Q 47.21875 21.78125 47.21875 15.09375 
Q 47.21875 7.46875 41.1875 3.015625 
Q 35.15625 -1.421875 24.609375 -1.421875 
Q 20.21875 -1.421875 15.453125 -0.5625 
Q 10.6875 0.296875 5.421875 2 
L 5.421875 11.28125 
Q 10.40625 8.6875 15.234375 7.390625 
Q 20.0625 6.109375 24.8125 6.109375 
Q 31.15625 6.109375 34.5625 8.28125 
Q 37.984375 10.453125 37.984375 14.40625 
Q 37.984375 18.0625 35.515625 20.015625 
Q 33.0625 21.96875 24.703125 23.78125 
L 21.578125 24.515625 
Q 13.234375 26.265625 9.515625 29.90625 
Q 5.8125 33.546875 5.8125 39.890625 
Q 5.8125 47.609375 11.28125 51.796875 
Q 16.75 56 26.8125 56 
Q 31.78125 56 36.171875 55.265625 
Q 40.578125 54.546875 44.28125 53.078125 
z
" id="DejaVuSans-115"/>
       <path d="M 25.390625 72.90625 
L 33.6875 72.90625 
L 8.296875 -9.28125 
L 0 -9.28125 
z
" id="DejaVuSans-47"/>
       <path d="M 45.40625 46.390625 
L 45.40625 75.984375 
L 54.390625 75.984375 
L 54.390625 0 
L 45.40625 0 
L 45.40625 8.203125 
Q 42.578125 3.328125 38.25 0.953125 
Q 33.9375 -1.421875 27.875 -1.421875 
Q 17.96875 -1.421875 11.734375 6.484375 
Q 5.515625 14.40625 5.515625 27.296875 
Q 5.515625 40.1875 11.734375 48.09375 
Q 17.96875 56 27.875 56 
Q 33.9375 56 38.25 53.625 
Q 42.578125 51.265625 45.40625 46.390625 
z
M 14.796875 27.296875 
Q 14.796875 17.390625 18.875 11.75 
Q 22.953125 6.109375 30.078125 6.109375 
Q 37.203125 6.109375 41.296875 11.75 
Q 45.40625 17.390625 45.40625 27.296875 
Q 45.40625 37.203125 41.296875 42.84375 
Q 37.203125 48.484375 30.078125 48.484375 
Q 22.953125 48.484375 18.875 42.84375 
Q 14.796875 37.203125 14.796875 27.296875 
z
" id="DejaVuSans-100"/>
       <path d="M 9.421875 54.6875 
L 18.40625 54.6875 
L 18.40625 0 
L 9.421875 0 
z
M 9.421875 75.984375 
L 18.40625 75.984375 
L 18.40625 64.59375 
L 9.421875 64.59375 
z
" id="DejaVuSans-105"/>
       <path d="M 52 44.1875 
Q 55.375 50.25 60.0625 53.125 
Q 64.75 56 71.09375 56 
Q 79.640625 56 84.28125 50.015625 
Q 88.921875 44.046875 88.921875 33.015625 
L 88.921875 0 
L 79.890625 0 
L 79.890625 32.71875 
Q 79.890625 40.578125 77.09375 44.375 
Q 74.3125 48.1875 68.609375 48.1875 
Q 61.625 48.1875 57.5625 43.546875 
Q 53.515625 38.921875 53.515625 30.90625 
L 53.515625 0 
L 44.484375 0 
L 44.484375 32.71875 
Q 44.484375 40.625 41.703125 44.40625 
Q 38.921875 48.1875 33.109375 48.1875 
Q 26.21875 48.1875 22.15625 43.53125 
Q 18.109375 38.875 18.109375 30.90625 
L 18.109375 0 
L 9.078125 0 
L 9.078125 54.6875 
L 18.109375 54.6875 
L 18.109375 46.1875 
Q 21.1875 51.21875 25.484375 53.609375 
Q 29.78125 56 35.6875 56 
Q 41.65625 56 45.828125 52.96875 
Q 50 49.953125 52 44.1875 
z
" id="DejaVuSans-109"/>
       <path d="M 54.890625 33.015625 
L 54.890625 0 
L 45.90625 0 
L 45.90625 32.71875 
Q 45.90625 40.484375 42.875 44.328125 
Q 39.84375 48.1875 33.796875 48.1875 
Q 26.515625 48.1875 22.3125 43.546875 
Q 18.109375 38.921875 18.109375 30.90625 
L 18.109375 0 
L 9.078125 0 
L 9.078125 54.6875 
L 18.109375 54.6875 
L 18.109375 46.1875 
Q 21.34375 51.125 25.703125 53.5625 
Q 30.078125 56 35.796875 56 
Q 45.21875 56 50.046875 50.171875 
Q 54.890625 44.34375 54.890625 33.015625 
z
" id="DejaVuSans-110"/>
       <path d="M 8.015625 75.875 
L 15.828125 75.875 
Q 23.140625 64.359375 26.78125 53.3125 
Q 30.421875 42.28125 30.421875 31.390625 
Q 30.421875 20.453125 26.78125 9.375 
Q 23.140625 -1.703125 15.828125 -13.1875 
L 8.015625 -13.1875 
Q 14.5 -2 17.703125 9.0625 
Q 20.90625 20.125 20.90625 31.390625 
Q 20.90625 42.671875 17.703125 53.65625 
Q 14.5 64.65625 8.015625 75.875 
z
" id="DejaVuSans-41"/>
      </defs>
      <use xlink:href="#DejaVuSans-108"/>
      <use x="27.783203" xlink:href="#DejaVuSans-111"/>
      <use x="88.964844" xlink:href="#DejaVuSans-103"/>
      <use x="152.441406" xlink:href="#DejaVuSans-49"/>
      <use x="216.064453" xlink:href="#DejaVuSans-48"/>
      <use x="279.6875" xlink:href="#DejaVuSans-40"/>
      <use x="318.701172" xlink:href="#DejaVuSans-35"/>
      <use x="402.490234" xlink:href="#DejaVuSans-32"/>
      <use x="434.277344" xlink:href="#DejaVuSans-102"/>
      <use x="463.982422" xlink:href="#DejaVuSans-45"/>
      <use x="500.066406" xlink:href="#DejaVuSans-101"/>
      <use x="561.589844" xlink:href="#DejaVuSans-118"/>
      <use x="620.769531" xlink:href="#DejaVuSans-97"/>
      <use x="682.048828" xlink:href="#DejaVuSans-108"/>
      <use x="709.832031" xlink:href="#DejaVuSans-115"/>
      <use x="761.931641" xlink:href="#DejaVuSans-32"/>
      <use x="793.71875" xlink:href="#DejaVuSans-47"/>
      <use x="827.410156" xlink:href="#DejaVuSans-32"/>
      <use x="859.197266" xlink:href="#DejaVuSans-100"/>
      <use x="922.673828" xlink:href="#DejaVuSans-105"/>
      <use x="950.457031" xlink:href="#DejaVuSans-109"/>
      <use x="1047.869141" xlink:href="#DejaVuSans-101"/>
      <use x="1109.392578" xlink:href="#DejaVuSans-110"/>
      <use x="1172.771484" xlink:href="#DejaVuSans-115"/>
      <use x="1224.871094" xlink:href="#DejaVuSans-105"/>
      <use x="1252.654297" xlink:href="#DejaVuSans-111"/>
      <use x="1313.835938" xlink:href="#DejaVuSans-110"/>
      <use x="1377.214844" xlink:href="#DejaVuSans-41"/>
     </g>
    </g>
   </g>
   <g id="matplotlib.axis_2">
    <g id="ytick_1">
     <g id="line2d_21">
      <path clip-path="url(#paef6850abd)" d="M 57.6 298.944 
L 338.688 298.944 
" style="fill:none;stroke:#b0b0b0;stroke-linecap:square;stroke-width:0.8;"/>
     </g>
     <g id="line2d_22">
      <defs>
       <path d="M 0 0 
L -3.5 0 
" id="m9d293a3858" style="stroke:#000000;stroke-width:0.8;"/>
      </defs>
      <g>
       <use style="stroke:#000000;stroke-width:0.8;" x="57.6" xlink:href="#m9d293a3858" y="298.944"/>
      </g>
     </g>
     <g id="text_6">
      <!-- 0.0 -->
      <g transform="translate(25.155 305.02275)scale(0.16 -0.16)">
       <defs>
        <path d="M 10.6875 12.40625 
L 21 12.40625 
L 21 0 
L 10.6875 0 
z
" id="DejaVuSans-46"/>
       </defs>
       <use xlink:href="#DejaVuSans-48"/>
       <use x="63.623047" xlink:href="#DejaVuSans-46"/>
       <use x="95.410156" xlink:href="#DejaVuSans-48"/>
      </g>
     </g>
    </g>
    <g id="ytick_2">
     <g id="line2d_23">
      <path clip-path="url(#paef6850abd)" d="M 57.6 240.431525 
L 338.688 240.431525 
" style="fill:none;stroke:#b0b0b0;stroke-linecap:square;stroke-width:0.8;"/>
     </g>
     <g id="line2d_24">
      <g>
       <use style="stroke:#000000;stroke-width:0.8;" x="57.6" xlink:href="#m9d293a3858" y="240.431525"/>
      </g>
     </g>
     <g id="text_7">
      <!-- 0.2 -->
      <g transform="translate(25.155 246.510275)scale(0.16 -0.16)">
       <use xlink:href="#DejaVuSans-48"/>
       <use x="63.623047" xlink:href="#DejaVuSans-46"/>
       <use x="95.410156" xlink:href="#DejaVuSans-50"/>
      </g>
     </g>
    </g>
    <g id="ytick_3">
     <g id="line2d_25">
      <path clip-path="url(#paef6850abd)" d="M 57.6 181.91905 
L 338.688 181.91905 
" style="fill:none;stroke:#b0b0b0;stroke-linecap:square;stroke-width:0.8;"/>
     </g>
     <g id="line2d_26">
      <g>
       <use style="stroke:#000000;stroke-width:0.8;" x="57.6" xlink:href="#m9d293a3858" y="181.91905"/>
      </g>
     </g>
     <g id="text_8">
      <!-- 0.4 -->
      <g transform="translate(25.155 187.9978)scale(0.16 -0.16)">
       <use xlink:href="#DejaVuSans-48"/>
       <use x="63.623047" xlink:href="#DejaVuSans-46"/>
       <use x="95.410156" xlink:href="#DejaVuSans-52"/>
      </g>
     </g>
    </g>
    <g id="ytick_4">
     <g id="line2d_27">
      <path clip-path="url(#paef6850abd)" d="M 57.6 123.406574 
L 338.688 123.406574 
" style="fill:none;stroke:#b0b0b0;stroke-linecap:square;stroke-width:0.8;"/>
     </g>
     <g id="line2d_28">
      <g>
       <use style="stroke:#000000;stroke-width:0.8;" x="57.6" xlink:href="#m9d293a3858" y="123.406574"/>
      </g>
     </g>
     <g id="text_9">
      <!-- 0.6 -->
      <g transform="translate(25.155 129.485324)scale(0.16 -0.16)">
       <use xlink:href="#DejaVuSans-48"/>
       <use x="63.623047" xlink:href="#DejaVuSans-46"/>
       <use x="95.410156" xlink:href="#DejaVuSans-54"/>
      </g>
     </g>
    </g>
    <g id="ytick_5">
     <g id="line2d_29">
      <path clip-path="url(#paef6850abd)" d="M 57.6 64.894099 
L 338.688 64.894099 
" style="fill:none;stroke:#b0b0b0;stroke-linecap:square;stroke-width:0.8;"/>
     </g>
     <g id="line2d_30">
      <g>
       <use style="stroke:#000000;stroke-width:0.8;" x="57.6" xlink:href="#m9d293a3858" y="64.894099"/>
      </g>
     </g>
     <g id="text_10">
      <!-- 0.8 -->
      <g transform="translate(25.155 70.972849)scale(0.16 -0.16)">
       <defs>
        <path d="M 31.78125 34.625 
Q 24.75 34.625 20.71875 30.859375 
Q 16.703125 27.09375 16.703125 20.515625 
Q 16.703125 13.921875 20.71875 10.15625 
Q 24.75 6.390625 31.78125 6.390625 
Q 38.8125 6.390625 42.859375 10.171875 
Q 46.921875 13.96875 46.921875 20.515625 
Q 46.921875 27.09375 42.890625 30.859375 
Q 38.875 34.625 31.78125 34.625 
z
M 21.921875 38.8125 
Q 15.578125 40.375 12.03125 44.71875 
Q 8.5 49.078125 8.5 55.328125 
Q 8.5 64.0625 14.71875 69.140625 
Q 20.953125 74.21875 31.78125 74.21875 
Q 42.671875 74.21875 48.875 69.140625 
Q 55.078125 64.0625 55.078125 55.328125 
Q 55.078125 49.078125 51.53125 44.71875 
Q 48 40.375 41.703125 38.8125 
Q 48.828125 37.15625 52.796875 32.3125 
Q 56.78125 27.484375 56.78125 20.515625 
Q 56.78125 9.90625 50.3125 4.234375 
Q 43.84375 -1.421875 31.78125 -1.421875 
Q 19.734375 -1.421875 13.25 4.234375 
Q 6.78125 9.90625 6.78125 20.515625 
Q 6.78125 27.484375 10.78125 32.3125 
Q 14.796875 37.15625 21.921875 38.8125 
z
M 18.3125 54.390625 
Q 18.3125 48.734375 21.84375 45.5625 
Q 25.390625 42.390625 31.78125 42.390625 
Q 38.140625 42.390625 41.71875 45.5625 
Q 45.3125 48.734375 45.3125 54.390625 
Q 45.3125 60.0625 41.71875 63.234375 
Q 38.140625 66.40625 31.78125 66.40625 
Q 25.390625 66.40625 21.84375 63.234375 
Q 18.3125 60.0625 18.3125 54.390625 
z
" id="DejaVuSans-56"/>
       </defs>
       <use xlink:href="#DejaVuSans-48"/>
       <use x="63.623047" xlink:href="#DejaVuSans-46"/>
       <use x="95.410156" xlink:href="#DejaVuSans-56"/>
      </g>
     </g>
    </g>
    <g id="ytick_6">
     <g id="line2d_31">
      <path clip-path="url(#paef6850abd)" d="M 57.6 6.381624 
L 338.688 6.381624 
" style="fill:none;stroke:#b0b0b0;stroke-linecap:square;stroke-width:0.8;"/>
     </g>
     <g id="line2d_32">
      <g>
       <use style="stroke:#000000;stroke-width:0.8;" x="57.6" xlink:href="#m9d293a3858" y="6.381624"/>
      </g>
     </g>
     <g id="text_11">
      <!-- 1.0 -->
      <g transform="translate(25.155 12.460374)scale(0.16 -0.16)">
       <use xlink:href="#DejaVuSans-49"/>
       <use x="63.623047" xlink:href="#DejaVuSans-46"/>
       <use x="95.410156" xlink:href="#DejaVuSans-48"/>
      </g>
     </g>
    </g>
    <g id="text_12">
     <!-- Fraction of function,target pairs -->
     <g transform="translate(17.619531 285.585)rotate(-90)scale(0.17 -0.17)">
      <defs>
       <path d="M 9.8125 72.90625 
L 51.703125 72.90625 
L 51.703125 64.59375 
L 19.671875 64.59375 
L 19.671875 43.109375 
L 48.578125 43.109375 
L 48.578125 34.8125 
L 19.671875 34.8125 
L 19.671875 0 
L 9.8125 0 
z
" id="DejaVuSans-70"/>
       <path d="M 41.109375 46.296875 
Q 39.59375 47.171875 37.8125 47.578125 
Q 36.03125 48 33.890625 48 
Q 26.265625 48 22.1875 43.046875 
Q 18.109375 38.09375 18.109375 28.8125 
L 18.109375 0 
L 9.078125 0 
L 9.078125 54.6875 
L 18.109375 54.6875 
L 18.109375 46.1875 
Q 20.953125 51.171875 25.484375 53.578125 
Q 30.03125 56 36.53125 56 
Q 37.453125 56 38.578125 55.875 
Q 39.703125 55.765625 41.0625 55.515625 
z
" id="DejaVuSans-114"/>
       <path d="M 48.78125 52.59375 
L 48.78125 44.1875 
Q 44.96875 46.296875 41.140625 47.34375 
Q 37.3125 48.390625 33.40625 48.390625 
Q 24.65625 48.390625 19.8125 42.84375 
Q 14.984375 37.3125 14.984375 27.296875 
Q 14.984375 17.28125 19.8125 11.734375 
Q 24.65625 6.203125 33.40625 6.203125 
Q 37.3125 6.203125 41.140625 7.25 
Q 44.96875 8.296875 48.78125 10.40625 
L 48.78125 2.09375 
Q 45.015625 0.34375 40.984375 -0.53125 
Q 36.96875 -1.421875 32.421875 -1.421875 
Q 20.0625 -1.421875 12.78125 6.34375 
Q 5.515625 14.109375 5.515625 27.296875 
Q 5.515625 40.671875 12.859375 48.328125 
Q 20.21875 56 33.015625 56 
Q 37.15625 56 41.109375 55.140625 
Q 45.0625 54.296875 48.78125 52.59375 
z
" id="DejaVuSans-99"/>
       <path d="M 18.3125 70.21875 
L 18.3125 54.6875 
L 36.8125 54.6875 
L 36.8125 47.703125 
L 18.3125 47.703125 
L 18.3125 18.015625 
Q 18.3125 11.328125 20.140625 9.421875 
Q 21.96875 7.515625 27.59375 7.515625 
L 36.8125 7.515625 
L 36.8125 0 
L 27.59375 0 
Q 17.1875 0 13.234375 3.875 
Q 9.28125 7.765625 9.28125 18.015625 
L 9.28125 47.703125 
L 2.6875 47.703125 
L 2.6875 54.6875 
L 9.28125 54.6875 
L 9.28125 70.21875 
z
" id="DejaVuSans-116"/>
       <path d="M 8.5 21.578125 
L 8.5 54.6875 
L 17.484375 54.6875 
L 17.484375 21.921875 
Q 17.484375 14.15625 20.5 10.265625 
Q 23.53125 6.390625 29.59375 6.390625 
Q 36.859375 6.390625 41.078125 11.03125 
Q 45.3125 15.671875 45.3125 23.6875 
L 45.3125 54.6875 
L 54.296875 54.6875 
L 54.296875 0 
L 45.3125 0 
L 45.3125 8.40625 
Q 42.046875 3.421875 37.71875 1 
Q 33.40625 -1.421875 27.6875 -1.421875 
Q 18.265625 -1.421875 13.375 4.4375 
Q 8.5 10.296875 8.5 21.578125 
z
M 31.109375 56 
z
" id="DejaVuSans-117"/>
       <path d="M 11.71875 12.40625 
L 22.015625 12.40625 
L 22.015625 4 
L 14.015625 -11.625 
L 7.71875 -11.625 
L 11.71875 4 
z
" id="DejaVuSans-44"/>
       <path d="M 18.109375 8.203125 
L 18.109375 -20.796875 
L 9.078125 -20.796875 
L 9.078125 54.6875 
L 18.109375 54.6875 
L 18.109375 46.390625 
Q 20.953125 51.265625 25.265625 53.625 
Q 29.59375 56 35.59375 56 
Q 45.5625 56 51.78125 48.09375 
Q 58.015625 40.1875 58.015625 27.296875 
Q 58.015625 14.40625 51.78125 6.484375 
Q 45.5625 -1.421875 35.59375 -1.421875 
Q 29.59375 -1.421875 25.265625 0.953125 
Q 20.953125 3.328125 18.109375 8.203125 
z
M 48.6875 27.296875 
Q 48.6875 37.203125 44.609375 42.84375 
Q 40.53125 48.484375 33.40625 48.484375 
Q 26.265625 48.484375 22.1875 42.84375 
Q 18.109375 37.203125 18.109375 27.296875 
Q 18.109375 17.390625 22.1875 11.75 
Q 26.265625 6.109375 33.40625 6.109375 
Q 40.53125 6.109375 44.609375 11.75 
Q 48.6875 17.390625 48.6875 27.296875 
z
" id="DejaVuSans-112"/>
      </defs>
      <use xlink:href="#DejaVuSans-70"/>
      <use x="50.269531" xlink:href="#DejaVuSans-114"/>
      <use x="91.382812" xlink:href="#DejaVuSans-97"/>
      <use x="152.662109" xlink:href="#DejaVuSans-99"/>
      <use x="207.642578" xlink:href="#DejaVuSans-116"/>
      <use x="246.851562" xlink:href="#DejaVuSans-105"/>
      <use x="274.634766" xlink:href="#DejaVuSans-111"/>
      <use x="335.816406" xlink:href="#DejaVuSans-110"/>
      <use x="399.195312" xlink:href="#DejaVuSans-32"/>
      <use x="430.982422" xlink:href="#DejaVuSans-111"/>
      <use x="492.164062" xlink:href="#DejaVuSans-102"/>
      <use x="527.369141" xlink:href="#DejaVuSans-32"/>
      <use x="559.15625" xlink:href="#DejaVuSans-102"/>
      <use x="594.361328" xlink:href="#DejaVuSans-117"/>
      <use x="657.740234" xlink:href="#DejaVuSans-110"/>
      <use x="721.119141" xlink:href="#DejaVuSans-99"/>
      <use x="776.099609" xlink:href="#DejaVuSans-116"/>
      <use x="815.308594" xlink:href="#DejaVuSans-105"/>
      <use x="843.091797" xlink:href="#DejaVuSans-111"/>
      <use x="904.273438" xlink:href="#DejaVuSans-110"/>
      <use x="967.652344" xlink:href="#DejaVuSans-44"/>
      <use x="999.439453" xlink:href="#DejaVuSans-116"/>
      <use x="1038.648438" xlink:href="#DejaVuSans-97"/>
      <use x="1099.927734" xlink:href="#DejaVuSans-114"/>
      <use x="1139.291016" xlink:href="#DejaVuSans-103"/>
      <use x="1202.767578" xlink:href="#DejaVuSans-101"/>
      <use x="1264.291016" xlink:href="#DejaVuSans-116"/>
      <use x="1303.5" xlink:href="#DejaVuSans-32"/>
      <use x="1335.287109" xlink:href="#DejaVuSans-112"/>
      <use x="1398.763672" xlink:href="#DejaVuSans-97"/>
      <use x="1460.042969" xlink:href="#DejaVuSans-105"/>
      <use x="1487.826172" xlink:href="#DejaVuSans-114"/>
      <use x="1528.939453" xlink:href="#DejaVuSans-115"/>
     </g>
    </g>
   </g>
   <g id="line2d_33">
    <defs>
     <path d="M 0 1.5 
C 0.397805 1.5 0.77937 1.341951 1.06066 1.06066 
C 1.341951 0.77937 1.5 0.397805 1.5 0 
C 1.5 -0.397805 1.341951 -0.77937 1.06066 -1.06066 
C 0.77937 -1.341951 0.397805 -1.5 0 -1.5 
C -0.397805 -1.5 -0.77937 -1.341951 -1.06066 -1.06066 
C -1.341951 -0.77937 -1.5 -0.397805 -1.5 0 
C -1.5 0.397805 -1.341951 0.77937 -1.06066 1.06066 
C -0.77937 1.341951 -0.397805 1.5 0 1.5 
z
" id="me68e609a38" style="stroke:#f5deb3;"/>
    </defs>
    <g>
     <use style="fill:#f5deb3;stroke:#f5deb3;" x="333.698792" xlink:href="#me68e609a38" y="14.747378"/>
     <use style="fill:#f5deb3;stroke:#f5deb3;" x="333.698792" xlink:href="#me68e609a38" y="14.747378"/>
    </g>
   </g>
   <g id="line2d_34">
    <defs>
     <path d="M 0 1.5 
C 0.397805 1.5 0.77937 1.341951 1.06066 1.06066 
C 1.341951 0.77937 1.5 0.397805 1.5 0 
C 1.5 -0.397805 1.341951 -0.77937 1.06066 -1.06066 
C 0.77937 -1.341951 0.397805 -1.5 0 -1.5 
C -0.397805 -1.5 -0.77937 -1.341951 -1.06066 -1.06066 
C -1.341951 -0.77937 -1.5 -0.397805 -1.5 0 
C -1.5 0.397805 -1.341951 0.77937 -1.06066 1.06066 
C -0.77937 1.341951 -0.397805 1.5 0 1.5 
z
" id="m7172777315" style="stroke:#000080;"/>
    </defs>
    <g>
     <use style="fill:#000080;stroke:#000080;" x="258.193058" xlink:href="#m7172777315" y="279.344233"/>
     <use style="fill:#000080;stroke:#000080;" x="258.193058" xlink:href="#m7172777315" y="279.344233"/>
    </g>
   </g>
   <g id="line2d_35">
    <path d="M -1 296.290861 
L 5.356583 296.290861 
L 5.356583 295.860622 
L 12.427603 295.860622 
L 12.427603 295.669405 
L 21.336035 295.573796 
L 21.336035 295.50209 
L 29.53256 295.406481 
L 29.53256 295.28697 
L 39.291857 295.191362 
L 39.291857 295.16746 
L 41.620548 295.071851 
L 41.620548 295.047949 
L 44.617493 294.95234 
L 44.617493 294.904536 
L 47.949359 294.808927 
L 47.949359 294.785025 
L 52.583031 294.689416 
L 52.583031 294.665514 
L 58.450865 294.569906 
L 58.450865 294.546003 
L 60.412401 294.474297 
L 60.412401 294.426493 
L 62.833608 294.354786 
L 62.833608 294.306982 
L 64.67102 294.211373 
L 64.67102 294.163569 
L 68.091122 294.06796 
L 68.091122 294.044058 
L 73.048265 293.94845 
L 73.048265 293.924547 
L 76.903734 293.876743 
L 76.903734 293.757232 
L 77.470915 293.685526 
L 77.470915 293.637722 
L 78.941764 293.542113 
L 78.941764 293.518211 
L 85.580025 293.422602 
L 85.580025 293.3987 
L 86.182924 293.326994 
L 86.182924 293.279189 
L 87.250131 293.183581 
L 87.329581 293.135776 
L 90.442955 293.040168 
L 90.442955 293.016266 
L 93.083804 292.920657 
L 93.083804 292.896755 
L 96.110718 292.801146 
L 96.110718 292.777244 
L 101.258944 292.681635 
L 101.258944 292.657733 
L 108.365591 292.562125 
L 108.389302 292.51432 
L 110.188761 292.418712 
L 110.188761 292.39481 
L 114.668593 292.299201 
L 114.668593 292.275299 
L 116.502698 292.17969 
L 116.547281 292.131886 
L 121.298795 292.036277 
L 121.298795 292.012375 
L 123.080737 291.916766 
L 123.080737 291.892864 
L 127.165014 291.797256 
L 127.165014 291.773354 
L 129.26923 291.677745 
L 129.26923 291.629941 
L 130.304155 291.534332 
L 130.304155 291.51043 
L 132.368694 291.414821 
L 132.440436 291.367017 
L 134.03029 291.271408 
L 134.03029 291.247506 
L 135.696392 291.151897 
L 135.696392 291.127995 
L 136.928924 291.032387 
L 136.993377 290.984582 
L 139.906681 290.888974 
L 139.906681 290.865072 
L 140.272217 290.769463 
L 140.272217 290.745561 
L 141.9793 290.649952 
L 141.9793 290.62605 
L 142.844792 290.530441 
L 142.930005 290.458735 
L 145.01382 290.363126 
L 145.039911 290.315322 
L 146.175372 290.219713 
L 146.175372 290.195811 
L 146.838461 290.100203 
L 146.838461 290.076301 
L 147.814056 289.980692 
L 147.846147 289.932888 
L 149.113504 289.837279 
L 149.113504 289.813377 
L 149.373015 289.74167 
L 149.373015 289.669964 
L 150.756035 289.574355 
L 150.756035 289.550453 
L 151.676833 289.454844 
L 151.676833 289.430942 
L 151.846282 289.430942 
L 151.846282 289.311432 
L 152.903762 289.215823 
L 152.953518 289.144116 
L 154.185999 289.048508 
L 154.196284 289.000704 
L 155.274387 288.905095 
L 155.274387 288.881193 
L 155.788651 288.785584 
L 155.802722 288.73778 
L 156.641751 288.642171 
L 156.644729 288.52266 
L 157.338101 288.427052 
L 157.346685 288.331443 
L 157.874997 288.235835 
L 157.874997 288.211932 
L 158.628651 288.140226 
L 158.637951 288.044617 
L 159.396922 287.949009 
L 159.504686 287.877302 
L 159.698248 287.781694 
L 159.698248 287.757791 
L 160.168092 287.662183 
L 160.274836 287.590476 
L 161.019363 287.494868 
L 161.03442 287.447063 
L 161.854219 287.351455 
L 161.854219 287.327553 
L 162.268992 287.231944 
L 162.268992 287.208042 
L 162.812686 287.112433 
L 162.885719 287.040727 
L 163.114309 286.96902 
L 163.143058 286.897314 
L 163.545657 286.801705 
L 163.545657 286.777803 
L 164.484329 286.682195 
L 164.534604 286.63439 
L 164.994519 286.538782 
L 164.994519 286.514879 
L 165.751867 286.419271 
L 165.751867 286.395369 
L 166.412321 286.29976 
L 166.471757 286.251956 
L 166.959057 286.156347 
L 167.010909 286.108543 
L 167.599169 286.012934 
L 167.665786 285.96513 
L 168.269454 285.869521 
L 168.282447 285.797815 
L 169.509608 285.726108 
L 169.51388 285.6305 
L 169.97755 285.534891 
L 170.023246 285.463185 
L 170.572512 285.367576 
L 170.678055 285.29587 
L 171.08745 285.200261 
L 171.105655 285.152457 
L 171.603414 285.056848 
L 171.705428 284.985142 
L 172.04677 284.937337 
L 172.148067 284.770022 
L 172.875808 284.674414 
L 172.885786 284.602707 
L 173.237227 284.507098 
L 173.32957 284.459294 
L 173.611582 284.363685 
L 173.61946 284.315881 
L 174.008357 284.220273 
L 174.008357 284.19637 
L 174.532984 284.100762 
L 174.532984 284.07686 
L 174.915306 283.981251 
L 174.998678 283.909545 
L 175.816143 283.813936 
L 175.816143 283.790034 
L 176.423013 283.694425 
L 176.440729 283.646621 
L 177.111544 283.551012 
L 177.111544 283.52711 
L 177.406528 283.431501 
L 177.44181 283.383697 
L 177.796074 283.288089 
L 177.796074 283.264186 
L 178.241539 283.168578 
L 178.241539 283.144676 
L 178.852256 283.049067 
L 178.896793 282.953458 
L 179.162065 282.85785 
L 179.246611 282.810045 
L 179.99432 282.714437 
L 180.075325 282.64273 
L 180.481631 282.547122 
L 180.543017 282.475415 
L 181.043026 282.379807 
L 181.140161 282.3081 
L 181.506205 282.212492 
L 181.506205 282.188589 
L 185.459553 282.092981 
L 185.459553 282.069079 
L 189.217943 281.97347 
L 189.217943 281.949568 
L 192.52496 281.853959 
L 192.52496 281.830057 
L 193.201628 281.734448 
L 193.201628 281.710546 
L 193.945347 281.614938 
L 193.971112 281.543231 
L 198.902886 281.447623 
L 198.902886 281.399818 
L 200.223952 281.30421 
L 200.282225 281.256405 
L 200.839017 281.184699 
L 200.839017 281.08909 
L 204.494859 280.993482 
L 204.494859 280.969579 
L 205.477138 280.897873 
L 205.477138 280.850069 
L 205.976502 280.75446 
L 206.076606 280.682754 
L 209.683898 280.587145 
L 209.683898 280.563243 
L 212.71241 280.467634 
L 212.76501 280.41983 
L 214.970002 280.348123 
L 214.970002 280.300319 
L 217.414221 280.204711 
L 217.436263 280.156906 
L 219.944352 280.061298 
L 219.944352 280.037395 
L 221.980449 279.941787 
L 222.084169 279.87008 
L 227.956305 279.774472 
L 227.956305 279.726667 
L 230.74379 279.631059 
L 230.74379 279.607157 
L 239.189646 279.511548 
L 239.189646 279.487646 
L 247.532919 279.392037 
L 247.532919 279.368135 
L 338.688 279.344233 
L 338.688 279.344233 
" style="fill:none;stroke:#000080;stroke-linecap:square;stroke-width:1.5;"/>
   </g>
   <g id="line2d_36">
    <defs>
     <path d="M 0 6 
C 1.591219 6 3.117479 5.367802 4.242641 4.242641 
C 5.367802 3.117479 6 1.591219 6 0 
C 6 -1.591219 5.367802 -3.117479 4.242641 -4.242641 
C 3.117479 -5.367802 1.591219 -6 0 -6 
C -1.591219 -6 -3.117479 -5.367802 -4.242641 -4.242641 
C -5.367802 -3.117479 -6 -1.591219 -6 0 
C -6 1.591219 -5.367802 3.117479 -4.242641 4.242641 
C -3.117479 5.367802 -1.591219 6 0 6 
z
" id="m651a9e4a9b" style="stroke:#000080;stroke-width:1.5;"/>
    </defs>
    <g>
     <use style="fill-opacity:0;stroke:#000080;stroke-width:1.5;" x="104.709797" xlink:href="#m651a9e4a9b" y="292.586027"/>
     <use style="fill-opacity:0;stroke:#000080;stroke-width:1.5;" x="205.477138" xlink:href="#m651a9e4a9b" y="280.897873"/>
     <use style="fill-opacity:0;stroke:#000080;stroke-width:1.5;" x="258.193058" xlink:href="#m651a9e4a9b" y="279.368135"/>
     <use style="fill-opacity:0;stroke:#000080;stroke-width:1.5;" x="258.193058" xlink:href="#m651a9e4a9b" y="279.344233"/>
     <use style="fill-opacity:0;stroke:#000080;stroke-width:1.5;" x="338.688" xlink:href="#m651a9e4a9b" y="279.344233"/>
    </g>
   </g>
   <g id="line2d_37">
    <path style="fill:none;stroke:#000080;stroke-linecap:square;stroke-width:1.5;"/>
    <g/>
   </g>
   <g id="line2d_38">
    <path clip-path="url(#paef6850abd)" d="M 181.943792 282.092981 
" style="fill:none;stroke:#000080;stroke-linecap:square;stroke-width:1.5;"/>
    <defs>
     <path d="M -12 12 
L 12 -12 
M -12 -12 
L 12 12 
" id="mbe9309aabd" style="stroke:#000080;"/>
    </defs>
    <g clip-path="url(#paef6850abd)">
     <use style="fill:#000080;stroke:#000080;" x="181.943792" xlink:href="#mbe9309aabd" y="282.092981"/>
    </g>
   </g>
   <g id="line2d_39">
    <defs>
     <path d="M 0 1.5 
C 0.397805 1.5 0.77937 1.341951 1.06066 1.06066 
C 1.341951 0.77937 1.5 0.397805 1.5 0 
C 1.5 -0.397805 1.341951 -0.77937 1.06066 -1.06066 
C 0.77937 -1.341951 0.397805 -1.5 0 -1.5 
C -0.397805 -1.5 -0.77937 -1.341951 -1.06066 -1.06066 
C -1.341951 -0.77937 -1.5 -0.397805 -1.5 0 
C -1.5 0.397805 -1.341951 0.77937 -1.06066 1.06066 
C -0.77937 1.341951 -0.397805 1.5 0 1.5 
z
" id="m38874547b9" style="stroke:#ff00ff;"/>
    </defs>
    <g>
     <use style="fill:#ff00ff;stroke:#ff00ff;" x="252.487231" xlink:href="#m38874547b9" y="264.763918"/>
     <use style="fill:#ff00ff;stroke:#ff00ff;" x="252.487231" xlink:href="#m38874547b9" y="264.763918"/>
    </g>
   </g>
   <g id="line2d_40">
    <path d="M -1 296.243056 
L 5.356583 296.243056 
L 5.356583 295.908426 
L 12.427603 295.908426 
L 12.427603 295.669405 
L 21.336035 295.573796 
L 21.336035 295.454285 
L 24.515591 295.454285 
L 24.515591 295.28697 
L 27.203868 295.28697 
L 27.203868 295.16746 
L 33.424023 295.095753 
L 33.424023 295.024047 
L 37.999467 294.976242 
L 37.999467 294.904536 
L 42.677798 294.808927 
L 42.677798 294.761123 
L 45.512012 294.665514 
L 45.512012 294.641612 
L 58.450865 294.546003 
L 58.450865 294.522101 
L 69.687988 294.426493 
L 69.687988 294.402591 
L 83.732873 294.306982 
L 83.830028 294.259178 
L 87.170317 294.163569 
L 87.250131 294.115765 
L 89.972502 294.020156 
L 89.972502 293.996254 
L 91.472879 293.900645 
L 91.535274 293.852841 
L 94.294587 293.757232 
L 94.294587 293.709428 
L 97.134116 293.613819 
L 97.134116 293.589917 
L 98.606294 293.494309 
L 98.689141 293.446504 
L 101.958007 293.350896 
L 102.060491 293.279189 
L 102.761494 293.183581 
L 102.761494 293.159679 
L 104.17499 293.06407 
L 104.265272 293.016266 
L 105.815175 292.920657 
L 105.897371 292.872853 
L 107.688252 292.777244 
L 107.688252 292.753342 
L 108.648015 292.657733 
L 108.648015 292.609929 
L 109.930396 292.51432 
L 109.930396 292.490418 
L 110.401178 292.39481 
L 110.401178 292.370907 
L 112.147567 292.275299 
L 112.147567 292.251397 
L 112.803609 292.155788 
L 112.803609 292.131886 
L 113.541985 292.036277 
L 113.541985 292.012375 
L 114.469094 291.916766 
L 114.552496 291.868962 
L 115.850828 291.773354 
L 115.943263 291.677745 
L 116.38325 291.582136 
L 116.398226 291.534332 
L 116.695072 291.438723 
L 116.783149 291.367017 
L 117.202696 291.271408 
L 117.202696 291.247506 
L 117.834369 291.151897 
L 117.889426 291.080191 
L 118.107932 290.984582 
L 118.189171 290.912876 
L 118.563361 290.817267 
L 118.602981 290.769463 
L 118.929691 290.673854 
L 118.955566 290.62605 
L 119.110011 290.554344 
L 119.148409 290.482637 
L 119.763903 290.387029 
L 119.874629 290.315322 
L 120.571812 290.219713 
L 120.607126 290.171909 
L 121.366476 290.076301 
L 121.366476 290.052398 
L 121.712041 289.95679 
L 121.712041 289.932888 
L 121.909593 289.837279 
L 122.018385 289.789475 
L 122.340747 289.717768 
L 122.425713 289.646062 
L 122.80302 289.550453 
L 122.906394 289.430942 
L 123.313873 289.335334 
L 123.344053 289.287529 
L 123.652898 289.191921 
L 123.751369 289.144116 
L 123.849288 289.048508 
L 123.936947 288.976801 
L 124.178158 288.881193 
L 124.254646 288.713878 
L 124.632135 288.618269 
L 124.706662 288.52266 
L 124.946698 288.427052 
L 124.974183 288.379248 
L 125.147256 288.307541 
L 125.147256 288.235835 
L 125.514979 288.140226 
L 125.603504 288.06852 
L 125.849008 287.972911 
L 125.935857 287.709987 
L 126.176759 287.614379 
L 126.261995 287.494868 
L 126.321413 287.494868 
L 126.321413 287.375357 
L 126.598834 287.327553 
L 126.598834 287.255846 
L 126.748314 287.160238 
L 126.830809 287.016825 
L 126.97016 286.921216 
L 127.059738 286.801705 
L 127.277682 286.706097 
L 127.381654 286.562684 
L 127.469149 286.467075 
L 127.579875 286.371467 
L 127.814803 286.275858 
L 127.853652 286.180249 
L 128.038932 286.084641 
L 128.107907 286.036836 
L 128.313212 285.941228 
L 128.32077 285.869521 
L 128.583245 285.773913 
L 128.583245 285.75001 
L 128.878458 285.654402 
L 128.91501 285.558793 
L 129.096633 285.510989 
L 129.161557 285.367576 
L 129.340644 285.271967 
L 129.404667 285.200261 
L 129.672427 285.104652 
L 129.763094 284.985142 
L 129.977414 284.889533 
L 130.066513 284.74612 
L 130.243356 284.674414 
L 130.283912 284.602707 
L 130.485292 284.507098 
L 130.585116 284.387588 
L 130.76994 284.291979 
L 130.828934 284.244175 
L 131.172353 284.148566 
L 131.197999 284.052957 
L 131.821009 283.957349 
L 131.895035 283.909545 
L 132.188037 283.813936 
L 132.28462 283.766132 
L 132.428499 283.670523 
L 132.511884 283.574914 
L 132.92293 283.479306 
L 132.946128 283.431501 
L 133.084673 283.359795 
L 133.130612 283.288089 
L 133.533096 283.19248 
L 133.628103 283.120773 
L 133.82209 283.025165 
L 133.910056 282.905654 
L 134.316585 282.810045 
L 134.418085 282.738339 
L 134.781801 282.64273 
L 134.813073 282.547122 
L 135.189123 282.451513 
L 135.280614 282.355904 
L 135.607061 282.260296 
L 135.607061 282.236394 
L 136.029793 282.140785 
L 136.13148 281.97347 
L 136.399782 281.877861 
L 136.475687 281.830057 
L 136.997972 281.734448 
L 137.085043 281.662742 
L 137.325651 281.567133 
L 137.420076 281.471525 
L 137.580766 281.375916 
L 137.607405 281.328112 
L 138.01518 281.232503 
L 138.028177 281.184699 
L 138.392446 281.08909 
L 138.455946 281.041286 
L 138.959898 280.945677 
L 139.066311 280.850069 
L 139.37369 280.75446 
L 139.473629 280.682754 
L 139.734748 280.587145 
L 139.734748 280.563243 
L 140.521732 280.467634 
L 140.521732 280.443732 
L 141.090414 280.348123 
L 141.191848 280.228613 
L 141.513945 280.133004 
L 141.531666 280.0852 
L 142.041337 279.989591 
L 142.140824 279.893983 
L 142.519806 279.798374 
L 142.629918 279.726667 
L 142.936543 279.631059 
L 142.936543 279.607157 
L 143.451774 279.511548 
L 143.464461 279.463744 
L 143.890442 279.368135 
L 143.890442 279.344233 
L 144.504543 279.248624 
L 144.55823 279.20082 
L 145.008016 279.105211 
L 145.008016 279.081309 
L 145.355693 278.985701 
L 145.423837 278.937896 
L 145.738371 278.842288 
L 145.738371 278.818386 
L 146.194362 278.722777 
L 146.194362 278.698875 
L 146.976404 278.603266 
L 147.043678 278.555462 
L 147.557683 278.459853 
L 147.557683 278.435951 
L 148.178381 278.340342 
L 148.212225 278.268636 
L 148.53525 278.173027 
L 148.61095 278.125223 
L 149.25057 278.029614 
L 149.25057 278.005712 
L 150.803977 277.910104 
L 150.87668 277.862299 
L 152.097407 277.766691 
L 152.097407 277.742789 
L 152.705175 277.64718 
L 152.736878 277.599376 
L 153.681537 277.503767 
L 153.781849 277.455963 
L 154.637894 277.360354 
L 154.637894 277.336452 
L 155.362761 277.240843 
L 155.362761 277.216941 
L 156.801868 277.121333 
L 156.801868 277.09743 
L 157.069866 277.001822 
L 157.069866 276.97792 
L 157.888868 276.882311 
L 157.929033 276.834507 
L 159.205111 276.738898 
L 159.260313 276.691094 
L 160.341221 276.595485 
L 160.416953 276.523779 
L 160.663495 276.42817 
L 160.73902 276.380366 
L 161.544407 276.284757 
L 161.544407 276.260855 
L 162.082474 276.165246 
L 162.184655 276.117442 
L 162.508946 276.021833 
L 162.600202 275.950127 
L 163.295251 275.854518 
L 163.384517 275.806714 
L 163.552673 275.711105 
L 163.552673 275.687203 
L 164.142823 275.591595 
L 164.142823 275.567692 
L 164.983445 275.472084 
L 164.983445 275.448182 
L 166.172531 275.352573 
L 166.271416 275.233062 
L 167.271933 275.137454 
L 167.299438 275.089649 
L 168.147455 274.994041 
L 168.239608 274.946236 
L 169.939378 274.850628 
L 169.971309 274.802824 
L 170.508744 274.707215 
L 170.605981 274.611606 
L 171.200275 274.515998 
L 171.266721 274.468193 
L 172.549864 274.372585 
L 172.61137 274.32478 
L 173.306673 274.229172 
L 173.306673 274.20527 
L 174.331614 274.109661 
L 174.331614 274.085759 
L 175.747557 273.99015 
L 175.747557 273.966248 
L 176.633009 273.870639 
L 176.72836 273.798933 
L 177.480178 273.703324 
L 177.480178 273.679422 
L 180.886477 273.583814 
L 180.895746 273.536009 
L 182.777029 273.440401 
L 182.880879 273.177477 
L 182.951527 273.081868 
L 183.04976 272.890651 
L 183.169257 272.795043 
L 183.277596 272.675532 
L 183.385909 272.603825 
L 183.457746 272.43651 
L 183.661694 272.340902 
L 183.718854 272.197489 
L 183.92197 272.125782 
L 183.95155 272.006271 
L 184.145838 271.910663 
L 184.198981 271.862858 
L 184.387816 271.791152 
L 184.387816 271.743348 
L 185.645169 271.647739 
L 185.701822 271.576033 
L 187.890237 271.480424 
L 187.930153 271.43262 
L 188.529914 271.337011 
L 188.529914 271.313109 
L 191.423807 271.2175 
L 191.423807 271.193598 
L 191.823944 271.09799 
L 191.823944 271.074087 
L 194.455419 270.978479 
L 194.535976 270.835066 
L 194.698669 270.739457 
L 194.799336 270.691653 
L 194.915692 270.619946 
L 194.978789 270.500436 
L 195.116769 270.428729 
L 195.185352 270.285316 
L 196.560254 270.189708 
L 196.560254 270.165805 
L 197.447674 270.070197 
L 197.447674 270.022393 
L 197.977056 269.926784 
L 197.977056 269.902882 
L 199.113598 269.831175 
L 199.144218 269.759469 
L 201.405588 269.66386 
L 201.487273 269.592154 
L 201.570729 269.496545 
L 201.66686 269.400937 
L 201.792911 269.32923 
L 201.877036 269.185817 
L 203.095723 269.090209 
L 203.095723 269.066306 
L 204.653337 268.9946 
L 204.653337 268.922893 
L 206.380568 268.827285 
L 206.450322 268.731676 
L 206.658858 268.636068 
L 206.71284 268.540459 
L 208.506733 268.44485 
L 208.506733 268.397046 
L 210.269572 268.301437 
L 210.357465 268.205829 
L 210.521225 268.134122 
L 210.521225 268.062416 
L 211.948726 267.990709 
L 211.948726 267.942905 
L 213.481966 267.847296 
L 213.547867 267.77559 
L 214.905106 267.679981 
L 214.905106 267.656079 
L 216.164938 267.560471 
L 216.254235 267.44096 
L 218.361582 267.345351 
L 218.429912 267.297547 
L 218.533386 267.22584 
L 218.62407 267.082427 
L 220.461145 266.986819 
L 220.553081 266.867308 
L 222.291434 266.771699 
L 222.347136 266.652189 
L 223.948719 266.55658 
L 224.00254 266.460971 
L 225.431953 266.365363 
L 225.53456 266.269754 
L 227.680423 266.174146 
L 227.680423 266.150243 
L 228.148444 266.054635 
L 228.166275 266.006831 
L 228.90381 265.935124 
L 228.90381 265.863418 
L 230.376194 265.791711 
L 230.421457 265.720005 
L 233.394668 265.624396 
L 233.430175 265.576592 
L 235.603325 265.480983 
L 235.603325 265.457081 
L 237.467659 265.361472 
L 237.467659 265.33757 
L 238.817558 265.241962 
L 238.876612 265.146353 
L 241.893912 265.050744 
L 241.893912 265.026842 
L 244.482921 264.931234 
L 244.482921 264.907331 
L 249.855673 264.811723 
L 249.855673 264.787821 
L 338.688 264.763918 
L 338.688 264.763918 
" style="fill:none;stroke:#ff00ff;stroke-linecap:square;stroke-width:1.5;"/>
   </g>
   <g id="line2d_41">
    <defs>
     <path d="M 0 8.485281 
L 5.091169 0 
L 0 -8.485281 
L -5.091169 0 
z
" id="mef27a4a96f" style="stroke:#ff00ff;stroke-linejoin:miter;stroke-width:1.5;"/>
    </defs>
    <g>
     <use style="fill-opacity:0;stroke:#ff00ff;stroke-linejoin:miter;stroke-width:1.5;" x="132.005488" xlink:href="#mef27a4a96f" y="283.86174"/>
     <use style="fill-opacity:0;stroke:#ff00ff;stroke-linejoin:miter;stroke-width:1.5;" x="195.498785" xlink:href="#mef27a4a96f" y="270.237512"/>
     <use style="fill-opacity:0;stroke:#ff00ff;stroke-linejoin:miter;stroke-width:1.5;" x="252.487231" xlink:href="#mef27a4a96f" y="264.787821"/>
     <use style="fill-opacity:0;stroke:#ff00ff;stroke-linejoin:miter;stroke-width:1.5;" x="252.487231" xlink:href="#mef27a4a96f" y="264.763918"/>
     <use style="fill-opacity:0;stroke:#ff00ff;stroke-linejoin:miter;stroke-width:1.5;" x="338.688" xlink:href="#mef27a4a96f" y="264.763918"/>
    </g>
   </g>
   <g id="line2d_42">
    <path style="fill:none;stroke:#ff00ff;stroke-linecap:square;stroke-width:1.5;"/>
    <g/>
   </g>
   <g id="line2d_43">
    <path clip-path="url(#paef6850abd)" d="M 181.957749 273.488205 
" style="fill:none;stroke:#ff00ff;stroke-linecap:square;stroke-width:1.5;"/>
    <defs>
     <path d="M -12 12 
L 12 -12 
M -12 -12 
L 12 12 
" id="m5089aff216" style="stroke:#ff00ff;"/>
    </defs>
    <g clip-path="url(#paef6850abd)">
     <use style="fill:#ff00ff;stroke:#ff00ff;" x="181.957749" xlink:href="#m5089aff216" y="273.488205"/>
    </g>
   </g>
   <g id="line2d_44">
    <path d="M 338.688 279.344233 
L 369.60768 293.092752 
" style="fill:none;stroke:#000080;stroke-linecap:square;stroke-width:1.5;"/>
    <g>
     <use style="fill-opacity:0;stroke:#000080;stroke-width:1.5;" x="338.688" xlink:href="#m651a9e4a9b" y="279.344233"/>
     <use style="fill-opacity:0;stroke:#000080;stroke-width:1.5;" x="369.60768" xlink:href="#m651a9e4a9b" y="293.092752"/>
    </g>
   </g>
   <g id="line2d_45">
    <path d="M 338.688 264.763918 
L 369.60768 152.662812 
" style="fill:none;stroke:#ff00ff;stroke-linecap:square;stroke-width:1.5;"/>
    <g>
     <use style="fill-opacity:0;stroke:#ff00ff;stroke-linejoin:miter;stroke-width:1.5;" x="338.688" xlink:href="#mef27a4a96f" y="264.763918"/>
     <use style="fill-opacity:0;stroke:#ff00ff;stroke-linejoin:miter;stroke-width:1.5;" x="369.60768" xlink:href="#mef27a4a96f" y="152.662812"/>
    </g>
   </g>
   <g id="line2d_46">
    <path d="M 338.688 298.944 
L 338.688 6.381624 
" style="fill:none;stroke:#000000;stroke-linecap:square;stroke-width:1.5;"/>
   </g>
   <g id="patch_3">
    <path d="M 57.6 298.944 
L 57.6 3.456 
" style="fill:none;stroke:#000000;stroke-linecap:square;stroke-linejoin:miter;stroke-width:0.8;"/>
   </g>
   <g id="patch_4">
    <path d="M 338.688 298.944 
L 338.688 3.456 
" style="fill:none;stroke:#000000;stroke-linecap:square;stroke-linejoin:miter;stroke-width:0.8;"/>
   </g>
   <g id="patch_5">
    <path d="M 57.6 298.944 
L 338.688 298.944 
" style="fill:none;stroke:#000000;stroke-linecap:square;stroke-linejoin:miter;stroke-width:0.8;"/>
   </g>
   <g id="patch_6">
    <path d="M 57.6 3.456 
L 338.688 3.456 
" style="fill:none;stroke:#000000;stroke-linecap:square;stroke-linejoin:miter;stroke-width:0.8;"/>
   </g>
   <g id="text_13">
    <!-- DEPSOmax5 -->
    <g transform="translate(375.22944 297.78369)scale(0.17 -0.17)">
     <defs>
      <path d="M 19.671875 64.796875 
L 19.671875 8.109375 
L 31.59375 8.109375 
Q 46.6875 8.109375 53.6875 14.9375 
Q 60.6875 21.78125 60.6875 36.53125 
Q 60.6875 51.171875 53.6875 57.984375 
Q 46.6875 64.796875 31.59375 64.796875 
z
M 9.8125 72.90625 
L 30.078125 72.90625 
Q 51.265625 72.90625 61.171875 64.09375 
Q 71.09375 55.28125 71.09375 36.53125 
Q 71.09375 17.671875 61.125 8.828125 
Q 51.171875 0 30.078125 0 
L 9.8125 0 
z
" id="DejaVuSans-68"/>
      <path d="M 9.8125 72.90625 
L 55.90625 72.90625 
L 55.90625 64.59375 
L 19.671875 64.59375 
L 19.671875 43.015625 
L 54.390625 43.015625 
L 54.390625 34.71875 
L 19.671875 34.71875 
L 19.671875 8.296875 
L 56.78125 8.296875 
L 56.78125 0 
L 9.8125 0 
z
" id="DejaVuSans-69"/>
      <path d="M 19.671875 64.796875 
L 19.671875 37.40625 
L 32.078125 37.40625 
Q 38.96875 37.40625 42.71875 40.96875 
Q 46.484375 44.53125 46.484375 51.125 
Q 46.484375 57.671875 42.71875 61.234375 
Q 38.96875 64.796875 32.078125 64.796875 
z
M 9.8125 72.90625 
L 32.078125 72.90625 
Q 44.34375 72.90625 50.609375 67.359375 
Q 56.890625 61.8125 56.890625 51.125 
Q 56.890625 40.328125 50.609375 34.8125 
Q 44.34375 29.296875 32.078125 29.296875 
L 19.671875 29.296875 
L 19.671875 0 
L 9.8125 0 
z
" id="DejaVuSans-80"/>
      <path d="M 53.515625 70.515625 
L 53.515625 60.890625 
Q 47.90625 63.578125 42.921875 64.890625 
Q 37.9375 66.21875 33.296875 66.21875 
Q 25.25 66.21875 20.875 63.09375 
Q 16.5 59.96875 16.5 54.203125 
Q 16.5 49.359375 19.40625 46.890625 
Q 22.3125 44.4375 30.421875 42.921875 
L 36.375 41.703125 
Q 47.40625 39.59375 52.65625 34.296875 
Q 57.90625 29 57.90625 20.125 
Q 57.90625 9.515625 50.796875 4.046875 
Q 43.703125 -1.421875 29.984375 -1.421875 
Q 24.8125 -1.421875 18.96875 -0.25 
Q 13.140625 0.921875 6.890625 3.21875 
L 6.890625 13.375 
Q 12.890625 10.015625 18.65625 8.296875 
Q 24.421875 6.59375 29.984375 6.59375 
Q 38.421875 6.59375 43.015625 9.90625 
Q 47.609375 13.234375 47.609375 19.390625 
Q 47.609375 24.75 44.3125 27.78125 
Q 41.015625 30.8125 33.5 32.328125 
L 27.484375 33.5 
Q 16.453125 35.6875 11.515625 40.375 
Q 6.59375 45.0625 6.59375 53.421875 
Q 6.59375 63.09375 13.40625 68.65625 
Q 20.21875 74.21875 32.171875 74.21875 
Q 37.3125 74.21875 42.625 73.28125 
Q 47.953125 72.359375 53.515625 70.515625 
z
" id="DejaVuSans-83"/>
      <path d="M 39.40625 66.21875 
Q 28.65625 66.21875 22.328125 58.203125 
Q 16.015625 50.203125 16.015625 36.375 
Q 16.015625 22.609375 22.328125 14.59375 
Q 28.65625 6.59375 39.40625 6.59375 
Q 50.140625 6.59375 56.421875 14.59375 
Q 62.703125 22.609375 62.703125 36.375 
Q 62.703125 50.203125 56.421875 58.203125 
Q 50.140625 66.21875 39.40625 66.21875 
z
M 39.40625 74.21875 
Q 54.734375 74.21875 63.90625 63.9375 
Q 73.09375 53.65625 73.09375 36.375 
Q 73.09375 19.140625 63.90625 8.859375 
Q 54.734375 -1.421875 39.40625 -1.421875 
Q 24.03125 -1.421875 14.8125 8.828125 
Q 5.609375 19.09375 5.609375 36.375 
Q 5.609375 53.65625 14.8125 63.9375 
Q 24.03125 74.21875 39.40625 74.21875 
z
" id="DejaVuSans-79"/>
      <path d="M 54.890625 54.6875 
L 35.109375 28.078125 
L 55.90625 0 
L 45.3125 0 
L 29.390625 21.484375 
L 13.484375 0 
L 2.875 0 
L 24.125 28.609375 
L 4.6875 54.6875 
L 15.28125 54.6875 
L 29.78125 35.203125 
L 44.28125 54.6875 
z
" id="DejaVuSans-120"/>
      <path d="M 10.796875 72.90625 
L 49.515625 72.90625 
L 49.515625 64.59375 
L 19.828125 64.59375 
L 19.828125 46.734375 
Q 21.96875 47.46875 24.109375 47.828125 
Q 26.265625 48.1875 28.421875 48.1875 
Q 40.625 48.1875 47.75 41.5 
Q 54.890625 34.8125 54.890625 23.390625 
Q 54.890625 11.625 47.5625 5.09375 
Q 40.234375 -1.421875 26.90625 -1.421875 
Q 22.3125 -1.421875 17.546875 -0.640625 
Q 12.796875 0.140625 7.71875 1.703125 
L 7.71875 11.625 
Q 12.109375 9.234375 16.796875 8.0625 
Q 21.484375 6.890625 26.703125 6.890625 
Q 35.15625 6.890625 40.078125 11.328125 
Q 45.015625 15.765625 45.015625 23.390625 
Q 45.015625 31 40.078125 35.4375 
Q 35.15625 39.890625 26.703125 39.890625 
Q 22.75 39.890625 18.8125 39.015625 
Q 14.890625 38.140625 10.796875 36.28125 
z
" id="DejaVuSans-53"/>
     </defs>
     <use xlink:href="#DejaVuSans-68"/>
     <use x="77.001953" xlink:href="#DejaVuSans-69"/>
     <use x="140.185547" xlink:href="#DejaVuSans-80"/>
     <use x="200.488281" xlink:href="#DejaVuSans-83"/>
     <use x="263.964844" xlink:href="#DejaVuSans-79"/>
     <use x="342.675781" xlink:href="#DejaVuSans-109"/>
     <use x="440.087891" xlink:href="#DejaVuSans-97"/>
     <use x="501.367188" xlink:href="#DejaVuSans-120"/>
     <use x="560.546875" xlink:href="#DejaVuSans-53"/>
    </g>
   </g>
   <g id="text_14">
    <!-- SimpleDEm -->
    <g transform="translate(375.22944 157.353749)scale(0.17 -0.17)">
     <use xlink:href="#DejaVuSans-83"/>
     <use x="63.476562" xlink:href="#DejaVuSans-105"/>
     <use x="91.259766" xlink:href="#DejaVuSans-109"/>
     <use x="188.671875" xlink:href="#DejaVuSans-112"/>
     <use x="252.148438" xlink:href="#DejaVuSans-108"/>
     <use x="279.931641" xlink:href="#DejaVuSans-101"/>
     <use x="341.455078" xlink:href="#DejaVuSans-68"/>
     <use x="418.457031" xlink:href="#DejaVuSans-69"/>
     <use x="481.640625" xlink:href="#DejaVuSans-109"/>
    </g>
   </g>
   <g id="text_15">
    <!-- best 2009 -->
    <g transform="translate(375.22944 16.923809)scale(0.17 -0.17)">
     <defs>
      <path d="M 48.6875 27.296875 
Q 48.6875 37.203125 44.609375 42.84375 
Q 40.53125 48.484375 33.40625 48.484375 
Q 26.265625 48.484375 22.1875 42.84375 
Q 18.109375 37.203125 18.109375 27.296875 
Q 18.109375 17.390625 22.1875 11.75 
Q 26.265625 6.109375 33.40625 6.109375 
Q 40.53125 6.109375 44.609375 11.75 
Q 48.6875 17.390625 48.6875 27.296875 
z
M 18.109375 46.390625 
Q 20.953125 51.265625 25.265625 53.625 
Q 29.59375 56 35.59375 56 
Q 45.5625 56 51.78125 48.09375 
Q 58.015625 40.1875 58.015625 27.296875 
Q 58.015625 14.40625 51.78125 6.484375 
Q 45.5625 -1.421875 35.59375 -1.421875 
Q 29.59375 -1.421875 25.265625 0.953125 
Q 20.953125 3.328125 18.109375 8.203125 
L 18.109375 0 
L 9.078125 0 
L 9.078125 75.984375 
L 18.109375 75.984375 
z
" id="DejaVuSans-98"/>
      <path d="M 10.984375 1.515625 
L 10.984375 10.5 
Q 14.703125 8.734375 18.5 7.8125 
Q 22.3125 6.890625 25.984375 6.890625 
Q 35.75 6.890625 40.890625 13.453125 
Q 46.046875 20.015625 46.78125 33.40625 
Q 43.953125 29.203125 39.59375 26.953125 
Q 35.25 24.703125 29.984375 24.703125 
Q 19.046875 24.703125 12.671875 31.3125 
Q 6.296875 37.9375 6.296875 49.421875 
Q 6.296875 60.640625 12.9375 67.421875 
Q 19.578125 74.21875 30.609375 74.21875 
Q 43.265625 74.21875 49.921875 64.515625 
Q 56.59375 54.828125 56.59375 36.375 
Q 56.59375 19.140625 48.40625 8.859375 
Q 40.234375 -1.421875 26.421875 -1.421875 
Q 22.703125 -1.421875 18.890625 -0.6875 
Q 15.09375 0.046875 10.984375 1.515625 
z
M 30.609375 32.421875 
Q 37.25 32.421875 41.125 36.953125 
Q 45.015625 41.5 45.015625 49.421875 
Q 45.015625 57.28125 41.125 61.84375 
Q 37.25 66.40625 30.609375 66.40625 
Q 23.96875 66.40625 20.09375 61.84375 
Q 16.21875 57.28125 16.21875 49.421875 
Q 16.21875 41.5 20.09375 36.953125 
Q 23.96875 32.421875 30.609375 32.421875 
z
" id="DejaVuSans-57"/>
     </defs>
     <use xlink:href="#DejaVuSans-98"/>
     <use x="63.476562" xlink:href="#DejaVuSans-101"/>
     <use x="125" xlink:href="#DejaVuSans-115"/>
     <use x="177.099609" xlink:href="#DejaVuSans-116"/>
     <use x="216.308594" xlink:href="#DejaVuSans-32"/>
     <use x="248.095703" xlink:href="#DejaVuSans-50"/>
     <use x="311.71875" xlink:href="#DejaVuSans-48"/>
     <use x="375.341797" xlink:href="#DejaVuSans-48"/>
     <use x="438.964844" xlink:href="#DejaVuSans-57"/>
    </g>
   </g>
   <g id="text_16">
    <!-- bbob f1-f24, 40-D -->
    <g transform="translate(60.41088 14.161286)scale(0.102 -0.102)">
     <use xlink:href="#DejaVuSans-98"/>
     <use x="63.476562" xlink:href="#DejaVuSans-98"/>
     <use x="126.953125" xlink:href="#DejaVuSans-111"/>
     <use x="188.134766" xlink:href="#DejaVuSans-98"/>
     <use x="251.611328" xlink:href="#DejaVuSans-32"/>
     <use x="283.398438" xlink:href="#DejaVuSans-102"/>
     <use x="318.603516" xlink:href="#DejaVuSans-49"/>
     <use x="382.226562" xlink:href="#DejaVuSans-45"/>
     <use x="418.310547" xlink:href="#DejaVuSans-102"/>
     <use x="453.515625" xlink:href="#DejaVuSans-50"/>
     <use x="517.138672" xlink:href="#DejaVuSans-52"/>
     <use x="580.761719" xlink:href="#DejaVuSans-44"/>
     <use x="612.548828" xlink:href="#DejaVuSans-32"/>
     <use x="644.335938" xlink:href="#DejaVuSans-52"/>
     <use x="707.958984" xlink:href="#DejaVuSans-48"/>
     <use x="771.582031" xlink:href="#DejaVuSans-45"/>
     <use x="807.666016" xlink:href="#DejaVuSans-68"/>
    </g>
    <!-- 51 targets: 100..1e-08 -->
    <g transform="translate(60.41088 25.583055)scale(0.102 -0.102)">
     <defs>
      <path d="M 11.71875 12.40625 
L 22.015625 12.40625 
L 22.015625 0 
L 11.71875 0 
z
M 11.71875 51.703125 
L 22.015625 51.703125 
L 22.015625 39.3125 
L 11.71875 39.3125 
z
" id="DejaVuSans-58"/>
     </defs>
     <use xlink:href="#DejaVuSans-53"/>
     <use x="63.623047" xlink:href="#DejaVuSans-49"/>
     <use x="127.246094" xlink:href="#DejaVuSans-32"/>
     <use x="159.033203" xlink:href="#DejaVuSans-116"/>
     <use x="198.242188" xlink:href="#DejaVuSans-97"/>
     <use x="259.521484" xlink:href="#DejaVuSans-114"/>
     <use x="298.884766" xlink:href="#DejaVuSans-103"/>
     <use x="362.361328" xlink:href="#DejaVuSans-101"/>
     <use x="423.884766" xlink:href="#DejaVuSans-116"/>
     <use x="463.09375" xlink:href="#DejaVuSans-115"/>
     <use x="515.193359" xlink:href="#DejaVuSans-58"/>
     <use x="548.884766" xlink:href="#DejaVuSans-32"/>
     <use x="580.671875" xlink:href="#DejaVuSans-49"/>
     <use x="644.294922" xlink:href="#DejaVuSans-48"/>
     <use x="707.917969" xlink:href="#DejaVuSans-48"/>
     <use x="771.541016" xlink:href="#DejaVuSans-46"/>
     <use x="803.328125" xlink:href="#DejaVuSans-46"/>
     <use x="835.115234" xlink:href="#DejaVuSans-49"/>
     <use x="898.738281" xlink:href="#DejaVuSans-101"/>
     <use x="960.261719" xlink:href="#DejaVuSans-45"/>
     <use x="996.345703" xlink:href="#DejaVuSans-48"/>
     <use x="1059.96875" xlink:href="#DejaVuSans-56"/>
    </g>
    <!-- 15 instances -->
    <g transform="translate(60.41088 37.004824)scale(0.102 -0.102)">
     <use xlink:href="#DejaVuSans-49"/>
     <use x="63.623047" xlink:href="#DejaVuSans-53"/>
     <use x="127.246094" xlink:href="#DejaVuSans-32"/>
     <use x="159.033203" xlink:href="#DejaVuSans-105"/>
     <use x="186.816406" xlink:href="#DejaVuSans-110"/>
     <use x="250.195312" xlink:href="#DejaVuSans-115"/>
     <use x="302.294922" xlink:href="#DejaVuSans-116"/>
     <use x="341.503906" xlink:href="#DejaVuSans-97"/>
     <use x="402.783203" xlink:href="#DejaVuSans-110"/>
     <use x="466.162109" xlink:href="#DejaVuSans-99"/>
     <use x="521.142578" xlink:href="#DejaVuSans-101"/>
     <use x="582.666016" xlink:href="#DejaVuSans-115"/>
    </g>
   </g>
   <g id="text_17">
    <!-- v2.4 -->
    <g style="fill:#808080;" transform="translate(187.233062 293.909432)scale(0.1 -0.1)">
     <use xlink:href="#DejaVuSans-118"/>
     <use x="59.179688" xlink:href="#DejaVuSans-50"/>
     <use x="122.802734" xlink:href="#DejaVuSans-46"/>
     <use x="154.589844" xlink:href="#DejaVuSans-52"/>
    </g>
   </g>
  </g>
 </g>
 <defs>
  <clipPath id="paef6850abd">
   <rect height="295.488" width="281.088" x="57.6" y="3.456"/>
  </clipPath>
 </defs>
</svg>
