<?xml version="1.0" encoding="utf-8" standalone="no"?>
<!DOCTYPE svg PUBLIC "-//W3C//DTD SVG 1.1//EN"
  "http://www.w3.org/Graphics/SVG/1.1/DTD/svg11.dtd">
<!-- Created with matplotlib (https://matplotlib.org/) -->
<svg height="345.6pt" version="1.1" viewBox="0 0 460.8 345.6" width="460.8pt" xmlns="http://www.w3.org/2000/svg" xmlns:xlink="http://www.w3.org/1999/xlink">
 <defs>
  <style type="text/css">
*{stroke-linecap:butt;stroke-linejoin:round;}
  </style>
 </defs>
 <g id="figure_1">
  <g id="patch_1">
   <path d="M 0 345.6 
L 460.8 345.6 
L 460.8 0 
L 0 0 
z
" style="fill:#ffffff;"/>
  </g>
  <g id="axes_1">
   <g id="patch_2">
    <path d="M 57.6 298.944 
L 338.688 298.944 
L 338.688 27.648 
L 57.6 27.648 
z
" style="fill:#ffffff;"/>
   </g>
   <g id="line2d_1">
    <path d="M 38.440992 298.944 
L 38.440992 272.609696 
L 50.52898 272.609696 
L 50.52898 267.342835 
L 62.616969 267.342835 
L 62.616969 262.075974 
L 69.687988 262.075974 
L 69.687988 256.809114 
L 78.59642 256.809114 
L 78.59642 251.542253 
L 84.464254 251.542253 
L 84.464254 246.275392 
L 87.850195 246.275392 
L 87.850195 241.008531 
L 89.78989 241.008531 
L 89.78989 235.74167 
L 93.121756 235.74167 
L 93.121756 230.47481 
L 93.863965 230.47481 
L 93.863965 225.207949 
L 95.918017 225.207949 
L 95.918017 219.941088 
L 96.552242 219.941088 
L 96.552242 214.674227 
L 98.32726 214.674227 
L 98.32726 209.407366 
L 98.880934 209.407366 
L 98.880934 204.140506 
L 99.938184 204.140506 
L 99.938184 198.873645 
L 102.330873 198.873645 
L 102.330873 193.606784 
L 104.033617 193.606784 
L 104.033617 188.339923 
L 105.584798 188.339923 
L 105.584798 183.073062 
L 107.680028 183.073062 
L 107.680028 177.806202 
L 109.550313 177.806202 
L 109.550313 172.539341 
L 111.505558 172.539341 
L 111.505558 167.27248 
L 112.779064 167.27248 
L 112.779064 162.005619 
L 114.860386 162.005619 
L 114.860386 156.738758 
L 115.711251 156.738758 
L 115.711251 151.471897 
L 116.522527 151.471897 
L 116.522527 146.205037 
L 116.914437 146.205037 
L 116.914437 140.938176 
L 117.297733 140.938176 
L 117.297733 135.671315 
L 118.039942 135.671315 
L 118.039942 130.404454 
L 119.097192 130.404454 
L 119.097192 125.137593 
L 119.602714 125.137593 
L 119.602714 119.870733 
L 120.093994 119.870733 
L 120.093994 114.603872 
L 120.41399 114.603872 
L 120.41399 109.337011 
L 121.189196 109.337011 
L 121.189196 104.07015 
L 124.989434 104.07015 
L 124.989434 98.803289 
L 126.948374 98.803289 
L 126.948374 93.536429 
L 127.48501 93.536429 
L 127.48501 88.269568 
L 128.005624 88.269568 
L 128.005624 83.002707 
L 128.310692 83.002707 
L 128.310692 77.735846 
L 128.709321 77.735846 
L 128.709321 72.468985 
L 129.480244 72.468985 
L 129.480244 67.202125 
L 129.853291 67.202125 
L 129.853291 61.935264 
L 130.30865 61.935264 
L 130.30865 56.668403 
L 130.664567 56.668403 
L 130.664567 51.401542 
L 131.439773 51.401542 
L 131.439773 46.134681 
L 131.77355 46.134681 
L 131.77355 40.867821 
L 132.101058 40.867821 
L 132.101058 35.60096 
L 132.501978 35.60096 
L 132.501978 30.334099 
L 338.688 30.334099 
" style="fill:none;stroke:#f5deb3;stroke-linecap:square;stroke-width:4;"/>
   </g>
   <g id="line2d_2">
    <defs>
     <path d="M -0 7.778175 
L 7.778175 0 
L 0 -7.778175 
L -7.778175 -0 
z
" id="m124efa9da5" style="stroke:#f5deb3;stroke-linejoin:miter;stroke-width:1.5;"/>
    </defs>
    <g>
     <use style="fill:#f5deb3;stroke:#f5deb3;stroke-linejoin:miter;stroke-width:1.5;" x="78.59642" xlink:href="#m124efa9da5" y="251.542253"/>
     <use style="fill:#f5deb3;stroke:#f5deb3;stroke-linejoin:miter;stroke-width:1.5;" x="115.711251" xlink:href="#m124efa9da5" y="151.471897"/>
     <use style="fill:#f5deb3;stroke:#f5deb3;stroke-linejoin:miter;stroke-width:1.5;" x="132.501978" xlink:href="#m124efa9da5" y="35.60096"/>
     <use style="fill:#f5deb3;stroke:#f5deb3;stroke-linejoin:miter;stroke-width:1.5;" x="132.501978" xlink:href="#m124efa9da5" y="30.334099"/>
     <use style="fill:#f5deb3;stroke:#f5deb3;stroke-linejoin:miter;stroke-width:1.5;" x="132.501978" xlink:href="#m124efa9da5" y="30.334099"/>
     <use style="fill:#f5deb3;stroke:#f5deb3;stroke-linejoin:miter;stroke-width:1.5;" x="338.688" xlink:href="#m124efa9da5" y="30.334099"/>
    </g>
   </g>
   <g id="line2d_3">
    <path style="fill:none;stroke:#f5deb3;stroke-linecap:square;stroke-width:4;"/>
    <g/>
   </g>
   <g id="line2d_4">
    <path d="M 338.688 30.334099 
L 369.60768 35.706297 
" style="fill:none;stroke:#f5deb3;stroke-linecap:square;stroke-width:4;"/>
    <g>
     <use style="fill:#f5deb3;stroke:#f5deb3;stroke-linejoin:miter;stroke-width:1.5;" x="338.688" xlink:href="#m124efa9da5" y="30.334099"/>
     <use style="fill:#f5deb3;stroke:#f5deb3;stroke-linejoin:miter;stroke-width:1.5;" x="369.60768" xlink:href="#m124efa9da5" y="35.706297"/>
    </g>
   </g>
   <g id="matplotlib.axis_1">
    <g id="xtick_1">
     <g id="line2d_5">
      <path clip-path="url(#pb603baabc3)" d="M 57.6 298.944 
L 57.6 27.648 
" style="fill:none;stroke:#b0b0b0;stroke-linecap:square;stroke-width:0.8;"/>
     </g>
     <g id="line2d_6">
      <defs>
       <path d="M 0 0 
L 0 3.5 
" id="m75dc58576e" style="stroke:#000000;stroke-width:0.8;"/>
      </defs>
      <g>
       <use style="stroke:#000000;stroke-width:0.8;" x="57.6" xlink:href="#m75dc58576e" y="298.944"/>
      </g>
     </g>
     <g id="text_1">
      <!-- 0 -->
      <defs>
       <path d="M 31.78125 66.40625 
Q 24.171875 66.40625 20.328125 58.90625 
Q 16.5 51.421875 16.5 36.375 
Q 16.5 21.390625 20.328125 13.890625 
Q 24.171875 6.390625 31.78125 6.390625 
Q 39.453125 6.390625 43.28125 13.890625 
Q 47.125 21.390625 47.125 36.375 
Q 47.125 51.421875 43.28125 58.90625 
Q 39.453125 66.40625 31.78125 66.40625 
z
M 31.78125 74.21875 
Q 44.046875 74.21875 50.515625 64.515625 
Q 56.984375 54.828125 56.984375 36.375 
Q 56.984375 17.96875 50.515625 8.265625 
Q 44.046875 -1.421875 31.78125 -1.421875 
Q 19.53125 -1.421875 13.0625 8.265625 
Q 6.59375 17.96875 6.59375 36.375 
Q 6.59375 54.828125 13.0625 64.515625 
Q 19.53125 74.21875 31.78125 74.21875 
z
" id="DejaVuSans-48"/>
      </defs>
      <g transform="translate(51.2375 321.140875)scale(0.2 -0.2)">
       <use xlink:href="#DejaVuSans-48"/>
      </g>
     </g>
    </g>
    <g id="xtick_2">
     <g id="line2d_7">
      <path clip-path="url(#pb603baabc3)" d="M 137.910857 298.944 
L 137.910857 27.648 
" style="fill:none;stroke:#b0b0b0;stroke-linecap:square;stroke-width:0.8;"/>
     </g>
     <g id="line2d_8">
      <g>
       <use style="stroke:#000000;stroke-width:0.8;" x="137.910857" xlink:href="#m75dc58576e" y="298.944"/>
      </g>
     </g>
     <g id="text_2">
      <!-- 2 -->
      <defs>
       <path d="M 19.1875 8.296875 
L 53.609375 8.296875 
L 53.609375 0 
L 7.328125 0 
L 7.328125 8.296875 
Q 12.9375 14.109375 22.625 23.890625 
Q 32.328125 33.6875 34.8125 36.53125 
Q 39.546875 41.84375 41.421875 45.53125 
Q 43.3125 49.21875 43.3125 52.78125 
Q 43.3125 58.59375 39.234375 62.25 
Q 35.15625 65.921875 28.609375 65.921875 
Q 23.96875 65.921875 18.8125 64.3125 
Q 13.671875 62.703125 7.8125 59.421875 
L 7.8125 69.390625 
Q 13.765625 71.78125 18.9375 73 
Q 24.125 74.21875 28.421875 74.21875 
Q 39.75 74.21875 46.484375 68.546875 
Q 53.21875 62.890625 53.21875 53.421875 
Q 53.21875 48.921875 51.53125 44.890625 
Q 49.859375 40.875 45.40625 35.40625 
Q 44.1875 33.984375 37.640625 27.21875 
Q 31.109375 20.453125 19.1875 8.296875 
z
" id="DejaVuSans-50"/>
      </defs>
      <g transform="translate(131.548357 321.140875)scale(0.2 -0.2)">
       <use xlink:href="#DejaVuSans-50"/>
      </g>
     </g>
    </g>
    <g id="xtick_3">
     <g id="line2d_9">
      <path clip-path="url(#pb603baabc3)" d="M 218.221714 298.944 
L 218.221714 27.648 
" style="fill:none;stroke:#b0b0b0;stroke-linecap:square;stroke-width:0.8;"/>
     </g>
     <g id="line2d_10">
      <g>
       <use style="stroke:#000000;stroke-width:0.8;" x="218.221714" xlink:href="#m75dc58576e" y="298.944"/>
      </g>
     </g>
     <g id="text_3">
      <!-- 4 -->
      <defs>
       <path d="M 37.796875 64.3125 
L 12.890625 25.390625 
L 37.796875 25.390625 
z
M 35.203125 72.90625 
L 47.609375 72.90625 
L 47.609375 25.390625 
L 58.015625 25.390625 
L 58.015625 17.1875 
L 47.609375 17.1875 
L 47.609375 0 
L 37.796875 0 
L 37.796875 17.1875 
L 4.890625 17.1875 
L 4.890625 26.703125 
z
" id="DejaVuSans-52"/>
      </defs>
      <g transform="translate(211.859214 321.140875)scale(0.2 -0.2)">
       <use xlink:href="#DejaVuSans-52"/>
      </g>
     </g>
    </g>
    <g id="xtick_4">
     <g id="line2d_11">
      <path clip-path="url(#pb603baabc3)" d="M 298.532571 298.944 
L 298.532571 27.648 
" style="fill:none;stroke:#b0b0b0;stroke-linecap:square;stroke-width:0.8;"/>
     </g>
     <g id="line2d_12">
      <g>
       <use style="stroke:#000000;stroke-width:0.8;" x="298.532571" xlink:href="#m75dc58576e" y="298.944"/>
      </g>
     </g>
     <g id="text_4">
      <!-- 6 -->
      <defs>
       <path d="M 33.015625 40.375 
Q 26.375 40.375 22.484375 35.828125 
Q 18.609375 31.296875 18.609375 23.390625 
Q 18.609375 15.53125 22.484375 10.953125 
Q 26.375 6.390625 33.015625 6.390625 
Q 39.65625 6.390625 43.53125 10.953125 
Q 47.40625 15.53125 47.40625 23.390625 
Q 47.40625 31.296875 43.53125 35.828125 
Q 39.65625 40.375 33.015625 40.375 
z
M 52.59375 71.296875 
L 52.59375 62.3125 
Q 48.875 64.0625 45.09375 64.984375 
Q 41.3125 65.921875 37.59375 65.921875 
Q 27.828125 65.921875 22.671875 59.328125 
Q 17.53125 52.734375 16.796875 39.40625 
Q 19.671875 43.65625 24.015625 45.921875 
Q 28.375 48.1875 33.59375 48.1875 
Q 44.578125 48.1875 50.953125 41.515625 
Q 57.328125 34.859375 57.328125 23.390625 
Q 57.328125 12.15625 50.6875 5.359375 
Q 44.046875 -1.421875 33.015625 -1.421875 
Q 20.359375 -1.421875 13.671875 8.265625 
Q 6.984375 17.96875 6.984375 36.375 
Q 6.984375 53.65625 15.1875 63.9375 
Q 23.390625 74.21875 37.203125 74.21875 
Q 40.921875 74.21875 44.703125 73.484375 
Q 48.484375 72.75 52.59375 71.296875 
z
" id="DejaVuSans-54"/>
      </defs>
      <g transform="translate(292.170071 321.140875)scale(0.2 -0.2)">
       <use xlink:href="#DejaVuSans-54"/>
      </g>
     </g>
    </g>
    <g id="xtick_5">
     <g id="line2d_13">
      <path clip-path="url(#pb603baabc3)" d="M 97.755429 298.944 
L 97.755429 27.648 
" style="fill:none;stroke:#b0b0b0;stroke-linecap:square;stroke-width:0.8;"/>
     </g>
     <g id="line2d_14">
      <defs>
       <path d="M 0 0 
L 0 2 
" id="m3ca02db43c" style="stroke:#000000;stroke-width:0.6;"/>
      </defs>
      <g>
       <use style="stroke:#000000;stroke-width:0.6;" x="97.755429" xlink:href="#m3ca02db43c" y="298.944"/>
      </g>
     </g>
    </g>
    <g id="xtick_6">
     <g id="line2d_15">
      <path clip-path="url(#pb603baabc3)" d="M 178.066286 298.944 
L 178.066286 27.648 
" style="fill:none;stroke:#b0b0b0;stroke-linecap:square;stroke-width:0.8;"/>
     </g>
     <g id="line2d_16">
      <g>
       <use style="stroke:#000000;stroke-width:0.6;" x="178.066286" xlink:href="#m3ca02db43c" y="298.944"/>
      </g>
     </g>
    </g>
    <g id="xtick_7">
     <g id="line2d_17">
      <path clip-path="url(#pb603baabc3)" d="M 258.377143 298.944 
L 258.377143 27.648 
" style="fill:none;stroke:#b0b0b0;stroke-linecap:square;stroke-width:0.8;"/>
     </g>
     <g id="line2d_18">
      <g>
       <use style="stroke:#000000;stroke-width:0.6;" x="258.377143" xlink:href="#m3ca02db43c" y="298.944"/>
      </g>
     </g>
    </g>
    <g id="xtick_8">
     <g id="line2d_19">
      <path clip-path="url(#pb603baabc3)" d="M 338.688 298.944 
L 338.688 27.648 
" style="fill:none;stroke:#b0b0b0;stroke-linecap:square;stroke-width:0.8;"/>
     </g>
     <g id="line2d_20">
      <g>
       <use style="stroke:#000000;stroke-width:0.6;" x="338.688" xlink:href="#m3ca02db43c" y="298.944"/>
      </g>
     </g>
    </g>
    <g id="text_5">
     <!-- log10(# f-evals / dimension) -->
     <defs>
      <path d="M 9.421875 75.984375 
L 18.40625 75.984375 
L 18.40625 0 
L 9.421875 0 
z
" id="DejaVuSans-108"/>
      <path d="M 30.609375 48.390625 
Q 23.390625 48.390625 19.1875 42.75 
Q 14.984375 37.109375 14.984375 27.296875 
Q 14.984375 17.484375 19.15625 11.84375 
Q 23.34375 6.203125 30.609375 6.203125 
Q 37.796875 6.203125 41.984375 11.859375 
Q 46.1875 17.53125 46.1875 27.296875 
Q 46.1875 37.015625 41.984375 42.703125 
Q 37.796875 48.390625 30.609375 48.390625 
z
M 30.609375 56 
Q 42.328125 56 49.015625 48.375 
Q 55.71875 40.765625 55.71875 27.296875 
Q 55.71875 13.875 49.015625 6.21875 
Q 42.328125 -1.421875 30.609375 -1.421875 
Q 18.84375 -1.421875 12.171875 6.21875 
Q 5.515625 13.875 5.515625 27.296875 
Q 5.515625 40.765625 12.171875 48.375 
Q 18.84375 56 30.609375 56 
z
" id="DejaVuSans-111"/>
      <path d="M 45.40625 27.984375 
Q 45.40625 37.75 41.375 43.109375 
Q 37.359375 48.484375 30.078125 48.484375 
Q 22.859375 48.484375 18.828125 43.109375 
Q 14.796875 37.75 14.796875 27.984375 
Q 14.796875 18.265625 18.828125 12.890625 
Q 22.859375 7.515625 30.078125 7.515625 
Q 37.359375 7.515625 41.375 12.890625 
Q 45.40625 18.265625 45.40625 27.984375 
z
M 54.390625 6.78125 
Q 54.390625 -7.171875 48.1875 -13.984375 
Q 42 -20.796875 29.203125 -20.796875 
Q 24.46875 -20.796875 20.265625 -20.09375 
Q 16.0625 -19.390625 12.109375 -17.921875 
L 12.109375 -9.1875 
Q 16.0625 -11.328125 19.921875 -12.34375 
Q 23.78125 -13.375 27.78125 -13.375 
Q 36.625 -13.375 41.015625 -8.765625 
Q 45.40625 -4.15625 45.40625 5.171875 
L 45.40625 9.625 
Q 42.625 4.78125 38.28125 2.390625 
Q 33.9375 0 27.875 0 
Q 17.828125 0 11.671875 7.65625 
Q 5.515625 15.328125 5.515625 27.984375 
Q 5.515625 40.671875 11.671875 48.328125 
Q 17.828125 56 27.875 56 
Q 33.9375 56 38.28125 53.609375 
Q 42.625 51.21875 45.40625 46.390625 
L 45.40625 54.6875 
L 54.390625 54.6875 
z
" id="DejaVuSans-103"/>
      <path d="M 12.40625 8.296875 
L 28.515625 8.296875 
L 28.515625 63.921875 
L 10.984375 60.40625 
L 10.984375 69.390625 
L 28.421875 72.90625 
L 38.28125 72.90625 
L 38.28125 8.296875 
L 54.390625 8.296875 
L 54.390625 0 
L 12.40625 0 
z
" id="DejaVuSans-49"/>
      <path d="M 31 75.875 
Q 24.46875 64.65625 21.28125 53.65625 
Q 18.109375 42.671875 18.109375 31.390625 
Q 18.109375 20.125 21.3125 9.0625 
Q 24.515625 -2 31 -13.1875 
L 23.1875 -13.1875 
Q 15.875 -1.703125 12.234375 9.375 
Q 8.59375 20.453125 8.59375 31.390625 
Q 8.59375 42.28125 12.203125 53.3125 
Q 15.828125 64.359375 23.1875 75.875 
z
" id="DejaVuSans-40"/>
      <path d="M 51.125 44 
L 36.921875 44 
L 32.8125 27.6875 
L 47.125 27.6875 
z
M 43.796875 71.78125 
L 38.71875 51.515625 
L 52.984375 51.515625 
L 58.109375 71.78125 
L 65.921875 71.78125 
L 60.890625 51.515625 
L 76.125 51.515625 
L 76.125 44 
L 58.984375 44 
L 54.984375 27.6875 
L 70.515625 27.6875 
L 70.515625 20.21875 
L 53.078125 20.21875 
L 48 0 
L 40.1875 0 
L 45.21875 20.21875 
L 30.90625 20.21875 
L 25.875 0 
L 18.015625 0 
L 23.09375 20.21875 
L 7.71875 20.21875 
L 7.71875 27.6875 
L 24.90625 27.6875 
L 29 44 
L 13.28125 44 
L 13.28125 51.515625 
L 30.90625 51.515625 
L 35.890625 71.78125 
z
" id="DejaVuSans-35"/>
      <path id="DejaVuSans-32"/>
      <path d="M 37.109375 75.984375 
L 37.109375 68.5 
L 28.515625 68.5 
Q 23.6875 68.5 21.796875 66.546875 
Q 19.921875 64.59375 19.921875 59.515625 
L 19.921875 54.6875 
L 34.71875 54.6875 
L 34.71875 47.703125 
L 19.921875 47.703125 
L 19.921875 0 
L 10.890625 0 
L 10.890625 47.703125 
L 2.296875 47.703125 
L 2.296875 54.6875 
L 10.890625 54.6875 
L 10.890625 58.5 
Q 10.890625 67.625 15.140625 71.796875 
Q 19.390625 75.984375 28.609375 75.984375 
z
" id="DejaVuSans-102"/>
      <path d="M 4.890625 31.390625 
L 31.203125 31.390625 
L 31.203125 23.390625 
L 4.890625 23.390625 
z
" id="DejaVuSans-45"/>
      <path d="M 56.203125 29.59375 
L 56.203125 25.203125 
L 14.890625 25.203125 
Q 15.484375 15.921875 20.484375 11.0625 
Q 25.484375 6.203125 34.421875 6.203125 
Q 39.59375 6.203125 44.453125 7.46875 
Q 49.3125 8.734375 54.109375 11.28125 
L 54.109375 2.78125 
Q 49.265625 0.734375 44.1875 -0.34375 
Q 39.109375 -1.421875 33.890625 -1.421875 
Q 20.796875 -1.421875 13.15625 6.1875 
Q 5.515625 13.8125 5.515625 26.8125 
Q 5.515625 40.234375 12.765625 48.109375 
Q 20.015625 56 32.328125 56 
Q 43.359375 56 49.78125 48.890625 
Q 56.203125 41.796875 56.203125 29.59375 
z
M 47.21875 32.234375 
Q 47.125 39.59375 43.09375 43.984375 
Q 39.0625 48.390625 32.421875 48.390625 
Q 24.90625 48.390625 20.390625 44.140625 
Q 15.875 39.890625 15.1875 32.171875 
z
" id="DejaVuSans-101"/>
      <path d="M 2.984375 54.6875 
L 12.5 54.6875 
L 29.59375 8.796875 
L 46.6875 54.6875 
L 56.203125 54.6875 
L 35.6875 0 
L 23.484375 0 
z
" id="DejaVuSans-118"/>
      <path d="M 34.28125 27.484375 
Q 23.390625 27.484375 19.1875 25 
Q 14.984375 22.515625 14.984375 16.5 
Q 14.984375 11.71875 18.140625 8.90625 
Q 21.296875 6.109375 26.703125 6.109375 
Q 34.1875 6.109375 38.703125 11.40625 
Q 43.21875 16.703125 43.21875 25.484375 
L 43.21875 27.484375 
z
M 52.203125 31.203125 
L 52.203125 0 
L 43.21875 0 
L 43.21875 8.296875 
Q 40.140625 3.328125 35.546875 0.953125 
Q 30.953125 -1.421875 24.3125 -1.421875 
Q 15.921875 -1.421875 10.953125 3.296875 
Q 6 8.015625 6 15.921875 
Q 6 25.140625 12.171875 29.828125 
Q 18.359375 34.515625 30.609375 34.515625 
L 43.21875 34.515625 
L 43.21875 35.40625 
Q 43.21875 41.609375 39.140625 45 
Q 35.0625 48.390625 27.6875 48.390625 
Q 23 48.390625 18.546875 47.265625 
Q 14.109375 46.140625 10.015625 43.890625 
L 10.015625 52.203125 
Q 14.9375 54.109375 19.578125 55.046875 
Q 24.21875 56 28.609375 56 
Q 40.484375 56 46.34375 49.84375 
Q 52.203125 43.703125 52.203125 31.203125 
z
" id="DejaVuSans-97"/>
      <path d="M 44.28125 53.078125 
L 44.28125 44.578125 
Q 40.484375 46.53125 36.375 47.5 
Q 32.28125 48.484375 27.875 48.484375 
Q 21.1875 48.484375 17.84375 46.4375 
Q 14.5 44.390625 14.5 40.28125 
Q 14.5 37.15625 16.890625 35.375 
Q 19.28125 33.59375 26.515625 31.984375 
L 29.59375 31.296875 
Q 39.15625 29.25 43.1875 25.515625 
Q 47.21875 21.78125 47.21875 15.09375 
Q 47.21875 7.46875 41.1875 3.015625 
Q 35.15625 -1.421875 24.609375 -1.421875 
Q 20.21875 -1.421875 15.453125 -0.5625 
Q 10.6875 0.296875 5.421875 2 
L 5.421875 11.28125 
Q 10.40625 8.6875 15.234375 7.390625 
Q 20.0625 6.109375 24.8125 6.109375 
Q 31.15625 6.109375 34.5625 8.28125 
Q 37.984375 10.453125 37.984375 14.40625 
Q 37.984375 18.0625 35.515625 20.015625 
Q 33.0625 21.96875 24.703125 23.78125 
L 21.578125 24.515625 
Q 13.234375 26.265625 9.515625 29.90625 
Q 5.8125 33.546875 5.8125 39.890625 
Q 5.8125 47.609375 11.28125 51.796875 
Q 16.75 56 26.8125 56 
Q 31.78125 56 36.171875 55.265625 
Q 40.578125 54.546875 44.28125 53.078125 
z
" id="DejaVuSans-115"/>
      <path d="M 25.390625 72.90625 
L 33.6875 72.90625 
L 8.296875 -9.28125 
L 0 -9.28125 
z
" id="DejaVuSans-47"/>
      <path d="M 45.40625 46.390625 
L 45.40625 75.984375 
L 54.390625 75.984375 
L 54.390625 0 
L 45.40625 0 
L 45.40625 8.203125 
Q 42.578125 3.328125 38.25 0.953125 
Q 33.9375 -1.421875 27.875 -1.421875 
Q 17.96875 -1.421875 11.734375 6.484375 
Q 5.515625 14.40625 5.515625 27.296875 
Q 5.515625 40.1875 11.734375 48.09375 
Q 17.96875 56 27.875 56 
Q 33.9375 56 38.25 53.625 
Q 42.578125 51.265625 45.40625 46.390625 
z
M 14.796875 27.296875 
Q 14.796875 17.390625 18.875 11.75 
Q 22.953125 6.109375 30.078125 6.109375 
Q 37.203125 6.109375 41.296875 11.75 
Q 45.40625 17.390625 45.40625 27.296875 
Q 45.40625 37.203125 41.296875 42.84375 
Q 37.203125 48.484375 30.078125 48.484375 
Q 22.953125 48.484375 18.875 42.84375 
Q 14.796875 37.203125 14.796875 27.296875 
z
" id="DejaVuSans-100"/>
      <path d="M 9.421875 54.6875 
L 18.40625 54.6875 
L 18.40625 0 
L 9.421875 0 
z
M 9.421875 75.984375 
L 18.40625 75.984375 
L 18.40625 64.59375 
L 9.421875 64.59375 
z
" id="DejaVuSans-105"/>
      <path d="M 52 44.1875 
Q 55.375 50.25 60.0625 53.125 
Q 64.75 56 71.09375 56 
Q 79.640625 56 84.28125 50.015625 
Q 88.921875 44.046875 88.921875 33.015625 
L 88.921875 0 
L 79.890625 0 
L 79.890625 32.71875 
Q 79.890625 40.578125 77.09375 44.375 
Q 74.3125 48.1875 68.609375 48.1875 
Q 61.625 48.1875 57.5625 43.546875 
Q 53.515625 38.921875 53.515625 30.90625 
L 53.515625 0 
L 44.484375 0 
L 44.484375 32.71875 
Q 44.484375 40.625 41.703125 44.40625 
Q 38.921875 48.1875 33.109375 48.1875 
Q 26.21875 48.1875 22.15625 43.53125 
Q 18.109375 38.875 18.109375 30.90625 
L 18.109375 0 
L 9.078125 0 
L 9.078125 54.6875 
L 18.109375 54.6875 
L 18.109375 46.1875 
Q 21.1875 51.21875 25.484375 53.609375 
Q 29.78125 56 35.6875 56 
Q 41.65625 56 45.828125 52.96875 
Q 50 49.953125 52 44.1875 
z
" id="DejaVuSans-109"/>
      <path d="M 54.890625 33.015625 
L 54.890625 0 
L 45.90625 0 
L 45.90625 32.71875 
Q 45.90625 40.484375 42.875 44.328125 
Q 39.84375 48.1875 33.796875 48.1875 
Q 26.515625 48.1875 22.3125 43.546875 
Q 18.109375 38.921875 18.109375 30.90625 
L 18.109375 0 
L 9.078125 0 
L 9.078125 54.6875 
L 18.109375 54.6875 
L 18.109375 46.1875 
Q 21.34375 51.125 25.703125 53.5625 
Q 30.078125 56 35.796875 56 
Q 45.21875 56 50.046875 50.171875 
Q 54.890625 44.34375 54.890625 33.015625 
z
" id="DejaVuSans-110"/>
      <path d="M 8.015625 75.875 
L 15.828125 75.875 
Q 23.140625 64.359375 26.78125 53.3125 
Q 30.421875 42.28125 30.421875 31.390625 
Q 30.421875 20.453125 26.78125 9.375 
Q 23.140625 -1.703125 15.828125 -13.1875 
L 8.015625 -13.1875 
Q 14.5 -2 17.703125 9.0625 
Q 20.90625 20.125 20.90625 31.390625 
Q 20.90625 42.671875 17.703125 53.65625 
Q 14.5 64.65625 8.015625 75.875 
z
" id="DejaVuSans-41"/>
     </defs>
     <g transform="translate(77.764078 342.217594)scale(0.17 -0.17)">
      <use xlink:href="#DejaVuSans-108"/>
      <use x="27.783203" xlink:href="#DejaVuSans-111"/>
      <use x="88.964844" xlink:href="#DejaVuSans-103"/>
      <use x="152.441406" xlink:href="#DejaVuSans-49"/>
      <use x="216.064453" xlink:href="#DejaVuSans-48"/>
      <use x="279.6875" xlink:href="#DejaVuSans-40"/>
      <use x="318.701172" xlink:href="#DejaVuSans-35"/>
      <use x="402.490234" xlink:href="#DejaVuSans-32"/>
      <use x="434.277344" xlink:href="#DejaVuSans-102"/>
      <use x="463.982422" xlink:href="#DejaVuSans-45"/>
      <use x="500.066406" xlink:href="#DejaVuSans-101"/>
      <use x="561.589844" xlink:href="#DejaVuSans-118"/>
      <use x="620.769531" xlink:href="#DejaVuSans-97"/>
      <use x="682.048828" xlink:href="#DejaVuSans-108"/>
      <use x="709.832031" xlink:href="#DejaVuSans-115"/>
      <use x="761.931641" xlink:href="#DejaVuSans-32"/>
      <use x="793.71875" xlink:href="#DejaVuSans-47"/>
      <use x="827.410156" xlink:href="#DejaVuSans-32"/>
      <use x="859.197266" xlink:href="#DejaVuSans-100"/>
      <use x="922.673828" xlink:href="#DejaVuSans-105"/>
      <use x="950.457031" xlink:href="#DejaVuSans-109"/>
      <use x="1047.869141" xlink:href="#DejaVuSans-101"/>
      <use x="1109.392578" xlink:href="#DejaVuSans-110"/>
      <use x="1172.771484" xlink:href="#DejaVuSans-115"/>
      <use x="1224.871094" xlink:href="#DejaVuSans-105"/>
      <use x="1252.654297" xlink:href="#DejaVuSans-111"/>
      <use x="1313.835938" xlink:href="#DejaVuSans-110"/>
      <use x="1377.214844" xlink:href="#DejaVuSans-41"/>
     </g>
    </g>
   </g>
   <g id="matplotlib.axis_2">
    <g id="ytick_1">
     <g id="line2d_21">
      <path clip-path="url(#pb603baabc3)" d="M 57.6 298.944 
L 338.688 298.944 
" style="fill:none;stroke:#b0b0b0;stroke-linecap:square;stroke-width:0.8;"/>
     </g>
     <g id="line2d_22">
      <defs>
       <path d="M 0 0 
L -3.5 0 
" id="m2e3646e59a" style="stroke:#000000;stroke-width:0.8;"/>
      </defs>
      <g>
       <use style="stroke:#000000;stroke-width:0.8;" x="57.6" xlink:href="#m2e3646e59a" y="298.944"/>
      </g>
     </g>
     <g id="text_6">
      <!-- 0.0 -->
      <defs>
       <path d="M 10.6875 12.40625 
L 21 12.40625 
L 21 0 
L 10.6875 0 
z
" id="DejaVuSans-46"/>
      </defs>
      <g transform="translate(25.155 305.02275)scale(0.16 -0.16)">
       <use xlink:href="#DejaVuSans-48"/>
       <use x="63.623047" xlink:href="#DejaVuSans-46"/>
       <use x="95.410156" xlink:href="#DejaVuSans-48"/>
      </g>
     </g>
    </g>
    <g id="ytick_2">
     <g id="line2d_23">
      <path clip-path="url(#pb603baabc3)" d="M 57.6 245.22202 
L 338.688 245.22202 
" style="fill:none;stroke:#b0b0b0;stroke-linecap:square;stroke-width:0.8;"/>
     </g>
     <g id="line2d_24">
      <g>
       <use style="stroke:#000000;stroke-width:0.8;" x="57.6" xlink:href="#m2e3646e59a" y="245.22202"/>
      </g>
     </g>
     <g id="text_7">
      <!-- 0.2 -->
      <g transform="translate(25.155 251.30077)scale(0.16 -0.16)">
       <use xlink:href="#DejaVuSans-48"/>
       <use x="63.623047" xlink:href="#DejaVuSans-46"/>
       <use x="95.410156" xlink:href="#DejaVuSans-50"/>
      </g>
     </g>
    </g>
    <g id="ytick_3">
     <g id="line2d_25">
      <path clip-path="url(#pb603baabc3)" d="M 57.6 191.50004 
L 338.688 191.50004 
" style="fill:none;stroke:#b0b0b0;stroke-linecap:square;stroke-width:0.8;"/>
     </g>
     <g id="line2d_26">
      <g>
       <use style="stroke:#000000;stroke-width:0.8;" x="57.6" xlink:href="#m2e3646e59a" y="191.50004"/>
      </g>
     </g>
     <g id="text_8">
      <!-- 0.4 -->
      <g transform="translate(25.155 197.57879)scale(0.16 -0.16)">
       <use xlink:href="#DejaVuSans-48"/>
       <use x="63.623047" xlink:href="#DejaVuSans-46"/>
       <use x="95.410156" xlink:href="#DejaVuSans-52"/>
      </g>
     </g>
    </g>
    <g id="ytick_4">
     <g id="line2d_27">
      <path clip-path="url(#pb603baabc3)" d="M 57.6 137.778059 
L 338.688 137.778059 
" style="fill:none;stroke:#b0b0b0;stroke-linecap:square;stroke-width:0.8;"/>
     </g>
     <g id="line2d_28">
      <g>
       <use style="stroke:#000000;stroke-width:0.8;" x="57.6" xlink:href="#m2e3646e59a" y="137.778059"/>
      </g>
     </g>
     <g id="text_9">
      <!-- 0.6 -->
      <g transform="translate(25.155 143.856809)scale(0.16 -0.16)">
       <use xlink:href="#DejaVuSans-48"/>
       <use x="63.623047" xlink:href="#DejaVuSans-46"/>
       <use x="95.410156" xlink:href="#DejaVuSans-54"/>
      </g>
     </g>
    </g>
    <g id="ytick_5">
     <g id="line2d_29">
      <path clip-path="url(#pb603baabc3)" d="M 57.6 84.056079 
L 338.688 84.056079 
" style="fill:none;stroke:#b0b0b0;stroke-linecap:square;stroke-width:0.8;"/>
     </g>
     <g id="line2d_30">
      <g>
       <use style="stroke:#000000;stroke-width:0.8;" x="57.6" xlink:href="#m2e3646e59a" y="84.056079"/>
      </g>
     </g>
     <g id="text_10">
      <!-- 0.8 -->
      <defs>
       <path d="M 31.78125 34.625 
Q 24.75 34.625 20.71875 30.859375 
Q 16.703125 27.09375 16.703125 20.515625 
Q 16.703125 13.921875 20.71875 10.15625 
Q 24.75 6.390625 31.78125 6.390625 
Q 38.8125 6.390625 42.859375 10.171875 
Q 46.921875 13.96875 46.921875 20.515625 
Q 46.921875 27.09375 42.890625 30.859375 
Q 38.875 34.625 31.78125 34.625 
z
M 21.921875 38.8125 
Q 15.578125 40.375 12.03125 44.71875 
Q 8.5 49.078125 8.5 55.328125 
Q 8.5 64.0625 14.71875 69.140625 
Q 20.953125 74.21875 31.78125 74.21875 
Q 42.671875 74.21875 48.875 69.140625 
Q 55.078125 64.0625 55.078125 55.328125 
Q 55.078125 49.078125 51.53125 44.71875 
Q 48 40.375 41.703125 38.8125 
Q 48.828125 37.15625 52.796875 32.3125 
Q 56.78125 27.484375 56.78125 20.515625 
Q 56.78125 9.90625 50.3125 4.234375 
Q 43.84375 -1.421875 31.78125 -1.421875 
Q 19.734375 -1.421875 13.25 4.234375 
Q 6.78125 9.90625 6.78125 20.515625 
Q 6.78125 27.484375 10.78125 32.3125 
Q 14.796875 37.15625 21.921875 38.8125 
z
M 18.3125 54.390625 
Q 18.3125 48.734375 21.84375 45.5625 
Q 25.390625 42.390625 31.78125 42.390625 
Q 38.140625 42.390625 41.71875 45.5625 
Q 45.3125 48.734375 45.3125 54.390625 
Q 45.3125 60.0625 41.71875 63.234375 
Q 38.140625 66.40625 31.78125 66.40625 
Q 25.390625 66.40625 21.84375 63.234375 
Q 18.3125 60.0625 18.3125 54.390625 
z
" id="DejaVuSans-56"/>
      </defs>
      <g transform="translate(25.155 90.134829)scale(0.16 -0.16)">
       <use xlink:href="#DejaVuSans-48"/>
       <use x="63.623047" xlink:href="#DejaVuSans-46"/>
       <use x="95.410156" xlink:href="#DejaVuSans-56"/>
      </g>
     </g>
    </g>
    <g id="ytick_6">
     <g id="line2d_31">
      <path clip-path="url(#pb603baabc3)" d="M 57.6 30.334099 
L 338.688 30.334099 
" style="fill:none;stroke:#b0b0b0;stroke-linecap:square;stroke-width:0.8;"/>
     </g>
     <g id="line2d_32">
      <g>
       <use style="stroke:#000000;stroke-width:0.8;" x="57.6" xlink:href="#m2e3646e59a" y="30.334099"/>
      </g>
     </g>
     <g id="text_11">
      <!-- 1.0 -->
      <g transform="translate(25.155 36.412849)scale(0.16 -0.16)">
       <use xlink:href="#DejaVuSans-49"/>
       <use x="63.623047" xlink:href="#DejaVuSans-46"/>
       <use x="95.410156" xlink:href="#DejaVuSans-48"/>
      </g>
     </g>
    </g>
    <g id="text_12">
     <!-- Fraction of function,target pairs -->
     <defs>
      <path d="M 9.8125 72.90625 
L 51.703125 72.90625 
L 51.703125 64.59375 
L 19.671875 64.59375 
L 19.671875 43.109375 
L 48.578125 43.109375 
L 48.578125 34.8125 
L 19.671875 34.8125 
L 19.671875 0 
L 9.8125 0 
z
" id="DejaVuSans-70"/>
      <path d="M 41.109375 46.296875 
Q 39.59375 47.171875 37.8125 47.578125 
Q 36.03125 48 33.890625 48 
Q 26.265625 48 22.1875 43.046875 
Q 18.109375 38.09375 18.109375 28.8125 
L 18.109375 0 
L 9.078125 0 
L 9.078125 54.6875 
L 18.109375 54.6875 
L 18.109375 46.1875 
Q 20.953125 51.171875 25.484375 53.578125 
Q 30.03125 56 36.53125 56 
Q 37.453125 56 38.578125 55.875 
Q 39.703125 55.765625 41.0625 55.515625 
z
" id="DejaVuSans-114"/>
      <path d="M 48.78125 52.59375 
L 48.78125 44.1875 
Q 44.96875 46.296875 41.140625 47.34375 
Q 37.3125 48.390625 33.40625 48.390625 
Q 24.65625 48.390625 19.8125 42.84375 
Q 14.984375 37.3125 14.984375 27.296875 
Q 14.984375 17.28125 19.8125 11.734375 
Q 24.65625 6.203125 33.40625 6.203125 
Q 37.3125 6.203125 41.140625 7.25 
Q 44.96875 8.296875 48.78125 10.40625 
L 48.78125 2.09375 
Q 45.015625 0.34375 40.984375 -0.53125 
Q 36.96875 -1.421875 32.421875 -1.421875 
Q 20.0625 -1.421875 12.78125 6.34375 
Q 5.515625 14.109375 5.515625 27.296875 
Q 5.515625 40.671875 12.859375 48.328125 
Q 20.21875 56 33.015625 56 
Q 37.15625 56 41.109375 55.140625 
Q 45.0625 54.296875 48.78125 52.59375 
z
" id="DejaVuSans-99"/>
      <path d="M 18.3125 70.21875 
L 18.3125 54.6875 
L 36.8125 54.6875 
L 36.8125 47.703125 
L 18.3125 47.703125 
L 18.3125 18.015625 
Q 18.3125 11.328125 20.140625 9.421875 
Q 21.96875 7.515625 27.59375 7.515625 
L 36.8125 7.515625 
L 36.8125 0 
L 27.59375 0 
Q 17.1875 0 13.234375 3.875 
Q 9.28125 7.765625 9.28125 18.015625 
L 9.28125 47.703125 
L 2.6875 47.703125 
L 2.6875 54.6875 
L 9.28125 54.6875 
L 9.28125 70.21875 
z
" id="DejaVuSans-116"/>
      <path d="M 8.5 21.578125 
L 8.5 54.6875 
L 17.484375 54.6875 
L 17.484375 21.921875 
Q 17.484375 14.15625 20.5 10.265625 
Q 23.53125 6.390625 29.59375 6.390625 
Q 36.859375 6.390625 41.078125 11.03125 
Q 45.3125 15.671875 45.3125 23.6875 
L 45.3125 54.6875 
L 54.296875 54.6875 
L 54.296875 0 
L 45.3125 0 
L 45.3125 8.40625 
Q 42.046875 3.421875 37.71875 1 
Q 33.40625 -1.421875 27.6875 -1.421875 
Q 18.265625 -1.421875 13.375 4.4375 
Q 8.5 10.296875 8.5 21.578125 
z
M 31.109375 56 
z
" id="DejaVuSans-117"/>
      <path d="M 11.71875 12.40625 
L 22.015625 12.40625 
L 22.015625 4 
L 14.015625 -11.625 
L 7.71875 -11.625 
L 11.71875 4 
z
" id="DejaVuSans-44"/>
      <path d="M 18.109375 8.203125 
L 18.109375 -20.796875 
L 9.078125 -20.796875 
L 9.078125 54.6875 
L 18.109375 54.6875 
L 18.109375 46.390625 
Q 20.953125 51.265625 25.265625 53.625 
Q 29.59375 56 35.59375 56 
Q 45.5625 56 51.78125 48.09375 
Q 58.015625 40.1875 58.015625 27.296875 
Q 58.015625 14.40625 51.78125 6.484375 
Q 45.5625 -1.421875 35.59375 -1.421875 
Q 29.59375 -1.421875 25.265625 0.953125 
Q 20.953125 3.328125 18.109375 8.203125 
z
M 48.6875 27.296875 
Q 48.6875 37.203125 44.609375 42.84375 
Q 40.53125 48.484375 33.40625 48.484375 
Q 26.265625 48.484375 22.1875 42.84375 
Q 18.109375 37.203125 18.109375 27.296875 
Q 18.109375 17.390625 22.1875 11.75 
Q 26.265625 6.109375 33.40625 6.109375 
Q 40.53125 6.109375 44.609375 11.75 
Q 48.6875 17.390625 48.6875 27.296875 
z
" id="DejaVuSans-112"/>
     </defs>
     <g transform="translate(17.619531 297.681)rotate(-90)scale(0.17 -0.17)">
      <use xlink:href="#DejaVuSans-70"/>
      <use x="50.269531" xlink:href="#DejaVuSans-114"/>
      <use x="91.382812" xlink:href="#DejaVuSans-97"/>
      <use x="152.662109" xlink:href="#DejaVuSans-99"/>
      <use x="207.642578" xlink:href="#DejaVuSans-116"/>
      <use x="246.851562" xlink:href="#DejaVuSans-105"/>
      <use x="274.634766" xlink:href="#DejaVuSans-111"/>
      <use x="335.816406" xlink:href="#DejaVuSans-110"/>
      <use x="399.195312" xlink:href="#DejaVuSans-32"/>
      <use x="430.982422" xlink:href="#DejaVuSans-111"/>
      <use x="492.164062" xlink:href="#DejaVuSans-102"/>
      <use x="527.369141" xlink:href="#DejaVuSans-32"/>
      <use x="559.15625" xlink:href="#DejaVuSans-102"/>
      <use x="594.361328" xlink:href="#DejaVuSans-117"/>
      <use x="657.740234" xlink:href="#DejaVuSans-110"/>
      <use x="721.119141" xlink:href="#DejaVuSans-99"/>
      <use x="776.099609" xlink:href="#DejaVuSans-116"/>
      <use x="815.308594" xlink:href="#DejaVuSans-105"/>
      <use x="843.091797" xlink:href="#DejaVuSans-111"/>
      <use x="904.273438" xlink:href="#DejaVuSans-110"/>
      <use x="967.652344" xlink:href="#DejaVuSans-44"/>
      <use x="999.439453" xlink:href="#DejaVuSans-116"/>
      <use x="1038.648438" xlink:href="#DejaVuSans-97"/>
      <use x="1099.927734" xlink:href="#DejaVuSans-114"/>
      <use x="1139.291016" xlink:href="#DejaVuSans-103"/>
      <use x="1202.767578" xlink:href="#DejaVuSans-101"/>
      <use x="1264.291016" xlink:href="#DejaVuSans-116"/>
      <use x="1303.5" xlink:href="#DejaVuSans-32"/>
      <use x="1335.287109" xlink:href="#DejaVuSans-112"/>
      <use x="1398.763672" xlink:href="#DejaVuSans-97"/>
      <use x="1460.042969" xlink:href="#DejaVuSans-105"/>
      <use x="1487.826172" xlink:href="#DejaVuSans-114"/>
      <use x="1528.939453" xlink:href="#DejaVuSans-115"/>
     </g>
    </g>
   </g>
   <g id="line2d_33">
    <defs>
     <path d="M 0 1.5 
C 0.397805 1.5 0.77937 1.341951 1.06066 1.06066 
C 1.341951 0.77937 1.5 0.397805 1.5 0 
C 1.5 -0.397805 1.341951 -0.77937 1.06066 -1.06066 
C 0.77937 -1.341951 0.397805 -1.5 0 -1.5 
C -0.397805 -1.5 -0.77937 -1.341951 -1.06066 -1.06066 
C -1.341951 -0.77937 -1.5 -0.397805 -1.5 0 
C -1.5 0.397805 -1.341951 0.77937 -1.06066 1.06066 
C -0.77937 1.341951 -0.397805 1.5 0 1.5 
z
" id="md9f1167e85" style="stroke:#f5deb3;"/>
    </defs>
    <g>
     <use style="fill:#f5deb3;stroke:#f5deb3;" x="132.501978" xlink:href="#md9f1167e85" y="30.334099"/>
     <use style="fill:#f5deb3;stroke:#f5deb3;" x="132.501978" xlink:href="#md9f1167e85" y="30.334099"/>
    </g>
   </g>
   <g id="line2d_34">
    <defs>
     <path d="M 0 1.5 
C 0.397805 1.5 0.77937 1.341951 1.06066 1.06066 
C 1.341951 0.77937 1.5 0.397805 1.5 0 
C 1.5 -0.397805 1.341951 -0.77937 1.06066 -1.06066 
C 0.77937 -1.341951 0.397805 -1.5 0 -1.5 
C -0.397805 -1.5 -0.77937 -1.341951 -1.06066 -1.06066 
C -1.341951 -0.77937 -1.5 -0.397805 -1.5 0 
C -1.5 0.397805 -1.341951 0.77937 -1.06066 1.06066 
C -0.77937 1.341951 -0.397805 1.5 0 1.5 
z
" id="m33f28be2d1" style="stroke:#000080;"/>
    </defs>
    <g>
     <use style="fill:#000080;stroke:#000080;" x="260.179658" xlink:href="#m33f28be2d1" y="193.606784"/>
     <use style="fill:#000080;stroke:#000080;" x="260.179658" xlink:href="#m33f28be2d1" y="193.606784"/>
    </g>
   </g>
   <g id="line2d_35">
    <path d="M 38.440992 298.944 
L 38.440992 284.723476 
L 50.52898 284.723476 
L 50.52898 269.976266 
L 57.6 269.976266 
L 57.6 267.342835 
L 66.508432 267.342835 
L 66.508432 264.709405 
L 69.687988 264.709405 
L 69.687988 262.60266 
L 72.376266 262.60266 
L 72.376266 261.022602 
L 74.704957 261.022602 
L 74.704957 259.96923 
L 78.59642 259.96923 
L 78.59642 259.442544 
L 81.775977 259.442544 
L 81.775977 258.389172 
L 84.464254 258.389172 
L 84.464254 257.862486 
L 86.792945 257.862486 
L 86.792945 257.3358 
L 93.863965 257.3358 
L 93.863965 256.809114 
L 98.32726 256.809114 
L 98.32726 256.282427 
L 101.412804 256.282427 
L 101.412804 255.755741 
L 104.033617 255.755741 
L 104.033617 255.229055 
L 104.434538 255.229055 
L 104.434538 254.702369 
L 105.584798 254.702369 
L 105.584798 253.648997 
L 105.951954 253.648997 
L 105.951954 253.122311 
L 107.347841 253.122311 
L 107.347841 251.542253 
L 108.006005 251.542253 
L 108.006005 250.488881 
L 115.291007 250.488881 
L 115.291007 249.435508 
L 123.056911 249.435508 
L 123.056911 248.382136 
L 123.192626 248.382136 
L 123.192626 247.85545 
L 123.593547 247.85545 
L 123.593547 247.328764 
L 126.948374 247.328764 
L 126.948374 246.802078 
L 127.695124 246.802078 
L 127.695124 246.275392 
L 129.760775 246.275392 
L 129.760775 245.748706 
L 130.398313 245.748706 
L 130.398313 244.695334 
L 130.752422 244.695334 
L 130.752422 244.168648 
L 130.926816 244.168648 
L 130.926816 243.641962 
L 132.019755 243.641962 
L 132.019755 243.115275 
L 132.501978 243.115275 
L 132.501978 242.588589 
L 133.352844 242.588589 
L 133.352844 241.535217 
L 133.503183 241.535217 
L 133.57787 239.428473 
L 135.348078 239.428473 
L 135.348078 238.375101 
L 140.246813 238.375101 
L 140.246813 236.795043 
L 143.31586 236.795043 
L 143.31586 236.268356 
L 144.589967 236.268356 
L 144.589967 235.214984 
L 145.440832 235.214984 
L 145.440832 233.634926 
L 152.181601 233.634926 
L 152.181601 233.10824 
L 152.536999 233.10824 
L 152.536999 232.581554 
L 155.403849 232.581554 
L 155.403849 232.054868 
L 156.697761 232.054868 
L 156.697761 231.001496 
L 162.332157 231.001496 
L 162.332157 229.948123 
L 163.642961 229.948123 
L 163.709295 228.894751 
L 167.266534 228.894751 
L 167.266534 227.314693 
L 176.014414 227.314693 
L 176.014414 223.627891 
L 177.238947 223.627891 
L 177.238947 223.101204 
L 178.519578 223.101204 
L 178.519578 222.574518 
L 185.869662 222.574518 
L 185.869662 222.047832 
L 187.772353 222.047832 
L 187.772353 221.521146 
L 189.804919 221.521146 
L 189.804919 220.99446 
L 194.429792 220.99446 
L 194.429792 219.941088 
L 196.618032 219.941088 
L 196.618032 219.414402 
L 200.535158 219.414402 
L 200.535158 218.887716 
L 203.185615 218.887716 
L 203.185615 218.36103 
L 203.743806 218.36103 
L 203.743806 217.834344 
L 204.542592 217.834344 
L 204.542592 217.307658 
L 208.987634 217.307658 
L 208.987634 215.727599 
L 209.389654 215.727599 
L 209.389654 215.200913 
L 212.504946 215.200913 
L 212.504946 214.674227 
L 213.333706 214.674227 
L 213.333706 213.620855 
L 216.809882 213.620855 
L 216.809882 211.514111 
L 217.444288 211.514111 
L 217.444288 210.987425 
L 219.136131 210.987425 
L 219.136131 210.460738 
L 219.706983 210.460738 
L 219.706983 208.353994 
L 220.165356 208.353994 
L 220.24577 207.300622 
L 222.190668 207.300622 
L 222.190668 206.773936 
L 224.364324 206.773936 
L 224.364324 206.24725 
L 226.296833 206.24725 
L 226.296833 205.193878 
L 226.667861 205.193878 
L 226.667861 204.667192 
L 228.036397 204.667192 
L 228.036397 203.087133 
L 231.068145 203.087133 
L 231.068145 202.560447 
L 232.406847 202.560447 
L 232.406847 202.033761 
L 233.650071 202.033761 
L 233.650071 201.507075 
L 235.898573 201.507075 
L 235.898573 200.453703 
L 237.889998 200.453703 
L 237.889998 199.400331 
L 238.806455 199.400331 
L 238.806455 198.873645 
L 240.506425 198.873645 
L 240.506425 198.346959 
L 244.792906 198.346959 
L 244.792906 197.820273 
L 245.415062 197.820273 
L 245.415062 196.7669 
L 246.015784 196.7669 
L 246.015784 196.240214 
L 247.158501 196.240214 
L 247.158501 195.713528 
L 247.702955 195.713528 
L 247.702955 194.660156 
L 248.743377 194.660156 
L 248.743377 194.13347 
L 260.179658 194.13347 
L 260.179658 193.606784 
L 338.688 193.606784 
L 338.688 193.606784 
" style="fill:none;stroke:#000080;stroke-linecap:square;stroke-width:1.5;"/>
   </g>
   <g id="line2d_36">
    <defs>
     <path d="M 0 6 
C 1.591219 6 3.117479 5.367802 4.242641 4.242641 
C 5.367802 3.117479 6 1.591219 6 0 
C 6 -1.591219 5.367802 -3.117479 4.242641 -4.242641 
C 3.117479 -5.367802 1.591219 -6 0 -6 
C -1.591219 -6 -3.117479 -5.367802 -4.242641 -4.242641 
C -5.367802 -3.117479 -6 -1.591219 -6 0 
C -6 1.591219 -5.367802 3.117479 -4.242641 4.242641 
C -3.117479 5.367802 -1.591219 6 0 6 
z
" id="mbfc670355c" style="stroke:#000080;stroke-width:1.5;"/>
    </defs>
    <g>
     <use style="fill-opacity:0;stroke:#000080;stroke-width:1.5;" x="74.704957" xlink:href="#mbfc670355c" y="259.96923"/>
     <use style="fill-opacity:0;stroke:#000080;stroke-width:1.5;" x="156.697761" xlink:href="#mbfc670355c" y="231.001496"/>
     <use style="fill-opacity:0;stroke:#000080;stroke-width:1.5;" x="213.333706" xlink:href="#mbfc670355c" y="214.674227"/>
     <use style="fill-opacity:0;stroke:#000080;stroke-width:1.5;" x="260.179658" xlink:href="#mbfc670355c" y="194.13347"/>
     <use style="fill-opacity:0;stroke:#000080;stroke-width:1.5;" x="260.179658" xlink:href="#mbfc670355c" y="193.606784"/>
     <use style="fill-opacity:0;stroke:#000080;stroke-width:1.5;" x="338.688" xlink:href="#mbfc670355c" y="193.606784"/>
    </g>
   </g>
   <g id="line2d_37">
    <path style="fill:none;stroke:#000080;stroke-linecap:square;stroke-width:1.5;"/>
    <g/>
   </g>
   <g id="line2d_38">
    <path clip-path="url(#pb603baabc3)" d="M 186.974717 222.047832 
" style="fill:none;stroke:#000080;stroke-linecap:square;stroke-width:1.5;"/>
    <defs>
     <path d="M -12 12 
L 12 -12 
M -12 -12 
L 12 12 
" id="m4ddf446dcb" style="stroke:#000080;"/>
    </defs>
    <g clip-path="url(#pb603baabc3)">
     <use style="fill:#000080;stroke:#000080;" x="186.974717" xlink:href="#m4ddf446dcb" y="222.047832"/>
    </g>
   </g>
   <g id="line2d_39">
    <defs>
     <path d="M 0 1.5 
C 0.397805 1.5 0.77937 1.341951 1.06066 1.06066 
C 1.341951 0.77937 1.5 0.397805 1.5 0 
C 1.5 -0.397805 1.341951 -0.77937 1.06066 -1.06066 
C 0.77937 -1.341951 0.397805 -1.5 0 -1.5 
C -0.397805 -1.5 -0.77937 -1.341951 -1.06066 -1.06066 
C -1.341951 -0.77937 -1.5 -0.397805 -1.5 0 
C -1.5 0.397805 -1.341951 0.77937 -1.06066 1.06066 
C -0.77937 1.341951 -0.397805 1.5 0 1.5 
z
" id="m7033bfd5a8" style="stroke:#ff7500;"/>
    </defs>
    <g>
     <use style="fill:#ff7500;stroke:#ff7500;" x="248.914137" xlink:href="#m7033bfd5a8" y="30.334099"/>
     <use style="fill:#ff7500;stroke:#ff7500;" x="248.914137" xlink:href="#m7033bfd5a8" y="30.334099"/>
    </g>
   </g>
   <g id="line2d_40">
    <path d="M 38.440992 298.944 
L 38.440992 286.83022 
L 50.52898 286.83022 
L 50.52898 283.143418 
L 57.6 283.143418 
L 57.6 272.609696 
L 62.616969 272.609696 
L 62.616969 269.976266 
L 66.508432 269.976266 
L 66.508432 266.816149 
L 69.687988 266.816149 
L 69.687988 265.762777 
L 76.759008 265.762777 
L 76.759008 259.96923 
L 78.59642 259.96923 
L 78.59642 257.3358 
L 81.775977 257.3358 
L 81.775977 255.755741 
L 83.171864 255.755741 
L 83.171864 255.229055 
L 85.66744 255.229055 
L 85.66744 254.702369 
L 86.792945 254.702369 
L 86.792945 253.648997 
L 87.850195 253.648997 
L 87.850195 253.122311 
L 88.846997 253.122311 
L 88.846997 252.595625 
L 91.535274 252.595625 
L 91.535274 249.435508 
L 95.918017 249.435508 
L 95.918017 246.275392 
L 97.16421 246.275392 
L 97.16421 245.22202 
L 98.32726 245.22202 
L 98.32726 244.695334 
L 112.026172 244.695334 
L 112.026172 244.168648 
L 114.641021 244.168648 
L 114.641021 243.115275 
L 114.860386 243.115275 
L 114.860386 242.061903 
L 115.077025 242.061903 
L 115.077025 240.481845 
L 116.522527 240.481845 
L 116.522527 239.955159 
L 120.093994 239.955159 
L 120.093994 239.428473 
L 121.036887 239.428473 
L 121.036887 238.901787 
L 121.489881 238.901787 
L 121.489881 237.848415 
L 123.985457 237.848415 
L 123.985457 237.321729 
L 125.110962 237.321729 
L 125.110962 236.795043 
L 126.168212 236.795043 
L 126.168212 236.268356 
L 127.799239 236.268356 
L 127.799239 235.74167 
L 128.905271 235.74167 
L 128.905271 235.214984 
L 129.385722 235.214984 
L 129.385722 234.161612 
L 129.574256 234.161612 
L 129.574256 232.581554 
L 130.487516 232.581554 
L 130.487516 232.054868 
L 130.926816 232.054868 
L 130.926816 231.528182 
L 133.124876 231.528182 
L 133.201197 229.948123 
L 133.277185 229.948123 
L 133.277185 228.894751 
L 134.591225 228.894751 
L 134.591225 227.841379 
L 134.7313 227.841379 
L 134.7313 226.788007 
L 135.482227 226.788007 
L 135.482227 225.734635 
L 136.137916 225.734635 
L 136.137916 225.207949 
L 136.456742 225.207949 
L 136.456742 224.681263 
L 136.769843 224.681263 
L 136.769843 223.101204 
L 137.319638 223.101204 
L 137.319638 222.047832 
L 138.426341 222.047832 
L 138.426341 220.467774 
L 139.783113 220.467774 
L 139.783113 218.887716 
L 140.246813 218.887716 
L 140.246813 218.36103 
L 140.89556 218.36103 
L 140.944478 216.780971 
L 141.041904 216.780971 
L 141.041904 216.254285 
L 141.80232 216.254285 
L 141.80232 215.727599 
L 142.664255 215.727599 
L 142.664255 215.200913 
L 142.840411 215.200913 
L 142.840411 214.147541 
L 144.06695 214.147541 
L 144.06695 213.620855 
L 144.708467 213.620855 
L 144.708467 213.094169 
L 145.020588 213.094169 
L 145.097753 210.987425 
L 145.174578 210.987425 
L 145.174578 210.460738 
L 145.516164 210.460738 
L 145.516164 209.934052 
L 145.777292 209.934052 
L 145.888018 207.827308 
L 145.924771 207.827308 
L 145.961446 205.720564 
L 146.071013 205.720564 
L 146.071013 205.193878 
L 146.216039 205.193878 
L 146.216039 204.667192 
L 146.644018 204.667192 
L 146.644018 203.613819 
L 147.027314 203.613819 
L 147.061745 202.560447 
L 147.198794 202.560447 
L 147.198794 201.507075 
L 147.402367 201.507075 
L 147.402367 200.980389 
L 147.802521 200.980389 
L 147.802521 200.453703 
L 148.031773 200.453703 
L 148.031773 199.927017 
L 148.417899 199.927017 
L 148.417899 199.400331 
L 148.670646 199.400331 
L 148.670646 198.873645 
L 148.857832 198.873645 
L 148.857832 198.346959 
L 149.31719 198.346959 
L 149.31719 197.293586 
L 149.911431 197.293586 
L 149.911431 196.7669 
L 150.085825 196.7669 
L 150.085825 196.240214 
L 150.486088 196.240214 
L 150.542526 195.186842 
L 151.015013 195.186842 
L 151.015013 194.13347 
L 151.178764 194.13347 
L 151.233007 192.553412 
L 151.554972 192.553412 
L 151.581536 190.973354 
L 152.001148 190.973354 
L 152.104493 189.919981 
L 152.436193 189.919981 
L 152.436193 188.339923 
L 152.811246 188.339923 
L 152.811246 187.813237 
L 153.154164 187.813237 
L 153.202607 185.179807 
L 153.609024 185.179807 
L 153.609024 184.653121 
L 153.867041 184.653121 
L 153.867041 184.126434 
L 154.19 184.126434 
L 154.19 183.599748 
L 154.371897 183.599748 
L 154.371897 183.073062 
L 154.641235 183.073062 
L 154.641235 182.546376 
L 154.81851 182.546376 
L 154.81851 180.439632 
L 154.950294 180.439632 
L 154.950294 179.38626 
L 155.425155 179.38626 
L 155.425155 178.859574 
L 155.657823 178.859574 
L 155.762564 177.279515 
L 156.175347 177.279515 
L 156.175347 176.752829 
L 156.43851 176.752829 
L 156.43851 174.646085 
L 157.262567 174.646085 
L 157.262567 173.066027 
L 157.566527 173.066027 
L 157.566527 172.539341 
L 157.79107 172.539341 
L 157.79107 172.012655 
L 158.177196 172.012655 
L 158.231665 170.959282 
L 158.412011 170.959282 
L 158.447857 169.90591 
L 158.608261 169.90591 
L 158.608261 168.852538 
L 158.889829 168.852538 
L 158.889829 167.799166 
L 159.252621 167.799166 
L 159.252621 166.745794 
L 159.490356 166.745794 
L 159.490356 166.219108 
L 160.087195 166.219108 
L 160.087195 165.692422 
L 160.217098 165.692422 
L 160.249422 164.63905 
L 160.458086 164.63905 
L 160.458086 164.112363 
L 161.007772 164.112363 
L 161.007772 163.585677 
L 161.405178 163.585677 
L 161.405178 162.532305 
L 161.867469 162.532305 
L 161.940898 161.478933 
L 162.130378 161.478933 
L 162.130378 160.952247 
L 162.346481 160.952247 
L 162.44642 158.318817 
L 162.868358 158.318817 
L 162.868358 157.265444 
L 163.171418 157.265444 
L 163.171418 156.738758 
L 163.402046 156.738758 
L 163.402046 154.632014 
L 163.696049 154.632014 
L 163.696049 154.105328 
L 163.814908 154.105328 
L 163.854349 153.051956 
L 164.011225 153.051956 
L 164.037234 151.998584 
L 164.384616 151.998584 
L 164.486229 150.418525 
L 164.498889 150.418525 
L 164.498889 149.365153 
L 164.700211 149.365153 
L 164.700211 148.311781 
L 165.18141 148.311781 
L 165.18141 147.785095 
L 165.447111 147.785095 
L 165.447111 146.731723 
L 166.437252 146.731723 
L 166.48249 145.678351 
L 166.595075 145.678351 
L 166.595075 145.151665 
L 166.718084 145.151665 
L 166.807003 143.04492 
L 167.103803 143.04492 
L 167.179933 141.464862 
L 167.234109 141.464862 
L 167.234109 140.938176 
L 167.587512 140.938176 
L 167.587512 140.41149 
L 167.787784 140.41149 
L 167.850553 138.831432 
L 167.923499 138.831432 
L 167.923499 137.778059 
L 168.191801 137.778059 
L 168.293904 136.724687 
L 168.314254 136.724687 
L 168.395414 135.671315 
L 168.636653 135.671315 
L 168.70639 134.617943 
L 168.972794 134.617943 
L 169.050954 133.564571 
L 169.119057 133.564571 
L 169.119057 132.511199 
L 169.340971 132.511199 
L 169.360135 131.457826 
L 169.474679 131.457826 
L 169.474679 130.93114 
L 169.654516 130.93114 
L 169.654516 130.404454 
L 169.813865 130.404454 
L 169.813865 129.877768 
L 169.925477 129.877768 
L 169.99949 128.824396 
L 170.192293 128.824396 
L 170.192293 127.771024 
L 170.499999 127.771024 
L 170.499999 127.244338 
L 170.986544 127.244338 
L 171.064884 125.137593 
L 171.142873 125.137593 
L 171.142873 124.610907 
L 171.687629 124.610907 
L 171.687629 124.084221 
L 171.904165 124.084221 
L 171.904165 121.977477 
L 172.498143 121.977477 
L 172.530112 119.870733 
L 173.134368 119.870733 
L 173.134368 119.344047 
L 173.333764 119.344047 
L 173.333764 118.290674 
L 173.478048 118.290674 
L 173.478048 117.763988 
L 173.866933 117.763988 
L 173.977519 116.710616 
L 174.26903 116.710616 
L 174.26903 115.130558 
L 174.626698 115.130558 
L 174.626698 114.603872 
L 174.753684 114.603872 
L 174.753684 114.077186 
L 174.997985 114.077186 
L 175.108535 113.023814 
L 175.136064 113.023814 
L 175.136064 112.497128 
L 175.266234 112.497128 
L 175.266234 111.970441 
L 175.604215 111.970441 
L 175.604215 110.917069 
L 175.823747 110.917069 
L 175.823747 109.863697 
L 177.330141 109.863697 
L 177.330141 109.337011 
L 177.696161 109.337011 
L 177.790908 108.283639 
L 177.967182 108.283639 
L 177.973027 106.703581 
L 178.889448 106.703581 
L 178.889448 106.176895 
L 179.027527 106.176895 
L 179.027527 105.650209 
L 179.18634 105.650209 
L 179.18634 105.123522 
L 180.011487 105.123522 
L 180.011487 104.596836 
L 180.284908 104.596836 
L 180.284908 103.543464 
L 180.51374 103.543464 
L 180.51374 103.016778 
L 180.639584 103.016778 
L 180.639584 102.490092 
L 181.021571 102.490092 
L 181.021571 101.963406 
L 181.457697 101.963406 
L 181.457697 101.43672 
L 181.709515 101.43672 
L 181.709515 100.910034 
L 182.045885 100.910034 
L 182.069005 99.856662 
L 182.197912 99.856662 
L 182.197912 99.329976 
L 182.793106 99.329976 
L 182.793106 98.803289 
L 182.943179 98.803289 
L 182.943179 98.276603 
L 184.049996 98.276603 
L 184.049996 97.223231 
L 184.291671 97.223231 
L 184.291671 96.696545 
L 184.505951 96.696545 
L 184.610114 95.116487 
L 185.660313 95.116487 
L 185.660313 94.589801 
L 186.475862 94.589801 
L 186.475862 94.063115 
L 190.596235 94.063115 
L 190.596235 93.536429 
L 191.007908 93.536429 
L 191.007908 93.009743 
L 191.834902 93.009743 
L 191.834902 92.483056 
L 192.003018 92.483056 
L 192.003018 91.95637 
L 192.421457 91.95637 
L 192.513095 90.902998 
L 192.563798 90.902998 
L 192.563798 90.376312 
L 192.86247 90.376312 
L 192.86247 89.849626 
L 193.107106 89.849626 
L 193.185452 88.269568 
L 193.588704 88.269568 
L 193.588704 87.742882 
L 193.842259 87.742882 
L 193.842259 84.582765 
L 194.119987 84.582765 
L 194.119987 84.056079 
L 194.898817 84.056079 
L 194.898817 83.529393 
L 195.068485 83.529393 
L 195.068485 83.002707 
L 195.484499 83.002707 
L 195.484499 82.476021 
L 196.129733 82.476021 
L 196.18124 80.895963 
L 196.338933 80.895963 
L 196.338933 80.369277 
L 196.771841 80.369277 
L 196.837347 78.789218 
L 197.192322 78.789218 
L 197.192322 78.262532 
L 197.871972 78.262532 
L 197.920451 76.682474 
L 198.417884 76.682474 
L 198.417884 76.155788 
L 201.658559 76.155788 
L 201.658559 75.629102 
L 201.977216 75.629102 
L 201.977216 75.102416 
L 202.443107 75.102416 
L 202.443107 74.57573 
L 202.832367 74.57573 
L 202.927641 72.468985 
L 203.030733 72.468985 
L 203.030733 71.942299 
L 203.145644 71.942299 
L 203.145644 71.415613 
L 203.616673 71.415613 
L 203.616673 70.888927 
L 203.903082 70.888927 
L 203.903082 69.835555 
L 204.175761 69.835555 
L 204.175761 68.255497 
L 204.909351 68.255497 
L 204.909351 66.675439 
L 205.212263 66.675439 
L 205.28443 65.09538 
L 205.349004 65.09538 
L 205.380595 62.988636 
L 207.711107 62.988636 
L 207.711107 62.46195 
L 209.267687 62.46195 
L 209.297774 61.408578 
L 210.047497 61.408578 
L 210.047497 60.881892 
L 210.195492 60.881892 
L 210.195492 60.355206 
L 210.588917 60.355206 
L 210.685902 59.301833 
L 213.085754 59.301833 
L 213.085754 58.775147 
L 213.575906 58.775147 
L 213.575906 58.248461 
L 213.716467 58.248461 
L 213.716467 57.721775 
L 213.946018 57.721775 
L 213.946018 57.195089 
L 214.317894 57.195089 
L 214.317894 56.668403 
L 214.495142 56.668403 
L 214.575574 54.561659 
L 214.67132 54.561659 
L 214.67132 53.508287 
L 216.649039 53.508287 
L 216.649039 52.9816 
L 216.941126 52.9816 
L 216.941126 52.454914 
L 217.124089 52.454914 
L 217.124089 51.928228 
L 218.009412 51.928228 
L 218.009412 51.401542 
L 220.097624 51.401542 
L 220.1211 50.34817 
L 220.521025 50.34817 
L 220.521025 49.821484 
L 222.529955 49.821484 
L 222.529955 49.294798 
L 222.66114 49.294798 
L 222.66114 48.768112 
L 224.260197 48.768112 
L 224.260197 48.241426 
L 224.664192 48.241426 
L 224.664192 47.71474 
L 224.874645 47.71474 
L 224.894085 46.134681 
L 225.087688 46.134681 
L 225.087688 45.607995 
L 226.203657 45.607995 
L 226.203657 44.554623 
L 226.470841 44.554623 
L 226.470841 44.027937 
L 226.907602 44.027937 
L 227.003075 42.447879 
L 227.952088 42.447879 
L 227.952088 41.921193 
L 228.58175 41.921193 
L 228.58175 40.867821 
L 229.713673 40.867821 
L 229.769524 39.814448 
L 230.093281 39.814448 
L 230.124447 38.23439 
L 231.563892 38.23439 
L 231.563892 37.707704 
L 232.730362 37.707704 
L 232.730362 37.181018 
L 233.589007 37.181018 
L 233.589007 36.654332 
L 234.028244 36.654332 
L 234.078427 35.60096 
L 235.187914 35.60096 
L 235.211629 34.020902 
L 238.256852 34.020902 
L 238.256852 33.494215 
L 239.963381 33.494215 
L 239.981418 32.440843 
L 242.285136 32.440843 
L 242.285136 31.914157 
L 246.202908 31.914157 
L 246.202908 31.387471 
L 247.884157 31.387471 
L 247.884157 30.860785 
L 248.914137 30.860785 
L 248.914137 30.334099 
L 338.688 30.334099 
L 338.688 30.334099 
" style="fill:none;stroke:#ff7500;stroke-linecap:square;stroke-width:1.5;"/>
   </g>
   <g id="line2d_41">
    <defs>
     <path d="M 0 -6 
L -1.347084 -1.854102 
L -5.706339 -1.854102 
L -2.179628 0.708204 
L -3.526712 4.854102 
L -0 2.291796 
L 3.526712 4.854102 
L 2.179628 0.708204 
L 5.706339 -1.854102 
L 1.347084 -1.854102 
z
" id="ma759fb2a27" style="stroke:#ff7500;stroke-linejoin:bevel;stroke-width:1.5;"/>
    </defs>
    <g>
     <use style="fill-opacity:0;stroke:#ff7500;stroke-linejoin:bevel;stroke-width:1.5;" x="135.482227" xlink:href="#ma759fb2a27" y="225.734635"/>
     <use style="fill-opacity:0;stroke:#ff7500;stroke-linejoin:bevel;stroke-width:1.5;" x="167.103803" xlink:href="#ma759fb2a27" y="143.04492"/>
     <use style="fill-opacity:0;stroke:#ff7500;stroke-linejoin:bevel;stroke-width:1.5;" x="222.66114" xlink:href="#ma759fb2a27" y="48.768112"/>
     <use style="fill-opacity:0;stroke:#ff7500;stroke-linejoin:bevel;stroke-width:1.5;" x="248.914137" xlink:href="#ma759fb2a27" y="30.334099"/>
     <use style="fill-opacity:0;stroke:#ff7500;stroke-linejoin:bevel;stroke-width:1.5;" x="248.914137" xlink:href="#ma759fb2a27" y="30.334099"/>
     <use style="fill-opacity:0;stroke:#ff7500;stroke-linejoin:bevel;stroke-width:1.5;" x="338.688" xlink:href="#ma759fb2a27" y="30.334099"/>
    </g>
   </g>
   <g id="line2d_42">
    <path style="fill:none;stroke:#ff7500;stroke-linecap:square;stroke-width:1.5;"/>
    <g/>
   </g>
   <g id="line2d_43">
    <path clip-path="url(#pb603baabc3)" d="M 186.974717 94.063115 
" style="fill:none;stroke:#ff7500;stroke-linecap:square;stroke-width:1.5;"/>
    <defs>
     <path d="M -12 12 
L 12 -12 
M -12 -12 
L 12 12 
" id="mb9282a1b9e" style="stroke:#ff7500;"/>
    </defs>
    <g clip-path="url(#pb603baabc3)">
     <use style="fill:#ff7500;stroke:#ff7500;" x="186.974717" xlink:href="#mb9282a1b9e" y="94.063115"/>
    </g>
   </g>
   <g id="line2d_44">
    <defs>
     <path d="M 0 1.5 
C 0.397805 1.5 0.77937 1.341951 1.06066 1.06066 
C 1.341951 0.77937 1.5 0.397805 1.5 0 
C 1.5 -0.397805 1.341951 -0.77937 1.06066 -1.06066 
C 0.77937 -1.341951 0.397805 -1.5 0 -1.5 
C -0.397805 -1.5 -0.77937 -1.341951 -1.06066 -1.06066 
C -1.341951 -0.77937 -1.5 -0.397805 -1.5 0 
C -1.5 0.397805 -1.341951 0.77937 -1.06066 1.06066 
C -0.77937 1.341951 -0.397805 1.5 0 1.5 
z
" id="macc20f233c" style="stroke:#6495ed;"/>
    </defs>
    <g>
     <use style="fill:#6495ed;stroke:#6495ed;" x="248.954297" xlink:href="#macc20f233c" y="109.337011"/>
     <use style="fill:#6495ed;stroke:#6495ed;" x="248.954297" xlink:href="#macc20f233c" y="109.337011"/>
    </g>
   </g>
   <g id="line2d_45">
    <path d="M 38.440992 298.944 
L 38.440992 287.356906 
L 50.52898 287.356906 
L 50.52898 284.19679 
L 57.6 284.19679 
L 57.6 274.71644 
L 62.616969 274.71644 
L 62.616969 269.976266 
L 66.508432 269.976266 
L 66.508432 266.816149 
L 69.687988 266.816149 
L 69.687988 265.236091 
L 76.759008 265.236091 
L 76.759008 261.549288 
L 78.59642 261.549288 
L 78.59642 258.389172 
L 81.775977 258.389172 
L 81.775977 256.282427 
L 83.171864 256.282427 
L 83.171864 255.755741 
L 85.66744 255.755741 
L 85.66744 255.229055 
L 86.792945 255.229055 
L 86.792945 254.702369 
L 87.850195 254.702369 
L 87.850195 254.175683 
L 88.846997 254.175683 
L 88.846997 253.122311 
L 91.535274 253.122311 
L 91.535274 248.908822 
L 95.918017 248.908822 
L 95.918017 246.275392 
L 97.16421 246.275392 
L 97.16421 245.22202 
L 100.934985 245.22202 
L 100.934985 243.641962 
L 104.033617 243.641962 
L 104.033617 242.588589 
L 104.826449 242.588589 
L 104.826449 241.008531 
L 106.311539 241.008531 
L 106.311539 240.481845 
L 107.347841 240.481845 
L 107.347841 239.955159 
L 112.531694 239.955159 
L 112.531694 239.428473 
L 113.26352 239.428473 
L 113.26352 238.901787 
L 113.500792 238.901787 
L 113.500792 238.375101 
L 119.097192 238.375101 
L 119.097192 237.848415 
L 122.362027 237.848415 
L 122.362027 235.214984 
L 124.114161 235.214984 
L 124.114161 234.161612 
L 124.743806 234.161612 
L 124.743806 233.634926 
L 126.618283 233.634926 
L 126.618283 233.10824 
L 128.005624 233.10824 
L 128.005624 232.581554 
L 129.945319 232.581554 
L 129.945319 231.528182 
L 130.576266 231.528182 
L 130.576266 231.001496 
L 131.690703 231.001496 
L 131.690703 229.948123 
L 132.342714 229.948123 
L 132.342714 229.421437 
L 132.581068 229.421437 
L 132.581068 228.894751 
L 133.04822 228.894751 
L 133.04822 228.368065 
L 133.503183 228.368065 
L 133.503183 226.788007 
L 134.520763 226.788007 
L 134.520763 226.261321 
L 134.939326 226.261321 
L 134.939326 225.734635 
L 135.144899 225.734635 
L 135.144899 224.681263 
L 136.582658 224.681263 
L 136.582658 224.154577 
L 136.893527 224.154577 
L 136.893527 223.627891 
L 137.319638 223.627891 
L 137.319638 223.101204 
L 137.676769 223.101204 
L 137.676769 222.574518 
L 137.852629 222.574518 
L 137.852629 222.047832 
L 137.968891 222.047832 
L 138.026733 220.467774 
L 138.313099 220.467774 
L 138.313099 219.414402 
L 139.730821 219.414402 
L 139.730821 218.36103 
L 140.144829 218.36103 
L 140.144829 217.834344 
L 140.348205 217.834344 
L 140.44901 216.780971 
L 141.568232 216.780971 
L 141.568232 216.254285 
L 141.848763 216.254285 
L 141.895083 215.200913 
L 142.124852 215.200913 
L 142.124852 214.674227 
L 142.261275 214.674227 
L 142.261275 213.094169 
L 143.058132 213.094169 
L 143.058132 212.040797 
L 143.985075 212.040797 
L 144.06695 210.987425 
L 144.350522 210.987425 
L 144.350522 210.460738 
L 145.059213 210.460738 
L 145.059213 209.934052 
L 146.143677 209.934052 
L 146.143677 209.407366 
L 146.395642 209.407366 
L 146.395642 208.88068 
L 146.573414 208.88068 
L 146.679213 206.773936 
L 147.436066 206.773936 
L 147.436066 205.720564 
L 148.733265 205.720564 
L 148.826773 204.667192 
L 149.705742 204.667192 
L 149.705742 204.140506 
L 150.258492 204.140506 
L 150.258492 203.087133 
L 150.766468 203.087133 
L 150.766468 202.560447 
L 151.205907 202.560447 
L 151.205907 202.033761 
L 151.871101 202.033761 
L 151.897188 200.980389 
L 152.436193 200.980389 
L 152.511852 199.400331 
L 152.835965 199.400331 
L 152.835965 198.873645 
L 153.056874 198.873645 
L 153.056874 197.820273 
L 153.703291 197.820273 
L 153.703291 197.293586 
L 153.820412 197.293586 
L 153.820412 196.7669 
L 154.752243 196.7669 
L 154.752243 196.240214 
L 155.296925 196.240214 
L 155.296925 195.186842 
L 156.697761 195.186842 
L 156.737306 193.606784 
L 156.894595 193.606784 
L 156.894595 193.080098 
L 157.224197 193.080098 
L 157.224197 192.553412 
L 158.554957 192.553412 
L 158.554957 192.026726 
L 159.741526 192.026726 
L 159.741526 191.50004 
L 160.038232 191.50004 
L 160.038232 190.446667 
L 160.217098 190.446667 
L 160.217098 189.919981 
L 160.742945 189.919981 
L 160.742945 189.393295 
L 161.268637 189.393295 
L 161.329454 187.813237 
L 161.435376 187.813237 
L 161.525657 185.179807 
L 161.570623 185.179807 
L 161.570623 184.653121 
L 162.332157 184.653121 
L 162.332157 184.126434 
L 162.616422 184.126434 
L 162.616422 182.01969 
L 163.482721 182.01969 
L 163.496131 180.439632 
L 163.696049 180.439632 
L 163.801742 179.38626 
L 163.814908 179.38626 
L 163.814908 178.332888 
L 164.140886 178.332888 
L 164.140886 177.806202 
L 164.371873 177.806202 
L 164.448194 175.172771 
L 164.650098 175.172771 
L 164.650098 174.119399 
L 165.59035 174.119399 
L 165.59035 173.592713 
L 166.527611 173.592713 
L 166.527611 173.066027 
L 167.125588 173.066027 
L 167.125588 172.539341 
L 167.298899 172.539341 
L 167.298899 172.012655 
L 167.523787 172.012655 
L 167.523787 171.485969 
L 168.13025 171.485969 
L 168.13025 170.432596 
L 169.119057 170.432596 
L 169.119057 169.379224 
L 169.673338 169.379224 
L 169.673338 168.852538 
L 169.823193 168.852538 
L 169.823193 168.325852 
L 170.793552 168.325852 
L 170.793552 167.27248 
L 171.194673 167.27248 
L 171.194673 166.745794 
L 171.796233 166.745794 
L 171.796233 166.219108 
L 171.970255 166.219108 
L 171.986738 165.165736 
L 172.569992 165.165736 
L 172.665332 164.112363 
L 172.932666 164.112363 
L 172.932666 163.585677 
L 173.591119 163.585677 
L 173.658612 160.952247 
L 174.203864 160.952247 
L 174.26903 158.845503 
L 174.355542 158.845503 
L 174.355542 157.79213 
L 174.844824 157.79213 
L 174.844824 157.265444 
L 175.327556 157.265444 
L 175.395439 155.685386 
L 175.530419 155.685386 
L 175.530419 155.1587 
L 175.968581 155.1587 
L 176.014414 153.578642 
L 176.151193 153.578642 
L 176.151193 153.051956 
L 176.370396 153.051956 
L 176.370396 151.998584 
L 176.794453 151.998584 
L 176.894213 150.418525 
L 177.372536 150.418525 
L 177.372536 149.891839 
L 177.973027 149.891839 
L 178.008058 147.258409 
L 178.14748 147.258409 
L 178.164829 146.205037 
L 178.950337 146.205037 
L 178.950337 145.151665 
L 179.456806 145.151665 
L 179.456806 144.624978 
L 180.130669 144.624978 
L 180.130669 143.04492 
L 180.659634 143.04492 
L 180.724641 140.938176 
L 180.957664 140.938176 
L 180.957664 140.41149 
L 181.070572 140.41149 
L 181.070572 139.884804 
L 181.303877 139.884804 
L 181.409774 136.724687 
L 181.510261 136.724687 
L 181.510261 136.198001 
L 181.64335 136.198001 
L 181.64335 135.671315 
L 181.873839 135.671315 
L 181.980986 134.091257 
L 182.62831 134.091257 
L 182.62831 133.564571 
L 182.779802 133.564571 
L 182.779802 133.037885 
L 182.916789 133.037885 
L 182.916789 132.511199 
L 183.37723 132.511199 
L 183.37723 131.457826 
L 183.767235 131.457826 
L 183.767235 130.93114 
L 184.15691 130.93114 
L 184.15691 129.877768 
L 184.316062 129.877768 
L 184.320124 128.824396 
L 185.117918 128.824396 
L 185.117918 128.29771 
L 185.264727 128.29771 
L 185.264727 127.771024 
L 185.554689 127.771024 
L 185.569817 126.717652 
L 186.14616 126.717652 
L 186.14616 126.190966 
L 186.270076 126.190966 
L 186.309979 124.610907 
L 186.859237 124.610907 
L 186.929316 123.030849 
L 195.14943 123.030849 
L 195.14943 122.504163 
L 196.599965 122.504163 
L 196.599965 121.977477 
L 197.151506 121.977477 
L 197.151506 121.450791 
L 198.653347 121.450791 
L 198.733504 118.817361 
L 205.144719 118.817361 
L 205.144719 117.763988 
L 205.861891 117.763988 
L 205.861891 117.237302 
L 211.134119 117.237302 
L 211.134119 116.710616 
L 214.455508 116.710616 
L 214.455508 116.18393 
L 214.879565 116.18393 
L 214.879565 115.657244 
L 218.086326 115.657244 
L 218.086326 115.130558 
L 220.794009 115.130558 
L 220.893541 113.5505 
L 223.224289 113.5505 
L 223.224289 113.023814 
L 227.118632 113.023814 
L 227.118632 112.497128 
L 228.718569 112.497128 
L 228.718569 111.970441 
L 230.24214 111.970441 
L 230.300109 110.917069 
L 235.276024 110.917069 
L 235.276024 110.390383 
L 243.0772 110.390383 
L 243.0772 109.863697 
L 248.954297 109.863697 
L 248.954297 109.337011 
L 338.688 109.337011 
L 338.688 109.337011 
" style="fill:none;stroke:#6495ed;stroke-linecap:square;stroke-width:1.5;"/>
   </g>
   <g id="line2d_46">
    <defs>
     <path d="M -0 6 
L 6 -6 
L -6 -6 
z
" id="m49d6ce8c11" style="stroke:#6495ed;stroke-linejoin:miter;stroke-width:1.5;"/>
    </defs>
    <g>
     <use style="fill-opacity:0;stroke:#6495ed;stroke-linejoin:miter;stroke-width:1.5;" x="131.690703" xlink:href="#m49d6ce8c11" y="229.948123"/>
     <use style="fill-opacity:0;stroke:#6495ed;stroke-linejoin:miter;stroke-width:1.5;" x="186.929316" xlink:href="#m49d6ce8c11" y="123.030849"/>
     <use style="fill-opacity:0;stroke:#6495ed;stroke-linejoin:miter;stroke-width:1.5;" x="248.954297" xlink:href="#m49d6ce8c11" y="109.863697"/>
     <use style="fill-opacity:0;stroke:#6495ed;stroke-linejoin:miter;stroke-width:1.5;" x="248.954297" xlink:href="#m49d6ce8c11" y="109.337011"/>
     <use style="fill-opacity:0;stroke:#6495ed;stroke-linejoin:miter;stroke-width:1.5;" x="338.688" xlink:href="#m49d6ce8c11" y="109.337011"/>
    </g>
   </g>
   <g id="line2d_47">
    <path style="fill:none;stroke:#6495ed;stroke-linecap:square;stroke-width:1.5;"/>
    <g/>
   </g>
   <g id="line2d_48">
    <path clip-path="url(#pb603baabc3)" d="M 186.974717 123.030849 
" style="fill:none;stroke:#6495ed;stroke-linecap:square;stroke-width:1.5;"/>
    <defs>
     <path d="M -12 12 
L 12 -12 
M -12 -12 
L 12 12 
" id="ma60b7fefe5" style="stroke:#6495ed;"/>
    </defs>
    <g clip-path="url(#pb603baabc3)">
     <use style="fill:#6495ed;stroke:#6495ed;" x="186.974717" xlink:href="#ma60b7fefe5" y="123.030849"/>
    </g>
   </g>
   <g id="line2d_49">
    <defs>
     <path d="M 0 1.5 
C 0.397805 1.5 0.77937 1.341951 1.06066 1.06066 
C 1.341951 0.77937 1.5 0.397805 1.5 0 
C 1.5 -0.397805 1.341951 -0.77937 1.06066 -1.06066 
C 0.77937 -1.341951 0.397805 -1.5 0 -1.5 
C -0.397805 -1.5 -0.77937 -1.341951 -1.06066 -1.06066 
C -1.341951 -0.77937 -1.5 -0.397805 -1.5 0 
C -1.5 0.397805 -1.341951 0.77937 -1.06066 1.06066 
C -0.77937 1.341951 -0.397805 1.5 0 1.5 
z
" id="md4addcf31a" style="stroke:#ff0000;"/>
    </defs>
    <g>
     <use style="fill:#ff0000;stroke:#ff0000;" x="214.632799" xlink:href="#md4addcf31a" y="30.334099"/>
     <use style="fill:#ff0000;stroke:#ff0000;" x="214.632799" xlink:href="#md4addcf31a" y="30.334099"/>
    </g>
   </g>
   <g id="line2d_50">
    <path d="M 38.440992 298.944 
L 38.440992 287.883592 
L 50.52898 287.883592 
L 50.52898 283.670104 
L 57.6 283.670104 
L 57.6 275.243126 
L 62.616969 275.243126 
L 62.616969 271.556324 
L 66.508432 271.556324 
L 66.508432 267.869521 
L 69.687988 267.869521 
L 69.687988 265.762777 
L 76.759008 265.762777 
L 76.759008 262.60266 
L 78.59642 262.60266 
L 78.59642 259.442544 
L 81.775977 259.442544 
L 81.775977 256.282427 
L 83.171864 256.282427 
L 83.171864 255.755741 
L 86.792945 255.755741 
L 86.792945 254.702369 
L 87.850195 254.702369 
L 87.850195 254.175683 
L 88.846997 254.175683 
L 88.846997 253.122311 
L 91.535274 253.122311 
L 91.535274 249.435508 
L 95.918017 249.435508 
L 95.918017 245.748706 
L 97.16421 245.748706 
L 97.16421 244.695334 
L 100.934985 244.695334 
L 100.934985 243.115275 
L 104.033617 243.115275 
L 104.033617 242.588589 
L 104.826449 242.588589 
L 104.826449 241.535217 
L 106.311539 241.535217 
L 106.311539 241.008531 
L 107.347841 241.008531 
L 107.347841 239.955159 
L 108.640231 239.955159 
L 108.640231 239.428473 
L 110.968922 239.428473 
L 110.968922 238.901787 
L 111.767808 238.901787 
L 111.767808 238.375101 
L 115.502395 238.375101 
L 115.502395 237.848415 
L 116.323218 237.848415 
L 116.323218 237.321729 
L 117.486268 237.321729 
L 117.486268 236.795043 
L 118.399528 236.795043 
L 118.399528 236.268356 
L 118.751849 236.268356 
L 118.751849 235.214984 
L 118.925375 235.214984 
L 118.925375 234.688298 
L 120.41399 234.688298 
L 120.41399 233.634926 
L 122.362027 233.634926 
L 122.362027 233.10824 
L 122.782271 233.10824 
L 122.782271 231.528182 
L 123.192626 231.528182 
L 123.192626 231.001496 
L 123.327293 231.001496 
L 123.327293 229.421437 
L 124.114161 229.421437 
L 124.114161 228.894751 
L 125.351508 228.894751 
L 125.351508 227.314693 
L 125.470548 227.314693 
L 125.470548 226.788007 
L 125.588781 226.788007 
L 125.588781 226.261321 
L 126.3947 226.261321 
L 126.3947 225.734635 
L 127.272333 225.734635 
L 127.272333 225.207949 
L 127.695124 225.207949 
L 127.695124 224.681263 
L 129.099042 224.681263 
L 129.099042 224.154577 
L 129.945319 224.154577 
L 129.945319 223.627891 
L 130.752422 223.627891 
L 130.752422 223.101204 
L 131.270459 223.101204 
L 131.355321 222.047832 
L 131.77355 222.047832 
L 131.77355 221.521146 
L 131.938072 221.521146 
L 131.938072 220.99446 
L 132.181982 220.99446 
L 132.181982 220.467774 
L 132.659801 220.467774 
L 132.659801 219.414402 
L 132.971225 219.414402 
L 132.971225 218.887716 
L 133.72629 218.887716 
L 133.72629 217.834344 
L 133.946579 217.834344 
L 133.946579 217.307658 
L 135.144899 217.307658 
L 135.144899 216.780971 
L 136.519813 216.780971 
L 136.519813 216.254285 
L 136.831795 216.254285 
L 136.831795 215.200913 
L 137.016339 215.200913 
L 137.016339 214.674227 
L 137.319638 214.674227 
L 137.319638 214.147541 
L 137.558536 214.147541 
L 137.558536 213.620855 
L 137.676769 213.620855 
L 137.676769 213.094169 
L 137.910857 213.094169 
L 137.910857 211.514111 
L 138.369812 211.514111 
L 138.426341 207.827308 
L 138.538853 207.827308 
L 138.538853 207.300622 
L 139.199094 207.300622 
L 139.199094 205.720564 
L 139.572998 205.720564 
L 139.572998 204.667192 
L 140.499195 204.667192 
L 140.499195 204.140506 
L 141.709062 204.140506 
L 141.709062 203.613819 
L 141.848763 203.613819 
L 141.848763 203.087133 
L 142.441528 203.087133 
L 142.486301 202.033761 
L 142.752555 202.033761 
L 142.796538 200.980389 
L 143.101352 200.980389 
L 143.101352 198.873645 
L 143.230373 198.873645 
L 143.230373 198.346959 
L 143.569835 198.346959 
L 143.569835 195.713528 
L 143.902815 195.713528 
L 143.902815 195.186842 
L 144.981877 195.186842 
L 144.981877 194.13347 
L 145.365173 194.13347 
L 145.365173 193.080098 
L 145.628555 193.080098 
L 145.628555 192.553412 
L 146.573414 192.553412 
L 146.573414 192.026726 
L 147.096109 192.026726 
L 147.096109 190.973354 
L 147.232888 190.973354 
L 147.232888 190.446667 
L 148.031773 190.446667 
L 148.031773 188.339923 
L 148.576295 188.339923 
L 148.576295 187.813237 
L 149.377533 187.813237 
L 149.467659 186.759865 
L 149.527485 186.759865 
L 149.527485 186.233179 
L 150.085825 186.233179 
L 150.085825 185.706493 
L 150.457801 185.706493 
L 150.457801 185.179807 
L 150.570677 185.179807 
L 150.570677 184.126434 
L 151.60806 184.126434 
L 151.60806 183.599748 
L 151.76636 183.599748 
L 151.871101 182.546376 
L 151.897188 182.546376 
L 151.949246 179.38626 
L 152.712018 179.38626 
L 152.712018 178.332888 
L 153.056874 178.332888 
L 153.056874 177.806202 
L 153.442821 177.806202 
L 153.442821 175.172771 
L 154.121296 175.172771 
L 154.121296 173.592713 
L 154.862549 173.592713 
L 154.862549 173.066027 
L 155.55245 173.066027 
L 155.6368 172.012655 
L 157.883783 172.012655 
L 157.883783 170.959282 
L 158.358103 170.959282 
L 158.358103 170.432596 
L 159.574482 170.432596 
L 159.574482 169.90591 
L 160.200913 169.90591 
L 160.200913 168.852538 
L 161.023225 168.852538 
L 161.084903 167.27248 
L 161.660209 167.27248 
L 161.660209 164.63905 
L 162.46065 164.63905 
L 162.46065 164.112363 
L 162.979172 164.112363 
L 162.979172 162.532305 
L 163.33453 162.532305 
L 163.33453 162.005619 
L 163.616356 162.005619 
L 163.616356 161.478933 
L 163.906798 161.478933 
L 163.906798 160.952247 
L 164.320806 160.952247 
L 164.384616 159.898875 
L 165.896723 159.898875 
L 165.896723 158.318817 
L 166.013141 158.318817 
L 166.013141 156.738758 
L 166.639906 156.738758 
L 166.639906 156.212072 
L 166.906499 156.212072 
L 166.906499 155.685386 
L 168.191801 155.685386 
L 168.283721 154.105328 
L 169.312185 154.105328 
L 169.312185 153.051956 
L 169.832517 153.051956 
L 169.897641 151.471897 
L 170.642945 151.471897 
L 170.642945 150.945211 
L 170.846398 150.945211 
L 170.846398 149.365153 
L 171.18605 149.365153 
L 171.220515 145.678351 
L 171.297814 145.678351 
L 171.314944 144.098292 
L 172.425997 144.098292 
L 172.425997 143.04492 
L 172.569992 143.04492 
L 172.569992 142.518234 
L 172.815229 142.518234 
L 172.815229 141.991548 
L 173.38706 141.991548 
L 173.38706 141.464862 
L 173.523365 141.464862 
L 173.561039 140.41149 
L 173.651125 140.41149 
L 173.710926 139.358118 
L 174.297915 139.358118 
L 174.297915 138.831432 
L 174.520166 138.831432 
L 174.598353 136.724687 
L 174.816832 136.724687 
L 174.816832 136.198001 
L 175.025688 136.198001 
L 175.025688 135.671315 
L 175.184134 135.671315 
L 175.279879 133.037885 
L 175.644336 133.037885 
L 175.750876 131.984513 
L 175.77741 131.984513 
L 175.77741 131.457826 
L 176.014414 131.457826 
L 176.053603 128.824396 
L 176.15768 128.824396 
L 176.24824 127.244338 
L 176.293345 127.244338 
L 176.402401 124.610907 
L 176.434347 124.610907 
L 176.466234 123.557535 
L 176.800705 123.557535 
L 176.844405 122.504163 
L 176.93768 122.504163 
L 176.93768 121.977477 
L 177.214548 121.977477 
L 177.257224 118.817361 
L 177.336204 118.817361 
L 177.336204 118.290674 
L 177.457017 118.290674 
L 177.493098 116.710616 
L 177.696161 116.710616 
L 177.790908 114.077186 
L 178.141693 114.077186 
L 178.170609 112.497128 
L 178.400227 112.497128 
L 178.400227 111.970441 
L 178.654985 111.970441 
L 178.654985 111.443755 
L 178.778192 111.443755 
L 178.845031 109.863697 
L 179.01652 109.863697 
L 179.082454 107.756953 
L 179.153601 107.756953 
L 179.251636 106.176895 
L 179.354523 106.176895 
L 179.354523 105.123522 
L 179.531791 105.123522 
L 179.601132 104.07015 
L 179.670199 104.07015 
L 179.670199 103.543464 
L 179.860045 103.543464 
L 179.860045 103.016778 
L 180.07377 103.016778 
L 180.07377 102.490092 
L 180.381893 102.490092 
L 180.483402 100.383348 
L 180.533936 100.383348 
L 180.564187 99.329976 
L 180.719649 99.329976 
L 180.799349 97.749917 
L 180.913283 97.749917 
L 180.967511 95.116487 
L 181.085245 95.116487 
L 181.187615 92.483056 
L 181.270047 92.483056 
L 181.376149 90.376312 
L 181.404974 90.376312 
L 181.404974 89.849626 
L 181.576933 89.849626 
L 181.671737 85.636137 
L 181.845779 85.636137 
L 181.929824 82.476021 
L 181.962399 82.476021 
L 182.041257 79.842591 
L 182.124367 79.842591 
L 182.202498 78.789218 
L 182.271148 78.789218 
L 182.271148 78.262532 
L 182.394041 78.262532 
L 182.502556 76.155788 
L 182.757606 76.155788 
L 182.810829 75.102416 
L 182.899174 75.102416 
L 182.96514 74.049044 
L 183.030858 74.049044 
L 183.109394 70.888927 
L 183.157214 70.888927 
L 183.170233 68.782183 
L 183.3042 68.782183 
L 183.37723 66.148752 
L 183.458493 66.148752 
L 183.543625 62.46195 
L 183.628343 62.46195 
L 183.691613 60.881892 
L 183.758849 60.881892 
L 183.821648 59.82852 
L 183.938271 59.82852 
L 184.041744 57.195089 
L 184.05412 57.195089 
L 184.12819 56.141717 
L 184.263172 56.141717 
L 184.372841 52.9816 
L 184.457665 52.9816 
L 184.457665 52.454914 
L 184.594129 52.454914 
L 184.594129 51.928228 
L 184.773118 51.928228 
L 184.84026 50.874856 
L 184.914997 50.874856 
L 184.94637 49.821484 
L 185.036253 49.821484 
L 185.094624 47.71474 
L 185.417939 47.71474 
L 185.417939 46.661368 
L 185.550905 46.661368 
L 185.550905 46.134681 
L 185.67535 46.134681 
L 185.682864 45.081309 
L 185.802645 45.081309 
L 185.84363 43.501251 
L 186.164438 43.501251 
L 186.266444 41.921193 
L 186.411139 41.921193 
L 186.411139 41.394507 
L 186.554643 41.394507 
L 186.554643 40.867821 
L 186.696977 40.867821 
L 186.74652 39.814448 
L 195.033365 39.814448 
L 195.033365 39.287762 
L 195.625243 39.287762 
L 195.625243 38.761076 
L 196.686115 38.761076 
L 196.686115 38.23439 
L 196.922335 38.23439 
L 196.922335 37.707704 
L 197.258204 37.707704 
L 197.356562 36.127646 
L 197.770853 36.127646 
L 197.770853 35.60096 
L 198.020709 35.60096 
L 198.033663 34.020902 
L 198.365326 34.020902 
L 198.365326 33.494215 
L 198.783193 33.494215 
L 198.783193 32.967529 
L 204.637858 32.967529 
L 204.637858 32.440843 
L 205.22819 32.440843 
L 205.22819 31.914157 
L 205.713652 31.914157 
L 205.764788 30.860785 
L 214.632799 30.860785 
L 214.632799 30.334099 
L 338.688 30.334099 
L 338.688 30.334099 
" style="fill:none;stroke:#ff0000;stroke-linecap:square;stroke-width:1.5;"/>
   </g>
   <g id="line2d_51">
    <defs>
     <path d="M 0 -6 
L -5.196152 -3 
L -5.196152 3 
L -0 6 
L 5.196152 3 
L 5.196152 -3 
z
" id="m928c6de64c" style="stroke:#ff0000;stroke-linejoin:miter;stroke-width:1.5;"/>
    </defs>
    <g>
     <use style="fill-opacity:0;stroke:#ff0000;stroke-linejoin:miter;stroke-width:1.5;" x="107.347841" xlink:href="#m928c6de64c" y="241.008531"/>
     <use style="fill-opacity:0;stroke:#ff0000;stroke-linejoin:miter;stroke-width:1.5;" x="153.056874" xlink:href="#m928c6de64c" y="177.806202"/>
     <use style="fill-opacity:0;stroke:#ff0000;stroke-linejoin:miter;stroke-width:1.5;" x="196.922335" xlink:href="#m928c6de64c" y="38.23439"/>
     <use style="fill-opacity:0;stroke:#ff0000;stroke-linejoin:miter;stroke-width:1.5;" x="214.632799" xlink:href="#m928c6de64c" y="30.334099"/>
     <use style="fill-opacity:0;stroke:#ff0000;stroke-linejoin:miter;stroke-width:1.5;" x="214.632799" xlink:href="#m928c6de64c" y="30.334099"/>
     <use style="fill-opacity:0;stroke:#ff0000;stroke-linejoin:miter;stroke-width:1.5;" x="338.688" xlink:href="#m928c6de64c" y="30.334099"/>
    </g>
   </g>
   <g id="line2d_52">
    <path style="fill:none;stroke:#ff0000;stroke-linecap:square;stroke-width:1.5;"/>
    <g/>
   </g>
   <g id="line2d_53">
    <path clip-path="url(#pb603baabc3)" d="M 186.974717 39.814448 
" style="fill:none;stroke:#ff0000;stroke-linecap:square;stroke-width:1.5;"/>
    <defs>
     <path d="M -12 12 
L 12 -12 
M -12 -12 
L 12 12 
" id="mcd90d84f48" style="stroke:#ff0000;"/>
    </defs>
    <g clip-path="url(#pb603baabc3)">
     <use style="fill:#ff0000;stroke:#ff0000;" x="186.974717" xlink:href="#mcd90d84f48" y="39.814448"/>
    </g>
   </g>
   <g id="line2d_54">
    <path d="M 338.688 193.606784 
L 369.60768 293.571802 
" style="fill:none;stroke:#000080;stroke-linecap:square;stroke-width:1.5;"/>
    <g>
     <use style="fill-opacity:0;stroke:#000080;stroke-width:1.5;" x="338.688" xlink:href="#mbfc670355c" y="193.606784"/>
     <use style="fill-opacity:0;stroke:#000080;stroke-width:1.5;" x="369.60768" xlink:href="#mbfc670355c" y="293.571802"/>
    </g>
   </g>
   <g id="line2d_55">
    <path d="M 338.688 109.337011 
L 369.60768 229.105426 
" style="fill:none;stroke:#6495ed;stroke-linecap:square;stroke-width:1.5;"/>
    <g>
     <use style="fill-opacity:0;stroke:#6495ed;stroke-linejoin:miter;stroke-width:1.5;" x="338.688" xlink:href="#m49d6ce8c11" y="109.337011"/>
     <use style="fill-opacity:0;stroke:#6495ed;stroke-linejoin:miter;stroke-width:1.5;" x="369.60768" xlink:href="#m49d6ce8c11" y="229.105426"/>
    </g>
   </g>
   <g id="line2d_56">
    <path d="M 338.688 30.334099 
L 369.60768 164.63905 
" style="fill:none;stroke:#ff7500;stroke-linecap:square;stroke-width:1.5;"/>
    <g>
     <use style="fill-opacity:0;stroke:#ff7500;stroke-linejoin:bevel;stroke-width:1.5;" x="338.688" xlink:href="#ma759fb2a27" y="30.334099"/>
     <use style="fill-opacity:0;stroke:#ff7500;stroke-linejoin:bevel;stroke-width:1.5;" x="369.60768" xlink:href="#ma759fb2a27" y="164.63905"/>
    </g>
   </g>
   <g id="line2d_57">
    <path d="M 338.688 30.334099 
L 369.60768 100.172673 
" style="fill:none;stroke:#ff0000;stroke-linecap:square;stroke-width:1.5;"/>
    <g>
     <use style="fill-opacity:0;stroke:#ff0000;stroke-linejoin:miter;stroke-width:1.5;" x="338.688" xlink:href="#m928c6de64c" y="30.334099"/>
     <use style="fill-opacity:0;stroke:#ff0000;stroke-linejoin:miter;stroke-width:1.5;" x="369.60768" xlink:href="#m928c6de64c" y="100.172673"/>
    </g>
   </g>
   <g id="line2d_58">
    <path d="M 338.688 298.944 
L 338.688 30.334099 
" style="fill:none;stroke:#000000;stroke-linecap:square;stroke-width:1.5;"/>
   </g>
   <g id="patch_3">
    <path d="M 57.6 298.944 
L 57.6 27.648 
" style="fill:none;stroke:#000000;stroke-linecap:square;stroke-linejoin:miter;stroke-width:0.8;"/>
   </g>
   <g id="patch_4">
    <path d="M 338.688 298.944 
L 338.688 27.648 
" style="fill:none;stroke:#000000;stroke-linecap:square;stroke-linejoin:miter;stroke-width:0.8;"/>
   </g>
   <g id="patch_5">
    <path d="M 57.6 298.944 
L 338.688 298.944 
" style="fill:none;stroke:#000000;stroke-linecap:square;stroke-linejoin:miter;stroke-width:0.8;"/>
   </g>
   <g id="patch_6">
    <path d="M 57.6 27.648 
L 338.688 27.648 
" style="fill:none;stroke:#000000;stroke-linecap:square;stroke-linejoin:miter;stroke-width:0.8;"/>
   </g>
   <g id="text_13">
    <!-- ABC -->
    <defs>
     <path d="M 34.1875 63.1875 
L 20.796875 26.90625 
L 47.609375 26.90625 
z
M 28.609375 72.90625 
L 39.796875 72.90625 
L 67.578125 0 
L 57.328125 0 
L 50.6875 18.703125 
L 17.828125 18.703125 
L 11.1875 0 
L 0.78125 0 
z
" id="DejaVuSans-65"/>
     <path d="M 19.671875 34.8125 
L 19.671875 8.109375 
L 35.5 8.109375 
Q 43.453125 8.109375 47.28125 11.40625 
Q 51.125 14.703125 51.125 21.484375 
Q 51.125 28.328125 47.28125 31.5625 
Q 43.453125 34.8125 35.5 34.8125 
z
M 19.671875 64.796875 
L 19.671875 42.828125 
L 34.28125 42.828125 
Q 41.5 42.828125 45.03125 45.53125 
Q 48.578125 48.25 48.578125 53.8125 
Q 48.578125 59.328125 45.03125 62.0625 
Q 41.5 64.796875 34.28125 64.796875 
z
M 9.8125 72.90625 
L 35.015625 72.90625 
Q 46.296875 72.90625 52.390625 68.21875 
Q 58.5 63.53125 58.5 54.890625 
Q 58.5 48.1875 55.375 44.234375 
Q 52.25 40.28125 46.1875 39.3125 
Q 53.46875 37.75 57.5 32.78125 
Q 61.53125 27.828125 61.53125 20.40625 
Q 61.53125 10.640625 54.890625 5.3125 
Q 48.25 0 35.984375 0 
L 9.8125 0 
z
" id="DejaVuSans-66"/>
     <path d="M 64.40625 67.28125 
L 64.40625 56.890625 
Q 59.421875 61.53125 53.78125 63.8125 
Q 48.140625 66.109375 41.796875 66.109375 
Q 29.296875 66.109375 22.65625 58.46875 
Q 16.015625 50.828125 16.015625 36.375 
Q 16.015625 21.96875 22.65625 14.328125 
Q 29.296875 6.6875 41.796875 6.6875 
Q 48.140625 6.6875 53.78125 8.984375 
Q 59.421875 11.28125 64.40625 15.921875 
L 64.40625 5.609375 
Q 59.234375 2.09375 53.4375 0.328125 
Q 47.65625 -1.421875 41.21875 -1.421875 
Q 24.65625 -1.421875 15.125 8.703125 
Q 5.609375 18.84375 5.609375 36.375 
Q 5.609375 53.953125 15.125 64.078125 
Q 24.65625 74.21875 41.21875 74.21875 
Q 47.75 74.21875 53.53125 72.484375 
Q 59.328125 70.75 64.40625 67.28125 
z
" id="DejaVuSans-67"/>
    </defs>
    <g transform="translate(375.22944 298.262739)scale(0.17 -0.17)">
     <use xlink:href="#DejaVuSans-65"/>
     <use x="68.408203" xlink:href="#DejaVuSans-66"/>
     <use x="135.261719" xlink:href="#DejaVuSans-67"/>
    </g>
   </g>
   <g id="text_14">
    <!-- DEPSO -->
    <defs>
     <path d="M 19.671875 64.796875 
L 19.671875 8.109375 
L 31.59375 8.109375 
Q 46.6875 8.109375 53.6875 14.9375 
Q 60.6875 21.78125 60.6875 36.53125 
Q 60.6875 51.171875 53.6875 57.984375 
Q 46.6875 64.796875 31.59375 64.796875 
z
M 9.8125 72.90625 
L 30.078125 72.90625 
Q 51.265625 72.90625 61.171875 64.09375 
Q 71.09375 55.28125 71.09375 36.53125 
Q 71.09375 17.671875 61.125 8.828125 
Q 51.171875 0 30.078125 0 
L 9.8125 0 
z
" id="DejaVuSans-68"/>
     <path d="M 9.8125 72.90625 
L 55.90625 72.90625 
L 55.90625 64.59375 
L 19.671875 64.59375 
L 19.671875 43.015625 
L 54.390625 43.015625 
L 54.390625 34.71875 
L 19.671875 34.71875 
L 19.671875 8.296875 
L 56.78125 8.296875 
L 56.78125 0 
L 9.8125 0 
z
" id="DejaVuSans-69"/>
     <path d="M 19.671875 64.796875 
L 19.671875 37.40625 
L 32.078125 37.40625 
Q 38.96875 37.40625 42.71875 40.96875 
Q 46.484375 44.53125 46.484375 51.125 
Q 46.484375 57.671875 42.71875 61.234375 
Q 38.96875 64.796875 32.078125 64.796875 
z
M 9.8125 72.90625 
L 32.078125 72.90625 
Q 44.34375 72.90625 50.609375 67.359375 
Q 56.890625 61.8125 56.890625 51.125 
Q 56.890625 40.328125 50.609375 34.8125 
Q 44.34375 29.296875 32.078125 29.296875 
L 19.671875 29.296875 
L 19.671875 0 
L 9.8125 0 
z
" id="DejaVuSans-80"/>
     <path d="M 53.515625 70.515625 
L 53.515625 60.890625 
Q 47.90625 63.578125 42.921875 64.890625 
Q 37.9375 66.21875 33.296875 66.21875 
Q 25.25 66.21875 20.875 63.09375 
Q 16.5 59.96875 16.5 54.203125 
Q 16.5 49.359375 19.40625 46.890625 
Q 22.3125 44.4375 30.421875 42.921875 
L 36.375 41.703125 
Q 47.40625 39.59375 52.65625 34.296875 
Q 57.90625 29 57.90625 20.125 
Q 57.90625 9.515625 50.796875 4.046875 
Q 43.703125 -1.421875 29.984375 -1.421875 
Q 24.8125 -1.421875 18.96875 -0.25 
Q 13.140625 0.921875 6.890625 3.21875 
L 6.890625 13.375 
Q 12.890625 10.015625 18.65625 8.296875 
Q 24.421875 6.59375 29.984375 6.59375 
Q 38.421875 6.59375 43.015625 9.90625 
Q 47.609375 13.234375 47.609375 19.390625 
Q 47.609375 24.75 44.3125 27.78125 
Q 41.015625 30.8125 33.5 32.328125 
L 27.484375 33.5 
Q 16.453125 35.6875 11.515625 40.375 
Q 6.59375 45.0625 6.59375 53.421875 
Q 6.59375 63.09375 13.40625 68.65625 
Q 20.21875 74.21875 32.171875 74.21875 
Q 37.3125 74.21875 42.625 73.28125 
Q 47.953125 72.359375 53.515625 70.515625 
z
" id="DejaVuSans-83"/>
     <path d="M 39.40625 66.21875 
Q 28.65625 66.21875 22.328125 58.203125 
Q 16.015625 50.203125 16.015625 36.375 
Q 16.015625 22.609375 22.328125 14.59375 
Q 28.65625 6.59375 39.40625 6.59375 
Q 50.140625 6.59375 56.421875 14.59375 
Q 62.703125 22.609375 62.703125 36.375 
Q 62.703125 50.203125 56.421875 58.203125 
Q 50.140625 66.21875 39.40625 66.21875 
z
M 39.40625 74.21875 
Q 54.734375 74.21875 63.90625 63.9375 
Q 73.09375 53.65625 73.09375 36.375 
Q 73.09375 19.140625 63.90625 8.859375 
Q 54.734375 -1.421875 39.40625 -1.421875 
Q 24.03125 -1.421875 14.8125 8.828125 
Q 5.609375 19.09375 5.609375 36.375 
Q 5.609375 53.65625 14.8125 63.9375 
Q 24.03125 74.21875 39.40625 74.21875 
z
" id="DejaVuSans-79"/>
    </defs>
    <g transform="translate(375.22944 233.796363)scale(0.17 -0.17)">
     <use xlink:href="#DejaVuSans-68"/>
     <use x="77.001953" xlink:href="#DejaVuSans-69"/>
     <use x="140.185547" xlink:href="#DejaVuSans-80"/>
     <use x="200.488281" xlink:href="#DejaVuSans-83"/>
     <use x="263.964844" xlink:href="#DejaVuSans-79"/>
    </g>
   </g>
   <g id="text_15">
    <!-- DE -->
    <g transform="translate(375.22944 169.329987)scale(0.17 -0.17)">
     <use xlink:href="#DejaVuSans-68"/>
     <use x="77.001953" xlink:href="#DejaVuSans-69"/>
    </g>
   </g>
   <g id="text_16">
    <!-- PSO -->
    <g transform="translate(375.22944 104.863611)scale(0.17 -0.17)">
     <use xlink:href="#DejaVuSans-80"/>
     <use x="60.302734" xlink:href="#DejaVuSans-83"/>
     <use x="123.779297" xlink:href="#DejaVuSans-79"/>
    </g>
   </g>
   <g id="text_17">
    <!-- best 2009 -->
    <defs>
     <path d="M 48.6875 27.296875 
Q 48.6875 37.203125 44.609375 42.84375 
Q 40.53125 48.484375 33.40625 48.484375 
Q 26.265625 48.484375 22.1875 42.84375 
Q 18.109375 37.203125 18.109375 27.296875 
Q 18.109375 17.390625 22.1875 11.75 
Q 26.265625 6.109375 33.40625 6.109375 
Q 40.53125 6.109375 44.609375 11.75 
Q 48.6875 17.390625 48.6875 27.296875 
z
M 18.109375 46.390625 
Q 20.953125 51.265625 25.265625 53.625 
Q 29.59375 56 35.59375 56 
Q 45.5625 56 51.78125 48.09375 
Q 58.015625 40.1875 58.015625 27.296875 
Q 58.015625 14.40625 51.78125 6.484375 
Q 45.5625 -1.421875 35.59375 -1.421875 
Q 29.59375 -1.421875 25.265625 0.953125 
Q 20.953125 3.328125 18.109375 8.203125 
L 18.109375 0 
L 9.078125 0 
L 9.078125 75.984375 
L 18.109375 75.984375 
z
" id="DejaVuSans-98"/>
     <path d="M 10.984375 1.515625 
L 10.984375 10.5 
Q 14.703125 8.734375 18.5 7.8125 
Q 22.3125 6.890625 25.984375 6.890625 
Q 35.75 6.890625 40.890625 13.453125 
Q 46.046875 20.015625 46.78125 33.40625 
Q 43.953125 29.203125 39.59375 26.953125 
Q 35.25 24.703125 29.984375 24.703125 
Q 19.046875 24.703125 12.671875 31.3125 
Q 6.296875 37.9375 6.296875 49.421875 
Q 6.296875 60.640625 12.9375 67.421875 
Q 19.578125 74.21875 30.609375 74.21875 
Q 43.265625 74.21875 49.921875 64.515625 
Q 56.59375 54.828125 56.59375 36.375 
Q 56.59375 19.140625 48.40625 8.859375 
Q 40.234375 -1.421875 26.421875 -1.421875 
Q 22.703125 -1.421875 18.890625 -0.6875 
Q 15.09375 0.046875 10.984375 1.515625 
z
M 30.609375 32.421875 
Q 37.25 32.421875 41.125 36.953125 
Q 45.015625 41.5 45.015625 49.421875 
Q 45.015625 57.28125 41.125 61.84375 
Q 37.25 66.40625 30.609375 66.40625 
Q 23.96875 66.40625 20.09375 61.84375 
Q 16.21875 57.28125 16.21875 49.421875 
Q 16.21875 41.5 20.09375 36.953125 
Q 23.96875 32.421875 30.609375 32.421875 
z
" id="DejaVuSans-57"/>
    </defs>
    <g transform="translate(375.22944 40.397235)scale(0.17 -0.17)">
     <use xlink:href="#DejaVuSans-98"/>
     <use x="63.476562" xlink:href="#DejaVuSans-101"/>
     <use x="125" xlink:href="#DejaVuSans-115"/>
     <use x="177.099609" xlink:href="#DejaVuSans-116"/>
     <use x="216.308594" xlink:href="#DejaVuSans-32"/>
     <use x="248.095703" xlink:href="#DejaVuSans-50"/>
     <use x="311.71875" xlink:href="#DejaVuSans-48"/>
     <use x="375.341797" xlink:href="#DejaVuSans-48"/>
     <use x="438.964844" xlink:href="#DejaVuSans-57"/>
    </g>
   </g>
   <g id="text_18">
    <!-- bbob f14, 3-D -->
    <defs>
     <path d="M 40.578125 39.3125 
Q 47.65625 37.796875 51.625 33 
Q 55.609375 28.21875 55.609375 21.1875 
Q 55.609375 10.40625 48.1875 4.484375 
Q 40.765625 -1.421875 27.09375 -1.421875 
Q 22.515625 -1.421875 17.65625 -0.515625 
Q 12.796875 0.390625 7.625 2.203125 
L 7.625 11.71875 
Q 11.71875 9.328125 16.59375 8.109375 
Q 21.484375 6.890625 26.8125 6.890625 
Q 36.078125 6.890625 40.9375 10.546875 
Q 45.796875 14.203125 45.796875 21.1875 
Q 45.796875 27.640625 41.28125 31.265625 
Q 36.765625 34.90625 28.71875 34.90625 
L 20.21875 34.90625 
L 20.21875 43.015625 
L 29.109375 43.015625 
Q 36.375 43.015625 40.234375 45.921875 
Q 44.09375 48.828125 44.09375 54.296875 
Q 44.09375 59.90625 40.109375 62.90625 
Q 36.140625 65.921875 28.71875 65.921875 
Q 24.65625 65.921875 20.015625 65.03125 
Q 15.375 64.15625 9.8125 62.3125 
L 9.8125 71.09375 
Q 15.4375 72.65625 20.34375 73.4375 
Q 25.25 74.21875 29.59375 74.21875 
Q 40.828125 74.21875 47.359375 69.109375 
Q 53.90625 64.015625 53.90625 55.328125 
Q 53.90625 49.265625 50.4375 45.09375 
Q 46.96875 40.921875 40.578125 39.3125 
z
" id="DejaVuSans-51"/>
    </defs>
    <g transform="translate(60.41088 38.111366)scale(0.102 -0.102)">
     <use xlink:href="#DejaVuSans-98"/>
     <use x="63.476562" xlink:href="#DejaVuSans-98"/>
     <use x="126.953125" xlink:href="#DejaVuSans-111"/>
     <use x="188.134766" xlink:href="#DejaVuSans-98"/>
     <use x="251.611328" xlink:href="#DejaVuSans-32"/>
     <use x="283.398438" xlink:href="#DejaVuSans-102"/>
     <use x="318.603516" xlink:href="#DejaVuSans-49"/>
     <use x="382.226562" xlink:href="#DejaVuSans-52"/>
     <use x="445.849609" xlink:href="#DejaVuSans-44"/>
     <use x="477.636719" xlink:href="#DejaVuSans-32"/>
     <use x="509.423828" xlink:href="#DejaVuSans-51"/>
     <use x="573.046875" xlink:href="#DejaVuSans-45"/>
     <use x="609.130859" xlink:href="#DejaVuSans-68"/>
    </g>
    <!-- 51 targets: 100..1e-08 -->
    <defs>
     <path d="M 10.796875 72.90625 
L 49.515625 72.90625 
L 49.515625 64.59375 
L 19.828125 64.59375 
L 19.828125 46.734375 
Q 21.96875 47.46875 24.109375 47.828125 
Q 26.265625 48.1875 28.421875 48.1875 
Q 40.625 48.1875 47.75 41.5 
Q 54.890625 34.8125 54.890625 23.390625 
Q 54.890625 11.625 47.5625 5.09375 
Q 40.234375 -1.421875 26.90625 -1.421875 
Q 22.3125 -1.421875 17.546875 -0.640625 
Q 12.796875 0.140625 7.71875 1.703125 
L 7.71875 11.625 
Q 12.109375 9.234375 16.796875 8.0625 
Q 21.484375 6.890625 26.703125 6.890625 
Q 35.15625 6.890625 40.078125 11.328125 
Q 45.015625 15.765625 45.015625 23.390625 
Q 45.015625 31 40.078125 35.4375 
Q 35.15625 39.890625 26.703125 39.890625 
Q 22.75 39.890625 18.8125 39.015625 
Q 14.890625 38.140625 10.796875 36.28125 
z
" id="DejaVuSans-53"/>
     <path d="M 11.71875 12.40625 
L 22.015625 12.40625 
L 22.015625 0 
L 11.71875 0 
z
M 11.71875 51.703125 
L 22.015625 51.703125 
L 22.015625 39.3125 
L 11.71875 39.3125 
z
" id="DejaVuSans-58"/>
    </defs>
    <g transform="translate(60.41088 49.533135)scale(0.102 -0.102)">
     <use xlink:href="#DejaVuSans-53"/>
     <use x="63.623047" xlink:href="#DejaVuSans-49"/>
     <use x="127.246094" xlink:href="#DejaVuSans-32"/>
     <use x="159.033203" xlink:href="#DejaVuSans-116"/>
     <use x="198.242188" xlink:href="#DejaVuSans-97"/>
     <use x="259.521484" xlink:href="#DejaVuSans-114"/>
     <use x="298.884766" xlink:href="#DejaVuSans-103"/>
     <use x="362.361328" xlink:href="#DejaVuSans-101"/>
     <use x="423.884766" xlink:href="#DejaVuSans-116"/>
     <use x="463.09375" xlink:href="#DejaVuSans-115"/>
     <use x="515.193359" xlink:href="#DejaVuSans-58"/>
     <use x="548.884766" xlink:href="#DejaVuSans-32"/>
     <use x="580.671875" xlink:href="#DejaVuSans-49"/>
     <use x="644.294922" xlink:href="#DejaVuSans-48"/>
     <use x="707.917969" xlink:href="#DejaVuSans-48"/>
     <use x="771.541016" xlink:href="#DejaVuSans-46"/>
     <use x="803.328125" xlink:href="#DejaVuSans-46"/>
     <use x="835.115234" xlink:href="#DejaVuSans-49"/>
     <use x="898.738281" xlink:href="#DejaVuSans-101"/>
     <use x="960.261719" xlink:href="#DejaVuSans-45"/>
     <use x="996.345703" xlink:href="#DejaVuSans-48"/>
     <use x="1059.96875" xlink:href="#DejaVuSans-56"/>
    </g>
    <!-- 15 instances -->
    <g transform="translate(60.41088 60.954904)scale(0.102 -0.102)">
     <use xlink:href="#DejaVuSans-49"/>
     <use x="63.623047" xlink:href="#DejaVuSans-53"/>
     <use x="127.246094" xlink:href="#DejaVuSans-32"/>
     <use x="159.033203" xlink:href="#DejaVuSans-105"/>
     <use x="186.816406" xlink:href="#DejaVuSans-110"/>
     <use x="250.195312" xlink:href="#DejaVuSans-115"/>
     <use x="302.294922" xlink:href="#DejaVuSans-116"/>
     <use x="341.503906" xlink:href="#DejaVuSans-97"/>
     <use x="402.783203" xlink:href="#DejaVuSans-110"/>
     <use x="466.162109" xlink:href="#DejaVuSans-99"/>
     <use x="521.142578" xlink:href="#DejaVuSans-101"/>
     <use x="582.666016" xlink:href="#DejaVuSans-115"/>
    </g>
   </g>
   <g id="text_19">
    <!-- v2.4 -->
    <g style="fill:#808080;" transform="translate(187.233062 294.151352)scale(0.1 -0.1)">
     <use xlink:href="#DejaVuSans-118"/>
     <use x="59.179688" xlink:href="#DejaVuSans-50"/>
     <use x="122.802734" xlink:href="#DejaVuSans-46"/>
     <use x="154.589844" xlink:href="#DejaVuSans-52"/>
    </g>
   </g>
   <g id="text_20">
    <!-- 14 Sum of different powers -->
    <defs>
     <path d="M 4.203125 54.6875 
L 13.1875 54.6875 
L 24.421875 12.015625 
L 35.59375 54.6875 
L 46.1875 54.6875 
L 57.421875 12.015625 
L 68.609375 54.6875 
L 77.59375 54.6875 
L 63.28125 0 
L 52.6875 0 
L 40.921875 44.828125 
L 29.109375 0 
L 18.5 0 
z
" id="DejaVuSans-119"/>
    </defs>
    <g transform="translate(61.904937 21.648)scale(0.2 -0.2)">
     <use xlink:href="#DejaVuSans-49"/>
     <use x="63.623047" xlink:href="#DejaVuSans-52"/>
     <use x="127.246094" xlink:href="#DejaVuSans-32"/>
     <use x="159.033203" xlink:href="#DejaVuSans-83"/>
     <use x="222.509766" xlink:href="#DejaVuSans-117"/>
     <use x="285.888672" xlink:href="#DejaVuSans-109"/>
     <use x="383.300781" xlink:href="#DejaVuSans-32"/>
     <use x="415.087891" xlink:href="#DejaVuSans-111"/>
     <use x="476.269531" xlink:href="#DejaVuSans-102"/>
     <use x="511.474609" xlink:href="#DejaVuSans-32"/>
     <use x="543.261719" xlink:href="#DejaVuSans-100"/>
     <use x="606.738281" xlink:href="#DejaVuSans-105"/>
     <use x="634.521484" xlink:href="#DejaVuSans-102"/>
     <use x="669.726562" xlink:href="#DejaVuSans-102"/>
     <use x="704.931641" xlink:href="#DejaVuSans-101"/>
     <use x="766.455078" xlink:href="#DejaVuSans-114"/>
     <use x="805.318359" xlink:href="#DejaVuSans-101"/>
     <use x="866.841797" xlink:href="#DejaVuSans-110"/>
     <use x="930.220703" xlink:href="#DejaVuSans-116"/>
     <use x="969.429688" xlink:href="#DejaVuSans-32"/>
     <use x="1001.216797" xlink:href="#DejaVuSans-112"/>
     <use x="1064.693359" xlink:href="#DejaVuSans-111"/>
     <use x="1125.875" xlink:href="#DejaVuSans-119"/>
     <use x="1207.662109" xlink:href="#DejaVuSans-101"/>
     <use x="1269.185547" xlink:href="#DejaVuSans-114"/>
     <use x="1310.298828" xlink:href="#DejaVuSans-115"/>
    </g>
   </g>
  </g>
 </g>
 <defs>
  <clipPath id="pb603baabc3">
   <rect height="271.296" width="281.088" x="57.6" y="27.648"/>
  </clipPath>
 </defs>
</svg>
