<?xml version="1.0" encoding="utf-8" standalone="no"?>
<!DOCTYPE svg PUBLIC "-//W3C//DTD SVG 1.1//EN"
  "http://www.w3.org/Graphics/SVG/1.1/DTD/svg11.dtd">
<!-- Created with matplotlib (https://matplotlib.org/) -->
<svg height="345.6pt" version="1.1" viewBox="0 0 460.8 345.6" width="460.8pt" xmlns="http://www.w3.org/2000/svg" xmlns:xlink="http://www.w3.org/1999/xlink">
 <defs>
  <style type="text/css">
*{stroke-linecap:butt;stroke-linejoin:round;}
  </style>
 </defs>
 <g id="figure_1">
  <g id="patch_1">
   <path d="M 0 345.6 
L 460.8 345.6 
L 460.8 0 
L 0 0 
z
" style="fill:#ffffff;"/>
  </g>
  <g id="axes_1">
   <g id="patch_2">
    <path d="M 57.6 298.944 
L 338.688 298.944 
L 338.688 27.648 
L 57.6 27.648 
z
" style="fill:#ffffff;"/>
   </g>
   <g id="line2d_1">
    <path d="M 29.53256 298.944 
L 29.53256 293.677139 
L 48.691568 293.677139 
L 48.691568 288.410278 
L 63.467834 288.410278 
L 63.467834 283.143418 
L 81.775977 283.143418 
L 81.775977 277.876557 
L 100.343767 277.876557 
L 100.343767 272.609696 
L 110.358901 272.609696 
L 110.358901 267.342835 
L 116.443076 267.342835 
L 116.443076 262.075974 
L 121.400219 262.075974 
L 121.400219 256.809114 
L 125.255688 256.809114 
L 125.255688 251.542253 
L 130.018593 251.542253 
L 130.018593 246.275392 
L 133.032848 246.275392 
L 133.032848 241.008531 
L 136.189322 241.008531 
L 136.189322 235.74167 
L 138.828032 235.74167 
L 138.828032 230.47481 
L 160.708377 230.47481 
L 160.708377 225.207949 
L 173.412888 225.207949 
L 173.412888 219.941088 
L 174.034747 219.941088 
L 174.034747 214.674227 
L 180.339082 214.674227 
L 180.339082 209.407366 
L 183.423468 209.407366 
L 183.423468 204.140506 
L 185.655047 204.140506 
L 185.655047 198.873645 
L 186.373634 198.873645 
L 186.373634 193.606784 
L 187.219238 193.606784 
L 187.219238 188.339923 
L 187.412143 188.339923 
L 187.412143 183.073062 
L 187.665404 183.073062 
L 187.665404 177.806202 
L 187.805641 177.806202 
L 187.805641 172.539341 
L 188.536373 172.539341 
L 188.536373 167.27248 
L 188.851149 167.27248 
L 188.851149 162.005619 
L 189.554635 162.005619 
L 189.554635 156.738758 
L 189.702015 156.738758 
L 189.702015 151.471897 
L 190.463676 151.471897 
L 190.463676 146.205037 
L 190.610398 146.205037 
L 190.610398 140.938176 
L 190.801325 140.938176 
L 190.801325 135.671315 
L 190.93691 135.671315 
L 190.93691 130.404454 
L 191.094597 130.404454 
L 191.094597 125.137593 
L 191.288497 125.137593 
L 191.288497 119.870733 
L 191.456004 119.870733 
L 191.456004 114.603872 
L 191.665149 114.603872 
L 191.665149 109.337011 
L 191.81483 109.337011 
L 191.81483 104.07015 
L 191.980521 104.07015 
L 191.980521 98.803289 
L 192.088553 98.803289 
L 192.088553 93.536429 
L 193.112994 93.536429 
L 193.112994 88.269568 
L 193.196686 88.269568 
L 193.196686 83.002707 
L 193.332378 83.002707 
L 193.332378 77.735846 
L 193.571988 77.735846 
L 193.571988 72.468985 
L 193.726129 72.468985 
L 193.726129 67.202125 
L 193.87892 67.202125 
L 193.87892 61.935264 
L 194.002434 61.935264 
L 194.002434 56.668403 
L 194.097281 56.668403 
L 194.097281 51.401542 
L 194.187464 51.401542 
L 194.187464 46.134681 
L 194.288194 46.134681 
L 194.288194 40.867821 
L 194.373291 40.867821 
L 194.373291 35.60096 
L 194.463423 35.60096 
L 194.463423 30.334099 
L 338.688 30.334099 
" style="fill:none;stroke:#f5deb3;stroke-linecap:square;stroke-width:4;"/>
   </g>
   <g id="line2d_2">
    <defs>
     <path d="M -0 7.778175 
L 7.778175 0 
L 0 -7.778175 
L -7.778175 -0 
z
" id="m86e6e3ca00" style="stroke:#f5deb3;stroke-linejoin:miter;stroke-width:1.5;"/>
    </defs>
    <g>
     <use style="fill:#f5deb3;stroke:#f5deb3;stroke-linejoin:miter;stroke-width:1.5;" x="110.358901" xlink:href="#m86e6e3ca00" y="267.342835"/>
     <use style="fill:#f5deb3;stroke:#f5deb3;stroke-linejoin:miter;stroke-width:1.5;" x="186.373634" xlink:href="#m86e6e3ca00" y="193.606784"/>
     <use style="fill:#f5deb3;stroke:#f5deb3;stroke-linejoin:miter;stroke-width:1.5;" x="194.097281" xlink:href="#m86e6e3ca00" y="56.668403"/>
     <use style="fill:#f5deb3;stroke:#f5deb3;stroke-linejoin:miter;stroke-width:1.5;" x="194.463423" xlink:href="#m86e6e3ca00" y="30.334099"/>
     <use style="fill:#f5deb3;stroke:#f5deb3;stroke-linejoin:miter;stroke-width:1.5;" x="194.463423" xlink:href="#m86e6e3ca00" y="30.334099"/>
     <use style="fill:#f5deb3;stroke:#f5deb3;stroke-linejoin:miter;stroke-width:1.5;" x="338.688" xlink:href="#m86e6e3ca00" y="30.334099"/>
    </g>
   </g>
   <g id="line2d_3">
    <path style="fill:none;stroke:#f5deb3;stroke-linecap:square;stroke-width:4;"/>
    <g/>
   </g>
   <g id="line2d_4">
    <path d="M 338.688 30.334099 
L 369.60768 35.706297 
" style="fill:none;stroke:#f5deb3;stroke-linecap:square;stroke-width:4;"/>
    <g>
     <use style="fill:#f5deb3;stroke:#f5deb3;stroke-linejoin:miter;stroke-width:1.5;" x="338.688" xlink:href="#m86e6e3ca00" y="30.334099"/>
     <use style="fill:#f5deb3;stroke:#f5deb3;stroke-linejoin:miter;stroke-width:1.5;" x="369.60768" xlink:href="#m86e6e3ca00" y="35.706297"/>
    </g>
   </g>
   <g id="matplotlib.axis_1">
    <g id="xtick_1">
     <g id="line2d_5">
      <path clip-path="url(#p699da967c9)" d="M 57.6 298.944 
L 57.6 27.648 
" style="fill:none;stroke:#b0b0b0;stroke-linecap:square;stroke-width:0.8;"/>
     </g>
     <g id="line2d_6">
      <defs>
       <path d="M 0 0 
L 0 3.5 
" id="m98ce42eb1d" style="stroke:#000000;stroke-width:0.8;"/>
      </defs>
      <g>
       <use style="stroke:#000000;stroke-width:0.8;" x="57.6" xlink:href="#m98ce42eb1d" y="298.944"/>
      </g>
     </g>
     <g id="text_1">
      <!-- 0 -->
      <defs>
       <path d="M 31.78125 66.40625 
Q 24.171875 66.40625 20.328125 58.90625 
Q 16.5 51.421875 16.5 36.375 
Q 16.5 21.390625 20.328125 13.890625 
Q 24.171875 6.390625 31.78125 6.390625 
Q 39.453125 6.390625 43.28125 13.890625 
Q 47.125 21.390625 47.125 36.375 
Q 47.125 51.421875 43.28125 58.90625 
Q 39.453125 66.40625 31.78125 66.40625 
z
M 31.78125 74.21875 
Q 44.046875 74.21875 50.515625 64.515625 
Q 56.984375 54.828125 56.984375 36.375 
Q 56.984375 17.96875 50.515625 8.265625 
Q 44.046875 -1.421875 31.78125 -1.421875 
Q 19.53125 -1.421875 13.0625 8.265625 
Q 6.59375 17.96875 6.59375 36.375 
Q 6.59375 54.828125 13.0625 64.515625 
Q 19.53125 74.21875 31.78125 74.21875 
z
" id="DejaVuSans-48"/>
      </defs>
      <g transform="translate(51.2375 321.140875)scale(0.2 -0.2)">
       <use xlink:href="#DejaVuSans-48"/>
      </g>
     </g>
    </g>
    <g id="xtick_2">
     <g id="line2d_7">
      <path clip-path="url(#p699da967c9)" d="M 137.910857 298.944 
L 137.910857 27.648 
" style="fill:none;stroke:#b0b0b0;stroke-linecap:square;stroke-width:0.8;"/>
     </g>
     <g id="line2d_8">
      <g>
       <use style="stroke:#000000;stroke-width:0.8;" x="137.910857" xlink:href="#m98ce42eb1d" y="298.944"/>
      </g>
     </g>
     <g id="text_2">
      <!-- 2 -->
      <defs>
       <path d="M 19.1875 8.296875 
L 53.609375 8.296875 
L 53.609375 0 
L 7.328125 0 
L 7.328125 8.296875 
Q 12.9375 14.109375 22.625 23.890625 
Q 32.328125 33.6875 34.8125 36.53125 
Q 39.546875 41.84375 41.421875 45.53125 
Q 43.3125 49.21875 43.3125 52.78125 
Q 43.3125 58.59375 39.234375 62.25 
Q 35.15625 65.921875 28.609375 65.921875 
Q 23.96875 65.921875 18.8125 64.3125 
Q 13.671875 62.703125 7.8125 59.421875 
L 7.8125 69.390625 
Q 13.765625 71.78125 18.9375 73 
Q 24.125 74.21875 28.421875 74.21875 
Q 39.75 74.21875 46.484375 68.546875 
Q 53.21875 62.890625 53.21875 53.421875 
Q 53.21875 48.921875 51.53125 44.890625 
Q 49.859375 40.875 45.40625 35.40625 
Q 44.1875 33.984375 37.640625 27.21875 
Q 31.109375 20.453125 19.1875 8.296875 
z
" id="DejaVuSans-50"/>
      </defs>
      <g transform="translate(131.548357 321.140875)scale(0.2 -0.2)">
       <use xlink:href="#DejaVuSans-50"/>
      </g>
     </g>
    </g>
    <g id="xtick_3">
     <g id="line2d_9">
      <path clip-path="url(#p699da967c9)" d="M 218.221714 298.944 
L 218.221714 27.648 
" style="fill:none;stroke:#b0b0b0;stroke-linecap:square;stroke-width:0.8;"/>
     </g>
     <g id="line2d_10">
      <g>
       <use style="stroke:#000000;stroke-width:0.8;" x="218.221714" xlink:href="#m98ce42eb1d" y="298.944"/>
      </g>
     </g>
     <g id="text_3">
      <!-- 4 -->
      <defs>
       <path d="M 37.796875 64.3125 
L 12.890625 25.390625 
L 37.796875 25.390625 
z
M 35.203125 72.90625 
L 47.609375 72.90625 
L 47.609375 25.390625 
L 58.015625 25.390625 
L 58.015625 17.1875 
L 47.609375 17.1875 
L 47.609375 0 
L 37.796875 0 
L 37.796875 17.1875 
L 4.890625 17.1875 
L 4.890625 26.703125 
z
" id="DejaVuSans-52"/>
      </defs>
      <g transform="translate(211.859214 321.140875)scale(0.2 -0.2)">
       <use xlink:href="#DejaVuSans-52"/>
      </g>
     </g>
    </g>
    <g id="xtick_4">
     <g id="line2d_11">
      <path clip-path="url(#p699da967c9)" d="M 298.532571 298.944 
L 298.532571 27.648 
" style="fill:none;stroke:#b0b0b0;stroke-linecap:square;stroke-width:0.8;"/>
     </g>
     <g id="line2d_12">
      <g>
       <use style="stroke:#000000;stroke-width:0.8;" x="298.532571" xlink:href="#m98ce42eb1d" y="298.944"/>
      </g>
     </g>
     <g id="text_4">
      <!-- 6 -->
      <defs>
       <path d="M 33.015625 40.375 
Q 26.375 40.375 22.484375 35.828125 
Q 18.609375 31.296875 18.609375 23.390625 
Q 18.609375 15.53125 22.484375 10.953125 
Q 26.375 6.390625 33.015625 6.390625 
Q 39.65625 6.390625 43.53125 10.953125 
Q 47.40625 15.53125 47.40625 23.390625 
Q 47.40625 31.296875 43.53125 35.828125 
Q 39.65625 40.375 33.015625 40.375 
z
M 52.59375 71.296875 
L 52.59375 62.3125 
Q 48.875 64.0625 45.09375 64.984375 
Q 41.3125 65.921875 37.59375 65.921875 
Q 27.828125 65.921875 22.671875 59.328125 
Q 17.53125 52.734375 16.796875 39.40625 
Q 19.671875 43.65625 24.015625 45.921875 
Q 28.375 48.1875 33.59375 48.1875 
Q 44.578125 48.1875 50.953125 41.515625 
Q 57.328125 34.859375 57.328125 23.390625 
Q 57.328125 12.15625 50.6875 5.359375 
Q 44.046875 -1.421875 33.015625 -1.421875 
Q 20.359375 -1.421875 13.671875 8.265625 
Q 6.984375 17.96875 6.984375 36.375 
Q 6.984375 53.65625 15.1875 63.9375 
Q 23.390625 74.21875 37.203125 74.21875 
Q 40.921875 74.21875 44.703125 73.484375 
Q 48.484375 72.75 52.59375 71.296875 
z
" id="DejaVuSans-54"/>
      </defs>
      <g transform="translate(292.170071 321.140875)scale(0.2 -0.2)">
       <use xlink:href="#DejaVuSans-54"/>
      </g>
     </g>
    </g>
    <g id="xtick_5">
     <g id="line2d_13">
      <path clip-path="url(#p699da967c9)" d="M 97.755429 298.944 
L 97.755429 27.648 
" style="fill:none;stroke:#b0b0b0;stroke-linecap:square;stroke-width:0.8;"/>
     </g>
     <g id="line2d_14">
      <defs>
       <path d="M 0 0 
L 0 2 
" id="m2a876f6f3f" style="stroke:#000000;stroke-width:0.6;"/>
      </defs>
      <g>
       <use style="stroke:#000000;stroke-width:0.6;" x="97.755429" xlink:href="#m2a876f6f3f" y="298.944"/>
      </g>
     </g>
    </g>
    <g id="xtick_6">
     <g id="line2d_15">
      <path clip-path="url(#p699da967c9)" d="M 178.066286 298.944 
L 178.066286 27.648 
" style="fill:none;stroke:#b0b0b0;stroke-linecap:square;stroke-width:0.8;"/>
     </g>
     <g id="line2d_16">
      <g>
       <use style="stroke:#000000;stroke-width:0.6;" x="178.066286" xlink:href="#m2a876f6f3f" y="298.944"/>
      </g>
     </g>
    </g>
    <g id="xtick_7">
     <g id="line2d_17">
      <path clip-path="url(#p699da967c9)" d="M 258.377143 298.944 
L 258.377143 27.648 
" style="fill:none;stroke:#b0b0b0;stroke-linecap:square;stroke-width:0.8;"/>
     </g>
     <g id="line2d_18">
      <g>
       <use style="stroke:#000000;stroke-width:0.6;" x="258.377143" xlink:href="#m2a876f6f3f" y="298.944"/>
      </g>
     </g>
    </g>
    <g id="xtick_8">
     <g id="line2d_19">
      <path clip-path="url(#p699da967c9)" d="M 338.688 298.944 
L 338.688 27.648 
" style="fill:none;stroke:#b0b0b0;stroke-linecap:square;stroke-width:0.8;"/>
     </g>
     <g id="line2d_20">
      <g>
       <use style="stroke:#000000;stroke-width:0.6;" x="338.688" xlink:href="#m2a876f6f3f" y="298.944"/>
      </g>
     </g>
    </g>
    <g id="text_5">
     <!-- log10(# f-evals / dimension) -->
     <defs>
      <path d="M 9.421875 75.984375 
L 18.40625 75.984375 
L 18.40625 0 
L 9.421875 0 
z
" id="DejaVuSans-108"/>
      <path d="M 30.609375 48.390625 
Q 23.390625 48.390625 19.1875 42.75 
Q 14.984375 37.109375 14.984375 27.296875 
Q 14.984375 17.484375 19.15625 11.84375 
Q 23.34375 6.203125 30.609375 6.203125 
Q 37.796875 6.203125 41.984375 11.859375 
Q 46.1875 17.53125 46.1875 27.296875 
Q 46.1875 37.015625 41.984375 42.703125 
Q 37.796875 48.390625 30.609375 48.390625 
z
M 30.609375 56 
Q 42.328125 56 49.015625 48.375 
Q 55.71875 40.765625 55.71875 27.296875 
Q 55.71875 13.875 49.015625 6.21875 
Q 42.328125 -1.421875 30.609375 -1.421875 
Q 18.84375 -1.421875 12.171875 6.21875 
Q 5.515625 13.875 5.515625 27.296875 
Q 5.515625 40.765625 12.171875 48.375 
Q 18.84375 56 30.609375 56 
z
" id="DejaVuSans-111"/>
      <path d="M 45.40625 27.984375 
Q 45.40625 37.75 41.375 43.109375 
Q 37.359375 48.484375 30.078125 48.484375 
Q 22.859375 48.484375 18.828125 43.109375 
Q 14.796875 37.75 14.796875 27.984375 
Q 14.796875 18.265625 18.828125 12.890625 
Q 22.859375 7.515625 30.078125 7.515625 
Q 37.359375 7.515625 41.375 12.890625 
Q 45.40625 18.265625 45.40625 27.984375 
z
M 54.390625 6.78125 
Q 54.390625 -7.171875 48.1875 -13.984375 
Q 42 -20.796875 29.203125 -20.796875 
Q 24.46875 -20.796875 20.265625 -20.09375 
Q 16.0625 -19.390625 12.109375 -17.921875 
L 12.109375 -9.1875 
Q 16.0625 -11.328125 19.921875 -12.34375 
Q 23.78125 -13.375 27.78125 -13.375 
Q 36.625 -13.375 41.015625 -8.765625 
Q 45.40625 -4.15625 45.40625 5.171875 
L 45.40625 9.625 
Q 42.625 4.78125 38.28125 2.390625 
Q 33.9375 0 27.875 0 
Q 17.828125 0 11.671875 7.65625 
Q 5.515625 15.328125 5.515625 27.984375 
Q 5.515625 40.671875 11.671875 48.328125 
Q 17.828125 56 27.875 56 
Q 33.9375 56 38.28125 53.609375 
Q 42.625 51.21875 45.40625 46.390625 
L 45.40625 54.6875 
L 54.390625 54.6875 
z
" id="DejaVuSans-103"/>
      <path d="M 12.40625 8.296875 
L 28.515625 8.296875 
L 28.515625 63.921875 
L 10.984375 60.40625 
L 10.984375 69.390625 
L 28.421875 72.90625 
L 38.28125 72.90625 
L 38.28125 8.296875 
L 54.390625 8.296875 
L 54.390625 0 
L 12.40625 0 
z
" id="DejaVuSans-49"/>
      <path d="M 31 75.875 
Q 24.46875 64.65625 21.28125 53.65625 
Q 18.109375 42.671875 18.109375 31.390625 
Q 18.109375 20.125 21.3125 9.0625 
Q 24.515625 -2 31 -13.1875 
L 23.1875 -13.1875 
Q 15.875 -1.703125 12.234375 9.375 
Q 8.59375 20.453125 8.59375 31.390625 
Q 8.59375 42.28125 12.203125 53.3125 
Q 15.828125 64.359375 23.1875 75.875 
z
" id="DejaVuSans-40"/>
      <path d="M 51.125 44 
L 36.921875 44 
L 32.8125 27.6875 
L 47.125 27.6875 
z
M 43.796875 71.78125 
L 38.71875 51.515625 
L 52.984375 51.515625 
L 58.109375 71.78125 
L 65.921875 71.78125 
L 60.890625 51.515625 
L 76.125 51.515625 
L 76.125 44 
L 58.984375 44 
L 54.984375 27.6875 
L 70.515625 27.6875 
L 70.515625 20.21875 
L 53.078125 20.21875 
L 48 0 
L 40.1875 0 
L 45.21875 20.21875 
L 30.90625 20.21875 
L 25.875 0 
L 18.015625 0 
L 23.09375 20.21875 
L 7.71875 20.21875 
L 7.71875 27.6875 
L 24.90625 27.6875 
L 29 44 
L 13.28125 44 
L 13.28125 51.515625 
L 30.90625 51.515625 
L 35.890625 71.78125 
z
" id="DejaVuSans-35"/>
      <path id="DejaVuSans-32"/>
      <path d="M 37.109375 75.984375 
L 37.109375 68.5 
L 28.515625 68.5 
Q 23.6875 68.5 21.796875 66.546875 
Q 19.921875 64.59375 19.921875 59.515625 
L 19.921875 54.6875 
L 34.71875 54.6875 
L 34.71875 47.703125 
L 19.921875 47.703125 
L 19.921875 0 
L 10.890625 0 
L 10.890625 47.703125 
L 2.296875 47.703125 
L 2.296875 54.6875 
L 10.890625 54.6875 
L 10.890625 58.5 
Q 10.890625 67.625 15.140625 71.796875 
Q 19.390625 75.984375 28.609375 75.984375 
z
" id="DejaVuSans-102"/>
      <path d="M 4.890625 31.390625 
L 31.203125 31.390625 
L 31.203125 23.390625 
L 4.890625 23.390625 
z
" id="DejaVuSans-45"/>
      <path d="M 56.203125 29.59375 
L 56.203125 25.203125 
L 14.890625 25.203125 
Q 15.484375 15.921875 20.484375 11.0625 
Q 25.484375 6.203125 34.421875 6.203125 
Q 39.59375 6.203125 44.453125 7.46875 
Q 49.3125 8.734375 54.109375 11.28125 
L 54.109375 2.78125 
Q 49.265625 0.734375 44.1875 -0.34375 
Q 39.109375 -1.421875 33.890625 -1.421875 
Q 20.796875 -1.421875 13.15625 6.1875 
Q 5.515625 13.8125 5.515625 26.8125 
Q 5.515625 40.234375 12.765625 48.109375 
Q 20.015625 56 32.328125 56 
Q 43.359375 56 49.78125 48.890625 
Q 56.203125 41.796875 56.203125 29.59375 
z
M 47.21875 32.234375 
Q 47.125 39.59375 43.09375 43.984375 
Q 39.0625 48.390625 32.421875 48.390625 
Q 24.90625 48.390625 20.390625 44.140625 
Q 15.875 39.890625 15.1875 32.171875 
z
" id="DejaVuSans-101"/>
      <path d="M 2.984375 54.6875 
L 12.5 54.6875 
L 29.59375 8.796875 
L 46.6875 54.6875 
L 56.203125 54.6875 
L 35.6875 0 
L 23.484375 0 
z
" id="DejaVuSans-118"/>
      <path d="M 34.28125 27.484375 
Q 23.390625 27.484375 19.1875 25 
Q 14.984375 22.515625 14.984375 16.5 
Q 14.984375 11.71875 18.140625 8.90625 
Q 21.296875 6.109375 26.703125 6.109375 
Q 34.1875 6.109375 38.703125 11.40625 
Q 43.21875 16.703125 43.21875 25.484375 
L 43.21875 27.484375 
z
M 52.203125 31.203125 
L 52.203125 0 
L 43.21875 0 
L 43.21875 8.296875 
Q 40.140625 3.328125 35.546875 0.953125 
Q 30.953125 -1.421875 24.3125 -1.421875 
Q 15.921875 -1.421875 10.953125 3.296875 
Q 6 8.015625 6 15.921875 
Q 6 25.140625 12.171875 29.828125 
Q 18.359375 34.515625 30.609375 34.515625 
L 43.21875 34.515625 
L 43.21875 35.40625 
Q 43.21875 41.609375 39.140625 45 
Q 35.0625 48.390625 27.6875 48.390625 
Q 23 48.390625 18.546875 47.265625 
Q 14.109375 46.140625 10.015625 43.890625 
L 10.015625 52.203125 
Q 14.9375 54.109375 19.578125 55.046875 
Q 24.21875 56 28.609375 56 
Q 40.484375 56 46.34375 49.84375 
Q 52.203125 43.703125 52.203125 31.203125 
z
" id="DejaVuSans-97"/>
      <path d="M 44.28125 53.078125 
L 44.28125 44.578125 
Q 40.484375 46.53125 36.375 47.5 
Q 32.28125 48.484375 27.875 48.484375 
Q 21.1875 48.484375 17.84375 46.4375 
Q 14.5 44.390625 14.5 40.28125 
Q 14.5 37.15625 16.890625 35.375 
Q 19.28125 33.59375 26.515625 31.984375 
L 29.59375 31.296875 
Q 39.15625 29.25 43.1875 25.515625 
Q 47.21875 21.78125 47.21875 15.09375 
Q 47.21875 7.46875 41.1875 3.015625 
Q 35.15625 -1.421875 24.609375 -1.421875 
Q 20.21875 -1.421875 15.453125 -0.5625 
Q 10.6875 0.296875 5.421875 2 
L 5.421875 11.28125 
Q 10.40625 8.6875 15.234375 7.390625 
Q 20.0625 6.109375 24.8125 6.109375 
Q 31.15625 6.109375 34.5625 8.28125 
Q 37.984375 10.453125 37.984375 14.40625 
Q 37.984375 18.0625 35.515625 20.015625 
Q 33.0625 21.96875 24.703125 23.78125 
L 21.578125 24.515625 
Q 13.234375 26.265625 9.515625 29.90625 
Q 5.8125 33.546875 5.8125 39.890625 
Q 5.8125 47.609375 11.28125 51.796875 
Q 16.75 56 26.8125 56 
Q 31.78125 56 36.171875 55.265625 
Q 40.578125 54.546875 44.28125 53.078125 
z
" id="DejaVuSans-115"/>
      <path d="M 25.390625 72.90625 
L 33.6875 72.90625 
L 8.296875 -9.28125 
L 0 -9.28125 
z
" id="DejaVuSans-47"/>
      <path d="M 45.40625 46.390625 
L 45.40625 75.984375 
L 54.390625 75.984375 
L 54.390625 0 
L 45.40625 0 
L 45.40625 8.203125 
Q 42.578125 3.328125 38.25 0.953125 
Q 33.9375 -1.421875 27.875 -1.421875 
Q 17.96875 -1.421875 11.734375 6.484375 
Q 5.515625 14.40625 5.515625 27.296875 
Q 5.515625 40.1875 11.734375 48.09375 
Q 17.96875 56 27.875 56 
Q 33.9375 56 38.25 53.625 
Q 42.578125 51.265625 45.40625 46.390625 
z
M 14.796875 27.296875 
Q 14.796875 17.390625 18.875 11.75 
Q 22.953125 6.109375 30.078125 6.109375 
Q 37.203125 6.109375 41.296875 11.75 
Q 45.40625 17.390625 45.40625 27.296875 
Q 45.40625 37.203125 41.296875 42.84375 
Q 37.203125 48.484375 30.078125 48.484375 
Q 22.953125 48.484375 18.875 42.84375 
Q 14.796875 37.203125 14.796875 27.296875 
z
" id="DejaVuSans-100"/>
      <path d="M 9.421875 54.6875 
L 18.40625 54.6875 
L 18.40625 0 
L 9.421875 0 
z
M 9.421875 75.984375 
L 18.40625 75.984375 
L 18.40625 64.59375 
L 9.421875 64.59375 
z
" id="DejaVuSans-105"/>
      <path d="M 52 44.1875 
Q 55.375 50.25 60.0625 53.125 
Q 64.75 56 71.09375 56 
Q 79.640625 56 84.28125 50.015625 
Q 88.921875 44.046875 88.921875 33.015625 
L 88.921875 0 
L 79.890625 0 
L 79.890625 32.71875 
Q 79.890625 40.578125 77.09375 44.375 
Q 74.3125 48.1875 68.609375 48.1875 
Q 61.625 48.1875 57.5625 43.546875 
Q 53.515625 38.921875 53.515625 30.90625 
L 53.515625 0 
L 44.484375 0 
L 44.484375 32.71875 
Q 44.484375 40.625 41.703125 44.40625 
Q 38.921875 48.1875 33.109375 48.1875 
Q 26.21875 48.1875 22.15625 43.53125 
Q 18.109375 38.875 18.109375 30.90625 
L 18.109375 0 
L 9.078125 0 
L 9.078125 54.6875 
L 18.109375 54.6875 
L 18.109375 46.1875 
Q 21.1875 51.21875 25.484375 53.609375 
Q 29.78125 56 35.6875 56 
Q 41.65625 56 45.828125 52.96875 
Q 50 49.953125 52 44.1875 
z
" id="DejaVuSans-109"/>
      <path d="M 54.890625 33.015625 
L 54.890625 0 
L 45.90625 0 
L 45.90625 32.71875 
Q 45.90625 40.484375 42.875 44.328125 
Q 39.84375 48.1875 33.796875 48.1875 
Q 26.515625 48.1875 22.3125 43.546875 
Q 18.109375 38.921875 18.109375 30.90625 
L 18.109375 0 
L 9.078125 0 
L 9.078125 54.6875 
L 18.109375 54.6875 
L 18.109375 46.1875 
Q 21.34375 51.125 25.703125 53.5625 
Q 30.078125 56 35.796875 56 
Q 45.21875 56 50.046875 50.171875 
Q 54.890625 44.34375 54.890625 33.015625 
z
" id="DejaVuSans-110"/>
      <path d="M 8.015625 75.875 
L 15.828125 75.875 
Q 23.140625 64.359375 26.78125 53.3125 
Q 30.421875 42.28125 30.421875 31.390625 
Q 30.421875 20.453125 26.78125 9.375 
Q 23.140625 -1.703125 15.828125 -13.1875 
L 8.015625 -13.1875 
Q 14.5 -2 17.703125 9.0625 
Q 20.90625 20.125 20.90625 31.390625 
Q 20.90625 42.671875 17.703125 53.65625 
Q 14.5 64.65625 8.015625 75.875 
z
" id="DejaVuSans-41"/>
     </defs>
     <g transform="translate(77.764078 342.217594)scale(0.17 -0.17)">
      <use xlink:href="#DejaVuSans-108"/>
      <use x="27.783203" xlink:href="#DejaVuSans-111"/>
      <use x="88.964844" xlink:href="#DejaVuSans-103"/>
      <use x="152.441406" xlink:href="#DejaVuSans-49"/>
      <use x="216.064453" xlink:href="#DejaVuSans-48"/>
      <use x="279.6875" xlink:href="#DejaVuSans-40"/>
      <use x="318.701172" xlink:href="#DejaVuSans-35"/>
      <use x="402.490234" xlink:href="#DejaVuSans-32"/>
      <use x="434.277344" xlink:href="#DejaVuSans-102"/>
      <use x="463.982422" xlink:href="#DejaVuSans-45"/>
      <use x="500.066406" xlink:href="#DejaVuSans-101"/>
      <use x="561.589844" xlink:href="#DejaVuSans-118"/>
      <use x="620.769531" xlink:href="#DejaVuSans-97"/>
      <use x="682.048828" xlink:href="#DejaVuSans-108"/>
      <use x="709.832031" xlink:href="#DejaVuSans-115"/>
      <use x="761.931641" xlink:href="#DejaVuSans-32"/>
      <use x="793.71875" xlink:href="#DejaVuSans-47"/>
      <use x="827.410156" xlink:href="#DejaVuSans-32"/>
      <use x="859.197266" xlink:href="#DejaVuSans-100"/>
      <use x="922.673828" xlink:href="#DejaVuSans-105"/>
      <use x="950.457031" xlink:href="#DejaVuSans-109"/>
      <use x="1047.869141" xlink:href="#DejaVuSans-101"/>
      <use x="1109.392578" xlink:href="#DejaVuSans-110"/>
      <use x="1172.771484" xlink:href="#DejaVuSans-115"/>
      <use x="1224.871094" xlink:href="#DejaVuSans-105"/>
      <use x="1252.654297" xlink:href="#DejaVuSans-111"/>
      <use x="1313.835938" xlink:href="#DejaVuSans-110"/>
      <use x="1377.214844" xlink:href="#DejaVuSans-41"/>
     </g>
    </g>
   </g>
   <g id="matplotlib.axis_2">
    <g id="ytick_1">
     <g id="line2d_21">
      <path clip-path="url(#p699da967c9)" d="M 57.6 298.944 
L 338.688 298.944 
" style="fill:none;stroke:#b0b0b0;stroke-linecap:square;stroke-width:0.8;"/>
     </g>
     <g id="line2d_22">
      <defs>
       <path d="M 0 0 
L -3.5 0 
" id="m3fd5f0b33f" style="stroke:#000000;stroke-width:0.8;"/>
      </defs>
      <g>
       <use style="stroke:#000000;stroke-width:0.8;" x="57.6" xlink:href="#m3fd5f0b33f" y="298.944"/>
      </g>
     </g>
     <g id="text_6">
      <!-- 0.0 -->
      <defs>
       <path d="M 10.6875 12.40625 
L 21 12.40625 
L 21 0 
L 10.6875 0 
z
" id="DejaVuSans-46"/>
      </defs>
      <g transform="translate(25.155 305.02275)scale(0.16 -0.16)">
       <use xlink:href="#DejaVuSans-48"/>
       <use x="63.623047" xlink:href="#DejaVuSans-46"/>
       <use x="95.410156" xlink:href="#DejaVuSans-48"/>
      </g>
     </g>
    </g>
    <g id="ytick_2">
     <g id="line2d_23">
      <path clip-path="url(#p699da967c9)" d="M 57.6 245.22202 
L 338.688 245.22202 
" style="fill:none;stroke:#b0b0b0;stroke-linecap:square;stroke-width:0.8;"/>
     </g>
     <g id="line2d_24">
      <g>
       <use style="stroke:#000000;stroke-width:0.8;" x="57.6" xlink:href="#m3fd5f0b33f" y="245.22202"/>
      </g>
     </g>
     <g id="text_7">
      <!-- 0.2 -->
      <g transform="translate(25.155 251.30077)scale(0.16 -0.16)">
       <use xlink:href="#DejaVuSans-48"/>
       <use x="63.623047" xlink:href="#DejaVuSans-46"/>
       <use x="95.410156" xlink:href="#DejaVuSans-50"/>
      </g>
     </g>
    </g>
    <g id="ytick_3">
     <g id="line2d_25">
      <path clip-path="url(#p699da967c9)" d="M 57.6 191.50004 
L 338.688 191.50004 
" style="fill:none;stroke:#b0b0b0;stroke-linecap:square;stroke-width:0.8;"/>
     </g>
     <g id="line2d_26">
      <g>
       <use style="stroke:#000000;stroke-width:0.8;" x="57.6" xlink:href="#m3fd5f0b33f" y="191.50004"/>
      </g>
     </g>
     <g id="text_8">
      <!-- 0.4 -->
      <g transform="translate(25.155 197.57879)scale(0.16 -0.16)">
       <use xlink:href="#DejaVuSans-48"/>
       <use x="63.623047" xlink:href="#DejaVuSans-46"/>
       <use x="95.410156" xlink:href="#DejaVuSans-52"/>
      </g>
     </g>
    </g>
    <g id="ytick_4">
     <g id="line2d_27">
      <path clip-path="url(#p699da967c9)" d="M 57.6 137.778059 
L 338.688 137.778059 
" style="fill:none;stroke:#b0b0b0;stroke-linecap:square;stroke-width:0.8;"/>
     </g>
     <g id="line2d_28">
      <g>
       <use style="stroke:#000000;stroke-width:0.8;" x="57.6" xlink:href="#m3fd5f0b33f" y="137.778059"/>
      </g>
     </g>
     <g id="text_9">
      <!-- 0.6 -->
      <g transform="translate(25.155 143.856809)scale(0.16 -0.16)">
       <use xlink:href="#DejaVuSans-48"/>
       <use x="63.623047" xlink:href="#DejaVuSans-46"/>
       <use x="95.410156" xlink:href="#DejaVuSans-54"/>
      </g>
     </g>
    </g>
    <g id="ytick_5">
     <g id="line2d_29">
      <path clip-path="url(#p699da967c9)" d="M 57.6 84.056079 
L 338.688 84.056079 
" style="fill:none;stroke:#b0b0b0;stroke-linecap:square;stroke-width:0.8;"/>
     </g>
     <g id="line2d_30">
      <g>
       <use style="stroke:#000000;stroke-width:0.8;" x="57.6" xlink:href="#m3fd5f0b33f" y="84.056079"/>
      </g>
     </g>
     <g id="text_10">
      <!-- 0.8 -->
      <defs>
       <path d="M 31.78125 34.625 
Q 24.75 34.625 20.71875 30.859375 
Q 16.703125 27.09375 16.703125 20.515625 
Q 16.703125 13.921875 20.71875 10.15625 
Q 24.75 6.390625 31.78125 6.390625 
Q 38.8125 6.390625 42.859375 10.171875 
Q 46.921875 13.96875 46.921875 20.515625 
Q 46.921875 27.09375 42.890625 30.859375 
Q 38.875 34.625 31.78125 34.625 
z
M 21.921875 38.8125 
Q 15.578125 40.375 12.03125 44.71875 
Q 8.5 49.078125 8.5 55.328125 
Q 8.5 64.0625 14.71875 69.140625 
Q 20.953125 74.21875 31.78125 74.21875 
Q 42.671875 74.21875 48.875 69.140625 
Q 55.078125 64.0625 55.078125 55.328125 
Q 55.078125 49.078125 51.53125 44.71875 
Q 48 40.375 41.703125 38.8125 
Q 48.828125 37.15625 52.796875 32.3125 
Q 56.78125 27.484375 56.78125 20.515625 
Q 56.78125 9.90625 50.3125 4.234375 
Q 43.84375 -1.421875 31.78125 -1.421875 
Q 19.734375 -1.421875 13.25 4.234375 
Q 6.78125 9.90625 6.78125 20.515625 
Q 6.78125 27.484375 10.78125 32.3125 
Q 14.796875 37.15625 21.921875 38.8125 
z
M 18.3125 54.390625 
Q 18.3125 48.734375 21.84375 45.5625 
Q 25.390625 42.390625 31.78125 42.390625 
Q 38.140625 42.390625 41.71875 45.5625 
Q 45.3125 48.734375 45.3125 54.390625 
Q 45.3125 60.0625 41.71875 63.234375 
Q 38.140625 66.40625 31.78125 66.40625 
Q 25.390625 66.40625 21.84375 63.234375 
Q 18.3125 60.0625 18.3125 54.390625 
z
" id="DejaVuSans-56"/>
      </defs>
      <g transform="translate(25.155 90.134829)scale(0.16 -0.16)">
       <use xlink:href="#DejaVuSans-48"/>
       <use x="63.623047" xlink:href="#DejaVuSans-46"/>
       <use x="95.410156" xlink:href="#DejaVuSans-56"/>
      </g>
     </g>
    </g>
    <g id="ytick_6">
     <g id="line2d_31">
      <path clip-path="url(#p699da967c9)" d="M 57.6 30.334099 
L 338.688 30.334099 
" style="fill:none;stroke:#b0b0b0;stroke-linecap:square;stroke-width:0.8;"/>
     </g>
     <g id="line2d_32">
      <g>
       <use style="stroke:#000000;stroke-width:0.8;" x="57.6" xlink:href="#m3fd5f0b33f" y="30.334099"/>
      </g>
     </g>
     <g id="text_11">
      <!-- 1.0 -->
      <g transform="translate(25.155 36.412849)scale(0.16 -0.16)">
       <use xlink:href="#DejaVuSans-49"/>
       <use x="63.623047" xlink:href="#DejaVuSans-46"/>
       <use x="95.410156" xlink:href="#DejaVuSans-48"/>
      </g>
     </g>
    </g>
    <g id="text_12">
     <!-- Fraction of function,target pairs -->
     <defs>
      <path d="M 9.8125 72.90625 
L 51.703125 72.90625 
L 51.703125 64.59375 
L 19.671875 64.59375 
L 19.671875 43.109375 
L 48.578125 43.109375 
L 48.578125 34.8125 
L 19.671875 34.8125 
L 19.671875 0 
L 9.8125 0 
z
" id="DejaVuSans-70"/>
      <path d="M 41.109375 46.296875 
Q 39.59375 47.171875 37.8125 47.578125 
Q 36.03125 48 33.890625 48 
Q 26.265625 48 22.1875 43.046875 
Q 18.109375 38.09375 18.109375 28.8125 
L 18.109375 0 
L 9.078125 0 
L 9.078125 54.6875 
L 18.109375 54.6875 
L 18.109375 46.1875 
Q 20.953125 51.171875 25.484375 53.578125 
Q 30.03125 56 36.53125 56 
Q 37.453125 56 38.578125 55.875 
Q 39.703125 55.765625 41.0625 55.515625 
z
" id="DejaVuSans-114"/>
      <path d="M 48.78125 52.59375 
L 48.78125 44.1875 
Q 44.96875 46.296875 41.140625 47.34375 
Q 37.3125 48.390625 33.40625 48.390625 
Q 24.65625 48.390625 19.8125 42.84375 
Q 14.984375 37.3125 14.984375 27.296875 
Q 14.984375 17.28125 19.8125 11.734375 
Q 24.65625 6.203125 33.40625 6.203125 
Q 37.3125 6.203125 41.140625 7.25 
Q 44.96875 8.296875 48.78125 10.40625 
L 48.78125 2.09375 
Q 45.015625 0.34375 40.984375 -0.53125 
Q 36.96875 -1.421875 32.421875 -1.421875 
Q 20.0625 -1.421875 12.78125 6.34375 
Q 5.515625 14.109375 5.515625 27.296875 
Q 5.515625 40.671875 12.859375 48.328125 
Q 20.21875 56 33.015625 56 
Q 37.15625 56 41.109375 55.140625 
Q 45.0625 54.296875 48.78125 52.59375 
z
" id="DejaVuSans-99"/>
      <path d="M 18.3125 70.21875 
L 18.3125 54.6875 
L 36.8125 54.6875 
L 36.8125 47.703125 
L 18.3125 47.703125 
L 18.3125 18.015625 
Q 18.3125 11.328125 20.140625 9.421875 
Q 21.96875 7.515625 27.59375 7.515625 
L 36.8125 7.515625 
L 36.8125 0 
L 27.59375 0 
Q 17.1875 0 13.234375 3.875 
Q 9.28125 7.765625 9.28125 18.015625 
L 9.28125 47.703125 
L 2.6875 47.703125 
L 2.6875 54.6875 
L 9.28125 54.6875 
L 9.28125 70.21875 
z
" id="DejaVuSans-116"/>
      <path d="M 8.5 21.578125 
L 8.5 54.6875 
L 17.484375 54.6875 
L 17.484375 21.921875 
Q 17.484375 14.15625 20.5 10.265625 
Q 23.53125 6.390625 29.59375 6.390625 
Q 36.859375 6.390625 41.078125 11.03125 
Q 45.3125 15.671875 45.3125 23.6875 
L 45.3125 54.6875 
L 54.296875 54.6875 
L 54.296875 0 
L 45.3125 0 
L 45.3125 8.40625 
Q 42.046875 3.421875 37.71875 1 
Q 33.40625 -1.421875 27.6875 -1.421875 
Q 18.265625 -1.421875 13.375 4.4375 
Q 8.5 10.296875 8.5 21.578125 
z
M 31.109375 56 
z
" id="DejaVuSans-117"/>
      <path d="M 11.71875 12.40625 
L 22.015625 12.40625 
L 22.015625 4 
L 14.015625 -11.625 
L 7.71875 -11.625 
L 11.71875 4 
z
" id="DejaVuSans-44"/>
      <path d="M 18.109375 8.203125 
L 18.109375 -20.796875 
L 9.078125 -20.796875 
L 9.078125 54.6875 
L 18.109375 54.6875 
L 18.109375 46.390625 
Q 20.953125 51.265625 25.265625 53.625 
Q 29.59375 56 35.59375 56 
Q 45.5625 56 51.78125 48.09375 
Q 58.015625 40.1875 58.015625 27.296875 
Q 58.015625 14.40625 51.78125 6.484375 
Q 45.5625 -1.421875 35.59375 -1.421875 
Q 29.59375 -1.421875 25.265625 0.953125 
Q 20.953125 3.328125 18.109375 8.203125 
z
M 48.6875 27.296875 
Q 48.6875 37.203125 44.609375 42.84375 
Q 40.53125 48.484375 33.40625 48.484375 
Q 26.265625 48.484375 22.1875 42.84375 
Q 18.109375 37.203125 18.109375 27.296875 
Q 18.109375 17.390625 22.1875 11.75 
Q 26.265625 6.109375 33.40625 6.109375 
Q 40.53125 6.109375 44.609375 11.75 
Q 48.6875 17.390625 48.6875 27.296875 
z
" id="DejaVuSans-112"/>
     </defs>
     <g transform="translate(17.619531 297.681)rotate(-90)scale(0.17 -0.17)">
      <use xlink:href="#DejaVuSans-70"/>
      <use x="50.269531" xlink:href="#DejaVuSans-114"/>
      <use x="91.382812" xlink:href="#DejaVuSans-97"/>
      <use x="152.662109" xlink:href="#DejaVuSans-99"/>
      <use x="207.642578" xlink:href="#DejaVuSans-116"/>
      <use x="246.851562" xlink:href="#DejaVuSans-105"/>
      <use x="274.634766" xlink:href="#DejaVuSans-111"/>
      <use x="335.816406" xlink:href="#DejaVuSans-110"/>
      <use x="399.195312" xlink:href="#DejaVuSans-32"/>
      <use x="430.982422" xlink:href="#DejaVuSans-111"/>
      <use x="492.164062" xlink:href="#DejaVuSans-102"/>
      <use x="527.369141" xlink:href="#DejaVuSans-32"/>
      <use x="559.15625" xlink:href="#DejaVuSans-102"/>
      <use x="594.361328" xlink:href="#DejaVuSans-117"/>
      <use x="657.740234" xlink:href="#DejaVuSans-110"/>
      <use x="721.119141" xlink:href="#DejaVuSans-99"/>
      <use x="776.099609" xlink:href="#DejaVuSans-116"/>
      <use x="815.308594" xlink:href="#DejaVuSans-105"/>
      <use x="843.091797" xlink:href="#DejaVuSans-111"/>
      <use x="904.273438" xlink:href="#DejaVuSans-110"/>
      <use x="967.652344" xlink:href="#DejaVuSans-44"/>
      <use x="999.439453" xlink:href="#DejaVuSans-116"/>
      <use x="1038.648438" xlink:href="#DejaVuSans-97"/>
      <use x="1099.927734" xlink:href="#DejaVuSans-114"/>
      <use x="1139.291016" xlink:href="#DejaVuSans-103"/>
      <use x="1202.767578" xlink:href="#DejaVuSans-101"/>
      <use x="1264.291016" xlink:href="#DejaVuSans-116"/>
      <use x="1303.5" xlink:href="#DejaVuSans-32"/>
      <use x="1335.287109" xlink:href="#DejaVuSans-112"/>
      <use x="1398.763672" xlink:href="#DejaVuSans-97"/>
      <use x="1460.042969" xlink:href="#DejaVuSans-105"/>
      <use x="1487.826172" xlink:href="#DejaVuSans-114"/>
      <use x="1528.939453" xlink:href="#DejaVuSans-115"/>
     </g>
    </g>
   </g>
   <g id="line2d_33">
    <defs>
     <path d="M 0 1.5 
C 0.397805 1.5 0.77937 1.341951 1.06066 1.06066 
C 1.341951 0.77937 1.5 0.397805 1.5 0 
C 1.5 -0.397805 1.341951 -0.77937 1.06066 -1.06066 
C 0.77937 -1.341951 0.397805 -1.5 0 -1.5 
C -0.397805 -1.5 -0.77937 -1.341951 -1.06066 -1.06066 
C -1.341951 -0.77937 -1.5 -0.397805 -1.5 0 
C -1.5 0.397805 -1.341951 0.77937 -1.06066 1.06066 
C -0.77937 1.341951 -0.397805 1.5 0 1.5 
z
" id="m6f2f316a85" style="stroke:#f5deb3;"/>
    </defs>
    <g>
     <use style="fill:#f5deb3;stroke:#f5deb3;" x="194.463423" xlink:href="#m6f2f316a85" y="30.334099"/>
     <use style="fill:#f5deb3;stroke:#f5deb3;" x="194.463423" xlink:href="#m6f2f316a85" y="30.334099"/>
    </g>
   </g>
   <g id="line2d_34">
    <defs>
     <path d="M 0 1.5 
C 0.397805 1.5 0.77937 1.341951 1.06066 1.06066 
C 1.341951 0.77937 1.5 0.397805 1.5 0 
C 1.5 -0.397805 1.341951 -0.77937 1.06066 -1.06066 
C 0.77937 -1.341951 0.397805 -1.5 0 -1.5 
C -0.397805 -1.5 -0.77937 -1.341951 -1.06066 -1.06066 
C -1.341951 -0.77937 -1.5 -0.397805 -1.5 0 
C -1.5 0.397805 -1.341951 0.77937 -1.06066 1.06066 
C -0.77937 1.341951 -0.397805 1.5 0 1.5 
z
" id="m3d987b53fc" style="stroke:#000080;"/>
    </defs>
    <g>
     <use style="fill:#000080;stroke:#000080;" x="220.341369" xlink:href="#m3d987b53fc" y="262.075974"/>
     <use style="fill:#000080;stroke:#000080;" x="220.341369" xlink:href="#m3d987b53fc" y="262.075974"/>
    </g>
   </g>
   <g id="line2d_35">
    <path d="M 29.53256 298.944 
L 29.53256 296.837256 
L 41.620548 296.837256 
L 41.620548 294.203825 
L 48.691568 294.203825 
L 48.691568 291.570395 
L 53.708537 291.570395 
L 53.708537 289.990337 
L 57.6 289.990337 
L 57.6 288.410278 
L 60.779557 288.410278 
L 60.779557 287.356906 
L 63.467834 287.356906 
L 63.467834 286.83022 
L 65.796525 286.83022 
L 65.796525 286.303534 
L 71.35013 286.303534 
L 71.35013 285.776848 
L 72.867545 285.776848 
L 72.867545 284.723476 
L 74.263433 284.723476 
L 74.263433 284.19679 
L 75.555822 284.19679 
L 75.555822 283.670104 
L 77.884514 283.670104 
L 77.884514 283.143418 
L 78.941764 283.143418 
L 78.941764 282.616732 
L 81.775977 282.616732 
L 81.775977 282.090045 
L 87.009585 282.090045 
L 87.009585 281.563359 
L 88.846997 281.563359 
L 88.846997 281.036673 
L 94.294587 281.036673 
L 94.294587 280.509987 
L 96.301313 280.509987 
L 96.301313 279.983301 
L 106.593963 279.983301 
L 106.593963 279.456615 
L 107.213174 279.456615 
L 107.213174 278.929929 
L 109.491096 278.929929 
L 109.491096 278.403243 
L 115.586238 278.403243 
L 115.586238 277.876557 
L 119.40226 277.876557 
L 119.40226 277.349871 
L 122.362027 277.349871 
L 122.362027 276.823185 
L 130.398313 276.823185 
L 130.398313 276.296499 
L 130.926816 276.296499 
L 130.926816 275.769812 
L 132.326708 275.769812 
L 132.326708 275.243126 
L 133.888106 275.243126 
L 133.888106 274.71644 
L 137.089613 274.71644 
L 137.089613 274.189754 
L 141.292695 274.189754 
L 141.292695 273.663068 
L 144.099593 273.663068 
L 144.099593 273.136382 
L 146.452726 273.136382 
L 146.452726 272.08301 
L 147.630247 272.08301 
L 147.630247 271.556324 
L 149.305096 271.556324 
L 149.305096 271.029638 
L 156.622378 271.029638 
L 156.622378 270.502952 
L 160.670589 270.502952 
L 160.670589 269.976266 
L 161.192316 269.976266 
L 161.192316 269.449579 
L 165.024937 269.449579 
L 165.024937 268.922893 
L 171.935589 268.922893 
L 171.935589 268.396207 
L 173.294067 268.396207 
L 173.294067 267.869521 
L 175.419813 267.869521 
L 175.419813 266.816149 
L 180.702666 266.816149 
L 180.702666 265.762777 
L 192.533901 265.762777 
L 192.533901 265.236091 
L 196.386981 265.236091 
L 196.386981 264.709405 
L 196.45516 264.709405 
L 196.45516 264.182719 
L 201.617336 264.182719 
L 201.617336 263.656033 
L 205.278081 263.656033 
L 205.278081 263.129347 
L 205.635588 263.129347 
L 205.635588 262.60266 
L 220.341369 262.60266 
L 220.341369 262.075974 
L 338.688 262.075974 
" style="fill:none;stroke:#000080;stroke-linecap:square;stroke-width:1.5;"/>
   </g>
   <g id="line2d_36">
    <defs>
     <path d="M 0 6 
C 1.591219 6 3.117479 5.367802 4.242641 4.242641 
C 5.367802 3.117479 6 1.591219 6 0 
C 6 -1.591219 5.367802 -3.117479 4.242641 -4.242641 
C 3.117479 -5.367802 1.591219 -6 0 -6 
C -1.591219 -6 -3.117479 -5.367802 -4.242641 -4.242641 
C -5.367802 -3.117479 -6 -1.591219 -6 0 
C -6 1.591219 -5.367802 3.117479 -4.242641 4.242641 
C -3.117479 5.367802 -1.591219 6 0 6 
z
" id="mc0f9e98a6d" style="stroke:#000080;stroke-width:1.5;"/>
    </defs>
    <g>
     <use style="fill-opacity:0;stroke:#000080;stroke-width:1.5;" x="137.089613" xlink:href="#mc0f9e98a6d" y="274.71644"/>
     <use style="fill-opacity:0;stroke:#000080;stroke-width:1.5;" x="205.635588" xlink:href="#mc0f9e98a6d" y="263.129347"/>
     <use style="fill-opacity:0;stroke:#000080;stroke-width:1.5;" x="220.341369" xlink:href="#mc0f9e98a6d" y="262.60266"/>
     <use style="fill-opacity:0;stroke:#000080;stroke-width:1.5;" x="220.341369" xlink:href="#mc0f9e98a6d" y="262.075974"/>
     <use style="fill-opacity:0;stroke:#000080;stroke-width:1.5;" x="338.688" xlink:href="#mc0f9e98a6d" y="262.075974"/>
    </g>
   </g>
   <g id="line2d_37">
    <path style="fill:none;stroke:#000080;stroke-linecap:square;stroke-width:1.5;"/>
    <g/>
   </g>
   <g id="line2d_38">
    <path clip-path="url(#p699da967c9)" d="M 178.066286 266.816149 
" style="fill:none;stroke:#000080;stroke-linecap:square;stroke-width:1.5;"/>
    <defs>
     <path d="M -12 12 
L 12 -12 
M -12 -12 
L 12 12 
" id="m2dfc27e5c6" style="stroke:#000080;"/>
    </defs>
    <g clip-path="url(#p699da967c9)">
     <use style="fill:#000080;stroke:#000080;" x="178.066286" xlink:href="#m2dfc27e5c6" y="266.816149"/>
    </g>
   </g>
   <g id="line2d_39">
    <defs>
     <path d="M 0 1.5 
C 0.397805 1.5 0.77937 1.341951 1.06066 1.06066 
C 1.341951 0.77937 1.5 0.397805 1.5 0 
C 1.5 -0.397805 1.341951 -0.77937 1.06066 -1.06066 
C 0.77937 -1.341951 0.397805 -1.5 0 -1.5 
C -0.397805 -1.5 -0.77937 -1.341951 -1.06066 -1.06066 
C -1.341951 -0.77937 -1.5 -0.397805 -1.5 0 
C -1.5 0.397805 -1.341951 0.77937 -1.06066 1.06066 
C -0.77937 1.341951 -0.397805 1.5 0 1.5 
z
" id="mb73de1bde0" style="stroke:#ff00ff;"/>
    </defs>
    <g>
     <use style="fill:#ff00ff;stroke:#ff00ff;" x="261.998433" xlink:href="#mb73de1bde0" y="183.073062"/>
     <use style="fill:#ff00ff;stroke:#ff00ff;" x="261.998433" xlink:href="#mb73de1bde0" y="183.073062"/>
    </g>
   </g>
   <g id="line2d_40">
    <path d="M 29.53256 298.944 
L 29.53256 292.623767 
L 41.620548 292.623767 
L 41.620548 289.990337 
L 60.779557 289.990337 
L 60.779557 289.463651 
L 63.467834 289.463651 
L 63.467834 288.936964 
L 72.867545 288.936964 
L 72.867545 288.410278 
L 74.263433 288.410278 
L 74.263433 287.883592 
L 78.941764 287.883592 
L 78.941764 287.356906 
L 80.881459 287.356906 
L 80.881459 286.83022 
L 85.66744 286.83022 
L 85.66744 286.303534 
L 86.351421 286.303534 
L 86.351421 285.776848 
L 91.535274 285.776848 
L 91.535274 285.250162 
L 92.504372 285.250162 
L 92.504372 284.19679 
L 98.100772 284.19679 
L 98.100772 283.670104 
L 101.785851 283.670104 
L 101.785851 283.143418 
L 104.355088 283.143418 
L 104.355088 282.616732 
L 106.802819 282.616732 
L 106.802819 281.563359 
L 108.764355 281.563359 
L 108.764355 281.036673 
L 113.167699 281.036673 
L 113.167699 280.509987 
L 113.311233 280.509987 
L 113.311233 279.456615 
L 113.73488 279.456615 
L 113.73488 278.929929 
L 115.205729 278.929929 
L 115.205729 278.403243 
L 115.711251 278.403243 
L 115.711251 277.876557 
L 118.039942 277.876557 
L 118.039942 277.349871 
L 121.400219 277.349871 
L 121.400219 276.823185 
L 121.756135 276.823185 
L 121.756135 276.296499 
L 122.191052 276.296499 
L 122.276749 274.71644 
L 123.985457 274.71644 
L 123.985457 274.189754 
L 125.612332 274.189754 
L 125.612332 272.08301 
L 129.290685 272.08301 
L 129.290685 271.556324 
L 130.073348 271.556324 
L 130.073348 271.029638 
L 130.822389 271.029638 
L 130.822389 270.502952 
L 131.389151 270.502952 
L 131.389151 269.976266 
L 131.938072 269.976266 
L 131.938072 269.449579 
L 132.230358 269.449579 
L 132.230358 268.922893 
L 132.517825 268.922893 
L 132.565279 267.869521 
L 132.70687 267.869521 
L 132.70687 267.342835 
L 133.488207 267.342835 
L 133.488207 266.816149 
L 133.800029 266.816149 
L 133.800029 266.289463 
L 134.407429 266.289463 
L 134.407429 265.762777 
L 134.870259 265.762777 
L 134.870259 265.236091 
L 135.602085 265.236091 
L 135.602085 264.709405 
L 135.800036 264.709405 
L 135.800036 264.182719 
L 136.034648 264.182719 
L 136.034648 263.656033 
L 137.126135 263.656033 
L 137.126135 263.129347 
L 137.664982 263.129347 
L 137.770782 262.075974 
L 138.661784 262.075974 
L 138.728473 261.022602 
L 139.445704 261.022602 
L 139.477614 259.96923 
L 140.134598 259.96923 
L 140.134598 259.442544 
L 141.002999 259.442544 
L 141.002999 258.915858 
L 141.968939 258.915858 
L 141.968939 258.389172 
L 142.106582 258.389172 
L 142.106582 257.862486 
L 143.87806 257.862486 
L 143.87806 257.3358 
L 144.865226 257.3358 
L 144.865226 256.809114 
L 145.665858 256.809114 
L 145.665858 256.282427 
L 149.593058 256.282427 
L 149.593058 255.755741 
L 151.975216 255.755741 
L 151.975216 255.229055 
L 152.466496 255.229055 
L 152.466496 254.702369 
L 155.628383 254.702369 
L 155.628383 254.175683 
L 156.077167 254.175683 
L 156.077167 253.648997 
L 158.847883 253.648997 
L 158.847883 253.122311 
L 170.419074 253.122311 
L 170.419074 252.595625 
L 171.422484 252.595625 
L 171.422484 252.068939 
L 171.625505 252.068939 
L 171.625505 251.542253 
L 171.970255 251.542253 
L 171.970255 251.015567 
L 172.157246 251.015567 
L 172.157246 250.488881 
L 172.682755 250.488881 
L 172.725446 249.435508 
L 172.834072 249.435508 
L 172.918615 248.382136 
L 173.294067 248.382136 
L 173.294067 247.85545 
L 173.995148 247.85545 
L 173.995148 247.328764 
L 174.109302 247.328764 
L 174.109302 246.802078 
L 174.296472 246.802078 
L 174.37854 245.748706 
L 174.52444 245.748706 
L 174.52444 244.695334 
L 174.892309 244.695334 
L 174.892309 244.168648 
L 175.046437 244.168648 
L 175.079583 243.115275 
L 178.625736 243.115275 
L 178.736847 242.061903 
L 178.98346 242.061903 
L 178.98346 241.535217 
L 179.200509 241.535217 
L 179.27877 240.481845 
L 179.521099 240.481845 
L 179.521099 239.955159 
L 179.639418 239.955159 
L 179.741105 238.901787 
L 180.129636 238.901787 
L 180.129636 238.375101 
L 181.047069 238.375101 
L 181.047069 237.848415 
L 181.659442 237.848415 
L 181.659442 236.795043 
L 183.047467 236.795043 
L 183.047467 235.74167 
L 184.751736 235.74167 
L 184.751736 235.214984 
L 185.507707 235.214984 
L 185.507707 234.688298 
L 186.282419 234.688298 
L 186.282419 234.161612 
L 187.169641 234.161612 
L 187.169641 233.634926 
L 187.358999 233.634926 
L 187.358999 233.10824 
L 187.966519 233.10824 
L 188.043453 232.054868 
L 188.246966 232.054868 
L 188.334293 231.001496 
L 189.141873 231.001496 
L 189.171418 229.948123 
L 189.961379 229.948123 
L 189.961379 229.421437 
L 191.195103 229.421437 
L 191.195103 228.894751 
L 191.438191 228.894751 
L 191.438191 228.368065 
L 191.816415 228.368065 
L 191.816415 227.841379 
L 194.068045 227.841379 
L 194.068045 227.314693 
L 194.868677 227.314693 
L 194.868677 226.788007 
L 195.354263 226.788007 
L 195.45364 225.207949 
L 195.516586 225.207949 
L 195.516586 224.681263 
L 196.190701 224.681263 
L 196.190701 224.154577 
L 196.553307 224.154577 
L 196.553307 223.627891 
L 197.822984 223.627891 
L 197.822984 223.101204 
L 198.024041 223.101204 
L 198.024041 222.574518 
L 198.197534 222.574518 
L 198.197534 222.047832 
L 198.334443 222.047832 
L 198.334443 221.521146 
L 200.478329 221.521146 
L 200.478329 220.99446 
L 200.89492 220.99446 
L 200.89492 220.467774 
L 201.407303 220.467774 
L 201.407303 219.941088 
L 201.937923 219.941088 
L 201.953887 218.887716 
L 202.325771 218.887716 
L 202.325771 218.36103 
L 202.991519 218.36103 
L 202.991519 217.834344 
L 203.789083 217.834344 
L 203.789083 217.307658 
L 204.302514 217.307658 
L 204.332705 216.254285 
L 205.248751 216.254285 
L 205.248751 215.727599 
L 206.096016 215.727599 
L 206.096016 215.200913 
L 206.422214 215.200913 
L 206.422214 214.674227 
L 206.69858 214.674227 
L 206.69858 214.147541 
L 206.831117 214.147541 
L 206.932694 213.094169 
L 208.052702 213.094169 
L 208.052702 212.567483 
L 208.975192 212.567483 
L 208.975192 212.040797 
L 209.248638 212.040797 
L 209.277204 210.987425 
L 210.190702 210.987425 
L 210.190702 210.460738 
L 210.749903 210.460738 
L 210.749903 209.934052 
L 211.62889 209.934052 
L 211.72635 208.88068 
L 212.296516 208.88068 
L 212.296516 208.353994 
L 213.369982 208.353994 
L 213.369982 207.827308 
L 213.737379 207.827308 
L 213.737379 207.300622 
L 213.892304 207.300622 
L 213.892304 206.773936 
L 215.267269 206.773936 
L 215.267269 206.24725 
L 215.487337 206.24725 
L 215.487337 205.720564 
L 215.628744 205.720564 
L 215.628744 205.193878 
L 216.523262 205.193878 
L 216.523262 204.667192 
L 217.274247 204.667192 
L 217.325727 203.613819 
L 217.892867 203.613819 
L 217.892867 203.087133 
L 218.13465 203.087133 
L 218.13465 202.560447 
L 218.504026 202.560447 
L 218.504026 202.033761 
L 218.80884 202.033761 
L 218.80884 201.507075 
L 220.227023 201.507075 
L 220.227023 200.980389 
L 222.681138 200.980389 
L 222.690858 199.927017 
L 223.181388 199.927017 
L 223.181388 199.400331 
L 223.669985 199.400331 
L 223.669985 198.873645 
L 223.920568 198.873645 
L 223.920568 198.346959 
L 226.096367 198.346959 
L 226.096367 197.820273 
L 227.395496 197.820273 
L 227.395496 197.293586 
L 228.098405 197.293586 
L 228.098405 196.7669 
L 229.135392 196.7669 
L 229.135392 196.240214 
L 230.047017 196.240214 
L 230.047017 195.713528 
L 230.860538 195.713528 
L 230.860538 195.186842 
L 231.639248 195.186842 
L 231.639248 194.660156 
L 231.837201 194.660156 
L 231.837201 194.13347 
L 232.233052 194.13347 
L 232.233052 193.606784 
L 232.72034 193.606784 
L 232.72034 193.080098 
L 232.875325 193.080098 
L 232.875325 192.553412 
L 233.539181 192.553412 
L 233.539181 192.026726 
L 234.609314 192.026726 
L 234.609314 191.50004 
L 237.441654 191.50004 
L 237.508606 190.446667 
L 238.091513 190.446667 
L 238.091513 189.919981 
L 238.735458 189.919981 
L 238.735458 189.393295 
L 239.4674 189.393295 
L 239.4674 188.866609 
L 240.365425 188.866609 
L 240.365425 188.339923 
L 240.498941 188.339923 
L 240.498941 187.813237 
L 241.238391 187.813237 
L 241.238391 187.286551 
L 241.929764 187.286551 
L 241.929764 186.759865 
L 244.321666 186.759865 
L 244.326194 185.706493 
L 246.632446 185.706493 
L 246.632446 185.179807 
L 249.400273 185.179807 
L 249.400273 184.653121 
L 252.776555 184.653121 
L 252.776555 184.126434 
L 254.132514 184.126434 
L 254.132514 183.599748 
L 261.998433 183.599748 
L 261.998433 183.073062 
L 338.688 183.073062 
L 338.688 183.073062 
" style="fill:none;stroke:#ff00ff;stroke-linecap:square;stroke-width:1.5;"/>
   </g>
   <g id="line2d_41">
    <defs>
     <path d="M -0 8.485281 
L 5.091169 0 
L 0 -8.485281 
L -5.091169 -0 
z
" id="m3438632a5d" style="stroke:#ff00ff;stroke-linejoin:miter;stroke-width:1.5;"/>
    </defs>
    <g>
     <use style="fill-opacity:0;stroke:#ff00ff;stroke-linejoin:miter;stroke-width:1.5;" x="121.400219" xlink:href="#m3438632a5d" y="276.823185"/>
     <use style="fill-opacity:0;stroke:#ff00ff;stroke-linejoin:miter;stroke-width:1.5;" x="188.334293" xlink:href="#m3438632a5d" y="231.001496"/>
     <use style="fill-opacity:0;stroke:#ff00ff;stroke-linejoin:miter;stroke-width:1.5;" x="241.929764" xlink:href="#m3438632a5d" y="187.286551"/>
     <use style="fill-opacity:0;stroke:#ff00ff;stroke-linejoin:miter;stroke-width:1.5;" x="261.998433" xlink:href="#m3438632a5d" y="183.073062"/>
     <use style="fill-opacity:0;stroke:#ff00ff;stroke-linejoin:miter;stroke-width:1.5;" x="261.998433" xlink:href="#m3438632a5d" y="183.073062"/>
     <use style="fill-opacity:0;stroke:#ff00ff;stroke-linejoin:miter;stroke-width:1.5;" x="338.688" xlink:href="#m3438632a5d" y="183.073062"/>
    </g>
   </g>
   <g id="line2d_42">
    <path style="fill:none;stroke:#ff00ff;stroke-linecap:square;stroke-width:1.5;"/>
    <g/>
   </g>
   <g id="line2d_43">
    <path clip-path="url(#p699da967c9)" d="M 178.038361 243.115275 
" style="fill:none;stroke:#ff00ff;stroke-linecap:square;stroke-width:1.5;"/>
    <defs>
     <path d="M -12 12 
L 12 -12 
M -12 -12 
L 12 12 
" id="m6328b28d1e" style="stroke:#ff00ff;"/>
    </defs>
    <g clip-path="url(#p699da967c9)">
     <use style="fill:#ff00ff;stroke:#ff00ff;" x="178.038361" xlink:href="#m6328b28d1e" y="243.115275"/>
    </g>
   </g>
   <g id="line2d_44">
    <defs>
     <path d="M 0 1.5 
C 0.397805 1.5 0.77937 1.341951 1.06066 1.06066 
C 1.341951 0.77937 1.5 0.397805 1.5 0 
C 1.5 -0.397805 1.341951 -0.77937 1.06066 -1.06066 
C 0.77937 -1.341951 0.397805 -1.5 0 -1.5 
C -0.397805 -1.5 -0.77937 -1.341951 -1.06066 -1.06066 
C -1.341951 -0.77937 -1.5 -0.397805 -1.5 0 
C -1.5 0.397805 -1.341951 0.77937 -1.06066 1.06066 
C -0.77937 1.341951 -0.397805 1.5 0 1.5 
z
" id="m51824e9b07" style="stroke:#ff7500;"/>
    </defs>
    <g>
     <use style="fill:#ff7500;stroke:#ff7500;" x="235.484953" xlink:href="#m51824e9b07" y="193.606784"/>
     <use style="fill:#ff7500;stroke:#ff7500;" x="235.484953" xlink:href="#m51824e9b07" y="193.606784"/>
    </g>
   </g>
   <g id="line2d_45">
    <path d="M 29.53256 298.944 
L 29.53256 296.31057 
L 48.691568 296.31057 
L 48.691568 295.257197 
L 53.708537 295.257197 
L 53.708537 294.203825 
L 57.6 294.203825 
L 57.6 293.677139 
L 60.779557 293.677139 
L 60.779557 291.570395 
L 67.850577 291.570395 
L 67.850577 290.517023 
L 71.35013 290.517023 
L 71.35013 288.936964 
L 72.867545 288.936964 
L 72.867545 287.883592 
L 74.263433 287.883592 
L 74.263433 286.83022 
L 75.555822 286.83022 
L 75.555822 286.303534 
L 76.759008 286.303534 
L 76.759008 285.250162 
L 77.884514 285.250162 
L 77.884514 284.723476 
L 85.66744 284.723476 
L 85.66744 284.19679 
L 91.535274 284.19679 
L 91.535274 283.143418 
L 94.714831 283.143418 
L 94.714831 282.616732 
L 95.526106 282.616732 
L 95.526106 282.090045 
L 97.403108 282.090045 
L 97.403108 281.563359 
L 100.343767 281.563359 
L 100.343767 281.036673 
L 103.372333 281.036673 
L 103.372333 280.509987 
L 105.732589 280.509987 
L 105.732589 279.983301 
L 112.431755 279.983301 
L 112.431755 279.456615 
L 113.453595 279.456615 
L 113.453595 278.929929 
L 113.594805 278.929929 
L 113.594805 278.403243 
L 114.418861 278.403243 
L 114.418861 277.876557 
L 114.947365 277.876557 
L 114.947365 276.823185 
L 115.835374 276.823185 
L 115.835374 276.296499 
L 116.323218 276.296499 
L 116.323218 275.769812 
L 119.199476 275.769812 
L 119.199476 274.71644 
L 119.89914 274.71644 
L 119.89914 274.189754 
L 121.036887 274.189754 
L 121.128432 273.136382 
L 122.018385 273.136382 
L 122.018385 272.08301 
L 122.191052 272.08301 
L 122.191052 271.556324 
L 123.829748 271.556324 
L 123.829748 271.029638 
L 124.965026 271.029638 
L 124.965026 270.502952 
L 125.110962 270.502952 
L 125.110962 269.976266 
L 129.06046 269.976266 
L 129.06046 269.449579 
L 129.853291 269.449579 
L 129.853291 268.922893 
L 131.133813 268.922893 
L 131.236397 267.342835 
L 132.659801 267.342835 
L 132.659801 266.816149 
L 135.199312 266.816149 
L 135.199312 266.289463 
L 137.343676 266.289463 
L 137.343676 265.236091 
L 137.48721 265.236091 
L 137.48721 264.709405 
L 138.594838 264.709405 
L 138.594838 264.182719 
L 142.024126 264.182719 
L 142.024126 263.656033 
L 142.432559 263.656033 
L 142.432559 263.129347 
L 143.298796 263.129347 
L 143.298796 262.60266 
L 144.099593 262.60266 
L 144.197155 261.022602 
L 144.366588 261.022602 
L 144.366588 260.495916 
L 145.074639 260.495916 
L 145.074639 259.96923 
L 145.327221 259.96923 
L 145.327221 258.915858 
L 146.367029 258.915858 
L 146.367029 258.389172 
L 146.495417 258.389172 
L 146.495417 257.862486 
L 147.144103 257.862486 
L 147.144103 257.3358 
L 147.266916 257.3358 
L 147.266916 256.809114 
L 147.96658 256.809114 
L 147.96658 256.282427 
L 148.354135 256.282427 
L 148.354135 255.755741 
L 148.525764 255.755741 
L 148.525764 255.229055 
L 148.695721 255.229055 
L 148.733265 254.175683 
L 148.919783 254.175683 
L 148.919783 253.648997 
L 149.159312 253.648997 
L 149.159312 253.122311 
L 150.258492 253.122311 
L 150.258492 252.595625 
L 150.615623 252.595625 
L 150.615623 252.068939 
L 150.91602 252.068939 
L 150.91602 251.542253 
L 151.080698 251.542253 
L 151.080698 251.015567 
L 151.533692 251.015567 
L 151.533692 250.488881 
L 153.366312 250.488881 
L 153.366312 249.962195 
L 153.665645 249.962195 
L 153.665645 249.435508 
L 153.890309 249.435508 
L 153.890309 248.382136 
L 154.098334 248.382136 
L 154.098334 247.85545 
L 154.627867 247.85545 
L 154.627867 247.328764 
L 154.866947 247.328764 
L 154.945917 246.275392 
L 155.076745 246.275392 
L 155.076745 245.748706 
L 155.450689 245.748706 
L 155.450689 245.22202 
L 155.628383 245.22202 
L 155.628383 244.695334 
L 155.791779 244.695334 
L 155.791779 244.168648 
L 157.346685 244.168648 
L 157.346685 243.641962 
L 157.540141 243.641962 
L 157.540141 243.115275 
L 158.228039 243.115275 
L 158.228039 242.588589 
L 158.889829 242.588589 
L 158.889829 242.061903 
L 159.118749 242.061903 
L 159.118749 241.535217 
L 159.232092 241.535217 
L 159.232092 241.008531 
L 159.976013 241.008531 
L 159.976013 240.481845 
L 160.171742 240.481845 
L 160.171742 239.955159 
L 161.582595 239.955159 
L 161.582595 238.901787 
L 162.051921 238.901787 
L 162.051921 237.848415 
L 162.636148 237.848415 
L 162.636148 237.321729 
L 162.887802 237.321729 
L 162.887802 236.795043 
L 163.266752 236.795043 
L 163.266752 236.268356 
L 164.302897 236.268356 
L 164.387164 235.214984 
L 164.455807 235.214984 
L 164.455807 234.688298 
L 164.697709 234.688298 
L 164.77262 233.634926 
L 166.601807 233.634926 
L 166.642144 232.581554 
L 166.722541 232.581554 
L 166.722541 232.054868 
L 166.855717 232.054868 
L 166.855717 231.528182 
L 167.086355 231.528182 
L 167.086355 231.001496 
L 167.313982 231.001496 
L 167.313982 230.47481 
L 168.811464 230.47481 
L 168.811464 229.948123 
L 169.00019 229.948123 
L 169.00019 229.421437 
L 169.62247 229.421437 
L 169.62247 228.894751 
L 169.752173 228.894751 
L 169.752173 228.368065 
L 170.628703 228.368065 
L 170.628703 227.841379 
L 170.809423 227.841379 
L 170.809423 227.314693 
L 172.491742 227.314693 
L 172.558835 226.261321 
L 173.03536 226.261321 
L 173.03536 225.734635 
L 173.376414 225.734635 
L 173.481073 223.101204 
L 174.100548 223.101204 
L 174.100548 222.047832 
L 174.279146 222.047832 
L 174.313782 220.99446 
L 174.950788 220.99446 
L 174.950788 220.467774 
L 175.145688 220.467774 
L 175.145688 219.941088 
L 175.637655 219.941088 
L 175.637655 219.414402 
L 175.753531 219.414402 
L 175.753531 218.887716 
L 176.065343 218.887716 
L 176.065343 218.36103 
L 176.417742 218.36103 
L 176.417742 217.834344 
L 178.034867 217.834344 
L 178.034867 217.307658 
L 183.356641 217.307658 
L 183.408069 216.254285 
L 185.347629 216.254285 
L 185.347629 215.727599 
L 185.883777 215.727599 
L 185.883777 215.200913 
L 186.488061 215.200913 
L 186.488061 214.674227 
L 186.829016 214.674227 
L 186.829016 214.147541 
L 187.617063 214.147541 
L 187.617063 213.620855 
L 187.966519 213.620855 
L 188.029669 212.567483 
L 188.283891 212.567483 
L 188.283891 212.040797 
L 189.036208 212.040797 
L 189.036208 211.514111 
L 189.349475 211.514111 
L 189.349475 210.987425 
L 189.91724 210.987425 
L 189.91724 210.460738 
L 193.469907 210.460738 
L 193.469907 209.934052 
L 193.777208 209.934052 
L 193.777208 209.407366 
L 194.838041 209.407366 
L 194.838041 208.88068 
L 195.575473 208.88068 
L 195.575473 208.353994 
L 195.797697 208.353994 
L 195.797697 207.827308 
L 196.247358 207.827308 
L 196.247358 207.300622 
L 196.487937 207.300622 
L 196.487937 206.773936 
L 196.692909 206.773936 
L 196.692909 206.24725 
L 201.844505 206.24725 
L 201.844505 205.720564 
L 205.308094 205.720564 
L 205.308094 205.193878 
L 205.695063 205.193878 
L 205.695063 204.667192 
L 205.816249 204.667192 
L 205.913301 203.613819 
L 208.627999 203.613819 
L 208.627999 202.560447 
L 208.831168 202.560447 
L 208.831168 202.033761 
L 208.948501 202.033761 
L 209.049122 200.980389 
L 210.761142 200.980389 
L 210.761142 200.453703 
L 211.018177 200.453703 
L 211.018177 199.927017 
L 213.82287 199.927017 
L 213.82287 199.400331 
L 215.930452 199.400331 
L 215.930452 198.873645 
L 217.539212 198.873645 
L 217.539212 198.346959 
L 218.003762 198.346959 
L 218.003762 197.820273 
L 219.784008 197.820273 
L 219.784008 197.293586 
L 222.576299 197.293586 
L 222.576299 196.7669 
L 223.934147 196.7669 
L 223.934147 196.240214 
L 225.219569 196.240214 
L 225.219569 195.713528 
L 229.332197 195.713528 
L 229.332197 195.186842 
L 231.900196 195.186842 
L 231.900196 194.660156 
L 232.678524 194.660156 
L 232.678524 194.13347 
L 235.484953 194.13347 
L 235.484953 193.606784 
L 338.688 193.606784 
L 338.688 193.606784 
" style="fill:none;stroke:#ff7500;stroke-linecap:square;stroke-width:1.5;"/>
   </g>
   <g id="line2d_46">
    <defs>
     <path d="M 0 -6 
L -1.347084 -1.854102 
L -5.706339 -1.854102 
L -2.179628 0.708204 
L -3.526712 4.854102 
L -0 2.291796 
L 3.526712 4.854102 
L 2.179628 0.708204 
L 5.706339 -1.854102 
L 1.347084 -1.854102 
z
" id="m587e3ed6f2" style="stroke:#ff7500;stroke-linejoin:bevel;stroke-width:1.5;"/>
    </defs>
    <g>
     <use style="fill-opacity:0;stroke:#ff7500;stroke-linejoin:bevel;stroke-width:1.5;" x="91.535274" xlink:href="#m587e3ed6f2" y="284.19679"/>
     <use style="fill-opacity:0;stroke:#ff7500;stroke-linejoin:bevel;stroke-width:1.5;" x="149.159312" xlink:href="#m587e3ed6f2" y="253.648997"/>
     <use style="fill-opacity:0;stroke:#ff7500;stroke-linejoin:bevel;stroke-width:1.5;" x="201.844505" xlink:href="#m587e3ed6f2" y="205.720564"/>
     <use style="fill-opacity:0;stroke:#ff7500;stroke-linejoin:bevel;stroke-width:1.5;" x="235.484953" xlink:href="#m587e3ed6f2" y="194.13347"/>
     <use style="fill-opacity:0;stroke:#ff7500;stroke-linejoin:bevel;stroke-width:1.5;" x="235.484953" xlink:href="#m587e3ed6f2" y="193.606784"/>
     <use style="fill-opacity:0;stroke:#ff7500;stroke-linejoin:bevel;stroke-width:1.5;" x="338.688" xlink:href="#m587e3ed6f2" y="193.606784"/>
    </g>
   </g>
   <g id="line2d_47">
    <path style="fill:none;stroke:#ff7500;stroke-linecap:square;stroke-width:1.5;"/>
    <g/>
   </g>
   <g id="line2d_48">
    <path clip-path="url(#p699da967c9)" d="M 178.066286 217.307658 
" style="fill:none;stroke:#ff7500;stroke-linecap:square;stroke-width:1.5;"/>
    <defs>
     <path d="M -12 12 
L 12 -12 
M -12 -12 
L 12 12 
" id="md236e6a083" style="stroke:#ff7500;"/>
    </defs>
    <g clip-path="url(#p699da967c9)">
     <use style="fill:#ff7500;stroke:#ff7500;" x="178.066286" xlink:href="#md236e6a083" y="217.307658"/>
    </g>
   </g>
   <g id="line2d_49">
    <defs>
     <path d="M 0 1.5 
C 0.397805 1.5 0.77937 1.341951 1.06066 1.06066 
C 1.341951 0.77937 1.5 0.397805 1.5 0 
C 1.5 -0.397805 1.341951 -0.77937 1.06066 -1.06066 
C 0.77937 -1.341951 0.397805 -1.5 0 -1.5 
C -0.397805 -1.5 -0.77937 -1.341951 -1.06066 -1.06066 
C -1.341951 -0.77937 -1.5 -0.397805 -1.5 0 
C -1.5 0.397805 -1.341951 0.77937 -1.06066 1.06066 
C -0.77937 1.341951 -0.397805 1.5 0 1.5 
z
" id="mb445a0e05a" style="stroke:#6495ed;"/>
    </defs>
    <g>
     <use style="fill:#6495ed;stroke:#6495ed;" x="225.224705" xlink:href="#mb445a0e05a" y="193.606784"/>
     <use style="fill:#6495ed;stroke:#6495ed;" x="225.224705" xlink:href="#mb445a0e05a" y="193.606784"/>
    </g>
   </g>
   <g id="line2d_50">
    <path d="M 29.53256 298.944 
L 29.53256 296.837256 
L 48.691568 296.837256 
L 48.691568 295.257197 
L 53.708537 295.257197 
L 53.708537 294.203825 
L 60.779557 294.203825 
L 60.779557 292.623767 
L 63.467834 292.623767 
L 63.467834 292.097081 
L 67.850577 292.097081 
L 67.850577 291.570395 
L 69.687988 291.570395 
L 69.687988 291.043709 
L 71.35013 291.043709 
L 71.35013 289.990337 
L 72.867545 289.990337 
L 72.867545 288.410278 
L 74.263433 288.410278 
L 74.263433 287.356906 
L 75.555822 287.356906 
L 75.555822 286.83022 
L 76.759008 286.83022 
L 76.759008 285.250162 
L 77.884514 285.250162 
L 77.884514 284.723476 
L 81.775977 284.723476 
L 81.775977 284.19679 
L 85.66744 284.19679 
L 85.66744 283.670104 
L 87.009585 283.670104 
L 87.009585 283.143418 
L 91.029752 283.143418 
L 91.029752 282.616732 
L 91.535274 282.616732 
L 91.535274 281.563359 
L 97.755429 281.563359 
L 97.755429 281.036673 
L 98.100772 281.036673 
L 98.100772 280.509987 
L 98.43941 280.509987 
L 98.43941 279.983301 
L 99.097574 279.983301 
L 99.097574 279.456615 
L 101.223245 279.456615 
L 101.223245 278.929929 
L 102.060491 278.929929 
L 102.060491 278.403243 
L 103.117741 278.403243 
L 103.117741 277.876557 
L 104.826449 277.876557 
L 104.826449 277.349871 
L 108.764355 277.349871 
L 108.764355 276.823185 
L 112.877038 276.823185 
L 112.877038 276.296499 
L 114.816733 276.296499 
L 114.816733 275.769812 
L 115.205729 275.769812 
L 115.205729 275.243126 
L 115.33349 275.243126 
L 115.33349 274.71644 
L 115.835374 274.71644 
L 115.835374 273.663068 
L 117.598418 273.663068 
L 117.598418 273.136382 
L 122.104932 273.136382 
L 122.104932 272.609696 
L 122.699028 272.609696 
L 122.782271 271.556324 
L 124.062793 271.556324 
L 124.062793 271.029638 
L 124.216444 271.029638 
L 124.216444 270.502952 
L 125.183475 270.502952 
L 125.183475 269.976266 
L 127.799239 269.976266 
L 127.799239 269.449579 
L 128.411207 269.449579 
L 128.411207 268.396207 
L 129.002426 268.396207 
L 129.06046 267.342835 
L 129.51791 267.342835 
L 129.51791 266.816149 
L 130.45189 266.816149 
L 130.45189 266.289463 
L 131.640805 266.289463 
L 131.640805 265.762777 
L 132.470242 265.762777 
L 132.470242 265.236091 
L 132.70687 265.236091 
L 132.70687 263.656033 
L 133.032848 263.656033 
L 133.124876 262.60266 
L 133.711505 262.60266 
L 133.711505 262.075974 
L 134.149701 262.075974 
L 134.149701 261.549288 
L 135.839358 261.549288 
L 135.839358 261.022602 
L 136.266147 261.022602 
L 136.266147 260.495916 
L 137.415591 260.495916 
L 137.415591 259.96923 
L 138.153314 259.96923 
L 138.153314 259.442544 
L 139.413734 259.442544 
L 139.413734 258.915858 
L 140.073083 258.915858 
L 140.073083 258.389172 
L 142.405626 258.389172 
L 142.405626 257.862486 
L 143.298796 257.862486 
L 143.298796 257.3358 
L 143.60342 257.3358 
L 143.60342 256.809114 
L 143.902815 256.809114 
L 143.976867 255.755741 
L 144.653267 255.755741 
L 144.653267 255.229055 
L 144.91198 255.229055 
L 144.91198 254.702369 
L 145.304409 254.702369 
L 145.304409 254.175683 
L 145.440832 254.175683 
L 145.440832 253.648997 
L 145.598655 253.648997 
L 145.598655 253.122311 
L 146.40993 253.122311 
L 146.40993 252.595625 
L 147.78933 252.595625 
L 147.78933 252.068939 
L 148.695721 252.068939 
L 148.695721 251.542253 
L 150.085825 251.542253 
L 150.120495 248.908822 
L 150.816462 248.908822 
L 150.816462 248.382136 
L 151.146137 248.382136 
L 151.146137 247.85545 
L 151.897188 247.85545 
L 151.897188 247.328764 
L 152.781537 247.328764 
L 152.781537 246.802078 
L 155.063706 246.802078 
L 155.102793 245.748706 
L 155.488919 245.748706 
L 155.488919 245.22202 
L 155.703987 245.22202 
L 155.716556 244.168648 
L 155.916435 244.168648 
L 155.916435 243.641962 
L 156.126326 243.641962 
L 156.126326 243.115275 
L 156.729404 243.115275 
L 156.823991 242.061903 
L 157.44937 242.061903 
L 157.44937 241.535217 
L 157.697862 241.535217 
L 157.697862 241.008531 
L 158.868869 241.008531 
L 158.868869 240.481845 
L 159.577838 240.481845 
L 159.577838 239.955159 
L 160.288133 239.955159 
L 160.37492 238.901787 
L 160.518612 238.901787 
L 160.518612 238.375101 
L 161.654251 238.375101 
L 161.761186 237.321729 
L 162.929393 237.321729 
L 162.929393 236.795043 
L 164.973287 236.795043 
L 164.973287 236.268356 
L 165.288176 236.268356 
L 165.396698 234.688298 
L 165.547501 234.688298 
L 165.547501 234.161612 
L 166.709167 234.161612 
L 166.709167 233.634926 
L 166.822518 233.634926 
L 166.822518 233.10824 
L 167.301055 233.10824 
L 167.301055 232.581554 
L 167.564173 232.581554 
L 167.564173 232.054868 
L 167.728995 232.054868 
L 167.728995 231.001496 
L 168.769907 231.001496 
L 168.769907 230.47481 
L 169.163666 230.47481 
L 169.169476 229.421437 
L 169.633787 229.421437 
L 169.633787 228.894751 
L 169.763406 228.894751 
L 169.763406 228.368065 
L 170.086056 228.368065 
L 170.086056 227.841379 
L 170.354063 227.841379 
L 170.424481 226.788007 
L 170.526891 226.788007 
L 170.591263 225.734635 
L 170.946367 225.734635 
L 170.967341 224.154577 
L 171.149789 224.154577 
L 171.149789 223.627891 
L 171.422484 223.627891 
L 171.498894 221.521146 
L 172.62567 221.521146 
L 172.62567 220.99446 
L 172.768032 220.99446 
L 172.768032 220.467774 
L 173.3124 220.467774 
L 173.321559 219.414402 
L 173.634644 219.414402 
L 173.666095 218.36103 
L 174.065485 218.36103 
L 174.065485 217.834344 
L 174.37423 217.834344 
L 174.37423 217.307658 
L 174.65217 217.307658 
L 174.65217 216.780971 
L 174.921573 216.780971 
L 174.921573 216.254285 
L 175.083722 216.254285 
L 175.174531 214.674227 
L 175.456309 214.674227 
L 175.456309 214.147541 
L 175.833 214.147541 
L 175.833 213.620855 
L 176.045773 213.620855 
L 176.104418 212.567483 
L 176.213366 212.567483 
L 176.213366 212.040797 
L 176.3409 212.040797 
L 176.3409 211.514111 
L 176.672724 211.514111 
L 176.672724 210.987425 
L 177.016882 210.987425 
L 177.016882 209.934052 
L 177.59612 209.934052 
L 177.624761 208.353994 
L 181.266177 208.353994 
L 181.266177 207.827308 
L 185.589465 207.827308 
L 185.589465 207.300622 
L 187.177917 207.300622 
L 187.177917 206.773936 
L 188.268353 206.773936 
L 188.268353 206.24725 
L 188.40577 206.24725 
L 188.40577 205.720564 
L 188.766378 205.720564 
L 188.766378 205.193878 
L 189.455079 205.193878 
L 189.487724 202.560447 
L 189.637465 202.560447 
L 189.637465 200.980389 
L 195.164266 200.980389 
L 195.164266 200.453703 
L 196.595546 200.453703 
L 196.595546 199.927017 
L 196.882462 199.927017 
L 196.882462 199.400331 
L 197.069976 199.400331 
L 197.069976 198.873645 
L 201.912172 198.873645 
L 201.912172 197.820273 
L 206.046311 197.820273 
L 206.046311 197.293586 
L 209.240467 197.293586 
L 209.240467 196.7669 
L 214.096753 196.7669 
L 214.123685 195.713528 
L 219.764544 195.713528 
L 219.764544 195.186842 
L 221.364901 195.186842 
L 221.364901 194.660156 
L 222.718639 194.660156 
L 222.718639 194.13347 
L 225.224705 194.13347 
L 225.224705 193.606784 
L 338.688 193.606784 
L 338.688 193.606784 
" style="fill:none;stroke:#6495ed;stroke-linecap:square;stroke-width:1.5;"/>
   </g>
   <g id="line2d_51">
    <defs>
     <path d="M -0 6 
L 6 -6 
L -6 -6 
z
" id="ma85fc69d34" style="stroke:#6495ed;stroke-linejoin:miter;stroke-width:1.5;"/>
    </defs>
    <g>
     <use style="fill-opacity:0;stroke:#6495ed;stroke-linejoin:miter;stroke-width:1.5;" x="87.009585" xlink:href="#ma85fc69d34" y="283.143418"/>
     <use style="fill-opacity:0;stroke:#6495ed;stroke-linejoin:miter;stroke-width:1.5;" x="170.946367" xlink:href="#ma85fc69d34" y="225.207949"/>
     <use style="fill-opacity:0;stroke:#6495ed;stroke-linejoin:miter;stroke-width:1.5;" x="225.224705" xlink:href="#ma85fc69d34" y="194.13347"/>
     <use style="fill-opacity:0;stroke:#6495ed;stroke-linejoin:miter;stroke-width:1.5;" x="225.224705" xlink:href="#ma85fc69d34" y="193.606784"/>
     <use style="fill-opacity:0;stroke:#6495ed;stroke-linejoin:miter;stroke-width:1.5;" x="225.224705" xlink:href="#ma85fc69d34" y="193.606784"/>
     <use style="fill-opacity:0;stroke:#6495ed;stroke-linejoin:miter;stroke-width:1.5;" x="338.688" xlink:href="#ma85fc69d34" y="193.606784"/>
    </g>
   </g>
   <g id="line2d_52">
    <path style="fill:none;stroke:#6495ed;stroke-linecap:square;stroke-width:1.5;"/>
    <g/>
   </g>
   <g id="line2d_53">
    <path clip-path="url(#p699da967c9)" d="M 178.066286 208.353994 
" style="fill:none;stroke:#6495ed;stroke-linecap:square;stroke-width:1.5;"/>
    <defs>
     <path d="M -12 12 
L 12 -12 
M -12 -12 
L 12 12 
" id="mb8db97c436" style="stroke:#6495ed;"/>
    </defs>
    <g clip-path="url(#p699da967c9)">
     <use style="fill:#6495ed;stroke:#6495ed;" x="178.066286" xlink:href="#mb8db97c436" y="208.353994"/>
    </g>
   </g>
   <g id="line2d_54">
    <defs>
     <path d="M 0 1.5 
C 0.397805 1.5 0.77937 1.341951 1.06066 1.06066 
C 1.341951 0.77937 1.5 0.397805 1.5 0 
C 1.5 -0.397805 1.341951 -0.77937 1.06066 -1.06066 
C 0.77937 -1.341951 0.397805 -1.5 0 -1.5 
C -0.397805 -1.5 -0.77937 -1.341951 -1.06066 -1.06066 
C -1.341951 -0.77937 -1.5 -0.397805 -1.5 0 
C -1.5 0.397805 -1.341951 0.77937 -1.06066 1.06066 
C -0.77937 1.341951 -0.397805 1.5 0 1.5 
z
" id="m110a27ea2c" style="stroke:#ff0000;"/>
    </defs>
    <g>
     <use style="fill:#ff0000;stroke:#ff0000;" x="250.770225" xlink:href="#m110a27ea2c" y="209.407366"/>
     <use style="fill:#ff0000;stroke:#ff0000;" x="250.770225" xlink:href="#m110a27ea2c" y="209.407366"/>
    </g>
   </g>
   <g id="line2d_55">
    <path d="M 29.53256 298.944 
L 29.53256 296.837256 
L 48.691568 296.837256 
L 48.691568 295.783884 
L 53.708537 295.783884 
L 53.708537 294.203825 
L 57.6 294.203825 
L 57.6 293.677139 
L 60.779557 293.677139 
L 60.779557 292.097081 
L 63.467834 292.097081 
L 63.467834 291.570395 
L 67.850577 291.570395 
L 67.850577 290.517023 
L 69.687988 290.517023 
L 69.687988 289.463651 
L 71.35013 289.463651 
L 71.35013 287.883592 
L 72.867545 287.883592 
L 72.867545 286.83022 
L 74.263433 286.83022 
L 74.263433 286.303534 
L 76.759008 286.303534 
L 76.759008 285.250162 
L 77.884514 285.250162 
L 77.884514 284.723476 
L 85.66744 284.723476 
L 85.66744 284.19679 
L 91.535274 284.19679 
L 91.535274 283.670104 
L 97.403108 283.670104 
L 97.403108 283.143418 
L 97.755429 283.143418 
L 97.755429 282.616732 
L 98.43941 282.616732 
L 98.43941 282.090045 
L 100.040467 282.090045 
L 100.040467 281.563359 
L 101.223245 281.563359 
L 101.223245 280.509987 
L 101.785851 280.509987 
L 101.785851 279.983301 
L 104.826449 279.983301 
L 104.826449 278.929929 
L 105.51043 278.929929 
L 105.51043 278.403243 
L 105.951954 278.403243 
L 105.951954 277.876557 
L 107.811151 277.876557 
L 107.811151 277.349871 
L 108.389302 277.349871 
L 108.389302 276.823185 
L 110.188761 276.823185 
L 110.188761 276.296499 
L 110.527398 276.296499 
L 110.527398 275.769812 
L 111.974805 275.769812 
L 111.974805 275.243126 
L 112.280765 275.243126 
L 112.280765 274.71644 
L 113.022974 274.71644 
L 113.022974 274.189754 
L 113.167699 274.189754 
L 113.167699 273.663068 
L 116.562116 273.663068 
L 116.562116 273.136382 
L 116.797786 273.136382 
L 116.797786 272.609696 
L 117.930605 272.609696 
L 117.930605 272.08301 
L 118.256582 272.08301 
L 118.256582 271.556324 
L 119.097192 271.556324 
L 119.097192 271.029638 
L 120.665825 271.029638 
L 120.665825 270.502952 
L 123.672636 270.502952 
L 123.672636 269.976266 
L 125.183475 269.976266 
L 125.183475 269.449579 
L 125.892487 269.449579 
L 125.892487 268.922893 
L 126.168212 268.922893 
L 126.168212 268.396207 
L 126.573795 268.396207 
L 126.573795 267.869521 
L 128.229861 267.869521 
L 128.229861 267.342835 
L 128.590686 267.342835 
L 128.590686 266.816149 
L 129.233413 266.816149 
L 129.233413 266.289463 
L 129.46138 266.289463 
L 129.46138 265.236091 
L 130.344571 265.236091 
L 130.344571 264.709405 
L 130.822389 264.709405 
L 130.822389 264.182719 
L 132.326708 264.182719 
L 132.326708 263.656033 
L 132.70687 263.656033 
L 132.70687 263.129347 
L 133.170708 263.129347 
L 133.216421 261.549288 
L 134.911732 261.549288 
L 134.911732 261.022602 
L 136.034648 261.022602 
L 136.034648 260.495916 
L 136.189322 260.495916 
L 136.189322 259.96923 
L 136.68274 259.96923 
L 136.68274 259.442544 
L 136.979586 259.442544 
L 136.979586 258.915858 
L 137.271464 258.915858 
L 137.271464 257.862486 
L 137.48721 257.862486 
L 137.48721 257.3358 
L 137.664982 257.3358 
L 137.70032 256.282427 
L 139.02546 256.282427 
L 139.02546 255.755741 
L 140.256979 255.755741 
L 140.256979 255.229055 
L 140.378508 255.229055 
L 140.378508 254.702369 
L 141.605898 254.702369 
L 141.605898 254.175683 
L 143.170282 254.175683 
L 143.170282 253.648997 
L 143.324386 253.648997 
L 143.324386 253.122311 
L 143.75376 253.122311 
L 143.75376 252.595625 
L 144.390658 252.595625 
L 144.390658 252.068939 
L 146.495417 252.068939 
L 146.516724 250.488881 
L 148.142046 250.488881 
L 148.142046 249.962195 
L 149.159312 249.962195 
L 149.268764 248.908822 
L 149.413639 248.908822 
L 149.413639 248.382136 
L 149.593058 248.382136 
L 149.593058 247.328764 
L 150.982078 247.328764 
L 150.982078 246.802078 
L 151.405461 246.802078 
L 151.485716 245.748706 
L 151.660987 245.748706 
L 151.660987 245.22202 
L 155.653621 245.22202 
L 155.653621 244.695334 
L 156.163105 244.695334 
L 156.163105 244.168648 
L 158.444276 244.168648 
L 158.476481 243.115275 
L 159.405822 243.115275 
L 159.405822 242.588589 
L 162.576903 242.588589 
L 162.576903 242.061903 
L 162.921083 242.061903 
L 162.921083 241.008531 
L 163.388564 241.008531 
L 163.388564 240.481845 
L 163.533623 240.481845 
L 163.533623 239.955159 
L 166.124175 239.955159 
L 166.124175 239.428473 
L 166.459886 239.428473 
L 166.459886 238.901787 
L 168.632659 238.901787 
L 168.632659 238.375101 
L 169.064596 238.375101 
L 169.064596 237.848415 
L 169.858596 237.848415 
L 169.858596 237.321729 
L 170.370339 237.321729 
L 170.370339 236.795043 
L 170.532264 236.795043 
L 170.532264 236.268356 
L 172.405099 236.268356 
L 172.405099 235.74167 
L 173.021392 235.74167 
L 173.021392 235.214984 
L 178.703252 235.214984 
L 178.703252 234.688298 
L 179.350203 234.688298 
L 179.350203 234.161612 
L 179.690336 234.161612 
L 179.690336 233.634926 
L 179.967756 233.634926 
L 180.008367 232.581554 
L 180.708662 232.581554 
L 180.708662 232.054868 
L 181.126265 232.054868 
L 181.178864 231.001496 
L 181.413613 231.001496 
L 181.502625 229.948123 
L 181.534102 229.948123 
L 181.534102 229.421437 
L 182.828533 229.421437 
L 182.828533 228.894751 
L 182.976549 228.894751 
L 182.976549 228.368065 
L 184.07555 228.368065 
L 184.176576 225.734635 
L 184.316062 225.734635 
L 184.316062 225.207949 
L 186.790989 225.207949 
L 186.790989 224.681263 
L 190.99351 224.681263 
L 190.99351 224.154577 
L 191.655551 224.154577 
L 191.655551 223.627891 
L 192.394893 223.627891 
L 192.394893 223.101204 
L 192.91465 223.101204 
L 192.91465 222.574518 
L 193.475673 222.574518 
L 193.475673 222.047832 
L 194.075011 222.047832 
L 194.075011 221.521146 
L 194.675976 221.521146 
L 194.675976 220.99446 
L 195.534529 220.99446 
L 195.534529 220.467774 
L 195.700267 220.467774 
L 195.700267 219.941088 
L 198.413903 219.941088 
L 198.413903 219.414402 
L 199.113207 219.414402 
L 199.113207 218.887716 
L 199.983189 218.887716 
L 199.983189 218.36103 
L 203.175975 218.36103 
L 203.254317 217.307658 
L 204.312583 217.307658 
L 204.312583 216.780971 
L 204.865145 216.780971 
L 204.865145 215.727599 
L 205.139058 215.727599 
L 205.139058 215.200913 
L 208.262644 215.200913 
L 208.262644 214.674227 
L 210.191808 214.674227 
L 210.191808 214.147541 
L 211.104943 214.147541 
L 211.104943 213.620855 
L 213.214509 213.620855 
L 213.214509 213.094169 
L 217.588109 213.094169 
L 217.598956 212.040797 
L 219.308811 212.040797 
L 219.308811 211.514111 
L 222.3201 211.514111 
L 222.3201 210.460738 
L 229.084579 210.460738 
L 229.084579 209.934052 
L 250.770225 209.934052 
L 250.770225 209.407366 
L 338.688 209.407366 
L 338.688 209.407366 
" style="fill:none;stroke:#ff0000;stroke-linecap:square;stroke-width:1.5;"/>
   </g>
   <g id="line2d_56">
    <defs>
     <path d="M 0 -6 
L -5.196152 -3 
L -5.196152 3 
L -0 6 
L 5.196152 3 
L 5.196152 -3 
z
" id="md2c85a48e2" style="stroke:#ff0000;stroke-linejoin:miter;stroke-width:1.5;"/>
    </defs>
    <g>
     <use style="fill-opacity:0;stroke:#ff0000;stroke-linejoin:miter;stroke-width:1.5;" x="140.256979" xlink:href="#md2c85a48e2" y="255.229055"/>
     <use style="fill-opacity:0;stroke:#ff0000;stroke-linejoin:miter;stroke-width:1.5;" x="186.790989" xlink:href="#md2c85a48e2" y="224.681263"/>
     <use style="fill-opacity:0;stroke:#ff0000;stroke-linejoin:miter;stroke-width:1.5;" x="250.770225" xlink:href="#md2c85a48e2" y="209.934052"/>
     <use style="fill-opacity:0;stroke:#ff0000;stroke-linejoin:miter;stroke-width:1.5;" x="250.770225" xlink:href="#md2c85a48e2" y="209.407366"/>
     <use style="fill-opacity:0;stroke:#ff0000;stroke-linejoin:miter;stroke-width:1.5;" x="338.688" xlink:href="#md2c85a48e2" y="209.407366"/>
    </g>
   </g>
   <g id="line2d_57">
    <path style="fill:none;stroke:#ff0000;stroke-linecap:square;stroke-width:1.5;"/>
    <g/>
   </g>
   <g id="line2d_58">
    <path clip-path="url(#p699da967c9)" d="M 178.066286 235.214984 
" style="fill:none;stroke:#ff0000;stroke-linecap:square;stroke-width:1.5;"/>
    <defs>
     <path d="M -12 12 
L 12 -12 
M -12 -12 
L 12 12 
" id="m23858cf74d" style="stroke:#ff0000;"/>
    </defs>
    <g clip-path="url(#p699da967c9)">
     <use style="fill:#ff0000;stroke:#ff0000;" x="178.066286" xlink:href="#m23858cf74d" y="235.214984"/>
    </g>
   </g>
   <g id="line2d_59">
    <path d="M 338.688 262.075974 
L 369.60768 293.571802 
" style="fill:none;stroke:#000080;stroke-linecap:square;stroke-width:1.5;"/>
    <g>
     <use style="fill-opacity:0;stroke:#000080;stroke-width:1.5;" x="338.688" xlink:href="#mc0f9e98a6d" y="262.075974"/>
     <use style="fill-opacity:0;stroke:#000080;stroke-width:1.5;" x="369.60768" xlink:href="#mc0f9e98a6d" y="293.571802"/>
    </g>
   </g>
   <g id="line2d_60">
    <path d="M 338.688 209.407366 
L 369.60768 241.998701 
" style="fill:none;stroke:#ff0000;stroke-linecap:square;stroke-width:1.5;"/>
    <g>
     <use style="fill-opacity:0;stroke:#ff0000;stroke-linejoin:miter;stroke-width:1.5;" x="338.688" xlink:href="#md2c85a48e2" y="209.407366"/>
     <use style="fill-opacity:0;stroke:#ff0000;stroke-linejoin:miter;stroke-width:1.5;" x="369.60768" xlink:href="#md2c85a48e2" y="241.998701"/>
    </g>
   </g>
   <g id="line2d_61">
    <path d="M 338.688 193.606784 
L 369.60768 190.4256 
" style="fill:none;stroke:#ff7500;stroke-linecap:square;stroke-width:1.5;"/>
    <g>
     <use style="fill-opacity:0;stroke:#ff7500;stroke-linejoin:bevel;stroke-width:1.5;" x="338.688" xlink:href="#m587e3ed6f2" y="193.606784"/>
     <use style="fill-opacity:0;stroke:#ff7500;stroke-linejoin:bevel;stroke-width:1.5;" x="369.60768" xlink:href="#m587e3ed6f2" y="190.4256"/>
    </g>
   </g>
   <g id="line2d_62">
    <path d="M 338.688 193.606784 
L 369.60768 138.852499 
" style="fill:none;stroke:#6495ed;stroke-linecap:square;stroke-width:1.5;"/>
    <g>
     <use style="fill-opacity:0;stroke:#6495ed;stroke-linejoin:miter;stroke-width:1.5;" x="338.688" xlink:href="#ma85fc69d34" y="193.606784"/>
     <use style="fill-opacity:0;stroke:#6495ed;stroke-linejoin:miter;stroke-width:1.5;" x="369.60768" xlink:href="#ma85fc69d34" y="138.852499"/>
    </g>
   </g>
   <g id="line2d_63">
    <path d="M 338.688 183.073062 
L 369.60768 87.279398 
" style="fill:none;stroke:#ff00ff;stroke-linecap:square;stroke-width:1.5;"/>
    <g>
     <use style="fill-opacity:0;stroke:#ff00ff;stroke-linejoin:miter;stroke-width:1.5;" x="338.688" xlink:href="#m3438632a5d" y="183.073062"/>
     <use style="fill-opacity:0;stroke:#ff00ff;stroke-linejoin:miter;stroke-width:1.5;" x="369.60768" xlink:href="#m3438632a5d" y="87.279398"/>
    </g>
   </g>
   <g id="line2d_64">
    <path d="M 338.688 298.944 
L 338.688 30.334099 
" style="fill:none;stroke:#000000;stroke-linecap:square;stroke-width:1.5;"/>
   </g>
   <g id="patch_3">
    <path d="M 57.6 298.944 
L 57.6 27.648 
" style="fill:none;stroke:#000000;stroke-linecap:square;stroke-linejoin:miter;stroke-width:0.8;"/>
   </g>
   <g id="patch_4">
    <path d="M 338.688 298.944 
L 338.688 27.648 
" style="fill:none;stroke:#000000;stroke-linecap:square;stroke-linejoin:miter;stroke-width:0.8;"/>
   </g>
   <g id="patch_5">
    <path d="M 57.6 298.944 
L 338.688 298.944 
" style="fill:none;stroke:#000000;stroke-linecap:square;stroke-linejoin:miter;stroke-width:0.8;"/>
   </g>
   <g id="patch_6">
    <path d="M 57.6 27.648 
L 338.688 27.648 
" style="fill:none;stroke:#000000;stroke-linecap:square;stroke-linejoin:miter;stroke-width:0.8;"/>
   </g>
   <g id="text_13">
    <!-- ABC -->
    <defs>
     <path d="M 34.1875 63.1875 
L 20.796875 26.90625 
L 47.609375 26.90625 
z
M 28.609375 72.90625 
L 39.796875 72.90625 
L 67.578125 0 
L 57.328125 0 
L 50.6875 18.703125 
L 17.828125 18.703125 
L 11.1875 0 
L 0.78125 0 
z
" id="DejaVuSans-65"/>
     <path d="M 19.671875 34.8125 
L 19.671875 8.109375 
L 35.5 8.109375 
Q 43.453125 8.109375 47.28125 11.40625 
Q 51.125 14.703125 51.125 21.484375 
Q 51.125 28.328125 47.28125 31.5625 
Q 43.453125 34.8125 35.5 34.8125 
z
M 19.671875 64.796875 
L 19.671875 42.828125 
L 34.28125 42.828125 
Q 41.5 42.828125 45.03125 45.53125 
Q 48.578125 48.25 48.578125 53.8125 
Q 48.578125 59.328125 45.03125 62.0625 
Q 41.5 64.796875 34.28125 64.796875 
z
M 9.8125 72.90625 
L 35.015625 72.90625 
Q 46.296875 72.90625 52.390625 68.21875 
Q 58.5 63.53125 58.5 54.890625 
Q 58.5 48.1875 55.375 44.234375 
Q 52.25 40.28125 46.1875 39.3125 
Q 53.46875 37.75 57.5 32.78125 
Q 61.53125 27.828125 61.53125 20.40625 
Q 61.53125 10.640625 54.890625 5.3125 
Q 48.25 0 35.984375 0 
L 9.8125 0 
z
" id="DejaVuSans-66"/>
     <path d="M 64.40625 67.28125 
L 64.40625 56.890625 
Q 59.421875 61.53125 53.78125 63.8125 
Q 48.140625 66.109375 41.796875 66.109375 
Q 29.296875 66.109375 22.65625 58.46875 
Q 16.015625 50.828125 16.015625 36.375 
Q 16.015625 21.96875 22.65625 14.328125 
Q 29.296875 6.6875 41.796875 6.6875 
Q 48.140625 6.6875 53.78125 8.984375 
Q 59.421875 11.28125 64.40625 15.921875 
L 64.40625 5.609375 
Q 59.234375 2.09375 53.4375 0.328125 
Q 47.65625 -1.421875 41.21875 -1.421875 
Q 24.65625 -1.421875 15.125 8.703125 
Q 5.609375 18.84375 5.609375 36.375 
Q 5.609375 53.953125 15.125 64.078125 
Q 24.65625 74.21875 41.21875 74.21875 
Q 47.75 74.21875 53.53125 72.484375 
Q 59.328125 70.75 64.40625 67.28125 
z
" id="DejaVuSans-67"/>
    </defs>
    <g transform="translate(375.22944 298.262739)scale(0.17 -0.17)">
     <use xlink:href="#DejaVuSans-65"/>
     <use x="68.408203" xlink:href="#DejaVuSans-66"/>
     <use x="135.261719" xlink:href="#DejaVuSans-67"/>
    </g>
   </g>
   <g id="text_14">
    <!-- PSO -->
    <defs>
     <path d="M 19.671875 64.796875 
L 19.671875 37.40625 
L 32.078125 37.40625 
Q 38.96875 37.40625 42.71875 40.96875 
Q 46.484375 44.53125 46.484375 51.125 
Q 46.484375 57.671875 42.71875 61.234375 
Q 38.96875 64.796875 32.078125 64.796875 
z
M 9.8125 72.90625 
L 32.078125 72.90625 
Q 44.34375 72.90625 50.609375 67.359375 
Q 56.890625 61.8125 56.890625 51.125 
Q 56.890625 40.328125 50.609375 34.8125 
Q 44.34375 29.296875 32.078125 29.296875 
L 19.671875 29.296875 
L 19.671875 0 
L 9.8125 0 
z
" id="DejaVuSans-80"/>
     <path d="M 53.515625 70.515625 
L 53.515625 60.890625 
Q 47.90625 63.578125 42.921875 64.890625 
Q 37.9375 66.21875 33.296875 66.21875 
Q 25.25 66.21875 20.875 63.09375 
Q 16.5 59.96875 16.5 54.203125 
Q 16.5 49.359375 19.40625 46.890625 
Q 22.3125 44.4375 30.421875 42.921875 
L 36.375 41.703125 
Q 47.40625 39.59375 52.65625 34.296875 
Q 57.90625 29 57.90625 20.125 
Q 57.90625 9.515625 50.796875 4.046875 
Q 43.703125 -1.421875 29.984375 -1.421875 
Q 24.8125 -1.421875 18.96875 -0.25 
Q 13.140625 0.921875 6.890625 3.21875 
L 6.890625 13.375 
Q 12.890625 10.015625 18.65625 8.296875 
Q 24.421875 6.59375 29.984375 6.59375 
Q 38.421875 6.59375 43.015625 9.90625 
Q 47.609375 13.234375 47.609375 19.390625 
Q 47.609375 24.75 44.3125 27.78125 
Q 41.015625 30.8125 33.5 32.328125 
L 27.484375 33.5 
Q 16.453125 35.6875 11.515625 40.375 
Q 6.59375 45.0625 6.59375 53.421875 
Q 6.59375 63.09375 13.40625 68.65625 
Q 20.21875 74.21875 32.171875 74.21875 
Q 37.3125 74.21875 42.625 73.28125 
Q 47.953125 72.359375 53.515625 70.515625 
z
" id="DejaVuSans-83"/>
     <path d="M 39.40625 66.21875 
Q 28.65625 66.21875 22.328125 58.203125 
Q 16.015625 50.203125 16.015625 36.375 
Q 16.015625 22.609375 22.328125 14.59375 
Q 28.65625 6.59375 39.40625 6.59375 
Q 50.140625 6.59375 56.421875 14.59375 
Q 62.703125 22.609375 62.703125 36.375 
Q 62.703125 50.203125 56.421875 58.203125 
Q 50.140625 66.21875 39.40625 66.21875 
z
M 39.40625 74.21875 
Q 54.734375 74.21875 63.90625 63.9375 
Q 73.09375 53.65625 73.09375 36.375 
Q 73.09375 19.140625 63.90625 8.859375 
Q 54.734375 -1.421875 39.40625 -1.421875 
Q 24.03125 -1.421875 14.8125 8.828125 
Q 5.609375 19.09375 5.609375 36.375 
Q 5.609375 53.65625 14.8125 63.9375 
Q 24.03125 74.21875 39.40625 74.21875 
z
" id="DejaVuSans-79"/>
    </defs>
    <g transform="translate(375.22944 246.689638)scale(0.17 -0.17)">
     <use xlink:href="#DejaVuSans-80"/>
     <use x="60.302734" xlink:href="#DejaVuSans-83"/>
     <use x="123.779297" xlink:href="#DejaVuSans-79"/>
    </g>
   </g>
   <g id="text_15">
    <!-- DE -->
    <defs>
     <path d="M 19.671875 64.796875 
L 19.671875 8.109375 
L 31.59375 8.109375 
Q 46.6875 8.109375 53.6875 14.9375 
Q 60.6875 21.78125 60.6875 36.53125 
Q 60.6875 51.171875 53.6875 57.984375 
Q 46.6875 64.796875 31.59375 64.796875 
z
M 9.8125 72.90625 
L 30.078125 72.90625 
Q 51.265625 72.90625 61.171875 64.09375 
Q 71.09375 55.28125 71.09375 36.53125 
Q 71.09375 17.671875 61.125 8.828125 
Q 51.171875 0 30.078125 0 
L 9.8125 0 
z
" id="DejaVuSans-68"/>
     <path d="M 9.8125 72.90625 
L 55.90625 72.90625 
L 55.90625 64.59375 
L 19.671875 64.59375 
L 19.671875 43.015625 
L 54.390625 43.015625 
L 54.390625 34.71875 
L 19.671875 34.71875 
L 19.671875 8.296875 
L 56.78125 8.296875 
L 56.78125 0 
L 9.8125 0 
z
" id="DejaVuSans-69"/>
    </defs>
    <g transform="translate(375.22944 195.116537)scale(0.17 -0.17)">
     <use xlink:href="#DejaVuSans-68"/>
     <use x="77.001953" xlink:href="#DejaVuSans-69"/>
    </g>
   </g>
   <g id="text_16">
    <!-- DEPSO -->
    <g transform="translate(375.22944 143.543437)scale(0.17 -0.17)">
     <use xlink:href="#DejaVuSans-68"/>
     <use x="77.001953" xlink:href="#DejaVuSans-69"/>
     <use x="140.185547" xlink:href="#DejaVuSans-80"/>
     <use x="200.488281" xlink:href="#DejaVuSans-83"/>
     <use x="263.964844" xlink:href="#DejaVuSans-79"/>
    </g>
   </g>
   <g id="text_17">
    <!-- CMA-ES -->
    <defs>
     <path d="M 9.8125 72.90625 
L 24.515625 72.90625 
L 43.109375 23.296875 
L 61.8125 72.90625 
L 76.515625 72.90625 
L 76.515625 0 
L 66.890625 0 
L 66.890625 64.015625 
L 48.09375 14.015625 
L 38.1875 14.015625 
L 19.390625 64.015625 
L 19.390625 0 
L 9.8125 0 
z
" id="DejaVuSans-77"/>
    </defs>
    <g transform="translate(375.22944 91.970336)scale(0.17 -0.17)">
     <use xlink:href="#DejaVuSans-67"/>
     <use x="69.824219" xlink:href="#DejaVuSans-77"/>
     <use x="156.103516" xlink:href="#DejaVuSans-65"/>
     <use x="222.261719" xlink:href="#DejaVuSans-45"/>
     <use x="258.345703" xlink:href="#DejaVuSans-69"/>
     <use x="321.529297" xlink:href="#DejaVuSans-83"/>
    </g>
   </g>
   <g id="text_18">
    <!-- best 2009 -->
    <defs>
     <path d="M 48.6875 27.296875 
Q 48.6875 37.203125 44.609375 42.84375 
Q 40.53125 48.484375 33.40625 48.484375 
Q 26.265625 48.484375 22.1875 42.84375 
Q 18.109375 37.203125 18.109375 27.296875 
Q 18.109375 17.390625 22.1875 11.75 
Q 26.265625 6.109375 33.40625 6.109375 
Q 40.53125 6.109375 44.609375 11.75 
Q 48.6875 17.390625 48.6875 27.296875 
z
M 18.109375 46.390625 
Q 20.953125 51.265625 25.265625 53.625 
Q 29.59375 56 35.59375 56 
Q 45.5625 56 51.78125 48.09375 
Q 58.015625 40.1875 58.015625 27.296875 
Q 58.015625 14.40625 51.78125 6.484375 
Q 45.5625 -1.421875 35.59375 -1.421875 
Q 29.59375 -1.421875 25.265625 0.953125 
Q 20.953125 3.328125 18.109375 8.203125 
L 18.109375 0 
L 9.078125 0 
L 9.078125 75.984375 
L 18.109375 75.984375 
z
" id="DejaVuSans-98"/>
     <path d="M 10.984375 1.515625 
L 10.984375 10.5 
Q 14.703125 8.734375 18.5 7.8125 
Q 22.3125 6.890625 25.984375 6.890625 
Q 35.75 6.890625 40.890625 13.453125 
Q 46.046875 20.015625 46.78125 33.40625 
Q 43.953125 29.203125 39.59375 26.953125 
Q 35.25 24.703125 29.984375 24.703125 
Q 19.046875 24.703125 12.671875 31.3125 
Q 6.296875 37.9375 6.296875 49.421875 
Q 6.296875 60.640625 12.9375 67.421875 
Q 19.578125 74.21875 30.609375 74.21875 
Q 43.265625 74.21875 49.921875 64.515625 
Q 56.59375 54.828125 56.59375 36.375 
Q 56.59375 19.140625 48.40625 8.859375 
Q 40.234375 -1.421875 26.421875 -1.421875 
Q 22.703125 -1.421875 18.890625 -0.6875 
Q 15.09375 0.046875 10.984375 1.515625 
z
M 30.609375 32.421875 
Q 37.25 32.421875 41.125 36.953125 
Q 45.015625 41.5 45.015625 49.421875 
Q 45.015625 57.28125 41.125 61.84375 
Q 37.25 66.40625 30.609375 66.40625 
Q 23.96875 66.40625 20.09375 61.84375 
Q 16.21875 57.28125 16.21875 49.421875 
Q 16.21875 41.5 20.09375 36.953125 
Q 23.96875 32.421875 30.609375 32.421875 
z
" id="DejaVuSans-57"/>
    </defs>
    <g transform="translate(375.22944 40.397235)scale(0.17 -0.17)">
     <use xlink:href="#DejaVuSans-98"/>
     <use x="63.476562" xlink:href="#DejaVuSans-101"/>
     <use x="125" xlink:href="#DejaVuSans-115"/>
     <use x="177.099609" xlink:href="#DejaVuSans-116"/>
     <use x="216.308594" xlink:href="#DejaVuSans-32"/>
     <use x="248.095703" xlink:href="#DejaVuSans-50"/>
     <use x="311.71875" xlink:href="#DejaVuSans-48"/>
     <use x="375.341797" xlink:href="#DejaVuSans-48"/>
     <use x="438.964844" xlink:href="#DejaVuSans-57"/>
    </g>
   </g>
   <g id="text_19">
    <!-- bbob f18, 5-D -->
    <defs>
     <path d="M 10.796875 72.90625 
L 49.515625 72.90625 
L 49.515625 64.59375 
L 19.828125 64.59375 
L 19.828125 46.734375 
Q 21.96875 47.46875 24.109375 47.828125 
Q 26.265625 48.1875 28.421875 48.1875 
Q 40.625 48.1875 47.75 41.5 
Q 54.890625 34.8125 54.890625 23.390625 
Q 54.890625 11.625 47.5625 5.09375 
Q 40.234375 -1.421875 26.90625 -1.421875 
Q 22.3125 -1.421875 17.546875 -0.640625 
Q 12.796875 0.140625 7.71875 1.703125 
L 7.71875 11.625 
Q 12.109375 9.234375 16.796875 8.0625 
Q 21.484375 6.890625 26.703125 6.890625 
Q 35.15625 6.890625 40.078125 11.328125 
Q 45.015625 15.765625 45.015625 23.390625 
Q 45.015625 31 40.078125 35.4375 
Q 35.15625 39.890625 26.703125 39.890625 
Q 22.75 39.890625 18.8125 39.015625 
Q 14.890625 38.140625 10.796875 36.28125 
z
" id="DejaVuSans-53"/>
    </defs>
    <g transform="translate(60.41088 38.111366)scale(0.102 -0.102)">
     <use xlink:href="#DejaVuSans-98"/>
     <use x="63.476562" xlink:href="#DejaVuSans-98"/>
     <use x="126.953125" xlink:href="#DejaVuSans-111"/>
     <use x="188.134766" xlink:href="#DejaVuSans-98"/>
     <use x="251.611328" xlink:href="#DejaVuSans-32"/>
     <use x="283.398438" xlink:href="#DejaVuSans-102"/>
     <use x="318.603516" xlink:href="#DejaVuSans-49"/>
     <use x="382.226562" xlink:href="#DejaVuSans-56"/>
     <use x="445.849609" xlink:href="#DejaVuSans-44"/>
     <use x="477.636719" xlink:href="#DejaVuSans-32"/>
     <use x="509.423828" xlink:href="#DejaVuSans-53"/>
     <use x="573.046875" xlink:href="#DejaVuSans-45"/>
     <use x="609.130859" xlink:href="#DejaVuSans-68"/>
    </g>
    <!-- 51 targets: 100..1e-08 -->
    <defs>
     <path d="M 11.71875 12.40625 
L 22.015625 12.40625 
L 22.015625 0 
L 11.71875 0 
z
M 11.71875 51.703125 
L 22.015625 51.703125 
L 22.015625 39.3125 
L 11.71875 39.3125 
z
" id="DejaVuSans-58"/>
    </defs>
    <g transform="translate(60.41088 49.533135)scale(0.102 -0.102)">
     <use xlink:href="#DejaVuSans-53"/>
     <use x="63.623047" xlink:href="#DejaVuSans-49"/>
     <use x="127.246094" xlink:href="#DejaVuSans-32"/>
     <use x="159.033203" xlink:href="#DejaVuSans-116"/>
     <use x="198.242188" xlink:href="#DejaVuSans-97"/>
     <use x="259.521484" xlink:href="#DejaVuSans-114"/>
     <use x="298.884766" xlink:href="#DejaVuSans-103"/>
     <use x="362.361328" xlink:href="#DejaVuSans-101"/>
     <use x="423.884766" xlink:href="#DejaVuSans-116"/>
     <use x="463.09375" xlink:href="#DejaVuSans-115"/>
     <use x="515.193359" xlink:href="#DejaVuSans-58"/>
     <use x="548.884766" xlink:href="#DejaVuSans-32"/>
     <use x="580.671875" xlink:href="#DejaVuSans-49"/>
     <use x="644.294922" xlink:href="#DejaVuSans-48"/>
     <use x="707.917969" xlink:href="#DejaVuSans-48"/>
     <use x="771.541016" xlink:href="#DejaVuSans-46"/>
     <use x="803.328125" xlink:href="#DejaVuSans-46"/>
     <use x="835.115234" xlink:href="#DejaVuSans-49"/>
     <use x="898.738281" xlink:href="#DejaVuSans-101"/>
     <use x="960.261719" xlink:href="#DejaVuSans-45"/>
     <use x="996.345703" xlink:href="#DejaVuSans-48"/>
     <use x="1059.96875" xlink:href="#DejaVuSans-56"/>
    </g>
    <!-- 24, 15 instances -->
    <g transform="translate(60.41088 60.954904)scale(0.102 -0.102)">
     <use xlink:href="#DejaVuSans-50"/>
     <use x="63.623047" xlink:href="#DejaVuSans-52"/>
     <use x="127.246094" xlink:href="#DejaVuSans-44"/>
     <use x="159.033203" xlink:href="#DejaVuSans-32"/>
     <use x="190.820312" xlink:href="#DejaVuSans-49"/>
     <use x="254.443359" xlink:href="#DejaVuSans-53"/>
     <use x="318.066406" xlink:href="#DejaVuSans-32"/>
     <use x="349.853516" xlink:href="#DejaVuSans-105"/>
     <use x="377.636719" xlink:href="#DejaVuSans-110"/>
     <use x="441.015625" xlink:href="#DejaVuSans-115"/>
     <use x="493.115234" xlink:href="#DejaVuSans-116"/>
     <use x="532.324219" xlink:href="#DejaVuSans-97"/>
     <use x="593.603516" xlink:href="#DejaVuSans-110"/>
     <use x="656.982422" xlink:href="#DejaVuSans-99"/>
     <use x="711.962891" xlink:href="#DejaVuSans-101"/>
     <use x="773.486328" xlink:href="#DejaVuSans-115"/>
    </g>
   </g>
   <g id="text_20">
    <!-- v2.4 -->
    <g style="fill:#808080;" transform="translate(187.233062 294.151352)scale(0.1 -0.1)">
     <use xlink:href="#DejaVuSans-118"/>
     <use x="59.179688" xlink:href="#DejaVuSans-50"/>
     <use x="122.802734" xlink:href="#DejaVuSans-46"/>
     <use x="154.589844" xlink:href="#DejaVuSans-52"/>
    </g>
   </g>
   <g id="text_21">
    <!-- 18 Schaffer F7, condition 1000 -->
    <defs>
     <path d="M 54.890625 33.015625 
L 54.890625 0 
L 45.90625 0 
L 45.90625 32.71875 
Q 45.90625 40.484375 42.875 44.328125 
Q 39.84375 48.1875 33.796875 48.1875 
Q 26.515625 48.1875 22.3125 43.546875 
Q 18.109375 38.921875 18.109375 30.90625 
L 18.109375 0 
L 9.078125 0 
L 9.078125 75.984375 
L 18.109375 75.984375 
L 18.109375 46.1875 
Q 21.34375 51.125 25.703125 53.5625 
Q 30.078125 56 35.796875 56 
Q 45.21875 56 50.046875 50.171875 
Q 54.890625 44.34375 54.890625 33.015625 
z
" id="DejaVuSans-104"/>
     <path d="M 8.203125 72.90625 
L 55.078125 72.90625 
L 55.078125 68.703125 
L 28.609375 0 
L 18.3125 0 
L 43.21875 64.59375 
L 8.203125 64.59375 
z
" id="DejaVuSans-55"/>
    </defs>
    <g transform="translate(44.111187 21.648)scale(0.2 -0.2)">
     <use xlink:href="#DejaVuSans-49"/>
     <use x="63.623047" xlink:href="#DejaVuSans-56"/>
     <use x="127.246094" xlink:href="#DejaVuSans-32"/>
     <use x="159.033203" xlink:href="#DejaVuSans-83"/>
     <use x="222.509766" xlink:href="#DejaVuSans-99"/>
     <use x="277.490234" xlink:href="#DejaVuSans-104"/>
     <use x="340.869141" xlink:href="#DejaVuSans-97"/>
     <use x="402.148438" xlink:href="#DejaVuSans-102"/>
     <use x="437.353516" xlink:href="#DejaVuSans-102"/>
     <use x="472.558594" xlink:href="#DejaVuSans-101"/>
     <use x="534.082031" xlink:href="#DejaVuSans-114"/>
     <use x="575.195312" xlink:href="#DejaVuSans-32"/>
     <use x="606.982422" xlink:href="#DejaVuSans-70"/>
     <use x="664.501953" xlink:href="#DejaVuSans-55"/>
     <use x="728.125" xlink:href="#DejaVuSans-44"/>
     <use x="759.912109" xlink:href="#DejaVuSans-32"/>
     <use x="791.699219" xlink:href="#DejaVuSans-99"/>
     <use x="846.679688" xlink:href="#DejaVuSans-111"/>
     <use x="907.861328" xlink:href="#DejaVuSans-110"/>
     <use x="971.240234" xlink:href="#DejaVuSans-100"/>
     <use x="1034.716797" xlink:href="#DejaVuSans-105"/>
     <use x="1062.5" xlink:href="#DejaVuSans-116"/>
     <use x="1101.708984" xlink:href="#DejaVuSans-105"/>
     <use x="1129.492188" xlink:href="#DejaVuSans-111"/>
     <use x="1190.673828" xlink:href="#DejaVuSans-110"/>
     <use x="1254.052734" xlink:href="#DejaVuSans-32"/>
     <use x="1285.839844" xlink:href="#DejaVuSans-49"/>
     <use x="1349.462891" xlink:href="#DejaVuSans-48"/>
     <use x="1413.085938" xlink:href="#DejaVuSans-48"/>
     <use x="1476.708984" xlink:href="#DejaVuSans-48"/>
    </g>
   </g>
  </g>
 </g>
 <defs>
  <clipPath id="p699da967c9">
   <rect height="271.296" width="281.088" x="57.6" y="27.648"/>
  </clipPath>
 </defs>
</svg>
