<?xml version="1.0" encoding="utf-8" standalone="no"?>
<!DOCTYPE svg PUBLIC "-//W3C//DTD SVG 1.1//EN"
  "http://www.w3.org/Graphics/SVG/1.1/DTD/svg11.dtd">
<!-- Created with matplotlib (https://matplotlib.org/) -->
<svg height="345.6pt" version="1.1" viewBox="0 0 460.8 345.6" width="460.8pt" xmlns="http://www.w3.org/2000/svg" xmlns:xlink="http://www.w3.org/1999/xlink">
 <defs>
  <style type="text/css">
*{stroke-linecap:butt;stroke-linejoin:round;}
  </style>
 </defs>
 <g id="figure_1">
  <g id="patch_1">
   <path d="M 0 345.6 
L 460.8 345.6 
L 460.8 0 
L 0 0 
z
" style="fill:#ffffff;"/>
  </g>
  <g id="axes_1">
   <g id="patch_2">
    <path d="M 57.6 298.944 
L 338.688 298.944 
L 338.688 27.648 
L 57.6 27.648 
z
" style="fill:#ffffff;"/>
   </g>
   <g id="line2d_1">
    <path d="M 5.356583 298.944 
L 5.356583 288.410278 
L 24.515591 288.410278 
L 24.515591 283.143418 
L 52.583031 283.143418 
L 52.583031 277.876557 
L 70.538854 277.876557 
L 70.538854 272.609696 
L 80.650472 272.609696 
L 80.650472 267.342835 
L 88.104788 267.342835 
L 88.104788 262.075974 
L 94.294587 262.075974 
L 94.294587 256.809114 
L 97.134116 256.809114 
L 97.134116 251.542253 
L 99.338119 251.542253 
L 99.338119 246.275392 
L 100.86217 246.275392 
L 100.86217 241.008531 
L 101.923711 241.008531 
L 101.923711 235.74167 
L 102.794183 235.74167 
L 102.794183 230.47481 
L 103.498249 230.47481 
L 103.498249 225.207949 
L 104.355088 225.207949 
L 104.355088 219.941088 
L 105.057436 219.941088 
L 105.057436 214.674227 
L 106.168594 214.674227 
L 106.168594 209.407366 
L 107.614095 209.407366 
L 107.614095 204.140506 
L 109.176867 204.140506 
L 109.176867 198.873645 
L 110.443353 198.873645 
L 110.443353 193.606784 
L 111.936179 193.606784 
L 111.936179 188.339923 
L 113.699967 188.339923 
L 113.699967 183.073062 
L 116.621333 183.073062 
L 116.621333 177.806202 
L 119.377041 177.806202 
L 119.377041 172.539341 
L 121.974949 172.539341 
L 121.974949 167.27248 
L 124.594752 167.27248 
L 124.594752 162.005619 
L 127.579875 162.005619 
L 127.579875 156.738758 
L 128.531065 156.738758 
L 128.531065 151.471897 
L 129.262072 151.471897 
L 129.262072 146.205037 
L 130.032298 146.205037 
L 130.032298 140.938176 
L 130.809292 140.938176 
L 130.809292 135.671315 
L 131.52801 135.671315 
L 131.52801 130.404454 
L 132.362702 130.404454 
L 132.362702 125.137593 
L 133.22783 125.137593 
L 133.22783 119.870733 
L 133.83311 119.870733 
L 133.83311 114.603872 
L 134.534878 114.603872 
L 134.534878 109.337011 
L 135.432042 109.337011 
L 135.432042 104.07015 
L 150.064121 104.07015 
L 150.064121 98.803289 
L 169.224577 98.803289 
L 169.224577 93.536429 
L 170.402844 93.536429 
L 170.402844 88.269568 
L 171.031415 88.269568 
L 171.031415 83.002707 
L 171.659533 83.002707 
L 171.659533 77.735846 
L 172.175591 77.735846 
L 172.175591 72.468985 
L 172.719523 72.468985 
L 172.719523 67.202125 
L 173.289481 67.202125 
L 173.289481 61.935264 
L 173.801357 61.935264 
L 173.801357 56.668403 
L 174.263971 56.668403 
L 174.263971 51.401542 
L 174.819983 51.401542 
L 174.819983 46.134681 
L 175.211544 46.134681 
L 175.211544 40.867821 
L 175.660692 40.867821 
L 175.660692 35.60096 
L 176.102467 35.60096 
L 176.102467 30.334099 
L 338.688 30.334099 
" style="fill:none;stroke:#f5deb3;stroke-linecap:square;stroke-width:4;"/>
   </g>
   <g id="line2d_2">
    <defs>
     <path d="M -0 7.778175 
L 7.778175 0 
L 0 -7.778175 
L -7.778175 -0 
z
" id="ma9d3d5302a" style="stroke:#f5deb3;stroke-linejoin:miter;stroke-width:1.5;"/>
    </defs>
    <g>
     <use style="fill:#f5deb3;stroke:#f5deb3;stroke-linejoin:miter;stroke-width:1.5;" x="106.168594" xlink:href="#ma9d3d5302a" y="214.674227"/>
     <use style="fill:#f5deb3;stroke:#f5deb3;stroke-linejoin:miter;stroke-width:1.5;" x="135.432042" xlink:href="#ma9d3d5302a" y="109.337011"/>
     <use style="fill:#f5deb3;stroke:#f5deb3;stroke-linejoin:miter;stroke-width:1.5;" x="176.102467" xlink:href="#ma9d3d5302a" y="35.60096"/>
     <use style="fill:#f5deb3;stroke:#f5deb3;stroke-linejoin:miter;stroke-width:1.5;" x="176.102467" xlink:href="#ma9d3d5302a" y="30.334099"/>
     <use style="fill:#f5deb3;stroke:#f5deb3;stroke-linejoin:miter;stroke-width:1.5;" x="338.688" xlink:href="#ma9d3d5302a" y="30.334099"/>
    </g>
   </g>
   <g id="line2d_3">
    <path style="fill:none;stroke:#f5deb3;stroke-linecap:square;stroke-width:4;"/>
    <g/>
   </g>
   <g id="line2d_4">
    <path d="M 338.688 30.334099 
L 369.60768 35.706297 
" style="fill:none;stroke:#f5deb3;stroke-linecap:square;stroke-width:4;"/>
    <g>
     <use style="fill:#f5deb3;stroke:#f5deb3;stroke-linejoin:miter;stroke-width:1.5;" x="338.688" xlink:href="#ma9d3d5302a" y="30.334099"/>
     <use style="fill:#f5deb3;stroke:#f5deb3;stroke-linejoin:miter;stroke-width:1.5;" x="369.60768" xlink:href="#ma9d3d5302a" y="35.706297"/>
    </g>
   </g>
   <g id="matplotlib.axis_1">
    <g id="xtick_1">
     <g id="line2d_5">
      <path clip-path="url(#pd7f7ab624b)" d="M 57.6 298.944 
L 57.6 27.648 
" style="fill:none;stroke:#b0b0b0;stroke-linecap:square;stroke-width:0.8;"/>
     </g>
     <g id="line2d_6">
      <defs>
       <path d="M 0 0 
L 0 3.5 
" id="mefede6de27" style="stroke:#000000;stroke-width:0.8;"/>
      </defs>
      <g>
       <use style="stroke:#000000;stroke-width:0.8;" x="57.6" xlink:href="#mefede6de27" y="298.944"/>
      </g>
     </g>
     <g id="text_1">
      <!-- 0 -->
      <defs>
       <path d="M 31.78125 66.40625 
Q 24.171875 66.40625 20.328125 58.90625 
Q 16.5 51.421875 16.5 36.375 
Q 16.5 21.390625 20.328125 13.890625 
Q 24.171875 6.390625 31.78125 6.390625 
Q 39.453125 6.390625 43.28125 13.890625 
Q 47.125 21.390625 47.125 36.375 
Q 47.125 51.421875 43.28125 58.90625 
Q 39.453125 66.40625 31.78125 66.40625 
z
M 31.78125 74.21875 
Q 44.046875 74.21875 50.515625 64.515625 
Q 56.984375 54.828125 56.984375 36.375 
Q 56.984375 17.96875 50.515625 8.265625 
Q 44.046875 -1.421875 31.78125 -1.421875 
Q 19.53125 -1.421875 13.0625 8.265625 
Q 6.59375 17.96875 6.59375 36.375 
Q 6.59375 54.828125 13.0625 64.515625 
Q 19.53125 74.21875 31.78125 74.21875 
z
" id="DejaVuSans-48"/>
      </defs>
      <g transform="translate(51.2375 321.140875)scale(0.2 -0.2)">
       <use xlink:href="#DejaVuSans-48"/>
      </g>
     </g>
    </g>
    <g id="xtick_2">
     <g id="line2d_7">
      <path clip-path="url(#pd7f7ab624b)" d="M 137.910857 298.944 
L 137.910857 27.648 
" style="fill:none;stroke:#b0b0b0;stroke-linecap:square;stroke-width:0.8;"/>
     </g>
     <g id="line2d_8">
      <g>
       <use style="stroke:#000000;stroke-width:0.8;" x="137.910857" xlink:href="#mefede6de27" y="298.944"/>
      </g>
     </g>
     <g id="text_2">
      <!-- 2 -->
      <defs>
       <path d="M 19.1875 8.296875 
L 53.609375 8.296875 
L 53.609375 0 
L 7.328125 0 
L 7.328125 8.296875 
Q 12.9375 14.109375 22.625 23.890625 
Q 32.328125 33.6875 34.8125 36.53125 
Q 39.546875 41.84375 41.421875 45.53125 
Q 43.3125 49.21875 43.3125 52.78125 
Q 43.3125 58.59375 39.234375 62.25 
Q 35.15625 65.921875 28.609375 65.921875 
Q 23.96875 65.921875 18.8125 64.3125 
Q 13.671875 62.703125 7.8125 59.421875 
L 7.8125 69.390625 
Q 13.765625 71.78125 18.9375 73 
Q 24.125 74.21875 28.421875 74.21875 
Q 39.75 74.21875 46.484375 68.546875 
Q 53.21875 62.890625 53.21875 53.421875 
Q 53.21875 48.921875 51.53125 44.890625 
Q 49.859375 40.875 45.40625 35.40625 
Q 44.1875 33.984375 37.640625 27.21875 
Q 31.109375 20.453125 19.1875 8.296875 
z
" id="DejaVuSans-50"/>
      </defs>
      <g transform="translate(131.548357 321.140875)scale(0.2 -0.2)">
       <use xlink:href="#DejaVuSans-50"/>
      </g>
     </g>
    </g>
    <g id="xtick_3">
     <g id="line2d_9">
      <path clip-path="url(#pd7f7ab624b)" d="M 218.221714 298.944 
L 218.221714 27.648 
" style="fill:none;stroke:#b0b0b0;stroke-linecap:square;stroke-width:0.8;"/>
     </g>
     <g id="line2d_10">
      <g>
       <use style="stroke:#000000;stroke-width:0.8;" x="218.221714" xlink:href="#mefede6de27" y="298.944"/>
      </g>
     </g>
     <g id="text_3">
      <!-- 4 -->
      <defs>
       <path d="M 37.796875 64.3125 
L 12.890625 25.390625 
L 37.796875 25.390625 
z
M 35.203125 72.90625 
L 47.609375 72.90625 
L 47.609375 25.390625 
L 58.015625 25.390625 
L 58.015625 17.1875 
L 47.609375 17.1875 
L 47.609375 0 
L 37.796875 0 
L 37.796875 17.1875 
L 4.890625 17.1875 
L 4.890625 26.703125 
z
" id="DejaVuSans-52"/>
      </defs>
      <g transform="translate(211.859214 321.140875)scale(0.2 -0.2)">
       <use xlink:href="#DejaVuSans-52"/>
      </g>
     </g>
    </g>
    <g id="xtick_4">
     <g id="line2d_11">
      <path clip-path="url(#pd7f7ab624b)" d="M 298.532571 298.944 
L 298.532571 27.648 
" style="fill:none;stroke:#b0b0b0;stroke-linecap:square;stroke-width:0.8;"/>
     </g>
     <g id="line2d_12">
      <g>
       <use style="stroke:#000000;stroke-width:0.8;" x="298.532571" xlink:href="#mefede6de27" y="298.944"/>
      </g>
     </g>
     <g id="text_4">
      <!-- 6 -->
      <defs>
       <path d="M 33.015625 40.375 
Q 26.375 40.375 22.484375 35.828125 
Q 18.609375 31.296875 18.609375 23.390625 
Q 18.609375 15.53125 22.484375 10.953125 
Q 26.375 6.390625 33.015625 6.390625 
Q 39.65625 6.390625 43.53125 10.953125 
Q 47.40625 15.53125 47.40625 23.390625 
Q 47.40625 31.296875 43.53125 35.828125 
Q 39.65625 40.375 33.015625 40.375 
z
M 52.59375 71.296875 
L 52.59375 62.3125 
Q 48.875 64.0625 45.09375 64.984375 
Q 41.3125 65.921875 37.59375 65.921875 
Q 27.828125 65.921875 22.671875 59.328125 
Q 17.53125 52.734375 16.796875 39.40625 
Q 19.671875 43.65625 24.015625 45.921875 
Q 28.375 48.1875 33.59375 48.1875 
Q 44.578125 48.1875 50.953125 41.515625 
Q 57.328125 34.859375 57.328125 23.390625 
Q 57.328125 12.15625 50.6875 5.359375 
Q 44.046875 -1.421875 33.015625 -1.421875 
Q 20.359375 -1.421875 13.671875 8.265625 
Q 6.984375 17.96875 6.984375 36.375 
Q 6.984375 53.65625 15.1875 63.9375 
Q 23.390625 74.21875 37.203125 74.21875 
Q 40.921875 74.21875 44.703125 73.484375 
Q 48.484375 72.75 52.59375 71.296875 
z
" id="DejaVuSans-54"/>
      </defs>
      <g transform="translate(292.170071 321.140875)scale(0.2 -0.2)">
       <use xlink:href="#DejaVuSans-54"/>
      </g>
     </g>
    </g>
    <g id="xtick_5">
     <g id="line2d_13">
      <path clip-path="url(#pd7f7ab624b)" d="M 97.755429 298.944 
L 97.755429 27.648 
" style="fill:none;stroke:#b0b0b0;stroke-linecap:square;stroke-width:0.8;"/>
     </g>
     <g id="line2d_14">
      <defs>
       <path d="M 0 0 
L 0 2 
" id="m6fa8b86d60" style="stroke:#000000;stroke-width:0.6;"/>
      </defs>
      <g>
       <use style="stroke:#000000;stroke-width:0.6;" x="97.755429" xlink:href="#m6fa8b86d60" y="298.944"/>
      </g>
     </g>
    </g>
    <g id="xtick_6">
     <g id="line2d_15">
      <path clip-path="url(#pd7f7ab624b)" d="M 178.066286 298.944 
L 178.066286 27.648 
" style="fill:none;stroke:#b0b0b0;stroke-linecap:square;stroke-width:0.8;"/>
     </g>
     <g id="line2d_16">
      <g>
       <use style="stroke:#000000;stroke-width:0.6;" x="178.066286" xlink:href="#m6fa8b86d60" y="298.944"/>
      </g>
     </g>
    </g>
    <g id="xtick_7">
     <g id="line2d_17">
      <path clip-path="url(#pd7f7ab624b)" d="M 258.377143 298.944 
L 258.377143 27.648 
" style="fill:none;stroke:#b0b0b0;stroke-linecap:square;stroke-width:0.8;"/>
     </g>
     <g id="line2d_18">
      <g>
       <use style="stroke:#000000;stroke-width:0.6;" x="258.377143" xlink:href="#m6fa8b86d60" y="298.944"/>
      </g>
     </g>
    </g>
    <g id="xtick_8">
     <g id="line2d_19">
      <path clip-path="url(#pd7f7ab624b)" d="M 338.688 298.944 
L 338.688 27.648 
" style="fill:none;stroke:#b0b0b0;stroke-linecap:square;stroke-width:0.8;"/>
     </g>
     <g id="line2d_20">
      <g>
       <use style="stroke:#000000;stroke-width:0.6;" x="338.688" xlink:href="#m6fa8b86d60" y="298.944"/>
      </g>
     </g>
    </g>
    <g id="text_5">
     <!-- log10(# f-evals / dimension) -->
     <defs>
      <path d="M 9.421875 75.984375 
L 18.40625 75.984375 
L 18.40625 0 
L 9.421875 0 
z
" id="DejaVuSans-108"/>
      <path d="M 30.609375 48.390625 
Q 23.390625 48.390625 19.1875 42.75 
Q 14.984375 37.109375 14.984375 27.296875 
Q 14.984375 17.484375 19.15625 11.84375 
Q 23.34375 6.203125 30.609375 6.203125 
Q 37.796875 6.203125 41.984375 11.859375 
Q 46.1875 17.53125 46.1875 27.296875 
Q 46.1875 37.015625 41.984375 42.703125 
Q 37.796875 48.390625 30.609375 48.390625 
z
M 30.609375 56 
Q 42.328125 56 49.015625 48.375 
Q 55.71875 40.765625 55.71875 27.296875 
Q 55.71875 13.875 49.015625 6.21875 
Q 42.328125 -1.421875 30.609375 -1.421875 
Q 18.84375 -1.421875 12.171875 6.21875 
Q 5.515625 13.875 5.515625 27.296875 
Q 5.515625 40.765625 12.171875 48.375 
Q 18.84375 56 30.609375 56 
z
" id="DejaVuSans-111"/>
      <path d="M 45.40625 27.984375 
Q 45.40625 37.75 41.375 43.109375 
Q 37.359375 48.484375 30.078125 48.484375 
Q 22.859375 48.484375 18.828125 43.109375 
Q 14.796875 37.75 14.796875 27.984375 
Q 14.796875 18.265625 18.828125 12.890625 
Q 22.859375 7.515625 30.078125 7.515625 
Q 37.359375 7.515625 41.375 12.890625 
Q 45.40625 18.265625 45.40625 27.984375 
z
M 54.390625 6.78125 
Q 54.390625 -7.171875 48.1875 -13.984375 
Q 42 -20.796875 29.203125 -20.796875 
Q 24.46875 -20.796875 20.265625 -20.09375 
Q 16.0625 -19.390625 12.109375 -17.921875 
L 12.109375 -9.1875 
Q 16.0625 -11.328125 19.921875 -12.34375 
Q 23.78125 -13.375 27.78125 -13.375 
Q 36.625 -13.375 41.015625 -8.765625 
Q 45.40625 -4.15625 45.40625 5.171875 
L 45.40625 9.625 
Q 42.625 4.78125 38.28125 2.390625 
Q 33.9375 0 27.875 0 
Q 17.828125 0 11.671875 7.65625 
Q 5.515625 15.328125 5.515625 27.984375 
Q 5.515625 40.671875 11.671875 48.328125 
Q 17.828125 56 27.875 56 
Q 33.9375 56 38.28125 53.609375 
Q 42.625 51.21875 45.40625 46.390625 
L 45.40625 54.6875 
L 54.390625 54.6875 
z
" id="DejaVuSans-103"/>
      <path d="M 12.40625 8.296875 
L 28.515625 8.296875 
L 28.515625 63.921875 
L 10.984375 60.40625 
L 10.984375 69.390625 
L 28.421875 72.90625 
L 38.28125 72.90625 
L 38.28125 8.296875 
L 54.390625 8.296875 
L 54.390625 0 
L 12.40625 0 
z
" id="DejaVuSans-49"/>
      <path d="M 31 75.875 
Q 24.46875 64.65625 21.28125 53.65625 
Q 18.109375 42.671875 18.109375 31.390625 
Q 18.109375 20.125 21.3125 9.0625 
Q 24.515625 -2 31 -13.1875 
L 23.1875 -13.1875 
Q 15.875 -1.703125 12.234375 9.375 
Q 8.59375 20.453125 8.59375 31.390625 
Q 8.59375 42.28125 12.203125 53.3125 
Q 15.828125 64.359375 23.1875 75.875 
z
" id="DejaVuSans-40"/>
      <path d="M 51.125 44 
L 36.921875 44 
L 32.8125 27.6875 
L 47.125 27.6875 
z
M 43.796875 71.78125 
L 38.71875 51.515625 
L 52.984375 51.515625 
L 58.109375 71.78125 
L 65.921875 71.78125 
L 60.890625 51.515625 
L 76.125 51.515625 
L 76.125 44 
L 58.984375 44 
L 54.984375 27.6875 
L 70.515625 27.6875 
L 70.515625 20.21875 
L 53.078125 20.21875 
L 48 0 
L 40.1875 0 
L 45.21875 20.21875 
L 30.90625 20.21875 
L 25.875 0 
L 18.015625 0 
L 23.09375 20.21875 
L 7.71875 20.21875 
L 7.71875 27.6875 
L 24.90625 27.6875 
L 29 44 
L 13.28125 44 
L 13.28125 51.515625 
L 30.90625 51.515625 
L 35.890625 71.78125 
z
" id="DejaVuSans-35"/>
      <path id="DejaVuSans-32"/>
      <path d="M 37.109375 75.984375 
L 37.109375 68.5 
L 28.515625 68.5 
Q 23.6875 68.5 21.796875 66.546875 
Q 19.921875 64.59375 19.921875 59.515625 
L 19.921875 54.6875 
L 34.71875 54.6875 
L 34.71875 47.703125 
L 19.921875 47.703125 
L 19.921875 0 
L 10.890625 0 
L 10.890625 47.703125 
L 2.296875 47.703125 
L 2.296875 54.6875 
L 10.890625 54.6875 
L 10.890625 58.5 
Q 10.890625 67.625 15.140625 71.796875 
Q 19.390625 75.984375 28.609375 75.984375 
z
" id="DejaVuSans-102"/>
      <path d="M 4.890625 31.390625 
L 31.203125 31.390625 
L 31.203125 23.390625 
L 4.890625 23.390625 
z
" id="DejaVuSans-45"/>
      <path d="M 56.203125 29.59375 
L 56.203125 25.203125 
L 14.890625 25.203125 
Q 15.484375 15.921875 20.484375 11.0625 
Q 25.484375 6.203125 34.421875 6.203125 
Q 39.59375 6.203125 44.453125 7.46875 
Q 49.3125 8.734375 54.109375 11.28125 
L 54.109375 2.78125 
Q 49.265625 0.734375 44.1875 -0.34375 
Q 39.109375 -1.421875 33.890625 -1.421875 
Q 20.796875 -1.421875 13.15625 6.1875 
Q 5.515625 13.8125 5.515625 26.8125 
Q 5.515625 40.234375 12.765625 48.109375 
Q 20.015625 56 32.328125 56 
Q 43.359375 56 49.78125 48.890625 
Q 56.203125 41.796875 56.203125 29.59375 
z
M 47.21875 32.234375 
Q 47.125 39.59375 43.09375 43.984375 
Q 39.0625 48.390625 32.421875 48.390625 
Q 24.90625 48.390625 20.390625 44.140625 
Q 15.875 39.890625 15.1875 32.171875 
z
" id="DejaVuSans-101"/>
      <path d="M 2.984375 54.6875 
L 12.5 54.6875 
L 29.59375 8.796875 
L 46.6875 54.6875 
L 56.203125 54.6875 
L 35.6875 0 
L 23.484375 0 
z
" id="DejaVuSans-118"/>
      <path d="M 34.28125 27.484375 
Q 23.390625 27.484375 19.1875 25 
Q 14.984375 22.515625 14.984375 16.5 
Q 14.984375 11.71875 18.140625 8.90625 
Q 21.296875 6.109375 26.703125 6.109375 
Q 34.1875 6.109375 38.703125 11.40625 
Q 43.21875 16.703125 43.21875 25.484375 
L 43.21875 27.484375 
z
M 52.203125 31.203125 
L 52.203125 0 
L 43.21875 0 
L 43.21875 8.296875 
Q 40.140625 3.328125 35.546875 0.953125 
Q 30.953125 -1.421875 24.3125 -1.421875 
Q 15.921875 -1.421875 10.953125 3.296875 
Q 6 8.015625 6 15.921875 
Q 6 25.140625 12.171875 29.828125 
Q 18.359375 34.515625 30.609375 34.515625 
L 43.21875 34.515625 
L 43.21875 35.40625 
Q 43.21875 41.609375 39.140625 45 
Q 35.0625 48.390625 27.6875 48.390625 
Q 23 48.390625 18.546875 47.265625 
Q 14.109375 46.140625 10.015625 43.890625 
L 10.015625 52.203125 
Q 14.9375 54.109375 19.578125 55.046875 
Q 24.21875 56 28.609375 56 
Q 40.484375 56 46.34375 49.84375 
Q 52.203125 43.703125 52.203125 31.203125 
z
" id="DejaVuSans-97"/>
      <path d="M 44.28125 53.078125 
L 44.28125 44.578125 
Q 40.484375 46.53125 36.375 47.5 
Q 32.28125 48.484375 27.875 48.484375 
Q 21.1875 48.484375 17.84375 46.4375 
Q 14.5 44.390625 14.5 40.28125 
Q 14.5 37.15625 16.890625 35.375 
Q 19.28125 33.59375 26.515625 31.984375 
L 29.59375 31.296875 
Q 39.15625 29.25 43.1875 25.515625 
Q 47.21875 21.78125 47.21875 15.09375 
Q 47.21875 7.46875 41.1875 3.015625 
Q 35.15625 -1.421875 24.609375 -1.421875 
Q 20.21875 -1.421875 15.453125 -0.5625 
Q 10.6875 0.296875 5.421875 2 
L 5.421875 11.28125 
Q 10.40625 8.6875 15.234375 7.390625 
Q 20.0625 6.109375 24.8125 6.109375 
Q 31.15625 6.109375 34.5625 8.28125 
Q 37.984375 10.453125 37.984375 14.40625 
Q 37.984375 18.0625 35.515625 20.015625 
Q 33.0625 21.96875 24.703125 23.78125 
L 21.578125 24.515625 
Q 13.234375 26.265625 9.515625 29.90625 
Q 5.8125 33.546875 5.8125 39.890625 
Q 5.8125 47.609375 11.28125 51.796875 
Q 16.75 56 26.8125 56 
Q 31.78125 56 36.171875 55.265625 
Q 40.578125 54.546875 44.28125 53.078125 
z
" id="DejaVuSans-115"/>
      <path d="M 25.390625 72.90625 
L 33.6875 72.90625 
L 8.296875 -9.28125 
L 0 -9.28125 
z
" id="DejaVuSans-47"/>
      <path d="M 45.40625 46.390625 
L 45.40625 75.984375 
L 54.390625 75.984375 
L 54.390625 0 
L 45.40625 0 
L 45.40625 8.203125 
Q 42.578125 3.328125 38.25 0.953125 
Q 33.9375 -1.421875 27.875 -1.421875 
Q 17.96875 -1.421875 11.734375 6.484375 
Q 5.515625 14.40625 5.515625 27.296875 
Q 5.515625 40.1875 11.734375 48.09375 
Q 17.96875 56 27.875 56 
Q 33.9375 56 38.25 53.625 
Q 42.578125 51.265625 45.40625 46.390625 
z
M 14.796875 27.296875 
Q 14.796875 17.390625 18.875 11.75 
Q 22.953125 6.109375 30.078125 6.109375 
Q 37.203125 6.109375 41.296875 11.75 
Q 45.40625 17.390625 45.40625 27.296875 
Q 45.40625 37.203125 41.296875 42.84375 
Q 37.203125 48.484375 30.078125 48.484375 
Q 22.953125 48.484375 18.875 42.84375 
Q 14.796875 37.203125 14.796875 27.296875 
z
" id="DejaVuSans-100"/>
      <path d="M 9.421875 54.6875 
L 18.40625 54.6875 
L 18.40625 0 
L 9.421875 0 
z
M 9.421875 75.984375 
L 18.40625 75.984375 
L 18.40625 64.59375 
L 9.421875 64.59375 
z
" id="DejaVuSans-105"/>
      <path d="M 52 44.1875 
Q 55.375 50.25 60.0625 53.125 
Q 64.75 56 71.09375 56 
Q 79.640625 56 84.28125 50.015625 
Q 88.921875 44.046875 88.921875 33.015625 
L 88.921875 0 
L 79.890625 0 
L 79.890625 32.71875 
Q 79.890625 40.578125 77.09375 44.375 
Q 74.3125 48.1875 68.609375 48.1875 
Q 61.625 48.1875 57.5625 43.546875 
Q 53.515625 38.921875 53.515625 30.90625 
L 53.515625 0 
L 44.484375 0 
L 44.484375 32.71875 
Q 44.484375 40.625 41.703125 44.40625 
Q 38.921875 48.1875 33.109375 48.1875 
Q 26.21875 48.1875 22.15625 43.53125 
Q 18.109375 38.875 18.109375 30.90625 
L 18.109375 0 
L 9.078125 0 
L 9.078125 54.6875 
L 18.109375 54.6875 
L 18.109375 46.1875 
Q 21.1875 51.21875 25.484375 53.609375 
Q 29.78125 56 35.6875 56 
Q 41.65625 56 45.828125 52.96875 
Q 50 49.953125 52 44.1875 
z
" id="DejaVuSans-109"/>
      <path d="M 54.890625 33.015625 
L 54.890625 0 
L 45.90625 0 
L 45.90625 32.71875 
Q 45.90625 40.484375 42.875 44.328125 
Q 39.84375 48.1875 33.796875 48.1875 
Q 26.515625 48.1875 22.3125 43.546875 
Q 18.109375 38.921875 18.109375 30.90625 
L 18.109375 0 
L 9.078125 0 
L 9.078125 54.6875 
L 18.109375 54.6875 
L 18.109375 46.1875 
Q 21.34375 51.125 25.703125 53.5625 
Q 30.078125 56 35.796875 56 
Q 45.21875 56 50.046875 50.171875 
Q 54.890625 44.34375 54.890625 33.015625 
z
" id="DejaVuSans-110"/>
      <path d="M 8.015625 75.875 
L 15.828125 75.875 
Q 23.140625 64.359375 26.78125 53.3125 
Q 30.421875 42.28125 30.421875 31.390625 
Q 30.421875 20.453125 26.78125 9.375 
Q 23.140625 -1.703125 15.828125 -13.1875 
L 8.015625 -13.1875 
Q 14.5 -2 17.703125 9.0625 
Q 20.90625 20.125 20.90625 31.390625 
Q 20.90625 42.671875 17.703125 53.65625 
Q 14.5 64.65625 8.015625 75.875 
z
" id="DejaVuSans-41"/>
     </defs>
     <g transform="translate(77.764078 342.217594)scale(0.17 -0.17)">
      <use xlink:href="#DejaVuSans-108"/>
      <use x="27.783203" xlink:href="#DejaVuSans-111"/>
      <use x="88.964844" xlink:href="#DejaVuSans-103"/>
      <use x="152.441406" xlink:href="#DejaVuSans-49"/>
      <use x="216.064453" xlink:href="#DejaVuSans-48"/>
      <use x="279.6875" xlink:href="#DejaVuSans-40"/>
      <use x="318.701172" xlink:href="#DejaVuSans-35"/>
      <use x="402.490234" xlink:href="#DejaVuSans-32"/>
      <use x="434.277344" xlink:href="#DejaVuSans-102"/>
      <use x="463.982422" xlink:href="#DejaVuSans-45"/>
      <use x="500.066406" xlink:href="#DejaVuSans-101"/>
      <use x="561.589844" xlink:href="#DejaVuSans-118"/>
      <use x="620.769531" xlink:href="#DejaVuSans-97"/>
      <use x="682.048828" xlink:href="#DejaVuSans-108"/>
      <use x="709.832031" xlink:href="#DejaVuSans-115"/>
      <use x="761.931641" xlink:href="#DejaVuSans-32"/>
      <use x="793.71875" xlink:href="#DejaVuSans-47"/>
      <use x="827.410156" xlink:href="#DejaVuSans-32"/>
      <use x="859.197266" xlink:href="#DejaVuSans-100"/>
      <use x="922.673828" xlink:href="#DejaVuSans-105"/>
      <use x="950.457031" xlink:href="#DejaVuSans-109"/>
      <use x="1047.869141" xlink:href="#DejaVuSans-101"/>
      <use x="1109.392578" xlink:href="#DejaVuSans-110"/>
      <use x="1172.771484" xlink:href="#DejaVuSans-115"/>
      <use x="1224.871094" xlink:href="#DejaVuSans-105"/>
      <use x="1252.654297" xlink:href="#DejaVuSans-111"/>
      <use x="1313.835938" xlink:href="#DejaVuSans-110"/>
      <use x="1377.214844" xlink:href="#DejaVuSans-41"/>
     </g>
    </g>
   </g>
   <g id="matplotlib.axis_2">
    <g id="ytick_1">
     <g id="line2d_21">
      <path clip-path="url(#pd7f7ab624b)" d="M 57.6 298.944 
L 338.688 298.944 
" style="fill:none;stroke:#b0b0b0;stroke-linecap:square;stroke-width:0.8;"/>
     </g>
     <g id="line2d_22">
      <defs>
       <path d="M 0 0 
L -3.5 0 
" id="mead3640f8a" style="stroke:#000000;stroke-width:0.8;"/>
      </defs>
      <g>
       <use style="stroke:#000000;stroke-width:0.8;" x="57.6" xlink:href="#mead3640f8a" y="298.944"/>
      </g>
     </g>
     <g id="text_6">
      <!-- 0.0 -->
      <defs>
       <path d="M 10.6875 12.40625 
L 21 12.40625 
L 21 0 
L 10.6875 0 
z
" id="DejaVuSans-46"/>
      </defs>
      <g transform="translate(25.155 305.02275)scale(0.16 -0.16)">
       <use xlink:href="#DejaVuSans-48"/>
       <use x="63.623047" xlink:href="#DejaVuSans-46"/>
       <use x="95.410156" xlink:href="#DejaVuSans-48"/>
      </g>
     </g>
    </g>
    <g id="ytick_2">
     <g id="line2d_23">
      <path clip-path="url(#pd7f7ab624b)" d="M 57.6 245.22202 
L 338.688 245.22202 
" style="fill:none;stroke:#b0b0b0;stroke-linecap:square;stroke-width:0.8;"/>
     </g>
     <g id="line2d_24">
      <g>
       <use style="stroke:#000000;stroke-width:0.8;" x="57.6" xlink:href="#mead3640f8a" y="245.22202"/>
      </g>
     </g>
     <g id="text_7">
      <!-- 0.2 -->
      <g transform="translate(25.155 251.30077)scale(0.16 -0.16)">
       <use xlink:href="#DejaVuSans-48"/>
       <use x="63.623047" xlink:href="#DejaVuSans-46"/>
       <use x="95.410156" xlink:href="#DejaVuSans-50"/>
      </g>
     </g>
    </g>
    <g id="ytick_3">
     <g id="line2d_25">
      <path clip-path="url(#pd7f7ab624b)" d="M 57.6 191.50004 
L 338.688 191.50004 
" style="fill:none;stroke:#b0b0b0;stroke-linecap:square;stroke-width:0.8;"/>
     </g>
     <g id="line2d_26">
      <g>
       <use style="stroke:#000000;stroke-width:0.8;" x="57.6" xlink:href="#mead3640f8a" y="191.50004"/>
      </g>
     </g>
     <g id="text_8">
      <!-- 0.4 -->
      <g transform="translate(25.155 197.57879)scale(0.16 -0.16)">
       <use xlink:href="#DejaVuSans-48"/>
       <use x="63.623047" xlink:href="#DejaVuSans-46"/>
       <use x="95.410156" xlink:href="#DejaVuSans-52"/>
      </g>
     </g>
    </g>
    <g id="ytick_4">
     <g id="line2d_27">
      <path clip-path="url(#pd7f7ab624b)" d="M 57.6 137.778059 
L 338.688 137.778059 
" style="fill:none;stroke:#b0b0b0;stroke-linecap:square;stroke-width:0.8;"/>
     </g>
     <g id="line2d_28">
      <g>
       <use style="stroke:#000000;stroke-width:0.8;" x="57.6" xlink:href="#mead3640f8a" y="137.778059"/>
      </g>
     </g>
     <g id="text_9">
      <!-- 0.6 -->
      <g transform="translate(25.155 143.856809)scale(0.16 -0.16)">
       <use xlink:href="#DejaVuSans-48"/>
       <use x="63.623047" xlink:href="#DejaVuSans-46"/>
       <use x="95.410156" xlink:href="#DejaVuSans-54"/>
      </g>
     </g>
    </g>
    <g id="ytick_5">
     <g id="line2d_29">
      <path clip-path="url(#pd7f7ab624b)" d="M 57.6 84.056079 
L 338.688 84.056079 
" style="fill:none;stroke:#b0b0b0;stroke-linecap:square;stroke-width:0.8;"/>
     </g>
     <g id="line2d_30">
      <g>
       <use style="stroke:#000000;stroke-width:0.8;" x="57.6" xlink:href="#mead3640f8a" y="84.056079"/>
      </g>
     </g>
     <g id="text_10">
      <!-- 0.8 -->
      <defs>
       <path d="M 31.78125 34.625 
Q 24.75 34.625 20.71875 30.859375 
Q 16.703125 27.09375 16.703125 20.515625 
Q 16.703125 13.921875 20.71875 10.15625 
Q 24.75 6.390625 31.78125 6.390625 
Q 38.8125 6.390625 42.859375 10.171875 
Q 46.921875 13.96875 46.921875 20.515625 
Q 46.921875 27.09375 42.890625 30.859375 
Q 38.875 34.625 31.78125 34.625 
z
M 21.921875 38.8125 
Q 15.578125 40.375 12.03125 44.71875 
Q 8.5 49.078125 8.5 55.328125 
Q 8.5 64.0625 14.71875 69.140625 
Q 20.953125 74.21875 31.78125 74.21875 
Q 42.671875 74.21875 48.875 69.140625 
Q 55.078125 64.0625 55.078125 55.328125 
Q 55.078125 49.078125 51.53125 44.71875 
Q 48 40.375 41.703125 38.8125 
Q 48.828125 37.15625 52.796875 32.3125 
Q 56.78125 27.484375 56.78125 20.515625 
Q 56.78125 9.90625 50.3125 4.234375 
Q 43.84375 -1.421875 31.78125 -1.421875 
Q 19.734375 -1.421875 13.25 4.234375 
Q 6.78125 9.90625 6.78125 20.515625 
Q 6.78125 27.484375 10.78125 32.3125 
Q 14.796875 37.15625 21.921875 38.8125 
z
M 18.3125 54.390625 
Q 18.3125 48.734375 21.84375 45.5625 
Q 25.390625 42.390625 31.78125 42.390625 
Q 38.140625 42.390625 41.71875 45.5625 
Q 45.3125 48.734375 45.3125 54.390625 
Q 45.3125 60.0625 41.71875 63.234375 
Q 38.140625 66.40625 31.78125 66.40625 
Q 25.390625 66.40625 21.84375 63.234375 
Q 18.3125 60.0625 18.3125 54.390625 
z
" id="DejaVuSans-56"/>
      </defs>
      <g transform="translate(25.155 90.134829)scale(0.16 -0.16)">
       <use xlink:href="#DejaVuSans-48"/>
       <use x="63.623047" xlink:href="#DejaVuSans-46"/>
       <use x="95.410156" xlink:href="#DejaVuSans-56"/>
      </g>
     </g>
    </g>
    <g id="ytick_6">
     <g id="line2d_31">
      <path clip-path="url(#pd7f7ab624b)" d="M 57.6 30.334099 
L 338.688 30.334099 
" style="fill:none;stroke:#b0b0b0;stroke-linecap:square;stroke-width:0.8;"/>
     </g>
     <g id="line2d_32">
      <g>
       <use style="stroke:#000000;stroke-width:0.8;" x="57.6" xlink:href="#mead3640f8a" y="30.334099"/>
      </g>
     </g>
     <g id="text_11">
      <!-- 1.0 -->
      <g transform="translate(25.155 36.412849)scale(0.16 -0.16)">
       <use xlink:href="#DejaVuSans-49"/>
       <use x="63.623047" xlink:href="#DejaVuSans-46"/>
       <use x="95.410156" xlink:href="#DejaVuSans-48"/>
      </g>
     </g>
    </g>
    <g id="text_12">
     <!-- Fraction of function,target pairs -->
     <defs>
      <path d="M 9.8125 72.90625 
L 51.703125 72.90625 
L 51.703125 64.59375 
L 19.671875 64.59375 
L 19.671875 43.109375 
L 48.578125 43.109375 
L 48.578125 34.8125 
L 19.671875 34.8125 
L 19.671875 0 
L 9.8125 0 
z
" id="DejaVuSans-70"/>
      <path d="M 41.109375 46.296875 
Q 39.59375 47.171875 37.8125 47.578125 
Q 36.03125 48 33.890625 48 
Q 26.265625 48 22.1875 43.046875 
Q 18.109375 38.09375 18.109375 28.8125 
L 18.109375 0 
L 9.078125 0 
L 9.078125 54.6875 
L 18.109375 54.6875 
L 18.109375 46.1875 
Q 20.953125 51.171875 25.484375 53.578125 
Q 30.03125 56 36.53125 56 
Q 37.453125 56 38.578125 55.875 
Q 39.703125 55.765625 41.0625 55.515625 
z
" id="DejaVuSans-114"/>
      <path d="M 48.78125 52.59375 
L 48.78125 44.1875 
Q 44.96875 46.296875 41.140625 47.34375 
Q 37.3125 48.390625 33.40625 48.390625 
Q 24.65625 48.390625 19.8125 42.84375 
Q 14.984375 37.3125 14.984375 27.296875 
Q 14.984375 17.28125 19.8125 11.734375 
Q 24.65625 6.203125 33.40625 6.203125 
Q 37.3125 6.203125 41.140625 7.25 
Q 44.96875 8.296875 48.78125 10.40625 
L 48.78125 2.09375 
Q 45.015625 0.34375 40.984375 -0.53125 
Q 36.96875 -1.421875 32.421875 -1.421875 
Q 20.0625 -1.421875 12.78125 6.34375 
Q 5.515625 14.109375 5.515625 27.296875 
Q 5.515625 40.671875 12.859375 48.328125 
Q 20.21875 56 33.015625 56 
Q 37.15625 56 41.109375 55.140625 
Q 45.0625 54.296875 48.78125 52.59375 
z
" id="DejaVuSans-99"/>
      <path d="M 18.3125 70.21875 
L 18.3125 54.6875 
L 36.8125 54.6875 
L 36.8125 47.703125 
L 18.3125 47.703125 
L 18.3125 18.015625 
Q 18.3125 11.328125 20.140625 9.421875 
Q 21.96875 7.515625 27.59375 7.515625 
L 36.8125 7.515625 
L 36.8125 0 
L 27.59375 0 
Q 17.1875 0 13.234375 3.875 
Q 9.28125 7.765625 9.28125 18.015625 
L 9.28125 47.703125 
L 2.6875 47.703125 
L 2.6875 54.6875 
L 9.28125 54.6875 
L 9.28125 70.21875 
z
" id="DejaVuSans-116"/>
      <path d="M 8.5 21.578125 
L 8.5 54.6875 
L 17.484375 54.6875 
L 17.484375 21.921875 
Q 17.484375 14.15625 20.5 10.265625 
Q 23.53125 6.390625 29.59375 6.390625 
Q 36.859375 6.390625 41.078125 11.03125 
Q 45.3125 15.671875 45.3125 23.6875 
L 45.3125 54.6875 
L 54.296875 54.6875 
L 54.296875 0 
L 45.3125 0 
L 45.3125 8.40625 
Q 42.046875 3.421875 37.71875 1 
Q 33.40625 -1.421875 27.6875 -1.421875 
Q 18.265625 -1.421875 13.375 4.4375 
Q 8.5 10.296875 8.5 21.578125 
z
M 31.109375 56 
z
" id="DejaVuSans-117"/>
      <path d="M 11.71875 12.40625 
L 22.015625 12.40625 
L 22.015625 4 
L 14.015625 -11.625 
L 7.71875 -11.625 
L 11.71875 4 
z
" id="DejaVuSans-44"/>
      <path d="M 18.109375 8.203125 
L 18.109375 -20.796875 
L 9.078125 -20.796875 
L 9.078125 54.6875 
L 18.109375 54.6875 
L 18.109375 46.390625 
Q 20.953125 51.265625 25.265625 53.625 
Q 29.59375 56 35.59375 56 
Q 45.5625 56 51.78125 48.09375 
Q 58.015625 40.1875 58.015625 27.296875 
Q 58.015625 14.40625 51.78125 6.484375 
Q 45.5625 -1.421875 35.59375 -1.421875 
Q 29.59375 -1.421875 25.265625 0.953125 
Q 20.953125 3.328125 18.109375 8.203125 
z
M 48.6875 27.296875 
Q 48.6875 37.203125 44.609375 42.84375 
Q 40.53125 48.484375 33.40625 48.484375 
Q 26.265625 48.484375 22.1875 42.84375 
Q 18.109375 37.203125 18.109375 27.296875 
Q 18.109375 17.390625 22.1875 11.75 
Q 26.265625 6.109375 33.40625 6.109375 
Q 40.53125 6.109375 44.609375 11.75 
Q 48.6875 17.390625 48.6875 27.296875 
z
" id="DejaVuSans-112"/>
     </defs>
     <g transform="translate(17.619531 297.681)rotate(-90)scale(0.17 -0.17)">
      <use xlink:href="#DejaVuSans-70"/>
      <use x="50.269531" xlink:href="#DejaVuSans-114"/>
      <use x="91.382812" xlink:href="#DejaVuSans-97"/>
      <use x="152.662109" xlink:href="#DejaVuSans-99"/>
      <use x="207.642578" xlink:href="#DejaVuSans-116"/>
      <use x="246.851562" xlink:href="#DejaVuSans-105"/>
      <use x="274.634766" xlink:href="#DejaVuSans-111"/>
      <use x="335.816406" xlink:href="#DejaVuSans-110"/>
      <use x="399.195312" xlink:href="#DejaVuSans-32"/>
      <use x="430.982422" xlink:href="#DejaVuSans-111"/>
      <use x="492.164062" xlink:href="#DejaVuSans-102"/>
      <use x="527.369141" xlink:href="#DejaVuSans-32"/>
      <use x="559.15625" xlink:href="#DejaVuSans-102"/>
      <use x="594.361328" xlink:href="#DejaVuSans-117"/>
      <use x="657.740234" xlink:href="#DejaVuSans-110"/>
      <use x="721.119141" xlink:href="#DejaVuSans-99"/>
      <use x="776.099609" xlink:href="#DejaVuSans-116"/>
      <use x="815.308594" xlink:href="#DejaVuSans-105"/>
      <use x="843.091797" xlink:href="#DejaVuSans-111"/>
      <use x="904.273438" xlink:href="#DejaVuSans-110"/>
      <use x="967.652344" xlink:href="#DejaVuSans-44"/>
      <use x="999.439453" xlink:href="#DejaVuSans-116"/>
      <use x="1038.648438" xlink:href="#DejaVuSans-97"/>
      <use x="1099.927734" xlink:href="#DejaVuSans-114"/>
      <use x="1139.291016" xlink:href="#DejaVuSans-103"/>
      <use x="1202.767578" xlink:href="#DejaVuSans-101"/>
      <use x="1264.291016" xlink:href="#DejaVuSans-116"/>
      <use x="1303.5" xlink:href="#DejaVuSans-32"/>
      <use x="1335.287109" xlink:href="#DejaVuSans-112"/>
      <use x="1398.763672" xlink:href="#DejaVuSans-97"/>
      <use x="1460.042969" xlink:href="#DejaVuSans-105"/>
      <use x="1487.826172" xlink:href="#DejaVuSans-114"/>
      <use x="1528.939453" xlink:href="#DejaVuSans-115"/>
     </g>
    </g>
   </g>
   <g id="line2d_33">
    <defs>
     <path d="M 0 1.5 
C 0.397805 1.5 0.77937 1.341951 1.06066 1.06066 
C 1.341951 0.77937 1.5 0.397805 1.5 0 
C 1.5 -0.397805 1.341951 -0.77937 1.06066 -1.06066 
C 0.77937 -1.341951 0.397805 -1.5 0 -1.5 
C -0.397805 -1.5 -0.77937 -1.341951 -1.06066 -1.06066 
C -1.341951 -0.77937 -1.5 -0.397805 -1.5 0 
C -1.5 0.397805 -1.341951 0.77937 -1.06066 1.06066 
C -0.77937 1.341951 -0.397805 1.5 0 1.5 
z
" id="mca1d171d0e" style="stroke:#f5deb3;"/>
    </defs>
    <g>
     <use style="fill:#f5deb3;stroke:#f5deb3;" x="176.102467" xlink:href="#mca1d171d0e" y="30.334099"/>
     <use style="fill:#f5deb3;stroke:#f5deb3;" x="176.102467" xlink:href="#mca1d171d0e" y="30.334099"/>
    </g>
   </g>
   <g id="line2d_34">
    <defs>
     <path d="M 0 1.5 
C 0.397805 1.5 0.77937 1.341951 1.06066 1.06066 
C 1.341951 0.77937 1.5 0.397805 1.5 0 
C 1.5 -0.397805 1.341951 -0.77937 1.06066 -1.06066 
C 0.77937 -1.341951 0.397805 -1.5 0 -1.5 
C -0.397805 -1.5 -0.77937 -1.341951 -1.06066 -1.06066 
C -1.341951 -0.77937 -1.5 -0.397805 -1.5 0 
C -1.5 0.397805 -1.341951 0.77937 -1.06066 1.06066 
C -0.77937 1.341951 -0.397805 1.5 0 1.5 
z
" id="m5edb14c0c2" style="stroke:#000080;"/>
    </defs>
    <g>
     <use style="fill:#000080;stroke:#000080;" x="164.964048" xlink:href="#m5edb14c0c2" y="277.876557"/>
     <use style="fill:#000080;stroke:#000080;" x="164.964048" xlink:href="#m5edb14c0c2" y="277.876557"/>
    </g>
   </g>
   <g id="line2d_35">
    <path d="M 5.356583 298.944 
L 5.356583 297.363942 
L 17.444571 297.363942 
L 17.444571 296.31057 
L 24.515591 296.31057 
L 24.515591 294.730511 
L 29.53256 294.730511 
L 29.53256 294.203825 
L 33.424023 294.203825 
L 33.424023 293.150453 
L 43.6746 293.150453 
L 43.6746 291.570395 
L 45.512012 291.570395 
L 45.512012 291.043709 
L 48.691568 291.043709 
L 48.691568 289.990337 
L 51.379845 289.990337 
L 51.379845 289.463651 
L 55.762588 289.463651 
L 55.762588 288.936964 
L 62.175444 288.936964 
L 62.175444 288.410278 
L 65.242851 288.410278 
L 65.242851 287.883592 
L 68.79347 287.883592 
L 68.79347 287.356906 
L 80.179111 287.356906 
L 80.179111 286.83022 
L 82.206598 286.83022 
L 82.206598 286.303534 
L 87.643811 286.303534 
L 87.643811 285.776848 
L 88.846997 285.776848 
L 88.846997 285.250162 
L 96.768882 285.250162 
L 96.768882 284.723476 
L 98.015075 284.723476 
L 98.015075 284.19679 
L 103.372333 284.19679 
L 103.372333 283.670104 
L 104.474128 283.670104 
L 104.474128 283.143418 
L 105.057436 283.143418 
L 105.057436 282.616732 
L 118.838828 282.616732 
L 118.838828 281.563359 
L 123.888302 281.563359 
L 123.888302 281.036673 
L 125.665205 281.036673 
L 125.665205 280.509987 
L 127.783662 280.509987 
L 127.783662 279.983301 
L 132.422528 279.983301 
L 132.422528 279.456615 
L 134.47127 279.456615 
L 134.47127 278.929929 
L 154.667942 278.929929 
L 154.667942 278.403243 
L 164.964048 278.403243 
L 164.964048 277.876557 
L 338.688 277.876557 
" style="fill:none;stroke:#000080;stroke-linecap:square;stroke-width:1.5;"/>
   </g>
   <g id="line2d_36">
    <defs>
     <path d="M 0 6 
C 1.591219 6 3.117479 5.367802 4.242641 4.242641 
C 5.367802 3.117479 6 1.591219 6 0 
C 6 -1.591219 5.367802 -3.117479 4.242641 -4.242641 
C 3.117479 -5.367802 1.591219 -6 0 -6 
C -1.591219 -6 -3.117479 -5.367802 -4.242641 -4.242641 
C -5.367802 -3.117479 -6 -1.591219 -6 0 
C -6 1.591219 -5.367802 3.117479 -4.242641 4.242641 
C -3.117479 5.367802 -1.591219 6 0 6 
z
" id="m68faeb928f" style="stroke:#000080;stroke-width:1.5;"/>
    </defs>
    <g>
     <use style="fill-opacity:0;stroke:#000080;stroke-width:1.5;" x="105.057436" xlink:href="#m68faeb928f" y="283.143418"/>
     <use style="fill-opacity:0;stroke:#000080;stroke-width:1.5;" x="164.964048" xlink:href="#m68faeb928f" y="278.403243"/>
     <use style="fill-opacity:0;stroke:#000080;stroke-width:1.5;" x="164.964048" xlink:href="#m68faeb928f" y="277.876557"/>
     <use style="fill-opacity:0;stroke:#000080;stroke-width:1.5;" x="164.964048" xlink:href="#m68faeb928f" y="277.876557"/>
     <use style="fill-opacity:0;stroke:#000080;stroke-width:1.5;" x="338.688" xlink:href="#m68faeb928f" y="277.876557"/>
    </g>
   </g>
   <g id="line2d_37">
    <path style="fill:none;stroke:#000080;stroke-linecap:square;stroke-width:1.5;"/>
    <g/>
   </g>
   <g id="line2d_38">
    <path clip-path="url(#pd7f7ab624b)" d="M 153.890309 278.929929 
" style="fill:none;stroke:#000080;stroke-linecap:square;stroke-width:1.5;"/>
    <defs>
     <path d="M -12 12 
L 12 -12 
M -12 -12 
L 12 12 
" id="m23b5d6f1ce" style="stroke:#000080;"/>
    </defs>
    <g clip-path="url(#pd7f7ab624b)">
     <use style="fill:#000080;stroke:#000080;" x="153.890309" xlink:href="#m23b5d6f1ce" y="278.929929"/>
    </g>
   </g>
   <g id="line2d_39">
    <defs>
     <path d="M 0 1.5 
C 0.397805 1.5 0.77937 1.341951 1.06066 1.06066 
C 1.341951 0.77937 1.5 0.397805 1.5 0 
C 1.5 -0.397805 1.341951 -0.77937 1.06066 -1.06066 
C 0.77937 -1.341951 0.397805 -1.5 0 -1.5 
C -0.397805 -1.5 -0.77937 -1.341951 -1.06066 -1.06066 
C -1.341951 -0.77937 -1.5 -0.397805 -1.5 0 
C -1.5 0.397805 -1.341951 0.77937 -1.06066 1.06066 
C -0.77937 1.341951 -0.397805 1.5 0 1.5 
z
" id="m76d57db259" style="stroke:#ff00ff;"/>
    </defs>
    <g>
     <use style="fill:#ff00ff;stroke:#ff00ff;" x="185.060404" xlink:href="#m76d57db259" y="146.205037"/>
     <use style="fill:#ff00ff;stroke:#ff00ff;" x="185.060404" xlink:href="#m76d57db259" y="146.205037"/>
    </g>
   </g>
   <g id="line2d_40">
    <path d="M 5.356583 298.944 
L 5.356583 291.570395 
L 17.444571 291.570395 
L 17.444571 289.990337 
L 36.60358 289.990337 
L 36.60358 289.463651 
L 50.087456 289.463651 
L 50.087456 288.936964 
L 51.379845 288.936964 
L 51.379845 287.883592 
L 64.079801 287.883592 
L 64.079801 287.356906 
L 65.242851 287.356906 
L 65.242851 286.83022 
L 68.328395 286.83022 
L 68.328395 284.723476 
L 73.227131 284.723476 
L 73.227131 283.670104 
L 76.759008 283.670104 
L 76.759008 282.616732 
L 78.941764 282.616732 
L 78.941764 281.563359 
L 80.416384 281.563359 
L 80.416384 281.036673 
L 81.109427 281.036673 
L 81.109427 280.509987 
L 82.206598 280.509987 
L 82.206598 279.983301 
L 83.037197 279.983301 
L 83.037197 279.456615 
L 83.23881 279.456615 
L 83.23881 278.929929 
L 83.830028 278.929929 
L 83.830028 278.403243 
L 84.02273 278.403243 
L 84.02273 277.876557 
L 84.772922 277.876557 
L 84.772922 277.349871 
L 85.136253 277.349871 
L 85.136253 276.823185 
L 85.315119 276.823185 
L 85.315119 276.296499 
L 87.329581 276.296499 
L 87.329581 275.769812 
L 87.643811 275.769812 
L 87.643811 275.243126 
L 88.701061 275.243126 
L 88.701061 274.71644 
L 88.991722 274.71644 
L 88.991722 274.189754 
L 89.558903 274.189754 
L 89.558903 273.663068 
L 90.108217 273.663068 
L 90.108217 273.136382 
L 91.284345 273.136382 
L 91.284345 272.609696 
L 92.621809 272.609696 
L 92.621809 271.556324 
L 93.533875 271.556324 
L 93.644601 270.502952 
L 95.125186 270.502952 
L 95.125186 269.976266 
L 96.583356 269.976266 
L 96.583356 269.449579 
L 97.134116 269.449579 
L 97.224242 268.396207 
L 97.491858 268.396207 
L 97.491858 267.869521 
L 97.755429 267.869521 
L 97.755429 267.342835 
L 99.258306 267.342835 
L 99.258306 266.816149 
L 99.886816 266.816149 
L 99.886816 266.289463 
L 100.116788 266.289463 
L 100.116788 265.762777 
L 100.268435 265.762777 
L 100.268435 265.236091 
L 100.641881 265.236091 
L 100.641881 264.709405 
L 103.117741 264.709405 
L 103.117741 263.656033 
L 103.372333 263.656033 
L 103.372333 263.129347 
L 103.870632 263.129347 
L 103.870632 262.60266 
L 104.23523 262.60266 
L 104.295262 261.549288 
L 105.114708 261.549288 
L 105.114708 261.022602 
L 105.341933 261.022602 
L 105.341933 260.495916 
L 106.435663 260.495916 
L 106.435663 259.96923 
L 106.593963 259.96923 
L 106.593963 259.442544 
L 106.802819 259.442544 
L 106.906317 258.389172 
L 107.712901 258.389172 
L 107.712901 257.862486 
L 108.054381 257.862486 
L 108.054381 257.3358 
L 108.198707 257.3358 
L 108.198707 256.809114 
L 108.764355 256.809114 
L 108.764355 255.229055 
L 108.902946 255.229055 
L 108.902946 254.175683 
L 109.040444 254.175683 
L 109.040444 253.648997 
L 109.222105 253.648997 
L 109.222105 253.122311 
L 109.357119 253.122311 
L 109.357119 252.595625 
L 109.535528 252.595625 
L 109.535528 252.068939 
L 110.016944 252.068939 
L 110.016944 251.542253 
L 110.358901 251.542253 
L 110.358901 251.015567 
L 110.818406 251.015567 
L 110.818406 250.488881 
L 111.225884 250.488881 
L 111.225884 249.435508 
L 111.465878 249.435508 
L 111.465878 248.908822 
L 111.780817 248.908822 
L 111.780817 248.382136 
L 112.051799 248.382136 
L 112.051799 247.85545 
L 112.204777 247.85545 
L 112.242812 246.802078 
L 113.022974 246.802078 
L 113.022974 245.748706 
L 113.55961 245.748706 
L 113.55961 244.168648 
L 114.045996 244.168648 
L 114.045996 243.641962 
L 114.250364 243.641962 
L 114.250364 243.115275 
L 114.452366 243.115275 
L 114.485807 242.061903 
L 114.947365 242.061903 
L 114.947365 241.535217 
L 115.10929 241.535217 
L 115.141496 240.481845 
L 115.617575 240.481845 
L 115.617575 239.955159 
L 115.866268 239.955159 
L 115.866268 239.428473 
L 116.972471 239.428473 
L 117.059162 237.848415 
L 117.316679 237.848415 
L 117.316679 236.268356 
L 117.458117 236.268356 
L 117.458117 235.74167 
L 117.958004 235.74167 
L 117.958004 235.214984 
L 118.094355 235.214984 
L 118.094355 234.688298 
L 118.363901 234.688298 
L 118.363901 234.161612 
L 118.576578 234.161612 
L 118.576578 233.634926 
L 118.838828 233.634926 
L 118.942633 232.054868 
L 118.968488 232.054868 
L 119.020084 231.001496 
L 119.577783 231.001496 
L 119.65247 229.948123 
L 120.689249 229.948123 
L 120.689249 229.421437 
L 120.8059 229.421437 
L 120.8059 228.894751 
L 120.990934 228.894751 
L 120.990934 228.368065 
L 121.105591 228.368065 
L 121.105591 227.841379 
L 121.579085 227.841379 
L 121.623516 226.788007 
L 121.734102 226.788007 
L 121.734102 226.261321 
L 122.191052 226.261321 
L 122.233953 225.207949 
L 122.80302 225.207949 
L 122.865118 224.154577 
L 122.988655 224.154577 
L 122.988655 223.627891 
L 123.212892 223.627891 
L 123.212892 223.101204 
L 123.374182 223.101204 
L 123.374182 222.574518 
L 123.810186 222.574518 
L 123.810186 222.047832 
L 124.139788 222.047832 
L 124.139788 221.521146 
L 124.557288 221.521146 
L 124.557288 220.99446 
L 124.669438 220.99446 
L 124.669438 220.467774 
L 124.799375 220.467774 
L 124.799375 219.941088 
L 125.019895 219.941088 
L 125.056379 218.887716 
L 125.345535 218.887716 
L 125.345535 218.36103 
L 125.488334 218.36103 
L 125.559298 217.307658 
L 125.700364 217.307658 
L 125.700364 216.780971 
L 126.048118 216.780971 
L 126.048118 216.254285 
L 126.338353 216.254285 
L 126.338353 215.727599 
L 126.47328 215.727599 
L 126.47328 215.200913 
L 127.002787 215.200913 
L 127.051614 213.620855 
L 127.132689 213.620855 
L 127.132689 213.094169 
L 127.245565 213.094169 
L 127.245565 212.567483 
L 127.40556 212.567483 
L 127.469149 210.987425 
L 127.76807 210.987425 
L 127.783662 209.934052 
L 127.969682 209.934052 
L 128.031251 208.353994 
L 128.123198 208.353994 
L 128.138476 207.300622 
L 128.245045 207.300622 
L 128.245045 206.773936 
L 128.441249 206.773936 
L 128.441249 206.24725 
L 128.664928 206.24725 
L 128.664928 205.720564 
L 128.827155 205.720564 
L 128.827155 205.193878 
L 128.973336 205.193878 
L 128.973336 204.667192 
L 129.132732 204.667192 
L 129.161557 203.613819 
L 129.936138 203.613819 
L 129.936138 203.087133 
L 130.073348 203.087133 
L 130.073348 202.560447 
L 130.331109 202.560447 
L 130.331109 202.033761 
L 130.545255 202.033761 
L 130.585116 200.980389 
L 131.728032 200.980389 
L 131.728032 200.453703 
L 131.962617 200.453703 
L 131.962617 199.927017 
L 132.133473 199.927017 
L 132.157744 198.873645 
L 132.314693 198.873645 
L 132.314693 198.346959 
L 132.70687 198.346959 
L 132.70687 197.820273 
L 132.823992 197.820273 
L 132.823992 197.293586 
L 132.986651 197.293586 
L 132.998212 196.240214 
L 133.589045 196.240214 
L 133.589045 195.713528 
L 133.899085 195.713528 
L 133.899085 195.186842 
L 134.450015 195.186842 
L 134.450015 194.660156 
L 134.650895 194.660156 
L 134.650895 194.13347 
L 134.911732 194.13347 
L 134.911732 193.606784 
L 135.097149 193.606784 
L 135.097149 193.080098 
L 135.270472 193.080098 
L 135.300881 192.026726 
L 135.46217 192.026726 
L 135.46217 191.50004 
L 135.681535 191.50004 
L 135.681535 190.973354 
L 135.98603 190.973354 
L 135.98603 190.446667 
L 136.275726 190.446667 
L 136.2853 189.393295 
L 136.617126 189.393295 
L 136.617126 188.866609 
L 137.016339 188.866609 
L 137.016339 188.339923 
L 137.244307 188.339923 
L 137.343676 187.286551 
L 137.406618 187.286551 
L 137.460387 186.233179 
L 137.629572 186.233179 
L 137.638431 185.179807 
L 137.814676 185.179807 
L 137.814676 184.653121 
L 138.058465 184.653121 
L 138.127497 183.599748 
L 138.366981 183.599748 
L 138.366981 183.073062 
L 138.611599 183.073062 
L 138.703494 182.01969 
L 139.793552 182.01969 
L 139.793552 181.493004 
L 140.363363 181.493004 
L 140.386075 180.439632 
L 140.973763 180.439632 
L 140.973763 179.912946 
L 141.292695 179.912946 
L 141.292695 178.859574 
L 141.428632 178.859574 
L 141.428632 178.332888 
L 141.563518 178.332888 
L 141.563518 177.806202 
L 141.711399 177.806202 
L 141.795343 176.752829 
L 142.304254 176.752829 
L 142.304254 176.226143 
L 143.21537 176.226143 
L 143.21537 175.699457 
L 143.49614 175.699457 
L 143.49614 175.172771 
L 143.716296 175.172771 
L 143.716296 174.646085 
L 144.203235 174.646085 
L 144.203235 174.119399 
L 144.456682 174.119399 
L 144.456682 173.592713 
L 145.010918 173.592713 
L 145.080421 172.539341 
L 145.384119 172.539341 
L 145.435169 170.959282 
L 145.621085 170.959282 
L 145.621085 170.432596 
L 145.771737 170.432596 
L 145.771737 169.90591 
L 146.38313 169.90591 
L 146.40993 168.325852 
L 147.025591 168.325852 
L 147.04626 167.27248 
L 147.149238 167.27248 
L 147.149238 166.745794 
L 147.282207 166.745794 
L 147.282207 165.692422 
L 147.90278 165.692422 
L 147.90278 165.165736 
L 148.098345 165.165736 
L 148.098345 164.63905 
L 148.373289 164.63905 
L 148.449693 163.058991 
L 148.549469 163.058991 
L 148.549469 162.532305 
L 148.840756 162.532305 
L 148.924421 161.478933 
L 148.966103 161.478933 
L 148.966103 160.952247 
L 149.205001 160.952247 
L 149.205001 160.425561 
L 149.45417 160.425561 
L 149.45417 159.898875 
L 149.735275 159.898875 
L 149.757392 158.845503 
L 150.202563 158.845503 
L 150.245601 157.265444 
L 150.707961 157.265444 
L 150.707961 156.738758 
L 150.903606 156.738758 
L 150.94908 155.685386 
L 151.509721 155.685386 
L 151.509721 155.1587 
L 151.865879 155.1587 
L 151.881541 154.105328 
L 152.137948 154.105328 
L 152.137948 153.578642 
L 152.474064 153.578642 
L 152.474064 153.051956 
L 152.662192 153.051956 
L 152.703309 151.998584 
L 153.025137 151.998584 
L 153.025137 151.471897 
L 153.200188 151.471897 
L 153.276224 149.891839 
L 153.448784 149.891839 
L 153.448784 149.365153 
L 165.255488 149.365153 
L 165.255488 148.838467 
L 165.803027 148.838467 
L 165.803027 148.311781 
L 177.893657 148.311781 
L 177.964843 147.258409 
L 181.598309 147.258409 
L 181.598309 146.731723 
L 185.060404 146.731723 
L 185.060404 146.205037 
L 338.688 146.205037 
L 338.688 146.205037 
" style="fill:none;stroke:#ff00ff;stroke-linecap:square;stroke-width:1.5;"/>
   </g>
   <g id="line2d_41">
    <defs>
     <path d="M -0 8.485281 
L 5.091169 0 
L 0 -8.485281 
L -5.091169 -0 
z
" id="m9a10f5ab55" style="stroke:#ff00ff;stroke-linejoin:miter;stroke-width:1.5;"/>
    </defs>
    <g>
     <use style="fill-opacity:0;stroke:#ff00ff;stroke-linejoin:miter;stroke-width:1.5;" x="100.641881" xlink:href="#m9a10f5ab55" y="265.236091"/>
     <use style="fill-opacity:0;stroke:#ff00ff;stroke-linejoin:miter;stroke-width:1.5;" x="133.589045" xlink:href="#m9a10f5ab55" y="195.713528"/>
     <use style="fill-opacity:0;stroke:#ff00ff;stroke-linejoin:miter;stroke-width:1.5;" x="185.060404" xlink:href="#m9a10f5ab55" y="146.731723"/>
     <use style="fill-opacity:0;stroke:#ff00ff;stroke-linejoin:miter;stroke-width:1.5;" x="185.060404" xlink:href="#m9a10f5ab55" y="146.205037"/>
     <use style="fill-opacity:0;stroke:#ff00ff;stroke-linejoin:miter;stroke-width:1.5;" x="185.060404" xlink:href="#m9a10f5ab55" y="146.205037"/>
     <use style="fill-opacity:0;stroke:#ff00ff;stroke-linejoin:miter;stroke-width:1.5;" x="338.688" xlink:href="#m9a10f5ab55" y="146.205037"/>
    </g>
   </g>
   <g id="line2d_42">
    <path style="fill:none;stroke:#ff00ff;stroke-linecap:square;stroke-width:1.5;"/>
    <g/>
   </g>
   <g id="line2d_43">
    <path clip-path="url(#pd7f7ab624b)" d="M 153.862384 149.365153 
" style="fill:none;stroke:#ff00ff;stroke-linecap:square;stroke-width:1.5;"/>
    <defs>
     <path d="M -12 12 
L 12 -12 
M -12 -12 
L 12 12 
" id="m2d55eb89b2" style="stroke:#ff00ff;"/>
    </defs>
    <g clip-path="url(#pd7f7ab624b)">
     <use style="fill:#ff00ff;stroke:#ff00ff;" x="153.862384" xlink:href="#m2d55eb89b2" y="149.365153"/>
    </g>
   </g>
   <g id="line2d_44">
    <defs>
     <path d="M 0 1.5 
C 0.397805 1.5 0.77937 1.341951 1.06066 1.06066 
C 1.341951 0.77937 1.5 0.397805 1.5 0 
C 1.5 -0.397805 1.341951 -0.77937 1.06066 -1.06066 
C 0.77937 -1.341951 0.397805 -1.5 0 -1.5 
C -0.397805 -1.5 -0.77937 -1.341951 -1.06066 -1.06066 
C -1.341951 -0.77937 -1.5 -0.397805 -1.5 0 
C -1.5 0.397805 -1.341951 0.77937 -1.06066 1.06066 
C -0.77937 1.341951 -0.397805 1.5 0 1.5 
z
" id="m4386564fdb" style="stroke:#ff7500;"/>
    </defs>
    <g>
     <use style="fill:#ff7500;stroke:#ff7500;" x="200.991209" xlink:href="#m4386564fdb" y="193.606784"/>
     <use style="fill:#ff7500;stroke:#ff7500;" x="200.991209" xlink:href="#m4386564fdb" y="193.606784"/>
    </g>
   </g>
   <g id="line2d_45">
    <path d="M 5.356583 298.944 
L 5.356583 298.417314 
L 17.444571 298.417314 
L 17.444571 296.837256 
L 24.515591 296.837256 
L 24.515591 294.730511 
L 29.53256 294.730511 
L 29.53256 293.677139 
L 33.424023 293.677139 
L 33.424023 292.623767 
L 47.174153 292.623767 
L 47.174153 291.570395 
L 54.765787 291.570395 
L 54.765787 291.043709 
L 55.762588 291.043709 
L 55.762588 290.517023 
L 58.450865 290.517023 
L 58.450865 289.990337 
L 61.491463 289.990337 
L 61.491463 288.410278 
L 62.175444 288.410278 
L 62.175444 287.883592 
L 62.833608 287.883592 
L 62.833608 286.83022 
L 66.333161 286.83022 
L 66.333161 285.776848 
L 83.037197 285.776848 
L 83.037197 285.250162 
L 91.284345 285.250162 
L 91.284345 284.723476 
L 91.782644 284.723476 
L 91.782644 284.19679 
L 94.187924 284.19679 
L 94.187924 283.670104 
L 94.610715 283.670104 
L 94.610715 283.143418 
L 96.676366 283.143418 
L 96.676366 282.616732 
L 97.134116 282.616732 
L 97.134116 282.090045 
L 97.491858 282.090045 
L 97.491858 281.563359 
L 102.397818 281.563359 
L 102.397818 281.036673 
L 103.053508 281.036673 
L 103.053508 280.509987 
L 106.222336 280.509987 
L 106.222336 279.983301 
L 106.541356 279.983301 
L 106.541356 279.456615 
L 107.162405 279.456615 
L 107.162405 278.929929 
L 107.314272 278.929929 
L 107.314272 278.403243 
L 107.712901 278.403243 
L 107.712901 277.876557 
L 110.316522 277.876557 
L 110.316522 277.349871 
L 111.30625 277.349871 
L 111.30625 276.823185 
L 111.702614 276.823185 
L 111.702614 276.296499 
L 112.877038 276.296499 
L 112.877038 275.769812 
L 114.080224 275.769812 
L 114.080224 275.243126 
L 114.250364 275.243126 
L 114.250364 274.71644 
L 114.816733 274.71644 
L 114.816733 274.189754 
L 115.4287 274.189754 
L 115.4287 273.663068 
L 116.35326 273.663068 
L 116.35326 273.136382 
L 116.768501 273.136382 
L 116.768501 272.609696 
L 118.094355 272.609696 
L 118.094355 272.08301 
L 119.577783 272.08301 
L 119.62761 271.029638 
L 120.829137 271.029638 
L 120.829137 269.976266 
L 120.944859 269.976266 
L 120.944859 269.449579 
L 122.018385 269.449579 
L 122.018385 268.922893 
L 122.782271 268.922893 
L 122.782271 268.396207 
L 122.968126 268.396207 
L 122.968126 267.869521 
L 123.152022 267.869521 
L 123.152022 266.816149 
L 123.751369 266.816149 
L 123.751369 266.289463 
L 126.855481 266.289463 
L 126.855481 265.762777 
L 127.309739 265.762777 
L 127.309739 265.236091 
L 127.892415 265.236091 
L 127.892415 264.709405 
L 128.501178 264.709405 
L 128.60556 263.656033 
L 128.987887 263.656033 
L 128.987887 263.129347 
L 129.560187 263.129347 
L 129.560187 262.60266 
L 129.686407 262.60266 
L 129.686407 262.075974 
L 129.88095 262.075974 
L 129.88095 261.549288 
L 130.65135 261.549288 
L 130.7305 260.495916 
L 131.185181 260.495916 
L 131.185181 259.96923 
L 131.427132 259.96923 
L 131.490249 258.915858 
L 131.553138 258.915858 
L 131.553138 258.389172 
L 131.765283 258.389172 
L 131.765283 257.862486 
L 132.157744 257.862486 
L 132.157744 257.3358 
L 132.541568 257.3358 
L 132.541568 256.809114 
L 132.742089 256.809114 
L 132.742089 256.282427 
L 133.044378 256.282427 
L 133.044378 255.755741 
L 133.488207 255.755741 
L 133.5443 254.702369 
L 134.225266 254.702369 
L 134.225266 254.175683 
L 135.056115 254.175683 
L 135.056115 253.648997 
L 135.341343 253.648997 
L 135.401861 252.595625 
L 135.711236 252.595625 
L 135.740886 251.542253 
L 136.092812 251.542253 
L 136.092812 251.015567 
L 136.418789 251.015567 
L 136.418789 250.488881 
L 136.560688 250.488881 
L 136.635898 249.435508 
L 137.226179 249.435508 
L 137.289545 247.85545 
L 137.68266 247.85545 
L 137.68266 247.328764 
L 139.172077 247.328764 
L 139.204493 246.275392 
L 139.293324 246.275392 
L 139.293324 245.748706 
L 139.445704 245.748706 
L 139.445704 245.22202 
L 139.926112 245.22202 
L 139.926112 244.695334 
L 140.080785 244.695334 
L 140.180592 242.588589 
L 140.438956 242.588589 
L 140.438956 242.061903 
L 140.633978 242.061903 
L 140.633978 241.535217 
L 141.227931 241.535217 
L 141.299876 240.481845 
L 141.577657 240.481845 
L 141.577657 239.955159 
L 141.80232 239.955159 
L 141.80232 239.428473 
L 141.982752 239.428473 
L 141.982752 238.901787 
L 142.432559 238.901787 
L 142.432559 238.375101 
L 142.686372 238.375101 
L 142.792145 236.795043 
L 142.988757 236.795043 
L 143.099194 235.74167 
L 143.131543 235.74167 
L 143.131543 235.214984 
L 143.381826 235.214984 
L 143.381826 234.688298 
L 143.86567 234.688298 
L 143.86567 234.161612 
L 144.056737 234.161612 
L 144.160633 232.581554 
L 144.178904 232.581554 
L 144.178904 232.054868 
L 144.647343 232.054868 
L 144.647343 231.528182 
L 144.788982 231.528182 
L 144.818346 230.47481 
L 145.103527 230.47481 
L 145.103527 229.948123 
L 145.252974 229.948123 
L 145.252974 229.421437 
L 145.893535 229.421437 
L 145.981585 228.368065 
L 146.372398 228.368065 
L 146.415286 226.788007 
L 146.691515 226.788007 
L 146.723108 225.734635 
L 148.117781 225.734635 
L 148.117781 225.207949 
L 148.525764 225.207949 
L 148.525764 224.681263 
L 148.87334 224.681263 
L 148.95222 223.627891 
L 149.099738 223.627891 
L 149.099738 223.101204 
L 149.659866 223.101204 
L 149.761812 222.047832 
L 150.429467 222.047832 
L 150.429467 221.521146 
L 150.911883 221.521146 
L 150.911883 220.99446 
L 151.905007 220.99446 
L 151.905007 220.467774 
L 153.809903 220.467774 
L 153.809903 219.941088 
L 158.430839 219.941088 
L 158.430839 219.414402 
L 159.582872 219.414402 
L 159.582872 218.887716 
L 160.03251 218.887716 
L 160.127894 217.834344 
L 160.244578 217.834344 
L 160.244578 217.307658 
L 160.518612 217.307658 
L 160.518612 216.780971 
L 160.736665 216.780971 
L 160.736665 216.254285 
L 160.877419 216.254285 
L 160.877419 215.727599 
L 161.02168 215.727599 
L 161.02168 215.200913 
L 161.26102 215.200913 
L 161.272444 214.147541 
L 162.299167 214.147541 
L 162.299167 213.620855 
L 162.63826 213.620855 
L 162.63826 213.094169 
L 163.065945 213.094169 
L 163.065945 212.567483 
L 163.501492 212.567483 
L 163.501492 212.040797 
L 164.787563 212.040797 
L 164.787563 211.514111 
L 165.013882 211.514111 
L 165.013882 210.987425 
L 165.160709 210.987425 
L 165.160709 209.934052 
L 168.917874 209.934052 
L 168.917874 209.407366 
L 169.756386 209.407366 
L 169.756386 208.88068 
L 170.371694 208.88068 
L 170.371694 208.353994 
L 170.684714 208.353994 
L 170.684714 207.827308 
L 170.88856 207.827308 
L 170.88856 207.300622 
L 171.110853 207.300622 
L 171.110853 206.773936 
L 171.553449 206.773936 
L 171.553449 206.24725 
L 172.508539 206.24725 
L 172.508539 205.720564 
L 172.795186 205.720564 
L 172.795186 205.193878 
L 175.577416 205.193878 
L 175.577416 204.667192 
L 177.100949 204.667192 
L 177.100949 204.140506 
L 177.48108 204.140506 
L 177.590744 202.033761 
L 177.876036 202.033761 
L 177.876036 201.507075 
L 181.075709 201.507075 
L 181.075709 200.980389 
L 181.189802 200.980389 
L 181.20656 199.927017 
L 181.491165 199.927017 
L 181.491165 198.873645 
L 181.805715 198.873645 
L 181.805715 197.820273 
L 187.493588 197.820273 
L 187.555434 196.7669 
L 187.717123 196.7669 
L 187.717123 196.240214 
L 189.6006 196.240214 
L 189.688586 195.186842 
L 192.029923 195.186842 
L 192.029923 194.660156 
L 193.426955 194.660156 
L 193.426955 194.13347 
L 200.991209 194.13347 
L 200.991209 193.606784 
L 338.688 193.606784 
L 338.688 193.606784 
" style="fill:none;stroke:#ff7500;stroke-linecap:square;stroke-width:1.5;"/>
   </g>
   <g id="line2d_46">
    <defs>
     <path d="M 0 -6 
L -1.347084 -1.854102 
L -5.706339 -1.854102 
L -2.179628 0.708204 
L -3.526712 4.854102 
L -0 2.291796 
L 3.526712 4.854102 
L 2.179628 0.708204 
L 5.706339 -1.854102 
L 1.347084 -1.854102 
z
" id="m5029262c1a" style="stroke:#ff7500;stroke-linejoin:bevel;stroke-width:1.5;"/>
    </defs>
    <g>
     <use style="fill-opacity:0;stroke:#ff7500;stroke-linejoin:bevel;stroke-width:1.5;" x="83.037197" xlink:href="#m5029262c1a" y="285.250162"/>
     <use style="fill-opacity:0;stroke:#ff7500;stroke-linejoin:bevel;stroke-width:1.5;" x="146.388493" xlink:href="#m5029262c1a" y="227.314693"/>
     <use style="fill-opacity:0;stroke:#ff7500;stroke-linejoin:bevel;stroke-width:1.5;" x="200.991209" xlink:href="#m5029262c1a" y="194.13347"/>
     <use style="fill-opacity:0;stroke:#ff7500;stroke-linejoin:bevel;stroke-width:1.5;" x="200.991209" xlink:href="#m5029262c1a" y="193.606784"/>
     <use style="fill-opacity:0;stroke:#ff7500;stroke-linejoin:bevel;stroke-width:1.5;" x="200.991209" xlink:href="#m5029262c1a" y="193.606784"/>
     <use style="fill-opacity:0;stroke:#ff7500;stroke-linejoin:bevel;stroke-width:1.5;" x="338.688" xlink:href="#m5029262c1a" y="193.606784"/>
    </g>
   </g>
   <g id="line2d_47">
    <path style="fill:none;stroke:#ff7500;stroke-linecap:square;stroke-width:1.5;"/>
    <g/>
   </g>
   <g id="line2d_48">
    <path clip-path="url(#pd7f7ab624b)" d="M 153.890309 219.941088 
" style="fill:none;stroke:#ff7500;stroke-linecap:square;stroke-width:1.5;"/>
    <defs>
     <path d="M -12 12 
L 12 -12 
M -12 -12 
L 12 12 
" id="md25033cfd2" style="stroke:#ff7500;"/>
    </defs>
    <g clip-path="url(#pd7f7ab624b)">
     <use style="fill:#ff7500;stroke:#ff7500;" x="153.890309" xlink:href="#md25033cfd2" y="219.941088"/>
    </g>
   </g>
   <g id="line2d_49">
    <defs>
     <path d="M 0 1.5 
C 0.397805 1.5 0.77937 1.341951 1.06066 1.06066 
C 1.341951 0.77937 1.5 0.397805 1.5 0 
C 1.5 -0.397805 1.341951 -0.77937 1.06066 -1.06066 
C 0.77937 -1.341951 0.397805 -1.5 0 -1.5 
C -0.397805 -1.5 -0.77937 -1.341951 -1.06066 -1.06066 
C -1.341951 -0.77937 -1.5 -0.397805 -1.5 0 
C -1.5 0.397805 -1.341951 0.77937 -1.06066 1.06066 
C -0.77937 1.341951 -0.397805 1.5 0 1.5 
z
" id="m30c6708717" style="stroke:#6495ed;"/>
    </defs>
    <g>
     <use style="fill:#6495ed;stroke:#6495ed;" x="172.977085" xlink:href="#m30c6708717" y="193.606784"/>
     <use style="fill:#6495ed;stroke:#6495ed;" x="172.977085" xlink:href="#m30c6708717" y="193.606784"/>
    </g>
   </g>
   <g id="line2d_50">
    <path d="M 5.356583 298.944 
L 5.356583 298.417314 
L 17.444571 298.417314 
L 17.444571 296.837256 
L 24.515591 296.837256 
L 24.515591 294.730511 
L 29.53256 294.730511 
L 29.53256 294.203825 
L 33.424023 294.203825 
L 33.424023 293.150453 
L 45.512012 293.150453 
L 45.512012 292.623767 
L 47.174153 292.623767 
L 47.174153 291.570395 
L 54.765787 291.570395 
L 54.765787 291.043709 
L 58.450865 291.043709 
L 58.450865 290.517023 
L 60.037348 290.517023 
L 60.037348 289.990337 
L 61.491463 289.990337 
L 61.491463 289.463651 
L 62.175444 289.463651 
L 62.175444 288.936964 
L 62.833608 288.936964 
L 62.833608 287.883592 
L 66.333161 287.883592 
L 66.333161 286.83022 
L 70.949209 286.83022 
L 70.949209 285.776848 
L 77.330839 285.776848 
L 77.330839 285.250162 
L 84.955534 285.250162 
L 84.955534 284.723476 
L 85.136253 284.723476 
L 85.136253 284.19679 
L 87.170317 284.19679 
L 87.170317 283.143418 
L 89.135256 283.143418 
L 89.135256 282.616732 
L 89.418828 282.616732 
L 89.418828 282.090045 
L 91.659398 282.090045 
L 91.659398 281.563359 
L 92.026554 281.563359 
L 92.026554 281.036673 
L 97.842408 281.036673 
L 97.842408 280.509987 
L 98.18605 280.509987 
L 98.18605 279.983301 
L 99.496659 279.983301 
L 99.496659 279.456615 
L 100.418775 279.456615 
L 100.418775 278.929929 
L 103.685435 278.929929 
L 103.685435 278.403243 
L 103.870632 278.403243 
L 103.870632 277.876557 
L 103.993014 277.876557 
L 103.993014 277.349871 
L 104.23523 277.349871 
L 104.295262 275.769812 
L 104.651178 275.769812 
L 104.651178 275.243126 
L 105.787689 275.243126 
L 105.787689 274.71644 
L 108.341848 274.71644 
L 108.341848 274.189754 
L 110.77713 274.189754 
L 110.77713 273.663068 
L 111.584648 273.663068 
L 111.584648 273.136382 
L 111.74176 273.136382 
L 111.780817 272.08301 
L 111.858671 272.08301 
L 111.858671 271.556324 
L 112.242812 271.556324 
L 112.242812 271.029638 
L 112.986604 271.029638 
L 112.986604 270.502952 
L 114.585746 270.502952 
L 114.652055 269.449579 
L 115.0447 269.449579 
L 115.10929 268.396207 
L 116.943478 268.396207 
L 117.030313 267.342835 
L 117.087964 267.342835 
L 117.087964 266.816149 
L 117.542433 266.816149 
L 117.542433 266.289463 
L 119.173961 266.289463 
L 119.173961 265.762777 
L 119.351785 265.762777 
L 119.351785 265.236091 
L 119.62761 265.236091 
L 119.62761 264.709405 
L 119.776241 264.709405 
L 119.776241 264.182719 
L 120.759333 264.182719 
L 120.759333 263.656033 
L 121.909593 263.656033 
L 121.909593 263.129347 
L 122.657258 263.129347 
L 122.657258 262.60266 
L 122.823744 262.60266 
L 122.906394 261.022602 
L 124.500941 261.022602 
L 124.500941 259.96923 
L 125.147256 259.96923 
L 125.147256 259.442544 
L 125.840299 259.442544 
L 125.927192 257.862486 
L 125.961828 257.862486 
L 126.030894 256.282427 
L 127.067859 256.282427 
L 127.067859 255.755741 
L 127.325746 255.755741 
L 127.389626 254.702369 
L 127.437383 254.702369 
L 127.437383 254.175683 
L 128.60556 254.175683 
L 128.60556 253.648997 
L 128.958773 253.648997 
L 128.958773 253.122311 
L 129.602362 253.122311 
L 129.602362 252.595625 
L 129.825588 252.595625 
L 129.825588 252.068939 
L 130.331109 252.068939 
L 130.331109 251.542253 
L 130.76994 251.542253 
L 130.822389 250.488881 
L 131.82719 250.488881 
L 131.839545 248.908822 
L 132.338714 248.908822 
L 132.338714 248.382136 
L 132.517825 248.382136 
L 132.517825 247.85545 
L 132.695115 247.85545 
L 132.695115 247.328764 
L 132.951923 247.328764 
L 132.951923 246.802078 
L 133.19358 246.802078 
L 133.19358 246.275392 
L 133.700407 246.275392 
L 133.788988 245.22202 
L 133.866129 245.22202 
L 133.953874 244.168648 
L 134.807865 244.168648 
L 134.807865 243.641962 
L 135.401861 243.641962 
L 135.472201 242.061903 
L 135.621981 242.061903 
L 135.721125 241.008531 
L 136.102487 241.008531 
L 136.102487 240.481845 
L 136.729457 240.481845 
L 136.729457 239.955159 
L 136.915081 239.955159 
L 136.988781 238.375101 
L 137.126135 238.375101 
L 137.126135 237.848415 
L 137.307607 237.848415 
L 137.352682 236.795043 
L 137.971788 236.795043 
L 137.971788 236.268356 
L 138.33297 236.268356 
L 138.33297 235.74167 
L 138.477062 235.74167 
L 138.477062 235.214984 
L 139.115206 235.214984 
L 139.115206 234.688298 
L 139.738675 234.688298 
L 139.738675 234.161612 
L 140.065379 234.161612 
L 140.088482 233.10824 
L 140.47663 233.10824 
L 140.47663 232.581554 
L 140.871049 232.581554 
L 140.878406 231.528182 
L 141.046761 231.528182 
L 141.090414 230.47481 
L 141.774395 230.47481 
L 141.774395 229.948123 
L 141.989655 229.948123 
L 141.989655 229.421437 
L 142.161336 229.421437 
L 142.161336 228.894751 
L 142.472881 228.894751 
L 142.566605 227.841379 
L 142.706253 227.841379 
L 142.706253 227.314693 
L 143.298796 227.314693 
L 143.343554 226.261321 
L 143.853271 226.261321 
L 143.853271 225.734635 
L 144.087359 225.734635 
L 144.172816 223.627891 
L 144.653267 223.627891 
L 144.653267 223.101204 
L 145.120836 223.101204 
L 145.120836 222.574518 
L 145.355693 222.574518 
L 145.355693 222.047832 
L 145.604265 222.047832 
L 145.682619 220.467774 
L 145.921099 220.467774 
L 145.921099 219.941088 
L 146.367029 219.941088 
L 146.367029 219.414402 
L 146.617575 219.414402 
L 146.696785 217.834344 
L 146.807077 217.834344 
L 146.807077 217.307658 
L 147.575226 217.307658 
L 147.6552 215.727599 
L 147.799224 215.727599 
L 147.833811 214.674227 
L 148.044783 214.674227 
L 148.044783 214.147541 
L 148.190475 214.147541 
L 148.190475 213.620855 
L 148.392421 213.620855 
L 148.444928 212.567483 
L 148.76605 212.567483 
L 148.76605 212.040797 
L 148.956849 212.040797 
L 148.956849 211.514111 
L 149.205001 211.514111 
L 149.205001 210.987425 
L 149.633173 210.987425 
L 149.633173 210.460738 
L 149.83238 210.460738 
L 149.937701 208.88068 
L 150.003205 208.88068 
L 150.003205 208.353994 
L 150.301393 208.353994 
L 150.318524 207.300622 
L 150.858013 207.300622 
L 150.924291 206.24725 
L 150.986198 206.24725 
L 150.986198 205.720564 
L 151.272229 205.720564 
L 151.272229 205.193878 
L 151.389366 205.193878 
L 151.389366 204.667192 
L 151.545665 204.667192 
L 151.62925 203.613819 
L 152.052897 203.613819 
L 152.052897 203.087133 
L 152.222586 203.087133 
L 152.314453 201.507075 
L 152.511852 201.507075 
L 152.511852 200.980389 
L 153.039792 200.980389 
L 153.109235 199.927017 
L 153.301495 199.927017 
L 153.301495 199.400331 
L 153.725604 199.400331 
L 153.725604 198.873645 
L 163.350082 198.873645 
L 163.350082 198.346959 
L 164.113737 198.346959 
L 164.113737 197.820273 
L 164.276 197.820273 
L 164.276 197.293586 
L 164.527973 197.293586 
L 164.527973 196.7669 
L 165.558223 196.7669 
L 165.558223 196.240214 
L 165.705872 196.240214 
L 165.714726 195.186842 
L 172.770395 195.186842 
L 172.868174 194.13347 
L 172.977085 194.13347 
L 172.977085 193.606784 
L 338.688 193.606784 
L 338.688 193.606784 
" style="fill:none;stroke:#6495ed;stroke-linecap:square;stroke-width:1.5;"/>
   </g>
   <g id="line2d_51">
    <defs>
     <path d="M -0 6 
L 6 -6 
L -6 -6 
z
" id="m25551fae82" style="stroke:#6495ed;stroke-linejoin:miter;stroke-width:1.5;"/>
    </defs>
    <g>
     <use style="fill-opacity:0;stroke:#6495ed;stroke-linejoin:miter;stroke-width:1.5;" x="126.030894" xlink:href="#m25551fae82" y="256.282427"/>
     <use style="fill-opacity:0;stroke:#6495ed;stroke-linejoin:miter;stroke-width:1.5;" x="172.977085" xlink:href="#m25551fae82" y="194.13347"/>
     <use style="fill-opacity:0;stroke:#6495ed;stroke-linejoin:miter;stroke-width:1.5;" x="172.977085" xlink:href="#m25551fae82" y="193.606784"/>
     <use style="fill-opacity:0;stroke:#6495ed;stroke-linejoin:miter;stroke-width:1.5;" x="172.977085" xlink:href="#m25551fae82" y="193.606784"/>
     <use style="fill-opacity:0;stroke:#6495ed;stroke-linejoin:miter;stroke-width:1.5;" x="338.688" xlink:href="#m25551fae82" y="193.606784"/>
    </g>
   </g>
   <g id="line2d_52">
    <path style="fill:none;stroke:#6495ed;stroke-linecap:square;stroke-width:1.5;"/>
    <g/>
   </g>
   <g id="line2d_53">
    <path clip-path="url(#pd7f7ab624b)" d="M 153.890309 198.873645 
" style="fill:none;stroke:#6495ed;stroke-linecap:square;stroke-width:1.5;"/>
    <defs>
     <path d="M -12 12 
L 12 -12 
M -12 -12 
L 12 12 
" id="m8ad987550d" style="stroke:#6495ed;"/>
    </defs>
    <g clip-path="url(#pd7f7ab624b)">
     <use style="fill:#6495ed;stroke:#6495ed;" x="153.890309" xlink:href="#m8ad987550d" y="198.873645"/>
    </g>
   </g>
   <g id="line2d_54">
    <defs>
     <path d="M 0 1.5 
C 0.397805 1.5 0.77937 1.341951 1.06066 1.06066 
C 1.341951 0.77937 1.5 0.397805 1.5 0 
C 1.5 -0.397805 1.341951 -0.77937 1.06066 -1.06066 
C 0.77937 -1.341951 0.397805 -1.5 0 -1.5 
C -0.397805 -1.5 -0.77937 -1.341951 -1.06066 -1.06066 
C -1.341951 -0.77937 -1.5 -0.397805 -1.5 0 
C -1.5 0.397805 -1.341951 0.77937 -1.06066 1.06066 
C -0.77937 1.341951 -0.397805 1.5 0 1.5 
z
" id="mc67a9a9db3" style="stroke:#ff0000;"/>
    </defs>
    <g>
     <use style="fill:#ff0000;stroke:#ff0000;" x="220.559679" xlink:href="#mc67a9a9db3" y="219.941088"/>
     <use style="fill:#ff0000;stroke:#ff0000;" x="220.559679" xlink:href="#mc67a9a9db3" y="219.941088"/>
    </g>
   </g>
   <g id="line2d_55">
    <path d="M 5.356583 298.944 
L 5.356583 298.417314 
L 17.444571 298.417314 
L 17.444571 296.31057 
L 24.515591 296.31057 
L 24.515591 293.150453 
L 29.53256 293.150453 
L 29.53256 292.623767 
L 45.512012 292.623767 
L 45.512012 291.570395 
L 47.174153 291.570395 
L 47.174153 291.043709 
L 54.765787 291.043709 
L 54.765787 290.517023 
L 58.450865 290.517023 
L 58.450865 289.990337 
L 60.037348 289.990337 
L 60.037348 289.463651 
L 61.491463 289.463651 
L 61.491463 287.883592 
L 66.333161 287.883592 
L 66.333161 286.303534 
L 70.949209 286.303534 
L 70.949209 285.776848 
L 76.465904 285.776848 
L 76.465904 285.250162 
L 77.330839 285.250162 
L 77.330839 284.723476 
L 82.206598 284.723476 
L 82.206598 284.19679 
L 82.417986 284.19679 
L 82.417986 283.670104 
L 82.833227 283.670104 
L 82.833227 283.143418 
L 84.401859 283.143418 
L 84.401859 282.616732 
L 85.492169 282.616732 
L 85.492169 282.090045 
L 86.351421 282.090045 
L 86.351421 281.563359 
L 88.991722 281.563359 
L 88.991722 281.036673 
L 89.135256 281.036673 
L 89.135256 280.509987 
L 89.697862 280.509987 
L 89.697862 279.983301 
L 90.242884 279.983301 
L 90.242884 279.456615 
L 90.901048 279.456615 
L 90.901048 278.929929 
L 91.157513 278.929929 
L 91.157513 278.403243 
L 91.905025 278.403243 
L 91.905025 277.876557 
L 94.400601 277.876557 
L 94.400601 277.349871 
L 94.921215 277.349871 
L 94.921215 276.823185 
L 95.226283 276.823185 
L 95.326798 275.769812 
L 98.935347 275.769812 
L 98.935347 275.243126 
L 99.731799 275.243126 
L 99.731799 274.71644 
L 99.963811 274.71644 
L 99.963811 274.189754 
L 101.223245 274.189754 
L 101.223245 273.663068 
L 101.365607 273.663068 
L 101.365607 273.136382 
L 101.854917 273.136382 
L 101.854917 272.609696 
L 101.992235 272.609696 
L 101.992235 272.08301 
L 103.93193 272.08301 
L 103.93193 271.556324 
L 104.053884 271.556324 
L 104.053884 271.029638 
L 104.355088 271.029638 
L 104.355088 270.502952 
L 106.541356 270.502952 
L 106.541356 269.976266 
L 107.111487 269.976266 
L 107.111487 269.449579 
L 108.530893 269.449579 
L 108.530893 268.396207 
L 108.764355 268.396207 
L 108.764355 267.869521 
L 109.756002 267.869521 
L 109.756002 267.342835 
L 110.231452 267.342835 
L 110.274038 266.289463 
L 110.694282 266.289463 
L 110.735755 265.236091 
L 113.311233 265.236091 
L 113.311233 264.709405 
L 113.55961 264.709405 
L 113.55961 264.182719 
L 114.114385 264.182719 
L 114.114385 263.656033 
L 114.351658 263.656033 
L 114.452366 262.60266 
L 116.502698 262.60266 
L 116.502698 262.075974 
L 117.174084 262.075974 
L 117.202696 261.022602 
L 118.310324 261.022602 
L 118.310324 260.495916 
L 118.681952 260.495916 
L 118.681952 259.442544 
L 119.677294 259.442544 
L 119.677294 258.915858 
L 119.972465 258.915858 
L 119.996839 257.862486 
L 120.358413 257.862486 
L 120.382253 256.282427 
L 120.524615 256.282427 
L 120.524615 255.755741 
L 123.613353 255.755741 
L 123.633136 254.702369 
L 124.946698 254.702369 
L 124.946698 254.175683 
L 125.183475 254.175683 
L 125.183475 253.648997 
L 126.70692 253.648997 
L 126.78961 252.595625 
L 127.197279 252.595625 
L 127.213389 251.542253 
L 127.325746 251.542253 
L 127.325746 251.015567 
L 127.500856 251.015567 
L 127.54831 249.962195 
L 128.45625 249.962195 
L 128.45625 249.435508 
L 128.650105 249.435508 
L 128.650105 248.908822 
L 129.290685 248.908822 
L 129.290685 248.382136 
L 129.616397 248.382136 
L 129.616397 247.85545 
L 130.182344 247.85545 
L 130.182344 247.328764 
L 130.704156 247.328764 
L 130.704156 246.802078 
L 130.822389 246.802078 
L 130.822389 246.275392 
L 131.950349 246.275392 
L 131.950349 245.748706 
L 132.206187 245.748706 
L 132.206187 245.22202 
L 132.410579 245.22202 
L 132.410579 244.695334 
L 134.922085 244.695334 
L 134.922085 244.168648 
L 135.219673 244.168648 
L 135.219673 243.641962 
L 135.421987 243.641962 
L 135.421987 243.115275 
L 136.494612 243.115275 
L 136.494612 242.588589 
L 136.850337 242.588589 
L 136.850337 242.061903 
L 137.656136 242.061903 
L 137.656136 241.535217 
L 138.976312 241.535217 
L 138.976312 241.008531 
L 140.53674 241.008531 
L 140.53674 240.481845 
L 141.126708 240.481845 
L 141.126708 239.955159 
L 141.400102 239.955159 
L 141.506851 238.901787 
L 141.697369 238.901787 
L 141.697369 238.375101 
L 142.290693 238.375101 
L 142.290693 237.848415 
L 143.65995 237.848415 
L 143.65995 237.321729 
L 145.287281 237.321729 
L 145.310115 236.268356 
L 148.606228 236.268356 
L 148.606228 235.74167 
L 151.182838 235.74167 
L 151.182838 235.214984 
L 158.217157 235.214984 
L 158.217157 234.688298 
L 160.076598 234.688298 
L 160.076598 233.634926 
L 160.54959 233.634926 
L 160.54959 233.10824 
L 161.125644 233.10824 
L 161.125644 232.581554 
L 161.481327 232.581554 
L 161.481327 232.054868 
L 162.106442 232.054868 
L 162.201988 231.001496 
L 163.53563 231.001496 
L 163.53563 230.47481 
L 164.677051 230.47481 
L 164.677051 229.948123 
L 169.736716 229.948123 
L 169.736716 229.421437 
L 170.630039 229.421437 
L 170.630039 228.894751 
L 175.360852 228.894751 
L 175.360852 228.368065 
L 175.642666 228.368065 
L 175.642666 227.314693 
L 179.549953 227.314693 
L 179.549953 226.788007 
L 179.984168 226.788007 
L 179.984168 226.261321 
L 183.507281 226.261321 
L 183.507281 225.734635 
L 186.439035 225.734635 
L 186.439035 225.207949 
L 187.161879 225.207949 
L 187.161879 224.681263 
L 189.574928 224.681263 
L 189.574928 224.154577 
L 191.69431 224.154577 
L 191.69431 223.627891 
L 196.636781 223.627891 
L 196.636781 223.101204 
L 198.078651 223.101204 
L 198.078651 222.574518 
L 203.029275 222.574518 
L 203.029275 222.047832 
L 204.997614 222.047832 
L 204.997614 221.521146 
L 214.187209 221.521146 
L 214.187209 220.99446 
L 215.252906 220.99446 
L 215.252906 220.467774 
L 220.559679 220.467774 
L 220.559679 219.941088 
L 338.688 219.941088 
L 338.688 219.941088 
" style="fill:none;stroke:#ff0000;stroke-linecap:square;stroke-width:1.5;"/>
   </g>
   <g id="line2d_56">
    <defs>
     <path d="M 0 -6 
L -5.196152 -3 
L -5.196152 3 
L -0 6 
L 5.196152 3 
L 5.196152 -3 
z
" id="m340ff722fa" style="stroke:#ff0000;stroke-linejoin:miter;stroke-width:1.5;"/>
    </defs>
    <g>
     <use style="fill-opacity:0;stroke:#ff0000;stroke-linejoin:miter;stroke-width:1.5;" x="70.949209" xlink:href="#m340ff722fa" y="286.303534"/>
     <use style="fill-opacity:0;stroke:#ff0000;stroke-linejoin:miter;stroke-width:1.5;" x="145.310115" xlink:href="#m340ff722fa" y="236.268356"/>
     <use style="fill-opacity:0;stroke:#ff0000;stroke-linejoin:miter;stroke-width:1.5;" x="220.559679" xlink:href="#m340ff722fa" y="220.467774"/>
     <use style="fill-opacity:0;stroke:#ff0000;stroke-linejoin:miter;stroke-width:1.5;" x="220.559679" xlink:href="#m340ff722fa" y="219.941088"/>
     <use style="fill-opacity:0;stroke:#ff0000;stroke-linejoin:miter;stroke-width:1.5;" x="220.559679" xlink:href="#m340ff722fa" y="219.941088"/>
     <use style="fill-opacity:0;stroke:#ff0000;stroke-linejoin:miter;stroke-width:1.5;" x="338.688" xlink:href="#m340ff722fa" y="219.941088"/>
    </g>
   </g>
   <g id="line2d_57">
    <path style="fill:none;stroke:#ff0000;stroke-linecap:square;stroke-width:1.5;"/>
    <g/>
   </g>
   <g id="line2d_58">
    <path clip-path="url(#pd7f7ab624b)" d="M 153.890309 235.214984 
" style="fill:none;stroke:#ff0000;stroke-linecap:square;stroke-width:1.5;"/>
    <defs>
     <path d="M -12 12 
L 12 -12 
M -12 -12 
L 12 12 
" id="m038b9c51c7" style="stroke:#ff0000;"/>
    </defs>
    <g clip-path="url(#pd7f7ab624b)">
     <use style="fill:#ff0000;stroke:#ff0000;" x="153.890309" xlink:href="#m038b9c51c7" y="235.214984"/>
    </g>
   </g>
   <g id="line2d_59">
    <path d="M 338.688 277.876557 
L 369.60768 293.571802 
" style="fill:none;stroke:#000080;stroke-linecap:square;stroke-width:1.5;"/>
    <g>
     <use style="fill-opacity:0;stroke:#000080;stroke-width:1.5;" x="338.688" xlink:href="#m68faeb928f" y="277.876557"/>
     <use style="fill-opacity:0;stroke:#000080;stroke-width:1.5;" x="369.60768" xlink:href="#m68faeb928f" y="293.571802"/>
    </g>
   </g>
   <g id="line2d_60">
    <path d="M 338.688 219.941088 
L 369.60768 241.998701 
" style="fill:none;stroke:#ff0000;stroke-linecap:square;stroke-width:1.5;"/>
    <g>
     <use style="fill-opacity:0;stroke:#ff0000;stroke-linejoin:miter;stroke-width:1.5;" x="338.688" xlink:href="#m340ff722fa" y="219.941088"/>
     <use style="fill-opacity:0;stroke:#ff0000;stroke-linejoin:miter;stroke-width:1.5;" x="369.60768" xlink:href="#m340ff722fa" y="241.998701"/>
    </g>
   </g>
   <g id="line2d_61">
    <path d="M 338.688 193.606784 
L 369.60768 190.4256 
" style="fill:none;stroke:#ff7500;stroke-linecap:square;stroke-width:1.5;"/>
    <g>
     <use style="fill-opacity:0;stroke:#ff7500;stroke-linejoin:bevel;stroke-width:1.5;" x="338.688" xlink:href="#m5029262c1a" y="193.606784"/>
     <use style="fill-opacity:0;stroke:#ff7500;stroke-linejoin:bevel;stroke-width:1.5;" x="369.60768" xlink:href="#m5029262c1a" y="190.4256"/>
    </g>
   </g>
   <g id="line2d_62">
    <path d="M 338.688 193.606784 
L 369.60768 138.852499 
" style="fill:none;stroke:#6495ed;stroke-linecap:square;stroke-width:1.5;"/>
    <g>
     <use style="fill-opacity:0;stroke:#6495ed;stroke-linejoin:miter;stroke-width:1.5;" x="338.688" xlink:href="#m25551fae82" y="193.606784"/>
     <use style="fill-opacity:0;stroke:#6495ed;stroke-linejoin:miter;stroke-width:1.5;" x="369.60768" xlink:href="#m25551fae82" y="138.852499"/>
    </g>
   </g>
   <g id="line2d_63">
    <path d="M 338.688 146.205037 
L 369.60768 87.279398 
" style="fill:none;stroke:#ff00ff;stroke-linecap:square;stroke-width:1.5;"/>
    <g>
     <use style="fill-opacity:0;stroke:#ff00ff;stroke-linejoin:miter;stroke-width:1.5;" x="338.688" xlink:href="#m9a10f5ab55" y="146.205037"/>
     <use style="fill-opacity:0;stroke:#ff00ff;stroke-linejoin:miter;stroke-width:1.5;" x="369.60768" xlink:href="#m9a10f5ab55" y="87.279398"/>
    </g>
   </g>
   <g id="line2d_64">
    <path d="M 338.688 298.944 
L 338.688 30.334099 
" style="fill:none;stroke:#000000;stroke-linecap:square;stroke-width:1.5;"/>
   </g>
   <g id="patch_3">
    <path d="M 57.6 298.944 
L 57.6 27.648 
" style="fill:none;stroke:#000000;stroke-linecap:square;stroke-linejoin:miter;stroke-width:0.8;"/>
   </g>
   <g id="patch_4">
    <path d="M 338.688 298.944 
L 338.688 27.648 
" style="fill:none;stroke:#000000;stroke-linecap:square;stroke-linejoin:miter;stroke-width:0.8;"/>
   </g>
   <g id="patch_5">
    <path d="M 57.6 298.944 
L 338.688 298.944 
" style="fill:none;stroke:#000000;stroke-linecap:square;stroke-linejoin:miter;stroke-width:0.8;"/>
   </g>
   <g id="patch_6">
    <path d="M 57.6 27.648 
L 338.688 27.648 
" style="fill:none;stroke:#000000;stroke-linecap:square;stroke-linejoin:miter;stroke-width:0.8;"/>
   </g>
   <g id="text_13">
    <!-- ABC -->
    <defs>
     <path d="M 34.1875 63.1875 
L 20.796875 26.90625 
L 47.609375 26.90625 
z
M 28.609375 72.90625 
L 39.796875 72.90625 
L 67.578125 0 
L 57.328125 0 
L 50.6875 18.703125 
L 17.828125 18.703125 
L 11.1875 0 
L 0.78125 0 
z
" id="DejaVuSans-65"/>
     <path d="M 19.671875 34.8125 
L 19.671875 8.109375 
L 35.5 8.109375 
Q 43.453125 8.109375 47.28125 11.40625 
Q 51.125 14.703125 51.125 21.484375 
Q 51.125 28.328125 47.28125 31.5625 
Q 43.453125 34.8125 35.5 34.8125 
z
M 19.671875 64.796875 
L 19.671875 42.828125 
L 34.28125 42.828125 
Q 41.5 42.828125 45.03125 45.53125 
Q 48.578125 48.25 48.578125 53.8125 
Q 48.578125 59.328125 45.03125 62.0625 
Q 41.5 64.796875 34.28125 64.796875 
z
M 9.8125 72.90625 
L 35.015625 72.90625 
Q 46.296875 72.90625 52.390625 68.21875 
Q 58.5 63.53125 58.5 54.890625 
Q 58.5 48.1875 55.375 44.234375 
Q 52.25 40.28125 46.1875 39.3125 
Q 53.46875 37.75 57.5 32.78125 
Q 61.53125 27.828125 61.53125 20.40625 
Q 61.53125 10.640625 54.890625 5.3125 
Q 48.25 0 35.984375 0 
L 9.8125 0 
z
" id="DejaVuSans-66"/>
     <path d="M 64.40625 67.28125 
L 64.40625 56.890625 
Q 59.421875 61.53125 53.78125 63.8125 
Q 48.140625 66.109375 41.796875 66.109375 
Q 29.296875 66.109375 22.65625 58.46875 
Q 16.015625 50.828125 16.015625 36.375 
Q 16.015625 21.96875 22.65625 14.328125 
Q 29.296875 6.6875 41.796875 6.6875 
Q 48.140625 6.6875 53.78125 8.984375 
Q 59.421875 11.28125 64.40625 15.921875 
L 64.40625 5.609375 
Q 59.234375 2.09375 53.4375 0.328125 
Q 47.65625 -1.421875 41.21875 -1.421875 
Q 24.65625 -1.421875 15.125 8.703125 
Q 5.609375 18.84375 5.609375 36.375 
Q 5.609375 53.953125 15.125 64.078125 
Q 24.65625 74.21875 41.21875 74.21875 
Q 47.75 74.21875 53.53125 72.484375 
Q 59.328125 70.75 64.40625 67.28125 
z
" id="DejaVuSans-67"/>
    </defs>
    <g transform="translate(375.22944 298.262739)scale(0.17 -0.17)">
     <use xlink:href="#DejaVuSans-65"/>
     <use x="68.408203" xlink:href="#DejaVuSans-66"/>
     <use x="135.261719" xlink:href="#DejaVuSans-67"/>
    </g>
   </g>
   <g id="text_14">
    <!-- PSO -->
    <defs>
     <path d="M 19.671875 64.796875 
L 19.671875 37.40625 
L 32.078125 37.40625 
Q 38.96875 37.40625 42.71875 40.96875 
Q 46.484375 44.53125 46.484375 51.125 
Q 46.484375 57.671875 42.71875 61.234375 
Q 38.96875 64.796875 32.078125 64.796875 
z
M 9.8125 72.90625 
L 32.078125 72.90625 
Q 44.34375 72.90625 50.609375 67.359375 
Q 56.890625 61.8125 56.890625 51.125 
Q 56.890625 40.328125 50.609375 34.8125 
Q 44.34375 29.296875 32.078125 29.296875 
L 19.671875 29.296875 
L 19.671875 0 
L 9.8125 0 
z
" id="DejaVuSans-80"/>
     <path d="M 53.515625 70.515625 
L 53.515625 60.890625 
Q 47.90625 63.578125 42.921875 64.890625 
Q 37.9375 66.21875 33.296875 66.21875 
Q 25.25 66.21875 20.875 63.09375 
Q 16.5 59.96875 16.5 54.203125 
Q 16.5 49.359375 19.40625 46.890625 
Q 22.3125 44.4375 30.421875 42.921875 
L 36.375 41.703125 
Q 47.40625 39.59375 52.65625 34.296875 
Q 57.90625 29 57.90625 20.125 
Q 57.90625 9.515625 50.796875 4.046875 
Q 43.703125 -1.421875 29.984375 -1.421875 
Q 24.8125 -1.421875 18.96875 -0.25 
Q 13.140625 0.921875 6.890625 3.21875 
L 6.890625 13.375 
Q 12.890625 10.015625 18.65625 8.296875 
Q 24.421875 6.59375 29.984375 6.59375 
Q 38.421875 6.59375 43.015625 9.90625 
Q 47.609375 13.234375 47.609375 19.390625 
Q 47.609375 24.75 44.3125 27.78125 
Q 41.015625 30.8125 33.5 32.328125 
L 27.484375 33.5 
Q 16.453125 35.6875 11.515625 40.375 
Q 6.59375 45.0625 6.59375 53.421875 
Q 6.59375 63.09375 13.40625 68.65625 
Q 20.21875 74.21875 32.171875 74.21875 
Q 37.3125 74.21875 42.625 73.28125 
Q 47.953125 72.359375 53.515625 70.515625 
z
" id="DejaVuSans-83"/>
     <path d="M 39.40625 66.21875 
Q 28.65625 66.21875 22.328125 58.203125 
Q 16.015625 50.203125 16.015625 36.375 
Q 16.015625 22.609375 22.328125 14.59375 
Q 28.65625 6.59375 39.40625 6.59375 
Q 50.140625 6.59375 56.421875 14.59375 
Q 62.703125 22.609375 62.703125 36.375 
Q 62.703125 50.203125 56.421875 58.203125 
Q 50.140625 66.21875 39.40625 66.21875 
z
M 39.40625 74.21875 
Q 54.734375 74.21875 63.90625 63.9375 
Q 73.09375 53.65625 73.09375 36.375 
Q 73.09375 19.140625 63.90625 8.859375 
Q 54.734375 -1.421875 39.40625 -1.421875 
Q 24.03125 -1.421875 14.8125 8.828125 
Q 5.609375 19.09375 5.609375 36.375 
Q 5.609375 53.65625 14.8125 63.9375 
Q 24.03125 74.21875 39.40625 74.21875 
z
" id="DejaVuSans-79"/>
    </defs>
    <g transform="translate(375.22944 246.689638)scale(0.17 -0.17)">
     <use xlink:href="#DejaVuSans-80"/>
     <use x="60.302734" xlink:href="#DejaVuSans-83"/>
     <use x="123.779297" xlink:href="#DejaVuSans-79"/>
    </g>
   </g>
   <g id="text_15">
    <!-- DE -->
    <defs>
     <path d="M 19.671875 64.796875 
L 19.671875 8.109375 
L 31.59375 8.109375 
Q 46.6875 8.109375 53.6875 14.9375 
Q 60.6875 21.78125 60.6875 36.53125 
Q 60.6875 51.171875 53.6875 57.984375 
Q 46.6875 64.796875 31.59375 64.796875 
z
M 9.8125 72.90625 
L 30.078125 72.90625 
Q 51.265625 72.90625 61.171875 64.09375 
Q 71.09375 55.28125 71.09375 36.53125 
Q 71.09375 17.671875 61.125 8.828125 
Q 51.171875 0 30.078125 0 
L 9.8125 0 
z
" id="DejaVuSans-68"/>
     <path d="M 9.8125 72.90625 
L 55.90625 72.90625 
L 55.90625 64.59375 
L 19.671875 64.59375 
L 19.671875 43.015625 
L 54.390625 43.015625 
L 54.390625 34.71875 
L 19.671875 34.71875 
L 19.671875 8.296875 
L 56.78125 8.296875 
L 56.78125 0 
L 9.8125 0 
z
" id="DejaVuSans-69"/>
    </defs>
    <g transform="translate(375.22944 195.116537)scale(0.17 -0.17)">
     <use xlink:href="#DejaVuSans-68"/>
     <use x="77.001953" xlink:href="#DejaVuSans-69"/>
    </g>
   </g>
   <g id="text_16">
    <!-- DEPSO -->
    <g transform="translate(375.22944 143.543437)scale(0.17 -0.17)">
     <use xlink:href="#DejaVuSans-68"/>
     <use x="77.001953" xlink:href="#DejaVuSans-69"/>
     <use x="140.185547" xlink:href="#DejaVuSans-80"/>
     <use x="200.488281" xlink:href="#DejaVuSans-83"/>
     <use x="263.964844" xlink:href="#DejaVuSans-79"/>
    </g>
   </g>
   <g id="text_17">
    <!-- CMA-ES -->
    <defs>
     <path d="M 9.8125 72.90625 
L 24.515625 72.90625 
L 43.109375 23.296875 
L 61.8125 72.90625 
L 76.515625 72.90625 
L 76.515625 0 
L 66.890625 0 
L 66.890625 64.015625 
L 48.09375 14.015625 
L 38.1875 14.015625 
L 19.390625 64.015625 
L 19.390625 0 
L 9.8125 0 
z
" id="DejaVuSans-77"/>
    </defs>
    <g transform="translate(375.22944 91.970336)scale(0.17 -0.17)">
     <use xlink:href="#DejaVuSans-67"/>
     <use x="69.824219" xlink:href="#DejaVuSans-77"/>
     <use x="156.103516" xlink:href="#DejaVuSans-65"/>
     <use x="222.261719" xlink:href="#DejaVuSans-45"/>
     <use x="258.345703" xlink:href="#DejaVuSans-69"/>
     <use x="321.529297" xlink:href="#DejaVuSans-83"/>
    </g>
   </g>
   <g id="text_18">
    <!-- best 2009 -->
    <defs>
     <path d="M 48.6875 27.296875 
Q 48.6875 37.203125 44.609375 42.84375 
Q 40.53125 48.484375 33.40625 48.484375 
Q 26.265625 48.484375 22.1875 42.84375 
Q 18.109375 37.203125 18.109375 27.296875 
Q 18.109375 17.390625 22.1875 11.75 
Q 26.265625 6.109375 33.40625 6.109375 
Q 40.53125 6.109375 44.609375 11.75 
Q 48.6875 17.390625 48.6875 27.296875 
z
M 18.109375 46.390625 
Q 20.953125 51.265625 25.265625 53.625 
Q 29.59375 56 35.59375 56 
Q 45.5625 56 51.78125 48.09375 
Q 58.015625 40.1875 58.015625 27.296875 
Q 58.015625 14.40625 51.78125 6.484375 
Q 45.5625 -1.421875 35.59375 -1.421875 
Q 29.59375 -1.421875 25.265625 0.953125 
Q 20.953125 3.328125 18.109375 8.203125 
L 18.109375 0 
L 9.078125 0 
L 9.078125 75.984375 
L 18.109375 75.984375 
z
" id="DejaVuSans-98"/>
     <path d="M 10.984375 1.515625 
L 10.984375 10.5 
Q 14.703125 8.734375 18.5 7.8125 
Q 22.3125 6.890625 25.984375 6.890625 
Q 35.75 6.890625 40.890625 13.453125 
Q 46.046875 20.015625 46.78125 33.40625 
Q 43.953125 29.203125 39.59375 26.953125 
Q 35.25 24.703125 29.984375 24.703125 
Q 19.046875 24.703125 12.671875 31.3125 
Q 6.296875 37.9375 6.296875 49.421875 
Q 6.296875 60.640625 12.9375 67.421875 
Q 19.578125 74.21875 30.609375 74.21875 
Q 43.265625 74.21875 49.921875 64.515625 
Q 56.59375 54.828125 56.59375 36.375 
Q 56.59375 19.140625 48.40625 8.859375 
Q 40.234375 -1.421875 26.421875 -1.421875 
Q 22.703125 -1.421875 18.890625 -0.6875 
Q 15.09375 0.046875 10.984375 1.515625 
z
M 30.609375 32.421875 
Q 37.25 32.421875 41.125 36.953125 
Q 45.015625 41.5 45.015625 49.421875 
Q 45.015625 57.28125 41.125 61.84375 
Q 37.25 66.40625 30.609375 66.40625 
Q 23.96875 66.40625 20.09375 61.84375 
Q 16.21875 57.28125 16.21875 49.421875 
Q 16.21875 41.5 20.09375 36.953125 
Q 23.96875 32.421875 30.609375 32.421875 
z
" id="DejaVuSans-57"/>
    </defs>
    <g transform="translate(375.22944 40.397235)scale(0.17 -0.17)">
     <use xlink:href="#DejaVuSans-98"/>
     <use x="63.476562" xlink:href="#DejaVuSans-101"/>
     <use x="125" xlink:href="#DejaVuSans-115"/>
     <use x="177.099609" xlink:href="#DejaVuSans-116"/>
     <use x="216.308594" xlink:href="#DejaVuSans-32"/>
     <use x="248.095703" xlink:href="#DejaVuSans-50"/>
     <use x="311.71875" xlink:href="#DejaVuSans-48"/>
     <use x="375.341797" xlink:href="#DejaVuSans-48"/>
     <use x="438.964844" xlink:href="#DejaVuSans-57"/>
    </g>
   </g>
   <g id="text_19">
    <!-- bbob f14, 20-D -->
    <g transform="translate(60.41088 38.111366)scale(0.102 -0.102)">
     <use xlink:href="#DejaVuSans-98"/>
     <use x="63.476562" xlink:href="#DejaVuSans-98"/>
     <use x="126.953125" xlink:href="#DejaVuSans-111"/>
     <use x="188.134766" xlink:href="#DejaVuSans-98"/>
     <use x="251.611328" xlink:href="#DejaVuSans-32"/>
     <use x="283.398438" xlink:href="#DejaVuSans-102"/>
     <use x="318.603516" xlink:href="#DejaVuSans-49"/>
     <use x="382.226562" xlink:href="#DejaVuSans-52"/>
     <use x="445.849609" xlink:href="#DejaVuSans-44"/>
     <use x="477.636719" xlink:href="#DejaVuSans-32"/>
     <use x="509.423828" xlink:href="#DejaVuSans-50"/>
     <use x="573.046875" xlink:href="#DejaVuSans-48"/>
     <use x="636.669922" xlink:href="#DejaVuSans-45"/>
     <use x="672.753906" xlink:href="#DejaVuSans-68"/>
    </g>
    <!-- 51 targets: 100..1e-08 -->
    <defs>
     <path d="M 10.796875 72.90625 
L 49.515625 72.90625 
L 49.515625 64.59375 
L 19.828125 64.59375 
L 19.828125 46.734375 
Q 21.96875 47.46875 24.109375 47.828125 
Q 26.265625 48.1875 28.421875 48.1875 
Q 40.625 48.1875 47.75 41.5 
Q 54.890625 34.8125 54.890625 23.390625 
Q 54.890625 11.625 47.5625 5.09375 
Q 40.234375 -1.421875 26.90625 -1.421875 
Q 22.3125 -1.421875 17.546875 -0.640625 
Q 12.796875 0.140625 7.71875 1.703125 
L 7.71875 11.625 
Q 12.109375 9.234375 16.796875 8.0625 
Q 21.484375 6.890625 26.703125 6.890625 
Q 35.15625 6.890625 40.078125 11.328125 
Q 45.015625 15.765625 45.015625 23.390625 
Q 45.015625 31 40.078125 35.4375 
Q 35.15625 39.890625 26.703125 39.890625 
Q 22.75 39.890625 18.8125 39.015625 
Q 14.890625 38.140625 10.796875 36.28125 
z
" id="DejaVuSans-53"/>
     <path d="M 11.71875 12.40625 
L 22.015625 12.40625 
L 22.015625 0 
L 11.71875 0 
z
M 11.71875 51.703125 
L 22.015625 51.703125 
L 22.015625 39.3125 
L 11.71875 39.3125 
z
" id="DejaVuSans-58"/>
    </defs>
    <g transform="translate(60.41088 49.533135)scale(0.102 -0.102)">
     <use xlink:href="#DejaVuSans-53"/>
     <use x="63.623047" xlink:href="#DejaVuSans-49"/>
     <use x="127.246094" xlink:href="#DejaVuSans-32"/>
     <use x="159.033203" xlink:href="#DejaVuSans-116"/>
     <use x="198.242188" xlink:href="#DejaVuSans-97"/>
     <use x="259.521484" xlink:href="#DejaVuSans-114"/>
     <use x="298.884766" xlink:href="#DejaVuSans-103"/>
     <use x="362.361328" xlink:href="#DejaVuSans-101"/>
     <use x="423.884766" xlink:href="#DejaVuSans-116"/>
     <use x="463.09375" xlink:href="#DejaVuSans-115"/>
     <use x="515.193359" xlink:href="#DejaVuSans-58"/>
     <use x="548.884766" xlink:href="#DejaVuSans-32"/>
     <use x="580.671875" xlink:href="#DejaVuSans-49"/>
     <use x="644.294922" xlink:href="#DejaVuSans-48"/>
     <use x="707.917969" xlink:href="#DejaVuSans-48"/>
     <use x="771.541016" xlink:href="#DejaVuSans-46"/>
     <use x="803.328125" xlink:href="#DejaVuSans-46"/>
     <use x="835.115234" xlink:href="#DejaVuSans-49"/>
     <use x="898.738281" xlink:href="#DejaVuSans-101"/>
     <use x="960.261719" xlink:href="#DejaVuSans-45"/>
     <use x="996.345703" xlink:href="#DejaVuSans-48"/>
     <use x="1059.96875" xlink:href="#DejaVuSans-56"/>
    </g>
    <!-- 24, 15 instances -->
    <g transform="translate(60.41088 60.954904)scale(0.102 -0.102)">
     <use xlink:href="#DejaVuSans-50"/>
     <use x="63.623047" xlink:href="#DejaVuSans-52"/>
     <use x="127.246094" xlink:href="#DejaVuSans-44"/>
     <use x="159.033203" xlink:href="#DejaVuSans-32"/>
     <use x="190.820312" xlink:href="#DejaVuSans-49"/>
     <use x="254.443359" xlink:href="#DejaVuSans-53"/>
     <use x="318.066406" xlink:href="#DejaVuSans-32"/>
     <use x="349.853516" xlink:href="#DejaVuSans-105"/>
     <use x="377.636719" xlink:href="#DejaVuSans-110"/>
     <use x="441.015625" xlink:href="#DejaVuSans-115"/>
     <use x="493.115234" xlink:href="#DejaVuSans-116"/>
     <use x="532.324219" xlink:href="#DejaVuSans-97"/>
     <use x="593.603516" xlink:href="#DejaVuSans-110"/>
     <use x="656.982422" xlink:href="#DejaVuSans-99"/>
     <use x="711.962891" xlink:href="#DejaVuSans-101"/>
     <use x="773.486328" xlink:href="#DejaVuSans-115"/>
    </g>
   </g>
   <g id="text_20">
    <!-- v2.4 -->
    <g style="fill:#808080;" transform="translate(187.233062 294.151352)scale(0.1 -0.1)">
     <use xlink:href="#DejaVuSans-118"/>
     <use x="59.179688" xlink:href="#DejaVuSans-50"/>
     <use x="122.802734" xlink:href="#DejaVuSans-46"/>
     <use x="154.589844" xlink:href="#DejaVuSans-52"/>
    </g>
   </g>
   <g id="text_21">
    <!-- 14 Sum of different powers -->
    <defs>
     <path d="M 4.203125 54.6875 
L 13.1875 54.6875 
L 24.421875 12.015625 
L 35.59375 54.6875 
L 46.1875 54.6875 
L 57.421875 12.015625 
L 68.609375 54.6875 
L 77.59375 54.6875 
L 63.28125 0 
L 52.6875 0 
L 40.921875 44.828125 
L 29.109375 0 
L 18.5 0 
z
" id="DejaVuSans-119"/>
    </defs>
    <g transform="translate(61.904937 21.648)scale(0.2 -0.2)">
     <use xlink:href="#DejaVuSans-49"/>
     <use x="63.623047" xlink:href="#DejaVuSans-52"/>
     <use x="127.246094" xlink:href="#DejaVuSans-32"/>
     <use x="159.033203" xlink:href="#DejaVuSans-83"/>
     <use x="222.509766" xlink:href="#DejaVuSans-117"/>
     <use x="285.888672" xlink:href="#DejaVuSans-109"/>
     <use x="383.300781" xlink:href="#DejaVuSans-32"/>
     <use x="415.087891" xlink:href="#DejaVuSans-111"/>
     <use x="476.269531" xlink:href="#DejaVuSans-102"/>
     <use x="511.474609" xlink:href="#DejaVuSans-32"/>
     <use x="543.261719" xlink:href="#DejaVuSans-100"/>
     <use x="606.738281" xlink:href="#DejaVuSans-105"/>
     <use x="634.521484" xlink:href="#DejaVuSans-102"/>
     <use x="669.726562" xlink:href="#DejaVuSans-102"/>
     <use x="704.931641" xlink:href="#DejaVuSans-101"/>
     <use x="766.455078" xlink:href="#DejaVuSans-114"/>
     <use x="805.318359" xlink:href="#DejaVuSans-101"/>
     <use x="866.841797" xlink:href="#DejaVuSans-110"/>
     <use x="930.220703" xlink:href="#DejaVuSans-116"/>
     <use x="969.429688" xlink:href="#DejaVuSans-32"/>
     <use x="1001.216797" xlink:href="#DejaVuSans-112"/>
     <use x="1064.693359" xlink:href="#DejaVuSans-111"/>
     <use x="1125.875" xlink:href="#DejaVuSans-119"/>
     <use x="1207.662109" xlink:href="#DejaVuSans-101"/>
     <use x="1269.185547" xlink:href="#DejaVuSans-114"/>
     <use x="1310.298828" xlink:href="#DejaVuSans-115"/>
    </g>
   </g>
  </g>
 </g>
 <defs>
  <clipPath id="pd7f7ab624b">
   <rect height="271.296" width="281.088" x="57.6" y="27.648"/>
  </clipPath>
 </defs>
</svg>
