<?xml version="1.0" encoding="utf-8" standalone="no"?>
<!DOCTYPE svg PUBLIC "-//W3C//DTD SVG 1.1//EN"
  "http://www.w3.org/Graphics/SVG/1.1/DTD/svg11.dtd">
<!-- Created with matplotlib (https://matplotlib.org/) -->
<svg height="345.6pt" version="1.1" viewBox="0 0 460.8 345.6" width="460.8pt" xmlns="http://www.w3.org/2000/svg" xmlns:xlink="http://www.w3.org/1999/xlink">
 <defs>
  <style type="text/css">
*{stroke-linecap:butt;stroke-linejoin:round;}
  </style>
 </defs>
 <g id="figure_1">
  <g id="patch_1">
   <path d="M 0 345.6 
L 460.8 345.6 
L 460.8 0 
L 0 0 
z
" style="fill:#ffffff;"/>
  </g>
  <g id="axes_1">
   <g id="patch_2">
    <path d="M 57.6 298.944 
L 338.688 298.944 
L 338.688 27.648 
L 57.6 27.648 
z
" style="fill:#ffffff;"/>
   </g>
   <g id="line2d_1">
    <path d="M 57.6 298.944 
L 57.6 272.609696 
L 64.67102 272.609696 
L 64.67102 267.342835 
L 73.579452 267.342835 
L 73.579452 262.075974 
L 76.759008 262.075974 
L 76.759008 256.809114 
L 91.535274 256.809114 
L 91.535274 251.542253 
L 98.606294 251.542253 
L 98.606294 241.008531 
L 108.948899 241.008531 
L 108.948899 235.74167 
L 111.505558 235.74167 
L 111.505558 230.47481 
L 112.280765 230.47481 
L 112.280765 219.941088 
L 116.914437 219.941088 
L 116.914437 214.674227 
L 121.931406 214.674227 
L 121.931406 209.407366 
L 122.148045 209.407366 
L 122.148045 198.873645 
L 136.831795 198.873645 
L 136.831795 193.606784 
L 137.289545 193.606784 
L 137.289545 188.339923 
L 138.426341 188.339923 
L 138.426341 183.073062 
L 139.172077 183.073062 
L 139.172077 177.806202 
L 139.333553 177.806202 
L 139.333553 77.735846 
L 139.8092 77.735846 
L 139.8092 72.468985 
L 140.272217 72.468985 
L 140.272217 67.202125 
L 140.723258 67.202125 
L 140.723258 61.935264 
L 141.162927 61.935264 
L 141.162927 56.668403 
L 141.307054 56.668403 
L 141.307054 51.401542 
L 141.80232 51.401542 
L 141.80232 46.134681 
L 142.010346 46.134681 
L 142.010346 40.867821 
L 142.215919 40.867821 
L 142.215919 35.60096 
L 142.351634 35.60096 
L 142.351634 30.334099 
L 338.688 30.334099 
" style="fill:none;stroke:#f5deb3;stroke-linecap:square;stroke-width:4;"/>
   </g>
   <g id="line2d_2">
    <defs>
     <path d="M -0 7.778175 
L 7.778175 0 
L 0 -7.778175 
L -7.778175 -0 
z
" id="mbb7497c92b" style="stroke:#f5deb3;stroke-linejoin:miter;stroke-width:1.5;"/>
    </defs>
    <g>
     <use style="fill:#f5deb3;stroke:#f5deb3;stroke-linejoin:miter;stroke-width:1.5;" x="112.280765" xlink:href="#mbb7497c92b" y="219.941088"/>
     <use style="fill:#f5deb3;stroke:#f5deb3;stroke-linejoin:miter;stroke-width:1.5;" x="141.307054" xlink:href="#mbb7497c92b" y="51.401542"/>
     <use style="fill:#f5deb3;stroke:#f5deb3;stroke-linejoin:miter;stroke-width:1.5;" x="142.351634" xlink:href="#mbb7497c92b" y="30.334099"/>
     <use style="fill:#f5deb3;stroke:#f5deb3;stroke-linejoin:miter;stroke-width:1.5;" x="142.351634" xlink:href="#mbb7497c92b" y="30.334099"/>
     <use style="fill:#f5deb3;stroke:#f5deb3;stroke-linejoin:miter;stroke-width:1.5;" x="338.688" xlink:href="#mbb7497c92b" y="30.334099"/>
    </g>
   </g>
   <g id="line2d_3">
    <path style="fill:none;stroke:#f5deb3;stroke-linecap:square;stroke-width:4;"/>
    <g/>
   </g>
   <g id="line2d_4">
    <path d="M 338.688 30.334099 
L 369.60768 35.706297 
" style="fill:none;stroke:#f5deb3;stroke-linecap:square;stroke-width:4;"/>
    <g>
     <use style="fill:#f5deb3;stroke:#f5deb3;stroke-linejoin:miter;stroke-width:1.5;" x="338.688" xlink:href="#mbb7497c92b" y="30.334099"/>
     <use style="fill:#f5deb3;stroke:#f5deb3;stroke-linejoin:miter;stroke-width:1.5;" x="369.60768" xlink:href="#mbb7497c92b" y="35.706297"/>
    </g>
   </g>
   <g id="matplotlib.axis_1">
    <g id="xtick_1">
     <g id="line2d_5">
      <path clip-path="url(#p18d458ecde)" d="M 57.6 298.944 
L 57.6 27.648 
" style="fill:none;stroke:#b0b0b0;stroke-linecap:square;stroke-width:0.8;"/>
     </g>
     <g id="line2d_6">
      <defs>
       <path d="M 0 0 
L 0 3.5 
" id="m9ad30c2fa8" style="stroke:#000000;stroke-width:0.8;"/>
      </defs>
      <g>
       <use style="stroke:#000000;stroke-width:0.8;" x="57.6" xlink:href="#m9ad30c2fa8" y="298.944"/>
      </g>
     </g>
     <g id="text_1">
      <!-- 0 -->
      <defs>
       <path d="M 31.78125 66.40625 
Q 24.171875 66.40625 20.328125 58.90625 
Q 16.5 51.421875 16.5 36.375 
Q 16.5 21.390625 20.328125 13.890625 
Q 24.171875 6.390625 31.78125 6.390625 
Q 39.453125 6.390625 43.28125 13.890625 
Q 47.125 21.390625 47.125 36.375 
Q 47.125 51.421875 43.28125 58.90625 
Q 39.453125 66.40625 31.78125 66.40625 
z
M 31.78125 74.21875 
Q 44.046875 74.21875 50.515625 64.515625 
Q 56.984375 54.828125 56.984375 36.375 
Q 56.984375 17.96875 50.515625 8.265625 
Q 44.046875 -1.421875 31.78125 -1.421875 
Q 19.53125 -1.421875 13.0625 8.265625 
Q 6.59375 17.96875 6.59375 36.375 
Q 6.59375 54.828125 13.0625 64.515625 
Q 19.53125 74.21875 31.78125 74.21875 
z
" id="DejaVuSans-48"/>
      </defs>
      <g transform="translate(51.2375 321.140875)scale(0.2 -0.2)">
       <use xlink:href="#DejaVuSans-48"/>
      </g>
     </g>
    </g>
    <g id="xtick_2">
     <g id="line2d_7">
      <path clip-path="url(#p18d458ecde)" d="M 137.910857 298.944 
L 137.910857 27.648 
" style="fill:none;stroke:#b0b0b0;stroke-linecap:square;stroke-width:0.8;"/>
     </g>
     <g id="line2d_8">
      <g>
       <use style="stroke:#000000;stroke-width:0.8;" x="137.910857" xlink:href="#m9ad30c2fa8" y="298.944"/>
      </g>
     </g>
     <g id="text_2">
      <!-- 2 -->
      <defs>
       <path d="M 19.1875 8.296875 
L 53.609375 8.296875 
L 53.609375 0 
L 7.328125 0 
L 7.328125 8.296875 
Q 12.9375 14.109375 22.625 23.890625 
Q 32.328125 33.6875 34.8125 36.53125 
Q 39.546875 41.84375 41.421875 45.53125 
Q 43.3125 49.21875 43.3125 52.78125 
Q 43.3125 58.59375 39.234375 62.25 
Q 35.15625 65.921875 28.609375 65.921875 
Q 23.96875 65.921875 18.8125 64.3125 
Q 13.671875 62.703125 7.8125 59.421875 
L 7.8125 69.390625 
Q 13.765625 71.78125 18.9375 73 
Q 24.125 74.21875 28.421875 74.21875 
Q 39.75 74.21875 46.484375 68.546875 
Q 53.21875 62.890625 53.21875 53.421875 
Q 53.21875 48.921875 51.53125 44.890625 
Q 49.859375 40.875 45.40625 35.40625 
Q 44.1875 33.984375 37.640625 27.21875 
Q 31.109375 20.453125 19.1875 8.296875 
z
" id="DejaVuSans-50"/>
      </defs>
      <g transform="translate(131.548357 321.140875)scale(0.2 -0.2)">
       <use xlink:href="#DejaVuSans-50"/>
      </g>
     </g>
    </g>
    <g id="xtick_3">
     <g id="line2d_9">
      <path clip-path="url(#p18d458ecde)" d="M 218.221714 298.944 
L 218.221714 27.648 
" style="fill:none;stroke:#b0b0b0;stroke-linecap:square;stroke-width:0.8;"/>
     </g>
     <g id="line2d_10">
      <g>
       <use style="stroke:#000000;stroke-width:0.8;" x="218.221714" xlink:href="#m9ad30c2fa8" y="298.944"/>
      </g>
     </g>
     <g id="text_3">
      <!-- 4 -->
      <defs>
       <path d="M 37.796875 64.3125 
L 12.890625 25.390625 
L 37.796875 25.390625 
z
M 35.203125 72.90625 
L 47.609375 72.90625 
L 47.609375 25.390625 
L 58.015625 25.390625 
L 58.015625 17.1875 
L 47.609375 17.1875 
L 47.609375 0 
L 37.796875 0 
L 37.796875 17.1875 
L 4.890625 17.1875 
L 4.890625 26.703125 
z
" id="DejaVuSans-52"/>
      </defs>
      <g transform="translate(211.859214 321.140875)scale(0.2 -0.2)">
       <use xlink:href="#DejaVuSans-52"/>
      </g>
     </g>
    </g>
    <g id="xtick_4">
     <g id="line2d_11">
      <path clip-path="url(#p18d458ecde)" d="M 298.532571 298.944 
L 298.532571 27.648 
" style="fill:none;stroke:#b0b0b0;stroke-linecap:square;stroke-width:0.8;"/>
     </g>
     <g id="line2d_12">
      <g>
       <use style="stroke:#000000;stroke-width:0.8;" x="298.532571" xlink:href="#m9ad30c2fa8" y="298.944"/>
      </g>
     </g>
     <g id="text_4">
      <!-- 6 -->
      <defs>
       <path d="M 33.015625 40.375 
Q 26.375 40.375 22.484375 35.828125 
Q 18.609375 31.296875 18.609375 23.390625 
Q 18.609375 15.53125 22.484375 10.953125 
Q 26.375 6.390625 33.015625 6.390625 
Q 39.65625 6.390625 43.53125 10.953125 
Q 47.40625 15.53125 47.40625 23.390625 
Q 47.40625 31.296875 43.53125 35.828125 
Q 39.65625 40.375 33.015625 40.375 
z
M 52.59375 71.296875 
L 52.59375 62.3125 
Q 48.875 64.0625 45.09375 64.984375 
Q 41.3125 65.921875 37.59375 65.921875 
Q 27.828125 65.921875 22.671875 59.328125 
Q 17.53125 52.734375 16.796875 39.40625 
Q 19.671875 43.65625 24.015625 45.921875 
Q 28.375 48.1875 33.59375 48.1875 
Q 44.578125 48.1875 50.953125 41.515625 
Q 57.328125 34.859375 57.328125 23.390625 
Q 57.328125 12.15625 50.6875 5.359375 
Q 44.046875 -1.421875 33.015625 -1.421875 
Q 20.359375 -1.421875 13.671875 8.265625 
Q 6.984375 17.96875 6.984375 36.375 
Q 6.984375 53.65625 15.1875 63.9375 
Q 23.390625 74.21875 37.203125 74.21875 
Q 40.921875 74.21875 44.703125 73.484375 
Q 48.484375 72.75 52.59375 71.296875 
z
" id="DejaVuSans-54"/>
      </defs>
      <g transform="translate(292.170071 321.140875)scale(0.2 -0.2)">
       <use xlink:href="#DejaVuSans-54"/>
      </g>
     </g>
    </g>
    <g id="xtick_5">
     <g id="line2d_13">
      <path clip-path="url(#p18d458ecde)" d="M 97.755429 298.944 
L 97.755429 27.648 
" style="fill:none;stroke:#b0b0b0;stroke-linecap:square;stroke-width:0.8;"/>
     </g>
     <g id="line2d_14">
      <defs>
       <path d="M 0 0 
L 0 2 
" id="m4c25a7026d" style="stroke:#000000;stroke-width:0.6;"/>
      </defs>
      <g>
       <use style="stroke:#000000;stroke-width:0.6;" x="97.755429" xlink:href="#m4c25a7026d" y="298.944"/>
      </g>
     </g>
    </g>
    <g id="xtick_6">
     <g id="line2d_15">
      <path clip-path="url(#p18d458ecde)" d="M 178.066286 298.944 
L 178.066286 27.648 
" style="fill:none;stroke:#b0b0b0;stroke-linecap:square;stroke-width:0.8;"/>
     </g>
     <g id="line2d_16">
      <g>
       <use style="stroke:#000000;stroke-width:0.6;" x="178.066286" xlink:href="#m4c25a7026d" y="298.944"/>
      </g>
     </g>
    </g>
    <g id="xtick_7">
     <g id="line2d_17">
      <path clip-path="url(#p18d458ecde)" d="M 258.377143 298.944 
L 258.377143 27.648 
" style="fill:none;stroke:#b0b0b0;stroke-linecap:square;stroke-width:0.8;"/>
     </g>
     <g id="line2d_18">
      <g>
       <use style="stroke:#000000;stroke-width:0.6;" x="258.377143" xlink:href="#m4c25a7026d" y="298.944"/>
      </g>
     </g>
    </g>
    <g id="xtick_8">
     <g id="line2d_19">
      <path clip-path="url(#p18d458ecde)" d="M 338.688 298.944 
L 338.688 27.648 
" style="fill:none;stroke:#b0b0b0;stroke-linecap:square;stroke-width:0.8;"/>
     </g>
     <g id="line2d_20">
      <g>
       <use style="stroke:#000000;stroke-width:0.6;" x="338.688" xlink:href="#m4c25a7026d" y="298.944"/>
      </g>
     </g>
    </g>
    <g id="text_5">
     <!-- log10(# f-evals / dimension) -->
     <defs>
      <path d="M 9.421875 75.984375 
L 18.40625 75.984375 
L 18.40625 0 
L 9.421875 0 
z
" id="DejaVuSans-108"/>
      <path d="M 30.609375 48.390625 
Q 23.390625 48.390625 19.1875 42.75 
Q 14.984375 37.109375 14.984375 27.296875 
Q 14.984375 17.484375 19.15625 11.84375 
Q 23.34375 6.203125 30.609375 6.203125 
Q 37.796875 6.203125 41.984375 11.859375 
Q 46.1875 17.53125 46.1875 27.296875 
Q 46.1875 37.015625 41.984375 42.703125 
Q 37.796875 48.390625 30.609375 48.390625 
z
M 30.609375 56 
Q 42.328125 56 49.015625 48.375 
Q 55.71875 40.765625 55.71875 27.296875 
Q 55.71875 13.875 49.015625 6.21875 
Q 42.328125 -1.421875 30.609375 -1.421875 
Q 18.84375 -1.421875 12.171875 6.21875 
Q 5.515625 13.875 5.515625 27.296875 
Q 5.515625 40.765625 12.171875 48.375 
Q 18.84375 56 30.609375 56 
z
" id="DejaVuSans-111"/>
      <path d="M 45.40625 27.984375 
Q 45.40625 37.75 41.375 43.109375 
Q 37.359375 48.484375 30.078125 48.484375 
Q 22.859375 48.484375 18.828125 43.109375 
Q 14.796875 37.75 14.796875 27.984375 
Q 14.796875 18.265625 18.828125 12.890625 
Q 22.859375 7.515625 30.078125 7.515625 
Q 37.359375 7.515625 41.375 12.890625 
Q 45.40625 18.265625 45.40625 27.984375 
z
M 54.390625 6.78125 
Q 54.390625 -7.171875 48.1875 -13.984375 
Q 42 -20.796875 29.203125 -20.796875 
Q 24.46875 -20.796875 20.265625 -20.09375 
Q 16.0625 -19.390625 12.109375 -17.921875 
L 12.109375 -9.1875 
Q 16.0625 -11.328125 19.921875 -12.34375 
Q 23.78125 -13.375 27.78125 -13.375 
Q 36.625 -13.375 41.015625 -8.765625 
Q 45.40625 -4.15625 45.40625 5.171875 
L 45.40625 9.625 
Q 42.625 4.78125 38.28125 2.390625 
Q 33.9375 0 27.875 0 
Q 17.828125 0 11.671875 7.65625 
Q 5.515625 15.328125 5.515625 27.984375 
Q 5.515625 40.671875 11.671875 48.328125 
Q 17.828125 56 27.875 56 
Q 33.9375 56 38.28125 53.609375 
Q 42.625 51.21875 45.40625 46.390625 
L 45.40625 54.6875 
L 54.390625 54.6875 
z
" id="DejaVuSans-103"/>
      <path d="M 12.40625 8.296875 
L 28.515625 8.296875 
L 28.515625 63.921875 
L 10.984375 60.40625 
L 10.984375 69.390625 
L 28.421875 72.90625 
L 38.28125 72.90625 
L 38.28125 8.296875 
L 54.390625 8.296875 
L 54.390625 0 
L 12.40625 0 
z
" id="DejaVuSans-49"/>
      <path d="M 31 75.875 
Q 24.46875 64.65625 21.28125 53.65625 
Q 18.109375 42.671875 18.109375 31.390625 
Q 18.109375 20.125 21.3125 9.0625 
Q 24.515625 -2 31 -13.1875 
L 23.1875 -13.1875 
Q 15.875 -1.703125 12.234375 9.375 
Q 8.59375 20.453125 8.59375 31.390625 
Q 8.59375 42.28125 12.203125 53.3125 
Q 15.828125 64.359375 23.1875 75.875 
z
" id="DejaVuSans-40"/>
      <path d="M 51.125 44 
L 36.921875 44 
L 32.8125 27.6875 
L 47.125 27.6875 
z
M 43.796875 71.78125 
L 38.71875 51.515625 
L 52.984375 51.515625 
L 58.109375 71.78125 
L 65.921875 71.78125 
L 60.890625 51.515625 
L 76.125 51.515625 
L 76.125 44 
L 58.984375 44 
L 54.984375 27.6875 
L 70.515625 27.6875 
L 70.515625 20.21875 
L 53.078125 20.21875 
L 48 0 
L 40.1875 0 
L 45.21875 20.21875 
L 30.90625 20.21875 
L 25.875 0 
L 18.015625 0 
L 23.09375 20.21875 
L 7.71875 20.21875 
L 7.71875 27.6875 
L 24.90625 27.6875 
L 29 44 
L 13.28125 44 
L 13.28125 51.515625 
L 30.90625 51.515625 
L 35.890625 71.78125 
z
" id="DejaVuSans-35"/>
      <path id="DejaVuSans-32"/>
      <path d="M 37.109375 75.984375 
L 37.109375 68.5 
L 28.515625 68.5 
Q 23.6875 68.5 21.796875 66.546875 
Q 19.921875 64.59375 19.921875 59.515625 
L 19.921875 54.6875 
L 34.71875 54.6875 
L 34.71875 47.703125 
L 19.921875 47.703125 
L 19.921875 0 
L 10.890625 0 
L 10.890625 47.703125 
L 2.296875 47.703125 
L 2.296875 54.6875 
L 10.890625 54.6875 
L 10.890625 58.5 
Q 10.890625 67.625 15.140625 71.796875 
Q 19.390625 75.984375 28.609375 75.984375 
z
" id="DejaVuSans-102"/>
      <path d="M 4.890625 31.390625 
L 31.203125 31.390625 
L 31.203125 23.390625 
L 4.890625 23.390625 
z
" id="DejaVuSans-45"/>
      <path d="M 56.203125 29.59375 
L 56.203125 25.203125 
L 14.890625 25.203125 
Q 15.484375 15.921875 20.484375 11.0625 
Q 25.484375 6.203125 34.421875 6.203125 
Q 39.59375 6.203125 44.453125 7.46875 
Q 49.3125 8.734375 54.109375 11.28125 
L 54.109375 2.78125 
Q 49.265625 0.734375 44.1875 -0.34375 
Q 39.109375 -1.421875 33.890625 -1.421875 
Q 20.796875 -1.421875 13.15625 6.1875 
Q 5.515625 13.8125 5.515625 26.8125 
Q 5.515625 40.234375 12.765625 48.109375 
Q 20.015625 56 32.328125 56 
Q 43.359375 56 49.78125 48.890625 
Q 56.203125 41.796875 56.203125 29.59375 
z
M 47.21875 32.234375 
Q 47.125 39.59375 43.09375 43.984375 
Q 39.0625 48.390625 32.421875 48.390625 
Q 24.90625 48.390625 20.390625 44.140625 
Q 15.875 39.890625 15.1875 32.171875 
z
" id="DejaVuSans-101"/>
      <path d="M 2.984375 54.6875 
L 12.5 54.6875 
L 29.59375 8.796875 
L 46.6875 54.6875 
L 56.203125 54.6875 
L 35.6875 0 
L 23.484375 0 
z
" id="DejaVuSans-118"/>
      <path d="M 34.28125 27.484375 
Q 23.390625 27.484375 19.1875 25 
Q 14.984375 22.515625 14.984375 16.5 
Q 14.984375 11.71875 18.140625 8.90625 
Q 21.296875 6.109375 26.703125 6.109375 
Q 34.1875 6.109375 38.703125 11.40625 
Q 43.21875 16.703125 43.21875 25.484375 
L 43.21875 27.484375 
z
M 52.203125 31.203125 
L 52.203125 0 
L 43.21875 0 
L 43.21875 8.296875 
Q 40.140625 3.328125 35.546875 0.953125 
Q 30.953125 -1.421875 24.3125 -1.421875 
Q 15.921875 -1.421875 10.953125 3.296875 
Q 6 8.015625 6 15.921875 
Q 6 25.140625 12.171875 29.828125 
Q 18.359375 34.515625 30.609375 34.515625 
L 43.21875 34.515625 
L 43.21875 35.40625 
Q 43.21875 41.609375 39.140625 45 
Q 35.0625 48.390625 27.6875 48.390625 
Q 23 48.390625 18.546875 47.265625 
Q 14.109375 46.140625 10.015625 43.890625 
L 10.015625 52.203125 
Q 14.9375 54.109375 19.578125 55.046875 
Q 24.21875 56 28.609375 56 
Q 40.484375 56 46.34375 49.84375 
Q 52.203125 43.703125 52.203125 31.203125 
z
" id="DejaVuSans-97"/>
      <path d="M 44.28125 53.078125 
L 44.28125 44.578125 
Q 40.484375 46.53125 36.375 47.5 
Q 32.28125 48.484375 27.875 48.484375 
Q 21.1875 48.484375 17.84375 46.4375 
Q 14.5 44.390625 14.5 40.28125 
Q 14.5 37.15625 16.890625 35.375 
Q 19.28125 33.59375 26.515625 31.984375 
L 29.59375 31.296875 
Q 39.15625 29.25 43.1875 25.515625 
Q 47.21875 21.78125 47.21875 15.09375 
Q 47.21875 7.46875 41.1875 3.015625 
Q 35.15625 -1.421875 24.609375 -1.421875 
Q 20.21875 -1.421875 15.453125 -0.5625 
Q 10.6875 0.296875 5.421875 2 
L 5.421875 11.28125 
Q 10.40625 8.6875 15.234375 7.390625 
Q 20.0625 6.109375 24.8125 6.109375 
Q 31.15625 6.109375 34.5625 8.28125 
Q 37.984375 10.453125 37.984375 14.40625 
Q 37.984375 18.0625 35.515625 20.015625 
Q 33.0625 21.96875 24.703125 23.78125 
L 21.578125 24.515625 
Q 13.234375 26.265625 9.515625 29.90625 
Q 5.8125 33.546875 5.8125 39.890625 
Q 5.8125 47.609375 11.28125 51.796875 
Q 16.75 56 26.8125 56 
Q 31.78125 56 36.171875 55.265625 
Q 40.578125 54.546875 44.28125 53.078125 
z
" id="DejaVuSans-115"/>
      <path d="M 25.390625 72.90625 
L 33.6875 72.90625 
L 8.296875 -9.28125 
L 0 -9.28125 
z
" id="DejaVuSans-47"/>
      <path d="M 45.40625 46.390625 
L 45.40625 75.984375 
L 54.390625 75.984375 
L 54.390625 0 
L 45.40625 0 
L 45.40625 8.203125 
Q 42.578125 3.328125 38.25 0.953125 
Q 33.9375 -1.421875 27.875 -1.421875 
Q 17.96875 -1.421875 11.734375 6.484375 
Q 5.515625 14.40625 5.515625 27.296875 
Q 5.515625 40.1875 11.734375 48.09375 
Q 17.96875 56 27.875 56 
Q 33.9375 56 38.25 53.625 
Q 42.578125 51.265625 45.40625 46.390625 
z
M 14.796875 27.296875 
Q 14.796875 17.390625 18.875 11.75 
Q 22.953125 6.109375 30.078125 6.109375 
Q 37.203125 6.109375 41.296875 11.75 
Q 45.40625 17.390625 45.40625 27.296875 
Q 45.40625 37.203125 41.296875 42.84375 
Q 37.203125 48.484375 30.078125 48.484375 
Q 22.953125 48.484375 18.875 42.84375 
Q 14.796875 37.203125 14.796875 27.296875 
z
" id="DejaVuSans-100"/>
      <path d="M 9.421875 54.6875 
L 18.40625 54.6875 
L 18.40625 0 
L 9.421875 0 
z
M 9.421875 75.984375 
L 18.40625 75.984375 
L 18.40625 64.59375 
L 9.421875 64.59375 
z
" id="DejaVuSans-105"/>
      <path d="M 52 44.1875 
Q 55.375 50.25 60.0625 53.125 
Q 64.75 56 71.09375 56 
Q 79.640625 56 84.28125 50.015625 
Q 88.921875 44.046875 88.921875 33.015625 
L 88.921875 0 
L 79.890625 0 
L 79.890625 32.71875 
Q 79.890625 40.578125 77.09375 44.375 
Q 74.3125 48.1875 68.609375 48.1875 
Q 61.625 48.1875 57.5625 43.546875 
Q 53.515625 38.921875 53.515625 30.90625 
L 53.515625 0 
L 44.484375 0 
L 44.484375 32.71875 
Q 44.484375 40.625 41.703125 44.40625 
Q 38.921875 48.1875 33.109375 48.1875 
Q 26.21875 48.1875 22.15625 43.53125 
Q 18.109375 38.875 18.109375 30.90625 
L 18.109375 0 
L 9.078125 0 
L 9.078125 54.6875 
L 18.109375 54.6875 
L 18.109375 46.1875 
Q 21.1875 51.21875 25.484375 53.609375 
Q 29.78125 56 35.6875 56 
Q 41.65625 56 45.828125 52.96875 
Q 50 49.953125 52 44.1875 
z
" id="DejaVuSans-109"/>
      <path d="M 54.890625 33.015625 
L 54.890625 0 
L 45.90625 0 
L 45.90625 32.71875 
Q 45.90625 40.484375 42.875 44.328125 
Q 39.84375 48.1875 33.796875 48.1875 
Q 26.515625 48.1875 22.3125 43.546875 
Q 18.109375 38.921875 18.109375 30.90625 
L 18.109375 0 
L 9.078125 0 
L 9.078125 54.6875 
L 18.109375 54.6875 
L 18.109375 46.1875 
Q 21.34375 51.125 25.703125 53.5625 
Q 30.078125 56 35.796875 56 
Q 45.21875 56 50.046875 50.171875 
Q 54.890625 44.34375 54.890625 33.015625 
z
" id="DejaVuSans-110"/>
      <path d="M 8.015625 75.875 
L 15.828125 75.875 
Q 23.140625 64.359375 26.78125 53.3125 
Q 30.421875 42.28125 30.421875 31.390625 
Q 30.421875 20.453125 26.78125 9.375 
Q 23.140625 -1.703125 15.828125 -13.1875 
L 8.015625 -13.1875 
Q 14.5 -2 17.703125 9.0625 
Q 20.90625 20.125 20.90625 31.390625 
Q 20.90625 42.671875 17.703125 53.65625 
Q 14.5 64.65625 8.015625 75.875 
z
" id="DejaVuSans-41"/>
     </defs>
     <g transform="translate(77.764078 342.217594)scale(0.17 -0.17)">
      <use xlink:href="#DejaVuSans-108"/>
      <use x="27.783203" xlink:href="#DejaVuSans-111"/>
      <use x="88.964844" xlink:href="#DejaVuSans-103"/>
      <use x="152.441406" xlink:href="#DejaVuSans-49"/>
      <use x="216.064453" xlink:href="#DejaVuSans-48"/>
      <use x="279.6875" xlink:href="#DejaVuSans-40"/>
      <use x="318.701172" xlink:href="#DejaVuSans-35"/>
      <use x="402.490234" xlink:href="#DejaVuSans-32"/>
      <use x="434.277344" xlink:href="#DejaVuSans-102"/>
      <use x="463.982422" xlink:href="#DejaVuSans-45"/>
      <use x="500.066406" xlink:href="#DejaVuSans-101"/>
      <use x="561.589844" xlink:href="#DejaVuSans-118"/>
      <use x="620.769531" xlink:href="#DejaVuSans-97"/>
      <use x="682.048828" xlink:href="#DejaVuSans-108"/>
      <use x="709.832031" xlink:href="#DejaVuSans-115"/>
      <use x="761.931641" xlink:href="#DejaVuSans-32"/>
      <use x="793.71875" xlink:href="#DejaVuSans-47"/>
      <use x="827.410156" xlink:href="#DejaVuSans-32"/>
      <use x="859.197266" xlink:href="#DejaVuSans-100"/>
      <use x="922.673828" xlink:href="#DejaVuSans-105"/>
      <use x="950.457031" xlink:href="#DejaVuSans-109"/>
      <use x="1047.869141" xlink:href="#DejaVuSans-101"/>
      <use x="1109.392578" xlink:href="#DejaVuSans-110"/>
      <use x="1172.771484" xlink:href="#DejaVuSans-115"/>
      <use x="1224.871094" xlink:href="#DejaVuSans-105"/>
      <use x="1252.654297" xlink:href="#DejaVuSans-111"/>
      <use x="1313.835938" xlink:href="#DejaVuSans-110"/>
      <use x="1377.214844" xlink:href="#DejaVuSans-41"/>
     </g>
    </g>
   </g>
   <g id="matplotlib.axis_2">
    <g id="ytick_1">
     <g id="line2d_21">
      <path clip-path="url(#p18d458ecde)" d="M 57.6 298.944 
L 338.688 298.944 
" style="fill:none;stroke:#b0b0b0;stroke-linecap:square;stroke-width:0.8;"/>
     </g>
     <g id="line2d_22">
      <defs>
       <path d="M 0 0 
L -3.5 0 
" id="m07eb6aa518" style="stroke:#000000;stroke-width:0.8;"/>
      </defs>
      <g>
       <use style="stroke:#000000;stroke-width:0.8;" x="57.6" xlink:href="#m07eb6aa518" y="298.944"/>
      </g>
     </g>
     <g id="text_6">
      <!-- 0.0 -->
      <defs>
       <path d="M 10.6875 12.40625 
L 21 12.40625 
L 21 0 
L 10.6875 0 
z
" id="DejaVuSans-46"/>
      </defs>
      <g transform="translate(25.155 305.02275)scale(0.16 -0.16)">
       <use xlink:href="#DejaVuSans-48"/>
       <use x="63.623047" xlink:href="#DejaVuSans-46"/>
       <use x="95.410156" xlink:href="#DejaVuSans-48"/>
      </g>
     </g>
    </g>
    <g id="ytick_2">
     <g id="line2d_23">
      <path clip-path="url(#p18d458ecde)" d="M 57.6 245.22202 
L 338.688 245.22202 
" style="fill:none;stroke:#b0b0b0;stroke-linecap:square;stroke-width:0.8;"/>
     </g>
     <g id="line2d_24">
      <g>
       <use style="stroke:#000000;stroke-width:0.8;" x="57.6" xlink:href="#m07eb6aa518" y="245.22202"/>
      </g>
     </g>
     <g id="text_7">
      <!-- 0.2 -->
      <g transform="translate(25.155 251.30077)scale(0.16 -0.16)">
       <use xlink:href="#DejaVuSans-48"/>
       <use x="63.623047" xlink:href="#DejaVuSans-46"/>
       <use x="95.410156" xlink:href="#DejaVuSans-50"/>
      </g>
     </g>
    </g>
    <g id="ytick_3">
     <g id="line2d_25">
      <path clip-path="url(#p18d458ecde)" d="M 57.6 191.50004 
L 338.688 191.50004 
" style="fill:none;stroke:#b0b0b0;stroke-linecap:square;stroke-width:0.8;"/>
     </g>
     <g id="line2d_26">
      <g>
       <use style="stroke:#000000;stroke-width:0.8;" x="57.6" xlink:href="#m07eb6aa518" y="191.50004"/>
      </g>
     </g>
     <g id="text_8">
      <!-- 0.4 -->
      <g transform="translate(25.155 197.57879)scale(0.16 -0.16)">
       <use xlink:href="#DejaVuSans-48"/>
       <use x="63.623047" xlink:href="#DejaVuSans-46"/>
       <use x="95.410156" xlink:href="#DejaVuSans-52"/>
      </g>
     </g>
    </g>
    <g id="ytick_4">
     <g id="line2d_27">
      <path clip-path="url(#p18d458ecde)" d="M 57.6 137.778059 
L 338.688 137.778059 
" style="fill:none;stroke:#b0b0b0;stroke-linecap:square;stroke-width:0.8;"/>
     </g>
     <g id="line2d_28">
      <g>
       <use style="stroke:#000000;stroke-width:0.8;" x="57.6" xlink:href="#m07eb6aa518" y="137.778059"/>
      </g>
     </g>
     <g id="text_9">
      <!-- 0.6 -->
      <g transform="translate(25.155 143.856809)scale(0.16 -0.16)">
       <use xlink:href="#DejaVuSans-48"/>
       <use x="63.623047" xlink:href="#DejaVuSans-46"/>
       <use x="95.410156" xlink:href="#DejaVuSans-54"/>
      </g>
     </g>
    </g>
    <g id="ytick_5">
     <g id="line2d_29">
      <path clip-path="url(#p18d458ecde)" d="M 57.6 84.056079 
L 338.688 84.056079 
" style="fill:none;stroke:#b0b0b0;stroke-linecap:square;stroke-width:0.8;"/>
     </g>
     <g id="line2d_30">
      <g>
       <use style="stroke:#000000;stroke-width:0.8;" x="57.6" xlink:href="#m07eb6aa518" y="84.056079"/>
      </g>
     </g>
     <g id="text_10">
      <!-- 0.8 -->
      <defs>
       <path d="M 31.78125 34.625 
Q 24.75 34.625 20.71875 30.859375 
Q 16.703125 27.09375 16.703125 20.515625 
Q 16.703125 13.921875 20.71875 10.15625 
Q 24.75 6.390625 31.78125 6.390625 
Q 38.8125 6.390625 42.859375 10.171875 
Q 46.921875 13.96875 46.921875 20.515625 
Q 46.921875 27.09375 42.890625 30.859375 
Q 38.875 34.625 31.78125 34.625 
z
M 21.921875 38.8125 
Q 15.578125 40.375 12.03125 44.71875 
Q 8.5 49.078125 8.5 55.328125 
Q 8.5 64.0625 14.71875 69.140625 
Q 20.953125 74.21875 31.78125 74.21875 
Q 42.671875 74.21875 48.875 69.140625 
Q 55.078125 64.0625 55.078125 55.328125 
Q 55.078125 49.078125 51.53125 44.71875 
Q 48 40.375 41.703125 38.8125 
Q 48.828125 37.15625 52.796875 32.3125 
Q 56.78125 27.484375 56.78125 20.515625 
Q 56.78125 9.90625 50.3125 4.234375 
Q 43.84375 -1.421875 31.78125 -1.421875 
Q 19.734375 -1.421875 13.25 4.234375 
Q 6.78125 9.90625 6.78125 20.515625 
Q 6.78125 27.484375 10.78125 32.3125 
Q 14.796875 37.15625 21.921875 38.8125 
z
M 18.3125 54.390625 
Q 18.3125 48.734375 21.84375 45.5625 
Q 25.390625 42.390625 31.78125 42.390625 
Q 38.140625 42.390625 41.71875 45.5625 
Q 45.3125 48.734375 45.3125 54.390625 
Q 45.3125 60.0625 41.71875 63.234375 
Q 38.140625 66.40625 31.78125 66.40625 
Q 25.390625 66.40625 21.84375 63.234375 
Q 18.3125 60.0625 18.3125 54.390625 
z
" id="DejaVuSans-56"/>
      </defs>
      <g transform="translate(25.155 90.134829)scale(0.16 -0.16)">
       <use xlink:href="#DejaVuSans-48"/>
       <use x="63.623047" xlink:href="#DejaVuSans-46"/>
       <use x="95.410156" xlink:href="#DejaVuSans-56"/>
      </g>
     </g>
    </g>
    <g id="ytick_6">
     <g id="line2d_31">
      <path clip-path="url(#p18d458ecde)" d="M 57.6 30.334099 
L 338.688 30.334099 
" style="fill:none;stroke:#b0b0b0;stroke-linecap:square;stroke-width:0.8;"/>
     </g>
     <g id="line2d_32">
      <g>
       <use style="stroke:#000000;stroke-width:0.8;" x="57.6" xlink:href="#m07eb6aa518" y="30.334099"/>
      </g>
     </g>
     <g id="text_11">
      <!-- 1.0 -->
      <g transform="translate(25.155 36.412849)scale(0.16 -0.16)">
       <use xlink:href="#DejaVuSans-49"/>
       <use x="63.623047" xlink:href="#DejaVuSans-46"/>
       <use x="95.410156" xlink:href="#DejaVuSans-48"/>
      </g>
     </g>
    </g>
    <g id="text_12">
     <!-- Fraction of function,target pairs -->
     <defs>
      <path d="M 9.8125 72.90625 
L 51.703125 72.90625 
L 51.703125 64.59375 
L 19.671875 64.59375 
L 19.671875 43.109375 
L 48.578125 43.109375 
L 48.578125 34.8125 
L 19.671875 34.8125 
L 19.671875 0 
L 9.8125 0 
z
" id="DejaVuSans-70"/>
      <path d="M 41.109375 46.296875 
Q 39.59375 47.171875 37.8125 47.578125 
Q 36.03125 48 33.890625 48 
Q 26.265625 48 22.1875 43.046875 
Q 18.109375 38.09375 18.109375 28.8125 
L 18.109375 0 
L 9.078125 0 
L 9.078125 54.6875 
L 18.109375 54.6875 
L 18.109375 46.1875 
Q 20.953125 51.171875 25.484375 53.578125 
Q 30.03125 56 36.53125 56 
Q 37.453125 56 38.578125 55.875 
Q 39.703125 55.765625 41.0625 55.515625 
z
" id="DejaVuSans-114"/>
      <path d="M 48.78125 52.59375 
L 48.78125 44.1875 
Q 44.96875 46.296875 41.140625 47.34375 
Q 37.3125 48.390625 33.40625 48.390625 
Q 24.65625 48.390625 19.8125 42.84375 
Q 14.984375 37.3125 14.984375 27.296875 
Q 14.984375 17.28125 19.8125 11.734375 
Q 24.65625 6.203125 33.40625 6.203125 
Q 37.3125 6.203125 41.140625 7.25 
Q 44.96875 8.296875 48.78125 10.40625 
L 48.78125 2.09375 
Q 45.015625 0.34375 40.984375 -0.53125 
Q 36.96875 -1.421875 32.421875 -1.421875 
Q 20.0625 -1.421875 12.78125 6.34375 
Q 5.515625 14.109375 5.515625 27.296875 
Q 5.515625 40.671875 12.859375 48.328125 
Q 20.21875 56 33.015625 56 
Q 37.15625 56 41.109375 55.140625 
Q 45.0625 54.296875 48.78125 52.59375 
z
" id="DejaVuSans-99"/>
      <path d="M 18.3125 70.21875 
L 18.3125 54.6875 
L 36.8125 54.6875 
L 36.8125 47.703125 
L 18.3125 47.703125 
L 18.3125 18.015625 
Q 18.3125 11.328125 20.140625 9.421875 
Q 21.96875 7.515625 27.59375 7.515625 
L 36.8125 7.515625 
L 36.8125 0 
L 27.59375 0 
Q 17.1875 0 13.234375 3.875 
Q 9.28125 7.765625 9.28125 18.015625 
L 9.28125 47.703125 
L 2.6875 47.703125 
L 2.6875 54.6875 
L 9.28125 54.6875 
L 9.28125 70.21875 
z
" id="DejaVuSans-116"/>
      <path d="M 8.5 21.578125 
L 8.5 54.6875 
L 17.484375 54.6875 
L 17.484375 21.921875 
Q 17.484375 14.15625 20.5 10.265625 
Q 23.53125 6.390625 29.59375 6.390625 
Q 36.859375 6.390625 41.078125 11.03125 
Q 45.3125 15.671875 45.3125 23.6875 
L 45.3125 54.6875 
L 54.296875 54.6875 
L 54.296875 0 
L 45.3125 0 
L 45.3125 8.40625 
Q 42.046875 3.421875 37.71875 1 
Q 33.40625 -1.421875 27.6875 -1.421875 
Q 18.265625 -1.421875 13.375 4.4375 
Q 8.5 10.296875 8.5 21.578125 
z
M 31.109375 56 
z
" id="DejaVuSans-117"/>
      <path d="M 11.71875 12.40625 
L 22.015625 12.40625 
L 22.015625 4 
L 14.015625 -11.625 
L 7.71875 -11.625 
L 11.71875 4 
z
" id="DejaVuSans-44"/>
      <path d="M 18.109375 8.203125 
L 18.109375 -20.796875 
L 9.078125 -20.796875 
L 9.078125 54.6875 
L 18.109375 54.6875 
L 18.109375 46.390625 
Q 20.953125 51.265625 25.265625 53.625 
Q 29.59375 56 35.59375 56 
Q 45.5625 56 51.78125 48.09375 
Q 58.015625 40.1875 58.015625 27.296875 
Q 58.015625 14.40625 51.78125 6.484375 
Q 45.5625 -1.421875 35.59375 -1.421875 
Q 29.59375 -1.421875 25.265625 0.953125 
Q 20.953125 3.328125 18.109375 8.203125 
z
M 48.6875 27.296875 
Q 48.6875 37.203125 44.609375 42.84375 
Q 40.53125 48.484375 33.40625 48.484375 
Q 26.265625 48.484375 22.1875 42.84375 
Q 18.109375 37.203125 18.109375 27.296875 
Q 18.109375 17.390625 22.1875 11.75 
Q 26.265625 6.109375 33.40625 6.109375 
Q 40.53125 6.109375 44.609375 11.75 
Q 48.6875 17.390625 48.6875 27.296875 
z
" id="DejaVuSans-112"/>
     </defs>
     <g transform="translate(17.619531 297.681)rotate(-90)scale(0.17 -0.17)">
      <use xlink:href="#DejaVuSans-70"/>
      <use x="50.269531" xlink:href="#DejaVuSans-114"/>
      <use x="91.382812" xlink:href="#DejaVuSans-97"/>
      <use x="152.662109" xlink:href="#DejaVuSans-99"/>
      <use x="207.642578" xlink:href="#DejaVuSans-116"/>
      <use x="246.851562" xlink:href="#DejaVuSans-105"/>
      <use x="274.634766" xlink:href="#DejaVuSans-111"/>
      <use x="335.816406" xlink:href="#DejaVuSans-110"/>
      <use x="399.195312" xlink:href="#DejaVuSans-32"/>
      <use x="430.982422" xlink:href="#DejaVuSans-111"/>
      <use x="492.164062" xlink:href="#DejaVuSans-102"/>
      <use x="527.369141" xlink:href="#DejaVuSans-32"/>
      <use x="559.15625" xlink:href="#DejaVuSans-102"/>
      <use x="594.361328" xlink:href="#DejaVuSans-117"/>
      <use x="657.740234" xlink:href="#DejaVuSans-110"/>
      <use x="721.119141" xlink:href="#DejaVuSans-99"/>
      <use x="776.099609" xlink:href="#DejaVuSans-116"/>
      <use x="815.308594" xlink:href="#DejaVuSans-105"/>
      <use x="843.091797" xlink:href="#DejaVuSans-111"/>
      <use x="904.273438" xlink:href="#DejaVuSans-110"/>
      <use x="967.652344" xlink:href="#DejaVuSans-44"/>
      <use x="999.439453" xlink:href="#DejaVuSans-116"/>
      <use x="1038.648438" xlink:href="#DejaVuSans-97"/>
      <use x="1099.927734" xlink:href="#DejaVuSans-114"/>
      <use x="1139.291016" xlink:href="#DejaVuSans-103"/>
      <use x="1202.767578" xlink:href="#DejaVuSans-101"/>
      <use x="1264.291016" xlink:href="#DejaVuSans-116"/>
      <use x="1303.5" xlink:href="#DejaVuSans-32"/>
      <use x="1335.287109" xlink:href="#DejaVuSans-112"/>
      <use x="1398.763672" xlink:href="#DejaVuSans-97"/>
      <use x="1460.042969" xlink:href="#DejaVuSans-105"/>
      <use x="1487.826172" xlink:href="#DejaVuSans-114"/>
      <use x="1528.939453" xlink:href="#DejaVuSans-115"/>
     </g>
    </g>
   </g>
   <g id="line2d_33">
    <defs>
     <path d="M 0 1.5 
C 0.397805 1.5 0.77937 1.341951 1.06066 1.06066 
C 1.341951 0.77937 1.5 0.397805 1.5 0 
C 1.5 -0.397805 1.341951 -0.77937 1.06066 -1.06066 
C 0.77937 -1.341951 0.397805 -1.5 0 -1.5 
C -0.397805 -1.5 -0.77937 -1.341951 -1.06066 -1.06066 
C -1.341951 -0.77937 -1.5 -0.397805 -1.5 0 
C -1.5 0.397805 -1.341951 0.77937 -1.06066 1.06066 
C -0.77937 1.341951 -0.397805 1.5 0 1.5 
z
" id="mc84a11f214" style="stroke:#f5deb3;"/>
    </defs>
    <g>
     <use style="fill:#f5deb3;stroke:#f5deb3;" x="142.351634" xlink:href="#mc84a11f214" y="30.334099"/>
     <use style="fill:#f5deb3;stroke:#f5deb3;" x="142.351634" xlink:href="#mc84a11f214" y="30.334099"/>
    </g>
   </g>
   <g id="line2d_34">
    <defs>
     <path d="M 0 1.5 
C 0.397805 1.5 0.77937 1.341951 1.06066 1.06066 
C 1.341951 0.77937 1.5 0.397805 1.5 0 
C 1.5 -0.397805 1.341951 -0.77937 1.06066 -1.06066 
C 0.77937 -1.341951 0.397805 -1.5 0 -1.5 
C -0.397805 -1.5 -0.77937 -1.341951 -1.06066 -1.06066 
C -1.341951 -0.77937 -1.5 -0.397805 -1.5 0 
C -1.5 0.397805 -1.341951 0.77937 -1.06066 1.06066 
C -0.77937 1.341951 -0.397805 1.5 0 1.5 
z
" id="m3a457f8889" style="stroke:#000080;"/>
    </defs>
    <g>
     <use style="fill:#000080;stroke:#000080;" x="263.871798" xlink:href="#m3a457f8889" y="61.935264"/>
     <use style="fill:#000080;stroke:#000080;" x="263.871798" xlink:href="#m3a457f8889" y="61.935264"/>
    </g>
   </g>
   <g id="line2d_35">
    <path d="M 45.512012 298.944 
L 45.512012 291.570395 
L 57.6 291.570395 
L 57.6 285.776848 
L 64.67102 285.776848 
L 64.67102 283.143418 
L 69.687988 283.143418 
L 69.687988 280.509987 
L 73.579452 280.509987 
L 73.579452 277.349871 
L 76.759008 277.349871 
L 76.759008 276.296499 
L 79.447285 276.296499 
L 79.447285 274.189754 
L 81.775977 274.189754 
L 81.775977 270.502952 
L 85.66744 270.502952 
L 85.66744 269.449579 
L 87.329581 269.449579 
L 87.329581 267.869521 
L 88.846997 267.869521 
L 88.846997 265.236091 
L 90.242884 265.236091 
L 90.242884 262.60266 
L 91.535274 262.60266 
L 91.535274 259.442544 
L 94.921215 259.442544 
L 94.921215 258.915858 
L 99.41757 258.915858 
L 99.41757 258.389172 
L 100.934985 258.389172 
L 100.934985 255.755741 
L 107.514726 255.755741 
L 107.514726 255.229055 
L 108.948899 255.229055 
L 108.948899 253.648997 
L 111.104637 253.648997 
L 111.104637 250.488881 
L 112.280765 250.488881 
L 112.280765 248.908822 
L 112.655818 248.908822 
L 112.655818 246.802078 
L 113.73488 246.802078 
L 113.73488 245.748706 
L 115.077025 245.748706 
L 115.077025 244.695334 
L 115.397021 244.695334 
L 115.397021 244.168648 
L 116.019919 244.168648 
L 116.019919 243.115275 
L 117.202696 243.115275 
L 117.202696 242.061903 
L 117.486268 242.061903 
L 117.486268 241.535217 
L 122.782271 241.535217 
L 122.782271 241.008531 
L 125.822869 241.008531 
L 125.822869 240.481845 
L 126.338353 240.481845 
L 126.338353 238.901787 
L 133.57787 238.901787 
L 133.57787 238.375101 
L 135.280614 238.375101 
L 135.280614 237.848415 
L 135.681535 237.848415 
L 135.681535 235.214984 
L 145.609873 235.214984 
L 145.609873 233.634926 
L 146.906268 233.634926 
L 147.010073 230.47481 
L 147.52003 230.47481 
L 147.52003 228.894751 
L 148.064279 228.894751 
L 148.064279 227.841379 
L 148.209809 227.841379 
L 148.209809 227.314693 
L 149.195872 227.314693 
L 149.195872 226.261321 
L 150.849711 226.261321 
L 150.849711 225.207949 
L 152.245598 225.207949 
L 152.245598 224.681263 
L 152.398241 224.681263 
L 152.398241 223.627891 
L 153.466662 223.627891 
L 153.466662 223.101204 
L 161.192316 223.101204 
L 161.192316 220.467774 
L 163.205526 220.467774 
L 163.205526 219.941088 
L 168.18668 219.941088 
L 168.18668 219.414402 
L 168.820356 219.414402 
L 168.820356 217.834344 
L 170.740545 217.834344 
L 170.740545 216.780971 
L 172.00732 216.780971 
L 172.00732 215.727599 
L 174.83783 215.727599 
L 174.83783 214.674227 
L 175.139502 214.674227 
L 175.139502 214.147541 
L 177.25418 214.147541 
L 177.25418 213.620855 
L 177.562046 213.620855 
L 177.562046 212.040797 
L 177.785001 212.040797 
L 177.785001 204.667192 
L 179.286902 204.667192 
L 179.286902 204.140506 
L 179.886249 204.140506 
L 179.886249 202.560447 
L 180.2131 202.560447 
L 180.2131 202.033761 
L 183.026484 202.033761 
L 183.026484 200.980389 
L 184.236667 200.980389 
L 184.236667 199.400331 
L 186.645515 199.400331 
L 186.725304 197.293586 
L 187.139609 197.293586 
L 187.165502 194.13347 
L 190.46539 194.13347 
L 190.46539 185.706493 
L 193.661356 185.706493 
L 193.661356 185.179807 
L 194.649043 185.179807 
L 194.649043 184.653121 
L 196.513388 184.653121 
L 196.513388 184.126434 
L 199.833666 184.126434 
L 199.833666 174.119399 
L 200.453226 174.119399 
L 200.453226 172.539341 
L 203.030733 172.539341 
L 203.030733 170.432596 
L 204.435273 170.432596 
L 204.435273 160.952247 
L 209.266716 160.952247 
L 209.266716 154.632014 
L 209.630107 154.632014 
L 209.630107 154.105328 
L 210.24424 154.105328 
L 210.24424 153.578642 
L 211.198587 153.578642 
L 211.198587 153.051956 
L 212.091018 153.051956 
L 212.091018 145.151665 
L 215.32893 145.151665 
L 215.354643 139.358118 
L 216.739142 139.358118 
L 216.739142 138.831432 
L 217.393157 138.831432 
L 217.393157 130.93114 
L 218.374509 130.93114 
L 218.374509 130.404454 
L 219.858471 130.404454 
L 219.858471 126.190966 
L 220.937374 126.190966 
L 220.937374 125.137593 
L 221.453511 125.137593 
L 221.453511 121.977477 
L 223.418467 121.977477 
L 223.434642 116.710616 
L 224.318487 116.710616 
L 224.318487 115.657244 
L 224.744759 115.657244 
L 224.744759 113.023814 
L 226.400792 113.023814 
L 226.400792 110.917069 
L 227.149319 110.917069 
L 227.149319 110.390383 
L 227.512381 110.390383 
L 227.512381 109.337011 
L 228.93502 109.337011 
L 228.93502 106.176895 
L 229.053496 106.176895 
L 229.053496 105.650209 
L 229.584167 105.650209 
L 229.584167 105.123522 
L 229.900344 105.123522 
L 229.900344 99.856662 
L 231.147276 99.856662 
L 231.147276 97.749917 
L 232.000357 97.749917 
L 232.000357 91.95637 
L 233.110226 91.95637 
L 233.110226 90.376312 
L 233.874451 90.376312 
L 233.874451 88.269568 
L 234.874412 88.269568 
L 234.874412 86.68951 
L 235.338657 86.68951 
L 235.338657 86.162824 
L 235.566548 86.162824 
L 235.566548 84.582765 
L 236.476411 84.582765 
L 236.476411 83.002707 
L 236.900401 83.002707 
L 236.900401 82.476021 
L 237.108888 82.476021 
L 237.108888 80.895963 
L 237.94355 80.895963 
L 237.94355 79.315904 
L 238.525836 79.315904 
L 238.525836 77.735846 
L 239.296782 77.735846 
L 239.296782 77.20916 
L 239.658111 77.20916 
L 239.658111 76.682474 
L 239.836259 76.682474 
L 239.836259 76.155788 
L 240.552527 76.155788 
L 240.552527 74.57573 
L 241.055058 74.57573 
L 241.055058 74.049044 
L 241.780896 74.049044 
L 241.780896 73.522358 
L 242.194213 73.522358 
L 242.194213 71.942299 
L 243.263498 71.942299 
L 243.263498 70.362241 
L 243.854108 70.362241 
L 243.854108 69.835555 
L 244.270991 69.835555 
L 244.270991 69.308869 
L 246.126562 69.308869 
L 246.126562 68.255497 
L 246.985205 68.255497 
L 246.985205 67.202125 
L 247.463856 67.202125 
L 247.463856 65.622066 
L 248.260542 65.622066 
L 248.260542 64.568694 
L 249.951714 64.568694 
L 249.951714 64.042008 
L 250.739662 64.042008 
L 250.739662 63.515322 
L 251.126624 63.515322 
L 251.126624 62.988636 
L 261.12054 62.988636 
L 261.12054 62.46195 
L 263.871798 62.46195 
L 263.871798 61.935264 
L 338.688 61.935264 
L 338.688 61.935264 
" style="fill:none;stroke:#000080;stroke-linecap:square;stroke-width:1.5;"/>
   </g>
   <g id="line2d_36">
    <defs>
     <path d="M 0 6 
C 1.591219 6 3.117479 5.367802 4.242641 4.242641 
C 5.367802 3.117479 6 1.591219 6 0 
C 6 -1.591219 5.367802 -3.117479 4.242641 -4.242641 
C 3.117479 -5.367802 1.591219 -6 0 -6 
C -1.591219 -6 -3.117479 -5.367802 -4.242641 -4.242641 
C -5.367802 -3.117479 -6 -1.591219 -6 0 
C -6 1.591219 -5.367802 3.117479 -4.242641 4.242641 
C -3.117479 5.367802 -1.591219 6 0 6 
z
" id="mc64a16286a" style="stroke:#000080;stroke-width:1.5;"/>
    </defs>
    <g>
     <use style="fill-opacity:0;stroke:#000080;stroke-width:1.5;" x="117.486268" xlink:href="#mc64a16286a" y="241.535217"/>
     <use style="fill-opacity:0;stroke:#000080;stroke-width:1.5;" x="177.785001" xlink:href="#mc64a16286a" y="212.040797"/>
     <use style="fill-opacity:0;stroke:#000080;stroke-width:1.5;" x="233.874451" xlink:href="#mc64a16286a" y="90.376312"/>
     <use style="fill-opacity:0;stroke:#000080;stroke-width:1.5;" x="263.871798" xlink:href="#mc64a16286a" y="61.935264"/>
     <use style="fill-opacity:0;stroke:#000080;stroke-width:1.5;" x="263.871798" xlink:href="#mc64a16286a" y="61.935264"/>
     <use style="fill-opacity:0;stroke:#000080;stroke-width:1.5;" x="338.688" xlink:href="#mc64a16286a" y="61.935264"/>
    </g>
   </g>
   <g id="line2d_37">
    <path style="fill:none;stroke:#000080;stroke-linecap:square;stroke-width:1.5;"/>
    <g/>
   </g>
   <g id="line2d_38">
    <path clip-path="url(#p18d458ecde)" d="M 194.045737 185.179807 
" style="fill:none;stroke:#000080;stroke-linecap:square;stroke-width:1.5;"/>
    <defs>
     <path d="M -12 12 
L 12 -12 
M -12 -12 
L 12 12 
" id="mea2abdc67b" style="stroke:#000080;"/>
    </defs>
    <g clip-path="url(#p18d458ecde)">
     <use style="fill:#000080;stroke:#000080;" x="194.045737" xlink:href="#mea2abdc67b" y="185.179807"/>
    </g>
   </g>
   <g id="line2d_39">
    <defs>
     <path d="M 0 1.5 
C 0.397805 1.5 0.77937 1.341951 1.06066 1.06066 
C 1.341951 0.77937 1.5 0.397805 1.5 0 
C 1.5 -0.397805 1.341951 -0.77937 1.06066 -1.06066 
C 0.77937 -1.341951 0.397805 -1.5 0 -1.5 
C -0.397805 -1.5 -0.77937 -1.341951 -1.06066 -1.06066 
C -1.341951 -0.77937 -1.5 -0.397805 -1.5 0 
C -1.5 0.397805 -1.341951 0.77937 -1.06066 1.06066 
C -0.77937 1.341951 -0.397805 1.5 0 1.5 
z
" id="m42373acb77" style="stroke:#ff7500;"/>
    </defs>
    <g>
     <use style="fill:#ff7500;stroke:#ff7500;" x="213.611531" xlink:href="#m42373acb77" y="30.334099"/>
     <use style="fill:#ff7500;stroke:#ff7500;" x="213.611531" xlink:href="#m42373acb77" y="30.334099"/>
    </g>
   </g>
   <g id="line2d_40">
    <path d="M 45.512012 298.944 
L 45.512012 293.150453 
L 57.6 293.150453 
L 57.6 291.570395 
L 64.67102 291.570395 
L 64.67102 288.410278 
L 69.687988 288.410278 
L 69.687988 286.303534 
L 73.579452 286.303534 
L 73.579452 281.036673 
L 76.759008 281.036673 
L 76.759008 280.509987 
L 79.447285 280.509987 
L 79.447285 277.876557 
L 81.775977 277.876557 
L 81.775977 276.296499 
L 83.830028 276.296499 
L 83.830028 275.243126 
L 87.329581 275.243126 
L 87.329581 274.71644 
L 90.242884 274.71644 
L 90.242884 272.609696 
L 92.73846 272.609696 
L 92.73846 268.396207 
L 94.921215 268.396207 
L 94.921215 265.762777 
L 95.918017 265.762777 
L 95.918017 264.182719 
L 96.86091 264.182719 
L 96.86091 262.075974 
L 99.41757 262.075974 
L 99.41757 261.022602 
L 100.192776 261.022602 
L 100.192776 257.3358 
L 103.623262 257.3358 
L 103.623262 254.702369 
L 104.826449 254.702369 
L 104.826449 254.175683 
L 105.398279 254.175683 
L 105.398279 252.595625 
L 107.009204 252.595625 
L 107.009204 252.068939 
L 108.006005 252.068939 
L 108.006005 251.542253 
L 111.104637 251.542253 
L 111.104637 249.962195 
L 111.897469 249.962195 
L 111.897469 248.908822 
L 112.280765 248.908822 
L 112.280765 248.382136 
L 114.418861 248.382136 
L 114.418861 247.328764 
L 115.077025 247.328764 
L 115.077025 246.275392 
L 115.397021 246.275392 
L 115.397021 244.168648 
L 119.850084 244.168648 
L 119.850084 243.641962 
L 121.036887 243.641962 
L 121.036887 243.115275 
L 121.712041 243.115275 
L 121.712041 240.481845 
L 122.362027 240.481845 
L 122.362027 239.955159 
L 123.985457 239.955159 
L 123.985457 236.795043 
L 126.338353 236.795043 
L 126.338353 236.268356 
L 127.325746 236.268356 
L 127.325746 234.688298 
L 128.560901 234.688298 
L 128.560901 233.10824 
L 128.856489 233.10824 
L 128.856489 232.581554 
L 129.433047 232.581554 
L 129.433047 232.054868 
L 130.796184 232.054868 
L 130.796184 231.528182 
L 132.893889 231.528182 
L 132.893889 229.948123 
L 133.124876 229.948123 
L 133.124876 228.894751 
L 133.46572 228.894751 
L 133.46572 228.368065 
L 134.236034 228.368065 
L 134.236034 226.788007 
L 134.450015 226.788007 
L 134.450015 225.207949 
L 134.661403 225.207949 
L 134.661403 224.154577 
L 137.37967 224.154577 
L 137.37967 223.101204 
L 138.927025 223.101204 
L 138.927025 222.574518 
L 139.964909 222.574518 
L 139.964909 220.99446 
L 140.871049 220.99446 
L 140.871049 219.414402 
L 142.010346 219.414402 
L 142.010346 218.887716 
L 144.747789 218.887716 
L 144.806606 216.254285 
L 145.665858 216.254285 
L 145.665858 215.727599 
L 145.777292 215.727599 
L 145.777292 214.674227 
L 146.644018 214.674227 
L 146.644018 213.620855 
L 147.164632 213.620855 
L 147.164632 205.720564 
L 147.570215 205.720564 
L 147.570215 205.193878 
L 147.86833 205.193878 
L 147.86833 195.713528 
L 148.112924 195.713528 
L 148.112924 195.186842 
L 148.54473 195.186842 
L 148.54473 194.13347 
L 148.826773 194.13347 
L 148.826773 193.606784 
L 148.966103 193.606784 
L 148.966103 185.179807 
L 149.332295 185.179807 
L 149.377533 180.439632 
L 149.823575 180.439632 
L 149.823575 179.912946 
L 150.429467 179.912946 
L 150.47195 177.806202 
L 150.891184 177.806202 
L 150.932558 159.898875 
L 151.581536 159.898875 
L 151.581536 159.372189 
L 151.779487 159.372189 
L 151.818809 154.105328 
L 151.936246 154.105328 
L 151.936246 152.52527 
L 152.052897 152.52527 
L 152.052897 150.945211 
L 152.995791 150.945211 
L 153.069065 148.838467 
L 153.502361 148.838467 
L 153.502361 147.785095 
L 154.507086 147.785095 
L 154.507086 146.205037 
L 154.807483 146.205037 
L 154.807483 137.778059 
L 155.678822 137.778059 
L 155.773004 136.198001 
L 155.86668 136.198001 
L 155.86668 127.244338 
L 156.021696 127.244338 
L 156.021696 125.66428 
L 156.144725 125.66428 
L 156.144725 125.137593 
L 156.478647 125.137593 
L 156.478647 118.290674 
L 156.747178 118.290674 
L 156.747178 117.763988 
L 157.185742 117.763988 
L 157.185742 117.237302 
L 157.753847 117.237302 
L 157.753847 110.390383 
L 158.385078 110.390383 
L 158.385078 108.283639 
L 159.405822 108.283639 
L 159.405822 107.230267 
L 160.200913 107.230267 
L 160.200913 99.856662 
L 160.321935 99.856662 
L 160.321935 98.803289 
L 160.585265 98.803289 
L 160.632719 95.116487 
L 160.914762 95.116487 
L 161.007772 93.009743 
L 161.88953 93.009743 
L 161.933569 90.902998 
L 162.453536 90.902998 
L 162.453536 84.056079 
L 162.581141 84.056079 
L 162.581141 83.002707 
L 162.896128 83.002707 
L 162.896128 81.949335 
L 164.140886 81.949335 
L 164.160252 80.369277 
L 164.505216 80.369277 
L 164.505216 79.842591 
L 165.120455 79.842591 
L 165.157053 77.735846 
L 165.248216 77.735846 
L 165.266391 75.102416 
L 165.46508 75.102416 
L 165.46508 74.57573 
L 165.7501 74.57573 
L 165.855793 72.468985 
L 166.628709 72.468985 
L 166.628709 71.942299 
L 166.795913 71.942299 
L 166.795913 71.415613 
L 166.91201 71.415613 
L 166.91201 70.362241 
L 168.671556 70.362241 
L 168.671556 69.835555 
L 169.403177 69.835555 
L 169.403177 62.988636 
L 169.911564 62.988636 
L 169.911564 61.935264 
L 171.237722 61.935264 
L 171.237722 61.408578 
L 171.920711 61.408578 
L 171.920711 60.355206 
L 172.105778 60.355206 
L 172.105778 58.775147 
L 194.195074 58.775147 
L 194.236522 56.668403 
L 194.469552 56.668403 
L 194.469552 56.141717 
L 194.60181 56.141717 
L 194.709584 54.561659 
L 194.853366 54.561659 
L 194.853366 54.034973 
L 195.16034 54.034973 
L 195.193028 52.454914 
L 195.313445 52.454914 
L 195.339373 49.821484 
L 195.45557 49.821484 
L 195.539012 46.134681 
L 195.628428 46.134681 
L 195.628428 45.607995 
L 195.79328 45.607995 
L 195.897095 44.027937 
L 195.925301 44.027937 
L 195.959713 41.921193 
L 196.096688 41.921193 
L 196.096688 41.394507 
L 196.28789 41.394507 
L 196.385761 39.287762 
L 196.440572 39.287762 
L 196.48915 38.23439 
L 196.685116 38.23439 
L 196.685116 37.707704 
L 196.98826 37.707704 
L 197.091078 36.127646 
L 197.204936 36.127646 
L 197.204936 35.60096 
L 197.844877 35.60096 
L 197.945569 32.967529 
L 206.716804 32.967529 
L 206.763965 31.914157 
L 207.014461 31.914157 
L 207.014461 31.387471 
L 207.5033 31.387471 
L 207.5033 30.860785 
L 213.611531 30.860785 
L 213.611531 30.334099 
L 338.688 30.334099 
L 338.688 30.334099 
" style="fill:none;stroke:#ff7500;stroke-linecap:square;stroke-width:1.5;"/>
   </g>
   <g id="line2d_41">
    <defs>
     <path d="M 0 -6 
L -1.347084 -1.854102 
L -5.706339 -1.854102 
L -2.179628 0.708204 
L -3.526712 4.854102 
L -0 2.291796 
L 3.526712 4.854102 
L 2.179628 0.708204 
L 5.706339 -1.854102 
L 1.347084 -1.854102 
z
" id="m2683df8d00" style="stroke:#ff7500;stroke-linejoin:bevel;stroke-width:1.5;"/>
    </defs>
    <g>
     <use style="fill-opacity:0;stroke:#ff7500;stroke-linejoin:bevel;stroke-width:1.5;" x="134.450015" xlink:href="#m2683df8d00" y="226.788007"/>
     <use style="fill-opacity:0;stroke:#ff7500;stroke-linejoin:bevel;stroke-width:1.5;" x="165.46508" xlink:href="#m2683df8d00" y="74.57573"/>
     <use style="fill-opacity:0;stroke:#ff7500;stroke-linejoin:bevel;stroke-width:1.5;" x="213.611531" xlink:href="#m2683df8d00" y="30.860785"/>
     <use style="fill-opacity:0;stroke:#ff7500;stroke-linejoin:bevel;stroke-width:1.5;" x="213.611531" xlink:href="#m2683df8d00" y="30.334099"/>
     <use style="fill-opacity:0;stroke:#ff7500;stroke-linejoin:bevel;stroke-width:1.5;" x="213.611531" xlink:href="#m2683df8d00" y="30.334099"/>
     <use style="fill-opacity:0;stroke:#ff7500;stroke-linejoin:bevel;stroke-width:1.5;" x="338.688" xlink:href="#m2683df8d00" y="30.334099"/>
    </g>
   </g>
   <g id="line2d_42">
    <path style="fill:none;stroke:#ff7500;stroke-linecap:square;stroke-width:1.5;"/>
    <g/>
   </g>
   <g id="line2d_43">
    <path clip-path="url(#p18d458ecde)" d="M 194.045737 58.775147 
" style="fill:none;stroke:#ff7500;stroke-linecap:square;stroke-width:1.5;"/>
    <defs>
     <path d="M -12 12 
L 12 -12 
M -12 -12 
L 12 12 
" id="mc88733211e" style="stroke:#ff7500;"/>
    </defs>
    <g clip-path="url(#p18d458ecde)">
     <use style="fill:#ff7500;stroke:#ff7500;" x="194.045737" xlink:href="#mc88733211e" y="58.775147"/>
    </g>
   </g>
   <g id="line2d_44">
    <defs>
     <path d="M 0 1.5 
C 0.397805 1.5 0.77937 1.341951 1.06066 1.06066 
C 1.341951 0.77937 1.5 0.397805 1.5 0 
C 1.5 -0.397805 1.341951 -0.77937 1.06066 -1.06066 
C 0.77937 -1.341951 0.397805 -1.5 0 -1.5 
C -0.397805 -1.5 -0.77937 -1.341951 -1.06066 -1.06066 
C -1.341951 -0.77937 -1.5 -0.397805 -1.5 0 
C -1.5 0.397805 -1.341951 0.77937 -1.06066 1.06066 
C -0.77937 1.341951 -0.397805 1.5 0 1.5 
z
" id="me297760edf" style="stroke:#6495ed;"/>
    </defs>
    <g>
     <use style="fill:#6495ed;stroke:#6495ed;" x="185.44271" xlink:href="#me297760edf" y="30.334099"/>
     <use style="fill:#6495ed;stroke:#6495ed;" x="185.44271" xlink:href="#me297760edf" y="30.334099"/>
    </g>
   </g>
   <g id="line2d_45">
    <path d="M 45.512012 298.944 
L 45.512012 295.783884 
L 57.6 295.783884 
L 57.6 292.623767 
L 64.67102 292.623767 
L 64.67102 289.990337 
L 69.687988 289.990337 
L 69.687988 288.410278 
L 73.579452 288.410278 
L 73.579452 284.723476 
L 76.759008 284.723476 
L 76.759008 284.19679 
L 79.447285 284.19679 
L 79.447285 279.983301 
L 81.775977 279.983301 
L 81.775977 276.296499 
L 83.830028 276.296499 
L 83.830028 275.243126 
L 87.329581 275.243126 
L 87.329581 274.71644 
L 90.242884 274.71644 
L 90.242884 273.136382 
L 92.73846 273.136382 
L 92.73846 267.869521 
L 94.921215 267.869521 
L 94.921215 264.182719 
L 95.918017 264.182719 
L 95.918017 263.656033 
L 96.86091 263.656033 
L 96.86091 260.495916 
L 99.41757 260.495916 
L 99.41757 259.442544 
L 100.192776 259.442544 
L 100.192776 255.229055 
L 103.623262 255.229055 
L 103.623262 253.122311 
L 105.398279 253.122311 
L 105.398279 251.542253 
L 108.006005 251.542253 
L 108.006005 251.015567 
L 111.104637 251.015567 
L 111.104637 249.435508 
L 112.655818 249.435508 
L 112.655818 248.382136 
L 116.323218 248.382136 
L 116.323218 245.748706 
L 118.576578 245.748706 
L 118.576578 243.641962 
L 123.985457 243.641962 
L 123.985457 243.115275 
L 124.743806 243.115275 
L 124.743806 241.535217 
L 125.291682 241.535217 
L 125.291682 241.008531 
L 125.647598 241.008531 
L 125.647598 239.428473 
L 127.48501 239.428473 
L 127.48501 238.375101 
L 128.560901 238.375101 
L 128.560901 237.848415 
L 128.856489 237.848415 
L 128.856489 236.795043 
L 129.574256 236.795043 
L 129.574256 236.268356 
L 131.056477 236.268356 
L 131.056477 235.74167 
L 131.690703 235.74167 
L 131.690703 235.214984 
L 132.060454 235.214984 
L 132.060454 233.10824 
L 132.30267 233.10824 
L 132.30267 231.528182 
L 132.422528 231.528182 
L 132.422528 231.001496 
L 132.541568 231.001496 
L 132.541568 228.894751 
L 132.659801 228.894751 
L 132.659801 227.841379 
L 133.910056 227.841379 
L 133.910056 226.788007 
L 135.381712 226.788007 
L 135.381712 225.734635 
L 138.84457 225.734635 
L 138.927025 224.681263 
L 139.652088 224.681263 
L 139.652088 223.627891 
L 140.348205 223.627891 
L 140.348205 220.99446 
L 142.283909 220.99446 
L 142.283909 220.467774 
L 142.553247 220.467774 
L 142.553247 218.36103 
L 143.079756 218.36103 
L 143.144465 217.307658 
L 143.964547 217.307658 
L 143.964547 216.254285 
L 144.570138 216.254285 
L 144.570138 215.727599 
L 147.113265 215.727599 
L 147.113265 213.620855 
L 147.4697 213.620855 
L 147.4697 213.094169 
L 147.917524 213.094169 
L 147.917524 210.987425 
L 149.241465 210.987425 
L 149.241465 209.934052 
L 149.867558 209.934052 
L 149.867558 209.407366 
L 151.779487 209.407366 
L 151.779487 208.353994 
L 152.207228 208.353994 
L 152.207228 207.300622 
L 152.922207 207.300622 
L 152.922207 206.773936 
L 153.105587 206.773936 
L 153.105587 204.140506 
L 153.287059 204.140506 
L 153.323128 203.087133 
L 153.466662 203.087133 
L 153.466662 201.507075 
L 155.004911 201.507075 
L 155.004911 199.927017 
L 155.393186 199.927017 
L 155.393186 198.873645 
L 155.897793 198.873645 
L 155.897793 198.346959 
L 156.114049 198.346959 
L 156.114049 197.293586 
L 156.568618 197.293586 
L 156.568618 196.7669 
L 157.358125 196.7669 
L 157.358125 190.973354 
L 157.781772 190.973354 
L 157.781772 190.446667 
L 158.51933 190.446667 
L 158.572743 188.339923 
L 158.705563 188.339923 
L 158.705563 187.813237 
L 159.226956 187.813237 
L 159.226956 178.859574 
L 160.609008 178.859574 
L 160.609008 178.332888 
L 160.750792 178.332888 
L 160.844678 160.952247 
L 160.938061 160.952247 
L 160.938061 159.372189 
L 161.054091 159.372189 
L 161.054091 149.891839 
L 162.152109 149.891839 
L 162.152109 144.624978 
L 162.432178 144.624978 
L 162.453536 143.04492 
L 162.644595 143.04492 
L 162.644595 142.518234 
L 163.205526 142.518234 
L 163.205526 134.617943 
L 164.004716 134.617943 
L 164.004716 133.037885 
L 164.19892 133.037885 
L 164.19892 130.93114 
L 165.978297 130.93114 
L 165.978297 129.877768 
L 166.561376 129.877768 
L 166.561376 128.824396 
L 166.779265 128.824396 
L 166.779265 118.290674 
L 167.336582 118.290674 
L 167.336582 108.283639 
L 168.445948 108.283639 
L 168.536542 101.43672 
L 168.805533 101.43672 
L 168.805533 100.910034 
L 169.055827 100.910034 
L 169.055827 92.483056 
L 169.201398 92.483056 
L 169.201398 91.95637 
L 169.630959 91.95637 
L 169.630959 83.529393 
L 169.827856 83.529393 
L 169.827856 81.422649 
L 170.160306 81.422649 
L 170.160306 80.895963 
L 170.700684 80.895963 
L 170.700684 80.369277 
L 171.237722 80.369277 
L 171.237722 79.842591 
L 171.758716 79.842591 
L 171.758716 79.315904 
L 172.019658 79.315904 
L 172.105778 72.468985 
L 172.25243 72.468985 
L 172.301041 70.888927 
L 172.779844 70.888927 
L 172.779844 69.308869 
L 173.130511 69.308869 
L 173.130511 60.881892 
L 173.257343 60.881892 
L 173.257343 60.355206 
L 173.542212 60.355206 
L 173.564801 58.775147 
L 173.666095 58.775147 
L 173.666095 57.721775 
L 174.774759 57.721775 
L 174.774759 49.821484 
L 175.425901 49.821484 
L 175.425901 48.768112 
L 175.737594 48.768112 
L 175.737594 48.241426 
L 175.866664 48.241426 
L 175.916053 46.134681 
L 176.03402 46.134681 
L 176.03402 44.554623 
L 176.67839 44.554623 
L 176.67839 42.974565 
L 177.767269 42.974565 
L 177.846921 39.287762 
L 178.573302 39.287762 
L 178.573302 38.761076 
L 178.783772 38.761076 
L 178.783772 37.181018 
L 179.964628 37.181018 
L 180.027079 35.074274 
L 180.112585 35.074274 
L 180.112585 34.547588 
L 180.526366 34.547588 
L 180.526366 33.494215 
L 181.070572 33.494215 
L 181.070572 32.967529 
L 181.90885 32.967529 
L 181.90885 32.440843 
L 182.466459 32.440843 
L 182.466459 31.914157 
L 183.915425 31.914157 
L 183.915425 31.387471 
L 184.867832 31.387471 
L 184.867832 30.860785 
L 185.44271 30.860785 
L 185.44271 30.334099 
L 338.688 30.334099 
L 338.688 30.334099 
" style="fill:none;stroke:#6495ed;stroke-linecap:square;stroke-width:1.5;"/>
   </g>
   <g id="line2d_46">
    <defs>
     <path d="M -0 6 
L 6 -6 
L -6 -6 
z
" id="md315326dbf" style="stroke:#6495ed;stroke-linejoin:miter;stroke-width:1.5;"/>
    </defs>
    <g>
     <use style="fill-opacity:0;stroke:#6495ed;stroke-linejoin:miter;stroke-width:1.5;" x="131.690703" xlink:href="#md315326dbf" y="235.74167"/>
     <use style="fill-opacity:0;stroke:#6495ed;stroke-linejoin:miter;stroke-width:1.5;" x="162.152109" xlink:href="#md315326dbf" y="149.891839"/>
     <use style="fill-opacity:0;stroke:#6495ed;stroke-linejoin:miter;stroke-width:1.5;" x="185.44271" xlink:href="#md315326dbf" y="30.860785"/>
     <use style="fill-opacity:0;stroke:#6495ed;stroke-linejoin:miter;stroke-width:1.5;" x="185.44271" xlink:href="#md315326dbf" y="30.334099"/>
     <use style="fill-opacity:0;stroke:#6495ed;stroke-linejoin:miter;stroke-width:1.5;" x="185.44271" xlink:href="#md315326dbf" y="30.334099"/>
     <use style="fill-opacity:0;stroke:#6495ed;stroke-linejoin:miter;stroke-width:1.5;" x="338.688" xlink:href="#md315326dbf" y="30.334099"/>
    </g>
   </g>
   <g id="line2d_47">
    <path style="fill:none;stroke:#6495ed;stroke-linecap:square;stroke-width:1.5;"/>
    <g/>
   </g>
   <g id="line2d_48">
    <defs>
     <path d="M 0 1.5 
C 0.397805 1.5 0.77937 1.341951 1.06066 1.06066 
C 1.341951 0.77937 1.5 0.397805 1.5 0 
C 1.5 -0.397805 1.341951 -0.77937 1.06066 -1.06066 
C 0.77937 -1.341951 0.397805 -1.5 0 -1.5 
C -0.397805 -1.5 -0.77937 -1.341951 -1.06066 -1.06066 
C -1.341951 -0.77937 -1.5 -0.397805 -1.5 0 
C -1.5 0.397805 -1.341951 0.77937 -1.06066 1.06066 
C -0.77937 1.341951 -0.397805 1.5 0 1.5 
z
" id="md5095350fa" style="stroke:#ff0000;"/>
    </defs>
    <g>
     <use style="fill:#ff0000;stroke:#ff0000;" x="175.436043" xlink:href="#md5095350fa" y="30.334099"/>
     <use style="fill:#ff0000;stroke:#ff0000;" x="175.436043" xlink:href="#md5095350fa" y="30.334099"/>
    </g>
   </g>
   <g id="line2d_49">
    <path d="M 45.512012 298.944 
L 45.512012 294.203825 
L 57.6 294.203825 
L 57.6 291.043709 
L 64.67102 291.043709 
L 64.67102 288.936964 
L 69.687988 288.936964 
L 69.687988 286.83022 
L 73.579452 286.83022 
L 73.579452 281.563359 
L 76.759008 281.563359 
L 76.759008 281.036673 
L 79.447285 281.036673 
L 79.447285 278.929929 
L 81.775977 278.929929 
L 81.775977 275.769812 
L 83.830028 275.769812 
L 83.830028 275.243126 
L 90.242884 275.243126 
L 90.242884 274.189754 
L 92.73846 274.189754 
L 92.73846 269.976266 
L 94.921215 269.976266 
L 94.921215 266.816149 
L 95.918017 266.816149 
L 95.918017 265.236091 
L 96.86091 265.236091 
L 96.86091 261.549288 
L 99.41757 261.549288 
L 99.41757 260.495916 
L 100.192776 260.495916 
L 100.192776 257.3358 
L 103.623262 257.3358 
L 103.623262 255.229055 
L 104.826449 255.229055 
L 104.826449 254.175683 
L 105.398279 254.175683 
L 105.398279 252.595625 
L 108.006005 252.595625 
L 108.006005 252.068939 
L 115.711251 252.068939 
L 115.711251 250.488881 
L 116.019919 250.488881 
L 116.019919 249.962195 
L 117.202696 249.962195 
L 117.202696 249.435508 
L 118.576578 249.435508 
L 118.576578 245.22202 
L 120.8059 245.22202 
L 120.8059 243.641962 
L 122.573415 243.641962 
L 122.573415 241.535217 
L 125.470548 241.535217 
L 125.470548 241.008531 
L 125.996395 241.008531 
L 125.996395 240.481845 
L 126.338353 240.481845 
L 126.338353 237.848415 
L 126.673734 237.848415 
L 126.673734 235.74167 
L 128.856489 235.74167 
L 128.856489 234.161612 
L 129.290685 234.161612 
L 129.290685 233.10824 
L 129.714332 233.10824 
L 129.714332 231.528182 
L 129.991152 231.528182 
L 129.991152 231.001496 
L 130.127931 231.001496 
L 130.127931 230.47481 
L 130.263646 230.47481 
L 130.263646 229.421437 
L 131.938072 229.421437 
L 131.938072 226.788007 
L 134.019394 226.788007 
L 134.019394 225.207949 
L 134.55603 225.207949 
L 134.55603 224.681263 
L 134.973757 224.681263 
L 134.973757 222.047832 
L 135.681535 222.047832 
L 135.681535 220.467774 
L 136.170062 220.467774 
L 136.170062 219.941088 
L 136.361705 219.941088 
L 136.361705 218.887716 
L 137.647286 218.887716 
L 137.647286 218.36103 
L 137.823442 218.36103 
L 137.823442 217.307658 
L 138.510793 217.307658 
L 138.510793 216.254285 
L 139.730821 216.254285 
L 139.730821 215.727599 
L 140.11924 215.727599 
L 140.11924 212.567483 
L 141.662245 212.567483 
L 141.662245 210.987425 
L 142.010346 210.987425 
L 142.010346 209.407366 
L 143.716296 209.407366 
L 143.778691 207.300622 
L 144.629556 207.300622 
L 144.629556 206.24725 
L 145.998045 206.24725 
L 145.998045 205.193878 
L 146.324022 205.193878 
L 146.324022 204.667192 
L 146.644018 204.667192 
L 146.644018 194.660156 
L 147.71991 194.660156 
L 147.769524 192.026726 
L 147.86833 192.026726 
L 147.86833 191.50004 
L 148.161434 191.50004 
L 148.209809 189.919981 
L 148.306159 189.919981 
L 148.306159 182.546376 
L 148.87334 182.546376 
L 148.87334 172.539341 
L 149.195872 172.539341 
L 149.195872 172.012655 
L 149.467659 172.012655 
L 149.467659 164.112363 
L 150.891184 164.112363 
L 150.891184 163.058991 
L 151.260066 163.058991 
L 151.260066 162.005619 
L 151.818809 162.005619 
L 151.818809 160.425561 
L 152.0141 160.425561 
L 152.0141 158.845503 
L 152.511852 158.845503 
L 152.511852 149.891839 
L 152.736878 149.891839 
L 152.736878 149.365153 
L 155.457066 149.365153 
L 155.520713 138.304745 
L 155.804285 138.304745 
L 155.804285 137.251373 
L 156.083319 137.251373 
L 156.083319 126.717652 
L 157.893028 126.717652 
L 157.976006 117.237302 
L 158.222599 117.237302 
L 158.222599 115.657244 
L 158.465753 115.657244 
L 158.465753 110.390383 
L 158.67908 110.390383 
L 158.67908 100.910034 
L 160.537682 100.910034 
L 160.537682 99.856662 
L 161.510643 99.856662 
L 161.510643 98.276603 
L 162.10862 98.276603 
L 162.217141 96.169859 
L 162.260361 96.169859 
L 162.260361 95.643173 
L 162.581141 95.643173 
L 162.581141 93.009743 
L 162.833584 93.009743 
L 162.833584 91.429684 
L 163.205526 91.429684 
L 163.205526 83.002707 
L 163.946031 83.002707 
L 163.946031 75.102416 
L 164.179597 75.102416 
L 164.237502 65.09538 
L 164.954803 65.09538 
L 164.954803 64.042008 
L 165.855793 64.042008 
L 165.855793 63.515322 
L 167.207042 63.515322 
L 167.288118 59.301833 
L 167.985782 59.301833 
L 167.985782 58.775147 
L 168.109685 58.775147 
L 168.109685 58.248461 
L 168.491304 58.248461 
L 168.491304 57.195089 
L 168.982583 57.195089 
L 168.982583 49.821484 
L 169.645097 49.821484 
L 169.645097 47.71474 
L 169.981016 47.71474 
L 169.981016 39.814448 
L 170.364915 39.814448 
L 170.40555 37.707704 
L 170.753812 37.707704 
L 170.753812 37.181018 
L 170.938496 37.181018 
L 170.938496 36.127646 
L 171.082245 36.127646 
L 171.082245 35.074274 
L 172.409924 35.074274 
L 172.409924 34.547588 
L 173.360433 34.547588 
L 173.428822 31.387471 
L 175.436043 31.387471 
L 175.436043 30.334099 
L 338.688 30.334099 
L 338.688 30.334099 
" style="fill:none;stroke:#ff0000;stroke-linecap:square;stroke-width:1.5;"/>
   </g>
   <g id="line2d_50">
    <defs>
     <path d="M 0 -6 
L -5.196152 -3 
L -5.196152 3 
L -0 6 
L 5.196152 3 
L 5.196152 -3 
z
" id="m3b906f5da3" style="stroke:#ff0000;stroke-linejoin:miter;stroke-width:1.5;"/>
    </defs>
    <g>
     <use style="fill-opacity:0;stroke:#ff0000;stroke-linejoin:miter;stroke-width:1.5;" x="117.202696" xlink:href="#m3b906f5da3" y="249.435508"/>
     <use style="fill-opacity:0;stroke:#ff0000;stroke-linejoin:miter;stroke-width:1.5;" x="155.520713" xlink:href="#m3b906f5da3" y="147.785095"/>
     <use style="fill-opacity:0;stroke:#ff0000;stroke-linejoin:miter;stroke-width:1.5;" x="175.436043" xlink:href="#m3b906f5da3" y="31.387471"/>
     <use style="fill-opacity:0;stroke:#ff0000;stroke-linejoin:miter;stroke-width:1.5;" x="175.436043" xlink:href="#m3b906f5da3" y="30.334099"/>
     <use style="fill-opacity:0;stroke:#ff0000;stroke-linejoin:miter;stroke-width:1.5;" x="175.436043" xlink:href="#m3b906f5da3" y="30.334099"/>
     <use style="fill-opacity:0;stroke:#ff0000;stroke-linejoin:miter;stroke-width:1.5;" x="338.688" xlink:href="#m3b906f5da3" y="30.334099"/>
    </g>
   </g>
   <g id="line2d_51">
    <path style="fill:none;stroke:#ff0000;stroke-linecap:square;stroke-width:1.5;"/>
    <g/>
   </g>
   <g id="line2d_52">
    <path d="M 338.688 61.935264 
L 369.60768 293.571802 
" style="fill:none;stroke:#000080;stroke-linecap:square;stroke-width:1.5;"/>
    <g>
     <use style="fill-opacity:0;stroke:#000080;stroke-width:1.5;" x="338.688" xlink:href="#mc64a16286a" y="61.935264"/>
     <use style="fill-opacity:0;stroke:#000080;stroke-width:1.5;" x="369.60768" xlink:href="#mc64a16286a" y="293.571802"/>
    </g>
   </g>
   <g id="line2d_53">
    <path d="M 338.688 30.334099 
L 369.60768 229.105426 
" style="fill:none;stroke:#ff7500;stroke-linecap:square;stroke-width:1.5;"/>
    <g>
     <use style="fill-opacity:0;stroke:#ff7500;stroke-linejoin:bevel;stroke-width:1.5;" x="338.688" xlink:href="#m2683df8d00" y="30.334099"/>
     <use style="fill-opacity:0;stroke:#ff7500;stroke-linejoin:bevel;stroke-width:1.5;" x="369.60768" xlink:href="#m2683df8d00" y="229.105426"/>
    </g>
   </g>
   <g id="line2d_54">
    <path d="M 338.688 30.334099 
L 369.60768 164.63905 
" style="fill:none;stroke:#6495ed;stroke-linecap:square;stroke-width:1.5;"/>
    <g>
     <use style="fill-opacity:0;stroke:#6495ed;stroke-linejoin:miter;stroke-width:1.5;" x="338.688" xlink:href="#md315326dbf" y="30.334099"/>
     <use style="fill-opacity:0;stroke:#6495ed;stroke-linejoin:miter;stroke-width:1.5;" x="369.60768" xlink:href="#md315326dbf" y="164.63905"/>
    </g>
   </g>
   <g id="line2d_55">
    <path d="M 338.688 30.334099 
L 369.60768 100.172673 
" style="fill:none;stroke:#ff0000;stroke-linecap:square;stroke-width:1.5;"/>
    <g>
     <use style="fill-opacity:0;stroke:#ff0000;stroke-linejoin:miter;stroke-width:1.5;" x="338.688" xlink:href="#m3b906f5da3" y="30.334099"/>
     <use style="fill-opacity:0;stroke:#ff0000;stroke-linejoin:miter;stroke-width:1.5;" x="369.60768" xlink:href="#m3b906f5da3" y="100.172673"/>
    </g>
   </g>
   <g id="line2d_56">
    <path d="M 338.688 298.944 
L 338.688 30.334099 
" style="fill:none;stroke:#000000;stroke-linecap:square;stroke-width:1.5;"/>
   </g>
   <g id="patch_3">
    <path d="M 57.6 298.944 
L 57.6 27.648 
" style="fill:none;stroke:#000000;stroke-linecap:square;stroke-linejoin:miter;stroke-width:0.8;"/>
   </g>
   <g id="patch_4">
    <path d="M 338.688 298.944 
L 338.688 27.648 
" style="fill:none;stroke:#000000;stroke-linecap:square;stroke-linejoin:miter;stroke-width:0.8;"/>
   </g>
   <g id="patch_5">
    <path d="M 57.6 298.944 
L 338.688 298.944 
" style="fill:none;stroke:#000000;stroke-linecap:square;stroke-linejoin:miter;stroke-width:0.8;"/>
   </g>
   <g id="patch_6">
    <path d="M 57.6 27.648 
L 338.688 27.648 
" style="fill:none;stroke:#000000;stroke-linecap:square;stroke-linejoin:miter;stroke-width:0.8;"/>
   </g>
   <g id="text_13">
    <!-- ABC -->
    <defs>
     <path d="M 34.1875 63.1875 
L 20.796875 26.90625 
L 47.609375 26.90625 
z
M 28.609375 72.90625 
L 39.796875 72.90625 
L 67.578125 0 
L 57.328125 0 
L 50.6875 18.703125 
L 17.828125 18.703125 
L 11.1875 0 
L 0.78125 0 
z
" id="DejaVuSans-65"/>
     <path d="M 19.671875 34.8125 
L 19.671875 8.109375 
L 35.5 8.109375 
Q 43.453125 8.109375 47.28125 11.40625 
Q 51.125 14.703125 51.125 21.484375 
Q 51.125 28.328125 47.28125 31.5625 
Q 43.453125 34.8125 35.5 34.8125 
z
M 19.671875 64.796875 
L 19.671875 42.828125 
L 34.28125 42.828125 
Q 41.5 42.828125 45.03125 45.53125 
Q 48.578125 48.25 48.578125 53.8125 
Q 48.578125 59.328125 45.03125 62.0625 
Q 41.5 64.796875 34.28125 64.796875 
z
M 9.8125 72.90625 
L 35.015625 72.90625 
Q 46.296875 72.90625 52.390625 68.21875 
Q 58.5 63.53125 58.5 54.890625 
Q 58.5 48.1875 55.375 44.234375 
Q 52.25 40.28125 46.1875 39.3125 
Q 53.46875 37.75 57.5 32.78125 
Q 61.53125 27.828125 61.53125 20.40625 
Q 61.53125 10.640625 54.890625 5.3125 
Q 48.25 0 35.984375 0 
L 9.8125 0 
z
" id="DejaVuSans-66"/>
     <path d="M 64.40625 67.28125 
L 64.40625 56.890625 
Q 59.421875 61.53125 53.78125 63.8125 
Q 48.140625 66.109375 41.796875 66.109375 
Q 29.296875 66.109375 22.65625 58.46875 
Q 16.015625 50.828125 16.015625 36.375 
Q 16.015625 21.96875 22.65625 14.328125 
Q 29.296875 6.6875 41.796875 6.6875 
Q 48.140625 6.6875 53.78125 8.984375 
Q 59.421875 11.28125 64.40625 15.921875 
L 64.40625 5.609375 
Q 59.234375 2.09375 53.4375 0.328125 
Q 47.65625 -1.421875 41.21875 -1.421875 
Q 24.65625 -1.421875 15.125 8.703125 
Q 5.609375 18.84375 5.609375 36.375 
Q 5.609375 53.953125 15.125 64.078125 
Q 24.65625 74.21875 41.21875 74.21875 
Q 47.75 74.21875 53.53125 72.484375 
Q 59.328125 70.75 64.40625 67.28125 
z
" id="DejaVuSans-67"/>
    </defs>
    <g transform="translate(375.22944 298.262739)scale(0.17 -0.17)">
     <use xlink:href="#DejaVuSans-65"/>
     <use x="68.408203" xlink:href="#DejaVuSans-66"/>
     <use x="135.261719" xlink:href="#DejaVuSans-67"/>
    </g>
   </g>
   <g id="text_14">
    <!-- DE -->
    <defs>
     <path d="M 19.671875 64.796875 
L 19.671875 8.109375 
L 31.59375 8.109375 
Q 46.6875 8.109375 53.6875 14.9375 
Q 60.6875 21.78125 60.6875 36.53125 
Q 60.6875 51.171875 53.6875 57.984375 
Q 46.6875 64.796875 31.59375 64.796875 
z
M 9.8125 72.90625 
L 30.078125 72.90625 
Q 51.265625 72.90625 61.171875 64.09375 
Q 71.09375 55.28125 71.09375 36.53125 
Q 71.09375 17.671875 61.125 8.828125 
Q 51.171875 0 30.078125 0 
L 9.8125 0 
z
" id="DejaVuSans-68"/>
     <path d="M 9.8125 72.90625 
L 55.90625 72.90625 
L 55.90625 64.59375 
L 19.671875 64.59375 
L 19.671875 43.015625 
L 54.390625 43.015625 
L 54.390625 34.71875 
L 19.671875 34.71875 
L 19.671875 8.296875 
L 56.78125 8.296875 
L 56.78125 0 
L 9.8125 0 
z
" id="DejaVuSans-69"/>
    </defs>
    <g transform="translate(375.22944 233.796363)scale(0.17 -0.17)">
     <use xlink:href="#DejaVuSans-68"/>
     <use x="77.001953" xlink:href="#DejaVuSans-69"/>
    </g>
   </g>
   <g id="text_15">
    <!-- DEPSO -->
    <defs>
     <path d="M 19.671875 64.796875 
L 19.671875 37.40625 
L 32.078125 37.40625 
Q 38.96875 37.40625 42.71875 40.96875 
Q 46.484375 44.53125 46.484375 51.125 
Q 46.484375 57.671875 42.71875 61.234375 
Q 38.96875 64.796875 32.078125 64.796875 
z
M 9.8125 72.90625 
L 32.078125 72.90625 
Q 44.34375 72.90625 50.609375 67.359375 
Q 56.890625 61.8125 56.890625 51.125 
Q 56.890625 40.328125 50.609375 34.8125 
Q 44.34375 29.296875 32.078125 29.296875 
L 19.671875 29.296875 
L 19.671875 0 
L 9.8125 0 
z
" id="DejaVuSans-80"/>
     <path d="M 53.515625 70.515625 
L 53.515625 60.890625 
Q 47.90625 63.578125 42.921875 64.890625 
Q 37.9375 66.21875 33.296875 66.21875 
Q 25.25 66.21875 20.875 63.09375 
Q 16.5 59.96875 16.5 54.203125 
Q 16.5 49.359375 19.40625 46.890625 
Q 22.3125 44.4375 30.421875 42.921875 
L 36.375 41.703125 
Q 47.40625 39.59375 52.65625 34.296875 
Q 57.90625 29 57.90625 20.125 
Q 57.90625 9.515625 50.796875 4.046875 
Q 43.703125 -1.421875 29.984375 -1.421875 
Q 24.8125 -1.421875 18.96875 -0.25 
Q 13.140625 0.921875 6.890625 3.21875 
L 6.890625 13.375 
Q 12.890625 10.015625 18.65625 8.296875 
Q 24.421875 6.59375 29.984375 6.59375 
Q 38.421875 6.59375 43.015625 9.90625 
Q 47.609375 13.234375 47.609375 19.390625 
Q 47.609375 24.75 44.3125 27.78125 
Q 41.015625 30.8125 33.5 32.328125 
L 27.484375 33.5 
Q 16.453125 35.6875 11.515625 40.375 
Q 6.59375 45.0625 6.59375 53.421875 
Q 6.59375 63.09375 13.40625 68.65625 
Q 20.21875 74.21875 32.171875 74.21875 
Q 37.3125 74.21875 42.625 73.28125 
Q 47.953125 72.359375 53.515625 70.515625 
z
" id="DejaVuSans-83"/>
     <path d="M 39.40625 66.21875 
Q 28.65625 66.21875 22.328125 58.203125 
Q 16.015625 50.203125 16.015625 36.375 
Q 16.015625 22.609375 22.328125 14.59375 
Q 28.65625 6.59375 39.40625 6.59375 
Q 50.140625 6.59375 56.421875 14.59375 
Q 62.703125 22.609375 62.703125 36.375 
Q 62.703125 50.203125 56.421875 58.203125 
Q 50.140625 66.21875 39.40625 66.21875 
z
M 39.40625 74.21875 
Q 54.734375 74.21875 63.90625 63.9375 
Q 73.09375 53.65625 73.09375 36.375 
Q 73.09375 19.140625 63.90625 8.859375 
Q 54.734375 -1.421875 39.40625 -1.421875 
Q 24.03125 -1.421875 14.8125 8.828125 
Q 5.609375 19.09375 5.609375 36.375 
Q 5.609375 53.65625 14.8125 63.9375 
Q 24.03125 74.21875 39.40625 74.21875 
z
" id="DejaVuSans-79"/>
    </defs>
    <g transform="translate(375.22944 169.329987)scale(0.17 -0.17)">
     <use xlink:href="#DejaVuSans-68"/>
     <use x="77.001953" xlink:href="#DejaVuSans-69"/>
     <use x="140.185547" xlink:href="#DejaVuSans-80"/>
     <use x="200.488281" xlink:href="#DejaVuSans-83"/>
     <use x="263.964844" xlink:href="#DejaVuSans-79"/>
    </g>
   </g>
   <g id="text_16">
    <!-- PSO -->
    <g transform="translate(375.22944 104.863611)scale(0.17 -0.17)">
     <use xlink:href="#DejaVuSans-80"/>
     <use x="60.302734" xlink:href="#DejaVuSans-83"/>
     <use x="123.779297" xlink:href="#DejaVuSans-79"/>
    </g>
   </g>
   <g id="text_17">
    <!-- best 2009 -->
    <defs>
     <path d="M 48.6875 27.296875 
Q 48.6875 37.203125 44.609375 42.84375 
Q 40.53125 48.484375 33.40625 48.484375 
Q 26.265625 48.484375 22.1875 42.84375 
Q 18.109375 37.203125 18.109375 27.296875 
Q 18.109375 17.390625 22.1875 11.75 
Q 26.265625 6.109375 33.40625 6.109375 
Q 40.53125 6.109375 44.609375 11.75 
Q 48.6875 17.390625 48.6875 27.296875 
z
M 18.109375 46.390625 
Q 20.953125 51.265625 25.265625 53.625 
Q 29.59375 56 35.59375 56 
Q 45.5625 56 51.78125 48.09375 
Q 58.015625 40.1875 58.015625 27.296875 
Q 58.015625 14.40625 51.78125 6.484375 
Q 45.5625 -1.421875 35.59375 -1.421875 
Q 29.59375 -1.421875 25.265625 0.953125 
Q 20.953125 3.328125 18.109375 8.203125 
L 18.109375 0 
L 9.078125 0 
L 9.078125 75.984375 
L 18.109375 75.984375 
z
" id="DejaVuSans-98"/>
     <path d="M 10.984375 1.515625 
L 10.984375 10.5 
Q 14.703125 8.734375 18.5 7.8125 
Q 22.3125 6.890625 25.984375 6.890625 
Q 35.75 6.890625 40.890625 13.453125 
Q 46.046875 20.015625 46.78125 33.40625 
Q 43.953125 29.203125 39.59375 26.953125 
Q 35.25 24.703125 29.984375 24.703125 
Q 19.046875 24.703125 12.671875 31.3125 
Q 6.296875 37.9375 6.296875 49.421875 
Q 6.296875 60.640625 12.9375 67.421875 
Q 19.578125 74.21875 30.609375 74.21875 
Q 43.265625 74.21875 49.921875 64.515625 
Q 56.59375 54.828125 56.59375 36.375 
Q 56.59375 19.140625 48.40625 8.859375 
Q 40.234375 -1.421875 26.421875 -1.421875 
Q 22.703125 -1.421875 18.890625 -0.6875 
Q 15.09375 0.046875 10.984375 1.515625 
z
M 30.609375 32.421875 
Q 37.25 32.421875 41.125 36.953125 
Q 45.015625 41.5 45.015625 49.421875 
Q 45.015625 57.28125 41.125 61.84375 
Q 37.25 66.40625 30.609375 66.40625 
Q 23.96875 66.40625 20.09375 61.84375 
Q 16.21875 57.28125 16.21875 49.421875 
Q 16.21875 41.5 20.09375 36.953125 
Q 23.96875 32.421875 30.609375 32.421875 
z
" id="DejaVuSans-57"/>
    </defs>
    <g transform="translate(375.22944 40.397235)scale(0.17 -0.17)">
     <use xlink:href="#DejaVuSans-98"/>
     <use x="63.476562" xlink:href="#DejaVuSans-101"/>
     <use x="125" xlink:href="#DejaVuSans-115"/>
     <use x="177.099609" xlink:href="#DejaVuSans-116"/>
     <use x="216.308594" xlink:href="#DejaVuSans-32"/>
     <use x="248.095703" xlink:href="#DejaVuSans-50"/>
     <use x="311.71875" xlink:href="#DejaVuSans-48"/>
     <use x="375.341797" xlink:href="#DejaVuSans-48"/>
     <use x="438.964844" xlink:href="#DejaVuSans-57"/>
    </g>
   </g>
   <g id="text_18">
    <!-- bbob f7, 2-D -->
    <defs>
     <path d="M 8.203125 72.90625 
L 55.078125 72.90625 
L 55.078125 68.703125 
L 28.609375 0 
L 18.3125 0 
L 43.21875 64.59375 
L 8.203125 64.59375 
z
" id="DejaVuSans-55"/>
    </defs>
    <g transform="translate(60.41088 38.111366)scale(0.102 -0.102)">
     <use xlink:href="#DejaVuSans-98"/>
     <use x="63.476562" xlink:href="#DejaVuSans-98"/>
     <use x="126.953125" xlink:href="#DejaVuSans-111"/>
     <use x="188.134766" xlink:href="#DejaVuSans-98"/>
     <use x="251.611328" xlink:href="#DejaVuSans-32"/>
     <use x="283.398438" xlink:href="#DejaVuSans-102"/>
     <use x="318.603516" xlink:href="#DejaVuSans-55"/>
     <use x="382.226562" xlink:href="#DejaVuSans-44"/>
     <use x="414.013672" xlink:href="#DejaVuSans-32"/>
     <use x="445.800781" xlink:href="#DejaVuSans-50"/>
     <use x="509.423828" xlink:href="#DejaVuSans-45"/>
     <use x="545.507812" xlink:href="#DejaVuSans-68"/>
    </g>
    <!-- 51 targets: 100..1e-08 -->
    <defs>
     <path d="M 10.796875 72.90625 
L 49.515625 72.90625 
L 49.515625 64.59375 
L 19.828125 64.59375 
L 19.828125 46.734375 
Q 21.96875 47.46875 24.109375 47.828125 
Q 26.265625 48.1875 28.421875 48.1875 
Q 40.625 48.1875 47.75 41.5 
Q 54.890625 34.8125 54.890625 23.390625 
Q 54.890625 11.625 47.5625 5.09375 
Q 40.234375 -1.421875 26.90625 -1.421875 
Q 22.3125 -1.421875 17.546875 -0.640625 
Q 12.796875 0.140625 7.71875 1.703125 
L 7.71875 11.625 
Q 12.109375 9.234375 16.796875 8.0625 
Q 21.484375 6.890625 26.703125 6.890625 
Q 35.15625 6.890625 40.078125 11.328125 
Q 45.015625 15.765625 45.015625 23.390625 
Q 45.015625 31 40.078125 35.4375 
Q 35.15625 39.890625 26.703125 39.890625 
Q 22.75 39.890625 18.8125 39.015625 
Q 14.890625 38.140625 10.796875 36.28125 
z
" id="DejaVuSans-53"/>
     <path d="M 11.71875 12.40625 
L 22.015625 12.40625 
L 22.015625 0 
L 11.71875 0 
z
M 11.71875 51.703125 
L 22.015625 51.703125 
L 22.015625 39.3125 
L 11.71875 39.3125 
z
" id="DejaVuSans-58"/>
    </defs>
    <g transform="translate(60.41088 49.533135)scale(0.102 -0.102)">
     <use xlink:href="#DejaVuSans-53"/>
     <use x="63.623047" xlink:href="#DejaVuSans-49"/>
     <use x="127.246094" xlink:href="#DejaVuSans-32"/>
     <use x="159.033203" xlink:href="#DejaVuSans-116"/>
     <use x="198.242188" xlink:href="#DejaVuSans-97"/>
     <use x="259.521484" xlink:href="#DejaVuSans-114"/>
     <use x="298.884766" xlink:href="#DejaVuSans-103"/>
     <use x="362.361328" xlink:href="#DejaVuSans-101"/>
     <use x="423.884766" xlink:href="#DejaVuSans-116"/>
     <use x="463.09375" xlink:href="#DejaVuSans-115"/>
     <use x="515.193359" xlink:href="#DejaVuSans-58"/>
     <use x="548.884766" xlink:href="#DejaVuSans-32"/>
     <use x="580.671875" xlink:href="#DejaVuSans-49"/>
     <use x="644.294922" xlink:href="#DejaVuSans-48"/>
     <use x="707.917969" xlink:href="#DejaVuSans-48"/>
     <use x="771.541016" xlink:href="#DejaVuSans-46"/>
     <use x="803.328125" xlink:href="#DejaVuSans-46"/>
     <use x="835.115234" xlink:href="#DejaVuSans-49"/>
     <use x="898.738281" xlink:href="#DejaVuSans-101"/>
     <use x="960.261719" xlink:href="#DejaVuSans-45"/>
     <use x="996.345703" xlink:href="#DejaVuSans-48"/>
     <use x="1059.96875" xlink:href="#DejaVuSans-56"/>
    </g>
    <!-- 15 instances -->
    <g transform="translate(60.41088 60.954904)scale(0.102 -0.102)">
     <use xlink:href="#DejaVuSans-49"/>
     <use x="63.623047" xlink:href="#DejaVuSans-53"/>
     <use x="127.246094" xlink:href="#DejaVuSans-32"/>
     <use x="159.033203" xlink:href="#DejaVuSans-105"/>
     <use x="186.816406" xlink:href="#DejaVuSans-110"/>
     <use x="250.195312" xlink:href="#DejaVuSans-115"/>
     <use x="302.294922" xlink:href="#DejaVuSans-116"/>
     <use x="341.503906" xlink:href="#DejaVuSans-97"/>
     <use x="402.783203" xlink:href="#DejaVuSans-110"/>
     <use x="466.162109" xlink:href="#DejaVuSans-99"/>
     <use x="521.142578" xlink:href="#DejaVuSans-101"/>
     <use x="582.666016" xlink:href="#DejaVuSans-115"/>
    </g>
   </g>
   <g id="text_19">
    <!-- v2.4 -->
    <g style="fill:#808080;" transform="translate(187.233062 294.151352)scale(0.1 -0.1)">
     <use xlink:href="#DejaVuSans-118"/>
     <use x="59.179688" xlink:href="#DejaVuSans-50"/>
     <use x="122.802734" xlink:href="#DejaVuSans-46"/>
     <use x="154.589844" xlink:href="#DejaVuSans-52"/>
    </g>
   </g>
   <g id="text_20">
    <!-- 7 Step-ellipsoid -->
    <g transform="translate(120.934625 21.648)scale(0.2 -0.2)">
     <use xlink:href="#DejaVuSans-55"/>
     <use x="63.623047" xlink:href="#DejaVuSans-32"/>
     <use x="95.410156" xlink:href="#DejaVuSans-83"/>
     <use x="158.886719" xlink:href="#DejaVuSans-116"/>
     <use x="198.095703" xlink:href="#DejaVuSans-101"/>
     <use x="259.619141" xlink:href="#DejaVuSans-112"/>
     <use x="323.095703" xlink:href="#DejaVuSans-45"/>
     <use x="359.179688" xlink:href="#DejaVuSans-101"/>
     <use x="420.703125" xlink:href="#DejaVuSans-108"/>
     <use x="448.486328" xlink:href="#DejaVuSans-108"/>
     <use x="476.269531" xlink:href="#DejaVuSans-105"/>
     <use x="504.052734" xlink:href="#DejaVuSans-112"/>
     <use x="567.529297" xlink:href="#DejaVuSans-115"/>
     <use x="619.628906" xlink:href="#DejaVuSans-111"/>
     <use x="680.810547" xlink:href="#DejaVuSans-105"/>
     <use x="708.59375" xlink:href="#DejaVuSans-100"/>
    </g>
   </g>
  </g>
 </g>
 <defs>
  <clipPath id="p18d458ecde">
   <rect height="271.296" width="281.088" x="57.6" y="27.648"/>
  </clipPath>
 </defs>
</svg>
