<?xml version="1.0" encoding="utf-8" standalone="no"?>
<!DOCTYPE svg PUBLIC "-//W3C//DTD SVG 1.1//EN"
  "http://www.w3.org/Graphics/SVG/1.1/DTD/svg11.dtd">
<!-- Created with matplotlib (https://matplotlib.org/) -->
<svg height="345.6pt" version="1.1" viewBox="0 0 460.8 345.6" width="460.8pt" xmlns="http://www.w3.org/2000/svg" xmlns:xlink="http://www.w3.org/1999/xlink">
 <defs>
  <style type="text/css">
*{stroke-linecap:butt;stroke-linejoin:round;}
  </style>
 </defs>
 <g id="figure_1">
  <g id="patch_1">
   <path d="M 0 345.6 
L 460.8 345.6 
L 460.8 0 
L 0 0 
z
" style="fill:#ffffff;"/>
  </g>
  <g id="axes_1">
   <g id="patch_2">
    <path d="M 57.6 298.944 
L 338.688 298.944 
L 338.688 27.648 
L 57.6 27.648 
z
" style="fill:#ffffff;"/>
   </g>
   <g id="line2d_1">
    <path d="M 38.440992 298.944 
L 38.440992 293.677139 
L 50.52898 293.677139 
L 50.52898 288.410278 
L 66.508432 288.410278 
L 66.508432 283.143418 
L 83.171864 283.143418 
L 83.171864 277.876557 
L 95.259853 277.876557 
L 95.259853 272.609696 
L 102.772397 272.609696 
L 102.772397 267.342835 
L 108.640231 267.342835 
L 108.640231 262.075974 
L 112.026172 262.075974 
L 112.026172 256.809114 
L 116.121606 256.809114 
L 116.121606 251.542253 
L 121.638301 251.542253 
L 121.638301 246.275392 
L 125.23165 246.275392 
L 125.23165 241.008531 
L 129.385722 241.008531 
L 129.385722 235.74167 
L 146.819289 235.74167 
L 146.819289 230.47481 
L 153.537988 230.47481 
L 153.537988 225.207949 
L 155.720743 225.207949 
L 155.720743 219.941088 
L 163.33453 219.941088 
L 163.33453 214.674227 
L 164.076176 214.674227 
L 164.076176 209.407366 
L 167.59811 209.407366 
L 167.59811 204.140506 
L 168.77585 204.140506 
L 168.77585 198.873645 
L 176.912855 198.873645 
L 176.912855 193.606784 
L 178.547874 193.606784 
L 178.547874 188.339923 
L 179.521099 188.339923 
L 179.521099 183.073062 
L 179.901953 183.073062 
L 179.901953 177.806202 
L 180.140994 177.806202 
L 180.140994 172.539341 
L 180.407326 172.539341 
L 180.407326 167.27248 
L 180.868789 167.27248 
L 180.868789 162.005619 
L 181.657549 162.005619 
L 181.657549 156.738758 
L 181.775431 156.738758 
L 181.775431 151.471897 
L 182.031998 151.471897 
L 182.031998 146.205037 
L 182.384967 146.205037 
L 182.384967 140.938176 
L 182.832957 140.938176 
L 182.832957 135.671315 
L 183.243826 135.671315 
L 183.243826 130.404454 
L 183.338605 130.404454 
L 183.338605 125.137593 
L 183.725263 125.137593 
L 183.725263 119.870733 
L 184.733501 119.870733 
L 184.733501 114.603872 
L 186.036086 114.603872 
L 186.036086 109.337011 
L 187.316641 109.337011 
L 187.316641 104.07015 
L 187.469872 104.07015 
L 187.469872 98.803289 
L 187.631848 98.803289 
L 187.631848 93.536429 
L 187.732324 93.536429 
L 187.732324 88.269568 
L 187.762355 88.269568 
L 187.762355 83.002707 
L 187.974425 83.002707 
L 187.974425 77.735846 
L 188.278065 77.735846 
L 188.278065 72.468985 
L 188.416691 72.468985 
L 188.416691 67.202125 
L 188.573327 67.202125 
L 188.573327 61.935264 
L 188.72226 61.935264 
L 188.72226 56.668403 
L 188.841751 56.668403 
L 188.841751 51.401542 
L 188.926157 51.401542 
L 188.926157 46.134681 
L 189.062839 46.134681 
L 189.062839 40.867821 
L 189.161575 40.867821 
L 189.161575 35.60096 
L 189.247514 35.60096 
L 189.247514 30.334099 
L 338.688 30.334099 
" style="fill:none;stroke:#f5deb3;stroke-linecap:square;stroke-width:4;"/>
   </g>
   <g id="line2d_2">
    <defs>
     <path d="M -0 7.778175 
L 7.778175 0 
L 0 -7.778175 
L -7.778175 -0 
z
" id="me41c473457" style="stroke:#f5deb3;stroke-linejoin:miter;stroke-width:1.5;"/>
    </defs>
    <g>
     <use style="fill:#f5deb3;stroke:#f5deb3;stroke-linejoin:miter;stroke-width:1.5;" x="102.772397" xlink:href="#me41c473457" y="267.342835"/>
     <use style="fill:#f5deb3;stroke:#f5deb3;stroke-linejoin:miter;stroke-width:1.5;" x="155.720743" xlink:href="#me41c473457" y="219.941088"/>
     <use style="fill:#f5deb3;stroke:#f5deb3;stroke-linejoin:miter;stroke-width:1.5;" x="187.469872" xlink:href="#me41c473457" y="104.07015"/>
     <use style="fill:#f5deb3;stroke:#f5deb3;stroke-linejoin:miter;stroke-width:1.5;" x="189.247514" xlink:href="#me41c473457" y="35.60096"/>
     <use style="fill:#f5deb3;stroke:#f5deb3;stroke-linejoin:miter;stroke-width:1.5;" x="189.247514" xlink:href="#me41c473457" y="30.334099"/>
     <use style="fill:#f5deb3;stroke:#f5deb3;stroke-linejoin:miter;stroke-width:1.5;" x="338.688" xlink:href="#me41c473457" y="30.334099"/>
    </g>
   </g>
   <g id="line2d_3">
    <path style="fill:none;stroke:#f5deb3;stroke-linecap:square;stroke-width:4;"/>
    <g/>
   </g>
   <g id="line2d_4">
    <path d="M 338.688 30.334099 
L 369.60768 35.706297 
" style="fill:none;stroke:#f5deb3;stroke-linecap:square;stroke-width:4;"/>
    <g>
     <use style="fill:#f5deb3;stroke:#f5deb3;stroke-linejoin:miter;stroke-width:1.5;" x="338.688" xlink:href="#me41c473457" y="30.334099"/>
     <use style="fill:#f5deb3;stroke:#f5deb3;stroke-linejoin:miter;stroke-width:1.5;" x="369.60768" xlink:href="#me41c473457" y="35.706297"/>
    </g>
   </g>
   <g id="matplotlib.axis_1">
    <g id="xtick_1">
     <g id="line2d_5">
      <path clip-path="url(#p8bbddabb5f)" d="M 57.6 298.944 
L 57.6 27.648 
" style="fill:none;stroke:#b0b0b0;stroke-linecap:square;stroke-width:0.8;"/>
     </g>
     <g id="line2d_6">
      <defs>
       <path d="M 0 0 
L 0 3.5 
" id="m82b266b2ba" style="stroke:#000000;stroke-width:0.8;"/>
      </defs>
      <g>
       <use style="stroke:#000000;stroke-width:0.8;" x="57.6" xlink:href="#m82b266b2ba" y="298.944"/>
      </g>
     </g>
     <g id="text_1">
      <!-- 0 -->
      <defs>
       <path d="M 31.78125 66.40625 
Q 24.171875 66.40625 20.328125 58.90625 
Q 16.5 51.421875 16.5 36.375 
Q 16.5 21.390625 20.328125 13.890625 
Q 24.171875 6.390625 31.78125 6.390625 
Q 39.453125 6.390625 43.28125 13.890625 
Q 47.125 21.390625 47.125 36.375 
Q 47.125 51.421875 43.28125 58.90625 
Q 39.453125 66.40625 31.78125 66.40625 
z
M 31.78125 74.21875 
Q 44.046875 74.21875 50.515625 64.515625 
Q 56.984375 54.828125 56.984375 36.375 
Q 56.984375 17.96875 50.515625 8.265625 
Q 44.046875 -1.421875 31.78125 -1.421875 
Q 19.53125 -1.421875 13.0625 8.265625 
Q 6.59375 17.96875 6.59375 36.375 
Q 6.59375 54.828125 13.0625 64.515625 
Q 19.53125 74.21875 31.78125 74.21875 
z
" id="DejaVuSans-48"/>
      </defs>
      <g transform="translate(51.2375 321.140875)scale(0.2 -0.2)">
       <use xlink:href="#DejaVuSans-48"/>
      </g>
     </g>
    </g>
    <g id="xtick_2">
     <g id="line2d_7">
      <path clip-path="url(#p8bbddabb5f)" d="M 137.910857 298.944 
L 137.910857 27.648 
" style="fill:none;stroke:#b0b0b0;stroke-linecap:square;stroke-width:0.8;"/>
     </g>
     <g id="line2d_8">
      <g>
       <use style="stroke:#000000;stroke-width:0.8;" x="137.910857" xlink:href="#m82b266b2ba" y="298.944"/>
      </g>
     </g>
     <g id="text_2">
      <!-- 2 -->
      <defs>
       <path d="M 19.1875 8.296875 
L 53.609375 8.296875 
L 53.609375 0 
L 7.328125 0 
L 7.328125 8.296875 
Q 12.9375 14.109375 22.625 23.890625 
Q 32.328125 33.6875 34.8125 36.53125 
Q 39.546875 41.84375 41.421875 45.53125 
Q 43.3125 49.21875 43.3125 52.78125 
Q 43.3125 58.59375 39.234375 62.25 
Q 35.15625 65.921875 28.609375 65.921875 
Q 23.96875 65.921875 18.8125 64.3125 
Q 13.671875 62.703125 7.8125 59.421875 
L 7.8125 69.390625 
Q 13.765625 71.78125 18.9375 73 
Q 24.125 74.21875 28.421875 74.21875 
Q 39.75 74.21875 46.484375 68.546875 
Q 53.21875 62.890625 53.21875 53.421875 
Q 53.21875 48.921875 51.53125 44.890625 
Q 49.859375 40.875 45.40625 35.40625 
Q 44.1875 33.984375 37.640625 27.21875 
Q 31.109375 20.453125 19.1875 8.296875 
z
" id="DejaVuSans-50"/>
      </defs>
      <g transform="translate(131.548357 321.140875)scale(0.2 -0.2)">
       <use xlink:href="#DejaVuSans-50"/>
      </g>
     </g>
    </g>
    <g id="xtick_3">
     <g id="line2d_9">
      <path clip-path="url(#p8bbddabb5f)" d="M 218.221714 298.944 
L 218.221714 27.648 
" style="fill:none;stroke:#b0b0b0;stroke-linecap:square;stroke-width:0.8;"/>
     </g>
     <g id="line2d_10">
      <g>
       <use style="stroke:#000000;stroke-width:0.8;" x="218.221714" xlink:href="#m82b266b2ba" y="298.944"/>
      </g>
     </g>
     <g id="text_3">
      <!-- 4 -->
      <defs>
       <path d="M 37.796875 64.3125 
L 12.890625 25.390625 
L 37.796875 25.390625 
z
M 35.203125 72.90625 
L 47.609375 72.90625 
L 47.609375 25.390625 
L 58.015625 25.390625 
L 58.015625 17.1875 
L 47.609375 17.1875 
L 47.609375 0 
L 37.796875 0 
L 37.796875 17.1875 
L 4.890625 17.1875 
L 4.890625 26.703125 
z
" id="DejaVuSans-52"/>
      </defs>
      <g transform="translate(211.859214 321.140875)scale(0.2 -0.2)">
       <use xlink:href="#DejaVuSans-52"/>
      </g>
     </g>
    </g>
    <g id="xtick_4">
     <g id="line2d_11">
      <path clip-path="url(#p8bbddabb5f)" d="M 298.532571 298.944 
L 298.532571 27.648 
" style="fill:none;stroke:#b0b0b0;stroke-linecap:square;stroke-width:0.8;"/>
     </g>
     <g id="line2d_12">
      <g>
       <use style="stroke:#000000;stroke-width:0.8;" x="298.532571" xlink:href="#m82b266b2ba" y="298.944"/>
      </g>
     </g>
     <g id="text_4">
      <!-- 6 -->
      <defs>
       <path d="M 33.015625 40.375 
Q 26.375 40.375 22.484375 35.828125 
Q 18.609375 31.296875 18.609375 23.390625 
Q 18.609375 15.53125 22.484375 10.953125 
Q 26.375 6.390625 33.015625 6.390625 
Q 39.65625 6.390625 43.53125 10.953125 
Q 47.40625 15.53125 47.40625 23.390625 
Q 47.40625 31.296875 43.53125 35.828125 
Q 39.65625 40.375 33.015625 40.375 
z
M 52.59375 71.296875 
L 52.59375 62.3125 
Q 48.875 64.0625 45.09375 64.984375 
Q 41.3125 65.921875 37.59375 65.921875 
Q 27.828125 65.921875 22.671875 59.328125 
Q 17.53125 52.734375 16.796875 39.40625 
Q 19.671875 43.65625 24.015625 45.921875 
Q 28.375 48.1875 33.59375 48.1875 
Q 44.578125 48.1875 50.953125 41.515625 
Q 57.328125 34.859375 57.328125 23.390625 
Q 57.328125 12.15625 50.6875 5.359375 
Q 44.046875 -1.421875 33.015625 -1.421875 
Q 20.359375 -1.421875 13.671875 8.265625 
Q 6.984375 17.96875 6.984375 36.375 
Q 6.984375 53.65625 15.1875 63.9375 
Q 23.390625 74.21875 37.203125 74.21875 
Q 40.921875 74.21875 44.703125 73.484375 
Q 48.484375 72.75 52.59375 71.296875 
z
" id="DejaVuSans-54"/>
      </defs>
      <g transform="translate(292.170071 321.140875)scale(0.2 -0.2)">
       <use xlink:href="#DejaVuSans-54"/>
      </g>
     </g>
    </g>
    <g id="xtick_5">
     <g id="line2d_13">
      <path clip-path="url(#p8bbddabb5f)" d="M 97.755429 298.944 
L 97.755429 27.648 
" style="fill:none;stroke:#b0b0b0;stroke-linecap:square;stroke-width:0.8;"/>
     </g>
     <g id="line2d_14">
      <defs>
       <path d="M 0 0 
L 0 2 
" id="mf056f178ff" style="stroke:#000000;stroke-width:0.6;"/>
      </defs>
      <g>
       <use style="stroke:#000000;stroke-width:0.6;" x="97.755429" xlink:href="#mf056f178ff" y="298.944"/>
      </g>
     </g>
    </g>
    <g id="xtick_6">
     <g id="line2d_15">
      <path clip-path="url(#p8bbddabb5f)" d="M 178.066286 298.944 
L 178.066286 27.648 
" style="fill:none;stroke:#b0b0b0;stroke-linecap:square;stroke-width:0.8;"/>
     </g>
     <g id="line2d_16">
      <g>
       <use style="stroke:#000000;stroke-width:0.6;" x="178.066286" xlink:href="#mf056f178ff" y="298.944"/>
      </g>
     </g>
    </g>
    <g id="xtick_7">
     <g id="line2d_17">
      <path clip-path="url(#p8bbddabb5f)" d="M 258.377143 298.944 
L 258.377143 27.648 
" style="fill:none;stroke:#b0b0b0;stroke-linecap:square;stroke-width:0.8;"/>
     </g>
     <g id="line2d_18">
      <g>
       <use style="stroke:#000000;stroke-width:0.6;" x="258.377143" xlink:href="#mf056f178ff" y="298.944"/>
      </g>
     </g>
    </g>
    <g id="xtick_8">
     <g id="line2d_19">
      <path clip-path="url(#p8bbddabb5f)" d="M 338.688 298.944 
L 338.688 27.648 
" style="fill:none;stroke:#b0b0b0;stroke-linecap:square;stroke-width:0.8;"/>
     </g>
     <g id="line2d_20">
      <g>
       <use style="stroke:#000000;stroke-width:0.6;" x="338.688" xlink:href="#mf056f178ff" y="298.944"/>
      </g>
     </g>
    </g>
    <g id="text_5">
     <!-- log10(# f-evals / dimension) -->
     <defs>
      <path d="M 9.421875 75.984375 
L 18.40625 75.984375 
L 18.40625 0 
L 9.421875 0 
z
" id="DejaVuSans-108"/>
      <path d="M 30.609375 48.390625 
Q 23.390625 48.390625 19.1875 42.75 
Q 14.984375 37.109375 14.984375 27.296875 
Q 14.984375 17.484375 19.15625 11.84375 
Q 23.34375 6.203125 30.609375 6.203125 
Q 37.796875 6.203125 41.984375 11.859375 
Q 46.1875 17.53125 46.1875 27.296875 
Q 46.1875 37.015625 41.984375 42.703125 
Q 37.796875 48.390625 30.609375 48.390625 
z
M 30.609375 56 
Q 42.328125 56 49.015625 48.375 
Q 55.71875 40.765625 55.71875 27.296875 
Q 55.71875 13.875 49.015625 6.21875 
Q 42.328125 -1.421875 30.609375 -1.421875 
Q 18.84375 -1.421875 12.171875 6.21875 
Q 5.515625 13.875 5.515625 27.296875 
Q 5.515625 40.765625 12.171875 48.375 
Q 18.84375 56 30.609375 56 
z
" id="DejaVuSans-111"/>
      <path d="M 45.40625 27.984375 
Q 45.40625 37.75 41.375 43.109375 
Q 37.359375 48.484375 30.078125 48.484375 
Q 22.859375 48.484375 18.828125 43.109375 
Q 14.796875 37.75 14.796875 27.984375 
Q 14.796875 18.265625 18.828125 12.890625 
Q 22.859375 7.515625 30.078125 7.515625 
Q 37.359375 7.515625 41.375 12.890625 
Q 45.40625 18.265625 45.40625 27.984375 
z
M 54.390625 6.78125 
Q 54.390625 -7.171875 48.1875 -13.984375 
Q 42 -20.796875 29.203125 -20.796875 
Q 24.46875 -20.796875 20.265625 -20.09375 
Q 16.0625 -19.390625 12.109375 -17.921875 
L 12.109375 -9.1875 
Q 16.0625 -11.328125 19.921875 -12.34375 
Q 23.78125 -13.375 27.78125 -13.375 
Q 36.625 -13.375 41.015625 -8.765625 
Q 45.40625 -4.15625 45.40625 5.171875 
L 45.40625 9.625 
Q 42.625 4.78125 38.28125 2.390625 
Q 33.9375 0 27.875 0 
Q 17.828125 0 11.671875 7.65625 
Q 5.515625 15.328125 5.515625 27.984375 
Q 5.515625 40.671875 11.671875 48.328125 
Q 17.828125 56 27.875 56 
Q 33.9375 56 38.28125 53.609375 
Q 42.625 51.21875 45.40625 46.390625 
L 45.40625 54.6875 
L 54.390625 54.6875 
z
" id="DejaVuSans-103"/>
      <path d="M 12.40625 8.296875 
L 28.515625 8.296875 
L 28.515625 63.921875 
L 10.984375 60.40625 
L 10.984375 69.390625 
L 28.421875 72.90625 
L 38.28125 72.90625 
L 38.28125 8.296875 
L 54.390625 8.296875 
L 54.390625 0 
L 12.40625 0 
z
" id="DejaVuSans-49"/>
      <path d="M 31 75.875 
Q 24.46875 64.65625 21.28125 53.65625 
Q 18.109375 42.671875 18.109375 31.390625 
Q 18.109375 20.125 21.3125 9.0625 
Q 24.515625 -2 31 -13.1875 
L 23.1875 -13.1875 
Q 15.875 -1.703125 12.234375 9.375 
Q 8.59375 20.453125 8.59375 31.390625 
Q 8.59375 42.28125 12.203125 53.3125 
Q 15.828125 64.359375 23.1875 75.875 
z
" id="DejaVuSans-40"/>
      <path d="M 51.125 44 
L 36.921875 44 
L 32.8125 27.6875 
L 47.125 27.6875 
z
M 43.796875 71.78125 
L 38.71875 51.515625 
L 52.984375 51.515625 
L 58.109375 71.78125 
L 65.921875 71.78125 
L 60.890625 51.515625 
L 76.125 51.515625 
L 76.125 44 
L 58.984375 44 
L 54.984375 27.6875 
L 70.515625 27.6875 
L 70.515625 20.21875 
L 53.078125 20.21875 
L 48 0 
L 40.1875 0 
L 45.21875 20.21875 
L 30.90625 20.21875 
L 25.875 0 
L 18.015625 0 
L 23.09375 20.21875 
L 7.71875 20.21875 
L 7.71875 27.6875 
L 24.90625 27.6875 
L 29 44 
L 13.28125 44 
L 13.28125 51.515625 
L 30.90625 51.515625 
L 35.890625 71.78125 
z
" id="DejaVuSans-35"/>
      <path id="DejaVuSans-32"/>
      <path d="M 37.109375 75.984375 
L 37.109375 68.5 
L 28.515625 68.5 
Q 23.6875 68.5 21.796875 66.546875 
Q 19.921875 64.59375 19.921875 59.515625 
L 19.921875 54.6875 
L 34.71875 54.6875 
L 34.71875 47.703125 
L 19.921875 47.703125 
L 19.921875 0 
L 10.890625 0 
L 10.890625 47.703125 
L 2.296875 47.703125 
L 2.296875 54.6875 
L 10.890625 54.6875 
L 10.890625 58.5 
Q 10.890625 67.625 15.140625 71.796875 
Q 19.390625 75.984375 28.609375 75.984375 
z
" id="DejaVuSans-102"/>
      <path d="M 4.890625 31.390625 
L 31.203125 31.390625 
L 31.203125 23.390625 
L 4.890625 23.390625 
z
" id="DejaVuSans-45"/>
      <path d="M 56.203125 29.59375 
L 56.203125 25.203125 
L 14.890625 25.203125 
Q 15.484375 15.921875 20.484375 11.0625 
Q 25.484375 6.203125 34.421875 6.203125 
Q 39.59375 6.203125 44.453125 7.46875 
Q 49.3125 8.734375 54.109375 11.28125 
L 54.109375 2.78125 
Q 49.265625 0.734375 44.1875 -0.34375 
Q 39.109375 -1.421875 33.890625 -1.421875 
Q 20.796875 -1.421875 13.15625 6.1875 
Q 5.515625 13.8125 5.515625 26.8125 
Q 5.515625 40.234375 12.765625 48.109375 
Q 20.015625 56 32.328125 56 
Q 43.359375 56 49.78125 48.890625 
Q 56.203125 41.796875 56.203125 29.59375 
z
M 47.21875 32.234375 
Q 47.125 39.59375 43.09375 43.984375 
Q 39.0625 48.390625 32.421875 48.390625 
Q 24.90625 48.390625 20.390625 44.140625 
Q 15.875 39.890625 15.1875 32.171875 
z
" id="DejaVuSans-101"/>
      <path d="M 2.984375 54.6875 
L 12.5 54.6875 
L 29.59375 8.796875 
L 46.6875 54.6875 
L 56.203125 54.6875 
L 35.6875 0 
L 23.484375 0 
z
" id="DejaVuSans-118"/>
      <path d="M 34.28125 27.484375 
Q 23.390625 27.484375 19.1875 25 
Q 14.984375 22.515625 14.984375 16.5 
Q 14.984375 11.71875 18.140625 8.90625 
Q 21.296875 6.109375 26.703125 6.109375 
Q 34.1875 6.109375 38.703125 11.40625 
Q 43.21875 16.703125 43.21875 25.484375 
L 43.21875 27.484375 
z
M 52.203125 31.203125 
L 52.203125 0 
L 43.21875 0 
L 43.21875 8.296875 
Q 40.140625 3.328125 35.546875 0.953125 
Q 30.953125 -1.421875 24.3125 -1.421875 
Q 15.921875 -1.421875 10.953125 3.296875 
Q 6 8.015625 6 15.921875 
Q 6 25.140625 12.171875 29.828125 
Q 18.359375 34.515625 30.609375 34.515625 
L 43.21875 34.515625 
L 43.21875 35.40625 
Q 43.21875 41.609375 39.140625 45 
Q 35.0625 48.390625 27.6875 48.390625 
Q 23 48.390625 18.546875 47.265625 
Q 14.109375 46.140625 10.015625 43.890625 
L 10.015625 52.203125 
Q 14.9375 54.109375 19.578125 55.046875 
Q 24.21875 56 28.609375 56 
Q 40.484375 56 46.34375 49.84375 
Q 52.203125 43.703125 52.203125 31.203125 
z
" id="DejaVuSans-97"/>
      <path d="M 44.28125 53.078125 
L 44.28125 44.578125 
Q 40.484375 46.53125 36.375 47.5 
Q 32.28125 48.484375 27.875 48.484375 
Q 21.1875 48.484375 17.84375 46.4375 
Q 14.5 44.390625 14.5 40.28125 
Q 14.5 37.15625 16.890625 35.375 
Q 19.28125 33.59375 26.515625 31.984375 
L 29.59375 31.296875 
Q 39.15625 29.25 43.1875 25.515625 
Q 47.21875 21.78125 47.21875 15.09375 
Q 47.21875 7.46875 41.1875 3.015625 
Q 35.15625 -1.421875 24.609375 -1.421875 
Q 20.21875 -1.421875 15.453125 -0.5625 
Q 10.6875 0.296875 5.421875 2 
L 5.421875 11.28125 
Q 10.40625 8.6875 15.234375 7.390625 
Q 20.0625 6.109375 24.8125 6.109375 
Q 31.15625 6.109375 34.5625 8.28125 
Q 37.984375 10.453125 37.984375 14.40625 
Q 37.984375 18.0625 35.515625 20.015625 
Q 33.0625 21.96875 24.703125 23.78125 
L 21.578125 24.515625 
Q 13.234375 26.265625 9.515625 29.90625 
Q 5.8125 33.546875 5.8125 39.890625 
Q 5.8125 47.609375 11.28125 51.796875 
Q 16.75 56 26.8125 56 
Q 31.78125 56 36.171875 55.265625 
Q 40.578125 54.546875 44.28125 53.078125 
z
" id="DejaVuSans-115"/>
      <path d="M 25.390625 72.90625 
L 33.6875 72.90625 
L 8.296875 -9.28125 
L 0 -9.28125 
z
" id="DejaVuSans-47"/>
      <path d="M 45.40625 46.390625 
L 45.40625 75.984375 
L 54.390625 75.984375 
L 54.390625 0 
L 45.40625 0 
L 45.40625 8.203125 
Q 42.578125 3.328125 38.25 0.953125 
Q 33.9375 -1.421875 27.875 -1.421875 
Q 17.96875 -1.421875 11.734375 6.484375 
Q 5.515625 14.40625 5.515625 27.296875 
Q 5.515625 40.1875 11.734375 48.09375 
Q 17.96875 56 27.875 56 
Q 33.9375 56 38.25 53.625 
Q 42.578125 51.265625 45.40625 46.390625 
z
M 14.796875 27.296875 
Q 14.796875 17.390625 18.875 11.75 
Q 22.953125 6.109375 30.078125 6.109375 
Q 37.203125 6.109375 41.296875 11.75 
Q 45.40625 17.390625 45.40625 27.296875 
Q 45.40625 37.203125 41.296875 42.84375 
Q 37.203125 48.484375 30.078125 48.484375 
Q 22.953125 48.484375 18.875 42.84375 
Q 14.796875 37.203125 14.796875 27.296875 
z
" id="DejaVuSans-100"/>
      <path d="M 9.421875 54.6875 
L 18.40625 54.6875 
L 18.40625 0 
L 9.421875 0 
z
M 9.421875 75.984375 
L 18.40625 75.984375 
L 18.40625 64.59375 
L 9.421875 64.59375 
z
" id="DejaVuSans-105"/>
      <path d="M 52 44.1875 
Q 55.375 50.25 60.0625 53.125 
Q 64.75 56 71.09375 56 
Q 79.640625 56 84.28125 50.015625 
Q 88.921875 44.046875 88.921875 33.015625 
L 88.921875 0 
L 79.890625 0 
L 79.890625 32.71875 
Q 79.890625 40.578125 77.09375 44.375 
Q 74.3125 48.1875 68.609375 48.1875 
Q 61.625 48.1875 57.5625 43.546875 
Q 53.515625 38.921875 53.515625 30.90625 
L 53.515625 0 
L 44.484375 0 
L 44.484375 32.71875 
Q 44.484375 40.625 41.703125 44.40625 
Q 38.921875 48.1875 33.109375 48.1875 
Q 26.21875 48.1875 22.15625 43.53125 
Q 18.109375 38.875 18.109375 30.90625 
L 18.109375 0 
L 9.078125 0 
L 9.078125 54.6875 
L 18.109375 54.6875 
L 18.109375 46.1875 
Q 21.1875 51.21875 25.484375 53.609375 
Q 29.78125 56 35.6875 56 
Q 41.65625 56 45.828125 52.96875 
Q 50 49.953125 52 44.1875 
z
" id="DejaVuSans-109"/>
      <path d="M 54.890625 33.015625 
L 54.890625 0 
L 45.90625 0 
L 45.90625 32.71875 
Q 45.90625 40.484375 42.875 44.328125 
Q 39.84375 48.1875 33.796875 48.1875 
Q 26.515625 48.1875 22.3125 43.546875 
Q 18.109375 38.921875 18.109375 30.90625 
L 18.109375 0 
L 9.078125 0 
L 9.078125 54.6875 
L 18.109375 54.6875 
L 18.109375 46.1875 
Q 21.34375 51.125 25.703125 53.5625 
Q 30.078125 56 35.796875 56 
Q 45.21875 56 50.046875 50.171875 
Q 54.890625 44.34375 54.890625 33.015625 
z
" id="DejaVuSans-110"/>
      <path d="M 8.015625 75.875 
L 15.828125 75.875 
Q 23.140625 64.359375 26.78125 53.3125 
Q 30.421875 42.28125 30.421875 31.390625 
Q 30.421875 20.453125 26.78125 9.375 
Q 23.140625 -1.703125 15.828125 -13.1875 
L 8.015625 -13.1875 
Q 14.5 -2 17.703125 9.0625 
Q 20.90625 20.125 20.90625 31.390625 
Q 20.90625 42.671875 17.703125 53.65625 
Q 14.5 64.65625 8.015625 75.875 
z
" id="DejaVuSans-41"/>
     </defs>
     <g transform="translate(77.764078 342.217594)scale(0.17 -0.17)">
      <use xlink:href="#DejaVuSans-108"/>
      <use x="27.783203" xlink:href="#DejaVuSans-111"/>
      <use x="88.964844" xlink:href="#DejaVuSans-103"/>
      <use x="152.441406" xlink:href="#DejaVuSans-49"/>
      <use x="216.064453" xlink:href="#DejaVuSans-48"/>
      <use x="279.6875" xlink:href="#DejaVuSans-40"/>
      <use x="318.701172" xlink:href="#DejaVuSans-35"/>
      <use x="402.490234" xlink:href="#DejaVuSans-32"/>
      <use x="434.277344" xlink:href="#DejaVuSans-102"/>
      <use x="463.982422" xlink:href="#DejaVuSans-45"/>
      <use x="500.066406" xlink:href="#DejaVuSans-101"/>
      <use x="561.589844" xlink:href="#DejaVuSans-118"/>
      <use x="620.769531" xlink:href="#DejaVuSans-97"/>
      <use x="682.048828" xlink:href="#DejaVuSans-108"/>
      <use x="709.832031" xlink:href="#DejaVuSans-115"/>
      <use x="761.931641" xlink:href="#DejaVuSans-32"/>
      <use x="793.71875" xlink:href="#DejaVuSans-47"/>
      <use x="827.410156" xlink:href="#DejaVuSans-32"/>
      <use x="859.197266" xlink:href="#DejaVuSans-100"/>
      <use x="922.673828" xlink:href="#DejaVuSans-105"/>
      <use x="950.457031" xlink:href="#DejaVuSans-109"/>
      <use x="1047.869141" xlink:href="#DejaVuSans-101"/>
      <use x="1109.392578" xlink:href="#DejaVuSans-110"/>
      <use x="1172.771484" xlink:href="#DejaVuSans-115"/>
      <use x="1224.871094" xlink:href="#DejaVuSans-105"/>
      <use x="1252.654297" xlink:href="#DejaVuSans-111"/>
      <use x="1313.835938" xlink:href="#DejaVuSans-110"/>
      <use x="1377.214844" xlink:href="#DejaVuSans-41"/>
     </g>
    </g>
   </g>
   <g id="matplotlib.axis_2">
    <g id="ytick_1">
     <g id="line2d_21">
      <path clip-path="url(#p8bbddabb5f)" d="M 57.6 298.944 
L 338.688 298.944 
" style="fill:none;stroke:#b0b0b0;stroke-linecap:square;stroke-width:0.8;"/>
     </g>
     <g id="line2d_22">
      <defs>
       <path d="M 0 0 
L -3.5 0 
" id="m79153ee0e2" style="stroke:#000000;stroke-width:0.8;"/>
      </defs>
      <g>
       <use style="stroke:#000000;stroke-width:0.8;" x="57.6" xlink:href="#m79153ee0e2" y="298.944"/>
      </g>
     </g>
     <g id="text_6">
      <!-- 0.0 -->
      <defs>
       <path d="M 10.6875 12.40625 
L 21 12.40625 
L 21 0 
L 10.6875 0 
z
" id="DejaVuSans-46"/>
      </defs>
      <g transform="translate(25.155 305.02275)scale(0.16 -0.16)">
       <use xlink:href="#DejaVuSans-48"/>
       <use x="63.623047" xlink:href="#DejaVuSans-46"/>
       <use x="95.410156" xlink:href="#DejaVuSans-48"/>
      </g>
     </g>
    </g>
    <g id="ytick_2">
     <g id="line2d_23">
      <path clip-path="url(#p8bbddabb5f)" d="M 57.6 245.22202 
L 338.688 245.22202 
" style="fill:none;stroke:#b0b0b0;stroke-linecap:square;stroke-width:0.8;"/>
     </g>
     <g id="line2d_24">
      <g>
       <use style="stroke:#000000;stroke-width:0.8;" x="57.6" xlink:href="#m79153ee0e2" y="245.22202"/>
      </g>
     </g>
     <g id="text_7">
      <!-- 0.2 -->
      <g transform="translate(25.155 251.30077)scale(0.16 -0.16)">
       <use xlink:href="#DejaVuSans-48"/>
       <use x="63.623047" xlink:href="#DejaVuSans-46"/>
       <use x="95.410156" xlink:href="#DejaVuSans-50"/>
      </g>
     </g>
    </g>
    <g id="ytick_3">
     <g id="line2d_25">
      <path clip-path="url(#p8bbddabb5f)" d="M 57.6 191.50004 
L 338.688 191.50004 
" style="fill:none;stroke:#b0b0b0;stroke-linecap:square;stroke-width:0.8;"/>
     </g>
     <g id="line2d_26">
      <g>
       <use style="stroke:#000000;stroke-width:0.8;" x="57.6" xlink:href="#m79153ee0e2" y="191.50004"/>
      </g>
     </g>
     <g id="text_8">
      <!-- 0.4 -->
      <g transform="translate(25.155 197.57879)scale(0.16 -0.16)">
       <use xlink:href="#DejaVuSans-48"/>
       <use x="63.623047" xlink:href="#DejaVuSans-46"/>
       <use x="95.410156" xlink:href="#DejaVuSans-52"/>
      </g>
     </g>
    </g>
    <g id="ytick_4">
     <g id="line2d_27">
      <path clip-path="url(#p8bbddabb5f)" d="M 57.6 137.778059 
L 338.688 137.778059 
" style="fill:none;stroke:#b0b0b0;stroke-linecap:square;stroke-width:0.8;"/>
     </g>
     <g id="line2d_28">
      <g>
       <use style="stroke:#000000;stroke-width:0.8;" x="57.6" xlink:href="#m79153ee0e2" y="137.778059"/>
      </g>
     </g>
     <g id="text_9">
      <!-- 0.6 -->
      <g transform="translate(25.155 143.856809)scale(0.16 -0.16)">
       <use xlink:href="#DejaVuSans-48"/>
       <use x="63.623047" xlink:href="#DejaVuSans-46"/>
       <use x="95.410156" xlink:href="#DejaVuSans-54"/>
      </g>
     </g>
    </g>
    <g id="ytick_5">
     <g id="line2d_29">
      <path clip-path="url(#p8bbddabb5f)" d="M 57.6 84.056079 
L 338.688 84.056079 
" style="fill:none;stroke:#b0b0b0;stroke-linecap:square;stroke-width:0.8;"/>
     </g>
     <g id="line2d_30">
      <g>
       <use style="stroke:#000000;stroke-width:0.8;" x="57.6" xlink:href="#m79153ee0e2" y="84.056079"/>
      </g>
     </g>
     <g id="text_10">
      <!-- 0.8 -->
      <defs>
       <path d="M 31.78125 34.625 
Q 24.75 34.625 20.71875 30.859375 
Q 16.703125 27.09375 16.703125 20.515625 
Q 16.703125 13.921875 20.71875 10.15625 
Q 24.75 6.390625 31.78125 6.390625 
Q 38.8125 6.390625 42.859375 10.171875 
Q 46.921875 13.96875 46.921875 20.515625 
Q 46.921875 27.09375 42.890625 30.859375 
Q 38.875 34.625 31.78125 34.625 
z
M 21.921875 38.8125 
Q 15.578125 40.375 12.03125 44.71875 
Q 8.5 49.078125 8.5 55.328125 
Q 8.5 64.0625 14.71875 69.140625 
Q 20.953125 74.21875 31.78125 74.21875 
Q 42.671875 74.21875 48.875 69.140625 
Q 55.078125 64.0625 55.078125 55.328125 
Q 55.078125 49.078125 51.53125 44.71875 
Q 48 40.375 41.703125 38.8125 
Q 48.828125 37.15625 52.796875 32.3125 
Q 56.78125 27.484375 56.78125 20.515625 
Q 56.78125 9.90625 50.3125 4.234375 
Q 43.84375 -1.421875 31.78125 -1.421875 
Q 19.734375 -1.421875 13.25 4.234375 
Q 6.78125 9.90625 6.78125 20.515625 
Q 6.78125 27.484375 10.78125 32.3125 
Q 14.796875 37.15625 21.921875 38.8125 
z
M 18.3125 54.390625 
Q 18.3125 48.734375 21.84375 45.5625 
Q 25.390625 42.390625 31.78125 42.390625 
Q 38.140625 42.390625 41.71875 45.5625 
Q 45.3125 48.734375 45.3125 54.390625 
Q 45.3125 60.0625 41.71875 63.234375 
Q 38.140625 66.40625 31.78125 66.40625 
Q 25.390625 66.40625 21.84375 63.234375 
Q 18.3125 60.0625 18.3125 54.390625 
z
" id="DejaVuSans-56"/>
      </defs>
      <g transform="translate(25.155 90.134829)scale(0.16 -0.16)">
       <use xlink:href="#DejaVuSans-48"/>
       <use x="63.623047" xlink:href="#DejaVuSans-46"/>
       <use x="95.410156" xlink:href="#DejaVuSans-56"/>
      </g>
     </g>
    </g>
    <g id="ytick_6">
     <g id="line2d_31">
      <path clip-path="url(#p8bbddabb5f)" d="M 57.6 30.334099 
L 338.688 30.334099 
" style="fill:none;stroke:#b0b0b0;stroke-linecap:square;stroke-width:0.8;"/>
     </g>
     <g id="line2d_32">
      <g>
       <use style="stroke:#000000;stroke-width:0.8;" x="57.6" xlink:href="#m79153ee0e2" y="30.334099"/>
      </g>
     </g>
     <g id="text_11">
      <!-- 1.0 -->
      <g transform="translate(25.155 36.412849)scale(0.16 -0.16)">
       <use xlink:href="#DejaVuSans-49"/>
       <use x="63.623047" xlink:href="#DejaVuSans-46"/>
       <use x="95.410156" xlink:href="#DejaVuSans-48"/>
      </g>
     </g>
    </g>
    <g id="text_12">
     <!-- Fraction of function,target pairs -->
     <defs>
      <path d="M 9.8125 72.90625 
L 51.703125 72.90625 
L 51.703125 64.59375 
L 19.671875 64.59375 
L 19.671875 43.109375 
L 48.578125 43.109375 
L 48.578125 34.8125 
L 19.671875 34.8125 
L 19.671875 0 
L 9.8125 0 
z
" id="DejaVuSans-70"/>
      <path d="M 41.109375 46.296875 
Q 39.59375 47.171875 37.8125 47.578125 
Q 36.03125 48 33.890625 48 
Q 26.265625 48 22.1875 43.046875 
Q 18.109375 38.09375 18.109375 28.8125 
L 18.109375 0 
L 9.078125 0 
L 9.078125 54.6875 
L 18.109375 54.6875 
L 18.109375 46.1875 
Q 20.953125 51.171875 25.484375 53.578125 
Q 30.03125 56 36.53125 56 
Q 37.453125 56 38.578125 55.875 
Q 39.703125 55.765625 41.0625 55.515625 
z
" id="DejaVuSans-114"/>
      <path d="M 48.78125 52.59375 
L 48.78125 44.1875 
Q 44.96875 46.296875 41.140625 47.34375 
Q 37.3125 48.390625 33.40625 48.390625 
Q 24.65625 48.390625 19.8125 42.84375 
Q 14.984375 37.3125 14.984375 27.296875 
Q 14.984375 17.28125 19.8125 11.734375 
Q 24.65625 6.203125 33.40625 6.203125 
Q 37.3125 6.203125 41.140625 7.25 
Q 44.96875 8.296875 48.78125 10.40625 
L 48.78125 2.09375 
Q 45.015625 0.34375 40.984375 -0.53125 
Q 36.96875 -1.421875 32.421875 -1.421875 
Q 20.0625 -1.421875 12.78125 6.34375 
Q 5.515625 14.109375 5.515625 27.296875 
Q 5.515625 40.671875 12.859375 48.328125 
Q 20.21875 56 33.015625 56 
Q 37.15625 56 41.109375 55.140625 
Q 45.0625 54.296875 48.78125 52.59375 
z
" id="DejaVuSans-99"/>
      <path d="M 18.3125 70.21875 
L 18.3125 54.6875 
L 36.8125 54.6875 
L 36.8125 47.703125 
L 18.3125 47.703125 
L 18.3125 18.015625 
Q 18.3125 11.328125 20.140625 9.421875 
Q 21.96875 7.515625 27.59375 7.515625 
L 36.8125 7.515625 
L 36.8125 0 
L 27.59375 0 
Q 17.1875 0 13.234375 3.875 
Q 9.28125 7.765625 9.28125 18.015625 
L 9.28125 47.703125 
L 2.6875 47.703125 
L 2.6875 54.6875 
L 9.28125 54.6875 
L 9.28125 70.21875 
z
" id="DejaVuSans-116"/>
      <path d="M 8.5 21.578125 
L 8.5 54.6875 
L 17.484375 54.6875 
L 17.484375 21.921875 
Q 17.484375 14.15625 20.5 10.265625 
Q 23.53125 6.390625 29.59375 6.390625 
Q 36.859375 6.390625 41.078125 11.03125 
Q 45.3125 15.671875 45.3125 23.6875 
L 45.3125 54.6875 
L 54.296875 54.6875 
L 54.296875 0 
L 45.3125 0 
L 45.3125 8.40625 
Q 42.046875 3.421875 37.71875 1 
Q 33.40625 -1.421875 27.6875 -1.421875 
Q 18.265625 -1.421875 13.375 4.4375 
Q 8.5 10.296875 8.5 21.578125 
z
M 31.109375 56 
z
" id="DejaVuSans-117"/>
      <path d="M 11.71875 12.40625 
L 22.015625 12.40625 
L 22.015625 4 
L 14.015625 -11.625 
L 7.71875 -11.625 
L 11.71875 4 
z
" id="DejaVuSans-44"/>
      <path d="M 18.109375 8.203125 
L 18.109375 -20.796875 
L 9.078125 -20.796875 
L 9.078125 54.6875 
L 18.109375 54.6875 
L 18.109375 46.390625 
Q 20.953125 51.265625 25.265625 53.625 
Q 29.59375 56 35.59375 56 
Q 45.5625 56 51.78125 48.09375 
Q 58.015625 40.1875 58.015625 27.296875 
Q 58.015625 14.40625 51.78125 6.484375 
Q 45.5625 -1.421875 35.59375 -1.421875 
Q 29.59375 -1.421875 25.265625 0.953125 
Q 20.953125 3.328125 18.109375 8.203125 
z
M 48.6875 27.296875 
Q 48.6875 37.203125 44.609375 42.84375 
Q 40.53125 48.484375 33.40625 48.484375 
Q 26.265625 48.484375 22.1875 42.84375 
Q 18.109375 37.203125 18.109375 27.296875 
Q 18.109375 17.390625 22.1875 11.75 
Q 26.265625 6.109375 33.40625 6.109375 
Q 40.53125 6.109375 44.609375 11.75 
Q 48.6875 17.390625 48.6875 27.296875 
z
" id="DejaVuSans-112"/>
     </defs>
     <g transform="translate(17.619531 297.681)rotate(-90)scale(0.17 -0.17)">
      <use xlink:href="#DejaVuSans-70"/>
      <use x="50.269531" xlink:href="#DejaVuSans-114"/>
      <use x="91.382812" xlink:href="#DejaVuSans-97"/>
      <use x="152.662109" xlink:href="#DejaVuSans-99"/>
      <use x="207.642578" xlink:href="#DejaVuSans-116"/>
      <use x="246.851562" xlink:href="#DejaVuSans-105"/>
      <use x="274.634766" xlink:href="#DejaVuSans-111"/>
      <use x="335.816406" xlink:href="#DejaVuSans-110"/>
      <use x="399.195312" xlink:href="#DejaVuSans-32"/>
      <use x="430.982422" xlink:href="#DejaVuSans-111"/>
      <use x="492.164062" xlink:href="#DejaVuSans-102"/>
      <use x="527.369141" xlink:href="#DejaVuSans-32"/>
      <use x="559.15625" xlink:href="#DejaVuSans-102"/>
      <use x="594.361328" xlink:href="#DejaVuSans-117"/>
      <use x="657.740234" xlink:href="#DejaVuSans-110"/>
      <use x="721.119141" xlink:href="#DejaVuSans-99"/>
      <use x="776.099609" xlink:href="#DejaVuSans-116"/>
      <use x="815.308594" xlink:href="#DejaVuSans-105"/>
      <use x="843.091797" xlink:href="#DejaVuSans-111"/>
      <use x="904.273438" xlink:href="#DejaVuSans-110"/>
      <use x="967.652344" xlink:href="#DejaVuSans-44"/>
      <use x="999.439453" xlink:href="#DejaVuSans-116"/>
      <use x="1038.648438" xlink:href="#DejaVuSans-97"/>
      <use x="1099.927734" xlink:href="#DejaVuSans-114"/>
      <use x="1139.291016" xlink:href="#DejaVuSans-103"/>
      <use x="1202.767578" xlink:href="#DejaVuSans-101"/>
      <use x="1264.291016" xlink:href="#DejaVuSans-116"/>
      <use x="1303.5" xlink:href="#DejaVuSans-32"/>
      <use x="1335.287109" xlink:href="#DejaVuSans-112"/>
      <use x="1398.763672" xlink:href="#DejaVuSans-97"/>
      <use x="1460.042969" xlink:href="#DejaVuSans-105"/>
      <use x="1487.826172" xlink:href="#DejaVuSans-114"/>
      <use x="1528.939453" xlink:href="#DejaVuSans-115"/>
     </g>
    </g>
   </g>
   <g id="line2d_33">
    <defs>
     <path d="M 0 1.5 
C 0.397805 1.5 0.77937 1.341951 1.06066 1.06066 
C 1.341951 0.77937 1.5 0.397805 1.5 0 
C 1.5 -0.397805 1.341951 -0.77937 1.06066 -1.06066 
C 0.77937 -1.341951 0.397805 -1.5 0 -1.5 
C -0.397805 -1.5 -0.77937 -1.341951 -1.06066 -1.06066 
C -1.341951 -0.77937 -1.5 -0.397805 -1.5 0 
C -1.5 0.397805 -1.341951 0.77937 -1.06066 1.06066 
C -0.77937 1.341951 -0.397805 1.5 0 1.5 
z
" id="m19bb6ac105" style="stroke:#f5deb3;"/>
    </defs>
    <g>
     <use style="fill:#f5deb3;stroke:#f5deb3;" x="189.247514" xlink:href="#m19bb6ac105" y="30.334099"/>
     <use style="fill:#f5deb3;stroke:#f5deb3;" x="189.247514" xlink:href="#m19bb6ac105" y="30.334099"/>
    </g>
   </g>
   <g id="line2d_34">
    <defs>
     <path d="M 0 1.5 
C 0.397805 1.5 0.77937 1.341951 1.06066 1.06066 
C 1.341951 0.77937 1.5 0.397805 1.5 0 
C 1.5 -0.397805 1.341951 -0.77937 1.06066 -1.06066 
C 0.77937 -1.341951 0.397805 -1.5 0 -1.5 
C -0.397805 -1.5 -0.77937 -1.341951 -1.06066 -1.06066 
C -1.341951 -0.77937 -1.5 -0.397805 -1.5 0 
C -1.5 0.397805 -1.341951 0.77937 -1.06066 1.06066 
C -0.77937 1.341951 -0.397805 1.5 0 1.5 
z
" id="maa19c3411b" style="stroke:#000080;"/>
    </defs>
    <g>
     <use style="fill:#000080;stroke:#000080;" x="246.718415" xlink:href="#maa19c3411b" y="241.008531"/>
     <use style="fill:#000080;stroke:#000080;" x="246.718415" xlink:href="#maa19c3411b" y="241.008531"/>
    </g>
   </g>
   <g id="line2d_35">
    <path d="M 38.440992 298.944 
L 38.440992 294.203825 
L 50.52898 294.203825 
L 50.52898 291.570395 
L 57.6 291.570395 
L 57.6 289.990337 
L 62.616969 289.990337 
L 62.616969 288.936964 
L 66.508432 288.936964 
L 66.508432 287.883592 
L 69.687988 287.883592 
L 69.687988 287.356906 
L 72.376266 287.356906 
L 72.376266 285.776848 
L 74.704957 285.776848 
L 74.704957 284.19679 
L 76.759008 284.19679 
L 76.759008 283.670104 
L 80.258561 283.670104 
L 80.258561 283.143418 
L 81.775977 283.143418 
L 81.775977 282.090045 
L 83.171864 282.090045 
L 83.171864 281.036673 
L 86.792945 281.036673 
L 86.792945 278.929929 
L 88.846997 278.929929 
L 88.846997 278.403243 
L 89.78989 278.403243 
L 89.78989 277.876557 
L 91.535274 277.876557 
L 91.535274 277.349871 
L 92.34655 277.349871 
L 92.34655 276.823185 
L 93.863965 276.823185 
L 93.863965 276.296499 
L 94.575872 276.296499 
L 94.575872 275.243126 
L 95.259853 275.243126 
L 95.259853 274.71644 
L 97.755429 274.71644 
L 97.755429 273.663068 
L 101.877879 273.663068 
L 101.877879 273.136382 
L 105.209745 273.136382 
L 105.209745 272.609696 
L 107.347841 272.609696 
L 107.347841 272.08301 
L 108.006005 272.08301 
L 108.006005 271.029638 
L 110.415248 271.029638 
L 110.415248 270.502952 
L 111.767808 270.502952 
L 111.767808 269.976266 
L 114.860386 269.976266 
L 114.860386 269.449579 
L 116.719583 269.449579 
L 116.719583 268.396207 
L 123.192626 268.396207 
L 123.192626 267.342835 
L 124.241922 267.342835 
L 124.241922 266.816149 
L 125.470548 266.816149 
L 125.470548 266.289463 
L 125.938745 266.289463 
L 125.938745 265.236091 
L 126.50685 265.236091 
L 126.50685 263.656033 
L 128.511146 263.656033 
L 128.511146 263.129347 
L 130.576266 263.129347 
L 130.576266 262.075974 
L 131.270459 262.075974 
L 131.270459 260.495916 
L 131.77355 260.495916 
L 131.77355 259.442544 
L 148.322166 259.442544 
L 148.322166 258.915858 
L 153.129893 258.915858 
L 153.129893 258.389172 
L 154.121296 258.389172 
L 154.121296 256.282427 
L 159.063529 256.282427 
L 159.063529 255.755741 
L 166.117256 255.755741 
L 166.117256 255.229055 
L 172.994977 255.229055 
L 172.994977 254.702369 
L 178.6156 254.702369 
L 178.6156 254.175683 
L 179.738993 254.175683 
L 179.738993 253.648997 
L 181.901854 253.648997 
L 181.901854 253.122311 
L 183.061441 253.122311 
L 183.061441 252.595625 
L 189.442368 252.595625 
L 189.442368 252.068939 
L 191.582327 252.068939 
L 191.582327 251.542253 
L 196.710081 251.542253 
L 196.710081 251.015567 
L 199.332658 251.015567 
L 199.332658 249.962195 
L 200.340141 249.962195 
L 200.340141 249.435508 
L 204.601084 249.435508 
L 204.601084 248.382136 
L 206.314158 248.382136 
L 206.314158 247.85545 
L 211.286193 247.85545 
L 211.328537 246.802078 
L 211.801106 246.802078 
L 211.801106 246.275392 
L 214.138826 246.275392 
L 214.138826 245.748706 
L 217.472225 245.748706 
L 217.472225 245.22202 
L 218.312164 245.22202 
L 218.312164 244.695334 
L 220.269564 244.695334 
L 220.269564 244.168648 
L 222.679607 244.168648 
L 222.679607 243.641962 
L 223.306564 243.641962 
L 223.306564 243.115275 
L 223.566921 243.115275 
L 223.566921 242.588589 
L 236.123058 242.588589 
L 236.123058 242.061903 
L 239.350172 242.061903 
L 239.350172 241.535217 
L 246.718415 241.535217 
L 246.718415 241.008531 
L 338.688 241.008531 
L 338.688 241.008531 
" style="fill:none;stroke:#000080;stroke-linecap:square;stroke-width:1.5;"/>
   </g>
   <g id="line2d_36">
    <defs>
     <path d="M 0 6 
C 1.591219 6 3.117479 5.367802 4.242641 4.242641 
C 5.367802 3.117479 6 1.591219 6 0 
C 6 -1.591219 5.367802 -3.117479 4.242641 -4.242641 
C 3.117479 -5.367802 1.591219 -6 0 -6 
C -1.591219 -6 -3.117479 -5.367802 -4.242641 -4.242641 
C -5.367802 -3.117479 -6 -1.591219 -6 0 
C -6 1.591219 -5.367802 3.117479 -4.242641 4.242641 
C -3.117479 5.367802 -1.591219 6 0 6 
z
" id="m323ebd96fd" style="stroke:#000080;stroke-width:1.5;"/>
    </defs>
    <g>
     <use style="fill-opacity:0;stroke:#000080;stroke-width:1.5;" x="72.376266" xlink:href="#m323ebd96fd" y="285.776848"/>
     <use style="fill-opacity:0;stroke:#000080;stroke-width:1.5;" x="131.77355" xlink:href="#m323ebd96fd" y="259.442544"/>
     <use style="fill-opacity:0;stroke:#000080;stroke-width:1.5;" x="200.340141" xlink:href="#m323ebd96fd" y="249.962195"/>
     <use style="fill-opacity:0;stroke:#000080;stroke-width:1.5;" x="246.718415" xlink:href="#m323ebd96fd" y="241.535217"/>
     <use style="fill-opacity:0;stroke:#000080;stroke-width:1.5;" x="246.718415" xlink:href="#m323ebd96fd" y="241.008531"/>
     <use style="fill-opacity:0;stroke:#000080;stroke-width:1.5;" x="338.688" xlink:href="#m323ebd96fd" y="241.008531"/>
    </g>
   </g>
   <g id="line2d_37">
    <path style="fill:none;stroke:#000080;stroke-linecap:square;stroke-width:1.5;"/>
    <g/>
   </g>
   <g id="line2d_38">
    <path clip-path="url(#p8bbddabb5f)" d="M 186.974717 252.595625 
" style="fill:none;stroke:#000080;stroke-linecap:square;stroke-width:1.5;"/>
    <defs>
     <path d="M -12 12 
L 12 -12 
M -12 -12 
L 12 12 
" id="md695ce6265" style="stroke:#000080;"/>
    </defs>
    <g clip-path="url(#p8bbddabb5f)">
     <use style="fill:#000080;stroke:#000080;" x="186.974717" xlink:href="#md695ce6265" y="252.595625"/>
    </g>
   </g>
   <g id="line2d_39">
    <defs>
     <path d="M 0 1.5 
C 0.397805 1.5 0.77937 1.341951 1.06066 1.06066 
C 1.341951 0.77937 1.5 0.397805 1.5 0 
C 1.5 -0.397805 1.341951 -0.77937 1.06066 -1.06066 
C 0.77937 -1.341951 0.397805 -1.5 0 -1.5 
C -0.397805 -1.5 -0.77937 -1.341951 -1.06066 -1.06066 
C -1.341951 -0.77937 -1.5 -0.397805 -1.5 0 
C -1.5 0.397805 -1.341951 0.77937 -1.06066 1.06066 
C -0.77937 1.341951 -0.397805 1.5 0 1.5 
z
" id="mcaf49d1017" style="stroke:#ff7500;"/>
    </defs>
    <g>
     <use style="fill:#ff7500;stroke:#ff7500;" x="262.460357" xlink:href="#mcaf49d1017" y="72.468985"/>
     <use style="fill:#ff7500;stroke:#ff7500;" x="262.460357" xlink:href="#mcaf49d1017" y="72.468985"/>
    </g>
   </g>
   <g id="line2d_40">
    <path d="M 38.440992 298.944 
L 38.440992 296.31057 
L 50.52898 296.31057 
L 50.52898 294.203825 
L 57.6 294.203825 
L 57.6 291.570395 
L 66.508432 291.570395 
L 66.508432 290.517023 
L 69.687988 290.517023 
L 69.687988 288.936964 
L 74.704957 288.936964 
L 74.704957 288.410278 
L 76.759008 288.410278 
L 76.759008 287.356906 
L 80.258561 287.356906 
L 80.258561 284.19679 
L 81.775977 284.19679 
L 81.775977 283.670104 
L 84.464254 283.670104 
L 84.464254 282.616732 
L 85.66744 282.616732 
L 85.66744 281.036673 
L 86.792945 281.036673 
L 86.792945 280.509987 
L 87.850195 280.509987 
L 87.850195 279.456615 
L 91.535274 279.456615 
L 91.535274 278.929929 
L 93.863965 278.929929 
L 93.863965 278.403243 
L 95.259853 278.403243 
L 95.259853 277.876557 
L 97.16421 277.876557 
L 97.16421 276.823185 
L 98.32726 276.823185 
L 98.32726 275.769812 
L 102.330873 275.769812 
L 102.330873 275.243126 
L 106.66386 275.243126 
L 106.66386 274.71644 
L 109.252198 274.71644 
L 109.252198 273.663068 
L 109.843417 273.663068 
L 109.843417 273.136382 
L 112.026172 273.136382 
L 112.026172 272.609696 
L 114.418861 272.609696 
L 114.418861 271.556324 
L 114.860386 271.556324 
L 114.860386 271.029638 
L 115.077025 271.029638 
L 115.077025 270.502952 
L 115.917635 270.502952 
L 115.917635 269.976266 
L 116.914437 269.976266 
L 116.914437 269.449579 
L 118.220662 269.449579 
L 118.220662 268.922893 
L 119.43583 268.922893 
L 119.43583 267.869521 
L 120.254726 267.869521 
L 120.254726 267.342835 
L 120.571812 267.342835 
L 120.571812 266.816149 
L 120.728219 266.816149 
L 120.728219 266.289463 
L 123.192626 266.289463 
L 123.192626 265.762777 
L 123.460928 265.762777 
L 123.460928 264.709405 
L 124.241922 264.709405 
L 124.241922 264.182719 
L 126.053856 264.182719 
L 126.053856 263.656033 
L 126.729009 263.656033 
L 126.729009 262.075974 
L 127.48501 262.075974 
L 127.48501 261.549288 
L 130.218525 261.549288 
L 130.218525 261.022602 
L 132.422528 261.022602 
L 132.422528 259.96923 
L 133.428175 259.96923 
L 133.428175 259.442544 
L 133.946579 259.442544 
L 133.946579 258.915858 
L 135.348078 258.915858 
L 135.348078 258.389172 
L 135.878591 258.389172 
L 135.878591 257.862486 
L 137.259399 257.862486 
L 137.259399 257.3358 
L 137.558536 257.3358 
L 137.558536 256.809114 
L 137.794206 256.809114 
L 137.794206 256.282427 
L 138.538853 256.282427 
L 138.538853 255.229055 
L 138.927025 255.229055 
L 138.927025 254.702369 
L 140.39868 254.702369 
L 140.39868 254.175683 
L 140.64889 254.175683 
L 140.64889 253.648997 
L 140.846504 253.648997 
L 140.846504 253.122311 
L 142.261275 253.122311 
L 142.261275 252.068939 
L 144.229555 252.068939 
L 144.229555 251.542253 
L 144.787023 251.542253 
L 144.787023 251.015567 
L 145.289185 251.015567 
L 145.289185 250.488881 
L 145.703082 250.488881 
L 145.703082 249.962195 
L 145.961446 249.962195 
L 146.071013 248.382136 
L 148.064279 248.382136 
L 148.064279 247.85545 
L 148.670646 247.85545 
L 148.670646 247.328764 
L 149.347388 247.328764 
L 149.347388 246.802078 
L 149.527485 246.802078 
L 149.616841 245.748706 
L 150.143571 245.748706 
L 150.201126 244.695334 
L 150.822008 244.695334 
L 150.822008 244.168648 
L 151.260066 244.168648 
L 151.260066 243.641962 
L 152.155936 243.641962 
L 152.155936 243.115275 
L 152.360205 243.115275 
L 152.410901 242.061903 
L 154.167129 242.061903 
L 154.167129 241.535217 
L 154.371897 241.535217 
L 154.371897 241.008531 
L 154.707925 241.008531 
L 154.77436 239.428473 
L 155.783437 239.428473 
L 155.825108 238.375101 
L 156.45859 238.375101 
L 156.45859 237.848415 
L 157.735205 237.848415 
L 157.735205 235.74167 
L 158.159001 235.74167 
L 158.267884 234.688298 
L 158.907277 234.688298 
L 158.907277 234.161612 
L 159.080804 234.161612 
L 159.132527 232.054868 
L 159.69158 232.054868 
L 159.69158 231.528182 
L 159.84099 231.528182 
L 159.84099 230.47481 
L 160.200913 230.47481 
L 160.249422 228.894751 
L 161.131018 228.894751 
L 161.131018 228.368065 
L 161.374928 228.368065 
L 161.374928 227.841379 
L 161.555647 227.841379 
L 161.555647 227.314693 
L 161.970183 227.314693 
L 161.970183 226.788007 
L 162.965359 226.788007 
L 163.020547 225.734635 
L 163.320996 225.734635 
L 163.320996 225.207949 
L 163.589711 225.207949 
L 163.589711 224.681263 
L 164.166702 224.681263 
L 164.218222 223.627891 
L 164.410075 223.627891 
L 164.486229 222.574518 
L 164.524182 222.574518 
L 164.574657 220.99446 
L 165.022481 220.99446 
L 165.022481 220.467774 
L 165.242153 220.467774 
L 165.242153 218.887716 
L 165.744209 218.887716 
L 165.744209 217.834344 
L 166.289413 217.834344 
L 166.289413 217.307658 
L 166.684622 217.307658 
L 166.684622 216.254285 
L 167.40635 216.254285 
L 167.40635 215.727599 
L 168.047843 215.727599 
L 168.047843 215.200913 
L 168.222494 215.200913 
L 168.273531 213.094169 
L 168.365023 213.094169 
L 168.365023 212.040797 
L 168.576655 212.040797 
L 168.666574 210.987425 
L 168.943394 210.987425 
L 168.972794 209.934052 
L 169.157854 209.934052 
L 169.157854 209.407366 
L 169.53167 209.407366 
L 169.53167 208.88068 
L 170.328715 208.88068 
L 170.328715 208.353994 
L 170.5984 208.353994 
L 170.642945 206.773936 
L 171.073566 206.773936 
L 171.116915 205.720564 
L 172.052516 205.720564 
L 172.150719 204.667192 
L 172.199614 204.667192 
L 172.199614 204.140506 
L 172.673253 204.140506 
L 172.760154 203.087133 
L 172.893608 203.087133 
L 172.893608 202.560447 
L 173.371849 202.560447 
L 173.371849 200.980389 
L 173.538444 200.980389 
L 173.628647 197.820273 
L 173.733298 197.820273 
L 173.733298 197.293586 
L 173.852135 197.293586 
L 173.852135 196.240214 
L 174.66913 196.240214 
L 174.725545 194.660156 
L 174.942445 194.660156 
L 174.984116 193.606784 
L 175.149812 193.606784 
L 175.149812 193.080098 
L 175.381884 193.080098 
L 175.381884 192.553412 
L 175.590821 192.553412 
L 175.630972 190.446667 
L 175.823747 190.446667 
L 175.823747 189.919981 
L 176.131719 189.919981 
L 176.131719 189.393295 
L 176.427962 189.393295 
L 176.427962 188.866609 
L 176.55521 188.866609 
L 176.61217 187.813237 
L 177.135015 187.813237 
L 177.232851 186.759865 
L 177.257224 186.759865 
L 177.354379 185.179807 
L 177.402755 185.179807 
L 177.402755 184.653121 
L 177.767269 184.653121 
L 177.767269 184.126434 
L 178.130113 184.126434 
L 178.135904 183.073062 
L 178.37169 183.073062 
L 178.428718 182.01969 
L 178.60433 182.01969 
L 178.705493 180.439632 
L 179.033027 180.439632 
L 179.13174 177.279515 
L 179.153601 177.279515 
L 179.153601 176.752829 
L 179.316688 176.752829 
L 179.316688 176.226143 
L 179.707275 176.226143 
L 179.818035 174.119399 
L 180.140994 174.119399 
L 180.140994 173.592713 
L 180.346224 173.592713 
L 180.427645 172.012655 
L 180.599412 172.012655 
L 180.599412 170.959282 
L 180.933022 170.959282 
L 180.933022 170.432596 
L 181.095021 170.432596 
L 181.095021 169.379224 
L 181.347276 169.379224 
L 181.443334 167.799166 
L 181.657549 167.799166 
L 181.66228 166.745794 
L 181.901854 166.745794 
L 181.980986 165.692422 
L 182.105933 165.692422 
L 182.105933 165.165736 
L 182.766488 165.165736 
L 182.877129 164.112363 
L 182.973917 164.112363 
L 182.973917 163.585677 
L 183.299894 163.585677 
L 183.299894 163.058991 
L 183.437144 163.058991 
L 183.518129 162.005619 
L 183.662116 162.005619 
L 183.729465 160.425561 
L 183.892548 160.425561 
L 183.959015 158.318817 
L 184.082962 158.318817 
L 184.082962 157.79213 
L 184.709687 157.79213 
L 184.761242 156.212072 
L 184.911072 156.212072 
L 184.922846 155.1587 
L 185.075189 155.1587 
L 185.075189 154.632014 
L 185.233922 154.632014 
L 185.287795 152.52527 
L 185.84363 152.52527 
L 185.84363 151.998584 
L 186.168092 151.998584 
L 186.215516 150.418525 
L 186.396723 150.418525 
L 186.396723 149.891839 
L 186.583203 149.891839 
L 186.601029 147.785095 
L 186.757118 147.785095 
L 186.757118 147.258409 
L 191.715717 147.258409 
L 191.715717 146.731723 
L 192.05001 146.731723 
L 192.130645 145.678351 
L 192.208326 145.678351 
L 192.208326 145.151665 
L 192.684887 145.151665 
L 192.684887 144.624978 
L 193.636379 144.624978 
L 193.636379 144.098292 
L 193.992175 144.098292 
L 194.064329 143.04492 
L 194.283607 143.04492 
L 194.297364 141.991548 
L 194.863353 141.991548 
L 194.874444 140.938176 
L 195.37496 140.938176 
L 195.413699 139.884804 
L 195.578454 139.884804 
L 195.650711 138.831432 
L 195.804845 138.831432 
L 195.863606 137.778059 
L 196.369487 137.778059 
L 196.369487 136.724687 
L 196.607997 136.724687 
L 196.67612 135.144629 
L 196.797676 135.144629 
L 196.876928 133.037885 
L 197.319984 133.037885 
L 197.383466 131.457826 
L 197.515459 131.457826 
L 197.589624 130.404454 
L 197.659696 130.404454 
L 197.659696 129.877768 
L 197.991063 129.877768 
L 198.06139 128.824396 
L 198.197534 128.824396 
L 198.239634 127.771024 
L 198.581787 127.771024 
L 198.664056 126.190966 
L 198.876863 126.190966 
L 198.954246 124.084221 
L 199.04002 124.084221 
L 199.04002 123.030849 
L 202.184035 123.030849 
L 202.184035 122.504163 
L 202.319117 122.504163 
L 202.319117 121.977477 
L 203.09728 121.977477 
L 203.09728 121.450791 
L 203.879284 121.450791 
L 203.879284 120.924105 
L 204.385221 120.924105 
L 204.385221 120.397419 
L 204.62265 120.397419 
L 204.62265 119.870733 
L 205.032386 119.870733 
L 205.117628 117.237302 
L 205.263667 117.237302 
L 205.263667 116.710616 
L 205.419397 116.710616 
L 205.419397 116.18393 
L 205.56174 116.18393 
L 205.56174 115.657244 
L 205.764788 115.657244 
L 205.764788 115.130558 
L 205.946708 115.130558 
L 206.010051 113.023814 
L 206.118605 113.023814 
L 206.118605 111.970441 
L 210.301093 111.970441 
L 210.394225 110.917069 
L 210.723473 110.917069 
L 210.723473 109.337011 
L 210.911893 109.337011 
L 210.979827 107.230267 
L 211.096549 107.230267 
L 211.096549 106.703581 
L 214.15131 106.703581 
L 214.15131 106.176895 
L 214.436019 106.176895 
L 214.43963 104.596836 
L 214.648503 104.596836 
L 214.701222 103.543464 
L 215.033087 103.543464 
L 215.033087 103.016778 
L 217.498905 103.016778 
L 217.498905 102.490092 
L 220.481749 102.490092 
L 220.481749 100.383348 
L 220.812558 100.383348 
L 220.879071 98.803289 
L 222.864549 98.803289 
L 222.864549 98.276603 
L 222.993692 98.276603 
L 223.02638 96.696545 
L 224.96057 96.696545 
L 224.96057 95.116487 
L 225.075135 95.116487 
L 225.075135 94.589801 
L 226.831484 94.589801 
L 226.831484 94.063115 
L 228.520988 94.063115 
L 228.520988 93.009743 
L 228.719206 93.009743 
L 228.772617 91.95637 
L 230.061174 91.95637 
L 230.061174 91.429684 
L 230.242724 91.429684 
L 230.242724 90.376312 
L 231.643772 90.376312 
L 231.643772 89.849626 
L 232.785173 89.849626 
L 232.785173 89.32294 
L 234.001451 89.32294 
L 234.001451 88.796254 
L 234.186743 88.796254 
L 234.186743 88.269568 
L 235.139506 88.269568 
L 235.220843 86.162824 
L 235.323837 86.162824 
L 235.323837 85.636137 
L 236.371196 85.636137 
L 236.371196 85.109451 
L 237.215431 85.109451 
L 237.215431 84.582765 
L 238.220881 84.582765 
L 238.220881 84.056079 
L 239.927418 84.056079 
L 239.927418 83.529393 
L 240.791586 83.529393 
L 240.791586 83.002707 
L 241.526257 83.002707 
L 241.526257 82.476021 
L 242.364234 82.476021 
L 242.388679 81.422649 
L 242.990043 81.422649 
L 243.031574 80.369277 
L 243.678638 80.369277 
L 243.678638 79.315904 
L 244.389107 79.315904 
L 244.389107 78.789218 
L 244.97989 78.789218 
L 244.97989 78.262532 
L 245.595526 78.262532 
L 245.595526 77.735846 
L 246.189583 77.735846 
L 246.262394 76.155788 
L 247.407901 76.155788 
L 247.407901 75.629102 
L 248.921736 75.629102 
L 248.921736 75.102416 
L 249.385775 75.102416 
L 249.446413 74.049044 
L 251.66437 74.049044 
L 251.66437 73.522358 
L 254.828886 73.522358 
L 254.828886 72.995672 
L 262.460357 72.995672 
L 262.460357 72.468985 
L 338.688 72.468985 
L 338.688 72.468985 
" style="fill:none;stroke:#ff7500;stroke-linecap:square;stroke-width:1.5;"/>
   </g>
   <g id="line2d_41">
    <defs>
     <path d="M 0 -6 
L -1.347084 -1.854102 
L -5.706339 -1.854102 
L -2.179628 0.708204 
L -3.526712 4.854102 
L -0 2.291796 
L 3.526712 4.854102 
L 2.179628 0.708204 
L 5.706339 -1.854102 
L 1.347084 -1.854102 
z
" id="m0e2a0c7975" style="stroke:#ff7500;stroke-linejoin:bevel;stroke-width:1.5;"/>
    </defs>
    <g>
     <use style="fill-opacity:0;stroke:#ff7500;stroke-linejoin:bevel;stroke-width:1.5;" x="135.878591" xlink:href="#m0e2a0c7975" y="258.389172"/>
     <use style="fill-opacity:0;stroke:#ff7500;stroke-linejoin:bevel;stroke-width:1.5;" x="186.757118" xlink:href="#m0e2a0c7975" y="147.785095"/>
     <use style="fill-opacity:0;stroke:#ff7500;stroke-linejoin:bevel;stroke-width:1.5;" x="238.220881" xlink:href="#m0e2a0c7975" y="84.582765"/>
     <use style="fill-opacity:0;stroke:#ff7500;stroke-linejoin:bevel;stroke-width:1.5;" x="262.460357" xlink:href="#m0e2a0c7975" y="72.468985"/>
     <use style="fill-opacity:0;stroke:#ff7500;stroke-linejoin:bevel;stroke-width:1.5;" x="262.460357" xlink:href="#m0e2a0c7975" y="72.468985"/>
     <use style="fill-opacity:0;stroke:#ff7500;stroke-linejoin:bevel;stroke-width:1.5;" x="338.688" xlink:href="#m0e2a0c7975" y="72.468985"/>
    </g>
   </g>
   <g id="line2d_42">
    <path style="fill:none;stroke:#ff7500;stroke-linecap:square;stroke-width:1.5;"/>
    <g/>
   </g>
   <g id="line2d_43">
    <path clip-path="url(#p8bbddabb5f)" d="M 186.974717 147.258409 
" style="fill:none;stroke:#ff7500;stroke-linecap:square;stroke-width:1.5;"/>
    <defs>
     <path d="M -12 12 
L 12 -12 
M -12 -12 
L 12 12 
" id="m529594b128" style="stroke:#ff7500;"/>
    </defs>
    <g clip-path="url(#p8bbddabb5f)">
     <use style="fill:#ff7500;stroke:#ff7500;" x="186.974717" xlink:href="#m529594b128" y="147.258409"/>
    </g>
   </g>
   <g id="line2d_44">
    <defs>
     <path d="M 0 1.5 
C 0.397805 1.5 0.77937 1.341951 1.06066 1.06066 
C 1.341951 0.77937 1.5 0.397805 1.5 0 
C 1.5 -0.397805 1.341951 -0.77937 1.06066 -1.06066 
C 0.77937 -1.341951 0.397805 -1.5 0 -1.5 
C -0.397805 -1.5 -0.77937 -1.341951 -1.06066 -1.06066 
C -1.341951 -0.77937 -1.5 -0.397805 -1.5 0 
C -1.5 0.397805 -1.341951 0.77937 -1.06066 1.06066 
C -0.77937 1.341951 -0.397805 1.5 0 1.5 
z
" id="mc5fe120375" style="stroke:#6495ed;"/>
    </defs>
    <g>
     <use style="fill:#6495ed;stroke:#6495ed;" x="237.335127" xlink:href="#mc5fe120375" y="167.27248"/>
     <use style="fill:#6495ed;stroke:#6495ed;" x="237.335127" xlink:href="#mc5fe120375" y="167.27248"/>
    </g>
   </g>
   <g id="line2d_45">
    <path d="M 38.440992 298.944 
L 38.440992 294.730511 
L 50.52898 294.730511 
L 50.52898 292.097081 
L 57.6 292.097081 
L 57.6 289.990337 
L 62.616969 289.990337 
L 62.616969 289.463651 
L 66.508432 289.463651 
L 66.508432 288.936964 
L 69.687988 288.936964 
L 69.687988 285.776848 
L 74.704957 285.776848 
L 74.704957 285.250162 
L 76.759008 285.250162 
L 76.759008 284.19679 
L 80.258561 284.19679 
L 80.258561 282.616732 
L 81.775977 282.616732 
L 81.775977 282.090045 
L 85.66744 282.090045 
L 85.66744 281.563359 
L 86.792945 281.563359 
L 86.792945 280.509987 
L 87.850195 280.509987 
L 87.850195 279.983301 
L 91.535274 279.983301 
L 91.535274 279.456615 
L 93.863965 279.456615 
L 93.863965 276.296499 
L 95.259853 276.296499 
L 95.259853 275.769812 
L 97.16421 275.769812 
L 97.16421 274.71644 
L 98.32726 274.71644 
L 98.32726 273.663068 
L 102.330873 273.663068 
L 102.330873 273.136382 
L 104.033617 273.136382 
L 104.033617 272.609696 
L 104.826449 272.609696 
L 104.826449 272.08301 
L 105.209745 272.08301 
L 105.209745 271.556324 
L 108.948899 271.556324 
L 108.948899 271.029638 
L 111.505558 271.029638 
L 111.505558 270.502952 
L 113.73488 270.502952 
L 113.73488 269.976266 
L 114.641021 269.976266 
L 114.641021 269.449579 
L 114.860386 269.449579 
L 114.860386 268.922893 
L 117.672786 268.922893 
L 117.672786 267.869521 
L 118.751849 267.869521 
L 118.751849 267.342835 
L 118.925375 267.342835 
L 118.925375 266.816149 
L 119.931767 266.816149 
L 119.931767 265.762777 
L 122.782271 265.762777 
L 122.782271 265.236091 
L 123.327293 265.236091 
L 123.327293 264.709405 
L 124.114161 264.709405 
L 124.114161 264.182719 
L 126.053856 264.182719 
L 126.053856 263.656033 
L 126.281824 263.656033 
L 126.281824 263.129347 
L 130.926816 263.129347 
L 131.013364 261.549288 
L 132.501978 261.549288 
L 132.581068 260.495916 
L 133.72629 260.495916 
L 133.72629 259.96923 
L 135.415281 259.96923 
L 135.415281 259.442544 
L 136.769843 259.442544 
L 136.769843 258.915858 
L 137.794206 258.915858 
L 137.794206 258.389172 
L 137.968891 258.389172 
L 137.968891 257.862486 
L 138.141844 257.862486 
L 138.141844 257.3358 
L 139.090775 257.3358 
L 139.090775 256.282427 
L 139.306744 256.282427 
L 139.306744 255.755741 
L 140.846504 255.755741 
L 140.846504 254.175683 
L 141.090414 254.175683 
L 141.090414 253.648997 
L 142.396639 253.648997 
L 142.486301 252.595625 
L 143.358447 252.595625 
L 143.358447 252.068939 
L 145.251067 252.068939 
L 145.251067 251.542253 
L 147.536775 251.542253 
L 147.536775 251.015567 
L 147.901141 251.015567 
L 147.901141 249.962195 
L 148.449693 249.962195 
L 148.449693 248.908822 
L 149.407627 248.908822 
L 149.407627 247.85545 
L 149.646525 247.85545 
L 149.646525 246.802078 
L 149.940618 246.802078 
L 149.940618 246.275392 
L 150.570677 246.275392 
L 150.570677 245.748706 
L 150.766468 245.748706 
L 150.766468 244.695334 
L 150.960087 244.695334 
L 150.960087 244.168648 
L 151.660987 244.168648 
L 151.660987 243.115275 
L 153.656221 243.115275 
L 153.656221 242.588589 
L 155.594676 242.588589 
L 155.594676 242.061903 
L 155.783437 242.061903 
L 155.783437 241.535217 
L 156.277034 241.535217 
L 156.277034 241.008531 
L 156.498681 241.008531 
L 156.498681 240.481845 
L 157.1279 240.481845 
L 157.1279 239.428473 
L 159.201253 239.428473 
L 159.201253 238.375101 
L 160.087195 238.375101 
L 160.087195 237.848415 
L 161.39006 237.848415 
L 161.420284 235.74167 
L 161.615474 235.74167 
L 161.615474 234.688298 
L 163.814908 234.688298 
L 163.854349 233.634926 
L 165.120455 233.634926 
L 165.120455 233.10824 
L 165.518877 233.10824 
L 165.518877 232.581554 
L 166.289413 232.581554 
L 166.289413 232.054868 
L 166.425924 232.054868 
L 166.425924 231.001496 
L 166.695783 231.001496 
L 166.695783 230.47481 
L 167.125588 230.47481 
L 167.190782 228.894751 
L 168.304082 228.894751 
L 168.304082 228.368065 
L 169.206229 228.368065 
L 169.206229 226.788007 
L 169.94401 226.788007 
L 169.94401 226.261321 
L 171.871027 226.261321 
L 171.871027 225.207949 
L 173.172891 225.207949 
L 173.172891 224.681263 
L 173.394661 224.681263 
L 173.394661 224.154577 
L 173.829915 224.154577 
L 173.829915 223.627891 
L 174.377103 223.627891 
L 174.377103 223.101204 
L 174.569962 223.101204 
L 174.569962 222.574518 
L 175.77741 222.574518 
L 175.77741 222.047832 
L 176.151193 222.047832 
L 176.151193 221.521146 
L 176.376802 221.521146 
L 176.376802 220.99446 
L 176.687829 220.99446 
L 176.687829 220.467774 
L 176.881775 220.467774 
L 176.881775 219.414402 
L 178.170609 219.414402 
L 178.193707 218.36103 
L 178.530902 218.36103 
L 178.58177 216.780971 
L 178.950337 216.780971 
L 178.950337 216.254285 
L 179.429948 216.254285 
L 179.537135 214.674227 
L 179.659591 214.674227 
L 179.659591 214.147541 
L 179.912415 214.147541 
L 179.938541 212.567483 
L 180.714656 212.567483 
L 180.714656 212.040797 
L 181.177891 212.040797 
L 181.177891 211.514111 
L 181.576933 211.514111 
L 181.576933 210.987425 
L 182.280281 210.987425 
L 182.389504 209.934052 
L 182.556562 209.934052 
L 182.623834 208.88068 
L 183.013357 208.88068 
L 183.013357 208.353994 
L 183.61989 208.353994 
L 183.636792 207.300622 
L 184.078845 207.300622 
L 184.115866 205.720564 
L 184.267247 205.720564 
L 184.320124 204.140506 
L 184.582131 204.140506 
L 184.598127 202.560447 
L 184.741431 202.560447 
L 184.741431 202.033761 
L 185.156672 202.033761 
L 185.156672 201.507075 
L 185.268574 201.507075 
L 185.287795 200.453703 
L 185.554689 200.453703 
L 185.554689 199.927017 
L 185.832462 199.927017 
L 185.832462 198.873645 
L 186.135184 198.873645 
L 186.215516 196.240214 
L 186.533193 196.240214 
L 186.622397 194.660156 
L 195.210437 194.660156 
L 195.210437 194.13347 
L 195.897095 194.13347 
L 195.897095 193.606784 
L 196.872973 193.606784 
L 196.872973 193.080098 
L 197.46584 193.080098 
L 197.502114 192.026726 
L 197.76146 192.026726 
L 197.78587 190.973354 
L 197.914864 190.973354 
L 197.914864 190.446667 
L 198.087229 190.446667 
L 198.087229 189.919981 
L 198.23049 189.919981 
L 198.23049 189.393295 
L 198.64799 189.393295 
L 198.687236 187.813237 
L 198.843341 187.813237 
L 198.887435 183.599748 
L 205.420608 183.599748 
L 205.420608 183.073062 
L 205.583351 183.073062 
L 205.673112 180.966318 
L 210.59522 180.966318 
L 210.59522 180.439632 
L 210.944569 180.439632 
L 210.944569 179.912946 
L 211.063279 179.912946 
L 211.063279 179.38626 
L 214.819613 179.38626 
L 214.819613 178.859574 
L 214.954742 178.859574 
L 214.954742 178.332888 
L 218.084569 178.332888 
L 218.084569 177.806202 
L 220.792504 177.806202 
L 220.860093 174.119399 
L 223.067375 174.119399 
L 223.17185 172.539341 
L 223.1841 172.539341 
L 223.19503 171.485969 
L 225.244224 171.485969 
L 225.244224 170.959282 
L 227.045885 170.959282 
L 227.095232 169.90591 
L 228.752607 169.90591 
L 228.752607 169.379224 
L 230.273333 169.379224 
L 230.273333 168.852538 
L 232.96681 168.852538 
L 232.96681 168.325852 
L 234.146437 168.325852 
L 234.146437 167.799166 
L 237.335127 167.799166 
L 237.335127 167.27248 
L 338.688 167.27248 
L 338.688 167.27248 
" style="fill:none;stroke:#6495ed;stroke-linecap:square;stroke-width:1.5;"/>
   </g>
   <g id="line2d_46">
    <defs>
     <path d="M -0 6 
L 6 -6 
L -6 -6 
z
" id="mb1e233392e" style="stroke:#6495ed;stroke-linejoin:miter;stroke-width:1.5;"/>
    </defs>
    <g>
     <use style="fill-opacity:0;stroke:#6495ed;stroke-linejoin:miter;stroke-width:1.5;" x="130.926816" xlink:href="#mb1e233392e" y="263.129347"/>
     <use style="fill-opacity:0;stroke:#6495ed;stroke-linejoin:miter;stroke-width:1.5;" x="181.177891" xlink:href="#mb1e233392e" y="212.040797"/>
     <use style="fill-opacity:0;stroke:#6495ed;stroke-linejoin:miter;stroke-width:1.5;" x="237.335127" xlink:href="#mb1e233392e" y="167.799166"/>
     <use style="fill-opacity:0;stroke:#6495ed;stroke-linejoin:miter;stroke-width:1.5;" x="237.335127" xlink:href="#mb1e233392e" y="167.27248"/>
     <use style="fill-opacity:0;stroke:#6495ed;stroke-linejoin:miter;stroke-width:1.5;" x="237.335127" xlink:href="#mb1e233392e" y="167.27248"/>
     <use style="fill-opacity:0;stroke:#6495ed;stroke-linejoin:miter;stroke-width:1.5;" x="338.688" xlink:href="#mb1e233392e" y="167.27248"/>
    </g>
   </g>
   <g id="line2d_47">
    <path style="fill:none;stroke:#6495ed;stroke-linecap:square;stroke-width:1.5;"/>
    <g/>
   </g>
   <g id="line2d_48">
    <path clip-path="url(#p8bbddabb5f)" d="M 186.974717 194.660156 
" style="fill:none;stroke:#6495ed;stroke-linecap:square;stroke-width:1.5;"/>
    <defs>
     <path d="M -12 12 
L 12 -12 
M -12 -12 
L 12 12 
" id="mbe3401419e" style="stroke:#6495ed;"/>
    </defs>
    <g clip-path="url(#p8bbddabb5f)">
     <use style="fill:#6495ed;stroke:#6495ed;" x="186.974717" xlink:href="#mbe3401419e" y="194.660156"/>
    </g>
   </g>
   <g id="line2d_49">
    <defs>
     <path d="M 0 1.5 
C 0.397805 1.5 0.77937 1.341951 1.06066 1.06066 
C 1.341951 0.77937 1.5 0.397805 1.5 0 
C 1.5 -0.397805 1.341951 -0.77937 1.06066 -1.06066 
C 0.77937 -1.341951 0.397805 -1.5 0 -1.5 
C -0.397805 -1.5 -0.77937 -1.341951 -1.06066 -1.06066 
C -1.341951 -0.77937 -1.5 -0.397805 -1.5 0 
C -1.5 0.397805 -1.341951 0.77937 -1.06066 1.06066 
C -0.77937 1.341951 -0.397805 1.5 0 1.5 
z
" id="m97d0c5443e" style="stroke:#ff0000;"/>
    </defs>
    <g>
     <use style="fill:#ff0000;stroke:#ff0000;" x="259.225018" xlink:href="#m97d0c5443e" y="35.60096"/>
     <use style="fill:#ff0000;stroke:#ff0000;" x="259.225018" xlink:href="#m97d0c5443e" y="35.60096"/>
    </g>
   </g>
   <g id="line2d_50">
    <path d="M 38.440992 298.944 
L 38.440992 295.257197 
L 50.52898 295.257197 
L 50.52898 293.677139 
L 57.6 293.677139 
L 57.6 291.570395 
L 62.616969 291.570395 
L 62.616969 291.043709 
L 66.508432 291.043709 
L 66.508432 290.517023 
L 69.687988 290.517023 
L 69.687988 286.83022 
L 76.759008 286.83022 
L 76.759008 286.303534 
L 80.258561 286.303534 
L 80.258561 283.670104 
L 81.775977 283.670104 
L 81.775977 283.143418 
L 84.464254 283.143418 
L 84.464254 282.090045 
L 85.66744 282.090045 
L 85.66744 281.036673 
L 86.792945 281.036673 
L 86.792945 280.509987 
L 87.850195 280.509987 
L 87.850195 279.456615 
L 91.535274 279.456615 
L 91.535274 278.929929 
L 93.863965 278.929929 
L 93.863965 275.769812 
L 97.16421 275.769812 
L 97.16421 275.243126 
L 98.32726 275.243126 
L 98.32726 274.189754 
L 104.033617 274.189754 
L 104.033617 273.136382 
L 104.826449 273.136382 
L 104.826449 272.08301 
L 112.026172 272.08301 
L 112.026172 271.556324 
L 114.641021 271.556324 
L 114.641021 270.502952 
L 114.860386 270.502952 
L 114.860386 269.976266 
L 116.121606 269.976266 
L 116.121606 268.922893 
L 117.107138 268.922893 
L 117.107138 268.396207 
L 117.857331 268.396207 
L 117.857331 267.342835 
L 119.43583 267.342835 
L 119.43583 266.816149 
L 119.768017 266.816149 
L 119.768017 265.762777 
L 121.036887 265.762777 
L 121.036887 265.236091 
L 122.920132 265.236091 
L 122.920132 264.709405 
L 123.056911 264.709405 
L 123.056911 263.656033 
L 123.192626 263.656033 
L 123.192626 263.129347 
L 123.327293 263.129347 
L 123.327293 261.549288 
L 126.948374 261.549288 
L 127.05703 259.442544 
L 129.290685 259.442544 
L 129.290685 258.915858 
L 129.667765 258.915858 
L 129.667765 258.389172 
L 131.355321 258.389172 
L 131.355321 257.3358 
L 131.690703 257.3358 
L 131.690703 256.282427 
L 132.019755 256.282427 
L 132.019755 255.755741 
L 133.04822 255.755741 
L 133.04822 255.229055 
L 133.72629 255.229055 
L 133.72629 254.702369 
L 134.091907 254.702369 
L 134.091907 254.175683 
L 135.00812 254.175683 
L 135.00812 253.648997 
L 135.415281 253.648997 
L 135.415281 253.122311 
L 137.968891 253.122311 
L 137.968891 252.595625 
L 140.549236 252.595625 
L 140.549236 251.542253 
L 140.846504 251.542253 
L 140.846504 251.015567 
L 142.441528 251.015567 
L 142.441528 250.488881 
L 142.796538 250.488881 
L 142.840411 249.435508 
L 143.44331 249.435508 
L 143.44331 248.908822 
L 144.107744 248.908822 
L 144.107744 248.382136 
L 144.708467 248.382136 
L 144.708467 247.85545 
L 145.136208 247.85545 
L 145.136208 246.802078 
L 147.96658 246.802078 
L 147.96658 246.275392 
L 149.104327 246.275392 
L 149.104327 245.748706 
L 149.407627 245.748706 
L 149.407627 245.22202 
L 150.287105 245.22202 
L 150.287105 244.695334 
L 151.871101 244.695334 
L 151.871101 244.168648 
L 153.913546 244.168648 
L 153.913546 243.641962 
L 154.303908 243.641962 
L 154.303908 242.588589 
L 154.57429 242.588589 
L 154.57429 242.061903 
L 154.840544 242.061903 
L 154.840544 241.535217 
L 155.12447 241.535217 
L 155.12447 240.481845 
L 155.253971 240.481845 
L 155.253971 239.955159 
L 155.55245 239.955159 
L 155.55245 239.428473 
L 156.195732 239.428473 
L 156.195732 238.901787 
L 157.050478 238.901787 
L 157.050478 238.375101 
L 157.566527 238.375101 
L 157.641697 236.795043 
L 158.177196 236.795043 
L 158.177196 236.268356 
L 159.439685 236.268356 
L 159.439685 235.74167 
L 159.608019 235.74167 
L 159.608019 235.214984 
L 161.146363 235.214984 
L 161.146363 234.688298 
L 161.359783 234.688298 
L 161.359783 234.161612 
L 163.280329 234.161612 
L 163.280329 233.634926 
L 163.482721 233.634926 
L 163.482721 233.10824 
L 164.725213 233.10824 
L 164.75018 232.054868 
L 165.059286 232.054868 
L 165.059286 231.528182 
L 165.471066 231.528182 
L 165.471066 231.001496 
L 165.896723 231.001496 
L 165.896723 230.47481 
L 166.128786 230.47481 
L 166.128786 229.948123 
L 166.346422 229.948123 
L 166.346422 229.421437 
L 166.471192 229.421437 
L 166.471192 228.894751 
L 166.784816 228.894751 
L 166.784816 228.368065 
L 167.212459 228.368065 
L 167.212459 227.841379 
L 167.808732 227.841379 
L 167.808732 227.314693 
L 168.666574 227.314693 
L 168.666574 226.788007 
L 168.992367 226.788007 
L 168.992367 226.261321 
L 169.379278 226.261321 
L 169.379278 225.734635 
L 169.851149 225.734635 
L 169.851149 225.207949 
L 170.346825 225.207949 
L 170.346825 224.681263 
L 170.65184 224.681263 
L 170.65184 224.154577 
L 170.916612 224.154577 
L 170.916612 223.627891 
L 171.168792 223.627891 
L 171.194673 222.574518 
L 171.895887 222.574518 
L 171.928978 220.99446 
L 172.199614 220.99446 
L 172.199614 220.467774 
L 172.474127 220.467774 
L 172.474127 219.941088 
L 172.862299 219.941088 
L 172.862299 219.414402 
L 173.072554 219.414402 
L 173.103489 218.36103 
L 173.740749 218.36103 
L 173.740749 217.307658 
L 174.584164 217.307658 
L 174.584164 216.780971 
L 174.725545 216.780971 
L 174.725545 216.254285 
L 175.279879 216.254285 
L 175.279879 215.727599 
L 175.55729 215.727599 
L 175.55729 215.200913 
L 175.942337 215.200913 
L 175.942337 214.674227 
L 176.073165 214.674227 
L 176.073165 214.147541 
L 176.319066 214.147541 
L 176.319066 213.620855 
L 177.696161 213.620855 
L 177.696161 213.094169 
L 177.867512 213.094169 
L 177.949635 212.040797 
L 178.280055 212.040797 
L 178.280055 210.987425 
L 178.716697 210.987425 
L 178.716697 210.460738 
L 178.977944 210.460738 
L 178.977944 209.934052 
L 179.153601 209.934052 
L 179.153601 209.407366 
L 180.254169 209.407366 
L 180.330916 208.353994 
L 180.609464 208.353994 
L 180.689668 207.300622 
L 180.853932 207.300622 
L 180.933022 205.720564 
L 181.138942 205.720564 
L 181.138942 204.667192 
L 181.303877 204.667192 
L 181.31353 203.613819 
L 181.756623 203.613819 
L 181.756623 203.087133 
L 182.26658 203.087133 
L 182.26658 202.033761 
L 182.8064 202.033761 
L 182.8064 201.507075 
L 183.026484 201.507075 
L 183.026484 200.980389 
L 183.411492 200.980389 
L 183.449956 199.927017 
L 183.594505 199.927017 
L 183.68319 197.820273 
L 183.796556 197.820273 
L 183.838356 196.240214 
L 183.963161 196.240214 
L 184.066487 194.660156 
L 184.469749 194.660156 
L 184.469749 194.13347 
L 184.598127 194.13347 
L 184.618101 193.080098 
L 184.969862 193.080098 
L 184.993323 192.026726 
L 185.452227 192.026726 
L 185.452227 191.50004 
L 185.573597 191.50004 
L 185.611353 190.446667 
L 185.716636 190.446667 
L 185.780249 188.866609 
L 185.839908 188.866609 
L 185.839908 188.339923 
L 186.028723 188.339923 
L 186.08754 186.233179 
L 186.317224 186.233179 
L 186.317224 185.706493 
L 186.493798 185.706493 
L 186.604592 184.126434 
L 186.76418 184.126434 
L 186.785349 182.546376 
L 186.946792 182.546376 
L 186.946792 182.01969 
L 188.598767 182.01969 
L 188.598767 180.966318 
L 189.305589 180.966318 
L 189.305589 180.439632 
L 189.596099 180.439632 
L 189.596099 179.912946 
L 189.937852 179.912946 
L 189.937852 179.38626 
L 190.547993 179.38626 
L 190.547993 178.859574 
L 190.669758 178.859574 
L 190.669758 178.332888 
L 191.00514 178.332888 
L 191.00514 177.279515 
L 191.230663 177.279515 
L 191.230663 176.226143 
L 191.434411 176.226143 
L 191.434411 175.699457 
L 191.989942 175.699457 
L 191.989942 175.172771 
L 192.293377 175.172771 
L 192.293377 174.646085 
L 192.659729 174.646085 
L 192.707498 173.592713 
L 192.820115 173.592713 
L 192.899758 169.90591 
L 193.114466 169.90591 
L 193.114466 168.325852 
L 194.272135 168.325852 
L 194.272135 167.799166 
L 194.798891 167.799166 
L 194.798891 167.27248 
L 195.064099 167.27248 
L 195.12759 165.692422 
L 195.251713 165.692422 
L 195.251713 165.165736 
L 195.372805 165.165736 
L 195.372805 164.63905 
L 195.518723 164.63905 
L 195.518723 164.112363 
L 195.792228 164.112363 
L 195.792228 163.585677 
L 196.2018 163.585677 
L 196.289935 160.425561 
L 196.387794 160.425561 
L 196.45678 157.79213 
L 196.971556 157.79213 
L 196.971556 157.265444 
L 197.18067 157.265444 
L 197.23498 154.105328 
L 197.389226 154.105328 
L 197.494484 150.945211 
L 197.621854 150.945211 
L 197.669144 149.365153 
L 197.855159 149.365153 
L 197.924174 147.258409 
L 198.089073 147.258409 
L 198.089073 146.731723 
L 198.376213 146.731723 
L 198.475696 143.04492 
L 198.506331 143.04492 
L 198.506331 141.991548 
L 198.737058 141.991548 
L 198.737058 141.464862 
L 198.878625 141.464862 
L 198.968279 139.884804 
L 200.412923 139.884804 
L 200.412923 139.358118 
L 200.940704 139.358118 
L 200.940704 138.831432 
L 201.344685 138.831432 
L 201.344685 138.304745 
L 201.548513 138.304745 
L 201.548513 137.778059 
L 201.983117 137.778059 
L 201.983117 137.251373 
L 202.13585 137.251373 
L 202.229178 135.671315 
L 202.395633 135.671315 
L 202.401395 134.617943 
L 202.863248 134.617943 
L 202.922051 133.564571 
L 203.033511 133.564571 
L 203.033511 133.037885 
L 203.170464 133.037885 
L 203.250203 131.984513 
L 203.6113 131.984513 
L 203.687714 130.93114 
L 204.187464 130.93114 
L 204.279513 128.824396 
L 204.335025 128.824396 
L 204.396784 126.190966 
L 204.70108 126.190966 
L 204.767847 124.610907 
L 204.901866 124.610907 
L 204.901866 123.557535 
L 205.024954 123.557535 
L 205.104066 120.924105 
L 205.186504 120.924105 
L 205.217165 117.763988 
L 205.338055 117.763988 
L 205.338055 117.237302 
L 205.526865 117.237302 
L 205.526865 116.18393 
L 205.67908 116.18393 
L 205.74459 114.077186 
L 205.824061 114.077186 
L 205.917304 111.443755 
L 206.017075 111.443755 
L 206.017075 110.917069 
L 207.045384 110.917069 
L 207.045384 110.390383 
L 207.178387 110.390383 
L 207.178387 109.337011 
L 207.292987 109.337011 
L 207.292987 108.810325 
L 207.97044 108.810325 
L 207.97044 108.283639 
L 208.340059 108.283639 
L 208.42896 106.176895 
L 208.574106 106.176895 
L 208.574106 105.650209 
L 208.878713 105.650209 
L 208.976773 104.07015 
L 209.148774 104.07015 
L 209.252138 103.016778 
L 209.267687 103.016778 
L 209.271572 101.43672 
L 209.468574 101.43672 
L 209.468574 100.910034 
L 209.697527 100.910034 
L 209.763742 99.329976 
L 209.819358 99.329976 
L 209.898235 98.276603 
L 210.087394 98.276603 
L 210.087394 97.749917 
L 210.36506 97.749917 
L 210.467829 95.643173 
L 210.590718 95.643173 
L 210.69754 94.063115 
L 210.782351 94.063115 
L 210.859659 93.009743 
L 210.918963 93.009743 
L 211.023799 91.429684 
L 211.063279 91.429684 
L 211.103545 90.376312 
L 211.967478 90.376312 
L 211.967478 89.849626 
L 212.446758 89.849626 
L 212.446758 89.32294 
L 212.899814 89.32294 
L 212.899814 88.796254 
L 213.248869 88.796254 
L 213.248869 87.742882 
L 213.459428 87.742882 
L 213.459428 87.216196 
L 213.682564 87.216196 
L 213.74805 86.162824 
L 213.806554 86.162824 
L 213.806554 85.636137 
L 213.97793 85.636137 
L 214.020883 84.056079 
L 214.284413 84.056079 
L 214.391906 82.476021 
L 214.416507 82.476021 
L 214.498021 79.842591 
L 214.572708 79.842591 
L 214.592045 78.262532 
L 214.748107 78.262532 
L 214.857019 76.682474 
L 214.868296 76.682474 
L 214.947029 74.57573 
L 215.004448 74.57573 
L 215.004448 74.049044 
L 216.399152 74.049044 
L 216.452634 72.995672 
L 216.839482 72.995672 
L 216.912951 71.942299 
L 217.266512 71.942299 
L 217.374859 70.888927 
L 217.676139 70.888927 
L 217.769455 69.308869 
L 217.831389 69.308869 
L 217.920923 68.255497 
L 218.067569 68.255497 
L 218.16057 64.568694 
L 218.190295 64.568694 
L 218.217063 62.988636 
L 219.932933 62.988636 
L 219.932933 62.46195 
L 220.139336 62.46195 
L 220.139336 61.935264 
L 220.589673 61.935264 
L 220.589673 61.408578 
L 220.717096 61.408578 
L 220.752327 59.82852 
L 220.837593 59.82852 
L 220.837593 59.301833 
L 221.760857 59.301833 
L 221.853619 58.248461 
L 222.139665 58.248461 
L 222.139665 57.721775 
L 222.361137 57.721775 
L 222.361137 56.668403 
L 222.73893 56.668403 
L 222.791344 55.615031 
L 222.944544 55.615031 
L 222.958727 54.561659 
L 223.070017 54.561659 
L 223.157839 53.508287 
L 223.215124 53.508287 
L 223.215124 52.9816 
L 224.135163 52.9816 
L 224.135163 52.454914 
L 224.278279 52.454914 
L 224.278279 51.928228 
L 224.417379 51.928228 
L 224.431228 50.874856 
L 224.934481 50.874856 
L 224.934481 50.34817 
L 225.146407 50.34817 
L 225.239949 49.294798 
L 225.289634 49.294798 
L 225.289634 48.768112 
L 226.09037 48.768112 
L 226.091851 47.71474 
L 226.211747 47.71474 
L 226.211747 47.188054 
L 226.523285 47.188054 
L 226.594284 46.134681 
L 227.095232 46.134681 
L 227.095232 45.607995 
L 228.130842 45.607995 
L 228.183784 44.554623 
L 228.277763 44.554623 
L 228.31984 42.974565 
L 228.775156 42.974565 
L 228.775156 42.447879 
L 231.104284 42.447879 
L 231.104284 41.921193 
L 232.481427 41.921193 
L 232.481427 41.394507 
L 232.59882 41.394507 
L 232.59882 40.867821 
L 234.188605 40.867821 
L 234.188605 40.341135 
L 235.250645 40.341135 
L 235.250645 39.814448 
L 237.361335 39.814448 
L 237.370256 38.761076 
L 240.871712 38.761076 
L 240.871712 38.23439 
L 246.821787 38.23439 
L 246.854909 36.654332 
L 250.859769 36.654332 
L 250.859769 36.127646 
L 259.225018 36.127646 
L 259.225018 35.60096 
L 338.688 35.60096 
L 338.688 35.60096 
" style="fill:none;stroke:#ff0000;stroke-linecap:square;stroke-width:1.5;"/>
   </g>
   <g id="line2d_51">
    <defs>
     <path d="M 0 -6 
L -5.196152 -3 
L -5.196152 3 
L -0 6 
L 5.196152 3 
L 5.196152 -3 
z
" id="m8d4a5f8886" style="stroke:#ff0000;stroke-linejoin:miter;stroke-width:1.5;"/>
    </defs>
    <g>
     <use style="fill-opacity:0;stroke:#ff0000;stroke-linejoin:miter;stroke-width:1.5;" x="129.667765" xlink:href="#m8d4a5f8886" y="258.915858"/>
     <use style="fill-opacity:0;stroke:#ff0000;stroke-linejoin:miter;stroke-width:1.5;" x="186.317224" xlink:href="#m8d4a5f8886" y="185.706493"/>
     <use style="fill-opacity:0;stroke:#ff0000;stroke-linejoin:miter;stroke-width:1.5;" x="217.676139" xlink:href="#m8d4a5f8886" y="70.888927"/>
     <use style="fill-opacity:0;stroke:#ff0000;stroke-linejoin:miter;stroke-width:1.5;" x="259.225018" xlink:href="#m8d4a5f8886" y="35.60096"/>
     <use style="fill-opacity:0;stroke:#ff0000;stroke-linejoin:miter;stroke-width:1.5;" x="259.225018" xlink:href="#m8d4a5f8886" y="35.60096"/>
     <use style="fill-opacity:0;stroke:#ff0000;stroke-linejoin:miter;stroke-width:1.5;" x="338.688" xlink:href="#m8d4a5f8886" y="35.60096"/>
    </g>
   </g>
   <g id="line2d_52">
    <path style="fill:none;stroke:#ff0000;stroke-linecap:square;stroke-width:1.5;"/>
    <g/>
   </g>
   <g id="line2d_53">
    <path clip-path="url(#p8bbddabb5f)" d="M 186.974717 182.01969 
" style="fill:none;stroke:#ff0000;stroke-linecap:square;stroke-width:1.5;"/>
    <defs>
     <path d="M -12 12 
L 12 -12 
M -12 -12 
L 12 12 
" id="m46b580457b" style="stroke:#ff0000;"/>
    </defs>
    <g clip-path="url(#p8bbddabb5f)">
     <use style="fill:#ff0000;stroke:#ff0000;" x="186.974717" xlink:href="#m46b580457b" y="182.01969"/>
    </g>
   </g>
   <g id="line2d_54">
    <path d="M 338.688 241.008531 
L 369.60768 293.571802 
" style="fill:none;stroke:#000080;stroke-linecap:square;stroke-width:1.5;"/>
    <g>
     <use style="fill-opacity:0;stroke:#000080;stroke-width:1.5;" x="338.688" xlink:href="#m323ebd96fd" y="241.008531"/>
     <use style="fill-opacity:0;stroke:#000080;stroke-width:1.5;" x="369.60768" xlink:href="#m323ebd96fd" y="293.571802"/>
    </g>
   </g>
   <g id="line2d_55">
    <path d="M 338.688 167.27248 
L 369.60768 229.105426 
" style="fill:none;stroke:#6495ed;stroke-linecap:square;stroke-width:1.5;"/>
    <g>
     <use style="fill-opacity:0;stroke:#6495ed;stroke-linejoin:miter;stroke-width:1.5;" x="338.688" xlink:href="#mb1e233392e" y="167.27248"/>
     <use style="fill-opacity:0;stroke:#6495ed;stroke-linejoin:miter;stroke-width:1.5;" x="369.60768" xlink:href="#mb1e233392e" y="229.105426"/>
    </g>
   </g>
   <g id="line2d_56">
    <path d="M 338.688 72.468985 
L 369.60768 164.63905 
" style="fill:none;stroke:#ff7500;stroke-linecap:square;stroke-width:1.5;"/>
    <g>
     <use style="fill-opacity:0;stroke:#ff7500;stroke-linejoin:bevel;stroke-width:1.5;" x="338.688" xlink:href="#m0e2a0c7975" y="72.468985"/>
     <use style="fill-opacity:0;stroke:#ff7500;stroke-linejoin:bevel;stroke-width:1.5;" x="369.60768" xlink:href="#m0e2a0c7975" y="164.63905"/>
    </g>
   </g>
   <g id="line2d_57">
    <path d="M 338.688 35.60096 
L 369.60768 100.172673 
" style="fill:none;stroke:#ff0000;stroke-linecap:square;stroke-width:1.5;"/>
    <g>
     <use style="fill-opacity:0;stroke:#ff0000;stroke-linejoin:miter;stroke-width:1.5;" x="338.688" xlink:href="#m8d4a5f8886" y="35.60096"/>
     <use style="fill-opacity:0;stroke:#ff0000;stroke-linejoin:miter;stroke-width:1.5;" x="369.60768" xlink:href="#m8d4a5f8886" y="100.172673"/>
    </g>
   </g>
   <g id="line2d_58">
    <path d="M 338.688 298.944 
L 338.688 30.334099 
" style="fill:none;stroke:#000000;stroke-linecap:square;stroke-width:1.5;"/>
   </g>
   <g id="patch_3">
    <path d="M 57.6 298.944 
L 57.6 27.648 
" style="fill:none;stroke:#000000;stroke-linecap:square;stroke-linejoin:miter;stroke-width:0.8;"/>
   </g>
   <g id="patch_4">
    <path d="M 338.688 298.944 
L 338.688 27.648 
" style="fill:none;stroke:#000000;stroke-linecap:square;stroke-linejoin:miter;stroke-width:0.8;"/>
   </g>
   <g id="patch_5">
    <path d="M 57.6 298.944 
L 338.688 298.944 
" style="fill:none;stroke:#000000;stroke-linecap:square;stroke-linejoin:miter;stroke-width:0.8;"/>
   </g>
   <g id="patch_6">
    <path d="M 57.6 27.648 
L 338.688 27.648 
" style="fill:none;stroke:#000000;stroke-linecap:square;stroke-linejoin:miter;stroke-width:0.8;"/>
   </g>
   <g id="text_13">
    <!-- ABC -->
    <defs>
     <path d="M 34.1875 63.1875 
L 20.796875 26.90625 
L 47.609375 26.90625 
z
M 28.609375 72.90625 
L 39.796875 72.90625 
L 67.578125 0 
L 57.328125 0 
L 50.6875 18.703125 
L 17.828125 18.703125 
L 11.1875 0 
L 0.78125 0 
z
" id="DejaVuSans-65"/>
     <path d="M 19.671875 34.8125 
L 19.671875 8.109375 
L 35.5 8.109375 
Q 43.453125 8.109375 47.28125 11.40625 
Q 51.125 14.703125 51.125 21.484375 
Q 51.125 28.328125 47.28125 31.5625 
Q 43.453125 34.8125 35.5 34.8125 
z
M 19.671875 64.796875 
L 19.671875 42.828125 
L 34.28125 42.828125 
Q 41.5 42.828125 45.03125 45.53125 
Q 48.578125 48.25 48.578125 53.8125 
Q 48.578125 59.328125 45.03125 62.0625 
Q 41.5 64.796875 34.28125 64.796875 
z
M 9.8125 72.90625 
L 35.015625 72.90625 
Q 46.296875 72.90625 52.390625 68.21875 
Q 58.5 63.53125 58.5 54.890625 
Q 58.5 48.1875 55.375 44.234375 
Q 52.25 40.28125 46.1875 39.3125 
Q 53.46875 37.75 57.5 32.78125 
Q 61.53125 27.828125 61.53125 20.40625 
Q 61.53125 10.640625 54.890625 5.3125 
Q 48.25 0 35.984375 0 
L 9.8125 0 
z
" id="DejaVuSans-66"/>
     <path d="M 64.40625 67.28125 
L 64.40625 56.890625 
Q 59.421875 61.53125 53.78125 63.8125 
Q 48.140625 66.109375 41.796875 66.109375 
Q 29.296875 66.109375 22.65625 58.46875 
Q 16.015625 50.828125 16.015625 36.375 
Q 16.015625 21.96875 22.65625 14.328125 
Q 29.296875 6.6875 41.796875 6.6875 
Q 48.140625 6.6875 53.78125 8.984375 
Q 59.421875 11.28125 64.40625 15.921875 
L 64.40625 5.609375 
Q 59.234375 2.09375 53.4375 0.328125 
Q 47.65625 -1.421875 41.21875 -1.421875 
Q 24.65625 -1.421875 15.125 8.703125 
Q 5.609375 18.84375 5.609375 36.375 
Q 5.609375 53.953125 15.125 64.078125 
Q 24.65625 74.21875 41.21875 74.21875 
Q 47.75 74.21875 53.53125 72.484375 
Q 59.328125 70.75 64.40625 67.28125 
z
" id="DejaVuSans-67"/>
    </defs>
    <g transform="translate(375.22944 298.262739)scale(0.17 -0.17)">
     <use xlink:href="#DejaVuSans-65"/>
     <use x="68.408203" xlink:href="#DejaVuSans-66"/>
     <use x="135.261719" xlink:href="#DejaVuSans-67"/>
    </g>
   </g>
   <g id="text_14">
    <!-- DEPSO -->
    <defs>
     <path d="M 19.671875 64.796875 
L 19.671875 8.109375 
L 31.59375 8.109375 
Q 46.6875 8.109375 53.6875 14.9375 
Q 60.6875 21.78125 60.6875 36.53125 
Q 60.6875 51.171875 53.6875 57.984375 
Q 46.6875 64.796875 31.59375 64.796875 
z
M 9.8125 72.90625 
L 30.078125 72.90625 
Q 51.265625 72.90625 61.171875 64.09375 
Q 71.09375 55.28125 71.09375 36.53125 
Q 71.09375 17.671875 61.125 8.828125 
Q 51.171875 0 30.078125 0 
L 9.8125 0 
z
" id="DejaVuSans-68"/>
     <path d="M 9.8125 72.90625 
L 55.90625 72.90625 
L 55.90625 64.59375 
L 19.671875 64.59375 
L 19.671875 43.015625 
L 54.390625 43.015625 
L 54.390625 34.71875 
L 19.671875 34.71875 
L 19.671875 8.296875 
L 56.78125 8.296875 
L 56.78125 0 
L 9.8125 0 
z
" id="DejaVuSans-69"/>
     <path d="M 19.671875 64.796875 
L 19.671875 37.40625 
L 32.078125 37.40625 
Q 38.96875 37.40625 42.71875 40.96875 
Q 46.484375 44.53125 46.484375 51.125 
Q 46.484375 57.671875 42.71875 61.234375 
Q 38.96875 64.796875 32.078125 64.796875 
z
M 9.8125 72.90625 
L 32.078125 72.90625 
Q 44.34375 72.90625 50.609375 67.359375 
Q 56.890625 61.8125 56.890625 51.125 
Q 56.890625 40.328125 50.609375 34.8125 
Q 44.34375 29.296875 32.078125 29.296875 
L 19.671875 29.296875 
L 19.671875 0 
L 9.8125 0 
z
" id="DejaVuSans-80"/>
     <path d="M 53.515625 70.515625 
L 53.515625 60.890625 
Q 47.90625 63.578125 42.921875 64.890625 
Q 37.9375 66.21875 33.296875 66.21875 
Q 25.25 66.21875 20.875 63.09375 
Q 16.5 59.96875 16.5 54.203125 
Q 16.5 49.359375 19.40625 46.890625 
Q 22.3125 44.4375 30.421875 42.921875 
L 36.375 41.703125 
Q 47.40625 39.59375 52.65625 34.296875 
Q 57.90625 29 57.90625 20.125 
Q 57.90625 9.515625 50.796875 4.046875 
Q 43.703125 -1.421875 29.984375 -1.421875 
Q 24.8125 -1.421875 18.96875 -0.25 
Q 13.140625 0.921875 6.890625 3.21875 
L 6.890625 13.375 
Q 12.890625 10.015625 18.65625 8.296875 
Q 24.421875 6.59375 29.984375 6.59375 
Q 38.421875 6.59375 43.015625 9.90625 
Q 47.609375 13.234375 47.609375 19.390625 
Q 47.609375 24.75 44.3125 27.78125 
Q 41.015625 30.8125 33.5 32.328125 
L 27.484375 33.5 
Q 16.453125 35.6875 11.515625 40.375 
Q 6.59375 45.0625 6.59375 53.421875 
Q 6.59375 63.09375 13.40625 68.65625 
Q 20.21875 74.21875 32.171875 74.21875 
Q 37.3125 74.21875 42.625 73.28125 
Q 47.953125 72.359375 53.515625 70.515625 
z
" id="DejaVuSans-83"/>
     <path d="M 39.40625 66.21875 
Q 28.65625 66.21875 22.328125 58.203125 
Q 16.015625 50.203125 16.015625 36.375 
Q 16.015625 22.609375 22.328125 14.59375 
Q 28.65625 6.59375 39.40625 6.59375 
Q 50.140625 6.59375 56.421875 14.59375 
Q 62.703125 22.609375 62.703125 36.375 
Q 62.703125 50.203125 56.421875 58.203125 
Q 50.140625 66.21875 39.40625 66.21875 
z
M 39.40625 74.21875 
Q 54.734375 74.21875 63.90625 63.9375 
Q 73.09375 53.65625 73.09375 36.375 
Q 73.09375 19.140625 63.90625 8.859375 
Q 54.734375 -1.421875 39.40625 -1.421875 
Q 24.03125 -1.421875 14.8125 8.828125 
Q 5.609375 19.09375 5.609375 36.375 
Q 5.609375 53.65625 14.8125 63.9375 
Q 24.03125 74.21875 39.40625 74.21875 
z
" id="DejaVuSans-79"/>
    </defs>
    <g transform="translate(375.22944 233.796363)scale(0.17 -0.17)">
     <use xlink:href="#DejaVuSans-68"/>
     <use x="77.001953" xlink:href="#DejaVuSans-69"/>
     <use x="140.185547" xlink:href="#DejaVuSans-80"/>
     <use x="200.488281" xlink:href="#DejaVuSans-83"/>
     <use x="263.964844" xlink:href="#DejaVuSans-79"/>
    </g>
   </g>
   <g id="text_15">
    <!-- DE -->
    <g transform="translate(375.22944 169.329987)scale(0.17 -0.17)">
     <use xlink:href="#DejaVuSans-68"/>
     <use x="77.001953" xlink:href="#DejaVuSans-69"/>
    </g>
   </g>
   <g id="text_16">
    <!-- PSO -->
    <g transform="translate(375.22944 104.863611)scale(0.17 -0.17)">
     <use xlink:href="#DejaVuSans-80"/>
     <use x="60.302734" xlink:href="#DejaVuSans-83"/>
     <use x="123.779297" xlink:href="#DejaVuSans-79"/>
    </g>
   </g>
   <g id="text_17">
    <!-- best 2009 -->
    <defs>
     <path d="M 48.6875 27.296875 
Q 48.6875 37.203125 44.609375 42.84375 
Q 40.53125 48.484375 33.40625 48.484375 
Q 26.265625 48.484375 22.1875 42.84375 
Q 18.109375 37.203125 18.109375 27.296875 
Q 18.109375 17.390625 22.1875 11.75 
Q 26.265625 6.109375 33.40625 6.109375 
Q 40.53125 6.109375 44.609375 11.75 
Q 48.6875 17.390625 48.6875 27.296875 
z
M 18.109375 46.390625 
Q 20.953125 51.265625 25.265625 53.625 
Q 29.59375 56 35.59375 56 
Q 45.5625 56 51.78125 48.09375 
Q 58.015625 40.1875 58.015625 27.296875 
Q 58.015625 14.40625 51.78125 6.484375 
Q 45.5625 -1.421875 35.59375 -1.421875 
Q 29.59375 -1.421875 25.265625 0.953125 
Q 20.953125 3.328125 18.109375 8.203125 
L 18.109375 0 
L 9.078125 0 
L 9.078125 75.984375 
L 18.109375 75.984375 
z
" id="DejaVuSans-98"/>
     <path d="M 10.984375 1.515625 
L 10.984375 10.5 
Q 14.703125 8.734375 18.5 7.8125 
Q 22.3125 6.890625 25.984375 6.890625 
Q 35.75 6.890625 40.890625 13.453125 
Q 46.046875 20.015625 46.78125 33.40625 
Q 43.953125 29.203125 39.59375 26.953125 
Q 35.25 24.703125 29.984375 24.703125 
Q 19.046875 24.703125 12.671875 31.3125 
Q 6.296875 37.9375 6.296875 49.421875 
Q 6.296875 60.640625 12.9375 67.421875 
Q 19.578125 74.21875 30.609375 74.21875 
Q 43.265625 74.21875 49.921875 64.515625 
Q 56.59375 54.828125 56.59375 36.375 
Q 56.59375 19.140625 48.40625 8.859375 
Q 40.234375 -1.421875 26.421875 -1.421875 
Q 22.703125 -1.421875 18.890625 -0.6875 
Q 15.09375 0.046875 10.984375 1.515625 
z
M 30.609375 32.421875 
Q 37.25 32.421875 41.125 36.953125 
Q 45.015625 41.5 45.015625 49.421875 
Q 45.015625 57.28125 41.125 61.84375 
Q 37.25 66.40625 30.609375 66.40625 
Q 23.96875 66.40625 20.09375 61.84375 
Q 16.21875 57.28125 16.21875 49.421875 
Q 16.21875 41.5 20.09375 36.953125 
Q 23.96875 32.421875 30.609375 32.421875 
z
" id="DejaVuSans-57"/>
    </defs>
    <g transform="translate(375.22944 40.397235)scale(0.17 -0.17)">
     <use xlink:href="#DejaVuSans-98"/>
     <use x="63.476562" xlink:href="#DejaVuSans-101"/>
     <use x="125" xlink:href="#DejaVuSans-115"/>
     <use x="177.099609" xlink:href="#DejaVuSans-116"/>
     <use x="216.308594" xlink:href="#DejaVuSans-32"/>
     <use x="248.095703" xlink:href="#DejaVuSans-50"/>
     <use x="311.71875" xlink:href="#DejaVuSans-48"/>
     <use x="375.341797" xlink:href="#DejaVuSans-48"/>
     <use x="438.964844" xlink:href="#DejaVuSans-57"/>
    </g>
   </g>
   <g id="text_18">
    <!-- bbob f18, 3-D -->
    <defs>
     <path d="M 40.578125 39.3125 
Q 47.65625 37.796875 51.625 33 
Q 55.609375 28.21875 55.609375 21.1875 
Q 55.609375 10.40625 48.1875 4.484375 
Q 40.765625 -1.421875 27.09375 -1.421875 
Q 22.515625 -1.421875 17.65625 -0.515625 
Q 12.796875 0.390625 7.625 2.203125 
L 7.625 11.71875 
Q 11.71875 9.328125 16.59375 8.109375 
Q 21.484375 6.890625 26.8125 6.890625 
Q 36.078125 6.890625 40.9375 10.546875 
Q 45.796875 14.203125 45.796875 21.1875 
Q 45.796875 27.640625 41.28125 31.265625 
Q 36.765625 34.90625 28.71875 34.90625 
L 20.21875 34.90625 
L 20.21875 43.015625 
L 29.109375 43.015625 
Q 36.375 43.015625 40.234375 45.921875 
Q 44.09375 48.828125 44.09375 54.296875 
Q 44.09375 59.90625 40.109375 62.90625 
Q 36.140625 65.921875 28.71875 65.921875 
Q 24.65625 65.921875 20.015625 65.03125 
Q 15.375 64.15625 9.8125 62.3125 
L 9.8125 71.09375 
Q 15.4375 72.65625 20.34375 73.4375 
Q 25.25 74.21875 29.59375 74.21875 
Q 40.828125 74.21875 47.359375 69.109375 
Q 53.90625 64.015625 53.90625 55.328125 
Q 53.90625 49.265625 50.4375 45.09375 
Q 46.96875 40.921875 40.578125 39.3125 
z
" id="DejaVuSans-51"/>
    </defs>
    <g transform="translate(60.41088 38.111366)scale(0.102 -0.102)">
     <use xlink:href="#DejaVuSans-98"/>
     <use x="63.476562" xlink:href="#DejaVuSans-98"/>
     <use x="126.953125" xlink:href="#DejaVuSans-111"/>
     <use x="188.134766" xlink:href="#DejaVuSans-98"/>
     <use x="251.611328" xlink:href="#DejaVuSans-32"/>
     <use x="283.398438" xlink:href="#DejaVuSans-102"/>
     <use x="318.603516" xlink:href="#DejaVuSans-49"/>
     <use x="382.226562" xlink:href="#DejaVuSans-56"/>
     <use x="445.849609" xlink:href="#DejaVuSans-44"/>
     <use x="477.636719" xlink:href="#DejaVuSans-32"/>
     <use x="509.423828" xlink:href="#DejaVuSans-51"/>
     <use x="573.046875" xlink:href="#DejaVuSans-45"/>
     <use x="609.130859" xlink:href="#DejaVuSans-68"/>
    </g>
    <!-- 51 targets: 100..1e-08 -->
    <defs>
     <path d="M 10.796875 72.90625 
L 49.515625 72.90625 
L 49.515625 64.59375 
L 19.828125 64.59375 
L 19.828125 46.734375 
Q 21.96875 47.46875 24.109375 47.828125 
Q 26.265625 48.1875 28.421875 48.1875 
Q 40.625 48.1875 47.75 41.5 
Q 54.890625 34.8125 54.890625 23.390625 
Q 54.890625 11.625 47.5625 5.09375 
Q 40.234375 -1.421875 26.90625 -1.421875 
Q 22.3125 -1.421875 17.546875 -0.640625 
Q 12.796875 0.140625 7.71875 1.703125 
L 7.71875 11.625 
Q 12.109375 9.234375 16.796875 8.0625 
Q 21.484375 6.890625 26.703125 6.890625 
Q 35.15625 6.890625 40.078125 11.328125 
Q 45.015625 15.765625 45.015625 23.390625 
Q 45.015625 31 40.078125 35.4375 
Q 35.15625 39.890625 26.703125 39.890625 
Q 22.75 39.890625 18.8125 39.015625 
Q 14.890625 38.140625 10.796875 36.28125 
z
" id="DejaVuSans-53"/>
     <path d="M 11.71875 12.40625 
L 22.015625 12.40625 
L 22.015625 0 
L 11.71875 0 
z
M 11.71875 51.703125 
L 22.015625 51.703125 
L 22.015625 39.3125 
L 11.71875 39.3125 
z
" id="DejaVuSans-58"/>
    </defs>
    <g transform="translate(60.41088 49.533135)scale(0.102 -0.102)">
     <use xlink:href="#DejaVuSans-53"/>
     <use x="63.623047" xlink:href="#DejaVuSans-49"/>
     <use x="127.246094" xlink:href="#DejaVuSans-32"/>
     <use x="159.033203" xlink:href="#DejaVuSans-116"/>
     <use x="198.242188" xlink:href="#DejaVuSans-97"/>
     <use x="259.521484" xlink:href="#DejaVuSans-114"/>
     <use x="298.884766" xlink:href="#DejaVuSans-103"/>
     <use x="362.361328" xlink:href="#DejaVuSans-101"/>
     <use x="423.884766" xlink:href="#DejaVuSans-116"/>
     <use x="463.09375" xlink:href="#DejaVuSans-115"/>
     <use x="515.193359" xlink:href="#DejaVuSans-58"/>
     <use x="548.884766" xlink:href="#DejaVuSans-32"/>
     <use x="580.671875" xlink:href="#DejaVuSans-49"/>
     <use x="644.294922" xlink:href="#DejaVuSans-48"/>
     <use x="707.917969" xlink:href="#DejaVuSans-48"/>
     <use x="771.541016" xlink:href="#DejaVuSans-46"/>
     <use x="803.328125" xlink:href="#DejaVuSans-46"/>
     <use x="835.115234" xlink:href="#DejaVuSans-49"/>
     <use x="898.738281" xlink:href="#DejaVuSans-101"/>
     <use x="960.261719" xlink:href="#DejaVuSans-45"/>
     <use x="996.345703" xlink:href="#DejaVuSans-48"/>
     <use x="1059.96875" xlink:href="#DejaVuSans-56"/>
    </g>
    <!-- 15 instances -->
    <g transform="translate(60.41088 60.954904)scale(0.102 -0.102)">
     <use xlink:href="#DejaVuSans-49"/>
     <use x="63.623047" xlink:href="#DejaVuSans-53"/>
     <use x="127.246094" xlink:href="#DejaVuSans-32"/>
     <use x="159.033203" xlink:href="#DejaVuSans-105"/>
     <use x="186.816406" xlink:href="#DejaVuSans-110"/>
     <use x="250.195312" xlink:href="#DejaVuSans-115"/>
     <use x="302.294922" xlink:href="#DejaVuSans-116"/>
     <use x="341.503906" xlink:href="#DejaVuSans-97"/>
     <use x="402.783203" xlink:href="#DejaVuSans-110"/>
     <use x="466.162109" xlink:href="#DejaVuSans-99"/>
     <use x="521.142578" xlink:href="#DejaVuSans-101"/>
     <use x="582.666016" xlink:href="#DejaVuSans-115"/>
    </g>
   </g>
   <g id="text_19">
    <!-- v2.4 -->
    <g style="fill:#808080;" transform="translate(187.233062 294.151352)scale(0.1 -0.1)">
     <use xlink:href="#DejaVuSans-118"/>
     <use x="59.179688" xlink:href="#DejaVuSans-50"/>
     <use x="122.802734" xlink:href="#DejaVuSans-46"/>
     <use x="154.589844" xlink:href="#DejaVuSans-52"/>
    </g>
   </g>
   <g id="text_20">
    <!-- 18 Schaffer F7, condition 1000 -->
    <defs>
     <path d="M 54.890625 33.015625 
L 54.890625 0 
L 45.90625 0 
L 45.90625 32.71875 
Q 45.90625 40.484375 42.875 44.328125 
Q 39.84375 48.1875 33.796875 48.1875 
Q 26.515625 48.1875 22.3125 43.546875 
Q 18.109375 38.921875 18.109375 30.90625 
L 18.109375 0 
L 9.078125 0 
L 9.078125 75.984375 
L 18.109375 75.984375 
L 18.109375 46.1875 
Q 21.34375 51.125 25.703125 53.5625 
Q 30.078125 56 35.796875 56 
Q 45.21875 56 50.046875 50.171875 
Q 54.890625 44.34375 54.890625 33.015625 
z
" id="DejaVuSans-104"/>
     <path d="M 8.203125 72.90625 
L 55.078125 72.90625 
L 55.078125 68.703125 
L 28.609375 0 
L 18.3125 0 
L 43.21875 64.59375 
L 8.203125 64.59375 
z
" id="DejaVuSans-55"/>
    </defs>
    <g transform="translate(44.111187 21.648)scale(0.2 -0.2)">
     <use xlink:href="#DejaVuSans-49"/>
     <use x="63.623047" xlink:href="#DejaVuSans-56"/>
     <use x="127.246094" xlink:href="#DejaVuSans-32"/>
     <use x="159.033203" xlink:href="#DejaVuSans-83"/>
     <use x="222.509766" xlink:href="#DejaVuSans-99"/>
     <use x="277.490234" xlink:href="#DejaVuSans-104"/>
     <use x="340.869141" xlink:href="#DejaVuSans-97"/>
     <use x="402.148438" xlink:href="#DejaVuSans-102"/>
     <use x="437.353516" xlink:href="#DejaVuSans-102"/>
     <use x="472.558594" xlink:href="#DejaVuSans-101"/>
     <use x="534.082031" xlink:href="#DejaVuSans-114"/>
     <use x="575.195312" xlink:href="#DejaVuSans-32"/>
     <use x="606.982422" xlink:href="#DejaVuSans-70"/>
     <use x="664.501953" xlink:href="#DejaVuSans-55"/>
     <use x="728.125" xlink:href="#DejaVuSans-44"/>
     <use x="759.912109" xlink:href="#DejaVuSans-32"/>
     <use x="791.699219" xlink:href="#DejaVuSans-99"/>
     <use x="846.679688" xlink:href="#DejaVuSans-111"/>
     <use x="907.861328" xlink:href="#DejaVuSans-110"/>
     <use x="971.240234" xlink:href="#DejaVuSans-100"/>
     <use x="1034.716797" xlink:href="#DejaVuSans-105"/>
     <use x="1062.5" xlink:href="#DejaVuSans-116"/>
     <use x="1101.708984" xlink:href="#DejaVuSans-105"/>
     <use x="1129.492188" xlink:href="#DejaVuSans-111"/>
     <use x="1190.673828" xlink:href="#DejaVuSans-110"/>
     <use x="1254.052734" xlink:href="#DejaVuSans-32"/>
     <use x="1285.839844" xlink:href="#DejaVuSans-49"/>
     <use x="1349.462891" xlink:href="#DejaVuSans-48"/>
     <use x="1413.085938" xlink:href="#DejaVuSans-48"/>
     <use x="1476.708984" xlink:href="#DejaVuSans-48"/>
    </g>
   </g>
  </g>
 </g>
 <defs>
  <clipPath id="p8bbddabb5f">
   <rect height="271.296" width="281.088" x="57.6" y="27.648"/>
  </clipPath>
 </defs>
</svg>
