<?xml version="1.0" encoding="utf-8" standalone="no"?>
<!DOCTYPE svg PUBLIC "-//W3C//DTD SVG 1.1//EN"
  "http://www.w3.org/Graphics/SVG/1.1/DTD/svg11.dtd">
<!-- Created with matplotlib (https://matplotlib.org/) -->
<svg height="345.6pt" version="1.1" viewBox="0 0 460.8 345.6" width="460.8pt" xmlns="http://www.w3.org/2000/svg" xmlns:xlink="http://www.w3.org/1999/xlink">
 <defs>
  <style type="text/css">
*{stroke-linecap:butt;stroke-linejoin:round;}
  </style>
 </defs>
 <g id="figure_1">
  <g id="patch_1">
   <path d="M 0 345.6 
L 460.8 345.6 
L 460.8 0 
L 0 0 
z
" style="fill:#ffffff;"/>
  </g>
  <g id="axes_1">
   <g id="patch_2">
    <path d="M 57.6 298.944 
L 338.688 298.944 
L 338.688 27.648 
L 57.6 27.648 
z
" style="fill:#ffffff;"/>
   </g>
   <g id="line2d_1">
    <path d="M 45.512012 298.944 
L 45.512012 283.143418 
L 57.6 283.143418 
L 57.6 277.876557 
L 64.67102 277.876557 
L 64.67102 272.609696 
L 73.579452 272.609696 
L 73.579452 267.342835 
L 83.830028 267.342835 
L 83.830028 262.075974 
L 90.242884 262.075974 
L 90.242884 256.809114 
L 95.918017 256.809114 
L 95.918017 251.542253 
L 101.646892 251.542253 
L 101.646892 246.275392 
L 102.989037 246.275392 
L 102.989037 241.008531 
L 109.843417 241.008531 
L 109.843417 230.47481 
L 120.571812 230.47481 
L 120.571812 219.941088 
L 134.870259 219.941088 
L 134.870259 214.674227 
L 137.107884 214.674227 
L 137.107884 209.407366 
L 138.256201 209.407366 
L 138.256201 204.140506 
L 138.594838 204.140506 
L 138.594838 198.873645 
L 138.927025 198.873645 
L 138.927025 193.606784 
L 139.413734 193.606784 
L 139.413734 188.339923 
L 139.572998 188.339923 
L 139.572998 183.073062 
L 139.8092 183.073062 
L 139.8092 177.806202 
L 141.090414 177.806202 
L 141.090414 172.539341 
L 141.378673 172.539341 
L 141.378673 167.27248 
L 141.732423 167.27248 
L 141.732423 162.005619 
L 142.686372 162.005619 
L 142.686372 156.738758 
L 142.884173 156.738758 
L 142.884173 151.471897 
L 143.208936 151.471897 
L 143.208936 146.205037 
L 143.716296 146.205037 
L 143.716296 140.938176 
L 143.964547 140.938176 
L 143.964547 135.671315 
L 144.087359 135.671315 
L 144.087359 130.404454 
L 144.148442 130.404454 
L 144.148442 125.137593 
L 144.209312 125.137593 
L 144.209312 119.870733 
L 144.269971 119.870733 
L 144.269971 114.603872 
L 144.330419 114.603872 
L 144.330419 109.337011 
L 144.390658 109.337011 
L 144.390658 104.07015 
L 144.45069 104.07015 
L 144.45069 98.803289 
L 144.570138 98.803289 
L 144.570138 93.536429 
L 144.629556 93.536429 
L 144.629556 88.269568 
L 144.747789 88.269568 
L 144.747789 83.002707 
L 144.865226 83.002707 
L 144.865226 77.735846 
L 144.981877 77.735846 
L 144.981877 72.468985 
L 145.039911 72.468985 
L 145.039911 67.202125 
L 145.270136 67.202125 
L 145.270136 61.935264 
L 145.327221 61.935264 
L 145.327221 51.401542 
L 146.216039 51.401542 
L 146.216039 35.60096 
L 146.270114 35.60096 
L 146.270114 30.334099 
L 338.688 30.334099 
" style="fill:none;stroke:#f5deb3;stroke-linecap:square;stroke-width:4;"/>
   </g>
   <g id="line2d_2">
    <defs>
     <path d="M -0 7.778175 
L 7.778175 0 
L 0 -7.778175 
L -7.778175 -0 
z
" id="mef9de63abc" style="stroke:#f5deb3;stroke-linejoin:miter;stroke-width:1.5;"/>
    </defs>
    <g>
     <use style="fill:#f5deb3;stroke:#f5deb3;stroke-linejoin:miter;stroke-width:1.5;" x="109.843417" xlink:href="#mef9de63abc" y="230.47481"/>
     <use style="fill:#f5deb3;stroke:#f5deb3;stroke-linejoin:miter;stroke-width:1.5;" x="143.716296" xlink:href="#mef9de63abc" y="140.938176"/>
     <use style="fill:#f5deb3;stroke:#f5deb3;stroke-linejoin:miter;stroke-width:1.5;" x="146.270114" xlink:href="#mef9de63abc" y="35.60096"/>
     <use style="fill:#f5deb3;stroke:#f5deb3;stroke-linejoin:miter;stroke-width:1.5;" x="146.270114" xlink:href="#mef9de63abc" y="30.334099"/>
     <use style="fill:#f5deb3;stroke:#f5deb3;stroke-linejoin:miter;stroke-width:1.5;" x="146.270114" xlink:href="#mef9de63abc" y="30.334099"/>
     <use style="fill:#f5deb3;stroke:#f5deb3;stroke-linejoin:miter;stroke-width:1.5;" x="338.688" xlink:href="#mef9de63abc" y="30.334099"/>
    </g>
   </g>
   <g id="line2d_3">
    <path style="fill:none;stroke:#f5deb3;stroke-linecap:square;stroke-width:4;"/>
    <g/>
   </g>
   <g id="line2d_4">
    <path d="M 338.688 30.334099 
L 369.60768 35.706297 
" style="fill:none;stroke:#f5deb3;stroke-linecap:square;stroke-width:4;"/>
    <g>
     <use style="fill:#f5deb3;stroke:#f5deb3;stroke-linejoin:miter;stroke-width:1.5;" x="338.688" xlink:href="#mef9de63abc" y="30.334099"/>
     <use style="fill:#f5deb3;stroke:#f5deb3;stroke-linejoin:miter;stroke-width:1.5;" x="369.60768" xlink:href="#mef9de63abc" y="35.706297"/>
    </g>
   </g>
   <g id="matplotlib.axis_1">
    <g id="xtick_1">
     <g id="line2d_5">
      <path clip-path="url(#p12d44fddbf)" d="M 57.6 298.944 
L 57.6 27.648 
" style="fill:none;stroke:#b0b0b0;stroke-linecap:square;stroke-width:0.8;"/>
     </g>
     <g id="line2d_6">
      <defs>
       <path d="M 0 0 
L 0 3.5 
" id="m82ab9d6b87" style="stroke:#000000;stroke-width:0.8;"/>
      </defs>
      <g>
       <use style="stroke:#000000;stroke-width:0.8;" x="57.6" xlink:href="#m82ab9d6b87" y="298.944"/>
      </g>
     </g>
     <g id="text_1">
      <!-- 0 -->
      <defs>
       <path d="M 31.78125 66.40625 
Q 24.171875 66.40625 20.328125 58.90625 
Q 16.5 51.421875 16.5 36.375 
Q 16.5 21.390625 20.328125 13.890625 
Q 24.171875 6.390625 31.78125 6.390625 
Q 39.453125 6.390625 43.28125 13.890625 
Q 47.125 21.390625 47.125 36.375 
Q 47.125 51.421875 43.28125 58.90625 
Q 39.453125 66.40625 31.78125 66.40625 
z
M 31.78125 74.21875 
Q 44.046875 74.21875 50.515625 64.515625 
Q 56.984375 54.828125 56.984375 36.375 
Q 56.984375 17.96875 50.515625 8.265625 
Q 44.046875 -1.421875 31.78125 -1.421875 
Q 19.53125 -1.421875 13.0625 8.265625 
Q 6.59375 17.96875 6.59375 36.375 
Q 6.59375 54.828125 13.0625 64.515625 
Q 19.53125 74.21875 31.78125 74.21875 
z
" id="DejaVuSans-48"/>
      </defs>
      <g transform="translate(51.2375 321.140875)scale(0.2 -0.2)">
       <use xlink:href="#DejaVuSans-48"/>
      </g>
     </g>
    </g>
    <g id="xtick_2">
     <g id="line2d_7">
      <path clip-path="url(#p12d44fddbf)" d="M 137.910857 298.944 
L 137.910857 27.648 
" style="fill:none;stroke:#b0b0b0;stroke-linecap:square;stroke-width:0.8;"/>
     </g>
     <g id="line2d_8">
      <g>
       <use style="stroke:#000000;stroke-width:0.8;" x="137.910857" xlink:href="#m82ab9d6b87" y="298.944"/>
      </g>
     </g>
     <g id="text_2">
      <!-- 2 -->
      <defs>
       <path d="M 19.1875 8.296875 
L 53.609375 8.296875 
L 53.609375 0 
L 7.328125 0 
L 7.328125 8.296875 
Q 12.9375 14.109375 22.625 23.890625 
Q 32.328125 33.6875 34.8125 36.53125 
Q 39.546875 41.84375 41.421875 45.53125 
Q 43.3125 49.21875 43.3125 52.78125 
Q 43.3125 58.59375 39.234375 62.25 
Q 35.15625 65.921875 28.609375 65.921875 
Q 23.96875 65.921875 18.8125 64.3125 
Q 13.671875 62.703125 7.8125 59.421875 
L 7.8125 69.390625 
Q 13.765625 71.78125 18.9375 73 
Q 24.125 74.21875 28.421875 74.21875 
Q 39.75 74.21875 46.484375 68.546875 
Q 53.21875 62.890625 53.21875 53.421875 
Q 53.21875 48.921875 51.53125 44.890625 
Q 49.859375 40.875 45.40625 35.40625 
Q 44.1875 33.984375 37.640625 27.21875 
Q 31.109375 20.453125 19.1875 8.296875 
z
" id="DejaVuSans-50"/>
      </defs>
      <g transform="translate(131.548357 321.140875)scale(0.2 -0.2)">
       <use xlink:href="#DejaVuSans-50"/>
      </g>
     </g>
    </g>
    <g id="xtick_3">
     <g id="line2d_9">
      <path clip-path="url(#p12d44fddbf)" d="M 218.221714 298.944 
L 218.221714 27.648 
" style="fill:none;stroke:#b0b0b0;stroke-linecap:square;stroke-width:0.8;"/>
     </g>
     <g id="line2d_10">
      <g>
       <use style="stroke:#000000;stroke-width:0.8;" x="218.221714" xlink:href="#m82ab9d6b87" y="298.944"/>
      </g>
     </g>
     <g id="text_3">
      <!-- 4 -->
      <defs>
       <path d="M 37.796875 64.3125 
L 12.890625 25.390625 
L 37.796875 25.390625 
z
M 35.203125 72.90625 
L 47.609375 72.90625 
L 47.609375 25.390625 
L 58.015625 25.390625 
L 58.015625 17.1875 
L 47.609375 17.1875 
L 47.609375 0 
L 37.796875 0 
L 37.796875 17.1875 
L 4.890625 17.1875 
L 4.890625 26.703125 
z
" id="DejaVuSans-52"/>
      </defs>
      <g transform="translate(211.859214 321.140875)scale(0.2 -0.2)">
       <use xlink:href="#DejaVuSans-52"/>
      </g>
     </g>
    </g>
    <g id="xtick_4">
     <g id="line2d_11">
      <path clip-path="url(#p12d44fddbf)" d="M 298.532571 298.944 
L 298.532571 27.648 
" style="fill:none;stroke:#b0b0b0;stroke-linecap:square;stroke-width:0.8;"/>
     </g>
     <g id="line2d_12">
      <g>
       <use style="stroke:#000000;stroke-width:0.8;" x="298.532571" xlink:href="#m82ab9d6b87" y="298.944"/>
      </g>
     </g>
     <g id="text_4">
      <!-- 6 -->
      <defs>
       <path d="M 33.015625 40.375 
Q 26.375 40.375 22.484375 35.828125 
Q 18.609375 31.296875 18.609375 23.390625 
Q 18.609375 15.53125 22.484375 10.953125 
Q 26.375 6.390625 33.015625 6.390625 
Q 39.65625 6.390625 43.53125 10.953125 
Q 47.40625 15.53125 47.40625 23.390625 
Q 47.40625 31.296875 43.53125 35.828125 
Q 39.65625 40.375 33.015625 40.375 
z
M 52.59375 71.296875 
L 52.59375 62.3125 
Q 48.875 64.0625 45.09375 64.984375 
Q 41.3125 65.921875 37.59375 65.921875 
Q 27.828125 65.921875 22.671875 59.328125 
Q 17.53125 52.734375 16.796875 39.40625 
Q 19.671875 43.65625 24.015625 45.921875 
Q 28.375 48.1875 33.59375 48.1875 
Q 44.578125 48.1875 50.953125 41.515625 
Q 57.328125 34.859375 57.328125 23.390625 
Q 57.328125 12.15625 50.6875 5.359375 
Q 44.046875 -1.421875 33.015625 -1.421875 
Q 20.359375 -1.421875 13.671875 8.265625 
Q 6.984375 17.96875 6.984375 36.375 
Q 6.984375 53.65625 15.1875 63.9375 
Q 23.390625 74.21875 37.203125 74.21875 
Q 40.921875 74.21875 44.703125 73.484375 
Q 48.484375 72.75 52.59375 71.296875 
z
" id="DejaVuSans-54"/>
      </defs>
      <g transform="translate(292.170071 321.140875)scale(0.2 -0.2)">
       <use xlink:href="#DejaVuSans-54"/>
      </g>
     </g>
    </g>
    <g id="xtick_5">
     <g id="line2d_13">
      <path clip-path="url(#p12d44fddbf)" d="M 97.755429 298.944 
L 97.755429 27.648 
" style="fill:none;stroke:#b0b0b0;stroke-linecap:square;stroke-width:0.8;"/>
     </g>
     <g id="line2d_14">
      <defs>
       <path d="M 0 0 
L 0 2 
" id="me5ffc522c3" style="stroke:#000000;stroke-width:0.6;"/>
      </defs>
      <g>
       <use style="stroke:#000000;stroke-width:0.6;" x="97.755429" xlink:href="#me5ffc522c3" y="298.944"/>
      </g>
     </g>
    </g>
    <g id="xtick_6">
     <g id="line2d_15">
      <path clip-path="url(#p12d44fddbf)" d="M 178.066286 298.944 
L 178.066286 27.648 
" style="fill:none;stroke:#b0b0b0;stroke-linecap:square;stroke-width:0.8;"/>
     </g>
     <g id="line2d_16">
      <g>
       <use style="stroke:#000000;stroke-width:0.6;" x="178.066286" xlink:href="#me5ffc522c3" y="298.944"/>
      </g>
     </g>
    </g>
    <g id="xtick_7">
     <g id="line2d_17">
      <path clip-path="url(#p12d44fddbf)" d="M 258.377143 298.944 
L 258.377143 27.648 
" style="fill:none;stroke:#b0b0b0;stroke-linecap:square;stroke-width:0.8;"/>
     </g>
     <g id="line2d_18">
      <g>
       <use style="stroke:#000000;stroke-width:0.6;" x="258.377143" xlink:href="#me5ffc522c3" y="298.944"/>
      </g>
     </g>
    </g>
    <g id="xtick_8">
     <g id="line2d_19">
      <path clip-path="url(#p12d44fddbf)" d="M 338.688 298.944 
L 338.688 27.648 
" style="fill:none;stroke:#b0b0b0;stroke-linecap:square;stroke-width:0.8;"/>
     </g>
     <g id="line2d_20">
      <g>
       <use style="stroke:#000000;stroke-width:0.6;" x="338.688" xlink:href="#me5ffc522c3" y="298.944"/>
      </g>
     </g>
    </g>
    <g id="text_5">
     <!-- log10(# f-evals / dimension) -->
     <defs>
      <path d="M 9.421875 75.984375 
L 18.40625 75.984375 
L 18.40625 0 
L 9.421875 0 
z
" id="DejaVuSans-108"/>
      <path d="M 30.609375 48.390625 
Q 23.390625 48.390625 19.1875 42.75 
Q 14.984375 37.109375 14.984375 27.296875 
Q 14.984375 17.484375 19.15625 11.84375 
Q 23.34375 6.203125 30.609375 6.203125 
Q 37.796875 6.203125 41.984375 11.859375 
Q 46.1875 17.53125 46.1875 27.296875 
Q 46.1875 37.015625 41.984375 42.703125 
Q 37.796875 48.390625 30.609375 48.390625 
z
M 30.609375 56 
Q 42.328125 56 49.015625 48.375 
Q 55.71875 40.765625 55.71875 27.296875 
Q 55.71875 13.875 49.015625 6.21875 
Q 42.328125 -1.421875 30.609375 -1.421875 
Q 18.84375 -1.421875 12.171875 6.21875 
Q 5.515625 13.875 5.515625 27.296875 
Q 5.515625 40.765625 12.171875 48.375 
Q 18.84375 56 30.609375 56 
z
" id="DejaVuSans-111"/>
      <path d="M 45.40625 27.984375 
Q 45.40625 37.75 41.375 43.109375 
Q 37.359375 48.484375 30.078125 48.484375 
Q 22.859375 48.484375 18.828125 43.109375 
Q 14.796875 37.75 14.796875 27.984375 
Q 14.796875 18.265625 18.828125 12.890625 
Q 22.859375 7.515625 30.078125 7.515625 
Q 37.359375 7.515625 41.375 12.890625 
Q 45.40625 18.265625 45.40625 27.984375 
z
M 54.390625 6.78125 
Q 54.390625 -7.171875 48.1875 -13.984375 
Q 42 -20.796875 29.203125 -20.796875 
Q 24.46875 -20.796875 20.265625 -20.09375 
Q 16.0625 -19.390625 12.109375 -17.921875 
L 12.109375 -9.1875 
Q 16.0625 -11.328125 19.921875 -12.34375 
Q 23.78125 -13.375 27.78125 -13.375 
Q 36.625 -13.375 41.015625 -8.765625 
Q 45.40625 -4.15625 45.40625 5.171875 
L 45.40625 9.625 
Q 42.625 4.78125 38.28125 2.390625 
Q 33.9375 0 27.875 0 
Q 17.828125 0 11.671875 7.65625 
Q 5.515625 15.328125 5.515625 27.984375 
Q 5.515625 40.671875 11.671875 48.328125 
Q 17.828125 56 27.875 56 
Q 33.9375 56 38.28125 53.609375 
Q 42.625 51.21875 45.40625 46.390625 
L 45.40625 54.6875 
L 54.390625 54.6875 
z
" id="DejaVuSans-103"/>
      <path d="M 12.40625 8.296875 
L 28.515625 8.296875 
L 28.515625 63.921875 
L 10.984375 60.40625 
L 10.984375 69.390625 
L 28.421875 72.90625 
L 38.28125 72.90625 
L 38.28125 8.296875 
L 54.390625 8.296875 
L 54.390625 0 
L 12.40625 0 
z
" id="DejaVuSans-49"/>
      <path d="M 31 75.875 
Q 24.46875 64.65625 21.28125 53.65625 
Q 18.109375 42.671875 18.109375 31.390625 
Q 18.109375 20.125 21.3125 9.0625 
Q 24.515625 -2 31 -13.1875 
L 23.1875 -13.1875 
Q 15.875 -1.703125 12.234375 9.375 
Q 8.59375 20.453125 8.59375 31.390625 
Q 8.59375 42.28125 12.203125 53.3125 
Q 15.828125 64.359375 23.1875 75.875 
z
" id="DejaVuSans-40"/>
      <path d="M 51.125 44 
L 36.921875 44 
L 32.8125 27.6875 
L 47.125 27.6875 
z
M 43.796875 71.78125 
L 38.71875 51.515625 
L 52.984375 51.515625 
L 58.109375 71.78125 
L 65.921875 71.78125 
L 60.890625 51.515625 
L 76.125 51.515625 
L 76.125 44 
L 58.984375 44 
L 54.984375 27.6875 
L 70.515625 27.6875 
L 70.515625 20.21875 
L 53.078125 20.21875 
L 48 0 
L 40.1875 0 
L 45.21875 20.21875 
L 30.90625 20.21875 
L 25.875 0 
L 18.015625 0 
L 23.09375 20.21875 
L 7.71875 20.21875 
L 7.71875 27.6875 
L 24.90625 27.6875 
L 29 44 
L 13.28125 44 
L 13.28125 51.515625 
L 30.90625 51.515625 
L 35.890625 71.78125 
z
" id="DejaVuSans-35"/>
      <path id="DejaVuSans-32"/>
      <path d="M 37.109375 75.984375 
L 37.109375 68.5 
L 28.515625 68.5 
Q 23.6875 68.5 21.796875 66.546875 
Q 19.921875 64.59375 19.921875 59.515625 
L 19.921875 54.6875 
L 34.71875 54.6875 
L 34.71875 47.703125 
L 19.921875 47.703125 
L 19.921875 0 
L 10.890625 0 
L 10.890625 47.703125 
L 2.296875 47.703125 
L 2.296875 54.6875 
L 10.890625 54.6875 
L 10.890625 58.5 
Q 10.890625 67.625 15.140625 71.796875 
Q 19.390625 75.984375 28.609375 75.984375 
z
" id="DejaVuSans-102"/>
      <path d="M 4.890625 31.390625 
L 31.203125 31.390625 
L 31.203125 23.390625 
L 4.890625 23.390625 
z
" id="DejaVuSans-45"/>
      <path d="M 56.203125 29.59375 
L 56.203125 25.203125 
L 14.890625 25.203125 
Q 15.484375 15.921875 20.484375 11.0625 
Q 25.484375 6.203125 34.421875 6.203125 
Q 39.59375 6.203125 44.453125 7.46875 
Q 49.3125 8.734375 54.109375 11.28125 
L 54.109375 2.78125 
Q 49.265625 0.734375 44.1875 -0.34375 
Q 39.109375 -1.421875 33.890625 -1.421875 
Q 20.796875 -1.421875 13.15625 6.1875 
Q 5.515625 13.8125 5.515625 26.8125 
Q 5.515625 40.234375 12.765625 48.109375 
Q 20.015625 56 32.328125 56 
Q 43.359375 56 49.78125 48.890625 
Q 56.203125 41.796875 56.203125 29.59375 
z
M 47.21875 32.234375 
Q 47.125 39.59375 43.09375 43.984375 
Q 39.0625 48.390625 32.421875 48.390625 
Q 24.90625 48.390625 20.390625 44.140625 
Q 15.875 39.890625 15.1875 32.171875 
z
" id="DejaVuSans-101"/>
      <path d="M 2.984375 54.6875 
L 12.5 54.6875 
L 29.59375 8.796875 
L 46.6875 54.6875 
L 56.203125 54.6875 
L 35.6875 0 
L 23.484375 0 
z
" id="DejaVuSans-118"/>
      <path d="M 34.28125 27.484375 
Q 23.390625 27.484375 19.1875 25 
Q 14.984375 22.515625 14.984375 16.5 
Q 14.984375 11.71875 18.140625 8.90625 
Q 21.296875 6.109375 26.703125 6.109375 
Q 34.1875 6.109375 38.703125 11.40625 
Q 43.21875 16.703125 43.21875 25.484375 
L 43.21875 27.484375 
z
M 52.203125 31.203125 
L 52.203125 0 
L 43.21875 0 
L 43.21875 8.296875 
Q 40.140625 3.328125 35.546875 0.953125 
Q 30.953125 -1.421875 24.3125 -1.421875 
Q 15.921875 -1.421875 10.953125 3.296875 
Q 6 8.015625 6 15.921875 
Q 6 25.140625 12.171875 29.828125 
Q 18.359375 34.515625 30.609375 34.515625 
L 43.21875 34.515625 
L 43.21875 35.40625 
Q 43.21875 41.609375 39.140625 45 
Q 35.0625 48.390625 27.6875 48.390625 
Q 23 48.390625 18.546875 47.265625 
Q 14.109375 46.140625 10.015625 43.890625 
L 10.015625 52.203125 
Q 14.9375 54.109375 19.578125 55.046875 
Q 24.21875 56 28.609375 56 
Q 40.484375 56 46.34375 49.84375 
Q 52.203125 43.703125 52.203125 31.203125 
z
" id="DejaVuSans-97"/>
      <path d="M 44.28125 53.078125 
L 44.28125 44.578125 
Q 40.484375 46.53125 36.375 47.5 
Q 32.28125 48.484375 27.875 48.484375 
Q 21.1875 48.484375 17.84375 46.4375 
Q 14.5 44.390625 14.5 40.28125 
Q 14.5 37.15625 16.890625 35.375 
Q 19.28125 33.59375 26.515625 31.984375 
L 29.59375 31.296875 
Q 39.15625 29.25 43.1875 25.515625 
Q 47.21875 21.78125 47.21875 15.09375 
Q 47.21875 7.46875 41.1875 3.015625 
Q 35.15625 -1.421875 24.609375 -1.421875 
Q 20.21875 -1.421875 15.453125 -0.5625 
Q 10.6875 0.296875 5.421875 2 
L 5.421875 11.28125 
Q 10.40625 8.6875 15.234375 7.390625 
Q 20.0625 6.109375 24.8125 6.109375 
Q 31.15625 6.109375 34.5625 8.28125 
Q 37.984375 10.453125 37.984375 14.40625 
Q 37.984375 18.0625 35.515625 20.015625 
Q 33.0625 21.96875 24.703125 23.78125 
L 21.578125 24.515625 
Q 13.234375 26.265625 9.515625 29.90625 
Q 5.8125 33.546875 5.8125 39.890625 
Q 5.8125 47.609375 11.28125 51.796875 
Q 16.75 56 26.8125 56 
Q 31.78125 56 36.171875 55.265625 
Q 40.578125 54.546875 44.28125 53.078125 
z
" id="DejaVuSans-115"/>
      <path d="M 25.390625 72.90625 
L 33.6875 72.90625 
L 8.296875 -9.28125 
L 0 -9.28125 
z
" id="DejaVuSans-47"/>
      <path d="M 45.40625 46.390625 
L 45.40625 75.984375 
L 54.390625 75.984375 
L 54.390625 0 
L 45.40625 0 
L 45.40625 8.203125 
Q 42.578125 3.328125 38.25 0.953125 
Q 33.9375 -1.421875 27.875 -1.421875 
Q 17.96875 -1.421875 11.734375 6.484375 
Q 5.515625 14.40625 5.515625 27.296875 
Q 5.515625 40.1875 11.734375 48.09375 
Q 17.96875 56 27.875 56 
Q 33.9375 56 38.25 53.625 
Q 42.578125 51.265625 45.40625 46.390625 
z
M 14.796875 27.296875 
Q 14.796875 17.390625 18.875 11.75 
Q 22.953125 6.109375 30.078125 6.109375 
Q 37.203125 6.109375 41.296875 11.75 
Q 45.40625 17.390625 45.40625 27.296875 
Q 45.40625 37.203125 41.296875 42.84375 
Q 37.203125 48.484375 30.078125 48.484375 
Q 22.953125 48.484375 18.875 42.84375 
Q 14.796875 37.203125 14.796875 27.296875 
z
" id="DejaVuSans-100"/>
      <path d="M 9.421875 54.6875 
L 18.40625 54.6875 
L 18.40625 0 
L 9.421875 0 
z
M 9.421875 75.984375 
L 18.40625 75.984375 
L 18.40625 64.59375 
L 9.421875 64.59375 
z
" id="DejaVuSans-105"/>
      <path d="M 52 44.1875 
Q 55.375 50.25 60.0625 53.125 
Q 64.75 56 71.09375 56 
Q 79.640625 56 84.28125 50.015625 
Q 88.921875 44.046875 88.921875 33.015625 
L 88.921875 0 
L 79.890625 0 
L 79.890625 32.71875 
Q 79.890625 40.578125 77.09375 44.375 
Q 74.3125 48.1875 68.609375 48.1875 
Q 61.625 48.1875 57.5625 43.546875 
Q 53.515625 38.921875 53.515625 30.90625 
L 53.515625 0 
L 44.484375 0 
L 44.484375 32.71875 
Q 44.484375 40.625 41.703125 44.40625 
Q 38.921875 48.1875 33.109375 48.1875 
Q 26.21875 48.1875 22.15625 43.53125 
Q 18.109375 38.875 18.109375 30.90625 
L 18.109375 0 
L 9.078125 0 
L 9.078125 54.6875 
L 18.109375 54.6875 
L 18.109375 46.1875 
Q 21.1875 51.21875 25.484375 53.609375 
Q 29.78125 56 35.6875 56 
Q 41.65625 56 45.828125 52.96875 
Q 50 49.953125 52 44.1875 
z
" id="DejaVuSans-109"/>
      <path d="M 54.890625 33.015625 
L 54.890625 0 
L 45.90625 0 
L 45.90625 32.71875 
Q 45.90625 40.484375 42.875 44.328125 
Q 39.84375 48.1875 33.796875 48.1875 
Q 26.515625 48.1875 22.3125 43.546875 
Q 18.109375 38.921875 18.109375 30.90625 
L 18.109375 0 
L 9.078125 0 
L 9.078125 54.6875 
L 18.109375 54.6875 
L 18.109375 46.1875 
Q 21.34375 51.125 25.703125 53.5625 
Q 30.078125 56 35.796875 56 
Q 45.21875 56 50.046875 50.171875 
Q 54.890625 44.34375 54.890625 33.015625 
z
" id="DejaVuSans-110"/>
      <path d="M 8.015625 75.875 
L 15.828125 75.875 
Q 23.140625 64.359375 26.78125 53.3125 
Q 30.421875 42.28125 30.421875 31.390625 
Q 30.421875 20.453125 26.78125 9.375 
Q 23.140625 -1.703125 15.828125 -13.1875 
L 8.015625 -13.1875 
Q 14.5 -2 17.703125 9.0625 
Q 20.90625 20.125 20.90625 31.390625 
Q 20.90625 42.671875 17.703125 53.65625 
Q 14.5 64.65625 8.015625 75.875 
z
" id="DejaVuSans-41"/>
     </defs>
     <g transform="translate(77.764078 342.217594)scale(0.17 -0.17)">
      <use xlink:href="#DejaVuSans-108"/>
      <use x="27.783203" xlink:href="#DejaVuSans-111"/>
      <use x="88.964844" xlink:href="#DejaVuSans-103"/>
      <use x="152.441406" xlink:href="#DejaVuSans-49"/>
      <use x="216.064453" xlink:href="#DejaVuSans-48"/>
      <use x="279.6875" xlink:href="#DejaVuSans-40"/>
      <use x="318.701172" xlink:href="#DejaVuSans-35"/>
      <use x="402.490234" xlink:href="#DejaVuSans-32"/>
      <use x="434.277344" xlink:href="#DejaVuSans-102"/>
      <use x="463.982422" xlink:href="#DejaVuSans-45"/>
      <use x="500.066406" xlink:href="#DejaVuSans-101"/>
      <use x="561.589844" xlink:href="#DejaVuSans-118"/>
      <use x="620.769531" xlink:href="#DejaVuSans-97"/>
      <use x="682.048828" xlink:href="#DejaVuSans-108"/>
      <use x="709.832031" xlink:href="#DejaVuSans-115"/>
      <use x="761.931641" xlink:href="#DejaVuSans-32"/>
      <use x="793.71875" xlink:href="#DejaVuSans-47"/>
      <use x="827.410156" xlink:href="#DejaVuSans-32"/>
      <use x="859.197266" xlink:href="#DejaVuSans-100"/>
      <use x="922.673828" xlink:href="#DejaVuSans-105"/>
      <use x="950.457031" xlink:href="#DejaVuSans-109"/>
      <use x="1047.869141" xlink:href="#DejaVuSans-101"/>
      <use x="1109.392578" xlink:href="#DejaVuSans-110"/>
      <use x="1172.771484" xlink:href="#DejaVuSans-115"/>
      <use x="1224.871094" xlink:href="#DejaVuSans-105"/>
      <use x="1252.654297" xlink:href="#DejaVuSans-111"/>
      <use x="1313.835938" xlink:href="#DejaVuSans-110"/>
      <use x="1377.214844" xlink:href="#DejaVuSans-41"/>
     </g>
    </g>
   </g>
   <g id="matplotlib.axis_2">
    <g id="ytick_1">
     <g id="line2d_21">
      <path clip-path="url(#p12d44fddbf)" d="M 57.6 298.944 
L 338.688 298.944 
" style="fill:none;stroke:#b0b0b0;stroke-linecap:square;stroke-width:0.8;"/>
     </g>
     <g id="line2d_22">
      <defs>
       <path d="M 0 0 
L -3.5 0 
" id="m8381d38d19" style="stroke:#000000;stroke-width:0.8;"/>
      </defs>
      <g>
       <use style="stroke:#000000;stroke-width:0.8;" x="57.6" xlink:href="#m8381d38d19" y="298.944"/>
      </g>
     </g>
     <g id="text_6">
      <!-- 0.0 -->
      <defs>
       <path d="M 10.6875 12.40625 
L 21 12.40625 
L 21 0 
L 10.6875 0 
z
" id="DejaVuSans-46"/>
      </defs>
      <g transform="translate(25.155 305.02275)scale(0.16 -0.16)">
       <use xlink:href="#DejaVuSans-48"/>
       <use x="63.623047" xlink:href="#DejaVuSans-46"/>
       <use x="95.410156" xlink:href="#DejaVuSans-48"/>
      </g>
     </g>
    </g>
    <g id="ytick_2">
     <g id="line2d_23">
      <path clip-path="url(#p12d44fddbf)" d="M 57.6 245.22202 
L 338.688 245.22202 
" style="fill:none;stroke:#b0b0b0;stroke-linecap:square;stroke-width:0.8;"/>
     </g>
     <g id="line2d_24">
      <g>
       <use style="stroke:#000000;stroke-width:0.8;" x="57.6" xlink:href="#m8381d38d19" y="245.22202"/>
      </g>
     </g>
     <g id="text_7">
      <!-- 0.2 -->
      <g transform="translate(25.155 251.30077)scale(0.16 -0.16)">
       <use xlink:href="#DejaVuSans-48"/>
       <use x="63.623047" xlink:href="#DejaVuSans-46"/>
       <use x="95.410156" xlink:href="#DejaVuSans-50"/>
      </g>
     </g>
    </g>
    <g id="ytick_3">
     <g id="line2d_25">
      <path clip-path="url(#p12d44fddbf)" d="M 57.6 191.50004 
L 338.688 191.50004 
" style="fill:none;stroke:#b0b0b0;stroke-linecap:square;stroke-width:0.8;"/>
     </g>
     <g id="line2d_26">
      <g>
       <use style="stroke:#000000;stroke-width:0.8;" x="57.6" xlink:href="#m8381d38d19" y="191.50004"/>
      </g>
     </g>
     <g id="text_8">
      <!-- 0.4 -->
      <g transform="translate(25.155 197.57879)scale(0.16 -0.16)">
       <use xlink:href="#DejaVuSans-48"/>
       <use x="63.623047" xlink:href="#DejaVuSans-46"/>
       <use x="95.410156" xlink:href="#DejaVuSans-52"/>
      </g>
     </g>
    </g>
    <g id="ytick_4">
     <g id="line2d_27">
      <path clip-path="url(#p12d44fddbf)" d="M 57.6 137.778059 
L 338.688 137.778059 
" style="fill:none;stroke:#b0b0b0;stroke-linecap:square;stroke-width:0.8;"/>
     </g>
     <g id="line2d_28">
      <g>
       <use style="stroke:#000000;stroke-width:0.8;" x="57.6" xlink:href="#m8381d38d19" y="137.778059"/>
      </g>
     </g>
     <g id="text_9">
      <!-- 0.6 -->
      <g transform="translate(25.155 143.856809)scale(0.16 -0.16)">
       <use xlink:href="#DejaVuSans-48"/>
       <use x="63.623047" xlink:href="#DejaVuSans-46"/>
       <use x="95.410156" xlink:href="#DejaVuSans-54"/>
      </g>
     </g>
    </g>
    <g id="ytick_5">
     <g id="line2d_29">
      <path clip-path="url(#p12d44fddbf)" d="M 57.6 84.056079 
L 338.688 84.056079 
" style="fill:none;stroke:#b0b0b0;stroke-linecap:square;stroke-width:0.8;"/>
     </g>
     <g id="line2d_30">
      <g>
       <use style="stroke:#000000;stroke-width:0.8;" x="57.6" xlink:href="#m8381d38d19" y="84.056079"/>
      </g>
     </g>
     <g id="text_10">
      <!-- 0.8 -->
      <defs>
       <path d="M 31.78125 34.625 
Q 24.75 34.625 20.71875 30.859375 
Q 16.703125 27.09375 16.703125 20.515625 
Q 16.703125 13.921875 20.71875 10.15625 
Q 24.75 6.390625 31.78125 6.390625 
Q 38.8125 6.390625 42.859375 10.171875 
Q 46.921875 13.96875 46.921875 20.515625 
Q 46.921875 27.09375 42.890625 30.859375 
Q 38.875 34.625 31.78125 34.625 
z
M 21.921875 38.8125 
Q 15.578125 40.375 12.03125 44.71875 
Q 8.5 49.078125 8.5 55.328125 
Q 8.5 64.0625 14.71875 69.140625 
Q 20.953125 74.21875 31.78125 74.21875 
Q 42.671875 74.21875 48.875 69.140625 
Q 55.078125 64.0625 55.078125 55.328125 
Q 55.078125 49.078125 51.53125 44.71875 
Q 48 40.375 41.703125 38.8125 
Q 48.828125 37.15625 52.796875 32.3125 
Q 56.78125 27.484375 56.78125 20.515625 
Q 56.78125 9.90625 50.3125 4.234375 
Q 43.84375 -1.421875 31.78125 -1.421875 
Q 19.734375 -1.421875 13.25 4.234375 
Q 6.78125 9.90625 6.78125 20.515625 
Q 6.78125 27.484375 10.78125 32.3125 
Q 14.796875 37.15625 21.921875 38.8125 
z
M 18.3125 54.390625 
Q 18.3125 48.734375 21.84375 45.5625 
Q 25.390625 42.390625 31.78125 42.390625 
Q 38.140625 42.390625 41.71875 45.5625 
Q 45.3125 48.734375 45.3125 54.390625 
Q 45.3125 60.0625 41.71875 63.234375 
Q 38.140625 66.40625 31.78125 66.40625 
Q 25.390625 66.40625 21.84375 63.234375 
Q 18.3125 60.0625 18.3125 54.390625 
z
" id="DejaVuSans-56"/>
      </defs>
      <g transform="translate(25.155 90.134829)scale(0.16 -0.16)">
       <use xlink:href="#DejaVuSans-48"/>
       <use x="63.623047" xlink:href="#DejaVuSans-46"/>
       <use x="95.410156" xlink:href="#DejaVuSans-56"/>
      </g>
     </g>
    </g>
    <g id="ytick_6">
     <g id="line2d_31">
      <path clip-path="url(#p12d44fddbf)" d="M 57.6 30.334099 
L 338.688 30.334099 
" style="fill:none;stroke:#b0b0b0;stroke-linecap:square;stroke-width:0.8;"/>
     </g>
     <g id="line2d_32">
      <g>
       <use style="stroke:#000000;stroke-width:0.8;" x="57.6" xlink:href="#m8381d38d19" y="30.334099"/>
      </g>
     </g>
     <g id="text_11">
      <!-- 1.0 -->
      <g transform="translate(25.155 36.412849)scale(0.16 -0.16)">
       <use xlink:href="#DejaVuSans-49"/>
       <use x="63.623047" xlink:href="#DejaVuSans-46"/>
       <use x="95.410156" xlink:href="#DejaVuSans-48"/>
      </g>
     </g>
    </g>
    <g id="text_12">
     <!-- Fraction of function,target pairs -->
     <defs>
      <path d="M 9.8125 72.90625 
L 51.703125 72.90625 
L 51.703125 64.59375 
L 19.671875 64.59375 
L 19.671875 43.109375 
L 48.578125 43.109375 
L 48.578125 34.8125 
L 19.671875 34.8125 
L 19.671875 0 
L 9.8125 0 
z
" id="DejaVuSans-70"/>
      <path d="M 41.109375 46.296875 
Q 39.59375 47.171875 37.8125 47.578125 
Q 36.03125 48 33.890625 48 
Q 26.265625 48 22.1875 43.046875 
Q 18.109375 38.09375 18.109375 28.8125 
L 18.109375 0 
L 9.078125 0 
L 9.078125 54.6875 
L 18.109375 54.6875 
L 18.109375 46.1875 
Q 20.953125 51.171875 25.484375 53.578125 
Q 30.03125 56 36.53125 56 
Q 37.453125 56 38.578125 55.875 
Q 39.703125 55.765625 41.0625 55.515625 
z
" id="DejaVuSans-114"/>
      <path d="M 48.78125 52.59375 
L 48.78125 44.1875 
Q 44.96875 46.296875 41.140625 47.34375 
Q 37.3125 48.390625 33.40625 48.390625 
Q 24.65625 48.390625 19.8125 42.84375 
Q 14.984375 37.3125 14.984375 27.296875 
Q 14.984375 17.28125 19.8125 11.734375 
Q 24.65625 6.203125 33.40625 6.203125 
Q 37.3125 6.203125 41.140625 7.25 
Q 44.96875 8.296875 48.78125 10.40625 
L 48.78125 2.09375 
Q 45.015625 0.34375 40.984375 -0.53125 
Q 36.96875 -1.421875 32.421875 -1.421875 
Q 20.0625 -1.421875 12.78125 6.34375 
Q 5.515625 14.109375 5.515625 27.296875 
Q 5.515625 40.671875 12.859375 48.328125 
Q 20.21875 56 33.015625 56 
Q 37.15625 56 41.109375 55.140625 
Q 45.0625 54.296875 48.78125 52.59375 
z
" id="DejaVuSans-99"/>
      <path d="M 18.3125 70.21875 
L 18.3125 54.6875 
L 36.8125 54.6875 
L 36.8125 47.703125 
L 18.3125 47.703125 
L 18.3125 18.015625 
Q 18.3125 11.328125 20.140625 9.421875 
Q 21.96875 7.515625 27.59375 7.515625 
L 36.8125 7.515625 
L 36.8125 0 
L 27.59375 0 
Q 17.1875 0 13.234375 3.875 
Q 9.28125 7.765625 9.28125 18.015625 
L 9.28125 47.703125 
L 2.6875 47.703125 
L 2.6875 54.6875 
L 9.28125 54.6875 
L 9.28125 70.21875 
z
" id="DejaVuSans-116"/>
      <path d="M 8.5 21.578125 
L 8.5 54.6875 
L 17.484375 54.6875 
L 17.484375 21.921875 
Q 17.484375 14.15625 20.5 10.265625 
Q 23.53125 6.390625 29.59375 6.390625 
Q 36.859375 6.390625 41.078125 11.03125 
Q 45.3125 15.671875 45.3125 23.6875 
L 45.3125 54.6875 
L 54.296875 54.6875 
L 54.296875 0 
L 45.3125 0 
L 45.3125 8.40625 
Q 42.046875 3.421875 37.71875 1 
Q 33.40625 -1.421875 27.6875 -1.421875 
Q 18.265625 -1.421875 13.375 4.4375 
Q 8.5 10.296875 8.5 21.578125 
z
M 31.109375 56 
z
" id="DejaVuSans-117"/>
      <path d="M 11.71875 12.40625 
L 22.015625 12.40625 
L 22.015625 4 
L 14.015625 -11.625 
L 7.71875 -11.625 
L 11.71875 4 
z
" id="DejaVuSans-44"/>
      <path d="M 18.109375 8.203125 
L 18.109375 -20.796875 
L 9.078125 -20.796875 
L 9.078125 54.6875 
L 18.109375 54.6875 
L 18.109375 46.390625 
Q 20.953125 51.265625 25.265625 53.625 
Q 29.59375 56 35.59375 56 
Q 45.5625 56 51.78125 48.09375 
Q 58.015625 40.1875 58.015625 27.296875 
Q 58.015625 14.40625 51.78125 6.484375 
Q 45.5625 -1.421875 35.59375 -1.421875 
Q 29.59375 -1.421875 25.265625 0.953125 
Q 20.953125 3.328125 18.109375 8.203125 
z
M 48.6875 27.296875 
Q 48.6875 37.203125 44.609375 42.84375 
Q 40.53125 48.484375 33.40625 48.484375 
Q 26.265625 48.484375 22.1875 42.84375 
Q 18.109375 37.203125 18.109375 27.296875 
Q 18.109375 17.390625 22.1875 11.75 
Q 26.265625 6.109375 33.40625 6.109375 
Q 40.53125 6.109375 44.609375 11.75 
Q 48.6875 17.390625 48.6875 27.296875 
z
" id="DejaVuSans-112"/>
     </defs>
     <g transform="translate(17.619531 297.681)rotate(-90)scale(0.17 -0.17)">
      <use xlink:href="#DejaVuSans-70"/>
      <use x="50.269531" xlink:href="#DejaVuSans-114"/>
      <use x="91.382812" xlink:href="#DejaVuSans-97"/>
      <use x="152.662109" xlink:href="#DejaVuSans-99"/>
      <use x="207.642578" xlink:href="#DejaVuSans-116"/>
      <use x="246.851562" xlink:href="#DejaVuSans-105"/>
      <use x="274.634766" xlink:href="#DejaVuSans-111"/>
      <use x="335.816406" xlink:href="#DejaVuSans-110"/>
      <use x="399.195312" xlink:href="#DejaVuSans-32"/>
      <use x="430.982422" xlink:href="#DejaVuSans-111"/>
      <use x="492.164062" xlink:href="#DejaVuSans-102"/>
      <use x="527.369141" xlink:href="#DejaVuSans-32"/>
      <use x="559.15625" xlink:href="#DejaVuSans-102"/>
      <use x="594.361328" xlink:href="#DejaVuSans-117"/>
      <use x="657.740234" xlink:href="#DejaVuSans-110"/>
      <use x="721.119141" xlink:href="#DejaVuSans-99"/>
      <use x="776.099609" xlink:href="#DejaVuSans-116"/>
      <use x="815.308594" xlink:href="#DejaVuSans-105"/>
      <use x="843.091797" xlink:href="#DejaVuSans-111"/>
      <use x="904.273438" xlink:href="#DejaVuSans-110"/>
      <use x="967.652344" xlink:href="#DejaVuSans-44"/>
      <use x="999.439453" xlink:href="#DejaVuSans-116"/>
      <use x="1038.648438" xlink:href="#DejaVuSans-97"/>
      <use x="1099.927734" xlink:href="#DejaVuSans-114"/>
      <use x="1139.291016" xlink:href="#DejaVuSans-103"/>
      <use x="1202.767578" xlink:href="#DejaVuSans-101"/>
      <use x="1264.291016" xlink:href="#DejaVuSans-116"/>
      <use x="1303.5" xlink:href="#DejaVuSans-32"/>
      <use x="1335.287109" xlink:href="#DejaVuSans-112"/>
      <use x="1398.763672" xlink:href="#DejaVuSans-97"/>
      <use x="1460.042969" xlink:href="#DejaVuSans-105"/>
      <use x="1487.826172" xlink:href="#DejaVuSans-114"/>
      <use x="1528.939453" xlink:href="#DejaVuSans-115"/>
     </g>
    </g>
   </g>
   <g id="line2d_33">
    <defs>
     <path d="M 0 1.5 
C 0.397805 1.5 0.77937 1.341951 1.06066 1.06066 
C 1.341951 0.77937 1.5 0.397805 1.5 0 
C 1.5 -0.397805 1.341951 -0.77937 1.06066 -1.06066 
C 0.77937 -1.341951 0.397805 -1.5 0 -1.5 
C -0.397805 -1.5 -0.77937 -1.341951 -1.06066 -1.06066 
C -1.341951 -0.77937 -1.5 -0.397805 -1.5 0 
C -1.5 0.397805 -1.341951 0.77937 -1.06066 1.06066 
C -0.77937 1.341951 -0.397805 1.5 0 1.5 
z
" id="mdf3e427dcd" style="stroke:#f5deb3;"/>
    </defs>
    <g>
     <use style="fill:#f5deb3;stroke:#f5deb3;" x="146.270114" xlink:href="#mdf3e427dcd" y="30.334099"/>
     <use style="fill:#f5deb3;stroke:#f5deb3;" x="146.270114" xlink:href="#mdf3e427dcd" y="30.334099"/>
    </g>
   </g>
   <g id="line2d_34">
    <defs>
     <path d="M 0 1.5 
C 0.397805 1.5 0.77937 1.341951 1.06066 1.06066 
C 1.341951 0.77937 1.5 0.397805 1.5 0 
C 1.5 -0.397805 1.341951 -0.77937 1.06066 -1.06066 
C 0.77937 -1.341951 0.397805 -1.5 0 -1.5 
C -0.397805 -1.5 -0.77937 -1.341951 -1.06066 -1.06066 
C -1.341951 -0.77937 -1.5 -0.397805 -1.5 0 
C -1.5 0.397805 -1.341951 0.77937 -1.06066 1.06066 
C -0.77937 1.341951 -0.397805 1.5 0 1.5 
z
" id="mde5beaa588" style="stroke:#000080;"/>
    </defs>
    <g>
     <use style="fill:#000080;stroke:#000080;" x="264.449371" xlink:href="#mde5beaa588" y="56.668403"/>
     <use style="fill:#000080;stroke:#000080;" x="264.449371" xlink:href="#mde5beaa588" y="56.668403"/>
    </g>
   </g>
   <g id="line2d_35">
    <path d="M 45.512012 298.944 
L 45.512012 278.403243 
L 57.6 278.403243 
L 57.6 273.663068 
L 64.67102 273.663068 
L 64.67102 270.502952 
L 69.687988 270.502952 
L 69.687988 267.342835 
L 73.579452 267.342835 
L 73.579452 264.709405 
L 76.759008 264.709405 
L 76.759008 262.60266 
L 79.447285 262.60266 
L 79.447285 261.549288 
L 81.775977 261.549288 
L 81.775977 260.495916 
L 83.830028 260.495916 
L 83.830028 259.442544 
L 85.66744 259.442544 
L 85.66744 258.389172 
L 87.329581 258.389172 
L 87.329581 257.3358 
L 93.863965 257.3358 
L 93.863965 256.282427 
L 94.921215 256.282427 
L 94.921215 254.702369 
L 99.41757 254.702369 
L 99.41757 253.648997 
L 100.192776 253.648997 
L 100.192776 253.122311 
L 100.934985 253.122311 
L 100.934985 252.595625 
L 101.646892 252.595625 
L 101.646892 241.535217 
L 102.330873 241.535217 
L 102.330873 239.955159 
L 102.989037 239.955159 
L 102.989037 239.428473 
L 103.623262 239.428473 
L 103.623262 237.848415 
L 106.48859 237.848415 
L 106.48859 237.321729 
L 109.401893 237.321729 
L 109.401893 236.795043 
L 110.694282 236.795043 
L 110.694282 235.214984 
L 113.73488 235.214984 
L 113.73488 234.688298 
L 114.080224 234.688298 
L 114.080224 234.161612 
L 114.751048 234.161612 
L 114.751048 228.894751 
L 116.019919 228.894751 
L 116.019919 228.368065 
L 116.621333 228.368065 
L 116.621333 227.841379 
L 118.576578 227.841379 
L 118.576578 224.681263 
L 119.351785 224.681263 
L 119.351785 218.887716 
L 120.33454 218.887716 
L 120.33454 217.834344 
L 132.541568 217.834344 
L 132.541568 215.727599 
L 134.343353 215.727599 
L 134.343353 212.567483 
L 136.073445 212.567483 
L 136.073445 204.667192 
L 138.426341 204.667192 
L 138.426341 200.453703 
L 140.11924 200.453703 
L 140.11924 199.927017 
L 140.574203 199.927017 
L 140.574203 195.713528 
L 141.090414 195.713528 
L 141.090414 187.813237 
L 142.818488 187.813237 
L 142.818488 187.286551 
L 143.778691 187.286551 
L 143.778691 186.233179 
L 144.087359 186.233179 
L 144.087359 185.706493 
L 145.721664 185.706493 
L 145.721664 182.01969 
L 147.419225 182.01969 
L 147.419225 179.38626 
L 149.467659 179.38626 
L 149.467659 176.752829 
L 149.690956 176.752829 
L 149.690956 176.226143 
L 160.005512 176.226143 
L 160.030058 173.592713 
L 163.50953 173.592713 
L 163.50953 170.959282 
L 164.256762 170.959282 
L 164.256762 168.852538 
L 164.637547 168.852538 
L 164.637547 166.745794 
L 165.411116 166.745794 
L 165.411116 163.058991 
L 166.047915 163.058991 
L 166.047915 161.478933 
L 166.544502 161.478933 
L 166.544502 160.952247 
L 167.751064 160.952247 
L 167.751064 157.265444 
L 171.417378 157.265444 
L 171.417378 156.738758 
L 172.385786 156.738758 
L 172.385786 154.105328 
L 173.889107 154.105328 
L 173.889107 152.52527 
L 174.196608 152.52527 
L 174.196608 150.945211 
L 177.499105 150.945211 
L 177.499105 150.418525 
L 179.854799 150.418525 
L 179.862667 148.838467 
L 181.704798 148.838467 
L 181.704798 146.731723 
L 183.460626 146.731723 
L 183.460626 145.678351 
L 184.021099 145.678351 
L 184.021099 144.098292 
L 184.885534 144.098292 
L 184.979642 141.464862 
L 185.026506 141.464862 
L 185.026506 139.358118 
L 186.804731 139.358118 
L 186.831126 133.037885 
L 191.215627 133.037885 
L 191.215627 132.511199 
L 194.132716 132.511199 
L 194.132716 129.351082 
L 194.284754 129.351082 
L 194.284754 128.824396 
L 194.662515 128.824396 
L 194.662515 126.717652 
L 194.863353 126.717652 
L 194.863353 126.190966 
L 197.008872 126.190966 
L 197.008872 125.137593 
L 197.533554 125.137593 
L 197.533554 124.084221 
L 198.470284 124.084221 
L 198.470284 123.030849 
L 198.892719 123.030849 
L 198.892719 122.504163 
L 199.753393 122.504163 
L 199.753393 121.977477 
L 201.832012 121.977477 
L 201.832012 120.397419 
L 202.183306 120.397419 
L 202.183306 119.344047 
L 202.886373 119.344047 
L 202.886373 114.603872 
L 204.776018 114.603872 
L 204.776018 114.077186 
L 206.17727 114.077186 
L 206.17727 109.337011 
L 206.444841 109.337011 
L 206.547325 108.283639 
L 207.678152 108.283639 
L 207.678152 107.230267 
L 208.485944 107.230267 
L 208.485944 106.703581 
L 208.72507 106.703581 
L 208.72507 106.176895 
L 209.625826 106.176895 
L 209.625826 105.650209 
L 210.457852 105.650209 
L 210.457852 104.07015 
L 210.672912 104.07015 
L 210.672912 103.543464 
L 211.108353 103.543464 
L 211.108353 102.490092 
L 212.311451 102.490092 
L 212.311451 101.43672 
L 213.233787 101.43672 
L 213.233787 100.383348 
L 214.446488 100.383348 
L 214.446488 98.803289 
L 216.673515 98.803289 
L 216.673515 96.169859 
L 218.2435 96.169859 
L 218.2435 95.116487 
L 219.437452 95.116487 
L 219.437452 93.536429 
L 220.517458 93.536429 
L 220.517458 93.009743 
L 220.885809 93.009743 
L 220.885809 90.376312 
L 222.130608 90.376312 
L 222.130608 89.32294 
L 223.092453 89.32294 
L 223.092453 88.796254 
L 224.27602 88.796254 
L 224.27602 87.742882 
L 225.307261 87.742882 
L 225.307261 85.109451 
L 226.112569 85.109451 
L 226.112569 84.582765 
L 227.113222 84.582765 
L 227.113222 83.002707 
L 227.993463 83.002707 
L 227.993463 82.476021 
L 228.68606 82.476021 
L 228.68606 81.422649 
L 229.552778 81.422649 
L 229.552778 79.315904 
L 230.320599 79.315904 
L 230.320599 78.262532 
L 230.928164 78.262532 
L 230.928164 77.735846 
L 231.692573 77.735846 
L 231.692573 75.629102 
L 232.37344 75.629102 
L 232.37344 74.049044 
L 233.598277 74.049044 
L 233.598277 72.468985 
L 234.209883 72.468985 
L 234.209883 70.888927 
L 235.156024 70.888927 
L 235.156024 70.362241 
L 235.316096 70.362241 
L 235.316096 68.782183 
L 235.871232 68.782183 
L 235.871232 68.255497 
L 236.31526 68.255497 
L 236.31526 67.728811 
L 236.879774 67.728811 
L 236.879774 65.622066 
L 237.387988 65.622066 
L 237.387988 65.09538 
L 238.783316 65.09538 
L 238.783316 64.568694 
L 239.640502 64.568694 
L 239.640502 63.515322 
L 241.277998 63.515322 
L 241.277998 62.988636 
L 242.40314 62.988636 
L 242.40314 62.46195 
L 243.10283 62.46195 
L 243.10283 61.935264 
L 244.119381 61.935264 
L 244.119381 61.408578 
L 245.990315 61.408578 
L 245.990315 60.355206 
L 246.539177 60.355206 
L 246.539177 59.82852 
L 251.525992 59.82852 
L 251.525992 59.301833 
L 251.944055 59.301833 
L 251.944055 58.775147 
L 253.739793 58.775147 
L 253.739793 58.248461 
L 255.878314 58.248461 
L 255.878314 57.721775 
L 258.662629 57.721775 
L 258.662629 57.195089 
L 264.449371 57.195089 
L 264.449371 56.668403 
L 338.688 56.668403 
L 338.688 56.668403 
" style="fill:none;stroke:#000080;stroke-linecap:square;stroke-width:1.5;"/>
   </g>
   <g id="line2d_36">
    <defs>
     <path d="M 0 6 
C 1.591219 6 3.117479 5.367802 4.242641 4.242641 
C 5.367802 3.117479 6 1.591219 6 0 
C 6 -1.591219 5.367802 -3.117479 4.242641 -4.242641 
C 3.117479 -5.367802 1.591219 -6 0 -6 
C -1.591219 -6 -3.117479 -5.367802 -4.242641 -4.242641 
C -5.367802 -3.117479 -6 -1.591219 -6 0 
C -6 1.591219 -5.367802 3.117479 -4.242641 4.242641 
C -3.117479 5.367802 -1.591219 6 0 6 
z
" id="medede33ee9" style="stroke:#000080;stroke-width:1.5;"/>
    </defs>
    <g>
     <use style="fill-opacity:0;stroke:#000080;stroke-width:1.5;" x="134.343353" xlink:href="#medede33ee9" y="212.567483"/>
     <use style="fill-opacity:0;stroke:#000080;stroke-width:1.5;" x="179.862667" xlink:href="#medede33ee9" y="148.838467"/>
     <use style="fill-opacity:0;stroke:#000080;stroke-width:1.5;" x="255.878314" xlink:href="#medede33ee9" y="58.248461"/>
     <use style="fill-opacity:0;stroke:#000080;stroke-width:1.5;" x="264.449371" xlink:href="#medede33ee9" y="56.668403"/>
     <use style="fill-opacity:0;stroke:#000080;stroke-width:1.5;" x="264.449371" xlink:href="#medede33ee9" y="56.668403"/>
     <use style="fill-opacity:0;stroke:#000080;stroke-width:1.5;" x="338.688" xlink:href="#medede33ee9" y="56.668403"/>
    </g>
   </g>
   <g id="line2d_37">
    <path style="fill:none;stroke:#000080;stroke-linecap:square;stroke-width:1.5;"/>
    <g/>
   </g>
   <g id="line2d_38">
    <path clip-path="url(#p12d44fddbf)" d="M 194.045737 132.511199 
" style="fill:none;stroke:#000080;stroke-linecap:square;stroke-width:1.5;"/>
    <defs>
     <path d="M -12 12 
L 12 -12 
M -12 -12 
L 12 12 
" id="mcb3512f29f" style="stroke:#000080;"/>
    </defs>
    <g clip-path="url(#p12d44fddbf)">
     <use style="fill:#000080;stroke:#000080;" x="194.045737" xlink:href="#mcb3512f29f" y="132.511199"/>
    </g>
   </g>
   <g id="line2d_39">
    <defs>
     <path d="M 0 1.5 
C 0.397805 1.5 0.77937 1.341951 1.06066 1.06066 
C 1.341951 0.77937 1.5 0.397805 1.5 0 
C 1.5 -0.397805 1.341951 -0.77937 1.06066 -1.06066 
C 0.77937 -1.341951 0.397805 -1.5 0 -1.5 
C -0.397805 -1.5 -0.77937 -1.341951 -1.06066 -1.06066 
C -1.341951 -0.77937 -1.5 -0.397805 -1.5 0 
C -1.5 0.397805 -1.341951 0.77937 -1.06066 1.06066 
C -0.77937 1.341951 -0.397805 1.5 0 1.5 
z
" id="m4b20923cdd" style="stroke:#ff7500;"/>
    </defs>
    <g>
     <use style="fill:#ff7500;stroke:#ff7500;" x="228.23673" xlink:href="#m4b20923cdd" y="30.334099"/>
     <use style="fill:#ff7500;stroke:#ff7500;" x="228.23673" xlink:href="#m4b20923cdd" y="30.334099"/>
    </g>
   </g>
   <g id="line2d_40">
    <path d="M 45.512012 298.944 
L 45.512012 284.723476 
L 57.6 284.723476 
L 57.6 280.509987 
L 64.67102 280.509987 
L 64.67102 272.609696 
L 69.687988 272.609696 
L 69.687988 269.449579 
L 73.579452 269.449579 
L 73.579452 267.342835 
L 79.447285 267.342835 
L 79.447285 264.182719 
L 81.775977 264.182719 
L 81.775977 263.129347 
L 83.830028 263.129347 
L 83.830028 262.60266 
L 90.242884 262.60266 
L 90.242884 262.075974 
L 91.535274 262.075974 
L 91.535274 261.022602 
L 92.73846 261.022602 
L 92.73846 258.915858 
L 94.921215 258.915858 
L 94.921215 256.282427 
L 96.86091 256.282427 
L 96.86091 255.229055 
L 98.606294 255.229055 
L 98.606294 253.648997 
L 99.41757 253.648997 
L 99.41757 253.122311 
L 100.192776 253.122311 
L 100.192776 249.962195 
L 100.934985 249.962195 
L 100.934985 248.382136 
L 103.623262 248.382136 
L 103.623262 246.802078 
L 105.398279 246.802078 
L 105.398279 245.748706 
L 107.514726 245.748706 
L 107.514726 245.22202 
L 108.948899 245.22202 
L 108.948899 244.168648 
L 111.505558 244.168648 
L 111.505558 243.115275 
L 120.093994 243.115275 
L 120.093994 241.535217 
L 120.33454 241.535217 
L 120.33454 240.481845 
L 121.931406 240.481845 
L 121.931406 238.375101 
L 122.362027 238.375101 
L 122.362027 236.268356 
L 124.368753 236.268356 
L 124.368753 235.214984 
L 124.743806 235.214984 
L 124.743806 228.894751 
L 126.673734 228.894751 
L 126.673734 228.368065 
L 127.002787 228.368065 
L 127.002787 226.788007 
L 131.938072 226.788007 
L 131.938072 226.261321 
L 134.019394 226.261321 
L 134.12805 222.574518 
L 134.55603 222.574518 
L 134.55603 222.047832 
L 135.97629 222.047832 
L 135.97629 220.467774 
L 139.253002 220.467774 
L 139.253002 219.414402 
L 139.887228 219.414402 
L 139.887228 217.307658 
L 140.042245 217.307658 
L 140.042245 214.674227 
L 140.64889 214.674227 
L 140.64889 214.147541 
L 140.871049 214.147541 
L 140.871049 213.620855 
L 141.941279 213.620855 
L 141.941279 209.407366 
L 142.351634 209.407366 
L 142.351634 207.827308 
L 144.269971 207.827308 
L 144.269971 207.300622 
L 144.688773 207.300622 
L 144.688773 206.773936 
L 144.923649 206.773936 
L 144.923649 204.667192 
L 145.039911 204.667192 
L 145.039911 203.613819 
L 146.107383 203.613819 
L 146.107383 202.033761 
L 146.906268 202.033761 
L 146.906268 200.980389 
L 147.4697 200.980389 
L 147.4697 199.927017 
L 149.557321 199.927017 
L 149.557321 199.400331 
L 149.823575 199.400331 
L 149.911431 193.080098 
L 150.429467 193.080098 
L 150.429467 191.50004 
L 150.973835 191.50004 
L 150.973835 188.339923 
L 151.219462 188.339923 
L 151.219462 186.759865 
L 152.207228 186.759865 
L 152.207228 185.706493 
L 152.587184 185.706493 
L 152.587184 184.126434 
L 153.715038 184.126434 
L 153.715038 182.546376 
L 153.890309 182.546376 
L 153.890309 182.01969 
L 154.405793 182.01969 
L 154.473387 176.752829 
L 155.135299 176.752829 
L 155.135299 171.485969 
L 157.185742 171.485969 
L 157.185742 170.432596 
L 157.528821 170.432596 
L 157.528821 167.799166 
L 157.725877 167.799166 
L 157.781772 165.692422 
L 158.031107 165.692422 
L 158.031107 165.165736 
L 158.331086 165.165736 
L 158.331086 162.532305 
L 158.51933 162.532305 
L 158.599388 159.372189 
L 158.732007 159.372189 
L 158.732007 156.738758 
L 159.303838 156.738758 
L 159.303838 153.578642 
L 159.956318 153.578642 
L 159.956318 148.311781 
L 160.585265 148.311781 
L 160.585265 147.785095 
L 160.961329 147.785095 
L 161.007772 140.41149 
L 161.510643 140.41149 
L 161.510643 139.884804 
L 161.778945 139.884804 
L 161.778945 139.358118 
L 162.043181 139.358118 
L 162.152109 137.778059 
L 162.644595 137.778059 
L 162.644595 137.251373 
L 162.896128 137.251373 
L 162.896128 136.724687 
L 163.408783 136.724687 
L 163.408783 134.091257 
L 163.569701 134.091257 
L 163.609699 131.457826 
L 163.788565 131.457826 
L 163.788565 130.93114 
L 163.906798 130.93114 
L 163.906798 130.404454 
L 164.256762 130.404454 
L 164.256762 128.29771 
L 164.371873 128.29771 
L 164.410075 126.717652 
L 164.580957 126.717652 
L 164.637547 125.137593 
L 164.824867 125.137593 
L 164.824867 124.084221 
L 164.991751 124.084221 
L 165.065412 120.924105 
L 165.266391 120.924105 
L 165.375047 119.870733 
L 165.59035 119.870733 
L 165.59035 118.817361 
L 165.76776 118.817361 
L 165.76776 117.763988 
L 166.047915 117.763988 
L 166.117256 115.657244 
L 166.272273 115.657244 
L 166.34073 113.023814 
L 166.425924 113.023814 
L 166.425924 109.863697 
L 166.695783 109.863697 
L 166.695783 109.337011 
L 167.174506 109.337011 
L 167.174506 108.810325 
L 167.481174 108.810325 
L 167.481174 108.283639 
L 167.719528 108.283639 
L 167.735303 106.176895 
L 167.87664 106.176895 
L 167.892273 104.596836 
L 168.01684 104.596836 
L 168.01684 104.07015 
L 168.140524 104.07015 
L 168.140524 101.963406 
L 168.293904 101.963406 
L 168.339657 96.696545 
L 168.415645 96.696545 
L 168.415645 94.589801 
L 168.746115 94.589801 
L 168.746115 94.063115 
L 168.9532 94.063115 
L 169.026567 91.95637 
L 169.331381 91.95637 
L 169.331381 90.902998 
L 169.545889 90.902998 
L 169.545889 90.376312 
L 169.715615 90.376312 
L 169.813865 88.269568 
L 170.228776 88.269568 
L 170.228776 86.68951 
L 170.540321 86.68951 
L 170.540321 85.109451 
L 170.700684 85.109451 
L 170.700684 84.582765 
L 170.872762 84.582765 
L 170.872762 80.895963 
L 171.056197 80.895963 
L 171.056197 79.842591 
L 171.314944 79.842591 
L 171.314944 79.315904 
L 171.58256 79.315904 
L 171.67086 77.20916 
L 171.808721 77.20916 
L 171.808721 76.155788 
L 172.215882 76.155788 
L 172.325296 75.102416 
L 172.337411 75.102416 
L 172.337411 74.049044 
L 172.518131 74.049044 
L 172.518131 73.522358 
L 172.732551 73.522358 
L 172.732551 72.468985 
L 172.920958 72.468985 
L 172.920958 71.942299 
L 173.257343 71.942299 
L 173.257343 71.415613 
L 173.777957 71.415613 
L 173.777957 70.888927 
L 174.605444 70.888927 
L 174.605444 70.362241 
L 175.415753 70.362241 
L 175.415753 69.835555 
L 180.952739 69.835555 
L 180.952739 69.308869 
L 194.903245 69.308869 
L 194.903245 68.782183 
L 195.212612 68.782183 
L 195.212612 68.255497 
L 195.378191 68.255497 
L 195.462003 66.148752 
L 195.755375 66.148752 
L 195.824804 61.935264 
L 196.071864 61.935264 
L 196.127669 60.355206 
L 196.183297 60.355206 
L 196.275617 58.248461 
L 196.355235 58.248461 
L 196.355235 55.615031 
L 196.483085 55.615031 
L 196.48915 54.561659 
L 196.74796 54.561659 
L 196.84626 53.508287 
L 196.887797 53.508287 
L 196.887797 52.9816 
L 197.038276 52.9816 
L 197.108643 50.874856 
L 197.236916 50.874856 
L 197.300701 47.71474 
L 197.430448 47.71474 
L 197.527842 45.607995 
L 197.582032 45.607995 
L 197.582032 45.081309 
L 197.718189 45.081309 
L 197.718189 44.554623 
L 197.90648 44.554623 
L 198.009597 42.974565 
L 198.073391 42.974565 
L 198.181033 40.867821 
L 198.293483 40.867821 
L 198.293483 40.341135 
L 198.591644 40.341135 
L 198.591644 39.814448 
L 198.792051 39.814448 
L 198.792051 39.287762 
L 207.012803 39.287762 
L 207.012803 38.761076 
L 207.176197 38.761076 
L 207.176197 38.23439 
L 207.326678 38.23439 
L 207.39819 37.181018 
L 207.590143 37.181018 
L 207.694106 36.127646 
L 207.961543 36.127646 
L 207.961543 35.60096 
L 208.302113 35.60096 
L 208.302113 34.547588 
L 208.414175 34.547588 
L 208.414175 34.020902 
L 214.473535 34.020902 
L 214.487583 32.967529 
L 214.679869 32.967529 
L 214.679869 32.440843 
L 218.974311 32.440843 
L 219.030176 31.387471 
L 219.339588 31.387471 
L 219.339588 30.860785 
L 228.23673 30.860785 
L 228.23673 30.334099 
L 338.688 30.334099 
L 338.688 30.334099 
" style="fill:none;stroke:#ff7500;stroke-linecap:square;stroke-width:1.5;"/>
   </g>
   <g id="line2d_41">
    <defs>
     <path d="M 0 -6 
L -1.347084 -1.854102 
L -5.706339 -1.854102 
L -2.179628 0.708204 
L -3.526712 4.854102 
L -0 2.291796 
L 3.526712 4.854102 
L 2.179628 0.708204 
L 5.706339 -1.854102 
L 1.347084 -1.854102 
z
" id="m5077418c94" style="stroke:#ff7500;stroke-linejoin:bevel;stroke-width:1.5;"/>
    </defs>
    <g>
     <use style="fill-opacity:0;stroke:#ff7500;stroke-linejoin:bevel;stroke-width:1.5;" x="131.938072" xlink:href="#m5077418c94" y="226.261321"/>
     <use style="fill-opacity:0;stroke:#ff7500;stroke-linejoin:bevel;stroke-width:1.5;" x="166.425924" xlink:href="#m5077418c94" y="113.023814"/>
     <use style="fill-opacity:0;stroke:#ff7500;stroke-linejoin:bevel;stroke-width:1.5;" x="207.326678" xlink:href="#m5077418c94" y="38.23439"/>
     <use style="fill-opacity:0;stroke:#ff7500;stroke-linejoin:bevel;stroke-width:1.5;" x="228.23673" xlink:href="#m5077418c94" y="30.334099"/>
     <use style="fill-opacity:0;stroke:#ff7500;stroke-linejoin:bevel;stroke-width:1.5;" x="228.23673" xlink:href="#m5077418c94" y="30.334099"/>
     <use style="fill-opacity:0;stroke:#ff7500;stroke-linejoin:bevel;stroke-width:1.5;" x="338.688" xlink:href="#m5077418c94" y="30.334099"/>
    </g>
   </g>
   <g id="line2d_42">
    <path style="fill:none;stroke:#ff7500;stroke-linecap:square;stroke-width:1.5;"/>
    <g/>
   </g>
   <g id="line2d_43">
    <path clip-path="url(#p12d44fddbf)" d="M 194.045737 69.308869 
" style="fill:none;stroke:#ff7500;stroke-linecap:square;stroke-width:1.5;"/>
    <defs>
     <path d="M -12 12 
L 12 -12 
M -12 -12 
L 12 12 
" id="meda97f83d5" style="stroke:#ff7500;"/>
    </defs>
    <g clip-path="url(#p12d44fddbf)">
     <use style="fill:#ff7500;stroke:#ff7500;" x="194.045737" xlink:href="#meda97f83d5" y="69.308869"/>
    </g>
   </g>
   <g id="line2d_44">
    <defs>
     <path d="M 0 1.5 
C 0.397805 1.5 0.77937 1.341951 1.06066 1.06066 
C 1.341951 0.77937 1.5 0.397805 1.5 0 
C 1.5 -0.397805 1.341951 -0.77937 1.06066 -1.06066 
C 0.77937 -1.341951 0.397805 -1.5 0 -1.5 
C -0.397805 -1.5 -0.77937 -1.341951 -1.06066 -1.06066 
C -1.341951 -0.77937 -1.5 -0.397805 -1.5 0 
C -1.5 0.397805 -1.341951 0.77937 -1.06066 1.06066 
C -0.77937 1.341951 -0.397805 1.5 0 1.5 
z
" id="m5e3058fba2" style="stroke:#6495ed;"/>
    </defs>
    <g>
     <use style="fill:#6495ed;stroke:#6495ed;" x="187.46309" xlink:href="#m5e3058fba2" y="30.334099"/>
     <use style="fill:#6495ed;stroke:#6495ed;" x="187.46309" xlink:href="#m5e3058fba2" y="30.334099"/>
    </g>
   </g>
   <g id="line2d_45">
    <path d="M 45.512012 298.944 
L 45.512012 284.723476 
L 57.6 284.723476 
L 57.6 280.509987 
L 64.67102 280.509987 
L 64.67102 272.609696 
L 69.687988 272.609696 
L 69.687988 270.502952 
L 73.579452 270.502952 
L 73.579452 266.816149 
L 79.447285 266.816149 
L 79.447285 263.656033 
L 81.775977 263.656033 
L 81.775977 261.549288 
L 83.830028 261.549288 
L 83.830028 260.495916 
L 90.242884 260.495916 
L 90.242884 259.96923 
L 91.535274 259.96923 
L 91.535274 258.915858 
L 92.73846 258.915858 
L 92.73846 256.809114 
L 94.921215 256.809114 
L 94.921215 254.702369 
L 96.86091 254.702369 
L 96.86091 254.175683 
L 98.606294 254.175683 
L 98.606294 252.595625 
L 100.192776 252.595625 
L 100.192776 249.962195 
L 100.934985 249.962195 
L 100.934985 248.908822 
L 101.646892 248.908822 
L 101.646892 248.382136 
L 105.398279 248.382136 
L 105.398279 247.328764 
L 107.514726 247.328764 
L 107.514726 245.748706 
L 108.948899 245.748706 
L 108.948899 244.168648 
L 111.505558 244.168648 
L 111.505558 242.061903 
L 113.382559 242.061903 
L 113.382559 241.535217 
L 114.080224 241.535217 
L 114.080224 239.955159 
L 114.418861 239.955159 
L 114.418861 237.848415 
L 115.397021 237.848415 
L 115.397021 236.268356 
L 117.486268 236.268356 
L 117.486268 235.74167 
L 120.093994 235.74167 
L 120.093994 234.688298 
L 126.673734 234.688298 
L 126.673734 234.161612 
L 127.002787 234.161612 
L 127.002787 233.10824 
L 128.107907 233.10824 
L 128.107907 231.528182 
L 128.560901 231.528182 
L 128.560901 231.001496 
L 131.185181 231.001496 
L 131.185181 228.894751 
L 131.439773 228.894751 
L 131.439773 227.841379 
L 132.893889 227.841379 
L 132.893889 226.788007 
L 133.689303 226.788007 
L 133.800029 225.734635 
L 134.450015 225.734635 
L 134.450015 224.154577 
L 135.97629 224.154577 
L 135.97629 223.101204 
L 136.456742 223.101204 
L 136.551264 217.307658 
L 138.761723 217.307658 
L 138.761723 213.094169 
L 139.172077 213.094169 
L 139.172077 212.567483 
L 139.964909 212.567483 
L 139.964909 210.987425 
L 140.348205 210.987425 
L 140.423864 206.773936 
L 140.574203 206.773936 
L 140.574203 205.720564 
L 141.732423 205.720564 
L 141.732423 202.560447 
L 141.871938 202.560447 
L 141.871938 202.033761 
L 142.752555 202.033761 
L 142.752555 199.927017 
L 144.390658 199.927017 
L 144.390658 197.820273 
L 145.440832 197.820273 
L 145.440832 196.240214 
L 146.052799 196.240214 
L 146.052799 195.713528 
L 146.958248 195.713528 
L 147.061745 193.080098 
L 147.113265 193.080098 
L 147.113265 192.553412 
L 147.368603 192.553412 
L 147.368603 190.973354 
L 148.306159 190.973354 
L 148.306159 189.919981 
L 148.497276 189.919981 
L 148.497276 186.233179 
L 149.012299 186.233179 
L 149.012299 185.706493 
L 149.779481 185.706493 
L 149.779481 184.653121 
L 150.042389 184.653121 
L 150.042389 183.599748 
L 150.724698 183.599748 
L 150.724698 182.546376 
L 152.0141 182.546376 
L 152.091608 181.493004 
L 152.283884 181.493004 
L 152.283884 180.966318 
L 152.511852 180.966318 
L 152.511852 179.912946 
L 152.995791 179.912946 
L 152.995791 176.752829 
L 153.142033 176.752829 
L 153.142033 175.699457 
L 154.405793 175.699457 
L 154.405793 175.172771 
L 154.57429 175.172771 
L 154.674612 171.485969 
L 154.77436 171.485969 
L 154.77436 170.959282 
L 155.004911 170.959282 
L 155.004911 169.90591 
L 155.361158 169.90591 
L 155.361158 168.852538 
L 157.1279 168.852538 
L 157.1279 167.799166 
L 157.300853 167.799166 
L 157.300853 166.219108 
L 158.031107 166.219108 
L 158.031107 165.692422 
L 158.705563 165.692422 
L 158.75841 164.112363 
L 159.456591 164.112363 
L 159.456591 163.585677 
L 159.633129 163.585677 
L 159.633129 163.058991 
L 159.857512 163.058991 
L 159.882266 157.79213 
L 160.103486 157.79213 
L 160.103486 157.265444 
L 160.297798 157.265444 
L 160.297798 154.632014 
L 161.352206 154.632014 
L 161.352206 154.105328 
L 161.933569 154.105328 
L 161.999419 150.418525 
L 162.238764 150.418525 
L 162.238764 149.891839 
L 163.748975 149.891839 
L 163.748975 147.258409 
L 164.19892 147.258409 
L 164.19892 146.731723 
L 164.410075 146.731723 
L 164.505216 141.991548 
L 164.524182 141.991548 
L 164.599841 135.671315 
L 164.675172 135.671315 
L 164.675172 134.617943 
L 164.880672 134.617943 
L 164.880672 130.93114 
L 165.138764 130.93114 
L 165.157053 129.351082 
L 165.518877 129.351082 
L 165.518877 126.717652 
L 165.838222 126.717652 
L 165.838222 125.137593 
L 166.679039 125.137593 
L 166.779265 120.924105 
L 168.171308 120.924105 
L 168.232714 118.817361 
L 168.385289 118.817361 
L 168.46108 114.603872 
L 168.701418 114.603872 
L 168.701418 113.023814 
L 168.923766 113.023814 
L 169.011918 107.756953 
L 169.215888 107.756953 
L 169.215888 106.176895 
L 169.799863 106.176895 
L 169.855803 104.07015 
L 170.119095 104.07015 
L 170.119095 100.383348 
L 170.526891 100.383348 
L 170.607318 94.589801 
L 170.660731 94.589801 
L 170.660731 92.483056 
L 171.147196 92.483056 
L 171.147196 90.902998 
L 171.883461 90.902998 
L 171.908303 86.68951 
L 173.037687 86.68951 
L 173.037687 84.056079 
L 173.417442 84.056079 
L 173.417442 80.895963 
L 173.654869 80.895963 
L 173.654869 80.369277 
L 174.488079 80.369277 
L 174.488079 78.789218 
L 174.647927 78.789218 
L 174.647927 78.262532 
L 175.149812 78.262532 
L 175.170413 76.155788 
L 176.131719 76.155788 
L 176.131719 71.415613 
L 176.315853 71.415613 
L 176.315853 68.782183 
L 176.894213 68.782183 
L 176.894213 66.675439 
L 177.864572 66.675439 
L 177.864572 64.568694 
L 178.118525 64.568694 
L 178.118525 61.935264 
L 178.325932 61.935264 
L 178.325932 59.301833 
L 178.56483 59.301833 
L 178.56483 58.775147 
L 179.172706 58.775147 
L 179.172706 58.248461 
L 179.791727 58.248461 
L 179.894103 56.668403 
L 180.841542 56.668403 
L 180.923155 48.768112 
L 181.033834 48.768112 
L 181.033834 44.554623 
L 181.303877 44.554623 
L 181.368935 41.394507 
L 182.062072 41.394507 
L 182.062072 40.867821 
L 182.742052 40.867821 
L 182.742052 37.707704 
L 183.196243 37.707704 
L 183.196243 35.074274 
L 183.35149 35.074274 
L 183.409353 32.440843 
L 183.840444 32.440843 
L 183.840444 31.914157 
L 184.856021 31.914157 
L 184.856021 31.387471 
L 185.148928 31.387471 
L 185.148928 30.860785 
L 187.46309 30.860785 
L 187.46309 30.334099 
L 338.688 30.334099 
L 338.688 30.334099 
" style="fill:none;stroke:#6495ed;stroke-linecap:square;stroke-width:1.5;"/>
   </g>
   <g id="line2d_46">
    <defs>
     <path d="M -0 6 
L 6 -6 
L -6 -6 
z
" id="m952a8379a1" style="stroke:#6495ed;stroke-linejoin:miter;stroke-width:1.5;"/>
    </defs>
    <g>
     <use style="fill-opacity:0;stroke:#6495ed;stroke-linejoin:miter;stroke-width:1.5;" x="127.002787" xlink:href="#m952a8379a1" y="234.161612"/>
     <use style="fill-opacity:0;stroke:#6495ed;stroke-linejoin:miter;stroke-width:1.5;" x="169.215888" xlink:href="#m952a8379a1" y="106.176895"/>
     <use style="fill-opacity:0;stroke:#6495ed;stroke-linejoin:miter;stroke-width:1.5;" x="187.46309" xlink:href="#m952a8379a1" y="30.860785"/>
     <use style="fill-opacity:0;stroke:#6495ed;stroke-linejoin:miter;stroke-width:1.5;" x="187.46309" xlink:href="#m952a8379a1" y="30.334099"/>
     <use style="fill-opacity:0;stroke:#6495ed;stroke-linejoin:miter;stroke-width:1.5;" x="187.46309" xlink:href="#m952a8379a1" y="30.334099"/>
     <use style="fill-opacity:0;stroke:#6495ed;stroke-linejoin:miter;stroke-width:1.5;" x="338.688" xlink:href="#m952a8379a1" y="30.334099"/>
    </g>
   </g>
   <g id="line2d_47">
    <path style="fill:none;stroke:#6495ed;stroke-linecap:square;stroke-width:1.5;"/>
    <g/>
   </g>
   <g id="line2d_48">
    <defs>
     <path d="M 0 1.5 
C 0.397805 1.5 0.77937 1.341951 1.06066 1.06066 
C 1.341951 0.77937 1.5 0.397805 1.5 0 
C 1.5 -0.397805 1.341951 -0.77937 1.06066 -1.06066 
C 0.77937 -1.341951 0.397805 -1.5 0 -1.5 
C -0.397805 -1.5 -0.77937 -1.341951 -1.06066 -1.06066 
C -1.341951 -0.77937 -1.5 -0.397805 -1.5 0 
C -1.5 0.397805 -1.341951 0.77937 -1.06066 1.06066 
C -0.77937 1.341951 -0.397805 1.5 0 1.5 
z
" id="mb78a1831c4" style="stroke:#ff0000;"/>
    </defs>
    <g>
     <use style="fill:#ff0000;stroke:#ff0000;" x="186.131524" xlink:href="#mb78a1831c4" y="30.334099"/>
     <use style="fill:#ff0000;stroke:#ff0000;" x="186.131524" xlink:href="#mb78a1831c4" y="30.334099"/>
    </g>
   </g>
   <g id="line2d_49">
    <path d="M 45.512012 298.944 
L 45.512012 282.616732 
L 57.6 282.616732 
L 57.6 279.456615 
L 64.67102 279.456615 
L 64.67102 273.663068 
L 69.687988 273.663068 
L 69.687988 269.976266 
L 73.579452 269.976266 
L 73.579452 267.869521 
L 79.447285 267.869521 
L 79.447285 266.289463 
L 81.775977 266.289463 
L 81.775977 264.182719 
L 83.830028 264.182719 
L 83.830028 263.129347 
L 90.242884 263.129347 
L 90.242884 261.549288 
L 91.535274 261.549288 
L 91.535274 260.495916 
L 92.73846 260.495916 
L 92.73846 258.389172 
L 94.921215 258.389172 
L 94.921215 256.282427 
L 96.86091 256.282427 
L 96.86091 255.755741 
L 98.606294 255.755741 
L 98.606294 253.648997 
L 99.41757 253.648997 
L 99.41757 253.122311 
L 100.192776 253.122311 
L 100.192776 250.488881 
L 100.934985 250.488881 
L 100.934985 249.435508 
L 101.646892 249.435508 
L 101.646892 248.908822 
L 103.623262 248.908822 
L 103.623262 247.85545 
L 105.398279 247.85545 
L 105.398279 246.802078 
L 107.514726 246.802078 
L 107.514726 245.22202 
L 108.948899 245.22202 
L 108.948899 243.641962 
L 111.505558 243.641962 
L 111.505558 239.955159 
L 113.382559 239.955159 
L 113.382559 239.428473 
L 113.73488 239.428473 
L 113.73488 238.375101 
L 114.080224 238.375101 
L 114.080224 237.848415 
L 117.202696 237.848415 
L 117.202696 236.268356 
L 122.573415 236.268356 
L 122.573415 234.161612 
L 122.782271 234.161612 
L 122.782271 232.581554 
L 124.368753 232.581554 
L 124.368753 231.001496 
L 124.557288 231.001496 
L 124.557288 229.421437 
L 125.996395 229.421437 
L 125.996395 228.894751 
L 127.165014 228.894751 
L 127.165014 228.368065 
L 127.48501 228.368065 
L 127.48501 226.261321 
L 129.714332 226.261321 
L 129.714332 224.154577 
L 130.263646 224.154577 
L 130.263646 222.047832 
L 131.565689 222.047832 
L 131.565689 219.414402 
L 132.060454 219.414402 
L 132.060454 217.307658 
L 132.422528 217.307658 
L 132.422528 216.780971 
L 132.659801 216.780971 
L 132.659801 215.200913 
L 134.55603 215.200913 
L 134.55603 212.567483 
L 134.973757 212.567483 
L 134.973757 211.514111 
L 136.170062 211.514111 
L 136.170062 210.987425 
L 136.645276 210.987425 
L 136.645276 209.934052 
L 136.831795 209.934052 
L 136.924311 206.24725 
L 137.469333 206.24725 
L 137.469333 205.720564 
L 137.997836 205.720564 
L 137.997836 205.193878 
L 138.426341 205.193878 
L 138.510793 200.980389 
L 138.761723 200.980389 
L 138.761723 199.927017 
L 139.730821 199.927017 
L 139.730821 197.293586 
L 140.195896 197.293586 
L 140.195896 196.240214 
L 140.574203 196.240214 
L 140.574203 195.713528 
L 140.871049 195.713528 
L 140.871049 195.186842 
L 141.307054 195.186842 
L 141.307054 193.080098 
L 142.010346 193.080098 
L 142.07914 189.393295 
L 142.351634 189.393295 
L 142.351634 186.233179 
L 142.818488 186.233179 
L 142.818488 185.179807 
L 143.079756 185.179807 
L 143.079756 183.599748 
L 143.273169 183.599748 
L 143.273169 182.546376 
L 143.840863 182.546376 
L 143.840863 180.439632 
L 145.327221 180.439632 
L 145.327221 176.226143 
L 145.609873 176.226143 
L 145.609873 174.646085 
L 145.888018 174.646085 
L 145.888018 173.066027 
L 146.216039 173.066027 
L 146.216039 169.90591 
L 147.215849 169.90591 
L 147.215849 166.745794 
L 147.769524 166.745794 
L 147.769524 166.219108 
L 148.497276 166.219108 
L 148.497276 164.112363 
L 148.780082 164.112363 
L 148.87334 162.532305 
L 149.058374 162.532305 
L 149.058374 159.898875 
L 149.646525 159.898875 
L 149.646525 156.738758 
L 150.129152 156.738758 
L 150.129152 156.212072 
L 150.429467 156.212072 
L 150.429467 149.891839 
L 150.766468 149.891839 
L 150.766468 149.365153 
L 151.260066 149.365153 
L 151.260066 148.311781 
L 151.461678 148.311781 
L 151.461678 144.624978 
L 151.818809 144.624978 
L 151.818809 144.098292 
L 153.250915 144.098292 
L 153.359122 140.41149 
L 153.679772 140.41149 
L 153.715038 137.778059 
L 153.855395 137.778059 
L 153.855395 137.251373 
L 154.132765 137.251373 
L 154.132765 136.198001 
L 154.405793 136.198001 
L 154.405793 135.671315 
L 155.520713 135.671315 
L 155.520713 133.037885 
L 155.647315 133.037885 
L 155.647315 124.610907 
L 155.773004 124.610907 
L 155.773004 123.030849 
L 155.928852 123.030849 
L 155.928852 111.443755 
L 156.38821 111.443755 
L 156.448553 110.390383 
L 157.1279 110.390383 
L 157.214591 106.703581 
L 157.557108 106.703581 
L 157.557108 106.176895 
L 158.465753 106.176895 
L 158.465753 105.650209 
L 159.123917 105.650209 
L 159.123917 104.596836 
L 159.956318 104.596836 
L 160.054568 97.223231 
L 160.273627 97.223231 
L 160.273627 96.696545 
L 161.712255 96.696545 
L 161.712255 94.589801 
L 161.88953 94.589801 
L 161.88953 92.483056 
L 162.707819 92.483056 
L 162.707819 91.95637 
L 162.833584 91.95637 
L 162.833584 90.376312 
L 163.061823 90.376312 
L 163.061823 89.32294 
L 163.348054 89.32294 
L 163.428979 87.216196 
L 163.50953 87.216196 
L 163.52961 80.895963 
L 163.926426 80.895963 
L 164.024234 76.682474 
L 164.390984 76.682474 
L 164.390984 75.102416 
L 164.693955 75.102416 
L 164.693955 74.049044 
L 165.083779 74.049044 
L 165.083779 71.415613 
L 165.59035 71.415613 
L 165.679281 68.255497 
L 165.785402 68.255497 
L 165.785402 67.728811 
L 166.203547 67.728811 
L 166.203547 66.148752 
L 166.878918 66.148752 
L 166.878918 64.042008 
L 167.813965 64.042008 
L 167.813965 63.515322 
L 168.248032 63.515322 
L 168.248032 62.988636 
L 168.551595 62.988636 
L 168.551595 62.46195 
L 168.760989 62.46195 
L 168.760989 61.935264 
L 169.011918 61.935264 
L 169.011918 61.408578 
L 169.316986 61.408578 
L 169.316986 60.881892 
L 169.967148 60.881892 
L 169.967148 60.355206 
L 170.59394 60.355206 
L 170.59394 59.82852 
L 170.938496 59.82852 
L 170.938496 57.195089 
L 171.531901 57.195089 
L 171.531901 56.141717 
L 172.228073 56.141717 
L 172.228073 55.615031 
L 172.779844 55.615031 
L 172.827009 52.9816 
L 173.014404 52.9816 
L 173.014404 51.928228 
L 173.211329 51.928228 
L 173.211329 51.401542 
L 173.428822 51.401542 
L 173.428822 50.34817 
L 173.722116 50.34817 
L 173.722116 49.294798 
L 174.065485 49.294798 
L 174.065485 45.081309 
L 174.455933 45.081309 
L 174.455933 42.974565 
L 174.785287 42.974565 
L 174.785287 41.921193 
L 176.257915 41.921193 
L 176.257915 40.867821 
L 176.517133 40.867821 
L 176.517133 39.287762 
L 176.866214 39.287762 
L 176.866214 37.181018 
L 177.943781 37.181018 
L 177.943781 36.654332 
L 180.16678 36.654332 
L 180.16678 36.127646 
L 180.518792 36.127646 
L 180.549068 35.074274 
L 184.119975 35.074274 
L 184.119975 34.547588 
L 185.038202 34.547588 
L 185.038202 33.494215 
L 185.235849 33.494215 
L 185.235849 31.914157 
L 186.131524 31.914157 
L 186.131524 30.334099 
L 338.688 30.334099 
L 338.688 30.334099 
" style="fill:none;stroke:#ff0000;stroke-linecap:square;stroke-width:1.5;"/>
   </g>
   <g id="line2d_50">
    <defs>
     <path d="M 0 -6 
L -5.196152 -3 
L -5.196152 3 
L -0 6 
L 5.196152 3 
L 5.196152 -3 
z
" id="mc5be800ee4" style="stroke:#ff0000;stroke-linejoin:miter;stroke-width:1.5;"/>
    </defs>
    <g>
     <use style="fill-opacity:0;stroke:#ff0000;stroke-linejoin:miter;stroke-width:1.5;" x="79.447285" xlink:href="#mc5be800ee4" y="266.289463"/>
     <use style="fill-opacity:0;stroke:#ff0000;stroke-linejoin:miter;stroke-width:1.5;" x="148.497276" xlink:href="#mc5be800ee4" y="166.219108"/>
     <use style="fill-opacity:0;stroke:#ff0000;stroke-linejoin:miter;stroke-width:1.5;" x="173.722116" xlink:href="#mc5be800ee4" y="49.294798"/>
     <use style="fill-opacity:0;stroke:#ff0000;stroke-linejoin:miter;stroke-width:1.5;" x="186.131524" xlink:href="#mc5be800ee4" y="31.914157"/>
     <use style="fill-opacity:0;stroke:#ff0000;stroke-linejoin:miter;stroke-width:1.5;" x="186.131524" xlink:href="#mc5be800ee4" y="30.334099"/>
     <use style="fill-opacity:0;stroke:#ff0000;stroke-linejoin:miter;stroke-width:1.5;" x="338.688" xlink:href="#mc5be800ee4" y="30.334099"/>
    </g>
   </g>
   <g id="line2d_51">
    <path style="fill:none;stroke:#ff0000;stroke-linecap:square;stroke-width:1.5;"/>
    <g/>
   </g>
   <g id="line2d_52">
    <path d="M 338.688 56.668403 
L 369.60768 293.571802 
" style="fill:none;stroke:#000080;stroke-linecap:square;stroke-width:1.5;"/>
    <g>
     <use style="fill-opacity:0;stroke:#000080;stroke-width:1.5;" x="338.688" xlink:href="#medede33ee9" y="56.668403"/>
     <use style="fill-opacity:0;stroke:#000080;stroke-width:1.5;" x="369.60768" xlink:href="#medede33ee9" y="293.571802"/>
    </g>
   </g>
   <g id="line2d_53">
    <path d="M 338.688 30.334099 
L 369.60768 229.105426 
" style="fill:none;stroke:#ff7500;stroke-linecap:square;stroke-width:1.5;"/>
    <g>
     <use style="fill-opacity:0;stroke:#ff7500;stroke-linejoin:bevel;stroke-width:1.5;" x="338.688" xlink:href="#m5077418c94" y="30.334099"/>
     <use style="fill-opacity:0;stroke:#ff7500;stroke-linejoin:bevel;stroke-width:1.5;" x="369.60768" xlink:href="#m5077418c94" y="229.105426"/>
    </g>
   </g>
   <g id="line2d_54">
    <path d="M 338.688 30.334099 
L 369.60768 164.63905 
" style="fill:none;stroke:#6495ed;stroke-linecap:square;stroke-width:1.5;"/>
    <g>
     <use style="fill-opacity:0;stroke:#6495ed;stroke-linejoin:miter;stroke-width:1.5;" x="338.688" xlink:href="#m952a8379a1" y="30.334099"/>
     <use style="fill-opacity:0;stroke:#6495ed;stroke-linejoin:miter;stroke-width:1.5;" x="369.60768" xlink:href="#m952a8379a1" y="164.63905"/>
    </g>
   </g>
   <g id="line2d_55">
    <path d="M 338.688 30.334099 
L 369.60768 100.172673 
" style="fill:none;stroke:#ff0000;stroke-linecap:square;stroke-width:1.5;"/>
    <g>
     <use style="fill-opacity:0;stroke:#ff0000;stroke-linejoin:miter;stroke-width:1.5;" x="338.688" xlink:href="#mc5be800ee4" y="30.334099"/>
     <use style="fill-opacity:0;stroke:#ff0000;stroke-linejoin:miter;stroke-width:1.5;" x="369.60768" xlink:href="#mc5be800ee4" y="100.172673"/>
    </g>
   </g>
   <g id="line2d_56">
    <path d="M 338.688 298.944 
L 338.688 30.334099 
" style="fill:none;stroke:#000000;stroke-linecap:square;stroke-width:1.5;"/>
   </g>
   <g id="patch_3">
    <path d="M 57.6 298.944 
L 57.6 27.648 
" style="fill:none;stroke:#000000;stroke-linecap:square;stroke-linejoin:miter;stroke-width:0.8;"/>
   </g>
   <g id="patch_4">
    <path d="M 338.688 298.944 
L 338.688 27.648 
" style="fill:none;stroke:#000000;stroke-linecap:square;stroke-linejoin:miter;stroke-width:0.8;"/>
   </g>
   <g id="patch_5">
    <path d="M 57.6 298.944 
L 338.688 298.944 
" style="fill:none;stroke:#000000;stroke-linecap:square;stroke-linejoin:miter;stroke-width:0.8;"/>
   </g>
   <g id="patch_6">
    <path d="M 57.6 27.648 
L 338.688 27.648 
" style="fill:none;stroke:#000000;stroke-linecap:square;stroke-linejoin:miter;stroke-width:0.8;"/>
   </g>
   <g id="text_13">
    <!-- ABC -->
    <defs>
     <path d="M 34.1875 63.1875 
L 20.796875 26.90625 
L 47.609375 26.90625 
z
M 28.609375 72.90625 
L 39.796875 72.90625 
L 67.578125 0 
L 57.328125 0 
L 50.6875 18.703125 
L 17.828125 18.703125 
L 11.1875 0 
L 0.78125 0 
z
" id="DejaVuSans-65"/>
     <path d="M 19.671875 34.8125 
L 19.671875 8.109375 
L 35.5 8.109375 
Q 43.453125 8.109375 47.28125 11.40625 
Q 51.125 14.703125 51.125 21.484375 
Q 51.125 28.328125 47.28125 31.5625 
Q 43.453125 34.8125 35.5 34.8125 
z
M 19.671875 64.796875 
L 19.671875 42.828125 
L 34.28125 42.828125 
Q 41.5 42.828125 45.03125 45.53125 
Q 48.578125 48.25 48.578125 53.8125 
Q 48.578125 59.328125 45.03125 62.0625 
Q 41.5 64.796875 34.28125 64.796875 
z
M 9.8125 72.90625 
L 35.015625 72.90625 
Q 46.296875 72.90625 52.390625 68.21875 
Q 58.5 63.53125 58.5 54.890625 
Q 58.5 48.1875 55.375 44.234375 
Q 52.25 40.28125 46.1875 39.3125 
Q 53.46875 37.75 57.5 32.78125 
Q 61.53125 27.828125 61.53125 20.40625 
Q 61.53125 10.640625 54.890625 5.3125 
Q 48.25 0 35.984375 0 
L 9.8125 0 
z
" id="DejaVuSans-66"/>
     <path d="M 64.40625 67.28125 
L 64.40625 56.890625 
Q 59.421875 61.53125 53.78125 63.8125 
Q 48.140625 66.109375 41.796875 66.109375 
Q 29.296875 66.109375 22.65625 58.46875 
Q 16.015625 50.828125 16.015625 36.375 
Q 16.015625 21.96875 22.65625 14.328125 
Q 29.296875 6.6875 41.796875 6.6875 
Q 48.140625 6.6875 53.78125 8.984375 
Q 59.421875 11.28125 64.40625 15.921875 
L 64.40625 5.609375 
Q 59.234375 2.09375 53.4375 0.328125 
Q 47.65625 -1.421875 41.21875 -1.421875 
Q 24.65625 -1.421875 15.125 8.703125 
Q 5.609375 18.84375 5.609375 36.375 
Q 5.609375 53.953125 15.125 64.078125 
Q 24.65625 74.21875 41.21875 74.21875 
Q 47.75 74.21875 53.53125 72.484375 
Q 59.328125 70.75 64.40625 67.28125 
z
" id="DejaVuSans-67"/>
    </defs>
    <g transform="translate(375.22944 298.262739)scale(0.17 -0.17)">
     <use xlink:href="#DejaVuSans-65"/>
     <use x="68.408203" xlink:href="#DejaVuSans-66"/>
     <use x="135.261719" xlink:href="#DejaVuSans-67"/>
    </g>
   </g>
   <g id="text_14">
    <!-- DE -->
    <defs>
     <path d="M 19.671875 64.796875 
L 19.671875 8.109375 
L 31.59375 8.109375 
Q 46.6875 8.109375 53.6875 14.9375 
Q 60.6875 21.78125 60.6875 36.53125 
Q 60.6875 51.171875 53.6875 57.984375 
Q 46.6875 64.796875 31.59375 64.796875 
z
M 9.8125 72.90625 
L 30.078125 72.90625 
Q 51.265625 72.90625 61.171875 64.09375 
Q 71.09375 55.28125 71.09375 36.53125 
Q 71.09375 17.671875 61.125 8.828125 
Q 51.171875 0 30.078125 0 
L 9.8125 0 
z
" id="DejaVuSans-68"/>
     <path d="M 9.8125 72.90625 
L 55.90625 72.90625 
L 55.90625 64.59375 
L 19.671875 64.59375 
L 19.671875 43.015625 
L 54.390625 43.015625 
L 54.390625 34.71875 
L 19.671875 34.71875 
L 19.671875 8.296875 
L 56.78125 8.296875 
L 56.78125 0 
L 9.8125 0 
z
" id="DejaVuSans-69"/>
    </defs>
    <g transform="translate(375.22944 233.796363)scale(0.17 -0.17)">
     <use xlink:href="#DejaVuSans-68"/>
     <use x="77.001953" xlink:href="#DejaVuSans-69"/>
    </g>
   </g>
   <g id="text_15">
    <!-- DEPSO -->
    <defs>
     <path d="M 19.671875 64.796875 
L 19.671875 37.40625 
L 32.078125 37.40625 
Q 38.96875 37.40625 42.71875 40.96875 
Q 46.484375 44.53125 46.484375 51.125 
Q 46.484375 57.671875 42.71875 61.234375 
Q 38.96875 64.796875 32.078125 64.796875 
z
M 9.8125 72.90625 
L 32.078125 72.90625 
Q 44.34375 72.90625 50.609375 67.359375 
Q 56.890625 61.8125 56.890625 51.125 
Q 56.890625 40.328125 50.609375 34.8125 
Q 44.34375 29.296875 32.078125 29.296875 
L 19.671875 29.296875 
L 19.671875 0 
L 9.8125 0 
z
" id="DejaVuSans-80"/>
     <path d="M 53.515625 70.515625 
L 53.515625 60.890625 
Q 47.90625 63.578125 42.921875 64.890625 
Q 37.9375 66.21875 33.296875 66.21875 
Q 25.25 66.21875 20.875 63.09375 
Q 16.5 59.96875 16.5 54.203125 
Q 16.5 49.359375 19.40625 46.890625 
Q 22.3125 44.4375 30.421875 42.921875 
L 36.375 41.703125 
Q 47.40625 39.59375 52.65625 34.296875 
Q 57.90625 29 57.90625 20.125 
Q 57.90625 9.515625 50.796875 4.046875 
Q 43.703125 -1.421875 29.984375 -1.421875 
Q 24.8125 -1.421875 18.96875 -0.25 
Q 13.140625 0.921875 6.890625 3.21875 
L 6.890625 13.375 
Q 12.890625 10.015625 18.65625 8.296875 
Q 24.421875 6.59375 29.984375 6.59375 
Q 38.421875 6.59375 43.015625 9.90625 
Q 47.609375 13.234375 47.609375 19.390625 
Q 47.609375 24.75 44.3125 27.78125 
Q 41.015625 30.8125 33.5 32.328125 
L 27.484375 33.5 
Q 16.453125 35.6875 11.515625 40.375 
Q 6.59375 45.0625 6.59375 53.421875 
Q 6.59375 63.09375 13.40625 68.65625 
Q 20.21875 74.21875 32.171875 74.21875 
Q 37.3125 74.21875 42.625 73.28125 
Q 47.953125 72.359375 53.515625 70.515625 
z
" id="DejaVuSans-83"/>
     <path d="M 39.40625 66.21875 
Q 28.65625 66.21875 22.328125 58.203125 
Q 16.015625 50.203125 16.015625 36.375 
Q 16.015625 22.609375 22.328125 14.59375 
Q 28.65625 6.59375 39.40625 6.59375 
Q 50.140625 6.59375 56.421875 14.59375 
Q 62.703125 22.609375 62.703125 36.375 
Q 62.703125 50.203125 56.421875 58.203125 
Q 50.140625 66.21875 39.40625 66.21875 
z
M 39.40625 74.21875 
Q 54.734375 74.21875 63.90625 63.9375 
Q 73.09375 53.65625 73.09375 36.375 
Q 73.09375 19.140625 63.90625 8.859375 
Q 54.734375 -1.421875 39.40625 -1.421875 
Q 24.03125 -1.421875 14.8125 8.828125 
Q 5.609375 19.09375 5.609375 36.375 
Q 5.609375 53.65625 14.8125 63.9375 
Q 24.03125 74.21875 39.40625 74.21875 
z
" id="DejaVuSans-79"/>
    </defs>
    <g transform="translate(375.22944 169.329987)scale(0.17 -0.17)">
     <use xlink:href="#DejaVuSans-68"/>
     <use x="77.001953" xlink:href="#DejaVuSans-69"/>
     <use x="140.185547" xlink:href="#DejaVuSans-80"/>
     <use x="200.488281" xlink:href="#DejaVuSans-83"/>
     <use x="263.964844" xlink:href="#DejaVuSans-79"/>
    </g>
   </g>
   <g id="text_16">
    <!-- PSO -->
    <g transform="translate(375.22944 104.863611)scale(0.17 -0.17)">
     <use xlink:href="#DejaVuSans-80"/>
     <use x="60.302734" xlink:href="#DejaVuSans-83"/>
     <use x="123.779297" xlink:href="#DejaVuSans-79"/>
    </g>
   </g>
   <g id="text_17">
    <!-- best 2009 -->
    <defs>
     <path d="M 48.6875 27.296875 
Q 48.6875 37.203125 44.609375 42.84375 
Q 40.53125 48.484375 33.40625 48.484375 
Q 26.265625 48.484375 22.1875 42.84375 
Q 18.109375 37.203125 18.109375 27.296875 
Q 18.109375 17.390625 22.1875 11.75 
Q 26.265625 6.109375 33.40625 6.109375 
Q 40.53125 6.109375 44.609375 11.75 
Q 48.6875 17.390625 48.6875 27.296875 
z
M 18.109375 46.390625 
Q 20.953125 51.265625 25.265625 53.625 
Q 29.59375 56 35.59375 56 
Q 45.5625 56 51.78125 48.09375 
Q 58.015625 40.1875 58.015625 27.296875 
Q 58.015625 14.40625 51.78125 6.484375 
Q 45.5625 -1.421875 35.59375 -1.421875 
Q 29.59375 -1.421875 25.265625 0.953125 
Q 20.953125 3.328125 18.109375 8.203125 
L 18.109375 0 
L 9.078125 0 
L 9.078125 75.984375 
L 18.109375 75.984375 
z
" id="DejaVuSans-98"/>
     <path d="M 10.984375 1.515625 
L 10.984375 10.5 
Q 14.703125 8.734375 18.5 7.8125 
Q 22.3125 6.890625 25.984375 6.890625 
Q 35.75 6.890625 40.890625 13.453125 
Q 46.046875 20.015625 46.78125 33.40625 
Q 43.953125 29.203125 39.59375 26.953125 
Q 35.25 24.703125 29.984375 24.703125 
Q 19.046875 24.703125 12.671875 31.3125 
Q 6.296875 37.9375 6.296875 49.421875 
Q 6.296875 60.640625 12.9375 67.421875 
Q 19.578125 74.21875 30.609375 74.21875 
Q 43.265625 74.21875 49.921875 64.515625 
Q 56.59375 54.828125 56.59375 36.375 
Q 56.59375 19.140625 48.40625 8.859375 
Q 40.234375 -1.421875 26.421875 -1.421875 
Q 22.703125 -1.421875 18.890625 -0.6875 
Q 15.09375 0.046875 10.984375 1.515625 
z
M 30.609375 32.421875 
Q 37.25 32.421875 41.125 36.953125 
Q 45.015625 41.5 45.015625 49.421875 
Q 45.015625 57.28125 41.125 61.84375 
Q 37.25 66.40625 30.609375 66.40625 
Q 23.96875 66.40625 20.09375 61.84375 
Q 16.21875 57.28125 16.21875 49.421875 
Q 16.21875 41.5 20.09375 36.953125 
Q 23.96875 32.421875 30.609375 32.421875 
z
" id="DejaVuSans-57"/>
    </defs>
    <g transform="translate(375.22944 40.397235)scale(0.17 -0.17)">
     <use xlink:href="#DejaVuSans-98"/>
     <use x="63.476562" xlink:href="#DejaVuSans-101"/>
     <use x="125" xlink:href="#DejaVuSans-115"/>
     <use x="177.099609" xlink:href="#DejaVuSans-116"/>
     <use x="216.308594" xlink:href="#DejaVuSans-32"/>
     <use x="248.095703" xlink:href="#DejaVuSans-50"/>
     <use x="311.71875" xlink:href="#DejaVuSans-48"/>
     <use x="375.341797" xlink:href="#DejaVuSans-48"/>
     <use x="438.964844" xlink:href="#DejaVuSans-57"/>
    </g>
   </g>
   <g id="text_18">
    <!-- bbob f22, 2-D -->
    <g transform="translate(60.41088 38.111366)scale(0.102 -0.102)">
     <use xlink:href="#DejaVuSans-98"/>
     <use x="63.476562" xlink:href="#DejaVuSans-98"/>
     <use x="126.953125" xlink:href="#DejaVuSans-111"/>
     <use x="188.134766" xlink:href="#DejaVuSans-98"/>
     <use x="251.611328" xlink:href="#DejaVuSans-32"/>
     <use x="283.398438" xlink:href="#DejaVuSans-102"/>
     <use x="318.603516" xlink:href="#DejaVuSans-50"/>
     <use x="382.226562" xlink:href="#DejaVuSans-50"/>
     <use x="445.849609" xlink:href="#DejaVuSans-44"/>
     <use x="477.636719" xlink:href="#DejaVuSans-32"/>
     <use x="509.423828" xlink:href="#DejaVuSans-50"/>
     <use x="573.046875" xlink:href="#DejaVuSans-45"/>
     <use x="609.130859" xlink:href="#DejaVuSans-68"/>
    </g>
    <!-- 51 targets: 100..1e-08 -->
    <defs>
     <path d="M 10.796875 72.90625 
L 49.515625 72.90625 
L 49.515625 64.59375 
L 19.828125 64.59375 
L 19.828125 46.734375 
Q 21.96875 47.46875 24.109375 47.828125 
Q 26.265625 48.1875 28.421875 48.1875 
Q 40.625 48.1875 47.75 41.5 
Q 54.890625 34.8125 54.890625 23.390625 
Q 54.890625 11.625 47.5625 5.09375 
Q 40.234375 -1.421875 26.90625 -1.421875 
Q 22.3125 -1.421875 17.546875 -0.640625 
Q 12.796875 0.140625 7.71875 1.703125 
L 7.71875 11.625 
Q 12.109375 9.234375 16.796875 8.0625 
Q 21.484375 6.890625 26.703125 6.890625 
Q 35.15625 6.890625 40.078125 11.328125 
Q 45.015625 15.765625 45.015625 23.390625 
Q 45.015625 31 40.078125 35.4375 
Q 35.15625 39.890625 26.703125 39.890625 
Q 22.75 39.890625 18.8125 39.015625 
Q 14.890625 38.140625 10.796875 36.28125 
z
" id="DejaVuSans-53"/>
     <path d="M 11.71875 12.40625 
L 22.015625 12.40625 
L 22.015625 0 
L 11.71875 0 
z
M 11.71875 51.703125 
L 22.015625 51.703125 
L 22.015625 39.3125 
L 11.71875 39.3125 
z
" id="DejaVuSans-58"/>
    </defs>
    <g transform="translate(60.41088 49.533135)scale(0.102 -0.102)">
     <use xlink:href="#DejaVuSans-53"/>
     <use x="63.623047" xlink:href="#DejaVuSans-49"/>
     <use x="127.246094" xlink:href="#DejaVuSans-32"/>
     <use x="159.033203" xlink:href="#DejaVuSans-116"/>
     <use x="198.242188" xlink:href="#DejaVuSans-97"/>
     <use x="259.521484" xlink:href="#DejaVuSans-114"/>
     <use x="298.884766" xlink:href="#DejaVuSans-103"/>
     <use x="362.361328" xlink:href="#DejaVuSans-101"/>
     <use x="423.884766" xlink:href="#DejaVuSans-116"/>
     <use x="463.09375" xlink:href="#DejaVuSans-115"/>
     <use x="515.193359" xlink:href="#DejaVuSans-58"/>
     <use x="548.884766" xlink:href="#DejaVuSans-32"/>
     <use x="580.671875" xlink:href="#DejaVuSans-49"/>
     <use x="644.294922" xlink:href="#DejaVuSans-48"/>
     <use x="707.917969" xlink:href="#DejaVuSans-48"/>
     <use x="771.541016" xlink:href="#DejaVuSans-46"/>
     <use x="803.328125" xlink:href="#DejaVuSans-46"/>
     <use x="835.115234" xlink:href="#DejaVuSans-49"/>
     <use x="898.738281" xlink:href="#DejaVuSans-101"/>
     <use x="960.261719" xlink:href="#DejaVuSans-45"/>
     <use x="996.345703" xlink:href="#DejaVuSans-48"/>
     <use x="1059.96875" xlink:href="#DejaVuSans-56"/>
    </g>
    <!-- 15 instances -->
    <g transform="translate(60.41088 60.954904)scale(0.102 -0.102)">
     <use xlink:href="#DejaVuSans-49"/>
     <use x="63.623047" xlink:href="#DejaVuSans-53"/>
     <use x="127.246094" xlink:href="#DejaVuSans-32"/>
     <use x="159.033203" xlink:href="#DejaVuSans-105"/>
     <use x="186.816406" xlink:href="#DejaVuSans-110"/>
     <use x="250.195312" xlink:href="#DejaVuSans-115"/>
     <use x="302.294922" xlink:href="#DejaVuSans-116"/>
     <use x="341.503906" xlink:href="#DejaVuSans-97"/>
     <use x="402.783203" xlink:href="#DejaVuSans-110"/>
     <use x="466.162109" xlink:href="#DejaVuSans-99"/>
     <use x="521.142578" xlink:href="#DejaVuSans-101"/>
     <use x="582.666016" xlink:href="#DejaVuSans-115"/>
    </g>
   </g>
   <g id="text_19">
    <!-- v2.4 -->
    <g style="fill:#808080;" transform="translate(187.233062 294.151352)scale(0.1 -0.1)">
     <use xlink:href="#DejaVuSans-118"/>
     <use x="59.179688" xlink:href="#DejaVuSans-50"/>
     <use x="122.802734" xlink:href="#DejaVuSans-46"/>
     <use x="154.589844" xlink:href="#DejaVuSans-52"/>
    </g>
   </g>
   <g id="text_20">
    <!-- 22 Gallagher 21 peaks -->
    <defs>
     <path d="M 59.515625 10.40625 
L 59.515625 29.984375 
L 43.40625 29.984375 
L 43.40625 38.09375 
L 69.28125 38.09375 
L 69.28125 6.78125 
Q 63.578125 2.734375 56.6875 0.65625 
Q 49.8125 -1.421875 42 -1.421875 
Q 24.90625 -1.421875 15.25 8.5625 
Q 5.609375 18.5625 5.609375 36.375 
Q 5.609375 54.25 15.25 64.234375 
Q 24.90625 74.21875 42 74.21875 
Q 49.125 74.21875 55.546875 72.453125 
Q 61.96875 70.703125 67.390625 67.28125 
L 67.390625 56.78125 
Q 61.921875 61.421875 55.765625 63.765625 
Q 49.609375 66.109375 42.828125 66.109375 
Q 29.4375 66.109375 22.71875 58.640625 
Q 16.015625 51.171875 16.015625 36.375 
Q 16.015625 21.625 22.71875 14.15625 
Q 29.4375 6.6875 42.828125 6.6875 
Q 48.046875 6.6875 52.140625 7.59375 
Q 56.25 8.5 59.515625 10.40625 
z
" id="DejaVuSans-71"/>
     <path d="M 54.890625 33.015625 
L 54.890625 0 
L 45.90625 0 
L 45.90625 32.71875 
Q 45.90625 40.484375 42.875 44.328125 
Q 39.84375 48.1875 33.796875 48.1875 
Q 26.515625 48.1875 22.3125 43.546875 
Q 18.109375 38.921875 18.109375 30.90625 
L 18.109375 0 
L 9.078125 0 
L 9.078125 75.984375 
L 18.109375 75.984375 
L 18.109375 46.1875 
Q 21.34375 51.125 25.703125 53.5625 
Q 30.078125 56 35.796875 56 
Q 45.21875 56 50.046875 50.171875 
Q 54.890625 44.34375 54.890625 33.015625 
z
" id="DejaVuSans-104"/>
     <path d="M 9.078125 75.984375 
L 18.109375 75.984375 
L 18.109375 31.109375 
L 44.921875 54.6875 
L 56.390625 54.6875 
L 27.390625 29.109375 
L 57.625 0 
L 45.90625 0 
L 18.109375 26.703125 
L 18.109375 0 
L 9.078125 0 
z
" id="DejaVuSans-107"/>
    </defs>
    <g transform="translate(85.019 21.648)scale(0.2 -0.2)">
     <use xlink:href="#DejaVuSans-50"/>
     <use x="63.623047" xlink:href="#DejaVuSans-50"/>
     <use x="127.246094" xlink:href="#DejaVuSans-32"/>
     <use x="159.033203" xlink:href="#DejaVuSans-71"/>
     <use x="236.523438" xlink:href="#DejaVuSans-97"/>
     <use x="297.802734" xlink:href="#DejaVuSans-108"/>
     <use x="325.585938" xlink:href="#DejaVuSans-108"/>
     <use x="353.369141" xlink:href="#DejaVuSans-97"/>
     <use x="414.648438" xlink:href="#DejaVuSans-103"/>
     <use x="478.125" xlink:href="#DejaVuSans-104"/>
     <use x="541.503906" xlink:href="#DejaVuSans-101"/>
     <use x="603.027344" xlink:href="#DejaVuSans-114"/>
     <use x="644.140625" xlink:href="#DejaVuSans-32"/>
     <use x="675.927734" xlink:href="#DejaVuSans-50"/>
     <use x="739.550781" xlink:href="#DejaVuSans-49"/>
     <use x="803.173828" xlink:href="#DejaVuSans-32"/>
     <use x="834.960938" xlink:href="#DejaVuSans-112"/>
     <use x="898.4375" xlink:href="#DejaVuSans-101"/>
     <use x="959.960938" xlink:href="#DejaVuSans-97"/>
     <use x="1021.240234" xlink:href="#DejaVuSans-107"/>
     <use x="1079.150391" xlink:href="#DejaVuSans-115"/>
    </g>
   </g>
  </g>
 </g>
 <defs>
  <clipPath id="p12d44fddbf">
   <rect height="271.296" width="281.088" x="57.6" y="27.648"/>
  </clipPath>
 </defs>
</svg>
