<?xml version="1.0" encoding="utf-8" standalone="no"?>
<!DOCTYPE svg PUBLIC "-//W3C//DTD SVG 1.1//EN"
  "http://www.w3.org/Graphics/SVG/1.1/DTD/svg11.dtd">
<!-- Created with matplotlib (https://matplotlib.org/) -->
<svg height="345.6pt" version="1.1" viewBox="0 0 460.8 345.6" width="460.8pt" xmlns="http://www.w3.org/2000/svg" xmlns:xlink="http://www.w3.org/1999/xlink">
 <defs>
  <style type="text/css">
*{stroke-linecap:butt;stroke-linejoin:round;}
  </style>
 </defs>
 <g id="figure_1">
  <g id="patch_1">
   <path d="M 0 345.6 
L 460.8 345.6 
L 460.8 0 
L 0 0 
z
" style="fill:#ffffff;"/>
  </g>
  <g id="axes_1">
   <g id="patch_2">
    <path d="M 57.6 298.944 
L 338.688 298.944 
L 338.688 27.648 
L 57.6 27.648 
z
" style="fill:#ffffff;"/>
   </g>
   <g id="line2d_1">
    <path d="M 87.329581 298.944 
L 87.329581 293.677139 
L 91.535274 293.677139 
L 91.535274 288.410278 
L 92.73846 288.410278 
L 92.73846 272.609696 
L 104.826449 272.609696 
L 104.826449 267.342835 
L 108.483824 267.342835 
L 108.483824 262.075974 
L 109.843417 262.075974 
L 109.843417 256.809114 
L 110.694282 256.809114 
L 110.694282 251.542253 
L 111.897469 251.542253 
L 111.897469 246.275392 
L 112.280765 246.275392 
L 112.280765 235.74167 
L 113.022974 235.74167 
L 113.022974 230.47481 
L 114.080224 230.47481 
L 114.080224 225.207949 
L 114.751048 225.207949 
L 114.751048 219.941088 
L 115.077025 219.941088 
L 115.077025 214.674227 
L 115.397021 214.674227 
L 115.397021 209.407366 
L 115.711251 209.407366 
L 115.711251 204.140506 
L 116.323218 204.140506 
L 116.323218 198.873645 
L 116.621333 198.873645 
L 116.621333 193.606784 
L 117.202696 193.606784 
L 117.202696 188.339923 
L 117.486268 188.339923 
L 117.486268 183.073062 
L 118.039942 183.073062 
L 118.039942 177.806202 
L 118.576578 177.806202 
L 118.576578 172.539341 
L 118.838828 172.539341 
L 118.838828 167.27248 
L 119.097192 167.27248 
L 119.097192 162.005619 
L 119.351785 162.005619 
L 119.351785 156.738758 
L 119.602714 156.738758 
L 119.602714 151.471897 
L 120.33454 151.471897 
L 120.33454 146.205037 
L 120.571812 146.205037 
L 120.571812 140.938176 
L 121.036887 140.938176 
L 121.036887 135.671315 
L 121.264855 135.671315 
L 121.264855 130.404454 
L 121.712041 130.404454 
L 121.712041 125.137593 
L 121.931406 125.137593 
L 121.931406 119.870733 
L 122.148045 119.870733 
L 122.148045 114.603872 
L 122.362027 114.603872 
L 122.362027 109.337011 
L 122.782271 109.337011 
L 122.782271 104.07015 
L 123.192626 104.07015 
L 123.192626 98.803289 
L 123.593547 98.803289 
L 123.593547 88.269568 
L 123.985457 88.269568 
L 123.985457 83.002707 
L 124.178158 83.002707 
L 124.178158 77.735846 
L 124.557288 77.735846 
L 124.557288 72.468985 
L 124.92835 72.468985 
L 124.92835 67.202125 
L 125.110962 67.202125 
L 125.110962 61.935264 
L 125.470548 61.935264 
L 125.470548 56.668403 
L 125.647598 56.668403 
L 125.647598 51.401542 
L 125.822869 51.401542 
L 125.822869 46.134681 
L 125.996395 46.134681 
L 125.996395 40.867821 
L 126.168212 40.867821 
L 126.168212 35.60096 
L 126.50685 35.60096 
L 126.50685 30.334099 
L 338.688 30.334099 
" style="fill:none;stroke:#f5deb3;stroke-linecap:square;stroke-width:4;"/>
   </g>
   <g id="line2d_2">
    <defs>
     <path d="M -0 7.778175 
L 7.778175 0 
L 0 -7.778175 
L -7.778175 -0 
z
" id="mfc5fe52c17" style="stroke:#f5deb3;stroke-linejoin:miter;stroke-width:1.5;"/>
    </defs>
    <g>
     <use style="fill:#f5deb3;stroke:#f5deb3;stroke-linejoin:miter;stroke-width:1.5;" x="115.711251" xlink:href="#mfc5fe52c17" y="204.140506"/>
     <use style="fill:#f5deb3;stroke:#f5deb3;stroke-linejoin:miter;stroke-width:1.5;" x="126.50685" xlink:href="#mfc5fe52c17" y="35.60096"/>
     <use style="fill:#f5deb3;stroke:#f5deb3;stroke-linejoin:miter;stroke-width:1.5;" x="126.50685" xlink:href="#mfc5fe52c17" y="30.334099"/>
     <use style="fill:#f5deb3;stroke:#f5deb3;stroke-linejoin:miter;stroke-width:1.5;" x="126.50685" xlink:href="#mfc5fe52c17" y="30.334099"/>
     <use style="fill:#f5deb3;stroke:#f5deb3;stroke-linejoin:miter;stroke-width:1.5;" x="338.688" xlink:href="#mfc5fe52c17" y="30.334099"/>
    </g>
   </g>
   <g id="line2d_3">
    <path style="fill:none;stroke:#f5deb3;stroke-linecap:square;stroke-width:4;"/>
    <g/>
   </g>
   <g id="line2d_4">
    <path d="M 338.688 30.334099 
L 369.60768 35.706297 
" style="fill:none;stroke:#f5deb3;stroke-linecap:square;stroke-width:4;"/>
    <g>
     <use style="fill:#f5deb3;stroke:#f5deb3;stroke-linejoin:miter;stroke-width:1.5;" x="338.688" xlink:href="#mfc5fe52c17" y="30.334099"/>
     <use style="fill:#f5deb3;stroke:#f5deb3;stroke-linejoin:miter;stroke-width:1.5;" x="369.60768" xlink:href="#mfc5fe52c17" y="35.706297"/>
    </g>
   </g>
   <g id="matplotlib.axis_1">
    <g id="xtick_1">
     <g id="line2d_5">
      <path clip-path="url(#pac01ef8d6f)" d="M 57.6 298.944 
L 57.6 27.648 
" style="fill:none;stroke:#b0b0b0;stroke-linecap:square;stroke-width:0.8;"/>
     </g>
     <g id="line2d_6">
      <defs>
       <path d="M 0 0 
L 0 3.5 
" id="m791f1fe402" style="stroke:#000000;stroke-width:0.8;"/>
      </defs>
      <g>
       <use style="stroke:#000000;stroke-width:0.8;" x="57.6" xlink:href="#m791f1fe402" y="298.944"/>
      </g>
     </g>
     <g id="text_1">
      <!-- 0 -->
      <defs>
       <path d="M 31.78125 66.40625 
Q 24.171875 66.40625 20.328125 58.90625 
Q 16.5 51.421875 16.5 36.375 
Q 16.5 21.390625 20.328125 13.890625 
Q 24.171875 6.390625 31.78125 6.390625 
Q 39.453125 6.390625 43.28125 13.890625 
Q 47.125 21.390625 47.125 36.375 
Q 47.125 51.421875 43.28125 58.90625 
Q 39.453125 66.40625 31.78125 66.40625 
z
M 31.78125 74.21875 
Q 44.046875 74.21875 50.515625 64.515625 
Q 56.984375 54.828125 56.984375 36.375 
Q 56.984375 17.96875 50.515625 8.265625 
Q 44.046875 -1.421875 31.78125 -1.421875 
Q 19.53125 -1.421875 13.0625 8.265625 
Q 6.59375 17.96875 6.59375 36.375 
Q 6.59375 54.828125 13.0625 64.515625 
Q 19.53125 74.21875 31.78125 74.21875 
z
" id="DejaVuSans-48"/>
      </defs>
      <g transform="translate(51.2375 321.140875)scale(0.2 -0.2)">
       <use xlink:href="#DejaVuSans-48"/>
      </g>
     </g>
    </g>
    <g id="xtick_2">
     <g id="line2d_7">
      <path clip-path="url(#pac01ef8d6f)" d="M 137.910857 298.944 
L 137.910857 27.648 
" style="fill:none;stroke:#b0b0b0;stroke-linecap:square;stroke-width:0.8;"/>
     </g>
     <g id="line2d_8">
      <g>
       <use style="stroke:#000000;stroke-width:0.8;" x="137.910857" xlink:href="#m791f1fe402" y="298.944"/>
      </g>
     </g>
     <g id="text_2">
      <!-- 2 -->
      <defs>
       <path d="M 19.1875 8.296875 
L 53.609375 8.296875 
L 53.609375 0 
L 7.328125 0 
L 7.328125 8.296875 
Q 12.9375 14.109375 22.625 23.890625 
Q 32.328125 33.6875 34.8125 36.53125 
Q 39.546875 41.84375 41.421875 45.53125 
Q 43.3125 49.21875 43.3125 52.78125 
Q 43.3125 58.59375 39.234375 62.25 
Q 35.15625 65.921875 28.609375 65.921875 
Q 23.96875 65.921875 18.8125 64.3125 
Q 13.671875 62.703125 7.8125 59.421875 
L 7.8125 69.390625 
Q 13.765625 71.78125 18.9375 73 
Q 24.125 74.21875 28.421875 74.21875 
Q 39.75 74.21875 46.484375 68.546875 
Q 53.21875 62.890625 53.21875 53.421875 
Q 53.21875 48.921875 51.53125 44.890625 
Q 49.859375 40.875 45.40625 35.40625 
Q 44.1875 33.984375 37.640625 27.21875 
Q 31.109375 20.453125 19.1875 8.296875 
z
" id="DejaVuSans-50"/>
      </defs>
      <g transform="translate(131.548357 321.140875)scale(0.2 -0.2)">
       <use xlink:href="#DejaVuSans-50"/>
      </g>
     </g>
    </g>
    <g id="xtick_3">
     <g id="line2d_9">
      <path clip-path="url(#pac01ef8d6f)" d="M 218.221714 298.944 
L 218.221714 27.648 
" style="fill:none;stroke:#b0b0b0;stroke-linecap:square;stroke-width:0.8;"/>
     </g>
     <g id="line2d_10">
      <g>
       <use style="stroke:#000000;stroke-width:0.8;" x="218.221714" xlink:href="#m791f1fe402" y="298.944"/>
      </g>
     </g>
     <g id="text_3">
      <!-- 4 -->
      <defs>
       <path d="M 37.796875 64.3125 
L 12.890625 25.390625 
L 37.796875 25.390625 
z
M 35.203125 72.90625 
L 47.609375 72.90625 
L 47.609375 25.390625 
L 58.015625 25.390625 
L 58.015625 17.1875 
L 47.609375 17.1875 
L 47.609375 0 
L 37.796875 0 
L 37.796875 17.1875 
L 4.890625 17.1875 
L 4.890625 26.703125 
z
" id="DejaVuSans-52"/>
      </defs>
      <g transform="translate(211.859214 321.140875)scale(0.2 -0.2)">
       <use xlink:href="#DejaVuSans-52"/>
      </g>
     </g>
    </g>
    <g id="xtick_4">
     <g id="line2d_11">
      <path clip-path="url(#pac01ef8d6f)" d="M 298.532571 298.944 
L 298.532571 27.648 
" style="fill:none;stroke:#b0b0b0;stroke-linecap:square;stroke-width:0.8;"/>
     </g>
     <g id="line2d_12">
      <g>
       <use style="stroke:#000000;stroke-width:0.8;" x="298.532571" xlink:href="#m791f1fe402" y="298.944"/>
      </g>
     </g>
     <g id="text_4">
      <!-- 6 -->
      <defs>
       <path d="M 33.015625 40.375 
Q 26.375 40.375 22.484375 35.828125 
Q 18.609375 31.296875 18.609375 23.390625 
Q 18.609375 15.53125 22.484375 10.953125 
Q 26.375 6.390625 33.015625 6.390625 
Q 39.65625 6.390625 43.53125 10.953125 
Q 47.40625 15.53125 47.40625 23.390625 
Q 47.40625 31.296875 43.53125 35.828125 
Q 39.65625 40.375 33.015625 40.375 
z
M 52.59375 71.296875 
L 52.59375 62.3125 
Q 48.875 64.0625 45.09375 64.984375 
Q 41.3125 65.921875 37.59375 65.921875 
Q 27.828125 65.921875 22.671875 59.328125 
Q 17.53125 52.734375 16.796875 39.40625 
Q 19.671875 43.65625 24.015625 45.921875 
Q 28.375 48.1875 33.59375 48.1875 
Q 44.578125 48.1875 50.953125 41.515625 
Q 57.328125 34.859375 57.328125 23.390625 
Q 57.328125 12.15625 50.6875 5.359375 
Q 44.046875 -1.421875 33.015625 -1.421875 
Q 20.359375 -1.421875 13.671875 8.265625 
Q 6.984375 17.96875 6.984375 36.375 
Q 6.984375 53.65625 15.1875 63.9375 
Q 23.390625 74.21875 37.203125 74.21875 
Q 40.921875 74.21875 44.703125 73.484375 
Q 48.484375 72.75 52.59375 71.296875 
z
" id="DejaVuSans-54"/>
      </defs>
      <g transform="translate(292.170071 321.140875)scale(0.2 -0.2)">
       <use xlink:href="#DejaVuSans-54"/>
      </g>
     </g>
    </g>
    <g id="xtick_5">
     <g id="line2d_13">
      <path clip-path="url(#pac01ef8d6f)" d="M 97.755429 298.944 
L 97.755429 27.648 
" style="fill:none;stroke:#b0b0b0;stroke-linecap:square;stroke-width:0.8;"/>
     </g>
     <g id="line2d_14">
      <defs>
       <path d="M 0 0 
L 0 2 
" id="mf57b93794c" style="stroke:#000000;stroke-width:0.6;"/>
      </defs>
      <g>
       <use style="stroke:#000000;stroke-width:0.6;" x="97.755429" xlink:href="#mf57b93794c" y="298.944"/>
      </g>
     </g>
    </g>
    <g id="xtick_6">
     <g id="line2d_15">
      <path clip-path="url(#pac01ef8d6f)" d="M 178.066286 298.944 
L 178.066286 27.648 
" style="fill:none;stroke:#b0b0b0;stroke-linecap:square;stroke-width:0.8;"/>
     </g>
     <g id="line2d_16">
      <g>
       <use style="stroke:#000000;stroke-width:0.6;" x="178.066286" xlink:href="#mf57b93794c" y="298.944"/>
      </g>
     </g>
    </g>
    <g id="xtick_7">
     <g id="line2d_17">
      <path clip-path="url(#pac01ef8d6f)" d="M 258.377143 298.944 
L 258.377143 27.648 
" style="fill:none;stroke:#b0b0b0;stroke-linecap:square;stroke-width:0.8;"/>
     </g>
     <g id="line2d_18">
      <g>
       <use style="stroke:#000000;stroke-width:0.6;" x="258.377143" xlink:href="#mf57b93794c" y="298.944"/>
      </g>
     </g>
    </g>
    <g id="xtick_8">
     <g id="line2d_19">
      <path clip-path="url(#pac01ef8d6f)" d="M 338.688 298.944 
L 338.688 27.648 
" style="fill:none;stroke:#b0b0b0;stroke-linecap:square;stroke-width:0.8;"/>
     </g>
     <g id="line2d_20">
      <g>
       <use style="stroke:#000000;stroke-width:0.6;" x="338.688" xlink:href="#mf57b93794c" y="298.944"/>
      </g>
     </g>
    </g>
    <g id="text_5">
     <!-- log10(# f-evals / dimension) -->
     <defs>
      <path d="M 9.421875 75.984375 
L 18.40625 75.984375 
L 18.40625 0 
L 9.421875 0 
z
" id="DejaVuSans-108"/>
      <path d="M 30.609375 48.390625 
Q 23.390625 48.390625 19.1875 42.75 
Q 14.984375 37.109375 14.984375 27.296875 
Q 14.984375 17.484375 19.15625 11.84375 
Q 23.34375 6.203125 30.609375 6.203125 
Q 37.796875 6.203125 41.984375 11.859375 
Q 46.1875 17.53125 46.1875 27.296875 
Q 46.1875 37.015625 41.984375 42.703125 
Q 37.796875 48.390625 30.609375 48.390625 
z
M 30.609375 56 
Q 42.328125 56 49.015625 48.375 
Q 55.71875 40.765625 55.71875 27.296875 
Q 55.71875 13.875 49.015625 6.21875 
Q 42.328125 -1.421875 30.609375 -1.421875 
Q 18.84375 -1.421875 12.171875 6.21875 
Q 5.515625 13.875 5.515625 27.296875 
Q 5.515625 40.765625 12.171875 48.375 
Q 18.84375 56 30.609375 56 
z
" id="DejaVuSans-111"/>
      <path d="M 45.40625 27.984375 
Q 45.40625 37.75 41.375 43.109375 
Q 37.359375 48.484375 30.078125 48.484375 
Q 22.859375 48.484375 18.828125 43.109375 
Q 14.796875 37.75 14.796875 27.984375 
Q 14.796875 18.265625 18.828125 12.890625 
Q 22.859375 7.515625 30.078125 7.515625 
Q 37.359375 7.515625 41.375 12.890625 
Q 45.40625 18.265625 45.40625 27.984375 
z
M 54.390625 6.78125 
Q 54.390625 -7.171875 48.1875 -13.984375 
Q 42 -20.796875 29.203125 -20.796875 
Q 24.46875 -20.796875 20.265625 -20.09375 
Q 16.0625 -19.390625 12.109375 -17.921875 
L 12.109375 -9.1875 
Q 16.0625 -11.328125 19.921875 -12.34375 
Q 23.78125 -13.375 27.78125 -13.375 
Q 36.625 -13.375 41.015625 -8.765625 
Q 45.40625 -4.15625 45.40625 5.171875 
L 45.40625 9.625 
Q 42.625 4.78125 38.28125 2.390625 
Q 33.9375 0 27.875 0 
Q 17.828125 0 11.671875 7.65625 
Q 5.515625 15.328125 5.515625 27.984375 
Q 5.515625 40.671875 11.671875 48.328125 
Q 17.828125 56 27.875 56 
Q 33.9375 56 38.28125 53.609375 
Q 42.625 51.21875 45.40625 46.390625 
L 45.40625 54.6875 
L 54.390625 54.6875 
z
" id="DejaVuSans-103"/>
      <path d="M 12.40625 8.296875 
L 28.515625 8.296875 
L 28.515625 63.921875 
L 10.984375 60.40625 
L 10.984375 69.390625 
L 28.421875 72.90625 
L 38.28125 72.90625 
L 38.28125 8.296875 
L 54.390625 8.296875 
L 54.390625 0 
L 12.40625 0 
z
" id="DejaVuSans-49"/>
      <path d="M 31 75.875 
Q 24.46875 64.65625 21.28125 53.65625 
Q 18.109375 42.671875 18.109375 31.390625 
Q 18.109375 20.125 21.3125 9.0625 
Q 24.515625 -2 31 -13.1875 
L 23.1875 -13.1875 
Q 15.875 -1.703125 12.234375 9.375 
Q 8.59375 20.453125 8.59375 31.390625 
Q 8.59375 42.28125 12.203125 53.3125 
Q 15.828125 64.359375 23.1875 75.875 
z
" id="DejaVuSans-40"/>
      <path d="M 51.125 44 
L 36.921875 44 
L 32.8125 27.6875 
L 47.125 27.6875 
z
M 43.796875 71.78125 
L 38.71875 51.515625 
L 52.984375 51.515625 
L 58.109375 71.78125 
L 65.921875 71.78125 
L 60.890625 51.515625 
L 76.125 51.515625 
L 76.125 44 
L 58.984375 44 
L 54.984375 27.6875 
L 70.515625 27.6875 
L 70.515625 20.21875 
L 53.078125 20.21875 
L 48 0 
L 40.1875 0 
L 45.21875 20.21875 
L 30.90625 20.21875 
L 25.875 0 
L 18.015625 0 
L 23.09375 20.21875 
L 7.71875 20.21875 
L 7.71875 27.6875 
L 24.90625 27.6875 
L 29 44 
L 13.28125 44 
L 13.28125 51.515625 
L 30.90625 51.515625 
L 35.890625 71.78125 
z
" id="DejaVuSans-35"/>
      <path id="DejaVuSans-32"/>
      <path d="M 37.109375 75.984375 
L 37.109375 68.5 
L 28.515625 68.5 
Q 23.6875 68.5 21.796875 66.546875 
Q 19.921875 64.59375 19.921875 59.515625 
L 19.921875 54.6875 
L 34.71875 54.6875 
L 34.71875 47.703125 
L 19.921875 47.703125 
L 19.921875 0 
L 10.890625 0 
L 10.890625 47.703125 
L 2.296875 47.703125 
L 2.296875 54.6875 
L 10.890625 54.6875 
L 10.890625 58.5 
Q 10.890625 67.625 15.140625 71.796875 
Q 19.390625 75.984375 28.609375 75.984375 
z
" id="DejaVuSans-102"/>
      <path d="M 4.890625 31.390625 
L 31.203125 31.390625 
L 31.203125 23.390625 
L 4.890625 23.390625 
z
" id="DejaVuSans-45"/>
      <path d="M 56.203125 29.59375 
L 56.203125 25.203125 
L 14.890625 25.203125 
Q 15.484375 15.921875 20.484375 11.0625 
Q 25.484375 6.203125 34.421875 6.203125 
Q 39.59375 6.203125 44.453125 7.46875 
Q 49.3125 8.734375 54.109375 11.28125 
L 54.109375 2.78125 
Q 49.265625 0.734375 44.1875 -0.34375 
Q 39.109375 -1.421875 33.890625 -1.421875 
Q 20.796875 -1.421875 13.15625 6.1875 
Q 5.515625 13.8125 5.515625 26.8125 
Q 5.515625 40.234375 12.765625 48.109375 
Q 20.015625 56 32.328125 56 
Q 43.359375 56 49.78125 48.890625 
Q 56.203125 41.796875 56.203125 29.59375 
z
M 47.21875 32.234375 
Q 47.125 39.59375 43.09375 43.984375 
Q 39.0625 48.390625 32.421875 48.390625 
Q 24.90625 48.390625 20.390625 44.140625 
Q 15.875 39.890625 15.1875 32.171875 
z
" id="DejaVuSans-101"/>
      <path d="M 2.984375 54.6875 
L 12.5 54.6875 
L 29.59375 8.796875 
L 46.6875 54.6875 
L 56.203125 54.6875 
L 35.6875 0 
L 23.484375 0 
z
" id="DejaVuSans-118"/>
      <path d="M 34.28125 27.484375 
Q 23.390625 27.484375 19.1875 25 
Q 14.984375 22.515625 14.984375 16.5 
Q 14.984375 11.71875 18.140625 8.90625 
Q 21.296875 6.109375 26.703125 6.109375 
Q 34.1875 6.109375 38.703125 11.40625 
Q 43.21875 16.703125 43.21875 25.484375 
L 43.21875 27.484375 
z
M 52.203125 31.203125 
L 52.203125 0 
L 43.21875 0 
L 43.21875 8.296875 
Q 40.140625 3.328125 35.546875 0.953125 
Q 30.953125 -1.421875 24.3125 -1.421875 
Q 15.921875 -1.421875 10.953125 3.296875 
Q 6 8.015625 6 15.921875 
Q 6 25.140625 12.171875 29.828125 
Q 18.359375 34.515625 30.609375 34.515625 
L 43.21875 34.515625 
L 43.21875 35.40625 
Q 43.21875 41.609375 39.140625 45 
Q 35.0625 48.390625 27.6875 48.390625 
Q 23 48.390625 18.546875 47.265625 
Q 14.109375 46.140625 10.015625 43.890625 
L 10.015625 52.203125 
Q 14.9375 54.109375 19.578125 55.046875 
Q 24.21875 56 28.609375 56 
Q 40.484375 56 46.34375 49.84375 
Q 52.203125 43.703125 52.203125 31.203125 
z
" id="DejaVuSans-97"/>
      <path d="M 44.28125 53.078125 
L 44.28125 44.578125 
Q 40.484375 46.53125 36.375 47.5 
Q 32.28125 48.484375 27.875 48.484375 
Q 21.1875 48.484375 17.84375 46.4375 
Q 14.5 44.390625 14.5 40.28125 
Q 14.5 37.15625 16.890625 35.375 
Q 19.28125 33.59375 26.515625 31.984375 
L 29.59375 31.296875 
Q 39.15625 29.25 43.1875 25.515625 
Q 47.21875 21.78125 47.21875 15.09375 
Q 47.21875 7.46875 41.1875 3.015625 
Q 35.15625 -1.421875 24.609375 -1.421875 
Q 20.21875 -1.421875 15.453125 -0.5625 
Q 10.6875 0.296875 5.421875 2 
L 5.421875 11.28125 
Q 10.40625 8.6875 15.234375 7.390625 
Q 20.0625 6.109375 24.8125 6.109375 
Q 31.15625 6.109375 34.5625 8.28125 
Q 37.984375 10.453125 37.984375 14.40625 
Q 37.984375 18.0625 35.515625 20.015625 
Q 33.0625 21.96875 24.703125 23.78125 
L 21.578125 24.515625 
Q 13.234375 26.265625 9.515625 29.90625 
Q 5.8125 33.546875 5.8125 39.890625 
Q 5.8125 47.609375 11.28125 51.796875 
Q 16.75 56 26.8125 56 
Q 31.78125 56 36.171875 55.265625 
Q 40.578125 54.546875 44.28125 53.078125 
z
" id="DejaVuSans-115"/>
      <path d="M 25.390625 72.90625 
L 33.6875 72.90625 
L 8.296875 -9.28125 
L 0 -9.28125 
z
" id="DejaVuSans-47"/>
      <path d="M 45.40625 46.390625 
L 45.40625 75.984375 
L 54.390625 75.984375 
L 54.390625 0 
L 45.40625 0 
L 45.40625 8.203125 
Q 42.578125 3.328125 38.25 0.953125 
Q 33.9375 -1.421875 27.875 -1.421875 
Q 17.96875 -1.421875 11.734375 6.484375 
Q 5.515625 14.40625 5.515625 27.296875 
Q 5.515625 40.1875 11.734375 48.09375 
Q 17.96875 56 27.875 56 
Q 33.9375 56 38.25 53.625 
Q 42.578125 51.265625 45.40625 46.390625 
z
M 14.796875 27.296875 
Q 14.796875 17.390625 18.875 11.75 
Q 22.953125 6.109375 30.078125 6.109375 
Q 37.203125 6.109375 41.296875 11.75 
Q 45.40625 17.390625 45.40625 27.296875 
Q 45.40625 37.203125 41.296875 42.84375 
Q 37.203125 48.484375 30.078125 48.484375 
Q 22.953125 48.484375 18.875 42.84375 
Q 14.796875 37.203125 14.796875 27.296875 
z
" id="DejaVuSans-100"/>
      <path d="M 9.421875 54.6875 
L 18.40625 54.6875 
L 18.40625 0 
L 9.421875 0 
z
M 9.421875 75.984375 
L 18.40625 75.984375 
L 18.40625 64.59375 
L 9.421875 64.59375 
z
" id="DejaVuSans-105"/>
      <path d="M 52 44.1875 
Q 55.375 50.25 60.0625 53.125 
Q 64.75 56 71.09375 56 
Q 79.640625 56 84.28125 50.015625 
Q 88.921875 44.046875 88.921875 33.015625 
L 88.921875 0 
L 79.890625 0 
L 79.890625 32.71875 
Q 79.890625 40.578125 77.09375 44.375 
Q 74.3125 48.1875 68.609375 48.1875 
Q 61.625 48.1875 57.5625 43.546875 
Q 53.515625 38.921875 53.515625 30.90625 
L 53.515625 0 
L 44.484375 0 
L 44.484375 32.71875 
Q 44.484375 40.625 41.703125 44.40625 
Q 38.921875 48.1875 33.109375 48.1875 
Q 26.21875 48.1875 22.15625 43.53125 
Q 18.109375 38.875 18.109375 30.90625 
L 18.109375 0 
L 9.078125 0 
L 9.078125 54.6875 
L 18.109375 54.6875 
L 18.109375 46.1875 
Q 21.1875 51.21875 25.484375 53.609375 
Q 29.78125 56 35.6875 56 
Q 41.65625 56 45.828125 52.96875 
Q 50 49.953125 52 44.1875 
z
" id="DejaVuSans-109"/>
      <path d="M 54.890625 33.015625 
L 54.890625 0 
L 45.90625 0 
L 45.90625 32.71875 
Q 45.90625 40.484375 42.875 44.328125 
Q 39.84375 48.1875 33.796875 48.1875 
Q 26.515625 48.1875 22.3125 43.546875 
Q 18.109375 38.921875 18.109375 30.90625 
L 18.109375 0 
L 9.078125 0 
L 9.078125 54.6875 
L 18.109375 54.6875 
L 18.109375 46.1875 
Q 21.34375 51.125 25.703125 53.5625 
Q 30.078125 56 35.796875 56 
Q 45.21875 56 50.046875 50.171875 
Q 54.890625 44.34375 54.890625 33.015625 
z
" id="DejaVuSans-110"/>
      <path d="M 8.015625 75.875 
L 15.828125 75.875 
Q 23.140625 64.359375 26.78125 53.3125 
Q 30.421875 42.28125 30.421875 31.390625 
Q 30.421875 20.453125 26.78125 9.375 
Q 23.140625 -1.703125 15.828125 -13.1875 
L 8.015625 -13.1875 
Q 14.5 -2 17.703125 9.0625 
Q 20.90625 20.125 20.90625 31.390625 
Q 20.90625 42.671875 17.703125 53.65625 
Q 14.5 64.65625 8.015625 75.875 
z
" id="DejaVuSans-41"/>
     </defs>
     <g transform="translate(77.764078 342.217594)scale(0.17 -0.17)">
      <use xlink:href="#DejaVuSans-108"/>
      <use x="27.783203" xlink:href="#DejaVuSans-111"/>
      <use x="88.964844" xlink:href="#DejaVuSans-103"/>
      <use x="152.441406" xlink:href="#DejaVuSans-49"/>
      <use x="216.064453" xlink:href="#DejaVuSans-48"/>
      <use x="279.6875" xlink:href="#DejaVuSans-40"/>
      <use x="318.701172" xlink:href="#DejaVuSans-35"/>
      <use x="402.490234" xlink:href="#DejaVuSans-32"/>
      <use x="434.277344" xlink:href="#DejaVuSans-102"/>
      <use x="463.982422" xlink:href="#DejaVuSans-45"/>
      <use x="500.066406" xlink:href="#DejaVuSans-101"/>
      <use x="561.589844" xlink:href="#DejaVuSans-118"/>
      <use x="620.769531" xlink:href="#DejaVuSans-97"/>
      <use x="682.048828" xlink:href="#DejaVuSans-108"/>
      <use x="709.832031" xlink:href="#DejaVuSans-115"/>
      <use x="761.931641" xlink:href="#DejaVuSans-32"/>
      <use x="793.71875" xlink:href="#DejaVuSans-47"/>
      <use x="827.410156" xlink:href="#DejaVuSans-32"/>
      <use x="859.197266" xlink:href="#DejaVuSans-100"/>
      <use x="922.673828" xlink:href="#DejaVuSans-105"/>
      <use x="950.457031" xlink:href="#DejaVuSans-109"/>
      <use x="1047.869141" xlink:href="#DejaVuSans-101"/>
      <use x="1109.392578" xlink:href="#DejaVuSans-110"/>
      <use x="1172.771484" xlink:href="#DejaVuSans-115"/>
      <use x="1224.871094" xlink:href="#DejaVuSans-105"/>
      <use x="1252.654297" xlink:href="#DejaVuSans-111"/>
      <use x="1313.835938" xlink:href="#DejaVuSans-110"/>
      <use x="1377.214844" xlink:href="#DejaVuSans-41"/>
     </g>
    </g>
   </g>
   <g id="matplotlib.axis_2">
    <g id="ytick_1">
     <g id="line2d_21">
      <path clip-path="url(#pac01ef8d6f)" d="M 57.6 298.944 
L 338.688 298.944 
" style="fill:none;stroke:#b0b0b0;stroke-linecap:square;stroke-width:0.8;"/>
     </g>
     <g id="line2d_22">
      <defs>
       <path d="M 0 0 
L -3.5 0 
" id="md43b608b13" style="stroke:#000000;stroke-width:0.8;"/>
      </defs>
      <g>
       <use style="stroke:#000000;stroke-width:0.8;" x="57.6" xlink:href="#md43b608b13" y="298.944"/>
      </g>
     </g>
     <g id="text_6">
      <!-- 0.0 -->
      <defs>
       <path d="M 10.6875 12.40625 
L 21 12.40625 
L 21 0 
L 10.6875 0 
z
" id="DejaVuSans-46"/>
      </defs>
      <g transform="translate(25.155 305.02275)scale(0.16 -0.16)">
       <use xlink:href="#DejaVuSans-48"/>
       <use x="63.623047" xlink:href="#DejaVuSans-46"/>
       <use x="95.410156" xlink:href="#DejaVuSans-48"/>
      </g>
     </g>
    </g>
    <g id="ytick_2">
     <g id="line2d_23">
      <path clip-path="url(#pac01ef8d6f)" d="M 57.6 245.22202 
L 338.688 245.22202 
" style="fill:none;stroke:#b0b0b0;stroke-linecap:square;stroke-width:0.8;"/>
     </g>
     <g id="line2d_24">
      <g>
       <use style="stroke:#000000;stroke-width:0.8;" x="57.6" xlink:href="#md43b608b13" y="245.22202"/>
      </g>
     </g>
     <g id="text_7">
      <!-- 0.2 -->
      <g transform="translate(25.155 251.30077)scale(0.16 -0.16)">
       <use xlink:href="#DejaVuSans-48"/>
       <use x="63.623047" xlink:href="#DejaVuSans-46"/>
       <use x="95.410156" xlink:href="#DejaVuSans-50"/>
      </g>
     </g>
    </g>
    <g id="ytick_3">
     <g id="line2d_25">
      <path clip-path="url(#pac01ef8d6f)" d="M 57.6 191.50004 
L 338.688 191.50004 
" style="fill:none;stroke:#b0b0b0;stroke-linecap:square;stroke-width:0.8;"/>
     </g>
     <g id="line2d_26">
      <g>
       <use style="stroke:#000000;stroke-width:0.8;" x="57.6" xlink:href="#md43b608b13" y="191.50004"/>
      </g>
     </g>
     <g id="text_8">
      <!-- 0.4 -->
      <g transform="translate(25.155 197.57879)scale(0.16 -0.16)">
       <use xlink:href="#DejaVuSans-48"/>
       <use x="63.623047" xlink:href="#DejaVuSans-46"/>
       <use x="95.410156" xlink:href="#DejaVuSans-52"/>
      </g>
     </g>
    </g>
    <g id="ytick_4">
     <g id="line2d_27">
      <path clip-path="url(#pac01ef8d6f)" d="M 57.6 137.778059 
L 338.688 137.778059 
" style="fill:none;stroke:#b0b0b0;stroke-linecap:square;stroke-width:0.8;"/>
     </g>
     <g id="line2d_28">
      <g>
       <use style="stroke:#000000;stroke-width:0.8;" x="57.6" xlink:href="#md43b608b13" y="137.778059"/>
      </g>
     </g>
     <g id="text_9">
      <!-- 0.6 -->
      <g transform="translate(25.155 143.856809)scale(0.16 -0.16)">
       <use xlink:href="#DejaVuSans-48"/>
       <use x="63.623047" xlink:href="#DejaVuSans-46"/>
       <use x="95.410156" xlink:href="#DejaVuSans-54"/>
      </g>
     </g>
    </g>
    <g id="ytick_5">
     <g id="line2d_29">
      <path clip-path="url(#pac01ef8d6f)" d="M 57.6 84.056079 
L 338.688 84.056079 
" style="fill:none;stroke:#b0b0b0;stroke-linecap:square;stroke-width:0.8;"/>
     </g>
     <g id="line2d_30">
      <g>
       <use style="stroke:#000000;stroke-width:0.8;" x="57.6" xlink:href="#md43b608b13" y="84.056079"/>
      </g>
     </g>
     <g id="text_10">
      <!-- 0.8 -->
      <defs>
       <path d="M 31.78125 34.625 
Q 24.75 34.625 20.71875 30.859375 
Q 16.703125 27.09375 16.703125 20.515625 
Q 16.703125 13.921875 20.71875 10.15625 
Q 24.75 6.390625 31.78125 6.390625 
Q 38.8125 6.390625 42.859375 10.171875 
Q 46.921875 13.96875 46.921875 20.515625 
Q 46.921875 27.09375 42.890625 30.859375 
Q 38.875 34.625 31.78125 34.625 
z
M 21.921875 38.8125 
Q 15.578125 40.375 12.03125 44.71875 
Q 8.5 49.078125 8.5 55.328125 
Q 8.5 64.0625 14.71875 69.140625 
Q 20.953125 74.21875 31.78125 74.21875 
Q 42.671875 74.21875 48.875 69.140625 
Q 55.078125 64.0625 55.078125 55.328125 
Q 55.078125 49.078125 51.53125 44.71875 
Q 48 40.375 41.703125 38.8125 
Q 48.828125 37.15625 52.796875 32.3125 
Q 56.78125 27.484375 56.78125 20.515625 
Q 56.78125 9.90625 50.3125 4.234375 
Q 43.84375 -1.421875 31.78125 -1.421875 
Q 19.734375 -1.421875 13.25 4.234375 
Q 6.78125 9.90625 6.78125 20.515625 
Q 6.78125 27.484375 10.78125 32.3125 
Q 14.796875 37.15625 21.921875 38.8125 
z
M 18.3125 54.390625 
Q 18.3125 48.734375 21.84375 45.5625 
Q 25.390625 42.390625 31.78125 42.390625 
Q 38.140625 42.390625 41.71875 45.5625 
Q 45.3125 48.734375 45.3125 54.390625 
Q 45.3125 60.0625 41.71875 63.234375 
Q 38.140625 66.40625 31.78125 66.40625 
Q 25.390625 66.40625 21.84375 63.234375 
Q 18.3125 60.0625 18.3125 54.390625 
z
" id="DejaVuSans-56"/>
      </defs>
      <g transform="translate(25.155 90.134829)scale(0.16 -0.16)">
       <use xlink:href="#DejaVuSans-48"/>
       <use x="63.623047" xlink:href="#DejaVuSans-46"/>
       <use x="95.410156" xlink:href="#DejaVuSans-56"/>
      </g>
     </g>
    </g>
    <g id="ytick_6">
     <g id="line2d_31">
      <path clip-path="url(#pac01ef8d6f)" d="M 57.6 30.334099 
L 338.688 30.334099 
" style="fill:none;stroke:#b0b0b0;stroke-linecap:square;stroke-width:0.8;"/>
     </g>
     <g id="line2d_32">
      <g>
       <use style="stroke:#000000;stroke-width:0.8;" x="57.6" xlink:href="#md43b608b13" y="30.334099"/>
      </g>
     </g>
     <g id="text_11">
      <!-- 1.0 -->
      <g transform="translate(25.155 36.412849)scale(0.16 -0.16)">
       <use xlink:href="#DejaVuSans-49"/>
       <use x="63.623047" xlink:href="#DejaVuSans-46"/>
       <use x="95.410156" xlink:href="#DejaVuSans-48"/>
      </g>
     </g>
    </g>
    <g id="text_12">
     <!-- Fraction of function,target pairs -->
     <defs>
      <path d="M 9.8125 72.90625 
L 51.703125 72.90625 
L 51.703125 64.59375 
L 19.671875 64.59375 
L 19.671875 43.109375 
L 48.578125 43.109375 
L 48.578125 34.8125 
L 19.671875 34.8125 
L 19.671875 0 
L 9.8125 0 
z
" id="DejaVuSans-70"/>
      <path d="M 41.109375 46.296875 
Q 39.59375 47.171875 37.8125 47.578125 
Q 36.03125 48 33.890625 48 
Q 26.265625 48 22.1875 43.046875 
Q 18.109375 38.09375 18.109375 28.8125 
L 18.109375 0 
L 9.078125 0 
L 9.078125 54.6875 
L 18.109375 54.6875 
L 18.109375 46.1875 
Q 20.953125 51.171875 25.484375 53.578125 
Q 30.03125 56 36.53125 56 
Q 37.453125 56 38.578125 55.875 
Q 39.703125 55.765625 41.0625 55.515625 
z
" id="DejaVuSans-114"/>
      <path d="M 48.78125 52.59375 
L 48.78125 44.1875 
Q 44.96875 46.296875 41.140625 47.34375 
Q 37.3125 48.390625 33.40625 48.390625 
Q 24.65625 48.390625 19.8125 42.84375 
Q 14.984375 37.3125 14.984375 27.296875 
Q 14.984375 17.28125 19.8125 11.734375 
Q 24.65625 6.203125 33.40625 6.203125 
Q 37.3125 6.203125 41.140625 7.25 
Q 44.96875 8.296875 48.78125 10.40625 
L 48.78125 2.09375 
Q 45.015625 0.34375 40.984375 -0.53125 
Q 36.96875 -1.421875 32.421875 -1.421875 
Q 20.0625 -1.421875 12.78125 6.34375 
Q 5.515625 14.109375 5.515625 27.296875 
Q 5.515625 40.671875 12.859375 48.328125 
Q 20.21875 56 33.015625 56 
Q 37.15625 56 41.109375 55.140625 
Q 45.0625 54.296875 48.78125 52.59375 
z
" id="DejaVuSans-99"/>
      <path d="M 18.3125 70.21875 
L 18.3125 54.6875 
L 36.8125 54.6875 
L 36.8125 47.703125 
L 18.3125 47.703125 
L 18.3125 18.015625 
Q 18.3125 11.328125 20.140625 9.421875 
Q 21.96875 7.515625 27.59375 7.515625 
L 36.8125 7.515625 
L 36.8125 0 
L 27.59375 0 
Q 17.1875 0 13.234375 3.875 
Q 9.28125 7.765625 9.28125 18.015625 
L 9.28125 47.703125 
L 2.6875 47.703125 
L 2.6875 54.6875 
L 9.28125 54.6875 
L 9.28125 70.21875 
z
" id="DejaVuSans-116"/>
      <path d="M 8.5 21.578125 
L 8.5 54.6875 
L 17.484375 54.6875 
L 17.484375 21.921875 
Q 17.484375 14.15625 20.5 10.265625 
Q 23.53125 6.390625 29.59375 6.390625 
Q 36.859375 6.390625 41.078125 11.03125 
Q 45.3125 15.671875 45.3125 23.6875 
L 45.3125 54.6875 
L 54.296875 54.6875 
L 54.296875 0 
L 45.3125 0 
L 45.3125 8.40625 
Q 42.046875 3.421875 37.71875 1 
Q 33.40625 -1.421875 27.6875 -1.421875 
Q 18.265625 -1.421875 13.375 4.4375 
Q 8.5 10.296875 8.5 21.578125 
z
M 31.109375 56 
z
" id="DejaVuSans-117"/>
      <path d="M 11.71875 12.40625 
L 22.015625 12.40625 
L 22.015625 4 
L 14.015625 -11.625 
L 7.71875 -11.625 
L 11.71875 4 
z
" id="DejaVuSans-44"/>
      <path d="M 18.109375 8.203125 
L 18.109375 -20.796875 
L 9.078125 -20.796875 
L 9.078125 54.6875 
L 18.109375 54.6875 
L 18.109375 46.390625 
Q 20.953125 51.265625 25.265625 53.625 
Q 29.59375 56 35.59375 56 
Q 45.5625 56 51.78125 48.09375 
Q 58.015625 40.1875 58.015625 27.296875 
Q 58.015625 14.40625 51.78125 6.484375 
Q 45.5625 -1.421875 35.59375 -1.421875 
Q 29.59375 -1.421875 25.265625 0.953125 
Q 20.953125 3.328125 18.109375 8.203125 
z
M 48.6875 27.296875 
Q 48.6875 37.203125 44.609375 42.84375 
Q 40.53125 48.484375 33.40625 48.484375 
Q 26.265625 48.484375 22.1875 42.84375 
Q 18.109375 37.203125 18.109375 27.296875 
Q 18.109375 17.390625 22.1875 11.75 
Q 26.265625 6.109375 33.40625 6.109375 
Q 40.53125 6.109375 44.609375 11.75 
Q 48.6875 17.390625 48.6875 27.296875 
z
" id="DejaVuSans-112"/>
     </defs>
     <g transform="translate(17.619531 297.681)rotate(-90)scale(0.17 -0.17)">
      <use xlink:href="#DejaVuSans-70"/>
      <use x="50.269531" xlink:href="#DejaVuSans-114"/>
      <use x="91.382812" xlink:href="#DejaVuSans-97"/>
      <use x="152.662109" xlink:href="#DejaVuSans-99"/>
      <use x="207.642578" xlink:href="#DejaVuSans-116"/>
      <use x="246.851562" xlink:href="#DejaVuSans-105"/>
      <use x="274.634766" xlink:href="#DejaVuSans-111"/>
      <use x="335.816406" xlink:href="#DejaVuSans-110"/>
      <use x="399.195312" xlink:href="#DejaVuSans-32"/>
      <use x="430.982422" xlink:href="#DejaVuSans-111"/>
      <use x="492.164062" xlink:href="#DejaVuSans-102"/>
      <use x="527.369141" xlink:href="#DejaVuSans-32"/>
      <use x="559.15625" xlink:href="#DejaVuSans-102"/>
      <use x="594.361328" xlink:href="#DejaVuSans-117"/>
      <use x="657.740234" xlink:href="#DejaVuSans-110"/>
      <use x="721.119141" xlink:href="#DejaVuSans-99"/>
      <use x="776.099609" xlink:href="#DejaVuSans-116"/>
      <use x="815.308594" xlink:href="#DejaVuSans-105"/>
      <use x="843.091797" xlink:href="#DejaVuSans-111"/>
      <use x="904.273438" xlink:href="#DejaVuSans-110"/>
      <use x="967.652344" xlink:href="#DejaVuSans-44"/>
      <use x="999.439453" xlink:href="#DejaVuSans-116"/>
      <use x="1038.648438" xlink:href="#DejaVuSans-97"/>
      <use x="1099.927734" xlink:href="#DejaVuSans-114"/>
      <use x="1139.291016" xlink:href="#DejaVuSans-103"/>
      <use x="1202.767578" xlink:href="#DejaVuSans-101"/>
      <use x="1264.291016" xlink:href="#DejaVuSans-116"/>
      <use x="1303.5" xlink:href="#DejaVuSans-32"/>
      <use x="1335.287109" xlink:href="#DejaVuSans-112"/>
      <use x="1398.763672" xlink:href="#DejaVuSans-97"/>
      <use x="1460.042969" xlink:href="#DejaVuSans-105"/>
      <use x="1487.826172" xlink:href="#DejaVuSans-114"/>
      <use x="1528.939453" xlink:href="#DejaVuSans-115"/>
     </g>
    </g>
   </g>
   <g id="line2d_33">
    <defs>
     <path d="M 0 1.5 
C 0.397805 1.5 0.77937 1.341951 1.06066 1.06066 
C 1.341951 0.77937 1.5 0.397805 1.5 0 
C 1.5 -0.397805 1.341951 -0.77937 1.06066 -1.06066 
C 0.77937 -1.341951 0.397805 -1.5 0 -1.5 
C -0.397805 -1.5 -0.77937 -1.341951 -1.06066 -1.06066 
C -1.341951 -0.77937 -1.5 -0.397805 -1.5 0 
C -1.5 0.397805 -1.341951 0.77937 -1.06066 1.06066 
C -0.77937 1.341951 -0.397805 1.5 0 1.5 
z
" id="mebd534607e" style="stroke:#f5deb3;"/>
    </defs>
    <g>
     <use style="fill:#f5deb3;stroke:#f5deb3;" x="126.50685" xlink:href="#mebd534607e" y="30.334099"/>
     <use style="fill:#f5deb3;stroke:#f5deb3;" x="126.50685" xlink:href="#mebd534607e" y="30.334099"/>
    </g>
   </g>
   <g id="line2d_34">
    <defs>
     <path d="M 0 1.5 
C 0.397805 1.5 0.77937 1.341951 1.06066 1.06066 
C 1.341951 0.77937 1.5 0.397805 1.5 0 
C 1.5 -0.397805 1.341951 -0.77937 1.06066 -1.06066 
C 0.77937 -1.341951 0.397805 -1.5 0 -1.5 
C -0.397805 -1.5 -0.77937 -1.341951 -1.06066 -1.06066 
C -1.341951 -0.77937 -1.5 -0.397805 -1.5 0 
C -1.5 0.397805 -1.341951 0.77937 -1.06066 1.06066 
C -0.77937 1.341951 -0.397805 1.5 0 1.5 
z
" id="m890bfe7792" style="stroke:#000080;"/>
    </defs>
    <g>
     <use style="fill:#000080;stroke:#000080;" x="268.719229" xlink:href="#m890bfe7792" y="219.941088"/>
     <use style="fill:#000080;stroke:#000080;" x="268.719229" xlink:href="#m890bfe7792" y="219.941088"/>
    </g>
   </g>
   <g id="line2d_35">
    <path d="M 90.242884 298.944 
L 90.242884 297.363942 
L 111.104637 297.363942 
L 111.104637 295.257197 
L 128.260216 295.257197 
L 128.260216 292.097081 
L 137.735587 292.097081 
L 137.735587 291.043709 
L 143.653678 291.043709 
L 143.653678 290.517023 
L 144.026061 290.517023 
L 144.026061 289.990337 
L 147.010073 289.990337 
L 147.010073 288.410278 
L 150.724698 288.410278 
L 150.766468 284.19679 
L 154.741174 284.19679 
L 154.741174 281.563359 
L 155.990803 281.563359 
L 156.083319 279.983301 
L 157.753847 279.983301 
L 157.753847 279.456615 
L 160.249422 279.456615 
L 160.249422 278.929929 
L 163.847782 278.929929 
L 163.847782 277.349871 
L 168.445948 277.349871 
L 168.445948 275.769812 
L 169.841835 275.769812 
L 169.841835 274.71644 
L 174.16392 274.71644 
L 174.229235 273.136382 
L 177.116609 273.136382 
L 177.116609 269.976266 
L 184.503941 269.976266 
L 184.503941 266.816149 
L 184.897325 266.816149 
L 184.897325 264.182719 
L 188.151376 264.182719 
L 188.151376 263.656033 
L 189.663493 263.656033 
L 189.663493 262.075974 
L 194.442298 262.075974 
L 194.442298 261.022602 
L 195.442698 261.022602 
L 195.442698 260.495916 
L 195.919037 260.495916 
L 195.919037 259.442544 
L 199.647471 259.442544 
L 199.647471 255.755741 
L 202.152657 255.755741 
L 202.152657 255.229055 
L 204.079892 255.229055 
L 204.079892 253.648997 
L 206.333133 253.648997 
L 206.333133 253.122311 
L 207.612587 253.122311 
L 207.612587 252.595625 
L 209.158551 252.595625 
L 209.158551 249.962195 
L 213.337937 249.962195 
L 213.337937 248.908822 
L 217.225015 248.908822 
L 217.225015 248.382136 
L 219.799627 248.382136 
L 219.799627 247.85545 
L 222.504282 247.85545 
L 222.504282 247.328764 
L 223.386723 247.328764 
L 223.386723 244.168648 
L 225.359457 244.168648 
L 225.359457 243.641962 
L 226.360376 243.641962 
L 226.360376 241.535217 
L 228.900077 241.535217 
L 228.900077 239.428473 
L 231.116499 239.428473 
L 231.116499 237.848415 
L 233.082728 237.848415 
L 233.082728 236.268356 
L 236.453743 236.268356 
L 236.453743 234.688298 
L 237.414116 234.688298 
L 237.414116 234.161612 
L 237.922713 234.161612 
L 237.922713 233.10824 
L 239.277501 233.10824 
L 239.277501 232.581554 
L 240.775245 232.581554 
L 240.775245 232.054868 
L 241.707117 232.054868 
L 241.707117 231.001496 
L 243.839263 231.001496 
L 243.839263 230.47481 
L 244.814934 230.47481 
L 244.814934 229.948123 
L 245.7389 229.948123 
L 245.7389 228.368065 
L 246.616365 228.368065 
L 246.616365 226.788007 
L 247.451788 226.788007 
L 247.451788 226.261321 
L 251.116842 226.261321 
L 251.116842 225.734635 
L 252.995274 225.734635 
L 252.995274 224.681263 
L 255.221357 224.681263 
L 255.221357 224.154577 
L 256.23618 224.154577 
L 256.23618 223.627891 
L 256.722273 223.627891 
L 256.722273 223.101204 
L 257.655606 223.101204 
L 257.655606 222.047832 
L 258.104186 222.047832 
L 258.104186 221.521146 
L 259.384589 221.521146 
L 259.384589 220.99446 
L 265.844382 220.99446 
L 265.844382 220.467774 
L 268.719229 220.467774 
L 268.719229 219.941088 
L 338.688 219.941088 
L 338.688 219.941088 
" style="fill:none;stroke:#000080;stroke-linecap:square;stroke-width:1.5;"/>
   </g>
   <g id="line2d_36">
    <defs>
     <path d="M 0 6 
C 1.591219 6 3.117479 5.367802 4.242641 4.242641 
C 5.367802 3.117479 6 1.591219 6 0 
C 6 -1.591219 5.367802 -3.117479 4.242641 -4.242641 
C 3.117479 -5.367802 1.591219 -6 0 -6 
C -1.591219 -6 -3.117479 -5.367802 -4.242641 -4.242641 
C -5.367802 -3.117479 -6 -1.591219 -6 0 
C -6 1.591219 -5.367802 3.117479 -4.242641 4.242641 
C -3.117479 5.367802 -1.591219 6 0 6 
z
" id="m4a5e33bd02" style="stroke:#000080;stroke-width:1.5;"/>
    </defs>
    <g>
     <use style="fill-opacity:0;stroke:#000080;stroke-width:1.5;" x="184.897325" xlink:href="#m4a5e33bd02" y="266.816149"/>
     <use style="fill-opacity:0;stroke:#000080;stroke-width:1.5;" x="256.722273" xlink:href="#m4a5e33bd02" y="223.101204"/>
     <use style="fill-opacity:0;stroke:#000080;stroke-width:1.5;" x="268.719229" xlink:href="#m4a5e33bd02" y="219.941088"/>
     <use style="fill-opacity:0;stroke:#000080;stroke-width:1.5;" x="268.719229" xlink:href="#m4a5e33bd02" y="219.941088"/>
     <use style="fill-opacity:0;stroke:#000080;stroke-width:1.5;" x="338.688" xlink:href="#m4a5e33bd02" y="219.941088"/>
    </g>
   </g>
   <g id="line2d_37">
    <path style="fill:none;stroke:#000080;stroke-linecap:square;stroke-width:1.5;"/>
    <g/>
   </g>
   <g id="line2d_38">
    <path clip-path="url(#pac01ef8d6f)" d="M 194.045737 262.075974 
" style="fill:none;stroke:#000080;stroke-linecap:square;stroke-width:1.5;"/>
    <defs>
     <path d="M -12 12 
L 12 -12 
M -12 -12 
L 12 12 
" id="m795a19507a" style="stroke:#000080;"/>
    </defs>
    <g clip-path="url(#pac01ef8d6f)">
     <use style="fill:#000080;stroke:#000080;" x="194.045737" xlink:href="#m795a19507a" y="262.075974"/>
    </g>
   </g>
   <g id="line2d_39">
    <defs>
     <path d="M 0 1.5 
C 0.397805 1.5 0.77937 1.341951 1.06066 1.06066 
C 1.341951 0.77937 1.5 0.397805 1.5 0 
C 1.5 -0.397805 1.341951 -0.77937 1.06066 -1.06066 
C 0.77937 -1.341951 0.397805 -1.5 0 -1.5 
C -0.397805 -1.5 -0.77937 -1.341951 -1.06066 -1.06066 
C -1.341951 -0.77937 -1.5 -0.397805 -1.5 0 
C -1.5 0.397805 -1.341951 0.77937 -1.06066 1.06066 
C -0.77937 1.341951 -0.397805 1.5 0 1.5 
z
" id="m0759ba099b" style="stroke:#ff7500;"/>
    </defs>
    <g>
     <use style="fill:#ff7500;stroke:#ff7500;" x="228.977896" xlink:href="#m0759ba099b" y="30.334099"/>
     <use style="fill:#ff7500;stroke:#ff7500;" x="228.977896" xlink:href="#m0759ba099b" y="30.334099"/>
    </g>
   </g>
   <g id="line2d_40">
    <path d="M 108.483824 298.944 
L 108.483824 298.417314 
L 126.338353 298.417314 
L 126.338353 296.837256 
L 127.325746 296.837256 
L 127.325746 294.730511 
L 129.002426 294.730511 
L 129.002426 293.677139 
L 133.239232 293.677139 
L 133.239232 292.097081 
L 135.482227 292.097081 
L 135.482227 291.043709 
L 135.878591 291.043709 
L 135.878591 289.990337 
L 136.266147 289.990337 
L 136.266147 287.883592 
L 137.289545 287.883592 
L 137.37967 285.776848 
L 139.572998 285.776848 
L 139.572998 283.670104 
L 139.8092 283.670104 
L 139.8092 278.929929 
L 139.964909 278.929929 
L 139.964909 278.403243 
L 140.11924 278.403243 
L 140.11924 275.243126 
L 141.235139 275.243126 
L 141.235139 274.71644 
L 143.337167 274.71644 
L 143.337167 273.136382 
L 143.653678 273.136382 
L 143.653678 271.556324 
L 143.964547 271.556324 
L 143.964547 269.449579 
L 144.570138 269.449579 
L 144.570138 267.342835 
L 146.107383 267.342835 
L 146.107383 265.236091 
L 146.270114 265.236091 
L 146.270114 263.656033 
L 147.266916 263.656033 
L 147.266916 262.60266 
L 147.4697 262.60266 
L 147.4697 262.075974 
L 149.104327 262.075974 
L 149.104327 261.549288 
L 150.47195 261.549288 
L 150.47195 261.022602 
L 150.891184 261.022602 
L 150.891184 260.495916 
L 151.219462 260.495916 
L 151.219462 259.442544 
L 152.283884 259.442544 
L 152.283884 258.915858 
L 152.549559 258.915858 
L 152.549559 257.862486 
L 152.995791 257.862486 
L 152.995791 257.3358 
L 154.063835 257.3358 
L 154.063835 255.229055 
L 154.337936 255.229055 
L 154.439623 253.122311 
L 154.707925 253.122311 
L 154.77436 251.015567 
L 155.135299 251.015567 
L 155.167744 248.382136 
L 155.329071 248.382136 
L 155.361158 247.328764 
L 155.804285 247.328764 
L 155.86668 245.22202 
L 156.894595 245.22202 
L 156.894595 244.695334 
L 157.185742 244.695334 
L 157.185742 244.168648 
L 157.38669 244.168648 
L 157.38669 242.588589 
L 157.697862 242.588589 
L 157.697862 242.061903 
L 158.086033 242.061903 
L 158.195371 238.375101 
L 158.492562 238.375101 
L 158.492562 237.848415 
L 158.994256 237.848415 
L 159.072168 235.74167 
L 159.380382 235.74167 
L 159.380382 235.214984 
L 160.225184 235.214984 
L 160.297798 233.10824 
L 160.513841 233.10824 
L 160.513841 231.528182 
L 160.821253 231.528182 
L 160.914762 229.421437 
L 161.465522 229.421437 
L 161.465522 228.894751 
L 161.778945 228.894751 
L 161.84538 226.788007 
L 161.933569 226.788007 
L 161.933569 225.207949 
L 162.581141 225.207949 
L 162.581141 224.154577 
L 162.979172 224.154577 
L 163.061823 220.99446 
L 163.348054 220.99446 
L 163.348054 219.414402 
L 163.569701 219.414402 
L 163.569701 218.887716 
L 163.828065 218.887716 
L 163.906798 217.307658 
L 164.004716 217.307658 
L 164.063205 216.254285 
L 164.768882 216.254285 
L 164.768882 214.147541 
L 165.047026 214.147541 
L 165.065412 211.514111 
L 165.320804 211.514111 
L 165.338904 207.827308 
L 166.065276 207.827308 
L 166.065276 205.720564 
L 166.476842 205.720564 
L 166.476842 205.193878 
L 166.795913 205.193878 
L 166.795913 204.667192 
L 167.141909 204.667192 
L 167.141909 203.613819 
L 167.400994 203.613819 
L 167.400994 203.087133 
L 167.576907 203.087133 
L 167.576907 199.927017 
L 168.001318 199.927017 
L 168.001318 198.873645 
L 168.202038 198.873645 
L 168.202038 198.346959 
L 168.339657 198.346959 
L 168.415645 195.186842 
L 168.760989 195.186842 
L 168.820356 194.13347 
L 169.230367 194.13347 
L 169.230367 193.606784 
L 169.388841 193.606784 
L 169.388841 192.026726 
L 169.715615 192.026726 
L 169.715615 191.50004 
L 170.008719 191.50004 
L 170.036379 190.446667 
L 170.647393 190.446667 
L 170.647393 188.339923 
L 170.912232 188.339923 
L 170.912232 187.286551 
L 171.069226 187.286551 
L 171.160157 184.653121 
L 171.314944 184.653121 
L 171.379036 182.546376 
L 171.49381 182.546376 
L 171.49381 180.966318 
L 171.771231 180.966318 
L 171.783736 178.332888 
L 171.945501 178.332888 
L 171.945501 177.806202 
L 172.325296 177.806202 
L 172.325296 177.279515 
L 172.506141 177.279515 
L 172.577957 172.539341 
L 172.637578 172.539341 
L 172.637578 172.012655 
L 173.037687 172.012655 
L 173.037687 170.432596 
L 173.257343 170.432596 
L 173.31469 168.852538 
L 173.530906 168.852538 
L 173.598631 164.112363 
L 173.666095 164.112363 
L 173.666095 162.005619 
L 173.789104 162.005619 
L 173.878023 159.898875 
L 173.999552 159.898875 
L 173.999552 159.372189 
L 174.12024 159.372189 
L 174.207491 158.318817 
L 174.326753 158.318817 
L 174.359138 157.265444 
L 174.541525 157.265444 
L 174.541525 156.738758 
L 174.700886 156.738758 
L 174.732584 153.578642 
L 174.869281 153.578642 
L 174.963293 151.471897 
L 175.077514 151.471897 
L 175.077514 150.945211 
L 175.283289 150.945211 
L 175.303734 148.311781 
L 175.425901 148.311781 
L 175.466434 145.678351 
L 175.577416 145.678351 
L 175.577416 145.151665 
L 175.906187 145.151665 
L 176.004603 143.04492 
L 176.043814 143.04492 
L 176.043814 141.464862 
L 176.383205 141.464862 
L 176.383205 140.938176 
L 176.931477 140.938176 
L 176.931477 140.41149 
L 177.052036 140.41149 
L 177.07051 139.358118 
L 177.2176 139.358118 
L 177.2176 138.831432 
L 177.36346 138.831432 
L 177.36346 137.778059 
L 177.490094 137.778059 
L 177.490094 137.251373 
L 177.65157 137.251373 
L 177.65157 134.617943 
L 177.820411 134.617943 
L 177.820411 133.037885 
L 177.961335 133.037885 
L 177.970105 130.93114 
L 178.127217 130.93114 
L 178.213893 127.771024 
L 178.573302 127.771024 
L 178.607149 126.717652 
L 180.220807 126.717652 
L 180.220807 126.190966 
L 180.511214 126.190966 
L 180.511214 124.084221 
L 180.669651 124.084221 
L 180.669651 122.504163 
L 181.173027 122.504163 
L 181.173027 121.977477 
L 181.498329 121.977477 
L 181.498329 121.450791 
L 187.113676 121.450791 
L 187.113676 120.924105 
L 195.005878 120.924105 
L 195.005878 119.870733 
L 195.590163 119.870733 
L 195.590163 119.344047 
L 195.758537 119.344047 
L 195.827954 118.290674 
L 195.897095 118.290674 
L 195.897095 117.763988 
L 196.03456 117.763988 
L 196.090485 115.657244 
L 196.146232 115.657244 
L 196.247973 114.077186 
L 196.397956 114.077186 
L 196.477018 112.497128 
L 196.549682 112.497128 
L 196.60097 111.443755 
L 196.703095 111.443755 
L 196.813555 109.863697 
L 196.884833 109.863697 
L 196.946963 106.703581 
L 197.050024 106.703581 
L 197.120343 104.07015 
L 197.239821 104.07015 
L 197.312273 101.43672 
L 197.424702 101.43672 
L 197.502114 98.803289 
L 197.655916 98.803289 
L 197.732311 94.063115 
L 197.811183 94.063115 
L 197.842072 92.483056 
L 198.095526 92.483056 
L 198.095526 91.95637 
L 198.274335 91.95637 
L 198.33717 88.796254 
L 198.497326 88.796254 
L 198.527024 86.162824 
L 198.733504 86.162824 
L 198.815946 84.056079 
L 198.874219 84.056079 
L 198.977043 81.422649 
L 199.01643 81.422649 
L 199.081878 79.315904 
L 199.162694 79.315904 
L 199.162694 78.789218 
L 199.323212 78.789218 
L 199.359254 76.155788 
L 199.449035 76.155788 
L 199.449035 75.629102 
L 199.596805 75.629102 
L 199.629754 74.57573 
L 199.796084 74.57573 
L 199.843674 70.362241 
L 199.931002 70.362241 
L 199.931002 68.782183 
L 200.059943 68.782183 
L 200.059943 68.255497 
L 200.647785 68.255497 
L 200.647785 66.675439 
L 200.769181 66.675439 
L 200.769181 66.148752 
L 200.964958 66.148752 
L 200.964958 65.622066 
L 206.620403 65.622066 
L 206.620403 65.09538 
L 207.209021 65.09538 
L 207.269583 64.042008 
L 207.543559 64.042008 
L 207.644601 62.46195 
L 207.738699 62.46195 
L 207.803792 61.408578 
L 207.856008 61.408578 
L 207.856008 60.881892 
L 208.024246 60.881892 
L 208.024246 60.355206 
L 208.325198 60.355206 
L 208.430998 59.301833 
L 208.507266 59.301833 
L 208.569557 57.721775 
L 208.634649 57.721775 
L 208.669366 55.615031 
L 208.773104 55.615031 
L 208.832961 52.9816 
L 209.272543 52.9816 
L 209.323453 51.401542 
L 209.775068 51.401542 
L 209.775068 50.874856 
L 213.819279 50.874856 
L 213.819279 50.34817 
L 214.053397 50.34817 
L 214.136254 48.241426 
L 214.203356 48.241426 
L 214.290969 46.134681 
L 214.463803 46.134681 
L 214.505936 44.027937 
L 214.683073 44.027937 
L 214.683073 43.501251 
L 214.923868 43.501251 
L 215.026804 41.394507 
L 215.040413 41.394507 
L 215.098917 40.341135 
L 215.157225 40.341135 
L 215.157225 39.814448 
L 215.320694 39.814448 
L 215.376213 38.23439 
L 215.783058 38.23439 
L 215.783058 37.707704 
L 219.351851 37.707704 
L 219.351851 37.181018 
L 219.516969 37.181018 
L 219.603376 36.127646 
L 219.662885 36.127646 
L 219.662885 35.60096 
L 223.00187 35.60096 
L 223.00187 35.074274 
L 223.263734 35.074274 
L 223.313294 34.020902 
L 223.437228 34.020902 
L 223.493389 32.967529 
L 225.826833 32.967529 
L 225.826833 32.440843 
L 225.957701 32.440843 
L 225.957701 31.914157 
L 228.732892 31.914157 
L 228.839942 30.860785 
L 228.977896 30.860785 
L 228.977896 30.334099 
L 338.688 30.334099 
L 338.688 30.334099 
" style="fill:none;stroke:#ff7500;stroke-linecap:square;stroke-width:1.5;"/>
   </g>
   <g id="line2d_41">
    <defs>
     <path d="M 0 -6 
L -1.347084 -1.854102 
L -5.706339 -1.854102 
L -2.179628 0.708204 
L -3.526712 4.854102 
L -0 2.291796 
L 3.526712 4.854102 
L 2.179628 0.708204 
L 5.706339 -1.854102 
L 1.347084 -1.854102 
z
" id="mf25a6d07cd" style="stroke:#ff7500;stroke-linejoin:bevel;stroke-width:1.5;"/>
    </defs>
    <g>
     <use style="fill-opacity:0;stroke:#ff7500;stroke-linejoin:bevel;stroke-width:1.5;" x="173.530906" xlink:href="#mf25a6d07cd" y="168.852538"/>
     <use style="fill-opacity:0;stroke:#ff7500;stroke-linejoin:bevel;stroke-width:1.5;" x="228.977896" xlink:href="#mf25a6d07cd" y="30.860785"/>
     <use style="fill-opacity:0;stroke:#ff7500;stroke-linejoin:bevel;stroke-width:1.5;" x="228.977896" xlink:href="#mf25a6d07cd" y="30.334099"/>
     <use style="fill-opacity:0;stroke:#ff7500;stroke-linejoin:bevel;stroke-width:1.5;" x="228.977896" xlink:href="#mf25a6d07cd" y="30.334099"/>
     <use style="fill-opacity:0;stroke:#ff7500;stroke-linejoin:bevel;stroke-width:1.5;" x="338.688" xlink:href="#mf25a6d07cd" y="30.334099"/>
    </g>
   </g>
   <g id="line2d_42">
    <path style="fill:none;stroke:#ff7500;stroke-linecap:square;stroke-width:1.5;"/>
    <g/>
   </g>
   <g id="line2d_43">
    <path clip-path="url(#pac01ef8d6f)" d="M 194.045737 120.924105 
" style="fill:none;stroke:#ff7500;stroke-linecap:square;stroke-width:1.5;"/>
    <defs>
     <path d="M -12 12 
L 12 -12 
M -12 -12 
L 12 12 
" id="mee99ef8af6" style="stroke:#ff7500;"/>
    </defs>
    <g clip-path="url(#pac01ef8d6f)">
     <use style="fill:#ff7500;stroke:#ff7500;" x="194.045737" xlink:href="#mee99ef8af6" y="120.924105"/>
    </g>
   </g>
   <g id="line2d_44">
    <defs>
     <path d="M 0 1.5 
C 0.397805 1.5 0.77937 1.341951 1.06066 1.06066 
C 1.341951 0.77937 1.5 0.397805 1.5 0 
C 1.5 -0.397805 1.341951 -0.77937 1.06066 -1.06066 
C 0.77937 -1.341951 0.397805 -1.5 0 -1.5 
C -0.397805 -1.5 -0.77937 -1.341951 -1.06066 -1.06066 
C -1.341951 -0.77937 -1.5 -0.397805 -1.5 0 
C -1.5 0.397805 -1.341951 0.77937 -1.06066 1.06066 
C -0.77937 1.341951 -0.397805 1.5 0 1.5 
z
" id="m52017e6897" style="stroke:#6495ed;"/>
    </defs>
    <g>
     <use style="fill:#6495ed;stroke:#6495ed;" x="270.885371" xlink:href="#m52017e6897" y="125.137593"/>
     <use style="fill:#6495ed;stroke:#6495ed;" x="270.885371" xlink:href="#m52017e6897" y="125.137593"/>
    </g>
   </g>
   <g id="line2d_45">
    <path d="M 108.483824 298.944 
L 108.483824 297.363942 
L 119.351785 297.363942 
L 119.351785 296.837256 
L 120.571812 296.837256 
L 120.571812 295.783884 
L 125.647598 295.783884 
L 125.647598 294.203825 
L 127.799239 294.203825 
L 127.799239 293.150453 
L 133.46572 293.150453 
L 133.46572 292.097081 
L 133.800029 292.097081 
L 133.800029 291.043709 
L 136.551264 291.043709 
L 136.551264 288.936964 
L 140.871049 288.936964 
L 140.871049 286.83022 
L 142.752555 286.83022 
L 142.752555 284.723476 
L 142.884173 284.723476 
L 142.884173 284.19679 
L 143.778691 284.19679 
L 143.778691 282.090045 
L 144.570138 282.090045 
L 144.570138 279.983301 
L 147.113265 279.983301 
L 147.113265 277.876557 
L 148.112924 277.876557 
L 148.112924 276.823185 
L 148.306159 276.823185 
L 148.306159 276.296499 
L 148.449693 276.296499 
L 148.449693 275.769812 
L 149.377533 275.769812 
L 149.377533 274.71644 
L 150.932558 274.71644 
L 150.932558 273.136382 
L 151.178764 273.136382 
L 151.260066 271.029638 
L 152.774102 271.029638 
L 152.774102 270.502952 
L 155.897793 270.502952 
L 155.959855 265.236091 
L 159.431225 265.236091 
L 159.431225 263.656033 
L 160.103486 263.656033 
L 160.103486 263.129347 
L 160.346039 263.129347 
L 160.346039 261.022602 
L 160.727241 261.022602 
L 160.727241 260.495916 
L 161.778945 260.495916 
L 161.778945 259.442544 
L 162.474869 259.442544 
L 162.474869 258.389172 
L 162.728843 258.389172 
L 162.728843 256.809114 
L 164.276 256.809114 
L 164.276 256.282427 
L 164.448194 256.282427 
L 164.448194 255.229055 
L 164.580957 255.229055 
L 164.580957 254.702369 
L 165.083779 254.702369 
L 165.083779 254.175683 
L 165.447111 254.175683 
L 165.447111 253.648997 
L 165.679281 253.648997 
L 165.679281 252.595625 
L 166.408919 252.595625 
L 166.408919 251.542253 
L 166.928532 251.542253 
L 166.928532 249.962195 
L 167.109252 249.962195 
L 167.109252 248.908822 
L 167.497166 248.908822 
L 167.497166 247.85545 
L 168.109685 247.85545 
L 168.109685 246.275392 
L 168.566635 246.275392 
L 168.566635 245.748706 
L 169.331381 245.748706 
L 169.417501 243.115275 
L 169.701534 243.115275 
L 169.701534 242.588589 
L 170.310587 242.588589 
L 170.364915 241.535217 
L 170.553741 241.535217 
L 170.634045 238.901787 
L 170.740545 238.901787 
L 170.740545 234.688298 
L 171.276376 234.688298 
L 171.276376 234.161612 
L 172.685129 234.161612 
L 172.685129 233.634926 
L 174.283479 233.634926 
L 174.283479 231.001496 
L 175.20127 231.001496 
L 175.20127 230.47481 
L 175.344551 230.47481 
L 175.344551 229.421437 
L 176.209486 229.421437 
L 176.209486 228.894751 
L 176.498063 228.894751 
L 176.498063 224.681263 
L 176.819447 224.681263 
L 176.922168 223.101204 
L 177.36346 223.101204 
L 177.36346 220.99446 
L 178.308742 220.99446 
L 178.377401 219.414402 
L 178.758649 219.414402 
L 178.758649 218.887716 
L 179.569163 218.887716 
L 179.569163 217.834344 
L 180.05044 217.834344 
L 180.159048 216.780971 
L 180.282349 216.780971 
L 180.282349 215.727599 
L 180.662139 215.727599 
L 180.662139 215.200913 
L 181.347276 215.200913 
L 181.361719 213.094169 
L 181.831732 213.094169 
L 181.831732 211.514111 
L 181.978663 211.514111 
L 181.978663 209.934052 
L 182.391773 209.934052 
L 182.391773 208.353994 
L 182.540827 208.353994 
L 182.540827 204.667192 
L 183.046156 204.667192 
L 183.091972 202.033761 
L 184.089136 202.033761 
L 184.15691 198.873645 
L 184.437506 198.873645 
L 184.437506 198.346959 
L 185.391224 198.346959 
L 185.391224 197.293586 
L 186.31179 197.293586 
L 186.31179 196.240214 
L 186.704063 196.240214 
L 186.704063 195.713528 
L 187.604956 195.713528 
L 187.715618 194.660156 
L 187.974425 194.660156 
L 188.082775 191.50004 
L 188.326548 191.50004 
L 188.43755 190.446667 
L 188.490389 190.446667 
L 188.514354 189.393295 
L 188.898067 189.393295 
L 188.898067 188.866609 
L 189.084485 188.866609 
L 189.126156 186.759865 
L 189.255166 186.759865 
L 189.255166 184.653121 
L 189.609598 184.653121 
L 189.609598 184.126434 
L 190.271594 184.126434 
L 190.319165 180.439632 
L 190.589149 180.439632 
L 190.652819 174.646085 
L 191.030035 174.646085 
L 191.030035 174.119399 
L 191.252509 174.119399 
L 191.321964 173.066027 
L 191.536741 173.066027 
L 191.593036 171.485969 
L 191.856005 171.485969 
L 191.856005 170.432596 
L 192.138429 170.432596 
L 192.138429 169.379224 
L 192.258633 169.379224 
L 192.258633 167.799166 
L 192.74637 167.799166 
L 192.821362 164.112363 
L 192.86247 164.112363 
L 192.86247 163.585677 
L 193.173234 163.585677 
L 193.173234 160.425561 
L 193.42081 160.425561 
L 193.42081 159.372189 
L 193.81754 159.372189 
L 193.81754 158.845503 
L 193.97584 158.845503 
L 193.97584 157.79213 
L 203.846838 157.79213 
L 203.846838 157.265444 
L 204.369792 157.265444 
L 204.369792 156.738758 
L 204.490932 156.738758 
L 204.519651 155.685386 
L 205.073206 155.685386 
L 205.073206 155.1587 
L 205.206133 155.1587 
L 205.206133 154.632014 
L 205.496141 154.632014 
L 205.532281 153.051956 
L 205.70293 153.051956 
L 205.70293 151.998584 
L 206.098812 151.998584 
L 206.098812 151.471897 
L 211.749367 151.471897 
L 211.749367 150.945211 
L 212.591865 150.945211 
L 212.591865 150.418525 
L 212.783481 150.418525 
L 212.783481 149.891839 
L 212.918734 149.891839 
L 212.918734 147.258409 
L 217.141724 147.258409 
L 217.141724 146.731723 
L 217.764085 146.731723 
L 217.764085 145.678351 
L 218.007647 145.678351 
L 218.007647 143.571606 
L 218.164944 143.571606 
L 218.164944 143.04492 
L 221.748039 143.04492 
L 221.748039 141.464862 
L 221.942134 141.464862 
L 221.942134 140.41149 
L 222.067776 140.41149 
L 222.067776 139.884804 
L 225.150315 139.884804 
L 225.150315 138.304745 
L 227.720981 138.304745 
L 227.720981 137.778059 
L 227.859009 137.778059 
L 227.859009 136.724687 
L 230.082389 136.724687 
L 230.082389 136.198001 
L 230.202997 136.198001 
L 230.202997 135.144629 
L 232.161844 135.144629 
L 232.268937 134.091257 
L 234.115854 134.091257 
L 234.115854 133.564571 
L 235.785768 133.564571 
L 235.785768 133.037885 
L 237.22951 133.037885 
L 237.309658 131.457826 
L 238.451372 131.457826 
L 238.451372 130.93114 
L 238.711022 130.93114 
L 238.711022 129.877768 
L 241.151321 129.877768 
L 241.215358 128.824396 
L 243.404808 128.824396 
L 243.404808 128.29771 
L 247.912569 128.29771 
L 247.912569 127.771024 
L 254.996507 127.771024 
L 254.996507 127.244338 
L 258.355854 127.244338 
L 258.355854 126.717652 
L 260.412272 126.717652 
L 260.412272 126.190966 
L 270.671261 126.190966 
L 270.671261 125.66428 
L 270.885371 125.66428 
L 270.885371 125.137593 
L 338.688 125.137593 
L 338.688 125.137593 
" style="fill:none;stroke:#6495ed;stroke-linecap:square;stroke-width:1.5;"/>
   </g>
   <g id="line2d_46">
    <defs>
     <path d="M -0 6 
L 6 -6 
L -6 -6 
z
" id="m262af96845" style="stroke:#6495ed;stroke-linejoin:miter;stroke-width:1.5;"/>
    </defs>
    <g>
     <use style="fill-opacity:0;stroke:#6495ed;stroke-linejoin:miter;stroke-width:1.5;" x="182.540827" xlink:href="#m262af96845" y="208.353994"/>
     <use style="fill-opacity:0;stroke:#6495ed;stroke-linejoin:miter;stroke-width:1.5;" x="241.215358" xlink:href="#m262af96845" y="128.824396"/>
     <use style="fill-opacity:0;stroke:#6495ed;stroke-linejoin:miter;stroke-width:1.5;" x="270.885371" xlink:href="#m262af96845" y="125.137593"/>
     <use style="fill-opacity:0;stroke:#6495ed;stroke-linejoin:miter;stroke-width:1.5;" x="270.885371" xlink:href="#m262af96845" y="125.137593"/>
     <use style="fill-opacity:0;stroke:#6495ed;stroke-linejoin:miter;stroke-width:1.5;" x="338.688" xlink:href="#m262af96845" y="125.137593"/>
    </g>
   </g>
   <g id="line2d_47">
    <path style="fill:none;stroke:#6495ed;stroke-linecap:square;stroke-width:1.5;"/>
    <g/>
   </g>
   <g id="line2d_48">
    <path clip-path="url(#pac01ef8d6f)" d="M 194.045737 157.79213 
" style="fill:none;stroke:#6495ed;stroke-linecap:square;stroke-width:1.5;"/>
    <defs>
     <path d="M -12 12 
L 12 -12 
M -12 -12 
L 12 12 
" id="m6876043933" style="stroke:#6495ed;"/>
    </defs>
    <g clip-path="url(#pac01ef8d6f)">
     <use style="fill:#6495ed;stroke:#6495ed;" x="194.045737" xlink:href="#m6876043933" y="157.79213"/>
    </g>
   </g>
   <g id="line2d_49">
    <defs>
     <path d="M 0 1.5 
C 0.397805 1.5 0.77937 1.341951 1.06066 1.06066 
C 1.341951 0.77937 1.5 0.397805 1.5 0 
C 1.5 -0.397805 1.341951 -0.77937 1.06066 -1.06066 
C 0.77937 -1.341951 0.397805 -1.5 0 -1.5 
C -0.397805 -1.5 -0.77937 -1.341951 -1.06066 -1.06066 
C -1.341951 -0.77937 -1.5 -0.397805 -1.5 0 
C -1.5 0.397805 -1.341951 0.77937 -1.06066 1.06066 
C -0.77937 1.341951 -0.397805 1.5 0 1.5 
z
" id="m2f2b9cbb1a" style="stroke:#ff0000;"/>
    </defs>
    <g>
     <use style="fill:#ff0000;stroke:#ff0000;" x="191.451957" xlink:href="#m2f2b9cbb1a" y="30.334099"/>
     <use style="fill:#ff0000;stroke:#ff0000;" x="191.451957" xlink:href="#m2f2b9cbb1a" y="30.334099"/>
    </g>
   </g>
   <g id="line2d_50">
    <path d="M 108.483824 298.944 
L 108.483824 297.890628 
L 119.351785 297.890628 
L 119.351785 297.363942 
L 122.573415 297.363942 
L 122.573415 295.783884 
L 125.647598 295.783884 
L 125.647598 295.257197 
L 129.290685 295.257197 
L 129.290685 293.150453 
L 131.690703 293.150453 
L 131.690703 291.570395 
L 134.236034 291.570395 
L 134.236034 291.043709 
L 135.780341 291.043709 
L 135.780341 290.517023 
L 136.551264 290.517023 
L 136.551264 286.303534 
L 136.738785 286.303534 
L 136.738785 285.250162 
L 137.37967 285.250162 
L 137.37967 283.670104 
L 137.735587 283.670104 
L 137.735587 282.616732 
L 138.256201 282.616732 
L 138.256201 282.090045 
L 139.333553 282.090045 
L 139.333553 281.036673 
L 140.944478 281.036673 
L 140.944478 280.509987 
L 141.45 280.509987 
L 141.45 279.983301 
L 141.80232 279.983301 
L 141.871938 278.929929 
L 142.486301 278.929929 
L 142.486301 278.403243 
L 145.553708 278.403243 
L 145.553708 277.876557 
L 147.71991 277.876557 
L 147.71991 273.663068 
L 148.306159 273.663068 
L 148.306159 271.556324 
L 149.512548 271.556324 
L 149.512548 271.029638 
L 150.556607 271.029638 
L 150.556607 269.449579 
L 151.015013 269.449579 
L 151.015013 268.922893 
L 151.621307 268.922893 
L 151.621307 266.816149 
L 153.890309 266.816149 
L 153.890309 264.182719 
L 154.507086 264.182719 
L 154.507086 263.656033 
L 155.393186 263.656033 
L 155.425155 262.075974 
L 155.804285 262.075974 
L 155.804285 261.549288 
L 156.747178 261.549288 
L 156.747178 261.022602 
L 159.733212 261.022602 
L 159.733212 260.495916 
L 161.146363 260.495916 
L 161.146363 259.96923 
L 161.329454 259.96923 
L 161.329454 258.915858 
L 162.833584 258.915858 
L 162.833584 257.862486 
L 166.96153 257.862486 
L 166.96153 257.3358 
L 168.641643 257.3358 
L 168.641643 256.809114 
L 169.574291 256.809114 
L 169.574291 256.282427 
L 170.990905 256.282427 
L 170.990905 255.229055 
L 172.554051 255.229055 
L 172.554051 254.702369 
L 173.371849 254.702369 
L 173.371849 254.175683 
L 174.412979 254.175683 
L 174.412979 252.595625 
L 174.806323 252.595625 
L 174.806323 252.068939 
L 174.921573 252.068939 
L 174.921573 251.015567 
L 175.08786 251.015567 
L 175.08786 250.488881 
L 175.527057 250.488881 
L 175.527057 249.962195 
L 175.77741 249.962195 
L 175.77741 249.435508 
L 176.354372 249.435508 
L 176.354372 248.908822 
L 176.67839 248.908822 
L 176.67839 248.382136 
L 177.372536 248.382136 
L 177.372536 247.85545 
L 178.005141 247.85545 
L 178.005141 247.328764 
L 178.205245 247.328764 
L 178.265693 245.748706 
L 178.598693 245.748706 
L 178.598693 244.695334 
L 178.808858 244.695334 
L 178.908845 243.641962 
L 178.999998 243.641962 
L 178.999998 243.115275 
L 179.319393 243.115275 
L 179.319393 242.588589 
L 179.480944 242.588589 
L 179.569163 241.535217 
L 179.641012 241.535217 
L 179.656938 240.481845 
L 179.9098 240.481845 
L 179.933319 239.428473 
L 180.174508 239.428473 
L 180.174508 238.901787 
L 180.404784 238.901787 
L 180.404784 238.375101 
L 180.518792 238.375101 
L 180.518792 237.848415 
L 180.752071 237.848415 
L 180.848977 236.795043 
L 180.930556 236.795043 
L 181.026478 234.161612 
L 181.048539 234.161612 
L 181.158427 230.47481 
L 181.296633 230.47481 
L 181.376149 228.894751 
L 181.433752 228.894751 
L 181.448123 226.788007 
L 181.598309 226.788007 
L 181.690637 225.734635 
L 181.726017 225.734635 
L 181.726017 225.207949 
L 181.845779 225.207949 
L 181.950772 222.047832 
L 181.978663 222.047832 
L 182.082862 219.414402 
L 182.103627 219.414402 
L 182.193325 213.620855 
L 182.337254 213.620855 
L 182.418968 209.934052 
L 182.493539 209.934052 
L 182.493539 209.407366 
L 182.65514 209.407366 
L 182.755385 205.720564 
L 182.888155 205.720564 
L 182.92779 204.140506 
L 183.085434 204.140506 
L 183.183243 201.507075 
L 183.202739 201.507075 
L 183.286971 194.13347 
L 183.338605 194.13347 
L 183.441416 184.126434 
L 183.460626 184.126434 
L 183.562722 177.279515 
L 183.664224 177.279515 
L 183.727364 170.959282 
L 183.890467 170.959282 
L 183.977663 167.799166 
L 184.076786 167.799166 
L 184.187629 164.112363 
L 184.199902 164.112363 
L 184.309967 159.898875 
L 184.340418 159.898875 
L 184.407224 155.685386 
L 184.467735 155.685386 
L 184.503941 154.105328 
L 184.588131 154.105328 
L 184.600125 151.471897 
L 184.773118 151.471897 
L 184.873735 142.518234 
L 184.956162 142.518234 
L 185.038202 141.464862 
L 185.235849 141.464862 
L 185.316587 138.304745 
L 185.425565 138.304745 
L 185.522497 134.617943 
L 185.692252 134.617943 
L 185.754083 130.404454 
L 185.860369 130.404454 
L 185.966012 124.084221 
L 185.977095 124.084221 
L 186.071018 119.870733 
L 186.098547 119.870733 
L 186.142502 118.817361 
L 186.31179 118.817361 
L 186.409338 109.863697 
L 186.441733 109.863697 
L 186.543922 107.756953 
L 186.602811 107.756953 
L 186.693433 106.703581 
L 186.719997 106.703581 
L 186.730611 104.07015 
L 186.873275 104.07015 
L 186.931065 102.490092 
L 186.988663 102.490092 
L 187.030434 100.383348 
L 187.165502 100.383348 
L 187.196524 92.483056 
L 187.345688 92.483056 
L 187.40704 85.109451 
L 187.46309 85.109451 
L 187.569598 81.949335 
L 187.640243 81.949335 
L 187.730654 78.262532 
L 187.795661 78.262532 
L 187.870369 75.102416 
L 187.949706 75.102416 
L 188.053292 71.415613 
L 188.126906 71.415613 
L 188.229447 68.255497 
L 188.341067 68.255497 
L 188.44236 62.46195 
L 188.456783 62.46195 
L 188.55263 60.881892 
L 188.571736 60.881892 
L 188.643199 59.301833 
L 188.709634 59.301833 
L 188.780535 56.141717 
L 188.822938 56.141717 
L 188.837049 53.508287 
L 189.014812 53.508287 
L 189.116905 49.821484 
L 189.167728 49.821484 
L 189.195387 46.134681 
L 189.282687 46.134681 
L 189.39234 39.287762 
L 189.465061 39.287762 
L 189.573576 38.23439 
L 189.890703 38.23439 
L 189.890703 37.707704 
L 190.184766 37.707704 
L 190.184766 37.181018 
L 190.525245 37.181018 
L 190.601901 35.60096 
L 190.783672 35.60096 
L 190.783672 34.547588 
L 191.034181 34.547588 
L 191.071449 32.440843 
L 191.268877 32.440843 
L 191.268877 31.387471 
L 191.443861 31.387471 
L 191.451957 30.334099 
L 338.688 30.334099 
L 338.688 30.334099 
" style="fill:none;stroke:#ff0000;stroke-linecap:square;stroke-width:1.5;"/>
   </g>
   <g id="line2d_51">
    <defs>
     <path d="M 0 -6 
L -5.196152 -3 
L -5.196152 3 
L -0 6 
L 5.196152 3 
L 5.196152 -3 
z
" id="md6f50aaa82" style="stroke:#ff0000;stroke-linejoin:miter;stroke-width:1.5;"/>
    </defs>
    <g>
     <use style="fill-opacity:0;stroke:#ff0000;stroke-linejoin:miter;stroke-width:1.5;" x="181.690637" xlink:href="#md6f50aaa82" y="226.261321"/>
     <use style="fill-opacity:0;stroke:#ff0000;stroke-linejoin:miter;stroke-width:1.5;" x="191.451957" xlink:href="#md6f50aaa82" y="30.860785"/>
     <use style="fill-opacity:0;stroke:#ff0000;stroke-linejoin:miter;stroke-width:1.5;" x="191.451957" xlink:href="#md6f50aaa82" y="30.334099"/>
     <use style="fill-opacity:0;stroke:#ff0000;stroke-linejoin:miter;stroke-width:1.5;" x="191.451957" xlink:href="#md6f50aaa82" y="30.334099"/>
     <use style="fill-opacity:0;stroke:#ff0000;stroke-linejoin:miter;stroke-width:1.5;" x="338.688" xlink:href="#md6f50aaa82" y="30.334099"/>
    </g>
   </g>
   <g id="line2d_52">
    <path style="fill:none;stroke:#ff0000;stroke-linecap:square;stroke-width:1.5;"/>
    <g/>
   </g>
   <g id="line2d_53">
    <path d="M 338.688 219.941088 
L 369.60768 293.571802 
" style="fill:none;stroke:#000080;stroke-linecap:square;stroke-width:1.5;"/>
    <g>
     <use style="fill-opacity:0;stroke:#000080;stroke-width:1.5;" x="338.688" xlink:href="#m4a5e33bd02" y="219.941088"/>
     <use style="fill-opacity:0;stroke:#000080;stroke-width:1.5;" x="369.60768" xlink:href="#m4a5e33bd02" y="293.571802"/>
    </g>
   </g>
   <g id="line2d_54">
    <path d="M 338.688 125.137593 
L 369.60768 229.105426 
" style="fill:none;stroke:#6495ed;stroke-linecap:square;stroke-width:1.5;"/>
    <g>
     <use style="fill-opacity:0;stroke:#6495ed;stroke-linejoin:miter;stroke-width:1.5;" x="338.688" xlink:href="#m262af96845" y="125.137593"/>
     <use style="fill-opacity:0;stroke:#6495ed;stroke-linejoin:miter;stroke-width:1.5;" x="369.60768" xlink:href="#m262af96845" y="229.105426"/>
    </g>
   </g>
   <g id="line2d_55">
    <path d="M 338.688 30.334099 
L 369.60768 164.63905 
" style="fill:none;stroke:#ff7500;stroke-linecap:square;stroke-width:1.5;"/>
    <g>
     <use style="fill-opacity:0;stroke:#ff7500;stroke-linejoin:bevel;stroke-width:1.5;" x="338.688" xlink:href="#mf25a6d07cd" y="30.334099"/>
     <use style="fill-opacity:0;stroke:#ff7500;stroke-linejoin:bevel;stroke-width:1.5;" x="369.60768" xlink:href="#mf25a6d07cd" y="164.63905"/>
    </g>
   </g>
   <g id="line2d_56">
    <path d="M 338.688 30.334099 
L 369.60768 100.172673 
" style="fill:none;stroke:#ff0000;stroke-linecap:square;stroke-width:1.5;"/>
    <g>
     <use style="fill-opacity:0;stroke:#ff0000;stroke-linejoin:miter;stroke-width:1.5;" x="338.688" xlink:href="#md6f50aaa82" y="30.334099"/>
     <use style="fill-opacity:0;stroke:#ff0000;stroke-linejoin:miter;stroke-width:1.5;" x="369.60768" xlink:href="#md6f50aaa82" y="100.172673"/>
    </g>
   </g>
   <g id="line2d_57">
    <path d="M 338.688 298.944 
L 338.688 30.334099 
" style="fill:none;stroke:#000000;stroke-linecap:square;stroke-width:1.5;"/>
   </g>
   <g id="patch_3">
    <path d="M 57.6 298.944 
L 57.6 27.648 
" style="fill:none;stroke:#000000;stroke-linecap:square;stroke-linejoin:miter;stroke-width:0.8;"/>
   </g>
   <g id="patch_4">
    <path d="M 338.688 298.944 
L 338.688 27.648 
" style="fill:none;stroke:#000000;stroke-linecap:square;stroke-linejoin:miter;stroke-width:0.8;"/>
   </g>
   <g id="patch_5">
    <path d="M 57.6 298.944 
L 338.688 298.944 
" style="fill:none;stroke:#000000;stroke-linecap:square;stroke-linejoin:miter;stroke-width:0.8;"/>
   </g>
   <g id="patch_6">
    <path d="M 57.6 27.648 
L 338.688 27.648 
" style="fill:none;stroke:#000000;stroke-linecap:square;stroke-linejoin:miter;stroke-width:0.8;"/>
   </g>
   <g id="text_13">
    <!-- ABC -->
    <defs>
     <path d="M 34.1875 63.1875 
L 20.796875 26.90625 
L 47.609375 26.90625 
z
M 28.609375 72.90625 
L 39.796875 72.90625 
L 67.578125 0 
L 57.328125 0 
L 50.6875 18.703125 
L 17.828125 18.703125 
L 11.1875 0 
L 0.78125 0 
z
" id="DejaVuSans-65"/>
     <path d="M 19.671875 34.8125 
L 19.671875 8.109375 
L 35.5 8.109375 
Q 43.453125 8.109375 47.28125 11.40625 
Q 51.125 14.703125 51.125 21.484375 
Q 51.125 28.328125 47.28125 31.5625 
Q 43.453125 34.8125 35.5 34.8125 
z
M 19.671875 64.796875 
L 19.671875 42.828125 
L 34.28125 42.828125 
Q 41.5 42.828125 45.03125 45.53125 
Q 48.578125 48.25 48.578125 53.8125 
Q 48.578125 59.328125 45.03125 62.0625 
Q 41.5 64.796875 34.28125 64.796875 
z
M 9.8125 72.90625 
L 35.015625 72.90625 
Q 46.296875 72.90625 52.390625 68.21875 
Q 58.5 63.53125 58.5 54.890625 
Q 58.5 48.1875 55.375 44.234375 
Q 52.25 40.28125 46.1875 39.3125 
Q 53.46875 37.75 57.5 32.78125 
Q 61.53125 27.828125 61.53125 20.40625 
Q 61.53125 10.640625 54.890625 5.3125 
Q 48.25 0 35.984375 0 
L 9.8125 0 
z
" id="DejaVuSans-66"/>
     <path d="M 64.40625 67.28125 
L 64.40625 56.890625 
Q 59.421875 61.53125 53.78125 63.8125 
Q 48.140625 66.109375 41.796875 66.109375 
Q 29.296875 66.109375 22.65625 58.46875 
Q 16.015625 50.828125 16.015625 36.375 
Q 16.015625 21.96875 22.65625 14.328125 
Q 29.296875 6.6875 41.796875 6.6875 
Q 48.140625 6.6875 53.78125 8.984375 
Q 59.421875 11.28125 64.40625 15.921875 
L 64.40625 5.609375 
Q 59.234375 2.09375 53.4375 0.328125 
Q 47.65625 -1.421875 41.21875 -1.421875 
Q 24.65625 -1.421875 15.125 8.703125 
Q 5.609375 18.84375 5.609375 36.375 
Q 5.609375 53.953125 15.125 64.078125 
Q 24.65625 74.21875 41.21875 74.21875 
Q 47.75 74.21875 53.53125 72.484375 
Q 59.328125 70.75 64.40625 67.28125 
z
" id="DejaVuSans-67"/>
    </defs>
    <g transform="translate(375.22944 298.262739)scale(0.17 -0.17)">
     <use xlink:href="#DejaVuSans-65"/>
     <use x="68.408203" xlink:href="#DejaVuSans-66"/>
     <use x="135.261719" xlink:href="#DejaVuSans-67"/>
    </g>
   </g>
   <g id="text_14">
    <!-- DEPSO -->
    <defs>
     <path d="M 19.671875 64.796875 
L 19.671875 8.109375 
L 31.59375 8.109375 
Q 46.6875 8.109375 53.6875 14.9375 
Q 60.6875 21.78125 60.6875 36.53125 
Q 60.6875 51.171875 53.6875 57.984375 
Q 46.6875 64.796875 31.59375 64.796875 
z
M 9.8125 72.90625 
L 30.078125 72.90625 
Q 51.265625 72.90625 61.171875 64.09375 
Q 71.09375 55.28125 71.09375 36.53125 
Q 71.09375 17.671875 61.125 8.828125 
Q 51.171875 0 30.078125 0 
L 9.8125 0 
z
" id="DejaVuSans-68"/>
     <path d="M 9.8125 72.90625 
L 55.90625 72.90625 
L 55.90625 64.59375 
L 19.671875 64.59375 
L 19.671875 43.015625 
L 54.390625 43.015625 
L 54.390625 34.71875 
L 19.671875 34.71875 
L 19.671875 8.296875 
L 56.78125 8.296875 
L 56.78125 0 
L 9.8125 0 
z
" id="DejaVuSans-69"/>
     <path d="M 19.671875 64.796875 
L 19.671875 37.40625 
L 32.078125 37.40625 
Q 38.96875 37.40625 42.71875 40.96875 
Q 46.484375 44.53125 46.484375 51.125 
Q 46.484375 57.671875 42.71875 61.234375 
Q 38.96875 64.796875 32.078125 64.796875 
z
M 9.8125 72.90625 
L 32.078125 72.90625 
Q 44.34375 72.90625 50.609375 67.359375 
Q 56.890625 61.8125 56.890625 51.125 
Q 56.890625 40.328125 50.609375 34.8125 
Q 44.34375 29.296875 32.078125 29.296875 
L 19.671875 29.296875 
L 19.671875 0 
L 9.8125 0 
z
" id="DejaVuSans-80"/>
     <path d="M 53.515625 70.515625 
L 53.515625 60.890625 
Q 47.90625 63.578125 42.921875 64.890625 
Q 37.9375 66.21875 33.296875 66.21875 
Q 25.25 66.21875 20.875 63.09375 
Q 16.5 59.96875 16.5 54.203125 
Q 16.5 49.359375 19.40625 46.890625 
Q 22.3125 44.4375 30.421875 42.921875 
L 36.375 41.703125 
Q 47.40625 39.59375 52.65625 34.296875 
Q 57.90625 29 57.90625 20.125 
Q 57.90625 9.515625 50.796875 4.046875 
Q 43.703125 -1.421875 29.984375 -1.421875 
Q 24.8125 -1.421875 18.96875 -0.25 
Q 13.140625 0.921875 6.890625 3.21875 
L 6.890625 13.375 
Q 12.890625 10.015625 18.65625 8.296875 
Q 24.421875 6.59375 29.984375 6.59375 
Q 38.421875 6.59375 43.015625 9.90625 
Q 47.609375 13.234375 47.609375 19.390625 
Q 47.609375 24.75 44.3125 27.78125 
Q 41.015625 30.8125 33.5 32.328125 
L 27.484375 33.5 
Q 16.453125 35.6875 11.515625 40.375 
Q 6.59375 45.0625 6.59375 53.421875 
Q 6.59375 63.09375 13.40625 68.65625 
Q 20.21875 74.21875 32.171875 74.21875 
Q 37.3125 74.21875 42.625 73.28125 
Q 47.953125 72.359375 53.515625 70.515625 
z
" id="DejaVuSans-83"/>
     <path d="M 39.40625 66.21875 
Q 28.65625 66.21875 22.328125 58.203125 
Q 16.015625 50.203125 16.015625 36.375 
Q 16.015625 22.609375 22.328125 14.59375 
Q 28.65625 6.59375 39.40625 6.59375 
Q 50.140625 6.59375 56.421875 14.59375 
Q 62.703125 22.609375 62.703125 36.375 
Q 62.703125 50.203125 56.421875 58.203125 
Q 50.140625 66.21875 39.40625 66.21875 
z
M 39.40625 74.21875 
Q 54.734375 74.21875 63.90625 63.9375 
Q 73.09375 53.65625 73.09375 36.375 
Q 73.09375 19.140625 63.90625 8.859375 
Q 54.734375 -1.421875 39.40625 -1.421875 
Q 24.03125 -1.421875 14.8125 8.828125 
Q 5.609375 19.09375 5.609375 36.375 
Q 5.609375 53.65625 14.8125 63.9375 
Q 24.03125 74.21875 39.40625 74.21875 
z
" id="DejaVuSans-79"/>
    </defs>
    <g transform="translate(375.22944 233.796363)scale(0.17 -0.17)">
     <use xlink:href="#DejaVuSans-68"/>
     <use x="77.001953" xlink:href="#DejaVuSans-69"/>
     <use x="140.185547" xlink:href="#DejaVuSans-80"/>
     <use x="200.488281" xlink:href="#DejaVuSans-83"/>
     <use x="263.964844" xlink:href="#DejaVuSans-79"/>
    </g>
   </g>
   <g id="text_15">
    <!-- DE -->
    <g transform="translate(375.22944 169.329987)scale(0.17 -0.17)">
     <use xlink:href="#DejaVuSans-68"/>
     <use x="77.001953" xlink:href="#DejaVuSans-69"/>
    </g>
   </g>
   <g id="text_16">
    <!-- PSO -->
    <g transform="translate(375.22944 104.863611)scale(0.17 -0.17)">
     <use xlink:href="#DejaVuSans-80"/>
     <use x="60.302734" xlink:href="#DejaVuSans-83"/>
     <use x="123.779297" xlink:href="#DejaVuSans-79"/>
    </g>
   </g>
   <g id="text_17">
    <!-- best 2009 -->
    <defs>
     <path d="M 48.6875 27.296875 
Q 48.6875 37.203125 44.609375 42.84375 
Q 40.53125 48.484375 33.40625 48.484375 
Q 26.265625 48.484375 22.1875 42.84375 
Q 18.109375 37.203125 18.109375 27.296875 
Q 18.109375 17.390625 22.1875 11.75 
Q 26.265625 6.109375 33.40625 6.109375 
Q 40.53125 6.109375 44.609375 11.75 
Q 48.6875 17.390625 48.6875 27.296875 
z
M 18.109375 46.390625 
Q 20.953125 51.265625 25.265625 53.625 
Q 29.59375 56 35.59375 56 
Q 45.5625 56 51.78125 48.09375 
Q 58.015625 40.1875 58.015625 27.296875 
Q 58.015625 14.40625 51.78125 6.484375 
Q 45.5625 -1.421875 35.59375 -1.421875 
Q 29.59375 -1.421875 25.265625 0.953125 
Q 20.953125 3.328125 18.109375 8.203125 
L 18.109375 0 
L 9.078125 0 
L 9.078125 75.984375 
L 18.109375 75.984375 
z
" id="DejaVuSans-98"/>
     <path d="M 10.984375 1.515625 
L 10.984375 10.5 
Q 14.703125 8.734375 18.5 7.8125 
Q 22.3125 6.890625 25.984375 6.890625 
Q 35.75 6.890625 40.890625 13.453125 
Q 46.046875 20.015625 46.78125 33.40625 
Q 43.953125 29.203125 39.59375 26.953125 
Q 35.25 24.703125 29.984375 24.703125 
Q 19.046875 24.703125 12.671875 31.3125 
Q 6.296875 37.9375 6.296875 49.421875 
Q 6.296875 60.640625 12.9375 67.421875 
Q 19.578125 74.21875 30.609375 74.21875 
Q 43.265625 74.21875 49.921875 64.515625 
Q 56.59375 54.828125 56.59375 36.375 
Q 56.59375 19.140625 48.40625 8.859375 
Q 40.234375 -1.421875 26.421875 -1.421875 
Q 22.703125 -1.421875 18.890625 -0.6875 
Q 15.09375 0.046875 10.984375 1.515625 
z
M 30.609375 32.421875 
Q 37.25 32.421875 41.125 36.953125 
Q 45.015625 41.5 45.015625 49.421875 
Q 45.015625 57.28125 41.125 61.84375 
Q 37.25 66.40625 30.609375 66.40625 
Q 23.96875 66.40625 20.09375 61.84375 
Q 16.21875 57.28125 16.21875 49.421875 
Q 16.21875 41.5 20.09375 36.953125 
Q 23.96875 32.421875 30.609375 32.421875 
z
" id="DejaVuSans-57"/>
    </defs>
    <g transform="translate(375.22944 40.397235)scale(0.17 -0.17)">
     <use xlink:href="#DejaVuSans-98"/>
     <use x="63.476562" xlink:href="#DejaVuSans-101"/>
     <use x="125" xlink:href="#DejaVuSans-115"/>
     <use x="177.099609" xlink:href="#DejaVuSans-116"/>
     <use x="216.308594" xlink:href="#DejaVuSans-32"/>
     <use x="248.095703" xlink:href="#DejaVuSans-50"/>
     <use x="311.71875" xlink:href="#DejaVuSans-48"/>
     <use x="375.341797" xlink:href="#DejaVuSans-48"/>
     <use x="438.964844" xlink:href="#DejaVuSans-57"/>
    </g>
   </g>
   <g id="text_18">
    <!-- bbob f10, 2-D -->
    <g transform="translate(60.41088 38.111366)scale(0.102 -0.102)">
     <use xlink:href="#DejaVuSans-98"/>
     <use x="63.476562" xlink:href="#DejaVuSans-98"/>
     <use x="126.953125" xlink:href="#DejaVuSans-111"/>
     <use x="188.134766" xlink:href="#DejaVuSans-98"/>
     <use x="251.611328" xlink:href="#DejaVuSans-32"/>
     <use x="283.398438" xlink:href="#DejaVuSans-102"/>
     <use x="318.603516" xlink:href="#DejaVuSans-49"/>
     <use x="382.226562" xlink:href="#DejaVuSans-48"/>
     <use x="445.849609" xlink:href="#DejaVuSans-44"/>
     <use x="477.636719" xlink:href="#DejaVuSans-32"/>
     <use x="509.423828" xlink:href="#DejaVuSans-50"/>
     <use x="573.046875" xlink:href="#DejaVuSans-45"/>
     <use x="609.130859" xlink:href="#DejaVuSans-68"/>
    </g>
    <!-- 51 targets: 100..1e-08 -->
    <defs>
     <path d="M 10.796875 72.90625 
L 49.515625 72.90625 
L 49.515625 64.59375 
L 19.828125 64.59375 
L 19.828125 46.734375 
Q 21.96875 47.46875 24.109375 47.828125 
Q 26.265625 48.1875 28.421875 48.1875 
Q 40.625 48.1875 47.75 41.5 
Q 54.890625 34.8125 54.890625 23.390625 
Q 54.890625 11.625 47.5625 5.09375 
Q 40.234375 -1.421875 26.90625 -1.421875 
Q 22.3125 -1.421875 17.546875 -0.640625 
Q 12.796875 0.140625 7.71875 1.703125 
L 7.71875 11.625 
Q 12.109375 9.234375 16.796875 8.0625 
Q 21.484375 6.890625 26.703125 6.890625 
Q 35.15625 6.890625 40.078125 11.328125 
Q 45.015625 15.765625 45.015625 23.390625 
Q 45.015625 31 40.078125 35.4375 
Q 35.15625 39.890625 26.703125 39.890625 
Q 22.75 39.890625 18.8125 39.015625 
Q 14.890625 38.140625 10.796875 36.28125 
z
" id="DejaVuSans-53"/>
     <path d="M 11.71875 12.40625 
L 22.015625 12.40625 
L 22.015625 0 
L 11.71875 0 
z
M 11.71875 51.703125 
L 22.015625 51.703125 
L 22.015625 39.3125 
L 11.71875 39.3125 
z
" id="DejaVuSans-58"/>
    </defs>
    <g transform="translate(60.41088 49.533135)scale(0.102 -0.102)">
     <use xlink:href="#DejaVuSans-53"/>
     <use x="63.623047" xlink:href="#DejaVuSans-49"/>
     <use x="127.246094" xlink:href="#DejaVuSans-32"/>
     <use x="159.033203" xlink:href="#DejaVuSans-116"/>
     <use x="198.242188" xlink:href="#DejaVuSans-97"/>
     <use x="259.521484" xlink:href="#DejaVuSans-114"/>
     <use x="298.884766" xlink:href="#DejaVuSans-103"/>
     <use x="362.361328" xlink:href="#DejaVuSans-101"/>
     <use x="423.884766" xlink:href="#DejaVuSans-116"/>
     <use x="463.09375" xlink:href="#DejaVuSans-115"/>
     <use x="515.193359" xlink:href="#DejaVuSans-58"/>
     <use x="548.884766" xlink:href="#DejaVuSans-32"/>
     <use x="580.671875" xlink:href="#DejaVuSans-49"/>
     <use x="644.294922" xlink:href="#DejaVuSans-48"/>
     <use x="707.917969" xlink:href="#DejaVuSans-48"/>
     <use x="771.541016" xlink:href="#DejaVuSans-46"/>
     <use x="803.328125" xlink:href="#DejaVuSans-46"/>
     <use x="835.115234" xlink:href="#DejaVuSans-49"/>
     <use x="898.738281" xlink:href="#DejaVuSans-101"/>
     <use x="960.261719" xlink:href="#DejaVuSans-45"/>
     <use x="996.345703" xlink:href="#DejaVuSans-48"/>
     <use x="1059.96875" xlink:href="#DejaVuSans-56"/>
    </g>
    <!-- 15 instances -->
    <g transform="translate(60.41088 60.954904)scale(0.102 -0.102)">
     <use xlink:href="#DejaVuSans-49"/>
     <use x="63.623047" xlink:href="#DejaVuSans-53"/>
     <use x="127.246094" xlink:href="#DejaVuSans-32"/>
     <use x="159.033203" xlink:href="#DejaVuSans-105"/>
     <use x="186.816406" xlink:href="#DejaVuSans-110"/>
     <use x="250.195312" xlink:href="#DejaVuSans-115"/>
     <use x="302.294922" xlink:href="#DejaVuSans-116"/>
     <use x="341.503906" xlink:href="#DejaVuSans-97"/>
     <use x="402.783203" xlink:href="#DejaVuSans-110"/>
     <use x="466.162109" xlink:href="#DejaVuSans-99"/>
     <use x="521.142578" xlink:href="#DejaVuSans-101"/>
     <use x="582.666016" xlink:href="#DejaVuSans-115"/>
    </g>
   </g>
   <g id="text_19">
    <!-- v2.4 -->
    <g style="fill:#808080;" transform="translate(187.233062 294.151352)scale(0.1 -0.1)">
     <use xlink:href="#DejaVuSans-118"/>
     <use x="59.179688" xlink:href="#DejaVuSans-50"/>
     <use x="122.802734" xlink:href="#DejaVuSans-46"/>
     <use x="154.589844" xlink:href="#DejaVuSans-52"/>
    </g>
   </g>
   <g id="text_20">
    <!-- 10 Ellipsoid -->
    <g transform="translate(140.784625 21.648)scale(0.2 -0.2)">
     <use xlink:href="#DejaVuSans-49"/>
     <use x="63.623047" xlink:href="#DejaVuSans-48"/>
     <use x="127.246094" xlink:href="#DejaVuSans-32"/>
     <use x="159.033203" xlink:href="#DejaVuSans-69"/>
     <use x="222.216797" xlink:href="#DejaVuSans-108"/>
     <use x="250" xlink:href="#DejaVuSans-108"/>
     <use x="277.783203" xlink:href="#DejaVuSans-105"/>
     <use x="305.566406" xlink:href="#DejaVuSans-112"/>
     <use x="369.042969" xlink:href="#DejaVuSans-115"/>
     <use x="421.142578" xlink:href="#DejaVuSans-111"/>
     <use x="482.324219" xlink:href="#DejaVuSans-105"/>
     <use x="510.107422" xlink:href="#DejaVuSans-100"/>
    </g>
   </g>
  </g>
 </g>
 <defs>
  <clipPath id="pac01ef8d6f">
   <rect height="271.296" width="281.088" x="57.6" y="27.648"/>
  </clipPath>
 </defs>
</svg>
