<?xml version="1.0" encoding="utf-8" standalone="no"?>
<!DOCTYPE svg PUBLIC "-//W3C//DTD SVG 1.1//EN"
  "http://www.w3.org/Graphics/SVG/1.1/DTD/svg11.dtd">
<!-- Created with matplotlib (https://matplotlib.org/) -->
<svg height="345.6pt" version="1.1" viewBox="0 0 460.8 345.6" width="460.8pt" xmlns="http://www.w3.org/2000/svg" xmlns:xlink="http://www.w3.org/1999/xlink">
 <defs>
  <style type="text/css">
*{stroke-linecap:butt;stroke-linejoin:round;}
  </style>
 </defs>
 <g id="figure_1">
  <g id="patch_1">
   <path d="M 0 345.6 
L 460.8 345.6 
L 460.8 0 
L 0 0 
z
" style="fill:#ffffff;"/>
  </g>
  <g id="axes_1">
   <g id="patch_2">
    <path d="M 57.6 298.944 
L 338.688 298.944 
L 338.688 27.648 
L 57.6 27.648 
z
" style="fill:#ffffff;"/>
   </g>
   <g id="line2d_1">
    <path d="M 76.759008 298.944 
L 76.759008 293.677139 
L 84.213325 293.677139 
L 84.213325 288.410278 
L 89.972502 288.410278 
L 89.972502 283.143418 
L 104.355088 283.143418 
L 104.355088 277.876557 
L 105.285403 277.876557 
L 105.285403 272.609696 
L 144.172816 272.609696 
L 144.172816 267.342835 
L 150.155097 267.342835 
L 150.155097 262.075974 
L 152.09934 262.075974 
L 152.09934 256.809114 
L 154.439623 256.809114 
L 154.439623 251.542253 
L 158.347301 251.542253 
L 158.347301 246.275392 
L 158.433528 246.275392 
L 158.433528 241.008531 
L 158.572743 241.008531 
L 158.572743 235.74167 
L 158.583406 235.74167 
L 158.583406 230.47481 
L 158.594062 230.47481 
L 158.594062 214.674227 
L 158.615355 214.674227 
L 158.615355 209.407366 
L 158.625992 209.407366 
L 158.625992 198.873645 
L 158.636623 198.873645 
L 158.636623 193.606784 
L 158.647247 193.606784 
L 158.647247 177.806202 
L 158.657864 177.806202 
L 158.657864 172.539341 
L 158.67908 172.539341 
L 158.67908 167.27248 
L 158.689678 167.27248 
L 158.689678 156.738758 
L 158.70027 156.738758 
L 158.70027 151.471897 
L 158.710855 151.471897 
L 158.710855 140.938176 
L 158.721434 140.938176 
L 158.721434 119.870733 
L 158.732007 119.870733 
L 158.732007 109.337011 
L 158.742573 109.337011 
L 158.742573 83.002707 
L 158.763686 83.002707 
L 158.763686 67.202125 
L 158.774233 67.202125 
L 158.774233 56.668403 
L 158.784773 56.668403 
L 158.784773 51.401542 
L 158.795307 51.401542 
L 158.795307 35.60096 
L 158.805835 35.60096 
L 158.805835 30.334099 
L 338.688 30.334099 
" style="fill:none;stroke:#f5deb3;stroke-linecap:square;stroke-width:4;"/>
   </g>
   <g id="line2d_2">
    <defs>
     <path d="M -0 7.778175 
L 7.778175 0 
L 0 -7.778175 
L -7.778175 -0 
z
" id="m6da776decb" style="stroke:#f5deb3;stroke-linejoin:miter;stroke-width:1.5;"/>
    </defs>
    <g>
     <use style="fill:#f5deb3;stroke:#f5deb3;stroke-linejoin:miter;stroke-width:1.5;" x="158.347301" xlink:href="#m6da776decb" y="246.275392"/>
     <use style="fill:#f5deb3;stroke:#f5deb3;stroke-linejoin:miter;stroke-width:1.5;" x="158.721434" xlink:href="#m6da776decb" y="140.938176"/>
     <use style="fill:#f5deb3;stroke:#f5deb3;stroke-linejoin:miter;stroke-width:1.5;" x="158.805835" xlink:href="#m6da776decb" y="35.60096"/>
     <use style="fill:#f5deb3;stroke:#f5deb3;stroke-linejoin:miter;stroke-width:1.5;" x="158.805835" xlink:href="#m6da776decb" y="30.334099"/>
     <use style="fill:#f5deb3;stroke:#f5deb3;stroke-linejoin:miter;stroke-width:1.5;" x="338.688" xlink:href="#m6da776decb" y="30.334099"/>
    </g>
   </g>
   <g id="line2d_3">
    <path style="fill:none;stroke:#f5deb3;stroke-linecap:square;stroke-width:4;"/>
    <g/>
   </g>
   <g id="line2d_4">
    <path d="M 338.688 30.334099 
L 369.60768 35.706297 
" style="fill:none;stroke:#f5deb3;stroke-linecap:square;stroke-width:4;"/>
    <g>
     <use style="fill:#f5deb3;stroke:#f5deb3;stroke-linejoin:miter;stroke-width:1.5;" x="338.688" xlink:href="#m6da776decb" y="30.334099"/>
     <use style="fill:#f5deb3;stroke:#f5deb3;stroke-linejoin:miter;stroke-width:1.5;" x="369.60768" xlink:href="#m6da776decb" y="35.706297"/>
    </g>
   </g>
   <g id="matplotlib.axis_1">
    <g id="xtick_1">
     <g id="line2d_5">
      <path clip-path="url(#p44ea5110a1)" d="M 57.6 298.944 
L 57.6 27.648 
" style="fill:none;stroke:#b0b0b0;stroke-linecap:square;stroke-width:0.8;"/>
     </g>
     <g id="line2d_6">
      <defs>
       <path d="M 0 0 
L 0 3.5 
" id="m0e5f6a45cb" style="stroke:#000000;stroke-width:0.8;"/>
      </defs>
      <g>
       <use style="stroke:#000000;stroke-width:0.8;" x="57.6" xlink:href="#m0e5f6a45cb" y="298.944"/>
      </g>
     </g>
     <g id="text_1">
      <!-- 0 -->
      <defs>
       <path d="M 31.78125 66.40625 
Q 24.171875 66.40625 20.328125 58.90625 
Q 16.5 51.421875 16.5 36.375 
Q 16.5 21.390625 20.328125 13.890625 
Q 24.171875 6.390625 31.78125 6.390625 
Q 39.453125 6.390625 43.28125 13.890625 
Q 47.125 21.390625 47.125 36.375 
Q 47.125 51.421875 43.28125 58.90625 
Q 39.453125 66.40625 31.78125 66.40625 
z
M 31.78125 74.21875 
Q 44.046875 74.21875 50.515625 64.515625 
Q 56.984375 54.828125 56.984375 36.375 
Q 56.984375 17.96875 50.515625 8.265625 
Q 44.046875 -1.421875 31.78125 -1.421875 
Q 19.53125 -1.421875 13.0625 8.265625 
Q 6.59375 17.96875 6.59375 36.375 
Q 6.59375 54.828125 13.0625 64.515625 
Q 19.53125 74.21875 31.78125 74.21875 
z
" id="DejaVuSans-48"/>
      </defs>
      <g transform="translate(51.2375 321.140875)scale(0.2 -0.2)">
       <use xlink:href="#DejaVuSans-48"/>
      </g>
     </g>
    </g>
    <g id="xtick_2">
     <g id="line2d_7">
      <path clip-path="url(#p44ea5110a1)" d="M 137.910857 298.944 
L 137.910857 27.648 
" style="fill:none;stroke:#b0b0b0;stroke-linecap:square;stroke-width:0.8;"/>
     </g>
     <g id="line2d_8">
      <g>
       <use style="stroke:#000000;stroke-width:0.8;" x="137.910857" xlink:href="#m0e5f6a45cb" y="298.944"/>
      </g>
     </g>
     <g id="text_2">
      <!-- 2 -->
      <defs>
       <path d="M 19.1875 8.296875 
L 53.609375 8.296875 
L 53.609375 0 
L 7.328125 0 
L 7.328125 8.296875 
Q 12.9375 14.109375 22.625 23.890625 
Q 32.328125 33.6875 34.8125 36.53125 
Q 39.546875 41.84375 41.421875 45.53125 
Q 43.3125 49.21875 43.3125 52.78125 
Q 43.3125 58.59375 39.234375 62.25 
Q 35.15625 65.921875 28.609375 65.921875 
Q 23.96875 65.921875 18.8125 64.3125 
Q 13.671875 62.703125 7.8125 59.421875 
L 7.8125 69.390625 
Q 13.765625 71.78125 18.9375 73 
Q 24.125 74.21875 28.421875 74.21875 
Q 39.75 74.21875 46.484375 68.546875 
Q 53.21875 62.890625 53.21875 53.421875 
Q 53.21875 48.921875 51.53125 44.890625 
Q 49.859375 40.875 45.40625 35.40625 
Q 44.1875 33.984375 37.640625 27.21875 
Q 31.109375 20.453125 19.1875 8.296875 
z
" id="DejaVuSans-50"/>
      </defs>
      <g transform="translate(131.548357 321.140875)scale(0.2 -0.2)">
       <use xlink:href="#DejaVuSans-50"/>
      </g>
     </g>
    </g>
    <g id="xtick_3">
     <g id="line2d_9">
      <path clip-path="url(#p44ea5110a1)" d="M 218.221714 298.944 
L 218.221714 27.648 
" style="fill:none;stroke:#b0b0b0;stroke-linecap:square;stroke-width:0.8;"/>
     </g>
     <g id="line2d_10">
      <g>
       <use style="stroke:#000000;stroke-width:0.8;" x="218.221714" xlink:href="#m0e5f6a45cb" y="298.944"/>
      </g>
     </g>
     <g id="text_3">
      <!-- 4 -->
      <defs>
       <path d="M 37.796875 64.3125 
L 12.890625 25.390625 
L 37.796875 25.390625 
z
M 35.203125 72.90625 
L 47.609375 72.90625 
L 47.609375 25.390625 
L 58.015625 25.390625 
L 58.015625 17.1875 
L 47.609375 17.1875 
L 47.609375 0 
L 37.796875 0 
L 37.796875 17.1875 
L 4.890625 17.1875 
L 4.890625 26.703125 
z
" id="DejaVuSans-52"/>
      </defs>
      <g transform="translate(211.859214 321.140875)scale(0.2 -0.2)">
       <use xlink:href="#DejaVuSans-52"/>
      </g>
     </g>
    </g>
    <g id="xtick_4">
     <g id="line2d_11">
      <path clip-path="url(#p44ea5110a1)" d="M 298.532571 298.944 
L 298.532571 27.648 
" style="fill:none;stroke:#b0b0b0;stroke-linecap:square;stroke-width:0.8;"/>
     </g>
     <g id="line2d_12">
      <g>
       <use style="stroke:#000000;stroke-width:0.8;" x="298.532571" xlink:href="#m0e5f6a45cb" y="298.944"/>
      </g>
     </g>
     <g id="text_4">
      <!-- 6 -->
      <defs>
       <path d="M 33.015625 40.375 
Q 26.375 40.375 22.484375 35.828125 
Q 18.609375 31.296875 18.609375 23.390625 
Q 18.609375 15.53125 22.484375 10.953125 
Q 26.375 6.390625 33.015625 6.390625 
Q 39.65625 6.390625 43.53125 10.953125 
Q 47.40625 15.53125 47.40625 23.390625 
Q 47.40625 31.296875 43.53125 35.828125 
Q 39.65625 40.375 33.015625 40.375 
z
M 52.59375 71.296875 
L 52.59375 62.3125 
Q 48.875 64.0625 45.09375 64.984375 
Q 41.3125 65.921875 37.59375 65.921875 
Q 27.828125 65.921875 22.671875 59.328125 
Q 17.53125 52.734375 16.796875 39.40625 
Q 19.671875 43.65625 24.015625 45.921875 
Q 28.375 48.1875 33.59375 48.1875 
Q 44.578125 48.1875 50.953125 41.515625 
Q 57.328125 34.859375 57.328125 23.390625 
Q 57.328125 12.15625 50.6875 5.359375 
Q 44.046875 -1.421875 33.015625 -1.421875 
Q 20.359375 -1.421875 13.671875 8.265625 
Q 6.984375 17.96875 6.984375 36.375 
Q 6.984375 53.65625 15.1875 63.9375 
Q 23.390625 74.21875 37.203125 74.21875 
Q 40.921875 74.21875 44.703125 73.484375 
Q 48.484375 72.75 52.59375 71.296875 
z
" id="DejaVuSans-54"/>
      </defs>
      <g transform="translate(292.170071 321.140875)scale(0.2 -0.2)">
       <use xlink:href="#DejaVuSans-54"/>
      </g>
     </g>
    </g>
    <g id="xtick_5">
     <g id="line2d_13">
      <path clip-path="url(#p44ea5110a1)" d="M 97.755429 298.944 
L 97.755429 27.648 
" style="fill:none;stroke:#b0b0b0;stroke-linecap:square;stroke-width:0.8;"/>
     </g>
     <g id="line2d_14">
      <defs>
       <path d="M 0 0 
L 0 2 
" id="m1ddfa323a8" style="stroke:#000000;stroke-width:0.6;"/>
      </defs>
      <g>
       <use style="stroke:#000000;stroke-width:0.6;" x="97.755429" xlink:href="#m1ddfa323a8" y="298.944"/>
      </g>
     </g>
    </g>
    <g id="xtick_6">
     <g id="line2d_15">
      <path clip-path="url(#p44ea5110a1)" d="M 178.066286 298.944 
L 178.066286 27.648 
" style="fill:none;stroke:#b0b0b0;stroke-linecap:square;stroke-width:0.8;"/>
     </g>
     <g id="line2d_16">
      <g>
       <use style="stroke:#000000;stroke-width:0.6;" x="178.066286" xlink:href="#m1ddfa323a8" y="298.944"/>
      </g>
     </g>
    </g>
    <g id="xtick_7">
     <g id="line2d_17">
      <path clip-path="url(#p44ea5110a1)" d="M 258.377143 298.944 
L 258.377143 27.648 
" style="fill:none;stroke:#b0b0b0;stroke-linecap:square;stroke-width:0.8;"/>
     </g>
     <g id="line2d_18">
      <g>
       <use style="stroke:#000000;stroke-width:0.6;" x="258.377143" xlink:href="#m1ddfa323a8" y="298.944"/>
      </g>
     </g>
    </g>
    <g id="xtick_8">
     <g id="line2d_19">
      <path clip-path="url(#p44ea5110a1)" d="M 338.688 298.944 
L 338.688 27.648 
" style="fill:none;stroke:#b0b0b0;stroke-linecap:square;stroke-width:0.8;"/>
     </g>
     <g id="line2d_20">
      <g>
       <use style="stroke:#000000;stroke-width:0.6;" x="338.688" xlink:href="#m1ddfa323a8" y="298.944"/>
      </g>
     </g>
    </g>
    <g id="text_5">
     <!-- log10(# f-evals / dimension) -->
     <defs>
      <path d="M 9.421875 75.984375 
L 18.40625 75.984375 
L 18.40625 0 
L 9.421875 0 
z
" id="DejaVuSans-108"/>
      <path d="M 30.609375 48.390625 
Q 23.390625 48.390625 19.1875 42.75 
Q 14.984375 37.109375 14.984375 27.296875 
Q 14.984375 17.484375 19.15625 11.84375 
Q 23.34375 6.203125 30.609375 6.203125 
Q 37.796875 6.203125 41.984375 11.859375 
Q 46.1875 17.53125 46.1875 27.296875 
Q 46.1875 37.015625 41.984375 42.703125 
Q 37.796875 48.390625 30.609375 48.390625 
z
M 30.609375 56 
Q 42.328125 56 49.015625 48.375 
Q 55.71875 40.765625 55.71875 27.296875 
Q 55.71875 13.875 49.015625 6.21875 
Q 42.328125 -1.421875 30.609375 -1.421875 
Q 18.84375 -1.421875 12.171875 6.21875 
Q 5.515625 13.875 5.515625 27.296875 
Q 5.515625 40.765625 12.171875 48.375 
Q 18.84375 56 30.609375 56 
z
" id="DejaVuSans-111"/>
      <path d="M 45.40625 27.984375 
Q 45.40625 37.75 41.375 43.109375 
Q 37.359375 48.484375 30.078125 48.484375 
Q 22.859375 48.484375 18.828125 43.109375 
Q 14.796875 37.75 14.796875 27.984375 
Q 14.796875 18.265625 18.828125 12.890625 
Q 22.859375 7.515625 30.078125 7.515625 
Q 37.359375 7.515625 41.375 12.890625 
Q 45.40625 18.265625 45.40625 27.984375 
z
M 54.390625 6.78125 
Q 54.390625 -7.171875 48.1875 -13.984375 
Q 42 -20.796875 29.203125 -20.796875 
Q 24.46875 -20.796875 20.265625 -20.09375 
Q 16.0625 -19.390625 12.109375 -17.921875 
L 12.109375 -9.1875 
Q 16.0625 -11.328125 19.921875 -12.34375 
Q 23.78125 -13.375 27.78125 -13.375 
Q 36.625 -13.375 41.015625 -8.765625 
Q 45.40625 -4.15625 45.40625 5.171875 
L 45.40625 9.625 
Q 42.625 4.78125 38.28125 2.390625 
Q 33.9375 0 27.875 0 
Q 17.828125 0 11.671875 7.65625 
Q 5.515625 15.328125 5.515625 27.984375 
Q 5.515625 40.671875 11.671875 48.328125 
Q 17.828125 56 27.875 56 
Q 33.9375 56 38.28125 53.609375 
Q 42.625 51.21875 45.40625 46.390625 
L 45.40625 54.6875 
L 54.390625 54.6875 
z
" id="DejaVuSans-103"/>
      <path d="M 12.40625 8.296875 
L 28.515625 8.296875 
L 28.515625 63.921875 
L 10.984375 60.40625 
L 10.984375 69.390625 
L 28.421875 72.90625 
L 38.28125 72.90625 
L 38.28125 8.296875 
L 54.390625 8.296875 
L 54.390625 0 
L 12.40625 0 
z
" id="DejaVuSans-49"/>
      <path d="M 31 75.875 
Q 24.46875 64.65625 21.28125 53.65625 
Q 18.109375 42.671875 18.109375 31.390625 
Q 18.109375 20.125 21.3125 9.0625 
Q 24.515625 -2 31 -13.1875 
L 23.1875 -13.1875 
Q 15.875 -1.703125 12.234375 9.375 
Q 8.59375 20.453125 8.59375 31.390625 
Q 8.59375 42.28125 12.203125 53.3125 
Q 15.828125 64.359375 23.1875 75.875 
z
" id="DejaVuSans-40"/>
      <path d="M 51.125 44 
L 36.921875 44 
L 32.8125 27.6875 
L 47.125 27.6875 
z
M 43.796875 71.78125 
L 38.71875 51.515625 
L 52.984375 51.515625 
L 58.109375 71.78125 
L 65.921875 71.78125 
L 60.890625 51.515625 
L 76.125 51.515625 
L 76.125 44 
L 58.984375 44 
L 54.984375 27.6875 
L 70.515625 27.6875 
L 70.515625 20.21875 
L 53.078125 20.21875 
L 48 0 
L 40.1875 0 
L 45.21875 20.21875 
L 30.90625 20.21875 
L 25.875 0 
L 18.015625 0 
L 23.09375 20.21875 
L 7.71875 20.21875 
L 7.71875 27.6875 
L 24.90625 27.6875 
L 29 44 
L 13.28125 44 
L 13.28125 51.515625 
L 30.90625 51.515625 
L 35.890625 71.78125 
z
" id="DejaVuSans-35"/>
      <path id="DejaVuSans-32"/>
      <path d="M 37.109375 75.984375 
L 37.109375 68.5 
L 28.515625 68.5 
Q 23.6875 68.5 21.796875 66.546875 
Q 19.921875 64.59375 19.921875 59.515625 
L 19.921875 54.6875 
L 34.71875 54.6875 
L 34.71875 47.703125 
L 19.921875 47.703125 
L 19.921875 0 
L 10.890625 0 
L 10.890625 47.703125 
L 2.296875 47.703125 
L 2.296875 54.6875 
L 10.890625 54.6875 
L 10.890625 58.5 
Q 10.890625 67.625 15.140625 71.796875 
Q 19.390625 75.984375 28.609375 75.984375 
z
" id="DejaVuSans-102"/>
      <path d="M 4.890625 31.390625 
L 31.203125 31.390625 
L 31.203125 23.390625 
L 4.890625 23.390625 
z
" id="DejaVuSans-45"/>
      <path d="M 56.203125 29.59375 
L 56.203125 25.203125 
L 14.890625 25.203125 
Q 15.484375 15.921875 20.484375 11.0625 
Q 25.484375 6.203125 34.421875 6.203125 
Q 39.59375 6.203125 44.453125 7.46875 
Q 49.3125 8.734375 54.109375 11.28125 
L 54.109375 2.78125 
Q 49.265625 0.734375 44.1875 -0.34375 
Q 39.109375 -1.421875 33.890625 -1.421875 
Q 20.796875 -1.421875 13.15625 6.1875 
Q 5.515625 13.8125 5.515625 26.8125 
Q 5.515625 40.234375 12.765625 48.109375 
Q 20.015625 56 32.328125 56 
Q 43.359375 56 49.78125 48.890625 
Q 56.203125 41.796875 56.203125 29.59375 
z
M 47.21875 32.234375 
Q 47.125 39.59375 43.09375 43.984375 
Q 39.0625 48.390625 32.421875 48.390625 
Q 24.90625 48.390625 20.390625 44.140625 
Q 15.875 39.890625 15.1875 32.171875 
z
" id="DejaVuSans-101"/>
      <path d="M 2.984375 54.6875 
L 12.5 54.6875 
L 29.59375 8.796875 
L 46.6875 54.6875 
L 56.203125 54.6875 
L 35.6875 0 
L 23.484375 0 
z
" id="DejaVuSans-118"/>
      <path d="M 34.28125 27.484375 
Q 23.390625 27.484375 19.1875 25 
Q 14.984375 22.515625 14.984375 16.5 
Q 14.984375 11.71875 18.140625 8.90625 
Q 21.296875 6.109375 26.703125 6.109375 
Q 34.1875 6.109375 38.703125 11.40625 
Q 43.21875 16.703125 43.21875 25.484375 
L 43.21875 27.484375 
z
M 52.203125 31.203125 
L 52.203125 0 
L 43.21875 0 
L 43.21875 8.296875 
Q 40.140625 3.328125 35.546875 0.953125 
Q 30.953125 -1.421875 24.3125 -1.421875 
Q 15.921875 -1.421875 10.953125 3.296875 
Q 6 8.015625 6 15.921875 
Q 6 25.140625 12.171875 29.828125 
Q 18.359375 34.515625 30.609375 34.515625 
L 43.21875 34.515625 
L 43.21875 35.40625 
Q 43.21875 41.609375 39.140625 45 
Q 35.0625 48.390625 27.6875 48.390625 
Q 23 48.390625 18.546875 47.265625 
Q 14.109375 46.140625 10.015625 43.890625 
L 10.015625 52.203125 
Q 14.9375 54.109375 19.578125 55.046875 
Q 24.21875 56 28.609375 56 
Q 40.484375 56 46.34375 49.84375 
Q 52.203125 43.703125 52.203125 31.203125 
z
" id="DejaVuSans-97"/>
      <path d="M 44.28125 53.078125 
L 44.28125 44.578125 
Q 40.484375 46.53125 36.375 47.5 
Q 32.28125 48.484375 27.875 48.484375 
Q 21.1875 48.484375 17.84375 46.4375 
Q 14.5 44.390625 14.5 40.28125 
Q 14.5 37.15625 16.890625 35.375 
Q 19.28125 33.59375 26.515625 31.984375 
L 29.59375 31.296875 
Q 39.15625 29.25 43.1875 25.515625 
Q 47.21875 21.78125 47.21875 15.09375 
Q 47.21875 7.46875 41.1875 3.015625 
Q 35.15625 -1.421875 24.609375 -1.421875 
Q 20.21875 -1.421875 15.453125 -0.5625 
Q 10.6875 0.296875 5.421875 2 
L 5.421875 11.28125 
Q 10.40625 8.6875 15.234375 7.390625 
Q 20.0625 6.109375 24.8125 6.109375 
Q 31.15625 6.109375 34.5625 8.28125 
Q 37.984375 10.453125 37.984375 14.40625 
Q 37.984375 18.0625 35.515625 20.015625 
Q 33.0625 21.96875 24.703125 23.78125 
L 21.578125 24.515625 
Q 13.234375 26.265625 9.515625 29.90625 
Q 5.8125 33.546875 5.8125 39.890625 
Q 5.8125 47.609375 11.28125 51.796875 
Q 16.75 56 26.8125 56 
Q 31.78125 56 36.171875 55.265625 
Q 40.578125 54.546875 44.28125 53.078125 
z
" id="DejaVuSans-115"/>
      <path d="M 25.390625 72.90625 
L 33.6875 72.90625 
L 8.296875 -9.28125 
L 0 -9.28125 
z
" id="DejaVuSans-47"/>
      <path d="M 45.40625 46.390625 
L 45.40625 75.984375 
L 54.390625 75.984375 
L 54.390625 0 
L 45.40625 0 
L 45.40625 8.203125 
Q 42.578125 3.328125 38.25 0.953125 
Q 33.9375 -1.421875 27.875 -1.421875 
Q 17.96875 -1.421875 11.734375 6.484375 
Q 5.515625 14.40625 5.515625 27.296875 
Q 5.515625 40.1875 11.734375 48.09375 
Q 17.96875 56 27.875 56 
Q 33.9375 56 38.25 53.625 
Q 42.578125 51.265625 45.40625 46.390625 
z
M 14.796875 27.296875 
Q 14.796875 17.390625 18.875 11.75 
Q 22.953125 6.109375 30.078125 6.109375 
Q 37.203125 6.109375 41.296875 11.75 
Q 45.40625 17.390625 45.40625 27.296875 
Q 45.40625 37.203125 41.296875 42.84375 
Q 37.203125 48.484375 30.078125 48.484375 
Q 22.953125 48.484375 18.875 42.84375 
Q 14.796875 37.203125 14.796875 27.296875 
z
" id="DejaVuSans-100"/>
      <path d="M 9.421875 54.6875 
L 18.40625 54.6875 
L 18.40625 0 
L 9.421875 0 
z
M 9.421875 75.984375 
L 18.40625 75.984375 
L 18.40625 64.59375 
L 9.421875 64.59375 
z
" id="DejaVuSans-105"/>
      <path d="M 52 44.1875 
Q 55.375 50.25 60.0625 53.125 
Q 64.75 56 71.09375 56 
Q 79.640625 56 84.28125 50.015625 
Q 88.921875 44.046875 88.921875 33.015625 
L 88.921875 0 
L 79.890625 0 
L 79.890625 32.71875 
Q 79.890625 40.578125 77.09375 44.375 
Q 74.3125 48.1875 68.609375 48.1875 
Q 61.625 48.1875 57.5625 43.546875 
Q 53.515625 38.921875 53.515625 30.90625 
L 53.515625 0 
L 44.484375 0 
L 44.484375 32.71875 
Q 44.484375 40.625 41.703125 44.40625 
Q 38.921875 48.1875 33.109375 48.1875 
Q 26.21875 48.1875 22.15625 43.53125 
Q 18.109375 38.875 18.109375 30.90625 
L 18.109375 0 
L 9.078125 0 
L 9.078125 54.6875 
L 18.109375 54.6875 
L 18.109375 46.1875 
Q 21.1875 51.21875 25.484375 53.609375 
Q 29.78125 56 35.6875 56 
Q 41.65625 56 45.828125 52.96875 
Q 50 49.953125 52 44.1875 
z
" id="DejaVuSans-109"/>
      <path d="M 54.890625 33.015625 
L 54.890625 0 
L 45.90625 0 
L 45.90625 32.71875 
Q 45.90625 40.484375 42.875 44.328125 
Q 39.84375 48.1875 33.796875 48.1875 
Q 26.515625 48.1875 22.3125 43.546875 
Q 18.109375 38.921875 18.109375 30.90625 
L 18.109375 0 
L 9.078125 0 
L 9.078125 54.6875 
L 18.109375 54.6875 
L 18.109375 46.1875 
Q 21.34375 51.125 25.703125 53.5625 
Q 30.078125 56 35.796875 56 
Q 45.21875 56 50.046875 50.171875 
Q 54.890625 44.34375 54.890625 33.015625 
z
" id="DejaVuSans-110"/>
      <path d="M 8.015625 75.875 
L 15.828125 75.875 
Q 23.140625 64.359375 26.78125 53.3125 
Q 30.421875 42.28125 30.421875 31.390625 
Q 30.421875 20.453125 26.78125 9.375 
Q 23.140625 -1.703125 15.828125 -13.1875 
L 8.015625 -13.1875 
Q 14.5 -2 17.703125 9.0625 
Q 20.90625 20.125 20.90625 31.390625 
Q 20.90625 42.671875 17.703125 53.65625 
Q 14.5 64.65625 8.015625 75.875 
z
" id="DejaVuSans-41"/>
     </defs>
     <g transform="translate(77.764078 342.217594)scale(0.17 -0.17)">
      <use xlink:href="#DejaVuSans-108"/>
      <use x="27.783203" xlink:href="#DejaVuSans-111"/>
      <use x="88.964844" xlink:href="#DejaVuSans-103"/>
      <use x="152.441406" xlink:href="#DejaVuSans-49"/>
      <use x="216.064453" xlink:href="#DejaVuSans-48"/>
      <use x="279.6875" xlink:href="#DejaVuSans-40"/>
      <use x="318.701172" xlink:href="#DejaVuSans-35"/>
      <use x="402.490234" xlink:href="#DejaVuSans-32"/>
      <use x="434.277344" xlink:href="#DejaVuSans-102"/>
      <use x="463.982422" xlink:href="#DejaVuSans-45"/>
      <use x="500.066406" xlink:href="#DejaVuSans-101"/>
      <use x="561.589844" xlink:href="#DejaVuSans-118"/>
      <use x="620.769531" xlink:href="#DejaVuSans-97"/>
      <use x="682.048828" xlink:href="#DejaVuSans-108"/>
      <use x="709.832031" xlink:href="#DejaVuSans-115"/>
      <use x="761.931641" xlink:href="#DejaVuSans-32"/>
      <use x="793.71875" xlink:href="#DejaVuSans-47"/>
      <use x="827.410156" xlink:href="#DejaVuSans-32"/>
      <use x="859.197266" xlink:href="#DejaVuSans-100"/>
      <use x="922.673828" xlink:href="#DejaVuSans-105"/>
      <use x="950.457031" xlink:href="#DejaVuSans-109"/>
      <use x="1047.869141" xlink:href="#DejaVuSans-101"/>
      <use x="1109.392578" xlink:href="#DejaVuSans-110"/>
      <use x="1172.771484" xlink:href="#DejaVuSans-115"/>
      <use x="1224.871094" xlink:href="#DejaVuSans-105"/>
      <use x="1252.654297" xlink:href="#DejaVuSans-111"/>
      <use x="1313.835938" xlink:href="#DejaVuSans-110"/>
      <use x="1377.214844" xlink:href="#DejaVuSans-41"/>
     </g>
    </g>
   </g>
   <g id="matplotlib.axis_2">
    <g id="ytick_1">
     <g id="line2d_21">
      <path clip-path="url(#p44ea5110a1)" d="M 57.6 298.944 
L 338.688 298.944 
" style="fill:none;stroke:#b0b0b0;stroke-linecap:square;stroke-width:0.8;"/>
     </g>
     <g id="line2d_22">
      <defs>
       <path d="M 0 0 
L -3.5 0 
" id="m611c16f1bc" style="stroke:#000000;stroke-width:0.8;"/>
      </defs>
      <g>
       <use style="stroke:#000000;stroke-width:0.8;" x="57.6" xlink:href="#m611c16f1bc" y="298.944"/>
      </g>
     </g>
     <g id="text_6">
      <!-- 0.0 -->
      <defs>
       <path d="M 10.6875 12.40625 
L 21 12.40625 
L 21 0 
L 10.6875 0 
z
" id="DejaVuSans-46"/>
      </defs>
      <g transform="translate(25.155 305.02275)scale(0.16 -0.16)">
       <use xlink:href="#DejaVuSans-48"/>
       <use x="63.623047" xlink:href="#DejaVuSans-46"/>
       <use x="95.410156" xlink:href="#DejaVuSans-48"/>
      </g>
     </g>
    </g>
    <g id="ytick_2">
     <g id="line2d_23">
      <path clip-path="url(#p44ea5110a1)" d="M 57.6 245.22202 
L 338.688 245.22202 
" style="fill:none;stroke:#b0b0b0;stroke-linecap:square;stroke-width:0.8;"/>
     </g>
     <g id="line2d_24">
      <g>
       <use style="stroke:#000000;stroke-width:0.8;" x="57.6" xlink:href="#m611c16f1bc" y="245.22202"/>
      </g>
     </g>
     <g id="text_7">
      <!-- 0.2 -->
      <g transform="translate(25.155 251.30077)scale(0.16 -0.16)">
       <use xlink:href="#DejaVuSans-48"/>
       <use x="63.623047" xlink:href="#DejaVuSans-46"/>
       <use x="95.410156" xlink:href="#DejaVuSans-50"/>
      </g>
     </g>
    </g>
    <g id="ytick_3">
     <g id="line2d_25">
      <path clip-path="url(#p44ea5110a1)" d="M 57.6 191.50004 
L 338.688 191.50004 
" style="fill:none;stroke:#b0b0b0;stroke-linecap:square;stroke-width:0.8;"/>
     </g>
     <g id="line2d_26">
      <g>
       <use style="stroke:#000000;stroke-width:0.8;" x="57.6" xlink:href="#m611c16f1bc" y="191.50004"/>
      </g>
     </g>
     <g id="text_8">
      <!-- 0.4 -->
      <g transform="translate(25.155 197.57879)scale(0.16 -0.16)">
       <use xlink:href="#DejaVuSans-48"/>
       <use x="63.623047" xlink:href="#DejaVuSans-46"/>
       <use x="95.410156" xlink:href="#DejaVuSans-52"/>
      </g>
     </g>
    </g>
    <g id="ytick_4">
     <g id="line2d_27">
      <path clip-path="url(#p44ea5110a1)" d="M 57.6 137.778059 
L 338.688 137.778059 
" style="fill:none;stroke:#b0b0b0;stroke-linecap:square;stroke-width:0.8;"/>
     </g>
     <g id="line2d_28">
      <g>
       <use style="stroke:#000000;stroke-width:0.8;" x="57.6" xlink:href="#m611c16f1bc" y="137.778059"/>
      </g>
     </g>
     <g id="text_9">
      <!-- 0.6 -->
      <g transform="translate(25.155 143.856809)scale(0.16 -0.16)">
       <use xlink:href="#DejaVuSans-48"/>
       <use x="63.623047" xlink:href="#DejaVuSans-46"/>
       <use x="95.410156" xlink:href="#DejaVuSans-54"/>
      </g>
     </g>
    </g>
    <g id="ytick_5">
     <g id="line2d_29">
      <path clip-path="url(#p44ea5110a1)" d="M 57.6 84.056079 
L 338.688 84.056079 
" style="fill:none;stroke:#b0b0b0;stroke-linecap:square;stroke-width:0.8;"/>
     </g>
     <g id="line2d_30">
      <g>
       <use style="stroke:#000000;stroke-width:0.8;" x="57.6" xlink:href="#m611c16f1bc" y="84.056079"/>
      </g>
     </g>
     <g id="text_10">
      <!-- 0.8 -->
      <defs>
       <path d="M 31.78125 34.625 
Q 24.75 34.625 20.71875 30.859375 
Q 16.703125 27.09375 16.703125 20.515625 
Q 16.703125 13.921875 20.71875 10.15625 
Q 24.75 6.390625 31.78125 6.390625 
Q 38.8125 6.390625 42.859375 10.171875 
Q 46.921875 13.96875 46.921875 20.515625 
Q 46.921875 27.09375 42.890625 30.859375 
Q 38.875 34.625 31.78125 34.625 
z
M 21.921875 38.8125 
Q 15.578125 40.375 12.03125 44.71875 
Q 8.5 49.078125 8.5 55.328125 
Q 8.5 64.0625 14.71875 69.140625 
Q 20.953125 74.21875 31.78125 74.21875 
Q 42.671875 74.21875 48.875 69.140625 
Q 55.078125 64.0625 55.078125 55.328125 
Q 55.078125 49.078125 51.53125 44.71875 
Q 48 40.375 41.703125 38.8125 
Q 48.828125 37.15625 52.796875 32.3125 
Q 56.78125 27.484375 56.78125 20.515625 
Q 56.78125 9.90625 50.3125 4.234375 
Q 43.84375 -1.421875 31.78125 -1.421875 
Q 19.734375 -1.421875 13.25 4.234375 
Q 6.78125 9.90625 6.78125 20.515625 
Q 6.78125 27.484375 10.78125 32.3125 
Q 14.796875 37.15625 21.921875 38.8125 
z
M 18.3125 54.390625 
Q 18.3125 48.734375 21.84375 45.5625 
Q 25.390625 42.390625 31.78125 42.390625 
Q 38.140625 42.390625 41.71875 45.5625 
Q 45.3125 48.734375 45.3125 54.390625 
Q 45.3125 60.0625 41.71875 63.234375 
Q 38.140625 66.40625 31.78125 66.40625 
Q 25.390625 66.40625 21.84375 63.234375 
Q 18.3125 60.0625 18.3125 54.390625 
z
" id="DejaVuSans-56"/>
      </defs>
      <g transform="translate(25.155 90.134829)scale(0.16 -0.16)">
       <use xlink:href="#DejaVuSans-48"/>
       <use x="63.623047" xlink:href="#DejaVuSans-46"/>
       <use x="95.410156" xlink:href="#DejaVuSans-56"/>
      </g>
     </g>
    </g>
    <g id="ytick_6">
     <g id="line2d_31">
      <path clip-path="url(#p44ea5110a1)" d="M 57.6 30.334099 
L 338.688 30.334099 
" style="fill:none;stroke:#b0b0b0;stroke-linecap:square;stroke-width:0.8;"/>
     </g>
     <g id="line2d_32">
      <g>
       <use style="stroke:#000000;stroke-width:0.8;" x="57.6" xlink:href="#m611c16f1bc" y="30.334099"/>
      </g>
     </g>
     <g id="text_11">
      <!-- 1.0 -->
      <g transform="translate(25.155 36.412849)scale(0.16 -0.16)">
       <use xlink:href="#DejaVuSans-49"/>
       <use x="63.623047" xlink:href="#DejaVuSans-46"/>
       <use x="95.410156" xlink:href="#DejaVuSans-48"/>
      </g>
     </g>
    </g>
    <g id="text_12">
     <!-- Fraction of function,target pairs -->
     <defs>
      <path d="M 9.8125 72.90625 
L 51.703125 72.90625 
L 51.703125 64.59375 
L 19.671875 64.59375 
L 19.671875 43.109375 
L 48.578125 43.109375 
L 48.578125 34.8125 
L 19.671875 34.8125 
L 19.671875 0 
L 9.8125 0 
z
" id="DejaVuSans-70"/>
      <path d="M 41.109375 46.296875 
Q 39.59375 47.171875 37.8125 47.578125 
Q 36.03125 48 33.890625 48 
Q 26.265625 48 22.1875 43.046875 
Q 18.109375 38.09375 18.109375 28.8125 
L 18.109375 0 
L 9.078125 0 
L 9.078125 54.6875 
L 18.109375 54.6875 
L 18.109375 46.1875 
Q 20.953125 51.171875 25.484375 53.578125 
Q 30.03125 56 36.53125 56 
Q 37.453125 56 38.578125 55.875 
Q 39.703125 55.765625 41.0625 55.515625 
z
" id="DejaVuSans-114"/>
      <path d="M 48.78125 52.59375 
L 48.78125 44.1875 
Q 44.96875 46.296875 41.140625 47.34375 
Q 37.3125 48.390625 33.40625 48.390625 
Q 24.65625 48.390625 19.8125 42.84375 
Q 14.984375 37.3125 14.984375 27.296875 
Q 14.984375 17.28125 19.8125 11.734375 
Q 24.65625 6.203125 33.40625 6.203125 
Q 37.3125 6.203125 41.140625 7.25 
Q 44.96875 8.296875 48.78125 10.40625 
L 48.78125 2.09375 
Q 45.015625 0.34375 40.984375 -0.53125 
Q 36.96875 -1.421875 32.421875 -1.421875 
Q 20.0625 -1.421875 12.78125 6.34375 
Q 5.515625 14.109375 5.515625 27.296875 
Q 5.515625 40.671875 12.859375 48.328125 
Q 20.21875 56 33.015625 56 
Q 37.15625 56 41.109375 55.140625 
Q 45.0625 54.296875 48.78125 52.59375 
z
" id="DejaVuSans-99"/>
      <path d="M 18.3125 70.21875 
L 18.3125 54.6875 
L 36.8125 54.6875 
L 36.8125 47.703125 
L 18.3125 47.703125 
L 18.3125 18.015625 
Q 18.3125 11.328125 20.140625 9.421875 
Q 21.96875 7.515625 27.59375 7.515625 
L 36.8125 7.515625 
L 36.8125 0 
L 27.59375 0 
Q 17.1875 0 13.234375 3.875 
Q 9.28125 7.765625 9.28125 18.015625 
L 9.28125 47.703125 
L 2.6875 47.703125 
L 2.6875 54.6875 
L 9.28125 54.6875 
L 9.28125 70.21875 
z
" id="DejaVuSans-116"/>
      <path d="M 8.5 21.578125 
L 8.5 54.6875 
L 17.484375 54.6875 
L 17.484375 21.921875 
Q 17.484375 14.15625 20.5 10.265625 
Q 23.53125 6.390625 29.59375 6.390625 
Q 36.859375 6.390625 41.078125 11.03125 
Q 45.3125 15.671875 45.3125 23.6875 
L 45.3125 54.6875 
L 54.296875 54.6875 
L 54.296875 0 
L 45.3125 0 
L 45.3125 8.40625 
Q 42.046875 3.421875 37.71875 1 
Q 33.40625 -1.421875 27.6875 -1.421875 
Q 18.265625 -1.421875 13.375 4.4375 
Q 8.5 10.296875 8.5 21.578125 
z
M 31.109375 56 
z
" id="DejaVuSans-117"/>
      <path d="M 11.71875 12.40625 
L 22.015625 12.40625 
L 22.015625 4 
L 14.015625 -11.625 
L 7.71875 -11.625 
L 11.71875 4 
z
" id="DejaVuSans-44"/>
      <path d="M 18.109375 8.203125 
L 18.109375 -20.796875 
L 9.078125 -20.796875 
L 9.078125 54.6875 
L 18.109375 54.6875 
L 18.109375 46.390625 
Q 20.953125 51.265625 25.265625 53.625 
Q 29.59375 56 35.59375 56 
Q 45.5625 56 51.78125 48.09375 
Q 58.015625 40.1875 58.015625 27.296875 
Q 58.015625 14.40625 51.78125 6.484375 
Q 45.5625 -1.421875 35.59375 -1.421875 
Q 29.59375 -1.421875 25.265625 0.953125 
Q 20.953125 3.328125 18.109375 8.203125 
z
M 48.6875 27.296875 
Q 48.6875 37.203125 44.609375 42.84375 
Q 40.53125 48.484375 33.40625 48.484375 
Q 26.265625 48.484375 22.1875 42.84375 
Q 18.109375 37.203125 18.109375 27.296875 
Q 18.109375 17.390625 22.1875 11.75 
Q 26.265625 6.109375 33.40625 6.109375 
Q 40.53125 6.109375 44.609375 11.75 
Q 48.6875 17.390625 48.6875 27.296875 
z
" id="DejaVuSans-112"/>
     </defs>
     <g transform="translate(17.619531 297.681)rotate(-90)scale(0.17 -0.17)">
      <use xlink:href="#DejaVuSans-70"/>
      <use x="50.269531" xlink:href="#DejaVuSans-114"/>
      <use x="91.382812" xlink:href="#DejaVuSans-97"/>
      <use x="152.662109" xlink:href="#DejaVuSans-99"/>
      <use x="207.642578" xlink:href="#DejaVuSans-116"/>
      <use x="246.851562" xlink:href="#DejaVuSans-105"/>
      <use x="274.634766" xlink:href="#DejaVuSans-111"/>
      <use x="335.816406" xlink:href="#DejaVuSans-110"/>
      <use x="399.195312" xlink:href="#DejaVuSans-32"/>
      <use x="430.982422" xlink:href="#DejaVuSans-111"/>
      <use x="492.164062" xlink:href="#DejaVuSans-102"/>
      <use x="527.369141" xlink:href="#DejaVuSans-32"/>
      <use x="559.15625" xlink:href="#DejaVuSans-102"/>
      <use x="594.361328" xlink:href="#DejaVuSans-117"/>
      <use x="657.740234" xlink:href="#DejaVuSans-110"/>
      <use x="721.119141" xlink:href="#DejaVuSans-99"/>
      <use x="776.099609" xlink:href="#DejaVuSans-116"/>
      <use x="815.308594" xlink:href="#DejaVuSans-105"/>
      <use x="843.091797" xlink:href="#DejaVuSans-111"/>
      <use x="904.273438" xlink:href="#DejaVuSans-110"/>
      <use x="967.652344" xlink:href="#DejaVuSans-44"/>
      <use x="999.439453" xlink:href="#DejaVuSans-116"/>
      <use x="1038.648438" xlink:href="#DejaVuSans-97"/>
      <use x="1099.927734" xlink:href="#DejaVuSans-114"/>
      <use x="1139.291016" xlink:href="#DejaVuSans-103"/>
      <use x="1202.767578" xlink:href="#DejaVuSans-101"/>
      <use x="1264.291016" xlink:href="#DejaVuSans-116"/>
      <use x="1303.5" xlink:href="#DejaVuSans-32"/>
      <use x="1335.287109" xlink:href="#DejaVuSans-112"/>
      <use x="1398.763672" xlink:href="#DejaVuSans-97"/>
      <use x="1460.042969" xlink:href="#DejaVuSans-105"/>
      <use x="1487.826172" xlink:href="#DejaVuSans-114"/>
      <use x="1528.939453" xlink:href="#DejaVuSans-115"/>
     </g>
    </g>
   </g>
   <g id="line2d_33">
    <defs>
     <path d="M 0 1.5 
C 0.397805 1.5 0.77937 1.341951 1.06066 1.06066 
C 1.341951 0.77937 1.5 0.397805 1.5 0 
C 1.5 -0.397805 1.341951 -0.77937 1.06066 -1.06066 
C 0.77937 -1.341951 0.397805 -1.5 0 -1.5 
C -0.397805 -1.5 -0.77937 -1.341951 -1.06066 -1.06066 
C -1.341951 -0.77937 -1.5 -0.397805 -1.5 0 
C -1.5 0.397805 -1.341951 0.77937 -1.06066 1.06066 
C -0.77937 1.341951 -0.397805 1.5 0 1.5 
z
" id="m964a984c1c" style="stroke:#f5deb3;"/>
    </defs>
    <g>
     <use style="fill:#f5deb3;stroke:#f5deb3;" x="158.805835" xlink:href="#m964a984c1c" y="30.334099"/>
     <use style="fill:#f5deb3;stroke:#f5deb3;" x="158.805835" xlink:href="#m964a984c1c" y="30.334099"/>
    </g>
   </g>
   <g id="line2d_34">
    <defs>
     <path d="M 0 1.5 
C 0.397805 1.5 0.77937 1.341951 1.06066 1.06066 
C 1.341951 0.77937 1.5 0.397805 1.5 0 
C 1.5 -0.397805 1.341951 -0.77937 1.06066 -1.06066 
C 0.77937 -1.341951 0.397805 -1.5 0 -1.5 
C -0.397805 -1.5 -0.77937 -1.341951 -1.06066 -1.06066 
C -1.341951 -0.77937 -1.5 -0.397805 -1.5 0 
C -1.5 0.397805 -1.341951 0.77937 -1.06066 1.06066 
C -0.77937 1.341951 -0.397805 1.5 0 1.5 
z
" id="m7bdb3c0e19" style="stroke:#000080;"/>
    </defs>
    <g>
     <use style="fill:#000080;stroke:#000080;" x="241.44737" xlink:href="#m7bdb3c0e19" y="277.876557"/>
     <use style="fill:#000080;stroke:#000080;" x="241.44737" xlink:href="#m7bdb3c0e19" y="277.876557"/>
    </g>
   </g>
   <g id="line2d_35">
    <path d="M 29.53256 298.944 
L 29.53256 298.417314 
L 53.708537 298.417314 
L 53.708537 297.363942 
L 69.687988 297.363942 
L 69.687988 296.837256 
L 74.263433 296.837256 
L 74.263433 296.31057 
L 75.555822 296.31057 
L 75.555822 295.783884 
L 92.969447 295.783884 
L 92.969447 295.257197 
L 97.043522 295.257197 
L 97.043522 294.730511 
L 98.771596 294.730511 
L 98.771596 294.203825 
L 103.623262 294.203825 
L 103.623262 293.677139 
L 105.732589 293.677139 
L 105.732589 293.150453 
L 106.802819 293.150453 
L 106.802819 292.623767 
L 109.843417 292.623767 
L 109.843417 292.097081 
L 118.576578 292.097081 
L 118.576578 291.570395 
L 119.602714 291.570395 
L 119.602714 291.043709 
L 123.029641 291.043709 
L 123.029641 290.517023 
L 123.672636 290.517023 
L 123.672636 289.463651 
L 127.799239 289.463651 
L 127.799239 288.410278 
L 128.350967 288.410278 
L 128.350967 287.883592 
L 130.558552 287.883592 
L 130.558552 287.356906 
L 149.593058 287.356906 
L 149.593058 286.303534 
L 155.666226 286.303534 
L 155.666226 285.776848 
L 166.987883 285.776848 
L 166.987883 285.250162 
L 172.284043 285.250162 
L 172.284043 284.723476 
L 173.349008 284.723476 
L 173.349008 284.19679 
L 175.809197 284.19679 
L 175.809197 283.670104 
L 176.390886 283.670104 
L 176.390886 283.143418 
L 177.48108 283.143418 
L 177.48108 282.616732 
L 183.026484 282.616732 
L 183.026484 282.090045 
L 189.336686 282.090045 
L 189.336686 281.563359 
L 201.704782 281.563359 
L 201.704782 281.036673 
L 208.956809 281.036673 
L 208.956809 280.509987 
L 209.04499 280.509987 
L 209.04499 279.983301 
L 214.063582 279.983301 
L 214.063582 278.929929 
L 232.654758 278.929929 
L 232.654758 278.403243 
L 241.44737 278.403243 
L 241.44737 277.876557 
L 338.688 277.876557 
" style="fill:none;stroke:#000080;stroke-linecap:square;stroke-width:1.5;"/>
   </g>
   <g id="line2d_36">
    <defs>
     <path d="M 0 6 
C 1.591219 6 3.117479 5.367802 4.242641 4.242641 
C 5.367802 3.117479 6 1.591219 6 0 
C 6 -1.591219 5.367802 -3.117479 4.242641 -4.242641 
C 3.117479 -5.367802 1.591219 -6 0 -6 
C -1.591219 -6 -3.117479 -5.367802 -4.242641 -4.242641 
C -5.367802 -3.117479 -6 -1.591219 -6 0 
C -6 1.591219 -5.367802 3.117479 -4.242641 4.242641 
C -3.117479 5.367802 -1.591219 6 0 6 
z
" id="me99811c995" style="stroke:#000080;stroke-width:1.5;"/>
    </defs>
    <g>
     <use style="fill-opacity:0;stroke:#000080;stroke-width:1.5;" x="123.029641" xlink:href="#me99811c995" y="290.517023"/>
     <use style="fill-opacity:0;stroke:#000080;stroke-width:1.5;" x="183.026484" xlink:href="#me99811c995" y="282.090045"/>
     <use style="fill-opacity:0;stroke:#000080;stroke-width:1.5;" x="241.44737" xlink:href="#me99811c995" y="278.403243"/>
     <use style="fill-opacity:0;stroke:#000080;stroke-width:1.5;" x="241.44737" xlink:href="#me99811c995" y="277.876557"/>
     <use style="fill-opacity:0;stroke:#000080;stroke-width:1.5;" x="241.44737" xlink:href="#me99811c995" y="277.876557"/>
     <use style="fill-opacity:0;stroke:#000080;stroke-width:1.5;" x="338.688" xlink:href="#me99811c995" y="277.876557"/>
    </g>
   </g>
   <g id="line2d_37">
    <path style="fill:none;stroke:#000080;stroke-linecap:square;stroke-width:1.5;"/>
    <g/>
   </g>
   <g id="line2d_38">
    <path clip-path="url(#p44ea5110a1)" d="M 178.066286 282.616732 
" style="fill:none;stroke:#000080;stroke-linecap:square;stroke-width:1.5;"/>
    <defs>
     <path d="M -12 12 
L 12 -12 
M -12 -12 
L 12 12 
" id="mfbc8094ea8" style="stroke:#000080;"/>
    </defs>
    <g clip-path="url(#p44ea5110a1)">
     <use style="fill:#000080;stroke:#000080;" x="178.066286" xlink:href="#mfbc8094ea8" y="282.616732"/>
    </g>
   </g>
   <g id="line2d_39">
    <defs>
     <path d="M 0 1.5 
C 0.397805 1.5 0.77937 1.341951 1.06066 1.06066 
C 1.341951 0.77937 1.5 0.397805 1.5 0 
C 1.5 -0.397805 1.341951 -0.77937 1.06066 -1.06066 
C 0.77937 -1.341951 0.397805 -1.5 0 -1.5 
C -0.397805 -1.5 -0.77937 -1.341951 -1.06066 -1.06066 
C -1.341951 -0.77937 -1.5 -0.397805 -1.5 0 
C -1.5 0.397805 -1.341951 0.77937 -1.06066 1.06066 
C -0.77937 1.341951 -0.397805 1.5 0 1.5 
z
" id="mc097b036d6" style="stroke:#ff00ff;"/>
    </defs>
    <g>
     <use style="fill:#ff00ff;stroke:#ff00ff;" x="220.020612" xlink:href="#mc097b036d6" y="251.542253"/>
     <use style="fill:#ff00ff;stroke:#ff00ff;" x="220.020612" xlink:href="#mc097b036d6" y="251.542253"/>
    </g>
   </g>
   <g id="line2d_40">
    <path d="M 29.53256 298.944 
L 29.53256 298.417314 
L 41.620548 298.417314 
L 41.620548 297.890628 
L 60.779557 297.890628 
L 60.779557 297.363942 
L 65.796525 297.363942 
L 65.796525 296.31057 
L 67.850577 296.31057 
L 67.850577 295.783884 
L 79.938565 295.783884 
L 79.938565 295.257197 
L 80.881459 295.257197 
L 80.881459 294.730511 
L 82.626842 294.730511 
L 82.626842 294.203825 
L 85.66744 294.203825 
L 85.66744 293.677139 
L 86.351421 293.677139 
L 86.351421 293.150453 
L 92.504372 293.150453 
L 92.504372 292.623767 
L 94.294587 292.623767 
L 94.294587 292.097081 
L 95.526106 292.097081 
L 95.526106 291.570395 
L 97.755429 291.570395 
L 97.755429 291.043709 
L 98.43941 291.043709 
L 98.43941 290.517023 
L 98.771596 290.517023 
L 98.771596 289.990337 
L 102.330873 289.990337 
L 102.330873 289.463651 
L 105.057436 289.463651 
L 105.057436 288.936964 
L 106.593963 288.936964 
L 106.593963 288.410278 
L 106.802819 288.410278 
L 106.802819 287.883592 
L 108.764355 287.883592 
L 108.764355 287.356906 
L 109.843417 287.356906 
L 109.843417 286.83022 
L 110.358901 286.83022 
L 110.358901 286.303534 
L 111.346294 286.303534 
L 111.346294 285.776848 
L 111.819788 285.776848 
L 111.819788 285.250162 
L 112.431755 285.250162 
L 112.431755 284.723476 
L 112.58145 284.723476 
L 112.58145 284.19679 
L 115.205729 284.19679 
L 115.205729 283.670104 
L 116.202531 283.670104 
L 116.202531 282.616732 
L 118.256582 282.616732 
L 118.256582 282.090045 
L 118.994305 282.090045 
L 118.994305 281.563359 
L 120.852343 281.563359 
L 120.852343 281.036673 
L 123.751369 281.036673 
L 123.751369 280.509987 
L 125.038147 280.509987 
L 125.038147 279.983301 
L 125.470548 279.983301 
L 125.470548 279.456615 
L 125.892487 279.456615 
L 125.892487 278.929929 
L 126.839037 278.929929 
L 126.839037 278.403243 
L 127.421479 278.403243 
L 127.421479 277.876557 
L 129.290685 277.876557 
L 129.290685 277.349871 
L 131.740458 277.349871 
L 131.740458 276.823185 
L 132.084827 276.823185 
L 132.084827 276.296499 
L 132.374684 276.296499 
L 132.374684 275.769812 
L 132.70687 275.769812 
L 132.70687 274.71644 
L 133.352844 274.71644 
L 133.352844 274.189754 
L 134.407429 274.189754 
L 134.407429 273.663068 
L 135.158519 273.663068 
L 135.158519 273.136382 
L 136.266147 273.136382 
L 136.266147 272.609696 
L 136.418789 272.609696 
L 136.418789 272.08301 
L 136.645276 272.08301 
L 136.645276 271.556324 
L 136.905847 271.556324 
L 136.905847 271.029638 
L 137.37967 271.029638 
L 137.37967 270.502952 
L 137.735587 270.502952 
L 137.735587 269.976266 
L 138.493936 269.976266 
L 138.527635 268.922893 
L 138.927025 268.922893 
L 138.927025 268.396207 
L 139.762215 268.396207 
L 139.762215 267.342835 
L 140.134598 267.342835 
L 140.134598 266.816149 
L 144.099593 266.816149 
L 144.099593 266.289463 
L 170.113593 266.289463 
L 170.113593 265.762777 
L 172.663747 265.762777 
L 172.663747 265.236091 
L 173.884674 265.236091 
L 173.959872 264.182719 
L 173.999552 264.182719 
L 174.087407 262.60266 
L 174.222715 262.60266 
L 174.261802 261.549288 
L 174.741027 261.549288 
L 174.842027 260.495916 
L 175.821103 260.495916 
L 175.821103 259.96923 
L 184.646823 259.96923 
L 184.646823 259.442544 
L 185.306227 259.442544 
L 185.306227 258.915858 
L 185.452989 258.915858 
L 185.452989 258.389172 
L 187.761688 258.389172 
L 187.761688 257.862486 
L 189.340341 257.862486 
L 189.340341 257.3358 
L 190.487646 257.3358 
L 190.499618 256.282427 
L 197.578615 256.282427 
L 197.578615 255.755741 
L 199.99212 255.755741 
L 199.99212 255.229055 
L 205.278814 255.229055 
L 205.278814 254.702369 
L 209.468382 254.702369 
L 209.468382 254.175683 
L 210.60152 254.175683 
L 210.60152 253.648997 
L 212.963587 253.648997 
L 212.963587 253.122311 
L 216.460095 253.122311 
L 216.460095 252.595625 
L 217.402298 252.595625 
L 217.402298 252.068939 
L 220.020612 252.068939 
L 220.020612 251.542253 
L 338.688 251.542253 
L 338.688 251.542253 
" style="fill:none;stroke:#ff00ff;stroke-linecap:square;stroke-width:1.5;"/>
   </g>
   <g id="line2d_41">
    <defs>
     <path d="M -0 8.485281 
L 5.091169 0 
L 0 -8.485281 
L -5.091169 -0 
z
" id="mfbc82d1ded" style="stroke:#ff00ff;stroke-linejoin:miter;stroke-width:1.5;"/>
    </defs>
    <g>
     <use style="fill-opacity:0;stroke:#ff00ff;stroke-linejoin:miter;stroke-width:1.5;" x="111.346294" xlink:href="#mfbc82d1ded" y="286.303534"/>
     <use style="fill-opacity:0;stroke:#ff00ff;stroke-linejoin:miter;stroke-width:1.5;" x="144.099593" xlink:href="#mfbc82d1ded" y="266.289463"/>
     <use style="fill-opacity:0;stroke:#ff00ff;stroke-linejoin:miter;stroke-width:1.5;" x="220.020612" xlink:href="#mfbc82d1ded" y="252.068939"/>
     <use style="fill-opacity:0;stroke:#ff00ff;stroke-linejoin:miter;stroke-width:1.5;" x="220.020612" xlink:href="#mfbc82d1ded" y="251.542253"/>
     <use style="fill-opacity:0;stroke:#ff00ff;stroke-linejoin:miter;stroke-width:1.5;" x="220.020612" xlink:href="#mfbc82d1ded" y="251.542253"/>
     <use style="fill-opacity:0;stroke:#ff00ff;stroke-linejoin:miter;stroke-width:1.5;" x="338.688" xlink:href="#mfbc82d1ded" y="251.542253"/>
    </g>
   </g>
   <g id="line2d_42">
    <path style="fill:none;stroke:#ff00ff;stroke-linecap:square;stroke-width:1.5;"/>
    <g/>
   </g>
   <g id="line2d_43">
    <path clip-path="url(#p44ea5110a1)" d="M 171.625505 265.762777 
" style="fill:none;stroke:#ff00ff;stroke-linecap:square;stroke-width:1.5;"/>
    <defs>
     <path d="M -12 12 
L 12 -12 
M -12 -12 
L 12 12 
" id="mca101d9ec6" style="stroke:#ff00ff;"/>
    </defs>
    <g clip-path="url(#p44ea5110a1)">
     <use style="fill:#ff00ff;stroke:#ff00ff;" x="171.625505" xlink:href="#mca101d9ec6" y="265.762777"/>
    </g>
   </g>
   <g id="line2d_44">
    <defs>
     <path d="M 0 1.5 
C 0.397805 1.5 0.77937 1.341951 1.06066 1.06066 
C 1.341951 0.77937 1.5 0.397805 1.5 0 
C 1.5 -0.397805 1.341951 -0.77937 1.06066 -1.06066 
C 0.77937 -1.341951 0.397805 -1.5 0 -1.5 
C -0.397805 -1.5 -0.77937 -1.341951 -1.06066 -1.06066 
C -1.341951 -0.77937 -1.5 -0.397805 -1.5 0 
C -1.5 0.397805 -1.341951 0.77937 -1.06066 1.06066 
C -0.77937 1.341951 -0.397805 1.5 0 1.5 
z
" id="mf1512bf4e6" style="stroke:#ff7500;"/>
    </defs>
    <g>
     <use style="fill:#ff7500;stroke:#ff7500;" x="225.175381" xlink:href="#mf1512bf4e6" y="30.334099"/>
     <use style="fill:#ff7500;stroke:#ff7500;" x="225.175381" xlink:href="#mf1512bf4e6" y="30.334099"/>
    </g>
   </g>
   <g id="line2d_45">
    <path d="M 48.691568 298.944 
L 48.691568 298.417314 
L 67.850577 298.417314 
L 67.850577 297.890628 
L 69.687988 297.890628 
L 69.687988 297.363942 
L 77.884514 297.363942 
L 77.884514 296.837256 
L 81.775977 296.837256 
L 81.775977 296.31057 
L 83.438118 296.31057 
L 83.438118 295.783884 
L 89.972502 295.783884 
L 89.972502 295.257197 
L 92.026554 295.257197 
L 92.026554 294.730511 
L 92.969447 294.730511 
L 92.969447 293.677139 
L 93.863965 293.677139 
L 93.863965 293.150453 
L 97.403108 293.150453 
L 97.403108 292.623767 
L 104.826449 292.623767 
L 104.826449 292.097081 
L 110.358901 292.097081 
L 110.358901 291.043709 
L 110.694282 291.043709 
L 110.694282 290.517023 
L 111.023335 290.517023 
L 111.023335 289.990337 
L 112.431755 289.990337 
L 112.431755 289.463651 
L 117.598418 289.463651 
L 117.598418 288.936964 
L 122.276749 288.936964 
L 122.276749 287.883592 
L 122.44689 287.883592 
L 122.531342 286.83022 
L 122.615387 286.83022 
L 122.615387 286.303534 
L 128.046609 286.303534 
L 128.107907 285.250162 
L 128.709321 285.250162 
L 128.709321 284.723476 
L 129.347769 284.723476 
L 129.347769 284.19679 
L 129.908566 284.19679 
L 129.908566 283.670104 
L 130.236587 283.670104 
L 130.236587 283.143418 
L 130.398313 283.143418 
L 130.45189 282.090045 
L 131.082294 282.090045 
L 131.082294 281.563359 
L 134.062938 281.563359 
L 134.062938 281.036673 
L 134.828688 281.036673 
L 134.911732 279.983301 
L 135.721125 279.983301 
L 135.721125 278.929929 
L 136.034648 278.929929 
L 136.034648 278.403243 
L 136.150782 278.403243 
L 136.150782 277.876557 
L 137.235245 277.876557 
L 137.235245 277.349871 
L 139.058148 277.349871 
L 139.058148 276.823185 
L 139.509467 276.823185 
L 139.509467 276.296499 
L 139.69937 276.296499 
L 139.69937 275.243126 
L 140.103868 275.243126 
L 140.103868 274.71644 
L 140.64889 274.71644 
L 140.64889 274.189754 
L 140.79731 274.189754 
L 140.79731 273.663068 
L 141.830201 273.663068 
L 141.830201 273.136382 
L 142.161336 273.136382 
L 142.161336 272.609696 
L 142.831645 272.609696 
L 142.831645 272.08301 
L 143.853271 272.08301 
L 143.853271 271.556324 
L 143.976867 271.556324 
L 143.976867 270.502952 
L 144.099593 270.502952 
L 144.099593 269.449579 
L 144.294175 269.449579 
L 144.294175 267.869521 
L 146.129168 267.869521 
L 146.129168 267.342835 
L 147.96658 267.342835 
L 147.96658 266.816149 
L 148.392421 266.816149 
L 148.392421 266.289463 
L 149.467659 266.289463 
L 149.467659 265.762777 
L 151.227591 265.762777 
L 151.227591 265.236091 
L 152.375429 265.236091 
L 152.375429 264.709405 
L 152.542024 264.709405 
L 152.542024 264.182719 
L 152.900071 264.182719 
L 152.900071 263.656033 
L 153.047115 263.656033 
L 153.149313 262.60266 
L 154.221969 262.60266 
L 154.221969 262.075974 
L 154.480132 262.075974 
L 154.480132 261.549288 
L 154.68128 261.549288 
L 154.68128 261.022602 
L 156.064855 261.022602 
L 156.064855 260.495916 
L 157.266399 260.495916 
L 157.266399 259.96923 
L 157.98704 259.96923 
L 157.98704 259.442544 
L 158.931675 259.442544 
L 159.015067 258.389172 
L 159.668223 258.389172 
L 159.668223 257.3358 
L 159.867418 257.3358 
L 159.867418 256.809114 
L 160.015335 256.809114 
L 160.015335 256.282427 
L 160.336402 256.282427 
L 160.336402 255.229055 
L 160.651664 255.229055 
L 160.717812 254.175683 
L 160.764907 254.175683 
L 160.764907 253.648997 
L 160.905434 253.648997 
L 160.905434 253.122311 
L 161.017045 253.122311 
L 161.017045 252.595625 
L 161.347658 252.595625 
L 161.347658 252.068939 
L 162.060656 252.068939 
L 162.060656 251.542253 
L 162.712026 251.542253 
L 162.770815 250.488881 
L 162.846111 250.488881 
L 162.846111 249.962195 
L 163.307451 249.962195 
L 163.348054 248.908822 
L 163.557683 248.908822 
L 163.557683 248.382136 
L 163.685444 248.382136 
L 163.685444 247.85545 
L 164.047627 247.85545 
L 164.047627 247.328764 
L 164.478629 247.328764 
L 164.493826 245.748706 
L 164.599841 245.748706 
L 164.599841 245.22202 
L 165.076435 245.22202 
L 165.076435 244.695334 
L 165.244578 244.695334 
L 165.244578 244.168648 
L 165.382267 244.168648 
L 165.483031 243.115275 
L 165.774819 243.115275 
L 165.774819 242.588589 
L 165.887376 242.588589 
L 165.929399 241.008531 
L 165.999212 241.008531 
L 166.054862 239.428473 
L 166.200103 239.428473 
L 166.200103 238.901787 
L 166.735904 238.901787 
L 166.735904 238.375101 
L 167.066705 238.375101 
L 167.171249 237.321729 
L 167.262214 237.321729 
L 167.262214 236.795043 
L 167.436318 236.795043 
L 167.436318 236.268356 
L 167.564173 236.268356 
L 167.665786 234.161612 
L 167.804544 234.161612 
L 167.90477 232.581554 
L 167.917258 232.581554 
L 167.917258 232.054868 
L 168.195896 232.054868 
L 168.244969 230.47481 
L 168.379212 230.47481 
L 168.470152 229.421437 
L 168.512429 229.421437 
L 168.596677 226.261321 
L 168.769907 226.261321 
L 168.858837 224.154577 
L 169.00019 224.154577 
L 169.00019 223.101204 
L 169.175285 223.101204 
L 169.175285 222.047832 
L 169.348639 222.047832 
L 169.348639 221.521146 
L 169.497498 221.521146 
L 169.554414 217.834344 
L 169.707168 217.834344 
L 169.76902 214.674227 
L 169.886494 214.674227 
L 169.947714 212.567483 
L 170.063995 212.567483 
L 170.16305 209.934052 
L 170.332339 209.934052 
L 170.370339 207.300622 
L 170.569832 207.300622 
L 170.671394 204.140506 
L 170.804134 204.140506 
L 170.893823 202.560447 
L 171.03533 202.560447 
L 171.139414 200.980389 
L 171.253194 200.980389 
L 171.330348 198.346959 
L 171.371357 198.346959 
L 171.427588 197.293586 
L 171.488725 197.293586 
L 171.554716 195.713528 
L 171.61036 195.713528 
L 171.63055 194.13347 
L 171.74118 194.13347 
L 171.831177 192.026726 
L 171.960357 192.026726 
L 172.064001 189.393295 
L 172.088588 189.393295 
L 172.137657 188.339923 
L 172.347097 188.339923 
L 172.409924 186.233179 
L 172.510938 186.233179 
L 172.582734 183.073062 
L 172.668501 183.073062 
L 172.668501 182.01969 
L 172.834072 182.01969 
L 172.918615 180.966318 
L 172.97942 180.966318 
L 172.97942 180.439632 
L 173.123567 180.439632 
L 173.234351 177.806202 
L 173.257343 177.806202 
L 173.326137 176.226143 
L 173.38554 176.226143 
L 173.494678 173.592713 
L 173.512801 173.592713 
L 173.598631 172.012655 
L 173.657115 172.012655 
L 173.751176 168.852538 
L 173.889107 168.852538 
L 173.902397 167.27248 
L 174.043535 167.27248 
L 174.074257 164.63905 
L 174.170462 164.63905 
L 174.214017 163.058991 
L 174.287811 163.058991 
L 174.382848 159.898875 
L 174.451642 159.898875 
L 174.541525 158.845503 
L 174.626698 158.845503 
L 174.724137 155.685386 
L 174.7916 155.685386 
L 174.879752 151.998584 
L 174.996598 151.998584 
L 175.025688 148.838467 
L 175.129186 148.838467 
L 175.211544 145.678351 
L 175.350666 145.678351 
L 175.440098 142.518234 
L 175.480598 142.518234 
L 175.573393 137.778059 
L 175.653684 137.778059 
L 175.745565 134.617943 
L 175.785362 134.617943 
L 175.813167 133.564571 
L 175.900264 133.564571 
L 175.927886 132.511199 
L 176.049688 132.511199 
L 176.139511 128.29771 
L 176.190077 128.29771 
L 176.283045 127.244338 
L 176.394725 127.244338 
L 176.505694 122.504163 
L 176.736832 122.504163 
L 176.819447 120.924105 
L 176.920306 120.924105 
L 177.027991 118.290674 
L 177.135015 118.290674 
L 177.23407 117.237302 
L 177.270615 117.237302 
L 177.368906 114.077186 
L 177.43051 114.077186 
L 177.448587 112.497128 
L 177.571019 112.497128 
L 177.63549 110.917069 
L 177.706845 110.917069 
L 177.767269 108.283639 
L 177.823948 108.283639 
L 177.873391 106.703581 
L 177.968351 106.703581 
L 178.041854 104.596836 
L 183.276626 104.596836 
L 183.276626 104.07015 
L 184.940884 104.07015 
L 184.940884 103.543464 
L 185.14428 103.543464 
L 185.14428 103.016778 
L 185.287795 103.016778 
L 185.287795 102.490092 
L 185.569061 102.490092 
L 185.573597 101.43672 
L 185.682113 101.43672 
L 185.682113 100.910034 
L 185.926054 100.910034 
L 186.034614 98.803289 
L 186.11834 98.803289 
L 186.153474 96.696545 
L 186.26935 96.696545 
L 186.26935 96.169859 
L 186.475144 96.169859 
L 186.539631 94.589801 
L 186.633782 94.589801 
L 186.633782 94.063115 
L 186.84589 94.063115 
L 186.898516 92.483056 
L 186.999115 92.483056 
L 186.999115 91.95637 
L 187.126129 91.95637 
L 187.200656 90.902998 
L 187.295423 90.902998 
L 187.381503 87.742882 
L 187.420305 87.742882 
L 187.420305 87.216196 
L 187.544298 87.216196 
L 187.627145 86.162824 
L 187.663393 86.162824 
L 187.769688 85.109451 
L 187.793665 85.109451 
L 187.895201 83.002707 
L 187.920988 83.002707 
L 187.998123 80.895963 
L 188.129844 80.895963 
L 188.202162 78.262532 
L 188.258635 78.262532 
L 188.272238 77.20916 
L 188.440436 77.20916 
L 188.440436 76.682474 
L 188.551674 76.682474 
L 188.633687 75.629102 
L 188.696367 75.629102 
L 188.777705 74.049044 
L 188.856786 74.049044 
L 188.944859 71.415613 
L 188.989661 71.415613 
L 189.019465 70.362241 
L 189.11783 70.362241 
L 189.11783 69.835555 
L 189.254248 69.835555 
L 189.259756 68.782183 
L 189.385963 68.782183 
L 189.462339 66.148752 
L 189.541995 66.148752 
L 189.642853 63.515322 
L 189.694854 63.515322 
L 189.771675 61.935264 
L 190.001889 61.935264 
L 190.105376 59.301833 
L 190.142062 59.301833 
L 190.142062 58.775147 
L 194.061077 58.775147 
L 194.061077 58.248461 
L 194.693461 58.248461 
L 194.693461 57.721775 
L 194.943046 57.721775 
L 194.943046 57.195089 
L 195.123656 57.195089 
L 195.123656 56.668403 
L 195.409829 56.668403 
L 195.519151 55.088345 
L 195.649438 55.088345 
L 195.72816 53.508287 
L 195.771179 53.508287 
L 195.771179 52.9816 
L 195.902113 52.9816 
L 195.989691 51.928228 
L 196.024599 51.928228 
L 196.024599 51.401542 
L 196.172186 51.401542 
L 196.269478 49.294798 
L 196.316084 49.294798 
L 196.372336 48.241426 
L 196.428407 48.241426 
L 196.475805 47.188054 
L 196.571422 47.188054 
L 196.630467 44.554623 
L 196.882462 44.554623 
L 196.920363 43.501251 
L 197.106302 43.501251 
L 197.217154 40.867821 
L 200.772028 40.867821 
L 200.772028 40.341135 
L 201.194711 40.341135 
L 201.290744 39.287762 
L 201.601965 39.287762 
L 201.690388 38.23439 
L 201.759551 38.23439 
L 201.800738 36.654332 
L 202.037902 36.654332 
L 202.085478 35.074274 
L 205.693632 35.074274 
L 205.693632 34.547588 
L 205.916127 34.547588 
L 206.008411 33.494215 
L 206.128842 33.494215 
L 206.128842 32.967529 
L 209.028453 32.967529 
L 209.028453 32.440843 
L 211.654831 32.440843 
L 211.654831 31.914157 
L 218.032346 31.914157 
L 218.032346 31.387471 
L 221.245953 31.387471 
L 221.245953 30.860785 
L 225.175381 30.860785 
L 225.175381 30.334099 
L 338.688 30.334099 
L 338.688 30.334099 
" style="fill:none;stroke:#ff7500;stroke-linecap:square;stroke-width:1.5;"/>
   </g>
   <g id="line2d_46">
    <defs>
     <path d="M 0 -6 
L -1.347084 -1.854102 
L -5.706339 -1.854102 
L -2.179628 0.708204 
L -3.526712 4.854102 
L -0 2.291796 
L 3.526712 4.854102 
L 2.179628 0.708204 
L 5.706339 -1.854102 
L 1.347084 -1.854102 
z
" id="m5b8b2bf63b" style="stroke:#ff7500;stroke-linejoin:bevel;stroke-width:1.5;"/>
    </defs>
    <g>
     <use style="fill-opacity:0;stroke:#ff7500;stroke-linejoin:bevel;stroke-width:1.5;" x="122.44689" xlink:href="#m5b8b2bf63b" y="287.883592"/>
     <use style="fill-opacity:0;stroke:#ff7500;stroke-linejoin:bevel;stroke-width:1.5;" x="167.066705" xlink:href="#m5b8b2bf63b" y="237.848415"/>
     <use style="fill-opacity:0;stroke:#ff7500;stroke-linejoin:bevel;stroke-width:1.5;" x="190.142062" xlink:href="#m5b8b2bf63b" y="59.301833"/>
     <use style="fill-opacity:0;stroke:#ff7500;stroke-linejoin:bevel;stroke-width:1.5;" x="225.175381" xlink:href="#m5b8b2bf63b" y="30.334099"/>
     <use style="fill-opacity:0;stroke:#ff7500;stroke-linejoin:bevel;stroke-width:1.5;" x="225.175381" xlink:href="#m5b8b2bf63b" y="30.334099"/>
     <use style="fill-opacity:0;stroke:#ff7500;stroke-linejoin:bevel;stroke-width:1.5;" x="338.688" xlink:href="#m5b8b2bf63b" y="30.334099"/>
    </g>
   </g>
   <g id="line2d_47">
    <path style="fill:none;stroke:#ff7500;stroke-linecap:square;stroke-width:1.5;"/>
    <g/>
   </g>
   <g id="line2d_48">
    <path clip-path="url(#p44ea5110a1)" d="M 178.066286 104.596836 
" style="fill:none;stroke:#ff7500;stroke-linecap:square;stroke-width:1.5;"/>
    <defs>
     <path d="M -12 12 
L 12 -12 
M -12 -12 
L 12 12 
" id="m999e7b7d63" style="stroke:#ff7500;"/>
    </defs>
    <g clip-path="url(#p44ea5110a1)">
     <use style="fill:#ff7500;stroke:#ff7500;" x="178.066286" xlink:href="#m999e7b7d63" y="104.596836"/>
    </g>
   </g>
   <g id="line2d_49">
    <defs>
     <path d="M 0 1.5 
C 0.397805 1.5 0.77937 1.341951 1.06066 1.06066 
C 1.341951 0.77937 1.5 0.397805 1.5 0 
C 1.5 -0.397805 1.341951 -0.77937 1.06066 -1.06066 
C 0.77937 -1.341951 0.397805 -1.5 0 -1.5 
C -0.397805 -1.5 -0.77937 -1.341951 -1.06066 -1.06066 
C -1.341951 -0.77937 -1.5 -0.397805 -1.5 0 
C -1.5 0.397805 -1.341951 0.77937 -1.06066 1.06066 
C -0.77937 1.341951 -0.397805 1.5 0 1.5 
z
" id="m566a2e04d8" style="stroke:#6495ed;"/>
    </defs>
    <g>
     <use style="fill:#6495ed;stroke:#6495ed;" x="255.517963" xlink:href="#m566a2e04d8" y="193.606784"/>
     <use style="fill:#6495ed;stroke:#6495ed;" x="255.517963" xlink:href="#m566a2e04d8" y="193.606784"/>
    </g>
   </g>
   <g id="line2d_50">
    <path d="M 48.691568 298.944 
L 48.691568 298.417314 
L 57.6 298.417314 
L 57.6 297.890628 
L 67.850577 297.890628 
L 67.850577 297.363942 
L 69.687988 297.363942 
L 69.687988 296.837256 
L 77.884514 296.837256 
L 77.884514 296.31057 
L 81.775977 296.31057 
L 81.775977 295.783884 
L 89.972502 295.783884 
L 89.972502 295.257197 
L 92.026554 295.257197 
L 92.026554 294.730511 
L 92.969447 294.730511 
L 92.969447 294.203825 
L 100.040467 294.203825 
L 100.040467 293.677139 
L 102.060491 293.677139 
L 102.060491 293.150453 
L 103.623262 293.150453 
L 103.623262 292.623767 
L 110.358901 292.623767 
L 110.358901 292.097081 
L 112.431755 292.097081 
L 112.431755 291.570395 
L 113.453595 291.570395 
L 113.453595 291.043709 
L 114.418861 291.043709 
L 114.418861 290.517023 
L 114.816733 290.517023 
L 114.816733 289.990337 
L 116.562116 289.990337 
L 116.562116 289.463651 
L 116.680349 289.463651 
L 116.680349 288.936964 
L 121.931406 288.936964 
L 121.931406 288.410278 
L 122.44689 288.410278 
L 122.44689 287.883592 
L 122.699028 287.883592 
L 122.782271 286.83022 
L 124.062793 286.83022 
L 124.062793 286.303534 
L 124.292765 286.303534 
L 124.292765 285.776848 
L 127.293718 285.776848 
L 127.293718 285.250162 
L 130.874681 285.250162 
L 130.874681 284.723476 
L 131.185181 284.723476 
L 131.185181 284.19679 
L 132.133473 284.19679 
L 132.133473 283.670104 
L 133.667073 283.670104 
L 133.667073 283.143418 
L 135.602085 283.143418 
L 135.681535 282.090045 
L 136.189322 282.090045 
L 136.189322 281.563359 
L 137.271464 281.563359 
L 137.271464 281.036673 
L 137.910857 281.036673 
L 137.910857 280.509987 
L 138.221972 280.509987 
L 138.221972 279.983301 
L 139.572998 279.983301 
L 139.572998 279.456615 
L 140.738093 279.456615 
L 140.738093 278.929929 
L 142.161336 278.929929 
L 142.215919 277.876557 
L 144.342484 277.876557 
L 144.342484 277.349871 
L 145.143889 277.349871 
L 145.143889 276.823185 
L 146.150926 276.823185 
L 146.150926 276.296499 
L 147.550159 276.296499 
L 147.550159 275.769812 
L 149.177602 275.769812 
L 149.177602 275.243126 
L 149.521512 275.243126 
L 149.521512 274.189754 
L 151.162458 274.189754 
L 151.162458 273.663068 
L 152.09934 273.663068 
L 152.09934 273.136382 
L 152.253262 273.136382 
L 152.299175 272.08301 
L 154.317527 272.08301 
L 154.317527 271.556324 
L 155.61575 271.556324 
L 155.641006 270.502952 
L 156.406335 270.502952 
L 156.406335 269.449579 
L 156.646219 269.449579 
L 156.646219 268.922893 
L 158.162642 268.922893 
L 158.162642 268.396207 
L 160.230035 268.396207 
L 160.230035 267.869521 
L 161.591568 267.869521 
L 161.591568 267.342835 
L 162.653039 267.342835 
L 162.653039 266.816149 
L 162.80432 266.816149 
L 162.80432 266.289463 
L 164.202782 266.289463 
L 164.202782 265.762777 
L 165.047026 265.762777 
L 165.047026 265.236091 
L 166.330478 265.236091 
L 166.330478 264.709405 
L 167.481174 264.709405 
L 167.481174 264.182719 
L 168.427772 264.182719 
L 168.427772 263.656033 
L 169.774632 263.656033 
L 169.774632 263.129347 
L 170.277909 263.129347 
L 170.354063 260.495916 
L 171.731152 260.495916 
L 171.731152 259.96923 
L 171.915749 259.96923 
L 171.915749 259.442544 
L 172.191475 259.442544 
L 172.191475 258.915858 
L 172.549266 258.915858 
L 172.649478 255.755741 
L 172.673253 255.755741 
L 172.673253 255.229055 
L 174.065485 255.229055 
L 174.065485 254.702369 
L 174.391462 254.702369 
L 174.498781 253.648997 
L 175.199215 253.648997 
L 175.199215 253.122311 
L 175.415753 253.122311 
L 175.415753 252.595625 
L 175.805227 252.595625 
L 175.805227 252.068939 
L 176.337049 252.068939 
L 176.337049 251.542253 
L 176.642473 251.542253 
L 176.642473 249.962195 
L 177.25966 249.962195 
L 177.296151 248.908822 
L 177.517111 248.908822 
L 177.517111 248.382136 
L 177.83102 248.382136 
L 177.83102 247.85545 
L 187.639236 247.85545 
L 187.655344 245.22202 
L 188.461588 245.22202 
L 188.461588 244.695334 
L 188.879315 244.695334 
L 188.920543 243.641962 
L 189.010157 243.641962 
L 189.060363 242.061903 
L 189.347648 242.061903 
L 189.456895 239.955159 
L 189.480475 239.955159 
L 189.480475 239.428473 
L 189.755625 239.428473 
L 189.773458 238.375101 
L 189.940206 238.375101 
L 190.037038 236.795043 
L 195.599737 236.795043 
L 195.61632 235.214984 
L 196.08428 235.214984 
L 196.08428 234.688298 
L 196.412579 234.688298 
L 196.412579 234.161612 
L 196.69171 234.161612 
L 196.763487 232.054868 
L 197.044151 232.054868 
L 197.147224 231.001496 
L 200.895862 231.001496 
L 200.895862 230.47481 
L 201.037519 230.47481 
L 201.049662 229.421437 
L 201.636305 229.421437 
L 201.703883 228.368065 
L 201.843613 228.368065 
L 201.897059 225.207949 
L 205.176681 225.207949 
L 205.176681 224.681263 
L 206.025266 224.681263 
L 206.086926 223.627891 
L 209.048531 223.627891 
L 209.083908 222.574518 
L 209.181409 222.574518 
L 209.181409 222.047832 
L 211.695952 222.047832 
L 211.805138 220.467774 
L 211.811687 220.467774 
L 211.811687 219.941088 
L 214.132065 219.941088 
L 214.132065 219.414402 
L 216.147072 219.414402 
L 216.236803 216.780971 
L 218.063346 216.780971 
L 218.063346 215.727599 
L 219.665935 215.727599 
L 219.759116 213.620855 
L 221.008865 213.620855 
L 221.008865 213.094169 
L 221.286961 213.094169 
L 221.286961 212.040797 
L 222.433062 212.040797 
L 222.435253 210.987425 
L 223.937414 210.987425 
L 224.033153 208.88068 
L 225.144453 208.88068 
L 225.150784 207.827308 
L 227.382506 207.827308 
L 227.461738 206.24725 
L 228.384487 206.24725 
L 228.396167 204.667192 
L 229.168379 204.667192 
L 229.168379 204.140506 
L 229.343076 204.140506 
L 229.343076 203.613819 
L 230.203348 203.613819 
L 230.203348 202.560447 
L 231.054782 202.560447 
L 231.122992 200.980389 
L 231.875185 200.980389 
L 231.875185 200.453703 
L 232.654605 200.453703 
L 232.654605 199.927017 
L 233.400676 199.927017 
L 233.423448 198.873645 
L 234.169607 198.873645 
L 234.169607 198.346959 
L 234.824406 198.346959 
L 234.824406 197.820273 
L 235.464592 197.820273 
L 235.464592 197.293586 
L 240.516433 197.293586 
L 240.516433 196.7669 
L 241.016781 196.7669 
L 241.016781 196.240214 
L 242.789819 196.240214 
L 242.789819 195.713528 
L 243.64057 195.713528 
L 243.64057 195.186842 
L 245.164914 195.186842 
L 245.164914 194.660156 
L 247.265265 194.660156 
L 247.265265 194.13347 
L 255.517963 194.13347 
L 255.517963 193.606784 
L 338.688 193.606784 
L 338.688 193.606784 
" style="fill:none;stroke:#6495ed;stroke-linecap:square;stroke-width:1.5;"/>
   </g>
   <g id="line2d_51">
    <defs>
     <path d="M -0 6 
L 6 -6 
L -6 -6 
z
" id="m4b9bac9782" style="stroke:#6495ed;stroke-linejoin:miter;stroke-width:1.5;"/>
    </defs>
    <g>
     <use style="fill-opacity:0;stroke:#6495ed;stroke-linejoin:miter;stroke-width:1.5;" x="116.680349" xlink:href="#m4b9bac9782" y="288.936964"/>
     <use style="fill-opacity:0;stroke:#6495ed;stroke-linejoin:miter;stroke-width:1.5;" x="177.83102" xlink:href="#m4b9bac9782" y="247.85545"/>
     <use style="fill-opacity:0;stroke:#6495ed;stroke-linejoin:miter;stroke-width:1.5;" x="235.464592" xlink:href="#m4b9bac9782" y="197.820273"/>
     <use style="fill-opacity:0;stroke:#6495ed;stroke-linejoin:miter;stroke-width:1.5;" x="255.517963" xlink:href="#m4b9bac9782" y="193.606784"/>
     <use style="fill-opacity:0;stroke:#6495ed;stroke-linejoin:miter;stroke-width:1.5;" x="255.517963" xlink:href="#m4b9bac9782" y="193.606784"/>
     <use style="fill-opacity:0;stroke:#6495ed;stroke-linejoin:miter;stroke-width:1.5;" x="338.688" xlink:href="#m4b9bac9782" y="193.606784"/>
    </g>
   </g>
   <g id="line2d_52">
    <path style="fill:none;stroke:#6495ed;stroke-linecap:square;stroke-width:1.5;"/>
    <g/>
   </g>
   <g id="line2d_53">
    <path clip-path="url(#p44ea5110a1)" d="M 178.066286 247.85545 
" style="fill:none;stroke:#6495ed;stroke-linecap:square;stroke-width:1.5;"/>
    <defs>
     <path d="M -12 12 
L 12 -12 
M -12 -12 
L 12 12 
" id="md2895aac26" style="stroke:#6495ed;"/>
    </defs>
    <g clip-path="url(#p44ea5110a1)">
     <use style="fill:#6495ed;stroke:#6495ed;" x="178.066286" xlink:href="#md2895aac26" y="247.85545"/>
    </g>
   </g>
   <g id="line2d_54">
    <defs>
     <path d="M 0 1.5 
C 0.397805 1.5 0.77937 1.341951 1.06066 1.06066 
C 1.341951 0.77937 1.5 0.397805 1.5 0 
C 1.5 -0.397805 1.341951 -0.77937 1.06066 -1.06066 
C 0.77937 -1.341951 0.397805 -1.5 0 -1.5 
C -0.397805 -1.5 -0.77937 -1.341951 -1.06066 -1.06066 
C -1.341951 -0.77937 -1.5 -0.397805 -1.5 0 
C -1.5 0.397805 -1.341951 0.77937 -1.06066 1.06066 
C -0.77937 1.341951 -0.397805 1.5 0 1.5 
z
" id="maa28dabf5f" style="stroke:#ff0000;"/>
    </defs>
    <g>
     <use style="fill:#ff0000;stroke:#ff0000;" x="244.264254" xlink:href="#maa28dabf5f" y="241.008531"/>
     <use style="fill:#ff0000;stroke:#ff0000;" x="244.264254" xlink:href="#maa28dabf5f" y="241.008531"/>
    </g>
   </g>
   <g id="line2d_55">
    <path d="M 48.691568 298.944 
L 48.691568 298.417314 
L 57.6 298.417314 
L 57.6 297.890628 
L 69.687988 297.890628 
L 69.687988 296.837256 
L 83.438118 296.837256 
L 83.438118 296.31057 
L 89.972502 296.31057 
L 89.972502 295.783884 
L 92.969447 295.783884 
L 92.969447 295.257197 
L 93.863965 295.257197 
L 93.863965 294.730511 
L 97.043522 294.730511 
L 97.043522 294.203825 
L 97.755429 294.203825 
L 97.755429 293.677139 
L 98.100772 293.677139 
L 98.100772 293.150453 
L 100.040467 293.150453 
L 100.040467 292.623767 
L 103.372333 292.623767 
L 103.372333 292.097081 
L 103.623262 292.097081 
L 103.623262 291.043709 
L 106.382575 291.043709 
L 106.382575 290.517023 
L 106.593963 290.517023 
L 106.593963 289.990337 
L 108.006005 289.990337 
L 108.006005 289.463651 
L 112.877038 289.463651 
L 112.877038 288.936964 
L 113.311233 288.936964 
L 113.311233 288.410278 
L 114.418861 288.410278 
L 114.418861 287.883592 
L 117.930605 287.883592 
L 117.930605 287.356906 
L 119.301163 287.356906 
L 119.301163 286.83022 
L 120.944859 286.83022 
L 121.036887 285.776848 
L 122.276749 285.776848 
L 122.276749 285.250162 
L 122.44689 285.250162 
L 122.44689 284.723476 
L 125.327602 284.723476 
L 125.327602 284.19679 
L 126.030894 284.19679 
L 126.030894 283.670104 
L 126.97016 283.670104 
L 126.97016 282.616732 
L 127.229484 282.616732 
L 127.229484 282.090045 
L 128.650105 282.090045 
L 128.650105 281.563359 
L 129.46138 281.563359 
L 129.46138 281.036673 
L 129.742212 281.036673 
L 129.742212 280.509987 
L 130.822389 280.509987 
L 130.822389 279.983301 
L 135.917737 279.983301 
L 135.917737 279.456615 
L 136.380754 279.456615 
L 136.380754 278.403243 
L 136.86886 278.403243 
L 136.86886 277.876557 
L 138.01518 277.876557 
L 138.01518 277.349871 
L 139.123342 277.349871 
L 139.123342 276.823185 
L 141.378673 276.823185 
L 141.378673 276.296499 
L 143.040814 276.296499 
L 143.040814 275.769812 
L 143.578237 275.769812 
L 143.578237 274.71644 
L 144.865226 274.71644 
L 144.865226 274.189754 
L 146.08557 274.189754 
L 146.08557 273.663068 
L 146.60169 273.663068 
L 146.60169 272.609696 
L 146.749392 272.609696 
L 146.749392 272.08301 
L 147.185137 272.08301 
L 147.185137 271.556324 
L 147.550159 271.556324 
L 147.550159 271.029638 
L 148.601505 271.029638 
L 148.601505 270.502952 
L 149.232356 270.502952 
L 149.268764 269.449579 
L 150.699587 269.449579 
L 150.699587 268.922893 
L 153.207444 268.922893 
L 153.207444 268.396207 
L 153.665645 268.396207 
L 153.764292 267.342835 
L 155.011454 267.342835 
L 155.011454 266.816149 
L 156.027868 266.816149 
L 156.027868 266.289463 
L 157.220355 266.289463 
L 157.323784 265.236091 
L 157.494815 265.236091 
L 157.494815 264.709405 
L 158.293192 264.709405 
L 158.293192 264.182719 
L 159.658204 264.182719 
L 159.658204 263.656033 
L 161.402155 263.656033 
L 161.402155 263.129347 
L 161.528659 263.129347 
L 161.528659 262.60266 
L 161.8498 262.60266 
L 161.8498 262.075974 
L 163.605703 262.075974 
L 163.605703 261.549288 
L 166.621987 261.549288 
L 166.621987 261.022602 
L 166.795913 261.022602 
L 166.795913 260.495916 
L 170.332339 260.495916 
L 170.332339 259.96923 
L 171.206738 259.96923 
L 171.206738 259.442544 
L 180.723643 259.442544 
L 180.807299 258.389172 
L 181.913047 258.389172 
L 181.913047 257.862486 
L 182.187818 257.862486 
L 182.187818 257.3358 
L 182.676574 257.3358 
L 182.676574 256.282427 
L 182.931748 256.282427 
L 182.931748 255.755741 
L 183.741225 255.755741 
L 183.753815 254.175683 
L 183.866724 254.175683 
L 183.866724 253.648997 
L 184.656387 253.648997 
L 184.656387 253.122311 
L 185.35452 253.122311 
L 185.35452 252.595625 
L 186.712563 252.595625 
L 186.712563 252.068939 
L 187.059614 252.068939 
L 187.059614 251.542253 
L 191.544795 251.542253 
L 191.544795 251.015567 
L 192.611325 251.015567 
L 192.611325 249.962195 
L 193.294548 249.962195 
L 193.294548 249.435508 
L 193.75878 249.435508 
L 193.75878 248.382136 
L 195.007858 248.382136 
L 195.007858 247.85545 
L 198.61152 247.85545 
L 198.61152 247.328764 
L 199.709085 247.328764 
L 199.709085 246.802078 
L 214.863081 246.802078 
L 214.863081 246.275392 
L 216.961008 246.275392 
L 216.961008 245.22202 
L 217.361673 245.22202 
L 217.361673 244.695334 
L 223.198439 244.695334 
L 223.198439 244.168648 
L 223.402537 244.168648 
L 223.479592 243.115275 
L 224.396013 243.115275 
L 224.396013 242.588589 
L 228.12175 242.588589 
L 228.12175 242.061903 
L 228.967823 242.061903 
L 228.967823 241.535217 
L 244.264254 241.535217 
L 244.264254 241.008531 
L 338.688 241.008531 
L 338.688 241.008531 
" style="fill:none;stroke:#ff0000;stroke-linecap:square;stroke-width:1.5;"/>
   </g>
   <g id="line2d_56">
    <defs>
     <path d="M 0 -6 
L -5.196152 -3 
L -5.196152 3 
L -0 6 
L 5.196152 3 
L 5.196152 -3 
z
" id="mc23d387a6f" style="stroke:#ff0000;stroke-linejoin:miter;stroke-width:1.5;"/>
    </defs>
    <g>
     <use style="fill-opacity:0;stroke:#ff0000;stroke-linejoin:miter;stroke-width:1.5;" x="103.623262" xlink:href="#mc23d387a6f" y="292.097081"/>
     <use style="fill-opacity:0;stroke:#ff0000;stroke-linejoin:miter;stroke-width:1.5;" x="159.658204" xlink:href="#mc23d387a6f" y="263.656033"/>
     <use style="fill-opacity:0;stroke:#ff0000;stroke-linejoin:miter;stroke-width:1.5;" x="217.361673" xlink:href="#mc23d387a6f" y="244.695334"/>
     <use style="fill-opacity:0;stroke:#ff0000;stroke-linejoin:miter;stroke-width:1.5;" x="244.264254" xlink:href="#mc23d387a6f" y="241.008531"/>
     <use style="fill-opacity:0;stroke:#ff0000;stroke-linejoin:miter;stroke-width:1.5;" x="244.264254" xlink:href="#mc23d387a6f" y="241.008531"/>
     <use style="fill-opacity:0;stroke:#ff0000;stroke-linejoin:miter;stroke-width:1.5;" x="338.688" xlink:href="#mc23d387a6f" y="241.008531"/>
    </g>
   </g>
   <g id="line2d_57">
    <path style="fill:none;stroke:#ff0000;stroke-linecap:square;stroke-width:1.5;"/>
    <g/>
   </g>
   <g id="line2d_58">
    <path clip-path="url(#p44ea5110a1)" d="M 178.066286 259.442544 
" style="fill:none;stroke:#ff0000;stroke-linecap:square;stroke-width:1.5;"/>
    <defs>
     <path d="M -12 12 
L 12 -12 
M -12 -12 
L 12 12 
" id="m4f4f391f48" style="stroke:#ff0000;"/>
    </defs>
    <g clip-path="url(#p44ea5110a1)">
     <use style="fill:#ff0000;stroke:#ff0000;" x="178.066286" xlink:href="#m4f4f391f48" y="259.442544"/>
    </g>
   </g>
   <g id="line2d_59">
    <path d="M 338.688 277.876557 
L 369.60768 293.571802 
" style="fill:none;stroke:#000080;stroke-linecap:square;stroke-width:1.5;"/>
    <g>
     <use style="fill-opacity:0;stroke:#000080;stroke-width:1.5;" x="338.688" xlink:href="#me99811c995" y="277.876557"/>
     <use style="fill-opacity:0;stroke:#000080;stroke-width:1.5;" x="369.60768" xlink:href="#me99811c995" y="293.571802"/>
    </g>
   </g>
   <g id="line2d_60">
    <path d="M 338.688 251.542253 
L 369.60768 241.998701 
" style="fill:none;stroke:#ff00ff;stroke-linecap:square;stroke-width:1.5;"/>
    <g>
     <use style="fill-opacity:0;stroke:#ff00ff;stroke-linejoin:miter;stroke-width:1.5;" x="338.688" xlink:href="#mfbc82d1ded" y="251.542253"/>
     <use style="fill-opacity:0;stroke:#ff00ff;stroke-linejoin:miter;stroke-width:1.5;" x="369.60768" xlink:href="#mfbc82d1ded" y="241.998701"/>
    </g>
   </g>
   <g id="line2d_61">
    <path d="M 338.688 241.008531 
L 369.60768 190.4256 
" style="fill:none;stroke:#ff0000;stroke-linecap:square;stroke-width:1.5;"/>
    <g>
     <use style="fill-opacity:0;stroke:#ff0000;stroke-linejoin:miter;stroke-width:1.5;" x="338.688" xlink:href="#mc23d387a6f" y="241.008531"/>
     <use style="fill-opacity:0;stroke:#ff0000;stroke-linejoin:miter;stroke-width:1.5;" x="369.60768" xlink:href="#mc23d387a6f" y="190.4256"/>
    </g>
   </g>
   <g id="line2d_62">
    <path d="M 338.688 193.606784 
L 369.60768 138.852499 
" style="fill:none;stroke:#6495ed;stroke-linecap:square;stroke-width:1.5;"/>
    <g>
     <use style="fill-opacity:0;stroke:#6495ed;stroke-linejoin:miter;stroke-width:1.5;" x="338.688" xlink:href="#m4b9bac9782" y="193.606784"/>
     <use style="fill-opacity:0;stroke:#6495ed;stroke-linejoin:miter;stroke-width:1.5;" x="369.60768" xlink:href="#m4b9bac9782" y="138.852499"/>
    </g>
   </g>
   <g id="line2d_63">
    <path d="M 338.688 30.334099 
L 369.60768 87.279398 
" style="fill:none;stroke:#ff7500;stroke-linecap:square;stroke-width:1.5;"/>
    <g>
     <use style="fill-opacity:0;stroke:#ff7500;stroke-linejoin:bevel;stroke-width:1.5;" x="338.688" xlink:href="#m5b8b2bf63b" y="30.334099"/>
     <use style="fill-opacity:0;stroke:#ff7500;stroke-linejoin:bevel;stroke-width:1.5;" x="369.60768" xlink:href="#m5b8b2bf63b" y="87.279398"/>
    </g>
   </g>
   <g id="line2d_64">
    <path d="M 338.688 298.944 
L 338.688 30.334099 
" style="fill:none;stroke:#000000;stroke-linecap:square;stroke-width:1.5;"/>
   </g>
   <g id="patch_3">
    <path d="M 57.6 298.944 
L 57.6 27.648 
" style="fill:none;stroke:#000000;stroke-linecap:square;stroke-linejoin:miter;stroke-width:0.8;"/>
   </g>
   <g id="patch_4">
    <path d="M 338.688 298.944 
L 338.688 27.648 
" style="fill:none;stroke:#000000;stroke-linecap:square;stroke-linejoin:miter;stroke-width:0.8;"/>
   </g>
   <g id="patch_5">
    <path d="M 57.6 298.944 
L 338.688 298.944 
" style="fill:none;stroke:#000000;stroke-linecap:square;stroke-linejoin:miter;stroke-width:0.8;"/>
   </g>
   <g id="patch_6">
    <path d="M 57.6 27.648 
L 338.688 27.648 
" style="fill:none;stroke:#000000;stroke-linecap:square;stroke-linejoin:miter;stroke-width:0.8;"/>
   </g>
   <g id="text_13">
    <!-- ABC -->
    <defs>
     <path d="M 34.1875 63.1875 
L 20.796875 26.90625 
L 47.609375 26.90625 
z
M 28.609375 72.90625 
L 39.796875 72.90625 
L 67.578125 0 
L 57.328125 0 
L 50.6875 18.703125 
L 17.828125 18.703125 
L 11.1875 0 
L 0.78125 0 
z
" id="DejaVuSans-65"/>
     <path d="M 19.671875 34.8125 
L 19.671875 8.109375 
L 35.5 8.109375 
Q 43.453125 8.109375 47.28125 11.40625 
Q 51.125 14.703125 51.125 21.484375 
Q 51.125 28.328125 47.28125 31.5625 
Q 43.453125 34.8125 35.5 34.8125 
z
M 19.671875 64.796875 
L 19.671875 42.828125 
L 34.28125 42.828125 
Q 41.5 42.828125 45.03125 45.53125 
Q 48.578125 48.25 48.578125 53.8125 
Q 48.578125 59.328125 45.03125 62.0625 
Q 41.5 64.796875 34.28125 64.796875 
z
M 9.8125 72.90625 
L 35.015625 72.90625 
Q 46.296875 72.90625 52.390625 68.21875 
Q 58.5 63.53125 58.5 54.890625 
Q 58.5 48.1875 55.375 44.234375 
Q 52.25 40.28125 46.1875 39.3125 
Q 53.46875 37.75 57.5 32.78125 
Q 61.53125 27.828125 61.53125 20.40625 
Q 61.53125 10.640625 54.890625 5.3125 
Q 48.25 0 35.984375 0 
L 9.8125 0 
z
" id="DejaVuSans-66"/>
     <path d="M 64.40625 67.28125 
L 64.40625 56.890625 
Q 59.421875 61.53125 53.78125 63.8125 
Q 48.140625 66.109375 41.796875 66.109375 
Q 29.296875 66.109375 22.65625 58.46875 
Q 16.015625 50.828125 16.015625 36.375 
Q 16.015625 21.96875 22.65625 14.328125 
Q 29.296875 6.6875 41.796875 6.6875 
Q 48.140625 6.6875 53.78125 8.984375 
Q 59.421875 11.28125 64.40625 15.921875 
L 64.40625 5.609375 
Q 59.234375 2.09375 53.4375 0.328125 
Q 47.65625 -1.421875 41.21875 -1.421875 
Q 24.65625 -1.421875 15.125 8.703125 
Q 5.609375 18.84375 5.609375 36.375 
Q 5.609375 53.953125 15.125 64.078125 
Q 24.65625 74.21875 41.21875 74.21875 
Q 47.75 74.21875 53.53125 72.484375 
Q 59.328125 70.75 64.40625 67.28125 
z
" id="DejaVuSans-67"/>
    </defs>
    <g transform="translate(375.22944 298.262739)scale(0.17 -0.17)">
     <use xlink:href="#DejaVuSans-65"/>
     <use x="68.408203" xlink:href="#DejaVuSans-66"/>
     <use x="135.261719" xlink:href="#DejaVuSans-67"/>
    </g>
   </g>
   <g id="text_14">
    <!-- CMA-ES -->
    <defs>
     <path d="M 9.8125 72.90625 
L 24.515625 72.90625 
L 43.109375 23.296875 
L 61.8125 72.90625 
L 76.515625 72.90625 
L 76.515625 0 
L 66.890625 0 
L 66.890625 64.015625 
L 48.09375 14.015625 
L 38.1875 14.015625 
L 19.390625 64.015625 
L 19.390625 0 
L 9.8125 0 
z
" id="DejaVuSans-77"/>
     <path d="M 9.8125 72.90625 
L 55.90625 72.90625 
L 55.90625 64.59375 
L 19.671875 64.59375 
L 19.671875 43.015625 
L 54.390625 43.015625 
L 54.390625 34.71875 
L 19.671875 34.71875 
L 19.671875 8.296875 
L 56.78125 8.296875 
L 56.78125 0 
L 9.8125 0 
z
" id="DejaVuSans-69"/>
     <path d="M 53.515625 70.515625 
L 53.515625 60.890625 
Q 47.90625 63.578125 42.921875 64.890625 
Q 37.9375 66.21875 33.296875 66.21875 
Q 25.25 66.21875 20.875 63.09375 
Q 16.5 59.96875 16.5 54.203125 
Q 16.5 49.359375 19.40625 46.890625 
Q 22.3125 44.4375 30.421875 42.921875 
L 36.375 41.703125 
Q 47.40625 39.59375 52.65625 34.296875 
Q 57.90625 29 57.90625 20.125 
Q 57.90625 9.515625 50.796875 4.046875 
Q 43.703125 -1.421875 29.984375 -1.421875 
Q 24.8125 -1.421875 18.96875 -0.25 
Q 13.140625 0.921875 6.890625 3.21875 
L 6.890625 13.375 
Q 12.890625 10.015625 18.65625 8.296875 
Q 24.421875 6.59375 29.984375 6.59375 
Q 38.421875 6.59375 43.015625 9.90625 
Q 47.609375 13.234375 47.609375 19.390625 
Q 47.609375 24.75 44.3125 27.78125 
Q 41.015625 30.8125 33.5 32.328125 
L 27.484375 33.5 
Q 16.453125 35.6875 11.515625 40.375 
Q 6.59375 45.0625 6.59375 53.421875 
Q 6.59375 63.09375 13.40625 68.65625 
Q 20.21875 74.21875 32.171875 74.21875 
Q 37.3125 74.21875 42.625 73.28125 
Q 47.953125 72.359375 53.515625 70.515625 
z
" id="DejaVuSans-83"/>
    </defs>
    <g transform="translate(375.22944 246.689638)scale(0.17 -0.17)">
     <use xlink:href="#DejaVuSans-67"/>
     <use x="69.824219" xlink:href="#DejaVuSans-77"/>
     <use x="156.103516" xlink:href="#DejaVuSans-65"/>
     <use x="222.261719" xlink:href="#DejaVuSans-45"/>
     <use x="258.345703" xlink:href="#DejaVuSans-69"/>
     <use x="321.529297" xlink:href="#DejaVuSans-83"/>
    </g>
   </g>
   <g id="text_15">
    <!-- PSO -->
    <defs>
     <path d="M 19.671875 64.796875 
L 19.671875 37.40625 
L 32.078125 37.40625 
Q 38.96875 37.40625 42.71875 40.96875 
Q 46.484375 44.53125 46.484375 51.125 
Q 46.484375 57.671875 42.71875 61.234375 
Q 38.96875 64.796875 32.078125 64.796875 
z
M 9.8125 72.90625 
L 32.078125 72.90625 
Q 44.34375 72.90625 50.609375 67.359375 
Q 56.890625 61.8125 56.890625 51.125 
Q 56.890625 40.328125 50.609375 34.8125 
Q 44.34375 29.296875 32.078125 29.296875 
L 19.671875 29.296875 
L 19.671875 0 
L 9.8125 0 
z
" id="DejaVuSans-80"/>
     <path d="M 39.40625 66.21875 
Q 28.65625 66.21875 22.328125 58.203125 
Q 16.015625 50.203125 16.015625 36.375 
Q 16.015625 22.609375 22.328125 14.59375 
Q 28.65625 6.59375 39.40625 6.59375 
Q 50.140625 6.59375 56.421875 14.59375 
Q 62.703125 22.609375 62.703125 36.375 
Q 62.703125 50.203125 56.421875 58.203125 
Q 50.140625 66.21875 39.40625 66.21875 
z
M 39.40625 74.21875 
Q 54.734375 74.21875 63.90625 63.9375 
Q 73.09375 53.65625 73.09375 36.375 
Q 73.09375 19.140625 63.90625 8.859375 
Q 54.734375 -1.421875 39.40625 -1.421875 
Q 24.03125 -1.421875 14.8125 8.828125 
Q 5.609375 19.09375 5.609375 36.375 
Q 5.609375 53.65625 14.8125 63.9375 
Q 24.03125 74.21875 39.40625 74.21875 
z
" id="DejaVuSans-79"/>
    </defs>
    <g transform="translate(375.22944 195.116537)scale(0.17 -0.17)">
     <use xlink:href="#DejaVuSans-80"/>
     <use x="60.302734" xlink:href="#DejaVuSans-83"/>
     <use x="123.779297" xlink:href="#DejaVuSans-79"/>
    </g>
   </g>
   <g id="text_16">
    <!-- DEPSO -->
    <defs>
     <path d="M 19.671875 64.796875 
L 19.671875 8.109375 
L 31.59375 8.109375 
Q 46.6875 8.109375 53.6875 14.9375 
Q 60.6875 21.78125 60.6875 36.53125 
Q 60.6875 51.171875 53.6875 57.984375 
Q 46.6875 64.796875 31.59375 64.796875 
z
M 9.8125 72.90625 
L 30.078125 72.90625 
Q 51.265625 72.90625 61.171875 64.09375 
Q 71.09375 55.28125 71.09375 36.53125 
Q 71.09375 17.671875 61.125 8.828125 
Q 51.171875 0 30.078125 0 
L 9.8125 0 
z
" id="DejaVuSans-68"/>
    </defs>
    <g transform="translate(375.22944 143.543437)scale(0.17 -0.17)">
     <use xlink:href="#DejaVuSans-68"/>
     <use x="77.001953" xlink:href="#DejaVuSans-69"/>
     <use x="140.185547" xlink:href="#DejaVuSans-80"/>
     <use x="200.488281" xlink:href="#DejaVuSans-83"/>
     <use x="263.964844" xlink:href="#DejaVuSans-79"/>
    </g>
   </g>
   <g id="text_17">
    <!-- DE -->
    <g transform="translate(375.22944 91.970336)scale(0.17 -0.17)">
     <use xlink:href="#DejaVuSans-68"/>
     <use x="77.001953" xlink:href="#DejaVuSans-69"/>
    </g>
   </g>
   <g id="text_18">
    <!-- best 2009 -->
    <defs>
     <path d="M 48.6875 27.296875 
Q 48.6875 37.203125 44.609375 42.84375 
Q 40.53125 48.484375 33.40625 48.484375 
Q 26.265625 48.484375 22.1875 42.84375 
Q 18.109375 37.203125 18.109375 27.296875 
Q 18.109375 17.390625 22.1875 11.75 
Q 26.265625 6.109375 33.40625 6.109375 
Q 40.53125 6.109375 44.609375 11.75 
Q 48.6875 17.390625 48.6875 27.296875 
z
M 18.109375 46.390625 
Q 20.953125 51.265625 25.265625 53.625 
Q 29.59375 56 35.59375 56 
Q 45.5625 56 51.78125 48.09375 
Q 58.015625 40.1875 58.015625 27.296875 
Q 58.015625 14.40625 51.78125 6.484375 
Q 45.5625 -1.421875 35.59375 -1.421875 
Q 29.59375 -1.421875 25.265625 0.953125 
Q 20.953125 3.328125 18.109375 8.203125 
L 18.109375 0 
L 9.078125 0 
L 9.078125 75.984375 
L 18.109375 75.984375 
z
" id="DejaVuSans-98"/>
     <path d="M 10.984375 1.515625 
L 10.984375 10.5 
Q 14.703125 8.734375 18.5 7.8125 
Q 22.3125 6.890625 25.984375 6.890625 
Q 35.75 6.890625 40.890625 13.453125 
Q 46.046875 20.015625 46.78125 33.40625 
Q 43.953125 29.203125 39.59375 26.953125 
Q 35.25 24.703125 29.984375 24.703125 
Q 19.046875 24.703125 12.671875 31.3125 
Q 6.296875 37.9375 6.296875 49.421875 
Q 6.296875 60.640625 12.9375 67.421875 
Q 19.578125 74.21875 30.609375 74.21875 
Q 43.265625 74.21875 49.921875 64.515625 
Q 56.59375 54.828125 56.59375 36.375 
Q 56.59375 19.140625 48.40625 8.859375 
Q 40.234375 -1.421875 26.421875 -1.421875 
Q 22.703125 -1.421875 18.890625 -0.6875 
Q 15.09375 0.046875 10.984375 1.515625 
z
M 30.609375 32.421875 
Q 37.25 32.421875 41.125 36.953125 
Q 45.015625 41.5 45.015625 49.421875 
Q 45.015625 57.28125 41.125 61.84375 
Q 37.25 66.40625 30.609375 66.40625 
Q 23.96875 66.40625 20.09375 61.84375 
Q 16.21875 57.28125 16.21875 49.421875 
Q 16.21875 41.5 20.09375 36.953125 
Q 23.96875 32.421875 30.609375 32.421875 
z
" id="DejaVuSans-57"/>
    </defs>
    <g transform="translate(375.22944 40.397235)scale(0.17 -0.17)">
     <use xlink:href="#DejaVuSans-98"/>
     <use x="63.476562" xlink:href="#DejaVuSans-101"/>
     <use x="125" xlink:href="#DejaVuSans-115"/>
     <use x="177.099609" xlink:href="#DejaVuSans-116"/>
     <use x="216.308594" xlink:href="#DejaVuSans-32"/>
     <use x="248.095703" xlink:href="#DejaVuSans-50"/>
     <use x="311.71875" xlink:href="#DejaVuSans-48"/>
     <use x="375.341797" xlink:href="#DejaVuSans-48"/>
     <use x="438.964844" xlink:href="#DejaVuSans-57"/>
    </g>
   </g>
   <g id="text_19">
    <!-- bbob f3, 5-D -->
    <defs>
     <path d="M 40.578125 39.3125 
Q 47.65625 37.796875 51.625 33 
Q 55.609375 28.21875 55.609375 21.1875 
Q 55.609375 10.40625 48.1875 4.484375 
Q 40.765625 -1.421875 27.09375 -1.421875 
Q 22.515625 -1.421875 17.65625 -0.515625 
Q 12.796875 0.390625 7.625 2.203125 
L 7.625 11.71875 
Q 11.71875 9.328125 16.59375 8.109375 
Q 21.484375 6.890625 26.8125 6.890625 
Q 36.078125 6.890625 40.9375 10.546875 
Q 45.796875 14.203125 45.796875 21.1875 
Q 45.796875 27.640625 41.28125 31.265625 
Q 36.765625 34.90625 28.71875 34.90625 
L 20.21875 34.90625 
L 20.21875 43.015625 
L 29.109375 43.015625 
Q 36.375 43.015625 40.234375 45.921875 
Q 44.09375 48.828125 44.09375 54.296875 
Q 44.09375 59.90625 40.109375 62.90625 
Q 36.140625 65.921875 28.71875 65.921875 
Q 24.65625 65.921875 20.015625 65.03125 
Q 15.375 64.15625 9.8125 62.3125 
L 9.8125 71.09375 
Q 15.4375 72.65625 20.34375 73.4375 
Q 25.25 74.21875 29.59375 74.21875 
Q 40.828125 74.21875 47.359375 69.109375 
Q 53.90625 64.015625 53.90625 55.328125 
Q 53.90625 49.265625 50.4375 45.09375 
Q 46.96875 40.921875 40.578125 39.3125 
z
" id="DejaVuSans-51"/>
     <path d="M 10.796875 72.90625 
L 49.515625 72.90625 
L 49.515625 64.59375 
L 19.828125 64.59375 
L 19.828125 46.734375 
Q 21.96875 47.46875 24.109375 47.828125 
Q 26.265625 48.1875 28.421875 48.1875 
Q 40.625 48.1875 47.75 41.5 
Q 54.890625 34.8125 54.890625 23.390625 
Q 54.890625 11.625 47.5625 5.09375 
Q 40.234375 -1.421875 26.90625 -1.421875 
Q 22.3125 -1.421875 17.546875 -0.640625 
Q 12.796875 0.140625 7.71875 1.703125 
L 7.71875 11.625 
Q 12.109375 9.234375 16.796875 8.0625 
Q 21.484375 6.890625 26.703125 6.890625 
Q 35.15625 6.890625 40.078125 11.328125 
Q 45.015625 15.765625 45.015625 23.390625 
Q 45.015625 31 40.078125 35.4375 
Q 35.15625 39.890625 26.703125 39.890625 
Q 22.75 39.890625 18.8125 39.015625 
Q 14.890625 38.140625 10.796875 36.28125 
z
" id="DejaVuSans-53"/>
    </defs>
    <g transform="translate(60.41088 38.111366)scale(0.102 -0.102)">
     <use xlink:href="#DejaVuSans-98"/>
     <use x="63.476562" xlink:href="#DejaVuSans-98"/>
     <use x="126.953125" xlink:href="#DejaVuSans-111"/>
     <use x="188.134766" xlink:href="#DejaVuSans-98"/>
     <use x="251.611328" xlink:href="#DejaVuSans-32"/>
     <use x="283.398438" xlink:href="#DejaVuSans-102"/>
     <use x="318.603516" xlink:href="#DejaVuSans-51"/>
     <use x="382.226562" xlink:href="#DejaVuSans-44"/>
     <use x="414.013672" xlink:href="#DejaVuSans-32"/>
     <use x="445.800781" xlink:href="#DejaVuSans-53"/>
     <use x="509.423828" xlink:href="#DejaVuSans-45"/>
     <use x="545.507812" xlink:href="#DejaVuSans-68"/>
    </g>
    <!-- 51 targets: 100..1e-08 -->
    <defs>
     <path d="M 11.71875 12.40625 
L 22.015625 12.40625 
L 22.015625 0 
L 11.71875 0 
z
M 11.71875 51.703125 
L 22.015625 51.703125 
L 22.015625 39.3125 
L 11.71875 39.3125 
z
" id="DejaVuSans-58"/>
    </defs>
    <g transform="translate(60.41088 49.533135)scale(0.102 -0.102)">
     <use xlink:href="#DejaVuSans-53"/>
     <use x="63.623047" xlink:href="#DejaVuSans-49"/>
     <use x="127.246094" xlink:href="#DejaVuSans-32"/>
     <use x="159.033203" xlink:href="#DejaVuSans-116"/>
     <use x="198.242188" xlink:href="#DejaVuSans-97"/>
     <use x="259.521484" xlink:href="#DejaVuSans-114"/>
     <use x="298.884766" xlink:href="#DejaVuSans-103"/>
     <use x="362.361328" xlink:href="#DejaVuSans-101"/>
     <use x="423.884766" xlink:href="#DejaVuSans-116"/>
     <use x="463.09375" xlink:href="#DejaVuSans-115"/>
     <use x="515.193359" xlink:href="#DejaVuSans-58"/>
     <use x="548.884766" xlink:href="#DejaVuSans-32"/>
     <use x="580.671875" xlink:href="#DejaVuSans-49"/>
     <use x="644.294922" xlink:href="#DejaVuSans-48"/>
     <use x="707.917969" xlink:href="#DejaVuSans-48"/>
     <use x="771.541016" xlink:href="#DejaVuSans-46"/>
     <use x="803.328125" xlink:href="#DejaVuSans-46"/>
     <use x="835.115234" xlink:href="#DejaVuSans-49"/>
     <use x="898.738281" xlink:href="#DejaVuSans-101"/>
     <use x="960.261719" xlink:href="#DejaVuSans-45"/>
     <use x="996.345703" xlink:href="#DejaVuSans-48"/>
     <use x="1059.96875" xlink:href="#DejaVuSans-56"/>
    </g>
    <!-- 24, 15 instances -->
    <g transform="translate(60.41088 60.954904)scale(0.102 -0.102)">
     <use xlink:href="#DejaVuSans-50"/>
     <use x="63.623047" xlink:href="#DejaVuSans-52"/>
     <use x="127.246094" xlink:href="#DejaVuSans-44"/>
     <use x="159.033203" xlink:href="#DejaVuSans-32"/>
     <use x="190.820312" xlink:href="#DejaVuSans-49"/>
     <use x="254.443359" xlink:href="#DejaVuSans-53"/>
     <use x="318.066406" xlink:href="#DejaVuSans-32"/>
     <use x="349.853516" xlink:href="#DejaVuSans-105"/>
     <use x="377.636719" xlink:href="#DejaVuSans-110"/>
     <use x="441.015625" xlink:href="#DejaVuSans-115"/>
     <use x="493.115234" xlink:href="#DejaVuSans-116"/>
     <use x="532.324219" xlink:href="#DejaVuSans-97"/>
     <use x="593.603516" xlink:href="#DejaVuSans-110"/>
     <use x="656.982422" xlink:href="#DejaVuSans-99"/>
     <use x="711.962891" xlink:href="#DejaVuSans-101"/>
     <use x="773.486328" xlink:href="#DejaVuSans-115"/>
    </g>
   </g>
   <g id="text_20">
    <!-- v2.4 -->
    <g style="fill:#808080;" transform="translate(187.233062 294.151352)scale(0.1 -0.1)">
     <use xlink:href="#DejaVuSans-118"/>
     <use x="59.179688" xlink:href="#DejaVuSans-50"/>
     <use x="122.802734" xlink:href="#DejaVuSans-46"/>
     <use x="154.589844" xlink:href="#DejaVuSans-52"/>
    </g>
   </g>
   <g id="text_21">
    <!-- 3 Rastrigin separable -->
    <defs>
     <path d="M 44.390625 34.1875 
Q 47.5625 33.109375 50.5625 29.59375 
Q 53.5625 26.078125 56.59375 19.921875 
L 66.609375 0 
L 56 0 
L 46.6875 18.703125 
Q 43.0625 26.03125 39.671875 28.421875 
Q 36.28125 30.8125 30.421875 30.8125 
L 19.671875 30.8125 
L 19.671875 0 
L 9.8125 0 
L 9.8125 72.90625 
L 32.078125 72.90625 
Q 44.578125 72.90625 50.734375 67.671875 
Q 56.890625 62.453125 56.890625 51.90625 
Q 56.890625 45.015625 53.6875 40.46875 
Q 50.484375 35.9375 44.390625 34.1875 
z
M 19.671875 64.796875 
L 19.671875 38.921875 
L 32.078125 38.921875 
Q 39.203125 38.921875 42.84375 42.21875 
Q 46.484375 45.515625 46.484375 51.90625 
Q 46.484375 58.296875 42.84375 61.546875 
Q 39.203125 64.796875 32.078125 64.796875 
z
" id="DejaVuSans-82"/>
    </defs>
    <g transform="translate(91.733062 21.648)scale(0.2 -0.2)">
     <use xlink:href="#DejaVuSans-51"/>
     <use x="63.623047" xlink:href="#DejaVuSans-32"/>
     <use x="95.410156" xlink:href="#DejaVuSans-82"/>
     <use x="162.642578" xlink:href="#DejaVuSans-97"/>
     <use x="223.921875" xlink:href="#DejaVuSans-115"/>
     <use x="276.021484" xlink:href="#DejaVuSans-116"/>
     <use x="315.230469" xlink:href="#DejaVuSans-114"/>
     <use x="356.34375" xlink:href="#DejaVuSans-105"/>
     <use x="384.126953" xlink:href="#DejaVuSans-103"/>
     <use x="447.603516" xlink:href="#DejaVuSans-105"/>
     <use x="475.386719" xlink:href="#DejaVuSans-110"/>
     <use x="538.765625" xlink:href="#DejaVuSans-32"/>
     <use x="570.552734" xlink:href="#DejaVuSans-115"/>
     <use x="622.652344" xlink:href="#DejaVuSans-101"/>
     <use x="684.175781" xlink:href="#DejaVuSans-112"/>
     <use x="747.652344" xlink:href="#DejaVuSans-97"/>
     <use x="808.931641" xlink:href="#DejaVuSans-114"/>
     <use x="850.044922" xlink:href="#DejaVuSans-97"/>
     <use x="911.324219" xlink:href="#DejaVuSans-98"/>
     <use x="974.800781" xlink:href="#DejaVuSans-108"/>
     <use x="1002.583984" xlink:href="#DejaVuSans-101"/>
    </g>
   </g>
  </g>
 </g>
 <defs>
  <clipPath id="p44ea5110a1">
   <rect height="271.296" width="281.088" x="57.6" y="27.648"/>
  </clipPath>
 </defs>
</svg>
