<?xml version="1.0" encoding="utf-8" standalone="no"?>
<!DOCTYPE svg PUBLIC "-//W3C//DTD SVG 1.1//EN"
  "http://www.w3.org/Graphics/SVG/1.1/DTD/svg11.dtd">
<!-- Created with matplotlib (https://matplotlib.org/) -->
<svg height="345.6pt" version="1.1" viewBox="0 0 460.8 345.6" width="460.8pt" xmlns="http://www.w3.org/2000/svg" xmlns:xlink="http://www.w3.org/1999/xlink">
 <defs>
  <style type="text/css">
*{stroke-linecap:butt;stroke-linejoin:round;}
  </style>
 </defs>
 <g id="figure_1">
  <g id="patch_1">
   <path d="M 0 345.6 
L 460.8 345.6 
L 460.8 0 
L 0 0 
z
" style="fill:#ffffff;"/>
  </g>
  <g id="axes_1">
   <g id="patch_2">
    <path d="M 57.6 298.944 
L 338.688 298.944 
L 338.688 27.648 
L 57.6 27.648 
z
" style="fill:#ffffff;"/>
   </g>
   <g id="line2d_1">
    <path d="M -1 293.677139 
L 81.775977 293.677139 
L 81.775977 288.410278 
L 93.026719 288.410278 
L 93.026719 283.143418 
L 96.86091 283.143418 
L 96.86091 277.876557 
L 109.491096 277.876557 
L 109.491096 272.609696 
L 114.485807 272.609696 
L 114.485807 267.342835 
L 129.78395 267.342835 
L 129.78395 262.075974 
L 132.470242 262.075974 
L 132.470242 256.809114 
L 136.813232 256.809114 
L 136.813232 251.542253 
L 154.185999 251.542253 
L 154.185999 246.275392 
L 166.948338 246.275392 
L 166.948338 241.008531 
L 194.132716 241.008531 
L 194.132716 235.74167 
L 194.149194 235.74167 
L 194.149194 230.47481 
L 194.15266 230.47481 
L 194.15266 225.207949 
L 194.155953 225.207949 
L 194.155953 219.941088 
L 194.168946 219.941088 
L 194.168946 214.674227 
L 194.175351 214.674227 
L 194.175351 209.407366 
L 194.18608 209.407366 
L 194.18608 204.140506 
L 194.194382 204.140506 
L 194.194382 198.873645 
L 194.204581 198.873645 
L 194.204581 193.606784 
L 194.219437 193.606784 
L 194.219437 188.339923 
L 194.226169 188.339923 
L 194.226169 183.073062 
L 194.236694 183.073062 
L 194.236694 177.806202 
L 194.258243 177.806202 
L 194.258243 172.539341 
L 194.265305 172.539341 
L 194.265305 167.27248 
L 194.273569 167.27248 
L 194.273569 162.005619 
L 194.294212 162.005619 
L 194.294212 156.738758 
L 194.300229 156.738758 
L 194.300229 151.471897 
L 194.309679 151.471897 
L 194.309679 146.205037 
L 194.323244 146.205037 
L 194.323244 140.938176 
L 194.333367 140.938176 
L 194.333367 135.671315 
L 194.344343 135.671315 
L 194.344343 130.404454 
L 194.350684 130.404454 
L 194.350684 125.137593 
L 194.365758 125.137593 
L 194.365758 119.870733 
L 194.372948 119.870733 
L 194.372948 114.603872 
L 194.377055 114.603872 
L 194.377055 109.337011 
L 194.390739 109.337011 
L 194.390739 104.07015 
L 194.397064 104.07015 
L 194.397064 98.803289 
L 194.400824 98.803289 
L 194.400824 93.536429 
L 194.409878 93.536429 
L 194.409878 88.269568 
L 194.418586 88.269568 
L 194.418586 83.002707 
L 194.423536 83.002707 
L 194.423536 77.735846 
L 194.43326 77.735846 
L 194.43326 72.468985 
L 194.441616 72.468985 
L 194.441616 67.202125 
L 194.453375 67.202125 
L 194.453375 61.935264 
L 194.460869 61.935264 
L 194.460869 56.668403 
L 194.46785 56.668403 
L 194.46785 51.401542 
L 194.487584 51.401542 
L 194.487584 46.134681 
L 194.492854 46.134681 
L 194.492854 40.867821 
L 194.498123 40.867821 
L 194.498123 35.60096 
L 194.520878 35.60096 
L 194.520878 30.334099 
L 338.688 30.334099 
" style="fill:none;stroke:#f5deb3;stroke-linecap:square;stroke-width:4;"/>
   </g>
   <g id="line2d_2">
    <defs>
     <path d="M -0 7.778175 
L 7.778175 0 
L 0 -7.778175 
L -7.778175 -0 
z
" id="m80edd54eda" style="stroke:#f5deb3;stroke-linejoin:miter;stroke-width:1.5;"/>
    </defs>
    <g>
     <use style="fill:#f5deb3;stroke:#f5deb3;stroke-linejoin:miter;stroke-width:1.5;" x="96.86091" xlink:href="#m80edd54eda" y="283.143418"/>
     <use style="fill:#f5deb3;stroke:#f5deb3;stroke-linejoin:miter;stroke-width:1.5;" x="194.194382" xlink:href="#m80edd54eda" y="198.873645"/>
     <use style="fill:#f5deb3;stroke:#f5deb3;stroke-linejoin:miter;stroke-width:1.5;" x="194.43326" xlink:href="#m80edd54eda" y="72.468985"/>
     <use style="fill:#f5deb3;stroke:#f5deb3;stroke-linejoin:miter;stroke-width:1.5;" x="194.520878" xlink:href="#m80edd54eda" y="35.60096"/>
     <use style="fill:#f5deb3;stroke:#f5deb3;stroke-linejoin:miter;stroke-width:1.5;" x="194.520878" xlink:href="#m80edd54eda" y="30.334099"/>
     <use style="fill:#f5deb3;stroke:#f5deb3;stroke-linejoin:miter;stroke-width:1.5;" x="338.688" xlink:href="#m80edd54eda" y="30.334099"/>
    </g>
   </g>
   <g id="line2d_3">
    <path style="fill:none;stroke:#f5deb3;stroke-linecap:square;stroke-width:4;"/>
    <g/>
   </g>
   <g id="line2d_4">
    <path d="M 338.688 30.334099 
L 369.60768 35.706297 
" style="fill:none;stroke:#f5deb3;stroke-linecap:square;stroke-width:4;"/>
    <g>
     <use style="fill:#f5deb3;stroke:#f5deb3;stroke-linejoin:miter;stroke-width:1.5;" x="338.688" xlink:href="#m80edd54eda" y="30.334099"/>
     <use style="fill:#f5deb3;stroke:#f5deb3;stroke-linejoin:miter;stroke-width:1.5;" x="369.60768" xlink:href="#m80edd54eda" y="35.706297"/>
    </g>
   </g>
   <g id="matplotlib.axis_1">
    <g id="xtick_1">
     <g id="line2d_5">
      <path clip-path="url(#p7b56f4ccce)" d="M 57.6 298.944 
L 57.6 27.648 
" style="fill:none;stroke:#b0b0b0;stroke-linecap:square;stroke-width:0.8;"/>
     </g>
     <g id="line2d_6">
      <defs>
       <path d="M 0 0 
L 0 3.5 
" id="mc676961747" style="stroke:#000000;stroke-width:0.8;"/>
      </defs>
      <g>
       <use style="stroke:#000000;stroke-width:0.8;" x="57.6" xlink:href="#mc676961747" y="298.944"/>
      </g>
     </g>
     <g id="text_1">
      <!-- 0 -->
      <defs>
       <path d="M 31.78125 66.40625 
Q 24.171875 66.40625 20.328125 58.90625 
Q 16.5 51.421875 16.5 36.375 
Q 16.5 21.390625 20.328125 13.890625 
Q 24.171875 6.390625 31.78125 6.390625 
Q 39.453125 6.390625 43.28125 13.890625 
Q 47.125 21.390625 47.125 36.375 
Q 47.125 51.421875 43.28125 58.90625 
Q 39.453125 66.40625 31.78125 66.40625 
z
M 31.78125 74.21875 
Q 44.046875 74.21875 50.515625 64.515625 
Q 56.984375 54.828125 56.984375 36.375 
Q 56.984375 17.96875 50.515625 8.265625 
Q 44.046875 -1.421875 31.78125 -1.421875 
Q 19.53125 -1.421875 13.0625 8.265625 
Q 6.59375 17.96875 6.59375 36.375 
Q 6.59375 54.828125 13.0625 64.515625 
Q 19.53125 74.21875 31.78125 74.21875 
z
" id="DejaVuSans-48"/>
      </defs>
      <g transform="translate(51.2375 321.140875)scale(0.2 -0.2)">
       <use xlink:href="#DejaVuSans-48"/>
      </g>
     </g>
    </g>
    <g id="xtick_2">
     <g id="line2d_7">
      <path clip-path="url(#p7b56f4ccce)" d="M 137.910857 298.944 
L 137.910857 27.648 
" style="fill:none;stroke:#b0b0b0;stroke-linecap:square;stroke-width:0.8;"/>
     </g>
     <g id="line2d_8">
      <g>
       <use style="stroke:#000000;stroke-width:0.8;" x="137.910857" xlink:href="#mc676961747" y="298.944"/>
      </g>
     </g>
     <g id="text_2">
      <!-- 2 -->
      <defs>
       <path d="M 19.1875 8.296875 
L 53.609375 8.296875 
L 53.609375 0 
L 7.328125 0 
L 7.328125 8.296875 
Q 12.9375 14.109375 22.625 23.890625 
Q 32.328125 33.6875 34.8125 36.53125 
Q 39.546875 41.84375 41.421875 45.53125 
Q 43.3125 49.21875 43.3125 52.78125 
Q 43.3125 58.59375 39.234375 62.25 
Q 35.15625 65.921875 28.609375 65.921875 
Q 23.96875 65.921875 18.8125 64.3125 
Q 13.671875 62.703125 7.8125 59.421875 
L 7.8125 69.390625 
Q 13.765625 71.78125 18.9375 73 
Q 24.125 74.21875 28.421875 74.21875 
Q 39.75 74.21875 46.484375 68.546875 
Q 53.21875 62.890625 53.21875 53.421875 
Q 53.21875 48.921875 51.53125 44.890625 
Q 49.859375 40.875 45.40625 35.40625 
Q 44.1875 33.984375 37.640625 27.21875 
Q 31.109375 20.453125 19.1875 8.296875 
z
" id="DejaVuSans-50"/>
      </defs>
      <g transform="translate(131.548357 321.140875)scale(0.2 -0.2)">
       <use xlink:href="#DejaVuSans-50"/>
      </g>
     </g>
    </g>
    <g id="xtick_3">
     <g id="line2d_9">
      <path clip-path="url(#p7b56f4ccce)" d="M 218.221714 298.944 
L 218.221714 27.648 
" style="fill:none;stroke:#b0b0b0;stroke-linecap:square;stroke-width:0.8;"/>
     </g>
     <g id="line2d_10">
      <g>
       <use style="stroke:#000000;stroke-width:0.8;" x="218.221714" xlink:href="#mc676961747" y="298.944"/>
      </g>
     </g>
     <g id="text_3">
      <!-- 4 -->
      <defs>
       <path d="M 37.796875 64.3125 
L 12.890625 25.390625 
L 37.796875 25.390625 
z
M 35.203125 72.90625 
L 47.609375 72.90625 
L 47.609375 25.390625 
L 58.015625 25.390625 
L 58.015625 17.1875 
L 47.609375 17.1875 
L 47.609375 0 
L 37.796875 0 
L 37.796875 17.1875 
L 4.890625 17.1875 
L 4.890625 26.703125 
z
" id="DejaVuSans-52"/>
      </defs>
      <g transform="translate(211.859214 321.140875)scale(0.2 -0.2)">
       <use xlink:href="#DejaVuSans-52"/>
      </g>
     </g>
    </g>
    <g id="xtick_4">
     <g id="line2d_11">
      <path clip-path="url(#p7b56f4ccce)" d="M 298.532571 298.944 
L 298.532571 27.648 
" style="fill:none;stroke:#b0b0b0;stroke-linecap:square;stroke-width:0.8;"/>
     </g>
     <g id="line2d_12">
      <g>
       <use style="stroke:#000000;stroke-width:0.8;" x="298.532571" xlink:href="#mc676961747" y="298.944"/>
      </g>
     </g>
     <g id="text_4">
      <!-- 6 -->
      <defs>
       <path d="M 33.015625 40.375 
Q 26.375 40.375 22.484375 35.828125 
Q 18.609375 31.296875 18.609375 23.390625 
Q 18.609375 15.53125 22.484375 10.953125 
Q 26.375 6.390625 33.015625 6.390625 
Q 39.65625 6.390625 43.53125 10.953125 
Q 47.40625 15.53125 47.40625 23.390625 
Q 47.40625 31.296875 43.53125 35.828125 
Q 39.65625 40.375 33.015625 40.375 
z
M 52.59375 71.296875 
L 52.59375 62.3125 
Q 48.875 64.0625 45.09375 64.984375 
Q 41.3125 65.921875 37.59375 65.921875 
Q 27.828125 65.921875 22.671875 59.328125 
Q 17.53125 52.734375 16.796875 39.40625 
Q 19.671875 43.65625 24.015625 45.921875 
Q 28.375 48.1875 33.59375 48.1875 
Q 44.578125 48.1875 50.953125 41.515625 
Q 57.328125 34.859375 57.328125 23.390625 
Q 57.328125 12.15625 50.6875 5.359375 
Q 44.046875 -1.421875 33.015625 -1.421875 
Q 20.359375 -1.421875 13.671875 8.265625 
Q 6.984375 17.96875 6.984375 36.375 
Q 6.984375 53.65625 15.1875 63.9375 
Q 23.390625 74.21875 37.203125 74.21875 
Q 40.921875 74.21875 44.703125 73.484375 
Q 48.484375 72.75 52.59375 71.296875 
z
" id="DejaVuSans-54"/>
      </defs>
      <g transform="translate(292.170071 321.140875)scale(0.2 -0.2)">
       <use xlink:href="#DejaVuSans-54"/>
      </g>
     </g>
    </g>
    <g id="xtick_5">
     <g id="line2d_13">
      <path clip-path="url(#p7b56f4ccce)" d="M 97.755429 298.944 
L 97.755429 27.648 
" style="fill:none;stroke:#b0b0b0;stroke-linecap:square;stroke-width:0.8;"/>
     </g>
     <g id="line2d_14">
      <defs>
       <path d="M 0 0 
L 0 2 
" id="m95694ee961" style="stroke:#000000;stroke-width:0.6;"/>
      </defs>
      <g>
       <use style="stroke:#000000;stroke-width:0.6;" x="97.755429" xlink:href="#m95694ee961" y="298.944"/>
      </g>
     </g>
    </g>
    <g id="xtick_6">
     <g id="line2d_15">
      <path clip-path="url(#p7b56f4ccce)" d="M 178.066286 298.944 
L 178.066286 27.648 
" style="fill:none;stroke:#b0b0b0;stroke-linecap:square;stroke-width:0.8;"/>
     </g>
     <g id="line2d_16">
      <g>
       <use style="stroke:#000000;stroke-width:0.6;" x="178.066286" xlink:href="#m95694ee961" y="298.944"/>
      </g>
     </g>
    </g>
    <g id="xtick_7">
     <g id="line2d_17">
      <path clip-path="url(#p7b56f4ccce)" d="M 258.377143 298.944 
L 258.377143 27.648 
" style="fill:none;stroke:#b0b0b0;stroke-linecap:square;stroke-width:0.8;"/>
     </g>
     <g id="line2d_18">
      <g>
       <use style="stroke:#000000;stroke-width:0.6;" x="258.377143" xlink:href="#m95694ee961" y="298.944"/>
      </g>
     </g>
    </g>
    <g id="xtick_8">
     <g id="line2d_19">
      <path clip-path="url(#p7b56f4ccce)" d="M 338.688 298.944 
L 338.688 27.648 
" style="fill:none;stroke:#b0b0b0;stroke-linecap:square;stroke-width:0.8;"/>
     </g>
     <g id="line2d_20">
      <g>
       <use style="stroke:#000000;stroke-width:0.6;" x="338.688" xlink:href="#m95694ee961" y="298.944"/>
      </g>
     </g>
    </g>
    <g id="text_5">
     <!-- log10(# f-evals / dimension) -->
     <defs>
      <path d="M 9.421875 75.984375 
L 18.40625 75.984375 
L 18.40625 0 
L 9.421875 0 
z
" id="DejaVuSans-108"/>
      <path d="M 30.609375 48.390625 
Q 23.390625 48.390625 19.1875 42.75 
Q 14.984375 37.109375 14.984375 27.296875 
Q 14.984375 17.484375 19.15625 11.84375 
Q 23.34375 6.203125 30.609375 6.203125 
Q 37.796875 6.203125 41.984375 11.859375 
Q 46.1875 17.53125 46.1875 27.296875 
Q 46.1875 37.015625 41.984375 42.703125 
Q 37.796875 48.390625 30.609375 48.390625 
z
M 30.609375 56 
Q 42.328125 56 49.015625 48.375 
Q 55.71875 40.765625 55.71875 27.296875 
Q 55.71875 13.875 49.015625 6.21875 
Q 42.328125 -1.421875 30.609375 -1.421875 
Q 18.84375 -1.421875 12.171875 6.21875 
Q 5.515625 13.875 5.515625 27.296875 
Q 5.515625 40.765625 12.171875 48.375 
Q 18.84375 56 30.609375 56 
z
" id="DejaVuSans-111"/>
      <path d="M 45.40625 27.984375 
Q 45.40625 37.75 41.375 43.109375 
Q 37.359375 48.484375 30.078125 48.484375 
Q 22.859375 48.484375 18.828125 43.109375 
Q 14.796875 37.75 14.796875 27.984375 
Q 14.796875 18.265625 18.828125 12.890625 
Q 22.859375 7.515625 30.078125 7.515625 
Q 37.359375 7.515625 41.375 12.890625 
Q 45.40625 18.265625 45.40625 27.984375 
z
M 54.390625 6.78125 
Q 54.390625 -7.171875 48.1875 -13.984375 
Q 42 -20.796875 29.203125 -20.796875 
Q 24.46875 -20.796875 20.265625 -20.09375 
Q 16.0625 -19.390625 12.109375 -17.921875 
L 12.109375 -9.1875 
Q 16.0625 -11.328125 19.921875 -12.34375 
Q 23.78125 -13.375 27.78125 -13.375 
Q 36.625 -13.375 41.015625 -8.765625 
Q 45.40625 -4.15625 45.40625 5.171875 
L 45.40625 9.625 
Q 42.625 4.78125 38.28125 2.390625 
Q 33.9375 0 27.875 0 
Q 17.828125 0 11.671875 7.65625 
Q 5.515625 15.328125 5.515625 27.984375 
Q 5.515625 40.671875 11.671875 48.328125 
Q 17.828125 56 27.875 56 
Q 33.9375 56 38.28125 53.609375 
Q 42.625 51.21875 45.40625 46.390625 
L 45.40625 54.6875 
L 54.390625 54.6875 
z
" id="DejaVuSans-103"/>
      <path d="M 12.40625 8.296875 
L 28.515625 8.296875 
L 28.515625 63.921875 
L 10.984375 60.40625 
L 10.984375 69.390625 
L 28.421875 72.90625 
L 38.28125 72.90625 
L 38.28125 8.296875 
L 54.390625 8.296875 
L 54.390625 0 
L 12.40625 0 
z
" id="DejaVuSans-49"/>
      <path d="M 31 75.875 
Q 24.46875 64.65625 21.28125 53.65625 
Q 18.109375 42.671875 18.109375 31.390625 
Q 18.109375 20.125 21.3125 9.0625 
Q 24.515625 -2 31 -13.1875 
L 23.1875 -13.1875 
Q 15.875 -1.703125 12.234375 9.375 
Q 8.59375 20.453125 8.59375 31.390625 
Q 8.59375 42.28125 12.203125 53.3125 
Q 15.828125 64.359375 23.1875 75.875 
z
" id="DejaVuSans-40"/>
      <path d="M 51.125 44 
L 36.921875 44 
L 32.8125 27.6875 
L 47.125 27.6875 
z
M 43.796875 71.78125 
L 38.71875 51.515625 
L 52.984375 51.515625 
L 58.109375 71.78125 
L 65.921875 71.78125 
L 60.890625 51.515625 
L 76.125 51.515625 
L 76.125 44 
L 58.984375 44 
L 54.984375 27.6875 
L 70.515625 27.6875 
L 70.515625 20.21875 
L 53.078125 20.21875 
L 48 0 
L 40.1875 0 
L 45.21875 20.21875 
L 30.90625 20.21875 
L 25.875 0 
L 18.015625 0 
L 23.09375 20.21875 
L 7.71875 20.21875 
L 7.71875 27.6875 
L 24.90625 27.6875 
L 29 44 
L 13.28125 44 
L 13.28125 51.515625 
L 30.90625 51.515625 
L 35.890625 71.78125 
z
" id="DejaVuSans-35"/>
      <path id="DejaVuSans-32"/>
      <path d="M 37.109375 75.984375 
L 37.109375 68.5 
L 28.515625 68.5 
Q 23.6875 68.5 21.796875 66.546875 
Q 19.921875 64.59375 19.921875 59.515625 
L 19.921875 54.6875 
L 34.71875 54.6875 
L 34.71875 47.703125 
L 19.921875 47.703125 
L 19.921875 0 
L 10.890625 0 
L 10.890625 47.703125 
L 2.296875 47.703125 
L 2.296875 54.6875 
L 10.890625 54.6875 
L 10.890625 58.5 
Q 10.890625 67.625 15.140625 71.796875 
Q 19.390625 75.984375 28.609375 75.984375 
z
" id="DejaVuSans-102"/>
      <path d="M 4.890625 31.390625 
L 31.203125 31.390625 
L 31.203125 23.390625 
L 4.890625 23.390625 
z
" id="DejaVuSans-45"/>
      <path d="M 56.203125 29.59375 
L 56.203125 25.203125 
L 14.890625 25.203125 
Q 15.484375 15.921875 20.484375 11.0625 
Q 25.484375 6.203125 34.421875 6.203125 
Q 39.59375 6.203125 44.453125 7.46875 
Q 49.3125 8.734375 54.109375 11.28125 
L 54.109375 2.78125 
Q 49.265625 0.734375 44.1875 -0.34375 
Q 39.109375 -1.421875 33.890625 -1.421875 
Q 20.796875 -1.421875 13.15625 6.1875 
Q 5.515625 13.8125 5.515625 26.8125 
Q 5.515625 40.234375 12.765625 48.109375 
Q 20.015625 56 32.328125 56 
Q 43.359375 56 49.78125 48.890625 
Q 56.203125 41.796875 56.203125 29.59375 
z
M 47.21875 32.234375 
Q 47.125 39.59375 43.09375 43.984375 
Q 39.0625 48.390625 32.421875 48.390625 
Q 24.90625 48.390625 20.390625 44.140625 
Q 15.875 39.890625 15.1875 32.171875 
z
" id="DejaVuSans-101"/>
      <path d="M 2.984375 54.6875 
L 12.5 54.6875 
L 29.59375 8.796875 
L 46.6875 54.6875 
L 56.203125 54.6875 
L 35.6875 0 
L 23.484375 0 
z
" id="DejaVuSans-118"/>
      <path d="M 34.28125 27.484375 
Q 23.390625 27.484375 19.1875 25 
Q 14.984375 22.515625 14.984375 16.5 
Q 14.984375 11.71875 18.140625 8.90625 
Q 21.296875 6.109375 26.703125 6.109375 
Q 34.1875 6.109375 38.703125 11.40625 
Q 43.21875 16.703125 43.21875 25.484375 
L 43.21875 27.484375 
z
M 52.203125 31.203125 
L 52.203125 0 
L 43.21875 0 
L 43.21875 8.296875 
Q 40.140625 3.328125 35.546875 0.953125 
Q 30.953125 -1.421875 24.3125 -1.421875 
Q 15.921875 -1.421875 10.953125 3.296875 
Q 6 8.015625 6 15.921875 
Q 6 25.140625 12.171875 29.828125 
Q 18.359375 34.515625 30.609375 34.515625 
L 43.21875 34.515625 
L 43.21875 35.40625 
Q 43.21875 41.609375 39.140625 45 
Q 35.0625 48.390625 27.6875 48.390625 
Q 23 48.390625 18.546875 47.265625 
Q 14.109375 46.140625 10.015625 43.890625 
L 10.015625 52.203125 
Q 14.9375 54.109375 19.578125 55.046875 
Q 24.21875 56 28.609375 56 
Q 40.484375 56 46.34375 49.84375 
Q 52.203125 43.703125 52.203125 31.203125 
z
" id="DejaVuSans-97"/>
      <path d="M 44.28125 53.078125 
L 44.28125 44.578125 
Q 40.484375 46.53125 36.375 47.5 
Q 32.28125 48.484375 27.875 48.484375 
Q 21.1875 48.484375 17.84375 46.4375 
Q 14.5 44.390625 14.5 40.28125 
Q 14.5 37.15625 16.890625 35.375 
Q 19.28125 33.59375 26.515625 31.984375 
L 29.59375 31.296875 
Q 39.15625 29.25 43.1875 25.515625 
Q 47.21875 21.78125 47.21875 15.09375 
Q 47.21875 7.46875 41.1875 3.015625 
Q 35.15625 -1.421875 24.609375 -1.421875 
Q 20.21875 -1.421875 15.453125 -0.5625 
Q 10.6875 0.296875 5.421875 2 
L 5.421875 11.28125 
Q 10.40625 8.6875 15.234375 7.390625 
Q 20.0625 6.109375 24.8125 6.109375 
Q 31.15625 6.109375 34.5625 8.28125 
Q 37.984375 10.453125 37.984375 14.40625 
Q 37.984375 18.0625 35.515625 20.015625 
Q 33.0625 21.96875 24.703125 23.78125 
L 21.578125 24.515625 
Q 13.234375 26.265625 9.515625 29.90625 
Q 5.8125 33.546875 5.8125 39.890625 
Q 5.8125 47.609375 11.28125 51.796875 
Q 16.75 56 26.8125 56 
Q 31.78125 56 36.171875 55.265625 
Q 40.578125 54.546875 44.28125 53.078125 
z
" id="DejaVuSans-115"/>
      <path d="M 25.390625 72.90625 
L 33.6875 72.90625 
L 8.296875 -9.28125 
L 0 -9.28125 
z
" id="DejaVuSans-47"/>
      <path d="M 45.40625 46.390625 
L 45.40625 75.984375 
L 54.390625 75.984375 
L 54.390625 0 
L 45.40625 0 
L 45.40625 8.203125 
Q 42.578125 3.328125 38.25 0.953125 
Q 33.9375 -1.421875 27.875 -1.421875 
Q 17.96875 -1.421875 11.734375 6.484375 
Q 5.515625 14.40625 5.515625 27.296875 
Q 5.515625 40.1875 11.734375 48.09375 
Q 17.96875 56 27.875 56 
Q 33.9375 56 38.25 53.625 
Q 42.578125 51.265625 45.40625 46.390625 
z
M 14.796875 27.296875 
Q 14.796875 17.390625 18.875 11.75 
Q 22.953125 6.109375 30.078125 6.109375 
Q 37.203125 6.109375 41.296875 11.75 
Q 45.40625 17.390625 45.40625 27.296875 
Q 45.40625 37.203125 41.296875 42.84375 
Q 37.203125 48.484375 30.078125 48.484375 
Q 22.953125 48.484375 18.875 42.84375 
Q 14.796875 37.203125 14.796875 27.296875 
z
" id="DejaVuSans-100"/>
      <path d="M 9.421875 54.6875 
L 18.40625 54.6875 
L 18.40625 0 
L 9.421875 0 
z
M 9.421875 75.984375 
L 18.40625 75.984375 
L 18.40625 64.59375 
L 9.421875 64.59375 
z
" id="DejaVuSans-105"/>
      <path d="M 52 44.1875 
Q 55.375 50.25 60.0625 53.125 
Q 64.75 56 71.09375 56 
Q 79.640625 56 84.28125 50.015625 
Q 88.921875 44.046875 88.921875 33.015625 
L 88.921875 0 
L 79.890625 0 
L 79.890625 32.71875 
Q 79.890625 40.578125 77.09375 44.375 
Q 74.3125 48.1875 68.609375 48.1875 
Q 61.625 48.1875 57.5625 43.546875 
Q 53.515625 38.921875 53.515625 30.90625 
L 53.515625 0 
L 44.484375 0 
L 44.484375 32.71875 
Q 44.484375 40.625 41.703125 44.40625 
Q 38.921875 48.1875 33.109375 48.1875 
Q 26.21875 48.1875 22.15625 43.53125 
Q 18.109375 38.875 18.109375 30.90625 
L 18.109375 0 
L 9.078125 0 
L 9.078125 54.6875 
L 18.109375 54.6875 
L 18.109375 46.1875 
Q 21.1875 51.21875 25.484375 53.609375 
Q 29.78125 56 35.6875 56 
Q 41.65625 56 45.828125 52.96875 
Q 50 49.953125 52 44.1875 
z
" id="DejaVuSans-109"/>
      <path d="M 54.890625 33.015625 
L 54.890625 0 
L 45.90625 0 
L 45.90625 32.71875 
Q 45.90625 40.484375 42.875 44.328125 
Q 39.84375 48.1875 33.796875 48.1875 
Q 26.515625 48.1875 22.3125 43.546875 
Q 18.109375 38.921875 18.109375 30.90625 
L 18.109375 0 
L 9.078125 0 
L 9.078125 54.6875 
L 18.109375 54.6875 
L 18.109375 46.1875 
Q 21.34375 51.125 25.703125 53.5625 
Q 30.078125 56 35.796875 56 
Q 45.21875 56 50.046875 50.171875 
Q 54.890625 44.34375 54.890625 33.015625 
z
" id="DejaVuSans-110"/>
      <path d="M 8.015625 75.875 
L 15.828125 75.875 
Q 23.140625 64.359375 26.78125 53.3125 
Q 30.421875 42.28125 30.421875 31.390625 
Q 30.421875 20.453125 26.78125 9.375 
Q 23.140625 -1.703125 15.828125 -13.1875 
L 8.015625 -13.1875 
Q 14.5 -2 17.703125 9.0625 
Q 20.90625 20.125 20.90625 31.390625 
Q 20.90625 42.671875 17.703125 53.65625 
Q 14.5 64.65625 8.015625 75.875 
z
" id="DejaVuSans-41"/>
     </defs>
     <g transform="translate(77.764078 342.217594)scale(0.17 -0.17)">
      <use xlink:href="#DejaVuSans-108"/>
      <use x="27.783203" xlink:href="#DejaVuSans-111"/>
      <use x="88.964844" xlink:href="#DejaVuSans-103"/>
      <use x="152.441406" xlink:href="#DejaVuSans-49"/>
      <use x="216.064453" xlink:href="#DejaVuSans-48"/>
      <use x="279.6875" xlink:href="#DejaVuSans-40"/>
      <use x="318.701172" xlink:href="#DejaVuSans-35"/>
      <use x="402.490234" xlink:href="#DejaVuSans-32"/>
      <use x="434.277344" xlink:href="#DejaVuSans-102"/>
      <use x="463.982422" xlink:href="#DejaVuSans-45"/>
      <use x="500.066406" xlink:href="#DejaVuSans-101"/>
      <use x="561.589844" xlink:href="#DejaVuSans-118"/>
      <use x="620.769531" xlink:href="#DejaVuSans-97"/>
      <use x="682.048828" xlink:href="#DejaVuSans-108"/>
      <use x="709.832031" xlink:href="#DejaVuSans-115"/>
      <use x="761.931641" xlink:href="#DejaVuSans-32"/>
      <use x="793.71875" xlink:href="#DejaVuSans-47"/>
      <use x="827.410156" xlink:href="#DejaVuSans-32"/>
      <use x="859.197266" xlink:href="#DejaVuSans-100"/>
      <use x="922.673828" xlink:href="#DejaVuSans-105"/>
      <use x="950.457031" xlink:href="#DejaVuSans-109"/>
      <use x="1047.869141" xlink:href="#DejaVuSans-101"/>
      <use x="1109.392578" xlink:href="#DejaVuSans-110"/>
      <use x="1172.771484" xlink:href="#DejaVuSans-115"/>
      <use x="1224.871094" xlink:href="#DejaVuSans-105"/>
      <use x="1252.654297" xlink:href="#DejaVuSans-111"/>
      <use x="1313.835938" xlink:href="#DejaVuSans-110"/>
      <use x="1377.214844" xlink:href="#DejaVuSans-41"/>
     </g>
    </g>
   </g>
   <g id="matplotlib.axis_2">
    <g id="ytick_1">
     <g id="line2d_21">
      <path clip-path="url(#p7b56f4ccce)" d="M 57.6 298.944 
L 338.688 298.944 
" style="fill:none;stroke:#b0b0b0;stroke-linecap:square;stroke-width:0.8;"/>
     </g>
     <g id="line2d_22">
      <defs>
       <path d="M 0 0 
L -3.5 0 
" id="mf65aeee7d4" style="stroke:#000000;stroke-width:0.8;"/>
      </defs>
      <g>
       <use style="stroke:#000000;stroke-width:0.8;" x="57.6" xlink:href="#mf65aeee7d4" y="298.944"/>
      </g>
     </g>
     <g id="text_6">
      <!-- 0.0 -->
      <defs>
       <path d="M 10.6875 12.40625 
L 21 12.40625 
L 21 0 
L 10.6875 0 
z
" id="DejaVuSans-46"/>
      </defs>
      <g transform="translate(25.155 305.02275)scale(0.16 -0.16)">
       <use xlink:href="#DejaVuSans-48"/>
       <use x="63.623047" xlink:href="#DejaVuSans-46"/>
       <use x="95.410156" xlink:href="#DejaVuSans-48"/>
      </g>
     </g>
    </g>
    <g id="ytick_2">
     <g id="line2d_23">
      <path clip-path="url(#p7b56f4ccce)" d="M 57.6 245.22202 
L 338.688 245.22202 
" style="fill:none;stroke:#b0b0b0;stroke-linecap:square;stroke-width:0.8;"/>
     </g>
     <g id="line2d_24">
      <g>
       <use style="stroke:#000000;stroke-width:0.8;" x="57.6" xlink:href="#mf65aeee7d4" y="245.22202"/>
      </g>
     </g>
     <g id="text_7">
      <!-- 0.2 -->
      <g transform="translate(25.155 251.30077)scale(0.16 -0.16)">
       <use xlink:href="#DejaVuSans-48"/>
       <use x="63.623047" xlink:href="#DejaVuSans-46"/>
       <use x="95.410156" xlink:href="#DejaVuSans-50"/>
      </g>
     </g>
    </g>
    <g id="ytick_3">
     <g id="line2d_25">
      <path clip-path="url(#p7b56f4ccce)" d="M 57.6 191.50004 
L 338.688 191.50004 
" style="fill:none;stroke:#b0b0b0;stroke-linecap:square;stroke-width:0.8;"/>
     </g>
     <g id="line2d_26">
      <g>
       <use style="stroke:#000000;stroke-width:0.8;" x="57.6" xlink:href="#mf65aeee7d4" y="191.50004"/>
      </g>
     </g>
     <g id="text_8">
      <!-- 0.4 -->
      <g transform="translate(25.155 197.57879)scale(0.16 -0.16)">
       <use xlink:href="#DejaVuSans-48"/>
       <use x="63.623047" xlink:href="#DejaVuSans-46"/>
       <use x="95.410156" xlink:href="#DejaVuSans-52"/>
      </g>
     </g>
    </g>
    <g id="ytick_4">
     <g id="line2d_27">
      <path clip-path="url(#p7b56f4ccce)" d="M 57.6 137.778059 
L 338.688 137.778059 
" style="fill:none;stroke:#b0b0b0;stroke-linecap:square;stroke-width:0.8;"/>
     </g>
     <g id="line2d_28">
      <g>
       <use style="stroke:#000000;stroke-width:0.8;" x="57.6" xlink:href="#mf65aeee7d4" y="137.778059"/>
      </g>
     </g>
     <g id="text_9">
      <!-- 0.6 -->
      <g transform="translate(25.155 143.856809)scale(0.16 -0.16)">
       <use xlink:href="#DejaVuSans-48"/>
       <use x="63.623047" xlink:href="#DejaVuSans-46"/>
       <use x="95.410156" xlink:href="#DejaVuSans-54"/>
      </g>
     </g>
    </g>
    <g id="ytick_5">
     <g id="line2d_29">
      <path clip-path="url(#p7b56f4ccce)" d="M 57.6 84.056079 
L 338.688 84.056079 
" style="fill:none;stroke:#b0b0b0;stroke-linecap:square;stroke-width:0.8;"/>
     </g>
     <g id="line2d_30">
      <g>
       <use style="stroke:#000000;stroke-width:0.8;" x="57.6" xlink:href="#mf65aeee7d4" y="84.056079"/>
      </g>
     </g>
     <g id="text_10">
      <!-- 0.8 -->
      <defs>
       <path d="M 31.78125 34.625 
Q 24.75 34.625 20.71875 30.859375 
Q 16.703125 27.09375 16.703125 20.515625 
Q 16.703125 13.921875 20.71875 10.15625 
Q 24.75 6.390625 31.78125 6.390625 
Q 38.8125 6.390625 42.859375 10.171875 
Q 46.921875 13.96875 46.921875 20.515625 
Q 46.921875 27.09375 42.890625 30.859375 
Q 38.875 34.625 31.78125 34.625 
z
M 21.921875 38.8125 
Q 15.578125 40.375 12.03125 44.71875 
Q 8.5 49.078125 8.5 55.328125 
Q 8.5 64.0625 14.71875 69.140625 
Q 20.953125 74.21875 31.78125 74.21875 
Q 42.671875 74.21875 48.875 69.140625 
Q 55.078125 64.0625 55.078125 55.328125 
Q 55.078125 49.078125 51.53125 44.71875 
Q 48 40.375 41.703125 38.8125 
Q 48.828125 37.15625 52.796875 32.3125 
Q 56.78125 27.484375 56.78125 20.515625 
Q 56.78125 9.90625 50.3125 4.234375 
Q 43.84375 -1.421875 31.78125 -1.421875 
Q 19.734375 -1.421875 13.25 4.234375 
Q 6.78125 9.90625 6.78125 20.515625 
Q 6.78125 27.484375 10.78125 32.3125 
Q 14.796875 37.15625 21.921875 38.8125 
z
M 18.3125 54.390625 
Q 18.3125 48.734375 21.84375 45.5625 
Q 25.390625 42.390625 31.78125 42.390625 
Q 38.140625 42.390625 41.71875 45.5625 
Q 45.3125 48.734375 45.3125 54.390625 
Q 45.3125 60.0625 41.71875 63.234375 
Q 38.140625 66.40625 31.78125 66.40625 
Q 25.390625 66.40625 21.84375 63.234375 
Q 18.3125 60.0625 18.3125 54.390625 
z
" id="DejaVuSans-56"/>
      </defs>
      <g transform="translate(25.155 90.134829)scale(0.16 -0.16)">
       <use xlink:href="#DejaVuSans-48"/>
       <use x="63.623047" xlink:href="#DejaVuSans-46"/>
       <use x="95.410156" xlink:href="#DejaVuSans-56"/>
      </g>
     </g>
    </g>
    <g id="ytick_6">
     <g id="line2d_31">
      <path clip-path="url(#p7b56f4ccce)" d="M 57.6 30.334099 
L 338.688 30.334099 
" style="fill:none;stroke:#b0b0b0;stroke-linecap:square;stroke-width:0.8;"/>
     </g>
     <g id="line2d_32">
      <g>
       <use style="stroke:#000000;stroke-width:0.8;" x="57.6" xlink:href="#mf65aeee7d4" y="30.334099"/>
      </g>
     </g>
     <g id="text_11">
      <!-- 1.0 -->
      <g transform="translate(25.155 36.412849)scale(0.16 -0.16)">
       <use xlink:href="#DejaVuSans-49"/>
       <use x="63.623047" xlink:href="#DejaVuSans-46"/>
       <use x="95.410156" xlink:href="#DejaVuSans-48"/>
      </g>
     </g>
    </g>
    <g id="text_12">
     <!-- Fraction of function,target pairs -->
     <defs>
      <path d="M 9.8125 72.90625 
L 51.703125 72.90625 
L 51.703125 64.59375 
L 19.671875 64.59375 
L 19.671875 43.109375 
L 48.578125 43.109375 
L 48.578125 34.8125 
L 19.671875 34.8125 
L 19.671875 0 
L 9.8125 0 
z
" id="DejaVuSans-70"/>
      <path d="M 41.109375 46.296875 
Q 39.59375 47.171875 37.8125 47.578125 
Q 36.03125 48 33.890625 48 
Q 26.265625 48 22.1875 43.046875 
Q 18.109375 38.09375 18.109375 28.8125 
L 18.109375 0 
L 9.078125 0 
L 9.078125 54.6875 
L 18.109375 54.6875 
L 18.109375 46.1875 
Q 20.953125 51.171875 25.484375 53.578125 
Q 30.03125 56 36.53125 56 
Q 37.453125 56 38.578125 55.875 
Q 39.703125 55.765625 41.0625 55.515625 
z
" id="DejaVuSans-114"/>
      <path d="M 48.78125 52.59375 
L 48.78125 44.1875 
Q 44.96875 46.296875 41.140625 47.34375 
Q 37.3125 48.390625 33.40625 48.390625 
Q 24.65625 48.390625 19.8125 42.84375 
Q 14.984375 37.3125 14.984375 27.296875 
Q 14.984375 17.28125 19.8125 11.734375 
Q 24.65625 6.203125 33.40625 6.203125 
Q 37.3125 6.203125 41.140625 7.25 
Q 44.96875 8.296875 48.78125 10.40625 
L 48.78125 2.09375 
Q 45.015625 0.34375 40.984375 -0.53125 
Q 36.96875 -1.421875 32.421875 -1.421875 
Q 20.0625 -1.421875 12.78125 6.34375 
Q 5.515625 14.109375 5.515625 27.296875 
Q 5.515625 40.671875 12.859375 48.328125 
Q 20.21875 56 33.015625 56 
Q 37.15625 56 41.109375 55.140625 
Q 45.0625 54.296875 48.78125 52.59375 
z
" id="DejaVuSans-99"/>
      <path d="M 18.3125 70.21875 
L 18.3125 54.6875 
L 36.8125 54.6875 
L 36.8125 47.703125 
L 18.3125 47.703125 
L 18.3125 18.015625 
Q 18.3125 11.328125 20.140625 9.421875 
Q 21.96875 7.515625 27.59375 7.515625 
L 36.8125 7.515625 
L 36.8125 0 
L 27.59375 0 
Q 17.1875 0 13.234375 3.875 
Q 9.28125 7.765625 9.28125 18.015625 
L 9.28125 47.703125 
L 2.6875 47.703125 
L 2.6875 54.6875 
L 9.28125 54.6875 
L 9.28125 70.21875 
z
" id="DejaVuSans-116"/>
      <path d="M 8.5 21.578125 
L 8.5 54.6875 
L 17.484375 54.6875 
L 17.484375 21.921875 
Q 17.484375 14.15625 20.5 10.265625 
Q 23.53125 6.390625 29.59375 6.390625 
Q 36.859375 6.390625 41.078125 11.03125 
Q 45.3125 15.671875 45.3125 23.6875 
L 45.3125 54.6875 
L 54.296875 54.6875 
L 54.296875 0 
L 45.3125 0 
L 45.3125 8.40625 
Q 42.046875 3.421875 37.71875 1 
Q 33.40625 -1.421875 27.6875 -1.421875 
Q 18.265625 -1.421875 13.375 4.4375 
Q 8.5 10.296875 8.5 21.578125 
z
M 31.109375 56 
z
" id="DejaVuSans-117"/>
      <path d="M 11.71875 12.40625 
L 22.015625 12.40625 
L 22.015625 4 
L 14.015625 -11.625 
L 7.71875 -11.625 
L 11.71875 4 
z
" id="DejaVuSans-44"/>
      <path d="M 18.109375 8.203125 
L 18.109375 -20.796875 
L 9.078125 -20.796875 
L 9.078125 54.6875 
L 18.109375 54.6875 
L 18.109375 46.390625 
Q 20.953125 51.265625 25.265625 53.625 
Q 29.59375 56 35.59375 56 
Q 45.5625 56 51.78125 48.09375 
Q 58.015625 40.1875 58.015625 27.296875 
Q 58.015625 14.40625 51.78125 6.484375 
Q 45.5625 -1.421875 35.59375 -1.421875 
Q 29.59375 -1.421875 25.265625 0.953125 
Q 20.953125 3.328125 18.109375 8.203125 
z
M 48.6875 27.296875 
Q 48.6875 37.203125 44.609375 42.84375 
Q 40.53125 48.484375 33.40625 48.484375 
Q 26.265625 48.484375 22.1875 42.84375 
Q 18.109375 37.203125 18.109375 27.296875 
Q 18.109375 17.390625 22.1875 11.75 
Q 26.265625 6.109375 33.40625 6.109375 
Q 40.53125 6.109375 44.609375 11.75 
Q 48.6875 17.390625 48.6875 27.296875 
z
" id="DejaVuSans-112"/>
     </defs>
     <g transform="translate(17.619531 297.681)rotate(-90)scale(0.17 -0.17)">
      <use xlink:href="#DejaVuSans-70"/>
      <use x="50.269531" xlink:href="#DejaVuSans-114"/>
      <use x="91.382812" xlink:href="#DejaVuSans-97"/>
      <use x="152.662109" xlink:href="#DejaVuSans-99"/>
      <use x="207.642578" xlink:href="#DejaVuSans-116"/>
      <use x="246.851562" xlink:href="#DejaVuSans-105"/>
      <use x="274.634766" xlink:href="#DejaVuSans-111"/>
      <use x="335.816406" xlink:href="#DejaVuSans-110"/>
      <use x="399.195312" xlink:href="#DejaVuSans-32"/>
      <use x="430.982422" xlink:href="#DejaVuSans-111"/>
      <use x="492.164062" xlink:href="#DejaVuSans-102"/>
      <use x="527.369141" xlink:href="#DejaVuSans-32"/>
      <use x="559.15625" xlink:href="#DejaVuSans-102"/>
      <use x="594.361328" xlink:href="#DejaVuSans-117"/>
      <use x="657.740234" xlink:href="#DejaVuSans-110"/>
      <use x="721.119141" xlink:href="#DejaVuSans-99"/>
      <use x="776.099609" xlink:href="#DejaVuSans-116"/>
      <use x="815.308594" xlink:href="#DejaVuSans-105"/>
      <use x="843.091797" xlink:href="#DejaVuSans-111"/>
      <use x="904.273438" xlink:href="#DejaVuSans-110"/>
      <use x="967.652344" xlink:href="#DejaVuSans-44"/>
      <use x="999.439453" xlink:href="#DejaVuSans-116"/>
      <use x="1038.648438" xlink:href="#DejaVuSans-97"/>
      <use x="1099.927734" xlink:href="#DejaVuSans-114"/>
      <use x="1139.291016" xlink:href="#DejaVuSans-103"/>
      <use x="1202.767578" xlink:href="#DejaVuSans-101"/>
      <use x="1264.291016" xlink:href="#DejaVuSans-116"/>
      <use x="1303.5" xlink:href="#DejaVuSans-32"/>
      <use x="1335.287109" xlink:href="#DejaVuSans-112"/>
      <use x="1398.763672" xlink:href="#DejaVuSans-97"/>
      <use x="1460.042969" xlink:href="#DejaVuSans-105"/>
      <use x="1487.826172" xlink:href="#DejaVuSans-114"/>
      <use x="1528.939453" xlink:href="#DejaVuSans-115"/>
     </g>
    </g>
   </g>
   <g id="line2d_33">
    <defs>
     <path d="M 0 1.5 
C 0.397805 1.5 0.77937 1.341951 1.06066 1.06066 
C 1.341951 0.77937 1.5 0.397805 1.5 0 
C 1.5 -0.397805 1.341951 -0.77937 1.06066 -1.06066 
C 0.77937 -1.341951 0.397805 -1.5 0 -1.5 
C -0.397805 -1.5 -0.77937 -1.341951 -1.06066 -1.06066 
C -1.341951 -0.77937 -1.5 -0.397805 -1.5 0 
C -1.5 0.397805 -1.341951 0.77937 -1.06066 1.06066 
C -0.77937 1.341951 -0.397805 1.5 0 1.5 
z
" id="m6fc6a75343" style="stroke:#f5deb3;"/>
    </defs>
    <g>
     <use style="fill:#f5deb3;stroke:#f5deb3;" x="194.520878" xlink:href="#m6fc6a75343" y="30.334099"/>
     <use style="fill:#f5deb3;stroke:#f5deb3;" x="194.520878" xlink:href="#m6fc6a75343" y="30.334099"/>
    </g>
   </g>
   <g id="line2d_34">
    <defs>
     <path d="M 0 1.5 
C 0.397805 1.5 0.77937 1.341951 1.06066 1.06066 
C 1.341951 0.77937 1.5 0.397805 1.5 0 
C 1.5 -0.397805 1.341951 -0.77937 1.06066 -1.06066 
C 0.77937 -1.341951 0.397805 -1.5 0 -1.5 
C -0.397805 -1.5 -0.77937 -1.341951 -1.06066 -1.06066 
C -1.341951 -0.77937 -1.5 -0.397805 -1.5 0 
C -1.5 0.397805 -1.341951 0.77937 -1.06066 1.06066 
C -0.77937 1.341951 -0.397805 1.5 0 1.5 
z
" id="mc0f07738df" style="stroke:#000080;"/>
    </defs>
    <g/>
   </g>
   <g id="line2d_35">
    <path d="M -1 293.677139 
L 338.688 293.677139 
" style="fill:none;stroke:#000080;stroke-linecap:square;stroke-width:1.5;"/>
   </g>
   <g id="line2d_36">
    <defs>
     <path d="M 0 6 
C 1.591219 6 3.117479 5.367802 4.242641 4.242641 
C 5.367802 3.117479 6 1.591219 6 0 
C 6 -1.591219 5.367802 -3.117479 4.242641 -4.242641 
C 3.117479 -5.367802 1.591219 -6 0 -6 
C -1.591219 -6 -3.117479 -5.367802 -4.242641 -4.242641 
C -5.367802 -3.117479 -6 -1.591219 -6 0 
C -6 1.591219 -5.367802 3.117479 -4.242641 4.242641 
C -3.117479 5.367802 -1.591219 6 0 6 
z
" id="m72e82b8db2" style="stroke:#000080;stroke-width:1.5;"/>
    </defs>
    <g>
     <use style="fill-opacity:0;stroke:#000080;stroke-width:1.5;" x="338.688" xlink:href="#m72e82b8db2" y="293.677139"/>
    </g>
   </g>
   <g id="line2d_37">
    <path style="fill:none;stroke:#000080;stroke-linecap:square;stroke-width:1.5;"/>
    <g/>
   </g>
   <g id="line2d_38">
    <path clip-path="url(#p7b56f4ccce)" d="M 141.80232 293.677139 
" style="fill:none;stroke:#000080;stroke-linecap:square;stroke-width:1.5;"/>
    <defs>
     <path d="M -12 12 
L 12 -12 
M -12 -12 
L 12 12 
" id="m3d0c26d570" style="stroke:#000080;"/>
    </defs>
    <g clip-path="url(#p7b56f4ccce)">
     <use style="fill:#000080;stroke:#000080;" x="141.80232" xlink:href="#m3d0c26d570" y="293.677139"/>
    </g>
   </g>
   <g id="line2d_39">
    <defs>
     <path d="M 0 1.5 
C 0.397805 1.5 0.77937 1.341951 1.06066 1.06066 
C 1.341951 0.77937 1.5 0.397805 1.5 0 
C 1.5 -0.397805 1.341951 -0.77937 1.06066 -1.06066 
C 0.77937 -1.341951 0.397805 -1.5 0 -1.5 
C -0.397805 -1.5 -0.77937 -1.341951 -1.06066 -1.06066 
C -1.341951 -0.77937 -1.5 -0.397805 -1.5 0 
C -1.5 0.397805 -1.341951 0.77937 -1.06066 1.06066 
C -0.77937 1.341951 -0.397805 1.5 0 1.5 
z
" id="md0c5a91ef3" style="stroke:#ff00ff;"/>
    </defs>
    <g>
     <use style="fill:#ff00ff;stroke:#ff00ff;" x="195.177019" xlink:href="#md0c5a91ef3" y="30.334099"/>
     <use style="fill:#ff00ff;stroke:#ff00ff;" x="195.177019" xlink:href="#md0c5a91ef3" y="30.334099"/>
    </g>
   </g>
   <g id="line2d_40">
    <path d="M -1 293.677139 
L 74.921597 293.677139 
L 74.921597 293.150453 
L 82.833227 293.150453 
L 82.833227 292.623767 
L 83.830028 292.623767 
L 83.926645 291.570395 
L 85.927087 291.570395 
L 85.927087 291.043709 
L 87.090136 291.043709 
L 87.090136 290.517023 
L 87.875822 290.517023 
L 87.952479 289.463651 
L 88.0288 289.463651 
L 88.0288 288.936964 
L 89.348366 288.936964 
L 89.348366 288.410278 
L 90.108217 288.410278 
L 90.108217 287.883592 
L 91.029752 287.883592 
L 91.029752 287.356906 
L 91.157513 287.356906 
L 91.157513 286.83022 
L 91.905025 286.83022 
L 91.905025 286.303534 
L 94.347675 286.303534 
L 94.347675 285.776848 
L 94.662851 285.776848 
L 94.662851 285.250162 
L 95.326798 285.250162 
L 95.326798 284.723476 
L 95.476493 284.723476 
L 95.476493 284.19679 
L 95.624913 284.19679 
L 95.624913 283.670104 
L 95.820862 283.670104 
L 95.820862 283.143418 
L 95.966392 283.143418 
L 96.062742 282.090045 
L 96.253859 282.090045 
L 96.253859 281.563359 
L 98.057976 281.563359 
L 98.057976 280.509987 
L 98.270913 280.509987 
L 98.270913 279.983301 
L 100.381311 279.983301 
L 100.381311 279.456615 
L 100.493461 279.456615 
L 100.530685 278.403243 
L 101.043642 278.403243 
L 101.043642 277.876557 
L 102.924327 277.876557 
L 102.924327 277.349871 
L 104.053884 277.349871 
L 104.053884 276.823185 
L 104.265272 276.823185 
L 104.265272 276.296499 
L 105.566235 276.296499 
L 105.566235 275.769812 
L 106.462146 275.769812 
L 106.462146 275.243126 
L 106.646412 275.243126 
L 106.724791 273.663068 
L 106.906317 273.663068 
L 106.932096 272.609696 
L 107.364602 272.609696 
L 107.364602 271.556324 
L 108.554381 271.556324 
L 108.577836 270.502952 
L 109.71213 270.502952 
L 109.756002 269.449579 
L 110.081574 269.449579 
L 110.188761 267.869521 
L 110.401178 267.869521 
L 110.401178 267.342835 
L 110.590167 267.342835 
L 110.590167 266.816149 
L 111.124904 266.816149 
L 111.145147 265.762777 
L 111.24601 265.762777 
L 111.24601 265.236091 
L 111.800314 265.236091 
L 111.800314 264.709405 
L 111.936179 264.709405 
L 111.955503 263.656033 
L 112.166658 263.656033 
L 112.166658 263.129347 
L 112.67436 263.129347 
L 112.67436 262.60266 
L 113.293356 262.60266 
L 113.293356 262.075974 
L 114.216469 262.075974 
L 114.216469 261.549288 
L 114.783921 261.549288 
L 114.783921 261.022602 
L 115.711251 261.022602 
L 115.711251 260.495916 
L 116.202531 260.495916 
L 116.262979 259.442544 
L 116.914437 259.442544 
L 116.928964 257.862486 
L 117.059162 257.862486 
L 117.102347 256.282427 
L 117.668147 256.282427 
L 117.723731 255.229055 
L 118.026313 255.229055 
L 118.026313 254.702369 
L 118.256582 254.702369 
L 118.256582 254.175683 
L 118.37727 254.175683 
L 118.37727 253.648997 
L 119.46515 253.648997 
L 119.46515 253.122311 
L 119.984656 253.122311 
L 119.984656 252.595625 
L 120.262724 252.595625 
L 120.262724 252.068939 
L 120.382253 252.068939 
L 120.382253 251.015567 
L 120.500969 251.015567 
L 120.512796 249.962195 
L 120.642369 249.962195 
L 120.642369 249.435508 
L 121.219499 249.435508 
L 121.219499 248.908822 
L 122.05089 248.908822 
L 122.11572 247.85545 
L 122.255364 247.85545 
L 122.31944 246.802078 
L 122.792648 246.802078 
L 122.792648 246.275392 
L 123.212892 246.275392 
L 123.212892 245.748706 
L 123.898042 245.748706 
L 123.898042 245.22202 
L 124.216444 245.22202 
L 124.216444 244.695334 
L 124.566661 244.695334 
L 124.566661 244.168648 
L 124.817858 244.168648 
L 124.817858 243.641962 
L 125.110962 243.641962 
L 125.110962 243.115275 
L 125.327602 243.115275 
L 125.327602 242.061903 
L 126.056724 242.061903 
L 126.056724 241.535217 
L 126.329885 241.535217 
L 126.329885 241.008531 
L 126.72349 241.008531 
L 126.72349 240.481845 
L 126.921104 240.481845 
L 126.921104 239.955159 
L 127.075976 239.955159 
L 127.075976 239.428473 
L 127.634975 239.428473 
L 127.634975 238.901787 
L 128.267797 238.901787 
L 128.267797 238.375101 
L 129.03872 238.375101 
L 129.03872 237.848415 
L 129.333516 237.848415 
L 129.333516 237.321729 
L 130.175551 237.321729 
L 130.175551 236.795043 
L 130.900768 236.795043 
L 130.900768 236.268356 
L 131.665771 236.268356 
L 131.665771 235.74167 
L 132.326708 235.74167 
L 132.386657 234.688298 
L 132.847322 234.688298 
L 132.847322 234.161612 
L 133.02708 234.161612 
L 133.136345 233.10824 
L 133.318838 233.10824 
L 133.318838 232.581554 
L 133.46572 232.581554 
L 133.46572 232.054868 
L 133.661511 232.054868 
L 133.661511 231.528182 
L 134.057501 231.528182 
L 134.138879 230.47481 
L 134.37542 230.47481 
L 134.37542 229.948123 
L 134.503103 229.948123 
L 134.503103 229.421437 
L 134.640379 229.421437 
L 134.640379 228.894751 
L 134.891008 228.894751 
L 134.94794 227.841379 
L 135.336291 227.841379 
L 135.336291 227.314693 
L 135.651784 227.314693 
L 135.735948 226.261321 
L 135.854081 226.261321 
L 135.854081 225.734635 
L 136.20856 225.734635 
L 136.299652 224.154577 
L 136.565398 224.154577 
L 136.664018 221.521146 
L 136.956576 221.521146 
L 137.025515 219.941088 
L 137.271464 219.941088 
L 137.271464 219.414402 
L 137.919575 219.414402 
L 137.919575 218.887716 
L 138.196257 218.887716 
L 138.217689 217.834344 
L 138.311679 217.834344 
L 138.311679 217.307658 
L 138.443265 217.307658 
L 138.443265 216.780971 
L 138.557068 216.780971 
L 138.569667 215.727599 
L 138.97221 215.727599 
L 138.97221 215.200913 
L 139.813109 215.200913 
L 139.813109 214.674227 
L 142.479593 214.674227 
L 142.479593 214.147541 
L 143.150923 214.147541 
L 143.167057 213.094169 
L 143.590833 213.094169 
L 143.590833 212.567483 
L 143.843966 212.567483 
L 143.843966 212.040797 
L 143.976867 212.040797 
L 143.976867 211.514111 
L 144.105706 211.514111 
L 144.105706 210.987425 
L 144.357553 210.987425 
L 144.357553 210.460738 
L 144.65919 210.460738 
L 144.694684 209.407366 
L 144.967338 209.407366 
L 145.019621 208.353994 
L 145.403989 208.353994 
L 145.415334 207.300622 
L 145.539638 207.300622 
L 145.576196 205.193878 
L 145.760622 205.193878 
L 145.832743 203.613819 
L 145.934864 203.613819 
L 145.962362 202.560447 
L 146.112831 202.560447 
L 146.178086 201.507075 
L 146.240393 201.507075 
L 146.326713 198.346959 
L 146.630802 198.346959 
L 146.630802 197.820273 
L 146.796603 197.820273 
L 146.796603 197.293586 
L 147.087524 197.293586 
L 147.087524 196.7669 
L 147.401524 196.7669 
L 147.457095 194.660156 
L 147.582739 194.660156 
L 147.582739 194.13347 
L 147.804169 194.13347 
L 147.804169 193.606784 
L 147.91998 193.606784 
L 148.025265 192.026726 
L 148.195311 192.026726 
L 148.246003 190.446667 
L 148.334961 190.446667 
L 148.38764 189.393295 
L 148.551837 189.393295 
L 148.551837 188.866609 
L 148.82211 188.866609 
L 148.82211 188.339923 
L 148.979974 188.339923 
L 148.979974 187.813237 
L 149.266491 187.813237 
L 149.266491 187.286551 
L 149.472153 187.286551 
L 149.472153 186.759865 
L 149.617584 186.759865 
L 149.677639 185.706493 
L 149.777273 185.706493 
L 149.777273 185.179807 
L 150.03804 185.179807 
L 150.03804 184.653121 
L 150.165896 184.653121 
L 150.239152 182.546376 
L 150.279956 182.546376 
L 150.279956 182.01969 
L 150.596675 182.01969 
L 150.60931 180.966318 
L 150.718423 180.966318 
L 150.799813 179.38626 
L 151.015013 179.38626 
L 151.068401 178.332888 
L 151.487718 178.332888 
L 151.487718 177.279515 
L 151.73021 177.279515 
L 151.761763 175.172771 
L 151.852163 175.172771 
L 151.860002 173.592713 
L 151.97327 173.592713 
L 152.047083 172.012655 
L 155.314612 172.012655 
L 155.314612 170.959282 
L 155.612591 170.959282 
L 155.645738 169.90591 
L 155.782394 169.90591 
L 155.85266 168.325852 
L 155.931955 168.325852 
L 155.931955 167.799166 
L 156.071012 167.799166 
L 156.170758 165.165736 
L 156.272978 165.165736 
L 156.36704 164.112363 
L 156.489167 164.112363 
L 156.517691 163.058991 
L 156.637282 163.058991 
L 156.637282 162.532305 
L 156.812195 162.532305 
L 156.851972 161.478933 
L 156.938578 161.478933 
L 157.011638 159.898875 
L 157.370985 159.898875 
L 157.380981 156.738758 
L 157.545799 156.738758 
L 157.545799 156.212072 
L 157.692253 156.212072 
L 157.744062 154.632014 
L 157.861114 154.632014 
L 157.951154 153.051956 
L 158.011841 153.051956 
L 158.011841 152.52527 
L 158.136687 152.52527 
L 158.180378 150.945211 
L 158.257931 150.945211 
L 158.356753 148.838467 
L 158.562073 148.838467 
L 158.562073 147.785095 
L 158.905533 147.785095 
L 158.953865 144.624978 
L 159.047534 144.624978 
L 159.151024 143.04492 
L 159.390562 143.04492 
L 159.390562 141.991548 
L 159.545084 141.991548 
L 159.62811 140.41149 
L 159.735706 140.41149 
L 159.735706 139.884804 
L 160.050894 139.884804 
L 160.055793 138.831432 
L 160.174175 138.831432 
L 160.174175 138.304745 
L 160.430142 138.304745 
L 160.430142 137.778059 
L 161.682162 137.778059 
L 161.682162 137.251373 
L 161.918168 137.251373 
L 161.97969 136.198001 
L 162.03881 136.198001 
L 162.145593 134.091257 
L 162.239845 134.091257 
L 162.239845 133.564571 
L 162.550389 133.564571 
L 162.650928 132.511199 
L 162.887802 132.511199 
L 162.985385 131.457826 
L 163.410804 131.457826 
L 163.515557 130.404454 
L 163.534627 130.404454 
L 163.630661 128.29771 
L 163.762842 128.29771 
L 163.762842 127.771024 
L 163.989086 127.771024 
L 164.092376 125.66428 
L 164.117618 125.66428 
L 164.117618 124.610907 
L 164.238466 124.610907 
L 164.256762 123.557535 
L 164.405304 123.557535 
L 164.475778 122.504163 
L 164.563944 122.504163 
L 164.563944 121.450791 
L 164.732395 121.450791 
L 164.809022 119.344047 
L 164.925189 119.344047 
L 164.992674 117.763988 
L 165.046106 117.763988 
L 165.046106 117.237302 
L 165.18354 117.237302 
L 165.286362 116.18393 
L 165.295432 116.18393 
L 165.295432 115.657244 
L 166.731729 115.657244 
L 166.812546 113.5505 
L 166.978829 113.5505 
L 167.064247 112.497128 
L 167.141909 112.497128 
L 167.252491 110.917069 
L 167.313175 110.917069 
L 167.328514 109.863697 
L 167.580089 109.863697 
L 167.580089 109.337011 
L 167.708477 109.337011 
L 167.802188 108.283639 
L 167.861775 108.283639 
L 167.899304 107.230267 
L 168.05636 107.230267 
L 168.116628 105.650209 
L 168.170539 105.650209 
L 168.170539 105.123522 
L 168.346509 105.123522 
L 168.394402 104.07015 
L 168.502624 104.07015 
L 168.502624 103.543464 
L 168.67828 103.543464 
L 168.786245 102.490092 
L 168.798859 102.490092 
L 168.887643 100.910034 
L 168.939225 100.910034 
L 168.939225 100.383348 
L 169.07555 100.383348 
L 169.137496 98.803289 
L 169.233261 98.803289 
L 169.290324 97.749917 
L 169.475392 97.749917 
L 169.475392 97.223231 
L 170.641388 97.223231 
L 170.641388 96.696545 
L 170.765081 96.696545 
L 170.860244 93.536429 
L 171.103705 93.536429 
L 171.150437 92.483056 
L 171.233852 92.483056 
L 171.286669 90.376312 
L 171.440343 90.376312 
L 171.505246 89.32294 
L 171.7048 89.32294 
L 171.808721 88.269568 
L 171.840525 88.269568 
L 171.914508 86.68951 
L 172.010405 86.68951 
L 172.11314 84.582765 
L 172.141332 84.582765 
L 172.235384 83.002707 
L 172.323478 83.002707 
L 172.386994 80.895963 
L 172.517531 80.895963 
L 172.517531 80.369277 
L 173.604263 80.369277 
L 173.664411 79.315904 
L 173.938894 79.315904 
L 174.017159 77.20916 
L 174.173188 77.20916 
L 174.281854 75.102416 
L 174.400072 75.102416 
L 174.400072 74.57573 
L 174.587357 74.57573 
L 174.691365 72.995672 
L 174.861424 72.995672 
L 174.950266 71.415613 
L 175.036584 71.415613 
L 175.063536 70.362241 
L 175.168869 70.362241 
L 175.217705 68.782183 
L 175.337925 68.782183 
L 175.337925 68.255497 
L 176.270002 68.255497 
L 176.270002 67.728811 
L 176.53047 67.728811 
L 176.568043 66.675439 
L 176.670362 66.675439 
L 176.670362 65.622066 
L 176.850794 65.622066 
L 176.850794 64.568694 
L 177.097723 64.568694 
L 177.097723 64.042008 
L 177.288403 64.042008 
L 177.288403 63.515322 
L 177.45491 63.515322 
L 177.45491 62.988636 
L 177.567431 62.988636 
L 177.640852 61.935264 
L 177.721082 61.935264 
L 177.721082 61.408578 
L 178.63882 61.408578 
L 178.73349 60.355206 
L 178.860173 60.355206 
L 178.860173 59.82852 
L 179.025188 59.82852 
L 179.025188 59.301833 
L 179.439084 59.301833 
L 179.462844 58.248461 
L 179.627861 58.248461 
L 179.67921 57.195089 
L 180.455039 57.195089 
L 180.455039 56.668403 
L 180.910197 56.668403 
L 181.002915 55.615031 
L 181.037879 55.615031 
L 181.037879 55.088345 
L 181.165364 55.088345 
L 181.235303 54.034973 
L 181.392729 54.034973 
L 181.466788 52.454914 
L 181.614679 52.454914 
L 181.712935 51.401542 
L 182.35465 51.401542 
L 182.35465 50.874856 
L 182.500302 50.874856 
L 182.500302 50.34817 
L 182.954822 50.34817 
L 183.060896 48.241426 
L 183.162748 48.241426 
L 183.162748 47.71474 
L 183.349235 47.71474 
L 183.349235 47.188054 
L 184.043395 47.188054 
L 184.043395 46.661368 
L 184.182411 46.661368 
L 184.182411 46.134681 
L 184.338289 46.134681 
L 184.338289 45.607995 
L 184.624388 45.607995 
L 184.624388 45.081309 
L 184.800104 45.081309 
L 184.902039 43.501251 
L 184.947349 43.501251 
L 184.947349 42.974565 
L 185.755766 42.974565 
L 185.755766 42.447879 
L 185.868454 42.447879 
L 185.86929 41.394507 
L 186.058616 41.394507 
L 186.058892 40.341135 
L 186.28759 40.341135 
L 186.28759 39.814448 
L 186.944696 39.814448 
L 187.036952 38.761076 
L 187.103812 38.761076 
L 187.103812 38.23439 
L 187.314161 38.23439 
L 187.418775 36.654332 
L 187.471228 36.654332 
L 187.471228 36.127646 
L 187.646034 36.127646 
L 187.646034 35.60096 
L 188.147707 35.60096 
L 188.147707 35.074274 
L 188.419741 35.074274 
L 188.419741 34.547588 
L 190.482512 34.547588 
L 190.482512 34.020902 
L 190.749787 34.020902 
L 190.803846 32.967529 
L 191.840576 32.967529 
L 191.856994 31.914157 
L 192.848841 31.914157 
L 192.848841 31.387471 
L 194.345543 31.387471 
L 194.345543 30.860785 
L 195.177019 30.860785 
L 195.177019 30.334099 
L 338.688 30.334099 
L 338.688 30.334099 
" style="fill:none;stroke:#ff00ff;stroke-linecap:square;stroke-width:1.5;"/>
   </g>
   <g id="line2d_41">
    <defs>
     <path d="M -0 8.485281 
L 5.091169 0 
L 0 -8.485281 
L -5.091169 -0 
z
" id="mbe7a68a73d" style="stroke:#ff00ff;stroke-linejoin:miter;stroke-width:1.5;"/>
    </defs>
    <g>
     <use style="fill-opacity:0;stroke:#ff00ff;stroke-linejoin:miter;stroke-width:1.5;" x="96.253859" xlink:href="#mbe7a68a73d" y="281.563359"/>
     <use style="fill-opacity:0;stroke:#ff00ff;stroke-linejoin:miter;stroke-width:1.5;" x="144.694684" xlink:href="#mbe7a68a73d" y="209.934052"/>
     <use style="fill-opacity:0;stroke:#ff00ff;stroke-linejoin:miter;stroke-width:1.5;" x="185.86929" xlink:href="#mbe7a68a73d" y="41.921193"/>
     <use style="fill-opacity:0;stroke:#ff00ff;stroke-linejoin:miter;stroke-width:1.5;" x="195.177019" xlink:href="#mbe7a68a73d" y="30.334099"/>
     <use style="fill-opacity:0;stroke:#ff00ff;stroke-linejoin:miter;stroke-width:1.5;" x="195.177019" xlink:href="#mbe7a68a73d" y="30.334099"/>
     <use style="fill-opacity:0;stroke:#ff00ff;stroke-linejoin:miter;stroke-width:1.5;" x="338.688" xlink:href="#mbe7a68a73d" y="30.334099"/>
    </g>
   </g>
   <g id="line2d_42">
    <path style="fill:none;stroke:#ff00ff;stroke-linecap:square;stroke-width:1.5;"/>
    <g/>
   </g>
   <g id="line2d_43">
    <path clip-path="url(#p7b56f4ccce)" d="M 141.784872 214.674227 
" style="fill:none;stroke:#ff00ff;stroke-linecap:square;stroke-width:1.5;"/>
    <defs>
     <path d="M -12 12 
L 12 -12 
M -12 -12 
L 12 12 
" id="m92b318de34" style="stroke:#ff00ff;"/>
    </defs>
    <g clip-path="url(#p7b56f4ccce)">
     <use style="fill:#ff00ff;stroke:#ff00ff;" x="141.784872" xlink:href="#m92b318de34" y="214.674227"/>
    </g>
   </g>
   <g id="line2d_44">
    <defs>
     <path d="M 0 1.5 
C 0.397805 1.5 0.77937 1.341951 1.06066 1.06066 
C 1.341951 0.77937 1.5 0.397805 1.5 0 
C 1.5 -0.397805 1.341951 -0.77937 1.06066 -1.06066 
C 0.77937 -1.341951 0.397805 -1.5 0 -1.5 
C -0.397805 -1.5 -0.77937 -1.341951 -1.06066 -1.06066 
C -1.341951 -0.77937 -1.5 -0.397805 -1.5 0 
C -1.5 0.397805 -1.341951 0.77937 -1.06066 1.06066 
C -0.77937 1.341951 -0.397805 1.5 0 1.5 
z
" id="mbc34a3a143" style="stroke:#ff7500;"/>
    </defs>
    <g>
     <use style="fill:#ff7500;stroke:#ff7500;" x="220.00208" xlink:href="#mbc34a3a143" y="241.008531"/>
     <use style="fill:#ff7500;stroke:#ff7500;" x="220.00208" xlink:href="#mbc34a3a143" y="241.008531"/>
    </g>
   </g>
   <g id="line2d_45">
    <path d="M -1 293.677139 
L 108.507375 293.677139 
L 108.507375 293.150453 
L 113.821859 293.150453 
L 113.821859 292.623767 
L 116.262979 292.623767 
L 116.262979 292.097081 
L 118.270033 292.097081 
L 118.270033 291.570395 
L 118.929691 291.570395 
L 118.929691 291.043709 
L 119.702083 291.043709 
L 119.702083 290.517023 
L 120.79427 290.517023 
L 120.79427 289.990337 
L 121.059819 289.990337 
L 121.059819 289.463651 
L 121.523386 289.463651 
L 121.523386 288.936964 
L 122.330097 288.936964 
L 122.40451 287.883592 
L 122.615387 287.883592 
L 122.615387 287.356906 
L 124.245104 287.356906 
L 124.302282 285.776848 
L 124.566661 285.776848 
L 124.566661 285.250162 
L 124.799375 285.250162 
L 124.827093 284.19679 
L 124.946698 284.19679 
L 124.946698 283.670104 
L 125.065488 283.670104 
L 125.065488 283.143418 
L 125.273694 283.143418 
L 125.273694 282.616732 
L 127.181154 282.616732 
L 127.181154 282.090045 
L 127.397595 282.090045 
L 127.492935 281.036673 
L 127.658536 281.036673 
L 127.658536 280.509987 
L 128.054283 280.509987 
L 128.054283 279.983301 
L 128.305651 279.983301 
L 128.305651 279.456615 
L 129.290685 279.456615 
L 129.290685 278.929929 
L 129.524963 278.929929 
L 129.524963 278.403243 
L 131.230004 278.403243 
L 131.230004 277.876557 
L 131.439773 277.876557 
L 131.52801 276.823185 
L 131.659533 276.823185 
L 131.659533 276.296499 
L 132.747952 276.296499 
L 132.853149 275.243126 
L 133.672633 275.243126 
L 133.672633 274.71644 
L 133.882615 274.71644 
L 133.882615 274.189754 
L 134.407429 274.189754 
L 134.407429 273.663068 
L 134.792231 273.663068 
L 134.792231 273.136382 
L 135.356492 273.136382 
L 135.356492 272.609696 
L 136.020077 272.609696 
L 136.020077 272.08301 
L 136.174879 272.08301 
L 136.198943 271.029638 
L 136.58893 271.029638 
L 136.58893 270.502952 
L 136.965784 270.502952 
L 136.965784 269.976266 
L 138.049816 269.976266 
L 138.067109 268.922893 
L 139.465655 268.922893 
L 139.465655 268.396207 
L 139.953279 268.396207 
L 139.953279 267.869521 
L 140.226464 267.869521 
L 140.226464 267.342835 
L 140.577945 267.342835 
L 140.604116 266.289463 
L 140.922482 266.289463 
L 140.922482 265.762777 
L 141.046761 265.762777 
L 141.046761 265.236091 
L 141.263941 265.236091 
L 141.263941 264.709405 
L 146.736255 264.709405 
L 146.736255 264.182719 
L 148.054534 264.182719 
L 148.098345 263.129347 
L 148.810446 263.129347 
L 148.810446 262.60266 
L 149.939889 262.60266 
L 149.98358 261.022602 
L 150.87046 261.022602 
L 150.87046 260.495916 
L 152.122515 260.495916 
L 152.122515 259.96923 
L 152.997626 259.96923 
L 152.997626 259.442544 
L 153.623196 259.442544 
L 153.623196 258.915858 
L 158.698946 258.915858 
L 158.698946 258.389172 
L 158.92253 258.389172 
L 158.92253 257.3358 
L 159.493307 257.3358 
L 159.493307 256.809114 
L 159.887213 256.809114 
L 159.887213 256.282427 
L 160.571004 256.282427 
L 160.571004 255.755741 
L 164.134102 255.755741 
L 164.134102 255.229055 
L 169.233261 255.229055 
L 169.233261 254.702369 
L 171.675264 254.702369 
L 171.675264 254.175683 
L 172.520528 254.175683 
L 172.520528 253.648997 
L 174.707759 253.648997 
L 174.707759 253.122311 
L 176.780066 253.122311 
L 176.780066 252.595625 
L 177.168555 252.595625 
L 177.168555 252.068939 
L 177.482432 252.068939 
L 177.482432 251.542253 
L 179.009087 251.542253 
L 179.009087 251.015567 
L 179.466868 251.015567 
L 179.466868 250.488881 
L 179.924307 250.488881 
L 179.924307 249.435508 
L 185.771469 249.435508 
L 185.771469 248.908822 
L 187.318266 248.908822 
L 187.318266 248.382136 
L 187.494349 248.382136 
L 187.494349 247.85545 
L 188.555736 247.85545 
L 188.639633 246.802078 
L 189.864791 246.802078 
L 189.864791 246.275392 
L 190.939203 246.275392 
L 190.939203 245.748706 
L 191.951245 245.748706 
L 191.951245 245.22202 
L 197.752485 245.22202 
L 197.752485 244.695334 
L 200.366418 244.695334 
L 200.366418 244.168648 
L 202.022125 244.168648 
L 202.098122 243.115275 
L 205.117905 243.115275 
L 205.117905 242.588589 
L 210.57403 242.588589 
L 210.57403 242.061903 
L 211.603611 242.061903 
L 211.603611 241.535217 
L 220.00208 241.535217 
L 220.00208 241.008531 
L 338.688 241.008531 
L 338.688 241.008531 
" style="fill:none;stroke:#ff7500;stroke-linecap:square;stroke-width:1.5;"/>
   </g>
   <g id="line2d_46">
    <defs>
     <path d="M 0 -6 
L -1.347084 -1.854102 
L -5.706339 -1.854102 
L -2.179628 0.708204 
L -3.526712 4.854102 
L -0 2.291796 
L 3.526712 4.854102 
L 2.179628 0.708204 
L 5.706339 -1.854102 
L 1.347084 -1.854102 
z
" id="m207d018131" style="stroke:#ff7500;stroke-linejoin:bevel;stroke-width:1.5;"/>
    </defs>
    <g>
     <use style="fill-opacity:0;stroke:#ff7500;stroke-linejoin:bevel;stroke-width:1.5;" x="132.747952" xlink:href="#m207d018131" y="276.296499"/>
     <use style="fill-opacity:0;stroke:#ff7500;stroke-linejoin:bevel;stroke-width:1.5;" x="210.57403" xlink:href="#m207d018131" y="242.588589"/>
     <use style="fill-opacity:0;stroke:#ff7500;stroke-linejoin:bevel;stroke-width:1.5;" x="220.00208" xlink:href="#m207d018131" y="241.008531"/>
     <use style="fill-opacity:0;stroke:#ff7500;stroke-linejoin:bevel;stroke-width:1.5;" x="220.00208" xlink:href="#m207d018131" y="241.008531"/>
     <use style="fill-opacity:0;stroke:#ff7500;stroke-linejoin:bevel;stroke-width:1.5;" x="338.688" xlink:href="#m207d018131" y="241.008531"/>
    </g>
   </g>
   <g id="line2d_47">
    <path style="fill:none;stroke:#ff7500;stroke-linecap:square;stroke-width:1.5;"/>
    <g/>
   </g>
   <g id="line2d_48">
    <path clip-path="url(#p7b56f4ccce)" d="M 141.80232 264.709405 
" style="fill:none;stroke:#ff7500;stroke-linecap:square;stroke-width:1.5;"/>
    <defs>
     <path d="M -12 12 
L 12 -12 
M -12 -12 
L 12 12 
" id="m2195793465" style="stroke:#ff7500;"/>
    </defs>
    <g clip-path="url(#p7b56f4ccce)">
     <use style="fill:#ff7500;stroke:#ff7500;" x="141.80232" xlink:href="#m2195793465" y="264.709405"/>
    </g>
   </g>
   <g id="line2d_49">
    <defs>
     <path d="M 0 1.5 
C 0.397805 1.5 0.77937 1.341951 1.06066 1.06066 
C 1.341951 0.77937 1.5 0.397805 1.5 0 
C 1.5 -0.397805 1.341951 -0.77937 1.06066 -1.06066 
C 0.77937 -1.341951 0.397805 -1.5 0 -1.5 
C -0.397805 -1.5 -0.77937 -1.341951 -1.06066 -1.06066 
C -1.341951 -0.77937 -1.5 -0.397805 -1.5 0 
C -1.5 0.397805 -1.341951 0.77937 -1.06066 1.06066 
C -0.77937 1.341951 -0.397805 1.5 0 1.5 
z
" id="mb65fa81136" style="stroke:#6495ed;"/>
    </defs>
    <g>
     <use style="fill:#6495ed;stroke:#6495ed;" x="223.92607" xlink:href="#mb65fa81136" y="219.941088"/>
     <use style="fill:#6495ed;stroke:#6495ed;" x="223.92607" xlink:href="#mb65fa81136" y="219.941088"/>
    </g>
   </g>
   <g id="line2d_50">
    <path d="M -1 293.677139 
L 104.971174 293.677139 
L 104.971174 293.150453 
L 106.249145 293.150453 
L 106.249145 292.623767 
L 107.162405 292.623767 
L 107.162405 292.097081 
L 108.902946 292.097081 
L 108.902946 291.570395 
L 109.289743 291.570395 
L 109.289743 291.043709 
L 109.995347 291.043709 
L 109.995347 290.517023 
L 110.756455 290.517023 
L 110.756455 289.990337 
L 110.982542 289.990337 
L 110.982542 289.463651 
L 111.124904 289.463651 
L 111.124904 288.936964 
L 112.877038 288.936964 
L 112.877038 288.410278 
L 113.004799 288.410278 
L 113.004799 287.883592 
L 113.752311 287.883592 
L 113.752311 287.356906 
L 113.891132 287.356906 
L 113.977337 285.776848 
L 114.317959 285.776848 
L 114.402085 284.723476 
L 116.532432 284.723476 
L 116.532432 284.19679 
L 117.668147 284.19679 
L 117.709852 283.143418 
L 118.323734 283.143418 
L 118.323734 282.616732 
L 118.616168 282.616732 
L 118.655668 281.563359 
L 118.734401 281.563359 
L 118.734401 281.036673 
L 118.864837 281.036673 
L 118.890808 279.983301 
L 118.981402 279.983301 
L 119.020084 278.929929 
L 120.453579 278.929929 
L 120.453579 278.403243 
L 120.967912 278.403243 
L 121.036887 277.349871 
L 121.400219 277.349871 
L 121.400219 276.823185 
L 121.545687 276.823185 
L 121.545687 276.296499 
L 122.415115 276.296499 
L 122.468041 275.243126 
L 122.792648 275.243126 
L 122.792648 274.71644 
L 123.354102 274.71644 
L 123.354102 274.189754 
L 124.033832 274.189754 
L 124.101333 273.136382 
L 125.047266 273.136382 
L 125.047266 272.609696 
L 125.327602 272.609696 
L 125.327602 272.08301 
L 125.840299 272.08301 
L 125.840299 271.556324 
L 126.287485 271.556324 
L 126.287485 271.029638 
L 126.47328 271.029638 
L 126.490073 269.976266 
L 126.953823 269.976266 
L 126.961993 268.922893 
L 127.689902 268.922893 
L 127.697735 267.869521 
L 128.709321 267.869521 
L 128.709321 267.342835 
L 128.834493 267.342835 
L 128.84916 266.289463 
L 129.39046 266.289463 
L 129.39046 265.762777 
L 130.431818 265.762777 
L 130.431818 265.236091 
L 130.946327 265.236091 
L 131.043554 264.182719 
L 132.606695 264.182719 
L 132.606695 263.656033 
L 133.5499 263.656033 
L 133.5499 263.129347 
L 134.687647 263.129347 
L 134.687647 262.60266 
L 134.916909 262.60266 
L 134.916909 262.075974 
L 135.138086 262.075974 
L 135.138086 261.549288 
L 136.366469 261.549288 
L 136.366469 261.022602 
L 136.504067 261.022602 
L 136.504067 260.495916 
L 136.65465 260.495916 
L 136.757427 259.442544 
L 136.79465 259.442544 
L 136.79465 258.915858 
L 138.765874 258.915858 
L 138.765874 258.389172 
L 140.12308 258.389172 
L 140.12308 257.862486 
L 140.999347 257.862486 
L 140.999347 257.3358 
L 141.52458 257.3358 
L 141.52458 256.809114 
L 147.605259 256.809114 
L 147.605259 256.282427 
L 148.226709 256.282427 
L 148.226709 255.755741 
L 148.54473 255.755741 
L 148.54473 255.229055 
L 148.749665 255.229055 
L 148.749665 254.702369 
L 149.108916 254.702369 
L 149.115797 253.648997 
L 149.29375 253.648997 
L 149.327765 252.595625 
L 150.181003 252.595625 
L 150.181003 252.068939 
L 150.693304 252.068939 
L 150.785233 251.015567 
L 150.874606 251.015567 
L 150.874606 250.488881 
L 151.13797 250.488881 
L 151.13797 249.962195 
L 152.607843 249.962195 
L 152.607843 249.435508 
L 153.070893 249.435508 
L 153.070893 248.382136 
L 153.20563 248.382136 
L 153.20563 247.85545 
L 153.493443 247.85545 
L 153.493443 247.328764 
L 153.762535 247.328764 
L 153.762535 246.275392 
L 157.609319 246.275392 
L 157.707672 245.22202 
L 158.280994 245.22202 
L 158.280994 244.695334 
L 158.896374 244.695334 
L 158.896374 244.168648 
L 163.940152 244.168648 
L 164.007646 243.115275 
L 164.452953 243.115275 
L 164.452953 242.588589 
L 164.84721 242.588589 
L 164.84721 242.061903 
L 165.573402 242.061903 
L 165.639318 241.008531 
L 165.780993 241.008531 
L 165.780993 240.481845 
L 168.502624 240.481845 
L 168.502624 239.955159 
L 168.660345 239.955159 
L 168.660345 239.428473 
L 169.546599 239.428473 
L 169.599106 238.375101 
L 172.179258 238.375101 
L 172.179258 237.848415 
L 172.91803 237.848415 
L 172.91803 237.321729 
L 175.334866 237.321729 
L 175.334866 236.795043 
L 177.417845 236.795043 
L 177.417845 236.268356 
L 177.71441 236.268356 
L 177.71441 235.74167 
L 177.967913 235.74167 
L 177.967913 235.214984 
L 179.374084 235.214984 
L 179.458819 233.634926 
L 179.545147 233.634926 
L 179.545147 233.10824 
L 179.941543 233.10824 
L 180.032922 232.054868 
L 181.287574 232.054868 
L 181.287574 231.528182 
L 181.449201 231.528182 
L 181.514078 230.47481 
L 184.580631 230.47481 
L 184.580631 229.948123 
L 185.003382 229.948123 
L 185.025043 228.368065 
L 186.511985 228.368065 
L 186.511985 227.841379 
L 187.349529 227.841379 
L 187.349529 227.314693 
L 188.921712 227.314693 
L 188.976372 226.261321 
L 190.864436 226.261321 
L 190.95191 225.207949 
L 191.880703 225.207949 
L 191.880703 224.681263 
L 192.881124 224.681263 
L 192.881124 224.154577 
L 194.832541 224.154577 
L 194.832541 223.627891 
L 195.634957 223.627891 
L 195.634957 223.101204 
L 199.175824 223.101204 
L 199.175824 222.574518 
L 202.104824 222.574518 
L 202.104824 222.047832 
L 202.730318 222.047832 
L 202.730318 221.521146 
L 204.274501 221.521146 
L 204.274501 220.99446 
L 209.656845 220.99446 
L 209.656845 220.467774 
L 223.92607 220.467774 
L 223.92607 219.941088 
L 338.688 219.941088 
L 338.688 219.941088 
" style="fill:none;stroke:#6495ed;stroke-linecap:square;stroke-width:1.5;"/>
   </g>
   <g id="line2d_51">
    <defs>
     <path d="M -0 6 
L 6 -6 
L -6 -6 
z
" id="m9def714d6e" style="stroke:#6495ed;stroke-linejoin:miter;stroke-width:1.5;"/>
    </defs>
    <g>
     <use style="fill-opacity:0;stroke:#6495ed;stroke-linejoin:miter;stroke-width:1.5;" x="153.762535" xlink:href="#m9def714d6e" y="246.275392"/>
     <use style="fill-opacity:0;stroke:#6495ed;stroke-linejoin:miter;stroke-width:1.5;" x="209.656845" xlink:href="#m9def714d6e" y="220.99446"/>
     <use style="fill-opacity:0;stroke:#6495ed;stroke-linejoin:miter;stroke-width:1.5;" x="223.92607" xlink:href="#m9def714d6e" y="219.941088"/>
     <use style="fill-opacity:0;stroke:#6495ed;stroke-linejoin:miter;stroke-width:1.5;" x="223.92607" xlink:href="#m9def714d6e" y="219.941088"/>
     <use style="fill-opacity:0;stroke:#6495ed;stroke-linejoin:miter;stroke-width:1.5;" x="338.688" xlink:href="#m9def714d6e" y="219.941088"/>
    </g>
   </g>
   <g id="line2d_52">
    <path style="fill:none;stroke:#6495ed;stroke-linecap:square;stroke-width:1.5;"/>
    <g/>
   </g>
   <g id="line2d_53">
    <path clip-path="url(#p7b56f4ccce)" d="M 141.80232 256.809114 
" style="fill:none;stroke:#6495ed;stroke-linecap:square;stroke-width:1.5;"/>
    <defs>
     <path d="M -12 12 
L 12 -12 
M -12 -12 
L 12 12 
" id="mb2d82353b8" style="stroke:#6495ed;"/>
    </defs>
    <g clip-path="url(#p7b56f4ccce)">
     <use style="fill:#6495ed;stroke:#6495ed;" x="141.80232" xlink:href="#mb2d82353b8" y="256.809114"/>
    </g>
   </g>
   <g id="line2d_54">
    <defs>
     <path d="M 0 1.5 
C 0.397805 1.5 0.77937 1.341951 1.06066 1.06066 
C 1.341951 0.77937 1.5 0.397805 1.5 0 
C 1.5 -0.397805 1.341951 -0.77937 1.06066 -1.06066 
C 0.77937 -1.341951 0.397805 -1.5 0 -1.5 
C -0.397805 -1.5 -0.77937 -1.341951 -1.06066 -1.06066 
C -1.341951 -0.77937 -1.5 -0.397805 -1.5 0 
C -1.5 0.397805 -1.341951 0.77937 -1.06066 1.06066 
C -0.77937 1.341951 -0.397805 1.5 0 1.5 
z
" id="mec1ed86cd4" style="stroke:#ff0000;"/>
    </defs>
    <g>
     <use style="fill:#ff0000;stroke:#ff0000;" x="188.444284" xlink:href="#mec1ed86cd4" y="267.342835"/>
     <use style="fill:#ff0000;stroke:#ff0000;" x="188.444284" xlink:href="#mec1ed86cd4" y="267.342835"/>
    </g>
   </g>
   <g id="line2d_55">
    <path d="M -1 293.677139 
L 91.72113 293.677139 
L 91.72113 293.150453 
L 97.972068 293.150453 
L 97.972068 292.623767 
L 99.80948 292.623767 
L 99.80948 292.097081 
L 102.464508 292.097081 
L 102.464508 291.570395 
L 103.340712 291.570395 
L 103.340712 291.043709 
L 104.942325 291.043709 
L 104.942325 290.517023 
L 107.187808 290.517023 
L 107.187808 289.990337 
L 107.238504 289.990337 
L 107.238504 288.936964 
L 107.688252 288.936964 
L 107.688252 288.410278 
L 108.054381 288.410278 
L 108.054381 287.883592 
L 108.554381 287.883592 
L 108.554381 287.356906 
L 108.694644 287.356906 
L 108.694644 286.83022 
L 109.1995 286.83022 
L 109.1995 286.303534 
L 109.865203 286.303534 
L 109.865203 285.776848 
L 111.266113 285.776848 
L 111.266113 285.250162 
L 112.431755 285.250162 
L 112.431755 284.723476 
L 113.400346 284.723476 
L 113.400346 284.19679 
L 113.524343 284.19679 
L 113.524343 283.670104 
L 115.726815 283.670104 
L 115.726815 283.143418 
L 116.217662 283.143418 
L 116.217662 282.616732 
L 117.640289 282.616732 
L 117.640289 282.090045 
L 120.642369 282.090045 
L 120.642369 281.563359 
L 121.196777 281.563359 
L 121.196777 281.036673 
L 122.834096 281.036673 
L 122.834096 280.509987 
L 123.00916 280.509987 
L 123.00916 279.983301 
L 124.585393 279.983301 
L 124.585393 279.456615 
L 126.22795 279.456615 
L 126.22795 278.929929 
L 128.038932 278.929929 
L 128.038932 278.403243 
L 129.908566 278.403243 
L 129.908566 277.876557 
L 145.899052 277.876557 
L 145.899052 277.349871 
L 146.468747 277.349871 
L 146.468747 276.823185 
L 146.911473 276.823185 
L 146.911473 276.296499 
L 147.48985 276.296499 
L 147.48985 275.769812 
L 147.60776 275.769812 
L 147.60776 275.243126 
L 156.605969 275.243126 
L 156.605969 274.71644 
L 156.631322 274.71644 
L 156.631322 274.189754 
L 156.9034 274.189754 
L 156.9034 273.663068 
L 157.459321 273.663068 
L 157.459321 273.136382 
L 157.820792 273.136382 
L 157.820792 272.609696 
L 162.817913 272.609696 
L 162.817913 272.08301 
L 163.419894 272.08301 
L 163.419894 271.556324 
L 167.267074 271.556324 
L 167.267074 271.029638 
L 167.5315 271.029638 
L 167.5315 270.502952 
L 174.1 270.502952 
L 174.1 269.976266 
L 176.485657 269.976266 
L 176.485657 269.449579 
L 176.833958 269.449579 
L 176.833958 268.922893 
L 179.135021 268.922893 
L 179.135021 268.396207 
L 185.677041 268.396207 
L 185.677041 267.869521 
L 188.444284 267.869521 
L 188.444284 267.342835 
L 338.688 267.342835 
" style="fill:none;stroke:#ff0000;stroke-linecap:square;stroke-width:1.5;"/>
   </g>
   <g id="line2d_56">
    <defs>
     <path d="M 0 -6 
L -5.196152 -3 
L -5.196152 3 
L -0 6 
L 5.196152 3 
L 5.196152 -3 
z
" id="ma3e0ff9e60" style="stroke:#ff0000;stroke-linejoin:miter;stroke-width:1.5;"/>
    </defs>
    <g>
     <use style="fill-opacity:0;stroke:#ff0000;stroke-linejoin:miter;stroke-width:1.5;" x="146.911473" xlink:href="#ma3e0ff9e60" y="276.296499"/>
     <use style="fill-opacity:0;stroke:#ff0000;stroke-linejoin:miter;stroke-width:1.5;" x="188.444284" xlink:href="#ma3e0ff9e60" y="267.869521"/>
     <use style="fill-opacity:0;stroke:#ff0000;stroke-linejoin:miter;stroke-width:1.5;" x="188.444284" xlink:href="#ma3e0ff9e60" y="267.342835"/>
     <use style="fill-opacity:0;stroke:#ff0000;stroke-linejoin:miter;stroke-width:1.5;" x="188.444284" xlink:href="#ma3e0ff9e60" y="267.342835"/>
     <use style="fill-opacity:0;stroke:#ff0000;stroke-linejoin:miter;stroke-width:1.5;" x="338.688" xlink:href="#ma3e0ff9e60" y="267.342835"/>
    </g>
   </g>
   <g id="line2d_57">
    <path style="fill:none;stroke:#ff0000;stroke-linecap:square;stroke-width:1.5;"/>
    <g/>
   </g>
   <g id="line2d_58">
    <path clip-path="url(#p7b56f4ccce)" d="M 141.80232 277.876557 
" style="fill:none;stroke:#ff0000;stroke-linecap:square;stroke-width:1.5;"/>
    <defs>
     <path d="M -12 12 
L 12 -12 
M -12 -12 
L 12 12 
" id="m8ce74dd964" style="stroke:#ff0000;"/>
    </defs>
    <g clip-path="url(#p7b56f4ccce)">
     <use style="fill:#ff0000;stroke:#ff0000;" x="141.80232" xlink:href="#m8ce74dd964" y="277.876557"/>
    </g>
   </g>
   <g id="line2d_59">
    <path d="M 338.688 293.677139 
L 369.60768 293.571802 
" style="fill:none;stroke:#000080;stroke-linecap:square;stroke-width:1.5;"/>
    <g>
     <use style="fill-opacity:0;stroke:#000080;stroke-width:1.5;" x="338.688" xlink:href="#m72e82b8db2" y="293.677139"/>
     <use style="fill-opacity:0;stroke:#000080;stroke-width:1.5;" x="369.60768" xlink:href="#m72e82b8db2" y="293.571802"/>
    </g>
   </g>
   <g id="line2d_60">
    <path d="M 338.688 267.342835 
L 369.60768 241.998701 
" style="fill:none;stroke:#ff0000;stroke-linecap:square;stroke-width:1.5;"/>
    <g>
     <use style="fill-opacity:0;stroke:#ff0000;stroke-linejoin:miter;stroke-width:1.5;" x="338.688" xlink:href="#ma3e0ff9e60" y="267.342835"/>
     <use style="fill-opacity:0;stroke:#ff0000;stroke-linejoin:miter;stroke-width:1.5;" x="369.60768" xlink:href="#ma3e0ff9e60" y="241.998701"/>
    </g>
   </g>
   <g id="line2d_61">
    <path d="M 338.688 241.008531 
L 369.60768 190.4256 
" style="fill:none;stroke:#ff7500;stroke-linecap:square;stroke-width:1.5;"/>
    <g>
     <use style="fill-opacity:0;stroke:#ff7500;stroke-linejoin:bevel;stroke-width:1.5;" x="338.688" xlink:href="#m207d018131" y="241.008531"/>
     <use style="fill-opacity:0;stroke:#ff7500;stroke-linejoin:bevel;stroke-width:1.5;" x="369.60768" xlink:href="#m207d018131" y="190.4256"/>
    </g>
   </g>
   <g id="line2d_62">
    <path d="M 338.688 219.941088 
L 369.60768 138.852499 
" style="fill:none;stroke:#6495ed;stroke-linecap:square;stroke-width:1.5;"/>
    <g>
     <use style="fill-opacity:0;stroke:#6495ed;stroke-linejoin:miter;stroke-width:1.5;" x="338.688" xlink:href="#m9def714d6e" y="219.941088"/>
     <use style="fill-opacity:0;stroke:#6495ed;stroke-linejoin:miter;stroke-width:1.5;" x="369.60768" xlink:href="#m9def714d6e" y="138.852499"/>
    </g>
   </g>
   <g id="line2d_63">
    <path d="M 338.688 30.334099 
L 369.60768 87.279398 
" style="fill:none;stroke:#ff00ff;stroke-linecap:square;stroke-width:1.5;"/>
    <g>
     <use style="fill-opacity:0;stroke:#ff00ff;stroke-linejoin:miter;stroke-width:1.5;" x="338.688" xlink:href="#mbe7a68a73d" y="30.334099"/>
     <use style="fill-opacity:0;stroke:#ff00ff;stroke-linejoin:miter;stroke-width:1.5;" x="369.60768" xlink:href="#mbe7a68a73d" y="87.279398"/>
    </g>
   </g>
   <g id="line2d_64">
    <path d="M 338.688 298.944 
L 338.688 30.334099 
" style="fill:none;stroke:#000000;stroke-linecap:square;stroke-width:1.5;"/>
   </g>
   <g id="patch_3">
    <path d="M 57.6 298.944 
L 57.6 27.648 
" style="fill:none;stroke:#000000;stroke-linecap:square;stroke-linejoin:miter;stroke-width:0.8;"/>
   </g>
   <g id="patch_4">
    <path d="M 338.688 298.944 
L 338.688 27.648 
" style="fill:none;stroke:#000000;stroke-linecap:square;stroke-linejoin:miter;stroke-width:0.8;"/>
   </g>
   <g id="patch_5">
    <path d="M 57.6 298.944 
L 338.688 298.944 
" style="fill:none;stroke:#000000;stroke-linecap:square;stroke-linejoin:miter;stroke-width:0.8;"/>
   </g>
   <g id="patch_6">
    <path d="M 57.6 27.648 
L 338.688 27.648 
" style="fill:none;stroke:#000000;stroke-linecap:square;stroke-linejoin:miter;stroke-width:0.8;"/>
   </g>
   <g id="text_13">
    <!-- ABC -->
    <defs>
     <path d="M 34.1875 63.1875 
L 20.796875 26.90625 
L 47.609375 26.90625 
z
M 28.609375 72.90625 
L 39.796875 72.90625 
L 67.578125 0 
L 57.328125 0 
L 50.6875 18.703125 
L 17.828125 18.703125 
L 11.1875 0 
L 0.78125 0 
z
" id="DejaVuSans-65"/>
     <path d="M 19.671875 34.8125 
L 19.671875 8.109375 
L 35.5 8.109375 
Q 43.453125 8.109375 47.28125 11.40625 
Q 51.125 14.703125 51.125 21.484375 
Q 51.125 28.328125 47.28125 31.5625 
Q 43.453125 34.8125 35.5 34.8125 
z
M 19.671875 64.796875 
L 19.671875 42.828125 
L 34.28125 42.828125 
Q 41.5 42.828125 45.03125 45.53125 
Q 48.578125 48.25 48.578125 53.8125 
Q 48.578125 59.328125 45.03125 62.0625 
Q 41.5 64.796875 34.28125 64.796875 
z
M 9.8125 72.90625 
L 35.015625 72.90625 
Q 46.296875 72.90625 52.390625 68.21875 
Q 58.5 63.53125 58.5 54.890625 
Q 58.5 48.1875 55.375 44.234375 
Q 52.25 40.28125 46.1875 39.3125 
Q 53.46875 37.75 57.5 32.78125 
Q 61.53125 27.828125 61.53125 20.40625 
Q 61.53125 10.640625 54.890625 5.3125 
Q 48.25 0 35.984375 0 
L 9.8125 0 
z
" id="DejaVuSans-66"/>
     <path d="M 64.40625 67.28125 
L 64.40625 56.890625 
Q 59.421875 61.53125 53.78125 63.8125 
Q 48.140625 66.109375 41.796875 66.109375 
Q 29.296875 66.109375 22.65625 58.46875 
Q 16.015625 50.828125 16.015625 36.375 
Q 16.015625 21.96875 22.65625 14.328125 
Q 29.296875 6.6875 41.796875 6.6875 
Q 48.140625 6.6875 53.78125 8.984375 
Q 59.421875 11.28125 64.40625 15.921875 
L 64.40625 5.609375 
Q 59.234375 2.09375 53.4375 0.328125 
Q 47.65625 -1.421875 41.21875 -1.421875 
Q 24.65625 -1.421875 15.125 8.703125 
Q 5.609375 18.84375 5.609375 36.375 
Q 5.609375 53.953125 15.125 64.078125 
Q 24.65625 74.21875 41.21875 74.21875 
Q 47.75 74.21875 53.53125 72.484375 
Q 59.328125 70.75 64.40625 67.28125 
z
" id="DejaVuSans-67"/>
    </defs>
    <g transform="translate(375.22944 298.262739)scale(0.17 -0.17)">
     <use xlink:href="#DejaVuSans-65"/>
     <use x="68.408203" xlink:href="#DejaVuSans-66"/>
     <use x="135.261719" xlink:href="#DejaVuSans-67"/>
    </g>
   </g>
   <g id="text_14">
    <!-- PSO -->
    <defs>
     <path d="M 19.671875 64.796875 
L 19.671875 37.40625 
L 32.078125 37.40625 
Q 38.96875 37.40625 42.71875 40.96875 
Q 46.484375 44.53125 46.484375 51.125 
Q 46.484375 57.671875 42.71875 61.234375 
Q 38.96875 64.796875 32.078125 64.796875 
z
M 9.8125 72.90625 
L 32.078125 72.90625 
Q 44.34375 72.90625 50.609375 67.359375 
Q 56.890625 61.8125 56.890625 51.125 
Q 56.890625 40.328125 50.609375 34.8125 
Q 44.34375 29.296875 32.078125 29.296875 
L 19.671875 29.296875 
L 19.671875 0 
L 9.8125 0 
z
" id="DejaVuSans-80"/>
     <path d="M 53.515625 70.515625 
L 53.515625 60.890625 
Q 47.90625 63.578125 42.921875 64.890625 
Q 37.9375 66.21875 33.296875 66.21875 
Q 25.25 66.21875 20.875 63.09375 
Q 16.5 59.96875 16.5 54.203125 
Q 16.5 49.359375 19.40625 46.890625 
Q 22.3125 44.4375 30.421875 42.921875 
L 36.375 41.703125 
Q 47.40625 39.59375 52.65625 34.296875 
Q 57.90625 29 57.90625 20.125 
Q 57.90625 9.515625 50.796875 4.046875 
Q 43.703125 -1.421875 29.984375 -1.421875 
Q 24.8125 -1.421875 18.96875 -0.25 
Q 13.140625 0.921875 6.890625 3.21875 
L 6.890625 13.375 
Q 12.890625 10.015625 18.65625 8.296875 
Q 24.421875 6.59375 29.984375 6.59375 
Q 38.421875 6.59375 43.015625 9.90625 
Q 47.609375 13.234375 47.609375 19.390625 
Q 47.609375 24.75 44.3125 27.78125 
Q 41.015625 30.8125 33.5 32.328125 
L 27.484375 33.5 
Q 16.453125 35.6875 11.515625 40.375 
Q 6.59375 45.0625 6.59375 53.421875 
Q 6.59375 63.09375 13.40625 68.65625 
Q 20.21875 74.21875 32.171875 74.21875 
Q 37.3125 74.21875 42.625 73.28125 
Q 47.953125 72.359375 53.515625 70.515625 
z
" id="DejaVuSans-83"/>
     <path d="M 39.40625 66.21875 
Q 28.65625 66.21875 22.328125 58.203125 
Q 16.015625 50.203125 16.015625 36.375 
Q 16.015625 22.609375 22.328125 14.59375 
Q 28.65625 6.59375 39.40625 6.59375 
Q 50.140625 6.59375 56.421875 14.59375 
Q 62.703125 22.609375 62.703125 36.375 
Q 62.703125 50.203125 56.421875 58.203125 
Q 50.140625 66.21875 39.40625 66.21875 
z
M 39.40625 74.21875 
Q 54.734375 74.21875 63.90625 63.9375 
Q 73.09375 53.65625 73.09375 36.375 
Q 73.09375 19.140625 63.90625 8.859375 
Q 54.734375 -1.421875 39.40625 -1.421875 
Q 24.03125 -1.421875 14.8125 8.828125 
Q 5.609375 19.09375 5.609375 36.375 
Q 5.609375 53.65625 14.8125 63.9375 
Q 24.03125 74.21875 39.40625 74.21875 
z
" id="DejaVuSans-79"/>
    </defs>
    <g transform="translate(375.22944 246.689638)scale(0.17 -0.17)">
     <use xlink:href="#DejaVuSans-80"/>
     <use x="60.302734" xlink:href="#DejaVuSans-83"/>
     <use x="123.779297" xlink:href="#DejaVuSans-79"/>
    </g>
   </g>
   <g id="text_15">
    <!-- DE -->
    <defs>
     <path d="M 19.671875 64.796875 
L 19.671875 8.109375 
L 31.59375 8.109375 
Q 46.6875 8.109375 53.6875 14.9375 
Q 60.6875 21.78125 60.6875 36.53125 
Q 60.6875 51.171875 53.6875 57.984375 
Q 46.6875 64.796875 31.59375 64.796875 
z
M 9.8125 72.90625 
L 30.078125 72.90625 
Q 51.265625 72.90625 61.171875 64.09375 
Q 71.09375 55.28125 71.09375 36.53125 
Q 71.09375 17.671875 61.125 8.828125 
Q 51.171875 0 30.078125 0 
L 9.8125 0 
z
" id="DejaVuSans-68"/>
     <path d="M 9.8125 72.90625 
L 55.90625 72.90625 
L 55.90625 64.59375 
L 19.671875 64.59375 
L 19.671875 43.015625 
L 54.390625 43.015625 
L 54.390625 34.71875 
L 19.671875 34.71875 
L 19.671875 8.296875 
L 56.78125 8.296875 
L 56.78125 0 
L 9.8125 0 
z
" id="DejaVuSans-69"/>
    </defs>
    <g transform="translate(375.22944 195.116537)scale(0.17 -0.17)">
     <use xlink:href="#DejaVuSans-68"/>
     <use x="77.001953" xlink:href="#DejaVuSans-69"/>
    </g>
   </g>
   <g id="text_16">
    <!-- DEPSO -->
    <g transform="translate(375.22944 143.543437)scale(0.17 -0.17)">
     <use xlink:href="#DejaVuSans-68"/>
     <use x="77.001953" xlink:href="#DejaVuSans-69"/>
     <use x="140.185547" xlink:href="#DejaVuSans-80"/>
     <use x="200.488281" xlink:href="#DejaVuSans-83"/>
     <use x="263.964844" xlink:href="#DejaVuSans-79"/>
    </g>
   </g>
   <g id="text_17">
    <!-- CMA-ES -->
    <defs>
     <path d="M 9.8125 72.90625 
L 24.515625 72.90625 
L 43.109375 23.296875 
L 61.8125 72.90625 
L 76.515625 72.90625 
L 76.515625 0 
L 66.890625 0 
L 66.890625 64.015625 
L 48.09375 14.015625 
L 38.1875 14.015625 
L 19.390625 64.015625 
L 19.390625 0 
L 9.8125 0 
z
" id="DejaVuSans-77"/>
    </defs>
    <g transform="translate(375.22944 91.970336)scale(0.17 -0.17)">
     <use xlink:href="#DejaVuSans-67"/>
     <use x="69.824219" xlink:href="#DejaVuSans-77"/>
     <use x="156.103516" xlink:href="#DejaVuSans-65"/>
     <use x="222.261719" xlink:href="#DejaVuSans-45"/>
     <use x="258.345703" xlink:href="#DejaVuSans-69"/>
     <use x="321.529297" xlink:href="#DejaVuSans-83"/>
    </g>
   </g>
   <g id="text_18">
    <!-- best 2009 -->
    <defs>
     <path d="M 48.6875 27.296875 
Q 48.6875 37.203125 44.609375 42.84375 
Q 40.53125 48.484375 33.40625 48.484375 
Q 26.265625 48.484375 22.1875 42.84375 
Q 18.109375 37.203125 18.109375 27.296875 
Q 18.109375 17.390625 22.1875 11.75 
Q 26.265625 6.109375 33.40625 6.109375 
Q 40.53125 6.109375 44.609375 11.75 
Q 48.6875 17.390625 48.6875 27.296875 
z
M 18.109375 46.390625 
Q 20.953125 51.265625 25.265625 53.625 
Q 29.59375 56 35.59375 56 
Q 45.5625 56 51.78125 48.09375 
Q 58.015625 40.1875 58.015625 27.296875 
Q 58.015625 14.40625 51.78125 6.484375 
Q 45.5625 -1.421875 35.59375 -1.421875 
Q 29.59375 -1.421875 25.265625 0.953125 
Q 20.953125 3.328125 18.109375 8.203125 
L 18.109375 0 
L 9.078125 0 
L 9.078125 75.984375 
L 18.109375 75.984375 
z
" id="DejaVuSans-98"/>
     <path d="M 10.984375 1.515625 
L 10.984375 10.5 
Q 14.703125 8.734375 18.5 7.8125 
Q 22.3125 6.890625 25.984375 6.890625 
Q 35.75 6.890625 40.890625 13.453125 
Q 46.046875 20.015625 46.78125 33.40625 
Q 43.953125 29.203125 39.59375 26.953125 
Q 35.25 24.703125 29.984375 24.703125 
Q 19.046875 24.703125 12.671875 31.3125 
Q 6.296875 37.9375 6.296875 49.421875 
Q 6.296875 60.640625 12.9375 67.421875 
Q 19.578125 74.21875 30.609375 74.21875 
Q 43.265625 74.21875 49.921875 64.515625 
Q 56.59375 54.828125 56.59375 36.375 
Q 56.59375 19.140625 48.40625 8.859375 
Q 40.234375 -1.421875 26.421875 -1.421875 
Q 22.703125 -1.421875 18.890625 -0.6875 
Q 15.09375 0.046875 10.984375 1.515625 
z
M 30.609375 32.421875 
Q 37.25 32.421875 41.125 36.953125 
Q 45.015625 41.5 45.015625 49.421875 
Q 45.015625 57.28125 41.125 61.84375 
Q 37.25 66.40625 30.609375 66.40625 
Q 23.96875 66.40625 20.09375 61.84375 
Q 16.21875 57.28125 16.21875 49.421875 
Q 16.21875 41.5 20.09375 36.953125 
Q 23.96875 32.421875 30.609375 32.421875 
z
" id="DejaVuSans-57"/>
    </defs>
    <g transform="translate(375.22944 40.397235)scale(0.17 -0.17)">
     <use xlink:href="#DejaVuSans-98"/>
     <use x="63.476562" xlink:href="#DejaVuSans-101"/>
     <use x="125" xlink:href="#DejaVuSans-115"/>
     <use x="177.099609" xlink:href="#DejaVuSans-116"/>
     <use x="216.308594" xlink:href="#DejaVuSans-32"/>
     <use x="248.095703" xlink:href="#DejaVuSans-50"/>
     <use x="311.71875" xlink:href="#DejaVuSans-48"/>
     <use x="375.341797" xlink:href="#DejaVuSans-48"/>
     <use x="438.964844" xlink:href="#DejaVuSans-57"/>
    </g>
   </g>
   <g id="text_19">
    <!-- bbob f21, 40-D -->
    <g transform="translate(60.41088 38.111366)scale(0.102 -0.102)">
     <use xlink:href="#DejaVuSans-98"/>
     <use x="63.476562" xlink:href="#DejaVuSans-98"/>
     <use x="126.953125" xlink:href="#DejaVuSans-111"/>
     <use x="188.134766" xlink:href="#DejaVuSans-98"/>
     <use x="251.611328" xlink:href="#DejaVuSans-32"/>
     <use x="283.398438" xlink:href="#DejaVuSans-102"/>
     <use x="318.603516" xlink:href="#DejaVuSans-50"/>
     <use x="382.226562" xlink:href="#DejaVuSans-49"/>
     <use x="445.849609" xlink:href="#DejaVuSans-44"/>
     <use x="477.636719" xlink:href="#DejaVuSans-32"/>
     <use x="509.423828" xlink:href="#DejaVuSans-52"/>
     <use x="573.046875" xlink:href="#DejaVuSans-48"/>
     <use x="636.669922" xlink:href="#DejaVuSans-45"/>
     <use x="672.753906" xlink:href="#DejaVuSans-68"/>
    </g>
    <!-- 51 targets: 100..1e-08 -->
    <defs>
     <path d="M 10.796875 72.90625 
L 49.515625 72.90625 
L 49.515625 64.59375 
L 19.828125 64.59375 
L 19.828125 46.734375 
Q 21.96875 47.46875 24.109375 47.828125 
Q 26.265625 48.1875 28.421875 48.1875 
Q 40.625 48.1875 47.75 41.5 
Q 54.890625 34.8125 54.890625 23.390625 
Q 54.890625 11.625 47.5625 5.09375 
Q 40.234375 -1.421875 26.90625 -1.421875 
Q 22.3125 -1.421875 17.546875 -0.640625 
Q 12.796875 0.140625 7.71875 1.703125 
L 7.71875 11.625 
Q 12.109375 9.234375 16.796875 8.0625 
Q 21.484375 6.890625 26.703125 6.890625 
Q 35.15625 6.890625 40.078125 11.328125 
Q 45.015625 15.765625 45.015625 23.390625 
Q 45.015625 31 40.078125 35.4375 
Q 35.15625 39.890625 26.703125 39.890625 
Q 22.75 39.890625 18.8125 39.015625 
Q 14.890625 38.140625 10.796875 36.28125 
z
" id="DejaVuSans-53"/>
     <path d="M 11.71875 12.40625 
L 22.015625 12.40625 
L 22.015625 0 
L 11.71875 0 
z
M 11.71875 51.703125 
L 22.015625 51.703125 
L 22.015625 39.3125 
L 11.71875 39.3125 
z
" id="DejaVuSans-58"/>
    </defs>
    <g transform="translate(60.41088 49.533135)scale(0.102 -0.102)">
     <use xlink:href="#DejaVuSans-53"/>
     <use x="63.623047" xlink:href="#DejaVuSans-49"/>
     <use x="127.246094" xlink:href="#DejaVuSans-32"/>
     <use x="159.033203" xlink:href="#DejaVuSans-116"/>
     <use x="198.242188" xlink:href="#DejaVuSans-97"/>
     <use x="259.521484" xlink:href="#DejaVuSans-114"/>
     <use x="298.884766" xlink:href="#DejaVuSans-103"/>
     <use x="362.361328" xlink:href="#DejaVuSans-101"/>
     <use x="423.884766" xlink:href="#DejaVuSans-116"/>
     <use x="463.09375" xlink:href="#DejaVuSans-115"/>
     <use x="515.193359" xlink:href="#DejaVuSans-58"/>
     <use x="548.884766" xlink:href="#DejaVuSans-32"/>
     <use x="580.671875" xlink:href="#DejaVuSans-49"/>
     <use x="644.294922" xlink:href="#DejaVuSans-48"/>
     <use x="707.917969" xlink:href="#DejaVuSans-48"/>
     <use x="771.541016" xlink:href="#DejaVuSans-46"/>
     <use x="803.328125" xlink:href="#DejaVuSans-46"/>
     <use x="835.115234" xlink:href="#DejaVuSans-49"/>
     <use x="898.738281" xlink:href="#DejaVuSans-101"/>
     <use x="960.261719" xlink:href="#DejaVuSans-45"/>
     <use x="996.345703" xlink:href="#DejaVuSans-48"/>
     <use x="1059.96875" xlink:href="#DejaVuSans-56"/>
    </g>
    <!-- 24, 15 instances -->
    <g transform="translate(60.41088 60.954904)scale(0.102 -0.102)">
     <use xlink:href="#DejaVuSans-50"/>
     <use x="63.623047" xlink:href="#DejaVuSans-52"/>
     <use x="127.246094" xlink:href="#DejaVuSans-44"/>
     <use x="159.033203" xlink:href="#DejaVuSans-32"/>
     <use x="190.820312" xlink:href="#DejaVuSans-49"/>
     <use x="254.443359" xlink:href="#DejaVuSans-53"/>
     <use x="318.066406" xlink:href="#DejaVuSans-32"/>
     <use x="349.853516" xlink:href="#DejaVuSans-105"/>
     <use x="377.636719" xlink:href="#DejaVuSans-110"/>
     <use x="441.015625" xlink:href="#DejaVuSans-115"/>
     <use x="493.115234" xlink:href="#DejaVuSans-116"/>
     <use x="532.324219" xlink:href="#DejaVuSans-97"/>
     <use x="593.603516" xlink:href="#DejaVuSans-110"/>
     <use x="656.982422" xlink:href="#DejaVuSans-99"/>
     <use x="711.962891" xlink:href="#DejaVuSans-101"/>
     <use x="773.486328" xlink:href="#DejaVuSans-115"/>
    </g>
   </g>
   <g id="text_20">
    <!-- v2.4 -->
    <g style="fill:#808080;" transform="translate(187.233062 294.151352)scale(0.1 -0.1)">
     <use xlink:href="#DejaVuSans-118"/>
     <use x="59.179688" xlink:href="#DejaVuSans-50"/>
     <use x="122.802734" xlink:href="#DejaVuSans-46"/>
     <use x="154.589844" xlink:href="#DejaVuSans-52"/>
    </g>
   </g>
   <g id="text_21">
    <!-- 21 Gallagher 101 peaks -->
    <defs>
     <path d="M 59.515625 10.40625 
L 59.515625 29.984375 
L 43.40625 29.984375 
L 43.40625 38.09375 
L 69.28125 38.09375 
L 69.28125 6.78125 
Q 63.578125 2.734375 56.6875 0.65625 
Q 49.8125 -1.421875 42 -1.421875 
Q 24.90625 -1.421875 15.25 8.5625 
Q 5.609375 18.5625 5.609375 36.375 
Q 5.609375 54.25 15.25 64.234375 
Q 24.90625 74.21875 42 74.21875 
Q 49.125 74.21875 55.546875 72.453125 
Q 61.96875 70.703125 67.390625 67.28125 
L 67.390625 56.78125 
Q 61.921875 61.421875 55.765625 63.765625 
Q 49.609375 66.109375 42.828125 66.109375 
Q 29.4375 66.109375 22.71875 58.640625 
Q 16.015625 51.171875 16.015625 36.375 
Q 16.015625 21.625 22.71875 14.15625 
Q 29.4375 6.6875 42.828125 6.6875 
Q 48.046875 6.6875 52.140625 7.59375 
Q 56.25 8.5 59.515625 10.40625 
z
" id="DejaVuSans-71"/>
     <path d="M 54.890625 33.015625 
L 54.890625 0 
L 45.90625 0 
L 45.90625 32.71875 
Q 45.90625 40.484375 42.875 44.328125 
Q 39.84375 48.1875 33.796875 48.1875 
Q 26.515625 48.1875 22.3125 43.546875 
Q 18.109375 38.921875 18.109375 30.90625 
L 18.109375 0 
L 9.078125 0 
L 9.078125 75.984375 
L 18.109375 75.984375 
L 18.109375 46.1875 
Q 21.34375 51.125 25.703125 53.5625 
Q 30.078125 56 35.796875 56 
Q 45.21875 56 50.046875 50.171875 
Q 54.890625 44.34375 54.890625 33.015625 
z
" id="DejaVuSans-104"/>
     <path d="M 9.078125 75.984375 
L 18.109375 75.984375 
L 18.109375 31.109375 
L 44.921875 54.6875 
L 56.390625 54.6875 
L 27.390625 29.109375 
L 57.625 0 
L 45.90625 0 
L 18.109375 26.703125 
L 18.109375 0 
L 9.078125 0 
z
" id="DejaVuSans-107"/>
    </defs>
    <g transform="translate(78.6565 21.648)scale(0.2 -0.2)">
     <use xlink:href="#DejaVuSans-50"/>
     <use x="63.623047" xlink:href="#DejaVuSans-49"/>
     <use x="127.246094" xlink:href="#DejaVuSans-32"/>
     <use x="159.033203" xlink:href="#DejaVuSans-71"/>
     <use x="236.523438" xlink:href="#DejaVuSans-97"/>
     <use x="297.802734" xlink:href="#DejaVuSans-108"/>
     <use x="325.585938" xlink:href="#DejaVuSans-108"/>
     <use x="353.369141" xlink:href="#DejaVuSans-97"/>
     <use x="414.648438" xlink:href="#DejaVuSans-103"/>
     <use x="478.125" xlink:href="#DejaVuSans-104"/>
     <use x="541.503906" xlink:href="#DejaVuSans-101"/>
     <use x="603.027344" xlink:href="#DejaVuSans-114"/>
     <use x="644.140625" xlink:href="#DejaVuSans-32"/>
     <use x="675.927734" xlink:href="#DejaVuSans-49"/>
     <use x="739.550781" xlink:href="#DejaVuSans-48"/>
     <use x="803.173828" xlink:href="#DejaVuSans-49"/>
     <use x="866.796875" xlink:href="#DejaVuSans-32"/>
     <use x="898.583984" xlink:href="#DejaVuSans-112"/>
     <use x="962.060547" xlink:href="#DejaVuSans-101"/>
     <use x="1023.583984" xlink:href="#DejaVuSans-97"/>
     <use x="1084.863281" xlink:href="#DejaVuSans-107"/>
     <use x="1142.773438" xlink:href="#DejaVuSans-115"/>
    </g>
   </g>
  </g>
 </g>
 <defs>
  <clipPath id="p7b56f4ccce">
   <rect height="271.296" width="281.088" x="57.6" y="27.648"/>
  </clipPath>
 </defs>
</svg>
