<?xml version="1.0" encoding="utf-8" standalone="no"?>
<!DOCTYPE svg PUBLIC "-//W3C//DTD SVG 1.1//EN"
  "http://www.w3.org/Graphics/SVG/1.1/DTD/svg11.dtd">
<!-- Created with matplotlib (https://matplotlib.org/) -->
<svg height="345.6pt" version="1.1" viewBox="0 0 460.8 345.6" width="460.8pt" xmlns="http://www.w3.org/2000/svg" xmlns:xlink="http://www.w3.org/1999/xlink">
 <defs>
  <style type="text/css">
*{stroke-linecap:butt;stroke-linejoin:round;}
  </style>
 </defs>
 <g id="figure_1">
  <g id="patch_1">
   <path d="M 0 345.6 
L 460.8 345.6 
L 460.8 0 
L 0 0 
z
" style="fill:#ffffff;"/>
  </g>
  <g id="axes_1">
   <g id="patch_2">
    <path d="M 57.6 298.944 
L 338.688 298.944 
L 338.688 27.648 
L 57.6 27.648 
z
" style="fill:#ffffff;"/>
   </g>
   <g id="line2d_1">
    <path d="M 38.440992 298.944 
L 38.440992 272.609696 
L 91.535274 272.609696 
L 91.535274 267.342835 
L 94.575872 267.342835 
L 94.575872 262.075974 
L 98.880934 262.075974 
L 98.880934 256.809114 
L 105.951954 256.809114 
L 105.951954 251.542253 
L 109.252198 251.542253 
L 109.252198 246.275392 
L 111.239304 246.275392 
L 111.239304 241.008531 
L 113.500792 241.008531 
L 113.500792 235.74167 
L 116.719583 235.74167 
L 116.719583 230.47481 
L 119.43583 230.47481 
L 119.43583 225.207949 
L 121.340187 225.207949 
L 121.340187 219.941088 
L 122.920132 219.941088 
L 122.920132 214.674227 
L 123.327293 214.674227 
L 123.327293 209.407366 
L 124.368753 209.407366 
L 124.368753 204.140506 
L 124.989434 204.140506 
L 124.989434 198.873645 
L 125.351508 198.873645 
L 125.351508 193.606784 
L 125.706218 193.606784 
L 125.706218 188.339923 
L 126.053856 188.339923 
L 126.053856 183.073062 
L 126.281824 183.073062 
L 126.281824 177.806202 
L 126.3947 177.806202 
L 126.3947 172.539341 
L 126.729009 172.539341 
L 126.729009 167.27248 
L 126.839037 167.27248 
L 126.839037 162.005619 
L 126.948374 162.005619 
L 126.948374 156.738758 
L 127.165014 156.738758 
L 127.165014 146.205037 
L 127.378995 146.205037 
L 127.378995 140.938176 
L 127.48501 140.938176 
L 127.48501 130.404454 
L 127.590383 130.404454 
L 127.590383 125.137593 
L 127.695124 125.137593 
L 127.695124 119.870733 
L 127.799239 119.870733 
L 127.799239 114.603872 
L 127.902737 114.603872 
L 127.902737 109.337011 
L 128.005624 109.337011 
L 128.005624 104.07015 
L 128.209594 104.07015 
L 128.209594 93.536429 
L 128.411207 93.536429 
L 128.411207 83.002707 
L 128.511146 83.002707 
L 128.511146 77.735846 
L 128.610515 77.735846 
L 128.610515 72.468985 
L 128.709321 72.468985 
L 128.709321 61.935264 
L 128.807571 61.935264 
L 128.807571 56.668403 
L 128.905271 56.668403 
L 128.905271 46.134681 
L 129.002426 46.134681 
L 129.002426 35.60096 
L 129.099042 35.60096 
L 129.099042 30.334099 
L 338.688 30.334099 
" style="fill:none;stroke:#f5deb3;stroke-linecap:square;stroke-width:4;"/>
   </g>
   <g id="line2d_2">
    <defs>
     <path d="M -0 7.778175 
L 7.778175 0 
L 0 -7.778175 
L -7.778175 -0 
z
" id="m1c66db3f75" style="stroke:#f5deb3;stroke-linejoin:miter;stroke-width:1.5;"/>
    </defs>
    <g>
     <use style="fill:#f5deb3;stroke:#f5deb3;stroke-linejoin:miter;stroke-width:1.5;" x="116.719583" xlink:href="#m1c66db3f75" y="235.74167"/>
     <use style="fill:#f5deb3;stroke:#f5deb3;stroke-linejoin:miter;stroke-width:1.5;" x="127.48501" xlink:href="#m1c66db3f75" y="140.938176"/>
     <use style="fill:#f5deb3;stroke:#f5deb3;stroke-linejoin:miter;stroke-width:1.5;" x="129.099042" xlink:href="#m1c66db3f75" y="35.60096"/>
     <use style="fill:#f5deb3;stroke:#f5deb3;stroke-linejoin:miter;stroke-width:1.5;" x="129.099042" xlink:href="#m1c66db3f75" y="30.334099"/>
     <use style="fill:#f5deb3;stroke:#f5deb3;stroke-linejoin:miter;stroke-width:1.5;" x="129.099042" xlink:href="#m1c66db3f75" y="30.334099"/>
     <use style="fill:#f5deb3;stroke:#f5deb3;stroke-linejoin:miter;stroke-width:1.5;" x="338.688" xlink:href="#m1c66db3f75" y="30.334099"/>
    </g>
   </g>
   <g id="line2d_3">
    <path style="fill:none;stroke:#f5deb3;stroke-linecap:square;stroke-width:4;"/>
    <g/>
   </g>
   <g id="line2d_4">
    <path d="M 338.688 30.334099 
L 369.60768 35.706297 
" style="fill:none;stroke:#f5deb3;stroke-linecap:square;stroke-width:4;"/>
    <g>
     <use style="fill:#f5deb3;stroke:#f5deb3;stroke-linejoin:miter;stroke-width:1.5;" x="338.688" xlink:href="#m1c66db3f75" y="30.334099"/>
     <use style="fill:#f5deb3;stroke:#f5deb3;stroke-linejoin:miter;stroke-width:1.5;" x="369.60768" xlink:href="#m1c66db3f75" y="35.706297"/>
    </g>
   </g>
   <g id="matplotlib.axis_1">
    <g id="xtick_1">
     <g id="line2d_5">
      <path clip-path="url(#p94379a7355)" d="M 57.6 298.944 
L 57.6 27.648 
" style="fill:none;stroke:#b0b0b0;stroke-linecap:square;stroke-width:0.8;"/>
     </g>
     <g id="line2d_6">
      <defs>
       <path d="M 0 0 
L 0 3.5 
" id="mf546f121c0" style="stroke:#000000;stroke-width:0.8;"/>
      </defs>
      <g>
       <use style="stroke:#000000;stroke-width:0.8;" x="57.6" xlink:href="#mf546f121c0" y="298.944"/>
      </g>
     </g>
     <g id="text_1">
      <!-- 0 -->
      <defs>
       <path d="M 31.78125 66.40625 
Q 24.171875 66.40625 20.328125 58.90625 
Q 16.5 51.421875 16.5 36.375 
Q 16.5 21.390625 20.328125 13.890625 
Q 24.171875 6.390625 31.78125 6.390625 
Q 39.453125 6.390625 43.28125 13.890625 
Q 47.125 21.390625 47.125 36.375 
Q 47.125 51.421875 43.28125 58.90625 
Q 39.453125 66.40625 31.78125 66.40625 
z
M 31.78125 74.21875 
Q 44.046875 74.21875 50.515625 64.515625 
Q 56.984375 54.828125 56.984375 36.375 
Q 56.984375 17.96875 50.515625 8.265625 
Q 44.046875 -1.421875 31.78125 -1.421875 
Q 19.53125 -1.421875 13.0625 8.265625 
Q 6.59375 17.96875 6.59375 36.375 
Q 6.59375 54.828125 13.0625 64.515625 
Q 19.53125 74.21875 31.78125 74.21875 
z
" id="DejaVuSans-48"/>
      </defs>
      <g transform="translate(51.2375 321.140875)scale(0.2 -0.2)">
       <use xlink:href="#DejaVuSans-48"/>
      </g>
     </g>
    </g>
    <g id="xtick_2">
     <g id="line2d_7">
      <path clip-path="url(#p94379a7355)" d="M 137.910857 298.944 
L 137.910857 27.648 
" style="fill:none;stroke:#b0b0b0;stroke-linecap:square;stroke-width:0.8;"/>
     </g>
     <g id="line2d_8">
      <g>
       <use style="stroke:#000000;stroke-width:0.8;" x="137.910857" xlink:href="#mf546f121c0" y="298.944"/>
      </g>
     </g>
     <g id="text_2">
      <!-- 2 -->
      <defs>
       <path d="M 19.1875 8.296875 
L 53.609375 8.296875 
L 53.609375 0 
L 7.328125 0 
L 7.328125 8.296875 
Q 12.9375 14.109375 22.625 23.890625 
Q 32.328125 33.6875 34.8125 36.53125 
Q 39.546875 41.84375 41.421875 45.53125 
Q 43.3125 49.21875 43.3125 52.78125 
Q 43.3125 58.59375 39.234375 62.25 
Q 35.15625 65.921875 28.609375 65.921875 
Q 23.96875 65.921875 18.8125 64.3125 
Q 13.671875 62.703125 7.8125 59.421875 
L 7.8125 69.390625 
Q 13.765625 71.78125 18.9375 73 
Q 24.125 74.21875 28.421875 74.21875 
Q 39.75 74.21875 46.484375 68.546875 
Q 53.21875 62.890625 53.21875 53.421875 
Q 53.21875 48.921875 51.53125 44.890625 
Q 49.859375 40.875 45.40625 35.40625 
Q 44.1875 33.984375 37.640625 27.21875 
Q 31.109375 20.453125 19.1875 8.296875 
z
" id="DejaVuSans-50"/>
      </defs>
      <g transform="translate(131.548357 321.140875)scale(0.2 -0.2)">
       <use xlink:href="#DejaVuSans-50"/>
      </g>
     </g>
    </g>
    <g id="xtick_3">
     <g id="line2d_9">
      <path clip-path="url(#p94379a7355)" d="M 218.221714 298.944 
L 218.221714 27.648 
" style="fill:none;stroke:#b0b0b0;stroke-linecap:square;stroke-width:0.8;"/>
     </g>
     <g id="line2d_10">
      <g>
       <use style="stroke:#000000;stroke-width:0.8;" x="218.221714" xlink:href="#mf546f121c0" y="298.944"/>
      </g>
     </g>
     <g id="text_3">
      <!-- 4 -->
      <defs>
       <path d="M 37.796875 64.3125 
L 12.890625 25.390625 
L 37.796875 25.390625 
z
M 35.203125 72.90625 
L 47.609375 72.90625 
L 47.609375 25.390625 
L 58.015625 25.390625 
L 58.015625 17.1875 
L 47.609375 17.1875 
L 47.609375 0 
L 37.796875 0 
L 37.796875 17.1875 
L 4.890625 17.1875 
L 4.890625 26.703125 
z
" id="DejaVuSans-52"/>
      </defs>
      <g transform="translate(211.859214 321.140875)scale(0.2 -0.2)">
       <use xlink:href="#DejaVuSans-52"/>
      </g>
     </g>
    </g>
    <g id="xtick_4">
     <g id="line2d_11">
      <path clip-path="url(#p94379a7355)" d="M 298.532571 298.944 
L 298.532571 27.648 
" style="fill:none;stroke:#b0b0b0;stroke-linecap:square;stroke-width:0.8;"/>
     </g>
     <g id="line2d_12">
      <g>
       <use style="stroke:#000000;stroke-width:0.8;" x="298.532571" xlink:href="#mf546f121c0" y="298.944"/>
      </g>
     </g>
     <g id="text_4">
      <!-- 6 -->
      <defs>
       <path d="M 33.015625 40.375 
Q 26.375 40.375 22.484375 35.828125 
Q 18.609375 31.296875 18.609375 23.390625 
Q 18.609375 15.53125 22.484375 10.953125 
Q 26.375 6.390625 33.015625 6.390625 
Q 39.65625 6.390625 43.53125 10.953125 
Q 47.40625 15.53125 47.40625 23.390625 
Q 47.40625 31.296875 43.53125 35.828125 
Q 39.65625 40.375 33.015625 40.375 
z
M 52.59375 71.296875 
L 52.59375 62.3125 
Q 48.875 64.0625 45.09375 64.984375 
Q 41.3125 65.921875 37.59375 65.921875 
Q 27.828125 65.921875 22.671875 59.328125 
Q 17.53125 52.734375 16.796875 39.40625 
Q 19.671875 43.65625 24.015625 45.921875 
Q 28.375 48.1875 33.59375 48.1875 
Q 44.578125 48.1875 50.953125 41.515625 
Q 57.328125 34.859375 57.328125 23.390625 
Q 57.328125 12.15625 50.6875 5.359375 
Q 44.046875 -1.421875 33.015625 -1.421875 
Q 20.359375 -1.421875 13.671875 8.265625 
Q 6.984375 17.96875 6.984375 36.375 
Q 6.984375 53.65625 15.1875 63.9375 
Q 23.390625 74.21875 37.203125 74.21875 
Q 40.921875 74.21875 44.703125 73.484375 
Q 48.484375 72.75 52.59375 71.296875 
z
" id="DejaVuSans-54"/>
      </defs>
      <g transform="translate(292.170071 321.140875)scale(0.2 -0.2)">
       <use xlink:href="#DejaVuSans-54"/>
      </g>
     </g>
    </g>
    <g id="xtick_5">
     <g id="line2d_13">
      <path clip-path="url(#p94379a7355)" d="M 97.755429 298.944 
L 97.755429 27.648 
" style="fill:none;stroke:#b0b0b0;stroke-linecap:square;stroke-width:0.8;"/>
     </g>
     <g id="line2d_14">
      <defs>
       <path d="M 0 0 
L 0 2 
" id="mb2dd6de8ed" style="stroke:#000000;stroke-width:0.6;"/>
      </defs>
      <g>
       <use style="stroke:#000000;stroke-width:0.6;" x="97.755429" xlink:href="#mb2dd6de8ed" y="298.944"/>
      </g>
     </g>
    </g>
    <g id="xtick_6">
     <g id="line2d_15">
      <path clip-path="url(#p94379a7355)" d="M 178.066286 298.944 
L 178.066286 27.648 
" style="fill:none;stroke:#b0b0b0;stroke-linecap:square;stroke-width:0.8;"/>
     </g>
     <g id="line2d_16">
      <g>
       <use style="stroke:#000000;stroke-width:0.6;" x="178.066286" xlink:href="#mb2dd6de8ed" y="298.944"/>
      </g>
     </g>
    </g>
    <g id="xtick_7">
     <g id="line2d_17">
      <path clip-path="url(#p94379a7355)" d="M 258.377143 298.944 
L 258.377143 27.648 
" style="fill:none;stroke:#b0b0b0;stroke-linecap:square;stroke-width:0.8;"/>
     </g>
     <g id="line2d_18">
      <g>
       <use style="stroke:#000000;stroke-width:0.6;" x="258.377143" xlink:href="#mb2dd6de8ed" y="298.944"/>
      </g>
     </g>
    </g>
    <g id="xtick_8">
     <g id="line2d_19">
      <path clip-path="url(#p94379a7355)" d="M 338.688 298.944 
L 338.688 27.648 
" style="fill:none;stroke:#b0b0b0;stroke-linecap:square;stroke-width:0.8;"/>
     </g>
     <g id="line2d_20">
      <g>
       <use style="stroke:#000000;stroke-width:0.6;" x="338.688" xlink:href="#mb2dd6de8ed" y="298.944"/>
      </g>
     </g>
    </g>
    <g id="text_5">
     <!-- log10(# f-evals / dimension) -->
     <defs>
      <path d="M 9.421875 75.984375 
L 18.40625 75.984375 
L 18.40625 0 
L 9.421875 0 
z
" id="DejaVuSans-108"/>
      <path d="M 30.609375 48.390625 
Q 23.390625 48.390625 19.1875 42.75 
Q 14.984375 37.109375 14.984375 27.296875 
Q 14.984375 17.484375 19.15625 11.84375 
Q 23.34375 6.203125 30.609375 6.203125 
Q 37.796875 6.203125 41.984375 11.859375 
Q 46.1875 17.53125 46.1875 27.296875 
Q 46.1875 37.015625 41.984375 42.703125 
Q 37.796875 48.390625 30.609375 48.390625 
z
M 30.609375 56 
Q 42.328125 56 49.015625 48.375 
Q 55.71875 40.765625 55.71875 27.296875 
Q 55.71875 13.875 49.015625 6.21875 
Q 42.328125 -1.421875 30.609375 -1.421875 
Q 18.84375 -1.421875 12.171875 6.21875 
Q 5.515625 13.875 5.515625 27.296875 
Q 5.515625 40.765625 12.171875 48.375 
Q 18.84375 56 30.609375 56 
z
" id="DejaVuSans-111"/>
      <path d="M 45.40625 27.984375 
Q 45.40625 37.75 41.375 43.109375 
Q 37.359375 48.484375 30.078125 48.484375 
Q 22.859375 48.484375 18.828125 43.109375 
Q 14.796875 37.75 14.796875 27.984375 
Q 14.796875 18.265625 18.828125 12.890625 
Q 22.859375 7.515625 30.078125 7.515625 
Q 37.359375 7.515625 41.375 12.890625 
Q 45.40625 18.265625 45.40625 27.984375 
z
M 54.390625 6.78125 
Q 54.390625 -7.171875 48.1875 -13.984375 
Q 42 -20.796875 29.203125 -20.796875 
Q 24.46875 -20.796875 20.265625 -20.09375 
Q 16.0625 -19.390625 12.109375 -17.921875 
L 12.109375 -9.1875 
Q 16.0625 -11.328125 19.921875 -12.34375 
Q 23.78125 -13.375 27.78125 -13.375 
Q 36.625 -13.375 41.015625 -8.765625 
Q 45.40625 -4.15625 45.40625 5.171875 
L 45.40625 9.625 
Q 42.625 4.78125 38.28125 2.390625 
Q 33.9375 0 27.875 0 
Q 17.828125 0 11.671875 7.65625 
Q 5.515625 15.328125 5.515625 27.984375 
Q 5.515625 40.671875 11.671875 48.328125 
Q 17.828125 56 27.875 56 
Q 33.9375 56 38.28125 53.609375 
Q 42.625 51.21875 45.40625 46.390625 
L 45.40625 54.6875 
L 54.390625 54.6875 
z
" id="DejaVuSans-103"/>
      <path d="M 12.40625 8.296875 
L 28.515625 8.296875 
L 28.515625 63.921875 
L 10.984375 60.40625 
L 10.984375 69.390625 
L 28.421875 72.90625 
L 38.28125 72.90625 
L 38.28125 8.296875 
L 54.390625 8.296875 
L 54.390625 0 
L 12.40625 0 
z
" id="DejaVuSans-49"/>
      <path d="M 31 75.875 
Q 24.46875 64.65625 21.28125 53.65625 
Q 18.109375 42.671875 18.109375 31.390625 
Q 18.109375 20.125 21.3125 9.0625 
Q 24.515625 -2 31 -13.1875 
L 23.1875 -13.1875 
Q 15.875 -1.703125 12.234375 9.375 
Q 8.59375 20.453125 8.59375 31.390625 
Q 8.59375 42.28125 12.203125 53.3125 
Q 15.828125 64.359375 23.1875 75.875 
z
" id="DejaVuSans-40"/>
      <path d="M 51.125 44 
L 36.921875 44 
L 32.8125 27.6875 
L 47.125 27.6875 
z
M 43.796875 71.78125 
L 38.71875 51.515625 
L 52.984375 51.515625 
L 58.109375 71.78125 
L 65.921875 71.78125 
L 60.890625 51.515625 
L 76.125 51.515625 
L 76.125 44 
L 58.984375 44 
L 54.984375 27.6875 
L 70.515625 27.6875 
L 70.515625 20.21875 
L 53.078125 20.21875 
L 48 0 
L 40.1875 0 
L 45.21875 20.21875 
L 30.90625 20.21875 
L 25.875 0 
L 18.015625 0 
L 23.09375 20.21875 
L 7.71875 20.21875 
L 7.71875 27.6875 
L 24.90625 27.6875 
L 29 44 
L 13.28125 44 
L 13.28125 51.515625 
L 30.90625 51.515625 
L 35.890625 71.78125 
z
" id="DejaVuSans-35"/>
      <path id="DejaVuSans-32"/>
      <path d="M 37.109375 75.984375 
L 37.109375 68.5 
L 28.515625 68.5 
Q 23.6875 68.5 21.796875 66.546875 
Q 19.921875 64.59375 19.921875 59.515625 
L 19.921875 54.6875 
L 34.71875 54.6875 
L 34.71875 47.703125 
L 19.921875 47.703125 
L 19.921875 0 
L 10.890625 0 
L 10.890625 47.703125 
L 2.296875 47.703125 
L 2.296875 54.6875 
L 10.890625 54.6875 
L 10.890625 58.5 
Q 10.890625 67.625 15.140625 71.796875 
Q 19.390625 75.984375 28.609375 75.984375 
z
" id="DejaVuSans-102"/>
      <path d="M 4.890625 31.390625 
L 31.203125 31.390625 
L 31.203125 23.390625 
L 4.890625 23.390625 
z
" id="DejaVuSans-45"/>
      <path d="M 56.203125 29.59375 
L 56.203125 25.203125 
L 14.890625 25.203125 
Q 15.484375 15.921875 20.484375 11.0625 
Q 25.484375 6.203125 34.421875 6.203125 
Q 39.59375 6.203125 44.453125 7.46875 
Q 49.3125 8.734375 54.109375 11.28125 
L 54.109375 2.78125 
Q 49.265625 0.734375 44.1875 -0.34375 
Q 39.109375 -1.421875 33.890625 -1.421875 
Q 20.796875 -1.421875 13.15625 6.1875 
Q 5.515625 13.8125 5.515625 26.8125 
Q 5.515625 40.234375 12.765625 48.109375 
Q 20.015625 56 32.328125 56 
Q 43.359375 56 49.78125 48.890625 
Q 56.203125 41.796875 56.203125 29.59375 
z
M 47.21875 32.234375 
Q 47.125 39.59375 43.09375 43.984375 
Q 39.0625 48.390625 32.421875 48.390625 
Q 24.90625 48.390625 20.390625 44.140625 
Q 15.875 39.890625 15.1875 32.171875 
z
" id="DejaVuSans-101"/>
      <path d="M 2.984375 54.6875 
L 12.5 54.6875 
L 29.59375 8.796875 
L 46.6875 54.6875 
L 56.203125 54.6875 
L 35.6875 0 
L 23.484375 0 
z
" id="DejaVuSans-118"/>
      <path d="M 34.28125 27.484375 
Q 23.390625 27.484375 19.1875 25 
Q 14.984375 22.515625 14.984375 16.5 
Q 14.984375 11.71875 18.140625 8.90625 
Q 21.296875 6.109375 26.703125 6.109375 
Q 34.1875 6.109375 38.703125 11.40625 
Q 43.21875 16.703125 43.21875 25.484375 
L 43.21875 27.484375 
z
M 52.203125 31.203125 
L 52.203125 0 
L 43.21875 0 
L 43.21875 8.296875 
Q 40.140625 3.328125 35.546875 0.953125 
Q 30.953125 -1.421875 24.3125 -1.421875 
Q 15.921875 -1.421875 10.953125 3.296875 
Q 6 8.015625 6 15.921875 
Q 6 25.140625 12.171875 29.828125 
Q 18.359375 34.515625 30.609375 34.515625 
L 43.21875 34.515625 
L 43.21875 35.40625 
Q 43.21875 41.609375 39.140625 45 
Q 35.0625 48.390625 27.6875 48.390625 
Q 23 48.390625 18.546875 47.265625 
Q 14.109375 46.140625 10.015625 43.890625 
L 10.015625 52.203125 
Q 14.9375 54.109375 19.578125 55.046875 
Q 24.21875 56 28.609375 56 
Q 40.484375 56 46.34375 49.84375 
Q 52.203125 43.703125 52.203125 31.203125 
z
" id="DejaVuSans-97"/>
      <path d="M 44.28125 53.078125 
L 44.28125 44.578125 
Q 40.484375 46.53125 36.375 47.5 
Q 32.28125 48.484375 27.875 48.484375 
Q 21.1875 48.484375 17.84375 46.4375 
Q 14.5 44.390625 14.5 40.28125 
Q 14.5 37.15625 16.890625 35.375 
Q 19.28125 33.59375 26.515625 31.984375 
L 29.59375 31.296875 
Q 39.15625 29.25 43.1875 25.515625 
Q 47.21875 21.78125 47.21875 15.09375 
Q 47.21875 7.46875 41.1875 3.015625 
Q 35.15625 -1.421875 24.609375 -1.421875 
Q 20.21875 -1.421875 15.453125 -0.5625 
Q 10.6875 0.296875 5.421875 2 
L 5.421875 11.28125 
Q 10.40625 8.6875 15.234375 7.390625 
Q 20.0625 6.109375 24.8125 6.109375 
Q 31.15625 6.109375 34.5625 8.28125 
Q 37.984375 10.453125 37.984375 14.40625 
Q 37.984375 18.0625 35.515625 20.015625 
Q 33.0625 21.96875 24.703125 23.78125 
L 21.578125 24.515625 
Q 13.234375 26.265625 9.515625 29.90625 
Q 5.8125 33.546875 5.8125 39.890625 
Q 5.8125 47.609375 11.28125 51.796875 
Q 16.75 56 26.8125 56 
Q 31.78125 56 36.171875 55.265625 
Q 40.578125 54.546875 44.28125 53.078125 
z
" id="DejaVuSans-115"/>
      <path d="M 25.390625 72.90625 
L 33.6875 72.90625 
L 8.296875 -9.28125 
L 0 -9.28125 
z
" id="DejaVuSans-47"/>
      <path d="M 45.40625 46.390625 
L 45.40625 75.984375 
L 54.390625 75.984375 
L 54.390625 0 
L 45.40625 0 
L 45.40625 8.203125 
Q 42.578125 3.328125 38.25 0.953125 
Q 33.9375 -1.421875 27.875 -1.421875 
Q 17.96875 -1.421875 11.734375 6.484375 
Q 5.515625 14.40625 5.515625 27.296875 
Q 5.515625 40.1875 11.734375 48.09375 
Q 17.96875 56 27.875 56 
Q 33.9375 56 38.25 53.625 
Q 42.578125 51.265625 45.40625 46.390625 
z
M 14.796875 27.296875 
Q 14.796875 17.390625 18.875 11.75 
Q 22.953125 6.109375 30.078125 6.109375 
Q 37.203125 6.109375 41.296875 11.75 
Q 45.40625 17.390625 45.40625 27.296875 
Q 45.40625 37.203125 41.296875 42.84375 
Q 37.203125 48.484375 30.078125 48.484375 
Q 22.953125 48.484375 18.875 42.84375 
Q 14.796875 37.203125 14.796875 27.296875 
z
" id="DejaVuSans-100"/>
      <path d="M 9.421875 54.6875 
L 18.40625 54.6875 
L 18.40625 0 
L 9.421875 0 
z
M 9.421875 75.984375 
L 18.40625 75.984375 
L 18.40625 64.59375 
L 9.421875 64.59375 
z
" id="DejaVuSans-105"/>
      <path d="M 52 44.1875 
Q 55.375 50.25 60.0625 53.125 
Q 64.75 56 71.09375 56 
Q 79.640625 56 84.28125 50.015625 
Q 88.921875 44.046875 88.921875 33.015625 
L 88.921875 0 
L 79.890625 0 
L 79.890625 32.71875 
Q 79.890625 40.578125 77.09375 44.375 
Q 74.3125 48.1875 68.609375 48.1875 
Q 61.625 48.1875 57.5625 43.546875 
Q 53.515625 38.921875 53.515625 30.90625 
L 53.515625 0 
L 44.484375 0 
L 44.484375 32.71875 
Q 44.484375 40.625 41.703125 44.40625 
Q 38.921875 48.1875 33.109375 48.1875 
Q 26.21875 48.1875 22.15625 43.53125 
Q 18.109375 38.875 18.109375 30.90625 
L 18.109375 0 
L 9.078125 0 
L 9.078125 54.6875 
L 18.109375 54.6875 
L 18.109375 46.1875 
Q 21.1875 51.21875 25.484375 53.609375 
Q 29.78125 56 35.6875 56 
Q 41.65625 56 45.828125 52.96875 
Q 50 49.953125 52 44.1875 
z
" id="DejaVuSans-109"/>
      <path d="M 54.890625 33.015625 
L 54.890625 0 
L 45.90625 0 
L 45.90625 32.71875 
Q 45.90625 40.484375 42.875 44.328125 
Q 39.84375 48.1875 33.796875 48.1875 
Q 26.515625 48.1875 22.3125 43.546875 
Q 18.109375 38.921875 18.109375 30.90625 
L 18.109375 0 
L 9.078125 0 
L 9.078125 54.6875 
L 18.109375 54.6875 
L 18.109375 46.1875 
Q 21.34375 51.125 25.703125 53.5625 
Q 30.078125 56 35.796875 56 
Q 45.21875 56 50.046875 50.171875 
Q 54.890625 44.34375 54.890625 33.015625 
z
" id="DejaVuSans-110"/>
      <path d="M 8.015625 75.875 
L 15.828125 75.875 
Q 23.140625 64.359375 26.78125 53.3125 
Q 30.421875 42.28125 30.421875 31.390625 
Q 30.421875 20.453125 26.78125 9.375 
Q 23.140625 -1.703125 15.828125 -13.1875 
L 8.015625 -13.1875 
Q 14.5 -2 17.703125 9.0625 
Q 20.90625 20.125 20.90625 31.390625 
Q 20.90625 42.671875 17.703125 53.65625 
Q 14.5 64.65625 8.015625 75.875 
z
" id="DejaVuSans-41"/>
     </defs>
     <g transform="translate(77.764078 342.217594)scale(0.17 -0.17)">
      <use xlink:href="#DejaVuSans-108"/>
      <use x="27.783203" xlink:href="#DejaVuSans-111"/>
      <use x="88.964844" xlink:href="#DejaVuSans-103"/>
      <use x="152.441406" xlink:href="#DejaVuSans-49"/>
      <use x="216.064453" xlink:href="#DejaVuSans-48"/>
      <use x="279.6875" xlink:href="#DejaVuSans-40"/>
      <use x="318.701172" xlink:href="#DejaVuSans-35"/>
      <use x="402.490234" xlink:href="#DejaVuSans-32"/>
      <use x="434.277344" xlink:href="#DejaVuSans-102"/>
      <use x="463.982422" xlink:href="#DejaVuSans-45"/>
      <use x="500.066406" xlink:href="#DejaVuSans-101"/>
      <use x="561.589844" xlink:href="#DejaVuSans-118"/>
      <use x="620.769531" xlink:href="#DejaVuSans-97"/>
      <use x="682.048828" xlink:href="#DejaVuSans-108"/>
      <use x="709.832031" xlink:href="#DejaVuSans-115"/>
      <use x="761.931641" xlink:href="#DejaVuSans-32"/>
      <use x="793.71875" xlink:href="#DejaVuSans-47"/>
      <use x="827.410156" xlink:href="#DejaVuSans-32"/>
      <use x="859.197266" xlink:href="#DejaVuSans-100"/>
      <use x="922.673828" xlink:href="#DejaVuSans-105"/>
      <use x="950.457031" xlink:href="#DejaVuSans-109"/>
      <use x="1047.869141" xlink:href="#DejaVuSans-101"/>
      <use x="1109.392578" xlink:href="#DejaVuSans-110"/>
      <use x="1172.771484" xlink:href="#DejaVuSans-115"/>
      <use x="1224.871094" xlink:href="#DejaVuSans-105"/>
      <use x="1252.654297" xlink:href="#DejaVuSans-111"/>
      <use x="1313.835938" xlink:href="#DejaVuSans-110"/>
      <use x="1377.214844" xlink:href="#DejaVuSans-41"/>
     </g>
    </g>
   </g>
   <g id="matplotlib.axis_2">
    <g id="ytick_1">
     <g id="line2d_21">
      <path clip-path="url(#p94379a7355)" d="M 57.6 298.944 
L 338.688 298.944 
" style="fill:none;stroke:#b0b0b0;stroke-linecap:square;stroke-width:0.8;"/>
     </g>
     <g id="line2d_22">
      <defs>
       <path d="M 0 0 
L -3.5 0 
" id="m2d13ea106b" style="stroke:#000000;stroke-width:0.8;"/>
      </defs>
      <g>
       <use style="stroke:#000000;stroke-width:0.8;" x="57.6" xlink:href="#m2d13ea106b" y="298.944"/>
      </g>
     </g>
     <g id="text_6">
      <!-- 0.0 -->
      <defs>
       <path d="M 10.6875 12.40625 
L 21 12.40625 
L 21 0 
L 10.6875 0 
z
" id="DejaVuSans-46"/>
      </defs>
      <g transform="translate(25.155 305.02275)scale(0.16 -0.16)">
       <use xlink:href="#DejaVuSans-48"/>
       <use x="63.623047" xlink:href="#DejaVuSans-46"/>
       <use x="95.410156" xlink:href="#DejaVuSans-48"/>
      </g>
     </g>
    </g>
    <g id="ytick_2">
     <g id="line2d_23">
      <path clip-path="url(#p94379a7355)" d="M 57.6 245.22202 
L 338.688 245.22202 
" style="fill:none;stroke:#b0b0b0;stroke-linecap:square;stroke-width:0.8;"/>
     </g>
     <g id="line2d_24">
      <g>
       <use style="stroke:#000000;stroke-width:0.8;" x="57.6" xlink:href="#m2d13ea106b" y="245.22202"/>
      </g>
     </g>
     <g id="text_7">
      <!-- 0.2 -->
      <g transform="translate(25.155 251.30077)scale(0.16 -0.16)">
       <use xlink:href="#DejaVuSans-48"/>
       <use x="63.623047" xlink:href="#DejaVuSans-46"/>
       <use x="95.410156" xlink:href="#DejaVuSans-50"/>
      </g>
     </g>
    </g>
    <g id="ytick_3">
     <g id="line2d_25">
      <path clip-path="url(#p94379a7355)" d="M 57.6 191.50004 
L 338.688 191.50004 
" style="fill:none;stroke:#b0b0b0;stroke-linecap:square;stroke-width:0.8;"/>
     </g>
     <g id="line2d_26">
      <g>
       <use style="stroke:#000000;stroke-width:0.8;" x="57.6" xlink:href="#m2d13ea106b" y="191.50004"/>
      </g>
     </g>
     <g id="text_8">
      <!-- 0.4 -->
      <g transform="translate(25.155 197.57879)scale(0.16 -0.16)">
       <use xlink:href="#DejaVuSans-48"/>
       <use x="63.623047" xlink:href="#DejaVuSans-46"/>
       <use x="95.410156" xlink:href="#DejaVuSans-52"/>
      </g>
     </g>
    </g>
    <g id="ytick_4">
     <g id="line2d_27">
      <path clip-path="url(#p94379a7355)" d="M 57.6 137.778059 
L 338.688 137.778059 
" style="fill:none;stroke:#b0b0b0;stroke-linecap:square;stroke-width:0.8;"/>
     </g>
     <g id="line2d_28">
      <g>
       <use style="stroke:#000000;stroke-width:0.8;" x="57.6" xlink:href="#m2d13ea106b" y="137.778059"/>
      </g>
     </g>
     <g id="text_9">
      <!-- 0.6 -->
      <g transform="translate(25.155 143.856809)scale(0.16 -0.16)">
       <use xlink:href="#DejaVuSans-48"/>
       <use x="63.623047" xlink:href="#DejaVuSans-46"/>
       <use x="95.410156" xlink:href="#DejaVuSans-54"/>
      </g>
     </g>
    </g>
    <g id="ytick_5">
     <g id="line2d_29">
      <path clip-path="url(#p94379a7355)" d="M 57.6 84.056079 
L 338.688 84.056079 
" style="fill:none;stroke:#b0b0b0;stroke-linecap:square;stroke-width:0.8;"/>
     </g>
     <g id="line2d_30">
      <g>
       <use style="stroke:#000000;stroke-width:0.8;" x="57.6" xlink:href="#m2d13ea106b" y="84.056079"/>
      </g>
     </g>
     <g id="text_10">
      <!-- 0.8 -->
      <defs>
       <path d="M 31.78125 34.625 
Q 24.75 34.625 20.71875 30.859375 
Q 16.703125 27.09375 16.703125 20.515625 
Q 16.703125 13.921875 20.71875 10.15625 
Q 24.75 6.390625 31.78125 6.390625 
Q 38.8125 6.390625 42.859375 10.171875 
Q 46.921875 13.96875 46.921875 20.515625 
Q 46.921875 27.09375 42.890625 30.859375 
Q 38.875 34.625 31.78125 34.625 
z
M 21.921875 38.8125 
Q 15.578125 40.375 12.03125 44.71875 
Q 8.5 49.078125 8.5 55.328125 
Q 8.5 64.0625 14.71875 69.140625 
Q 20.953125 74.21875 31.78125 74.21875 
Q 42.671875 74.21875 48.875 69.140625 
Q 55.078125 64.0625 55.078125 55.328125 
Q 55.078125 49.078125 51.53125 44.71875 
Q 48 40.375 41.703125 38.8125 
Q 48.828125 37.15625 52.796875 32.3125 
Q 56.78125 27.484375 56.78125 20.515625 
Q 56.78125 9.90625 50.3125 4.234375 
Q 43.84375 -1.421875 31.78125 -1.421875 
Q 19.734375 -1.421875 13.25 4.234375 
Q 6.78125 9.90625 6.78125 20.515625 
Q 6.78125 27.484375 10.78125 32.3125 
Q 14.796875 37.15625 21.921875 38.8125 
z
M 18.3125 54.390625 
Q 18.3125 48.734375 21.84375 45.5625 
Q 25.390625 42.390625 31.78125 42.390625 
Q 38.140625 42.390625 41.71875 45.5625 
Q 45.3125 48.734375 45.3125 54.390625 
Q 45.3125 60.0625 41.71875 63.234375 
Q 38.140625 66.40625 31.78125 66.40625 
Q 25.390625 66.40625 21.84375 63.234375 
Q 18.3125 60.0625 18.3125 54.390625 
z
" id="DejaVuSans-56"/>
      </defs>
      <g transform="translate(25.155 90.134829)scale(0.16 -0.16)">
       <use xlink:href="#DejaVuSans-48"/>
       <use x="63.623047" xlink:href="#DejaVuSans-46"/>
       <use x="95.410156" xlink:href="#DejaVuSans-56"/>
      </g>
     </g>
    </g>
    <g id="ytick_6">
     <g id="line2d_31">
      <path clip-path="url(#p94379a7355)" d="M 57.6 30.334099 
L 338.688 30.334099 
" style="fill:none;stroke:#b0b0b0;stroke-linecap:square;stroke-width:0.8;"/>
     </g>
     <g id="line2d_32">
      <g>
       <use style="stroke:#000000;stroke-width:0.8;" x="57.6" xlink:href="#m2d13ea106b" y="30.334099"/>
      </g>
     </g>
     <g id="text_11">
      <!-- 1.0 -->
      <g transform="translate(25.155 36.412849)scale(0.16 -0.16)">
       <use xlink:href="#DejaVuSans-49"/>
       <use x="63.623047" xlink:href="#DejaVuSans-46"/>
       <use x="95.410156" xlink:href="#DejaVuSans-48"/>
      </g>
     </g>
    </g>
    <g id="text_12">
     <!-- Fraction of function,target pairs -->
     <defs>
      <path d="M 9.8125 72.90625 
L 51.703125 72.90625 
L 51.703125 64.59375 
L 19.671875 64.59375 
L 19.671875 43.109375 
L 48.578125 43.109375 
L 48.578125 34.8125 
L 19.671875 34.8125 
L 19.671875 0 
L 9.8125 0 
z
" id="DejaVuSans-70"/>
      <path d="M 41.109375 46.296875 
Q 39.59375 47.171875 37.8125 47.578125 
Q 36.03125 48 33.890625 48 
Q 26.265625 48 22.1875 43.046875 
Q 18.109375 38.09375 18.109375 28.8125 
L 18.109375 0 
L 9.078125 0 
L 9.078125 54.6875 
L 18.109375 54.6875 
L 18.109375 46.1875 
Q 20.953125 51.171875 25.484375 53.578125 
Q 30.03125 56 36.53125 56 
Q 37.453125 56 38.578125 55.875 
Q 39.703125 55.765625 41.0625 55.515625 
z
" id="DejaVuSans-114"/>
      <path d="M 48.78125 52.59375 
L 48.78125 44.1875 
Q 44.96875 46.296875 41.140625 47.34375 
Q 37.3125 48.390625 33.40625 48.390625 
Q 24.65625 48.390625 19.8125 42.84375 
Q 14.984375 37.3125 14.984375 27.296875 
Q 14.984375 17.28125 19.8125 11.734375 
Q 24.65625 6.203125 33.40625 6.203125 
Q 37.3125 6.203125 41.140625 7.25 
Q 44.96875 8.296875 48.78125 10.40625 
L 48.78125 2.09375 
Q 45.015625 0.34375 40.984375 -0.53125 
Q 36.96875 -1.421875 32.421875 -1.421875 
Q 20.0625 -1.421875 12.78125 6.34375 
Q 5.515625 14.109375 5.515625 27.296875 
Q 5.515625 40.671875 12.859375 48.328125 
Q 20.21875 56 33.015625 56 
Q 37.15625 56 41.109375 55.140625 
Q 45.0625 54.296875 48.78125 52.59375 
z
" id="DejaVuSans-99"/>
      <path d="M 18.3125 70.21875 
L 18.3125 54.6875 
L 36.8125 54.6875 
L 36.8125 47.703125 
L 18.3125 47.703125 
L 18.3125 18.015625 
Q 18.3125 11.328125 20.140625 9.421875 
Q 21.96875 7.515625 27.59375 7.515625 
L 36.8125 7.515625 
L 36.8125 0 
L 27.59375 0 
Q 17.1875 0 13.234375 3.875 
Q 9.28125 7.765625 9.28125 18.015625 
L 9.28125 47.703125 
L 2.6875 47.703125 
L 2.6875 54.6875 
L 9.28125 54.6875 
L 9.28125 70.21875 
z
" id="DejaVuSans-116"/>
      <path d="M 8.5 21.578125 
L 8.5 54.6875 
L 17.484375 54.6875 
L 17.484375 21.921875 
Q 17.484375 14.15625 20.5 10.265625 
Q 23.53125 6.390625 29.59375 6.390625 
Q 36.859375 6.390625 41.078125 11.03125 
Q 45.3125 15.671875 45.3125 23.6875 
L 45.3125 54.6875 
L 54.296875 54.6875 
L 54.296875 0 
L 45.3125 0 
L 45.3125 8.40625 
Q 42.046875 3.421875 37.71875 1 
Q 33.40625 -1.421875 27.6875 -1.421875 
Q 18.265625 -1.421875 13.375 4.4375 
Q 8.5 10.296875 8.5 21.578125 
z
M 31.109375 56 
z
" id="DejaVuSans-117"/>
      <path d="M 11.71875 12.40625 
L 22.015625 12.40625 
L 22.015625 4 
L 14.015625 -11.625 
L 7.71875 -11.625 
L 11.71875 4 
z
" id="DejaVuSans-44"/>
      <path d="M 18.109375 8.203125 
L 18.109375 -20.796875 
L 9.078125 -20.796875 
L 9.078125 54.6875 
L 18.109375 54.6875 
L 18.109375 46.390625 
Q 20.953125 51.265625 25.265625 53.625 
Q 29.59375 56 35.59375 56 
Q 45.5625 56 51.78125 48.09375 
Q 58.015625 40.1875 58.015625 27.296875 
Q 58.015625 14.40625 51.78125 6.484375 
Q 45.5625 -1.421875 35.59375 -1.421875 
Q 29.59375 -1.421875 25.265625 0.953125 
Q 20.953125 3.328125 18.109375 8.203125 
z
M 48.6875 27.296875 
Q 48.6875 37.203125 44.609375 42.84375 
Q 40.53125 48.484375 33.40625 48.484375 
Q 26.265625 48.484375 22.1875 42.84375 
Q 18.109375 37.203125 18.109375 27.296875 
Q 18.109375 17.390625 22.1875 11.75 
Q 26.265625 6.109375 33.40625 6.109375 
Q 40.53125 6.109375 44.609375 11.75 
Q 48.6875 17.390625 48.6875 27.296875 
z
" id="DejaVuSans-112"/>
     </defs>
     <g transform="translate(17.619531 297.681)rotate(-90)scale(0.17 -0.17)">
      <use xlink:href="#DejaVuSans-70"/>
      <use x="50.269531" xlink:href="#DejaVuSans-114"/>
      <use x="91.382812" xlink:href="#DejaVuSans-97"/>
      <use x="152.662109" xlink:href="#DejaVuSans-99"/>
      <use x="207.642578" xlink:href="#DejaVuSans-116"/>
      <use x="246.851562" xlink:href="#DejaVuSans-105"/>
      <use x="274.634766" xlink:href="#DejaVuSans-111"/>
      <use x="335.816406" xlink:href="#DejaVuSans-110"/>
      <use x="399.195312" xlink:href="#DejaVuSans-32"/>
      <use x="430.982422" xlink:href="#DejaVuSans-111"/>
      <use x="492.164062" xlink:href="#DejaVuSans-102"/>
      <use x="527.369141" xlink:href="#DejaVuSans-32"/>
      <use x="559.15625" xlink:href="#DejaVuSans-102"/>
      <use x="594.361328" xlink:href="#DejaVuSans-117"/>
      <use x="657.740234" xlink:href="#DejaVuSans-110"/>
      <use x="721.119141" xlink:href="#DejaVuSans-99"/>
      <use x="776.099609" xlink:href="#DejaVuSans-116"/>
      <use x="815.308594" xlink:href="#DejaVuSans-105"/>
      <use x="843.091797" xlink:href="#DejaVuSans-111"/>
      <use x="904.273438" xlink:href="#DejaVuSans-110"/>
      <use x="967.652344" xlink:href="#DejaVuSans-44"/>
      <use x="999.439453" xlink:href="#DejaVuSans-116"/>
      <use x="1038.648438" xlink:href="#DejaVuSans-97"/>
      <use x="1099.927734" xlink:href="#DejaVuSans-114"/>
      <use x="1139.291016" xlink:href="#DejaVuSans-103"/>
      <use x="1202.767578" xlink:href="#DejaVuSans-101"/>
      <use x="1264.291016" xlink:href="#DejaVuSans-116"/>
      <use x="1303.5" xlink:href="#DejaVuSans-32"/>
      <use x="1335.287109" xlink:href="#DejaVuSans-112"/>
      <use x="1398.763672" xlink:href="#DejaVuSans-97"/>
      <use x="1460.042969" xlink:href="#DejaVuSans-105"/>
      <use x="1487.826172" xlink:href="#DejaVuSans-114"/>
      <use x="1528.939453" xlink:href="#DejaVuSans-115"/>
     </g>
    </g>
   </g>
   <g id="line2d_33">
    <defs>
     <path d="M 0 1.5 
C 0.397805 1.5 0.77937 1.341951 1.06066 1.06066 
C 1.341951 0.77937 1.5 0.397805 1.5 0 
C 1.5 -0.397805 1.341951 -0.77937 1.06066 -1.06066 
C 0.77937 -1.341951 0.397805 -1.5 0 -1.5 
C -0.397805 -1.5 -0.77937 -1.341951 -1.06066 -1.06066 
C -1.341951 -0.77937 -1.5 -0.397805 -1.5 0 
C -1.5 0.397805 -1.341951 0.77937 -1.06066 1.06066 
C -0.77937 1.341951 -0.397805 1.5 0 1.5 
z
" id="mb2ea628d10" style="stroke:#f5deb3;"/>
    </defs>
    <g>
     <use style="fill:#f5deb3;stroke:#f5deb3;" x="129.099042" xlink:href="#mb2ea628d10" y="30.334099"/>
     <use style="fill:#f5deb3;stroke:#f5deb3;" x="129.099042" xlink:href="#mb2ea628d10" y="30.334099"/>
    </g>
   </g>
   <g id="line2d_34">
    <defs>
     <path d="M 0 1.5 
C 0.397805 1.5 0.77937 1.341951 1.06066 1.06066 
C 1.341951 0.77937 1.5 0.397805 1.5 0 
C 1.5 -0.397805 1.341951 -0.77937 1.06066 -1.06066 
C 0.77937 -1.341951 0.397805 -1.5 0 -1.5 
C -0.397805 -1.5 -0.77937 -1.341951 -1.06066 -1.06066 
C -1.341951 -0.77937 -1.5 -0.397805 -1.5 0 
C -1.5 0.397805 -1.341951 0.77937 -1.06066 1.06066 
C -0.77937 1.341951 -0.397805 1.5 0 1.5 
z
" id="mf11bd43e40" style="stroke:#000080;"/>
    </defs>
    <g>
     <use style="fill:#000080;stroke:#000080;" x="251.249265" xlink:href="#mf11bd43e40" y="246.275392"/>
     <use style="fill:#000080;stroke:#000080;" x="251.249265" xlink:href="#mf11bd43e40" y="246.275392"/>
    </g>
   </g>
   <g id="line2d_35">
    <path d="M 81.775977 298.944 
L 81.775977 297.890628 
L 91.535274 297.890628 
L 91.535274 296.837256 
L 101.877879 296.837256 
L 101.877879 294.203825 
L 102.330873 294.203825 
L 102.330873 293.677139 
L 103.203018 293.677139 
L 103.203018 293.150453 
L 109.843417 293.150453 
L 109.843417 292.097081 
L 111.767808 292.097081 
L 111.767808 291.570395 
L 115.291007 291.570395 
L 115.291007 291.043709 
L 120.254726 291.043709 
L 120.254726 289.990337 
L 122.076131 289.990337 
L 122.076131 288.410278 
L 128.310692 288.410278 
L 128.310692 287.883592 
L 131.270459 287.883592 
L 131.270459 283.670104 
L 131.60746 283.670104 
L 131.60746 283.143418 
L 131.856005 283.143418 
L 131.856005 282.616732 
L 133.503183 282.616732 
L 133.503183 282.090045 
L 134.091907 282.090045 
L 134.091907 280.509987 
L 137.077422 280.509987 
L 137.077422 279.983301 
L 138.927025 279.983301 
L 138.927025 278.403243 
L 139.625765 278.403243 
L 139.625765 277.349871 
L 145.097753 277.349871 
L 145.097753 276.823185 
L 145.289185 276.823185 
L 145.289185 276.296499 
L 148.576295 276.296499 
L 148.576295 275.769812 
L 149.134896 275.769812 
L 149.134896 273.663068 
L 149.969756 273.663068 
L 149.969756 273.136382 
L 150.87737 273.136382 
L 150.87737 272.609696 
L 151.528368 272.609696 
L 151.528368 271.556324 
L 153.750233 271.556324 
L 153.750233 271.029638 
L 157.108577 271.029638 
L 157.108577 270.502952 
L 158.48363 270.502952 
L 158.48363 269.449579 
L 161.734513 269.449579 
L 161.734513 268.396207 
L 164.037234 268.396207 
L 164.037234 267.869521 
L 164.153799 267.869521 
L 164.153799 266.289463 
L 167.640438 266.289463 
L 167.640438 265.236091 
L 170.392016 265.236091 
L 170.392016 264.709405 
L 170.526891 264.709405 
L 170.526891 263.656033 
L 170.72284 263.656033 
L 170.72284 263.129347 
L 174.043535 263.129347 
L 174.043535 262.60266 
L 175.85017 262.60266 
L 175.85017 260.495916 
L 176.092705 260.495916 
L 176.092705 259.96923 
L 177.636682 259.96923 
L 177.636682 258.915858 
L 178.176386 258.915858 
L 178.176386 258.389172 
L 179.964628 258.389172 
L 179.964628 256.809114 
L 184.542078 256.809114 
L 184.542078 255.755741 
L 184.693794 255.755741 
L 184.693794 254.702369 
L 189.867081 254.702369 
L 189.867081 254.175683 
L 194.372834 254.175683 
L 194.372834 253.648997 
L 194.457066 253.648997 
L 194.457066 253.122311 
L 195.212612 253.122311 
L 195.212612 252.595625 
L 203.151162 252.595625 
L 203.151162 252.068939 
L 205.359946 252.068939 
L 205.359946 251.542253 
L 207.953689 251.542253 
L 207.953689 251.015567 
L 220.582566 251.015567 
L 220.582566 250.488881 
L 225.038603 250.488881 
L 225.038603 249.435508 
L 231.530048 249.435508 
L 231.530048 248.382136 
L 237.25412 248.382136 
L 237.25412 247.85545 
L 242.302826 247.85545 
L 242.302826 247.328764 
L 251.249265 247.328764 
L 251.249265 246.275392 
L 338.688 246.275392 
" style="fill:none;stroke:#000080;stroke-linecap:square;stroke-width:1.5;"/>
   </g>
   <g id="line2d_36">
    <defs>
     <path d="M 0 6 
C 1.591219 6 3.117479 5.367802 4.242641 4.242641 
C 5.367802 3.117479 6 1.591219 6 0 
C 6 -1.591219 5.367802 -3.117479 4.242641 -4.242641 
C 3.117479 -5.367802 1.591219 -6 0 -6 
C -1.591219 -6 -3.117479 -5.367802 -4.242641 -4.242641 
C -5.367802 -3.117479 -6 -1.591219 -6 0 
C -6 1.591219 -5.367802 3.117479 -4.242641 4.242641 
C -3.117479 5.367802 -1.591219 6 0 6 
z
" id="ma76e2594f6" style="stroke:#000080;stroke-width:1.5;"/>
    </defs>
    <g>
     <use style="fill-opacity:0;stroke:#000080;stroke-width:1.5;" x="153.750233" xlink:href="#ma76e2594f6" y="271.556324"/>
     <use style="fill-opacity:0;stroke:#000080;stroke-width:1.5;" x="220.582566" xlink:href="#ma76e2594f6" y="251.015567"/>
     <use style="fill-opacity:0;stroke:#000080;stroke-width:1.5;" x="251.249265" xlink:href="#ma76e2594f6" y="247.328764"/>
     <use style="fill-opacity:0;stroke:#000080;stroke-width:1.5;" x="251.249265" xlink:href="#ma76e2594f6" y="246.275392"/>
     <use style="fill-opacity:0;stroke:#000080;stroke-width:1.5;" x="338.688" xlink:href="#ma76e2594f6" y="246.275392"/>
    </g>
   </g>
   <g id="line2d_37">
    <path style="fill:none;stroke:#000080;stroke-linecap:square;stroke-width:1.5;"/>
    <g/>
   </g>
   <g id="line2d_38">
    <path clip-path="url(#p94379a7355)" d="M 186.974717 254.702369 
" style="fill:none;stroke:#000080;stroke-linecap:square;stroke-width:1.5;"/>
    <defs>
     <path d="M -12 12 
L 12 -12 
M -12 -12 
L 12 12 
" id="m6bf4359f4c" style="stroke:#000080;"/>
    </defs>
    <g clip-path="url(#p94379a7355)">
     <use style="fill:#000080;stroke:#000080;" x="186.974717" xlink:href="#m6bf4359f4c" y="254.702369"/>
    </g>
   </g>
   <g id="line2d_39">
    <defs>
     <path d="M 0 1.5 
C 0.397805 1.5 0.77937 1.341951 1.06066 1.06066 
C 1.341951 0.77937 1.5 0.397805 1.5 0 
C 1.5 -0.397805 1.341951 -0.77937 1.06066 -1.06066 
C 0.77937 -1.341951 0.397805 -1.5 0 -1.5 
C -0.397805 -1.5 -0.77937 -1.341951 -1.06066 -1.06066 
C -1.341951 -0.77937 -1.5 -0.397805 -1.5 0 
C -1.5 0.397805 -1.341951 0.77937 -1.06066 1.06066 
C -0.77937 1.341951 -0.397805 1.5 0 1.5 
z
" id="m636ac8d99c" style="stroke:#ff7500;"/>
    </defs>
    <g>
     <use style="fill:#ff7500;stroke:#ff7500;" x="263.942158" xlink:href="#m636ac8d99c" y="30.334099"/>
     <use style="fill:#ff7500;stroke:#ff7500;" x="263.942158" xlink:href="#m636ac8d99c" y="30.334099"/>
    </g>
   </g>
   <g id="line2d_40">
    <path d="M 86.792945 298.944 
L 86.792945 298.417314 
L 100.934985 298.417314 
L 100.934985 297.890628 
L 101.412804 297.890628 
L 101.412804 296.837256 
L 107.009204 296.837256 
L 107.009204 295.783884 
L 112.026172 295.783884 
L 112.026172 293.677139 
L 113.965867 293.677139 
L 113.965867 292.097081 
L 116.719583 292.097081 
L 116.719583 291.043709 
L 117.857331 291.043709 
L 117.857331 290.517023 
L 119.097192 290.517023 
L 119.097192 288.410278 
L 121.189196 288.410278 
L 121.189196 286.83022 
L 121.785469 286.83022 
L 121.785469 284.723476 
L 125.110962 284.723476 
L 125.110962 284.19679 
L 126.948374 284.19679 
L 126.948374 282.616732 
L 127.902737 282.616732 
L 127.902737 278.403243 
L 128.209594 278.403243 
L 128.310692 276.823185 
L 130.926816 276.823185 
L 130.926816 276.296499 
L 131.270459 276.296499 
L 131.270459 275.243126 
L 132.101058 275.243126 
L 132.101058 272.609696 
L 132.422528 272.609696 
L 132.422528 272.08301 
L 133.04822 272.08301 
L 133.04822 270.502952 
L 133.946579 270.502952 
L 133.946579 267.869521 
L 134.091907 267.869521 
L 134.091907 267.342835 
L 135.076644 267.342835 
L 135.076644 265.236091 
L 135.878591 265.236091 
L 135.878591 264.182719 
L 136.32991 264.182719 
L 136.32991 263.656033 
L 136.769843 263.656033 
L 136.769843 263.129347 
L 137.617753 263.129347 
L 137.676769 262.075974 
L 137.968891 262.075974 
L 137.968891 261.549288 
L 139.090775 261.549288 
L 139.090775 261.022602 
L 139.306744 261.022602 
L 139.306744 259.96923 
L 140.297583 259.96923 
L 140.297583 259.442544 
L 141.235139 259.442544 
L 141.235139 258.915858 
L 141.709062 258.915858 
L 141.709062 258.389172 
L 141.941279 258.389172 
L 141.941279 257.862486 
L 142.351634 257.862486 
L 142.351634 256.282427 
L 142.708461 256.282427 
L 142.708461 255.755741 
L 143.31586 255.755741 
L 143.31586 255.229055 
L 143.527762 255.229055 
L 143.527762 254.702369 
L 145.628555 254.702369 
L 145.703082 252.068939 
L 145.888018 252.068939 
L 145.888018 251.542253 
L 146.502522 251.542253 
L 146.502522 251.015567 
L 147.198794 251.015567 
L 147.198794 250.488881 
L 147.402367 250.488881 
L 147.402367 249.435508 
L 149.527485 249.435508 
L 149.527485 248.908822 
L 149.882194 248.908822 
L 149.882194 246.802078 
L 150.287105 246.802078 
L 150.287105 246.275392 
L 150.570677 246.275392 
L 150.570677 245.22202 
L 151.897188 245.22202 
L 151.897188 244.695334 
L 152.410901 244.695334 
L 152.511852 243.115275 
L 152.909913 243.115275 
L 152.909913 242.588589 
L 153.178403 242.588589 
L 153.178403 242.061903 
L 153.750233 242.061903 
L 153.750233 240.481845 
L 155.446436 240.481845 
L 155.446436 239.955159 
L 156.216093 239.955159 
L 156.216093 239.428473 
L 156.677955 239.428473 
L 156.677955 237.848415 
L 157.883783 237.848415 
L 157.883783 237.321729 
L 158.608261 237.321729 
L 158.608261 236.795043 
L 158.889829 236.795043 
L 158.976895 235.74167 
L 159.923445 235.74167 
L 159.923445 235.214984 
L 161.100288 235.214984 
L 161.100288 234.688298 
L 161.955547 234.688298 
L 161.955547 234.161612 
L 162.245966 234.161612 
L 162.245966 233.634926 
L 162.489076 233.634926 
L 162.489076 233.10824 
L 163.348054 233.10824 
L 163.348054 232.581554 
L 163.642961 232.581554 
L 163.642961 232.054868 
L 163.932963 232.054868 
L 163.932963 231.528182 
L 164.333587 231.528182 
L 164.333587 230.47481 
L 164.837283 230.47481 
L 164.837283 228.894751 
L 164.960967 228.894751 
L 164.960967 228.368065 
L 165.791279 228.368065 
L 165.791279 227.841379 
L 166.277988 227.841379 
L 166.277988 227.314693 
L 166.583849 227.314693 
L 166.583849 226.788007 
L 166.718084 226.788007 
L 166.718084 226.261321 
L 167.038282 226.261321 
L 167.038282 225.734635 
L 168.616676 225.734635 
L 168.646632 224.154577 
L 168.884444 224.154577 
L 168.884444 223.101204 
L 169.981016 223.101204 
L 170.045589 222.047832 
L 170.589478 222.047832 
L 170.589478 221.521146 
L 171.003983 221.521146 
L 171.003983 220.99446 
L 171.177424 220.99446 
L 171.177424 220.467774 
L 171.978498 220.467774 
L 171.978498 219.941088 
L 172.118046 219.941088 
L 172.118046 219.414402 
L 173.628647 219.414402 
L 173.628647 218.887716 
L 175.286698 218.887716 
L 175.286698 218.36103 
L 175.58412 218.36103 
L 175.58412 217.834344 
L 175.962024 217.834344 
L 175.962024 217.307658 
L 176.125223 217.307658 
L 176.125223 215.727599 
L 176.357578 215.727599 
L 176.357578 214.674227 
L 176.675242 214.674227 
L 176.681537 213.620855 
L 177.067432 213.620855 
L 177.067432 212.567483 
L 177.594925 212.567483 
L 177.594925 212.040797 
L 178.205245 212.040797 
L 178.205245 211.514111 
L 178.394524 211.514111 
L 178.394524 210.987425 
L 178.587413 210.987425 
L 178.587413 209.934052 
L 179.483624 209.934052 
L 179.483624 208.88068 
L 179.633043 208.88068 
L 179.633043 208.353994 
L 180.284908 208.353994 
L 180.284908 207.827308 
L 180.523841 207.827308 
L 180.523841 207.300622 
L 180.769504 207.300622 
L 180.769504 206.773936 
L 181.095021 206.773936 
L 181.095021 206.24725 
L 181.260369 206.24725 
L 181.260369 204.667192 
L 182.055136 204.667192 
L 182.055136 204.140506 
L 182.810829 204.140506 
L 182.810829 203.613819 
L 183.93412 203.613819 
L 183.942422 200.980389 
L 184.218294 200.980389 
L 184.291671 199.927017 
L 184.384984 199.927017 
L 184.433471 198.346959 
L 184.76916 198.346959 
L 184.76916 197.820273 
L 185.2185 197.820273 
L 185.2185 196.240214 
L 185.34916 196.240214 
L 185.34916 195.186842 
L 186.175396 195.186842 
L 186.175396 194.660156 
L 186.718227 194.660156 
L 186.718227 194.13347 
L 188.904313 194.13347 
L 188.904313 193.606784 
L 189.238326 193.606784 
L 189.28727 192.553412 
L 189.890703 192.553412 
L 189.890703 192.026726 
L 190.104793 192.026726 
L 190.151367 190.973354 
L 190.607566 190.973354 
L 190.700772 189.919981 
L 190.977436 189.919981 
L 190.977436 189.393295 
L 191.184147 189.393295 
L 191.293399 186.759865 
L 191.507181 186.759865 
L 191.56089 185.706493 
L 191.723688 185.706493 
L 191.723688 184.653121 
L 192.195403 184.653121 
L 192.265072 182.546376 
L 192.73008 182.546376 
L 192.73008 181.493004 
L 192.894791 181.493004 
L 192.894791 180.439632 
L 193.394279 180.439632 
L 193.394279 178.859574 
L 193.636379 178.859574 
L 193.636379 178.332888 
L 193.964164 178.332888 
L 193.964164 176.752829 
L 194.180082 176.752829 
L 194.180082 176.226143 
L 194.468417 176.226143 
L 194.54993 174.646085 
L 194.664759 174.646085 
L 194.664759 174.119399 
L 195.368495 174.119399 
L 195.430889 172.012655 
L 195.716332 172.012655 
L 195.716332 170.432596 
L 196.228493 170.432596 
L 196.228493 169.90591 
L 196.438545 169.90591 
L 196.438545 168.325852 
L 196.775818 168.325852 
L 196.775818 167.27248 
L 197.104741 167.27248 
L 197.163177 166.219108 
L 197.608591 166.219108 
L 197.612381 164.63905 
L 197.738897 164.63905 
L 197.815867 162.532305 
L 197.994771 162.532305 
L 197.994771 162.005619 
L 198.934932 162.005619 
L 198.934932 161.478933 
L 200.072292 161.478933 
L 200.072292 160.952247 
L 200.533555 160.952247 
L 200.533555 160.425561 
L 200.936005 160.425561 
L 201.018823 159.372189 
L 201.14928 159.372189 
L 201.14928 158.845503 
L 201.294121 158.845503 
L 201.399679 156.738758 
L 201.475773 156.738758 
L 201.475773 156.212072 
L 202.087531 156.212072 
L 202.176742 154.105328 
L 202.272755 154.105328 
L 202.272755 153.051956 
L 203.019618 153.051956 
L 203.080667 151.998584 
L 203.174598 151.998584 
L 203.258431 148.311781 
L 203.326847 148.311781 
L 203.412671 147.258409 
L 203.5305 147.258409 
L 203.5305 146.731723 
L 203.7598 146.731723 
L 203.7598 146.205037 
L 204.296314 146.205037 
L 204.296314 145.678351 
L 204.588385 145.678351 
L 204.588385 144.624978 
L 205.17791 144.624978 
L 205.180366 143.04492 
L 205.567746 143.04492 
L 205.608531 140.938176 
L 207.127944 140.938176 
L 207.127944 140.41149 
L 207.430599 140.41149 
L 207.505987 138.831432 
L 208.435074 138.831432 
L 208.435074 138.304745 
L 208.787089 138.304745 
L 208.787089 137.251373 
L 209.089011 137.251373 
L 209.15073 136.198001 
L 209.401226 136.198001 
L 209.401226 135.144629 
L 209.55765 135.144629 
L 209.55765 134.617943 
L 209.791101 134.617943 
L 209.887926 132.511199 
L 210.04471 132.511199 
L 210.04471 131.984513 
L 210.22678 131.984513 
L 210.22678 131.457826 
L 210.438788 131.457826 
L 210.538416 129.351082 
L 210.727941 129.351082 
L 210.758288 127.244338 
L 212.464559 127.244338 
L 212.464559 126.717652 
L 212.609518 126.717652 
L 212.609518 125.66428 
L 212.72303 125.66428 
L 212.776333 124.084221 
L 212.917946 124.084221 
L 212.917946 123.557535 
L 213.283625 123.557535 
L 213.374435 120.924105 
L 213.460956 120.924105 
L 213.460956 120.397419 
L 213.60623 120.397419 
L 213.678793 119.344047 
L 213.779577 119.344047 
L 213.779577 118.817361 
L 213.893943 118.817361 
L 213.893943 118.290674 
L 214.014225 118.290674 
L 214.065205 114.603872 
L 214.524629 114.603872 
L 214.554066 113.5505 
L 214.704778 113.5505 
L 214.704778 113.023814 
L 214.99116 113.023814 
L 214.99116 112.497128 
L 216.311163 112.497128 
L 216.311163 111.970441 
L 216.657944 111.970441 
L 216.657944 111.443755 
L 216.820594 111.443755 
L 216.843258 110.390383 
L 217.03347 110.390383 
L 217.093108 108.810325 
L 217.176014 108.810325 
L 217.270196 107.756953 
L 217.369366 107.756953 
L 217.390109 106.703581 
L 217.750354 106.703581 
L 217.815926 104.596836 
L 217.961094 104.596836 
L 217.961094 103.543464 
L 218.997679 103.543464 
L 218.997679 103.016778 
L 219.648696 103.016778 
L 219.735254 101.43672 
L 220.181988 101.43672 
L 220.199642 100.383348 
L 220.506753 100.383348 
L 220.611482 98.803289 
L 220.669674 98.803289 
L 220.669674 98.276603 
L 222.267355 98.276603 
L 222.267355 97.749917 
L 222.399149 97.749917 
L 222.399149 97.223231 
L 222.618726 97.223231 
L 222.618726 95.116487 
L 222.886362 95.116487 
L 222.886362 94.063115 
L 223.028587 94.063115 
L 223.043584 93.009743 
L 223.99462 93.009743 
L 223.99462 92.483056 
L 224.406373 92.483056 
L 224.432042 90.902998 
L 224.548503 90.902998 
L 224.602614 89.849626 
L 224.664192 89.849626 
L 224.74276 88.796254 
L 225.264421 88.796254 
L 225.264421 88.269568 
L 226.222773 88.269568 
L 226.303051 86.68951 
L 226.45127 86.68951 
L 226.510279 85.636137 
L 226.635956 85.636137 
L 226.635956 85.109451 
L 226.873301 85.109451 
L 226.873301 84.582765 
L 227.798693 84.582765 
L 227.798693 84.056079 
L 228.091277 84.056079 
L 228.091277 83.529393 
L 228.343607 83.529393 
L 228.343607 81.949335 
L 228.536762 81.949335 
L 228.536762 81.422649 
L 228.650613 81.422649 
L 228.650613 80.895963 
L 229.668199 80.895963 
L 229.745824 79.842591 
L 229.898856 79.842591 
L 229.898856 79.315904 
L 231.114279 79.315904 
L 231.193754 77.20916 
L 231.285791 77.20916 
L 231.317368 76.155788 
L 232.523206 76.155788 
L 232.557477 75.102416 
L 232.646422 75.102416 
L 232.646422 74.57573 
L 233.689864 74.57573 
L 233.790379 73.522358 
L 233.873267 73.522358 
L 233.873267 72.468985 
L 234.014148 72.468985 
L 234.062497 70.362241 
L 234.833647 70.362241 
L 234.941844 68.782183 
L 235.151401 68.782183 
L 235.22194 67.728811 
L 235.90975 67.728811 
L 235.98779 65.622066 
L 236.09492 65.622066 
L 236.09492 64.568694 
L 236.292382 64.568694 
L 236.292382 64.042008 
L 236.926077 64.042008 
L 236.955686 61.935264 
L 237.10121 61.935264 
L 237.10121 61.408578 
L 237.246506 61.408578 
L 237.294281 60.355206 
L 237.92121 60.355206 
L 238.000119 57.195089 
L 238.065263 57.195089 
L 238.176137 56.141717 
L 238.214232 56.141717 
L 238.214232 55.615031 
L 238.824837 55.615031 
L 238.83607 54.561659 
L 239.694633 54.561659 
L 239.694633 54.034973 
L 240.533292 54.034973 
L 240.533292 53.508287 
L 240.651918 53.508287 
L 240.651918 52.9816 
L 241.32373 52.9816 
L 241.32373 52.454914 
L 241.533742 52.454914 
L 241.587869 51.401542 
L 242.142086 51.401542 
L 242.193478 49.294798 
L 243.491832 49.294798 
L 243.557768 47.188054 
L 243.729203 47.188054 
L 243.729203 46.661368 
L 244.203378 46.661368 
L 244.270338 45.081309 
L 244.911075 45.081309 
L 244.911075 44.554623 
L 245.466814 44.554623 
L 245.466814 44.027937 
L 246.065786 44.027937 
L 246.065786 43.501251 
L 246.644867 43.501251 
L 246.703094 41.921193 
L 247.261724 41.921193 
L 247.261724 41.394507 
L 247.866536 41.394507 
L 247.866536 40.867821 
L 248.274969 40.867821 
L 248.277977 39.814448 
L 248.410868 39.814448 
L 248.410868 39.287762 
L 249.28277 39.287762 
L 249.28277 38.761076 
L 250.669714 38.761076 
L 250.669714 38.23439 
L 250.858069 38.23439 
L 250.858069 37.707704 
L 251.68614 37.707704 
L 251.68614 37.181018 
L 252.10759 37.181018 
L 252.10759 36.654332 
L 252.453659 36.654332 
L 252.453659 36.127646 
L 252.829307 36.127646 
L 252.829307 35.60096 
L 253.224318 35.60096 
L 253.224318 35.074274 
L 254.69033 35.074274 
L 254.69033 34.547588 
L 255.045763 34.547588 
L 255.141691 32.967529 
L 256.3992 32.967529 
L 256.3992 32.440843 
L 259.150494 32.440843 
L 259.150494 31.914157 
L 260.188358 31.914157 
L 260.188358 31.387471 
L 261.968548 31.387471 
L 261.968548 30.860785 
L 263.942158 30.860785 
L 263.942158 30.334099 
L 338.688 30.334099 
L 338.688 30.334099 
" style="fill:none;stroke:#ff7500;stroke-linecap:square;stroke-width:1.5;"/>
   </g>
   <g id="line2d_41">
    <defs>
     <path d="M 0 -6 
L -1.347084 -1.854102 
L -5.706339 -1.854102 
L -2.179628 0.708204 
L -3.526712 4.854102 
L -0 2.291796 
L 3.526712 4.854102 
L 2.179628 0.708204 
L 5.706339 -1.854102 
L 1.347084 -1.854102 
z
" id="m6504b0a636" style="stroke:#ff7500;stroke-linejoin:bevel;stroke-width:1.5;"/>
    </defs>
    <g>
     <use style="fill-opacity:0;stroke:#ff7500;stroke-linejoin:bevel;stroke-width:1.5;" x="185.2185" xlink:href="#m6504b0a636" y="197.820273"/>
     <use style="fill-opacity:0;stroke:#ff7500;stroke-linejoin:bevel;stroke-width:1.5;" x="219.735254" xlink:href="#m6504b0a636" y="101.963406"/>
     <use style="fill-opacity:0;stroke:#ff7500;stroke-linejoin:bevel;stroke-width:1.5;" x="263.942158" xlink:href="#m6504b0a636" y="30.860785"/>
     <use style="fill-opacity:0;stroke:#ff7500;stroke-linejoin:bevel;stroke-width:1.5;" x="263.942158" xlink:href="#m6504b0a636" y="30.334099"/>
     <use style="fill-opacity:0;stroke:#ff7500;stroke-linejoin:bevel;stroke-width:1.5;" x="338.688" xlink:href="#m6504b0a636" y="30.334099"/>
    </g>
   </g>
   <g id="line2d_42">
    <path style="fill:none;stroke:#ff7500;stroke-linecap:square;stroke-width:1.5;"/>
    <g/>
   </g>
   <g id="line2d_43">
    <path clip-path="url(#p94379a7355)" d="M 186.974717 194.13347 
" style="fill:none;stroke:#ff7500;stroke-linecap:square;stroke-width:1.5;"/>
    <defs>
     <path d="M -12 12 
L 12 -12 
M -12 -12 
L 12 12 
" id="m7156ecc423" style="stroke:#ff7500;"/>
    </defs>
    <g clip-path="url(#p94379a7355)">
     <use style="fill:#ff7500;stroke:#ff7500;" x="186.974717" xlink:href="#m7156ecc423" y="194.13347"/>
    </g>
   </g>
   <g id="line2d_44">
    <defs>
     <path d="M 0 1.5 
C 0.397805 1.5 0.77937 1.341951 1.06066 1.06066 
C 1.341951 0.77937 1.5 0.397805 1.5 0 
C 1.5 -0.397805 1.341951 -0.77937 1.06066 -1.06066 
C 0.77937 -1.341951 0.397805 -1.5 0 -1.5 
C -0.397805 -1.5 -0.77937 -1.341951 -1.06066 -1.06066 
C -1.341951 -0.77937 -1.5 -0.397805 -1.5 0 
C -1.5 0.397805 -1.341951 0.77937 -1.06066 1.06066 
C -0.77937 1.341951 -0.397805 1.5 0 1.5 
z
" id="m1ff19efea9" style="stroke:#6495ed;"/>
    </defs>
    <g>
     <use style="fill:#6495ed;stroke:#6495ed;" x="256.512582" xlink:href="#m1ff19efea9" y="146.205037"/>
     <use style="fill:#6495ed;stroke:#6495ed;" x="256.512582" xlink:href="#m1ff19efea9" y="146.205037"/>
    </g>
   </g>
   <g id="line2d_45">
    <path d="M 86.792945 298.944 
L 86.792945 297.890628 
L 100.934985 297.890628 
L 100.934985 297.363942 
L 101.412804 297.363942 
L 101.412804 296.31057 
L 109.843417 296.31057 
L 109.843417 294.730511 
L 111.767808 294.730511 
L 111.767808 294.203825 
L 120.093994 294.203825 
L 120.093994 293.677139 
L 120.41399 293.677139 
L 120.41399 291.570395 
L 123.192626 291.570395 
L 123.192626 288.410278 
L 124.114161 288.410278 
L 124.114161 287.883592 
L 124.241922 287.883592 
L 124.241922 287.356906 
L 124.619683 287.356906 
L 124.619683 285.250162 
L 124.743806 285.250162 
L 124.743806 280.509987 
L 125.351508 280.509987 
L 125.351508 279.456615 
L 125.470548 279.456615 
L 125.470548 278.929929 
L 126.50685 278.929929 
L 126.50685 278.403243 
L 128.709321 278.403243 
L 128.709321 276.823185 
L 129.002426 276.823185 
L 129.002426 275.769812 
L 131.270459 275.769812 
L 131.270459 274.71644 
L 132.101058 274.71644 
L 132.181982 270.502952 
L 132.262533 270.502952 
L 132.342714 266.816149 
L 132.73818 266.816149 
L 132.73818 266.289463 
L 133.04822 266.289463 
L 133.04822 264.182719 
L 134.37898 264.182719 
L 134.37898 263.656033 
L 136.769843 263.656033 
L 136.769843 263.129347 
L 136.955041 263.129347 
L 136.955041 262.60266 
L 137.077422 262.60266 
L 137.077422 261.549288 
L 137.259399 261.549288 
L 137.259399 259.442544 
L 138.141844 259.442544 
L 138.141844 258.389172 
L 138.313099 258.389172 
L 138.313099 257.862486 
L 139.413734 257.862486 
L 139.413734 256.809114 
L 139.678372 256.809114 
L 139.730821 251.542253 
L 140.093612 251.542253 
L 140.093612 251.015567 
L 140.549236 251.015567 
L 140.549236 250.488881 
L 140.846504 250.488881 
L 140.846504 249.962195 
L 141.33096 249.962195 
L 141.33096 249.435508 
L 141.568232 249.435508 
L 141.615302 248.382136 
L 142.486301 248.382136 
L 142.486301 247.85545 
L 142.619936 247.85545 
L 142.619936 247.328764 
L 143.358447 247.328764 
L 143.358447 246.275392 
L 143.820164 246.275392 
L 143.820164 245.748706 
L 145.591172 245.748706 
L 145.591172 245.22202 
L 148.857832 245.22202 
L 148.857832 244.695334 
L 148.981515 244.695334 
L 149.012299 242.061903 
L 149.407627 242.061903 
L 149.407627 241.535217 
L 150.598782 241.535217 
L 150.598782 241.008531 
L 151.314058 241.008531 
L 151.394733 239.428473 
L 152.511852 239.428473 
L 152.511852 238.901787 
L 155.015814 238.901787 
L 155.015814 238.375101 
L 155.253971 238.375101 
L 155.253971 237.848415 
L 155.657823 237.848415 
L 155.657823 237.321729 
L 157.089232 237.321729 
L 157.089232 236.268356 
L 158.213527 236.268356 
L 158.213527 235.74167 
L 159.046236 235.74167 
L 159.046236 235.214984 
L 159.490356 235.214984 
L 159.490356 234.688298 
L 159.824452 234.688298 
L 159.824452 233.634926 
L 161.100288 233.634926 
L 161.100288 233.10824 
L 161.253399 233.10824 
L 161.253399 232.581554 
L 161.630398 232.581554 
L 161.630398 231.528182 
L 161.749336 231.528182 
L 161.749336 231.001496 
L 163.375071 231.001496 
L 163.428979 228.368065 
L 163.642961 228.368065 
L 163.642961 227.841379 
L 164.205356 227.841379 
L 164.218222 226.788007 
L 164.39735 226.788007 
L 164.39735 226.261321 
L 164.637547 226.261321 
L 164.637547 224.154577 
L 165.578458 224.154577 
L 165.578458 223.627891 
L 167.395635 223.627891 
L 167.395635 223.101204 
L 167.661564 223.101204 
L 167.661564 222.047832 
L 168.11997 222.047832 
L 168.11997 221.521146 
L 168.546579 221.521146 
L 168.546579 219.941088 
L 168.972794 219.941088 
L 168.972794 219.414402 
L 170.054794 219.414402 
L 170.054794 218.887716 
L 170.5984 218.887716 
L 170.5984 217.834344 
L 171.030109 217.834344 
L 171.030109 215.200913 
L 171.8212 215.200913 
L 171.8212 214.674227 
L 172.63361 214.674227 
L 172.63361 214.147541 
L 173.00275 214.147541 
L 173.00275 213.620855 
L 173.523365 213.620855 
L 173.523365 212.567483 
L 173.970168 212.567483 
L 174.072796 211.514111 
L 174.319548 211.514111 
L 174.319548 210.987425 
L 174.851815 210.987425 
L 174.935491 209.934052 
L 175.211544 209.934052 
L 175.211544 209.407366 
L 175.564001 209.407366 
L 175.564001 208.88068 
L 176.806955 208.88068 
L 176.806955 208.353994 
L 176.987223 208.353994 
L 177.030459 206.24725 
L 177.984712 206.24725 
L 177.984712 205.193878 
L 178.297273 205.193878 
L 178.297273 204.667192 
L 178.423024 204.667192 
L 178.423024 203.087133 
L 179.537135 203.087133 
L 179.574495 202.033761 
L 179.828547 202.033761 
L 179.828547 201.507075 
L 179.98547 201.507075 
L 179.98547 200.980389 
L 180.269546 200.980389 
L 180.351324 199.400331 
L 180.669651 199.400331 
L 180.729632 198.346959 
L 181.138942 198.346959 
L 181.216753 196.240214 
L 181.318355 196.240214 
L 181.318355 195.713528 
L 181.562667 195.713528 
L 181.562667 195.186842 
L 181.911182 195.186842 
L 181.911182 194.660156 
L 182.05976 194.660156 
L 182.05976 193.606784 
L 182.207084 193.606784 
L 182.207084 193.080098 
L 182.619357 193.080098 
L 182.619357 192.026726 
L 182.779802 192.026726 
L 182.824109 189.393295 
L 183.07017 189.393295 
L 183.07017 188.866609 
L 183.183243 188.866609 
L 183.274039 186.759865 
L 183.364365 186.759865 
L 183.428598 185.179807 
L 183.838356 185.179807 
L 183.90087 184.126434 
L 183.963161 184.126434 
L 184.02936 182.01969 
L 184.401161 182.01969 
L 184.401161 180.439632 
L 184.530044 180.439632 
L 184.530044 178.859574 
L 185.34916 178.859574 
L 185.444614 177.806202 
L 185.664074 177.806202 
L 185.664074 177.279515 
L 186.102214 177.279515 
L 186.211872 175.699457 
L 186.244636 175.699457 
L 186.244636 175.172771 
L 186.389511 175.172771 
L 186.421943 174.119399 
L 186.774768 174.119399 
L 186.774768 173.066027 
L 186.887302 173.066027 
L 186.887302 172.012655 
L 195.760645 172.012655 
L 195.760645 171.485969 
L 196.063581 171.485969 
L 196.063581 170.959282 
L 197.564938 170.959282 
L 197.652134 168.852538 
L 197.804624 168.852538 
L 197.823358 167.27248 
L 198.63191 167.27248 
L 198.63191 166.745794 
L 198.963018 166.745794 
L 198.963018 166.219108 
L 205.190186 166.219108 
L 205.206133 165.165736 
L 205.317356 165.165736 
L 205.322229 164.112363 
L 205.847714 164.112363 
L 205.883134 163.058991 
L 210.780569 163.058991 
L 210.780569 161.478933 
L 211.014135 161.478933 
L 211.014135 160.425561 
L 214.549761 160.425561 
L 214.579872 159.372189 
L 214.892235 159.372189 
L 214.892235 158.845503 
L 217.756325 158.845503 
L 217.756325 158.318817 
L 223.131977 158.318817 
L 223.213814 156.212072 
L 225.129203 156.212072 
L 225.129203 155.685386 
L 227.044834 155.685386 
L 227.044834 155.1587 
L 228.714748 155.1587 
L 228.714748 154.632014 
L 230.238638 154.632014 
L 230.238638 154.105328 
L 231.640002 154.105328 
L 231.640002 153.051956 
L 235.234874 153.051956 
L 235.234874 152.52527 
L 237.299149 152.52527 
L 237.333379 150.945211 
L 240.813562 150.945211 
L 240.841549 149.891839 
L 243.075523 149.891839 
L 243.075523 149.365153 
L 247.388045 149.365153 
L 247.388045 148.838467 
L 248.953099 148.838467 
L 248.953099 147.785095 
L 250.842763 147.785095 
L 250.842763 147.258409 
L 253.72496 147.258409 
L 253.72496 146.731723 
L 256.512582 146.731723 
L 256.512582 146.205037 
L 338.688 146.205037 
L 338.688 146.205037 
" style="fill:none;stroke:#6495ed;stroke-linecap:square;stroke-width:1.5;"/>
   </g>
   <g id="line2d_46">
    <defs>
     <path d="M -0 6 
L 6 -6 
L -6 -6 
z
" id="ma9f22eb6fe" style="stroke:#6495ed;stroke-linejoin:miter;stroke-width:1.5;"/>
    </defs>
    <g>
     <use style="fill-opacity:0;stroke:#6495ed;stroke-linejoin:miter;stroke-width:1.5;" x="181.168162" xlink:href="#ma9f22eb6fe" y="197.820273"/>
     <use style="fill-opacity:0;stroke:#6495ed;stroke-linejoin:miter;stroke-width:1.5;" x="247.388045" xlink:href="#ma9f22eb6fe" y="149.365153"/>
     <use style="fill-opacity:0;stroke:#6495ed;stroke-linejoin:miter;stroke-width:1.5;" x="256.512582" xlink:href="#ma9f22eb6fe" y="146.205037"/>
     <use style="fill-opacity:0;stroke:#6495ed;stroke-linejoin:miter;stroke-width:1.5;" x="256.512582" xlink:href="#ma9f22eb6fe" y="146.205037"/>
     <use style="fill-opacity:0;stroke:#6495ed;stroke-linejoin:miter;stroke-width:1.5;" x="338.688" xlink:href="#ma9f22eb6fe" y="146.205037"/>
    </g>
   </g>
   <g id="line2d_47">
    <path style="fill:none;stroke:#6495ed;stroke-linecap:square;stroke-width:1.5;"/>
    <g/>
   </g>
   <g id="line2d_48">
    <path clip-path="url(#p94379a7355)" d="M 186.974717 172.012655 
" style="fill:none;stroke:#6495ed;stroke-linecap:square;stroke-width:1.5;"/>
    <defs>
     <path d="M -12 12 
L 12 -12 
M -12 -12 
L 12 12 
" id="mcadd0c0506" style="stroke:#6495ed;"/>
    </defs>
    <g clip-path="url(#p94379a7355)">
     <use style="fill:#6495ed;stroke:#6495ed;" x="186.974717" xlink:href="#mcadd0c0506" y="172.012655"/>
    </g>
   </g>
   <g id="line2d_49">
    <defs>
     <path d="M 0 1.5 
C 0.397805 1.5 0.77937 1.341951 1.06066 1.06066 
C 1.341951 0.77937 1.5 0.397805 1.5 0 
C 1.5 -0.397805 1.341951 -0.77937 1.06066 -1.06066 
C 0.77937 -1.341951 0.397805 -1.5 0 -1.5 
C -0.397805 -1.5 -0.77937 -1.341951 -1.06066 -1.06066 
C -1.341951 -0.77937 -1.5 -0.397805 -1.5 0 
C -1.5 0.397805 -1.341951 0.77937 -1.06066 1.06066 
C -0.77937 1.341951 -0.397805 1.5 0 1.5 
z
" id="m4cc5fc1e26" style="stroke:#ff0000;"/>
    </defs>
    <g>
     <use style="fill:#ff0000;stroke:#ff0000;" x="182.197912" xlink:href="#m4cc5fc1e26" y="30.334099"/>
     <use style="fill:#ff0000;stroke:#ff0000;" x="182.197912" xlink:href="#m4cc5fc1e26" y="30.334099"/>
    </g>
   </g>
   <g id="line2d_50">
    <path d="M 86.792945 298.944 
L 86.792945 298.417314 
L 100.934985 298.417314 
L 100.934985 297.890628 
L 101.412804 297.890628 
L 101.412804 297.363942 
L 108.640231 297.363942 
L 108.640231 293.677139 
L 116.719583 293.677139 
L 116.719583 287.883592 
L 118.039942 287.883592 
L 118.039942 286.83022 
L 118.220662 286.83022 
L 118.220662 281.036673 
L 118.399528 281.036673 
L 118.399528 280.509987 
L 118.751849 280.509987 
L 118.751849 279.456615 
L 120.093994 279.456615 
L 120.093994 278.929929 
L 123.192626 278.929929 
L 123.192626 276.296499 
L 123.985457 276.296499 
L 123.985457 273.663068 
L 124.114161 273.663068 
L 124.114161 272.609696 
L 124.368753 272.609696 
L 124.368753 272.08301 
L 124.743806 272.08301 
L 124.743806 271.556324 
L 124.989434 271.556324 
L 124.989434 269.976266 
L 125.110962 269.976266 
L 125.110962 269.449579 
L 125.23165 269.449579 
L 125.23165 268.922893 
L 125.351508 268.922893 
L 125.351508 267.342835 
L 125.470548 267.342835 
L 125.470548 265.236091 
L 127.799239 265.236091 
L 127.799239 264.709405 
L 128.610515 264.709405 
L 128.709321 263.656033 
L 129.099042 263.656033 
L 129.099042 262.075974 
L 129.667765 262.075974 
L 129.667765 261.549288 
L 130.036864 261.549288 
L 130.036864 261.022602 
L 130.576266 261.022602 
L 130.576266 260.495916 
L 131.77355 260.495916 
L 131.77355 259.96923 
L 132.342714 259.96923 
L 132.342714 257.862486 
L 133.277185 257.862486 
L 133.277185 256.809114 
L 134.661403 256.809114 
L 134.661403 256.282427 
L 134.870259 256.282427 
L 134.870259 255.755741 
L 135.615352 255.755741 
L 135.615352 255.229055 
L 135.943785 255.229055 
L 136.008736 253.122311 
L 136.137916 253.122311 
L 136.137916 252.595625 
L 137.319638 252.595625 
L 137.319638 252.068939 
L 137.735587 252.068939 
L 137.794206 250.488881 
L 138.369812 250.488881 
L 138.369812 249.962195 
L 138.538853 249.962195 
L 138.538853 248.908822 
L 138.706272 248.908822 
L 138.706272 247.85545 
L 139.199094 247.85545 
L 139.199094 246.275392 
L 140.144829 246.275392 
L 140.195896 245.22202 
L 140.499195 245.22202 
L 140.549236 244.168648 
L 141.47371 244.168648 
L 141.47371 243.641962 
L 141.755753 243.641962 
L 141.755753 242.061903 
L 142.215919 242.061903 
L 142.215919 241.535217 
L 142.619936 241.535217 
L 142.619936 241.008531 
L 143.101352 241.008531 
L 143.101352 240.481845 
L 144.430703 240.481845 
L 144.430703 239.428473 
L 145.628555 239.428473 
L 145.628555 238.901787 
L 146.216039 238.901787 
L 146.216039 238.375101 
L 146.958248 238.375101 
L 147.061745 237.321729 
L 147.198794 237.321729 
L 147.198794 236.268356 
L 147.70334 236.268356 
L 147.70334 235.74167 
L 148.576295 235.74167 
L 148.576295 235.214984 
L 149.377533 235.214984 
L 149.377533 234.688298 
L 150.457801 234.688298 
L 150.457801 233.10824 
L 150.932558 233.10824 
L 150.932558 232.581554 
L 151.60806 232.581554 
L 151.68739 231.001496 
L 152.207228 231.001496 
L 152.207228 230.47481 
L 154.529516 230.47481 
L 154.529516 229.948123 
L 154.752243 229.948123 
L 154.862549 228.894751 
L 157.262567 228.894751 
L 157.339055 226.261321 
L 158.104304 226.261321 
L 158.104304 225.734635 
L 158.819862 225.734635 
L 158.819862 225.207949 
L 159.791329 225.207949 
L 159.791329 224.681263 
L 160.474035 224.681263 
L 160.474035 224.154577 
L 161.344625 224.154577 
L 161.420284 223.101204 
L 161.510643 223.101204 
L 161.510643 222.574518 
L 162.517456 222.574518 
L 162.517456 222.047832 
L 162.79874 222.047832 
L 162.79874 221.521146 
L 163.722532 221.521146 
L 163.722532 220.99446 
L 163.906798 220.99446 
L 163.906798 218.887716 
L 164.486229 218.887716 
L 164.486229 218.36103 
L 164.650098 218.36103 
L 164.650098 217.834344 
L 164.849691 217.834344 
L 164.849691 215.727599 
L 165.096013 215.727599 
L 165.096013 215.200913 
L 166.08262 215.200913 
L 166.08262 214.674227 
L 166.471192 214.674227 
L 166.471192 214.147541 
L 166.994465 214.147541 
L 166.994465 213.620855 
L 167.201624 213.620855 
L 167.201624 213.094169 
L 167.384913 213.094169 
L 167.384913 212.567483 
L 168.006494 212.567483 
L 168.006494 212.040797 
L 168.11997 212.040797 
L 168.11997 210.987425 
L 168.324419 210.987425 
L 168.324419 210.460738 
L 168.48627 210.460738 
L 168.48627 209.934052 
L 168.626667 209.934052 
L 168.666574 208.353994 
L 169.283352 208.353994 
L 169.283352 207.827308 
L 169.60737 207.827308 
L 169.60737 207.300622 
L 170.017944 207.300622 
L 170.017944 206.773936 
L 170.526891 206.773936 
L 170.5984 204.667192 
L 170.660731 204.667192 
L 170.660731 204.140506 
L 170.819995 204.140506 
L 170.819995 203.613819 
L 171.03881 203.613819 
L 171.03881 203.087133 
L 171.254912 203.087133 
L 171.254912 202.560447 
L 171.400348 202.560447 
L 171.400348 202.033761 
L 171.578344 202.033761 
L 171.637275 200.453703 
L 171.737838 200.453703 
L 171.812882 198.873645 
L 172.20775 198.873645 
L 172.256486 197.820273 
L 172.442055 197.820273 
L 172.546075 195.713528 
L 172.657407 195.713528 
L 172.657407 195.186842 
L 172.815229 195.186842 
L 172.862299 192.553412 
L 172.948265 192.553412 
L 172.948265 190.973354 
L 173.14208 190.973354 
L 173.22668 186.759865 
L 173.295595 186.759865 
L 173.333764 182.546376 
L 173.455346 182.546376 
L 173.455346 182.01969 
L 173.621148 182.01969 
L 173.636143 180.439632 
L 173.785389 180.439632 
L 173.889107 179.38626 
L 173.918627 179.38626 
L 173.955458 177.279515 
L 174.15301 177.279515 
L 174.15301 176.752829 
L 174.276256 176.752829 
L 174.369919 174.119399 
L 174.541525 174.119399 
L 174.577064 172.539341 
L 174.676192 172.539341 
L 174.753684 169.90591 
L 174.816832 169.90591 
L 174.816832 169.379224 
L 174.928533 169.379224 
L 174.991052 168.325852 
L 175.060255 168.325852 
L 175.163549 165.692422 
L 175.184134 165.692422 
L 175.266234 164.63905 
L 175.313947 164.63905 
L 175.36153 163.058991 
L 175.510238 163.058991 
L 175.58412 158.318817 
L 175.630972 158.318817 
L 175.724302 155.1587 
L 175.77078 155.1587 
L 175.85017 153.578642 
L 175.883143 153.578642 
L 175.955464 149.365153 
L 175.994786 149.365153 
L 176.04055 146.731723 
L 176.112223 146.731723 
L 176.215951 144.098292 
L 176.319066 144.098292 
L 176.421575 134.091257 
L 176.459861 134.091257 
L 176.55521 129.877768 
L 176.643735 129.877768 
L 176.675242 126.190966 
L 176.756896 126.190966 
L 176.844405 123.030849 
L 176.894213 123.030849 
L 176.987223 121.977477 
L 177.011942 121.977477 
L 177.055116 119.344047 
L 177.141145 119.344047 
L 177.245042 116.710616 
L 177.257224 116.710616 
L 177.336204 115.130558 
L 177.38463 115.130558 
L 177.426892 112.497128 
L 177.511111 112.497128 
L 177.541091 110.390383 
L 177.636682 110.390383 
L 177.696161 107.230267 
L 177.749519 107.230267 
L 177.849864 102.490092 
L 177.861631 102.490092 
L 177.949635 97.749917 
L 177.984712 97.749917 
L 177.984712 97.223231 
L 178.245567 97.223231 
L 178.354545 95.643173 
L 178.37169 95.643173 
L 178.394524 93.009743 
L 178.530902 93.009743 
L 178.598693 83.529393 
L 178.699888 83.529393 
L 178.806073 77.735846 
L 178.822779 77.735846 
L 178.845031 75.629102 
L 179.044023 75.629102 
L 179.082454 74.57573 
L 179.219019 74.57573 
L 179.246204 71.942299 
L 179.338318 71.942299 
L 179.446068 69.835555 
L 179.478263 69.835555 
L 179.547817 66.675439 
L 179.627729 66.675439 
L 179.707275 62.46195 
L 179.749552 62.46195 
L 179.849552 60.355206 
L 179.901953 60.355206 
L 179.975052 56.668403 
L 180.068589 56.668403 
L 180.084129 52.454914 
L 180.279789 52.454914 
L 180.295143 48.768112 
L 180.417488 48.768112 
L 180.518792 44.554623 
L 180.533936 44.554623 
L 180.533936 42.974565 
L 180.784433 42.974565 
L 180.893522 40.341135 
L 180.898464 40.341135 
L 180.898464 38.761076 
L 181.177891 38.761076 
L 181.177891 37.707704 
L 181.395371 37.707704 
L 181.48161 35.074274 
L 181.562667 35.074274 
L 181.671737 32.440843 
L 181.798912 32.440843 
L 181.798912 31.914157 
L 181.925165 31.914157 
L 181.985629 30.860785 
L 182.197912 30.860785 
L 182.197912 30.334099 
L 338.688 30.334099 
L 338.688 30.334099 
" style="fill:none;stroke:#ff0000;stroke-linecap:square;stroke-width:1.5;"/>
   </g>
   <g id="line2d_51">
    <defs>
     <path d="M 0 -6 
L -5.196152 -3 
L -5.196152 3 
L -0 6 
L 5.196152 3 
L 5.196152 -3 
z
" id="m1258b4ab66" style="stroke:#ff0000;stroke-linejoin:miter;stroke-width:1.5;"/>
    </defs>
    <g>
     <use style="fill-opacity:0;stroke:#ff0000;stroke-linejoin:miter;stroke-width:1.5;" x="147.198794" xlink:href="#m1258b4ab66" y="236.268356"/>
     <use style="fill-opacity:0;stroke:#ff0000;stroke-linejoin:miter;stroke-width:1.5;" x="180.533936" xlink:href="#m1258b4ab66" y="44.554623"/>
     <use style="fill-opacity:0;stroke:#ff0000;stroke-linejoin:miter;stroke-width:1.5;" x="182.197912" xlink:href="#m1258b4ab66" y="30.334099"/>
     <use style="fill-opacity:0;stroke:#ff0000;stroke-linejoin:miter;stroke-width:1.5;" x="182.197912" xlink:href="#m1258b4ab66" y="30.334099"/>
     <use style="fill-opacity:0;stroke:#ff0000;stroke-linejoin:miter;stroke-width:1.5;" x="338.688" xlink:href="#m1258b4ab66" y="30.334099"/>
    </g>
   </g>
   <g id="line2d_52">
    <path style="fill:none;stroke:#ff0000;stroke-linecap:square;stroke-width:1.5;"/>
    <g/>
   </g>
   <g id="line2d_53">
    <path d="M 338.688 246.275392 
L 369.60768 293.571802 
" style="fill:none;stroke:#000080;stroke-linecap:square;stroke-width:1.5;"/>
    <g>
     <use style="fill-opacity:0;stroke:#000080;stroke-width:1.5;" x="338.688" xlink:href="#ma76e2594f6" y="246.275392"/>
     <use style="fill-opacity:0;stroke:#000080;stroke-width:1.5;" x="369.60768" xlink:href="#ma76e2594f6" y="293.571802"/>
    </g>
   </g>
   <g id="line2d_54">
    <path d="M 338.688 146.205037 
L 369.60768 229.105426 
" style="fill:none;stroke:#6495ed;stroke-linecap:square;stroke-width:1.5;"/>
    <g>
     <use style="fill-opacity:0;stroke:#6495ed;stroke-linejoin:miter;stroke-width:1.5;" x="338.688" xlink:href="#ma9f22eb6fe" y="146.205037"/>
     <use style="fill-opacity:0;stroke:#6495ed;stroke-linejoin:miter;stroke-width:1.5;" x="369.60768" xlink:href="#ma9f22eb6fe" y="229.105426"/>
    </g>
   </g>
   <g id="line2d_55">
    <path d="M 338.688 30.334099 
L 369.60768 164.63905 
" style="fill:none;stroke:#ff7500;stroke-linecap:square;stroke-width:1.5;"/>
    <g>
     <use style="fill-opacity:0;stroke:#ff7500;stroke-linejoin:bevel;stroke-width:1.5;" x="338.688" xlink:href="#m6504b0a636" y="30.334099"/>
     <use style="fill-opacity:0;stroke:#ff7500;stroke-linejoin:bevel;stroke-width:1.5;" x="369.60768" xlink:href="#m6504b0a636" y="164.63905"/>
    </g>
   </g>
   <g id="line2d_56">
    <path d="M 338.688 30.334099 
L 369.60768 100.172673 
" style="fill:none;stroke:#ff0000;stroke-linecap:square;stroke-width:1.5;"/>
    <g>
     <use style="fill-opacity:0;stroke:#ff0000;stroke-linejoin:miter;stroke-width:1.5;" x="338.688" xlink:href="#m1258b4ab66" y="30.334099"/>
     <use style="fill-opacity:0;stroke:#ff0000;stroke-linejoin:miter;stroke-width:1.5;" x="369.60768" xlink:href="#m1258b4ab66" y="100.172673"/>
    </g>
   </g>
   <g id="line2d_57">
    <path d="M 338.688 298.944 
L 338.688 30.334099 
" style="fill:none;stroke:#000000;stroke-linecap:square;stroke-width:1.5;"/>
   </g>
   <g id="patch_3">
    <path d="M 57.6 298.944 
L 57.6 27.648 
" style="fill:none;stroke:#000000;stroke-linecap:square;stroke-linejoin:miter;stroke-width:0.8;"/>
   </g>
   <g id="patch_4">
    <path d="M 338.688 298.944 
L 338.688 27.648 
" style="fill:none;stroke:#000000;stroke-linecap:square;stroke-linejoin:miter;stroke-width:0.8;"/>
   </g>
   <g id="patch_5">
    <path d="M 57.6 298.944 
L 338.688 298.944 
" style="fill:none;stroke:#000000;stroke-linecap:square;stroke-linejoin:miter;stroke-width:0.8;"/>
   </g>
   <g id="patch_6">
    <path d="M 57.6 27.648 
L 338.688 27.648 
" style="fill:none;stroke:#000000;stroke-linecap:square;stroke-linejoin:miter;stroke-width:0.8;"/>
   </g>
   <g id="text_13">
    <!-- ABC -->
    <defs>
     <path d="M 34.1875 63.1875 
L 20.796875 26.90625 
L 47.609375 26.90625 
z
M 28.609375 72.90625 
L 39.796875 72.90625 
L 67.578125 0 
L 57.328125 0 
L 50.6875 18.703125 
L 17.828125 18.703125 
L 11.1875 0 
L 0.78125 0 
z
" id="DejaVuSans-65"/>
     <path d="M 19.671875 34.8125 
L 19.671875 8.109375 
L 35.5 8.109375 
Q 43.453125 8.109375 47.28125 11.40625 
Q 51.125 14.703125 51.125 21.484375 
Q 51.125 28.328125 47.28125 31.5625 
Q 43.453125 34.8125 35.5 34.8125 
z
M 19.671875 64.796875 
L 19.671875 42.828125 
L 34.28125 42.828125 
Q 41.5 42.828125 45.03125 45.53125 
Q 48.578125 48.25 48.578125 53.8125 
Q 48.578125 59.328125 45.03125 62.0625 
Q 41.5 64.796875 34.28125 64.796875 
z
M 9.8125 72.90625 
L 35.015625 72.90625 
Q 46.296875 72.90625 52.390625 68.21875 
Q 58.5 63.53125 58.5 54.890625 
Q 58.5 48.1875 55.375 44.234375 
Q 52.25 40.28125 46.1875 39.3125 
Q 53.46875 37.75 57.5 32.78125 
Q 61.53125 27.828125 61.53125 20.40625 
Q 61.53125 10.640625 54.890625 5.3125 
Q 48.25 0 35.984375 0 
L 9.8125 0 
z
" id="DejaVuSans-66"/>
     <path d="M 64.40625 67.28125 
L 64.40625 56.890625 
Q 59.421875 61.53125 53.78125 63.8125 
Q 48.140625 66.109375 41.796875 66.109375 
Q 29.296875 66.109375 22.65625 58.46875 
Q 16.015625 50.828125 16.015625 36.375 
Q 16.015625 21.96875 22.65625 14.328125 
Q 29.296875 6.6875 41.796875 6.6875 
Q 48.140625 6.6875 53.78125 8.984375 
Q 59.421875 11.28125 64.40625 15.921875 
L 64.40625 5.609375 
Q 59.234375 2.09375 53.4375 0.328125 
Q 47.65625 -1.421875 41.21875 -1.421875 
Q 24.65625 -1.421875 15.125 8.703125 
Q 5.609375 18.84375 5.609375 36.375 
Q 5.609375 53.953125 15.125 64.078125 
Q 24.65625 74.21875 41.21875 74.21875 
Q 47.75 74.21875 53.53125 72.484375 
Q 59.328125 70.75 64.40625 67.28125 
z
" id="DejaVuSans-67"/>
    </defs>
    <g transform="translate(375.22944 298.262739)scale(0.17 -0.17)">
     <use xlink:href="#DejaVuSans-65"/>
     <use x="68.408203" xlink:href="#DejaVuSans-66"/>
     <use x="135.261719" xlink:href="#DejaVuSans-67"/>
    </g>
   </g>
   <g id="text_14">
    <!-- DEPSO -->
    <defs>
     <path d="M 19.671875 64.796875 
L 19.671875 8.109375 
L 31.59375 8.109375 
Q 46.6875 8.109375 53.6875 14.9375 
Q 60.6875 21.78125 60.6875 36.53125 
Q 60.6875 51.171875 53.6875 57.984375 
Q 46.6875 64.796875 31.59375 64.796875 
z
M 9.8125 72.90625 
L 30.078125 72.90625 
Q 51.265625 72.90625 61.171875 64.09375 
Q 71.09375 55.28125 71.09375 36.53125 
Q 71.09375 17.671875 61.125 8.828125 
Q 51.171875 0 30.078125 0 
L 9.8125 0 
z
" id="DejaVuSans-68"/>
     <path d="M 9.8125 72.90625 
L 55.90625 72.90625 
L 55.90625 64.59375 
L 19.671875 64.59375 
L 19.671875 43.015625 
L 54.390625 43.015625 
L 54.390625 34.71875 
L 19.671875 34.71875 
L 19.671875 8.296875 
L 56.78125 8.296875 
L 56.78125 0 
L 9.8125 0 
z
" id="DejaVuSans-69"/>
     <path d="M 19.671875 64.796875 
L 19.671875 37.40625 
L 32.078125 37.40625 
Q 38.96875 37.40625 42.71875 40.96875 
Q 46.484375 44.53125 46.484375 51.125 
Q 46.484375 57.671875 42.71875 61.234375 
Q 38.96875 64.796875 32.078125 64.796875 
z
M 9.8125 72.90625 
L 32.078125 72.90625 
Q 44.34375 72.90625 50.609375 67.359375 
Q 56.890625 61.8125 56.890625 51.125 
Q 56.890625 40.328125 50.609375 34.8125 
Q 44.34375 29.296875 32.078125 29.296875 
L 19.671875 29.296875 
L 19.671875 0 
L 9.8125 0 
z
" id="DejaVuSans-80"/>
     <path d="M 53.515625 70.515625 
L 53.515625 60.890625 
Q 47.90625 63.578125 42.921875 64.890625 
Q 37.9375 66.21875 33.296875 66.21875 
Q 25.25 66.21875 20.875 63.09375 
Q 16.5 59.96875 16.5 54.203125 
Q 16.5 49.359375 19.40625 46.890625 
Q 22.3125 44.4375 30.421875 42.921875 
L 36.375 41.703125 
Q 47.40625 39.59375 52.65625 34.296875 
Q 57.90625 29 57.90625 20.125 
Q 57.90625 9.515625 50.796875 4.046875 
Q 43.703125 -1.421875 29.984375 -1.421875 
Q 24.8125 -1.421875 18.96875 -0.25 
Q 13.140625 0.921875 6.890625 3.21875 
L 6.890625 13.375 
Q 12.890625 10.015625 18.65625 8.296875 
Q 24.421875 6.59375 29.984375 6.59375 
Q 38.421875 6.59375 43.015625 9.90625 
Q 47.609375 13.234375 47.609375 19.390625 
Q 47.609375 24.75 44.3125 27.78125 
Q 41.015625 30.8125 33.5 32.328125 
L 27.484375 33.5 
Q 16.453125 35.6875 11.515625 40.375 
Q 6.59375 45.0625 6.59375 53.421875 
Q 6.59375 63.09375 13.40625 68.65625 
Q 20.21875 74.21875 32.171875 74.21875 
Q 37.3125 74.21875 42.625 73.28125 
Q 47.953125 72.359375 53.515625 70.515625 
z
" id="DejaVuSans-83"/>
     <path d="M 39.40625 66.21875 
Q 28.65625 66.21875 22.328125 58.203125 
Q 16.015625 50.203125 16.015625 36.375 
Q 16.015625 22.609375 22.328125 14.59375 
Q 28.65625 6.59375 39.40625 6.59375 
Q 50.140625 6.59375 56.421875 14.59375 
Q 62.703125 22.609375 62.703125 36.375 
Q 62.703125 50.203125 56.421875 58.203125 
Q 50.140625 66.21875 39.40625 66.21875 
z
M 39.40625 74.21875 
Q 54.734375 74.21875 63.90625 63.9375 
Q 73.09375 53.65625 73.09375 36.375 
Q 73.09375 19.140625 63.90625 8.859375 
Q 54.734375 -1.421875 39.40625 -1.421875 
Q 24.03125 -1.421875 14.8125 8.828125 
Q 5.609375 19.09375 5.609375 36.375 
Q 5.609375 53.65625 14.8125 63.9375 
Q 24.03125 74.21875 39.40625 74.21875 
z
" id="DejaVuSans-79"/>
    </defs>
    <g transform="translate(375.22944 233.796363)scale(0.17 -0.17)">
     <use xlink:href="#DejaVuSans-68"/>
     <use x="77.001953" xlink:href="#DejaVuSans-69"/>
     <use x="140.185547" xlink:href="#DejaVuSans-80"/>
     <use x="200.488281" xlink:href="#DejaVuSans-83"/>
     <use x="263.964844" xlink:href="#DejaVuSans-79"/>
    </g>
   </g>
   <g id="text_15">
    <!-- DE -->
    <g transform="translate(375.22944 169.329987)scale(0.17 -0.17)">
     <use xlink:href="#DejaVuSans-68"/>
     <use x="77.001953" xlink:href="#DejaVuSans-69"/>
    </g>
   </g>
   <g id="text_16">
    <!-- PSO -->
    <g transform="translate(375.22944 104.863611)scale(0.17 -0.17)">
     <use xlink:href="#DejaVuSans-80"/>
     <use x="60.302734" xlink:href="#DejaVuSans-83"/>
     <use x="123.779297" xlink:href="#DejaVuSans-79"/>
    </g>
   </g>
   <g id="text_17">
    <!-- best 2009 -->
    <defs>
     <path d="M 48.6875 27.296875 
Q 48.6875 37.203125 44.609375 42.84375 
Q 40.53125 48.484375 33.40625 48.484375 
Q 26.265625 48.484375 22.1875 42.84375 
Q 18.109375 37.203125 18.109375 27.296875 
Q 18.109375 17.390625 22.1875 11.75 
Q 26.265625 6.109375 33.40625 6.109375 
Q 40.53125 6.109375 44.609375 11.75 
Q 48.6875 17.390625 48.6875 27.296875 
z
M 18.109375 46.390625 
Q 20.953125 51.265625 25.265625 53.625 
Q 29.59375 56 35.59375 56 
Q 45.5625 56 51.78125 48.09375 
Q 58.015625 40.1875 58.015625 27.296875 
Q 58.015625 14.40625 51.78125 6.484375 
Q 45.5625 -1.421875 35.59375 -1.421875 
Q 29.59375 -1.421875 25.265625 0.953125 
Q 20.953125 3.328125 18.109375 8.203125 
L 18.109375 0 
L 9.078125 0 
L 9.078125 75.984375 
L 18.109375 75.984375 
z
" id="DejaVuSans-98"/>
     <path d="M 10.984375 1.515625 
L 10.984375 10.5 
Q 14.703125 8.734375 18.5 7.8125 
Q 22.3125 6.890625 25.984375 6.890625 
Q 35.75 6.890625 40.890625 13.453125 
Q 46.046875 20.015625 46.78125 33.40625 
Q 43.953125 29.203125 39.59375 26.953125 
Q 35.25 24.703125 29.984375 24.703125 
Q 19.046875 24.703125 12.671875 31.3125 
Q 6.296875 37.9375 6.296875 49.421875 
Q 6.296875 60.640625 12.9375 67.421875 
Q 19.578125 74.21875 30.609375 74.21875 
Q 43.265625 74.21875 49.921875 64.515625 
Q 56.59375 54.828125 56.59375 36.375 
Q 56.59375 19.140625 48.40625 8.859375 
Q 40.234375 -1.421875 26.421875 -1.421875 
Q 22.703125 -1.421875 18.890625 -0.6875 
Q 15.09375 0.046875 10.984375 1.515625 
z
M 30.609375 32.421875 
Q 37.25 32.421875 41.125 36.953125 
Q 45.015625 41.5 45.015625 49.421875 
Q 45.015625 57.28125 41.125 61.84375 
Q 37.25 66.40625 30.609375 66.40625 
Q 23.96875 66.40625 20.09375 61.84375 
Q 16.21875 57.28125 16.21875 49.421875 
Q 16.21875 41.5 20.09375 36.953125 
Q 23.96875 32.421875 30.609375 32.421875 
z
" id="DejaVuSans-57"/>
    </defs>
    <g transform="translate(375.22944 40.397235)scale(0.17 -0.17)">
     <use xlink:href="#DejaVuSans-98"/>
     <use x="63.476562" xlink:href="#DejaVuSans-101"/>
     <use x="125" xlink:href="#DejaVuSans-115"/>
     <use x="177.099609" xlink:href="#DejaVuSans-116"/>
     <use x="216.308594" xlink:href="#DejaVuSans-32"/>
     <use x="248.095703" xlink:href="#DejaVuSans-50"/>
     <use x="311.71875" xlink:href="#DejaVuSans-48"/>
     <use x="375.341797" xlink:href="#DejaVuSans-48"/>
     <use x="438.964844" xlink:href="#DejaVuSans-57"/>
    </g>
   </g>
   <g id="text_18">
    <!-- bbob f9, 3-D -->
    <defs>
     <path d="M 40.578125 39.3125 
Q 47.65625 37.796875 51.625 33 
Q 55.609375 28.21875 55.609375 21.1875 
Q 55.609375 10.40625 48.1875 4.484375 
Q 40.765625 -1.421875 27.09375 -1.421875 
Q 22.515625 -1.421875 17.65625 -0.515625 
Q 12.796875 0.390625 7.625 2.203125 
L 7.625 11.71875 
Q 11.71875 9.328125 16.59375 8.109375 
Q 21.484375 6.890625 26.8125 6.890625 
Q 36.078125 6.890625 40.9375 10.546875 
Q 45.796875 14.203125 45.796875 21.1875 
Q 45.796875 27.640625 41.28125 31.265625 
Q 36.765625 34.90625 28.71875 34.90625 
L 20.21875 34.90625 
L 20.21875 43.015625 
L 29.109375 43.015625 
Q 36.375 43.015625 40.234375 45.921875 
Q 44.09375 48.828125 44.09375 54.296875 
Q 44.09375 59.90625 40.109375 62.90625 
Q 36.140625 65.921875 28.71875 65.921875 
Q 24.65625 65.921875 20.015625 65.03125 
Q 15.375 64.15625 9.8125 62.3125 
L 9.8125 71.09375 
Q 15.4375 72.65625 20.34375 73.4375 
Q 25.25 74.21875 29.59375 74.21875 
Q 40.828125 74.21875 47.359375 69.109375 
Q 53.90625 64.015625 53.90625 55.328125 
Q 53.90625 49.265625 50.4375 45.09375 
Q 46.96875 40.921875 40.578125 39.3125 
z
" id="DejaVuSans-51"/>
    </defs>
    <g transform="translate(60.41088 38.111366)scale(0.102 -0.102)">
     <use xlink:href="#DejaVuSans-98"/>
     <use x="63.476562" xlink:href="#DejaVuSans-98"/>
     <use x="126.953125" xlink:href="#DejaVuSans-111"/>
     <use x="188.134766" xlink:href="#DejaVuSans-98"/>
     <use x="251.611328" xlink:href="#DejaVuSans-32"/>
     <use x="283.398438" xlink:href="#DejaVuSans-102"/>
     <use x="318.603516" xlink:href="#DejaVuSans-57"/>
     <use x="382.226562" xlink:href="#DejaVuSans-44"/>
     <use x="414.013672" xlink:href="#DejaVuSans-32"/>
     <use x="445.800781" xlink:href="#DejaVuSans-51"/>
     <use x="509.423828" xlink:href="#DejaVuSans-45"/>
     <use x="545.507812" xlink:href="#DejaVuSans-68"/>
    </g>
    <!-- 51 targets: 100..1e-08 -->
    <defs>
     <path d="M 10.796875 72.90625 
L 49.515625 72.90625 
L 49.515625 64.59375 
L 19.828125 64.59375 
L 19.828125 46.734375 
Q 21.96875 47.46875 24.109375 47.828125 
Q 26.265625 48.1875 28.421875 48.1875 
Q 40.625 48.1875 47.75 41.5 
Q 54.890625 34.8125 54.890625 23.390625 
Q 54.890625 11.625 47.5625 5.09375 
Q 40.234375 -1.421875 26.90625 -1.421875 
Q 22.3125 -1.421875 17.546875 -0.640625 
Q 12.796875 0.140625 7.71875 1.703125 
L 7.71875 11.625 
Q 12.109375 9.234375 16.796875 8.0625 
Q 21.484375 6.890625 26.703125 6.890625 
Q 35.15625 6.890625 40.078125 11.328125 
Q 45.015625 15.765625 45.015625 23.390625 
Q 45.015625 31 40.078125 35.4375 
Q 35.15625 39.890625 26.703125 39.890625 
Q 22.75 39.890625 18.8125 39.015625 
Q 14.890625 38.140625 10.796875 36.28125 
z
" id="DejaVuSans-53"/>
     <path d="M 11.71875 12.40625 
L 22.015625 12.40625 
L 22.015625 0 
L 11.71875 0 
z
M 11.71875 51.703125 
L 22.015625 51.703125 
L 22.015625 39.3125 
L 11.71875 39.3125 
z
" id="DejaVuSans-58"/>
    </defs>
    <g transform="translate(60.41088 49.533135)scale(0.102 -0.102)">
     <use xlink:href="#DejaVuSans-53"/>
     <use x="63.623047" xlink:href="#DejaVuSans-49"/>
     <use x="127.246094" xlink:href="#DejaVuSans-32"/>
     <use x="159.033203" xlink:href="#DejaVuSans-116"/>
     <use x="198.242188" xlink:href="#DejaVuSans-97"/>
     <use x="259.521484" xlink:href="#DejaVuSans-114"/>
     <use x="298.884766" xlink:href="#DejaVuSans-103"/>
     <use x="362.361328" xlink:href="#DejaVuSans-101"/>
     <use x="423.884766" xlink:href="#DejaVuSans-116"/>
     <use x="463.09375" xlink:href="#DejaVuSans-115"/>
     <use x="515.193359" xlink:href="#DejaVuSans-58"/>
     <use x="548.884766" xlink:href="#DejaVuSans-32"/>
     <use x="580.671875" xlink:href="#DejaVuSans-49"/>
     <use x="644.294922" xlink:href="#DejaVuSans-48"/>
     <use x="707.917969" xlink:href="#DejaVuSans-48"/>
     <use x="771.541016" xlink:href="#DejaVuSans-46"/>
     <use x="803.328125" xlink:href="#DejaVuSans-46"/>
     <use x="835.115234" xlink:href="#DejaVuSans-49"/>
     <use x="898.738281" xlink:href="#DejaVuSans-101"/>
     <use x="960.261719" xlink:href="#DejaVuSans-45"/>
     <use x="996.345703" xlink:href="#DejaVuSans-48"/>
     <use x="1059.96875" xlink:href="#DejaVuSans-56"/>
    </g>
    <!-- 15 instances -->
    <g transform="translate(60.41088 60.954904)scale(0.102 -0.102)">
     <use xlink:href="#DejaVuSans-49"/>
     <use x="63.623047" xlink:href="#DejaVuSans-53"/>
     <use x="127.246094" xlink:href="#DejaVuSans-32"/>
     <use x="159.033203" xlink:href="#DejaVuSans-105"/>
     <use x="186.816406" xlink:href="#DejaVuSans-110"/>
     <use x="250.195312" xlink:href="#DejaVuSans-115"/>
     <use x="302.294922" xlink:href="#DejaVuSans-116"/>
     <use x="341.503906" xlink:href="#DejaVuSans-97"/>
     <use x="402.783203" xlink:href="#DejaVuSans-110"/>
     <use x="466.162109" xlink:href="#DejaVuSans-99"/>
     <use x="521.142578" xlink:href="#DejaVuSans-101"/>
     <use x="582.666016" xlink:href="#DejaVuSans-115"/>
    </g>
   </g>
   <g id="text_19">
    <!-- v2.4 -->
    <g style="fill:#808080;" transform="translate(187.233062 294.151352)scale(0.1 -0.1)">
     <use xlink:href="#DejaVuSans-118"/>
     <use x="59.179688" xlink:href="#DejaVuSans-50"/>
     <use x="122.802734" xlink:href="#DejaVuSans-46"/>
     <use x="154.589844" xlink:href="#DejaVuSans-52"/>
    </g>
   </g>
   <g id="text_20">
    <!-- 9 Rosenbrock rotated -->
    <defs>
     <path d="M 44.390625 34.1875 
Q 47.5625 33.109375 50.5625 29.59375 
Q 53.5625 26.078125 56.59375 19.921875 
L 66.609375 0 
L 56 0 
L 46.6875 18.703125 
Q 43.0625 26.03125 39.671875 28.421875 
Q 36.28125 30.8125 30.421875 30.8125 
L 19.671875 30.8125 
L 19.671875 0 
L 9.8125 0 
L 9.8125 72.90625 
L 32.078125 72.90625 
Q 44.578125 72.90625 50.734375 67.671875 
Q 56.890625 62.453125 56.890625 51.90625 
Q 56.890625 45.015625 53.6875 40.46875 
Q 50.484375 35.9375 44.390625 34.1875 
z
M 19.671875 64.796875 
L 19.671875 38.921875 
L 32.078125 38.921875 
Q 39.203125 38.921875 42.84375 42.21875 
Q 46.484375 45.515625 46.484375 51.90625 
Q 46.484375 58.296875 42.84375 61.546875 
Q 39.203125 64.796875 32.078125 64.796875 
z
" id="DejaVuSans-82"/>
     <path d="M 9.078125 75.984375 
L 18.109375 75.984375 
L 18.109375 31.109375 
L 44.921875 54.6875 
L 56.390625 54.6875 
L 27.390625 29.109375 
L 57.625 0 
L 45.90625 0 
L 18.109375 26.703125 
L 18.109375 0 
L 9.078125 0 
z
" id="DejaVuSans-107"/>
    </defs>
    <g transform="translate(90.990875 21.648)scale(0.2 -0.2)">
     <use xlink:href="#DejaVuSans-57"/>
     <use x="63.623047" xlink:href="#DejaVuSans-32"/>
     <use x="95.410156" xlink:href="#DejaVuSans-82"/>
     <use x="160.392578" xlink:href="#DejaVuSans-111"/>
     <use x="221.574219" xlink:href="#DejaVuSans-115"/>
     <use x="273.673828" xlink:href="#DejaVuSans-101"/>
     <use x="335.197266" xlink:href="#DejaVuSans-110"/>
     <use x="398.576172" xlink:href="#DejaVuSans-98"/>
     <use x="462.052734" xlink:href="#DejaVuSans-114"/>
     <use x="500.916016" xlink:href="#DejaVuSans-111"/>
     <use x="562.097656" xlink:href="#DejaVuSans-99"/>
     <use x="617.078125" xlink:href="#DejaVuSans-107"/>
     <use x="674.988281" xlink:href="#DejaVuSans-32"/>
     <use x="706.775391" xlink:href="#DejaVuSans-114"/>
     <use x="745.638672" xlink:href="#DejaVuSans-111"/>
     <use x="806.820312" xlink:href="#DejaVuSans-116"/>
     <use x="846.029297" xlink:href="#DejaVuSans-97"/>
     <use x="907.308594" xlink:href="#DejaVuSans-116"/>
     <use x="946.517578" xlink:href="#DejaVuSans-101"/>
     <use x="1008.041016" xlink:href="#DejaVuSans-100"/>
    </g>
   </g>
  </g>
 </g>
 <defs>
  <clipPath id="p94379a7355">
   <rect height="271.296" width="281.088" x="57.6" y="27.648"/>
  </clipPath>
 </defs>
</svg>
