<?xml version="1.0" encoding="utf-8" standalone="no"?>
<!DOCTYPE svg PUBLIC "-//W3C//DTD SVG 1.1//EN"
  "http://www.w3.org/Graphics/SVG/1.1/DTD/svg11.dtd">
<!-- Created with matplotlib (https://matplotlib.org/) -->
<svg height="345.6pt" version="1.1" viewBox="0 0 460.8 345.6" width="460.8pt" xmlns="http://www.w3.org/2000/svg" xmlns:xlink="http://www.w3.org/1999/xlink">
 <defs>
  <style type="text/css">
*{stroke-linecap:butt;stroke-linejoin:round;}
  </style>
 </defs>
 <g id="figure_1">
  <g id="patch_1">
   <path d="M 0 345.6 
L 460.8 345.6 
L 460.8 0 
L 0 0 
z
" style="fill:#ffffff;"/>
  </g>
  <g id="axes_1">
   <g id="patch_2">
    <path d="M 57.6 298.944 
L 338.688 298.944 
L 338.688 27.648 
L 57.6 27.648 
z
" style="fill:#ffffff;"/>
   </g>
   <g id="line2d_1">
    <path d="M 87.850195 298.944 
L 87.850195 293.677139 
L 91.535274 293.677139 
L 91.535274 288.410278 
L 97.755429 288.410278 
L 97.755429 283.143418 
L 101.412804 283.143418 
L 101.412804 277.876557 
L 103.623262 277.876557 
L 103.623262 272.609696 
L 106.311539 272.609696 
L 106.311539 267.342835 
L 108.326001 267.342835 
L 108.326001 262.075974 
L 109.843417 262.075974 
L 109.843417 256.809114 
L 112.531694 256.809114 
L 112.531694 251.542253 
L 114.418861 251.542253 
L 114.418861 246.275392 
L 115.917635 246.275392 
L 115.917635 241.008531 
L 116.719583 241.008531 
L 116.719583 235.74167 
L 117.857331 235.74167 
L 117.857331 230.47481 
L 118.751849 230.47481 
L 118.751849 225.207949 
L 119.43583 225.207949 
L 119.43583 219.941088 
L 120.093994 219.941088 
L 120.093994 214.674227 
L 121.489881 214.674227 
L 121.489881 209.407366 
L 122.076131 209.407366 
L 122.076131 204.140506 
L 122.503236 204.140506 
L 122.503236 198.873645 
L 123.460928 198.873645 
L 123.460928 193.606784 
L 124.114161 193.606784 
L 124.114161 188.339923 
L 124.494669 188.339923 
L 124.494669 183.073062 
L 125.110962 183.073062 
L 125.110962 177.806202 
L 129.195127 177.806202 
L 129.195127 172.539341 
L 131.099484 172.539341 
L 131.099484 167.27248 
L 132.101058 167.27248 
L 132.101058 162.005619 
L 132.581068 162.005619 
L 132.581068 156.738758 
L 132.971225 156.738758 
L 132.971225 151.471897 
L 133.72629 151.471897 
L 133.72629 146.205037 
L 134.307653 146.205037 
L 134.307653 140.938176 
L 135.076644 140.938176 
L 135.076644 135.671315 
L 135.348078 135.671315 
L 135.348078 130.404454 
L 135.747468 130.404454 
L 135.747468 125.137593 
L 136.202149 125.137593 
L 136.202149 119.870733 
L 136.456742 119.870733 
L 136.456742 114.603872 
L 136.769843 114.603872 
L 136.769843 109.337011 
L 137.138292 109.337011 
L 137.138292 104.07015 
L 137.439497 104.07015 
L 137.439497 98.803289 
L 137.735587 98.803289 
L 137.735587 93.536429 
L 138.084384 93.536429 
L 138.084384 88.269568 
L 138.313099 88.269568 
L 138.313099 83.002707 
L 138.981779 83.002707 
L 138.981779 77.735846 
L 139.783113 77.735846 
L 139.783113 72.468985 
L 140.042245 72.468985 
L 140.042245 67.202125 
L 140.44901 67.202125 
L 140.44901 61.935264 
L 141.33096 61.935264 
L 141.33096 56.668403 
L 143.101352 56.668403 
L 143.101352 51.401542 
L 143.31586 51.401542 
L 143.31586 46.134681 
L 143.820164 46.134681 
L 143.820164 40.867821 
L 144.310293 40.867821 
L 144.310293 35.60096 
L 144.589967 35.60096 
L 144.589967 30.334099 
L 338.688 30.334099 
" style="fill:none;stroke:#f5deb3;stroke-linecap:square;stroke-width:4;"/>
   </g>
   <g id="line2d_2">
    <defs>
     <path d="M -0 7.778175 
L 7.778175 0 
L 0 -7.778175 
L -7.778175 -0 
z
" id="m2d62e5e186" style="stroke:#f5deb3;stroke-linejoin:miter;stroke-width:1.5;"/>
    </defs>
    <g>
     <use style="fill:#f5deb3;stroke:#f5deb3;stroke-linejoin:miter;stroke-width:1.5;" x="135.348078" xlink:href="#m2d62e5e186" y="130.404454"/>
     <use style="fill:#f5deb3;stroke:#f5deb3;stroke-linejoin:miter;stroke-width:1.5;" x="144.589967" xlink:href="#m2d62e5e186" y="35.60096"/>
     <use style="fill:#f5deb3;stroke:#f5deb3;stroke-linejoin:miter;stroke-width:1.5;" x="144.589967" xlink:href="#m2d62e5e186" y="30.334099"/>
     <use style="fill:#f5deb3;stroke:#f5deb3;stroke-linejoin:miter;stroke-width:1.5;" x="144.589967" xlink:href="#m2d62e5e186" y="30.334099"/>
     <use style="fill:#f5deb3;stroke:#f5deb3;stroke-linejoin:miter;stroke-width:1.5;" x="338.688" xlink:href="#m2d62e5e186" y="30.334099"/>
    </g>
   </g>
   <g id="line2d_3">
    <path style="fill:none;stroke:#f5deb3;stroke-linecap:square;stroke-width:4;"/>
    <g/>
   </g>
   <g id="line2d_4">
    <path d="M 338.688 30.334099 
L 369.60768 35.706297 
" style="fill:none;stroke:#f5deb3;stroke-linecap:square;stroke-width:4;"/>
    <g>
     <use style="fill:#f5deb3;stroke:#f5deb3;stroke-linejoin:miter;stroke-width:1.5;" x="338.688" xlink:href="#m2d62e5e186" y="30.334099"/>
     <use style="fill:#f5deb3;stroke:#f5deb3;stroke-linejoin:miter;stroke-width:1.5;" x="369.60768" xlink:href="#m2d62e5e186" y="35.706297"/>
    </g>
   </g>
   <g id="matplotlib.axis_1">
    <g id="xtick_1">
     <g id="line2d_5">
      <path clip-path="url(#pbdce03061e)" d="M 57.6 298.944 
L 57.6 27.648 
" style="fill:none;stroke:#b0b0b0;stroke-linecap:square;stroke-width:0.8;"/>
     </g>
     <g id="line2d_6">
      <defs>
       <path d="M 0 0 
L 0 3.5 
" id="m2c9f6f8d8b" style="stroke:#000000;stroke-width:0.8;"/>
      </defs>
      <g>
       <use style="stroke:#000000;stroke-width:0.8;" x="57.6" xlink:href="#m2c9f6f8d8b" y="298.944"/>
      </g>
     </g>
     <g id="text_1">
      <!-- 0 -->
      <defs>
       <path d="M 31.78125 66.40625 
Q 24.171875 66.40625 20.328125 58.90625 
Q 16.5 51.421875 16.5 36.375 
Q 16.5 21.390625 20.328125 13.890625 
Q 24.171875 6.390625 31.78125 6.390625 
Q 39.453125 6.390625 43.28125 13.890625 
Q 47.125 21.390625 47.125 36.375 
Q 47.125 51.421875 43.28125 58.90625 
Q 39.453125 66.40625 31.78125 66.40625 
z
M 31.78125 74.21875 
Q 44.046875 74.21875 50.515625 64.515625 
Q 56.984375 54.828125 56.984375 36.375 
Q 56.984375 17.96875 50.515625 8.265625 
Q 44.046875 -1.421875 31.78125 -1.421875 
Q 19.53125 -1.421875 13.0625 8.265625 
Q 6.59375 17.96875 6.59375 36.375 
Q 6.59375 54.828125 13.0625 64.515625 
Q 19.53125 74.21875 31.78125 74.21875 
z
" id="DejaVuSans-48"/>
      </defs>
      <g transform="translate(51.2375 321.140875)scale(0.2 -0.2)">
       <use xlink:href="#DejaVuSans-48"/>
      </g>
     </g>
    </g>
    <g id="xtick_2">
     <g id="line2d_7">
      <path clip-path="url(#pbdce03061e)" d="M 137.910857 298.944 
L 137.910857 27.648 
" style="fill:none;stroke:#b0b0b0;stroke-linecap:square;stroke-width:0.8;"/>
     </g>
     <g id="line2d_8">
      <g>
       <use style="stroke:#000000;stroke-width:0.8;" x="137.910857" xlink:href="#m2c9f6f8d8b" y="298.944"/>
      </g>
     </g>
     <g id="text_2">
      <!-- 2 -->
      <defs>
       <path d="M 19.1875 8.296875 
L 53.609375 8.296875 
L 53.609375 0 
L 7.328125 0 
L 7.328125 8.296875 
Q 12.9375 14.109375 22.625 23.890625 
Q 32.328125 33.6875 34.8125 36.53125 
Q 39.546875 41.84375 41.421875 45.53125 
Q 43.3125 49.21875 43.3125 52.78125 
Q 43.3125 58.59375 39.234375 62.25 
Q 35.15625 65.921875 28.609375 65.921875 
Q 23.96875 65.921875 18.8125 64.3125 
Q 13.671875 62.703125 7.8125 59.421875 
L 7.8125 69.390625 
Q 13.765625 71.78125 18.9375 73 
Q 24.125 74.21875 28.421875 74.21875 
Q 39.75 74.21875 46.484375 68.546875 
Q 53.21875 62.890625 53.21875 53.421875 
Q 53.21875 48.921875 51.53125 44.890625 
Q 49.859375 40.875 45.40625 35.40625 
Q 44.1875 33.984375 37.640625 27.21875 
Q 31.109375 20.453125 19.1875 8.296875 
z
" id="DejaVuSans-50"/>
      </defs>
      <g transform="translate(131.548357 321.140875)scale(0.2 -0.2)">
       <use xlink:href="#DejaVuSans-50"/>
      </g>
     </g>
    </g>
    <g id="xtick_3">
     <g id="line2d_9">
      <path clip-path="url(#pbdce03061e)" d="M 218.221714 298.944 
L 218.221714 27.648 
" style="fill:none;stroke:#b0b0b0;stroke-linecap:square;stroke-width:0.8;"/>
     </g>
     <g id="line2d_10">
      <g>
       <use style="stroke:#000000;stroke-width:0.8;" x="218.221714" xlink:href="#m2c9f6f8d8b" y="298.944"/>
      </g>
     </g>
     <g id="text_3">
      <!-- 4 -->
      <defs>
       <path d="M 37.796875 64.3125 
L 12.890625 25.390625 
L 37.796875 25.390625 
z
M 35.203125 72.90625 
L 47.609375 72.90625 
L 47.609375 25.390625 
L 58.015625 25.390625 
L 58.015625 17.1875 
L 47.609375 17.1875 
L 47.609375 0 
L 37.796875 0 
L 37.796875 17.1875 
L 4.890625 17.1875 
L 4.890625 26.703125 
z
" id="DejaVuSans-52"/>
      </defs>
      <g transform="translate(211.859214 321.140875)scale(0.2 -0.2)">
       <use xlink:href="#DejaVuSans-52"/>
      </g>
     </g>
    </g>
    <g id="xtick_4">
     <g id="line2d_11">
      <path clip-path="url(#pbdce03061e)" d="M 298.532571 298.944 
L 298.532571 27.648 
" style="fill:none;stroke:#b0b0b0;stroke-linecap:square;stroke-width:0.8;"/>
     </g>
     <g id="line2d_12">
      <g>
       <use style="stroke:#000000;stroke-width:0.8;" x="298.532571" xlink:href="#m2c9f6f8d8b" y="298.944"/>
      </g>
     </g>
     <g id="text_4">
      <!-- 6 -->
      <defs>
       <path d="M 33.015625 40.375 
Q 26.375 40.375 22.484375 35.828125 
Q 18.609375 31.296875 18.609375 23.390625 
Q 18.609375 15.53125 22.484375 10.953125 
Q 26.375 6.390625 33.015625 6.390625 
Q 39.65625 6.390625 43.53125 10.953125 
Q 47.40625 15.53125 47.40625 23.390625 
Q 47.40625 31.296875 43.53125 35.828125 
Q 39.65625 40.375 33.015625 40.375 
z
M 52.59375 71.296875 
L 52.59375 62.3125 
Q 48.875 64.0625 45.09375 64.984375 
Q 41.3125 65.921875 37.59375 65.921875 
Q 27.828125 65.921875 22.671875 59.328125 
Q 17.53125 52.734375 16.796875 39.40625 
Q 19.671875 43.65625 24.015625 45.921875 
Q 28.375 48.1875 33.59375 48.1875 
Q 44.578125 48.1875 50.953125 41.515625 
Q 57.328125 34.859375 57.328125 23.390625 
Q 57.328125 12.15625 50.6875 5.359375 
Q 44.046875 -1.421875 33.015625 -1.421875 
Q 20.359375 -1.421875 13.671875 8.265625 
Q 6.984375 17.96875 6.984375 36.375 
Q 6.984375 53.65625 15.1875 63.9375 
Q 23.390625 74.21875 37.203125 74.21875 
Q 40.921875 74.21875 44.703125 73.484375 
Q 48.484375 72.75 52.59375 71.296875 
z
" id="DejaVuSans-54"/>
      </defs>
      <g transform="translate(292.170071 321.140875)scale(0.2 -0.2)">
       <use xlink:href="#DejaVuSans-54"/>
      </g>
     </g>
    </g>
    <g id="xtick_5">
     <g id="line2d_13">
      <path clip-path="url(#pbdce03061e)" d="M 97.755429 298.944 
L 97.755429 27.648 
" style="fill:none;stroke:#b0b0b0;stroke-linecap:square;stroke-width:0.8;"/>
     </g>
     <g id="line2d_14">
      <defs>
       <path d="M 0 0 
L 0 2 
" id="mcd97cc1d77" style="stroke:#000000;stroke-width:0.6;"/>
      </defs>
      <g>
       <use style="stroke:#000000;stroke-width:0.6;" x="97.755429" xlink:href="#mcd97cc1d77" y="298.944"/>
      </g>
     </g>
    </g>
    <g id="xtick_6">
     <g id="line2d_15">
      <path clip-path="url(#pbdce03061e)" d="M 178.066286 298.944 
L 178.066286 27.648 
" style="fill:none;stroke:#b0b0b0;stroke-linecap:square;stroke-width:0.8;"/>
     </g>
     <g id="line2d_16">
      <g>
       <use style="stroke:#000000;stroke-width:0.6;" x="178.066286" xlink:href="#mcd97cc1d77" y="298.944"/>
      </g>
     </g>
    </g>
    <g id="xtick_7">
     <g id="line2d_17">
      <path clip-path="url(#pbdce03061e)" d="M 258.377143 298.944 
L 258.377143 27.648 
" style="fill:none;stroke:#b0b0b0;stroke-linecap:square;stroke-width:0.8;"/>
     </g>
     <g id="line2d_18">
      <g>
       <use style="stroke:#000000;stroke-width:0.6;" x="258.377143" xlink:href="#mcd97cc1d77" y="298.944"/>
      </g>
     </g>
    </g>
    <g id="xtick_8">
     <g id="line2d_19">
      <path clip-path="url(#pbdce03061e)" d="M 338.688 298.944 
L 338.688 27.648 
" style="fill:none;stroke:#b0b0b0;stroke-linecap:square;stroke-width:0.8;"/>
     </g>
     <g id="line2d_20">
      <g>
       <use style="stroke:#000000;stroke-width:0.6;" x="338.688" xlink:href="#mcd97cc1d77" y="298.944"/>
      </g>
     </g>
    </g>
    <g id="text_5">
     <!-- log10(# f-evals / dimension) -->
     <defs>
      <path d="M 9.421875 75.984375 
L 18.40625 75.984375 
L 18.40625 0 
L 9.421875 0 
z
" id="DejaVuSans-108"/>
      <path d="M 30.609375 48.390625 
Q 23.390625 48.390625 19.1875 42.75 
Q 14.984375 37.109375 14.984375 27.296875 
Q 14.984375 17.484375 19.15625 11.84375 
Q 23.34375 6.203125 30.609375 6.203125 
Q 37.796875 6.203125 41.984375 11.859375 
Q 46.1875 17.53125 46.1875 27.296875 
Q 46.1875 37.015625 41.984375 42.703125 
Q 37.796875 48.390625 30.609375 48.390625 
z
M 30.609375 56 
Q 42.328125 56 49.015625 48.375 
Q 55.71875 40.765625 55.71875 27.296875 
Q 55.71875 13.875 49.015625 6.21875 
Q 42.328125 -1.421875 30.609375 -1.421875 
Q 18.84375 -1.421875 12.171875 6.21875 
Q 5.515625 13.875 5.515625 27.296875 
Q 5.515625 40.765625 12.171875 48.375 
Q 18.84375 56 30.609375 56 
z
" id="DejaVuSans-111"/>
      <path d="M 45.40625 27.984375 
Q 45.40625 37.75 41.375 43.109375 
Q 37.359375 48.484375 30.078125 48.484375 
Q 22.859375 48.484375 18.828125 43.109375 
Q 14.796875 37.75 14.796875 27.984375 
Q 14.796875 18.265625 18.828125 12.890625 
Q 22.859375 7.515625 30.078125 7.515625 
Q 37.359375 7.515625 41.375 12.890625 
Q 45.40625 18.265625 45.40625 27.984375 
z
M 54.390625 6.78125 
Q 54.390625 -7.171875 48.1875 -13.984375 
Q 42 -20.796875 29.203125 -20.796875 
Q 24.46875 -20.796875 20.265625 -20.09375 
Q 16.0625 -19.390625 12.109375 -17.921875 
L 12.109375 -9.1875 
Q 16.0625 -11.328125 19.921875 -12.34375 
Q 23.78125 -13.375 27.78125 -13.375 
Q 36.625 -13.375 41.015625 -8.765625 
Q 45.40625 -4.15625 45.40625 5.171875 
L 45.40625 9.625 
Q 42.625 4.78125 38.28125 2.390625 
Q 33.9375 0 27.875 0 
Q 17.828125 0 11.671875 7.65625 
Q 5.515625 15.328125 5.515625 27.984375 
Q 5.515625 40.671875 11.671875 48.328125 
Q 17.828125 56 27.875 56 
Q 33.9375 56 38.28125 53.609375 
Q 42.625 51.21875 45.40625 46.390625 
L 45.40625 54.6875 
L 54.390625 54.6875 
z
" id="DejaVuSans-103"/>
      <path d="M 12.40625 8.296875 
L 28.515625 8.296875 
L 28.515625 63.921875 
L 10.984375 60.40625 
L 10.984375 69.390625 
L 28.421875 72.90625 
L 38.28125 72.90625 
L 38.28125 8.296875 
L 54.390625 8.296875 
L 54.390625 0 
L 12.40625 0 
z
" id="DejaVuSans-49"/>
      <path d="M 31 75.875 
Q 24.46875 64.65625 21.28125 53.65625 
Q 18.109375 42.671875 18.109375 31.390625 
Q 18.109375 20.125 21.3125 9.0625 
Q 24.515625 -2 31 -13.1875 
L 23.1875 -13.1875 
Q 15.875 -1.703125 12.234375 9.375 
Q 8.59375 20.453125 8.59375 31.390625 
Q 8.59375 42.28125 12.203125 53.3125 
Q 15.828125 64.359375 23.1875 75.875 
z
" id="DejaVuSans-40"/>
      <path d="M 51.125 44 
L 36.921875 44 
L 32.8125 27.6875 
L 47.125 27.6875 
z
M 43.796875 71.78125 
L 38.71875 51.515625 
L 52.984375 51.515625 
L 58.109375 71.78125 
L 65.921875 71.78125 
L 60.890625 51.515625 
L 76.125 51.515625 
L 76.125 44 
L 58.984375 44 
L 54.984375 27.6875 
L 70.515625 27.6875 
L 70.515625 20.21875 
L 53.078125 20.21875 
L 48 0 
L 40.1875 0 
L 45.21875 20.21875 
L 30.90625 20.21875 
L 25.875 0 
L 18.015625 0 
L 23.09375 20.21875 
L 7.71875 20.21875 
L 7.71875 27.6875 
L 24.90625 27.6875 
L 29 44 
L 13.28125 44 
L 13.28125 51.515625 
L 30.90625 51.515625 
L 35.890625 71.78125 
z
" id="DejaVuSans-35"/>
      <path id="DejaVuSans-32"/>
      <path d="M 37.109375 75.984375 
L 37.109375 68.5 
L 28.515625 68.5 
Q 23.6875 68.5 21.796875 66.546875 
Q 19.921875 64.59375 19.921875 59.515625 
L 19.921875 54.6875 
L 34.71875 54.6875 
L 34.71875 47.703125 
L 19.921875 47.703125 
L 19.921875 0 
L 10.890625 0 
L 10.890625 47.703125 
L 2.296875 47.703125 
L 2.296875 54.6875 
L 10.890625 54.6875 
L 10.890625 58.5 
Q 10.890625 67.625 15.140625 71.796875 
Q 19.390625 75.984375 28.609375 75.984375 
z
" id="DejaVuSans-102"/>
      <path d="M 4.890625 31.390625 
L 31.203125 31.390625 
L 31.203125 23.390625 
L 4.890625 23.390625 
z
" id="DejaVuSans-45"/>
      <path d="M 56.203125 29.59375 
L 56.203125 25.203125 
L 14.890625 25.203125 
Q 15.484375 15.921875 20.484375 11.0625 
Q 25.484375 6.203125 34.421875 6.203125 
Q 39.59375 6.203125 44.453125 7.46875 
Q 49.3125 8.734375 54.109375 11.28125 
L 54.109375 2.78125 
Q 49.265625 0.734375 44.1875 -0.34375 
Q 39.109375 -1.421875 33.890625 -1.421875 
Q 20.796875 -1.421875 13.15625 6.1875 
Q 5.515625 13.8125 5.515625 26.8125 
Q 5.515625 40.234375 12.765625 48.109375 
Q 20.015625 56 32.328125 56 
Q 43.359375 56 49.78125 48.890625 
Q 56.203125 41.796875 56.203125 29.59375 
z
M 47.21875 32.234375 
Q 47.125 39.59375 43.09375 43.984375 
Q 39.0625 48.390625 32.421875 48.390625 
Q 24.90625 48.390625 20.390625 44.140625 
Q 15.875 39.890625 15.1875 32.171875 
z
" id="DejaVuSans-101"/>
      <path d="M 2.984375 54.6875 
L 12.5 54.6875 
L 29.59375 8.796875 
L 46.6875 54.6875 
L 56.203125 54.6875 
L 35.6875 0 
L 23.484375 0 
z
" id="DejaVuSans-118"/>
      <path d="M 34.28125 27.484375 
Q 23.390625 27.484375 19.1875 25 
Q 14.984375 22.515625 14.984375 16.5 
Q 14.984375 11.71875 18.140625 8.90625 
Q 21.296875 6.109375 26.703125 6.109375 
Q 34.1875 6.109375 38.703125 11.40625 
Q 43.21875 16.703125 43.21875 25.484375 
L 43.21875 27.484375 
z
M 52.203125 31.203125 
L 52.203125 0 
L 43.21875 0 
L 43.21875 8.296875 
Q 40.140625 3.328125 35.546875 0.953125 
Q 30.953125 -1.421875 24.3125 -1.421875 
Q 15.921875 -1.421875 10.953125 3.296875 
Q 6 8.015625 6 15.921875 
Q 6 25.140625 12.171875 29.828125 
Q 18.359375 34.515625 30.609375 34.515625 
L 43.21875 34.515625 
L 43.21875 35.40625 
Q 43.21875 41.609375 39.140625 45 
Q 35.0625 48.390625 27.6875 48.390625 
Q 23 48.390625 18.546875 47.265625 
Q 14.109375 46.140625 10.015625 43.890625 
L 10.015625 52.203125 
Q 14.9375 54.109375 19.578125 55.046875 
Q 24.21875 56 28.609375 56 
Q 40.484375 56 46.34375 49.84375 
Q 52.203125 43.703125 52.203125 31.203125 
z
" id="DejaVuSans-97"/>
      <path d="M 44.28125 53.078125 
L 44.28125 44.578125 
Q 40.484375 46.53125 36.375 47.5 
Q 32.28125 48.484375 27.875 48.484375 
Q 21.1875 48.484375 17.84375 46.4375 
Q 14.5 44.390625 14.5 40.28125 
Q 14.5 37.15625 16.890625 35.375 
Q 19.28125 33.59375 26.515625 31.984375 
L 29.59375 31.296875 
Q 39.15625 29.25 43.1875 25.515625 
Q 47.21875 21.78125 47.21875 15.09375 
Q 47.21875 7.46875 41.1875 3.015625 
Q 35.15625 -1.421875 24.609375 -1.421875 
Q 20.21875 -1.421875 15.453125 -0.5625 
Q 10.6875 0.296875 5.421875 2 
L 5.421875 11.28125 
Q 10.40625 8.6875 15.234375 7.390625 
Q 20.0625 6.109375 24.8125 6.109375 
Q 31.15625 6.109375 34.5625 8.28125 
Q 37.984375 10.453125 37.984375 14.40625 
Q 37.984375 18.0625 35.515625 20.015625 
Q 33.0625 21.96875 24.703125 23.78125 
L 21.578125 24.515625 
Q 13.234375 26.265625 9.515625 29.90625 
Q 5.8125 33.546875 5.8125 39.890625 
Q 5.8125 47.609375 11.28125 51.796875 
Q 16.75 56 26.8125 56 
Q 31.78125 56 36.171875 55.265625 
Q 40.578125 54.546875 44.28125 53.078125 
z
" id="DejaVuSans-115"/>
      <path d="M 25.390625 72.90625 
L 33.6875 72.90625 
L 8.296875 -9.28125 
L 0 -9.28125 
z
" id="DejaVuSans-47"/>
      <path d="M 45.40625 46.390625 
L 45.40625 75.984375 
L 54.390625 75.984375 
L 54.390625 0 
L 45.40625 0 
L 45.40625 8.203125 
Q 42.578125 3.328125 38.25 0.953125 
Q 33.9375 -1.421875 27.875 -1.421875 
Q 17.96875 -1.421875 11.734375 6.484375 
Q 5.515625 14.40625 5.515625 27.296875 
Q 5.515625 40.1875 11.734375 48.09375 
Q 17.96875 56 27.875 56 
Q 33.9375 56 38.25 53.625 
Q 42.578125 51.265625 45.40625 46.390625 
z
M 14.796875 27.296875 
Q 14.796875 17.390625 18.875 11.75 
Q 22.953125 6.109375 30.078125 6.109375 
Q 37.203125 6.109375 41.296875 11.75 
Q 45.40625 17.390625 45.40625 27.296875 
Q 45.40625 37.203125 41.296875 42.84375 
Q 37.203125 48.484375 30.078125 48.484375 
Q 22.953125 48.484375 18.875 42.84375 
Q 14.796875 37.203125 14.796875 27.296875 
z
" id="DejaVuSans-100"/>
      <path d="M 9.421875 54.6875 
L 18.40625 54.6875 
L 18.40625 0 
L 9.421875 0 
z
M 9.421875 75.984375 
L 18.40625 75.984375 
L 18.40625 64.59375 
L 9.421875 64.59375 
z
" id="DejaVuSans-105"/>
      <path d="M 52 44.1875 
Q 55.375 50.25 60.0625 53.125 
Q 64.75 56 71.09375 56 
Q 79.640625 56 84.28125 50.015625 
Q 88.921875 44.046875 88.921875 33.015625 
L 88.921875 0 
L 79.890625 0 
L 79.890625 32.71875 
Q 79.890625 40.578125 77.09375 44.375 
Q 74.3125 48.1875 68.609375 48.1875 
Q 61.625 48.1875 57.5625 43.546875 
Q 53.515625 38.921875 53.515625 30.90625 
L 53.515625 0 
L 44.484375 0 
L 44.484375 32.71875 
Q 44.484375 40.625 41.703125 44.40625 
Q 38.921875 48.1875 33.109375 48.1875 
Q 26.21875 48.1875 22.15625 43.53125 
Q 18.109375 38.875 18.109375 30.90625 
L 18.109375 0 
L 9.078125 0 
L 9.078125 54.6875 
L 18.109375 54.6875 
L 18.109375 46.1875 
Q 21.1875 51.21875 25.484375 53.609375 
Q 29.78125 56 35.6875 56 
Q 41.65625 56 45.828125 52.96875 
Q 50 49.953125 52 44.1875 
z
" id="DejaVuSans-109"/>
      <path d="M 54.890625 33.015625 
L 54.890625 0 
L 45.90625 0 
L 45.90625 32.71875 
Q 45.90625 40.484375 42.875 44.328125 
Q 39.84375 48.1875 33.796875 48.1875 
Q 26.515625 48.1875 22.3125 43.546875 
Q 18.109375 38.921875 18.109375 30.90625 
L 18.109375 0 
L 9.078125 0 
L 9.078125 54.6875 
L 18.109375 54.6875 
L 18.109375 46.1875 
Q 21.34375 51.125 25.703125 53.5625 
Q 30.078125 56 35.796875 56 
Q 45.21875 56 50.046875 50.171875 
Q 54.890625 44.34375 54.890625 33.015625 
z
" id="DejaVuSans-110"/>
      <path d="M 8.015625 75.875 
L 15.828125 75.875 
Q 23.140625 64.359375 26.78125 53.3125 
Q 30.421875 42.28125 30.421875 31.390625 
Q 30.421875 20.453125 26.78125 9.375 
Q 23.140625 -1.703125 15.828125 -13.1875 
L 8.015625 -13.1875 
Q 14.5 -2 17.703125 9.0625 
Q 20.90625 20.125 20.90625 31.390625 
Q 20.90625 42.671875 17.703125 53.65625 
Q 14.5 64.65625 8.015625 75.875 
z
" id="DejaVuSans-41"/>
     </defs>
     <g transform="translate(77.764078 342.217594)scale(0.17 -0.17)">
      <use xlink:href="#DejaVuSans-108"/>
      <use x="27.783203" xlink:href="#DejaVuSans-111"/>
      <use x="88.964844" xlink:href="#DejaVuSans-103"/>
      <use x="152.441406" xlink:href="#DejaVuSans-49"/>
      <use x="216.064453" xlink:href="#DejaVuSans-48"/>
      <use x="279.6875" xlink:href="#DejaVuSans-40"/>
      <use x="318.701172" xlink:href="#DejaVuSans-35"/>
      <use x="402.490234" xlink:href="#DejaVuSans-32"/>
      <use x="434.277344" xlink:href="#DejaVuSans-102"/>
      <use x="463.982422" xlink:href="#DejaVuSans-45"/>
      <use x="500.066406" xlink:href="#DejaVuSans-101"/>
      <use x="561.589844" xlink:href="#DejaVuSans-118"/>
      <use x="620.769531" xlink:href="#DejaVuSans-97"/>
      <use x="682.048828" xlink:href="#DejaVuSans-108"/>
      <use x="709.832031" xlink:href="#DejaVuSans-115"/>
      <use x="761.931641" xlink:href="#DejaVuSans-32"/>
      <use x="793.71875" xlink:href="#DejaVuSans-47"/>
      <use x="827.410156" xlink:href="#DejaVuSans-32"/>
      <use x="859.197266" xlink:href="#DejaVuSans-100"/>
      <use x="922.673828" xlink:href="#DejaVuSans-105"/>
      <use x="950.457031" xlink:href="#DejaVuSans-109"/>
      <use x="1047.869141" xlink:href="#DejaVuSans-101"/>
      <use x="1109.392578" xlink:href="#DejaVuSans-110"/>
      <use x="1172.771484" xlink:href="#DejaVuSans-115"/>
      <use x="1224.871094" xlink:href="#DejaVuSans-105"/>
      <use x="1252.654297" xlink:href="#DejaVuSans-111"/>
      <use x="1313.835938" xlink:href="#DejaVuSans-110"/>
      <use x="1377.214844" xlink:href="#DejaVuSans-41"/>
     </g>
    </g>
   </g>
   <g id="matplotlib.axis_2">
    <g id="ytick_1">
     <g id="line2d_21">
      <path clip-path="url(#pbdce03061e)" d="M 57.6 298.944 
L 338.688 298.944 
" style="fill:none;stroke:#b0b0b0;stroke-linecap:square;stroke-width:0.8;"/>
     </g>
     <g id="line2d_22">
      <defs>
       <path d="M 0 0 
L -3.5 0 
" id="m3025489137" style="stroke:#000000;stroke-width:0.8;"/>
      </defs>
      <g>
       <use style="stroke:#000000;stroke-width:0.8;" x="57.6" xlink:href="#m3025489137" y="298.944"/>
      </g>
     </g>
     <g id="text_6">
      <!-- 0.0 -->
      <defs>
       <path d="M 10.6875 12.40625 
L 21 12.40625 
L 21 0 
L 10.6875 0 
z
" id="DejaVuSans-46"/>
      </defs>
      <g transform="translate(25.155 305.02275)scale(0.16 -0.16)">
       <use xlink:href="#DejaVuSans-48"/>
       <use x="63.623047" xlink:href="#DejaVuSans-46"/>
       <use x="95.410156" xlink:href="#DejaVuSans-48"/>
      </g>
     </g>
    </g>
    <g id="ytick_2">
     <g id="line2d_23">
      <path clip-path="url(#pbdce03061e)" d="M 57.6 245.22202 
L 338.688 245.22202 
" style="fill:none;stroke:#b0b0b0;stroke-linecap:square;stroke-width:0.8;"/>
     </g>
     <g id="line2d_24">
      <g>
       <use style="stroke:#000000;stroke-width:0.8;" x="57.6" xlink:href="#m3025489137" y="245.22202"/>
      </g>
     </g>
     <g id="text_7">
      <!-- 0.2 -->
      <g transform="translate(25.155 251.30077)scale(0.16 -0.16)">
       <use xlink:href="#DejaVuSans-48"/>
       <use x="63.623047" xlink:href="#DejaVuSans-46"/>
       <use x="95.410156" xlink:href="#DejaVuSans-50"/>
      </g>
     </g>
    </g>
    <g id="ytick_3">
     <g id="line2d_25">
      <path clip-path="url(#pbdce03061e)" d="M 57.6 191.50004 
L 338.688 191.50004 
" style="fill:none;stroke:#b0b0b0;stroke-linecap:square;stroke-width:0.8;"/>
     </g>
     <g id="line2d_26">
      <g>
       <use style="stroke:#000000;stroke-width:0.8;" x="57.6" xlink:href="#m3025489137" y="191.50004"/>
      </g>
     </g>
     <g id="text_8">
      <!-- 0.4 -->
      <g transform="translate(25.155 197.57879)scale(0.16 -0.16)">
       <use xlink:href="#DejaVuSans-48"/>
       <use x="63.623047" xlink:href="#DejaVuSans-46"/>
       <use x="95.410156" xlink:href="#DejaVuSans-52"/>
      </g>
     </g>
    </g>
    <g id="ytick_4">
     <g id="line2d_27">
      <path clip-path="url(#pbdce03061e)" d="M 57.6 137.778059 
L 338.688 137.778059 
" style="fill:none;stroke:#b0b0b0;stroke-linecap:square;stroke-width:0.8;"/>
     </g>
     <g id="line2d_28">
      <g>
       <use style="stroke:#000000;stroke-width:0.8;" x="57.6" xlink:href="#m3025489137" y="137.778059"/>
      </g>
     </g>
     <g id="text_9">
      <!-- 0.6 -->
      <g transform="translate(25.155 143.856809)scale(0.16 -0.16)">
       <use xlink:href="#DejaVuSans-48"/>
       <use x="63.623047" xlink:href="#DejaVuSans-46"/>
       <use x="95.410156" xlink:href="#DejaVuSans-54"/>
      </g>
     </g>
    </g>
    <g id="ytick_5">
     <g id="line2d_29">
      <path clip-path="url(#pbdce03061e)" d="M 57.6 84.056079 
L 338.688 84.056079 
" style="fill:none;stroke:#b0b0b0;stroke-linecap:square;stroke-width:0.8;"/>
     </g>
     <g id="line2d_30">
      <g>
       <use style="stroke:#000000;stroke-width:0.8;" x="57.6" xlink:href="#m3025489137" y="84.056079"/>
      </g>
     </g>
     <g id="text_10">
      <!-- 0.8 -->
      <defs>
       <path d="M 31.78125 34.625 
Q 24.75 34.625 20.71875 30.859375 
Q 16.703125 27.09375 16.703125 20.515625 
Q 16.703125 13.921875 20.71875 10.15625 
Q 24.75 6.390625 31.78125 6.390625 
Q 38.8125 6.390625 42.859375 10.171875 
Q 46.921875 13.96875 46.921875 20.515625 
Q 46.921875 27.09375 42.890625 30.859375 
Q 38.875 34.625 31.78125 34.625 
z
M 21.921875 38.8125 
Q 15.578125 40.375 12.03125 44.71875 
Q 8.5 49.078125 8.5 55.328125 
Q 8.5 64.0625 14.71875 69.140625 
Q 20.953125 74.21875 31.78125 74.21875 
Q 42.671875 74.21875 48.875 69.140625 
Q 55.078125 64.0625 55.078125 55.328125 
Q 55.078125 49.078125 51.53125 44.71875 
Q 48 40.375 41.703125 38.8125 
Q 48.828125 37.15625 52.796875 32.3125 
Q 56.78125 27.484375 56.78125 20.515625 
Q 56.78125 9.90625 50.3125 4.234375 
Q 43.84375 -1.421875 31.78125 -1.421875 
Q 19.734375 -1.421875 13.25 4.234375 
Q 6.78125 9.90625 6.78125 20.515625 
Q 6.78125 27.484375 10.78125 32.3125 
Q 14.796875 37.15625 21.921875 38.8125 
z
M 18.3125 54.390625 
Q 18.3125 48.734375 21.84375 45.5625 
Q 25.390625 42.390625 31.78125 42.390625 
Q 38.140625 42.390625 41.71875 45.5625 
Q 45.3125 48.734375 45.3125 54.390625 
Q 45.3125 60.0625 41.71875 63.234375 
Q 38.140625 66.40625 31.78125 66.40625 
Q 25.390625 66.40625 21.84375 63.234375 
Q 18.3125 60.0625 18.3125 54.390625 
z
" id="DejaVuSans-56"/>
      </defs>
      <g transform="translate(25.155 90.134829)scale(0.16 -0.16)">
       <use xlink:href="#DejaVuSans-48"/>
       <use x="63.623047" xlink:href="#DejaVuSans-46"/>
       <use x="95.410156" xlink:href="#DejaVuSans-56"/>
      </g>
     </g>
    </g>
    <g id="ytick_6">
     <g id="line2d_31">
      <path clip-path="url(#pbdce03061e)" d="M 57.6 30.334099 
L 338.688 30.334099 
" style="fill:none;stroke:#b0b0b0;stroke-linecap:square;stroke-width:0.8;"/>
     </g>
     <g id="line2d_32">
      <g>
       <use style="stroke:#000000;stroke-width:0.8;" x="57.6" xlink:href="#m3025489137" y="30.334099"/>
      </g>
     </g>
     <g id="text_11">
      <!-- 1.0 -->
      <g transform="translate(25.155 36.412849)scale(0.16 -0.16)">
       <use xlink:href="#DejaVuSans-49"/>
       <use x="63.623047" xlink:href="#DejaVuSans-46"/>
       <use x="95.410156" xlink:href="#DejaVuSans-48"/>
      </g>
     </g>
    </g>
    <g id="text_12">
     <!-- Fraction of function,target pairs -->
     <defs>
      <path d="M 9.8125 72.90625 
L 51.703125 72.90625 
L 51.703125 64.59375 
L 19.671875 64.59375 
L 19.671875 43.109375 
L 48.578125 43.109375 
L 48.578125 34.8125 
L 19.671875 34.8125 
L 19.671875 0 
L 9.8125 0 
z
" id="DejaVuSans-70"/>
      <path d="M 41.109375 46.296875 
Q 39.59375 47.171875 37.8125 47.578125 
Q 36.03125 48 33.890625 48 
Q 26.265625 48 22.1875 43.046875 
Q 18.109375 38.09375 18.109375 28.8125 
L 18.109375 0 
L 9.078125 0 
L 9.078125 54.6875 
L 18.109375 54.6875 
L 18.109375 46.1875 
Q 20.953125 51.171875 25.484375 53.578125 
Q 30.03125 56 36.53125 56 
Q 37.453125 56 38.578125 55.875 
Q 39.703125 55.765625 41.0625 55.515625 
z
" id="DejaVuSans-114"/>
      <path d="M 48.78125 52.59375 
L 48.78125 44.1875 
Q 44.96875 46.296875 41.140625 47.34375 
Q 37.3125 48.390625 33.40625 48.390625 
Q 24.65625 48.390625 19.8125 42.84375 
Q 14.984375 37.3125 14.984375 27.296875 
Q 14.984375 17.28125 19.8125 11.734375 
Q 24.65625 6.203125 33.40625 6.203125 
Q 37.3125 6.203125 41.140625 7.25 
Q 44.96875 8.296875 48.78125 10.40625 
L 48.78125 2.09375 
Q 45.015625 0.34375 40.984375 -0.53125 
Q 36.96875 -1.421875 32.421875 -1.421875 
Q 20.0625 -1.421875 12.78125 6.34375 
Q 5.515625 14.109375 5.515625 27.296875 
Q 5.515625 40.671875 12.859375 48.328125 
Q 20.21875 56 33.015625 56 
Q 37.15625 56 41.109375 55.140625 
Q 45.0625 54.296875 48.78125 52.59375 
z
" id="DejaVuSans-99"/>
      <path d="M 18.3125 70.21875 
L 18.3125 54.6875 
L 36.8125 54.6875 
L 36.8125 47.703125 
L 18.3125 47.703125 
L 18.3125 18.015625 
Q 18.3125 11.328125 20.140625 9.421875 
Q 21.96875 7.515625 27.59375 7.515625 
L 36.8125 7.515625 
L 36.8125 0 
L 27.59375 0 
Q 17.1875 0 13.234375 3.875 
Q 9.28125 7.765625 9.28125 18.015625 
L 9.28125 47.703125 
L 2.6875 47.703125 
L 2.6875 54.6875 
L 9.28125 54.6875 
L 9.28125 70.21875 
z
" id="DejaVuSans-116"/>
      <path d="M 8.5 21.578125 
L 8.5 54.6875 
L 17.484375 54.6875 
L 17.484375 21.921875 
Q 17.484375 14.15625 20.5 10.265625 
Q 23.53125 6.390625 29.59375 6.390625 
Q 36.859375 6.390625 41.078125 11.03125 
Q 45.3125 15.671875 45.3125 23.6875 
L 45.3125 54.6875 
L 54.296875 54.6875 
L 54.296875 0 
L 45.3125 0 
L 45.3125 8.40625 
Q 42.046875 3.421875 37.71875 1 
Q 33.40625 -1.421875 27.6875 -1.421875 
Q 18.265625 -1.421875 13.375 4.4375 
Q 8.5 10.296875 8.5 21.578125 
z
M 31.109375 56 
z
" id="DejaVuSans-117"/>
      <path d="M 11.71875 12.40625 
L 22.015625 12.40625 
L 22.015625 4 
L 14.015625 -11.625 
L 7.71875 -11.625 
L 11.71875 4 
z
" id="DejaVuSans-44"/>
      <path d="M 18.109375 8.203125 
L 18.109375 -20.796875 
L 9.078125 -20.796875 
L 9.078125 54.6875 
L 18.109375 54.6875 
L 18.109375 46.390625 
Q 20.953125 51.265625 25.265625 53.625 
Q 29.59375 56 35.59375 56 
Q 45.5625 56 51.78125 48.09375 
Q 58.015625 40.1875 58.015625 27.296875 
Q 58.015625 14.40625 51.78125 6.484375 
Q 45.5625 -1.421875 35.59375 -1.421875 
Q 29.59375 -1.421875 25.265625 0.953125 
Q 20.953125 3.328125 18.109375 8.203125 
z
M 48.6875 27.296875 
Q 48.6875 37.203125 44.609375 42.84375 
Q 40.53125 48.484375 33.40625 48.484375 
Q 26.265625 48.484375 22.1875 42.84375 
Q 18.109375 37.203125 18.109375 27.296875 
Q 18.109375 17.390625 22.1875 11.75 
Q 26.265625 6.109375 33.40625 6.109375 
Q 40.53125 6.109375 44.609375 11.75 
Q 48.6875 17.390625 48.6875 27.296875 
z
" id="DejaVuSans-112"/>
     </defs>
     <g transform="translate(17.619531 297.681)rotate(-90)scale(0.17 -0.17)">
      <use xlink:href="#DejaVuSans-70"/>
      <use x="50.269531" xlink:href="#DejaVuSans-114"/>
      <use x="91.382812" xlink:href="#DejaVuSans-97"/>
      <use x="152.662109" xlink:href="#DejaVuSans-99"/>
      <use x="207.642578" xlink:href="#DejaVuSans-116"/>
      <use x="246.851562" xlink:href="#DejaVuSans-105"/>
      <use x="274.634766" xlink:href="#DejaVuSans-111"/>
      <use x="335.816406" xlink:href="#DejaVuSans-110"/>
      <use x="399.195312" xlink:href="#DejaVuSans-32"/>
      <use x="430.982422" xlink:href="#DejaVuSans-111"/>
      <use x="492.164062" xlink:href="#DejaVuSans-102"/>
      <use x="527.369141" xlink:href="#DejaVuSans-32"/>
      <use x="559.15625" xlink:href="#DejaVuSans-102"/>
      <use x="594.361328" xlink:href="#DejaVuSans-117"/>
      <use x="657.740234" xlink:href="#DejaVuSans-110"/>
      <use x="721.119141" xlink:href="#DejaVuSans-99"/>
      <use x="776.099609" xlink:href="#DejaVuSans-116"/>
      <use x="815.308594" xlink:href="#DejaVuSans-105"/>
      <use x="843.091797" xlink:href="#DejaVuSans-111"/>
      <use x="904.273438" xlink:href="#DejaVuSans-110"/>
      <use x="967.652344" xlink:href="#DejaVuSans-44"/>
      <use x="999.439453" xlink:href="#DejaVuSans-116"/>
      <use x="1038.648438" xlink:href="#DejaVuSans-97"/>
      <use x="1099.927734" xlink:href="#DejaVuSans-114"/>
      <use x="1139.291016" xlink:href="#DejaVuSans-103"/>
      <use x="1202.767578" xlink:href="#DejaVuSans-101"/>
      <use x="1264.291016" xlink:href="#DejaVuSans-116"/>
      <use x="1303.5" xlink:href="#DejaVuSans-32"/>
      <use x="1335.287109" xlink:href="#DejaVuSans-112"/>
      <use x="1398.763672" xlink:href="#DejaVuSans-97"/>
      <use x="1460.042969" xlink:href="#DejaVuSans-105"/>
      <use x="1487.826172" xlink:href="#DejaVuSans-114"/>
      <use x="1528.939453" xlink:href="#DejaVuSans-115"/>
     </g>
    </g>
   </g>
   <g id="line2d_33">
    <defs>
     <path d="M 0 1.5 
C 0.397805 1.5 0.77937 1.341951 1.06066 1.06066 
C 1.341951 0.77937 1.5 0.397805 1.5 0 
C 1.5 -0.397805 1.341951 -0.77937 1.06066 -1.06066 
C 0.77937 -1.341951 0.397805 -1.5 0 -1.5 
C -0.397805 -1.5 -0.77937 -1.341951 -1.06066 -1.06066 
C -1.341951 -0.77937 -1.5 -0.397805 -1.5 0 
C -1.5 0.397805 -1.341951 0.77937 -1.06066 1.06066 
C -0.77937 1.341951 -0.397805 1.5 0 1.5 
z
" id="m7d5e65ff7b" style="stroke:#f5deb3;"/>
    </defs>
    <g>
     <use style="fill:#f5deb3;stroke:#f5deb3;" x="144.589967" xlink:href="#m7d5e65ff7b" y="30.334099"/>
     <use style="fill:#f5deb3;stroke:#f5deb3;" x="144.589967" xlink:href="#m7d5e65ff7b" y="30.334099"/>
    </g>
   </g>
   <g id="line2d_34">
    <defs>
     <path d="M 0 1.5 
C 0.397805 1.5 0.77937 1.341951 1.06066 1.06066 
C 1.341951 0.77937 1.5 0.397805 1.5 0 
C 1.5 -0.397805 1.341951 -0.77937 1.06066 -1.06066 
C 0.77937 -1.341951 0.397805 -1.5 0 -1.5 
C -0.397805 -1.5 -0.77937 -1.341951 -1.06066 -1.06066 
C -1.341951 -0.77937 -1.5 -0.397805 -1.5 0 
C -1.5 0.397805 -1.341951 0.77937 -1.06066 1.06066 
C -0.77937 1.341951 -0.397805 1.5 0 1.5 
z
" id="me91c82bccc" style="stroke:#000080;"/>
    </defs>
    <g>
     <use style="fill:#000080;stroke:#000080;" x="237.943363" xlink:href="#me91c82bccc" y="272.609696"/>
     <use style="fill:#000080;stroke:#000080;" x="237.943363" xlink:href="#me91c82bccc" y="272.609696"/>
    </g>
   </g>
   <g id="line2d_35">
    <path d="M 74.704957 298.944 
L 74.704957 297.890628 
L 83.171864 297.890628 
L 83.171864 297.363942 
L 103.623262 297.363942 
L 103.623262 296.31057 
L 109.843417 296.31057 
L 109.843417 295.783884 
L 122.362027 295.783884 
L 122.362027 294.203825 
L 124.114161 294.203825 
L 124.114161 293.677139 
L 128.807571 293.677139 
L 128.807571 293.150453 
L 129.385722 293.150453 
L 129.385722 292.623767 
L 133.04822 292.623767 
L 133.04822 292.097081 
L 138.426341 292.097081 
L 138.426341 291.570395 
L 138.706272 291.570395 
L 138.706272 291.043709 
L 139.783113 291.043709 
L 139.783113 289.990337 
L 145.888018 289.990337 
L 145.888018 289.463651 
L 147.198794 289.463651 
L 147.198794 288.936964 
L 150.31567 288.936964 
L 150.31567 287.883592 
L 153.29909 287.883592 
L 153.29909 287.356906 
L 158.942121 287.356906 
L 158.942121 286.83022 
L 160.313893 286.83022 
L 160.313893 286.303534 
L 161.540659 286.303534 
L 161.540659 285.776848 
L 170.535846 285.776848 
L 170.535846 285.250162 
L 171.712752 285.250162 
L 171.712752 284.723476 
L 175.657689 284.723476 
L 175.657689 283.670104 
L 177.779092 283.670104 
L 177.779092 283.143418 
L 179.446068 283.143418 
L 179.446068 282.616732 
L 180.574258 282.616732 
L 180.574258 281.563359 
L 183.261097 281.563359 
L 183.261097 281.036673 
L 189.769298 281.036673 
L 189.769298 280.509987 
L 192.712519 280.509987 
L 192.712519 279.983301 
L 200.096962 279.983301 
L 200.096962 279.456615 
L 202.166528 279.456615 
L 202.166528 278.929929 
L 203.572293 278.929929 
L 203.572293 277.876557 
L 206.829999 277.876557 
L 206.829999 277.349871 
L 207.556422 277.349871 
L 207.556422 276.823185 
L 213.550849 276.823185 
L 213.550849 276.296499 
L 215.909624 276.296499 
L 215.909624 275.769812 
L 216.987983 275.769812 
L 216.987983 275.243126 
L 219.857941 275.243126 
L 219.857941 274.189754 
L 222.321663 274.189754 
L 222.321663 273.663068 
L 235.958382 273.663068 
L 235.958382 273.136382 
L 237.943363 273.136382 
L 237.943363 272.609696 
L 338.688 272.609696 
" style="fill:none;stroke:#000080;stroke-linecap:square;stroke-width:1.5;"/>
   </g>
   <g id="line2d_36">
    <defs>
     <path d="M 0 6 
C 1.591219 6 3.117479 5.367802 4.242641 4.242641 
C 5.367802 3.117479 6 1.591219 6 0 
C 6 -1.591219 5.367802 -3.117479 4.242641 -4.242641 
C 3.117479 -5.367802 1.591219 -6 0 -6 
C -1.591219 -6 -3.117479 -5.367802 -4.242641 -4.242641 
C -5.367802 -3.117479 -6 -1.591219 -6 0 
C -6 1.591219 -5.367802 3.117479 -4.242641 4.242641 
C -3.117479 5.367802 -1.591219 6 0 6 
z
" id="mb0c0920062" style="stroke:#000080;stroke-width:1.5;"/>
    </defs>
    <g>
     <use style="fill-opacity:0;stroke:#000080;stroke-width:1.5;" x="170.535846" xlink:href="#mb0c0920062" y="285.250162"/>
     <use style="fill-opacity:0;stroke:#000080;stroke-width:1.5;" x="237.943363" xlink:href="#mb0c0920062" y="273.136382"/>
     <use style="fill-opacity:0;stroke:#000080;stroke-width:1.5;" x="237.943363" xlink:href="#mb0c0920062" y="272.609696"/>
     <use style="fill-opacity:0;stroke:#000080;stroke-width:1.5;" x="237.943363" xlink:href="#mb0c0920062" y="272.609696"/>
     <use style="fill-opacity:0;stroke:#000080;stroke-width:1.5;" x="338.688" xlink:href="#mb0c0920062" y="272.609696"/>
    </g>
   </g>
   <g id="line2d_37">
    <path style="fill:none;stroke:#000080;stroke-linecap:square;stroke-width:1.5;"/>
    <g/>
   </g>
   <g id="line2d_38">
    <path clip-path="url(#pbdce03061e)" d="M 186.974717 281.036673 
" style="fill:none;stroke:#000080;stroke-linecap:square;stroke-width:1.5;"/>
    <defs>
     <path d="M -12 12 
L 12 -12 
M -12 -12 
L 12 12 
" id="m2ffd0b1d12" style="stroke:#000080;"/>
    </defs>
    <g clip-path="url(#pbdce03061e)">
     <use style="fill:#000080;stroke:#000080;" x="186.974717" xlink:href="#m2ffd0b1d12" y="281.036673"/>
    </g>
   </g>
   <g id="line2d_39">
    <defs>
     <path d="M 0 1.5 
C 0.397805 1.5 0.77937 1.341951 1.06066 1.06066 
C 1.341951 0.77937 1.5 0.397805 1.5 0 
C 1.5 -0.397805 1.341951 -0.77937 1.06066 -1.06066 
C 0.77937 -1.341951 0.397805 -1.5 0 -1.5 
C -0.397805 -1.5 -0.77937 -1.341951 -1.06066 -1.06066 
C -1.341951 -0.77937 -1.5 -0.397805 -1.5 0 
C -1.5 0.397805 -1.341951 0.77937 -1.06066 1.06066 
C -0.77937 1.341951 -0.397805 1.5 0 1.5 
z
" id="mdde800d18b" style="stroke:#ff7500;"/>
    </defs>
    <g>
     <use style="fill:#ff7500;stroke:#ff7500;" x="260.30143" xlink:href="#mdde800d18b" y="114.603872"/>
     <use style="fill:#ff7500;stroke:#ff7500;" x="260.30143" xlink:href="#mdde800d18b" y="114.603872"/>
    </g>
   </g>
   <g id="line2d_40">
    <path d="M 76.759008 298.944 
L 76.759008 298.417314 
L 84.464254 298.417314 
L 84.464254 297.890628 
L 85.66744 297.890628 
L 85.66744 297.363942 
L 102.330873 297.363942 
L 102.330873 296.837256 
L 104.826449 296.837256 
L 104.826449 295.783884 
L 118.576578 295.783884 
L 118.576578 295.257197 
L 120.571812 295.257197 
L 120.571812 293.677139 
L 121.785469 293.677139 
L 121.785469 293.150453 
L 125.23165 293.150453 
L 125.23165 292.623767 
L 126.839037 292.623767 
L 126.839037 291.043709 
L 127.272333 291.043709 
L 127.272333 289.990337 
L 128.411207 289.990337 
L 128.411207 288.936964 
L 128.807571 288.936964 
L 128.807571 287.883592 
L 129.760775 287.883592 
L 129.760775 287.356906 
L 130.926816 287.356906 
L 130.926816 286.83022 
L 131.355321 286.83022 
L 131.355321 286.303534 
L 131.523818 286.303534 
L 131.523818 285.776848 
L 132.181982 285.776848 
L 132.181982 285.250162 
L 133.57787 285.250162 
L 133.57787 284.723476 
L 134.7313 284.723476 
L 134.7313 283.670104 
L 135.280614 283.670104 
L 135.280614 283.143418 
L 136.008736 283.143418 
L 136.008736 282.616732 
L 136.893527 282.616732 
L 136.893527 282.090045 
L 137.259399 282.090045 
L 137.259399 281.563359 
L 139.036363 281.563359 
L 139.036363 281.036673 
L 139.413734 281.036673 
L 139.466984 279.456615 
L 139.783113 279.456615 
L 139.835248 277.876557 
L 141.987354 277.876557 
L 141.987354 276.823185 
L 143.902815 276.823185 
L 143.902815 276.296499 
L 144.747789 276.296499 
L 144.787023 274.189754 
L 144.981877 274.189754 
L 144.981877 273.663068 
L 145.440832 273.663068 
L 145.440832 273.136382 
L 145.740226 273.136382 
L 145.740226 272.609696 
L 146.143677 272.609696 
L 146.179895 271.556324 
L 146.395642 271.556324 
L 146.395642 271.029638 
L 146.538004 271.029638 
L 146.538004 270.502952 
L 147.300877 270.502952 
L 147.402367 268.922893 
L 148.48143 268.922893 
L 148.54473 267.869521 
L 149.073705 267.869521 
L 149.073705 267.342835 
L 149.437669 267.342835 
L 149.437669 266.816149 
L 149.557321 266.816149 
L 149.557321 266.289463 
L 149.764758 266.289463 
L 149.794191 265.236091 
L 150.457801 265.236091 
L 150.457801 264.709405 
L 150.849711 264.709405 
L 150.904986 262.60266 
L 151.097081 262.60266 
L 151.124351 261.549288 
L 151.394733 261.549288 
L 151.394733 260.495916 
L 151.844975 260.495916 
L 151.871101 259.442544 
L 152.232818 259.442544 
L 152.232818 258.915858 
L 153.843742 258.915858 
L 153.936752 257.3358 
L 154.121296 257.3358 
L 154.212841 255.755741 
L 154.371897 255.755741 
L 154.371897 255.229055 
L 154.529516 255.229055 
L 154.529516 254.702369 
L 155.275461 254.702369 
L 155.275461 253.122311 
L 155.425155 253.122311 
L 155.425155 252.595625 
L 155.741666 252.595625 
L 155.845906 251.542253 
L 156.953214 251.542253 
L 156.953214 251.015567 
L 157.069866 251.015567 
L 157.069866 249.962195 
L 157.79107 249.962195 
L 157.79107 249.435508 
L 158.049435 249.435508 
L 158.049435 248.908822 
L 158.51933 248.908822 
L 158.51933 248.382136 
L 160.585265 248.382136 
L 160.680044 247.328764 
L 160.727241 247.328764 
L 160.727241 246.802078 
L 161.359783 246.802078 
L 161.359783 246.275392 
L 162.188268 246.275392 
L 162.245966 245.22202 
L 162.332157 245.22202 
L 162.375093 244.168648 
L 162.658665 244.168648 
L 162.658665 243.115275 
L 163.348054 243.115275 
L 163.415518 239.955159 
L 163.549667 239.955159 
L 163.549667 239.428473 
L 163.696049 239.428473 
L 163.696049 238.901787 
L 164.179597 238.901787 
L 164.218222 237.848415 
L 164.536814 237.848415 
L 164.536814 237.321729 
L 165.290595 237.321729 
L 165.290595 236.795043 
L 165.447111 236.795043 
L 165.494988 235.74167 
L 165.637836 235.74167 
L 165.637836 234.688298 
L 165.755989 234.688298 
L 165.755989 234.161612 
L 166.255117 234.161612 
L 166.300829 230.47481 
L 166.48249 230.47481 
L 166.48249 229.948123 
L 166.784816 229.948123 
L 166.784816 229.421437 
L 166.906499 229.421437 
L 166.906499 228.894751 
L 168.037515 228.894751 
L 168.037515 228.368065 
L 168.395414 228.368065 
L 168.395414 227.841379 
L 168.576655 227.841379 
L 168.576655 227.314693 
L 168.815417 227.314693 
L 168.815417 226.788007 
L 169.109344 226.788007 
L 169.119057 225.734635 
L 169.350555 225.734635 
L 169.350555 225.207949 
L 170.642945 225.207949 
L 170.642945 224.681263 
L 170.969087 224.681263 
L 170.969087 224.154577 
L 171.220515 224.154577 
L 171.220515 223.627891 
L 171.417378 223.627891 
L 171.417378 223.101204 
L 171.72948 223.101204 
L 171.787903 221.521146 
L 172.052516 221.521146 
L 172.06072 220.467774 
L 172.569992 220.467774 
L 172.569992 219.941088 
L 172.720707 219.941088 
L 172.720707 218.36103 
L 172.893608 218.36103 
L 172.893608 217.834344 
L 173.188276 217.834344 
L 173.295595 216.254285 
L 174.498781 216.254285 
L 174.569962 215.200913 
L 174.753684 215.200913 
L 174.753684 214.674227 
L 175.293514 214.674227 
L 175.293514 214.147541 
L 176.092705 214.147541 
L 176.092705 213.094169 
L 176.561548 213.094169 
L 176.561548 212.567483 
L 176.675242 212.567483 
L 176.700407 210.987425 
L 176.838169 210.987425 
L 176.838169 210.460738 
L 177.055116 210.460738 
L 177.055116 209.934052 
L 177.594925 209.934052 
L 177.696161 208.88068 
L 177.790908 208.88068 
L 177.790908 208.353994 
L 177.973027 208.353994 
L 177.973027 207.827308 
L 178.320204 207.827308 
L 178.320204 207.300622 
L 179.617095 207.300622 
L 179.707275 205.720564 
L 180.284908 205.720564 
L 180.284908 204.667192 
L 180.453011 204.667192 
L 180.453011 204.140506 
L 181.114555 204.140506 
L 181.114555 203.613819 
L 181.873839 203.613819 
L 181.943792 202.033761 
L 181.999553 202.033761 
L 181.999553 201.507075 
L 182.165775 201.507075 
L 182.165775 200.980389 
L 182.592473 200.980389 
L 182.592473 200.453703 
L 182.943179 200.453703 
L 183.00022 199.400331 
L 183.390086 199.400331 
L 183.390086 198.873645 
L 184.340418 198.873645 
L 184.340418 198.346959 
L 184.530044 198.346959 
L 184.530044 197.820273 
L 184.741431 197.820273 
L 184.824485 196.7669 
L 185.356816 196.7669 
L 185.356816 196.240214 
L 185.787717 196.240214 
L 185.787717 195.713528 
L 186.266444 195.713528 
L 186.266444 195.186842 
L 189.47564 195.186842 
L 189.47564 194.660156 
L 191.049374 194.660156 
L 191.049374 194.13347 
L 191.472181 194.13347 
L 191.472181 193.606784 
L 191.619779 193.606784 
L 191.625123 192.553412 
L 191.768789 192.553412 
L 191.768789 192.026726 
L 191.908652 192.026726 
L 191.992558 189.919981 
L 192.742612 189.919981 
L 192.742612 189.393295 
L 193.0555 189.393295 
L 193.0555 188.866609 
L 193.307167 188.866609 
L 193.353197 186.759865 
L 193.456924 186.759865 
L 193.456924 186.233179 
L 193.917378 186.233179 
L 194.017812 184.126434 
L 194.457066 184.126434 
L 194.457066 183.073062 
L 194.624318 183.073062 
L 194.67149 182.01969 
L 194.798891 182.01969 
L 194.798891 181.493004 
L 194.995972 181.493004 
L 194.995972 180.966318 
L 195.136329 180.966318 
L 195.136329 179.912946 
L 195.266896 179.912946 
L 195.346928 178.859574 
L 195.769073 178.859574 
L 195.78802 177.806202 
L 196.036635 177.806202 
L 196.104955 176.226143 
L 196.377626 176.226143 
L 196.377626 175.699457 
L 196.698102 175.699457 
L 196.728034 174.646085 
L 196.823472 174.646085 
L 196.831402 173.066027 
L 197.163177 173.066027 
L 197.163177 172.012655 
L 197.981788 172.012655 
L 197.981788 171.485969 
L 198.272511 171.485969 
L 198.272511 170.959282 
L 198.392531 170.959282 
L 198.479303 168.325852 
L 198.59254 168.325852 
L 198.59254 167.799166 
L 198.825672 167.799166 
L 198.825672 167.27248 
L 199.059218 167.27248 
L 199.059218 166.219108 
L 202.366798 166.219108 
L 202.42442 165.165736 
L 202.877267 165.165736 
L 202.927641 163.585677 
L 203.036289 163.585677 
L 203.036289 163.058991 
L 203.202128 163.058991 
L 203.202128 162.532305 
L 203.332309 162.532305 
L 203.332309 162.005619 
L 204.030776 162.005619 
L 204.030776 161.478933 
L 204.175761 161.478933 
L 204.175761 160.952247 
L 204.390361 160.952247 
L 204.390361 160.425561 
L 204.627721 160.425561 
L 204.627721 159.898875 
L 204.79172 159.898875 
L 204.79172 159.372189 
L 205.299071 159.372189 
L 205.356299 158.318817 
L 205.610927 158.318817 
L 205.643243 156.738758 
L 205.746967 156.738758 
L 205.746967 156.212072 
L 206.1314 156.212072 
L 206.1314 155.1587 
L 208.313403 155.1587 
L 208.415705 154.105328 
L 208.528561 154.105328 
L 208.528561 153.578642 
L 208.999476 153.578642 
L 209.092937 149.891839 
L 209.267687 149.891839 
L 209.267687 149.365153 
L 209.581518 149.365153 
L 209.581518 148.838467 
L 209.703212 148.838467 
L 209.703212 148.311781 
L 209.85978 148.311781 
L 209.85978 147.785095 
L 210.022398 147.785095 
L 210.066993 146.731723 
L 210.618609 146.731723 
L 210.618609 146.205037 
L 210.976304 146.205037 
L 210.976304 145.151665 
L 211.14895 145.151665 
L 211.14895 144.098292 
L 213.162064 144.098292 
L 213.162064 143.571606 
L 213.798315 143.571606 
L 213.798315 143.04492 
L 214.145436 143.04492 
L 214.145436 141.991548 
L 214.77717 141.991548 
L 214.77717 141.464862 
L 214.94773 141.464862 
L 215.040762 139.884804 
L 216.181609 139.884804 
L 216.181609 139.358118 
L 217.80938 139.358118 
L 217.8688 138.304745 
L 218.001172 138.304745 
L 218.029407 137.251373 
L 218.14306 137.251373 
L 218.14306 135.144629 
L 220.581043 135.144629 
L 220.581043 134.617943 
L 221.976852 134.617943 
L 221.976852 134.091257 
L 222.250291 134.091257 
L 222.253982 132.511199 
L 222.481758 132.511199 
L 222.481758 131.984513 
L 222.689058 131.984513 
L 222.747453 130.93114 
L 222.974669 130.93114 
L 222.974669 130.404454 
L 223.094652 130.404454 
L 223.094652 129.877768 
L 223.237811 129.877768 
L 223.237811 129.351082 
L 225.120204 129.351082 
L 225.120204 128.824396 
L 225.291959 128.824396 
L 225.291959 128.29771 
L 228.279723 128.29771 
L 228.279723 127.771024 
L 228.687655 127.771024 
L 228.687655 127.244338 
L 230.134139 127.244338 
L 230.213814 126.190966 
L 230.251766 126.190966 
L 230.251766 125.137593 
L 231.366132 125.137593 
L 231.366132 124.610907 
L 232.903803 124.610907 
L 232.948332 123.557535 
L 234.200701 123.557535 
L 234.200701 123.030849 
L 235.195164 123.030849 
L 235.283237 121.977477 
L 235.326235 121.977477 
L 235.326235 121.450791 
L 236.127431 121.450791 
L 236.154477 120.397419 
L 239.802393 120.397419 
L 239.802393 119.870733 
L 239.968894 119.870733 
L 239.968894 119.344047 
L 240.879958 119.344047 
L 240.879958 118.817361 
L 243.109318 118.817361 
L 243.109318 118.290674 
L 243.775459 118.290674 
L 243.775459 117.763988 
L 245.697695 117.763988 
L 245.697695 117.237302 
L 247.414442 117.237302 
L 247.414442 116.18393 
L 250.86442 116.18393 
L 250.86442 115.657244 
L 255.197446 115.657244 
L 255.197446 115.130558 
L 260.30143 115.130558 
L 260.30143 114.603872 
L 338.688 114.603872 
L 338.688 114.603872 
" style="fill:none;stroke:#ff7500;stroke-linecap:square;stroke-width:1.5;"/>
   </g>
   <g id="line2d_41">
    <defs>
     <path d="M 0 -6 
L -1.347084 -1.854102 
L -5.706339 -1.854102 
L -2.179628 0.708204 
L -3.526712 4.854102 
L -0 2.291796 
L 3.526712 4.854102 
L 2.179628 0.708204 
L 5.706339 -1.854102 
L 1.347084 -1.854102 
z
" id="m8cff809d11" style="stroke:#ff7500;stroke-linejoin:bevel;stroke-width:1.5;"/>
    </defs>
    <g>
     <use style="fill-opacity:0;stroke:#ff7500;stroke-linejoin:bevel;stroke-width:1.5;" x="150.849711" xlink:href="#m8cff809d11" y="263.129347"/>
     <use style="fill-opacity:0;stroke:#ff7500;stroke-linejoin:bevel;stroke-width:1.5;" x="213.162064" xlink:href="#m8cff809d11" y="144.098292"/>
     <use style="fill-opacity:0;stroke:#ff7500;stroke-linejoin:bevel;stroke-width:1.5;" x="260.30143" xlink:href="#m8cff809d11" y="114.603872"/>
     <use style="fill-opacity:0;stroke:#ff7500;stroke-linejoin:bevel;stroke-width:1.5;" x="260.30143" xlink:href="#m8cff809d11" y="114.603872"/>
     <use style="fill-opacity:0;stroke:#ff7500;stroke-linejoin:bevel;stroke-width:1.5;" x="338.688" xlink:href="#m8cff809d11" y="114.603872"/>
    </g>
   </g>
   <g id="line2d_42">
    <path style="fill:none;stroke:#ff7500;stroke-linecap:square;stroke-width:1.5;"/>
    <g/>
   </g>
   <g id="line2d_43">
    <path clip-path="url(#pbdce03061e)" d="M 186.974717 195.186842 
" style="fill:none;stroke:#ff7500;stroke-linecap:square;stroke-width:1.5;"/>
    <defs>
     <path d="M -12 12 
L 12 -12 
M -12 -12 
L 12 12 
" id="m20dc1b94d8" style="stroke:#ff7500;"/>
    </defs>
    <g clip-path="url(#pbdce03061e)">
     <use style="fill:#ff7500;stroke:#ff7500;" x="186.974717" xlink:href="#m20dc1b94d8" y="195.186842"/>
    </g>
   </g>
   <g id="line2d_44">
    <defs>
     <path d="M 0 1.5 
C 0.397805 1.5 0.77937 1.341951 1.06066 1.06066 
C 1.341951 0.77937 1.5 0.397805 1.5 0 
C 1.5 -0.397805 1.341951 -0.77937 1.06066 -1.06066 
C 0.77937 -1.341951 0.397805 -1.5 0 -1.5 
C -0.397805 -1.5 -0.77937 -1.341951 -1.06066 -1.06066 
C -1.341951 -0.77937 -1.5 -0.397805 -1.5 0 
C -1.5 0.397805 -1.341951 0.77937 -1.06066 1.06066 
C -0.77937 1.341951 -0.397805 1.5 0 1.5 
z
" id="m9d5a1edc52" style="stroke:#6495ed;"/>
    </defs>
    <g>
     <use style="fill:#6495ed;stroke:#6495ed;" x="225.183884" xlink:href="#m9d5a1edc52" y="188.339923"/>
     <use style="fill:#6495ed;stroke:#6495ed;" x="225.183884" xlink:href="#m9d5a1edc52" y="188.339923"/>
    </g>
   </g>
   <g id="line2d_45">
    <path d="M 76.759008 298.944 
L 76.759008 298.417314 
L 81.775977 298.417314 
L 81.775977 297.890628 
L 84.464254 297.890628 
L 84.464254 297.363942 
L 85.66744 297.363942 
L 85.66744 296.31057 
L 104.826449 296.31057 
L 104.826449 295.257197 
L 107.347841 295.257197 
L 107.347841 294.203825 
L 112.280765 294.203825 
L 112.280765 293.677139 
L 114.193835 293.677139 
L 114.193835 293.150453 
L 119.602714 293.150453 
L 119.602714 292.623767 
L 122.219665 292.623767 
L 122.219665 292.097081 
L 123.056911 292.097081 
L 123.056911 291.570395 
L 124.619683 291.570395 
L 124.619683 291.043709 
L 126.168212 291.043709 
L 126.168212 290.517023 
L 126.3947 290.517023 
L 126.3947 288.936964 
L 126.839037 288.936964 
L 126.839037 288.410278 
L 129.945319 288.410278 
L 129.945319 287.883592 
L 130.752422 287.883592 
L 130.752422 287.356906 
L 131.355321 287.356906 
L 131.355321 286.83022 
L 133.04822 286.83022 
L 133.04822 286.303534 
L 133.352844 286.303534 
L 133.352844 285.776848 
L 133.800029 285.776848 
L 133.800029 285.250162 
L 135.144899 285.250162 
L 135.144899 284.19679 
L 135.615352 284.19679 
L 135.615352 283.670104 
L 136.769843 283.670104 
L 136.769843 283.143418 
L 137.077422 283.143418 
L 137.077422 282.616732 
L 137.558536 282.616732 
L 137.558536 281.563359 
L 137.735587 281.563359 
L 137.735587 281.036673 
L 137.852629 281.036673 
L 137.852629 280.509987 
L 138.761723 280.509987 
L 138.761723 278.929929 
L 139.360321 278.929929 
L 139.360321 278.403243 
L 139.572998 278.403243 
L 139.572998 277.349871 
L 139.990725 277.349871 
L 139.990725 276.296499 
L 141.33096 276.296499 
L 141.426256 274.71644 
L 142.884173 274.71644 
L 142.884173 273.663068 
L 143.943994 273.663068 
L 143.943994 273.136382 
L 145.251067 273.136382 
L 145.251067 271.556324 
L 145.403044 271.556324 
L 145.403044 271.029638 
L 146.538004 271.029638 
L 146.538004 270.502952 
L 148.258051 270.502952 
L 148.258051 269.449579 
L 148.607802 269.449579 
L 148.607802 268.922893 
L 150.570677 268.922893 
L 150.570677 268.396207 
L 151.740076 268.396207 
L 151.740076 267.869521 
L 152.436193 267.869521 
L 152.436193 266.816149 
L 155.210911 266.816149 
L 155.210911 265.762777 
L 155.46769 265.762777 
L 155.46769 265.236091 
L 155.594676 265.236091 
L 155.594676 264.182719 
L 155.825108 264.182719 
L 155.845906 262.075974 
L 156.855406 262.075974 
L 156.933697 260.495916 
L 158.429943 260.495916 
L 158.429943 259.96923 
L 159.956318 259.96923 
L 159.98913 258.915858 
L 160.184713 258.915858 
L 160.184713 257.862486 
L 161.007772 257.862486 
L 161.007772 257.3358 
L 163.19871 257.3358 
L 163.19871 256.282427 
L 164.050224 256.282427 
L 164.050224 255.755741 
L 164.346358 255.755741 
L 164.346358 255.229055 
L 164.712717 255.229055 
L 164.76265 253.122311 
L 165.435121 253.122311 
L 165.435121 252.595625 
L 166.471192 252.595625 
L 166.471192 252.068939 
L 167.481174 252.068939 
L 167.481174 251.542253 
L 168.972794 251.542253 
L 168.972794 251.015567 
L 169.579021 251.015567 
L 169.579021 250.488881 
L 169.748427 250.488881 
L 169.748427 249.962195 
L 170.319654 249.962195 
L 170.319654 249.435508 
L 170.43709 249.435508 
L 170.43709 248.908822 
L 170.687376 248.908822 
L 170.687376 248.382136 
L 170.907851 248.382136 
L 170.907851 247.85545 
L 171.073566 247.85545 
L 171.073566 247.328764 
L 171.879317 247.328764 
L 171.879317 246.275392 
L 172.466115 246.275392 
L 172.466115 245.748706 
L 172.877961 245.748706 
L 172.877961 245.22202 
L 173.219006 245.22202 
L 173.219006 244.695334 
L 173.807666 244.695334 
L 173.807666 244.168648 
L 174.73962 244.168648 
L 174.774759 243.115275 
L 175.032607 243.115275 
L 175.032607 242.588589 
L 175.922628 242.588589 
L 175.968581 240.481845 
L 177.011942 240.481845 
L 177.011942 239.955159 
L 177.978871 239.955159 
L 177.978871 239.428473 
L 178.394524 239.428473 
L 178.394524 238.901787 
L 178.609966 238.901787 
L 178.609966 238.375101 
L 178.828345 238.375101 
L 178.828345 237.848415 
L 179.065994 237.848415 
L 179.065994 237.321729 
L 179.975052 237.321729 
L 179.980262 236.268356 
L 180.161626 236.268356 
L 180.228512 234.161612 
L 180.609464 234.161612 
L 180.609464 233.10824 
L 180.739608 233.10824 
L 180.844021 232.054868 
L 180.868789 232.054868 
L 180.868789 231.528182 
L 181.207046 231.528182 
L 181.207046 229.948123 
L 181.467266 229.948123 
L 181.467266 229.421437 
L 181.897188 229.421437 
L 181.967047 225.734635 
L 182.105933 225.734635 
L 182.105933 223.627891 
L 182.659607 223.627891 
L 182.677466 222.047832 
L 183.013357 222.047832 
L 183.013357 220.99446 
L 183.217888 220.99446 
L 183.217888 219.941088 
L 183.863389 219.941088 
L 183.863389 218.887716 
L 184.189675 218.887716 
L 184.250944 217.834344 
L 184.36069 217.834344 
L 184.36069 217.307658 
L 184.501932 217.307658 
L 184.501932 216.780971 
L 184.650012 216.780971 
L 184.721598 215.200913 
L 184.95812 215.200913 
L 185.040151 213.094169 
L 185.237776 213.094169 
L 185.337671 212.040797 
L 185.596261 212.040797 
L 185.596261 211.514111 
L 186.127863 211.514111 
L 186.127863 210.987425 
L 186.529615 210.987425 
L 186.529615 210.460738 
L 195.295057 210.460738 
L 195.295057 209.934052 
L 195.460931 209.934052 
L 195.460931 209.407366 
L 196.265384 209.407366 
L 196.265384 208.88068 
L 196.416233 208.88068 
L 196.525494 207.827308 
L 196.730028 207.827308 
L 196.730028 207.300622 
L 197.205906 207.300622 
L 197.205906 206.24725 
L 197.725722 206.24725 
L 197.819613 203.613819 
L 198.089073 203.613819 
L 198.089073 203.087133 
L 198.215851 203.087133 
L 198.215851 202.560447 
L 198.567439 202.560447 
L 198.567439 202.033761 
L 198.689018 202.033761 
L 198.792051 200.980389 
L 204.618846 200.980389 
L 204.656849 199.927017 
L 204.815561 199.927017 
L 204.918079 198.873645 
L 205.253887 198.873645 
L 205.314919 197.820273 
L 205.604936 197.820273 
L 205.604936 197.293586 
L 205.805116 197.293586 
L 205.885492 195.713528 
L 205.953757 195.713528 
L 205.953757 195.186842 
L 210.054927 195.186842 
L 210.054927 194.660156 
L 210.540222 194.660156 
L 210.540222 193.606784 
L 210.732407 193.606784 
L 210.755613 192.553412 
L 214.845735 192.553412 
L 214.845735 192.026726 
L 217.79628 192.026726 
L 217.79628 191.50004 
L 218.131962 191.50004 
L 218.131962 190.973354 
L 220.563771 190.973354 
L 220.563771 190.446667 
L 220.769916 190.446667 
L 220.769916 189.919981 
L 223.116179 189.919981 
L 223.116179 189.393295 
L 225.183884 189.393295 
L 225.183884 188.339923 
L 338.688 188.339923 
L 338.688 188.339923 
" style="fill:none;stroke:#6495ed;stroke-linecap:square;stroke-width:1.5;"/>
   </g>
   <g id="line2d_46">
    <defs>
     <path d="M -0 6 
L 6 -6 
L -6 -6 
z
" id="m8a14e220b1" style="stroke:#6495ed;stroke-linejoin:miter;stroke-width:1.5;"/>
    </defs>
    <g>
     <use style="fill-opacity:0;stroke:#6495ed;stroke-linejoin:miter;stroke-width:1.5;" x="119.602714" xlink:href="#m8a14e220b1" y="293.150453"/>
     <use style="fill-opacity:0;stroke:#6495ed;stroke-linejoin:miter;stroke-width:1.5;" x="186.529615" xlink:href="#m8a14e220b1" y="210.987425"/>
     <use style="fill-opacity:0;stroke:#6495ed;stroke-linejoin:miter;stroke-width:1.5;" x="225.183884" xlink:href="#m8a14e220b1" y="189.393295"/>
     <use style="fill-opacity:0;stroke:#6495ed;stroke-linejoin:miter;stroke-width:1.5;" x="225.183884" xlink:href="#m8a14e220b1" y="188.339923"/>
     <use style="fill-opacity:0;stroke:#6495ed;stroke-linejoin:miter;stroke-width:1.5;" x="338.688" xlink:href="#m8a14e220b1" y="188.339923"/>
    </g>
   </g>
   <g id="line2d_47">
    <path style="fill:none;stroke:#6495ed;stroke-linecap:square;stroke-width:1.5;"/>
    <g/>
   </g>
   <g id="line2d_48">
    <path clip-path="url(#pbdce03061e)" d="M 186.974717 210.460738 
" style="fill:none;stroke:#6495ed;stroke-linecap:square;stroke-width:1.5;"/>
    <defs>
     <path d="M -12 12 
L 12 -12 
M -12 -12 
L 12 12 
" id="m49d5b56507" style="stroke:#6495ed;"/>
    </defs>
    <g clip-path="url(#pbdce03061e)">
     <use style="fill:#6495ed;stroke:#6495ed;" x="186.974717" xlink:href="#m49d5b56507" y="210.460738"/>
    </g>
   </g>
   <g id="line2d_49">
    <defs>
     <path d="M 0 1.5 
C 0.397805 1.5 0.77937 1.341951 1.06066 1.06066 
C 1.341951 0.77937 1.5 0.397805 1.5 0 
C 1.5 -0.397805 1.341951 -0.77937 1.06066 -1.06066 
C 0.77937 -1.341951 0.397805 -1.5 0 -1.5 
C -0.397805 -1.5 -0.77937 -1.341951 -1.06066 -1.06066 
C -1.341951 -0.77937 -1.5 -0.397805 -1.5 0 
C -1.5 0.397805 -1.341951 0.77937 -1.06066 1.06066 
C -0.77937 1.341951 -0.397805 1.5 0 1.5 
z
" id="me286f7bca9" style="stroke:#ff0000;"/>
    </defs>
    <g>
     <use style="fill:#ff0000;stroke:#ff0000;" x="249.445928" xlink:href="#me286f7bca9" y="40.867821"/>
     <use style="fill:#ff0000;stroke:#ff0000;" x="249.445928" xlink:href="#me286f7bca9" y="40.867821"/>
    </g>
   </g>
   <g id="line2d_50">
    <path d="M 76.759008 298.944 
L 76.759008 298.417314 
L 81.775977 298.417314 
L 81.775977 297.890628 
L 85.66744 297.890628 
L 85.66744 296.837256 
L 104.826449 296.837256 
L 104.826449 295.257197 
L 107.347841 295.257197 
L 107.347841 294.203825 
L 107.680028 294.203825 
L 107.680028 293.677139 
L 113.26352 293.677139 
L 113.26352 293.150453 
L 115.917635 293.150453 
L 115.917635 292.623767 
L 116.522527 292.623767 
L 116.522527 291.570395 
L 116.914437 291.570395 
L 116.914437 290.517023 
L 120.41399 290.517023 
L 120.41399 289.990337 
L 122.219665 289.990337 
L 122.219665 289.463651 
L 123.327293 289.463651 
L 123.327293 288.936964 
L 123.855796 288.936964 
L 123.855796 287.356906 
L 124.114161 287.356906 
L 124.114161 286.83022 
L 124.619683 286.83022 
L 124.619683 284.19679 
L 124.867052 284.19679 
L 124.867052 283.670104 
L 126.053856 283.670104 
L 126.053856 283.143418 
L 126.281824 283.143418 
L 126.281824 282.616732 
L 126.618283 282.616732 
L 126.618283 282.090045 
L 127.590383 282.090045 
L 127.695124 279.983301 
L 128.107907 279.983301 
L 128.107907 279.456615 
L 129.574256 279.456615 
L 129.574256 278.929929 
L 129.945319 278.929929 
L 130.036864 277.876557 
L 130.576266 277.876557 
L 130.576266 277.349871 
L 132.101058 277.349871 
L 132.101058 276.296499 
L 132.816208 276.296499 
L 132.816208 275.769812 
L 133.201197 275.769812 
L 133.201197 274.71644 
L 134.091907 274.71644 
L 134.091907 274.189754 
L 134.7313 274.189754 
L 134.7313 273.136382 
L 138.369812 273.136382 
L 138.426341 272.08301 
L 139.572998 272.08301 
L 139.572998 271.556324 
L 140.549236 271.556324 
L 140.549236 271.029638 
L 142.619936 271.029638 
L 142.619936 269.976266 
L 143.44331 269.976266 
L 143.44331 269.449579 
L 144.026061 269.449579 
L 144.026061 268.922893 
L 145.136208 268.922893 
L 145.174578 267.869521 
L 145.365173 267.869521 
L 145.365173 267.342835 
L 146.502522 267.342835 
L 146.502522 266.816149 
L 147.86833 266.816149 
L 147.86833 266.289463 
L 148.576295 266.289463 
L 148.576295 265.762777 
L 149.165411 265.762777 
L 149.195872 264.709405 
L 150.287105 264.709405 
L 150.287105 264.182719 
L 150.457801 264.182719 
L 150.457801 263.656033 
L 150.932558 263.656033 
L 150.932558 262.60266 
L 151.949246 262.60266 
L 151.949246 261.549288 
L 152.461449 261.549288 
L 152.461449 259.96923 
L 152.811246 259.96923 
L 152.811246 259.442544 
L 153.056874 259.442544 
L 153.056874 258.915858 
L 154.144227 258.915858 
L 154.144227 258.389172 
L 154.551917 258.389172 
L 154.551917 257.862486 
L 154.906477 257.862486 
L 154.950294 256.809114 
L 155.55245 256.809114 
L 155.55245 256.282427 
L 156.093569 256.282427 
L 156.093569 255.755741 
L 156.277034 255.755741 
L 156.277034 255.229055 
L 157.660438 255.229055 
L 157.660438 254.175683 
L 159.218393 254.175683 
L 159.286782 253.122311 
L 159.874019 253.122311 
L 159.874019 252.595625 
L 160.087195 252.595625 
L 160.087195 252.068939 
L 160.346039 252.068939 
L 160.346039 251.542253 
L 162.489076 251.542253 
L 162.489076 251.015567 
L 162.979172 251.015567 
L 162.979172 250.488881 
L 163.280329 250.488881 
L 163.280329 249.962195 
L 163.50953 249.962195 
L 163.50953 249.435508 
L 164.205356 249.435508 
L 164.205356 248.908822 
L 164.923954 248.908822 
L 164.923954 248.382136 
L 165.471066 248.382136 
L 165.471066 247.85545 
L 165.896723 247.85545 
L 165.896723 247.328764 
L 167.234109 247.328764 
L 167.234109 246.802078 
L 168.385289 246.802078 
L 168.385289 246.275392 
L 168.835167 246.275392 
L 168.835167 245.748706 
L 169.099626 245.748706 
L 169.099626 245.22202 
L 169.493697 245.22202 
L 169.493697 244.695334 
L 170.58055 244.695334 
L 170.58055 244.168648 
L 170.863978 244.168648 
L 170.863978 243.115275 
L 171.18605 243.115275 
L 171.272086 242.061903 
L 171.297814 242.061903 
L 171.297814 241.535217 
L 171.771231 241.535217 
L 171.771231 241.008531 
L 171.928978 241.008531 
L 171.928978 240.481845 
L 172.150719 240.481845 
L 172.183331 239.428473 
L 172.862299 239.428473 
L 172.917053 237.848415 
L 173.026049 237.848415 
L 173.072554 236.268356 
L 173.14208 236.268356 
L 173.14208 235.74167 
L 173.417442 235.74167 
L 173.478048 234.688298 
L 173.658612 234.688298 
L 173.658612 234.161612 
L 173.955458 234.161612 
L 173.955458 233.634926 
L 174.123884 233.634926 
L 174.123884 233.10824 
L 174.297915 233.10824 
L 174.348349 228.894751 
L 174.505913 228.894751 
L 174.59126 227.841379 
L 174.753684 227.841379 
L 174.753684 227.314693 
L 174.949398 227.314693 
L 175.060255 226.261321 
L 175.094755 226.261321 
L 175.094755 225.734635 
L 175.232072 225.734635 
L 175.232072 225.207949 
L 175.347948 225.207949 
L 175.415753 224.154577 
L 175.503506 224.154577 
L 175.503506 223.627891 
L 175.657689 223.627891 
L 175.704345 222.574518 
L 175.869961 222.574518 
L 175.948902 220.467774 
L 176.170646 220.467774 
L 176.209486 218.36103 
L 176.624803 218.36103 
L 176.700407 215.200913 
L 176.800705 215.200913 
L 176.894213 212.567483 
L 176.94388 212.567483 
L 177.048955 209.934052 
L 177.153401 209.934052 
L 177.214548 208.88068 
L 177.299796 208.88068 
L 177.396715 207.300622 
L 177.463036 207.300622 
L 177.499105 205.720564 
L 177.666447 205.720564 
L 177.666447 205.193878 
L 177.814514 205.193878 
L 177.908622 204.140506 
L 178.013889 204.140506 
L 178.037196 202.033761 
L 178.141693 202.033761 
L 178.141693 201.507075 
L 178.394524 201.507075 
L 178.394524 199.400331 
L 178.576125 199.400331 
L 178.598693 197.820273 
L 178.694282 197.820273 
L 178.694282 195.186842 
L 178.922687 195.186842 
L 178.922687 194.660156 
L 179.082454 194.660156 
L 179.082454 194.13347 
L 179.392276 194.13347 
L 179.435323 193.080098 
L 179.712566 193.080098 
L 179.712566 192.553412 
L 179.839052 192.553412 
L 179.948981 190.973354 
L 180.068589 190.973354 
L 180.068589 190.446667 
L 180.463148 190.446667 
L 180.498578 188.866609 
L 180.709661 188.866609 
L 180.709661 187.813237 
L 180.91822 187.813237 
L 180.91822 187.286551 
L 181.075464 187.286551 
L 181.075464 186.759865 
L 181.294218 186.759865 
L 181.308704 185.706493 
L 181.457697 185.706493 
L 181.534102 184.653121 
L 181.633877 184.653121 
L 181.714232 183.073062 
L 181.822361 183.073062 
L 181.845779 181.493004 
L 182.031998 181.493004 
L 182.031998 180.966318 
L 182.248295 180.966318 
L 182.330427 177.806202 
L 182.430288 177.806202 
L 182.430288 176.752829 
L 182.587988 176.752829 
L 182.587988 176.226143 
L 182.753163 176.226143 
L 182.8418 175.172771 
L 182.934387 175.172771 
L 183.02211 173.066027 
L 183.083254 173.066027 
L 183.083254 172.539341 
L 183.213561 172.539341 
L 183.308504 169.379224 
L 183.390086 169.379224 
L 183.449956 167.799166 
L 183.513876 167.799166 
L 183.581799 166.219108 
L 183.721061 166.219108 
L 183.721061 165.692422 
L 183.888385 165.692422 
L 183.996292 163.585677 
L 184.206035 163.585677 
L 184.287603 162.005619 
L 184.449604 162.005619 
L 184.457665 160.952247 
L 184.598127 160.952247 
L 184.677886 159.898875 
L 184.867832 159.898875 
L 184.867832 159.372189 
L 185.086853 159.372189 
L 185.110157 157.79213 
L 185.222357 157.79213 
L 185.318505 155.1587 
L 185.414125 155.1587 
L 185.429376 154.105328 
L 185.577377 154.105328 
L 185.67535 152.52527 
L 185.988171 152.52527 
L 186.025041 150.945211 
L 186.135184 150.945211 
L 186.179047 147.258409 
L 186.266444 147.258409 
L 186.266444 146.731723 
L 186.411139 146.731723 
L 186.429142 145.678351 
L 186.579636 145.678351 
L 186.672152 144.624978 
L 186.820572 144.624978 
L 186.894312 143.571606 
L 189.232199 143.571606 
L 189.232199 143.04492 
L 189.715731 143.04492 
L 189.715731 142.518234 
L 191.156727 142.518234 
L 191.156727 141.991548 
L 191.434411 141.991548 
L 191.434411 141.464862 
L 192.000403 141.464862 
L 192.000403 140.938176 
L 192.252192 140.938176 
L 192.252192 140.41149 
L 193.067801 140.41149 
L 193.067801 139.884804 
L 193.396693 139.884804 
L 193.48336 138.304745 
L 193.868118 138.304745 
L 193.868118 137.251373 
L 194.384241 137.251373 
L 194.484297 135.671315 
L 194.662515 135.671315 
L 194.67149 133.564571 
L 194.887742 133.564571 
L 194.960706 131.984513 
L 195.151612 131.984513 
L 195.16034 130.93114 
L 195.366339 130.93114 
L 195.372805 129.877768 
L 195.497341 129.877768 
L 195.497341 129.351082 
L 195.806947 129.351082 
L 195.85732 128.29771 
L 196.115283 128.29771 
L 196.210018 126.717652 
L 196.603982 126.717652 
L 196.603982 126.190966 
L 196.72604 126.190966 
L 196.72604 125.66428 
L 196.859127 125.66428 
L 196.938101 123.030849 
L 197.104741 123.030849 
L 197.172898 121.450791 
L 197.283328 121.450791 
L 197.362331 119.870733 
L 197.417995 119.870733 
L 197.448631 118.817361 
L 197.631323 118.817361 
L 197.733252 116.710616 
L 197.770853 116.710616 
L 197.770853 116.18393 
L 197.914864 116.18393 
L 197.992917 115.130558 
L 198.041061 115.130558 
L 198.041061 114.603872 
L 198.153496 114.603872 
L 198.252427 113.023814 
L 198.307147 113.023814 
L 198.378027 110.390383 
L 198.42693 110.390383 
L 198.42693 109.863697 
L 198.576408 109.863697 
L 198.669408 105.123522 
L 198.712165 105.123522 
L 198.792051 103.016778 
L 198.866284 103.016778 
L 198.938445 101.963406 
L 202.567648 101.963406 
L 202.567648 101.43672 
L 203.079282 101.43672 
L 203.079282 100.910034 
L 203.326847 100.910034 
L 203.375941 99.856662 
L 203.775778 99.856662 
L 203.775778 99.329976 
L 203.953218 99.329976 
L 203.953218 98.803289 
L 204.22512 98.803289 
L 204.22512 98.276603 
L 204.437836 98.276603 
L 204.437836 97.749917 
L 204.585844 97.749917 
L 204.683401 96.696545 
L 204.718742 96.696545 
L 204.790464 95.116487 
L 204.840621 95.116487 
L 204.913092 92.483056 
L 204.96787 92.483056 
L 204.987746 91.429684 
L 205.115163 91.429684 
L 205.196322 89.849626 
L 205.436346 89.849626 
L 205.534086 88.796254 
L 205.572549 88.796254 
L 205.680273 86.68951 
L 205.811039 86.68951 
L 205.919658 84.056079 
L 206.003024 84.056079 
L 206.05332 81.422649 
L 208.546793 81.422649 
L 208.546793 80.895963 
L 208.746102 80.895963 
L 208.746102 80.369277 
L 209.136055 80.369277 
L 209.136055 79.842591 
L 209.41279 79.842591 
L 209.41279 79.315904 
L 209.782615 79.315904 
L 209.782615 78.262532 
L 210.083687 78.262532 
L 210.083687 77.735846 
L 210.75026 77.735846 
L 210.811715 76.155788 
L 210.900397 76.155788 
L 210.955154 72.995672 
L 211.088675 72.995672 
L 211.112286 71.942299 
L 213.555408 71.942299 
L 213.555408 71.415613 
L 214.190908 71.415613 
L 214.223107 69.835555 
L 214.354939 69.835555 
L 214.363644 68.782183 
L 214.475697 68.782183 
L 214.475697 68.255497 
L 214.59133 68.255497 
L 214.684141 66.675439 
L 214.849262 66.675439 
L 214.914032 62.988636 
L 217.371198 62.988636 
L 217.371198 62.46195 
L 217.690528 62.46195 
L 217.690528 61.935264 
L 217.847432 61.935264 
L 217.847432 61.408578 
L 218.011766 61.408578 
L 218.091598 58.775147 
L 218.180392 58.775147 
L 218.180392 58.248461 
L 220.26336 58.248461 
L 220.26336 57.721775 
L 220.390615 57.721775 
L 220.390615 57.195089 
L 220.624149 57.195089 
L 220.655523 56.141717 
L 220.792504 56.141717 
L 220.874579 52.454914 
L 222.915699 52.454914 
L 222.915699 51.928228 
L 223.171412 51.928228 
L 223.208574 50.34817 
L 225.107675 50.34817 
L 225.107675 49.821484 
L 225.22167 49.821484 
L 225.249276 48.768112 
L 226.67001 48.768112 
L 226.67001 48.241426 
L 227.047988 48.241426 
L 227.047988 47.71474 
L 228.734165 47.71474 
L 228.76976 46.661368 
L 231.686531 46.661368 
L 231.686531 46.134681 
L 234.16532 46.134681 
L 234.16532 45.607995 
L 235.275368 45.607995 
L 235.311187 44.554623 
L 236.369348 44.554623 
L 236.379202 43.501251 
L 237.36696 43.501251 
L 237.36696 42.974565 
L 242.363506 42.974565 
L 242.363506 41.921193 
L 244.422912 41.921193 
L 244.422912 41.394507 
L 249.445928 41.394507 
L 249.445928 40.867821 
L 338.688 40.867821 
L 338.688 40.867821 
" style="fill:none;stroke:#ff0000;stroke-linecap:square;stroke-width:1.5;"/>
   </g>
   <g id="line2d_51">
    <defs>
     <path d="M 0 -6 
L -5.196152 -3 
L -5.196152 3 
L -0 6 
L 5.196152 3 
L 5.196152 -3 
z
" id="m3d92f6e5f8" style="stroke:#ff0000;stroke-linejoin:miter;stroke-width:1.5;"/>
    </defs>
    <g>
     <use style="fill-opacity:0;stroke:#ff0000;stroke-linejoin:miter;stroke-width:1.5;" x="178.141693" xlink:href="#m3d92f6e5f8" y="201.507075"/>
     <use style="fill-opacity:0;stroke:#ff0000;stroke-linejoin:miter;stroke-width:1.5;" x="204.737645" xlink:href="#m3d92f6e5f8" y="96.169859"/>
     <use style="fill-opacity:0;stroke:#ff0000;stroke-linejoin:miter;stroke-width:1.5;" x="249.445928" xlink:href="#m3d92f6e5f8" y="40.867821"/>
     <use style="fill-opacity:0;stroke:#ff0000;stroke-linejoin:miter;stroke-width:1.5;" x="249.445928" xlink:href="#m3d92f6e5f8" y="40.867821"/>
     <use style="fill-opacity:0;stroke:#ff0000;stroke-linejoin:miter;stroke-width:1.5;" x="338.688" xlink:href="#m3d92f6e5f8" y="40.867821"/>
    </g>
   </g>
   <g id="line2d_52">
    <path style="fill:none;stroke:#ff0000;stroke-linecap:square;stroke-width:1.5;"/>
    <g/>
   </g>
   <g id="line2d_53">
    <path clip-path="url(#pbdce03061e)" d="M 186.974717 143.571606 
" style="fill:none;stroke:#ff0000;stroke-linecap:square;stroke-width:1.5;"/>
    <defs>
     <path d="M -12 12 
L 12 -12 
M -12 -12 
L 12 12 
" id="mc76bc28ffb" style="stroke:#ff0000;"/>
    </defs>
    <g clip-path="url(#pbdce03061e)">
     <use style="fill:#ff0000;stroke:#ff0000;" x="186.974717" xlink:href="#mc76bc28ffb" y="143.571606"/>
    </g>
   </g>
   <g id="line2d_54">
    <path d="M 338.688 272.609696 
L 369.60768 293.571802 
" style="fill:none;stroke:#000080;stroke-linecap:square;stroke-width:1.5;"/>
    <g>
     <use style="fill-opacity:0;stroke:#000080;stroke-width:1.5;" x="338.688" xlink:href="#mb0c0920062" y="272.609696"/>
     <use style="fill-opacity:0;stroke:#000080;stroke-width:1.5;" x="369.60768" xlink:href="#mb0c0920062" y="293.571802"/>
    </g>
   </g>
   <g id="line2d_55">
    <path d="M 338.688 188.339923 
L 369.60768 229.105426 
" style="fill:none;stroke:#6495ed;stroke-linecap:square;stroke-width:1.5;"/>
    <g>
     <use style="fill-opacity:0;stroke:#6495ed;stroke-linejoin:miter;stroke-width:1.5;" x="338.688" xlink:href="#m8a14e220b1" y="188.339923"/>
     <use style="fill-opacity:0;stroke:#6495ed;stroke-linejoin:miter;stroke-width:1.5;" x="369.60768" xlink:href="#m8a14e220b1" y="229.105426"/>
    </g>
   </g>
   <g id="line2d_56">
    <path d="M 338.688 114.603872 
L 369.60768 164.63905 
" style="fill:none;stroke:#ff7500;stroke-linecap:square;stroke-width:1.5;"/>
    <g>
     <use style="fill-opacity:0;stroke:#ff7500;stroke-linejoin:bevel;stroke-width:1.5;" x="338.688" xlink:href="#m8cff809d11" y="114.603872"/>
     <use style="fill-opacity:0;stroke:#ff7500;stroke-linejoin:bevel;stroke-width:1.5;" x="369.60768" xlink:href="#m8cff809d11" y="164.63905"/>
    </g>
   </g>
   <g id="line2d_57">
    <path d="M 338.688 40.867821 
L 369.60768 100.172673 
" style="fill:none;stroke:#ff0000;stroke-linecap:square;stroke-width:1.5;"/>
    <g>
     <use style="fill-opacity:0;stroke:#ff0000;stroke-linejoin:miter;stroke-width:1.5;" x="338.688" xlink:href="#m3d92f6e5f8" y="40.867821"/>
     <use style="fill-opacity:0;stroke:#ff0000;stroke-linejoin:miter;stroke-width:1.5;" x="369.60768" xlink:href="#m3d92f6e5f8" y="100.172673"/>
    </g>
   </g>
   <g id="line2d_58">
    <path d="M 338.688 298.944 
L 338.688 30.334099 
" style="fill:none;stroke:#000000;stroke-linecap:square;stroke-width:1.5;"/>
   </g>
   <g id="patch_3">
    <path d="M 57.6 298.944 
L 57.6 27.648 
" style="fill:none;stroke:#000000;stroke-linecap:square;stroke-linejoin:miter;stroke-width:0.8;"/>
   </g>
   <g id="patch_4">
    <path d="M 338.688 298.944 
L 338.688 27.648 
" style="fill:none;stroke:#000000;stroke-linecap:square;stroke-linejoin:miter;stroke-width:0.8;"/>
   </g>
   <g id="patch_5">
    <path d="M 57.6 298.944 
L 338.688 298.944 
" style="fill:none;stroke:#000000;stroke-linecap:square;stroke-linejoin:miter;stroke-width:0.8;"/>
   </g>
   <g id="patch_6">
    <path d="M 57.6 27.648 
L 338.688 27.648 
" style="fill:none;stroke:#000000;stroke-linecap:square;stroke-linejoin:miter;stroke-width:0.8;"/>
   </g>
   <g id="text_13">
    <!-- ABC -->
    <defs>
     <path d="M 34.1875 63.1875 
L 20.796875 26.90625 
L 47.609375 26.90625 
z
M 28.609375 72.90625 
L 39.796875 72.90625 
L 67.578125 0 
L 57.328125 0 
L 50.6875 18.703125 
L 17.828125 18.703125 
L 11.1875 0 
L 0.78125 0 
z
" id="DejaVuSans-65"/>
     <path d="M 19.671875 34.8125 
L 19.671875 8.109375 
L 35.5 8.109375 
Q 43.453125 8.109375 47.28125 11.40625 
Q 51.125 14.703125 51.125 21.484375 
Q 51.125 28.328125 47.28125 31.5625 
Q 43.453125 34.8125 35.5 34.8125 
z
M 19.671875 64.796875 
L 19.671875 42.828125 
L 34.28125 42.828125 
Q 41.5 42.828125 45.03125 45.53125 
Q 48.578125 48.25 48.578125 53.8125 
Q 48.578125 59.328125 45.03125 62.0625 
Q 41.5 64.796875 34.28125 64.796875 
z
M 9.8125 72.90625 
L 35.015625 72.90625 
Q 46.296875 72.90625 52.390625 68.21875 
Q 58.5 63.53125 58.5 54.890625 
Q 58.5 48.1875 55.375 44.234375 
Q 52.25 40.28125 46.1875 39.3125 
Q 53.46875 37.75 57.5 32.78125 
Q 61.53125 27.828125 61.53125 20.40625 
Q 61.53125 10.640625 54.890625 5.3125 
Q 48.25 0 35.984375 0 
L 9.8125 0 
z
" id="DejaVuSans-66"/>
     <path d="M 64.40625 67.28125 
L 64.40625 56.890625 
Q 59.421875 61.53125 53.78125 63.8125 
Q 48.140625 66.109375 41.796875 66.109375 
Q 29.296875 66.109375 22.65625 58.46875 
Q 16.015625 50.828125 16.015625 36.375 
Q 16.015625 21.96875 22.65625 14.328125 
Q 29.296875 6.6875 41.796875 6.6875 
Q 48.140625 6.6875 53.78125 8.984375 
Q 59.421875 11.28125 64.40625 15.921875 
L 64.40625 5.609375 
Q 59.234375 2.09375 53.4375 0.328125 
Q 47.65625 -1.421875 41.21875 -1.421875 
Q 24.65625 -1.421875 15.125 8.703125 
Q 5.609375 18.84375 5.609375 36.375 
Q 5.609375 53.953125 15.125 64.078125 
Q 24.65625 74.21875 41.21875 74.21875 
Q 47.75 74.21875 53.53125 72.484375 
Q 59.328125 70.75 64.40625 67.28125 
z
" id="DejaVuSans-67"/>
    </defs>
    <g transform="translate(375.22944 298.262739)scale(0.17 -0.17)">
     <use xlink:href="#DejaVuSans-65"/>
     <use x="68.408203" xlink:href="#DejaVuSans-66"/>
     <use x="135.261719" xlink:href="#DejaVuSans-67"/>
    </g>
   </g>
   <g id="text_14">
    <!-- DEPSO -->
    <defs>
     <path d="M 19.671875 64.796875 
L 19.671875 8.109375 
L 31.59375 8.109375 
Q 46.6875 8.109375 53.6875 14.9375 
Q 60.6875 21.78125 60.6875 36.53125 
Q 60.6875 51.171875 53.6875 57.984375 
Q 46.6875 64.796875 31.59375 64.796875 
z
M 9.8125 72.90625 
L 30.078125 72.90625 
Q 51.265625 72.90625 61.171875 64.09375 
Q 71.09375 55.28125 71.09375 36.53125 
Q 71.09375 17.671875 61.125 8.828125 
Q 51.171875 0 30.078125 0 
L 9.8125 0 
z
" id="DejaVuSans-68"/>
     <path d="M 9.8125 72.90625 
L 55.90625 72.90625 
L 55.90625 64.59375 
L 19.671875 64.59375 
L 19.671875 43.015625 
L 54.390625 43.015625 
L 54.390625 34.71875 
L 19.671875 34.71875 
L 19.671875 8.296875 
L 56.78125 8.296875 
L 56.78125 0 
L 9.8125 0 
z
" id="DejaVuSans-69"/>
     <path d="M 19.671875 64.796875 
L 19.671875 37.40625 
L 32.078125 37.40625 
Q 38.96875 37.40625 42.71875 40.96875 
Q 46.484375 44.53125 46.484375 51.125 
Q 46.484375 57.671875 42.71875 61.234375 
Q 38.96875 64.796875 32.078125 64.796875 
z
M 9.8125 72.90625 
L 32.078125 72.90625 
Q 44.34375 72.90625 50.609375 67.359375 
Q 56.890625 61.8125 56.890625 51.125 
Q 56.890625 40.328125 50.609375 34.8125 
Q 44.34375 29.296875 32.078125 29.296875 
L 19.671875 29.296875 
L 19.671875 0 
L 9.8125 0 
z
" id="DejaVuSans-80"/>
     <path d="M 53.515625 70.515625 
L 53.515625 60.890625 
Q 47.90625 63.578125 42.921875 64.890625 
Q 37.9375 66.21875 33.296875 66.21875 
Q 25.25 66.21875 20.875 63.09375 
Q 16.5 59.96875 16.5 54.203125 
Q 16.5 49.359375 19.40625 46.890625 
Q 22.3125 44.4375 30.421875 42.921875 
L 36.375 41.703125 
Q 47.40625 39.59375 52.65625 34.296875 
Q 57.90625 29 57.90625 20.125 
Q 57.90625 9.515625 50.796875 4.046875 
Q 43.703125 -1.421875 29.984375 -1.421875 
Q 24.8125 -1.421875 18.96875 -0.25 
Q 13.140625 0.921875 6.890625 3.21875 
L 6.890625 13.375 
Q 12.890625 10.015625 18.65625 8.296875 
Q 24.421875 6.59375 29.984375 6.59375 
Q 38.421875 6.59375 43.015625 9.90625 
Q 47.609375 13.234375 47.609375 19.390625 
Q 47.609375 24.75 44.3125 27.78125 
Q 41.015625 30.8125 33.5 32.328125 
L 27.484375 33.5 
Q 16.453125 35.6875 11.515625 40.375 
Q 6.59375 45.0625 6.59375 53.421875 
Q 6.59375 63.09375 13.40625 68.65625 
Q 20.21875 74.21875 32.171875 74.21875 
Q 37.3125 74.21875 42.625 73.28125 
Q 47.953125 72.359375 53.515625 70.515625 
z
" id="DejaVuSans-83"/>
     <path d="M 39.40625 66.21875 
Q 28.65625 66.21875 22.328125 58.203125 
Q 16.015625 50.203125 16.015625 36.375 
Q 16.015625 22.609375 22.328125 14.59375 
Q 28.65625 6.59375 39.40625 6.59375 
Q 50.140625 6.59375 56.421875 14.59375 
Q 62.703125 22.609375 62.703125 36.375 
Q 62.703125 50.203125 56.421875 58.203125 
Q 50.140625 66.21875 39.40625 66.21875 
z
M 39.40625 74.21875 
Q 54.734375 74.21875 63.90625 63.9375 
Q 73.09375 53.65625 73.09375 36.375 
Q 73.09375 19.140625 63.90625 8.859375 
Q 54.734375 -1.421875 39.40625 -1.421875 
Q 24.03125 -1.421875 14.8125 8.828125 
Q 5.609375 19.09375 5.609375 36.375 
Q 5.609375 53.65625 14.8125 63.9375 
Q 24.03125 74.21875 39.40625 74.21875 
z
" id="DejaVuSans-79"/>
    </defs>
    <g transform="translate(375.22944 233.796363)scale(0.17 -0.17)">
     <use xlink:href="#DejaVuSans-68"/>
     <use x="77.001953" xlink:href="#DejaVuSans-69"/>
     <use x="140.185547" xlink:href="#DejaVuSans-80"/>
     <use x="200.488281" xlink:href="#DejaVuSans-83"/>
     <use x="263.964844" xlink:href="#DejaVuSans-79"/>
    </g>
   </g>
   <g id="text_15">
    <!-- DE -->
    <g transform="translate(375.22944 169.329987)scale(0.17 -0.17)">
     <use xlink:href="#DejaVuSans-68"/>
     <use x="77.001953" xlink:href="#DejaVuSans-69"/>
    </g>
   </g>
   <g id="text_16">
    <!-- PSO -->
    <g transform="translate(375.22944 104.863611)scale(0.17 -0.17)">
     <use xlink:href="#DejaVuSans-80"/>
     <use x="60.302734" xlink:href="#DejaVuSans-83"/>
     <use x="123.779297" xlink:href="#DejaVuSans-79"/>
    </g>
   </g>
   <g id="text_17">
    <!-- best 2009 -->
    <defs>
     <path d="M 48.6875 27.296875 
Q 48.6875 37.203125 44.609375 42.84375 
Q 40.53125 48.484375 33.40625 48.484375 
Q 26.265625 48.484375 22.1875 42.84375 
Q 18.109375 37.203125 18.109375 27.296875 
Q 18.109375 17.390625 22.1875 11.75 
Q 26.265625 6.109375 33.40625 6.109375 
Q 40.53125 6.109375 44.609375 11.75 
Q 48.6875 17.390625 48.6875 27.296875 
z
M 18.109375 46.390625 
Q 20.953125 51.265625 25.265625 53.625 
Q 29.59375 56 35.59375 56 
Q 45.5625 56 51.78125 48.09375 
Q 58.015625 40.1875 58.015625 27.296875 
Q 58.015625 14.40625 51.78125 6.484375 
Q 45.5625 -1.421875 35.59375 -1.421875 
Q 29.59375 -1.421875 25.265625 0.953125 
Q 20.953125 3.328125 18.109375 8.203125 
L 18.109375 0 
L 9.078125 0 
L 9.078125 75.984375 
L 18.109375 75.984375 
z
" id="DejaVuSans-98"/>
     <path d="M 10.984375 1.515625 
L 10.984375 10.5 
Q 14.703125 8.734375 18.5 7.8125 
Q 22.3125 6.890625 25.984375 6.890625 
Q 35.75 6.890625 40.890625 13.453125 
Q 46.046875 20.015625 46.78125 33.40625 
Q 43.953125 29.203125 39.59375 26.953125 
Q 35.25 24.703125 29.984375 24.703125 
Q 19.046875 24.703125 12.671875 31.3125 
Q 6.296875 37.9375 6.296875 49.421875 
Q 6.296875 60.640625 12.9375 67.421875 
Q 19.578125 74.21875 30.609375 74.21875 
Q 43.265625 74.21875 49.921875 64.515625 
Q 56.59375 54.828125 56.59375 36.375 
Q 56.59375 19.140625 48.40625 8.859375 
Q 40.234375 -1.421875 26.421875 -1.421875 
Q 22.703125 -1.421875 18.890625 -0.6875 
Q 15.09375 0.046875 10.984375 1.515625 
z
M 30.609375 32.421875 
Q 37.25 32.421875 41.125 36.953125 
Q 45.015625 41.5 45.015625 49.421875 
Q 45.015625 57.28125 41.125 61.84375 
Q 37.25 66.40625 30.609375 66.40625 
Q 23.96875 66.40625 20.09375 61.84375 
Q 16.21875 57.28125 16.21875 49.421875 
Q 16.21875 41.5 20.09375 36.953125 
Q 23.96875 32.421875 30.609375 32.421875 
z
" id="DejaVuSans-57"/>
    </defs>
    <g transform="translate(375.22944 40.397235)scale(0.17 -0.17)">
     <use xlink:href="#DejaVuSans-98"/>
     <use x="63.476562" xlink:href="#DejaVuSans-101"/>
     <use x="125" xlink:href="#DejaVuSans-115"/>
     <use x="177.099609" xlink:href="#DejaVuSans-116"/>
     <use x="216.308594" xlink:href="#DejaVuSans-32"/>
     <use x="248.095703" xlink:href="#DejaVuSans-50"/>
     <use x="311.71875" xlink:href="#DejaVuSans-48"/>
     <use x="375.341797" xlink:href="#DejaVuSans-48"/>
     <use x="438.964844" xlink:href="#DejaVuSans-57"/>
    </g>
   </g>
   <g id="text_18">
    <!-- bbob f13, 3-D -->
    <defs>
     <path d="M 40.578125 39.3125 
Q 47.65625 37.796875 51.625 33 
Q 55.609375 28.21875 55.609375 21.1875 
Q 55.609375 10.40625 48.1875 4.484375 
Q 40.765625 -1.421875 27.09375 -1.421875 
Q 22.515625 -1.421875 17.65625 -0.515625 
Q 12.796875 0.390625 7.625 2.203125 
L 7.625 11.71875 
Q 11.71875 9.328125 16.59375 8.109375 
Q 21.484375 6.890625 26.8125 6.890625 
Q 36.078125 6.890625 40.9375 10.546875 
Q 45.796875 14.203125 45.796875 21.1875 
Q 45.796875 27.640625 41.28125 31.265625 
Q 36.765625 34.90625 28.71875 34.90625 
L 20.21875 34.90625 
L 20.21875 43.015625 
L 29.109375 43.015625 
Q 36.375 43.015625 40.234375 45.921875 
Q 44.09375 48.828125 44.09375 54.296875 
Q 44.09375 59.90625 40.109375 62.90625 
Q 36.140625 65.921875 28.71875 65.921875 
Q 24.65625 65.921875 20.015625 65.03125 
Q 15.375 64.15625 9.8125 62.3125 
L 9.8125 71.09375 
Q 15.4375 72.65625 20.34375 73.4375 
Q 25.25 74.21875 29.59375 74.21875 
Q 40.828125 74.21875 47.359375 69.109375 
Q 53.90625 64.015625 53.90625 55.328125 
Q 53.90625 49.265625 50.4375 45.09375 
Q 46.96875 40.921875 40.578125 39.3125 
z
" id="DejaVuSans-51"/>
    </defs>
    <g transform="translate(60.41088 38.111366)scale(0.102 -0.102)">
     <use xlink:href="#DejaVuSans-98"/>
     <use x="63.476562" xlink:href="#DejaVuSans-98"/>
     <use x="126.953125" xlink:href="#DejaVuSans-111"/>
     <use x="188.134766" xlink:href="#DejaVuSans-98"/>
     <use x="251.611328" xlink:href="#DejaVuSans-32"/>
     <use x="283.398438" xlink:href="#DejaVuSans-102"/>
     <use x="318.603516" xlink:href="#DejaVuSans-49"/>
     <use x="382.226562" xlink:href="#DejaVuSans-51"/>
     <use x="445.849609" xlink:href="#DejaVuSans-44"/>
     <use x="477.636719" xlink:href="#DejaVuSans-32"/>
     <use x="509.423828" xlink:href="#DejaVuSans-51"/>
     <use x="573.046875" xlink:href="#DejaVuSans-45"/>
     <use x="609.130859" xlink:href="#DejaVuSans-68"/>
    </g>
    <!-- 51 targets: 100..1e-08 -->
    <defs>
     <path d="M 10.796875 72.90625 
L 49.515625 72.90625 
L 49.515625 64.59375 
L 19.828125 64.59375 
L 19.828125 46.734375 
Q 21.96875 47.46875 24.109375 47.828125 
Q 26.265625 48.1875 28.421875 48.1875 
Q 40.625 48.1875 47.75 41.5 
Q 54.890625 34.8125 54.890625 23.390625 
Q 54.890625 11.625 47.5625 5.09375 
Q 40.234375 -1.421875 26.90625 -1.421875 
Q 22.3125 -1.421875 17.546875 -0.640625 
Q 12.796875 0.140625 7.71875 1.703125 
L 7.71875 11.625 
Q 12.109375 9.234375 16.796875 8.0625 
Q 21.484375 6.890625 26.703125 6.890625 
Q 35.15625 6.890625 40.078125 11.328125 
Q 45.015625 15.765625 45.015625 23.390625 
Q 45.015625 31 40.078125 35.4375 
Q 35.15625 39.890625 26.703125 39.890625 
Q 22.75 39.890625 18.8125 39.015625 
Q 14.890625 38.140625 10.796875 36.28125 
z
" id="DejaVuSans-53"/>
     <path d="M 11.71875 12.40625 
L 22.015625 12.40625 
L 22.015625 0 
L 11.71875 0 
z
M 11.71875 51.703125 
L 22.015625 51.703125 
L 22.015625 39.3125 
L 11.71875 39.3125 
z
" id="DejaVuSans-58"/>
    </defs>
    <g transform="translate(60.41088 49.533135)scale(0.102 -0.102)">
     <use xlink:href="#DejaVuSans-53"/>
     <use x="63.623047" xlink:href="#DejaVuSans-49"/>
     <use x="127.246094" xlink:href="#DejaVuSans-32"/>
     <use x="159.033203" xlink:href="#DejaVuSans-116"/>
     <use x="198.242188" xlink:href="#DejaVuSans-97"/>
     <use x="259.521484" xlink:href="#DejaVuSans-114"/>
     <use x="298.884766" xlink:href="#DejaVuSans-103"/>
     <use x="362.361328" xlink:href="#DejaVuSans-101"/>
     <use x="423.884766" xlink:href="#DejaVuSans-116"/>
     <use x="463.09375" xlink:href="#DejaVuSans-115"/>
     <use x="515.193359" xlink:href="#DejaVuSans-58"/>
     <use x="548.884766" xlink:href="#DejaVuSans-32"/>
     <use x="580.671875" xlink:href="#DejaVuSans-49"/>
     <use x="644.294922" xlink:href="#DejaVuSans-48"/>
     <use x="707.917969" xlink:href="#DejaVuSans-48"/>
     <use x="771.541016" xlink:href="#DejaVuSans-46"/>
     <use x="803.328125" xlink:href="#DejaVuSans-46"/>
     <use x="835.115234" xlink:href="#DejaVuSans-49"/>
     <use x="898.738281" xlink:href="#DejaVuSans-101"/>
     <use x="960.261719" xlink:href="#DejaVuSans-45"/>
     <use x="996.345703" xlink:href="#DejaVuSans-48"/>
     <use x="1059.96875" xlink:href="#DejaVuSans-56"/>
    </g>
    <!-- 15 instances -->
    <g transform="translate(60.41088 60.954904)scale(0.102 -0.102)">
     <use xlink:href="#DejaVuSans-49"/>
     <use x="63.623047" xlink:href="#DejaVuSans-53"/>
     <use x="127.246094" xlink:href="#DejaVuSans-32"/>
     <use x="159.033203" xlink:href="#DejaVuSans-105"/>
     <use x="186.816406" xlink:href="#DejaVuSans-110"/>
     <use x="250.195312" xlink:href="#DejaVuSans-115"/>
     <use x="302.294922" xlink:href="#DejaVuSans-116"/>
     <use x="341.503906" xlink:href="#DejaVuSans-97"/>
     <use x="402.783203" xlink:href="#DejaVuSans-110"/>
     <use x="466.162109" xlink:href="#DejaVuSans-99"/>
     <use x="521.142578" xlink:href="#DejaVuSans-101"/>
     <use x="582.666016" xlink:href="#DejaVuSans-115"/>
    </g>
   </g>
   <g id="text_19">
    <!-- v2.4 -->
    <g style="fill:#808080;" transform="translate(187.233062 294.151352)scale(0.1 -0.1)">
     <use xlink:href="#DejaVuSans-118"/>
     <use x="59.179688" xlink:href="#DejaVuSans-50"/>
     <use x="122.802734" xlink:href="#DejaVuSans-46"/>
     <use x="154.589844" xlink:href="#DejaVuSans-52"/>
    </g>
   </g>
   <g id="text_20">
    <!-- 13 Sharp ridge -->
    <defs>
     <path d="M 54.890625 33.015625 
L 54.890625 0 
L 45.90625 0 
L 45.90625 32.71875 
Q 45.90625 40.484375 42.875 44.328125 
Q 39.84375 48.1875 33.796875 48.1875 
Q 26.515625 48.1875 22.3125 43.546875 
Q 18.109375 38.921875 18.109375 30.90625 
L 18.109375 0 
L 9.078125 0 
L 9.078125 75.984375 
L 18.109375 75.984375 
L 18.109375 46.1875 
Q 21.34375 51.125 25.703125 53.5625 
Q 30.078125 56 35.796875 56 
Q 45.21875 56 50.046875 50.171875 
Q 54.890625 44.34375 54.890625 33.015625 
z
" id="DejaVuSans-104"/>
    </defs>
    <g transform="translate(124.05025 21.648)scale(0.2 -0.2)">
     <use xlink:href="#DejaVuSans-49"/>
     <use x="63.623047" xlink:href="#DejaVuSans-51"/>
     <use x="127.246094" xlink:href="#DejaVuSans-32"/>
     <use x="159.033203" xlink:href="#DejaVuSans-83"/>
     <use x="222.509766" xlink:href="#DejaVuSans-104"/>
     <use x="285.888672" xlink:href="#DejaVuSans-97"/>
     <use x="347.167969" xlink:href="#DejaVuSans-114"/>
     <use x="388.28125" xlink:href="#DejaVuSans-112"/>
     <use x="451.757812" xlink:href="#DejaVuSans-32"/>
     <use x="483.544922" xlink:href="#DejaVuSans-114"/>
     <use x="524.658203" xlink:href="#DejaVuSans-105"/>
     <use x="552.441406" xlink:href="#DejaVuSans-100"/>
     <use x="615.917969" xlink:href="#DejaVuSans-103"/>
     <use x="679.394531" xlink:href="#DejaVuSans-101"/>
    </g>
   </g>
  </g>
 </g>
 <defs>
  <clipPath id="pbdce03061e">
   <rect height="271.296" width="281.088" x="57.6" y="27.648"/>
  </clipPath>
 </defs>
</svg>
