<?xml version="1.0" encoding="utf-8" standalone="no"?>
<!DOCTYPE svg PUBLIC "-//W3C//DTD SVG 1.1//EN"
  "http://www.w3.org/Graphics/SVG/1.1/DTD/svg11.dtd">
<!-- Created with matplotlib (https://matplotlib.org/) -->
<svg height="345.6pt" version="1.1" viewBox="0 0 460.8 345.6" width="460.8pt" xmlns="http://www.w3.org/2000/svg" xmlns:xlink="http://www.w3.org/1999/xlink">
 <defs>
  <style type="text/css">
*{stroke-linecap:butt;stroke-linejoin:round;}
  </style>
 </defs>
 <g id="figure_1">
  <g id="patch_1">
   <path d="M 0 345.6 
L 460.8 345.6 
L 460.8 0 
L 0 0 
z
" style="fill:#ffffff;"/>
  </g>
  <g id="axes_1">
   <g id="patch_2">
    <path d="M 57.6 298.944 
L 338.688 298.944 
L 338.688 27.648 
L 57.6 27.648 
z
" style="fill:#ffffff;"/>
   </g>
   <g id="line2d_1">
    <path d="M 45.512012 298.944 
L 45.512012 267.342835 
L 90.242884 267.342835 
L 90.242884 262.075974 
L 92.73846 262.075974 
L 92.73846 251.542253 
L 95.918017 251.542253 
L 95.918017 230.47481 
L 98.606294 230.47481 
L 98.606294 225.207949 
L 102.989037 225.207949 
L 102.989037 219.941088 
L 104.826449 219.941088 
L 104.826449 214.674227 
L 105.398279 214.674227 
L 105.398279 209.407366 
L 108.948899 209.407366 
L 108.948899 204.140506 
L 111.104637 204.140506 
L 111.104637 198.873645 
L 111.505558 198.873645 
L 111.505558 188.339923 
L 111.897469 188.339923 
L 111.897469 183.073062 
L 113.73488 183.073062 
L 113.73488 172.539341 
L 118.576578 172.539341 
L 118.576578 167.27248 
L 119.097192 167.27248 
L 119.097192 162.005619 
L 120.093994 162.005619 
L 120.093994 151.471897 
L 120.33454 151.471897 
L 120.33454 146.205037 
L 121.264855 146.205037 
L 121.264855 135.671315 
L 121.489881 135.671315 
L 121.489881 130.404454 
L 121.931406 130.404454 
L 121.931406 114.603872 
L 122.148045 114.603872 
L 122.148045 104.07015 
L 122.362027 104.07015 
L 122.362027 98.803289 
L 123.192626 98.803289 
L 123.192626 93.536429 
L 123.790603 93.536429 
L 123.790603 72.468985 
L 123.985457 72.468985 
L 123.985457 61.935264 
L 124.368753 61.935264 
L 124.368753 51.401542 
L 124.557288 51.401542 
L 124.557288 46.134681 
L 124.743806 46.134681 
L 124.743806 30.334099 
L 338.688 30.334099 
" style="fill:none;stroke:#f5deb3;stroke-linecap:square;stroke-width:4;"/>
   </g>
   <g id="line2d_2">
    <defs>
     <path d="M -0 7.778175 
L 7.778175 0 
L 0 -7.778175 
L -7.778175 -0 
z
" id="maa10152bd7" style="stroke:#f5deb3;stroke-linejoin:miter;stroke-width:1.5;"/>
    </defs>
    <g>
     <use style="fill:#f5deb3;stroke:#f5deb3;stroke-linejoin:miter;stroke-width:1.5;" x="105.398279" xlink:href="#maa10152bd7" y="209.407366"/>
     <use style="fill:#f5deb3;stroke:#f5deb3;stroke-linejoin:miter;stroke-width:1.5;" x="121.931406" xlink:href="#maa10152bd7" y="130.404454"/>
     <use style="fill:#f5deb3;stroke:#f5deb3;stroke-linejoin:miter;stroke-width:1.5;" x="124.743806" xlink:href="#maa10152bd7" y="46.134681"/>
     <use style="fill:#f5deb3;stroke:#f5deb3;stroke-linejoin:miter;stroke-width:1.5;" x="124.743806" xlink:href="#maa10152bd7" y="30.334099"/>
     <use style="fill:#f5deb3;stroke:#f5deb3;stroke-linejoin:miter;stroke-width:1.5;" x="124.743806" xlink:href="#maa10152bd7" y="30.334099"/>
     <use style="fill:#f5deb3;stroke:#f5deb3;stroke-linejoin:miter;stroke-width:1.5;" x="338.688" xlink:href="#maa10152bd7" y="30.334099"/>
    </g>
   </g>
   <g id="line2d_3">
    <path style="fill:none;stroke:#f5deb3;stroke-linecap:square;stroke-width:4;"/>
    <g/>
   </g>
   <g id="line2d_4">
    <path d="M 338.688 30.334099 
L 369.60768 35.706297 
" style="fill:none;stroke:#f5deb3;stroke-linecap:square;stroke-width:4;"/>
    <g>
     <use style="fill:#f5deb3;stroke:#f5deb3;stroke-linejoin:miter;stroke-width:1.5;" x="338.688" xlink:href="#maa10152bd7" y="30.334099"/>
     <use style="fill:#f5deb3;stroke:#f5deb3;stroke-linejoin:miter;stroke-width:1.5;" x="369.60768" xlink:href="#maa10152bd7" y="35.706297"/>
    </g>
   </g>
   <g id="matplotlib.axis_1">
    <g id="xtick_1">
     <g id="line2d_5">
      <path clip-path="url(#p5aa592da72)" d="M 57.6 298.944 
L 57.6 27.648 
" style="fill:none;stroke:#b0b0b0;stroke-linecap:square;stroke-width:0.8;"/>
     </g>
     <g id="line2d_6">
      <defs>
       <path d="M 0 0 
L 0 3.5 
" id="mada55bb40a" style="stroke:#000000;stroke-width:0.8;"/>
      </defs>
      <g>
       <use style="stroke:#000000;stroke-width:0.8;" x="57.6" xlink:href="#mada55bb40a" y="298.944"/>
      </g>
     </g>
     <g id="text_1">
      <!-- 0 -->
      <defs>
       <path d="M 31.78125 66.40625 
Q 24.171875 66.40625 20.328125 58.90625 
Q 16.5 51.421875 16.5 36.375 
Q 16.5 21.390625 20.328125 13.890625 
Q 24.171875 6.390625 31.78125 6.390625 
Q 39.453125 6.390625 43.28125 13.890625 
Q 47.125 21.390625 47.125 36.375 
Q 47.125 51.421875 43.28125 58.90625 
Q 39.453125 66.40625 31.78125 66.40625 
z
M 31.78125 74.21875 
Q 44.046875 74.21875 50.515625 64.515625 
Q 56.984375 54.828125 56.984375 36.375 
Q 56.984375 17.96875 50.515625 8.265625 
Q 44.046875 -1.421875 31.78125 -1.421875 
Q 19.53125 -1.421875 13.0625 8.265625 
Q 6.59375 17.96875 6.59375 36.375 
Q 6.59375 54.828125 13.0625 64.515625 
Q 19.53125 74.21875 31.78125 74.21875 
z
" id="DejaVuSans-48"/>
      </defs>
      <g transform="translate(51.2375 321.140875)scale(0.2 -0.2)">
       <use xlink:href="#DejaVuSans-48"/>
      </g>
     </g>
    </g>
    <g id="xtick_2">
     <g id="line2d_7">
      <path clip-path="url(#p5aa592da72)" d="M 137.910857 298.944 
L 137.910857 27.648 
" style="fill:none;stroke:#b0b0b0;stroke-linecap:square;stroke-width:0.8;"/>
     </g>
     <g id="line2d_8">
      <g>
       <use style="stroke:#000000;stroke-width:0.8;" x="137.910857" xlink:href="#mada55bb40a" y="298.944"/>
      </g>
     </g>
     <g id="text_2">
      <!-- 2 -->
      <defs>
       <path d="M 19.1875 8.296875 
L 53.609375 8.296875 
L 53.609375 0 
L 7.328125 0 
L 7.328125 8.296875 
Q 12.9375 14.109375 22.625 23.890625 
Q 32.328125 33.6875 34.8125 36.53125 
Q 39.546875 41.84375 41.421875 45.53125 
Q 43.3125 49.21875 43.3125 52.78125 
Q 43.3125 58.59375 39.234375 62.25 
Q 35.15625 65.921875 28.609375 65.921875 
Q 23.96875 65.921875 18.8125 64.3125 
Q 13.671875 62.703125 7.8125 59.421875 
L 7.8125 69.390625 
Q 13.765625 71.78125 18.9375 73 
Q 24.125 74.21875 28.421875 74.21875 
Q 39.75 74.21875 46.484375 68.546875 
Q 53.21875 62.890625 53.21875 53.421875 
Q 53.21875 48.921875 51.53125 44.890625 
Q 49.859375 40.875 45.40625 35.40625 
Q 44.1875 33.984375 37.640625 27.21875 
Q 31.109375 20.453125 19.1875 8.296875 
z
" id="DejaVuSans-50"/>
      </defs>
      <g transform="translate(131.548357 321.140875)scale(0.2 -0.2)">
       <use xlink:href="#DejaVuSans-50"/>
      </g>
     </g>
    </g>
    <g id="xtick_3">
     <g id="line2d_9">
      <path clip-path="url(#p5aa592da72)" d="M 218.221714 298.944 
L 218.221714 27.648 
" style="fill:none;stroke:#b0b0b0;stroke-linecap:square;stroke-width:0.8;"/>
     </g>
     <g id="line2d_10">
      <g>
       <use style="stroke:#000000;stroke-width:0.8;" x="218.221714" xlink:href="#mada55bb40a" y="298.944"/>
      </g>
     </g>
     <g id="text_3">
      <!-- 4 -->
      <defs>
       <path d="M 37.796875 64.3125 
L 12.890625 25.390625 
L 37.796875 25.390625 
z
M 35.203125 72.90625 
L 47.609375 72.90625 
L 47.609375 25.390625 
L 58.015625 25.390625 
L 58.015625 17.1875 
L 47.609375 17.1875 
L 47.609375 0 
L 37.796875 0 
L 37.796875 17.1875 
L 4.890625 17.1875 
L 4.890625 26.703125 
z
" id="DejaVuSans-52"/>
      </defs>
      <g transform="translate(211.859214 321.140875)scale(0.2 -0.2)">
       <use xlink:href="#DejaVuSans-52"/>
      </g>
     </g>
    </g>
    <g id="xtick_4">
     <g id="line2d_11">
      <path clip-path="url(#p5aa592da72)" d="M 298.532571 298.944 
L 298.532571 27.648 
" style="fill:none;stroke:#b0b0b0;stroke-linecap:square;stroke-width:0.8;"/>
     </g>
     <g id="line2d_12">
      <g>
       <use style="stroke:#000000;stroke-width:0.8;" x="298.532571" xlink:href="#mada55bb40a" y="298.944"/>
      </g>
     </g>
     <g id="text_4">
      <!-- 6 -->
      <defs>
       <path d="M 33.015625 40.375 
Q 26.375 40.375 22.484375 35.828125 
Q 18.609375 31.296875 18.609375 23.390625 
Q 18.609375 15.53125 22.484375 10.953125 
Q 26.375 6.390625 33.015625 6.390625 
Q 39.65625 6.390625 43.53125 10.953125 
Q 47.40625 15.53125 47.40625 23.390625 
Q 47.40625 31.296875 43.53125 35.828125 
Q 39.65625 40.375 33.015625 40.375 
z
M 52.59375 71.296875 
L 52.59375 62.3125 
Q 48.875 64.0625 45.09375 64.984375 
Q 41.3125 65.921875 37.59375 65.921875 
Q 27.828125 65.921875 22.671875 59.328125 
Q 17.53125 52.734375 16.796875 39.40625 
Q 19.671875 43.65625 24.015625 45.921875 
Q 28.375 48.1875 33.59375 48.1875 
Q 44.578125 48.1875 50.953125 41.515625 
Q 57.328125 34.859375 57.328125 23.390625 
Q 57.328125 12.15625 50.6875 5.359375 
Q 44.046875 -1.421875 33.015625 -1.421875 
Q 20.359375 -1.421875 13.671875 8.265625 
Q 6.984375 17.96875 6.984375 36.375 
Q 6.984375 53.65625 15.1875 63.9375 
Q 23.390625 74.21875 37.203125 74.21875 
Q 40.921875 74.21875 44.703125 73.484375 
Q 48.484375 72.75 52.59375 71.296875 
z
" id="DejaVuSans-54"/>
      </defs>
      <g transform="translate(292.170071 321.140875)scale(0.2 -0.2)">
       <use xlink:href="#DejaVuSans-54"/>
      </g>
     </g>
    </g>
    <g id="xtick_5">
     <g id="line2d_13">
      <path clip-path="url(#p5aa592da72)" d="M 97.755429 298.944 
L 97.755429 27.648 
" style="fill:none;stroke:#b0b0b0;stroke-linecap:square;stroke-width:0.8;"/>
     </g>
     <g id="line2d_14">
      <defs>
       <path d="M 0 0 
L 0 2 
" id="mf054b98117" style="stroke:#000000;stroke-width:0.6;"/>
      </defs>
      <g>
       <use style="stroke:#000000;stroke-width:0.6;" x="97.755429" xlink:href="#mf054b98117" y="298.944"/>
      </g>
     </g>
    </g>
    <g id="xtick_6">
     <g id="line2d_15">
      <path clip-path="url(#p5aa592da72)" d="M 178.066286 298.944 
L 178.066286 27.648 
" style="fill:none;stroke:#b0b0b0;stroke-linecap:square;stroke-width:0.8;"/>
     </g>
     <g id="line2d_16">
      <g>
       <use style="stroke:#000000;stroke-width:0.6;" x="178.066286" xlink:href="#mf054b98117" y="298.944"/>
      </g>
     </g>
    </g>
    <g id="xtick_7">
     <g id="line2d_17">
      <path clip-path="url(#p5aa592da72)" d="M 258.377143 298.944 
L 258.377143 27.648 
" style="fill:none;stroke:#b0b0b0;stroke-linecap:square;stroke-width:0.8;"/>
     </g>
     <g id="line2d_18">
      <g>
       <use style="stroke:#000000;stroke-width:0.6;" x="258.377143" xlink:href="#mf054b98117" y="298.944"/>
      </g>
     </g>
    </g>
    <g id="xtick_8">
     <g id="line2d_19">
      <path clip-path="url(#p5aa592da72)" d="M 338.688 298.944 
L 338.688 27.648 
" style="fill:none;stroke:#b0b0b0;stroke-linecap:square;stroke-width:0.8;"/>
     </g>
     <g id="line2d_20">
      <g>
       <use style="stroke:#000000;stroke-width:0.6;" x="338.688" xlink:href="#mf054b98117" y="298.944"/>
      </g>
     </g>
    </g>
    <g id="text_5">
     <!-- log10(# f-evals / dimension) -->
     <defs>
      <path d="M 9.421875 75.984375 
L 18.40625 75.984375 
L 18.40625 0 
L 9.421875 0 
z
" id="DejaVuSans-108"/>
      <path d="M 30.609375 48.390625 
Q 23.390625 48.390625 19.1875 42.75 
Q 14.984375 37.109375 14.984375 27.296875 
Q 14.984375 17.484375 19.15625 11.84375 
Q 23.34375 6.203125 30.609375 6.203125 
Q 37.796875 6.203125 41.984375 11.859375 
Q 46.1875 17.53125 46.1875 27.296875 
Q 46.1875 37.015625 41.984375 42.703125 
Q 37.796875 48.390625 30.609375 48.390625 
z
M 30.609375 56 
Q 42.328125 56 49.015625 48.375 
Q 55.71875 40.765625 55.71875 27.296875 
Q 55.71875 13.875 49.015625 6.21875 
Q 42.328125 -1.421875 30.609375 -1.421875 
Q 18.84375 -1.421875 12.171875 6.21875 
Q 5.515625 13.875 5.515625 27.296875 
Q 5.515625 40.765625 12.171875 48.375 
Q 18.84375 56 30.609375 56 
z
" id="DejaVuSans-111"/>
      <path d="M 45.40625 27.984375 
Q 45.40625 37.75 41.375 43.109375 
Q 37.359375 48.484375 30.078125 48.484375 
Q 22.859375 48.484375 18.828125 43.109375 
Q 14.796875 37.75 14.796875 27.984375 
Q 14.796875 18.265625 18.828125 12.890625 
Q 22.859375 7.515625 30.078125 7.515625 
Q 37.359375 7.515625 41.375 12.890625 
Q 45.40625 18.265625 45.40625 27.984375 
z
M 54.390625 6.78125 
Q 54.390625 -7.171875 48.1875 -13.984375 
Q 42 -20.796875 29.203125 -20.796875 
Q 24.46875 -20.796875 20.265625 -20.09375 
Q 16.0625 -19.390625 12.109375 -17.921875 
L 12.109375 -9.1875 
Q 16.0625 -11.328125 19.921875 -12.34375 
Q 23.78125 -13.375 27.78125 -13.375 
Q 36.625 -13.375 41.015625 -8.765625 
Q 45.40625 -4.15625 45.40625 5.171875 
L 45.40625 9.625 
Q 42.625 4.78125 38.28125 2.390625 
Q 33.9375 0 27.875 0 
Q 17.828125 0 11.671875 7.65625 
Q 5.515625 15.328125 5.515625 27.984375 
Q 5.515625 40.671875 11.671875 48.328125 
Q 17.828125 56 27.875 56 
Q 33.9375 56 38.28125 53.609375 
Q 42.625 51.21875 45.40625 46.390625 
L 45.40625 54.6875 
L 54.390625 54.6875 
z
" id="DejaVuSans-103"/>
      <path d="M 12.40625 8.296875 
L 28.515625 8.296875 
L 28.515625 63.921875 
L 10.984375 60.40625 
L 10.984375 69.390625 
L 28.421875 72.90625 
L 38.28125 72.90625 
L 38.28125 8.296875 
L 54.390625 8.296875 
L 54.390625 0 
L 12.40625 0 
z
" id="DejaVuSans-49"/>
      <path d="M 31 75.875 
Q 24.46875 64.65625 21.28125 53.65625 
Q 18.109375 42.671875 18.109375 31.390625 
Q 18.109375 20.125 21.3125 9.0625 
Q 24.515625 -2 31 -13.1875 
L 23.1875 -13.1875 
Q 15.875 -1.703125 12.234375 9.375 
Q 8.59375 20.453125 8.59375 31.390625 
Q 8.59375 42.28125 12.203125 53.3125 
Q 15.828125 64.359375 23.1875 75.875 
z
" id="DejaVuSans-40"/>
      <path d="M 51.125 44 
L 36.921875 44 
L 32.8125 27.6875 
L 47.125 27.6875 
z
M 43.796875 71.78125 
L 38.71875 51.515625 
L 52.984375 51.515625 
L 58.109375 71.78125 
L 65.921875 71.78125 
L 60.890625 51.515625 
L 76.125 51.515625 
L 76.125 44 
L 58.984375 44 
L 54.984375 27.6875 
L 70.515625 27.6875 
L 70.515625 20.21875 
L 53.078125 20.21875 
L 48 0 
L 40.1875 0 
L 45.21875 20.21875 
L 30.90625 20.21875 
L 25.875 0 
L 18.015625 0 
L 23.09375 20.21875 
L 7.71875 20.21875 
L 7.71875 27.6875 
L 24.90625 27.6875 
L 29 44 
L 13.28125 44 
L 13.28125 51.515625 
L 30.90625 51.515625 
L 35.890625 71.78125 
z
" id="DejaVuSans-35"/>
      <path id="DejaVuSans-32"/>
      <path d="M 37.109375 75.984375 
L 37.109375 68.5 
L 28.515625 68.5 
Q 23.6875 68.5 21.796875 66.546875 
Q 19.921875 64.59375 19.921875 59.515625 
L 19.921875 54.6875 
L 34.71875 54.6875 
L 34.71875 47.703125 
L 19.921875 47.703125 
L 19.921875 0 
L 10.890625 0 
L 10.890625 47.703125 
L 2.296875 47.703125 
L 2.296875 54.6875 
L 10.890625 54.6875 
L 10.890625 58.5 
Q 10.890625 67.625 15.140625 71.796875 
Q 19.390625 75.984375 28.609375 75.984375 
z
" id="DejaVuSans-102"/>
      <path d="M 4.890625 31.390625 
L 31.203125 31.390625 
L 31.203125 23.390625 
L 4.890625 23.390625 
z
" id="DejaVuSans-45"/>
      <path d="M 56.203125 29.59375 
L 56.203125 25.203125 
L 14.890625 25.203125 
Q 15.484375 15.921875 20.484375 11.0625 
Q 25.484375 6.203125 34.421875 6.203125 
Q 39.59375 6.203125 44.453125 7.46875 
Q 49.3125 8.734375 54.109375 11.28125 
L 54.109375 2.78125 
Q 49.265625 0.734375 44.1875 -0.34375 
Q 39.109375 -1.421875 33.890625 -1.421875 
Q 20.796875 -1.421875 13.15625 6.1875 
Q 5.515625 13.8125 5.515625 26.8125 
Q 5.515625 40.234375 12.765625 48.109375 
Q 20.015625 56 32.328125 56 
Q 43.359375 56 49.78125 48.890625 
Q 56.203125 41.796875 56.203125 29.59375 
z
M 47.21875 32.234375 
Q 47.125 39.59375 43.09375 43.984375 
Q 39.0625 48.390625 32.421875 48.390625 
Q 24.90625 48.390625 20.390625 44.140625 
Q 15.875 39.890625 15.1875 32.171875 
z
" id="DejaVuSans-101"/>
      <path d="M 2.984375 54.6875 
L 12.5 54.6875 
L 29.59375 8.796875 
L 46.6875 54.6875 
L 56.203125 54.6875 
L 35.6875 0 
L 23.484375 0 
z
" id="DejaVuSans-118"/>
      <path d="M 34.28125 27.484375 
Q 23.390625 27.484375 19.1875 25 
Q 14.984375 22.515625 14.984375 16.5 
Q 14.984375 11.71875 18.140625 8.90625 
Q 21.296875 6.109375 26.703125 6.109375 
Q 34.1875 6.109375 38.703125 11.40625 
Q 43.21875 16.703125 43.21875 25.484375 
L 43.21875 27.484375 
z
M 52.203125 31.203125 
L 52.203125 0 
L 43.21875 0 
L 43.21875 8.296875 
Q 40.140625 3.328125 35.546875 0.953125 
Q 30.953125 -1.421875 24.3125 -1.421875 
Q 15.921875 -1.421875 10.953125 3.296875 
Q 6 8.015625 6 15.921875 
Q 6 25.140625 12.171875 29.828125 
Q 18.359375 34.515625 30.609375 34.515625 
L 43.21875 34.515625 
L 43.21875 35.40625 
Q 43.21875 41.609375 39.140625 45 
Q 35.0625 48.390625 27.6875 48.390625 
Q 23 48.390625 18.546875 47.265625 
Q 14.109375 46.140625 10.015625 43.890625 
L 10.015625 52.203125 
Q 14.9375 54.109375 19.578125 55.046875 
Q 24.21875 56 28.609375 56 
Q 40.484375 56 46.34375 49.84375 
Q 52.203125 43.703125 52.203125 31.203125 
z
" id="DejaVuSans-97"/>
      <path d="M 44.28125 53.078125 
L 44.28125 44.578125 
Q 40.484375 46.53125 36.375 47.5 
Q 32.28125 48.484375 27.875 48.484375 
Q 21.1875 48.484375 17.84375 46.4375 
Q 14.5 44.390625 14.5 40.28125 
Q 14.5 37.15625 16.890625 35.375 
Q 19.28125 33.59375 26.515625 31.984375 
L 29.59375 31.296875 
Q 39.15625 29.25 43.1875 25.515625 
Q 47.21875 21.78125 47.21875 15.09375 
Q 47.21875 7.46875 41.1875 3.015625 
Q 35.15625 -1.421875 24.609375 -1.421875 
Q 20.21875 -1.421875 15.453125 -0.5625 
Q 10.6875 0.296875 5.421875 2 
L 5.421875 11.28125 
Q 10.40625 8.6875 15.234375 7.390625 
Q 20.0625 6.109375 24.8125 6.109375 
Q 31.15625 6.109375 34.5625 8.28125 
Q 37.984375 10.453125 37.984375 14.40625 
Q 37.984375 18.0625 35.515625 20.015625 
Q 33.0625 21.96875 24.703125 23.78125 
L 21.578125 24.515625 
Q 13.234375 26.265625 9.515625 29.90625 
Q 5.8125 33.546875 5.8125 39.890625 
Q 5.8125 47.609375 11.28125 51.796875 
Q 16.75 56 26.8125 56 
Q 31.78125 56 36.171875 55.265625 
Q 40.578125 54.546875 44.28125 53.078125 
z
" id="DejaVuSans-115"/>
      <path d="M 25.390625 72.90625 
L 33.6875 72.90625 
L 8.296875 -9.28125 
L 0 -9.28125 
z
" id="DejaVuSans-47"/>
      <path d="M 45.40625 46.390625 
L 45.40625 75.984375 
L 54.390625 75.984375 
L 54.390625 0 
L 45.40625 0 
L 45.40625 8.203125 
Q 42.578125 3.328125 38.25 0.953125 
Q 33.9375 -1.421875 27.875 -1.421875 
Q 17.96875 -1.421875 11.734375 6.484375 
Q 5.515625 14.40625 5.515625 27.296875 
Q 5.515625 40.1875 11.734375 48.09375 
Q 17.96875 56 27.875 56 
Q 33.9375 56 38.25 53.625 
Q 42.578125 51.265625 45.40625 46.390625 
z
M 14.796875 27.296875 
Q 14.796875 17.390625 18.875 11.75 
Q 22.953125 6.109375 30.078125 6.109375 
Q 37.203125 6.109375 41.296875 11.75 
Q 45.40625 17.390625 45.40625 27.296875 
Q 45.40625 37.203125 41.296875 42.84375 
Q 37.203125 48.484375 30.078125 48.484375 
Q 22.953125 48.484375 18.875 42.84375 
Q 14.796875 37.203125 14.796875 27.296875 
z
" id="DejaVuSans-100"/>
      <path d="M 9.421875 54.6875 
L 18.40625 54.6875 
L 18.40625 0 
L 9.421875 0 
z
M 9.421875 75.984375 
L 18.40625 75.984375 
L 18.40625 64.59375 
L 9.421875 64.59375 
z
" id="DejaVuSans-105"/>
      <path d="M 52 44.1875 
Q 55.375 50.25 60.0625 53.125 
Q 64.75 56 71.09375 56 
Q 79.640625 56 84.28125 50.015625 
Q 88.921875 44.046875 88.921875 33.015625 
L 88.921875 0 
L 79.890625 0 
L 79.890625 32.71875 
Q 79.890625 40.578125 77.09375 44.375 
Q 74.3125 48.1875 68.609375 48.1875 
Q 61.625 48.1875 57.5625 43.546875 
Q 53.515625 38.921875 53.515625 30.90625 
L 53.515625 0 
L 44.484375 0 
L 44.484375 32.71875 
Q 44.484375 40.625 41.703125 44.40625 
Q 38.921875 48.1875 33.109375 48.1875 
Q 26.21875 48.1875 22.15625 43.53125 
Q 18.109375 38.875 18.109375 30.90625 
L 18.109375 0 
L 9.078125 0 
L 9.078125 54.6875 
L 18.109375 54.6875 
L 18.109375 46.1875 
Q 21.1875 51.21875 25.484375 53.609375 
Q 29.78125 56 35.6875 56 
Q 41.65625 56 45.828125 52.96875 
Q 50 49.953125 52 44.1875 
z
" id="DejaVuSans-109"/>
      <path d="M 54.890625 33.015625 
L 54.890625 0 
L 45.90625 0 
L 45.90625 32.71875 
Q 45.90625 40.484375 42.875 44.328125 
Q 39.84375 48.1875 33.796875 48.1875 
Q 26.515625 48.1875 22.3125 43.546875 
Q 18.109375 38.921875 18.109375 30.90625 
L 18.109375 0 
L 9.078125 0 
L 9.078125 54.6875 
L 18.109375 54.6875 
L 18.109375 46.1875 
Q 21.34375 51.125 25.703125 53.5625 
Q 30.078125 56 35.796875 56 
Q 45.21875 56 50.046875 50.171875 
Q 54.890625 44.34375 54.890625 33.015625 
z
" id="DejaVuSans-110"/>
      <path d="M 8.015625 75.875 
L 15.828125 75.875 
Q 23.140625 64.359375 26.78125 53.3125 
Q 30.421875 42.28125 30.421875 31.390625 
Q 30.421875 20.453125 26.78125 9.375 
Q 23.140625 -1.703125 15.828125 -13.1875 
L 8.015625 -13.1875 
Q 14.5 -2 17.703125 9.0625 
Q 20.90625 20.125 20.90625 31.390625 
Q 20.90625 42.671875 17.703125 53.65625 
Q 14.5 64.65625 8.015625 75.875 
z
" id="DejaVuSans-41"/>
     </defs>
     <g transform="translate(77.764078 342.217594)scale(0.17 -0.17)">
      <use xlink:href="#DejaVuSans-108"/>
      <use x="27.783203" xlink:href="#DejaVuSans-111"/>
      <use x="88.964844" xlink:href="#DejaVuSans-103"/>
      <use x="152.441406" xlink:href="#DejaVuSans-49"/>
      <use x="216.064453" xlink:href="#DejaVuSans-48"/>
      <use x="279.6875" xlink:href="#DejaVuSans-40"/>
      <use x="318.701172" xlink:href="#DejaVuSans-35"/>
      <use x="402.490234" xlink:href="#DejaVuSans-32"/>
      <use x="434.277344" xlink:href="#DejaVuSans-102"/>
      <use x="463.982422" xlink:href="#DejaVuSans-45"/>
      <use x="500.066406" xlink:href="#DejaVuSans-101"/>
      <use x="561.589844" xlink:href="#DejaVuSans-118"/>
      <use x="620.769531" xlink:href="#DejaVuSans-97"/>
      <use x="682.048828" xlink:href="#DejaVuSans-108"/>
      <use x="709.832031" xlink:href="#DejaVuSans-115"/>
      <use x="761.931641" xlink:href="#DejaVuSans-32"/>
      <use x="793.71875" xlink:href="#DejaVuSans-47"/>
      <use x="827.410156" xlink:href="#DejaVuSans-32"/>
      <use x="859.197266" xlink:href="#DejaVuSans-100"/>
      <use x="922.673828" xlink:href="#DejaVuSans-105"/>
      <use x="950.457031" xlink:href="#DejaVuSans-109"/>
      <use x="1047.869141" xlink:href="#DejaVuSans-101"/>
      <use x="1109.392578" xlink:href="#DejaVuSans-110"/>
      <use x="1172.771484" xlink:href="#DejaVuSans-115"/>
      <use x="1224.871094" xlink:href="#DejaVuSans-105"/>
      <use x="1252.654297" xlink:href="#DejaVuSans-111"/>
      <use x="1313.835938" xlink:href="#DejaVuSans-110"/>
      <use x="1377.214844" xlink:href="#DejaVuSans-41"/>
     </g>
    </g>
   </g>
   <g id="matplotlib.axis_2">
    <g id="ytick_1">
     <g id="line2d_21">
      <path clip-path="url(#p5aa592da72)" d="M 57.6 298.944 
L 338.688 298.944 
" style="fill:none;stroke:#b0b0b0;stroke-linecap:square;stroke-width:0.8;"/>
     </g>
     <g id="line2d_22">
      <defs>
       <path d="M 0 0 
L -3.5 0 
" id="m64bb110411" style="stroke:#000000;stroke-width:0.8;"/>
      </defs>
      <g>
       <use style="stroke:#000000;stroke-width:0.8;" x="57.6" xlink:href="#m64bb110411" y="298.944"/>
      </g>
     </g>
     <g id="text_6">
      <!-- 0.0 -->
      <defs>
       <path d="M 10.6875 12.40625 
L 21 12.40625 
L 21 0 
L 10.6875 0 
z
" id="DejaVuSans-46"/>
      </defs>
      <g transform="translate(25.155 305.02275)scale(0.16 -0.16)">
       <use xlink:href="#DejaVuSans-48"/>
       <use x="63.623047" xlink:href="#DejaVuSans-46"/>
       <use x="95.410156" xlink:href="#DejaVuSans-48"/>
      </g>
     </g>
    </g>
    <g id="ytick_2">
     <g id="line2d_23">
      <path clip-path="url(#p5aa592da72)" d="M 57.6 245.22202 
L 338.688 245.22202 
" style="fill:none;stroke:#b0b0b0;stroke-linecap:square;stroke-width:0.8;"/>
     </g>
     <g id="line2d_24">
      <g>
       <use style="stroke:#000000;stroke-width:0.8;" x="57.6" xlink:href="#m64bb110411" y="245.22202"/>
      </g>
     </g>
     <g id="text_7">
      <!-- 0.2 -->
      <g transform="translate(25.155 251.30077)scale(0.16 -0.16)">
       <use xlink:href="#DejaVuSans-48"/>
       <use x="63.623047" xlink:href="#DejaVuSans-46"/>
       <use x="95.410156" xlink:href="#DejaVuSans-50"/>
      </g>
     </g>
    </g>
    <g id="ytick_3">
     <g id="line2d_25">
      <path clip-path="url(#p5aa592da72)" d="M 57.6 191.50004 
L 338.688 191.50004 
" style="fill:none;stroke:#b0b0b0;stroke-linecap:square;stroke-width:0.8;"/>
     </g>
     <g id="line2d_26">
      <g>
       <use style="stroke:#000000;stroke-width:0.8;" x="57.6" xlink:href="#m64bb110411" y="191.50004"/>
      </g>
     </g>
     <g id="text_8">
      <!-- 0.4 -->
      <g transform="translate(25.155 197.57879)scale(0.16 -0.16)">
       <use xlink:href="#DejaVuSans-48"/>
       <use x="63.623047" xlink:href="#DejaVuSans-46"/>
       <use x="95.410156" xlink:href="#DejaVuSans-52"/>
      </g>
     </g>
    </g>
    <g id="ytick_4">
     <g id="line2d_27">
      <path clip-path="url(#p5aa592da72)" d="M 57.6 137.778059 
L 338.688 137.778059 
" style="fill:none;stroke:#b0b0b0;stroke-linecap:square;stroke-width:0.8;"/>
     </g>
     <g id="line2d_28">
      <g>
       <use style="stroke:#000000;stroke-width:0.8;" x="57.6" xlink:href="#m64bb110411" y="137.778059"/>
      </g>
     </g>
     <g id="text_9">
      <!-- 0.6 -->
      <g transform="translate(25.155 143.856809)scale(0.16 -0.16)">
       <use xlink:href="#DejaVuSans-48"/>
       <use x="63.623047" xlink:href="#DejaVuSans-46"/>
       <use x="95.410156" xlink:href="#DejaVuSans-54"/>
      </g>
     </g>
    </g>
    <g id="ytick_5">
     <g id="line2d_29">
      <path clip-path="url(#p5aa592da72)" d="M 57.6 84.056079 
L 338.688 84.056079 
" style="fill:none;stroke:#b0b0b0;stroke-linecap:square;stroke-width:0.8;"/>
     </g>
     <g id="line2d_30">
      <g>
       <use style="stroke:#000000;stroke-width:0.8;" x="57.6" xlink:href="#m64bb110411" y="84.056079"/>
      </g>
     </g>
     <g id="text_10">
      <!-- 0.8 -->
      <defs>
       <path d="M 31.78125 34.625 
Q 24.75 34.625 20.71875 30.859375 
Q 16.703125 27.09375 16.703125 20.515625 
Q 16.703125 13.921875 20.71875 10.15625 
Q 24.75 6.390625 31.78125 6.390625 
Q 38.8125 6.390625 42.859375 10.171875 
Q 46.921875 13.96875 46.921875 20.515625 
Q 46.921875 27.09375 42.890625 30.859375 
Q 38.875 34.625 31.78125 34.625 
z
M 21.921875 38.8125 
Q 15.578125 40.375 12.03125 44.71875 
Q 8.5 49.078125 8.5 55.328125 
Q 8.5 64.0625 14.71875 69.140625 
Q 20.953125 74.21875 31.78125 74.21875 
Q 42.671875 74.21875 48.875 69.140625 
Q 55.078125 64.0625 55.078125 55.328125 
Q 55.078125 49.078125 51.53125 44.71875 
Q 48 40.375 41.703125 38.8125 
Q 48.828125 37.15625 52.796875 32.3125 
Q 56.78125 27.484375 56.78125 20.515625 
Q 56.78125 9.90625 50.3125 4.234375 
Q 43.84375 -1.421875 31.78125 -1.421875 
Q 19.734375 -1.421875 13.25 4.234375 
Q 6.78125 9.90625 6.78125 20.515625 
Q 6.78125 27.484375 10.78125 32.3125 
Q 14.796875 37.15625 21.921875 38.8125 
z
M 18.3125 54.390625 
Q 18.3125 48.734375 21.84375 45.5625 
Q 25.390625 42.390625 31.78125 42.390625 
Q 38.140625 42.390625 41.71875 45.5625 
Q 45.3125 48.734375 45.3125 54.390625 
Q 45.3125 60.0625 41.71875 63.234375 
Q 38.140625 66.40625 31.78125 66.40625 
Q 25.390625 66.40625 21.84375 63.234375 
Q 18.3125 60.0625 18.3125 54.390625 
z
" id="DejaVuSans-56"/>
      </defs>
      <g transform="translate(25.155 90.134829)scale(0.16 -0.16)">
       <use xlink:href="#DejaVuSans-48"/>
       <use x="63.623047" xlink:href="#DejaVuSans-46"/>
       <use x="95.410156" xlink:href="#DejaVuSans-56"/>
      </g>
     </g>
    </g>
    <g id="ytick_6">
     <g id="line2d_31">
      <path clip-path="url(#p5aa592da72)" d="M 57.6 30.334099 
L 338.688 30.334099 
" style="fill:none;stroke:#b0b0b0;stroke-linecap:square;stroke-width:0.8;"/>
     </g>
     <g id="line2d_32">
      <g>
       <use style="stroke:#000000;stroke-width:0.8;" x="57.6" xlink:href="#m64bb110411" y="30.334099"/>
      </g>
     </g>
     <g id="text_11">
      <!-- 1.0 -->
      <g transform="translate(25.155 36.412849)scale(0.16 -0.16)">
       <use xlink:href="#DejaVuSans-49"/>
       <use x="63.623047" xlink:href="#DejaVuSans-46"/>
       <use x="95.410156" xlink:href="#DejaVuSans-48"/>
      </g>
     </g>
    </g>
    <g id="text_12">
     <!-- Fraction of function,target pairs -->
     <defs>
      <path d="M 9.8125 72.90625 
L 51.703125 72.90625 
L 51.703125 64.59375 
L 19.671875 64.59375 
L 19.671875 43.109375 
L 48.578125 43.109375 
L 48.578125 34.8125 
L 19.671875 34.8125 
L 19.671875 0 
L 9.8125 0 
z
" id="DejaVuSans-70"/>
      <path d="M 41.109375 46.296875 
Q 39.59375 47.171875 37.8125 47.578125 
Q 36.03125 48 33.890625 48 
Q 26.265625 48 22.1875 43.046875 
Q 18.109375 38.09375 18.109375 28.8125 
L 18.109375 0 
L 9.078125 0 
L 9.078125 54.6875 
L 18.109375 54.6875 
L 18.109375 46.1875 
Q 20.953125 51.171875 25.484375 53.578125 
Q 30.03125 56 36.53125 56 
Q 37.453125 56 38.578125 55.875 
Q 39.703125 55.765625 41.0625 55.515625 
z
" id="DejaVuSans-114"/>
      <path d="M 48.78125 52.59375 
L 48.78125 44.1875 
Q 44.96875 46.296875 41.140625 47.34375 
Q 37.3125 48.390625 33.40625 48.390625 
Q 24.65625 48.390625 19.8125 42.84375 
Q 14.984375 37.3125 14.984375 27.296875 
Q 14.984375 17.28125 19.8125 11.734375 
Q 24.65625 6.203125 33.40625 6.203125 
Q 37.3125 6.203125 41.140625 7.25 
Q 44.96875 8.296875 48.78125 10.40625 
L 48.78125 2.09375 
Q 45.015625 0.34375 40.984375 -0.53125 
Q 36.96875 -1.421875 32.421875 -1.421875 
Q 20.0625 -1.421875 12.78125 6.34375 
Q 5.515625 14.109375 5.515625 27.296875 
Q 5.515625 40.671875 12.859375 48.328125 
Q 20.21875 56 33.015625 56 
Q 37.15625 56 41.109375 55.140625 
Q 45.0625 54.296875 48.78125 52.59375 
z
" id="DejaVuSans-99"/>
      <path d="M 18.3125 70.21875 
L 18.3125 54.6875 
L 36.8125 54.6875 
L 36.8125 47.703125 
L 18.3125 47.703125 
L 18.3125 18.015625 
Q 18.3125 11.328125 20.140625 9.421875 
Q 21.96875 7.515625 27.59375 7.515625 
L 36.8125 7.515625 
L 36.8125 0 
L 27.59375 0 
Q 17.1875 0 13.234375 3.875 
Q 9.28125 7.765625 9.28125 18.015625 
L 9.28125 47.703125 
L 2.6875 47.703125 
L 2.6875 54.6875 
L 9.28125 54.6875 
L 9.28125 70.21875 
z
" id="DejaVuSans-116"/>
      <path d="M 8.5 21.578125 
L 8.5 54.6875 
L 17.484375 54.6875 
L 17.484375 21.921875 
Q 17.484375 14.15625 20.5 10.265625 
Q 23.53125 6.390625 29.59375 6.390625 
Q 36.859375 6.390625 41.078125 11.03125 
Q 45.3125 15.671875 45.3125 23.6875 
L 45.3125 54.6875 
L 54.296875 54.6875 
L 54.296875 0 
L 45.3125 0 
L 45.3125 8.40625 
Q 42.046875 3.421875 37.71875 1 
Q 33.40625 -1.421875 27.6875 -1.421875 
Q 18.265625 -1.421875 13.375 4.4375 
Q 8.5 10.296875 8.5 21.578125 
z
M 31.109375 56 
z
" id="DejaVuSans-117"/>
      <path d="M 11.71875 12.40625 
L 22.015625 12.40625 
L 22.015625 4 
L 14.015625 -11.625 
L 7.71875 -11.625 
L 11.71875 4 
z
" id="DejaVuSans-44"/>
      <path d="M 18.109375 8.203125 
L 18.109375 -20.796875 
L 9.078125 -20.796875 
L 9.078125 54.6875 
L 18.109375 54.6875 
L 18.109375 46.390625 
Q 20.953125 51.265625 25.265625 53.625 
Q 29.59375 56 35.59375 56 
Q 45.5625 56 51.78125 48.09375 
Q 58.015625 40.1875 58.015625 27.296875 
Q 58.015625 14.40625 51.78125 6.484375 
Q 45.5625 -1.421875 35.59375 -1.421875 
Q 29.59375 -1.421875 25.265625 0.953125 
Q 20.953125 3.328125 18.109375 8.203125 
z
M 48.6875 27.296875 
Q 48.6875 37.203125 44.609375 42.84375 
Q 40.53125 48.484375 33.40625 48.484375 
Q 26.265625 48.484375 22.1875 42.84375 
Q 18.109375 37.203125 18.109375 27.296875 
Q 18.109375 17.390625 22.1875 11.75 
Q 26.265625 6.109375 33.40625 6.109375 
Q 40.53125 6.109375 44.609375 11.75 
Q 48.6875 17.390625 48.6875 27.296875 
z
" id="DejaVuSans-112"/>
     </defs>
     <g transform="translate(17.619531 297.681)rotate(-90)scale(0.17 -0.17)">
      <use xlink:href="#DejaVuSans-70"/>
      <use x="50.269531" xlink:href="#DejaVuSans-114"/>
      <use x="91.382812" xlink:href="#DejaVuSans-97"/>
      <use x="152.662109" xlink:href="#DejaVuSans-99"/>
      <use x="207.642578" xlink:href="#DejaVuSans-116"/>
      <use x="246.851562" xlink:href="#DejaVuSans-105"/>
      <use x="274.634766" xlink:href="#DejaVuSans-111"/>
      <use x="335.816406" xlink:href="#DejaVuSans-110"/>
      <use x="399.195312" xlink:href="#DejaVuSans-32"/>
      <use x="430.982422" xlink:href="#DejaVuSans-111"/>
      <use x="492.164062" xlink:href="#DejaVuSans-102"/>
      <use x="527.369141" xlink:href="#DejaVuSans-32"/>
      <use x="559.15625" xlink:href="#DejaVuSans-102"/>
      <use x="594.361328" xlink:href="#DejaVuSans-117"/>
      <use x="657.740234" xlink:href="#DejaVuSans-110"/>
      <use x="721.119141" xlink:href="#DejaVuSans-99"/>
      <use x="776.099609" xlink:href="#DejaVuSans-116"/>
      <use x="815.308594" xlink:href="#DejaVuSans-105"/>
      <use x="843.091797" xlink:href="#DejaVuSans-111"/>
      <use x="904.273438" xlink:href="#DejaVuSans-110"/>
      <use x="967.652344" xlink:href="#DejaVuSans-44"/>
      <use x="999.439453" xlink:href="#DejaVuSans-116"/>
      <use x="1038.648438" xlink:href="#DejaVuSans-97"/>
      <use x="1099.927734" xlink:href="#DejaVuSans-114"/>
      <use x="1139.291016" xlink:href="#DejaVuSans-103"/>
      <use x="1202.767578" xlink:href="#DejaVuSans-101"/>
      <use x="1264.291016" xlink:href="#DejaVuSans-116"/>
      <use x="1303.5" xlink:href="#DejaVuSans-32"/>
      <use x="1335.287109" xlink:href="#DejaVuSans-112"/>
      <use x="1398.763672" xlink:href="#DejaVuSans-97"/>
      <use x="1460.042969" xlink:href="#DejaVuSans-105"/>
      <use x="1487.826172" xlink:href="#DejaVuSans-114"/>
      <use x="1528.939453" xlink:href="#DejaVuSans-115"/>
     </g>
    </g>
   </g>
   <g id="line2d_33">
    <defs>
     <path d="M 0 1.5 
C 0.397805 1.5 0.77937 1.341951 1.06066 1.06066 
C 1.341951 0.77937 1.5 0.397805 1.5 0 
C 1.5 -0.397805 1.341951 -0.77937 1.06066 -1.06066 
C 0.77937 -1.341951 0.397805 -1.5 0 -1.5 
C -0.397805 -1.5 -0.77937 -1.341951 -1.06066 -1.06066 
C -1.341951 -0.77937 -1.5 -0.397805 -1.5 0 
C -1.5 0.397805 -1.341951 0.77937 -1.06066 1.06066 
C -0.77937 1.341951 -0.397805 1.5 0 1.5 
z
" id="m8c439f31f0" style="stroke:#f5deb3;"/>
    </defs>
    <g>
     <use style="fill:#f5deb3;stroke:#f5deb3;" x="124.743806" xlink:href="#m8c439f31f0" y="30.334099"/>
     <use style="fill:#f5deb3;stroke:#f5deb3;" x="124.743806" xlink:href="#m8c439f31f0" y="30.334099"/>
    </g>
   </g>
   <g id="line2d_34">
    <defs>
     <path d="M 0 1.5 
C 0.397805 1.5 0.77937 1.341951 1.06066 1.06066 
C 1.341951 0.77937 1.5 0.397805 1.5 0 
C 1.5 -0.397805 1.341951 -0.77937 1.06066 -1.06066 
C 0.77937 -1.341951 0.397805 -1.5 0 -1.5 
C -0.397805 -1.5 -0.77937 -1.341951 -1.06066 -1.06066 
C -1.341951 -0.77937 -1.5 -0.397805 -1.5 0 
C -1.5 0.397805 -1.341951 0.77937 -1.06066 1.06066 
C -0.77937 1.341951 -0.397805 1.5 0 1.5 
z
" id="mf6bea4d8c0" style="stroke:#000080;"/>
    </defs>
    <g>
     <use style="fill:#000080;stroke:#000080;" x="257.287317" xlink:href="#mf6bea4d8c0" y="162.005619"/>
     <use style="fill:#000080;stroke:#000080;" x="257.287317" xlink:href="#mf6bea4d8c0" y="162.005619"/>
    </g>
   </g>
   <g id="line2d_35">
    <path d="M 57.6 298.944 
L 57.6 296.837256 
L 64.67102 296.837256 
L 64.67102 294.730511 
L 73.579452 294.730511 
L 73.579452 289.990337 
L 76.759008 289.990337 
L 76.759008 287.883592 
L 79.447285 287.883592 
L 79.447285 284.723476 
L 81.775977 284.723476 
L 81.775977 283.143418 
L 85.66744 283.143418 
L 85.66744 279.456615 
L 87.329581 279.456615 
L 87.329581 277.876557 
L 91.535274 277.876557 
L 91.535274 277.349871 
L 92.73846 277.349871 
L 92.73846 276.823185 
L 97.755429 276.823185 
L 97.755429 275.769812 
L 98.606294 275.769812 
L 98.606294 273.663068 
L 99.41757 273.663068 
L 99.41757 271.029638 
L 103.623262 271.029638 
L 103.623262 268.922893 
L 105.951954 268.922893 
L 105.951954 268.396207 
L 107.009204 268.396207 
L 107.009204 267.869521 
L 107.514726 267.869521 
L 107.514726 265.236091 
L 111.505558 265.236091 
L 111.505558 263.129347 
L 114.418861 263.129347 
L 114.418861 261.549288 
L 116.621333 261.549288 
L 116.621333 261.022602 
L 117.202696 261.022602 
L 117.202696 259.96923 
L 118.039942 259.96923 
L 118.039942 259.442544 
L 121.931406 259.442544 
L 121.931406 258.915858 
L 123.192626 258.915858 
L 123.192626 257.862486 
L 124.178158 257.862486 
L 124.178158 257.3358 
L 128.107907 257.3358 
L 128.107907 256.809114 
L 130.531948 256.809114 
L 130.531948 255.229055 
L 131.938072 255.229055 
L 131.938072 253.122311 
L 132.181982 253.122311 
L 132.181982 252.595625 
L 134.55603 252.595625 
L 134.55603 251.542253 
L 135.178927 251.542253 
L 135.178927 251.015567 
L 135.482227 251.015567 
L 135.482227 249.962195 
L 136.073445 249.962195 
L 136.170062 248.382136 
L 136.924311 248.382136 
L 137.016339 243.115275 
L 137.37967 243.115275 
L 137.469333 238.901787 
L 138.927025 238.901787 
L 138.927025 238.375101 
L 141.80232 238.375101 
L 141.80232 237.848415 
L 145.155404 237.848415 
L 145.155404 237.321729 
L 145.777292 237.321729 
L 145.777292 236.268356 
L 146.644018 236.268356 
L 146.644018 235.74167 
L 146.854132 235.74167 
L 146.854132 233.634926 
L 153.715038 233.634926 
L 153.715038 232.581554 
L 155.004911 232.581554 
L 155.004911 232.054868 
L 155.457066 232.054868 
L 155.457066 231.001496 
L 155.584129 231.001496 
L 155.584129 229.421437 
L 156.538679 229.421437 
L 156.538679 227.841379 
L 157.809652 227.841379 
L 157.809652 227.314693 
L 159.507213 227.314693 
L 159.507213 226.788007 
L 160.914762 226.788007 
L 160.914762 225.207949 
L 162.043181 225.207949 
L 162.043181 220.99446 
L 163.266752 220.99446 
L 163.266752 220.467774 
L 163.867476 220.467774 
L 163.867476 219.414402 
L 166.408919 219.414402 
L 166.408919 218.36103 
L 170.364915 218.36103 
L 170.364915 217.834344 
L 170.687376 217.834344 
L 170.687376 217.307658 
L 171.198983 217.307658 
L 171.198983 216.254285 
L 171.620458 216.254285 
L 171.620458 214.674227 
L 175.334356 214.674227 
L 175.334356 212.567483 
L 175.607562 212.567483 
L 175.607562 210.987425 
L 180.104829 210.987425 
L 180.104829 209.407366 
L 182.344078 209.407366 
L 182.344078 208.353994 
L 183.518129 208.353994 
L 183.518129 207.827308 
L 184.449604 207.827308 
L 184.449604 204.667192 
L 188.785252 204.667192 
L 188.785252 203.087133 
L 193.725419 203.087133 
L 193.725419 201.507075 
L 193.895111 201.507075 
L 193.895111 200.980389 
L 195.856272 200.980389 
L 195.856272 199.927017 
L 196.628061 199.927017 
L 196.628061 198.873645 
L 196.89076 198.873645 
L 196.89076 198.346959 
L 197.297807 198.346959 
L 197.297807 197.820273 
L 199.175694 197.820273 
L 199.245726 195.713528 
L 200.520727 195.713528 
L 200.520727 194.660156 
L 201.987542 194.660156 
L 201.987542 192.026726 
L 203.701086 192.026726 
L 203.701086 190.973354 
L 207.472641 190.973354 
L 207.472641 189.393295 
L 209.670021 189.393295 
L 209.670021 187.813237 
L 210.552859 187.813237 
L 210.552859 186.233179 
L 213.428848 186.233179 
L 213.428848 185.706493 
L 214.108679 185.706493 
L 214.108679 184.653121 
L 215.115596 184.653121 
L 215.115596 184.126434 
L 216.271552 184.126434 
L 216.271552 183.073062 
L 218.39006 183.073062 
L 218.39006 182.546376 
L 218.904018 182.546376 
L 218.904018 180.966318 
L 219.67412 180.966318 
L 219.67412 180.439632 
L 220.570885 180.439632 
L 220.570885 179.38626 
L 222.66114 179.38626 
L 222.66114 177.806202 
L 223.614774 177.806202 
L 223.614774 177.279515 
L 224.01715 177.279515 
L 224.01715 176.752829 
L 225.750557 176.752829 
L 225.750557 175.699457 
L 226.274318 175.699457 
L 226.274318 175.172771 
L 226.893466 175.172771 
L 226.893466 174.646085 
L 228.374162 174.646085 
L 228.374162 172.539341 
L 231.523814 172.539341 
L 231.523814 171.485969 
L 233.024244 171.485969 
L 233.024244 170.959282 
L 234.477299 170.959282 
L 234.477299 170.432596 
L 236.114517 170.432596 
L 236.114517 169.90591 
L 236.754591 169.90591 
L 236.754591 169.379224 
L 239.533703 169.379224 
L 239.533703 168.325852 
L 240.773091 168.325852 
L 240.773091 167.799166 
L 241.45676 167.799166 
L 241.45676 166.745794 
L 241.930212 166.745794 
L 241.930212 166.219108 
L 242.570786 166.219108 
L 242.570786 165.692422 
L 243.617901 165.692422 
L 243.617901 165.165736 
L 244.60569 165.165736 
L 244.60569 164.63905 
L 245.916179 164.63905 
L 245.916179 164.112363 
L 248.402631 164.112363 
L 248.402631 163.585677 
L 249.882878 163.585677 
L 249.882878 163.058991 
L 251.247253 163.058991 
L 251.247253 162.532305 
L 257.287317 162.532305 
L 257.287317 162.005619 
L 338.688 162.005619 
L 338.688 162.005619 
" style="fill:none;stroke:#000080;stroke-linecap:square;stroke-width:1.5;"/>
   </g>
   <g id="line2d_36">
    <defs>
     <path d="M 0 6 
C 1.591219 6 3.117479 5.367802 4.242641 4.242641 
C 5.367802 3.117479 6 1.591219 6 0 
C 6 -1.591219 5.367802 -3.117479 4.242641 -4.242641 
C 3.117479 -5.367802 1.591219 -6 0 -6 
C -1.591219 -6 -3.117479 -5.367802 -4.242641 -4.242641 
C -5.367802 -3.117479 -6 -1.591219 -6 0 
C -6 1.591219 -5.367802 3.117479 -4.242641 4.242641 
C -3.117479 5.367802 -1.591219 6 0 6 
z
" id="m6985da4f3a" style="stroke:#000080;stroke-width:1.5;"/>
    </defs>
    <g>
     <use style="fill-opacity:0;stroke:#000080;stroke-width:1.5;" x="155.584129" xlink:href="#m6985da4f3a" y="231.001496"/>
     <use style="fill-opacity:0;stroke:#000080;stroke-width:1.5;" x="224.01715" xlink:href="#m6985da4f3a" y="176.752829"/>
     <use style="fill-opacity:0;stroke:#000080;stroke-width:1.5;" x="257.287317" xlink:href="#m6985da4f3a" y="162.005619"/>
     <use style="fill-opacity:0;stroke:#000080;stroke-width:1.5;" x="257.287317" xlink:href="#m6985da4f3a" y="162.005619"/>
     <use style="fill-opacity:0;stroke:#000080;stroke-width:1.5;" x="338.688" xlink:href="#m6985da4f3a" y="162.005619"/>
    </g>
   </g>
   <g id="line2d_37">
    <path style="fill:none;stroke:#000080;stroke-linecap:square;stroke-width:1.5;"/>
    <g/>
   </g>
   <g id="line2d_38">
    <path clip-path="url(#p5aa592da72)" d="M 194.045737 200.980389 
" style="fill:none;stroke:#000080;stroke-linecap:square;stroke-width:1.5;"/>
    <defs>
     <path d="M -12 12 
L 12 -12 
M -12 -12 
L 12 12 
" id="me894aeb55b" style="stroke:#000080;"/>
    </defs>
    <g clip-path="url(#p5aa592da72)">
     <use style="fill:#000080;stroke:#000080;" x="194.045737" xlink:href="#me894aeb55b" y="200.980389"/>
    </g>
   </g>
   <g id="line2d_39">
    <defs>
     <path d="M 0 1.5 
C 0.397805 1.5 0.77937 1.341951 1.06066 1.06066 
C 1.341951 0.77937 1.5 0.397805 1.5 0 
C 1.5 -0.397805 1.341951 -0.77937 1.06066 -1.06066 
C 0.77937 -1.341951 0.397805 -1.5 0 -1.5 
C -0.397805 -1.5 -0.77937 -1.341951 -1.06066 -1.06066 
C -1.341951 -0.77937 -1.5 -0.397805 -1.5 0 
C -1.5 0.397805 -1.341951 0.77937 -1.06066 1.06066 
C -0.77937 1.341951 -0.397805 1.5 0 1.5 
z
" id="meac62e80b4" style="stroke:#ff7500;"/>
    </defs>
    <g>
     <use style="fill:#ff7500;stroke:#ff7500;" x="215.024709" xlink:href="#meac62e80b4" y="30.334099"/>
     <use style="fill:#ff7500;stroke:#ff7500;" x="215.024709" xlink:href="#meac62e80b4" y="30.334099"/>
    </g>
   </g>
   <g id="line2d_40">
    <path d="M 57.6 298.944 
L 57.6 296.837256 
L 69.687988 296.837256 
L 69.687988 290.517023 
L 83.830028 290.517023 
L 83.830028 289.990337 
L 91.535274 289.990337 
L 91.535274 284.19679 
L 94.921215 284.19679 
L 94.921215 283.670104 
L 98.606294 283.670104 
L 98.606294 276.823185 
L 100.192776 276.823185 
L 100.192776 274.71644 
L 100.934985 274.71644 
L 100.934985 269.976266 
L 104.826449 269.976266 
L 104.826449 265.762777 
L 105.951954 265.762777 
L 105.951954 263.656033 
L 109.843417 263.656033 
L 109.843417 262.075974 
L 111.505558 262.075974 
L 111.505558 258.915858 
L 113.022974 258.915858 
L 113.022974 258.389172 
L 114.751048 258.389172 
L 114.751048 257.3358 
L 117.202696 257.3358 
L 117.202696 256.809114 
L 118.576578 256.809114 
L 118.576578 255.755741 
L 120.33454 255.755741 
L 120.33454 252.595625 
L 126.338353 252.595625 
L 126.338353 252.068939 
L 128.107907 252.068939 
L 128.107907 247.328764 
L 128.260216 247.328764 
L 128.260216 246.275392 
L 128.709321 246.275392 
L 128.709321 245.748706 
L 131.185181 245.748706 
L 131.185181 244.695334 
L 131.312942 244.695334 
L 131.312942 243.641962 
L 131.814826 243.641962 
L 131.814826 243.115275 
L 132.777237 243.115275 
L 132.777237 242.061903 
L 132.893889 242.061903 
L 132.893889 241.008531 
L 134.450015 241.008531 
L 134.450015 240.481845 
L 136.361705 240.481845 
L 136.361705 238.901787 
L 137.198951 238.901787 
L 137.198951 238.375101 
L 137.910857 238.375101 
L 137.910857 237.321729 
L 139.253002 237.321729 
L 139.253002 236.268356 
L 140.944478 236.268356 
L 140.944478 234.688298 
L 141.090414 234.688298 
L 141.162927 233.634926 
L 141.45 233.634926 
L 141.45 233.10824 
L 142.010346 233.10824 
L 142.010346 228.368065 
L 142.419098 228.368065 
L 142.419098 227.314693 
L 142.553247 227.314693 
L 142.553247 226.788007 
L 142.686372 226.788007 
L 142.752555 223.627891 
L 143.902815 223.627891 
L 143.902815 223.101204 
L 144.570138 223.101204 
L 144.570138 222.574518 
L 146.161795 222.574518 
L 146.161795 221.521146 
L 147.620256 221.521146 
L 147.620256 218.887716 
L 147.96658 218.887716 
L 147.96658 217.834344 
L 148.449693 217.834344 
L 148.497276 216.254285 
L 149.104327 216.254285 
L 149.195872 214.674227 
L 149.241465 214.674227 
L 149.241465 212.567483 
L 149.557321 212.567483 
L 149.557321 211.514111 
L 149.690956 211.514111 
L 149.690956 210.987425 
L 149.998846 210.987425 
L 149.998846 210.460738 
L 150.215485 210.460738 
L 150.215485 207.300622 
L 150.766468 207.300622 
L 150.766468 206.773936 
L 150.973835 206.773936 
L 150.973835 205.193878 
L 151.13797 205.193878 
L 151.13797 203.087133 
L 152.091608 203.087133 
L 152.091608 202.560447 
L 152.959038 202.560447 
L 152.959038 202.033761 
L 153.105587 202.033761 
L 153.105587 198.873645 
L 153.250915 198.873645 
L 153.250915 198.346959 
L 153.430889 198.346959 
L 153.430889 195.713528 
L 153.994632 195.713528 
L 153.994632 195.186842 
L 154.473387 195.186842 
L 154.473387 194.13347 
L 155.135299 194.13347 
L 155.200129 193.080098 
L 155.425155 193.080098 
L 155.425155 192.553412 
L 155.928852 192.553412 
L 155.928852 190.446667 
L 156.205916 190.446667 
L 156.205916 189.919981 
L 157.243392 189.919981 
L 157.243392 189.393295 
L 157.500487 189.393295 
L 157.500487 188.866609 
L 158.003578 188.866609 
L 158.058592 187.286551 
L 158.75841 187.286551 
L 158.75841 186.759865 
L 159.783038 186.759865 
L 159.783038 185.179807 
L 160.418152 185.179807 
L 160.418152 184.126434 
L 160.914762 184.126434 
L 161.007772 182.01969 
L 161.100288 182.01969 
L 161.12334 179.38626 
L 161.88953 179.38626 
L 161.88953 176.226143 
L 162.043181 176.226143 
L 162.065021 171.485969 
L 162.346481 171.485969 
L 162.346481 170.959282 
L 162.644595 170.959282 
L 162.644595 170.432596 
L 162.916926 170.432596 
L 162.979172 168.325852 
L 163.082425 168.325852 
L 163.082425 166.219108 
L 163.788565 166.219108 
L 163.788565 165.692422 
L 163.906798 165.692422 
L 163.906798 163.585677 
L 164.082658 163.585677 
L 164.082658 162.532305 
L 164.371873 162.532305 
L 164.448194 159.372189 
L 165.083779 159.372189 
L 165.138764 158.318817 
L 165.320804 158.318817 
L 165.320804 157.79213 
L 165.59035 157.79213 
L 165.59035 156.212072 
L 166.289413 156.212072 
L 166.34073 155.1587 
L 166.6119 155.1587 
L 166.662278 153.578642 
L 167.158215 153.578642 
L 167.207042 152.52527 
L 167.352708 152.52527 
L 167.449146 147.785095 
L 167.481174 147.785095 
L 167.513144 145.151665 
L 167.687935 145.151665 
L 167.751064 144.098292 
L 167.813965 144.098292 
L 167.907893 139.884804 
L 168.01684 139.884804 
L 168.125111 136.724687 
L 168.354881 136.724687 
L 168.46108 135.671315 
L 168.476198 135.671315 
L 168.476198 134.091257 
L 168.746115 134.091257 
L 168.746115 133.564571 
L 168.894283 133.564571 
L 168.894283 133.037885 
L 169.230367 133.037885 
L 169.244833 131.457826 
L 169.374494 131.457826 
L 169.374494 130.404454 
L 169.545889 130.404454 
L 169.545889 128.824396 
L 169.715615 128.824396 
L 169.799863 127.771024 
L 170.008719 127.771024 
L 170.008719 127.244338 
L 170.132843 127.244338 
L 170.242438 123.557535 
L 170.378471 123.557535 
L 170.459584 121.450791 
L 170.767069 121.450791 
L 170.767069 117.237302 
L 170.885928 117.237302 
L 170.885928 116.710616 
L 171.082245 116.710616 
L 171.160157 114.077186 
L 171.302098 114.077186 
L 171.353428 111.970441 
L 171.808721 111.970441 
L 171.808721 111.443755 
L 171.970255 111.443755 
L 172.081215 109.863697 
L 172.105778 109.863697 
L 172.105778 108.810325 
L 172.276753 108.810325 
L 172.276753 107.756953 
L 172.458099 107.756953 
L 172.566008 106.703581 
L 172.62567 106.703581 
L 172.62567 106.176895 
L 172.744386 106.176895 
L 172.83878 104.596836 
L 172.909242 104.596836 
L 173.00275 101.963406 
L 173.199806 101.963406 
L 173.199806 100.383348 
L 173.31469 100.383348 
L 173.31469 94.589801 
L 173.428822 94.589801 
L 173.519593 93.009743 
L 173.755642 93.009743 
L 173.755642 92.483056 
L 173.933369 92.483056 
L 173.933369 91.95637 
L 174.065485 91.95637 
L 174.065485 90.902998 
L 174.185719 90.902998 
L 174.218366 88.796254 
L 174.359138 88.796254 
L 174.359138 86.68951 
L 174.520166 86.68951 
L 174.520166 86.162824 
L 174.66913 86.162824 
L 174.711458 80.369277 
L 174.795808 80.369277 
L 174.795808 79.315904 
L 174.932012 79.315904 
L 174.932012 78.789218 
L 175.056802 78.789218 
L 175.056802 78.262532 
L 175.293514 78.262532 
L 175.354741 75.629102 
L 175.577416 75.629102 
L 175.6777 74.049044 
L 176.063387 74.049044 
L 176.073165 71.942299 
L 176.209486 71.942299 
L 176.209486 71.415613 
L 176.402401 71.415613 
L 176.478973 69.835555 
L 176.517133 69.835555 
L 176.593204 67.728811 
L 177.79386 67.728811 
L 177.79386 65.622066 
L 178.153265 65.622066 
L 178.239812 60.355206 
L 179.303155 60.355206 
L 179.303155 59.82852 
L 180.16678 59.82852 
L 180.16678 58.775147 
L 196.606994 58.775147 
L 196.670119 55.088345 
L 196.750947 55.088345 
L 196.750947 54.561659 
L 196.967624 54.561659 
L 196.967624 54.034973 
L 197.079358 54.034973 
L 197.161233 52.9816 
L 197.479213 52.9816 
L 197.582032 49.821484 
L 197.811183 49.821484 
L 197.811183 48.768112 
L 197.965081 48.768112 
L 198.040137 46.134681 
L 198.186535 46.134681 
L 198.244204 45.081309 
L 198.445911 45.081309 
L 198.486515 44.027937 
L 198.572821 44.027937 
L 198.610446 41.394507 
L 198.709495 41.394507 
L 198.709495 40.867821 
L 198.898001 40.867821 
L 198.932297 38.23439 
L 199.019053 38.23439 
L 199.04002 36.127646 
L 199.88365 36.127646 
L 199.963327 34.547588 
L 200.276004 34.547588 
L 200.276004 34.020902 
L 207.980378 34.020902 
L 207.980378 33.494215 
L 208.254307 33.494215 
L 208.254307 32.967529 
L 208.664842 32.967529 
L 208.747603 31.387471 
L 214.981713 31.387471 
L 215.024709 30.334099 
L 338.688 30.334099 
L 338.688 30.334099 
" style="fill:none;stroke:#ff7500;stroke-linecap:square;stroke-width:1.5;"/>
   </g>
   <g id="line2d_41">
    <defs>
     <path d="M 0 -6 
L -1.347084 -1.854102 
L -5.706339 -1.854102 
L -2.179628 0.708204 
L -3.526712 4.854102 
L -0 2.291796 
L 3.526712 4.854102 
L 2.179628 0.708204 
L 5.706339 -1.854102 
L 1.347084 -1.854102 
z
" id="mf2f4451c4c" style="stroke:#ff7500;stroke-linejoin:bevel;stroke-width:1.5;"/>
    </defs>
    <g>
     <use style="fill-opacity:0;stroke:#ff7500;stroke-linejoin:bevel;stroke-width:1.5;" x="131.312942" xlink:href="#mf2f4451c4c" y="243.641962"/>
     <use style="fill-opacity:0;stroke:#ff7500;stroke-linejoin:bevel;stroke-width:1.5;" x="173.199806" xlink:href="#mf2f4451c4c" y="100.383348"/>
     <use style="fill-opacity:0;stroke:#ff7500;stroke-linejoin:bevel;stroke-width:1.5;" x="215.024709" xlink:href="#mf2f4451c4c" y="30.334099"/>
     <use style="fill-opacity:0;stroke:#ff7500;stroke-linejoin:bevel;stroke-width:1.5;" x="215.024709" xlink:href="#mf2f4451c4c" y="30.334099"/>
     <use style="fill-opacity:0;stroke:#ff7500;stroke-linejoin:bevel;stroke-width:1.5;" x="338.688" xlink:href="#mf2f4451c4c" y="30.334099"/>
    </g>
   </g>
   <g id="line2d_42">
    <path style="fill:none;stroke:#ff7500;stroke-linecap:square;stroke-width:1.5;"/>
    <g/>
   </g>
   <g id="line2d_43">
    <path clip-path="url(#p5aa592da72)" d="M 194.045737 58.775147 
" style="fill:none;stroke:#ff7500;stroke-linecap:square;stroke-width:1.5;"/>
    <defs>
     <path d="M -12 12 
L 12 -12 
M -12 -12 
L 12 12 
" id="m927049f484" style="stroke:#ff7500;"/>
    </defs>
    <g clip-path="url(#p5aa592da72)">
     <use style="fill:#ff7500;stroke:#ff7500;" x="194.045737" xlink:href="#m927049f484" y="58.775147"/>
    </g>
   </g>
   <g id="line2d_44">
    <defs>
     <path d="M 0 1.5 
C 0.397805 1.5 0.77937 1.341951 1.06066 1.06066 
C 1.341951 0.77937 1.5 0.397805 1.5 0 
C 1.5 -0.397805 1.341951 -0.77937 1.06066 -1.06066 
C 0.77937 -1.341951 0.397805 -1.5 0 -1.5 
C -0.397805 -1.5 -0.77937 -1.341951 -1.06066 -1.06066 
C -1.341951 -0.77937 -1.5 -0.397805 -1.5 0 
C -1.5 0.397805 -1.341951 0.77937 -1.06066 1.06066 
C -0.77937 1.341951 -0.397805 1.5 0 1.5 
z
" id="mbfe4e07eab" style="stroke:#6495ed;"/>
    </defs>
    <g>
     <use style="fill:#6495ed;stroke:#6495ed;" x="232.096642" xlink:href="#mbfe4e07eab" y="30.334099"/>
     <use style="fill:#6495ed;stroke:#6495ed;" x="232.096642" xlink:href="#mbfe4e07eab" y="30.334099"/>
    </g>
   </g>
   <g id="line2d_45">
    <path d="M 57.6 298.944 
L 57.6 296.31057 
L 69.687988 296.31057 
L 69.687988 288.936964 
L 83.830028 288.936964 
L 83.830028 288.410278 
L 91.535274 288.410278 
L 91.535274 283.670104 
L 94.921215 283.670104 
L 94.921215 283.143418 
L 98.606294 283.143418 
L 98.606294 276.296499 
L 100.192776 276.296499 
L 100.192776 274.189754 
L 100.934985 274.189754 
L 100.934985 269.976266 
L 104.826449 269.976266 
L 104.826449 267.342835 
L 105.951954 267.342835 
L 105.951954 264.709405 
L 109.843417 264.709405 
L 109.843417 263.129347 
L 111.505558 263.129347 
L 111.505558 262.075974 
L 114.080224 262.075974 
L 114.080224 261.549288 
L 115.077025 261.549288 
L 115.077025 261.022602 
L 116.621333 261.022602 
L 116.621333 258.915858 
L 117.202696 258.915858 
L 117.202696 256.809114 
L 118.039942 256.809114 
L 118.039942 254.702369 
L 120.093994 254.702369 
L 120.093994 249.435508 
L 126.338353 249.435508 
L 126.338353 248.382136 
L 127.799239 248.382136 
L 127.799239 247.328764 
L 128.107907 247.328764 
L 128.107907 246.802078 
L 129.433047 246.802078 
L 129.433047 245.22202 
L 129.574256 245.22202 
L 129.574256 243.641962 
L 130.263646 243.641962 
L 130.263646 242.588589 
L 130.796184 242.588589 
L 130.796184 242.061903 
L 131.565689 242.061903 
L 131.565689 238.901787 
L 131.814826 238.901787 
L 131.814826 237.321729 
L 132.30267 237.321729 
L 132.30267 235.74167 
L 135.482227 235.74167 
L 135.482227 234.161612 
L 136.170062 234.161612 
L 136.170062 232.581554 
L 136.645276 232.581554 
L 136.645276 231.001496 
L 138.594838 231.001496 
L 138.594838 228.368065 
L 139.009092 228.368065 
L 139.090775 225.734635 
L 139.652088 225.734635 
L 139.652088 224.154577 
L 140.871049 224.154577 
L 140.871049 223.627891 
L 141.662245 223.627891 
L 141.662245 222.574518 
L 142.010346 222.574518 
L 142.010346 219.414402 
L 142.686372 219.414402 
L 142.686372 217.834344 
L 143.144465 217.834344 
L 143.144465 216.780971 
L 144.570138 216.780971 
L 144.570138 216.254285 
L 144.688773 216.254285 
L 144.688773 215.727599 
L 146.906268 215.727599 
L 146.906268 214.674227 
L 147.670154 214.674227 
L 147.670154 212.567483 
L 148.497276 212.567483 
L 148.497276 212.040797 
L 148.733265 212.040797 
L 148.733265 210.460738 
L 149.422654 210.460738 
L 149.422654 209.934052 
L 151.260066 209.934052 
L 151.260066 208.88068 
L 151.740076 208.88068 
L 151.740076 208.353994 
L 152.959038 208.353994 
L 152.959038 206.773936 
L 153.502361 206.773936 
L 153.502361 206.24725 
L 153.715038 206.24725 
L 153.715038 205.720564 
L 153.855395 205.720564 
L 153.925152 203.087133 
L 155.004911 203.087133 
L 155.004911 201.507075 
L 155.329071 201.507075 
L 155.329071 199.400331 
L 155.457066 199.400331 
L 155.457066 198.873645 
L 156.236431 198.873645 
L 156.236431 198.346959 
L 156.687861 198.346959 
L 156.687861 197.293586 
L 156.923929 197.293586 
L 156.923929 195.713528 
L 157.58535 195.713528 
L 157.58535 193.080098 
L 158.51933 193.080098 
L 158.51933 192.553412 
L 160.418152 192.553412 
L 160.418152 190.973354 
L 161.100288 190.973354 
L 161.100288 187.286551 
L 161.999419 187.286551 
L 161.999419 186.759865 
L 162.770815 186.759865 
L 162.770815 185.706493 
L 163.205526 185.706493 
L 163.205526 184.126434 
L 164.19892 184.126434 
L 164.19892 182.546376 
L 164.371873 182.546376 
L 164.371873 181.493004 
L 165.393091 181.493004 
L 165.393091 180.439632 
L 166.306535 180.439632 
L 166.306535 179.912946 
L 167.288118 179.912946 
L 167.288118 175.699457 
L 168.18668 175.699457 
L 168.18668 175.172771 
L 168.835167 175.172771 
L 168.835167 172.539341 
L 169.316986 172.539341 
L 169.316986 171.485969 
L 169.545889 171.485969 
L 169.545889 167.799166 
L 170.687376 167.799166 
L 170.713981 166.219108 
L 173.542212 166.219108 
L 173.542212 165.165736 
L 174.380694 165.165736 
L 174.380694 164.63905 
L 175.139502 164.63905 
L 175.139502 164.112363 
L 175.425901 164.112363 
L 175.425901 162.005619 
L 175.747557 162.005619 
L 175.747557 160.952247 
L 176.363988 160.952247 
L 176.363988 159.898875 
L 176.545699 159.898875 
L 176.545699 159.372189 
L 176.85687 159.372189 
L 176.85687 158.845503 
L 177.327109 158.845503 
L 177.327109 158.318817 
L 178.403079 158.318817 
L 178.403079 157.79213 
L 179.008261 157.79213 
L 179.008261 157.265444 
L 179.617095 157.265444 
L 179.617095 156.738758 
L 179.736352 156.738758 
L 179.736352 156.212072 
L 180.251605 156.212072 
L 180.251605 155.1587 
L 180.389527 155.1587 
L 180.389527 152.52527 
L 180.878686 152.52527 
L 180.878686 151.998584 
L 181.194904 151.998584 
L 181.194904 150.418525 
L 181.34005 150.418525 
L 181.34005 149.891839 
L 181.796565 149.891839 
L 181.796565 149.365153 
L 182.151983 149.365153 
L 182.151983 148.311781 
L 182.350899 148.311781 
L 182.350899 147.785095 
L 183.091972 147.785095 
L 183.091972 147.258409 
L 183.657898 147.258409 
L 183.765139 144.624978 
L 184.052058 144.624978 
L 184.15691 142.518234 
L 184.522016 142.518234 
L 184.522016 140.41149 
L 184.832374 140.41149 
L 184.885534 139.358118 
L 184.956162 139.358118 
L 184.956162 138.831432 
L 185.131492 138.831432 
L 185.131492 137.778059 
L 185.737242 137.778059 
L 185.80451 135.671315 
L 186.180872 135.671315 
L 186.180872 133.564571 
L 186.522458 133.564571 
L 186.613497 128.824396 
L 186.677475 128.824396 
L 186.677475 128.29771 
L 187.108485 128.29771 
L 187.108485 127.244338 
L 187.381503 127.244338 
L 187.452913 122.504163 
L 187.493588 122.504163 
L 187.58476 119.870733 
L 187.850478 119.870733 
L 187.890237 115.657244 
L 188.175811 115.657244 
L 188.175811 115.130558 
L 188.379724 115.130558 
L 188.379724 113.5505 
L 188.586052 113.5505 
L 188.676448 107.756953 
L 188.728569 107.756953 
L 188.728569 107.230267 
L 188.996185 107.230267 
L 189.014812 104.596836 
L 189.364991 104.596836 
L 189.387785 102.490092 
L 189.659008 102.490092 
L 189.730627 95.643173 
L 189.99221 95.643173 
L 189.99221 95.116487 
L 190.162992 95.116487 
L 190.215205 94.063115 
L 190.383827 94.063115 
L 190.435385 92.483056 
L 190.695137 92.483056 
L 190.695137 91.95637 
L 190.829869 91.95637 
L 190.896847 90.376312 
L 190.97605 90.376312 
L 191.042469 87.742882 
L 191.162214 87.742882 
L 191.162214 85.636137 
L 191.346412 85.636137 
L 191.443861 83.529393 
L 191.480264 83.529393 
L 191.568932 79.315904 
L 191.617107 79.315904 
L 191.701094 77.20916 
L 191.740946 77.20916 
L 191.808486 74.57573 
L 192.122858 74.57573 
L 192.122858 74.049044 
L 192.28952 74.049044 
L 192.39336 71.415613 
L 192.424009 71.415613 
L 192.424009 70.362241 
L 192.625709 70.362241 
L 192.637057 68.782183 
L 192.925812 68.782183 
L 192.992629 66.148752 
L 193.107106 66.148752 
L 193.184231 62.988636 
L 193.257367 62.988636 
L 193.290178 61.935264 
L 193.453316 61.935264 
L 193.518146 58.775147 
L 193.575571 58.775147 
L 193.618516 56.141717 
L 193.757362 56.141717 
L 193.806936 53.508287 
L 204.09362 53.508287 
L 204.09362 52.9816 
L 204.398711 52.9816 
L 204.398711 52.454914 
L 204.666336 52.454914 
L 204.751494 50.34817 
L 204.901866 50.34817 
L 204.901866 49.821484 
L 205.019378 49.821484 
L 205.019378 47.71474 
L 205.341706 47.71474 
L 205.341706 46.661368 
L 205.582751 46.661368 
L 205.61512 44.554623 
L 205.743995 44.554623 
L 205.743995 44.027937 
L 205.871925 44.027937 
L 205.921423 41.394507 
L 212.295536 41.394507 
L 212.390813 39.814448 
L 212.469814 39.814448 
L 212.469814 38.761076 
L 212.668764 38.761076 
L 212.680749 37.707704 
L 212.83937 37.707704 
L 212.83937 36.654332 
L 213.049428 36.654332 
L 213.125508 35.60096 
L 217.8302 35.60096 
L 217.8302 35.074274 
L 218.091305 35.074274 
L 218.091305 34.547588 
L 221.62939 34.547588 
L 221.675945 33.494215 
L 224.891705 33.494215 
L 224.92914 32.440843 
L 225.032704 32.440843 
L 225.032704 31.914157 
L 227.597139 31.914157 
L 227.597139 31.387471 
L 229.974279 31.387471 
L 229.974279 30.860785 
L 232.096642 30.860785 
L 232.096642 30.334099 
L 338.688 30.334099 
L 338.688 30.334099 
" style="fill:none;stroke:#6495ed;stroke-linecap:square;stroke-width:1.5;"/>
   </g>
   <g id="line2d_46">
    <defs>
     <path d="M -0 6 
L 6 -6 
L -6 -6 
z
" id="mda51b9d4d9" style="stroke:#6495ed;stroke-linejoin:miter;stroke-width:1.5;"/>
    </defs>
    <g>
     <use style="fill-opacity:0;stroke:#6495ed;stroke-linejoin:miter;stroke-width:1.5;" x="158.51933" xlink:href="#mda51b9d4d9" y="192.553412"/>
     <use style="fill-opacity:0;stroke:#6495ed;stroke-linejoin:miter;stroke-width:1.5;" x="212.83937" xlink:href="#mda51b9d4d9" y="37.707704"/>
     <use style="fill-opacity:0;stroke:#6495ed;stroke-linejoin:miter;stroke-width:1.5;" x="232.096642" xlink:href="#mda51b9d4d9" y="30.334099"/>
     <use style="fill-opacity:0;stroke:#6495ed;stroke-linejoin:miter;stroke-width:1.5;" x="232.096642" xlink:href="#mda51b9d4d9" y="30.334099"/>
     <use style="fill-opacity:0;stroke:#6495ed;stroke-linejoin:miter;stroke-width:1.5;" x="338.688" xlink:href="#mda51b9d4d9" y="30.334099"/>
    </g>
   </g>
   <g id="line2d_47">
    <path style="fill:none;stroke:#6495ed;stroke-linecap:square;stroke-width:1.5;"/>
    <g/>
   </g>
   <g id="line2d_48">
    <path clip-path="url(#p5aa592da72)" d="M 194.045737 53.508287 
" style="fill:none;stroke:#6495ed;stroke-linecap:square;stroke-width:1.5;"/>
    <defs>
     <path d="M -12 12 
L 12 -12 
M -12 -12 
L 12 12 
" id="me05417ad69" style="stroke:#6495ed;"/>
    </defs>
    <g clip-path="url(#p5aa592da72)">
     <use style="fill:#6495ed;stroke:#6495ed;" x="194.045737" xlink:href="#me05417ad69" y="53.508287"/>
    </g>
   </g>
   <g id="line2d_49">
    <defs>
     <path d="M 0 1.5 
C 0.397805 1.5 0.77937 1.341951 1.06066 1.06066 
C 1.341951 0.77937 1.5 0.397805 1.5 0 
C 1.5 -0.397805 1.341951 -0.77937 1.06066 -1.06066 
C 0.77937 -1.341951 0.397805 -1.5 0 -1.5 
C -0.397805 -1.5 -0.77937 -1.341951 -1.06066 -1.06066 
C -1.341951 -0.77937 -1.5 -0.397805 -1.5 0 
C -1.5 0.397805 -1.341951 0.77937 -1.06066 1.06066 
C -0.77937 1.341951 -0.397805 1.5 0 1.5 
z
" id="m670c560cb3" style="stroke:#ff0000;"/>
    </defs>
    <g>
     <use style="fill:#ff0000;stroke:#ff0000;" x="185.988171" xlink:href="#m670c560cb3" y="30.334099"/>
     <use style="fill:#ff0000;stroke:#ff0000;" x="185.988171" xlink:href="#m670c560cb3" y="30.334099"/>
    </g>
   </g>
   <g id="line2d_50">
    <path d="M 57.6 298.944 
L 57.6 297.363942 
L 69.687988 297.363942 
L 69.687988 289.463651 
L 83.830028 289.463651 
L 83.830028 288.936964 
L 91.535274 288.936964 
L 91.535274 283.143418 
L 94.921215 283.143418 
L 94.921215 282.616732 
L 98.606294 282.616732 
L 98.606294 276.296499 
L 100.192776 276.296499 
L 100.192776 274.189754 
L 100.934985 274.189754 
L 100.934985 272.609696 
L 104.826449 272.609696 
L 104.826449 269.976266 
L 105.951954 269.976266 
L 105.951954 266.816149 
L 109.843417 266.816149 
L 109.843417 264.709405 
L 111.505558 264.709405 
L 111.505558 263.656033 
L 115.077025 263.656033 
L 115.077025 262.60266 
L 116.621333 262.60266 
L 116.621333 259.96923 
L 117.202696 259.96923 
L 117.202696 254.175683 
L 118.039942 254.175683 
L 118.039942 250.488881 
L 118.576578 250.488881 
L 118.576578 247.328764 
L 121.931406 247.328764 
L 121.931406 246.275392 
L 123.790603 246.275392 
L 123.790603 244.168648 
L 125.647598 244.168648 
L 125.647598 243.641962 
L 126.50685 243.641962 
L 126.50685 238.375101 
L 126.673734 238.375101 
L 126.673734 233.634926 
L 126.839037 233.634926 
L 126.839037 232.581554 
L 130.127931 232.581554 
L 130.127931 232.054868 
L 130.531948 232.054868 
L 130.531948 231.528182 
L 132.422528 231.528182 
L 132.422528 230.47481 
L 133.689303 230.47481 
L 133.689303 229.948123 
L 133.910056 229.948123 
L 133.910056 229.421437 
L 134.236034 229.421437 
L 134.236034 228.368065 
L 134.973757 228.368065 
L 134.973757 227.841379 
L 135.280614 227.841379 
L 135.280614 227.314693 
L 136.831795 227.314693 
L 136.831795 226.788007 
L 137.016339 226.788007 
L 137.016339 226.261321 
L 137.647286 226.261321 
L 137.647286 225.207949 
L 138.170504 225.207949 
L 138.170504 224.681263 
L 138.341479 224.681263 
L 138.341479 224.154577 
L 138.761723 224.154577 
L 138.84457 222.574518 
L 139.572998 222.574518 
L 139.572998 222.047832 
L 139.730821 222.047832 
L 139.8092 220.467774 
L 140.64889 220.467774 
L 140.64889 219.941088 
L 141.235139 219.941088 
L 141.235139 219.414402 
L 142.686372 219.414402 
L 142.686372 217.834344 
L 143.208936 217.834344 
L 143.273169 216.780971 
L 143.590833 216.780971 
L 143.590833 216.254285 
L 145.212864 216.254285 
L 145.212864 215.727599 
L 145.553708 215.727599 
L 145.609873 212.567483 
L 146.107383 212.567483 
L 146.107383 211.514111 
L 146.431341 211.514111 
L 146.431341 210.987425 
L 146.696785 210.987425 
L 146.696785 207.827308 
L 147.71991 207.827308 
L 147.71991 207.300622 
L 148.161434 207.300622 
L 148.161434 206.773936 
L 148.686322 206.773936 
L 148.686322 206.24725 
L 148.87334 206.24725 
L 148.87334 204.667192 
L 149.512548 204.667192 
L 149.60198 202.560447 
L 150.556607 202.560447 
L 150.556607 201.507075 
L 151.501723 201.507075 
L 151.501723 200.453703 
L 151.700576 200.453703 
L 151.700576 199.927017 
L 152.474064 199.927017 
L 152.474064 199.400331 
L 152.811246 199.400331 
L 152.848312 196.7669 
L 153.679772 196.7669 
L 153.679772 194.660156 
L 154.641235 194.660156 
L 154.641235 189.919981 
L 155.647315 189.919981 
L 155.647315 189.393295 
L 155.804285 189.393295 
L 155.804285 188.866609 
L 156.717545 188.866609 
L 156.717545 187.813237 
L 157.697862 187.813237 
L 157.725877 184.126434 
L 157.976006 184.126434 
L 157.976006 182.01969 
L 158.994256 182.01969 
L 158.994256 179.912946 
L 159.175513 179.912946 
L 159.175513 179.38626 
L 163.52961 179.38626 
L 163.52961 176.752829 
L 164.429145 176.752829 
L 164.429145 176.226143 
L 164.768882 176.226143 
L 164.768882 174.119399 
L 165.193576 174.119399 
L 165.193576 173.066027 
L 165.661531 173.066027 
L 165.661531 172.539341 
L 165.890882 172.539341 
L 165.890882 169.379224 
L 166.729224 169.379224 
L 166.729224 168.325852 
L 167.027338 168.325852 
L 167.027338 166.745794 
L 167.271933 166.745794 
L 167.271933 166.219108 
L 168.125111 166.219108 
L 168.18668 165.165736 
L 168.506396 165.165736 
L 168.521475 164.112363 
L 169.099626 164.112363 
L 169.099626 162.532305 
L 169.446113 162.532305 
L 169.446113 157.265444 
L 169.911564 157.265444 
L 169.911564 156.212072 
L 170.14658 156.212072 
L 170.14658 155.685386 
L 170.310587 155.685386 
L 170.419074 154.105328 
L 170.990905 154.105328 
L 170.990905 153.051956 
L 171.121244 153.051956 
L 171.121244 151.998584 
L 171.531901 151.998584 
L 171.531901 150.418525 
L 171.73366 150.418525 
L 171.73366 149.891839 
L 172.179258 149.891839 
L 172.179258 149.365153 
L 172.708856 149.365153 
L 172.744386 143.04492 
L 173.417442 143.04492 
L 173.428822 139.884804 
L 173.699729 139.884804 
L 173.699729 138.304745 
L 174.065485 138.304745 
L 174.065485 136.724687 
L 174.963293 136.724687 
L 174.963293 136.198001 
L 175.180705 136.198001 
L 175.180705 135.671315 
L 175.607562 135.671315 
L 175.607562 135.144629 
L 175.93577 135.144629 
L 175.93577 133.564571 
L 176.082938 133.564571 
L 176.082938 133.037885 
L 176.199784 133.037885 
L 176.199784 130.93114 
L 176.392805 130.93114 
L 176.392805 129.351082 
L 176.52666 129.351082 
L 176.55521 127.244338 
L 177.226752 127.244338 
L 177.226752 124.610907 
L 177.633702 124.610907 
L 177.633702 121.977477 
L 177.79386 121.977477 
L 177.79386 119.870733 
L 177.943781 119.870733 
L 177.95256 117.763988 
L 178.479885 117.763988 
L 178.479885 116.710616 
L 178.640929 116.710616 
L 178.666222 114.603872 
L 179.057758 114.603872 
L 179.098898 109.863697 
L 179.20541 109.863697 
L 179.286902 108.810325 
L 179.319393 108.810325 
L 179.319393 106.703581 
L 179.497017 106.703581 
L 179.521099 105.123522 
L 179.70463 105.123522 
L 179.744273 102.490092 
L 180.159048 102.490092 
L 180.251605 100.383348 
L 180.282349 100.383348 
L 180.282349 98.276603 
L 180.465681 98.276603 
L 180.564187 94.589801 
L 180.752071 94.589801 
L 180.848977 90.376312 
L 180.863838 90.376312 
L 180.915752 87.742882 
L 181.390568 87.742882 
L 181.426562 85.636137 
L 181.54839 85.636137 
L 181.54839 83.529393 
L 181.754271 83.529393 
L 181.852798 77.735846 
L 181.992593 77.735846 
L 182.069005 72.995672 
L 182.131275 72.995672 
L 182.131275 70.362241 
L 182.282564 70.362241 
L 182.350899 68.255497 
L 182.547572 68.255497 
L 182.581258 66.148752 
L 182.742052 66.148752 
L 182.84843 64.042008 
L 182.888155 64.042008 
L 182.888155 62.988636 
L 183.00022 62.988636 
L 183.10504 61.935264 
L 183.11157 61.935264 
L 183.150701 58.775147 
L 183.274039 58.775147 
L 183.370799 56.668403 
L 183.594505 56.668403 
L 183.664224 52.9816 
L 183.739965 52.9816 
L 183.846704 51.928228 
L 183.871725 51.928228 
L 183.965233 49.294798 
L 184.273356 49.294798 
L 184.328244 47.71474 
L 184.612111 47.71474 
L 184.648019 43.501251 
L 184.802771 43.501251 
L 184.891431 41.394507 
L 184.950287 41.394507 
L 184.950287 40.341135 
L 185.096566 40.341135 
L 185.166347 38.23439 
L 185.287795 38.23439 
L 185.287795 37.707704 
L 185.436997 37.707704 
L 185.545227 34.020902 
L 185.579266 34.020902 
L 185.579266 31.914157 
L 185.988171 31.914157 
L 185.988171 30.334099 
L 338.688 30.334099 
L 338.688 30.334099 
" style="fill:none;stroke:#ff0000;stroke-linecap:square;stroke-width:1.5;"/>
   </g>
   <g id="line2d_51">
    <defs>
     <path d="M 0 -6 
L -5.196152 -3 
L -5.196152 3 
L -0 6 
L 5.196152 3 
L 5.196152 -3 
z
" id="mbae19126e6" style="stroke:#ff0000;stroke-linejoin:miter;stroke-width:1.5;"/>
    </defs>
    <g>
     <use style="fill-opacity:0;stroke:#ff0000;stroke-linejoin:miter;stroke-width:1.5;" x="100.934985" xlink:href="#mbae19126e6" y="274.189754"/>
     <use style="fill-opacity:0;stroke:#ff0000;stroke-linejoin:miter;stroke-width:1.5;" x="173.428822" xlink:href="#mbae19126e6" y="142.518234"/>
     <use style="fill-opacity:0;stroke:#ff0000;stroke-linejoin:miter;stroke-width:1.5;" x="185.988171" xlink:href="#mbae19126e6" y="31.914157"/>
     <use style="fill-opacity:0;stroke:#ff0000;stroke-linejoin:miter;stroke-width:1.5;" x="185.988171" xlink:href="#mbae19126e6" y="30.334099"/>
     <use style="fill-opacity:0;stroke:#ff0000;stroke-linejoin:miter;stroke-width:1.5;" x="338.688" xlink:href="#mbae19126e6" y="30.334099"/>
    </g>
   </g>
   <g id="line2d_52">
    <path style="fill:none;stroke:#ff0000;stroke-linecap:square;stroke-width:1.5;"/>
    <g/>
   </g>
   <g id="line2d_53">
    <path d="M 338.688 162.005619 
L 369.60768 293.571802 
" style="fill:none;stroke:#000080;stroke-linecap:square;stroke-width:1.5;"/>
    <g>
     <use style="fill-opacity:0;stroke:#000080;stroke-width:1.5;" x="338.688" xlink:href="#m6985da4f3a" y="162.005619"/>
     <use style="fill-opacity:0;stroke:#000080;stroke-width:1.5;" x="369.60768" xlink:href="#m6985da4f3a" y="293.571802"/>
    </g>
   </g>
   <g id="line2d_54">
    <path d="M 338.688 30.334099 
L 369.60768 229.105426 
" style="fill:none;stroke:#6495ed;stroke-linecap:square;stroke-width:1.5;"/>
    <g>
     <use style="fill-opacity:0;stroke:#6495ed;stroke-linejoin:miter;stroke-width:1.5;" x="338.688" xlink:href="#mda51b9d4d9" y="30.334099"/>
     <use style="fill-opacity:0;stroke:#6495ed;stroke-linejoin:miter;stroke-width:1.5;" x="369.60768" xlink:href="#mda51b9d4d9" y="229.105426"/>
    </g>
   </g>
   <g id="line2d_55">
    <path d="M 338.688 30.334099 
L 369.60768 164.63905 
" style="fill:none;stroke:#ff7500;stroke-linecap:square;stroke-width:1.5;"/>
    <g>
     <use style="fill-opacity:0;stroke:#ff7500;stroke-linejoin:bevel;stroke-width:1.5;" x="338.688" xlink:href="#mf2f4451c4c" y="30.334099"/>
     <use style="fill-opacity:0;stroke:#ff7500;stroke-linejoin:bevel;stroke-width:1.5;" x="369.60768" xlink:href="#mf2f4451c4c" y="164.63905"/>
    </g>
   </g>
   <g id="line2d_56">
    <path d="M 338.688 30.334099 
L 369.60768 100.172673 
" style="fill:none;stroke:#ff0000;stroke-linecap:square;stroke-width:1.5;"/>
    <g>
     <use style="fill-opacity:0;stroke:#ff0000;stroke-linejoin:miter;stroke-width:1.5;" x="338.688" xlink:href="#mbae19126e6" y="30.334099"/>
     <use style="fill-opacity:0;stroke:#ff0000;stroke-linejoin:miter;stroke-width:1.5;" x="369.60768" xlink:href="#mbae19126e6" y="100.172673"/>
    </g>
   </g>
   <g id="line2d_57">
    <path d="M 338.688 298.944 
L 338.688 30.334099 
" style="fill:none;stroke:#000000;stroke-linecap:square;stroke-width:1.5;"/>
   </g>
   <g id="patch_3">
    <path d="M 57.6 298.944 
L 57.6 27.648 
" style="fill:none;stroke:#000000;stroke-linecap:square;stroke-linejoin:miter;stroke-width:0.8;"/>
   </g>
   <g id="patch_4">
    <path d="M 338.688 298.944 
L 338.688 27.648 
" style="fill:none;stroke:#000000;stroke-linecap:square;stroke-linejoin:miter;stroke-width:0.8;"/>
   </g>
   <g id="patch_5">
    <path d="M 57.6 298.944 
L 338.688 298.944 
" style="fill:none;stroke:#000000;stroke-linecap:square;stroke-linejoin:miter;stroke-width:0.8;"/>
   </g>
   <g id="patch_6">
    <path d="M 57.6 27.648 
L 338.688 27.648 
" style="fill:none;stroke:#000000;stroke-linecap:square;stroke-linejoin:miter;stroke-width:0.8;"/>
   </g>
   <g id="text_13">
    <!-- ABC -->
    <defs>
     <path d="M 34.1875 63.1875 
L 20.796875 26.90625 
L 47.609375 26.90625 
z
M 28.609375 72.90625 
L 39.796875 72.90625 
L 67.578125 0 
L 57.328125 0 
L 50.6875 18.703125 
L 17.828125 18.703125 
L 11.1875 0 
L 0.78125 0 
z
" id="DejaVuSans-65"/>
     <path d="M 19.671875 34.8125 
L 19.671875 8.109375 
L 35.5 8.109375 
Q 43.453125 8.109375 47.28125 11.40625 
Q 51.125 14.703125 51.125 21.484375 
Q 51.125 28.328125 47.28125 31.5625 
Q 43.453125 34.8125 35.5 34.8125 
z
M 19.671875 64.796875 
L 19.671875 42.828125 
L 34.28125 42.828125 
Q 41.5 42.828125 45.03125 45.53125 
Q 48.578125 48.25 48.578125 53.8125 
Q 48.578125 59.328125 45.03125 62.0625 
Q 41.5 64.796875 34.28125 64.796875 
z
M 9.8125 72.90625 
L 35.015625 72.90625 
Q 46.296875 72.90625 52.390625 68.21875 
Q 58.5 63.53125 58.5 54.890625 
Q 58.5 48.1875 55.375 44.234375 
Q 52.25 40.28125 46.1875 39.3125 
Q 53.46875 37.75 57.5 32.78125 
Q 61.53125 27.828125 61.53125 20.40625 
Q 61.53125 10.640625 54.890625 5.3125 
Q 48.25 0 35.984375 0 
L 9.8125 0 
z
" id="DejaVuSans-66"/>
     <path d="M 64.40625 67.28125 
L 64.40625 56.890625 
Q 59.421875 61.53125 53.78125 63.8125 
Q 48.140625 66.109375 41.796875 66.109375 
Q 29.296875 66.109375 22.65625 58.46875 
Q 16.015625 50.828125 16.015625 36.375 
Q 16.015625 21.96875 22.65625 14.328125 
Q 29.296875 6.6875 41.796875 6.6875 
Q 48.140625 6.6875 53.78125 8.984375 
Q 59.421875 11.28125 64.40625 15.921875 
L 64.40625 5.609375 
Q 59.234375 2.09375 53.4375 0.328125 
Q 47.65625 -1.421875 41.21875 -1.421875 
Q 24.65625 -1.421875 15.125 8.703125 
Q 5.609375 18.84375 5.609375 36.375 
Q 5.609375 53.953125 15.125 64.078125 
Q 24.65625 74.21875 41.21875 74.21875 
Q 47.75 74.21875 53.53125 72.484375 
Q 59.328125 70.75 64.40625 67.28125 
z
" id="DejaVuSans-67"/>
    </defs>
    <g transform="translate(375.22944 298.262739)scale(0.17 -0.17)">
     <use xlink:href="#DejaVuSans-65"/>
     <use x="68.408203" xlink:href="#DejaVuSans-66"/>
     <use x="135.261719" xlink:href="#DejaVuSans-67"/>
    </g>
   </g>
   <g id="text_14">
    <!-- DEPSO -->
    <defs>
     <path d="M 19.671875 64.796875 
L 19.671875 8.109375 
L 31.59375 8.109375 
Q 46.6875 8.109375 53.6875 14.9375 
Q 60.6875 21.78125 60.6875 36.53125 
Q 60.6875 51.171875 53.6875 57.984375 
Q 46.6875 64.796875 31.59375 64.796875 
z
M 9.8125 72.90625 
L 30.078125 72.90625 
Q 51.265625 72.90625 61.171875 64.09375 
Q 71.09375 55.28125 71.09375 36.53125 
Q 71.09375 17.671875 61.125 8.828125 
Q 51.171875 0 30.078125 0 
L 9.8125 0 
z
" id="DejaVuSans-68"/>
     <path d="M 9.8125 72.90625 
L 55.90625 72.90625 
L 55.90625 64.59375 
L 19.671875 64.59375 
L 19.671875 43.015625 
L 54.390625 43.015625 
L 54.390625 34.71875 
L 19.671875 34.71875 
L 19.671875 8.296875 
L 56.78125 8.296875 
L 56.78125 0 
L 9.8125 0 
z
" id="DejaVuSans-69"/>
     <path d="M 19.671875 64.796875 
L 19.671875 37.40625 
L 32.078125 37.40625 
Q 38.96875 37.40625 42.71875 40.96875 
Q 46.484375 44.53125 46.484375 51.125 
Q 46.484375 57.671875 42.71875 61.234375 
Q 38.96875 64.796875 32.078125 64.796875 
z
M 9.8125 72.90625 
L 32.078125 72.90625 
Q 44.34375 72.90625 50.609375 67.359375 
Q 56.890625 61.8125 56.890625 51.125 
Q 56.890625 40.328125 50.609375 34.8125 
Q 44.34375 29.296875 32.078125 29.296875 
L 19.671875 29.296875 
L 19.671875 0 
L 9.8125 0 
z
" id="DejaVuSans-80"/>
     <path d="M 53.515625 70.515625 
L 53.515625 60.890625 
Q 47.90625 63.578125 42.921875 64.890625 
Q 37.9375 66.21875 33.296875 66.21875 
Q 25.25 66.21875 20.875 63.09375 
Q 16.5 59.96875 16.5 54.203125 
Q 16.5 49.359375 19.40625 46.890625 
Q 22.3125 44.4375 30.421875 42.921875 
L 36.375 41.703125 
Q 47.40625 39.59375 52.65625 34.296875 
Q 57.90625 29 57.90625 20.125 
Q 57.90625 9.515625 50.796875 4.046875 
Q 43.703125 -1.421875 29.984375 -1.421875 
Q 24.8125 -1.421875 18.96875 -0.25 
Q 13.140625 0.921875 6.890625 3.21875 
L 6.890625 13.375 
Q 12.890625 10.015625 18.65625 8.296875 
Q 24.421875 6.59375 29.984375 6.59375 
Q 38.421875 6.59375 43.015625 9.90625 
Q 47.609375 13.234375 47.609375 19.390625 
Q 47.609375 24.75 44.3125 27.78125 
Q 41.015625 30.8125 33.5 32.328125 
L 27.484375 33.5 
Q 16.453125 35.6875 11.515625 40.375 
Q 6.59375 45.0625 6.59375 53.421875 
Q 6.59375 63.09375 13.40625 68.65625 
Q 20.21875 74.21875 32.171875 74.21875 
Q 37.3125 74.21875 42.625 73.28125 
Q 47.953125 72.359375 53.515625 70.515625 
z
" id="DejaVuSans-83"/>
     <path d="M 39.40625 66.21875 
Q 28.65625 66.21875 22.328125 58.203125 
Q 16.015625 50.203125 16.015625 36.375 
Q 16.015625 22.609375 22.328125 14.59375 
Q 28.65625 6.59375 39.40625 6.59375 
Q 50.140625 6.59375 56.421875 14.59375 
Q 62.703125 22.609375 62.703125 36.375 
Q 62.703125 50.203125 56.421875 58.203125 
Q 50.140625 66.21875 39.40625 66.21875 
z
M 39.40625 74.21875 
Q 54.734375 74.21875 63.90625 63.9375 
Q 73.09375 53.65625 73.09375 36.375 
Q 73.09375 19.140625 63.90625 8.859375 
Q 54.734375 -1.421875 39.40625 -1.421875 
Q 24.03125 -1.421875 14.8125 8.828125 
Q 5.609375 19.09375 5.609375 36.375 
Q 5.609375 53.65625 14.8125 63.9375 
Q 24.03125 74.21875 39.40625 74.21875 
z
" id="DejaVuSans-79"/>
    </defs>
    <g transform="translate(375.22944 233.796363)scale(0.17 -0.17)">
     <use xlink:href="#DejaVuSans-68"/>
     <use x="77.001953" xlink:href="#DejaVuSans-69"/>
     <use x="140.185547" xlink:href="#DejaVuSans-80"/>
     <use x="200.488281" xlink:href="#DejaVuSans-83"/>
     <use x="263.964844" xlink:href="#DejaVuSans-79"/>
    </g>
   </g>
   <g id="text_15">
    <!-- DE -->
    <g transform="translate(375.22944 169.329987)scale(0.17 -0.17)">
     <use xlink:href="#DejaVuSans-68"/>
     <use x="77.001953" xlink:href="#DejaVuSans-69"/>
    </g>
   </g>
   <g id="text_16">
    <!-- PSO -->
    <g transform="translate(375.22944 104.863611)scale(0.17 -0.17)">
     <use xlink:href="#DejaVuSans-80"/>
     <use x="60.302734" xlink:href="#DejaVuSans-83"/>
     <use x="123.779297" xlink:href="#DejaVuSans-79"/>
    </g>
   </g>
   <g id="text_17">
    <!-- best 2009 -->
    <defs>
     <path d="M 48.6875 27.296875 
Q 48.6875 37.203125 44.609375 42.84375 
Q 40.53125 48.484375 33.40625 48.484375 
Q 26.265625 48.484375 22.1875 42.84375 
Q 18.109375 37.203125 18.109375 27.296875 
Q 18.109375 17.390625 22.1875 11.75 
Q 26.265625 6.109375 33.40625 6.109375 
Q 40.53125 6.109375 44.609375 11.75 
Q 48.6875 17.390625 48.6875 27.296875 
z
M 18.109375 46.390625 
Q 20.953125 51.265625 25.265625 53.625 
Q 29.59375 56 35.59375 56 
Q 45.5625 56 51.78125 48.09375 
Q 58.015625 40.1875 58.015625 27.296875 
Q 58.015625 14.40625 51.78125 6.484375 
Q 45.5625 -1.421875 35.59375 -1.421875 
Q 29.59375 -1.421875 25.265625 0.953125 
Q 20.953125 3.328125 18.109375 8.203125 
L 18.109375 0 
L 9.078125 0 
L 9.078125 75.984375 
L 18.109375 75.984375 
z
" id="DejaVuSans-98"/>
     <path d="M 10.984375 1.515625 
L 10.984375 10.5 
Q 14.703125 8.734375 18.5 7.8125 
Q 22.3125 6.890625 25.984375 6.890625 
Q 35.75 6.890625 40.890625 13.453125 
Q 46.046875 20.015625 46.78125 33.40625 
Q 43.953125 29.203125 39.59375 26.953125 
Q 35.25 24.703125 29.984375 24.703125 
Q 19.046875 24.703125 12.671875 31.3125 
Q 6.296875 37.9375 6.296875 49.421875 
Q 6.296875 60.640625 12.9375 67.421875 
Q 19.578125 74.21875 30.609375 74.21875 
Q 43.265625 74.21875 49.921875 64.515625 
Q 56.59375 54.828125 56.59375 36.375 
Q 56.59375 19.140625 48.40625 8.859375 
Q 40.234375 -1.421875 26.421875 -1.421875 
Q 22.703125 -1.421875 18.890625 -0.6875 
Q 15.09375 0.046875 10.984375 1.515625 
z
M 30.609375 32.421875 
Q 37.25 32.421875 41.125 36.953125 
Q 45.015625 41.5 45.015625 49.421875 
Q 45.015625 57.28125 41.125 61.84375 
Q 37.25 66.40625 30.609375 66.40625 
Q 23.96875 66.40625 20.09375 61.84375 
Q 16.21875 57.28125 16.21875 49.421875 
Q 16.21875 41.5 20.09375 36.953125 
Q 23.96875 32.421875 30.609375 32.421875 
z
" id="DejaVuSans-57"/>
    </defs>
    <g transform="translate(375.22944 40.397235)scale(0.17 -0.17)">
     <use xlink:href="#DejaVuSans-98"/>
     <use x="63.476562" xlink:href="#DejaVuSans-101"/>
     <use x="125" xlink:href="#DejaVuSans-115"/>
     <use x="177.099609" xlink:href="#DejaVuSans-116"/>
     <use x="216.308594" xlink:href="#DejaVuSans-32"/>
     <use x="248.095703" xlink:href="#DejaVuSans-50"/>
     <use x="311.71875" xlink:href="#DejaVuSans-48"/>
     <use x="375.341797" xlink:href="#DejaVuSans-48"/>
     <use x="438.964844" xlink:href="#DejaVuSans-57"/>
    </g>
   </g>
   <g id="text_18">
    <!-- bbob f9, 2-D -->
    <g transform="translate(60.41088 38.111366)scale(0.102 -0.102)">
     <use xlink:href="#DejaVuSans-98"/>
     <use x="63.476562" xlink:href="#DejaVuSans-98"/>
     <use x="126.953125" xlink:href="#DejaVuSans-111"/>
     <use x="188.134766" xlink:href="#DejaVuSans-98"/>
     <use x="251.611328" xlink:href="#DejaVuSans-32"/>
     <use x="283.398438" xlink:href="#DejaVuSans-102"/>
     <use x="318.603516" xlink:href="#DejaVuSans-57"/>
     <use x="382.226562" xlink:href="#DejaVuSans-44"/>
     <use x="414.013672" xlink:href="#DejaVuSans-32"/>
     <use x="445.800781" xlink:href="#DejaVuSans-50"/>
     <use x="509.423828" xlink:href="#DejaVuSans-45"/>
     <use x="545.507812" xlink:href="#DejaVuSans-68"/>
    </g>
    <!-- 51 targets: 100..1e-08 -->
    <defs>
     <path d="M 10.796875 72.90625 
L 49.515625 72.90625 
L 49.515625 64.59375 
L 19.828125 64.59375 
L 19.828125 46.734375 
Q 21.96875 47.46875 24.109375 47.828125 
Q 26.265625 48.1875 28.421875 48.1875 
Q 40.625 48.1875 47.75 41.5 
Q 54.890625 34.8125 54.890625 23.390625 
Q 54.890625 11.625 47.5625 5.09375 
Q 40.234375 -1.421875 26.90625 -1.421875 
Q 22.3125 -1.421875 17.546875 -0.640625 
Q 12.796875 0.140625 7.71875 1.703125 
L 7.71875 11.625 
Q 12.109375 9.234375 16.796875 8.0625 
Q 21.484375 6.890625 26.703125 6.890625 
Q 35.15625 6.890625 40.078125 11.328125 
Q 45.015625 15.765625 45.015625 23.390625 
Q 45.015625 31 40.078125 35.4375 
Q 35.15625 39.890625 26.703125 39.890625 
Q 22.75 39.890625 18.8125 39.015625 
Q 14.890625 38.140625 10.796875 36.28125 
z
" id="DejaVuSans-53"/>
     <path d="M 11.71875 12.40625 
L 22.015625 12.40625 
L 22.015625 0 
L 11.71875 0 
z
M 11.71875 51.703125 
L 22.015625 51.703125 
L 22.015625 39.3125 
L 11.71875 39.3125 
z
" id="DejaVuSans-58"/>
    </defs>
    <g transform="translate(60.41088 49.533135)scale(0.102 -0.102)">
     <use xlink:href="#DejaVuSans-53"/>
     <use x="63.623047" xlink:href="#DejaVuSans-49"/>
     <use x="127.246094" xlink:href="#DejaVuSans-32"/>
     <use x="159.033203" xlink:href="#DejaVuSans-116"/>
     <use x="198.242188" xlink:href="#DejaVuSans-97"/>
     <use x="259.521484" xlink:href="#DejaVuSans-114"/>
     <use x="298.884766" xlink:href="#DejaVuSans-103"/>
     <use x="362.361328" xlink:href="#DejaVuSans-101"/>
     <use x="423.884766" xlink:href="#DejaVuSans-116"/>
     <use x="463.09375" xlink:href="#DejaVuSans-115"/>
     <use x="515.193359" xlink:href="#DejaVuSans-58"/>
     <use x="548.884766" xlink:href="#DejaVuSans-32"/>
     <use x="580.671875" xlink:href="#DejaVuSans-49"/>
     <use x="644.294922" xlink:href="#DejaVuSans-48"/>
     <use x="707.917969" xlink:href="#DejaVuSans-48"/>
     <use x="771.541016" xlink:href="#DejaVuSans-46"/>
     <use x="803.328125" xlink:href="#DejaVuSans-46"/>
     <use x="835.115234" xlink:href="#DejaVuSans-49"/>
     <use x="898.738281" xlink:href="#DejaVuSans-101"/>
     <use x="960.261719" xlink:href="#DejaVuSans-45"/>
     <use x="996.345703" xlink:href="#DejaVuSans-48"/>
     <use x="1059.96875" xlink:href="#DejaVuSans-56"/>
    </g>
    <!-- 15 instances -->
    <g transform="translate(60.41088 60.954904)scale(0.102 -0.102)">
     <use xlink:href="#DejaVuSans-49"/>
     <use x="63.623047" xlink:href="#DejaVuSans-53"/>
     <use x="127.246094" xlink:href="#DejaVuSans-32"/>
     <use x="159.033203" xlink:href="#DejaVuSans-105"/>
     <use x="186.816406" xlink:href="#DejaVuSans-110"/>
     <use x="250.195312" xlink:href="#DejaVuSans-115"/>
     <use x="302.294922" xlink:href="#DejaVuSans-116"/>
     <use x="341.503906" xlink:href="#DejaVuSans-97"/>
     <use x="402.783203" xlink:href="#DejaVuSans-110"/>
     <use x="466.162109" xlink:href="#DejaVuSans-99"/>
     <use x="521.142578" xlink:href="#DejaVuSans-101"/>
     <use x="582.666016" xlink:href="#DejaVuSans-115"/>
    </g>
   </g>
   <g id="text_19">
    <!-- v2.4 -->
    <g style="fill:#808080;" transform="translate(187.233062 294.151352)scale(0.1 -0.1)">
     <use xlink:href="#DejaVuSans-118"/>
     <use x="59.179688" xlink:href="#DejaVuSans-50"/>
     <use x="122.802734" xlink:href="#DejaVuSans-46"/>
     <use x="154.589844" xlink:href="#DejaVuSans-52"/>
    </g>
   </g>
   <g id="text_20">
    <!-- 9 Rosenbrock rotated -->
    <defs>
     <path d="M 44.390625 34.1875 
Q 47.5625 33.109375 50.5625 29.59375 
Q 53.5625 26.078125 56.59375 19.921875 
L 66.609375 0 
L 56 0 
L 46.6875 18.703125 
Q 43.0625 26.03125 39.671875 28.421875 
Q 36.28125 30.8125 30.421875 30.8125 
L 19.671875 30.8125 
L 19.671875 0 
L 9.8125 0 
L 9.8125 72.90625 
L 32.078125 72.90625 
Q 44.578125 72.90625 50.734375 67.671875 
Q 56.890625 62.453125 56.890625 51.90625 
Q 56.890625 45.015625 53.6875 40.46875 
Q 50.484375 35.9375 44.390625 34.1875 
z
M 19.671875 64.796875 
L 19.671875 38.921875 
L 32.078125 38.921875 
Q 39.203125 38.921875 42.84375 42.21875 
Q 46.484375 45.515625 46.484375 51.90625 
Q 46.484375 58.296875 42.84375 61.546875 
Q 39.203125 64.796875 32.078125 64.796875 
z
" id="DejaVuSans-82"/>
     <path d="M 9.078125 75.984375 
L 18.109375 75.984375 
L 18.109375 31.109375 
L 44.921875 54.6875 
L 56.390625 54.6875 
L 27.390625 29.109375 
L 57.625 0 
L 45.90625 0 
L 18.109375 26.703125 
L 18.109375 0 
L 9.078125 0 
z
" id="DejaVuSans-107"/>
    </defs>
    <g transform="translate(90.990875 21.648)scale(0.2 -0.2)">
     <use xlink:href="#DejaVuSans-57"/>
     <use x="63.623047" xlink:href="#DejaVuSans-32"/>
     <use x="95.410156" xlink:href="#DejaVuSans-82"/>
     <use x="160.392578" xlink:href="#DejaVuSans-111"/>
     <use x="221.574219" xlink:href="#DejaVuSans-115"/>
     <use x="273.673828" xlink:href="#DejaVuSans-101"/>
     <use x="335.197266" xlink:href="#DejaVuSans-110"/>
     <use x="398.576172" xlink:href="#DejaVuSans-98"/>
     <use x="462.052734" xlink:href="#DejaVuSans-114"/>
     <use x="500.916016" xlink:href="#DejaVuSans-111"/>
     <use x="562.097656" xlink:href="#DejaVuSans-99"/>
     <use x="617.078125" xlink:href="#DejaVuSans-107"/>
     <use x="674.988281" xlink:href="#DejaVuSans-32"/>
     <use x="706.775391" xlink:href="#DejaVuSans-114"/>
     <use x="745.638672" xlink:href="#DejaVuSans-111"/>
     <use x="806.820312" xlink:href="#DejaVuSans-116"/>
     <use x="846.029297" xlink:href="#DejaVuSans-97"/>
     <use x="907.308594" xlink:href="#DejaVuSans-116"/>
     <use x="946.517578" xlink:href="#DejaVuSans-101"/>
     <use x="1008.041016" xlink:href="#DejaVuSans-100"/>
    </g>
   </g>
  </g>
 </g>
 <defs>
  <clipPath id="p5aa592da72">
   <rect height="271.296" width="281.088" x="57.6" y="27.648"/>
  </clipPath>
 </defs>
</svg>
