<?xml version="1.0" encoding="utf-8" standalone="no"?>
<!DOCTYPE svg PUBLIC "-//W3C//DTD SVG 1.1//EN"
  "http://www.w3.org/Graphics/SVG/1.1/DTD/svg11.dtd">
<!-- Created with matplotlib (https://matplotlib.org/) -->
<svg height="345.6pt" version="1.1" viewBox="0 0 460.8 345.6" width="460.8pt" xmlns="http://www.w3.org/2000/svg" xmlns:xlink="http://www.w3.org/1999/xlink">
 <defs>
  <style type="text/css">
*{stroke-linecap:butt;stroke-linejoin:round;}
  </style>
 </defs>
 <g id="figure_1">
  <g id="patch_1">
   <path d="M 0 345.6 
L 460.8 345.6 
L 460.8 0 
L 0 0 
z
" style="fill:#ffffff;"/>
  </g>
  <g id="axes_1">
   <g id="patch_2">
    <path d="M 57.6 298.944 
L 338.688 298.944 
L 338.688 27.648 
L 57.6 27.648 
z
" style="fill:#ffffff;"/>
   </g>
   <g id="line2d_1">
    <path d="M 50.52898 298.944 
L 50.52898 293.677139 
L 69.687988 293.677139 
L 69.687988 288.410278 
L 78.59642 288.410278 
L 78.59642 283.143418 
L 90.684409 283.143418 
L 90.684409 277.876557 
L 98.880934 277.876557 
L 98.880934 272.609696 
L 101.877879 272.609696 
L 101.877879 267.342835 
L 102.772397 267.342835 
L 102.772397 262.075974 
L 138.981779 262.075974 
L 138.981779 256.809114 
L 139.572998 256.809114 
L 139.572998 251.542253 
L 155.382516 251.542253 
L 155.382516 246.275392 
L 155.488919 246.275392 
L 155.488919 241.008531 
L 155.573575 241.008531 
L 155.573575 225.207949 
L 155.657823 225.207949 
L 155.657823 209.407366 
L 155.699795 209.407366 
L 155.699795 204.140506 
L 155.762564 204.140506 
L 155.762564 188.339923 
L 155.804285 188.339923 
L 155.804285 177.806202 
L 155.86668 177.806202 
L 155.86668 172.539341 
L 155.908152 172.539341 
L 155.908152 156.738758 
L 155.928852 156.738758 
L 155.928852 151.471897 
L 155.949527 151.471897 
L 155.949527 146.205037 
L 155.970177 146.205037 
L 155.970177 130.404454 
L 155.990803 130.404454 
L 155.990803 119.870733 
L 156.011405 119.870733 
L 156.011405 93.536429 
L 156.031982 93.536429 
L 156.031982 72.468985 
L 156.073064 72.468985 
L 156.073064 67.202125 
L 156.114049 67.202125 
L 156.114049 61.935264 
L 156.134506 61.935264 
L 156.134506 35.60096 
L 156.175347 35.60096 
L 156.175347 30.334099 
L 338.688 30.334099 
" style="fill:none;stroke:#f5deb3;stroke-linecap:square;stroke-width:4;"/>
   </g>
   <g id="line2d_2">
    <defs>
     <path d="M -0 7.778175 
L 7.778175 0 
L 0 -7.778175 
L -7.778175 -0 
z
" id="m2505224e7c" style="stroke:#f5deb3;stroke-linejoin:miter;stroke-width:1.5;"/>
    </defs>
    <g>
     <use style="fill:#f5deb3;stroke:#f5deb3;stroke-linejoin:miter;stroke-width:1.5;" x="155.657823" xlink:href="#m2505224e7c" y="209.407366"/>
     <use style="fill:#f5deb3;stroke:#f5deb3;stroke-linejoin:miter;stroke-width:1.5;" x="155.990803" xlink:href="#m2505224e7c" y="130.404454"/>
     <use style="fill:#f5deb3;stroke:#f5deb3;stroke-linejoin:miter;stroke-width:1.5;" x="156.175347" xlink:href="#m2505224e7c" y="35.60096"/>
     <use style="fill:#f5deb3;stroke:#f5deb3;stroke-linejoin:miter;stroke-width:1.5;" x="156.175347" xlink:href="#m2505224e7c" y="30.334099"/>
     <use style="fill:#f5deb3;stroke:#f5deb3;stroke-linejoin:miter;stroke-width:1.5;" x="156.175347" xlink:href="#m2505224e7c" y="30.334099"/>
     <use style="fill:#f5deb3;stroke:#f5deb3;stroke-linejoin:miter;stroke-width:1.5;" x="338.688" xlink:href="#m2505224e7c" y="30.334099"/>
    </g>
   </g>
   <g id="line2d_3">
    <path style="fill:none;stroke:#f5deb3;stroke-linecap:square;stroke-width:4;"/>
    <g/>
   </g>
   <g id="line2d_4">
    <path d="M 338.688 30.334099 
L 369.60768 35.706297 
" style="fill:none;stroke:#f5deb3;stroke-linecap:square;stroke-width:4;"/>
    <g>
     <use style="fill:#f5deb3;stroke:#f5deb3;stroke-linejoin:miter;stroke-width:1.5;" x="338.688" xlink:href="#m2505224e7c" y="30.334099"/>
     <use style="fill:#f5deb3;stroke:#f5deb3;stroke-linejoin:miter;stroke-width:1.5;" x="369.60768" xlink:href="#m2505224e7c" y="35.706297"/>
    </g>
   </g>
   <g id="matplotlib.axis_1">
    <g id="xtick_1">
     <g id="line2d_5">
      <path clip-path="url(#p572369dfae)" d="M 57.6 298.944 
L 57.6 27.648 
" style="fill:none;stroke:#b0b0b0;stroke-linecap:square;stroke-width:0.8;"/>
     </g>
     <g id="line2d_6">
      <defs>
       <path d="M 0 0 
L 0 3.5 
" id="m6464c88803" style="stroke:#000000;stroke-width:0.8;"/>
      </defs>
      <g>
       <use style="stroke:#000000;stroke-width:0.8;" x="57.6" xlink:href="#m6464c88803" y="298.944"/>
      </g>
     </g>
     <g id="text_1">
      <!-- 0 -->
      <defs>
       <path d="M 31.78125 66.40625 
Q 24.171875 66.40625 20.328125 58.90625 
Q 16.5 51.421875 16.5 36.375 
Q 16.5 21.390625 20.328125 13.890625 
Q 24.171875 6.390625 31.78125 6.390625 
Q 39.453125 6.390625 43.28125 13.890625 
Q 47.125 21.390625 47.125 36.375 
Q 47.125 51.421875 43.28125 58.90625 
Q 39.453125 66.40625 31.78125 66.40625 
z
M 31.78125 74.21875 
Q 44.046875 74.21875 50.515625 64.515625 
Q 56.984375 54.828125 56.984375 36.375 
Q 56.984375 17.96875 50.515625 8.265625 
Q 44.046875 -1.421875 31.78125 -1.421875 
Q 19.53125 -1.421875 13.0625 8.265625 
Q 6.59375 17.96875 6.59375 36.375 
Q 6.59375 54.828125 13.0625 64.515625 
Q 19.53125 74.21875 31.78125 74.21875 
z
" id="DejaVuSans-48"/>
      </defs>
      <g transform="translate(51.2375 321.140875)scale(0.2 -0.2)">
       <use xlink:href="#DejaVuSans-48"/>
      </g>
     </g>
    </g>
    <g id="xtick_2">
     <g id="line2d_7">
      <path clip-path="url(#p572369dfae)" d="M 137.910857 298.944 
L 137.910857 27.648 
" style="fill:none;stroke:#b0b0b0;stroke-linecap:square;stroke-width:0.8;"/>
     </g>
     <g id="line2d_8">
      <g>
       <use style="stroke:#000000;stroke-width:0.8;" x="137.910857" xlink:href="#m6464c88803" y="298.944"/>
      </g>
     </g>
     <g id="text_2">
      <!-- 2 -->
      <defs>
       <path d="M 19.1875 8.296875 
L 53.609375 8.296875 
L 53.609375 0 
L 7.328125 0 
L 7.328125 8.296875 
Q 12.9375 14.109375 22.625 23.890625 
Q 32.328125 33.6875 34.8125 36.53125 
Q 39.546875 41.84375 41.421875 45.53125 
Q 43.3125 49.21875 43.3125 52.78125 
Q 43.3125 58.59375 39.234375 62.25 
Q 35.15625 65.921875 28.609375 65.921875 
Q 23.96875 65.921875 18.8125 64.3125 
Q 13.671875 62.703125 7.8125 59.421875 
L 7.8125 69.390625 
Q 13.765625 71.78125 18.9375 73 
Q 24.125 74.21875 28.421875 74.21875 
Q 39.75 74.21875 46.484375 68.546875 
Q 53.21875 62.890625 53.21875 53.421875 
Q 53.21875 48.921875 51.53125 44.890625 
Q 49.859375 40.875 45.40625 35.40625 
Q 44.1875 33.984375 37.640625 27.21875 
Q 31.109375 20.453125 19.1875 8.296875 
z
" id="DejaVuSans-50"/>
      </defs>
      <g transform="translate(131.548357 321.140875)scale(0.2 -0.2)">
       <use xlink:href="#DejaVuSans-50"/>
      </g>
     </g>
    </g>
    <g id="xtick_3">
     <g id="line2d_9">
      <path clip-path="url(#p572369dfae)" d="M 218.221714 298.944 
L 218.221714 27.648 
" style="fill:none;stroke:#b0b0b0;stroke-linecap:square;stroke-width:0.8;"/>
     </g>
     <g id="line2d_10">
      <g>
       <use style="stroke:#000000;stroke-width:0.8;" x="218.221714" xlink:href="#m6464c88803" y="298.944"/>
      </g>
     </g>
     <g id="text_3">
      <!-- 4 -->
      <defs>
       <path d="M 37.796875 64.3125 
L 12.890625 25.390625 
L 37.796875 25.390625 
z
M 35.203125 72.90625 
L 47.609375 72.90625 
L 47.609375 25.390625 
L 58.015625 25.390625 
L 58.015625 17.1875 
L 47.609375 17.1875 
L 47.609375 0 
L 37.796875 0 
L 37.796875 17.1875 
L 4.890625 17.1875 
L 4.890625 26.703125 
z
" id="DejaVuSans-52"/>
      </defs>
      <g transform="translate(211.859214 321.140875)scale(0.2 -0.2)">
       <use xlink:href="#DejaVuSans-52"/>
      </g>
     </g>
    </g>
    <g id="xtick_4">
     <g id="line2d_11">
      <path clip-path="url(#p572369dfae)" d="M 298.532571 298.944 
L 298.532571 27.648 
" style="fill:none;stroke:#b0b0b0;stroke-linecap:square;stroke-width:0.8;"/>
     </g>
     <g id="line2d_12">
      <g>
       <use style="stroke:#000000;stroke-width:0.8;" x="298.532571" xlink:href="#m6464c88803" y="298.944"/>
      </g>
     </g>
     <g id="text_4">
      <!-- 6 -->
      <defs>
       <path d="M 33.015625 40.375 
Q 26.375 40.375 22.484375 35.828125 
Q 18.609375 31.296875 18.609375 23.390625 
Q 18.609375 15.53125 22.484375 10.953125 
Q 26.375 6.390625 33.015625 6.390625 
Q 39.65625 6.390625 43.53125 10.953125 
Q 47.40625 15.53125 47.40625 23.390625 
Q 47.40625 31.296875 43.53125 35.828125 
Q 39.65625 40.375 33.015625 40.375 
z
M 52.59375 71.296875 
L 52.59375 62.3125 
Q 48.875 64.0625 45.09375 64.984375 
Q 41.3125 65.921875 37.59375 65.921875 
Q 27.828125 65.921875 22.671875 59.328125 
Q 17.53125 52.734375 16.796875 39.40625 
Q 19.671875 43.65625 24.015625 45.921875 
Q 28.375 48.1875 33.59375 48.1875 
Q 44.578125 48.1875 50.953125 41.515625 
Q 57.328125 34.859375 57.328125 23.390625 
Q 57.328125 12.15625 50.6875 5.359375 
Q 44.046875 -1.421875 33.015625 -1.421875 
Q 20.359375 -1.421875 13.671875 8.265625 
Q 6.984375 17.96875 6.984375 36.375 
Q 6.984375 53.65625 15.1875 63.9375 
Q 23.390625 74.21875 37.203125 74.21875 
Q 40.921875 74.21875 44.703125 73.484375 
Q 48.484375 72.75 52.59375 71.296875 
z
" id="DejaVuSans-54"/>
      </defs>
      <g transform="translate(292.170071 321.140875)scale(0.2 -0.2)">
       <use xlink:href="#DejaVuSans-54"/>
      </g>
     </g>
    </g>
    <g id="xtick_5">
     <g id="line2d_13">
      <path clip-path="url(#p572369dfae)" d="M 97.755429 298.944 
L 97.755429 27.648 
" style="fill:none;stroke:#b0b0b0;stroke-linecap:square;stroke-width:0.8;"/>
     </g>
     <g id="line2d_14">
      <defs>
       <path d="M 0 0 
L 0 2 
" id="m57af49b79f" style="stroke:#000000;stroke-width:0.6;"/>
      </defs>
      <g>
       <use style="stroke:#000000;stroke-width:0.6;" x="97.755429" xlink:href="#m57af49b79f" y="298.944"/>
      </g>
     </g>
    </g>
    <g id="xtick_6">
     <g id="line2d_15">
      <path clip-path="url(#p572369dfae)" d="M 178.066286 298.944 
L 178.066286 27.648 
" style="fill:none;stroke:#b0b0b0;stroke-linecap:square;stroke-width:0.8;"/>
     </g>
     <g id="line2d_16">
      <g>
       <use style="stroke:#000000;stroke-width:0.6;" x="178.066286" xlink:href="#m57af49b79f" y="298.944"/>
      </g>
     </g>
    </g>
    <g id="xtick_7">
     <g id="line2d_17">
      <path clip-path="url(#p572369dfae)" d="M 258.377143 298.944 
L 258.377143 27.648 
" style="fill:none;stroke:#b0b0b0;stroke-linecap:square;stroke-width:0.8;"/>
     </g>
     <g id="line2d_18">
      <g>
       <use style="stroke:#000000;stroke-width:0.6;" x="258.377143" xlink:href="#m57af49b79f" y="298.944"/>
      </g>
     </g>
    </g>
    <g id="xtick_8">
     <g id="line2d_19">
      <path clip-path="url(#p572369dfae)" d="M 338.688 298.944 
L 338.688 27.648 
" style="fill:none;stroke:#b0b0b0;stroke-linecap:square;stroke-width:0.8;"/>
     </g>
     <g id="line2d_20">
      <g>
       <use style="stroke:#000000;stroke-width:0.6;" x="338.688" xlink:href="#m57af49b79f" y="298.944"/>
      </g>
     </g>
    </g>
    <g id="text_5">
     <!-- log10(# f-evals / dimension) -->
     <defs>
      <path d="M 9.421875 75.984375 
L 18.40625 75.984375 
L 18.40625 0 
L 9.421875 0 
z
" id="DejaVuSans-108"/>
      <path d="M 30.609375 48.390625 
Q 23.390625 48.390625 19.1875 42.75 
Q 14.984375 37.109375 14.984375 27.296875 
Q 14.984375 17.484375 19.15625 11.84375 
Q 23.34375 6.203125 30.609375 6.203125 
Q 37.796875 6.203125 41.984375 11.859375 
Q 46.1875 17.53125 46.1875 27.296875 
Q 46.1875 37.015625 41.984375 42.703125 
Q 37.796875 48.390625 30.609375 48.390625 
z
M 30.609375 56 
Q 42.328125 56 49.015625 48.375 
Q 55.71875 40.765625 55.71875 27.296875 
Q 55.71875 13.875 49.015625 6.21875 
Q 42.328125 -1.421875 30.609375 -1.421875 
Q 18.84375 -1.421875 12.171875 6.21875 
Q 5.515625 13.875 5.515625 27.296875 
Q 5.515625 40.765625 12.171875 48.375 
Q 18.84375 56 30.609375 56 
z
" id="DejaVuSans-111"/>
      <path d="M 45.40625 27.984375 
Q 45.40625 37.75 41.375 43.109375 
Q 37.359375 48.484375 30.078125 48.484375 
Q 22.859375 48.484375 18.828125 43.109375 
Q 14.796875 37.75 14.796875 27.984375 
Q 14.796875 18.265625 18.828125 12.890625 
Q 22.859375 7.515625 30.078125 7.515625 
Q 37.359375 7.515625 41.375 12.890625 
Q 45.40625 18.265625 45.40625 27.984375 
z
M 54.390625 6.78125 
Q 54.390625 -7.171875 48.1875 -13.984375 
Q 42 -20.796875 29.203125 -20.796875 
Q 24.46875 -20.796875 20.265625 -20.09375 
Q 16.0625 -19.390625 12.109375 -17.921875 
L 12.109375 -9.1875 
Q 16.0625 -11.328125 19.921875 -12.34375 
Q 23.78125 -13.375 27.78125 -13.375 
Q 36.625 -13.375 41.015625 -8.765625 
Q 45.40625 -4.15625 45.40625 5.171875 
L 45.40625 9.625 
Q 42.625 4.78125 38.28125 2.390625 
Q 33.9375 0 27.875 0 
Q 17.828125 0 11.671875 7.65625 
Q 5.515625 15.328125 5.515625 27.984375 
Q 5.515625 40.671875 11.671875 48.328125 
Q 17.828125 56 27.875 56 
Q 33.9375 56 38.28125 53.609375 
Q 42.625 51.21875 45.40625 46.390625 
L 45.40625 54.6875 
L 54.390625 54.6875 
z
" id="DejaVuSans-103"/>
      <path d="M 12.40625 8.296875 
L 28.515625 8.296875 
L 28.515625 63.921875 
L 10.984375 60.40625 
L 10.984375 69.390625 
L 28.421875 72.90625 
L 38.28125 72.90625 
L 38.28125 8.296875 
L 54.390625 8.296875 
L 54.390625 0 
L 12.40625 0 
z
" id="DejaVuSans-49"/>
      <path d="M 31 75.875 
Q 24.46875 64.65625 21.28125 53.65625 
Q 18.109375 42.671875 18.109375 31.390625 
Q 18.109375 20.125 21.3125 9.0625 
Q 24.515625 -2 31 -13.1875 
L 23.1875 -13.1875 
Q 15.875 -1.703125 12.234375 9.375 
Q 8.59375 20.453125 8.59375 31.390625 
Q 8.59375 42.28125 12.203125 53.3125 
Q 15.828125 64.359375 23.1875 75.875 
z
" id="DejaVuSans-40"/>
      <path d="M 51.125 44 
L 36.921875 44 
L 32.8125 27.6875 
L 47.125 27.6875 
z
M 43.796875 71.78125 
L 38.71875 51.515625 
L 52.984375 51.515625 
L 58.109375 71.78125 
L 65.921875 71.78125 
L 60.890625 51.515625 
L 76.125 51.515625 
L 76.125 44 
L 58.984375 44 
L 54.984375 27.6875 
L 70.515625 27.6875 
L 70.515625 20.21875 
L 53.078125 20.21875 
L 48 0 
L 40.1875 0 
L 45.21875 20.21875 
L 30.90625 20.21875 
L 25.875 0 
L 18.015625 0 
L 23.09375 20.21875 
L 7.71875 20.21875 
L 7.71875 27.6875 
L 24.90625 27.6875 
L 29 44 
L 13.28125 44 
L 13.28125 51.515625 
L 30.90625 51.515625 
L 35.890625 71.78125 
z
" id="DejaVuSans-35"/>
      <path id="DejaVuSans-32"/>
      <path d="M 37.109375 75.984375 
L 37.109375 68.5 
L 28.515625 68.5 
Q 23.6875 68.5 21.796875 66.546875 
Q 19.921875 64.59375 19.921875 59.515625 
L 19.921875 54.6875 
L 34.71875 54.6875 
L 34.71875 47.703125 
L 19.921875 47.703125 
L 19.921875 0 
L 10.890625 0 
L 10.890625 47.703125 
L 2.296875 47.703125 
L 2.296875 54.6875 
L 10.890625 54.6875 
L 10.890625 58.5 
Q 10.890625 67.625 15.140625 71.796875 
Q 19.390625 75.984375 28.609375 75.984375 
z
" id="DejaVuSans-102"/>
      <path d="M 4.890625 31.390625 
L 31.203125 31.390625 
L 31.203125 23.390625 
L 4.890625 23.390625 
z
" id="DejaVuSans-45"/>
      <path d="M 56.203125 29.59375 
L 56.203125 25.203125 
L 14.890625 25.203125 
Q 15.484375 15.921875 20.484375 11.0625 
Q 25.484375 6.203125 34.421875 6.203125 
Q 39.59375 6.203125 44.453125 7.46875 
Q 49.3125 8.734375 54.109375 11.28125 
L 54.109375 2.78125 
Q 49.265625 0.734375 44.1875 -0.34375 
Q 39.109375 -1.421875 33.890625 -1.421875 
Q 20.796875 -1.421875 13.15625 6.1875 
Q 5.515625 13.8125 5.515625 26.8125 
Q 5.515625 40.234375 12.765625 48.109375 
Q 20.015625 56 32.328125 56 
Q 43.359375 56 49.78125 48.890625 
Q 56.203125 41.796875 56.203125 29.59375 
z
M 47.21875 32.234375 
Q 47.125 39.59375 43.09375 43.984375 
Q 39.0625 48.390625 32.421875 48.390625 
Q 24.90625 48.390625 20.390625 44.140625 
Q 15.875 39.890625 15.1875 32.171875 
z
" id="DejaVuSans-101"/>
      <path d="M 2.984375 54.6875 
L 12.5 54.6875 
L 29.59375 8.796875 
L 46.6875 54.6875 
L 56.203125 54.6875 
L 35.6875 0 
L 23.484375 0 
z
" id="DejaVuSans-118"/>
      <path d="M 34.28125 27.484375 
Q 23.390625 27.484375 19.1875 25 
Q 14.984375 22.515625 14.984375 16.5 
Q 14.984375 11.71875 18.140625 8.90625 
Q 21.296875 6.109375 26.703125 6.109375 
Q 34.1875 6.109375 38.703125 11.40625 
Q 43.21875 16.703125 43.21875 25.484375 
L 43.21875 27.484375 
z
M 52.203125 31.203125 
L 52.203125 0 
L 43.21875 0 
L 43.21875 8.296875 
Q 40.140625 3.328125 35.546875 0.953125 
Q 30.953125 -1.421875 24.3125 -1.421875 
Q 15.921875 -1.421875 10.953125 3.296875 
Q 6 8.015625 6 15.921875 
Q 6 25.140625 12.171875 29.828125 
Q 18.359375 34.515625 30.609375 34.515625 
L 43.21875 34.515625 
L 43.21875 35.40625 
Q 43.21875 41.609375 39.140625 45 
Q 35.0625 48.390625 27.6875 48.390625 
Q 23 48.390625 18.546875 47.265625 
Q 14.109375 46.140625 10.015625 43.890625 
L 10.015625 52.203125 
Q 14.9375 54.109375 19.578125 55.046875 
Q 24.21875 56 28.609375 56 
Q 40.484375 56 46.34375 49.84375 
Q 52.203125 43.703125 52.203125 31.203125 
z
" id="DejaVuSans-97"/>
      <path d="M 44.28125 53.078125 
L 44.28125 44.578125 
Q 40.484375 46.53125 36.375 47.5 
Q 32.28125 48.484375 27.875 48.484375 
Q 21.1875 48.484375 17.84375 46.4375 
Q 14.5 44.390625 14.5 40.28125 
Q 14.5 37.15625 16.890625 35.375 
Q 19.28125 33.59375 26.515625 31.984375 
L 29.59375 31.296875 
Q 39.15625 29.25 43.1875 25.515625 
Q 47.21875 21.78125 47.21875 15.09375 
Q 47.21875 7.46875 41.1875 3.015625 
Q 35.15625 -1.421875 24.609375 -1.421875 
Q 20.21875 -1.421875 15.453125 -0.5625 
Q 10.6875 0.296875 5.421875 2 
L 5.421875 11.28125 
Q 10.40625 8.6875 15.234375 7.390625 
Q 20.0625 6.109375 24.8125 6.109375 
Q 31.15625 6.109375 34.5625 8.28125 
Q 37.984375 10.453125 37.984375 14.40625 
Q 37.984375 18.0625 35.515625 20.015625 
Q 33.0625 21.96875 24.703125 23.78125 
L 21.578125 24.515625 
Q 13.234375 26.265625 9.515625 29.90625 
Q 5.8125 33.546875 5.8125 39.890625 
Q 5.8125 47.609375 11.28125 51.796875 
Q 16.75 56 26.8125 56 
Q 31.78125 56 36.171875 55.265625 
Q 40.578125 54.546875 44.28125 53.078125 
z
" id="DejaVuSans-115"/>
      <path d="M 25.390625 72.90625 
L 33.6875 72.90625 
L 8.296875 -9.28125 
L 0 -9.28125 
z
" id="DejaVuSans-47"/>
      <path d="M 45.40625 46.390625 
L 45.40625 75.984375 
L 54.390625 75.984375 
L 54.390625 0 
L 45.40625 0 
L 45.40625 8.203125 
Q 42.578125 3.328125 38.25 0.953125 
Q 33.9375 -1.421875 27.875 -1.421875 
Q 17.96875 -1.421875 11.734375 6.484375 
Q 5.515625 14.40625 5.515625 27.296875 
Q 5.515625 40.1875 11.734375 48.09375 
Q 17.96875 56 27.875 56 
Q 33.9375 56 38.25 53.625 
Q 42.578125 51.265625 45.40625 46.390625 
z
M 14.796875 27.296875 
Q 14.796875 17.390625 18.875 11.75 
Q 22.953125 6.109375 30.078125 6.109375 
Q 37.203125 6.109375 41.296875 11.75 
Q 45.40625 17.390625 45.40625 27.296875 
Q 45.40625 37.203125 41.296875 42.84375 
Q 37.203125 48.484375 30.078125 48.484375 
Q 22.953125 48.484375 18.875 42.84375 
Q 14.796875 37.203125 14.796875 27.296875 
z
" id="DejaVuSans-100"/>
      <path d="M 9.421875 54.6875 
L 18.40625 54.6875 
L 18.40625 0 
L 9.421875 0 
z
M 9.421875 75.984375 
L 18.40625 75.984375 
L 18.40625 64.59375 
L 9.421875 64.59375 
z
" id="DejaVuSans-105"/>
      <path d="M 52 44.1875 
Q 55.375 50.25 60.0625 53.125 
Q 64.75 56 71.09375 56 
Q 79.640625 56 84.28125 50.015625 
Q 88.921875 44.046875 88.921875 33.015625 
L 88.921875 0 
L 79.890625 0 
L 79.890625 32.71875 
Q 79.890625 40.578125 77.09375 44.375 
Q 74.3125 48.1875 68.609375 48.1875 
Q 61.625 48.1875 57.5625 43.546875 
Q 53.515625 38.921875 53.515625 30.90625 
L 53.515625 0 
L 44.484375 0 
L 44.484375 32.71875 
Q 44.484375 40.625 41.703125 44.40625 
Q 38.921875 48.1875 33.109375 48.1875 
Q 26.21875 48.1875 22.15625 43.53125 
Q 18.109375 38.875 18.109375 30.90625 
L 18.109375 0 
L 9.078125 0 
L 9.078125 54.6875 
L 18.109375 54.6875 
L 18.109375 46.1875 
Q 21.1875 51.21875 25.484375 53.609375 
Q 29.78125 56 35.6875 56 
Q 41.65625 56 45.828125 52.96875 
Q 50 49.953125 52 44.1875 
z
" id="DejaVuSans-109"/>
      <path d="M 54.890625 33.015625 
L 54.890625 0 
L 45.90625 0 
L 45.90625 32.71875 
Q 45.90625 40.484375 42.875 44.328125 
Q 39.84375 48.1875 33.796875 48.1875 
Q 26.515625 48.1875 22.3125 43.546875 
Q 18.109375 38.921875 18.109375 30.90625 
L 18.109375 0 
L 9.078125 0 
L 9.078125 54.6875 
L 18.109375 54.6875 
L 18.109375 46.1875 
Q 21.34375 51.125 25.703125 53.5625 
Q 30.078125 56 35.796875 56 
Q 45.21875 56 50.046875 50.171875 
Q 54.890625 44.34375 54.890625 33.015625 
z
" id="DejaVuSans-110"/>
      <path d="M 8.015625 75.875 
L 15.828125 75.875 
Q 23.140625 64.359375 26.78125 53.3125 
Q 30.421875 42.28125 30.421875 31.390625 
Q 30.421875 20.453125 26.78125 9.375 
Q 23.140625 -1.703125 15.828125 -13.1875 
L 8.015625 -13.1875 
Q 14.5 -2 17.703125 9.0625 
Q 20.90625 20.125 20.90625 31.390625 
Q 20.90625 42.671875 17.703125 53.65625 
Q 14.5 64.65625 8.015625 75.875 
z
" id="DejaVuSans-41"/>
     </defs>
     <g transform="translate(77.764078 342.217594)scale(0.17 -0.17)">
      <use xlink:href="#DejaVuSans-108"/>
      <use x="27.783203" xlink:href="#DejaVuSans-111"/>
      <use x="88.964844" xlink:href="#DejaVuSans-103"/>
      <use x="152.441406" xlink:href="#DejaVuSans-49"/>
      <use x="216.064453" xlink:href="#DejaVuSans-48"/>
      <use x="279.6875" xlink:href="#DejaVuSans-40"/>
      <use x="318.701172" xlink:href="#DejaVuSans-35"/>
      <use x="402.490234" xlink:href="#DejaVuSans-32"/>
      <use x="434.277344" xlink:href="#DejaVuSans-102"/>
      <use x="463.982422" xlink:href="#DejaVuSans-45"/>
      <use x="500.066406" xlink:href="#DejaVuSans-101"/>
      <use x="561.589844" xlink:href="#DejaVuSans-118"/>
      <use x="620.769531" xlink:href="#DejaVuSans-97"/>
      <use x="682.048828" xlink:href="#DejaVuSans-108"/>
      <use x="709.832031" xlink:href="#DejaVuSans-115"/>
      <use x="761.931641" xlink:href="#DejaVuSans-32"/>
      <use x="793.71875" xlink:href="#DejaVuSans-47"/>
      <use x="827.410156" xlink:href="#DejaVuSans-32"/>
      <use x="859.197266" xlink:href="#DejaVuSans-100"/>
      <use x="922.673828" xlink:href="#DejaVuSans-105"/>
      <use x="950.457031" xlink:href="#DejaVuSans-109"/>
      <use x="1047.869141" xlink:href="#DejaVuSans-101"/>
      <use x="1109.392578" xlink:href="#DejaVuSans-110"/>
      <use x="1172.771484" xlink:href="#DejaVuSans-115"/>
      <use x="1224.871094" xlink:href="#DejaVuSans-105"/>
      <use x="1252.654297" xlink:href="#DejaVuSans-111"/>
      <use x="1313.835938" xlink:href="#DejaVuSans-110"/>
      <use x="1377.214844" xlink:href="#DejaVuSans-41"/>
     </g>
    </g>
   </g>
   <g id="matplotlib.axis_2">
    <g id="ytick_1">
     <g id="line2d_21">
      <path clip-path="url(#p572369dfae)" d="M 57.6 298.944 
L 338.688 298.944 
" style="fill:none;stroke:#b0b0b0;stroke-linecap:square;stroke-width:0.8;"/>
     </g>
     <g id="line2d_22">
      <defs>
       <path d="M 0 0 
L -3.5 0 
" id="m5c065a7c96" style="stroke:#000000;stroke-width:0.8;"/>
      </defs>
      <g>
       <use style="stroke:#000000;stroke-width:0.8;" x="57.6" xlink:href="#m5c065a7c96" y="298.944"/>
      </g>
     </g>
     <g id="text_6">
      <!-- 0.0 -->
      <defs>
       <path d="M 10.6875 12.40625 
L 21 12.40625 
L 21 0 
L 10.6875 0 
z
" id="DejaVuSans-46"/>
      </defs>
      <g transform="translate(25.155 305.02275)scale(0.16 -0.16)">
       <use xlink:href="#DejaVuSans-48"/>
       <use x="63.623047" xlink:href="#DejaVuSans-46"/>
       <use x="95.410156" xlink:href="#DejaVuSans-48"/>
      </g>
     </g>
    </g>
    <g id="ytick_2">
     <g id="line2d_23">
      <path clip-path="url(#p572369dfae)" d="M 57.6 245.22202 
L 338.688 245.22202 
" style="fill:none;stroke:#b0b0b0;stroke-linecap:square;stroke-width:0.8;"/>
     </g>
     <g id="line2d_24">
      <g>
       <use style="stroke:#000000;stroke-width:0.8;" x="57.6" xlink:href="#m5c065a7c96" y="245.22202"/>
      </g>
     </g>
     <g id="text_7">
      <!-- 0.2 -->
      <g transform="translate(25.155 251.30077)scale(0.16 -0.16)">
       <use xlink:href="#DejaVuSans-48"/>
       <use x="63.623047" xlink:href="#DejaVuSans-46"/>
       <use x="95.410156" xlink:href="#DejaVuSans-50"/>
      </g>
     </g>
    </g>
    <g id="ytick_3">
     <g id="line2d_25">
      <path clip-path="url(#p572369dfae)" d="M 57.6 191.50004 
L 338.688 191.50004 
" style="fill:none;stroke:#b0b0b0;stroke-linecap:square;stroke-width:0.8;"/>
     </g>
     <g id="line2d_26">
      <g>
       <use style="stroke:#000000;stroke-width:0.8;" x="57.6" xlink:href="#m5c065a7c96" y="191.50004"/>
      </g>
     </g>
     <g id="text_8">
      <!-- 0.4 -->
      <g transform="translate(25.155 197.57879)scale(0.16 -0.16)">
       <use xlink:href="#DejaVuSans-48"/>
       <use x="63.623047" xlink:href="#DejaVuSans-46"/>
       <use x="95.410156" xlink:href="#DejaVuSans-52"/>
      </g>
     </g>
    </g>
    <g id="ytick_4">
     <g id="line2d_27">
      <path clip-path="url(#p572369dfae)" d="M 57.6 137.778059 
L 338.688 137.778059 
" style="fill:none;stroke:#b0b0b0;stroke-linecap:square;stroke-width:0.8;"/>
     </g>
     <g id="line2d_28">
      <g>
       <use style="stroke:#000000;stroke-width:0.8;" x="57.6" xlink:href="#m5c065a7c96" y="137.778059"/>
      </g>
     </g>
     <g id="text_9">
      <!-- 0.6 -->
      <g transform="translate(25.155 143.856809)scale(0.16 -0.16)">
       <use xlink:href="#DejaVuSans-48"/>
       <use x="63.623047" xlink:href="#DejaVuSans-46"/>
       <use x="95.410156" xlink:href="#DejaVuSans-54"/>
      </g>
     </g>
    </g>
    <g id="ytick_5">
     <g id="line2d_29">
      <path clip-path="url(#p572369dfae)" d="M 57.6 84.056079 
L 338.688 84.056079 
" style="fill:none;stroke:#b0b0b0;stroke-linecap:square;stroke-width:0.8;"/>
     </g>
     <g id="line2d_30">
      <g>
       <use style="stroke:#000000;stroke-width:0.8;" x="57.6" xlink:href="#m5c065a7c96" y="84.056079"/>
      </g>
     </g>
     <g id="text_10">
      <!-- 0.8 -->
      <defs>
       <path d="M 31.78125 34.625 
Q 24.75 34.625 20.71875 30.859375 
Q 16.703125 27.09375 16.703125 20.515625 
Q 16.703125 13.921875 20.71875 10.15625 
Q 24.75 6.390625 31.78125 6.390625 
Q 38.8125 6.390625 42.859375 10.171875 
Q 46.921875 13.96875 46.921875 20.515625 
Q 46.921875 27.09375 42.890625 30.859375 
Q 38.875 34.625 31.78125 34.625 
z
M 21.921875 38.8125 
Q 15.578125 40.375 12.03125 44.71875 
Q 8.5 49.078125 8.5 55.328125 
Q 8.5 64.0625 14.71875 69.140625 
Q 20.953125 74.21875 31.78125 74.21875 
Q 42.671875 74.21875 48.875 69.140625 
Q 55.078125 64.0625 55.078125 55.328125 
Q 55.078125 49.078125 51.53125 44.71875 
Q 48 40.375 41.703125 38.8125 
Q 48.828125 37.15625 52.796875 32.3125 
Q 56.78125 27.484375 56.78125 20.515625 
Q 56.78125 9.90625 50.3125 4.234375 
Q 43.84375 -1.421875 31.78125 -1.421875 
Q 19.734375 -1.421875 13.25 4.234375 
Q 6.78125 9.90625 6.78125 20.515625 
Q 6.78125 27.484375 10.78125 32.3125 
Q 14.796875 37.15625 21.921875 38.8125 
z
M 18.3125 54.390625 
Q 18.3125 48.734375 21.84375 45.5625 
Q 25.390625 42.390625 31.78125 42.390625 
Q 38.140625 42.390625 41.71875 45.5625 
Q 45.3125 48.734375 45.3125 54.390625 
Q 45.3125 60.0625 41.71875 63.234375 
Q 38.140625 66.40625 31.78125 66.40625 
Q 25.390625 66.40625 21.84375 63.234375 
Q 18.3125 60.0625 18.3125 54.390625 
z
" id="DejaVuSans-56"/>
      </defs>
      <g transform="translate(25.155 90.134829)scale(0.16 -0.16)">
       <use xlink:href="#DejaVuSans-48"/>
       <use x="63.623047" xlink:href="#DejaVuSans-46"/>
       <use x="95.410156" xlink:href="#DejaVuSans-56"/>
      </g>
     </g>
    </g>
    <g id="ytick_6">
     <g id="line2d_31">
      <path clip-path="url(#p572369dfae)" d="M 57.6 30.334099 
L 338.688 30.334099 
" style="fill:none;stroke:#b0b0b0;stroke-linecap:square;stroke-width:0.8;"/>
     </g>
     <g id="line2d_32">
      <g>
       <use style="stroke:#000000;stroke-width:0.8;" x="57.6" xlink:href="#m5c065a7c96" y="30.334099"/>
      </g>
     </g>
     <g id="text_11">
      <!-- 1.0 -->
      <g transform="translate(25.155 36.412849)scale(0.16 -0.16)">
       <use xlink:href="#DejaVuSans-49"/>
       <use x="63.623047" xlink:href="#DejaVuSans-46"/>
       <use x="95.410156" xlink:href="#DejaVuSans-48"/>
      </g>
     </g>
    </g>
    <g id="text_12">
     <!-- Fraction of function,target pairs -->
     <defs>
      <path d="M 9.8125 72.90625 
L 51.703125 72.90625 
L 51.703125 64.59375 
L 19.671875 64.59375 
L 19.671875 43.109375 
L 48.578125 43.109375 
L 48.578125 34.8125 
L 19.671875 34.8125 
L 19.671875 0 
L 9.8125 0 
z
" id="DejaVuSans-70"/>
      <path d="M 41.109375 46.296875 
Q 39.59375 47.171875 37.8125 47.578125 
Q 36.03125 48 33.890625 48 
Q 26.265625 48 22.1875 43.046875 
Q 18.109375 38.09375 18.109375 28.8125 
L 18.109375 0 
L 9.078125 0 
L 9.078125 54.6875 
L 18.109375 54.6875 
L 18.109375 46.1875 
Q 20.953125 51.171875 25.484375 53.578125 
Q 30.03125 56 36.53125 56 
Q 37.453125 56 38.578125 55.875 
Q 39.703125 55.765625 41.0625 55.515625 
z
" id="DejaVuSans-114"/>
      <path d="M 48.78125 52.59375 
L 48.78125 44.1875 
Q 44.96875 46.296875 41.140625 47.34375 
Q 37.3125 48.390625 33.40625 48.390625 
Q 24.65625 48.390625 19.8125 42.84375 
Q 14.984375 37.3125 14.984375 27.296875 
Q 14.984375 17.28125 19.8125 11.734375 
Q 24.65625 6.203125 33.40625 6.203125 
Q 37.3125 6.203125 41.140625 7.25 
Q 44.96875 8.296875 48.78125 10.40625 
L 48.78125 2.09375 
Q 45.015625 0.34375 40.984375 -0.53125 
Q 36.96875 -1.421875 32.421875 -1.421875 
Q 20.0625 -1.421875 12.78125 6.34375 
Q 5.515625 14.109375 5.515625 27.296875 
Q 5.515625 40.671875 12.859375 48.328125 
Q 20.21875 56 33.015625 56 
Q 37.15625 56 41.109375 55.140625 
Q 45.0625 54.296875 48.78125 52.59375 
z
" id="DejaVuSans-99"/>
      <path d="M 18.3125 70.21875 
L 18.3125 54.6875 
L 36.8125 54.6875 
L 36.8125 47.703125 
L 18.3125 47.703125 
L 18.3125 18.015625 
Q 18.3125 11.328125 20.140625 9.421875 
Q 21.96875 7.515625 27.59375 7.515625 
L 36.8125 7.515625 
L 36.8125 0 
L 27.59375 0 
Q 17.1875 0 13.234375 3.875 
Q 9.28125 7.765625 9.28125 18.015625 
L 9.28125 47.703125 
L 2.6875 47.703125 
L 2.6875 54.6875 
L 9.28125 54.6875 
L 9.28125 70.21875 
z
" id="DejaVuSans-116"/>
      <path d="M 8.5 21.578125 
L 8.5 54.6875 
L 17.484375 54.6875 
L 17.484375 21.921875 
Q 17.484375 14.15625 20.5 10.265625 
Q 23.53125 6.390625 29.59375 6.390625 
Q 36.859375 6.390625 41.078125 11.03125 
Q 45.3125 15.671875 45.3125 23.6875 
L 45.3125 54.6875 
L 54.296875 54.6875 
L 54.296875 0 
L 45.3125 0 
L 45.3125 8.40625 
Q 42.046875 3.421875 37.71875 1 
Q 33.40625 -1.421875 27.6875 -1.421875 
Q 18.265625 -1.421875 13.375 4.4375 
Q 8.5 10.296875 8.5 21.578125 
z
M 31.109375 56 
z
" id="DejaVuSans-117"/>
      <path d="M 11.71875 12.40625 
L 22.015625 12.40625 
L 22.015625 4 
L 14.015625 -11.625 
L 7.71875 -11.625 
L 11.71875 4 
z
" id="DejaVuSans-44"/>
      <path d="M 18.109375 8.203125 
L 18.109375 -20.796875 
L 9.078125 -20.796875 
L 9.078125 54.6875 
L 18.109375 54.6875 
L 18.109375 46.390625 
Q 20.953125 51.265625 25.265625 53.625 
Q 29.59375 56 35.59375 56 
Q 45.5625 56 51.78125 48.09375 
Q 58.015625 40.1875 58.015625 27.296875 
Q 58.015625 14.40625 51.78125 6.484375 
Q 45.5625 -1.421875 35.59375 -1.421875 
Q 29.59375 -1.421875 25.265625 0.953125 
Q 20.953125 3.328125 18.109375 8.203125 
z
M 48.6875 27.296875 
Q 48.6875 37.203125 44.609375 42.84375 
Q 40.53125 48.484375 33.40625 48.484375 
Q 26.265625 48.484375 22.1875 42.84375 
Q 18.109375 37.203125 18.109375 27.296875 
Q 18.109375 17.390625 22.1875 11.75 
Q 26.265625 6.109375 33.40625 6.109375 
Q 40.53125 6.109375 44.609375 11.75 
Q 48.6875 17.390625 48.6875 27.296875 
z
" id="DejaVuSans-112"/>
     </defs>
     <g transform="translate(17.619531 297.681)rotate(-90)scale(0.17 -0.17)">
      <use xlink:href="#DejaVuSans-70"/>
      <use x="50.269531" xlink:href="#DejaVuSans-114"/>
      <use x="91.382812" xlink:href="#DejaVuSans-97"/>
      <use x="152.662109" xlink:href="#DejaVuSans-99"/>
      <use x="207.642578" xlink:href="#DejaVuSans-116"/>
      <use x="246.851562" xlink:href="#DejaVuSans-105"/>
      <use x="274.634766" xlink:href="#DejaVuSans-111"/>
      <use x="335.816406" xlink:href="#DejaVuSans-110"/>
      <use x="399.195312" xlink:href="#DejaVuSans-32"/>
      <use x="430.982422" xlink:href="#DejaVuSans-111"/>
      <use x="492.164062" xlink:href="#DejaVuSans-102"/>
      <use x="527.369141" xlink:href="#DejaVuSans-32"/>
      <use x="559.15625" xlink:href="#DejaVuSans-102"/>
      <use x="594.361328" xlink:href="#DejaVuSans-117"/>
      <use x="657.740234" xlink:href="#DejaVuSans-110"/>
      <use x="721.119141" xlink:href="#DejaVuSans-99"/>
      <use x="776.099609" xlink:href="#DejaVuSans-116"/>
      <use x="815.308594" xlink:href="#DejaVuSans-105"/>
      <use x="843.091797" xlink:href="#DejaVuSans-111"/>
      <use x="904.273438" xlink:href="#DejaVuSans-110"/>
      <use x="967.652344" xlink:href="#DejaVuSans-44"/>
      <use x="999.439453" xlink:href="#DejaVuSans-116"/>
      <use x="1038.648438" xlink:href="#DejaVuSans-97"/>
      <use x="1099.927734" xlink:href="#DejaVuSans-114"/>
      <use x="1139.291016" xlink:href="#DejaVuSans-103"/>
      <use x="1202.767578" xlink:href="#DejaVuSans-101"/>
      <use x="1264.291016" xlink:href="#DejaVuSans-116"/>
      <use x="1303.5" xlink:href="#DejaVuSans-32"/>
      <use x="1335.287109" xlink:href="#DejaVuSans-112"/>
      <use x="1398.763672" xlink:href="#DejaVuSans-97"/>
      <use x="1460.042969" xlink:href="#DejaVuSans-105"/>
      <use x="1487.826172" xlink:href="#DejaVuSans-114"/>
      <use x="1528.939453" xlink:href="#DejaVuSans-115"/>
     </g>
    </g>
   </g>
   <g id="line2d_33">
    <defs>
     <path d="M 0 1.5 
C 0.397805 1.5 0.77937 1.341951 1.06066 1.06066 
C 1.341951 0.77937 1.5 0.397805 1.5 0 
C 1.5 -0.397805 1.341951 -0.77937 1.06066 -1.06066 
C 0.77937 -1.341951 0.397805 -1.5 0 -1.5 
C -0.397805 -1.5 -0.77937 -1.341951 -1.06066 -1.06066 
C -1.341951 -0.77937 -1.5 -0.397805 -1.5 0 
C -1.5 0.397805 -1.341951 0.77937 -1.06066 1.06066 
C -0.77937 1.341951 -0.397805 1.5 0 1.5 
z
" id="m5791185782" style="stroke:#f5deb3;"/>
    </defs>
    <g>
     <use style="fill:#f5deb3;stroke:#f5deb3;" x="156.175347" xlink:href="#m5791185782" y="30.334099"/>
     <use style="fill:#f5deb3;stroke:#f5deb3;" x="156.175347" xlink:href="#m5791185782" y="30.334099"/>
    </g>
   </g>
   <g id="line2d_34">
    <defs>
     <path d="M 0 1.5 
C 0.397805 1.5 0.77937 1.341951 1.06066 1.06066 
C 1.341951 0.77937 1.5 0.397805 1.5 0 
C 1.5 -0.397805 1.341951 -0.77937 1.06066 -1.06066 
C 0.77937 -1.341951 0.397805 -1.5 0 -1.5 
C -0.397805 -1.5 -0.77937 -1.341951 -1.06066 -1.06066 
C -1.341951 -0.77937 -1.5 -0.397805 -1.5 0 
C -1.5 0.397805 -1.341951 0.77937 -1.06066 1.06066 
C -0.77937 1.341951 -0.397805 1.5 0 1.5 
z
" id="m8969397bf5" style="stroke:#000080;"/>
    </defs>
    <g>
     <use style="fill:#000080;stroke:#000080;" x="255.973618" xlink:href="#m8969397bf5" y="251.542253"/>
     <use style="fill:#000080;stroke:#000080;" x="255.973618" xlink:href="#m8969397bf5" y="251.542253"/>
    </g>
   </g>
   <g id="line2d_35">
    <path d="M 50.52898 298.944 
L 50.52898 297.890628 
L 57.6 297.890628 
L 57.6 295.783884 
L 62.616969 295.783884 
L 62.616969 293.150453 
L 66.508432 293.150453 
L 66.508432 291.043709 
L 74.704957 291.043709 
L 74.704957 289.463651 
L 76.759008 289.463651 
L 76.759008 288.410278 
L 78.59642 288.410278 
L 78.59642 287.356906 
L 80.258561 287.356906 
L 80.258561 286.83022 
L 83.171864 286.83022 
L 83.171864 285.776848 
L 84.464254 285.776848 
L 84.464254 285.250162 
L 85.66744 285.250162 
L 85.66744 284.723476 
L 91.535274 284.723476 
L 91.535274 283.670104 
L 96.552242 283.670104 
L 96.552242 283.143418 
L 98.880934 283.143418 
L 98.880934 282.616732 
L 102.772397 282.616732 
L 102.772397 282.090045 
L 105.951954 282.090045 
L 105.951954 281.563359 
L 112.026172 281.563359 
L 112.026172 280.509987 
L 117.107138 280.509987 
L 117.107138 279.983301 
L 121.189196 279.983301 
L 121.189196 279.456615 
L 122.219665 279.456615 
L 122.219665 278.929929 
L 128.209594 278.929929 
L 128.209594 278.403243 
L 131.185181 278.403243 
L 131.185181 277.876557 
L 133.57787 277.876557 
L 133.57787 277.349871 
L 137.735587 277.349871 
L 137.735587 276.823185 
L 140.39868 276.823185 
L 140.39868 276.296499 
L 144.470655 276.296499 
L 144.470655 275.769812 
L 145.888018 275.769812 
L 145.888018 275.243126 
L 145.961446 275.243126 
L 145.961446 274.71644 
L 146.216039 274.71644 
L 146.216039 274.189754 
L 147.603592 274.189754 
L 147.603592 273.136382 
L 151.60806 273.136382 
L 151.60806 272.609696 
L 153.371104 272.609696 
L 153.371104 272.08301 
L 153.936752 272.08301 
L 153.936752 271.556324 
L 159.89051 271.556324 
L 159.89051 271.029638 
L 164.47356 271.029638 
L 164.47356 269.976266 
L 167.114699 269.976266 
L 167.114699 268.396207 
L 168.140524 268.396207 
L 168.140524 267.342835 
L 171.459882 267.342835 
L 171.459882 266.816149 
L 175.9292 266.816149 
L 175.9292 266.289463 
L 177.755438 266.289463 
L 177.755438 265.762777 
L 191.214259 265.762777 
L 191.214259 264.182719 
L 191.819057 264.182719 
L 191.819057 263.656033 
L 192.073458 263.656033 
L 192.073458 263.129347 
L 195.055323 263.129347 
L 195.055323 262.60266 
L 201.310992 262.60266 
L 201.310992 262.075974 
L 201.797757 262.075974 
L 201.797757 261.549288 
L 206.986806 261.549288 
L 206.986806 261.022602 
L 207.664313 261.022602 
L 207.664313 260.495916 
L 212.311043 260.495916 
L 212.311043 259.442544 
L 212.571783 259.442544 
L 212.571783 258.915858 
L 215.976531 258.915858 
L 215.976531 257.3358 
L 216.801686 257.3358 
L 216.801686 256.809114 
L 219.003794 256.809114 
L 219.003794 256.282427 
L 223.828506 256.282427 
L 223.828506 255.755741 
L 230.705127 255.755741 
L 230.705127 255.229055 
L 230.79638 255.229055 
L 230.79638 254.702369 
L 232.070913 254.702369 
L 232.070913 254.175683 
L 236.663972 254.175683 
L 236.663972 253.648997 
L 241.097072 253.648997 
L 241.097072 252.595625 
L 250.07576 252.595625 
L 250.07576 252.068939 
L 255.973618 252.068939 
L 255.973618 251.542253 
L 338.688 251.542253 
" style="fill:none;stroke:#000080;stroke-linecap:square;stroke-width:1.5;"/>
   </g>
   <g id="line2d_36">
    <defs>
     <path d="M 0 6 
C 1.591219 6 3.117479 5.367802 4.242641 4.242641 
C 5.367802 3.117479 6 1.591219 6 0 
C 6 -1.591219 5.367802 -3.117479 4.242641 -4.242641 
C 3.117479 -5.367802 1.591219 -6 0 -6 
C -1.591219 -6 -3.117479 -5.367802 -4.242641 -4.242641 
C -5.367802 -3.117479 -6 -1.591219 -6 0 
C -6 1.591219 -5.367802 3.117479 -4.242641 4.242641 
C -3.117479 5.367802 -1.591219 6 0 6 
z
" id="m2b89483ac5" style="stroke:#000080;stroke-width:1.5;"/>
    </defs>
    <g>
     <use style="fill-opacity:0;stroke:#000080;stroke-width:1.5;" x="105.951954" xlink:href="#m2b89483ac5" y="282.090045"/>
     <use style="fill-opacity:0;stroke:#000080;stroke-width:1.5;" x="153.936752" xlink:href="#m2b89483ac5" y="272.08301"/>
     <use style="fill-opacity:0;stroke:#000080;stroke-width:1.5;" x="232.070913" xlink:href="#m2b89483ac5" y="254.175683"/>
     <use style="fill-opacity:0;stroke:#000080;stroke-width:1.5;" x="255.973618" xlink:href="#m2b89483ac5" y="251.542253"/>
     <use style="fill-opacity:0;stroke:#000080;stroke-width:1.5;" x="255.973618" xlink:href="#m2b89483ac5" y="251.542253"/>
     <use style="fill-opacity:0;stroke:#000080;stroke-width:1.5;" x="338.688" xlink:href="#m2b89483ac5" y="251.542253"/>
    </g>
   </g>
   <g id="line2d_37">
    <path style="fill:none;stroke:#000080;stroke-linecap:square;stroke-width:1.5;"/>
    <g/>
   </g>
   <g id="line2d_38">
    <path clip-path="url(#p572369dfae)" d="M 186.974717 265.762777 
" style="fill:none;stroke:#000080;stroke-linecap:square;stroke-width:1.5;"/>
    <defs>
     <path d="M -12 12 
L 12 -12 
M -12 -12 
L 12 12 
" id="m7754b2afc8" style="stroke:#000080;"/>
    </defs>
    <g clip-path="url(#p572369dfae)">
     <use style="fill:#000080;stroke:#000080;" x="186.974717" xlink:href="#m7754b2afc8" y="265.762777"/>
    </g>
   </g>
   <g id="line2d_39">
    <defs>
     <path d="M 0 1.5 
C 0.397805 1.5 0.77937 1.341951 1.06066 1.06066 
C 1.341951 0.77937 1.5 0.397805 1.5 0 
C 1.5 -0.397805 1.341951 -0.77937 1.06066 -1.06066 
C 0.77937 -1.341951 0.397805 -1.5 0 -1.5 
C -0.397805 -1.5 -0.77937 -1.341951 -1.06066 -1.06066 
C -1.341951 -0.77937 -1.5 -0.397805 -1.5 0 
C -1.5 0.397805 -1.341951 0.77937 -1.06066 1.06066 
C -0.77937 1.341951 -0.397805 1.5 0 1.5 
z
" id="m41fa9f4879" style="stroke:#ff7500;"/>
    </defs>
    <g>
     <use style="fill:#ff7500;stroke:#ff7500;" x="209.30553" xlink:href="#m41fa9f4879" y="30.334099"/>
     <use style="fill:#ff7500;stroke:#ff7500;" x="209.30553" xlink:href="#m41fa9f4879" y="30.334099"/>
    </g>
   </g>
   <g id="line2d_40">
    <path d="M 57.6 298.944 
L 57.6 298.417314 
L 66.508432 298.417314 
L 66.508432 296.31057 
L 69.687988 296.31057 
L 69.687988 295.783884 
L 72.376266 295.783884 
L 72.376266 293.150453 
L 76.759008 293.150453 
L 76.759008 292.623767 
L 78.59642 292.623767 
L 78.59642 292.097081 
L 80.258561 292.097081 
L 80.258561 289.990337 
L 84.464254 289.990337 
L 84.464254 289.463651 
L 86.792945 289.463651 
L 86.792945 287.883592 
L 90.684409 287.883592 
L 90.684409 286.83022 
L 93.121756 286.83022 
L 93.121756 286.303534 
L 96.552242 286.303534 
L 96.552242 285.776848 
L 97.16421 285.776848 
L 97.16421 285.250162 
L 100.443706 285.250162 
L 100.443706 284.723476 
L 102.330873 284.723476 
L 102.330873 284.19679 
L 105.209745 284.19679 
L 105.209745 283.670104 
L 114.641021 283.670104 
L 114.641021 283.143418 
L 114.860386 283.143418 
L 114.860386 281.563359 
L 116.719583 281.563359 
L 116.719583 281.036673 
L 121.036887 281.036673 
L 121.036887 280.509987 
L 121.931406 280.509987 
L 121.931406 279.983301 
L 122.643312 279.983301 
L 122.643312 279.456615 
L 125.470548 279.456615 
L 125.470548 278.929929 
L 126.948374 278.929929 
L 126.948374 277.876557 
L 127.165014 277.876557 
L 127.165014 277.349871 
L 128.807571 277.349871 
L 128.807571 276.823185 
L 129.290685 276.823185 
L 129.290685 276.296499 
L 129.480244 276.296499 
L 129.480244 275.769812 
L 130.664567 275.769812 
L 130.664567 274.71644 
L 130.839837 274.71644 
L 130.926816 272.609696 
L 131.60746 272.609696 
L 131.60746 272.08301 
L 132.101058 272.08301 
L 132.101058 271.556324 
L 132.659801 271.556324 
L 132.659801 271.029638 
L 133.124876 271.029638 
L 133.124876 269.976266 
L 135.747468 269.976266 
L 135.747468 269.449579 
L 135.943785 269.449579 
L 135.943785 268.922893 
L 136.893527 268.922893 
L 136.893527 266.816149 
L 137.676769 266.816149 
L 137.676769 266.289463 
L 140.64889 266.289463 
L 140.64889 265.762777 
L 141.235139 265.762777 
L 141.235139 265.236091 
L 143.101352 265.236091 
L 143.101352 264.709405 
L 143.40093 264.709405 
L 143.40093 264.182719 
L 144.390658 264.182719 
L 144.390658 263.656033 
L 145.403044 263.656033 
L 145.403044 263.129347 
L 145.665858 263.129347 
L 145.665858 262.60266 
L 146.179895 262.60266 
L 146.179895 262.075974 
L 147.164632 262.075974 
L 147.266916 260.495916 
L 147.933891 260.495916 
L 147.999207 259.442544 
L 148.354135 259.442544 
L 148.354135 258.389172 
L 148.79566 258.389172 
L 148.79566 257.862486 
L 149.286939 257.862486 
L 149.286939 256.282427 
L 149.882194 256.282427 
L 149.882194 255.755741 
L 151.233007 255.755741 
L 151.233007 255.229055 
L 151.923236 255.229055 
L 151.923236 254.702369 
L 152.052897 254.702369 
L 152.052897 254.175683 
L 152.587184 254.175683 
L 152.587184 253.648997 
L 152.811246 253.648997 
L 152.811246 253.122311 
L 153.032466 253.122311 
L 153.032466 252.595625 
L 153.750233 252.595625 
L 153.750233 252.068939 
L 154.121296 252.068939 
L 154.121296 251.542253 
L 154.281186 251.542253 
L 154.281186 251.015567 
L 155.167744 251.015567 
L 155.167744 250.488881 
L 156.578586 250.488881 
L 156.578586 249.962195 
L 157.166482 249.962195 
L 157.20498 248.908822 
L 157.377174 248.908822 
L 157.377174 248.382136 
L 157.660438 248.382136 
L 157.660438 247.85545 
L 157.920731 247.85545 
L 157.920731 247.328764 
L 158.39406 247.328764 
L 158.39406 246.802078 
L 158.714382 246.802078 
L 158.714382 245.748706 
L 159.149734 245.748706 
L 159.149734 245.22202 
L 159.774744 245.22202 
L 159.774744 244.695334 
L 160.553557 244.695334 
L 160.553557 244.168648 
L 160.86807 244.168648 
L 160.930298 241.008531 
L 161.896878 241.008531 
L 161.896878 240.481845 
L 162.317821 240.481845 
L 162.317821 239.955159 
L 162.71483 239.955159 
L 162.812686 238.901787 
L 163.048075 238.901787 
L 163.048075 238.375101 
L 163.469301 238.375101 
L 163.563025 236.268356 
L 163.709295 236.268356 
L 163.735759 233.634926 
L 164.063205 233.634926 
L 164.063205 232.581554 
L 164.269589 232.581554 
L 164.269589 232.054868 
L 164.51154 232.054868 
L 164.599841 228.894751 
L 164.75018 228.894751 
L 164.75018 228.368065 
L 164.985598 228.368065 
L 164.985598 227.841379 
L 165.266391 227.841379 
L 165.266391 226.788007 
L 165.720627 226.788007 
L 165.720627 225.734635 
L 165.861646 225.734635 
L 165.93173 224.681263 
L 165.98992 224.681263 
L 166.047915 220.99446 
L 166.151824 220.99446 
L 166.186323 218.887716 
L 166.437252 218.887716 
L 166.437252 217.307658 
L 166.729224 217.307658 
L 166.729224 216.780971 
L 166.862349 216.780971 
L 166.972515 215.727599 
L 167.071073 215.727599 
L 167.08199 212.567483 
L 167.288118 212.567483 
L 167.288118 212.040797 
L 167.502494 212.040797 
L 167.502494 210.987425 
L 167.661564 210.987425 
L 167.682664 209.934052 
L 167.944284 209.934052 
L 168.037515 208.88068 
L 168.222494 208.88068 
L 168.222494 208.353994 
L 168.354881 208.353994 
L 168.445948 205.720564 
L 168.466121 205.720564 
L 168.48627 204.140506 
L 168.60668 204.140506 
L 168.656606 202.560447 
L 168.86475 202.560447 
L 168.86475 201.507075 
L 169.157854 201.507075 
L 169.157854 200.980389 
L 169.27373 200.980389 
L 169.27373 200.453703 
L 169.388841 200.453703 
L 169.388841 199.927017 
L 169.739058 199.927017 
L 169.841835 198.346959 
L 169.860457 198.346959 
L 169.906925 196.7669 
L 170.137423 196.7669 
L 170.201421 195.713528 
L 170.28336 195.713528 
L 170.29244 193.606784 
L 170.419074 193.606784 
L 170.526891 190.973354 
L 170.678499 190.973354 
L 170.784729 187.286551 
L 170.846398 187.286551 
L 170.916612 185.179807 
L 171.012696 185.179807 
L 171.030109 184.126434 
L 171.18605 184.126434 
L 171.254912 181.493004 
L 171.323504 181.493004 
L 171.374771 179.912946 
L 171.476854 179.912946 
L 171.569909 177.806202 
L 171.637275 177.806202 
L 171.687629 175.699457 
L 171.879317 175.699457 
L 171.970255 173.066027 
L 172.06072 173.066027 
L 172.109868 169.90591 
L 172.191475 169.90591 
L 172.296995 166.745794 
L 172.321256 166.745794 
L 172.321256 166.219108 
L 172.442055 166.219108 
L 172.522125 163.058991 
L 172.577957 163.058991 
L 172.665332 160.952247 
L 172.696997 160.952247 
L 172.744386 159.898875 
L 172.901427 159.898875 
L 172.901427 157.265444 
L 173.126653 157.265444 
L 173.234351 153.578642 
L 173.613646 153.578642 
L 173.666095 151.998584 
L 173.815086 151.998584 
L 173.852135 149.365153 
L 174.080103 149.365153 
L 174.15301 144.098292 
L 174.203864 144.098292 
L 174.290699 142.518234 
L 174.384284 142.518234 
L 174.47737 139.884804 
L 174.69736 139.884804 
L 174.781778 137.778059 
L 174.816832 137.778059 
L 174.914609 134.091257 
L 174.935491 134.091257 
L 175.011842 132.511199 
L 175.136064 132.511199 
L 175.211544 130.93114 
L 175.252577 130.93114 
L 175.279879 127.244338 
L 175.483295 127.244338 
L 175.523695 125.66428 
L 175.604215 125.66428 
L 175.697687 124.610907 
L 175.750876 124.610907 
L 175.77078 123.557535 
L 175.896315 123.557535 
L 176.001331 119.344047 
L 176.073165 119.344047 
L 176.131719 115.657244 
L 176.254691 115.657244 
L 176.254691 115.130558 
L 176.459861 115.130558 
L 176.567884 111.443755 
L 176.662646 111.443755 
L 176.687829 109.337011 
L 176.82569 109.337011 
L 176.8631 107.230267 
L 176.93768 107.230267 
L 176.93768 106.703581 
L 177.061275 106.703581 
L 177.141145 103.543464 
L 177.190115 103.543464 
L 177.299796 100.383348 
L 177.348323 100.383348 
L 177.402755 99.329976 
L 177.553068 99.329976 
L 177.559054 98.276603 
L 177.749519 98.276603 
L 177.779092 96.169859 
L 177.896886 96.169859 
L 177.896886 95.643173 
L 178.013889 95.643173 
L 178.077908 91.95637 
L 178.262819 91.95637 
L 178.325932 90.376312 
L 178.542219 90.376312 
L 178.587413 88.796254 
L 178.660604 88.796254 
L 178.739084 87.742882 
L 178.78935 87.742882 
L 178.889448 85.109451 
L 179.175434 85.109451 
L 179.175434 84.582765 
L 179.691395 84.582765 
L 179.691395 84.056079 
L 190.508164 84.056079 
L 190.508164 83.529393 
L 191.007908 83.529393 
L 191.052135 81.949335 
L 191.566252 81.949335 
L 191.657151 80.369277 
L 191.808486 80.369277 
L 191.808486 79.315904 
L 191.953277 79.315904 
L 191.953277 78.789218 
L 192.135834 78.789218 
L 192.192817 77.735846 
L 192.689914 77.735846 
L 192.689914 76.682474 
L 192.820115 76.682474 
L 192.91465 75.629102 
L 192.951826 75.629102 
L 193.04319 74.049044 
L 193.156114 74.049044 
L 193.224494 72.995672 
L 193.309593 72.995672 
L 193.408756 68.255497 
L 193.512153 68.255497 
L 193.543293 67.202125 
L 193.648277 67.202125 
L 193.707647 65.09538 
L 193.780986 65.09538 
L 193.891592 62.988636 
L 193.99917 62.988636 
L 194.062006 59.301833 
L 194.145437 59.301833 
L 194.246869 55.615031 
L 194.260655 55.615031 
L 194.333996 54.561659 
L 194.402475 54.561659 
L 194.450251 52.454914 
L 194.606313 52.454914 
L 194.716298 49.821484 
L 194.729718 49.821484 
L 194.83004 48.241426 
L 194.854476 48.241426 
L 194.956292 47.188054 
L 195.053128 47.188054 
L 195.158158 46.134681 
L 195.245203 46.134681 
L 195.355558 45.081309 
L 195.798538 45.081309 
L 195.798538 44.027937 
L 201.560607 44.027937 
L 201.560607 43.501251 
L 202.285806 43.501251 
L 202.285806 42.447879 
L 202.447416 42.447879 
L 202.537668 41.394507 
L 202.933229 41.394507 
L 203.033511 39.814448 
L 203.075126 39.814448 
L 203.134601 37.181018 
L 203.280353 37.181018 
L 203.30088 36.127646 
L 203.439829 36.127646 
L 203.439829 35.60096 
L 203.558822 35.60096 
L 203.630099 34.547588 
L 203.807692 34.547588 
L 203.807692 34.020902 
L 208.346205 34.020902 
L 208.346205 33.494215 
L 208.547806 33.494215 
L 208.547806 32.967529 
L 208.802061 32.967529 
L 208.802061 32.440843 
L 208.98566 32.440843 
L 209.087049 31.387471 
L 209.304561 31.387471 
L 209.30553 30.334099 
L 338.688 30.334099 
L 338.688 30.334099 
" style="fill:none;stroke:#ff7500;stroke-linecap:square;stroke-width:1.5;"/>
   </g>
   <g id="line2d_41">
    <defs>
     <path d="M 0 -6 
L -1.347084 -1.854102 
L -5.706339 -1.854102 
L -2.179628 0.708204 
L -3.526712 4.854102 
L -0 2.291796 
L 3.526712 4.854102 
L 2.179628 0.708204 
L 5.706339 -1.854102 
L 1.347084 -1.854102 
z
" id="m4388b119f3" style="stroke:#ff7500;stroke-linejoin:bevel;stroke-width:1.5;"/>
    </defs>
    <g>
     <use style="fill-opacity:0;stroke:#ff7500;stroke-linejoin:bevel;stroke-width:1.5;" x="130.839837" xlink:href="#m4388b119f3" y="273.663068"/>
     <use style="fill-opacity:0;stroke:#ff7500;stroke-linejoin:bevel;stroke-width:1.5;" x="173.613646" xlink:href="#m4388b119f3" y="153.051956"/>
     <use style="fill-opacity:0;stroke:#ff7500;stroke-linejoin:bevel;stroke-width:1.5;" x="209.30553" xlink:href="#m4388b119f3" y="30.860785"/>
     <use style="fill-opacity:0;stroke:#ff7500;stroke-linejoin:bevel;stroke-width:1.5;" x="209.30553" xlink:href="#m4388b119f3" y="30.334099"/>
     <use style="fill-opacity:0;stroke:#ff7500;stroke-linejoin:bevel;stroke-width:1.5;" x="338.688" xlink:href="#m4388b119f3" y="30.334099"/>
    </g>
   </g>
   <g id="line2d_42">
    <path style="fill:none;stroke:#ff7500;stroke-linecap:square;stroke-width:1.5;"/>
    <g/>
   </g>
   <g id="line2d_43">
    <path clip-path="url(#p572369dfae)" d="M 186.974717 84.056079 
" style="fill:none;stroke:#ff7500;stroke-linecap:square;stroke-width:1.5;"/>
    <defs>
     <path d="M -12 12 
L 12 -12 
M -12 -12 
L 12 12 
" id="m48b1c5d032" style="stroke:#ff7500;"/>
    </defs>
    <g clip-path="url(#p572369dfae)">
     <use style="fill:#ff7500;stroke:#ff7500;" x="186.974717" xlink:href="#m48b1c5d032" y="84.056079"/>
    </g>
   </g>
   <g id="line2d_44">
    <defs>
     <path d="M 0 1.5 
C 0.397805 1.5 0.77937 1.341951 1.06066 1.06066 
C 1.341951 0.77937 1.5 0.397805 1.5 0 
C 1.5 -0.397805 1.341951 -0.77937 1.06066 -1.06066 
C 0.77937 -1.341951 0.397805 -1.5 0 -1.5 
C -0.397805 -1.5 -0.77937 -1.341951 -1.06066 -1.06066 
C -1.341951 -0.77937 -1.5 -0.397805 -1.5 0 
C -1.5 0.397805 -1.341951 0.77937 -1.06066 1.06066 
C -0.77937 1.341951 -0.397805 1.5 0 1.5 
z
" id="m9109fc0732" style="stroke:#6495ed;"/>
    </defs>
    <g>
     <use style="fill:#6495ed;stroke:#6495ed;" x="246.28241" xlink:href="#m9109fc0732" y="77.735846"/>
     <use style="fill:#6495ed;stroke:#6495ed;" x="246.28241" xlink:href="#m9109fc0732" y="77.735846"/>
    </g>
   </g>
   <g id="line2d_45">
    <path d="M 57.6 298.944 
L 57.6 297.890628 
L 66.508432 297.890628 
L 66.508432 295.783884 
L 72.376266 295.783884 
L 72.376266 293.150453 
L 76.759008 293.150453 
L 76.759008 292.623767 
L 78.59642 292.623767 
L 78.59642 292.097081 
L 80.258561 292.097081 
L 80.258561 290.517023 
L 84.464254 290.517023 
L 84.464254 289.463651 
L 86.792945 289.463651 
L 86.792945 288.410278 
L 90.684409 288.410278 
L 90.684409 287.356906 
L 93.121756 287.356906 
L 93.121756 286.83022 
L 95.918017 286.83022 
L 95.918017 286.303534 
L 96.552242 286.303534 
L 96.552242 285.776848 
L 97.16421 285.776848 
L 97.16421 285.250162 
L 102.330873 285.250162 
L 102.330873 284.19679 
L 104.826449 284.19679 
L 104.826449 283.670104 
L 106.311539 283.670104 
L 106.311539 283.143418 
L 110.415248 283.143418 
L 110.415248 282.616732 
L 111.505558 282.616732 
L 111.505558 281.563359 
L 112.280765 281.563359 
L 112.280765 281.036673 
L 114.641021 281.036673 
L 114.641021 280.509987 
L 120.41399 280.509987 
L 120.41399 279.983301 
L 122.920132 279.983301 
L 122.920132 278.929929 
L 123.056911 278.929929 
L 123.056911 278.403243 
L 124.989434 278.403243 
L 124.989434 277.876557 
L 125.23165 277.876557 
L 125.23165 277.349871 
L 125.588781 277.349871 
L 125.588781 276.823185 
L 126.3947 276.823185 
L 126.3947 276.296499 
L 128.005624 276.296499 
L 128.005624 275.769812 
L 131.099484 275.769812 
L 131.099484 275.243126 
L 132.501978 275.243126 
L 132.501978 274.71644 
L 133.503183 274.71644 
L 133.503183 273.663068 
L 134.307653 273.663068 
L 134.307653 273.136382 
L 135.615352 273.136382 
L 135.615352 272.609696 
L 135.813153 272.609696 
L 135.813153 272.08301 
L 137.077422 272.08301 
L 137.077422 271.556324 
L 137.319638 271.556324 
L 137.319638 271.029638 
L 137.676769 271.029638 
L 137.676769 270.502952 
L 137.852629 270.502952 
L 137.852629 269.976266 
L 138.313099 269.976266 
L 138.313099 269.449579 
L 138.816998 269.449579 
L 138.816998 268.922893 
L 140.44901 268.922893 
L 140.44901 267.869521 
L 142.306513 267.869521 
L 142.306513 267.342835 
L 143.485587 267.342835 
L 143.527762 265.236091 
L 143.737119 265.236091 
L 143.737119 264.709405 
L 144.107744 264.709405 
L 144.107744 264.182719 
L 145.665858 264.182719 
L 145.665858 263.129347 
L 146.784375 263.129347 
L 146.784375 262.60266 
L 147.402367 262.60266 
L 147.402367 262.075974 
L 148.354135 262.075974 
L 148.354135 261.549288 
L 149.165411 261.549288 
L 149.165411 261.022602 
L 150.027887 261.022602 
L 150.027887 260.495916 
L 150.87737 260.495916 
L 150.87737 259.96923 
L 153.79705 259.96923 
L 153.79705 259.442544 
L 154.507086 259.442544 
L 154.507086 258.389172 
L 155.86668 258.389172 
L 155.86668 257.862486 
L 156.398281 257.862486 
L 156.398281 257.3358 
L 157.509937 257.3358 
L 157.509937 256.809114 
L 157.920731 256.809114 
L 157.920731 256.282427 
L 161.314269 256.282427 
L 161.314269 255.755741 
L 162.474869 255.755741 
L 162.474869 255.229055 
L 162.882249 255.229055 
L 162.882249 254.702369 
L 163.482721 254.702369 
L 163.482721 254.175683 
L 164.037234 254.175683 
L 164.037234 253.122311 
L 164.448194 253.122311 
L 164.448194 252.595625 
L 165.447111 252.595625 
L 165.447111 252.068939 
L 165.578458 252.068939 
L 165.578458 251.542253 
L 165.943384 251.542253 
L 165.943384 251.015567 
L 169.3984 251.015567 
L 169.3984 250.488881 
L 169.673338 250.488881 
L 169.673338 249.962195 
L 170.310587 249.962195 
L 170.310587 248.908822 
L 170.607318 248.908822 
L 170.65184 246.275392 
L 170.784729 246.275392 
L 170.784729 245.748706 
L 171.978498 245.748706 
L 171.978498 245.22202 
L 173.318507 245.22202 
L 173.318507 244.695334 
L 174.788794 244.695334 
L 174.788794 244.168648 
L 175.149812 244.168648 
L 175.149812 243.115275 
L 175.381884 243.115275 
L 175.456309 239.428473 
L 175.988239 239.428473 
L 176.047078 238.375101 
L 176.196549 238.375101 
L 176.267585 234.161612 
L 176.763161 234.161612 
L 176.775685 233.10824 
L 176.981038 233.10824 
L 177.036626 232.054868 
L 177.238947 232.054868 
L 177.238947 231.001496 
L 177.594925 231.001496 
L 177.594925 230.47481 
L 177.914487 230.47481 
L 177.914487 229.948123 
L 178.211011 229.948123 
L 178.285796 228.894751 
L 178.44579 228.894751 
L 178.479885 226.788007 
L 178.817212 226.788007 
L 178.817212 226.261321 
L 179.440696 226.261321 
L 179.440696 225.207949 
L 179.854799 225.207949 
L 179.854799 224.681263 
L 180.254169 224.681263 
L 180.356423 222.574518 
L 180.584324 222.574518 
L 180.584324 221.521146 
L 180.709661 221.521146 
L 180.729632 219.414402 
L 180.834104 219.414402 
L 180.893522 218.36103 
L 180.982272 218.36103 
L 181.065678 216.254285 
L 181.207046 216.254285 
L 181.240998 214.147541 
L 181.505489 214.147541 
L 181.510261 211.514111 
L 181.728374 211.514111 
L 181.836415 210.460738 
L 181.883182 210.460738 
L 181.883182 209.407366 
L 181.994913 209.407366 
L 181.994913 205.720564 
L 182.147384 205.720564 
L 182.248295 204.140506 
L 182.334978 204.140506 
L 182.334978 203.613819 
L 182.570037 203.613819 
L 182.659607 198.346959 
L 182.92559 198.346959 
L 182.92559 197.820273 
L 183.091972 197.820273 
L 183.174571 196.240214 
L 183.252464 196.240214 
L 183.360074 193.606784 
L 183.411492 193.606784 
L 183.428598 192.553412 
L 183.624117 192.553412 
L 183.725263 189.393295 
L 183.746262 189.393295 
L 183.79237 187.813237 
L 183.967306 187.813237 
L 184.021099 184.126434 
L 184.078845 184.126434 
L 184.078845 183.073062 
L 184.197857 183.073062 
L 184.307935 178.859574 
L 184.36069 178.859574 
L 184.36069 175.172771 
L 184.57813 175.172771 
L 184.669926 170.432596 
L 184.725567 170.432596 
L 184.725567 169.90591 
L 184.926769 169.90591 
L 185.024556 167.799166 
L 185.040151 167.799166 
L 185.040151 167.27248 
L 185.2185 167.27248 
L 185.32234 161.478933 
L 185.34916 161.478933 
L 185.352989 158.845503 
L 185.524393 158.845503 
L 185.626432 151.998584 
L 185.690375 151.998584 
L 185.690375 151.471897 
L 185.825013 151.471897 
L 185.91049 146.731723 
L 186.120538 146.731723 
L 186.179047 140.938176 
L 186.244636 140.938176 
L 186.266444 139.884804 
L 186.400328 139.884804 
L 186.493798 136.198001 
L 186.696977 136.198001 
L 186.785349 128.29771 
L 186.96076 128.29771 
L 186.96076 127.244338 
L 194.518276 127.244338 
L 194.518276 126.190966 
L 195.699421 126.190966 
L 195.712106 125.137593 
L 196.322615 125.137593 
L 196.322615 124.610907 
L 196.543638 124.610907 
L 196.543638 124.084221 
L 197.804624 124.084221 
L 197.905548 123.030849 
L 197.948358 123.030849 
L 197.948358 122.504163 
L 198.114871 122.504163 
L 198.114871 120.924105 
L 198.23049 120.924105 
L 198.270686 119.344047 
L 198.376213 119.344047 
L 198.376213 118.290674 
L 198.51893 118.290674 
L 198.538709 117.237302 
L 198.640845 117.237302 
L 198.701485 113.5505 
L 198.818599 113.5505 
L 198.924388 111.970441 
L 198.947225 111.970441 
L 199.055729 107.756953 
L 204.979053 107.756953 
L 204.979053 107.230267 
L 205.305168 107.230267 
L 205.305168 106.176895 
L 205.507594 106.176895 
L 205.583351 104.596836 
L 205.67908 104.596836 
L 205.78615 103.016778 
L 205.857166 103.016778 
L 205.857166 102.490092 
L 206.052152 102.490092 
L 206.066163 100.383348 
L 210.73955 100.383348 
L 210.73955 99.856662 
L 211.029068 99.856662 
L 211.09305 98.276603 
L 214.996057 98.276603 
L 215.001651 95.116487 
L 217.948698 95.116487 
L 217.948698 94.589801 
L 220.67624 94.589801 
L 220.67624 94.063115 
L 220.881068 94.063115 
L 220.881068 93.009743 
L 223.034322 93.009743 
L 223.034322 91.95637 
L 225.111199 91.95637 
L 225.111199 90.902998 
L 225.262092 90.902998 
L 225.270242 89.849626 
L 226.96685 89.849626 
L 226.96685 89.32294 
L 227.109905 89.32294 
L 227.109905 87.216196 
L 228.643899 87.216196 
L 228.643899 86.68951 
L 230.286726 86.68951 
L 230.292837 85.109451 
L 231.690022 85.109451 
L 231.690022 84.582765 
L 232.881496 84.582765 
L 232.983524 83.002707 
L 234.092472 83.002707 
L 234.187674 81.422649 
L 235.314023 81.422649 
L 235.314023 80.895963 
L 237.36948 80.895963 
L 237.36948 80.369277 
L 239.208017 80.369277 
L 239.208017 79.315904 
L 241.646685 79.315904 
L 241.646685 78.789218 
L 242.38926 78.789218 
L 242.38926 78.262532 
L 246.28241 78.262532 
L 246.28241 77.735846 
L 338.688 77.735846 
L 338.688 77.735846 
" style="fill:none;stroke:#6495ed;stroke-linecap:square;stroke-width:1.5;"/>
   </g>
   <g id="line2d_46">
    <defs>
     <path d="M -0 6 
L 6 -6 
L -6 -6 
z
" id="m37f1fc3fa4" style="stroke:#6495ed;stroke-linejoin:miter;stroke-width:1.5;"/>
    </defs>
    <g>
     <use style="fill-opacity:0;stroke:#6495ed;stroke-linejoin:miter;stroke-width:1.5;" x="120.41399" xlink:href="#m37f1fc3fa4" y="279.983301"/>
     <use style="fill-opacity:0;stroke:#6495ed;stroke-linejoin:miter;stroke-width:1.5;" x="182.659607" xlink:href="#m37f1fc3fa4" y="199.927017"/>
     <use style="fill-opacity:0;stroke:#6495ed;stroke-linejoin:miter;stroke-width:1.5;" x="234.187674" xlink:href="#m37f1fc3fa4" y="81.422649"/>
     <use style="fill-opacity:0;stroke:#6495ed;stroke-linejoin:miter;stroke-width:1.5;" x="246.28241" xlink:href="#m37f1fc3fa4" y="77.735846"/>
     <use style="fill-opacity:0;stroke:#6495ed;stroke-linejoin:miter;stroke-width:1.5;" x="338.688" xlink:href="#m37f1fc3fa4" y="77.735846"/>
    </g>
   </g>
   <g id="line2d_47">
    <path style="fill:none;stroke:#6495ed;stroke-linecap:square;stroke-width:1.5;"/>
    <g/>
   </g>
   <g id="line2d_48">
    <path clip-path="url(#p572369dfae)" d="M 186.974717 127.244338 
" style="fill:none;stroke:#6495ed;stroke-linecap:square;stroke-width:1.5;"/>
    <defs>
     <path d="M -12 12 
L 12 -12 
M -12 -12 
L 12 12 
" id="m69fda0288b" style="stroke:#6495ed;"/>
    </defs>
    <g clip-path="url(#p572369dfae)">
     <use style="fill:#6495ed;stroke:#6495ed;" x="186.974717" xlink:href="#m69fda0288b" y="127.244338"/>
    </g>
   </g>
   <g id="line2d_49">
    <defs>
     <path d="M 0 1.5 
C 0.397805 1.5 0.77937 1.341951 1.06066 1.06066 
C 1.341951 0.77937 1.5 0.397805 1.5 0 
C 1.5 -0.397805 1.341951 -0.77937 1.06066 -1.06066 
C 0.77937 -1.341951 0.397805 -1.5 0 -1.5 
C -0.397805 -1.5 -0.77937 -1.341951 -1.06066 -1.06066 
C -1.341951 -0.77937 -1.5 -0.397805 -1.5 0 
C -1.5 0.397805 -1.341951 0.77937 -1.06066 1.06066 
C -0.77937 1.341951 -0.397805 1.5 0 1.5 
z
" id="md1d49686fa" style="stroke:#ff0000;"/>
    </defs>
    <g>
     <use style="fill:#ff0000;stroke:#ff0000;" x="256.803514" xlink:href="#md1d49686fa" y="30.334099"/>
     <use style="fill:#ff0000;stroke:#ff0000;" x="256.803514" xlink:href="#md1d49686fa" y="30.334099"/>
    </g>
   </g>
   <g id="line2d_50">
    <path d="M 57.6 298.944 
L 57.6 298.417314 
L 66.508432 298.417314 
L 66.508432 297.363942 
L 72.376266 297.363942 
L 72.376266 294.203825 
L 76.759008 294.203825 
L 76.759008 293.677139 
L 78.59642 293.677139 
L 78.59642 293.150453 
L 80.258561 293.150453 
L 80.258561 291.043709 
L 84.464254 291.043709 
L 84.464254 289.463651 
L 86.792945 289.463651 
L 86.792945 287.883592 
L 90.684409 287.883592 
L 90.684409 287.356906 
L 93.121756 287.356906 
L 93.121756 286.83022 
L 95.259853 286.83022 
L 95.259853 286.303534 
L 97.16421 286.303534 
L 97.16421 285.776848 
L 100.443706 285.776848 
L 100.443706 285.250162 
L 102.330873 285.250162 
L 102.330873 284.723476 
L 104.826449 284.723476 
L 104.826449 284.19679 
L 105.584798 284.19679 
L 105.584798 283.670104 
L 106.311539 283.670104 
L 106.311539 282.616732 
L 108.640231 282.616732 
L 108.640231 281.563359 
L 110.131676 281.563359 
L 110.131676 279.456615 
L 114.641021 279.456615 
L 114.641021 278.929929 
L 116.522527 278.929929 
L 116.522527 278.403243 
L 118.039942 278.403243 
L 118.039942 277.349871 
L 119.602714 277.349871 
L 119.602714 276.823185 
L 122.362027 276.823185 
L 122.362027 276.296499 
L 124.368753 276.296499 
L 124.368753 275.769812 
L 125.351508 275.769812 
L 125.351508 275.243126 
L 125.938745 275.243126 
L 125.938745 274.71644 
L 127.48501 274.71644 
L 127.48501 274.189754 
L 128.610515 274.189754 
L 128.610515 273.663068 
L 128.905271 273.663068 
L 128.905271 273.136382 
L 129.574256 273.136382 
L 129.667765 271.029638 
L 131.099484 271.029638 
L 131.099484 270.502952 
L 131.439773 270.502952 
L 131.439773 269.976266 
L 133.72629 269.976266 
L 133.72629 269.449579 
L 134.091907 269.449579 
L 134.091907 268.922893 
L 134.236034 268.922893 
L 134.236034 268.396207 
L 134.37898 268.396207 
L 134.37898 267.342835 
L 135.00812 267.342835 
L 135.00812 266.816149 
L 136.393441 266.816149 
L 136.393441 266.289463 
L 137.910857 266.289463 
L 137.910857 265.762777 
L 138.594838 265.762777 
L 138.594838 265.236091 
L 138.706272 265.236091 
L 138.706272 264.182719 
L 139.306744 264.182719 
L 139.306744 263.656033 
L 144.310293 263.656033 
L 144.310293 263.129347 
L 145.365173 263.129347 
L 145.365173 262.60266 
L 146.107383 262.60266 
L 146.107383 261.549288 
L 146.573414 261.549288 
L 146.573414 261.022602 
L 148.129109 261.022602 
L 148.129109 260.495916 
L 148.513109 260.495916 
L 148.513109 259.96923 
L 149.256637 259.96923 
L 149.256637 259.442544 
L 150.932558 259.442544 
L 150.932558 258.915858 
L 151.60806 258.915858 
L 151.60806 258.389172 
L 152.232818 258.389172 
L 152.232818 257.862486 
L 153.008024 257.862486 
L 153.008024 257.3358 
L 153.129893 257.3358 
L 153.129893 256.809114 
L 154.862549 256.809114 
L 154.862549 256.282427 
L 155.296925 256.282427 
L 155.296925 255.755741 
L 155.55245 255.755741 
L 155.55245 255.229055 
L 155.783437 255.229055 
L 155.783437 254.702369 
L 156.638275 254.702369 
L 156.638275 254.175683 
L 157.58535 254.175683 
L 157.58535 253.648997 
L 157.772468 253.648997 
L 157.772468 253.122311 
L 158.104304 253.122311 
L 158.104304 252.595625 
L 160.489968 252.595625 
L 160.489968 252.068939 
L 160.836873 252.068939 
L 160.836873 251.542253 
L 161.359783 251.542253 
L 161.359783 251.015567 
L 161.585586 251.015567 
L 161.585586 250.488881 
L 162.332157 250.488881 
L 162.332157 249.962195 
L 163.185069 249.962195 
L 163.185069 249.435508 
L 164.549438 249.435508 
L 164.549438 248.908822 
L 165.022481 248.908822 
L 165.047026 246.802078 
L 167.651004 246.802078 
L 167.672117 245.748706 
L 168.171308 245.748706 
L 168.171308 245.22202 
L 168.546579 245.22202 
L 168.546579 244.695334 
L 168.666574 244.695334 
L 168.666574 244.168648 
L 168.982583 244.168648 
L 168.982583 243.641962 
L 170.517932 243.641962 
L 170.517932 243.115275 
L 170.793552 243.115275 
L 170.793552 242.588589 
L 171.476854 242.588589 
L 171.476854 241.008531 
L 171.978498 241.008531 
L 171.978498 239.428473 
L 172.744386 239.428473 
L 172.744386 238.901787 
L 172.932666 238.901787 
L 172.932666 238.375101 
L 173.591119 238.375101 
L 173.591119 237.848415 
L 173.852135 237.848415 
L 173.852135 236.795043 
L 174.028886 236.795043 
L 174.028886 235.74167 
L 176.183602 235.74167 
L 176.183602 235.214984 
L 177.011942 235.214984 
L 177.011942 234.161612 
L 177.849864 234.161612 
L 177.849864 233.10824 
L 178.216775 233.10824 
L 178.274311 232.054868 
L 178.56483 232.054868 
L 178.56483 231.528182 
L 178.83947 231.528182 
L 178.83947 231.001496 
L 179.033027 231.001496 
L 179.082454 229.948123 
L 179.24077 229.948123 
L 179.24077 229.421437 
L 179.728427 229.421437 
L 179.728427 228.368065 
L 179.969841 228.368065 
L 179.969841 227.841379 
L 180.125504 227.841379 
L 180.125504 227.314693 
L 180.609464 227.314693 
L 180.709661 225.734635 
L 180.734621 225.734635 
L 180.754563 224.154577 
L 181.323179 224.154577 
L 181.323179 223.627891 
L 181.610173 223.627891 
L 181.610173 223.101204 
L 181.742504 223.101204 
L 181.742504 222.047832 
L 183.407213 222.047832 
L 183.407213 221.521146 
L 183.577561 221.521146 
L 183.577561 220.99446 
L 189.940795 220.99446 
L 189.940795 220.467774 
L 190.428233 220.467774 
L 190.491067 218.887716 
L 191.334192 218.887716 
L 191.339624 216.254285 
L 192.003018 216.254285 
L 192.003018 215.727599 
L 192.290805 215.727599 
L 192.290805 215.200913 
L 192.616878 215.200913 
L 192.629492 214.147541 
L 192.98151 214.147541 
L 192.98151 213.094169 
L 193.129177 213.094169 
L 193.129177 212.040797 
L 193.360454 212.040797 
L 193.360454 211.514111 
L 193.707647 211.514111 
L 193.764452 208.88068 
L 193.851667 208.88068 
L 193.851667 208.353994 
L 194.653535 208.353994 
L 194.653535 207.300622 
L 195.009179 207.300622 
L 195.090399 206.24725 
L 195.249543 206.24725 
L 195.359871 205.193878 
L 195.465219 205.193878 
L 195.559277 203.087133 
L 195.620994 203.087133 
L 195.620994 202.560447 
L 195.813252 202.560447 
L 195.813252 202.033761 
L 196.220284 202.033761 
L 196.220284 200.980389 
L 196.345048 200.980389 
L 196.345048 200.453703 
L 196.585901 200.453703 
L 196.585901 199.927017 
L 197.186497 199.927017 
L 197.186497 198.346959 
L 197.446718 198.346959 
L 197.446718 196.240214 
L 199.601878 196.240214 
L 199.601878 195.713528 
L 200.462885 195.713528 
L 200.462885 195.186842 
L 200.874812 195.186842 
L 200.874812 194.13347 
L 201.378313 194.13347 
L 201.381367 192.553412 
L 201.727549 192.553412 
L 201.727549 192.026726 
L 202.323457 192.026726 
L 202.410033 190.446667 
L 202.546239 190.446667 
L 202.580481 188.866609 
L 202.702633 188.866609 
L 202.752102 187.286551 
L 202.837986 187.286551 
L 202.837986 186.233179 
L 203.400436 186.233179 
L 203.437115 184.653121 
L 203.538597 184.653121 
L 203.588444 183.599748 
L 203.672994 183.599748 
L 203.672994 182.546376 
L 203.80902 182.546376 
L 203.877961 180.439632 
L 204.016342 180.439632 
L 204.036022 178.332888 
L 204.284684 178.332888 
L 204.369792 176.752829 
L 204.399353 176.752829 
L 204.445523 175.172771 
L 204.522201 175.172771 
L 204.522201 174.646085 
L 205.023715 174.646085 
L 205.073206 173.592713 
L 207.423043 173.592713 
L 207.423043 173.066027 
L 207.711107 173.066027 
L 207.713231 170.432596 
L 208.435074 170.432596 
L 208.531601 167.799166 
L 208.822003 167.799166 
L 208.822003 167.27248 
L 209.040857 167.27248 
L 209.040857 166.745794 
L 209.338455 166.745794 
L 209.444551 165.165736 
L 209.514606 165.165736 
L 209.601542 162.005619 
L 209.645323 162.005619 
L 209.673817 160.952247 
L 209.782615 160.952247 
L 209.866352 158.845503 
L 209.956226 158.845503 
L 209.982352 157.79213 
L 210.104068 157.79213 
L 210.104068 157.265444 
L 210.260765 157.265444 
L 210.32488 156.212072 
L 212.346903 156.212072 
L 212.348532 154.105328 
L 212.550069 154.105328 
L 212.550069 153.051956 
L 212.85717 153.051956 
L 212.904546 151.471897 
L 212.979297 151.471897 
L 212.998131 150.418525 
L 213.092776 150.418525 
L 213.140295 148.311781 
L 213.474698 148.311781 
L 213.559965 146.731723 
L 213.615317 146.731723 
L 213.71722 144.098292 
L 213.745796 144.098292 
L 213.848436 142.518234 
L 213.870831 142.518234 
L 213.963095 140.938176 
L 214.005343 140.938176 
L 214.113829 138.831432 
L 214.384664 138.831432 
L 214.413615 137.251373 
L 216.006919 137.251373 
L 216.006919 136.198001 
L 216.420436 136.198001 
L 216.420436 135.671315 
L 216.843887 135.671315 
L 216.908564 134.091257 
L 216.995468 134.091257 
L 216.995468 133.564571 
L 217.121613 133.564571 
L 217.148217 131.984513 
L 217.321688 131.984513 
L 217.398033 128.824396 
L 217.43456 128.824396 
L 217.43456 128.29771 
L 217.675539 128.29771 
L 217.675539 127.771024 
L 219.007129 127.771024 
L 219.007129 127.244338 
L 219.166994 127.244338 
L 219.166994 126.717652 
L 219.410323 126.717652 
L 219.410323 125.66428 
L 219.54016 125.66428 
L 219.617602 123.557535 
L 219.844705 123.557535 
L 219.90287 122.504163 
L 219.97136 122.504163 
L 220.041678 119.870733 
L 220.133607 119.870733 
L 220.175753 117.763988 
L 220.407034 117.763988 
L 220.407034 117.237302 
L 221.585346 117.237302 
L 221.604509 116.18393 
L 221.905464 116.18393 
L 221.989502 113.023814 
L 222.046082 113.023814 
L 222.113177 111.443755 
L 222.202701 111.443755 
L 222.310171 110.390383 
L 222.360678 110.390383 
L 222.406467 108.810325 
L 222.481303 108.810325 
L 222.558991 107.230267 
L 222.608332 107.230267 
L 222.608332 106.703581 
L 222.788213 106.703581 
L 222.830663 105.123522 
L 223.709666 105.123522 
L 223.709666 104.596836 
L 223.847884 104.596836 
L 223.952403 103.016778 
L 224.137647 103.016778 
L 224.236744 100.383348 
L 224.404742 100.383348 
L 224.404742 99.329976 
L 224.554973 99.329976 
L 224.572752 97.223231 
L 224.697907 97.223231 
L 224.771932 95.116487 
L 224.902805 95.116487 
L 224.930525 94.063115 
L 225.835288 94.063115 
L 225.835288 93.536429 
L 226.138062 93.536429 
L 226.191515 91.95637 
L 226.391333 91.95637 
L 226.483515 89.32294 
L 226.526896 89.32294 
L 226.627701 86.162824 
L 226.662129 86.162824 
L 226.662129 85.636137 
L 226.779605 85.636137 
L 226.779605 85.109451 
L 227.507944 85.109451 
L 227.515451 84.056079 
L 227.619197 84.056079 
L 227.619197 83.529393 
L 227.852987 83.529393 
L 227.953419 81.949335 
L 228.088306 81.949335 
L 228.134135 80.369277 
L 228.214949 80.369277 
L 228.30713 78.262532 
L 228.347835 78.262532 
L 228.376435 76.682474 
L 228.496496 76.682474 
L 228.496496 76.155788 
L 229.237441 76.155788 
L 229.237441 75.102416 
L 229.51312 75.102416 
L 229.51312 74.57573 
L 229.625931 74.57573 
L 229.625931 74.049044 
L 229.772522 74.049044 
L 229.859531 72.468985 
L 230.018077 72.468985 
L 230.038753 70.888927 
L 230.6251 70.888927 
L 230.718192 69.308869 
L 230.897278 69.308869 
L 230.914132 67.202125 
L 231.021609 67.202125 
L 231.111781 66.148752 
L 231.170531 66.148752 
L 231.256084 63.515322 
L 231.29733 63.515322 
L 231.346698 62.46195 
L 231.455633 62.46195 
L 231.466516 61.408578 
L 232.072489 61.408578 
L 232.072489 60.881892 
L 232.317446 60.881892 
L 232.326511 59.82852 
L 232.527302 59.82852 
L 232.6192 58.248461 
L 232.664969 58.248461 
L 232.741995 57.195089 
L 233.348696 57.195089 
L 233.348696 56.668403 
L 233.546087 56.668403 
L 233.546087 56.141717 
L 233.712118 56.141717 
L 233.769417 54.561659 
L 233.890555 54.561659 
L 233.92815 53.508287 
L 234.45898 53.508287 
L 234.45898 52.9816 
L 234.585448 52.9816 
L 234.610677 51.928228 
L 234.822656 51.928228 
L 234.913742 50.34817 
L 235.035636 50.34817 
L 235.123855 49.294798 
L 235.633932 49.294798 
L 235.633932 48.768112 
L 235.863307 48.768112 
L 235.953125 47.71474 
L 236.143247 47.71474 
L 236.193101 46.661368 
L 236.745751 46.661368 
L 236.745751 45.607995 
L 237.186848 45.607995 
L 237.186848 45.081309 
L 237.653728 45.081309 
L 237.653728 44.554623 
L 237.945614 44.554623 
L 238.046062 42.974565 
L 238.152981 42.974565 
L 238.152981 42.447879 
L 238.527469 42.447879 
L 238.527469 41.921193 
L 238.85264 41.921193 
L 238.953855 40.341135 
L 239.60361 40.341135 
L 239.708373 38.761076 
L 239.75663 38.761076 
L 239.816554 37.181018 
L 240.455979 37.181018 
L 240.531837 36.127646 
L 241.05647 36.127646 
L 241.05647 35.60096 
L 241.422829 35.60096 
L 241.422829 35.074274 
L 242.109907 35.074274 
L 242.178326 34.020902 
L 242.757277 34.020902 
L 242.757277 33.494215 
L 243.402339 33.494215 
L 243.402339 32.967529 
L 245.829138 32.967529 
L 245.829138 32.440843 
L 246.110478 32.440843 
L 246.110478 31.914157 
L 246.71138 31.914157 
L 246.7566 30.860785 
L 256.803514 30.860785 
L 256.803514 30.334099 
L 338.688 30.334099 
L 338.688 30.334099 
" style="fill:none;stroke:#ff0000;stroke-linecap:square;stroke-width:1.5;"/>
   </g>
   <g id="line2d_51">
    <defs>
     <path d="M 0 -6 
L -5.196152 -3 
L -5.196152 3 
L -0 6 
L 5.196152 3 
L 5.196152 -3 
z
" id="m6e3cfeb42b" style="stroke:#ff0000;stroke-linejoin:miter;stroke-width:1.5;"/>
    </defs>
    <g>
     <use style="fill-opacity:0;stroke:#ff0000;stroke-linejoin:miter;stroke-width:1.5;" x="129.667765" xlink:href="#m6e3cfeb42b" y="271.029638"/>
     <use style="fill-opacity:0;stroke:#ff0000;stroke-linejoin:miter;stroke-width:1.5;" x="195.813252" xlink:href="#m6e3cfeb42b" y="202.033761"/>
     <use style="fill-opacity:0;stroke:#ff0000;stroke-linejoin:miter;stroke-width:1.5;" x="256.803514" xlink:href="#m6e3cfeb42b" y="30.860785"/>
     <use style="fill-opacity:0;stroke:#ff0000;stroke-linejoin:miter;stroke-width:1.5;" x="256.803514" xlink:href="#m6e3cfeb42b" y="30.334099"/>
     <use style="fill-opacity:0;stroke:#ff0000;stroke-linejoin:miter;stroke-width:1.5;" x="338.688" xlink:href="#m6e3cfeb42b" y="30.334099"/>
    </g>
   </g>
   <g id="line2d_52">
    <path style="fill:none;stroke:#ff0000;stroke-linecap:square;stroke-width:1.5;"/>
    <g/>
   </g>
   <g id="line2d_53">
    <path clip-path="url(#p572369dfae)" d="M 186.974717 220.99446 
" style="fill:none;stroke:#ff0000;stroke-linecap:square;stroke-width:1.5;"/>
    <defs>
     <path d="M -12 12 
L 12 -12 
M -12 -12 
L 12 12 
" id="m41a00f9fe6" style="stroke:#ff0000;"/>
    </defs>
    <g clip-path="url(#p572369dfae)">
     <use style="fill:#ff0000;stroke:#ff0000;" x="186.974717" xlink:href="#m41a00f9fe6" y="220.99446"/>
    </g>
   </g>
   <g id="line2d_54">
    <path d="M 338.688 251.542253 
L 369.60768 293.571802 
" style="fill:none;stroke:#000080;stroke-linecap:square;stroke-width:1.5;"/>
    <g>
     <use style="fill-opacity:0;stroke:#000080;stroke-width:1.5;" x="338.688" xlink:href="#m2b89483ac5" y="251.542253"/>
     <use style="fill-opacity:0;stroke:#000080;stroke-width:1.5;" x="369.60768" xlink:href="#m2b89483ac5" y="293.571802"/>
    </g>
   </g>
   <g id="line2d_55">
    <path d="M 338.688 77.735846 
L 369.60768 229.105426 
" style="fill:none;stroke:#6495ed;stroke-linecap:square;stroke-width:1.5;"/>
    <g>
     <use style="fill-opacity:0;stroke:#6495ed;stroke-linejoin:miter;stroke-width:1.5;" x="338.688" xlink:href="#m37f1fc3fa4" y="77.735846"/>
     <use style="fill-opacity:0;stroke:#6495ed;stroke-linejoin:miter;stroke-width:1.5;" x="369.60768" xlink:href="#m37f1fc3fa4" y="229.105426"/>
    </g>
   </g>
   <g id="line2d_56">
    <path d="M 338.688 30.334099 
L 369.60768 164.63905 
" style="fill:none;stroke:#ff0000;stroke-linecap:square;stroke-width:1.5;"/>
    <g>
     <use style="fill-opacity:0;stroke:#ff0000;stroke-linejoin:miter;stroke-width:1.5;" x="338.688" xlink:href="#m6e3cfeb42b" y="30.334099"/>
     <use style="fill-opacity:0;stroke:#ff0000;stroke-linejoin:miter;stroke-width:1.5;" x="369.60768" xlink:href="#m6e3cfeb42b" y="164.63905"/>
    </g>
   </g>
   <g id="line2d_57">
    <path d="M 338.688 30.334099 
L 369.60768 100.172673 
" style="fill:none;stroke:#ff7500;stroke-linecap:square;stroke-width:1.5;"/>
    <g>
     <use style="fill-opacity:0;stroke:#ff7500;stroke-linejoin:bevel;stroke-width:1.5;" x="338.688" xlink:href="#m4388b119f3" y="30.334099"/>
     <use style="fill-opacity:0;stroke:#ff7500;stroke-linejoin:bevel;stroke-width:1.5;" x="369.60768" xlink:href="#m4388b119f3" y="100.172673"/>
    </g>
   </g>
   <g id="line2d_58">
    <path d="M 338.688 298.944 
L 338.688 30.334099 
" style="fill:none;stroke:#000000;stroke-linecap:square;stroke-width:1.5;"/>
   </g>
   <g id="patch_3">
    <path d="M 57.6 298.944 
L 57.6 27.648 
" style="fill:none;stroke:#000000;stroke-linecap:square;stroke-linejoin:miter;stroke-width:0.8;"/>
   </g>
   <g id="patch_4">
    <path d="M 338.688 298.944 
L 338.688 27.648 
" style="fill:none;stroke:#000000;stroke-linecap:square;stroke-linejoin:miter;stroke-width:0.8;"/>
   </g>
   <g id="patch_5">
    <path d="M 57.6 298.944 
L 338.688 298.944 
" style="fill:none;stroke:#000000;stroke-linecap:square;stroke-linejoin:miter;stroke-width:0.8;"/>
   </g>
   <g id="patch_6">
    <path d="M 57.6 27.648 
L 338.688 27.648 
" style="fill:none;stroke:#000000;stroke-linecap:square;stroke-linejoin:miter;stroke-width:0.8;"/>
   </g>
   <g id="text_13">
    <!-- ABC -->
    <defs>
     <path d="M 34.1875 63.1875 
L 20.796875 26.90625 
L 47.609375 26.90625 
z
M 28.609375 72.90625 
L 39.796875 72.90625 
L 67.578125 0 
L 57.328125 0 
L 50.6875 18.703125 
L 17.828125 18.703125 
L 11.1875 0 
L 0.78125 0 
z
" id="DejaVuSans-65"/>
     <path d="M 19.671875 34.8125 
L 19.671875 8.109375 
L 35.5 8.109375 
Q 43.453125 8.109375 47.28125 11.40625 
Q 51.125 14.703125 51.125 21.484375 
Q 51.125 28.328125 47.28125 31.5625 
Q 43.453125 34.8125 35.5 34.8125 
z
M 19.671875 64.796875 
L 19.671875 42.828125 
L 34.28125 42.828125 
Q 41.5 42.828125 45.03125 45.53125 
Q 48.578125 48.25 48.578125 53.8125 
Q 48.578125 59.328125 45.03125 62.0625 
Q 41.5 64.796875 34.28125 64.796875 
z
M 9.8125 72.90625 
L 35.015625 72.90625 
Q 46.296875 72.90625 52.390625 68.21875 
Q 58.5 63.53125 58.5 54.890625 
Q 58.5 48.1875 55.375 44.234375 
Q 52.25 40.28125 46.1875 39.3125 
Q 53.46875 37.75 57.5 32.78125 
Q 61.53125 27.828125 61.53125 20.40625 
Q 61.53125 10.640625 54.890625 5.3125 
Q 48.25 0 35.984375 0 
L 9.8125 0 
z
" id="DejaVuSans-66"/>
     <path d="M 64.40625 67.28125 
L 64.40625 56.890625 
Q 59.421875 61.53125 53.78125 63.8125 
Q 48.140625 66.109375 41.796875 66.109375 
Q 29.296875 66.109375 22.65625 58.46875 
Q 16.015625 50.828125 16.015625 36.375 
Q 16.015625 21.96875 22.65625 14.328125 
Q 29.296875 6.6875 41.796875 6.6875 
Q 48.140625 6.6875 53.78125 8.984375 
Q 59.421875 11.28125 64.40625 15.921875 
L 64.40625 5.609375 
Q 59.234375 2.09375 53.4375 0.328125 
Q 47.65625 -1.421875 41.21875 -1.421875 
Q 24.65625 -1.421875 15.125 8.703125 
Q 5.609375 18.84375 5.609375 36.375 
Q 5.609375 53.953125 15.125 64.078125 
Q 24.65625 74.21875 41.21875 74.21875 
Q 47.75 74.21875 53.53125 72.484375 
Q 59.328125 70.75 64.40625 67.28125 
z
" id="DejaVuSans-67"/>
    </defs>
    <g transform="translate(375.22944 298.262739)scale(0.17 -0.17)">
     <use xlink:href="#DejaVuSans-65"/>
     <use x="68.408203" xlink:href="#DejaVuSans-66"/>
     <use x="135.261719" xlink:href="#DejaVuSans-67"/>
    </g>
   </g>
   <g id="text_14">
    <!-- DEPSO -->
    <defs>
     <path d="M 19.671875 64.796875 
L 19.671875 8.109375 
L 31.59375 8.109375 
Q 46.6875 8.109375 53.6875 14.9375 
Q 60.6875 21.78125 60.6875 36.53125 
Q 60.6875 51.171875 53.6875 57.984375 
Q 46.6875 64.796875 31.59375 64.796875 
z
M 9.8125 72.90625 
L 30.078125 72.90625 
Q 51.265625 72.90625 61.171875 64.09375 
Q 71.09375 55.28125 71.09375 36.53125 
Q 71.09375 17.671875 61.125 8.828125 
Q 51.171875 0 30.078125 0 
L 9.8125 0 
z
" id="DejaVuSans-68"/>
     <path d="M 9.8125 72.90625 
L 55.90625 72.90625 
L 55.90625 64.59375 
L 19.671875 64.59375 
L 19.671875 43.015625 
L 54.390625 43.015625 
L 54.390625 34.71875 
L 19.671875 34.71875 
L 19.671875 8.296875 
L 56.78125 8.296875 
L 56.78125 0 
L 9.8125 0 
z
" id="DejaVuSans-69"/>
     <path d="M 19.671875 64.796875 
L 19.671875 37.40625 
L 32.078125 37.40625 
Q 38.96875 37.40625 42.71875 40.96875 
Q 46.484375 44.53125 46.484375 51.125 
Q 46.484375 57.671875 42.71875 61.234375 
Q 38.96875 64.796875 32.078125 64.796875 
z
M 9.8125 72.90625 
L 32.078125 72.90625 
Q 44.34375 72.90625 50.609375 67.359375 
Q 56.890625 61.8125 56.890625 51.125 
Q 56.890625 40.328125 50.609375 34.8125 
Q 44.34375 29.296875 32.078125 29.296875 
L 19.671875 29.296875 
L 19.671875 0 
L 9.8125 0 
z
" id="DejaVuSans-80"/>
     <path d="M 53.515625 70.515625 
L 53.515625 60.890625 
Q 47.90625 63.578125 42.921875 64.890625 
Q 37.9375 66.21875 33.296875 66.21875 
Q 25.25 66.21875 20.875 63.09375 
Q 16.5 59.96875 16.5 54.203125 
Q 16.5 49.359375 19.40625 46.890625 
Q 22.3125 44.4375 30.421875 42.921875 
L 36.375 41.703125 
Q 47.40625 39.59375 52.65625 34.296875 
Q 57.90625 29 57.90625 20.125 
Q 57.90625 9.515625 50.796875 4.046875 
Q 43.703125 -1.421875 29.984375 -1.421875 
Q 24.8125 -1.421875 18.96875 -0.25 
Q 13.140625 0.921875 6.890625 3.21875 
L 6.890625 13.375 
Q 12.890625 10.015625 18.65625 8.296875 
Q 24.421875 6.59375 29.984375 6.59375 
Q 38.421875 6.59375 43.015625 9.90625 
Q 47.609375 13.234375 47.609375 19.390625 
Q 47.609375 24.75 44.3125 27.78125 
Q 41.015625 30.8125 33.5 32.328125 
L 27.484375 33.5 
Q 16.453125 35.6875 11.515625 40.375 
Q 6.59375 45.0625 6.59375 53.421875 
Q 6.59375 63.09375 13.40625 68.65625 
Q 20.21875 74.21875 32.171875 74.21875 
Q 37.3125 74.21875 42.625 73.28125 
Q 47.953125 72.359375 53.515625 70.515625 
z
" id="DejaVuSans-83"/>
     <path d="M 39.40625 66.21875 
Q 28.65625 66.21875 22.328125 58.203125 
Q 16.015625 50.203125 16.015625 36.375 
Q 16.015625 22.609375 22.328125 14.59375 
Q 28.65625 6.59375 39.40625 6.59375 
Q 50.140625 6.59375 56.421875 14.59375 
Q 62.703125 22.609375 62.703125 36.375 
Q 62.703125 50.203125 56.421875 58.203125 
Q 50.140625 66.21875 39.40625 66.21875 
z
M 39.40625 74.21875 
Q 54.734375 74.21875 63.90625 63.9375 
Q 73.09375 53.65625 73.09375 36.375 
Q 73.09375 19.140625 63.90625 8.859375 
Q 54.734375 -1.421875 39.40625 -1.421875 
Q 24.03125 -1.421875 14.8125 8.828125 
Q 5.609375 19.09375 5.609375 36.375 
Q 5.609375 53.65625 14.8125 63.9375 
Q 24.03125 74.21875 39.40625 74.21875 
z
" id="DejaVuSans-79"/>
    </defs>
    <g transform="translate(375.22944 233.796363)scale(0.17 -0.17)">
     <use xlink:href="#DejaVuSans-68"/>
     <use x="77.001953" xlink:href="#DejaVuSans-69"/>
     <use x="140.185547" xlink:href="#DejaVuSans-80"/>
     <use x="200.488281" xlink:href="#DejaVuSans-83"/>
     <use x="263.964844" xlink:href="#DejaVuSans-79"/>
    </g>
   </g>
   <g id="text_15">
    <!-- PSO -->
    <g transform="translate(375.22944 169.329987)scale(0.17 -0.17)">
     <use xlink:href="#DejaVuSans-80"/>
     <use x="60.302734" xlink:href="#DejaVuSans-83"/>
     <use x="123.779297" xlink:href="#DejaVuSans-79"/>
    </g>
   </g>
   <g id="text_16">
    <!-- DE -->
    <g transform="translate(375.22944 104.863611)scale(0.17 -0.17)">
     <use xlink:href="#DejaVuSans-68"/>
     <use x="77.001953" xlink:href="#DejaVuSans-69"/>
    </g>
   </g>
   <g id="text_17">
    <!-- best 2009 -->
    <defs>
     <path d="M 48.6875 27.296875 
Q 48.6875 37.203125 44.609375 42.84375 
Q 40.53125 48.484375 33.40625 48.484375 
Q 26.265625 48.484375 22.1875 42.84375 
Q 18.109375 37.203125 18.109375 27.296875 
Q 18.109375 17.390625 22.1875 11.75 
Q 26.265625 6.109375 33.40625 6.109375 
Q 40.53125 6.109375 44.609375 11.75 
Q 48.6875 17.390625 48.6875 27.296875 
z
M 18.109375 46.390625 
Q 20.953125 51.265625 25.265625 53.625 
Q 29.59375 56 35.59375 56 
Q 45.5625 56 51.78125 48.09375 
Q 58.015625 40.1875 58.015625 27.296875 
Q 58.015625 14.40625 51.78125 6.484375 
Q 45.5625 -1.421875 35.59375 -1.421875 
Q 29.59375 -1.421875 25.265625 0.953125 
Q 20.953125 3.328125 18.109375 8.203125 
L 18.109375 0 
L 9.078125 0 
L 9.078125 75.984375 
L 18.109375 75.984375 
z
" id="DejaVuSans-98"/>
     <path d="M 10.984375 1.515625 
L 10.984375 10.5 
Q 14.703125 8.734375 18.5 7.8125 
Q 22.3125 6.890625 25.984375 6.890625 
Q 35.75 6.890625 40.890625 13.453125 
Q 46.046875 20.015625 46.78125 33.40625 
Q 43.953125 29.203125 39.59375 26.953125 
Q 35.25 24.703125 29.984375 24.703125 
Q 19.046875 24.703125 12.671875 31.3125 
Q 6.296875 37.9375 6.296875 49.421875 
Q 6.296875 60.640625 12.9375 67.421875 
Q 19.578125 74.21875 30.609375 74.21875 
Q 43.265625 74.21875 49.921875 64.515625 
Q 56.59375 54.828125 56.59375 36.375 
Q 56.59375 19.140625 48.40625 8.859375 
Q 40.234375 -1.421875 26.421875 -1.421875 
Q 22.703125 -1.421875 18.890625 -0.6875 
Q 15.09375 0.046875 10.984375 1.515625 
z
M 30.609375 32.421875 
Q 37.25 32.421875 41.125 36.953125 
Q 45.015625 41.5 45.015625 49.421875 
Q 45.015625 57.28125 41.125 61.84375 
Q 37.25 66.40625 30.609375 66.40625 
Q 23.96875 66.40625 20.09375 61.84375 
Q 16.21875 57.28125 16.21875 49.421875 
Q 16.21875 41.5 20.09375 36.953125 
Q 23.96875 32.421875 30.609375 32.421875 
z
" id="DejaVuSans-57"/>
    </defs>
    <g transform="translate(375.22944 40.397235)scale(0.17 -0.17)">
     <use xlink:href="#DejaVuSans-98"/>
     <use x="63.476562" xlink:href="#DejaVuSans-101"/>
     <use x="125" xlink:href="#DejaVuSans-115"/>
     <use x="177.099609" xlink:href="#DejaVuSans-116"/>
     <use x="216.308594" xlink:href="#DejaVuSans-32"/>
     <use x="248.095703" xlink:href="#DejaVuSans-50"/>
     <use x="311.71875" xlink:href="#DejaVuSans-48"/>
     <use x="375.341797" xlink:href="#DejaVuSans-48"/>
     <use x="438.964844" xlink:href="#DejaVuSans-57"/>
    </g>
   </g>
   <g id="text_18">
    <!-- bbob f3, 3-D -->
    <defs>
     <path d="M 40.578125 39.3125 
Q 47.65625 37.796875 51.625 33 
Q 55.609375 28.21875 55.609375 21.1875 
Q 55.609375 10.40625 48.1875 4.484375 
Q 40.765625 -1.421875 27.09375 -1.421875 
Q 22.515625 -1.421875 17.65625 -0.515625 
Q 12.796875 0.390625 7.625 2.203125 
L 7.625 11.71875 
Q 11.71875 9.328125 16.59375 8.109375 
Q 21.484375 6.890625 26.8125 6.890625 
Q 36.078125 6.890625 40.9375 10.546875 
Q 45.796875 14.203125 45.796875 21.1875 
Q 45.796875 27.640625 41.28125 31.265625 
Q 36.765625 34.90625 28.71875 34.90625 
L 20.21875 34.90625 
L 20.21875 43.015625 
L 29.109375 43.015625 
Q 36.375 43.015625 40.234375 45.921875 
Q 44.09375 48.828125 44.09375 54.296875 
Q 44.09375 59.90625 40.109375 62.90625 
Q 36.140625 65.921875 28.71875 65.921875 
Q 24.65625 65.921875 20.015625 65.03125 
Q 15.375 64.15625 9.8125 62.3125 
L 9.8125 71.09375 
Q 15.4375 72.65625 20.34375 73.4375 
Q 25.25 74.21875 29.59375 74.21875 
Q 40.828125 74.21875 47.359375 69.109375 
Q 53.90625 64.015625 53.90625 55.328125 
Q 53.90625 49.265625 50.4375 45.09375 
Q 46.96875 40.921875 40.578125 39.3125 
z
" id="DejaVuSans-51"/>
    </defs>
    <g transform="translate(60.41088 38.111366)scale(0.102 -0.102)">
     <use xlink:href="#DejaVuSans-98"/>
     <use x="63.476562" xlink:href="#DejaVuSans-98"/>
     <use x="126.953125" xlink:href="#DejaVuSans-111"/>
     <use x="188.134766" xlink:href="#DejaVuSans-98"/>
     <use x="251.611328" xlink:href="#DejaVuSans-32"/>
     <use x="283.398438" xlink:href="#DejaVuSans-102"/>
     <use x="318.603516" xlink:href="#DejaVuSans-51"/>
     <use x="382.226562" xlink:href="#DejaVuSans-44"/>
     <use x="414.013672" xlink:href="#DejaVuSans-32"/>
     <use x="445.800781" xlink:href="#DejaVuSans-51"/>
     <use x="509.423828" xlink:href="#DejaVuSans-45"/>
     <use x="545.507812" xlink:href="#DejaVuSans-68"/>
    </g>
    <!-- 51 targets: 100..1e-08 -->
    <defs>
     <path d="M 10.796875 72.90625 
L 49.515625 72.90625 
L 49.515625 64.59375 
L 19.828125 64.59375 
L 19.828125 46.734375 
Q 21.96875 47.46875 24.109375 47.828125 
Q 26.265625 48.1875 28.421875 48.1875 
Q 40.625 48.1875 47.75 41.5 
Q 54.890625 34.8125 54.890625 23.390625 
Q 54.890625 11.625 47.5625 5.09375 
Q 40.234375 -1.421875 26.90625 -1.421875 
Q 22.3125 -1.421875 17.546875 -0.640625 
Q 12.796875 0.140625 7.71875 1.703125 
L 7.71875 11.625 
Q 12.109375 9.234375 16.796875 8.0625 
Q 21.484375 6.890625 26.703125 6.890625 
Q 35.15625 6.890625 40.078125 11.328125 
Q 45.015625 15.765625 45.015625 23.390625 
Q 45.015625 31 40.078125 35.4375 
Q 35.15625 39.890625 26.703125 39.890625 
Q 22.75 39.890625 18.8125 39.015625 
Q 14.890625 38.140625 10.796875 36.28125 
z
" id="DejaVuSans-53"/>
     <path d="M 11.71875 12.40625 
L 22.015625 12.40625 
L 22.015625 0 
L 11.71875 0 
z
M 11.71875 51.703125 
L 22.015625 51.703125 
L 22.015625 39.3125 
L 11.71875 39.3125 
z
" id="DejaVuSans-58"/>
    </defs>
    <g transform="translate(60.41088 49.533135)scale(0.102 -0.102)">
     <use xlink:href="#DejaVuSans-53"/>
     <use x="63.623047" xlink:href="#DejaVuSans-49"/>
     <use x="127.246094" xlink:href="#DejaVuSans-32"/>
     <use x="159.033203" xlink:href="#DejaVuSans-116"/>
     <use x="198.242188" xlink:href="#DejaVuSans-97"/>
     <use x="259.521484" xlink:href="#DejaVuSans-114"/>
     <use x="298.884766" xlink:href="#DejaVuSans-103"/>
     <use x="362.361328" xlink:href="#DejaVuSans-101"/>
     <use x="423.884766" xlink:href="#DejaVuSans-116"/>
     <use x="463.09375" xlink:href="#DejaVuSans-115"/>
     <use x="515.193359" xlink:href="#DejaVuSans-58"/>
     <use x="548.884766" xlink:href="#DejaVuSans-32"/>
     <use x="580.671875" xlink:href="#DejaVuSans-49"/>
     <use x="644.294922" xlink:href="#DejaVuSans-48"/>
     <use x="707.917969" xlink:href="#DejaVuSans-48"/>
     <use x="771.541016" xlink:href="#DejaVuSans-46"/>
     <use x="803.328125" xlink:href="#DejaVuSans-46"/>
     <use x="835.115234" xlink:href="#DejaVuSans-49"/>
     <use x="898.738281" xlink:href="#DejaVuSans-101"/>
     <use x="960.261719" xlink:href="#DejaVuSans-45"/>
     <use x="996.345703" xlink:href="#DejaVuSans-48"/>
     <use x="1059.96875" xlink:href="#DejaVuSans-56"/>
    </g>
    <!-- 15 instances -->
    <g transform="translate(60.41088 60.954904)scale(0.102 -0.102)">
     <use xlink:href="#DejaVuSans-49"/>
     <use x="63.623047" xlink:href="#DejaVuSans-53"/>
     <use x="127.246094" xlink:href="#DejaVuSans-32"/>
     <use x="159.033203" xlink:href="#DejaVuSans-105"/>
     <use x="186.816406" xlink:href="#DejaVuSans-110"/>
     <use x="250.195312" xlink:href="#DejaVuSans-115"/>
     <use x="302.294922" xlink:href="#DejaVuSans-116"/>
     <use x="341.503906" xlink:href="#DejaVuSans-97"/>
     <use x="402.783203" xlink:href="#DejaVuSans-110"/>
     <use x="466.162109" xlink:href="#DejaVuSans-99"/>
     <use x="521.142578" xlink:href="#DejaVuSans-101"/>
     <use x="582.666016" xlink:href="#DejaVuSans-115"/>
    </g>
   </g>
   <g id="text_19">
    <!-- v2.4 -->
    <g style="fill:#808080;" transform="translate(187.233062 294.151352)scale(0.1 -0.1)">
     <use xlink:href="#DejaVuSans-118"/>
     <use x="59.179688" xlink:href="#DejaVuSans-50"/>
     <use x="122.802734" xlink:href="#DejaVuSans-46"/>
     <use x="154.589844" xlink:href="#DejaVuSans-52"/>
    </g>
   </g>
   <g id="text_20">
    <!-- 3 Rastrigin separable -->
    <defs>
     <path d="M 44.390625 34.1875 
Q 47.5625 33.109375 50.5625 29.59375 
Q 53.5625 26.078125 56.59375 19.921875 
L 66.609375 0 
L 56 0 
L 46.6875 18.703125 
Q 43.0625 26.03125 39.671875 28.421875 
Q 36.28125 30.8125 30.421875 30.8125 
L 19.671875 30.8125 
L 19.671875 0 
L 9.8125 0 
L 9.8125 72.90625 
L 32.078125 72.90625 
Q 44.578125 72.90625 50.734375 67.671875 
Q 56.890625 62.453125 56.890625 51.90625 
Q 56.890625 45.015625 53.6875 40.46875 
Q 50.484375 35.9375 44.390625 34.1875 
z
M 19.671875 64.796875 
L 19.671875 38.921875 
L 32.078125 38.921875 
Q 39.203125 38.921875 42.84375 42.21875 
Q 46.484375 45.515625 46.484375 51.90625 
Q 46.484375 58.296875 42.84375 61.546875 
Q 39.203125 64.796875 32.078125 64.796875 
z
" id="DejaVuSans-82"/>
    </defs>
    <g transform="translate(91.733062 21.648)scale(0.2 -0.2)">
     <use xlink:href="#DejaVuSans-51"/>
     <use x="63.623047" xlink:href="#DejaVuSans-32"/>
     <use x="95.410156" xlink:href="#DejaVuSans-82"/>
     <use x="162.642578" xlink:href="#DejaVuSans-97"/>
     <use x="223.921875" xlink:href="#DejaVuSans-115"/>
     <use x="276.021484" xlink:href="#DejaVuSans-116"/>
     <use x="315.230469" xlink:href="#DejaVuSans-114"/>
     <use x="356.34375" xlink:href="#DejaVuSans-105"/>
     <use x="384.126953" xlink:href="#DejaVuSans-103"/>
     <use x="447.603516" xlink:href="#DejaVuSans-105"/>
     <use x="475.386719" xlink:href="#DejaVuSans-110"/>
     <use x="538.765625" xlink:href="#DejaVuSans-32"/>
     <use x="570.552734" xlink:href="#DejaVuSans-115"/>
     <use x="622.652344" xlink:href="#DejaVuSans-101"/>
     <use x="684.175781" xlink:href="#DejaVuSans-112"/>
     <use x="747.652344" xlink:href="#DejaVuSans-97"/>
     <use x="808.931641" xlink:href="#DejaVuSans-114"/>
     <use x="850.044922" xlink:href="#DejaVuSans-97"/>
     <use x="911.324219" xlink:href="#DejaVuSans-98"/>
     <use x="974.800781" xlink:href="#DejaVuSans-108"/>
     <use x="1002.583984" xlink:href="#DejaVuSans-101"/>
    </g>
   </g>
  </g>
 </g>
 <defs>
  <clipPath id="p572369dfae">
   <rect height="271.296" width="281.088" x="57.6" y="27.648"/>
  </clipPath>
 </defs>
</svg>
