<?xml version="1.0" encoding="utf-8" standalone="no"?>
<!DOCTYPE svg PUBLIC "-//W3C//DTD SVG 1.1//EN"
  "http://www.w3.org/Graphics/SVG/1.1/DTD/svg11.dtd">
<!-- Created with matplotlib (https://matplotlib.org/) -->
<svg height="345.6pt" version="1.1" viewBox="0 0 460.8 345.6" width="460.8pt" xmlns="http://www.w3.org/2000/svg" xmlns:xlink="http://www.w3.org/1999/xlink">
 <defs>
  <style type="text/css">
*{stroke-linecap:butt;stroke-linejoin:round;}
  </style>
 </defs>
 <g id="figure_1">
  <g id="patch_1">
   <path d="M 0 345.6 
L 460.8 345.6 
L 460.8 0 
L 0 0 
z
" style="fill:#ffffff;"/>
  </g>
  <g id="axes_1">
   <g id="patch_2">
    <path d="M 57.6 298.944 
L 338.688 298.944 
L 338.688 27.648 
L 57.6 27.648 
z
" style="fill:#ffffff;"/>
   </g>
   <g id="line2d_1">
    <path d="M 17.444571 298.944 
L 17.444571 293.677139 
L 67.850577 293.677139 
L 67.850577 288.410278 
L 76.759008 288.410278 
L 76.759008 283.143418 
L 83.037197 283.143418 
L 83.037197 277.876557 
L 93.197415 277.876557 
L 93.197415 272.609696 
L 97.403108 272.609696 
L 97.403108 267.342835 
L 105.398279 267.342835 
L 105.398279 262.075974 
L 129.88095 262.075974 
L 129.88095 256.809114 
L 134.279041 256.809114 
L 134.279041 251.542253 
L 156.040206 251.542253 
L 156.040206 246.275392 
L 156.107908 246.275392 
L 156.107908 241.008531 
L 169.443254 241.008531 
L 169.443254 235.74167 
L 169.724059 235.74167 
L 169.724059 230.47481 
L 169.830653 230.47481 
L 169.830653 225.207949 
L 169.878129 225.207949 
L 169.878129 219.941088 
L 170.154817 219.941088 
L 170.154817 214.674227 
L 170.2479 214.674227 
L 170.2479 209.407366 
L 170.432588 209.407366 
L 170.432588 204.140506 
L 170.559106 204.140506 
L 170.559106 198.873645 
L 170.671394 198.873645 
L 170.671394 193.606784 
L 170.872762 193.606784 
L 170.872762 188.339923 
L 170.951613 188.339923 
L 170.951613 183.073062 
L 170.990905 183.073062 
L 170.990905 177.806202 
L 171.196397 177.806202 
L 171.196397 172.539341 
L 171.309807 172.539341 
L 171.309807 167.27248 
L 171.335479 167.27248 
L 171.335479 162.005619 
L 171.534438 162.005619 
L 171.534438 156.738758 
L 171.559782 156.738758 
L 171.559782 151.471897 
L 171.577501 151.471897 
L 171.577501 146.205037 
L 171.620458 146.205037 
L 171.620458 140.938176 
L 171.655755 140.938176 
L 171.655755 135.671315 
L 171.890917 135.671315 
L 171.890917 130.404454 
L 171.920711 130.404454 
L 171.920711 125.137593 
L 172.066461 125.137593 
L 172.066461 119.870733 
L 174.789496 119.870733 
L 174.789496 114.603872 
L 174.808425 114.603872 
L 174.808425 109.337011 
L 175.006993 109.337011 
L 175.006993 104.07015 
L 175.058874 104.07015 
L 175.058874 98.803289 
L 175.081653 98.803289 
L 175.081653 93.536429 
L 175.174531 93.536429 
L 175.174531 88.269568 
L 178.534298 88.269568 
L 178.534298 83.002707 
L 178.547874 83.002707 
L 178.547874 77.735846 
L 178.578383 77.735846 
L 178.578383 72.468985 
L 178.597002 72.468985 
L 178.597002 67.202125 
L 178.624047 67.202125 
L 178.624047 61.935264 
L 178.667907 61.935264 
L 178.667907 56.668403 
L 178.679696 56.668403 
L 178.679696 51.401542 
L 183.266275 51.401542 
L 183.266275 46.134681 
L 183.310225 46.134681 
L 183.310225 40.867821 
L 183.341183 40.867821 
L 183.341183 35.60096 
L 183.572899 35.60096 
L 183.572899 30.334099 
L 338.688 30.334099 
" style="fill:none;stroke:#f5deb3;stroke-linecap:square;stroke-width:4;"/>
   </g>
   <g id="line2d_2">
    <defs>
     <path d="M -0 7.778175 
L 7.778175 0 
L 0 -7.778175 
L -7.778175 -0 
z
" id="m78294630af" style="stroke:#f5deb3;stroke-linejoin:miter;stroke-width:1.5;"/>
    </defs>
    <g>
     <use style="fill:#f5deb3;stroke:#f5deb3;stroke-linejoin:miter;stroke-width:1.5;" x="156.107908" xlink:href="#m78294630af" y="241.008531"/>
     <use style="fill:#f5deb3;stroke:#f5deb3;stroke-linejoin:miter;stroke-width:1.5;" x="171.890917" xlink:href="#m78294630af" y="130.404454"/>
     <use style="fill:#f5deb3;stroke:#f5deb3;stroke-linejoin:miter;stroke-width:1.5;" x="183.572899" xlink:href="#m78294630af" y="35.60096"/>
     <use style="fill:#f5deb3;stroke:#f5deb3;stroke-linejoin:miter;stroke-width:1.5;" x="183.572899" xlink:href="#m78294630af" y="30.334099"/>
     <use style="fill:#f5deb3;stroke:#f5deb3;stroke-linejoin:miter;stroke-width:1.5;" x="183.572899" xlink:href="#m78294630af" y="30.334099"/>
     <use style="fill:#f5deb3;stroke:#f5deb3;stroke-linejoin:miter;stroke-width:1.5;" x="338.688" xlink:href="#m78294630af" y="30.334099"/>
    </g>
   </g>
   <g id="line2d_3">
    <path style="fill:none;stroke:#f5deb3;stroke-linecap:square;stroke-width:4;"/>
    <g/>
   </g>
   <g id="line2d_4">
    <path d="M 338.688 30.334099 
L 369.60768 35.706297 
" style="fill:none;stroke:#f5deb3;stroke-linecap:square;stroke-width:4;"/>
    <g>
     <use style="fill:#f5deb3;stroke:#f5deb3;stroke-linejoin:miter;stroke-width:1.5;" x="338.688" xlink:href="#m78294630af" y="30.334099"/>
     <use style="fill:#f5deb3;stroke:#f5deb3;stroke-linejoin:miter;stroke-width:1.5;" x="369.60768" xlink:href="#m78294630af" y="35.706297"/>
    </g>
   </g>
   <g id="matplotlib.axis_1">
    <g id="xtick_1">
     <g id="line2d_5">
      <path clip-path="url(#p7c1625f250)" d="M 57.6 298.944 
L 57.6 27.648 
" style="fill:none;stroke:#b0b0b0;stroke-linecap:square;stroke-width:0.8;"/>
     </g>
     <g id="line2d_6">
      <defs>
       <path d="M 0 0 
L 0 3.5 
" id="m8b75db908e" style="stroke:#000000;stroke-width:0.8;"/>
      </defs>
      <g>
       <use style="stroke:#000000;stroke-width:0.8;" x="57.6" xlink:href="#m8b75db908e" y="298.944"/>
      </g>
     </g>
     <g id="text_1">
      <!-- 0 -->
      <defs>
       <path d="M 31.78125 66.40625 
Q 24.171875 66.40625 20.328125 58.90625 
Q 16.5 51.421875 16.5 36.375 
Q 16.5 21.390625 20.328125 13.890625 
Q 24.171875 6.390625 31.78125 6.390625 
Q 39.453125 6.390625 43.28125 13.890625 
Q 47.125 21.390625 47.125 36.375 
Q 47.125 51.421875 43.28125 58.90625 
Q 39.453125 66.40625 31.78125 66.40625 
z
M 31.78125 74.21875 
Q 44.046875 74.21875 50.515625 64.515625 
Q 56.984375 54.828125 56.984375 36.375 
Q 56.984375 17.96875 50.515625 8.265625 
Q 44.046875 -1.421875 31.78125 -1.421875 
Q 19.53125 -1.421875 13.0625 8.265625 
Q 6.59375 17.96875 6.59375 36.375 
Q 6.59375 54.828125 13.0625 64.515625 
Q 19.53125 74.21875 31.78125 74.21875 
z
" id="DejaVuSans-48"/>
      </defs>
      <g transform="translate(51.2375 321.140875)scale(0.2 -0.2)">
       <use xlink:href="#DejaVuSans-48"/>
      </g>
     </g>
    </g>
    <g id="xtick_2">
     <g id="line2d_7">
      <path clip-path="url(#p7c1625f250)" d="M 137.910857 298.944 
L 137.910857 27.648 
" style="fill:none;stroke:#b0b0b0;stroke-linecap:square;stroke-width:0.8;"/>
     </g>
     <g id="line2d_8">
      <g>
       <use style="stroke:#000000;stroke-width:0.8;" x="137.910857" xlink:href="#m8b75db908e" y="298.944"/>
      </g>
     </g>
     <g id="text_2">
      <!-- 2 -->
      <defs>
       <path d="M 19.1875 8.296875 
L 53.609375 8.296875 
L 53.609375 0 
L 7.328125 0 
L 7.328125 8.296875 
Q 12.9375 14.109375 22.625 23.890625 
Q 32.328125 33.6875 34.8125 36.53125 
Q 39.546875 41.84375 41.421875 45.53125 
Q 43.3125 49.21875 43.3125 52.78125 
Q 43.3125 58.59375 39.234375 62.25 
Q 35.15625 65.921875 28.609375 65.921875 
Q 23.96875 65.921875 18.8125 64.3125 
Q 13.671875 62.703125 7.8125 59.421875 
L 7.8125 69.390625 
Q 13.765625 71.78125 18.9375 73 
Q 24.125 74.21875 28.421875 74.21875 
Q 39.75 74.21875 46.484375 68.546875 
Q 53.21875 62.890625 53.21875 53.421875 
Q 53.21875 48.921875 51.53125 44.890625 
Q 49.859375 40.875 45.40625 35.40625 
Q 44.1875 33.984375 37.640625 27.21875 
Q 31.109375 20.453125 19.1875 8.296875 
z
" id="DejaVuSans-50"/>
      </defs>
      <g transform="translate(131.548357 321.140875)scale(0.2 -0.2)">
       <use xlink:href="#DejaVuSans-50"/>
      </g>
     </g>
    </g>
    <g id="xtick_3">
     <g id="line2d_9">
      <path clip-path="url(#p7c1625f250)" d="M 218.221714 298.944 
L 218.221714 27.648 
" style="fill:none;stroke:#b0b0b0;stroke-linecap:square;stroke-width:0.8;"/>
     </g>
     <g id="line2d_10">
      <g>
       <use style="stroke:#000000;stroke-width:0.8;" x="218.221714" xlink:href="#m8b75db908e" y="298.944"/>
      </g>
     </g>
     <g id="text_3">
      <!-- 4 -->
      <defs>
       <path d="M 37.796875 64.3125 
L 12.890625 25.390625 
L 37.796875 25.390625 
z
M 35.203125 72.90625 
L 47.609375 72.90625 
L 47.609375 25.390625 
L 58.015625 25.390625 
L 58.015625 17.1875 
L 47.609375 17.1875 
L 47.609375 0 
L 37.796875 0 
L 37.796875 17.1875 
L 4.890625 17.1875 
L 4.890625 26.703125 
z
" id="DejaVuSans-52"/>
      </defs>
      <g transform="translate(211.859214 321.140875)scale(0.2 -0.2)">
       <use xlink:href="#DejaVuSans-52"/>
      </g>
     </g>
    </g>
    <g id="xtick_4">
     <g id="line2d_11">
      <path clip-path="url(#p7c1625f250)" d="M 298.532571 298.944 
L 298.532571 27.648 
" style="fill:none;stroke:#b0b0b0;stroke-linecap:square;stroke-width:0.8;"/>
     </g>
     <g id="line2d_12">
      <g>
       <use style="stroke:#000000;stroke-width:0.8;" x="298.532571" xlink:href="#m8b75db908e" y="298.944"/>
      </g>
     </g>
     <g id="text_4">
      <!-- 6 -->
      <defs>
       <path d="M 33.015625 40.375 
Q 26.375 40.375 22.484375 35.828125 
Q 18.609375 31.296875 18.609375 23.390625 
Q 18.609375 15.53125 22.484375 10.953125 
Q 26.375 6.390625 33.015625 6.390625 
Q 39.65625 6.390625 43.53125 10.953125 
Q 47.40625 15.53125 47.40625 23.390625 
Q 47.40625 31.296875 43.53125 35.828125 
Q 39.65625 40.375 33.015625 40.375 
z
M 52.59375 71.296875 
L 52.59375 62.3125 
Q 48.875 64.0625 45.09375 64.984375 
Q 41.3125 65.921875 37.59375 65.921875 
Q 27.828125 65.921875 22.671875 59.328125 
Q 17.53125 52.734375 16.796875 39.40625 
Q 19.671875 43.65625 24.015625 45.921875 
Q 28.375 48.1875 33.59375 48.1875 
Q 44.578125 48.1875 50.953125 41.515625 
Q 57.328125 34.859375 57.328125 23.390625 
Q 57.328125 12.15625 50.6875 5.359375 
Q 44.046875 -1.421875 33.015625 -1.421875 
Q 20.359375 -1.421875 13.671875 8.265625 
Q 6.984375 17.96875 6.984375 36.375 
Q 6.984375 53.65625 15.1875 63.9375 
Q 23.390625 74.21875 37.203125 74.21875 
Q 40.921875 74.21875 44.703125 73.484375 
Q 48.484375 72.75 52.59375 71.296875 
z
" id="DejaVuSans-54"/>
      </defs>
      <g transform="translate(292.170071 321.140875)scale(0.2 -0.2)">
       <use xlink:href="#DejaVuSans-54"/>
      </g>
     </g>
    </g>
    <g id="xtick_5">
     <g id="line2d_13">
      <path clip-path="url(#p7c1625f250)" d="M 97.755429 298.944 
L 97.755429 27.648 
" style="fill:none;stroke:#b0b0b0;stroke-linecap:square;stroke-width:0.8;"/>
     </g>
     <g id="line2d_14">
      <defs>
       <path d="M 0 0 
L 0 2 
" id="m1ccd805290" style="stroke:#000000;stroke-width:0.6;"/>
      </defs>
      <g>
       <use style="stroke:#000000;stroke-width:0.6;" x="97.755429" xlink:href="#m1ccd805290" y="298.944"/>
      </g>
     </g>
    </g>
    <g id="xtick_6">
     <g id="line2d_15">
      <path clip-path="url(#p7c1625f250)" d="M 178.066286 298.944 
L 178.066286 27.648 
" style="fill:none;stroke:#b0b0b0;stroke-linecap:square;stroke-width:0.8;"/>
     </g>
     <g id="line2d_16">
      <g>
       <use style="stroke:#000000;stroke-width:0.6;" x="178.066286" xlink:href="#m1ccd805290" y="298.944"/>
      </g>
     </g>
    </g>
    <g id="xtick_7">
     <g id="line2d_17">
      <path clip-path="url(#p7c1625f250)" d="M 258.377143 298.944 
L 258.377143 27.648 
" style="fill:none;stroke:#b0b0b0;stroke-linecap:square;stroke-width:0.8;"/>
     </g>
     <g id="line2d_18">
      <g>
       <use style="stroke:#000000;stroke-width:0.6;" x="258.377143" xlink:href="#m1ccd805290" y="298.944"/>
      </g>
     </g>
    </g>
    <g id="xtick_8">
     <g id="line2d_19">
      <path clip-path="url(#p7c1625f250)" d="M 338.688 298.944 
L 338.688 27.648 
" style="fill:none;stroke:#b0b0b0;stroke-linecap:square;stroke-width:0.8;"/>
     </g>
     <g id="line2d_20">
      <g>
       <use style="stroke:#000000;stroke-width:0.6;" x="338.688" xlink:href="#m1ccd805290" y="298.944"/>
      </g>
     </g>
    </g>
    <g id="text_5">
     <!-- log10(# f-evals / dimension) -->
     <defs>
      <path d="M 9.421875 75.984375 
L 18.40625 75.984375 
L 18.40625 0 
L 9.421875 0 
z
" id="DejaVuSans-108"/>
      <path d="M 30.609375 48.390625 
Q 23.390625 48.390625 19.1875 42.75 
Q 14.984375 37.109375 14.984375 27.296875 
Q 14.984375 17.484375 19.15625 11.84375 
Q 23.34375 6.203125 30.609375 6.203125 
Q 37.796875 6.203125 41.984375 11.859375 
Q 46.1875 17.53125 46.1875 27.296875 
Q 46.1875 37.015625 41.984375 42.703125 
Q 37.796875 48.390625 30.609375 48.390625 
z
M 30.609375 56 
Q 42.328125 56 49.015625 48.375 
Q 55.71875 40.765625 55.71875 27.296875 
Q 55.71875 13.875 49.015625 6.21875 
Q 42.328125 -1.421875 30.609375 -1.421875 
Q 18.84375 -1.421875 12.171875 6.21875 
Q 5.515625 13.875 5.515625 27.296875 
Q 5.515625 40.765625 12.171875 48.375 
Q 18.84375 56 30.609375 56 
z
" id="DejaVuSans-111"/>
      <path d="M 45.40625 27.984375 
Q 45.40625 37.75 41.375 43.109375 
Q 37.359375 48.484375 30.078125 48.484375 
Q 22.859375 48.484375 18.828125 43.109375 
Q 14.796875 37.75 14.796875 27.984375 
Q 14.796875 18.265625 18.828125 12.890625 
Q 22.859375 7.515625 30.078125 7.515625 
Q 37.359375 7.515625 41.375 12.890625 
Q 45.40625 18.265625 45.40625 27.984375 
z
M 54.390625 6.78125 
Q 54.390625 -7.171875 48.1875 -13.984375 
Q 42 -20.796875 29.203125 -20.796875 
Q 24.46875 -20.796875 20.265625 -20.09375 
Q 16.0625 -19.390625 12.109375 -17.921875 
L 12.109375 -9.1875 
Q 16.0625 -11.328125 19.921875 -12.34375 
Q 23.78125 -13.375 27.78125 -13.375 
Q 36.625 -13.375 41.015625 -8.765625 
Q 45.40625 -4.15625 45.40625 5.171875 
L 45.40625 9.625 
Q 42.625 4.78125 38.28125 2.390625 
Q 33.9375 0 27.875 0 
Q 17.828125 0 11.671875 7.65625 
Q 5.515625 15.328125 5.515625 27.984375 
Q 5.515625 40.671875 11.671875 48.328125 
Q 17.828125 56 27.875 56 
Q 33.9375 56 38.28125 53.609375 
Q 42.625 51.21875 45.40625 46.390625 
L 45.40625 54.6875 
L 54.390625 54.6875 
z
" id="DejaVuSans-103"/>
      <path d="M 12.40625 8.296875 
L 28.515625 8.296875 
L 28.515625 63.921875 
L 10.984375 60.40625 
L 10.984375 69.390625 
L 28.421875 72.90625 
L 38.28125 72.90625 
L 38.28125 8.296875 
L 54.390625 8.296875 
L 54.390625 0 
L 12.40625 0 
z
" id="DejaVuSans-49"/>
      <path d="M 31 75.875 
Q 24.46875 64.65625 21.28125 53.65625 
Q 18.109375 42.671875 18.109375 31.390625 
Q 18.109375 20.125 21.3125 9.0625 
Q 24.515625 -2 31 -13.1875 
L 23.1875 -13.1875 
Q 15.875 -1.703125 12.234375 9.375 
Q 8.59375 20.453125 8.59375 31.390625 
Q 8.59375 42.28125 12.203125 53.3125 
Q 15.828125 64.359375 23.1875 75.875 
z
" id="DejaVuSans-40"/>
      <path d="M 51.125 44 
L 36.921875 44 
L 32.8125 27.6875 
L 47.125 27.6875 
z
M 43.796875 71.78125 
L 38.71875 51.515625 
L 52.984375 51.515625 
L 58.109375 71.78125 
L 65.921875 71.78125 
L 60.890625 51.515625 
L 76.125 51.515625 
L 76.125 44 
L 58.984375 44 
L 54.984375 27.6875 
L 70.515625 27.6875 
L 70.515625 20.21875 
L 53.078125 20.21875 
L 48 0 
L 40.1875 0 
L 45.21875 20.21875 
L 30.90625 20.21875 
L 25.875 0 
L 18.015625 0 
L 23.09375 20.21875 
L 7.71875 20.21875 
L 7.71875 27.6875 
L 24.90625 27.6875 
L 29 44 
L 13.28125 44 
L 13.28125 51.515625 
L 30.90625 51.515625 
L 35.890625 71.78125 
z
" id="DejaVuSans-35"/>
      <path id="DejaVuSans-32"/>
      <path d="M 37.109375 75.984375 
L 37.109375 68.5 
L 28.515625 68.5 
Q 23.6875 68.5 21.796875 66.546875 
Q 19.921875 64.59375 19.921875 59.515625 
L 19.921875 54.6875 
L 34.71875 54.6875 
L 34.71875 47.703125 
L 19.921875 47.703125 
L 19.921875 0 
L 10.890625 0 
L 10.890625 47.703125 
L 2.296875 47.703125 
L 2.296875 54.6875 
L 10.890625 54.6875 
L 10.890625 58.5 
Q 10.890625 67.625 15.140625 71.796875 
Q 19.390625 75.984375 28.609375 75.984375 
z
" id="DejaVuSans-102"/>
      <path d="M 4.890625 31.390625 
L 31.203125 31.390625 
L 31.203125 23.390625 
L 4.890625 23.390625 
z
" id="DejaVuSans-45"/>
      <path d="M 56.203125 29.59375 
L 56.203125 25.203125 
L 14.890625 25.203125 
Q 15.484375 15.921875 20.484375 11.0625 
Q 25.484375 6.203125 34.421875 6.203125 
Q 39.59375 6.203125 44.453125 7.46875 
Q 49.3125 8.734375 54.109375 11.28125 
L 54.109375 2.78125 
Q 49.265625 0.734375 44.1875 -0.34375 
Q 39.109375 -1.421875 33.890625 -1.421875 
Q 20.796875 -1.421875 13.15625 6.1875 
Q 5.515625 13.8125 5.515625 26.8125 
Q 5.515625 40.234375 12.765625 48.109375 
Q 20.015625 56 32.328125 56 
Q 43.359375 56 49.78125 48.890625 
Q 56.203125 41.796875 56.203125 29.59375 
z
M 47.21875 32.234375 
Q 47.125 39.59375 43.09375 43.984375 
Q 39.0625 48.390625 32.421875 48.390625 
Q 24.90625 48.390625 20.390625 44.140625 
Q 15.875 39.890625 15.1875 32.171875 
z
" id="DejaVuSans-101"/>
      <path d="M 2.984375 54.6875 
L 12.5 54.6875 
L 29.59375 8.796875 
L 46.6875 54.6875 
L 56.203125 54.6875 
L 35.6875 0 
L 23.484375 0 
z
" id="DejaVuSans-118"/>
      <path d="M 34.28125 27.484375 
Q 23.390625 27.484375 19.1875 25 
Q 14.984375 22.515625 14.984375 16.5 
Q 14.984375 11.71875 18.140625 8.90625 
Q 21.296875 6.109375 26.703125 6.109375 
Q 34.1875 6.109375 38.703125 11.40625 
Q 43.21875 16.703125 43.21875 25.484375 
L 43.21875 27.484375 
z
M 52.203125 31.203125 
L 52.203125 0 
L 43.21875 0 
L 43.21875 8.296875 
Q 40.140625 3.328125 35.546875 0.953125 
Q 30.953125 -1.421875 24.3125 -1.421875 
Q 15.921875 -1.421875 10.953125 3.296875 
Q 6 8.015625 6 15.921875 
Q 6 25.140625 12.171875 29.828125 
Q 18.359375 34.515625 30.609375 34.515625 
L 43.21875 34.515625 
L 43.21875 35.40625 
Q 43.21875 41.609375 39.140625 45 
Q 35.0625 48.390625 27.6875 48.390625 
Q 23 48.390625 18.546875 47.265625 
Q 14.109375 46.140625 10.015625 43.890625 
L 10.015625 52.203125 
Q 14.9375 54.109375 19.578125 55.046875 
Q 24.21875 56 28.609375 56 
Q 40.484375 56 46.34375 49.84375 
Q 52.203125 43.703125 52.203125 31.203125 
z
" id="DejaVuSans-97"/>
      <path d="M 44.28125 53.078125 
L 44.28125 44.578125 
Q 40.484375 46.53125 36.375 47.5 
Q 32.28125 48.484375 27.875 48.484375 
Q 21.1875 48.484375 17.84375 46.4375 
Q 14.5 44.390625 14.5 40.28125 
Q 14.5 37.15625 16.890625 35.375 
Q 19.28125 33.59375 26.515625 31.984375 
L 29.59375 31.296875 
Q 39.15625 29.25 43.1875 25.515625 
Q 47.21875 21.78125 47.21875 15.09375 
Q 47.21875 7.46875 41.1875 3.015625 
Q 35.15625 -1.421875 24.609375 -1.421875 
Q 20.21875 -1.421875 15.453125 -0.5625 
Q 10.6875 0.296875 5.421875 2 
L 5.421875 11.28125 
Q 10.40625 8.6875 15.234375 7.390625 
Q 20.0625 6.109375 24.8125 6.109375 
Q 31.15625 6.109375 34.5625 8.28125 
Q 37.984375 10.453125 37.984375 14.40625 
Q 37.984375 18.0625 35.515625 20.015625 
Q 33.0625 21.96875 24.703125 23.78125 
L 21.578125 24.515625 
Q 13.234375 26.265625 9.515625 29.90625 
Q 5.8125 33.546875 5.8125 39.890625 
Q 5.8125 47.609375 11.28125 51.796875 
Q 16.75 56 26.8125 56 
Q 31.78125 56 36.171875 55.265625 
Q 40.578125 54.546875 44.28125 53.078125 
z
" id="DejaVuSans-115"/>
      <path d="M 25.390625 72.90625 
L 33.6875 72.90625 
L 8.296875 -9.28125 
L 0 -9.28125 
z
" id="DejaVuSans-47"/>
      <path d="M 45.40625 46.390625 
L 45.40625 75.984375 
L 54.390625 75.984375 
L 54.390625 0 
L 45.40625 0 
L 45.40625 8.203125 
Q 42.578125 3.328125 38.25 0.953125 
Q 33.9375 -1.421875 27.875 -1.421875 
Q 17.96875 -1.421875 11.734375 6.484375 
Q 5.515625 14.40625 5.515625 27.296875 
Q 5.515625 40.1875 11.734375 48.09375 
Q 17.96875 56 27.875 56 
Q 33.9375 56 38.25 53.625 
Q 42.578125 51.265625 45.40625 46.390625 
z
M 14.796875 27.296875 
Q 14.796875 17.390625 18.875 11.75 
Q 22.953125 6.109375 30.078125 6.109375 
Q 37.203125 6.109375 41.296875 11.75 
Q 45.40625 17.390625 45.40625 27.296875 
Q 45.40625 37.203125 41.296875 42.84375 
Q 37.203125 48.484375 30.078125 48.484375 
Q 22.953125 48.484375 18.875 42.84375 
Q 14.796875 37.203125 14.796875 27.296875 
z
" id="DejaVuSans-100"/>
      <path d="M 9.421875 54.6875 
L 18.40625 54.6875 
L 18.40625 0 
L 9.421875 0 
z
M 9.421875 75.984375 
L 18.40625 75.984375 
L 18.40625 64.59375 
L 9.421875 64.59375 
z
" id="DejaVuSans-105"/>
      <path d="M 52 44.1875 
Q 55.375 50.25 60.0625 53.125 
Q 64.75 56 71.09375 56 
Q 79.640625 56 84.28125 50.015625 
Q 88.921875 44.046875 88.921875 33.015625 
L 88.921875 0 
L 79.890625 0 
L 79.890625 32.71875 
Q 79.890625 40.578125 77.09375 44.375 
Q 74.3125 48.1875 68.609375 48.1875 
Q 61.625 48.1875 57.5625 43.546875 
Q 53.515625 38.921875 53.515625 30.90625 
L 53.515625 0 
L 44.484375 0 
L 44.484375 32.71875 
Q 44.484375 40.625 41.703125 44.40625 
Q 38.921875 48.1875 33.109375 48.1875 
Q 26.21875 48.1875 22.15625 43.53125 
Q 18.109375 38.875 18.109375 30.90625 
L 18.109375 0 
L 9.078125 0 
L 9.078125 54.6875 
L 18.109375 54.6875 
L 18.109375 46.1875 
Q 21.1875 51.21875 25.484375 53.609375 
Q 29.78125 56 35.6875 56 
Q 41.65625 56 45.828125 52.96875 
Q 50 49.953125 52 44.1875 
z
" id="DejaVuSans-109"/>
      <path d="M 54.890625 33.015625 
L 54.890625 0 
L 45.90625 0 
L 45.90625 32.71875 
Q 45.90625 40.484375 42.875 44.328125 
Q 39.84375 48.1875 33.796875 48.1875 
Q 26.515625 48.1875 22.3125 43.546875 
Q 18.109375 38.921875 18.109375 30.90625 
L 18.109375 0 
L 9.078125 0 
L 9.078125 54.6875 
L 18.109375 54.6875 
L 18.109375 46.1875 
Q 21.34375 51.125 25.703125 53.5625 
Q 30.078125 56 35.796875 56 
Q 45.21875 56 50.046875 50.171875 
Q 54.890625 44.34375 54.890625 33.015625 
z
" id="DejaVuSans-110"/>
      <path d="M 8.015625 75.875 
L 15.828125 75.875 
Q 23.140625 64.359375 26.78125 53.3125 
Q 30.421875 42.28125 30.421875 31.390625 
Q 30.421875 20.453125 26.78125 9.375 
Q 23.140625 -1.703125 15.828125 -13.1875 
L 8.015625 -13.1875 
Q 14.5 -2 17.703125 9.0625 
Q 20.90625 20.125 20.90625 31.390625 
Q 20.90625 42.671875 17.703125 53.65625 
Q 14.5 64.65625 8.015625 75.875 
z
" id="DejaVuSans-41"/>
     </defs>
     <g transform="translate(77.764078 342.217594)scale(0.17 -0.17)">
      <use xlink:href="#DejaVuSans-108"/>
      <use x="27.783203" xlink:href="#DejaVuSans-111"/>
      <use x="88.964844" xlink:href="#DejaVuSans-103"/>
      <use x="152.441406" xlink:href="#DejaVuSans-49"/>
      <use x="216.064453" xlink:href="#DejaVuSans-48"/>
      <use x="279.6875" xlink:href="#DejaVuSans-40"/>
      <use x="318.701172" xlink:href="#DejaVuSans-35"/>
      <use x="402.490234" xlink:href="#DejaVuSans-32"/>
      <use x="434.277344" xlink:href="#DejaVuSans-102"/>
      <use x="463.982422" xlink:href="#DejaVuSans-45"/>
      <use x="500.066406" xlink:href="#DejaVuSans-101"/>
      <use x="561.589844" xlink:href="#DejaVuSans-118"/>
      <use x="620.769531" xlink:href="#DejaVuSans-97"/>
      <use x="682.048828" xlink:href="#DejaVuSans-108"/>
      <use x="709.832031" xlink:href="#DejaVuSans-115"/>
      <use x="761.931641" xlink:href="#DejaVuSans-32"/>
      <use x="793.71875" xlink:href="#DejaVuSans-47"/>
      <use x="827.410156" xlink:href="#DejaVuSans-32"/>
      <use x="859.197266" xlink:href="#DejaVuSans-100"/>
      <use x="922.673828" xlink:href="#DejaVuSans-105"/>
      <use x="950.457031" xlink:href="#DejaVuSans-109"/>
      <use x="1047.869141" xlink:href="#DejaVuSans-101"/>
      <use x="1109.392578" xlink:href="#DejaVuSans-110"/>
      <use x="1172.771484" xlink:href="#DejaVuSans-115"/>
      <use x="1224.871094" xlink:href="#DejaVuSans-105"/>
      <use x="1252.654297" xlink:href="#DejaVuSans-111"/>
      <use x="1313.835938" xlink:href="#DejaVuSans-110"/>
      <use x="1377.214844" xlink:href="#DejaVuSans-41"/>
     </g>
    </g>
   </g>
   <g id="matplotlib.axis_2">
    <g id="ytick_1">
     <g id="line2d_21">
      <path clip-path="url(#p7c1625f250)" d="M 57.6 298.944 
L 338.688 298.944 
" style="fill:none;stroke:#b0b0b0;stroke-linecap:square;stroke-width:0.8;"/>
     </g>
     <g id="line2d_22">
      <defs>
       <path d="M 0 0 
L -3.5 0 
" id="m735727784f" style="stroke:#000000;stroke-width:0.8;"/>
      </defs>
      <g>
       <use style="stroke:#000000;stroke-width:0.8;" x="57.6" xlink:href="#m735727784f" y="298.944"/>
      </g>
     </g>
     <g id="text_6">
      <!-- 0.0 -->
      <defs>
       <path d="M 10.6875 12.40625 
L 21 12.40625 
L 21 0 
L 10.6875 0 
z
" id="DejaVuSans-46"/>
      </defs>
      <g transform="translate(25.155 305.02275)scale(0.16 -0.16)">
       <use xlink:href="#DejaVuSans-48"/>
       <use x="63.623047" xlink:href="#DejaVuSans-46"/>
       <use x="95.410156" xlink:href="#DejaVuSans-48"/>
      </g>
     </g>
    </g>
    <g id="ytick_2">
     <g id="line2d_23">
      <path clip-path="url(#p7c1625f250)" d="M 57.6 245.22202 
L 338.688 245.22202 
" style="fill:none;stroke:#b0b0b0;stroke-linecap:square;stroke-width:0.8;"/>
     </g>
     <g id="line2d_24">
      <g>
       <use style="stroke:#000000;stroke-width:0.8;" x="57.6" xlink:href="#m735727784f" y="245.22202"/>
      </g>
     </g>
     <g id="text_7">
      <!-- 0.2 -->
      <g transform="translate(25.155 251.30077)scale(0.16 -0.16)">
       <use xlink:href="#DejaVuSans-48"/>
       <use x="63.623047" xlink:href="#DejaVuSans-46"/>
       <use x="95.410156" xlink:href="#DejaVuSans-50"/>
      </g>
     </g>
    </g>
    <g id="ytick_3">
     <g id="line2d_25">
      <path clip-path="url(#p7c1625f250)" d="M 57.6 191.50004 
L 338.688 191.50004 
" style="fill:none;stroke:#b0b0b0;stroke-linecap:square;stroke-width:0.8;"/>
     </g>
     <g id="line2d_26">
      <g>
       <use style="stroke:#000000;stroke-width:0.8;" x="57.6" xlink:href="#m735727784f" y="191.50004"/>
      </g>
     </g>
     <g id="text_8">
      <!-- 0.4 -->
      <g transform="translate(25.155 197.57879)scale(0.16 -0.16)">
       <use xlink:href="#DejaVuSans-48"/>
       <use x="63.623047" xlink:href="#DejaVuSans-46"/>
       <use x="95.410156" xlink:href="#DejaVuSans-52"/>
      </g>
     </g>
    </g>
    <g id="ytick_4">
     <g id="line2d_27">
      <path clip-path="url(#p7c1625f250)" d="M 57.6 137.778059 
L 338.688 137.778059 
" style="fill:none;stroke:#b0b0b0;stroke-linecap:square;stroke-width:0.8;"/>
     </g>
     <g id="line2d_28">
      <g>
       <use style="stroke:#000000;stroke-width:0.8;" x="57.6" xlink:href="#m735727784f" y="137.778059"/>
      </g>
     </g>
     <g id="text_9">
      <!-- 0.6 -->
      <g transform="translate(25.155 143.856809)scale(0.16 -0.16)">
       <use xlink:href="#DejaVuSans-48"/>
       <use x="63.623047" xlink:href="#DejaVuSans-46"/>
       <use x="95.410156" xlink:href="#DejaVuSans-54"/>
      </g>
     </g>
    </g>
    <g id="ytick_5">
     <g id="line2d_29">
      <path clip-path="url(#p7c1625f250)" d="M 57.6 84.056079 
L 338.688 84.056079 
" style="fill:none;stroke:#b0b0b0;stroke-linecap:square;stroke-width:0.8;"/>
     </g>
     <g id="line2d_30">
      <g>
       <use style="stroke:#000000;stroke-width:0.8;" x="57.6" xlink:href="#m735727784f" y="84.056079"/>
      </g>
     </g>
     <g id="text_10">
      <!-- 0.8 -->
      <defs>
       <path d="M 31.78125 34.625 
Q 24.75 34.625 20.71875 30.859375 
Q 16.703125 27.09375 16.703125 20.515625 
Q 16.703125 13.921875 20.71875 10.15625 
Q 24.75 6.390625 31.78125 6.390625 
Q 38.8125 6.390625 42.859375 10.171875 
Q 46.921875 13.96875 46.921875 20.515625 
Q 46.921875 27.09375 42.890625 30.859375 
Q 38.875 34.625 31.78125 34.625 
z
M 21.921875 38.8125 
Q 15.578125 40.375 12.03125 44.71875 
Q 8.5 49.078125 8.5 55.328125 
Q 8.5 64.0625 14.71875 69.140625 
Q 20.953125 74.21875 31.78125 74.21875 
Q 42.671875 74.21875 48.875 69.140625 
Q 55.078125 64.0625 55.078125 55.328125 
Q 55.078125 49.078125 51.53125 44.71875 
Q 48 40.375 41.703125 38.8125 
Q 48.828125 37.15625 52.796875 32.3125 
Q 56.78125 27.484375 56.78125 20.515625 
Q 56.78125 9.90625 50.3125 4.234375 
Q 43.84375 -1.421875 31.78125 -1.421875 
Q 19.734375 -1.421875 13.25 4.234375 
Q 6.78125 9.90625 6.78125 20.515625 
Q 6.78125 27.484375 10.78125 32.3125 
Q 14.796875 37.15625 21.921875 38.8125 
z
M 18.3125 54.390625 
Q 18.3125 48.734375 21.84375 45.5625 
Q 25.390625 42.390625 31.78125 42.390625 
Q 38.140625 42.390625 41.71875 45.5625 
Q 45.3125 48.734375 45.3125 54.390625 
Q 45.3125 60.0625 41.71875 63.234375 
Q 38.140625 66.40625 31.78125 66.40625 
Q 25.390625 66.40625 21.84375 63.234375 
Q 18.3125 60.0625 18.3125 54.390625 
z
" id="DejaVuSans-56"/>
      </defs>
      <g transform="translate(25.155 90.134829)scale(0.16 -0.16)">
       <use xlink:href="#DejaVuSans-48"/>
       <use x="63.623047" xlink:href="#DejaVuSans-46"/>
       <use x="95.410156" xlink:href="#DejaVuSans-56"/>
      </g>
     </g>
    </g>
    <g id="ytick_6">
     <g id="line2d_31">
      <path clip-path="url(#p7c1625f250)" d="M 57.6 30.334099 
L 338.688 30.334099 
" style="fill:none;stroke:#b0b0b0;stroke-linecap:square;stroke-width:0.8;"/>
     </g>
     <g id="line2d_32">
      <g>
       <use style="stroke:#000000;stroke-width:0.8;" x="57.6" xlink:href="#m735727784f" y="30.334099"/>
      </g>
     </g>
     <g id="text_11">
      <!-- 1.0 -->
      <g transform="translate(25.155 36.412849)scale(0.16 -0.16)">
       <use xlink:href="#DejaVuSans-49"/>
       <use x="63.623047" xlink:href="#DejaVuSans-46"/>
       <use x="95.410156" xlink:href="#DejaVuSans-48"/>
      </g>
     </g>
    </g>
    <g id="text_12">
     <!-- Fraction of function,target pairs -->
     <defs>
      <path d="M 9.8125 72.90625 
L 51.703125 72.90625 
L 51.703125 64.59375 
L 19.671875 64.59375 
L 19.671875 43.109375 
L 48.578125 43.109375 
L 48.578125 34.8125 
L 19.671875 34.8125 
L 19.671875 0 
L 9.8125 0 
z
" id="DejaVuSans-70"/>
      <path d="M 41.109375 46.296875 
Q 39.59375 47.171875 37.8125 47.578125 
Q 36.03125 48 33.890625 48 
Q 26.265625 48 22.1875 43.046875 
Q 18.109375 38.09375 18.109375 28.8125 
L 18.109375 0 
L 9.078125 0 
L 9.078125 54.6875 
L 18.109375 54.6875 
L 18.109375 46.1875 
Q 20.953125 51.171875 25.484375 53.578125 
Q 30.03125 56 36.53125 56 
Q 37.453125 56 38.578125 55.875 
Q 39.703125 55.765625 41.0625 55.515625 
z
" id="DejaVuSans-114"/>
      <path d="M 48.78125 52.59375 
L 48.78125 44.1875 
Q 44.96875 46.296875 41.140625 47.34375 
Q 37.3125 48.390625 33.40625 48.390625 
Q 24.65625 48.390625 19.8125 42.84375 
Q 14.984375 37.3125 14.984375 27.296875 
Q 14.984375 17.28125 19.8125 11.734375 
Q 24.65625 6.203125 33.40625 6.203125 
Q 37.3125 6.203125 41.140625 7.25 
Q 44.96875 8.296875 48.78125 10.40625 
L 48.78125 2.09375 
Q 45.015625 0.34375 40.984375 -0.53125 
Q 36.96875 -1.421875 32.421875 -1.421875 
Q 20.0625 -1.421875 12.78125 6.34375 
Q 5.515625 14.109375 5.515625 27.296875 
Q 5.515625 40.671875 12.859375 48.328125 
Q 20.21875 56 33.015625 56 
Q 37.15625 56 41.109375 55.140625 
Q 45.0625 54.296875 48.78125 52.59375 
z
" id="DejaVuSans-99"/>
      <path d="M 18.3125 70.21875 
L 18.3125 54.6875 
L 36.8125 54.6875 
L 36.8125 47.703125 
L 18.3125 47.703125 
L 18.3125 18.015625 
Q 18.3125 11.328125 20.140625 9.421875 
Q 21.96875 7.515625 27.59375 7.515625 
L 36.8125 7.515625 
L 36.8125 0 
L 27.59375 0 
Q 17.1875 0 13.234375 3.875 
Q 9.28125 7.765625 9.28125 18.015625 
L 9.28125 47.703125 
L 2.6875 47.703125 
L 2.6875 54.6875 
L 9.28125 54.6875 
L 9.28125 70.21875 
z
" id="DejaVuSans-116"/>
      <path d="M 8.5 21.578125 
L 8.5 54.6875 
L 17.484375 54.6875 
L 17.484375 21.921875 
Q 17.484375 14.15625 20.5 10.265625 
Q 23.53125 6.390625 29.59375 6.390625 
Q 36.859375 6.390625 41.078125 11.03125 
Q 45.3125 15.671875 45.3125 23.6875 
L 45.3125 54.6875 
L 54.296875 54.6875 
L 54.296875 0 
L 45.3125 0 
L 45.3125 8.40625 
Q 42.046875 3.421875 37.71875 1 
Q 33.40625 -1.421875 27.6875 -1.421875 
Q 18.265625 -1.421875 13.375 4.4375 
Q 8.5 10.296875 8.5 21.578125 
z
M 31.109375 56 
z
" id="DejaVuSans-117"/>
      <path d="M 11.71875 12.40625 
L 22.015625 12.40625 
L 22.015625 4 
L 14.015625 -11.625 
L 7.71875 -11.625 
L 11.71875 4 
z
" id="DejaVuSans-44"/>
      <path d="M 18.109375 8.203125 
L 18.109375 -20.796875 
L 9.078125 -20.796875 
L 9.078125 54.6875 
L 18.109375 54.6875 
L 18.109375 46.390625 
Q 20.953125 51.265625 25.265625 53.625 
Q 29.59375 56 35.59375 56 
Q 45.5625 56 51.78125 48.09375 
Q 58.015625 40.1875 58.015625 27.296875 
Q 58.015625 14.40625 51.78125 6.484375 
Q 45.5625 -1.421875 35.59375 -1.421875 
Q 29.59375 -1.421875 25.265625 0.953125 
Q 20.953125 3.328125 18.109375 8.203125 
z
M 48.6875 27.296875 
Q 48.6875 37.203125 44.609375 42.84375 
Q 40.53125 48.484375 33.40625 48.484375 
Q 26.265625 48.484375 22.1875 42.84375 
Q 18.109375 37.203125 18.109375 27.296875 
Q 18.109375 17.390625 22.1875 11.75 
Q 26.265625 6.109375 33.40625 6.109375 
Q 40.53125 6.109375 44.609375 11.75 
Q 48.6875 17.390625 48.6875 27.296875 
z
" id="DejaVuSans-112"/>
     </defs>
     <g transform="translate(17.619531 297.681)rotate(-90)scale(0.17 -0.17)">
      <use xlink:href="#DejaVuSans-70"/>
      <use x="50.269531" xlink:href="#DejaVuSans-114"/>
      <use x="91.382812" xlink:href="#DejaVuSans-97"/>
      <use x="152.662109" xlink:href="#DejaVuSans-99"/>
      <use x="207.642578" xlink:href="#DejaVuSans-116"/>
      <use x="246.851562" xlink:href="#DejaVuSans-105"/>
      <use x="274.634766" xlink:href="#DejaVuSans-111"/>
      <use x="335.816406" xlink:href="#DejaVuSans-110"/>
      <use x="399.195312" xlink:href="#DejaVuSans-32"/>
      <use x="430.982422" xlink:href="#DejaVuSans-111"/>
      <use x="492.164062" xlink:href="#DejaVuSans-102"/>
      <use x="527.369141" xlink:href="#DejaVuSans-32"/>
      <use x="559.15625" xlink:href="#DejaVuSans-102"/>
      <use x="594.361328" xlink:href="#DejaVuSans-117"/>
      <use x="657.740234" xlink:href="#DejaVuSans-110"/>
      <use x="721.119141" xlink:href="#DejaVuSans-99"/>
      <use x="776.099609" xlink:href="#DejaVuSans-116"/>
      <use x="815.308594" xlink:href="#DejaVuSans-105"/>
      <use x="843.091797" xlink:href="#DejaVuSans-111"/>
      <use x="904.273438" xlink:href="#DejaVuSans-110"/>
      <use x="967.652344" xlink:href="#DejaVuSans-44"/>
      <use x="999.439453" xlink:href="#DejaVuSans-116"/>
      <use x="1038.648438" xlink:href="#DejaVuSans-97"/>
      <use x="1099.927734" xlink:href="#DejaVuSans-114"/>
      <use x="1139.291016" xlink:href="#DejaVuSans-103"/>
      <use x="1202.767578" xlink:href="#DejaVuSans-101"/>
      <use x="1264.291016" xlink:href="#DejaVuSans-116"/>
      <use x="1303.5" xlink:href="#DejaVuSans-32"/>
      <use x="1335.287109" xlink:href="#DejaVuSans-112"/>
      <use x="1398.763672" xlink:href="#DejaVuSans-97"/>
      <use x="1460.042969" xlink:href="#DejaVuSans-105"/>
      <use x="1487.826172" xlink:href="#DejaVuSans-114"/>
      <use x="1528.939453" xlink:href="#DejaVuSans-115"/>
     </g>
    </g>
   </g>
   <g id="line2d_33">
    <defs>
     <path d="M 0 1.5 
C 0.397805 1.5 0.77937 1.341951 1.06066 1.06066 
C 1.341951 0.77937 1.5 0.397805 1.5 0 
C 1.5 -0.397805 1.341951 -0.77937 1.06066 -1.06066 
C 0.77937 -1.341951 0.397805 -1.5 0 -1.5 
C -0.397805 -1.5 -0.77937 -1.341951 -1.06066 -1.06066 
C -1.341951 -0.77937 -1.5 -0.397805 -1.5 0 
C -1.5 0.397805 -1.341951 0.77937 -1.06066 1.06066 
C -0.77937 1.341951 -0.397805 1.5 0 1.5 
z
" id="m5b1fed5b46" style="stroke:#f5deb3;"/>
    </defs>
    <g>
     <use style="fill:#f5deb3;stroke:#f5deb3;" x="183.572899" xlink:href="#m5b1fed5b46" y="30.334099"/>
     <use style="fill:#f5deb3;stroke:#f5deb3;" x="183.572899" xlink:href="#m5b1fed5b46" y="30.334099"/>
    </g>
   </g>
   <g id="line2d_34">
    <defs>
     <path d="M 0 1.5 
C 0.397805 1.5 0.77937 1.341951 1.06066 1.06066 
C 1.341951 0.77937 1.5 0.397805 1.5 0 
C 1.5 -0.397805 1.341951 -0.77937 1.06066 -1.06066 
C 0.77937 -1.341951 0.397805 -1.5 0 -1.5 
C -0.397805 -1.5 -0.77937 -1.341951 -1.06066 -1.06066 
C -1.341951 -0.77937 -1.5 -0.397805 -1.5 0 
C -1.5 0.397805 -1.341951 0.77937 -1.06066 1.06066 
C -0.77937 1.341951 -0.397805 1.5 0 1.5 
z
" id="m5d198fc1fa" style="stroke:#000080;"/>
    </defs>
    <g>
     <use style="fill:#000080;stroke:#000080;" x="234.04871" xlink:href="#m5d198fc1fa" y="267.342835"/>
     <use style="fill:#000080;stroke:#000080;" x="234.04871" xlink:href="#m5d198fc1fa" y="267.342835"/>
    </g>
   </g>
   <g id="line2d_35">
    <path d="M 17.444571 298.944 
L 17.444571 293.677139 
L 78.421149 293.677139 
L 78.421149 293.150453 
L 88.255778 293.150453 
L 88.255778 292.623767 
L 92.73846 292.623767 
L 92.73846 292.097081 
L 97.224242 292.097081 
L 97.224242 291.570395 
L 104.709797 291.570395 
L 104.709797 291.043709 
L 106.382575 291.043709 
L 106.382575 289.990337 
L 116.621333 289.990337 
L 116.621333 289.463651 
L 122.44689 289.463651 
L 122.44689 288.936964 
L 123.354102 288.936964 
L 123.354102 288.410278 
L 128.768338 288.410278 
L 128.768338 287.883592 
L 143.053804 287.883592 
L 143.053804 287.356906 
L 145.02832 287.356906 
L 145.02832 286.83022 
L 146.06373 286.83022 
L 146.06373 286.303534 
L 149.699829 286.303534 
L 149.699829 285.776848 
L 150.437972 285.776848 
L 150.437972 285.250162 
L 155.823027 285.250162 
L 155.823027 284.723476 
L 156.015522 284.723476 
L 156.015522 283.670104 
L 157.692253 283.670104 
L 157.692253 283.143418 
L 159.370195 283.143418 
L 159.370195 282.616732 
L 160.074152 282.616732 
L 160.074152 282.090045 
L 165.497378 282.090045 
L 165.497378 281.036673 
L 165.929399 281.036673 
L 165.929399 280.509987 
L 171.76122 280.509987 
L 171.76122 279.983301 
L 173.786875 279.983301 
L 173.786875 277.876557 
L 176.365911 277.876557 
L 176.365911 277.349871 
L 178.437256 277.349871 
L 178.437256 276.823185 
L 180.648609 276.823185 
L 180.648609 275.769812 
L 182.404016 275.769812 
L 182.404016 275.243126 
L 184.978468 275.243126 
L 184.978468 274.71644 
L 203.431957 274.71644 
L 203.431957 274.189754 
L 205.357758 274.189754 
L 205.357758 273.663068 
L 207.091886 273.663068 
L 207.091886 273.136382 
L 208.669064 273.136382 
L 208.669064 272.609696 
L 210.115361 272.609696 
L 210.115361 272.08301 
L 216.923099 272.08301 
L 216.923099 271.029638 
L 217.838046 271.029638 
L 217.838046 269.976266 
L 218.707374 269.976266 
L 218.707374 269.449579 
L 221.082137 269.449579 
L 221.082137 268.922893 
L 227.762807 268.922893 
L 227.762807 268.396207 
L 230.554223 268.396207 
L 230.554223 267.869521 
L 234.04871 267.869521 
L 234.04871 267.342835 
L 338.688 267.342835 
" style="fill:none;stroke:#000080;stroke-linecap:square;stroke-width:1.5;"/>
   </g>
   <g id="line2d_36">
    <defs>
     <path d="M 0 6 
C 1.591219 6 3.117479 5.367802 4.242641 4.242641 
C 5.367802 3.117479 6 1.591219 6 0 
C 6 -1.591219 5.367802 -3.117479 4.242641 -4.242641 
C 3.117479 -5.367802 1.591219 -6 0 -6 
C -1.591219 -6 -3.117479 -5.367802 -4.242641 -4.242641 
C -5.367802 -3.117479 -6 -1.591219 -6 0 
C -6 1.591219 -5.367802 3.117479 -4.242641 4.242641 
C -3.117479 5.367802 -1.591219 6 0 6 
z
" id="m6487626d7e" style="stroke:#000080;stroke-width:1.5;"/>
    </defs>
    <g>
     <use style="fill-opacity:0;stroke:#000080;stroke-width:1.5;" x="106.382575" xlink:href="#m6487626d7e" y="291.043709"/>
     <use style="fill-opacity:0;stroke:#000080;stroke-width:1.5;" x="180.648609" xlink:href="#m6487626d7e" y="276.823185"/>
     <use style="fill-opacity:0;stroke:#000080;stroke-width:1.5;" x="230.554223" xlink:href="#m6487626d7e" y="267.869521"/>
     <use style="fill-opacity:0;stroke:#000080;stroke-width:1.5;" x="234.04871" xlink:href="#m6487626d7e" y="267.342835"/>
     <use style="fill-opacity:0;stroke:#000080;stroke-width:1.5;" x="234.04871" xlink:href="#m6487626d7e" y="267.342835"/>
     <use style="fill-opacity:0;stroke:#000080;stroke-width:1.5;" x="338.688" xlink:href="#m6487626d7e" y="267.342835"/>
    </g>
   </g>
   <g id="line2d_37">
    <path style="fill:none;stroke:#000080;stroke-linecap:square;stroke-width:1.5;"/>
    <g/>
   </g>
   <g id="line2d_38">
    <path clip-path="url(#p7c1625f250)" d="M 165.978297 280.509987 
" style="fill:none;stroke:#000080;stroke-linecap:square;stroke-width:1.5;"/>
    <defs>
     <path d="M -12 12 
L 12 -12 
M -12 -12 
L 12 12 
" id="mf5b9f2a3ef" style="stroke:#000080;"/>
    </defs>
    <g clip-path="url(#p7c1625f250)">
     <use style="fill:#000080;stroke:#000080;" x="165.978297" xlink:href="#mf5b9f2a3ef" y="280.509987"/>
    </g>
   </g>
   <g id="line2d_39">
    <defs>
     <path d="M 0 1.5 
C 0.397805 1.5 0.77937 1.341951 1.06066 1.06066 
C 1.341951 0.77937 1.5 0.397805 1.5 0 
C 1.5 -0.397805 1.341951 -0.77937 1.06066 -1.06066 
C 0.77937 -1.341951 0.397805 -1.5 0 -1.5 
C -0.397805 -1.5 -0.77937 -1.341951 -1.06066 -1.06066 
C -1.341951 -0.77937 -1.5 -0.397805 -1.5 0 
C -1.5 0.397805 -1.341951 0.77937 -1.06066 1.06066 
C -0.77937 1.341951 -0.397805 1.5 0 1.5 
z
" id="me25f474afe" style="stroke:#ff00ff;"/>
    </defs>
    <g>
     <use style="fill:#ff00ff;stroke:#ff00ff;" x="199.579037" xlink:href="#me25f474afe" y="241.008531"/>
     <use style="fill:#ff00ff;stroke:#ff00ff;" x="199.579037" xlink:href="#me25f474afe" y="241.008531"/>
    </g>
   </g>
   <g id="line2d_40">
    <path d="M 17.444571 298.944 
L 17.444571 293.677139 
L 75.555822 293.677139 
L 75.555822 293.150453 
L 78.421149 293.150453 
L 78.421149 292.623767 
L 79.447285 292.623767 
L 79.447285 291.570395 
L 82.206598 291.570395 
L 82.206598 291.043709 
L 85.315119 291.043709 
L 85.315119 290.517023 
L 87.329581 290.517023 
L 87.329581 289.990337 
L 89.135256 289.990337 
L 89.135256 288.410278 
L 89.418828 288.410278 
L 89.418828 287.883592 
L 91.284345 287.883592 
L 91.284345 287.356906 
L 92.73846 287.356906 
L 92.73846 286.83022 
L 94.080605 286.83022 
L 94.080605 286.303534 
L 94.714831 286.303534 
L 94.714831 285.776848 
L 95.125186 285.776848 
L 95.125186 285.250162 
L 95.723163 285.250162 
L 95.723163 284.723476 
L 95.918017 284.723476 
L 95.918017 284.19679 
L 96.110718 284.19679 
L 96.110718 283.143418 
L 97.043522 283.143418 
L 97.043522 282.616732 
L 97.755429 282.616732 
L 97.755429 282.090045 
L 98.100772 282.090045 
L 98.100772 281.563359 
L 98.606294 281.563359 
L 98.606294 280.509987 
L 98.771596 280.509987 
L 98.771596 279.983301 
L 99.097574 279.983301 
L 99.097574 279.456615 
L 99.575392 279.456615 
L 99.575392 278.403243 
L 99.886816 278.403243 
L 99.886816 277.876557 
L 100.192776 277.876557 
L 100.192776 277.349871 
L 101.223245 277.349871 
L 101.223245 276.823185 
L 101.506816 276.823185 
L 101.506816 275.769812 
L 102.196206 275.769812 
L 102.196206 275.243126 
L 102.464508 275.243126 
L 102.464508 274.71644 
L 102.597126 274.71644 
L 102.597126 274.189754 
L 104.355088 274.189754 
L 104.355088 273.663068 
L 107.414787 273.663068 
L 107.514726 272.609696 
L 107.712901 272.609696 
L 107.712901 272.08301 
L 109.131511 272.08301 
L 109.131511 271.556324 
L 111.266113 271.556324 
L 111.346294 270.502952 
L 112.431755 270.502952 
L 112.506763 269.449579 
L 112.803609 269.449579 
L 112.803609 268.922893 
L 113.239614 268.922893 
L 113.239614 268.396207 
L 113.453595 268.396207 
L 113.453595 266.816149 
L 113.873839 266.816149 
L 113.873839 265.762777 
L 115.711251 265.762777 
L 115.711251 265.236091 
L 116.081002 265.236091 
L 116.081002 264.709405 
L 117.709852 264.709405 
L 117.709852 264.182719 
L 117.875678 264.182719 
L 117.875678 263.656033 
L 118.363901 263.656033 
L 118.363901 262.60266 
L 119.250393 262.60266 
L 119.250393 262.075974 
L 119.552816 262.075974 
L 119.552816 261.549288 
L 120.33454 261.549288 
L 120.33454 261.022602 
L 122.018385 261.022602 
L 122.061712 259.96923 
L 125.219619 259.96923 
L 125.219619 259.442544 
L 125.752972 259.442544 
L 125.752972 258.915858 
L 136.96118 258.915858 
L 136.96118 258.389172 
L 155.622068 258.389172 
L 155.685117 257.3358 
L 157.197287 257.3358 
L 157.197287 256.809114 
L 157.489141 256.809114 
L 157.489141 256.282427 
L 160.627979 256.282427 
L 160.627979 255.755741 
L 160.900768 255.755741 
L 160.900768 255.229055 
L 161.456484 255.229055 
L 161.456484 254.702369 
L 163.930348 254.702369 
L 163.930348 254.175683 
L 165.475853 254.175683 
L 165.475853 253.648997 
L 166.120716 253.648997 
L 166.120716 253.122311 
L 166.313379 253.122311 
L 166.313379 252.595625 
L 167.722684 252.595625 
L 167.773105 251.542253 
L 169.738121 251.542253 
L 169.738121 251.015567 
L 170.959479 251.015567 
L 170.959479 250.488881 
L 172.171924 250.488881 
L 172.171924 249.962195 
L 172.351938 249.962195 
L 172.351938 249.435508 
L 174.592679 249.435508 
L 174.675486 248.382136 
L 175.981034 248.382136 
L 175.981034 247.85545 
L 179.174343 247.85545 
L 179.174343 247.328764 
L 179.731597 247.328764 
L 179.731597 246.802078 
L 186.35738 246.802078 
L 186.35738 246.275392 
L 188.760712 246.275392 
L 188.760712 245.748706 
L 192.375712 245.748706 
L 192.375712 245.22202 
L 193.122558 245.22202 
L 193.122558 244.695334 
L 193.287993 244.695334 
L 193.287993 244.168648 
L 193.661356 244.168648 
L 193.661356 243.641962 
L 194.786638 243.641962 
L 194.786638 243.115275 
L 198.034588 243.115275 
L 198.034588 242.588589 
L 198.914894 242.588589 
L 198.914894 242.061903 
L 199.068809 242.061903 
L 199.068809 241.535217 
L 199.579037 241.535217 
L 199.579037 241.008531 
L 338.688 241.008531 
L 338.688 241.008531 
" style="fill:none;stroke:#ff00ff;stroke-linecap:square;stroke-width:1.5;"/>
   </g>
   <g id="line2d_41">
    <defs>
     <path d="M -0 8.485281 
L 5.091169 0 
L 0 -8.485281 
L -5.091169 -0 
z
" id="m94392decb7" style="stroke:#ff00ff;stroke-linejoin:miter;stroke-width:1.5;"/>
    </defs>
    <g>
     <use style="fill-opacity:0;stroke:#ff00ff;stroke-linejoin:miter;stroke-width:1.5;" x="79.447285" xlink:href="#m94392decb7" y="292.623767"/>
     <use style="fill-opacity:0;stroke:#ff00ff;stroke-linejoin:miter;stroke-width:1.5;" x="136.96118" xlink:href="#m94392decb7" y="258.915858"/>
     <use style="fill-opacity:0;stroke:#ff00ff;stroke-linejoin:miter;stroke-width:1.5;" x="199.579037" xlink:href="#m94392decb7" y="241.535217"/>
     <use style="fill-opacity:0;stroke:#ff00ff;stroke-linejoin:miter;stroke-width:1.5;" x="199.579037" xlink:href="#m94392decb7" y="241.008531"/>
     <use style="fill-opacity:0;stroke:#ff00ff;stroke-linejoin:miter;stroke-width:1.5;" x="199.579037" xlink:href="#m94392decb7" y="241.008531"/>
     <use style="fill-opacity:0;stroke:#ff00ff;stroke-linejoin:miter;stroke-width:1.5;" x="338.688" xlink:href="#m94392decb7" y="241.008531"/>
    </g>
   </g>
   <g id="line2d_42">
    <path style="fill:none;stroke:#ff00ff;stroke-linecap:square;stroke-width:1.5;"/>
    <g/>
   </g>
   <g id="line2d_43">
    <path clip-path="url(#p7c1625f250)" d="M 159.046236 256.282427 
" style="fill:none;stroke:#ff00ff;stroke-linecap:square;stroke-width:1.5;"/>
    <defs>
     <path d="M -12 12 
L 12 -12 
M -12 -12 
L 12 12 
" id="mf3bf63eac1" style="stroke:#ff00ff;"/>
    </defs>
    <g clip-path="url(#p7c1625f250)">
     <use style="fill:#ff00ff;stroke:#ff00ff;" x="159.046236" xlink:href="#mf3bf63eac1" y="256.282427"/>
    </g>
   </g>
   <g id="line2d_44">
    <defs>
     <path d="M 0 1.5 
C 0.397805 1.5 0.77937 1.341951 1.06066 1.06066 
C 1.341951 0.77937 1.5 0.397805 1.5 0 
C 1.5 -0.397805 1.341951 -0.77937 1.06066 -1.06066 
C 0.77937 -1.341951 0.397805 -1.5 0 -1.5 
C -0.397805 -1.5 -0.77937 -1.341951 -1.06066 -1.06066 
C -1.341951 -0.77937 -1.5 -0.397805 -1.5 0 
C -1.5 0.397805 -1.341951 0.77937 -1.06066 1.06066 
C -0.77937 1.341951 -0.397805 1.5 0 1.5 
z
" id="m5d60088442" style="stroke:#ff7500;"/>
    </defs>
    <g>
     <use style="fill:#ff7500;stroke:#ff7500;" x="208.400091" xlink:href="#m5d60088442" y="241.008531"/>
     <use style="fill:#ff7500;stroke:#ff7500;" x="208.400091" xlink:href="#m5d60088442" y="241.008531"/>
    </g>
   </g>
   <g id="line2d_45">
    <path d="M 17.444571 298.944 
L 17.444571 293.677139 
L 84.955534 293.677139 
L 84.955534 293.150453 
L 103.747386 293.150453 
L 103.747386 292.623767 
L 105.398279 292.623767 
L 105.398279 291.570395 
L 112.877038 291.570395 
L 112.877038 291.043709 
L 113.453595 291.043709 
L 113.453595 289.990337 
L 114.080224 289.990337 
L 114.080224 289.463651 
L 116.262979 289.463651 
L 116.262979 288.936964 
L 119.045825 288.936964 
L 119.045825 288.410278 
L 119.40226 288.410278 
L 119.40226 287.883592 
L 119.948058 287.883592 
L 119.948058 287.356906 
L 122.191052 287.356906 
L 122.191052 286.303534 
L 123.985457 286.303534 
L 123.985457 285.776848 
L 126.270496 285.776848 
L 126.270496 285.250162 
L 126.839037 285.250162 
L 126.937471 284.19679 
L 127.799239 284.19679 
L 127.799239 283.670104 
L 128.32077 283.670104 
L 128.32077 283.143418 
L 129.175952 283.143418 
L 129.175952 282.616732 
L 130.344571 282.616732 
L 130.344571 282.090045 
L 131.056477 282.090045 
L 131.159516 281.036673 
L 131.414481 281.036673 
L 131.414481 280.509987 
L 132.109167 280.509987 
L 132.109167 279.983301 
L 132.777237 279.983301 
L 132.777237 279.456615 
L 133.555497 279.456615 
L 133.622529 277.876557 
L 133.953874 277.876557 
L 133.953874 277.349871 
L 135.219673 277.349871 
L 135.219673 276.823185 
L 136.757427 276.823185 
L 136.757427 276.296499 
L 136.887363 276.296499 
L 136.887363 275.769812 
L 137.144368 275.769812 
L 137.144368 275.243126 
L 137.37967 275.243126 
L 137.37967 274.71644 
L 138.594838 274.71644 
L 138.594838 274.189754 
L 138.943469 274.189754 
L 138.943469 273.663068 
L 139.269142 273.663068 
L 139.269142 273.136382 
L 139.397728 273.136382 
L 139.397728 272.609696 
L 139.525372 272.609696 
L 139.525372 271.556324 
L 140.317849 271.556324 
L 140.317849 271.029638 
L 140.752916 271.029638 
L 140.752916 270.502952 
L 141.321401 270.502952 
L 141.321401 269.976266 
L 142.229539 269.976266 
L 142.283909 268.396207 
L 142.432559 268.396207 
L 142.432559 267.869521 
L 143.273169 267.869521 
L 143.273169 267.342835 
L 143.927534 267.342835 
L 143.927534 266.816149 
L 144.245733 266.816149 
L 144.245733 266.289463 
L 144.641416 266.289463 
L 144.712404 265.236091 
L 144.783103 265.236091 
L 144.783103 264.709405 
L 145.132366 264.709405 
L 145.212864 263.656033 
L 145.508645 263.656033 
L 145.508645 263.129347 
L 146.030918 263.129347 
L 146.030918 262.60266 
L 146.707319 262.60266 
L 146.707319 261.549288 
L 149.458667 261.549288 
L 149.458667 261.022602 
L 150.016276 261.022602 
L 150.016276 260.495916 
L 150.598782 260.495916 
L 150.598782 259.442544 
L 150.766468 259.442544 
L 150.766468 258.915858 
L 151.113448 258.915858 
L 151.113448 258.389172 
L 153.416559 258.389172 
L 153.416559 257.862486 
L 154.78099 257.862486 
L 154.78099 257.3358 
L 155.904009 257.3358 
L 155.904009 256.809114 
L 160.093714 256.809114 
L 160.093714 256.282427 
L 169.437534 256.282427 
L 169.437534 255.755741 
L 169.740933 255.755741 
L 169.740933 255.229055 
L 169.997643 255.229055 
L 169.997643 254.702369 
L 171.557249 254.702369 
L 171.557249 254.175683 
L 172.501342 254.175683 
L 172.501342 253.648997 
L 172.637578 253.648997 
L 172.637578 253.122311 
L 173.746708 253.122311 
L 173.82695 251.542253 
L 174.575644 251.542253 
L 174.575644 251.015567 
L 180.523336 251.015567 
L 180.523336 250.488881 
L 180.659133 250.488881 
L 180.659133 249.962195 
L 180.848977 249.962195 
L 180.848977 249.435508 
L 181.07791 249.435508 
L 181.07791 248.908822 
L 181.711874 248.908822 
L 181.711874 248.382136 
L 186.483756 248.382136 
L 186.483756 247.85545 
L 186.768769 247.85545 
L 186.768769 247.328764 
L 187.201688 247.328764 
L 187.201688 246.802078 
L 187.391722 246.802078 
L 187.412143 245.748706 
L 187.592842 245.748706 
L 187.592842 245.22202 
L 187.955642 245.22202 
L 187.955642 244.695334 
L 188.163109 244.695334 
L 188.163109 244.168648 
L 191.725016 244.168648 
L 191.725016 243.641962 
L 192.309567 243.641962 
L 192.309567 243.115275 
L 192.732086 243.115275 
L 192.732086 242.061903 
L 196.137572 242.061903 
L 196.137572 241.535217 
L 208.400091 241.535217 
L 208.400091 241.008531 
L 338.688 241.008531 
L 338.688 241.008531 
" style="fill:none;stroke:#ff7500;stroke-linecap:square;stroke-width:1.5;"/>
   </g>
   <g id="line2d_46">
    <defs>
     <path d="M 0 -6 
L -1.347084 -1.854102 
L -5.706339 -1.854102 
L -2.179628 0.708204 
L -3.526712 4.854102 
L -0 2.291796 
L 3.526712 4.854102 
L 2.179628 0.708204 
L 5.706339 -1.854102 
L 1.347084 -1.854102 
z
" id="m6643b67d3c" style="stroke:#ff7500;stroke-linejoin:bevel;stroke-width:1.5;"/>
    </defs>
    <g>
     <use style="fill-opacity:0;stroke:#ff7500;stroke-linejoin:bevel;stroke-width:1.5;" x="114.080224" xlink:href="#m6643b67d3c" y="289.990337"/>
     <use style="fill-opacity:0;stroke:#ff7500;stroke-linejoin:bevel;stroke-width:1.5;" x="160.093714" xlink:href="#m6643b67d3c" y="256.809114"/>
     <use style="fill-opacity:0;stroke:#ff7500;stroke-linejoin:bevel;stroke-width:1.5;" x="208.400091" xlink:href="#m6643b67d3c" y="241.535217"/>
     <use style="fill-opacity:0;stroke:#ff7500;stroke-linejoin:bevel;stroke-width:1.5;" x="208.400091" xlink:href="#m6643b67d3c" y="241.008531"/>
     <use style="fill-opacity:0;stroke:#ff7500;stroke-linejoin:bevel;stroke-width:1.5;" x="208.400091" xlink:href="#m6643b67d3c" y="241.008531"/>
     <use style="fill-opacity:0;stroke:#ff7500;stroke-linejoin:bevel;stroke-width:1.5;" x="338.688" xlink:href="#m6643b67d3c" y="241.008531"/>
    </g>
   </g>
   <g id="line2d_47">
    <path style="fill:none;stroke:#ff7500;stroke-linecap:square;stroke-width:1.5;"/>
    <g/>
   </g>
   <g id="line2d_48">
    <path clip-path="url(#p7c1625f250)" d="M 165.978297 256.282427 
" style="fill:none;stroke:#ff7500;stroke-linecap:square;stroke-width:1.5;"/>
    <defs>
     <path d="M -12 12 
L 12 -12 
M -12 -12 
L 12 12 
" id="me6df745497" style="stroke:#ff7500;"/>
    </defs>
    <g clip-path="url(#p7c1625f250)">
     <use style="fill:#ff7500;stroke:#ff7500;" x="165.978297" xlink:href="#me6df745497" y="256.282427"/>
    </g>
   </g>
   <g id="line2d_49">
    <defs>
     <path d="M 0 1.5 
C 0.397805 1.5 0.77937 1.341951 1.06066 1.06066 
C 1.341951 0.77937 1.5 0.397805 1.5 0 
C 1.5 -0.397805 1.341951 -0.77937 1.06066 -1.06066 
C 0.77937 -1.341951 0.397805 -1.5 0 -1.5 
C -0.397805 -1.5 -0.77937 -1.341951 -1.06066 -1.06066 
C -1.341951 -0.77937 -1.5 -0.397805 -1.5 0 
C -1.5 0.397805 -1.341951 0.77937 -1.06066 1.06066 
C -0.77937 1.341951 -0.397805 1.5 0 1.5 
z
" id="m2a9889b4e4" style="stroke:#6495ed;"/>
    </defs>
    <g>
     <use style="fill:#6495ed;stroke:#6495ed;" x="230.720832" xlink:href="#m2a9889b4e4" y="188.339923"/>
     <use style="fill:#6495ed;stroke:#6495ed;" x="230.720832" xlink:href="#m2a9889b4e4" y="188.339923"/>
    </g>
   </g>
   <g id="line2d_50">
    <path d="M 17.444571 298.944 
L 17.444571 293.677139 
L 78.421149 293.677139 
L 78.421149 293.150453 
L 99.258306 293.150453 
L 99.258306 292.097081 
L 102.196206 292.097081 
L 102.196206 291.570395 
L 104.114542 291.570395 
L 104.114542 291.043709 
L 106.06061 291.043709 
L 106.06061 290.517023 
L 106.906317 290.517023 
L 106.906317 289.990337 
L 107.111487 289.990337 
L 107.111487 289.463651 
L 107.514726 289.463651 
L 107.514726 288.936964 
L 110.274038 288.936964 
L 110.274038 288.410278 
L 111.185562 288.410278 
L 111.185562 287.883592 
L 111.346294 287.883592 
L 111.346294 287.356906 
L 111.584648 287.356906 
L 111.584648 286.83022 
L 111.74176 286.83022 
L 111.74176 286.303534 
L 113.453595 286.303534 
L 113.453595 285.776848 
L 114.685115 285.776848 
L 114.685115 285.250162 
L 115.33349 285.250162 
L 115.33349 284.723476 
L 116.621333 284.723476 
L 116.621333 284.19679 
L 117.542433 284.19679 
L 117.542433 283.670104 
L 119.996839 283.670104 
L 119.996839 283.143418 
L 120.712642 283.143418 
L 120.8059 282.090045 
L 121.310093 282.090045 
L 121.310093 281.036673 
L 121.756135 281.036673 
L 121.756135 280.509987 
L 121.931406 280.509987 
L 121.931406 279.983301 
L 122.148045 279.983301 
L 122.148045 279.456615 
L 123.829748 279.456615 
L 123.829748 278.929929 
L 124.024168 278.929929 
L 124.062793 277.876557 
L 124.330801 277.876557 
L 124.330801 276.296499 
L 124.669438 276.296499 
L 124.669438 275.769812 
L 125.961828 275.769812 
L 125.961828 275.243126 
L 126.540355 275.243126 
L 126.540355 274.71644 
L 127.197279 274.71644 
L 127.261631 273.663068 
L 127.579875 273.663068 
L 127.579875 273.136382 
L 127.736845 273.136382 
L 127.736845 272.609696 
L 130.290663 272.609696 
L 130.371462 271.556324 
L 131.465029 271.556324 
L 131.465029 271.029638 
L 132.133473 271.029638 
L 132.157744 268.396207 
L 132.917126 268.396207 
L 132.940331 267.342835 
L 133.398082 267.342835 
L 133.398082 266.816149 
L 133.510666 266.816149 
L 133.510666 266.289463 
L 133.888106 266.289463 
L 133.888106 265.762777 
L 135.138086 265.762777 
L 135.138086 265.236091 
L 135.44209 265.236091 
L 135.482227 264.182719 
L 137.629572 264.182719 
L 137.629572 263.656033 
L 138.527635 263.656033 
L 138.527635 263.129347 
L 139.683624 263.129347 
L 139.683624 262.60266 
L 141.732423 262.60266 
L 141.732423 262.075974 
L 142.818488 262.075974 
L 142.818488 261.549288 
L 143.208936 261.549288 
L 143.208936 260.495916 
L 143.964547 260.495916 
L 143.964547 258.915858 
L 144.087359 258.915858 
L 144.087359 258.389172 
L 145.96511 258.389172 
L 145.96511 257.862486 
L 146.791364 257.862486 
L 146.791364 257.3358 
L 149.823575 257.3358 
L 149.823575 256.809114 
L 150.267081 256.809114 
L 150.267081 256.282427 
L 151.186911 256.282427 
L 151.186911 255.755741 
L 151.905007 255.755741 
L 151.905007 255.229055 
L 152.283884 255.229055 
L 152.383036 253.648997 
L 152.5194 253.648997 
L 152.5194 253.122311 
L 153.025137 253.122311 
L 153.025137 252.595625 
L 154.337936 252.595625 
L 154.337936 252.068939 
L 154.641235 252.068939 
L 154.641235 251.542253 
L 154.833936 251.542253 
L 154.833936 250.488881 
L 155.271165 250.488881 
L 155.271165 249.435508 
L 157.992555 249.435508 
L 157.992555 248.908822 
L 162.979172 248.908822 
L 162.979172 248.382136 
L 163.748975 248.382136 
L 163.748975 247.85545 
L 165.160709 247.85545 
L 165.160709 247.328764 
L 165.302685 247.328764 
L 165.302685 246.802078 
L 165.483031 246.802078 
L 165.483031 246.275392 
L 165.77129 246.275392 
L 165.77129 245.748706 
L 167.509949 245.748706 
L 167.509949 243.641962 
L 167.769958 243.641962 
L 167.807685 242.588589 
L 168.318321 242.588589 
L 168.418678 240.481845 
L 169.111287 240.481845 
L 169.111287 239.955159 
L 169.466114 239.955159 
L 169.511744 238.375101 
L 170.160306 238.375101 
L 170.160306 237.848415 
L 170.324185 237.848415 
L 170.364915 235.74167 
L 170.464978 235.74167 
L 170.543006 234.161612 
L 171.776234 234.161612 
L 171.776234 233.634926 
L 171.923192 233.634926 
L 171.923192 233.10824 
L 172.412336 233.10824 
L 172.412336 232.581554 
L 172.544479 232.581554 
L 172.604215 230.47481 
L 173.199806 230.47481 
L 173.199806 229.948123 
L 173.369567 229.948123 
L 173.369567 229.421437 
L 173.521856 229.421437 
L 173.521856 228.894751 
L 174.526577 228.894751 
L 174.526577 227.314693 
L 176.987223 227.314693 
L 176.987223 226.788007 
L 177.731751 226.788007 
L 177.731751 226.261321 
L 177.963089 226.261321 
L 177.963089 225.734635 
L 178.848922 225.734635 
L 178.848922 225.207949 
L 179.897244 225.207949 
L 179.897244 224.681263 
L 180.374256 224.681263 
L 180.374256 224.154577 
L 180.635069 224.154577 
L 180.635069 223.101204 
L 180.900935 223.101204 
L 180.900935 222.574518 
L 181.216753 222.574518 
L 181.216753 222.047832 
L 181.44956 222.047832 
L 181.44956 220.99446 
L 181.656603 220.99446 
L 181.656603 220.467774 
L 182.110543 220.467774 
L 182.150603 219.414402 
L 182.693969 219.414402 
L 182.693969 218.887716 
L 182.859032 218.887716 
L 182.863006 217.834344 
L 184.425399 217.834344 
L 184.425399 217.307658 
L 184.869013 217.307658 
L 184.869013 216.780971 
L 185.662946 216.780971 
L 185.662946 216.254285 
L 186.302005 216.254285 
L 186.302005 215.727599 
L 186.645515 215.727599 
L 186.709376 214.147541 
L 186.764533 214.147541 
L 186.764533 213.620855 
L 187.077307 213.620855 
L 187.077307 213.094169 
L 187.291314 213.094169 
L 187.351833 210.987425 
L 187.611011 210.987425 
L 187.704584 208.88068 
L 189.394162 208.88068 
L 189.394162 208.353994 
L 190.549982 208.353994 
L 190.549982 207.827308 
L 190.77021 207.827308 
L 190.77021 207.300622 
L 191.41225 207.300622 
L 191.41225 206.773936 
L 192.367265 206.773936 
L 192.367265 205.720564 
L 192.621168 205.720564 
L 192.717036 204.667192 
L 193.440321 204.667192 
L 193.440321 203.613819 
L 193.912693 203.613819 
L 193.912693 203.087133 
L 195.005878 203.087133 
L 195.005878 202.033761 
L 195.369788 202.033761 
L 195.369788 201.507075 
L 195.536451 201.507075 
L 195.536451 200.980389 
L 196.046382 200.980389 
L 196.125193 199.927017 
L 196.295863 199.927017 
L 196.295863 199.400331 
L 197.638326 199.400331 
L 197.638326 198.873645 
L 199.818643 198.873645 
L 199.818643 198.346959 
L 200.140788 198.346959 
L 200.140788 197.820273 
L 200.771553 197.820273 
L 200.771553 197.293586 
L 201.016952 197.293586 
L 201.016952 196.7669 
L 201.167838 196.7669 
L 201.167838 196.240214 
L 201.423761 196.240214 
L 201.423761 195.713528 
L 202.920793 195.713528 
L 202.920793 195.186842 
L 203.081498 195.186842 
L 203.081498 194.660156 
L 203.96257 194.660156 
L 203.96257 194.13347 
L 204.81368 194.13347 
L 204.81368 193.606784 
L 205.435983 193.606784 
L 205.435983 193.080098 
L 205.833645 193.080098 
L 205.833645 192.553412 
L 206.623795 192.553412 
L 206.623795 192.026726 
L 211.538558 192.026726 
L 211.538558 191.50004 
L 213.729935 191.50004 
L 213.729935 190.973354 
L 218.496303 190.973354 
L 218.496303 190.446667 
L 219.590644 190.446667 
L 219.590644 189.919981 
L 222.081199 189.919981 
L 222.081199 189.393295 
L 228.928509 189.393295 
L 228.928509 188.866609 
L 230.720832 188.866609 
L 230.720832 188.339923 
L 338.688 188.339923 
L 338.688 188.339923 
" style="fill:none;stroke:#6495ed;stroke-linecap:square;stroke-width:1.5;"/>
   </g>
   <g id="line2d_51">
    <defs>
     <path d="M -0 6 
L 6 -6 
L -6 -6 
z
" id="mf79c613b70" style="stroke:#6495ed;stroke-linejoin:miter;stroke-width:1.5;"/>
    </defs>
    <g>
     <use style="fill-opacity:0;stroke:#6495ed;stroke-linejoin:miter;stroke-width:1.5;" x="144.087359" xlink:href="#mf79c613b70" y="258.915858"/>
     <use style="fill-opacity:0;stroke:#6495ed;stroke-linejoin:miter;stroke-width:1.5;" x="203.081498" xlink:href="#mf79c613b70" y="195.186842"/>
     <use style="fill-opacity:0;stroke:#6495ed;stroke-linejoin:miter;stroke-width:1.5;" x="230.720832" xlink:href="#mf79c613b70" y="188.339923"/>
     <use style="fill-opacity:0;stroke:#6495ed;stroke-linejoin:miter;stroke-width:1.5;" x="230.720832" xlink:href="#mf79c613b70" y="188.339923"/>
     <use style="fill-opacity:0;stroke:#6495ed;stroke-linejoin:miter;stroke-width:1.5;" x="338.688" xlink:href="#mf79c613b70" y="188.339923"/>
    </g>
   </g>
   <g id="line2d_52">
    <path style="fill:none;stroke:#6495ed;stroke-linecap:square;stroke-width:1.5;"/>
    <g/>
   </g>
   <g id="line2d_53">
    <path clip-path="url(#p7c1625f250)" d="M 165.978297 245.748706 
" style="fill:none;stroke:#6495ed;stroke-linecap:square;stroke-width:1.5;"/>
    <defs>
     <path d="M -12 12 
L 12 -12 
M -12 -12 
L 12 12 
" id="m8d62724d40" style="stroke:#6495ed;"/>
    </defs>
    <g clip-path="url(#p7c1625f250)">
     <use style="fill:#6495ed;stroke:#6495ed;" x="165.978297" xlink:href="#m8d62724d40" y="245.748706"/>
    </g>
   </g>
   <g id="line2d_54">
    <defs>
     <path d="M 0 1.5 
C 0.397805 1.5 0.77937 1.341951 1.06066 1.06066 
C 1.341951 0.77937 1.5 0.397805 1.5 0 
C 1.5 -0.397805 1.341951 -0.77937 1.06066 -1.06066 
C 0.77937 -1.341951 0.397805 -1.5 0 -1.5 
C -0.397805 -1.5 -0.77937 -1.341951 -1.06066 -1.06066 
C -1.341951 -0.77937 -1.5 -0.397805 -1.5 0 
C -1.5 0.397805 -1.341951 0.77937 -1.06066 1.06066 
C -0.77937 1.341951 -0.397805 1.5 0 1.5 
z
" id="mf5aaf76e4a" style="stroke:#ff0000;"/>
    </defs>
    <g>
     <use style="fill:#ff0000;stroke:#ff0000;" x="241.929361" xlink:href="#mf5aaf76e4a" y="151.471897"/>
     <use style="fill:#ff0000;stroke:#ff0000;" x="241.929361" xlink:href="#mf5aaf76e4a" y="151.471897"/>
    </g>
   </g>
   <g id="line2d_55">
    <path d="M 17.444571 298.944 
L 17.444571 293.677139 
L 95.723163 293.677139 
L 95.723163 293.150453 
L 97.928955 293.150453 
L 97.928955 292.623767 
L 98.771596 292.623767 
L 98.771596 292.097081 
L 99.575392 292.097081 
L 99.575392 291.570395 
L 102.597126 291.570395 
L 102.597126 291.043709 
L 103.372333 291.043709 
L 103.372333 290.517023 
L 103.623262 290.517023 
L 103.623262 289.990337 
L 106.48859 289.990337 
L 106.48859 288.936964 
L 106.906317 288.936964 
L 106.906317 288.410278 
L 108.006005 288.410278 
L 108.006005 287.883592 
L 109.040444 287.883592 
L 109.040444 287.356906 
L 109.668146 287.356906 
L 109.668146 286.83022 
L 110.103064 286.83022 
L 110.103064 285.776848 
L 111.505558 285.776848 
L 111.505558 285.250162 
L 111.974805 285.250162 
L 111.974805 284.723476 
L 112.877038 284.723476 
L 112.950158 282.090045 
L 113.095487 282.090045 
L 113.095487 281.563359 
L 113.664983 281.563359 
L 113.664983 281.036673 
L 114.284194 281.036673 
L 114.284194 279.983301 
L 115.773423 279.983301 
L 115.835374 278.929929 
L 116.019919 278.929929 
L 116.019919 278.403243 
L 116.38325 278.403243 
L 116.443076 276.823185 
L 117.259781 276.823185 
L 117.259781 275.769812 
L 118.094355 275.769812 
L 118.094355 275.243126 
L 118.994305 275.243126 
L 118.994305 274.71644 
L 119.301163 274.71644 
L 119.301163 274.189754 
L 119.80089 274.189754 
L 119.80089 273.663068 
L 120.238719 273.663068 
L 120.238719 273.136382 
L 120.712642 273.136382 
L 120.712642 272.609696 
L 121.174025 272.609696 
L 121.174025 272.08301 
L 122.31944 272.08301 
L 122.31944 271.556324 
L 122.531342 271.556324 
L 122.531342 271.029638 
L 122.657258 271.029638 
L 122.657258 270.502952 
L 123.394238 270.502952 
L 123.394238 269.976266 
L 123.633136 269.976266 
L 123.633136 269.449579 
L 123.868806 269.449579 
L 123.868806 268.922893 
L 124.139788 268.922893 
L 124.139788 268.396207 
L 125.183475 268.396207 
L 125.219619 267.342835 
L 125.327602 267.342835 
L 125.327602 266.816149 
L 125.682793 266.816149 
L 125.682793 266.289463 
L 127.861412 266.289463 
L 127.861412 265.762777 
L 128.077285 265.762777 
L 128.077285 265.236091 
L 128.501178 265.236091 
L 128.501178 264.709405 
L 128.620421 264.709405 
L 128.620421 264.182719 
L 129.262072 264.182719 
L 129.262072 263.656033 
L 130.290663 263.656033 
L 130.290663 263.129347 
L 131.765283 263.129347 
L 131.765283 262.60266 
L 132.326708 262.60266 
L 132.326708 262.075974 
L 134.214491 262.075974 
L 134.214491 261.549288 
L 135.701341 261.549288 
L 135.760625 260.495916 
L 137.162581 260.495916 
L 137.217107 259.442544 
L 138.375473 259.442544 
L 138.375473 258.915858 
L 140.195896 258.915858 
L 140.287441 257.862486 
L 141.549369 257.862486 
L 141.549369 257.3358 
L 142.324576 257.3358 
L 142.324576 256.809114 
L 144.366588 256.809114 
L 144.366588 256.282427 
L 146.622867 256.282427 
L 146.622867 255.755741 
L 146.791364 255.755741 
L 146.791364 255.229055 
L 147.499916 255.229055 
L 147.499916 254.702369 
L 148.601505 254.702369 
L 148.667509 253.648997 
L 151.039674 253.648997 
L 151.039674 253.122311 
L 152.137948 253.122311 
L 152.137948 252.595625 
L 154.533999 252.595625 
L 154.533999 252.068939 
L 155.953659 252.068939 
L 155.953659 251.542253 
L 157.759435 251.542253 
L 157.759435 251.015567 
L 159.522371 251.015567 
L 159.522371 250.488881 
L 160.278464 250.488881 
L 160.278464 249.962195 
L 163.752938 249.962195 
L 163.752938 249.435508 
L 166.792585 249.435508 
L 166.792585 248.908822 
L 167.265454 248.908822 
L 167.265454 248.382136 
L 167.471572 248.382136 
L 167.545055 246.802078 
L 167.595991 246.802078 
L 167.595991 246.275392 
L 167.728995 246.275392 
L 167.728995 245.748706 
L 167.901647 245.748706 
L 167.901647 245.22202 
L 168.097334 245.22202 
L 168.097334 244.695334 
L 168.266395 244.695334 
L 168.272512 243.641962 
L 168.64763 243.641962 
L 168.64763 242.588589 
L 168.808499 242.588589 
L 168.808499 242.061903 
L 169.03535 242.061903 
L 169.044129 239.955159 
L 169.236155 239.955159 
L 169.236155 239.428473 
L 169.577129 239.428473 
L 169.577129 238.375101 
L 170.108089 238.375101 
L 170.108089 237.848415 
L 170.413666 237.848415 
L 170.510761 236.795043 
L 170.875396 236.795043 
L 170.875396 236.268356 
L 171.476006 236.268356 
L 171.476006 234.688298 
L 171.622982 234.688298 
L 171.622982 234.161612 
L 173.266531 234.161612 
L 173.266531 233.634926 
L 173.764571 233.634926 
L 173.764571 232.581554 
L 175.213598 232.581554 
L 175.213598 232.054868 
L 175.448206 232.054868 
L 175.448206 231.528182 
L 176.07512 231.528182 
L 176.07512 230.47481 
L 176.989078 230.47481 
L 176.989078 229.421437 
L 178.591926 229.421437 
L 178.591926 228.894751 
L 178.704933 228.894751 
L 178.704933 228.368065 
L 179.167796 228.368065 
L 179.247834 227.314693 
L 179.538738 227.314693 
L 179.543545 226.261321 
L 180.179144 226.261321 
L 180.179144 225.734635 
L 180.424599 225.734635 
L 180.424599 225.207949 
L 180.686166 225.207949 
L 180.686166 224.681263 
L 180.829639 224.681263 
L 180.853437 223.627891 
L 181.621081 223.627891 
L 181.621081 223.101204 
L 182.088402 223.101204 
L 182.088402 222.574518 
L 183.288264 222.574518 
L 183.288264 222.047832 
L 183.43629 222.047832 
L 183.43629 221.521146 
L 185.489487 221.521146 
L 185.565658 220.467774 
L 185.704636 220.467774 
L 185.740611 219.414402 
L 185.831345 219.414402 
L 185.831345 218.36103 
L 186.135916 218.36103 
L 186.216973 217.307658 
L 186.414741 217.307658 
L 186.414741 216.780971 
L 186.897465 216.780971 
L 186.971927 215.200913 
L 187.445785 215.200913 
L 187.445785 214.147541 
L 188.135719 214.147541 
L 188.135719 213.620855 
L 188.750319 213.620855 
L 188.750319 213.094169 
L 188.894318 213.094169 
L 188.894318 212.567483 
L 189.623986 212.567483 
L 189.623986 212.040797 
L 190.65875 212.040797 
L 190.713724 210.987425 
L 190.860878 210.987425 
L 190.860878 209.934052 
L 191.125965 209.934052 
L 191.125965 208.88068 
L 191.513366 208.88068 
L 191.590627 207.827308 
L 192.022091 207.827308 
L 192.022091 207.300622 
L 192.450018 207.300622 
L 192.450018 206.773936 
L 192.931761 206.773936 
L 192.959995 205.720564 
L 194.388345 205.720564 
L 194.494724 204.667192 
L 194.528005 204.667192 
L 194.528005 204.140506 
L 194.82337 204.140506 
L 194.82337 203.613819 
L 195.027651 203.613819 
L 195.123 202.033761 
L 195.204128 202.033761 
L 195.292676 199.400331 
L 195.767387 199.400331 
L 195.767387 198.873645 
L 196.097308 198.873645 
L 196.097308 198.346959 
L 196.301993 198.346959 
L 196.395518 196.7669 
L 196.873567 196.7669 
L 196.873567 196.240214 
L 197.402274 196.240214 
L 197.402274 195.713528 
L 197.600248 195.713528 
L 197.600248 195.186842 
L 197.875706 195.186842 
L 197.985127 194.13347 
L 198.127571 194.13347 
L 198.127571 193.606784 
L 198.951262 193.606784 
L 198.951262 192.026726 
L 199.144999 192.026726 
L 199.144999 191.50004 
L 199.367482 191.50004 
L 199.367482 190.973354 
L 200.10337 190.973354 
L 200.203627 189.393295 
L 200.259403 189.393295 
L 200.259403 188.866609 
L 200.385948 188.866609 
L 200.385948 188.339923 
L 200.620534 188.339923 
L 200.620534 187.813237 
L 200.940547 187.813237 
L 200.940547 187.286551 
L 201.262174 187.286551 
L 201.262174 186.759865 
L 202.505775 186.759865 
L 202.591453 185.706493 
L 202.684365 185.706493 
L 202.684365 185.179807 
L 202.862407 185.179807 
L 202.923309 184.126434 
L 203.701487 184.126434 
L 203.747539 183.073062 
L 204.062619 183.073062 
L 204.062619 182.546376 
L 204.634437 182.546376 
L 204.734874 180.966318 
L 204.80653 180.966318 
L 204.80653 180.439632 
L 205.000034 180.439632 
L 205.100243 179.38626 
L 205.151239 179.38626 
L 205.151239 178.859574 
L 205.273685 178.859574 
L 205.273685 178.332888 
L 205.585631 178.332888 
L 205.585631 177.806202 
L 205.923542 177.806202 
L 205.923542 177.279515 
L 206.464702 177.279515 
L 206.488299 176.226143 
L 206.722538 176.226143 
L 206.722538 175.699457 
L 207.298317 175.699457 
L 207.298317 175.172771 
L 208.016734 175.172771 
L 208.097947 174.119399 
L 208.456356 174.119399 
L 208.498436 173.066027 
L 208.59956 173.066027 
L 208.59956 172.539341 
L 209.643232 172.539341 
L 209.729152 171.485969 
L 209.770256 171.485969 
L 209.80985 169.90591 
L 210.112584 169.90591 
L 210.112584 169.379224 
L 210.331096 169.379224 
L 210.331096 168.852538 
L 211.730652 168.852538 
L 211.730652 168.325852 
L 212.455499 168.325852 
L 212.455499 167.799166 
L 212.84127 167.799166 
L 212.84127 167.27248 
L 213.998161 167.27248 
L 213.998161 166.219108 
L 214.741934 166.219108 
L 214.741934 165.692422 
L 216.081935 165.692422 
L 216.081935 165.165736 
L 216.879834 165.165736 
L 216.879834 164.63905 
L 217.127989 164.63905 
L 217.127989 164.112363 
L 218.472424 164.112363 
L 218.472424 163.585677 
L 219.711947 163.585677 
L 219.711947 163.058991 
L 220.494664 163.058991 
L 220.494664 162.532305 
L 220.792153 162.532305 
L 220.853296 161.478933 
L 221.174988 161.478933 
L 221.174988 160.952247 
L 221.901369 160.952247 
L 221.901369 160.425561 
L 222.588386 160.425561 
L 222.588386 159.898875 
L 223.259293 159.898875 
L 223.259293 158.845503 
L 224.861462 158.845503 
L 224.861462 158.318817 
L 226.030738 158.318817 
L 226.030738 157.79213 
L 227.873153 157.79213 
L 227.921217 156.738758 
L 228.540076 156.738758 
L 228.540076 156.212072 
L 228.818205 156.212072 
L 228.818205 155.685386 
L 230.534436 155.685386 
L 230.553363 154.632014 
L 230.88713 154.632014 
L 230.88713 154.105328 
L 231.924297 154.105328 
L 231.924297 153.578642 
L 233.041847 153.578642 
L 233.041847 153.051956 
L 235.473479 153.051956 
L 235.473479 152.52527 
L 237.005015 152.52527 
L 237.005015 151.998584 
L 241.929361 151.998584 
L 241.929361 151.471897 
L 338.688 151.471897 
L 338.688 151.471897 
" style="fill:none;stroke:#ff0000;stroke-linecap:square;stroke-width:1.5;"/>
   </g>
   <g id="line2d_56">
    <defs>
     <path d="M 0 -6 
L -5.196152 -3 
L -5.196152 3 
L -0 6 
L 5.196152 3 
L 5.196152 -3 
z
" id="m217204fead" style="stroke:#ff0000;stroke-linejoin:miter;stroke-width:1.5;"/>
    </defs>
    <g>
     <use style="fill-opacity:0;stroke:#ff0000;stroke-linejoin:miter;stroke-width:1.5;" x="123.633136" xlink:href="#m217204fead" y="269.449579"/>
     <use style="fill-opacity:0;stroke:#ff0000;stroke-linejoin:miter;stroke-width:1.5;" x="183.43629" xlink:href="#m217204fead" y="221.521146"/>
     <use style="fill-opacity:0;stroke:#ff0000;stroke-linejoin:miter;stroke-width:1.5;" x="241.929361" xlink:href="#m217204fead" y="151.998584"/>
     <use style="fill-opacity:0;stroke:#ff0000;stroke-linejoin:miter;stroke-width:1.5;" x="241.929361" xlink:href="#m217204fead" y="151.471897"/>
     <use style="fill-opacity:0;stroke:#ff0000;stroke-linejoin:miter;stroke-width:1.5;" x="241.929361" xlink:href="#m217204fead" y="151.471897"/>
     <use style="fill-opacity:0;stroke:#ff0000;stroke-linejoin:miter;stroke-width:1.5;" x="338.688" xlink:href="#m217204fead" y="151.471897"/>
    </g>
   </g>
   <g id="line2d_57">
    <path style="fill:none;stroke:#ff0000;stroke-linecap:square;stroke-width:1.5;"/>
    <g/>
   </g>
   <g id="line2d_58">
    <path clip-path="url(#p7c1625f250)" d="M 165.978297 249.435508 
" style="fill:none;stroke:#ff0000;stroke-linecap:square;stroke-width:1.5;"/>
    <defs>
     <path d="M -12 12 
L 12 -12 
M -12 -12 
L 12 12 
" id="m1cde2a882b" style="stroke:#ff0000;"/>
    </defs>
    <g clip-path="url(#p7c1625f250)">
     <use style="fill:#ff0000;stroke:#ff0000;" x="165.978297" xlink:href="#m1cde2a882b" y="249.435508"/>
    </g>
   </g>
   <g id="line2d_59">
    <path d="M 338.688 267.342835 
L 369.60768 293.571802 
" style="fill:none;stroke:#000080;stroke-linecap:square;stroke-width:1.5;"/>
    <g>
     <use style="fill-opacity:0;stroke:#000080;stroke-width:1.5;" x="338.688" xlink:href="#m6487626d7e" y="267.342835"/>
     <use style="fill-opacity:0;stroke:#000080;stroke-width:1.5;" x="369.60768" xlink:href="#m6487626d7e" y="293.571802"/>
    </g>
   </g>
   <g id="line2d_60">
    <path d="M 338.688 241.008531 
L 369.60768 241.998701 
" style="fill:none;stroke:#ff7500;stroke-linecap:square;stroke-width:1.5;"/>
    <g>
     <use style="fill-opacity:0;stroke:#ff7500;stroke-linejoin:bevel;stroke-width:1.5;" x="338.688" xlink:href="#m6643b67d3c" y="241.008531"/>
     <use style="fill-opacity:0;stroke:#ff7500;stroke-linejoin:bevel;stroke-width:1.5;" x="369.60768" xlink:href="#m6643b67d3c" y="241.998701"/>
    </g>
   </g>
   <g id="line2d_61">
    <path d="M 338.688 241.008531 
L 369.60768 190.4256 
" style="fill:none;stroke:#ff00ff;stroke-linecap:square;stroke-width:1.5;"/>
    <g>
     <use style="fill-opacity:0;stroke:#ff00ff;stroke-linejoin:miter;stroke-width:1.5;" x="338.688" xlink:href="#m94392decb7" y="241.008531"/>
     <use style="fill-opacity:0;stroke:#ff00ff;stroke-linejoin:miter;stroke-width:1.5;" x="369.60768" xlink:href="#m94392decb7" y="190.4256"/>
    </g>
   </g>
   <g id="line2d_62">
    <path d="M 338.688 188.339923 
L 369.60768 138.852499 
" style="fill:none;stroke:#6495ed;stroke-linecap:square;stroke-width:1.5;"/>
    <g>
     <use style="fill-opacity:0;stroke:#6495ed;stroke-linejoin:miter;stroke-width:1.5;" x="338.688" xlink:href="#mf79c613b70" y="188.339923"/>
     <use style="fill-opacity:0;stroke:#6495ed;stroke-linejoin:miter;stroke-width:1.5;" x="369.60768" xlink:href="#mf79c613b70" y="138.852499"/>
    </g>
   </g>
   <g id="line2d_63">
    <path d="M 338.688 151.471897 
L 369.60768 87.279398 
" style="fill:none;stroke:#ff0000;stroke-linecap:square;stroke-width:1.5;"/>
    <g>
     <use style="fill-opacity:0;stroke:#ff0000;stroke-linejoin:miter;stroke-width:1.5;" x="338.688" xlink:href="#m217204fead" y="151.471897"/>
     <use style="fill-opacity:0;stroke:#ff0000;stroke-linejoin:miter;stroke-width:1.5;" x="369.60768" xlink:href="#m217204fead" y="87.279398"/>
    </g>
   </g>
   <g id="line2d_64">
    <path d="M 338.688 298.944 
L 338.688 30.334099 
" style="fill:none;stroke:#000000;stroke-linecap:square;stroke-width:1.5;"/>
   </g>
   <g id="patch_3">
    <path d="M 57.6 298.944 
L 57.6 27.648 
" style="fill:none;stroke:#000000;stroke-linecap:square;stroke-linejoin:miter;stroke-width:0.8;"/>
   </g>
   <g id="patch_4">
    <path d="M 338.688 298.944 
L 338.688 27.648 
" style="fill:none;stroke:#000000;stroke-linecap:square;stroke-linejoin:miter;stroke-width:0.8;"/>
   </g>
   <g id="patch_5">
    <path d="M 57.6 298.944 
L 338.688 298.944 
" style="fill:none;stroke:#000000;stroke-linecap:square;stroke-linejoin:miter;stroke-width:0.8;"/>
   </g>
   <g id="patch_6">
    <path d="M 57.6 27.648 
L 338.688 27.648 
" style="fill:none;stroke:#000000;stroke-linecap:square;stroke-linejoin:miter;stroke-width:0.8;"/>
   </g>
   <g id="text_13">
    <!-- ABC -->
    <defs>
     <path d="M 34.1875 63.1875 
L 20.796875 26.90625 
L 47.609375 26.90625 
z
M 28.609375 72.90625 
L 39.796875 72.90625 
L 67.578125 0 
L 57.328125 0 
L 50.6875 18.703125 
L 17.828125 18.703125 
L 11.1875 0 
L 0.78125 0 
z
" id="DejaVuSans-65"/>
     <path d="M 19.671875 34.8125 
L 19.671875 8.109375 
L 35.5 8.109375 
Q 43.453125 8.109375 47.28125 11.40625 
Q 51.125 14.703125 51.125 21.484375 
Q 51.125 28.328125 47.28125 31.5625 
Q 43.453125 34.8125 35.5 34.8125 
z
M 19.671875 64.796875 
L 19.671875 42.828125 
L 34.28125 42.828125 
Q 41.5 42.828125 45.03125 45.53125 
Q 48.578125 48.25 48.578125 53.8125 
Q 48.578125 59.328125 45.03125 62.0625 
Q 41.5 64.796875 34.28125 64.796875 
z
M 9.8125 72.90625 
L 35.015625 72.90625 
Q 46.296875 72.90625 52.390625 68.21875 
Q 58.5 63.53125 58.5 54.890625 
Q 58.5 48.1875 55.375 44.234375 
Q 52.25 40.28125 46.1875 39.3125 
Q 53.46875 37.75 57.5 32.78125 
Q 61.53125 27.828125 61.53125 20.40625 
Q 61.53125 10.640625 54.890625 5.3125 
Q 48.25 0 35.984375 0 
L 9.8125 0 
z
" id="DejaVuSans-66"/>
     <path d="M 64.40625 67.28125 
L 64.40625 56.890625 
Q 59.421875 61.53125 53.78125 63.8125 
Q 48.140625 66.109375 41.796875 66.109375 
Q 29.296875 66.109375 22.65625 58.46875 
Q 16.015625 50.828125 16.015625 36.375 
Q 16.015625 21.96875 22.65625 14.328125 
Q 29.296875 6.6875 41.796875 6.6875 
Q 48.140625 6.6875 53.78125 8.984375 
Q 59.421875 11.28125 64.40625 15.921875 
L 64.40625 5.609375 
Q 59.234375 2.09375 53.4375 0.328125 
Q 47.65625 -1.421875 41.21875 -1.421875 
Q 24.65625 -1.421875 15.125 8.703125 
Q 5.609375 18.84375 5.609375 36.375 
Q 5.609375 53.953125 15.125 64.078125 
Q 24.65625 74.21875 41.21875 74.21875 
Q 47.75 74.21875 53.53125 72.484375 
Q 59.328125 70.75 64.40625 67.28125 
z
" id="DejaVuSans-67"/>
    </defs>
    <g transform="translate(375.22944 298.262739)scale(0.17 -0.17)">
     <use xlink:href="#DejaVuSans-65"/>
     <use x="68.408203" xlink:href="#DejaVuSans-66"/>
     <use x="135.261719" xlink:href="#DejaVuSans-67"/>
    </g>
   </g>
   <g id="text_14">
    <!-- DE -->
    <defs>
     <path d="M 19.671875 64.796875 
L 19.671875 8.109375 
L 31.59375 8.109375 
Q 46.6875 8.109375 53.6875 14.9375 
Q 60.6875 21.78125 60.6875 36.53125 
Q 60.6875 51.171875 53.6875 57.984375 
Q 46.6875 64.796875 31.59375 64.796875 
z
M 9.8125 72.90625 
L 30.078125 72.90625 
Q 51.265625 72.90625 61.171875 64.09375 
Q 71.09375 55.28125 71.09375 36.53125 
Q 71.09375 17.671875 61.125 8.828125 
Q 51.171875 0 30.078125 0 
L 9.8125 0 
z
" id="DejaVuSans-68"/>
     <path d="M 9.8125 72.90625 
L 55.90625 72.90625 
L 55.90625 64.59375 
L 19.671875 64.59375 
L 19.671875 43.015625 
L 54.390625 43.015625 
L 54.390625 34.71875 
L 19.671875 34.71875 
L 19.671875 8.296875 
L 56.78125 8.296875 
L 56.78125 0 
L 9.8125 0 
z
" id="DejaVuSans-69"/>
    </defs>
    <g transform="translate(375.22944 246.689638)scale(0.17 -0.17)">
     <use xlink:href="#DejaVuSans-68"/>
     <use x="77.001953" xlink:href="#DejaVuSans-69"/>
    </g>
   </g>
   <g id="text_15">
    <!-- CMA-ES -->
    <defs>
     <path d="M 9.8125 72.90625 
L 24.515625 72.90625 
L 43.109375 23.296875 
L 61.8125 72.90625 
L 76.515625 72.90625 
L 76.515625 0 
L 66.890625 0 
L 66.890625 64.015625 
L 48.09375 14.015625 
L 38.1875 14.015625 
L 19.390625 64.015625 
L 19.390625 0 
L 9.8125 0 
z
" id="DejaVuSans-77"/>
     <path d="M 53.515625 70.515625 
L 53.515625 60.890625 
Q 47.90625 63.578125 42.921875 64.890625 
Q 37.9375 66.21875 33.296875 66.21875 
Q 25.25 66.21875 20.875 63.09375 
Q 16.5 59.96875 16.5 54.203125 
Q 16.5 49.359375 19.40625 46.890625 
Q 22.3125 44.4375 30.421875 42.921875 
L 36.375 41.703125 
Q 47.40625 39.59375 52.65625 34.296875 
Q 57.90625 29 57.90625 20.125 
Q 57.90625 9.515625 50.796875 4.046875 
Q 43.703125 -1.421875 29.984375 -1.421875 
Q 24.8125 -1.421875 18.96875 -0.25 
Q 13.140625 0.921875 6.890625 3.21875 
L 6.890625 13.375 
Q 12.890625 10.015625 18.65625 8.296875 
Q 24.421875 6.59375 29.984375 6.59375 
Q 38.421875 6.59375 43.015625 9.90625 
Q 47.609375 13.234375 47.609375 19.390625 
Q 47.609375 24.75 44.3125 27.78125 
Q 41.015625 30.8125 33.5 32.328125 
L 27.484375 33.5 
Q 16.453125 35.6875 11.515625 40.375 
Q 6.59375 45.0625 6.59375 53.421875 
Q 6.59375 63.09375 13.40625 68.65625 
Q 20.21875 74.21875 32.171875 74.21875 
Q 37.3125 74.21875 42.625 73.28125 
Q 47.953125 72.359375 53.515625 70.515625 
z
" id="DejaVuSans-83"/>
    </defs>
    <g transform="translate(375.22944 195.116537)scale(0.17 -0.17)">
     <use xlink:href="#DejaVuSans-67"/>
     <use x="69.824219" xlink:href="#DejaVuSans-77"/>
     <use x="156.103516" xlink:href="#DejaVuSans-65"/>
     <use x="222.261719" xlink:href="#DejaVuSans-45"/>
     <use x="258.345703" xlink:href="#DejaVuSans-69"/>
     <use x="321.529297" xlink:href="#DejaVuSans-83"/>
    </g>
   </g>
   <g id="text_16">
    <!-- DEPSO -->
    <defs>
     <path d="M 19.671875 64.796875 
L 19.671875 37.40625 
L 32.078125 37.40625 
Q 38.96875 37.40625 42.71875 40.96875 
Q 46.484375 44.53125 46.484375 51.125 
Q 46.484375 57.671875 42.71875 61.234375 
Q 38.96875 64.796875 32.078125 64.796875 
z
M 9.8125 72.90625 
L 32.078125 72.90625 
Q 44.34375 72.90625 50.609375 67.359375 
Q 56.890625 61.8125 56.890625 51.125 
Q 56.890625 40.328125 50.609375 34.8125 
Q 44.34375 29.296875 32.078125 29.296875 
L 19.671875 29.296875 
L 19.671875 0 
L 9.8125 0 
z
" id="DejaVuSans-80"/>
     <path d="M 39.40625 66.21875 
Q 28.65625 66.21875 22.328125 58.203125 
Q 16.015625 50.203125 16.015625 36.375 
Q 16.015625 22.609375 22.328125 14.59375 
Q 28.65625 6.59375 39.40625 6.59375 
Q 50.140625 6.59375 56.421875 14.59375 
Q 62.703125 22.609375 62.703125 36.375 
Q 62.703125 50.203125 56.421875 58.203125 
Q 50.140625 66.21875 39.40625 66.21875 
z
M 39.40625 74.21875 
Q 54.734375 74.21875 63.90625 63.9375 
Q 73.09375 53.65625 73.09375 36.375 
Q 73.09375 19.140625 63.90625 8.859375 
Q 54.734375 -1.421875 39.40625 -1.421875 
Q 24.03125 -1.421875 14.8125 8.828125 
Q 5.609375 19.09375 5.609375 36.375 
Q 5.609375 53.65625 14.8125 63.9375 
Q 24.03125 74.21875 39.40625 74.21875 
z
" id="DejaVuSans-79"/>
    </defs>
    <g transform="translate(375.22944 143.543437)scale(0.17 -0.17)">
     <use xlink:href="#DejaVuSans-68"/>
     <use x="77.001953" xlink:href="#DejaVuSans-69"/>
     <use x="140.185547" xlink:href="#DejaVuSans-80"/>
     <use x="200.488281" xlink:href="#DejaVuSans-83"/>
     <use x="263.964844" xlink:href="#DejaVuSans-79"/>
    </g>
   </g>
   <g id="text_17">
    <!-- PSO -->
    <g transform="translate(375.22944 91.970336)scale(0.17 -0.17)">
     <use xlink:href="#DejaVuSans-80"/>
     <use x="60.302734" xlink:href="#DejaVuSans-83"/>
     <use x="123.779297" xlink:href="#DejaVuSans-79"/>
    </g>
   </g>
   <g id="text_18">
    <!-- best 2009 -->
    <defs>
     <path d="M 48.6875 27.296875 
Q 48.6875 37.203125 44.609375 42.84375 
Q 40.53125 48.484375 33.40625 48.484375 
Q 26.265625 48.484375 22.1875 42.84375 
Q 18.109375 37.203125 18.109375 27.296875 
Q 18.109375 17.390625 22.1875 11.75 
Q 26.265625 6.109375 33.40625 6.109375 
Q 40.53125 6.109375 44.609375 11.75 
Q 48.6875 17.390625 48.6875 27.296875 
z
M 18.109375 46.390625 
Q 20.953125 51.265625 25.265625 53.625 
Q 29.59375 56 35.59375 56 
Q 45.5625 56 51.78125 48.09375 
Q 58.015625 40.1875 58.015625 27.296875 
Q 58.015625 14.40625 51.78125 6.484375 
Q 45.5625 -1.421875 35.59375 -1.421875 
Q 29.59375 -1.421875 25.265625 0.953125 
Q 20.953125 3.328125 18.109375 8.203125 
L 18.109375 0 
L 9.078125 0 
L 9.078125 75.984375 
L 18.109375 75.984375 
z
" id="DejaVuSans-98"/>
     <path d="M 10.984375 1.515625 
L 10.984375 10.5 
Q 14.703125 8.734375 18.5 7.8125 
Q 22.3125 6.890625 25.984375 6.890625 
Q 35.75 6.890625 40.890625 13.453125 
Q 46.046875 20.015625 46.78125 33.40625 
Q 43.953125 29.203125 39.59375 26.953125 
Q 35.25 24.703125 29.984375 24.703125 
Q 19.046875 24.703125 12.671875 31.3125 
Q 6.296875 37.9375 6.296875 49.421875 
Q 6.296875 60.640625 12.9375 67.421875 
Q 19.578125 74.21875 30.609375 74.21875 
Q 43.265625 74.21875 49.921875 64.515625 
Q 56.59375 54.828125 56.59375 36.375 
Q 56.59375 19.140625 48.40625 8.859375 
Q 40.234375 -1.421875 26.421875 -1.421875 
Q 22.703125 -1.421875 18.890625 -0.6875 
Q 15.09375 0.046875 10.984375 1.515625 
z
M 30.609375 32.421875 
Q 37.25 32.421875 41.125 36.953125 
Q 45.015625 41.5 45.015625 49.421875 
Q 45.015625 57.28125 41.125 61.84375 
Q 37.25 66.40625 30.609375 66.40625 
Q 23.96875 66.40625 20.09375 61.84375 
Q 16.21875 57.28125 16.21875 49.421875 
Q 16.21875 41.5 20.09375 36.953125 
Q 23.96875 32.421875 30.609375 32.421875 
z
" id="DejaVuSans-57"/>
    </defs>
    <g transform="translate(375.22944 40.397235)scale(0.17 -0.17)">
     <use xlink:href="#DejaVuSans-98"/>
     <use x="63.476562" xlink:href="#DejaVuSans-101"/>
     <use x="125" xlink:href="#DejaVuSans-115"/>
     <use x="177.099609" xlink:href="#DejaVuSans-116"/>
     <use x="216.308594" xlink:href="#DejaVuSans-32"/>
     <use x="248.095703" xlink:href="#DejaVuSans-50"/>
     <use x="311.71875" xlink:href="#DejaVuSans-48"/>
     <use x="375.341797" xlink:href="#DejaVuSans-48"/>
     <use x="438.964844" xlink:href="#DejaVuSans-57"/>
    </g>
   </g>
   <g id="text_19">
    <!-- bbob f22, 10-D -->
    <g transform="translate(60.41088 38.111366)scale(0.102 -0.102)">
     <use xlink:href="#DejaVuSans-98"/>
     <use x="63.476562" xlink:href="#DejaVuSans-98"/>
     <use x="126.953125" xlink:href="#DejaVuSans-111"/>
     <use x="188.134766" xlink:href="#DejaVuSans-98"/>
     <use x="251.611328" xlink:href="#DejaVuSans-32"/>
     <use x="283.398438" xlink:href="#DejaVuSans-102"/>
     <use x="318.603516" xlink:href="#DejaVuSans-50"/>
     <use x="382.226562" xlink:href="#DejaVuSans-50"/>
     <use x="445.849609" xlink:href="#DejaVuSans-44"/>
     <use x="477.636719" xlink:href="#DejaVuSans-32"/>
     <use x="509.423828" xlink:href="#DejaVuSans-49"/>
     <use x="573.046875" xlink:href="#DejaVuSans-48"/>
     <use x="636.669922" xlink:href="#DejaVuSans-45"/>
     <use x="672.753906" xlink:href="#DejaVuSans-68"/>
    </g>
    <!-- 51 targets: 100..1e-08 -->
    <defs>
     <path d="M 10.796875 72.90625 
L 49.515625 72.90625 
L 49.515625 64.59375 
L 19.828125 64.59375 
L 19.828125 46.734375 
Q 21.96875 47.46875 24.109375 47.828125 
Q 26.265625 48.1875 28.421875 48.1875 
Q 40.625 48.1875 47.75 41.5 
Q 54.890625 34.8125 54.890625 23.390625 
Q 54.890625 11.625 47.5625 5.09375 
Q 40.234375 -1.421875 26.90625 -1.421875 
Q 22.3125 -1.421875 17.546875 -0.640625 
Q 12.796875 0.140625 7.71875 1.703125 
L 7.71875 11.625 
Q 12.109375 9.234375 16.796875 8.0625 
Q 21.484375 6.890625 26.703125 6.890625 
Q 35.15625 6.890625 40.078125 11.328125 
Q 45.015625 15.765625 45.015625 23.390625 
Q 45.015625 31 40.078125 35.4375 
Q 35.15625 39.890625 26.703125 39.890625 
Q 22.75 39.890625 18.8125 39.015625 
Q 14.890625 38.140625 10.796875 36.28125 
z
" id="DejaVuSans-53"/>
     <path d="M 11.71875 12.40625 
L 22.015625 12.40625 
L 22.015625 0 
L 11.71875 0 
z
M 11.71875 51.703125 
L 22.015625 51.703125 
L 22.015625 39.3125 
L 11.71875 39.3125 
z
" id="DejaVuSans-58"/>
    </defs>
    <g transform="translate(60.41088 49.533135)scale(0.102 -0.102)">
     <use xlink:href="#DejaVuSans-53"/>
     <use x="63.623047" xlink:href="#DejaVuSans-49"/>
     <use x="127.246094" xlink:href="#DejaVuSans-32"/>
     <use x="159.033203" xlink:href="#DejaVuSans-116"/>
     <use x="198.242188" xlink:href="#DejaVuSans-97"/>
     <use x="259.521484" xlink:href="#DejaVuSans-114"/>
     <use x="298.884766" xlink:href="#DejaVuSans-103"/>
     <use x="362.361328" xlink:href="#DejaVuSans-101"/>
     <use x="423.884766" xlink:href="#DejaVuSans-116"/>
     <use x="463.09375" xlink:href="#DejaVuSans-115"/>
     <use x="515.193359" xlink:href="#DejaVuSans-58"/>
     <use x="548.884766" xlink:href="#DejaVuSans-32"/>
     <use x="580.671875" xlink:href="#DejaVuSans-49"/>
     <use x="644.294922" xlink:href="#DejaVuSans-48"/>
     <use x="707.917969" xlink:href="#DejaVuSans-48"/>
     <use x="771.541016" xlink:href="#DejaVuSans-46"/>
     <use x="803.328125" xlink:href="#DejaVuSans-46"/>
     <use x="835.115234" xlink:href="#DejaVuSans-49"/>
     <use x="898.738281" xlink:href="#DejaVuSans-101"/>
     <use x="960.261719" xlink:href="#DejaVuSans-45"/>
     <use x="996.345703" xlink:href="#DejaVuSans-48"/>
     <use x="1059.96875" xlink:href="#DejaVuSans-56"/>
    </g>
    <!-- 24, 15 instances -->
    <g transform="translate(60.41088 60.954904)scale(0.102 -0.102)">
     <use xlink:href="#DejaVuSans-50"/>
     <use x="63.623047" xlink:href="#DejaVuSans-52"/>
     <use x="127.246094" xlink:href="#DejaVuSans-44"/>
     <use x="159.033203" xlink:href="#DejaVuSans-32"/>
     <use x="190.820312" xlink:href="#DejaVuSans-49"/>
     <use x="254.443359" xlink:href="#DejaVuSans-53"/>
     <use x="318.066406" xlink:href="#DejaVuSans-32"/>
     <use x="349.853516" xlink:href="#DejaVuSans-105"/>
     <use x="377.636719" xlink:href="#DejaVuSans-110"/>
     <use x="441.015625" xlink:href="#DejaVuSans-115"/>
     <use x="493.115234" xlink:href="#DejaVuSans-116"/>
     <use x="532.324219" xlink:href="#DejaVuSans-97"/>
     <use x="593.603516" xlink:href="#DejaVuSans-110"/>
     <use x="656.982422" xlink:href="#DejaVuSans-99"/>
     <use x="711.962891" xlink:href="#DejaVuSans-101"/>
     <use x="773.486328" xlink:href="#DejaVuSans-115"/>
    </g>
   </g>
   <g id="text_20">
    <!-- v2.4 -->
    <g style="fill:#808080;" transform="translate(187.233062 294.151352)scale(0.1 -0.1)">
     <use xlink:href="#DejaVuSans-118"/>
     <use x="59.179688" xlink:href="#DejaVuSans-50"/>
     <use x="122.802734" xlink:href="#DejaVuSans-46"/>
     <use x="154.589844" xlink:href="#DejaVuSans-52"/>
    </g>
   </g>
   <g id="text_21">
    <!-- 22 Gallagher 21 peaks -->
    <defs>
     <path d="M 59.515625 10.40625 
L 59.515625 29.984375 
L 43.40625 29.984375 
L 43.40625 38.09375 
L 69.28125 38.09375 
L 69.28125 6.78125 
Q 63.578125 2.734375 56.6875 0.65625 
Q 49.8125 -1.421875 42 -1.421875 
Q 24.90625 -1.421875 15.25 8.5625 
Q 5.609375 18.5625 5.609375 36.375 
Q 5.609375 54.25 15.25 64.234375 
Q 24.90625 74.21875 42 74.21875 
Q 49.125 74.21875 55.546875 72.453125 
Q 61.96875 70.703125 67.390625 67.28125 
L 67.390625 56.78125 
Q 61.921875 61.421875 55.765625 63.765625 
Q 49.609375 66.109375 42.828125 66.109375 
Q 29.4375 66.109375 22.71875 58.640625 
Q 16.015625 51.171875 16.015625 36.375 
Q 16.015625 21.625 22.71875 14.15625 
Q 29.4375 6.6875 42.828125 6.6875 
Q 48.046875 6.6875 52.140625 7.59375 
Q 56.25 8.5 59.515625 10.40625 
z
" id="DejaVuSans-71"/>
     <path d="M 54.890625 33.015625 
L 54.890625 0 
L 45.90625 0 
L 45.90625 32.71875 
Q 45.90625 40.484375 42.875 44.328125 
Q 39.84375 48.1875 33.796875 48.1875 
Q 26.515625 48.1875 22.3125 43.546875 
Q 18.109375 38.921875 18.109375 30.90625 
L 18.109375 0 
L 9.078125 0 
L 9.078125 75.984375 
L 18.109375 75.984375 
L 18.109375 46.1875 
Q 21.34375 51.125 25.703125 53.5625 
Q 30.078125 56 35.796875 56 
Q 45.21875 56 50.046875 50.171875 
Q 54.890625 44.34375 54.890625 33.015625 
z
" id="DejaVuSans-104"/>
     <path d="M 9.078125 75.984375 
L 18.109375 75.984375 
L 18.109375 31.109375 
L 44.921875 54.6875 
L 56.390625 54.6875 
L 27.390625 29.109375 
L 57.625 0 
L 45.90625 0 
L 18.109375 26.703125 
L 18.109375 0 
L 9.078125 0 
z
" id="DejaVuSans-107"/>
    </defs>
    <g transform="translate(85.019 21.648)scale(0.2 -0.2)">
     <use xlink:href="#DejaVuSans-50"/>
     <use x="63.623047" xlink:href="#DejaVuSans-50"/>
     <use x="127.246094" xlink:href="#DejaVuSans-32"/>
     <use x="159.033203" xlink:href="#DejaVuSans-71"/>
     <use x="236.523438" xlink:href="#DejaVuSans-97"/>
     <use x="297.802734" xlink:href="#DejaVuSans-108"/>
     <use x="325.585938" xlink:href="#DejaVuSans-108"/>
     <use x="353.369141" xlink:href="#DejaVuSans-97"/>
     <use x="414.648438" xlink:href="#DejaVuSans-103"/>
     <use x="478.125" xlink:href="#DejaVuSans-104"/>
     <use x="541.503906" xlink:href="#DejaVuSans-101"/>
     <use x="603.027344" xlink:href="#DejaVuSans-114"/>
     <use x="644.140625" xlink:href="#DejaVuSans-32"/>
     <use x="675.927734" xlink:href="#DejaVuSans-50"/>
     <use x="739.550781" xlink:href="#DejaVuSans-49"/>
     <use x="803.173828" xlink:href="#DejaVuSans-32"/>
     <use x="834.960938" xlink:href="#DejaVuSans-112"/>
     <use x="898.4375" xlink:href="#DejaVuSans-101"/>
     <use x="959.960938" xlink:href="#DejaVuSans-97"/>
     <use x="1021.240234" xlink:href="#DejaVuSans-107"/>
     <use x="1079.150391" xlink:href="#DejaVuSans-115"/>
    </g>
   </g>
  </g>
 </g>
 <defs>
  <clipPath id="p7c1625f250">
   <rect height="271.296" width="281.088" x="57.6" y="27.648"/>
  </clipPath>
 </defs>
</svg>
