<?xml version="1.0" encoding="utf-8" standalone="no"?>
<!DOCTYPE svg PUBLIC "-//W3C//DTD SVG 1.1//EN"
  "http://www.w3.org/Graphics/SVG/1.1/DTD/svg11.dtd">
<!-- Created with matplotlib (https://matplotlib.org/) -->
<svg height="345.6pt" version="1.1" viewBox="0 0 460.8 345.6" width="460.8pt" xmlns="http://www.w3.org/2000/svg" xmlns:xlink="http://www.w3.org/1999/xlink">
 <defs>
  <style type="text/css">
*{stroke-linecap:butt;stroke-linejoin:round;}
  </style>
 </defs>
 <g id="figure_1">
  <g id="patch_1">
   <path d="M 0 345.6 
L 460.8 345.6 
L 460.8 0 
L 0 0 
z
" style="fill:#ffffff;"/>
  </g>
  <g id="axes_1">
   <g id="patch_2">
    <path d="M 57.6 298.944 
L 338.688 298.944 
L 338.688 27.648 
L 57.6 27.648 
z
" style="fill:#ffffff;"/>
   </g>
   <g id="line2d_1">
    <path d="M 45.512012 298.944 
L 45.512012 293.677139 
L 57.6 293.677139 
L 57.6 288.410278 
L 69.687988 288.410278 
L 69.687988 283.143418 
L 79.447285 283.143418 
L 79.447285 277.876557 
L 85.66744 277.876557 
L 85.66744 272.609696 
L 92.73846 272.609696 
L 92.73846 267.342835 
L 102.330873 267.342835 
L 102.330873 262.075974 
L 111.104637 262.075974 
L 111.104637 256.809114 
L 127.799239 256.809114 
L 127.799239 251.542253 
L 141.235139 251.542253 
L 141.235139 246.275392 
L 143.208936 246.275392 
L 143.208936 241.008531 
L 150.344189 241.008531 
L 150.344189 235.74167 
L 150.598782 235.74167 
L 150.598782 230.47481 
L 151.818809 230.47481 
L 151.818809 225.207949 
L 151.858043 225.207949 
L 151.858043 209.407366 
L 151.897188 209.407366 
L 151.897188 183.073062 
L 151.936246 183.073062 
L 151.936246 172.539341 
L 151.975216 172.539341 
L 151.975216 167.27248 
L 152.052897 167.27248 
L 152.052897 156.738758 
L 152.130233 156.738758 
L 152.130233 140.938176 
L 152.168773 140.938176 
L 152.168773 130.404454 
L 152.207228 130.404454 
L 152.207228 93.536429 
L 152.245598 93.536429 
L 152.245598 83.002707 
L 152.474064 83.002707 
L 152.474064 77.735846 
L 152.511852 77.735846 
L 152.511852 72.468985 
L 152.549559 72.468985 
L 152.549559 67.202125 
L 152.587184 67.202125 
L 152.587184 51.401542 
L 152.624728 51.401542 
L 152.624728 30.334099 
L 338.688 30.334099 
" style="fill:none;stroke:#f5deb3;stroke-linecap:square;stroke-width:4;"/>
   </g>
   <g id="line2d_2">
    <defs>
     <path d="M -0 7.778175 
L 7.778175 0 
L 0 -7.778175 
L -7.778175 -0 
z
" id="m14d70cb5bb" style="stroke:#f5deb3;stroke-linejoin:miter;stroke-width:1.5;"/>
    </defs>
    <g>
     <use style="fill:#f5deb3;stroke:#f5deb3;stroke-linejoin:miter;stroke-width:1.5;" x="143.208936" xlink:href="#m14d70cb5bb" y="246.275392"/>
     <use style="fill:#f5deb3;stroke:#f5deb3;stroke-linejoin:miter;stroke-width:1.5;" x="152.130233" xlink:href="#m14d70cb5bb" y="156.738758"/>
     <use style="fill:#f5deb3;stroke:#f5deb3;stroke-linejoin:miter;stroke-width:1.5;" x="152.624728" xlink:href="#m14d70cb5bb" y="51.401542"/>
     <use style="fill:#f5deb3;stroke:#f5deb3;stroke-linejoin:miter;stroke-width:1.5;" x="152.624728" xlink:href="#m14d70cb5bb" y="30.334099"/>
     <use style="fill:#f5deb3;stroke:#f5deb3;stroke-linejoin:miter;stroke-width:1.5;" x="152.624728" xlink:href="#m14d70cb5bb" y="30.334099"/>
     <use style="fill:#f5deb3;stroke:#f5deb3;stroke-linejoin:miter;stroke-width:1.5;" x="338.688" xlink:href="#m14d70cb5bb" y="30.334099"/>
    </g>
   </g>
   <g id="line2d_3">
    <path style="fill:none;stroke:#f5deb3;stroke-linecap:square;stroke-width:4;"/>
    <g/>
   </g>
   <g id="line2d_4">
    <path d="M 338.688 30.334099 
L 369.60768 35.706297 
" style="fill:none;stroke:#f5deb3;stroke-linecap:square;stroke-width:4;"/>
    <g>
     <use style="fill:#f5deb3;stroke:#f5deb3;stroke-linejoin:miter;stroke-width:1.5;" x="338.688" xlink:href="#m14d70cb5bb" y="30.334099"/>
     <use style="fill:#f5deb3;stroke:#f5deb3;stroke-linejoin:miter;stroke-width:1.5;" x="369.60768" xlink:href="#m14d70cb5bb" y="35.706297"/>
    </g>
   </g>
   <g id="matplotlib.axis_1">
    <g id="xtick_1">
     <g id="line2d_5">
      <path clip-path="url(#p6e3a780339)" d="M 57.6 298.944 
L 57.6 27.648 
" style="fill:none;stroke:#b0b0b0;stroke-linecap:square;stroke-width:0.8;"/>
     </g>
     <g id="line2d_6">
      <defs>
       <path d="M 0 0 
L 0 3.5 
" id="m8c21e440ac" style="stroke:#000000;stroke-width:0.8;"/>
      </defs>
      <g>
       <use style="stroke:#000000;stroke-width:0.8;" x="57.6" xlink:href="#m8c21e440ac" y="298.944"/>
      </g>
     </g>
     <g id="text_1">
      <!-- 0 -->
      <defs>
       <path d="M 31.78125 66.40625 
Q 24.171875 66.40625 20.328125 58.90625 
Q 16.5 51.421875 16.5 36.375 
Q 16.5 21.390625 20.328125 13.890625 
Q 24.171875 6.390625 31.78125 6.390625 
Q 39.453125 6.390625 43.28125 13.890625 
Q 47.125 21.390625 47.125 36.375 
Q 47.125 51.421875 43.28125 58.90625 
Q 39.453125 66.40625 31.78125 66.40625 
z
M 31.78125 74.21875 
Q 44.046875 74.21875 50.515625 64.515625 
Q 56.984375 54.828125 56.984375 36.375 
Q 56.984375 17.96875 50.515625 8.265625 
Q 44.046875 -1.421875 31.78125 -1.421875 
Q 19.53125 -1.421875 13.0625 8.265625 
Q 6.59375 17.96875 6.59375 36.375 
Q 6.59375 54.828125 13.0625 64.515625 
Q 19.53125 74.21875 31.78125 74.21875 
z
" id="DejaVuSans-48"/>
      </defs>
      <g transform="translate(51.2375 321.140875)scale(0.2 -0.2)">
       <use xlink:href="#DejaVuSans-48"/>
      </g>
     </g>
    </g>
    <g id="xtick_2">
     <g id="line2d_7">
      <path clip-path="url(#p6e3a780339)" d="M 137.910857 298.944 
L 137.910857 27.648 
" style="fill:none;stroke:#b0b0b0;stroke-linecap:square;stroke-width:0.8;"/>
     </g>
     <g id="line2d_8">
      <g>
       <use style="stroke:#000000;stroke-width:0.8;" x="137.910857" xlink:href="#m8c21e440ac" y="298.944"/>
      </g>
     </g>
     <g id="text_2">
      <!-- 2 -->
      <defs>
       <path d="M 19.1875 8.296875 
L 53.609375 8.296875 
L 53.609375 0 
L 7.328125 0 
L 7.328125 8.296875 
Q 12.9375 14.109375 22.625 23.890625 
Q 32.328125 33.6875 34.8125 36.53125 
Q 39.546875 41.84375 41.421875 45.53125 
Q 43.3125 49.21875 43.3125 52.78125 
Q 43.3125 58.59375 39.234375 62.25 
Q 35.15625 65.921875 28.609375 65.921875 
Q 23.96875 65.921875 18.8125 64.3125 
Q 13.671875 62.703125 7.8125 59.421875 
L 7.8125 69.390625 
Q 13.765625 71.78125 18.9375 73 
Q 24.125 74.21875 28.421875 74.21875 
Q 39.75 74.21875 46.484375 68.546875 
Q 53.21875 62.890625 53.21875 53.421875 
Q 53.21875 48.921875 51.53125 44.890625 
Q 49.859375 40.875 45.40625 35.40625 
Q 44.1875 33.984375 37.640625 27.21875 
Q 31.109375 20.453125 19.1875 8.296875 
z
" id="DejaVuSans-50"/>
      </defs>
      <g transform="translate(131.548357 321.140875)scale(0.2 -0.2)">
       <use xlink:href="#DejaVuSans-50"/>
      </g>
     </g>
    </g>
    <g id="xtick_3">
     <g id="line2d_9">
      <path clip-path="url(#p6e3a780339)" d="M 218.221714 298.944 
L 218.221714 27.648 
" style="fill:none;stroke:#b0b0b0;stroke-linecap:square;stroke-width:0.8;"/>
     </g>
     <g id="line2d_10">
      <g>
       <use style="stroke:#000000;stroke-width:0.8;" x="218.221714" xlink:href="#m8c21e440ac" y="298.944"/>
      </g>
     </g>
     <g id="text_3">
      <!-- 4 -->
      <defs>
       <path d="M 37.796875 64.3125 
L 12.890625 25.390625 
L 37.796875 25.390625 
z
M 35.203125 72.90625 
L 47.609375 72.90625 
L 47.609375 25.390625 
L 58.015625 25.390625 
L 58.015625 17.1875 
L 47.609375 17.1875 
L 47.609375 0 
L 37.796875 0 
L 37.796875 17.1875 
L 4.890625 17.1875 
L 4.890625 26.703125 
z
" id="DejaVuSans-52"/>
      </defs>
      <g transform="translate(211.859214 321.140875)scale(0.2 -0.2)">
       <use xlink:href="#DejaVuSans-52"/>
      </g>
     </g>
    </g>
    <g id="xtick_4">
     <g id="line2d_11">
      <path clip-path="url(#p6e3a780339)" d="M 298.532571 298.944 
L 298.532571 27.648 
" style="fill:none;stroke:#b0b0b0;stroke-linecap:square;stroke-width:0.8;"/>
     </g>
     <g id="line2d_12">
      <g>
       <use style="stroke:#000000;stroke-width:0.8;" x="298.532571" xlink:href="#m8c21e440ac" y="298.944"/>
      </g>
     </g>
     <g id="text_4">
      <!-- 6 -->
      <defs>
       <path d="M 33.015625 40.375 
Q 26.375 40.375 22.484375 35.828125 
Q 18.609375 31.296875 18.609375 23.390625 
Q 18.609375 15.53125 22.484375 10.953125 
Q 26.375 6.390625 33.015625 6.390625 
Q 39.65625 6.390625 43.53125 10.953125 
Q 47.40625 15.53125 47.40625 23.390625 
Q 47.40625 31.296875 43.53125 35.828125 
Q 39.65625 40.375 33.015625 40.375 
z
M 52.59375 71.296875 
L 52.59375 62.3125 
Q 48.875 64.0625 45.09375 64.984375 
Q 41.3125 65.921875 37.59375 65.921875 
Q 27.828125 65.921875 22.671875 59.328125 
Q 17.53125 52.734375 16.796875 39.40625 
Q 19.671875 43.65625 24.015625 45.921875 
Q 28.375 48.1875 33.59375 48.1875 
Q 44.578125 48.1875 50.953125 41.515625 
Q 57.328125 34.859375 57.328125 23.390625 
Q 57.328125 12.15625 50.6875 5.359375 
Q 44.046875 -1.421875 33.015625 -1.421875 
Q 20.359375 -1.421875 13.671875 8.265625 
Q 6.984375 17.96875 6.984375 36.375 
Q 6.984375 53.65625 15.1875 63.9375 
Q 23.390625 74.21875 37.203125 74.21875 
Q 40.921875 74.21875 44.703125 73.484375 
Q 48.484375 72.75 52.59375 71.296875 
z
" id="DejaVuSans-54"/>
      </defs>
      <g transform="translate(292.170071 321.140875)scale(0.2 -0.2)">
       <use xlink:href="#DejaVuSans-54"/>
      </g>
     </g>
    </g>
    <g id="xtick_5">
     <g id="line2d_13">
      <path clip-path="url(#p6e3a780339)" d="M 97.755429 298.944 
L 97.755429 27.648 
" style="fill:none;stroke:#b0b0b0;stroke-linecap:square;stroke-width:0.8;"/>
     </g>
     <g id="line2d_14">
      <defs>
       <path d="M 0 0 
L 0 2 
" id="m51ff4a1bd2" style="stroke:#000000;stroke-width:0.6;"/>
      </defs>
      <g>
       <use style="stroke:#000000;stroke-width:0.6;" x="97.755429" xlink:href="#m51ff4a1bd2" y="298.944"/>
      </g>
     </g>
    </g>
    <g id="xtick_6">
     <g id="line2d_15">
      <path clip-path="url(#p6e3a780339)" d="M 178.066286 298.944 
L 178.066286 27.648 
" style="fill:none;stroke:#b0b0b0;stroke-linecap:square;stroke-width:0.8;"/>
     </g>
     <g id="line2d_16">
      <g>
       <use style="stroke:#000000;stroke-width:0.6;" x="178.066286" xlink:href="#m51ff4a1bd2" y="298.944"/>
      </g>
     </g>
    </g>
    <g id="xtick_7">
     <g id="line2d_17">
      <path clip-path="url(#p6e3a780339)" d="M 258.377143 298.944 
L 258.377143 27.648 
" style="fill:none;stroke:#b0b0b0;stroke-linecap:square;stroke-width:0.8;"/>
     </g>
     <g id="line2d_18">
      <g>
       <use style="stroke:#000000;stroke-width:0.6;" x="258.377143" xlink:href="#m51ff4a1bd2" y="298.944"/>
      </g>
     </g>
    </g>
    <g id="xtick_8">
     <g id="line2d_19">
      <path clip-path="url(#p6e3a780339)" d="M 338.688 298.944 
L 338.688 27.648 
" style="fill:none;stroke:#b0b0b0;stroke-linecap:square;stroke-width:0.8;"/>
     </g>
     <g id="line2d_20">
      <g>
       <use style="stroke:#000000;stroke-width:0.6;" x="338.688" xlink:href="#m51ff4a1bd2" y="298.944"/>
      </g>
     </g>
    </g>
    <g id="text_5">
     <!-- log10(# f-evals / dimension) -->
     <defs>
      <path d="M 9.421875 75.984375 
L 18.40625 75.984375 
L 18.40625 0 
L 9.421875 0 
z
" id="DejaVuSans-108"/>
      <path d="M 30.609375 48.390625 
Q 23.390625 48.390625 19.1875 42.75 
Q 14.984375 37.109375 14.984375 27.296875 
Q 14.984375 17.484375 19.15625 11.84375 
Q 23.34375 6.203125 30.609375 6.203125 
Q 37.796875 6.203125 41.984375 11.859375 
Q 46.1875 17.53125 46.1875 27.296875 
Q 46.1875 37.015625 41.984375 42.703125 
Q 37.796875 48.390625 30.609375 48.390625 
z
M 30.609375 56 
Q 42.328125 56 49.015625 48.375 
Q 55.71875 40.765625 55.71875 27.296875 
Q 55.71875 13.875 49.015625 6.21875 
Q 42.328125 -1.421875 30.609375 -1.421875 
Q 18.84375 -1.421875 12.171875 6.21875 
Q 5.515625 13.875 5.515625 27.296875 
Q 5.515625 40.765625 12.171875 48.375 
Q 18.84375 56 30.609375 56 
z
" id="DejaVuSans-111"/>
      <path d="M 45.40625 27.984375 
Q 45.40625 37.75 41.375 43.109375 
Q 37.359375 48.484375 30.078125 48.484375 
Q 22.859375 48.484375 18.828125 43.109375 
Q 14.796875 37.75 14.796875 27.984375 
Q 14.796875 18.265625 18.828125 12.890625 
Q 22.859375 7.515625 30.078125 7.515625 
Q 37.359375 7.515625 41.375 12.890625 
Q 45.40625 18.265625 45.40625 27.984375 
z
M 54.390625 6.78125 
Q 54.390625 -7.171875 48.1875 -13.984375 
Q 42 -20.796875 29.203125 -20.796875 
Q 24.46875 -20.796875 20.265625 -20.09375 
Q 16.0625 -19.390625 12.109375 -17.921875 
L 12.109375 -9.1875 
Q 16.0625 -11.328125 19.921875 -12.34375 
Q 23.78125 -13.375 27.78125 -13.375 
Q 36.625 -13.375 41.015625 -8.765625 
Q 45.40625 -4.15625 45.40625 5.171875 
L 45.40625 9.625 
Q 42.625 4.78125 38.28125 2.390625 
Q 33.9375 0 27.875 0 
Q 17.828125 0 11.671875 7.65625 
Q 5.515625 15.328125 5.515625 27.984375 
Q 5.515625 40.671875 11.671875 48.328125 
Q 17.828125 56 27.875 56 
Q 33.9375 56 38.28125 53.609375 
Q 42.625 51.21875 45.40625 46.390625 
L 45.40625 54.6875 
L 54.390625 54.6875 
z
" id="DejaVuSans-103"/>
      <path d="M 12.40625 8.296875 
L 28.515625 8.296875 
L 28.515625 63.921875 
L 10.984375 60.40625 
L 10.984375 69.390625 
L 28.421875 72.90625 
L 38.28125 72.90625 
L 38.28125 8.296875 
L 54.390625 8.296875 
L 54.390625 0 
L 12.40625 0 
z
" id="DejaVuSans-49"/>
      <path d="M 31 75.875 
Q 24.46875 64.65625 21.28125 53.65625 
Q 18.109375 42.671875 18.109375 31.390625 
Q 18.109375 20.125 21.3125 9.0625 
Q 24.515625 -2 31 -13.1875 
L 23.1875 -13.1875 
Q 15.875 -1.703125 12.234375 9.375 
Q 8.59375 20.453125 8.59375 31.390625 
Q 8.59375 42.28125 12.203125 53.3125 
Q 15.828125 64.359375 23.1875 75.875 
z
" id="DejaVuSans-40"/>
      <path d="M 51.125 44 
L 36.921875 44 
L 32.8125 27.6875 
L 47.125 27.6875 
z
M 43.796875 71.78125 
L 38.71875 51.515625 
L 52.984375 51.515625 
L 58.109375 71.78125 
L 65.921875 71.78125 
L 60.890625 51.515625 
L 76.125 51.515625 
L 76.125 44 
L 58.984375 44 
L 54.984375 27.6875 
L 70.515625 27.6875 
L 70.515625 20.21875 
L 53.078125 20.21875 
L 48 0 
L 40.1875 0 
L 45.21875 20.21875 
L 30.90625 20.21875 
L 25.875 0 
L 18.015625 0 
L 23.09375 20.21875 
L 7.71875 20.21875 
L 7.71875 27.6875 
L 24.90625 27.6875 
L 29 44 
L 13.28125 44 
L 13.28125 51.515625 
L 30.90625 51.515625 
L 35.890625 71.78125 
z
" id="DejaVuSans-35"/>
      <path id="DejaVuSans-32"/>
      <path d="M 37.109375 75.984375 
L 37.109375 68.5 
L 28.515625 68.5 
Q 23.6875 68.5 21.796875 66.546875 
Q 19.921875 64.59375 19.921875 59.515625 
L 19.921875 54.6875 
L 34.71875 54.6875 
L 34.71875 47.703125 
L 19.921875 47.703125 
L 19.921875 0 
L 10.890625 0 
L 10.890625 47.703125 
L 2.296875 47.703125 
L 2.296875 54.6875 
L 10.890625 54.6875 
L 10.890625 58.5 
Q 10.890625 67.625 15.140625 71.796875 
Q 19.390625 75.984375 28.609375 75.984375 
z
" id="DejaVuSans-102"/>
      <path d="M 4.890625 31.390625 
L 31.203125 31.390625 
L 31.203125 23.390625 
L 4.890625 23.390625 
z
" id="DejaVuSans-45"/>
      <path d="M 56.203125 29.59375 
L 56.203125 25.203125 
L 14.890625 25.203125 
Q 15.484375 15.921875 20.484375 11.0625 
Q 25.484375 6.203125 34.421875 6.203125 
Q 39.59375 6.203125 44.453125 7.46875 
Q 49.3125 8.734375 54.109375 11.28125 
L 54.109375 2.78125 
Q 49.265625 0.734375 44.1875 -0.34375 
Q 39.109375 -1.421875 33.890625 -1.421875 
Q 20.796875 -1.421875 13.15625 6.1875 
Q 5.515625 13.8125 5.515625 26.8125 
Q 5.515625 40.234375 12.765625 48.109375 
Q 20.015625 56 32.328125 56 
Q 43.359375 56 49.78125 48.890625 
Q 56.203125 41.796875 56.203125 29.59375 
z
M 47.21875 32.234375 
Q 47.125 39.59375 43.09375 43.984375 
Q 39.0625 48.390625 32.421875 48.390625 
Q 24.90625 48.390625 20.390625 44.140625 
Q 15.875 39.890625 15.1875 32.171875 
z
" id="DejaVuSans-101"/>
      <path d="M 2.984375 54.6875 
L 12.5 54.6875 
L 29.59375 8.796875 
L 46.6875 54.6875 
L 56.203125 54.6875 
L 35.6875 0 
L 23.484375 0 
z
" id="DejaVuSans-118"/>
      <path d="M 34.28125 27.484375 
Q 23.390625 27.484375 19.1875 25 
Q 14.984375 22.515625 14.984375 16.5 
Q 14.984375 11.71875 18.140625 8.90625 
Q 21.296875 6.109375 26.703125 6.109375 
Q 34.1875 6.109375 38.703125 11.40625 
Q 43.21875 16.703125 43.21875 25.484375 
L 43.21875 27.484375 
z
M 52.203125 31.203125 
L 52.203125 0 
L 43.21875 0 
L 43.21875 8.296875 
Q 40.140625 3.328125 35.546875 0.953125 
Q 30.953125 -1.421875 24.3125 -1.421875 
Q 15.921875 -1.421875 10.953125 3.296875 
Q 6 8.015625 6 15.921875 
Q 6 25.140625 12.171875 29.828125 
Q 18.359375 34.515625 30.609375 34.515625 
L 43.21875 34.515625 
L 43.21875 35.40625 
Q 43.21875 41.609375 39.140625 45 
Q 35.0625 48.390625 27.6875 48.390625 
Q 23 48.390625 18.546875 47.265625 
Q 14.109375 46.140625 10.015625 43.890625 
L 10.015625 52.203125 
Q 14.9375 54.109375 19.578125 55.046875 
Q 24.21875 56 28.609375 56 
Q 40.484375 56 46.34375 49.84375 
Q 52.203125 43.703125 52.203125 31.203125 
z
" id="DejaVuSans-97"/>
      <path d="M 44.28125 53.078125 
L 44.28125 44.578125 
Q 40.484375 46.53125 36.375 47.5 
Q 32.28125 48.484375 27.875 48.484375 
Q 21.1875 48.484375 17.84375 46.4375 
Q 14.5 44.390625 14.5 40.28125 
Q 14.5 37.15625 16.890625 35.375 
Q 19.28125 33.59375 26.515625 31.984375 
L 29.59375 31.296875 
Q 39.15625 29.25 43.1875 25.515625 
Q 47.21875 21.78125 47.21875 15.09375 
Q 47.21875 7.46875 41.1875 3.015625 
Q 35.15625 -1.421875 24.609375 -1.421875 
Q 20.21875 -1.421875 15.453125 -0.5625 
Q 10.6875 0.296875 5.421875 2 
L 5.421875 11.28125 
Q 10.40625 8.6875 15.234375 7.390625 
Q 20.0625 6.109375 24.8125 6.109375 
Q 31.15625 6.109375 34.5625 8.28125 
Q 37.984375 10.453125 37.984375 14.40625 
Q 37.984375 18.0625 35.515625 20.015625 
Q 33.0625 21.96875 24.703125 23.78125 
L 21.578125 24.515625 
Q 13.234375 26.265625 9.515625 29.90625 
Q 5.8125 33.546875 5.8125 39.890625 
Q 5.8125 47.609375 11.28125 51.796875 
Q 16.75 56 26.8125 56 
Q 31.78125 56 36.171875 55.265625 
Q 40.578125 54.546875 44.28125 53.078125 
z
" id="DejaVuSans-115"/>
      <path d="M 25.390625 72.90625 
L 33.6875 72.90625 
L 8.296875 -9.28125 
L 0 -9.28125 
z
" id="DejaVuSans-47"/>
      <path d="M 45.40625 46.390625 
L 45.40625 75.984375 
L 54.390625 75.984375 
L 54.390625 0 
L 45.40625 0 
L 45.40625 8.203125 
Q 42.578125 3.328125 38.25 0.953125 
Q 33.9375 -1.421875 27.875 -1.421875 
Q 17.96875 -1.421875 11.734375 6.484375 
Q 5.515625 14.40625 5.515625 27.296875 
Q 5.515625 40.1875 11.734375 48.09375 
Q 17.96875 56 27.875 56 
Q 33.9375 56 38.25 53.625 
Q 42.578125 51.265625 45.40625 46.390625 
z
M 14.796875 27.296875 
Q 14.796875 17.390625 18.875 11.75 
Q 22.953125 6.109375 30.078125 6.109375 
Q 37.203125 6.109375 41.296875 11.75 
Q 45.40625 17.390625 45.40625 27.296875 
Q 45.40625 37.203125 41.296875 42.84375 
Q 37.203125 48.484375 30.078125 48.484375 
Q 22.953125 48.484375 18.875 42.84375 
Q 14.796875 37.203125 14.796875 27.296875 
z
" id="DejaVuSans-100"/>
      <path d="M 9.421875 54.6875 
L 18.40625 54.6875 
L 18.40625 0 
L 9.421875 0 
z
M 9.421875 75.984375 
L 18.40625 75.984375 
L 18.40625 64.59375 
L 9.421875 64.59375 
z
" id="DejaVuSans-105"/>
      <path d="M 52 44.1875 
Q 55.375 50.25 60.0625 53.125 
Q 64.75 56 71.09375 56 
Q 79.640625 56 84.28125 50.015625 
Q 88.921875 44.046875 88.921875 33.015625 
L 88.921875 0 
L 79.890625 0 
L 79.890625 32.71875 
Q 79.890625 40.578125 77.09375 44.375 
Q 74.3125 48.1875 68.609375 48.1875 
Q 61.625 48.1875 57.5625 43.546875 
Q 53.515625 38.921875 53.515625 30.90625 
L 53.515625 0 
L 44.484375 0 
L 44.484375 32.71875 
Q 44.484375 40.625 41.703125 44.40625 
Q 38.921875 48.1875 33.109375 48.1875 
Q 26.21875 48.1875 22.15625 43.53125 
Q 18.109375 38.875 18.109375 30.90625 
L 18.109375 0 
L 9.078125 0 
L 9.078125 54.6875 
L 18.109375 54.6875 
L 18.109375 46.1875 
Q 21.1875 51.21875 25.484375 53.609375 
Q 29.78125 56 35.6875 56 
Q 41.65625 56 45.828125 52.96875 
Q 50 49.953125 52 44.1875 
z
" id="DejaVuSans-109"/>
      <path d="M 54.890625 33.015625 
L 54.890625 0 
L 45.90625 0 
L 45.90625 32.71875 
Q 45.90625 40.484375 42.875 44.328125 
Q 39.84375 48.1875 33.796875 48.1875 
Q 26.515625 48.1875 22.3125 43.546875 
Q 18.109375 38.921875 18.109375 30.90625 
L 18.109375 0 
L 9.078125 0 
L 9.078125 54.6875 
L 18.109375 54.6875 
L 18.109375 46.1875 
Q 21.34375 51.125 25.703125 53.5625 
Q 30.078125 56 35.796875 56 
Q 45.21875 56 50.046875 50.171875 
Q 54.890625 44.34375 54.890625 33.015625 
z
" id="DejaVuSans-110"/>
      <path d="M 8.015625 75.875 
L 15.828125 75.875 
Q 23.140625 64.359375 26.78125 53.3125 
Q 30.421875 42.28125 30.421875 31.390625 
Q 30.421875 20.453125 26.78125 9.375 
Q 23.140625 -1.703125 15.828125 -13.1875 
L 8.015625 -13.1875 
Q 14.5 -2 17.703125 9.0625 
Q 20.90625 20.125 20.90625 31.390625 
Q 20.90625 42.671875 17.703125 53.65625 
Q 14.5 64.65625 8.015625 75.875 
z
" id="DejaVuSans-41"/>
     </defs>
     <g transform="translate(77.764078 342.217594)scale(0.17 -0.17)">
      <use xlink:href="#DejaVuSans-108"/>
      <use x="27.783203" xlink:href="#DejaVuSans-111"/>
      <use x="88.964844" xlink:href="#DejaVuSans-103"/>
      <use x="152.441406" xlink:href="#DejaVuSans-49"/>
      <use x="216.064453" xlink:href="#DejaVuSans-48"/>
      <use x="279.6875" xlink:href="#DejaVuSans-40"/>
      <use x="318.701172" xlink:href="#DejaVuSans-35"/>
      <use x="402.490234" xlink:href="#DejaVuSans-32"/>
      <use x="434.277344" xlink:href="#DejaVuSans-102"/>
      <use x="463.982422" xlink:href="#DejaVuSans-45"/>
      <use x="500.066406" xlink:href="#DejaVuSans-101"/>
      <use x="561.589844" xlink:href="#DejaVuSans-118"/>
      <use x="620.769531" xlink:href="#DejaVuSans-97"/>
      <use x="682.048828" xlink:href="#DejaVuSans-108"/>
      <use x="709.832031" xlink:href="#DejaVuSans-115"/>
      <use x="761.931641" xlink:href="#DejaVuSans-32"/>
      <use x="793.71875" xlink:href="#DejaVuSans-47"/>
      <use x="827.410156" xlink:href="#DejaVuSans-32"/>
      <use x="859.197266" xlink:href="#DejaVuSans-100"/>
      <use x="922.673828" xlink:href="#DejaVuSans-105"/>
      <use x="950.457031" xlink:href="#DejaVuSans-109"/>
      <use x="1047.869141" xlink:href="#DejaVuSans-101"/>
      <use x="1109.392578" xlink:href="#DejaVuSans-110"/>
      <use x="1172.771484" xlink:href="#DejaVuSans-115"/>
      <use x="1224.871094" xlink:href="#DejaVuSans-105"/>
      <use x="1252.654297" xlink:href="#DejaVuSans-111"/>
      <use x="1313.835938" xlink:href="#DejaVuSans-110"/>
      <use x="1377.214844" xlink:href="#DejaVuSans-41"/>
     </g>
    </g>
   </g>
   <g id="matplotlib.axis_2">
    <g id="ytick_1">
     <g id="line2d_21">
      <path clip-path="url(#p6e3a780339)" d="M 57.6 298.944 
L 338.688 298.944 
" style="fill:none;stroke:#b0b0b0;stroke-linecap:square;stroke-width:0.8;"/>
     </g>
     <g id="line2d_22">
      <defs>
       <path d="M 0 0 
L -3.5 0 
" id="m21e6ffd707" style="stroke:#000000;stroke-width:0.8;"/>
      </defs>
      <g>
       <use style="stroke:#000000;stroke-width:0.8;" x="57.6" xlink:href="#m21e6ffd707" y="298.944"/>
      </g>
     </g>
     <g id="text_6">
      <!-- 0.0 -->
      <defs>
       <path d="M 10.6875 12.40625 
L 21 12.40625 
L 21 0 
L 10.6875 0 
z
" id="DejaVuSans-46"/>
      </defs>
      <g transform="translate(25.155 305.02275)scale(0.16 -0.16)">
       <use xlink:href="#DejaVuSans-48"/>
       <use x="63.623047" xlink:href="#DejaVuSans-46"/>
       <use x="95.410156" xlink:href="#DejaVuSans-48"/>
      </g>
     </g>
    </g>
    <g id="ytick_2">
     <g id="line2d_23">
      <path clip-path="url(#p6e3a780339)" d="M 57.6 245.22202 
L 338.688 245.22202 
" style="fill:none;stroke:#b0b0b0;stroke-linecap:square;stroke-width:0.8;"/>
     </g>
     <g id="line2d_24">
      <g>
       <use style="stroke:#000000;stroke-width:0.8;" x="57.6" xlink:href="#m21e6ffd707" y="245.22202"/>
      </g>
     </g>
     <g id="text_7">
      <!-- 0.2 -->
      <g transform="translate(25.155 251.30077)scale(0.16 -0.16)">
       <use xlink:href="#DejaVuSans-48"/>
       <use x="63.623047" xlink:href="#DejaVuSans-46"/>
       <use x="95.410156" xlink:href="#DejaVuSans-50"/>
      </g>
     </g>
    </g>
    <g id="ytick_3">
     <g id="line2d_25">
      <path clip-path="url(#p6e3a780339)" d="M 57.6 191.50004 
L 338.688 191.50004 
" style="fill:none;stroke:#b0b0b0;stroke-linecap:square;stroke-width:0.8;"/>
     </g>
     <g id="line2d_26">
      <g>
       <use style="stroke:#000000;stroke-width:0.8;" x="57.6" xlink:href="#m21e6ffd707" y="191.50004"/>
      </g>
     </g>
     <g id="text_8">
      <!-- 0.4 -->
      <g transform="translate(25.155 197.57879)scale(0.16 -0.16)">
       <use xlink:href="#DejaVuSans-48"/>
       <use x="63.623047" xlink:href="#DejaVuSans-46"/>
       <use x="95.410156" xlink:href="#DejaVuSans-52"/>
      </g>
     </g>
    </g>
    <g id="ytick_4">
     <g id="line2d_27">
      <path clip-path="url(#p6e3a780339)" d="M 57.6 137.778059 
L 338.688 137.778059 
" style="fill:none;stroke:#b0b0b0;stroke-linecap:square;stroke-width:0.8;"/>
     </g>
     <g id="line2d_28">
      <g>
       <use style="stroke:#000000;stroke-width:0.8;" x="57.6" xlink:href="#m21e6ffd707" y="137.778059"/>
      </g>
     </g>
     <g id="text_9">
      <!-- 0.6 -->
      <g transform="translate(25.155 143.856809)scale(0.16 -0.16)">
       <use xlink:href="#DejaVuSans-48"/>
       <use x="63.623047" xlink:href="#DejaVuSans-46"/>
       <use x="95.410156" xlink:href="#DejaVuSans-54"/>
      </g>
     </g>
    </g>
    <g id="ytick_5">
     <g id="line2d_29">
      <path clip-path="url(#p6e3a780339)" d="M 57.6 84.056079 
L 338.688 84.056079 
" style="fill:none;stroke:#b0b0b0;stroke-linecap:square;stroke-width:0.8;"/>
     </g>
     <g id="line2d_30">
      <g>
       <use style="stroke:#000000;stroke-width:0.8;" x="57.6" xlink:href="#m21e6ffd707" y="84.056079"/>
      </g>
     </g>
     <g id="text_10">
      <!-- 0.8 -->
      <defs>
       <path d="M 31.78125 34.625 
Q 24.75 34.625 20.71875 30.859375 
Q 16.703125 27.09375 16.703125 20.515625 
Q 16.703125 13.921875 20.71875 10.15625 
Q 24.75 6.390625 31.78125 6.390625 
Q 38.8125 6.390625 42.859375 10.171875 
Q 46.921875 13.96875 46.921875 20.515625 
Q 46.921875 27.09375 42.890625 30.859375 
Q 38.875 34.625 31.78125 34.625 
z
M 21.921875 38.8125 
Q 15.578125 40.375 12.03125 44.71875 
Q 8.5 49.078125 8.5 55.328125 
Q 8.5 64.0625 14.71875 69.140625 
Q 20.953125 74.21875 31.78125 74.21875 
Q 42.671875 74.21875 48.875 69.140625 
Q 55.078125 64.0625 55.078125 55.328125 
Q 55.078125 49.078125 51.53125 44.71875 
Q 48 40.375 41.703125 38.8125 
Q 48.828125 37.15625 52.796875 32.3125 
Q 56.78125 27.484375 56.78125 20.515625 
Q 56.78125 9.90625 50.3125 4.234375 
Q 43.84375 -1.421875 31.78125 -1.421875 
Q 19.734375 -1.421875 13.25 4.234375 
Q 6.78125 9.90625 6.78125 20.515625 
Q 6.78125 27.484375 10.78125 32.3125 
Q 14.796875 37.15625 21.921875 38.8125 
z
M 18.3125 54.390625 
Q 18.3125 48.734375 21.84375 45.5625 
Q 25.390625 42.390625 31.78125 42.390625 
Q 38.140625 42.390625 41.71875 45.5625 
Q 45.3125 48.734375 45.3125 54.390625 
Q 45.3125 60.0625 41.71875 63.234375 
Q 38.140625 66.40625 31.78125 66.40625 
Q 25.390625 66.40625 21.84375 63.234375 
Q 18.3125 60.0625 18.3125 54.390625 
z
" id="DejaVuSans-56"/>
      </defs>
      <g transform="translate(25.155 90.134829)scale(0.16 -0.16)">
       <use xlink:href="#DejaVuSans-48"/>
       <use x="63.623047" xlink:href="#DejaVuSans-46"/>
       <use x="95.410156" xlink:href="#DejaVuSans-56"/>
      </g>
     </g>
    </g>
    <g id="ytick_6">
     <g id="line2d_31">
      <path clip-path="url(#p6e3a780339)" d="M 57.6 30.334099 
L 338.688 30.334099 
" style="fill:none;stroke:#b0b0b0;stroke-linecap:square;stroke-width:0.8;"/>
     </g>
     <g id="line2d_32">
      <g>
       <use style="stroke:#000000;stroke-width:0.8;" x="57.6" xlink:href="#m21e6ffd707" y="30.334099"/>
      </g>
     </g>
     <g id="text_11">
      <!-- 1.0 -->
      <g transform="translate(25.155 36.412849)scale(0.16 -0.16)">
       <use xlink:href="#DejaVuSans-49"/>
       <use x="63.623047" xlink:href="#DejaVuSans-46"/>
       <use x="95.410156" xlink:href="#DejaVuSans-48"/>
      </g>
     </g>
    </g>
    <g id="text_12">
     <!-- Fraction of function,target pairs -->
     <defs>
      <path d="M 9.8125 72.90625 
L 51.703125 72.90625 
L 51.703125 64.59375 
L 19.671875 64.59375 
L 19.671875 43.109375 
L 48.578125 43.109375 
L 48.578125 34.8125 
L 19.671875 34.8125 
L 19.671875 0 
L 9.8125 0 
z
" id="DejaVuSans-70"/>
      <path d="M 41.109375 46.296875 
Q 39.59375 47.171875 37.8125 47.578125 
Q 36.03125 48 33.890625 48 
Q 26.265625 48 22.1875 43.046875 
Q 18.109375 38.09375 18.109375 28.8125 
L 18.109375 0 
L 9.078125 0 
L 9.078125 54.6875 
L 18.109375 54.6875 
L 18.109375 46.1875 
Q 20.953125 51.171875 25.484375 53.578125 
Q 30.03125 56 36.53125 56 
Q 37.453125 56 38.578125 55.875 
Q 39.703125 55.765625 41.0625 55.515625 
z
" id="DejaVuSans-114"/>
      <path d="M 48.78125 52.59375 
L 48.78125 44.1875 
Q 44.96875 46.296875 41.140625 47.34375 
Q 37.3125 48.390625 33.40625 48.390625 
Q 24.65625 48.390625 19.8125 42.84375 
Q 14.984375 37.3125 14.984375 27.296875 
Q 14.984375 17.28125 19.8125 11.734375 
Q 24.65625 6.203125 33.40625 6.203125 
Q 37.3125 6.203125 41.140625 7.25 
Q 44.96875 8.296875 48.78125 10.40625 
L 48.78125 2.09375 
Q 45.015625 0.34375 40.984375 -0.53125 
Q 36.96875 -1.421875 32.421875 -1.421875 
Q 20.0625 -1.421875 12.78125 6.34375 
Q 5.515625 14.109375 5.515625 27.296875 
Q 5.515625 40.671875 12.859375 48.328125 
Q 20.21875 56 33.015625 56 
Q 37.15625 56 41.109375 55.140625 
Q 45.0625 54.296875 48.78125 52.59375 
z
" id="DejaVuSans-99"/>
      <path d="M 18.3125 70.21875 
L 18.3125 54.6875 
L 36.8125 54.6875 
L 36.8125 47.703125 
L 18.3125 47.703125 
L 18.3125 18.015625 
Q 18.3125 11.328125 20.140625 9.421875 
Q 21.96875 7.515625 27.59375 7.515625 
L 36.8125 7.515625 
L 36.8125 0 
L 27.59375 0 
Q 17.1875 0 13.234375 3.875 
Q 9.28125 7.765625 9.28125 18.015625 
L 9.28125 47.703125 
L 2.6875 47.703125 
L 2.6875 54.6875 
L 9.28125 54.6875 
L 9.28125 70.21875 
z
" id="DejaVuSans-116"/>
      <path d="M 8.5 21.578125 
L 8.5 54.6875 
L 17.484375 54.6875 
L 17.484375 21.921875 
Q 17.484375 14.15625 20.5 10.265625 
Q 23.53125 6.390625 29.59375 6.390625 
Q 36.859375 6.390625 41.078125 11.03125 
Q 45.3125 15.671875 45.3125 23.6875 
L 45.3125 54.6875 
L 54.296875 54.6875 
L 54.296875 0 
L 45.3125 0 
L 45.3125 8.40625 
Q 42.046875 3.421875 37.71875 1 
Q 33.40625 -1.421875 27.6875 -1.421875 
Q 18.265625 -1.421875 13.375 4.4375 
Q 8.5 10.296875 8.5 21.578125 
z
M 31.109375 56 
z
" id="DejaVuSans-117"/>
      <path d="M 11.71875 12.40625 
L 22.015625 12.40625 
L 22.015625 4 
L 14.015625 -11.625 
L 7.71875 -11.625 
L 11.71875 4 
z
" id="DejaVuSans-44"/>
      <path d="M 18.109375 8.203125 
L 18.109375 -20.796875 
L 9.078125 -20.796875 
L 9.078125 54.6875 
L 18.109375 54.6875 
L 18.109375 46.390625 
Q 20.953125 51.265625 25.265625 53.625 
Q 29.59375 56 35.59375 56 
Q 45.5625 56 51.78125 48.09375 
Q 58.015625 40.1875 58.015625 27.296875 
Q 58.015625 14.40625 51.78125 6.484375 
Q 45.5625 -1.421875 35.59375 -1.421875 
Q 29.59375 -1.421875 25.265625 0.953125 
Q 20.953125 3.328125 18.109375 8.203125 
z
M 48.6875 27.296875 
Q 48.6875 37.203125 44.609375 42.84375 
Q 40.53125 48.484375 33.40625 48.484375 
Q 26.265625 48.484375 22.1875 42.84375 
Q 18.109375 37.203125 18.109375 27.296875 
Q 18.109375 17.390625 22.1875 11.75 
Q 26.265625 6.109375 33.40625 6.109375 
Q 40.53125 6.109375 44.609375 11.75 
Q 48.6875 17.390625 48.6875 27.296875 
z
" id="DejaVuSans-112"/>
     </defs>
     <g transform="translate(17.619531 297.681)rotate(-90)scale(0.17 -0.17)">
      <use xlink:href="#DejaVuSans-70"/>
      <use x="50.269531" xlink:href="#DejaVuSans-114"/>
      <use x="91.382812" xlink:href="#DejaVuSans-97"/>
      <use x="152.662109" xlink:href="#DejaVuSans-99"/>
      <use x="207.642578" xlink:href="#DejaVuSans-116"/>
      <use x="246.851562" xlink:href="#DejaVuSans-105"/>
      <use x="274.634766" xlink:href="#DejaVuSans-111"/>
      <use x="335.816406" xlink:href="#DejaVuSans-110"/>
      <use x="399.195312" xlink:href="#DejaVuSans-32"/>
      <use x="430.982422" xlink:href="#DejaVuSans-111"/>
      <use x="492.164062" xlink:href="#DejaVuSans-102"/>
      <use x="527.369141" xlink:href="#DejaVuSans-32"/>
      <use x="559.15625" xlink:href="#DejaVuSans-102"/>
      <use x="594.361328" xlink:href="#DejaVuSans-117"/>
      <use x="657.740234" xlink:href="#DejaVuSans-110"/>
      <use x="721.119141" xlink:href="#DejaVuSans-99"/>
      <use x="776.099609" xlink:href="#DejaVuSans-116"/>
      <use x="815.308594" xlink:href="#DejaVuSans-105"/>
      <use x="843.091797" xlink:href="#DejaVuSans-111"/>
      <use x="904.273438" xlink:href="#DejaVuSans-110"/>
      <use x="967.652344" xlink:href="#DejaVuSans-44"/>
      <use x="999.439453" xlink:href="#DejaVuSans-116"/>
      <use x="1038.648438" xlink:href="#DejaVuSans-97"/>
      <use x="1099.927734" xlink:href="#DejaVuSans-114"/>
      <use x="1139.291016" xlink:href="#DejaVuSans-103"/>
      <use x="1202.767578" xlink:href="#DejaVuSans-101"/>
      <use x="1264.291016" xlink:href="#DejaVuSans-116"/>
      <use x="1303.5" xlink:href="#DejaVuSans-32"/>
      <use x="1335.287109" xlink:href="#DejaVuSans-112"/>
      <use x="1398.763672" xlink:href="#DejaVuSans-97"/>
      <use x="1460.042969" xlink:href="#DejaVuSans-105"/>
      <use x="1487.826172" xlink:href="#DejaVuSans-114"/>
      <use x="1528.939453" xlink:href="#DejaVuSans-115"/>
     </g>
    </g>
   </g>
   <g id="line2d_33">
    <defs>
     <path d="M 0 1.5 
C 0.397805 1.5 0.77937 1.341951 1.06066 1.06066 
C 1.341951 0.77937 1.5 0.397805 1.5 0 
C 1.5 -0.397805 1.341951 -0.77937 1.06066 -1.06066 
C 0.77937 -1.341951 0.397805 -1.5 0 -1.5 
C -0.397805 -1.5 -0.77937 -1.341951 -1.06066 -1.06066 
C -1.341951 -0.77937 -1.5 -0.397805 -1.5 0 
C -1.5 0.397805 -1.341951 0.77937 -1.06066 1.06066 
C -0.77937 1.341951 -0.397805 1.5 0 1.5 
z
" id="m370aaf6b8b" style="stroke:#f5deb3;"/>
    </defs>
    <g>
     <use style="fill:#f5deb3;stroke:#f5deb3;" x="152.624728" xlink:href="#m370aaf6b8b" y="30.334099"/>
     <use style="fill:#f5deb3;stroke:#f5deb3;" x="152.624728" xlink:href="#m370aaf6b8b" y="30.334099"/>
    </g>
   </g>
   <g id="line2d_34">
    <defs>
     <path d="M 0 1.5 
C 0.397805 1.5 0.77937 1.341951 1.06066 1.06066 
C 1.341951 0.77937 1.5 0.397805 1.5 0 
C 1.5 -0.397805 1.341951 -0.77937 1.06066 -1.06066 
C 0.77937 -1.341951 0.397805 -1.5 0 -1.5 
C -0.397805 -1.5 -0.77937 -1.341951 -1.06066 -1.06066 
C -1.341951 -0.77937 -1.5 -0.397805 -1.5 0 
C -1.5 0.397805 -1.341951 0.77937 -1.06066 1.06066 
C -0.77937 1.341951 -0.397805 1.5 0 1.5 
z
" id="m311a9becad" style="stroke:#000080;"/>
    </defs>
    <g>
     <use style="fill:#000080;stroke:#000080;" x="264.320239" xlink:href="#m311a9becad" y="209.407366"/>
     <use style="fill:#000080;stroke:#000080;" x="264.320239" xlink:href="#m311a9becad" y="209.407366"/>
    </g>
   </g>
   <g id="line2d_35">
    <path d="M 45.512012 298.944 
L 45.512012 294.730511 
L 57.6 294.730511 
L 57.6 292.097081 
L 64.67102 292.097081 
L 64.67102 285.776848 
L 69.687988 285.776848 
L 69.687988 284.723476 
L 73.579452 284.723476 
L 73.579452 282.616732 
L 76.759008 282.616732 
L 76.759008 282.090045 
L 79.447285 282.090045 
L 79.447285 280.509987 
L 83.830028 280.509987 
L 83.830028 278.929929 
L 90.242884 278.929929 
L 90.242884 278.403243 
L 91.535274 278.403243 
L 91.535274 277.349871 
L 93.863965 277.349871 
L 93.863965 276.823185 
L 98.606294 276.823185 
L 98.606294 276.296499 
L 103.623262 276.296499 
L 103.623262 273.663068 
L 107.514726 273.663068 
L 107.514726 273.136382 
L 118.838828 273.136382 
L 118.838828 272.609696 
L 119.097192 272.609696 
L 119.097192 271.556324 
L 126.50685 271.556324 
L 126.50685 270.502952 
L 127.325746 270.502952 
L 127.325746 269.976266 
L 127.642832 269.976266 
L 127.642832 269.449579 
L 128.260216 269.449579 
L 128.260216 268.922893 
L 131.185181 268.922893 
L 131.185181 268.396207 
L 133.57787 268.396207 
L 133.57787 267.869521 
L 134.450015 267.869521 
L 134.450015 267.342835 
L 136.361705 267.342835 
L 136.361705 266.816149 
L 139.009092 266.816149 
L 139.009092 266.289463 
L 141.162927 266.289463 
L 141.162927 265.236091 
L 141.45 265.236091 
L 141.45 264.709405 
L 145.155404 264.709405 
L 145.155404 264.182719 
L 149.195872 264.182719 
L 149.195872 263.656033 
L 152.959038 263.656033 
L 152.959038 263.129347 
L 155.200129 263.129347 
L 155.200129 262.60266 
L 156.38821 262.60266 
L 156.38821 262.075974 
L 156.98245 262.075974 
L 156.98245 260.495916 
L 159.123917 260.495916 
L 159.123917 259.96923 
L 163.041197 259.96923 
L 163.041197 259.442544 
L 163.828065 259.442544 
L 163.828065 258.915858 
L 165.230021 258.915858 
L 165.230021 258.389172 
L 165.838222 258.389172 
L 165.838222 257.862486 
L 168.354881 257.862486 
L 168.354881 257.3358 
L 169.316986 257.3358 
L 169.374494 253.122311 
L 175.344551 253.122311 
L 175.344551 251.542253 
L 177.116609 251.542253 
L 177.116609 251.015567 
L 178.239812 251.015567 
L 178.25707 248.908822 
L 179.831174 248.908822 
L 179.831174 247.85545 
L 182.062072 247.85545 
L 182.062072 245.748706 
L 184.515993 245.748706 
L 184.515993 245.22202 
L 185.80451 245.22202 
L 185.80451 244.695334 
L 186.899567 244.695334 
L 186.899567 244.168648 
L 190.119361 244.168648 
L 190.119361 243.641962 
L 192.896033 243.641962 
L 192.896033 243.115275 
L 196.884833 243.115275 
L 196.884833 242.588589 
L 197.828038 242.588589 
L 197.828038 237.848415 
L 199.178293 237.848415 
L 199.178293 237.321729 
L 201.151601 237.321729 
L 201.151601 236.795043 
L 202.495465 236.795043 
L 202.495465 236.268356 
L 205.568346 236.268356 
L 205.568346 235.74167 
L 208.127216 235.74167 
L 208.127216 234.161612 
L 214.558728 234.161612 
L 214.558728 233.10824 
L 215.907964 233.10824 
L 215.907964 232.581554 
L 219.246928 232.581554 
L 219.246928 231.528182 
L 222.938114 231.528182 
L 222.938114 231.001496 
L 225.982863 231.001496 
L 225.982863 229.421437 
L 228.574206 229.421437 
L 228.574206 228.368065 
L 230.170067 228.368065 
L 230.170067 227.841379 
L 230.829843 227.841379 
L 230.829843 226.261321 
L 232.826861 226.261321 
L 232.826861 225.207949 
L 234.618511 225.207949 
L 234.618511 224.681263 
L 236.243122 224.681263 
L 236.243122 223.627891 
L 237.729201 223.627891 
L 237.729201 222.047832 
L 239.098528 222.047832 
L 239.098528 220.99446 
L 240.368119 220.99446 
L 240.368119 219.941088 
L 241.551523 219.941088 
L 241.551523 219.414402 
L 242.6597 219.414402 
L 242.6597 218.36103 
L 245.615536 218.36103 
L 245.615536 217.834344 
L 248.142237 217.834344 
L 248.142237 217.307658 
L 248.909185 217.307658 
L 248.909185 215.727599 
L 249.643821 215.727599 
L 249.643821 214.674227 
L 251.678502 214.674227 
L 251.678502 213.620855 
L 252.307189 213.620855 
L 252.307189 213.094169 
L 254.617176 213.094169 
L 254.617176 212.567483 
L 255.149842 212.567483 
L 255.149842 212.040797 
L 257.593424 212.040797 
L 257.593424 211.514111 
L 259.328286 211.514111 
L 259.328286 210.987425 
L 260.135016 210.987425 
L 260.135016 210.460738 
L 262.352878 210.460738 
L 262.352878 209.934052 
L 264.320239 209.934052 
L 264.320239 209.407366 
L 338.688 209.407366 
L 338.688 209.407366 
" style="fill:none;stroke:#000080;stroke-linecap:square;stroke-width:1.5;"/>
   </g>
   <g id="line2d_36">
    <defs>
     <path d="M 0 6 
C 1.591219 6 3.117479 5.367802 4.242641 4.242641 
C 5.367802 3.117479 6 1.591219 6 0 
C 6 -1.591219 5.367802 -3.117479 4.242641 -4.242641 
C 3.117479 -5.367802 1.591219 -6 0 -6 
C -1.591219 -6 -3.117479 -5.367802 -4.242641 -4.242641 
C -5.367802 -3.117479 -6 -1.591219 -6 0 
C -6 1.591219 -5.367802 3.117479 -4.242641 4.242641 
C -3.117479 5.367802 -1.591219 6 0 6 
z
" id="mccc82e8901" style="stroke:#000080;stroke-width:1.5;"/>
    </defs>
    <g>
     <use style="fill-opacity:0;stroke:#000080;stroke-width:1.5;" x="133.57787" xlink:href="#mccc82e8901" y="268.396207"/>
     <use style="fill-opacity:0;stroke:#000080;stroke-width:1.5;" x="199.178293" xlink:href="#mccc82e8901" y="237.848415"/>
     <use style="fill-opacity:0;stroke:#000080;stroke-width:1.5;" x="255.149842" xlink:href="#mccc82e8901" y="212.040797"/>
     <use style="fill-opacity:0;stroke:#000080;stroke-width:1.5;" x="264.320239" xlink:href="#mccc82e8901" y="209.407366"/>
     <use style="fill-opacity:0;stroke:#000080;stroke-width:1.5;" x="264.320239" xlink:href="#mccc82e8901" y="209.407366"/>
     <use style="fill-opacity:0;stroke:#000080;stroke-width:1.5;" x="338.688" xlink:href="#mccc82e8901" y="209.407366"/>
    </g>
   </g>
   <g id="line2d_37">
    <path style="fill:none;stroke:#000080;stroke-linecap:square;stroke-width:1.5;"/>
    <g/>
   </g>
   <g id="line2d_38">
    <path clip-path="url(#p6e3a780339)" d="M 194.045737 243.115275 
" style="fill:none;stroke:#000080;stroke-linecap:square;stroke-width:1.5;"/>
    <defs>
     <path d="M -12 12 
L 12 -12 
M -12 -12 
L 12 12 
" id="md30ae234ae" style="stroke:#000080;"/>
    </defs>
    <g clip-path="url(#p6e3a780339)">
     <use style="fill:#000080;stroke:#000080;" x="194.045737" xlink:href="#md30ae234ae" y="243.115275"/>
    </g>
   </g>
   <g id="line2d_39">
    <defs>
     <path d="M 0 1.5 
C 0.397805 1.5 0.77937 1.341951 1.06066 1.06066 
C 1.341951 0.77937 1.5 0.397805 1.5 0 
C 1.5 -0.397805 1.341951 -0.77937 1.06066 -1.06066 
C 0.77937 -1.341951 0.397805 -1.5 0 -1.5 
C -0.397805 -1.5 -0.77937 -1.341951 -1.06066 -1.06066 
C -1.341951 -0.77937 -1.5 -0.397805 -1.5 0 
C -1.5 0.397805 -1.341951 0.77937 -1.06066 1.06066 
C -0.77937 1.341951 -0.397805 1.5 0 1.5 
z
" id="m56f0ee8d52" style="stroke:#ff7500;"/>
    </defs>
    <g>
     <use style="fill:#ff7500;stroke:#ff7500;" x="223.168129" xlink:href="#m56f0ee8d52" y="30.334099"/>
     <use style="fill:#ff7500;stroke:#ff7500;" x="223.168129" xlink:href="#m56f0ee8d52" y="30.334099"/>
    </g>
   </g>
   <g id="line2d_40">
    <path d="M 45.512012 298.944 
L 45.512012 294.730511 
L 57.6 294.730511 
L 57.6 293.150453 
L 64.67102 293.150453 
L 64.67102 290.517023 
L 69.687988 290.517023 
L 69.687988 285.776848 
L 73.579452 285.776848 
L 73.579452 285.250162 
L 79.447285 285.250162 
L 79.447285 283.670104 
L 85.66744 283.670104 
L 85.66744 282.616732 
L 88.846997 282.616732 
L 88.846997 282.090045 
L 91.535274 282.090045 
L 91.535274 281.036673 
L 92.73846 281.036673 
L 92.73846 280.509987 
L 95.918017 280.509987 
L 95.918017 279.983301 
L 96.86091 279.983301 
L 96.86091 279.456615 
L 98.606294 279.456615 
L 98.606294 278.403243 
L 100.934985 278.403243 
L 100.934985 277.349871 
L 101.646892 277.349871 
L 101.646892 276.296499 
L 103.623262 276.296499 
L 103.623262 275.769812 
L 107.009204 275.769812 
L 107.009204 275.243126 
L 108.483824 275.243126 
L 108.483824 274.71644 
L 109.843417 274.71644 
L 109.843417 273.663068 
L 111.897469 273.663068 
L 111.897469 273.136382 
L 112.280765 273.136382 
L 112.280765 272.609696 
L 117.765302 272.609696 
L 117.765302 272.08301 
L 122.148045 272.08301 
L 122.148045 271.556324 
L 124.178158 271.556324 
L 124.178158 270.502952 
L 125.822869 270.502952 
L 125.822869 269.976266 
L 126.839037 269.976266 
L 126.839037 268.922893 
L 130.531948 268.922893 
L 130.531948 268.396207 
L 130.926816 268.396207 
L 130.926816 267.869521 
L 133.352844 267.869521 
L 133.352844 267.342835 
L 133.689303 267.342835 
L 133.689303 266.289463 
L 133.910056 266.289463 
L 133.910056 265.762777 
L 134.343353 265.762777 
L 134.450015 263.656033 
L 134.55603 263.656033 
L 134.661403 262.60266 
L 134.766144 262.60266 
L 134.766144 262.075974 
L 137.289545 262.075974 
L 137.289545 260.495916 
L 137.823442 260.495916 
L 137.823442 259.96923 
L 138.927025 259.96923 
L 138.927025 259.442544 
L 140.348205 259.442544 
L 140.348205 258.915858 
L 140.64889 258.915858 
L 140.64889 258.389172 
L 142.619936 258.389172 
L 142.619936 257.862486 
L 143.014805 257.862486 
L 143.014805 255.229055 
L 143.653678 255.229055 
L 143.653678 254.702369 
L 144.45069 254.702369 
L 144.45069 251.542253 
L 145.039911 251.542253 
L 145.039911 251.015567 
L 145.212864 251.015567 
L 145.212864 249.962195 
L 145.665858 249.962195 
L 145.665858 249.435508 
L 147.769524 249.435508 
L 147.769524 248.382136 
L 148.209809 248.382136 
L 148.209809 246.275392 
L 148.592055 246.275392 
L 148.592055 245.22202 
L 148.919783 245.22202 
L 148.919783 244.695334 
L 149.241465 244.695334 
L 149.332295 243.115275 
L 149.377533 243.115275 
L 149.377533 242.588589 
L 149.690956 242.588589 
L 149.690956 241.535217 
L 150.085825 241.535217 
L 150.085825 240.481845 
L 150.556607 240.481845 
L 150.556607 239.955159 
L 151.097081 239.955159 
L 151.097081 239.428473 
L 151.381313 239.428473 
L 151.381313 238.901787 
L 151.541675 238.901787 
L 151.541675 236.268356 
L 151.936246 236.268356 
L 151.936246 235.74167 
L 153.573542 235.74167 
L 153.573542 235.214984 
L 154.029268 235.214984 
L 154.029268 231.528182 
L 154.641235 231.528182 
L 154.641235 231.001496 
L 155.55245 231.001496 
L 155.55245 230.47481 
L 156.806295 230.47481 
L 156.806295 229.948123 
L 157.300853 229.948123 
L 157.38669 227.841379 
L 157.669802 227.841379 
L 157.669802 227.314693 
L 158.51933 227.314693 
L 158.51933 226.261321 
L 158.83738 226.261321 
L 158.83738 224.681263 
L 159.380382 224.681263 
L 159.380382 223.101204 
L 159.557689 223.101204 
L 159.557689 222.047832 
L 160.585265 222.047832 
L 160.656397 219.941088 
L 160.984566 219.941088 
L 160.984566 219.414402 
L 161.352206 219.414402 
L 161.352206 218.36103 
L 162.021314 218.36103 
L 162.021314 217.307658 
L 162.19549 217.307658 
L 162.19549 216.254285 
L 162.346481 216.254285 
L 162.346481 215.727599 
L 163.185069 215.727599 
L 163.185069 215.200913 
L 163.489428 215.200913 
L 163.52961 214.147541 
L 163.629664 214.147541 
L 163.629664 213.094169 
L 163.985177 213.094169 
L 163.985177 212.567483 
L 164.19892 212.567483 
L 164.295217 210.460738 
L 164.371873 210.460738 
L 164.371873 209.934052 
L 164.599841 209.934052 
L 164.599841 209.407366 
L 164.75018 209.407366 
L 164.75018 207.827308 
L 164.9363 207.827308 
L 164.9363 204.667192 
L 165.157053 204.667192 
L 165.157053 204.140506 
L 165.679281 204.140506 
L 165.697012 200.980389 
L 165.855793 200.980389 
L 165.925901 199.400331 
L 166.065276 199.400331 
L 166.151824 197.293586 
L 166.391896 197.293586 
L 166.425924 195.186842 
L 166.829163 195.186842 
L 166.829163 194.660156 
L 166.96153 194.660156 
L 166.96153 194.13347 
L 167.076532 194.13347 
L 167.0929 192.026726 
L 167.320442 192.026726 
L 167.384913 189.919981 
L 167.465168 189.919981 
L 167.497166 188.339923 
L 167.640438 188.339923 
L 167.640438 184.653121 
L 167.813965 184.653121 
L 167.860992 182.01969 
L 168.047843 182.01969 
L 168.047843 180.966318 
L 168.248032 180.966318 
L 168.278627 179.38626 
L 168.385289 179.38626 
L 168.46108 178.332888 
L 168.671556 178.332888 
L 168.671556 176.226143 
L 168.894283 176.226143 
L 168.982583 173.592713 
L 169.360135 173.592713 
L 169.431813 169.90591 
L 169.78585 169.90591 
L 169.855803 167.799166 
L 170.105336 167.799166 
L 170.160306 165.165736 
L 170.296979 165.165736 
L 170.337772 159.898875 
L 170.620687 159.898875 
L 170.687376 157.79213 
L 170.938496 157.79213 
L 170.938496 155.1587 
L 171.173108 155.1587 
L 171.250617 150.418525 
L 171.455636 150.418525 
L 171.506517 146.205037 
L 171.620458 146.205037 
L 171.721118 144.098292 
L 171.871027 144.098292 
L 171.920711 143.04492 
L 172.019658 143.04492 
L 172.019658 142.518234 
L 172.154799 142.518234 
L 172.25243 136.198001 
L 172.470121 136.198001 
L 172.518131 132.511199 
L 172.874047 132.511199 
L 172.909242 129.877768 
L 173.072554 129.877768 
L 173.09576 127.244338 
L 173.199806 127.244338 
L 173.257343 126.190966 
L 173.643636 126.190966 
L 173.744474 119.870733 
L 173.922314 119.870733 
L 173.922314 118.817361 
L 174.174823 118.817361 
L 174.174823 118.290674 
L 174.498781 118.290674 
L 174.509477 116.18393 
L 174.616074 116.18393 
L 174.679722 113.023814 
L 174.785287 113.023814 
L 174.795808 111.970441 
L 174.994519 111.970441 
L 175.08786 108.283639 
L 175.19099 108.283639 
L 175.20127 106.703581 
L 175.364924 106.703581 
L 175.364924 105.650209 
L 175.537141 105.650209 
L 175.537141 105.123522 
L 175.707673 105.123522 
L 175.707673 104.596836 
L 175.866664 104.596836 
L 175.866664 103.543464 
L 176.014414 103.543464 
L 176.121974 99.329976 
L 176.160922 99.329976 
L 176.170646 98.276603 
L 176.46942 98.276603 
L 176.488521 97.223231 
L 176.640581 97.223231 
L 176.687829 95.116487 
L 176.959372 95.116487 
L 176.959372 94.063115 
L 177.208443 94.063115 
L 177.245042 93.009743 
L 177.553068 93.009743 
L 177.553068 91.95637 
L 177.66942 91.95637 
L 177.713965 88.796254 
L 177.785001 88.796254 
L 177.864572 86.68951 
L 178.022633 86.68951 
L 178.022633 86.162824 
L 178.411629 86.162824 
L 178.411629 85.636137 
L 178.666222 85.636137 
L 178.767027 79.315904 
L 178.783772 79.315904 
L 178.783772 78.789218 
L 179.057758 78.789218 
L 179.082454 76.155788 
L 179.254351 76.155788 
L 179.327506 74.57573 
L 179.408431 74.57573 
L 179.408431 73.522358 
L 179.569163 73.522358 
L 179.569163 72.995672 
L 180.266984 72.995672 
L 180.266984 72.468985 
L 180.473278 72.468985 
L 180.473278 70.888927 
L 195.365261 70.888927 
L 195.39434 69.835555 
L 195.506966 69.835555 
L 195.506966 69.308869 
L 195.994058 69.308869 
L 196.047004 68.255497 
L 196.284823 68.255497 
L 196.284823 67.728811 
L 196.534569 67.728811 
L 196.625053 66.675439 
L 196.649103 66.675439 
L 196.670119 65.622066 
L 196.855169 65.622066 
L 196.855169 65.09538 
L 197.02652 65.09538 
L 197.055894 64.042008 
L 197.178727 64.042008 
L 197.178727 63.515322 
L 197.300701 63.515322 
L 197.300701 62.988636 
L 197.413204 62.988636 
L 197.513553 60.355206 
L 197.704055 60.355206 
L 197.704055 59.82852 
L 197.93441 59.82852 
L 198.023485 57.721775 
L 198.156251 57.721775 
L 198.222257 56.141717 
L 198.323529 56.141717 
L 198.418789 53.508287 
L 198.500028 53.508287 
L 198.500028 52.9816 
L 198.656025 52.9816 
L 198.760141 51.928228 
L 198.784079 51.928228 
L 198.784079 51.401542 
L 198.966525 51.401542 
L 199.037401 49.294798 
L 199.089716 49.294798 
L 199.113207 47.71474 
L 199.351537 47.71474 
L 199.392655 46.134681 
L 199.813632 46.134681 
L 199.856176 44.554623 
L 200.094496 44.554623 
L 200.202647 42.447879 
L 200.261357 42.447879 
L 200.356341 41.394507 
L 207.067438 41.394507 
L 207.067438 40.867821 
L 207.703671 40.867821 
L 207.703671 40.341135 
L 207.837038 40.341135 
L 207.898614 39.287762 
L 207.975671 39.287762 
L 207.975671 38.761076 
L 208.391207 38.761076 
L 208.469174 37.707704 
L 208.590776 37.707704 
L 208.660316 35.60096 
L 208.783594 35.60096 
L 208.809043 34.547588 
L 208.916417 34.547588 
L 208.987634 33.494215 
L 209.090974 33.494215 
L 209.090974 32.967529 
L 209.529922 32.967529 
L 209.529922 32.440843 
L 214.186879 32.440843 
L 214.186879 31.914157 
L 214.795929 31.914157 
L 214.795929 31.387471 
L 215.469376 31.387471 
L 215.469376 30.860785 
L 223.168129 30.860785 
L 223.168129 30.334099 
L 338.688 30.334099 
L 338.688 30.334099 
" style="fill:none;stroke:#ff7500;stroke-linecap:square;stroke-width:1.5;"/>
   </g>
   <g id="line2d_41">
    <defs>
     <path d="M 0 -6 
L -1.347084 -1.854102 
L -5.706339 -1.854102 
L -2.179628 0.708204 
L -3.526712 4.854102 
L -0 2.291796 
L 3.526712 4.854102 
L 2.179628 0.708204 
L 5.706339 -1.854102 
L 1.347084 -1.854102 
z
" id="m4d1f3598cd" style="stroke:#ff7500;stroke-linejoin:bevel;stroke-width:1.5;"/>
    </defs>
    <g>
     <use style="fill-opacity:0;stroke:#ff7500;stroke-linejoin:bevel;stroke-width:1.5;" x="145.665858" xlink:href="#m4d1f3598cd" y="249.435508"/>
     <use style="fill-opacity:0;stroke:#ff7500;stroke-linejoin:bevel;stroke-width:1.5;" x="173.643636" xlink:href="#m4d1f3598cd" y="125.66428"/>
     <use style="fill-opacity:0;stroke:#ff7500;stroke-linejoin:bevel;stroke-width:1.5;" x="223.168129" xlink:href="#m4d1f3598cd" y="30.860785"/>
     <use style="fill-opacity:0;stroke:#ff7500;stroke-linejoin:bevel;stroke-width:1.5;" x="223.168129" xlink:href="#m4d1f3598cd" y="30.334099"/>
     <use style="fill-opacity:0;stroke:#ff7500;stroke-linejoin:bevel;stroke-width:1.5;" x="223.168129" xlink:href="#m4d1f3598cd" y="30.334099"/>
     <use style="fill-opacity:0;stroke:#ff7500;stroke-linejoin:bevel;stroke-width:1.5;" x="338.688" xlink:href="#m4d1f3598cd" y="30.334099"/>
    </g>
   </g>
   <g id="line2d_42">
    <path style="fill:none;stroke:#ff7500;stroke-linecap:square;stroke-width:1.5;"/>
    <g/>
   </g>
   <g id="line2d_43">
    <path clip-path="url(#p6e3a780339)" d="M 194.045737 70.888927 
" style="fill:none;stroke:#ff7500;stroke-linecap:square;stroke-width:1.5;"/>
    <defs>
     <path d="M -12 12 
L 12 -12 
M -12 -12 
L 12 12 
" id="m6f132a0f57" style="stroke:#ff7500;"/>
    </defs>
    <g clip-path="url(#p6e3a780339)">
     <use style="fill:#ff7500;stroke:#ff7500;" x="194.045737" xlink:href="#m6f132a0f57" y="70.888927"/>
    </g>
   </g>
   <g id="line2d_44">
    <defs>
     <path d="M 0 1.5 
C 0.397805 1.5 0.77937 1.341951 1.06066 1.06066 
C 1.341951 0.77937 1.5 0.397805 1.5 0 
C 1.5 -0.397805 1.341951 -0.77937 1.06066 -1.06066 
C 0.77937 -1.341951 0.397805 -1.5 0 -1.5 
C -0.397805 -1.5 -0.77937 -1.341951 -1.06066 -1.06066 
C -1.341951 -0.77937 -1.5 -0.397805 -1.5 0 
C -1.5 0.397805 -1.341951 0.77937 -1.06066 1.06066 
C -0.77937 1.341951 -0.397805 1.5 0 1.5 
z
" id="m38f729f776" style="stroke:#6495ed;"/>
    </defs>
    <g>
     <use style="fill:#6495ed;stroke:#6495ed;" x="213.032998" xlink:href="#m38f729f776" y="30.334099"/>
     <use style="fill:#6495ed;stroke:#6495ed;" x="213.032998" xlink:href="#m38f729f776" y="30.334099"/>
    </g>
   </g>
   <g id="line2d_45">
    <path d="M 45.512012 298.944 
L 45.512012 295.257197 
L 57.6 295.257197 
L 57.6 293.677139 
L 64.67102 293.677139 
L 64.67102 291.570395 
L 69.687988 291.570395 
L 69.687988 285.776848 
L 73.579452 285.776848 
L 73.579452 285.250162 
L 79.447285 285.250162 
L 79.447285 283.143418 
L 85.66744 283.143418 
L 85.66744 282.090045 
L 88.846997 282.090045 
L 88.846997 281.036673 
L 91.535274 281.036673 
L 91.535274 280.509987 
L 96.86091 280.509987 
L 96.86091 278.929929 
L 98.606294 278.929929 
L 98.606294 277.876557 
L 100.934985 277.876557 
L 100.934985 277.349871 
L 102.330873 277.349871 
L 102.330873 276.823185 
L 103.623262 276.823185 
L 103.623262 276.296499 
L 107.009204 276.296499 
L 107.009204 275.769812 
L 107.514726 275.769812 
L 107.514726 274.71644 
L 108.483824 274.71644 
L 108.483824 274.189754 
L 109.843417 274.189754 
L 109.843417 273.136382 
L 114.751048 273.136382 
L 114.751048 272.609696 
L 115.077025 272.609696 
L 115.077025 271.556324 
L 117.765302 271.556324 
L 117.765302 271.029638 
L 120.093994 271.029638 
L 120.093994 270.502952 
L 121.712041 270.502952 
L 121.712041 269.449579 
L 122.362027 269.449579 
L 122.362027 268.396207 
L 126.50685 268.396207 
L 126.50685 267.869521 
L 127.165014 267.869521 
L 127.165014 267.342835 
L 128.856489 267.342835 
L 128.856489 266.816149 
L 129.574256 266.816149 
L 129.574256 265.762777 
L 131.056477 265.762777 
L 131.056477 264.709405 
L 131.312942 264.709405 
L 131.312942 264.182719 
L 133.910056 264.182719 
L 134.019394 262.075974 
L 134.55603 262.075974 
L 134.55603 259.442544 
L 139.090775 259.442544 
L 139.090775 258.389172 
L 140.195896 258.389172 
L 140.195896 257.862486 
L 143.778691 257.862486 
L 143.778691 257.3358 
L 143.964547 257.3358 
L 143.964547 255.755741 
L 145.097753 255.755741 
L 145.097753 255.229055 
L 146.906268 255.229055 
L 146.906268 254.702369 
L 147.368603 254.702369 
L 147.368603 254.175683 
L 149.058374 254.175683 
L 149.058374 253.648997 
L 149.286939 253.648997 
L 149.286939 253.122311 
L 149.60198 253.122311 
L 149.60198 252.595625 
L 151.015013 252.595625 
L 151.097081 251.542253 
L 153.573542 251.542253 
L 153.573542 248.908822 
L 153.820412 248.908822 
L 153.820412 247.85545 
L 154.707925 247.85545 
L 154.707925 246.802078 
L 156.266892 246.802078 
L 156.357959 245.748706 
L 156.628341 245.748706 
L 156.628341 244.695334 
L 158.113432 244.695334 
L 158.113432 242.061903 
L 158.465753 242.061903 
L 158.465753 241.535217 
L 159.456591 241.535217 
L 159.456591 241.008531 
L 159.783038 241.008531 
L 159.783038 240.481845 
L 160.750792 240.481845 
L 160.750792 236.268356 
L 162.324991 236.268356 
L 162.346481 234.161612 
L 163.449152 234.161612 
L 163.449152 233.634926 
L 165.643763 233.634926 
L 165.643763 233.10824 
L 165.890882 233.10824 
L 165.890882 232.581554 
L 166.203547 232.581554 
L 166.203547 231.528182 
L 168.938489 231.528182 
L 168.938489 230.47481 
L 169.345764 230.47481 
L 169.345764 229.948123 
L 169.53167 229.948123 
L 169.53167 229.421437 
L 169.994873 229.421437 
L 169.994873 228.894751 
L 170.324185 228.894751 
L 170.324185 228.368065 
L 170.553741 228.368065 
L 170.553741 224.154577 
L 170.977818 224.154577 
L 170.977818 223.627891 
L 171.108254 223.627891 
L 171.108254 222.047832 
L 171.658273 222.047832 
L 171.746192 218.887716 
L 172.044307 218.887716 
L 172.044307 217.307658 
L 172.264595 217.307658 
L 172.264595 216.254285 
L 173.496944 216.254285 
L 173.496944 215.727599 
L 173.643636 215.727599 
L 173.666095 213.094169 
L 174.07645 213.094169 
L 174.07645 212.040797 
L 174.369919 212.040797 
L 174.369919 210.987425 
L 176.875552 210.987425 
L 176.875552 210.460738 
L 177.088964 210.460738 
L 177.088964 208.88068 
L 177.299796 208.88068 
L 177.299796 208.353994 
L 177.417845 208.353994 
L 177.417845 207.827308 
L 177.961335 207.827308 
L 178.048838 206.24725 
L 178.394524 206.24725 
L 178.394524 205.720564 
L 178.624047 205.720564 
L 178.708295 204.140506 
L 178.808858 204.140506 
L 178.808858 203.087133 
L 178.933752 203.087133 
L 179.041275 201.507075 
L 179.27877 201.507075 
L 179.27877 199.400331 
L 179.521099 199.400331 
L 179.521099 198.346959 
L 180.549068 198.346959 
L 180.549068 196.7669 
L 180.841542 196.7669 
L 180.841542 194.660156 
L 181.311118 194.660156 
L 181.354499 192.026726 
L 181.469658 192.026726 
L 181.469658 191.50004 
L 181.697718 191.50004 
L 181.697718 189.919981 
L 181.873839 189.919981 
L 181.929824 187.286551 
L 182.213959 187.286551 
L 182.289409 184.653121 
L 182.500302 184.653121 
L 182.500302 183.599748 
L 182.661841 183.599748 
L 182.688619 182.01969 
L 183.137667 182.01969 
L 183.196243 180.966318 
L 183.280506 180.966318 
L 183.338605 179.912946 
L 183.556359 179.912946 
L 183.556359 178.332888 
L 183.834181 178.332888 
L 183.859219 176.752829 
L 184.107646 176.752829 
L 184.107646 176.226143 
L 184.261135 176.226143 
L 184.352584 174.119399 
L 184.534056 174.119399 
L 184.534056 173.592713 
L 184.749358 173.592713 
L 184.749358 172.012655 
L 184.926769 172.012655 
L 184.926769 171.485969 
L 185.090739 171.485969 
L 185.201133 170.432596 
L 185.235849 170.432596 
L 185.276265 167.27248 
L 185.44271 167.27248 
L 185.44271 166.745794 
L 185.714761 166.745794 
L 185.714761 166.219108 
L 185.916051 166.219108 
L 185.916051 164.63905 
L 186.197291 164.63905 
L 186.230082 158.845503 
L 186.328086 158.845503 
L 186.328086 153.578642 
L 186.608155 153.578642 
L 186.645515 150.418525 
L 186.983435 150.418525 
L 187.025218 149.365153 
L 187.134425 149.365153 
L 187.175849 148.311781 
L 187.273837 148.311781 
L 187.361046 146.731723 
L 187.391722 146.731723 
L 187.427443 145.151665 
L 187.745678 145.151665 
L 187.795661 137.778059 
L 187.939809 137.778059 
L 188.048373 135.671315 
L 188.151376 135.671315 
L 188.239182 133.564571 
L 188.287773 133.564571 
L 188.287773 131.984513 
L 188.427926 131.984513 
L 188.538286 130.404454 
L 188.590821 130.404454 
L 188.62893 128.29771 
L 188.902752 128.29771 
L 188.944859 125.137593 
L 189.273518 125.137593 
L 189.3376 123.030849 
L 189.387785 123.030849 
L 189.428738 116.18393 
L 189.641057 116.18393 
L 189.744023 112.497128 
L 189.872989 112.497128 
L 189.872989 111.970441 
L 189.99221 111.970441 
L 190.053709 108.810325 
L 190.241253 108.810325 
L 190.340746 106.703581 
L 190.38813 106.703581 
L 190.456822 103.016778 
L 190.644343 103.016778 
L 190.695137 100.910034 
L 190.758422 100.910034 
L 190.855016 96.169859 
L 191.063174 96.169859 
L 191.108637 94.589801 
L 191.346412 94.589801 
L 191.443861 90.376312 
L 191.564912 90.376312 
L 191.673143 87.216196 
L 191.681134 87.216196 
L 191.776735 78.262532 
L 192.052617 78.262532 
L 192.146209 73.522358 
L 192.389525 73.522358 
L 192.397194 71.942299 
L 192.511826 71.942299 
L 192.621925 69.835555 
L 192.640837 69.835555 
L 192.693684 65.09538 
L 192.903482 65.09538 
L 193.00374 51.401542 
L 193.033336 51.401542 
L 193.033336 50.874856 
L 193.271957 50.874856 
L 193.30838 45.607995 
L 193.489362 45.607995 
L 193.554059 42.447879 
L 193.689857 42.447879 
L 193.785707 37.707704 
L 193.810471 37.707704 
L 193.895111 35.074274 
L 205.209811 35.074274 
L 205.209811 34.547588 
L 205.470799 34.547588 
L 205.470799 34.020902 
L 205.618712 34.020902 
L 205.618712 33.494215 
L 205.75291 33.494215 
L 205.768944 31.914157 
L 206.018245 31.914157 
L 206.018245 30.860785 
L 213.032998 30.860785 
L 213.032998 30.334099 
L 338.688 30.334099 
L 338.688 30.334099 
" style="fill:none;stroke:#6495ed;stroke-linecap:square;stroke-width:1.5;"/>
   </g>
   <g id="line2d_46">
    <defs>
     <path d="M -0 6 
L 6 -6 
L -6 -6 
z
" id="m6445a26d5d" style="stroke:#6495ed;stroke-linejoin:miter;stroke-width:1.5;"/>
    </defs>
    <g>
     <use style="fill-opacity:0;stroke:#6495ed;stroke-linejoin:miter;stroke-width:1.5;" x="158.113432" xlink:href="#m6445a26d5d" y="244.695334"/>
     <use style="fill-opacity:0;stroke:#6495ed;stroke-linejoin:miter;stroke-width:1.5;" x="184.749358" xlink:href="#m6445a26d5d" y="173.592713"/>
     <use style="fill-opacity:0;stroke:#6495ed;stroke-linejoin:miter;stroke-width:1.5;" x="206.018245" xlink:href="#m6445a26d5d" y="30.860785"/>
     <use style="fill-opacity:0;stroke:#6495ed;stroke-linejoin:miter;stroke-width:1.5;" x="213.032998" xlink:href="#m6445a26d5d" y="30.334099"/>
     <use style="fill-opacity:0;stroke:#6495ed;stroke-linejoin:miter;stroke-width:1.5;" x="213.032998" xlink:href="#m6445a26d5d" y="30.334099"/>
     <use style="fill-opacity:0;stroke:#6495ed;stroke-linejoin:miter;stroke-width:1.5;" x="338.688" xlink:href="#m6445a26d5d" y="30.334099"/>
    </g>
   </g>
   <g id="line2d_47">
    <path style="fill:none;stroke:#6495ed;stroke-linecap:square;stroke-width:1.5;"/>
    <g/>
   </g>
   <g id="line2d_48">
    <path clip-path="url(#p6e3a780339)" d="M 194.045737 35.074274 
" style="fill:none;stroke:#6495ed;stroke-linecap:square;stroke-width:1.5;"/>
    <defs>
     <path d="M -12 12 
L 12 -12 
M -12 -12 
L 12 12 
" id="m26d06463f7" style="stroke:#6495ed;"/>
    </defs>
    <g clip-path="url(#p6e3a780339)">
     <use style="fill:#6495ed;stroke:#6495ed;" x="194.045737" xlink:href="#m26d06463f7" y="35.074274"/>
    </g>
   </g>
   <g id="line2d_49">
    <defs>
     <path d="M 0 1.5 
C 0.397805 1.5 0.77937 1.341951 1.06066 1.06066 
C 1.341951 0.77937 1.5 0.397805 1.5 0 
C 1.5 -0.397805 1.341951 -0.77937 1.06066 -1.06066 
C 0.77937 -1.341951 0.397805 -1.5 0 -1.5 
C -0.397805 -1.5 -0.77937 -1.341951 -1.06066 -1.06066 
C -1.341951 -0.77937 -1.5 -0.397805 -1.5 0 
C -1.5 0.397805 -1.341951 0.77937 -1.06066 1.06066 
C -0.77937 1.341951 -0.397805 1.5 0 1.5 
z
" id="m1de5d0e157" style="stroke:#ff0000;"/>
    </defs>
    <g>
     <use style="fill:#ff0000;stroke:#ff0000;" x="220.706765" xlink:href="#m1de5d0e157" y="30.334099"/>
     <use style="fill:#ff0000;stroke:#ff0000;" x="220.706765" xlink:href="#m1de5d0e157" y="30.334099"/>
    </g>
   </g>
   <g id="line2d_50">
    <path d="M 45.512012 298.944 
L 45.512012 294.730511 
L 57.6 294.730511 
L 57.6 293.150453 
L 64.67102 293.150453 
L 64.67102 289.990337 
L 69.687988 289.990337 
L 69.687988 284.723476 
L 79.447285 284.723476 
L 79.447285 284.19679 
L 85.66744 284.19679 
L 85.66744 283.670104 
L 88.846997 283.670104 
L 88.846997 282.616732 
L 91.535274 282.616732 
L 91.535274 281.563359 
L 92.73846 281.563359 
L 92.73846 281.036673 
L 96.86091 281.036673 
L 96.86091 279.456615 
L 98.606294 279.456615 
L 98.606294 277.876557 
L 100.934985 277.876557 
L 100.934985 276.823185 
L 101.646892 276.823185 
L 101.646892 276.296499 
L 103.623262 276.296499 
L 103.623262 275.769812 
L 107.514726 275.769812 
L 107.514726 275.243126 
L 108.483824 275.243126 
L 108.483824 274.189754 
L 109.843417 274.189754 
L 109.843417 272.609696 
L 115.077025 272.609696 
L 115.077025 272.08301 
L 117.486268 272.08301 
L 117.486268 271.556324 
L 117.765302 271.556324 
L 117.765302 270.502952 
L 122.148045 270.502952 
L 122.148045 269.976266 
L 122.362027 269.976266 
L 122.362027 269.449579 
L 122.782271 269.449579 
L 122.782271 268.396207 
L 124.743806 268.396207 
L 124.743806 267.869521 
L 125.291682 267.869521 
L 125.291682 267.342835 
L 125.996395 267.342835 
L 125.996395 266.289463 
L 128.856489 266.289463 
L 128.856489 265.762777 
L 129.002426 265.762777 
L 129.002426 264.709405 
L 131.814826 264.709405 
L 131.814826 263.129347 
L 132.060454 263.129347 
L 132.060454 262.075974 
L 133.124876 262.075974 
L 133.124876 261.022602 
L 133.46572 261.022602 
L 133.46572 260.495916 
L 133.57787 260.495916 
L 133.57787 259.96923 
L 135.381712 259.96923 
L 135.381712 258.389172 
L 136.551264 258.389172 
L 136.551264 257.862486 
L 136.831795 257.862486 
L 136.831795 257.3358 
L 139.090775 257.3358 
L 139.090775 256.809114 
L 141.162927 256.809114 
L 141.162927 256.282427 
L 141.732423 256.282427 
L 141.732423 255.755741 
L 143.840863 255.755741 
L 143.840863 255.229055 
L 146.644018 255.229055 
L 146.644018 254.702369 
L 147.71991 254.702369 
L 147.71991 254.175683 
L 148.497276 254.175683 
L 148.497276 253.648997 
L 149.60198 253.648997 
L 149.60198 253.122311 
L 149.911431 253.122311 
L 149.998846 251.015567 
L 150.724698 251.015567 
L 150.724698 250.488881 
L 151.13797 250.488881 
L 151.13797 249.435508 
L 152.245598 249.435508 
L 152.283884 246.802078 
L 152.699575 246.802078 
L 152.699575 246.275392 
L 153.142033 246.275392 
L 153.142033 245.748706 
L 153.502361 245.748706 
L 153.537988 243.641962 
L 154.405793 243.641962 
L 154.405793 243.115275 
L 155.990803 243.115275 
L 156.083319 240.481845 
L 161.077205 240.481845 
L 161.12334 238.375101 
L 161.555647 238.375101 
L 161.600536 235.74167 
L 161.712255 235.74167 
L 161.712255 233.634926 
L 161.88953 233.634926 
L 161.955547 232.581554 
L 162.10862 232.581554 
L 162.10862 231.528182 
L 162.707819 231.528182 
L 162.707819 231.001496 
L 163.041197 231.001496 
L 163.123555 226.261321 
L 165.9084 226.261321 
L 165.9084 225.734635 
L 166.578233 225.734635 
L 166.578233 224.681263 
L 166.7626 224.681263 
L 166.7626 224.154577 
L 166.96153 224.154577 
L 166.96153 223.627891 
L 167.207042 223.627891 
L 167.207042 223.101204 
L 167.465168 223.101204 
L 167.465168 220.99446 
L 167.735303 220.99446 
L 167.735303 220.467774 
L 168.109685 220.467774 
L 168.109685 219.941088 
L 168.581663 219.941088 
L 168.581663 216.780971 
L 169.026567 216.780971 
L 169.026567 215.727599 
L 169.316986 215.727599 
L 169.316986 213.094169 
L 169.673338 213.094169 
L 169.673338 211.514111 
L 171.73366 211.514111 
L 171.73366 209.934052 
L 171.957882 209.934052 
L 171.957882 209.407366 
L 172.118046 209.407366 
L 172.118046 206.773936 
L 172.554051 206.773936 
L 172.554051 206.24725 
L 173.428822 206.24725 
L 173.428822 203.613819 
L 173.609893 203.613819 
L 173.688525 200.453703 
L 174.229235 200.453703 
L 174.229235 199.400331 
L 174.412979 199.400331 
L 174.412979 198.873645 
L 174.921573 198.873645 
L 174.921573 197.820273 
L 175.415753 197.820273 
L 175.415753 196.7669 
L 175.527057 196.7669 
L 175.527057 196.240214 
L 176.131719 196.240214 
L 176.131719 195.186842 
L 176.267585 195.186842 
L 176.267585 194.660156 
L 176.55521 194.660156 
L 176.593204 193.080098 
L 176.687829 193.080098 
L 176.687829 192.026726 
L 176.922168 192.026726 
L 176.922168 191.50004 
L 177.033543 191.50004 
L 177.07051 190.446667 
L 177.2176 190.446667 
L 177.2176 189.919981 
L 177.435935 189.919981 
L 177.435935 188.866609 
L 177.696161 188.866609 
L 177.79386 185.706493 
L 177.943781 185.706493 
L 178.048838 183.599748 
L 178.239812 183.599748 
L 178.239812 183.073062 
L 178.351686 183.073062 
L 178.45432 180.966318 
L 178.63249 180.966318 
L 178.73349 179.38626 
L 178.825562 179.38626 
L 178.825562 177.279515 
L 179.082454 177.279515 
L 179.156332 175.699457 
L 179.20541 175.699457 
L 179.295031 174.119399 
L 179.521099 174.119399 
L 179.545147 173.066027 
L 179.648977 173.066027 
L 179.69669 170.959282 
L 179.768016 170.959282 
L 179.799624 169.90591 
L 179.894103 169.90591 
L 179.894103 168.325852 
L 180.143574 168.325852 
L 180.243911 164.63905 
L 180.33602 164.63905 
L 180.420028 162.532305 
L 180.518792 162.532305 
L 180.601926 160.952247 
L 180.722145 160.952247 
L 180.722145 160.425561 
L 180.878686 160.425561 
L 180.937953 156.212072 
L 181.173027 156.212072 
L 181.173027 155.685386 
L 181.426562 155.685386 
L 181.426562 154.632014 
L 181.54839 154.632014 
L 181.655184 153.051956 
L 181.859814 153.051956 
L 181.859814 152.52527 
L 181.999553 152.52527 
L 182.103627 149.365153 
L 182.186441 149.365153 
L 182.234569 144.624978 
L 182.459683 144.624978 
L 182.459683 143.571606 
L 182.675235 143.571606 
L 182.675235 141.991548 
L 182.888155 141.991548 
L 182.888155 141.464862 
L 183.026484 141.464862 
L 183.10504 138.304745 
L 183.280506 138.304745 
L 183.338605 135.671315 
L 183.396511 135.671315 
L 183.396511 135.144629 
L 183.651569 135.144629 
L 183.651569 134.617943 
L 183.790277 134.617943 
L 183.790277 134.091257 
L 183.965233 134.091257 
L 183.965233 133.037885 
L 184.076786 133.037885 
L 184.095309 131.984513 
L 184.285568 131.984513 
L 184.364741 130.404454 
L 184.45565 130.404454 
L 184.467735 129.351082 
L 184.695781 129.351082 
L 184.802771 126.190966 
L 184.844202 126.190966 
L 184.867832 123.557535 
L 184.979642 123.557535 
L 185.038202 115.130558 
L 185.148928 115.130558 
L 185.235849 107.756953 
L 185.419846 107.756953 
L 185.51681 104.07015 
L 185.692252 104.07015 
L 185.742857 102.490092 
L 185.993706 102.490092 
L 186.026882 100.910034 
L 186.208228 100.910034 
L 186.31179 99.329976 
L 186.527826 99.329976 
L 186.602811 97.749917 
L 186.677475 97.749917 
L 186.762415 94.063115 
L 186.815293 94.063115 
L 186.852213 93.009743 
L 187.201688 93.009743 
L 187.309799 89.32294 
L 187.376391 89.32294 
L 187.40704 88.269568 
L 187.549361 88.269568 
L 187.569598 87.216196 
L 187.710604 87.216196 
L 187.755686 85.636137 
L 188.888693 85.636137 
L 188.888693 85.109451 
L 189.232199 85.109451 
L 189.282687 83.529393 
L 196.582885 83.529393 
L 196.582885 80.895963 
L 196.780788 80.895963 
L 196.780788 80.369277 
L 197.393064 80.369277 
L 197.482077 79.315904 
L 197.68708 79.315904 
L 197.771792 78.262532 
L 197.898093 78.262532 
L 197.898093 77.20916 
L 198.709495 77.20916 
L 198.709495 75.629102 
L 199.495029 75.629102 
L 199.594267 73.522358 
L 199.735784 73.522358 
L 199.80862 71.415613 
L 199.878658 71.415613 
L 199.878658 70.362241 
L 199.995592 70.362241 
L 199.995592 69.835555 
L 200.133901 69.835555 
L 200.209997 67.728811 
L 200.349053 67.728811 
L 200.387888 66.675439 
L 200.563983 66.675439 
L 200.652562 65.09538 
L 200.676425 65.09538 
L 200.783408 64.042008 
L 200.859087 64.042008 
L 200.859087 63.515322 
L 201.130703 63.515322 
L 201.193322 62.46195 
L 201.43244 62.46195 
L 201.43244 61.408578 
L 201.575712 61.408578 
L 201.661565 60.355206 
L 201.699836 60.355206 
L 201.704333 58.248461 
L 201.811914 58.248461 
L 201.867684 56.141717 
L 202.117563 56.141717 
L 202.205165 53.508287 
L 202.246622 53.508287 
L 202.246622 52.9816 
L 202.379059 52.9816 
L 202.471816 50.34817 
L 202.806357 50.34817 
L 202.861144 48.768112 
L 203.045312 48.768112 
L 203.128386 45.607995 
L 203.25226 45.607995 
L 203.25226 45.081309 
L 203.892509 45.081309 
L 203.892509 44.554623 
L 207.448399 44.554623 
L 207.554815 42.447879 
L 207.851267 42.447879 
L 207.851267 41.921193 
L 209.174672 41.921193 
L 209.209794 40.867821 
L 209.292925 40.867821 
L 209.378558 39.814448 
L 209.824534 39.814448 
L 209.825945 38.761076 
L 210.054462 38.761076 
L 210.121189 37.707704 
L 210.302009 37.707704 
L 210.302009 36.654332 
L 210.608267 36.654332 
L 210.608267 36.127646 
L 210.721239 36.127646 
L 210.774779 35.074274 
L 210.918521 35.074274 
L 210.918521 34.547588 
L 211.251983 34.547588 
L 211.259784 33.494215 
L 213.725873 33.494215 
L 213.725873 32.967529 
L 215.423368 32.967529 
L 215.423368 32.440843 
L 215.536634 32.440843 
L 215.536634 31.914157 
L 215.835128 31.914157 
L 215.835128 31.387471 
L 219.85053 31.387471 
L 219.85053 30.860785 
L 220.706765 30.860785 
L 220.706765 30.334099 
L 338.688 30.334099 
L 338.688 30.334099 
" style="fill:none;stroke:#ff0000;stroke-linecap:square;stroke-width:1.5;"/>
   </g>
   <g id="line2d_51">
    <defs>
     <path d="M 0 -6 
L -5.196152 -3 
L -5.196152 3 
L -0 6 
L 5.196152 3 
L 5.196152 -3 
z
" id="m4e6277d7e9" style="stroke:#ff0000;stroke-linejoin:miter;stroke-width:1.5;"/>
    </defs>
    <g>
     <use style="fill-opacity:0;stroke:#ff0000;stroke-linejoin:miter;stroke-width:1.5;" x="149.60198" xlink:href="#m4e6277d7e9" y="253.122311"/>
     <use style="fill-opacity:0;stroke:#ff0000;stroke-linejoin:miter;stroke-width:1.5;" x="179.648977" xlink:href="#m4e6277d7e9" y="173.066027"/>
     <use style="fill-opacity:0;stroke:#ff0000;stroke-linejoin:miter;stroke-width:1.5;" x="220.706765" xlink:href="#m4e6277d7e9" y="30.860785"/>
     <use style="fill-opacity:0;stroke:#ff0000;stroke-linejoin:miter;stroke-width:1.5;" x="220.706765" xlink:href="#m4e6277d7e9" y="30.334099"/>
     <use style="fill-opacity:0;stroke:#ff0000;stroke-linejoin:miter;stroke-width:1.5;" x="220.706765" xlink:href="#m4e6277d7e9" y="30.334099"/>
     <use style="fill-opacity:0;stroke:#ff0000;stroke-linejoin:miter;stroke-width:1.5;" x="338.688" xlink:href="#m4e6277d7e9" y="30.334099"/>
    </g>
   </g>
   <g id="line2d_52">
    <path style="fill:none;stroke:#ff0000;stroke-linecap:square;stroke-width:1.5;"/>
    <g/>
   </g>
   <g id="line2d_53">
    <path clip-path="url(#p6e3a780339)" d="M 194.045737 83.529393 
" style="fill:none;stroke:#ff0000;stroke-linecap:square;stroke-width:1.5;"/>
    <defs>
     <path d="M -12 12 
L 12 -12 
M -12 -12 
L 12 12 
" id="m3018270489" style="stroke:#ff0000;"/>
    </defs>
    <g clip-path="url(#p6e3a780339)">
     <use style="fill:#ff0000;stroke:#ff0000;" x="194.045737" xlink:href="#m3018270489" y="83.529393"/>
    </g>
   </g>
   <g id="line2d_54">
    <path d="M 338.688 209.407366 
L 369.60768 293.571802 
" style="fill:none;stroke:#000080;stroke-linecap:square;stroke-width:1.5;"/>
    <g>
     <use style="fill-opacity:0;stroke:#000080;stroke-width:1.5;" x="338.688" xlink:href="#mccc82e8901" y="209.407366"/>
     <use style="fill-opacity:0;stroke:#000080;stroke-width:1.5;" x="369.60768" xlink:href="#mccc82e8901" y="293.571802"/>
    </g>
   </g>
   <g id="line2d_55">
    <path d="M 338.688 30.334099 
L 369.60768 229.105426 
" style="fill:none;stroke:#ff7500;stroke-linecap:square;stroke-width:1.5;"/>
    <g>
     <use style="fill-opacity:0;stroke:#ff7500;stroke-linejoin:bevel;stroke-width:1.5;" x="338.688" xlink:href="#m4d1f3598cd" y="30.334099"/>
     <use style="fill-opacity:0;stroke:#ff7500;stroke-linejoin:bevel;stroke-width:1.5;" x="369.60768" xlink:href="#m4d1f3598cd" y="229.105426"/>
    </g>
   </g>
   <g id="line2d_56">
    <path d="M 338.688 30.334099 
L 369.60768 164.63905 
" style="fill:none;stroke:#ff0000;stroke-linecap:square;stroke-width:1.5;"/>
    <g>
     <use style="fill-opacity:0;stroke:#ff0000;stroke-linejoin:miter;stroke-width:1.5;" x="338.688" xlink:href="#m4e6277d7e9" y="30.334099"/>
     <use style="fill-opacity:0;stroke:#ff0000;stroke-linejoin:miter;stroke-width:1.5;" x="369.60768" xlink:href="#m4e6277d7e9" y="164.63905"/>
    </g>
   </g>
   <g id="line2d_57">
    <path d="M 338.688 30.334099 
L 369.60768 100.172673 
" style="fill:none;stroke:#6495ed;stroke-linecap:square;stroke-width:1.5;"/>
    <g>
     <use style="fill-opacity:0;stroke:#6495ed;stroke-linejoin:miter;stroke-width:1.5;" x="338.688" xlink:href="#m6445a26d5d" y="30.334099"/>
     <use style="fill-opacity:0;stroke:#6495ed;stroke-linejoin:miter;stroke-width:1.5;" x="369.60768" xlink:href="#m6445a26d5d" y="100.172673"/>
    </g>
   </g>
   <g id="line2d_58">
    <path d="M 338.688 298.944 
L 338.688 30.334099 
" style="fill:none;stroke:#000000;stroke-linecap:square;stroke-width:1.5;"/>
   </g>
   <g id="patch_3">
    <path d="M 57.6 298.944 
L 57.6 27.648 
" style="fill:none;stroke:#000000;stroke-linecap:square;stroke-linejoin:miter;stroke-width:0.8;"/>
   </g>
   <g id="patch_4">
    <path d="M 338.688 298.944 
L 338.688 27.648 
" style="fill:none;stroke:#000000;stroke-linecap:square;stroke-linejoin:miter;stroke-width:0.8;"/>
   </g>
   <g id="patch_5">
    <path d="M 57.6 298.944 
L 338.688 298.944 
" style="fill:none;stroke:#000000;stroke-linecap:square;stroke-linejoin:miter;stroke-width:0.8;"/>
   </g>
   <g id="patch_6">
    <path d="M 57.6 27.648 
L 338.688 27.648 
" style="fill:none;stroke:#000000;stroke-linecap:square;stroke-linejoin:miter;stroke-width:0.8;"/>
   </g>
   <g id="text_13">
    <!-- ABC -->
    <defs>
     <path d="M 34.1875 63.1875 
L 20.796875 26.90625 
L 47.609375 26.90625 
z
M 28.609375 72.90625 
L 39.796875 72.90625 
L 67.578125 0 
L 57.328125 0 
L 50.6875 18.703125 
L 17.828125 18.703125 
L 11.1875 0 
L 0.78125 0 
z
" id="DejaVuSans-65"/>
     <path d="M 19.671875 34.8125 
L 19.671875 8.109375 
L 35.5 8.109375 
Q 43.453125 8.109375 47.28125 11.40625 
Q 51.125 14.703125 51.125 21.484375 
Q 51.125 28.328125 47.28125 31.5625 
Q 43.453125 34.8125 35.5 34.8125 
z
M 19.671875 64.796875 
L 19.671875 42.828125 
L 34.28125 42.828125 
Q 41.5 42.828125 45.03125 45.53125 
Q 48.578125 48.25 48.578125 53.8125 
Q 48.578125 59.328125 45.03125 62.0625 
Q 41.5 64.796875 34.28125 64.796875 
z
M 9.8125 72.90625 
L 35.015625 72.90625 
Q 46.296875 72.90625 52.390625 68.21875 
Q 58.5 63.53125 58.5 54.890625 
Q 58.5 48.1875 55.375 44.234375 
Q 52.25 40.28125 46.1875 39.3125 
Q 53.46875 37.75 57.5 32.78125 
Q 61.53125 27.828125 61.53125 20.40625 
Q 61.53125 10.640625 54.890625 5.3125 
Q 48.25 0 35.984375 0 
L 9.8125 0 
z
" id="DejaVuSans-66"/>
     <path d="M 64.40625 67.28125 
L 64.40625 56.890625 
Q 59.421875 61.53125 53.78125 63.8125 
Q 48.140625 66.109375 41.796875 66.109375 
Q 29.296875 66.109375 22.65625 58.46875 
Q 16.015625 50.828125 16.015625 36.375 
Q 16.015625 21.96875 22.65625 14.328125 
Q 29.296875 6.6875 41.796875 6.6875 
Q 48.140625 6.6875 53.78125 8.984375 
Q 59.421875 11.28125 64.40625 15.921875 
L 64.40625 5.609375 
Q 59.234375 2.09375 53.4375 0.328125 
Q 47.65625 -1.421875 41.21875 -1.421875 
Q 24.65625 -1.421875 15.125 8.703125 
Q 5.609375 18.84375 5.609375 36.375 
Q 5.609375 53.953125 15.125 64.078125 
Q 24.65625 74.21875 41.21875 74.21875 
Q 47.75 74.21875 53.53125 72.484375 
Q 59.328125 70.75 64.40625 67.28125 
z
" id="DejaVuSans-67"/>
    </defs>
    <g transform="translate(375.22944 298.262739)scale(0.17 -0.17)">
     <use xlink:href="#DejaVuSans-65"/>
     <use x="68.408203" xlink:href="#DejaVuSans-66"/>
     <use x="135.261719" xlink:href="#DejaVuSans-67"/>
    </g>
   </g>
   <g id="text_14">
    <!-- DE -->
    <defs>
     <path d="M 19.671875 64.796875 
L 19.671875 8.109375 
L 31.59375 8.109375 
Q 46.6875 8.109375 53.6875 14.9375 
Q 60.6875 21.78125 60.6875 36.53125 
Q 60.6875 51.171875 53.6875 57.984375 
Q 46.6875 64.796875 31.59375 64.796875 
z
M 9.8125 72.90625 
L 30.078125 72.90625 
Q 51.265625 72.90625 61.171875 64.09375 
Q 71.09375 55.28125 71.09375 36.53125 
Q 71.09375 17.671875 61.125 8.828125 
Q 51.171875 0 30.078125 0 
L 9.8125 0 
z
" id="DejaVuSans-68"/>
     <path d="M 9.8125 72.90625 
L 55.90625 72.90625 
L 55.90625 64.59375 
L 19.671875 64.59375 
L 19.671875 43.015625 
L 54.390625 43.015625 
L 54.390625 34.71875 
L 19.671875 34.71875 
L 19.671875 8.296875 
L 56.78125 8.296875 
L 56.78125 0 
L 9.8125 0 
z
" id="DejaVuSans-69"/>
    </defs>
    <g transform="translate(375.22944 233.796363)scale(0.17 -0.17)">
     <use xlink:href="#DejaVuSans-68"/>
     <use x="77.001953" xlink:href="#DejaVuSans-69"/>
    </g>
   </g>
   <g id="text_15">
    <!-- PSO -->
    <defs>
     <path d="M 19.671875 64.796875 
L 19.671875 37.40625 
L 32.078125 37.40625 
Q 38.96875 37.40625 42.71875 40.96875 
Q 46.484375 44.53125 46.484375 51.125 
Q 46.484375 57.671875 42.71875 61.234375 
Q 38.96875 64.796875 32.078125 64.796875 
z
M 9.8125 72.90625 
L 32.078125 72.90625 
Q 44.34375 72.90625 50.609375 67.359375 
Q 56.890625 61.8125 56.890625 51.125 
Q 56.890625 40.328125 50.609375 34.8125 
Q 44.34375 29.296875 32.078125 29.296875 
L 19.671875 29.296875 
L 19.671875 0 
L 9.8125 0 
z
" id="DejaVuSans-80"/>
     <path d="M 53.515625 70.515625 
L 53.515625 60.890625 
Q 47.90625 63.578125 42.921875 64.890625 
Q 37.9375 66.21875 33.296875 66.21875 
Q 25.25 66.21875 20.875 63.09375 
Q 16.5 59.96875 16.5 54.203125 
Q 16.5 49.359375 19.40625 46.890625 
Q 22.3125 44.4375 30.421875 42.921875 
L 36.375 41.703125 
Q 47.40625 39.59375 52.65625 34.296875 
Q 57.90625 29 57.90625 20.125 
Q 57.90625 9.515625 50.796875 4.046875 
Q 43.703125 -1.421875 29.984375 -1.421875 
Q 24.8125 -1.421875 18.96875 -0.25 
Q 13.140625 0.921875 6.890625 3.21875 
L 6.890625 13.375 
Q 12.890625 10.015625 18.65625 8.296875 
Q 24.421875 6.59375 29.984375 6.59375 
Q 38.421875 6.59375 43.015625 9.90625 
Q 47.609375 13.234375 47.609375 19.390625 
Q 47.609375 24.75 44.3125 27.78125 
Q 41.015625 30.8125 33.5 32.328125 
L 27.484375 33.5 
Q 16.453125 35.6875 11.515625 40.375 
Q 6.59375 45.0625 6.59375 53.421875 
Q 6.59375 63.09375 13.40625 68.65625 
Q 20.21875 74.21875 32.171875 74.21875 
Q 37.3125 74.21875 42.625 73.28125 
Q 47.953125 72.359375 53.515625 70.515625 
z
" id="DejaVuSans-83"/>
     <path d="M 39.40625 66.21875 
Q 28.65625 66.21875 22.328125 58.203125 
Q 16.015625 50.203125 16.015625 36.375 
Q 16.015625 22.609375 22.328125 14.59375 
Q 28.65625 6.59375 39.40625 6.59375 
Q 50.140625 6.59375 56.421875 14.59375 
Q 62.703125 22.609375 62.703125 36.375 
Q 62.703125 50.203125 56.421875 58.203125 
Q 50.140625 66.21875 39.40625 66.21875 
z
M 39.40625 74.21875 
Q 54.734375 74.21875 63.90625 63.9375 
Q 73.09375 53.65625 73.09375 36.375 
Q 73.09375 19.140625 63.90625 8.859375 
Q 54.734375 -1.421875 39.40625 -1.421875 
Q 24.03125 -1.421875 14.8125 8.828125 
Q 5.609375 19.09375 5.609375 36.375 
Q 5.609375 53.65625 14.8125 63.9375 
Q 24.03125 74.21875 39.40625 74.21875 
z
" id="DejaVuSans-79"/>
    </defs>
    <g transform="translate(375.22944 169.329987)scale(0.17 -0.17)">
     <use xlink:href="#DejaVuSans-80"/>
     <use x="60.302734" xlink:href="#DejaVuSans-83"/>
     <use x="123.779297" xlink:href="#DejaVuSans-79"/>
    </g>
   </g>
   <g id="text_16">
    <!-- DEPSO -->
    <g transform="translate(375.22944 104.863611)scale(0.17 -0.17)">
     <use xlink:href="#DejaVuSans-68"/>
     <use x="77.001953" xlink:href="#DejaVuSans-69"/>
     <use x="140.185547" xlink:href="#DejaVuSans-80"/>
     <use x="200.488281" xlink:href="#DejaVuSans-83"/>
     <use x="263.964844" xlink:href="#DejaVuSans-79"/>
    </g>
   </g>
   <g id="text_17">
    <!-- best 2009 -->
    <defs>
     <path d="M 48.6875 27.296875 
Q 48.6875 37.203125 44.609375 42.84375 
Q 40.53125 48.484375 33.40625 48.484375 
Q 26.265625 48.484375 22.1875 42.84375 
Q 18.109375 37.203125 18.109375 27.296875 
Q 18.109375 17.390625 22.1875 11.75 
Q 26.265625 6.109375 33.40625 6.109375 
Q 40.53125 6.109375 44.609375 11.75 
Q 48.6875 17.390625 48.6875 27.296875 
z
M 18.109375 46.390625 
Q 20.953125 51.265625 25.265625 53.625 
Q 29.59375 56 35.59375 56 
Q 45.5625 56 51.78125 48.09375 
Q 58.015625 40.1875 58.015625 27.296875 
Q 58.015625 14.40625 51.78125 6.484375 
Q 45.5625 -1.421875 35.59375 -1.421875 
Q 29.59375 -1.421875 25.265625 0.953125 
Q 20.953125 3.328125 18.109375 8.203125 
L 18.109375 0 
L 9.078125 0 
L 9.078125 75.984375 
L 18.109375 75.984375 
z
" id="DejaVuSans-98"/>
     <path d="M 10.984375 1.515625 
L 10.984375 10.5 
Q 14.703125 8.734375 18.5 7.8125 
Q 22.3125 6.890625 25.984375 6.890625 
Q 35.75 6.890625 40.890625 13.453125 
Q 46.046875 20.015625 46.78125 33.40625 
Q 43.953125 29.203125 39.59375 26.953125 
Q 35.25 24.703125 29.984375 24.703125 
Q 19.046875 24.703125 12.671875 31.3125 
Q 6.296875 37.9375 6.296875 49.421875 
Q 6.296875 60.640625 12.9375 67.421875 
Q 19.578125 74.21875 30.609375 74.21875 
Q 43.265625 74.21875 49.921875 64.515625 
Q 56.59375 54.828125 56.59375 36.375 
Q 56.59375 19.140625 48.40625 8.859375 
Q 40.234375 -1.421875 26.421875 -1.421875 
Q 22.703125 -1.421875 18.890625 -0.6875 
Q 15.09375 0.046875 10.984375 1.515625 
z
M 30.609375 32.421875 
Q 37.25 32.421875 41.125 36.953125 
Q 45.015625 41.5 45.015625 49.421875 
Q 45.015625 57.28125 41.125 61.84375 
Q 37.25 66.40625 30.609375 66.40625 
Q 23.96875 66.40625 20.09375 61.84375 
Q 16.21875 57.28125 16.21875 49.421875 
Q 16.21875 41.5 20.09375 36.953125 
Q 23.96875 32.421875 30.609375 32.421875 
z
" id="DejaVuSans-57"/>
    </defs>
    <g transform="translate(375.22944 40.397235)scale(0.17 -0.17)">
     <use xlink:href="#DejaVuSans-98"/>
     <use x="63.476562" xlink:href="#DejaVuSans-101"/>
     <use x="125" xlink:href="#DejaVuSans-115"/>
     <use x="177.099609" xlink:href="#DejaVuSans-116"/>
     <use x="216.308594" xlink:href="#DejaVuSans-32"/>
     <use x="248.095703" xlink:href="#DejaVuSans-50"/>
     <use x="311.71875" xlink:href="#DejaVuSans-48"/>
     <use x="375.341797" xlink:href="#DejaVuSans-48"/>
     <use x="438.964844" xlink:href="#DejaVuSans-57"/>
    </g>
   </g>
   <g id="text_18">
    <!-- bbob f3, 2-D -->
    <defs>
     <path d="M 40.578125 39.3125 
Q 47.65625 37.796875 51.625 33 
Q 55.609375 28.21875 55.609375 21.1875 
Q 55.609375 10.40625 48.1875 4.484375 
Q 40.765625 -1.421875 27.09375 -1.421875 
Q 22.515625 -1.421875 17.65625 -0.515625 
Q 12.796875 0.390625 7.625 2.203125 
L 7.625 11.71875 
Q 11.71875 9.328125 16.59375 8.109375 
Q 21.484375 6.890625 26.8125 6.890625 
Q 36.078125 6.890625 40.9375 10.546875 
Q 45.796875 14.203125 45.796875 21.1875 
Q 45.796875 27.640625 41.28125 31.265625 
Q 36.765625 34.90625 28.71875 34.90625 
L 20.21875 34.90625 
L 20.21875 43.015625 
L 29.109375 43.015625 
Q 36.375 43.015625 40.234375 45.921875 
Q 44.09375 48.828125 44.09375 54.296875 
Q 44.09375 59.90625 40.109375 62.90625 
Q 36.140625 65.921875 28.71875 65.921875 
Q 24.65625 65.921875 20.015625 65.03125 
Q 15.375 64.15625 9.8125 62.3125 
L 9.8125 71.09375 
Q 15.4375 72.65625 20.34375 73.4375 
Q 25.25 74.21875 29.59375 74.21875 
Q 40.828125 74.21875 47.359375 69.109375 
Q 53.90625 64.015625 53.90625 55.328125 
Q 53.90625 49.265625 50.4375 45.09375 
Q 46.96875 40.921875 40.578125 39.3125 
z
" id="DejaVuSans-51"/>
    </defs>
    <g transform="translate(60.41088 38.111366)scale(0.102 -0.102)">
     <use xlink:href="#DejaVuSans-98"/>
     <use x="63.476562" xlink:href="#DejaVuSans-98"/>
     <use x="126.953125" xlink:href="#DejaVuSans-111"/>
     <use x="188.134766" xlink:href="#DejaVuSans-98"/>
     <use x="251.611328" xlink:href="#DejaVuSans-32"/>
     <use x="283.398438" xlink:href="#DejaVuSans-102"/>
     <use x="318.603516" xlink:href="#DejaVuSans-51"/>
     <use x="382.226562" xlink:href="#DejaVuSans-44"/>
     <use x="414.013672" xlink:href="#DejaVuSans-32"/>
     <use x="445.800781" xlink:href="#DejaVuSans-50"/>
     <use x="509.423828" xlink:href="#DejaVuSans-45"/>
     <use x="545.507812" xlink:href="#DejaVuSans-68"/>
    </g>
    <!-- 51 targets: 100..1e-08 -->
    <defs>
     <path d="M 10.796875 72.90625 
L 49.515625 72.90625 
L 49.515625 64.59375 
L 19.828125 64.59375 
L 19.828125 46.734375 
Q 21.96875 47.46875 24.109375 47.828125 
Q 26.265625 48.1875 28.421875 48.1875 
Q 40.625 48.1875 47.75 41.5 
Q 54.890625 34.8125 54.890625 23.390625 
Q 54.890625 11.625 47.5625 5.09375 
Q 40.234375 -1.421875 26.90625 -1.421875 
Q 22.3125 -1.421875 17.546875 -0.640625 
Q 12.796875 0.140625 7.71875 1.703125 
L 7.71875 11.625 
Q 12.109375 9.234375 16.796875 8.0625 
Q 21.484375 6.890625 26.703125 6.890625 
Q 35.15625 6.890625 40.078125 11.328125 
Q 45.015625 15.765625 45.015625 23.390625 
Q 45.015625 31 40.078125 35.4375 
Q 35.15625 39.890625 26.703125 39.890625 
Q 22.75 39.890625 18.8125 39.015625 
Q 14.890625 38.140625 10.796875 36.28125 
z
" id="DejaVuSans-53"/>
     <path d="M 11.71875 12.40625 
L 22.015625 12.40625 
L 22.015625 0 
L 11.71875 0 
z
M 11.71875 51.703125 
L 22.015625 51.703125 
L 22.015625 39.3125 
L 11.71875 39.3125 
z
" id="DejaVuSans-58"/>
    </defs>
    <g transform="translate(60.41088 49.533135)scale(0.102 -0.102)">
     <use xlink:href="#DejaVuSans-53"/>
     <use x="63.623047" xlink:href="#DejaVuSans-49"/>
     <use x="127.246094" xlink:href="#DejaVuSans-32"/>
     <use x="159.033203" xlink:href="#DejaVuSans-116"/>
     <use x="198.242188" xlink:href="#DejaVuSans-97"/>
     <use x="259.521484" xlink:href="#DejaVuSans-114"/>
     <use x="298.884766" xlink:href="#DejaVuSans-103"/>
     <use x="362.361328" xlink:href="#DejaVuSans-101"/>
     <use x="423.884766" xlink:href="#DejaVuSans-116"/>
     <use x="463.09375" xlink:href="#DejaVuSans-115"/>
     <use x="515.193359" xlink:href="#DejaVuSans-58"/>
     <use x="548.884766" xlink:href="#DejaVuSans-32"/>
     <use x="580.671875" xlink:href="#DejaVuSans-49"/>
     <use x="644.294922" xlink:href="#DejaVuSans-48"/>
     <use x="707.917969" xlink:href="#DejaVuSans-48"/>
     <use x="771.541016" xlink:href="#DejaVuSans-46"/>
     <use x="803.328125" xlink:href="#DejaVuSans-46"/>
     <use x="835.115234" xlink:href="#DejaVuSans-49"/>
     <use x="898.738281" xlink:href="#DejaVuSans-101"/>
     <use x="960.261719" xlink:href="#DejaVuSans-45"/>
     <use x="996.345703" xlink:href="#DejaVuSans-48"/>
     <use x="1059.96875" xlink:href="#DejaVuSans-56"/>
    </g>
    <!-- 15 instances -->
    <g transform="translate(60.41088 60.954904)scale(0.102 -0.102)">
     <use xlink:href="#DejaVuSans-49"/>
     <use x="63.623047" xlink:href="#DejaVuSans-53"/>
     <use x="127.246094" xlink:href="#DejaVuSans-32"/>
     <use x="159.033203" xlink:href="#DejaVuSans-105"/>
     <use x="186.816406" xlink:href="#DejaVuSans-110"/>
     <use x="250.195312" xlink:href="#DejaVuSans-115"/>
     <use x="302.294922" xlink:href="#DejaVuSans-116"/>
     <use x="341.503906" xlink:href="#DejaVuSans-97"/>
     <use x="402.783203" xlink:href="#DejaVuSans-110"/>
     <use x="466.162109" xlink:href="#DejaVuSans-99"/>
     <use x="521.142578" xlink:href="#DejaVuSans-101"/>
     <use x="582.666016" xlink:href="#DejaVuSans-115"/>
    </g>
   </g>
   <g id="text_19">
    <!-- v2.4 -->
    <g style="fill:#808080;" transform="translate(187.233062 294.151352)scale(0.1 -0.1)">
     <use xlink:href="#DejaVuSans-118"/>
     <use x="59.179688" xlink:href="#DejaVuSans-50"/>
     <use x="122.802734" xlink:href="#DejaVuSans-46"/>
     <use x="154.589844" xlink:href="#DejaVuSans-52"/>
    </g>
   </g>
   <g id="text_20">
    <!-- 3 Rastrigin separable -->
    <defs>
     <path d="M 44.390625 34.1875 
Q 47.5625 33.109375 50.5625 29.59375 
Q 53.5625 26.078125 56.59375 19.921875 
L 66.609375 0 
L 56 0 
L 46.6875 18.703125 
Q 43.0625 26.03125 39.671875 28.421875 
Q 36.28125 30.8125 30.421875 30.8125 
L 19.671875 30.8125 
L 19.671875 0 
L 9.8125 0 
L 9.8125 72.90625 
L 32.078125 72.90625 
Q 44.578125 72.90625 50.734375 67.671875 
Q 56.890625 62.453125 56.890625 51.90625 
Q 56.890625 45.015625 53.6875 40.46875 
Q 50.484375 35.9375 44.390625 34.1875 
z
M 19.671875 64.796875 
L 19.671875 38.921875 
L 32.078125 38.921875 
Q 39.203125 38.921875 42.84375 42.21875 
Q 46.484375 45.515625 46.484375 51.90625 
Q 46.484375 58.296875 42.84375 61.546875 
Q 39.203125 64.796875 32.078125 64.796875 
z
" id="DejaVuSans-82"/>
    </defs>
    <g transform="translate(91.733062 21.648)scale(0.2 -0.2)">
     <use xlink:href="#DejaVuSans-51"/>
     <use x="63.623047" xlink:href="#DejaVuSans-32"/>
     <use x="95.410156" xlink:href="#DejaVuSans-82"/>
     <use x="162.642578" xlink:href="#DejaVuSans-97"/>
     <use x="223.921875" xlink:href="#DejaVuSans-115"/>
     <use x="276.021484" xlink:href="#DejaVuSans-116"/>
     <use x="315.230469" xlink:href="#DejaVuSans-114"/>
     <use x="356.34375" xlink:href="#DejaVuSans-105"/>
     <use x="384.126953" xlink:href="#DejaVuSans-103"/>
     <use x="447.603516" xlink:href="#DejaVuSans-105"/>
     <use x="475.386719" xlink:href="#DejaVuSans-110"/>
     <use x="538.765625" xlink:href="#DejaVuSans-32"/>
     <use x="570.552734" xlink:href="#DejaVuSans-115"/>
     <use x="622.652344" xlink:href="#DejaVuSans-101"/>
     <use x="684.175781" xlink:href="#DejaVuSans-112"/>
     <use x="747.652344" xlink:href="#DejaVuSans-97"/>
     <use x="808.931641" xlink:href="#DejaVuSans-114"/>
     <use x="850.044922" xlink:href="#DejaVuSans-97"/>
     <use x="911.324219" xlink:href="#DejaVuSans-98"/>
     <use x="974.800781" xlink:href="#DejaVuSans-108"/>
     <use x="1002.583984" xlink:href="#DejaVuSans-101"/>
    </g>
   </g>
  </g>
 </g>
 <defs>
  <clipPath id="p6e3a780339">
   <rect height="271.296" width="281.088" x="57.6" y="27.648"/>
  </clipPath>
 </defs>
</svg>
