<?xml version="1.0" encoding="utf-8" standalone="no"?>
<!DOCTYPE svg PUBLIC "-//W3C//DTD SVG 1.1//EN"
  "http://www.w3.org/Graphics/SVG/1.1/DTD/svg11.dtd">
<!-- Created with matplotlib (https://matplotlib.org/) -->
<svg height="345.6pt" version="1.1" viewBox="0 0 460.8 345.6" width="460.8pt" xmlns="http://www.w3.org/2000/svg" xmlns:xlink="http://www.w3.org/1999/xlink">
 <defs>
  <style type="text/css">
*{stroke-linecap:butt;stroke-linejoin:round;}
  </style>
 </defs>
 <g id="figure_1">
  <g id="patch_1">
   <path d="M 0 345.6 
L 460.8 345.6 
L 460.8 0 
L 0 0 
z
" style="fill:#ffffff;"/>
  </g>
  <g id="axes_1">
   <g id="patch_2">
    <path d="M 57.6 298.944 
L 338.688 298.944 
L 338.688 27.648 
L 57.6 27.648 
z
" style="fill:#ffffff;"/>
   </g>
   <g id="line2d_1">
    <path d="M 5.356583 298.944 
L 5.356583 293.677139 
L 54.765787 293.677139 
L 54.765787 288.410278 
L 79.069525 288.410278 
L 79.069525 283.143418 
L 83.438118 283.143418 
L 83.438118 277.876557 
L 88.627632 277.876557 
L 88.627632 272.609696 
L 92.969447 272.609696 
L 92.969447 267.342835 
L 96.442905 267.342835 
L 96.442905 262.075974 
L 99.338119 262.075974 
L 99.338119 256.809114 
L 101.785851 256.809114 
L 101.785851 251.542253 
L 104.084239 251.542253 
L 104.084239 246.275392 
L 105.285403 246.275392 
L 105.285403 241.008531 
L 106.30264 241.008531 
L 106.30264 235.74167 
L 107.187808 235.74167 
L 107.187808 230.47481 
L 107.90885 230.47481 
L 107.90885 225.207949 
L 108.601261 225.207949 
L 108.601261 219.941088 
L 109.334689 219.941088 
L 109.334689 214.674227 
L 110.252758 214.674227 
L 110.252758 209.407366 
L 111.485729 209.407366 
L 111.485729 204.140506 
L 112.877038 204.140506 
L 112.877038 198.873645 
L 114.097313 198.873645 
L 114.097313 193.606784 
L 115.476111 193.606784 
L 115.476111 188.339923 
L 117.202696 188.339923 
L 117.202696 183.073062 
L 119.813201 183.073062 
L 119.813201 177.806202 
L 122.740699 177.806202 
L 122.740699 172.539341 
L 125.083692 172.539341 
L 125.083692 167.27248 
L 127.54041 167.27248 
L 127.54041 162.005619 
L 131.471338 162.005619 
L 131.471338 156.738758 
L 132.905511 156.738758 
L 132.905511 151.471897 
L 134.04118 151.471897 
L 134.04118 146.205037 
L 135.209496 146.205037 
L 135.209496 140.938176 
L 136.184509 140.938176 
L 136.184509 135.671315 
L 137.217107 135.671315 
L 137.217107 130.404454 
L 138.264747 130.404454 
L 138.264747 125.137593 
L 139.240888 125.137593 
L 139.240888 119.870733 
L 140.184419 119.870733 
L 140.184419 114.603872 
L 141.181008 114.603872 
L 141.181008 109.337011 
L 142.385399 109.337011 
L 142.385399 104.07015 
L 172.211004 104.07015 
L 172.211004 98.803289 
L 175.236688 98.803289 
L 175.236688 93.536429 
L 176.788512 93.536429 
L 176.788512 88.269568 
L 178.387677 88.269568 
L 178.387677 83.002707 
L 179.472097 83.002707 
L 179.472097 77.735846 
L 180.858267 77.735846 
L 180.858267 72.468985 
L 182.621596 72.468985 
L 182.621596 67.202125 
L 183.962435 67.202125 
L 183.962435 61.935264 
L 184.458974 61.935264 
L 184.458974 56.668403 
L 184.963503 56.668403 
L 184.963503 51.401542 
L 185.412981 51.401542 
L 185.412981 46.134681 
L 185.900756 46.134681 
L 185.900756 40.867821 
L 186.355754 40.867821 
L 186.355754 35.60096 
L 186.833763 35.60096 
L 186.833763 30.334099 
L 338.688 30.334099 
" style="fill:none;stroke:#f5deb3;stroke-linecap:square;stroke-width:4;"/>
   </g>
   <g id="line2d_2">
    <defs>
     <path d="M -0 7.778175 
L 7.778175 0 
L 0 -7.778175 
L -7.778175 -0 
z
" id="m8128a89d2e" style="stroke:#f5deb3;stroke-linejoin:miter;stroke-width:1.5;"/>
    </defs>
    <g>
     <use style="fill:#f5deb3;stroke:#f5deb3;stroke-linejoin:miter;stroke-width:1.5;" x="115.476111" xlink:href="#m8128a89d2e" y="188.339923"/>
     <use style="fill:#f5deb3;stroke:#f5deb3;stroke-linejoin:miter;stroke-width:1.5;" x="142.385399" xlink:href="#m8128a89d2e" y="109.337011"/>
     <use style="fill:#f5deb3;stroke:#f5deb3;stroke-linejoin:miter;stroke-width:1.5;" x="186.833763" xlink:href="#m8128a89d2e" y="35.60096"/>
     <use style="fill:#f5deb3;stroke:#f5deb3;stroke-linejoin:miter;stroke-width:1.5;" x="186.833763" xlink:href="#m8128a89d2e" y="30.334099"/>
     <use style="fill:#f5deb3;stroke:#f5deb3;stroke-linejoin:miter;stroke-width:1.5;" x="338.688" xlink:href="#m8128a89d2e" y="30.334099"/>
    </g>
   </g>
   <g id="line2d_3">
    <path style="fill:none;stroke:#f5deb3;stroke-linecap:square;stroke-width:4;"/>
    <g/>
   </g>
   <g id="line2d_4">
    <path d="M 338.688 30.334099 
L 369.60768 35.706297 
" style="fill:none;stroke:#f5deb3;stroke-linecap:square;stroke-width:4;"/>
    <g>
     <use style="fill:#f5deb3;stroke:#f5deb3;stroke-linejoin:miter;stroke-width:1.5;" x="338.688" xlink:href="#m8128a89d2e" y="30.334099"/>
     <use style="fill:#f5deb3;stroke:#f5deb3;stroke-linejoin:miter;stroke-width:1.5;" x="369.60768" xlink:href="#m8128a89d2e" y="35.706297"/>
    </g>
   </g>
   <g id="matplotlib.axis_1">
    <g id="xtick_1">
     <g id="line2d_5">
      <path clip-path="url(#p0d38421736)" d="M 57.6 298.944 
L 57.6 27.648 
" style="fill:none;stroke:#b0b0b0;stroke-linecap:square;stroke-width:0.8;"/>
     </g>
     <g id="line2d_6">
      <defs>
       <path d="M 0 0 
L 0 3.5 
" id="mdaa06a8714" style="stroke:#000000;stroke-width:0.8;"/>
      </defs>
      <g>
       <use style="stroke:#000000;stroke-width:0.8;" x="57.6" xlink:href="#mdaa06a8714" y="298.944"/>
      </g>
     </g>
     <g id="text_1">
      <!-- 0 -->
      <defs>
       <path d="M 31.78125 66.40625 
Q 24.171875 66.40625 20.328125 58.90625 
Q 16.5 51.421875 16.5 36.375 
Q 16.5 21.390625 20.328125 13.890625 
Q 24.171875 6.390625 31.78125 6.390625 
Q 39.453125 6.390625 43.28125 13.890625 
Q 47.125 21.390625 47.125 36.375 
Q 47.125 51.421875 43.28125 58.90625 
Q 39.453125 66.40625 31.78125 66.40625 
z
M 31.78125 74.21875 
Q 44.046875 74.21875 50.515625 64.515625 
Q 56.984375 54.828125 56.984375 36.375 
Q 56.984375 17.96875 50.515625 8.265625 
Q 44.046875 -1.421875 31.78125 -1.421875 
Q 19.53125 -1.421875 13.0625 8.265625 
Q 6.59375 17.96875 6.59375 36.375 
Q 6.59375 54.828125 13.0625 64.515625 
Q 19.53125 74.21875 31.78125 74.21875 
z
" id="DejaVuSans-48"/>
      </defs>
      <g transform="translate(51.2375 321.140875)scale(0.2 -0.2)">
       <use xlink:href="#DejaVuSans-48"/>
      </g>
     </g>
    </g>
    <g id="xtick_2">
     <g id="line2d_7">
      <path clip-path="url(#p0d38421736)" d="M 137.910857 298.944 
L 137.910857 27.648 
" style="fill:none;stroke:#b0b0b0;stroke-linecap:square;stroke-width:0.8;"/>
     </g>
     <g id="line2d_8">
      <g>
       <use style="stroke:#000000;stroke-width:0.8;" x="137.910857" xlink:href="#mdaa06a8714" y="298.944"/>
      </g>
     </g>
     <g id="text_2">
      <!-- 2 -->
      <defs>
       <path d="M 19.1875 8.296875 
L 53.609375 8.296875 
L 53.609375 0 
L 7.328125 0 
L 7.328125 8.296875 
Q 12.9375 14.109375 22.625 23.890625 
Q 32.328125 33.6875 34.8125 36.53125 
Q 39.546875 41.84375 41.421875 45.53125 
Q 43.3125 49.21875 43.3125 52.78125 
Q 43.3125 58.59375 39.234375 62.25 
Q 35.15625 65.921875 28.609375 65.921875 
Q 23.96875 65.921875 18.8125 64.3125 
Q 13.671875 62.703125 7.8125 59.421875 
L 7.8125 69.390625 
Q 13.765625 71.78125 18.9375 73 
Q 24.125 74.21875 28.421875 74.21875 
Q 39.75 74.21875 46.484375 68.546875 
Q 53.21875 62.890625 53.21875 53.421875 
Q 53.21875 48.921875 51.53125 44.890625 
Q 49.859375 40.875 45.40625 35.40625 
Q 44.1875 33.984375 37.640625 27.21875 
Q 31.109375 20.453125 19.1875 8.296875 
z
" id="DejaVuSans-50"/>
      </defs>
      <g transform="translate(131.548357 321.140875)scale(0.2 -0.2)">
       <use xlink:href="#DejaVuSans-50"/>
      </g>
     </g>
    </g>
    <g id="xtick_3">
     <g id="line2d_9">
      <path clip-path="url(#p0d38421736)" d="M 218.221714 298.944 
L 218.221714 27.648 
" style="fill:none;stroke:#b0b0b0;stroke-linecap:square;stroke-width:0.8;"/>
     </g>
     <g id="line2d_10">
      <g>
       <use style="stroke:#000000;stroke-width:0.8;" x="218.221714" xlink:href="#mdaa06a8714" y="298.944"/>
      </g>
     </g>
     <g id="text_3">
      <!-- 4 -->
      <defs>
       <path d="M 37.796875 64.3125 
L 12.890625 25.390625 
L 37.796875 25.390625 
z
M 35.203125 72.90625 
L 47.609375 72.90625 
L 47.609375 25.390625 
L 58.015625 25.390625 
L 58.015625 17.1875 
L 47.609375 17.1875 
L 47.609375 0 
L 37.796875 0 
L 37.796875 17.1875 
L 4.890625 17.1875 
L 4.890625 26.703125 
z
" id="DejaVuSans-52"/>
      </defs>
      <g transform="translate(211.859214 321.140875)scale(0.2 -0.2)">
       <use xlink:href="#DejaVuSans-52"/>
      </g>
     </g>
    </g>
    <g id="xtick_4">
     <g id="line2d_11">
      <path clip-path="url(#p0d38421736)" d="M 298.532571 298.944 
L 298.532571 27.648 
" style="fill:none;stroke:#b0b0b0;stroke-linecap:square;stroke-width:0.8;"/>
     </g>
     <g id="line2d_12">
      <g>
       <use style="stroke:#000000;stroke-width:0.8;" x="298.532571" xlink:href="#mdaa06a8714" y="298.944"/>
      </g>
     </g>
     <g id="text_4">
      <!-- 6 -->
      <defs>
       <path d="M 33.015625 40.375 
Q 26.375 40.375 22.484375 35.828125 
Q 18.609375 31.296875 18.609375 23.390625 
Q 18.609375 15.53125 22.484375 10.953125 
Q 26.375 6.390625 33.015625 6.390625 
Q 39.65625 6.390625 43.53125 10.953125 
Q 47.40625 15.53125 47.40625 23.390625 
Q 47.40625 31.296875 43.53125 35.828125 
Q 39.65625 40.375 33.015625 40.375 
z
M 52.59375 71.296875 
L 52.59375 62.3125 
Q 48.875 64.0625 45.09375 64.984375 
Q 41.3125 65.921875 37.59375 65.921875 
Q 27.828125 65.921875 22.671875 59.328125 
Q 17.53125 52.734375 16.796875 39.40625 
Q 19.671875 43.65625 24.015625 45.921875 
Q 28.375 48.1875 33.59375 48.1875 
Q 44.578125 48.1875 50.953125 41.515625 
Q 57.328125 34.859375 57.328125 23.390625 
Q 57.328125 12.15625 50.6875 5.359375 
Q 44.046875 -1.421875 33.015625 -1.421875 
Q 20.359375 -1.421875 13.671875 8.265625 
Q 6.984375 17.96875 6.984375 36.375 
Q 6.984375 53.65625 15.1875 63.9375 
Q 23.390625 74.21875 37.203125 74.21875 
Q 40.921875 74.21875 44.703125 73.484375 
Q 48.484375 72.75 52.59375 71.296875 
z
" id="DejaVuSans-54"/>
      </defs>
      <g transform="translate(292.170071 321.140875)scale(0.2 -0.2)">
       <use xlink:href="#DejaVuSans-54"/>
      </g>
     </g>
    </g>
    <g id="xtick_5">
     <g id="line2d_13">
      <path clip-path="url(#p0d38421736)" d="M 97.755429 298.944 
L 97.755429 27.648 
" style="fill:none;stroke:#b0b0b0;stroke-linecap:square;stroke-width:0.8;"/>
     </g>
     <g id="line2d_14">
      <defs>
       <path d="M 0 0 
L 0 2 
" id="m47bc9c1d37" style="stroke:#000000;stroke-width:0.6;"/>
      </defs>
      <g>
       <use style="stroke:#000000;stroke-width:0.6;" x="97.755429" xlink:href="#m47bc9c1d37" y="298.944"/>
      </g>
     </g>
    </g>
    <g id="xtick_6">
     <g id="line2d_15">
      <path clip-path="url(#p0d38421736)" d="M 178.066286 298.944 
L 178.066286 27.648 
" style="fill:none;stroke:#b0b0b0;stroke-linecap:square;stroke-width:0.8;"/>
     </g>
     <g id="line2d_16">
      <g>
       <use style="stroke:#000000;stroke-width:0.6;" x="178.066286" xlink:href="#m47bc9c1d37" y="298.944"/>
      </g>
     </g>
    </g>
    <g id="xtick_7">
     <g id="line2d_17">
      <path clip-path="url(#p0d38421736)" d="M 258.377143 298.944 
L 258.377143 27.648 
" style="fill:none;stroke:#b0b0b0;stroke-linecap:square;stroke-width:0.8;"/>
     </g>
     <g id="line2d_18">
      <g>
       <use style="stroke:#000000;stroke-width:0.6;" x="258.377143" xlink:href="#m47bc9c1d37" y="298.944"/>
      </g>
     </g>
    </g>
    <g id="xtick_8">
     <g id="line2d_19">
      <path clip-path="url(#p0d38421736)" d="M 338.688 298.944 
L 338.688 27.648 
" style="fill:none;stroke:#b0b0b0;stroke-linecap:square;stroke-width:0.8;"/>
     </g>
     <g id="line2d_20">
      <g>
       <use style="stroke:#000000;stroke-width:0.6;" x="338.688" xlink:href="#m47bc9c1d37" y="298.944"/>
      </g>
     </g>
    </g>
    <g id="text_5">
     <!-- log10(# f-evals / dimension) -->
     <defs>
      <path d="M 9.421875 75.984375 
L 18.40625 75.984375 
L 18.40625 0 
L 9.421875 0 
z
" id="DejaVuSans-108"/>
      <path d="M 30.609375 48.390625 
Q 23.390625 48.390625 19.1875 42.75 
Q 14.984375 37.109375 14.984375 27.296875 
Q 14.984375 17.484375 19.15625 11.84375 
Q 23.34375 6.203125 30.609375 6.203125 
Q 37.796875 6.203125 41.984375 11.859375 
Q 46.1875 17.53125 46.1875 27.296875 
Q 46.1875 37.015625 41.984375 42.703125 
Q 37.796875 48.390625 30.609375 48.390625 
z
M 30.609375 56 
Q 42.328125 56 49.015625 48.375 
Q 55.71875 40.765625 55.71875 27.296875 
Q 55.71875 13.875 49.015625 6.21875 
Q 42.328125 -1.421875 30.609375 -1.421875 
Q 18.84375 -1.421875 12.171875 6.21875 
Q 5.515625 13.875 5.515625 27.296875 
Q 5.515625 40.765625 12.171875 48.375 
Q 18.84375 56 30.609375 56 
z
" id="DejaVuSans-111"/>
      <path d="M 45.40625 27.984375 
Q 45.40625 37.75 41.375 43.109375 
Q 37.359375 48.484375 30.078125 48.484375 
Q 22.859375 48.484375 18.828125 43.109375 
Q 14.796875 37.75 14.796875 27.984375 
Q 14.796875 18.265625 18.828125 12.890625 
Q 22.859375 7.515625 30.078125 7.515625 
Q 37.359375 7.515625 41.375 12.890625 
Q 45.40625 18.265625 45.40625 27.984375 
z
M 54.390625 6.78125 
Q 54.390625 -7.171875 48.1875 -13.984375 
Q 42 -20.796875 29.203125 -20.796875 
Q 24.46875 -20.796875 20.265625 -20.09375 
Q 16.0625 -19.390625 12.109375 -17.921875 
L 12.109375 -9.1875 
Q 16.0625 -11.328125 19.921875 -12.34375 
Q 23.78125 -13.375 27.78125 -13.375 
Q 36.625 -13.375 41.015625 -8.765625 
Q 45.40625 -4.15625 45.40625 5.171875 
L 45.40625 9.625 
Q 42.625 4.78125 38.28125 2.390625 
Q 33.9375 0 27.875 0 
Q 17.828125 0 11.671875 7.65625 
Q 5.515625 15.328125 5.515625 27.984375 
Q 5.515625 40.671875 11.671875 48.328125 
Q 17.828125 56 27.875 56 
Q 33.9375 56 38.28125 53.609375 
Q 42.625 51.21875 45.40625 46.390625 
L 45.40625 54.6875 
L 54.390625 54.6875 
z
" id="DejaVuSans-103"/>
      <path d="M 12.40625 8.296875 
L 28.515625 8.296875 
L 28.515625 63.921875 
L 10.984375 60.40625 
L 10.984375 69.390625 
L 28.421875 72.90625 
L 38.28125 72.90625 
L 38.28125 8.296875 
L 54.390625 8.296875 
L 54.390625 0 
L 12.40625 0 
z
" id="DejaVuSans-49"/>
      <path d="M 31 75.875 
Q 24.46875 64.65625 21.28125 53.65625 
Q 18.109375 42.671875 18.109375 31.390625 
Q 18.109375 20.125 21.3125 9.0625 
Q 24.515625 -2 31 -13.1875 
L 23.1875 -13.1875 
Q 15.875 -1.703125 12.234375 9.375 
Q 8.59375 20.453125 8.59375 31.390625 
Q 8.59375 42.28125 12.203125 53.3125 
Q 15.828125 64.359375 23.1875 75.875 
z
" id="DejaVuSans-40"/>
      <path d="M 51.125 44 
L 36.921875 44 
L 32.8125 27.6875 
L 47.125 27.6875 
z
M 43.796875 71.78125 
L 38.71875 51.515625 
L 52.984375 51.515625 
L 58.109375 71.78125 
L 65.921875 71.78125 
L 60.890625 51.515625 
L 76.125 51.515625 
L 76.125 44 
L 58.984375 44 
L 54.984375 27.6875 
L 70.515625 27.6875 
L 70.515625 20.21875 
L 53.078125 20.21875 
L 48 0 
L 40.1875 0 
L 45.21875 20.21875 
L 30.90625 20.21875 
L 25.875 0 
L 18.015625 0 
L 23.09375 20.21875 
L 7.71875 20.21875 
L 7.71875 27.6875 
L 24.90625 27.6875 
L 29 44 
L 13.28125 44 
L 13.28125 51.515625 
L 30.90625 51.515625 
L 35.890625 71.78125 
z
" id="DejaVuSans-35"/>
      <path id="DejaVuSans-32"/>
      <path d="M 37.109375 75.984375 
L 37.109375 68.5 
L 28.515625 68.5 
Q 23.6875 68.5 21.796875 66.546875 
Q 19.921875 64.59375 19.921875 59.515625 
L 19.921875 54.6875 
L 34.71875 54.6875 
L 34.71875 47.703125 
L 19.921875 47.703125 
L 19.921875 0 
L 10.890625 0 
L 10.890625 47.703125 
L 2.296875 47.703125 
L 2.296875 54.6875 
L 10.890625 54.6875 
L 10.890625 58.5 
Q 10.890625 67.625 15.140625 71.796875 
Q 19.390625 75.984375 28.609375 75.984375 
z
" id="DejaVuSans-102"/>
      <path d="M 4.890625 31.390625 
L 31.203125 31.390625 
L 31.203125 23.390625 
L 4.890625 23.390625 
z
" id="DejaVuSans-45"/>
      <path d="M 56.203125 29.59375 
L 56.203125 25.203125 
L 14.890625 25.203125 
Q 15.484375 15.921875 20.484375 11.0625 
Q 25.484375 6.203125 34.421875 6.203125 
Q 39.59375 6.203125 44.453125 7.46875 
Q 49.3125 8.734375 54.109375 11.28125 
L 54.109375 2.78125 
Q 49.265625 0.734375 44.1875 -0.34375 
Q 39.109375 -1.421875 33.890625 -1.421875 
Q 20.796875 -1.421875 13.15625 6.1875 
Q 5.515625 13.8125 5.515625 26.8125 
Q 5.515625 40.234375 12.765625 48.109375 
Q 20.015625 56 32.328125 56 
Q 43.359375 56 49.78125 48.890625 
Q 56.203125 41.796875 56.203125 29.59375 
z
M 47.21875 32.234375 
Q 47.125 39.59375 43.09375 43.984375 
Q 39.0625 48.390625 32.421875 48.390625 
Q 24.90625 48.390625 20.390625 44.140625 
Q 15.875 39.890625 15.1875 32.171875 
z
" id="DejaVuSans-101"/>
      <path d="M 2.984375 54.6875 
L 12.5 54.6875 
L 29.59375 8.796875 
L 46.6875 54.6875 
L 56.203125 54.6875 
L 35.6875 0 
L 23.484375 0 
z
" id="DejaVuSans-118"/>
      <path d="M 34.28125 27.484375 
Q 23.390625 27.484375 19.1875 25 
Q 14.984375 22.515625 14.984375 16.5 
Q 14.984375 11.71875 18.140625 8.90625 
Q 21.296875 6.109375 26.703125 6.109375 
Q 34.1875 6.109375 38.703125 11.40625 
Q 43.21875 16.703125 43.21875 25.484375 
L 43.21875 27.484375 
z
M 52.203125 31.203125 
L 52.203125 0 
L 43.21875 0 
L 43.21875 8.296875 
Q 40.140625 3.328125 35.546875 0.953125 
Q 30.953125 -1.421875 24.3125 -1.421875 
Q 15.921875 -1.421875 10.953125 3.296875 
Q 6 8.015625 6 15.921875 
Q 6 25.140625 12.171875 29.828125 
Q 18.359375 34.515625 30.609375 34.515625 
L 43.21875 34.515625 
L 43.21875 35.40625 
Q 43.21875 41.609375 39.140625 45 
Q 35.0625 48.390625 27.6875 48.390625 
Q 23 48.390625 18.546875 47.265625 
Q 14.109375 46.140625 10.015625 43.890625 
L 10.015625 52.203125 
Q 14.9375 54.109375 19.578125 55.046875 
Q 24.21875 56 28.609375 56 
Q 40.484375 56 46.34375 49.84375 
Q 52.203125 43.703125 52.203125 31.203125 
z
" id="DejaVuSans-97"/>
      <path d="M 44.28125 53.078125 
L 44.28125 44.578125 
Q 40.484375 46.53125 36.375 47.5 
Q 32.28125 48.484375 27.875 48.484375 
Q 21.1875 48.484375 17.84375 46.4375 
Q 14.5 44.390625 14.5 40.28125 
Q 14.5 37.15625 16.890625 35.375 
Q 19.28125 33.59375 26.515625 31.984375 
L 29.59375 31.296875 
Q 39.15625 29.25 43.1875 25.515625 
Q 47.21875 21.78125 47.21875 15.09375 
Q 47.21875 7.46875 41.1875 3.015625 
Q 35.15625 -1.421875 24.609375 -1.421875 
Q 20.21875 -1.421875 15.453125 -0.5625 
Q 10.6875 0.296875 5.421875 2 
L 5.421875 11.28125 
Q 10.40625 8.6875 15.234375 7.390625 
Q 20.0625 6.109375 24.8125 6.109375 
Q 31.15625 6.109375 34.5625 8.28125 
Q 37.984375 10.453125 37.984375 14.40625 
Q 37.984375 18.0625 35.515625 20.015625 
Q 33.0625 21.96875 24.703125 23.78125 
L 21.578125 24.515625 
Q 13.234375 26.265625 9.515625 29.90625 
Q 5.8125 33.546875 5.8125 39.890625 
Q 5.8125 47.609375 11.28125 51.796875 
Q 16.75 56 26.8125 56 
Q 31.78125 56 36.171875 55.265625 
Q 40.578125 54.546875 44.28125 53.078125 
z
" id="DejaVuSans-115"/>
      <path d="M 25.390625 72.90625 
L 33.6875 72.90625 
L 8.296875 -9.28125 
L 0 -9.28125 
z
" id="DejaVuSans-47"/>
      <path d="M 45.40625 46.390625 
L 45.40625 75.984375 
L 54.390625 75.984375 
L 54.390625 0 
L 45.40625 0 
L 45.40625 8.203125 
Q 42.578125 3.328125 38.25 0.953125 
Q 33.9375 -1.421875 27.875 -1.421875 
Q 17.96875 -1.421875 11.734375 6.484375 
Q 5.515625 14.40625 5.515625 27.296875 
Q 5.515625 40.1875 11.734375 48.09375 
Q 17.96875 56 27.875 56 
Q 33.9375 56 38.25 53.625 
Q 42.578125 51.265625 45.40625 46.390625 
z
M 14.796875 27.296875 
Q 14.796875 17.390625 18.875 11.75 
Q 22.953125 6.109375 30.078125 6.109375 
Q 37.203125 6.109375 41.296875 11.75 
Q 45.40625 17.390625 45.40625 27.296875 
Q 45.40625 37.203125 41.296875 42.84375 
Q 37.203125 48.484375 30.078125 48.484375 
Q 22.953125 48.484375 18.875 42.84375 
Q 14.796875 37.203125 14.796875 27.296875 
z
" id="DejaVuSans-100"/>
      <path d="M 9.421875 54.6875 
L 18.40625 54.6875 
L 18.40625 0 
L 9.421875 0 
z
M 9.421875 75.984375 
L 18.40625 75.984375 
L 18.40625 64.59375 
L 9.421875 64.59375 
z
" id="DejaVuSans-105"/>
      <path d="M 52 44.1875 
Q 55.375 50.25 60.0625 53.125 
Q 64.75 56 71.09375 56 
Q 79.640625 56 84.28125 50.015625 
Q 88.921875 44.046875 88.921875 33.015625 
L 88.921875 0 
L 79.890625 0 
L 79.890625 32.71875 
Q 79.890625 40.578125 77.09375 44.375 
Q 74.3125 48.1875 68.609375 48.1875 
Q 61.625 48.1875 57.5625 43.546875 
Q 53.515625 38.921875 53.515625 30.90625 
L 53.515625 0 
L 44.484375 0 
L 44.484375 32.71875 
Q 44.484375 40.625 41.703125 44.40625 
Q 38.921875 48.1875 33.109375 48.1875 
Q 26.21875 48.1875 22.15625 43.53125 
Q 18.109375 38.875 18.109375 30.90625 
L 18.109375 0 
L 9.078125 0 
L 9.078125 54.6875 
L 18.109375 54.6875 
L 18.109375 46.1875 
Q 21.1875 51.21875 25.484375 53.609375 
Q 29.78125 56 35.6875 56 
Q 41.65625 56 45.828125 52.96875 
Q 50 49.953125 52 44.1875 
z
" id="DejaVuSans-109"/>
      <path d="M 54.890625 33.015625 
L 54.890625 0 
L 45.90625 0 
L 45.90625 32.71875 
Q 45.90625 40.484375 42.875 44.328125 
Q 39.84375 48.1875 33.796875 48.1875 
Q 26.515625 48.1875 22.3125 43.546875 
Q 18.109375 38.921875 18.109375 30.90625 
L 18.109375 0 
L 9.078125 0 
L 9.078125 54.6875 
L 18.109375 54.6875 
L 18.109375 46.1875 
Q 21.34375 51.125 25.703125 53.5625 
Q 30.078125 56 35.796875 56 
Q 45.21875 56 50.046875 50.171875 
Q 54.890625 44.34375 54.890625 33.015625 
z
" id="DejaVuSans-110"/>
      <path d="M 8.015625 75.875 
L 15.828125 75.875 
Q 23.140625 64.359375 26.78125 53.3125 
Q 30.421875 42.28125 30.421875 31.390625 
Q 30.421875 20.453125 26.78125 9.375 
Q 23.140625 -1.703125 15.828125 -13.1875 
L 8.015625 -13.1875 
Q 14.5 -2 17.703125 9.0625 
Q 20.90625 20.125 20.90625 31.390625 
Q 20.90625 42.671875 17.703125 53.65625 
Q 14.5 64.65625 8.015625 75.875 
z
" id="DejaVuSans-41"/>
     </defs>
     <g transform="translate(77.764078 342.217594)scale(0.17 -0.17)">
      <use xlink:href="#DejaVuSans-108"/>
      <use x="27.783203" xlink:href="#DejaVuSans-111"/>
      <use x="88.964844" xlink:href="#DejaVuSans-103"/>
      <use x="152.441406" xlink:href="#DejaVuSans-49"/>
      <use x="216.064453" xlink:href="#DejaVuSans-48"/>
      <use x="279.6875" xlink:href="#DejaVuSans-40"/>
      <use x="318.701172" xlink:href="#DejaVuSans-35"/>
      <use x="402.490234" xlink:href="#DejaVuSans-32"/>
      <use x="434.277344" xlink:href="#DejaVuSans-102"/>
      <use x="463.982422" xlink:href="#DejaVuSans-45"/>
      <use x="500.066406" xlink:href="#DejaVuSans-101"/>
      <use x="561.589844" xlink:href="#DejaVuSans-118"/>
      <use x="620.769531" xlink:href="#DejaVuSans-97"/>
      <use x="682.048828" xlink:href="#DejaVuSans-108"/>
      <use x="709.832031" xlink:href="#DejaVuSans-115"/>
      <use x="761.931641" xlink:href="#DejaVuSans-32"/>
      <use x="793.71875" xlink:href="#DejaVuSans-47"/>
      <use x="827.410156" xlink:href="#DejaVuSans-32"/>
      <use x="859.197266" xlink:href="#DejaVuSans-100"/>
      <use x="922.673828" xlink:href="#DejaVuSans-105"/>
      <use x="950.457031" xlink:href="#DejaVuSans-109"/>
      <use x="1047.869141" xlink:href="#DejaVuSans-101"/>
      <use x="1109.392578" xlink:href="#DejaVuSans-110"/>
      <use x="1172.771484" xlink:href="#DejaVuSans-115"/>
      <use x="1224.871094" xlink:href="#DejaVuSans-105"/>
      <use x="1252.654297" xlink:href="#DejaVuSans-111"/>
      <use x="1313.835938" xlink:href="#DejaVuSans-110"/>
      <use x="1377.214844" xlink:href="#DejaVuSans-41"/>
     </g>
    </g>
   </g>
   <g id="matplotlib.axis_2">
    <g id="ytick_1">
     <g id="line2d_21">
      <path clip-path="url(#p0d38421736)" d="M 57.6 298.944 
L 338.688 298.944 
" style="fill:none;stroke:#b0b0b0;stroke-linecap:square;stroke-width:0.8;"/>
     </g>
     <g id="line2d_22">
      <defs>
       <path d="M 0 0 
L -3.5 0 
" id="mc33c5e7e9b" style="stroke:#000000;stroke-width:0.8;"/>
      </defs>
      <g>
       <use style="stroke:#000000;stroke-width:0.8;" x="57.6" xlink:href="#mc33c5e7e9b" y="298.944"/>
      </g>
     </g>
     <g id="text_6">
      <!-- 0.0 -->
      <defs>
       <path d="M 10.6875 12.40625 
L 21 12.40625 
L 21 0 
L 10.6875 0 
z
" id="DejaVuSans-46"/>
      </defs>
      <g transform="translate(25.155 305.02275)scale(0.16 -0.16)">
       <use xlink:href="#DejaVuSans-48"/>
       <use x="63.623047" xlink:href="#DejaVuSans-46"/>
       <use x="95.410156" xlink:href="#DejaVuSans-48"/>
      </g>
     </g>
    </g>
    <g id="ytick_2">
     <g id="line2d_23">
      <path clip-path="url(#p0d38421736)" d="M 57.6 245.22202 
L 338.688 245.22202 
" style="fill:none;stroke:#b0b0b0;stroke-linecap:square;stroke-width:0.8;"/>
     </g>
     <g id="line2d_24">
      <g>
       <use style="stroke:#000000;stroke-width:0.8;" x="57.6" xlink:href="#mc33c5e7e9b" y="245.22202"/>
      </g>
     </g>
     <g id="text_7">
      <!-- 0.2 -->
      <g transform="translate(25.155 251.30077)scale(0.16 -0.16)">
       <use xlink:href="#DejaVuSans-48"/>
       <use x="63.623047" xlink:href="#DejaVuSans-46"/>
       <use x="95.410156" xlink:href="#DejaVuSans-50"/>
      </g>
     </g>
    </g>
    <g id="ytick_3">
     <g id="line2d_25">
      <path clip-path="url(#p0d38421736)" d="M 57.6 191.50004 
L 338.688 191.50004 
" style="fill:none;stroke:#b0b0b0;stroke-linecap:square;stroke-width:0.8;"/>
     </g>
     <g id="line2d_26">
      <g>
       <use style="stroke:#000000;stroke-width:0.8;" x="57.6" xlink:href="#mc33c5e7e9b" y="191.50004"/>
      </g>
     </g>
     <g id="text_8">
      <!-- 0.4 -->
      <g transform="translate(25.155 197.57879)scale(0.16 -0.16)">
       <use xlink:href="#DejaVuSans-48"/>
       <use x="63.623047" xlink:href="#DejaVuSans-46"/>
       <use x="95.410156" xlink:href="#DejaVuSans-52"/>
      </g>
     </g>
    </g>
    <g id="ytick_4">
     <g id="line2d_27">
      <path clip-path="url(#p0d38421736)" d="M 57.6 137.778059 
L 338.688 137.778059 
" style="fill:none;stroke:#b0b0b0;stroke-linecap:square;stroke-width:0.8;"/>
     </g>
     <g id="line2d_28">
      <g>
       <use style="stroke:#000000;stroke-width:0.8;" x="57.6" xlink:href="#mc33c5e7e9b" y="137.778059"/>
      </g>
     </g>
     <g id="text_9">
      <!-- 0.6 -->
      <g transform="translate(25.155 143.856809)scale(0.16 -0.16)">
       <use xlink:href="#DejaVuSans-48"/>
       <use x="63.623047" xlink:href="#DejaVuSans-46"/>
       <use x="95.410156" xlink:href="#DejaVuSans-54"/>
      </g>
     </g>
    </g>
    <g id="ytick_5">
     <g id="line2d_29">
      <path clip-path="url(#p0d38421736)" d="M 57.6 84.056079 
L 338.688 84.056079 
" style="fill:none;stroke:#b0b0b0;stroke-linecap:square;stroke-width:0.8;"/>
     </g>
     <g id="line2d_30">
      <g>
       <use style="stroke:#000000;stroke-width:0.8;" x="57.6" xlink:href="#mc33c5e7e9b" y="84.056079"/>
      </g>
     </g>
     <g id="text_10">
      <!-- 0.8 -->
      <defs>
       <path d="M 31.78125 34.625 
Q 24.75 34.625 20.71875 30.859375 
Q 16.703125 27.09375 16.703125 20.515625 
Q 16.703125 13.921875 20.71875 10.15625 
Q 24.75 6.390625 31.78125 6.390625 
Q 38.8125 6.390625 42.859375 10.171875 
Q 46.921875 13.96875 46.921875 20.515625 
Q 46.921875 27.09375 42.890625 30.859375 
Q 38.875 34.625 31.78125 34.625 
z
M 21.921875 38.8125 
Q 15.578125 40.375 12.03125 44.71875 
Q 8.5 49.078125 8.5 55.328125 
Q 8.5 64.0625 14.71875 69.140625 
Q 20.953125 74.21875 31.78125 74.21875 
Q 42.671875 74.21875 48.875 69.140625 
Q 55.078125 64.0625 55.078125 55.328125 
Q 55.078125 49.078125 51.53125 44.71875 
Q 48 40.375 41.703125 38.8125 
Q 48.828125 37.15625 52.796875 32.3125 
Q 56.78125 27.484375 56.78125 20.515625 
Q 56.78125 9.90625 50.3125 4.234375 
Q 43.84375 -1.421875 31.78125 -1.421875 
Q 19.734375 -1.421875 13.25 4.234375 
Q 6.78125 9.90625 6.78125 20.515625 
Q 6.78125 27.484375 10.78125 32.3125 
Q 14.796875 37.15625 21.921875 38.8125 
z
M 18.3125 54.390625 
Q 18.3125 48.734375 21.84375 45.5625 
Q 25.390625 42.390625 31.78125 42.390625 
Q 38.140625 42.390625 41.71875 45.5625 
Q 45.3125 48.734375 45.3125 54.390625 
Q 45.3125 60.0625 41.71875 63.234375 
Q 38.140625 66.40625 31.78125 66.40625 
Q 25.390625 66.40625 21.84375 63.234375 
Q 18.3125 60.0625 18.3125 54.390625 
z
" id="DejaVuSans-56"/>
      </defs>
      <g transform="translate(25.155 90.134829)scale(0.16 -0.16)">
       <use xlink:href="#DejaVuSans-48"/>
       <use x="63.623047" xlink:href="#DejaVuSans-46"/>
       <use x="95.410156" xlink:href="#DejaVuSans-56"/>
      </g>
     </g>
    </g>
    <g id="ytick_6">
     <g id="line2d_31">
      <path clip-path="url(#p0d38421736)" d="M 57.6 30.334099 
L 338.688 30.334099 
" style="fill:none;stroke:#b0b0b0;stroke-linecap:square;stroke-width:0.8;"/>
     </g>
     <g id="line2d_32">
      <g>
       <use style="stroke:#000000;stroke-width:0.8;" x="57.6" xlink:href="#mc33c5e7e9b" y="30.334099"/>
      </g>
     </g>
     <g id="text_11">
      <!-- 1.0 -->
      <g transform="translate(25.155 36.412849)scale(0.16 -0.16)">
       <use xlink:href="#DejaVuSans-49"/>
       <use x="63.623047" xlink:href="#DejaVuSans-46"/>
       <use x="95.410156" xlink:href="#DejaVuSans-48"/>
      </g>
     </g>
    </g>
    <g id="text_12">
     <!-- Fraction of function,target pairs -->
     <defs>
      <path d="M 9.8125 72.90625 
L 51.703125 72.90625 
L 51.703125 64.59375 
L 19.671875 64.59375 
L 19.671875 43.109375 
L 48.578125 43.109375 
L 48.578125 34.8125 
L 19.671875 34.8125 
L 19.671875 0 
L 9.8125 0 
z
" id="DejaVuSans-70"/>
      <path d="M 41.109375 46.296875 
Q 39.59375 47.171875 37.8125 47.578125 
Q 36.03125 48 33.890625 48 
Q 26.265625 48 22.1875 43.046875 
Q 18.109375 38.09375 18.109375 28.8125 
L 18.109375 0 
L 9.078125 0 
L 9.078125 54.6875 
L 18.109375 54.6875 
L 18.109375 46.1875 
Q 20.953125 51.171875 25.484375 53.578125 
Q 30.03125 56 36.53125 56 
Q 37.453125 56 38.578125 55.875 
Q 39.703125 55.765625 41.0625 55.515625 
z
" id="DejaVuSans-114"/>
      <path d="M 48.78125 52.59375 
L 48.78125 44.1875 
Q 44.96875 46.296875 41.140625 47.34375 
Q 37.3125 48.390625 33.40625 48.390625 
Q 24.65625 48.390625 19.8125 42.84375 
Q 14.984375 37.3125 14.984375 27.296875 
Q 14.984375 17.28125 19.8125 11.734375 
Q 24.65625 6.203125 33.40625 6.203125 
Q 37.3125 6.203125 41.140625 7.25 
Q 44.96875 8.296875 48.78125 10.40625 
L 48.78125 2.09375 
Q 45.015625 0.34375 40.984375 -0.53125 
Q 36.96875 -1.421875 32.421875 -1.421875 
Q 20.0625 -1.421875 12.78125 6.34375 
Q 5.515625 14.109375 5.515625 27.296875 
Q 5.515625 40.671875 12.859375 48.328125 
Q 20.21875 56 33.015625 56 
Q 37.15625 56 41.109375 55.140625 
Q 45.0625 54.296875 48.78125 52.59375 
z
" id="DejaVuSans-99"/>
      <path d="M 18.3125 70.21875 
L 18.3125 54.6875 
L 36.8125 54.6875 
L 36.8125 47.703125 
L 18.3125 47.703125 
L 18.3125 18.015625 
Q 18.3125 11.328125 20.140625 9.421875 
Q 21.96875 7.515625 27.59375 7.515625 
L 36.8125 7.515625 
L 36.8125 0 
L 27.59375 0 
Q 17.1875 0 13.234375 3.875 
Q 9.28125 7.765625 9.28125 18.015625 
L 9.28125 47.703125 
L 2.6875 47.703125 
L 2.6875 54.6875 
L 9.28125 54.6875 
L 9.28125 70.21875 
z
" id="DejaVuSans-116"/>
      <path d="M 8.5 21.578125 
L 8.5 54.6875 
L 17.484375 54.6875 
L 17.484375 21.921875 
Q 17.484375 14.15625 20.5 10.265625 
Q 23.53125 6.390625 29.59375 6.390625 
Q 36.859375 6.390625 41.078125 11.03125 
Q 45.3125 15.671875 45.3125 23.6875 
L 45.3125 54.6875 
L 54.296875 54.6875 
L 54.296875 0 
L 45.3125 0 
L 45.3125 8.40625 
Q 42.046875 3.421875 37.71875 1 
Q 33.40625 -1.421875 27.6875 -1.421875 
Q 18.265625 -1.421875 13.375 4.4375 
Q 8.5 10.296875 8.5 21.578125 
z
M 31.109375 56 
z
" id="DejaVuSans-117"/>
      <path d="M 11.71875 12.40625 
L 22.015625 12.40625 
L 22.015625 4 
L 14.015625 -11.625 
L 7.71875 -11.625 
L 11.71875 4 
z
" id="DejaVuSans-44"/>
      <path d="M 18.109375 8.203125 
L 18.109375 -20.796875 
L 9.078125 -20.796875 
L 9.078125 54.6875 
L 18.109375 54.6875 
L 18.109375 46.390625 
Q 20.953125 51.265625 25.265625 53.625 
Q 29.59375 56 35.59375 56 
Q 45.5625 56 51.78125 48.09375 
Q 58.015625 40.1875 58.015625 27.296875 
Q 58.015625 14.40625 51.78125 6.484375 
Q 45.5625 -1.421875 35.59375 -1.421875 
Q 29.59375 -1.421875 25.265625 0.953125 
Q 20.953125 3.328125 18.109375 8.203125 
z
M 48.6875 27.296875 
Q 48.6875 37.203125 44.609375 42.84375 
Q 40.53125 48.484375 33.40625 48.484375 
Q 26.265625 48.484375 22.1875 42.84375 
Q 18.109375 37.203125 18.109375 27.296875 
Q 18.109375 17.390625 22.1875 11.75 
Q 26.265625 6.109375 33.40625 6.109375 
Q 40.53125 6.109375 44.609375 11.75 
Q 48.6875 17.390625 48.6875 27.296875 
z
" id="DejaVuSans-112"/>
     </defs>
     <g transform="translate(17.619531 297.681)rotate(-90)scale(0.17 -0.17)">
      <use xlink:href="#DejaVuSans-70"/>
      <use x="50.269531" xlink:href="#DejaVuSans-114"/>
      <use x="91.382812" xlink:href="#DejaVuSans-97"/>
      <use x="152.662109" xlink:href="#DejaVuSans-99"/>
      <use x="207.642578" xlink:href="#DejaVuSans-116"/>
      <use x="246.851562" xlink:href="#DejaVuSans-105"/>
      <use x="274.634766" xlink:href="#DejaVuSans-111"/>
      <use x="335.816406" xlink:href="#DejaVuSans-110"/>
      <use x="399.195312" xlink:href="#DejaVuSans-32"/>
      <use x="430.982422" xlink:href="#DejaVuSans-111"/>
      <use x="492.164062" xlink:href="#DejaVuSans-102"/>
      <use x="527.369141" xlink:href="#DejaVuSans-32"/>
      <use x="559.15625" xlink:href="#DejaVuSans-102"/>
      <use x="594.361328" xlink:href="#DejaVuSans-117"/>
      <use x="657.740234" xlink:href="#DejaVuSans-110"/>
      <use x="721.119141" xlink:href="#DejaVuSans-99"/>
      <use x="776.099609" xlink:href="#DejaVuSans-116"/>
      <use x="815.308594" xlink:href="#DejaVuSans-105"/>
      <use x="843.091797" xlink:href="#DejaVuSans-111"/>
      <use x="904.273438" xlink:href="#DejaVuSans-110"/>
      <use x="967.652344" xlink:href="#DejaVuSans-44"/>
      <use x="999.439453" xlink:href="#DejaVuSans-116"/>
      <use x="1038.648438" xlink:href="#DejaVuSans-97"/>
      <use x="1099.927734" xlink:href="#DejaVuSans-114"/>
      <use x="1139.291016" xlink:href="#DejaVuSans-103"/>
      <use x="1202.767578" xlink:href="#DejaVuSans-101"/>
      <use x="1264.291016" xlink:href="#DejaVuSans-116"/>
      <use x="1303.5" xlink:href="#DejaVuSans-32"/>
      <use x="1335.287109" xlink:href="#DejaVuSans-112"/>
      <use x="1398.763672" xlink:href="#DejaVuSans-97"/>
      <use x="1460.042969" xlink:href="#DejaVuSans-105"/>
      <use x="1487.826172" xlink:href="#DejaVuSans-114"/>
      <use x="1528.939453" xlink:href="#DejaVuSans-115"/>
     </g>
    </g>
   </g>
   <g id="line2d_33">
    <defs>
     <path d="M 0 1.5 
C 0.397805 1.5 0.77937 1.341951 1.06066 1.06066 
C 1.341951 0.77937 1.5 0.397805 1.5 0 
C 1.5 -0.397805 1.341951 -0.77937 1.06066 -1.06066 
C 0.77937 -1.341951 0.397805 -1.5 0 -1.5 
C -0.397805 -1.5 -0.77937 -1.341951 -1.06066 -1.06066 
C -1.341951 -0.77937 -1.5 -0.397805 -1.5 0 
C -1.5 0.397805 -1.341951 0.77937 -1.06066 1.06066 
C -0.77937 1.341951 -0.397805 1.5 0 1.5 
z
" id="mf9977e4f86" style="stroke:#f5deb3;"/>
    </defs>
    <g>
     <use style="fill:#f5deb3;stroke:#f5deb3;" x="186.833763" xlink:href="#mf9977e4f86" y="30.334099"/>
     <use style="fill:#f5deb3;stroke:#f5deb3;" x="186.833763" xlink:href="#mf9977e4f86" y="30.334099"/>
    </g>
   </g>
   <g id="line2d_34">
    <defs>
     <path d="M 0 1.5 
C 0.397805 1.5 0.77937 1.341951 1.06066 1.06066 
C 1.341951 0.77937 1.5 0.397805 1.5 0 
C 1.5 -0.397805 1.341951 -0.77937 1.06066 -1.06066 
C 0.77937 -1.341951 0.397805 -1.5 0 -1.5 
C -0.397805 -1.5 -0.77937 -1.341951 -1.06066 -1.06066 
C -1.341951 -0.77937 -1.5 -0.397805 -1.5 0 
C -1.5 0.397805 -1.341951 0.77937 -1.06066 1.06066 
C -0.77937 1.341951 -0.397805 1.5 0 1.5 
z
" id="m3af96ea299" style="stroke:#000080;"/>
    </defs>
    <g>
     <use style="fill:#000080;stroke:#000080;" x="159.284649" xlink:href="#m3af96ea299" y="288.410278"/>
     <use style="fill:#000080;stroke:#000080;" x="159.284649" xlink:href="#m3af96ea299" y="288.410278"/>
    </g>
   </g>
   <g id="line2d_35">
    <path d="M 5.356583 298.944 
L 5.356583 298.417314 
L 21.336035 298.417314 
L 21.336035 297.890628 
L 39.291857 297.890628 
L 39.291857 297.363942 
L 68.091122 297.363942 
L 68.091122 296.837256 
L 69.687988 296.837256 
L 69.687988 296.31057 
L 71.74204 296.31057 
L 71.74204 295.783884 
L 78.552767 295.783884 
L 78.552767 295.257197 
L 78.81306 295.257197 
L 78.81306 294.730511 
L 80.995815 294.730511 
L 80.995815 294.203825 
L 84.213325 294.203825 
L 84.213325 293.677139 
L 89.558903 293.677139 
L 89.558903 293.150453 
L 101.576995 293.150453 
L 101.576995 292.623767 
L 101.785851 292.623767 
L 101.785851 292.097081 
L 110.145965 292.097081 
L 110.145965 291.570395 
L 117.598418 291.570395 
L 117.598418 291.043709 
L 119.414856 291.043709 
L 119.414856 290.517023 
L 136.194133 290.517023 
L 136.194133 289.990337 
L 140.268409 289.990337 
L 140.268409 289.463651 
L 145.688202 289.463651 
L 145.688202 288.936964 
L 159.284649 288.936964 
L 159.284649 288.410278 
L 338.688 288.410278 
" style="fill:none;stroke:#000080;stroke-linecap:square;stroke-width:1.5;"/>
   </g>
   <g id="line2d_36">
    <defs>
     <path d="M 0 6 
C 1.591219 6 3.117479 5.367802 4.242641 4.242641 
C 5.367802 3.117479 6 1.591219 6 0 
C 6 -1.591219 5.367802 -3.117479 4.242641 -4.242641 
C 3.117479 -5.367802 1.591219 -6 0 -6 
C -1.591219 -6 -3.117479 -5.367802 -4.242641 -4.242641 
C -5.367802 -3.117479 -6 -1.591219 -6 0 
C -6 1.591219 -5.367802 3.117479 -4.242641 4.242641 
C -3.117479 5.367802 -1.591219 6 0 6 
z
" id="m1421a2a0c7" style="stroke:#000080;stroke-width:1.5;"/>
    </defs>
    <g>
     <use style="fill-opacity:0;stroke:#000080;stroke-width:1.5;" x="110.145965" xlink:href="#m1421a2a0c7" y="291.570395"/>
     <use style="fill-opacity:0;stroke:#000080;stroke-width:1.5;" x="159.284649" xlink:href="#m1421a2a0c7" y="288.936964"/>
     <use style="fill-opacity:0;stroke:#000080;stroke-width:1.5;" x="159.284649" xlink:href="#m1421a2a0c7" y="288.410278"/>
     <use style="fill-opacity:0;stroke:#000080;stroke-width:1.5;" x="159.284649" xlink:href="#m1421a2a0c7" y="288.410278"/>
     <use style="fill-opacity:0;stroke:#000080;stroke-width:1.5;" x="338.688" xlink:href="#m1421a2a0c7" y="288.410278"/>
    </g>
   </g>
   <g id="line2d_37">
    <path style="fill:none;stroke:#000080;stroke-linecap:square;stroke-width:1.5;"/>
    <g/>
   </g>
   <g id="line2d_38">
    <path clip-path="url(#p0d38421736)" d="M 141.80232 289.463651 
" style="fill:none;stroke:#000080;stroke-linecap:square;stroke-width:1.5;"/>
    <defs>
     <path d="M -12 12 
L 12 -12 
M -12 -12 
L 12 12 
" id="mc835dc375e" style="stroke:#000080;"/>
    </defs>
    <g clip-path="url(#p0d38421736)">
     <use style="fill:#000080;stroke:#000080;" x="141.80232" xlink:href="#mc835dc375e" y="289.463651"/>
    </g>
   </g>
   <g id="line2d_39">
    <defs>
     <path d="M 0 1.5 
C 0.397805 1.5 0.77937 1.341951 1.06066 1.06066 
C 1.341951 0.77937 1.5 0.397805 1.5 0 
C 1.5 -0.397805 1.341951 -0.77937 1.06066 -1.06066 
C 0.77937 -1.341951 0.397805 -1.5 0 -1.5 
C -0.397805 -1.5 -0.77937 -1.341951 -1.06066 -1.06066 
C -1.341951 -0.77937 -1.5 -0.397805 -1.5 0 
C -1.5 0.397805 -1.341951 0.77937 -1.06066 1.06066 
C -0.77937 1.341951 -0.397805 1.5 0 1.5 
z
" id="mb896d87b62" style="stroke:#ff00ff;"/>
    </defs>
    <g>
     <use style="fill:#ff00ff;stroke:#ff00ff;" x="141.725418" xlink:href="#mb896d87b62" y="183.073062"/>
     <use style="fill:#ff00ff;stroke:#ff00ff;" x="141.725418" xlink:href="#mb896d87b62" y="183.073062"/>
    </g>
   </g>
   <g id="line2d_40">
    <path d="M -1 293.677139 
L 17.444571 293.677139 
L 17.444571 293.150453 
L 27.203868 293.150453 
L 27.203868 292.623767 
L 43.6746 292.623767 
L 43.6746 292.097081 
L 47.174153 292.097081 
L 47.174153 291.570395 
L 55.762588 291.570395 
L 55.762588 290.517023 
L 56.240407 290.517023 
L 56.240407 289.990337 
L 57.158476 289.990337 
L 57.158476 289.463651 
L 65.796525 289.463651 
L 65.796525 288.936964 
L 68.328395 288.936964 
L 68.328395 288.410278 
L 70.11861 288.410278 
L 70.11861 287.883592 
L 72.125336 287.883592 
L 72.125336 287.356906 
L 73.924795 287.356906 
L 73.924795 286.83022 
L 74.921597 286.83022 
L 74.921597 286.303534 
L 77.884514 286.303534 
L 77.884514 285.776848 
L 79.069525 285.776848 
L 79.069525 285.250162 
L 80.995815 285.250162 
L 80.995815 284.19679 
L 82.626842 284.19679 
L 82.626842 283.670104 
L 83.732873 283.670104 
L 83.732873 283.143418 
L 84.495368 283.143418 
L 84.495368 282.616732 
L 85.225916 282.616732 
L 85.225916 282.090045 
L 85.403869 282.090045 
L 85.492169 281.036673 
L 86.847358 281.036673 
L 86.92866 279.456615 
L 88.405473 279.456615 
L 88.405473 278.929929 
L 88.91951 278.929929 
L 88.91951 278.403243 
L 89.558903 278.403243 
L 89.558903 277.876557 
L 90.442955 277.876557 
L 90.442955 277.349871 
L 91.09375 277.349871 
L 91.09375 276.823185 
L 92.445356 276.823185 
L 92.445356 276.296499 
L 92.796494 276.296499 
L 92.796494 275.769812 
L 92.911987 275.769812 
L 92.911987 274.71644 
L 93.533875 274.71644 
L 93.533875 274.189754 
L 93.972622 274.189754 
L 93.972622 273.663068 
L 96.253859 273.663068 
L 96.253859 273.136382 
L 96.814957 273.136382 
L 96.814957 272.609696 
L 96.952455 272.609696 
L 96.952455 272.08301 
L 97.224242 272.08301 
L 97.224242 271.556324 
L 97.842408 271.556324 
L 97.842408 271.029638 
L 98.355365 271.029638 
L 98.397438 269.976266 
L 99.770683 269.976266 
L 99.770683 269.449579 
L 100.567829 269.449579 
L 100.567829 268.922893 
L 100.86217 268.922893 
L 100.86217 267.869521 
L 101.611978 267.869521 
L 101.611978 267.342835 
L 101.854917 267.342835 
L 101.854917 266.816149 
L 103.149769 266.816149 
L 103.149769 266.289463 
L 103.372333 266.289463 
L 103.372333 265.762777 
L 103.592093 265.762777 
L 103.592093 265.236091 
L 104.053884 265.236091 
L 104.053884 264.709405 
L 104.325201 264.709405 
L 104.325201 264.182719 
L 106.168594 264.182719 
L 106.249145 262.60266 
L 107.339455 262.60266 
L 107.364602 261.549288 
L 108.530893 261.549288 
L 108.530893 261.022602 
L 109.1995 261.022602 
L 109.289743 259.96923 
L 109.756002 259.96923 
L 109.756002 259.442544 
L 109.908692 259.442544 
L 109.973724 258.389172 
L 110.880138 258.389172 
L 110.880138 257.862486 
L 111.145147 257.862486 
L 111.165366 256.809114 
L 111.780817 256.809114 
L 111.819788 255.755741 
L 112.109323 255.755741 
L 112.166658 254.702369 
L 113.293356 254.702369 
L 113.293356 253.648997 
L 113.629929 253.648997 
L 113.664983 252.595625 
L 113.839203 252.595625 
L 113.85653 251.542253 
L 114.301085 251.542253 
L 114.351658 250.488881 
L 114.485807 250.488881 
L 114.485807 249.962195 
L 114.602346 249.962195 
L 114.602346 249.435508 
L 114.898492 249.435508 
L 114.898492 248.908822 
L 115.365285 248.908822 
L 115.365285 248.382136 
L 115.617575 248.382136 
L 115.617575 247.85545 
L 116.217662 247.85545 
L 116.217662 247.328764 
L 116.606548 247.328764 
L 116.709783 245.22202 
L 116.783149 245.22202 
L 116.783149 244.695334 
L 117.131077 244.695334 
L 117.131077 244.168648 
L 117.612386 244.168648 
L 117.612386 243.115275 
L 117.820578 243.115275 
L 117.889426 242.061903 
L 117.971687 242.061903 
L 118.080768 241.008531 
L 118.655668 241.008531 
L 118.655668 240.481845 
L 118.773634 240.481845 
L 118.864837 238.901787 
L 119.071527 238.901787 
L 119.071527 237.848415 
L 119.477701 237.848415 
L 119.527814 236.795043 
L 119.923616 236.795043 
L 120.009013 235.74167 
L 120.154442 235.74167 
L 120.154442 235.214984 
L 120.382253 235.214984 
L 120.394161 234.161612 
L 120.689249 234.161612 
L 120.689249 233.634926 
L 120.817522 233.634926 
L 120.817522 233.10824 
L 121.185405 233.10824 
L 121.208142 232.054868 
L 121.366476 232.054868 
L 121.366476 231.528182 
L 122.029227 231.528182 
L 122.029227 231.001496 
L 122.31944 231.001496 
L 122.31944 229.421437 
L 122.44689 229.421437 
L 122.44689 228.894751 
L 122.719876 228.894751 
L 122.719876 228.368065 
L 122.854784 228.368065 
L 122.854784 227.841379 
L 123.101134 227.841379 
L 123.121507 225.734635 
L 123.721886 225.734635 
L 123.721886 225.207949 
L 123.849288 225.207949 
L 123.849288 224.681263 
L 123.985457 224.681263 
L 123.985457 224.154577 
L 124.178158 224.154577 
L 124.254646 223.101204 
L 124.321299 223.101204 
L 124.321299 222.574518 
L 124.68806 222.574518 
L 124.68806 222.047832 
L 124.808619 222.047832 
L 124.909984 220.467774 
L 125.165375 220.467774 
L 125.165375 219.941088 
L 125.309651 219.941088 
L 125.309651 219.414402 
L 125.559298 219.414402 
L 125.576994 218.36103 
L 125.79669 218.36103 
L 125.79669 217.834344 
L 125.927192 217.834344 
L 125.961828 216.780971 
L 126.133984 216.780971 
L 126.133984 216.254285 
L 126.329885 216.254285 
L 126.329885 215.727599 
L 126.557083 215.727599 
L 126.557083 215.200913 
L 126.72349 215.200913 
L 126.822577 214.147541 
L 127.148859 214.147541 
L 127.197279 213.094169 
L 127.500856 213.094169 
L 127.508774 212.040797 
L 128.214663 212.040797 
L 128.260216 210.987425 
L 128.396166 210.987425 
L 128.396166 210.460738 
L 128.753602 210.460738 
L 128.753602 209.934052 
L 128.944197 209.934052 
L 128.944197 209.407366 
L 129.183145 209.407366 
L 129.183145 208.88068 
L 129.922357 208.88068 
L 130.018593 207.827308 
L 130.045992 207.827308 
L 130.045992 207.300622 
L 130.175551 207.300622 
L 130.175551 206.773936 
L 130.317637 206.773936 
L 130.398313 205.720564 
L 130.978796 205.720564 
L 130.978796 205.193878 
L 131.230004 205.193878 
L 131.230004 204.667192 
L 131.540579 204.667192 
L 131.622056 203.613819 
L 131.684473 203.613819 
L 131.765283 202.560447 
L 132.103085 202.560447 
L 132.103085 202.033761 
L 132.296655 202.033761 
L 132.296655 201.507075 
L 132.858975 201.507075 
L 132.864799 200.453703 
L 132.980868 200.453703 
L 132.998212 199.400331 
L 133.318838 199.400331 
L 133.318838 198.873645 
L 133.516276 198.873645 
L 133.516276 198.346959 
L 133.893597 198.346959 
L 133.893597 197.820273 
L 134.068373 197.820273 
L 134.068373 197.293586 
L 134.219879 197.293586 
L 134.219879 196.7669 
L 134.418085 196.7669 
L 134.418085 196.240214 
L 134.592983 196.240214 
L 134.666655 195.186842 
L 134.771365 195.186842 
L 134.771365 194.660156 
L 135.331236 194.660156 
L 135.331236 194.13347 
L 135.497254 194.13347 
L 135.497254 193.606784 
L 136.513517 193.606784 
L 136.513517 193.080098 
L 136.706114 193.080098 
L 136.706114 192.553412 
L 136.924311 192.553412 
L 136.924311 192.026726 
L 137.429042 192.026726 
L 137.491677 190.973354 
L 137.945701 190.973354 
L 137.945701 190.446667 
L 138.290362 190.446667 
L 138.290362 189.919981 
L 138.455946 189.919981 
L 138.455946 189.393295 
L 138.89409 189.393295 
L 138.89409 188.866609 
L 139.325515 188.866609 
L 139.325515 188.339923 
L 139.592804 188.339923 
L 139.663921 187.286551 
L 139.8092 187.286551 
L 139.8092 186.759865 
L 140.378508 186.759865 
L 140.378508 186.233179 
L 140.577945 186.233179 
L 140.577945 185.706493 
L 141.357218 185.706493 
L 141.460673 184.126434 
L 141.648175 184.126434 
L 141.725418 183.073062 
L 338.688 183.073062 
L 338.688 183.073062 
" style="fill:none;stroke:#ff00ff;stroke-linecap:square;stroke-width:1.5;"/>
   </g>
   <g id="line2d_41">
    <defs>
     <path d="M -0 8.485281 
L 5.091169 0 
L 0 -8.485281 
L -5.091169 -0 
z
" id="m3ae81b9523" style="stroke:#ff00ff;stroke-linejoin:miter;stroke-width:1.5;"/>
    </defs>
    <g>
     <use style="fill-opacity:0;stroke:#ff00ff;stroke-linejoin:miter;stroke-width:1.5;" x="113.85653" xlink:href="#m3ae81b9523" y="252.068939"/>
     <use style="fill-opacity:0;stroke:#ff00ff;stroke-linejoin:miter;stroke-width:1.5;" x="141.725418" xlink:href="#m3ae81b9523" y="183.599748"/>
     <use style="fill-opacity:0;stroke:#ff00ff;stroke-linejoin:miter;stroke-width:1.5;" x="141.725418" xlink:href="#m3ae81b9523" y="183.073062"/>
     <use style="fill-opacity:0;stroke:#ff00ff;stroke-linejoin:miter;stroke-width:1.5;" x="141.725418" xlink:href="#m3ae81b9523" y="183.073062"/>
     <use style="fill-opacity:0;stroke:#ff00ff;stroke-linejoin:miter;stroke-width:1.5;" x="338.688" xlink:href="#m3ae81b9523" y="183.073062"/>
    </g>
   </g>
   <g id="line2d_42">
    <path style="fill:none;stroke:#ff00ff;stroke-linecap:square;stroke-width:1.5;"/>
    <g/>
   </g>
   <g id="line2d_43">
    <path clip-path="url(#p0d38421736)" d="M 141.784872 183.073062 
" style="fill:none;stroke:#ff00ff;stroke-linecap:square;stroke-width:1.5;"/>
    <defs>
     <path d="M -12 12 
L 12 -12 
M -12 -12 
L 12 12 
" id="m840055b322" style="stroke:#ff00ff;"/>
    </defs>
    <g clip-path="url(#p0d38421736)">
     <use style="fill:#ff00ff;stroke:#ff00ff;" x="141.784872" xlink:href="#m840055b322" y="183.073062"/>
    </g>
   </g>
   <g id="line2d_44">
    <defs>
     <path d="M 0 1.5 
C 0.397805 1.5 0.77937 1.341951 1.06066 1.06066 
C 1.341951 0.77937 1.5 0.397805 1.5 0 
C 1.5 -0.397805 1.341951 -0.77937 1.06066 -1.06066 
C 0.77937 -1.341951 0.397805 -1.5 0 -1.5 
C -0.397805 -1.5 -0.77937 -1.341951 -1.06066 -1.06066 
C -1.341951 -0.77937 -1.5 -0.397805 -1.5 0 
C -1.5 0.397805 -1.341951 0.77937 -1.06066 1.06066 
C -0.77937 1.341951 -0.397805 1.5 0 1.5 
z
" id="m2ef7d0ccc5" style="stroke:#ff7500;"/>
    </defs>
    <g>
     <use style="fill:#ff7500;stroke:#ff7500;" x="194.860191" xlink:href="#m2ef7d0ccc5" y="241.008531"/>
     <use style="fill:#ff7500;stroke:#ff7500;" x="194.860191" xlink:href="#m2ef7d0ccc5" y="241.008531"/>
    </g>
   </g>
   <g id="line2d_45">
    <path d="M 12.427603 298.944 
L 12.427603 298.417314 
L 24.515591 298.417314 
L 24.515591 297.890628 
L 31.586611 297.890628 
L 31.586611 297.363942 
L 33.424023 297.363942 
L 33.424023 296.837256 
L 52.583031 296.837256 
L 52.583031 296.31057 
L 53.154862 296.31057 
L 53.154862 295.783884 
L 55.762588 295.783884 
L 55.762588 295.257197 
L 72.125336 295.257197 
L 72.125336 294.730511 
L 74.921597 294.730511 
L 74.921597 294.203825 
L 80.298151 294.203825 
L 80.298151 293.677139 
L 80.766348 293.677139 
L 80.766348 293.150453 
L 86.098061 293.150453 
L 86.098061 292.623767 
L 86.435063 292.623767 
L 86.435063 292.097081 
L 88.104788 292.097081 
L 88.104788 291.570395 
L 93.699701 291.570395 
L 93.699701 291.043709 
L 93.918378 291.043709 
L 93.918378 290.517023 
L 95.526106 290.517023 
L 95.526106 289.990337 
L 97.624141 289.990337 
L 97.624141 289.463651 
L 99.53607 289.463651 
L 99.53607 288.936964 
L 100.641881 288.936964 
L 100.641881 288.410278 
L 103.340712 288.410278 
L 103.340712 287.883592 
L 104.265272 287.883592 
L 104.265272 287.356906 
L 105.621863 287.356906 
L 105.621863 286.83022 
L 107.539621 286.83022 
L 107.539621 286.303534 
L 107.884477 286.303534 
L 107.884477 285.776848 
L 108.41298 285.776848 
L 108.41298 285.250162 
L 109.040444 285.250162 
L 109.040444 284.723476 
L 109.24468 284.723476 
L 109.24468 284.19679 
L 110.337724 284.19679 
L 110.337724 283.670104 
L 110.715031 283.670104 
L 110.715031 283.143418 
L 112.128456 283.143418 
L 112.128456 282.616732 
L 116.308178 282.616732 
L 116.308178 282.090045 
L 116.428139 282.090045 
L 116.428139 281.563359 
L 117.779138 281.563359 
L 117.779138 281.036673 
L 118.760566 281.036673 
L 118.760566 280.509987 
L 119.515299 280.509987 
L 119.515299 279.983301 
L 119.714465 279.983301 
L 119.714465 279.456615 
L 120.262724 279.456615 
L 120.310634 278.403243 
L 121.478699 278.403243 
L 121.478699 277.876557 
L 122.594413 277.876557 
L 122.594413 277.349871 
L 125.029024 277.349871 
L 125.056379 276.296499 
L 125.752972 276.296499 
L 125.787955 275.243126 
L 126.490073 275.243126 
L 126.490073 274.71644 
L 127.084089 274.71644 
L 127.084089 274.189754 
L 128.107907 274.189754 
L 128.130839 273.136382 
L 128.70193 273.136382 
L 128.70193 272.609696 
L 129.721306 272.609696 
L 129.721306 272.08301 
L 130.032298 272.08301 
L 130.059675 271.029638 
L 130.677773 271.029638 
L 130.677773 270.502952 
L 131.728032 270.502952 
L 131.728032 269.976266 
L 131.944212 269.976266 
L 132.017718 268.922893 
L 132.314693 268.922893 
L 132.314693 268.396207 
L 132.464284 268.396207 
L 132.464284 267.869521 
L 132.648014 267.869521 
L 132.648014 267.342835 
L 132.934533 267.342835 
L 132.934533 266.816149 
L 133.124876 266.816149 
L 133.124876 266.289463 
L 133.471344 266.289463 
L 133.471344 265.762777 
L 133.805547 265.762777 
L 133.904572 264.709405 
L 133.981204 264.709405 
L 133.986665 263.656033 
L 135.507265 263.656033 
L 135.517271 262.60266 
L 135.686489 262.60266 
L 135.706289 261.549288 
L 136.428285 261.549288 
L 136.428285 261.022602 
L 137.075898 261.022602 
L 137.185321 259.96923 
L 137.651712 259.96923 
L 137.651712 259.442544 
L 137.871575 259.442544 
L 137.871575 258.915858 
L 138.200546 258.915858 
L 138.200546 258.389172 
L 138.569667 258.389172 
L 138.611599 257.3358 
L 138.699328 257.3358 
L 138.770025 256.282427 
L 139.509467 256.282427 
L 139.509467 255.755741 
L 141.083146 255.755741 
L 141.130333 254.175683 
L 152.367819 254.175683 
L 152.439984 253.122311 
L 152.61535 253.122311 
L 152.61535 252.595625 
L 153.504144 252.595625 
L 153.596614 250.488881 
L 159.104529 250.488881 
L 159.107116 249.435508 
L 159.746928 249.435508 
L 159.746928 248.908822 
L 159.961244 248.908822 
L 160.007969 247.328764 
L 160.121795 247.328764 
L 160.121795 246.802078 
L 160.704838 246.802078 
L 160.704838 245.748706 
L 165.812712 245.748706 
L 165.832068 244.168648 
L 169.737418 244.168648 
L 169.737418 243.641962 
L 172.359801 243.641962 
L 172.359801 243.115275 
L 183.550311 243.115275 
L 183.550311 242.588589 
L 186.343011 242.588589 
L 186.343011 242.061903 
L 187.783928 242.061903 
L 187.783928 241.535217 
L 194.860191 241.535217 
L 194.860191 241.008531 
L 338.688 241.008531 
L 338.688 241.008531 
" style="fill:none;stroke:#ff7500;stroke-linecap:square;stroke-width:1.5;"/>
   </g>
   <g id="line2d_46">
    <defs>
     <path d="M 0 -6 
L -1.347084 -1.854102 
L -5.706339 -1.854102 
L -2.179628 0.708204 
L -3.526712 4.854102 
L -0 2.291796 
L 3.526712 4.854102 
L 2.179628 0.708204 
L 5.706339 -1.854102 
L 1.347084 -1.854102 
z
" id="me1462d3f64" style="stroke:#ff7500;stroke-linejoin:bevel;stroke-width:1.5;"/>
    </defs>
    <g>
     <use style="fill-opacity:0;stroke:#ff7500;stroke-linejoin:bevel;stroke-width:1.5;" x="93.918378" xlink:href="#me1462d3f64" y="291.043709"/>
     <use style="fill-opacity:0;stroke:#ff7500;stroke-linejoin:bevel;stroke-width:1.5;" x="160.704838" xlink:href="#me1462d3f64" y="246.802078"/>
     <use style="fill-opacity:0;stroke:#ff7500;stroke-linejoin:bevel;stroke-width:1.5;" x="194.860191" xlink:href="#me1462d3f64" y="241.535217"/>
     <use style="fill-opacity:0;stroke:#ff7500;stroke-linejoin:bevel;stroke-width:1.5;" x="194.860191" xlink:href="#me1462d3f64" y="241.008531"/>
     <use style="fill-opacity:0;stroke:#ff7500;stroke-linejoin:bevel;stroke-width:1.5;" x="194.860191" xlink:href="#me1462d3f64" y="241.008531"/>
     <use style="fill-opacity:0;stroke:#ff7500;stroke-linejoin:bevel;stroke-width:1.5;" x="338.688" xlink:href="#me1462d3f64" y="241.008531"/>
    </g>
   </g>
   <g id="line2d_47">
    <path style="fill:none;stroke:#ff7500;stroke-linecap:square;stroke-width:1.5;"/>
    <g/>
   </g>
   <g id="line2d_48">
    <path clip-path="url(#p0d38421736)" d="M 141.80232 254.175683 
" style="fill:none;stroke:#ff7500;stroke-linecap:square;stroke-width:1.5;"/>
    <defs>
     <path d="M -12 12 
L 12 -12 
M -12 -12 
L 12 12 
" id="m447ead4653" style="stroke:#ff7500;"/>
    </defs>
    <g clip-path="url(#p0d38421736)">
     <use style="fill:#ff7500;stroke:#ff7500;" x="141.80232" xlink:href="#m447ead4653" y="254.175683"/>
    </g>
   </g>
   <g id="line2d_49">
    <defs>
     <path d="M 0 1.5 
C 0.397805 1.5 0.77937 1.341951 1.06066 1.06066 
C 1.341951 0.77937 1.5 0.397805 1.5 0 
C 1.5 -0.397805 1.341951 -0.77937 1.06066 -1.06066 
C 0.77937 -1.341951 0.397805 -1.5 0 -1.5 
C -0.397805 -1.5 -0.77937 -1.341951 -1.06066 -1.06066 
C -1.341951 -0.77937 -1.5 -0.397805 -1.5 0 
C -1.5 0.397805 -1.341951 0.77937 -1.06066 1.06066 
C -0.77937 1.341951 -0.397805 1.5 0 1.5 
z
" id="m4d7f44d5c5" style="stroke:#6495ed;"/>
    </defs>
    <g>
     <use style="fill:#6495ed;stroke:#6495ed;" x="188.942989" xlink:href="#m4d7f44d5c5" y="225.207949"/>
     <use style="fill:#6495ed;stroke:#6495ed;" x="188.942989" xlink:href="#m4d7f44d5c5" y="225.207949"/>
    </g>
   </g>
   <g id="line2d_50">
    <path d="M 12.427603 298.944 
L 12.427603 298.417314 
L 31.586611 298.417314 
L 31.586611 297.890628 
L 33.424023 297.890628 
L 33.424023 297.363942 
L 37.999467 297.363942 
L 37.999467 296.837256 
L 52.583031 296.837256 
L 52.583031 296.31057 
L 55.762588 296.31057 
L 55.762588 295.783884 
L 56.705482 295.783884 
L 56.705482 295.257197 
L 58.450865 295.257197 
L 58.450865 294.730511 
L 59.654051 294.730511 
L 59.654051 294.203825 
L 62.175444 294.203825 
L 62.175444 293.677139 
L 62.507631 293.677139 
L 62.507631 293.150453 
L 75.082329 293.150453 
L 75.082329 292.623767 
L 77.18963 292.623767 
L 77.18963 291.570395 
L 77.470915 291.570395 
L 77.470915 291.043709 
L 81.666639 291.043709 
L 81.666639 290.517023 
L 84.588378 290.517023 
L 84.588378 289.990337 
L 85.840967 289.990337 
L 85.840967 288.936964 
L 86.267376 288.936964 
L 86.267376 288.410278 
L 86.92866 288.410278 
L 86.92866 287.883592 
L 92.147241 287.883592 
L 92.147241 287.356906 
L 92.386139 287.356906 
L 92.386139 286.83022 
L 92.504372 286.83022 
L 92.504372 286.303534 
L 93.478247 286.303534 
L 93.478247 285.776848 
L 93.809382 285.776848 
L 93.809382 285.250162 
L 96.676366 285.250162 
L 96.676366 284.19679 
L 97.491858 284.19679 
L 97.491858 283.670104 
L 99.614626 283.670104 
L 99.653771 282.616732 
L 99.963811 282.616732 
L 99.963811 282.090045 
L 101.401017 282.090045 
L 101.401017 281.563359 
L 102.397818 281.563359 
L 102.464508 280.509987 
L 102.564066 280.509987 
L 102.564066 279.983301 
L 107.034831 279.983301 
L 107.034831 279.456615 
L 107.414787 279.456615 
L 107.414787 278.929929 
L 107.614095 278.929929 
L 107.614095 278.403243 
L 108.810674 278.403243 
L 108.810674 277.876557 
L 109.1995 277.876557 
L 109.1995 277.349871 
L 109.446552 277.349871 
L 109.446552 276.823185 
L 111.104637 276.823185 
L 111.104637 276.296499 
L 112.29971 276.296499 
L 112.375287 275.243126 
L 113.453595 275.243126 
L 113.453595 274.71644 
L 114.233425 274.71644 
L 114.301085 273.663068 
L 116.126675 273.663068 
L 116.126675 273.136382 
L 117.903163 273.136382 
L 117.903163 272.609696 
L 118.629344 272.609696 
L 118.655668 271.556324 
L 118.851837 271.556324 
L 118.851837 271.029638 
L 119.032959 271.029638 
L 119.032959 270.502952 
L 119.62761 270.502952 
L 119.664886 269.449579 
L 120.500969 269.449579 
L 120.500969 268.922893 
L 122.457469 268.922893 
L 122.457469 268.396207 
L 122.604903 268.396207 
L 122.604903 267.869521 
L 123.202762 267.869521 
L 123.202762 267.342835 
L 124.158984 267.342835 
L 124.158984 266.816149 
L 124.368753 266.816149 
L 124.444412 265.762777 
L 124.799375 265.762777 
L 124.799375 265.236091 
L 125.019895 265.236091 
L 125.065488 264.182719 
L 125.479443 264.182719 
L 125.479443 263.656033 
L 126.22795 263.656033 
L 126.22795 263.129347 
L 126.498463 263.129347 
L 126.498463 262.60266 
L 128.123198 262.60266 
L 128.123198 262.075974 
L 128.45625 262.075974 
L 128.45625 261.549288 
L 128.753602 261.549288 
L 128.753602 261.022602 
L 129.602362 261.022602 
L 129.644435 259.96923 
L 129.894764 259.96923 
L 129.894764 259.442544 
L 130.445202 259.442544 
L 130.458575 258.389172 
L 130.631506 258.389172 
L 130.631506 257.862486 
L 131.133813 257.862486 
L 131.133813 257.3358 
L 131.615802 257.3358 
L 131.615802 256.809114 
L 131.968748 256.809114 
L 131.968748 256.282427 
L 132.517825 256.282427 
L 132.517825 255.755741 
L 132.648014 255.755741 
L 132.648014 255.229055 
L 133.210713 255.229055 
L 133.210713 254.702369 
L 133.369822 254.702369 
L 133.403728 253.648997 
L 133.493825 253.648997 
L 133.493825 253.122311 
L 133.921021 253.122311 
L 133.921021 252.595625 
L 134.246796 252.595625 
L 134.305866 251.015567 
L 134.418085 251.015567 
L 134.418085 250.488881 
L 134.682402 250.488881 
L 134.724323 249.435508 
L 135.168726 249.435508 
L 135.168726 248.908822 
L 135.966545 248.908822 
L 135.966545 248.382136 
L 136.687417 248.382136 
L 136.76674 247.328764 
L 136.827156 247.328764 
L 136.827156 246.802078 
L 137.185321 246.802078 
L 137.185321 246.275392 
L 138.174799 246.275392 
L 138.239095 244.695334 
L 138.657607 244.695334 
L 138.657607 244.168648 
L 138.807337 244.168648 
L 138.807337 243.641962 
L 138.918797 243.641962 
L 138.918797 243.115275 
L 139.033637 243.115275 
L 139.033637 242.588589 
L 139.429726 242.588589 
L 139.429726 242.061903 
L 139.750449 242.061903 
L 139.754371 241.008531 
L 139.863856 241.008531 
L 139.863856 240.481845 
L 140.061525 240.481845 
L 140.061525 239.955159 
L 140.412536 239.955159 
L 140.469102 238.901787 
L 140.652616 238.901787 
L 140.656341 237.848415 
L 141.238742 237.848415 
L 141.238742 237.321729 
L 141.574123 237.321729 
L 141.62705 236.268356 
L 150.226247 236.268356 
L 150.226247 235.74167 
L 150.707961 235.74167 
L 150.707961 235.214984 
L 152.170698 235.214984 
L 152.172622 233.634926 
L 152.38874 233.634926 
L 152.457032 232.581554 
L 153.753749 232.581554 
L 153.753749 231.528182 
L 158.576742 231.528182 
L 158.576742 231.001496 
L 158.905533 231.001496 
L 158.905533 230.47481 
L 165.140594 230.47481 
L 165.140594 229.948123 
L 165.276379 229.948123 
L 165.276379 229.421437 
L 165.641096 229.421437 
L 165.641096 228.368065 
L 165.910151 228.368065 
L 165.921527 227.314693 
L 168.959815 227.314693 
L 168.959815 226.788007 
L 169.815265 226.788007 
L 169.815265 226.261321 
L 172.563019 226.261321 
L 172.563019 225.734635 
L 188.942989 225.734635 
L 188.942989 225.207949 
L 338.688 225.207949 
L 338.688 225.207949 
" style="fill:none;stroke:#6495ed;stroke-linecap:square;stroke-width:1.5;"/>
   </g>
   <g id="line2d_51">
    <defs>
     <path d="M -0 6 
L 6 -6 
L -6 -6 
z
" id="m8d08fd17da" style="stroke:#6495ed;stroke-linejoin:miter;stroke-width:1.5;"/>
    </defs>
    <g>
     <use style="fill-opacity:0;stroke:#6495ed;stroke-linejoin:miter;stroke-width:1.5;" x="116.126675" xlink:href="#m8d08fd17da" y="273.663068"/>
     <use style="fill-opacity:0;stroke:#6495ed;stroke-linejoin:miter;stroke-width:1.5;" x="153.753749" xlink:href="#m8d08fd17da" y="232.581554"/>
     <use style="fill-opacity:0;stroke:#6495ed;stroke-linejoin:miter;stroke-width:1.5;" x="188.942989" xlink:href="#m8d08fd17da" y="225.734635"/>
     <use style="fill-opacity:0;stroke:#6495ed;stroke-linejoin:miter;stroke-width:1.5;" x="188.942989" xlink:href="#m8d08fd17da" y="225.207949"/>
     <use style="fill-opacity:0;stroke:#6495ed;stroke-linejoin:miter;stroke-width:1.5;" x="188.942989" xlink:href="#m8d08fd17da" y="225.207949"/>
     <use style="fill-opacity:0;stroke:#6495ed;stroke-linejoin:miter;stroke-width:1.5;" x="338.688" xlink:href="#m8d08fd17da" y="225.207949"/>
    </g>
   </g>
   <g id="line2d_52">
    <path style="fill:none;stroke:#6495ed;stroke-linecap:square;stroke-width:1.5;"/>
    <g/>
   </g>
   <g id="line2d_53">
    <path clip-path="url(#p0d38421736)" d="M 141.80232 236.268356 
" style="fill:none;stroke:#6495ed;stroke-linecap:square;stroke-width:1.5;"/>
    <defs>
     <path d="M -12 12 
L 12 -12 
M -12 -12 
L 12 12 
" id="m7a6d7188a1" style="stroke:#6495ed;"/>
    </defs>
    <g clip-path="url(#p0d38421736)">
     <use style="fill:#6495ed;stroke:#6495ed;" x="141.80232" xlink:href="#m7a6d7188a1" y="236.268356"/>
    </g>
   </g>
   <g id="line2d_54">
    <defs>
     <path d="M 0 1.5 
C 0.397805 1.5 0.77937 1.341951 1.06066 1.06066 
C 1.341951 0.77937 1.5 0.397805 1.5 0 
C 1.5 -0.397805 1.341951 -0.77937 1.06066 -1.06066 
C 0.77937 -1.341951 0.397805 -1.5 0 -1.5 
C -0.397805 -1.5 -0.77937 -1.341951 -1.06066 -1.06066 
C -1.341951 -0.77937 -1.5 -0.397805 -1.5 0 
C -1.5 0.397805 -1.341951 0.77937 -1.06066 1.06066 
C -0.77937 1.341951 -0.397805 1.5 0 1.5 
z
" id="m80b3ce4c01" style="stroke:#ff0000;"/>
    </defs>
    <g>
     <use style="fill:#ff0000;stroke:#ff0000;" x="178.62658" xlink:href="#m80b3ce4c01" y="262.075974"/>
     <use style="fill:#ff0000;stroke:#ff0000;" x="178.62658" xlink:href="#m80b3ce4c01" y="262.075974"/>
    </g>
   </g>
   <g id="line2d_55">
    <path d="M 12.427603 298.944 
L 12.427603 298.417314 
L 24.515591 298.417314 
L 24.515591 297.890628 
L 31.586611 297.890628 
L 31.586611 297.363942 
L 52.583031 297.363942 
L 52.583031 296.837256 
L 53.154862 296.837256 
L 53.154862 296.31057 
L 60.037348 296.31057 
L 60.037348 295.783884 
L 62.175444 295.783884 
L 62.175444 295.257197 
L 62.507631 295.257197 
L 62.507631 294.730511 
L 62.833608 294.730511 
L 62.833608 294.203825 
L 63.467834 294.203825 
L 63.467834 293.677139 
L 64.079801 293.677139 
L 64.079801 293.150453 
L 70.11861 293.150453 
L 70.11861 292.623767 
L 71.934741 292.623767 
L 71.934741 292.097081 
L 72.867545 292.097081 
L 72.867545 291.570395 
L 73.227131 291.570395 
L 73.227131 291.043709 
L 75.082329 291.043709 
L 75.082329 290.517023 
L 75.86449 290.517023 
L 75.86449 289.990337 
L 76.903734 289.990337 
L 76.903734 289.463651 
L 77.047268 289.463651 
L 77.047268 288.936964 
L 77.330839 288.936964 
L 77.330839 288.410278 
L 78.81306 288.410278 
L 78.81306 287.883592 
L 79.817037 287.883592 
L 79.817037 287.356906 
L 80.53382 287.356906 
L 80.53382 286.83022 
L 81.775977 286.83022 
L 81.775977 286.303534 
L 83.23881 286.303534 
L 83.338749 285.250162 
L 84.02273 285.250162 
L 84.02273 284.723476 
L 86.098061 284.723476 
L 86.098061 284.19679 
L 87.408671 284.19679 
L 87.408671 283.670104 
L 90.901048 283.670104 
L 90.901048 283.143418 
L 92.267099 283.143418 
L 92.267099 282.616732 
L 92.796494 282.616732 
L 92.796494 282.090045 
L 94.818328 282.090045 
L 94.818328 281.563359 
L 95.125186 281.563359 
L 95.125186 281.036673 
L 96.676366 281.036673 
L 96.676366 280.509987 
L 99.457159 280.509987 
L 99.457159 279.983301 
L 99.925356 279.983301 
L 99.925356 279.456615 
L 101.889348 279.456615 
L 101.889348 278.929929 
L 103.809118 278.929929 
L 103.809118 278.403243 
L 103.93193 278.403243 
L 103.93193 277.876557 
L 104.23523 277.876557 
L 104.23523 277.349871 
L 104.85549 277.349871 
L 104.85549 276.823185 
L 106.382575 276.823185 
L 106.382575 276.296499 
L 106.750839 276.296499 
L 106.750839 275.769812 
L 108.879923 275.769812 
L 108.879923 275.243126 
L 111.702614 275.243126 
L 111.702614 274.71644 
L 112.431755 274.71644 
L 112.488041 273.663068 
L 114.435622 273.663068 
L 114.502503 272.609696 
L 115.835374 272.609696 
L 115.835374 272.08301 
L 116.338246 272.08301 
L 116.338246 271.556324 
L 117.245527 271.556324 
L 117.245527 271.029638 
L 118.390628 271.029638 
L 118.390628 270.502952 
L 121.094159 270.502952 
L 121.094159 269.976266 
L 121.556827 269.976266 
L 121.556827 269.449579 
L 124.4727 269.449579 
L 124.482119 268.396207 
L 125.479443 268.396207 
L 125.479443 267.869521 
L 131.477644 267.869521 
L 131.477644 267.342835 
L 134.666655 267.342835 
L 134.666655 266.816149 
L 145.849343 266.816149 
L 145.890777 265.762777 
L 148.098345 265.762777 
L 148.098345 265.236091 
L 157.320919 265.236091 
L 157.320919 264.709405 
L 162.991595 264.709405 
L 162.991595 264.182719 
L 163.321673 264.182719 
L 163.321673 263.656033 
L 171.323931 263.656033 
L 171.323931 263.129347 
L 176.376482 263.129347 
L 176.376482 262.60266 
L 178.62658 262.60266 
L 178.62658 262.075974 
L 338.688 262.075974 
L 338.688 262.075974 
" style="fill:none;stroke:#ff0000;stroke-linecap:square;stroke-width:1.5;"/>
   </g>
   <g id="line2d_56">
    <defs>
     <path d="M 0 -6 
L -5.196152 -3 
L -5.196152 3 
L -0 6 
L 5.196152 3 
L 5.196152 -3 
z
" id="m2ee9a9600a" style="stroke:#ff0000;stroke-linejoin:miter;stroke-width:1.5;"/>
    </defs>
    <g>
     <use style="fill-opacity:0;stroke:#ff0000;stroke-linejoin:miter;stroke-width:1.5;" x="134.666655" xlink:href="#m2ee9a9600a" y="266.816149"/>
     <use style="fill-opacity:0;stroke:#ff0000;stroke-linejoin:miter;stroke-width:1.5;" x="178.62658" xlink:href="#m2ee9a9600a" y="262.60266"/>
     <use style="fill-opacity:0;stroke:#ff0000;stroke-linejoin:miter;stroke-width:1.5;" x="178.62658" xlink:href="#m2ee9a9600a" y="262.075974"/>
     <use style="fill-opacity:0;stroke:#ff0000;stroke-linejoin:miter;stroke-width:1.5;" x="178.62658" xlink:href="#m2ee9a9600a" y="262.075974"/>
     <use style="fill-opacity:0;stroke:#ff0000;stroke-linejoin:miter;stroke-width:1.5;" x="338.688" xlink:href="#m2ee9a9600a" y="262.075974"/>
    </g>
   </g>
   <g id="line2d_57">
    <path style="fill:none;stroke:#ff0000;stroke-linecap:square;stroke-width:1.5;"/>
    <g/>
   </g>
   <g id="line2d_58">
    <path clip-path="url(#p0d38421736)" d="M 141.80232 266.816149 
" style="fill:none;stroke:#ff0000;stroke-linecap:square;stroke-width:1.5;"/>
    <defs>
     <path d="M -12 12 
L 12 -12 
M -12 -12 
L 12 12 
" id="m7c0db31f21" style="stroke:#ff0000;"/>
    </defs>
    <g clip-path="url(#p0d38421736)">
     <use style="fill:#ff0000;stroke:#ff0000;" x="141.80232" xlink:href="#m7c0db31f21" y="266.816149"/>
    </g>
   </g>
   <g id="line2d_59">
    <path d="M 338.688 288.410278 
L 369.60768 293.571802 
" style="fill:none;stroke:#000080;stroke-linecap:square;stroke-width:1.5;"/>
    <g>
     <use style="fill-opacity:0;stroke:#000080;stroke-width:1.5;" x="338.688" xlink:href="#m1421a2a0c7" y="288.410278"/>
     <use style="fill-opacity:0;stroke:#000080;stroke-width:1.5;" x="369.60768" xlink:href="#m1421a2a0c7" y="293.571802"/>
    </g>
   </g>
   <g id="line2d_60">
    <path d="M 338.688 262.075974 
L 369.60768 241.998701 
" style="fill:none;stroke:#ff0000;stroke-linecap:square;stroke-width:1.5;"/>
    <g>
     <use style="fill-opacity:0;stroke:#ff0000;stroke-linejoin:miter;stroke-width:1.5;" x="338.688" xlink:href="#m2ee9a9600a" y="262.075974"/>
     <use style="fill-opacity:0;stroke:#ff0000;stroke-linejoin:miter;stroke-width:1.5;" x="369.60768" xlink:href="#m2ee9a9600a" y="241.998701"/>
    </g>
   </g>
   <g id="line2d_61">
    <path d="M 338.688 241.008531 
L 369.60768 190.4256 
" style="fill:none;stroke:#ff7500;stroke-linecap:square;stroke-width:1.5;"/>
    <g>
     <use style="fill-opacity:0;stroke:#ff7500;stroke-linejoin:bevel;stroke-width:1.5;" x="338.688" xlink:href="#me1462d3f64" y="241.008531"/>
     <use style="fill-opacity:0;stroke:#ff7500;stroke-linejoin:bevel;stroke-width:1.5;" x="369.60768" xlink:href="#me1462d3f64" y="190.4256"/>
    </g>
   </g>
   <g id="line2d_62">
    <path d="M 338.688 225.207949 
L 369.60768 138.852499 
" style="fill:none;stroke:#6495ed;stroke-linecap:square;stroke-width:1.5;"/>
    <g>
     <use style="fill-opacity:0;stroke:#6495ed;stroke-linejoin:miter;stroke-width:1.5;" x="338.688" xlink:href="#m8d08fd17da" y="225.207949"/>
     <use style="fill-opacity:0;stroke:#6495ed;stroke-linejoin:miter;stroke-width:1.5;" x="369.60768" xlink:href="#m8d08fd17da" y="138.852499"/>
    </g>
   </g>
   <g id="line2d_63">
    <path d="M 338.688 183.073062 
L 369.60768 87.279398 
" style="fill:none;stroke:#ff00ff;stroke-linecap:square;stroke-width:1.5;"/>
    <g>
     <use style="fill-opacity:0;stroke:#ff00ff;stroke-linejoin:miter;stroke-width:1.5;" x="338.688" xlink:href="#m3ae81b9523" y="183.073062"/>
     <use style="fill-opacity:0;stroke:#ff00ff;stroke-linejoin:miter;stroke-width:1.5;" x="369.60768" xlink:href="#m3ae81b9523" y="87.279398"/>
    </g>
   </g>
   <g id="line2d_64">
    <path d="M 338.688 298.944 
L 338.688 30.334099 
" style="fill:none;stroke:#000000;stroke-linecap:square;stroke-width:1.5;"/>
   </g>
   <g id="patch_3">
    <path d="M 57.6 298.944 
L 57.6 27.648 
" style="fill:none;stroke:#000000;stroke-linecap:square;stroke-linejoin:miter;stroke-width:0.8;"/>
   </g>
   <g id="patch_4">
    <path d="M 338.688 298.944 
L 338.688 27.648 
" style="fill:none;stroke:#000000;stroke-linecap:square;stroke-linejoin:miter;stroke-width:0.8;"/>
   </g>
   <g id="patch_5">
    <path d="M 57.6 298.944 
L 338.688 298.944 
" style="fill:none;stroke:#000000;stroke-linecap:square;stroke-linejoin:miter;stroke-width:0.8;"/>
   </g>
   <g id="patch_6">
    <path d="M 57.6 27.648 
L 338.688 27.648 
" style="fill:none;stroke:#000000;stroke-linecap:square;stroke-linejoin:miter;stroke-width:0.8;"/>
   </g>
   <g id="text_13">
    <!-- ABC -->
    <defs>
     <path d="M 34.1875 63.1875 
L 20.796875 26.90625 
L 47.609375 26.90625 
z
M 28.609375 72.90625 
L 39.796875 72.90625 
L 67.578125 0 
L 57.328125 0 
L 50.6875 18.703125 
L 17.828125 18.703125 
L 11.1875 0 
L 0.78125 0 
z
" id="DejaVuSans-65"/>
     <path d="M 19.671875 34.8125 
L 19.671875 8.109375 
L 35.5 8.109375 
Q 43.453125 8.109375 47.28125 11.40625 
Q 51.125 14.703125 51.125 21.484375 
Q 51.125 28.328125 47.28125 31.5625 
Q 43.453125 34.8125 35.5 34.8125 
z
M 19.671875 64.796875 
L 19.671875 42.828125 
L 34.28125 42.828125 
Q 41.5 42.828125 45.03125 45.53125 
Q 48.578125 48.25 48.578125 53.8125 
Q 48.578125 59.328125 45.03125 62.0625 
Q 41.5 64.796875 34.28125 64.796875 
z
M 9.8125 72.90625 
L 35.015625 72.90625 
Q 46.296875 72.90625 52.390625 68.21875 
Q 58.5 63.53125 58.5 54.890625 
Q 58.5 48.1875 55.375 44.234375 
Q 52.25 40.28125 46.1875 39.3125 
Q 53.46875 37.75 57.5 32.78125 
Q 61.53125 27.828125 61.53125 20.40625 
Q 61.53125 10.640625 54.890625 5.3125 
Q 48.25 0 35.984375 0 
L 9.8125 0 
z
" id="DejaVuSans-66"/>
     <path d="M 64.40625 67.28125 
L 64.40625 56.890625 
Q 59.421875 61.53125 53.78125 63.8125 
Q 48.140625 66.109375 41.796875 66.109375 
Q 29.296875 66.109375 22.65625 58.46875 
Q 16.015625 50.828125 16.015625 36.375 
Q 16.015625 21.96875 22.65625 14.328125 
Q 29.296875 6.6875 41.796875 6.6875 
Q 48.140625 6.6875 53.78125 8.984375 
Q 59.421875 11.28125 64.40625 15.921875 
L 64.40625 5.609375 
Q 59.234375 2.09375 53.4375 0.328125 
Q 47.65625 -1.421875 41.21875 -1.421875 
Q 24.65625 -1.421875 15.125 8.703125 
Q 5.609375 18.84375 5.609375 36.375 
Q 5.609375 53.953125 15.125 64.078125 
Q 24.65625 74.21875 41.21875 74.21875 
Q 47.75 74.21875 53.53125 72.484375 
Q 59.328125 70.75 64.40625 67.28125 
z
" id="DejaVuSans-67"/>
    </defs>
    <g transform="translate(375.22944 298.262739)scale(0.17 -0.17)">
     <use xlink:href="#DejaVuSans-65"/>
     <use x="68.408203" xlink:href="#DejaVuSans-66"/>
     <use x="135.261719" xlink:href="#DejaVuSans-67"/>
    </g>
   </g>
   <g id="text_14">
    <!-- PSO -->
    <defs>
     <path d="M 19.671875 64.796875 
L 19.671875 37.40625 
L 32.078125 37.40625 
Q 38.96875 37.40625 42.71875 40.96875 
Q 46.484375 44.53125 46.484375 51.125 
Q 46.484375 57.671875 42.71875 61.234375 
Q 38.96875 64.796875 32.078125 64.796875 
z
M 9.8125 72.90625 
L 32.078125 72.90625 
Q 44.34375 72.90625 50.609375 67.359375 
Q 56.890625 61.8125 56.890625 51.125 
Q 56.890625 40.328125 50.609375 34.8125 
Q 44.34375 29.296875 32.078125 29.296875 
L 19.671875 29.296875 
L 19.671875 0 
L 9.8125 0 
z
" id="DejaVuSans-80"/>
     <path d="M 53.515625 70.515625 
L 53.515625 60.890625 
Q 47.90625 63.578125 42.921875 64.890625 
Q 37.9375 66.21875 33.296875 66.21875 
Q 25.25 66.21875 20.875 63.09375 
Q 16.5 59.96875 16.5 54.203125 
Q 16.5 49.359375 19.40625 46.890625 
Q 22.3125 44.4375 30.421875 42.921875 
L 36.375 41.703125 
Q 47.40625 39.59375 52.65625 34.296875 
Q 57.90625 29 57.90625 20.125 
Q 57.90625 9.515625 50.796875 4.046875 
Q 43.703125 -1.421875 29.984375 -1.421875 
Q 24.8125 -1.421875 18.96875 -0.25 
Q 13.140625 0.921875 6.890625 3.21875 
L 6.890625 13.375 
Q 12.890625 10.015625 18.65625 8.296875 
Q 24.421875 6.59375 29.984375 6.59375 
Q 38.421875 6.59375 43.015625 9.90625 
Q 47.609375 13.234375 47.609375 19.390625 
Q 47.609375 24.75 44.3125 27.78125 
Q 41.015625 30.8125 33.5 32.328125 
L 27.484375 33.5 
Q 16.453125 35.6875 11.515625 40.375 
Q 6.59375 45.0625 6.59375 53.421875 
Q 6.59375 63.09375 13.40625 68.65625 
Q 20.21875 74.21875 32.171875 74.21875 
Q 37.3125 74.21875 42.625 73.28125 
Q 47.953125 72.359375 53.515625 70.515625 
z
" id="DejaVuSans-83"/>
     <path d="M 39.40625 66.21875 
Q 28.65625 66.21875 22.328125 58.203125 
Q 16.015625 50.203125 16.015625 36.375 
Q 16.015625 22.609375 22.328125 14.59375 
Q 28.65625 6.59375 39.40625 6.59375 
Q 50.140625 6.59375 56.421875 14.59375 
Q 62.703125 22.609375 62.703125 36.375 
Q 62.703125 50.203125 56.421875 58.203125 
Q 50.140625 66.21875 39.40625 66.21875 
z
M 39.40625 74.21875 
Q 54.734375 74.21875 63.90625 63.9375 
Q 73.09375 53.65625 73.09375 36.375 
Q 73.09375 19.140625 63.90625 8.859375 
Q 54.734375 -1.421875 39.40625 -1.421875 
Q 24.03125 -1.421875 14.8125 8.828125 
Q 5.609375 19.09375 5.609375 36.375 
Q 5.609375 53.65625 14.8125 63.9375 
Q 24.03125 74.21875 39.40625 74.21875 
z
" id="DejaVuSans-79"/>
    </defs>
    <g transform="translate(375.22944 246.689638)scale(0.17 -0.17)">
     <use xlink:href="#DejaVuSans-80"/>
     <use x="60.302734" xlink:href="#DejaVuSans-83"/>
     <use x="123.779297" xlink:href="#DejaVuSans-79"/>
    </g>
   </g>
   <g id="text_15">
    <!-- DE -->
    <defs>
     <path d="M 19.671875 64.796875 
L 19.671875 8.109375 
L 31.59375 8.109375 
Q 46.6875 8.109375 53.6875 14.9375 
Q 60.6875 21.78125 60.6875 36.53125 
Q 60.6875 51.171875 53.6875 57.984375 
Q 46.6875 64.796875 31.59375 64.796875 
z
M 9.8125 72.90625 
L 30.078125 72.90625 
Q 51.265625 72.90625 61.171875 64.09375 
Q 71.09375 55.28125 71.09375 36.53125 
Q 71.09375 17.671875 61.125 8.828125 
Q 51.171875 0 30.078125 0 
L 9.8125 0 
z
" id="DejaVuSans-68"/>
     <path d="M 9.8125 72.90625 
L 55.90625 72.90625 
L 55.90625 64.59375 
L 19.671875 64.59375 
L 19.671875 43.015625 
L 54.390625 43.015625 
L 54.390625 34.71875 
L 19.671875 34.71875 
L 19.671875 8.296875 
L 56.78125 8.296875 
L 56.78125 0 
L 9.8125 0 
z
" id="DejaVuSans-69"/>
    </defs>
    <g transform="translate(375.22944 195.116537)scale(0.17 -0.17)">
     <use xlink:href="#DejaVuSans-68"/>
     <use x="77.001953" xlink:href="#DejaVuSans-69"/>
    </g>
   </g>
   <g id="text_16">
    <!-- DEPSO -->
    <g transform="translate(375.22944 143.543437)scale(0.17 -0.17)">
     <use xlink:href="#DejaVuSans-68"/>
     <use x="77.001953" xlink:href="#DejaVuSans-69"/>
     <use x="140.185547" xlink:href="#DejaVuSans-80"/>
     <use x="200.488281" xlink:href="#DejaVuSans-83"/>
     <use x="263.964844" xlink:href="#DejaVuSans-79"/>
    </g>
   </g>
   <g id="text_17">
    <!-- CMA-ES -->
    <defs>
     <path d="M 9.8125 72.90625 
L 24.515625 72.90625 
L 43.109375 23.296875 
L 61.8125 72.90625 
L 76.515625 72.90625 
L 76.515625 0 
L 66.890625 0 
L 66.890625 64.015625 
L 48.09375 14.015625 
L 38.1875 14.015625 
L 19.390625 64.015625 
L 19.390625 0 
L 9.8125 0 
z
" id="DejaVuSans-77"/>
    </defs>
    <g transform="translate(375.22944 91.970336)scale(0.17 -0.17)">
     <use xlink:href="#DejaVuSans-67"/>
     <use x="69.824219" xlink:href="#DejaVuSans-77"/>
     <use x="156.103516" xlink:href="#DejaVuSans-65"/>
     <use x="222.261719" xlink:href="#DejaVuSans-45"/>
     <use x="258.345703" xlink:href="#DejaVuSans-69"/>
     <use x="321.529297" xlink:href="#DejaVuSans-83"/>
    </g>
   </g>
   <g id="text_18">
    <!-- best 2009 -->
    <defs>
     <path d="M 48.6875 27.296875 
Q 48.6875 37.203125 44.609375 42.84375 
Q 40.53125 48.484375 33.40625 48.484375 
Q 26.265625 48.484375 22.1875 42.84375 
Q 18.109375 37.203125 18.109375 27.296875 
Q 18.109375 17.390625 22.1875 11.75 
Q 26.265625 6.109375 33.40625 6.109375 
Q 40.53125 6.109375 44.609375 11.75 
Q 48.6875 17.390625 48.6875 27.296875 
z
M 18.109375 46.390625 
Q 20.953125 51.265625 25.265625 53.625 
Q 29.59375 56 35.59375 56 
Q 45.5625 56 51.78125 48.09375 
Q 58.015625 40.1875 58.015625 27.296875 
Q 58.015625 14.40625 51.78125 6.484375 
Q 45.5625 -1.421875 35.59375 -1.421875 
Q 29.59375 -1.421875 25.265625 0.953125 
Q 20.953125 3.328125 18.109375 8.203125 
L 18.109375 0 
L 9.078125 0 
L 9.078125 75.984375 
L 18.109375 75.984375 
z
" id="DejaVuSans-98"/>
     <path d="M 10.984375 1.515625 
L 10.984375 10.5 
Q 14.703125 8.734375 18.5 7.8125 
Q 22.3125 6.890625 25.984375 6.890625 
Q 35.75 6.890625 40.890625 13.453125 
Q 46.046875 20.015625 46.78125 33.40625 
Q 43.953125 29.203125 39.59375 26.953125 
Q 35.25 24.703125 29.984375 24.703125 
Q 19.046875 24.703125 12.671875 31.3125 
Q 6.296875 37.9375 6.296875 49.421875 
Q 6.296875 60.640625 12.9375 67.421875 
Q 19.578125 74.21875 30.609375 74.21875 
Q 43.265625 74.21875 49.921875 64.515625 
Q 56.59375 54.828125 56.59375 36.375 
Q 56.59375 19.140625 48.40625 8.859375 
Q 40.234375 -1.421875 26.421875 -1.421875 
Q 22.703125 -1.421875 18.890625 -0.6875 
Q 15.09375 0.046875 10.984375 1.515625 
z
M 30.609375 32.421875 
Q 37.25 32.421875 41.125 36.953125 
Q 45.015625 41.5 45.015625 49.421875 
Q 45.015625 57.28125 41.125 61.84375 
Q 37.25 66.40625 30.609375 66.40625 
Q 23.96875 66.40625 20.09375 61.84375 
Q 16.21875 57.28125 16.21875 49.421875 
Q 16.21875 41.5 20.09375 36.953125 
Q 23.96875 32.421875 30.609375 32.421875 
z
" id="DejaVuSans-57"/>
    </defs>
    <g transform="translate(375.22944 40.397235)scale(0.17 -0.17)">
     <use xlink:href="#DejaVuSans-98"/>
     <use x="63.476562" xlink:href="#DejaVuSans-101"/>
     <use x="125" xlink:href="#DejaVuSans-115"/>
     <use x="177.099609" xlink:href="#DejaVuSans-116"/>
     <use x="216.308594" xlink:href="#DejaVuSans-32"/>
     <use x="248.095703" xlink:href="#DejaVuSans-50"/>
     <use x="311.71875" xlink:href="#DejaVuSans-48"/>
     <use x="375.341797" xlink:href="#DejaVuSans-48"/>
     <use x="438.964844" xlink:href="#DejaVuSans-57"/>
    </g>
   </g>
   <g id="text_19">
    <!-- bbob f14, 40-D -->
    <g transform="translate(60.41088 38.111366)scale(0.102 -0.102)">
     <use xlink:href="#DejaVuSans-98"/>
     <use x="63.476562" xlink:href="#DejaVuSans-98"/>
     <use x="126.953125" xlink:href="#DejaVuSans-111"/>
     <use x="188.134766" xlink:href="#DejaVuSans-98"/>
     <use x="251.611328" xlink:href="#DejaVuSans-32"/>
     <use x="283.398438" xlink:href="#DejaVuSans-102"/>
     <use x="318.603516" xlink:href="#DejaVuSans-49"/>
     <use x="382.226562" xlink:href="#DejaVuSans-52"/>
     <use x="445.849609" xlink:href="#DejaVuSans-44"/>
     <use x="477.636719" xlink:href="#DejaVuSans-32"/>
     <use x="509.423828" xlink:href="#DejaVuSans-52"/>
     <use x="573.046875" xlink:href="#DejaVuSans-48"/>
     <use x="636.669922" xlink:href="#DejaVuSans-45"/>
     <use x="672.753906" xlink:href="#DejaVuSans-68"/>
    </g>
    <!-- 51 targets: 100..1e-08 -->
    <defs>
     <path d="M 10.796875 72.90625 
L 49.515625 72.90625 
L 49.515625 64.59375 
L 19.828125 64.59375 
L 19.828125 46.734375 
Q 21.96875 47.46875 24.109375 47.828125 
Q 26.265625 48.1875 28.421875 48.1875 
Q 40.625 48.1875 47.75 41.5 
Q 54.890625 34.8125 54.890625 23.390625 
Q 54.890625 11.625 47.5625 5.09375 
Q 40.234375 -1.421875 26.90625 -1.421875 
Q 22.3125 -1.421875 17.546875 -0.640625 
Q 12.796875 0.140625 7.71875 1.703125 
L 7.71875 11.625 
Q 12.109375 9.234375 16.796875 8.0625 
Q 21.484375 6.890625 26.703125 6.890625 
Q 35.15625 6.890625 40.078125 11.328125 
Q 45.015625 15.765625 45.015625 23.390625 
Q 45.015625 31 40.078125 35.4375 
Q 35.15625 39.890625 26.703125 39.890625 
Q 22.75 39.890625 18.8125 39.015625 
Q 14.890625 38.140625 10.796875 36.28125 
z
" id="DejaVuSans-53"/>
     <path d="M 11.71875 12.40625 
L 22.015625 12.40625 
L 22.015625 0 
L 11.71875 0 
z
M 11.71875 51.703125 
L 22.015625 51.703125 
L 22.015625 39.3125 
L 11.71875 39.3125 
z
" id="DejaVuSans-58"/>
    </defs>
    <g transform="translate(60.41088 49.533135)scale(0.102 -0.102)">
     <use xlink:href="#DejaVuSans-53"/>
     <use x="63.623047" xlink:href="#DejaVuSans-49"/>
     <use x="127.246094" xlink:href="#DejaVuSans-32"/>
     <use x="159.033203" xlink:href="#DejaVuSans-116"/>
     <use x="198.242188" xlink:href="#DejaVuSans-97"/>
     <use x="259.521484" xlink:href="#DejaVuSans-114"/>
     <use x="298.884766" xlink:href="#DejaVuSans-103"/>
     <use x="362.361328" xlink:href="#DejaVuSans-101"/>
     <use x="423.884766" xlink:href="#DejaVuSans-116"/>
     <use x="463.09375" xlink:href="#DejaVuSans-115"/>
     <use x="515.193359" xlink:href="#DejaVuSans-58"/>
     <use x="548.884766" xlink:href="#DejaVuSans-32"/>
     <use x="580.671875" xlink:href="#DejaVuSans-49"/>
     <use x="644.294922" xlink:href="#DejaVuSans-48"/>
     <use x="707.917969" xlink:href="#DejaVuSans-48"/>
     <use x="771.541016" xlink:href="#DejaVuSans-46"/>
     <use x="803.328125" xlink:href="#DejaVuSans-46"/>
     <use x="835.115234" xlink:href="#DejaVuSans-49"/>
     <use x="898.738281" xlink:href="#DejaVuSans-101"/>
     <use x="960.261719" xlink:href="#DejaVuSans-45"/>
     <use x="996.345703" xlink:href="#DejaVuSans-48"/>
     <use x="1059.96875" xlink:href="#DejaVuSans-56"/>
    </g>
    <!-- 24, 15 instances -->
    <g transform="translate(60.41088 60.954904)scale(0.102 -0.102)">
     <use xlink:href="#DejaVuSans-50"/>
     <use x="63.623047" xlink:href="#DejaVuSans-52"/>
     <use x="127.246094" xlink:href="#DejaVuSans-44"/>
     <use x="159.033203" xlink:href="#DejaVuSans-32"/>
     <use x="190.820312" xlink:href="#DejaVuSans-49"/>
     <use x="254.443359" xlink:href="#DejaVuSans-53"/>
     <use x="318.066406" xlink:href="#DejaVuSans-32"/>
     <use x="349.853516" xlink:href="#DejaVuSans-105"/>
     <use x="377.636719" xlink:href="#DejaVuSans-110"/>
     <use x="441.015625" xlink:href="#DejaVuSans-115"/>
     <use x="493.115234" xlink:href="#DejaVuSans-116"/>
     <use x="532.324219" xlink:href="#DejaVuSans-97"/>
     <use x="593.603516" xlink:href="#DejaVuSans-110"/>
     <use x="656.982422" xlink:href="#DejaVuSans-99"/>
     <use x="711.962891" xlink:href="#DejaVuSans-101"/>
     <use x="773.486328" xlink:href="#DejaVuSans-115"/>
    </g>
   </g>
   <g id="text_20">
    <!-- v2.4 -->
    <g style="fill:#808080;" transform="translate(187.233062 294.151352)scale(0.1 -0.1)">
     <use xlink:href="#DejaVuSans-118"/>
     <use x="59.179688" xlink:href="#DejaVuSans-50"/>
     <use x="122.802734" xlink:href="#DejaVuSans-46"/>
     <use x="154.589844" xlink:href="#DejaVuSans-52"/>
    </g>
   </g>
   <g id="text_21">
    <!-- 14 Sum of different powers -->
    <defs>
     <path d="M 4.203125 54.6875 
L 13.1875 54.6875 
L 24.421875 12.015625 
L 35.59375 54.6875 
L 46.1875 54.6875 
L 57.421875 12.015625 
L 68.609375 54.6875 
L 77.59375 54.6875 
L 63.28125 0 
L 52.6875 0 
L 40.921875 44.828125 
L 29.109375 0 
L 18.5 0 
z
" id="DejaVuSans-119"/>
    </defs>
    <g transform="translate(61.904937 21.648)scale(0.2 -0.2)">
     <use xlink:href="#DejaVuSans-49"/>
     <use x="63.623047" xlink:href="#DejaVuSans-52"/>
     <use x="127.246094" xlink:href="#DejaVuSans-32"/>
     <use x="159.033203" xlink:href="#DejaVuSans-83"/>
     <use x="222.509766" xlink:href="#DejaVuSans-117"/>
     <use x="285.888672" xlink:href="#DejaVuSans-109"/>
     <use x="383.300781" xlink:href="#DejaVuSans-32"/>
     <use x="415.087891" xlink:href="#DejaVuSans-111"/>
     <use x="476.269531" xlink:href="#DejaVuSans-102"/>
     <use x="511.474609" xlink:href="#DejaVuSans-32"/>
     <use x="543.261719" xlink:href="#DejaVuSans-100"/>
     <use x="606.738281" xlink:href="#DejaVuSans-105"/>
     <use x="634.521484" xlink:href="#DejaVuSans-102"/>
     <use x="669.726562" xlink:href="#DejaVuSans-102"/>
     <use x="704.931641" xlink:href="#DejaVuSans-101"/>
     <use x="766.455078" xlink:href="#DejaVuSans-114"/>
     <use x="805.318359" xlink:href="#DejaVuSans-101"/>
     <use x="866.841797" xlink:href="#DejaVuSans-110"/>
     <use x="930.220703" xlink:href="#DejaVuSans-116"/>
     <use x="969.429688" xlink:href="#DejaVuSans-32"/>
     <use x="1001.216797" xlink:href="#DejaVuSans-112"/>
     <use x="1064.693359" xlink:href="#DejaVuSans-111"/>
     <use x="1125.875" xlink:href="#DejaVuSans-119"/>
     <use x="1207.662109" xlink:href="#DejaVuSans-101"/>
     <use x="1269.185547" xlink:href="#DejaVuSans-114"/>
     <use x="1310.298828" xlink:href="#DejaVuSans-115"/>
    </g>
   </g>
  </g>
 </g>
 <defs>
  <clipPath id="p0d38421736">
   <rect height="271.296" width="281.088" x="57.6" y="27.648"/>
  </clipPath>
 </defs>
</svg>
