<?xml version="1.0" encoding="utf-8" standalone="no"?>
<!DOCTYPE svg PUBLIC "-//W3C//DTD SVG 1.1//EN"
  "http://www.w3.org/Graphics/SVG/1.1/DTD/svg11.dtd">
<!-- Created with matplotlib (https://matplotlib.org/) -->
<svg height="345.6pt" version="1.1" viewBox="0 0 460.8 345.6" width="460.8pt" xmlns="http://www.w3.org/2000/svg" xmlns:xlink="http://www.w3.org/1999/xlink">
 <defs>
  <style type="text/css">
*{stroke-linecap:butt;stroke-linejoin:round;}
  </style>
 </defs>
 <g id="figure_1">
  <g id="patch_1">
   <path d="M 0 345.6 
L 460.8 345.6 
L 460.8 0 
L 0 0 
z
" style="fill:#ffffff;"/>
  </g>
  <g id="axes_1">
   <g id="patch_2">
    <path d="M 57.6 298.944 
L 338.688 298.944 
L 338.688 27.648 
L 57.6 27.648 
z
" style="fill:#ffffff;"/>
   </g>
   <g id="line2d_1">
    <path d="M 85.66744 298.944 
L 85.66744 293.677139 
L 86.792945 293.677139 
L 86.792945 288.410278 
L 88.846997 288.410278 
L 88.846997 283.143418 
L 90.684409 283.143418 
L 90.684409 277.876557 
L 93.863965 277.876557 
L 93.863965 272.609696 
L 95.918017 272.609696 
L 95.918017 267.342835 
L 98.32726 267.342835 
L 98.32726 251.542253 
L 102.772397 251.542253 
L 102.772397 246.275392 
L 104.826449 246.275392 
L 104.826449 241.008531 
L 121.036887 241.008531 
L 121.036887 235.74167 
L 123.056911 235.74167 
L 123.056911 230.47481 
L 124.114161 230.47481 
L 124.114161 225.207949 
L 125.23165 225.207949 
L 125.23165 219.941088 
L 126.053856 219.941088 
L 126.053856 214.674227 
L 126.839037 214.674227 
L 126.839037 209.407366 
L 127.48501 209.407366 
L 127.48501 204.140506 
L 128.107907 204.140506 
L 128.107907 198.873645 
L 128.511146 198.873645 
L 128.511146 193.606784 
L 128.905271 193.606784 
L 128.905271 188.339923 
L 129.195127 188.339923 
L 129.195127 183.073062 
L 129.290685 183.073062 
L 129.290685 177.806202 
L 129.574256 177.806202 
L 129.574256 167.27248 
L 129.760775 167.27248 
L 129.760775 162.005619 
L 129.853291 162.005619 
L 129.853291 156.738758 
L 130.036864 156.738758 
L 130.036864 151.471897 
L 130.127931 151.471897 
L 130.127931 146.205037 
L 130.30865 146.205037 
L 130.30865 140.938176 
L 130.398313 140.938176 
L 130.398313 130.404454 
L 130.487516 130.404454 
L 130.487516 125.137593 
L 130.576266 125.137593 
L 130.576266 114.603872 
L 130.664567 114.603872 
L 130.664567 104.07015 
L 130.926816 104.07015 
L 130.926816 93.536429 
L 131.013364 93.536429 
L 131.013364 88.269568 
L 131.099484 88.269568 
L 131.099484 83.002707 
L 131.185181 83.002707 
L 131.185181 77.735846 
L 131.270459 77.735846 
L 131.270459 72.468985 
L 131.523818 72.468985 
L 131.523818 56.668403 
L 131.60746 56.668403 
L 131.60746 40.867821 
L 131.690703 40.867821 
L 131.690703 30.334099 
L 338.688 30.334099 
" style="fill:none;stroke:#f5deb3;stroke-linecap:square;stroke-width:4;"/>
   </g>
   <g id="line2d_2">
    <defs>
     <path d="M -0 7.778175 
L 7.778175 0 
L 0 -7.778175 
L -7.778175 -0 
z
" id="m081aa28162" style="stroke:#f5deb3;stroke-linejoin:miter;stroke-width:1.5;"/>
    </defs>
    <g>
     <use style="fill:#f5deb3;stroke:#f5deb3;stroke-linejoin:miter;stroke-width:1.5;" x="121.036887" xlink:href="#m081aa28162" y="241.008531"/>
     <use style="fill:#f5deb3;stroke:#f5deb3;stroke-linejoin:miter;stroke-width:1.5;" x="130.926816" xlink:href="#m081aa28162" y="93.536429"/>
     <use style="fill:#f5deb3;stroke:#f5deb3;stroke-linejoin:miter;stroke-width:1.5;" x="131.690703" xlink:href="#m081aa28162" y="40.867821"/>
     <use style="fill:#f5deb3;stroke:#f5deb3;stroke-linejoin:miter;stroke-width:1.5;" x="131.690703" xlink:href="#m081aa28162" y="30.334099"/>
     <use style="fill:#f5deb3;stroke:#f5deb3;stroke-linejoin:miter;stroke-width:1.5;" x="338.688" xlink:href="#m081aa28162" y="30.334099"/>
    </g>
   </g>
   <g id="line2d_3">
    <path style="fill:none;stroke:#f5deb3;stroke-linecap:square;stroke-width:4;"/>
    <g/>
   </g>
   <g id="line2d_4">
    <path d="M 338.688 30.334099 
L 369.60768 35.706297 
" style="fill:none;stroke:#f5deb3;stroke-linecap:square;stroke-width:4;"/>
    <g>
     <use style="fill:#f5deb3;stroke:#f5deb3;stroke-linejoin:miter;stroke-width:1.5;" x="338.688" xlink:href="#m081aa28162" y="30.334099"/>
     <use style="fill:#f5deb3;stroke:#f5deb3;stroke-linejoin:miter;stroke-width:1.5;" x="369.60768" xlink:href="#m081aa28162" y="35.706297"/>
    </g>
   </g>
   <g id="matplotlib.axis_1">
    <g id="xtick_1">
     <g id="line2d_5">
      <path clip-path="url(#pfcf2ce8473)" d="M 57.6 298.944 
L 57.6 27.648 
" style="fill:none;stroke:#b0b0b0;stroke-linecap:square;stroke-width:0.8;"/>
     </g>
     <g id="line2d_6">
      <defs>
       <path d="M 0 0 
L 0 3.5 
" id="m9b62f6b1fc" style="stroke:#000000;stroke-width:0.8;"/>
      </defs>
      <g>
       <use style="stroke:#000000;stroke-width:0.8;" x="57.6" xlink:href="#m9b62f6b1fc" y="298.944"/>
      </g>
     </g>
     <g id="text_1">
      <!-- 0 -->
      <defs>
       <path d="M 31.78125 66.40625 
Q 24.171875 66.40625 20.328125 58.90625 
Q 16.5 51.421875 16.5 36.375 
Q 16.5 21.390625 20.328125 13.890625 
Q 24.171875 6.390625 31.78125 6.390625 
Q 39.453125 6.390625 43.28125 13.890625 
Q 47.125 21.390625 47.125 36.375 
Q 47.125 51.421875 43.28125 58.90625 
Q 39.453125 66.40625 31.78125 66.40625 
z
M 31.78125 74.21875 
Q 44.046875 74.21875 50.515625 64.515625 
Q 56.984375 54.828125 56.984375 36.375 
Q 56.984375 17.96875 50.515625 8.265625 
Q 44.046875 -1.421875 31.78125 -1.421875 
Q 19.53125 -1.421875 13.0625 8.265625 
Q 6.59375 17.96875 6.59375 36.375 
Q 6.59375 54.828125 13.0625 64.515625 
Q 19.53125 74.21875 31.78125 74.21875 
z
" id="DejaVuSans-48"/>
      </defs>
      <g transform="translate(51.2375 321.140875)scale(0.2 -0.2)">
       <use xlink:href="#DejaVuSans-48"/>
      </g>
     </g>
    </g>
    <g id="xtick_2">
     <g id="line2d_7">
      <path clip-path="url(#pfcf2ce8473)" d="M 137.910857 298.944 
L 137.910857 27.648 
" style="fill:none;stroke:#b0b0b0;stroke-linecap:square;stroke-width:0.8;"/>
     </g>
     <g id="line2d_8">
      <g>
       <use style="stroke:#000000;stroke-width:0.8;" x="137.910857" xlink:href="#m9b62f6b1fc" y="298.944"/>
      </g>
     </g>
     <g id="text_2">
      <!-- 2 -->
      <defs>
       <path d="M 19.1875 8.296875 
L 53.609375 8.296875 
L 53.609375 0 
L 7.328125 0 
L 7.328125 8.296875 
Q 12.9375 14.109375 22.625 23.890625 
Q 32.328125 33.6875 34.8125 36.53125 
Q 39.546875 41.84375 41.421875 45.53125 
Q 43.3125 49.21875 43.3125 52.78125 
Q 43.3125 58.59375 39.234375 62.25 
Q 35.15625 65.921875 28.609375 65.921875 
Q 23.96875 65.921875 18.8125 64.3125 
Q 13.671875 62.703125 7.8125 59.421875 
L 7.8125 69.390625 
Q 13.765625 71.78125 18.9375 73 
Q 24.125 74.21875 28.421875 74.21875 
Q 39.75 74.21875 46.484375 68.546875 
Q 53.21875 62.890625 53.21875 53.421875 
Q 53.21875 48.921875 51.53125 44.890625 
Q 49.859375 40.875 45.40625 35.40625 
Q 44.1875 33.984375 37.640625 27.21875 
Q 31.109375 20.453125 19.1875 8.296875 
z
" id="DejaVuSans-50"/>
      </defs>
      <g transform="translate(131.548357 321.140875)scale(0.2 -0.2)">
       <use xlink:href="#DejaVuSans-50"/>
      </g>
     </g>
    </g>
    <g id="xtick_3">
     <g id="line2d_9">
      <path clip-path="url(#pfcf2ce8473)" d="M 218.221714 298.944 
L 218.221714 27.648 
" style="fill:none;stroke:#b0b0b0;stroke-linecap:square;stroke-width:0.8;"/>
     </g>
     <g id="line2d_10">
      <g>
       <use style="stroke:#000000;stroke-width:0.8;" x="218.221714" xlink:href="#m9b62f6b1fc" y="298.944"/>
      </g>
     </g>
     <g id="text_3">
      <!-- 4 -->
      <defs>
       <path d="M 37.796875 64.3125 
L 12.890625 25.390625 
L 37.796875 25.390625 
z
M 35.203125 72.90625 
L 47.609375 72.90625 
L 47.609375 25.390625 
L 58.015625 25.390625 
L 58.015625 17.1875 
L 47.609375 17.1875 
L 47.609375 0 
L 37.796875 0 
L 37.796875 17.1875 
L 4.890625 17.1875 
L 4.890625 26.703125 
z
" id="DejaVuSans-52"/>
      </defs>
      <g transform="translate(211.859214 321.140875)scale(0.2 -0.2)">
       <use xlink:href="#DejaVuSans-52"/>
      </g>
     </g>
    </g>
    <g id="xtick_4">
     <g id="line2d_11">
      <path clip-path="url(#pfcf2ce8473)" d="M 298.532571 298.944 
L 298.532571 27.648 
" style="fill:none;stroke:#b0b0b0;stroke-linecap:square;stroke-width:0.8;"/>
     </g>
     <g id="line2d_12">
      <g>
       <use style="stroke:#000000;stroke-width:0.8;" x="298.532571" xlink:href="#m9b62f6b1fc" y="298.944"/>
      </g>
     </g>
     <g id="text_4">
      <!-- 6 -->
      <defs>
       <path d="M 33.015625 40.375 
Q 26.375 40.375 22.484375 35.828125 
Q 18.609375 31.296875 18.609375 23.390625 
Q 18.609375 15.53125 22.484375 10.953125 
Q 26.375 6.390625 33.015625 6.390625 
Q 39.65625 6.390625 43.53125 10.953125 
Q 47.40625 15.53125 47.40625 23.390625 
Q 47.40625 31.296875 43.53125 35.828125 
Q 39.65625 40.375 33.015625 40.375 
z
M 52.59375 71.296875 
L 52.59375 62.3125 
Q 48.875 64.0625 45.09375 64.984375 
Q 41.3125 65.921875 37.59375 65.921875 
Q 27.828125 65.921875 22.671875 59.328125 
Q 17.53125 52.734375 16.796875 39.40625 
Q 19.671875 43.65625 24.015625 45.921875 
Q 28.375 48.1875 33.59375 48.1875 
Q 44.578125 48.1875 50.953125 41.515625 
Q 57.328125 34.859375 57.328125 23.390625 
Q 57.328125 12.15625 50.6875 5.359375 
Q 44.046875 -1.421875 33.015625 -1.421875 
Q 20.359375 -1.421875 13.671875 8.265625 
Q 6.984375 17.96875 6.984375 36.375 
Q 6.984375 53.65625 15.1875 63.9375 
Q 23.390625 74.21875 37.203125 74.21875 
Q 40.921875 74.21875 44.703125 73.484375 
Q 48.484375 72.75 52.59375 71.296875 
z
" id="DejaVuSans-54"/>
      </defs>
      <g transform="translate(292.170071 321.140875)scale(0.2 -0.2)">
       <use xlink:href="#DejaVuSans-54"/>
      </g>
     </g>
    </g>
    <g id="xtick_5">
     <g id="line2d_13">
      <path clip-path="url(#pfcf2ce8473)" d="M 97.755429 298.944 
L 97.755429 27.648 
" style="fill:none;stroke:#b0b0b0;stroke-linecap:square;stroke-width:0.8;"/>
     </g>
     <g id="line2d_14">
      <defs>
       <path d="M 0 0 
L 0 2 
" id="m16aaec334b" style="stroke:#000000;stroke-width:0.6;"/>
      </defs>
      <g>
       <use style="stroke:#000000;stroke-width:0.6;" x="97.755429" xlink:href="#m16aaec334b" y="298.944"/>
      </g>
     </g>
    </g>
    <g id="xtick_6">
     <g id="line2d_15">
      <path clip-path="url(#pfcf2ce8473)" d="M 178.066286 298.944 
L 178.066286 27.648 
" style="fill:none;stroke:#b0b0b0;stroke-linecap:square;stroke-width:0.8;"/>
     </g>
     <g id="line2d_16">
      <g>
       <use style="stroke:#000000;stroke-width:0.6;" x="178.066286" xlink:href="#m16aaec334b" y="298.944"/>
      </g>
     </g>
    </g>
    <g id="xtick_7">
     <g id="line2d_17">
      <path clip-path="url(#pfcf2ce8473)" d="M 258.377143 298.944 
L 258.377143 27.648 
" style="fill:none;stroke:#b0b0b0;stroke-linecap:square;stroke-width:0.8;"/>
     </g>
     <g id="line2d_18">
      <g>
       <use style="stroke:#000000;stroke-width:0.6;" x="258.377143" xlink:href="#m16aaec334b" y="298.944"/>
      </g>
     </g>
    </g>
    <g id="xtick_8">
     <g id="line2d_19">
      <path clip-path="url(#pfcf2ce8473)" d="M 338.688 298.944 
L 338.688 27.648 
" style="fill:none;stroke:#b0b0b0;stroke-linecap:square;stroke-width:0.8;"/>
     </g>
     <g id="line2d_20">
      <g>
       <use style="stroke:#000000;stroke-width:0.6;" x="338.688" xlink:href="#m16aaec334b" y="298.944"/>
      </g>
     </g>
    </g>
    <g id="text_5">
     <!-- log10(# f-evals / dimension) -->
     <defs>
      <path d="M 9.421875 75.984375 
L 18.40625 75.984375 
L 18.40625 0 
L 9.421875 0 
z
" id="DejaVuSans-108"/>
      <path d="M 30.609375 48.390625 
Q 23.390625 48.390625 19.1875 42.75 
Q 14.984375 37.109375 14.984375 27.296875 
Q 14.984375 17.484375 19.15625 11.84375 
Q 23.34375 6.203125 30.609375 6.203125 
Q 37.796875 6.203125 41.984375 11.859375 
Q 46.1875 17.53125 46.1875 27.296875 
Q 46.1875 37.015625 41.984375 42.703125 
Q 37.796875 48.390625 30.609375 48.390625 
z
M 30.609375 56 
Q 42.328125 56 49.015625 48.375 
Q 55.71875 40.765625 55.71875 27.296875 
Q 55.71875 13.875 49.015625 6.21875 
Q 42.328125 -1.421875 30.609375 -1.421875 
Q 18.84375 -1.421875 12.171875 6.21875 
Q 5.515625 13.875 5.515625 27.296875 
Q 5.515625 40.765625 12.171875 48.375 
Q 18.84375 56 30.609375 56 
z
" id="DejaVuSans-111"/>
      <path d="M 45.40625 27.984375 
Q 45.40625 37.75 41.375 43.109375 
Q 37.359375 48.484375 30.078125 48.484375 
Q 22.859375 48.484375 18.828125 43.109375 
Q 14.796875 37.75 14.796875 27.984375 
Q 14.796875 18.265625 18.828125 12.890625 
Q 22.859375 7.515625 30.078125 7.515625 
Q 37.359375 7.515625 41.375 12.890625 
Q 45.40625 18.265625 45.40625 27.984375 
z
M 54.390625 6.78125 
Q 54.390625 -7.171875 48.1875 -13.984375 
Q 42 -20.796875 29.203125 -20.796875 
Q 24.46875 -20.796875 20.265625 -20.09375 
Q 16.0625 -19.390625 12.109375 -17.921875 
L 12.109375 -9.1875 
Q 16.0625 -11.328125 19.921875 -12.34375 
Q 23.78125 -13.375 27.78125 -13.375 
Q 36.625 -13.375 41.015625 -8.765625 
Q 45.40625 -4.15625 45.40625 5.171875 
L 45.40625 9.625 
Q 42.625 4.78125 38.28125 2.390625 
Q 33.9375 0 27.875 0 
Q 17.828125 0 11.671875 7.65625 
Q 5.515625 15.328125 5.515625 27.984375 
Q 5.515625 40.671875 11.671875 48.328125 
Q 17.828125 56 27.875 56 
Q 33.9375 56 38.28125 53.609375 
Q 42.625 51.21875 45.40625 46.390625 
L 45.40625 54.6875 
L 54.390625 54.6875 
z
" id="DejaVuSans-103"/>
      <path d="M 12.40625 8.296875 
L 28.515625 8.296875 
L 28.515625 63.921875 
L 10.984375 60.40625 
L 10.984375 69.390625 
L 28.421875 72.90625 
L 38.28125 72.90625 
L 38.28125 8.296875 
L 54.390625 8.296875 
L 54.390625 0 
L 12.40625 0 
z
" id="DejaVuSans-49"/>
      <path d="M 31 75.875 
Q 24.46875 64.65625 21.28125 53.65625 
Q 18.109375 42.671875 18.109375 31.390625 
Q 18.109375 20.125 21.3125 9.0625 
Q 24.515625 -2 31 -13.1875 
L 23.1875 -13.1875 
Q 15.875 -1.703125 12.234375 9.375 
Q 8.59375 20.453125 8.59375 31.390625 
Q 8.59375 42.28125 12.203125 53.3125 
Q 15.828125 64.359375 23.1875 75.875 
z
" id="DejaVuSans-40"/>
      <path d="M 51.125 44 
L 36.921875 44 
L 32.8125 27.6875 
L 47.125 27.6875 
z
M 43.796875 71.78125 
L 38.71875 51.515625 
L 52.984375 51.515625 
L 58.109375 71.78125 
L 65.921875 71.78125 
L 60.890625 51.515625 
L 76.125 51.515625 
L 76.125 44 
L 58.984375 44 
L 54.984375 27.6875 
L 70.515625 27.6875 
L 70.515625 20.21875 
L 53.078125 20.21875 
L 48 0 
L 40.1875 0 
L 45.21875 20.21875 
L 30.90625 20.21875 
L 25.875 0 
L 18.015625 0 
L 23.09375 20.21875 
L 7.71875 20.21875 
L 7.71875 27.6875 
L 24.90625 27.6875 
L 29 44 
L 13.28125 44 
L 13.28125 51.515625 
L 30.90625 51.515625 
L 35.890625 71.78125 
z
" id="DejaVuSans-35"/>
      <path id="DejaVuSans-32"/>
      <path d="M 37.109375 75.984375 
L 37.109375 68.5 
L 28.515625 68.5 
Q 23.6875 68.5 21.796875 66.546875 
Q 19.921875 64.59375 19.921875 59.515625 
L 19.921875 54.6875 
L 34.71875 54.6875 
L 34.71875 47.703125 
L 19.921875 47.703125 
L 19.921875 0 
L 10.890625 0 
L 10.890625 47.703125 
L 2.296875 47.703125 
L 2.296875 54.6875 
L 10.890625 54.6875 
L 10.890625 58.5 
Q 10.890625 67.625 15.140625 71.796875 
Q 19.390625 75.984375 28.609375 75.984375 
z
" id="DejaVuSans-102"/>
      <path d="M 4.890625 31.390625 
L 31.203125 31.390625 
L 31.203125 23.390625 
L 4.890625 23.390625 
z
" id="DejaVuSans-45"/>
      <path d="M 56.203125 29.59375 
L 56.203125 25.203125 
L 14.890625 25.203125 
Q 15.484375 15.921875 20.484375 11.0625 
Q 25.484375 6.203125 34.421875 6.203125 
Q 39.59375 6.203125 44.453125 7.46875 
Q 49.3125 8.734375 54.109375 11.28125 
L 54.109375 2.78125 
Q 49.265625 0.734375 44.1875 -0.34375 
Q 39.109375 -1.421875 33.890625 -1.421875 
Q 20.796875 -1.421875 13.15625 6.1875 
Q 5.515625 13.8125 5.515625 26.8125 
Q 5.515625 40.234375 12.765625 48.109375 
Q 20.015625 56 32.328125 56 
Q 43.359375 56 49.78125 48.890625 
Q 56.203125 41.796875 56.203125 29.59375 
z
M 47.21875 32.234375 
Q 47.125 39.59375 43.09375 43.984375 
Q 39.0625 48.390625 32.421875 48.390625 
Q 24.90625 48.390625 20.390625 44.140625 
Q 15.875 39.890625 15.1875 32.171875 
z
" id="DejaVuSans-101"/>
      <path d="M 2.984375 54.6875 
L 12.5 54.6875 
L 29.59375 8.796875 
L 46.6875 54.6875 
L 56.203125 54.6875 
L 35.6875 0 
L 23.484375 0 
z
" id="DejaVuSans-118"/>
      <path d="M 34.28125 27.484375 
Q 23.390625 27.484375 19.1875 25 
Q 14.984375 22.515625 14.984375 16.5 
Q 14.984375 11.71875 18.140625 8.90625 
Q 21.296875 6.109375 26.703125 6.109375 
Q 34.1875 6.109375 38.703125 11.40625 
Q 43.21875 16.703125 43.21875 25.484375 
L 43.21875 27.484375 
z
M 52.203125 31.203125 
L 52.203125 0 
L 43.21875 0 
L 43.21875 8.296875 
Q 40.140625 3.328125 35.546875 0.953125 
Q 30.953125 -1.421875 24.3125 -1.421875 
Q 15.921875 -1.421875 10.953125 3.296875 
Q 6 8.015625 6 15.921875 
Q 6 25.140625 12.171875 29.828125 
Q 18.359375 34.515625 30.609375 34.515625 
L 43.21875 34.515625 
L 43.21875 35.40625 
Q 43.21875 41.609375 39.140625 45 
Q 35.0625 48.390625 27.6875 48.390625 
Q 23 48.390625 18.546875 47.265625 
Q 14.109375 46.140625 10.015625 43.890625 
L 10.015625 52.203125 
Q 14.9375 54.109375 19.578125 55.046875 
Q 24.21875 56 28.609375 56 
Q 40.484375 56 46.34375 49.84375 
Q 52.203125 43.703125 52.203125 31.203125 
z
" id="DejaVuSans-97"/>
      <path d="M 44.28125 53.078125 
L 44.28125 44.578125 
Q 40.484375 46.53125 36.375 47.5 
Q 32.28125 48.484375 27.875 48.484375 
Q 21.1875 48.484375 17.84375 46.4375 
Q 14.5 44.390625 14.5 40.28125 
Q 14.5 37.15625 16.890625 35.375 
Q 19.28125 33.59375 26.515625 31.984375 
L 29.59375 31.296875 
Q 39.15625 29.25 43.1875 25.515625 
Q 47.21875 21.78125 47.21875 15.09375 
Q 47.21875 7.46875 41.1875 3.015625 
Q 35.15625 -1.421875 24.609375 -1.421875 
Q 20.21875 -1.421875 15.453125 -0.5625 
Q 10.6875 0.296875 5.421875 2 
L 5.421875 11.28125 
Q 10.40625 8.6875 15.234375 7.390625 
Q 20.0625 6.109375 24.8125 6.109375 
Q 31.15625 6.109375 34.5625 8.28125 
Q 37.984375 10.453125 37.984375 14.40625 
Q 37.984375 18.0625 35.515625 20.015625 
Q 33.0625 21.96875 24.703125 23.78125 
L 21.578125 24.515625 
Q 13.234375 26.265625 9.515625 29.90625 
Q 5.8125 33.546875 5.8125 39.890625 
Q 5.8125 47.609375 11.28125 51.796875 
Q 16.75 56 26.8125 56 
Q 31.78125 56 36.171875 55.265625 
Q 40.578125 54.546875 44.28125 53.078125 
z
" id="DejaVuSans-115"/>
      <path d="M 25.390625 72.90625 
L 33.6875 72.90625 
L 8.296875 -9.28125 
L 0 -9.28125 
z
" id="DejaVuSans-47"/>
      <path d="M 45.40625 46.390625 
L 45.40625 75.984375 
L 54.390625 75.984375 
L 54.390625 0 
L 45.40625 0 
L 45.40625 8.203125 
Q 42.578125 3.328125 38.25 0.953125 
Q 33.9375 -1.421875 27.875 -1.421875 
Q 17.96875 -1.421875 11.734375 6.484375 
Q 5.515625 14.40625 5.515625 27.296875 
Q 5.515625 40.1875 11.734375 48.09375 
Q 17.96875 56 27.875 56 
Q 33.9375 56 38.25 53.625 
Q 42.578125 51.265625 45.40625 46.390625 
z
M 14.796875 27.296875 
Q 14.796875 17.390625 18.875 11.75 
Q 22.953125 6.109375 30.078125 6.109375 
Q 37.203125 6.109375 41.296875 11.75 
Q 45.40625 17.390625 45.40625 27.296875 
Q 45.40625 37.203125 41.296875 42.84375 
Q 37.203125 48.484375 30.078125 48.484375 
Q 22.953125 48.484375 18.875 42.84375 
Q 14.796875 37.203125 14.796875 27.296875 
z
" id="DejaVuSans-100"/>
      <path d="M 9.421875 54.6875 
L 18.40625 54.6875 
L 18.40625 0 
L 9.421875 0 
z
M 9.421875 75.984375 
L 18.40625 75.984375 
L 18.40625 64.59375 
L 9.421875 64.59375 
z
" id="DejaVuSans-105"/>
      <path d="M 52 44.1875 
Q 55.375 50.25 60.0625 53.125 
Q 64.75 56 71.09375 56 
Q 79.640625 56 84.28125 50.015625 
Q 88.921875 44.046875 88.921875 33.015625 
L 88.921875 0 
L 79.890625 0 
L 79.890625 32.71875 
Q 79.890625 40.578125 77.09375 44.375 
Q 74.3125 48.1875 68.609375 48.1875 
Q 61.625 48.1875 57.5625 43.546875 
Q 53.515625 38.921875 53.515625 30.90625 
L 53.515625 0 
L 44.484375 0 
L 44.484375 32.71875 
Q 44.484375 40.625 41.703125 44.40625 
Q 38.921875 48.1875 33.109375 48.1875 
Q 26.21875 48.1875 22.15625 43.53125 
Q 18.109375 38.875 18.109375 30.90625 
L 18.109375 0 
L 9.078125 0 
L 9.078125 54.6875 
L 18.109375 54.6875 
L 18.109375 46.1875 
Q 21.1875 51.21875 25.484375 53.609375 
Q 29.78125 56 35.6875 56 
Q 41.65625 56 45.828125 52.96875 
Q 50 49.953125 52 44.1875 
z
" id="DejaVuSans-109"/>
      <path d="M 54.890625 33.015625 
L 54.890625 0 
L 45.90625 0 
L 45.90625 32.71875 
Q 45.90625 40.484375 42.875 44.328125 
Q 39.84375 48.1875 33.796875 48.1875 
Q 26.515625 48.1875 22.3125 43.546875 
Q 18.109375 38.921875 18.109375 30.90625 
L 18.109375 0 
L 9.078125 0 
L 9.078125 54.6875 
L 18.109375 54.6875 
L 18.109375 46.1875 
Q 21.34375 51.125 25.703125 53.5625 
Q 30.078125 56 35.796875 56 
Q 45.21875 56 50.046875 50.171875 
Q 54.890625 44.34375 54.890625 33.015625 
z
" id="DejaVuSans-110"/>
      <path d="M 8.015625 75.875 
L 15.828125 75.875 
Q 23.140625 64.359375 26.78125 53.3125 
Q 30.421875 42.28125 30.421875 31.390625 
Q 30.421875 20.453125 26.78125 9.375 
Q 23.140625 -1.703125 15.828125 -13.1875 
L 8.015625 -13.1875 
Q 14.5 -2 17.703125 9.0625 
Q 20.90625 20.125 20.90625 31.390625 
Q 20.90625 42.671875 17.703125 53.65625 
Q 14.5 64.65625 8.015625 75.875 
z
" id="DejaVuSans-41"/>
     </defs>
     <g transform="translate(77.764078 342.217594)scale(0.17 -0.17)">
      <use xlink:href="#DejaVuSans-108"/>
      <use x="27.783203" xlink:href="#DejaVuSans-111"/>
      <use x="88.964844" xlink:href="#DejaVuSans-103"/>
      <use x="152.441406" xlink:href="#DejaVuSans-49"/>
      <use x="216.064453" xlink:href="#DejaVuSans-48"/>
      <use x="279.6875" xlink:href="#DejaVuSans-40"/>
      <use x="318.701172" xlink:href="#DejaVuSans-35"/>
      <use x="402.490234" xlink:href="#DejaVuSans-32"/>
      <use x="434.277344" xlink:href="#DejaVuSans-102"/>
      <use x="463.982422" xlink:href="#DejaVuSans-45"/>
      <use x="500.066406" xlink:href="#DejaVuSans-101"/>
      <use x="561.589844" xlink:href="#DejaVuSans-118"/>
      <use x="620.769531" xlink:href="#DejaVuSans-97"/>
      <use x="682.048828" xlink:href="#DejaVuSans-108"/>
      <use x="709.832031" xlink:href="#DejaVuSans-115"/>
      <use x="761.931641" xlink:href="#DejaVuSans-32"/>
      <use x="793.71875" xlink:href="#DejaVuSans-47"/>
      <use x="827.410156" xlink:href="#DejaVuSans-32"/>
      <use x="859.197266" xlink:href="#DejaVuSans-100"/>
      <use x="922.673828" xlink:href="#DejaVuSans-105"/>
      <use x="950.457031" xlink:href="#DejaVuSans-109"/>
      <use x="1047.869141" xlink:href="#DejaVuSans-101"/>
      <use x="1109.392578" xlink:href="#DejaVuSans-110"/>
      <use x="1172.771484" xlink:href="#DejaVuSans-115"/>
      <use x="1224.871094" xlink:href="#DejaVuSans-105"/>
      <use x="1252.654297" xlink:href="#DejaVuSans-111"/>
      <use x="1313.835938" xlink:href="#DejaVuSans-110"/>
      <use x="1377.214844" xlink:href="#DejaVuSans-41"/>
     </g>
    </g>
   </g>
   <g id="matplotlib.axis_2">
    <g id="ytick_1">
     <g id="line2d_21">
      <path clip-path="url(#pfcf2ce8473)" d="M 57.6 298.944 
L 338.688 298.944 
" style="fill:none;stroke:#b0b0b0;stroke-linecap:square;stroke-width:0.8;"/>
     </g>
     <g id="line2d_22">
      <defs>
       <path d="M 0 0 
L -3.5 0 
" id="m56629687d5" style="stroke:#000000;stroke-width:0.8;"/>
      </defs>
      <g>
       <use style="stroke:#000000;stroke-width:0.8;" x="57.6" xlink:href="#m56629687d5" y="298.944"/>
      </g>
     </g>
     <g id="text_6">
      <!-- 0.0 -->
      <defs>
       <path d="M 10.6875 12.40625 
L 21 12.40625 
L 21 0 
L 10.6875 0 
z
" id="DejaVuSans-46"/>
      </defs>
      <g transform="translate(25.155 305.02275)scale(0.16 -0.16)">
       <use xlink:href="#DejaVuSans-48"/>
       <use x="63.623047" xlink:href="#DejaVuSans-46"/>
       <use x="95.410156" xlink:href="#DejaVuSans-48"/>
      </g>
     </g>
    </g>
    <g id="ytick_2">
     <g id="line2d_23">
      <path clip-path="url(#pfcf2ce8473)" d="M 57.6 245.22202 
L 338.688 245.22202 
" style="fill:none;stroke:#b0b0b0;stroke-linecap:square;stroke-width:0.8;"/>
     </g>
     <g id="line2d_24">
      <g>
       <use style="stroke:#000000;stroke-width:0.8;" x="57.6" xlink:href="#m56629687d5" y="245.22202"/>
      </g>
     </g>
     <g id="text_7">
      <!-- 0.2 -->
      <g transform="translate(25.155 251.30077)scale(0.16 -0.16)">
       <use xlink:href="#DejaVuSans-48"/>
       <use x="63.623047" xlink:href="#DejaVuSans-46"/>
       <use x="95.410156" xlink:href="#DejaVuSans-50"/>
      </g>
     </g>
    </g>
    <g id="ytick_3">
     <g id="line2d_25">
      <path clip-path="url(#pfcf2ce8473)" d="M 57.6 191.50004 
L 338.688 191.50004 
" style="fill:none;stroke:#b0b0b0;stroke-linecap:square;stroke-width:0.8;"/>
     </g>
     <g id="line2d_26">
      <g>
       <use style="stroke:#000000;stroke-width:0.8;" x="57.6" xlink:href="#m56629687d5" y="191.50004"/>
      </g>
     </g>
     <g id="text_8">
      <!-- 0.4 -->
      <g transform="translate(25.155 197.57879)scale(0.16 -0.16)">
       <use xlink:href="#DejaVuSans-48"/>
       <use x="63.623047" xlink:href="#DejaVuSans-46"/>
       <use x="95.410156" xlink:href="#DejaVuSans-52"/>
      </g>
     </g>
    </g>
    <g id="ytick_4">
     <g id="line2d_27">
      <path clip-path="url(#pfcf2ce8473)" d="M 57.6 137.778059 
L 338.688 137.778059 
" style="fill:none;stroke:#b0b0b0;stroke-linecap:square;stroke-width:0.8;"/>
     </g>
     <g id="line2d_28">
      <g>
       <use style="stroke:#000000;stroke-width:0.8;" x="57.6" xlink:href="#m56629687d5" y="137.778059"/>
      </g>
     </g>
     <g id="text_9">
      <!-- 0.6 -->
      <g transform="translate(25.155 143.856809)scale(0.16 -0.16)">
       <use xlink:href="#DejaVuSans-48"/>
       <use x="63.623047" xlink:href="#DejaVuSans-46"/>
       <use x="95.410156" xlink:href="#DejaVuSans-54"/>
      </g>
     </g>
    </g>
    <g id="ytick_5">
     <g id="line2d_29">
      <path clip-path="url(#pfcf2ce8473)" d="M 57.6 84.056079 
L 338.688 84.056079 
" style="fill:none;stroke:#b0b0b0;stroke-linecap:square;stroke-width:0.8;"/>
     </g>
     <g id="line2d_30">
      <g>
       <use style="stroke:#000000;stroke-width:0.8;" x="57.6" xlink:href="#m56629687d5" y="84.056079"/>
      </g>
     </g>
     <g id="text_10">
      <!-- 0.8 -->
      <defs>
       <path d="M 31.78125 34.625 
Q 24.75 34.625 20.71875 30.859375 
Q 16.703125 27.09375 16.703125 20.515625 
Q 16.703125 13.921875 20.71875 10.15625 
Q 24.75 6.390625 31.78125 6.390625 
Q 38.8125 6.390625 42.859375 10.171875 
Q 46.921875 13.96875 46.921875 20.515625 
Q 46.921875 27.09375 42.890625 30.859375 
Q 38.875 34.625 31.78125 34.625 
z
M 21.921875 38.8125 
Q 15.578125 40.375 12.03125 44.71875 
Q 8.5 49.078125 8.5 55.328125 
Q 8.5 64.0625 14.71875 69.140625 
Q 20.953125 74.21875 31.78125 74.21875 
Q 42.671875 74.21875 48.875 69.140625 
Q 55.078125 64.0625 55.078125 55.328125 
Q 55.078125 49.078125 51.53125 44.71875 
Q 48 40.375 41.703125 38.8125 
Q 48.828125 37.15625 52.796875 32.3125 
Q 56.78125 27.484375 56.78125 20.515625 
Q 56.78125 9.90625 50.3125 4.234375 
Q 43.84375 -1.421875 31.78125 -1.421875 
Q 19.734375 -1.421875 13.25 4.234375 
Q 6.78125 9.90625 6.78125 20.515625 
Q 6.78125 27.484375 10.78125 32.3125 
Q 14.796875 37.15625 21.921875 38.8125 
z
M 18.3125 54.390625 
Q 18.3125 48.734375 21.84375 45.5625 
Q 25.390625 42.390625 31.78125 42.390625 
Q 38.140625 42.390625 41.71875 45.5625 
Q 45.3125 48.734375 45.3125 54.390625 
Q 45.3125 60.0625 41.71875 63.234375 
Q 38.140625 66.40625 31.78125 66.40625 
Q 25.390625 66.40625 21.84375 63.234375 
Q 18.3125 60.0625 18.3125 54.390625 
z
" id="DejaVuSans-56"/>
      </defs>
      <g transform="translate(25.155 90.134829)scale(0.16 -0.16)">
       <use xlink:href="#DejaVuSans-48"/>
       <use x="63.623047" xlink:href="#DejaVuSans-46"/>
       <use x="95.410156" xlink:href="#DejaVuSans-56"/>
      </g>
     </g>
    </g>
    <g id="ytick_6">
     <g id="line2d_31">
      <path clip-path="url(#pfcf2ce8473)" d="M 57.6 30.334099 
L 338.688 30.334099 
" style="fill:none;stroke:#b0b0b0;stroke-linecap:square;stroke-width:0.8;"/>
     </g>
     <g id="line2d_32">
      <g>
       <use style="stroke:#000000;stroke-width:0.8;" x="57.6" xlink:href="#m56629687d5" y="30.334099"/>
      </g>
     </g>
     <g id="text_11">
      <!-- 1.0 -->
      <g transform="translate(25.155 36.412849)scale(0.16 -0.16)">
       <use xlink:href="#DejaVuSans-49"/>
       <use x="63.623047" xlink:href="#DejaVuSans-46"/>
       <use x="95.410156" xlink:href="#DejaVuSans-48"/>
      </g>
     </g>
    </g>
    <g id="text_12">
     <!-- Fraction of function,target pairs -->
     <defs>
      <path d="M 9.8125 72.90625 
L 51.703125 72.90625 
L 51.703125 64.59375 
L 19.671875 64.59375 
L 19.671875 43.109375 
L 48.578125 43.109375 
L 48.578125 34.8125 
L 19.671875 34.8125 
L 19.671875 0 
L 9.8125 0 
z
" id="DejaVuSans-70"/>
      <path d="M 41.109375 46.296875 
Q 39.59375 47.171875 37.8125 47.578125 
Q 36.03125 48 33.890625 48 
Q 26.265625 48 22.1875 43.046875 
Q 18.109375 38.09375 18.109375 28.8125 
L 18.109375 0 
L 9.078125 0 
L 9.078125 54.6875 
L 18.109375 54.6875 
L 18.109375 46.1875 
Q 20.953125 51.171875 25.484375 53.578125 
Q 30.03125 56 36.53125 56 
Q 37.453125 56 38.578125 55.875 
Q 39.703125 55.765625 41.0625 55.515625 
z
" id="DejaVuSans-114"/>
      <path d="M 48.78125 52.59375 
L 48.78125 44.1875 
Q 44.96875 46.296875 41.140625 47.34375 
Q 37.3125 48.390625 33.40625 48.390625 
Q 24.65625 48.390625 19.8125 42.84375 
Q 14.984375 37.3125 14.984375 27.296875 
Q 14.984375 17.28125 19.8125 11.734375 
Q 24.65625 6.203125 33.40625 6.203125 
Q 37.3125 6.203125 41.140625 7.25 
Q 44.96875 8.296875 48.78125 10.40625 
L 48.78125 2.09375 
Q 45.015625 0.34375 40.984375 -0.53125 
Q 36.96875 -1.421875 32.421875 -1.421875 
Q 20.0625 -1.421875 12.78125 6.34375 
Q 5.515625 14.109375 5.515625 27.296875 
Q 5.515625 40.671875 12.859375 48.328125 
Q 20.21875 56 33.015625 56 
Q 37.15625 56 41.109375 55.140625 
Q 45.0625 54.296875 48.78125 52.59375 
z
" id="DejaVuSans-99"/>
      <path d="M 18.3125 70.21875 
L 18.3125 54.6875 
L 36.8125 54.6875 
L 36.8125 47.703125 
L 18.3125 47.703125 
L 18.3125 18.015625 
Q 18.3125 11.328125 20.140625 9.421875 
Q 21.96875 7.515625 27.59375 7.515625 
L 36.8125 7.515625 
L 36.8125 0 
L 27.59375 0 
Q 17.1875 0 13.234375 3.875 
Q 9.28125 7.765625 9.28125 18.015625 
L 9.28125 47.703125 
L 2.6875 47.703125 
L 2.6875 54.6875 
L 9.28125 54.6875 
L 9.28125 70.21875 
z
" id="DejaVuSans-116"/>
      <path d="M 8.5 21.578125 
L 8.5 54.6875 
L 17.484375 54.6875 
L 17.484375 21.921875 
Q 17.484375 14.15625 20.5 10.265625 
Q 23.53125 6.390625 29.59375 6.390625 
Q 36.859375 6.390625 41.078125 11.03125 
Q 45.3125 15.671875 45.3125 23.6875 
L 45.3125 54.6875 
L 54.296875 54.6875 
L 54.296875 0 
L 45.3125 0 
L 45.3125 8.40625 
Q 42.046875 3.421875 37.71875 1 
Q 33.40625 -1.421875 27.6875 -1.421875 
Q 18.265625 -1.421875 13.375 4.4375 
Q 8.5 10.296875 8.5 21.578125 
z
M 31.109375 56 
z
" id="DejaVuSans-117"/>
      <path d="M 11.71875 12.40625 
L 22.015625 12.40625 
L 22.015625 4 
L 14.015625 -11.625 
L 7.71875 -11.625 
L 11.71875 4 
z
" id="DejaVuSans-44"/>
      <path d="M 18.109375 8.203125 
L 18.109375 -20.796875 
L 9.078125 -20.796875 
L 9.078125 54.6875 
L 18.109375 54.6875 
L 18.109375 46.390625 
Q 20.953125 51.265625 25.265625 53.625 
Q 29.59375 56 35.59375 56 
Q 45.5625 56 51.78125 48.09375 
Q 58.015625 40.1875 58.015625 27.296875 
Q 58.015625 14.40625 51.78125 6.484375 
Q 45.5625 -1.421875 35.59375 -1.421875 
Q 29.59375 -1.421875 25.265625 0.953125 
Q 20.953125 3.328125 18.109375 8.203125 
z
M 48.6875 27.296875 
Q 48.6875 37.203125 44.609375 42.84375 
Q 40.53125 48.484375 33.40625 48.484375 
Q 26.265625 48.484375 22.1875 42.84375 
Q 18.109375 37.203125 18.109375 27.296875 
Q 18.109375 17.390625 22.1875 11.75 
Q 26.265625 6.109375 33.40625 6.109375 
Q 40.53125 6.109375 44.609375 11.75 
Q 48.6875 17.390625 48.6875 27.296875 
z
" id="DejaVuSans-112"/>
     </defs>
     <g transform="translate(17.619531 297.681)rotate(-90)scale(0.17 -0.17)">
      <use xlink:href="#DejaVuSans-70"/>
      <use x="50.269531" xlink:href="#DejaVuSans-114"/>
      <use x="91.382812" xlink:href="#DejaVuSans-97"/>
      <use x="152.662109" xlink:href="#DejaVuSans-99"/>
      <use x="207.642578" xlink:href="#DejaVuSans-116"/>
      <use x="246.851562" xlink:href="#DejaVuSans-105"/>
      <use x="274.634766" xlink:href="#DejaVuSans-111"/>
      <use x="335.816406" xlink:href="#DejaVuSans-110"/>
      <use x="399.195312" xlink:href="#DejaVuSans-32"/>
      <use x="430.982422" xlink:href="#DejaVuSans-111"/>
      <use x="492.164062" xlink:href="#DejaVuSans-102"/>
      <use x="527.369141" xlink:href="#DejaVuSans-32"/>
      <use x="559.15625" xlink:href="#DejaVuSans-102"/>
      <use x="594.361328" xlink:href="#DejaVuSans-117"/>
      <use x="657.740234" xlink:href="#DejaVuSans-110"/>
      <use x="721.119141" xlink:href="#DejaVuSans-99"/>
      <use x="776.099609" xlink:href="#DejaVuSans-116"/>
      <use x="815.308594" xlink:href="#DejaVuSans-105"/>
      <use x="843.091797" xlink:href="#DejaVuSans-111"/>
      <use x="904.273438" xlink:href="#DejaVuSans-110"/>
      <use x="967.652344" xlink:href="#DejaVuSans-44"/>
      <use x="999.439453" xlink:href="#DejaVuSans-116"/>
      <use x="1038.648438" xlink:href="#DejaVuSans-97"/>
      <use x="1099.927734" xlink:href="#DejaVuSans-114"/>
      <use x="1139.291016" xlink:href="#DejaVuSans-103"/>
      <use x="1202.767578" xlink:href="#DejaVuSans-101"/>
      <use x="1264.291016" xlink:href="#DejaVuSans-116"/>
      <use x="1303.5" xlink:href="#DejaVuSans-32"/>
      <use x="1335.287109" xlink:href="#DejaVuSans-112"/>
      <use x="1398.763672" xlink:href="#DejaVuSans-97"/>
      <use x="1460.042969" xlink:href="#DejaVuSans-105"/>
      <use x="1487.826172" xlink:href="#DejaVuSans-114"/>
      <use x="1528.939453" xlink:href="#DejaVuSans-115"/>
     </g>
    </g>
   </g>
   <g id="line2d_33">
    <defs>
     <path d="M 0 1.5 
C 0.397805 1.5 0.77937 1.341951 1.06066 1.06066 
C 1.341951 0.77937 1.5 0.397805 1.5 0 
C 1.5 -0.397805 1.341951 -0.77937 1.06066 -1.06066 
C 0.77937 -1.341951 0.397805 -1.5 0 -1.5 
C -0.397805 -1.5 -0.77937 -1.341951 -1.06066 -1.06066 
C -1.341951 -0.77937 -1.5 -0.397805 -1.5 0 
C -1.5 0.397805 -1.341951 0.77937 -1.06066 1.06066 
C -0.77937 1.341951 -0.397805 1.5 0 1.5 
z
" id="m09db0006a2" style="stroke:#f5deb3;"/>
    </defs>
    <g>
     <use style="fill:#f5deb3;stroke:#f5deb3;" x="131.690703" xlink:href="#m09db0006a2" y="30.334099"/>
     <use style="fill:#f5deb3;stroke:#f5deb3;" x="131.690703" xlink:href="#m09db0006a2" y="30.334099"/>
    </g>
   </g>
   <g id="line2d_34">
    <defs>
     <path d="M 0 1.5 
C 0.397805 1.5 0.77937 1.341951 1.06066 1.06066 
C 1.341951 0.77937 1.5 0.397805 1.5 0 
C 1.5 -0.397805 1.341951 -0.77937 1.06066 -1.06066 
C 0.77937 -1.341951 0.397805 -1.5 0 -1.5 
C -0.397805 -1.5 -0.77937 -1.341951 -1.06066 -1.06066 
C -1.341951 -0.77937 -1.5 -0.397805 -1.5 0 
C -1.5 0.397805 -1.341951 0.77937 -1.06066 1.06066 
C -0.77937 1.341951 -0.397805 1.5 0 1.5 
z
" id="m400ced03e8" style="stroke:#000080;"/>
    </defs>
    <g>
     <use style="fill:#000080;stroke:#000080;" x="223.252629" xlink:href="#m400ced03e8" y="251.542253"/>
     <use style="fill:#000080;stroke:#000080;" x="223.252629" xlink:href="#m400ced03e8" y="251.542253"/>
    </g>
   </g>
   <g id="line2d_35">
    <path d="M 74.704957 298.944 
L 74.704957 297.890628 
L 78.59642 297.890628 
L 78.59642 295.783884 
L 84.464254 295.783884 
L 84.464254 294.730511 
L 86.792945 294.730511 
L 86.792945 293.677139 
L 96.552242 293.677139 
L 96.552242 293.150453 
L 98.880934 293.150453 
L 98.880934 289.463651 
L 104.826449 289.463651 
L 104.826449 287.356906 
L 119.43583 287.356906 
L 119.43583 286.83022 
L 120.254726 286.83022 
L 120.254726 286.303534 
L 121.638301 286.303534 
L 121.638301 285.776848 
L 122.362027 285.776848 
L 122.362027 285.250162 
L 128.107907 285.250162 
L 128.107907 284.723476 
L 130.487516 284.723476 
L 130.487516 284.19679 
L 131.355321 284.19679 
L 131.355321 282.616732 
L 132.422528 282.616732 
L 132.422528 279.983301 
L 136.645276 279.983301 
L 136.645276 278.929929 
L 136.831795 278.929929 
L 136.831795 278.403243 
L 138.482688 278.403243 
L 138.482688 277.349871 
L 140.39868 277.349871 
L 140.39868 275.769812 
L 141.378673 275.769812 
L 141.378673 274.71644 
L 142.884173 274.71644 
L 142.884173 273.663068 
L 143.985075 273.663068 
L 143.985075 273.136382 
L 148.76449 273.136382 
L 148.76449 271.029638 
L 159.320876 271.029638 
L 159.320876 270.502952 
L 160.758635 270.502952 
L 160.758635 269.976266 
L 161.405178 269.976266 
L 161.405178 269.449579 
L 162.700806 269.449579 
L 162.700806 268.922893 
L 164.923954 268.922893 
L 164.923954 267.869521 
L 167.201624 267.869521 
L 167.201624 266.816149 
L 167.449146 266.816149 
L 167.449146 266.289463 
L 167.923499 266.289463 
L 167.923499 265.236091 
L 170.29244 265.236091 
L 170.29244 263.656033 
L 171.578344 263.656033 
L 171.578344 263.129347 
L 172.538095 263.129347 
L 172.538095 262.60266 
L 172.862299 262.60266 
L 172.862299 262.075974 
L 176.94388 262.075974 
L 176.94388 261.549288 
L 177.257224 261.549288 
L 177.257224 261.022602 
L 179.164521 261.022602 
L 179.164521 260.495916 
L 181.356906 260.495916 
L 181.356906 259.96923 
L 184.226462 259.96923 
L 184.226462 259.442544 
L 184.883568 259.442544 
L 184.883568 258.915858 
L 187.085973 258.915858 
L 187.085973 258.389172 
L 192.644617 258.389172 
L 192.644617 257.862486 
L 197.74266 257.862486 
L 197.74266 256.809114 
L 198.048456 256.809114 
L 198.048456 256.282427 
L 203.454747 256.282427 
L 203.454747 255.755741 
L 205.464155 255.755741 
L 205.464155 254.702369 
L 212.7501 254.702369 
L 212.7501 253.122311 
L 216.933617 253.122311 
L 216.933617 252.595625 
L 220.54292 252.595625 
L 220.54292 252.068939 
L 223.252629 252.068939 
L 223.252629 251.542253 
L 338.688 251.542253 
" style="fill:none;stroke:#000080;stroke-linecap:square;stroke-width:1.5;"/>
   </g>
   <g id="line2d_36">
    <defs>
     <path d="M 0 6 
C 1.591219 6 3.117479 5.367802 4.242641 4.242641 
C 5.367802 3.117479 6 1.591219 6 0 
C 6 -1.591219 5.367802 -3.117479 4.242641 -4.242641 
C 3.117479 -5.367802 1.591219 -6 0 -6 
C -1.591219 -6 -3.117479 -5.367802 -4.242641 -4.242641 
C -5.367802 -3.117479 -6 -1.591219 -6 0 
C -6 1.591219 -5.367802 3.117479 -4.242641 4.242641 
C -3.117479 5.367802 -1.591219 6 0 6 
z
" id="m7a5d6a59ac" style="stroke:#000080;stroke-width:1.5;"/>
    </defs>
    <g>
     <use style="fill-opacity:0;stroke:#000080;stroke-width:1.5;" x="164.923954" xlink:href="#m7a5d6a59ac" y="267.869521"/>
     <use style="fill-opacity:0;stroke:#000080;stroke-width:1.5;" x="223.252629" xlink:href="#m7a5d6a59ac" y="252.068939"/>
     <use style="fill-opacity:0;stroke:#000080;stroke-width:1.5;" x="223.252629" xlink:href="#m7a5d6a59ac" y="251.542253"/>
     <use style="fill-opacity:0;stroke:#000080;stroke-width:1.5;" x="223.252629" xlink:href="#m7a5d6a59ac" y="251.542253"/>
     <use style="fill-opacity:0;stroke:#000080;stroke-width:1.5;" x="338.688" xlink:href="#m7a5d6a59ac" y="251.542253"/>
    </g>
   </g>
   <g id="line2d_37">
    <path style="fill:none;stroke:#000080;stroke-linecap:square;stroke-width:1.5;"/>
    <g/>
   </g>
   <g id="line2d_38">
    <path clip-path="url(#pfcf2ce8473)" d="M 186.974717 258.915858 
" style="fill:none;stroke:#000080;stroke-linecap:square;stroke-width:1.5;"/>
    <defs>
     <path d="M -12 12 
L 12 -12 
M -12 -12 
L 12 12 
" id="mce88df1200" style="stroke:#000080;"/>
    </defs>
    <g clip-path="url(#pfcf2ce8473)">
     <use style="fill:#000080;stroke:#000080;" x="186.974717" xlink:href="#mce88df1200" y="258.915858"/>
    </g>
   </g>
   <g id="line2d_39">
    <defs>
     <path d="M 0 1.5 
C 0.397805 1.5 0.77937 1.341951 1.06066 1.06066 
C 1.341951 0.77937 1.5 0.397805 1.5 0 
C 1.5 -0.397805 1.341951 -0.77937 1.06066 -1.06066 
C 0.77937 -1.341951 0.397805 -1.5 0 -1.5 
C -0.397805 -1.5 -0.77937 -1.341951 -1.06066 -1.06066 
C -1.341951 -0.77937 -1.5 -0.397805 -1.5 0 
C -1.5 0.397805 -1.341951 0.77937 -1.06066 1.06066 
C -0.77937 1.341951 -0.397805 1.5 0 1.5 
z
" id="m6ee49c61c7" style="stroke:#ff7500;"/>
    </defs>
    <g>
     <use style="fill:#ff7500;stroke:#ff7500;" x="258.832304" xlink:href="#m6ee49c61c7" y="30.334099"/>
     <use style="fill:#ff7500;stroke:#ff7500;" x="258.832304" xlink:href="#m6ee49c61c7" y="30.334099"/>
    </g>
   </g>
   <g id="line2d_40">
    <path d="M 90.684409 298.944 
L 90.684409 295.257197 
L 100.934985 295.257197 
L 100.934985 294.203825 
L 106.66386 294.203825 
L 106.66386 293.677139 
L 108.640231 293.677139 
L 108.640231 293.150453 
L 111.505558 293.150453 
L 111.505558 292.623767 
L 112.026172 292.623767 
L 112.026172 290.517023 
L 112.531694 290.517023 
L 112.531694 289.990337 
L 114.418861 289.990337 
L 114.418861 289.463651 
L 114.641021 289.463651 
L 114.641021 286.83022 
L 115.917635 286.83022 
L 115.917635 286.303534 
L 119.43583 286.303534 
L 119.43583 285.776848 
L 120.41399 285.776848 
L 120.41399 284.19679 
L 123.460928 284.19679 
L 123.460928 283.143418 
L 123.725164 283.143418 
L 123.725164 282.090045 
L 123.985457 282.090045 
L 123.985457 280.509987 
L 124.743806 280.509987 
L 124.743806 279.456615 
L 124.989434 279.456615 
L 124.989434 278.929929 
L 125.470548 278.929929 
L 125.470548 277.876557 
L 125.588781 277.876557 
L 125.588781 277.349871 
L 125.938745 277.349871 
L 125.938745 276.296499 
L 128.005624 276.296499 
L 128.005624 275.769812 
L 128.709321 275.769812 
L 128.709321 275.243126 
L 129.002426 275.243126 
L 129.002426 274.71644 
L 129.853291 274.71644 
L 129.853291 274.189754 
L 130.218525 274.189754 
L 130.218525 273.663068 
L 130.576266 273.663068 
L 130.576266 273.136382 
L 131.439773 273.136382 
L 131.439773 272.08301 
L 131.60746 272.08301 
L 131.60746 271.556324 
L 132.659801 271.556324 
L 132.659801 271.029638 
L 132.893889 271.029638 
L 132.893889 269.976266 
L 133.04822 269.976266 
L 133.124876 268.396207 
L 133.277185 268.396207 
L 133.277185 267.869521 
L 135.747468 267.869521 
L 135.747468 266.289463 
L 135.943785 266.289463 
L 135.943785 265.762777 
L 137.077422 265.762777 
L 137.077422 265.236091 
L 137.319638 265.236091 
L 137.319638 264.182719 
L 137.735587 264.182719 
L 137.735587 262.60266 
L 137.852629 262.60266 
L 137.852629 262.075974 
L 138.141844 262.075974 
L 138.141844 259.442544 
L 138.761723 259.442544 
L 138.761723 258.915858 
L 139.306744 258.915858 
L 139.306744 258.389172 
L 140.042245 258.389172 
L 140.042245 257.862486 
L 141.80232 257.862486 
L 141.848763 254.175683 
L 141.987354 254.175683 
L 141.987354 253.122311 
L 142.124852 253.122311 
L 142.124852 251.542253 
L 142.396639 251.542253 
L 142.396639 249.962195 
L 142.619936 249.962195 
L 142.619936 249.435508 
L 143.31586 249.435508 
L 143.31586 248.382136 
L 143.861538 248.382136 
L 143.861538 246.275392 
L 144.550287 246.275392 
L 144.550287 245.748706 
L 144.826168 245.748706 
L 144.826168 245.22202 
L 146.573414 245.22202 
L 146.573414 241.535217 
L 147.570215 241.535217 
L 147.636905 239.955159 
L 147.70334 239.955159 
L 147.70334 239.428473 
L 148.064279 239.428473 
L 148.064279 238.375101 
L 149.347388 238.375101 
L 149.347388 237.848415 
L 150.542526 237.848415 
L 150.542526 237.321729 
L 150.822008 237.321729 
L 150.822008 236.268356 
L 151.287083 236.268356 
L 151.287083 235.74167 
L 151.923236 235.74167 
L 151.923236 234.688298 
L 152.885298 234.688298 
L 152.909913 233.634926 
L 154.641235 233.634926 
L 154.663493 232.054868 
L 154.950294 232.054868 
L 154.972161 229.948123 
L 155.55245 229.948123 
L 155.55245 228.894751 
L 156.216093 228.894751 
L 156.277034 227.314693 
L 156.498681 227.314693 
L 156.498681 225.734635 
L 156.697761 225.734635 
L 156.697761 225.207949 
L 158.177196 225.207949 
L 158.249784 224.154577 
L 158.501489 224.154577 
L 158.572743 223.101204 
L 159.303838 223.101204 
L 159.303838 222.574518 
L 161.510643 222.574518 
L 161.510643 222.047832 
L 162.517456 222.047832 
L 162.517456 221.521146 
L 162.658665 221.521146 
L 162.658665 220.99446 
L 163.253165 220.99446 
L 163.253165 220.467774 
L 164.39735 220.467774 
L 164.39735 219.414402 
L 164.874481 219.414402 
L 164.874481 217.307658 
L 165.755989 217.307658 
L 165.826498 216.254285 
L 166.48249 216.254285 
L 166.48249 215.200913 
L 166.684622 215.200913 
L 166.684622 214.674227 
L 166.96153 214.674227 
L 166.96153 214.147541 
L 167.331204 214.147541 
L 167.331204 213.620855 
L 168.646632 213.620855 
L 168.646632 213.094169 
L 169.682742 213.094169 
L 169.682742 212.567483 
L 169.841835 212.567483 
L 169.841835 212.040797 
L 172.409924 212.040797 
L 172.409924 211.514111 
L 172.728604 211.514111 
L 172.728604 210.987425 
L 172.877961 210.987425 
L 172.877961 210.460738 
L 173.111214 210.460738 
L 173.111214 208.353994 
L 174.427309 208.353994 
L 174.427309 206.773936 
L 175.170413 206.773936 
L 175.170413 204.667192 
L 175.604215 204.667192 
L 175.604215 204.140506 
L 177.073587 204.140506 
L 177.073587 203.087133 
L 177.672393 203.087133 
L 177.672393 200.980389 
L 177.855749 200.980389 
L 177.855749 199.400331 
L 179.065994 199.400331 
L 179.065994 197.820273 
L 180.151313 197.820273 
L 180.151313 197.293586 
L 180.829143 197.293586 
L 180.829143 196.7669 
L 182.161179 196.7669 
L 182.161179 196.240214 
L 183.057076 196.240214 
L 183.057076 195.186842 
L 183.299894 195.186842 
L 183.299894 194.660156 
L 184.259097 194.660156 
L 184.34853 193.606784 
L 184.397118 193.606784 
L 184.397118 192.553412 
L 184.610114 192.553412 
L 184.610114 191.50004 
L 186.14616 191.50004 
L 186.14616 190.973354 
L 186.317224 190.973354 
L 186.317224 189.919981 
L 188.387767 189.919981 
L 188.46479 188.866609 
L 188.614649 188.866609 
L 188.614649 188.339923 
L 189.041166 188.339923 
L 189.041166 187.813237 
L 189.256696 187.813237 
L 189.256696 186.759865 
L 189.554033 186.759865 
L 189.554033 186.233179 
L 190.014199 186.233179 
L 190.087295 184.653121 
L 190.958018 184.653121 
L 190.958018 184.126434 
L 191.301565 184.126434 
L 191.301565 183.599748 
L 191.49911 183.599748 
L 191.515248 182.546376 
L 191.667814 182.546376 
L 191.715717 180.966318 
L 191.782031 180.966318 
L 191.782031 179.912946 
L 192.047402 179.912946 
L 192.047402 179.38626 
L 193.355617 179.38626 
L 193.447301 177.279515 
L 193.473751 177.279515 
L 193.473751 176.226143 
L 193.893938 176.226143 
L 193.893938 174.119399 
L 194.140812 174.119399 
L 194.140812 172.012655 
L 195.024574 172.012655 
L 195.024574 168.852538 
L 196.793704 168.852538 
L 196.793704 168.325852 
L 197.014757 168.325852 
L 197.014757 167.799166 
L 197.172898 167.799166 
L 197.213664 166.745794 
L 197.721956 166.745794 
L 197.821486 163.585677 
L 199.974916 163.585677 
L 199.974916 163.058991 
L 200.400006 163.058991 
L 200.400006 162.532305 
L 200.648582 162.532305 
L 200.648582 162.005619 
L 201.085727 162.005619 
L 201.085727 161.478933 
L 201.359978 161.478933 
L 201.359978 158.845503 
L 201.56665 158.845503 
L 201.56665 157.79213 
L 202.243716 157.79213 
L 202.243716 157.265444 
L 202.543382 157.265444 
L 202.613233 155.685386 
L 202.823936 155.685386 
L 202.863248 154.105328 
L 203.011276 154.105328 
L 203.100047 153.051956 
L 203.548038 153.051956 
L 203.58979 150.945211 
L 203.873991 150.945211 
L 203.873991 148.311781 
L 204.795487 148.311781 
L 204.795487 147.258409 
L 204.923064 147.258409 
L 204.923064 145.678351 
L 205.251441 145.678351 
L 205.30151 143.571606 
L 205.380595 143.571606 
L 205.380595 142.518234 
L 207.036555 142.518234 
L 207.036555 140.938176 
L 207.508136 140.938176 
L 207.508136 140.41149 
L 207.84231 140.41149 
L 207.887578 138.304745 
L 208.529574 138.304745 
L 208.529574 137.251373 
L 208.757108 137.251373 
L 208.862813 135.671315 
L 209.151708 135.671315 
L 209.248249 134.617943 
L 209.278369 134.617943 
L 209.278369 134.091257 
L 209.805235 134.091257 
L 209.805235 133.564571 
L 210.066065 133.564571 
L 210.156765 131.984513 
L 210.250668 131.984513 
L 210.250668 131.457826 
L 210.510396 131.457826 
L 210.588917 129.351082 
L 210.98863 129.351082 
L 210.98863 128.29771 
L 212.306148 128.29771 
L 212.401367 125.66428 
L 212.447568 125.66428 
L 212.447568 125.137593 
L 212.813628 125.137593 
L 212.813628 124.610907 
L 212.99264 124.610907 
L 213.016161 123.557535 
L 213.154293 123.557535 
L 213.236495 122.504163 
L 213.46172 122.504163 
L 213.537167 121.450791 
L 213.721735 121.450791 
L 213.721735 120.397419 
L 214.251597 120.397419 
L 214.325891 118.817361 
L 214.531813 118.817361 
L 214.594193 115.130558 
L 214.912627 115.130558 
L 214.912627 114.077186 
L 215.412787 114.077186 
L 215.412787 113.5505 
L 216.087257 113.5505 
L 216.087257 113.023814 
L 216.730279 113.023814 
L 216.730279 112.497128 
L 216.91483 112.497128 
L 216.976748 110.917069 
L 217.128422 110.917069 
L 217.128422 109.863697 
L 217.506174 109.863697 
L 217.614251 108.283639 
L 217.626887 108.283639 
L 217.626887 107.756953 
L 217.786151 107.756953 
L 217.849214 103.016778 
L 218.086326 103.016778 
L 218.113839 101.43672 
L 218.678971 101.43672 
L 218.678971 100.910034 
L 219.021571 100.910034 
L 219.096922 99.856662 
L 219.220873 99.856662 
L 219.220873 99.329976 
L 219.48726 99.329976 
L 219.48726 98.803289 
L 219.639588 98.803289 
L 219.639588 97.749917 
L 219.977143 97.749917 
L 220.084046 96.696545 
L 220.537321 96.696545 
L 220.591195 94.063115 
L 220.794009 94.063115 
L 220.794009 93.536429 
L 221.635604 93.536429 
L 221.635604 93.009743 
L 221.977321 93.009743 
L 222.082923 91.429684 
L 222.327635 91.429684 
L 222.425206 89.849626 
L 222.748798 89.849626 
L 222.819502 87.742882 
L 222.921472 87.742882 
L 222.936561 86.162824 
L 224.176114 86.162824 
L 224.26924 83.529393 
L 224.338965 83.529393 
L 224.432449 82.476021 
L 224.472709 82.476021 
L 224.571541 80.895963 
L 224.707528 80.895963 
L 224.707528 80.369277 
L 224.857966 80.369277 
L 224.857966 79.842591 
L 225.024441 79.842591 
L 225.045287 78.789218 
L 225.76301 78.789218 
L 225.76301 78.262532 
L 226.211747 78.262532 
L 226.211747 77.735846 
L 226.39388 77.735846 
L 226.39388 77.20916 
L 226.704355 77.20916 
L 226.704355 76.682474 
L 226.876841 76.682474 
L 226.884625 75.102416 
L 227.049039 75.102416 
L 227.049039 74.049044 
L 227.571993 74.049044 
L 227.571993 73.522358 
L 227.884079 73.522358 
L 227.884079 72.995672 
L 228.091607 72.995672 
L 228.091607 71.942299 
L 228.437378 71.942299 
L 228.488431 70.888927 
L 228.573083 70.888927 
L 228.590092 69.835555 
L 228.733529 69.835555 
L 228.733529 69.308869 
L 229.547769 69.308869 
L 229.547769 68.255497 
L 229.698327 68.255497 
L 229.698327 67.728811 
L 230.105342 67.728811 
L 230.124447 66.148752 
L 230.46509 66.148752 
L 230.46509 65.622066 
L 230.881815 65.622066 
L 230.881815 65.09538 
L 231.003463 65.09538 
L 231.003463 64.568694 
L 231.209496 64.568694 
L 231.209496 64.042008 
L 231.405755 64.042008 
L 231.515679 61.935264 
L 231.520289 61.935264 
L 231.520289 61.408578 
L 232.114997 61.408578 
L 232.114997 60.881892 
L 232.346953 60.881892 
L 232.346953 60.355206 
L 232.475267 60.355206 
L 232.537792 59.301833 
L 232.822961 59.301833 
L 232.822961 58.248461 
L 233.713792 58.248461 
L 233.772038 56.668403 
L 234.040686 56.668403 
L 234.147137 54.561659 
L 234.158096 54.561659 
L 234.158096 54.034973 
L 234.870161 54.034973 
L 234.924676 52.9816 
L 235.105982 52.9816 
L 235.173626 51.928228 
L 235.849561 51.928228 
L 235.849561 51.401542 
L 236.176291 51.401542 
L 236.242398 49.821484 
L 236.981677 49.821484 
L 236.981677 49.294798 
L 237.145457 49.294798 
L 237.145457 48.768112 
L 238.289622 48.768112 
L 238.289622 48.241426 
L 239.097913 48.241426 
L 239.097913 47.71474 
L 239.883996 47.71474 
L 239.954522 45.607995 
L 240.768305 45.607995 
L 240.843456 44.027937 
L 241.339179 44.027937 
L 241.339179 43.501251 
L 241.627405 43.501251 
L 241.627405 42.974565 
L 242.094682 42.974565 
L 242.094682 42.447879 
L 242.297564 42.447879 
L 242.297564 41.921193 
L 243.011102 41.921193 
L 243.011102 41.394507 
L 243.698881 41.394507 
L 243.762428 40.341135 
L 244.117208 40.341135 
L 244.117208 39.814448 
L 244.293427 39.814448 
L 244.293427 39.287762 
L 245.000181 39.287762 
L 245.000181 38.761076 
L 246.779675 38.761076 
L 246.783518 37.181018 
L 247.335896 37.181018 
L 247.335896 36.127646 
L 247.877259 36.127646 
L 247.877259 35.60096 
L 248.397789 35.60096 
L 248.397789 35.074274 
L 249.396869 35.074274 
L 249.396869 34.547588 
L 250.801524 34.547588 
L 250.801524 34.020902 
L 252.912766 34.020902 
L 252.912766 33.494215 
L 253.306845 33.494215 
L 253.306845 32.967529 
L 253.688716 32.967529 
L 253.688716 32.440843 
L 253.927129 32.440843 
L 253.927129 31.914157 
L 255.742371 31.914157 
L 255.742371 31.387471 
L 256.813944 31.387471 
L 256.813944 30.860785 
L 258.832304 30.860785 
L 258.832304 30.334099 
L 338.688 30.334099 
L 338.688 30.334099 
" style="fill:none;stroke:#ff7500;stroke-linecap:square;stroke-width:1.5;"/>
   </g>
   <g id="line2d_41">
    <defs>
     <path d="M 0 -6 
L -1.347084 -1.854102 
L -5.706339 -1.854102 
L -2.179628 0.708204 
L -3.526712 4.854102 
L -0 2.291796 
L 3.526712 4.854102 
L 2.179628 0.708204 
L 5.706339 -1.854102 
L 1.347084 -1.854102 
z
" id="m29f43dfe14" style="stroke:#ff7500;stroke-linejoin:bevel;stroke-width:1.5;"/>
    </defs>
    <g>
     <use style="fill-opacity:0;stroke:#ff7500;stroke-linejoin:bevel;stroke-width:1.5;" x="195.024574" xlink:href="#m29f43dfe14" y="172.012655"/>
     <use style="fill-opacity:0;stroke:#ff7500;stroke-linejoin:bevel;stroke-width:1.5;" x="245.000181" xlink:href="#m29f43dfe14" y="38.761076"/>
     <use style="fill-opacity:0;stroke:#ff7500;stroke-linejoin:bevel;stroke-width:1.5;" x="258.832304" xlink:href="#m29f43dfe14" y="30.334099"/>
     <use style="fill-opacity:0;stroke:#ff7500;stroke-linejoin:bevel;stroke-width:1.5;" x="258.832304" xlink:href="#m29f43dfe14" y="30.334099"/>
     <use style="fill-opacity:0;stroke:#ff7500;stroke-linejoin:bevel;stroke-width:1.5;" x="338.688" xlink:href="#m29f43dfe14" y="30.334099"/>
    </g>
   </g>
   <g id="line2d_42">
    <path style="fill:none;stroke:#ff7500;stroke-linecap:square;stroke-width:1.5;"/>
    <g/>
   </g>
   <g id="line2d_43">
    <path clip-path="url(#pfcf2ce8473)" d="M 186.974717 189.919981 
" style="fill:none;stroke:#ff7500;stroke-linecap:square;stroke-width:1.5;"/>
    <defs>
     <path d="M -12 12 
L 12 -12 
M -12 -12 
L 12 12 
" id="m5bcd01b516" style="stroke:#ff7500;"/>
    </defs>
    <g clip-path="url(#pfcf2ce8473)">
     <use style="fill:#ff7500;stroke:#ff7500;" x="186.974717" xlink:href="#m5bcd01b516" y="189.919981"/>
    </g>
   </g>
   <g id="line2d_44">
    <defs>
     <path d="M 0 1.5 
C 0.397805 1.5 0.77937 1.341951 1.06066 1.06066 
C 1.341951 0.77937 1.5 0.397805 1.5 0 
C 1.5 -0.397805 1.341951 -0.77937 1.06066 -1.06066 
C 0.77937 -1.341951 0.397805 -1.5 0 -1.5 
C -0.397805 -1.5 -0.77937 -1.341951 -1.06066 -1.06066 
C -1.341951 -0.77937 -1.5 -0.397805 -1.5 0 
C -1.5 0.397805 -1.341951 0.77937 -1.06066 1.06066 
C -0.77937 1.341951 -0.397805 1.5 0 1.5 
z
" id="mbfb5c23202" style="stroke:#6495ed;"/>
    </defs>
    <g>
     <use style="fill:#6495ed;stroke:#6495ed;" x="245.596009" xlink:href="#mbfb5c23202" y="146.205037"/>
     <use style="fill:#6495ed;stroke:#6495ed;" x="245.596009" xlink:href="#mbfb5c23202" y="146.205037"/>
    </g>
   </g>
   <g id="line2d_45">
    <path d="M 90.684409 298.944 
L 90.684409 296.837256 
L 100.934985 296.837256 
L 100.934985 295.257197 
L 106.66386 295.257197 
L 106.66386 294.730511 
L 108.640231 294.730511 
L 108.640231 293.150453 
L 109.843417 293.150453 
L 109.843417 292.623767 
L 111.767808 292.623767 
L 111.767808 291.570395 
L 112.026172 291.570395 
L 112.026172 289.990337 
L 113.73488 289.990337 
L 113.73488 287.356906 
L 116.121606 287.356906 
L 116.121606 286.83022 
L 118.751849 286.83022 
L 118.751849 285.250162 
L 119.931767 285.250162 
L 119.931767 284.19679 
L 120.41399 284.19679 
L 120.41399 283.143418 
L 123.056911 283.143418 
L 123.056911 281.036673 
L 123.327293 281.036673 
L 123.327293 279.456615 
L 124.114161 279.456615 
L 124.114161 278.929929 
L 124.494669 278.929929 
L 124.494669 277.349871 
L 124.743806 277.349871 
L 124.743806 276.823185 
L 124.989434 276.823185 
L 124.989434 274.71644 
L 125.351508 274.71644 
L 125.351508 273.136382 
L 125.470548 273.136382 
L 125.470548 272.609696 
L 126.618283 272.609696 
L 126.618283 272.08301 
L 127.272333 272.08301 
L 127.378995 270.502952 
L 131.690703 270.502952 
L 131.690703 269.449579 
L 132.181982 269.449579 
L 132.181982 268.922893 
L 133.201197 268.922893 
L 133.277185 267.869521 
L 135.615352 267.869521 
L 135.615352 267.342835 
L 135.813153 267.342835 
L 135.813153 266.289463 
L 136.266147 266.289463 
L 136.266147 265.762777 
L 136.519813 265.762777 
L 136.519813 264.182719 
L 137.37967 264.182719 
L 137.37967 262.60266 
L 137.968891 262.60266 
L 137.968891 262.075974 
L 138.084384 262.075974 
L 138.084384 261.549288 
L 139.887228 261.549288 
L 139.887228 261.022602 
L 140.44901 261.022602 
L 140.44901 260.495916 
L 141.615302 260.495916 
L 141.615302 259.442544 
L 141.941279 259.442544 
L 141.941279 257.862486 
L 142.215919 257.862486 
L 142.215919 256.282427 
L 142.351634 256.282427 
L 142.351634 254.702369 
L 142.927826 254.702369 
L 142.927826 254.175683 
L 144.148442 254.175683 
L 144.148442 253.122311 
L 145.478539 253.122311 
L 145.478539 252.068939 
L 146.644018 252.068939 
L 146.644018 251.542253 
L 147.130404 251.542253 
L 147.130404 251.015567 
L 147.603592 251.015567 
L 147.603592 249.962195 
L 148.54473 249.962195 
L 148.54473 249.435508 
L 148.733265 249.435508 
L 148.733265 248.908822 
L 150.849711 248.908822 
L 150.849711 248.382136 
L 151.260066 248.382136 
L 151.260066 247.85545 
L 151.792604 247.85545 
L 151.792604 247.328764 
L 152.001148 247.328764 
L 152.001148 246.275392 
L 152.511852 246.275392 
L 152.511852 245.748706 
L 153.202607 245.748706 
L 153.250915 243.115275 
L 153.537988 243.115275 
L 153.537988 242.588589 
L 155.55245 242.588589 
L 155.55245 242.061903 
L 156.175347 242.061903 
L 156.175347 241.535217 
L 156.972711 241.535217 
L 156.972711 239.955159 
L 157.20498 239.955159 
L 157.20498 238.901787 
L 157.415209 238.901787 
L 157.415209 238.375101 
L 157.79107 238.375101 
L 157.79107 237.848415 
L 158.714382 237.848415 
L 158.714382 237.321729 
L 160.394148 237.321729 
L 160.394148 236.795043 
L 160.569418 236.795043 
L 160.569418 234.688298 
L 161.283861 234.688298 
L 161.283861 234.161612 
L 161.540659 234.161612 
L 161.540659 233.10824 
L 162.101361 233.10824 
L 162.130378 231.528182 
L 162.332157 231.528182 
L 162.332157 230.47481 
L 163.656248 230.47481 
L 163.748975 229.421437 
L 163.880593 229.421437 
L 163.946031 228.368065 
L 164.460881 228.368065 
L 164.460881 227.314693 
L 165.278497 227.314693 
L 165.326839 226.261321 
L 166.013141 226.261321 
L 166.013141 225.734635 
L 166.266556 225.734635 
L 166.266556 224.154577 
L 166.751482 224.154577 
L 166.751482 223.627891 
L 167.481174 223.627891 
L 167.481174 222.574518 
L 167.608702 222.574518 
L 167.608702 221.521146 
L 167.850553 221.521146 
L 167.850553 220.99446 
L 168.068482 220.99446 
L 168.089095 219.414402 
L 169.407953 219.414402 
L 169.407953 217.307658 
L 169.729685 217.307658 
L 169.729685 214.674227 
L 170.607318 214.674227 
L 170.607318 213.094169 
L 170.872762 213.094169 
L 170.872762 212.567483 
L 171.928978 212.567483 
L 171.928978 212.040797 
L 174.028886 212.040797 
L 174.028886 210.460738 
L 174.211117 210.460738 
L 174.211117 209.934052 
L 174.513041 209.934052 
L 174.513041 209.407366 
L 174.921573 209.407366 
L 174.921573 207.827308 
L 175.843568 207.827308 
L 175.843568 207.300622 
L 176.196549 207.300622 
L 176.196549 206.24725 
L 177.190115 206.24725 
L 177.202336 205.193878 
L 177.690222 205.193878 
L 177.690222 204.667192 
L 177.843977 204.667192 
L 177.867512 203.087133 
L 178.019719 203.087133 
L 178.019719 202.560447 
L 178.182162 202.560447 
L 178.182162 202.033761 
L 178.308742 202.033761 
L 178.308742 200.453703 
L 178.576125 200.453703 
L 178.660604 199.400331 
L 179.202687 199.400331 
L 179.202687 198.873645 
L 179.917643 198.873645 
L 179.917643 197.820273 
L 180.351324 197.820273 
L 180.351324 197.293586 
L 180.709661 197.293586 
L 180.709661 196.7669 
L 181.148688 196.7669 
L 181.148688 196.240214 
L 181.352092 196.240214 
L 181.443334 192.553412 
L 181.553151 192.553412 
L 181.553151 192.026726 
L 181.850459 192.026726 
L 181.911182 190.446667 
L 182.330427 190.446667 
L 182.330427 189.919981 
L 182.619357 189.919981 
L 182.708675 188.866609 
L 182.92119 188.866609 
L 182.92119 188.339923 
L 183.556359 188.339923 
L 183.602971 186.233179 
L 183.846704 186.233179 
L 183.846704 185.706493 
L 184.0087 185.706493 
L 184.078845 184.653121 
L 184.283534 184.653121 
L 184.283534 184.126434 
L 185.37594 184.126434 
L 185.37594 183.599748 
L 185.550905 183.599748 
L 185.550905 183.073062 
L 186.168092 183.073062 
L 186.200937 182.01969 
L 186.654399 182.01969 
L 186.70052 180.966318 
L 186.827609 180.966318 
L 186.827609 180.439632 
L 192.403582 180.439632 
L 192.403582 179.912946 
L 195.262559 179.912946 
L 195.262559 178.859574 
L 195.888729 178.859574 
L 195.888729 178.332888 
L 196.024184 178.332888 
L 196.024184 177.806202 
L 196.391859 177.806202 
L 196.391859 177.279515 
L 196.515406 177.279515 
L 196.515406 176.226143 
L 196.688114 176.226143 
L 196.688114 175.699457 
L 196.902607 175.699457 
L 196.902607 175.172771 
L 197.153452 175.172771 
L 197.153452 174.646085 
L 197.343095 174.646085 
L 197.343095 174.119399 
L 197.458194 174.119399 
L 197.458194 173.592713 
L 197.768975 173.592713 
L 197.768975 173.066027 
L 202.880069 173.066027 
L 202.880069 172.539341 
L 204.453206 172.539341 
L 204.477513 169.90591 
L 205.00636 169.90591 
L 205.00636 168.852538 
L 205.220841 168.852538 
L 205.220841 168.325852 
L 206.027605 168.325852 
L 206.027605 167.799166 
L 209.353927 167.799166 
L 209.353927 166.219108 
L 209.715524 166.219108 
L 209.715524 165.692422 
L 210.012163 165.692422 
L 210.012163 165.165736 
L 210.366885 165.165736 
L 210.397867 164.112363 
L 210.515823 164.112363 
L 210.515823 163.585677 
L 214.067418 163.585677 
L 214.067418 163.058991 
L 214.713311 163.058991 
L 214.713311 162.532305 
L 217.413262 162.532305 
L 217.413262 162.005619 
L 217.723457 162.005619 
L 217.801045 160.425561 
L 217.948108 160.425561 
L 217.948108 159.898875 
L 220.2095 159.898875 
L 220.219352 158.318817 
L 220.466423 158.318817 
L 220.466423 157.79213 
L 220.675735 157.79213 
L 220.675735 157.265444 
L 220.871083 157.265444 
L 220.871083 156.738758 
L 224.516929 156.738758 
L 224.516929 156.212072 
L 224.757951 156.212072 
L 224.795873 154.632014 
L 225.26248 154.632014 
L 225.26248 154.105328 
L 226.627701 154.105328 
L 226.627701 153.578642 
L 226.799522 153.578642 
L 226.832903 151.998584 
L 228.160128 151.998584 
L 228.160128 150.945211 
L 228.355965 150.945211 
L 228.355965 150.418525 
L 228.522277 150.418525 
L 228.522277 149.365153 
L 229.910161 149.365153 
L 229.910161 148.838467 
L 231.451822 148.838467 
L 231.451822 148.311781 
L 236.102845 148.311781 
L 236.102845 147.785095 
L 240.745793 147.785095 
L 240.745793 147.258409 
L 241.526868 147.258409 
L 241.526868 146.731723 
L 245.596009 146.731723 
L 245.596009 146.205037 
L 338.688 146.205037 
L 338.688 146.205037 
" style="fill:none;stroke:#6495ed;stroke-linecap:square;stroke-width:1.5;"/>
   </g>
   <g id="line2d_46">
    <defs>
     <path d="M -0 6 
L 6 -6 
L -6 -6 
z
" id="m2505b0a0e6" style="stroke:#6495ed;stroke-linejoin:miter;stroke-width:1.5;"/>
    </defs>
    <g>
     <use style="fill-opacity:0;stroke:#6495ed;stroke-linejoin:miter;stroke-width:1.5;" x="127.378995" xlink:href="#m2505b0a0e6" y="270.502952"/>
     <use style="fill-opacity:0;stroke:#6495ed;stroke-linejoin:miter;stroke-width:1.5;" x="205.220841" xlink:href="#m2505b0a0e6" y="168.325852"/>
     <use style="fill-opacity:0;stroke:#6495ed;stroke-linejoin:miter;stroke-width:1.5;" x="245.596009" xlink:href="#m2505b0a0e6" y="146.731723"/>
     <use style="fill-opacity:0;stroke:#6495ed;stroke-linejoin:miter;stroke-width:1.5;" x="245.596009" xlink:href="#m2505b0a0e6" y="146.205037"/>
     <use style="fill-opacity:0;stroke:#6495ed;stroke-linejoin:miter;stroke-width:1.5;" x="338.688" xlink:href="#m2505b0a0e6" y="146.205037"/>
    </g>
   </g>
   <g id="line2d_47">
    <path style="fill:none;stroke:#6495ed;stroke-linecap:square;stroke-width:1.5;"/>
    <g/>
   </g>
   <g id="line2d_48">
    <path clip-path="url(#pfcf2ce8473)" d="M 186.974717 180.439632 
" style="fill:none;stroke:#6495ed;stroke-linecap:square;stroke-width:1.5;"/>
    <defs>
     <path d="M -12 12 
L 12 -12 
M -12 -12 
L 12 12 
" id="me784e0f3a0" style="stroke:#6495ed;"/>
    </defs>
    <g clip-path="url(#pfcf2ce8473)">
     <use style="fill:#6495ed;stroke:#6495ed;" x="186.974717" xlink:href="#me784e0f3a0" y="180.439632"/>
    </g>
   </g>
   <g id="line2d_49">
    <defs>
     <path d="M 0 1.5 
C 0.397805 1.5 0.77937 1.341951 1.06066 1.06066 
C 1.341951 0.77937 1.5 0.397805 1.5 0 
C 1.5 -0.397805 1.341951 -0.77937 1.06066 -1.06066 
C 0.77937 -1.341951 0.397805 -1.5 0 -1.5 
C -0.397805 -1.5 -0.77937 -1.341951 -1.06066 -1.06066 
C -1.341951 -0.77937 -1.5 -0.397805 -1.5 0 
C -1.5 0.397805 -1.341951 0.77937 -1.06066 1.06066 
C -0.77937 1.341951 -0.397805 1.5 0 1.5 
z
" id="m15726b5814" style="stroke:#ff0000;"/>
    </defs>
    <g>
     <use style="fill:#ff0000;stroke:#ff0000;" x="182.92119" xlink:href="#m15726b5814" y="30.334099"/>
     <use style="fill:#ff0000;stroke:#ff0000;" x="182.92119" xlink:href="#m15726b5814" y="30.334099"/>
    </g>
   </g>
   <g id="line2d_50">
    <path d="M 90.684409 298.944 
L 90.684409 296.31057 
L 100.934985 296.31057 
L 100.934985 294.730511 
L 106.66386 294.730511 
L 106.66386 293.677139 
L 108.640231 293.677139 
L 108.640231 290.517023 
L 111.505558 290.517023 
L 111.505558 289.990337 
L 112.026172 289.990337 
L 112.026172 288.936964 
L 112.531694 288.936964 
L 112.531694 288.410278 
L 113.73488 288.410278 
L 113.73488 285.776848 
L 115.711251 285.776848 
L 115.711251 285.250162 
L 116.719583 285.250162 
L 116.719583 284.723476 
L 118.039942 284.723476 
L 118.039942 284.19679 
L 118.399528 284.19679 
L 118.399528 283.670104 
L 118.576578 283.670104 
L 118.576578 282.616732 
L 119.267333 282.616732 
L 119.267333 281.563359 
L 119.768017 281.563359 
L 119.768017 280.509987 
L 121.489881 280.509987 
L 121.489881 278.929929 
L 123.056911 278.929929 
L 123.056911 278.403243 
L 123.327293 278.403243 
L 123.327293 276.823185 
L 123.725164 276.823185 
L 123.725164 275.769812 
L 123.855796 275.769812 
L 123.855796 274.71644 
L 124.743806 274.71644 
L 124.743806 273.663068 
L 125.470548 273.663068 
L 125.470548 271.556324 
L 125.588781 271.556324 
L 125.588781 269.449579 
L 126.168212 269.449579 
L 126.168212 267.869521 
L 126.618283 267.869521 
L 126.618283 266.289463 
L 127.272333 266.289463 
L 127.272333 265.762777 
L 127.590383 265.762777 
L 127.590383 265.236091 
L 128.107907 265.236091 
L 128.107907 264.709405 
L 128.411207 264.709405 
L 128.411207 263.129347 
L 128.709321 263.129347 
L 128.709321 262.60266 
L 129.290685 262.60266 
L 129.290685 262.075974 
L 129.667765 262.075974 
L 129.667765 260.495916 
L 129.853291 260.495916 
L 129.853291 259.96923 
L 130.576266 259.96923 
L 130.576266 259.442544 
L 130.752422 259.442544 
L 130.752422 258.915858 
L 131.690703 258.915858 
L 131.77355 257.862486 
L 132.019755 257.862486 
L 132.019755 254.702369 
L 132.262533 254.702369 
L 132.342714 251.542253 
L 133.277185 251.542253 
L 133.277185 250.488881 
L 135.00812 250.488881 
L 135.00812 249.435508 
L 135.878591 249.435508 
L 135.878591 248.908822 
L 136.137916 248.908822 
L 136.137916 248.382136 
L 136.645276 248.382136 
L 136.645276 244.695334 
L 137.617753 244.695334 
L 137.617753 244.168648 
L 138.369812 244.168648 
L 138.369812 243.641962 
L 140.195896 243.641962 
L 140.195896 243.115275 
L 140.348205 243.115275 
L 140.348205 242.588589 
L 140.944478 242.588589 
L 140.944478 242.061903 
L 141.521035 242.061903 
L 141.521035 241.008531 
L 142.708461 241.008531 
L 142.708461 240.481845 
L 143.485587 240.481845 
L 143.485587 239.428473 
L 143.902815 239.428473 
L 143.902815 234.688298 
L 144.189046 234.688298 
L 144.189046 234.161612 
L 147.164632 234.161612 
L 147.164632 233.634926 
L 147.436066 233.634926 
L 147.436066 232.581554 
L 148.857832 232.581554 
L 148.857832 232.054868 
L 149.195872 232.054868 
L 149.195872 231.001496 
L 149.587107 231.001496 
L 149.616841 229.421437 
L 150.31567 229.421437 
L 150.31567 228.894751 
L 150.570677 228.894751 
L 150.570677 228.368065 
L 150.738632 228.368065 
L 150.738632 227.841379 
L 151.76636 227.841379 
L 151.76636 227.314693 
L 152.612222 227.314693 
L 152.712018 226.261321 
L 152.934492 226.261321 
L 152.934492 225.734635 
L 153.275019 225.734635 
L 153.275019 225.207949 
L 153.843742 225.207949 
L 153.913546 224.154577 
L 154.029268 224.154577 
L 154.029268 223.627891 
L 155.594676 223.627891 
L 155.594676 223.101204 
L 157.902267 223.101204 
L 157.902267 222.574518 
L 158.358103 222.574518 
L 158.358103 221.521146 
L 159.405822 221.521146 
L 159.439685 220.467774 
L 159.574482 220.467774 
L 159.574482 219.941088 
L 160.087195 219.941088 
L 160.087195 218.887716 
L 160.836873 218.887716 
L 160.836873 218.36103 
L 161.359783 218.36103 
L 161.359783 217.834344 
L 163.402046 217.834344 
L 163.402046 217.307658 
L 164.384616 217.307658 
L 164.486229 216.254285 
L 164.562052 216.254285 
L 164.562052 215.200913 
L 164.737701 215.200913 
L 164.737701 214.674227 
L 164.849691 214.674227 
L 164.911599 213.094169 
L 165.059286 213.094169 
L 165.059286 212.567483 
L 165.193576 212.567483 
L 165.193576 212.040797 
L 165.326839 212.040797 
L 165.326839 211.514111 
L 165.896723 211.514111 
L 165.9084 210.460738 
L 166.08262 210.460738 
L 166.08262 209.934052 
L 166.751482 209.934052 
L 166.751482 209.407366 
L 167.672117 209.407366 
L 167.672117 207.827308 
L 167.808732 207.827308 
L 167.808732 207.300622 
L 168.48627 207.300622 
L 168.536542 205.193878 
L 168.894283 205.193878 
L 168.894283 204.667192 
L 169.16754 204.667192 
L 169.264103 203.613819 
L 169.283352 203.613819 
L 169.283352 203.087133 
L 169.682742 203.087133 
L 169.682742 202.560447 
L 170.192293 202.560447 
L 170.192293 201.507075 
L 170.346825 201.507075 
L 170.346825 200.980389 
L 170.553741 200.980389 
L 170.553741 199.927017 
L 170.819995 199.927017 
L 170.916612 198.346959 
L 171.099589 198.346959 
L 171.203291 197.293586 
L 171.220515 197.293586 
L 171.263501 195.186842 
L 171.603625 195.186842 
L 171.603625 194.660156 
L 171.72948 194.660156 
L 171.829514 193.606784 
L 171.895887 193.606784 
L 171.928978 192.553412 
L 172.224011 192.553412 
L 172.256486 191.50004 
L 172.337411 191.50004 
L 172.337411 190.973354 
L 172.538095 190.973354 
L 172.538095 190.446667 
L 172.760154 190.446667 
L 172.83878 187.813237 
L 172.885786 187.813237 
L 172.901427 185.706493 
L 173.018286 185.706493 
L 173.018286 184.653121 
L 173.211329 184.653121 
L 173.318507 183.599748 
L 173.379457 183.599748 
L 173.38706 182.546376 
L 173.628647 182.546376 
L 173.636143 180.966318 
L 173.755642 180.966318 
L 173.859536 179.38626 
L 173.933369 179.38626 
L 174.028886 178.332888 
L 174.189349 178.332888 
L 174.297915 176.226143 
L 174.31234 176.226143 
L 174.31234 175.172771 
L 174.427309 175.172771 
L 174.505913 174.119399 
L 174.541525 174.119399 
L 174.541525 173.592713 
L 174.69736 173.592713 
L 174.795808 170.959282 
L 174.816832 170.959282 
L 174.872772 168.852538 
L 174.935491 168.852538 
L 174.977178 166.745794 
L 175.074063 166.745794 
L 175.115421 165.165736 
L 175.204695 165.165736 
L 175.307139 164.112363 
L 175.334356 164.112363 
L 175.347948 163.058991 
L 175.610908 163.058991 
L 175.657689 161.478933 
L 175.744237 161.478933 
L 175.85017 157.79213 
L 175.869961 157.79213 
L 175.909476 155.1587 
L 176.131719 155.1587 
L 176.209486 150.945211 
L 176.299779 150.945211 
L 176.402401 147.785095 
L 176.529835 147.785095 
L 176.567884 145.678351 
L 176.656344 145.678351 
L 176.750628 141.464862 
L 176.775685 141.464862 
L 176.781943 139.884804 
L 176.894213 139.884804 
L 176.968661 136.198001 
L 177.011942 136.198001 
L 177.116609 130.404454 
L 177.147274 130.404454 
L 177.214548 127.771024 
L 177.299796 127.771024 
L 177.390674 122.504163 
L 177.48709 122.504163 
L 177.582976 119.870733 
L 177.624761 119.870733 
L 177.672393 108.810325 
L 177.861631 108.810325 
L 177.92621 104.07015 
L 178.008058 104.07015 
L 178.101129 99.856662 
L 178.25707 99.856662 
L 178.331659 97.749917 
L 178.388818 97.749917 
L 178.468527 95.116487 
L 178.55918 95.116487 
L 178.649364 93.009743 
L 178.671837 93.009743 
L 178.778192 84.056079 
L 178.783772 84.056079 
L 178.845031 79.315904 
L 179.005507 79.315904 
L 179.093418 74.57573 
L 179.180888 74.57573 
L 179.273347 71.415613 
L 179.440696 71.415613 
L 179.499694 69.308869 
L 179.648977 69.308869 
L 179.707275 66.675439 
L 179.770653 66.675439 
L 179.770653 65.622066 
L 179.901953 65.622066 
L 180.006287 60.355206 
L 180.068589 60.355206 
L 180.135832 57.721775 
L 180.182234 57.721775 
L 180.284908 53.508287 
L 180.330916 53.508287 
L 180.376802 50.874856 
L 180.463148 50.874856 
L 180.518792 44.554623 
L 180.609464 44.554623 
L 180.704665 41.921193 
L 180.754563 41.921193 
L 180.754563 41.394507 
L 180.878686 41.394507 
L 180.878686 40.867821 
L 181.119435 40.867821 
L 181.119435 38.761076 
L 181.289386 38.761076 
L 181.352092 37.181018 
L 181.448123 37.181018 
L 181.448123 36.654332 
L 181.562667 36.654332 
L 181.657549 34.020902 
L 182.202498 34.020902 
L 182.202498 32.967529 
L 182.565546 32.967529 
L 182.565546 31.914157 
L 182.708675 31.914157 
L 182.708675 30.860785 
L 182.92119 30.860785 
L 182.92119 30.334099 
L 338.688 30.334099 
L 338.688 30.334099 
" style="fill:none;stroke:#ff0000;stroke-linecap:square;stroke-width:1.5;"/>
   </g>
   <g id="line2d_51">
    <defs>
     <path d="M 0 -6 
L -5.196152 -3 
L -5.196152 3 
L -0 6 
L 5.196152 3 
L 5.196152 -3 
z
" id="m9eeff44d49" style="stroke:#ff0000;stroke-linejoin:miter;stroke-width:1.5;"/>
    </defs>
    <g>
     <use style="fill-opacity:0;stroke:#ff0000;stroke-linejoin:miter;stroke-width:1.5;" x="165.326839" xlink:href="#m9eeff44d49" y="212.040797"/>
     <use style="fill-opacity:0;stroke:#ff0000;stroke-linejoin:miter;stroke-width:1.5;" x="178.440102" xlink:href="#m9eeff44d49" y="95.643173"/>
     <use style="fill-opacity:0;stroke:#ff0000;stroke-linejoin:miter;stroke-width:1.5;" x="182.92119" xlink:href="#m9eeff44d49" y="30.334099"/>
     <use style="fill-opacity:0;stroke:#ff0000;stroke-linejoin:miter;stroke-width:1.5;" x="182.92119" xlink:href="#m9eeff44d49" y="30.334099"/>
     <use style="fill-opacity:0;stroke:#ff0000;stroke-linejoin:miter;stroke-width:1.5;" x="338.688" xlink:href="#m9eeff44d49" y="30.334099"/>
    </g>
   </g>
   <g id="line2d_52">
    <path style="fill:none;stroke:#ff0000;stroke-linecap:square;stroke-width:1.5;"/>
    <g/>
   </g>
   <g id="line2d_53">
    <path d="M 338.688 251.542253 
L 369.60768 293.571802 
" style="fill:none;stroke:#000080;stroke-linecap:square;stroke-width:1.5;"/>
    <g>
     <use style="fill-opacity:0;stroke:#000080;stroke-width:1.5;" x="338.688" xlink:href="#m7a5d6a59ac" y="251.542253"/>
     <use style="fill-opacity:0;stroke:#000080;stroke-width:1.5;" x="369.60768" xlink:href="#m7a5d6a59ac" y="293.571802"/>
    </g>
   </g>
   <g id="line2d_54">
    <path d="M 338.688 146.205037 
L 369.60768 229.105426 
" style="fill:none;stroke:#6495ed;stroke-linecap:square;stroke-width:1.5;"/>
    <g>
     <use style="fill-opacity:0;stroke:#6495ed;stroke-linejoin:miter;stroke-width:1.5;" x="338.688" xlink:href="#m2505b0a0e6" y="146.205037"/>
     <use style="fill-opacity:0;stroke:#6495ed;stroke-linejoin:miter;stroke-width:1.5;" x="369.60768" xlink:href="#m2505b0a0e6" y="229.105426"/>
    </g>
   </g>
   <g id="line2d_55">
    <path d="M 338.688 30.334099 
L 369.60768 164.63905 
" style="fill:none;stroke:#ff7500;stroke-linecap:square;stroke-width:1.5;"/>
    <g>
     <use style="fill-opacity:0;stroke:#ff7500;stroke-linejoin:bevel;stroke-width:1.5;" x="338.688" xlink:href="#m29f43dfe14" y="30.334099"/>
     <use style="fill-opacity:0;stroke:#ff7500;stroke-linejoin:bevel;stroke-width:1.5;" x="369.60768" xlink:href="#m29f43dfe14" y="164.63905"/>
    </g>
   </g>
   <g id="line2d_56">
    <path d="M 338.688 30.334099 
L 369.60768 100.172673 
" style="fill:none;stroke:#ff0000;stroke-linecap:square;stroke-width:1.5;"/>
    <g>
     <use style="fill-opacity:0;stroke:#ff0000;stroke-linejoin:miter;stroke-width:1.5;" x="338.688" xlink:href="#m9eeff44d49" y="30.334099"/>
     <use style="fill-opacity:0;stroke:#ff0000;stroke-linejoin:miter;stroke-width:1.5;" x="369.60768" xlink:href="#m9eeff44d49" y="100.172673"/>
    </g>
   </g>
   <g id="line2d_57">
    <path d="M 338.688 298.944 
L 338.688 30.334099 
" style="fill:none;stroke:#000000;stroke-linecap:square;stroke-width:1.5;"/>
   </g>
   <g id="patch_3">
    <path d="M 57.6 298.944 
L 57.6 27.648 
" style="fill:none;stroke:#000000;stroke-linecap:square;stroke-linejoin:miter;stroke-width:0.8;"/>
   </g>
   <g id="patch_4">
    <path d="M 338.688 298.944 
L 338.688 27.648 
" style="fill:none;stroke:#000000;stroke-linecap:square;stroke-linejoin:miter;stroke-width:0.8;"/>
   </g>
   <g id="patch_5">
    <path d="M 57.6 298.944 
L 338.688 298.944 
" style="fill:none;stroke:#000000;stroke-linecap:square;stroke-linejoin:miter;stroke-width:0.8;"/>
   </g>
   <g id="patch_6">
    <path d="M 57.6 27.648 
L 338.688 27.648 
" style="fill:none;stroke:#000000;stroke-linecap:square;stroke-linejoin:miter;stroke-width:0.8;"/>
   </g>
   <g id="text_13">
    <!-- ABC -->
    <defs>
     <path d="M 34.1875 63.1875 
L 20.796875 26.90625 
L 47.609375 26.90625 
z
M 28.609375 72.90625 
L 39.796875 72.90625 
L 67.578125 0 
L 57.328125 0 
L 50.6875 18.703125 
L 17.828125 18.703125 
L 11.1875 0 
L 0.78125 0 
z
" id="DejaVuSans-65"/>
     <path d="M 19.671875 34.8125 
L 19.671875 8.109375 
L 35.5 8.109375 
Q 43.453125 8.109375 47.28125 11.40625 
Q 51.125 14.703125 51.125 21.484375 
Q 51.125 28.328125 47.28125 31.5625 
Q 43.453125 34.8125 35.5 34.8125 
z
M 19.671875 64.796875 
L 19.671875 42.828125 
L 34.28125 42.828125 
Q 41.5 42.828125 45.03125 45.53125 
Q 48.578125 48.25 48.578125 53.8125 
Q 48.578125 59.328125 45.03125 62.0625 
Q 41.5 64.796875 34.28125 64.796875 
z
M 9.8125 72.90625 
L 35.015625 72.90625 
Q 46.296875 72.90625 52.390625 68.21875 
Q 58.5 63.53125 58.5 54.890625 
Q 58.5 48.1875 55.375 44.234375 
Q 52.25 40.28125 46.1875 39.3125 
Q 53.46875 37.75 57.5 32.78125 
Q 61.53125 27.828125 61.53125 20.40625 
Q 61.53125 10.640625 54.890625 5.3125 
Q 48.25 0 35.984375 0 
L 9.8125 0 
z
" id="DejaVuSans-66"/>
     <path d="M 64.40625 67.28125 
L 64.40625 56.890625 
Q 59.421875 61.53125 53.78125 63.8125 
Q 48.140625 66.109375 41.796875 66.109375 
Q 29.296875 66.109375 22.65625 58.46875 
Q 16.015625 50.828125 16.015625 36.375 
Q 16.015625 21.96875 22.65625 14.328125 
Q 29.296875 6.6875 41.796875 6.6875 
Q 48.140625 6.6875 53.78125 8.984375 
Q 59.421875 11.28125 64.40625 15.921875 
L 64.40625 5.609375 
Q 59.234375 2.09375 53.4375 0.328125 
Q 47.65625 -1.421875 41.21875 -1.421875 
Q 24.65625 -1.421875 15.125 8.703125 
Q 5.609375 18.84375 5.609375 36.375 
Q 5.609375 53.953125 15.125 64.078125 
Q 24.65625 74.21875 41.21875 74.21875 
Q 47.75 74.21875 53.53125 72.484375 
Q 59.328125 70.75 64.40625 67.28125 
z
" id="DejaVuSans-67"/>
    </defs>
    <g transform="translate(375.22944 298.262739)scale(0.17 -0.17)">
     <use xlink:href="#DejaVuSans-65"/>
     <use x="68.408203" xlink:href="#DejaVuSans-66"/>
     <use x="135.261719" xlink:href="#DejaVuSans-67"/>
    </g>
   </g>
   <g id="text_14">
    <!-- DEPSO -->
    <defs>
     <path d="M 19.671875 64.796875 
L 19.671875 8.109375 
L 31.59375 8.109375 
Q 46.6875 8.109375 53.6875 14.9375 
Q 60.6875 21.78125 60.6875 36.53125 
Q 60.6875 51.171875 53.6875 57.984375 
Q 46.6875 64.796875 31.59375 64.796875 
z
M 9.8125 72.90625 
L 30.078125 72.90625 
Q 51.265625 72.90625 61.171875 64.09375 
Q 71.09375 55.28125 71.09375 36.53125 
Q 71.09375 17.671875 61.125 8.828125 
Q 51.171875 0 30.078125 0 
L 9.8125 0 
z
" id="DejaVuSans-68"/>
     <path d="M 9.8125 72.90625 
L 55.90625 72.90625 
L 55.90625 64.59375 
L 19.671875 64.59375 
L 19.671875 43.015625 
L 54.390625 43.015625 
L 54.390625 34.71875 
L 19.671875 34.71875 
L 19.671875 8.296875 
L 56.78125 8.296875 
L 56.78125 0 
L 9.8125 0 
z
" id="DejaVuSans-69"/>
     <path d="M 19.671875 64.796875 
L 19.671875 37.40625 
L 32.078125 37.40625 
Q 38.96875 37.40625 42.71875 40.96875 
Q 46.484375 44.53125 46.484375 51.125 
Q 46.484375 57.671875 42.71875 61.234375 
Q 38.96875 64.796875 32.078125 64.796875 
z
M 9.8125 72.90625 
L 32.078125 72.90625 
Q 44.34375 72.90625 50.609375 67.359375 
Q 56.890625 61.8125 56.890625 51.125 
Q 56.890625 40.328125 50.609375 34.8125 
Q 44.34375 29.296875 32.078125 29.296875 
L 19.671875 29.296875 
L 19.671875 0 
L 9.8125 0 
z
" id="DejaVuSans-80"/>
     <path d="M 53.515625 70.515625 
L 53.515625 60.890625 
Q 47.90625 63.578125 42.921875 64.890625 
Q 37.9375 66.21875 33.296875 66.21875 
Q 25.25 66.21875 20.875 63.09375 
Q 16.5 59.96875 16.5 54.203125 
Q 16.5 49.359375 19.40625 46.890625 
Q 22.3125 44.4375 30.421875 42.921875 
L 36.375 41.703125 
Q 47.40625 39.59375 52.65625 34.296875 
Q 57.90625 29 57.90625 20.125 
Q 57.90625 9.515625 50.796875 4.046875 
Q 43.703125 -1.421875 29.984375 -1.421875 
Q 24.8125 -1.421875 18.96875 -0.25 
Q 13.140625 0.921875 6.890625 3.21875 
L 6.890625 13.375 
Q 12.890625 10.015625 18.65625 8.296875 
Q 24.421875 6.59375 29.984375 6.59375 
Q 38.421875 6.59375 43.015625 9.90625 
Q 47.609375 13.234375 47.609375 19.390625 
Q 47.609375 24.75 44.3125 27.78125 
Q 41.015625 30.8125 33.5 32.328125 
L 27.484375 33.5 
Q 16.453125 35.6875 11.515625 40.375 
Q 6.59375 45.0625 6.59375 53.421875 
Q 6.59375 63.09375 13.40625 68.65625 
Q 20.21875 74.21875 32.171875 74.21875 
Q 37.3125 74.21875 42.625 73.28125 
Q 47.953125 72.359375 53.515625 70.515625 
z
" id="DejaVuSans-83"/>
     <path d="M 39.40625 66.21875 
Q 28.65625 66.21875 22.328125 58.203125 
Q 16.015625 50.203125 16.015625 36.375 
Q 16.015625 22.609375 22.328125 14.59375 
Q 28.65625 6.59375 39.40625 6.59375 
Q 50.140625 6.59375 56.421875 14.59375 
Q 62.703125 22.609375 62.703125 36.375 
Q 62.703125 50.203125 56.421875 58.203125 
Q 50.140625 66.21875 39.40625 66.21875 
z
M 39.40625 74.21875 
Q 54.734375 74.21875 63.90625 63.9375 
Q 73.09375 53.65625 73.09375 36.375 
Q 73.09375 19.140625 63.90625 8.859375 
Q 54.734375 -1.421875 39.40625 -1.421875 
Q 24.03125 -1.421875 14.8125 8.828125 
Q 5.609375 19.09375 5.609375 36.375 
Q 5.609375 53.65625 14.8125 63.9375 
Q 24.03125 74.21875 39.40625 74.21875 
z
" id="DejaVuSans-79"/>
    </defs>
    <g transform="translate(375.22944 233.796363)scale(0.17 -0.17)">
     <use xlink:href="#DejaVuSans-68"/>
     <use x="77.001953" xlink:href="#DejaVuSans-69"/>
     <use x="140.185547" xlink:href="#DejaVuSans-80"/>
     <use x="200.488281" xlink:href="#DejaVuSans-83"/>
     <use x="263.964844" xlink:href="#DejaVuSans-79"/>
    </g>
   </g>
   <g id="text_15">
    <!-- DE -->
    <g transform="translate(375.22944 169.329987)scale(0.17 -0.17)">
     <use xlink:href="#DejaVuSans-68"/>
     <use x="77.001953" xlink:href="#DejaVuSans-69"/>
    </g>
   </g>
   <g id="text_16">
    <!-- PSO -->
    <g transform="translate(375.22944 104.863611)scale(0.17 -0.17)">
     <use xlink:href="#DejaVuSans-80"/>
     <use x="60.302734" xlink:href="#DejaVuSans-83"/>
     <use x="123.779297" xlink:href="#DejaVuSans-79"/>
    </g>
   </g>
   <g id="text_17">
    <!-- best 2009 -->
    <defs>
     <path d="M 48.6875 27.296875 
Q 48.6875 37.203125 44.609375 42.84375 
Q 40.53125 48.484375 33.40625 48.484375 
Q 26.265625 48.484375 22.1875 42.84375 
Q 18.109375 37.203125 18.109375 27.296875 
Q 18.109375 17.390625 22.1875 11.75 
Q 26.265625 6.109375 33.40625 6.109375 
Q 40.53125 6.109375 44.609375 11.75 
Q 48.6875 17.390625 48.6875 27.296875 
z
M 18.109375 46.390625 
Q 20.953125 51.265625 25.265625 53.625 
Q 29.59375 56 35.59375 56 
Q 45.5625 56 51.78125 48.09375 
Q 58.015625 40.1875 58.015625 27.296875 
Q 58.015625 14.40625 51.78125 6.484375 
Q 45.5625 -1.421875 35.59375 -1.421875 
Q 29.59375 -1.421875 25.265625 0.953125 
Q 20.953125 3.328125 18.109375 8.203125 
L 18.109375 0 
L 9.078125 0 
L 9.078125 75.984375 
L 18.109375 75.984375 
z
" id="DejaVuSans-98"/>
     <path d="M 10.984375 1.515625 
L 10.984375 10.5 
Q 14.703125 8.734375 18.5 7.8125 
Q 22.3125 6.890625 25.984375 6.890625 
Q 35.75 6.890625 40.890625 13.453125 
Q 46.046875 20.015625 46.78125 33.40625 
Q 43.953125 29.203125 39.59375 26.953125 
Q 35.25 24.703125 29.984375 24.703125 
Q 19.046875 24.703125 12.671875 31.3125 
Q 6.296875 37.9375 6.296875 49.421875 
Q 6.296875 60.640625 12.9375 67.421875 
Q 19.578125 74.21875 30.609375 74.21875 
Q 43.265625 74.21875 49.921875 64.515625 
Q 56.59375 54.828125 56.59375 36.375 
Q 56.59375 19.140625 48.40625 8.859375 
Q 40.234375 -1.421875 26.421875 -1.421875 
Q 22.703125 -1.421875 18.890625 -0.6875 
Q 15.09375 0.046875 10.984375 1.515625 
z
M 30.609375 32.421875 
Q 37.25 32.421875 41.125 36.953125 
Q 45.015625 41.5 45.015625 49.421875 
Q 45.015625 57.28125 41.125 61.84375 
Q 37.25 66.40625 30.609375 66.40625 
Q 23.96875 66.40625 20.09375 61.84375 
Q 16.21875 57.28125 16.21875 49.421875 
Q 16.21875 41.5 20.09375 36.953125 
Q 23.96875 32.421875 30.609375 32.421875 
z
" id="DejaVuSans-57"/>
    </defs>
    <g transform="translate(375.22944 40.397235)scale(0.17 -0.17)">
     <use xlink:href="#DejaVuSans-98"/>
     <use x="63.476562" xlink:href="#DejaVuSans-101"/>
     <use x="125" xlink:href="#DejaVuSans-115"/>
     <use x="177.099609" xlink:href="#DejaVuSans-116"/>
     <use x="216.308594" xlink:href="#DejaVuSans-32"/>
     <use x="248.095703" xlink:href="#DejaVuSans-50"/>
     <use x="311.71875" xlink:href="#DejaVuSans-48"/>
     <use x="375.341797" xlink:href="#DejaVuSans-48"/>
     <use x="438.964844" xlink:href="#DejaVuSans-57"/>
    </g>
   </g>
   <g id="text_18">
    <!-- bbob f8, 3-D -->
    <defs>
     <path d="M 40.578125 39.3125 
Q 47.65625 37.796875 51.625 33 
Q 55.609375 28.21875 55.609375 21.1875 
Q 55.609375 10.40625 48.1875 4.484375 
Q 40.765625 -1.421875 27.09375 -1.421875 
Q 22.515625 -1.421875 17.65625 -0.515625 
Q 12.796875 0.390625 7.625 2.203125 
L 7.625 11.71875 
Q 11.71875 9.328125 16.59375 8.109375 
Q 21.484375 6.890625 26.8125 6.890625 
Q 36.078125 6.890625 40.9375 10.546875 
Q 45.796875 14.203125 45.796875 21.1875 
Q 45.796875 27.640625 41.28125 31.265625 
Q 36.765625 34.90625 28.71875 34.90625 
L 20.21875 34.90625 
L 20.21875 43.015625 
L 29.109375 43.015625 
Q 36.375 43.015625 40.234375 45.921875 
Q 44.09375 48.828125 44.09375 54.296875 
Q 44.09375 59.90625 40.109375 62.90625 
Q 36.140625 65.921875 28.71875 65.921875 
Q 24.65625 65.921875 20.015625 65.03125 
Q 15.375 64.15625 9.8125 62.3125 
L 9.8125 71.09375 
Q 15.4375 72.65625 20.34375 73.4375 
Q 25.25 74.21875 29.59375 74.21875 
Q 40.828125 74.21875 47.359375 69.109375 
Q 53.90625 64.015625 53.90625 55.328125 
Q 53.90625 49.265625 50.4375 45.09375 
Q 46.96875 40.921875 40.578125 39.3125 
z
" id="DejaVuSans-51"/>
    </defs>
    <g transform="translate(60.41088 38.111366)scale(0.102 -0.102)">
     <use xlink:href="#DejaVuSans-98"/>
     <use x="63.476562" xlink:href="#DejaVuSans-98"/>
     <use x="126.953125" xlink:href="#DejaVuSans-111"/>
     <use x="188.134766" xlink:href="#DejaVuSans-98"/>
     <use x="251.611328" xlink:href="#DejaVuSans-32"/>
     <use x="283.398438" xlink:href="#DejaVuSans-102"/>
     <use x="318.603516" xlink:href="#DejaVuSans-56"/>
     <use x="382.226562" xlink:href="#DejaVuSans-44"/>
     <use x="414.013672" xlink:href="#DejaVuSans-32"/>
     <use x="445.800781" xlink:href="#DejaVuSans-51"/>
     <use x="509.423828" xlink:href="#DejaVuSans-45"/>
     <use x="545.507812" xlink:href="#DejaVuSans-68"/>
    </g>
    <!-- 51 targets: 100..1e-08 -->
    <defs>
     <path d="M 10.796875 72.90625 
L 49.515625 72.90625 
L 49.515625 64.59375 
L 19.828125 64.59375 
L 19.828125 46.734375 
Q 21.96875 47.46875 24.109375 47.828125 
Q 26.265625 48.1875 28.421875 48.1875 
Q 40.625 48.1875 47.75 41.5 
Q 54.890625 34.8125 54.890625 23.390625 
Q 54.890625 11.625 47.5625 5.09375 
Q 40.234375 -1.421875 26.90625 -1.421875 
Q 22.3125 -1.421875 17.546875 -0.640625 
Q 12.796875 0.140625 7.71875 1.703125 
L 7.71875 11.625 
Q 12.109375 9.234375 16.796875 8.0625 
Q 21.484375 6.890625 26.703125 6.890625 
Q 35.15625 6.890625 40.078125 11.328125 
Q 45.015625 15.765625 45.015625 23.390625 
Q 45.015625 31 40.078125 35.4375 
Q 35.15625 39.890625 26.703125 39.890625 
Q 22.75 39.890625 18.8125 39.015625 
Q 14.890625 38.140625 10.796875 36.28125 
z
" id="DejaVuSans-53"/>
     <path d="M 11.71875 12.40625 
L 22.015625 12.40625 
L 22.015625 0 
L 11.71875 0 
z
M 11.71875 51.703125 
L 22.015625 51.703125 
L 22.015625 39.3125 
L 11.71875 39.3125 
z
" id="DejaVuSans-58"/>
    </defs>
    <g transform="translate(60.41088 49.533135)scale(0.102 -0.102)">
     <use xlink:href="#DejaVuSans-53"/>
     <use x="63.623047" xlink:href="#DejaVuSans-49"/>
     <use x="127.246094" xlink:href="#DejaVuSans-32"/>
     <use x="159.033203" xlink:href="#DejaVuSans-116"/>
     <use x="198.242188" xlink:href="#DejaVuSans-97"/>
     <use x="259.521484" xlink:href="#DejaVuSans-114"/>
     <use x="298.884766" xlink:href="#DejaVuSans-103"/>
     <use x="362.361328" xlink:href="#DejaVuSans-101"/>
     <use x="423.884766" xlink:href="#DejaVuSans-116"/>
     <use x="463.09375" xlink:href="#DejaVuSans-115"/>
     <use x="515.193359" xlink:href="#DejaVuSans-58"/>
     <use x="548.884766" xlink:href="#DejaVuSans-32"/>
     <use x="580.671875" xlink:href="#DejaVuSans-49"/>
     <use x="644.294922" xlink:href="#DejaVuSans-48"/>
     <use x="707.917969" xlink:href="#DejaVuSans-48"/>
     <use x="771.541016" xlink:href="#DejaVuSans-46"/>
     <use x="803.328125" xlink:href="#DejaVuSans-46"/>
     <use x="835.115234" xlink:href="#DejaVuSans-49"/>
     <use x="898.738281" xlink:href="#DejaVuSans-101"/>
     <use x="960.261719" xlink:href="#DejaVuSans-45"/>
     <use x="996.345703" xlink:href="#DejaVuSans-48"/>
     <use x="1059.96875" xlink:href="#DejaVuSans-56"/>
    </g>
    <!-- 15 instances -->
    <g transform="translate(60.41088 60.954904)scale(0.102 -0.102)">
     <use xlink:href="#DejaVuSans-49"/>
     <use x="63.623047" xlink:href="#DejaVuSans-53"/>
     <use x="127.246094" xlink:href="#DejaVuSans-32"/>
     <use x="159.033203" xlink:href="#DejaVuSans-105"/>
     <use x="186.816406" xlink:href="#DejaVuSans-110"/>
     <use x="250.195312" xlink:href="#DejaVuSans-115"/>
     <use x="302.294922" xlink:href="#DejaVuSans-116"/>
     <use x="341.503906" xlink:href="#DejaVuSans-97"/>
     <use x="402.783203" xlink:href="#DejaVuSans-110"/>
     <use x="466.162109" xlink:href="#DejaVuSans-99"/>
     <use x="521.142578" xlink:href="#DejaVuSans-101"/>
     <use x="582.666016" xlink:href="#DejaVuSans-115"/>
    </g>
   </g>
   <g id="text_19">
    <!-- v2.4 -->
    <g style="fill:#808080;" transform="translate(187.233062 294.151352)scale(0.1 -0.1)">
     <use xlink:href="#DejaVuSans-118"/>
     <use x="59.179688" xlink:href="#DejaVuSans-50"/>
     <use x="122.802734" xlink:href="#DejaVuSans-46"/>
     <use x="154.589844" xlink:href="#DejaVuSans-52"/>
    </g>
   </g>
   <g id="text_20">
    <!-- 8 Rosenbrock original -->
    <defs>
     <path d="M 44.390625 34.1875 
Q 47.5625 33.109375 50.5625 29.59375 
Q 53.5625 26.078125 56.59375 19.921875 
L 66.609375 0 
L 56 0 
L 46.6875 18.703125 
Q 43.0625 26.03125 39.671875 28.421875 
Q 36.28125 30.8125 30.421875 30.8125 
L 19.671875 30.8125 
L 19.671875 0 
L 9.8125 0 
L 9.8125 72.90625 
L 32.078125 72.90625 
Q 44.578125 72.90625 50.734375 67.671875 
Q 56.890625 62.453125 56.890625 51.90625 
Q 56.890625 45.015625 53.6875 40.46875 
Q 50.484375 35.9375 44.390625 34.1875 
z
M 19.671875 64.796875 
L 19.671875 38.921875 
L 32.078125 38.921875 
Q 39.203125 38.921875 42.84375 42.21875 
Q 46.484375 45.515625 46.484375 51.90625 
Q 46.484375 58.296875 42.84375 61.546875 
Q 39.203125 64.796875 32.078125 64.796875 
z
" id="DejaVuSans-82"/>
     <path d="M 9.078125 75.984375 
L 18.109375 75.984375 
L 18.109375 31.109375 
L 44.921875 54.6875 
L 56.390625 54.6875 
L 27.390625 29.109375 
L 57.625 0 
L 45.90625 0 
L 18.109375 26.703125 
L 18.109375 0 
L 9.078125 0 
z
" id="DejaVuSans-107"/>
    </defs>
    <g transform="translate(90.08775 21.648)scale(0.2 -0.2)">
     <use xlink:href="#DejaVuSans-56"/>
     <use x="63.623047" xlink:href="#DejaVuSans-32"/>
     <use x="95.410156" xlink:href="#DejaVuSans-82"/>
     <use x="160.392578" xlink:href="#DejaVuSans-111"/>
     <use x="221.574219" xlink:href="#DejaVuSans-115"/>
     <use x="273.673828" xlink:href="#DejaVuSans-101"/>
     <use x="335.197266" xlink:href="#DejaVuSans-110"/>
     <use x="398.576172" xlink:href="#DejaVuSans-98"/>
     <use x="462.052734" xlink:href="#DejaVuSans-114"/>
     <use x="500.916016" xlink:href="#DejaVuSans-111"/>
     <use x="562.097656" xlink:href="#DejaVuSans-99"/>
     <use x="617.078125" xlink:href="#DejaVuSans-107"/>
     <use x="674.988281" xlink:href="#DejaVuSans-32"/>
     <use x="706.775391" xlink:href="#DejaVuSans-111"/>
     <use x="767.957031" xlink:href="#DejaVuSans-114"/>
     <use x="809.070312" xlink:href="#DejaVuSans-105"/>
     <use x="836.853516" xlink:href="#DejaVuSans-103"/>
     <use x="900.330078" xlink:href="#DejaVuSans-105"/>
     <use x="928.113281" xlink:href="#DejaVuSans-110"/>
     <use x="991.492188" xlink:href="#DejaVuSans-97"/>
     <use x="1052.771484" xlink:href="#DejaVuSans-108"/>
    </g>
   </g>
  </g>
 </g>
 <defs>
  <clipPath id="pfcf2ce8473">
   <rect height="271.296" width="281.088" x="57.6" y="27.648"/>
  </clipPath>
 </defs>
</svg>
