<?xml version="1.0" encoding="utf-8" standalone="no"?>
<!DOCTYPE svg PUBLIC "-//W3C//DTD SVG 1.1//EN"
  "http://www.w3.org/Graphics/SVG/1.1/DTD/svg11.dtd">
<!-- Created with matplotlib (https://matplotlib.org/) -->
<svg height="345.6pt" version="1.1" viewBox="0 0 460.8 345.6" width="460.8pt" xmlns="http://www.w3.org/2000/svg" xmlns:xlink="http://www.w3.org/1999/xlink">
 <defs>
  <style type="text/css">
*{stroke-linecap:butt;stroke-linejoin:round;}
  </style>
 </defs>
 <g id="figure_1">
  <g id="patch_1">
   <path d="M 0 345.6 
L 460.8 345.6 
L 460.8 0 
L 0 0 
z
" style="fill:#ffffff;"/>
  </g>
  <g id="axes_1">
   <g id="patch_2">
    <path d="M 57.6 298.944 
L 338.688 298.944 
L 338.688 27.648 
L 57.6 27.648 
z
" style="fill:#ffffff;"/>
   </g>
   <g id="line2d_1">
    <path d="M 38.440992 298.944 
L 38.440992 272.609696 
L 91.535274 272.609696 
L 91.535274 267.342835 
L 94.575872 267.342835 
L 94.575872 262.075974 
L 98.880934 262.075974 
L 98.880934 256.809114 
L 105.951954 256.809114 
L 105.951954 251.542253 
L 109.252198 251.542253 
L 109.252198 246.275392 
L 111.239304 246.275392 
L 111.239304 241.008531 
L 113.500792 241.008531 
L 113.500792 235.74167 
L 116.719583 235.74167 
L 116.719583 230.47481 
L 119.43583 230.47481 
L 119.43583 225.207949 
L 121.340187 225.207949 
L 121.340187 219.941088 
L 122.920132 219.941088 
L 122.920132 214.674227 
L 123.327293 214.674227 
L 123.327293 209.407366 
L 124.368753 209.407366 
L 124.368753 204.140506 
L 124.989434 204.140506 
L 124.989434 198.873645 
L 125.351508 198.873645 
L 125.351508 193.606784 
L 125.706218 193.606784 
L 125.706218 188.339923 
L 126.053856 188.339923 
L 126.053856 183.073062 
L 126.281824 183.073062 
L 126.281824 177.806202 
L 126.3947 177.806202 
L 126.3947 172.539341 
L 126.729009 172.539341 
L 126.729009 167.27248 
L 126.839037 167.27248 
L 126.839037 162.005619 
L 126.948374 162.005619 
L 126.948374 156.738758 
L 127.165014 156.738758 
L 127.165014 146.205037 
L 127.378995 146.205037 
L 127.378995 140.938176 
L 127.48501 140.938176 
L 127.48501 130.404454 
L 127.590383 130.404454 
L 127.590383 125.137593 
L 127.695124 125.137593 
L 127.695124 119.870733 
L 127.799239 119.870733 
L 127.799239 114.603872 
L 127.902737 114.603872 
L 127.902737 109.337011 
L 128.005624 109.337011 
L 128.005624 104.07015 
L 128.209594 104.07015 
L 128.209594 93.536429 
L 128.411207 93.536429 
L 128.411207 83.002707 
L 128.511146 83.002707 
L 128.511146 77.735846 
L 128.610515 77.735846 
L 128.610515 72.468985 
L 128.709321 72.468985 
L 128.709321 61.935264 
L 128.807571 61.935264 
L 128.807571 56.668403 
L 128.905271 56.668403 
L 128.905271 46.134681 
L 129.002426 46.134681 
L 129.002426 35.60096 
L 129.099042 35.60096 
L 129.099042 30.334099 
L 338.688 30.334099 
" style="fill:none;stroke:#f5deb3;stroke-linecap:square;stroke-width:4;"/>
   </g>
   <g id="line2d_2">
    <defs>
     <path d="M -0 7.778175 
L 7.778175 0 
L 0 -7.778175 
L -7.778175 -0 
z
" id="m6b865f5be3" style="stroke:#f5deb3;stroke-linejoin:miter;stroke-width:1.5;"/>
    </defs>
    <g>
     <use style="fill:#f5deb3;stroke:#f5deb3;stroke-linejoin:miter;stroke-width:1.5;" x="124.368753" xlink:href="#m6b865f5be3" y="209.407366"/>
     <use style="fill:#f5deb3;stroke:#f5deb3;stroke-linejoin:miter;stroke-width:1.5;" x="128.411207" xlink:href="#m6b865f5be3" y="83.002707"/>
     <use style="fill:#f5deb3;stroke:#f5deb3;stroke-linejoin:miter;stroke-width:1.5;" x="129.099042" xlink:href="#m6b865f5be3" y="35.60096"/>
     <use style="fill:#f5deb3;stroke:#f5deb3;stroke-linejoin:miter;stroke-width:1.5;" x="129.099042" xlink:href="#m6b865f5be3" y="30.334099"/>
     <use style="fill:#f5deb3;stroke:#f5deb3;stroke-linejoin:miter;stroke-width:1.5;" x="129.099042" xlink:href="#m6b865f5be3" y="30.334099"/>
     <use style="fill:#f5deb3;stroke:#f5deb3;stroke-linejoin:miter;stroke-width:1.5;" x="338.688" xlink:href="#m6b865f5be3" y="30.334099"/>
    </g>
   </g>
   <g id="line2d_3">
    <path style="fill:none;stroke:#f5deb3;stroke-linecap:square;stroke-width:4;"/>
    <g/>
   </g>
   <g id="line2d_4">
    <path d="M 338.688 30.334099 
L 369.60768 35.706297 
" style="fill:none;stroke:#f5deb3;stroke-linecap:square;stroke-width:4;"/>
    <g>
     <use style="fill:#f5deb3;stroke:#f5deb3;stroke-linejoin:miter;stroke-width:1.5;" x="338.688" xlink:href="#m6b865f5be3" y="30.334099"/>
     <use style="fill:#f5deb3;stroke:#f5deb3;stroke-linejoin:miter;stroke-width:1.5;" x="369.60768" xlink:href="#m6b865f5be3" y="35.706297"/>
    </g>
   </g>
   <g id="matplotlib.axis_1">
    <g id="xtick_1">
     <g id="line2d_5">
      <path clip-path="url(#p1bdc52407b)" d="M 57.6 298.944 
L 57.6 27.648 
" style="fill:none;stroke:#b0b0b0;stroke-linecap:square;stroke-width:0.8;"/>
     </g>
     <g id="line2d_6">
      <defs>
       <path d="M 0 0 
L 0 3.5 
" id="m3c5feed368" style="stroke:#000000;stroke-width:0.8;"/>
      </defs>
      <g>
       <use style="stroke:#000000;stroke-width:0.8;" x="57.6" xlink:href="#m3c5feed368" y="298.944"/>
      </g>
     </g>
     <g id="text_1">
      <!-- 0 -->
      <defs>
       <path d="M 31.78125 66.40625 
Q 24.171875 66.40625 20.328125 58.90625 
Q 16.5 51.421875 16.5 36.375 
Q 16.5 21.390625 20.328125 13.890625 
Q 24.171875 6.390625 31.78125 6.390625 
Q 39.453125 6.390625 43.28125 13.890625 
Q 47.125 21.390625 47.125 36.375 
Q 47.125 51.421875 43.28125 58.90625 
Q 39.453125 66.40625 31.78125 66.40625 
z
M 31.78125 74.21875 
Q 44.046875 74.21875 50.515625 64.515625 
Q 56.984375 54.828125 56.984375 36.375 
Q 56.984375 17.96875 50.515625 8.265625 
Q 44.046875 -1.421875 31.78125 -1.421875 
Q 19.53125 -1.421875 13.0625 8.265625 
Q 6.59375 17.96875 6.59375 36.375 
Q 6.59375 54.828125 13.0625 64.515625 
Q 19.53125 74.21875 31.78125 74.21875 
z
" id="DejaVuSans-48"/>
      </defs>
      <g transform="translate(51.2375 321.140875)scale(0.2 -0.2)">
       <use xlink:href="#DejaVuSans-48"/>
      </g>
     </g>
    </g>
    <g id="xtick_2">
     <g id="line2d_7">
      <path clip-path="url(#p1bdc52407b)" d="M 137.910857 298.944 
L 137.910857 27.648 
" style="fill:none;stroke:#b0b0b0;stroke-linecap:square;stroke-width:0.8;"/>
     </g>
     <g id="line2d_8">
      <g>
       <use style="stroke:#000000;stroke-width:0.8;" x="137.910857" xlink:href="#m3c5feed368" y="298.944"/>
      </g>
     </g>
     <g id="text_2">
      <!-- 2 -->
      <defs>
       <path d="M 19.1875 8.296875 
L 53.609375 8.296875 
L 53.609375 0 
L 7.328125 0 
L 7.328125 8.296875 
Q 12.9375 14.109375 22.625 23.890625 
Q 32.328125 33.6875 34.8125 36.53125 
Q 39.546875 41.84375 41.421875 45.53125 
Q 43.3125 49.21875 43.3125 52.78125 
Q 43.3125 58.59375 39.234375 62.25 
Q 35.15625 65.921875 28.609375 65.921875 
Q 23.96875 65.921875 18.8125 64.3125 
Q 13.671875 62.703125 7.8125 59.421875 
L 7.8125 69.390625 
Q 13.765625 71.78125 18.9375 73 
Q 24.125 74.21875 28.421875 74.21875 
Q 39.75 74.21875 46.484375 68.546875 
Q 53.21875 62.890625 53.21875 53.421875 
Q 53.21875 48.921875 51.53125 44.890625 
Q 49.859375 40.875 45.40625 35.40625 
Q 44.1875 33.984375 37.640625 27.21875 
Q 31.109375 20.453125 19.1875 8.296875 
z
" id="DejaVuSans-50"/>
      </defs>
      <g transform="translate(131.548357 321.140875)scale(0.2 -0.2)">
       <use xlink:href="#DejaVuSans-50"/>
      </g>
     </g>
    </g>
    <g id="xtick_3">
     <g id="line2d_9">
      <path clip-path="url(#p1bdc52407b)" d="M 218.221714 298.944 
L 218.221714 27.648 
" style="fill:none;stroke:#b0b0b0;stroke-linecap:square;stroke-width:0.8;"/>
     </g>
     <g id="line2d_10">
      <g>
       <use style="stroke:#000000;stroke-width:0.8;" x="218.221714" xlink:href="#m3c5feed368" y="298.944"/>
      </g>
     </g>
     <g id="text_3">
      <!-- 4 -->
      <defs>
       <path d="M 37.796875 64.3125 
L 12.890625 25.390625 
L 37.796875 25.390625 
z
M 35.203125 72.90625 
L 47.609375 72.90625 
L 47.609375 25.390625 
L 58.015625 25.390625 
L 58.015625 17.1875 
L 47.609375 17.1875 
L 47.609375 0 
L 37.796875 0 
L 37.796875 17.1875 
L 4.890625 17.1875 
L 4.890625 26.703125 
z
" id="DejaVuSans-52"/>
      </defs>
      <g transform="translate(211.859214 321.140875)scale(0.2 -0.2)">
       <use xlink:href="#DejaVuSans-52"/>
      </g>
     </g>
    </g>
    <g id="xtick_4">
     <g id="line2d_11">
      <path clip-path="url(#p1bdc52407b)" d="M 298.532571 298.944 
L 298.532571 27.648 
" style="fill:none;stroke:#b0b0b0;stroke-linecap:square;stroke-width:0.8;"/>
     </g>
     <g id="line2d_12">
      <g>
       <use style="stroke:#000000;stroke-width:0.8;" x="298.532571" xlink:href="#m3c5feed368" y="298.944"/>
      </g>
     </g>
     <g id="text_4">
      <!-- 6 -->
      <defs>
       <path d="M 33.015625 40.375 
Q 26.375 40.375 22.484375 35.828125 
Q 18.609375 31.296875 18.609375 23.390625 
Q 18.609375 15.53125 22.484375 10.953125 
Q 26.375 6.390625 33.015625 6.390625 
Q 39.65625 6.390625 43.53125 10.953125 
Q 47.40625 15.53125 47.40625 23.390625 
Q 47.40625 31.296875 43.53125 35.828125 
Q 39.65625 40.375 33.015625 40.375 
z
M 52.59375 71.296875 
L 52.59375 62.3125 
Q 48.875 64.0625 45.09375 64.984375 
Q 41.3125 65.921875 37.59375 65.921875 
Q 27.828125 65.921875 22.671875 59.328125 
Q 17.53125 52.734375 16.796875 39.40625 
Q 19.671875 43.65625 24.015625 45.921875 
Q 28.375 48.1875 33.59375 48.1875 
Q 44.578125 48.1875 50.953125 41.515625 
Q 57.328125 34.859375 57.328125 23.390625 
Q 57.328125 12.15625 50.6875 5.359375 
Q 44.046875 -1.421875 33.015625 -1.421875 
Q 20.359375 -1.421875 13.671875 8.265625 
Q 6.984375 17.96875 6.984375 36.375 
Q 6.984375 53.65625 15.1875 63.9375 
Q 23.390625 74.21875 37.203125 74.21875 
Q 40.921875 74.21875 44.703125 73.484375 
Q 48.484375 72.75 52.59375 71.296875 
z
" id="DejaVuSans-54"/>
      </defs>
      <g transform="translate(292.170071 321.140875)scale(0.2 -0.2)">
       <use xlink:href="#DejaVuSans-54"/>
      </g>
     </g>
    </g>
    <g id="xtick_5">
     <g id="line2d_13">
      <path clip-path="url(#p1bdc52407b)" d="M 97.755429 298.944 
L 97.755429 27.648 
" style="fill:none;stroke:#b0b0b0;stroke-linecap:square;stroke-width:0.8;"/>
     </g>
     <g id="line2d_14">
      <defs>
       <path d="M 0 0 
L 0 2 
" id="mbb53d5b292" style="stroke:#000000;stroke-width:0.6;"/>
      </defs>
      <g>
       <use style="stroke:#000000;stroke-width:0.6;" x="97.755429" xlink:href="#mbb53d5b292" y="298.944"/>
      </g>
     </g>
    </g>
    <g id="xtick_6">
     <g id="line2d_15">
      <path clip-path="url(#p1bdc52407b)" d="M 178.066286 298.944 
L 178.066286 27.648 
" style="fill:none;stroke:#b0b0b0;stroke-linecap:square;stroke-width:0.8;"/>
     </g>
     <g id="line2d_16">
      <g>
       <use style="stroke:#000000;stroke-width:0.6;" x="178.066286" xlink:href="#mbb53d5b292" y="298.944"/>
      </g>
     </g>
    </g>
    <g id="xtick_7">
     <g id="line2d_17">
      <path clip-path="url(#p1bdc52407b)" d="M 258.377143 298.944 
L 258.377143 27.648 
" style="fill:none;stroke:#b0b0b0;stroke-linecap:square;stroke-width:0.8;"/>
     </g>
     <g id="line2d_18">
      <g>
       <use style="stroke:#000000;stroke-width:0.6;" x="258.377143" xlink:href="#mbb53d5b292" y="298.944"/>
      </g>
     </g>
    </g>
    <g id="xtick_8">
     <g id="line2d_19">
      <path clip-path="url(#p1bdc52407b)" d="M 338.688 298.944 
L 338.688 27.648 
" style="fill:none;stroke:#b0b0b0;stroke-linecap:square;stroke-width:0.8;"/>
     </g>
     <g id="line2d_20">
      <g>
       <use style="stroke:#000000;stroke-width:0.6;" x="338.688" xlink:href="#mbb53d5b292" y="298.944"/>
      </g>
     </g>
    </g>
    <g id="text_5">
     <!-- log10(# f-evals / dimension) -->
     <defs>
      <path d="M 9.421875 75.984375 
L 18.40625 75.984375 
L 18.40625 0 
L 9.421875 0 
z
" id="DejaVuSans-108"/>
      <path d="M 30.609375 48.390625 
Q 23.390625 48.390625 19.1875 42.75 
Q 14.984375 37.109375 14.984375 27.296875 
Q 14.984375 17.484375 19.15625 11.84375 
Q 23.34375 6.203125 30.609375 6.203125 
Q 37.796875 6.203125 41.984375 11.859375 
Q 46.1875 17.53125 46.1875 27.296875 
Q 46.1875 37.015625 41.984375 42.703125 
Q 37.796875 48.390625 30.609375 48.390625 
z
M 30.609375 56 
Q 42.328125 56 49.015625 48.375 
Q 55.71875 40.765625 55.71875 27.296875 
Q 55.71875 13.875 49.015625 6.21875 
Q 42.328125 -1.421875 30.609375 -1.421875 
Q 18.84375 -1.421875 12.171875 6.21875 
Q 5.515625 13.875 5.515625 27.296875 
Q 5.515625 40.765625 12.171875 48.375 
Q 18.84375 56 30.609375 56 
z
" id="DejaVuSans-111"/>
      <path d="M 45.40625 27.984375 
Q 45.40625 37.75 41.375 43.109375 
Q 37.359375 48.484375 30.078125 48.484375 
Q 22.859375 48.484375 18.828125 43.109375 
Q 14.796875 37.75 14.796875 27.984375 
Q 14.796875 18.265625 18.828125 12.890625 
Q 22.859375 7.515625 30.078125 7.515625 
Q 37.359375 7.515625 41.375 12.890625 
Q 45.40625 18.265625 45.40625 27.984375 
z
M 54.390625 6.78125 
Q 54.390625 -7.171875 48.1875 -13.984375 
Q 42 -20.796875 29.203125 -20.796875 
Q 24.46875 -20.796875 20.265625 -20.09375 
Q 16.0625 -19.390625 12.109375 -17.921875 
L 12.109375 -9.1875 
Q 16.0625 -11.328125 19.921875 -12.34375 
Q 23.78125 -13.375 27.78125 -13.375 
Q 36.625 -13.375 41.015625 -8.765625 
Q 45.40625 -4.15625 45.40625 5.171875 
L 45.40625 9.625 
Q 42.625 4.78125 38.28125 2.390625 
Q 33.9375 0 27.875 0 
Q 17.828125 0 11.671875 7.65625 
Q 5.515625 15.328125 5.515625 27.984375 
Q 5.515625 40.671875 11.671875 48.328125 
Q 17.828125 56 27.875 56 
Q 33.9375 56 38.28125 53.609375 
Q 42.625 51.21875 45.40625 46.390625 
L 45.40625 54.6875 
L 54.390625 54.6875 
z
" id="DejaVuSans-103"/>
      <path d="M 12.40625 8.296875 
L 28.515625 8.296875 
L 28.515625 63.921875 
L 10.984375 60.40625 
L 10.984375 69.390625 
L 28.421875 72.90625 
L 38.28125 72.90625 
L 38.28125 8.296875 
L 54.390625 8.296875 
L 54.390625 0 
L 12.40625 0 
z
" id="DejaVuSans-49"/>
      <path d="M 31 75.875 
Q 24.46875 64.65625 21.28125 53.65625 
Q 18.109375 42.671875 18.109375 31.390625 
Q 18.109375 20.125 21.3125 9.0625 
Q 24.515625 -2 31 -13.1875 
L 23.1875 -13.1875 
Q 15.875 -1.703125 12.234375 9.375 
Q 8.59375 20.453125 8.59375 31.390625 
Q 8.59375 42.28125 12.203125 53.3125 
Q 15.828125 64.359375 23.1875 75.875 
z
" id="DejaVuSans-40"/>
      <path d="M 51.125 44 
L 36.921875 44 
L 32.8125 27.6875 
L 47.125 27.6875 
z
M 43.796875 71.78125 
L 38.71875 51.515625 
L 52.984375 51.515625 
L 58.109375 71.78125 
L 65.921875 71.78125 
L 60.890625 51.515625 
L 76.125 51.515625 
L 76.125 44 
L 58.984375 44 
L 54.984375 27.6875 
L 70.515625 27.6875 
L 70.515625 20.21875 
L 53.078125 20.21875 
L 48 0 
L 40.1875 0 
L 45.21875 20.21875 
L 30.90625 20.21875 
L 25.875 0 
L 18.015625 0 
L 23.09375 20.21875 
L 7.71875 20.21875 
L 7.71875 27.6875 
L 24.90625 27.6875 
L 29 44 
L 13.28125 44 
L 13.28125 51.515625 
L 30.90625 51.515625 
L 35.890625 71.78125 
z
" id="DejaVuSans-35"/>
      <path id="DejaVuSans-32"/>
      <path d="M 37.109375 75.984375 
L 37.109375 68.5 
L 28.515625 68.5 
Q 23.6875 68.5 21.796875 66.546875 
Q 19.921875 64.59375 19.921875 59.515625 
L 19.921875 54.6875 
L 34.71875 54.6875 
L 34.71875 47.703125 
L 19.921875 47.703125 
L 19.921875 0 
L 10.890625 0 
L 10.890625 47.703125 
L 2.296875 47.703125 
L 2.296875 54.6875 
L 10.890625 54.6875 
L 10.890625 58.5 
Q 10.890625 67.625 15.140625 71.796875 
Q 19.390625 75.984375 28.609375 75.984375 
z
" id="DejaVuSans-102"/>
      <path d="M 4.890625 31.390625 
L 31.203125 31.390625 
L 31.203125 23.390625 
L 4.890625 23.390625 
z
" id="DejaVuSans-45"/>
      <path d="M 56.203125 29.59375 
L 56.203125 25.203125 
L 14.890625 25.203125 
Q 15.484375 15.921875 20.484375 11.0625 
Q 25.484375 6.203125 34.421875 6.203125 
Q 39.59375 6.203125 44.453125 7.46875 
Q 49.3125 8.734375 54.109375 11.28125 
L 54.109375 2.78125 
Q 49.265625 0.734375 44.1875 -0.34375 
Q 39.109375 -1.421875 33.890625 -1.421875 
Q 20.796875 -1.421875 13.15625 6.1875 
Q 5.515625 13.8125 5.515625 26.8125 
Q 5.515625 40.234375 12.765625 48.109375 
Q 20.015625 56 32.328125 56 
Q 43.359375 56 49.78125 48.890625 
Q 56.203125 41.796875 56.203125 29.59375 
z
M 47.21875 32.234375 
Q 47.125 39.59375 43.09375 43.984375 
Q 39.0625 48.390625 32.421875 48.390625 
Q 24.90625 48.390625 20.390625 44.140625 
Q 15.875 39.890625 15.1875 32.171875 
z
" id="DejaVuSans-101"/>
      <path d="M 2.984375 54.6875 
L 12.5 54.6875 
L 29.59375 8.796875 
L 46.6875 54.6875 
L 56.203125 54.6875 
L 35.6875 0 
L 23.484375 0 
z
" id="DejaVuSans-118"/>
      <path d="M 34.28125 27.484375 
Q 23.390625 27.484375 19.1875 25 
Q 14.984375 22.515625 14.984375 16.5 
Q 14.984375 11.71875 18.140625 8.90625 
Q 21.296875 6.109375 26.703125 6.109375 
Q 34.1875 6.109375 38.703125 11.40625 
Q 43.21875 16.703125 43.21875 25.484375 
L 43.21875 27.484375 
z
M 52.203125 31.203125 
L 52.203125 0 
L 43.21875 0 
L 43.21875 8.296875 
Q 40.140625 3.328125 35.546875 0.953125 
Q 30.953125 -1.421875 24.3125 -1.421875 
Q 15.921875 -1.421875 10.953125 3.296875 
Q 6 8.015625 6 15.921875 
Q 6 25.140625 12.171875 29.828125 
Q 18.359375 34.515625 30.609375 34.515625 
L 43.21875 34.515625 
L 43.21875 35.40625 
Q 43.21875 41.609375 39.140625 45 
Q 35.0625 48.390625 27.6875 48.390625 
Q 23 48.390625 18.546875 47.265625 
Q 14.109375 46.140625 10.015625 43.890625 
L 10.015625 52.203125 
Q 14.9375 54.109375 19.578125 55.046875 
Q 24.21875 56 28.609375 56 
Q 40.484375 56 46.34375 49.84375 
Q 52.203125 43.703125 52.203125 31.203125 
z
" id="DejaVuSans-97"/>
      <path d="M 44.28125 53.078125 
L 44.28125 44.578125 
Q 40.484375 46.53125 36.375 47.5 
Q 32.28125 48.484375 27.875 48.484375 
Q 21.1875 48.484375 17.84375 46.4375 
Q 14.5 44.390625 14.5 40.28125 
Q 14.5 37.15625 16.890625 35.375 
Q 19.28125 33.59375 26.515625 31.984375 
L 29.59375 31.296875 
Q 39.15625 29.25 43.1875 25.515625 
Q 47.21875 21.78125 47.21875 15.09375 
Q 47.21875 7.46875 41.1875 3.015625 
Q 35.15625 -1.421875 24.609375 -1.421875 
Q 20.21875 -1.421875 15.453125 -0.5625 
Q 10.6875 0.296875 5.421875 2 
L 5.421875 11.28125 
Q 10.40625 8.6875 15.234375 7.390625 
Q 20.0625 6.109375 24.8125 6.109375 
Q 31.15625 6.109375 34.5625 8.28125 
Q 37.984375 10.453125 37.984375 14.40625 
Q 37.984375 18.0625 35.515625 20.015625 
Q 33.0625 21.96875 24.703125 23.78125 
L 21.578125 24.515625 
Q 13.234375 26.265625 9.515625 29.90625 
Q 5.8125 33.546875 5.8125 39.890625 
Q 5.8125 47.609375 11.28125 51.796875 
Q 16.75 56 26.8125 56 
Q 31.78125 56 36.171875 55.265625 
Q 40.578125 54.546875 44.28125 53.078125 
z
" id="DejaVuSans-115"/>
      <path d="M 25.390625 72.90625 
L 33.6875 72.90625 
L 8.296875 -9.28125 
L 0 -9.28125 
z
" id="DejaVuSans-47"/>
      <path d="M 45.40625 46.390625 
L 45.40625 75.984375 
L 54.390625 75.984375 
L 54.390625 0 
L 45.40625 0 
L 45.40625 8.203125 
Q 42.578125 3.328125 38.25 0.953125 
Q 33.9375 -1.421875 27.875 -1.421875 
Q 17.96875 -1.421875 11.734375 6.484375 
Q 5.515625 14.40625 5.515625 27.296875 
Q 5.515625 40.1875 11.734375 48.09375 
Q 17.96875 56 27.875 56 
Q 33.9375 56 38.25 53.625 
Q 42.578125 51.265625 45.40625 46.390625 
z
M 14.796875 27.296875 
Q 14.796875 17.390625 18.875 11.75 
Q 22.953125 6.109375 30.078125 6.109375 
Q 37.203125 6.109375 41.296875 11.75 
Q 45.40625 17.390625 45.40625 27.296875 
Q 45.40625 37.203125 41.296875 42.84375 
Q 37.203125 48.484375 30.078125 48.484375 
Q 22.953125 48.484375 18.875 42.84375 
Q 14.796875 37.203125 14.796875 27.296875 
z
" id="DejaVuSans-100"/>
      <path d="M 9.421875 54.6875 
L 18.40625 54.6875 
L 18.40625 0 
L 9.421875 0 
z
M 9.421875 75.984375 
L 18.40625 75.984375 
L 18.40625 64.59375 
L 9.421875 64.59375 
z
" id="DejaVuSans-105"/>
      <path d="M 52 44.1875 
Q 55.375 50.25 60.0625 53.125 
Q 64.75 56 71.09375 56 
Q 79.640625 56 84.28125 50.015625 
Q 88.921875 44.046875 88.921875 33.015625 
L 88.921875 0 
L 79.890625 0 
L 79.890625 32.71875 
Q 79.890625 40.578125 77.09375 44.375 
Q 74.3125 48.1875 68.609375 48.1875 
Q 61.625 48.1875 57.5625 43.546875 
Q 53.515625 38.921875 53.515625 30.90625 
L 53.515625 0 
L 44.484375 0 
L 44.484375 32.71875 
Q 44.484375 40.625 41.703125 44.40625 
Q 38.921875 48.1875 33.109375 48.1875 
Q 26.21875 48.1875 22.15625 43.53125 
Q 18.109375 38.875 18.109375 30.90625 
L 18.109375 0 
L 9.078125 0 
L 9.078125 54.6875 
L 18.109375 54.6875 
L 18.109375 46.1875 
Q 21.1875 51.21875 25.484375 53.609375 
Q 29.78125 56 35.6875 56 
Q 41.65625 56 45.828125 52.96875 
Q 50 49.953125 52 44.1875 
z
" id="DejaVuSans-109"/>
      <path d="M 54.890625 33.015625 
L 54.890625 0 
L 45.90625 0 
L 45.90625 32.71875 
Q 45.90625 40.484375 42.875 44.328125 
Q 39.84375 48.1875 33.796875 48.1875 
Q 26.515625 48.1875 22.3125 43.546875 
Q 18.109375 38.921875 18.109375 30.90625 
L 18.109375 0 
L 9.078125 0 
L 9.078125 54.6875 
L 18.109375 54.6875 
L 18.109375 46.1875 
Q 21.34375 51.125 25.703125 53.5625 
Q 30.078125 56 35.796875 56 
Q 45.21875 56 50.046875 50.171875 
Q 54.890625 44.34375 54.890625 33.015625 
z
" id="DejaVuSans-110"/>
      <path d="M 8.015625 75.875 
L 15.828125 75.875 
Q 23.140625 64.359375 26.78125 53.3125 
Q 30.421875 42.28125 30.421875 31.390625 
Q 30.421875 20.453125 26.78125 9.375 
Q 23.140625 -1.703125 15.828125 -13.1875 
L 8.015625 -13.1875 
Q 14.5 -2 17.703125 9.0625 
Q 20.90625 20.125 20.90625 31.390625 
Q 20.90625 42.671875 17.703125 53.65625 
Q 14.5 64.65625 8.015625 75.875 
z
" id="DejaVuSans-41"/>
     </defs>
     <g transform="translate(77.764078 342.217594)scale(0.17 -0.17)">
      <use xlink:href="#DejaVuSans-108"/>
      <use x="27.783203" xlink:href="#DejaVuSans-111"/>
      <use x="88.964844" xlink:href="#DejaVuSans-103"/>
      <use x="152.441406" xlink:href="#DejaVuSans-49"/>
      <use x="216.064453" xlink:href="#DejaVuSans-48"/>
      <use x="279.6875" xlink:href="#DejaVuSans-40"/>
      <use x="318.701172" xlink:href="#DejaVuSans-35"/>
      <use x="402.490234" xlink:href="#DejaVuSans-32"/>
      <use x="434.277344" xlink:href="#DejaVuSans-102"/>
      <use x="463.982422" xlink:href="#DejaVuSans-45"/>
      <use x="500.066406" xlink:href="#DejaVuSans-101"/>
      <use x="561.589844" xlink:href="#DejaVuSans-118"/>
      <use x="620.769531" xlink:href="#DejaVuSans-97"/>
      <use x="682.048828" xlink:href="#DejaVuSans-108"/>
      <use x="709.832031" xlink:href="#DejaVuSans-115"/>
      <use x="761.931641" xlink:href="#DejaVuSans-32"/>
      <use x="793.71875" xlink:href="#DejaVuSans-47"/>
      <use x="827.410156" xlink:href="#DejaVuSans-32"/>
      <use x="859.197266" xlink:href="#DejaVuSans-100"/>
      <use x="922.673828" xlink:href="#DejaVuSans-105"/>
      <use x="950.457031" xlink:href="#DejaVuSans-109"/>
      <use x="1047.869141" xlink:href="#DejaVuSans-101"/>
      <use x="1109.392578" xlink:href="#DejaVuSans-110"/>
      <use x="1172.771484" xlink:href="#DejaVuSans-115"/>
      <use x="1224.871094" xlink:href="#DejaVuSans-105"/>
      <use x="1252.654297" xlink:href="#DejaVuSans-111"/>
      <use x="1313.835938" xlink:href="#DejaVuSans-110"/>
      <use x="1377.214844" xlink:href="#DejaVuSans-41"/>
     </g>
    </g>
   </g>
   <g id="matplotlib.axis_2">
    <g id="ytick_1">
     <g id="line2d_21">
      <path clip-path="url(#p1bdc52407b)" d="M 57.6 298.944 
L 338.688 298.944 
" style="fill:none;stroke:#b0b0b0;stroke-linecap:square;stroke-width:0.8;"/>
     </g>
     <g id="line2d_22">
      <defs>
       <path d="M 0 0 
L -3.5 0 
" id="ma852394c4d" style="stroke:#000000;stroke-width:0.8;"/>
      </defs>
      <g>
       <use style="stroke:#000000;stroke-width:0.8;" x="57.6" xlink:href="#ma852394c4d" y="298.944"/>
      </g>
     </g>
     <g id="text_6">
      <!-- 0.0 -->
      <defs>
       <path d="M 10.6875 12.40625 
L 21 12.40625 
L 21 0 
L 10.6875 0 
z
" id="DejaVuSans-46"/>
      </defs>
      <g transform="translate(25.155 305.02275)scale(0.16 -0.16)">
       <use xlink:href="#DejaVuSans-48"/>
       <use x="63.623047" xlink:href="#DejaVuSans-46"/>
       <use x="95.410156" xlink:href="#DejaVuSans-48"/>
      </g>
     </g>
    </g>
    <g id="ytick_2">
     <g id="line2d_23">
      <path clip-path="url(#p1bdc52407b)" d="M 57.6 245.22202 
L 338.688 245.22202 
" style="fill:none;stroke:#b0b0b0;stroke-linecap:square;stroke-width:0.8;"/>
     </g>
     <g id="line2d_24">
      <g>
       <use style="stroke:#000000;stroke-width:0.8;" x="57.6" xlink:href="#ma852394c4d" y="245.22202"/>
      </g>
     </g>
     <g id="text_7">
      <!-- 0.2 -->
      <g transform="translate(25.155 251.30077)scale(0.16 -0.16)">
       <use xlink:href="#DejaVuSans-48"/>
       <use x="63.623047" xlink:href="#DejaVuSans-46"/>
       <use x="95.410156" xlink:href="#DejaVuSans-50"/>
      </g>
     </g>
    </g>
    <g id="ytick_3">
     <g id="line2d_25">
      <path clip-path="url(#p1bdc52407b)" d="M 57.6 191.50004 
L 338.688 191.50004 
" style="fill:none;stroke:#b0b0b0;stroke-linecap:square;stroke-width:0.8;"/>
     </g>
     <g id="line2d_26">
      <g>
       <use style="stroke:#000000;stroke-width:0.8;" x="57.6" xlink:href="#ma852394c4d" y="191.50004"/>
      </g>
     </g>
     <g id="text_8">
      <!-- 0.4 -->
      <g transform="translate(25.155 197.57879)scale(0.16 -0.16)">
       <use xlink:href="#DejaVuSans-48"/>
       <use x="63.623047" xlink:href="#DejaVuSans-46"/>
       <use x="95.410156" xlink:href="#DejaVuSans-52"/>
      </g>
     </g>
    </g>
    <g id="ytick_4">
     <g id="line2d_27">
      <path clip-path="url(#p1bdc52407b)" d="M 57.6 137.778059 
L 338.688 137.778059 
" style="fill:none;stroke:#b0b0b0;stroke-linecap:square;stroke-width:0.8;"/>
     </g>
     <g id="line2d_28">
      <g>
       <use style="stroke:#000000;stroke-width:0.8;" x="57.6" xlink:href="#ma852394c4d" y="137.778059"/>
      </g>
     </g>
     <g id="text_9">
      <!-- 0.6 -->
      <g transform="translate(25.155 143.856809)scale(0.16 -0.16)">
       <use xlink:href="#DejaVuSans-48"/>
       <use x="63.623047" xlink:href="#DejaVuSans-46"/>
       <use x="95.410156" xlink:href="#DejaVuSans-54"/>
      </g>
     </g>
    </g>
    <g id="ytick_5">
     <g id="line2d_29">
      <path clip-path="url(#p1bdc52407b)" d="M 57.6 84.056079 
L 338.688 84.056079 
" style="fill:none;stroke:#b0b0b0;stroke-linecap:square;stroke-width:0.8;"/>
     </g>
     <g id="line2d_30">
      <g>
       <use style="stroke:#000000;stroke-width:0.8;" x="57.6" xlink:href="#ma852394c4d" y="84.056079"/>
      </g>
     </g>
     <g id="text_10">
      <!-- 0.8 -->
      <defs>
       <path d="M 31.78125 34.625 
Q 24.75 34.625 20.71875 30.859375 
Q 16.703125 27.09375 16.703125 20.515625 
Q 16.703125 13.921875 20.71875 10.15625 
Q 24.75 6.390625 31.78125 6.390625 
Q 38.8125 6.390625 42.859375 10.171875 
Q 46.921875 13.96875 46.921875 20.515625 
Q 46.921875 27.09375 42.890625 30.859375 
Q 38.875 34.625 31.78125 34.625 
z
M 21.921875 38.8125 
Q 15.578125 40.375 12.03125 44.71875 
Q 8.5 49.078125 8.5 55.328125 
Q 8.5 64.0625 14.71875 69.140625 
Q 20.953125 74.21875 31.78125 74.21875 
Q 42.671875 74.21875 48.875 69.140625 
Q 55.078125 64.0625 55.078125 55.328125 
Q 55.078125 49.078125 51.53125 44.71875 
Q 48 40.375 41.703125 38.8125 
Q 48.828125 37.15625 52.796875 32.3125 
Q 56.78125 27.484375 56.78125 20.515625 
Q 56.78125 9.90625 50.3125 4.234375 
Q 43.84375 -1.421875 31.78125 -1.421875 
Q 19.734375 -1.421875 13.25 4.234375 
Q 6.78125 9.90625 6.78125 20.515625 
Q 6.78125 27.484375 10.78125 32.3125 
Q 14.796875 37.15625 21.921875 38.8125 
z
M 18.3125 54.390625 
Q 18.3125 48.734375 21.84375 45.5625 
Q 25.390625 42.390625 31.78125 42.390625 
Q 38.140625 42.390625 41.71875 45.5625 
Q 45.3125 48.734375 45.3125 54.390625 
Q 45.3125 60.0625 41.71875 63.234375 
Q 38.140625 66.40625 31.78125 66.40625 
Q 25.390625 66.40625 21.84375 63.234375 
Q 18.3125 60.0625 18.3125 54.390625 
z
" id="DejaVuSans-56"/>
      </defs>
      <g transform="translate(25.155 90.134829)scale(0.16 -0.16)">
       <use xlink:href="#DejaVuSans-48"/>
       <use x="63.623047" xlink:href="#DejaVuSans-46"/>
       <use x="95.410156" xlink:href="#DejaVuSans-56"/>
      </g>
     </g>
    </g>
    <g id="ytick_6">
     <g id="line2d_31">
      <path clip-path="url(#p1bdc52407b)" d="M 57.6 30.334099 
L 338.688 30.334099 
" style="fill:none;stroke:#b0b0b0;stroke-linecap:square;stroke-width:0.8;"/>
     </g>
     <g id="line2d_32">
      <g>
       <use style="stroke:#000000;stroke-width:0.8;" x="57.6" xlink:href="#ma852394c4d" y="30.334099"/>
      </g>
     </g>
     <g id="text_11">
      <!-- 1.0 -->
      <g transform="translate(25.155 36.412849)scale(0.16 -0.16)">
       <use xlink:href="#DejaVuSans-49"/>
       <use x="63.623047" xlink:href="#DejaVuSans-46"/>
       <use x="95.410156" xlink:href="#DejaVuSans-48"/>
      </g>
     </g>
    </g>
    <g id="text_12">
     <!-- Fraction of function,target pairs -->
     <defs>
      <path d="M 9.8125 72.90625 
L 51.703125 72.90625 
L 51.703125 64.59375 
L 19.671875 64.59375 
L 19.671875 43.109375 
L 48.578125 43.109375 
L 48.578125 34.8125 
L 19.671875 34.8125 
L 19.671875 0 
L 9.8125 0 
z
" id="DejaVuSans-70"/>
      <path d="M 41.109375 46.296875 
Q 39.59375 47.171875 37.8125 47.578125 
Q 36.03125 48 33.890625 48 
Q 26.265625 48 22.1875 43.046875 
Q 18.109375 38.09375 18.109375 28.8125 
L 18.109375 0 
L 9.078125 0 
L 9.078125 54.6875 
L 18.109375 54.6875 
L 18.109375 46.1875 
Q 20.953125 51.171875 25.484375 53.578125 
Q 30.03125 56 36.53125 56 
Q 37.453125 56 38.578125 55.875 
Q 39.703125 55.765625 41.0625 55.515625 
z
" id="DejaVuSans-114"/>
      <path d="M 48.78125 52.59375 
L 48.78125 44.1875 
Q 44.96875 46.296875 41.140625 47.34375 
Q 37.3125 48.390625 33.40625 48.390625 
Q 24.65625 48.390625 19.8125 42.84375 
Q 14.984375 37.3125 14.984375 27.296875 
Q 14.984375 17.28125 19.8125 11.734375 
Q 24.65625 6.203125 33.40625 6.203125 
Q 37.3125 6.203125 41.140625 7.25 
Q 44.96875 8.296875 48.78125 10.40625 
L 48.78125 2.09375 
Q 45.015625 0.34375 40.984375 -0.53125 
Q 36.96875 -1.421875 32.421875 -1.421875 
Q 20.0625 -1.421875 12.78125 6.34375 
Q 5.515625 14.109375 5.515625 27.296875 
Q 5.515625 40.671875 12.859375 48.328125 
Q 20.21875 56 33.015625 56 
Q 37.15625 56 41.109375 55.140625 
Q 45.0625 54.296875 48.78125 52.59375 
z
" id="DejaVuSans-99"/>
      <path d="M 18.3125 70.21875 
L 18.3125 54.6875 
L 36.8125 54.6875 
L 36.8125 47.703125 
L 18.3125 47.703125 
L 18.3125 18.015625 
Q 18.3125 11.328125 20.140625 9.421875 
Q 21.96875 7.515625 27.59375 7.515625 
L 36.8125 7.515625 
L 36.8125 0 
L 27.59375 0 
Q 17.1875 0 13.234375 3.875 
Q 9.28125 7.765625 9.28125 18.015625 
L 9.28125 47.703125 
L 2.6875 47.703125 
L 2.6875 54.6875 
L 9.28125 54.6875 
L 9.28125 70.21875 
z
" id="DejaVuSans-116"/>
      <path d="M 8.5 21.578125 
L 8.5 54.6875 
L 17.484375 54.6875 
L 17.484375 21.921875 
Q 17.484375 14.15625 20.5 10.265625 
Q 23.53125 6.390625 29.59375 6.390625 
Q 36.859375 6.390625 41.078125 11.03125 
Q 45.3125 15.671875 45.3125 23.6875 
L 45.3125 54.6875 
L 54.296875 54.6875 
L 54.296875 0 
L 45.3125 0 
L 45.3125 8.40625 
Q 42.046875 3.421875 37.71875 1 
Q 33.40625 -1.421875 27.6875 -1.421875 
Q 18.265625 -1.421875 13.375 4.4375 
Q 8.5 10.296875 8.5 21.578125 
z
M 31.109375 56 
z
" id="DejaVuSans-117"/>
      <path d="M 11.71875 12.40625 
L 22.015625 12.40625 
L 22.015625 4 
L 14.015625 -11.625 
L 7.71875 -11.625 
L 11.71875 4 
z
" id="DejaVuSans-44"/>
      <path d="M 18.109375 8.203125 
L 18.109375 -20.796875 
L 9.078125 -20.796875 
L 9.078125 54.6875 
L 18.109375 54.6875 
L 18.109375 46.390625 
Q 20.953125 51.265625 25.265625 53.625 
Q 29.59375 56 35.59375 56 
Q 45.5625 56 51.78125 48.09375 
Q 58.015625 40.1875 58.015625 27.296875 
Q 58.015625 14.40625 51.78125 6.484375 
Q 45.5625 -1.421875 35.59375 -1.421875 
Q 29.59375 -1.421875 25.265625 0.953125 
Q 20.953125 3.328125 18.109375 8.203125 
z
M 48.6875 27.296875 
Q 48.6875 37.203125 44.609375 42.84375 
Q 40.53125 48.484375 33.40625 48.484375 
Q 26.265625 48.484375 22.1875 42.84375 
Q 18.109375 37.203125 18.109375 27.296875 
Q 18.109375 17.390625 22.1875 11.75 
Q 26.265625 6.109375 33.40625 6.109375 
Q 40.53125 6.109375 44.609375 11.75 
Q 48.6875 17.390625 48.6875 27.296875 
z
" id="DejaVuSans-112"/>
     </defs>
     <g transform="translate(17.619531 297.681)rotate(-90)scale(0.17 -0.17)">
      <use xlink:href="#DejaVuSans-70"/>
      <use x="50.269531" xlink:href="#DejaVuSans-114"/>
      <use x="91.382812" xlink:href="#DejaVuSans-97"/>
      <use x="152.662109" xlink:href="#DejaVuSans-99"/>
      <use x="207.642578" xlink:href="#DejaVuSans-116"/>
      <use x="246.851562" xlink:href="#DejaVuSans-105"/>
      <use x="274.634766" xlink:href="#DejaVuSans-111"/>
      <use x="335.816406" xlink:href="#DejaVuSans-110"/>
      <use x="399.195312" xlink:href="#DejaVuSans-32"/>
      <use x="430.982422" xlink:href="#DejaVuSans-111"/>
      <use x="492.164062" xlink:href="#DejaVuSans-102"/>
      <use x="527.369141" xlink:href="#DejaVuSans-32"/>
      <use x="559.15625" xlink:href="#DejaVuSans-102"/>
      <use x="594.361328" xlink:href="#DejaVuSans-117"/>
      <use x="657.740234" xlink:href="#DejaVuSans-110"/>
      <use x="721.119141" xlink:href="#DejaVuSans-99"/>
      <use x="776.099609" xlink:href="#DejaVuSans-116"/>
      <use x="815.308594" xlink:href="#DejaVuSans-105"/>
      <use x="843.091797" xlink:href="#DejaVuSans-111"/>
      <use x="904.273438" xlink:href="#DejaVuSans-110"/>
      <use x="967.652344" xlink:href="#DejaVuSans-44"/>
      <use x="999.439453" xlink:href="#DejaVuSans-116"/>
      <use x="1038.648438" xlink:href="#DejaVuSans-97"/>
      <use x="1099.927734" xlink:href="#DejaVuSans-114"/>
      <use x="1139.291016" xlink:href="#DejaVuSans-103"/>
      <use x="1202.767578" xlink:href="#DejaVuSans-101"/>
      <use x="1264.291016" xlink:href="#DejaVuSans-116"/>
      <use x="1303.5" xlink:href="#DejaVuSans-32"/>
      <use x="1335.287109" xlink:href="#DejaVuSans-112"/>
      <use x="1398.763672" xlink:href="#DejaVuSans-97"/>
      <use x="1460.042969" xlink:href="#DejaVuSans-105"/>
      <use x="1487.826172" xlink:href="#DejaVuSans-114"/>
      <use x="1528.939453" xlink:href="#DejaVuSans-115"/>
     </g>
    </g>
   </g>
   <g id="line2d_33">
    <defs>
     <path d="M 0 1.5 
C 0.397805 1.5 0.77937 1.341951 1.06066 1.06066 
C 1.341951 0.77937 1.5 0.397805 1.5 0 
C 1.5 -0.397805 1.341951 -0.77937 1.06066 -1.06066 
C 0.77937 -1.341951 0.397805 -1.5 0 -1.5 
C -0.397805 -1.5 -0.77937 -1.341951 -1.06066 -1.06066 
C -1.341951 -0.77937 -1.5 -0.397805 -1.5 0 
C -1.5 0.397805 -1.341951 0.77937 -1.06066 1.06066 
C -0.77937 1.341951 -0.397805 1.5 0 1.5 
z
" id="m0211eec28b" style="stroke:#f5deb3;"/>
    </defs>
    <g>
     <use style="fill:#f5deb3;stroke:#f5deb3;" x="129.099042" xlink:href="#m0211eec28b" y="30.334099"/>
     <use style="fill:#f5deb3;stroke:#f5deb3;" x="129.099042" xlink:href="#m0211eec28b" y="30.334099"/>
    </g>
   </g>
   <g id="line2d_34">
    <defs>
     <path d="M 0 1.5 
C 0.397805 1.5 0.77937 1.341951 1.06066 1.06066 
C 1.341951 0.77937 1.5 0.397805 1.5 0 
C 1.5 -0.397805 1.341951 -0.77937 1.06066 -1.06066 
C 0.77937 -1.341951 0.397805 -1.5 0 -1.5 
C -0.397805 -1.5 -0.77937 -1.341951 -1.06066 -1.06066 
C -1.341951 -0.77937 -1.5 -0.397805 -1.5 0 
C -1.5 0.397805 -1.341951 0.77937 -1.06066 1.06066 
C -0.77937 1.341951 -0.397805 1.5 0 1.5 
z
" id="me0f62aec1d" style="stroke:#ff00ff;"/>
    </defs>
    <g>
     <use style="fill:#ff00ff;stroke:#ff00ff;" x="264.980425" xlink:href="#me0f62aec1d" y="30.334099"/>
     <use style="fill:#ff00ff;stroke:#ff00ff;" x="264.980425" xlink:href="#me0f62aec1d" y="30.334099"/>
    </g>
   </g>
   <g id="line2d_35">
    <path d="M 86.792945 298.944 
L 86.792945 298.417314 
L 101.412804 298.417314 
L 101.412804 297.363942 
L 107.009204 297.363942 
L 107.009204 296.31057 
L 112.026172 296.31057 
L 112.026172 294.730511 
L 113.965867 294.730511 
L 113.965867 293.677139 
L 116.719583 293.677139 
L 116.719583 291.570395 
L 117.857331 291.570395 
L 117.857331 290.517023 
L 119.097192 290.517023 
L 119.097192 288.936964 
L 121.189196 288.936964 
L 121.189196 287.883592 
L 121.785469 287.883592 
L 121.785469 285.776848 
L 125.110962 285.776848 
L 125.110962 284.723476 
L 126.948374 284.723476 
L 126.948374 283.143418 
L 127.902737 283.143418 
L 127.902737 280.509987 
L 128.209594 280.509987 
L 128.310692 278.403243 
L 130.926816 278.403243 
L 130.926816 277.876557 
L 131.270459 277.876557 
L 131.270459 277.349871 
L 132.101058 277.349871 
L 132.101058 274.71644 
L 132.422528 274.71644 
L 132.422528 273.663068 
L 133.04822 273.663068 
L 133.04822 271.556324 
L 133.946579 271.556324 
L 133.946579 268.922893 
L 134.307653 268.922893 
L 134.307653 268.396207 
L 135.076644 268.396207 
L 135.076644 266.816149 
L 135.212889 266.816149 
L 135.212889 266.289463 
L 135.548916 266.289463 
L 135.548916 265.762777 
L 135.878591 265.762777 
L 135.878591 264.709405 
L 136.32991 264.709405 
L 136.32991 264.182719 
L 137.617753 264.182719 
L 137.676769 262.60266 
L 137.968891 262.60266 
L 137.968891 261.022602 
L 140.144829 261.022602 
L 140.144829 259.96923 
L 140.297583 259.96923 
L 140.297583 259.442544 
L 141.235139 259.442544 
L 141.235139 258.915858 
L 141.709062 258.915858 
L 141.709062 258.389172 
L 141.941279 258.389172 
L 141.941279 257.862486 
L 142.351634 257.862486 
L 142.351634 256.809114 
L 142.708461 256.809114 
L 142.708461 256.282427 
L 143.527762 256.282427 
L 143.527762 255.755741 
L 143.653678 255.755741 
L 143.653678 254.702369 
L 145.628555 254.702369 
L 145.703082 253.648997 
L 145.888018 253.648997 
L 145.888018 252.595625 
L 147.198794 252.595625 
L 147.198794 252.068939 
L 147.402367 252.068939 
L 147.402367 251.542253 
L 147.70334 251.542253 
L 147.70334 250.488881 
L 147.901141 250.488881 
L 147.901141 249.962195 
L 148.225905 249.962195 
L 148.225905 249.435508 
L 148.54473 249.435508 
L 148.54473 248.908822 
L 149.527485 248.908822 
L 149.557321 247.85545 
L 149.882194 247.85545 
L 149.882194 245.748706 
L 150.287105 245.748706 
L 150.287105 245.22202 
L 150.570677 245.22202 
L 150.570677 244.695334 
L 151.340991 244.695334 
L 151.340991 244.168648 
L 151.660987 244.168648 
L 151.660987 243.641962 
L 151.897188 243.641962 
L 151.897188 243.115275 
L 152.410901 243.115275 
L 152.511852 242.061903 
L 152.909913 242.061903 
L 152.909913 241.535217 
L 153.178403 241.535217 
L 153.178403 241.008531 
L 153.750233 241.008531 
L 153.750233 239.955159 
L 155.12447 239.955159 
L 155.12447 239.428473 
L 156.216093 239.428473 
L 156.216093 238.901787 
L 156.677955 238.901787 
L 156.677955 236.795043 
L 157.262567 236.795043 
L 157.262567 236.268356 
L 157.883783 236.268356 
L 157.883783 235.74167 
L 158.889829 235.74167 
L 158.889829 235.214984 
L 159.923445 235.214984 
L 159.923445 234.688298 
L 161.100288 234.688298 
L 161.100288 234.161612 
L 161.896878 234.161612 
L 161.955547 233.10824 
L 162.245966 233.10824 
L 162.245966 232.054868 
L 162.489076 232.054868 
L 162.489076 231.001496 
L 163.089286 231.001496 
L 163.089286 230.47481 
L 163.642961 230.47481 
L 163.642961 229.948123 
L 163.932963 229.948123 
L 163.932963 229.421437 
L 164.333587 229.421437 
L 164.333587 228.368065 
L 164.837283 228.368065 
L 164.837283 226.788007 
L 164.960967 226.788007 
L 164.960967 226.261321 
L 165.791279 226.261321 
L 165.791279 225.734635 
L 166.02474 225.734635 
L 166.02474 225.207949 
L 166.277988 225.207949 
L 166.277988 224.154577 
L 166.583849 224.154577 
L 166.583849 223.627891 
L 166.718084 223.627891 
L 166.718084 223.101204 
L 167.038282 223.101204 
L 167.038282 222.574518 
L 167.860992 222.574518 
L 167.860992 222.047832 
L 168.616676 222.047832 
L 168.646632 220.467774 
L 168.815417 220.467774 
L 168.884444 218.887716 
L 169.981016 218.887716 
L 170.045589 217.834344 
L 170.589478 217.834344 
L 170.5984 216.254285 
L 170.986544 216.254285 
L 171.003983 215.200913 
L 171.177424 215.200913 
L 171.177424 214.674227 
L 171.978498 214.674227 
L 171.978498 214.147541 
L 172.118046 214.147541 
L 172.118046 213.620855 
L 172.313173 213.620855 
L 172.313173 213.094169 
L 172.854463 213.094169 
L 172.854463 212.567483 
L 173.172891 212.567483 
L 173.172891 212.040797 
L 174.640854 212.040797 
L 174.640854 210.987425 
L 175.211544 210.987425 
L 175.211544 210.460738 
L 175.58412 210.460738 
L 175.58412 209.934052 
L 175.962024 209.934052 
L 175.962024 209.407366 
L 176.125223 209.407366 
L 176.125223 206.773936 
L 176.357578 206.773936 
L 176.357578 205.720564 
L 176.675242 205.720564 
L 176.681537 204.667192 
L 177.594925 204.667192 
L 177.594925 204.140506 
L 178.587413 204.140506 
L 178.587413 203.613819 
L 178.750267 203.613819 
L 178.750267 203.087133 
L 179.633043 203.087133 
L 179.633043 202.560447 
L 180.284908 202.560447 
L 180.284908 202.033761 
L 180.523841 202.033761 
L 180.523841 201.507075 
L 180.769504 201.507075 
L 180.769504 200.980389 
L 181.260369 200.980389 
L 181.260369 199.400331 
L 182.055136 199.400331 
L 182.055136 198.873645 
L 182.810829 198.873645 
L 182.810829 198.346959 
L 182.943179 198.346959 
L 182.943179 197.820273 
L 183.93412 197.820273 
L 183.942422 196.7669 
L 184.218294 196.7669 
L 184.291671 195.713528 
L 184.384984 195.713528 
L 184.433471 193.606784 
L 184.76916 193.606784 
L 184.76916 193.080098 
L 185.2185 193.080098 
L 185.2185 192.026726 
L 185.34916 192.026726 
L 185.34916 190.973354 
L 186.175396 190.973354 
L 186.175396 190.446667 
L 186.718227 190.446667 
L 186.718227 189.919981 
L 188.938627 189.919981 
L 188.938627 188.339923 
L 190.104793 188.339923 
L 190.151367 187.286551 
L 190.607566 187.286551 
L 190.700772 185.179807 
L 190.804686 185.179807 
L 190.804686 184.126434 
L 190.924678 184.126434 
L 190.977436 182.546376 
L 191.184147 182.546376 
L 191.293399 181.493004 
L 191.723688 181.493004 
L 191.723688 180.966318 
L 192.195403 180.966318 
L 192.265072 179.38626 
L 192.576451 179.38626 
L 192.576451 178.859574 
L 192.727572 178.859574 
L 192.727572 177.806202 
L 192.894791 177.806202 
L 192.894791 176.752829 
L 193.394279 176.752829 
L 193.394279 175.699457 
L 193.636379 175.699457 
L 193.636379 175.172771 
L 193.964164 175.172771 
L 193.964164 174.646085 
L 194.180082 174.646085 
L 194.256061 173.592713 
L 194.411586 173.592713 
L 194.468417 170.959282 
L 194.54993 170.959282 
L 194.54993 170.432596 
L 194.662515 170.432596 
L 194.664759 168.852538 
L 194.803344 168.852538 
L 194.803344 167.27248 
L 195.295057 167.27248 
L 195.368495 166.219108 
L 195.716332 166.219108 
L 195.716332 165.692422 
L 196.036635 165.692422 
L 196.036635 165.165736 
L 196.438545 165.165736 
L 196.438545 164.112363 
L 196.690112 164.112363 
L 196.690112 163.585677 
L 197.612381 163.585677 
L 197.612381 162.005619 
L 197.815867 162.005619 
L 197.815867 161.478933 
L 197.994771 161.478933 
L 197.994771 160.425561 
L 198.206695 160.425561 
L 198.268861 159.372189 
L 198.667624 159.372189 
L 198.667624 158.318817 
L 200.723261 158.318817 
L 200.723261 157.79213 
L 201.14928 157.79213 
L 201.14928 156.738758 
L 201.436246 156.738758 
L 201.436246 155.685386 
L 201.598346 155.685386 
L 201.598346 154.632014 
L 201.907728 154.632014 
L 201.907728 154.105328 
L 202.176742 154.105328 
L 202.176742 153.578642 
L 202.852025 153.578642 
L 202.852025 153.051956 
L 203.209004 153.051956 
L 203.209004 151.998584 
L 203.412671 151.998584 
L 203.412671 151.471897 
L 203.714447 151.471897 
L 203.79839 149.365153 
L 203.975601 149.365153 
L 203.975601 148.838467 
L 204.23679 148.838467 
L 204.23679 147.785095 
L 204.385221 147.785095 
L 204.473677 146.731723 
L 205.17791 146.731723 
L 205.180366 145.678351 
L 205.312482 145.678351 
L 205.3271 144.624978 
L 205.429084 144.624978 
L 205.429084 143.571606 
L 205.567746 143.571606 
L 205.567746 143.04492 
L 205.871335 143.04492 
L 205.871335 142.518234 
L 206.048647 142.518234 
L 206.048647 141.464862 
L 207.127944 141.464862 
L 207.127944 140.938176 
L 207.652595 140.938176 
L 207.72597 139.358118 
L 208.081007 139.358118 
L 208.081007 138.831432 
L 208.207402 138.831432 
L 208.207402 138.304745 
L 208.749104 138.304745 
L 208.749104 137.778059 
L 208.979736 137.778059 
L 209.089011 135.671315 
L 209.401226 135.671315 
L 209.401226 135.144629 
L 209.55765 135.144629 
L 209.55765 134.091257 
L 209.887926 134.091257 
L 209.887926 131.984513 
L 210.004715 131.984513 
L 210.004715 131.457826 
L 210.22678 131.457826 
L 210.22678 130.93114 
L 210.440605 130.93114 
L 210.54925 129.877768 
L 210.727941 129.877768 
L 210.727941 129.351082 
L 211.086924 129.351082 
L 211.086924 128.824396 
L 212.342832 128.824396 
L 212.398932 127.771024 
L 212.72303 127.771024 
L 212.776333 126.717652 
L 213.148073 126.717652 
L 213.241136 125.66428 
L 213.32755 125.66428 
L 213.34678 124.610907 
L 213.460956 124.610907 
L 213.460956 123.030849 
L 213.656905 123.030849 
L 213.656905 122.504163 
L 213.963095 122.504163 
L 214.039364 119.344047 
L 214.474976 119.344047 
L 214.554066 117.237302 
L 214.622798 117.237302 
L 214.728942 116.18393 
L 214.99116 116.18393 
L 214.99116 115.657244 
L 216.311163 115.657244 
L 216.354566 114.603872 
L 216.469996 114.603872 
L 216.469996 114.077186 
L 216.843258 114.077186 
L 216.914204 112.497128 
L 217.075114 112.497128 
L 217.176014 110.390383 
L 217.299026 110.390383 
L 217.390109 108.810325 
L 217.791514 108.810325 
L 217.815926 107.756953 
L 219.22252 107.756953 
L 219.322133 106.176895 
L 219.716056 106.176895 
L 219.795378 104.07015 
L 219.931879 104.07015 
L 219.931879 103.543464 
L 220.146105 103.543464 
L 220.199642 100.910034 
L 220.506753 100.910034 
L 220.507773 98.803289 
L 220.87358 98.803289 
L 220.87358 98.276603 
L 222.079196 98.276603 
L 222.096893 97.223231 
L 222.198537 97.223231 
L 222.267355 94.063115 
L 222.385877 94.063115 
L 222.460345 93.009743 
L 222.618726 93.009743 
L 222.63453 90.902998 
L 222.886362 90.902998 
L 222.886362 90.376312 
L 223.043584 90.376312 
L 223.043584 89.849626 
L 224.406373 89.849626 
L 224.432042 88.796254 
L 224.602614 88.796254 
L 224.602614 88.269568 
L 224.74276 88.269568 
L 224.74276 86.162824 
L 224.979914 86.162824 
L 225.061003 84.582765 
L 226.171628 84.582765 
L 226.222773 83.002707 
L 226.334476 83.002707 
L 226.334476 82.476021 
L 228.042025 82.476021 
L 228.091277 80.895963 
L 228.229691 80.895963 
L 228.332541 79.842591 
L 228.343607 79.842591 
L 228.343607 79.315904 
L 228.536762 79.315904 
L 228.602918 77.735846 
L 229.598402 77.735846 
L 229.598402 77.20916 
L 229.754528 77.20916 
L 229.794689 75.629102 
L 230.16992 75.629102 
L 230.16992 75.102416 
L 231.082887 75.102416 
L 231.193754 73.522358 
L 231.230738 73.522358 
L 231.230738 72.995672 
L 231.489621 72.995672 
L 231.489621 71.942299 
L 231.685993 71.942299 
L 231.685993 71.415613 
L 232.449577 71.415613 
L 232.557477 69.835555 
L 232.646422 69.835555 
L 232.646422 68.782183 
L 233.873267 68.782183 
L 233.873267 68.255497 
L 234.014148 68.255497 
L 234.014148 67.202125 
L 234.814352 67.202125 
L 234.847769 66.148752 
L 234.941844 66.148752 
L 235.019448 65.09538 
L 235.151401 65.09538 
L 235.151401 64.568694 
L 235.933556 64.568694 
L 235.98779 63.515322 
L 236.219009 63.515322 
L 236.219009 62.988636 
L 237.012577 62.988636 
L 237.10121 61.408578 
L 237.225014 61.408578 
L 237.225014 60.881892 
L 237.899969 60.881892 
L 237.975041 58.775147 
L 238.058927 58.775147 
L 238.065263 57.721775 
L 238.19649 57.721775 
L 238.19649 57.195089 
L 238.824837 57.195089 
L 238.910955 54.034973 
L 239.078059 54.034973 
L 239.078059 53.508287 
L 239.694633 53.508287 
L 239.70532 51.928228 
L 239.835417 51.928228 
L 239.835417 50.874856 
L 240.533292 50.874856 
L 240.574968 49.821484 
L 241.32373 49.821484 
L 241.36356 48.768112 
L 242.188478 48.768112 
L 242.188478 48.241426 
L 242.783452 48.241426 
L 242.783452 47.71474 
L 244.207178 47.71474 
L 244.270338 46.661368 
L 244.348091 46.661368 
L 244.348091 46.134681 
L 244.846535 46.134681 
L 244.846535 45.607995 
L 245.466814 45.607995 
L 245.466814 45.081309 
L 246.027944 45.081309 
L 246.125975 44.027937 
L 246.219958 44.027937 
L 246.219958 43.501251 
L 246.770743 43.501251 
L 246.770743 42.974565 
L 247.176852 42.974565 
L 247.223308 41.921193 
L 247.803014 41.921193 
L 247.803014 41.394507 
L 248.248181 41.394507 
L 248.291872 40.341135 
L 249.28561 40.341135 
L 249.28561 39.814448 
L 250.2355 39.814448 
L 250.2355 39.287762 
L 251.138865 39.287762 
L 251.183882 38.23439 
L 251.614583 38.23439 
L 251.614583 37.707704 
L 252.857171 37.707704 
L 252.857171 36.654332 
L 253.637223 36.654332 
L 253.637223 36.127646 
L 254.327502 36.127646 
L 254.327502 35.60096 
L 254.745541 35.60096 
L 254.745541 35.074274 
L 255.045763 35.074274 
L 255.045763 34.020902 
L 255.383816 34.020902 
L 255.411883 32.967529 
L 257.699657 32.967529 
L 257.699657 32.440843 
L 258.330576 32.440843 
L 258.330576 31.914157 
L 260.463202 31.914157 
L 260.463202 31.387471 
L 261.713623 31.387471 
L 261.713623 30.860785 
L 264.980425 30.860785 
L 264.980425 30.334099 
L 338.688 30.334099 
L 338.688 30.334099 
" style="fill:none;stroke:#ff00ff;stroke-linecap:square;stroke-width:1.5;"/>
   </g>
   <g id="line2d_36">
    <defs>
     <path d="M -0 8.485281 
L 5.091169 0 
L 0 -8.485281 
L -5.091169 -0 
z
" id="md4f49b8832" style="stroke:#ff00ff;stroke-linejoin:miter;stroke-width:1.5;"/>
    </defs>
    <g>
     <use style="fill-opacity:0;stroke:#ff00ff;stroke-linejoin:miter;stroke-width:1.5;" x="163.642961" xlink:href="#md4f49b8832" y="230.47481"/>
     <use style="fill-opacity:0;stroke:#ff00ff;stroke-linejoin:miter;stroke-width:1.5;" x="212.776333" xlink:href="#md4f49b8832" y="126.717652"/>
     <use style="fill-opacity:0;stroke:#ff00ff;stroke-linejoin:miter;stroke-width:1.5;" x="260.463202" xlink:href="#md4f49b8832" y="31.387471"/>
     <use style="fill-opacity:0;stroke:#ff00ff;stroke-linejoin:miter;stroke-width:1.5;" x="264.980425" xlink:href="#md4f49b8832" y="30.334099"/>
     <use style="fill-opacity:0;stroke:#ff00ff;stroke-linejoin:miter;stroke-width:1.5;" x="338.688" xlink:href="#md4f49b8832" y="30.334099"/>
    </g>
   </g>
   <g id="line2d_37">
    <path style="fill:none;stroke:#ff00ff;stroke-linecap:square;stroke-width:1.5;"/>
    <g/>
   </g>
   <g id="line2d_38">
    <path clip-path="url(#p1bdc52407b)" d="M 186.974717 189.919981 
" style="fill:none;stroke:#ff00ff;stroke-linecap:square;stroke-width:1.5;"/>
    <defs>
     <path d="M -12 12 
L 12 -12 
M -12 -12 
L 12 12 
" id="m7499f7c46d" style="stroke:#ff00ff;"/>
    </defs>
    <g clip-path="url(#p1bdc52407b)">
     <use style="fill:#ff00ff;stroke:#ff00ff;" x="186.974717" xlink:href="#m7499f7c46d" y="189.919981"/>
    </g>
   </g>
   <g id="line2d_39">
    <defs>
     <path d="M 0 1.5 
C 0.397805 1.5 0.77937 1.341951 1.06066 1.06066 
C 1.341951 0.77937 1.5 0.397805 1.5 0 
C 1.5 -0.397805 1.341951 -0.77937 1.06066 -1.06066 
C 0.77937 -1.341951 0.397805 -1.5 0 -1.5 
C -0.397805 -1.5 -0.77937 -1.341951 -1.06066 -1.06066 
C -1.341951 -0.77937 -1.5 -0.397805 -1.5 0 
C -1.5 0.397805 -1.341951 0.77937 -1.06066 1.06066 
C -0.77937 1.341951 -0.397805 1.5 0 1.5 
z
" id="m70c14af120" style="stroke:#ff7500;"/>
    </defs>
    <g>
     <use style="fill:#ff7500;stroke:#ff7500;" x="251.715975" xlink:href="#m70c14af120" y="146.205037"/>
     <use style="fill:#ff7500;stroke:#ff7500;" x="251.715975" xlink:href="#m70c14af120" y="146.205037"/>
    </g>
   </g>
   <g id="line2d_40">
    <path d="M 86.792945 298.944 
L 86.792945 298.417314 
L 100.934985 298.417314 
L 100.934985 297.890628 
L 109.843417 297.890628 
L 109.843417 296.837256 
L 111.767808 296.837256 
L 111.767808 295.783884 
L 112.531694 295.783884 
L 112.531694 295.257197 
L 120.093994 295.257197 
L 120.093994 294.203825 
L 120.41399 294.203825 
L 120.41399 292.623767 
L 123.192626 292.623767 
L 123.192626 288.410278 
L 124.114161 288.410278 
L 124.114161 287.883592 
L 124.241922 287.883592 
L 124.241922 287.356906 
L 124.619683 287.356906 
L 124.619683 284.19679 
L 124.743806 284.19679 
L 124.743806 280.509987 
L 125.351508 280.509987 
L 125.351508 278.929929 
L 126.50685 278.929929 
L 126.50685 278.403243 
L 126.618283 278.403243 
L 126.618283 277.876557 
L 128.709321 277.876557 
L 128.709321 276.823185 
L 129.002426 276.823185 
L 129.002426 275.243126 
L 131.270459 275.243126 
L 131.270459 274.71644 
L 132.101058 274.71644 
L 132.181982 271.556324 
L 132.262533 271.556324 
L 132.342714 268.922893 
L 132.73818 268.922893 
L 132.816208 266.816149 
L 133.04822 266.816149 
L 133.04822 265.236091 
L 133.800029 265.236091 
L 133.800029 264.709405 
L 136.393441 264.709405 
L 136.393441 264.182719 
L 136.519813 264.182719 
L 136.519813 263.129347 
L 136.769843 263.129347 
L 136.831795 262.075974 
L 136.955041 262.075974 
L 136.955041 261.549288 
L 137.077422 261.549288 
L 137.077422 261.022602 
L 137.259399 261.022602 
L 137.259399 258.915858 
L 138.313099 258.915858 
L 138.313099 257.3358 
L 139.413734 257.3358 
L 139.413734 256.282427 
L 139.678372 256.282427 
L 139.678372 253.122311 
L 140.093612 253.122311 
L 140.093612 252.595625 
L 140.549236 252.595625 
L 140.549236 251.542253 
L 140.846504 251.542253 
L 140.846504 251.015567 
L 141.33096 251.015567 
L 141.33096 249.962195 
L 141.615302 249.962195 
L 141.615302 249.435508 
L 142.486301 249.435508 
L 142.486301 248.908822 
L 142.619936 248.908822 
L 142.619936 248.382136 
L 143.358447 248.382136 
L 143.358447 247.85545 
L 145.365173 247.85545 
L 145.365173 247.328764 
L 145.591172 247.328764 
L 145.591172 246.802078 
L 146.992815 246.802078 
L 146.992815 246.275392 
L 148.857832 246.275392 
L 148.857832 245.748706 
L 148.981515 245.748706 
L 149.012299 243.641962 
L 149.256637 243.641962 
L 149.256637 243.115275 
L 149.407627 243.115275 
L 149.407627 242.061903 
L 150.372662 242.061903 
L 150.372662 241.535217 
L 150.598782 241.535217 
L 150.598782 241.008531 
L 151.314058 241.008531 
L 151.394733 239.955159 
L 152.078714 239.955159 
L 152.078714 238.375101 
L 152.511852 238.375101 
L 152.511852 237.848415 
L 155.253971 237.848415 
L 155.253971 237.321729 
L 155.61575 237.321729 
L 155.657823 236.268356 
L 157.089232 236.268356 
L 157.089232 235.74167 
L 159.046236 235.74167 
L 159.046236 235.214984 
L 159.490356 235.214984 
L 159.490356 234.688298 
L 159.824452 234.688298 
L 159.824452 234.161612 
L 161.100288 234.161612 
L 161.100288 233.10824 
L 161.253399 233.10824 
L 161.299072 232.054868 
L 161.630398 232.054868 
L 161.630398 231.001496 
L 161.749336 231.001496 
L 161.749336 230.47481 
L 163.375071 230.47481 
L 163.428979 228.368065 
L 163.642961 228.368065 
L 163.642961 227.841379 
L 164.205356 227.841379 
L 164.218222 226.788007 
L 164.39735 226.788007 
L 164.39735 226.261321 
L 164.637547 226.261321 
L 164.637547 224.681263 
L 165.399101 224.681263 
L 165.399101 224.154577 
L 165.578458 224.154577 
L 165.578458 223.627891 
L 167.395635 223.627891 
L 167.395635 223.101204 
L 167.661564 223.101204 
L 167.661564 222.574518 
L 168.11997 222.574518 
L 168.11997 222.047832 
L 168.546579 222.047832 
L 168.546579 220.467774 
L 168.972794 220.467774 
L 168.972794 219.941088 
L 169.157854 219.941088 
L 169.157854 219.414402 
L 170.355872 219.414402 
L 170.355872 217.834344 
L 170.5984 217.834344 
L 170.625141 215.727599 
L 171.030109 215.727599 
L 171.030109 212.567483 
L 172.224011 212.567483 
L 172.224011 212.040797 
L 172.63361 212.040797 
L 172.63361 210.987425 
L 173.523365 210.987425 
L 173.523365 210.460738 
L 173.970168 210.460738 
L 174.072796 209.407366 
L 174.319548 209.407366 
L 174.319548 208.88068 
L 174.851815 208.88068 
L 174.935491 207.300622 
L 176.706692 207.300622 
L 176.806955 206.24725 
L 177.030459 206.24725 
L 177.030459 205.193878 
L 178.423024 205.193878 
L 178.423024 203.613819 
L 179.537135 203.613819 
L 179.574495 202.560447 
L 179.828547 202.560447 
L 179.828547 202.033761 
L 179.98547 202.033761 
L 179.98547 201.507075 
L 180.351324 201.507075 
L 180.351324 200.980389 
L 180.669651 200.980389 
L 180.729632 199.927017 
L 181.138942 199.927017 
L 181.216753 197.293586 
L 181.901854 197.293586 
L 181.911182 196.240214 
L 182.05976 196.240214 
L 182.05976 195.186842 
L 182.207084 195.186842 
L 182.207084 194.660156 
L 182.619357 194.660156 
L 182.619357 194.13347 
L 182.779802 194.13347 
L 182.824109 192.026726 
L 182.92559 192.026726 
L 182.92559 191.50004 
L 183.057076 191.50004 
L 183.07017 190.446667 
L 183.183243 190.446667 
L 183.183243 189.393295 
L 183.364365 189.393295 
L 183.428598 187.813237 
L 183.838356 187.813237 
L 183.90087 186.233179 
L 183.975592 186.233179 
L 184.02936 184.653121 
L 184.320124 184.653121 
L 184.401161 183.073062 
L 184.530044 183.073062 
L 184.530044 182.01969 
L 184.665945 182.01969 
L 184.665945 181.493004 
L 184.804746 181.493004 
L 184.89929 180.439632 
L 185.230068 180.439632 
L 185.291637 179.38626 
L 185.444614 179.38626 
L 185.444614 178.859574 
L 185.664074 178.859574 
L 185.664074 178.332888 
L 186.102214 178.332888 
L 186.211872 177.279515 
L 186.389511 177.279515 
L 186.389511 176.752829 
L 186.774768 176.752829 
L 186.774768 175.699457 
L 186.887302 175.699457 
L 186.887302 174.646085 
L 195.760645 174.646085 
L 195.760645 174.119399 
L 196.063581 174.119399 
L 196.063581 173.592713 
L 196.420292 173.592713 
L 196.420292 173.066027 
L 197.110594 173.066027 
L 197.110594 172.012655 
L 197.310345 172.012655 
L 197.310345 171.485969 
L 197.593419 171.485969 
L 197.652134 169.90591 
L 197.823358 169.90591 
L 197.883171 167.799166 
L 198.419694 167.799166 
L 198.419694 167.27248 
L 198.63191 167.27248 
L 198.63191 166.219108 
L 198.963018 166.219108 
L 198.963018 165.165736 
L 204.417322 165.165736 
L 204.417322 164.63905 
L 205.439976 164.63905 
L 205.439976 164.112363 
L 205.847714 164.112363 
L 205.847714 163.058991 
L 206.06733 163.058991 
L 206.06733 162.532305 
L 210.570898 162.532305 
L 210.570898 162.005619 
L 210.780569 162.005619 
L 210.780569 161.478933 
L 210.936627 161.478933 
L 211.014135 159.898875 
L 214.871114 159.898875 
L 214.871114 159.372189 
L 217.754534 159.372189 
L 217.754534 158.845503 
L 217.975839 158.845503 
L 218.079295 157.79213 
L 220.699454 157.79213 
L 220.699454 157.265444 
L 223.131977 157.265444 
L 223.170537 156.212072 
L 225.197917 156.212072 
L 225.197917 155.685386 
L 228.570193 155.685386 
L 228.658603 154.632014 
L 228.774204 154.632014 
L 228.774204 154.105328 
L 230.187199 154.105328 
L 230.293128 152.52527 
L 235.234874 152.52527 
L 235.234874 151.998584 
L 236.333788 151.998584 
L 236.333788 151.471897 
L 237.299149 151.471897 
L 237.333379 150.418525 
L 240.028427 150.418525 
L 240.028427 149.891839 
L 240.841549 149.891839 
L 240.841549 149.365153 
L 242.362195 149.365153 
L 242.362195 148.838467 
L 243.737145 148.838467 
L 243.737145 148.311781 
L 245.668565 148.311781 
L 245.668565 147.785095 
L 247.925487 147.785095 
L 247.925487 147.258409 
L 251.284834 147.258409 
L 251.284834 146.731723 
L 251.715975 146.731723 
L 251.715975 146.205037 
L 338.688 146.205037 
L 338.688 146.205037 
" style="fill:none;stroke:#ff7500;stroke-linecap:square;stroke-width:1.5;"/>
   </g>
   <g id="line2d_41">
    <defs>
     <path d="M 0 -6 
L -1.347084 -1.854102 
L -5.706339 -1.854102 
L -2.179628 0.708204 
L -3.526712 4.854102 
L -0 2.291796 
L 3.526712 4.854102 
L 2.179628 0.708204 
L 5.706339 -1.854102 
L 1.347084 -1.854102 
z
" id="m7f8b76f475" style="stroke:#ff7500;stroke-linejoin:bevel;stroke-width:1.5;"/>
    </defs>
    <g>
     <use style="fill-opacity:0;stroke:#ff7500;stroke-linejoin:bevel;stroke-width:1.5;" x="142.619936" xlink:href="#m7f8b76f475" y="248.382136"/>
     <use style="fill-opacity:0;stroke:#ff7500;stroke-linejoin:bevel;stroke-width:1.5;" x="186.887302" xlink:href="#m7f8b76f475" y="175.699457"/>
     <use style="fill-opacity:0;stroke:#ff7500;stroke-linejoin:bevel;stroke-width:1.5;" x="251.715975" xlink:href="#m7f8b76f475" y="146.731723"/>
     <use style="fill-opacity:0;stroke:#ff7500;stroke-linejoin:bevel;stroke-width:1.5;" x="251.715975" xlink:href="#m7f8b76f475" y="146.205037"/>
     <use style="fill-opacity:0;stroke:#ff7500;stroke-linejoin:bevel;stroke-width:1.5;" x="338.688" xlink:href="#m7f8b76f475" y="146.205037"/>
    </g>
   </g>
   <g id="line2d_42">
    <path style="fill:none;stroke:#ff7500;stroke-linecap:square;stroke-width:1.5;"/>
    <g/>
   </g>
   <g id="line2d_43">
    <path clip-path="url(#p1bdc52407b)" d="M 186.974717 174.646085 
" style="fill:none;stroke:#ff7500;stroke-linecap:square;stroke-width:1.5;"/>
    <defs>
     <path d="M -12 12 
L 12 -12 
M -12 -12 
L 12 12 
" id="m35073ad3a2" style="stroke:#ff7500;"/>
    </defs>
    <g clip-path="url(#p1bdc52407b)">
     <use style="fill:#ff7500;stroke:#ff7500;" x="186.974717" xlink:href="#m35073ad3a2" y="174.646085"/>
    </g>
   </g>
   <g id="line2d_44">
    <defs>
     <path d="M 0 1.5 
C 0.397805 1.5 0.77937 1.341951 1.06066 1.06066 
C 1.341951 0.77937 1.5 0.397805 1.5 0 
C 1.5 -0.397805 1.341951 -0.77937 1.06066 -1.06066 
C 0.77937 -1.341951 0.397805 -1.5 0 -1.5 
C -0.397805 -1.5 -0.77937 -1.341951 -1.06066 -1.06066 
C -1.341951 -0.77937 -1.5 -0.397805 -1.5 0 
C -1.5 0.397805 -1.341951 0.77937 -1.06066 1.06066 
C -0.77937 1.341951 -0.397805 1.5 0 1.5 
z
" id="m2d07024eb6" style="stroke:#6495ed;"/>
    </defs>
    <g>
     <use style="fill:#6495ed;stroke:#6495ed;" x="182.197912" xlink:href="#m2d07024eb6" y="30.334099"/>
     <use style="fill:#6495ed;stroke:#6495ed;" x="182.197912" xlink:href="#m2d07024eb6" y="30.334099"/>
    </g>
   </g>
   <g id="line2d_45">
    <path d="M 86.792945 298.944 
L 86.792945 298.417314 
L 100.934985 298.417314 
L 100.934985 297.363942 
L 101.412804 297.363942 
L 101.412804 296.837256 
L 108.640231 296.837256 
L 108.640231 292.623767 
L 116.719583 292.623767 
L 116.719583 288.410278 
L 118.039942 288.410278 
L 118.039942 287.883592 
L 118.220662 287.883592 
L 118.220662 279.456615 
L 118.399528 279.456615 
L 118.399528 278.929929 
L 118.751849 278.929929 
L 118.751849 277.349871 
L 120.41399 277.349871 
L 120.41399 276.823185 
L 123.192626 276.823185 
L 123.192626 275.769812 
L 123.985457 275.769812 
L 123.985457 273.136382 
L 124.114161 273.136382 
L 124.114161 272.609696 
L 124.368753 272.609696 
L 124.368753 272.08301 
L 124.989434 272.08301 
L 124.989434 270.502952 
L 125.110962 270.502952 
L 125.110962 269.976266 
L 125.23165 269.976266 
L 125.23165 268.922893 
L 125.351508 268.922893 
L 125.351508 266.289463 
L 125.470548 266.289463 
L 125.470548 264.709405 
L 125.588781 264.709405 
L 125.588781 264.182719 
L 127.799239 264.182719 
L 127.799239 263.129347 
L 128.709321 263.129347 
L 128.807571 262.075974 
L 129.099042 262.075974 
L 129.099042 261.022602 
L 129.667765 261.022602 
L 129.667765 260.495916 
L 130.036864 260.495916 
L 130.036864 259.96923 
L 130.576266 259.96923 
L 130.576266 258.915858 
L 132.342714 258.915858 
L 132.342714 256.809114 
L 133.277185 256.809114 
L 133.277185 255.755741 
L 133.57787 255.755741 
L 133.57787 255.229055 
L 134.661403 255.229055 
L 134.661403 254.175683 
L 134.870259 254.175683 
L 134.870259 253.648997 
L 135.615352 253.648997 
L 135.615352 253.122311 
L 135.943785 253.122311 
L 136.008736 251.015567 
L 136.137916 251.015567 
L 136.137916 249.962195 
L 137.319638 249.962195 
L 137.319638 249.435508 
L 137.735587 249.435508 
L 137.735587 248.908822 
L 138.538853 248.908822 
L 138.538853 247.328764 
L 138.706272 247.328764 
L 138.706272 246.802078 
L 139.199094 246.802078 
L 139.199094 245.748706 
L 140.144829 245.748706 
L 140.195896 244.695334 
L 140.499195 244.695334 
L 140.549236 243.641962 
L 141.47371 243.641962 
L 141.47371 243.115275 
L 141.755753 243.115275 
L 141.755753 242.061903 
L 142.215919 242.061903 
L 142.215919 241.535217 
L 143.101352 241.535217 
L 143.101352 241.008531 
L 144.430703 241.008531 
L 144.430703 240.481845 
L 145.365173 240.481845 
L 145.365173 239.955159 
L 145.628555 239.955159 
L 145.628555 239.428473 
L 147.198794 239.428473 
L 147.198794 238.375101 
L 147.70334 238.375101 
L 147.70334 237.848415 
L 149.377533 237.848415 
L 149.377533 237.321729 
L 149.940618 237.321729 
L 149.940618 236.268356 
L 150.457801 236.268356 
L 150.457801 234.688298 
L 151.60806 234.688298 
L 151.68739 233.10824 
L 153.008024 233.10824 
L 153.008024 232.581554 
L 153.585377 232.581554 
L 153.585377 232.054868 
L 153.773658 232.054868 
L 153.773658 231.001496 
L 154.529516 231.001496 
L 154.618949 229.948123 
L 154.752243 229.948123 
L 154.752243 229.421437 
L 157.262567 229.421437 
L 157.339055 228.368065 
L 158.104304 228.368065 
L 158.104304 227.314693 
L 158.48363 227.314693 
L 158.48363 226.788007 
L 159.371893 226.788007 
L 159.371893 226.261321 
L 159.591258 226.261321 
L 159.591258 225.734635 
L 159.791329 225.734635 
L 159.791329 225.207949 
L 160.474035 225.207949 
L 160.474035 224.681263 
L 160.69579 224.681263 
L 160.69579 223.627891 
L 161.344625 223.627891 
L 161.359783 222.574518 
L 162.517456 222.574518 
L 162.517456 222.047832 
L 162.882249 222.047832 
L 162.882249 221.521146 
L 163.722532 221.521146 
L 163.722532 220.467774 
L 163.906798 220.467774 
L 163.906798 218.36103 
L 164.486229 218.36103 
L 164.486229 217.834344 
L 164.650098 217.834344 
L 164.650098 217.307658 
L 164.849691 217.307658 
L 164.849691 215.727599 
L 165.096013 215.727599 
L 165.132663 214.674227 
L 166.493781 214.674227 
L 166.493781 214.147541 
L 166.606293 214.147541 
L 166.606293 213.620855 
L 166.994465 213.620855 
L 166.994465 213.094169 
L 167.201624 213.094169 
L 167.201624 212.567483 
L 167.384913 212.567483 
L 167.491837 211.514111 
L 167.619287 211.514111 
L 167.619287 210.987425 
L 167.808732 210.987425 
L 167.808732 210.460738 
L 168.006494 210.460738 
L 168.006494 209.934052 
L 168.11997 209.934052 
L 168.11997 209.407366 
L 168.324419 209.407366 
L 168.324419 208.88068 
L 168.626667 208.88068 
L 168.666574 206.773936 
L 170.017944 206.773936 
L 170.017944 206.24725 
L 170.373953 206.24725 
L 170.373953 205.720564 
L 170.526891 205.720564 
L 170.5984 203.087133 
L 170.660731 203.087133 
L 170.660731 202.560447 
L 170.819995 202.560447 
L 170.846398 201.507075 
L 171.03881 201.507075 
L 171.108254 200.453703 
L 171.220515 200.453703 
L 171.220515 199.927017 
L 171.400348 199.927017 
L 171.400348 199.400331 
L 171.637275 199.400331 
L 171.737838 198.346959 
L 171.762889 198.346959 
L 171.812882 197.293586 
L 172.20775 197.293586 
L 172.256486 196.240214 
L 172.425997 196.240214 
L 172.522125 194.660156 
L 172.546075 194.660156 
L 172.546075 194.13347 
L 172.815229 194.13347 
L 172.862299 192.553412 
L 172.948265 192.553412 
L 173.041565 189.919981 
L 173.14208 189.919981 
L 173.22668 186.233179 
L 173.295595 186.233179 
L 173.333764 183.599748 
L 173.455346 183.599748 
L 173.508272 182.546376 
L 173.621148 182.546376 
L 173.636143 180.966318 
L 173.889107 180.966318 
L 173.955458 177.806202 
L 174.080103 177.806202 
L 174.080103 177.279515 
L 174.276256 177.279515 
L 174.341153 175.699457 
L 174.541525 175.699457 
L 174.577064 174.119399 
L 174.676192 174.119399 
L 174.767737 170.959282 
L 174.816832 170.959282 
L 174.907643 169.90591 
L 174.928533 169.90591 
L 175.032607 167.27248 
L 175.060255 167.27248 
L 175.163549 164.112363 
L 175.204695 164.112363 
L 175.266234 163.058991 
L 175.347948 163.058991 
L 175.354741 162.005619 
L 175.550576 162.005619 
L 175.657689 157.265444 
L 175.730949 157.265444 
L 175.77741 154.632014 
L 175.843568 154.632014 
L 175.948902 150.418525 
L 176.007874 150.418525 
L 176.112223 148.311781 
L 176.131719 148.311781 
L 176.170646 146.205037 
L 176.286908 146.205037 
L 176.396004 141.464862 
L 176.402401 141.464862 
L 176.504422 134.091257 
L 176.55521 134.091257 
L 176.656344 130.93114 
L 176.675242 130.93114 
L 176.775685 129.351082 
L 176.844405 129.351082 
L 176.844405 128.29771 
L 176.987223 128.29771 
L 177.055116 125.66428 
L 177.141145 125.66428 
L 177.214548 122.504163 
L 177.257224 122.504163 
L 177.336204 120.397419 
L 177.38463 120.397419 
L 177.432921 117.763988 
L 177.511111 117.763988 
L 177.541091 115.130558 
L 177.636682 115.130558 
L 177.696161 113.023814 
L 177.790908 113.023814 
L 177.885142 103.543464 
L 177.908622 103.543464 
L 177.984712 99.329976 
L 178.077908 99.329976 
L 178.095327 98.276603 
L 178.245567 98.276603 
L 178.354545 95.643173 
L 178.37169 95.643173 
L 178.394524 92.483056 
L 178.530902 92.483056 
L 178.598693 83.529393 
L 178.699888 83.529393 
L 178.806073 76.682474 
L 178.845031 76.682474 
L 178.845031 74.57573 
L 179.044023 74.57573 
L 179.104376 72.995672 
L 179.219019 72.995672 
L 179.246204 70.888927 
L 179.338318 70.888927 
L 179.446068 68.782183 
L 179.494339 68.782183 
L 179.590482 67.202125 
L 179.6755 67.202125 
L 179.76538 62.46195 
L 179.8338 62.46195 
L 179.92287 58.248461 
L 179.975052 58.248461 
L 180.084129 50.874856 
L 180.279789 50.874856 
L 180.33602 49.294798 
L 180.417488 49.294798 
L 180.483402 45.081309 
L 180.533936 45.081309 
L 180.533936 44.027937 
L 180.784433 44.027937 
L 180.883633 41.394507 
L 180.898464 41.394507 
L 180.898464 39.814448 
L 181.177891 39.814448 
L 181.177891 39.287762 
L 181.289386 39.287762 
L 181.395371 37.181018 
L 181.443334 37.181018 
L 181.48161 35.60096 
L 181.562667 35.60096 
L 181.671737 33.494215 
L 181.798912 33.494215 
L 181.798912 32.967529 
L 181.925165 32.967529 
L 181.985629 31.914157 
L 182.115152 31.914157 
L 182.197912 30.334099 
L 338.688 30.334099 
L 338.688 30.334099 
" style="fill:none;stroke:#6495ed;stroke-linecap:square;stroke-width:1.5;"/>
   </g>
   <g id="line2d_46">
    <defs>
     <path d="M -0 6 
L 6 -6 
L -6 -6 
z
" id="mf2825639ef" style="stroke:#6495ed;stroke-linejoin:miter;stroke-width:1.5;"/>
    </defs>
    <g>
     <use style="fill-opacity:0;stroke:#6495ed;stroke-linejoin:miter;stroke-width:1.5;" x="161.359783" xlink:href="#mf2825639ef" y="223.101204"/>
     <use style="fill-opacity:0;stroke:#6495ed;stroke-linejoin:miter;stroke-width:1.5;" x="182.197912" xlink:href="#mf2825639ef" y="30.860785"/>
     <use style="fill-opacity:0;stroke:#6495ed;stroke-linejoin:miter;stroke-width:1.5;" x="182.197912" xlink:href="#mf2825639ef" y="30.334099"/>
     <use style="fill-opacity:0;stroke:#6495ed;stroke-linejoin:miter;stroke-width:1.5;" x="182.197912" xlink:href="#mf2825639ef" y="30.334099"/>
     <use style="fill-opacity:0;stroke:#6495ed;stroke-linejoin:miter;stroke-width:1.5;" x="338.688" xlink:href="#mf2825639ef" y="30.334099"/>
    </g>
   </g>
   <g id="line2d_47">
    <path style="fill:none;stroke:#6495ed;stroke-linecap:square;stroke-width:1.5;"/>
    <g/>
   </g>
   <g id="line2d_48">
    <path d="M 338.688 146.205037 
L 369.60768 293.571802 
" style="fill:none;stroke:#ff7500;stroke-linecap:square;stroke-width:1.5;"/>
    <g>
     <use style="fill-opacity:0;stroke:#ff7500;stroke-linejoin:bevel;stroke-width:1.5;" x="338.688" xlink:href="#m7f8b76f475" y="146.205037"/>
     <use style="fill-opacity:0;stroke:#ff7500;stroke-linejoin:bevel;stroke-width:1.5;" x="369.60768" xlink:href="#m7f8b76f475" y="293.571802"/>
    </g>
   </g>
   <g id="line2d_49">
    <path d="M 338.688 30.334099 
L 369.60768 207.616634 
" style="fill:none;stroke:#ff00ff;stroke-linecap:square;stroke-width:1.5;"/>
    <g>
     <use style="fill-opacity:0;stroke:#ff00ff;stroke-linejoin:miter;stroke-width:1.5;" x="338.688" xlink:href="#md4f49b8832" y="30.334099"/>
     <use style="fill-opacity:0;stroke:#ff00ff;stroke-linejoin:miter;stroke-width:1.5;" x="369.60768" xlink:href="#md4f49b8832" y="207.616634"/>
    </g>
   </g>
   <g id="line2d_50">
    <path d="M 338.688 30.334099 
L 369.60768 121.661465 
" style="fill:none;stroke:#6495ed;stroke-linecap:square;stroke-width:1.5;"/>
    <g>
     <use style="fill-opacity:0;stroke:#6495ed;stroke-linejoin:miter;stroke-width:1.5;" x="338.688" xlink:href="#mf2825639ef" y="30.334099"/>
     <use style="fill-opacity:0;stroke:#6495ed;stroke-linejoin:miter;stroke-width:1.5;" x="369.60768" xlink:href="#mf2825639ef" y="121.661465"/>
    </g>
   </g>
   <g id="line2d_51">
    <path d="M 338.688 298.944 
L 338.688 30.334099 
" style="fill:none;stroke:#000000;stroke-linecap:square;stroke-width:1.5;"/>
   </g>
   <g id="patch_3">
    <path d="M 57.6 298.944 
L 57.6 27.648 
" style="fill:none;stroke:#000000;stroke-linecap:square;stroke-linejoin:miter;stroke-width:0.8;"/>
   </g>
   <g id="patch_4">
    <path d="M 338.688 298.944 
L 338.688 27.648 
" style="fill:none;stroke:#000000;stroke-linecap:square;stroke-linejoin:miter;stroke-width:0.8;"/>
   </g>
   <g id="patch_5">
    <path d="M 57.6 298.944 
L 338.688 298.944 
" style="fill:none;stroke:#000000;stroke-linecap:square;stroke-linejoin:miter;stroke-width:0.8;"/>
   </g>
   <g id="patch_6">
    <path d="M 57.6 27.648 
L 338.688 27.648 
" style="fill:none;stroke:#000000;stroke-linecap:square;stroke-linejoin:miter;stroke-width:0.8;"/>
   </g>
   <g id="text_13">
    <!-- DEPSO -->
    <defs>
     <path d="M 19.671875 64.796875 
L 19.671875 8.109375 
L 31.59375 8.109375 
Q 46.6875 8.109375 53.6875 14.9375 
Q 60.6875 21.78125 60.6875 36.53125 
Q 60.6875 51.171875 53.6875 57.984375 
Q 46.6875 64.796875 31.59375 64.796875 
z
M 9.8125 72.90625 
L 30.078125 72.90625 
Q 51.265625 72.90625 61.171875 64.09375 
Q 71.09375 55.28125 71.09375 36.53125 
Q 71.09375 17.671875 61.125 8.828125 
Q 51.171875 0 30.078125 0 
L 9.8125 0 
z
" id="DejaVuSans-68"/>
     <path d="M 9.8125 72.90625 
L 55.90625 72.90625 
L 55.90625 64.59375 
L 19.671875 64.59375 
L 19.671875 43.015625 
L 54.390625 43.015625 
L 54.390625 34.71875 
L 19.671875 34.71875 
L 19.671875 8.296875 
L 56.78125 8.296875 
L 56.78125 0 
L 9.8125 0 
z
" id="DejaVuSans-69"/>
     <path d="M 19.671875 64.796875 
L 19.671875 37.40625 
L 32.078125 37.40625 
Q 38.96875 37.40625 42.71875 40.96875 
Q 46.484375 44.53125 46.484375 51.125 
Q 46.484375 57.671875 42.71875 61.234375 
Q 38.96875 64.796875 32.078125 64.796875 
z
M 9.8125 72.90625 
L 32.078125 72.90625 
Q 44.34375 72.90625 50.609375 67.359375 
Q 56.890625 61.8125 56.890625 51.125 
Q 56.890625 40.328125 50.609375 34.8125 
Q 44.34375 29.296875 32.078125 29.296875 
L 19.671875 29.296875 
L 19.671875 0 
L 9.8125 0 
z
" id="DejaVuSans-80"/>
     <path d="M 53.515625 70.515625 
L 53.515625 60.890625 
Q 47.90625 63.578125 42.921875 64.890625 
Q 37.9375 66.21875 33.296875 66.21875 
Q 25.25 66.21875 20.875 63.09375 
Q 16.5 59.96875 16.5 54.203125 
Q 16.5 49.359375 19.40625 46.890625 
Q 22.3125 44.4375 30.421875 42.921875 
L 36.375 41.703125 
Q 47.40625 39.59375 52.65625 34.296875 
Q 57.90625 29 57.90625 20.125 
Q 57.90625 9.515625 50.796875 4.046875 
Q 43.703125 -1.421875 29.984375 -1.421875 
Q 24.8125 -1.421875 18.96875 -0.25 
Q 13.140625 0.921875 6.890625 3.21875 
L 6.890625 13.375 
Q 12.890625 10.015625 18.65625 8.296875 
Q 24.421875 6.59375 29.984375 6.59375 
Q 38.421875 6.59375 43.015625 9.90625 
Q 47.609375 13.234375 47.609375 19.390625 
Q 47.609375 24.75 44.3125 27.78125 
Q 41.015625 30.8125 33.5 32.328125 
L 27.484375 33.5 
Q 16.453125 35.6875 11.515625 40.375 
Q 6.59375 45.0625 6.59375 53.421875 
Q 6.59375 63.09375 13.40625 68.65625 
Q 20.21875 74.21875 32.171875 74.21875 
Q 37.3125 74.21875 42.625 73.28125 
Q 47.953125 72.359375 53.515625 70.515625 
z
" id="DejaVuSans-83"/>
     <path d="M 39.40625 66.21875 
Q 28.65625 66.21875 22.328125 58.203125 
Q 16.015625 50.203125 16.015625 36.375 
Q 16.015625 22.609375 22.328125 14.59375 
Q 28.65625 6.59375 39.40625 6.59375 
Q 50.140625 6.59375 56.421875 14.59375 
Q 62.703125 22.609375 62.703125 36.375 
Q 62.703125 50.203125 56.421875 58.203125 
Q 50.140625 66.21875 39.40625 66.21875 
z
M 39.40625 74.21875 
Q 54.734375 74.21875 63.90625 63.9375 
Q 73.09375 53.65625 73.09375 36.375 
Q 73.09375 19.140625 63.90625 8.859375 
Q 54.734375 -1.421875 39.40625 -1.421875 
Q 24.03125 -1.421875 14.8125 8.828125 
Q 5.609375 19.09375 5.609375 36.375 
Q 5.609375 53.65625 14.8125 63.9375 
Q 24.03125 74.21875 39.40625 74.21875 
z
" id="DejaVuSans-79"/>
    </defs>
    <g transform="translate(375.22944 298.262739)scale(0.17 -0.17)">
     <use xlink:href="#DejaVuSans-68"/>
     <use x="77.001953" xlink:href="#DejaVuSans-69"/>
     <use x="140.185547" xlink:href="#DejaVuSans-80"/>
     <use x="200.488281" xlink:href="#DejaVuSans-83"/>
     <use x="263.964844" xlink:href="#DejaVuSans-79"/>
    </g>
   </g>
   <g id="text_14">
    <!-- DE -->
    <g transform="translate(375.22944 212.307571)scale(0.17 -0.17)">
     <use xlink:href="#DejaVuSans-68"/>
     <use x="77.001953" xlink:href="#DejaVuSans-69"/>
    </g>
   </g>
   <g id="text_15">
    <!-- PSO -->
    <g transform="translate(375.22944 126.352403)scale(0.17 -0.17)">
     <use xlink:href="#DejaVuSans-80"/>
     <use x="60.302734" xlink:href="#DejaVuSans-83"/>
     <use x="123.779297" xlink:href="#DejaVuSans-79"/>
    </g>
   </g>
   <g id="text_16">
    <!-- best 2009 -->
    <defs>
     <path d="M 48.6875 27.296875 
Q 48.6875 37.203125 44.609375 42.84375 
Q 40.53125 48.484375 33.40625 48.484375 
Q 26.265625 48.484375 22.1875 42.84375 
Q 18.109375 37.203125 18.109375 27.296875 
Q 18.109375 17.390625 22.1875 11.75 
Q 26.265625 6.109375 33.40625 6.109375 
Q 40.53125 6.109375 44.609375 11.75 
Q 48.6875 17.390625 48.6875 27.296875 
z
M 18.109375 46.390625 
Q 20.953125 51.265625 25.265625 53.625 
Q 29.59375 56 35.59375 56 
Q 45.5625 56 51.78125 48.09375 
Q 58.015625 40.1875 58.015625 27.296875 
Q 58.015625 14.40625 51.78125 6.484375 
Q 45.5625 -1.421875 35.59375 -1.421875 
Q 29.59375 -1.421875 25.265625 0.953125 
Q 20.953125 3.328125 18.109375 8.203125 
L 18.109375 0 
L 9.078125 0 
L 9.078125 75.984375 
L 18.109375 75.984375 
z
" id="DejaVuSans-98"/>
     <path d="M 10.984375 1.515625 
L 10.984375 10.5 
Q 14.703125 8.734375 18.5 7.8125 
Q 22.3125 6.890625 25.984375 6.890625 
Q 35.75 6.890625 40.890625 13.453125 
Q 46.046875 20.015625 46.78125 33.40625 
Q 43.953125 29.203125 39.59375 26.953125 
Q 35.25 24.703125 29.984375 24.703125 
Q 19.046875 24.703125 12.671875 31.3125 
Q 6.296875 37.9375 6.296875 49.421875 
Q 6.296875 60.640625 12.9375 67.421875 
Q 19.578125 74.21875 30.609375 74.21875 
Q 43.265625 74.21875 49.921875 64.515625 
Q 56.59375 54.828125 56.59375 36.375 
Q 56.59375 19.140625 48.40625 8.859375 
Q 40.234375 -1.421875 26.421875 -1.421875 
Q 22.703125 -1.421875 18.890625 -0.6875 
Q 15.09375 0.046875 10.984375 1.515625 
z
M 30.609375 32.421875 
Q 37.25 32.421875 41.125 36.953125 
Q 45.015625 41.5 45.015625 49.421875 
Q 45.015625 57.28125 41.125 61.84375 
Q 37.25 66.40625 30.609375 66.40625 
Q 23.96875 66.40625 20.09375 61.84375 
Q 16.21875 57.28125 16.21875 49.421875 
Q 16.21875 41.5 20.09375 36.953125 
Q 23.96875 32.421875 30.609375 32.421875 
z
" id="DejaVuSans-57"/>
    </defs>
    <g transform="translate(375.22944 40.397235)scale(0.17 -0.17)">
     <use xlink:href="#DejaVuSans-98"/>
     <use x="63.476562" xlink:href="#DejaVuSans-101"/>
     <use x="125" xlink:href="#DejaVuSans-115"/>
     <use x="177.099609" xlink:href="#DejaVuSans-116"/>
     <use x="216.308594" xlink:href="#DejaVuSans-32"/>
     <use x="248.095703" xlink:href="#DejaVuSans-50"/>
     <use x="311.71875" xlink:href="#DejaVuSans-48"/>
     <use x="375.341797" xlink:href="#DejaVuSans-48"/>
     <use x="438.964844" xlink:href="#DejaVuSans-57"/>
    </g>
   </g>
   <g id="text_17">
    <!-- bbob f9, 3-D -->
    <defs>
     <path d="M 40.578125 39.3125 
Q 47.65625 37.796875 51.625 33 
Q 55.609375 28.21875 55.609375 21.1875 
Q 55.609375 10.40625 48.1875 4.484375 
Q 40.765625 -1.421875 27.09375 -1.421875 
Q 22.515625 -1.421875 17.65625 -0.515625 
Q 12.796875 0.390625 7.625 2.203125 
L 7.625 11.71875 
Q 11.71875 9.328125 16.59375 8.109375 
Q 21.484375 6.890625 26.8125 6.890625 
Q 36.078125 6.890625 40.9375 10.546875 
Q 45.796875 14.203125 45.796875 21.1875 
Q 45.796875 27.640625 41.28125 31.265625 
Q 36.765625 34.90625 28.71875 34.90625 
L 20.21875 34.90625 
L 20.21875 43.015625 
L 29.109375 43.015625 
Q 36.375 43.015625 40.234375 45.921875 
Q 44.09375 48.828125 44.09375 54.296875 
Q 44.09375 59.90625 40.109375 62.90625 
Q 36.140625 65.921875 28.71875 65.921875 
Q 24.65625 65.921875 20.015625 65.03125 
Q 15.375 64.15625 9.8125 62.3125 
L 9.8125 71.09375 
Q 15.4375 72.65625 20.34375 73.4375 
Q 25.25 74.21875 29.59375 74.21875 
Q 40.828125 74.21875 47.359375 69.109375 
Q 53.90625 64.015625 53.90625 55.328125 
Q 53.90625 49.265625 50.4375 45.09375 
Q 46.96875 40.921875 40.578125 39.3125 
z
" id="DejaVuSans-51"/>
    </defs>
    <g transform="translate(60.41088 38.111366)scale(0.102 -0.102)">
     <use xlink:href="#DejaVuSans-98"/>
     <use x="63.476562" xlink:href="#DejaVuSans-98"/>
     <use x="126.953125" xlink:href="#DejaVuSans-111"/>
     <use x="188.134766" xlink:href="#DejaVuSans-98"/>
     <use x="251.611328" xlink:href="#DejaVuSans-32"/>
     <use x="283.398438" xlink:href="#DejaVuSans-102"/>
     <use x="318.603516" xlink:href="#DejaVuSans-57"/>
     <use x="382.226562" xlink:href="#DejaVuSans-44"/>
     <use x="414.013672" xlink:href="#DejaVuSans-32"/>
     <use x="445.800781" xlink:href="#DejaVuSans-51"/>
     <use x="509.423828" xlink:href="#DejaVuSans-45"/>
     <use x="545.507812" xlink:href="#DejaVuSans-68"/>
    </g>
    <!-- 51 targets: 100..1e-08 -->
    <defs>
     <path d="M 10.796875 72.90625 
L 49.515625 72.90625 
L 49.515625 64.59375 
L 19.828125 64.59375 
L 19.828125 46.734375 
Q 21.96875 47.46875 24.109375 47.828125 
Q 26.265625 48.1875 28.421875 48.1875 
Q 40.625 48.1875 47.75 41.5 
Q 54.890625 34.8125 54.890625 23.390625 
Q 54.890625 11.625 47.5625 5.09375 
Q 40.234375 -1.421875 26.90625 -1.421875 
Q 22.3125 -1.421875 17.546875 -0.640625 
Q 12.796875 0.140625 7.71875 1.703125 
L 7.71875 11.625 
Q 12.109375 9.234375 16.796875 8.0625 
Q 21.484375 6.890625 26.703125 6.890625 
Q 35.15625 6.890625 40.078125 11.328125 
Q 45.015625 15.765625 45.015625 23.390625 
Q 45.015625 31 40.078125 35.4375 
Q 35.15625 39.890625 26.703125 39.890625 
Q 22.75 39.890625 18.8125 39.015625 
Q 14.890625 38.140625 10.796875 36.28125 
z
" id="DejaVuSans-53"/>
     <path d="M 11.71875 12.40625 
L 22.015625 12.40625 
L 22.015625 0 
L 11.71875 0 
z
M 11.71875 51.703125 
L 22.015625 51.703125 
L 22.015625 39.3125 
L 11.71875 39.3125 
z
" id="DejaVuSans-58"/>
    </defs>
    <g transform="translate(60.41088 49.533135)scale(0.102 -0.102)">
     <use xlink:href="#DejaVuSans-53"/>
     <use x="63.623047" xlink:href="#DejaVuSans-49"/>
     <use x="127.246094" xlink:href="#DejaVuSans-32"/>
     <use x="159.033203" xlink:href="#DejaVuSans-116"/>
     <use x="198.242188" xlink:href="#DejaVuSans-97"/>
     <use x="259.521484" xlink:href="#DejaVuSans-114"/>
     <use x="298.884766" xlink:href="#DejaVuSans-103"/>
     <use x="362.361328" xlink:href="#DejaVuSans-101"/>
     <use x="423.884766" xlink:href="#DejaVuSans-116"/>
     <use x="463.09375" xlink:href="#DejaVuSans-115"/>
     <use x="515.193359" xlink:href="#DejaVuSans-58"/>
     <use x="548.884766" xlink:href="#DejaVuSans-32"/>
     <use x="580.671875" xlink:href="#DejaVuSans-49"/>
     <use x="644.294922" xlink:href="#DejaVuSans-48"/>
     <use x="707.917969" xlink:href="#DejaVuSans-48"/>
     <use x="771.541016" xlink:href="#DejaVuSans-46"/>
     <use x="803.328125" xlink:href="#DejaVuSans-46"/>
     <use x="835.115234" xlink:href="#DejaVuSans-49"/>
     <use x="898.738281" xlink:href="#DejaVuSans-101"/>
     <use x="960.261719" xlink:href="#DejaVuSans-45"/>
     <use x="996.345703" xlink:href="#DejaVuSans-48"/>
     <use x="1059.96875" xlink:href="#DejaVuSans-56"/>
    </g>
    <!-- 15 instances -->
    <g transform="translate(60.41088 60.954904)scale(0.102 -0.102)">
     <use xlink:href="#DejaVuSans-49"/>
     <use x="63.623047" xlink:href="#DejaVuSans-53"/>
     <use x="127.246094" xlink:href="#DejaVuSans-32"/>
     <use x="159.033203" xlink:href="#DejaVuSans-105"/>
     <use x="186.816406" xlink:href="#DejaVuSans-110"/>
     <use x="250.195312" xlink:href="#DejaVuSans-115"/>
     <use x="302.294922" xlink:href="#DejaVuSans-116"/>
     <use x="341.503906" xlink:href="#DejaVuSans-97"/>
     <use x="402.783203" xlink:href="#DejaVuSans-110"/>
     <use x="466.162109" xlink:href="#DejaVuSans-99"/>
     <use x="521.142578" xlink:href="#DejaVuSans-101"/>
     <use x="582.666016" xlink:href="#DejaVuSans-115"/>
    </g>
   </g>
   <g id="text_18">
    <!-- v2.4 -->
    <g style="fill:#808080;" transform="translate(187.233062 294.151352)scale(0.1 -0.1)">
     <use xlink:href="#DejaVuSans-118"/>
     <use x="59.179688" xlink:href="#DejaVuSans-50"/>
     <use x="122.802734" xlink:href="#DejaVuSans-46"/>
     <use x="154.589844" xlink:href="#DejaVuSans-52"/>
    </g>
   </g>
   <g id="text_19">
    <!-- 9 Rosenbrock rotated -->
    <defs>
     <path d="M 44.390625 34.1875 
Q 47.5625 33.109375 50.5625 29.59375 
Q 53.5625 26.078125 56.59375 19.921875 
L 66.609375 0 
L 56 0 
L 46.6875 18.703125 
Q 43.0625 26.03125 39.671875 28.421875 
Q 36.28125 30.8125 30.421875 30.8125 
L 19.671875 30.8125 
L 19.671875 0 
L 9.8125 0 
L 9.8125 72.90625 
L 32.078125 72.90625 
Q 44.578125 72.90625 50.734375 67.671875 
Q 56.890625 62.453125 56.890625 51.90625 
Q 56.890625 45.015625 53.6875 40.46875 
Q 50.484375 35.9375 44.390625 34.1875 
z
M 19.671875 64.796875 
L 19.671875 38.921875 
L 32.078125 38.921875 
Q 39.203125 38.921875 42.84375 42.21875 
Q 46.484375 45.515625 46.484375 51.90625 
Q 46.484375 58.296875 42.84375 61.546875 
Q 39.203125 64.796875 32.078125 64.796875 
z
" id="DejaVuSans-82"/>
     <path d="M 9.078125 75.984375 
L 18.109375 75.984375 
L 18.109375 31.109375 
L 44.921875 54.6875 
L 56.390625 54.6875 
L 27.390625 29.109375 
L 57.625 0 
L 45.90625 0 
L 18.109375 26.703125 
L 18.109375 0 
L 9.078125 0 
z
" id="DejaVuSans-107"/>
    </defs>
    <g transform="translate(90.990875 21.648)scale(0.2 -0.2)">
     <use xlink:href="#DejaVuSans-57"/>
     <use x="63.623047" xlink:href="#DejaVuSans-32"/>
     <use x="95.410156" xlink:href="#DejaVuSans-82"/>
     <use x="160.392578" xlink:href="#DejaVuSans-111"/>
     <use x="221.574219" xlink:href="#DejaVuSans-115"/>
     <use x="273.673828" xlink:href="#DejaVuSans-101"/>
     <use x="335.197266" xlink:href="#DejaVuSans-110"/>
     <use x="398.576172" xlink:href="#DejaVuSans-98"/>
     <use x="462.052734" xlink:href="#DejaVuSans-114"/>
     <use x="500.916016" xlink:href="#DejaVuSans-111"/>
     <use x="562.097656" xlink:href="#DejaVuSans-99"/>
     <use x="617.078125" xlink:href="#DejaVuSans-107"/>
     <use x="674.988281" xlink:href="#DejaVuSans-32"/>
     <use x="706.775391" xlink:href="#DejaVuSans-114"/>
     <use x="745.638672" xlink:href="#DejaVuSans-111"/>
     <use x="806.820312" xlink:href="#DejaVuSans-116"/>
     <use x="846.029297" xlink:href="#DejaVuSans-97"/>
     <use x="907.308594" xlink:href="#DejaVuSans-116"/>
     <use x="946.517578" xlink:href="#DejaVuSans-101"/>
     <use x="1008.041016" xlink:href="#DejaVuSans-100"/>
    </g>
   </g>
  </g>
 </g>
 <defs>
  <clipPath id="p1bdc52407b">
   <rect height="271.296" width="281.088" x="57.6" y="27.648"/>
  </clipPath>
 </defs>
</svg>
