<?xml version="1.0" encoding="utf-8" standalone="no"?>
<!DOCTYPE svg PUBLIC "-//W3C//DTD SVG 1.1//EN"
  "http://www.w3.org/Graphics/SVG/1.1/DTD/svg11.dtd">
<!-- Created with matplotlib (https://matplotlib.org/) -->
<svg height="345.6pt" version="1.1" viewBox="0 0 460.8 345.6" width="460.8pt" xmlns="http://www.w3.org/2000/svg" xmlns:xlink="http://www.w3.org/1999/xlink">
 <defs>
  <style type="text/css">
*{stroke-linecap:butt;stroke-linejoin:round;}
  </style>
 </defs>
 <g id="figure_1">
  <g id="patch_1">
   <path d="M 0 345.6 
L 460.8 345.6 
L 460.8 0 
L 0 0 
z
" style="fill:#ffffff;"/>
  </g>
  <g id="axes_1">
   <g id="patch_2">
    <path d="M 57.6 298.944 
L 338.688 298.944 
L 338.688 27.648 
L 57.6 27.648 
z
" style="fill:#ffffff;"/>
   </g>
   <g id="line2d_1">
    <path d="M 87.850195 298.944 
L 87.850195 293.677139 
L 91.535274 293.677139 
L 91.535274 288.410278 
L 97.755429 288.410278 
L 97.755429 283.143418 
L 101.412804 283.143418 
L 101.412804 277.876557 
L 103.623262 277.876557 
L 103.623262 272.609696 
L 106.311539 272.609696 
L 106.311539 267.342835 
L 108.326001 267.342835 
L 108.326001 262.075974 
L 109.843417 262.075974 
L 109.843417 256.809114 
L 112.531694 256.809114 
L 112.531694 251.542253 
L 114.418861 251.542253 
L 114.418861 246.275392 
L 115.917635 246.275392 
L 115.917635 241.008531 
L 116.719583 241.008531 
L 116.719583 235.74167 
L 117.857331 235.74167 
L 117.857331 230.47481 
L 118.751849 230.47481 
L 118.751849 225.207949 
L 119.43583 225.207949 
L 119.43583 219.941088 
L 120.093994 219.941088 
L 120.093994 214.674227 
L 121.489881 214.674227 
L 121.489881 209.407366 
L 122.076131 209.407366 
L 122.076131 204.140506 
L 122.503236 204.140506 
L 122.503236 198.873645 
L 123.460928 198.873645 
L 123.460928 193.606784 
L 124.114161 193.606784 
L 124.114161 188.339923 
L 124.494669 188.339923 
L 124.494669 183.073062 
L 125.110962 183.073062 
L 125.110962 177.806202 
L 129.195127 177.806202 
L 129.195127 172.539341 
L 131.099484 172.539341 
L 131.099484 167.27248 
L 132.101058 167.27248 
L 132.101058 162.005619 
L 132.581068 162.005619 
L 132.581068 156.738758 
L 132.971225 156.738758 
L 132.971225 151.471897 
L 133.72629 151.471897 
L 133.72629 146.205037 
L 134.307653 146.205037 
L 134.307653 140.938176 
L 135.076644 140.938176 
L 135.076644 135.671315 
L 135.348078 135.671315 
L 135.348078 130.404454 
L 135.747468 130.404454 
L 135.747468 125.137593 
L 136.202149 125.137593 
L 136.202149 119.870733 
L 136.456742 119.870733 
L 136.456742 114.603872 
L 136.769843 114.603872 
L 136.769843 109.337011 
L 137.138292 109.337011 
L 137.138292 104.07015 
L 137.439497 104.07015 
L 137.439497 98.803289 
L 137.735587 98.803289 
L 137.735587 93.536429 
L 138.084384 93.536429 
L 138.084384 88.269568 
L 138.313099 88.269568 
L 138.313099 83.002707 
L 138.981779 83.002707 
L 138.981779 77.735846 
L 139.783113 77.735846 
L 139.783113 72.468985 
L 140.042245 72.468985 
L 140.042245 67.202125 
L 140.44901 67.202125 
L 140.44901 61.935264 
L 141.33096 61.935264 
L 141.33096 56.668403 
L 143.101352 56.668403 
L 143.101352 51.401542 
L 143.31586 51.401542 
L 143.31586 46.134681 
L 143.820164 46.134681 
L 143.820164 40.867821 
L 144.310293 40.867821 
L 144.310293 35.60096 
L 144.589967 35.60096 
L 144.589967 30.334099 
L 338.688 30.334099 
" style="fill:none;stroke:#f5deb3;stroke-linecap:square;stroke-width:4;"/>
   </g>
   <g id="line2d_2">
    <defs>
     <path d="M -0 7.778175 
L 7.778175 0 
L 0 -7.778175 
L -7.778175 -0 
z
" id="m8ef8a688f9" style="stroke:#f5deb3;stroke-linejoin:miter;stroke-width:1.5;"/>
    </defs>
    <g>
     <use style="fill:#f5deb3;stroke:#f5deb3;stroke-linejoin:miter;stroke-width:1.5;" x="114.418861" xlink:href="#m8ef8a688f9" y="251.542253"/>
     <use style="fill:#f5deb3;stroke:#f5deb3;stroke-linejoin:miter;stroke-width:1.5;" x="138.084384" xlink:href="#m8ef8a688f9" y="93.536429"/>
     <use style="fill:#f5deb3;stroke:#f5deb3;stroke-linejoin:miter;stroke-width:1.5;" x="144.589967" xlink:href="#m8ef8a688f9" y="30.334099"/>
     <use style="fill:#f5deb3;stroke:#f5deb3;stroke-linejoin:miter;stroke-width:1.5;" x="144.589967" xlink:href="#m8ef8a688f9" y="30.334099"/>
     <use style="fill:#f5deb3;stroke:#f5deb3;stroke-linejoin:miter;stroke-width:1.5;" x="338.688" xlink:href="#m8ef8a688f9" y="30.334099"/>
    </g>
   </g>
   <g id="line2d_3">
    <path style="fill:none;stroke:#f5deb3;stroke-linecap:square;stroke-width:4;"/>
    <g/>
   </g>
   <g id="line2d_4">
    <path d="M 338.688 30.334099 
L 369.60768 35.706297 
" style="fill:none;stroke:#f5deb3;stroke-linecap:square;stroke-width:4;"/>
    <g>
     <use style="fill:#f5deb3;stroke:#f5deb3;stroke-linejoin:miter;stroke-width:1.5;" x="338.688" xlink:href="#m8ef8a688f9" y="30.334099"/>
     <use style="fill:#f5deb3;stroke:#f5deb3;stroke-linejoin:miter;stroke-width:1.5;" x="369.60768" xlink:href="#m8ef8a688f9" y="35.706297"/>
    </g>
   </g>
   <g id="matplotlib.axis_1">
    <g id="xtick_1">
     <g id="line2d_5">
      <path clip-path="url(#p328dbb05fd)" d="M 57.6 298.944 
L 57.6 27.648 
" style="fill:none;stroke:#b0b0b0;stroke-linecap:square;stroke-width:0.8;"/>
     </g>
     <g id="line2d_6">
      <defs>
       <path d="M 0 0 
L 0 3.5 
" id="mbb9bf66c5f" style="stroke:#000000;stroke-width:0.8;"/>
      </defs>
      <g>
       <use style="stroke:#000000;stroke-width:0.8;" x="57.6" xlink:href="#mbb9bf66c5f" y="298.944"/>
      </g>
     </g>
     <g id="text_1">
      <!-- 0 -->
      <defs>
       <path d="M 31.78125 66.40625 
Q 24.171875 66.40625 20.328125 58.90625 
Q 16.5 51.421875 16.5 36.375 
Q 16.5 21.390625 20.328125 13.890625 
Q 24.171875 6.390625 31.78125 6.390625 
Q 39.453125 6.390625 43.28125 13.890625 
Q 47.125 21.390625 47.125 36.375 
Q 47.125 51.421875 43.28125 58.90625 
Q 39.453125 66.40625 31.78125 66.40625 
z
M 31.78125 74.21875 
Q 44.046875 74.21875 50.515625 64.515625 
Q 56.984375 54.828125 56.984375 36.375 
Q 56.984375 17.96875 50.515625 8.265625 
Q 44.046875 -1.421875 31.78125 -1.421875 
Q 19.53125 -1.421875 13.0625 8.265625 
Q 6.59375 17.96875 6.59375 36.375 
Q 6.59375 54.828125 13.0625 64.515625 
Q 19.53125 74.21875 31.78125 74.21875 
z
" id="DejaVuSans-48"/>
      </defs>
      <g transform="translate(51.2375 321.140875)scale(0.2 -0.2)">
       <use xlink:href="#DejaVuSans-48"/>
      </g>
     </g>
    </g>
    <g id="xtick_2">
     <g id="line2d_7">
      <path clip-path="url(#p328dbb05fd)" d="M 137.910857 298.944 
L 137.910857 27.648 
" style="fill:none;stroke:#b0b0b0;stroke-linecap:square;stroke-width:0.8;"/>
     </g>
     <g id="line2d_8">
      <g>
       <use style="stroke:#000000;stroke-width:0.8;" x="137.910857" xlink:href="#mbb9bf66c5f" y="298.944"/>
      </g>
     </g>
     <g id="text_2">
      <!-- 2 -->
      <defs>
       <path d="M 19.1875 8.296875 
L 53.609375 8.296875 
L 53.609375 0 
L 7.328125 0 
L 7.328125 8.296875 
Q 12.9375 14.109375 22.625 23.890625 
Q 32.328125 33.6875 34.8125 36.53125 
Q 39.546875 41.84375 41.421875 45.53125 
Q 43.3125 49.21875 43.3125 52.78125 
Q 43.3125 58.59375 39.234375 62.25 
Q 35.15625 65.921875 28.609375 65.921875 
Q 23.96875 65.921875 18.8125 64.3125 
Q 13.671875 62.703125 7.8125 59.421875 
L 7.8125 69.390625 
Q 13.765625 71.78125 18.9375 73 
Q 24.125 74.21875 28.421875 74.21875 
Q 39.75 74.21875 46.484375 68.546875 
Q 53.21875 62.890625 53.21875 53.421875 
Q 53.21875 48.921875 51.53125 44.890625 
Q 49.859375 40.875 45.40625 35.40625 
Q 44.1875 33.984375 37.640625 27.21875 
Q 31.109375 20.453125 19.1875 8.296875 
z
" id="DejaVuSans-50"/>
      </defs>
      <g transform="translate(131.548357 321.140875)scale(0.2 -0.2)">
       <use xlink:href="#DejaVuSans-50"/>
      </g>
     </g>
    </g>
    <g id="xtick_3">
     <g id="line2d_9">
      <path clip-path="url(#p328dbb05fd)" d="M 218.221714 298.944 
L 218.221714 27.648 
" style="fill:none;stroke:#b0b0b0;stroke-linecap:square;stroke-width:0.8;"/>
     </g>
     <g id="line2d_10">
      <g>
       <use style="stroke:#000000;stroke-width:0.8;" x="218.221714" xlink:href="#mbb9bf66c5f" y="298.944"/>
      </g>
     </g>
     <g id="text_3">
      <!-- 4 -->
      <defs>
       <path d="M 37.796875 64.3125 
L 12.890625 25.390625 
L 37.796875 25.390625 
z
M 35.203125 72.90625 
L 47.609375 72.90625 
L 47.609375 25.390625 
L 58.015625 25.390625 
L 58.015625 17.1875 
L 47.609375 17.1875 
L 47.609375 0 
L 37.796875 0 
L 37.796875 17.1875 
L 4.890625 17.1875 
L 4.890625 26.703125 
z
" id="DejaVuSans-52"/>
      </defs>
      <g transform="translate(211.859214 321.140875)scale(0.2 -0.2)">
       <use xlink:href="#DejaVuSans-52"/>
      </g>
     </g>
    </g>
    <g id="xtick_4">
     <g id="line2d_11">
      <path clip-path="url(#p328dbb05fd)" d="M 298.532571 298.944 
L 298.532571 27.648 
" style="fill:none;stroke:#b0b0b0;stroke-linecap:square;stroke-width:0.8;"/>
     </g>
     <g id="line2d_12">
      <g>
       <use style="stroke:#000000;stroke-width:0.8;" x="298.532571" xlink:href="#mbb9bf66c5f" y="298.944"/>
      </g>
     </g>
     <g id="text_4">
      <!-- 6 -->
      <defs>
       <path d="M 33.015625 40.375 
Q 26.375 40.375 22.484375 35.828125 
Q 18.609375 31.296875 18.609375 23.390625 
Q 18.609375 15.53125 22.484375 10.953125 
Q 26.375 6.390625 33.015625 6.390625 
Q 39.65625 6.390625 43.53125 10.953125 
Q 47.40625 15.53125 47.40625 23.390625 
Q 47.40625 31.296875 43.53125 35.828125 
Q 39.65625 40.375 33.015625 40.375 
z
M 52.59375 71.296875 
L 52.59375 62.3125 
Q 48.875 64.0625 45.09375 64.984375 
Q 41.3125 65.921875 37.59375 65.921875 
Q 27.828125 65.921875 22.671875 59.328125 
Q 17.53125 52.734375 16.796875 39.40625 
Q 19.671875 43.65625 24.015625 45.921875 
Q 28.375 48.1875 33.59375 48.1875 
Q 44.578125 48.1875 50.953125 41.515625 
Q 57.328125 34.859375 57.328125 23.390625 
Q 57.328125 12.15625 50.6875 5.359375 
Q 44.046875 -1.421875 33.015625 -1.421875 
Q 20.359375 -1.421875 13.671875 8.265625 
Q 6.984375 17.96875 6.984375 36.375 
Q 6.984375 53.65625 15.1875 63.9375 
Q 23.390625 74.21875 37.203125 74.21875 
Q 40.921875 74.21875 44.703125 73.484375 
Q 48.484375 72.75 52.59375 71.296875 
z
" id="DejaVuSans-54"/>
      </defs>
      <g transform="translate(292.170071 321.140875)scale(0.2 -0.2)">
       <use xlink:href="#DejaVuSans-54"/>
      </g>
     </g>
    </g>
    <g id="xtick_5">
     <g id="line2d_13">
      <path clip-path="url(#p328dbb05fd)" d="M 97.755429 298.944 
L 97.755429 27.648 
" style="fill:none;stroke:#b0b0b0;stroke-linecap:square;stroke-width:0.8;"/>
     </g>
     <g id="line2d_14">
      <defs>
       <path d="M 0 0 
L 0 2 
" id="mf53e4bb002" style="stroke:#000000;stroke-width:0.6;"/>
      </defs>
      <g>
       <use style="stroke:#000000;stroke-width:0.6;" x="97.755429" xlink:href="#mf53e4bb002" y="298.944"/>
      </g>
     </g>
    </g>
    <g id="xtick_6">
     <g id="line2d_15">
      <path clip-path="url(#p328dbb05fd)" d="M 178.066286 298.944 
L 178.066286 27.648 
" style="fill:none;stroke:#b0b0b0;stroke-linecap:square;stroke-width:0.8;"/>
     </g>
     <g id="line2d_16">
      <g>
       <use style="stroke:#000000;stroke-width:0.6;" x="178.066286" xlink:href="#mf53e4bb002" y="298.944"/>
      </g>
     </g>
    </g>
    <g id="xtick_7">
     <g id="line2d_17">
      <path clip-path="url(#p328dbb05fd)" d="M 258.377143 298.944 
L 258.377143 27.648 
" style="fill:none;stroke:#b0b0b0;stroke-linecap:square;stroke-width:0.8;"/>
     </g>
     <g id="line2d_18">
      <g>
       <use style="stroke:#000000;stroke-width:0.6;" x="258.377143" xlink:href="#mf53e4bb002" y="298.944"/>
      </g>
     </g>
    </g>
    <g id="xtick_8">
     <g id="line2d_19">
      <path clip-path="url(#p328dbb05fd)" d="M 338.688 298.944 
L 338.688 27.648 
" style="fill:none;stroke:#b0b0b0;stroke-linecap:square;stroke-width:0.8;"/>
     </g>
     <g id="line2d_20">
      <g>
       <use style="stroke:#000000;stroke-width:0.6;" x="338.688" xlink:href="#mf53e4bb002" y="298.944"/>
      </g>
     </g>
    </g>
    <g id="text_5">
     <!-- log10(# f-evals / dimension) -->
     <defs>
      <path d="M 9.421875 75.984375 
L 18.40625 75.984375 
L 18.40625 0 
L 9.421875 0 
z
" id="DejaVuSans-108"/>
      <path d="M 30.609375 48.390625 
Q 23.390625 48.390625 19.1875 42.75 
Q 14.984375 37.109375 14.984375 27.296875 
Q 14.984375 17.484375 19.15625 11.84375 
Q 23.34375 6.203125 30.609375 6.203125 
Q 37.796875 6.203125 41.984375 11.859375 
Q 46.1875 17.53125 46.1875 27.296875 
Q 46.1875 37.015625 41.984375 42.703125 
Q 37.796875 48.390625 30.609375 48.390625 
z
M 30.609375 56 
Q 42.328125 56 49.015625 48.375 
Q 55.71875 40.765625 55.71875 27.296875 
Q 55.71875 13.875 49.015625 6.21875 
Q 42.328125 -1.421875 30.609375 -1.421875 
Q 18.84375 -1.421875 12.171875 6.21875 
Q 5.515625 13.875 5.515625 27.296875 
Q 5.515625 40.765625 12.171875 48.375 
Q 18.84375 56 30.609375 56 
z
" id="DejaVuSans-111"/>
      <path d="M 45.40625 27.984375 
Q 45.40625 37.75 41.375 43.109375 
Q 37.359375 48.484375 30.078125 48.484375 
Q 22.859375 48.484375 18.828125 43.109375 
Q 14.796875 37.75 14.796875 27.984375 
Q 14.796875 18.265625 18.828125 12.890625 
Q 22.859375 7.515625 30.078125 7.515625 
Q 37.359375 7.515625 41.375 12.890625 
Q 45.40625 18.265625 45.40625 27.984375 
z
M 54.390625 6.78125 
Q 54.390625 -7.171875 48.1875 -13.984375 
Q 42 -20.796875 29.203125 -20.796875 
Q 24.46875 -20.796875 20.265625 -20.09375 
Q 16.0625 -19.390625 12.109375 -17.921875 
L 12.109375 -9.1875 
Q 16.0625 -11.328125 19.921875 -12.34375 
Q 23.78125 -13.375 27.78125 -13.375 
Q 36.625 -13.375 41.015625 -8.765625 
Q 45.40625 -4.15625 45.40625 5.171875 
L 45.40625 9.625 
Q 42.625 4.78125 38.28125 2.390625 
Q 33.9375 0 27.875 0 
Q 17.828125 0 11.671875 7.65625 
Q 5.515625 15.328125 5.515625 27.984375 
Q 5.515625 40.671875 11.671875 48.328125 
Q 17.828125 56 27.875 56 
Q 33.9375 56 38.28125 53.609375 
Q 42.625 51.21875 45.40625 46.390625 
L 45.40625 54.6875 
L 54.390625 54.6875 
z
" id="DejaVuSans-103"/>
      <path d="M 12.40625 8.296875 
L 28.515625 8.296875 
L 28.515625 63.921875 
L 10.984375 60.40625 
L 10.984375 69.390625 
L 28.421875 72.90625 
L 38.28125 72.90625 
L 38.28125 8.296875 
L 54.390625 8.296875 
L 54.390625 0 
L 12.40625 0 
z
" id="DejaVuSans-49"/>
      <path d="M 31 75.875 
Q 24.46875 64.65625 21.28125 53.65625 
Q 18.109375 42.671875 18.109375 31.390625 
Q 18.109375 20.125 21.3125 9.0625 
Q 24.515625 -2 31 -13.1875 
L 23.1875 -13.1875 
Q 15.875 -1.703125 12.234375 9.375 
Q 8.59375 20.453125 8.59375 31.390625 
Q 8.59375 42.28125 12.203125 53.3125 
Q 15.828125 64.359375 23.1875 75.875 
z
" id="DejaVuSans-40"/>
      <path d="M 51.125 44 
L 36.921875 44 
L 32.8125 27.6875 
L 47.125 27.6875 
z
M 43.796875 71.78125 
L 38.71875 51.515625 
L 52.984375 51.515625 
L 58.109375 71.78125 
L 65.921875 71.78125 
L 60.890625 51.515625 
L 76.125 51.515625 
L 76.125 44 
L 58.984375 44 
L 54.984375 27.6875 
L 70.515625 27.6875 
L 70.515625 20.21875 
L 53.078125 20.21875 
L 48 0 
L 40.1875 0 
L 45.21875 20.21875 
L 30.90625 20.21875 
L 25.875 0 
L 18.015625 0 
L 23.09375 20.21875 
L 7.71875 20.21875 
L 7.71875 27.6875 
L 24.90625 27.6875 
L 29 44 
L 13.28125 44 
L 13.28125 51.515625 
L 30.90625 51.515625 
L 35.890625 71.78125 
z
" id="DejaVuSans-35"/>
      <path id="DejaVuSans-32"/>
      <path d="M 37.109375 75.984375 
L 37.109375 68.5 
L 28.515625 68.5 
Q 23.6875 68.5 21.796875 66.546875 
Q 19.921875 64.59375 19.921875 59.515625 
L 19.921875 54.6875 
L 34.71875 54.6875 
L 34.71875 47.703125 
L 19.921875 47.703125 
L 19.921875 0 
L 10.890625 0 
L 10.890625 47.703125 
L 2.296875 47.703125 
L 2.296875 54.6875 
L 10.890625 54.6875 
L 10.890625 58.5 
Q 10.890625 67.625 15.140625 71.796875 
Q 19.390625 75.984375 28.609375 75.984375 
z
" id="DejaVuSans-102"/>
      <path d="M 4.890625 31.390625 
L 31.203125 31.390625 
L 31.203125 23.390625 
L 4.890625 23.390625 
z
" id="DejaVuSans-45"/>
      <path d="M 56.203125 29.59375 
L 56.203125 25.203125 
L 14.890625 25.203125 
Q 15.484375 15.921875 20.484375 11.0625 
Q 25.484375 6.203125 34.421875 6.203125 
Q 39.59375 6.203125 44.453125 7.46875 
Q 49.3125 8.734375 54.109375 11.28125 
L 54.109375 2.78125 
Q 49.265625 0.734375 44.1875 -0.34375 
Q 39.109375 -1.421875 33.890625 -1.421875 
Q 20.796875 -1.421875 13.15625 6.1875 
Q 5.515625 13.8125 5.515625 26.8125 
Q 5.515625 40.234375 12.765625 48.109375 
Q 20.015625 56 32.328125 56 
Q 43.359375 56 49.78125 48.890625 
Q 56.203125 41.796875 56.203125 29.59375 
z
M 47.21875 32.234375 
Q 47.125 39.59375 43.09375 43.984375 
Q 39.0625 48.390625 32.421875 48.390625 
Q 24.90625 48.390625 20.390625 44.140625 
Q 15.875 39.890625 15.1875 32.171875 
z
" id="DejaVuSans-101"/>
      <path d="M 2.984375 54.6875 
L 12.5 54.6875 
L 29.59375 8.796875 
L 46.6875 54.6875 
L 56.203125 54.6875 
L 35.6875 0 
L 23.484375 0 
z
" id="DejaVuSans-118"/>
      <path d="M 34.28125 27.484375 
Q 23.390625 27.484375 19.1875 25 
Q 14.984375 22.515625 14.984375 16.5 
Q 14.984375 11.71875 18.140625 8.90625 
Q 21.296875 6.109375 26.703125 6.109375 
Q 34.1875 6.109375 38.703125 11.40625 
Q 43.21875 16.703125 43.21875 25.484375 
L 43.21875 27.484375 
z
M 52.203125 31.203125 
L 52.203125 0 
L 43.21875 0 
L 43.21875 8.296875 
Q 40.140625 3.328125 35.546875 0.953125 
Q 30.953125 -1.421875 24.3125 -1.421875 
Q 15.921875 -1.421875 10.953125 3.296875 
Q 6 8.015625 6 15.921875 
Q 6 25.140625 12.171875 29.828125 
Q 18.359375 34.515625 30.609375 34.515625 
L 43.21875 34.515625 
L 43.21875 35.40625 
Q 43.21875 41.609375 39.140625 45 
Q 35.0625 48.390625 27.6875 48.390625 
Q 23 48.390625 18.546875 47.265625 
Q 14.109375 46.140625 10.015625 43.890625 
L 10.015625 52.203125 
Q 14.9375 54.109375 19.578125 55.046875 
Q 24.21875 56 28.609375 56 
Q 40.484375 56 46.34375 49.84375 
Q 52.203125 43.703125 52.203125 31.203125 
z
" id="DejaVuSans-97"/>
      <path d="M 44.28125 53.078125 
L 44.28125 44.578125 
Q 40.484375 46.53125 36.375 47.5 
Q 32.28125 48.484375 27.875 48.484375 
Q 21.1875 48.484375 17.84375 46.4375 
Q 14.5 44.390625 14.5 40.28125 
Q 14.5 37.15625 16.890625 35.375 
Q 19.28125 33.59375 26.515625 31.984375 
L 29.59375 31.296875 
Q 39.15625 29.25 43.1875 25.515625 
Q 47.21875 21.78125 47.21875 15.09375 
Q 47.21875 7.46875 41.1875 3.015625 
Q 35.15625 -1.421875 24.609375 -1.421875 
Q 20.21875 -1.421875 15.453125 -0.5625 
Q 10.6875 0.296875 5.421875 2 
L 5.421875 11.28125 
Q 10.40625 8.6875 15.234375 7.390625 
Q 20.0625 6.109375 24.8125 6.109375 
Q 31.15625 6.109375 34.5625 8.28125 
Q 37.984375 10.453125 37.984375 14.40625 
Q 37.984375 18.0625 35.515625 20.015625 
Q 33.0625 21.96875 24.703125 23.78125 
L 21.578125 24.515625 
Q 13.234375 26.265625 9.515625 29.90625 
Q 5.8125 33.546875 5.8125 39.890625 
Q 5.8125 47.609375 11.28125 51.796875 
Q 16.75 56 26.8125 56 
Q 31.78125 56 36.171875 55.265625 
Q 40.578125 54.546875 44.28125 53.078125 
z
" id="DejaVuSans-115"/>
      <path d="M 25.390625 72.90625 
L 33.6875 72.90625 
L 8.296875 -9.28125 
L 0 -9.28125 
z
" id="DejaVuSans-47"/>
      <path d="M 45.40625 46.390625 
L 45.40625 75.984375 
L 54.390625 75.984375 
L 54.390625 0 
L 45.40625 0 
L 45.40625 8.203125 
Q 42.578125 3.328125 38.25 0.953125 
Q 33.9375 -1.421875 27.875 -1.421875 
Q 17.96875 -1.421875 11.734375 6.484375 
Q 5.515625 14.40625 5.515625 27.296875 
Q 5.515625 40.1875 11.734375 48.09375 
Q 17.96875 56 27.875 56 
Q 33.9375 56 38.25 53.625 
Q 42.578125 51.265625 45.40625 46.390625 
z
M 14.796875 27.296875 
Q 14.796875 17.390625 18.875 11.75 
Q 22.953125 6.109375 30.078125 6.109375 
Q 37.203125 6.109375 41.296875 11.75 
Q 45.40625 17.390625 45.40625 27.296875 
Q 45.40625 37.203125 41.296875 42.84375 
Q 37.203125 48.484375 30.078125 48.484375 
Q 22.953125 48.484375 18.875 42.84375 
Q 14.796875 37.203125 14.796875 27.296875 
z
" id="DejaVuSans-100"/>
      <path d="M 9.421875 54.6875 
L 18.40625 54.6875 
L 18.40625 0 
L 9.421875 0 
z
M 9.421875 75.984375 
L 18.40625 75.984375 
L 18.40625 64.59375 
L 9.421875 64.59375 
z
" id="DejaVuSans-105"/>
      <path d="M 52 44.1875 
Q 55.375 50.25 60.0625 53.125 
Q 64.75 56 71.09375 56 
Q 79.640625 56 84.28125 50.015625 
Q 88.921875 44.046875 88.921875 33.015625 
L 88.921875 0 
L 79.890625 0 
L 79.890625 32.71875 
Q 79.890625 40.578125 77.09375 44.375 
Q 74.3125 48.1875 68.609375 48.1875 
Q 61.625 48.1875 57.5625 43.546875 
Q 53.515625 38.921875 53.515625 30.90625 
L 53.515625 0 
L 44.484375 0 
L 44.484375 32.71875 
Q 44.484375 40.625 41.703125 44.40625 
Q 38.921875 48.1875 33.109375 48.1875 
Q 26.21875 48.1875 22.15625 43.53125 
Q 18.109375 38.875 18.109375 30.90625 
L 18.109375 0 
L 9.078125 0 
L 9.078125 54.6875 
L 18.109375 54.6875 
L 18.109375 46.1875 
Q 21.1875 51.21875 25.484375 53.609375 
Q 29.78125 56 35.6875 56 
Q 41.65625 56 45.828125 52.96875 
Q 50 49.953125 52 44.1875 
z
" id="DejaVuSans-109"/>
      <path d="M 54.890625 33.015625 
L 54.890625 0 
L 45.90625 0 
L 45.90625 32.71875 
Q 45.90625 40.484375 42.875 44.328125 
Q 39.84375 48.1875 33.796875 48.1875 
Q 26.515625 48.1875 22.3125 43.546875 
Q 18.109375 38.921875 18.109375 30.90625 
L 18.109375 0 
L 9.078125 0 
L 9.078125 54.6875 
L 18.109375 54.6875 
L 18.109375 46.1875 
Q 21.34375 51.125 25.703125 53.5625 
Q 30.078125 56 35.796875 56 
Q 45.21875 56 50.046875 50.171875 
Q 54.890625 44.34375 54.890625 33.015625 
z
" id="DejaVuSans-110"/>
      <path d="M 8.015625 75.875 
L 15.828125 75.875 
Q 23.140625 64.359375 26.78125 53.3125 
Q 30.421875 42.28125 30.421875 31.390625 
Q 30.421875 20.453125 26.78125 9.375 
Q 23.140625 -1.703125 15.828125 -13.1875 
L 8.015625 -13.1875 
Q 14.5 -2 17.703125 9.0625 
Q 20.90625 20.125 20.90625 31.390625 
Q 20.90625 42.671875 17.703125 53.65625 
Q 14.5 64.65625 8.015625 75.875 
z
" id="DejaVuSans-41"/>
     </defs>
     <g transform="translate(77.764078 342.217594)scale(0.17 -0.17)">
      <use xlink:href="#DejaVuSans-108"/>
      <use x="27.783203" xlink:href="#DejaVuSans-111"/>
      <use x="88.964844" xlink:href="#DejaVuSans-103"/>
      <use x="152.441406" xlink:href="#DejaVuSans-49"/>
      <use x="216.064453" xlink:href="#DejaVuSans-48"/>
      <use x="279.6875" xlink:href="#DejaVuSans-40"/>
      <use x="318.701172" xlink:href="#DejaVuSans-35"/>
      <use x="402.490234" xlink:href="#DejaVuSans-32"/>
      <use x="434.277344" xlink:href="#DejaVuSans-102"/>
      <use x="463.982422" xlink:href="#DejaVuSans-45"/>
      <use x="500.066406" xlink:href="#DejaVuSans-101"/>
      <use x="561.589844" xlink:href="#DejaVuSans-118"/>
      <use x="620.769531" xlink:href="#DejaVuSans-97"/>
      <use x="682.048828" xlink:href="#DejaVuSans-108"/>
      <use x="709.832031" xlink:href="#DejaVuSans-115"/>
      <use x="761.931641" xlink:href="#DejaVuSans-32"/>
      <use x="793.71875" xlink:href="#DejaVuSans-47"/>
      <use x="827.410156" xlink:href="#DejaVuSans-32"/>
      <use x="859.197266" xlink:href="#DejaVuSans-100"/>
      <use x="922.673828" xlink:href="#DejaVuSans-105"/>
      <use x="950.457031" xlink:href="#DejaVuSans-109"/>
      <use x="1047.869141" xlink:href="#DejaVuSans-101"/>
      <use x="1109.392578" xlink:href="#DejaVuSans-110"/>
      <use x="1172.771484" xlink:href="#DejaVuSans-115"/>
      <use x="1224.871094" xlink:href="#DejaVuSans-105"/>
      <use x="1252.654297" xlink:href="#DejaVuSans-111"/>
      <use x="1313.835938" xlink:href="#DejaVuSans-110"/>
      <use x="1377.214844" xlink:href="#DejaVuSans-41"/>
     </g>
    </g>
   </g>
   <g id="matplotlib.axis_2">
    <g id="ytick_1">
     <g id="line2d_21">
      <path clip-path="url(#p328dbb05fd)" d="M 57.6 298.944 
L 338.688 298.944 
" style="fill:none;stroke:#b0b0b0;stroke-linecap:square;stroke-width:0.8;"/>
     </g>
     <g id="line2d_22">
      <defs>
       <path d="M 0 0 
L -3.5 0 
" id="m440d7f1fec" style="stroke:#000000;stroke-width:0.8;"/>
      </defs>
      <g>
       <use style="stroke:#000000;stroke-width:0.8;" x="57.6" xlink:href="#m440d7f1fec" y="298.944"/>
      </g>
     </g>
     <g id="text_6">
      <!-- 0.0 -->
      <defs>
       <path d="M 10.6875 12.40625 
L 21 12.40625 
L 21 0 
L 10.6875 0 
z
" id="DejaVuSans-46"/>
      </defs>
      <g transform="translate(25.155 305.02275)scale(0.16 -0.16)">
       <use xlink:href="#DejaVuSans-48"/>
       <use x="63.623047" xlink:href="#DejaVuSans-46"/>
       <use x="95.410156" xlink:href="#DejaVuSans-48"/>
      </g>
     </g>
    </g>
    <g id="ytick_2">
     <g id="line2d_23">
      <path clip-path="url(#p328dbb05fd)" d="M 57.6 245.22202 
L 338.688 245.22202 
" style="fill:none;stroke:#b0b0b0;stroke-linecap:square;stroke-width:0.8;"/>
     </g>
     <g id="line2d_24">
      <g>
       <use style="stroke:#000000;stroke-width:0.8;" x="57.6" xlink:href="#m440d7f1fec" y="245.22202"/>
      </g>
     </g>
     <g id="text_7">
      <!-- 0.2 -->
      <g transform="translate(25.155 251.30077)scale(0.16 -0.16)">
       <use xlink:href="#DejaVuSans-48"/>
       <use x="63.623047" xlink:href="#DejaVuSans-46"/>
       <use x="95.410156" xlink:href="#DejaVuSans-50"/>
      </g>
     </g>
    </g>
    <g id="ytick_3">
     <g id="line2d_25">
      <path clip-path="url(#p328dbb05fd)" d="M 57.6 191.50004 
L 338.688 191.50004 
" style="fill:none;stroke:#b0b0b0;stroke-linecap:square;stroke-width:0.8;"/>
     </g>
     <g id="line2d_26">
      <g>
       <use style="stroke:#000000;stroke-width:0.8;" x="57.6" xlink:href="#m440d7f1fec" y="191.50004"/>
      </g>
     </g>
     <g id="text_8">
      <!-- 0.4 -->
      <g transform="translate(25.155 197.57879)scale(0.16 -0.16)">
       <use xlink:href="#DejaVuSans-48"/>
       <use x="63.623047" xlink:href="#DejaVuSans-46"/>
       <use x="95.410156" xlink:href="#DejaVuSans-52"/>
      </g>
     </g>
    </g>
    <g id="ytick_4">
     <g id="line2d_27">
      <path clip-path="url(#p328dbb05fd)" d="M 57.6 137.778059 
L 338.688 137.778059 
" style="fill:none;stroke:#b0b0b0;stroke-linecap:square;stroke-width:0.8;"/>
     </g>
     <g id="line2d_28">
      <g>
       <use style="stroke:#000000;stroke-width:0.8;" x="57.6" xlink:href="#m440d7f1fec" y="137.778059"/>
      </g>
     </g>
     <g id="text_9">
      <!-- 0.6 -->
      <g transform="translate(25.155 143.856809)scale(0.16 -0.16)">
       <use xlink:href="#DejaVuSans-48"/>
       <use x="63.623047" xlink:href="#DejaVuSans-46"/>
       <use x="95.410156" xlink:href="#DejaVuSans-54"/>
      </g>
     </g>
    </g>
    <g id="ytick_5">
     <g id="line2d_29">
      <path clip-path="url(#p328dbb05fd)" d="M 57.6 84.056079 
L 338.688 84.056079 
" style="fill:none;stroke:#b0b0b0;stroke-linecap:square;stroke-width:0.8;"/>
     </g>
     <g id="line2d_30">
      <g>
       <use style="stroke:#000000;stroke-width:0.8;" x="57.6" xlink:href="#m440d7f1fec" y="84.056079"/>
      </g>
     </g>
     <g id="text_10">
      <!-- 0.8 -->
      <defs>
       <path d="M 31.78125 34.625 
Q 24.75 34.625 20.71875 30.859375 
Q 16.703125 27.09375 16.703125 20.515625 
Q 16.703125 13.921875 20.71875 10.15625 
Q 24.75 6.390625 31.78125 6.390625 
Q 38.8125 6.390625 42.859375 10.171875 
Q 46.921875 13.96875 46.921875 20.515625 
Q 46.921875 27.09375 42.890625 30.859375 
Q 38.875 34.625 31.78125 34.625 
z
M 21.921875 38.8125 
Q 15.578125 40.375 12.03125 44.71875 
Q 8.5 49.078125 8.5 55.328125 
Q 8.5 64.0625 14.71875 69.140625 
Q 20.953125 74.21875 31.78125 74.21875 
Q 42.671875 74.21875 48.875 69.140625 
Q 55.078125 64.0625 55.078125 55.328125 
Q 55.078125 49.078125 51.53125 44.71875 
Q 48 40.375 41.703125 38.8125 
Q 48.828125 37.15625 52.796875 32.3125 
Q 56.78125 27.484375 56.78125 20.515625 
Q 56.78125 9.90625 50.3125 4.234375 
Q 43.84375 -1.421875 31.78125 -1.421875 
Q 19.734375 -1.421875 13.25 4.234375 
Q 6.78125 9.90625 6.78125 20.515625 
Q 6.78125 27.484375 10.78125 32.3125 
Q 14.796875 37.15625 21.921875 38.8125 
z
M 18.3125 54.390625 
Q 18.3125 48.734375 21.84375 45.5625 
Q 25.390625 42.390625 31.78125 42.390625 
Q 38.140625 42.390625 41.71875 45.5625 
Q 45.3125 48.734375 45.3125 54.390625 
Q 45.3125 60.0625 41.71875 63.234375 
Q 38.140625 66.40625 31.78125 66.40625 
Q 25.390625 66.40625 21.84375 63.234375 
Q 18.3125 60.0625 18.3125 54.390625 
z
" id="DejaVuSans-56"/>
      </defs>
      <g transform="translate(25.155 90.134829)scale(0.16 -0.16)">
       <use xlink:href="#DejaVuSans-48"/>
       <use x="63.623047" xlink:href="#DejaVuSans-46"/>
       <use x="95.410156" xlink:href="#DejaVuSans-56"/>
      </g>
     </g>
    </g>
    <g id="ytick_6">
     <g id="line2d_31">
      <path clip-path="url(#p328dbb05fd)" d="M 57.6 30.334099 
L 338.688 30.334099 
" style="fill:none;stroke:#b0b0b0;stroke-linecap:square;stroke-width:0.8;"/>
     </g>
     <g id="line2d_32">
      <g>
       <use style="stroke:#000000;stroke-width:0.8;" x="57.6" xlink:href="#m440d7f1fec" y="30.334099"/>
      </g>
     </g>
     <g id="text_11">
      <!-- 1.0 -->
      <g transform="translate(25.155 36.412849)scale(0.16 -0.16)">
       <use xlink:href="#DejaVuSans-49"/>
       <use x="63.623047" xlink:href="#DejaVuSans-46"/>
       <use x="95.410156" xlink:href="#DejaVuSans-48"/>
      </g>
     </g>
    </g>
    <g id="text_12">
     <!-- Fraction of function,target pairs -->
     <defs>
      <path d="M 9.8125 72.90625 
L 51.703125 72.90625 
L 51.703125 64.59375 
L 19.671875 64.59375 
L 19.671875 43.109375 
L 48.578125 43.109375 
L 48.578125 34.8125 
L 19.671875 34.8125 
L 19.671875 0 
L 9.8125 0 
z
" id="DejaVuSans-70"/>
      <path d="M 41.109375 46.296875 
Q 39.59375 47.171875 37.8125 47.578125 
Q 36.03125 48 33.890625 48 
Q 26.265625 48 22.1875 43.046875 
Q 18.109375 38.09375 18.109375 28.8125 
L 18.109375 0 
L 9.078125 0 
L 9.078125 54.6875 
L 18.109375 54.6875 
L 18.109375 46.1875 
Q 20.953125 51.171875 25.484375 53.578125 
Q 30.03125 56 36.53125 56 
Q 37.453125 56 38.578125 55.875 
Q 39.703125 55.765625 41.0625 55.515625 
z
" id="DejaVuSans-114"/>
      <path d="M 48.78125 52.59375 
L 48.78125 44.1875 
Q 44.96875 46.296875 41.140625 47.34375 
Q 37.3125 48.390625 33.40625 48.390625 
Q 24.65625 48.390625 19.8125 42.84375 
Q 14.984375 37.3125 14.984375 27.296875 
Q 14.984375 17.28125 19.8125 11.734375 
Q 24.65625 6.203125 33.40625 6.203125 
Q 37.3125 6.203125 41.140625 7.25 
Q 44.96875 8.296875 48.78125 10.40625 
L 48.78125 2.09375 
Q 45.015625 0.34375 40.984375 -0.53125 
Q 36.96875 -1.421875 32.421875 -1.421875 
Q 20.0625 -1.421875 12.78125 6.34375 
Q 5.515625 14.109375 5.515625 27.296875 
Q 5.515625 40.671875 12.859375 48.328125 
Q 20.21875 56 33.015625 56 
Q 37.15625 56 41.109375 55.140625 
Q 45.0625 54.296875 48.78125 52.59375 
z
" id="DejaVuSans-99"/>
      <path d="M 18.3125 70.21875 
L 18.3125 54.6875 
L 36.8125 54.6875 
L 36.8125 47.703125 
L 18.3125 47.703125 
L 18.3125 18.015625 
Q 18.3125 11.328125 20.140625 9.421875 
Q 21.96875 7.515625 27.59375 7.515625 
L 36.8125 7.515625 
L 36.8125 0 
L 27.59375 0 
Q 17.1875 0 13.234375 3.875 
Q 9.28125 7.765625 9.28125 18.015625 
L 9.28125 47.703125 
L 2.6875 47.703125 
L 2.6875 54.6875 
L 9.28125 54.6875 
L 9.28125 70.21875 
z
" id="DejaVuSans-116"/>
      <path d="M 8.5 21.578125 
L 8.5 54.6875 
L 17.484375 54.6875 
L 17.484375 21.921875 
Q 17.484375 14.15625 20.5 10.265625 
Q 23.53125 6.390625 29.59375 6.390625 
Q 36.859375 6.390625 41.078125 11.03125 
Q 45.3125 15.671875 45.3125 23.6875 
L 45.3125 54.6875 
L 54.296875 54.6875 
L 54.296875 0 
L 45.3125 0 
L 45.3125 8.40625 
Q 42.046875 3.421875 37.71875 1 
Q 33.40625 -1.421875 27.6875 -1.421875 
Q 18.265625 -1.421875 13.375 4.4375 
Q 8.5 10.296875 8.5 21.578125 
z
M 31.109375 56 
z
" id="DejaVuSans-117"/>
      <path d="M 11.71875 12.40625 
L 22.015625 12.40625 
L 22.015625 4 
L 14.015625 -11.625 
L 7.71875 -11.625 
L 11.71875 4 
z
" id="DejaVuSans-44"/>
      <path d="M 18.109375 8.203125 
L 18.109375 -20.796875 
L 9.078125 -20.796875 
L 9.078125 54.6875 
L 18.109375 54.6875 
L 18.109375 46.390625 
Q 20.953125 51.265625 25.265625 53.625 
Q 29.59375 56 35.59375 56 
Q 45.5625 56 51.78125 48.09375 
Q 58.015625 40.1875 58.015625 27.296875 
Q 58.015625 14.40625 51.78125 6.484375 
Q 45.5625 -1.421875 35.59375 -1.421875 
Q 29.59375 -1.421875 25.265625 0.953125 
Q 20.953125 3.328125 18.109375 8.203125 
z
M 48.6875 27.296875 
Q 48.6875 37.203125 44.609375 42.84375 
Q 40.53125 48.484375 33.40625 48.484375 
Q 26.265625 48.484375 22.1875 42.84375 
Q 18.109375 37.203125 18.109375 27.296875 
Q 18.109375 17.390625 22.1875 11.75 
Q 26.265625 6.109375 33.40625 6.109375 
Q 40.53125 6.109375 44.609375 11.75 
Q 48.6875 17.390625 48.6875 27.296875 
z
" id="DejaVuSans-112"/>
     </defs>
     <g transform="translate(17.619531 297.681)rotate(-90)scale(0.17 -0.17)">
      <use xlink:href="#DejaVuSans-70"/>
      <use x="50.269531" xlink:href="#DejaVuSans-114"/>
      <use x="91.382812" xlink:href="#DejaVuSans-97"/>
      <use x="152.662109" xlink:href="#DejaVuSans-99"/>
      <use x="207.642578" xlink:href="#DejaVuSans-116"/>
      <use x="246.851562" xlink:href="#DejaVuSans-105"/>
      <use x="274.634766" xlink:href="#DejaVuSans-111"/>
      <use x="335.816406" xlink:href="#DejaVuSans-110"/>
      <use x="399.195312" xlink:href="#DejaVuSans-32"/>
      <use x="430.982422" xlink:href="#DejaVuSans-111"/>
      <use x="492.164062" xlink:href="#DejaVuSans-102"/>
      <use x="527.369141" xlink:href="#DejaVuSans-32"/>
      <use x="559.15625" xlink:href="#DejaVuSans-102"/>
      <use x="594.361328" xlink:href="#DejaVuSans-117"/>
      <use x="657.740234" xlink:href="#DejaVuSans-110"/>
      <use x="721.119141" xlink:href="#DejaVuSans-99"/>
      <use x="776.099609" xlink:href="#DejaVuSans-116"/>
      <use x="815.308594" xlink:href="#DejaVuSans-105"/>
      <use x="843.091797" xlink:href="#DejaVuSans-111"/>
      <use x="904.273438" xlink:href="#DejaVuSans-110"/>
      <use x="967.652344" xlink:href="#DejaVuSans-44"/>
      <use x="999.439453" xlink:href="#DejaVuSans-116"/>
      <use x="1038.648438" xlink:href="#DejaVuSans-97"/>
      <use x="1099.927734" xlink:href="#DejaVuSans-114"/>
      <use x="1139.291016" xlink:href="#DejaVuSans-103"/>
      <use x="1202.767578" xlink:href="#DejaVuSans-101"/>
      <use x="1264.291016" xlink:href="#DejaVuSans-116"/>
      <use x="1303.5" xlink:href="#DejaVuSans-32"/>
      <use x="1335.287109" xlink:href="#DejaVuSans-112"/>
      <use x="1398.763672" xlink:href="#DejaVuSans-97"/>
      <use x="1460.042969" xlink:href="#DejaVuSans-105"/>
      <use x="1487.826172" xlink:href="#DejaVuSans-114"/>
      <use x="1528.939453" xlink:href="#DejaVuSans-115"/>
     </g>
    </g>
   </g>
   <g id="line2d_33">
    <defs>
     <path d="M 0 1.5 
C 0.397805 1.5 0.77937 1.341951 1.06066 1.06066 
C 1.341951 0.77937 1.5 0.397805 1.5 0 
C 1.5 -0.397805 1.341951 -0.77937 1.06066 -1.06066 
C 0.77937 -1.341951 0.397805 -1.5 0 -1.5 
C -0.397805 -1.5 -0.77937 -1.341951 -1.06066 -1.06066 
C -1.341951 -0.77937 -1.5 -0.397805 -1.5 0 
C -1.5 0.397805 -1.341951 0.77937 -1.06066 1.06066 
C -0.77937 1.341951 -0.397805 1.5 0 1.5 
z
" id="m15326ce8f2" style="stroke:#f5deb3;"/>
    </defs>
    <g>
     <use style="fill:#f5deb3;stroke:#f5deb3;" x="144.589967" xlink:href="#m15326ce8f2" y="30.334099"/>
     <use style="fill:#f5deb3;stroke:#f5deb3;" x="144.589967" xlink:href="#m15326ce8f2" y="30.334099"/>
    </g>
   </g>
   <g id="line2d_34">
    <defs>
     <path d="M 0 1.5 
C 0.397805 1.5 0.77937 1.341951 1.06066 1.06066 
C 1.341951 0.77937 1.5 0.397805 1.5 0 
C 1.5 -0.397805 1.341951 -0.77937 1.06066 -1.06066 
C 0.77937 -1.341951 0.397805 -1.5 0 -1.5 
C -0.397805 -1.5 -0.77937 -1.341951 -1.06066 -1.06066 
C -1.341951 -0.77937 -1.5 -0.397805 -1.5 0 
C -1.5 0.397805 -1.341951 0.77937 -1.06066 1.06066 
C -0.77937 1.341951 -0.397805 1.5 0 1.5 
z
" id="m1c8a183944" style="stroke:#ff00ff;"/>
    </defs>
    <g>
     <use style="fill:#ff00ff;stroke:#ff00ff;" x="256.8596" xlink:href="#m1c8a183944" y="114.603872"/>
     <use style="fill:#ff00ff;stroke:#ff00ff;" x="256.8596" xlink:href="#m1c8a183944" y="114.603872"/>
    </g>
   </g>
   <g id="line2d_35">
    <path d="M 76.759008 298.944 
L 76.759008 298.417314 
L 81.775977 298.417314 
L 81.775977 297.890628 
L 84.464254 297.890628 
L 84.464254 297.363942 
L 85.66744 297.363942 
L 85.66744 296.837256 
L 104.826449 296.837256 
L 104.826449 295.783884 
L 119.097192 295.783884 
L 119.097192 295.257197 
L 120.571812 295.257197 
L 120.571812 294.203825 
L 121.785469 294.203825 
L 121.785469 293.677139 
L 125.23165 293.677139 
L 125.23165 293.150453 
L 126.281824 293.150453 
L 126.281824 292.623767 
L 126.839037 292.623767 
L 126.839037 291.570395 
L 127.272333 291.570395 
L 127.272333 291.043709 
L 128.411207 291.043709 
L 128.411207 290.517023 
L 128.807571 290.517023 
L 128.807571 289.463651 
L 129.760775 289.463651 
L 129.760775 287.356906 
L 131.355321 287.356906 
L 131.355321 286.83022 
L 131.523818 286.83022 
L 131.523818 285.776848 
L 132.101058 285.776848 
L 132.181982 284.723476 
L 133.201197 284.723476 
L 133.201197 284.19679 
L 133.57787 284.19679 
L 133.57787 283.670104 
L 134.091907 283.670104 
L 134.091907 283.143418 
L 134.7313 283.143418 
L 134.7313 282.616732 
L 135.280614 282.616732 
L 135.280614 281.563359 
L 136.008736 281.563359 
L 136.008736 281.036673 
L 136.137916 281.036673 
L 136.137916 280.509987 
L 136.893527 280.509987 
L 136.893527 279.456615 
L 139.036363 279.456615 
L 139.036363 278.929929 
L 139.413734 278.929929 
L 139.466984 277.349871 
L 139.783113 277.349871 
L 139.835248 276.296499 
L 142.619936 276.296499 
L 142.619936 275.769812 
L 143.230373 275.769812 
L 143.230373 275.243126 
L 143.902815 275.243126 
L 143.902815 274.71644 
L 144.747789 274.71644 
L 144.787023 272.609696 
L 144.981877 272.609696 
L 145.020588 271.556324 
L 146.143677 271.556324 
L 146.143677 271.029638 
L 146.395642 271.029638 
L 146.395642 270.502952 
L 147.300877 270.502952 
L 147.402367 267.869521 
L 148.54473 267.869521 
L 148.54473 267.342835 
L 149.073705 267.342835 
L 149.073705 266.816149 
L 149.347388 266.816149 
L 149.437669 265.762777 
L 149.557321 265.762777 
L 149.557321 265.236091 
L 149.764758 265.236091 
L 149.794191 264.182719 
L 150.710752 264.182719 
L 150.710752 263.656033 
L 150.849711 263.656033 
L 150.904986 259.96923 
L 151.097081 259.96923 
L 151.097081 259.442544 
L 151.394733 259.442544 
L 151.394733 257.862486 
L 151.844975 257.862486 
L 151.844975 257.3358 
L 152.232818 257.3358 
L 152.232818 256.282427 
L 153.371104 256.282427 
L 153.371104 255.755741 
L 153.843742 255.755741 
L 153.936752 252.595625 
L 154.212841 252.595625 
L 154.212841 251.542253 
L 154.371897 251.542253 
L 154.371897 250.488881 
L 155.275461 250.488881 
L 155.275461 249.962195 
L 155.425155 249.962195 
L 155.425155 248.908822 
L 155.845906 248.908822 
L 155.845906 248.382136 
L 157.069866 248.382136 
L 157.069866 247.328764 
L 157.79107 247.328764 
L 157.79107 246.802078 
L 158.049435 246.802078 
L 158.049435 246.275392 
L 158.51933 246.275392 
L 158.51933 245.748706 
L 159.69158 245.748706 
L 159.69158 245.22202 
L 160.038232 245.22202 
L 160.038232 244.695334 
L 160.680044 244.695334 
L 160.727241 243.641962 
L 161.359783 243.641962 
L 161.359783 243.115275 
L 162.188268 243.115275 
L 162.188268 242.588589 
L 163.402046 242.588589 
L 163.469301 240.481845 
L 163.696049 240.481845 
L 163.801742 239.428473 
L 164.179597 239.428473 
L 164.179597 238.901787 
L 164.536814 238.901787 
L 164.536814 238.375101 
L 165.290595 238.375101 
L 165.326839 237.321729 
L 165.447111 237.321729 
L 165.494988 236.268356 
L 165.637836 236.268356 
L 165.637836 235.74167 
L 166.255117 235.74167 
L 166.300829 232.581554 
L 166.906499 232.581554 
L 166.906499 232.054868 
L 167.481174 232.054868 
L 167.481174 231.528182 
L 167.819196 231.528182 
L 167.860992 230.47481 
L 168.576655 230.47481 
L 168.576655 229.948123 
L 168.815417 229.948123 
L 168.913944 228.368065 
L 169.128764 228.368065 
L 169.128764 227.841379 
L 169.331381 227.841379 
L 169.360135 226.261321 
L 170.192293 226.261321 
L 170.192293 225.734635 
L 170.642945 225.734635 
L 170.642945 225.207949 
L 170.969087 225.207949 
L 170.969087 224.154577 
L 171.417378 224.154577 
L 171.417378 223.627891 
L 171.72948 223.627891 
L 171.8212 222.047832 
L 172.052516 222.047832 
L 172.052516 221.521146 
L 172.569992 221.521146 
L 172.569992 220.99446 
L 172.720707 220.99446 
L 172.720707 219.414402 
L 172.893608 219.414402 
L 172.893608 218.887716 
L 173.057066 218.887716 
L 173.057066 218.36103 
L 173.295595 218.36103 
L 173.379457 217.307658 
L 173.530906 217.307658 
L 173.530906 216.780971 
L 174.065485 216.780971 
L 174.065485 216.254285 
L 174.189349 216.254285 
L 174.189349 215.727599 
L 174.498781 215.727599 
L 174.569962 213.094169 
L 174.753684 213.094169 
L 174.802819 212.040797 
L 175.032607 212.040797 
L 175.032607 211.514111 
L 175.293514 211.514111 
L 175.293514 210.987425 
L 176.092705 210.987425 
L 176.092705 209.934052 
L 176.567884 209.934052 
L 176.567884 209.407366 
L 176.700407 209.407366 
L 176.700407 208.353994 
L 176.887995 208.353994 
L 176.887995 207.827308 
L 177.696161 207.827308 
L 177.790908 206.773936 
L 178.320204 206.773936 
L 178.320204 206.24725 
L 178.78935 206.24725 
L 178.78935 205.720564 
L 179.617095 205.720564 
L 179.664896 204.667192 
L 179.733711 204.667192 
L 179.733711 204.140506 
L 180.284908 204.140506 
L 180.284908 203.613819 
L 180.453011 203.613819 
L 180.453011 203.087133 
L 181.114555 203.087133 
L 181.114555 202.560447 
L 181.943792 202.560447 
L 181.999553 200.453703 
L 182.592473 200.453703 
L 182.592473 199.400331 
L 183.390086 199.400331 
L 183.390086 198.873645 
L 184.530044 198.873645 
L 184.530044 198.346959 
L 184.824485 198.346959 
L 184.824485 197.820273 
L 185.459838 197.820273 
L 185.459838 197.293586 
L 185.607581 197.293586 
L 185.607581 196.7669 
L 185.787717 196.7669 
L 185.787717 195.713528 
L 186.021357 195.713528 
L 186.021357 195.186842 
L 186.266444 195.186842 
L 186.266444 194.660156 
L 186.497383 194.660156 
L 186.497383 194.13347 
L 189.405998 194.13347 
L 189.405998 193.606784 
L 190.445392 193.606784 
L 190.445392 193.080098 
L 190.78227 193.080098 
L 190.78227 192.553412 
L 191.472181 192.553412 
L 191.472181 191.50004 
L 192.047402 191.50004 
L 192.047402 190.973354 
L 192.324202 190.973354 
L 192.390803 188.866609 
L 192.964201 188.866609 
L 192.964201 187.813237 
L 193.353197 187.813237 
L 193.353197 187.286551 
L 193.917378 187.286551 
L 193.917378 185.179807 
L 194.094499 185.179807 
L 194.18239 184.126434 
L 194.457066 184.126434 
L 194.457066 182.01969 
L 194.720773 182.01969 
L 194.738659 180.966318 
L 195.136329 180.966318 
L 195.136329 180.439632 
L 195.769073 180.439632 
L 195.815353 179.38626 
L 196.036635 179.38626 
L 196.036635 178.332888 
L 196.728034 178.332888 
L 196.831402 176.226143 
L 197.008872 176.226143 
L 197.008872 175.172771 
L 197.163177 175.172771 
L 197.163177 174.646085 
L 197.362331 174.646085 
L 197.362331 174.119399 
L 197.981788 174.119399 
L 198.020709 173.066027 
L 198.59254 173.066027 
L 198.59254 172.539341 
L 198.712165 172.539341 
L 198.712165 171.485969 
L 201.456021 171.485969 
L 201.456021 170.959282 
L 202.280007 170.959282 
L 202.313328 169.90591 
L 202.541954 169.90591 
L 202.541954 169.379224 
L 202.877267 169.379224 
L 202.877267 168.852538 
L 203.332309 168.852538 
L 203.373217 167.27248 
L 203.697076 167.27248 
L 203.697076 166.745794 
L 204.008464 166.745794 
L 204.030776 164.63905 
L 204.175761 164.63905 
L 204.175761 164.112363 
L 204.612505 164.112363 
L 204.678347 162.532305 
L 204.79172 162.532305 
L 204.79172 161.478933 
L 204.906856 161.478933 
L 204.906856 160.952247 
L 205.643243 160.952247 
L 205.643243 160.425561 
L 205.976062 160.425561 
L 205.976062 159.372189 
L 207.993445 159.372189 
L 207.993445 158.845503 
L 208.275399 158.845503 
L 208.275399 158.318817 
L 208.509295 158.318817 
L 208.528561 156.738758 
L 208.634649 156.738758 
L 208.634649 156.212072 
L 208.777101 156.212072 
L 208.777101 155.685386 
L 208.999476 155.685386 
L 208.999476 154.632014 
L 209.114509 154.632014 
L 209.114509 154.105328 
L 209.235602 154.105328 
L 209.235602 153.578642 
L 209.391583 153.578642 
L 209.391583 153.051956 
L 209.602495 153.051956 
L 209.602495 152.52527 
L 210.022398 152.52527 
L 210.022398 151.998584 
L 210.618609 151.998584 
L 210.618609 151.471897 
L 210.760072 151.471897 
L 210.861432 148.838467 
L 210.976304 148.838467 
L 211.03258 147.785095 
L 211.14895 147.785095 
L 211.14895 147.258409 
L 212.962015 147.258409 
L 212.962015 146.731723 
L 213.342936 146.731723 
L 213.415835 145.151665 
L 214.134417 145.151665 
L 214.134417 144.624978 
L 214.617796 144.624978 
L 214.617796 144.098292 
L 214.749526 144.098292 
L 214.855609 142.518234 
L 215.040762 142.518234 
L 215.040762 141.991548 
L 216.465497 141.991548 
L 216.465497 141.464862 
L 217.045911 141.464862 
L 217.045911 140.938176 
L 217.477685 140.938176 
L 217.477685 140.41149 
L 217.67314 140.41149 
L 217.67314 139.884804 
L 217.80938 139.884804 
L 217.80938 139.358118 
L 218.029407 139.358118 
L 218.029407 138.831432 
L 218.220552 138.831432 
L 218.220552 138.304745 
L 219.588064 138.304745 
L 219.588064 137.778059 
L 219.713388 137.778059 
L 219.713388 136.198001 
L 220.301067 136.198001 
L 220.347442 135.144629 
L 220.581043 135.144629 
L 220.581043 134.617943 
L 220.721126 134.617943 
L 220.810554 132.511199 
L 220.908995 132.511199 
L 220.908995 131.457826 
L 222.196223 131.457826 
L 222.196223 130.93114 
L 222.381298 130.93114 
L 222.381298 130.404454 
L 222.974669 130.404454 
L 223.056365 128.824396 
L 223.151706 128.824396 
L 223.151706 128.29771 
L 224.664192 128.29771 
L 224.664192 127.771024 
L 225.164765 127.771024 
L 225.215443 126.717652 
L 225.291959 126.717652 
L 225.291959 126.190966 
L 226.998155 126.190966 
L 227.015016 125.137593 
L 227.129448 125.137593 
L 227.129448 124.610907 
L 228.436407 124.610907 
L 228.436407 124.084221 
L 229.621699 124.084221 
L 229.621699 123.557535 
L 230.309121 123.557535 
L 230.309121 123.030849 
L 231.705053 123.030849 
L 231.705053 121.977477 
L 232.948332 121.977477 
L 232.997482 120.924105 
L 235.326235 120.924105 
L 235.326235 119.870733 
L 236.383511 119.870733 
L 236.383511 119.344047 
L 237.380335 119.344047 
L 237.380335 118.817361 
L 239.160665 118.817361 
L 239.160665 118.290674 
L 243.025547 118.290674 
L 243.109318 117.237302 
L 243.79331 117.237302 
L 243.79331 116.710616 
L 245.085719 116.710616 
L 245.085719 116.18393 
L 250.86442 116.18393 
L 250.86442 115.657244 
L 252.957559 115.657244 
L 252.957559 115.130558 
L 256.8596 115.130558 
L 256.8596 114.603872 
L 338.688 114.603872 
L 338.688 114.603872 
" style="fill:none;stroke:#ff00ff;stroke-linecap:square;stroke-width:1.5;"/>
   </g>
   <g id="line2d_36">
    <defs>
     <path d="M -0 8.485281 
L 5.091169 0 
L 0 -8.485281 
L -5.091169 -0 
z
" id="m559e11e61c" style="stroke:#ff00ff;stroke-linejoin:miter;stroke-width:1.5;"/>
    </defs>
    <g>
     <use style="fill-opacity:0;stroke:#ff00ff;stroke-linejoin:miter;stroke-width:1.5;" x="151.844975" xlink:href="#m559e11e61c" y="257.862486"/>
     <use style="fill-opacity:0;stroke:#ff00ff;stroke-linejoin:miter;stroke-width:1.5;" x="204.175761" xlink:href="#m559e11e61c" y="164.112363"/>
     <use style="fill-opacity:0;stroke:#ff00ff;stroke-linejoin:miter;stroke-width:1.5;" x="256.8596" xlink:href="#m559e11e61c" y="115.130558"/>
     <use style="fill-opacity:0;stroke:#ff00ff;stroke-linejoin:miter;stroke-width:1.5;" x="256.8596" xlink:href="#m559e11e61c" y="114.603872"/>
     <use style="fill-opacity:0;stroke:#ff00ff;stroke-linejoin:miter;stroke-width:1.5;" x="338.688" xlink:href="#m559e11e61c" y="114.603872"/>
    </g>
   </g>
   <g id="line2d_37">
    <path style="fill:none;stroke:#ff00ff;stroke-linecap:square;stroke-width:1.5;"/>
    <g/>
   </g>
   <g id="line2d_38">
    <path clip-path="url(#p328dbb05fd)" d="M 186.974717 194.13347 
" style="fill:none;stroke:#ff00ff;stroke-linecap:square;stroke-width:1.5;"/>
    <defs>
     <path d="M -12 12 
L 12 -12 
M -12 -12 
L 12 12 
" id="mdbed1beaed" style="stroke:#ff00ff;"/>
    </defs>
    <g clip-path="url(#p328dbb05fd)">
     <use style="fill:#ff00ff;stroke:#ff00ff;" x="186.974717" xlink:href="#mdbed1beaed" y="194.13347"/>
    </g>
   </g>
   <g id="line2d_39">
    <defs>
     <path d="M 0 1.5 
C 0.397805 1.5 0.77937 1.341951 1.06066 1.06066 
C 1.341951 0.77937 1.5 0.397805 1.5 0 
C 1.5 -0.397805 1.341951 -0.77937 1.06066 -1.06066 
C 0.77937 -1.341951 0.397805 -1.5 0 -1.5 
C -0.397805 -1.5 -0.77937 -1.341951 -1.06066 -1.06066 
C -1.341951 -0.77937 -1.5 -0.397805 -1.5 0 
C -1.5 0.397805 -1.341951 0.77937 -1.06066 1.06066 
C -0.77937 1.341951 -0.397805 1.5 0 1.5 
z
" id="m2fdb74982c" style="stroke:#ff7500;"/>
    </defs>
    <g>
     <use style="fill:#ff7500;stroke:#ff7500;" x="235.293068" xlink:href="#m2fdb74982c" y="188.339923"/>
     <use style="fill:#ff7500;stroke:#ff7500;" x="235.293068" xlink:href="#m2fdb74982c" y="188.339923"/>
    </g>
   </g>
   <g id="line2d_40">
    <path d="M 81.775977 298.944 
L 81.775977 298.417314 
L 85.66744 298.417314 
L 85.66744 297.890628 
L 102.330873 297.890628 
L 102.330873 297.363942 
L 104.826449 297.363942 
L 104.826449 295.783884 
L 112.026172 295.783884 
L 112.026172 295.257197 
L 112.280765 295.257197 
L 112.280765 294.730511 
L 113.26352 294.730511 
L 113.26352 294.203825 
L 114.193835 294.203825 
L 114.193835 293.150453 
L 119.602714 293.150453 
L 119.602714 292.623767 
L 120.41399 292.623767 
L 120.41399 292.097081 
L 121.785469 292.097081 
L 121.785469 291.570395 
L 122.219665 291.570395 
L 122.219665 290.517023 
L 123.056911 290.517023 
L 123.056911 289.990337 
L 124.368753 289.990337 
L 124.368753 289.463651 
L 124.619683 289.463651 
L 124.619683 288.936964 
L 126.3947 288.936964 
L 126.3947 287.883592 
L 126.839037 287.883592 
L 126.839037 287.356906 
L 131.355321 287.356906 
L 131.355321 286.83022 
L 133.04822 286.83022 
L 133.04822 286.303534 
L 133.352844 286.303534 
L 133.352844 285.776848 
L 133.800029 285.776848 
L 133.800029 285.250162 
L 135.144899 285.250162 
L 135.144899 284.723476 
L 137.077422 284.723476 
L 137.077422 284.19679 
L 137.558536 284.19679 
L 137.558536 282.090045 
L 137.735587 282.090045 
L 137.735587 281.563359 
L 137.852629 281.563359 
L 137.852629 280.509987 
L 138.761723 280.509987 
L 138.761723 278.929929 
L 138.981779 278.929929 
L 138.981779 278.403243 
L 139.360321 278.403243 
L 139.360321 277.349871 
L 139.572998 277.349871 
L 139.572998 276.296499 
L 139.990725 276.296499 
L 139.990725 275.243126 
L 140.246813 275.243126 
L 140.246813 274.71644 
L 141.33096 274.71644 
L 141.426256 273.663068 
L 142.884173 273.663068 
L 142.884173 272.609696 
L 145.251067 272.609696 
L 145.251067 271.556324 
L 145.403044 271.556324 
L 145.403044 271.029638 
L 146.538004 271.029638 
L 146.538004 269.976266 
L 148.258051 269.976266 
L 148.258051 268.922893 
L 148.607802 268.922893 
L 148.607802 268.396207 
L 151.60806 268.396207 
L 151.60806 267.869521 
L 152.027042 267.869521 
L 152.027042 266.816149 
L 152.436193 266.816149 
L 152.436193 265.762777 
L 153.843742 265.762777 
L 153.843742 264.709405 
L 155.210911 264.709405 
L 155.210911 264.182719 
L 155.46769 264.182719 
L 155.46769 263.656033 
L 155.594676 263.656033 
L 155.594676 263.129347 
L 155.825108 263.129347 
L 155.845906 261.549288 
L 156.933697 261.549288 
L 156.933697 260.495916 
L 158.429943 260.495916 
L 158.429943 259.96923 
L 159.956318 259.96923 
L 159.98913 258.915858 
L 160.184713 258.915858 
L 160.184713 258.389172 
L 161.007772 258.389172 
L 161.007772 257.862486 
L 161.131018 257.862486 
L 161.131018 257.3358 
L 161.525657 257.3358 
L 161.525657 256.809114 
L 163.19871 256.809114 
L 163.19871 255.229055 
L 164.76265 255.229055 
L 164.76265 254.702369 
L 165.435121 254.702369 
L 165.435121 254.175683 
L 166.471192 254.175683 
L 166.471192 253.648997 
L 166.96153 253.648997 
L 166.96153 253.122311 
L 168.171308 253.122311 
L 168.171308 252.595625 
L 168.78575 252.595625 
L 168.78575 252.068939 
L 168.972794 252.068939 
L 168.972794 251.542253 
L 169.579021 251.542253 
L 169.579021 251.015567 
L 169.748427 251.015567 
L 169.748427 250.488881 
L 170.319654 250.488881 
L 170.319654 249.435508 
L 170.687376 249.435508 
L 170.687376 248.908822 
L 171.073566 248.908822 
L 171.142873 247.85545 
L 171.879317 247.85545 
L 171.879317 247.328764 
L 172.466115 247.328764 
L 172.466115 246.802078 
L 172.681171 246.802078 
L 172.681171 245.748706 
L 172.877961 245.748706 
L 172.877961 245.22202 
L 173.219006 245.22202 
L 173.272654 244.168648 
L 173.807666 244.168648 
L 173.807666 243.115275 
L 174.73962 243.115275 
L 174.73962 242.588589 
L 175.510238 242.588589 
L 175.510238 242.061903 
L 175.922628 242.061903 
L 175.9292 240.481845 
L 176.363988 240.481845 
L 176.376802 239.428473 
L 177.011942 239.428473 
L 177.011942 238.901787 
L 177.773182 238.901787 
L 177.773182 238.375101 
L 177.978871 238.375101 
L 177.978871 237.848415 
L 178.394524 237.848415 
L 178.434411 236.795043 
L 178.609966 236.795043 
L 178.609966 236.268356 
L 179.975052 236.268356 
L 180.001085 234.688298 
L 180.161626 234.688298 
L 180.202817 233.10824 
L 180.295143 233.10824 
L 180.295143 232.581554 
L 180.437796 232.581554 
L 180.437796 232.054868 
L 180.609464 232.054868 
L 180.609464 230.47481 
L 180.868789 230.47481 
L 180.868789 229.948123 
L 181.197333 229.948123 
L 181.207046 226.788007 
L 181.911182 226.788007 
L 181.967047 224.681263 
L 182.105933 224.681263 
L 182.105933 221.521146 
L 182.316765 221.521146 
L 182.316765 220.99446 
L 182.659607 220.99446 
L 182.677466 219.414402 
L 183.013357 219.414402 
L 183.013357 218.887716 
L 183.217888 218.887716 
L 183.217888 218.36103 
L 183.863389 218.36103 
L 183.863389 217.307658 
L 184.1733 217.307658 
L 184.250944 214.674227 
L 184.36069 214.674227 
L 184.393075 213.094169 
L 184.501932 213.094169 
L 184.501932 212.567483 
L 184.721598 212.567483 
L 184.721598 211.514111 
L 184.95812 211.514111 
L 184.969862 209.407366 
L 185.237776 209.407366 
L 185.337671 208.353994 
L 185.596261 208.353994 
L 185.596261 207.827308 
L 186.219158 207.827308 
L 186.219158 207.300622 
L 186.429142 207.300622 
L 186.429142 206.773936 
L 194.552189 206.773936 
L 194.552189 206.24725 
L 195.377114 206.24725 
L 195.377114 205.720564 
L 196.168892 205.720564 
L 196.168892 205.193878 
L 196.412173 205.193878 
L 196.416233 204.140506 
L 196.797676 204.140506 
L 196.797676 203.613819 
L 197.205906 203.613819 
L 197.205906 202.560447 
L 197.725722 202.560447 
L 197.819613 200.980389 
L 197.870105 200.980389 
L 197.972508 199.927017 
L 198.263384 199.927017 
L 198.263384 199.400331 
L 198.567439 199.400331 
L 198.644418 198.346959 
L 204.617578 198.346959 
L 204.656849 196.7669 
L 204.918079 196.7669 
L 204.918079 196.240214 
L 205.272219 196.240214 
L 205.272219 195.713528 
L 205.604936 195.713528 
L 205.604936 195.186842 
L 210.246995 195.186842 
L 210.246995 194.660156 
L 211.015892 194.660156 
L 211.015892 194.13347 
L 214.555501 194.13347 
L 214.555501 193.606784 
L 214.708334 193.606784 
L 214.708334 193.080098 
L 214.845735 193.080098 
L 214.934399 192.026726 
L 217.382181 192.026726 
L 217.382181 191.50004 
L 218.083397 191.50004 
L 218.083397 190.973354 
L 223.116179 190.973354 
L 223.116179 190.446667 
L 225.183884 190.446667 
L 225.183884 189.919981 
L 227.032211 189.919981 
L 227.07635 188.866609 
L 235.293068 188.866609 
L 235.293068 188.339923 
L 338.688 188.339923 
L 338.688 188.339923 
" style="fill:none;stroke:#ff7500;stroke-linecap:square;stroke-width:1.5;"/>
   </g>
   <g id="line2d_41">
    <defs>
     <path d="M 0 -6 
L -1.347084 -1.854102 
L -5.706339 -1.854102 
L -2.179628 0.708204 
L -3.526712 4.854102 
L -0 2.291796 
L 3.526712 4.854102 
L 2.179628 0.708204 
L 5.706339 -1.854102 
L 1.347084 -1.854102 
z
" id="m614b9889ed" style="stroke:#ff7500;stroke-linejoin:bevel;stroke-width:1.5;"/>
    </defs>
    <g>
     <use style="fill-opacity:0;stroke:#ff7500;stroke-linejoin:bevel;stroke-width:1.5;" x="179.980262" xlink:href="#m614b9889ed" y="235.74167"/>
     <use style="fill-opacity:0;stroke:#ff7500;stroke-linejoin:bevel;stroke-width:1.5;" x="235.293068" xlink:href="#m614b9889ed" y="188.866609"/>
     <use style="fill-opacity:0;stroke:#ff7500;stroke-linejoin:bevel;stroke-width:1.5;" x="235.293068" xlink:href="#m614b9889ed" y="188.339923"/>
     <use style="fill-opacity:0;stroke:#ff7500;stroke-linejoin:bevel;stroke-width:1.5;" x="235.293068" xlink:href="#m614b9889ed" y="188.339923"/>
     <use style="fill-opacity:0;stroke:#ff7500;stroke-linejoin:bevel;stroke-width:1.5;" x="338.688" xlink:href="#m614b9889ed" y="188.339923"/>
    </g>
   </g>
   <g id="line2d_42">
    <path style="fill:none;stroke:#ff7500;stroke-linecap:square;stroke-width:1.5;"/>
    <g/>
   </g>
   <g id="line2d_43">
    <path clip-path="url(#p328dbb05fd)" d="M 186.974717 206.773936 
" style="fill:none;stroke:#ff7500;stroke-linecap:square;stroke-width:1.5;"/>
    <defs>
     <path d="M -12 12 
L 12 -12 
M -12 -12 
L 12 12 
" id="mcff221ae54" style="stroke:#ff7500;"/>
    </defs>
    <g clip-path="url(#p328dbb05fd)">
     <use style="fill:#ff7500;stroke:#ff7500;" x="186.974717" xlink:href="#mcff221ae54" y="206.773936"/>
    </g>
   </g>
   <g id="line2d_44">
    <defs>
     <path d="M 0 1.5 
C 0.397805 1.5 0.77937 1.341951 1.06066 1.06066 
C 1.341951 0.77937 1.5 0.397805 1.5 0 
C 1.5 -0.397805 1.341951 -0.77937 1.06066 -1.06066 
C 0.77937 -1.341951 0.397805 -1.5 0 -1.5 
C -0.397805 -1.5 -0.77937 -1.341951 -1.06066 -1.06066 
C -1.341951 -0.77937 -1.5 -0.397805 -1.5 0 
C -1.5 0.397805 -1.341951 0.77937 -1.06066 1.06066 
C -0.77937 1.341951 -0.397805 1.5 0 1.5 
z
" id="m345e433080" style="stroke:#6495ed;"/>
    </defs>
    <g>
     <use style="fill:#6495ed;stroke:#6495ed;" x="262.031171" xlink:href="#m345e433080" y="40.867821"/>
     <use style="fill:#6495ed;stroke:#6495ed;" x="262.031171" xlink:href="#m345e433080" y="40.867821"/>
    </g>
   </g>
   <g id="line2d_45">
    <path d="M 76.759008 298.944 
L 76.759008 298.417314 
L 81.775977 298.417314 
L 81.775977 297.890628 
L 84.464254 297.890628 
L 84.464254 297.363942 
L 85.66744 297.363942 
L 85.66744 296.837256 
L 102.330873 296.837256 
L 102.330873 296.31057 
L 104.826449 296.31057 
L 104.826449 294.203825 
L 107.347841 294.203825 
L 107.347841 293.150453 
L 107.680028 293.150453 
L 107.680028 292.623767 
L 113.26352 292.623767 
L 113.26352 292.097081 
L 116.522527 292.097081 
L 116.522527 291.570395 
L 116.914437 291.570395 
L 116.914437 288.936964 
L 118.399528 288.936964 
L 118.399528 288.410278 
L 120.41399 288.410278 
L 120.41399 287.883592 
L 122.219665 287.883592 
L 122.219665 287.356906 
L 123.327293 287.356906 
L 123.327293 286.83022 
L 124.114161 286.83022 
L 124.114161 286.303534 
L 124.619683 286.303534 
L 124.619683 285.250162 
L 124.867052 285.250162 
L 124.867052 284.723476 
L 126.053856 284.723476 
L 126.053856 284.19679 
L 126.281824 284.19679 
L 126.281824 283.143418 
L 127.590383 283.143418 
L 127.695124 281.563359 
L 128.107907 281.563359 
L 128.107907 280.509987 
L 129.574256 280.509987 
L 129.574256 279.983301 
L 130.036864 279.983301 
L 130.036864 278.929929 
L 130.576266 278.929929 
L 130.576266 278.403243 
L 132.101058 278.403243 
L 132.101058 277.876557 
L 132.816208 277.876557 
L 132.816208 277.349871 
L 134.091907 277.349871 
L 134.091907 276.823185 
L 134.7313 276.823185 
L 134.7313 275.769812 
L 138.369812 275.769812 
L 138.369812 275.243126 
L 139.572998 275.243126 
L 139.572998 274.71644 
L 140.549236 274.71644 
L 140.549236 274.189754 
L 140.993259 274.189754 
L 140.993259 273.663068 
L 141.138789 273.663068 
L 141.138789 272.609696 
L 142.215919 272.609696 
L 142.215919 272.08301 
L 142.619936 272.08301 
L 142.619936 271.029638 
L 143.31586 271.029638 
L 143.31586 270.502952 
L 143.44331 270.502952 
L 143.44331 269.976266 
L 144.026061 269.976266 
L 144.026061 269.449579 
L 144.189046 269.449579 
L 144.189046 268.922893 
L 145.365173 268.922893 
L 145.365173 268.396207 
L 146.107383 268.396207 
L 146.107383 267.869521 
L 146.502522 267.869521 
L 146.502522 267.342835 
L 147.86833 267.342835 
L 147.86833 266.816149 
L 148.576295 266.816149 
L 148.576295 266.289463 
L 148.701984 266.289463 
L 148.701984 265.762777 
L 149.165411 265.762777 
L 149.165411 264.709405 
L 149.616841 264.709405 
L 149.616841 264.182719 
L 150.287105 264.182719 
L 150.287105 263.656033 
L 150.457801 263.656033 
L 150.457801 263.129347 
L 151.949246 263.129347 
L 151.949246 262.60266 
L 152.461449 262.60266 
L 152.461449 262.075974 
L 152.811246 262.075974 
L 152.811246 261.549288 
L 153.056874 261.549288 
L 153.056874 261.022602 
L 154.144227 261.022602 
L 154.144227 260.495916 
L 154.551917 260.495916 
L 154.551917 259.96923 
L 154.950294 259.96923 
L 154.950294 259.442544 
L 155.55245 259.442544 
L 155.55245 258.915858 
L 156.277034 258.915858 
L 156.277034 258.389172 
L 157.660438 258.389172 
L 157.660438 257.862486 
L 159.218393 257.862486 
L 159.286782 256.809114 
L 159.874019 256.809114 
L 159.874019 256.282427 
L 160.087195 256.282427 
L 160.087195 255.755741 
L 160.346039 255.755741 
L 160.346039 255.229055 
L 162.79874 255.229055 
L 162.79874 254.702369 
L 162.979172 254.702369 
L 162.979172 254.175683 
L 163.280329 254.175683 
L 163.280329 253.122311 
L 164.205356 253.122311 
L 164.205356 252.068939 
L 164.923954 252.068939 
L 164.923954 251.542253 
L 165.896723 251.542253 
L 165.896723 250.488881 
L 166.013141 250.488881 
L 166.013141 249.962195 
L 166.96153 249.962195 
L 166.96153 249.435508 
L 167.808732 249.435508 
L 167.808732 248.908822 
L 168.314254 248.908822 
L 168.385289 247.85545 
L 168.70639 247.85545 
L 168.70639 247.328764 
L 168.835167 247.328764 
L 168.835167 246.802078 
L 169.060699 246.802078 
L 169.099626 245.748706 
L 169.493697 245.748706 
L 169.493697 245.22202 
L 169.823193 245.22202 
L 169.823193 244.695334 
L 170.58055 244.695334 
L 170.58055 244.168648 
L 170.758232 244.168648 
L 170.863978 242.061903 
L 171.18605 242.061903 
L 171.272086 241.008531 
L 171.771231 241.008531 
L 171.771231 240.481845 
L 171.928978 240.481845 
L 171.928978 239.428473 
L 172.101686 239.428473 
L 172.183331 238.375101 
L 172.728604 238.375101 
L 172.728604 237.848415 
L 172.862299 237.848415 
L 172.917053 236.268356 
L 173.026049 236.268356 
L 173.072554 234.688298 
L 173.349008 234.688298 
L 173.349008 234.161612 
L 173.628647 234.161612 
L 173.658612 233.10824 
L 173.955458 233.10824 
L 173.962814 231.528182 
L 174.123884 231.528182 
L 174.123884 231.001496 
L 174.297915 231.001496 
L 174.348349 229.421437 
L 174.505913 229.421437 
L 174.505913 228.894751 
L 174.977178 228.894751 
L 175.060255 227.841379 
L 175.347948 227.841379 
L 175.415753 226.788007 
L 175.503506 226.788007 
L 175.503506 225.734635 
L 175.657689 225.734635 
L 175.704345 224.681263 
L 175.869961 224.681263 
L 175.948902 223.101204 
L 176.170646 223.101204 
L 176.241787 221.521146 
L 176.363988 221.521146 
L 176.363988 220.99446 
L 176.624803 220.99446 
L 176.700407 217.834344 
L 176.800705 217.834344 
L 176.90043 214.674227 
L 176.97485 214.674227 
L 177.048955 213.620855 
L 177.214548 213.620855 
L 177.299796 212.040797 
L 177.336204 212.040797 
L 177.396715 210.460738 
L 177.463036 210.460738 
L 177.463036 209.934052 
L 177.666447 209.934052 
L 177.666447 208.88068 
L 177.814514 208.88068 
L 177.908622 207.300622 
L 178.031372 207.300622 
L 178.141693 205.720564 
L 178.216775 205.720564 
L 178.216775 205.193878 
L 178.394524 205.193878 
L 178.400227 203.087133 
L 178.56483 203.087133 
L 178.654985 200.453703 
L 178.694282 200.453703 
L 178.694282 198.346959 
L 178.922687 198.346959 
L 178.922687 197.820273 
L 179.082454 197.820273 
L 179.082454 197.293586 
L 179.435323 197.293586 
L 179.435323 196.7669 
L 179.547817 196.7669 
L 179.547817 196.240214 
L 179.712566 196.240214 
L 179.712566 195.186842 
L 179.839052 195.186842 
L 179.948981 194.13347 
L 180.068589 194.13347 
L 180.068589 193.606784 
L 180.463148 193.606784 
L 180.498578 192.026726 
L 180.709661 192.026726 
L 180.709661 191.50004 
L 180.91822 191.50004 
L 180.91822 190.973354 
L 181.168162 190.973354 
L 181.168162 190.446667 
L 181.294218 190.446667 
L 181.308704 189.393295 
L 181.457697 189.393295 
L 181.534102 187.813237 
L 181.633877 187.813237 
L 181.714232 186.233179 
L 181.822361 186.233179 
L 181.845779 185.179807 
L 181.939137 185.179807 
L 182.031998 184.126434 
L 182.202498 184.126434 
L 182.26201 181.493004 
L 182.330427 181.493004 
L 182.398576 179.912946 
L 182.561055 179.912946 
L 182.561055 179.38626 
L 182.766488 179.38626 
L 182.766488 178.859574 
L 182.934387 178.859574 
L 183.03523 175.699457 
L 183.213561 175.699457 
L 183.308504 171.485969 
L 183.390086 171.485969 
L 183.449956 170.432596 
L 183.513876 170.432596 
L 183.581799 168.852538 
L 183.721061 168.852538 
L 183.721061 168.325852 
L 183.888385 168.325852 
L 183.996292 165.165736 
L 184.193766 165.165736 
L 184.287603 163.585677 
L 184.449604 163.585677 
L 184.518001 162.005619 
L 184.677886 162.005619 
L 184.677886 161.478933 
L 184.792892 161.478933 
L 184.804746 160.425561 
L 185.086853 160.425561 
L 185.110157 158.845503 
L 185.222357 158.845503 
L 185.318505 156.738758 
L 185.414125 156.738758 
L 185.414125 156.212072 
L 185.577377 156.212072 
L 185.679108 153.578642 
L 185.988171 153.578642 
L 186.025041 151.471897 
L 186.135184 151.471897 
L 186.179047 148.311781 
L 186.266444 148.311781 
L 186.324466 147.258409 
L 186.429142 147.258409 
L 186.429142 146.731723 
L 186.579636 146.731723 
L 186.579636 145.678351 
L 186.725304 145.678351 
L 186.820572 144.098292 
L 186.894312 144.098292 
L 186.894312 143.571606 
L 191.434411 143.571606 
L 191.434411 142.518234 
L 192.135834 142.518234 
L 192.135834 141.991548 
L 193.114466 141.991548 
L 193.114466 141.464862 
L 193.396693 141.464862 
L 193.396693 140.938176 
L 193.636379 140.938176 
L 193.636379 140.41149 
L 193.764452 140.41149 
L 193.868118 139.358118 
L 194.306529 139.358118 
L 194.306529 138.831432 
L 194.484297 138.831432 
L 194.484297 138.304745 
L 194.662515 138.304745 
L 194.743128 136.724687 
L 194.923157 136.724687 
L 194.923157 136.198001 
L 195.077254 136.198001 
L 195.158158 133.037885 
L 195.295057 133.037885 
L 195.359871 131.457826 
L 195.409399 131.457826 
L 195.497341 130.404454 
L 195.697306 130.404454 
L 195.806947 128.824396 
L 195.85732 128.824396 
L 195.85732 128.29771 
L 196.109087 128.29771 
L 196.210018 125.66428 
L 196.296067 125.66428 
L 196.375591 124.610907 
L 196.765874 124.610907 
L 196.859127 123.030849 
L 197.079358 123.030849 
L 197.172898 120.924105 
L 197.283328 120.924105 
L 197.283328 120.397419 
L 197.417995 120.397419 
L 197.511647 118.817361 
L 197.701227 118.817361 
L 197.701227 118.290674 
L 197.877573 118.290674 
L 197.877573 117.237302 
L 197.992917 117.237302 
L 198.041061 115.130558 
L 198.223172 115.130558 
L 198.299861 113.023814 
L 198.378027 113.023814 
L 198.378027 112.497128 
L 198.576408 112.497128 
L 198.669408 108.810325 
L 198.783193 108.810325 
L 198.866284 107.756953 
L 198.912079 107.756953 
L 198.938445 106.703581 
L 200.096962 106.703581 
L 200.096962 106.176895 
L 200.814981 106.176895 
L 200.814981 105.650209 
L 202.293053 105.650209 
L 202.293053 105.123522 
L 202.715367 105.123522 
L 202.715367 104.596836 
L 202.847814 104.596836 
L 202.847814 104.07015 
L 203.079282 104.07015 
L 203.079282 103.543464 
L 203.445255 103.543464 
L 203.472362 102.490092 
L 203.714447 102.490092 
L 203.762464 100.910034 
L 204.032087 100.910034 
L 204.032087 100.383348 
L 204.338891 100.383348 
L 204.44168 98.803289 
L 204.718742 98.803289 
L 204.718742 97.749917 
L 204.888136 97.749917 
L 204.986505 94.589801 
L 205.018758 94.589801 
L 205.018758 94.063115 
L 205.196322 94.063115 
L 205.278326 93.009743 
L 205.33197 93.009743 
L 205.436346 91.429684 
L 205.459322 91.429684 
L 205.532883 90.376312 
L 205.572549 90.376312 
L 205.680273 88.796254 
L 205.712461 88.796254 
L 205.712461 87.742882 
L 205.858348 87.742882 
L 205.900816 85.636137 
L 206.003024 85.636137 
L 206.106965 84.582765 
L 209.089011 84.582765 
L 209.089011 84.056079 
L 209.964628 84.056079 
L 209.964628 83.529393 
L 210.100364 83.529393 
L 210.100364 83.002707 
L 210.224941 83.002707 
L 210.303839 80.895963 
L 210.362324 80.895963 
L 210.452407 79.315904 
L 210.735979 79.315904 
L 210.811715 77.735846 
L 210.90924 77.735846 
L 210.955154 76.155788 
L 211.075544 76.155788 
L 211.112286 74.049044 
L 213.243457 74.049044 
L 213.243457 73.522358 
L 213.665965 73.522358 
L 213.665965 72.995672 
L 213.829751 72.995672 
L 213.829751 72.468985 
L 214.046751 72.468985 
L 214.046751 71.942299 
L 214.159384 71.942299 
L 214.159384 71.415613 
L 214.322256 71.415613 
L 214.322256 70.888927 
L 214.56554 70.888927 
L 214.56554 70.362241 
L 214.684853 70.362241 
L 214.722549 69.308869 
L 214.856314 69.308869 
L 214.885901 68.255497 
L 215.026106 68.255497 
L 215.026106 67.728811 
L 217.477079 67.728811 
L 217.477079 67.202125 
L 217.648527 67.202125 
L 217.648527 66.675439 
L 217.789727 66.675439 
L 217.789727 66.148752 
L 217.973481 66.148752 
L 218.061117 64.042008 
L 218.088084 64.042008 
L 218.196118 61.935264 
L 220.248876 61.935264 
L 220.308289 60.881892 
L 220.507263 60.881892 
L 220.507263 60.355206 
L 220.717096 60.355206 
L 220.81857 57.195089 
L 220.833089 57.195089 
L 220.898527 55.615031 
L 223.070017 55.615031 
L 223.135925 54.034973 
L 223.189784 54.034973 
L 223.208574 52.9816 
L 225.206098 52.9816 
L 225.206098 51.928228 
L 227.060599 51.928228 
L 227.091038 50.874856 
L 228.743388 50.874856 
L 228.743388 50.34817 
L 230.241265 50.34817 
L 230.289054 47.71474 
L 231.642426 47.71474 
L 231.642426 46.661368 
L 232.970055 46.661368 
L 232.980282 45.607995 
L 234.16532 45.607995 
L 234.184649 44.554623 
L 236.369348 44.554623 
L 236.369348 44.027937 
L 237.335127 44.027937 
L 237.359007 42.447879 
L 243.784051 42.447879 
L 243.784051 41.921193 
L 247.406919 41.921193 
L 247.406919 41.394507 
L 262.031171 41.394507 
L 262.031171 40.867821 
L 338.688 40.867821 
L 338.688 40.867821 
" style="fill:none;stroke:#6495ed;stroke-linecap:square;stroke-width:1.5;"/>
   </g>
   <g id="line2d_46">
    <defs>
     <path d="M -0 6 
L 6 -6 
L -6 -6 
z
" id="ma4d17ae3bd" style="stroke:#6495ed;stroke-linejoin:miter;stroke-width:1.5;"/>
    </defs>
    <g>
     <use style="fill-opacity:0;stroke:#6495ed;stroke-linejoin:miter;stroke-width:1.5;" x="134.091907" xlink:href="#ma4d17ae3bd" y="277.349871"/>
     <use style="fill-opacity:0;stroke:#6495ed;stroke-linejoin:miter;stroke-width:1.5;" x="183.513876" xlink:href="#ma4d17ae3bd" y="170.432596"/>
     <use style="fill-opacity:0;stroke:#6495ed;stroke-linejoin:miter;stroke-width:1.5;" x="234.184649" xlink:href="#ma4d17ae3bd" y="45.081309"/>
     <use style="fill-opacity:0;stroke:#6495ed;stroke-linejoin:miter;stroke-width:1.5;" x="262.031171" xlink:href="#ma4d17ae3bd" y="40.867821"/>
     <use style="fill-opacity:0;stroke:#6495ed;stroke-linejoin:miter;stroke-width:1.5;" x="338.688" xlink:href="#ma4d17ae3bd" y="40.867821"/>
    </g>
   </g>
   <g id="line2d_47">
    <path style="fill:none;stroke:#6495ed;stroke-linecap:square;stroke-width:1.5;"/>
    <g/>
   </g>
   <g id="line2d_48">
    <path clip-path="url(#p328dbb05fd)" d="M 186.974717 143.571606 
" style="fill:none;stroke:#6495ed;stroke-linecap:square;stroke-width:1.5;"/>
    <defs>
     <path d="M -12 12 
L 12 -12 
M -12 -12 
L 12 12 
" id="m3933a79872" style="stroke:#6495ed;"/>
    </defs>
    <g clip-path="url(#p328dbb05fd)">
     <use style="fill:#6495ed;stroke:#6495ed;" x="186.974717" xlink:href="#m3933a79872" y="143.571606"/>
    </g>
   </g>
   <g id="line2d_49">
    <path d="M 338.688 188.339923 
L 369.60768 293.571802 
" style="fill:none;stroke:#ff7500;stroke-linecap:square;stroke-width:1.5;"/>
    <g>
     <use style="fill-opacity:0;stroke:#ff7500;stroke-linejoin:bevel;stroke-width:1.5;" x="338.688" xlink:href="#m614b9889ed" y="188.339923"/>
     <use style="fill-opacity:0;stroke:#ff7500;stroke-linejoin:bevel;stroke-width:1.5;" x="369.60768" xlink:href="#m614b9889ed" y="293.571802"/>
    </g>
   </g>
   <g id="line2d_50">
    <path d="M 338.688 114.603872 
L 369.60768 207.616634 
" style="fill:none;stroke:#ff00ff;stroke-linecap:square;stroke-width:1.5;"/>
    <g>
     <use style="fill-opacity:0;stroke:#ff00ff;stroke-linejoin:miter;stroke-width:1.5;" x="338.688" xlink:href="#m559e11e61c" y="114.603872"/>
     <use style="fill-opacity:0;stroke:#ff00ff;stroke-linejoin:miter;stroke-width:1.5;" x="369.60768" xlink:href="#m559e11e61c" y="207.616634"/>
    </g>
   </g>
   <g id="line2d_51">
    <path d="M 338.688 40.867821 
L 369.60768 121.661465 
" style="fill:none;stroke:#6495ed;stroke-linecap:square;stroke-width:1.5;"/>
    <g>
     <use style="fill-opacity:0;stroke:#6495ed;stroke-linejoin:miter;stroke-width:1.5;" x="338.688" xlink:href="#ma4d17ae3bd" y="40.867821"/>
     <use style="fill-opacity:0;stroke:#6495ed;stroke-linejoin:miter;stroke-width:1.5;" x="369.60768" xlink:href="#ma4d17ae3bd" y="121.661465"/>
    </g>
   </g>
   <g id="line2d_52">
    <path d="M 338.688 298.944 
L 338.688 30.334099 
" style="fill:none;stroke:#000000;stroke-linecap:square;stroke-width:1.5;"/>
   </g>
   <g id="patch_3">
    <path d="M 57.6 298.944 
L 57.6 27.648 
" style="fill:none;stroke:#000000;stroke-linecap:square;stroke-linejoin:miter;stroke-width:0.8;"/>
   </g>
   <g id="patch_4">
    <path d="M 338.688 298.944 
L 338.688 27.648 
" style="fill:none;stroke:#000000;stroke-linecap:square;stroke-linejoin:miter;stroke-width:0.8;"/>
   </g>
   <g id="patch_5">
    <path d="M 57.6 298.944 
L 338.688 298.944 
" style="fill:none;stroke:#000000;stroke-linecap:square;stroke-linejoin:miter;stroke-width:0.8;"/>
   </g>
   <g id="patch_6">
    <path d="M 57.6 27.648 
L 338.688 27.648 
" style="fill:none;stroke:#000000;stroke-linecap:square;stroke-linejoin:miter;stroke-width:0.8;"/>
   </g>
   <g id="text_13">
    <!-- DEPSO -->
    <defs>
     <path d="M 19.671875 64.796875 
L 19.671875 8.109375 
L 31.59375 8.109375 
Q 46.6875 8.109375 53.6875 14.9375 
Q 60.6875 21.78125 60.6875 36.53125 
Q 60.6875 51.171875 53.6875 57.984375 
Q 46.6875 64.796875 31.59375 64.796875 
z
M 9.8125 72.90625 
L 30.078125 72.90625 
Q 51.265625 72.90625 61.171875 64.09375 
Q 71.09375 55.28125 71.09375 36.53125 
Q 71.09375 17.671875 61.125 8.828125 
Q 51.171875 0 30.078125 0 
L 9.8125 0 
z
" id="DejaVuSans-68"/>
     <path d="M 9.8125 72.90625 
L 55.90625 72.90625 
L 55.90625 64.59375 
L 19.671875 64.59375 
L 19.671875 43.015625 
L 54.390625 43.015625 
L 54.390625 34.71875 
L 19.671875 34.71875 
L 19.671875 8.296875 
L 56.78125 8.296875 
L 56.78125 0 
L 9.8125 0 
z
" id="DejaVuSans-69"/>
     <path d="M 19.671875 64.796875 
L 19.671875 37.40625 
L 32.078125 37.40625 
Q 38.96875 37.40625 42.71875 40.96875 
Q 46.484375 44.53125 46.484375 51.125 
Q 46.484375 57.671875 42.71875 61.234375 
Q 38.96875 64.796875 32.078125 64.796875 
z
M 9.8125 72.90625 
L 32.078125 72.90625 
Q 44.34375 72.90625 50.609375 67.359375 
Q 56.890625 61.8125 56.890625 51.125 
Q 56.890625 40.328125 50.609375 34.8125 
Q 44.34375 29.296875 32.078125 29.296875 
L 19.671875 29.296875 
L 19.671875 0 
L 9.8125 0 
z
" id="DejaVuSans-80"/>
     <path d="M 53.515625 70.515625 
L 53.515625 60.890625 
Q 47.90625 63.578125 42.921875 64.890625 
Q 37.9375 66.21875 33.296875 66.21875 
Q 25.25 66.21875 20.875 63.09375 
Q 16.5 59.96875 16.5 54.203125 
Q 16.5 49.359375 19.40625 46.890625 
Q 22.3125 44.4375 30.421875 42.921875 
L 36.375 41.703125 
Q 47.40625 39.59375 52.65625 34.296875 
Q 57.90625 29 57.90625 20.125 
Q 57.90625 9.515625 50.796875 4.046875 
Q 43.703125 -1.421875 29.984375 -1.421875 
Q 24.8125 -1.421875 18.96875 -0.25 
Q 13.140625 0.921875 6.890625 3.21875 
L 6.890625 13.375 
Q 12.890625 10.015625 18.65625 8.296875 
Q 24.421875 6.59375 29.984375 6.59375 
Q 38.421875 6.59375 43.015625 9.90625 
Q 47.609375 13.234375 47.609375 19.390625 
Q 47.609375 24.75 44.3125 27.78125 
Q 41.015625 30.8125 33.5 32.328125 
L 27.484375 33.5 
Q 16.453125 35.6875 11.515625 40.375 
Q 6.59375 45.0625 6.59375 53.421875 
Q 6.59375 63.09375 13.40625 68.65625 
Q 20.21875 74.21875 32.171875 74.21875 
Q 37.3125 74.21875 42.625 73.28125 
Q 47.953125 72.359375 53.515625 70.515625 
z
" id="DejaVuSans-83"/>
     <path d="M 39.40625 66.21875 
Q 28.65625 66.21875 22.328125 58.203125 
Q 16.015625 50.203125 16.015625 36.375 
Q 16.015625 22.609375 22.328125 14.59375 
Q 28.65625 6.59375 39.40625 6.59375 
Q 50.140625 6.59375 56.421875 14.59375 
Q 62.703125 22.609375 62.703125 36.375 
Q 62.703125 50.203125 56.421875 58.203125 
Q 50.140625 66.21875 39.40625 66.21875 
z
M 39.40625 74.21875 
Q 54.734375 74.21875 63.90625 63.9375 
Q 73.09375 53.65625 73.09375 36.375 
Q 73.09375 19.140625 63.90625 8.859375 
Q 54.734375 -1.421875 39.40625 -1.421875 
Q 24.03125 -1.421875 14.8125 8.828125 
Q 5.609375 19.09375 5.609375 36.375 
Q 5.609375 53.65625 14.8125 63.9375 
Q 24.03125 74.21875 39.40625 74.21875 
z
" id="DejaVuSans-79"/>
    </defs>
    <g transform="translate(375.22944 298.262739)scale(0.17 -0.17)">
     <use xlink:href="#DejaVuSans-68"/>
     <use x="77.001953" xlink:href="#DejaVuSans-69"/>
     <use x="140.185547" xlink:href="#DejaVuSans-80"/>
     <use x="200.488281" xlink:href="#DejaVuSans-83"/>
     <use x="263.964844" xlink:href="#DejaVuSans-79"/>
    </g>
   </g>
   <g id="text_14">
    <!-- DE -->
    <g transform="translate(375.22944 212.307571)scale(0.17 -0.17)">
     <use xlink:href="#DejaVuSans-68"/>
     <use x="77.001953" xlink:href="#DejaVuSans-69"/>
    </g>
   </g>
   <g id="text_15">
    <!-- PSO -->
    <g transform="translate(375.22944 126.352403)scale(0.17 -0.17)">
     <use xlink:href="#DejaVuSans-80"/>
     <use x="60.302734" xlink:href="#DejaVuSans-83"/>
     <use x="123.779297" xlink:href="#DejaVuSans-79"/>
    </g>
   </g>
   <g id="text_16">
    <!-- best 2009 -->
    <defs>
     <path d="M 48.6875 27.296875 
Q 48.6875 37.203125 44.609375 42.84375 
Q 40.53125 48.484375 33.40625 48.484375 
Q 26.265625 48.484375 22.1875 42.84375 
Q 18.109375 37.203125 18.109375 27.296875 
Q 18.109375 17.390625 22.1875 11.75 
Q 26.265625 6.109375 33.40625 6.109375 
Q 40.53125 6.109375 44.609375 11.75 
Q 48.6875 17.390625 48.6875 27.296875 
z
M 18.109375 46.390625 
Q 20.953125 51.265625 25.265625 53.625 
Q 29.59375 56 35.59375 56 
Q 45.5625 56 51.78125 48.09375 
Q 58.015625 40.1875 58.015625 27.296875 
Q 58.015625 14.40625 51.78125 6.484375 
Q 45.5625 -1.421875 35.59375 -1.421875 
Q 29.59375 -1.421875 25.265625 0.953125 
Q 20.953125 3.328125 18.109375 8.203125 
L 18.109375 0 
L 9.078125 0 
L 9.078125 75.984375 
L 18.109375 75.984375 
z
" id="DejaVuSans-98"/>
     <path d="M 10.984375 1.515625 
L 10.984375 10.5 
Q 14.703125 8.734375 18.5 7.8125 
Q 22.3125 6.890625 25.984375 6.890625 
Q 35.75 6.890625 40.890625 13.453125 
Q 46.046875 20.015625 46.78125 33.40625 
Q 43.953125 29.203125 39.59375 26.953125 
Q 35.25 24.703125 29.984375 24.703125 
Q 19.046875 24.703125 12.671875 31.3125 
Q 6.296875 37.9375 6.296875 49.421875 
Q 6.296875 60.640625 12.9375 67.421875 
Q 19.578125 74.21875 30.609375 74.21875 
Q 43.265625 74.21875 49.921875 64.515625 
Q 56.59375 54.828125 56.59375 36.375 
Q 56.59375 19.140625 48.40625 8.859375 
Q 40.234375 -1.421875 26.421875 -1.421875 
Q 22.703125 -1.421875 18.890625 -0.6875 
Q 15.09375 0.046875 10.984375 1.515625 
z
M 30.609375 32.421875 
Q 37.25 32.421875 41.125 36.953125 
Q 45.015625 41.5 45.015625 49.421875 
Q 45.015625 57.28125 41.125 61.84375 
Q 37.25 66.40625 30.609375 66.40625 
Q 23.96875 66.40625 20.09375 61.84375 
Q 16.21875 57.28125 16.21875 49.421875 
Q 16.21875 41.5 20.09375 36.953125 
Q 23.96875 32.421875 30.609375 32.421875 
z
" id="DejaVuSans-57"/>
    </defs>
    <g transform="translate(375.22944 40.397235)scale(0.17 -0.17)">
     <use xlink:href="#DejaVuSans-98"/>
     <use x="63.476562" xlink:href="#DejaVuSans-101"/>
     <use x="125" xlink:href="#DejaVuSans-115"/>
     <use x="177.099609" xlink:href="#DejaVuSans-116"/>
     <use x="216.308594" xlink:href="#DejaVuSans-32"/>
     <use x="248.095703" xlink:href="#DejaVuSans-50"/>
     <use x="311.71875" xlink:href="#DejaVuSans-48"/>
     <use x="375.341797" xlink:href="#DejaVuSans-48"/>
     <use x="438.964844" xlink:href="#DejaVuSans-57"/>
    </g>
   </g>
   <g id="text_17">
    <!-- bbob f13, 3-D -->
    <defs>
     <path d="M 40.578125 39.3125 
Q 47.65625 37.796875 51.625 33 
Q 55.609375 28.21875 55.609375 21.1875 
Q 55.609375 10.40625 48.1875 4.484375 
Q 40.765625 -1.421875 27.09375 -1.421875 
Q 22.515625 -1.421875 17.65625 -0.515625 
Q 12.796875 0.390625 7.625 2.203125 
L 7.625 11.71875 
Q 11.71875 9.328125 16.59375 8.109375 
Q 21.484375 6.890625 26.8125 6.890625 
Q 36.078125 6.890625 40.9375 10.546875 
Q 45.796875 14.203125 45.796875 21.1875 
Q 45.796875 27.640625 41.28125 31.265625 
Q 36.765625 34.90625 28.71875 34.90625 
L 20.21875 34.90625 
L 20.21875 43.015625 
L 29.109375 43.015625 
Q 36.375 43.015625 40.234375 45.921875 
Q 44.09375 48.828125 44.09375 54.296875 
Q 44.09375 59.90625 40.109375 62.90625 
Q 36.140625 65.921875 28.71875 65.921875 
Q 24.65625 65.921875 20.015625 65.03125 
Q 15.375 64.15625 9.8125 62.3125 
L 9.8125 71.09375 
Q 15.4375 72.65625 20.34375 73.4375 
Q 25.25 74.21875 29.59375 74.21875 
Q 40.828125 74.21875 47.359375 69.109375 
Q 53.90625 64.015625 53.90625 55.328125 
Q 53.90625 49.265625 50.4375 45.09375 
Q 46.96875 40.921875 40.578125 39.3125 
z
" id="DejaVuSans-51"/>
    </defs>
    <g transform="translate(60.41088 38.111366)scale(0.102 -0.102)">
     <use xlink:href="#DejaVuSans-98"/>
     <use x="63.476562" xlink:href="#DejaVuSans-98"/>
     <use x="126.953125" xlink:href="#DejaVuSans-111"/>
     <use x="188.134766" xlink:href="#DejaVuSans-98"/>
     <use x="251.611328" xlink:href="#DejaVuSans-32"/>
     <use x="283.398438" xlink:href="#DejaVuSans-102"/>
     <use x="318.603516" xlink:href="#DejaVuSans-49"/>
     <use x="382.226562" xlink:href="#DejaVuSans-51"/>
     <use x="445.849609" xlink:href="#DejaVuSans-44"/>
     <use x="477.636719" xlink:href="#DejaVuSans-32"/>
     <use x="509.423828" xlink:href="#DejaVuSans-51"/>
     <use x="573.046875" xlink:href="#DejaVuSans-45"/>
     <use x="609.130859" xlink:href="#DejaVuSans-68"/>
    </g>
    <!-- 51 targets: 100..1e-08 -->
    <defs>
     <path d="M 10.796875 72.90625 
L 49.515625 72.90625 
L 49.515625 64.59375 
L 19.828125 64.59375 
L 19.828125 46.734375 
Q 21.96875 47.46875 24.109375 47.828125 
Q 26.265625 48.1875 28.421875 48.1875 
Q 40.625 48.1875 47.75 41.5 
Q 54.890625 34.8125 54.890625 23.390625 
Q 54.890625 11.625 47.5625 5.09375 
Q 40.234375 -1.421875 26.90625 -1.421875 
Q 22.3125 -1.421875 17.546875 -0.640625 
Q 12.796875 0.140625 7.71875 1.703125 
L 7.71875 11.625 
Q 12.109375 9.234375 16.796875 8.0625 
Q 21.484375 6.890625 26.703125 6.890625 
Q 35.15625 6.890625 40.078125 11.328125 
Q 45.015625 15.765625 45.015625 23.390625 
Q 45.015625 31 40.078125 35.4375 
Q 35.15625 39.890625 26.703125 39.890625 
Q 22.75 39.890625 18.8125 39.015625 
Q 14.890625 38.140625 10.796875 36.28125 
z
" id="DejaVuSans-53"/>
     <path d="M 11.71875 12.40625 
L 22.015625 12.40625 
L 22.015625 0 
L 11.71875 0 
z
M 11.71875 51.703125 
L 22.015625 51.703125 
L 22.015625 39.3125 
L 11.71875 39.3125 
z
" id="DejaVuSans-58"/>
    </defs>
    <g transform="translate(60.41088 49.533135)scale(0.102 -0.102)">
     <use xlink:href="#DejaVuSans-53"/>
     <use x="63.623047" xlink:href="#DejaVuSans-49"/>
     <use x="127.246094" xlink:href="#DejaVuSans-32"/>
     <use x="159.033203" xlink:href="#DejaVuSans-116"/>
     <use x="198.242188" xlink:href="#DejaVuSans-97"/>
     <use x="259.521484" xlink:href="#DejaVuSans-114"/>
     <use x="298.884766" xlink:href="#DejaVuSans-103"/>
     <use x="362.361328" xlink:href="#DejaVuSans-101"/>
     <use x="423.884766" xlink:href="#DejaVuSans-116"/>
     <use x="463.09375" xlink:href="#DejaVuSans-115"/>
     <use x="515.193359" xlink:href="#DejaVuSans-58"/>
     <use x="548.884766" xlink:href="#DejaVuSans-32"/>
     <use x="580.671875" xlink:href="#DejaVuSans-49"/>
     <use x="644.294922" xlink:href="#DejaVuSans-48"/>
     <use x="707.917969" xlink:href="#DejaVuSans-48"/>
     <use x="771.541016" xlink:href="#DejaVuSans-46"/>
     <use x="803.328125" xlink:href="#DejaVuSans-46"/>
     <use x="835.115234" xlink:href="#DejaVuSans-49"/>
     <use x="898.738281" xlink:href="#DejaVuSans-101"/>
     <use x="960.261719" xlink:href="#DejaVuSans-45"/>
     <use x="996.345703" xlink:href="#DejaVuSans-48"/>
     <use x="1059.96875" xlink:href="#DejaVuSans-56"/>
    </g>
    <!-- 15 instances -->
    <g transform="translate(60.41088 60.954904)scale(0.102 -0.102)">
     <use xlink:href="#DejaVuSans-49"/>
     <use x="63.623047" xlink:href="#DejaVuSans-53"/>
     <use x="127.246094" xlink:href="#DejaVuSans-32"/>
     <use x="159.033203" xlink:href="#DejaVuSans-105"/>
     <use x="186.816406" xlink:href="#DejaVuSans-110"/>
     <use x="250.195312" xlink:href="#DejaVuSans-115"/>
     <use x="302.294922" xlink:href="#DejaVuSans-116"/>
     <use x="341.503906" xlink:href="#DejaVuSans-97"/>
     <use x="402.783203" xlink:href="#DejaVuSans-110"/>
     <use x="466.162109" xlink:href="#DejaVuSans-99"/>
     <use x="521.142578" xlink:href="#DejaVuSans-101"/>
     <use x="582.666016" xlink:href="#DejaVuSans-115"/>
    </g>
   </g>
   <g id="text_18">
    <!-- v2.4 -->
    <g style="fill:#808080;" transform="translate(187.233062 294.151352)scale(0.1 -0.1)">
     <use xlink:href="#DejaVuSans-118"/>
     <use x="59.179688" xlink:href="#DejaVuSans-50"/>
     <use x="122.802734" xlink:href="#DejaVuSans-46"/>
     <use x="154.589844" xlink:href="#DejaVuSans-52"/>
    </g>
   </g>
   <g id="text_19">
    <!-- 13 Sharp ridge -->
    <defs>
     <path d="M 54.890625 33.015625 
L 54.890625 0 
L 45.90625 0 
L 45.90625 32.71875 
Q 45.90625 40.484375 42.875 44.328125 
Q 39.84375 48.1875 33.796875 48.1875 
Q 26.515625 48.1875 22.3125 43.546875 
Q 18.109375 38.921875 18.109375 30.90625 
L 18.109375 0 
L 9.078125 0 
L 9.078125 75.984375 
L 18.109375 75.984375 
L 18.109375 46.1875 
Q 21.34375 51.125 25.703125 53.5625 
Q 30.078125 56 35.796875 56 
Q 45.21875 56 50.046875 50.171875 
Q 54.890625 44.34375 54.890625 33.015625 
z
" id="DejaVuSans-104"/>
    </defs>
    <g transform="translate(124.05025 21.648)scale(0.2 -0.2)">
     <use xlink:href="#DejaVuSans-49"/>
     <use x="63.623047" xlink:href="#DejaVuSans-51"/>
     <use x="127.246094" xlink:href="#DejaVuSans-32"/>
     <use x="159.033203" xlink:href="#DejaVuSans-83"/>
     <use x="222.509766" xlink:href="#DejaVuSans-104"/>
     <use x="285.888672" xlink:href="#DejaVuSans-97"/>
     <use x="347.167969" xlink:href="#DejaVuSans-114"/>
     <use x="388.28125" xlink:href="#DejaVuSans-112"/>
     <use x="451.757812" xlink:href="#DejaVuSans-32"/>
     <use x="483.544922" xlink:href="#DejaVuSans-114"/>
     <use x="524.658203" xlink:href="#DejaVuSans-105"/>
     <use x="552.441406" xlink:href="#DejaVuSans-100"/>
     <use x="615.917969" xlink:href="#DejaVuSans-103"/>
     <use x="679.394531" xlink:href="#DejaVuSans-101"/>
    </g>
   </g>
  </g>
 </g>
 <defs>
  <clipPath id="p328dbb05fd">
   <rect height="271.296" width="281.088" x="57.6" y="27.648"/>
  </clipPath>
 </defs>
</svg>
