<?xml version="1.0" encoding="utf-8" standalone="no"?>
<!DOCTYPE svg PUBLIC "-//W3C//DTD SVG 1.1//EN"
  "http://www.w3.org/Graphics/SVG/1.1/DTD/svg11.dtd">
<!-- Created with matplotlib (https://matplotlib.org/) -->
<svg height="345.6pt" version="1.1" viewBox="0 0 460.8 345.6" width="460.8pt" xmlns="http://www.w3.org/2000/svg" xmlns:xlink="http://www.w3.org/1999/xlink">
 <defs>
  <style type="text/css">
*{stroke-linecap:butt;stroke-linejoin:round;}
  </style>
 </defs>
 <g id="figure_1">
  <g id="patch_1">
   <path d="M 0 345.6 
L 460.8 345.6 
L 460.8 0 
L 0 0 
z
" style="fill:#ffffff;"/>
  </g>
  <g id="axes_1">
   <g id="patch_2">
    <path d="M 57.6 298.944 
L 338.688 298.944 
L 338.688 27.648 
L 57.6 27.648 
z
" style="fill:#ffffff;"/>
   </g>
   <g id="line2d_1">
    <path d="M 38.440992 298.944 
L 38.440992 293.677139 
L 50.52898 293.677139 
L 50.52898 288.410278 
L 66.508432 288.410278 
L 66.508432 283.143418 
L 83.171864 283.143418 
L 83.171864 277.876557 
L 95.259853 277.876557 
L 95.259853 272.609696 
L 102.772397 272.609696 
L 102.772397 267.342835 
L 108.640231 267.342835 
L 108.640231 262.075974 
L 112.026172 262.075974 
L 112.026172 256.809114 
L 116.121606 256.809114 
L 116.121606 251.542253 
L 121.638301 251.542253 
L 121.638301 246.275392 
L 125.23165 246.275392 
L 125.23165 241.008531 
L 129.385722 241.008531 
L 129.385722 235.74167 
L 146.819289 235.74167 
L 146.819289 230.47481 
L 153.537988 230.47481 
L 153.537988 225.207949 
L 155.720743 225.207949 
L 155.720743 219.941088 
L 163.33453 219.941088 
L 163.33453 214.674227 
L 164.076176 214.674227 
L 164.076176 209.407366 
L 167.59811 209.407366 
L 167.59811 204.140506 
L 168.77585 204.140506 
L 168.77585 198.873645 
L 176.912855 198.873645 
L 176.912855 193.606784 
L 178.547874 193.606784 
L 178.547874 188.339923 
L 179.521099 188.339923 
L 179.521099 183.073062 
L 179.901953 183.073062 
L 179.901953 177.806202 
L 180.140994 177.806202 
L 180.140994 172.539341 
L 180.407326 172.539341 
L 180.407326 167.27248 
L 180.868789 167.27248 
L 180.868789 162.005619 
L 181.657549 162.005619 
L 181.657549 156.738758 
L 181.775431 156.738758 
L 181.775431 151.471897 
L 182.031998 151.471897 
L 182.031998 146.205037 
L 182.384967 146.205037 
L 182.384967 140.938176 
L 182.832957 140.938176 
L 182.832957 135.671315 
L 183.243826 135.671315 
L 183.243826 130.404454 
L 183.338605 130.404454 
L 183.338605 125.137593 
L 183.725263 125.137593 
L 183.725263 119.870733 
L 184.733501 119.870733 
L 184.733501 114.603872 
L 186.036086 114.603872 
L 186.036086 109.337011 
L 187.316641 109.337011 
L 187.316641 104.07015 
L 187.469872 104.07015 
L 187.469872 98.803289 
L 187.631848 98.803289 
L 187.631848 93.536429 
L 187.732324 93.536429 
L 187.732324 88.269568 
L 187.762355 88.269568 
L 187.762355 83.002707 
L 187.974425 83.002707 
L 187.974425 77.735846 
L 188.278065 77.735846 
L 188.278065 72.468985 
L 188.416691 72.468985 
L 188.416691 67.202125 
L 188.573327 67.202125 
L 188.573327 61.935264 
L 188.72226 61.935264 
L 188.72226 56.668403 
L 188.841751 56.668403 
L 188.841751 51.401542 
L 188.926157 51.401542 
L 188.926157 46.134681 
L 189.062839 46.134681 
L 189.062839 40.867821 
L 189.161575 40.867821 
L 189.161575 35.60096 
L 189.247514 35.60096 
L 189.247514 30.334099 
L 338.688 30.334099 
" style="fill:none;stroke:#f5deb3;stroke-linecap:square;stroke-width:4;"/>
   </g>
   <g id="line2d_2">
    <defs>
     <path d="M -0 7.778175 
L 7.778175 0 
L 0 -7.778175 
L -7.778175 -0 
z
" id="m620e22169e" style="stroke:#f5deb3;stroke-linejoin:miter;stroke-width:1.5;"/>
    </defs>
    <g>
     <use style="fill:#f5deb3;stroke:#f5deb3;stroke-linejoin:miter;stroke-width:1.5;" x="129.385722" xlink:href="#m620e22169e" y="235.74167"/>
     <use style="fill:#f5deb3;stroke:#f5deb3;stroke-linejoin:miter;stroke-width:1.5;" x="179.901953" xlink:href="#m620e22169e" y="177.806202"/>
     <use style="fill:#f5deb3;stroke:#f5deb3;stroke-linejoin:miter;stroke-width:1.5;" x="188.278065" xlink:href="#m620e22169e" y="72.468985"/>
     <use style="fill:#f5deb3;stroke:#f5deb3;stroke-linejoin:miter;stroke-width:1.5;" x="189.247514" xlink:href="#m620e22169e" y="30.334099"/>
     <use style="fill:#f5deb3;stroke:#f5deb3;stroke-linejoin:miter;stroke-width:1.5;" x="189.247514" xlink:href="#m620e22169e" y="30.334099"/>
     <use style="fill:#f5deb3;stroke:#f5deb3;stroke-linejoin:miter;stroke-width:1.5;" x="338.688" xlink:href="#m620e22169e" y="30.334099"/>
    </g>
   </g>
   <g id="line2d_3">
    <path style="fill:none;stroke:#f5deb3;stroke-linecap:square;stroke-width:4;"/>
    <g/>
   </g>
   <g id="line2d_4">
    <path d="M 338.688 30.334099 
L 369.60768 35.706297 
" style="fill:none;stroke:#f5deb3;stroke-linecap:square;stroke-width:4;"/>
    <g>
     <use style="fill:#f5deb3;stroke:#f5deb3;stroke-linejoin:miter;stroke-width:1.5;" x="338.688" xlink:href="#m620e22169e" y="30.334099"/>
     <use style="fill:#f5deb3;stroke:#f5deb3;stroke-linejoin:miter;stroke-width:1.5;" x="369.60768" xlink:href="#m620e22169e" y="35.706297"/>
    </g>
   </g>
   <g id="matplotlib.axis_1">
    <g id="xtick_1">
     <g id="line2d_5">
      <path clip-path="url(#pabe3781f97)" d="M 57.6 298.944 
L 57.6 27.648 
" style="fill:none;stroke:#b0b0b0;stroke-linecap:square;stroke-width:0.8;"/>
     </g>
     <g id="line2d_6">
      <defs>
       <path d="M 0 0 
L 0 3.5 
" id="m695ad922d0" style="stroke:#000000;stroke-width:0.8;"/>
      </defs>
      <g>
       <use style="stroke:#000000;stroke-width:0.8;" x="57.6" xlink:href="#m695ad922d0" y="298.944"/>
      </g>
     </g>
     <g id="text_1">
      <!-- 0 -->
      <defs>
       <path d="M 31.78125 66.40625 
Q 24.171875 66.40625 20.328125 58.90625 
Q 16.5 51.421875 16.5 36.375 
Q 16.5 21.390625 20.328125 13.890625 
Q 24.171875 6.390625 31.78125 6.390625 
Q 39.453125 6.390625 43.28125 13.890625 
Q 47.125 21.390625 47.125 36.375 
Q 47.125 51.421875 43.28125 58.90625 
Q 39.453125 66.40625 31.78125 66.40625 
z
M 31.78125 74.21875 
Q 44.046875 74.21875 50.515625 64.515625 
Q 56.984375 54.828125 56.984375 36.375 
Q 56.984375 17.96875 50.515625 8.265625 
Q 44.046875 -1.421875 31.78125 -1.421875 
Q 19.53125 -1.421875 13.0625 8.265625 
Q 6.59375 17.96875 6.59375 36.375 
Q 6.59375 54.828125 13.0625 64.515625 
Q 19.53125 74.21875 31.78125 74.21875 
z
" id="DejaVuSans-48"/>
      </defs>
      <g transform="translate(51.2375 321.140875)scale(0.2 -0.2)">
       <use xlink:href="#DejaVuSans-48"/>
      </g>
     </g>
    </g>
    <g id="xtick_2">
     <g id="line2d_7">
      <path clip-path="url(#pabe3781f97)" d="M 137.910857 298.944 
L 137.910857 27.648 
" style="fill:none;stroke:#b0b0b0;stroke-linecap:square;stroke-width:0.8;"/>
     </g>
     <g id="line2d_8">
      <g>
       <use style="stroke:#000000;stroke-width:0.8;" x="137.910857" xlink:href="#m695ad922d0" y="298.944"/>
      </g>
     </g>
     <g id="text_2">
      <!-- 2 -->
      <defs>
       <path d="M 19.1875 8.296875 
L 53.609375 8.296875 
L 53.609375 0 
L 7.328125 0 
L 7.328125 8.296875 
Q 12.9375 14.109375 22.625 23.890625 
Q 32.328125 33.6875 34.8125 36.53125 
Q 39.546875 41.84375 41.421875 45.53125 
Q 43.3125 49.21875 43.3125 52.78125 
Q 43.3125 58.59375 39.234375 62.25 
Q 35.15625 65.921875 28.609375 65.921875 
Q 23.96875 65.921875 18.8125 64.3125 
Q 13.671875 62.703125 7.8125 59.421875 
L 7.8125 69.390625 
Q 13.765625 71.78125 18.9375 73 
Q 24.125 74.21875 28.421875 74.21875 
Q 39.75 74.21875 46.484375 68.546875 
Q 53.21875 62.890625 53.21875 53.421875 
Q 53.21875 48.921875 51.53125 44.890625 
Q 49.859375 40.875 45.40625 35.40625 
Q 44.1875 33.984375 37.640625 27.21875 
Q 31.109375 20.453125 19.1875 8.296875 
z
" id="DejaVuSans-50"/>
      </defs>
      <g transform="translate(131.548357 321.140875)scale(0.2 -0.2)">
       <use xlink:href="#DejaVuSans-50"/>
      </g>
     </g>
    </g>
    <g id="xtick_3">
     <g id="line2d_9">
      <path clip-path="url(#pabe3781f97)" d="M 218.221714 298.944 
L 218.221714 27.648 
" style="fill:none;stroke:#b0b0b0;stroke-linecap:square;stroke-width:0.8;"/>
     </g>
     <g id="line2d_10">
      <g>
       <use style="stroke:#000000;stroke-width:0.8;" x="218.221714" xlink:href="#m695ad922d0" y="298.944"/>
      </g>
     </g>
     <g id="text_3">
      <!-- 4 -->
      <defs>
       <path d="M 37.796875 64.3125 
L 12.890625 25.390625 
L 37.796875 25.390625 
z
M 35.203125 72.90625 
L 47.609375 72.90625 
L 47.609375 25.390625 
L 58.015625 25.390625 
L 58.015625 17.1875 
L 47.609375 17.1875 
L 47.609375 0 
L 37.796875 0 
L 37.796875 17.1875 
L 4.890625 17.1875 
L 4.890625 26.703125 
z
" id="DejaVuSans-52"/>
      </defs>
      <g transform="translate(211.859214 321.140875)scale(0.2 -0.2)">
       <use xlink:href="#DejaVuSans-52"/>
      </g>
     </g>
    </g>
    <g id="xtick_4">
     <g id="line2d_11">
      <path clip-path="url(#pabe3781f97)" d="M 298.532571 298.944 
L 298.532571 27.648 
" style="fill:none;stroke:#b0b0b0;stroke-linecap:square;stroke-width:0.8;"/>
     </g>
     <g id="line2d_12">
      <g>
       <use style="stroke:#000000;stroke-width:0.8;" x="298.532571" xlink:href="#m695ad922d0" y="298.944"/>
      </g>
     </g>
     <g id="text_4">
      <!-- 6 -->
      <defs>
       <path d="M 33.015625 40.375 
Q 26.375 40.375 22.484375 35.828125 
Q 18.609375 31.296875 18.609375 23.390625 
Q 18.609375 15.53125 22.484375 10.953125 
Q 26.375 6.390625 33.015625 6.390625 
Q 39.65625 6.390625 43.53125 10.953125 
Q 47.40625 15.53125 47.40625 23.390625 
Q 47.40625 31.296875 43.53125 35.828125 
Q 39.65625 40.375 33.015625 40.375 
z
M 52.59375 71.296875 
L 52.59375 62.3125 
Q 48.875 64.0625 45.09375 64.984375 
Q 41.3125 65.921875 37.59375 65.921875 
Q 27.828125 65.921875 22.671875 59.328125 
Q 17.53125 52.734375 16.796875 39.40625 
Q 19.671875 43.65625 24.015625 45.921875 
Q 28.375 48.1875 33.59375 48.1875 
Q 44.578125 48.1875 50.953125 41.515625 
Q 57.328125 34.859375 57.328125 23.390625 
Q 57.328125 12.15625 50.6875 5.359375 
Q 44.046875 -1.421875 33.015625 -1.421875 
Q 20.359375 -1.421875 13.671875 8.265625 
Q 6.984375 17.96875 6.984375 36.375 
Q 6.984375 53.65625 15.1875 63.9375 
Q 23.390625 74.21875 37.203125 74.21875 
Q 40.921875 74.21875 44.703125 73.484375 
Q 48.484375 72.75 52.59375 71.296875 
z
" id="DejaVuSans-54"/>
      </defs>
      <g transform="translate(292.170071 321.140875)scale(0.2 -0.2)">
       <use xlink:href="#DejaVuSans-54"/>
      </g>
     </g>
    </g>
    <g id="xtick_5">
     <g id="line2d_13">
      <path clip-path="url(#pabe3781f97)" d="M 97.755429 298.944 
L 97.755429 27.648 
" style="fill:none;stroke:#b0b0b0;stroke-linecap:square;stroke-width:0.8;"/>
     </g>
     <g id="line2d_14">
      <defs>
       <path d="M 0 0 
L 0 2 
" id="md0561609c3" style="stroke:#000000;stroke-width:0.6;"/>
      </defs>
      <g>
       <use style="stroke:#000000;stroke-width:0.6;" x="97.755429" xlink:href="#md0561609c3" y="298.944"/>
      </g>
     </g>
    </g>
    <g id="xtick_6">
     <g id="line2d_15">
      <path clip-path="url(#pabe3781f97)" d="M 178.066286 298.944 
L 178.066286 27.648 
" style="fill:none;stroke:#b0b0b0;stroke-linecap:square;stroke-width:0.8;"/>
     </g>
     <g id="line2d_16">
      <g>
       <use style="stroke:#000000;stroke-width:0.6;" x="178.066286" xlink:href="#md0561609c3" y="298.944"/>
      </g>
     </g>
    </g>
    <g id="xtick_7">
     <g id="line2d_17">
      <path clip-path="url(#pabe3781f97)" d="M 258.377143 298.944 
L 258.377143 27.648 
" style="fill:none;stroke:#b0b0b0;stroke-linecap:square;stroke-width:0.8;"/>
     </g>
     <g id="line2d_18">
      <g>
       <use style="stroke:#000000;stroke-width:0.6;" x="258.377143" xlink:href="#md0561609c3" y="298.944"/>
      </g>
     </g>
    </g>
    <g id="xtick_8">
     <g id="line2d_19">
      <path clip-path="url(#pabe3781f97)" d="M 338.688 298.944 
L 338.688 27.648 
" style="fill:none;stroke:#b0b0b0;stroke-linecap:square;stroke-width:0.8;"/>
     </g>
     <g id="line2d_20">
      <g>
       <use style="stroke:#000000;stroke-width:0.6;" x="338.688" xlink:href="#md0561609c3" y="298.944"/>
      </g>
     </g>
    </g>
    <g id="text_5">
     <!-- log10(# f-evals / dimension) -->
     <defs>
      <path d="M 9.421875 75.984375 
L 18.40625 75.984375 
L 18.40625 0 
L 9.421875 0 
z
" id="DejaVuSans-108"/>
      <path d="M 30.609375 48.390625 
Q 23.390625 48.390625 19.1875 42.75 
Q 14.984375 37.109375 14.984375 27.296875 
Q 14.984375 17.484375 19.15625 11.84375 
Q 23.34375 6.203125 30.609375 6.203125 
Q 37.796875 6.203125 41.984375 11.859375 
Q 46.1875 17.53125 46.1875 27.296875 
Q 46.1875 37.015625 41.984375 42.703125 
Q 37.796875 48.390625 30.609375 48.390625 
z
M 30.609375 56 
Q 42.328125 56 49.015625 48.375 
Q 55.71875 40.765625 55.71875 27.296875 
Q 55.71875 13.875 49.015625 6.21875 
Q 42.328125 -1.421875 30.609375 -1.421875 
Q 18.84375 -1.421875 12.171875 6.21875 
Q 5.515625 13.875 5.515625 27.296875 
Q 5.515625 40.765625 12.171875 48.375 
Q 18.84375 56 30.609375 56 
z
" id="DejaVuSans-111"/>
      <path d="M 45.40625 27.984375 
Q 45.40625 37.75 41.375 43.109375 
Q 37.359375 48.484375 30.078125 48.484375 
Q 22.859375 48.484375 18.828125 43.109375 
Q 14.796875 37.75 14.796875 27.984375 
Q 14.796875 18.265625 18.828125 12.890625 
Q 22.859375 7.515625 30.078125 7.515625 
Q 37.359375 7.515625 41.375 12.890625 
Q 45.40625 18.265625 45.40625 27.984375 
z
M 54.390625 6.78125 
Q 54.390625 -7.171875 48.1875 -13.984375 
Q 42 -20.796875 29.203125 -20.796875 
Q 24.46875 -20.796875 20.265625 -20.09375 
Q 16.0625 -19.390625 12.109375 -17.921875 
L 12.109375 -9.1875 
Q 16.0625 -11.328125 19.921875 -12.34375 
Q 23.78125 -13.375 27.78125 -13.375 
Q 36.625 -13.375 41.015625 -8.765625 
Q 45.40625 -4.15625 45.40625 5.171875 
L 45.40625 9.625 
Q 42.625 4.78125 38.28125 2.390625 
Q 33.9375 0 27.875 0 
Q 17.828125 0 11.671875 7.65625 
Q 5.515625 15.328125 5.515625 27.984375 
Q 5.515625 40.671875 11.671875 48.328125 
Q 17.828125 56 27.875 56 
Q 33.9375 56 38.28125 53.609375 
Q 42.625 51.21875 45.40625 46.390625 
L 45.40625 54.6875 
L 54.390625 54.6875 
z
" id="DejaVuSans-103"/>
      <path d="M 12.40625 8.296875 
L 28.515625 8.296875 
L 28.515625 63.921875 
L 10.984375 60.40625 
L 10.984375 69.390625 
L 28.421875 72.90625 
L 38.28125 72.90625 
L 38.28125 8.296875 
L 54.390625 8.296875 
L 54.390625 0 
L 12.40625 0 
z
" id="DejaVuSans-49"/>
      <path d="M 31 75.875 
Q 24.46875 64.65625 21.28125 53.65625 
Q 18.109375 42.671875 18.109375 31.390625 
Q 18.109375 20.125 21.3125 9.0625 
Q 24.515625 -2 31 -13.1875 
L 23.1875 -13.1875 
Q 15.875 -1.703125 12.234375 9.375 
Q 8.59375 20.453125 8.59375 31.390625 
Q 8.59375 42.28125 12.203125 53.3125 
Q 15.828125 64.359375 23.1875 75.875 
z
" id="DejaVuSans-40"/>
      <path d="M 51.125 44 
L 36.921875 44 
L 32.8125 27.6875 
L 47.125 27.6875 
z
M 43.796875 71.78125 
L 38.71875 51.515625 
L 52.984375 51.515625 
L 58.109375 71.78125 
L 65.921875 71.78125 
L 60.890625 51.515625 
L 76.125 51.515625 
L 76.125 44 
L 58.984375 44 
L 54.984375 27.6875 
L 70.515625 27.6875 
L 70.515625 20.21875 
L 53.078125 20.21875 
L 48 0 
L 40.1875 0 
L 45.21875 20.21875 
L 30.90625 20.21875 
L 25.875 0 
L 18.015625 0 
L 23.09375 20.21875 
L 7.71875 20.21875 
L 7.71875 27.6875 
L 24.90625 27.6875 
L 29 44 
L 13.28125 44 
L 13.28125 51.515625 
L 30.90625 51.515625 
L 35.890625 71.78125 
z
" id="DejaVuSans-35"/>
      <path id="DejaVuSans-32"/>
      <path d="M 37.109375 75.984375 
L 37.109375 68.5 
L 28.515625 68.5 
Q 23.6875 68.5 21.796875 66.546875 
Q 19.921875 64.59375 19.921875 59.515625 
L 19.921875 54.6875 
L 34.71875 54.6875 
L 34.71875 47.703125 
L 19.921875 47.703125 
L 19.921875 0 
L 10.890625 0 
L 10.890625 47.703125 
L 2.296875 47.703125 
L 2.296875 54.6875 
L 10.890625 54.6875 
L 10.890625 58.5 
Q 10.890625 67.625 15.140625 71.796875 
Q 19.390625 75.984375 28.609375 75.984375 
z
" id="DejaVuSans-102"/>
      <path d="M 4.890625 31.390625 
L 31.203125 31.390625 
L 31.203125 23.390625 
L 4.890625 23.390625 
z
" id="DejaVuSans-45"/>
      <path d="M 56.203125 29.59375 
L 56.203125 25.203125 
L 14.890625 25.203125 
Q 15.484375 15.921875 20.484375 11.0625 
Q 25.484375 6.203125 34.421875 6.203125 
Q 39.59375 6.203125 44.453125 7.46875 
Q 49.3125 8.734375 54.109375 11.28125 
L 54.109375 2.78125 
Q 49.265625 0.734375 44.1875 -0.34375 
Q 39.109375 -1.421875 33.890625 -1.421875 
Q 20.796875 -1.421875 13.15625 6.1875 
Q 5.515625 13.8125 5.515625 26.8125 
Q 5.515625 40.234375 12.765625 48.109375 
Q 20.015625 56 32.328125 56 
Q 43.359375 56 49.78125 48.890625 
Q 56.203125 41.796875 56.203125 29.59375 
z
M 47.21875 32.234375 
Q 47.125 39.59375 43.09375 43.984375 
Q 39.0625 48.390625 32.421875 48.390625 
Q 24.90625 48.390625 20.390625 44.140625 
Q 15.875 39.890625 15.1875 32.171875 
z
" id="DejaVuSans-101"/>
      <path d="M 2.984375 54.6875 
L 12.5 54.6875 
L 29.59375 8.796875 
L 46.6875 54.6875 
L 56.203125 54.6875 
L 35.6875 0 
L 23.484375 0 
z
" id="DejaVuSans-118"/>
      <path d="M 34.28125 27.484375 
Q 23.390625 27.484375 19.1875 25 
Q 14.984375 22.515625 14.984375 16.5 
Q 14.984375 11.71875 18.140625 8.90625 
Q 21.296875 6.109375 26.703125 6.109375 
Q 34.1875 6.109375 38.703125 11.40625 
Q 43.21875 16.703125 43.21875 25.484375 
L 43.21875 27.484375 
z
M 52.203125 31.203125 
L 52.203125 0 
L 43.21875 0 
L 43.21875 8.296875 
Q 40.140625 3.328125 35.546875 0.953125 
Q 30.953125 -1.421875 24.3125 -1.421875 
Q 15.921875 -1.421875 10.953125 3.296875 
Q 6 8.015625 6 15.921875 
Q 6 25.140625 12.171875 29.828125 
Q 18.359375 34.515625 30.609375 34.515625 
L 43.21875 34.515625 
L 43.21875 35.40625 
Q 43.21875 41.609375 39.140625 45 
Q 35.0625 48.390625 27.6875 48.390625 
Q 23 48.390625 18.546875 47.265625 
Q 14.109375 46.140625 10.015625 43.890625 
L 10.015625 52.203125 
Q 14.9375 54.109375 19.578125 55.046875 
Q 24.21875 56 28.609375 56 
Q 40.484375 56 46.34375 49.84375 
Q 52.203125 43.703125 52.203125 31.203125 
z
" id="DejaVuSans-97"/>
      <path d="M 44.28125 53.078125 
L 44.28125 44.578125 
Q 40.484375 46.53125 36.375 47.5 
Q 32.28125 48.484375 27.875 48.484375 
Q 21.1875 48.484375 17.84375 46.4375 
Q 14.5 44.390625 14.5 40.28125 
Q 14.5 37.15625 16.890625 35.375 
Q 19.28125 33.59375 26.515625 31.984375 
L 29.59375 31.296875 
Q 39.15625 29.25 43.1875 25.515625 
Q 47.21875 21.78125 47.21875 15.09375 
Q 47.21875 7.46875 41.1875 3.015625 
Q 35.15625 -1.421875 24.609375 -1.421875 
Q 20.21875 -1.421875 15.453125 -0.5625 
Q 10.6875 0.296875 5.421875 2 
L 5.421875 11.28125 
Q 10.40625 8.6875 15.234375 7.390625 
Q 20.0625 6.109375 24.8125 6.109375 
Q 31.15625 6.109375 34.5625 8.28125 
Q 37.984375 10.453125 37.984375 14.40625 
Q 37.984375 18.0625 35.515625 20.015625 
Q 33.0625 21.96875 24.703125 23.78125 
L 21.578125 24.515625 
Q 13.234375 26.265625 9.515625 29.90625 
Q 5.8125 33.546875 5.8125 39.890625 
Q 5.8125 47.609375 11.28125 51.796875 
Q 16.75 56 26.8125 56 
Q 31.78125 56 36.171875 55.265625 
Q 40.578125 54.546875 44.28125 53.078125 
z
" id="DejaVuSans-115"/>
      <path d="M 25.390625 72.90625 
L 33.6875 72.90625 
L 8.296875 -9.28125 
L 0 -9.28125 
z
" id="DejaVuSans-47"/>
      <path d="M 45.40625 46.390625 
L 45.40625 75.984375 
L 54.390625 75.984375 
L 54.390625 0 
L 45.40625 0 
L 45.40625 8.203125 
Q 42.578125 3.328125 38.25 0.953125 
Q 33.9375 -1.421875 27.875 -1.421875 
Q 17.96875 -1.421875 11.734375 6.484375 
Q 5.515625 14.40625 5.515625 27.296875 
Q 5.515625 40.1875 11.734375 48.09375 
Q 17.96875 56 27.875 56 
Q 33.9375 56 38.25 53.625 
Q 42.578125 51.265625 45.40625 46.390625 
z
M 14.796875 27.296875 
Q 14.796875 17.390625 18.875 11.75 
Q 22.953125 6.109375 30.078125 6.109375 
Q 37.203125 6.109375 41.296875 11.75 
Q 45.40625 17.390625 45.40625 27.296875 
Q 45.40625 37.203125 41.296875 42.84375 
Q 37.203125 48.484375 30.078125 48.484375 
Q 22.953125 48.484375 18.875 42.84375 
Q 14.796875 37.203125 14.796875 27.296875 
z
" id="DejaVuSans-100"/>
      <path d="M 9.421875 54.6875 
L 18.40625 54.6875 
L 18.40625 0 
L 9.421875 0 
z
M 9.421875 75.984375 
L 18.40625 75.984375 
L 18.40625 64.59375 
L 9.421875 64.59375 
z
" id="DejaVuSans-105"/>
      <path d="M 52 44.1875 
Q 55.375 50.25 60.0625 53.125 
Q 64.75 56 71.09375 56 
Q 79.640625 56 84.28125 50.015625 
Q 88.921875 44.046875 88.921875 33.015625 
L 88.921875 0 
L 79.890625 0 
L 79.890625 32.71875 
Q 79.890625 40.578125 77.09375 44.375 
Q 74.3125 48.1875 68.609375 48.1875 
Q 61.625 48.1875 57.5625 43.546875 
Q 53.515625 38.921875 53.515625 30.90625 
L 53.515625 0 
L 44.484375 0 
L 44.484375 32.71875 
Q 44.484375 40.625 41.703125 44.40625 
Q 38.921875 48.1875 33.109375 48.1875 
Q 26.21875 48.1875 22.15625 43.53125 
Q 18.109375 38.875 18.109375 30.90625 
L 18.109375 0 
L 9.078125 0 
L 9.078125 54.6875 
L 18.109375 54.6875 
L 18.109375 46.1875 
Q 21.1875 51.21875 25.484375 53.609375 
Q 29.78125 56 35.6875 56 
Q 41.65625 56 45.828125 52.96875 
Q 50 49.953125 52 44.1875 
z
" id="DejaVuSans-109"/>
      <path d="M 54.890625 33.015625 
L 54.890625 0 
L 45.90625 0 
L 45.90625 32.71875 
Q 45.90625 40.484375 42.875 44.328125 
Q 39.84375 48.1875 33.796875 48.1875 
Q 26.515625 48.1875 22.3125 43.546875 
Q 18.109375 38.921875 18.109375 30.90625 
L 18.109375 0 
L 9.078125 0 
L 9.078125 54.6875 
L 18.109375 54.6875 
L 18.109375 46.1875 
Q 21.34375 51.125 25.703125 53.5625 
Q 30.078125 56 35.796875 56 
Q 45.21875 56 50.046875 50.171875 
Q 54.890625 44.34375 54.890625 33.015625 
z
" id="DejaVuSans-110"/>
      <path d="M 8.015625 75.875 
L 15.828125 75.875 
Q 23.140625 64.359375 26.78125 53.3125 
Q 30.421875 42.28125 30.421875 31.390625 
Q 30.421875 20.453125 26.78125 9.375 
Q 23.140625 -1.703125 15.828125 -13.1875 
L 8.015625 -13.1875 
Q 14.5 -2 17.703125 9.0625 
Q 20.90625 20.125 20.90625 31.390625 
Q 20.90625 42.671875 17.703125 53.65625 
Q 14.5 64.65625 8.015625 75.875 
z
" id="DejaVuSans-41"/>
     </defs>
     <g transform="translate(77.764078 342.217594)scale(0.17 -0.17)">
      <use xlink:href="#DejaVuSans-108"/>
      <use x="27.783203" xlink:href="#DejaVuSans-111"/>
      <use x="88.964844" xlink:href="#DejaVuSans-103"/>
      <use x="152.441406" xlink:href="#DejaVuSans-49"/>
      <use x="216.064453" xlink:href="#DejaVuSans-48"/>
      <use x="279.6875" xlink:href="#DejaVuSans-40"/>
      <use x="318.701172" xlink:href="#DejaVuSans-35"/>
      <use x="402.490234" xlink:href="#DejaVuSans-32"/>
      <use x="434.277344" xlink:href="#DejaVuSans-102"/>
      <use x="463.982422" xlink:href="#DejaVuSans-45"/>
      <use x="500.066406" xlink:href="#DejaVuSans-101"/>
      <use x="561.589844" xlink:href="#DejaVuSans-118"/>
      <use x="620.769531" xlink:href="#DejaVuSans-97"/>
      <use x="682.048828" xlink:href="#DejaVuSans-108"/>
      <use x="709.832031" xlink:href="#DejaVuSans-115"/>
      <use x="761.931641" xlink:href="#DejaVuSans-32"/>
      <use x="793.71875" xlink:href="#DejaVuSans-47"/>
      <use x="827.410156" xlink:href="#DejaVuSans-32"/>
      <use x="859.197266" xlink:href="#DejaVuSans-100"/>
      <use x="922.673828" xlink:href="#DejaVuSans-105"/>
      <use x="950.457031" xlink:href="#DejaVuSans-109"/>
      <use x="1047.869141" xlink:href="#DejaVuSans-101"/>
      <use x="1109.392578" xlink:href="#DejaVuSans-110"/>
      <use x="1172.771484" xlink:href="#DejaVuSans-115"/>
      <use x="1224.871094" xlink:href="#DejaVuSans-105"/>
      <use x="1252.654297" xlink:href="#DejaVuSans-111"/>
      <use x="1313.835938" xlink:href="#DejaVuSans-110"/>
      <use x="1377.214844" xlink:href="#DejaVuSans-41"/>
     </g>
    </g>
   </g>
   <g id="matplotlib.axis_2">
    <g id="ytick_1">
     <g id="line2d_21">
      <path clip-path="url(#pabe3781f97)" d="M 57.6 298.944 
L 338.688 298.944 
" style="fill:none;stroke:#b0b0b0;stroke-linecap:square;stroke-width:0.8;"/>
     </g>
     <g id="line2d_22">
      <defs>
       <path d="M 0 0 
L -3.5 0 
" id="m033b647280" style="stroke:#000000;stroke-width:0.8;"/>
      </defs>
      <g>
       <use style="stroke:#000000;stroke-width:0.8;" x="57.6" xlink:href="#m033b647280" y="298.944"/>
      </g>
     </g>
     <g id="text_6">
      <!-- 0.0 -->
      <defs>
       <path d="M 10.6875 12.40625 
L 21 12.40625 
L 21 0 
L 10.6875 0 
z
" id="DejaVuSans-46"/>
      </defs>
      <g transform="translate(25.155 305.02275)scale(0.16 -0.16)">
       <use xlink:href="#DejaVuSans-48"/>
       <use x="63.623047" xlink:href="#DejaVuSans-46"/>
       <use x="95.410156" xlink:href="#DejaVuSans-48"/>
      </g>
     </g>
    </g>
    <g id="ytick_2">
     <g id="line2d_23">
      <path clip-path="url(#pabe3781f97)" d="M 57.6 245.22202 
L 338.688 245.22202 
" style="fill:none;stroke:#b0b0b0;stroke-linecap:square;stroke-width:0.8;"/>
     </g>
     <g id="line2d_24">
      <g>
       <use style="stroke:#000000;stroke-width:0.8;" x="57.6" xlink:href="#m033b647280" y="245.22202"/>
      </g>
     </g>
     <g id="text_7">
      <!-- 0.2 -->
      <g transform="translate(25.155 251.30077)scale(0.16 -0.16)">
       <use xlink:href="#DejaVuSans-48"/>
       <use x="63.623047" xlink:href="#DejaVuSans-46"/>
       <use x="95.410156" xlink:href="#DejaVuSans-50"/>
      </g>
     </g>
    </g>
    <g id="ytick_3">
     <g id="line2d_25">
      <path clip-path="url(#pabe3781f97)" d="M 57.6 191.50004 
L 338.688 191.50004 
" style="fill:none;stroke:#b0b0b0;stroke-linecap:square;stroke-width:0.8;"/>
     </g>
     <g id="line2d_26">
      <g>
       <use style="stroke:#000000;stroke-width:0.8;" x="57.6" xlink:href="#m033b647280" y="191.50004"/>
      </g>
     </g>
     <g id="text_8">
      <!-- 0.4 -->
      <g transform="translate(25.155 197.57879)scale(0.16 -0.16)">
       <use xlink:href="#DejaVuSans-48"/>
       <use x="63.623047" xlink:href="#DejaVuSans-46"/>
       <use x="95.410156" xlink:href="#DejaVuSans-52"/>
      </g>
     </g>
    </g>
    <g id="ytick_4">
     <g id="line2d_27">
      <path clip-path="url(#pabe3781f97)" d="M 57.6 137.778059 
L 338.688 137.778059 
" style="fill:none;stroke:#b0b0b0;stroke-linecap:square;stroke-width:0.8;"/>
     </g>
     <g id="line2d_28">
      <g>
       <use style="stroke:#000000;stroke-width:0.8;" x="57.6" xlink:href="#m033b647280" y="137.778059"/>
      </g>
     </g>
     <g id="text_9">
      <!-- 0.6 -->
      <g transform="translate(25.155 143.856809)scale(0.16 -0.16)">
       <use xlink:href="#DejaVuSans-48"/>
       <use x="63.623047" xlink:href="#DejaVuSans-46"/>
       <use x="95.410156" xlink:href="#DejaVuSans-54"/>
      </g>
     </g>
    </g>
    <g id="ytick_5">
     <g id="line2d_29">
      <path clip-path="url(#pabe3781f97)" d="M 57.6 84.056079 
L 338.688 84.056079 
" style="fill:none;stroke:#b0b0b0;stroke-linecap:square;stroke-width:0.8;"/>
     </g>
     <g id="line2d_30">
      <g>
       <use style="stroke:#000000;stroke-width:0.8;" x="57.6" xlink:href="#m033b647280" y="84.056079"/>
      </g>
     </g>
     <g id="text_10">
      <!-- 0.8 -->
      <defs>
       <path d="M 31.78125 34.625 
Q 24.75 34.625 20.71875 30.859375 
Q 16.703125 27.09375 16.703125 20.515625 
Q 16.703125 13.921875 20.71875 10.15625 
Q 24.75 6.390625 31.78125 6.390625 
Q 38.8125 6.390625 42.859375 10.171875 
Q 46.921875 13.96875 46.921875 20.515625 
Q 46.921875 27.09375 42.890625 30.859375 
Q 38.875 34.625 31.78125 34.625 
z
M 21.921875 38.8125 
Q 15.578125 40.375 12.03125 44.71875 
Q 8.5 49.078125 8.5 55.328125 
Q 8.5 64.0625 14.71875 69.140625 
Q 20.953125 74.21875 31.78125 74.21875 
Q 42.671875 74.21875 48.875 69.140625 
Q 55.078125 64.0625 55.078125 55.328125 
Q 55.078125 49.078125 51.53125 44.71875 
Q 48 40.375 41.703125 38.8125 
Q 48.828125 37.15625 52.796875 32.3125 
Q 56.78125 27.484375 56.78125 20.515625 
Q 56.78125 9.90625 50.3125 4.234375 
Q 43.84375 -1.421875 31.78125 -1.421875 
Q 19.734375 -1.421875 13.25 4.234375 
Q 6.78125 9.90625 6.78125 20.515625 
Q 6.78125 27.484375 10.78125 32.3125 
Q 14.796875 37.15625 21.921875 38.8125 
z
M 18.3125 54.390625 
Q 18.3125 48.734375 21.84375 45.5625 
Q 25.390625 42.390625 31.78125 42.390625 
Q 38.140625 42.390625 41.71875 45.5625 
Q 45.3125 48.734375 45.3125 54.390625 
Q 45.3125 60.0625 41.71875 63.234375 
Q 38.140625 66.40625 31.78125 66.40625 
Q 25.390625 66.40625 21.84375 63.234375 
Q 18.3125 60.0625 18.3125 54.390625 
z
" id="DejaVuSans-56"/>
      </defs>
      <g transform="translate(25.155 90.134829)scale(0.16 -0.16)">
       <use xlink:href="#DejaVuSans-48"/>
       <use x="63.623047" xlink:href="#DejaVuSans-46"/>
       <use x="95.410156" xlink:href="#DejaVuSans-56"/>
      </g>
     </g>
    </g>
    <g id="ytick_6">
     <g id="line2d_31">
      <path clip-path="url(#pabe3781f97)" d="M 57.6 30.334099 
L 338.688 30.334099 
" style="fill:none;stroke:#b0b0b0;stroke-linecap:square;stroke-width:0.8;"/>
     </g>
     <g id="line2d_32">
      <g>
       <use style="stroke:#000000;stroke-width:0.8;" x="57.6" xlink:href="#m033b647280" y="30.334099"/>
      </g>
     </g>
     <g id="text_11">
      <!-- 1.0 -->
      <g transform="translate(25.155 36.412849)scale(0.16 -0.16)">
       <use xlink:href="#DejaVuSans-49"/>
       <use x="63.623047" xlink:href="#DejaVuSans-46"/>
       <use x="95.410156" xlink:href="#DejaVuSans-48"/>
      </g>
     </g>
    </g>
    <g id="text_12">
     <!-- Fraction of function,target pairs -->
     <defs>
      <path d="M 9.8125 72.90625 
L 51.703125 72.90625 
L 51.703125 64.59375 
L 19.671875 64.59375 
L 19.671875 43.109375 
L 48.578125 43.109375 
L 48.578125 34.8125 
L 19.671875 34.8125 
L 19.671875 0 
L 9.8125 0 
z
" id="DejaVuSans-70"/>
      <path d="M 41.109375 46.296875 
Q 39.59375 47.171875 37.8125 47.578125 
Q 36.03125 48 33.890625 48 
Q 26.265625 48 22.1875 43.046875 
Q 18.109375 38.09375 18.109375 28.8125 
L 18.109375 0 
L 9.078125 0 
L 9.078125 54.6875 
L 18.109375 54.6875 
L 18.109375 46.1875 
Q 20.953125 51.171875 25.484375 53.578125 
Q 30.03125 56 36.53125 56 
Q 37.453125 56 38.578125 55.875 
Q 39.703125 55.765625 41.0625 55.515625 
z
" id="DejaVuSans-114"/>
      <path d="M 48.78125 52.59375 
L 48.78125 44.1875 
Q 44.96875 46.296875 41.140625 47.34375 
Q 37.3125 48.390625 33.40625 48.390625 
Q 24.65625 48.390625 19.8125 42.84375 
Q 14.984375 37.3125 14.984375 27.296875 
Q 14.984375 17.28125 19.8125 11.734375 
Q 24.65625 6.203125 33.40625 6.203125 
Q 37.3125 6.203125 41.140625 7.25 
Q 44.96875 8.296875 48.78125 10.40625 
L 48.78125 2.09375 
Q 45.015625 0.34375 40.984375 -0.53125 
Q 36.96875 -1.421875 32.421875 -1.421875 
Q 20.0625 -1.421875 12.78125 6.34375 
Q 5.515625 14.109375 5.515625 27.296875 
Q 5.515625 40.671875 12.859375 48.328125 
Q 20.21875 56 33.015625 56 
Q 37.15625 56 41.109375 55.140625 
Q 45.0625 54.296875 48.78125 52.59375 
z
" id="DejaVuSans-99"/>
      <path d="M 18.3125 70.21875 
L 18.3125 54.6875 
L 36.8125 54.6875 
L 36.8125 47.703125 
L 18.3125 47.703125 
L 18.3125 18.015625 
Q 18.3125 11.328125 20.140625 9.421875 
Q 21.96875 7.515625 27.59375 7.515625 
L 36.8125 7.515625 
L 36.8125 0 
L 27.59375 0 
Q 17.1875 0 13.234375 3.875 
Q 9.28125 7.765625 9.28125 18.015625 
L 9.28125 47.703125 
L 2.6875 47.703125 
L 2.6875 54.6875 
L 9.28125 54.6875 
L 9.28125 70.21875 
z
" id="DejaVuSans-116"/>
      <path d="M 8.5 21.578125 
L 8.5 54.6875 
L 17.484375 54.6875 
L 17.484375 21.921875 
Q 17.484375 14.15625 20.5 10.265625 
Q 23.53125 6.390625 29.59375 6.390625 
Q 36.859375 6.390625 41.078125 11.03125 
Q 45.3125 15.671875 45.3125 23.6875 
L 45.3125 54.6875 
L 54.296875 54.6875 
L 54.296875 0 
L 45.3125 0 
L 45.3125 8.40625 
Q 42.046875 3.421875 37.71875 1 
Q 33.40625 -1.421875 27.6875 -1.421875 
Q 18.265625 -1.421875 13.375 4.4375 
Q 8.5 10.296875 8.5 21.578125 
z
M 31.109375 56 
z
" id="DejaVuSans-117"/>
      <path d="M 11.71875 12.40625 
L 22.015625 12.40625 
L 22.015625 4 
L 14.015625 -11.625 
L 7.71875 -11.625 
L 11.71875 4 
z
" id="DejaVuSans-44"/>
      <path d="M 18.109375 8.203125 
L 18.109375 -20.796875 
L 9.078125 -20.796875 
L 9.078125 54.6875 
L 18.109375 54.6875 
L 18.109375 46.390625 
Q 20.953125 51.265625 25.265625 53.625 
Q 29.59375 56 35.59375 56 
Q 45.5625 56 51.78125 48.09375 
Q 58.015625 40.1875 58.015625 27.296875 
Q 58.015625 14.40625 51.78125 6.484375 
Q 45.5625 -1.421875 35.59375 -1.421875 
Q 29.59375 -1.421875 25.265625 0.953125 
Q 20.953125 3.328125 18.109375 8.203125 
z
M 48.6875 27.296875 
Q 48.6875 37.203125 44.609375 42.84375 
Q 40.53125 48.484375 33.40625 48.484375 
Q 26.265625 48.484375 22.1875 42.84375 
Q 18.109375 37.203125 18.109375 27.296875 
Q 18.109375 17.390625 22.1875 11.75 
Q 26.265625 6.109375 33.40625 6.109375 
Q 40.53125 6.109375 44.609375 11.75 
Q 48.6875 17.390625 48.6875 27.296875 
z
" id="DejaVuSans-112"/>
     </defs>
     <g transform="translate(17.619531 297.681)rotate(-90)scale(0.17 -0.17)">
      <use xlink:href="#DejaVuSans-70"/>
      <use x="50.269531" xlink:href="#DejaVuSans-114"/>
      <use x="91.382812" xlink:href="#DejaVuSans-97"/>
      <use x="152.662109" xlink:href="#DejaVuSans-99"/>
      <use x="207.642578" xlink:href="#DejaVuSans-116"/>
      <use x="246.851562" xlink:href="#DejaVuSans-105"/>
      <use x="274.634766" xlink:href="#DejaVuSans-111"/>
      <use x="335.816406" xlink:href="#DejaVuSans-110"/>
      <use x="399.195312" xlink:href="#DejaVuSans-32"/>
      <use x="430.982422" xlink:href="#DejaVuSans-111"/>
      <use x="492.164062" xlink:href="#DejaVuSans-102"/>
      <use x="527.369141" xlink:href="#DejaVuSans-32"/>
      <use x="559.15625" xlink:href="#DejaVuSans-102"/>
      <use x="594.361328" xlink:href="#DejaVuSans-117"/>
      <use x="657.740234" xlink:href="#DejaVuSans-110"/>
      <use x="721.119141" xlink:href="#DejaVuSans-99"/>
      <use x="776.099609" xlink:href="#DejaVuSans-116"/>
      <use x="815.308594" xlink:href="#DejaVuSans-105"/>
      <use x="843.091797" xlink:href="#DejaVuSans-111"/>
      <use x="904.273438" xlink:href="#DejaVuSans-110"/>
      <use x="967.652344" xlink:href="#DejaVuSans-44"/>
      <use x="999.439453" xlink:href="#DejaVuSans-116"/>
      <use x="1038.648438" xlink:href="#DejaVuSans-97"/>
      <use x="1099.927734" xlink:href="#DejaVuSans-114"/>
      <use x="1139.291016" xlink:href="#DejaVuSans-103"/>
      <use x="1202.767578" xlink:href="#DejaVuSans-101"/>
      <use x="1264.291016" xlink:href="#DejaVuSans-116"/>
      <use x="1303.5" xlink:href="#DejaVuSans-32"/>
      <use x="1335.287109" xlink:href="#DejaVuSans-112"/>
      <use x="1398.763672" xlink:href="#DejaVuSans-97"/>
      <use x="1460.042969" xlink:href="#DejaVuSans-105"/>
      <use x="1487.826172" xlink:href="#DejaVuSans-114"/>
      <use x="1528.939453" xlink:href="#DejaVuSans-115"/>
     </g>
    </g>
   </g>
   <g id="line2d_33">
    <defs>
     <path d="M 0 1.5 
C 0.397805 1.5 0.77937 1.341951 1.06066 1.06066 
C 1.341951 0.77937 1.5 0.397805 1.5 0 
C 1.5 -0.397805 1.341951 -0.77937 1.06066 -1.06066 
C 0.77937 -1.341951 0.397805 -1.5 0 -1.5 
C -0.397805 -1.5 -0.77937 -1.341951 -1.06066 -1.06066 
C -1.341951 -0.77937 -1.5 -0.397805 -1.5 0 
C -1.5 0.397805 -1.341951 0.77937 -1.06066 1.06066 
C -0.77937 1.341951 -0.397805 1.5 0 1.5 
z
" id="m4cec4baa9a" style="stroke:#f5deb3;"/>
    </defs>
    <g>
     <use style="fill:#f5deb3;stroke:#f5deb3;" x="189.247514" xlink:href="#m4cec4baa9a" y="30.334099"/>
     <use style="fill:#f5deb3;stroke:#f5deb3;" x="189.247514" xlink:href="#m4cec4baa9a" y="30.334099"/>
    </g>
   </g>
   <g id="line2d_34">
    <defs>
     <path d="M 0 1.5 
C 0.397805 1.5 0.77937 1.341951 1.06066 1.06066 
C 1.341951 0.77937 1.5 0.397805 1.5 0 
C 1.5 -0.397805 1.341951 -0.77937 1.06066 -1.06066 
C 0.77937 -1.341951 0.397805 -1.5 0 -1.5 
C -0.397805 -1.5 -0.77937 -1.341951 -1.06066 -1.06066 
C -1.341951 -0.77937 -1.5 -0.397805 -1.5 0 
C -1.5 0.397805 -1.341951 0.77937 -1.06066 1.06066 
C -0.77937 1.341951 -0.397805 1.5 0 1.5 
z
" id="m73e9d60806" style="stroke:#ff00ff;"/>
    </defs>
    <g>
     <use style="fill:#ff00ff;stroke:#ff00ff;" x="260.786262" xlink:href="#m73e9d60806" y="72.468985"/>
     <use style="fill:#ff00ff;stroke:#ff00ff;" x="260.786262" xlink:href="#m73e9d60806" y="72.468985"/>
    </g>
   </g>
   <g id="line2d_35">
    <path d="M 38.440992 298.944 
L 38.440992 295.783884 
L 50.52898 295.783884 
L 50.52898 294.730511 
L 57.6 294.730511 
L 57.6 292.097081 
L 66.508432 292.097081 
L 66.508432 291.043709 
L 69.687988 291.043709 
L 69.687988 287.356906 
L 74.704957 287.356906 
L 74.704957 286.83022 
L 76.759008 286.83022 
L 76.759008 285.250162 
L 80.258561 285.250162 
L 80.258561 282.616732 
L 84.464254 282.616732 
L 84.464254 281.563359 
L 85.66744 281.563359 
L 85.66744 280.509987 
L 86.792945 280.509987 
L 86.792945 279.456615 
L 87.850195 279.456615 
L 87.850195 278.403243 
L 93.863965 278.403243 
L 93.863965 275.769812 
L 95.259853 275.769812 
L 95.259853 275.243126 
L 97.16421 275.243126 
L 97.16421 274.71644 
L 98.32726 274.71644 
L 98.32726 273.663068 
L 106.66386 273.663068 
L 106.66386 272.609696 
L 109.252198 272.609696 
L 109.252198 271.556324 
L 109.843417 271.556324 
L 109.843417 270.502952 
L 113.965867 270.502952 
L 113.965867 269.976266 
L 114.418861 269.976266 
L 114.418861 269.449579 
L 114.860386 269.449579 
L 114.860386 268.922893 
L 115.917635 268.922893 
L 115.917635 268.396207 
L 116.914437 268.396207 
L 116.914437 267.869521 
L 118.220662 267.869521 
L 118.220662 267.342835 
L 119.43583 267.342835 
L 119.43583 266.816149 
L 120.571812 266.816149 
L 120.571812 265.762777 
L 120.728219 265.762777 
L 120.728219 265.236091 
L 123.192626 265.236091 
L 123.192626 264.709405 
L 123.460928 264.709405 
L 123.460928 263.656033 
L 124.241922 263.656033 
L 124.241922 263.129347 
L 125.588781 263.129347 
L 125.588781 262.60266 
L 126.053856 262.60266 
L 126.053856 262.075974 
L 126.729009 262.075974 
L 126.729009 261.022602 
L 127.48501 261.022602 
L 127.48501 260.495916 
L 132.422528 260.495916 
L 132.422528 259.96923 
L 133.946579 259.96923 
L 133.946579 259.442544 
L 135.348078 259.442544 
L 135.348078 258.915858 
L 135.878591 258.915858 
L 135.878591 258.389172 
L 137.259399 258.389172 
L 137.259399 257.3358 
L 137.558536 257.3358 
L 137.558536 256.809114 
L 137.794206 256.809114 
L 137.794206 256.282427 
L 138.538853 256.282427 
L 138.538853 255.229055 
L 138.927025 255.229055 
L 138.927025 254.702369 
L 139.783113 254.702369 
L 139.783113 254.175683 
L 140.64889 254.175683 
L 140.64889 253.648997 
L 142.840411 253.648997 
L 142.840411 253.122311 
L 143.31586 253.122311 
L 143.31586 252.068939 
L 144.229555 252.068939 
L 144.229555 251.015567 
L 144.787023 251.015567 
L 144.787023 250.488881 
L 145.289185 250.488881 
L 145.289185 249.962195 
L 145.703082 249.962195 
L 145.703082 249.435508 
L 145.961446 249.435508 
L 146.071013 247.85545 
L 147.802521 247.85545 
L 147.802521 247.328764 
L 148.950676 247.328764 
L 148.950676 246.802078 
L 149.527485 246.802078 
L 149.616841 245.748706 
L 150.143571 245.748706 
L 150.143571 245.22202 
L 150.457801 245.22202 
L 150.457801 244.695334 
L 150.822008 244.695334 
L 150.822008 244.168648 
L 151.260066 244.168648 
L 151.260066 243.641962 
L 152.155936 243.641962 
L 152.155936 243.115275 
L 152.410901 243.115275 
L 152.410901 242.588589 
L 153.820412 242.588589 
L 153.820412 241.535217 
L 154.167129 241.535217 
L 154.167129 240.481845 
L 154.707925 240.481845 
L 154.707925 239.955159 
L 155.783437 239.955159 
L 155.825108 238.901787 
L 156.45859 238.901787 
L 156.45859 238.375101 
L 157.735205 238.375101 
L 157.735205 237.321729 
L 158.159001 237.321729 
L 158.267884 236.268356 
L 158.554957 236.268356 
L 158.554957 235.74167 
L 158.907277 235.74167 
L 158.907277 235.214984 
L 159.080804 235.214984 
L 159.132527 233.634926 
L 159.69158 233.634926 
L 159.69158 233.10824 
L 159.84099 233.10824 
L 159.84099 232.054868 
L 160.200913 232.054868 
L 160.200913 231.528182 
L 161.131018 231.528182 
L 161.131018 229.948123 
L 161.374928 229.948123 
L 161.374928 229.421437 
L 161.555647 229.421437 
L 161.555647 228.894751 
L 161.970183 228.894751 
L 161.970183 228.368065 
L 162.812686 228.368065 
L 162.812686 227.841379 
L 162.965359 227.841379 
L 162.965359 227.314693 
L 163.320996 227.314693 
L 163.320996 226.788007 
L 163.589711 226.788007 
L 163.589711 225.734635 
L 163.8937 225.734635 
L 163.8937 225.207949 
L 164.166702 225.207949 
L 164.218222 224.154577 
L 164.295217 224.154577 
L 164.308016 223.101204 
L 164.410075 223.101204 
L 164.410075 222.574518 
L 164.524182 222.574518 
L 164.574657 219.941088 
L 164.700211 219.941088 
L 164.700211 219.414402 
L 165.242153 219.414402 
L 165.242153 217.834344 
L 165.744209 217.834344 
L 165.849938 216.780971 
L 166.289413 216.780971 
L 166.323641 215.727599 
L 166.425924 215.727599 
L 166.425924 215.200913 
L 166.684622 215.200913 
L 166.684622 214.147541 
L 167.395635 214.147541 
L 167.40635 213.094169 
L 168.047843 213.094169 
L 168.047843 212.567483 
L 168.222494 212.567483 
L 168.304082 209.934052 
L 168.365023 209.934052 
L 168.435853 207.827308 
L 168.666574 207.827308 
L 168.666574 206.773936 
L 168.943394 206.773936 
L 168.972794 205.193878 
L 169.157854 205.193878 
L 169.157854 204.140506 
L 169.53167 204.140506 
L 169.53167 203.613819 
L 170.43709 203.613819 
L 170.526891 202.560447 
L 170.642945 202.560447 
L 170.642945 202.033761 
L 171.073566 202.033761 
L 171.073566 201.507075 
L 171.451389 201.507075 
L 171.459882 200.453703 
L 172.150719 200.453703 
L 172.199614 199.400331 
L 172.673253 199.400331 
L 172.673253 198.873645 
L 172.893608 198.873645 
L 172.893608 198.346959 
L 173.371849 198.346959 
L 173.371849 197.293586 
L 173.538444 197.293586 
L 173.628647 195.186842 
L 173.733298 195.186842 
L 173.733298 194.660156 
L 173.852135 194.660156 
L 173.933369 193.606784 
L 174.66913 193.606784 
L 174.725545 192.553412 
L 174.942445 192.553412 
L 174.942445 192.026726 
L 175.347948 192.026726 
L 175.381884 190.973354 
L 175.590821 190.973354 
L 175.630972 188.866609 
L 175.955464 188.866609 
L 175.955464 188.339923 
L 176.131719 188.339923 
L 176.131719 187.813237 
L 176.24824 187.813237 
L 176.24824 187.286551 
L 176.376802 187.286551 
L 176.376802 186.759865 
L 176.981038 186.759865 
L 176.981038 185.706493 
L 177.135015 185.706493 
L 177.232851 184.653121 
L 177.257224 184.653121 
L 177.354379 182.546376 
L 177.402755 182.546376 
L 177.402755 182.01969 
L 178.130113 182.01969 
L 178.135904 180.966318 
L 178.37169 180.966318 
L 178.37169 180.439632 
L 178.60433 180.439632 
L 178.60433 179.912946 
L 179.065994 179.912946 
L 179.153601 178.332888 
L 179.316688 178.332888 
L 179.316688 177.806202 
L 179.440696 177.806202 
L 179.440696 177.279515 
L 179.579826 177.279515 
L 179.579826 176.752829 
L 179.707275 176.752829 
L 179.802255 175.172771 
L 179.854799 175.172771 
L 179.854799 174.646085 
L 180.140994 174.646085 
L 180.140994 174.119399 
L 180.346224 174.119399 
L 180.427645 172.012655 
L 180.599412 172.012655 
L 180.599412 170.959282 
L 180.933022 170.959282 
L 180.933022 169.90591 
L 181.050988 169.90591 
L 181.095021 168.325852 
L 181.240998 168.325852 
L 181.240998 167.799166 
L 181.433752 167.799166 
L 181.48161 166.219108 
L 181.657549 166.219108 
L 181.657549 165.692422 
L 181.822361 165.692422 
L 181.901854 164.63905 
L 182.105933 164.63905 
L 182.105933 164.112363 
L 182.289409 164.112363 
L 182.289409 163.585677 
L 182.766488 163.585677 
L 182.877129 162.005619 
L 182.973917 162.005619 
L 182.973917 161.478933 
L 183.295588 161.478933 
L 183.299894 160.425561 
L 183.437144 160.425561 
L 183.437144 159.898875 
L 183.662116 159.898875 
L 183.729465 157.79213 
L 184.04587 157.79213 
L 184.04587 157.265444 
L 184.646026 157.265444 
L 184.713659 156.212072 
L 184.761242 156.212072 
L 184.761242 155.685386 
L 184.911072 155.685386 
L 184.922846 154.632014 
L 185.075189 154.632014 
L 185.075189 154.105328 
L 185.199202 154.105328 
L 185.287795 151.471897 
L 185.84363 151.471897 
L 185.84363 150.945211 
L 186.208228 150.945211 
L 186.215516 149.891839 
L 186.396723 149.891839 
L 186.407536 148.838467 
L 186.601029 148.838467 
L 186.601029 148.311781 
L 186.929316 148.311781 
L 186.929316 147.785095 
L 191.225197 147.785095 
L 191.225197 147.258409 
L 192.130645 147.258409 
L 192.130645 146.731723 
L 192.742612 146.731723 
L 192.742612 146.205037 
L 193.636379 146.205037 
L 193.636379 145.678351 
L 193.973506 145.678351 
L 193.973506 145.151665 
L 194.409309 145.151665 
L 194.470686 144.098292 
L 194.574761 144.098292 
L 194.640056 143.04492 
L 195.55288 143.04492 
L 195.55288 142.518234 
L 195.804845 142.518234 
L 195.863606 141.464862 
L 196.164774 141.464862 
L 196.164774 140.938176 
L 196.302197 140.938176 
L 196.369487 139.884804 
L 196.614019 139.884804 
L 196.614019 139.358118 
L 197.085219 139.358118 
L 197.085219 138.831432 
L 197.419912 138.831432 
L 197.515459 137.778059 
L 197.589624 137.778059 
L 197.61996 136.724687 
L 197.968795 136.724687 
L 197.968795 136.198001 
L 198.21402 136.198001 
L 198.21402 135.671315 
L 198.506331 135.671315 
L 198.506331 135.144629 
L 198.664056 135.144629 
L 198.71928 134.091257 
L 198.776103 134.091257 
L 198.868047 133.037885 
L 201.830524 133.037885 
L 201.830524 132.511199 
L 203.879284 132.511199 
L 203.889865 131.457826 
L 204.067463 131.457826 
L 204.067463 130.93114 
L 204.540045 130.93114 
L 204.62265 129.877768 
L 204.991471 129.877768 
L 205.0559 128.824396 
L 205.111465 128.824396 
L 205.165624 127.771024 
L 205.263667 127.771024 
L 205.263667 127.244338 
L 205.410917 127.244338 
L 205.412128 126.190966 
L 205.56174 126.190966 
L 205.56174 125.66428 
L 205.814591 125.66428 
L 205.884313 124.084221 
L 206.010051 124.084221 
L 206.118605 121.977477 
L 208.888643 121.977477 
L 208.888643 121.450791 
L 209.624398 121.450791 
L 209.624398 120.924105 
L 209.904792 120.924105 
L 209.904792 120.397419 
L 210.394225 120.397419 
L 210.394225 119.344047 
L 210.623103 119.344047 
L 210.723473 117.763988 
L 210.952509 117.763988 
L 211.010619 116.18393 
L 211.096549 116.18393 
L 211.139355 114.603872 
L 213.481566 114.603872 
L 213.481566 114.077186 
L 214.43963 114.077186 
L 214.43963 111.970441 
L 214.880973 111.970441 
L 214.905598 110.390383 
L 217.369366 110.390383 
L 217.418132 109.337011 
L 217.894289 109.337011 
L 217.938066 108.283639 
L 218.087498 108.283639 
L 218.185636 106.176895 
L 220.481749 106.176895 
L 220.481749 105.123522 
L 220.604384 105.123522 
L 220.678765 103.543464 
L 222.993692 103.543464 
L 223.02638 102.490092 
L 223.138118 102.490092 
L 223.233014 101.43672 
L 225.075135 101.43672 
L 225.104149 100.383348 
L 225.203372 100.383348 
L 225.287696 99.329976 
L 226.82971 99.329976 
L 226.82971 98.803289 
L 226.960511 98.803289 
L 226.960511 98.276603 
L 227.108508 98.276603 
L 227.108508 97.749917 
L 228.520988 97.749917 
L 228.614454 95.643173 
L 228.638142 95.643173 
L 228.72048 94.063115 
L 231.474946 94.063115 
L 231.476306 92.483056 
L 234.147603 92.483056 
L 234.147603 91.95637 
L 235.140608 91.95637 
L 235.140608 90.902998 
L 235.313151 90.902998 
L 235.313151 90.376312 
L 236.208858 90.376312 
L 236.284336 88.269568 
L 236.351063 88.269568 
L 236.351063 87.742882 
L 237.215431 87.742882 
L 237.215431 87.216196 
L 237.368705 87.216196 
L 237.368705 86.68951 
L 239.177978 86.68951 
L 239.177978 85.636137 
L 239.92658 85.636137 
L 239.92658 85.109451 
L 240.745154 85.109451 
L 240.745154 84.056079 
L 241.631202 84.056079 
L 241.653511 83.002707 
L 243.041942 83.002707 
L 243.041942 82.476021 
L 243.679313 82.476021 
L 243.785259 80.895963 
L 244.341723 80.895963 
L 244.341723 80.369277 
L 244.979263 80.369277 
L 244.979263 79.842591 
L 246.224159 79.842591 
L 246.224159 79.315904 
L 247.321876 79.315904 
L 247.321876 78.789218 
L 248.89262 78.789218 
L 248.89262 78.262532 
L 249.385775 78.262532 
L 249.385775 77.735846 
L 250.333043 77.735846 
L 250.333043 77.20916 
L 250.859053 77.20916 
L 250.859053 76.682474 
L 251.66437 76.682474 
L 251.66437 76.155788 
L 252.085924 76.155788 
L 252.085924 75.629102 
L 252.900834 75.629102 
L 252.900834 75.102416 
L 255.504727 75.102416 
L 255.504727 74.57573 
L 255.877408 74.57573 
L 255.877408 74.049044 
L 256.805486 74.049044 
L 256.805486 73.522358 
L 257.734794 73.522358 
L 257.734794 72.995672 
L 260.786262 72.995672 
L 260.786262 72.468985 
L 338.688 72.468985 
L 338.688 72.468985 
" style="fill:none;stroke:#ff00ff;stroke-linecap:square;stroke-width:1.5;"/>
   </g>
   <g id="line2d_36">
    <defs>
     <path d="M -0 8.485281 
L 5.091169 0 
L 0 -8.485281 
L -5.091169 -0 
z
" id="m309e6f4fcc" style="stroke:#ff00ff;stroke-linejoin:miter;stroke-width:1.5;"/>
    </defs>
    <g>
     <use style="fill-opacity:0;stroke:#ff00ff;stroke-linejoin:miter;stroke-width:1.5;" x="98.32726" xlink:href="#m309e6f4fcc" y="274.71644"/>
     <use style="fill-opacity:0;stroke:#ff00ff;stroke-linejoin:miter;stroke-width:1.5;" x="170.526891" xlink:href="#m309e6f4fcc" y="203.087133"/>
     <use style="fill-opacity:0;stroke:#ff00ff;stroke-linejoin:miter;stroke-width:1.5;" x="220.678765" xlink:href="#m309e6f4fcc" y="104.07015"/>
     <use style="fill-opacity:0;stroke:#ff00ff;stroke-linejoin:miter;stroke-width:1.5;" x="260.786262" xlink:href="#m309e6f4fcc" y="72.995672"/>
     <use style="fill-opacity:0;stroke:#ff00ff;stroke-linejoin:miter;stroke-width:1.5;" x="260.786262" xlink:href="#m309e6f4fcc" y="72.468985"/>
     <use style="fill-opacity:0;stroke:#ff00ff;stroke-linejoin:miter;stroke-width:1.5;" x="338.688" xlink:href="#m309e6f4fcc" y="72.468985"/>
    </g>
   </g>
   <g id="line2d_37">
    <path style="fill:none;stroke:#ff00ff;stroke-linecap:square;stroke-width:1.5;"/>
    <g/>
   </g>
   <g id="line2d_38">
    <path clip-path="url(#pabe3781f97)" d="M 186.974717 147.785095 
" style="fill:none;stroke:#ff00ff;stroke-linecap:square;stroke-width:1.5;"/>
    <defs>
     <path d="M -12 12 
L 12 -12 
M -12 -12 
L 12 12 
" id="mc880245762" style="stroke:#ff00ff;"/>
    </defs>
    <g clip-path="url(#pabe3781f97)">
     <use style="fill:#ff00ff;stroke:#ff00ff;" x="186.974717" xlink:href="#mc880245762" y="147.785095"/>
    </g>
   </g>
   <g id="line2d_39">
    <defs>
     <path d="M 0 1.5 
C 0.397805 1.5 0.77937 1.341951 1.06066 1.06066 
C 1.341951 0.77937 1.5 0.397805 1.5 0 
C 1.5 -0.397805 1.341951 -0.77937 1.06066 -1.06066 
C 0.77937 -1.341951 0.397805 -1.5 0 -1.5 
C -0.397805 -1.5 -0.77937 -1.341951 -1.06066 -1.06066 
C -1.341951 -0.77937 -1.5 -0.397805 -1.5 0 
C -1.5 0.397805 -1.341951 0.77937 -1.06066 1.06066 
C -0.77937 1.341951 -0.397805 1.5 0 1.5 
z
" id="m01c5c5eb71" style="stroke:#ff7500;"/>
    </defs>
    <g>
     <use style="fill:#ff7500;stroke:#ff7500;" x="238.305249" xlink:href="#m01c5c5eb71" y="167.27248"/>
     <use style="fill:#ff7500;stroke:#ff7500;" x="238.305249" xlink:href="#m01c5c5eb71" y="167.27248"/>
    </g>
   </g>
   <g id="line2d_40">
    <path d="M 38.440992 298.944 
L 38.440992 295.783884 
L 50.52898 295.783884 
L 50.52898 294.203825 
L 57.6 294.203825 
L 57.6 292.097081 
L 62.616969 292.097081 
L 62.616969 291.570395 
L 69.687988 291.570395 
L 69.687988 287.883592 
L 74.704957 287.883592 
L 74.704957 287.356906 
L 76.759008 287.356906 
L 76.759008 285.776848 
L 80.258561 285.776848 
L 80.258561 283.143418 
L 84.464254 283.143418 
L 84.464254 282.616732 
L 85.66744 282.616732 
L 85.66744 281.563359 
L 86.792945 281.563359 
L 86.792945 279.983301 
L 87.850195 279.983301 
L 87.850195 279.456615 
L 91.535274 279.456615 
L 91.535274 278.929929 
L 93.863965 278.929929 
L 93.863965 277.349871 
L 95.259853 277.349871 
L 95.259853 276.823185 
L 97.16421 276.823185 
L 97.16421 275.769812 
L 98.32726 275.769812 
L 98.32726 274.71644 
L 102.330873 274.71644 
L 102.330873 274.189754 
L 104.033617 274.189754 
L 104.033617 273.663068 
L 104.826449 273.663068 
L 104.826449 273.136382 
L 105.209745 273.136382 
L 105.209745 272.609696 
L 108.006005 272.609696 
L 108.006005 272.08301 
L 108.948899 272.08301 
L 108.948899 271.556324 
L 111.505558 271.556324 
L 111.505558 271.029638 
L 112.026172 271.029638 
L 112.026172 269.976266 
L 113.73488 269.976266 
L 113.73488 269.449579 
L 114.860386 269.449579 
L 114.860386 268.922893 
L 118.751849 268.922893 
L 118.751849 268.396207 
L 118.925375 268.396207 
L 118.925375 267.342835 
L 119.931767 267.342835 
L 119.931767 266.289463 
L 122.782271 266.289463 
L 122.782271 265.762777 
L 124.114161 265.762777 
L 124.114161 264.709405 
L 125.351508 264.709405 
L 125.351508 264.182719 
L 126.053856 264.182719 
L 126.053856 263.656033 
L 126.281824 263.656033 
L 126.281824 263.129347 
L 130.926816 263.129347 
L 131.013364 261.549288 
L 131.690703 261.549288 
L 131.690703 261.022602 
L 132.581068 261.022602 
L 132.581068 259.442544 
L 132.73818 259.442544 
L 132.816208 258.389172 
L 133.72629 258.389172 
L 133.72629 257.862486 
L 137.794206 257.862486 
L 137.794206 256.809114 
L 138.538853 256.809114 
L 138.538853 256.282427 
L 139.090775 256.282427 
L 139.199094 254.702369 
L 141.090414 254.702369 
L 141.090414 254.175683 
L 141.47371 254.175683 
L 141.47371 253.648997 
L 142.396639 253.648997 
L 142.486301 252.595625 
L 143.358447 252.595625 
L 143.358447 252.068939 
L 144.06695 252.068939 
L 144.06695 251.542253 
L 144.826168 251.542253 
L 144.826168 251.015567 
L 145.251067 251.015567 
L 145.251067 250.488881 
L 147.536775 250.488881 
L 147.536775 249.962195 
L 147.901141 249.962195 
L 147.901141 248.908822 
L 148.449693 248.908822 
L 148.449693 247.85545 
L 149.407627 247.85545 
L 149.407627 247.328764 
L 149.646525 247.328764 
L 149.646525 246.802078 
L 149.940618 246.802078 
L 149.940618 246.275392 
L 150.570677 246.275392 
L 150.570677 245.748706 
L 150.766468 245.748706 
L 150.766468 244.695334 
L 151.660987 244.695334 
L 151.660987 244.168648 
L 153.226778 244.168648 
L 153.226778 243.641962 
L 153.656221 243.641962 
L 153.656221 243.115275 
L 154.235652 243.115275 
L 154.235652 242.061903 
L 155.741666 242.061903 
L 155.741666 241.535217 
L 156.498681 241.535217 
L 156.498681 241.008531 
L 157.1279 241.008531 
L 157.1279 239.955159 
L 159.201253 239.955159 
L 159.201253 239.428473 
L 159.658204 239.428473 
L 159.658204 238.901787 
L 161.39006 238.901787 
L 161.420284 237.321729 
L 161.615474 237.321729 
L 161.615474 236.268356 
L 163.616356 236.268356 
L 163.616356 235.74167 
L 163.854349 235.74167 
L 163.867476 234.688298 
L 164.050224 234.688298 
L 164.050224 234.161612 
L 165.120455 234.161612 
L 165.120455 233.634926 
L 165.602233 233.634926 
L 165.602233 233.10824 
L 166.266556 233.10824 
L 166.289413 232.054868 
L 166.425924 232.054868 
L 166.425924 231.528182 
L 166.695783 231.528182 
L 166.695783 231.001496 
L 167.125588 231.001496 
L 167.169078 229.948123 
L 168.304082 229.948123 
L 168.304082 228.894751 
L 168.646632 228.894751 
L 168.646632 228.368065 
L 169.206229 228.368065 
L 169.206229 227.314693 
L 169.94401 227.314693 
L 169.94401 226.788007 
L 171.168792 226.788007 
L 171.168792 226.261321 
L 172.264595 226.261321 
L 172.264595 225.734635 
L 173.172891 225.734635 
L 173.172891 225.207949 
L 173.598631 225.207949 
L 173.598631 224.681263 
L 173.770522 224.681263 
L 173.770522 224.154577 
L 174.377103 224.154577 
L 174.377103 223.627891 
L 174.569962 223.627891 
L 174.569962 223.101204 
L 175.77741 223.101204 
L 175.77741 222.574518 
L 176.04055 222.574518 
L 176.04055 222.047832 
L 176.738086 222.047832 
L 176.738086 220.99446 
L 176.881775 220.99446 
L 176.881775 219.941088 
L 177.293721 219.941088 
L 177.293721 219.414402 
L 178.170609 219.414402 
L 178.170609 217.834344 
L 178.55918 217.834344 
L 178.58177 216.780971 
L 178.950337 216.780971 
L 178.950337 216.254285 
L 179.429948 216.254285 
L 179.537135 214.674227 
L 179.659591 214.674227 
L 179.659591 214.147541 
L 179.938541 214.147541 
L 179.938541 213.094169 
L 180.453011 213.094169 
L 180.453011 212.567483 
L 180.694668 212.567483 
L 180.714656 211.514111 
L 181.177891 211.514111 
L 181.177891 210.987425 
L 181.457697 210.987425 
L 181.457697 210.460738 
L 182.184146 210.460738 
L 182.280281 209.407366 
L 182.330427 209.407366 
L 182.389504 208.353994 
L 182.556562 208.353994 
L 182.556562 207.827308 
L 183.013357 207.827308 
L 183.013357 207.300622 
L 183.636792 207.300622 
L 183.636792 206.24725 
L 184.082962 206.24725 
L 184.169204 205.193878 
L 184.267247 205.193878 
L 184.320124 203.613819 
L 184.582131 203.613819 
L 184.638052 202.033761 
L 184.741431 202.033761 
L 184.741431 201.507075 
L 184.965949 201.507075 
L 184.965949 200.980389 
L 185.156672 200.980389 
L 185.156672 199.927017 
L 185.268574 199.927017 
L 185.268574 198.873645 
L 185.554689 198.873645 
L 185.581155 197.820273 
L 185.832462 197.820273 
L 185.832462 197.293586 
L 186.135184 197.293586 
L 186.215516 193.080098 
L 186.533193 193.080098 
L 186.622397 190.446667 
L 196.831402 190.446667 
L 196.872973 189.393295 
L 197.914864 189.393295 
L 197.914864 188.866609 
L 198.23049 188.866609 
L 198.23049 188.339923 
L 198.367141 188.339923 
L 198.367141 187.813237 
L 198.637272 187.813237 
L 198.653347 186.759865 
L 198.843341 186.759865 
L 198.887435 185.706493 
L 203.340498 185.706493 
L 203.340498 185.179807 
L 204.704867 185.179807 
L 204.704867 184.653121 
L 205.420608 184.653121 
L 205.420608 184.126434 
L 205.583351 184.126434 
L 205.673112 183.073062 
L 205.858348 183.073062 
L 205.858348 182.546376 
L 206.017075 182.546376 
L 206.017075 182.01969 
L 210.090174 182.01969 
L 210.090174 181.493004 
L 210.80638 181.493004 
L 210.80638 180.966318 
L 210.944569 180.966318 
L 211.041357 179.912946 
L 211.063279 179.912946 
L 211.063279 179.38626 
L 214.198964 179.38626 
L 214.198964 178.859574 
L 214.877453 178.859574 
L 214.954742 176.752829 
L 218.081053 176.752829 
L 218.132546 175.172771 
L 220.751322 175.172771 
L 220.751322 174.646085 
L 223.17185 174.646085 
L 223.19503 173.592713 
L 225.201424 173.592713 
L 225.244224 172.539341 
L 226.993235 172.539341 
L 226.993235 172.012655 
L 228.76055 172.012655 
L 228.76055 171.485969 
L 230.195685 171.485969 
L 230.280613 170.432596 
L 231.67874 170.432596 
L 231.67874 169.90591 
L 237.356485 169.90591 
L 237.356485 168.325852 
L 238.300655 168.325852 
L 238.305249 167.27248 
L 338.688 167.27248 
L 338.688 167.27248 
" style="fill:none;stroke:#ff7500;stroke-linecap:square;stroke-width:1.5;"/>
   </g>
   <g id="line2d_41">
    <defs>
     <path d="M 0 -6 
L -1.347084 -1.854102 
L -5.706339 -1.854102 
L -2.179628 0.708204 
L -3.526712 4.854102 
L -0 2.291796 
L 3.526712 4.854102 
L 2.179628 0.708204 
L 5.706339 -1.854102 
L 1.347084 -1.854102 
z
" id="mbd64f6ec55" style="stroke:#ff7500;stroke-linejoin:bevel;stroke-width:1.5;"/>
    </defs>
    <g>
     <use style="fill-opacity:0;stroke:#ff7500;stroke-linejoin:bevel;stroke-width:1.5;" x="113.73488" xlink:href="#mbd64f6ec55" y="269.976266"/>
     <use style="fill-opacity:0;stroke:#ff7500;stroke-linejoin:bevel;stroke-width:1.5;" x="165.602233" xlink:href="#mbd64f6ec55" y="233.634926"/>
     <use style="fill-opacity:0;stroke:#ff7500;stroke-linejoin:bevel;stroke-width:1.5;" x="214.954742" xlink:href="#mbd64f6ec55" y="176.752829"/>
     <use style="fill-opacity:0;stroke:#ff7500;stroke-linejoin:bevel;stroke-width:1.5;" x="238.305249" xlink:href="#mbd64f6ec55" y="167.27248"/>
     <use style="fill-opacity:0;stroke:#ff7500;stroke-linejoin:bevel;stroke-width:1.5;" x="238.305249" xlink:href="#mbd64f6ec55" y="167.27248"/>
     <use style="fill-opacity:0;stroke:#ff7500;stroke-linejoin:bevel;stroke-width:1.5;" x="338.688" xlink:href="#mbd64f6ec55" y="167.27248"/>
    </g>
   </g>
   <g id="line2d_42">
    <path style="fill:none;stroke:#ff7500;stroke-linecap:square;stroke-width:1.5;"/>
    <g/>
   </g>
   <g id="line2d_43">
    <path clip-path="url(#pabe3781f97)" d="M 186.974717 190.446667 
" style="fill:none;stroke:#ff7500;stroke-linecap:square;stroke-width:1.5;"/>
    <defs>
     <path d="M -12 12 
L 12 -12 
M -12 -12 
L 12 12 
" id="mf3bd094806" style="stroke:#ff7500;"/>
    </defs>
    <g clip-path="url(#pabe3781f97)">
     <use style="fill:#ff7500;stroke:#ff7500;" x="186.974717" xlink:href="#mf3bd094806" y="190.446667"/>
    </g>
   </g>
   <g id="line2d_44">
    <defs>
     <path d="M 0 1.5 
C 0.397805 1.5 0.77937 1.341951 1.06066 1.06066 
C 1.341951 0.77937 1.5 0.397805 1.5 0 
C 1.5 -0.397805 1.341951 -0.77937 1.06066 -1.06066 
C 0.77937 -1.341951 0.397805 -1.5 0 -1.5 
C -0.397805 -1.5 -0.77937 -1.341951 -1.06066 -1.06066 
C -1.341951 -0.77937 -1.5 -0.397805 -1.5 0 
C -1.5 0.397805 -1.341951 0.77937 -1.06066 1.06066 
C -0.77937 1.341951 -0.397805 1.5 0 1.5 
z
" id="m2ea5cacbdb" style="stroke:#6495ed;"/>
    </defs>
    <g>
     <use style="fill:#6495ed;stroke:#6495ed;" x="259.770132" xlink:href="#m2ea5cacbdb" y="35.60096"/>
     <use style="fill:#6495ed;stroke:#6495ed;" x="259.770132" xlink:href="#m2ea5cacbdb" y="35.60096"/>
    </g>
   </g>
   <g id="line2d_45">
    <path d="M 38.440992 298.944 
L 38.440992 295.783884 
L 50.52898 295.783884 
L 50.52898 294.730511 
L 57.6 294.730511 
L 57.6 293.150453 
L 66.508432 293.150453 
L 66.508432 292.097081 
L 69.687988 292.097081 
L 69.687988 288.410278 
L 76.759008 288.410278 
L 76.759008 287.356906 
L 80.258561 287.356906 
L 80.258561 284.19679 
L 81.775977 284.19679 
L 81.775977 283.670104 
L 84.464254 283.670104 
L 84.464254 283.143418 
L 85.66744 283.143418 
L 85.66744 281.563359 
L 86.792945 281.563359 
L 86.792945 279.983301 
L 87.850195 279.983301 
L 87.850195 279.456615 
L 91.535274 279.456615 
L 91.535274 278.929929 
L 93.863965 278.929929 
L 93.863965 276.823185 
L 97.16421 276.823185 
L 97.16421 275.769812 
L 98.32726 275.769812 
L 98.32726 275.243126 
L 104.033617 275.243126 
L 104.033617 274.71644 
L 104.826449 274.71644 
L 104.826449 274.189754 
L 112.026172 274.189754 
L 112.026172 273.663068 
L 113.73488 273.663068 
L 113.73488 273.136382 
L 114.641021 273.136382 
L 114.641021 272.08301 
L 114.860386 272.08301 
L 114.860386 271.556324 
L 116.121606 271.556324 
L 116.121606 271.029638 
L 117.107138 271.029638 
L 117.107138 270.502952 
L 117.857331 270.502952 
L 117.857331 269.449579 
L 118.925375 269.449579 
L 118.925375 268.922893 
L 119.768017 268.922893 
L 119.768017 267.869521 
L 120.883236 267.869521 
L 120.883236 267.342835 
L 121.036887 267.342835 
L 121.036887 266.816149 
L 122.920132 266.816149 
L 122.920132 266.289463 
L 123.056911 266.289463 
L 123.056911 264.709405 
L 123.327293 264.709405 
L 123.327293 263.129347 
L 124.114161 263.129347 
L 124.114161 261.549288 
L 126.3947 261.549288 
L 126.3947 261.022602 
L 127.05703 261.022602 
L 127.05703 259.442544 
L 131.355321 259.442544 
L 131.355321 257.862486 
L 131.690703 257.862486 
L 131.690703 256.809114 
L 132.019755 256.809114 
L 132.019755 256.282427 
L 133.04822 256.282427 
L 133.04822 255.755741 
L 133.72629 255.755741 
L 133.72629 255.229055 
L 134.091907 255.229055 
L 134.091907 254.175683 
L 134.450015 254.175683 
L 134.450015 253.648997 
L 135.00812 253.648997 
L 135.00812 253.122311 
L 135.415281 253.122311 
L 135.415281 252.595625 
L 137.198951 252.595625 
L 137.198951 252.068939 
L 137.968891 252.068939 
L 137.968891 251.542253 
L 138.426341 251.542253 
L 138.426341 251.015567 
L 140.549236 251.015567 
L 140.549236 249.962195 
L 140.846504 249.962195 
L 140.846504 249.435508 
L 141.33096 249.435508 
L 141.33096 248.908822 
L 142.796538 248.908822 
L 142.840411 247.85545 
L 143.44331 247.85545 
L 143.44331 247.328764 
L 144.107744 247.328764 
L 144.107744 245.748706 
L 144.470655 245.748706 
L 144.470655 244.695334 
L 144.708467 244.695334 
L 144.708467 244.168648 
L 145.136208 244.168648 
L 145.136208 243.641962 
L 146.395642 243.641962 
L 146.395642 243.115275 
L 147.96658 243.115275 
L 147.96658 242.588589 
L 149.407627 242.588589 
L 149.407627 242.061903 
L 151.844975 242.061903 
L 151.949246 240.481845 
L 153.056874 240.481845 
L 153.056874 239.955159 
L 153.773658 239.955159 
L 153.773658 239.428473 
L 153.913546 239.428473 
L 153.913546 238.901787 
L 154.303908 238.901787 
L 154.303908 238.375101 
L 155.253971 238.375101 
L 155.253971 237.848415 
L 155.55245 237.848415 
L 155.55245 237.321729 
L 157.566527 237.321729 
L 157.641697 235.74167 
L 159.439685 235.74167 
L 159.439685 235.214984 
L 159.608019 235.214984 
L 159.608019 234.688298 
L 161.146363 234.688298 
L 161.146363 233.634926 
L 161.359783 233.634926 
L 161.359783 233.10824 
L 161.79373 233.10824 
L 161.79373 232.581554 
L 163.280329 232.581554 
L 163.293895 231.528182 
L 163.482721 231.528182 
L 163.482721 231.001496 
L 164.549438 231.001496 
L 164.549438 230.47481 
L 164.725213 230.47481 
L 164.725213 229.948123 
L 166.128786 229.948123 
L 166.128786 229.421437 
L 166.346422 229.421437 
L 166.346422 228.894751 
L 166.471192 228.894751 
L 166.471192 228.368065 
L 166.784816 228.368065 
L 166.784816 227.841379 
L 167.491837 227.841379 
L 167.491837 227.314693 
L 167.808732 227.314693 
L 167.808732 226.788007 
L 168.666574 226.788007 
L 168.666574 226.261321 
L 169.379278 226.261321 
L 169.379278 225.734635 
L 169.851149 225.734635 
L 169.851149 225.207949 
L 170.256089 225.207949 
L 170.346825 223.627891 
L 170.517932 223.627891 
L 170.517932 223.101204 
L 170.916612 223.101204 
L 170.916612 222.574518 
L 171.194673 222.574518 
L 171.194673 222.047832 
L 171.895887 222.047832 
L 171.928978 219.414402 
L 172.199614 219.414402 
L 172.199614 218.887716 
L 172.474127 218.887716 
L 172.474127 218.36103 
L 173.072554 218.36103 
L 173.103489 217.307658 
L 173.740749 217.307658 
L 173.740749 216.780971 
L 174.725545 216.780971 
L 174.725545 216.254285 
L 175.279879 216.254285 
L 175.279879 215.727599 
L 175.456309 215.727599 
L 175.55729 214.674227 
L 176.073165 214.674227 
L 176.073165 214.147541 
L 176.319066 214.147541 
L 176.319066 213.620855 
L 177.055116 213.620855 
L 177.055116 213.094169 
L 177.696161 213.094169 
L 177.790908 211.514111 
L 177.949635 211.514111 
L 177.949635 210.460738 
L 178.280055 210.460738 
L 178.280055 209.934052 
L 178.598693 209.934052 
L 178.598693 209.407366 
L 178.716697 209.407366 
L 178.778192 208.353994 
L 178.977944 208.353994 
L 178.977944 207.827308 
L 179.153601 207.827308 
L 179.153601 207.300622 
L 179.6755 207.300622 
L 179.6755 206.773936 
L 180.254169 206.773936 
L 180.330916 205.193878 
L 180.609464 205.193878 
L 180.689668 203.613819 
L 180.853932 203.613819 
L 180.933022 202.033761 
L 180.997019 202.033761 
L 180.997019 201.507075 
L 181.138942 201.507075 
L 181.138942 199.927017 
L 181.303877 199.927017 
L 181.31353 198.873645 
L 181.756623 198.873645 
L 181.756623 198.346959 
L 182.507063 198.346959 
L 182.507063 197.820273 
L 183.026484 197.820273 
L 183.026484 197.293586 
L 183.594505 197.293586 
L 183.674764 195.713528 
L 183.796556 195.713528 
L 183.838356 194.13347 
L 183.963161 194.13347 
L 184.066487 191.50004 
L 184.15691 191.50004 
L 184.15691 190.973354 
L 184.469749 190.973354 
L 184.48987 189.919981 
L 184.598127 189.919981 
L 184.618101 188.866609 
L 184.792892 188.866609 
L 184.792892 188.339923 
L 184.993323 188.339923 
L 185.086853 187.286551 
L 185.573597 187.286551 
L 185.611353 185.179807 
L 185.716636 185.179807 
L 185.780249 183.599748 
L 185.84363 183.599748 
L 185.84363 183.073062 
L 186.028723 183.073062 
L 186.08754 180.966318 
L 186.317224 180.966318 
L 186.317224 180.439632 
L 186.4615 180.439632 
L 186.493798 179.38626 
L 186.604592 179.38626 
L 186.622397 178.332888 
L 186.76418 178.332888 
L 186.785349 177.279515 
L 188.407055 177.279515 
L 188.407055 176.752829 
L 189.305589 176.752829 
L 189.305589 176.226143 
L 189.578083 176.226143 
L 189.578083 175.699457 
L 189.937852 175.699457 
L 189.94962 174.646085 
L 190.547993 174.646085 
L 190.547993 173.592713 
L 191.635806 173.592713 
L 191.635806 172.539341 
L 192.295947 172.539341 
L 192.295947 172.012655 
L 192.523247 172.012655 
L 192.523247 171.485969 
L 192.634535 171.485969 
L 192.634535 170.959282 
L 192.820115 170.959282 
L 192.820115 170.432596 
L 193.114466 170.432596 
L 193.114466 168.325852 
L 193.278033 168.325852 
L 193.278033 167.799166 
L 193.471348 167.799166 
L 193.471348 167.27248 
L 193.945464 167.27248 
L 193.945464 166.745794 
L 194.177775 166.745794 
L 194.237672 165.692422 
L 194.536371 165.692422 
L 194.536371 164.63905 
L 195.064099 164.63905 
L 195.12759 162.532305 
L 195.251713 162.532305 
L 195.251713 162.005619 
L 195.372805 162.005619 
L 195.441625 160.952247 
L 195.586971 160.952247 
L 195.627366 159.898875 
L 196.024184 159.898875 
L 196.024184 158.318817 
L 196.168892 158.318817 
L 196.168892 156.738758 
L 196.289935 156.738758 
L 196.387794 155.1587 
L 196.45678 155.1587 
L 196.46083 154.105328 
L 196.867041 154.105328 
L 196.971556 152.52527 
L 197.18067 152.52527 
L 197.200086 150.945211 
L 197.454369 150.945211 
L 197.494484 149.365153 
L 197.621854 149.365153 
L 197.669144 148.311781 
L 197.914864 148.311781 
L 197.924174 147.258409 
L 198.089073 147.258409 
L 198.100134 145.678351 
L 198.378027 145.678351 
L 198.475696 142.518234 
L 198.506331 142.518234 
L 198.596122 139.884804 
L 198.624758 139.884804 
L 198.64799 138.831432 
L 198.737058 138.831432 
L 198.807985 137.778059 
L 198.957755 137.778059 
L 198.968279 136.724687 
L 199.793576 136.724687 
L 199.793576 136.198001 
L 201.194093 136.198001 
L 201.194093 135.671315 
L 201.344685 135.671315 
L 201.344685 135.144629 
L 201.519756 135.144629 
L 201.548513 133.564571 
L 201.875106 133.564571 
L 201.924016 132.511199 
L 202.163609 132.511199 
L 202.271304 130.93114 
L 202.448852 130.93114 
L 202.470381 129.877768 
L 202.567648 129.877768 
L 202.567648 129.351082 
L 202.863248 129.351082 
L 202.863248 128.824396 
L 203.09036 128.824396 
L 203.09036 128.29771 
L 203.574986 128.29771 
L 203.6113 125.66428 
L 203.687714 125.66428 
L 203.687714 124.610907 
L 203.852802 124.610907 
L 203.852802 124.084221 
L 204.022904 124.084221 
L 204.022904 123.557535 
L 204.258812 123.557535 
L 204.342757 121.450791 
L 204.396784 121.450791 
L 204.396784 120.924105 
L 205.024954 120.924105 
L 205.1016 116.710616 
L 205.14964 116.710616 
L 205.217165 114.603872 
L 205.526865 114.603872 
L 205.526865 114.077186 
L 205.691009 114.077186 
L 205.691009 113.5505 
L 205.824061 113.5505 
L 205.917304 109.863697 
L 205.974888 109.863697 
L 206.070831 108.810325 
L 207.407919 108.810325 
L 207.407919 107.756953 
L 207.687726 107.756953 
L 207.687726 106.703581 
L 208.092441 106.703581 
L 208.092441 106.176895 
L 208.424882 106.176895 
L 208.462563 104.07015 
L 208.574106 104.07015 
L 208.574106 103.543464 
L 209.115489 103.543464 
L 209.148774 102.490092 
L 209.271572 102.490092 
L 209.271572 101.963406 
L 209.697527 101.963406 
L 209.778842 99.329976 
L 210.136445 99.329976 
L 210.136445 98.803289 
L 210.260765 98.803289 
L 210.260765 98.276603 
L 210.382383 98.276603 
L 210.445145 97.223231 
L 210.630291 97.223231 
L 210.670672 96.169859 
L 210.782351 96.169859 
L 210.854339 94.589801 
L 210.918963 94.589801 
L 210.944569 93.536429 
L 211.063279 93.536429 
L 211.143717 91.95637 
L 211.519958 91.95637 
L 211.519958 91.429684 
L 211.967478 91.429684 
L 211.967478 90.902998 
L 212.546045 90.902998 
L 212.546045 90.376312 
L 212.896659 90.376312 
L 212.937633 89.32294 
L 213.154293 89.32294 
L 213.154293 88.796254 
L 213.433438 88.796254 
L 213.459428 87.742882 
L 213.616074 87.742882 
L 213.674267 86.68951 
L 213.74805 86.68951 
L 213.74805 85.636137 
L 213.985344 85.636137 
L 214.047489 83.529393 
L 214.196767 83.529393 
L 214.196767 83.002707 
L 214.391906 83.002707 
L 214.416507 81.949335 
L 214.797697 81.949335 
L 214.877453 79.842591 
L 214.912627 79.842591 
L 215.000253 78.262532 
L 215.676433 78.262532 
L 215.676433 77.735846 
L 215.991071 77.735846 
L 215.991071 77.20916 
L 216.378489 77.20916 
L 216.378489 76.682474 
L 216.766335 76.682474 
L 216.839482 75.629102 
L 216.979246 75.629102 
L 217.041558 74.049044 
L 217.118517 74.049044 
L 217.19822 72.995672 
L 217.552144 72.995672 
L 217.552144 72.468985 
L 217.681536 72.468985 
L 217.754534 69.308869 
L 217.850402 69.308869 
L 217.850402 68.782183 
L 217.996462 68.782183 
L 218.037634 66.675439 
L 218.190295 66.675439 
L 218.217063 65.622066 
L 219.943996 65.622066 
L 219.949788 64.568694 
L 220.20535 64.568694 
L 220.253533 62.988636 
L 220.337662 62.988636 
L 220.448013 61.408578 
L 220.4654 61.408578 
L 220.523063 60.355206 
L 220.700463 60.355206 
L 220.700463 59.82852 
L 220.860093 59.82852 
L 220.883064 58.775147 
L 222.082923 58.775147 
L 222.082923 58.248461 
L 222.768965 58.248461 
L 222.768965 57.721775 
L 222.944544 57.721775 
L 222.960942 56.668403 
L 223.070017 56.668403 
L 223.130223 54.561659 
L 225.163985 54.561659 
L 225.23645 52.454914 
L 226.40261 52.454914 
L 226.40261 51.928228 
L 226.755389 51.928228 
L 226.851342 50.874856 
L 227.095232 50.874856 
L 227.095232 50.34817 
L 228.187396 50.34817 
L 228.187396 49.821484 
L 228.516801 49.821484 
L 228.52936 48.768112 
L 228.775156 48.768112 
L 228.775156 48.241426 
L 230.085039 48.241426 
L 230.085039 47.71474 
L 230.197148 47.71474 
L 230.294 45.607995 
L 230.952552 45.607995 
L 230.952552 45.081309 
L 231.620871 45.081309 
L 231.642426 44.027937 
L 232.805589 44.027937 
L 232.805589 43.501251 
L 232.936085 43.501251 
L 232.984521 41.921193 
L 234.113517 41.921193 
L 234.188605 40.341135 
L 235.304859 40.341135 
L 235.304859 39.814448 
L 236.314642 39.814448 
L 236.38228 38.761076 
L 236.810739 38.761076 
L 236.810739 38.23439 
L 239.823462 38.23439 
L 239.823462 37.707704 
L 240.060029 37.707704 
L 240.060029 37.181018 
L 242.389842 37.181018 
L 242.389842 36.127646 
L 259.770132 36.127646 
L 259.770132 35.60096 
L 338.688 35.60096 
L 338.688 35.60096 
" style="fill:none;stroke:#6495ed;stroke-linecap:square;stroke-width:1.5;"/>
   </g>
   <g id="line2d_46">
    <defs>
     <path d="M -0 6 
L 6 -6 
L -6 -6 
z
" id="mee0f79ef4f" style="stroke:#6495ed;stroke-linejoin:miter;stroke-width:1.5;"/>
    </defs>
    <g>
     <use style="fill-opacity:0;stroke:#6495ed;stroke-linejoin:miter;stroke-width:1.5;" x="104.826449" xlink:href="#mee0f79ef4f" y="274.71644"/>
     <use style="fill-opacity:0;stroke:#6495ed;stroke-linejoin:miter;stroke-width:1.5;" x="183.026484" xlink:href="#mee0f79ef4f" y="197.293586"/>
     <use style="fill-opacity:0;stroke:#6495ed;stroke-linejoin:miter;stroke-width:1.5;" x="217.850402" xlink:href="#mee0f79ef4f" y="68.782183"/>
     <use style="fill-opacity:0;stroke:#6495ed;stroke-linejoin:miter;stroke-width:1.5;" x="259.770132" xlink:href="#mee0f79ef4f" y="36.127646"/>
     <use style="fill-opacity:0;stroke:#6495ed;stroke-linejoin:miter;stroke-width:1.5;" x="259.770132" xlink:href="#mee0f79ef4f" y="35.60096"/>
     <use style="fill-opacity:0;stroke:#6495ed;stroke-linejoin:miter;stroke-width:1.5;" x="338.688" xlink:href="#mee0f79ef4f" y="35.60096"/>
    </g>
   </g>
   <g id="line2d_47">
    <path style="fill:none;stroke:#6495ed;stroke-linecap:square;stroke-width:1.5;"/>
    <g/>
   </g>
   <g id="line2d_48">
    <path clip-path="url(#pabe3781f97)" d="M 186.974717 177.279515 
" style="fill:none;stroke:#6495ed;stroke-linecap:square;stroke-width:1.5;"/>
    <defs>
     <path d="M -12 12 
L 12 -12 
M -12 -12 
L 12 12 
" id="m16dcaca7ee" style="stroke:#6495ed;"/>
    </defs>
    <g clip-path="url(#pabe3781f97)">
     <use style="fill:#6495ed;stroke:#6495ed;" x="186.974717" xlink:href="#m16dcaca7ee" y="177.279515"/>
    </g>
   </g>
   <g id="line2d_49">
    <path d="M 338.688 167.27248 
L 369.60768 293.571802 
" style="fill:none;stroke:#ff7500;stroke-linecap:square;stroke-width:1.5;"/>
    <g>
     <use style="fill-opacity:0;stroke:#ff7500;stroke-linejoin:bevel;stroke-width:1.5;" x="338.688" xlink:href="#mbd64f6ec55" y="167.27248"/>
     <use style="fill-opacity:0;stroke:#ff7500;stroke-linejoin:bevel;stroke-width:1.5;" x="369.60768" xlink:href="#mbd64f6ec55" y="293.571802"/>
    </g>
   </g>
   <g id="line2d_50">
    <path d="M 338.688 72.468985 
L 369.60768 207.616634 
" style="fill:none;stroke:#ff00ff;stroke-linecap:square;stroke-width:1.5;"/>
    <g>
     <use style="fill-opacity:0;stroke:#ff00ff;stroke-linejoin:miter;stroke-width:1.5;" x="338.688" xlink:href="#m309e6f4fcc" y="72.468985"/>
     <use style="fill-opacity:0;stroke:#ff00ff;stroke-linejoin:miter;stroke-width:1.5;" x="369.60768" xlink:href="#m309e6f4fcc" y="207.616634"/>
    </g>
   </g>
   <g id="line2d_51">
    <path d="M 338.688 35.60096 
L 369.60768 121.661465 
" style="fill:none;stroke:#6495ed;stroke-linecap:square;stroke-width:1.5;"/>
    <g>
     <use style="fill-opacity:0;stroke:#6495ed;stroke-linejoin:miter;stroke-width:1.5;" x="338.688" xlink:href="#mee0f79ef4f" y="35.60096"/>
     <use style="fill-opacity:0;stroke:#6495ed;stroke-linejoin:miter;stroke-width:1.5;" x="369.60768" xlink:href="#mee0f79ef4f" y="121.661465"/>
    </g>
   </g>
   <g id="line2d_52">
    <path d="M 338.688 298.944 
L 338.688 30.334099 
" style="fill:none;stroke:#000000;stroke-linecap:square;stroke-width:1.5;"/>
   </g>
   <g id="patch_3">
    <path d="M 57.6 298.944 
L 57.6 27.648 
" style="fill:none;stroke:#000000;stroke-linecap:square;stroke-linejoin:miter;stroke-width:0.8;"/>
   </g>
   <g id="patch_4">
    <path d="M 338.688 298.944 
L 338.688 27.648 
" style="fill:none;stroke:#000000;stroke-linecap:square;stroke-linejoin:miter;stroke-width:0.8;"/>
   </g>
   <g id="patch_5">
    <path d="M 57.6 298.944 
L 338.688 298.944 
" style="fill:none;stroke:#000000;stroke-linecap:square;stroke-linejoin:miter;stroke-width:0.8;"/>
   </g>
   <g id="patch_6">
    <path d="M 57.6 27.648 
L 338.688 27.648 
" style="fill:none;stroke:#000000;stroke-linecap:square;stroke-linejoin:miter;stroke-width:0.8;"/>
   </g>
   <g id="text_13">
    <!-- DEPSO -->
    <defs>
     <path d="M 19.671875 64.796875 
L 19.671875 8.109375 
L 31.59375 8.109375 
Q 46.6875 8.109375 53.6875 14.9375 
Q 60.6875 21.78125 60.6875 36.53125 
Q 60.6875 51.171875 53.6875 57.984375 
Q 46.6875 64.796875 31.59375 64.796875 
z
M 9.8125 72.90625 
L 30.078125 72.90625 
Q 51.265625 72.90625 61.171875 64.09375 
Q 71.09375 55.28125 71.09375 36.53125 
Q 71.09375 17.671875 61.125 8.828125 
Q 51.171875 0 30.078125 0 
L 9.8125 0 
z
" id="DejaVuSans-68"/>
     <path d="M 9.8125 72.90625 
L 55.90625 72.90625 
L 55.90625 64.59375 
L 19.671875 64.59375 
L 19.671875 43.015625 
L 54.390625 43.015625 
L 54.390625 34.71875 
L 19.671875 34.71875 
L 19.671875 8.296875 
L 56.78125 8.296875 
L 56.78125 0 
L 9.8125 0 
z
" id="DejaVuSans-69"/>
     <path d="M 19.671875 64.796875 
L 19.671875 37.40625 
L 32.078125 37.40625 
Q 38.96875 37.40625 42.71875 40.96875 
Q 46.484375 44.53125 46.484375 51.125 
Q 46.484375 57.671875 42.71875 61.234375 
Q 38.96875 64.796875 32.078125 64.796875 
z
M 9.8125 72.90625 
L 32.078125 72.90625 
Q 44.34375 72.90625 50.609375 67.359375 
Q 56.890625 61.8125 56.890625 51.125 
Q 56.890625 40.328125 50.609375 34.8125 
Q 44.34375 29.296875 32.078125 29.296875 
L 19.671875 29.296875 
L 19.671875 0 
L 9.8125 0 
z
" id="DejaVuSans-80"/>
     <path d="M 53.515625 70.515625 
L 53.515625 60.890625 
Q 47.90625 63.578125 42.921875 64.890625 
Q 37.9375 66.21875 33.296875 66.21875 
Q 25.25 66.21875 20.875 63.09375 
Q 16.5 59.96875 16.5 54.203125 
Q 16.5 49.359375 19.40625 46.890625 
Q 22.3125 44.4375 30.421875 42.921875 
L 36.375 41.703125 
Q 47.40625 39.59375 52.65625 34.296875 
Q 57.90625 29 57.90625 20.125 
Q 57.90625 9.515625 50.796875 4.046875 
Q 43.703125 -1.421875 29.984375 -1.421875 
Q 24.8125 -1.421875 18.96875 -0.25 
Q 13.140625 0.921875 6.890625 3.21875 
L 6.890625 13.375 
Q 12.890625 10.015625 18.65625 8.296875 
Q 24.421875 6.59375 29.984375 6.59375 
Q 38.421875 6.59375 43.015625 9.90625 
Q 47.609375 13.234375 47.609375 19.390625 
Q 47.609375 24.75 44.3125 27.78125 
Q 41.015625 30.8125 33.5 32.328125 
L 27.484375 33.5 
Q 16.453125 35.6875 11.515625 40.375 
Q 6.59375 45.0625 6.59375 53.421875 
Q 6.59375 63.09375 13.40625 68.65625 
Q 20.21875 74.21875 32.171875 74.21875 
Q 37.3125 74.21875 42.625 73.28125 
Q 47.953125 72.359375 53.515625 70.515625 
z
" id="DejaVuSans-83"/>
     <path d="M 39.40625 66.21875 
Q 28.65625 66.21875 22.328125 58.203125 
Q 16.015625 50.203125 16.015625 36.375 
Q 16.015625 22.609375 22.328125 14.59375 
Q 28.65625 6.59375 39.40625 6.59375 
Q 50.140625 6.59375 56.421875 14.59375 
Q 62.703125 22.609375 62.703125 36.375 
Q 62.703125 50.203125 56.421875 58.203125 
Q 50.140625 66.21875 39.40625 66.21875 
z
M 39.40625 74.21875 
Q 54.734375 74.21875 63.90625 63.9375 
Q 73.09375 53.65625 73.09375 36.375 
Q 73.09375 19.140625 63.90625 8.859375 
Q 54.734375 -1.421875 39.40625 -1.421875 
Q 24.03125 -1.421875 14.8125 8.828125 
Q 5.609375 19.09375 5.609375 36.375 
Q 5.609375 53.65625 14.8125 63.9375 
Q 24.03125 74.21875 39.40625 74.21875 
z
" id="DejaVuSans-79"/>
    </defs>
    <g transform="translate(375.22944 298.262739)scale(0.17 -0.17)">
     <use xlink:href="#DejaVuSans-68"/>
     <use x="77.001953" xlink:href="#DejaVuSans-69"/>
     <use x="140.185547" xlink:href="#DejaVuSans-80"/>
     <use x="200.488281" xlink:href="#DejaVuSans-83"/>
     <use x="263.964844" xlink:href="#DejaVuSans-79"/>
    </g>
   </g>
   <g id="text_14">
    <!-- DE -->
    <g transform="translate(375.22944 212.307571)scale(0.17 -0.17)">
     <use xlink:href="#DejaVuSans-68"/>
     <use x="77.001953" xlink:href="#DejaVuSans-69"/>
    </g>
   </g>
   <g id="text_15">
    <!-- PSO -->
    <g transform="translate(375.22944 126.352403)scale(0.17 -0.17)">
     <use xlink:href="#DejaVuSans-80"/>
     <use x="60.302734" xlink:href="#DejaVuSans-83"/>
     <use x="123.779297" xlink:href="#DejaVuSans-79"/>
    </g>
   </g>
   <g id="text_16">
    <!-- best 2009 -->
    <defs>
     <path d="M 48.6875 27.296875 
Q 48.6875 37.203125 44.609375 42.84375 
Q 40.53125 48.484375 33.40625 48.484375 
Q 26.265625 48.484375 22.1875 42.84375 
Q 18.109375 37.203125 18.109375 27.296875 
Q 18.109375 17.390625 22.1875 11.75 
Q 26.265625 6.109375 33.40625 6.109375 
Q 40.53125 6.109375 44.609375 11.75 
Q 48.6875 17.390625 48.6875 27.296875 
z
M 18.109375 46.390625 
Q 20.953125 51.265625 25.265625 53.625 
Q 29.59375 56 35.59375 56 
Q 45.5625 56 51.78125 48.09375 
Q 58.015625 40.1875 58.015625 27.296875 
Q 58.015625 14.40625 51.78125 6.484375 
Q 45.5625 -1.421875 35.59375 -1.421875 
Q 29.59375 -1.421875 25.265625 0.953125 
Q 20.953125 3.328125 18.109375 8.203125 
L 18.109375 0 
L 9.078125 0 
L 9.078125 75.984375 
L 18.109375 75.984375 
z
" id="DejaVuSans-98"/>
     <path d="M 10.984375 1.515625 
L 10.984375 10.5 
Q 14.703125 8.734375 18.5 7.8125 
Q 22.3125 6.890625 25.984375 6.890625 
Q 35.75 6.890625 40.890625 13.453125 
Q 46.046875 20.015625 46.78125 33.40625 
Q 43.953125 29.203125 39.59375 26.953125 
Q 35.25 24.703125 29.984375 24.703125 
Q 19.046875 24.703125 12.671875 31.3125 
Q 6.296875 37.9375 6.296875 49.421875 
Q 6.296875 60.640625 12.9375 67.421875 
Q 19.578125 74.21875 30.609375 74.21875 
Q 43.265625 74.21875 49.921875 64.515625 
Q 56.59375 54.828125 56.59375 36.375 
Q 56.59375 19.140625 48.40625 8.859375 
Q 40.234375 -1.421875 26.421875 -1.421875 
Q 22.703125 -1.421875 18.890625 -0.6875 
Q 15.09375 0.046875 10.984375 1.515625 
z
M 30.609375 32.421875 
Q 37.25 32.421875 41.125 36.953125 
Q 45.015625 41.5 45.015625 49.421875 
Q 45.015625 57.28125 41.125 61.84375 
Q 37.25 66.40625 30.609375 66.40625 
Q 23.96875 66.40625 20.09375 61.84375 
Q 16.21875 57.28125 16.21875 49.421875 
Q 16.21875 41.5 20.09375 36.953125 
Q 23.96875 32.421875 30.609375 32.421875 
z
" id="DejaVuSans-57"/>
    </defs>
    <g transform="translate(375.22944 40.397235)scale(0.17 -0.17)">
     <use xlink:href="#DejaVuSans-98"/>
     <use x="63.476562" xlink:href="#DejaVuSans-101"/>
     <use x="125" xlink:href="#DejaVuSans-115"/>
     <use x="177.099609" xlink:href="#DejaVuSans-116"/>
     <use x="216.308594" xlink:href="#DejaVuSans-32"/>
     <use x="248.095703" xlink:href="#DejaVuSans-50"/>
     <use x="311.71875" xlink:href="#DejaVuSans-48"/>
     <use x="375.341797" xlink:href="#DejaVuSans-48"/>
     <use x="438.964844" xlink:href="#DejaVuSans-57"/>
    </g>
   </g>
   <g id="text_17">
    <!-- bbob f18, 3-D -->
    <defs>
     <path d="M 40.578125 39.3125 
Q 47.65625 37.796875 51.625 33 
Q 55.609375 28.21875 55.609375 21.1875 
Q 55.609375 10.40625 48.1875 4.484375 
Q 40.765625 -1.421875 27.09375 -1.421875 
Q 22.515625 -1.421875 17.65625 -0.515625 
Q 12.796875 0.390625 7.625 2.203125 
L 7.625 11.71875 
Q 11.71875 9.328125 16.59375 8.109375 
Q 21.484375 6.890625 26.8125 6.890625 
Q 36.078125 6.890625 40.9375 10.546875 
Q 45.796875 14.203125 45.796875 21.1875 
Q 45.796875 27.640625 41.28125 31.265625 
Q 36.765625 34.90625 28.71875 34.90625 
L 20.21875 34.90625 
L 20.21875 43.015625 
L 29.109375 43.015625 
Q 36.375 43.015625 40.234375 45.921875 
Q 44.09375 48.828125 44.09375 54.296875 
Q 44.09375 59.90625 40.109375 62.90625 
Q 36.140625 65.921875 28.71875 65.921875 
Q 24.65625 65.921875 20.015625 65.03125 
Q 15.375 64.15625 9.8125 62.3125 
L 9.8125 71.09375 
Q 15.4375 72.65625 20.34375 73.4375 
Q 25.25 74.21875 29.59375 74.21875 
Q 40.828125 74.21875 47.359375 69.109375 
Q 53.90625 64.015625 53.90625 55.328125 
Q 53.90625 49.265625 50.4375 45.09375 
Q 46.96875 40.921875 40.578125 39.3125 
z
" id="DejaVuSans-51"/>
    </defs>
    <g transform="translate(60.41088 38.111366)scale(0.102 -0.102)">
     <use xlink:href="#DejaVuSans-98"/>
     <use x="63.476562" xlink:href="#DejaVuSans-98"/>
     <use x="126.953125" xlink:href="#DejaVuSans-111"/>
     <use x="188.134766" xlink:href="#DejaVuSans-98"/>
     <use x="251.611328" xlink:href="#DejaVuSans-32"/>
     <use x="283.398438" xlink:href="#DejaVuSans-102"/>
     <use x="318.603516" xlink:href="#DejaVuSans-49"/>
     <use x="382.226562" xlink:href="#DejaVuSans-56"/>
     <use x="445.849609" xlink:href="#DejaVuSans-44"/>
     <use x="477.636719" xlink:href="#DejaVuSans-32"/>
     <use x="509.423828" xlink:href="#DejaVuSans-51"/>
     <use x="573.046875" xlink:href="#DejaVuSans-45"/>
     <use x="609.130859" xlink:href="#DejaVuSans-68"/>
    </g>
    <!-- 51 targets: 100..1e-08 -->
    <defs>
     <path d="M 10.796875 72.90625 
L 49.515625 72.90625 
L 49.515625 64.59375 
L 19.828125 64.59375 
L 19.828125 46.734375 
Q 21.96875 47.46875 24.109375 47.828125 
Q 26.265625 48.1875 28.421875 48.1875 
Q 40.625 48.1875 47.75 41.5 
Q 54.890625 34.8125 54.890625 23.390625 
Q 54.890625 11.625 47.5625 5.09375 
Q 40.234375 -1.421875 26.90625 -1.421875 
Q 22.3125 -1.421875 17.546875 -0.640625 
Q 12.796875 0.140625 7.71875 1.703125 
L 7.71875 11.625 
Q 12.109375 9.234375 16.796875 8.0625 
Q 21.484375 6.890625 26.703125 6.890625 
Q 35.15625 6.890625 40.078125 11.328125 
Q 45.015625 15.765625 45.015625 23.390625 
Q 45.015625 31 40.078125 35.4375 
Q 35.15625 39.890625 26.703125 39.890625 
Q 22.75 39.890625 18.8125 39.015625 
Q 14.890625 38.140625 10.796875 36.28125 
z
" id="DejaVuSans-53"/>
     <path d="M 11.71875 12.40625 
L 22.015625 12.40625 
L 22.015625 0 
L 11.71875 0 
z
M 11.71875 51.703125 
L 22.015625 51.703125 
L 22.015625 39.3125 
L 11.71875 39.3125 
z
" id="DejaVuSans-58"/>
    </defs>
    <g transform="translate(60.41088 49.533135)scale(0.102 -0.102)">
     <use xlink:href="#DejaVuSans-53"/>
     <use x="63.623047" xlink:href="#DejaVuSans-49"/>
     <use x="127.246094" xlink:href="#DejaVuSans-32"/>
     <use x="159.033203" xlink:href="#DejaVuSans-116"/>
     <use x="198.242188" xlink:href="#DejaVuSans-97"/>
     <use x="259.521484" xlink:href="#DejaVuSans-114"/>
     <use x="298.884766" xlink:href="#DejaVuSans-103"/>
     <use x="362.361328" xlink:href="#DejaVuSans-101"/>
     <use x="423.884766" xlink:href="#DejaVuSans-116"/>
     <use x="463.09375" xlink:href="#DejaVuSans-115"/>
     <use x="515.193359" xlink:href="#DejaVuSans-58"/>
     <use x="548.884766" xlink:href="#DejaVuSans-32"/>
     <use x="580.671875" xlink:href="#DejaVuSans-49"/>
     <use x="644.294922" xlink:href="#DejaVuSans-48"/>
     <use x="707.917969" xlink:href="#DejaVuSans-48"/>
     <use x="771.541016" xlink:href="#DejaVuSans-46"/>
     <use x="803.328125" xlink:href="#DejaVuSans-46"/>
     <use x="835.115234" xlink:href="#DejaVuSans-49"/>
     <use x="898.738281" xlink:href="#DejaVuSans-101"/>
     <use x="960.261719" xlink:href="#DejaVuSans-45"/>
     <use x="996.345703" xlink:href="#DejaVuSans-48"/>
     <use x="1059.96875" xlink:href="#DejaVuSans-56"/>
    </g>
    <!-- 15 instances -->
    <g transform="translate(60.41088 60.954904)scale(0.102 -0.102)">
     <use xlink:href="#DejaVuSans-49"/>
     <use x="63.623047" xlink:href="#DejaVuSans-53"/>
     <use x="127.246094" xlink:href="#DejaVuSans-32"/>
     <use x="159.033203" xlink:href="#DejaVuSans-105"/>
     <use x="186.816406" xlink:href="#DejaVuSans-110"/>
     <use x="250.195312" xlink:href="#DejaVuSans-115"/>
     <use x="302.294922" xlink:href="#DejaVuSans-116"/>
     <use x="341.503906" xlink:href="#DejaVuSans-97"/>
     <use x="402.783203" xlink:href="#DejaVuSans-110"/>
     <use x="466.162109" xlink:href="#DejaVuSans-99"/>
     <use x="521.142578" xlink:href="#DejaVuSans-101"/>
     <use x="582.666016" xlink:href="#DejaVuSans-115"/>
    </g>
   </g>
   <g id="text_18">
    <!-- v2.4 -->
    <g style="fill:#808080;" transform="translate(187.233062 294.151352)scale(0.1 -0.1)">
     <use xlink:href="#DejaVuSans-118"/>
     <use x="59.179688" xlink:href="#DejaVuSans-50"/>
     <use x="122.802734" xlink:href="#DejaVuSans-46"/>
     <use x="154.589844" xlink:href="#DejaVuSans-52"/>
    </g>
   </g>
   <g id="text_19">
    <!-- 18 Schaffer F7, condition 1000 -->
    <defs>
     <path d="M 54.890625 33.015625 
L 54.890625 0 
L 45.90625 0 
L 45.90625 32.71875 
Q 45.90625 40.484375 42.875 44.328125 
Q 39.84375 48.1875 33.796875 48.1875 
Q 26.515625 48.1875 22.3125 43.546875 
Q 18.109375 38.921875 18.109375 30.90625 
L 18.109375 0 
L 9.078125 0 
L 9.078125 75.984375 
L 18.109375 75.984375 
L 18.109375 46.1875 
Q 21.34375 51.125 25.703125 53.5625 
Q 30.078125 56 35.796875 56 
Q 45.21875 56 50.046875 50.171875 
Q 54.890625 44.34375 54.890625 33.015625 
z
" id="DejaVuSans-104"/>
     <path d="M 8.203125 72.90625 
L 55.078125 72.90625 
L 55.078125 68.703125 
L 28.609375 0 
L 18.3125 0 
L 43.21875 64.59375 
L 8.203125 64.59375 
z
" id="DejaVuSans-55"/>
    </defs>
    <g transform="translate(44.111187 21.648)scale(0.2 -0.2)">
     <use xlink:href="#DejaVuSans-49"/>
     <use x="63.623047" xlink:href="#DejaVuSans-56"/>
     <use x="127.246094" xlink:href="#DejaVuSans-32"/>
     <use x="159.033203" xlink:href="#DejaVuSans-83"/>
     <use x="222.509766" xlink:href="#DejaVuSans-99"/>
     <use x="277.490234" xlink:href="#DejaVuSans-104"/>
     <use x="340.869141" xlink:href="#DejaVuSans-97"/>
     <use x="402.148438" xlink:href="#DejaVuSans-102"/>
     <use x="437.353516" xlink:href="#DejaVuSans-102"/>
     <use x="472.558594" xlink:href="#DejaVuSans-101"/>
     <use x="534.082031" xlink:href="#DejaVuSans-114"/>
     <use x="575.195312" xlink:href="#DejaVuSans-32"/>
     <use x="606.982422" xlink:href="#DejaVuSans-70"/>
     <use x="664.501953" xlink:href="#DejaVuSans-55"/>
     <use x="728.125" xlink:href="#DejaVuSans-44"/>
     <use x="759.912109" xlink:href="#DejaVuSans-32"/>
     <use x="791.699219" xlink:href="#DejaVuSans-99"/>
     <use x="846.679688" xlink:href="#DejaVuSans-111"/>
     <use x="907.861328" xlink:href="#DejaVuSans-110"/>
     <use x="971.240234" xlink:href="#DejaVuSans-100"/>
     <use x="1034.716797" xlink:href="#DejaVuSans-105"/>
     <use x="1062.5" xlink:href="#DejaVuSans-116"/>
     <use x="1101.708984" xlink:href="#DejaVuSans-105"/>
     <use x="1129.492188" xlink:href="#DejaVuSans-111"/>
     <use x="1190.673828" xlink:href="#DejaVuSans-110"/>
     <use x="1254.052734" xlink:href="#DejaVuSans-32"/>
     <use x="1285.839844" xlink:href="#DejaVuSans-49"/>
     <use x="1349.462891" xlink:href="#DejaVuSans-48"/>
     <use x="1413.085938" xlink:href="#DejaVuSans-48"/>
     <use x="1476.708984" xlink:href="#DejaVuSans-48"/>
    </g>
   </g>
  </g>
 </g>
 <defs>
  <clipPath id="pabe3781f97">
   <rect height="271.296" width="281.088" x="57.6" y="27.648"/>
  </clipPath>
 </defs>
</svg>
