<?xml version="1.0" encoding="utf-8" standalone="no"?>
<!DOCTYPE svg PUBLIC "-//W3C//DTD SVG 1.1//EN"
  "http://www.w3.org/Graphics/SVG/1.1/DTD/svg11.dtd">
<!-- Created with matplotlib (https://matplotlib.org/) -->
<svg height="345.6pt" version="1.1" viewBox="0 0 460.8 345.6" width="460.8pt" xmlns="http://www.w3.org/2000/svg" xmlns:xlink="http://www.w3.org/1999/xlink">
 <defs>
  <style type="text/css">
*{stroke-linecap:butt;stroke-linejoin:round;}
  </style>
 </defs>
 <g id="figure_1">
  <g id="patch_1">
   <path d="M 0 345.6 
L 460.8 345.6 
L 460.8 0 
L 0 0 
z
" style="fill:#ffffff;"/>
  </g>
  <g id="axes_1">
   <g id="patch_2">
    <path d="M 57.6 298.944 
L 338.688 298.944 
L 338.688 27.648 
L 57.6 27.648 
z
" style="fill:#ffffff;"/>
   </g>
   <g id="line2d_1">
    <path d="M 45.512012 298.944 
L 45.512012 293.677139 
L 57.6 293.677139 
L 57.6 288.410278 
L 73.579452 288.410278 
L 73.579452 283.143418 
L 85.66744 283.143418 
L 85.66744 277.876557 
L 96.86091 277.876557 
L 96.86091 272.609696 
L 108.483824 272.609696 
L 108.483824 267.342835 
L 113.022974 267.342835 
L 113.022974 262.075974 
L 123.394238 262.075974 
L 123.394238 256.809114 
L 128.709321 256.809114 
L 128.709321 251.542253 
L 138.67848 251.542253 
L 138.67848 246.275392 
L 144.45069 246.275392 
L 144.45069 241.008531 
L 160.632719 241.008531 
L 160.632719 235.74167 
L 161.007772 235.74167 
L 161.007772 230.47481 
L 161.169354 230.47481 
L 161.169354 225.207949 
L 163.985177 225.207949 
L 163.985177 219.941088 
L 166.544502 219.941088 
L 166.544502 214.674227 
L 166.695783 214.674227 
L 166.695783 209.407366 
L 166.729224 209.407366 
L 166.729224 204.140506 
L 166.878918 204.140506 
L 166.878918 198.873645 
L 167.0929 198.873645 
L 167.0929 188.339923 
L 167.174506 188.339923 
L 167.174506 183.073062 
L 167.304287 183.073062 
L 167.304287 177.806202 
L 167.43311 177.806202 
L 167.43311 172.539341 
L 167.782543 172.539341 
L 167.782543 167.27248 
L 167.84533 167.27248 
L 167.84533 162.005619 
L 167.985782 162.005619 
L 167.985782 156.738758 
L 168.278627 156.738758 
L 168.278627 151.471897 
L 168.354881 151.471897 
L 168.354881 140.938176 
L 168.626667 140.938176 
L 168.626667 135.671315 
L 169.316986 135.671315 
L 169.316986 130.404454 
L 169.431813 130.404454 
L 169.431813 119.870733 
L 169.503198 119.870733 
L 169.503198 114.603872 
L 169.602648 114.603872 
L 169.602648 109.337011 
L 169.75779 109.337011 
L 169.75779 104.07015 
L 170.077786 104.07015 
L 170.077786 98.803289 
L 170.091567 98.803289 
L 170.091567 93.536429 
L 170.59394 93.536429 
L 170.59394 88.269568 
L 170.990905 88.269568 
L 170.990905 83.002707 
L 171.18605 83.002707 
L 171.18605 77.735846 
L 171.391826 77.735846 
L 171.391826 72.468985 
L 171.67086 72.468985 
L 171.67086 67.202125 
L 171.908303 67.202125 
L 171.908303 61.935264 
L 171.994974 61.935264 
L 171.994974 56.668403 
L 172.506141 56.668403 
L 172.506141 51.401542 
L 172.530112 51.401542 
L 172.530112 46.134681 
L 172.542086 46.134681 
L 172.542086 40.867821 
L 172.566008 40.867821 
L 172.566008 35.60096 
L 172.577957 35.60096 
L 172.577957 30.334099 
L 338.688 30.334099 
" style="fill:none;stroke:#f5deb3;stroke-linecap:square;stroke-width:4;"/>
   </g>
   <g id="line2d_2">
    <defs>
     <path d="M -0 7.778175 
L 7.778175 0 
L 0 -7.778175 
L -7.778175 -0 
z
" id="mc822a6f609" style="stroke:#f5deb3;stroke-linejoin:miter;stroke-width:1.5;"/>
    </defs>
    <g>
     <use style="fill:#f5deb3;stroke:#f5deb3;stroke-linejoin:miter;stroke-width:1.5;" x="144.45069" xlink:href="#mc822a6f609" y="246.275392"/>
     <use style="fill:#f5deb3;stroke:#f5deb3;stroke-linejoin:miter;stroke-width:1.5;" x="169.602648" xlink:href="#mc822a6f609" y="114.603872"/>
     <use style="fill:#f5deb3;stroke:#f5deb3;stroke-linejoin:miter;stroke-width:1.5;" x="172.577957" xlink:href="#mc822a6f609" y="35.60096"/>
     <use style="fill:#f5deb3;stroke:#f5deb3;stroke-linejoin:miter;stroke-width:1.5;" x="172.577957" xlink:href="#mc822a6f609" y="30.334099"/>
     <use style="fill:#f5deb3;stroke:#f5deb3;stroke-linejoin:miter;stroke-width:1.5;" x="172.577957" xlink:href="#mc822a6f609" y="30.334099"/>
     <use style="fill:#f5deb3;stroke:#f5deb3;stroke-linejoin:miter;stroke-width:1.5;" x="338.688" xlink:href="#mc822a6f609" y="30.334099"/>
    </g>
   </g>
   <g id="line2d_3">
    <path style="fill:none;stroke:#f5deb3;stroke-linecap:square;stroke-width:4;"/>
    <g/>
   </g>
   <g id="line2d_4">
    <path d="M 338.688 30.334099 
L 369.60768 35.706297 
" style="fill:none;stroke:#f5deb3;stroke-linecap:square;stroke-width:4;"/>
    <g>
     <use style="fill:#f5deb3;stroke:#f5deb3;stroke-linejoin:miter;stroke-width:1.5;" x="338.688" xlink:href="#mc822a6f609" y="30.334099"/>
     <use style="fill:#f5deb3;stroke:#f5deb3;stroke-linejoin:miter;stroke-width:1.5;" x="369.60768" xlink:href="#mc822a6f609" y="35.706297"/>
    </g>
   </g>
   <g id="matplotlib.axis_1">
    <g id="xtick_1">
     <g id="line2d_5">
      <path clip-path="url(#p92e06694cf)" d="M 57.6 298.944 
L 57.6 27.648 
" style="fill:none;stroke:#b0b0b0;stroke-linecap:square;stroke-width:0.8;"/>
     </g>
     <g id="line2d_6">
      <defs>
       <path d="M 0 0 
L 0 3.5 
" id="m9790ccc7e6" style="stroke:#000000;stroke-width:0.8;"/>
      </defs>
      <g>
       <use style="stroke:#000000;stroke-width:0.8;" x="57.6" xlink:href="#m9790ccc7e6" y="298.944"/>
      </g>
     </g>
     <g id="text_1">
      <!-- 0 -->
      <defs>
       <path d="M 31.78125 66.40625 
Q 24.171875 66.40625 20.328125 58.90625 
Q 16.5 51.421875 16.5 36.375 
Q 16.5 21.390625 20.328125 13.890625 
Q 24.171875 6.390625 31.78125 6.390625 
Q 39.453125 6.390625 43.28125 13.890625 
Q 47.125 21.390625 47.125 36.375 
Q 47.125 51.421875 43.28125 58.90625 
Q 39.453125 66.40625 31.78125 66.40625 
z
M 31.78125 74.21875 
Q 44.046875 74.21875 50.515625 64.515625 
Q 56.984375 54.828125 56.984375 36.375 
Q 56.984375 17.96875 50.515625 8.265625 
Q 44.046875 -1.421875 31.78125 -1.421875 
Q 19.53125 -1.421875 13.0625 8.265625 
Q 6.59375 17.96875 6.59375 36.375 
Q 6.59375 54.828125 13.0625 64.515625 
Q 19.53125 74.21875 31.78125 74.21875 
z
" id="DejaVuSans-48"/>
      </defs>
      <g transform="translate(51.2375 321.140875)scale(0.2 -0.2)">
       <use xlink:href="#DejaVuSans-48"/>
      </g>
     </g>
    </g>
    <g id="xtick_2">
     <g id="line2d_7">
      <path clip-path="url(#p92e06694cf)" d="M 137.910857 298.944 
L 137.910857 27.648 
" style="fill:none;stroke:#b0b0b0;stroke-linecap:square;stroke-width:0.8;"/>
     </g>
     <g id="line2d_8">
      <g>
       <use style="stroke:#000000;stroke-width:0.8;" x="137.910857" xlink:href="#m9790ccc7e6" y="298.944"/>
      </g>
     </g>
     <g id="text_2">
      <!-- 2 -->
      <defs>
       <path d="M 19.1875 8.296875 
L 53.609375 8.296875 
L 53.609375 0 
L 7.328125 0 
L 7.328125 8.296875 
Q 12.9375 14.109375 22.625 23.890625 
Q 32.328125 33.6875 34.8125 36.53125 
Q 39.546875 41.84375 41.421875 45.53125 
Q 43.3125 49.21875 43.3125 52.78125 
Q 43.3125 58.59375 39.234375 62.25 
Q 35.15625 65.921875 28.609375 65.921875 
Q 23.96875 65.921875 18.8125 64.3125 
Q 13.671875 62.703125 7.8125 59.421875 
L 7.8125 69.390625 
Q 13.765625 71.78125 18.9375 73 
Q 24.125 74.21875 28.421875 74.21875 
Q 39.75 74.21875 46.484375 68.546875 
Q 53.21875 62.890625 53.21875 53.421875 
Q 53.21875 48.921875 51.53125 44.890625 
Q 49.859375 40.875 45.40625 35.40625 
Q 44.1875 33.984375 37.640625 27.21875 
Q 31.109375 20.453125 19.1875 8.296875 
z
" id="DejaVuSans-50"/>
      </defs>
      <g transform="translate(131.548357 321.140875)scale(0.2 -0.2)">
       <use xlink:href="#DejaVuSans-50"/>
      </g>
     </g>
    </g>
    <g id="xtick_3">
     <g id="line2d_9">
      <path clip-path="url(#p92e06694cf)" d="M 218.221714 298.944 
L 218.221714 27.648 
" style="fill:none;stroke:#b0b0b0;stroke-linecap:square;stroke-width:0.8;"/>
     </g>
     <g id="line2d_10">
      <g>
       <use style="stroke:#000000;stroke-width:0.8;" x="218.221714" xlink:href="#m9790ccc7e6" y="298.944"/>
      </g>
     </g>
     <g id="text_3">
      <!-- 4 -->
      <defs>
       <path d="M 37.796875 64.3125 
L 12.890625 25.390625 
L 37.796875 25.390625 
z
M 35.203125 72.90625 
L 47.609375 72.90625 
L 47.609375 25.390625 
L 58.015625 25.390625 
L 58.015625 17.1875 
L 47.609375 17.1875 
L 47.609375 0 
L 37.796875 0 
L 37.796875 17.1875 
L 4.890625 17.1875 
L 4.890625 26.703125 
z
" id="DejaVuSans-52"/>
      </defs>
      <g transform="translate(211.859214 321.140875)scale(0.2 -0.2)">
       <use xlink:href="#DejaVuSans-52"/>
      </g>
     </g>
    </g>
    <g id="xtick_4">
     <g id="line2d_11">
      <path clip-path="url(#p92e06694cf)" d="M 298.532571 298.944 
L 298.532571 27.648 
" style="fill:none;stroke:#b0b0b0;stroke-linecap:square;stroke-width:0.8;"/>
     </g>
     <g id="line2d_12">
      <g>
       <use style="stroke:#000000;stroke-width:0.8;" x="298.532571" xlink:href="#m9790ccc7e6" y="298.944"/>
      </g>
     </g>
     <g id="text_4">
      <!-- 6 -->
      <defs>
       <path d="M 33.015625 40.375 
Q 26.375 40.375 22.484375 35.828125 
Q 18.609375 31.296875 18.609375 23.390625 
Q 18.609375 15.53125 22.484375 10.953125 
Q 26.375 6.390625 33.015625 6.390625 
Q 39.65625 6.390625 43.53125 10.953125 
Q 47.40625 15.53125 47.40625 23.390625 
Q 47.40625 31.296875 43.53125 35.828125 
Q 39.65625 40.375 33.015625 40.375 
z
M 52.59375 71.296875 
L 52.59375 62.3125 
Q 48.875 64.0625 45.09375 64.984375 
Q 41.3125 65.921875 37.59375 65.921875 
Q 27.828125 65.921875 22.671875 59.328125 
Q 17.53125 52.734375 16.796875 39.40625 
Q 19.671875 43.65625 24.015625 45.921875 
Q 28.375 48.1875 33.59375 48.1875 
Q 44.578125 48.1875 50.953125 41.515625 
Q 57.328125 34.859375 57.328125 23.390625 
Q 57.328125 12.15625 50.6875 5.359375 
Q 44.046875 -1.421875 33.015625 -1.421875 
Q 20.359375 -1.421875 13.671875 8.265625 
Q 6.984375 17.96875 6.984375 36.375 
Q 6.984375 53.65625 15.1875 63.9375 
Q 23.390625 74.21875 37.203125 74.21875 
Q 40.921875 74.21875 44.703125 73.484375 
Q 48.484375 72.75 52.59375 71.296875 
z
" id="DejaVuSans-54"/>
      </defs>
      <g transform="translate(292.170071 321.140875)scale(0.2 -0.2)">
       <use xlink:href="#DejaVuSans-54"/>
      </g>
     </g>
    </g>
    <g id="xtick_5">
     <g id="line2d_13">
      <path clip-path="url(#p92e06694cf)" d="M 97.755429 298.944 
L 97.755429 27.648 
" style="fill:none;stroke:#b0b0b0;stroke-linecap:square;stroke-width:0.8;"/>
     </g>
     <g id="line2d_14">
      <defs>
       <path d="M 0 0 
L 0 2 
" id="m351bc347ef" style="stroke:#000000;stroke-width:0.6;"/>
      </defs>
      <g>
       <use style="stroke:#000000;stroke-width:0.6;" x="97.755429" xlink:href="#m351bc347ef" y="298.944"/>
      </g>
     </g>
    </g>
    <g id="xtick_6">
     <g id="line2d_15">
      <path clip-path="url(#p92e06694cf)" d="M 178.066286 298.944 
L 178.066286 27.648 
" style="fill:none;stroke:#b0b0b0;stroke-linecap:square;stroke-width:0.8;"/>
     </g>
     <g id="line2d_16">
      <g>
       <use style="stroke:#000000;stroke-width:0.6;" x="178.066286" xlink:href="#m351bc347ef" y="298.944"/>
      </g>
     </g>
    </g>
    <g id="xtick_7">
     <g id="line2d_17">
      <path clip-path="url(#p92e06694cf)" d="M 258.377143 298.944 
L 258.377143 27.648 
" style="fill:none;stroke:#b0b0b0;stroke-linecap:square;stroke-width:0.8;"/>
     </g>
     <g id="line2d_18">
      <g>
       <use style="stroke:#000000;stroke-width:0.6;" x="258.377143" xlink:href="#m351bc347ef" y="298.944"/>
      </g>
     </g>
    </g>
    <g id="xtick_8">
     <g id="line2d_19">
      <path clip-path="url(#p92e06694cf)" d="M 338.688 298.944 
L 338.688 27.648 
" style="fill:none;stroke:#b0b0b0;stroke-linecap:square;stroke-width:0.8;"/>
     </g>
     <g id="line2d_20">
      <g>
       <use style="stroke:#000000;stroke-width:0.6;" x="338.688" xlink:href="#m351bc347ef" y="298.944"/>
      </g>
     </g>
    </g>
    <g id="text_5">
     <!-- log10(# f-evals / dimension) -->
     <defs>
      <path d="M 9.421875 75.984375 
L 18.40625 75.984375 
L 18.40625 0 
L 9.421875 0 
z
" id="DejaVuSans-108"/>
      <path d="M 30.609375 48.390625 
Q 23.390625 48.390625 19.1875 42.75 
Q 14.984375 37.109375 14.984375 27.296875 
Q 14.984375 17.484375 19.15625 11.84375 
Q 23.34375 6.203125 30.609375 6.203125 
Q 37.796875 6.203125 41.984375 11.859375 
Q 46.1875 17.53125 46.1875 27.296875 
Q 46.1875 37.015625 41.984375 42.703125 
Q 37.796875 48.390625 30.609375 48.390625 
z
M 30.609375 56 
Q 42.328125 56 49.015625 48.375 
Q 55.71875 40.765625 55.71875 27.296875 
Q 55.71875 13.875 49.015625 6.21875 
Q 42.328125 -1.421875 30.609375 -1.421875 
Q 18.84375 -1.421875 12.171875 6.21875 
Q 5.515625 13.875 5.515625 27.296875 
Q 5.515625 40.765625 12.171875 48.375 
Q 18.84375 56 30.609375 56 
z
" id="DejaVuSans-111"/>
      <path d="M 45.40625 27.984375 
Q 45.40625 37.75 41.375 43.109375 
Q 37.359375 48.484375 30.078125 48.484375 
Q 22.859375 48.484375 18.828125 43.109375 
Q 14.796875 37.75 14.796875 27.984375 
Q 14.796875 18.265625 18.828125 12.890625 
Q 22.859375 7.515625 30.078125 7.515625 
Q 37.359375 7.515625 41.375 12.890625 
Q 45.40625 18.265625 45.40625 27.984375 
z
M 54.390625 6.78125 
Q 54.390625 -7.171875 48.1875 -13.984375 
Q 42 -20.796875 29.203125 -20.796875 
Q 24.46875 -20.796875 20.265625 -20.09375 
Q 16.0625 -19.390625 12.109375 -17.921875 
L 12.109375 -9.1875 
Q 16.0625 -11.328125 19.921875 -12.34375 
Q 23.78125 -13.375 27.78125 -13.375 
Q 36.625 -13.375 41.015625 -8.765625 
Q 45.40625 -4.15625 45.40625 5.171875 
L 45.40625 9.625 
Q 42.625 4.78125 38.28125 2.390625 
Q 33.9375 0 27.875 0 
Q 17.828125 0 11.671875 7.65625 
Q 5.515625 15.328125 5.515625 27.984375 
Q 5.515625 40.671875 11.671875 48.328125 
Q 17.828125 56 27.875 56 
Q 33.9375 56 38.28125 53.609375 
Q 42.625 51.21875 45.40625 46.390625 
L 45.40625 54.6875 
L 54.390625 54.6875 
z
" id="DejaVuSans-103"/>
      <path d="M 12.40625 8.296875 
L 28.515625 8.296875 
L 28.515625 63.921875 
L 10.984375 60.40625 
L 10.984375 69.390625 
L 28.421875 72.90625 
L 38.28125 72.90625 
L 38.28125 8.296875 
L 54.390625 8.296875 
L 54.390625 0 
L 12.40625 0 
z
" id="DejaVuSans-49"/>
      <path d="M 31 75.875 
Q 24.46875 64.65625 21.28125 53.65625 
Q 18.109375 42.671875 18.109375 31.390625 
Q 18.109375 20.125 21.3125 9.0625 
Q 24.515625 -2 31 -13.1875 
L 23.1875 -13.1875 
Q 15.875 -1.703125 12.234375 9.375 
Q 8.59375 20.453125 8.59375 31.390625 
Q 8.59375 42.28125 12.203125 53.3125 
Q 15.828125 64.359375 23.1875 75.875 
z
" id="DejaVuSans-40"/>
      <path d="M 51.125 44 
L 36.921875 44 
L 32.8125 27.6875 
L 47.125 27.6875 
z
M 43.796875 71.78125 
L 38.71875 51.515625 
L 52.984375 51.515625 
L 58.109375 71.78125 
L 65.921875 71.78125 
L 60.890625 51.515625 
L 76.125 51.515625 
L 76.125 44 
L 58.984375 44 
L 54.984375 27.6875 
L 70.515625 27.6875 
L 70.515625 20.21875 
L 53.078125 20.21875 
L 48 0 
L 40.1875 0 
L 45.21875 20.21875 
L 30.90625 20.21875 
L 25.875 0 
L 18.015625 0 
L 23.09375 20.21875 
L 7.71875 20.21875 
L 7.71875 27.6875 
L 24.90625 27.6875 
L 29 44 
L 13.28125 44 
L 13.28125 51.515625 
L 30.90625 51.515625 
L 35.890625 71.78125 
z
" id="DejaVuSans-35"/>
      <path id="DejaVuSans-32"/>
      <path d="M 37.109375 75.984375 
L 37.109375 68.5 
L 28.515625 68.5 
Q 23.6875 68.5 21.796875 66.546875 
Q 19.921875 64.59375 19.921875 59.515625 
L 19.921875 54.6875 
L 34.71875 54.6875 
L 34.71875 47.703125 
L 19.921875 47.703125 
L 19.921875 0 
L 10.890625 0 
L 10.890625 47.703125 
L 2.296875 47.703125 
L 2.296875 54.6875 
L 10.890625 54.6875 
L 10.890625 58.5 
Q 10.890625 67.625 15.140625 71.796875 
Q 19.390625 75.984375 28.609375 75.984375 
z
" id="DejaVuSans-102"/>
      <path d="M 4.890625 31.390625 
L 31.203125 31.390625 
L 31.203125 23.390625 
L 4.890625 23.390625 
z
" id="DejaVuSans-45"/>
      <path d="M 56.203125 29.59375 
L 56.203125 25.203125 
L 14.890625 25.203125 
Q 15.484375 15.921875 20.484375 11.0625 
Q 25.484375 6.203125 34.421875 6.203125 
Q 39.59375 6.203125 44.453125 7.46875 
Q 49.3125 8.734375 54.109375 11.28125 
L 54.109375 2.78125 
Q 49.265625 0.734375 44.1875 -0.34375 
Q 39.109375 -1.421875 33.890625 -1.421875 
Q 20.796875 -1.421875 13.15625 6.1875 
Q 5.515625 13.8125 5.515625 26.8125 
Q 5.515625 40.234375 12.765625 48.109375 
Q 20.015625 56 32.328125 56 
Q 43.359375 56 49.78125 48.890625 
Q 56.203125 41.796875 56.203125 29.59375 
z
M 47.21875 32.234375 
Q 47.125 39.59375 43.09375 43.984375 
Q 39.0625 48.390625 32.421875 48.390625 
Q 24.90625 48.390625 20.390625 44.140625 
Q 15.875 39.890625 15.1875 32.171875 
z
" id="DejaVuSans-101"/>
      <path d="M 2.984375 54.6875 
L 12.5 54.6875 
L 29.59375 8.796875 
L 46.6875 54.6875 
L 56.203125 54.6875 
L 35.6875 0 
L 23.484375 0 
z
" id="DejaVuSans-118"/>
      <path d="M 34.28125 27.484375 
Q 23.390625 27.484375 19.1875 25 
Q 14.984375 22.515625 14.984375 16.5 
Q 14.984375 11.71875 18.140625 8.90625 
Q 21.296875 6.109375 26.703125 6.109375 
Q 34.1875 6.109375 38.703125 11.40625 
Q 43.21875 16.703125 43.21875 25.484375 
L 43.21875 27.484375 
z
M 52.203125 31.203125 
L 52.203125 0 
L 43.21875 0 
L 43.21875 8.296875 
Q 40.140625 3.328125 35.546875 0.953125 
Q 30.953125 -1.421875 24.3125 -1.421875 
Q 15.921875 -1.421875 10.953125 3.296875 
Q 6 8.015625 6 15.921875 
Q 6 25.140625 12.171875 29.828125 
Q 18.359375 34.515625 30.609375 34.515625 
L 43.21875 34.515625 
L 43.21875 35.40625 
Q 43.21875 41.609375 39.140625 45 
Q 35.0625 48.390625 27.6875 48.390625 
Q 23 48.390625 18.546875 47.265625 
Q 14.109375 46.140625 10.015625 43.890625 
L 10.015625 52.203125 
Q 14.9375 54.109375 19.578125 55.046875 
Q 24.21875 56 28.609375 56 
Q 40.484375 56 46.34375 49.84375 
Q 52.203125 43.703125 52.203125 31.203125 
z
" id="DejaVuSans-97"/>
      <path d="M 44.28125 53.078125 
L 44.28125 44.578125 
Q 40.484375 46.53125 36.375 47.5 
Q 32.28125 48.484375 27.875 48.484375 
Q 21.1875 48.484375 17.84375 46.4375 
Q 14.5 44.390625 14.5 40.28125 
Q 14.5 37.15625 16.890625 35.375 
Q 19.28125 33.59375 26.515625 31.984375 
L 29.59375 31.296875 
Q 39.15625 29.25 43.1875 25.515625 
Q 47.21875 21.78125 47.21875 15.09375 
Q 47.21875 7.46875 41.1875 3.015625 
Q 35.15625 -1.421875 24.609375 -1.421875 
Q 20.21875 -1.421875 15.453125 -0.5625 
Q 10.6875 0.296875 5.421875 2 
L 5.421875 11.28125 
Q 10.40625 8.6875 15.234375 7.390625 
Q 20.0625 6.109375 24.8125 6.109375 
Q 31.15625 6.109375 34.5625 8.28125 
Q 37.984375 10.453125 37.984375 14.40625 
Q 37.984375 18.0625 35.515625 20.015625 
Q 33.0625 21.96875 24.703125 23.78125 
L 21.578125 24.515625 
Q 13.234375 26.265625 9.515625 29.90625 
Q 5.8125 33.546875 5.8125 39.890625 
Q 5.8125 47.609375 11.28125 51.796875 
Q 16.75 56 26.8125 56 
Q 31.78125 56 36.171875 55.265625 
Q 40.578125 54.546875 44.28125 53.078125 
z
" id="DejaVuSans-115"/>
      <path d="M 25.390625 72.90625 
L 33.6875 72.90625 
L 8.296875 -9.28125 
L 0 -9.28125 
z
" id="DejaVuSans-47"/>
      <path d="M 45.40625 46.390625 
L 45.40625 75.984375 
L 54.390625 75.984375 
L 54.390625 0 
L 45.40625 0 
L 45.40625 8.203125 
Q 42.578125 3.328125 38.25 0.953125 
Q 33.9375 -1.421875 27.875 -1.421875 
Q 17.96875 -1.421875 11.734375 6.484375 
Q 5.515625 14.40625 5.515625 27.296875 
Q 5.515625 40.1875 11.734375 48.09375 
Q 17.96875 56 27.875 56 
Q 33.9375 56 38.25 53.625 
Q 42.578125 51.265625 45.40625 46.390625 
z
M 14.796875 27.296875 
Q 14.796875 17.390625 18.875 11.75 
Q 22.953125 6.109375 30.078125 6.109375 
Q 37.203125 6.109375 41.296875 11.75 
Q 45.40625 17.390625 45.40625 27.296875 
Q 45.40625 37.203125 41.296875 42.84375 
Q 37.203125 48.484375 30.078125 48.484375 
Q 22.953125 48.484375 18.875 42.84375 
Q 14.796875 37.203125 14.796875 27.296875 
z
" id="DejaVuSans-100"/>
      <path d="M 9.421875 54.6875 
L 18.40625 54.6875 
L 18.40625 0 
L 9.421875 0 
z
M 9.421875 75.984375 
L 18.40625 75.984375 
L 18.40625 64.59375 
L 9.421875 64.59375 
z
" id="DejaVuSans-105"/>
      <path d="M 52 44.1875 
Q 55.375 50.25 60.0625 53.125 
Q 64.75 56 71.09375 56 
Q 79.640625 56 84.28125 50.015625 
Q 88.921875 44.046875 88.921875 33.015625 
L 88.921875 0 
L 79.890625 0 
L 79.890625 32.71875 
Q 79.890625 40.578125 77.09375 44.375 
Q 74.3125 48.1875 68.609375 48.1875 
Q 61.625 48.1875 57.5625 43.546875 
Q 53.515625 38.921875 53.515625 30.90625 
L 53.515625 0 
L 44.484375 0 
L 44.484375 32.71875 
Q 44.484375 40.625 41.703125 44.40625 
Q 38.921875 48.1875 33.109375 48.1875 
Q 26.21875 48.1875 22.15625 43.53125 
Q 18.109375 38.875 18.109375 30.90625 
L 18.109375 0 
L 9.078125 0 
L 9.078125 54.6875 
L 18.109375 54.6875 
L 18.109375 46.1875 
Q 21.1875 51.21875 25.484375 53.609375 
Q 29.78125 56 35.6875 56 
Q 41.65625 56 45.828125 52.96875 
Q 50 49.953125 52 44.1875 
z
" id="DejaVuSans-109"/>
      <path d="M 54.890625 33.015625 
L 54.890625 0 
L 45.90625 0 
L 45.90625 32.71875 
Q 45.90625 40.484375 42.875 44.328125 
Q 39.84375 48.1875 33.796875 48.1875 
Q 26.515625 48.1875 22.3125 43.546875 
Q 18.109375 38.921875 18.109375 30.90625 
L 18.109375 0 
L 9.078125 0 
L 9.078125 54.6875 
L 18.109375 54.6875 
L 18.109375 46.1875 
Q 21.34375 51.125 25.703125 53.5625 
Q 30.078125 56 35.796875 56 
Q 45.21875 56 50.046875 50.171875 
Q 54.890625 44.34375 54.890625 33.015625 
z
" id="DejaVuSans-110"/>
      <path d="M 8.015625 75.875 
L 15.828125 75.875 
Q 23.140625 64.359375 26.78125 53.3125 
Q 30.421875 42.28125 30.421875 31.390625 
Q 30.421875 20.453125 26.78125 9.375 
Q 23.140625 -1.703125 15.828125 -13.1875 
L 8.015625 -13.1875 
Q 14.5 -2 17.703125 9.0625 
Q 20.90625 20.125 20.90625 31.390625 
Q 20.90625 42.671875 17.703125 53.65625 
Q 14.5 64.65625 8.015625 75.875 
z
" id="DejaVuSans-41"/>
     </defs>
     <g transform="translate(77.764078 342.217594)scale(0.17 -0.17)">
      <use xlink:href="#DejaVuSans-108"/>
      <use x="27.783203" xlink:href="#DejaVuSans-111"/>
      <use x="88.964844" xlink:href="#DejaVuSans-103"/>
      <use x="152.441406" xlink:href="#DejaVuSans-49"/>
      <use x="216.064453" xlink:href="#DejaVuSans-48"/>
      <use x="279.6875" xlink:href="#DejaVuSans-40"/>
      <use x="318.701172" xlink:href="#DejaVuSans-35"/>
      <use x="402.490234" xlink:href="#DejaVuSans-32"/>
      <use x="434.277344" xlink:href="#DejaVuSans-102"/>
      <use x="463.982422" xlink:href="#DejaVuSans-45"/>
      <use x="500.066406" xlink:href="#DejaVuSans-101"/>
      <use x="561.589844" xlink:href="#DejaVuSans-118"/>
      <use x="620.769531" xlink:href="#DejaVuSans-97"/>
      <use x="682.048828" xlink:href="#DejaVuSans-108"/>
      <use x="709.832031" xlink:href="#DejaVuSans-115"/>
      <use x="761.931641" xlink:href="#DejaVuSans-32"/>
      <use x="793.71875" xlink:href="#DejaVuSans-47"/>
      <use x="827.410156" xlink:href="#DejaVuSans-32"/>
      <use x="859.197266" xlink:href="#DejaVuSans-100"/>
      <use x="922.673828" xlink:href="#DejaVuSans-105"/>
      <use x="950.457031" xlink:href="#DejaVuSans-109"/>
      <use x="1047.869141" xlink:href="#DejaVuSans-101"/>
      <use x="1109.392578" xlink:href="#DejaVuSans-110"/>
      <use x="1172.771484" xlink:href="#DejaVuSans-115"/>
      <use x="1224.871094" xlink:href="#DejaVuSans-105"/>
      <use x="1252.654297" xlink:href="#DejaVuSans-111"/>
      <use x="1313.835938" xlink:href="#DejaVuSans-110"/>
      <use x="1377.214844" xlink:href="#DejaVuSans-41"/>
     </g>
    </g>
   </g>
   <g id="matplotlib.axis_2">
    <g id="ytick_1">
     <g id="line2d_21">
      <path clip-path="url(#p92e06694cf)" d="M 57.6 298.944 
L 338.688 298.944 
" style="fill:none;stroke:#b0b0b0;stroke-linecap:square;stroke-width:0.8;"/>
     </g>
     <g id="line2d_22">
      <defs>
       <path d="M 0 0 
L -3.5 0 
" id="m8e7d7cdda1" style="stroke:#000000;stroke-width:0.8;"/>
      </defs>
      <g>
       <use style="stroke:#000000;stroke-width:0.8;" x="57.6" xlink:href="#m8e7d7cdda1" y="298.944"/>
      </g>
     </g>
     <g id="text_6">
      <!-- 0.0 -->
      <defs>
       <path d="M 10.6875 12.40625 
L 21 12.40625 
L 21 0 
L 10.6875 0 
z
" id="DejaVuSans-46"/>
      </defs>
      <g transform="translate(25.155 305.02275)scale(0.16 -0.16)">
       <use xlink:href="#DejaVuSans-48"/>
       <use x="63.623047" xlink:href="#DejaVuSans-46"/>
       <use x="95.410156" xlink:href="#DejaVuSans-48"/>
      </g>
     </g>
    </g>
    <g id="ytick_2">
     <g id="line2d_23">
      <path clip-path="url(#p92e06694cf)" d="M 57.6 245.22202 
L 338.688 245.22202 
" style="fill:none;stroke:#b0b0b0;stroke-linecap:square;stroke-width:0.8;"/>
     </g>
     <g id="line2d_24">
      <g>
       <use style="stroke:#000000;stroke-width:0.8;" x="57.6" xlink:href="#m8e7d7cdda1" y="245.22202"/>
      </g>
     </g>
     <g id="text_7">
      <!-- 0.2 -->
      <g transform="translate(25.155 251.30077)scale(0.16 -0.16)">
       <use xlink:href="#DejaVuSans-48"/>
       <use x="63.623047" xlink:href="#DejaVuSans-46"/>
       <use x="95.410156" xlink:href="#DejaVuSans-50"/>
      </g>
     </g>
    </g>
    <g id="ytick_3">
     <g id="line2d_25">
      <path clip-path="url(#p92e06694cf)" d="M 57.6 191.50004 
L 338.688 191.50004 
" style="fill:none;stroke:#b0b0b0;stroke-linecap:square;stroke-width:0.8;"/>
     </g>
     <g id="line2d_26">
      <g>
       <use style="stroke:#000000;stroke-width:0.8;" x="57.6" xlink:href="#m8e7d7cdda1" y="191.50004"/>
      </g>
     </g>
     <g id="text_8">
      <!-- 0.4 -->
      <g transform="translate(25.155 197.57879)scale(0.16 -0.16)">
       <use xlink:href="#DejaVuSans-48"/>
       <use x="63.623047" xlink:href="#DejaVuSans-46"/>
       <use x="95.410156" xlink:href="#DejaVuSans-52"/>
      </g>
     </g>
    </g>
    <g id="ytick_4">
     <g id="line2d_27">
      <path clip-path="url(#p92e06694cf)" d="M 57.6 137.778059 
L 338.688 137.778059 
" style="fill:none;stroke:#b0b0b0;stroke-linecap:square;stroke-width:0.8;"/>
     </g>
     <g id="line2d_28">
      <g>
       <use style="stroke:#000000;stroke-width:0.8;" x="57.6" xlink:href="#m8e7d7cdda1" y="137.778059"/>
      </g>
     </g>
     <g id="text_9">
      <!-- 0.6 -->
      <g transform="translate(25.155 143.856809)scale(0.16 -0.16)">
       <use xlink:href="#DejaVuSans-48"/>
       <use x="63.623047" xlink:href="#DejaVuSans-46"/>
       <use x="95.410156" xlink:href="#DejaVuSans-54"/>
      </g>
     </g>
    </g>
    <g id="ytick_5">
     <g id="line2d_29">
      <path clip-path="url(#p92e06694cf)" d="M 57.6 84.056079 
L 338.688 84.056079 
" style="fill:none;stroke:#b0b0b0;stroke-linecap:square;stroke-width:0.8;"/>
     </g>
     <g id="line2d_30">
      <g>
       <use style="stroke:#000000;stroke-width:0.8;" x="57.6" xlink:href="#m8e7d7cdda1" y="84.056079"/>
      </g>
     </g>
     <g id="text_10">
      <!-- 0.8 -->
      <defs>
       <path d="M 31.78125 34.625 
Q 24.75 34.625 20.71875 30.859375 
Q 16.703125 27.09375 16.703125 20.515625 
Q 16.703125 13.921875 20.71875 10.15625 
Q 24.75 6.390625 31.78125 6.390625 
Q 38.8125 6.390625 42.859375 10.171875 
Q 46.921875 13.96875 46.921875 20.515625 
Q 46.921875 27.09375 42.890625 30.859375 
Q 38.875 34.625 31.78125 34.625 
z
M 21.921875 38.8125 
Q 15.578125 40.375 12.03125 44.71875 
Q 8.5 49.078125 8.5 55.328125 
Q 8.5 64.0625 14.71875 69.140625 
Q 20.953125 74.21875 31.78125 74.21875 
Q 42.671875 74.21875 48.875 69.140625 
Q 55.078125 64.0625 55.078125 55.328125 
Q 55.078125 49.078125 51.53125 44.71875 
Q 48 40.375 41.703125 38.8125 
Q 48.828125 37.15625 52.796875 32.3125 
Q 56.78125 27.484375 56.78125 20.515625 
Q 56.78125 9.90625 50.3125 4.234375 
Q 43.84375 -1.421875 31.78125 -1.421875 
Q 19.734375 -1.421875 13.25 4.234375 
Q 6.78125 9.90625 6.78125 20.515625 
Q 6.78125 27.484375 10.78125 32.3125 
Q 14.796875 37.15625 21.921875 38.8125 
z
M 18.3125 54.390625 
Q 18.3125 48.734375 21.84375 45.5625 
Q 25.390625 42.390625 31.78125 42.390625 
Q 38.140625 42.390625 41.71875 45.5625 
Q 45.3125 48.734375 45.3125 54.390625 
Q 45.3125 60.0625 41.71875 63.234375 
Q 38.140625 66.40625 31.78125 66.40625 
Q 25.390625 66.40625 21.84375 63.234375 
Q 18.3125 60.0625 18.3125 54.390625 
z
" id="DejaVuSans-56"/>
      </defs>
      <g transform="translate(25.155 90.134829)scale(0.16 -0.16)">
       <use xlink:href="#DejaVuSans-48"/>
       <use x="63.623047" xlink:href="#DejaVuSans-46"/>
       <use x="95.410156" xlink:href="#DejaVuSans-56"/>
      </g>
     </g>
    </g>
    <g id="ytick_6">
     <g id="line2d_31">
      <path clip-path="url(#p92e06694cf)" d="M 57.6 30.334099 
L 338.688 30.334099 
" style="fill:none;stroke:#b0b0b0;stroke-linecap:square;stroke-width:0.8;"/>
     </g>
     <g id="line2d_32">
      <g>
       <use style="stroke:#000000;stroke-width:0.8;" x="57.6" xlink:href="#m8e7d7cdda1" y="30.334099"/>
      </g>
     </g>
     <g id="text_11">
      <!-- 1.0 -->
      <g transform="translate(25.155 36.412849)scale(0.16 -0.16)">
       <use xlink:href="#DejaVuSans-49"/>
       <use x="63.623047" xlink:href="#DejaVuSans-46"/>
       <use x="95.410156" xlink:href="#DejaVuSans-48"/>
      </g>
     </g>
    </g>
    <g id="text_12">
     <!-- Fraction of function,target pairs -->
     <defs>
      <path d="M 9.8125 72.90625 
L 51.703125 72.90625 
L 51.703125 64.59375 
L 19.671875 64.59375 
L 19.671875 43.109375 
L 48.578125 43.109375 
L 48.578125 34.8125 
L 19.671875 34.8125 
L 19.671875 0 
L 9.8125 0 
z
" id="DejaVuSans-70"/>
      <path d="M 41.109375 46.296875 
Q 39.59375 47.171875 37.8125 47.578125 
Q 36.03125 48 33.890625 48 
Q 26.265625 48 22.1875 43.046875 
Q 18.109375 38.09375 18.109375 28.8125 
L 18.109375 0 
L 9.078125 0 
L 9.078125 54.6875 
L 18.109375 54.6875 
L 18.109375 46.1875 
Q 20.953125 51.171875 25.484375 53.578125 
Q 30.03125 56 36.53125 56 
Q 37.453125 56 38.578125 55.875 
Q 39.703125 55.765625 41.0625 55.515625 
z
" id="DejaVuSans-114"/>
      <path d="M 48.78125 52.59375 
L 48.78125 44.1875 
Q 44.96875 46.296875 41.140625 47.34375 
Q 37.3125 48.390625 33.40625 48.390625 
Q 24.65625 48.390625 19.8125 42.84375 
Q 14.984375 37.3125 14.984375 27.296875 
Q 14.984375 17.28125 19.8125 11.734375 
Q 24.65625 6.203125 33.40625 6.203125 
Q 37.3125 6.203125 41.140625 7.25 
Q 44.96875 8.296875 48.78125 10.40625 
L 48.78125 2.09375 
Q 45.015625 0.34375 40.984375 -0.53125 
Q 36.96875 -1.421875 32.421875 -1.421875 
Q 20.0625 -1.421875 12.78125 6.34375 
Q 5.515625 14.109375 5.515625 27.296875 
Q 5.515625 40.671875 12.859375 48.328125 
Q 20.21875 56 33.015625 56 
Q 37.15625 56 41.109375 55.140625 
Q 45.0625 54.296875 48.78125 52.59375 
z
" id="DejaVuSans-99"/>
      <path d="M 18.3125 70.21875 
L 18.3125 54.6875 
L 36.8125 54.6875 
L 36.8125 47.703125 
L 18.3125 47.703125 
L 18.3125 18.015625 
Q 18.3125 11.328125 20.140625 9.421875 
Q 21.96875 7.515625 27.59375 7.515625 
L 36.8125 7.515625 
L 36.8125 0 
L 27.59375 0 
Q 17.1875 0 13.234375 3.875 
Q 9.28125 7.765625 9.28125 18.015625 
L 9.28125 47.703125 
L 2.6875 47.703125 
L 2.6875 54.6875 
L 9.28125 54.6875 
L 9.28125 70.21875 
z
" id="DejaVuSans-116"/>
      <path d="M 8.5 21.578125 
L 8.5 54.6875 
L 17.484375 54.6875 
L 17.484375 21.921875 
Q 17.484375 14.15625 20.5 10.265625 
Q 23.53125 6.390625 29.59375 6.390625 
Q 36.859375 6.390625 41.078125 11.03125 
Q 45.3125 15.671875 45.3125 23.6875 
L 45.3125 54.6875 
L 54.296875 54.6875 
L 54.296875 0 
L 45.3125 0 
L 45.3125 8.40625 
Q 42.046875 3.421875 37.71875 1 
Q 33.40625 -1.421875 27.6875 -1.421875 
Q 18.265625 -1.421875 13.375 4.4375 
Q 8.5 10.296875 8.5 21.578125 
z
M 31.109375 56 
z
" id="DejaVuSans-117"/>
      <path d="M 11.71875 12.40625 
L 22.015625 12.40625 
L 22.015625 4 
L 14.015625 -11.625 
L 7.71875 -11.625 
L 11.71875 4 
z
" id="DejaVuSans-44"/>
      <path d="M 18.109375 8.203125 
L 18.109375 -20.796875 
L 9.078125 -20.796875 
L 9.078125 54.6875 
L 18.109375 54.6875 
L 18.109375 46.390625 
Q 20.953125 51.265625 25.265625 53.625 
Q 29.59375 56 35.59375 56 
Q 45.5625 56 51.78125 48.09375 
Q 58.015625 40.1875 58.015625 27.296875 
Q 58.015625 14.40625 51.78125 6.484375 
Q 45.5625 -1.421875 35.59375 -1.421875 
Q 29.59375 -1.421875 25.265625 0.953125 
Q 20.953125 3.328125 18.109375 8.203125 
z
M 48.6875 27.296875 
Q 48.6875 37.203125 44.609375 42.84375 
Q 40.53125 48.484375 33.40625 48.484375 
Q 26.265625 48.484375 22.1875 42.84375 
Q 18.109375 37.203125 18.109375 27.296875 
Q 18.109375 17.390625 22.1875 11.75 
Q 26.265625 6.109375 33.40625 6.109375 
Q 40.53125 6.109375 44.609375 11.75 
Q 48.6875 17.390625 48.6875 27.296875 
z
" id="DejaVuSans-112"/>
     </defs>
     <g transform="translate(17.619531 297.681)rotate(-90)scale(0.17 -0.17)">
      <use xlink:href="#DejaVuSans-70"/>
      <use x="50.269531" xlink:href="#DejaVuSans-114"/>
      <use x="91.382812" xlink:href="#DejaVuSans-97"/>
      <use x="152.662109" xlink:href="#DejaVuSans-99"/>
      <use x="207.642578" xlink:href="#DejaVuSans-116"/>
      <use x="246.851562" xlink:href="#DejaVuSans-105"/>
      <use x="274.634766" xlink:href="#DejaVuSans-111"/>
      <use x="335.816406" xlink:href="#DejaVuSans-110"/>
      <use x="399.195312" xlink:href="#DejaVuSans-32"/>
      <use x="430.982422" xlink:href="#DejaVuSans-111"/>
      <use x="492.164062" xlink:href="#DejaVuSans-102"/>
      <use x="527.369141" xlink:href="#DejaVuSans-32"/>
      <use x="559.15625" xlink:href="#DejaVuSans-102"/>
      <use x="594.361328" xlink:href="#DejaVuSans-117"/>
      <use x="657.740234" xlink:href="#DejaVuSans-110"/>
      <use x="721.119141" xlink:href="#DejaVuSans-99"/>
      <use x="776.099609" xlink:href="#DejaVuSans-116"/>
      <use x="815.308594" xlink:href="#DejaVuSans-105"/>
      <use x="843.091797" xlink:href="#DejaVuSans-111"/>
      <use x="904.273438" xlink:href="#DejaVuSans-110"/>
      <use x="967.652344" xlink:href="#DejaVuSans-44"/>
      <use x="999.439453" xlink:href="#DejaVuSans-116"/>
      <use x="1038.648438" xlink:href="#DejaVuSans-97"/>
      <use x="1099.927734" xlink:href="#DejaVuSans-114"/>
      <use x="1139.291016" xlink:href="#DejaVuSans-103"/>
      <use x="1202.767578" xlink:href="#DejaVuSans-101"/>
      <use x="1264.291016" xlink:href="#DejaVuSans-116"/>
      <use x="1303.5" xlink:href="#DejaVuSans-32"/>
      <use x="1335.287109" xlink:href="#DejaVuSans-112"/>
      <use x="1398.763672" xlink:href="#DejaVuSans-97"/>
      <use x="1460.042969" xlink:href="#DejaVuSans-105"/>
      <use x="1487.826172" xlink:href="#DejaVuSans-114"/>
      <use x="1528.939453" xlink:href="#DejaVuSans-115"/>
     </g>
    </g>
   </g>
   <g id="line2d_33">
    <defs>
     <path d="M 0 1.5 
C 0.397805 1.5 0.77937 1.341951 1.06066 1.06066 
C 1.341951 0.77937 1.5 0.397805 1.5 0 
C 1.5 -0.397805 1.341951 -0.77937 1.06066 -1.06066 
C 0.77937 -1.341951 0.397805 -1.5 0 -1.5 
C -0.397805 -1.5 -0.77937 -1.341951 -1.06066 -1.06066 
C -1.341951 -0.77937 -1.5 -0.397805 -1.5 0 
C -1.5 0.397805 -1.341951 0.77937 -1.06066 1.06066 
C -0.77937 1.341951 -0.397805 1.5 0 1.5 
z
" id="m6325ae3eb5" style="stroke:#f5deb3;"/>
    </defs>
    <g>
     <use style="fill:#f5deb3;stroke:#f5deb3;" x="172.577957" xlink:href="#m6325ae3eb5" y="30.334099"/>
     <use style="fill:#f5deb3;stroke:#f5deb3;" x="172.577957" xlink:href="#m6325ae3eb5" y="30.334099"/>
    </g>
   </g>
   <g id="line2d_34">
    <defs>
     <path d="M 0 1.5 
C 0.397805 1.5 0.77937 1.341951 1.06066 1.06066 
C 1.341951 0.77937 1.5 0.397805 1.5 0 
C 1.5 -0.397805 1.341951 -0.77937 1.06066 -1.06066 
C 0.77937 -1.341951 0.397805 -1.5 0 -1.5 
C -0.397805 -1.5 -0.77937 -1.341951 -1.06066 -1.06066 
C -1.341951 -0.77937 -1.5 -0.397805 -1.5 0 
C -1.5 0.397805 -1.341951 0.77937 -1.06066 1.06066 
C -0.77937 1.341951 -0.397805 1.5 0 1.5 
z
" id="m13b2f725a9" style="stroke:#ff00ff;"/>
    </defs>
    <g>
     <use style="fill:#ff00ff;stroke:#ff00ff;" x="219.665293" xlink:href="#m13b2f725a9" y="30.334099"/>
     <use style="fill:#ff00ff;stroke:#ff00ff;" x="219.665293" xlink:href="#m13b2f725a9" y="30.334099"/>
    </g>
   </g>
   <g id="line2d_35">
    <path d="M 45.512012 298.944 
L 45.512012 295.257197 
L 57.6 295.257197 
L 57.6 290.517023 
L 64.67102 290.517023 
L 64.67102 285.250162 
L 69.687988 285.250162 
L 69.687988 280.509987 
L 76.759008 280.509987 
L 76.759008 279.456615 
L 94.921215 279.456615 
L 94.921215 278.403243 
L 95.918017 278.403243 
L 95.918017 277.876557 
L 98.606294 277.876557 
L 98.606294 276.823185 
L 100.192776 276.823185 
L 100.192776 276.296499 
L 102.330873 276.296499 
L 102.330873 275.769812 
L 104.826449 275.769812 
L 104.826449 274.71644 
L 107.514726 274.71644 
L 107.514726 274.189754 
L 109.401893 274.189754 
L 109.401893 272.08301 
L 109.843417 272.08301 
L 109.843417 271.556324 
L 120.093994 271.556324 
L 120.093994 268.922893 
L 121.712041 268.922893 
L 121.712041 268.396207 
L 122.148045 268.396207 
L 122.148045 266.816149 
L 127.002787 266.816149 
L 127.002787 266.289463 
L 128.709321 266.289463 
L 128.709321 265.762777 
L 129.433047 265.762777 
L 129.433047 264.709405 
L 130.398313 264.709405 
L 130.398313 264.182719 
L 133.009765 264.182719 
L 133.009765 263.656033 
L 133.239232 263.656033 
L 133.239232 263.129347 
L 133.352844 263.129347 
L 133.352844 262.60266 
L 134.450015 262.60266 
L 134.450015 261.549288 
L 135.076644 261.549288 
L 135.076644 261.022602 
L 135.681535 261.022602 
L 135.681535 260.495916 
L 136.738785 260.495916 
L 136.738785 259.96923 
L 137.469333 259.96923 
L 137.469333 258.915858 
L 140.499195 258.915858 
L 140.499195 258.389172 
L 141.941279 258.389172 
L 141.941279 256.282427 
L 142.419098 256.282427 
L 142.419098 255.755741 
L 144.269971 255.755741 
L 144.269971 255.229055 
L 144.688773 255.229055 
L 144.688773 254.702369 
L 144.923649 254.702369 
L 144.923649 253.648997 
L 145.039911 253.648997 
L 145.039911 253.122311 
L 148.87334 253.122311 
L 148.87334 252.595625 
L 149.241465 252.595625 
L 149.241465 250.488881 
L 151.700576 250.488881 
L 151.779487 249.435508 
L 153.142033 249.435508 
L 153.142033 248.382136 
L 154.337936 248.382136 
L 154.337936 247.85545 
L 155.296925 247.85545 
L 155.296925 246.802078 
L 156.687861 246.802078 
L 156.687861 246.275392 
L 158.994256 246.275392 
L 159.098062 244.168648 
L 161.442917 244.168648 
L 161.442917 243.641962 
L 161.867469 243.641962 
L 161.867469 242.061903 
L 163.729146 242.061903 
L 163.729146 238.375101 
L 164.179597 238.375101 
L 164.179597 237.848415 
L 165.157053 237.848415 
L 165.157053 237.321729 
L 165.46508 237.321729 
L 165.46508 236.268356 
L 165.643763 236.268356 
L 165.643763 235.74167 
L 166.34073 235.74167 
L 166.34073 234.688298 
L 167.158215 234.688298 
L 167.158215 233.634926 
L 167.336582 233.634926 
L 167.336582 231.528182 
L 167.84533 231.528182 
L 167.84533 231.001496 
L 168.001318 231.001496 
L 168.001318 230.47481 
L 168.656606 230.47481 
L 168.656606 228.894751 
L 168.805533 228.894751 
L 168.805533 228.368065 
L 169.070439 228.368065 
L 169.070439 227.314693 
L 169.981016 227.314693 
L 169.981016 224.681263 
L 170.187727 224.681263 
L 170.187727 224.154577 
L 170.700684 224.154577 
L 170.700684 223.627891 
L 170.912232 223.627891 
L 170.912232 222.574518 
L 171.18605 222.574518 
L 171.211906 220.99446 
L 171.353428 220.99446 
L 171.353428 219.941088 
L 171.557249 219.941088 
L 171.557249 219.414402 
L 171.808721 219.414402 
L 171.808721 218.887716 
L 172.397859 218.887716 
L 172.446067 215.200913 
L 172.696997 215.200913 
L 172.768032 213.620855 
L 173.621148 213.620855 
L 173.621148 212.567483 
L 173.933369 212.567483 
L 173.988539 210.987425 
L 174.07645 210.987425 
L 174.13117 208.88068 
L 174.218366 208.88068 
L 174.283479 203.087133 
L 174.337554 203.087133 
L 174.337554 200.453703 
L 174.700886 200.453703 
L 174.806323 197.820273 
L 175.004915 197.820273 
L 175.025688 196.240214 
L 175.405599 196.240214 
L 175.496772 194.660156 
L 175.62763 194.660156 
L 175.62763 194.13347 
L 175.984964 194.13347 
L 176.02422 191.50004 
L 176.151193 191.50004 
L 176.151193 190.446667 
L 176.478973 190.446667 
L 176.478973 189.393295 
L 176.67839 189.393295 
L 176.744358 185.179807 
L 177.107399 185.179807 
L 177.153401 184.126434 
L 177.308905 184.126434 
L 177.399735 182.546376 
L 177.562046 182.546376 
L 177.588952 179.912946 
L 177.846921 179.912946 
L 177.855749 177.806202 
L 178.083716 177.806202 
L 178.144586 174.119399 
L 178.222537 174.119399 
L 178.265693 170.959282 
L 178.428718 170.959282 
L 178.522409 167.27248 
L 178.598693 167.27248 
L 178.598693 164.63905 
L 178.73349 164.63905 
L 178.792138 163.058991 
L 178.925454 163.058991 
L 178.925454 161.478933 
L 179.335615 161.478933 
L 179.335615 160.952247 
L 179.472902 160.952247 
L 179.545147 157.79213 
L 179.775924 157.79213 
L 179.870531 152.52527 
L 180.112585 152.52527 
L 180.16678 149.891839 
L 180.243911 149.891839 
L 180.243911 148.311781 
L 180.366615 148.311781 
L 180.412408 144.624978 
L 180.49605 144.624978 
L 180.49605 144.098292 
L 180.707163 144.098292 
L 180.707163 143.04492 
L 180.982272 143.04492 
L 181.092577 138.304745 
L 181.231304 138.304745 
L 181.231304 137.251373 
L 181.347276 137.251373 
L 181.376149 135.671315 
L 181.534102 135.671315 
L 181.612545 133.037885 
L 181.761327 133.037885 
L 181.796565 131.457826 
L 181.880847 131.457826 
L 181.880847 130.93114 
L 182.048198 130.93114 
L 182.103627 129.877768 
L 182.165775 129.877768 
L 182.241433 126.717652 
L 182.554315 126.717652 
L 182.594715 125.66428 
L 182.708675 125.66428 
L 182.78202 120.924105 
L 182.874923 120.924105 
L 182.874923 120.397419 
L 183.065806 120.397419 
L 183.137667 118.290674 
L 183.274039 118.290674 
L 183.274039 117.763988 
L 183.638904 117.763988 
L 183.733666 115.657244 
L 183.865473 115.657244 
L 183.884222 114.077186 
L 184.15691 114.077186 
L 184.15691 111.970441 
L 184.467735 111.970441 
L 184.467735 111.443755 
L 184.885534 111.443755 
L 184.885534 110.917069 
L 185.505431 110.917069 
L 185.505431 110.390383 
L 185.954922 110.390383 
L 186.021357 109.337011 
L 186.240998 109.337011 
L 186.240998 107.756953 
L 186.75182 107.756953 
L 186.852213 106.176895 
L 186.883796 106.176895 
L 186.883796 104.596836 
L 187.770687 104.596836 
L 187.770687 104.07015 
L 188.509564 104.07015 
L 188.581281 101.963406 
L 189.107648 101.963406 
L 189.107648 100.910034 
L 189.296432 100.910034 
L 189.374112 99.329976 
L 189.419646 99.329976 
L 189.419646 98.803289 
L 196.251046 98.803289 
L 196.251046 97.749917 
L 196.603982 97.749917 
L 196.603982 97.223231 
L 196.870007 97.223231 
L 196.938101 96.169859 
L 197.1408 96.169859 
L 197.1408 95.116487 
L 197.286225 95.116487 
L 197.286225 94.589801 
L 197.427575 94.589801 
L 197.427575 94.063115 
L 197.822422 94.063115 
L 197.822422 93.536429 
L 198.15074 93.536429 
L 198.244204 90.902998 
L 198.288014 90.902998 
L 198.288014 90.376312 
L 198.462164 90.376312 
L 198.483811 87.742882 
L 198.754816 87.742882 
L 198.754816 87.216196 
L 198.898001 87.216196 
L 198.927025 83.529393 
L 199.042639 83.529393 
L 199.09755 81.422649 
L 199.217229 81.422649 
L 199.217229 80.895963 
L 199.354109 80.895963 
L 199.431116 79.842591 
L 199.474602 79.842591 
L 199.545991 77.20916 
L 199.644941 77.20916 
L 199.705555 75.629102 
L 199.778518 75.629102 
L 199.778518 75.102416 
L 199.935979 75.102416 
L 200.017894 73.522358 
L 200.067353 73.522358 
L 200.163397 71.415613 
L 200.336899 71.415613 
L 200.424217 69.835555 
L 200.448395 69.835555 
L 200.448395 69.308869 
L 200.563983 69.308869 
L 200.616706 67.202125 
L 200.797623 67.202125 
L 200.797623 66.675439 
L 200.925038 66.675439 
L 201.002447 65.622066 
L 201.058529 65.622066 
L 201.165519 63.515322 
L 201.188691 63.515322 
L 201.211832 62.46195 
L 201.370676 62.46195 
L 201.370676 61.408578 
L 201.493987 61.408578 
L 201.518999 60.355206 
L 201.695338 60.355206 
L 201.776127 59.301833 
L 202.229178 59.301833 
L 202.316223 58.248461 
L 202.553378 58.248461 
L 202.664375 57.195089 
L 202.871661 57.195089 
L 202.871661 56.668403 
L 203.276929 56.668403 
L 203.276929 56.141717 
L 203.596514 56.141717 
L 203.596514 55.615031 
L 203.838883 55.615031 
L 203.838883 55.088345 
L 203.953877 55.088345 
L 203.953877 54.561659 
L 207.765718 54.561659 
L 207.765718 54.034973 
L 207.906492 54.034973 
L 207.906492 53.508287 
L 208.342108 53.508287 
L 208.342108 52.454914 
L 208.731082 52.454914 
L 208.841922 50.874856 
L 208.897079 50.874856 
L 208.989115 49.294798 
L 209.008351 49.294798 
L 209.092446 48.241426 
L 209.203945 48.241426 
L 209.230249 47.188054 
L 209.317642 47.188054 
L 209.403154 45.081309 
L 209.481053 45.081309 
L 209.481053 44.554623 
L 209.612974 44.554623 
L 209.679985 43.501251 
L 209.743904 43.501251 
L 209.743904 42.974565 
L 210.177983 42.974565 
L 210.252504 41.394507 
L 210.427885 41.394507 
L 210.427885 40.867821 
L 210.651391 40.867821 
L 210.714535 39.814448 
L 214.406382 39.814448 
L 214.406382 39.287762 
L 214.609216 39.287762 
L 214.609216 38.761076 
L 214.783189 38.761076 
L 214.783189 38.23439 
L 214.919653 38.23439 
L 215.023662 36.654332 
L 215.146827 36.654332 
L 215.146827 36.127646 
L 215.396731 36.127646 
L 215.396731 35.60096 
L 215.597554 35.60096 
L 215.597554 35.074274 
L 215.844124 35.074274 
L 215.844124 34.547588 
L 216.178668 34.547588 
L 216.274478 33.494215 
L 216.523262 33.494215 
L 216.523262 32.967529 
L 216.644904 32.967529 
L 216.687803 31.387471 
L 219.568703 31.387471 
L 219.665293 30.334099 
L 338.688 30.334099 
L 338.688 30.334099 
" style="fill:none;stroke:#ff00ff;stroke-linecap:square;stroke-width:1.5;"/>
   </g>
   <g id="line2d_36">
    <defs>
     <path d="M -0 8.485281 
L 5.091169 0 
L 0 -8.485281 
L -5.091169 -0 
z
" id="m572e46c62b" style="stroke:#ff00ff;stroke-linejoin:miter;stroke-width:1.5;"/>
    </defs>
    <g>
     <use style="fill-opacity:0;stroke:#ff00ff;stroke-linejoin:miter;stroke-width:1.5;" x="109.401893" xlink:href="#m572e46c62b" y="272.08301"/>
     <use style="fill-opacity:0;stroke:#ff00ff;stroke-linejoin:miter;stroke-width:1.5;" x="176.697263" xlink:href="#m572e46c62b" y="188.866609"/>
     <use style="fill-opacity:0;stroke:#ff00ff;stroke-linejoin:miter;stroke-width:1.5;" x="203.953877" xlink:href="#m572e46c62b" y="54.561659"/>
     <use style="fill-opacity:0;stroke:#ff00ff;stroke-linejoin:miter;stroke-width:1.5;" x="219.665293" xlink:href="#m572e46c62b" y="30.860785"/>
     <use style="fill-opacity:0;stroke:#ff00ff;stroke-linejoin:miter;stroke-width:1.5;" x="219.665293" xlink:href="#m572e46c62b" y="30.334099"/>
     <use style="fill-opacity:0;stroke:#ff00ff;stroke-linejoin:miter;stroke-width:1.5;" x="338.688" xlink:href="#m572e46c62b" y="30.334099"/>
    </g>
   </g>
   <g id="line2d_37">
    <path style="fill:none;stroke:#ff00ff;stroke-linecap:square;stroke-width:1.5;"/>
    <g/>
   </g>
   <g id="line2d_38">
    <path clip-path="url(#p92e06694cf)" d="M 194.045737 98.803289 
" style="fill:none;stroke:#ff00ff;stroke-linecap:square;stroke-width:1.5;"/>
    <defs>
     <path d="M -12 12 
L 12 -12 
M -12 -12 
L 12 12 
" id="m9db6f4e758" style="stroke:#ff00ff;"/>
    </defs>
    <g clip-path="url(#p92e06694cf)">
     <use style="fill:#ff00ff;stroke:#ff00ff;" x="194.045737" xlink:href="#m9db6f4e758" y="98.803289"/>
    </g>
   </g>
   <g id="line2d_39">
    <defs>
     <path d="M 0 1.5 
C 0.397805 1.5 0.77937 1.341951 1.06066 1.06066 
C 1.341951 0.77937 1.5 0.397805 1.5 0 
C 1.5 -0.397805 1.341951 -0.77937 1.06066 -1.06066 
C 0.77937 -1.341951 0.397805 -1.5 0 -1.5 
C -0.397805 -1.5 -0.77937 -1.341951 -1.06066 -1.06066 
C -1.341951 -0.77937 -1.5 -0.397805 -1.5 0 
C -1.5 0.397805 -1.341951 0.77937 -1.06066 1.06066 
C -0.77937 1.341951 -0.397805 1.5 0 1.5 
z
" id="mf0da2ac653" style="stroke:#ff7500;"/>
    </defs>
    <g>
     <use style="fill:#ff7500;stroke:#ff7500;" x="238.719369" xlink:href="#mf0da2ac653" y="30.334099"/>
     <use style="fill:#ff7500;stroke:#ff7500;" x="238.719369" xlink:href="#mf0da2ac653" y="30.334099"/>
    </g>
   </g>
   <g id="line2d_40">
    <path d="M 45.512012 298.944 
L 45.512012 295.783884 
L 57.6 295.783884 
L 57.6 291.570395 
L 64.67102 291.570395 
L 64.67102 286.303534 
L 69.687988 286.303534 
L 69.687988 282.616732 
L 88.846997 282.616732 
L 88.846997 282.090045 
L 94.921215 282.090045 
L 94.921215 279.983301 
L 95.918017 279.983301 
L 95.918017 278.929929 
L 98.606294 278.929929 
L 98.606294 277.876557 
L 100.192776 277.876557 
L 100.192776 277.349871 
L 102.330873 277.349871 
L 102.330873 276.823185 
L 103.623262 276.823185 
L 103.623262 276.296499 
L 104.826449 276.296499 
L 104.826449 275.769812 
L 107.514726 275.769812 
L 107.514726 274.71644 
L 109.401893 274.71644 
L 109.401893 272.08301 
L 109.843417 272.08301 
L 109.843417 271.556324 
L 114.080224 271.556324 
L 114.080224 271.029638 
L 114.751048 271.029638 
L 114.751048 270.502952 
L 117.202696 270.502952 
L 117.202696 269.976266 
L 119.602714 269.976266 
L 119.602714 269.449579 
L 120.8059 269.449579 
L 120.8059 268.922893 
L 124.557288 268.922893 
L 124.557288 268.396207 
L 125.996395 268.396207 
L 125.996395 267.869521 
L 126.338353 267.869521 
L 126.338353 266.289463 
L 127.48501 266.289463 
L 127.48501 265.236091 
L 129.002426 265.236091 
L 129.002426 264.709405 
L 130.263646 264.709405 
L 130.263646 264.182719 
L 130.664567 264.182719 
L 130.664567 263.656033 
L 131.565689 263.656033 
L 131.565689 263.129347 
L 133.46572 263.129347 
L 133.46572 262.60266 
L 138.594838 262.60266 
L 138.67848 261.022602 
L 139.652088 261.022602 
L 139.652088 259.96923 
L 139.8092 259.96923 
L 139.8092 258.915858 
L 141.090414 258.915858 
L 141.090414 257.862486 
L 141.235139 257.862486 
L 141.235139 256.809114 
L 143.014805 256.809114 
L 143.014805 256.282427 
L 143.208936 256.282427 
L 143.208936 255.755741 
L 145.097753 255.755741 
L 145.155404 253.122311 
L 147.570215 253.122311 
L 147.570215 252.595625 
L 148.161434 252.595625 
L 148.161434 252.068939 
L 149.377533 252.068939 
L 149.377533 251.542253 
L 149.867558 251.542253 
L 149.867558 251.015567 
L 151.740076 251.015567 
L 151.740076 249.435508 
L 152.283884 249.435508 
L 152.283884 248.908822 
L 152.398241 248.908822 
L 152.398241 248.382136 
L 152.549559 248.382136 
L 152.549559 247.85545 
L 153.142033 247.85545 
L 153.142033 246.802078 
L 154.873541 246.802078 
L 154.873541 246.275392 
L 157.243392 246.275392 
L 157.243392 245.748706 
L 157.809652 245.748706 
L 157.809652 244.695334 
L 157.94839 244.695334 
L 157.94839 244.168648 
L 159.072168 244.168648 
L 159.072168 243.641962 
L 160.418152 243.641962 
L 160.418152 243.115275 
L 161.329454 243.115275 
L 161.329454 242.588589 
L 162.065021 242.588589 
L 162.065021 241.008531 
L 162.432178 241.008531 
L 162.432178 240.481845 
L 163.926426 240.481845 
L 163.926426 239.428473 
L 164.524182 239.428473 
L 164.524182 237.321729 
L 165.302685 237.321729 
L 165.302685 236.268356 
L 165.855793 236.268356 
L 165.855793 235.74167 
L 166.493781 235.74167 
L 166.493781 235.214984 
L 166.779265 235.214984 
L 166.779265 234.161612 
L 167.320442 234.161612 
L 167.320442 233.634926 
L 168.094245 233.634926 
L 168.094245 232.054868 
L 168.309168 232.054868 
L 168.309168 228.894751 
L 168.566635 228.894751 
L 168.566635 224.681263 
L 168.701418 224.681263 
L 168.701418 222.047832 
L 169.259288 222.047832 
L 169.259288 220.99446 
L 169.474679 220.99446 
L 169.474679 220.467774 
L 169.659223 220.467774 
L 169.659223 219.941088 
L 170.337772 219.941088 
L 170.337772 218.887716 
L 170.459584 218.887716 
L 170.459584 217.834344 
L 170.977818 217.834344 
L 170.977818 217.307658 
L 172.118046 217.307658 
L 172.118046 215.200913 
L 172.301041 215.200913 
L 172.301041 214.147541 
L 172.944366 214.147541 
L 173.037687 211.514111 
L 173.496944 211.514111 
L 173.576085 209.934052 
L 173.710926 209.934052 
L 173.710926 209.407366 
L 173.922314 209.407366 
L 174.021557 207.300622 
L 175.067161 207.300622 
L 175.067161 206.773936 
L 175.283289 206.773936 
L 175.283289 206.24725 
L 176.459861 206.24725 
L 176.459861 205.720564 
L 177.098184 205.720564 
L 177.098184 205.193878 
L 177.908622 205.193878 
L 177.908622 204.140506 
L 179.164521 204.140506 
L 179.172706 201.507075 
L 179.295031 201.507075 
L 179.335615 198.873645 
L 179.901953 198.873645 
L 179.901953 198.346959 
L 180.915752 198.346959 
L 180.915752 197.820273 
L 181.245843 197.820273 
L 181.245843 193.080098 
L 181.612545 193.080098 
L 181.648084 192.026726 
L 181.929824 192.026726 
L 181.929824 191.50004 
L 182.179555 191.50004 
L 182.179555 190.973354 
L 182.43255 190.973354 
L 182.43255 189.919981 
L 182.755385 189.919981 
L 182.828533 186.759865 
L 182.888155 186.759865 
L 182.888155 185.706493 
L 183.254622 185.706493 
L 183.364365 182.01969 
L 183.498982 182.01969 
L 183.498982 177.806202 
L 183.859219 177.806202 
L 183.859219 176.752829 
L 184.039681 176.752829 
L 184.039681 175.699457 
L 184.255021 175.699457 
L 184.255021 174.119399 
L 184.55811 174.119399 
L 184.55811 173.066027 
L 184.677886 173.066027 
L 184.761242 170.959282 
L 185.102392 170.959282 
L 185.201133 165.692422 
L 185.2185 165.692422 
L 185.299317 161.478933 
L 185.669713 161.478933 
L 185.742857 159.898875 
L 186.093044 159.898875 
L 186.19182 157.265444 
L 186.560002 157.265444 
L 186.608155 155.685386 
L 186.688115 155.685386 
L 186.688115 154.632014 
L 187.072105 154.632014 
L 187.072105 154.105328 
L 187.447822 154.105328 
L 187.458002 151.998584 
L 187.850478 151.998584 
L 187.880306 150.945211 
L 188.112208 150.945211 
L 188.112208 150.418525 
L 188.244047 150.418525 
L 188.258635 149.365153 
L 188.399021 149.365153 
L 188.399021 146.731723 
L 188.566961 146.731723 
L 188.566961 140.41149 
L 188.695419 140.41149 
L 188.695419 139.358118 
L 188.893381 139.358118 
L 188.991525 136.724687 
L 189.005501 136.724687 
L 189.005501 136.198001 
L 189.140025 136.198001 
L 189.140025 135.671315 
L 189.278104 135.671315 
L 189.383229 130.93114 
L 189.433283 130.93114 
L 189.433283 129.351082 
L 189.551024 129.351082 
L 189.641057 128.29771 
L 189.721691 128.29771 
L 189.730627 126.717652 
L 189.99221 126.717652 
L 190.097504 119.870733 
L 190.114992 119.870733 
L 190.145552 116.710616 
L 190.473953 116.710616 
L 190.473953 116.18393 
L 190.686682 116.18393 
L 190.783672 109.863697 
L 190.804686 109.863697 
L 190.892668 108.810325 
L 191.042469 108.810325 
L 191.067312 106.703581 
L 191.297482 106.703581 
L 191.378955 102.490092 
L 191.427657 102.490092 
L 191.488344 97.749917 
L 191.673143 97.749917 
L 191.768789 94.589801 
L 191.982092 94.589801 
L 192.079966 91.429684 
L 192.095575 91.429684 
L 192.107273 89.849626 
L 192.370337 89.849626 
L 192.42018 87.216196 
L 192.599203 87.216196 
L 192.708753 79.315904 
L 192.951826 79.315904 
L 193.037032 72.995672 
L 193.195221 72.995672 
L 193.286536 69.308869 
L 193.326563 69.308869 
L 193.424425 65.09538 
L 193.492963 65.09538 
L 193.597057 53.508287 
L 193.618516 53.508287 
L 193.618516 52.454914 
L 193.767997 52.454914 
L 193.806936 49.294798 
L 193.902146 49.294798 
L 193.902146 48.768112 
L 205.178524 48.768112 
L 205.191414 47.188054 
L 205.470799 47.188054 
L 205.470799 46.134681 
L 205.636665 46.134681 
L 205.735076 44.554623 
L 205.758256 44.554623 
L 205.758256 42.447879 
L 205.871925 42.447879 
L 205.910829 39.814448 
L 206.014734 39.814448 
L 206.014734 39.287762 
L 212.765606 39.287762 
L 212.765606 38.761076 
L 213.125508 38.761076 
L 213.125508 37.181018 
L 217.750652 37.181018 
L 217.750652 36.654332 
L 218.03499 36.654332 
L 218.093941 35.074274 
L 221.953401 35.074274 
L 221.963958 34.020902 
L 225.128617 34.020902 
L 225.128617 33.494215 
L 225.25316 33.494215 
L 225.25316 32.967529 
L 227.874557 32.967529 
L 227.874557 31.914157 
L 230.210014 31.914157 
L 230.210014 31.387471 
L 234.070581 31.387471 
L 234.070581 30.860785 
L 238.719369 30.860785 
L 238.719369 30.334099 
L 338.688 30.334099 
L 338.688 30.334099 
" style="fill:none;stroke:#ff7500;stroke-linecap:square;stroke-width:1.5;"/>
   </g>
   <g id="line2d_41">
    <defs>
     <path d="M 0 -6 
L -1.347084 -1.854102 
L -5.706339 -1.854102 
L -2.179628 0.708204 
L -3.526712 4.854102 
L -0 2.291796 
L 3.526712 4.854102 
L 2.179628 0.708204 
L 5.706339 -1.854102 
L 1.347084 -1.854102 
z
" id="m71969735d8" style="stroke:#ff7500;stroke-linejoin:bevel;stroke-width:1.5;"/>
    </defs>
    <g>
     <use style="fill-opacity:0;stroke:#ff7500;stroke-linejoin:bevel;stroke-width:1.5;" x="145.097753" xlink:href="#m71969735d8" y="255.755741"/>
     <use style="fill-opacity:0;stroke:#ff7500;stroke-linejoin:bevel;stroke-width:1.5;" x="191.427657" xlink:href="#m71969735d8" y="102.490092"/>
     <use style="fill-opacity:0;stroke:#ff7500;stroke-linejoin:bevel;stroke-width:1.5;" x="225.25316" xlink:href="#m71969735d8" y="32.967529"/>
     <use style="fill-opacity:0;stroke:#ff7500;stroke-linejoin:bevel;stroke-width:1.5;" x="238.719369" xlink:href="#m71969735d8" y="30.334099"/>
     <use style="fill-opacity:0;stroke:#ff7500;stroke-linejoin:bevel;stroke-width:1.5;" x="238.719369" xlink:href="#m71969735d8" y="30.334099"/>
     <use style="fill-opacity:0;stroke:#ff7500;stroke-linejoin:bevel;stroke-width:1.5;" x="338.688" xlink:href="#m71969735d8" y="30.334099"/>
    </g>
   </g>
   <g id="line2d_42">
    <path style="fill:none;stroke:#ff7500;stroke-linecap:square;stroke-width:1.5;"/>
    <g/>
   </g>
   <g id="line2d_43">
    <path clip-path="url(#p92e06694cf)" d="M 194.045737 48.768112 
" style="fill:none;stroke:#ff7500;stroke-linecap:square;stroke-width:1.5;"/>
    <defs>
     <path d="M -12 12 
L 12 -12 
M -12 -12 
L 12 12 
" id="m6b68f0c3ac" style="stroke:#ff7500;"/>
    </defs>
    <g clip-path="url(#p92e06694cf)">
     <use style="fill:#ff7500;stroke:#ff7500;" x="194.045737" xlink:href="#m6b68f0c3ac" y="48.768112"/>
    </g>
   </g>
   <g id="line2d_44">
    <defs>
     <path d="M 0 1.5 
C 0.397805 1.5 0.77937 1.341951 1.06066 1.06066 
C 1.341951 0.77937 1.5 0.397805 1.5 0 
C 1.5 -0.397805 1.341951 -0.77937 1.06066 -1.06066 
C 0.77937 -1.341951 0.397805 -1.5 0 -1.5 
C -0.397805 -1.5 -0.77937 -1.341951 -1.06066 -1.06066 
C -1.341951 -0.77937 -1.5 -0.397805 -1.5 0 
C -1.5 0.397805 -1.341951 0.77937 -1.06066 1.06066 
C -0.77937 1.341951 -0.397805 1.5 0 1.5 
z
" id="mfedf12f3fb" style="stroke:#6495ed;"/>
    </defs>
    <g>
     <use style="fill:#6495ed;stroke:#6495ed;" x="212.168919" xlink:href="#mfedf12f3fb" y="30.334099"/>
     <use style="fill:#6495ed;stroke:#6495ed;" x="212.168919" xlink:href="#mfedf12f3fb" y="30.334099"/>
    </g>
   </g>
   <g id="line2d_45">
    <path d="M 45.512012 298.944 
L 45.512012 296.31057 
L 57.6 296.31057 
L 57.6 292.097081 
L 64.67102 292.097081 
L 64.67102 285.250162 
L 69.687988 285.250162 
L 69.687988 280.509987 
L 76.759008 280.509987 
L 76.759008 279.456615 
L 92.73846 279.456615 
L 92.73846 278.929929 
L 94.921215 278.929929 
L 94.921215 277.876557 
L 95.918017 277.876557 
L 95.918017 276.823185 
L 100.192776 276.823185 
L 100.192776 276.296499 
L 103.623262 276.296499 
L 103.623262 275.769812 
L 104.826449 275.769812 
L 104.826449 275.243126 
L 107.514726 275.243126 
L 107.514726 274.71644 
L 109.401893 274.71644 
L 109.401893 273.663068 
L 110.694282 273.663068 
L 110.694282 271.556324 
L 113.73488 271.556324 
L 113.73488 271.029638 
L 118.576578 271.029638 
L 118.576578 270.502952 
L 119.602714 270.502952 
L 119.602714 269.976266 
L 125.996395 269.976266 
L 125.996395 268.396207 
L 126.338353 268.396207 
L 126.338353 267.342835 
L 126.839037 267.342835 
L 126.839037 266.816149 
L 128.107907 266.816149 
L 128.107907 266.289463 
L 128.260216 266.289463 
L 128.260216 265.762777 
L 129.574256 265.762777 
L 129.574256 264.182719 
L 130.531948 264.182719 
L 130.531948 261.549288 
L 132.060454 261.549288 
L 132.060454 261.022602 
L 135.280614 261.022602 
L 135.280614 260.495916 
L 136.831795 260.495916 
L 136.831795 259.96923 
L 137.910857 259.96923 
L 137.997836 258.389172 
L 138.426341 258.389172 
L 138.426341 257.3358 
L 138.761723 257.3358 
L 138.761723 256.809114 
L 139.090775 256.809114 
L 139.090775 255.755741 
L 139.493548 255.755741 
L 139.493548 253.648997 
L 141.307054 253.648997 
L 141.307054 253.122311 
L 141.662245 253.122311 
L 141.662245 252.595625 
L 142.07914 252.595625 
L 142.07914 252.068939 
L 145.270136 252.068939 
L 145.270136 251.015567 
L 146.591092 251.015567 
L 146.591092 250.488881 
L 146.854132 250.488881 
L 146.854132 249.962195 
L 147.769524 249.962195 
L 147.769524 249.435508 
L 149.15016 249.435508 
L 149.15016 248.908822 
L 150.172372 248.908822 
L 150.172372 247.85545 
L 150.973835 247.85545 
L 150.973835 246.802078 
L 151.541675 246.802078 
L 151.541675 245.22202 
L 153.214697 245.22202 
L 153.214697 244.695334 
L 156.776762 244.695334 
L 156.776762 243.641962 
L 158.086033 243.641962 
L 158.086033 241.535217 
L 160.030058 241.535217 
L 160.030058 239.955159 
L 160.200913 239.955159 
L 160.200913 239.428473 
L 161.488097 239.428473 
L 161.488097 238.375101 
L 161.88953 238.375101 
L 161.88953 236.268356 
L 163.489428 236.268356 
L 163.489428 235.74167 
L 163.788565 235.74167 
L 163.788565 234.688298 
L 164.486229 234.688298 
L 164.505216 232.581554 
L 165.608172 232.581554 
L 165.608172 232.054868 
L 165.803027 232.054868 
L 165.803027 230.47481 
L 166.425924 230.47481 
L 166.425924 229.948123 
L 166.845764 229.948123 
L 166.845764 228.894751 
L 166.978005 228.894751 
L 166.978005 225.207949 
L 167.109252 225.207949 
L 167.174506 223.101204 
L 168.445948 223.101204 
L 168.445948 222.047832 
L 169.026567 222.047832 
L 169.026567 220.467774 
L 170.077786 220.467774 
L 170.077786 219.941088 
L 170.256089 219.941088 
L 170.256089 218.887716 
L 170.58055 218.887716 
L 170.58055 216.254285 
L 171.327782 216.254285 
L 171.327782 215.727599 
L 171.442893 215.727599 
L 171.442893 215.200913 
L 171.73366 215.200913 
L 171.73366 214.147541 
L 172.191475 214.147541 
L 172.191475 213.620855 
L 172.494143 213.620855 
L 172.554051 211.514111 
L 172.768032 211.514111 
L 172.768032 209.934052 
L 172.956059 209.934052 
L 172.956059 209.407366 
L 173.428822 209.407366 
L 173.428822 208.88068 
L 173.988539 208.88068 
L 173.988539 208.353994 
L 174.13117 208.353994 
L 174.13117 206.24725 
L 174.932012 206.24725 
L 174.932012 204.140506 
L 175.077514 204.140506 
L 175.077514 203.613819 
L 175.232072 203.613819 
L 175.252577 200.453703 
L 175.385274 200.453703 
L 175.466434 198.873645 
L 175.836964 198.873645 
L 175.836964 196.7669 
L 176.082938 196.7669 
L 176.082938 194.13347 
L 176.478973 194.13347 
L 176.55521 193.080098 
L 176.894213 193.080098 
L 176.894213 191.50004 
L 177.454007 191.50004 
L 177.562046 188.339923 
L 177.642639 188.339923 
L 177.65157 186.759865 
L 177.776137 186.759865 
L 177.785001 185.706493 
L 177.987632 185.706493 
L 178.022633 182.01969 
L 178.10983 182.01969 
L 178.10983 181.493004 
L 178.265693 181.493004 
L 178.334521 171.485969 
L 178.496907 171.485969 
L 178.496907 170.959282 
L 178.683063 170.959282 
L 178.683063 170.432596 
L 178.858923 170.432596 
L 178.858923 168.852538 
L 179.327506 168.852538 
L 179.424571 164.63905 
L 179.744273 164.63905 
L 179.744273 164.112363 
L 179.878392 164.112363 
L 179.878392 163.585677 
L 180.16678 163.585677 
L 180.174508 159.372189 
L 180.366615 159.372189 
L 180.366615 156.738758 
L 180.518792 156.738758 
L 180.58684 153.578642 
L 180.848977 153.578642 
L 180.878686 149.891839 
L 180.960126 149.891839 
L 180.960126 149.365153 
L 181.289386 149.365153 
L 181.289386 148.311781 
L 181.512647 148.311781 
L 181.512647 146.205037 
L 181.655184 146.205037 
L 181.690637 141.464862 
L 181.852798 141.464862 
L 181.90885 136.198001 
L 182.220831 136.198001 
L 182.282564 135.144629 
L 182.527329 135.144629 
L 182.594715 127.244338 
L 182.661841 127.244338 
L 182.681928 125.137593 
L 182.92119 125.137593 
L 182.940981 124.084221 
L 183.280506 124.084221 
L 183.338605 117.237302 
L 183.790277 117.237302 
L 183.790277 116.18393 
L 183.90295 116.18393 
L 183.90295 115.657244 
L 184.199902 115.657244 
L 184.199902 115.130558 
L 184.503941 115.130558 
L 184.582131 111.970441 
L 184.761242 111.970441 
L 184.802771 110.917069 
L 184.932651 110.917069 
L 184.979642 108.810325 
L 185.055732 108.810325 
L 185.166347 107.230267 
L 185.230068 107.230267 
L 185.230068 106.703581 
L 185.396952 106.703581 
L 185.44271 99.329976 
L 185.539547 99.329976 
L 185.6302 98.276603 
L 185.68662 98.276603 
L 185.742857 95.116487 
L 185.854792 95.116487 
L 185.921609 90.376312 
L 185.966012 90.376312 
L 186.076527 86.68951 
L 186.19182 86.68951 
L 186.295479 85.636137 
L 186.463296 85.636137 
L 186.527826 81.949335 
L 186.709376 81.949335 
L 186.815293 78.262532 
L 186.857481 78.262532 
L 186.857481 77.735846 
L 186.988663 77.735846 
L 187.098099 75.102416 
L 187.196524 75.102416 
L 187.273837 70.888927 
L 187.335442 70.888927 
L 187.442729 68.255497 
L 187.452913 68.255497 
L 187.452913 67.202125 
L 187.660375 67.202125 
L 187.740671 64.568694 
L 187.845502 64.568694 
L 187.855453 60.881892 
L 188.077864 60.881892 
L 188.077864 60.355206 
L 188.219708 60.355206 
L 188.229447 58.248461 
L 188.930834 58.248461 
L 188.930834 57.721775 
L 189.079849 57.721775 
L 189.13078 54.034973 
L 189.218403 54.034973 
L 189.310165 52.454914 
L 189.469596 52.454914 
L 189.469596 51.928228 
L 189.752948 51.928228 
L 189.77524 49.294798 
L 190.005407 49.294798 
L 190.049323 45.607995 
L 190.980209 45.607995 
L 191.087987 44.554623 
L 191.309728 44.554623 
L 191.309728 44.027937 
L 191.812451 44.027937 
L 191.812451 42.974565 
L 192.08387 42.974565 
L 192.08387 42.447879 
L 197.395943 42.447879 
L 197.395943 41.921193 
L 197.771792 41.921193 
L 197.771792 41.394507 
L 199.074038 41.394507 
L 199.15489 40.341135 
L 199.896123 40.341135 
L 199.990632 37.707704 
L 200.312567 37.707704 
L 200.409695 36.654332 
L 200.542368 36.654332 
L 200.542368 36.127646 
L 200.764437 36.127646 
L 200.764437 35.60096 
L 201.084174 35.60096 
L 201.084174 35.074274 
L 202.077998 35.074274 
L 202.077998 34.547588 
L 202.298848 34.547588 
L 202.298848 34.020902 
L 202.55766 34.020902 
L 202.576917 32.967529 
L 203.099355 32.967529 
L 203.099355 32.440843 
L 204.119086 32.440843 
L 204.119086 31.914157 
L 209.123326 31.914157 
L 209.123326 31.387471 
L 211.084736 31.387471 
L 211.084736 30.860785 
L 212.168919 30.860785 
L 212.168919 30.334099 
L 338.688 30.334099 
L 338.688 30.334099 
" style="fill:none;stroke:#6495ed;stroke-linecap:square;stroke-width:1.5;"/>
   </g>
   <g id="line2d_46">
    <defs>
     <path d="M -0 6 
L 6 -6 
L -6 -6 
z
" id="mff080f0868" style="stroke:#6495ed;stroke-linejoin:miter;stroke-width:1.5;"/>
    </defs>
    <g>
     <use style="fill-opacity:0;stroke:#6495ed;stroke-linejoin:miter;stroke-width:1.5;" x="104.826449" xlink:href="#mff080f0868" y="275.769812"/>
     <use style="fill-opacity:0;stroke:#6495ed;stroke-linejoin:miter;stroke-width:1.5;" x="166.845764" xlink:href="#mff080f0868" y="228.894751"/>
     <use style="fill-opacity:0;stroke:#6495ed;stroke-linejoin:miter;stroke-width:1.5;" x="199.15489" xlink:href="#mff080f0868" y="40.341135"/>
     <use style="fill-opacity:0;stroke:#6495ed;stroke-linejoin:miter;stroke-width:1.5;" x="212.168919" xlink:href="#mff080f0868" y="30.334099"/>
     <use style="fill-opacity:0;stroke:#6495ed;stroke-linejoin:miter;stroke-width:1.5;" x="212.168919" xlink:href="#mff080f0868" y="30.334099"/>
     <use style="fill-opacity:0;stroke:#6495ed;stroke-linejoin:miter;stroke-width:1.5;" x="338.688" xlink:href="#mff080f0868" y="30.334099"/>
    </g>
   </g>
   <g id="line2d_47">
    <path style="fill:none;stroke:#6495ed;stroke-linecap:square;stroke-width:1.5;"/>
    <g/>
   </g>
   <g id="line2d_48">
    <path clip-path="url(#p92e06694cf)" d="M 194.045737 42.447879 
" style="fill:none;stroke:#6495ed;stroke-linecap:square;stroke-width:1.5;"/>
    <defs>
     <path d="M -12 12 
L 12 -12 
M -12 -12 
L 12 12 
" id="m76874fc2e3" style="stroke:#6495ed;"/>
    </defs>
    <g clip-path="url(#p92e06694cf)">
     <use style="fill:#6495ed;stroke:#6495ed;" x="194.045737" xlink:href="#m76874fc2e3" y="42.447879"/>
    </g>
   </g>
   <g id="line2d_49">
    <path d="M 338.688 30.334099 
L 369.60768 293.571802 
" style="fill:none;stroke:#ff7500;stroke-linecap:square;stroke-width:1.5;"/>
    <g>
     <use style="fill-opacity:0;stroke:#ff7500;stroke-linejoin:bevel;stroke-width:1.5;" x="338.688" xlink:href="#m71969735d8" y="30.334099"/>
     <use style="fill-opacity:0;stroke:#ff7500;stroke-linejoin:bevel;stroke-width:1.5;" x="369.60768" xlink:href="#m71969735d8" y="293.571802"/>
    </g>
   </g>
   <g id="line2d_50">
    <path d="M 338.688 30.334099 
L 369.60768 207.616634 
" style="fill:none;stroke:#ff00ff;stroke-linecap:square;stroke-width:1.5;"/>
    <g>
     <use style="fill-opacity:0;stroke:#ff00ff;stroke-linejoin:miter;stroke-width:1.5;" x="338.688" xlink:href="#m572e46c62b" y="30.334099"/>
     <use style="fill-opacity:0;stroke:#ff00ff;stroke-linejoin:miter;stroke-width:1.5;" x="369.60768" xlink:href="#m572e46c62b" y="207.616634"/>
    </g>
   </g>
   <g id="line2d_51">
    <path d="M 338.688 30.334099 
L 369.60768 121.661465 
" style="fill:none;stroke:#6495ed;stroke-linecap:square;stroke-width:1.5;"/>
    <g>
     <use style="fill-opacity:0;stroke:#6495ed;stroke-linejoin:miter;stroke-width:1.5;" x="338.688" xlink:href="#mff080f0868" y="30.334099"/>
     <use style="fill-opacity:0;stroke:#6495ed;stroke-linejoin:miter;stroke-width:1.5;" x="369.60768" xlink:href="#mff080f0868" y="121.661465"/>
    </g>
   </g>
   <g id="line2d_52">
    <path d="M 338.688 298.944 
L 338.688 30.334099 
" style="fill:none;stroke:#000000;stroke-linecap:square;stroke-width:1.5;"/>
   </g>
   <g id="patch_3">
    <path d="M 57.6 298.944 
L 57.6 27.648 
" style="fill:none;stroke:#000000;stroke-linecap:square;stroke-linejoin:miter;stroke-width:0.8;"/>
   </g>
   <g id="patch_4">
    <path d="M 338.688 298.944 
L 338.688 27.648 
" style="fill:none;stroke:#000000;stroke-linecap:square;stroke-linejoin:miter;stroke-width:0.8;"/>
   </g>
   <g id="patch_5">
    <path d="M 57.6 298.944 
L 338.688 298.944 
" style="fill:none;stroke:#000000;stroke-linecap:square;stroke-linejoin:miter;stroke-width:0.8;"/>
   </g>
   <g id="patch_6">
    <path d="M 57.6 27.648 
L 338.688 27.648 
" style="fill:none;stroke:#000000;stroke-linecap:square;stroke-linejoin:miter;stroke-width:0.8;"/>
   </g>
   <g id="text_13">
    <!-- DEPSO -->
    <defs>
     <path d="M 19.671875 64.796875 
L 19.671875 8.109375 
L 31.59375 8.109375 
Q 46.6875 8.109375 53.6875 14.9375 
Q 60.6875 21.78125 60.6875 36.53125 
Q 60.6875 51.171875 53.6875 57.984375 
Q 46.6875 64.796875 31.59375 64.796875 
z
M 9.8125 72.90625 
L 30.078125 72.90625 
Q 51.265625 72.90625 61.171875 64.09375 
Q 71.09375 55.28125 71.09375 36.53125 
Q 71.09375 17.671875 61.125 8.828125 
Q 51.171875 0 30.078125 0 
L 9.8125 0 
z
" id="DejaVuSans-68"/>
     <path d="M 9.8125 72.90625 
L 55.90625 72.90625 
L 55.90625 64.59375 
L 19.671875 64.59375 
L 19.671875 43.015625 
L 54.390625 43.015625 
L 54.390625 34.71875 
L 19.671875 34.71875 
L 19.671875 8.296875 
L 56.78125 8.296875 
L 56.78125 0 
L 9.8125 0 
z
" id="DejaVuSans-69"/>
     <path d="M 19.671875 64.796875 
L 19.671875 37.40625 
L 32.078125 37.40625 
Q 38.96875 37.40625 42.71875 40.96875 
Q 46.484375 44.53125 46.484375 51.125 
Q 46.484375 57.671875 42.71875 61.234375 
Q 38.96875 64.796875 32.078125 64.796875 
z
M 9.8125 72.90625 
L 32.078125 72.90625 
Q 44.34375 72.90625 50.609375 67.359375 
Q 56.890625 61.8125 56.890625 51.125 
Q 56.890625 40.328125 50.609375 34.8125 
Q 44.34375 29.296875 32.078125 29.296875 
L 19.671875 29.296875 
L 19.671875 0 
L 9.8125 0 
z
" id="DejaVuSans-80"/>
     <path d="M 53.515625 70.515625 
L 53.515625 60.890625 
Q 47.90625 63.578125 42.921875 64.890625 
Q 37.9375 66.21875 33.296875 66.21875 
Q 25.25 66.21875 20.875 63.09375 
Q 16.5 59.96875 16.5 54.203125 
Q 16.5 49.359375 19.40625 46.890625 
Q 22.3125 44.4375 30.421875 42.921875 
L 36.375 41.703125 
Q 47.40625 39.59375 52.65625 34.296875 
Q 57.90625 29 57.90625 20.125 
Q 57.90625 9.515625 50.796875 4.046875 
Q 43.703125 -1.421875 29.984375 -1.421875 
Q 24.8125 -1.421875 18.96875 -0.25 
Q 13.140625 0.921875 6.890625 3.21875 
L 6.890625 13.375 
Q 12.890625 10.015625 18.65625 8.296875 
Q 24.421875 6.59375 29.984375 6.59375 
Q 38.421875 6.59375 43.015625 9.90625 
Q 47.609375 13.234375 47.609375 19.390625 
Q 47.609375 24.75 44.3125 27.78125 
Q 41.015625 30.8125 33.5 32.328125 
L 27.484375 33.5 
Q 16.453125 35.6875 11.515625 40.375 
Q 6.59375 45.0625 6.59375 53.421875 
Q 6.59375 63.09375 13.40625 68.65625 
Q 20.21875 74.21875 32.171875 74.21875 
Q 37.3125 74.21875 42.625 73.28125 
Q 47.953125 72.359375 53.515625 70.515625 
z
" id="DejaVuSans-83"/>
     <path d="M 39.40625 66.21875 
Q 28.65625 66.21875 22.328125 58.203125 
Q 16.015625 50.203125 16.015625 36.375 
Q 16.015625 22.609375 22.328125 14.59375 
Q 28.65625 6.59375 39.40625 6.59375 
Q 50.140625 6.59375 56.421875 14.59375 
Q 62.703125 22.609375 62.703125 36.375 
Q 62.703125 50.203125 56.421875 58.203125 
Q 50.140625 66.21875 39.40625 66.21875 
z
M 39.40625 74.21875 
Q 54.734375 74.21875 63.90625 63.9375 
Q 73.09375 53.65625 73.09375 36.375 
Q 73.09375 19.140625 63.90625 8.859375 
Q 54.734375 -1.421875 39.40625 -1.421875 
Q 24.03125 -1.421875 14.8125 8.828125 
Q 5.609375 19.09375 5.609375 36.375 
Q 5.609375 53.65625 14.8125 63.9375 
Q 24.03125 74.21875 39.40625 74.21875 
z
" id="DejaVuSans-79"/>
    </defs>
    <g transform="translate(375.22944 298.262739)scale(0.17 -0.17)">
     <use xlink:href="#DejaVuSans-68"/>
     <use x="77.001953" xlink:href="#DejaVuSans-69"/>
     <use x="140.185547" xlink:href="#DejaVuSans-80"/>
     <use x="200.488281" xlink:href="#DejaVuSans-83"/>
     <use x="263.964844" xlink:href="#DejaVuSans-79"/>
    </g>
   </g>
   <g id="text_14">
    <!-- DE -->
    <g transform="translate(375.22944 212.307571)scale(0.17 -0.17)">
     <use xlink:href="#DejaVuSans-68"/>
     <use x="77.001953" xlink:href="#DejaVuSans-69"/>
    </g>
   </g>
   <g id="text_15">
    <!-- PSO -->
    <g transform="translate(375.22944 126.352403)scale(0.17 -0.17)">
     <use xlink:href="#DejaVuSans-80"/>
     <use x="60.302734" xlink:href="#DejaVuSans-83"/>
     <use x="123.779297" xlink:href="#DejaVuSans-79"/>
    </g>
   </g>
   <g id="text_16">
    <!-- best 2009 -->
    <defs>
     <path d="M 48.6875 27.296875 
Q 48.6875 37.203125 44.609375 42.84375 
Q 40.53125 48.484375 33.40625 48.484375 
Q 26.265625 48.484375 22.1875 42.84375 
Q 18.109375 37.203125 18.109375 27.296875 
Q 18.109375 17.390625 22.1875 11.75 
Q 26.265625 6.109375 33.40625 6.109375 
Q 40.53125 6.109375 44.609375 11.75 
Q 48.6875 17.390625 48.6875 27.296875 
z
M 18.109375 46.390625 
Q 20.953125 51.265625 25.265625 53.625 
Q 29.59375 56 35.59375 56 
Q 45.5625 56 51.78125 48.09375 
Q 58.015625 40.1875 58.015625 27.296875 
Q 58.015625 14.40625 51.78125 6.484375 
Q 45.5625 -1.421875 35.59375 -1.421875 
Q 29.59375 -1.421875 25.265625 0.953125 
Q 20.953125 3.328125 18.109375 8.203125 
L 18.109375 0 
L 9.078125 0 
L 9.078125 75.984375 
L 18.109375 75.984375 
z
" id="DejaVuSans-98"/>
     <path d="M 10.984375 1.515625 
L 10.984375 10.5 
Q 14.703125 8.734375 18.5 7.8125 
Q 22.3125 6.890625 25.984375 6.890625 
Q 35.75 6.890625 40.890625 13.453125 
Q 46.046875 20.015625 46.78125 33.40625 
Q 43.953125 29.203125 39.59375 26.953125 
Q 35.25 24.703125 29.984375 24.703125 
Q 19.046875 24.703125 12.671875 31.3125 
Q 6.296875 37.9375 6.296875 49.421875 
Q 6.296875 60.640625 12.9375 67.421875 
Q 19.578125 74.21875 30.609375 74.21875 
Q 43.265625 74.21875 49.921875 64.515625 
Q 56.59375 54.828125 56.59375 36.375 
Q 56.59375 19.140625 48.40625 8.859375 
Q 40.234375 -1.421875 26.421875 -1.421875 
Q 22.703125 -1.421875 18.890625 -0.6875 
Q 15.09375 0.046875 10.984375 1.515625 
z
M 30.609375 32.421875 
Q 37.25 32.421875 41.125 36.953125 
Q 45.015625 41.5 45.015625 49.421875 
Q 45.015625 57.28125 41.125 61.84375 
Q 37.25 66.40625 30.609375 66.40625 
Q 23.96875 66.40625 20.09375 61.84375 
Q 16.21875 57.28125 16.21875 49.421875 
Q 16.21875 41.5 20.09375 36.953125 
Q 23.96875 32.421875 30.609375 32.421875 
z
" id="DejaVuSans-57"/>
    </defs>
    <g transform="translate(375.22944 40.397235)scale(0.17 -0.17)">
     <use xlink:href="#DejaVuSans-98"/>
     <use x="63.476562" xlink:href="#DejaVuSans-101"/>
     <use x="125" xlink:href="#DejaVuSans-115"/>
     <use x="177.099609" xlink:href="#DejaVuSans-116"/>
     <use x="216.308594" xlink:href="#DejaVuSans-32"/>
     <use x="248.095703" xlink:href="#DejaVuSans-50"/>
     <use x="311.71875" xlink:href="#DejaVuSans-48"/>
     <use x="375.341797" xlink:href="#DejaVuSans-48"/>
     <use x="438.964844" xlink:href="#DejaVuSans-57"/>
    </g>
   </g>
   <g id="text_17">
    <!-- bbob f15, 2-D -->
    <defs>
     <path d="M 10.796875 72.90625 
L 49.515625 72.90625 
L 49.515625 64.59375 
L 19.828125 64.59375 
L 19.828125 46.734375 
Q 21.96875 47.46875 24.109375 47.828125 
Q 26.265625 48.1875 28.421875 48.1875 
Q 40.625 48.1875 47.75 41.5 
Q 54.890625 34.8125 54.890625 23.390625 
Q 54.890625 11.625 47.5625 5.09375 
Q 40.234375 -1.421875 26.90625 -1.421875 
Q 22.3125 -1.421875 17.546875 -0.640625 
Q 12.796875 0.140625 7.71875 1.703125 
L 7.71875 11.625 
Q 12.109375 9.234375 16.796875 8.0625 
Q 21.484375 6.890625 26.703125 6.890625 
Q 35.15625 6.890625 40.078125 11.328125 
Q 45.015625 15.765625 45.015625 23.390625 
Q 45.015625 31 40.078125 35.4375 
Q 35.15625 39.890625 26.703125 39.890625 
Q 22.75 39.890625 18.8125 39.015625 
Q 14.890625 38.140625 10.796875 36.28125 
z
" id="DejaVuSans-53"/>
    </defs>
    <g transform="translate(60.41088 38.111366)scale(0.102 -0.102)">
     <use xlink:href="#DejaVuSans-98"/>
     <use x="63.476562" xlink:href="#DejaVuSans-98"/>
     <use x="126.953125" xlink:href="#DejaVuSans-111"/>
     <use x="188.134766" xlink:href="#DejaVuSans-98"/>
     <use x="251.611328" xlink:href="#DejaVuSans-32"/>
     <use x="283.398438" xlink:href="#DejaVuSans-102"/>
     <use x="318.603516" xlink:href="#DejaVuSans-49"/>
     <use x="382.226562" xlink:href="#DejaVuSans-53"/>
     <use x="445.849609" xlink:href="#DejaVuSans-44"/>
     <use x="477.636719" xlink:href="#DejaVuSans-32"/>
     <use x="509.423828" xlink:href="#DejaVuSans-50"/>
     <use x="573.046875" xlink:href="#DejaVuSans-45"/>
     <use x="609.130859" xlink:href="#DejaVuSans-68"/>
    </g>
    <!-- 51 targets: 100..1e-08 -->
    <defs>
     <path d="M 11.71875 12.40625 
L 22.015625 12.40625 
L 22.015625 0 
L 11.71875 0 
z
M 11.71875 51.703125 
L 22.015625 51.703125 
L 22.015625 39.3125 
L 11.71875 39.3125 
z
" id="DejaVuSans-58"/>
    </defs>
    <g transform="translate(60.41088 49.533135)scale(0.102 -0.102)">
     <use xlink:href="#DejaVuSans-53"/>
     <use x="63.623047" xlink:href="#DejaVuSans-49"/>
     <use x="127.246094" xlink:href="#DejaVuSans-32"/>
     <use x="159.033203" xlink:href="#DejaVuSans-116"/>
     <use x="198.242188" xlink:href="#DejaVuSans-97"/>
     <use x="259.521484" xlink:href="#DejaVuSans-114"/>
     <use x="298.884766" xlink:href="#DejaVuSans-103"/>
     <use x="362.361328" xlink:href="#DejaVuSans-101"/>
     <use x="423.884766" xlink:href="#DejaVuSans-116"/>
     <use x="463.09375" xlink:href="#DejaVuSans-115"/>
     <use x="515.193359" xlink:href="#DejaVuSans-58"/>
     <use x="548.884766" xlink:href="#DejaVuSans-32"/>
     <use x="580.671875" xlink:href="#DejaVuSans-49"/>
     <use x="644.294922" xlink:href="#DejaVuSans-48"/>
     <use x="707.917969" xlink:href="#DejaVuSans-48"/>
     <use x="771.541016" xlink:href="#DejaVuSans-46"/>
     <use x="803.328125" xlink:href="#DejaVuSans-46"/>
     <use x="835.115234" xlink:href="#DejaVuSans-49"/>
     <use x="898.738281" xlink:href="#DejaVuSans-101"/>
     <use x="960.261719" xlink:href="#DejaVuSans-45"/>
     <use x="996.345703" xlink:href="#DejaVuSans-48"/>
     <use x="1059.96875" xlink:href="#DejaVuSans-56"/>
    </g>
    <!-- 15 instances -->
    <g transform="translate(60.41088 60.954904)scale(0.102 -0.102)">
     <use xlink:href="#DejaVuSans-49"/>
     <use x="63.623047" xlink:href="#DejaVuSans-53"/>
     <use x="127.246094" xlink:href="#DejaVuSans-32"/>
     <use x="159.033203" xlink:href="#DejaVuSans-105"/>
     <use x="186.816406" xlink:href="#DejaVuSans-110"/>
     <use x="250.195312" xlink:href="#DejaVuSans-115"/>
     <use x="302.294922" xlink:href="#DejaVuSans-116"/>
     <use x="341.503906" xlink:href="#DejaVuSans-97"/>
     <use x="402.783203" xlink:href="#DejaVuSans-110"/>
     <use x="466.162109" xlink:href="#DejaVuSans-99"/>
     <use x="521.142578" xlink:href="#DejaVuSans-101"/>
     <use x="582.666016" xlink:href="#DejaVuSans-115"/>
    </g>
   </g>
   <g id="text_18">
    <!-- v2.4 -->
    <g style="fill:#808080;" transform="translate(187.233062 294.151352)scale(0.1 -0.1)">
     <use xlink:href="#DejaVuSans-118"/>
     <use x="59.179688" xlink:href="#DejaVuSans-50"/>
     <use x="122.802734" xlink:href="#DejaVuSans-46"/>
     <use x="154.589844" xlink:href="#DejaVuSans-52"/>
    </g>
   </g>
   <g id="text_19">
    <!-- 15 Rastrigin -->
    <defs>
     <path d="M 44.390625 34.1875 
Q 47.5625 33.109375 50.5625 29.59375 
Q 53.5625 26.078125 56.59375 19.921875 
L 66.609375 0 
L 56 0 
L 46.6875 18.703125 
Q 43.0625 26.03125 39.671875 28.421875 
Q 36.28125 30.8125 30.421875 30.8125 
L 19.671875 30.8125 
L 19.671875 0 
L 9.8125 0 
L 9.8125 72.90625 
L 32.078125 72.90625 
Q 44.578125 72.90625 50.734375 67.671875 
Q 56.890625 62.453125 56.890625 51.90625 
Q 56.890625 45.015625 53.6875 40.46875 
Q 50.484375 35.9375 44.390625 34.1875 
z
M 19.671875 64.796875 
L 19.671875 38.921875 
L 32.078125 38.921875 
Q 39.203125 38.921875 42.84375 42.21875 
Q 46.484375 45.515625 46.484375 51.90625 
Q 46.484375 58.296875 42.84375 61.546875 
Q 39.203125 64.796875 32.078125 64.796875 
z
" id="DejaVuSans-82"/>
    </defs>
    <g transform="translate(137.9065 21.648)scale(0.2 -0.2)">
     <use xlink:href="#DejaVuSans-49"/>
     <use x="63.623047" xlink:href="#DejaVuSans-53"/>
     <use x="127.246094" xlink:href="#DejaVuSans-32"/>
     <use x="159.033203" xlink:href="#DejaVuSans-82"/>
     <use x="226.265625" xlink:href="#DejaVuSans-97"/>
     <use x="287.544922" xlink:href="#DejaVuSans-115"/>
     <use x="339.644531" xlink:href="#DejaVuSans-116"/>
     <use x="378.853516" xlink:href="#DejaVuSans-114"/>
     <use x="419.966797" xlink:href="#DejaVuSans-105"/>
     <use x="447.75" xlink:href="#DejaVuSans-103"/>
     <use x="511.226562" xlink:href="#DejaVuSans-105"/>
     <use x="539.009766" xlink:href="#DejaVuSans-110"/>
    </g>
   </g>
  </g>
 </g>
 <defs>
  <clipPath id="p92e06694cf">
   <rect height="271.296" width="281.088" x="57.6" y="27.648"/>
  </clipPath>
 </defs>
</svg>
