<?xml version="1.0" encoding="utf-8" standalone="no"?>
<!DOCTYPE svg PUBLIC "-//W3C//DTD SVG 1.1//EN"
  "http://www.w3.org/Graphics/SVG/1.1/DTD/svg11.dtd">
<!-- Created with matplotlib (https://matplotlib.org/) -->
<svg height="345.6pt" version="1.1" viewBox="0 0 460.8 345.6" width="460.8pt" xmlns="http://www.w3.org/2000/svg" xmlns:xlink="http://www.w3.org/1999/xlink">
 <defs>
  <style type="text/css">
*{stroke-linecap:butt;stroke-linejoin:round;}
  </style>
 </defs>
 <g id="figure_1">
  <g id="patch_1">
   <path d="M 0 345.6 
L 460.8 345.6 
L 460.8 0 
L 0 0 
z
" style="fill:#ffffff;"/>
  </g>
  <g id="axes_1">
   <g id="patch_2">
    <path d="M 57.6 298.944 
L 338.688 298.944 
L 338.688 27.648 
L 57.6 27.648 
z
" style="fill:#ffffff;"/>
   </g>
   <g id="line2d_1">
    <path d="M 98.100772 298.944 
L 98.100772 293.677139 
L 103.117741 293.677139 
L 103.117741 288.410278 
L 112.280765 288.410278 
L 112.280765 283.143418 
L 115.897107 283.143418 
L 115.897107 277.876557 
L 119.045825 277.876557 
L 119.045825 272.609696 
L 122.44689 272.609696 
L 122.44689 267.342835 
L 124.368753 267.342835 
L 124.368753 262.075974 
L 125.961828 262.075974 
L 125.961828 256.809114 
L 127.48501 256.809114 
L 127.48501 251.542253 
L 128.290519 251.542253 
L 128.290519 246.275392 
L 129.658437 246.275392 
L 129.658437 241.008531 
L 130.664567 241.008531 
L 130.664567 235.74167 
L 131.338382 235.74167 
L 131.338382 230.47481 
L 132.446401 230.47481 
L 132.446401 225.207949 
L 133.755823 225.207949 
L 133.755823 219.941088 
L 134.577155 219.941088 
L 134.577155 214.674227 
L 135.800036 214.674227 
L 135.800036 209.407366 
L 136.58893 209.407366 
L 136.58893 204.140506 
L 137.162581 204.140506 
L 137.162581 198.873645 
L 138.101642 198.873645 
L 138.101642 193.606784 
L 138.578062 193.606784 
L 138.578062 188.339923 
L 139.333553 188.339923 
L 139.333553 183.073062 
L 140.042245 183.073062 
L 140.042245 177.806202 
L 140.604116 177.806202 
L 140.604116 172.539341 
L 141.69035 172.539341 
L 141.69035 167.27248 
L 142.378651 167.27248 
L 142.378651 162.005619 
L 143.027814 162.005619 
L 143.027814 156.738758 
L 143.75376 156.738758 
L 143.75376 151.471897 
L 144.53439 151.471897 
L 144.53439 146.205037 
L 145.039911 146.205037 
L 145.039911 140.938176 
L 145.799493 140.938176 
L 145.799493 135.671315 
L 146.40993 135.671315 
L 146.40993 130.404454 
L 147.061745 130.404454 
L 147.061745 125.137593 
L 147.690073 125.137593 
L 147.690073 119.870733 
L 148.122637 119.870733 
L 148.122637 114.603872 
L 148.554206 114.603872 
L 148.554206 109.337011 
L 148.975352 109.337011 
L 148.975352 104.07015 
L 149.431665 104.07015 
L 149.431665 98.803289 
L 150.033689 98.803289 
L 150.033689 93.536429 
L 150.47195 93.536429 
L 150.47195 88.269568 
L 150.741418 88.269568 
L 150.741418 83.002707 
L 151.268175 83.002707 
L 151.268175 77.735846 
L 151.84236 77.735846 
L 151.84236 72.468985 
L 152.207228 72.468985 
L 152.207228 67.202125 
L 152.624728 67.202125 
L 152.624728 61.935264 
L 152.959038 61.935264 
L 152.959038 56.668403 
L 153.207444 56.668403 
L 153.207444 51.401542 
L 153.530869 51.401542 
L 153.530869 46.134681 
L 153.862384 46.134681 
L 153.862384 40.867821 
L 154.228812 40.867821 
L 154.228812 35.60096 
L 154.727882 35.60096 
L 154.727882 30.334099 
L 338.688 30.334099 
" style="fill:none;stroke:#f5deb3;stroke-linecap:square;stroke-width:4;"/>
   </g>
   <g id="line2d_2">
    <defs>
     <path d="M -0 7.778175 
L 7.778175 0 
L 0 -7.778175 
L -7.778175 -0 
z
" id="m0df27373c4" style="stroke:#f5deb3;stroke-linejoin:miter;stroke-width:1.5;"/>
    </defs>
    <g>
     <use style="fill:#f5deb3;stroke:#f5deb3;stroke-linejoin:miter;stroke-width:1.5;" x="133.755823" xlink:href="#m0df27373c4" y="219.941088"/>
     <use style="fill:#f5deb3;stroke:#f5deb3;stroke-linejoin:miter;stroke-width:1.5;" x="150.47195" xlink:href="#m0df27373c4" y="93.536429"/>
     <use style="fill:#f5deb3;stroke:#f5deb3;stroke-linejoin:miter;stroke-width:1.5;" x="154.727882" xlink:href="#m0df27373c4" y="30.334099"/>
     <use style="fill:#f5deb3;stroke:#f5deb3;stroke-linejoin:miter;stroke-width:1.5;" x="154.727882" xlink:href="#m0df27373c4" y="30.334099"/>
     <use style="fill:#f5deb3;stroke:#f5deb3;stroke-linejoin:miter;stroke-width:1.5;" x="338.688" xlink:href="#m0df27373c4" y="30.334099"/>
    </g>
   </g>
   <g id="line2d_3">
    <path style="fill:none;stroke:#f5deb3;stroke-linecap:square;stroke-width:4;"/>
    <g/>
   </g>
   <g id="line2d_4">
    <path d="M 338.688 30.334099 
L 369.60768 35.706297 
" style="fill:none;stroke:#f5deb3;stroke-linecap:square;stroke-width:4;"/>
    <g>
     <use style="fill:#f5deb3;stroke:#f5deb3;stroke-linejoin:miter;stroke-width:1.5;" x="338.688" xlink:href="#m0df27373c4" y="30.334099"/>
     <use style="fill:#f5deb3;stroke:#f5deb3;stroke-linejoin:miter;stroke-width:1.5;" x="369.60768" xlink:href="#m0df27373c4" y="35.706297"/>
    </g>
   </g>
   <g id="matplotlib.axis_1">
    <g id="xtick_1">
     <g id="line2d_5">
      <path clip-path="url(#pf23ea9ddfb)" d="M 57.6 298.944 
L 57.6 27.648 
" style="fill:none;stroke:#b0b0b0;stroke-linecap:square;stroke-width:0.8;"/>
     </g>
     <g id="line2d_6">
      <defs>
       <path d="M 0 0 
L 0 3.5 
" id="m957a26507a" style="stroke:#000000;stroke-width:0.8;"/>
      </defs>
      <g>
       <use style="stroke:#000000;stroke-width:0.8;" x="57.6" xlink:href="#m957a26507a" y="298.944"/>
      </g>
     </g>
     <g id="text_1">
      <!-- 0 -->
      <defs>
       <path d="M 31.78125 66.40625 
Q 24.171875 66.40625 20.328125 58.90625 
Q 16.5 51.421875 16.5 36.375 
Q 16.5 21.390625 20.328125 13.890625 
Q 24.171875 6.390625 31.78125 6.390625 
Q 39.453125 6.390625 43.28125 13.890625 
Q 47.125 21.390625 47.125 36.375 
Q 47.125 51.421875 43.28125 58.90625 
Q 39.453125 66.40625 31.78125 66.40625 
z
M 31.78125 74.21875 
Q 44.046875 74.21875 50.515625 64.515625 
Q 56.984375 54.828125 56.984375 36.375 
Q 56.984375 17.96875 50.515625 8.265625 
Q 44.046875 -1.421875 31.78125 -1.421875 
Q 19.53125 -1.421875 13.0625 8.265625 
Q 6.59375 17.96875 6.59375 36.375 
Q 6.59375 54.828125 13.0625 64.515625 
Q 19.53125 74.21875 31.78125 74.21875 
z
" id="DejaVuSans-48"/>
      </defs>
      <g transform="translate(51.2375 321.140875)scale(0.2 -0.2)">
       <use xlink:href="#DejaVuSans-48"/>
      </g>
     </g>
    </g>
    <g id="xtick_2">
     <g id="line2d_7">
      <path clip-path="url(#pf23ea9ddfb)" d="M 137.910857 298.944 
L 137.910857 27.648 
" style="fill:none;stroke:#b0b0b0;stroke-linecap:square;stroke-width:0.8;"/>
     </g>
     <g id="line2d_8">
      <g>
       <use style="stroke:#000000;stroke-width:0.8;" x="137.910857" xlink:href="#m957a26507a" y="298.944"/>
      </g>
     </g>
     <g id="text_2">
      <!-- 2 -->
      <defs>
       <path d="M 19.1875 8.296875 
L 53.609375 8.296875 
L 53.609375 0 
L 7.328125 0 
L 7.328125 8.296875 
Q 12.9375 14.109375 22.625 23.890625 
Q 32.328125 33.6875 34.8125 36.53125 
Q 39.546875 41.84375 41.421875 45.53125 
Q 43.3125 49.21875 43.3125 52.78125 
Q 43.3125 58.59375 39.234375 62.25 
Q 35.15625 65.921875 28.609375 65.921875 
Q 23.96875 65.921875 18.8125 64.3125 
Q 13.671875 62.703125 7.8125 59.421875 
L 7.8125 69.390625 
Q 13.765625 71.78125 18.9375 73 
Q 24.125 74.21875 28.421875 74.21875 
Q 39.75 74.21875 46.484375 68.546875 
Q 53.21875 62.890625 53.21875 53.421875 
Q 53.21875 48.921875 51.53125 44.890625 
Q 49.859375 40.875 45.40625 35.40625 
Q 44.1875 33.984375 37.640625 27.21875 
Q 31.109375 20.453125 19.1875 8.296875 
z
" id="DejaVuSans-50"/>
      </defs>
      <g transform="translate(131.548357 321.140875)scale(0.2 -0.2)">
       <use xlink:href="#DejaVuSans-50"/>
      </g>
     </g>
    </g>
    <g id="xtick_3">
     <g id="line2d_9">
      <path clip-path="url(#pf23ea9ddfb)" d="M 218.221714 298.944 
L 218.221714 27.648 
" style="fill:none;stroke:#b0b0b0;stroke-linecap:square;stroke-width:0.8;"/>
     </g>
     <g id="line2d_10">
      <g>
       <use style="stroke:#000000;stroke-width:0.8;" x="218.221714" xlink:href="#m957a26507a" y="298.944"/>
      </g>
     </g>
     <g id="text_3">
      <!-- 4 -->
      <defs>
       <path d="M 37.796875 64.3125 
L 12.890625 25.390625 
L 37.796875 25.390625 
z
M 35.203125 72.90625 
L 47.609375 72.90625 
L 47.609375 25.390625 
L 58.015625 25.390625 
L 58.015625 17.1875 
L 47.609375 17.1875 
L 47.609375 0 
L 37.796875 0 
L 37.796875 17.1875 
L 4.890625 17.1875 
L 4.890625 26.703125 
z
" id="DejaVuSans-52"/>
      </defs>
      <g transform="translate(211.859214 321.140875)scale(0.2 -0.2)">
       <use xlink:href="#DejaVuSans-52"/>
      </g>
     </g>
    </g>
    <g id="xtick_4">
     <g id="line2d_11">
      <path clip-path="url(#pf23ea9ddfb)" d="M 298.532571 298.944 
L 298.532571 27.648 
" style="fill:none;stroke:#b0b0b0;stroke-linecap:square;stroke-width:0.8;"/>
     </g>
     <g id="line2d_12">
      <g>
       <use style="stroke:#000000;stroke-width:0.8;" x="298.532571" xlink:href="#m957a26507a" y="298.944"/>
      </g>
     </g>
     <g id="text_4">
      <!-- 6 -->
      <defs>
       <path d="M 33.015625 40.375 
Q 26.375 40.375 22.484375 35.828125 
Q 18.609375 31.296875 18.609375 23.390625 
Q 18.609375 15.53125 22.484375 10.953125 
Q 26.375 6.390625 33.015625 6.390625 
Q 39.65625 6.390625 43.53125 10.953125 
Q 47.40625 15.53125 47.40625 23.390625 
Q 47.40625 31.296875 43.53125 35.828125 
Q 39.65625 40.375 33.015625 40.375 
z
M 52.59375 71.296875 
L 52.59375 62.3125 
Q 48.875 64.0625 45.09375 64.984375 
Q 41.3125 65.921875 37.59375 65.921875 
Q 27.828125 65.921875 22.671875 59.328125 
Q 17.53125 52.734375 16.796875 39.40625 
Q 19.671875 43.65625 24.015625 45.921875 
Q 28.375 48.1875 33.59375 48.1875 
Q 44.578125 48.1875 50.953125 41.515625 
Q 57.328125 34.859375 57.328125 23.390625 
Q 57.328125 12.15625 50.6875 5.359375 
Q 44.046875 -1.421875 33.015625 -1.421875 
Q 20.359375 -1.421875 13.671875 8.265625 
Q 6.984375 17.96875 6.984375 36.375 
Q 6.984375 53.65625 15.1875 63.9375 
Q 23.390625 74.21875 37.203125 74.21875 
Q 40.921875 74.21875 44.703125 73.484375 
Q 48.484375 72.75 52.59375 71.296875 
z
" id="DejaVuSans-54"/>
      </defs>
      <g transform="translate(292.170071 321.140875)scale(0.2 -0.2)">
       <use xlink:href="#DejaVuSans-54"/>
      </g>
     </g>
    </g>
    <g id="xtick_5">
     <g id="line2d_13">
      <path clip-path="url(#pf23ea9ddfb)" d="M 97.755429 298.944 
L 97.755429 27.648 
" style="fill:none;stroke:#b0b0b0;stroke-linecap:square;stroke-width:0.8;"/>
     </g>
     <g id="line2d_14">
      <defs>
       <path d="M 0 0 
L 0 2 
" id="m280fb4a6da" style="stroke:#000000;stroke-width:0.6;"/>
      </defs>
      <g>
       <use style="stroke:#000000;stroke-width:0.6;" x="97.755429" xlink:href="#m280fb4a6da" y="298.944"/>
      </g>
     </g>
    </g>
    <g id="xtick_6">
     <g id="line2d_15">
      <path clip-path="url(#pf23ea9ddfb)" d="M 178.066286 298.944 
L 178.066286 27.648 
" style="fill:none;stroke:#b0b0b0;stroke-linecap:square;stroke-width:0.8;"/>
     </g>
     <g id="line2d_16">
      <g>
       <use style="stroke:#000000;stroke-width:0.6;" x="178.066286" xlink:href="#m280fb4a6da" y="298.944"/>
      </g>
     </g>
    </g>
    <g id="xtick_7">
     <g id="line2d_17">
      <path clip-path="url(#pf23ea9ddfb)" d="M 258.377143 298.944 
L 258.377143 27.648 
" style="fill:none;stroke:#b0b0b0;stroke-linecap:square;stroke-width:0.8;"/>
     </g>
     <g id="line2d_18">
      <g>
       <use style="stroke:#000000;stroke-width:0.6;" x="258.377143" xlink:href="#m280fb4a6da" y="298.944"/>
      </g>
     </g>
    </g>
    <g id="xtick_8">
     <g id="line2d_19">
      <path clip-path="url(#pf23ea9ddfb)" d="M 338.688 298.944 
L 338.688 27.648 
" style="fill:none;stroke:#b0b0b0;stroke-linecap:square;stroke-width:0.8;"/>
     </g>
     <g id="line2d_20">
      <g>
       <use style="stroke:#000000;stroke-width:0.6;" x="338.688" xlink:href="#m280fb4a6da" y="298.944"/>
      </g>
     </g>
    </g>
    <g id="text_5">
     <!-- log10(# f-evals / dimension) -->
     <defs>
      <path d="M 9.421875 75.984375 
L 18.40625 75.984375 
L 18.40625 0 
L 9.421875 0 
z
" id="DejaVuSans-108"/>
      <path d="M 30.609375 48.390625 
Q 23.390625 48.390625 19.1875 42.75 
Q 14.984375 37.109375 14.984375 27.296875 
Q 14.984375 17.484375 19.15625 11.84375 
Q 23.34375 6.203125 30.609375 6.203125 
Q 37.796875 6.203125 41.984375 11.859375 
Q 46.1875 17.53125 46.1875 27.296875 
Q 46.1875 37.015625 41.984375 42.703125 
Q 37.796875 48.390625 30.609375 48.390625 
z
M 30.609375 56 
Q 42.328125 56 49.015625 48.375 
Q 55.71875 40.765625 55.71875 27.296875 
Q 55.71875 13.875 49.015625 6.21875 
Q 42.328125 -1.421875 30.609375 -1.421875 
Q 18.84375 -1.421875 12.171875 6.21875 
Q 5.515625 13.875 5.515625 27.296875 
Q 5.515625 40.765625 12.171875 48.375 
Q 18.84375 56 30.609375 56 
z
" id="DejaVuSans-111"/>
      <path d="M 45.40625 27.984375 
Q 45.40625 37.75 41.375 43.109375 
Q 37.359375 48.484375 30.078125 48.484375 
Q 22.859375 48.484375 18.828125 43.109375 
Q 14.796875 37.75 14.796875 27.984375 
Q 14.796875 18.265625 18.828125 12.890625 
Q 22.859375 7.515625 30.078125 7.515625 
Q 37.359375 7.515625 41.375 12.890625 
Q 45.40625 18.265625 45.40625 27.984375 
z
M 54.390625 6.78125 
Q 54.390625 -7.171875 48.1875 -13.984375 
Q 42 -20.796875 29.203125 -20.796875 
Q 24.46875 -20.796875 20.265625 -20.09375 
Q 16.0625 -19.390625 12.109375 -17.921875 
L 12.109375 -9.1875 
Q 16.0625 -11.328125 19.921875 -12.34375 
Q 23.78125 -13.375 27.78125 -13.375 
Q 36.625 -13.375 41.015625 -8.765625 
Q 45.40625 -4.15625 45.40625 5.171875 
L 45.40625 9.625 
Q 42.625 4.78125 38.28125 2.390625 
Q 33.9375 0 27.875 0 
Q 17.828125 0 11.671875 7.65625 
Q 5.515625 15.328125 5.515625 27.984375 
Q 5.515625 40.671875 11.671875 48.328125 
Q 17.828125 56 27.875 56 
Q 33.9375 56 38.28125 53.609375 
Q 42.625 51.21875 45.40625 46.390625 
L 45.40625 54.6875 
L 54.390625 54.6875 
z
" id="DejaVuSans-103"/>
      <path d="M 12.40625 8.296875 
L 28.515625 8.296875 
L 28.515625 63.921875 
L 10.984375 60.40625 
L 10.984375 69.390625 
L 28.421875 72.90625 
L 38.28125 72.90625 
L 38.28125 8.296875 
L 54.390625 8.296875 
L 54.390625 0 
L 12.40625 0 
z
" id="DejaVuSans-49"/>
      <path d="M 31 75.875 
Q 24.46875 64.65625 21.28125 53.65625 
Q 18.109375 42.671875 18.109375 31.390625 
Q 18.109375 20.125 21.3125 9.0625 
Q 24.515625 -2 31 -13.1875 
L 23.1875 -13.1875 
Q 15.875 -1.703125 12.234375 9.375 
Q 8.59375 20.453125 8.59375 31.390625 
Q 8.59375 42.28125 12.203125 53.3125 
Q 15.828125 64.359375 23.1875 75.875 
z
" id="DejaVuSans-40"/>
      <path d="M 51.125 44 
L 36.921875 44 
L 32.8125 27.6875 
L 47.125 27.6875 
z
M 43.796875 71.78125 
L 38.71875 51.515625 
L 52.984375 51.515625 
L 58.109375 71.78125 
L 65.921875 71.78125 
L 60.890625 51.515625 
L 76.125 51.515625 
L 76.125 44 
L 58.984375 44 
L 54.984375 27.6875 
L 70.515625 27.6875 
L 70.515625 20.21875 
L 53.078125 20.21875 
L 48 0 
L 40.1875 0 
L 45.21875 20.21875 
L 30.90625 20.21875 
L 25.875 0 
L 18.015625 0 
L 23.09375 20.21875 
L 7.71875 20.21875 
L 7.71875 27.6875 
L 24.90625 27.6875 
L 29 44 
L 13.28125 44 
L 13.28125 51.515625 
L 30.90625 51.515625 
L 35.890625 71.78125 
z
" id="DejaVuSans-35"/>
      <path id="DejaVuSans-32"/>
      <path d="M 37.109375 75.984375 
L 37.109375 68.5 
L 28.515625 68.5 
Q 23.6875 68.5 21.796875 66.546875 
Q 19.921875 64.59375 19.921875 59.515625 
L 19.921875 54.6875 
L 34.71875 54.6875 
L 34.71875 47.703125 
L 19.921875 47.703125 
L 19.921875 0 
L 10.890625 0 
L 10.890625 47.703125 
L 2.296875 47.703125 
L 2.296875 54.6875 
L 10.890625 54.6875 
L 10.890625 58.5 
Q 10.890625 67.625 15.140625 71.796875 
Q 19.390625 75.984375 28.609375 75.984375 
z
" id="DejaVuSans-102"/>
      <path d="M 4.890625 31.390625 
L 31.203125 31.390625 
L 31.203125 23.390625 
L 4.890625 23.390625 
z
" id="DejaVuSans-45"/>
      <path d="M 56.203125 29.59375 
L 56.203125 25.203125 
L 14.890625 25.203125 
Q 15.484375 15.921875 20.484375 11.0625 
Q 25.484375 6.203125 34.421875 6.203125 
Q 39.59375 6.203125 44.453125 7.46875 
Q 49.3125 8.734375 54.109375 11.28125 
L 54.109375 2.78125 
Q 49.265625 0.734375 44.1875 -0.34375 
Q 39.109375 -1.421875 33.890625 -1.421875 
Q 20.796875 -1.421875 13.15625 6.1875 
Q 5.515625 13.8125 5.515625 26.8125 
Q 5.515625 40.234375 12.765625 48.109375 
Q 20.015625 56 32.328125 56 
Q 43.359375 56 49.78125 48.890625 
Q 56.203125 41.796875 56.203125 29.59375 
z
M 47.21875 32.234375 
Q 47.125 39.59375 43.09375 43.984375 
Q 39.0625 48.390625 32.421875 48.390625 
Q 24.90625 48.390625 20.390625 44.140625 
Q 15.875 39.890625 15.1875 32.171875 
z
" id="DejaVuSans-101"/>
      <path d="M 2.984375 54.6875 
L 12.5 54.6875 
L 29.59375 8.796875 
L 46.6875 54.6875 
L 56.203125 54.6875 
L 35.6875 0 
L 23.484375 0 
z
" id="DejaVuSans-118"/>
      <path d="M 34.28125 27.484375 
Q 23.390625 27.484375 19.1875 25 
Q 14.984375 22.515625 14.984375 16.5 
Q 14.984375 11.71875 18.140625 8.90625 
Q 21.296875 6.109375 26.703125 6.109375 
Q 34.1875 6.109375 38.703125 11.40625 
Q 43.21875 16.703125 43.21875 25.484375 
L 43.21875 27.484375 
z
M 52.203125 31.203125 
L 52.203125 0 
L 43.21875 0 
L 43.21875 8.296875 
Q 40.140625 3.328125 35.546875 0.953125 
Q 30.953125 -1.421875 24.3125 -1.421875 
Q 15.921875 -1.421875 10.953125 3.296875 
Q 6 8.015625 6 15.921875 
Q 6 25.140625 12.171875 29.828125 
Q 18.359375 34.515625 30.609375 34.515625 
L 43.21875 34.515625 
L 43.21875 35.40625 
Q 43.21875 41.609375 39.140625 45 
Q 35.0625 48.390625 27.6875 48.390625 
Q 23 48.390625 18.546875 47.265625 
Q 14.109375 46.140625 10.015625 43.890625 
L 10.015625 52.203125 
Q 14.9375 54.109375 19.578125 55.046875 
Q 24.21875 56 28.609375 56 
Q 40.484375 56 46.34375 49.84375 
Q 52.203125 43.703125 52.203125 31.203125 
z
" id="DejaVuSans-97"/>
      <path d="M 44.28125 53.078125 
L 44.28125 44.578125 
Q 40.484375 46.53125 36.375 47.5 
Q 32.28125 48.484375 27.875 48.484375 
Q 21.1875 48.484375 17.84375 46.4375 
Q 14.5 44.390625 14.5 40.28125 
Q 14.5 37.15625 16.890625 35.375 
Q 19.28125 33.59375 26.515625 31.984375 
L 29.59375 31.296875 
Q 39.15625 29.25 43.1875 25.515625 
Q 47.21875 21.78125 47.21875 15.09375 
Q 47.21875 7.46875 41.1875 3.015625 
Q 35.15625 -1.421875 24.609375 -1.421875 
Q 20.21875 -1.421875 15.453125 -0.5625 
Q 10.6875 0.296875 5.421875 2 
L 5.421875 11.28125 
Q 10.40625 8.6875 15.234375 7.390625 
Q 20.0625 6.109375 24.8125 6.109375 
Q 31.15625 6.109375 34.5625 8.28125 
Q 37.984375 10.453125 37.984375 14.40625 
Q 37.984375 18.0625 35.515625 20.015625 
Q 33.0625 21.96875 24.703125 23.78125 
L 21.578125 24.515625 
Q 13.234375 26.265625 9.515625 29.90625 
Q 5.8125 33.546875 5.8125 39.890625 
Q 5.8125 47.609375 11.28125 51.796875 
Q 16.75 56 26.8125 56 
Q 31.78125 56 36.171875 55.265625 
Q 40.578125 54.546875 44.28125 53.078125 
z
" id="DejaVuSans-115"/>
      <path d="M 25.390625 72.90625 
L 33.6875 72.90625 
L 8.296875 -9.28125 
L 0 -9.28125 
z
" id="DejaVuSans-47"/>
      <path d="M 45.40625 46.390625 
L 45.40625 75.984375 
L 54.390625 75.984375 
L 54.390625 0 
L 45.40625 0 
L 45.40625 8.203125 
Q 42.578125 3.328125 38.25 0.953125 
Q 33.9375 -1.421875 27.875 -1.421875 
Q 17.96875 -1.421875 11.734375 6.484375 
Q 5.515625 14.40625 5.515625 27.296875 
Q 5.515625 40.1875 11.734375 48.09375 
Q 17.96875 56 27.875 56 
Q 33.9375 56 38.25 53.625 
Q 42.578125 51.265625 45.40625 46.390625 
z
M 14.796875 27.296875 
Q 14.796875 17.390625 18.875 11.75 
Q 22.953125 6.109375 30.078125 6.109375 
Q 37.203125 6.109375 41.296875 11.75 
Q 45.40625 17.390625 45.40625 27.296875 
Q 45.40625 37.203125 41.296875 42.84375 
Q 37.203125 48.484375 30.078125 48.484375 
Q 22.953125 48.484375 18.875 42.84375 
Q 14.796875 37.203125 14.796875 27.296875 
z
" id="DejaVuSans-100"/>
      <path d="M 9.421875 54.6875 
L 18.40625 54.6875 
L 18.40625 0 
L 9.421875 0 
z
M 9.421875 75.984375 
L 18.40625 75.984375 
L 18.40625 64.59375 
L 9.421875 64.59375 
z
" id="DejaVuSans-105"/>
      <path d="M 52 44.1875 
Q 55.375 50.25 60.0625 53.125 
Q 64.75 56 71.09375 56 
Q 79.640625 56 84.28125 50.015625 
Q 88.921875 44.046875 88.921875 33.015625 
L 88.921875 0 
L 79.890625 0 
L 79.890625 32.71875 
Q 79.890625 40.578125 77.09375 44.375 
Q 74.3125 48.1875 68.609375 48.1875 
Q 61.625 48.1875 57.5625 43.546875 
Q 53.515625 38.921875 53.515625 30.90625 
L 53.515625 0 
L 44.484375 0 
L 44.484375 32.71875 
Q 44.484375 40.625 41.703125 44.40625 
Q 38.921875 48.1875 33.109375 48.1875 
Q 26.21875 48.1875 22.15625 43.53125 
Q 18.109375 38.875 18.109375 30.90625 
L 18.109375 0 
L 9.078125 0 
L 9.078125 54.6875 
L 18.109375 54.6875 
L 18.109375 46.1875 
Q 21.1875 51.21875 25.484375 53.609375 
Q 29.78125 56 35.6875 56 
Q 41.65625 56 45.828125 52.96875 
Q 50 49.953125 52 44.1875 
z
" id="DejaVuSans-109"/>
      <path d="M 54.890625 33.015625 
L 54.890625 0 
L 45.90625 0 
L 45.90625 32.71875 
Q 45.90625 40.484375 42.875 44.328125 
Q 39.84375 48.1875 33.796875 48.1875 
Q 26.515625 48.1875 22.3125 43.546875 
Q 18.109375 38.921875 18.109375 30.90625 
L 18.109375 0 
L 9.078125 0 
L 9.078125 54.6875 
L 18.109375 54.6875 
L 18.109375 46.1875 
Q 21.34375 51.125 25.703125 53.5625 
Q 30.078125 56 35.796875 56 
Q 45.21875 56 50.046875 50.171875 
Q 54.890625 44.34375 54.890625 33.015625 
z
" id="DejaVuSans-110"/>
      <path d="M 8.015625 75.875 
L 15.828125 75.875 
Q 23.140625 64.359375 26.78125 53.3125 
Q 30.421875 42.28125 30.421875 31.390625 
Q 30.421875 20.453125 26.78125 9.375 
Q 23.140625 -1.703125 15.828125 -13.1875 
L 8.015625 -13.1875 
Q 14.5 -2 17.703125 9.0625 
Q 20.90625 20.125 20.90625 31.390625 
Q 20.90625 42.671875 17.703125 53.65625 
Q 14.5 64.65625 8.015625 75.875 
z
" id="DejaVuSans-41"/>
     </defs>
     <g transform="translate(77.764078 342.217594)scale(0.17 -0.17)">
      <use xlink:href="#DejaVuSans-108"/>
      <use x="27.783203" xlink:href="#DejaVuSans-111"/>
      <use x="88.964844" xlink:href="#DejaVuSans-103"/>
      <use x="152.441406" xlink:href="#DejaVuSans-49"/>
      <use x="216.064453" xlink:href="#DejaVuSans-48"/>
      <use x="279.6875" xlink:href="#DejaVuSans-40"/>
      <use x="318.701172" xlink:href="#DejaVuSans-35"/>
      <use x="402.490234" xlink:href="#DejaVuSans-32"/>
      <use x="434.277344" xlink:href="#DejaVuSans-102"/>
      <use x="463.982422" xlink:href="#DejaVuSans-45"/>
      <use x="500.066406" xlink:href="#DejaVuSans-101"/>
      <use x="561.589844" xlink:href="#DejaVuSans-118"/>
      <use x="620.769531" xlink:href="#DejaVuSans-97"/>
      <use x="682.048828" xlink:href="#DejaVuSans-108"/>
      <use x="709.832031" xlink:href="#DejaVuSans-115"/>
      <use x="761.931641" xlink:href="#DejaVuSans-32"/>
      <use x="793.71875" xlink:href="#DejaVuSans-47"/>
      <use x="827.410156" xlink:href="#DejaVuSans-32"/>
      <use x="859.197266" xlink:href="#DejaVuSans-100"/>
      <use x="922.673828" xlink:href="#DejaVuSans-105"/>
      <use x="950.457031" xlink:href="#DejaVuSans-109"/>
      <use x="1047.869141" xlink:href="#DejaVuSans-101"/>
      <use x="1109.392578" xlink:href="#DejaVuSans-110"/>
      <use x="1172.771484" xlink:href="#DejaVuSans-115"/>
      <use x="1224.871094" xlink:href="#DejaVuSans-105"/>
      <use x="1252.654297" xlink:href="#DejaVuSans-111"/>
      <use x="1313.835938" xlink:href="#DejaVuSans-110"/>
      <use x="1377.214844" xlink:href="#DejaVuSans-41"/>
     </g>
    </g>
   </g>
   <g id="matplotlib.axis_2">
    <g id="ytick_1">
     <g id="line2d_21">
      <path clip-path="url(#pf23ea9ddfb)" d="M 57.6 298.944 
L 338.688 298.944 
" style="fill:none;stroke:#b0b0b0;stroke-linecap:square;stroke-width:0.8;"/>
     </g>
     <g id="line2d_22">
      <defs>
       <path d="M 0 0 
L -3.5 0 
" id="m6da718243d" style="stroke:#000000;stroke-width:0.8;"/>
      </defs>
      <g>
       <use style="stroke:#000000;stroke-width:0.8;" x="57.6" xlink:href="#m6da718243d" y="298.944"/>
      </g>
     </g>
     <g id="text_6">
      <!-- 0.0 -->
      <defs>
       <path d="M 10.6875 12.40625 
L 21 12.40625 
L 21 0 
L 10.6875 0 
z
" id="DejaVuSans-46"/>
      </defs>
      <g transform="translate(25.155 305.02275)scale(0.16 -0.16)">
       <use xlink:href="#DejaVuSans-48"/>
       <use x="63.623047" xlink:href="#DejaVuSans-46"/>
       <use x="95.410156" xlink:href="#DejaVuSans-48"/>
      </g>
     </g>
    </g>
    <g id="ytick_2">
     <g id="line2d_23">
      <path clip-path="url(#pf23ea9ddfb)" d="M 57.6 245.22202 
L 338.688 245.22202 
" style="fill:none;stroke:#b0b0b0;stroke-linecap:square;stroke-width:0.8;"/>
     </g>
     <g id="line2d_24">
      <g>
       <use style="stroke:#000000;stroke-width:0.8;" x="57.6" xlink:href="#m6da718243d" y="245.22202"/>
      </g>
     </g>
     <g id="text_7">
      <!-- 0.2 -->
      <g transform="translate(25.155 251.30077)scale(0.16 -0.16)">
       <use xlink:href="#DejaVuSans-48"/>
       <use x="63.623047" xlink:href="#DejaVuSans-46"/>
       <use x="95.410156" xlink:href="#DejaVuSans-50"/>
      </g>
     </g>
    </g>
    <g id="ytick_3">
     <g id="line2d_25">
      <path clip-path="url(#pf23ea9ddfb)" d="M 57.6 191.50004 
L 338.688 191.50004 
" style="fill:none;stroke:#b0b0b0;stroke-linecap:square;stroke-width:0.8;"/>
     </g>
     <g id="line2d_26">
      <g>
       <use style="stroke:#000000;stroke-width:0.8;" x="57.6" xlink:href="#m6da718243d" y="191.50004"/>
      </g>
     </g>
     <g id="text_8">
      <!-- 0.4 -->
      <g transform="translate(25.155 197.57879)scale(0.16 -0.16)">
       <use xlink:href="#DejaVuSans-48"/>
       <use x="63.623047" xlink:href="#DejaVuSans-46"/>
       <use x="95.410156" xlink:href="#DejaVuSans-52"/>
      </g>
     </g>
    </g>
    <g id="ytick_4">
     <g id="line2d_27">
      <path clip-path="url(#pf23ea9ddfb)" d="M 57.6 137.778059 
L 338.688 137.778059 
" style="fill:none;stroke:#b0b0b0;stroke-linecap:square;stroke-width:0.8;"/>
     </g>
     <g id="line2d_28">
      <g>
       <use style="stroke:#000000;stroke-width:0.8;" x="57.6" xlink:href="#m6da718243d" y="137.778059"/>
      </g>
     </g>
     <g id="text_9">
      <!-- 0.6 -->
      <g transform="translate(25.155 143.856809)scale(0.16 -0.16)">
       <use xlink:href="#DejaVuSans-48"/>
       <use x="63.623047" xlink:href="#DejaVuSans-46"/>
       <use x="95.410156" xlink:href="#DejaVuSans-54"/>
      </g>
     </g>
    </g>
    <g id="ytick_5">
     <g id="line2d_29">
      <path clip-path="url(#pf23ea9ddfb)" d="M 57.6 84.056079 
L 338.688 84.056079 
" style="fill:none;stroke:#b0b0b0;stroke-linecap:square;stroke-width:0.8;"/>
     </g>
     <g id="line2d_30">
      <g>
       <use style="stroke:#000000;stroke-width:0.8;" x="57.6" xlink:href="#m6da718243d" y="84.056079"/>
      </g>
     </g>
     <g id="text_10">
      <!-- 0.8 -->
      <defs>
       <path d="M 31.78125 34.625 
Q 24.75 34.625 20.71875 30.859375 
Q 16.703125 27.09375 16.703125 20.515625 
Q 16.703125 13.921875 20.71875 10.15625 
Q 24.75 6.390625 31.78125 6.390625 
Q 38.8125 6.390625 42.859375 10.171875 
Q 46.921875 13.96875 46.921875 20.515625 
Q 46.921875 27.09375 42.890625 30.859375 
Q 38.875 34.625 31.78125 34.625 
z
M 21.921875 38.8125 
Q 15.578125 40.375 12.03125 44.71875 
Q 8.5 49.078125 8.5 55.328125 
Q 8.5 64.0625 14.71875 69.140625 
Q 20.953125 74.21875 31.78125 74.21875 
Q 42.671875 74.21875 48.875 69.140625 
Q 55.078125 64.0625 55.078125 55.328125 
Q 55.078125 49.078125 51.53125 44.71875 
Q 48 40.375 41.703125 38.8125 
Q 48.828125 37.15625 52.796875 32.3125 
Q 56.78125 27.484375 56.78125 20.515625 
Q 56.78125 9.90625 50.3125 4.234375 
Q 43.84375 -1.421875 31.78125 -1.421875 
Q 19.734375 -1.421875 13.25 4.234375 
Q 6.78125 9.90625 6.78125 20.515625 
Q 6.78125 27.484375 10.78125 32.3125 
Q 14.796875 37.15625 21.921875 38.8125 
z
M 18.3125 54.390625 
Q 18.3125 48.734375 21.84375 45.5625 
Q 25.390625 42.390625 31.78125 42.390625 
Q 38.140625 42.390625 41.71875 45.5625 
Q 45.3125 48.734375 45.3125 54.390625 
Q 45.3125 60.0625 41.71875 63.234375 
Q 38.140625 66.40625 31.78125 66.40625 
Q 25.390625 66.40625 21.84375 63.234375 
Q 18.3125 60.0625 18.3125 54.390625 
z
" id="DejaVuSans-56"/>
      </defs>
      <g transform="translate(25.155 90.134829)scale(0.16 -0.16)">
       <use xlink:href="#DejaVuSans-48"/>
       <use x="63.623047" xlink:href="#DejaVuSans-46"/>
       <use x="95.410156" xlink:href="#DejaVuSans-56"/>
      </g>
     </g>
    </g>
    <g id="ytick_6">
     <g id="line2d_31">
      <path clip-path="url(#pf23ea9ddfb)" d="M 57.6 30.334099 
L 338.688 30.334099 
" style="fill:none;stroke:#b0b0b0;stroke-linecap:square;stroke-width:0.8;"/>
     </g>
     <g id="line2d_32">
      <g>
       <use style="stroke:#000000;stroke-width:0.8;" x="57.6" xlink:href="#m6da718243d" y="30.334099"/>
      </g>
     </g>
     <g id="text_11">
      <!-- 1.0 -->
      <g transform="translate(25.155 36.412849)scale(0.16 -0.16)">
       <use xlink:href="#DejaVuSans-49"/>
       <use x="63.623047" xlink:href="#DejaVuSans-46"/>
       <use x="95.410156" xlink:href="#DejaVuSans-48"/>
      </g>
     </g>
    </g>
    <g id="text_12">
     <!-- Fraction of function,target pairs -->
     <defs>
      <path d="M 9.8125 72.90625 
L 51.703125 72.90625 
L 51.703125 64.59375 
L 19.671875 64.59375 
L 19.671875 43.109375 
L 48.578125 43.109375 
L 48.578125 34.8125 
L 19.671875 34.8125 
L 19.671875 0 
L 9.8125 0 
z
" id="DejaVuSans-70"/>
      <path d="M 41.109375 46.296875 
Q 39.59375 47.171875 37.8125 47.578125 
Q 36.03125 48 33.890625 48 
Q 26.265625 48 22.1875 43.046875 
Q 18.109375 38.09375 18.109375 28.8125 
L 18.109375 0 
L 9.078125 0 
L 9.078125 54.6875 
L 18.109375 54.6875 
L 18.109375 46.1875 
Q 20.953125 51.171875 25.484375 53.578125 
Q 30.03125 56 36.53125 56 
Q 37.453125 56 38.578125 55.875 
Q 39.703125 55.765625 41.0625 55.515625 
z
" id="DejaVuSans-114"/>
      <path d="M 48.78125 52.59375 
L 48.78125 44.1875 
Q 44.96875 46.296875 41.140625 47.34375 
Q 37.3125 48.390625 33.40625 48.390625 
Q 24.65625 48.390625 19.8125 42.84375 
Q 14.984375 37.3125 14.984375 27.296875 
Q 14.984375 17.28125 19.8125 11.734375 
Q 24.65625 6.203125 33.40625 6.203125 
Q 37.3125 6.203125 41.140625 7.25 
Q 44.96875 8.296875 48.78125 10.40625 
L 48.78125 2.09375 
Q 45.015625 0.34375 40.984375 -0.53125 
Q 36.96875 -1.421875 32.421875 -1.421875 
Q 20.0625 -1.421875 12.78125 6.34375 
Q 5.515625 14.109375 5.515625 27.296875 
Q 5.515625 40.671875 12.859375 48.328125 
Q 20.21875 56 33.015625 56 
Q 37.15625 56 41.109375 55.140625 
Q 45.0625 54.296875 48.78125 52.59375 
z
" id="DejaVuSans-99"/>
      <path d="M 18.3125 70.21875 
L 18.3125 54.6875 
L 36.8125 54.6875 
L 36.8125 47.703125 
L 18.3125 47.703125 
L 18.3125 18.015625 
Q 18.3125 11.328125 20.140625 9.421875 
Q 21.96875 7.515625 27.59375 7.515625 
L 36.8125 7.515625 
L 36.8125 0 
L 27.59375 0 
Q 17.1875 0 13.234375 3.875 
Q 9.28125 7.765625 9.28125 18.015625 
L 9.28125 47.703125 
L 2.6875 47.703125 
L 2.6875 54.6875 
L 9.28125 54.6875 
L 9.28125 70.21875 
z
" id="DejaVuSans-116"/>
      <path d="M 8.5 21.578125 
L 8.5 54.6875 
L 17.484375 54.6875 
L 17.484375 21.921875 
Q 17.484375 14.15625 20.5 10.265625 
Q 23.53125 6.390625 29.59375 6.390625 
Q 36.859375 6.390625 41.078125 11.03125 
Q 45.3125 15.671875 45.3125 23.6875 
L 45.3125 54.6875 
L 54.296875 54.6875 
L 54.296875 0 
L 45.3125 0 
L 45.3125 8.40625 
Q 42.046875 3.421875 37.71875 1 
Q 33.40625 -1.421875 27.6875 -1.421875 
Q 18.265625 -1.421875 13.375 4.4375 
Q 8.5 10.296875 8.5 21.578125 
z
M 31.109375 56 
z
" id="DejaVuSans-117"/>
      <path d="M 11.71875 12.40625 
L 22.015625 12.40625 
L 22.015625 4 
L 14.015625 -11.625 
L 7.71875 -11.625 
L 11.71875 4 
z
" id="DejaVuSans-44"/>
      <path d="M 18.109375 8.203125 
L 18.109375 -20.796875 
L 9.078125 -20.796875 
L 9.078125 54.6875 
L 18.109375 54.6875 
L 18.109375 46.390625 
Q 20.953125 51.265625 25.265625 53.625 
Q 29.59375 56 35.59375 56 
Q 45.5625 56 51.78125 48.09375 
Q 58.015625 40.1875 58.015625 27.296875 
Q 58.015625 14.40625 51.78125 6.484375 
Q 45.5625 -1.421875 35.59375 -1.421875 
Q 29.59375 -1.421875 25.265625 0.953125 
Q 20.953125 3.328125 18.109375 8.203125 
z
M 48.6875 27.296875 
Q 48.6875 37.203125 44.609375 42.84375 
Q 40.53125 48.484375 33.40625 48.484375 
Q 26.265625 48.484375 22.1875 42.84375 
Q 18.109375 37.203125 18.109375 27.296875 
Q 18.109375 17.390625 22.1875 11.75 
Q 26.265625 6.109375 33.40625 6.109375 
Q 40.53125 6.109375 44.609375 11.75 
Q 48.6875 17.390625 48.6875 27.296875 
z
" id="DejaVuSans-112"/>
     </defs>
     <g transform="translate(17.619531 297.681)rotate(-90)scale(0.17 -0.17)">
      <use xlink:href="#DejaVuSans-70"/>
      <use x="50.269531" xlink:href="#DejaVuSans-114"/>
      <use x="91.382812" xlink:href="#DejaVuSans-97"/>
      <use x="152.662109" xlink:href="#DejaVuSans-99"/>
      <use x="207.642578" xlink:href="#DejaVuSans-116"/>
      <use x="246.851562" xlink:href="#DejaVuSans-105"/>
      <use x="274.634766" xlink:href="#DejaVuSans-111"/>
      <use x="335.816406" xlink:href="#DejaVuSans-110"/>
      <use x="399.195312" xlink:href="#DejaVuSans-32"/>
      <use x="430.982422" xlink:href="#DejaVuSans-111"/>
      <use x="492.164062" xlink:href="#DejaVuSans-102"/>
      <use x="527.369141" xlink:href="#DejaVuSans-32"/>
      <use x="559.15625" xlink:href="#DejaVuSans-102"/>
      <use x="594.361328" xlink:href="#DejaVuSans-117"/>
      <use x="657.740234" xlink:href="#DejaVuSans-110"/>
      <use x="721.119141" xlink:href="#DejaVuSans-99"/>
      <use x="776.099609" xlink:href="#DejaVuSans-116"/>
      <use x="815.308594" xlink:href="#DejaVuSans-105"/>
      <use x="843.091797" xlink:href="#DejaVuSans-111"/>
      <use x="904.273438" xlink:href="#DejaVuSans-110"/>
      <use x="967.652344" xlink:href="#DejaVuSans-44"/>
      <use x="999.439453" xlink:href="#DejaVuSans-116"/>
      <use x="1038.648438" xlink:href="#DejaVuSans-97"/>
      <use x="1099.927734" xlink:href="#DejaVuSans-114"/>
      <use x="1139.291016" xlink:href="#DejaVuSans-103"/>
      <use x="1202.767578" xlink:href="#DejaVuSans-101"/>
      <use x="1264.291016" xlink:href="#DejaVuSans-116"/>
      <use x="1303.5" xlink:href="#DejaVuSans-32"/>
      <use x="1335.287109" xlink:href="#DejaVuSans-112"/>
      <use x="1398.763672" xlink:href="#DejaVuSans-97"/>
      <use x="1460.042969" xlink:href="#DejaVuSans-105"/>
      <use x="1487.826172" xlink:href="#DejaVuSans-114"/>
      <use x="1528.939453" xlink:href="#DejaVuSans-115"/>
     </g>
    </g>
   </g>
   <g id="line2d_33">
    <defs>
     <path d="M 0 1.5 
C 0.397805 1.5 0.77937 1.341951 1.06066 1.06066 
C 1.341951 0.77937 1.5 0.397805 1.5 0 
C 1.5 -0.397805 1.341951 -0.77937 1.06066 -1.06066 
C 0.77937 -1.341951 0.397805 -1.5 0 -1.5 
C -0.397805 -1.5 -0.77937 -1.341951 -1.06066 -1.06066 
C -1.341951 -0.77937 -1.5 -0.397805 -1.5 0 
C -1.5 0.397805 -1.341951 0.77937 -1.06066 1.06066 
C -0.77937 1.341951 -0.397805 1.5 0 1.5 
z
" id="md2f6211549" style="stroke:#f5deb3;"/>
    </defs>
    <g>
     <use style="fill:#f5deb3;stroke:#f5deb3;" x="154.727882" xlink:href="#md2f6211549" y="30.334099"/>
     <use style="fill:#f5deb3;stroke:#f5deb3;" x="154.727882" xlink:href="#md2f6211549" y="30.334099"/>
    </g>
   </g>
   <g id="line2d_34">
    <defs>
     <path d="M 0 1.5 
C 0.397805 1.5 0.77937 1.341951 1.06066 1.06066 
C 1.341951 0.77937 1.5 0.397805 1.5 0 
C 1.5 -0.397805 1.341951 -0.77937 1.06066 -1.06066 
C 0.77937 -1.341951 0.397805 -1.5 0 -1.5 
C -0.397805 -1.5 -0.77937 -1.341951 -1.06066 -1.06066 
C -1.341951 -0.77937 -1.5 -0.397805 -1.5 0 
C -1.5 0.397805 -1.341951 0.77937 -1.06066 1.06066 
C -0.77937 1.341951 -0.397805 1.5 0 1.5 
z
" id="me687baa1e5" style="stroke:#000080;"/>
    </defs>
    <g>
     <use style="fill:#000080;stroke:#000080;" x="176.676501" xlink:href="#me687baa1e5" y="30.334099"/>
     <use style="fill:#000080;stroke:#000080;" x="176.676501" xlink:href="#me687baa1e5" y="30.334099"/>
    </g>
   </g>
   <g id="line2d_35">
    <path d="M 101.646892 298.944 
L 101.646892 298.417314 
L 103.623262 298.417314 
L 103.623262 297.890628 
L 104.826449 297.890628 
L 104.826449 296.837256 
L 105.285403 296.837256 
L 105.285403 296.31057 
L 106.593963 296.31057 
L 106.593963 295.783884 
L 107.414787 295.783884 
L 107.414787 295.257197 
L 108.294265 295.257197 
L 108.294265 294.730511 
L 109.31223 294.730511 
L 109.31223 294.203825 
L 110.61104 294.203825 
L 110.61104 293.677139 
L 111.74176 293.677139 
L 111.74176 293.150453 
L 111.974805 293.150453 
L 111.974805 292.623767 
L 113.664983 292.623767 
L 113.664983 292.097081 
L 113.804498 292.097081 
L 113.804498 291.570395 
L 114.685115 291.570395 
L 114.685115 291.043709 
L 114.816733 291.043709 
L 114.882171 289.990337 
L 115.897107 289.990337 
L 115.897107 289.463651 
L 116.019919 289.463651 
L 116.019919 288.936964 
L 116.262979 288.936964 
L 116.262979 288.410278 
L 116.562116 288.410278 
L 116.562116 287.883592 
L 118.363901 287.883592 
L 118.417314 286.83022 
L 119.65247 286.83022 
L 119.65247 286.303534 
L 119.89914 286.303534 
L 119.89914 285.776848 
L 120.190611 285.776848 
L 120.190611 285.250162 
L 120.898662 285.250162 
L 120.898662 284.723476 
L 121.355214 284.723476 
L 121.445108 283.143418 
L 122.31944 283.143418 
L 122.31944 282.090045 
L 122.531342 282.090045 
L 122.531342 281.563359 
L 123.829748 281.563359 
L 123.829748 281.036673 
L 124.406624 281.036673 
L 124.444412 279.983301 
L 125.255688 279.983301 
L 125.255688 279.456615 
L 125.470548 279.456615 
L 125.470548 278.929929 
L 125.927192 278.929929 
L 125.927192 278.403243 
L 126.065325 278.403243 
L 126.065325 277.876557 
L 126.70692 277.876557 
L 126.806101 276.823185 
L 127.002787 276.823185 
L 127.002787 276.296499 
L 127.516689 276.296499 
L 127.516689 275.769812 
L 127.674226 275.769812 
L 127.674226 275.243126 
L 127.830353 275.243126 
L 127.830353 274.71644 
L 128.260216 274.71644 
L 128.260216 274.189754 
L 128.531065 274.189754 
L 128.620421 273.136382 
L 128.885774 273.136382 
L 128.885774 272.609696 
L 129.489668 272.609696 
L 129.489668 272.08301 
L 129.630422 272.08301 
L 129.658437 271.029638 
L 130.290663 271.029638 
L 130.398313 268.922893 
L 130.717333 268.922893 
L 130.743656 267.869521 
L 130.978796 267.869521 
L 131.030622 266.816149 
L 131.790072 266.816149 
L 131.888878 265.762777 
L 132.036046 265.762777 
L 132.133473 264.182719 
L 132.326708 264.182719 
L 132.326708 263.656033 
L 132.470242 263.656033 
L 132.541568 262.60266 
L 133.19358 262.60266 
L 133.262014 261.549288 
L 133.307488 261.549288 
L 133.307488 261.022602 
L 133.644815 261.022602 
L 133.644815 260.495916 
L 133.82209 260.495916 
L 133.844123 259.442544 
L 134.171324 259.442544 
L 134.171324 258.389172 
L 134.55603 258.389172 
L 134.55603 257.862486 
L 134.953107 257.862486 
L 134.953107 257.3358 
L 135.46217 257.3358 
L 135.46217 256.809114 
L 135.937276 256.809114 
L 135.956794 255.229055 
L 136.13148 255.229055 
L 136.13148 254.702369 
L 136.304433 254.702369 
L 136.361705 253.648997 
L 136.905847 253.648997 
L 137.016339 252.068939 
L 137.253364 252.068939 
L 137.253364 251.542253 
L 137.39764 251.542253 
L 137.39764 251.015567 
L 137.52291 251.015567 
L 137.52291 249.962195 
L 138.290362 249.962195 
L 138.324456 248.908822 
L 138.628343 248.908822 
L 138.628343 248.382136 
L 139.02546 248.382136 
L 139.02546 247.328764 
L 139.477614 247.328764 
L 139.477614 246.802078 
L 139.620495 246.802078 
L 139.667863 245.748706 
L 139.840453 245.748706 
L 139.840453 245.22202 
L 140.103868 245.22202 
L 140.103868 244.695334 
L 140.226464 244.695334 
L 140.317849 242.588589 
L 140.363363 242.588589 
L 140.378508 241.535217 
L 140.544239 241.535217 
L 140.544239 241.008531 
L 140.693549 241.008531 
L 140.693549 240.481845 
L 140.944478 240.481845 
L 140.944478 239.428473 
L 141.075875 239.428473 
L 141.177393 236.795043 
L 141.335737 236.795043 
L 141.335737 236.268356 
L 141.478449 236.268356 
L 141.478449 235.74167 
L 141.704386 235.74167 
L 141.788363 234.688298 
L 142.051655 234.688298 
L 142.051655 234.161612 
L 142.365148 234.161612 
L 142.459451 232.581554 
L 142.593291 232.581554 
L 142.699628 231.528182 
L 142.871056 231.528182 
L 142.871056 231.001496 
L 143.027814 231.001496 
L 143.040814 229.948123 
L 143.157379 229.948123 
L 143.208936 228.894751 
L 143.311596 228.894751 
L 143.388196 227.314693 
L 143.502469 227.314693 
L 143.502469 226.788007 
L 143.615998 226.788007 
L 143.615998 226.261321 
L 143.741281 226.261321 
L 143.741281 225.207949 
L 144.148442 225.207949 
L 144.148442 224.681263 
L 144.462672 224.681263 
L 144.498568 222.574518 
L 144.59393 222.574518 
L 144.665111 220.467774 
L 144.900303 220.467774 
L 144.993499 218.887716 
L 145.02832 218.887716 
L 145.132366 217.307658 
L 145.166911 217.307658 
L 145.258697 216.254285 
L 145.395476 216.254285 
L 145.497361 214.674227 
L 145.564956 214.674227 
L 145.564956 214.147541 
L 145.755062 214.147541 
L 145.832743 213.094169 
L 145.987073 213.094169 
L 145.987073 212.567483 
L 146.205204 212.567483 
L 146.280909 211.514111 
L 146.442037 211.514111 
L 146.516724 210.460738 
L 146.580487 210.460738 
L 146.591092 209.407366 
L 146.728368 209.407366 
L 146.728368 208.88068 
L 147.174888 208.88068 
L 147.215849 207.300622 
L 147.398994 207.300622 
L 147.398994 206.773936 
L 147.530079 206.773936 
L 147.640233 205.720564 
L 147.680117 205.720564 
L 147.749695 204.140506 
L 147.809113 204.140506 
L 147.87818 202.560447 
L 148.025265 202.560447 
L 148.093482 201.507075 
L 148.334961 201.507075 
L 148.373289 199.927017 
L 148.516274 199.927017 
L 148.516274 199.400331 
L 148.705114 199.400331 
L 148.808112 197.293586 
L 148.882639 197.293586 
L 148.929057 196.240214 
L 149.15016 196.240214 
L 149.214124 194.13347 
L 149.359452 194.13347 
L 149.44067 192.553412 
L 149.539426 192.553412 
L 149.58413 190.446667 
L 149.664311 190.446667 
L 149.752971 186.759865 
L 149.88512 186.759865 
L 149.937701 185.179807 
L 150.051085 185.179807 
L 150.137805 184.126434 
L 150.275665 184.126434 
L 150.37835 181.493004 
L 150.799813 181.493004 
L 150.849711 179.912946 
L 150.940821 179.912946 
L 151.047887 178.332888 
L 151.072501 178.332888 
L 151.072501 177.806202 
L 151.203194 177.806202 
L 151.300575 174.646085 
L 151.316753 174.646085 
L 151.357131 173.592713 
L 151.501723 173.592713 
L 151.60541 172.539341 
L 151.645126 172.539341 
L 151.747966 170.432596 
L 151.787359 170.432596 
L 151.897188 167.799166 
L 152.114793 167.799166 
L 152.114793 167.27248 
L 152.26858 167.27248 
L 152.375429 163.585677 
L 152.474064 163.585677 
L 152.534486 162.532305 
L 152.587184 162.532305 
L 152.624728 161.478933 
L 152.766663 161.478933 
L 152.811246 160.425561 
L 152.944315 160.425561 
L 152.981099 159.372189 
L 153.112882 159.372189 
L 153.185667 158.318817 
L 153.294279 158.318817 
L 153.395042 156.738758 
L 153.573542 156.738758 
L 153.644434 155.1587 
L 153.693887 155.1587 
L 153.785358 154.105328 
L 153.806399 154.105328 
L 153.806399 153.578642 
L 153.959927 153.578642 
L 153.980758 152.52527 
L 154.139643 152.52527 
L 154.201424 151.471897 
L 154.256157 151.471897 
L 154.337936 149.891839 
L 154.399019 149.891839 
L 154.453136 148.311781 
L 154.527275 148.311781 
L 154.634552 145.151665 
L 154.667942 145.151665 
L 154.667942 144.098292 
L 154.800864 144.098292 
L 154.880133 143.04492 
L 154.919633 143.04492 
L 154.985269 141.464862 
L 155.031067 141.464862 
L 155.128803 137.778059 
L 155.206599 137.778059 
L 155.232454 136.724687 
L 155.539762 136.724687 
L 155.641006 134.617943 
L 155.666226 134.617943 
L 155.678822 133.564571 
L 155.83551 133.564571 
L 155.922644 130.404454 
L 156.040206 130.404454 
L 156.144725 129.351082 
L 156.156981 129.351082 
L 156.187581 128.29771 
L 156.279062 128.29771 
L 156.38821 125.66428 
L 156.466616 125.66428 
L 156.550661 121.977477 
L 156.652174 121.977477 
L 156.699741 118.290674 
L 156.782672 118.290674 
L 156.865211 115.657244 
L 156.964915 115.657244 
L 157.011638 113.5505 
L 157.133693 113.5505 
L 157.220355 110.390383 
L 157.26065 110.390383 
L 157.363842 108.810325 
L 157.38669 108.810325 
L 157.483465 106.703581 
L 157.545799 106.703581 
L 157.63607 105.650209 
L 157.742664 105.650209 
L 157.84305 104.596836 
L 157.859725 104.596836 
L 157.970486 102.490092 
L 158.0201 102.490092 
L 158.069574 99.856662 
L 158.206267 99.856662 
L 158.255216 97.223231 
L 158.401243 97.223231 
L 158.497919 95.643173 
L 158.524678 95.643173 
L 158.604712 94.063115 
L 158.636623 94.063115 
L 158.67908 91.95637 
L 158.779504 91.95637 
L 158.868869 89.849626 
L 158.915995 89.849626 
L 159.009867 88.796254 
L 159.056614 88.796254 
L 159.11358 87.742882 
L 159.262876 87.742882 
L 159.262876 87.216196 
L 159.385473 87.216196 
L 159.492042 84.582765 
L 159.577838 84.582765 
L 159.648178 83.529393 
L 159.738201 83.529393 
L 159.792986 81.949335 
L 159.877318 81.949335 
L 159.897102 80.369277 
L 160.000599 80.369277 
L 160.074152 79.315904 
L 160.171742 79.315904 
L 160.244578 77.20916 
L 160.288133 77.20916 
L 160.379729 76.155788 
L 160.403753 76.155788 
L 160.494745 74.57573 
L 160.518612 74.57573 
L 160.623238 72.995672 
L 160.642194 72.995672 
L 160.741375 70.362241 
L 160.863394 70.362241 
L 160.961329 67.728811 
L 161.02168 67.728811 
L 161.072584 66.148752 
L 161.155563 66.148752 
L 161.251875 62.988636 
L 161.27016 62.988636 
L 161.379469 60.881892 
L 161.501628 60.881892 
L 161.578106 59.82852 
L 161.63189 59.82852 
L 161.654251 57.721775 
L 161.747855 57.721775 
L 161.747855 57.195089 
L 161.88512 57.195089 
L 161.990653 54.034973 
L 162.082474 54.034973 
L 162.182487 50.34817 
L 162.212813 50.34817 
L 162.316387 47.71474 
L 162.500433 47.71474 
L 162.508946 46.661368 
L 162.648818 46.661368 
L 162.749842 44.554623 
L 162.779197 44.554623 
L 162.875305 41.921193 
L 163.02881 41.921193 
L 163.03294 40.867821 
L 163.17688 40.867821 
L 163.201437 39.814448 
L 163.437051 39.814448 
L 163.505512 38.23439 
L 163.665543 38.23439 
L 163.764822 37.181018 
L 163.83201 37.181018 
L 163.875347 35.60096 
L 163.957784 35.60096 
L 163.957784 35.074274 
L 164.105972 35.074274 
L 164.171861 34.020902 
L 164.50142 34.020902 
L 164.509011 32.967529 
L 165.00282 32.967529 
L 165.00282 32.440843 
L 165.200871 32.440843 
L 165.244578 31.387471 
L 165.593916 31.387471 
L 165.593916 30.860785 
L 176.676501 30.860785 
L 176.676501 30.334099 
L 338.688 30.334099 
L 338.688 30.334099 
" style="fill:none;stroke:#000080;stroke-linecap:square;stroke-width:1.5;"/>
   </g>
   <g id="line2d_36">
    <defs>
     <path d="M 0 6 
C 1.591219 6 3.117479 5.367802 4.242641 4.242641 
C 5.367802 3.117479 6 1.591219 6 0 
C 6 -1.591219 5.367802 -3.117479 4.242641 -4.242641 
C 3.117479 -5.367802 1.591219 -6 0 -6 
C -1.591219 -6 -3.117479 -5.367802 -4.242641 -4.242641 
C -5.367802 -3.117479 -6 -1.591219 -6 0 
C -6 1.591219 -5.367802 3.117479 -4.242641 4.242641 
C -3.117479 5.367802 -1.591219 6 0 6 
z
" id="m76c7c5317a" style="stroke:#000080;stroke-width:1.5;"/>
    </defs>
    <g>
     <use style="fill-opacity:0;stroke:#000080;stroke-width:1.5;" x="161.02168" xlink:href="#m76c7c5317a" y="67.202125"/>
     <use style="fill-opacity:0;stroke:#000080;stroke-width:1.5;" x="176.676501" xlink:href="#m76c7c5317a" y="30.860785"/>
     <use style="fill-opacity:0;stroke:#000080;stroke-width:1.5;" x="176.676501" xlink:href="#m76c7c5317a" y="30.334099"/>
     <use style="fill-opacity:0;stroke:#000080;stroke-width:1.5;" x="176.676501" xlink:href="#m76c7c5317a" y="30.334099"/>
     <use style="fill-opacity:0;stroke:#000080;stroke-width:1.5;" x="338.688" xlink:href="#m76c7c5317a" y="30.334099"/>
    </g>
   </g>
   <g id="line2d_37">
    <path style="fill:none;stroke:#000080;stroke-linecap:square;stroke-width:1.5;"/>
    <g/>
   </g>
   <g id="line2d_38">
    <path clip-path="url(#pf23ea9ddfb)" d="M 165.943384 30.860785 
" style="fill:none;stroke:#000080;stroke-linecap:square;stroke-width:1.5;"/>
    <defs>
     <path d="M -12 12 
L 12 -12 
M -12 -12 
L 12 12 
" id="m9d6ee58d46" style="stroke:#000080;"/>
    </defs>
    <g clip-path="url(#pf23ea9ddfb)">
     <use style="fill:#000080;stroke:#000080;" x="165.943384" xlink:href="#m9d6ee58d46" y="30.860785"/>
    </g>
   </g>
   <g id="line2d_39">
    <defs>
     <path d="M 0 1.5 
C 0.397805 1.5 0.77937 1.341951 1.06066 1.06066 
C 1.341951 0.77937 1.5 0.397805 1.5 0 
C 1.5 -0.397805 1.341951 -0.77937 1.06066 -1.06066 
C 0.77937 -1.341951 0.397805 -1.5 0 -1.5 
C -0.397805 -1.5 -0.77937 -1.341951 -1.06066 -1.06066 
C -1.341951 -0.77937 -1.5 -0.397805 -1.5 0 
C -1.5 0.397805 -1.341951 0.77937 -1.06066 1.06066 
C -0.77937 1.341951 -0.397805 1.5 0 1.5 
z
" id="ma1cdbc60a8" style="stroke:#ff00ff;"/>
    </defs>
    <g>
     <use style="fill:#ff00ff;stroke:#ff00ff;" x="234.120059" xlink:href="#ma1cdbc60a8" y="262.075974"/>
     <use style="fill:#ff00ff;stroke:#ff00ff;" x="234.120059" xlink:href="#ma1cdbc60a8" y="262.075974"/>
    </g>
   </g>
   <g id="line2d_40">
    <path d="M 118.310324 298.944 
L 118.310324 298.417314 
L 121.800118 298.417314 
L 121.800118 297.890628 
L 126.202373 297.890628 
L 126.202373 297.363942 
L 126.904721 297.363942 
L 126.904721 296.837256 
L 127.516689 296.837256 
L 127.516689 295.783884 
L 130.76994 295.783884 
L 130.76994 295.257197 
L 131.490249 295.257197 
L 131.490249 294.730511 
L 134.192921 294.730511 
L 134.192921 294.203825 
L 134.703375 294.203825 
L 134.703375 293.677139 
L 135.800036 293.677139 
L 135.800036 293.150453 
L 136.813232 293.150453 
L 136.813232 292.623767 
L 137.647286 292.623767 
L 137.647286 292.097081 
L 139.980403 292.097081 
L 139.980403 291.570395 
L 140.738093 291.570395 
L 140.738093 291.043709 
L 140.959126 291.043709 
L 140.959126 290.517023 
L 142.161336 290.517023 
L 142.215919 289.463651 
L 142.975718 289.463651 
L 142.988757 288.410278 
L 145.0862 288.410278 
L 145.0862 287.883592 
L 146.041862 287.883592 
L 146.041862 287.356906 
L 146.270114 287.356906 
L 146.270114 286.83022 
L 146.474085 286.83022 
L 146.516724 285.776848 
L 147.13383 285.776848 
L 147.13383 285.250162 
L 147.86833 285.250162 
L 147.86833 284.723476 
L 148.1808 284.723476 
L 148.1808 284.19679 
L 148.592055 284.19679 
L 148.686322 283.143418 
L 148.78943 283.143418 
L 148.78943 282.616732 
L 150.598782 282.616732 
L 150.598782 282.090045 
L 151.517715 282.090045 
L 151.581536 281.036673 
L 151.716387 281.036673 
L 151.716387 280.509987 
L 154.228812 280.509987 
L 154.228812 279.983301 
L 154.587699 279.983301 
L 154.587699 279.456615 
L 155.135299 279.456615 
L 155.135299 278.929929 
L 156.382164 278.929929 
L 156.382164 278.403243 
L 156.935649 278.403243 
L 156.935649 277.876557 
L 161.374928 277.876557 
L 161.374928 277.349871 
L 169.662047 277.349871 
L 169.662047 276.823185 
L 171.905821 276.823185 
L 171.905821 276.296499 
L 172.293758 276.296499 
L 172.402686 275.243126 
L 172.822298 275.243126 
L 172.822298 274.189754 
L 174.552194 274.189754 
L 174.552194 273.136382 
L 175.916053 273.136382 
L 175.916053 272.609696 
L 182.025977 272.609696 
L 182.025977 272.08301 
L 182.446122 272.08301 
L 182.446122 271.556324 
L 182.610848 271.556324 
L 182.610848 270.502952 
L 182.874923 270.502952 
L 182.874923 269.976266 
L 187.344664 269.976266 
L 187.344664 269.449579 
L 187.72865 269.449579 
L 187.72865 268.922893 
L 187.874344 268.922893 
L 187.874344 267.869521 
L 188.008973 267.869521 
L 188.008973 267.342835 
L 192.481331 267.342835 
L 192.481331 266.816149 
L 198.875276 266.816149 
L 198.875276 266.289463 
L 201.13953 266.289463 
L 201.13953 265.762777 
L 203.37526 265.762777 
L 203.37526 265.236091 
L 205.257188 265.236091 
L 205.257188 264.709405 
L 205.413461 264.709405 
L 205.413461 264.182719 
L 207.142324 264.182719 
L 207.142324 263.656033 
L 211.490138 263.656033 
L 211.490138 263.129347 
L 212.775142 263.129347 
L 212.775142 262.60266 
L 234.120059 262.60266 
L 234.120059 262.075974 
L 338.688 262.075974 
L 338.688 262.075974 
" style="fill:none;stroke:#ff00ff;stroke-linecap:square;stroke-width:1.5;"/>
   </g>
   <g id="line2d_41">
    <defs>
     <path d="M -0 8.485281 
L 5.091169 0 
L 0 -8.485281 
L -5.091169 -0 
z
" id="m172b35c8a1" style="stroke:#ff00ff;stroke-linejoin:miter;stroke-width:1.5;"/>
    </defs>
    <g>
     <use style="fill-opacity:0;stroke:#ff00ff;stroke-linejoin:miter;stroke-width:1.5;" x="192.481331" xlink:href="#m172b35c8a1" y="267.342835"/>
     <use style="fill-opacity:0;stroke:#ff00ff;stroke-linejoin:miter;stroke-width:1.5;" x="234.120059" xlink:href="#m172b35c8a1" y="262.60266"/>
     <use style="fill-opacity:0;stroke:#ff00ff;stroke-linejoin:miter;stroke-width:1.5;" x="234.120059" xlink:href="#m172b35c8a1" y="262.075974"/>
     <use style="fill-opacity:0;stroke:#ff00ff;stroke-linejoin:miter;stroke-width:1.5;" x="234.120059" xlink:href="#m172b35c8a1" y="262.075974"/>
     <use style="fill-opacity:0;stroke:#ff00ff;stroke-linejoin:miter;stroke-width:1.5;" x="338.688" xlink:href="#m172b35c8a1" y="262.075974"/>
    </g>
   </g>
   <g id="line2d_42">
    <path style="fill:none;stroke:#ff00ff;stroke-linecap:square;stroke-width:1.5;"/>
    <g/>
   </g>
   <g id="line2d_43">
    <path clip-path="url(#pf23ea9ddfb)" d="M 165.978297 277.349871 
" style="fill:none;stroke:#ff00ff;stroke-linecap:square;stroke-width:1.5;"/>
    <defs>
     <path d="M -12 12 
L 12 -12 
M -12 -12 
L 12 12 
" id="mc9c8c3fd62" style="stroke:#ff00ff;"/>
    </defs>
    <g clip-path="url(#pf23ea9ddfb)">
     <use style="fill:#ff00ff;stroke:#ff00ff;" x="165.978297" xlink:href="#mc9c8c3fd62" y="277.349871"/>
    </g>
   </g>
   <g id="line2d_44">
    <defs>
     <path d="M 0 1.5 
C 0.397805 1.5 0.77937 1.341951 1.06066 1.06066 
C 1.341951 0.77937 1.5 0.397805 1.5 0 
C 1.5 -0.397805 1.341951 -0.77937 1.06066 -1.06066 
C 0.77937 -1.341951 0.397805 -1.5 0 -1.5 
C -0.397805 -1.5 -0.77937 -1.341951 -1.06066 -1.06066 
C -1.341951 -0.77937 -1.5 -0.397805 -1.5 0 
C -1.5 0.397805 -1.341951 0.77937 -1.06066 1.06066 
C -0.77937 1.341951 -0.397805 1.5 0 1.5 
z
" id="mc8bfd23204" style="stroke:#ff7500;"/>
    </defs>
    <g>
     <use style="fill:#ff7500;stroke:#ff7500;" x="190.020351" xlink:href="#mc8bfd23204" y="214.674227"/>
     <use style="fill:#ff7500;stroke:#ff7500;" x="190.020351" xlink:href="#mc8bfd23204" y="214.674227"/>
    </g>
   </g>
   <g id="line2d_45">
    <path d="M 115.711251 298.944 
L 115.711251 298.417314 
L 116.141872 298.417314 
L 116.141872 297.890628 
L 123.633136 297.890628 
L 123.712047 296.837256 
L 123.751369 296.837256 
L 123.790603 295.783884 
L 124.139788 295.783884 
L 124.139788 295.257197 
L 124.557288 295.257197 
L 124.594752 294.203825 
L 126.806101 294.203825 
L 126.904721 293.150453 
L 127.067859 293.150453 
L 127.067859 292.623767 
L 127.453273 292.623767 
L 127.453273 292.097081 
L 127.674226 292.097081 
L 127.674226 291.570395 
L 127.985095 291.570395 
L 127.985095 291.043709 
L 129.031467 291.043709 
L 129.031467 290.517023 
L 129.433047 290.517023 
L 129.433047 289.990337 
L 131.210808 289.990337 
L 131.287464 288.936964 
L 131.414481 288.936964 
L 131.414481 288.410278 
L 131.765283 288.410278 
L 131.765283 287.883592 
L 133.216421 287.883592 
L 133.216421 287.356906 
L 133.352844 287.356906 
L 133.352844 286.83022 
L 133.600213 286.83022 
L 133.600213 286.303534 
L 133.910056 286.303534 
L 133.910056 285.776848 
L 134.534878 285.776848 
L 134.534878 285.250162 
L 134.661403 285.250162 
L 134.661403 284.723476 
L 134.932432 284.723476 
L 134.932432 283.670104 
L 135.300881 283.670104 
L 135.300881 283.143418 
L 136.570107 283.143418 
L 136.58893 282.090045 
L 136.701442 282.090045 
L 136.701442 281.563359 
L 137.52291 281.563359 
L 137.52291 281.036673 
L 137.823442 281.036673 
L 137.928288 279.983301 
L 137.997836 279.983301 
L 137.997836 279.456615 
L 138.187677 279.456615 
L 138.187677 278.929929 
L 139.636299 278.929929 
L 139.715103 277.876557 
L 140.073083 277.876557 
L 140.073083 277.349871 
L 140.333034 277.349871 
L 140.333034 276.823185 
L 140.559227 276.823185 
L 140.559227 276.296499 
L 141.885829 276.296499 
L 141.885829 275.769812 
L 142.923465 275.769812 
L 143.027814 274.189754 
L 143.976867 274.189754 
L 143.976867 273.663068 
L 144.111818 273.663068 
L 144.111818 273.136382 
L 144.245733 273.136382 
L 144.245733 272.609696 
L 144.806606 272.609696 
L 144.876926 271.556324 
L 146.237689 271.556324 
L 146.237689 271.029638 
L 146.717846 271.029638 
L 146.728368 269.976266 
L 146.885432 269.976266 
L 146.885432 269.449579 
L 147.570215 269.449579 
L 147.570215 268.922893 
L 148.103206 268.922893 
L 148.103206 268.396207 
L 148.296548 268.396207 
L 148.344551 267.342835 
L 149.021524 267.342835 
L 149.021524 266.816149 
L 149.168459 266.816149 
L 149.168459 266.289463 
L 149.699829 266.289463 
L 149.699829 265.762777 
L 150.361278 265.762777 
L 150.361278 265.236091 
L 150.581924 265.236091 
L 150.581924 264.709405 
L 151.080698 264.709405 
L 151.080698 264.182719 
L 151.803091 264.182719 
L 151.803091 263.656033 
L 151.920633 263.656033 
L 151.983 262.60266 
L 152.107068 262.60266 
L 152.107068 262.075974 
L 152.496747 262.075974 
L 152.496747 261.549288 
L 152.848312 261.549288 
L 152.900071 260.495916 
L 153.017805 260.495916 
L 153.017805 259.96923 
L 153.729125 259.96923 
L 153.729125 259.442544 
L 154.029268 259.442544 
L 154.029268 258.915858 
L 154.847148 258.915858 
L 154.847148 258.389172 
L 155.28405 258.389172 
L 155.28405 257.862486 
L 155.659924 257.862486 
L 155.666226 256.809114 
L 156.285144 256.809114 
L 156.315521 255.755741 
L 156.788581 255.755741 
L 156.835778 254.702369 
L 157.26065 254.702369 
L 157.26065 254.175683 
L 157.630442 254.175683 
L 157.630442 253.648997 
L 158.075062 253.648997 
L 158.129851 252.595625 
L 158.195371 252.595625 
L 158.287772 251.542253 
L 158.438903 251.542253 
L 158.438903 251.015567 
L 158.832127 251.015567 
L 158.832127 250.488881 
L 159.009867 250.488881 
L 159.11358 248.908822 
L 159.931669 248.908822 
L 159.931669 248.382136 
L 160.083935 248.382136 
L 160.083935 247.85545 
L 160.528149 247.85545 
L 160.599515 245.748706 
L 160.727241 245.748706 
L 160.727241 245.22202 
L 161.007772 245.22202 
L 161.007772 244.695334 
L 161.210663 244.695334 
L 161.215247 243.641962 
L 161.338558 243.641962 
L 161.338558 243.115275 
L 161.564634 243.115275 
L 161.63189 241.535217 
L 161.689969 241.535217 
L 161.689969 241.008531 
L 161.88512 241.008531 
L 161.946759 239.955159 
L 162.281931 239.955159 
L 162.281931 239.428473 
L 162.62347 239.428473 
L 162.716232 238.375101 
L 162.946002 238.375101 
L 162.958448 237.321729 
L 163.061823 237.321729 
L 163.111226 235.74167 
L 163.242288 235.74167 
L 163.348054 234.161612 
L 163.388564 234.161612 
L 163.412824 233.10824 
L 163.625673 233.10824 
L 163.713267 231.001496 
L 164.245209 231.001496 
L 164.276 229.421437 
L 164.531763 229.421437 
L 164.577177 228.368065 
L 164.832318 228.368065 
L 164.86209 227.314693 
L 164.98806 227.314693 
L 164.98806 226.788007 
L 165.182627 226.788007 
L 165.259123 225.207949 
L 165.43632 225.207949 
L 165.529617 224.154577 
L 165.643763 224.154577 
L 165.711185 223.101204 
L 165.792454 223.101204 
L 165.799503 222.047832 
L 176.668945 222.047832 
L 176.668945 221.521146 
L 177.370721 221.521146 
L 177.370721 220.467774 
L 177.672988 220.467774 
L 177.678338 219.414402 
L 177.823948 219.414402 
L 177.933241 217.307658 
L 177.973612 217.307658 
L 177.973612 216.254285 
L 184.763618 216.254285 
L 184.763618 215.727599 
L 184.879635 215.727599 
L 184.879635 215.200913 
L 190.020351 215.200913 
L 190.020351 214.674227 
L 338.688 214.674227 
L 338.688 214.674227 
" style="fill:none;stroke:#ff7500;stroke-linecap:square;stroke-width:1.5;"/>
   </g>
   <g id="line2d_46">
    <defs>
     <path d="M 0 -6 
L -1.347084 -1.854102 
L -5.706339 -1.854102 
L -2.179628 0.708204 
L -3.526712 4.854102 
L -0 2.291796 
L 3.526712 4.854102 
L 2.179628 0.708204 
L 5.706339 -1.854102 
L 1.347084 -1.854102 
z
" id="m07fcbfdd45" style="stroke:#ff7500;stroke-linejoin:bevel;stroke-width:1.5;"/>
    </defs>
    <g>
     <use style="fill-opacity:0;stroke:#ff7500;stroke-linejoin:bevel;stroke-width:1.5;" x="161.564634" xlink:href="#m07fcbfdd45" y="243.115275"/>
     <use style="fill-opacity:0;stroke:#ff7500;stroke-linejoin:bevel;stroke-width:1.5;" x="190.020351" xlink:href="#m07fcbfdd45" y="215.200913"/>
     <use style="fill-opacity:0;stroke:#ff7500;stroke-linejoin:bevel;stroke-width:1.5;" x="190.020351" xlink:href="#m07fcbfdd45" y="214.674227"/>
     <use style="fill-opacity:0;stroke:#ff7500;stroke-linejoin:bevel;stroke-width:1.5;" x="190.020351" xlink:href="#m07fcbfdd45" y="214.674227"/>
     <use style="fill-opacity:0;stroke:#ff7500;stroke-linejoin:bevel;stroke-width:1.5;" x="338.688" xlink:href="#m07fcbfdd45" y="214.674227"/>
    </g>
   </g>
   <g id="line2d_47">
    <path style="fill:none;stroke:#ff7500;stroke-linecap:square;stroke-width:1.5;"/>
    <g/>
   </g>
   <g id="line2d_48">
    <path clip-path="url(#pf23ea9ddfb)" d="M 165.978297 222.047832 
" style="fill:none;stroke:#ff7500;stroke-linecap:square;stroke-width:1.5;"/>
    <defs>
     <path d="M -12 12 
L 12 -12 
M -12 -12 
L 12 12 
" id="m7983f33271" style="stroke:#ff7500;"/>
    </defs>
    <g clip-path="url(#pf23ea9ddfb)">
     <use style="fill:#ff7500;stroke:#ff7500;" x="165.978297" xlink:href="#m7983f33271" y="222.047832"/>
    </g>
   </g>
   <g id="line2d_49">
    <defs>
     <path d="M 0 1.5 
C 0.397805 1.5 0.77937 1.341951 1.06066 1.06066 
C 1.341951 0.77937 1.5 0.397805 1.5 0 
C 1.5 -0.397805 1.341951 -0.77937 1.06066 -1.06066 
C 0.77937 -1.341951 0.397805 -1.5 0 -1.5 
C -0.397805 -1.5 -0.77937 -1.341951 -1.06066 -1.06066 
C -1.341951 -0.77937 -1.5 -0.397805 -1.5 0 
C -1.5 0.397805 -1.341951 0.77937 -1.06066 1.06066 
C -0.77937 1.341951 -0.397805 1.5 0 1.5 
z
" id="m0fec07828a" style="stroke:#6495ed;"/>
    </defs>
    <g>
     <use style="fill:#6495ed;stroke:#6495ed;" x="234.047091" xlink:href="#m0fec07828a" y="241.008531"/>
     <use style="fill:#6495ed;stroke:#6495ed;" x="234.047091" xlink:href="#m0fec07828a" y="241.008531"/>
    </g>
   </g>
   <g id="line2d_50">
    <path d="M 102.196206 298.944 
L 102.196206 298.417314 
L 102.989037 298.417314 
L 102.989037 297.363942 
L 111.023335 297.363942 
L 111.023335 296.837256 
L 114.751048 296.837256 
L 114.751048 296.31057 
L 115.141496 296.31057 
L 115.141496 295.257197 
L 115.523393 295.257197 
L 115.523393 294.730511 
L 116.019919 294.730511 
L 116.019919 293.677139 
L 116.38325 293.677139 
L 116.38325 293.150453 
L 118.994305 293.150453 
L 118.994305 292.623767 
L 120.712642 292.623767 
L 120.712642 292.097081 
L 120.852343 292.097081 
L 120.852343 291.043709 
L 122.191052 291.043709 
L 122.191052 290.517023 
L 122.31944 290.517023 
L 122.31944 289.990337 
L 122.947573 289.990337 
L 122.947573 289.463651 
L 124.368753 289.463651 
L 124.368753 288.936964 
L 125.327602 288.936964 
L 125.327602 288.410278 
L 126.806101 288.410278 
L 126.806101 287.883592 
L 127.002787 287.883592 
L 127.002787 287.356906 
L 127.229484 287.356906 
L 127.293718 285.776848 
L 127.76807 285.776848 
L 127.76807 285.250162 
L 128.32077 285.250162 
L 128.32077 284.723476 
L 131.287464 284.723476 
L 131.287464 284.19679 
L 133.101914 284.19679 
L 133.101914 283.670104 
L 133.375477 283.670104 
L 133.46572 282.616732 
L 133.866129 282.616732 
L 133.931979 281.563359 
L 134.019394 281.563359 
L 134.019394 281.036673 
L 134.450015 281.036673 
L 134.450015 280.509987 
L 136.150782 280.509987 
L 136.150782 279.983301 
L 136.323544 279.983301 
L 136.323544 279.456615 
L 136.494612 279.456615 
L 136.494612 278.929929 
L 137.858461 278.929929 
L 137.858461 278.403243 
L 138.611599 278.403243 
L 138.611599 277.876557 
L 138.861092 277.876557 
L 138.861092 277.349871 
L 139.058148 277.349871 
L 139.058148 276.823185 
L 139.381706 276.823185 
L 139.381706 276.296499 
L 139.683624 276.296499 
L 139.683624 275.769812 
L 140.723258 275.769812 
L 140.723258 275.243126 
L 142.065403 275.243126 
L 142.133981 274.189754 
L 142.818488 274.189754 
L 142.818488 273.663068 
L 143.066785 273.663068 
L 143.066785 273.136382 
L 145.005114 273.136382 
L 145.005114 272.609696 
L 145.810583 272.609696 
L 145.810583 272.08301 
L 147.419225 272.08301 
L 147.419225 271.556324 
L 148.219468 271.556324 
L 148.219468 271.029638 
L 149.00307 271.029638 
L 149.00307 270.502952 
L 149.841182 270.502952 
L 149.841182 269.976266 
L 150.258492 269.976266 
L 150.258492 269.449579 
L 151.056095 269.449579 
L 151.056095 268.922893 
L 151.445635 268.922893 
L 151.445635 268.396207 
L 154.208275 268.396207 
L 154.208275 267.869521 
L 154.800864 267.869521 
L 154.86035 266.816149 
L 155.810534 266.816149 
L 155.810534 266.289463 
L 159.262876 266.289463 
L 159.262876 265.762777 
L 168.964959 265.762777 
L 168.964959 265.236091 
L 169.276617 265.236091 
L 169.354388 264.182719 
L 169.813865 264.182719 
L 169.813865 263.656033 
L 169.936599 263.656033 
L 169.936599 263.129347 
L 170.392016 263.129347 
L 170.478456 261.022602 
L 171.35599 261.022602 
L 171.35599 259.96923 
L 171.80123 259.96923 
L 171.80123 259.442544 
L 172.159694 259.442544 
L 172.159694 258.389172 
L 172.635197 258.389172 
L 172.635197 257.862486 
L 173.146705 257.862486 
L 173.155951 256.809114 
L 173.358148 256.809114 
L 173.358148 255.755741 
L 175.56333 255.755741 
L 175.56333 254.702369 
L 179.220107 254.702369 
L 179.220107 254.175683 
L 180.157501 254.175683 
L 180.157501 253.648997 
L 180.412408 253.648997 
L 180.412408 253.122311 
L 180.918714 253.122311 
L 180.918714 252.595625 
L 181.231304 252.595625 
L 181.231304 252.068939 
L 181.495464 252.068939 
L 181.495464 251.015567 
L 182.143703 251.015567 
L 182.143703 250.488881 
L 182.37271 250.488881 
L 182.37271 249.962195 
L 186.876432 249.962195 
L 186.876432 249.435508 
L 188.122988 249.435508 
L 188.122988 248.908822 
L 191.392768 248.908822 
L 191.392768 248.382136 
L 191.728203 248.382136 
L 191.728203 247.85545 
L 191.953015 247.85545 
L 191.953015 247.328764 
L 192.440078 247.328764 
L 192.440078 246.275392 
L 195.407249 246.275392 
L 195.407249 245.748706 
L 195.897722 245.748706 
L 195.897722 245.22202 
L 199.234333 245.22202 
L 199.234333 244.695334 
L 200.96402 244.695334 
L 200.96402 244.168648 
L 203.164814 244.168648 
L 203.164814 243.641962 
L 203.422588 243.641962 
L 203.422588 243.115275 
L 205.349369 243.115275 
L 205.349369 242.588589 
L 210.108975 242.588589 
L 210.108975 242.061903 
L 224.435014 242.061903 
L 224.435014 241.535217 
L 234.047091 241.535217 
L 234.047091 241.008531 
L 338.688 241.008531 
L 338.688 241.008531 
" style="fill:none;stroke:#6495ed;stroke-linecap:square;stroke-width:1.5;"/>
   </g>
   <g id="line2d_51">
    <defs>
     <path d="M -0 6 
L 6 -6 
L -6 -6 
z
" id="m46825b3b33" style="stroke:#6495ed;stroke-linejoin:miter;stroke-width:1.5;"/>
    </defs>
    <g>
     <use style="fill-opacity:0;stroke:#6495ed;stroke-linejoin:miter;stroke-width:1.5;" x="154.86035" xlink:href="#m46825b3b33" y="266.816149"/>
     <use style="fill-opacity:0;stroke:#6495ed;stroke-linejoin:miter;stroke-width:1.5;" x="210.108975" xlink:href="#m46825b3b33" y="242.588589"/>
     <use style="fill-opacity:0;stroke:#6495ed;stroke-linejoin:miter;stroke-width:1.5;" x="234.047091" xlink:href="#m46825b3b33" y="241.535217"/>
     <use style="fill-opacity:0;stroke:#6495ed;stroke-linejoin:miter;stroke-width:1.5;" x="234.047091" xlink:href="#m46825b3b33" y="241.008531"/>
     <use style="fill-opacity:0;stroke:#6495ed;stroke-linejoin:miter;stroke-width:1.5;" x="338.688" xlink:href="#m46825b3b33" y="241.008531"/>
    </g>
   </g>
   <g id="line2d_52">
    <path style="fill:none;stroke:#6495ed;stroke-linecap:square;stroke-width:1.5;"/>
    <g/>
   </g>
   <g id="line2d_53">
    <path clip-path="url(#pf23ea9ddfb)" d="M 165.978297 265.762777 
" style="fill:none;stroke:#6495ed;stroke-linecap:square;stroke-width:1.5;"/>
    <defs>
     <path d="M -12 12 
L 12 -12 
M -12 -12 
L 12 12 
" id="m72fcd7332e" style="stroke:#6495ed;"/>
    </defs>
    <g clip-path="url(#pf23ea9ddfb)">
     <use style="fill:#6495ed;stroke:#6495ed;" x="165.978297" xlink:href="#m72fcd7332e" y="265.762777"/>
    </g>
   </g>
   <g id="line2d_54">
    <path d="M 338.688 262.075974 
L 369.60768 293.571802 
" style="fill:none;stroke:#ff00ff;stroke-linecap:square;stroke-width:1.5;"/>
    <g>
     <use style="fill-opacity:0;stroke:#ff00ff;stroke-linejoin:miter;stroke-width:1.5;" x="338.688" xlink:href="#m172b35c8a1" y="262.075974"/>
     <use style="fill-opacity:0;stroke:#ff00ff;stroke-linejoin:miter;stroke-width:1.5;" x="369.60768" xlink:href="#m172b35c8a1" y="293.571802"/>
    </g>
   </g>
   <g id="line2d_55">
    <path d="M 338.688 241.008531 
L 369.60768 229.105426 
" style="fill:none;stroke:#6495ed;stroke-linecap:square;stroke-width:1.5;"/>
    <g>
     <use style="fill-opacity:0;stroke:#6495ed;stroke-linejoin:miter;stroke-width:1.5;" x="338.688" xlink:href="#m46825b3b33" y="241.008531"/>
     <use style="fill-opacity:0;stroke:#6495ed;stroke-linejoin:miter;stroke-width:1.5;" x="369.60768" xlink:href="#m46825b3b33" y="229.105426"/>
    </g>
   </g>
   <g id="line2d_56">
    <path d="M 338.688 214.674227 
L 369.60768 164.63905 
" style="fill:none;stroke:#ff7500;stroke-linecap:square;stroke-width:1.5;"/>
    <g>
     <use style="fill-opacity:0;stroke:#ff7500;stroke-linejoin:bevel;stroke-width:1.5;" x="338.688" xlink:href="#m07fcbfdd45" y="214.674227"/>
     <use style="fill-opacity:0;stroke:#ff7500;stroke-linejoin:bevel;stroke-width:1.5;" x="369.60768" xlink:href="#m07fcbfdd45" y="164.63905"/>
    </g>
   </g>
   <g id="line2d_57">
    <path d="M 338.688 30.334099 
L 369.60768 100.172673 
" style="fill:none;stroke:#000080;stroke-linecap:square;stroke-width:1.5;"/>
    <g>
     <use style="fill-opacity:0;stroke:#000080;stroke-width:1.5;" x="338.688" xlink:href="#m76c7c5317a" y="30.334099"/>
     <use style="fill-opacity:0;stroke:#000080;stroke-width:1.5;" x="369.60768" xlink:href="#m76c7c5317a" y="100.172673"/>
    </g>
   </g>
   <g id="line2d_58">
    <path d="M 338.688 298.944 
L 338.688 30.334099 
" style="fill:none;stroke:#000000;stroke-linecap:square;stroke-width:1.5;"/>
   </g>
   <g id="patch_3">
    <path d="M 57.6 298.944 
L 57.6 27.648 
" style="fill:none;stroke:#000000;stroke-linecap:square;stroke-linejoin:miter;stroke-width:0.8;"/>
   </g>
   <g id="patch_4">
    <path d="M 338.688 298.944 
L 338.688 27.648 
" style="fill:none;stroke:#000000;stroke-linecap:square;stroke-linejoin:miter;stroke-width:0.8;"/>
   </g>
   <g id="patch_5">
    <path d="M 57.6 298.944 
L 338.688 298.944 
" style="fill:none;stroke:#000000;stroke-linecap:square;stroke-linejoin:miter;stroke-width:0.8;"/>
   </g>
   <g id="patch_6">
    <path d="M 57.6 27.648 
L 338.688 27.648 
" style="fill:none;stroke:#000000;stroke-linecap:square;stroke-linejoin:miter;stroke-width:0.8;"/>
   </g>
   <g id="text_13">
    <!-- DE -->
    <defs>
     <path d="M 19.671875 64.796875 
L 19.671875 8.109375 
L 31.59375 8.109375 
Q 46.6875 8.109375 53.6875 14.9375 
Q 60.6875 21.78125 60.6875 36.53125 
Q 60.6875 51.171875 53.6875 57.984375 
Q 46.6875 64.796875 31.59375 64.796875 
z
M 9.8125 72.90625 
L 30.078125 72.90625 
Q 51.265625 72.90625 61.171875 64.09375 
Q 71.09375 55.28125 71.09375 36.53125 
Q 71.09375 17.671875 61.125 8.828125 
Q 51.171875 0 30.078125 0 
L 9.8125 0 
z
" id="DejaVuSans-68"/>
     <path d="M 9.8125 72.90625 
L 55.90625 72.90625 
L 55.90625 64.59375 
L 19.671875 64.59375 
L 19.671875 43.015625 
L 54.390625 43.015625 
L 54.390625 34.71875 
L 19.671875 34.71875 
L 19.671875 8.296875 
L 56.78125 8.296875 
L 56.78125 0 
L 9.8125 0 
z
" id="DejaVuSans-69"/>
    </defs>
    <g transform="translate(375.22944 298.262739)scale(0.17 -0.17)">
     <use xlink:href="#DejaVuSans-68"/>
     <use x="77.001953" xlink:href="#DejaVuSans-69"/>
    </g>
   </g>
   <g id="text_14">
    <!-- PSO -->
    <defs>
     <path d="M 19.671875 64.796875 
L 19.671875 37.40625 
L 32.078125 37.40625 
Q 38.96875 37.40625 42.71875 40.96875 
Q 46.484375 44.53125 46.484375 51.125 
Q 46.484375 57.671875 42.71875 61.234375 
Q 38.96875 64.796875 32.078125 64.796875 
z
M 9.8125 72.90625 
L 32.078125 72.90625 
Q 44.34375 72.90625 50.609375 67.359375 
Q 56.890625 61.8125 56.890625 51.125 
Q 56.890625 40.328125 50.609375 34.8125 
Q 44.34375 29.296875 32.078125 29.296875 
L 19.671875 29.296875 
L 19.671875 0 
L 9.8125 0 
z
" id="DejaVuSans-80"/>
     <path d="M 53.515625 70.515625 
L 53.515625 60.890625 
Q 47.90625 63.578125 42.921875 64.890625 
Q 37.9375 66.21875 33.296875 66.21875 
Q 25.25 66.21875 20.875 63.09375 
Q 16.5 59.96875 16.5 54.203125 
Q 16.5 49.359375 19.40625 46.890625 
Q 22.3125 44.4375 30.421875 42.921875 
L 36.375 41.703125 
Q 47.40625 39.59375 52.65625 34.296875 
Q 57.90625 29 57.90625 20.125 
Q 57.90625 9.515625 50.796875 4.046875 
Q 43.703125 -1.421875 29.984375 -1.421875 
Q 24.8125 -1.421875 18.96875 -0.25 
Q 13.140625 0.921875 6.890625 3.21875 
L 6.890625 13.375 
Q 12.890625 10.015625 18.65625 8.296875 
Q 24.421875 6.59375 29.984375 6.59375 
Q 38.421875 6.59375 43.015625 9.90625 
Q 47.609375 13.234375 47.609375 19.390625 
Q 47.609375 24.75 44.3125 27.78125 
Q 41.015625 30.8125 33.5 32.328125 
L 27.484375 33.5 
Q 16.453125 35.6875 11.515625 40.375 
Q 6.59375 45.0625 6.59375 53.421875 
Q 6.59375 63.09375 13.40625 68.65625 
Q 20.21875 74.21875 32.171875 74.21875 
Q 37.3125 74.21875 42.625 73.28125 
Q 47.953125 72.359375 53.515625 70.515625 
z
" id="DejaVuSans-83"/>
     <path d="M 39.40625 66.21875 
Q 28.65625 66.21875 22.328125 58.203125 
Q 16.015625 50.203125 16.015625 36.375 
Q 16.015625 22.609375 22.328125 14.59375 
Q 28.65625 6.59375 39.40625 6.59375 
Q 50.140625 6.59375 56.421875 14.59375 
Q 62.703125 22.609375 62.703125 36.375 
Q 62.703125 50.203125 56.421875 58.203125 
Q 50.140625 66.21875 39.40625 66.21875 
z
M 39.40625 74.21875 
Q 54.734375 74.21875 63.90625 63.9375 
Q 73.09375 53.65625 73.09375 36.375 
Q 73.09375 19.140625 63.90625 8.859375 
Q 54.734375 -1.421875 39.40625 -1.421875 
Q 24.03125 -1.421875 14.8125 8.828125 
Q 5.609375 19.09375 5.609375 36.375 
Q 5.609375 53.65625 14.8125 63.9375 
Q 24.03125 74.21875 39.40625 74.21875 
z
" id="DejaVuSans-79"/>
    </defs>
    <g transform="translate(375.22944 233.796363)scale(0.17 -0.17)">
     <use xlink:href="#DejaVuSans-80"/>
     <use x="60.302734" xlink:href="#DejaVuSans-83"/>
     <use x="123.779297" xlink:href="#DejaVuSans-79"/>
    </g>
   </g>
   <g id="text_15">
    <!-- DEPSO -->
    <g transform="translate(375.22944 169.329987)scale(0.17 -0.17)">
     <use xlink:href="#DejaVuSans-68"/>
     <use x="77.001953" xlink:href="#DejaVuSans-69"/>
     <use x="140.185547" xlink:href="#DejaVuSans-80"/>
     <use x="200.488281" xlink:href="#DejaVuSans-83"/>
     <use x="263.964844" xlink:href="#DejaVuSans-79"/>
    </g>
   </g>
   <g id="text_16">
    <!-- CMA-ES -->
    <defs>
     <path d="M 64.40625 67.28125 
L 64.40625 56.890625 
Q 59.421875 61.53125 53.78125 63.8125 
Q 48.140625 66.109375 41.796875 66.109375 
Q 29.296875 66.109375 22.65625 58.46875 
Q 16.015625 50.828125 16.015625 36.375 
Q 16.015625 21.96875 22.65625 14.328125 
Q 29.296875 6.6875 41.796875 6.6875 
Q 48.140625 6.6875 53.78125 8.984375 
Q 59.421875 11.28125 64.40625 15.921875 
L 64.40625 5.609375 
Q 59.234375 2.09375 53.4375 0.328125 
Q 47.65625 -1.421875 41.21875 -1.421875 
Q 24.65625 -1.421875 15.125 8.703125 
Q 5.609375 18.84375 5.609375 36.375 
Q 5.609375 53.953125 15.125 64.078125 
Q 24.65625 74.21875 41.21875 74.21875 
Q 47.75 74.21875 53.53125 72.484375 
Q 59.328125 70.75 64.40625 67.28125 
z
" id="DejaVuSans-67"/>
     <path d="M 9.8125 72.90625 
L 24.515625 72.90625 
L 43.109375 23.296875 
L 61.8125 72.90625 
L 76.515625 72.90625 
L 76.515625 0 
L 66.890625 0 
L 66.890625 64.015625 
L 48.09375 14.015625 
L 38.1875 14.015625 
L 19.390625 64.015625 
L 19.390625 0 
L 9.8125 0 
z
" id="DejaVuSans-77"/>
     <path d="M 34.1875 63.1875 
L 20.796875 26.90625 
L 47.609375 26.90625 
z
M 28.609375 72.90625 
L 39.796875 72.90625 
L 67.578125 0 
L 57.328125 0 
L 50.6875 18.703125 
L 17.828125 18.703125 
L 11.1875 0 
L 0.78125 0 
z
" id="DejaVuSans-65"/>
    </defs>
    <g transform="translate(375.22944 104.863611)scale(0.17 -0.17)">
     <use xlink:href="#DejaVuSans-67"/>
     <use x="69.824219" xlink:href="#DejaVuSans-77"/>
     <use x="156.103516" xlink:href="#DejaVuSans-65"/>
     <use x="222.261719" xlink:href="#DejaVuSans-45"/>
     <use x="258.345703" xlink:href="#DejaVuSans-69"/>
     <use x="321.529297" xlink:href="#DejaVuSans-83"/>
    </g>
   </g>
   <g id="text_17">
    <!-- best 2009 -->
    <defs>
     <path d="M 48.6875 27.296875 
Q 48.6875 37.203125 44.609375 42.84375 
Q 40.53125 48.484375 33.40625 48.484375 
Q 26.265625 48.484375 22.1875 42.84375 
Q 18.109375 37.203125 18.109375 27.296875 
Q 18.109375 17.390625 22.1875 11.75 
Q 26.265625 6.109375 33.40625 6.109375 
Q 40.53125 6.109375 44.609375 11.75 
Q 48.6875 17.390625 48.6875 27.296875 
z
M 18.109375 46.390625 
Q 20.953125 51.265625 25.265625 53.625 
Q 29.59375 56 35.59375 56 
Q 45.5625 56 51.78125 48.09375 
Q 58.015625 40.1875 58.015625 27.296875 
Q 58.015625 14.40625 51.78125 6.484375 
Q 45.5625 -1.421875 35.59375 -1.421875 
Q 29.59375 -1.421875 25.265625 0.953125 
Q 20.953125 3.328125 18.109375 8.203125 
L 18.109375 0 
L 9.078125 0 
L 9.078125 75.984375 
L 18.109375 75.984375 
z
" id="DejaVuSans-98"/>
     <path d="M 10.984375 1.515625 
L 10.984375 10.5 
Q 14.703125 8.734375 18.5 7.8125 
Q 22.3125 6.890625 25.984375 6.890625 
Q 35.75 6.890625 40.890625 13.453125 
Q 46.046875 20.015625 46.78125 33.40625 
Q 43.953125 29.203125 39.59375 26.953125 
Q 35.25 24.703125 29.984375 24.703125 
Q 19.046875 24.703125 12.671875 31.3125 
Q 6.296875 37.9375 6.296875 49.421875 
Q 6.296875 60.640625 12.9375 67.421875 
Q 19.578125 74.21875 30.609375 74.21875 
Q 43.265625 74.21875 49.921875 64.515625 
Q 56.59375 54.828125 56.59375 36.375 
Q 56.59375 19.140625 48.40625 8.859375 
Q 40.234375 -1.421875 26.421875 -1.421875 
Q 22.703125 -1.421875 18.890625 -0.6875 
Q 15.09375 0.046875 10.984375 1.515625 
z
M 30.609375 32.421875 
Q 37.25 32.421875 41.125 36.953125 
Q 45.015625 41.5 45.015625 49.421875 
Q 45.015625 57.28125 41.125 61.84375 
Q 37.25 66.40625 30.609375 66.40625 
Q 23.96875 66.40625 20.09375 61.84375 
Q 16.21875 57.28125 16.21875 49.421875 
Q 16.21875 41.5 20.09375 36.953125 
Q 23.96875 32.421875 30.609375 32.421875 
z
" id="DejaVuSans-57"/>
    </defs>
    <g transform="translate(375.22944 40.397235)scale(0.17 -0.17)">
     <use xlink:href="#DejaVuSans-98"/>
     <use x="63.476562" xlink:href="#DejaVuSans-101"/>
     <use x="125" xlink:href="#DejaVuSans-115"/>
     <use x="177.099609" xlink:href="#DejaVuSans-116"/>
     <use x="216.308594" xlink:href="#DejaVuSans-32"/>
     <use x="248.095703" xlink:href="#DejaVuSans-50"/>
     <use x="311.71875" xlink:href="#DejaVuSans-48"/>
     <use x="375.341797" xlink:href="#DejaVuSans-48"/>
     <use x="438.964844" xlink:href="#DejaVuSans-57"/>
    </g>
   </g>
   <g id="text_18">
    <!-- bbob f6, 10-D -->
    <g transform="translate(60.41088 38.111366)scale(0.102 -0.102)">
     <use xlink:href="#DejaVuSans-98"/>
     <use x="63.476562" xlink:href="#DejaVuSans-98"/>
     <use x="126.953125" xlink:href="#DejaVuSans-111"/>
     <use x="188.134766" xlink:href="#DejaVuSans-98"/>
     <use x="251.611328" xlink:href="#DejaVuSans-32"/>
     <use x="283.398438" xlink:href="#DejaVuSans-102"/>
     <use x="318.603516" xlink:href="#DejaVuSans-54"/>
     <use x="382.226562" xlink:href="#DejaVuSans-44"/>
     <use x="414.013672" xlink:href="#DejaVuSans-32"/>
     <use x="445.800781" xlink:href="#DejaVuSans-49"/>
     <use x="509.423828" xlink:href="#DejaVuSans-48"/>
     <use x="573.046875" xlink:href="#DejaVuSans-45"/>
     <use x="609.130859" xlink:href="#DejaVuSans-68"/>
    </g>
    <!-- 51 targets: 100..1e-08 -->
    <defs>
     <path d="M 10.796875 72.90625 
L 49.515625 72.90625 
L 49.515625 64.59375 
L 19.828125 64.59375 
L 19.828125 46.734375 
Q 21.96875 47.46875 24.109375 47.828125 
Q 26.265625 48.1875 28.421875 48.1875 
Q 40.625 48.1875 47.75 41.5 
Q 54.890625 34.8125 54.890625 23.390625 
Q 54.890625 11.625 47.5625 5.09375 
Q 40.234375 -1.421875 26.90625 -1.421875 
Q 22.3125 -1.421875 17.546875 -0.640625 
Q 12.796875 0.140625 7.71875 1.703125 
L 7.71875 11.625 
Q 12.109375 9.234375 16.796875 8.0625 
Q 21.484375 6.890625 26.703125 6.890625 
Q 35.15625 6.890625 40.078125 11.328125 
Q 45.015625 15.765625 45.015625 23.390625 
Q 45.015625 31 40.078125 35.4375 
Q 35.15625 39.890625 26.703125 39.890625 
Q 22.75 39.890625 18.8125 39.015625 
Q 14.890625 38.140625 10.796875 36.28125 
z
" id="DejaVuSans-53"/>
     <path d="M 11.71875 12.40625 
L 22.015625 12.40625 
L 22.015625 0 
L 11.71875 0 
z
M 11.71875 51.703125 
L 22.015625 51.703125 
L 22.015625 39.3125 
L 11.71875 39.3125 
z
" id="DejaVuSans-58"/>
    </defs>
    <g transform="translate(60.41088 49.533135)scale(0.102 -0.102)">
     <use xlink:href="#DejaVuSans-53"/>
     <use x="63.623047" xlink:href="#DejaVuSans-49"/>
     <use x="127.246094" xlink:href="#DejaVuSans-32"/>
     <use x="159.033203" xlink:href="#DejaVuSans-116"/>
     <use x="198.242188" xlink:href="#DejaVuSans-97"/>
     <use x="259.521484" xlink:href="#DejaVuSans-114"/>
     <use x="298.884766" xlink:href="#DejaVuSans-103"/>
     <use x="362.361328" xlink:href="#DejaVuSans-101"/>
     <use x="423.884766" xlink:href="#DejaVuSans-116"/>
     <use x="463.09375" xlink:href="#DejaVuSans-115"/>
     <use x="515.193359" xlink:href="#DejaVuSans-58"/>
     <use x="548.884766" xlink:href="#DejaVuSans-32"/>
     <use x="580.671875" xlink:href="#DejaVuSans-49"/>
     <use x="644.294922" xlink:href="#DejaVuSans-48"/>
     <use x="707.917969" xlink:href="#DejaVuSans-48"/>
     <use x="771.541016" xlink:href="#DejaVuSans-46"/>
     <use x="803.328125" xlink:href="#DejaVuSans-46"/>
     <use x="835.115234" xlink:href="#DejaVuSans-49"/>
     <use x="898.738281" xlink:href="#DejaVuSans-101"/>
     <use x="960.261719" xlink:href="#DejaVuSans-45"/>
     <use x="996.345703" xlink:href="#DejaVuSans-48"/>
     <use x="1059.96875" xlink:href="#DejaVuSans-56"/>
    </g>
    <!-- 24, 15 instances -->
    <g transform="translate(60.41088 60.954904)scale(0.102 -0.102)">
     <use xlink:href="#DejaVuSans-50"/>
     <use x="63.623047" xlink:href="#DejaVuSans-52"/>
     <use x="127.246094" xlink:href="#DejaVuSans-44"/>
     <use x="159.033203" xlink:href="#DejaVuSans-32"/>
     <use x="190.820312" xlink:href="#DejaVuSans-49"/>
     <use x="254.443359" xlink:href="#DejaVuSans-53"/>
     <use x="318.066406" xlink:href="#DejaVuSans-32"/>
     <use x="349.853516" xlink:href="#DejaVuSans-105"/>
     <use x="377.636719" xlink:href="#DejaVuSans-110"/>
     <use x="441.015625" xlink:href="#DejaVuSans-115"/>
     <use x="493.115234" xlink:href="#DejaVuSans-116"/>
     <use x="532.324219" xlink:href="#DejaVuSans-97"/>
     <use x="593.603516" xlink:href="#DejaVuSans-110"/>
     <use x="656.982422" xlink:href="#DejaVuSans-99"/>
     <use x="711.962891" xlink:href="#DejaVuSans-101"/>
     <use x="773.486328" xlink:href="#DejaVuSans-115"/>
    </g>
   </g>
   <g id="text_19">
    <!-- v2.4 -->
    <g style="fill:#808080;" transform="translate(187.233062 294.151352)scale(0.1 -0.1)">
     <use xlink:href="#DejaVuSans-118"/>
     <use x="59.179688" xlink:href="#DejaVuSans-50"/>
     <use x="122.802734" xlink:href="#DejaVuSans-46"/>
     <use x="154.589844" xlink:href="#DejaVuSans-52"/>
    </g>
   </g>
   <g id="text_20">
    <!-- 6 Attractive sector -->
    <g transform="translate(105.40025 21.648)scale(0.2 -0.2)">
     <use xlink:href="#DejaVuSans-54"/>
     <use x="63.623047" xlink:href="#DejaVuSans-32"/>
     <use x="95.410156" xlink:href="#DejaVuSans-65"/>
     <use x="162.068359" xlink:href="#DejaVuSans-116"/>
     <use x="201.277344" xlink:href="#DejaVuSans-116"/>
     <use x="240.486328" xlink:href="#DejaVuSans-114"/>
     <use x="281.599609" xlink:href="#DejaVuSans-97"/>
     <use x="342.878906" xlink:href="#DejaVuSans-99"/>
     <use x="397.859375" xlink:href="#DejaVuSans-116"/>
     <use x="437.068359" xlink:href="#DejaVuSans-105"/>
     <use x="464.851562" xlink:href="#DejaVuSans-118"/>
     <use x="524.03125" xlink:href="#DejaVuSans-101"/>
     <use x="585.554688" xlink:href="#DejaVuSans-32"/>
     <use x="617.341797" xlink:href="#DejaVuSans-115"/>
     <use x="669.441406" xlink:href="#DejaVuSans-101"/>
     <use x="730.964844" xlink:href="#DejaVuSans-99"/>
     <use x="785.945312" xlink:href="#DejaVuSans-116"/>
     <use x="825.154297" xlink:href="#DejaVuSans-111"/>
     <use x="886.335938" xlink:href="#DejaVuSans-114"/>
    </g>
   </g>
  </g>
 </g>
 <defs>
  <clipPath id="pf23ea9ddfb">
   <rect height="271.296" width="281.088" x="57.6" y="27.648"/>
  </clipPath>
 </defs>
</svg>
