<?xml version="1.0" encoding="utf-8" standalone="no"?>
<!DOCTYPE svg PUBLIC "-//W3C//DTD SVG 1.1//EN"
  "http://www.w3.org/Graphics/SVG/1.1/DTD/svg11.dtd">
<!-- Created with matplotlib (https://matplotlib.org/) -->
<svg height="345.6pt" version="1.1" viewBox="0 0 460.8 345.6" width="460.8pt" xmlns="http://www.w3.org/2000/svg" xmlns:xlink="http://www.w3.org/1999/xlink">
 <defs>
  <style type="text/css">
*{stroke-linecap:butt;stroke-linejoin:round;}
  </style>
 </defs>
 <g id="figure_1">
  <g id="patch_1">
   <path d="M 0 345.6 
L 460.8 345.6 
L 460.8 0 
L 0 0 
z
" style="fill:#ffffff;"/>
  </g>
  <g id="axes_1">
   <g id="patch_2">
    <path d="M 57.6 298.944 
L 338.688 298.944 
L 338.688 27.648 
L 57.6 27.648 
z
" style="fill:#ffffff;"/>
   </g>
   <g id="line2d_1">
    <path d="M 38.440992 298.944 
L 38.440992 277.876557 
L 57.6 277.876557 
L 57.6 272.609696 
L 62.616969 272.609696 
L 62.616969 262.075974 
L 66.508432 262.075974 
L 66.508432 256.809114 
L 69.687988 256.809114 
L 69.687988 251.542253 
L 74.704957 251.542253 
L 74.704957 30.334099 
L 338.688 30.334099 
" style="fill:none;stroke:#f5deb3;stroke-linecap:square;stroke-width:4;"/>
   </g>
   <g id="line2d_2">
    <defs>
     <path d="M -0 7.778175 
L 7.778175 0 
L 0 -7.778175 
L -7.778175 -0 
z
" id="m22499ec70a" style="stroke:#f5deb3;stroke-linejoin:miter;stroke-width:1.5;"/>
    </defs>
    <g>
     <use style="fill:#f5deb3;stroke:#f5deb3;stroke-linejoin:miter;stroke-width:1.5;" x="69.687988" xlink:href="#m22499ec70a" y="256.809114"/>
     <use style="fill:#f5deb3;stroke:#f5deb3;stroke-linejoin:miter;stroke-width:1.5;" x="74.704957" xlink:href="#m22499ec70a" y="251.542253"/>
     <use style="fill:#f5deb3;stroke:#f5deb3;stroke-linejoin:miter;stroke-width:1.5;" x="74.704957" xlink:href="#m22499ec70a" y="251.542253"/>
     <use style="fill:#f5deb3;stroke:#f5deb3;stroke-linejoin:miter;stroke-width:1.5;" x="74.704957" xlink:href="#m22499ec70a" y="30.334099"/>
     <use style="fill:#f5deb3;stroke:#f5deb3;stroke-linejoin:miter;stroke-width:1.5;" x="74.704957" xlink:href="#m22499ec70a" y="30.334099"/>
     <use style="fill:#f5deb3;stroke:#f5deb3;stroke-linejoin:miter;stroke-width:1.5;" x="338.688" xlink:href="#m22499ec70a" y="30.334099"/>
    </g>
   </g>
   <g id="line2d_3">
    <path style="fill:none;stroke:#f5deb3;stroke-linecap:square;stroke-width:4;"/>
    <g/>
   </g>
   <g id="line2d_4">
    <path d="M 338.688 30.334099 
L 369.60768 35.706297 
" style="fill:none;stroke:#f5deb3;stroke-linecap:square;stroke-width:4;"/>
    <g>
     <use style="fill:#f5deb3;stroke:#f5deb3;stroke-linejoin:miter;stroke-width:1.5;" x="338.688" xlink:href="#m22499ec70a" y="30.334099"/>
     <use style="fill:#f5deb3;stroke:#f5deb3;stroke-linejoin:miter;stroke-width:1.5;" x="369.60768" xlink:href="#m22499ec70a" y="35.706297"/>
    </g>
   </g>
   <g id="matplotlib.axis_1">
    <g id="xtick_1">
     <g id="line2d_5">
      <path clip-path="url(#pfcb5570458)" d="M 57.6 298.944 
L 57.6 27.648 
" style="fill:none;stroke:#b0b0b0;stroke-linecap:square;stroke-width:0.8;"/>
     </g>
     <g id="line2d_6">
      <defs>
       <path d="M 0 0 
L 0 3.5 
" id="m9513c698ce" style="stroke:#000000;stroke-width:0.8;"/>
      </defs>
      <g>
       <use style="stroke:#000000;stroke-width:0.8;" x="57.6" xlink:href="#m9513c698ce" y="298.944"/>
      </g>
     </g>
     <g id="text_1">
      <!-- 0 -->
      <defs>
       <path d="M 31.78125 66.40625 
Q 24.171875 66.40625 20.328125 58.90625 
Q 16.5 51.421875 16.5 36.375 
Q 16.5 21.390625 20.328125 13.890625 
Q 24.171875 6.390625 31.78125 6.390625 
Q 39.453125 6.390625 43.28125 13.890625 
Q 47.125 21.390625 47.125 36.375 
Q 47.125 51.421875 43.28125 58.90625 
Q 39.453125 66.40625 31.78125 66.40625 
z
M 31.78125 74.21875 
Q 44.046875 74.21875 50.515625 64.515625 
Q 56.984375 54.828125 56.984375 36.375 
Q 56.984375 17.96875 50.515625 8.265625 
Q 44.046875 -1.421875 31.78125 -1.421875 
Q 19.53125 -1.421875 13.0625 8.265625 
Q 6.59375 17.96875 6.59375 36.375 
Q 6.59375 54.828125 13.0625 64.515625 
Q 19.53125 74.21875 31.78125 74.21875 
z
" id="DejaVuSans-48"/>
      </defs>
      <g transform="translate(51.2375 321.140875)scale(0.2 -0.2)">
       <use xlink:href="#DejaVuSans-48"/>
      </g>
     </g>
    </g>
    <g id="xtick_2">
     <g id="line2d_7">
      <path clip-path="url(#pfcb5570458)" d="M 137.910857 298.944 
L 137.910857 27.648 
" style="fill:none;stroke:#b0b0b0;stroke-linecap:square;stroke-width:0.8;"/>
     </g>
     <g id="line2d_8">
      <g>
       <use style="stroke:#000000;stroke-width:0.8;" x="137.910857" xlink:href="#m9513c698ce" y="298.944"/>
      </g>
     </g>
     <g id="text_2">
      <!-- 2 -->
      <defs>
       <path d="M 19.1875 8.296875 
L 53.609375 8.296875 
L 53.609375 0 
L 7.328125 0 
L 7.328125 8.296875 
Q 12.9375 14.109375 22.625 23.890625 
Q 32.328125 33.6875 34.8125 36.53125 
Q 39.546875 41.84375 41.421875 45.53125 
Q 43.3125 49.21875 43.3125 52.78125 
Q 43.3125 58.59375 39.234375 62.25 
Q 35.15625 65.921875 28.609375 65.921875 
Q 23.96875 65.921875 18.8125 64.3125 
Q 13.671875 62.703125 7.8125 59.421875 
L 7.8125 69.390625 
Q 13.765625 71.78125 18.9375 73 
Q 24.125 74.21875 28.421875 74.21875 
Q 39.75 74.21875 46.484375 68.546875 
Q 53.21875 62.890625 53.21875 53.421875 
Q 53.21875 48.921875 51.53125 44.890625 
Q 49.859375 40.875 45.40625 35.40625 
Q 44.1875 33.984375 37.640625 27.21875 
Q 31.109375 20.453125 19.1875 8.296875 
z
" id="DejaVuSans-50"/>
      </defs>
      <g transform="translate(131.548357 321.140875)scale(0.2 -0.2)">
       <use xlink:href="#DejaVuSans-50"/>
      </g>
     </g>
    </g>
    <g id="xtick_3">
     <g id="line2d_9">
      <path clip-path="url(#pfcb5570458)" d="M 218.221714 298.944 
L 218.221714 27.648 
" style="fill:none;stroke:#b0b0b0;stroke-linecap:square;stroke-width:0.8;"/>
     </g>
     <g id="line2d_10">
      <g>
       <use style="stroke:#000000;stroke-width:0.8;" x="218.221714" xlink:href="#m9513c698ce" y="298.944"/>
      </g>
     </g>
     <g id="text_3">
      <!-- 4 -->
      <defs>
       <path d="M 37.796875 64.3125 
L 12.890625 25.390625 
L 37.796875 25.390625 
z
M 35.203125 72.90625 
L 47.609375 72.90625 
L 47.609375 25.390625 
L 58.015625 25.390625 
L 58.015625 17.1875 
L 47.609375 17.1875 
L 47.609375 0 
L 37.796875 0 
L 37.796875 17.1875 
L 4.890625 17.1875 
L 4.890625 26.703125 
z
" id="DejaVuSans-52"/>
      </defs>
      <g transform="translate(211.859214 321.140875)scale(0.2 -0.2)">
       <use xlink:href="#DejaVuSans-52"/>
      </g>
     </g>
    </g>
    <g id="xtick_4">
     <g id="line2d_11">
      <path clip-path="url(#pfcb5570458)" d="M 298.532571 298.944 
L 298.532571 27.648 
" style="fill:none;stroke:#b0b0b0;stroke-linecap:square;stroke-width:0.8;"/>
     </g>
     <g id="line2d_12">
      <g>
       <use style="stroke:#000000;stroke-width:0.8;" x="298.532571" xlink:href="#m9513c698ce" y="298.944"/>
      </g>
     </g>
     <g id="text_4">
      <!-- 6 -->
      <defs>
       <path d="M 33.015625 40.375 
Q 26.375 40.375 22.484375 35.828125 
Q 18.609375 31.296875 18.609375 23.390625 
Q 18.609375 15.53125 22.484375 10.953125 
Q 26.375 6.390625 33.015625 6.390625 
Q 39.65625 6.390625 43.53125 10.953125 
Q 47.40625 15.53125 47.40625 23.390625 
Q 47.40625 31.296875 43.53125 35.828125 
Q 39.65625 40.375 33.015625 40.375 
z
M 52.59375 71.296875 
L 52.59375 62.3125 
Q 48.875 64.0625 45.09375 64.984375 
Q 41.3125 65.921875 37.59375 65.921875 
Q 27.828125 65.921875 22.671875 59.328125 
Q 17.53125 52.734375 16.796875 39.40625 
Q 19.671875 43.65625 24.015625 45.921875 
Q 28.375 48.1875 33.59375 48.1875 
Q 44.578125 48.1875 50.953125 41.515625 
Q 57.328125 34.859375 57.328125 23.390625 
Q 57.328125 12.15625 50.6875 5.359375 
Q 44.046875 -1.421875 33.015625 -1.421875 
Q 20.359375 -1.421875 13.671875 8.265625 
Q 6.984375 17.96875 6.984375 36.375 
Q 6.984375 53.65625 15.1875 63.9375 
Q 23.390625 74.21875 37.203125 74.21875 
Q 40.921875 74.21875 44.703125 73.484375 
Q 48.484375 72.75 52.59375 71.296875 
z
" id="DejaVuSans-54"/>
      </defs>
      <g transform="translate(292.170071 321.140875)scale(0.2 -0.2)">
       <use xlink:href="#DejaVuSans-54"/>
      </g>
     </g>
    </g>
    <g id="xtick_5">
     <g id="line2d_13">
      <path clip-path="url(#pfcb5570458)" d="M 97.755429 298.944 
L 97.755429 27.648 
" style="fill:none;stroke:#b0b0b0;stroke-linecap:square;stroke-width:0.8;"/>
     </g>
     <g id="line2d_14">
      <defs>
       <path d="M 0 0 
L 0 2 
" id="m30471c1e7d" style="stroke:#000000;stroke-width:0.6;"/>
      </defs>
      <g>
       <use style="stroke:#000000;stroke-width:0.6;" x="97.755429" xlink:href="#m30471c1e7d" y="298.944"/>
      </g>
     </g>
    </g>
    <g id="xtick_6">
     <g id="line2d_15">
      <path clip-path="url(#pfcb5570458)" d="M 178.066286 298.944 
L 178.066286 27.648 
" style="fill:none;stroke:#b0b0b0;stroke-linecap:square;stroke-width:0.8;"/>
     </g>
     <g id="line2d_16">
      <g>
       <use style="stroke:#000000;stroke-width:0.6;" x="178.066286" xlink:href="#m30471c1e7d" y="298.944"/>
      </g>
     </g>
    </g>
    <g id="xtick_7">
     <g id="line2d_17">
      <path clip-path="url(#pfcb5570458)" d="M 258.377143 298.944 
L 258.377143 27.648 
" style="fill:none;stroke:#b0b0b0;stroke-linecap:square;stroke-width:0.8;"/>
     </g>
     <g id="line2d_18">
      <g>
       <use style="stroke:#000000;stroke-width:0.6;" x="258.377143" xlink:href="#m30471c1e7d" y="298.944"/>
      </g>
     </g>
    </g>
    <g id="xtick_8">
     <g id="line2d_19">
      <path clip-path="url(#pfcb5570458)" d="M 338.688 298.944 
L 338.688 27.648 
" style="fill:none;stroke:#b0b0b0;stroke-linecap:square;stroke-width:0.8;"/>
     </g>
     <g id="line2d_20">
      <g>
       <use style="stroke:#000000;stroke-width:0.6;" x="338.688" xlink:href="#m30471c1e7d" y="298.944"/>
      </g>
     </g>
    </g>
    <g id="text_5">
     <!-- log10(# f-evals / dimension) -->
     <defs>
      <path d="M 9.421875 75.984375 
L 18.40625 75.984375 
L 18.40625 0 
L 9.421875 0 
z
" id="DejaVuSans-108"/>
      <path d="M 30.609375 48.390625 
Q 23.390625 48.390625 19.1875 42.75 
Q 14.984375 37.109375 14.984375 27.296875 
Q 14.984375 17.484375 19.15625 11.84375 
Q 23.34375 6.203125 30.609375 6.203125 
Q 37.796875 6.203125 41.984375 11.859375 
Q 46.1875 17.53125 46.1875 27.296875 
Q 46.1875 37.015625 41.984375 42.703125 
Q 37.796875 48.390625 30.609375 48.390625 
z
M 30.609375 56 
Q 42.328125 56 49.015625 48.375 
Q 55.71875 40.765625 55.71875 27.296875 
Q 55.71875 13.875 49.015625 6.21875 
Q 42.328125 -1.421875 30.609375 -1.421875 
Q 18.84375 -1.421875 12.171875 6.21875 
Q 5.515625 13.875 5.515625 27.296875 
Q 5.515625 40.765625 12.171875 48.375 
Q 18.84375 56 30.609375 56 
z
" id="DejaVuSans-111"/>
      <path d="M 45.40625 27.984375 
Q 45.40625 37.75 41.375 43.109375 
Q 37.359375 48.484375 30.078125 48.484375 
Q 22.859375 48.484375 18.828125 43.109375 
Q 14.796875 37.75 14.796875 27.984375 
Q 14.796875 18.265625 18.828125 12.890625 
Q 22.859375 7.515625 30.078125 7.515625 
Q 37.359375 7.515625 41.375 12.890625 
Q 45.40625 18.265625 45.40625 27.984375 
z
M 54.390625 6.78125 
Q 54.390625 -7.171875 48.1875 -13.984375 
Q 42 -20.796875 29.203125 -20.796875 
Q 24.46875 -20.796875 20.265625 -20.09375 
Q 16.0625 -19.390625 12.109375 -17.921875 
L 12.109375 -9.1875 
Q 16.0625 -11.328125 19.921875 -12.34375 
Q 23.78125 -13.375 27.78125 -13.375 
Q 36.625 -13.375 41.015625 -8.765625 
Q 45.40625 -4.15625 45.40625 5.171875 
L 45.40625 9.625 
Q 42.625 4.78125 38.28125 2.390625 
Q 33.9375 0 27.875 0 
Q 17.828125 0 11.671875 7.65625 
Q 5.515625 15.328125 5.515625 27.984375 
Q 5.515625 40.671875 11.671875 48.328125 
Q 17.828125 56 27.875 56 
Q 33.9375 56 38.28125 53.609375 
Q 42.625 51.21875 45.40625 46.390625 
L 45.40625 54.6875 
L 54.390625 54.6875 
z
" id="DejaVuSans-103"/>
      <path d="M 12.40625 8.296875 
L 28.515625 8.296875 
L 28.515625 63.921875 
L 10.984375 60.40625 
L 10.984375 69.390625 
L 28.421875 72.90625 
L 38.28125 72.90625 
L 38.28125 8.296875 
L 54.390625 8.296875 
L 54.390625 0 
L 12.40625 0 
z
" id="DejaVuSans-49"/>
      <path d="M 31 75.875 
Q 24.46875 64.65625 21.28125 53.65625 
Q 18.109375 42.671875 18.109375 31.390625 
Q 18.109375 20.125 21.3125 9.0625 
Q 24.515625 -2 31 -13.1875 
L 23.1875 -13.1875 
Q 15.875 -1.703125 12.234375 9.375 
Q 8.59375 20.453125 8.59375 31.390625 
Q 8.59375 42.28125 12.203125 53.3125 
Q 15.828125 64.359375 23.1875 75.875 
z
" id="DejaVuSans-40"/>
      <path d="M 51.125 44 
L 36.921875 44 
L 32.8125 27.6875 
L 47.125 27.6875 
z
M 43.796875 71.78125 
L 38.71875 51.515625 
L 52.984375 51.515625 
L 58.109375 71.78125 
L 65.921875 71.78125 
L 60.890625 51.515625 
L 76.125 51.515625 
L 76.125 44 
L 58.984375 44 
L 54.984375 27.6875 
L 70.515625 27.6875 
L 70.515625 20.21875 
L 53.078125 20.21875 
L 48 0 
L 40.1875 0 
L 45.21875 20.21875 
L 30.90625 20.21875 
L 25.875 0 
L 18.015625 0 
L 23.09375 20.21875 
L 7.71875 20.21875 
L 7.71875 27.6875 
L 24.90625 27.6875 
L 29 44 
L 13.28125 44 
L 13.28125 51.515625 
L 30.90625 51.515625 
L 35.890625 71.78125 
z
" id="DejaVuSans-35"/>
      <path id="DejaVuSans-32"/>
      <path d="M 37.109375 75.984375 
L 37.109375 68.5 
L 28.515625 68.5 
Q 23.6875 68.5 21.796875 66.546875 
Q 19.921875 64.59375 19.921875 59.515625 
L 19.921875 54.6875 
L 34.71875 54.6875 
L 34.71875 47.703125 
L 19.921875 47.703125 
L 19.921875 0 
L 10.890625 0 
L 10.890625 47.703125 
L 2.296875 47.703125 
L 2.296875 54.6875 
L 10.890625 54.6875 
L 10.890625 58.5 
Q 10.890625 67.625 15.140625 71.796875 
Q 19.390625 75.984375 28.609375 75.984375 
z
" id="DejaVuSans-102"/>
      <path d="M 4.890625 31.390625 
L 31.203125 31.390625 
L 31.203125 23.390625 
L 4.890625 23.390625 
z
" id="DejaVuSans-45"/>
      <path d="M 56.203125 29.59375 
L 56.203125 25.203125 
L 14.890625 25.203125 
Q 15.484375 15.921875 20.484375 11.0625 
Q 25.484375 6.203125 34.421875 6.203125 
Q 39.59375 6.203125 44.453125 7.46875 
Q 49.3125 8.734375 54.109375 11.28125 
L 54.109375 2.78125 
Q 49.265625 0.734375 44.1875 -0.34375 
Q 39.109375 -1.421875 33.890625 -1.421875 
Q 20.796875 -1.421875 13.15625 6.1875 
Q 5.515625 13.8125 5.515625 26.8125 
Q 5.515625 40.234375 12.765625 48.109375 
Q 20.015625 56 32.328125 56 
Q 43.359375 56 49.78125 48.890625 
Q 56.203125 41.796875 56.203125 29.59375 
z
M 47.21875 32.234375 
Q 47.125 39.59375 43.09375 43.984375 
Q 39.0625 48.390625 32.421875 48.390625 
Q 24.90625 48.390625 20.390625 44.140625 
Q 15.875 39.890625 15.1875 32.171875 
z
" id="DejaVuSans-101"/>
      <path d="M 2.984375 54.6875 
L 12.5 54.6875 
L 29.59375 8.796875 
L 46.6875 54.6875 
L 56.203125 54.6875 
L 35.6875 0 
L 23.484375 0 
z
" id="DejaVuSans-118"/>
      <path d="M 34.28125 27.484375 
Q 23.390625 27.484375 19.1875 25 
Q 14.984375 22.515625 14.984375 16.5 
Q 14.984375 11.71875 18.140625 8.90625 
Q 21.296875 6.109375 26.703125 6.109375 
Q 34.1875 6.109375 38.703125 11.40625 
Q 43.21875 16.703125 43.21875 25.484375 
L 43.21875 27.484375 
z
M 52.203125 31.203125 
L 52.203125 0 
L 43.21875 0 
L 43.21875 8.296875 
Q 40.140625 3.328125 35.546875 0.953125 
Q 30.953125 -1.421875 24.3125 -1.421875 
Q 15.921875 -1.421875 10.953125 3.296875 
Q 6 8.015625 6 15.921875 
Q 6 25.140625 12.171875 29.828125 
Q 18.359375 34.515625 30.609375 34.515625 
L 43.21875 34.515625 
L 43.21875 35.40625 
Q 43.21875 41.609375 39.140625 45 
Q 35.0625 48.390625 27.6875 48.390625 
Q 23 48.390625 18.546875 47.265625 
Q 14.109375 46.140625 10.015625 43.890625 
L 10.015625 52.203125 
Q 14.9375 54.109375 19.578125 55.046875 
Q 24.21875 56 28.609375 56 
Q 40.484375 56 46.34375 49.84375 
Q 52.203125 43.703125 52.203125 31.203125 
z
" id="DejaVuSans-97"/>
      <path d="M 44.28125 53.078125 
L 44.28125 44.578125 
Q 40.484375 46.53125 36.375 47.5 
Q 32.28125 48.484375 27.875 48.484375 
Q 21.1875 48.484375 17.84375 46.4375 
Q 14.5 44.390625 14.5 40.28125 
Q 14.5 37.15625 16.890625 35.375 
Q 19.28125 33.59375 26.515625 31.984375 
L 29.59375 31.296875 
Q 39.15625 29.25 43.1875 25.515625 
Q 47.21875 21.78125 47.21875 15.09375 
Q 47.21875 7.46875 41.1875 3.015625 
Q 35.15625 -1.421875 24.609375 -1.421875 
Q 20.21875 -1.421875 15.453125 -0.5625 
Q 10.6875 0.296875 5.421875 2 
L 5.421875 11.28125 
Q 10.40625 8.6875 15.234375 7.390625 
Q 20.0625 6.109375 24.8125 6.109375 
Q 31.15625 6.109375 34.5625 8.28125 
Q 37.984375 10.453125 37.984375 14.40625 
Q 37.984375 18.0625 35.515625 20.015625 
Q 33.0625 21.96875 24.703125 23.78125 
L 21.578125 24.515625 
Q 13.234375 26.265625 9.515625 29.90625 
Q 5.8125 33.546875 5.8125 39.890625 
Q 5.8125 47.609375 11.28125 51.796875 
Q 16.75 56 26.8125 56 
Q 31.78125 56 36.171875 55.265625 
Q 40.578125 54.546875 44.28125 53.078125 
z
" id="DejaVuSans-115"/>
      <path d="M 25.390625 72.90625 
L 33.6875 72.90625 
L 8.296875 -9.28125 
L 0 -9.28125 
z
" id="DejaVuSans-47"/>
      <path d="M 45.40625 46.390625 
L 45.40625 75.984375 
L 54.390625 75.984375 
L 54.390625 0 
L 45.40625 0 
L 45.40625 8.203125 
Q 42.578125 3.328125 38.25 0.953125 
Q 33.9375 -1.421875 27.875 -1.421875 
Q 17.96875 -1.421875 11.734375 6.484375 
Q 5.515625 14.40625 5.515625 27.296875 
Q 5.515625 40.1875 11.734375 48.09375 
Q 17.96875 56 27.875 56 
Q 33.9375 56 38.25 53.625 
Q 42.578125 51.265625 45.40625 46.390625 
z
M 14.796875 27.296875 
Q 14.796875 17.390625 18.875 11.75 
Q 22.953125 6.109375 30.078125 6.109375 
Q 37.203125 6.109375 41.296875 11.75 
Q 45.40625 17.390625 45.40625 27.296875 
Q 45.40625 37.203125 41.296875 42.84375 
Q 37.203125 48.484375 30.078125 48.484375 
Q 22.953125 48.484375 18.875 42.84375 
Q 14.796875 37.203125 14.796875 27.296875 
z
" id="DejaVuSans-100"/>
      <path d="M 9.421875 54.6875 
L 18.40625 54.6875 
L 18.40625 0 
L 9.421875 0 
z
M 9.421875 75.984375 
L 18.40625 75.984375 
L 18.40625 64.59375 
L 9.421875 64.59375 
z
" id="DejaVuSans-105"/>
      <path d="M 52 44.1875 
Q 55.375 50.25 60.0625 53.125 
Q 64.75 56 71.09375 56 
Q 79.640625 56 84.28125 50.015625 
Q 88.921875 44.046875 88.921875 33.015625 
L 88.921875 0 
L 79.890625 0 
L 79.890625 32.71875 
Q 79.890625 40.578125 77.09375 44.375 
Q 74.3125 48.1875 68.609375 48.1875 
Q 61.625 48.1875 57.5625 43.546875 
Q 53.515625 38.921875 53.515625 30.90625 
L 53.515625 0 
L 44.484375 0 
L 44.484375 32.71875 
Q 44.484375 40.625 41.703125 44.40625 
Q 38.921875 48.1875 33.109375 48.1875 
Q 26.21875 48.1875 22.15625 43.53125 
Q 18.109375 38.875 18.109375 30.90625 
L 18.109375 0 
L 9.078125 0 
L 9.078125 54.6875 
L 18.109375 54.6875 
L 18.109375 46.1875 
Q 21.1875 51.21875 25.484375 53.609375 
Q 29.78125 56 35.6875 56 
Q 41.65625 56 45.828125 52.96875 
Q 50 49.953125 52 44.1875 
z
" id="DejaVuSans-109"/>
      <path d="M 54.890625 33.015625 
L 54.890625 0 
L 45.90625 0 
L 45.90625 32.71875 
Q 45.90625 40.484375 42.875 44.328125 
Q 39.84375 48.1875 33.796875 48.1875 
Q 26.515625 48.1875 22.3125 43.546875 
Q 18.109375 38.921875 18.109375 30.90625 
L 18.109375 0 
L 9.078125 0 
L 9.078125 54.6875 
L 18.109375 54.6875 
L 18.109375 46.1875 
Q 21.34375 51.125 25.703125 53.5625 
Q 30.078125 56 35.796875 56 
Q 45.21875 56 50.046875 50.171875 
Q 54.890625 44.34375 54.890625 33.015625 
z
" id="DejaVuSans-110"/>
      <path d="M 8.015625 75.875 
L 15.828125 75.875 
Q 23.140625 64.359375 26.78125 53.3125 
Q 30.421875 42.28125 30.421875 31.390625 
Q 30.421875 20.453125 26.78125 9.375 
Q 23.140625 -1.703125 15.828125 -13.1875 
L 8.015625 -13.1875 
Q 14.5 -2 17.703125 9.0625 
Q 20.90625 20.125 20.90625 31.390625 
Q 20.90625 42.671875 17.703125 53.65625 
Q 14.5 64.65625 8.015625 75.875 
z
" id="DejaVuSans-41"/>
     </defs>
     <g transform="translate(77.764078 342.217594)scale(0.17 -0.17)">
      <use xlink:href="#DejaVuSans-108"/>
      <use x="27.783203" xlink:href="#DejaVuSans-111"/>
      <use x="88.964844" xlink:href="#DejaVuSans-103"/>
      <use x="152.441406" xlink:href="#DejaVuSans-49"/>
      <use x="216.064453" xlink:href="#DejaVuSans-48"/>
      <use x="279.6875" xlink:href="#DejaVuSans-40"/>
      <use x="318.701172" xlink:href="#DejaVuSans-35"/>
      <use x="402.490234" xlink:href="#DejaVuSans-32"/>
      <use x="434.277344" xlink:href="#DejaVuSans-102"/>
      <use x="463.982422" xlink:href="#DejaVuSans-45"/>
      <use x="500.066406" xlink:href="#DejaVuSans-101"/>
      <use x="561.589844" xlink:href="#DejaVuSans-118"/>
      <use x="620.769531" xlink:href="#DejaVuSans-97"/>
      <use x="682.048828" xlink:href="#DejaVuSans-108"/>
      <use x="709.832031" xlink:href="#DejaVuSans-115"/>
      <use x="761.931641" xlink:href="#DejaVuSans-32"/>
      <use x="793.71875" xlink:href="#DejaVuSans-47"/>
      <use x="827.410156" xlink:href="#DejaVuSans-32"/>
      <use x="859.197266" xlink:href="#DejaVuSans-100"/>
      <use x="922.673828" xlink:href="#DejaVuSans-105"/>
      <use x="950.457031" xlink:href="#DejaVuSans-109"/>
      <use x="1047.869141" xlink:href="#DejaVuSans-101"/>
      <use x="1109.392578" xlink:href="#DejaVuSans-110"/>
      <use x="1172.771484" xlink:href="#DejaVuSans-115"/>
      <use x="1224.871094" xlink:href="#DejaVuSans-105"/>
      <use x="1252.654297" xlink:href="#DejaVuSans-111"/>
      <use x="1313.835938" xlink:href="#DejaVuSans-110"/>
      <use x="1377.214844" xlink:href="#DejaVuSans-41"/>
     </g>
    </g>
   </g>
   <g id="matplotlib.axis_2">
    <g id="ytick_1">
     <g id="line2d_21">
      <path clip-path="url(#pfcb5570458)" d="M 57.6 298.944 
L 338.688 298.944 
" style="fill:none;stroke:#b0b0b0;stroke-linecap:square;stroke-width:0.8;"/>
     </g>
     <g id="line2d_22">
      <defs>
       <path d="M 0 0 
L -3.5 0 
" id="m72adbef1cb" style="stroke:#000000;stroke-width:0.8;"/>
      </defs>
      <g>
       <use style="stroke:#000000;stroke-width:0.8;" x="57.6" xlink:href="#m72adbef1cb" y="298.944"/>
      </g>
     </g>
     <g id="text_6">
      <!-- 0.0 -->
      <defs>
       <path d="M 10.6875 12.40625 
L 21 12.40625 
L 21 0 
L 10.6875 0 
z
" id="DejaVuSans-46"/>
      </defs>
      <g transform="translate(25.155 305.02275)scale(0.16 -0.16)">
       <use xlink:href="#DejaVuSans-48"/>
       <use x="63.623047" xlink:href="#DejaVuSans-46"/>
       <use x="95.410156" xlink:href="#DejaVuSans-48"/>
      </g>
     </g>
    </g>
    <g id="ytick_2">
     <g id="line2d_23">
      <path clip-path="url(#pfcb5570458)" d="M 57.6 245.22202 
L 338.688 245.22202 
" style="fill:none;stroke:#b0b0b0;stroke-linecap:square;stroke-width:0.8;"/>
     </g>
     <g id="line2d_24">
      <g>
       <use style="stroke:#000000;stroke-width:0.8;" x="57.6" xlink:href="#m72adbef1cb" y="245.22202"/>
      </g>
     </g>
     <g id="text_7">
      <!-- 0.2 -->
      <g transform="translate(25.155 251.30077)scale(0.16 -0.16)">
       <use xlink:href="#DejaVuSans-48"/>
       <use x="63.623047" xlink:href="#DejaVuSans-46"/>
       <use x="95.410156" xlink:href="#DejaVuSans-50"/>
      </g>
     </g>
    </g>
    <g id="ytick_3">
     <g id="line2d_25">
      <path clip-path="url(#pfcb5570458)" d="M 57.6 191.50004 
L 338.688 191.50004 
" style="fill:none;stroke:#b0b0b0;stroke-linecap:square;stroke-width:0.8;"/>
     </g>
     <g id="line2d_26">
      <g>
       <use style="stroke:#000000;stroke-width:0.8;" x="57.6" xlink:href="#m72adbef1cb" y="191.50004"/>
      </g>
     </g>
     <g id="text_8">
      <!-- 0.4 -->
      <g transform="translate(25.155 197.57879)scale(0.16 -0.16)">
       <use xlink:href="#DejaVuSans-48"/>
       <use x="63.623047" xlink:href="#DejaVuSans-46"/>
       <use x="95.410156" xlink:href="#DejaVuSans-52"/>
      </g>
     </g>
    </g>
    <g id="ytick_4">
     <g id="line2d_27">
      <path clip-path="url(#pfcb5570458)" d="M 57.6 137.778059 
L 338.688 137.778059 
" style="fill:none;stroke:#b0b0b0;stroke-linecap:square;stroke-width:0.8;"/>
     </g>
     <g id="line2d_28">
      <g>
       <use style="stroke:#000000;stroke-width:0.8;" x="57.6" xlink:href="#m72adbef1cb" y="137.778059"/>
      </g>
     </g>
     <g id="text_9">
      <!-- 0.6 -->
      <g transform="translate(25.155 143.856809)scale(0.16 -0.16)">
       <use xlink:href="#DejaVuSans-48"/>
       <use x="63.623047" xlink:href="#DejaVuSans-46"/>
       <use x="95.410156" xlink:href="#DejaVuSans-54"/>
      </g>
     </g>
    </g>
    <g id="ytick_5">
     <g id="line2d_29">
      <path clip-path="url(#pfcb5570458)" d="M 57.6 84.056079 
L 338.688 84.056079 
" style="fill:none;stroke:#b0b0b0;stroke-linecap:square;stroke-width:0.8;"/>
     </g>
     <g id="line2d_30">
      <g>
       <use style="stroke:#000000;stroke-width:0.8;" x="57.6" xlink:href="#m72adbef1cb" y="84.056079"/>
      </g>
     </g>
     <g id="text_10">
      <!-- 0.8 -->
      <defs>
       <path d="M 31.78125 34.625 
Q 24.75 34.625 20.71875 30.859375 
Q 16.703125 27.09375 16.703125 20.515625 
Q 16.703125 13.921875 20.71875 10.15625 
Q 24.75 6.390625 31.78125 6.390625 
Q 38.8125 6.390625 42.859375 10.171875 
Q 46.921875 13.96875 46.921875 20.515625 
Q 46.921875 27.09375 42.890625 30.859375 
Q 38.875 34.625 31.78125 34.625 
z
M 21.921875 38.8125 
Q 15.578125 40.375 12.03125 44.71875 
Q 8.5 49.078125 8.5 55.328125 
Q 8.5 64.0625 14.71875 69.140625 
Q 20.953125 74.21875 31.78125 74.21875 
Q 42.671875 74.21875 48.875 69.140625 
Q 55.078125 64.0625 55.078125 55.328125 
Q 55.078125 49.078125 51.53125 44.71875 
Q 48 40.375 41.703125 38.8125 
Q 48.828125 37.15625 52.796875 32.3125 
Q 56.78125 27.484375 56.78125 20.515625 
Q 56.78125 9.90625 50.3125 4.234375 
Q 43.84375 -1.421875 31.78125 -1.421875 
Q 19.734375 -1.421875 13.25 4.234375 
Q 6.78125 9.90625 6.78125 20.515625 
Q 6.78125 27.484375 10.78125 32.3125 
Q 14.796875 37.15625 21.921875 38.8125 
z
M 18.3125 54.390625 
Q 18.3125 48.734375 21.84375 45.5625 
Q 25.390625 42.390625 31.78125 42.390625 
Q 38.140625 42.390625 41.71875 45.5625 
Q 45.3125 48.734375 45.3125 54.390625 
Q 45.3125 60.0625 41.71875 63.234375 
Q 38.140625 66.40625 31.78125 66.40625 
Q 25.390625 66.40625 21.84375 63.234375 
Q 18.3125 60.0625 18.3125 54.390625 
z
" id="DejaVuSans-56"/>
      </defs>
      <g transform="translate(25.155 90.134829)scale(0.16 -0.16)">
       <use xlink:href="#DejaVuSans-48"/>
       <use x="63.623047" xlink:href="#DejaVuSans-46"/>
       <use x="95.410156" xlink:href="#DejaVuSans-56"/>
      </g>
     </g>
    </g>
    <g id="ytick_6">
     <g id="line2d_31">
      <path clip-path="url(#pfcb5570458)" d="M 57.6 30.334099 
L 338.688 30.334099 
" style="fill:none;stroke:#b0b0b0;stroke-linecap:square;stroke-width:0.8;"/>
     </g>
     <g id="line2d_32">
      <g>
       <use style="stroke:#000000;stroke-width:0.8;" x="57.6" xlink:href="#m72adbef1cb" y="30.334099"/>
      </g>
     </g>
     <g id="text_11">
      <!-- 1.0 -->
      <g transform="translate(25.155 36.412849)scale(0.16 -0.16)">
       <use xlink:href="#DejaVuSans-49"/>
       <use x="63.623047" xlink:href="#DejaVuSans-46"/>
       <use x="95.410156" xlink:href="#DejaVuSans-48"/>
      </g>
     </g>
    </g>
    <g id="text_12">
     <!-- Fraction of function,target pairs -->
     <defs>
      <path d="M 9.8125 72.90625 
L 51.703125 72.90625 
L 51.703125 64.59375 
L 19.671875 64.59375 
L 19.671875 43.109375 
L 48.578125 43.109375 
L 48.578125 34.8125 
L 19.671875 34.8125 
L 19.671875 0 
L 9.8125 0 
z
" id="DejaVuSans-70"/>
      <path d="M 41.109375 46.296875 
Q 39.59375 47.171875 37.8125 47.578125 
Q 36.03125 48 33.890625 48 
Q 26.265625 48 22.1875 43.046875 
Q 18.109375 38.09375 18.109375 28.8125 
L 18.109375 0 
L 9.078125 0 
L 9.078125 54.6875 
L 18.109375 54.6875 
L 18.109375 46.1875 
Q 20.953125 51.171875 25.484375 53.578125 
Q 30.03125 56 36.53125 56 
Q 37.453125 56 38.578125 55.875 
Q 39.703125 55.765625 41.0625 55.515625 
z
" id="DejaVuSans-114"/>
      <path d="M 48.78125 52.59375 
L 48.78125 44.1875 
Q 44.96875 46.296875 41.140625 47.34375 
Q 37.3125 48.390625 33.40625 48.390625 
Q 24.65625 48.390625 19.8125 42.84375 
Q 14.984375 37.3125 14.984375 27.296875 
Q 14.984375 17.28125 19.8125 11.734375 
Q 24.65625 6.203125 33.40625 6.203125 
Q 37.3125 6.203125 41.140625 7.25 
Q 44.96875 8.296875 48.78125 10.40625 
L 48.78125 2.09375 
Q 45.015625 0.34375 40.984375 -0.53125 
Q 36.96875 -1.421875 32.421875 -1.421875 
Q 20.0625 -1.421875 12.78125 6.34375 
Q 5.515625 14.109375 5.515625 27.296875 
Q 5.515625 40.671875 12.859375 48.328125 
Q 20.21875 56 33.015625 56 
Q 37.15625 56 41.109375 55.140625 
Q 45.0625 54.296875 48.78125 52.59375 
z
" id="DejaVuSans-99"/>
      <path d="M 18.3125 70.21875 
L 18.3125 54.6875 
L 36.8125 54.6875 
L 36.8125 47.703125 
L 18.3125 47.703125 
L 18.3125 18.015625 
Q 18.3125 11.328125 20.140625 9.421875 
Q 21.96875 7.515625 27.59375 7.515625 
L 36.8125 7.515625 
L 36.8125 0 
L 27.59375 0 
Q 17.1875 0 13.234375 3.875 
Q 9.28125 7.765625 9.28125 18.015625 
L 9.28125 47.703125 
L 2.6875 47.703125 
L 2.6875 54.6875 
L 9.28125 54.6875 
L 9.28125 70.21875 
z
" id="DejaVuSans-116"/>
      <path d="M 8.5 21.578125 
L 8.5 54.6875 
L 17.484375 54.6875 
L 17.484375 21.921875 
Q 17.484375 14.15625 20.5 10.265625 
Q 23.53125 6.390625 29.59375 6.390625 
Q 36.859375 6.390625 41.078125 11.03125 
Q 45.3125 15.671875 45.3125 23.6875 
L 45.3125 54.6875 
L 54.296875 54.6875 
L 54.296875 0 
L 45.3125 0 
L 45.3125 8.40625 
Q 42.046875 3.421875 37.71875 1 
Q 33.40625 -1.421875 27.6875 -1.421875 
Q 18.265625 -1.421875 13.375 4.4375 
Q 8.5 10.296875 8.5 21.578125 
z
M 31.109375 56 
z
" id="DejaVuSans-117"/>
      <path d="M 11.71875 12.40625 
L 22.015625 12.40625 
L 22.015625 4 
L 14.015625 -11.625 
L 7.71875 -11.625 
L 11.71875 4 
z
" id="DejaVuSans-44"/>
      <path d="M 18.109375 8.203125 
L 18.109375 -20.796875 
L 9.078125 -20.796875 
L 9.078125 54.6875 
L 18.109375 54.6875 
L 18.109375 46.390625 
Q 20.953125 51.265625 25.265625 53.625 
Q 29.59375 56 35.59375 56 
Q 45.5625 56 51.78125 48.09375 
Q 58.015625 40.1875 58.015625 27.296875 
Q 58.015625 14.40625 51.78125 6.484375 
Q 45.5625 -1.421875 35.59375 -1.421875 
Q 29.59375 -1.421875 25.265625 0.953125 
Q 20.953125 3.328125 18.109375 8.203125 
z
M 48.6875 27.296875 
Q 48.6875 37.203125 44.609375 42.84375 
Q 40.53125 48.484375 33.40625 48.484375 
Q 26.265625 48.484375 22.1875 42.84375 
Q 18.109375 37.203125 18.109375 27.296875 
Q 18.109375 17.390625 22.1875 11.75 
Q 26.265625 6.109375 33.40625 6.109375 
Q 40.53125 6.109375 44.609375 11.75 
Q 48.6875 17.390625 48.6875 27.296875 
z
" id="DejaVuSans-112"/>
     </defs>
     <g transform="translate(17.619531 297.681)rotate(-90)scale(0.17 -0.17)">
      <use xlink:href="#DejaVuSans-70"/>
      <use x="50.269531" xlink:href="#DejaVuSans-114"/>
      <use x="91.382812" xlink:href="#DejaVuSans-97"/>
      <use x="152.662109" xlink:href="#DejaVuSans-99"/>
      <use x="207.642578" xlink:href="#DejaVuSans-116"/>
      <use x="246.851562" xlink:href="#DejaVuSans-105"/>
      <use x="274.634766" xlink:href="#DejaVuSans-111"/>
      <use x="335.816406" xlink:href="#DejaVuSans-110"/>
      <use x="399.195312" xlink:href="#DejaVuSans-32"/>
      <use x="430.982422" xlink:href="#DejaVuSans-111"/>
      <use x="492.164062" xlink:href="#DejaVuSans-102"/>
      <use x="527.369141" xlink:href="#DejaVuSans-32"/>
      <use x="559.15625" xlink:href="#DejaVuSans-102"/>
      <use x="594.361328" xlink:href="#DejaVuSans-117"/>
      <use x="657.740234" xlink:href="#DejaVuSans-110"/>
      <use x="721.119141" xlink:href="#DejaVuSans-99"/>
      <use x="776.099609" xlink:href="#DejaVuSans-116"/>
      <use x="815.308594" xlink:href="#DejaVuSans-105"/>
      <use x="843.091797" xlink:href="#DejaVuSans-111"/>
      <use x="904.273438" xlink:href="#DejaVuSans-110"/>
      <use x="967.652344" xlink:href="#DejaVuSans-44"/>
      <use x="999.439453" xlink:href="#DejaVuSans-116"/>
      <use x="1038.648438" xlink:href="#DejaVuSans-97"/>
      <use x="1099.927734" xlink:href="#DejaVuSans-114"/>
      <use x="1139.291016" xlink:href="#DejaVuSans-103"/>
      <use x="1202.767578" xlink:href="#DejaVuSans-101"/>
      <use x="1264.291016" xlink:href="#DejaVuSans-116"/>
      <use x="1303.5" xlink:href="#DejaVuSans-32"/>
      <use x="1335.287109" xlink:href="#DejaVuSans-112"/>
      <use x="1398.763672" xlink:href="#DejaVuSans-97"/>
      <use x="1460.042969" xlink:href="#DejaVuSans-105"/>
      <use x="1487.826172" xlink:href="#DejaVuSans-114"/>
      <use x="1528.939453" xlink:href="#DejaVuSans-115"/>
     </g>
    </g>
   </g>
   <g id="line2d_33">
    <defs>
     <path d="M 0 1.5 
C 0.397805 1.5 0.77937 1.341951 1.06066 1.06066 
C 1.341951 0.77937 1.5 0.397805 1.5 0 
C 1.5 -0.397805 1.341951 -0.77937 1.06066 -1.06066 
C 0.77937 -1.341951 0.397805 -1.5 0 -1.5 
C -0.397805 -1.5 -0.77937 -1.341951 -1.06066 -1.06066 
C -1.341951 -0.77937 -1.5 -0.397805 -1.5 0 
C -1.5 0.397805 -1.341951 0.77937 -1.06066 1.06066 
C -0.77937 1.341951 -0.397805 1.5 0 1.5 
z
" id="m7d9f0e1503" style="stroke:#f5deb3;"/>
    </defs>
    <g>
     <use style="fill:#f5deb3;stroke:#f5deb3;" x="74.704957" xlink:href="#m7d9f0e1503" y="30.334099"/>
     <use style="fill:#f5deb3;stroke:#f5deb3;" x="74.704957" xlink:href="#m7d9f0e1503" y="30.334099"/>
    </g>
   </g>
   <g id="line2d_34">
    <defs>
     <path d="M 0 1.5 
C 0.397805 1.5 0.77937 1.341951 1.06066 1.06066 
C 1.341951 0.77937 1.5 0.397805 1.5 0 
C 1.5 -0.397805 1.341951 -0.77937 1.06066 -1.06066 
C 0.77937 -1.341951 0.397805 -1.5 0 -1.5 
C -0.397805 -1.5 -0.77937 -1.341951 -1.06066 -1.06066 
C -1.341951 -0.77937 -1.5 -0.397805 -1.5 0 
C -1.5 0.397805 -1.341951 0.77937 -1.06066 1.06066 
C -0.77937 1.341951 -0.397805 1.5 0 1.5 
z
" id="mdff7f4bf83" style="stroke:#ff00ff;"/>
    </defs>
    <g>
     <use style="fill:#ff00ff;stroke:#ff00ff;" x="171.645677" xlink:href="#mdff7f4bf83" y="30.334099"/>
     <use style="fill:#ff00ff;stroke:#ff00ff;" x="171.645677" xlink:href="#mdff7f4bf83" y="30.334099"/>
    </g>
   </g>
   <g id="line2d_35">
    <path d="M 38.440992 298.944 
L 38.440992 289.463651 
L 50.52898 289.463651 
L 50.52898 287.356906 
L 57.6 287.356906 
L 57.6 283.670104 
L 62.616969 283.670104 
L 62.616969 282.616732 
L 66.508432 282.616732 
L 66.508432 281.036673 
L 69.687988 281.036673 
L 69.687988 280.509987 
L 76.759008 280.509987 
L 76.759008 275.769812 
L 78.59642 275.769812 
L 78.59642 271.556324 
L 80.258561 271.556324 
L 80.258561 270.502952 
L 84.464254 270.502952 
L 84.464254 265.236091 
L 86.792945 265.236091 
L 86.792945 262.075974 
L 91.535274 262.075974 
L 91.535274 259.96923 
L 95.259853 259.96923 
L 95.259853 257.3358 
L 95.918017 257.3358 
L 95.918017 255.755741 
L 96.552242 255.755741 
L 96.552242 255.229055 
L 100.934985 255.229055 
L 100.934985 254.702369 
L 102.330873 254.702369 
L 102.330873 252.068939 
L 108.948899 252.068939 
L 108.948899 251.542253 
L 112.026172 251.542253 
L 112.026172 251.015567 
L 114.641021 251.015567 
L 114.641021 248.908822 
L 117.297733 248.908822 
L 117.297733 247.85545 
L 117.672786 247.85545 
L 117.672786 246.802078 
L 118.751849 246.802078 
L 118.751849 244.695334 
L 119.267333 244.695334 
L 119.267333 244.168648 
L 120.254726 244.168648 
L 120.254726 243.115275 
L 120.41399 243.115275 
L 120.41399 242.588589 
L 121.189196 242.588589 
L 121.189196 241.008531 
L 121.785469 241.008531 
L 121.785469 240.481845 
L 122.219665 240.481845 
L 122.219665 239.955159 
L 124.743806 239.955159 
L 124.743806 238.901787 
L 126.839037 238.901787 
L 126.948374 237.321729 
L 127.165014 237.321729 
L 127.272333 236.268356 
L 127.48501 236.268356 
L 127.590383 235.214984 
L 129.574256 235.214984 
L 129.574256 234.161612 
L 130.127931 234.161612 
L 130.127931 233.634926 
L 130.839837 233.634926 
L 130.839837 233.10824 
L 132.101058 233.10824 
L 132.101058 232.581554 
L 132.422528 232.581554 
L 132.422528 232.054868 
L 132.971225 232.054868 
L 133.04822 229.421437 
L 133.124876 229.421437 
L 133.124876 228.894751 
L 133.277185 228.894751 
L 133.277185 227.314693 
L 134.164119 227.314693 
L 134.164119 226.261321 
L 134.37898 226.261321 
L 134.450015 222.047832 
L 134.661403 222.047832 
L 134.661403 220.99446 
L 135.076644 220.99446 
L 135.076644 219.941088 
L 135.747468 219.941088 
L 135.747468 219.414402 
L 136.393441 219.414402 
L 136.393441 218.36103 
L 136.645276 218.36103 
L 136.645276 217.307658 
L 137.077422 217.307658 
L 137.077422 214.674227 
L 137.852629 214.674227 
L 137.852629 214.147541 
L 138.141844 214.147541 
L 138.141844 213.620855 
L 138.426341 213.620855 
L 138.426341 213.094169 
L 139.783113 213.094169 
L 139.783113 212.567483 
L 139.990725 212.567483 
L 140.093612 211.514111 
L 140.246813 211.514111 
L 140.246813 210.460738 
L 140.499195 210.460738 
L 140.499195 209.934052 
L 140.846504 209.934052 
L 140.89556 208.88068 
L 141.041904 208.88068 
L 141.041904 207.827308 
L 141.187031 207.827308 
L 141.187031 207.300622 
L 141.662245 207.300622 
L 141.709062 206.24725 
L 142.033307 206.24725 
L 142.033307 205.720564 
L 142.396639 205.720564 
L 142.396639 204.667192 
L 142.927826 204.667192 
L 142.927826 204.140506 
L 143.058132 204.140506 
L 143.058132 203.613819 
L 143.527762 203.613819 
L 143.527762 200.980389 
L 144.269971 200.980389 
L 144.269971 200.453703 
L 144.470655 200.453703 
L 144.470655 198.873645 
L 144.589967 198.873645 
L 144.589967 198.346959 
L 145.136208 198.346959 
L 145.136208 197.820273 
L 145.289185 197.820273 
L 145.365173 195.713528 
L 146.034567 195.713528 
L 146.034567 195.186842 
L 146.359869 195.186842 
L 146.431341 193.080098 
L 146.538004 193.080098 
L 146.644018 189.919981 
L 146.958248 189.919981 
L 146.958248 188.866609 
L 147.50327 188.866609 
L 147.603592 186.759865 
L 148.064279 186.759865 
L 148.161434 184.126434 
L 148.193699 184.126434 
L 148.193699 182.546376 
L 148.322166 182.546376 
L 148.322166 181.493004 
L 148.888835 181.493004 
L 148.919783 180.439632 
L 149.134896 180.439632 
L 149.134896 179.38626 
L 149.467659 179.38626 
L 149.497598 177.806202 
L 149.616841 177.806202 
L 149.616841 175.699457 
L 150.172372 175.699457 
L 150.172372 175.172771 
L 150.372662 175.172771 
L 150.372662 174.646085 
L 150.542526 174.646085 
L 150.598782 173.066027 
L 150.654857 173.066027 
L 150.654857 172.539341 
L 151.151579 172.539341 
L 151.233007 171.485969 
L 151.287083 171.485969 
L 151.287083 169.90591 
L 151.44831 169.90591 
L 151.554972 168.325852 
L 151.634543 168.325852 
L 151.713753 166.219108 
L 151.76636 166.219108 
L 151.76636 165.165736 
L 152.027042 165.165736 
L 152.027042 162.532305 
L 152.283884 162.532305 
L 152.283884 160.952247 
L 152.436193 160.952247 
L 152.436193 159.372189 
L 152.786492 159.372189 
L 152.811246 158.318817 
L 152.959038 158.318817 
L 152.959038 157.79213 
L 153.081247 157.79213 
L 153.081247 156.738758 
L 153.632638 156.738758 
L 153.703291 152.52527 
L 154.167129 152.52527 
L 154.258434 149.365153 
L 154.394502 149.365153 
L 154.394502 148.311781 
L 154.663493 148.311781 
L 154.663493 145.151665 
L 154.928399 145.151665 
L 154.972161 143.571606 
L 155.146121 143.571606 
L 155.146121 143.04492 
L 155.425155 143.04492 
L 155.425155 142.518234 
L 156.337763 142.518234 
L 156.357959 139.884804 
L 156.45859 139.884804 
L 156.538679 138.831432 
L 156.638275 138.831432 
L 156.737306 135.144629 
L 156.953214 135.144629 
L 156.953214 134.091257 
L 157.108577 134.091257 
L 157.108577 132.511199 
L 157.641697 132.511199 
L 157.697862 130.93114 
L 157.846757 130.93114 
L 157.883783 128.824396 
L 157.976006 128.824396 
L 157.976006 128.29771 
L 158.322071 128.29771 
L 158.412011 123.030849 
L 158.51933 123.030849 
L 158.608261 121.450791 
L 158.643706 121.450791 
L 158.661402 118.817361 
L 158.924708 118.817361 
L 159.028927 114.603872 
L 159.184097 114.603872 
L 159.26971 113.5505 
L 159.708245 113.5505 
L 159.708245 112.497128 
L 159.857512 112.497128 
L 159.857512 111.970441 
L 160.103486 111.970441 
L 160.168498 110.390383 
L 160.233268 110.390383 
L 160.281688 109.337011 
L 160.458086 109.337011 
L 160.489968 106.176895 
L 160.585265 106.176895 
L 160.648508 104.07015 
L 160.774311 104.07015 
L 160.821253 102.490092 
L 161.11566 102.490092 
L 161.192316 101.43672 
L 161.238149 101.43672 
L 161.253399 100.383348 
L 161.465522 100.383348 
L 161.555647 97.749917 
L 161.615474 97.749917 
L 161.615474 97.223231 
L 161.764147 97.223231 
L 161.852746 95.643173 
L 161.984807 95.643173 
L 162.057744 93.009743 
L 162.144868 93.009743 
L 162.231559 90.902998 
L 162.332157 90.902998 
L 162.432178 89.32294 
L 162.602318 89.32294 
L 162.700806 87.216196 
L 162.742845 87.216196 
L 162.742845 86.68951 
L 162.951535 86.68951 
L 163.048075 85.109451 
L 163.171418 85.109451 
L 163.266752 83.002707 
L 163.293895 83.002707 
L 163.293895 82.476021 
L 163.44243 82.476021 
L 163.536298 80.895963 
L 163.656248 80.895963 
L 163.722532 78.789218 
L 163.788565 78.789218 
L 163.880593 77.20916 
L 164.076176 77.20916 
L 164.140886 75.102416 
L 164.269589 75.102416 
L 164.269589 74.57573 
L 164.448194 74.57573 
L 164.47356 72.995672 
L 164.587254 72.995672 
L 164.599841 71.942299 
L 164.700211 71.942299 
L 164.800007 69.835555 
L 164.812441 69.835555 
L 164.824867 67.728811 
L 164.923954 67.728811 
L 165.022481 62.46195 
L 165.096013 62.46195 
L 165.193576 59.82852 
L 165.314766 59.82852 
L 165.363008 57.721775 
L 165.791279 57.721775 
L 165.838222 52.9816 
L 165.9084 52.9816 
L 166.013141 49.294798 
L 166.105719 49.294798 
L 166.186323 47.188054 
L 166.220754 47.188054 
L 166.277988 46.134681 
L 166.403246 46.134681 
L 166.48249 42.974565 
L 166.561376 42.974565 
L 166.606293 41.394507 
L 167.147346 41.394507 
L 167.223287 38.761076 
L 167.341959 38.761076 
L 167.341959 37.707704 
L 167.619287 37.707704 
L 167.651004 36.127646 
L 167.923499 36.127646 
L 167.923499 35.60096 
L 168.068482 35.60096 
L 168.068482 34.547588 
L 168.273531 34.547588 
L 168.273531 34.020902 
L 168.526499 34.020902 
L 168.526499 33.494215 
L 168.972794 33.494215 
L 168.972794 32.967529 
L 169.340971 32.967529 
L 169.388841 31.914157 
L 169.710923 31.914157 
L 169.710923 31.387471 
L 170.082381 31.387471 
L 170.082381 30.860785 
L 171.645677 30.860785 
L 171.645677 30.334099 
L 338.688 30.334099 
L 338.688 30.334099 
" style="fill:none;stroke:#ff00ff;stroke-linecap:square;stroke-width:1.5;"/>
   </g>
   <g id="line2d_36">
    <defs>
     <path d="M -0 8.485281 
L 5.091169 0 
L 0 -8.485281 
L -5.091169 -0 
z
" id="mea3760e26b" style="stroke:#ff00ff;stroke-linejoin:miter;stroke-width:1.5;"/>
    </defs>
    <g>
     <use style="fill-opacity:0;stroke:#ff00ff;stroke-linejoin:miter;stroke-width:1.5;" x="86.792945" xlink:href="#mea3760e26b" y="262.075974"/>
     <use style="fill-opacity:0;stroke:#ff00ff;stroke-linejoin:miter;stroke-width:1.5;" x="146.958248" xlink:href="#mea3760e26b" y="188.866609"/>
     <use style="fill-opacity:0;stroke:#ff00ff;stroke-linejoin:miter;stroke-width:1.5;" x="171.645677" xlink:href="#mea3760e26b" y="30.860785"/>
     <use style="fill-opacity:0;stroke:#ff00ff;stroke-linejoin:miter;stroke-width:1.5;" x="171.645677" xlink:href="#mea3760e26b" y="30.334099"/>
     <use style="fill-opacity:0;stroke:#ff00ff;stroke-linejoin:miter;stroke-width:1.5;" x="171.645677" xlink:href="#mea3760e26b" y="30.334099"/>
     <use style="fill-opacity:0;stroke:#ff00ff;stroke-linejoin:miter;stroke-width:1.5;" x="338.688" xlink:href="#mea3760e26b" y="30.334099"/>
    </g>
   </g>
   <g id="line2d_37">
    <path style="fill:none;stroke:#ff00ff;stroke-linecap:square;stroke-width:1.5;"/>
    <g/>
   </g>
   <g id="line2d_38">
    <defs>
     <path d="M 0 1.5 
C 0.397805 1.5 0.77937 1.341951 1.06066 1.06066 
C 1.341951 0.77937 1.5 0.397805 1.5 0 
C 1.5 -0.397805 1.341951 -0.77937 1.06066 -1.06066 
C 0.77937 -1.341951 0.397805 -1.5 0 -1.5 
C -0.397805 -1.5 -0.77937 -1.341951 -1.06066 -1.06066 
C -1.341951 -0.77937 -1.5 -0.397805 -1.5 0 
C -1.5 0.397805 -1.341951 0.77937 -1.06066 1.06066 
C -0.77937 1.341951 -0.397805 1.5 0 1.5 
z
" id="m5f832ded2a" style="stroke:#ff7500;"/>
    </defs>
    <g>
     <use style="fill:#ff7500;stroke:#ff7500;" x="185.505431" xlink:href="#m5f832ded2a" y="30.334099"/>
     <use style="fill:#ff7500;stroke:#ff7500;" x="185.505431" xlink:href="#m5f832ded2a" y="30.334099"/>
    </g>
   </g>
   <g id="line2d_39">
    <path d="M 38.440992 298.944 
L 38.440992 288.410278 
L 50.52898 288.410278 
L 50.52898 286.303534 
L 57.6 286.303534 
L 57.6 282.616732 
L 62.616969 282.616732 
L 62.616969 282.090045 
L 66.508432 282.090045 
L 66.508432 281.036673 
L 69.687988 281.036673 
L 69.687988 280.509987 
L 72.376266 280.509987 
L 72.376266 279.983301 
L 76.759008 279.983301 
L 76.759008 276.296499 
L 78.59642 276.296499 
L 78.59642 271.556324 
L 80.258561 271.556324 
L 80.258561 269.449579 
L 84.464254 269.449579 
L 84.464254 265.762777 
L 86.792945 265.762777 
L 86.792945 261.549288 
L 91.535274 261.549288 
L 91.535274 259.96923 
L 95.259853 259.96923 
L 95.259853 258.915858 
L 95.918017 258.915858 
L 95.918017 257.3358 
L 96.552242 257.3358 
L 96.552242 256.282427 
L 102.330873 256.282427 
L 102.330873 253.122311 
L 108.948899 253.122311 
L 108.948899 252.595625 
L 110.131676 252.595625 
L 110.131676 251.542253 
L 111.767808 251.542253 
L 111.767808 250.488881 
L 119.097192 250.488881 
L 119.097192 249.435508 
L 122.920132 249.435508 
L 122.920132 248.908822 
L 123.855796 248.908822 
L 123.855796 246.275392 
L 123.985457 246.275392 
L 123.985457 245.748706 
L 124.114161 245.748706 
L 124.114161 245.22202 
L 124.619683 245.22202 
L 124.619683 243.115275 
L 124.743806 243.115275 
L 124.743806 242.061903 
L 124.989434 242.061903 
L 124.989434 240.481845 
L 125.351508 240.481845 
L 125.351508 236.268356 
L 126.50685 236.268356 
L 126.50685 235.74167 
L 128.310692 235.74167 
L 128.310692 235.214984 
L 129.002426 235.214984 
L 129.099042 234.161612 
L 129.385722 234.161612 
L 129.385722 233.10824 
L 129.667765 233.10824 
L 129.667765 232.054868 
L 131.523818 232.054868 
L 131.523818 231.528182 
L 131.77355 231.528182 
L 131.77355 230.47481 
L 132.019755 230.47481 
L 132.019755 228.894751 
L 132.181982 228.894751 
L 132.181982 227.841379 
L 132.581068 227.841379 
L 132.581068 227.314693 
L 133.04822 227.314693 
L 133.04822 226.261321 
L 133.352844 226.261321 
L 133.352844 225.734635 
L 133.72629 225.734635 
L 133.72629 223.101204 
L 134.939326 223.101204 
L 135.00812 220.99446 
L 135.144899 220.99446 
L 135.144899 219.941088 
L 135.878591 219.941088 
L 135.878591 217.834344 
L 136.137916 217.834344 
L 136.137916 217.307658 
L 136.893527 217.307658 
L 136.893527 215.727599 
L 137.077422 215.727599 
L 137.077422 215.200913 
L 137.259399 215.200913 
L 137.259399 214.674227 
L 137.852629 214.674227 
L 137.910857 212.040797 
L 138.026733 212.040797 
L 138.026733 211.514111 
L 141.521035 211.514111 
L 141.521035 209.407366 
L 142.396639 209.407366 
L 142.396639 208.88068 
L 143.40093 208.88068 
L 143.40093 207.300622 
L 143.778691 207.300622 
L 143.778691 204.667192 
L 144.747789 204.667192 
L 144.826168 203.613819 
L 144.94308 203.613819 
L 145.020588 200.980389 
L 145.212864 200.980389 
L 145.212864 199.400331 
L 145.478539 199.400331 
L 145.553708 196.7669 
L 146.854132 196.7669 
L 146.854132 196.240214 
L 147.769524 196.240214 
L 147.769524 193.606784 
L 148.417899 193.606784 
L 148.417899 193.080098 
L 148.607802 193.080098 
L 148.607802 192.553412 
L 149.705742 192.553412 
L 149.705742 190.446667 
L 149.882194 190.446667 
L 149.882194 189.393295 
L 150.143571 189.393295 
L 150.172372 188.339923 
L 150.486088 188.339923 
L 150.486088 186.759865 
L 150.766468 186.759865 
L 150.766468 186.233179 
L 151.792604 186.233179 
L 151.792604 185.179807 
L 152.283884 185.179807 
L 152.283884 184.126434 
L 154.258434 184.126434 
L 154.258434 183.599748 
L 155.146121 183.599748 
L 155.146121 182.546376 
L 155.382516 182.546376 
L 155.382516 182.01969 
L 156.337763 182.01969 
L 156.337763 181.493004 
L 156.953214 181.493004 
L 157.011638 179.38626 
L 158.784773 179.38626 
L 158.819862 177.279515 
L 159.774744 177.279515 
L 159.774744 176.752829 
L 160.038232 176.752829 
L 160.038232 176.226143 
L 160.152267 176.226143 
L 160.233268 173.592713 
L 161.084903 173.592713 
L 161.084903 173.066027 
L 161.299072 173.066027 
L 161.299072 172.012655 
L 162.130378 172.012655 
L 162.231559 170.432596 
L 162.630514 170.432596 
L 162.630514 168.852538 
L 163.33453 168.852538 
L 163.348054 167.27248 
L 163.563025 167.27248 
L 163.563025 166.745794 
L 163.722532 166.745794 
L 163.722532 166.219108 
L 164.050224 166.219108 
L 164.050224 163.585677 
L 164.448194 163.585677 
L 164.448194 163.058991 
L 165.375047 163.058991 
L 165.375047 162.532305 
L 165.59035 162.532305 
L 165.59035 162.005619 
L 166.255117 162.005619 
L 166.357802 160.952247 
L 166.403246 160.952247 
L 166.471192 159.372189 
L 166.639906 159.372189 
L 166.639906 158.845503 
L 167.158215 158.845503 
L 167.212459 156.738758 
L 167.288118 156.738758 
L 167.374185 153.578642 
L 168.263336 153.578642 
L 168.263336 151.998584 
L 168.746115 151.998584 
L 168.854895 147.785095 
L 168.992367 147.785095 
L 168.992367 147.258409 
L 169.654516 147.258409 
L 169.654516 146.731723 
L 170.054794 146.731723 
L 170.054794 146.205037 
L 170.274274 146.205037 
L 170.364915 142.518234 
L 170.499999 142.518234 
L 170.553741 139.358118 
L 171.108254 139.358118 
L 171.18605 136.198001 
L 171.323504 136.198001 
L 171.323504 135.671315 
L 171.8212 135.671315 
L 171.829514 134.617943 
L 171.994974 134.617943 
L 171.994974 134.091257 
L 172.514135 134.091257 
L 172.514135 133.037885 
L 173.432614 133.037885 
L 173.432614 132.511199 
L 173.628647 132.511199 
L 173.651125 130.93114 
L 174.788794 130.93114 
L 174.788794 130.404454 
L 174.907643 130.404454 
L 174.942445 128.29771 
L 175.415753 128.29771 
L 175.415753 127.244338 
L 175.537141 127.244338 
L 175.617599 124.084221 
L 175.77078 124.084221 
L 175.85677 120.397419 
L 175.981689 120.397419 
L 176.073165 117.763988 
L 176.183602 117.763988 
L 176.267585 115.657244 
L 176.402401 115.657244 
L 176.427962 114.077186 
L 176.700407 114.077186 
L 176.700407 110.917069 
L 177.048955 110.917069 
L 177.048955 110.390383 
L 177.372536 110.390383 
L 177.372536 109.863697 
L 177.529105 109.863697 
L 177.529105 109.337011 
L 177.678338 109.337011 
L 177.678338 108.810325 
L 177.861631 108.810325 
L 177.861631 107.756953 
L 178.008058 107.756953 
L 178.008058 107.230267 
L 178.462846 107.230267 
L 178.462846 106.703581 
L 178.609966 106.703581 
L 178.683063 103.543464 
L 178.722297 103.543464 
L 178.722297 103.016778 
L 179.038526 103.016778 
L 179.115327 98.803289 
L 179.208133 98.803289 
L 179.208133 97.749917 
L 179.338318 97.749917 
L 179.338318 97.223231 
L 179.462173 97.223231 
L 179.526446 96.169859 
L 179.807517 96.169859 
L 179.807517 95.116487 
L 179.938541 95.116487 
L 180.016686 91.429684 
L 180.068589 91.429684 
L 180.078951 90.376312 
L 180.197673 90.376312 
L 180.197673 88.796254 
L 180.739608 88.796254 
L 180.739608 88.269568 
L 180.952739 88.269568 
L 180.987189 86.162824 
L 181.124314 86.162824 
L 181.197333 81.949335 
L 181.36653 81.949335 
L 181.438544 77.735846 
L 181.581685 77.735846 
L 181.633877 72.468985 
L 181.700078 72.468985 
L 181.700078 71.942299 
L 181.822361 71.942299 
L 181.911182 68.255497 
L 181.934481 68.255497 
L 182.008829 66.148752 
L 182.064383 66.148752 
L 182.064383 65.622066 
L 182.193325 65.622066 
L 182.25744 63.515322 
L 182.312209 63.515322 
L 182.330427 60.355206 
L 182.461942 60.355206 
L 182.484517 58.775147 
L 182.619357 58.775147 
L 182.708675 55.088345 
L 182.934387 55.088345 
L 183.030858 53.508287 
L 183.282662 53.508287 
L 183.360074 50.874856 
L 183.552115 50.874856 
L 183.61989 49.294798 
L 183.691613 49.294798 
L 183.742064 45.081309 
L 183.950721 45.081309 
L 184.033489 43.501251 
L 184.161009 43.501251 
L 184.267247 41.921193 
L 184.320124 41.921193 
L 184.405203 37.181018 
L 184.538067 37.181018 
L 184.638052 35.074274 
L 184.725567 35.074274 
L 184.725567 34.547588 
L 184.883568 34.547588 
L 184.981597 31.914157 
L 184.99723 31.914157 
L 184.99723 31.387471 
L 185.486448 31.387471 
L 185.505431 30.334099 
L 338.688 30.334099 
L 338.688 30.334099 
" style="fill:none;stroke:#ff7500;stroke-linecap:square;stroke-width:1.5;"/>
   </g>
   <g id="line2d_40">
    <defs>
     <path d="M 0 -6 
L -1.347084 -1.854102 
L -5.706339 -1.854102 
L -2.179628 0.708204 
L -3.526712 4.854102 
L -0 2.291796 
L 3.526712 4.854102 
L 2.179628 0.708204 
L 5.706339 -1.854102 
L 1.347084 -1.854102 
z
" id="m092da90015" style="stroke:#ff7500;stroke-linejoin:bevel;stroke-width:1.5;"/>
    </defs>
    <g>
     <use style="fill-opacity:0;stroke:#ff7500;stroke-linejoin:bevel;stroke-width:1.5;" x="110.131676" xlink:href="#m092da90015" y="251.542253"/>
     <use style="fill-opacity:0;stroke:#ff7500;stroke-linejoin:bevel;stroke-width:1.5;" x="167.374185" xlink:href="#m092da90015" y="154.105328"/>
     <use style="fill-opacity:0;stroke:#ff7500;stroke-linejoin:bevel;stroke-width:1.5;" x="185.505431" xlink:href="#m092da90015" y="30.860785"/>
     <use style="fill-opacity:0;stroke:#ff7500;stroke-linejoin:bevel;stroke-width:1.5;" x="185.505431" xlink:href="#m092da90015" y="30.334099"/>
     <use style="fill-opacity:0;stroke:#ff7500;stroke-linejoin:bevel;stroke-width:1.5;" x="185.505431" xlink:href="#m092da90015" y="30.334099"/>
     <use style="fill-opacity:0;stroke:#ff7500;stroke-linejoin:bevel;stroke-width:1.5;" x="338.688" xlink:href="#m092da90015" y="30.334099"/>
    </g>
   </g>
   <g id="line2d_41">
    <path style="fill:none;stroke:#ff7500;stroke-linecap:square;stroke-width:1.5;"/>
    <g/>
   </g>
   <g id="line2d_42">
    <defs>
     <path d="M 0 1.5 
C 0.397805 1.5 0.77937 1.341951 1.06066 1.06066 
C 1.341951 0.77937 1.5 0.397805 1.5 0 
C 1.5 -0.397805 1.341951 -0.77937 1.06066 -1.06066 
C 0.77937 -1.341951 0.397805 -1.5 0 -1.5 
C -0.397805 -1.5 -0.77937 -1.341951 -1.06066 -1.06066 
C -1.341951 -0.77937 -1.5 -0.397805 -1.5 0 
C -1.5 0.397805 -1.341951 0.77937 -1.06066 1.06066 
C -0.77937 1.341951 -0.397805 1.5 0 1.5 
z
" id="m41f4615147" style="stroke:#6495ed;"/>
    </defs>
    <g>
     <use style="fill:#6495ed;stroke:#6495ed;" x="177.725824" xlink:href="#m41f4615147" y="30.334099"/>
     <use style="fill:#6495ed;stroke:#6495ed;" x="177.725824" xlink:href="#m41f4615147" y="30.334099"/>
    </g>
   </g>
   <g id="line2d_43">
    <path d="M 38.440992 298.944 
L 38.440992 288.410278 
L 50.52898 288.410278 
L 50.52898 285.776848 
L 57.6 285.776848 
L 57.6 282.616732 
L 62.616969 282.616732 
L 62.616969 282.090045 
L 66.508432 282.090045 
L 66.508432 280.509987 
L 72.376266 280.509987 
L 72.376266 278.929929 
L 74.704957 278.929929 
L 74.704957 278.403243 
L 76.759008 278.403243 
L 76.759008 273.663068 
L 78.59642 273.663068 
L 78.59642 270.502952 
L 80.258561 270.502952 
L 80.258561 268.922893 
L 84.464254 268.922893 
L 84.464254 264.709405 
L 86.792945 264.709405 
L 86.792945 261.022602 
L 91.535274 261.022602 
L 91.535274 258.915858 
L 95.259853 258.915858 
L 95.259853 256.809114 
L 95.918017 256.809114 
L 95.918017 255.755741 
L 96.552242 255.755741 
L 96.552242 254.702369 
L 100.934985 254.702369 
L 100.934985 254.175683 
L 102.330873 254.175683 
L 102.330873 252.595625 
L 108.006005 252.595625 
L 108.006005 252.068939 
L 108.948899 252.068939 
L 108.948899 251.542253 
L 110.131676 251.542253 
L 110.131676 250.488881 
L 115.917635 250.488881 
L 115.917635 249.962195 
L 116.323218 249.962195 
L 116.323218 249.435508 
L 116.719583 249.435508 
L 116.719583 247.85545 
L 116.914437 247.85545 
L 116.914437 246.802078 
L 117.672786 246.802078 
L 117.672786 244.168648 
L 117.857331 244.168648 
L 117.857331 242.061903 
L 118.039942 242.061903 
L 118.039942 241.008531 
L 118.220662 241.008531 
L 118.220662 239.428473 
L 118.399528 239.428473 
L 118.399528 238.901787 
L 118.925375 238.901787 
L 118.925375 238.375101 
L 119.43583 238.375101 
L 119.43583 237.321729 
L 119.768017 237.321729 
L 119.768017 236.268356 
L 120.093994 236.268356 
L 120.093994 235.74167 
L 121.036887 235.74167 
L 121.036887 234.688298 
L 122.362027 234.688298 
L 122.362027 234.161612 
L 123.985457 234.161612 
L 123.985457 233.634926 
L 124.114161 233.634926 
L 124.114161 233.10824 
L 124.619683 233.10824 
L 124.619683 232.054868 
L 125.351508 232.054868 
L 125.351508 231.528182 
L 126.3947 231.528182 
L 126.3947 231.001496 
L 127.590383 231.001496 
L 127.590383 230.47481 
L 127.799239 230.47481 
L 127.799239 229.948123 
L 128.005624 229.948123 
L 128.107907 225.734635 
L 128.209594 225.734635 
L 128.209594 223.627891 
L 128.709321 223.627891 
L 128.807571 222.574518 
L 129.099042 222.574518 
L 129.099042 222.047832 
L 129.290685 222.047832 
L 129.290685 220.99446 
L 129.667765 220.99446 
L 129.667765 219.414402 
L 130.487516 219.414402 
L 130.487516 218.887716 
L 130.664567 218.887716 
L 130.664567 218.36103 
L 132.181982 218.36103 
L 132.181982 217.834344 
L 132.342714 217.834344 
L 132.342714 215.200913 
L 133.72629 215.200913 
L 133.72629 214.147541 
L 134.307653 214.147541 
L 134.307653 213.620855 
L 135.00812 213.620855 
L 135.00812 210.987425 
L 135.348078 210.987425 
L 135.348078 209.407366 
L 135.548916 209.407366 
L 135.548916 208.88068 
L 135.681535 208.88068 
L 135.681535 207.827308 
L 137.37967 207.827308 
L 137.37967 207.300622 
L 137.558536 207.300622 
L 137.558536 206.24725 
L 138.084384 206.24725 
L 138.084384 205.193878 
L 138.426341 205.193878 
L 138.426341 204.667192 
L 138.538853 204.667192 
L 138.538853 204.140506 
L 138.706272 204.140506 
L 138.706272 203.613819 
L 139.090775 203.613819 
L 139.199094 202.033761 
L 139.572998 202.033761 
L 139.572998 201.507075 
L 139.835248 201.507075 
L 139.887228 198.873645 
L 140.246813 198.873645 
L 140.297583 196.7669 
L 140.499195 196.7669 
L 140.549236 195.713528 
L 140.89556 195.713528 
L 140.89556 195.186842 
L 141.138789 195.186842 
L 141.138789 194.660156 
L 142.215919 194.660156 
L 142.215919 192.553412 
L 142.486301 192.553412 
L 142.486301 189.919981 
L 142.971369 189.919981 
L 142.971369 189.393295 
L 143.187472 189.393295 
L 143.187472 188.866609 
L 143.40093 188.866609 
L 143.40093 188.339923 
L 143.569835 188.339923 
L 143.569835 186.759865 
L 143.902815 186.759865 
L 143.902815 186.233179 
L 144.107744 186.233179 
L 144.107744 185.179807 
L 144.94308 185.179807 
L 144.94308 184.653121 
L 145.136208 184.653121 
L 145.136208 184.126434 
L 145.365173 184.126434 
L 145.440832 180.439632 
L 146.071013 180.439632 
L 146.179895 178.859574 
L 146.679213 178.859574 
L 146.679213 178.332888 
L 146.923612 178.332888 
L 146.923612 176.752829 
L 147.802521 176.752829 
L 147.86833 175.172771 
L 149.195872 175.172771 
L 149.195872 174.119399 
L 149.347388 174.119399 
L 149.377533 170.432596 
L 149.497598 170.432596 
L 149.497598 169.90591 
L 149.616841 169.90591 
L 149.616841 168.325852 
L 149.764758 168.325852 
L 149.764758 166.745794 
L 150.457801 166.745794 
L 150.457801 166.219108 
L 150.932558 166.219108 
L 150.932558 165.165736 
L 151.60806 165.165736 
L 151.60806 164.63905 
L 151.949246 164.63905 
L 152.052897 161.478933 
L 152.461449 161.478933 
L 152.461449 160.952247 
L 153.347132 160.952247 
L 153.347132 160.425561 
L 153.913546 160.425561 
L 153.913546 159.898875 
L 154.144227 159.898875 
L 154.144227 158.318817 
L 154.862549 158.318817 
L 154.862549 157.79213 
L 155.253971 157.79213 
L 155.296925 156.738758 
L 155.55245 156.738758 
L 155.6368 153.051956 
L 157.1279 153.051956 
L 157.1279 152.52527 
L 157.358125 152.52527 
L 157.358125 151.998584 
L 157.79107 151.998584 
L 157.79107 151.471897 
L 158.104304 151.471897 
L 158.104304 150.418525 
L 158.976895 150.418525 
L 158.976895 149.891839 
L 159.286782 149.891839 
L 159.286782 144.098292 
L 159.507213 144.098292 
L 159.507213 143.571606 
L 160.087195 143.571606 
L 160.087195 143.04492 
L 160.569418 143.04492 
L 160.569418 141.464862 
L 160.80562 141.464862 
L 160.86807 140.41149 
L 161.084903 140.41149 
L 161.146363 138.831432 
L 161.238149 138.831432 
L 161.283861 136.198001 
L 161.359783 136.198001 
L 161.420284 134.091257 
L 162.46065 134.091257 
L 162.517456 131.984513 
L 162.630514 131.984513 
L 162.630514 131.457826 
L 162.979172 131.457826 
L 162.979172 130.93114 
L 163.402046 130.93114 
L 163.482721 129.351082 
L 163.8937 129.351082 
L 163.8937 128.29771 
L 164.153799 128.29771 
L 164.205356 126.717652 
L 164.39735 126.717652 
L 164.39735 125.66428 
L 165.059286 125.66428 
L 165.157053 121.977477 
L 165.193576 121.977477 
L 165.193576 118.817361 
L 165.896723 118.817361 
L 165.896723 117.237302 
L 166.128786 117.237302 
L 166.128786 115.657244 
L 166.550128 115.657244 
L 166.550128 115.130558 
L 166.950537 115.130558 
L 167.027338 113.023814 
L 167.819196 113.023814 
L 167.819196 111.443755 
L 168.037515 111.443755 
L 168.140524 108.810325 
L 168.71633 108.810325 
L 168.71633 108.283639 
L 168.992367 108.283639 
L 168.992367 107.230267 
L 169.379278 107.230267 
L 169.379278 106.176895 
L 169.616809 106.176895 
L 169.616809 105.123522 
L 169.78585 105.123522 
L 169.86976 103.016778 
L 170.119095 103.016778 
L 170.228776 100.910034 
L 170.328715 100.910034 
L 170.41006 98.276603 
L 170.58055 98.276603 
L 170.58055 97.749917 
L 170.784729 97.749917 
L 170.784729 97.223231 
L 171.03881 97.223231 
L 171.03881 96.696545 
L 171.168792 96.696545 
L 171.263501 95.116487 
L 171.314944 95.116487 
L 171.400348 94.063115 
L 171.485334 94.063115 
L 171.485334 93.009743 
L 171.620458 93.009743 
L 171.696007 90.902998 
L 171.920711 90.902998 
L 171.920711 90.376312 
L 172.085312 90.376312 
L 172.150719 88.796254 
L 172.224011 88.796254 
L 172.305086 84.582765 
L 172.393836 84.582765 
L 172.498143 82.476021 
L 172.522125 82.476021 
L 172.60183 79.842591 
L 172.83878 79.842591 
L 172.862299 77.735846 
L 173.01052 77.735846 
L 173.072554 74.049044 
L 173.149788 74.049044 
L 173.242018 70.362241 
L 173.349008 70.362241 
L 173.349008 68.255497 
L 173.545979 68.255497 
L 173.591119 67.202125 
L 173.688525 67.202125 
L 173.755642 64.568694 
L 173.962814 64.568694 
L 173.962814 63.515322 
L 174.189349 63.515322 
L 174.276256 61.408578 
L 174.319548 61.408578 
L 174.412979 58.775147 
L 174.498781 58.775147 
L 174.498781 58.248461 
L 174.619617 58.248461 
L 174.725545 56.668403 
L 174.795808 56.668403 
L 174.886729 55.615031 
L 174.928533 55.615031 
L 175.004915 52.454914 
L 175.08786 52.454914 
L 175.08786 50.34817 
L 175.218389 50.34817 
L 175.259407 48.768112 
L 175.341154 48.768112 
L 175.341154 48.241426 
L 175.58412 48.241426 
L 175.684365 41.394507 
L 175.744237 41.394507 
L 175.744237 40.341135 
L 175.869961 40.341135 
L 175.968581 36.127646 
L 176.007874 36.127646 
L 176.007874 35.60096 
L 176.131719 35.60096 
L 176.131719 34.547588 
L 176.267585 34.547588 
L 176.338333 33.494215 
L 176.389606 33.494215 
L 176.389606 32.967529 
L 176.800705 32.967529 
L 176.800705 31.387471 
L 176.919065 31.387471 
L 176.919065 30.860785 
L 177.725824 30.860785 
L 177.725824 30.334099 
L 338.688 30.334099 
L 338.688 30.334099 
" style="fill:none;stroke:#6495ed;stroke-linecap:square;stroke-width:1.5;"/>
   </g>
   <g id="line2d_44">
    <defs>
     <path d="M -0 6 
L 6 -6 
L -6 -6 
z
" id="m20250e6eef" style="stroke:#6495ed;stroke-linejoin:miter;stroke-width:1.5;"/>
    </defs>
    <g>
     <use style="fill-opacity:0;stroke:#6495ed;stroke-linejoin:miter;stroke-width:1.5;" x="135.00812" xlink:href="#m20250e6eef" y="213.620855"/>
     <use style="fill-opacity:0;stroke:#6495ed;stroke-linejoin:miter;stroke-width:1.5;" x="166.550128" xlink:href="#m20250e6eef" y="115.130558"/>
     <use style="fill-opacity:0;stroke:#6495ed;stroke-linejoin:miter;stroke-width:1.5;" x="177.725824" xlink:href="#m20250e6eef" y="30.860785"/>
     <use style="fill-opacity:0;stroke:#6495ed;stroke-linejoin:miter;stroke-width:1.5;" x="177.725824" xlink:href="#m20250e6eef" y="30.334099"/>
     <use style="fill-opacity:0;stroke:#6495ed;stroke-linejoin:miter;stroke-width:1.5;" x="177.725824" xlink:href="#m20250e6eef" y="30.334099"/>
     <use style="fill-opacity:0;stroke:#6495ed;stroke-linejoin:miter;stroke-width:1.5;" x="338.688" xlink:href="#m20250e6eef" y="30.334099"/>
    </g>
   </g>
   <g id="line2d_45">
    <path style="fill:none;stroke:#6495ed;stroke-linecap:square;stroke-width:1.5;"/>
    <g/>
   </g>
   <g id="line2d_46">
    <path d="M 338.688 30.334099 
L 369.60768 293.571802 
" style="fill:none;stroke:#ff7500;stroke-linecap:square;stroke-width:1.5;"/>
    <g>
     <use style="fill-opacity:0;stroke:#ff7500;stroke-linejoin:bevel;stroke-width:1.5;" x="338.688" xlink:href="#m092da90015" y="30.334099"/>
     <use style="fill-opacity:0;stroke:#ff7500;stroke-linejoin:bevel;stroke-width:1.5;" x="369.60768" xlink:href="#m092da90015" y="293.571802"/>
    </g>
   </g>
   <g id="line2d_47">
    <path d="M 338.688 30.334099 
L 369.60768 207.616634 
" style="fill:none;stroke:#6495ed;stroke-linecap:square;stroke-width:1.5;"/>
    <g>
     <use style="fill-opacity:0;stroke:#6495ed;stroke-linejoin:miter;stroke-width:1.5;" x="338.688" xlink:href="#m20250e6eef" y="30.334099"/>
     <use style="fill-opacity:0;stroke:#6495ed;stroke-linejoin:miter;stroke-width:1.5;" x="369.60768" xlink:href="#m20250e6eef" y="207.616634"/>
    </g>
   </g>
   <g id="line2d_48">
    <path d="M 338.688 30.334099 
L 369.60768 121.661465 
" style="fill:none;stroke:#ff00ff;stroke-linecap:square;stroke-width:1.5;"/>
    <g>
     <use style="fill-opacity:0;stroke:#ff00ff;stroke-linejoin:miter;stroke-width:1.5;" x="338.688" xlink:href="#mea3760e26b" y="30.334099"/>
     <use style="fill-opacity:0;stroke:#ff00ff;stroke-linejoin:miter;stroke-width:1.5;" x="369.60768" xlink:href="#mea3760e26b" y="121.661465"/>
    </g>
   </g>
   <g id="line2d_49">
    <path d="M 338.688 298.944 
L 338.688 30.334099 
" style="fill:none;stroke:#000000;stroke-linecap:square;stroke-width:1.5;"/>
   </g>
   <g id="patch_3">
    <path d="M 57.6 298.944 
L 57.6 27.648 
" style="fill:none;stroke:#000000;stroke-linecap:square;stroke-linejoin:miter;stroke-width:0.8;"/>
   </g>
   <g id="patch_4">
    <path d="M 338.688 298.944 
L 338.688 27.648 
" style="fill:none;stroke:#000000;stroke-linecap:square;stroke-linejoin:miter;stroke-width:0.8;"/>
   </g>
   <g id="patch_5">
    <path d="M 57.6 298.944 
L 338.688 298.944 
" style="fill:none;stroke:#000000;stroke-linecap:square;stroke-linejoin:miter;stroke-width:0.8;"/>
   </g>
   <g id="patch_6">
    <path d="M 57.6 27.648 
L 338.688 27.648 
" style="fill:none;stroke:#000000;stroke-linecap:square;stroke-linejoin:miter;stroke-width:0.8;"/>
   </g>
   <g id="text_13">
    <!-- DEPSO -->
    <defs>
     <path d="M 19.671875 64.796875 
L 19.671875 8.109375 
L 31.59375 8.109375 
Q 46.6875 8.109375 53.6875 14.9375 
Q 60.6875 21.78125 60.6875 36.53125 
Q 60.6875 51.171875 53.6875 57.984375 
Q 46.6875 64.796875 31.59375 64.796875 
z
M 9.8125 72.90625 
L 30.078125 72.90625 
Q 51.265625 72.90625 61.171875 64.09375 
Q 71.09375 55.28125 71.09375 36.53125 
Q 71.09375 17.671875 61.125 8.828125 
Q 51.171875 0 30.078125 0 
L 9.8125 0 
z
" id="DejaVuSans-68"/>
     <path d="M 9.8125 72.90625 
L 55.90625 72.90625 
L 55.90625 64.59375 
L 19.671875 64.59375 
L 19.671875 43.015625 
L 54.390625 43.015625 
L 54.390625 34.71875 
L 19.671875 34.71875 
L 19.671875 8.296875 
L 56.78125 8.296875 
L 56.78125 0 
L 9.8125 0 
z
" id="DejaVuSans-69"/>
     <path d="M 19.671875 64.796875 
L 19.671875 37.40625 
L 32.078125 37.40625 
Q 38.96875 37.40625 42.71875 40.96875 
Q 46.484375 44.53125 46.484375 51.125 
Q 46.484375 57.671875 42.71875 61.234375 
Q 38.96875 64.796875 32.078125 64.796875 
z
M 9.8125 72.90625 
L 32.078125 72.90625 
Q 44.34375 72.90625 50.609375 67.359375 
Q 56.890625 61.8125 56.890625 51.125 
Q 56.890625 40.328125 50.609375 34.8125 
Q 44.34375 29.296875 32.078125 29.296875 
L 19.671875 29.296875 
L 19.671875 0 
L 9.8125 0 
z
" id="DejaVuSans-80"/>
     <path d="M 53.515625 70.515625 
L 53.515625 60.890625 
Q 47.90625 63.578125 42.921875 64.890625 
Q 37.9375 66.21875 33.296875 66.21875 
Q 25.25 66.21875 20.875 63.09375 
Q 16.5 59.96875 16.5 54.203125 
Q 16.5 49.359375 19.40625 46.890625 
Q 22.3125 44.4375 30.421875 42.921875 
L 36.375 41.703125 
Q 47.40625 39.59375 52.65625 34.296875 
Q 57.90625 29 57.90625 20.125 
Q 57.90625 9.515625 50.796875 4.046875 
Q 43.703125 -1.421875 29.984375 -1.421875 
Q 24.8125 -1.421875 18.96875 -0.25 
Q 13.140625 0.921875 6.890625 3.21875 
L 6.890625 13.375 
Q 12.890625 10.015625 18.65625 8.296875 
Q 24.421875 6.59375 29.984375 6.59375 
Q 38.421875 6.59375 43.015625 9.90625 
Q 47.609375 13.234375 47.609375 19.390625 
Q 47.609375 24.75 44.3125 27.78125 
Q 41.015625 30.8125 33.5 32.328125 
L 27.484375 33.5 
Q 16.453125 35.6875 11.515625 40.375 
Q 6.59375 45.0625 6.59375 53.421875 
Q 6.59375 63.09375 13.40625 68.65625 
Q 20.21875 74.21875 32.171875 74.21875 
Q 37.3125 74.21875 42.625 73.28125 
Q 47.953125 72.359375 53.515625 70.515625 
z
" id="DejaVuSans-83"/>
     <path d="M 39.40625 66.21875 
Q 28.65625 66.21875 22.328125 58.203125 
Q 16.015625 50.203125 16.015625 36.375 
Q 16.015625 22.609375 22.328125 14.59375 
Q 28.65625 6.59375 39.40625 6.59375 
Q 50.140625 6.59375 56.421875 14.59375 
Q 62.703125 22.609375 62.703125 36.375 
Q 62.703125 50.203125 56.421875 58.203125 
Q 50.140625 66.21875 39.40625 66.21875 
z
M 39.40625 74.21875 
Q 54.734375 74.21875 63.90625 63.9375 
Q 73.09375 53.65625 73.09375 36.375 
Q 73.09375 19.140625 63.90625 8.859375 
Q 54.734375 -1.421875 39.40625 -1.421875 
Q 24.03125 -1.421875 14.8125 8.828125 
Q 5.609375 19.09375 5.609375 36.375 
Q 5.609375 53.65625 14.8125 63.9375 
Q 24.03125 74.21875 39.40625 74.21875 
z
" id="DejaVuSans-79"/>
    </defs>
    <g transform="translate(375.22944 298.262739)scale(0.17 -0.17)">
     <use xlink:href="#DejaVuSans-68"/>
     <use x="77.001953" xlink:href="#DejaVuSans-69"/>
     <use x="140.185547" xlink:href="#DejaVuSans-80"/>
     <use x="200.488281" xlink:href="#DejaVuSans-83"/>
     <use x="263.964844" xlink:href="#DejaVuSans-79"/>
    </g>
   </g>
   <g id="text_14">
    <!-- PSO -->
    <g transform="translate(375.22944 212.307571)scale(0.17 -0.17)">
     <use xlink:href="#DejaVuSans-80"/>
     <use x="60.302734" xlink:href="#DejaVuSans-83"/>
     <use x="123.779297" xlink:href="#DejaVuSans-79"/>
    </g>
   </g>
   <g id="text_15">
    <!-- DE -->
    <g transform="translate(375.22944 126.352403)scale(0.17 -0.17)">
     <use xlink:href="#DejaVuSans-68"/>
     <use x="77.001953" xlink:href="#DejaVuSans-69"/>
    </g>
   </g>
   <g id="text_16">
    <!-- best 2009 -->
    <defs>
     <path d="M 48.6875 27.296875 
Q 48.6875 37.203125 44.609375 42.84375 
Q 40.53125 48.484375 33.40625 48.484375 
Q 26.265625 48.484375 22.1875 42.84375 
Q 18.109375 37.203125 18.109375 27.296875 
Q 18.109375 17.390625 22.1875 11.75 
Q 26.265625 6.109375 33.40625 6.109375 
Q 40.53125 6.109375 44.609375 11.75 
Q 48.6875 17.390625 48.6875 27.296875 
z
M 18.109375 46.390625 
Q 20.953125 51.265625 25.265625 53.625 
Q 29.59375 56 35.59375 56 
Q 45.5625 56 51.78125 48.09375 
Q 58.015625 40.1875 58.015625 27.296875 
Q 58.015625 14.40625 51.78125 6.484375 
Q 45.5625 -1.421875 35.59375 -1.421875 
Q 29.59375 -1.421875 25.265625 0.953125 
Q 20.953125 3.328125 18.109375 8.203125 
L 18.109375 0 
L 9.078125 0 
L 9.078125 75.984375 
L 18.109375 75.984375 
z
" id="DejaVuSans-98"/>
     <path d="M 10.984375 1.515625 
L 10.984375 10.5 
Q 14.703125 8.734375 18.5 7.8125 
Q 22.3125 6.890625 25.984375 6.890625 
Q 35.75 6.890625 40.890625 13.453125 
Q 46.046875 20.015625 46.78125 33.40625 
Q 43.953125 29.203125 39.59375 26.953125 
Q 35.25 24.703125 29.984375 24.703125 
Q 19.046875 24.703125 12.671875 31.3125 
Q 6.296875 37.9375 6.296875 49.421875 
Q 6.296875 60.640625 12.9375 67.421875 
Q 19.578125 74.21875 30.609375 74.21875 
Q 43.265625 74.21875 49.921875 64.515625 
Q 56.59375 54.828125 56.59375 36.375 
Q 56.59375 19.140625 48.40625 8.859375 
Q 40.234375 -1.421875 26.421875 -1.421875 
Q 22.703125 -1.421875 18.890625 -0.6875 
Q 15.09375 0.046875 10.984375 1.515625 
z
M 30.609375 32.421875 
Q 37.25 32.421875 41.125 36.953125 
Q 45.015625 41.5 45.015625 49.421875 
Q 45.015625 57.28125 41.125 61.84375 
Q 37.25 66.40625 30.609375 66.40625 
Q 23.96875 66.40625 20.09375 61.84375 
Q 16.21875 57.28125 16.21875 49.421875 
Q 16.21875 41.5 20.09375 36.953125 
Q 23.96875 32.421875 30.609375 32.421875 
z
" id="DejaVuSans-57"/>
    </defs>
    <g transform="translate(375.22944 40.397235)scale(0.17 -0.17)">
     <use xlink:href="#DejaVuSans-98"/>
     <use x="63.476562" xlink:href="#DejaVuSans-101"/>
     <use x="125" xlink:href="#DejaVuSans-115"/>
     <use x="177.099609" xlink:href="#DejaVuSans-116"/>
     <use x="216.308594" xlink:href="#DejaVuSans-32"/>
     <use x="248.095703" xlink:href="#DejaVuSans-50"/>
     <use x="311.71875" xlink:href="#DejaVuSans-48"/>
     <use x="375.341797" xlink:href="#DejaVuSans-48"/>
     <use x="438.964844" xlink:href="#DejaVuSans-57"/>
    </g>
   </g>
   <g id="text_17">
    <!-- bbob f1, 3-D -->
    <defs>
     <path d="M 40.578125 39.3125 
Q 47.65625 37.796875 51.625 33 
Q 55.609375 28.21875 55.609375 21.1875 
Q 55.609375 10.40625 48.1875 4.484375 
Q 40.765625 -1.421875 27.09375 -1.421875 
Q 22.515625 -1.421875 17.65625 -0.515625 
Q 12.796875 0.390625 7.625 2.203125 
L 7.625 11.71875 
Q 11.71875 9.328125 16.59375 8.109375 
Q 21.484375 6.890625 26.8125 6.890625 
Q 36.078125 6.890625 40.9375 10.546875 
Q 45.796875 14.203125 45.796875 21.1875 
Q 45.796875 27.640625 41.28125 31.265625 
Q 36.765625 34.90625 28.71875 34.90625 
L 20.21875 34.90625 
L 20.21875 43.015625 
L 29.109375 43.015625 
Q 36.375 43.015625 40.234375 45.921875 
Q 44.09375 48.828125 44.09375 54.296875 
Q 44.09375 59.90625 40.109375 62.90625 
Q 36.140625 65.921875 28.71875 65.921875 
Q 24.65625 65.921875 20.015625 65.03125 
Q 15.375 64.15625 9.8125 62.3125 
L 9.8125 71.09375 
Q 15.4375 72.65625 20.34375 73.4375 
Q 25.25 74.21875 29.59375 74.21875 
Q 40.828125 74.21875 47.359375 69.109375 
Q 53.90625 64.015625 53.90625 55.328125 
Q 53.90625 49.265625 50.4375 45.09375 
Q 46.96875 40.921875 40.578125 39.3125 
z
" id="DejaVuSans-51"/>
    </defs>
    <g transform="translate(60.41088 38.111366)scale(0.102 -0.102)">
     <use xlink:href="#DejaVuSans-98"/>
     <use x="63.476562" xlink:href="#DejaVuSans-98"/>
     <use x="126.953125" xlink:href="#DejaVuSans-111"/>
     <use x="188.134766" xlink:href="#DejaVuSans-98"/>
     <use x="251.611328" xlink:href="#DejaVuSans-32"/>
     <use x="283.398438" xlink:href="#DejaVuSans-102"/>
     <use x="318.603516" xlink:href="#DejaVuSans-49"/>
     <use x="382.226562" xlink:href="#DejaVuSans-44"/>
     <use x="414.013672" xlink:href="#DejaVuSans-32"/>
     <use x="445.800781" xlink:href="#DejaVuSans-51"/>
     <use x="509.423828" xlink:href="#DejaVuSans-45"/>
     <use x="545.507812" xlink:href="#DejaVuSans-68"/>
    </g>
    <!-- 51 targets: 100..1e-08 -->
    <defs>
     <path d="M 10.796875 72.90625 
L 49.515625 72.90625 
L 49.515625 64.59375 
L 19.828125 64.59375 
L 19.828125 46.734375 
Q 21.96875 47.46875 24.109375 47.828125 
Q 26.265625 48.1875 28.421875 48.1875 
Q 40.625 48.1875 47.75 41.5 
Q 54.890625 34.8125 54.890625 23.390625 
Q 54.890625 11.625 47.5625 5.09375 
Q 40.234375 -1.421875 26.90625 -1.421875 
Q 22.3125 -1.421875 17.546875 -0.640625 
Q 12.796875 0.140625 7.71875 1.703125 
L 7.71875 11.625 
Q 12.109375 9.234375 16.796875 8.0625 
Q 21.484375 6.890625 26.703125 6.890625 
Q 35.15625 6.890625 40.078125 11.328125 
Q 45.015625 15.765625 45.015625 23.390625 
Q 45.015625 31 40.078125 35.4375 
Q 35.15625 39.890625 26.703125 39.890625 
Q 22.75 39.890625 18.8125 39.015625 
Q 14.890625 38.140625 10.796875 36.28125 
z
" id="DejaVuSans-53"/>
     <path d="M 11.71875 12.40625 
L 22.015625 12.40625 
L 22.015625 0 
L 11.71875 0 
z
M 11.71875 51.703125 
L 22.015625 51.703125 
L 22.015625 39.3125 
L 11.71875 39.3125 
z
" id="DejaVuSans-58"/>
    </defs>
    <g transform="translate(60.41088 49.533135)scale(0.102 -0.102)">
     <use xlink:href="#DejaVuSans-53"/>
     <use x="63.623047" xlink:href="#DejaVuSans-49"/>
     <use x="127.246094" xlink:href="#DejaVuSans-32"/>
     <use x="159.033203" xlink:href="#DejaVuSans-116"/>
     <use x="198.242188" xlink:href="#DejaVuSans-97"/>
     <use x="259.521484" xlink:href="#DejaVuSans-114"/>
     <use x="298.884766" xlink:href="#DejaVuSans-103"/>
     <use x="362.361328" xlink:href="#DejaVuSans-101"/>
     <use x="423.884766" xlink:href="#DejaVuSans-116"/>
     <use x="463.09375" xlink:href="#DejaVuSans-115"/>
     <use x="515.193359" xlink:href="#DejaVuSans-58"/>
     <use x="548.884766" xlink:href="#DejaVuSans-32"/>
     <use x="580.671875" xlink:href="#DejaVuSans-49"/>
     <use x="644.294922" xlink:href="#DejaVuSans-48"/>
     <use x="707.917969" xlink:href="#DejaVuSans-48"/>
     <use x="771.541016" xlink:href="#DejaVuSans-46"/>
     <use x="803.328125" xlink:href="#DejaVuSans-46"/>
     <use x="835.115234" xlink:href="#DejaVuSans-49"/>
     <use x="898.738281" xlink:href="#DejaVuSans-101"/>
     <use x="960.261719" xlink:href="#DejaVuSans-45"/>
     <use x="996.345703" xlink:href="#DejaVuSans-48"/>
     <use x="1059.96875" xlink:href="#DejaVuSans-56"/>
    </g>
    <!-- 15 instances -->
    <g transform="translate(60.41088 60.954904)scale(0.102 -0.102)">
     <use xlink:href="#DejaVuSans-49"/>
     <use x="63.623047" xlink:href="#DejaVuSans-53"/>
     <use x="127.246094" xlink:href="#DejaVuSans-32"/>
     <use x="159.033203" xlink:href="#DejaVuSans-105"/>
     <use x="186.816406" xlink:href="#DejaVuSans-110"/>
     <use x="250.195312" xlink:href="#DejaVuSans-115"/>
     <use x="302.294922" xlink:href="#DejaVuSans-116"/>
     <use x="341.503906" xlink:href="#DejaVuSans-97"/>
     <use x="402.783203" xlink:href="#DejaVuSans-110"/>
     <use x="466.162109" xlink:href="#DejaVuSans-99"/>
     <use x="521.142578" xlink:href="#DejaVuSans-101"/>
     <use x="582.666016" xlink:href="#DejaVuSans-115"/>
    </g>
   </g>
   <g id="text_18">
    <!-- v2.4 -->
    <g style="fill:#808080;" transform="translate(187.233062 294.151352)scale(0.1 -0.1)">
     <use xlink:href="#DejaVuSans-118"/>
     <use x="59.179688" xlink:href="#DejaVuSans-50"/>
     <use x="122.802734" xlink:href="#DejaVuSans-46"/>
     <use x="154.589844" xlink:href="#DejaVuSans-52"/>
    </g>
   </g>
   <g id="text_19">
    <!-- 1 Sphere -->
    <defs>
     <path d="M 54.890625 33.015625 
L 54.890625 0 
L 45.90625 0 
L 45.90625 32.71875 
Q 45.90625 40.484375 42.875 44.328125 
Q 39.84375 48.1875 33.796875 48.1875 
Q 26.515625 48.1875 22.3125 43.546875 
Q 18.109375 38.921875 18.109375 30.90625 
L 18.109375 0 
L 9.078125 0 
L 9.078125 75.984375 
L 18.109375 75.984375 
L 18.109375 46.1875 
Q 21.34375 51.125 25.703125 53.5625 
Q 30.078125 56 35.796875 56 
Q 45.21875 56 50.046875 50.171875 
Q 54.890625 44.34375 54.890625 33.015625 
z
" id="DejaVuSans-104"/>
    </defs>
    <g transform="translate(153.376812 21.648)scale(0.2 -0.2)">
     <use xlink:href="#DejaVuSans-49"/>
     <use x="63.623047" xlink:href="#DejaVuSans-32"/>
     <use x="95.410156" xlink:href="#DejaVuSans-83"/>
     <use x="158.886719" xlink:href="#DejaVuSans-112"/>
     <use x="222.363281" xlink:href="#DejaVuSans-104"/>
     <use x="285.742188" xlink:href="#DejaVuSans-101"/>
     <use x="347.265625" xlink:href="#DejaVuSans-114"/>
     <use x="386.128906" xlink:href="#DejaVuSans-101"/>
    </g>
   </g>
  </g>
 </g>
 <defs>
  <clipPath id="pfcb5570458">
   <rect height="271.296" width="281.088" x="57.6" y="27.648"/>
  </clipPath>
 </defs>
</svg>
