<?xml version="1.0" encoding="utf-8" standalone="no"?>
<!DOCTYPE svg PUBLIC "-//W3C//DTD SVG 1.1//EN"
  "http://www.w3.org/Graphics/SVG/1.1/DTD/svg11.dtd">
<!-- Created with matplotlib (https://matplotlib.org/) -->
<svg height="345.6pt" version="1.1" viewBox="0 0 460.8 345.6" width="460.8pt" xmlns="http://www.w3.org/2000/svg" xmlns:xlink="http://www.w3.org/1999/xlink">
 <defs>
  <style type="text/css">
*{stroke-linecap:butt;stroke-linejoin:round;}
  </style>
 </defs>
 <g id="figure_1">
  <g id="patch_1">
   <path d="M 0 345.6 
L 460.8 345.6 
L 460.8 0 
L 0 0 
z
" style="fill:#ffffff;"/>
  </g>
  <g id="axes_1">
   <g id="patch_2">
    <path d="M 57.6 298.944 
L 338.688 298.944 
L 338.688 27.648 
L 57.6 27.648 
z
" style="fill:#ffffff;"/>
   </g>
   <g id="line2d_1">
    <path d="M 29.53256 298.944 
L 29.53256 293.677139 
L 48.691568 293.677139 
L 48.691568 288.410278 
L 63.467834 288.410278 
L 63.467834 283.143418 
L 81.775977 283.143418 
L 81.775977 277.876557 
L 100.343767 277.876557 
L 100.343767 272.609696 
L 110.358901 272.609696 
L 110.358901 267.342835 
L 116.443076 267.342835 
L 116.443076 262.075974 
L 121.400219 262.075974 
L 121.400219 256.809114 
L 125.255688 256.809114 
L 125.255688 251.542253 
L 130.018593 251.542253 
L 130.018593 246.275392 
L 133.032848 246.275392 
L 133.032848 241.008531 
L 136.189322 241.008531 
L 136.189322 235.74167 
L 138.828032 235.74167 
L 138.828032 230.47481 
L 160.708377 230.47481 
L 160.708377 225.207949 
L 173.412888 225.207949 
L 173.412888 219.941088 
L 174.034747 219.941088 
L 174.034747 214.674227 
L 180.339082 214.674227 
L 180.339082 209.407366 
L 183.423468 209.407366 
L 183.423468 204.140506 
L 185.655047 204.140506 
L 185.655047 198.873645 
L 186.373634 198.873645 
L 186.373634 193.606784 
L 187.219238 193.606784 
L 187.219238 188.339923 
L 187.412143 188.339923 
L 187.412143 183.073062 
L 187.665404 183.073062 
L 187.665404 177.806202 
L 187.805641 177.806202 
L 187.805641 172.539341 
L 188.536373 172.539341 
L 188.536373 167.27248 
L 188.851149 167.27248 
L 188.851149 162.005619 
L 189.554635 162.005619 
L 189.554635 156.738758 
L 189.702015 156.738758 
L 189.702015 151.471897 
L 190.463676 151.471897 
L 190.463676 146.205037 
L 190.610398 146.205037 
L 190.610398 140.938176 
L 190.801325 140.938176 
L 190.801325 135.671315 
L 190.93691 135.671315 
L 190.93691 130.404454 
L 191.094597 130.404454 
L 191.094597 125.137593 
L 191.288497 125.137593 
L 191.288497 119.870733 
L 191.456004 119.870733 
L 191.456004 114.603872 
L 191.665149 114.603872 
L 191.665149 109.337011 
L 191.81483 109.337011 
L 191.81483 104.07015 
L 191.980521 104.07015 
L 191.980521 98.803289 
L 192.088553 98.803289 
L 192.088553 93.536429 
L 193.112994 93.536429 
L 193.112994 88.269568 
L 193.196686 88.269568 
L 193.196686 83.002707 
L 193.332378 83.002707 
L 193.332378 77.735846 
L 193.571988 77.735846 
L 193.571988 72.468985 
L 193.726129 72.468985 
L 193.726129 67.202125 
L 193.87892 67.202125 
L 193.87892 61.935264 
L 194.002434 61.935264 
L 194.002434 56.668403 
L 194.097281 56.668403 
L 194.097281 51.401542 
L 194.187464 51.401542 
L 194.187464 46.134681 
L 194.288194 46.134681 
L 194.288194 40.867821 
L 194.373291 40.867821 
L 194.373291 35.60096 
L 194.463423 35.60096 
L 194.463423 30.334099 
L 338.688 30.334099 
" style="fill:none;stroke:#f5deb3;stroke-linecap:square;stroke-width:4;"/>
   </g>
   <g id="line2d_2">
    <defs>
     <path d="M -0 7.778175 
L 7.778175 0 
L 0 -7.778175 
L -7.778175 -0 
z
" id="m674d8d33b1" style="stroke:#f5deb3;stroke-linejoin:miter;stroke-width:1.5;"/>
    </defs>
    <g>
     <use style="fill:#f5deb3;stroke:#f5deb3;stroke-linejoin:miter;stroke-width:1.5;" x="81.775977" xlink:href="#m674d8d33b1" y="283.143418"/>
     <use style="fill:#f5deb3;stroke:#f5deb3;stroke-linejoin:miter;stroke-width:1.5;" x="160.708377" xlink:href="#m674d8d33b1" y="225.207949"/>
     <use style="fill:#f5deb3;stroke:#f5deb3;stroke-linejoin:miter;stroke-width:1.5;" x="191.665149" xlink:href="#m674d8d33b1" y="114.603872"/>
     <use style="fill:#f5deb3;stroke:#f5deb3;stroke-linejoin:miter;stroke-width:1.5;" x="194.463423" xlink:href="#m674d8d33b1" y="35.60096"/>
     <use style="fill:#f5deb3;stroke:#f5deb3;stroke-linejoin:miter;stroke-width:1.5;" x="194.463423" xlink:href="#m674d8d33b1" y="30.334099"/>
     <use style="fill:#f5deb3;stroke:#f5deb3;stroke-linejoin:miter;stroke-width:1.5;" x="338.688" xlink:href="#m674d8d33b1" y="30.334099"/>
    </g>
   </g>
   <g id="line2d_3">
    <path style="fill:none;stroke:#f5deb3;stroke-linecap:square;stroke-width:4;"/>
    <g/>
   </g>
   <g id="line2d_4">
    <path d="M 338.688 30.334099 
L 369.60768 35.706297 
" style="fill:none;stroke:#f5deb3;stroke-linecap:square;stroke-width:4;"/>
    <g>
     <use style="fill:#f5deb3;stroke:#f5deb3;stroke-linejoin:miter;stroke-width:1.5;" x="338.688" xlink:href="#m674d8d33b1" y="30.334099"/>
     <use style="fill:#f5deb3;stroke:#f5deb3;stroke-linejoin:miter;stroke-width:1.5;" x="369.60768" xlink:href="#m674d8d33b1" y="35.706297"/>
    </g>
   </g>
   <g id="matplotlib.axis_1">
    <g id="xtick_1">
     <g id="line2d_5">
      <path clip-path="url(#p0e883125ac)" d="M 57.6 298.944 
L 57.6 27.648 
" style="fill:none;stroke:#b0b0b0;stroke-linecap:square;stroke-width:0.8;"/>
     </g>
     <g id="line2d_6">
      <defs>
       <path d="M 0 0 
L 0 3.5 
" id="m4a409c744e" style="stroke:#000000;stroke-width:0.8;"/>
      </defs>
      <g>
       <use style="stroke:#000000;stroke-width:0.8;" x="57.6" xlink:href="#m4a409c744e" y="298.944"/>
      </g>
     </g>
     <g id="text_1">
      <!-- 0 -->
      <defs>
       <path d="M 31.78125 66.40625 
Q 24.171875 66.40625 20.328125 58.90625 
Q 16.5 51.421875 16.5 36.375 
Q 16.5 21.390625 20.328125 13.890625 
Q 24.171875 6.390625 31.78125 6.390625 
Q 39.453125 6.390625 43.28125 13.890625 
Q 47.125 21.390625 47.125 36.375 
Q 47.125 51.421875 43.28125 58.90625 
Q 39.453125 66.40625 31.78125 66.40625 
z
M 31.78125 74.21875 
Q 44.046875 74.21875 50.515625 64.515625 
Q 56.984375 54.828125 56.984375 36.375 
Q 56.984375 17.96875 50.515625 8.265625 
Q 44.046875 -1.421875 31.78125 -1.421875 
Q 19.53125 -1.421875 13.0625 8.265625 
Q 6.59375 17.96875 6.59375 36.375 
Q 6.59375 54.828125 13.0625 64.515625 
Q 19.53125 74.21875 31.78125 74.21875 
z
" id="DejaVuSans-48"/>
      </defs>
      <g transform="translate(51.2375 321.140875)scale(0.2 -0.2)">
       <use xlink:href="#DejaVuSans-48"/>
      </g>
     </g>
    </g>
    <g id="xtick_2">
     <g id="line2d_7">
      <path clip-path="url(#p0e883125ac)" d="M 137.910857 298.944 
L 137.910857 27.648 
" style="fill:none;stroke:#b0b0b0;stroke-linecap:square;stroke-width:0.8;"/>
     </g>
     <g id="line2d_8">
      <g>
       <use style="stroke:#000000;stroke-width:0.8;" x="137.910857" xlink:href="#m4a409c744e" y="298.944"/>
      </g>
     </g>
     <g id="text_2">
      <!-- 2 -->
      <defs>
       <path d="M 19.1875 8.296875 
L 53.609375 8.296875 
L 53.609375 0 
L 7.328125 0 
L 7.328125 8.296875 
Q 12.9375 14.109375 22.625 23.890625 
Q 32.328125 33.6875 34.8125 36.53125 
Q 39.546875 41.84375 41.421875 45.53125 
Q 43.3125 49.21875 43.3125 52.78125 
Q 43.3125 58.59375 39.234375 62.25 
Q 35.15625 65.921875 28.609375 65.921875 
Q 23.96875 65.921875 18.8125 64.3125 
Q 13.671875 62.703125 7.8125 59.421875 
L 7.8125 69.390625 
Q 13.765625 71.78125 18.9375 73 
Q 24.125 74.21875 28.421875 74.21875 
Q 39.75 74.21875 46.484375 68.546875 
Q 53.21875 62.890625 53.21875 53.421875 
Q 53.21875 48.921875 51.53125 44.890625 
Q 49.859375 40.875 45.40625 35.40625 
Q 44.1875 33.984375 37.640625 27.21875 
Q 31.109375 20.453125 19.1875 8.296875 
z
" id="DejaVuSans-50"/>
      </defs>
      <g transform="translate(131.548357 321.140875)scale(0.2 -0.2)">
       <use xlink:href="#DejaVuSans-50"/>
      </g>
     </g>
    </g>
    <g id="xtick_3">
     <g id="line2d_9">
      <path clip-path="url(#p0e883125ac)" d="M 218.221714 298.944 
L 218.221714 27.648 
" style="fill:none;stroke:#b0b0b0;stroke-linecap:square;stroke-width:0.8;"/>
     </g>
     <g id="line2d_10">
      <g>
       <use style="stroke:#000000;stroke-width:0.8;" x="218.221714" xlink:href="#m4a409c744e" y="298.944"/>
      </g>
     </g>
     <g id="text_3">
      <!-- 4 -->
      <defs>
       <path d="M 37.796875 64.3125 
L 12.890625 25.390625 
L 37.796875 25.390625 
z
M 35.203125 72.90625 
L 47.609375 72.90625 
L 47.609375 25.390625 
L 58.015625 25.390625 
L 58.015625 17.1875 
L 47.609375 17.1875 
L 47.609375 0 
L 37.796875 0 
L 37.796875 17.1875 
L 4.890625 17.1875 
L 4.890625 26.703125 
z
" id="DejaVuSans-52"/>
      </defs>
      <g transform="translate(211.859214 321.140875)scale(0.2 -0.2)">
       <use xlink:href="#DejaVuSans-52"/>
      </g>
     </g>
    </g>
    <g id="xtick_4">
     <g id="line2d_11">
      <path clip-path="url(#p0e883125ac)" d="M 298.532571 298.944 
L 298.532571 27.648 
" style="fill:none;stroke:#b0b0b0;stroke-linecap:square;stroke-width:0.8;"/>
     </g>
     <g id="line2d_12">
      <g>
       <use style="stroke:#000000;stroke-width:0.8;" x="298.532571" xlink:href="#m4a409c744e" y="298.944"/>
      </g>
     </g>
     <g id="text_4">
      <!-- 6 -->
      <defs>
       <path d="M 33.015625 40.375 
Q 26.375 40.375 22.484375 35.828125 
Q 18.609375 31.296875 18.609375 23.390625 
Q 18.609375 15.53125 22.484375 10.953125 
Q 26.375 6.390625 33.015625 6.390625 
Q 39.65625 6.390625 43.53125 10.953125 
Q 47.40625 15.53125 47.40625 23.390625 
Q 47.40625 31.296875 43.53125 35.828125 
Q 39.65625 40.375 33.015625 40.375 
z
M 52.59375 71.296875 
L 52.59375 62.3125 
Q 48.875 64.0625 45.09375 64.984375 
Q 41.3125 65.921875 37.59375 65.921875 
Q 27.828125 65.921875 22.671875 59.328125 
Q 17.53125 52.734375 16.796875 39.40625 
Q 19.671875 43.65625 24.015625 45.921875 
Q 28.375 48.1875 33.59375 48.1875 
Q 44.578125 48.1875 50.953125 41.515625 
Q 57.328125 34.859375 57.328125 23.390625 
Q 57.328125 12.15625 50.6875 5.359375 
Q 44.046875 -1.421875 33.015625 -1.421875 
Q 20.359375 -1.421875 13.671875 8.265625 
Q 6.984375 17.96875 6.984375 36.375 
Q 6.984375 53.65625 15.1875 63.9375 
Q 23.390625 74.21875 37.203125 74.21875 
Q 40.921875 74.21875 44.703125 73.484375 
Q 48.484375 72.75 52.59375 71.296875 
z
" id="DejaVuSans-54"/>
      </defs>
      <g transform="translate(292.170071 321.140875)scale(0.2 -0.2)">
       <use xlink:href="#DejaVuSans-54"/>
      </g>
     </g>
    </g>
    <g id="xtick_5">
     <g id="line2d_13">
      <path clip-path="url(#p0e883125ac)" d="M 97.755429 298.944 
L 97.755429 27.648 
" style="fill:none;stroke:#b0b0b0;stroke-linecap:square;stroke-width:0.8;"/>
     </g>
     <g id="line2d_14">
      <defs>
       <path d="M 0 0 
L 0 2 
" id="m5047f0417d" style="stroke:#000000;stroke-width:0.6;"/>
      </defs>
      <g>
       <use style="stroke:#000000;stroke-width:0.6;" x="97.755429" xlink:href="#m5047f0417d" y="298.944"/>
      </g>
     </g>
    </g>
    <g id="xtick_6">
     <g id="line2d_15">
      <path clip-path="url(#p0e883125ac)" d="M 178.066286 298.944 
L 178.066286 27.648 
" style="fill:none;stroke:#b0b0b0;stroke-linecap:square;stroke-width:0.8;"/>
     </g>
     <g id="line2d_16">
      <g>
       <use style="stroke:#000000;stroke-width:0.6;" x="178.066286" xlink:href="#m5047f0417d" y="298.944"/>
      </g>
     </g>
    </g>
    <g id="xtick_7">
     <g id="line2d_17">
      <path clip-path="url(#p0e883125ac)" d="M 258.377143 298.944 
L 258.377143 27.648 
" style="fill:none;stroke:#b0b0b0;stroke-linecap:square;stroke-width:0.8;"/>
     </g>
     <g id="line2d_18">
      <g>
       <use style="stroke:#000000;stroke-width:0.6;" x="258.377143" xlink:href="#m5047f0417d" y="298.944"/>
      </g>
     </g>
    </g>
    <g id="xtick_8">
     <g id="line2d_19">
      <path clip-path="url(#p0e883125ac)" d="M 338.688 298.944 
L 338.688 27.648 
" style="fill:none;stroke:#b0b0b0;stroke-linecap:square;stroke-width:0.8;"/>
     </g>
     <g id="line2d_20">
      <g>
       <use style="stroke:#000000;stroke-width:0.6;" x="338.688" xlink:href="#m5047f0417d" y="298.944"/>
      </g>
     </g>
    </g>
    <g id="text_5">
     <!-- log10(# f-evals / dimension) -->
     <defs>
      <path d="M 9.421875 75.984375 
L 18.40625 75.984375 
L 18.40625 0 
L 9.421875 0 
z
" id="DejaVuSans-108"/>
      <path d="M 30.609375 48.390625 
Q 23.390625 48.390625 19.1875 42.75 
Q 14.984375 37.109375 14.984375 27.296875 
Q 14.984375 17.484375 19.15625 11.84375 
Q 23.34375 6.203125 30.609375 6.203125 
Q 37.796875 6.203125 41.984375 11.859375 
Q 46.1875 17.53125 46.1875 27.296875 
Q 46.1875 37.015625 41.984375 42.703125 
Q 37.796875 48.390625 30.609375 48.390625 
z
M 30.609375 56 
Q 42.328125 56 49.015625 48.375 
Q 55.71875 40.765625 55.71875 27.296875 
Q 55.71875 13.875 49.015625 6.21875 
Q 42.328125 -1.421875 30.609375 -1.421875 
Q 18.84375 -1.421875 12.171875 6.21875 
Q 5.515625 13.875 5.515625 27.296875 
Q 5.515625 40.765625 12.171875 48.375 
Q 18.84375 56 30.609375 56 
z
" id="DejaVuSans-111"/>
      <path d="M 45.40625 27.984375 
Q 45.40625 37.75 41.375 43.109375 
Q 37.359375 48.484375 30.078125 48.484375 
Q 22.859375 48.484375 18.828125 43.109375 
Q 14.796875 37.75 14.796875 27.984375 
Q 14.796875 18.265625 18.828125 12.890625 
Q 22.859375 7.515625 30.078125 7.515625 
Q 37.359375 7.515625 41.375 12.890625 
Q 45.40625 18.265625 45.40625 27.984375 
z
M 54.390625 6.78125 
Q 54.390625 -7.171875 48.1875 -13.984375 
Q 42 -20.796875 29.203125 -20.796875 
Q 24.46875 -20.796875 20.265625 -20.09375 
Q 16.0625 -19.390625 12.109375 -17.921875 
L 12.109375 -9.1875 
Q 16.0625 -11.328125 19.921875 -12.34375 
Q 23.78125 -13.375 27.78125 -13.375 
Q 36.625 -13.375 41.015625 -8.765625 
Q 45.40625 -4.15625 45.40625 5.171875 
L 45.40625 9.625 
Q 42.625 4.78125 38.28125 2.390625 
Q 33.9375 0 27.875 0 
Q 17.828125 0 11.671875 7.65625 
Q 5.515625 15.328125 5.515625 27.984375 
Q 5.515625 40.671875 11.671875 48.328125 
Q 17.828125 56 27.875 56 
Q 33.9375 56 38.28125 53.609375 
Q 42.625 51.21875 45.40625 46.390625 
L 45.40625 54.6875 
L 54.390625 54.6875 
z
" id="DejaVuSans-103"/>
      <path d="M 12.40625 8.296875 
L 28.515625 8.296875 
L 28.515625 63.921875 
L 10.984375 60.40625 
L 10.984375 69.390625 
L 28.421875 72.90625 
L 38.28125 72.90625 
L 38.28125 8.296875 
L 54.390625 8.296875 
L 54.390625 0 
L 12.40625 0 
z
" id="DejaVuSans-49"/>
      <path d="M 31 75.875 
Q 24.46875 64.65625 21.28125 53.65625 
Q 18.109375 42.671875 18.109375 31.390625 
Q 18.109375 20.125 21.3125 9.0625 
Q 24.515625 -2 31 -13.1875 
L 23.1875 -13.1875 
Q 15.875 -1.703125 12.234375 9.375 
Q 8.59375 20.453125 8.59375 31.390625 
Q 8.59375 42.28125 12.203125 53.3125 
Q 15.828125 64.359375 23.1875 75.875 
z
" id="DejaVuSans-40"/>
      <path d="M 51.125 44 
L 36.921875 44 
L 32.8125 27.6875 
L 47.125 27.6875 
z
M 43.796875 71.78125 
L 38.71875 51.515625 
L 52.984375 51.515625 
L 58.109375 71.78125 
L 65.921875 71.78125 
L 60.890625 51.515625 
L 76.125 51.515625 
L 76.125 44 
L 58.984375 44 
L 54.984375 27.6875 
L 70.515625 27.6875 
L 70.515625 20.21875 
L 53.078125 20.21875 
L 48 0 
L 40.1875 0 
L 45.21875 20.21875 
L 30.90625 20.21875 
L 25.875 0 
L 18.015625 0 
L 23.09375 20.21875 
L 7.71875 20.21875 
L 7.71875 27.6875 
L 24.90625 27.6875 
L 29 44 
L 13.28125 44 
L 13.28125 51.515625 
L 30.90625 51.515625 
L 35.890625 71.78125 
z
" id="DejaVuSans-35"/>
      <path id="DejaVuSans-32"/>
      <path d="M 37.109375 75.984375 
L 37.109375 68.5 
L 28.515625 68.5 
Q 23.6875 68.5 21.796875 66.546875 
Q 19.921875 64.59375 19.921875 59.515625 
L 19.921875 54.6875 
L 34.71875 54.6875 
L 34.71875 47.703125 
L 19.921875 47.703125 
L 19.921875 0 
L 10.890625 0 
L 10.890625 47.703125 
L 2.296875 47.703125 
L 2.296875 54.6875 
L 10.890625 54.6875 
L 10.890625 58.5 
Q 10.890625 67.625 15.140625 71.796875 
Q 19.390625 75.984375 28.609375 75.984375 
z
" id="DejaVuSans-102"/>
      <path d="M 4.890625 31.390625 
L 31.203125 31.390625 
L 31.203125 23.390625 
L 4.890625 23.390625 
z
" id="DejaVuSans-45"/>
      <path d="M 56.203125 29.59375 
L 56.203125 25.203125 
L 14.890625 25.203125 
Q 15.484375 15.921875 20.484375 11.0625 
Q 25.484375 6.203125 34.421875 6.203125 
Q 39.59375 6.203125 44.453125 7.46875 
Q 49.3125 8.734375 54.109375 11.28125 
L 54.109375 2.78125 
Q 49.265625 0.734375 44.1875 -0.34375 
Q 39.109375 -1.421875 33.890625 -1.421875 
Q 20.796875 -1.421875 13.15625 6.1875 
Q 5.515625 13.8125 5.515625 26.8125 
Q 5.515625 40.234375 12.765625 48.109375 
Q 20.015625 56 32.328125 56 
Q 43.359375 56 49.78125 48.890625 
Q 56.203125 41.796875 56.203125 29.59375 
z
M 47.21875 32.234375 
Q 47.125 39.59375 43.09375 43.984375 
Q 39.0625 48.390625 32.421875 48.390625 
Q 24.90625 48.390625 20.390625 44.140625 
Q 15.875 39.890625 15.1875 32.171875 
z
" id="DejaVuSans-101"/>
      <path d="M 2.984375 54.6875 
L 12.5 54.6875 
L 29.59375 8.796875 
L 46.6875 54.6875 
L 56.203125 54.6875 
L 35.6875 0 
L 23.484375 0 
z
" id="DejaVuSans-118"/>
      <path d="M 34.28125 27.484375 
Q 23.390625 27.484375 19.1875 25 
Q 14.984375 22.515625 14.984375 16.5 
Q 14.984375 11.71875 18.140625 8.90625 
Q 21.296875 6.109375 26.703125 6.109375 
Q 34.1875 6.109375 38.703125 11.40625 
Q 43.21875 16.703125 43.21875 25.484375 
L 43.21875 27.484375 
z
M 52.203125 31.203125 
L 52.203125 0 
L 43.21875 0 
L 43.21875 8.296875 
Q 40.140625 3.328125 35.546875 0.953125 
Q 30.953125 -1.421875 24.3125 -1.421875 
Q 15.921875 -1.421875 10.953125 3.296875 
Q 6 8.015625 6 15.921875 
Q 6 25.140625 12.171875 29.828125 
Q 18.359375 34.515625 30.609375 34.515625 
L 43.21875 34.515625 
L 43.21875 35.40625 
Q 43.21875 41.609375 39.140625 45 
Q 35.0625 48.390625 27.6875 48.390625 
Q 23 48.390625 18.546875 47.265625 
Q 14.109375 46.140625 10.015625 43.890625 
L 10.015625 52.203125 
Q 14.9375 54.109375 19.578125 55.046875 
Q 24.21875 56 28.609375 56 
Q 40.484375 56 46.34375 49.84375 
Q 52.203125 43.703125 52.203125 31.203125 
z
" id="DejaVuSans-97"/>
      <path d="M 44.28125 53.078125 
L 44.28125 44.578125 
Q 40.484375 46.53125 36.375 47.5 
Q 32.28125 48.484375 27.875 48.484375 
Q 21.1875 48.484375 17.84375 46.4375 
Q 14.5 44.390625 14.5 40.28125 
Q 14.5 37.15625 16.890625 35.375 
Q 19.28125 33.59375 26.515625 31.984375 
L 29.59375 31.296875 
Q 39.15625 29.25 43.1875 25.515625 
Q 47.21875 21.78125 47.21875 15.09375 
Q 47.21875 7.46875 41.1875 3.015625 
Q 35.15625 -1.421875 24.609375 -1.421875 
Q 20.21875 -1.421875 15.453125 -0.5625 
Q 10.6875 0.296875 5.421875 2 
L 5.421875 11.28125 
Q 10.40625 8.6875 15.234375 7.390625 
Q 20.0625 6.109375 24.8125 6.109375 
Q 31.15625 6.109375 34.5625 8.28125 
Q 37.984375 10.453125 37.984375 14.40625 
Q 37.984375 18.0625 35.515625 20.015625 
Q 33.0625 21.96875 24.703125 23.78125 
L 21.578125 24.515625 
Q 13.234375 26.265625 9.515625 29.90625 
Q 5.8125 33.546875 5.8125 39.890625 
Q 5.8125 47.609375 11.28125 51.796875 
Q 16.75 56 26.8125 56 
Q 31.78125 56 36.171875 55.265625 
Q 40.578125 54.546875 44.28125 53.078125 
z
" id="DejaVuSans-115"/>
      <path d="M 25.390625 72.90625 
L 33.6875 72.90625 
L 8.296875 -9.28125 
L 0 -9.28125 
z
" id="DejaVuSans-47"/>
      <path d="M 45.40625 46.390625 
L 45.40625 75.984375 
L 54.390625 75.984375 
L 54.390625 0 
L 45.40625 0 
L 45.40625 8.203125 
Q 42.578125 3.328125 38.25 0.953125 
Q 33.9375 -1.421875 27.875 -1.421875 
Q 17.96875 -1.421875 11.734375 6.484375 
Q 5.515625 14.40625 5.515625 27.296875 
Q 5.515625 40.1875 11.734375 48.09375 
Q 17.96875 56 27.875 56 
Q 33.9375 56 38.25 53.625 
Q 42.578125 51.265625 45.40625 46.390625 
z
M 14.796875 27.296875 
Q 14.796875 17.390625 18.875 11.75 
Q 22.953125 6.109375 30.078125 6.109375 
Q 37.203125 6.109375 41.296875 11.75 
Q 45.40625 17.390625 45.40625 27.296875 
Q 45.40625 37.203125 41.296875 42.84375 
Q 37.203125 48.484375 30.078125 48.484375 
Q 22.953125 48.484375 18.875 42.84375 
Q 14.796875 37.203125 14.796875 27.296875 
z
" id="DejaVuSans-100"/>
      <path d="M 9.421875 54.6875 
L 18.40625 54.6875 
L 18.40625 0 
L 9.421875 0 
z
M 9.421875 75.984375 
L 18.40625 75.984375 
L 18.40625 64.59375 
L 9.421875 64.59375 
z
" id="DejaVuSans-105"/>
      <path d="M 52 44.1875 
Q 55.375 50.25 60.0625 53.125 
Q 64.75 56 71.09375 56 
Q 79.640625 56 84.28125 50.015625 
Q 88.921875 44.046875 88.921875 33.015625 
L 88.921875 0 
L 79.890625 0 
L 79.890625 32.71875 
Q 79.890625 40.578125 77.09375 44.375 
Q 74.3125 48.1875 68.609375 48.1875 
Q 61.625 48.1875 57.5625 43.546875 
Q 53.515625 38.921875 53.515625 30.90625 
L 53.515625 0 
L 44.484375 0 
L 44.484375 32.71875 
Q 44.484375 40.625 41.703125 44.40625 
Q 38.921875 48.1875 33.109375 48.1875 
Q 26.21875 48.1875 22.15625 43.53125 
Q 18.109375 38.875 18.109375 30.90625 
L 18.109375 0 
L 9.078125 0 
L 9.078125 54.6875 
L 18.109375 54.6875 
L 18.109375 46.1875 
Q 21.1875 51.21875 25.484375 53.609375 
Q 29.78125 56 35.6875 56 
Q 41.65625 56 45.828125 52.96875 
Q 50 49.953125 52 44.1875 
z
" id="DejaVuSans-109"/>
      <path d="M 54.890625 33.015625 
L 54.890625 0 
L 45.90625 0 
L 45.90625 32.71875 
Q 45.90625 40.484375 42.875 44.328125 
Q 39.84375 48.1875 33.796875 48.1875 
Q 26.515625 48.1875 22.3125 43.546875 
Q 18.109375 38.921875 18.109375 30.90625 
L 18.109375 0 
L 9.078125 0 
L 9.078125 54.6875 
L 18.109375 54.6875 
L 18.109375 46.1875 
Q 21.34375 51.125 25.703125 53.5625 
Q 30.078125 56 35.796875 56 
Q 45.21875 56 50.046875 50.171875 
Q 54.890625 44.34375 54.890625 33.015625 
z
" id="DejaVuSans-110"/>
      <path d="M 8.015625 75.875 
L 15.828125 75.875 
Q 23.140625 64.359375 26.78125 53.3125 
Q 30.421875 42.28125 30.421875 31.390625 
Q 30.421875 20.453125 26.78125 9.375 
Q 23.140625 -1.703125 15.828125 -13.1875 
L 8.015625 -13.1875 
Q 14.5 -2 17.703125 9.0625 
Q 20.90625 20.125 20.90625 31.390625 
Q 20.90625 42.671875 17.703125 53.65625 
Q 14.5 64.65625 8.015625 75.875 
z
" id="DejaVuSans-41"/>
     </defs>
     <g transform="translate(77.764078 342.217594)scale(0.17 -0.17)">
      <use xlink:href="#DejaVuSans-108"/>
      <use x="27.783203" xlink:href="#DejaVuSans-111"/>
      <use x="88.964844" xlink:href="#DejaVuSans-103"/>
      <use x="152.441406" xlink:href="#DejaVuSans-49"/>
      <use x="216.064453" xlink:href="#DejaVuSans-48"/>
      <use x="279.6875" xlink:href="#DejaVuSans-40"/>
      <use x="318.701172" xlink:href="#DejaVuSans-35"/>
      <use x="402.490234" xlink:href="#DejaVuSans-32"/>
      <use x="434.277344" xlink:href="#DejaVuSans-102"/>
      <use x="463.982422" xlink:href="#DejaVuSans-45"/>
      <use x="500.066406" xlink:href="#DejaVuSans-101"/>
      <use x="561.589844" xlink:href="#DejaVuSans-118"/>
      <use x="620.769531" xlink:href="#DejaVuSans-97"/>
      <use x="682.048828" xlink:href="#DejaVuSans-108"/>
      <use x="709.832031" xlink:href="#DejaVuSans-115"/>
      <use x="761.931641" xlink:href="#DejaVuSans-32"/>
      <use x="793.71875" xlink:href="#DejaVuSans-47"/>
      <use x="827.410156" xlink:href="#DejaVuSans-32"/>
      <use x="859.197266" xlink:href="#DejaVuSans-100"/>
      <use x="922.673828" xlink:href="#DejaVuSans-105"/>
      <use x="950.457031" xlink:href="#DejaVuSans-109"/>
      <use x="1047.869141" xlink:href="#DejaVuSans-101"/>
      <use x="1109.392578" xlink:href="#DejaVuSans-110"/>
      <use x="1172.771484" xlink:href="#DejaVuSans-115"/>
      <use x="1224.871094" xlink:href="#DejaVuSans-105"/>
      <use x="1252.654297" xlink:href="#DejaVuSans-111"/>
      <use x="1313.835938" xlink:href="#DejaVuSans-110"/>
      <use x="1377.214844" xlink:href="#DejaVuSans-41"/>
     </g>
    </g>
   </g>
   <g id="matplotlib.axis_2">
    <g id="ytick_1">
     <g id="line2d_21">
      <path clip-path="url(#p0e883125ac)" d="M 57.6 298.944 
L 338.688 298.944 
" style="fill:none;stroke:#b0b0b0;stroke-linecap:square;stroke-width:0.8;"/>
     </g>
     <g id="line2d_22">
      <defs>
       <path d="M 0 0 
L -3.5 0 
" id="m1edd299355" style="stroke:#000000;stroke-width:0.8;"/>
      </defs>
      <g>
       <use style="stroke:#000000;stroke-width:0.8;" x="57.6" xlink:href="#m1edd299355" y="298.944"/>
      </g>
     </g>
     <g id="text_6">
      <!-- 0.0 -->
      <defs>
       <path d="M 10.6875 12.40625 
L 21 12.40625 
L 21 0 
L 10.6875 0 
z
" id="DejaVuSans-46"/>
      </defs>
      <g transform="translate(25.155 305.02275)scale(0.16 -0.16)">
       <use xlink:href="#DejaVuSans-48"/>
       <use x="63.623047" xlink:href="#DejaVuSans-46"/>
       <use x="95.410156" xlink:href="#DejaVuSans-48"/>
      </g>
     </g>
    </g>
    <g id="ytick_2">
     <g id="line2d_23">
      <path clip-path="url(#p0e883125ac)" d="M 57.6 245.22202 
L 338.688 245.22202 
" style="fill:none;stroke:#b0b0b0;stroke-linecap:square;stroke-width:0.8;"/>
     </g>
     <g id="line2d_24">
      <g>
       <use style="stroke:#000000;stroke-width:0.8;" x="57.6" xlink:href="#m1edd299355" y="245.22202"/>
      </g>
     </g>
     <g id="text_7">
      <!-- 0.2 -->
      <g transform="translate(25.155 251.30077)scale(0.16 -0.16)">
       <use xlink:href="#DejaVuSans-48"/>
       <use x="63.623047" xlink:href="#DejaVuSans-46"/>
       <use x="95.410156" xlink:href="#DejaVuSans-50"/>
      </g>
     </g>
    </g>
    <g id="ytick_3">
     <g id="line2d_25">
      <path clip-path="url(#p0e883125ac)" d="M 57.6 191.50004 
L 338.688 191.50004 
" style="fill:none;stroke:#b0b0b0;stroke-linecap:square;stroke-width:0.8;"/>
     </g>
     <g id="line2d_26">
      <g>
       <use style="stroke:#000000;stroke-width:0.8;" x="57.6" xlink:href="#m1edd299355" y="191.50004"/>
      </g>
     </g>
     <g id="text_8">
      <!-- 0.4 -->
      <g transform="translate(25.155 197.57879)scale(0.16 -0.16)">
       <use xlink:href="#DejaVuSans-48"/>
       <use x="63.623047" xlink:href="#DejaVuSans-46"/>
       <use x="95.410156" xlink:href="#DejaVuSans-52"/>
      </g>
     </g>
    </g>
    <g id="ytick_4">
     <g id="line2d_27">
      <path clip-path="url(#p0e883125ac)" d="M 57.6 137.778059 
L 338.688 137.778059 
" style="fill:none;stroke:#b0b0b0;stroke-linecap:square;stroke-width:0.8;"/>
     </g>
     <g id="line2d_28">
      <g>
       <use style="stroke:#000000;stroke-width:0.8;" x="57.6" xlink:href="#m1edd299355" y="137.778059"/>
      </g>
     </g>
     <g id="text_9">
      <!-- 0.6 -->
      <g transform="translate(25.155 143.856809)scale(0.16 -0.16)">
       <use xlink:href="#DejaVuSans-48"/>
       <use x="63.623047" xlink:href="#DejaVuSans-46"/>
       <use x="95.410156" xlink:href="#DejaVuSans-54"/>
      </g>
     </g>
    </g>
    <g id="ytick_5">
     <g id="line2d_29">
      <path clip-path="url(#p0e883125ac)" d="M 57.6 84.056079 
L 338.688 84.056079 
" style="fill:none;stroke:#b0b0b0;stroke-linecap:square;stroke-width:0.8;"/>
     </g>
     <g id="line2d_30">
      <g>
       <use style="stroke:#000000;stroke-width:0.8;" x="57.6" xlink:href="#m1edd299355" y="84.056079"/>
      </g>
     </g>
     <g id="text_10">
      <!-- 0.8 -->
      <defs>
       <path d="M 31.78125 34.625 
Q 24.75 34.625 20.71875 30.859375 
Q 16.703125 27.09375 16.703125 20.515625 
Q 16.703125 13.921875 20.71875 10.15625 
Q 24.75 6.390625 31.78125 6.390625 
Q 38.8125 6.390625 42.859375 10.171875 
Q 46.921875 13.96875 46.921875 20.515625 
Q 46.921875 27.09375 42.890625 30.859375 
Q 38.875 34.625 31.78125 34.625 
z
M 21.921875 38.8125 
Q 15.578125 40.375 12.03125 44.71875 
Q 8.5 49.078125 8.5 55.328125 
Q 8.5 64.0625 14.71875 69.140625 
Q 20.953125 74.21875 31.78125 74.21875 
Q 42.671875 74.21875 48.875 69.140625 
Q 55.078125 64.0625 55.078125 55.328125 
Q 55.078125 49.078125 51.53125 44.71875 
Q 48 40.375 41.703125 38.8125 
Q 48.828125 37.15625 52.796875 32.3125 
Q 56.78125 27.484375 56.78125 20.515625 
Q 56.78125 9.90625 50.3125 4.234375 
Q 43.84375 -1.421875 31.78125 -1.421875 
Q 19.734375 -1.421875 13.25 4.234375 
Q 6.78125 9.90625 6.78125 20.515625 
Q 6.78125 27.484375 10.78125 32.3125 
Q 14.796875 37.15625 21.921875 38.8125 
z
M 18.3125 54.390625 
Q 18.3125 48.734375 21.84375 45.5625 
Q 25.390625 42.390625 31.78125 42.390625 
Q 38.140625 42.390625 41.71875 45.5625 
Q 45.3125 48.734375 45.3125 54.390625 
Q 45.3125 60.0625 41.71875 63.234375 
Q 38.140625 66.40625 31.78125 66.40625 
Q 25.390625 66.40625 21.84375 63.234375 
Q 18.3125 60.0625 18.3125 54.390625 
z
" id="DejaVuSans-56"/>
      </defs>
      <g transform="translate(25.155 90.134829)scale(0.16 -0.16)">
       <use xlink:href="#DejaVuSans-48"/>
       <use x="63.623047" xlink:href="#DejaVuSans-46"/>
       <use x="95.410156" xlink:href="#DejaVuSans-56"/>
      </g>
     </g>
    </g>
    <g id="ytick_6">
     <g id="line2d_31">
      <path clip-path="url(#p0e883125ac)" d="M 57.6 30.334099 
L 338.688 30.334099 
" style="fill:none;stroke:#b0b0b0;stroke-linecap:square;stroke-width:0.8;"/>
     </g>
     <g id="line2d_32">
      <g>
       <use style="stroke:#000000;stroke-width:0.8;" x="57.6" xlink:href="#m1edd299355" y="30.334099"/>
      </g>
     </g>
     <g id="text_11">
      <!-- 1.0 -->
      <g transform="translate(25.155 36.412849)scale(0.16 -0.16)">
       <use xlink:href="#DejaVuSans-49"/>
       <use x="63.623047" xlink:href="#DejaVuSans-46"/>
       <use x="95.410156" xlink:href="#DejaVuSans-48"/>
      </g>
     </g>
    </g>
    <g id="text_12">
     <!-- Fraction of function,target pairs -->
     <defs>
      <path d="M 9.8125 72.90625 
L 51.703125 72.90625 
L 51.703125 64.59375 
L 19.671875 64.59375 
L 19.671875 43.109375 
L 48.578125 43.109375 
L 48.578125 34.8125 
L 19.671875 34.8125 
L 19.671875 0 
L 9.8125 0 
z
" id="DejaVuSans-70"/>
      <path d="M 41.109375 46.296875 
Q 39.59375 47.171875 37.8125 47.578125 
Q 36.03125 48 33.890625 48 
Q 26.265625 48 22.1875 43.046875 
Q 18.109375 38.09375 18.109375 28.8125 
L 18.109375 0 
L 9.078125 0 
L 9.078125 54.6875 
L 18.109375 54.6875 
L 18.109375 46.1875 
Q 20.953125 51.171875 25.484375 53.578125 
Q 30.03125 56 36.53125 56 
Q 37.453125 56 38.578125 55.875 
Q 39.703125 55.765625 41.0625 55.515625 
z
" id="DejaVuSans-114"/>
      <path d="M 48.78125 52.59375 
L 48.78125 44.1875 
Q 44.96875 46.296875 41.140625 47.34375 
Q 37.3125 48.390625 33.40625 48.390625 
Q 24.65625 48.390625 19.8125 42.84375 
Q 14.984375 37.3125 14.984375 27.296875 
Q 14.984375 17.28125 19.8125 11.734375 
Q 24.65625 6.203125 33.40625 6.203125 
Q 37.3125 6.203125 41.140625 7.25 
Q 44.96875 8.296875 48.78125 10.40625 
L 48.78125 2.09375 
Q 45.015625 0.34375 40.984375 -0.53125 
Q 36.96875 -1.421875 32.421875 -1.421875 
Q 20.0625 -1.421875 12.78125 6.34375 
Q 5.515625 14.109375 5.515625 27.296875 
Q 5.515625 40.671875 12.859375 48.328125 
Q 20.21875 56 33.015625 56 
Q 37.15625 56 41.109375 55.140625 
Q 45.0625 54.296875 48.78125 52.59375 
z
" id="DejaVuSans-99"/>
      <path d="M 18.3125 70.21875 
L 18.3125 54.6875 
L 36.8125 54.6875 
L 36.8125 47.703125 
L 18.3125 47.703125 
L 18.3125 18.015625 
Q 18.3125 11.328125 20.140625 9.421875 
Q 21.96875 7.515625 27.59375 7.515625 
L 36.8125 7.515625 
L 36.8125 0 
L 27.59375 0 
Q 17.1875 0 13.234375 3.875 
Q 9.28125 7.765625 9.28125 18.015625 
L 9.28125 47.703125 
L 2.6875 47.703125 
L 2.6875 54.6875 
L 9.28125 54.6875 
L 9.28125 70.21875 
z
" id="DejaVuSans-116"/>
      <path d="M 8.5 21.578125 
L 8.5 54.6875 
L 17.484375 54.6875 
L 17.484375 21.921875 
Q 17.484375 14.15625 20.5 10.265625 
Q 23.53125 6.390625 29.59375 6.390625 
Q 36.859375 6.390625 41.078125 11.03125 
Q 45.3125 15.671875 45.3125 23.6875 
L 45.3125 54.6875 
L 54.296875 54.6875 
L 54.296875 0 
L 45.3125 0 
L 45.3125 8.40625 
Q 42.046875 3.421875 37.71875 1 
Q 33.40625 -1.421875 27.6875 -1.421875 
Q 18.265625 -1.421875 13.375 4.4375 
Q 8.5 10.296875 8.5 21.578125 
z
M 31.109375 56 
z
" id="DejaVuSans-117"/>
      <path d="M 11.71875 12.40625 
L 22.015625 12.40625 
L 22.015625 4 
L 14.015625 -11.625 
L 7.71875 -11.625 
L 11.71875 4 
z
" id="DejaVuSans-44"/>
      <path d="M 18.109375 8.203125 
L 18.109375 -20.796875 
L 9.078125 -20.796875 
L 9.078125 54.6875 
L 18.109375 54.6875 
L 18.109375 46.390625 
Q 20.953125 51.265625 25.265625 53.625 
Q 29.59375 56 35.59375 56 
Q 45.5625 56 51.78125 48.09375 
Q 58.015625 40.1875 58.015625 27.296875 
Q 58.015625 14.40625 51.78125 6.484375 
Q 45.5625 -1.421875 35.59375 -1.421875 
Q 29.59375 -1.421875 25.265625 0.953125 
Q 20.953125 3.328125 18.109375 8.203125 
z
M 48.6875 27.296875 
Q 48.6875 37.203125 44.609375 42.84375 
Q 40.53125 48.484375 33.40625 48.484375 
Q 26.265625 48.484375 22.1875 42.84375 
Q 18.109375 37.203125 18.109375 27.296875 
Q 18.109375 17.390625 22.1875 11.75 
Q 26.265625 6.109375 33.40625 6.109375 
Q 40.53125 6.109375 44.609375 11.75 
Q 48.6875 17.390625 48.6875 27.296875 
z
" id="DejaVuSans-112"/>
     </defs>
     <g transform="translate(17.619531 297.681)rotate(-90)scale(0.17 -0.17)">
      <use xlink:href="#DejaVuSans-70"/>
      <use x="50.269531" xlink:href="#DejaVuSans-114"/>
      <use x="91.382812" xlink:href="#DejaVuSans-97"/>
      <use x="152.662109" xlink:href="#DejaVuSans-99"/>
      <use x="207.642578" xlink:href="#DejaVuSans-116"/>
      <use x="246.851562" xlink:href="#DejaVuSans-105"/>
      <use x="274.634766" xlink:href="#DejaVuSans-111"/>
      <use x="335.816406" xlink:href="#DejaVuSans-110"/>
      <use x="399.195312" xlink:href="#DejaVuSans-32"/>
      <use x="430.982422" xlink:href="#DejaVuSans-111"/>
      <use x="492.164062" xlink:href="#DejaVuSans-102"/>
      <use x="527.369141" xlink:href="#DejaVuSans-32"/>
      <use x="559.15625" xlink:href="#DejaVuSans-102"/>
      <use x="594.361328" xlink:href="#DejaVuSans-117"/>
      <use x="657.740234" xlink:href="#DejaVuSans-110"/>
      <use x="721.119141" xlink:href="#DejaVuSans-99"/>
      <use x="776.099609" xlink:href="#DejaVuSans-116"/>
      <use x="815.308594" xlink:href="#DejaVuSans-105"/>
      <use x="843.091797" xlink:href="#DejaVuSans-111"/>
      <use x="904.273438" xlink:href="#DejaVuSans-110"/>
      <use x="967.652344" xlink:href="#DejaVuSans-44"/>
      <use x="999.439453" xlink:href="#DejaVuSans-116"/>
      <use x="1038.648438" xlink:href="#DejaVuSans-97"/>
      <use x="1099.927734" xlink:href="#DejaVuSans-114"/>
      <use x="1139.291016" xlink:href="#DejaVuSans-103"/>
      <use x="1202.767578" xlink:href="#DejaVuSans-101"/>
      <use x="1264.291016" xlink:href="#DejaVuSans-116"/>
      <use x="1303.5" xlink:href="#DejaVuSans-32"/>
      <use x="1335.287109" xlink:href="#DejaVuSans-112"/>
      <use x="1398.763672" xlink:href="#DejaVuSans-97"/>
      <use x="1460.042969" xlink:href="#DejaVuSans-105"/>
      <use x="1487.826172" xlink:href="#DejaVuSans-114"/>
      <use x="1528.939453" xlink:href="#DejaVuSans-115"/>
     </g>
    </g>
   </g>
   <g id="line2d_33">
    <defs>
     <path d="M 0 1.5 
C 0.397805 1.5 0.77937 1.341951 1.06066 1.06066 
C 1.341951 0.77937 1.5 0.397805 1.5 0 
C 1.5 -0.397805 1.341951 -0.77937 1.06066 -1.06066 
C 0.77937 -1.341951 0.397805 -1.5 0 -1.5 
C -0.397805 -1.5 -0.77937 -1.341951 -1.06066 -1.06066 
C -1.341951 -0.77937 -1.5 -0.397805 -1.5 0 
C -1.5 0.397805 -1.341951 0.77937 -1.06066 1.06066 
C -0.77937 1.341951 -0.397805 1.5 0 1.5 
z
" id="m64c5ddae97" style="stroke:#f5deb3;"/>
    </defs>
    <g>
     <use style="fill:#f5deb3;stroke:#f5deb3;" x="194.463423" xlink:href="#m64c5ddae97" y="30.334099"/>
     <use style="fill:#f5deb3;stroke:#f5deb3;" x="194.463423" xlink:href="#m64c5ddae97" y="30.334099"/>
    </g>
   </g>
   <g id="line2d_34">
    <defs>
     <path d="M 0 1.5 
C 0.397805 1.5 0.77937 1.341951 1.06066 1.06066 
C 1.341951 0.77937 1.5 0.397805 1.5 0 
C 1.5 -0.397805 1.341951 -0.77937 1.06066 -1.06066 
C 0.77937 -1.341951 0.397805 -1.5 0 -1.5 
C -0.397805 -1.5 -0.77937 -1.341951 -1.06066 -1.06066 
C -1.341951 -0.77937 -1.5 -0.397805 -1.5 0 
C -1.5 0.397805 -1.341951 0.77937 -1.06066 1.06066 
C -0.77937 1.341951 -0.397805 1.5 0 1.5 
z
" id="m0d049e675c" style="stroke:#000080;"/>
    </defs>
    <g>
     <use style="fill:#000080;stroke:#000080;" x="248.645335" xlink:href="#m0d049e675c" y="183.073062"/>
     <use style="fill:#000080;stroke:#000080;" x="248.645335" xlink:href="#m0d049e675c" y="183.073062"/>
    </g>
   </g>
   <g id="line2d_35">
    <path d="M 29.53256 298.944 
L 29.53256 293.150453 
L 41.620548 293.150453 
L 41.620548 291.570395 
L 57.6 291.570395 
L 57.6 291.043709 
L 60.779557 291.043709 
L 60.779557 289.990337 
L 65.796525 289.990337 
L 65.796525 289.463651 
L 72.867545 289.463651 
L 72.867545 288.936964 
L 77.884514 288.936964 
L 77.884514 288.410278 
L 78.941764 288.410278 
L 78.941764 287.356906 
L 80.881459 287.356906 
L 80.881459 286.83022 
L 86.351421 286.83022 
L 86.351421 286.303534 
L 95.526106 286.303534 
L 95.526106 285.776848 
L 100.641881 285.776848 
L 100.641881 284.723476 
L 102.597126 284.723476 
L 102.597126 284.19679 
L 104.355088 284.19679 
L 104.355088 283.670104 
L 106.593963 283.670104 
L 106.593963 283.143418 
L 106.802819 283.143418 
L 106.802819 282.090045 
L 108.577836 282.090045 
L 108.577836 281.563359 
L 112.431755 281.563359 
L 112.431755 281.036673 
L 113.311233 281.036673 
L 113.311233 280.509987 
L 115.711251 280.509987 
L 115.711251 279.983301 
L 118.576578 279.983301 
L 118.576578 279.456615 
L 118.890808 279.456615 
L 118.890808 278.929929 
L 120.571812 278.929929 
L 120.571812 278.403243 
L 122.191052 278.403243 
L 122.276749 277.349871 
L 123.985457 277.349871 
L 124.062793 276.296499 
L 125.612332 276.296499 
L 125.612332 275.769812 
L 125.822869 275.769812 
L 125.822869 275.243126 
L 125.961828 275.243126 
L 125.961828 274.71644 
L 127.611382 274.71644 
L 127.674226 273.663068 
L 127.923363 273.663068 
L 127.923363 273.136382 
L 128.827155 273.136382 
L 128.885774 272.08301 
L 128.944197 272.08301 
L 128.944197 271.556324 
L 129.630422 271.556324 
L 129.630422 271.029638 
L 130.073348 271.029638 
L 130.073348 270.502952 
L 130.558552 270.502952 
L 130.558552 269.976266 
L 131.389151 269.976266 
L 131.389151 269.449579 
L 131.938072 269.449579 
L 131.938072 268.922893 
L 133.078923 268.922893 
L 133.078923 268.396207 
L 133.488207 268.396207 
L 133.488207 267.869521 
L 135.562224 267.869521 
L 135.562224 267.342835 
L 136.034648 267.342835 
L 136.034648 266.816149 
L 137.126135 266.816149 
L 137.198951 265.762777 
L 137.70032 265.762777 
L 137.770782 264.709405 
L 138.661784 264.709405 
L 138.728473 263.656033 
L 139.477614 263.656033 
L 139.477614 263.129347 
L 141.032186 263.129347 
L 141.032186 262.60266 
L 141.968939 262.60266 
L 141.968939 262.075974 
L 142.106582 262.075974 
L 142.106582 261.549288 
L 143.298796 261.549288 
L 143.298796 261.022602 
L 143.451774 261.022602 
L 143.451774 260.495916 
L 144.366588 260.495916 
L 144.366588 259.96923 
L 145.304409 259.96923 
L 145.304409 259.442544 
L 145.665858 259.442544 
L 145.665858 258.915858 
L 146.280909 258.915858 
L 146.280909 258.389172 
L 147.848613 258.389172 
L 147.848613 257.862486 
L 152.466496 257.862486 
L 152.466496 257.3358 
L 155.628383 257.3358 
L 155.628383 256.809114 
L 170.483844 256.809114 
L 170.483844 256.282427 
L 171.108254 256.282427 
L 171.18605 255.229055 
L 171.263501 255.229055 
L 171.35599 254.175683 
L 172.284043 254.175683 
L 172.284043 253.648997 
L 172.744386 253.648997 
L 172.744386 253.122311 
L 173.426547 253.122311 
L 173.426547 252.595625 
L 173.589616 252.595625 
L 173.589616 252.068939 
L 173.760107 252.068939 
L 173.760107 251.542253 
L 173.920102 251.542253 
L 173.920102 251.015567 
L 174.266139 251.015567 
L 174.266139 250.488881 
L 174.468799 250.488881 
L 174.571383 249.435508 
L 174.741027 249.435508 
L 174.741027 248.908822 
L 176.228874 248.908822 
L 176.30621 247.85545 
L 177.372536 247.85545 
L 177.383421 246.802078 
L 177.745967 246.802078 
L 177.745967 246.275392 
L 178.263969 246.275392 
L 178.263969 245.748706 
L 178.63249 245.748706 
L 178.67296 244.695334 
L 179.27877 244.695334 
L 179.27877 244.168648 
L 179.501836 244.168648 
L 179.501836 243.641962 
L 179.633043 243.641962 
L 179.633043 243.115275 
L 180.268521 243.115275 
L 180.268521 242.588589 
L 181.047069 242.588589 
L 181.047069 242.061903 
L 181.659442 242.061903 
L 181.659442 241.008531 
L 182.140942 241.008531 
L 182.140942 240.481845 
L 184.639647 240.481845 
L 184.639647 239.955159 
L 184.978468 239.955159 
L 184.978468 239.428473 
L 185.393516 239.428473 
L 185.393516 238.901787 
L 185.509984 238.901787 
L 185.509984 238.375101 
L 185.742857 238.375101 
L 185.742857 237.848415 
L 186.595327 237.848415 
L 186.595327 237.321729 
L 187.028348 237.321729 
L 187.028348 236.795043 
L 187.204787 236.795043 
L 187.204787 236.268356 
L 188.057226 236.268356 
L 188.153332 234.161612 
L 188.26641 234.161612 
L 188.342034 233.10824 
L 188.954202 233.10824 
L 188.954202 232.581554 
L 189.195387 232.581554 
L 189.195387 232.054868 
L 189.4351 232.054868 
L 189.529347 231.001496 
L 190.176931 231.001496 
L 190.27246 229.948123 
L 190.6053 229.948123 
L 190.698518 228.894751 
L 191.387894 228.894751 
L 191.41225 227.841379 
L 192.192817 227.841379 
L 192.192817 227.314693 
L 192.841555 227.314693 
L 192.841555 226.788007 
L 193.748849 226.788007 
L 193.748849 226.261321 
L 193.877511 226.261321 
L 193.877511 225.734635 
L 194.056895 225.734635 
L 194.056895 225.207949 
L 194.547671 225.207949 
L 194.547671 224.681263 
L 196.450299 224.681263 
L 196.496425 223.101204 
L 196.79569 223.101204 
L 196.79569 222.574518 
L 196.925095 222.574518 
L 196.925095 222.047832 
L 197.620718 222.047832 
L 197.620718 221.521146 
L 199.547009 221.521146 
L 199.547009 220.99446 
L 200.980432 220.99446 
L 200.980432 220.467774 
L 202.291024 220.467774 
L 202.291024 219.941088 
L 202.7569 219.941088 
L 202.853148 218.887716 
L 203.747539 218.887716 
L 203.747539 218.36103 
L 204.563977 218.36103 
L 204.563977 217.834344 
L 204.71975 217.834344 
L 204.71975 217.307658 
L 205.048725 217.307658 
L 205.048725 216.780971 
L 205.687908 216.780971 
L 205.687908 216.254285 
L 206.007709 216.254285 
L 206.007709 215.727599 
L 206.448952 215.727599 
L 206.448952 215.200913 
L 206.590869 215.200913 
L 206.590869 214.674227 
L 206.785481 214.674227 
L 206.785481 214.147541 
L 207.229341 214.147541 
L 207.3156 212.567483 
L 207.458423 212.567483 
L 207.458423 212.040797 
L 208.135614 212.040797 
L 208.14494 210.987425 
L 208.968079 210.987425 
L 209.005393 209.934052 
L 209.088619 209.934052 
L 209.088619 209.407366 
L 210.444782 209.407366 
L 210.444782 208.88068 
L 210.716681 208.88068 
L 210.820426 207.827308 
L 211.38128 207.827308 
L 211.38128 207.300622 
L 211.938165 207.300622 
L 211.938165 206.773936 
L 212.461809 206.773936 
L 212.544113 205.720564 
L 212.762983 205.720564 
L 212.790626 204.667192 
L 214.443673 204.667192 
L 214.443673 204.140506 
L 215.14121 204.140506 
L 215.171564 203.087133 
L 216.35366 203.087133 
L 216.35366 202.560447 
L 216.64624 202.560447 
L 216.64624 202.033761 
L 218.241235 202.033761 
L 218.241235 201.507075 
L 219.949999 201.507075 
L 219.995426 200.453703 
L 220.642069 200.453703 
L 220.642069 199.927017 
L 220.841295 199.927017 
L 220.841295 199.400331 
L 220.99697 199.400331 
L 220.99697 198.873645 
L 222.120152 198.873645 
L 222.120152 198.346959 
L 222.432788 198.346959 
L 222.4577 197.293586 
L 222.911346 197.293586 
L 222.911346 196.7669 
L 223.550398 196.7669 
L 223.550398 196.240214 
L 223.768468 196.240214 
L 223.768468 195.713528 
L 223.940681 195.713528 
L 223.940681 195.186842 
L 224.13831 195.186842 
L 224.21293 194.13347 
L 224.812771 194.13347 
L 224.812771 193.606784 
L 225.22984 193.606784 
L 225.22984 193.080098 
L 226.336082 193.080098 
L 226.336082 192.553412 
L 227.092996 192.553412 
L 227.092996 192.026726 
L 230.913682 192.026726 
L 230.913682 191.50004 
L 232.681568 191.50004 
L 232.681568 190.973354 
L 233.143463 190.973354 
L 233.202066 189.919981 
L 234.10772 189.919981 
L 234.10772 189.393295 
L 234.669178 189.393295 
L 234.669178 188.866609 
L 235.134614 188.866609 
L 235.134614 188.339923 
L 236.139877 188.339923 
L 236.242191 187.286551 
L 236.495625 187.286551 
L 236.495625 186.759865 
L 240.170747 186.759865 
L 240.170747 186.233179 
L 240.573645 186.233179 
L 240.573645 185.706493 
L 241.526838 185.706493 
L 241.526838 185.179807 
L 243.069091 185.179807 
L 243.081002 184.126434 
L 247.385818 184.126434 
L 247.385818 183.599748 
L 248.645335 183.599748 
L 248.645335 183.073062 
L 338.688 183.073062 
L 338.688 183.073062 
" style="fill:none;stroke:#000080;stroke-linecap:square;stroke-width:1.5;"/>
   </g>
   <g id="line2d_36">
    <defs>
     <path d="M 0 6 
C 1.591219 6 3.117479 5.367802 4.242641 4.242641 
C 5.367802 3.117479 6 1.591219 6 0 
C 6 -1.591219 5.367802 -3.117479 4.242641 -4.242641 
C 3.117479 -5.367802 1.591219 -6 0 -6 
C -1.591219 -6 -3.117479 -5.367802 -4.242641 -4.242641 
C -5.367802 -3.117479 -6 -1.591219 -6 0 
C -6 1.591219 -5.367802 3.117479 -4.242641 4.242641 
C -3.117479 5.367802 -1.591219 6 0 6 
z
" id="md2f13478d1" style="stroke:#000080;stroke-width:1.5;"/>
    </defs>
    <g>
     <use style="fill-opacity:0;stroke:#000080;stroke-width:1.5;" x="72.867545" xlink:href="#md2f13478d1" y="289.463651"/>
     <use style="fill-opacity:0;stroke:#000080;stroke-width:1.5;" x="145.665858" xlink:href="#md2f13478d1" y="258.915858"/>
     <use style="fill-opacity:0;stroke:#000080;stroke-width:1.5;" x="218.241235" xlink:href="#md2f13478d1" y="202.033761"/>
     <use style="fill-opacity:0;stroke:#000080;stroke-width:1.5;" x="248.645335" xlink:href="#md2f13478d1" y="183.073062"/>
     <use style="fill-opacity:0;stroke:#000080;stroke-width:1.5;" x="248.645335" xlink:href="#md2f13478d1" y="183.073062"/>
     <use style="fill-opacity:0;stroke:#000080;stroke-width:1.5;" x="338.688" xlink:href="#md2f13478d1" y="183.073062"/>
    </g>
   </g>
   <g id="line2d_37">
    <path style="fill:none;stroke:#000080;stroke-linecap:square;stroke-width:1.5;"/>
    <g/>
   </g>
   <g id="line2d_38">
    <path clip-path="url(#p0e883125ac)" d="M 178.038361 246.275392 
" style="fill:none;stroke:#000080;stroke-linecap:square;stroke-width:1.5;"/>
    <defs>
     <path d="M -12 12 
L 12 -12 
M -12 -12 
L 12 12 
" id="m08433ce107" style="stroke:#000080;"/>
    </defs>
    <g clip-path="url(#p0e883125ac)">
     <use style="fill:#000080;stroke:#000080;" x="178.038361" xlink:href="#m08433ce107" y="246.275392"/>
    </g>
   </g>
   <g id="line2d_39">
    <defs>
     <path d="M 0 1.5 
C 0.397805 1.5 0.77937 1.341951 1.06066 1.06066 
C 1.341951 0.77937 1.5 0.397805 1.5 0 
C 1.5 -0.397805 1.341951 -0.77937 1.06066 -1.06066 
C 0.77937 -1.341951 0.397805 -1.5 0 -1.5 
C -0.397805 -1.5 -0.77937 -1.341951 -1.06066 -1.06066 
C -1.341951 -0.77937 -1.5 -0.397805 -1.5 0 
C -1.5 0.397805 -1.341951 0.77937 -1.06066 1.06066 
C -0.77937 1.341951 -0.397805 1.5 0 1.5 
z
" id="mede8a68232" style="stroke:#ff00ff;"/>
    </defs>
    <g>
     <use style="fill:#ff00ff;stroke:#ff00ff;" x="227.23856" xlink:href="#mede8a68232" y="193.606784"/>
     <use style="fill:#ff00ff;stroke:#ff00ff;" x="227.23856" xlink:href="#mede8a68232" y="193.606784"/>
    </g>
   </g>
   <g id="line2d_40">
    <path d="M 29.53256 298.944 
L 29.53256 295.783884 
L 48.691568 295.783884 
L 48.691568 294.730511 
L 53.708537 294.730511 
L 53.708537 293.677139 
L 57.6 293.677139 
L 57.6 293.150453 
L 60.779557 293.150453 
L 60.779557 292.623767 
L 63.467834 292.623767 
L 63.467834 292.097081 
L 67.850577 292.097081 
L 67.850577 291.043709 
L 69.687988 291.043709 
L 69.687988 289.990337 
L 71.35013 289.990337 
L 71.35013 288.936964 
L 72.867545 288.936964 
L 72.867545 287.356906 
L 74.263433 287.356906 
L 74.263433 286.303534 
L 76.759008 286.303534 
L 76.759008 285.250162 
L 77.884514 285.250162 
L 77.884514 284.723476 
L 81.775977 284.723476 
L 81.775977 284.19679 
L 85.66744 284.19679 
L 85.66744 283.670104 
L 87.009585 283.670104 
L 87.009585 283.143418 
L 91.029752 283.143418 
L 91.029752 282.616732 
L 91.535274 282.616732 
L 91.535274 281.563359 
L 97.403108 281.563359 
L 97.403108 281.036673 
L 101.506816 281.036673 
L 101.506816 280.509987 
L 105.057436 280.509987 
L 105.057436 279.983301 
L 105.732589 279.983301 
L 105.732589 279.456615 
L 110.694282 279.456615 
L 110.694282 278.929929 
L 111.346294 278.929929 
L 111.346294 278.403243 
L 112.431755 278.403243 
L 112.431755 277.876557 
L 113.453595 277.876557 
L 113.453595 276.823185 
L 114.418861 276.823185 
L 114.418861 276.296499 
L 114.947365 276.296499 
L 114.947365 275.769812 
L 115.835374 275.769812 
L 115.835374 275.243126 
L 119.89914 275.243126 
L 119.89914 274.71644 
L 121.036887 274.71644 
L 121.128432 273.663068 
L 121.667835 273.663068 
L 121.667835 273.136382 
L 122.018385 273.136382 
L 122.018385 272.08301 
L 124.965026 272.08301 
L 124.965026 271.556324 
L 125.110962 271.556324 
L 125.110962 271.029638 
L 127.799239 271.029638 
L 127.799239 270.502952 
L 129.574256 270.502952 
L 129.574256 269.976266 
L 129.853291 269.976266 
L 129.853291 269.449579 
L 131.133813 269.449579 
L 131.236397 267.869521 
L 132.659801 267.869521 
L 132.659801 267.342835 
L 137.343676 267.342835 
L 137.343676 266.289463 
L 137.48721 266.289463 
L 137.48721 265.762777 
L 138.594838 265.762777 
L 138.594838 265.236091 
L 140.88576 265.236091 
L 140.88576 264.709405 
L 141.968939 264.709405 
L 142.024126 263.656033 
L 142.432559 263.656033 
L 142.432559 263.129347 
L 143.298796 263.129347 
L 143.298796 262.60266 
L 143.902815 262.60266 
L 143.902815 262.075974 
L 144.099593 262.075974 
L 144.197155 259.96923 
L 144.486611 259.96923 
L 144.486611 259.442544 
L 145.327221 259.442544 
L 145.327221 258.389172 
L 146.041862 258.389172 
L 146.041862 257.862486 
L 146.40993 257.862486 
L 146.495417 256.809114 
L 147.144103 256.809114 
L 147.144103 256.282427 
L 147.266916 256.282427 
L 147.266916 255.755741 
L 148.354135 255.755741 
L 148.354135 255.229055 
L 148.525764 255.229055 
L 148.525764 254.702369 
L 148.695721 254.702369 
L 148.695721 254.175683 
L 148.919783 254.175683 
L 148.919783 253.648997 
L 149.159312 253.648997 
L 149.159312 252.595625 
L 150.615623 252.595625 
L 150.615623 252.068939 
L 150.91602 252.068939 
L 150.91602 251.542253 
L 151.080698 251.542253 
L 151.080698 251.015567 
L 151.517715 251.015567 
L 151.533692 249.962195 
L 151.818809 249.962195 
L 151.818809 249.435508 
L 153.294279 249.435508 
L 153.366312 248.382136 
L 153.665645 248.382136 
L 153.665645 247.85545 
L 154.098334 247.85545 
L 154.098334 247.328764 
L 154.627867 247.328764 
L 154.627867 246.802078 
L 154.866947 246.802078 
L 154.945917 245.748706 
L 155.076745 245.748706 
L 155.076745 245.22202 
L 155.361158 245.22202 
L 155.450689 244.168648 
L 156.027868 244.168648 
L 156.027868 243.641962 
L 156.345845 243.641962 
L 156.345845 243.115275 
L 157.289376 243.115275 
L 157.346685 242.061903 
L 157.540141 242.061903 
L 157.540141 241.535217 
L 159.118749 241.535217 
L 159.118749 241.008531 
L 159.232092 241.008531 
L 159.232092 240.481845 
L 159.976013 240.481845 
L 159.976013 239.955159 
L 160.171742 239.955159 
L 160.171742 239.428473 
L 161.456484 239.428473 
L 161.456484 238.375101 
L 161.582595 238.375101 
L 161.582595 237.321729 
L 162.051921 237.321729 
L 162.051921 236.268356 
L 162.636148 236.268356 
L 162.636148 235.74167 
L 162.887802 235.74167 
L 162.887802 235.214984 
L 163.266752 235.214984 
L 163.266752 234.688298 
L 164.302897 234.688298 
L 164.387164 233.634926 
L 165.461488 233.634926 
L 165.526038 232.581554 
L 166.601807 232.581554 
L 166.642144 231.528182 
L 166.722541 231.528182 
L 166.722541 230.47481 
L 166.855717 230.47481 
L 166.855717 229.948123 
L 167.086355 229.948123 
L 167.086355 229.421437 
L 167.313982 229.421437 
L 167.313982 228.894751 
L 168.811464 228.894751 
L 168.811464 228.368065 
L 169.00019 228.368065 
L 169.00019 227.841379 
L 169.62247 227.841379 
L 169.62247 227.314693 
L 170.809423 227.314693 
L 170.809423 226.788007 
L 172.558835 226.788007 
L 172.616138 225.207949 
L 173.03536 225.207949 
L 173.03536 224.681263 
L 173.188276 224.681263 
L 173.188276 224.154577 
L 173.376414 224.154577 
L 173.481073 222.047832 
L 173.521856 222.047832 
L 173.521856 220.99446 
L 174.100548 220.99446 
L 174.100548 220.467774 
L 174.279146 220.467774 
L 174.313782 219.414402 
L 174.950788 219.414402 
L 174.950788 218.887716 
L 175.637655 218.887716 
L 175.637655 218.36103 
L 176.417742 218.36103 
L 176.417742 217.834344 
L 176.935199 217.834344 
L 176.935199 217.307658 
L 178.034867 217.307658 
L 178.034867 216.780971 
L 183.756332 216.780971 
L 183.756332 216.254285 
L 184.622891 216.254285 
L 184.622891 215.200913 
L 185.361408 215.200913 
L 185.388932 214.147541 
L 185.994813 214.147541 
L 185.994813 213.620855 
L 186.13372 213.620855 
L 186.13372 213.094169 
L 186.438496 213.094169 
L 186.438496 212.567483 
L 187.819603 212.567483 
L 187.885272 211.514111 
L 188.029669 211.514111 
L 188.029669 210.460738 
L 188.363305 210.460738 
L 188.363305 209.934052 
L 188.666005 209.934052 
L 188.666005 209.407366 
L 189.349475 209.407366 
L 189.349475 208.353994 
L 189.597899 208.353994 
L 189.597899 207.827308 
L 194.273053 207.827308 
L 194.273053 207.300622 
L 195.826694 207.300622 
L 195.826694 206.773936 
L 200.237408 206.773936 
L 200.237408 206.24725 
L 201.144638 206.24725 
L 201.203968 205.193878 
L 201.692188 205.193878 
L 201.692188 204.667192 
L 202.124148 204.667192 
L 202.234413 203.613819 
L 204.878643 203.613819 
L 204.878643 203.087133 
L 205.695063 203.087133 
L 205.695063 202.560447 
L 205.816249 202.560447 
L 205.913301 200.980389 
L 209.049122 200.980389 
L 209.049122 200.453703 
L 211.313512 200.453703 
L 211.313512 199.927017 
L 211.689359 199.927017 
L 211.689359 199.400331 
L 213.82287 199.400331 
L 213.82287 198.346959 
L 214.132506 198.346959 
L 214.132506 197.820273 
L 216.208641 197.820273 
L 216.208641 197.293586 
L 218.063698 197.293586 
L 218.063698 196.7669 
L 219.740264 196.7669 
L 219.784008 195.186842 
L 222.629745 195.186842 
L 222.629745 194.660156 
L 226.349656 194.660156 
L 226.349656 194.13347 
L 227.23856 194.13347 
L 227.23856 193.606784 
L 338.688 193.606784 
L 338.688 193.606784 
" style="fill:none;stroke:#ff00ff;stroke-linecap:square;stroke-width:1.5;"/>
   </g>
   <g id="line2d_41">
    <defs>
     <path d="M -0 8.485281 
L 5.091169 0 
L 0 -8.485281 
L -5.091169 -0 
z
" id="m12496a3ecf" style="stroke:#ff00ff;stroke-linejoin:miter;stroke-width:1.5;"/>
    </defs>
    <g>
     <use style="fill-opacity:0;stroke:#ff00ff;stroke-linejoin:miter;stroke-width:1.5;" x="125.110962" xlink:href="#m12496a3ecf" y="271.556324"/>
     <use style="fill-opacity:0;stroke:#ff00ff;stroke-linejoin:miter;stroke-width:1.5;" x="178.034867" xlink:href="#m12496a3ecf" y="217.307658"/>
     <use style="fill-opacity:0;stroke:#ff00ff;stroke-linejoin:miter;stroke-width:1.5;" x="227.23856" xlink:href="#m12496a3ecf" y="194.13347"/>
     <use style="fill-opacity:0;stroke:#ff00ff;stroke-linejoin:miter;stroke-width:1.5;" x="227.23856" xlink:href="#m12496a3ecf" y="193.606784"/>
     <use style="fill-opacity:0;stroke:#ff00ff;stroke-linejoin:miter;stroke-width:1.5;" x="227.23856" xlink:href="#m12496a3ecf" y="193.606784"/>
     <use style="fill-opacity:0;stroke:#ff00ff;stroke-linejoin:miter;stroke-width:1.5;" x="338.688" xlink:href="#m12496a3ecf" y="193.606784"/>
    </g>
   </g>
   <g id="line2d_42">
    <path style="fill:none;stroke:#ff00ff;stroke-linecap:square;stroke-width:1.5;"/>
    <g/>
   </g>
   <g id="line2d_43">
    <path clip-path="url(#p0e883125ac)" d="M 178.066286 216.780971 
" style="fill:none;stroke:#ff00ff;stroke-linecap:square;stroke-width:1.5;"/>
    <defs>
     <path d="M -12 12 
L 12 -12 
M -12 -12 
L 12 12 
" id="m25638e8cd0" style="stroke:#ff00ff;"/>
    </defs>
    <g clip-path="url(#p0e883125ac)">
     <use style="fill:#ff00ff;stroke:#ff00ff;" x="178.066286" xlink:href="#m25638e8cd0" y="216.780971"/>
    </g>
   </g>
   <g id="line2d_44">
    <defs>
     <path d="M 0 1.5 
C 0.397805 1.5 0.77937 1.341951 1.06066 1.06066 
C 1.341951 0.77937 1.5 0.397805 1.5 0 
C 1.5 -0.397805 1.341951 -0.77937 1.06066 -1.06066 
C 0.77937 -1.341951 0.397805 -1.5 0 -1.5 
C -0.397805 -1.5 -0.77937 -1.341951 -1.06066 -1.06066 
C -1.341951 -0.77937 -1.5 -0.397805 -1.5 0 
C -1.5 0.397805 -1.341951 0.77937 -1.06066 1.06066 
C -0.77937 1.341951 -0.397805 1.5 0 1.5 
z
" id="me67a82334e" style="stroke:#ff7500;"/>
    </defs>
    <g>
     <use style="fill:#ff7500;stroke:#ff7500;" x="225.263645" xlink:href="#me67a82334e" y="193.606784"/>
     <use style="fill:#ff7500;stroke:#ff7500;" x="225.263645" xlink:href="#me67a82334e" y="193.606784"/>
    </g>
   </g>
   <g id="line2d_45">
    <path d="M 29.53256 298.944 
L 29.53256 296.31057 
L 48.691568 296.31057 
L 48.691568 294.730511 
L 53.708537 294.730511 
L 53.708537 293.677139 
L 57.6 293.677139 
L 57.6 293.150453 
L 60.779557 293.150453 
L 60.779557 291.570395 
L 63.467834 291.570395 
L 63.467834 291.043709 
L 67.850577 291.043709 
L 67.850577 289.463651 
L 69.687988 289.463651 
L 69.687988 288.410278 
L 71.35013 288.410278 
L 71.35013 287.356906 
L 72.867545 287.356906 
L 72.867545 286.303534 
L 74.263433 286.303534 
L 74.263433 285.250162 
L 76.759008 285.250162 
L 76.759008 284.19679 
L 77.884514 284.19679 
L 77.884514 283.670104 
L 81.775977 283.670104 
L 81.775977 283.143418 
L 87.009585 283.143418 
L 87.009585 282.616732 
L 91.535274 282.616732 
L 91.535274 281.563359 
L 98.100772 281.563359 
L 98.100772 281.036673 
L 98.43941 281.036673 
L 98.43941 280.509987 
L 98.771596 280.509987 
L 98.771596 279.983301 
L 100.040467 279.983301 
L 100.040467 279.456615 
L 101.223245 279.456615 
L 101.223245 278.929929 
L 102.060491 278.929929 
L 102.060491 278.403243 
L 104.826449 278.403243 
L 104.826449 277.876557 
L 108.577836 277.876557 
L 108.577836 277.349871 
L 108.764355 277.349871 
L 108.764355 276.823185 
L 112.877038 276.823185 
L 112.877038 276.296499 
L 114.816733 276.296499 
L 114.816733 275.769812 
L 115.205729 275.769812 
L 115.205729 275.243126 
L 115.33349 275.243126 
L 115.33349 274.189754 
L 115.835374 274.189754 
L 115.835374 273.663068 
L 117.259781 273.663068 
L 117.259781 273.136382 
L 117.486268 273.136382 
L 117.486268 272.609696 
L 117.598418 272.609696 
L 117.598418 272.08301 
L 117.709852 272.08301 
L 117.709852 271.556324 
L 122.104932 271.556324 
L 122.104932 271.029638 
L 122.782271 271.029638 
L 122.782271 270.502952 
L 124.062793 270.502952 
L 124.062793 269.976266 
L 124.216444 269.976266 
L 124.216444 269.449579 
L 125.183475 269.449579 
L 125.183475 268.922893 
L 128.411207 268.922893 
L 128.411207 267.869521 
L 129.51791 267.869521 
L 129.51791 267.342835 
L 130.45189 267.342835 
L 130.45189 266.816149 
L 131.082294 266.816149 
L 131.082294 266.289463 
L 131.640805 266.289463 
L 131.640805 265.762777 
L 132.470242 265.762777 
L 132.470242 264.709405 
L 132.70687 264.709405 
L 132.70687 263.129347 
L 133.032848 263.129347 
L 133.124876 262.075974 
L 133.711505 262.075974 
L 133.711505 261.022602 
L 134.149701 261.022602 
L 134.149701 260.495916 
L 136.266147 260.495916 
L 136.266147 259.96923 
L 138.153314 259.96923 
L 138.153314 259.442544 
L 138.69516 259.442544 
L 138.69516 258.915858 
L 138.861092 258.915858 
L 138.861092 258.389172 
L 139.413734 258.389172 
L 139.413734 257.862486 
L 139.856059 257.862486 
L 139.856059 257.3358 
L 140.134598 257.3358 
L 140.134598 256.809114 
L 140.856326 256.809114 
L 140.856326 256.282427 
L 143.040814 256.282427 
L 143.040814 255.755741 
L 143.298796 255.755741 
L 143.298796 255.229055 
L 143.60342 255.229055 
L 143.60342 254.702369 
L 143.902815 254.702369 
L 143.976867 253.648997 
L 144.653267 253.648997 
L 144.653267 253.122311 
L 145.304409 253.122311 
L 145.304409 252.595625 
L 145.440832 252.595625 
L 145.440832 252.068939 
L 145.598655 252.068939 
L 145.598655 251.542253 
L 147.78933 251.542253 
L 147.78933 251.015567 
L 148.695721 251.015567 
L 148.695721 250.488881 
L 150.085825 250.488881 
L 150.120495 247.85545 
L 150.327083 247.85545 
L 150.327083 247.328764 
L 151.897188 247.328764 
L 151.897188 246.802078 
L 152.781537 246.802078 
L 152.781537 246.275392 
L 155.063706 246.275392 
L 155.063706 245.748706 
L 155.488919 245.748706 
L 155.488919 245.22202 
L 155.703987 245.22202 
L 155.703987 244.695334 
L 155.916435 244.695334 
L 155.916435 244.168648 
L 156.729404 244.168648 
L 156.729404 243.641962 
L 157.44937 243.641962 
L 157.44937 243.115275 
L 157.697862 243.115275 
L 157.697862 242.588589 
L 158.868869 242.588589 
L 158.868869 242.061903 
L 159.577838 242.061903 
L 159.577838 241.535217 
L 160.288133 241.535217 
L 160.37492 240.481845 
L 160.518612 240.481845 
L 160.518612 239.955159 
L 161.654251 239.955159 
L 161.761186 238.901787 
L 163.469301 238.901787 
L 163.469301 238.375101 
L 164.140886 238.375101 
L 164.140886 237.848415 
L 164.562052 237.848415 
L 164.562052 237.321729 
L 164.86209 237.321729 
L 164.86209 236.795043 
L 164.973287 236.795043 
L 164.973287 236.268356 
L 165.288176 236.268356 
L 165.396698 234.688298 
L 166.172531 234.688298 
L 166.172531 234.161612 
L 167.294587 234.161612 
L 167.294587 233.634926 
L 167.564173 233.634926 
L 167.564173 233.10824 
L 167.728995 233.10824 
L 167.728995 232.581554 
L 168.769907 232.581554 
L 168.769907 232.054868 
L 169.169476 232.054868 
L 169.169476 231.528182 
L 169.633787 231.528182 
L 169.7128 230.47481 
L 169.752173 230.47481 
L 169.763406 229.421437 
L 170.135591 229.421437 
L 170.201421 228.368065 
L 170.354063 228.368065 
L 170.354063 227.841379 
L 170.946367 227.841379 
L 170.946367 227.314693 
L 171.149789 227.314693 
L 171.149789 226.788007 
L 171.422484 226.788007 
L 171.498894 224.681263 
L 172.62567 224.681263 
L 172.62567 224.154577 
L 172.768032 224.154577 
L 172.862299 223.101204 
L 173.321559 223.101204 
L 173.321559 222.574518 
L 173.634644 222.574518 
L 173.688525 219.941088 
L 174.039142 219.941088 
L 174.065485 218.887716 
L 174.37423 218.887716 
L 174.37423 218.36103 
L 174.732584 218.36103 
L 174.757901 216.780971 
L 174.921573 216.780971 
L 174.921573 216.254285 
L 175.174531 216.254285 
L 175.174531 215.727599 
L 175.456309 215.727599 
L 175.456309 215.200913 
L 175.681699 215.200913 
L 175.681699 214.674227 
L 175.833 214.674227 
L 175.833 214.147541 
L 176.045773 214.147541 
L 176.104418 213.094169 
L 176.325491 213.094169 
L 176.3409 212.040797 
L 176.638688 212.040797 
L 176.706692 210.987425 
L 177.016882 210.987425 
L 177.016882 210.460738 
L 177.59612 210.460738 
L 177.59612 209.407366 
L 177.838089 209.407366 
L 177.838089 208.88068 
L 181.266177 208.88068 
L 181.266177 208.353994 
L 188.40577 208.353994 
L 188.40577 207.827308 
L 188.566961 207.827308 
L 188.566961 207.300622 
L 188.898067 207.300622 
L 188.898067 206.773936 
L 189.312911 206.773936 
L 189.312911 206.24725 
L 189.471409 206.24725 
L 189.487724 204.667192 
L 189.637465 204.667192 
L 189.637465 204.140506 
L 193.926745 204.140506 
L 193.926745 203.613819 
L 195.631613 203.613819 
L 195.631613 203.087133 
L 196.183297 203.087133 
L 196.183297 202.560447 
L 196.470949 202.560447 
L 196.470949 202.033761 
L 196.629264 202.033761 
L 196.668919 200.980389 
L 196.773035 200.980389 
L 196.882462 199.927017 
L 201.472128 199.927017 
L 201.472128 199.400331 
L 201.912172 199.400331 
L 201.912172 198.873645 
L 205.642047 198.873645 
L 205.642047 198.346959 
L 205.802035 198.346959 
L 205.802035 197.820273 
L 209.093918 197.820273 
L 209.093918 197.293586 
L 209.240467 197.293586 
L 209.240467 196.7669 
L 211.682256 196.7669 
L 211.682256 196.240214 
L 211.813702 196.240214 
L 211.813702 195.713528 
L 214.275668 195.713528 
L 214.275668 195.186842 
L 218.11957 195.186842 
L 218.11957 194.660156 
L 219.844175 194.660156 
L 219.844175 194.13347 
L 225.263645 194.13347 
L 225.263645 193.606784 
L 338.688 193.606784 
L 338.688 193.606784 
" style="fill:none;stroke:#ff7500;stroke-linecap:square;stroke-width:1.5;"/>
   </g>
   <g id="line2d_46">
    <defs>
     <path d="M 0 -6 
L -1.347084 -1.854102 
L -5.706339 -1.854102 
L -2.179628 0.708204 
L -3.526712 4.854102 
L -0 2.291796 
L 3.526712 4.854102 
L 2.179628 0.708204 
L 5.706339 -1.854102 
L 1.347084 -1.854102 
z
" id="m4629962bbc" style="stroke:#ff7500;stroke-linejoin:bevel;stroke-width:1.5;"/>
    </defs>
    <g>
     <use style="fill-opacity:0;stroke:#ff7500;stroke-linejoin:bevel;stroke-width:1.5;" x="136.266147" xlink:href="#m4629962bbc" y="260.495916"/>
     <use style="fill-opacity:0;stroke:#ff7500;stroke-linejoin:bevel;stroke-width:1.5;" x="177.838089" xlink:href="#m4629962bbc" y="208.88068"/>
     <use style="fill-opacity:0;stroke:#ff7500;stroke-linejoin:bevel;stroke-width:1.5;" x="225.263645" xlink:href="#m4629962bbc" y="194.13347"/>
     <use style="fill-opacity:0;stroke:#ff7500;stroke-linejoin:bevel;stroke-width:1.5;" x="225.263645" xlink:href="#m4629962bbc" y="193.606784"/>
     <use style="fill-opacity:0;stroke:#ff7500;stroke-linejoin:bevel;stroke-width:1.5;" x="225.263645" xlink:href="#m4629962bbc" y="193.606784"/>
     <use style="fill-opacity:0;stroke:#ff7500;stroke-linejoin:bevel;stroke-width:1.5;" x="338.688" xlink:href="#m4629962bbc" y="193.606784"/>
    </g>
   </g>
   <g id="line2d_47">
    <path style="fill:none;stroke:#ff7500;stroke-linecap:square;stroke-width:1.5;"/>
    <g/>
   </g>
   <g id="line2d_48">
    <path clip-path="url(#p0e883125ac)" d="M 178.066286 208.88068 
" style="fill:none;stroke:#ff7500;stroke-linecap:square;stroke-width:1.5;"/>
    <defs>
     <path d="M -12 12 
L 12 -12 
M -12 -12 
L 12 12 
" id="maa28749176" style="stroke:#ff7500;"/>
    </defs>
    <g clip-path="url(#p0e883125ac)">
     <use style="fill:#ff7500;stroke:#ff7500;" x="178.066286" xlink:href="#maa28749176" y="208.88068"/>
    </g>
   </g>
   <g id="line2d_49">
    <defs>
     <path d="M 0 1.5 
C 0.397805 1.5 0.77937 1.341951 1.06066 1.06066 
C 1.341951 0.77937 1.5 0.397805 1.5 0 
C 1.5 -0.397805 1.341951 -0.77937 1.06066 -1.06066 
C 0.77937 -1.341951 0.397805 -1.5 0 -1.5 
C -0.397805 -1.5 -0.77937 -1.341951 -1.06066 -1.06066 
C -1.341951 -0.77937 -1.5 -0.397805 -1.5 0 
C -1.5 0.397805 -1.341951 0.77937 -1.06066 1.06066 
C -0.77937 1.341951 -0.397805 1.5 0 1.5 
z
" id="md1d8cbda6d" style="stroke:#6495ed;"/>
    </defs>
    <g>
     <use style="fill:#6495ed;stroke:#6495ed;" x="237.754083" xlink:href="#md1d8cbda6d" y="209.407366"/>
     <use style="fill:#6495ed;stroke:#6495ed;" x="237.754083" xlink:href="#md1d8cbda6d" y="209.407366"/>
    </g>
   </g>
   <g id="line2d_50">
    <path d="M 29.53256 298.944 
L 29.53256 296.31057 
L 48.691568 296.31057 
L 48.691568 294.730511 
L 57.6 294.730511 
L 57.6 294.203825 
L 60.779557 294.203825 
L 60.779557 292.097081 
L 63.467834 292.097081 
L 63.467834 291.570395 
L 67.850577 291.570395 
L 67.850577 291.043709 
L 69.687988 291.043709 
L 69.687988 289.990337 
L 71.35013 289.990337 
L 71.35013 289.463651 
L 72.867545 289.463651 
L 72.867545 288.410278 
L 74.263433 288.410278 
L 74.263433 287.356906 
L 75.555822 287.356906 
L 75.555822 286.83022 
L 76.759008 286.83022 
L 76.759008 286.303534 
L 77.884514 286.303534 
L 77.884514 285.776848 
L 81.775977 285.776848 
L 81.775977 285.250162 
L 85.66744 285.250162 
L 85.66744 284.723476 
L 87.009585 284.723476 
L 87.009585 283.670104 
L 91.535274 283.670104 
L 91.535274 282.616732 
L 93.863965 282.616732 
L 93.863965 282.090045 
L 97.755429 282.090045 
L 97.755429 281.563359 
L 98.43941 281.563359 
L 98.43941 280.509987 
L 100.040467 280.509987 
L 100.040467 279.983301 
L 101.223245 279.983301 
L 101.223245 278.929929 
L 104.826449 278.929929 
L 104.826449 277.876557 
L 105.51043 277.876557 
L 105.51043 277.349871 
L 105.951954 277.349871 
L 105.951954 276.823185 
L 108.389302 276.823185 
L 108.389302 276.296499 
L 110.188761 276.296499 
L 110.188761 275.769812 
L 110.527398 275.769812 
L 110.527398 275.243126 
L 111.974805 275.243126 
L 111.974805 274.71644 
L 113.167699 274.71644 
L 113.167699 274.189754 
L 116.562116 274.189754 
L 116.562116 273.136382 
L 116.797786 273.136382 
L 116.797786 272.609696 
L 117.930605 272.609696 
L 117.930605 272.08301 
L 120.47729 272.08301 
L 120.47729 271.556324 
L 120.665825 271.556324 
L 120.759333 269.976266 
L 122.276749 269.976266 
L 122.276749 269.449579 
L 123.672636 269.449579 
L 123.672636 268.922893 
L 125.183475 268.922893 
L 125.183475 268.396207 
L 125.892487 268.396207 
L 125.892487 267.869521 
L 126.168212 267.869521 
L 126.168212 267.342835 
L 126.573795 267.342835 
L 126.573795 266.816149 
L 127.985095 266.816149 
L 127.985095 266.289463 
L 128.229861 266.289463 
L 128.229861 265.762777 
L 128.350967 265.762777 
L 128.350967 265.236091 
L 128.590686 265.236091 
L 128.590686 264.709405 
L 129.233413 264.709405 
L 129.233413 264.182719 
L 129.46138 264.182719 
L 129.46138 263.656033 
L 130.822389 263.656033 
L 130.822389 263.129347 
L 131.640805 263.129347 
L 131.640805 262.60266 
L 132.326708 262.60266 
L 132.326708 262.075974 
L 132.70687 262.075974 
L 132.70687 261.549288 
L 133.216421 261.549288 
L 133.216421 260.495916 
L 133.398082 260.495916 
L 133.398082 259.96923 
L 134.911732 259.96923 
L 134.911732 259.442544 
L 135.721125 259.442544 
L 135.721125 258.915858 
L 136.034648 258.915858 
L 136.034648 258.389172 
L 136.979586 258.389172 
L 136.979586 257.862486 
L 137.271464 257.862486 
L 137.271464 256.282427 
L 137.48721 256.282427 
L 137.48721 255.229055 
L 137.664982 255.229055 
L 137.70032 254.175683 
L 139.02546 254.175683 
L 139.02546 253.648997 
L 140.256979 253.648997 
L 140.256979 253.122311 
L 140.767727 253.122311 
L 140.767727 252.595625 
L 141.605898 252.595625 
L 141.605898 252.068939 
L 142.566605 252.068939 
L 142.566605 251.542253 
L 143.324386 251.542253 
L 143.324386 251.015567 
L 143.75376 251.015567 
L 143.75376 250.488881 
L 144.148442 250.488881 
L 144.148442 249.962195 
L 146.495417 249.962195 
L 146.516724 248.908822 
L 149.413639 248.908822 
L 149.413639 248.382136 
L 149.593058 248.382136 
L 149.593058 247.328764 
L 150.899466 247.328764 
L 150.982078 246.275392 
L 151.485716 246.275392 
L 151.485716 245.748706 
L 151.660987 245.748706 
L 151.660987 245.22202 
L 153.105587 245.22202 
L 153.105587 244.695334 
L 155.501643 244.695334 
L 155.501643 244.168648 
L 156.163105 244.168648 
L 156.163105 243.641962 
L 157.641697 243.641962 
L 157.641697 243.115275 
L 157.86528 243.115275 
L 157.86528 242.588589 
L 158.444276 242.588589 
L 158.476481 241.535217 
L 162.921083 241.535217 
L 162.995734 240.481845 
L 163.388564 240.481845 
L 163.388564 239.955159 
L 168.632659 239.955159 
L 168.632659 239.428473 
L 168.923766 239.428473 
L 168.923766 238.901787 
L 169.064596 238.901787 
L 169.064596 238.375101 
L 169.858596 238.375101 
L 169.858596 237.848415 
L 170.532264 237.848415 
L 170.532264 237.321729 
L 172.405099 237.321729 
L 172.405099 236.795043 
L 179.350203 236.795043 
L 179.363159 235.214984 
L 179.706217 235.214984 
L 179.706217 234.688298 
L 180.708662 234.688298 
L 180.708662 234.161612 
L 181.126265 234.161612 
L 181.149662 232.581554 
L 181.488299 232.581554 
L 181.502625 231.528182 
L 182.436623 231.528182 
L 182.436623 231.001496 
L 182.828533 231.001496 
L 182.828533 230.47481 
L 182.976549 230.47481 
L 182.976549 229.948123 
L 183.209233 229.948123 
L 183.209233 229.421437 
L 184.07555 229.421437 
L 184.176576 227.841379 
L 184.316062 227.841379 
L 184.316062 227.314693 
L 185.186067 227.314693 
L 185.186067 226.261321 
L 185.299317 226.261321 
L 185.299317 225.734635 
L 186.175396 225.734635 
L 186.175396 224.681263 
L 187.552398 224.681263 
L 187.552398 224.154577 
L 192.394893 224.154577 
L 192.413288 223.101204 
L 193.475673 223.101204 
L 193.475673 222.047832 
L 194.143125 222.047832 
L 194.143125 221.521146 
L 194.609916 221.521146 
L 194.708241 220.467774 
L 195.534529 220.467774 
L 195.534529 219.941088 
L 198.408472 219.941088 
L 198.408472 219.414402 
L 199.261768 219.414402 
L 199.261768 218.887716 
L 200.612877 218.887716 
L 200.641574 216.780971 
L 200.989803 216.780971 
L 200.989803 216.254285 
L 202.941329 216.254285 
L 202.941329 215.727599 
L 204.649255 215.727599 
L 204.649255 215.200913 
L 204.842624 215.200913 
L 204.842624 214.674227 
L 208.262644 214.674227 
L 208.262644 214.147541 
L 211.104943 214.147541 
L 211.104943 213.620855 
L 213.237269 213.620855 
L 213.237269 212.567483 
L 224.872899 212.567483 
L 224.872899 212.040797 
L 226.03163 212.040797 
L 226.03163 211.514111 
L 232.479014 211.514111 
L 232.479014 210.987425 
L 234.648249 210.987425 
L 234.648249 210.460738 
L 237.175598 210.460738 
L 237.175598 209.934052 
L 237.754083 209.934052 
L 237.754083 209.407366 
L 338.688 209.407366 
L 338.688 209.407366 
" style="fill:none;stroke:#6495ed;stroke-linecap:square;stroke-width:1.5;"/>
   </g>
   <g id="line2d_51">
    <defs>
     <path d="M -0 6 
L 6 -6 
L -6 -6 
z
" id="m8bb1de7f6a" style="stroke:#6495ed;stroke-linejoin:miter;stroke-width:1.5;"/>
    </defs>
    <g>
     <use style="fill-opacity:0;stroke:#6495ed;stroke-linejoin:miter;stroke-width:1.5;" x="91.535274" xlink:href="#m8bb1de7f6a" y="283.670104"/>
     <use style="fill-opacity:0;stroke:#6495ed;stroke-linejoin:miter;stroke-width:1.5;" x="150.982078" xlink:href="#m8bb1de7f6a" y="246.275392"/>
     <use style="fill-opacity:0;stroke:#6495ed;stroke-linejoin:miter;stroke-width:1.5;" x="204.842624" xlink:href="#m8bb1de7f6a" y="214.674227"/>
     <use style="fill-opacity:0;stroke:#6495ed;stroke-linejoin:miter;stroke-width:1.5;" x="237.754083" xlink:href="#m8bb1de7f6a" y="209.934052"/>
     <use style="fill-opacity:0;stroke:#6495ed;stroke-linejoin:miter;stroke-width:1.5;" x="237.754083" xlink:href="#m8bb1de7f6a" y="209.407366"/>
     <use style="fill-opacity:0;stroke:#6495ed;stroke-linejoin:miter;stroke-width:1.5;" x="338.688" xlink:href="#m8bb1de7f6a" y="209.407366"/>
    </g>
   </g>
   <g id="line2d_52">
    <path style="fill:none;stroke:#6495ed;stroke-linecap:square;stroke-width:1.5;"/>
    <g/>
   </g>
   <g id="line2d_53">
    <path clip-path="url(#p0e883125ac)" d="M 178.066286 236.795043 
" style="fill:none;stroke:#6495ed;stroke-linecap:square;stroke-width:1.5;"/>
    <defs>
     <path d="M -12 12 
L 12 -12 
M -12 -12 
L 12 12 
" id="mb45bd7ac3c" style="stroke:#6495ed;"/>
    </defs>
    <g clip-path="url(#p0e883125ac)">
     <use style="fill:#6495ed;stroke:#6495ed;" x="178.066286" xlink:href="#mb45bd7ac3c" y="236.795043"/>
    </g>
   </g>
   <g id="line2d_54">
    <path d="M 338.688 209.407366 
L 369.60768 293.571802 
" style="fill:none;stroke:#6495ed;stroke-linecap:square;stroke-width:1.5;"/>
    <g>
     <use style="fill-opacity:0;stroke:#6495ed;stroke-linejoin:miter;stroke-width:1.5;" x="338.688" xlink:href="#m8bb1de7f6a" y="209.407366"/>
     <use style="fill-opacity:0;stroke:#6495ed;stroke-linejoin:miter;stroke-width:1.5;" x="369.60768" xlink:href="#m8bb1de7f6a" y="293.571802"/>
    </g>
   </g>
   <g id="line2d_55">
    <path d="M 338.688 193.606784 
L 369.60768 229.105426 
" style="fill:none;stroke:#ff00ff;stroke-linecap:square;stroke-width:1.5;"/>
    <g>
     <use style="fill-opacity:0;stroke:#ff00ff;stroke-linejoin:miter;stroke-width:1.5;" x="338.688" xlink:href="#m12496a3ecf" y="193.606784"/>
     <use style="fill-opacity:0;stroke:#ff00ff;stroke-linejoin:miter;stroke-width:1.5;" x="369.60768" xlink:href="#m12496a3ecf" y="229.105426"/>
    </g>
   </g>
   <g id="line2d_56">
    <path d="M 338.688 193.606784 
L 369.60768 164.63905 
" style="fill:none;stroke:#ff7500;stroke-linecap:square;stroke-width:1.5;"/>
    <g>
     <use style="fill-opacity:0;stroke:#ff7500;stroke-linejoin:bevel;stroke-width:1.5;" x="338.688" xlink:href="#m4629962bbc" y="193.606784"/>
     <use style="fill-opacity:0;stroke:#ff7500;stroke-linejoin:bevel;stroke-width:1.5;" x="369.60768" xlink:href="#m4629962bbc" y="164.63905"/>
    </g>
   </g>
   <g id="line2d_57">
    <path d="M 338.688 183.073062 
L 369.60768 100.172673 
" style="fill:none;stroke:#000080;stroke-linecap:square;stroke-width:1.5;"/>
    <g>
     <use style="fill-opacity:0;stroke:#000080;stroke-width:1.5;" x="338.688" xlink:href="#md2f13478d1" y="183.073062"/>
     <use style="fill-opacity:0;stroke:#000080;stroke-width:1.5;" x="369.60768" xlink:href="#md2f13478d1" y="100.172673"/>
    </g>
   </g>
   <g id="line2d_58">
    <path d="M 338.688 298.944 
L 338.688 30.334099 
" style="fill:none;stroke:#000000;stroke-linecap:square;stroke-width:1.5;"/>
   </g>
   <g id="patch_3">
    <path d="M 57.6 298.944 
L 57.6 27.648 
" style="fill:none;stroke:#000000;stroke-linecap:square;stroke-linejoin:miter;stroke-width:0.8;"/>
   </g>
   <g id="patch_4">
    <path d="M 338.688 298.944 
L 338.688 27.648 
" style="fill:none;stroke:#000000;stroke-linecap:square;stroke-linejoin:miter;stroke-width:0.8;"/>
   </g>
   <g id="patch_5">
    <path d="M 57.6 298.944 
L 338.688 298.944 
" style="fill:none;stroke:#000000;stroke-linecap:square;stroke-linejoin:miter;stroke-width:0.8;"/>
   </g>
   <g id="patch_6">
    <path d="M 57.6 27.648 
L 338.688 27.648 
" style="fill:none;stroke:#000000;stroke-linecap:square;stroke-linejoin:miter;stroke-width:0.8;"/>
   </g>
   <g id="text_13">
    <!-- PSO -->
    <defs>
     <path d="M 19.671875 64.796875 
L 19.671875 37.40625 
L 32.078125 37.40625 
Q 38.96875 37.40625 42.71875 40.96875 
Q 46.484375 44.53125 46.484375 51.125 
Q 46.484375 57.671875 42.71875 61.234375 
Q 38.96875 64.796875 32.078125 64.796875 
z
M 9.8125 72.90625 
L 32.078125 72.90625 
Q 44.34375 72.90625 50.609375 67.359375 
Q 56.890625 61.8125 56.890625 51.125 
Q 56.890625 40.328125 50.609375 34.8125 
Q 44.34375 29.296875 32.078125 29.296875 
L 19.671875 29.296875 
L 19.671875 0 
L 9.8125 0 
z
" id="DejaVuSans-80"/>
     <path d="M 53.515625 70.515625 
L 53.515625 60.890625 
Q 47.90625 63.578125 42.921875 64.890625 
Q 37.9375 66.21875 33.296875 66.21875 
Q 25.25 66.21875 20.875 63.09375 
Q 16.5 59.96875 16.5 54.203125 
Q 16.5 49.359375 19.40625 46.890625 
Q 22.3125 44.4375 30.421875 42.921875 
L 36.375 41.703125 
Q 47.40625 39.59375 52.65625 34.296875 
Q 57.90625 29 57.90625 20.125 
Q 57.90625 9.515625 50.796875 4.046875 
Q 43.703125 -1.421875 29.984375 -1.421875 
Q 24.8125 -1.421875 18.96875 -0.25 
Q 13.140625 0.921875 6.890625 3.21875 
L 6.890625 13.375 
Q 12.890625 10.015625 18.65625 8.296875 
Q 24.421875 6.59375 29.984375 6.59375 
Q 38.421875 6.59375 43.015625 9.90625 
Q 47.609375 13.234375 47.609375 19.390625 
Q 47.609375 24.75 44.3125 27.78125 
Q 41.015625 30.8125 33.5 32.328125 
L 27.484375 33.5 
Q 16.453125 35.6875 11.515625 40.375 
Q 6.59375 45.0625 6.59375 53.421875 
Q 6.59375 63.09375 13.40625 68.65625 
Q 20.21875 74.21875 32.171875 74.21875 
Q 37.3125 74.21875 42.625 73.28125 
Q 47.953125 72.359375 53.515625 70.515625 
z
" id="DejaVuSans-83"/>
     <path d="M 39.40625 66.21875 
Q 28.65625 66.21875 22.328125 58.203125 
Q 16.015625 50.203125 16.015625 36.375 
Q 16.015625 22.609375 22.328125 14.59375 
Q 28.65625 6.59375 39.40625 6.59375 
Q 50.140625 6.59375 56.421875 14.59375 
Q 62.703125 22.609375 62.703125 36.375 
Q 62.703125 50.203125 56.421875 58.203125 
Q 50.140625 66.21875 39.40625 66.21875 
z
M 39.40625 74.21875 
Q 54.734375 74.21875 63.90625 63.9375 
Q 73.09375 53.65625 73.09375 36.375 
Q 73.09375 19.140625 63.90625 8.859375 
Q 54.734375 -1.421875 39.40625 -1.421875 
Q 24.03125 -1.421875 14.8125 8.828125 
Q 5.609375 19.09375 5.609375 36.375 
Q 5.609375 53.65625 14.8125 63.9375 
Q 24.03125 74.21875 39.40625 74.21875 
z
" id="DejaVuSans-79"/>
    </defs>
    <g transform="translate(375.22944 298.262739)scale(0.17 -0.17)">
     <use xlink:href="#DejaVuSans-80"/>
     <use x="60.302734" xlink:href="#DejaVuSans-83"/>
     <use x="123.779297" xlink:href="#DejaVuSans-79"/>
    </g>
   </g>
   <g id="text_14">
    <!-- DE -->
    <defs>
     <path d="M 19.671875 64.796875 
L 19.671875 8.109375 
L 31.59375 8.109375 
Q 46.6875 8.109375 53.6875 14.9375 
Q 60.6875 21.78125 60.6875 36.53125 
Q 60.6875 51.171875 53.6875 57.984375 
Q 46.6875 64.796875 31.59375 64.796875 
z
M 9.8125 72.90625 
L 30.078125 72.90625 
Q 51.265625 72.90625 61.171875 64.09375 
Q 71.09375 55.28125 71.09375 36.53125 
Q 71.09375 17.671875 61.125 8.828125 
Q 51.171875 0 30.078125 0 
L 9.8125 0 
z
" id="DejaVuSans-68"/>
     <path d="M 9.8125 72.90625 
L 55.90625 72.90625 
L 55.90625 64.59375 
L 19.671875 64.59375 
L 19.671875 43.015625 
L 54.390625 43.015625 
L 54.390625 34.71875 
L 19.671875 34.71875 
L 19.671875 8.296875 
L 56.78125 8.296875 
L 56.78125 0 
L 9.8125 0 
z
" id="DejaVuSans-69"/>
    </defs>
    <g transform="translate(375.22944 233.796363)scale(0.17 -0.17)">
     <use xlink:href="#DejaVuSans-68"/>
     <use x="77.001953" xlink:href="#DejaVuSans-69"/>
    </g>
   </g>
   <g id="text_15">
    <!-- DEPSO -->
    <g transform="translate(375.22944 169.329987)scale(0.17 -0.17)">
     <use xlink:href="#DejaVuSans-68"/>
     <use x="77.001953" xlink:href="#DejaVuSans-69"/>
     <use x="140.185547" xlink:href="#DejaVuSans-80"/>
     <use x="200.488281" xlink:href="#DejaVuSans-83"/>
     <use x="263.964844" xlink:href="#DejaVuSans-79"/>
    </g>
   </g>
   <g id="text_16">
    <!-- CMA-ES -->
    <defs>
     <path d="M 64.40625 67.28125 
L 64.40625 56.890625 
Q 59.421875 61.53125 53.78125 63.8125 
Q 48.140625 66.109375 41.796875 66.109375 
Q 29.296875 66.109375 22.65625 58.46875 
Q 16.015625 50.828125 16.015625 36.375 
Q 16.015625 21.96875 22.65625 14.328125 
Q 29.296875 6.6875 41.796875 6.6875 
Q 48.140625 6.6875 53.78125 8.984375 
Q 59.421875 11.28125 64.40625 15.921875 
L 64.40625 5.609375 
Q 59.234375 2.09375 53.4375 0.328125 
Q 47.65625 -1.421875 41.21875 -1.421875 
Q 24.65625 -1.421875 15.125 8.703125 
Q 5.609375 18.84375 5.609375 36.375 
Q 5.609375 53.953125 15.125 64.078125 
Q 24.65625 74.21875 41.21875 74.21875 
Q 47.75 74.21875 53.53125 72.484375 
Q 59.328125 70.75 64.40625 67.28125 
z
" id="DejaVuSans-67"/>
     <path d="M 9.8125 72.90625 
L 24.515625 72.90625 
L 43.109375 23.296875 
L 61.8125 72.90625 
L 76.515625 72.90625 
L 76.515625 0 
L 66.890625 0 
L 66.890625 64.015625 
L 48.09375 14.015625 
L 38.1875 14.015625 
L 19.390625 64.015625 
L 19.390625 0 
L 9.8125 0 
z
" id="DejaVuSans-77"/>
     <path d="M 34.1875 63.1875 
L 20.796875 26.90625 
L 47.609375 26.90625 
z
M 28.609375 72.90625 
L 39.796875 72.90625 
L 67.578125 0 
L 57.328125 0 
L 50.6875 18.703125 
L 17.828125 18.703125 
L 11.1875 0 
L 0.78125 0 
z
" id="DejaVuSans-65"/>
    </defs>
    <g transform="translate(375.22944 104.863611)scale(0.17 -0.17)">
     <use xlink:href="#DejaVuSans-67"/>
     <use x="69.824219" xlink:href="#DejaVuSans-77"/>
     <use x="156.103516" xlink:href="#DejaVuSans-65"/>
     <use x="222.261719" xlink:href="#DejaVuSans-45"/>
     <use x="258.345703" xlink:href="#DejaVuSans-69"/>
     <use x="321.529297" xlink:href="#DejaVuSans-83"/>
    </g>
   </g>
   <g id="text_17">
    <!-- best 2009 -->
    <defs>
     <path d="M 48.6875 27.296875 
Q 48.6875 37.203125 44.609375 42.84375 
Q 40.53125 48.484375 33.40625 48.484375 
Q 26.265625 48.484375 22.1875 42.84375 
Q 18.109375 37.203125 18.109375 27.296875 
Q 18.109375 17.390625 22.1875 11.75 
Q 26.265625 6.109375 33.40625 6.109375 
Q 40.53125 6.109375 44.609375 11.75 
Q 48.6875 17.390625 48.6875 27.296875 
z
M 18.109375 46.390625 
Q 20.953125 51.265625 25.265625 53.625 
Q 29.59375 56 35.59375 56 
Q 45.5625 56 51.78125 48.09375 
Q 58.015625 40.1875 58.015625 27.296875 
Q 58.015625 14.40625 51.78125 6.484375 
Q 45.5625 -1.421875 35.59375 -1.421875 
Q 29.59375 -1.421875 25.265625 0.953125 
Q 20.953125 3.328125 18.109375 8.203125 
L 18.109375 0 
L 9.078125 0 
L 9.078125 75.984375 
L 18.109375 75.984375 
z
" id="DejaVuSans-98"/>
     <path d="M 10.984375 1.515625 
L 10.984375 10.5 
Q 14.703125 8.734375 18.5 7.8125 
Q 22.3125 6.890625 25.984375 6.890625 
Q 35.75 6.890625 40.890625 13.453125 
Q 46.046875 20.015625 46.78125 33.40625 
Q 43.953125 29.203125 39.59375 26.953125 
Q 35.25 24.703125 29.984375 24.703125 
Q 19.046875 24.703125 12.671875 31.3125 
Q 6.296875 37.9375 6.296875 49.421875 
Q 6.296875 60.640625 12.9375 67.421875 
Q 19.578125 74.21875 30.609375 74.21875 
Q 43.265625 74.21875 49.921875 64.515625 
Q 56.59375 54.828125 56.59375 36.375 
Q 56.59375 19.140625 48.40625 8.859375 
Q 40.234375 -1.421875 26.421875 -1.421875 
Q 22.703125 -1.421875 18.890625 -0.6875 
Q 15.09375 0.046875 10.984375 1.515625 
z
M 30.609375 32.421875 
Q 37.25 32.421875 41.125 36.953125 
Q 45.015625 41.5 45.015625 49.421875 
Q 45.015625 57.28125 41.125 61.84375 
Q 37.25 66.40625 30.609375 66.40625 
Q 23.96875 66.40625 20.09375 61.84375 
Q 16.21875 57.28125 16.21875 49.421875 
Q 16.21875 41.5 20.09375 36.953125 
Q 23.96875 32.421875 30.609375 32.421875 
z
" id="DejaVuSans-57"/>
    </defs>
    <g transform="translate(375.22944 40.397235)scale(0.17 -0.17)">
     <use xlink:href="#DejaVuSans-98"/>
     <use x="63.476562" xlink:href="#DejaVuSans-101"/>
     <use x="125" xlink:href="#DejaVuSans-115"/>
     <use x="177.099609" xlink:href="#DejaVuSans-116"/>
     <use x="216.308594" xlink:href="#DejaVuSans-32"/>
     <use x="248.095703" xlink:href="#DejaVuSans-50"/>
     <use x="311.71875" xlink:href="#DejaVuSans-48"/>
     <use x="375.341797" xlink:href="#DejaVuSans-48"/>
     <use x="438.964844" xlink:href="#DejaVuSans-57"/>
    </g>
   </g>
   <g id="text_18">
    <!-- bbob f18, 5-D -->
    <defs>
     <path d="M 10.796875 72.90625 
L 49.515625 72.90625 
L 49.515625 64.59375 
L 19.828125 64.59375 
L 19.828125 46.734375 
Q 21.96875 47.46875 24.109375 47.828125 
Q 26.265625 48.1875 28.421875 48.1875 
Q 40.625 48.1875 47.75 41.5 
Q 54.890625 34.8125 54.890625 23.390625 
Q 54.890625 11.625 47.5625 5.09375 
Q 40.234375 -1.421875 26.90625 -1.421875 
Q 22.3125 -1.421875 17.546875 -0.640625 
Q 12.796875 0.140625 7.71875 1.703125 
L 7.71875 11.625 
Q 12.109375 9.234375 16.796875 8.0625 
Q 21.484375 6.890625 26.703125 6.890625 
Q 35.15625 6.890625 40.078125 11.328125 
Q 45.015625 15.765625 45.015625 23.390625 
Q 45.015625 31 40.078125 35.4375 
Q 35.15625 39.890625 26.703125 39.890625 
Q 22.75 39.890625 18.8125 39.015625 
Q 14.890625 38.140625 10.796875 36.28125 
z
" id="DejaVuSans-53"/>
    </defs>
    <g transform="translate(60.41088 38.111366)scale(0.102 -0.102)">
     <use xlink:href="#DejaVuSans-98"/>
     <use x="63.476562" xlink:href="#DejaVuSans-98"/>
     <use x="126.953125" xlink:href="#DejaVuSans-111"/>
     <use x="188.134766" xlink:href="#DejaVuSans-98"/>
     <use x="251.611328" xlink:href="#DejaVuSans-32"/>
     <use x="283.398438" xlink:href="#DejaVuSans-102"/>
     <use x="318.603516" xlink:href="#DejaVuSans-49"/>
     <use x="382.226562" xlink:href="#DejaVuSans-56"/>
     <use x="445.849609" xlink:href="#DejaVuSans-44"/>
     <use x="477.636719" xlink:href="#DejaVuSans-32"/>
     <use x="509.423828" xlink:href="#DejaVuSans-53"/>
     <use x="573.046875" xlink:href="#DejaVuSans-45"/>
     <use x="609.130859" xlink:href="#DejaVuSans-68"/>
    </g>
    <!-- 51 targets: 100..1e-08 -->
    <defs>
     <path d="M 11.71875 12.40625 
L 22.015625 12.40625 
L 22.015625 0 
L 11.71875 0 
z
M 11.71875 51.703125 
L 22.015625 51.703125 
L 22.015625 39.3125 
L 11.71875 39.3125 
z
" id="DejaVuSans-58"/>
    </defs>
    <g transform="translate(60.41088 49.533135)scale(0.102 -0.102)">
     <use xlink:href="#DejaVuSans-53"/>
     <use x="63.623047" xlink:href="#DejaVuSans-49"/>
     <use x="127.246094" xlink:href="#DejaVuSans-32"/>
     <use x="159.033203" xlink:href="#DejaVuSans-116"/>
     <use x="198.242188" xlink:href="#DejaVuSans-97"/>
     <use x="259.521484" xlink:href="#DejaVuSans-114"/>
     <use x="298.884766" xlink:href="#DejaVuSans-103"/>
     <use x="362.361328" xlink:href="#DejaVuSans-101"/>
     <use x="423.884766" xlink:href="#DejaVuSans-116"/>
     <use x="463.09375" xlink:href="#DejaVuSans-115"/>
     <use x="515.193359" xlink:href="#DejaVuSans-58"/>
     <use x="548.884766" xlink:href="#DejaVuSans-32"/>
     <use x="580.671875" xlink:href="#DejaVuSans-49"/>
     <use x="644.294922" xlink:href="#DejaVuSans-48"/>
     <use x="707.917969" xlink:href="#DejaVuSans-48"/>
     <use x="771.541016" xlink:href="#DejaVuSans-46"/>
     <use x="803.328125" xlink:href="#DejaVuSans-46"/>
     <use x="835.115234" xlink:href="#DejaVuSans-49"/>
     <use x="898.738281" xlink:href="#DejaVuSans-101"/>
     <use x="960.261719" xlink:href="#DejaVuSans-45"/>
     <use x="996.345703" xlink:href="#DejaVuSans-48"/>
     <use x="1059.96875" xlink:href="#DejaVuSans-56"/>
    </g>
    <!-- 24, 15 instances -->
    <g transform="translate(60.41088 60.954904)scale(0.102 -0.102)">
     <use xlink:href="#DejaVuSans-50"/>
     <use x="63.623047" xlink:href="#DejaVuSans-52"/>
     <use x="127.246094" xlink:href="#DejaVuSans-44"/>
     <use x="159.033203" xlink:href="#DejaVuSans-32"/>
     <use x="190.820312" xlink:href="#DejaVuSans-49"/>
     <use x="254.443359" xlink:href="#DejaVuSans-53"/>
     <use x="318.066406" xlink:href="#DejaVuSans-32"/>
     <use x="349.853516" xlink:href="#DejaVuSans-105"/>
     <use x="377.636719" xlink:href="#DejaVuSans-110"/>
     <use x="441.015625" xlink:href="#DejaVuSans-115"/>
     <use x="493.115234" xlink:href="#DejaVuSans-116"/>
     <use x="532.324219" xlink:href="#DejaVuSans-97"/>
     <use x="593.603516" xlink:href="#DejaVuSans-110"/>
     <use x="656.982422" xlink:href="#DejaVuSans-99"/>
     <use x="711.962891" xlink:href="#DejaVuSans-101"/>
     <use x="773.486328" xlink:href="#DejaVuSans-115"/>
    </g>
   </g>
   <g id="text_19">
    <!-- v2.4 -->
    <g style="fill:#808080;" transform="translate(187.233062 294.151352)scale(0.1 -0.1)">
     <use xlink:href="#DejaVuSans-118"/>
     <use x="59.179688" xlink:href="#DejaVuSans-50"/>
     <use x="122.802734" xlink:href="#DejaVuSans-46"/>
     <use x="154.589844" xlink:href="#DejaVuSans-52"/>
    </g>
   </g>
   <g id="text_20">
    <!-- 18 Schaffer F7, condition 1000 -->
    <defs>
     <path d="M 54.890625 33.015625 
L 54.890625 0 
L 45.90625 0 
L 45.90625 32.71875 
Q 45.90625 40.484375 42.875 44.328125 
Q 39.84375 48.1875 33.796875 48.1875 
Q 26.515625 48.1875 22.3125 43.546875 
Q 18.109375 38.921875 18.109375 30.90625 
L 18.109375 0 
L 9.078125 0 
L 9.078125 75.984375 
L 18.109375 75.984375 
L 18.109375 46.1875 
Q 21.34375 51.125 25.703125 53.5625 
Q 30.078125 56 35.796875 56 
Q 45.21875 56 50.046875 50.171875 
Q 54.890625 44.34375 54.890625 33.015625 
z
" id="DejaVuSans-104"/>
     <path d="M 8.203125 72.90625 
L 55.078125 72.90625 
L 55.078125 68.703125 
L 28.609375 0 
L 18.3125 0 
L 43.21875 64.59375 
L 8.203125 64.59375 
z
" id="DejaVuSans-55"/>
    </defs>
    <g transform="translate(44.111187 21.648)scale(0.2 -0.2)">
     <use xlink:href="#DejaVuSans-49"/>
     <use x="63.623047" xlink:href="#DejaVuSans-56"/>
     <use x="127.246094" xlink:href="#DejaVuSans-32"/>
     <use x="159.033203" xlink:href="#DejaVuSans-83"/>
     <use x="222.509766" xlink:href="#DejaVuSans-99"/>
     <use x="277.490234" xlink:href="#DejaVuSans-104"/>
     <use x="340.869141" xlink:href="#DejaVuSans-97"/>
     <use x="402.148438" xlink:href="#DejaVuSans-102"/>
     <use x="437.353516" xlink:href="#DejaVuSans-102"/>
     <use x="472.558594" xlink:href="#DejaVuSans-101"/>
     <use x="534.082031" xlink:href="#DejaVuSans-114"/>
     <use x="575.195312" xlink:href="#DejaVuSans-32"/>
     <use x="606.982422" xlink:href="#DejaVuSans-70"/>
     <use x="664.501953" xlink:href="#DejaVuSans-55"/>
     <use x="728.125" xlink:href="#DejaVuSans-44"/>
     <use x="759.912109" xlink:href="#DejaVuSans-32"/>
     <use x="791.699219" xlink:href="#DejaVuSans-99"/>
     <use x="846.679688" xlink:href="#DejaVuSans-111"/>
     <use x="907.861328" xlink:href="#DejaVuSans-110"/>
     <use x="971.240234" xlink:href="#DejaVuSans-100"/>
     <use x="1034.716797" xlink:href="#DejaVuSans-105"/>
     <use x="1062.5" xlink:href="#DejaVuSans-116"/>
     <use x="1101.708984" xlink:href="#DejaVuSans-105"/>
     <use x="1129.492188" xlink:href="#DejaVuSans-111"/>
     <use x="1190.673828" xlink:href="#DejaVuSans-110"/>
     <use x="1254.052734" xlink:href="#DejaVuSans-32"/>
     <use x="1285.839844" xlink:href="#DejaVuSans-49"/>
     <use x="1349.462891" xlink:href="#DejaVuSans-48"/>
     <use x="1413.085938" xlink:href="#DejaVuSans-48"/>
     <use x="1476.708984" xlink:href="#DejaVuSans-48"/>
    </g>
   </g>
  </g>
 </g>
 <defs>
  <clipPath id="p0e883125ac">
   <rect height="271.296" width="281.088" x="57.6" y="27.648"/>
  </clipPath>
 </defs>
</svg>
