<?xml version="1.0" encoding="utf-8" standalone="no"?>
<!DOCTYPE svg PUBLIC "-//W3C//DTD SVG 1.1//EN"
  "http://www.w3.org/Graphics/SVG/1.1/DTD/svg11.dtd">
<!-- Created with matplotlib (https://matplotlib.org/) -->
<svg height="345.6pt" version="1.1" viewBox="0 0 460.8 345.6" width="460.8pt" xmlns="http://www.w3.org/2000/svg" xmlns:xlink="http://www.w3.org/1999/xlink">
 <defs>
  <style type="text/css">
*{stroke-linecap:butt;stroke-linejoin:round;}
  </style>
 </defs>
 <g id="figure_1">
  <g id="patch_1">
   <path d="M 0 345.6 
L 460.8 345.6 
L 460.8 0 
L 0 0 
z
" style="fill:#ffffff;"/>
  </g>
  <g id="axes_1">
   <g id="patch_2">
    <path d="M 57.6 298.944 
L 338.688 298.944 
L 338.688 27.648 
L 57.6 27.648 
z
" style="fill:#ffffff;"/>
   </g>
   <g id="line2d_1">
    <path d="M 45.512012 298.944 
L 45.512012 267.342835 
L 57.6 267.342835 
L 57.6 256.809114 
L 69.687988 256.809114 
L 69.687988 246.275392 
L 79.447285 246.275392 
L 79.447285 241.008531 
L 87.329581 241.008531 
L 87.329581 235.74167 
L 88.846997 235.74167 
L 88.846997 230.47481 
L 91.535274 230.47481 
L 91.535274 225.207949 
L 92.73846 225.207949 
L 92.73846 219.941088 
L 93.863965 219.941088 
L 93.863965 214.674227 
L 95.918017 214.674227 
L 95.918017 209.407366 
L 96.86091 209.407366 
L 96.86091 204.140506 
L 98.606294 204.140506 
L 98.606294 198.873645 
L 99.41757 198.873645 
L 99.41757 193.606784 
L 100.934985 193.606784 
L 100.934985 188.339923 
L 102.330873 188.339923 
L 102.330873 183.073062 
L 103.623262 183.073062 
L 103.623262 177.806202 
L 105.951954 177.806202 
L 105.951954 172.539341 
L 107.514726 172.539341 
L 107.514726 167.27248 
L 108.948899 167.27248 
L 108.948899 162.005619 
L 110.694282 162.005619 
L 110.694282 156.738758 
L 112.280765 156.738758 
L 112.280765 151.471897 
L 113.382559 151.471897 
L 113.382559 146.205037 
L 114.080224 146.205037 
L 114.080224 140.938176 
L 115.711251 140.938176 
L 115.711251 135.671315 
L 116.323218 135.671315 
L 116.323218 130.404454 
L 116.621333 130.404454 
L 116.621333 125.137593 
L 117.486268 125.137593 
L 117.486268 119.870733 
L 118.310324 119.870733 
L 118.310324 114.603872 
L 118.838828 114.603872 
L 118.838828 109.337011 
L 119.602714 109.337011 
L 119.602714 104.07015 
L 120.093994 104.07015 
L 120.093994 98.803289 
L 120.8059 98.803289 
L 120.8059 93.536429 
L 121.489881 93.536429 
L 121.489881 88.269568 
L 121.712041 88.269568 
L 121.712041 83.002707 
L 122.148045 83.002707 
L 122.148045 77.735846 
L 122.988655 77.735846 
L 122.988655 72.468985 
L 123.192626 72.468985 
L 123.192626 67.202125 
L 123.790603 67.202125 
L 123.790603 61.935264 
L 123.985457 61.935264 
L 123.985457 56.668403 
L 124.557288 56.668403 
L 124.557288 51.401542 
L 125.110962 51.401542 
L 125.110962 46.134681 
L 125.470548 46.134681 
L 125.470548 40.867821 
L 125.647598 40.867821 
L 125.647598 35.60096 
L 125.996395 35.60096 
L 125.996395 30.334099 
L 338.688 30.334099 
" style="fill:none;stroke:#f5deb3;stroke-linecap:square;stroke-width:4;"/>
   </g>
   <g id="line2d_2">
    <defs>
     <path d="M -0 7.778175 
L 7.778175 0 
L 0 -7.778175 
L -7.778175 -0 
z
" id="m6d17c47fff" style="stroke:#f5deb3;stroke-linejoin:miter;stroke-width:1.5;"/>
    </defs>
    <g>
     <use style="fill:#f5deb3;stroke:#f5deb3;stroke-linejoin:miter;stroke-width:1.5;" x="79.447285" xlink:href="#m6d17c47fff" y="246.275392"/>
     <use style="fill:#f5deb3;stroke:#f5deb3;stroke-linejoin:miter;stroke-width:1.5;" x="107.514726" xlink:href="#m6d17c47fff" y="167.27248"/>
     <use style="fill:#f5deb3;stroke:#f5deb3;stroke-linejoin:miter;stroke-width:1.5;" x="125.647598" xlink:href="#m6d17c47fff" y="40.867821"/>
     <use style="fill:#f5deb3;stroke:#f5deb3;stroke-linejoin:miter;stroke-width:1.5;" x="125.996395" xlink:href="#m6d17c47fff" y="30.334099"/>
     <use style="fill:#f5deb3;stroke:#f5deb3;stroke-linejoin:miter;stroke-width:1.5;" x="125.996395" xlink:href="#m6d17c47fff" y="30.334099"/>
     <use style="fill:#f5deb3;stroke:#f5deb3;stroke-linejoin:miter;stroke-width:1.5;" x="338.688" xlink:href="#m6d17c47fff" y="30.334099"/>
    </g>
   </g>
   <g id="line2d_3">
    <path style="fill:none;stroke:#f5deb3;stroke-linecap:square;stroke-width:4;"/>
    <g/>
   </g>
   <g id="line2d_4">
    <path d="M 338.688 30.334099 
L 369.60768 35.706297 
" style="fill:none;stroke:#f5deb3;stroke-linecap:square;stroke-width:4;"/>
    <g>
     <use style="fill:#f5deb3;stroke:#f5deb3;stroke-linejoin:miter;stroke-width:1.5;" x="338.688" xlink:href="#m6d17c47fff" y="30.334099"/>
     <use style="fill:#f5deb3;stroke:#f5deb3;stroke-linejoin:miter;stroke-width:1.5;" x="369.60768" xlink:href="#m6d17c47fff" y="35.706297"/>
    </g>
   </g>
   <g id="matplotlib.axis_1">
    <g id="xtick_1">
     <g id="line2d_5">
      <path clip-path="url(#p405c2e0ccd)" d="M 57.6 298.944 
L 57.6 27.648 
" style="fill:none;stroke:#b0b0b0;stroke-linecap:square;stroke-width:0.8;"/>
     </g>
     <g id="line2d_6">
      <defs>
       <path d="M 0 0 
L 0 3.5 
" id="m9e7f376a84" style="stroke:#000000;stroke-width:0.8;"/>
      </defs>
      <g>
       <use style="stroke:#000000;stroke-width:0.8;" x="57.6" xlink:href="#m9e7f376a84" y="298.944"/>
      </g>
     </g>
     <g id="text_1">
      <!-- 0 -->
      <defs>
       <path d="M 31.78125 66.40625 
Q 24.171875 66.40625 20.328125 58.90625 
Q 16.5 51.421875 16.5 36.375 
Q 16.5 21.390625 20.328125 13.890625 
Q 24.171875 6.390625 31.78125 6.390625 
Q 39.453125 6.390625 43.28125 13.890625 
Q 47.125 21.390625 47.125 36.375 
Q 47.125 51.421875 43.28125 58.90625 
Q 39.453125 66.40625 31.78125 66.40625 
z
M 31.78125 74.21875 
Q 44.046875 74.21875 50.515625 64.515625 
Q 56.984375 54.828125 56.984375 36.375 
Q 56.984375 17.96875 50.515625 8.265625 
Q 44.046875 -1.421875 31.78125 -1.421875 
Q 19.53125 -1.421875 13.0625 8.265625 
Q 6.59375 17.96875 6.59375 36.375 
Q 6.59375 54.828125 13.0625 64.515625 
Q 19.53125 74.21875 31.78125 74.21875 
z
" id="DejaVuSans-48"/>
      </defs>
      <g transform="translate(51.2375 321.140875)scale(0.2 -0.2)">
       <use xlink:href="#DejaVuSans-48"/>
      </g>
     </g>
    </g>
    <g id="xtick_2">
     <g id="line2d_7">
      <path clip-path="url(#p405c2e0ccd)" d="M 137.910857 298.944 
L 137.910857 27.648 
" style="fill:none;stroke:#b0b0b0;stroke-linecap:square;stroke-width:0.8;"/>
     </g>
     <g id="line2d_8">
      <g>
       <use style="stroke:#000000;stroke-width:0.8;" x="137.910857" xlink:href="#m9e7f376a84" y="298.944"/>
      </g>
     </g>
     <g id="text_2">
      <!-- 2 -->
      <defs>
       <path d="M 19.1875 8.296875 
L 53.609375 8.296875 
L 53.609375 0 
L 7.328125 0 
L 7.328125 8.296875 
Q 12.9375 14.109375 22.625 23.890625 
Q 32.328125 33.6875 34.8125 36.53125 
Q 39.546875 41.84375 41.421875 45.53125 
Q 43.3125 49.21875 43.3125 52.78125 
Q 43.3125 58.59375 39.234375 62.25 
Q 35.15625 65.921875 28.609375 65.921875 
Q 23.96875 65.921875 18.8125 64.3125 
Q 13.671875 62.703125 7.8125 59.421875 
L 7.8125 69.390625 
Q 13.765625 71.78125 18.9375 73 
Q 24.125 74.21875 28.421875 74.21875 
Q 39.75 74.21875 46.484375 68.546875 
Q 53.21875 62.890625 53.21875 53.421875 
Q 53.21875 48.921875 51.53125 44.890625 
Q 49.859375 40.875 45.40625 35.40625 
Q 44.1875 33.984375 37.640625 27.21875 
Q 31.109375 20.453125 19.1875 8.296875 
z
" id="DejaVuSans-50"/>
      </defs>
      <g transform="translate(131.548357 321.140875)scale(0.2 -0.2)">
       <use xlink:href="#DejaVuSans-50"/>
      </g>
     </g>
    </g>
    <g id="xtick_3">
     <g id="line2d_9">
      <path clip-path="url(#p405c2e0ccd)" d="M 218.221714 298.944 
L 218.221714 27.648 
" style="fill:none;stroke:#b0b0b0;stroke-linecap:square;stroke-width:0.8;"/>
     </g>
     <g id="line2d_10">
      <g>
       <use style="stroke:#000000;stroke-width:0.8;" x="218.221714" xlink:href="#m9e7f376a84" y="298.944"/>
      </g>
     </g>
     <g id="text_3">
      <!-- 4 -->
      <defs>
       <path d="M 37.796875 64.3125 
L 12.890625 25.390625 
L 37.796875 25.390625 
z
M 35.203125 72.90625 
L 47.609375 72.90625 
L 47.609375 25.390625 
L 58.015625 25.390625 
L 58.015625 17.1875 
L 47.609375 17.1875 
L 47.609375 0 
L 37.796875 0 
L 37.796875 17.1875 
L 4.890625 17.1875 
L 4.890625 26.703125 
z
" id="DejaVuSans-52"/>
      </defs>
      <g transform="translate(211.859214 321.140875)scale(0.2 -0.2)">
       <use xlink:href="#DejaVuSans-52"/>
      </g>
     </g>
    </g>
    <g id="xtick_4">
     <g id="line2d_11">
      <path clip-path="url(#p405c2e0ccd)" d="M 298.532571 298.944 
L 298.532571 27.648 
" style="fill:none;stroke:#b0b0b0;stroke-linecap:square;stroke-width:0.8;"/>
     </g>
     <g id="line2d_12">
      <g>
       <use style="stroke:#000000;stroke-width:0.8;" x="298.532571" xlink:href="#m9e7f376a84" y="298.944"/>
      </g>
     </g>
     <g id="text_4">
      <!-- 6 -->
      <defs>
       <path d="M 33.015625 40.375 
Q 26.375 40.375 22.484375 35.828125 
Q 18.609375 31.296875 18.609375 23.390625 
Q 18.609375 15.53125 22.484375 10.953125 
Q 26.375 6.390625 33.015625 6.390625 
Q 39.65625 6.390625 43.53125 10.953125 
Q 47.40625 15.53125 47.40625 23.390625 
Q 47.40625 31.296875 43.53125 35.828125 
Q 39.65625 40.375 33.015625 40.375 
z
M 52.59375 71.296875 
L 52.59375 62.3125 
Q 48.875 64.0625 45.09375 64.984375 
Q 41.3125 65.921875 37.59375 65.921875 
Q 27.828125 65.921875 22.671875 59.328125 
Q 17.53125 52.734375 16.796875 39.40625 
Q 19.671875 43.65625 24.015625 45.921875 
Q 28.375 48.1875 33.59375 48.1875 
Q 44.578125 48.1875 50.953125 41.515625 
Q 57.328125 34.859375 57.328125 23.390625 
Q 57.328125 12.15625 50.6875 5.359375 
Q 44.046875 -1.421875 33.015625 -1.421875 
Q 20.359375 -1.421875 13.671875 8.265625 
Q 6.984375 17.96875 6.984375 36.375 
Q 6.984375 53.65625 15.1875 63.9375 
Q 23.390625 74.21875 37.203125 74.21875 
Q 40.921875 74.21875 44.703125 73.484375 
Q 48.484375 72.75 52.59375 71.296875 
z
" id="DejaVuSans-54"/>
      </defs>
      <g transform="translate(292.170071 321.140875)scale(0.2 -0.2)">
       <use xlink:href="#DejaVuSans-54"/>
      </g>
     </g>
    </g>
    <g id="xtick_5">
     <g id="line2d_13">
      <path clip-path="url(#p405c2e0ccd)" d="M 97.755429 298.944 
L 97.755429 27.648 
" style="fill:none;stroke:#b0b0b0;stroke-linecap:square;stroke-width:0.8;"/>
     </g>
     <g id="line2d_14">
      <defs>
       <path d="M 0 0 
L 0 2 
" id="m56dc997f63" style="stroke:#000000;stroke-width:0.6;"/>
      </defs>
      <g>
       <use style="stroke:#000000;stroke-width:0.6;" x="97.755429" xlink:href="#m56dc997f63" y="298.944"/>
      </g>
     </g>
    </g>
    <g id="xtick_6">
     <g id="line2d_15">
      <path clip-path="url(#p405c2e0ccd)" d="M 178.066286 298.944 
L 178.066286 27.648 
" style="fill:none;stroke:#b0b0b0;stroke-linecap:square;stroke-width:0.8;"/>
     </g>
     <g id="line2d_16">
      <g>
       <use style="stroke:#000000;stroke-width:0.6;" x="178.066286" xlink:href="#m56dc997f63" y="298.944"/>
      </g>
     </g>
    </g>
    <g id="xtick_7">
     <g id="line2d_17">
      <path clip-path="url(#p405c2e0ccd)" d="M 258.377143 298.944 
L 258.377143 27.648 
" style="fill:none;stroke:#b0b0b0;stroke-linecap:square;stroke-width:0.8;"/>
     </g>
     <g id="line2d_18">
      <g>
       <use style="stroke:#000000;stroke-width:0.6;" x="258.377143" xlink:href="#m56dc997f63" y="298.944"/>
      </g>
     </g>
    </g>
    <g id="xtick_8">
     <g id="line2d_19">
      <path clip-path="url(#p405c2e0ccd)" d="M 338.688 298.944 
L 338.688 27.648 
" style="fill:none;stroke:#b0b0b0;stroke-linecap:square;stroke-width:0.8;"/>
     </g>
     <g id="line2d_20">
      <g>
       <use style="stroke:#000000;stroke-width:0.6;" x="338.688" xlink:href="#m56dc997f63" y="298.944"/>
      </g>
     </g>
    </g>
    <g id="text_5">
     <!-- log10(# f-evals / dimension) -->
     <defs>
      <path d="M 9.421875 75.984375 
L 18.40625 75.984375 
L 18.40625 0 
L 9.421875 0 
z
" id="DejaVuSans-108"/>
      <path d="M 30.609375 48.390625 
Q 23.390625 48.390625 19.1875 42.75 
Q 14.984375 37.109375 14.984375 27.296875 
Q 14.984375 17.484375 19.15625 11.84375 
Q 23.34375 6.203125 30.609375 6.203125 
Q 37.796875 6.203125 41.984375 11.859375 
Q 46.1875 17.53125 46.1875 27.296875 
Q 46.1875 37.015625 41.984375 42.703125 
Q 37.796875 48.390625 30.609375 48.390625 
z
M 30.609375 56 
Q 42.328125 56 49.015625 48.375 
Q 55.71875 40.765625 55.71875 27.296875 
Q 55.71875 13.875 49.015625 6.21875 
Q 42.328125 -1.421875 30.609375 -1.421875 
Q 18.84375 -1.421875 12.171875 6.21875 
Q 5.515625 13.875 5.515625 27.296875 
Q 5.515625 40.765625 12.171875 48.375 
Q 18.84375 56 30.609375 56 
z
" id="DejaVuSans-111"/>
      <path d="M 45.40625 27.984375 
Q 45.40625 37.75 41.375 43.109375 
Q 37.359375 48.484375 30.078125 48.484375 
Q 22.859375 48.484375 18.828125 43.109375 
Q 14.796875 37.75 14.796875 27.984375 
Q 14.796875 18.265625 18.828125 12.890625 
Q 22.859375 7.515625 30.078125 7.515625 
Q 37.359375 7.515625 41.375 12.890625 
Q 45.40625 18.265625 45.40625 27.984375 
z
M 54.390625 6.78125 
Q 54.390625 -7.171875 48.1875 -13.984375 
Q 42 -20.796875 29.203125 -20.796875 
Q 24.46875 -20.796875 20.265625 -20.09375 
Q 16.0625 -19.390625 12.109375 -17.921875 
L 12.109375 -9.1875 
Q 16.0625 -11.328125 19.921875 -12.34375 
Q 23.78125 -13.375 27.78125 -13.375 
Q 36.625 -13.375 41.015625 -8.765625 
Q 45.40625 -4.15625 45.40625 5.171875 
L 45.40625 9.625 
Q 42.625 4.78125 38.28125 2.390625 
Q 33.9375 0 27.875 0 
Q 17.828125 0 11.671875 7.65625 
Q 5.515625 15.328125 5.515625 27.984375 
Q 5.515625 40.671875 11.671875 48.328125 
Q 17.828125 56 27.875 56 
Q 33.9375 56 38.28125 53.609375 
Q 42.625 51.21875 45.40625 46.390625 
L 45.40625 54.6875 
L 54.390625 54.6875 
z
" id="DejaVuSans-103"/>
      <path d="M 12.40625 8.296875 
L 28.515625 8.296875 
L 28.515625 63.921875 
L 10.984375 60.40625 
L 10.984375 69.390625 
L 28.421875 72.90625 
L 38.28125 72.90625 
L 38.28125 8.296875 
L 54.390625 8.296875 
L 54.390625 0 
L 12.40625 0 
z
" id="DejaVuSans-49"/>
      <path d="M 31 75.875 
Q 24.46875 64.65625 21.28125 53.65625 
Q 18.109375 42.671875 18.109375 31.390625 
Q 18.109375 20.125 21.3125 9.0625 
Q 24.515625 -2 31 -13.1875 
L 23.1875 -13.1875 
Q 15.875 -1.703125 12.234375 9.375 
Q 8.59375 20.453125 8.59375 31.390625 
Q 8.59375 42.28125 12.203125 53.3125 
Q 15.828125 64.359375 23.1875 75.875 
z
" id="DejaVuSans-40"/>
      <path d="M 51.125 44 
L 36.921875 44 
L 32.8125 27.6875 
L 47.125 27.6875 
z
M 43.796875 71.78125 
L 38.71875 51.515625 
L 52.984375 51.515625 
L 58.109375 71.78125 
L 65.921875 71.78125 
L 60.890625 51.515625 
L 76.125 51.515625 
L 76.125 44 
L 58.984375 44 
L 54.984375 27.6875 
L 70.515625 27.6875 
L 70.515625 20.21875 
L 53.078125 20.21875 
L 48 0 
L 40.1875 0 
L 45.21875 20.21875 
L 30.90625 20.21875 
L 25.875 0 
L 18.015625 0 
L 23.09375 20.21875 
L 7.71875 20.21875 
L 7.71875 27.6875 
L 24.90625 27.6875 
L 29 44 
L 13.28125 44 
L 13.28125 51.515625 
L 30.90625 51.515625 
L 35.890625 71.78125 
z
" id="DejaVuSans-35"/>
      <path id="DejaVuSans-32"/>
      <path d="M 37.109375 75.984375 
L 37.109375 68.5 
L 28.515625 68.5 
Q 23.6875 68.5 21.796875 66.546875 
Q 19.921875 64.59375 19.921875 59.515625 
L 19.921875 54.6875 
L 34.71875 54.6875 
L 34.71875 47.703125 
L 19.921875 47.703125 
L 19.921875 0 
L 10.890625 0 
L 10.890625 47.703125 
L 2.296875 47.703125 
L 2.296875 54.6875 
L 10.890625 54.6875 
L 10.890625 58.5 
Q 10.890625 67.625 15.140625 71.796875 
Q 19.390625 75.984375 28.609375 75.984375 
z
" id="DejaVuSans-102"/>
      <path d="M 4.890625 31.390625 
L 31.203125 31.390625 
L 31.203125 23.390625 
L 4.890625 23.390625 
z
" id="DejaVuSans-45"/>
      <path d="M 56.203125 29.59375 
L 56.203125 25.203125 
L 14.890625 25.203125 
Q 15.484375 15.921875 20.484375 11.0625 
Q 25.484375 6.203125 34.421875 6.203125 
Q 39.59375 6.203125 44.453125 7.46875 
Q 49.3125 8.734375 54.109375 11.28125 
L 54.109375 2.78125 
Q 49.265625 0.734375 44.1875 -0.34375 
Q 39.109375 -1.421875 33.890625 -1.421875 
Q 20.796875 -1.421875 13.15625 6.1875 
Q 5.515625 13.8125 5.515625 26.8125 
Q 5.515625 40.234375 12.765625 48.109375 
Q 20.015625 56 32.328125 56 
Q 43.359375 56 49.78125 48.890625 
Q 56.203125 41.796875 56.203125 29.59375 
z
M 47.21875 32.234375 
Q 47.125 39.59375 43.09375 43.984375 
Q 39.0625 48.390625 32.421875 48.390625 
Q 24.90625 48.390625 20.390625 44.140625 
Q 15.875 39.890625 15.1875 32.171875 
z
" id="DejaVuSans-101"/>
      <path d="M 2.984375 54.6875 
L 12.5 54.6875 
L 29.59375 8.796875 
L 46.6875 54.6875 
L 56.203125 54.6875 
L 35.6875 0 
L 23.484375 0 
z
" id="DejaVuSans-118"/>
      <path d="M 34.28125 27.484375 
Q 23.390625 27.484375 19.1875 25 
Q 14.984375 22.515625 14.984375 16.5 
Q 14.984375 11.71875 18.140625 8.90625 
Q 21.296875 6.109375 26.703125 6.109375 
Q 34.1875 6.109375 38.703125 11.40625 
Q 43.21875 16.703125 43.21875 25.484375 
L 43.21875 27.484375 
z
M 52.203125 31.203125 
L 52.203125 0 
L 43.21875 0 
L 43.21875 8.296875 
Q 40.140625 3.328125 35.546875 0.953125 
Q 30.953125 -1.421875 24.3125 -1.421875 
Q 15.921875 -1.421875 10.953125 3.296875 
Q 6 8.015625 6 15.921875 
Q 6 25.140625 12.171875 29.828125 
Q 18.359375 34.515625 30.609375 34.515625 
L 43.21875 34.515625 
L 43.21875 35.40625 
Q 43.21875 41.609375 39.140625 45 
Q 35.0625 48.390625 27.6875 48.390625 
Q 23 48.390625 18.546875 47.265625 
Q 14.109375 46.140625 10.015625 43.890625 
L 10.015625 52.203125 
Q 14.9375 54.109375 19.578125 55.046875 
Q 24.21875 56 28.609375 56 
Q 40.484375 56 46.34375 49.84375 
Q 52.203125 43.703125 52.203125 31.203125 
z
" id="DejaVuSans-97"/>
      <path d="M 44.28125 53.078125 
L 44.28125 44.578125 
Q 40.484375 46.53125 36.375 47.5 
Q 32.28125 48.484375 27.875 48.484375 
Q 21.1875 48.484375 17.84375 46.4375 
Q 14.5 44.390625 14.5 40.28125 
Q 14.5 37.15625 16.890625 35.375 
Q 19.28125 33.59375 26.515625 31.984375 
L 29.59375 31.296875 
Q 39.15625 29.25 43.1875 25.515625 
Q 47.21875 21.78125 47.21875 15.09375 
Q 47.21875 7.46875 41.1875 3.015625 
Q 35.15625 -1.421875 24.609375 -1.421875 
Q 20.21875 -1.421875 15.453125 -0.5625 
Q 10.6875 0.296875 5.421875 2 
L 5.421875 11.28125 
Q 10.40625 8.6875 15.234375 7.390625 
Q 20.0625 6.109375 24.8125 6.109375 
Q 31.15625 6.109375 34.5625 8.28125 
Q 37.984375 10.453125 37.984375 14.40625 
Q 37.984375 18.0625 35.515625 20.015625 
Q 33.0625 21.96875 24.703125 23.78125 
L 21.578125 24.515625 
Q 13.234375 26.265625 9.515625 29.90625 
Q 5.8125 33.546875 5.8125 39.890625 
Q 5.8125 47.609375 11.28125 51.796875 
Q 16.75 56 26.8125 56 
Q 31.78125 56 36.171875 55.265625 
Q 40.578125 54.546875 44.28125 53.078125 
z
" id="DejaVuSans-115"/>
      <path d="M 25.390625 72.90625 
L 33.6875 72.90625 
L 8.296875 -9.28125 
L 0 -9.28125 
z
" id="DejaVuSans-47"/>
      <path d="M 45.40625 46.390625 
L 45.40625 75.984375 
L 54.390625 75.984375 
L 54.390625 0 
L 45.40625 0 
L 45.40625 8.203125 
Q 42.578125 3.328125 38.25 0.953125 
Q 33.9375 -1.421875 27.875 -1.421875 
Q 17.96875 -1.421875 11.734375 6.484375 
Q 5.515625 14.40625 5.515625 27.296875 
Q 5.515625 40.1875 11.734375 48.09375 
Q 17.96875 56 27.875 56 
Q 33.9375 56 38.25 53.625 
Q 42.578125 51.265625 45.40625 46.390625 
z
M 14.796875 27.296875 
Q 14.796875 17.390625 18.875 11.75 
Q 22.953125 6.109375 30.078125 6.109375 
Q 37.203125 6.109375 41.296875 11.75 
Q 45.40625 17.390625 45.40625 27.296875 
Q 45.40625 37.203125 41.296875 42.84375 
Q 37.203125 48.484375 30.078125 48.484375 
Q 22.953125 48.484375 18.875 42.84375 
Q 14.796875 37.203125 14.796875 27.296875 
z
" id="DejaVuSans-100"/>
      <path d="M 9.421875 54.6875 
L 18.40625 54.6875 
L 18.40625 0 
L 9.421875 0 
z
M 9.421875 75.984375 
L 18.40625 75.984375 
L 18.40625 64.59375 
L 9.421875 64.59375 
z
" id="DejaVuSans-105"/>
      <path d="M 52 44.1875 
Q 55.375 50.25 60.0625 53.125 
Q 64.75 56 71.09375 56 
Q 79.640625 56 84.28125 50.015625 
Q 88.921875 44.046875 88.921875 33.015625 
L 88.921875 0 
L 79.890625 0 
L 79.890625 32.71875 
Q 79.890625 40.578125 77.09375 44.375 
Q 74.3125 48.1875 68.609375 48.1875 
Q 61.625 48.1875 57.5625 43.546875 
Q 53.515625 38.921875 53.515625 30.90625 
L 53.515625 0 
L 44.484375 0 
L 44.484375 32.71875 
Q 44.484375 40.625 41.703125 44.40625 
Q 38.921875 48.1875 33.109375 48.1875 
Q 26.21875 48.1875 22.15625 43.53125 
Q 18.109375 38.875 18.109375 30.90625 
L 18.109375 0 
L 9.078125 0 
L 9.078125 54.6875 
L 18.109375 54.6875 
L 18.109375 46.1875 
Q 21.1875 51.21875 25.484375 53.609375 
Q 29.78125 56 35.6875 56 
Q 41.65625 56 45.828125 52.96875 
Q 50 49.953125 52 44.1875 
z
" id="DejaVuSans-109"/>
      <path d="M 54.890625 33.015625 
L 54.890625 0 
L 45.90625 0 
L 45.90625 32.71875 
Q 45.90625 40.484375 42.875 44.328125 
Q 39.84375 48.1875 33.796875 48.1875 
Q 26.515625 48.1875 22.3125 43.546875 
Q 18.109375 38.921875 18.109375 30.90625 
L 18.109375 0 
L 9.078125 0 
L 9.078125 54.6875 
L 18.109375 54.6875 
L 18.109375 46.1875 
Q 21.34375 51.125 25.703125 53.5625 
Q 30.078125 56 35.796875 56 
Q 45.21875 56 50.046875 50.171875 
Q 54.890625 44.34375 54.890625 33.015625 
z
" id="DejaVuSans-110"/>
      <path d="M 8.015625 75.875 
L 15.828125 75.875 
Q 23.140625 64.359375 26.78125 53.3125 
Q 30.421875 42.28125 30.421875 31.390625 
Q 30.421875 20.453125 26.78125 9.375 
Q 23.140625 -1.703125 15.828125 -13.1875 
L 8.015625 -13.1875 
Q 14.5 -2 17.703125 9.0625 
Q 20.90625 20.125 20.90625 31.390625 
Q 20.90625 42.671875 17.703125 53.65625 
Q 14.5 64.65625 8.015625 75.875 
z
" id="DejaVuSans-41"/>
     </defs>
     <g transform="translate(77.764078 342.217594)scale(0.17 -0.17)">
      <use xlink:href="#DejaVuSans-108"/>
      <use x="27.783203" xlink:href="#DejaVuSans-111"/>
      <use x="88.964844" xlink:href="#DejaVuSans-103"/>
      <use x="152.441406" xlink:href="#DejaVuSans-49"/>
      <use x="216.064453" xlink:href="#DejaVuSans-48"/>
      <use x="279.6875" xlink:href="#DejaVuSans-40"/>
      <use x="318.701172" xlink:href="#DejaVuSans-35"/>
      <use x="402.490234" xlink:href="#DejaVuSans-32"/>
      <use x="434.277344" xlink:href="#DejaVuSans-102"/>
      <use x="463.982422" xlink:href="#DejaVuSans-45"/>
      <use x="500.066406" xlink:href="#DejaVuSans-101"/>
      <use x="561.589844" xlink:href="#DejaVuSans-118"/>
      <use x="620.769531" xlink:href="#DejaVuSans-97"/>
      <use x="682.048828" xlink:href="#DejaVuSans-108"/>
      <use x="709.832031" xlink:href="#DejaVuSans-115"/>
      <use x="761.931641" xlink:href="#DejaVuSans-32"/>
      <use x="793.71875" xlink:href="#DejaVuSans-47"/>
      <use x="827.410156" xlink:href="#DejaVuSans-32"/>
      <use x="859.197266" xlink:href="#DejaVuSans-100"/>
      <use x="922.673828" xlink:href="#DejaVuSans-105"/>
      <use x="950.457031" xlink:href="#DejaVuSans-109"/>
      <use x="1047.869141" xlink:href="#DejaVuSans-101"/>
      <use x="1109.392578" xlink:href="#DejaVuSans-110"/>
      <use x="1172.771484" xlink:href="#DejaVuSans-115"/>
      <use x="1224.871094" xlink:href="#DejaVuSans-105"/>
      <use x="1252.654297" xlink:href="#DejaVuSans-111"/>
      <use x="1313.835938" xlink:href="#DejaVuSans-110"/>
      <use x="1377.214844" xlink:href="#DejaVuSans-41"/>
     </g>
    </g>
   </g>
   <g id="matplotlib.axis_2">
    <g id="ytick_1">
     <g id="line2d_21">
      <path clip-path="url(#p405c2e0ccd)" d="M 57.6 298.944 
L 338.688 298.944 
" style="fill:none;stroke:#b0b0b0;stroke-linecap:square;stroke-width:0.8;"/>
     </g>
     <g id="line2d_22">
      <defs>
       <path d="M 0 0 
L -3.5 0 
" id="m86af35c702" style="stroke:#000000;stroke-width:0.8;"/>
      </defs>
      <g>
       <use style="stroke:#000000;stroke-width:0.8;" x="57.6" xlink:href="#m86af35c702" y="298.944"/>
      </g>
     </g>
     <g id="text_6">
      <!-- 0.0 -->
      <defs>
       <path d="M 10.6875 12.40625 
L 21 12.40625 
L 21 0 
L 10.6875 0 
z
" id="DejaVuSans-46"/>
      </defs>
      <g transform="translate(25.155 305.02275)scale(0.16 -0.16)">
       <use xlink:href="#DejaVuSans-48"/>
       <use x="63.623047" xlink:href="#DejaVuSans-46"/>
       <use x="95.410156" xlink:href="#DejaVuSans-48"/>
      </g>
     </g>
    </g>
    <g id="ytick_2">
     <g id="line2d_23">
      <path clip-path="url(#p405c2e0ccd)" d="M 57.6 245.22202 
L 338.688 245.22202 
" style="fill:none;stroke:#b0b0b0;stroke-linecap:square;stroke-width:0.8;"/>
     </g>
     <g id="line2d_24">
      <g>
       <use style="stroke:#000000;stroke-width:0.8;" x="57.6" xlink:href="#m86af35c702" y="245.22202"/>
      </g>
     </g>
     <g id="text_7">
      <!-- 0.2 -->
      <g transform="translate(25.155 251.30077)scale(0.16 -0.16)">
       <use xlink:href="#DejaVuSans-48"/>
       <use x="63.623047" xlink:href="#DejaVuSans-46"/>
       <use x="95.410156" xlink:href="#DejaVuSans-50"/>
      </g>
     </g>
    </g>
    <g id="ytick_3">
     <g id="line2d_25">
      <path clip-path="url(#p405c2e0ccd)" d="M 57.6 191.50004 
L 338.688 191.50004 
" style="fill:none;stroke:#b0b0b0;stroke-linecap:square;stroke-width:0.8;"/>
     </g>
     <g id="line2d_26">
      <g>
       <use style="stroke:#000000;stroke-width:0.8;" x="57.6" xlink:href="#m86af35c702" y="191.50004"/>
      </g>
     </g>
     <g id="text_8">
      <!-- 0.4 -->
      <g transform="translate(25.155 197.57879)scale(0.16 -0.16)">
       <use xlink:href="#DejaVuSans-48"/>
       <use x="63.623047" xlink:href="#DejaVuSans-46"/>
       <use x="95.410156" xlink:href="#DejaVuSans-52"/>
      </g>
     </g>
    </g>
    <g id="ytick_4">
     <g id="line2d_27">
      <path clip-path="url(#p405c2e0ccd)" d="M 57.6 137.778059 
L 338.688 137.778059 
" style="fill:none;stroke:#b0b0b0;stroke-linecap:square;stroke-width:0.8;"/>
     </g>
     <g id="line2d_28">
      <g>
       <use style="stroke:#000000;stroke-width:0.8;" x="57.6" xlink:href="#m86af35c702" y="137.778059"/>
      </g>
     </g>
     <g id="text_9">
      <!-- 0.6 -->
      <g transform="translate(25.155 143.856809)scale(0.16 -0.16)">
       <use xlink:href="#DejaVuSans-48"/>
       <use x="63.623047" xlink:href="#DejaVuSans-46"/>
       <use x="95.410156" xlink:href="#DejaVuSans-54"/>
      </g>
     </g>
    </g>
    <g id="ytick_5">
     <g id="line2d_29">
      <path clip-path="url(#p405c2e0ccd)" d="M 57.6 84.056079 
L 338.688 84.056079 
" style="fill:none;stroke:#b0b0b0;stroke-linecap:square;stroke-width:0.8;"/>
     </g>
     <g id="line2d_30">
      <g>
       <use style="stroke:#000000;stroke-width:0.8;" x="57.6" xlink:href="#m86af35c702" y="84.056079"/>
      </g>
     </g>
     <g id="text_10">
      <!-- 0.8 -->
      <defs>
       <path d="M 31.78125 34.625 
Q 24.75 34.625 20.71875 30.859375 
Q 16.703125 27.09375 16.703125 20.515625 
Q 16.703125 13.921875 20.71875 10.15625 
Q 24.75 6.390625 31.78125 6.390625 
Q 38.8125 6.390625 42.859375 10.171875 
Q 46.921875 13.96875 46.921875 20.515625 
Q 46.921875 27.09375 42.890625 30.859375 
Q 38.875 34.625 31.78125 34.625 
z
M 21.921875 38.8125 
Q 15.578125 40.375 12.03125 44.71875 
Q 8.5 49.078125 8.5 55.328125 
Q 8.5 64.0625 14.71875 69.140625 
Q 20.953125 74.21875 31.78125 74.21875 
Q 42.671875 74.21875 48.875 69.140625 
Q 55.078125 64.0625 55.078125 55.328125 
Q 55.078125 49.078125 51.53125 44.71875 
Q 48 40.375 41.703125 38.8125 
Q 48.828125 37.15625 52.796875 32.3125 
Q 56.78125 27.484375 56.78125 20.515625 
Q 56.78125 9.90625 50.3125 4.234375 
Q 43.84375 -1.421875 31.78125 -1.421875 
Q 19.734375 -1.421875 13.25 4.234375 
Q 6.78125 9.90625 6.78125 20.515625 
Q 6.78125 27.484375 10.78125 32.3125 
Q 14.796875 37.15625 21.921875 38.8125 
z
M 18.3125 54.390625 
Q 18.3125 48.734375 21.84375 45.5625 
Q 25.390625 42.390625 31.78125 42.390625 
Q 38.140625 42.390625 41.71875 45.5625 
Q 45.3125 48.734375 45.3125 54.390625 
Q 45.3125 60.0625 41.71875 63.234375 
Q 38.140625 66.40625 31.78125 66.40625 
Q 25.390625 66.40625 21.84375 63.234375 
Q 18.3125 60.0625 18.3125 54.390625 
z
" id="DejaVuSans-56"/>
      </defs>
      <g transform="translate(25.155 90.134829)scale(0.16 -0.16)">
       <use xlink:href="#DejaVuSans-48"/>
       <use x="63.623047" xlink:href="#DejaVuSans-46"/>
       <use x="95.410156" xlink:href="#DejaVuSans-56"/>
      </g>
     </g>
    </g>
    <g id="ytick_6">
     <g id="line2d_31">
      <path clip-path="url(#p405c2e0ccd)" d="M 57.6 30.334099 
L 338.688 30.334099 
" style="fill:none;stroke:#b0b0b0;stroke-linecap:square;stroke-width:0.8;"/>
     </g>
     <g id="line2d_32">
      <g>
       <use style="stroke:#000000;stroke-width:0.8;" x="57.6" xlink:href="#m86af35c702" y="30.334099"/>
      </g>
     </g>
     <g id="text_11">
      <!-- 1.0 -->
      <g transform="translate(25.155 36.412849)scale(0.16 -0.16)">
       <use xlink:href="#DejaVuSans-49"/>
       <use x="63.623047" xlink:href="#DejaVuSans-46"/>
       <use x="95.410156" xlink:href="#DejaVuSans-48"/>
      </g>
     </g>
    </g>
    <g id="text_12">
     <!-- Fraction of function,target pairs -->
     <defs>
      <path d="M 9.8125 72.90625 
L 51.703125 72.90625 
L 51.703125 64.59375 
L 19.671875 64.59375 
L 19.671875 43.109375 
L 48.578125 43.109375 
L 48.578125 34.8125 
L 19.671875 34.8125 
L 19.671875 0 
L 9.8125 0 
z
" id="DejaVuSans-70"/>
      <path d="M 41.109375 46.296875 
Q 39.59375 47.171875 37.8125 47.578125 
Q 36.03125 48 33.890625 48 
Q 26.265625 48 22.1875 43.046875 
Q 18.109375 38.09375 18.109375 28.8125 
L 18.109375 0 
L 9.078125 0 
L 9.078125 54.6875 
L 18.109375 54.6875 
L 18.109375 46.1875 
Q 20.953125 51.171875 25.484375 53.578125 
Q 30.03125 56 36.53125 56 
Q 37.453125 56 38.578125 55.875 
Q 39.703125 55.765625 41.0625 55.515625 
z
" id="DejaVuSans-114"/>
      <path d="M 48.78125 52.59375 
L 48.78125 44.1875 
Q 44.96875 46.296875 41.140625 47.34375 
Q 37.3125 48.390625 33.40625 48.390625 
Q 24.65625 48.390625 19.8125 42.84375 
Q 14.984375 37.3125 14.984375 27.296875 
Q 14.984375 17.28125 19.8125 11.734375 
Q 24.65625 6.203125 33.40625 6.203125 
Q 37.3125 6.203125 41.140625 7.25 
Q 44.96875 8.296875 48.78125 10.40625 
L 48.78125 2.09375 
Q 45.015625 0.34375 40.984375 -0.53125 
Q 36.96875 -1.421875 32.421875 -1.421875 
Q 20.0625 -1.421875 12.78125 6.34375 
Q 5.515625 14.109375 5.515625 27.296875 
Q 5.515625 40.671875 12.859375 48.328125 
Q 20.21875 56 33.015625 56 
Q 37.15625 56 41.109375 55.140625 
Q 45.0625 54.296875 48.78125 52.59375 
z
" id="DejaVuSans-99"/>
      <path d="M 18.3125 70.21875 
L 18.3125 54.6875 
L 36.8125 54.6875 
L 36.8125 47.703125 
L 18.3125 47.703125 
L 18.3125 18.015625 
Q 18.3125 11.328125 20.140625 9.421875 
Q 21.96875 7.515625 27.59375 7.515625 
L 36.8125 7.515625 
L 36.8125 0 
L 27.59375 0 
Q 17.1875 0 13.234375 3.875 
Q 9.28125 7.765625 9.28125 18.015625 
L 9.28125 47.703125 
L 2.6875 47.703125 
L 2.6875 54.6875 
L 9.28125 54.6875 
L 9.28125 70.21875 
z
" id="DejaVuSans-116"/>
      <path d="M 8.5 21.578125 
L 8.5 54.6875 
L 17.484375 54.6875 
L 17.484375 21.921875 
Q 17.484375 14.15625 20.5 10.265625 
Q 23.53125 6.390625 29.59375 6.390625 
Q 36.859375 6.390625 41.078125 11.03125 
Q 45.3125 15.671875 45.3125 23.6875 
L 45.3125 54.6875 
L 54.296875 54.6875 
L 54.296875 0 
L 45.3125 0 
L 45.3125 8.40625 
Q 42.046875 3.421875 37.71875 1 
Q 33.40625 -1.421875 27.6875 -1.421875 
Q 18.265625 -1.421875 13.375 4.4375 
Q 8.5 10.296875 8.5 21.578125 
z
M 31.109375 56 
z
" id="DejaVuSans-117"/>
      <path d="M 11.71875 12.40625 
L 22.015625 12.40625 
L 22.015625 4 
L 14.015625 -11.625 
L 7.71875 -11.625 
L 11.71875 4 
z
" id="DejaVuSans-44"/>
      <path d="M 18.109375 8.203125 
L 18.109375 -20.796875 
L 9.078125 -20.796875 
L 9.078125 54.6875 
L 18.109375 54.6875 
L 18.109375 46.390625 
Q 20.953125 51.265625 25.265625 53.625 
Q 29.59375 56 35.59375 56 
Q 45.5625 56 51.78125 48.09375 
Q 58.015625 40.1875 58.015625 27.296875 
Q 58.015625 14.40625 51.78125 6.484375 
Q 45.5625 -1.421875 35.59375 -1.421875 
Q 29.59375 -1.421875 25.265625 0.953125 
Q 20.953125 3.328125 18.109375 8.203125 
z
M 48.6875 27.296875 
Q 48.6875 37.203125 44.609375 42.84375 
Q 40.53125 48.484375 33.40625 48.484375 
Q 26.265625 48.484375 22.1875 42.84375 
Q 18.109375 37.203125 18.109375 27.296875 
Q 18.109375 17.390625 22.1875 11.75 
Q 26.265625 6.109375 33.40625 6.109375 
Q 40.53125 6.109375 44.609375 11.75 
Q 48.6875 17.390625 48.6875 27.296875 
z
" id="DejaVuSans-112"/>
     </defs>
     <g transform="translate(17.619531 297.681)rotate(-90)scale(0.17 -0.17)">
      <use xlink:href="#DejaVuSans-70"/>
      <use x="50.269531" xlink:href="#DejaVuSans-114"/>
      <use x="91.382812" xlink:href="#DejaVuSans-97"/>
      <use x="152.662109" xlink:href="#DejaVuSans-99"/>
      <use x="207.642578" xlink:href="#DejaVuSans-116"/>
      <use x="246.851562" xlink:href="#DejaVuSans-105"/>
      <use x="274.634766" xlink:href="#DejaVuSans-111"/>
      <use x="335.816406" xlink:href="#DejaVuSans-110"/>
      <use x="399.195312" xlink:href="#DejaVuSans-32"/>
      <use x="430.982422" xlink:href="#DejaVuSans-111"/>
      <use x="492.164062" xlink:href="#DejaVuSans-102"/>
      <use x="527.369141" xlink:href="#DejaVuSans-32"/>
      <use x="559.15625" xlink:href="#DejaVuSans-102"/>
      <use x="594.361328" xlink:href="#DejaVuSans-117"/>
      <use x="657.740234" xlink:href="#DejaVuSans-110"/>
      <use x="721.119141" xlink:href="#DejaVuSans-99"/>
      <use x="776.099609" xlink:href="#DejaVuSans-116"/>
      <use x="815.308594" xlink:href="#DejaVuSans-105"/>
      <use x="843.091797" xlink:href="#DejaVuSans-111"/>
      <use x="904.273438" xlink:href="#DejaVuSans-110"/>
      <use x="967.652344" xlink:href="#DejaVuSans-44"/>
      <use x="999.439453" xlink:href="#DejaVuSans-116"/>
      <use x="1038.648438" xlink:href="#DejaVuSans-97"/>
      <use x="1099.927734" xlink:href="#DejaVuSans-114"/>
      <use x="1139.291016" xlink:href="#DejaVuSans-103"/>
      <use x="1202.767578" xlink:href="#DejaVuSans-101"/>
      <use x="1264.291016" xlink:href="#DejaVuSans-116"/>
      <use x="1303.5" xlink:href="#DejaVuSans-32"/>
      <use x="1335.287109" xlink:href="#DejaVuSans-112"/>
      <use x="1398.763672" xlink:href="#DejaVuSans-97"/>
      <use x="1460.042969" xlink:href="#DejaVuSans-105"/>
      <use x="1487.826172" xlink:href="#DejaVuSans-114"/>
      <use x="1528.939453" xlink:href="#DejaVuSans-115"/>
     </g>
    </g>
   </g>
   <g id="line2d_33">
    <defs>
     <path d="M 0 1.5 
C 0.397805 1.5 0.77937 1.341951 1.06066 1.06066 
C 1.341951 0.77937 1.5 0.397805 1.5 0 
C 1.5 -0.397805 1.341951 -0.77937 1.06066 -1.06066 
C 0.77937 -1.341951 0.397805 -1.5 0 -1.5 
C -0.397805 -1.5 -0.77937 -1.341951 -1.06066 -1.06066 
C -1.341951 -0.77937 -1.5 -0.397805 -1.5 0 
C -1.5 0.397805 -1.341951 0.77937 -1.06066 1.06066 
C -0.77937 1.341951 -0.397805 1.5 0 1.5 
z
" id="m35150b0a1d" style="stroke:#f5deb3;"/>
    </defs>
    <g>
     <use style="fill:#f5deb3;stroke:#f5deb3;" x="125.996395" xlink:href="#m35150b0a1d" y="30.334099"/>
     <use style="fill:#f5deb3;stroke:#f5deb3;" x="125.996395" xlink:href="#m35150b0a1d" y="30.334099"/>
    </g>
   </g>
   <g id="line2d_34">
    <defs>
     <path d="M 0 1.5 
C 0.397805 1.5 0.77937 1.341951 1.06066 1.06066 
C 1.341951 0.77937 1.5 0.397805 1.5 0 
C 1.5 -0.397805 1.341951 -0.77937 1.06066 -1.06066 
C 0.77937 -1.341951 0.397805 -1.5 0 -1.5 
C -0.397805 -1.5 -0.77937 -1.341951 -1.06066 -1.06066 
C -1.341951 -0.77937 -1.5 -0.397805 -1.5 0 
C -1.5 0.397805 -1.341951 0.77937 -1.06066 1.06066 
C -0.77937 1.341951 -0.397805 1.5 0 1.5 
z
" id="ma19771a6c4" style="stroke:#ff00ff;"/>
    </defs>
    <g>
     <use style="fill:#ff00ff;stroke:#ff00ff;" x="208.906007" xlink:href="#ma19771a6c4" y="30.334099"/>
     <use style="fill:#ff00ff;stroke:#ff00ff;" x="208.906007" xlink:href="#ma19771a6c4" y="30.334099"/>
    </g>
   </g>
   <g id="line2d_35">
    <path d="M 45.512012 298.944 
L 45.512012 286.83022 
L 57.6 286.83022 
L 57.6 279.456615 
L 64.67102 279.456615 
L 64.67102 270.502952 
L 69.687988 270.502952 
L 69.687988 259.442544 
L 79.447285 259.442544 
L 79.447285 256.282427 
L 81.775977 256.282427 
L 81.775977 255.755741 
L 83.830028 255.755741 
L 83.830028 255.229055 
L 90.242884 255.229055 
L 90.242884 252.068939 
L 91.535274 252.068939 
L 91.535274 247.85545 
L 92.73846 247.85545 
L 92.73846 246.802078 
L 94.921215 246.802078 
L 94.921215 244.168648 
L 96.86091 244.168648 
L 96.86091 243.641962 
L 98.606294 243.641962 
L 98.606294 242.061903 
L 100.192776 242.061903 
L 100.192776 241.535217 
L 100.934985 241.535217 
L 100.934985 241.008531 
L 104.23523 241.008531 
L 104.23523 240.481845 
L 104.826449 240.481845 
L 104.826449 239.428473 
L 107.514726 239.428473 
L 107.514726 238.901787 
L 108.948899 238.901787 
L 108.948899 237.848415 
L 109.401893 237.848415 
L 109.401893 236.268356 
L 109.843417 236.268356 
L 109.843417 234.161612 
L 111.897469 234.161612 
L 111.897469 233.634926 
L 112.280765 233.634926 
L 112.280765 231.528182 
L 113.73488 231.528182 
L 113.73488 230.47481 
L 114.751048 230.47481 
L 114.751048 229.421437 
L 120.093994 229.421437 
L 120.093994 227.841379 
L 122.362027 227.841379 
L 122.362027 227.314693 
L 123.394238 227.314693 
L 123.394238 226.788007 
L 125.822869 226.788007 
L 125.822869 225.734635 
L 128.107907 225.734635 
L 128.107907 225.207949 
L 128.260216 225.207949 
L 128.260216 224.681263 
L 128.560901 224.681263 
L 128.560901 223.627891 
L 130.127931 223.627891 
L 130.127931 222.047832 
L 130.664567 222.047832 
L 130.664567 221.521146 
L 131.056477 221.521146 
L 131.056477 218.887716 
L 131.938072 218.887716 
L 131.938072 218.36103 
L 133.800029 218.36103 
L 133.800029 216.780971 
L 134.12805 216.780971 
L 134.12805 216.254285 
L 134.870259 216.254285 
L 134.870259 215.727599 
L 135.780341 215.727599 
L 135.780341 215.200913 
L 136.073445 215.200913 
L 136.073445 212.567483 
L 137.016339 212.567483 
L 137.016339 212.040797 
L 137.469333 212.040797 
L 137.469333 211.514111 
L 137.647286 211.514111 
L 137.647286 210.987425 
L 137.910857 210.987425 
L 137.910857 210.460738 
L 138.426341 210.460738 
L 138.426341 209.934052 
L 138.927025 209.934052 
L 138.927025 208.353994 
L 139.253002 208.353994 
L 139.253002 206.773936 
L 140.042245 206.773936 
L 140.042245 205.720564 
L 141.017599 205.720564 
L 141.017599 205.193878 
L 141.162927 205.193878 
L 141.162927 200.453703 
L 142.010346 200.453703 
L 142.010346 199.927017 
L 142.147664 199.927017 
L 142.147664 199.400331 
L 142.884173 199.400331 
L 142.884173 198.346959 
L 143.144465 198.346959 
L 143.144465 194.660156 
L 144.923649 194.660156 
L 144.923649 194.13347 
L 145.039911 194.13347 
L 145.097753 192.553412 
L 145.832743 192.553412 
L 145.832743 192.026726 
L 146.216039 192.026726 
L 146.216039 190.973354 
L 146.431341 190.973354 
L 146.538004 189.393295 
L 146.854132 189.393295 
L 146.854132 188.866609 
L 147.113265 188.866609 
L 147.113265 188.339923 
L 147.670154 188.339923 
L 147.769524 186.759865 
L 148.54473 186.759865 
L 148.54473 185.706493 
L 148.87334 185.706493 
L 148.87334 184.653121 
L 150.258492 184.653121 
L 150.301393 182.01969 
L 150.808139 182.01969 
L 150.808139 181.493004 
L 151.581536 181.493004 
L 151.660987 179.912946 
L 151.897188 179.912946 
L 151.897188 179.38626 
L 152.130233 179.38626 
L 152.130233 178.859574 
L 152.624728 178.859574 
L 152.624728 178.332888 
L 152.885298 178.332888 
L 152.995791 176.226143 
L 153.250915 176.226143 
L 153.250915 175.172771 
L 153.890309 175.172771 
L 153.890309 174.646085 
L 154.063835 174.646085 
L 154.063835 174.119399 
L 154.607795 174.119399 
L 154.607795 170.959282 
L 154.807483 170.959282 
L 154.873541 169.90591 
L 154.93935 169.90591 
L 154.93935 168.852538 
L 155.520713 168.852538 
L 155.61575 164.63905 
L 155.678822 164.63905 
L 155.678822 164.112363 
L 156.418408 164.112363 
L 156.418408 163.585677 
L 156.568618 163.585677 
L 156.628341 162.532305 
L 156.776762 162.532305 
L 156.776762 161.478933 
L 157.243392 161.478933 
L 157.272146 160.425561 
L 157.528821 160.425561 
L 157.528821 158.845503 
L 157.697862 158.845503 
L 157.697862 158.318817 
L 157.976006 158.318817 
L 157.976006 157.265444 
L 158.195371 157.265444 
L 158.195371 156.738758 
L 158.331086 156.738758 
L 158.331086 154.632014 
L 158.492562 154.632014 
L 158.492562 154.105328 
L 159.072168 154.105328 
L 159.072168 151.998584 
L 159.380382 151.998584 
L 159.380382 150.418525 
L 159.507213 150.418525 
L 159.507213 149.365153 
L 160.200913 149.365153 
L 160.200913 147.785095 
L 160.774311 147.785095 
L 160.86807 143.571606 
L 161.488097 143.571606 
L 161.488097 140.938176 
L 162.043181 140.938176 
L 162.043181 140.41149 
L 162.173813 140.41149 
L 162.173813 139.358118 
L 162.496175 139.358118 
L 162.496175 138.304745 
L 162.770815 138.304745 
L 162.770815 137.778059 
L 163.428979 137.778059 
L 163.428979 135.671315 
L 163.589711 135.671315 
L 163.669525 133.564571 
L 163.729146 133.564571 
L 163.788565 131.984513 
L 163.985177 131.984513 
L 163.985177 131.457826 
L 164.295217 131.457826 
L 164.295217 128.824396 
L 164.637547 128.824396 
L 164.637547 128.29771 
L 165.010195 128.29771 
L 165.047026 127.244338 
L 165.175324 127.244338 
L 165.266391 124.084221 
L 165.320804 124.084221 
L 165.320804 121.450791 
L 165.873346 121.450791 
L 165.873346 120.397419 
L 166.134549 120.397419 
L 166.134549 119.344047 
L 166.289413 119.344047 
L 166.289413 118.817361 
L 166.6119 118.817361 
L 166.712511 117.763988 
L 167.255733 117.763988 
L 167.271933 116.710616 
L 167.481174 116.710616 
L 167.481174 116.18393 
L 167.687935 116.18393 
L 167.798261 113.5505 
L 168.140524 113.5505 
L 168.140524 113.023814 
L 168.278627 113.023814 
L 168.370092 110.390383 
L 168.566635 110.390383 
L 168.566635 108.810325 
L 168.835167 108.810325 
L 168.835167 107.230267 
L 170.105336 107.230267 
L 170.174022 105.650209 
L 170.242438 105.650209 
L 170.28336 104.07015 
L 170.432588 104.07015 
L 170.51345 102.490092 
L 170.647393 102.490092 
L 170.647393 101.963406 
L 170.767069 101.963406 
L 170.872762 99.856662 
L 170.899085 99.856662 
L 170.899085 99.329976 
L 171.147196 99.329976 
L 171.160157 96.169859 
L 171.43014 96.169859 
L 171.43014 95.116487 
L 171.569909 95.116487 
L 171.569909 94.589801 
L 171.683438 94.589801 
L 171.746192 93.536429 
L 171.796233 93.536429 
L 171.796233 92.483056 
L 172.093501 92.483056 
L 172.093501 90.376312 
L 172.325296 90.376312 
L 172.409924 86.68951 
L 172.506141 86.68951 
L 172.506141 85.109451 
L 172.815229 85.109451 
L 172.897518 83.002707 
L 173.31469 83.002707 
L 173.31469 82.476021 
L 173.496944 82.476021 
L 173.564801 81.422649 
L 173.654869 81.422649 
L 173.654869 80.369277 
L 173.933369 80.369277 
L 173.933369 79.842591 
L 174.229235 79.842591 
L 174.305129 77.735846 
L 174.520166 77.735846 
L 174.520166 77.20916 
L 174.66913 77.20916 
L 174.764225 74.57573 
L 174.869281 74.57573 
L 174.879752 72.995672 
L 175.077514 72.995672 
L 175.077514 72.468985 
L 175.303734 72.468985 
L 175.395439 71.415613 
L 175.446179 71.415613 
L 175.466434 69.308869 
L 175.597519 69.308869 
L 175.597519 68.255497 
L 175.717652 68.255497 
L 175.717652 67.728811 
L 176.004603 67.728811 
L 176.004603 66.675439 
L 176.131719 66.675439 
L 176.209486 65.09538 
L 176.383205 65.09538 
L 176.383205 64.568694 
L 176.593204 64.568694 
L 176.593204 61.935264 
L 176.763161 61.935264 
L 176.763161 60.355206 
L 177.390674 60.355206 
L 177.390674 58.775147 
L 177.65157 58.775147 
L 177.65157 58.248461 
L 177.961335 58.248461 
L 178.022633 57.195089 
L 178.31734 57.195089 
L 178.31734 56.668403 
L 178.522409 56.668403 
L 178.607149 55.088345 
L 178.792138 55.088345 
L 178.792138 54.561659 
L 178.975185 54.561659 
L 179.041275 52.9816 
L 179.424571 52.9816 
L 179.464856 51.928228 
L 179.972447 51.928228 
L 180.019285 49.294798 
L 197.522128 49.294798 
L 197.542119 48.241426 
L 197.647407 48.241426 
L 197.647407 47.71474 
L 197.85329 47.71474 
L 197.85329 46.661368 
L 197.998479 46.661368 
L 197.998479 46.134681 
L 198.203031 46.134681 
L 198.260646 42.974565 
L 198.339897 42.974565 
L 198.339897 42.447879 
L 198.456748 42.447879 
L 198.456748 41.921193 
L 198.586268 41.921193 
L 198.586268 41.394507 
L 198.900642 41.394507 
L 198.900642 40.867821 
L 199.060962 40.867821 
L 199.060962 40.341135 
L 199.191281 40.341135 
L 199.209449 39.287762 
L 199.348964 39.287762 
L 199.348964 38.761076 
L 199.505233 38.761076 
L 199.505233 37.707704 
L 199.725714 37.707704 
L 199.791067 36.654332 
L 199.990632 36.654332 
L 199.990632 36.127646 
L 200.124059 36.127646 
L 200.18058 35.074274 
L 200.49424 35.074274 
L 200.49424 33.494215 
L 204.5941 33.494215 
L 204.5941 32.967529 
L 208.335961 32.967529 
L 208.335961 31.914157 
L 208.804555 31.914157 
L 208.906007 30.334099 
L 338.688 30.334099 
L 338.688 30.334099 
" style="fill:none;stroke:#ff00ff;stroke-linecap:square;stroke-width:1.5;"/>
   </g>
   <g id="line2d_36">
    <defs>
     <path d="M -0 8.485281 
L 5.091169 0 
L 0 -8.485281 
L -5.091169 -0 
z
" id="mfed4153fc0" style="stroke:#ff00ff;stroke-linejoin:miter;stroke-width:1.5;"/>
    </defs>
    <g>
     <use style="fill-opacity:0;stroke:#ff00ff;stroke-linejoin:miter;stroke-width:1.5;" x="125.822869" xlink:href="#mfed4153fc0" y="225.734635"/>
     <use style="fill-opacity:0;stroke:#ff00ff;stroke-linejoin:miter;stroke-width:1.5;" x="167.798261" xlink:href="#mfed4153fc0" y="114.077186"/>
     <use style="fill-opacity:0;stroke:#ff00ff;stroke-linejoin:miter;stroke-width:1.5;" x="200.49424" xlink:href="#mfed4153fc0" y="35.074274"/>
     <use style="fill-opacity:0;stroke:#ff00ff;stroke-linejoin:miter;stroke-width:1.5;" x="208.906007" xlink:href="#mfed4153fc0" y="30.334099"/>
     <use style="fill-opacity:0;stroke:#ff00ff;stroke-linejoin:miter;stroke-width:1.5;" x="208.906007" xlink:href="#mfed4153fc0" y="30.334099"/>
     <use style="fill-opacity:0;stroke:#ff00ff;stroke-linejoin:miter;stroke-width:1.5;" x="338.688" xlink:href="#mfed4153fc0" y="30.334099"/>
    </g>
   </g>
   <g id="line2d_37">
    <path style="fill:none;stroke:#ff00ff;stroke-linecap:square;stroke-width:1.5;"/>
    <g/>
   </g>
   <g id="line2d_38">
    <path clip-path="url(#p405c2e0ccd)" d="M 194.045737 49.294798 
" style="fill:none;stroke:#ff00ff;stroke-linecap:square;stroke-width:1.5;"/>
    <defs>
     <path d="M -12 12 
L 12 -12 
M -12 -12 
L 12 12 
" id="m1b0f582562" style="stroke:#ff00ff;"/>
    </defs>
    <g clip-path="url(#p405c2e0ccd)">
     <use style="fill:#ff00ff;stroke:#ff00ff;" x="194.045737" xlink:href="#m1b0f582562" y="49.294798"/>
    </g>
   </g>
   <g id="line2d_39">
    <defs>
     <path d="M 0 1.5 
C 0.397805 1.5 0.77937 1.341951 1.06066 1.06066 
C 1.341951 0.77937 1.5 0.397805 1.5 0 
C 1.5 -0.397805 1.341951 -0.77937 1.06066 -1.06066 
C 0.77937 -1.341951 0.397805 -1.5 0 -1.5 
C -0.397805 -1.5 -0.77937 -1.341951 -1.06066 -1.06066 
C -1.341951 -0.77937 -1.5 -0.397805 -1.5 0 
C -1.5 0.397805 -1.341951 0.77937 -1.06066 1.06066 
C -0.77937 1.341951 -0.397805 1.5 0 1.5 
z
" id="m76c2b07ead" style="stroke:#ff7500;"/>
    </defs>
    <g>
     <use style="fill:#ff7500;stroke:#ff7500;" x="240.026845" xlink:href="#m76c2b07ead" y="72.468985"/>
     <use style="fill:#ff7500;stroke:#ff7500;" x="240.026845" xlink:href="#m76c2b07ead" y="72.468985"/>
    </g>
   </g>
   <g id="line2d_40">
    <path d="M 45.512012 298.944 
L 45.512012 287.883592 
L 57.6 287.883592 
L 57.6 277.349871 
L 64.67102 277.349871 
L 64.67102 267.869521 
L 69.687988 267.869521 
L 69.687988 259.442544 
L 79.447285 259.442544 
L 79.447285 257.3358 
L 81.775977 257.3358 
L 81.775977 256.282427 
L 83.830028 256.282427 
L 83.830028 255.229055 
L 90.242884 255.229055 
L 90.242884 251.542253 
L 91.535274 251.542253 
L 91.535274 246.802078 
L 92.73846 246.802078 
L 92.73846 246.275392 
L 94.921215 246.275392 
L 94.921215 244.695334 
L 96.86091 244.695334 
L 96.86091 244.168648 
L 98.606294 244.168648 
L 98.606294 242.061903 
L 100.192776 242.061903 
L 100.192776 241.535217 
L 100.934985 241.535217 
L 100.934985 241.008531 
L 104.23523 241.008531 
L 104.23523 240.481845 
L 104.826449 240.481845 
L 104.826449 238.901787 
L 105.951954 238.901787 
L 105.951954 238.375101 
L 107.514726 238.375101 
L 107.514726 237.321729 
L 109.843417 237.321729 
L 109.843417 234.688298 
L 111.505558 234.688298 
L 111.505558 234.161612 
L 115.077025 234.161612 
L 115.077025 232.581554 
L 116.019919 232.581554 
L 116.019919 231.528182 
L 116.621333 231.528182 
L 116.621333 231.001496 
L 118.039942 231.001496 
L 118.039942 230.47481 
L 124.743806 230.47481 
L 124.743806 229.948123 
L 125.110962 229.948123 
L 125.110962 229.421437 
L 125.647598 229.421437 
L 125.647598 227.841379 
L 126.168212 227.841379 
L 126.168212 227.314693 
L 127.799239 227.314693 
L 127.799239 226.788007 
L 129.574256 226.788007 
L 129.574256 225.734635 
L 130.926816 225.734635 
L 130.926816 225.207949 
L 132.060454 225.207949 
L 132.060454 223.101204 
L 132.893889 223.101204 
L 132.893889 222.574518 
L 133.352844 222.574518 
L 133.352844 221.521146 
L 133.689303 221.521146 
L 133.689303 220.99446 
L 134.12805 220.99446 
L 134.12805 220.467774 
L 135.381712 220.467774 
L 135.381712 218.36103 
L 136.170062 218.36103 
L 136.170062 216.780971 
L 136.924311 216.780971 
L 136.924311 214.674227 
L 137.107884 214.674227 
L 137.107884 211.514111 
L 138.510793 211.514111 
L 138.510793 210.987425 
L 139.009092 210.987425 
L 139.090775 209.934052 
L 140.195896 209.934052 
L 140.195896 209.407366 
L 140.723258 209.407366 
L 140.723258 207.827308 
L 141.378673 207.827308 
L 141.378673 207.300622 
L 143.840863 207.300622 
L 143.840863 206.773936 
L 143.964547 206.773936 
L 143.964547 206.24725 
L 144.570138 206.24725 
L 144.629556 202.033761 
L 144.688773 202.033761 
L 144.688773 200.980389 
L 145.039911 200.980389 
L 145.039911 200.453703 
L 145.155404 200.453703 
L 145.155404 199.927017 
L 145.777292 199.927017 
L 145.777292 199.400331 
L 146.906268 199.400331 
L 146.906268 198.873645 
L 147.215849 198.873645 
L 147.317833 197.820273 
L 148.449693 197.820273 
L 148.449693 196.7669 
L 148.826773 196.7669 
L 148.826773 195.713528 
L 148.966103 195.713528 
L 148.966103 194.660156 
L 150.085825 194.660156 
L 150.085825 193.606784 
L 150.215485 193.606784 
L 150.215485 193.080098 
L 152.885298 193.080098 
L 152.885298 192.553412 
L 153.925152 192.553412 
L 153.925152 191.50004 
L 154.807483 191.50004 
L 154.807483 190.446667 
L 155.329071 190.446667 
L 155.329071 188.866609 
L 155.55245 188.866609 
L 155.55245 188.339923 
L 156.923929 188.339923 
L 157.011638 186.759865 
L 157.098907 186.759865 
L 157.098907 185.706493 
L 158.168101 185.706493 
L 158.168101 184.653121 
L 158.304027 184.653121 
L 158.304027 183.599748 
L 158.915995 183.599748 
L 158.915995 180.966318 
L 160.273627 180.966318 
L 160.297798 179.912946 
L 160.727241 179.912946 
L 160.727241 179.38626 
L 160.914762 179.38626 
L 160.914762 177.279515 
L 162.260361 177.279515 
L 162.260361 176.752829 
L 162.389382 176.752829 
L 162.474869 173.592713 
L 162.791763 173.592713 
L 162.833584 170.432596 
L 164.063205 170.432596 
L 164.063205 168.325852 
L 164.467222 168.325852 
L 164.467222 167.27248 
L 165.447111 167.27248 
L 165.447111 166.745794 
L 166.169082 166.745794 
L 166.169082 165.692422 
L 166.795913 165.692422 
L 166.795913 165.165736 
L 167.336582 165.165736 
L 167.336582 164.63905 
L 167.592812 164.63905 
L 167.592812 163.058991 
L 169.417501 163.058991 
L 169.503198 160.425561 
L 169.659223 160.425561 
L 169.659223 159.898875 
L 170.58055 159.898875 
L 170.58055 159.372189 
L 170.793552 159.372189 
L 170.793552 158.845503 
L 171.030109 158.845503 
L 171.030109 157.79213 
L 171.8212 157.79213 
L 171.8212 156.738758 
L 172.42198 156.738758 
L 172.42198 155.685386 
L 172.720707 155.685386 
L 172.720707 153.051956 
L 173.519593 153.051956 
L 173.530906 151.998584 
L 173.677313 151.998584 
L 173.677313 151.471897 
L 174.261802 151.471897 
L 174.261802 150.945211 
L 175.149812 150.945211 
L 175.232072 148.838467 
L 175.364924 148.838467 
L 175.364924 147.258409 
L 176.03402 147.258409 
L 176.03402 146.731723 
L 176.621646 146.731723 
L 176.640581 144.624978 
L 177.444973 144.624978 
L 177.444973 144.098292 
L 177.571019 144.098292 
L 177.571019 143.04492 
L 178.274311 143.04492 
L 178.343106 141.991548 
L 178.411629 141.991548 
L 178.411629 140.938176 
L 178.825562 140.938176 
L 178.825562 140.41149 
L 179.432635 140.41149 
L 179.432635 139.884804 
L 179.633043 139.884804 
L 179.633043 139.358118 
L 180.07377 139.358118 
L 180.08154 137.778059 
L 180.320702 137.778059 
L 180.320702 136.724687 
L 180.878686 136.724687 
L 180.878686 136.198001 
L 181.361719 136.198001 
L 181.361719 135.144629 
L 181.929824 135.144629 
L 181.957749 134.091257 
L 182.082862 134.091257 
L 182.082862 133.564571 
L 182.459683 133.564571 
L 182.459683 133.037885 
L 182.735382 133.037885 
L 182.735382 132.511199 
L 182.987073 132.511199 
L 183.019922 130.404454 
L 183.11157 130.404454 
L 183.11157 129.877768 
L 183.486206 129.877768 
L 183.556359 128.824396 
L 183.607202 128.824396 
L 183.632568 127.771024 
L 184.04587 127.771024 
L 184.04587 127.244338 
L 184.55811 127.244338 
L 184.642039 124.084221 
L 184.790916 124.084221 
L 184.790916 122.504163 
L 184.926769 122.504163 
L 185.032355 120.397419 
L 185.408403 120.397419 
L 185.408403 118.817361 
L 185.832462 118.817361 
L 185.832462 118.290674 
L 186.004772 118.290674 
L 186.004772 117.237302 
L 186.34979 117.237302 
L 186.447126 114.603872 
L 187.314931 114.603872 
L 187.314931 114.077186 
L 187.544298 114.077186 
L 187.544298 113.5505 
L 188.082775 113.5505 
L 188.082775 113.023814 
L 188.331389 113.023814 
L 188.379724 109.863697 
L 188.775817 109.863697 
L 188.775817 109.337011 
L 188.902752 109.337011 
L 188.902752 108.810325 
L 189.13078 108.810325 
L 189.232199 107.230267 
L 189.250575 107.230267 
L 189.250575 106.703581 
L 189.501307 106.703581 
L 189.501307 106.176895 
L 190.088754 106.176895 
L 190.193469 103.543464 
L 190.219549 103.543464 
L 190.236915 102.490092 
L 190.61889 102.490092 
L 190.652819 101.43672 
L 190.963568 101.43672 
L 190.963568 100.910034 
L 191.576971 100.910034 
L 191.576971 99.856662 
L 191.871816 99.856662 
L 191.942787 96.696545 
L 192.243169 96.696545 
L 192.281803 94.063115 
L 192.899758 94.063115 
L 192.899758 93.009743 
L 193.096061 93.009743 
L 193.096061 91.95637 
L 193.446098 91.95637 
L 193.446098 90.376312 
L 194.021305 90.376312 
L 194.021305 89.849626 
L 204.009121 89.849626 
L 204.009121 89.32294 
L 204.313745 89.32294 
L 204.313745 87.742882 
L 204.675819 87.742882 
L 204.675819 87.216196 
L 205.106533 87.216196 
L 205.106533 86.68951 
L 205.255721 86.68951 
L 205.274051 85.109451 
L 205.665351 85.109451 
L 205.665351 84.056079 
L 205.836483 84.056079 
L 205.836483 83.002707 
L 206.121514 83.002707 
L 206.121514 82.476021 
L 212.893898 82.476021 
L 212.893898 81.949335 
L 213.007148 81.949335 
L 213.007148 80.369277 
L 213.196606 80.369277 
L 213.196606 79.842591 
L 217.71568 79.842591 
L 217.71568 79.315904 
L 217.989099 79.315904 
L 218.073726 78.262532 
L 224.706927 78.262532 
L 224.706927 77.20916 
L 225.00495 77.20916 
L 225.00495 76.682474 
L 225.194215 76.682474 
L 225.288665 75.629102 
L 227.896601 75.629102 
L 227.977523 73.522358 
L 232.298137 73.522358 
L 232.298137 72.995672 
L 240.026845 72.995672 
L 240.026845 72.468985 
L 338.688 72.468985 
L 338.688 72.468985 
" style="fill:none;stroke:#ff7500;stroke-linecap:square;stroke-width:1.5;"/>
   </g>
   <g id="line2d_41">
    <defs>
     <path d="M 0 -6 
L -1.347084 -1.854102 
L -5.706339 -1.854102 
L -2.179628 0.708204 
L -3.526712 4.854102 
L -0 2.291796 
L 3.526712 4.854102 
L 2.179628 0.708204 
L 5.706339 -1.854102 
L 1.347084 -1.854102 
z
" id="m0896033386" style="stroke:#ff7500;stroke-linejoin:bevel;stroke-width:1.5;"/>
    </defs>
    <g>
     <use style="fill-opacity:0;stroke:#ff7500;stroke-linejoin:bevel;stroke-width:1.5;" x="132.060454" xlink:href="#m0896033386" y="223.101204"/>
     <use style="fill-opacity:0;stroke:#ff7500;stroke-linejoin:bevel;stroke-width:1.5;" x="181.957749" xlink:href="#m0896033386" y="134.617943"/>
     <use style="fill-opacity:0;stroke:#ff7500;stroke-linejoin:bevel;stroke-width:1.5;" x="240.026845" xlink:href="#m0896033386" y="72.995672"/>
     <use style="fill-opacity:0;stroke:#ff7500;stroke-linejoin:bevel;stroke-width:1.5;" x="240.026845" xlink:href="#m0896033386" y="72.468985"/>
     <use style="fill-opacity:0;stroke:#ff7500;stroke-linejoin:bevel;stroke-width:1.5;" x="240.026845" xlink:href="#m0896033386" y="72.468985"/>
     <use style="fill-opacity:0;stroke:#ff7500;stroke-linejoin:bevel;stroke-width:1.5;" x="338.688" xlink:href="#m0896033386" y="72.468985"/>
    </g>
   </g>
   <g id="line2d_42">
    <path style="fill:none;stroke:#ff7500;stroke-linecap:square;stroke-width:1.5;"/>
    <g/>
   </g>
   <g id="line2d_43">
    <path clip-path="url(#p405c2e0ccd)" d="M 194.045737 89.849626 
" style="fill:none;stroke:#ff7500;stroke-linecap:square;stroke-width:1.5;"/>
    <defs>
     <path d="M -12 12 
L 12 -12 
M -12 -12 
L 12 12 
" id="m56fe26382e" style="stroke:#ff7500;"/>
    </defs>
    <g clip-path="url(#p405c2e0ccd)">
     <use style="fill:#ff7500;stroke:#ff7500;" x="194.045737" xlink:href="#m56fe26382e" y="89.849626"/>
    </g>
   </g>
   <g id="line2d_44">
    <defs>
     <path d="M 0 1.5 
C 0.397805 1.5 0.77937 1.341951 1.06066 1.06066 
C 1.341951 0.77937 1.5 0.397805 1.5 0 
C 1.5 -0.397805 1.341951 -0.77937 1.06066 -1.06066 
C 0.77937 -1.341951 0.397805 -1.5 0 -1.5 
C -0.397805 -1.5 -0.77937 -1.341951 -1.06066 -1.06066 
C -1.341951 -0.77937 -1.5 -0.397805 -1.5 0 
C -1.5 0.397805 -1.341951 0.77937 -1.06066 1.06066 
C -0.77937 1.341951 -0.397805 1.5 0 1.5 
z
" id="ma74b260811" style="stroke:#6495ed;"/>
    </defs>
    <g>
     <use style="fill:#6495ed;stroke:#6495ed;" x="191.564912" xlink:href="#ma74b260811" y="30.334099"/>
     <use style="fill:#6495ed;stroke:#6495ed;" x="191.564912" xlink:href="#ma74b260811" y="30.334099"/>
    </g>
   </g>
   <g id="line2d_45">
    <path d="M 45.512012 298.944 
L 45.512012 287.883592 
L 57.6 287.883592 
L 57.6 277.349871 
L 64.67102 277.349871 
L 64.67102 268.396207 
L 69.687988 268.396207 
L 69.687988 259.442544 
L 79.447285 259.442544 
L 79.447285 255.755741 
L 81.775977 255.755741 
L 81.775977 254.702369 
L 83.830028 254.702369 
L 83.830028 253.648997 
L 90.242884 253.648997 
L 90.242884 250.488881 
L 91.535274 250.488881 
L 91.535274 246.802078 
L 92.73846 246.802078 
L 92.73846 246.275392 
L 94.921215 246.275392 
L 94.921215 244.168648 
L 95.918017 244.168648 
L 95.918017 243.641962 
L 96.86091 243.641962 
L 96.86091 242.588589 
L 98.606294 242.588589 
L 98.606294 241.535217 
L 100.192776 241.535217 
L 100.192776 240.481845 
L 104.826449 240.481845 
L 104.826449 239.955159 
L 105.951954 239.955159 
L 105.951954 239.428473 
L 107.514726 239.428473 
L 107.514726 238.901787 
L 108.948899 238.901787 
L 108.948899 237.848415 
L 109.401893 237.848415 
L 109.401893 236.795043 
L 109.843417 236.795043 
L 109.843417 235.214984 
L 111.505558 235.214984 
L 111.505558 234.161612 
L 115.077025 234.161612 
L 115.077025 232.581554 
L 116.019919 232.581554 
L 116.019919 230.47481 
L 118.039942 230.47481 
L 118.039942 229.948123 
L 121.264855 229.948123 
L 121.264855 229.421437 
L 121.931406 229.421437 
L 121.931406 227.314693 
L 122.782271 227.314693 
L 122.782271 226.788007 
L 123.790603 226.788007 
L 123.790603 226.261321 
L 124.368753 226.261321 
L 124.368753 225.734635 
L 125.647598 225.734635 
L 125.647598 224.681263 
L 126.338353 224.681263 
L 126.338353 221.521146 
L 127.48501 221.521146 
L 127.48501 219.941088 
L 128.411207 219.941088 
L 128.411207 218.887716 
L 128.560901 218.887716 
L 128.560901 218.36103 
L 129.002426 218.36103 
L 129.002426 217.834344 
L 129.147151 217.834344 
L 129.147151 216.780971 
L 129.433047 216.780971 
L 129.433047 216.254285 
L 130.796184 216.254285 
L 130.796184 214.674227 
L 130.926816 214.674227 
L 130.926816 214.147541 
L 131.814826 214.147541 
L 131.814826 213.094169 
L 132.30267 213.094169 
L 132.30267 211.514111 
L 132.893889 211.514111 
L 132.893889 210.460738 
L 134.661403 210.460738 
L 134.661403 209.934052 
L 135.780341 209.934052 
L 135.780341 209.407366 
L 136.266147 209.407366 
L 136.266147 208.353994 
L 137.910857 208.353994 
L 137.910857 207.827308 
L 138.761723 207.827308 
L 138.761723 207.300622 
L 139.172077 207.300622 
L 139.253002 203.613819 
L 139.8092 203.613819 
L 139.887228 199.927017 
L 140.272217 199.927017 
L 140.272217 199.400331 
L 140.871049 199.400331 
L 140.871049 198.873645 
L 141.662245 198.873645 
L 141.662245 196.7669 
L 141.871938 196.7669 
L 141.871938 196.240214 
L 143.273169 196.240214 
L 143.273169 194.660156 
L 143.40093 194.660156 
L 143.464461 193.606784 
L 143.778691 193.606784 
L 143.778691 193.080098 
L 144.510517 193.080098 
L 144.510517 192.553412 
L 144.747789 192.553412 
L 144.747789 191.50004 
L 144.923649 191.50004 
L 144.923649 190.973354 
L 145.553708 190.973354 
L 145.553708 190.446667 
L 145.832743 190.446667 
L 145.832743 189.919981 
L 147.215849 189.919981 
L 147.215849 188.339923 
L 147.86833 188.339923 
L 147.86833 186.759865 
L 148.209809 186.759865 
L 148.306159 185.706493 
L 149.241465 185.706493 
L 149.241465 185.179807 
L 149.512548 185.179807 
L 149.512548 184.126434 
L 150.042389 184.126434 
L 150.129152 183.073062 
L 150.38688 183.073062 
L 150.38688 182.01969 
L 151.818809 182.01969 
L 151.818809 181.493004 
L 153.890309 181.493004 
L 153.890309 180.439632 
L 154.269814 180.439632 
L 154.269814 179.38626 
L 154.405793 179.38626 
L 154.405793 178.859574 
L 156.357959 178.859574 
L 156.357959 178.332888 
L 156.806295 178.332888 
L 156.806295 177.279515 
L 157.443681 177.279515 
L 157.443681 176.752829 
L 157.725877 176.752829 
L 157.725877 174.646085 
L 159.683242 174.646085 
L 159.683242 173.592713 
L 160.489968 173.592713 
L 160.489968 172.539341 
L 162.833584 172.539341 
L 162.833584 171.485969 
L 163.388564 171.485969 
L 163.388564 170.959282 
L 163.50953 170.959282 
L 163.589711 168.325852 
L 164.179597 168.325852 
L 164.179597 167.27248 
L 164.824867 167.27248 
L 164.824867 166.745794 
L 164.973287 166.745794 
L 164.973287 165.692422 
L 166.374858 165.692422 
L 166.374858 164.112363 
L 167.141909 164.112363 
L 167.207042 161.478933 
L 168.820356 161.478933 
L 168.820356 160.952247 
L 168.9532 160.952247 
L 169.055827 159.898875 
L 169.316986 159.898875 
L 169.316986 158.845503 
L 169.673338 158.845503 
L 169.673338 158.318817 
L 169.855803 158.318817 
L 169.855803 157.79213 
L 170.753812 157.79213 
L 170.753812 157.265444 
L 170.951613 157.265444 
L 170.951613 156.212072 
L 171.49381 156.212072 
L 171.49381 155.685386 
L 172.708856 155.685386 
L 172.744386 153.578642 
L 173.014404 153.578642 
L 173.014404 152.52527 
L 173.428822 152.52527 
L 173.428822 150.418525 
L 173.688525 150.418525 
L 173.688525 149.891839 
L 174.637316 149.891839 
L 174.637316 146.731723 
L 174.879752 146.731723 
L 174.879752 146.205037 
L 175.737594 146.205037 
L 175.737594 145.678351 
L 176.131719 145.678351 
L 176.131719 145.151665 
L 176.34475 145.151665 
L 176.402401 143.571606 
L 176.659495 143.571606 
L 176.659495 143.04492 
L 176.82881 143.04492 
L 176.922168 141.464862 
L 177.190115 141.464862 
L 177.190115 140.938176 
L 177.426892 140.938176 
L 177.50811 138.831432 
L 177.553068 138.831432 
L 177.553068 137.778059 
L 177.776137 137.778059 
L 177.776137 136.724687 
L 177.908622 136.724687 
L 177.978871 135.671315 
L 178.291535 135.671315 
L 178.351686 134.091257 
L 178.45432 134.091257 
L 178.45432 133.564571 
L 178.666222 133.564571 
L 178.683063 131.984513 
L 178.792138 131.984513 
L 178.792138 130.93114 
L 179.180888 130.93114 
L 179.246204 128.824396 
L 179.368015 128.824396 
L 179.368015 128.29771 
L 179.656938 128.29771 
L 179.656938 125.66428 
L 180.274668 125.66428 
L 180.33602 121.977477 
L 180.518792 121.977477 
L 180.518792 121.450791 
L 180.826662 121.450791 
L 180.826662 120.924105 
L 181.004389 120.924105 
L 181.055886 119.344047 
L 181.173027 119.344047 
L 181.282137 117.237302 
L 181.289386 117.237302 
L 181.296633 116.18393 
L 181.462482 116.18393 
L 181.462482 114.603872 
L 181.76838 114.603872 
L 181.852798 113.023814 
L 181.887852 113.023814 
L 181.887852 111.443755 
L 182.069005 111.443755 
L 182.103627 108.810325 
L 182.275715 108.810325 
L 182.275715 108.283639 
L 182.547572 108.283639 
L 182.547572 107.756953 
L 182.762047 107.756953 
L 182.762047 105.650209 
L 182.888155 105.650209 
L 182.888155 104.07015 
L 183.078894 104.07015 
L 183.131146 101.963406 
L 183.274039 101.963406 
L 183.338605 96.696545 
L 183.664224 96.696545 
L 183.68319 94.063115 
L 183.783996 94.063115 
L 183.846704 92.483056 
L 183.90295 92.483056 
L 183.996292 88.269568 
L 184.076786 88.269568 
L 184.113812 87.216196 
L 184.582131 87.216196 
L 184.648019 85.636137 
L 184.695781 85.636137 
L 184.695781 84.582765 
L 184.844202 84.582765 
L 184.844202 84.056079 
L 184.979642 84.056079 
L 185.032355 83.002707 
L 185.102392 83.002707 
L 185.102392 82.476021 
L 185.230068 82.476021 
L 185.339586 79.842591 
L 185.44271 79.842591 
L 185.539547 73.522358 
L 185.579266 73.522358 
L 185.63585 72.468985 
L 185.720384 72.468985 
L 185.720384 71.942299 
L 185.882663 71.942299 
L 185.993706 68.255497 
L 186.186347 68.255497 
L 186.186347 66.148752 
L 186.333515 66.148752 
L 186.403933 65.09538 
L 186.463296 65.09538 
L 186.463296 64.568694 
L 186.741219 64.568694 
L 186.831126 62.46195 
L 186.99389 62.46195 
L 187.092903 58.775147 
L 187.196524 58.775147 
L 187.196524 57.721775 
L 187.355928 57.721775 
L 187.366163 56.141717 
L 187.655344 56.141717 
L 187.655344 54.561659 
L 188.146484 54.561659 
L 188.146484 53.508287 
L 188.360406 53.508287 
L 188.456783 51.401542 
L 188.533502 51.401542 
L 188.633687 50.34817 
L 188.808815 50.34817 
L 188.832347 49.294798 
L 188.921479 49.294798 
L 188.996185 47.71474 
L 189.116905 47.71474 
L 189.176953 45.607995 
L 189.264345 45.607995 
L 189.351301 43.501251 
L 189.483193 43.501251 
L 189.569068 41.394507 
L 189.650035 41.394507 
L 189.650035 40.867821 
L 189.761868 40.867821 
L 189.828626 39.814448 
L 189.979004 39.814448 
L 190.058093 38.761076 
L 190.128096 38.761076 
L 190.215205 37.707704 
L 190.288908 37.707704 
L 190.396731 35.074274 
L 190.40103 35.074274 
L 190.40103 34.547588 
L 190.520976 34.547588 
L 190.520976 34.020902 
L 190.707812 34.020902 
L 190.707812 32.967529 
L 190.867576 32.967529 
L 190.913551 31.914157 
L 191.12514 31.914157 
L 191.19921 30.860785 
L 191.564912 30.860785 
L 191.564912 30.334099 
L 338.688 30.334099 
L 338.688 30.334099 
" style="fill:none;stroke:#6495ed;stroke-linecap:square;stroke-width:1.5;"/>
   </g>
   <g id="line2d_46">
    <defs>
     <path d="M -0 6 
L 6 -6 
L -6 -6 
z
" id="meb0cdd2a51" style="stroke:#6495ed;stroke-linejoin:miter;stroke-width:1.5;"/>
    </defs>
    <g>
     <use style="fill-opacity:0;stroke:#6495ed;stroke-linejoin:miter;stroke-width:1.5;" x="83.830028" xlink:href="#meb0cdd2a51" y="254.702369"/>
     <use style="fill-opacity:0;stroke:#6495ed;stroke-linejoin:miter;stroke-width:1.5;" x="145.832743" xlink:href="#meb0cdd2a51" y="190.446667"/>
     <use style="fill-opacity:0;stroke:#6495ed;stroke-linejoin:miter;stroke-width:1.5;" x="183.338605" xlink:href="#meb0cdd2a51" y="98.276603"/>
     <use style="fill-opacity:0;stroke:#6495ed;stroke-linejoin:miter;stroke-width:1.5;" x="191.564912" xlink:href="#meb0cdd2a51" y="30.860785"/>
     <use style="fill-opacity:0;stroke:#6495ed;stroke-linejoin:miter;stroke-width:1.5;" x="191.564912" xlink:href="#meb0cdd2a51" y="30.334099"/>
     <use style="fill-opacity:0;stroke:#6495ed;stroke-linejoin:miter;stroke-width:1.5;" x="338.688" xlink:href="#meb0cdd2a51" y="30.334099"/>
    </g>
   </g>
   <g id="line2d_47">
    <path style="fill:none;stroke:#6495ed;stroke-linecap:square;stroke-width:1.5;"/>
    <g/>
   </g>
   <g id="line2d_48">
    <path d="M 338.688 72.468985 
L 369.60768 293.571802 
" style="fill:none;stroke:#ff7500;stroke-linecap:square;stroke-width:1.5;"/>
    <g>
     <use style="fill-opacity:0;stroke:#ff7500;stroke-linejoin:bevel;stroke-width:1.5;" x="338.688" xlink:href="#m0896033386" y="72.468985"/>
     <use style="fill-opacity:0;stroke:#ff7500;stroke-linejoin:bevel;stroke-width:1.5;" x="369.60768" xlink:href="#m0896033386" y="293.571802"/>
    </g>
   </g>
   <g id="line2d_49">
    <path d="M 338.688 30.334099 
L 369.60768 207.616634 
" style="fill:none;stroke:#ff00ff;stroke-linecap:square;stroke-width:1.5;"/>
    <g>
     <use style="fill-opacity:0;stroke:#ff00ff;stroke-linejoin:miter;stroke-width:1.5;" x="338.688" xlink:href="#mfed4153fc0" y="30.334099"/>
     <use style="fill-opacity:0;stroke:#ff00ff;stroke-linejoin:miter;stroke-width:1.5;" x="369.60768" xlink:href="#mfed4153fc0" y="207.616634"/>
    </g>
   </g>
   <g id="line2d_50">
    <path d="M 338.688 30.334099 
L 369.60768 121.661465 
" style="fill:none;stroke:#6495ed;stroke-linecap:square;stroke-width:1.5;"/>
    <g>
     <use style="fill-opacity:0;stroke:#6495ed;stroke-linejoin:miter;stroke-width:1.5;" x="338.688" xlink:href="#meb0cdd2a51" y="30.334099"/>
     <use style="fill-opacity:0;stroke:#6495ed;stroke-linejoin:miter;stroke-width:1.5;" x="369.60768" xlink:href="#meb0cdd2a51" y="121.661465"/>
    </g>
   </g>
   <g id="line2d_51">
    <path d="M 338.688 298.944 
L 338.688 30.334099 
" style="fill:none;stroke:#000000;stroke-linecap:square;stroke-width:1.5;"/>
   </g>
   <g id="patch_3">
    <path d="M 57.6 298.944 
L 57.6 27.648 
" style="fill:none;stroke:#000000;stroke-linecap:square;stroke-linejoin:miter;stroke-width:0.8;"/>
   </g>
   <g id="patch_4">
    <path d="M 338.688 298.944 
L 338.688 27.648 
" style="fill:none;stroke:#000000;stroke-linecap:square;stroke-linejoin:miter;stroke-width:0.8;"/>
   </g>
   <g id="patch_5">
    <path d="M 57.6 298.944 
L 338.688 298.944 
" style="fill:none;stroke:#000000;stroke-linecap:square;stroke-linejoin:miter;stroke-width:0.8;"/>
   </g>
   <g id="patch_6">
    <path d="M 57.6 27.648 
L 338.688 27.648 
" style="fill:none;stroke:#000000;stroke-linecap:square;stroke-linejoin:miter;stroke-width:0.8;"/>
   </g>
   <g id="text_13">
    <!-- DEPSO -->
    <defs>
     <path d="M 19.671875 64.796875 
L 19.671875 8.109375 
L 31.59375 8.109375 
Q 46.6875 8.109375 53.6875 14.9375 
Q 60.6875 21.78125 60.6875 36.53125 
Q 60.6875 51.171875 53.6875 57.984375 
Q 46.6875 64.796875 31.59375 64.796875 
z
M 9.8125 72.90625 
L 30.078125 72.90625 
Q 51.265625 72.90625 61.171875 64.09375 
Q 71.09375 55.28125 71.09375 36.53125 
Q 71.09375 17.671875 61.125 8.828125 
Q 51.171875 0 30.078125 0 
L 9.8125 0 
z
" id="DejaVuSans-68"/>
     <path d="M 9.8125 72.90625 
L 55.90625 72.90625 
L 55.90625 64.59375 
L 19.671875 64.59375 
L 19.671875 43.015625 
L 54.390625 43.015625 
L 54.390625 34.71875 
L 19.671875 34.71875 
L 19.671875 8.296875 
L 56.78125 8.296875 
L 56.78125 0 
L 9.8125 0 
z
" id="DejaVuSans-69"/>
     <path d="M 19.671875 64.796875 
L 19.671875 37.40625 
L 32.078125 37.40625 
Q 38.96875 37.40625 42.71875 40.96875 
Q 46.484375 44.53125 46.484375 51.125 
Q 46.484375 57.671875 42.71875 61.234375 
Q 38.96875 64.796875 32.078125 64.796875 
z
M 9.8125 72.90625 
L 32.078125 72.90625 
Q 44.34375 72.90625 50.609375 67.359375 
Q 56.890625 61.8125 56.890625 51.125 
Q 56.890625 40.328125 50.609375 34.8125 
Q 44.34375 29.296875 32.078125 29.296875 
L 19.671875 29.296875 
L 19.671875 0 
L 9.8125 0 
z
" id="DejaVuSans-80"/>
     <path d="M 53.515625 70.515625 
L 53.515625 60.890625 
Q 47.90625 63.578125 42.921875 64.890625 
Q 37.9375 66.21875 33.296875 66.21875 
Q 25.25 66.21875 20.875 63.09375 
Q 16.5 59.96875 16.5 54.203125 
Q 16.5 49.359375 19.40625 46.890625 
Q 22.3125 44.4375 30.421875 42.921875 
L 36.375 41.703125 
Q 47.40625 39.59375 52.65625 34.296875 
Q 57.90625 29 57.90625 20.125 
Q 57.90625 9.515625 50.796875 4.046875 
Q 43.703125 -1.421875 29.984375 -1.421875 
Q 24.8125 -1.421875 18.96875 -0.25 
Q 13.140625 0.921875 6.890625 3.21875 
L 6.890625 13.375 
Q 12.890625 10.015625 18.65625 8.296875 
Q 24.421875 6.59375 29.984375 6.59375 
Q 38.421875 6.59375 43.015625 9.90625 
Q 47.609375 13.234375 47.609375 19.390625 
Q 47.609375 24.75 44.3125 27.78125 
Q 41.015625 30.8125 33.5 32.328125 
L 27.484375 33.5 
Q 16.453125 35.6875 11.515625 40.375 
Q 6.59375 45.0625 6.59375 53.421875 
Q 6.59375 63.09375 13.40625 68.65625 
Q 20.21875 74.21875 32.171875 74.21875 
Q 37.3125 74.21875 42.625 73.28125 
Q 47.953125 72.359375 53.515625 70.515625 
z
" id="DejaVuSans-83"/>
     <path d="M 39.40625 66.21875 
Q 28.65625 66.21875 22.328125 58.203125 
Q 16.015625 50.203125 16.015625 36.375 
Q 16.015625 22.609375 22.328125 14.59375 
Q 28.65625 6.59375 39.40625 6.59375 
Q 50.140625 6.59375 56.421875 14.59375 
Q 62.703125 22.609375 62.703125 36.375 
Q 62.703125 50.203125 56.421875 58.203125 
Q 50.140625 66.21875 39.40625 66.21875 
z
M 39.40625 74.21875 
Q 54.734375 74.21875 63.90625 63.9375 
Q 73.09375 53.65625 73.09375 36.375 
Q 73.09375 19.140625 63.90625 8.859375 
Q 54.734375 -1.421875 39.40625 -1.421875 
Q 24.03125 -1.421875 14.8125 8.828125 
Q 5.609375 19.09375 5.609375 36.375 
Q 5.609375 53.65625 14.8125 63.9375 
Q 24.03125 74.21875 39.40625 74.21875 
z
" id="DejaVuSans-79"/>
    </defs>
    <g transform="translate(375.22944 298.262739)scale(0.17 -0.17)">
     <use xlink:href="#DejaVuSans-68"/>
     <use x="77.001953" xlink:href="#DejaVuSans-69"/>
     <use x="140.185547" xlink:href="#DejaVuSans-80"/>
     <use x="200.488281" xlink:href="#DejaVuSans-83"/>
     <use x="263.964844" xlink:href="#DejaVuSans-79"/>
    </g>
   </g>
   <g id="text_14">
    <!-- DE -->
    <g transform="translate(375.22944 212.307571)scale(0.17 -0.17)">
     <use xlink:href="#DejaVuSans-68"/>
     <use x="77.001953" xlink:href="#DejaVuSans-69"/>
    </g>
   </g>
   <g id="text_15">
    <!-- PSO -->
    <g transform="translate(375.22944 126.352403)scale(0.17 -0.17)">
     <use xlink:href="#DejaVuSans-80"/>
     <use x="60.302734" xlink:href="#DejaVuSans-83"/>
     <use x="123.779297" xlink:href="#DejaVuSans-79"/>
    </g>
   </g>
   <g id="text_16">
    <!-- best 2009 -->
    <defs>
     <path d="M 48.6875 27.296875 
Q 48.6875 37.203125 44.609375 42.84375 
Q 40.53125 48.484375 33.40625 48.484375 
Q 26.265625 48.484375 22.1875 42.84375 
Q 18.109375 37.203125 18.109375 27.296875 
Q 18.109375 17.390625 22.1875 11.75 
Q 26.265625 6.109375 33.40625 6.109375 
Q 40.53125 6.109375 44.609375 11.75 
Q 48.6875 17.390625 48.6875 27.296875 
z
M 18.109375 46.390625 
Q 20.953125 51.265625 25.265625 53.625 
Q 29.59375 56 35.59375 56 
Q 45.5625 56 51.78125 48.09375 
Q 58.015625 40.1875 58.015625 27.296875 
Q 58.015625 14.40625 51.78125 6.484375 
Q 45.5625 -1.421875 35.59375 -1.421875 
Q 29.59375 -1.421875 25.265625 0.953125 
Q 20.953125 3.328125 18.109375 8.203125 
L 18.109375 0 
L 9.078125 0 
L 9.078125 75.984375 
L 18.109375 75.984375 
z
" id="DejaVuSans-98"/>
     <path d="M 10.984375 1.515625 
L 10.984375 10.5 
Q 14.703125 8.734375 18.5 7.8125 
Q 22.3125 6.890625 25.984375 6.890625 
Q 35.75 6.890625 40.890625 13.453125 
Q 46.046875 20.015625 46.78125 33.40625 
Q 43.953125 29.203125 39.59375 26.953125 
Q 35.25 24.703125 29.984375 24.703125 
Q 19.046875 24.703125 12.671875 31.3125 
Q 6.296875 37.9375 6.296875 49.421875 
Q 6.296875 60.640625 12.9375 67.421875 
Q 19.578125 74.21875 30.609375 74.21875 
Q 43.265625 74.21875 49.921875 64.515625 
Q 56.59375 54.828125 56.59375 36.375 
Q 56.59375 19.140625 48.40625 8.859375 
Q 40.234375 -1.421875 26.421875 -1.421875 
Q 22.703125 -1.421875 18.890625 -0.6875 
Q 15.09375 0.046875 10.984375 1.515625 
z
M 30.609375 32.421875 
Q 37.25 32.421875 41.125 36.953125 
Q 45.015625 41.5 45.015625 49.421875 
Q 45.015625 57.28125 41.125 61.84375 
Q 37.25 66.40625 30.609375 66.40625 
Q 23.96875 66.40625 20.09375 61.84375 
Q 16.21875 57.28125 16.21875 49.421875 
Q 16.21875 41.5 20.09375 36.953125 
Q 23.96875 32.421875 30.609375 32.421875 
z
" id="DejaVuSans-57"/>
    </defs>
    <g transform="translate(375.22944 40.397235)scale(0.17 -0.17)">
     <use xlink:href="#DejaVuSans-98"/>
     <use x="63.476562" xlink:href="#DejaVuSans-101"/>
     <use x="125" xlink:href="#DejaVuSans-115"/>
     <use x="177.099609" xlink:href="#DejaVuSans-116"/>
     <use x="216.308594" xlink:href="#DejaVuSans-32"/>
     <use x="248.095703" xlink:href="#DejaVuSans-50"/>
     <use x="311.71875" xlink:href="#DejaVuSans-48"/>
     <use x="375.341797" xlink:href="#DejaVuSans-48"/>
     <use x="438.964844" xlink:href="#DejaVuSans-57"/>
    </g>
   </g>
   <g id="text_17">
    <!-- bbob f14, 2-D -->
    <g transform="translate(60.41088 38.111366)scale(0.102 -0.102)">
     <use xlink:href="#DejaVuSans-98"/>
     <use x="63.476562" xlink:href="#DejaVuSans-98"/>
     <use x="126.953125" xlink:href="#DejaVuSans-111"/>
     <use x="188.134766" xlink:href="#DejaVuSans-98"/>
     <use x="251.611328" xlink:href="#DejaVuSans-32"/>
     <use x="283.398438" xlink:href="#DejaVuSans-102"/>
     <use x="318.603516" xlink:href="#DejaVuSans-49"/>
     <use x="382.226562" xlink:href="#DejaVuSans-52"/>
     <use x="445.849609" xlink:href="#DejaVuSans-44"/>
     <use x="477.636719" xlink:href="#DejaVuSans-32"/>
     <use x="509.423828" xlink:href="#DejaVuSans-50"/>
     <use x="573.046875" xlink:href="#DejaVuSans-45"/>
     <use x="609.130859" xlink:href="#DejaVuSans-68"/>
    </g>
    <!-- 51 targets: 100..1e-08 -->
    <defs>
     <path d="M 10.796875 72.90625 
L 49.515625 72.90625 
L 49.515625 64.59375 
L 19.828125 64.59375 
L 19.828125 46.734375 
Q 21.96875 47.46875 24.109375 47.828125 
Q 26.265625 48.1875 28.421875 48.1875 
Q 40.625 48.1875 47.75 41.5 
Q 54.890625 34.8125 54.890625 23.390625 
Q 54.890625 11.625 47.5625 5.09375 
Q 40.234375 -1.421875 26.90625 -1.421875 
Q 22.3125 -1.421875 17.546875 -0.640625 
Q 12.796875 0.140625 7.71875 1.703125 
L 7.71875 11.625 
Q 12.109375 9.234375 16.796875 8.0625 
Q 21.484375 6.890625 26.703125 6.890625 
Q 35.15625 6.890625 40.078125 11.328125 
Q 45.015625 15.765625 45.015625 23.390625 
Q 45.015625 31 40.078125 35.4375 
Q 35.15625 39.890625 26.703125 39.890625 
Q 22.75 39.890625 18.8125 39.015625 
Q 14.890625 38.140625 10.796875 36.28125 
z
" id="DejaVuSans-53"/>
     <path d="M 11.71875 12.40625 
L 22.015625 12.40625 
L 22.015625 0 
L 11.71875 0 
z
M 11.71875 51.703125 
L 22.015625 51.703125 
L 22.015625 39.3125 
L 11.71875 39.3125 
z
" id="DejaVuSans-58"/>
    </defs>
    <g transform="translate(60.41088 49.533135)scale(0.102 -0.102)">
     <use xlink:href="#DejaVuSans-53"/>
     <use x="63.623047" xlink:href="#DejaVuSans-49"/>
     <use x="127.246094" xlink:href="#DejaVuSans-32"/>
     <use x="159.033203" xlink:href="#DejaVuSans-116"/>
     <use x="198.242188" xlink:href="#DejaVuSans-97"/>
     <use x="259.521484" xlink:href="#DejaVuSans-114"/>
     <use x="298.884766" xlink:href="#DejaVuSans-103"/>
     <use x="362.361328" xlink:href="#DejaVuSans-101"/>
     <use x="423.884766" xlink:href="#DejaVuSans-116"/>
     <use x="463.09375" xlink:href="#DejaVuSans-115"/>
     <use x="515.193359" xlink:href="#DejaVuSans-58"/>
     <use x="548.884766" xlink:href="#DejaVuSans-32"/>
     <use x="580.671875" xlink:href="#DejaVuSans-49"/>
     <use x="644.294922" xlink:href="#DejaVuSans-48"/>
     <use x="707.917969" xlink:href="#DejaVuSans-48"/>
     <use x="771.541016" xlink:href="#DejaVuSans-46"/>
     <use x="803.328125" xlink:href="#DejaVuSans-46"/>
     <use x="835.115234" xlink:href="#DejaVuSans-49"/>
     <use x="898.738281" xlink:href="#DejaVuSans-101"/>
     <use x="960.261719" xlink:href="#DejaVuSans-45"/>
     <use x="996.345703" xlink:href="#DejaVuSans-48"/>
     <use x="1059.96875" xlink:href="#DejaVuSans-56"/>
    </g>
    <!-- 15 instances -->
    <g transform="translate(60.41088 60.954904)scale(0.102 -0.102)">
     <use xlink:href="#DejaVuSans-49"/>
     <use x="63.623047" xlink:href="#DejaVuSans-53"/>
     <use x="127.246094" xlink:href="#DejaVuSans-32"/>
     <use x="159.033203" xlink:href="#DejaVuSans-105"/>
     <use x="186.816406" xlink:href="#DejaVuSans-110"/>
     <use x="250.195312" xlink:href="#DejaVuSans-115"/>
     <use x="302.294922" xlink:href="#DejaVuSans-116"/>
     <use x="341.503906" xlink:href="#DejaVuSans-97"/>
     <use x="402.783203" xlink:href="#DejaVuSans-110"/>
     <use x="466.162109" xlink:href="#DejaVuSans-99"/>
     <use x="521.142578" xlink:href="#DejaVuSans-101"/>
     <use x="582.666016" xlink:href="#DejaVuSans-115"/>
    </g>
   </g>
   <g id="text_18">
    <!-- v2.4 -->
    <g style="fill:#808080;" transform="translate(187.233062 294.151352)scale(0.1 -0.1)">
     <use xlink:href="#DejaVuSans-118"/>
     <use x="59.179688" xlink:href="#DejaVuSans-50"/>
     <use x="122.802734" xlink:href="#DejaVuSans-46"/>
     <use x="154.589844" xlink:href="#DejaVuSans-52"/>
    </g>
   </g>
   <g id="text_19">
    <!-- 14 Sum of different powers -->
    <defs>
     <path d="M 4.203125 54.6875 
L 13.1875 54.6875 
L 24.421875 12.015625 
L 35.59375 54.6875 
L 46.1875 54.6875 
L 57.421875 12.015625 
L 68.609375 54.6875 
L 77.59375 54.6875 
L 63.28125 0 
L 52.6875 0 
L 40.921875 44.828125 
L 29.109375 0 
L 18.5 0 
z
" id="DejaVuSans-119"/>
    </defs>
    <g transform="translate(61.904937 21.648)scale(0.2 -0.2)">
     <use xlink:href="#DejaVuSans-49"/>
     <use x="63.623047" xlink:href="#DejaVuSans-52"/>
     <use x="127.246094" xlink:href="#DejaVuSans-32"/>
     <use x="159.033203" xlink:href="#DejaVuSans-83"/>
     <use x="222.509766" xlink:href="#DejaVuSans-117"/>
     <use x="285.888672" xlink:href="#DejaVuSans-109"/>
     <use x="383.300781" xlink:href="#DejaVuSans-32"/>
     <use x="415.087891" xlink:href="#DejaVuSans-111"/>
     <use x="476.269531" xlink:href="#DejaVuSans-102"/>
     <use x="511.474609" xlink:href="#DejaVuSans-32"/>
     <use x="543.261719" xlink:href="#DejaVuSans-100"/>
     <use x="606.738281" xlink:href="#DejaVuSans-105"/>
     <use x="634.521484" xlink:href="#DejaVuSans-102"/>
     <use x="669.726562" xlink:href="#DejaVuSans-102"/>
     <use x="704.931641" xlink:href="#DejaVuSans-101"/>
     <use x="766.455078" xlink:href="#DejaVuSans-114"/>
     <use x="805.318359" xlink:href="#DejaVuSans-101"/>
     <use x="866.841797" xlink:href="#DejaVuSans-110"/>
     <use x="930.220703" xlink:href="#DejaVuSans-116"/>
     <use x="969.429688" xlink:href="#DejaVuSans-32"/>
     <use x="1001.216797" xlink:href="#DejaVuSans-112"/>
     <use x="1064.693359" xlink:href="#DejaVuSans-111"/>
     <use x="1125.875" xlink:href="#DejaVuSans-119"/>
     <use x="1207.662109" xlink:href="#DejaVuSans-101"/>
     <use x="1269.185547" xlink:href="#DejaVuSans-114"/>
     <use x="1310.298828" xlink:href="#DejaVuSans-115"/>
    </g>
   </g>
  </g>
 </g>
 <defs>
  <clipPath id="p405c2e0ccd">
   <rect height="271.296" width="281.088" x="57.6" y="27.648"/>
  </clipPath>
 </defs>
</svg>
