<?xml version="1.0" encoding="utf-8" standalone="no"?>
<!DOCTYPE svg PUBLIC "-//W3C//DTD SVG 1.1//EN"
  "http://www.w3.org/Graphics/SVG/1.1/DTD/svg11.dtd">
<!-- Created with matplotlib (https://matplotlib.org/) -->
<svg height="345.6pt" version="1.1" viewBox="0 0 460.8 345.6" width="460.8pt" xmlns="http://www.w3.org/2000/svg" xmlns:xlink="http://www.w3.org/1999/xlink">
 <defs>
  <style type="text/css">
*{stroke-linecap:butt;stroke-linejoin:round;}
  </style>
 </defs>
 <g id="figure_1">
  <g id="patch_1">
   <path d="M 0 345.6 
L 460.8 345.6 
L 460.8 0 
L 0 0 
z
" style="fill:#ffffff;"/>
  </g>
  <g id="axes_1">
   <g id="patch_2">
    <path d="M 57.6 298.944 
L 338.688 298.944 
L 338.688 27.648 
L 57.6 27.648 
z
" style="fill:#ffffff;"/>
   </g>
   <g id="line2d_1">
    <path d="M 29.53256 298.944 
L 29.53256 283.143418 
L 57.6 283.143418 
L 57.6 277.876557 
L 65.796525 277.876557 
L 65.796525 272.609696 
L 71.35013 272.609696 
L 71.35013 267.342835 
L 72.867545 267.342835 
L 72.867545 30.334099 
L 338.688 30.334099 
" style="fill:none;stroke:#f5deb3;stroke-linecap:square;stroke-width:4;"/>
   </g>
   <g id="line2d_2">
    <defs>
     <path d="M -0 7.778175 
L 7.778175 0 
L 0 -7.778175 
L -7.778175 -0 
z
" id="me793ea5dc7" style="stroke:#f5deb3;stroke-linejoin:miter;stroke-width:1.5;"/>
    </defs>
    <g>
     <use style="fill:#f5deb3;stroke:#f5deb3;stroke-linejoin:miter;stroke-width:1.5;" x="71.35013" xlink:href="#me793ea5dc7" y="267.342835"/>
     <use style="fill:#f5deb3;stroke:#f5deb3;stroke-linejoin:miter;stroke-width:1.5;" x="72.867545" xlink:href="#me793ea5dc7" y="267.342835"/>
     <use style="fill:#f5deb3;stroke:#f5deb3;stroke-linejoin:miter;stroke-width:1.5;" x="72.867545" xlink:href="#me793ea5dc7" y="267.342835"/>
     <use style="fill:#f5deb3;stroke:#f5deb3;stroke-linejoin:miter;stroke-width:1.5;" x="72.867545" xlink:href="#me793ea5dc7" y="30.334099"/>
     <use style="fill:#f5deb3;stroke:#f5deb3;stroke-linejoin:miter;stroke-width:1.5;" x="72.867545" xlink:href="#me793ea5dc7" y="30.334099"/>
     <use style="fill:#f5deb3;stroke:#f5deb3;stroke-linejoin:miter;stroke-width:1.5;" x="338.688" xlink:href="#me793ea5dc7" y="30.334099"/>
    </g>
   </g>
   <g id="line2d_3">
    <path style="fill:none;stroke:#f5deb3;stroke-linecap:square;stroke-width:4;"/>
    <g/>
   </g>
   <g id="line2d_4">
    <path d="M 338.688 30.334099 
L 369.60768 35.706297 
" style="fill:none;stroke:#f5deb3;stroke-linecap:square;stroke-width:4;"/>
    <g>
     <use style="fill:#f5deb3;stroke:#f5deb3;stroke-linejoin:miter;stroke-width:1.5;" x="338.688" xlink:href="#me793ea5dc7" y="30.334099"/>
     <use style="fill:#f5deb3;stroke:#f5deb3;stroke-linejoin:miter;stroke-width:1.5;" x="369.60768" xlink:href="#me793ea5dc7" y="35.706297"/>
    </g>
   </g>
   <g id="matplotlib.axis_1">
    <g id="xtick_1">
     <g id="line2d_5">
      <path clip-path="url(#p3425c8f894)" d="M 57.6 298.944 
L 57.6 27.648 
" style="fill:none;stroke:#b0b0b0;stroke-linecap:square;stroke-width:0.8;"/>
     </g>
     <g id="line2d_6">
      <defs>
       <path d="M 0 0 
L 0 3.5 
" id="md3b48c7344" style="stroke:#000000;stroke-width:0.8;"/>
      </defs>
      <g>
       <use style="stroke:#000000;stroke-width:0.8;" x="57.6" xlink:href="#md3b48c7344" y="298.944"/>
      </g>
     </g>
     <g id="text_1">
      <!-- 0 -->
      <defs>
       <path d="M 31.78125 66.40625 
Q 24.171875 66.40625 20.328125 58.90625 
Q 16.5 51.421875 16.5 36.375 
Q 16.5 21.390625 20.328125 13.890625 
Q 24.171875 6.390625 31.78125 6.390625 
Q 39.453125 6.390625 43.28125 13.890625 
Q 47.125 21.390625 47.125 36.375 
Q 47.125 51.421875 43.28125 58.90625 
Q 39.453125 66.40625 31.78125 66.40625 
z
M 31.78125 74.21875 
Q 44.046875 74.21875 50.515625 64.515625 
Q 56.984375 54.828125 56.984375 36.375 
Q 56.984375 17.96875 50.515625 8.265625 
Q 44.046875 -1.421875 31.78125 -1.421875 
Q 19.53125 -1.421875 13.0625 8.265625 
Q 6.59375 17.96875 6.59375 36.375 
Q 6.59375 54.828125 13.0625 64.515625 
Q 19.53125 74.21875 31.78125 74.21875 
z
" id="DejaVuSans-48"/>
      </defs>
      <g transform="translate(51.2375 321.140875)scale(0.2 -0.2)">
       <use xlink:href="#DejaVuSans-48"/>
      </g>
     </g>
    </g>
    <g id="xtick_2">
     <g id="line2d_7">
      <path clip-path="url(#p3425c8f894)" d="M 137.910857 298.944 
L 137.910857 27.648 
" style="fill:none;stroke:#b0b0b0;stroke-linecap:square;stroke-width:0.8;"/>
     </g>
     <g id="line2d_8">
      <g>
       <use style="stroke:#000000;stroke-width:0.8;" x="137.910857" xlink:href="#md3b48c7344" y="298.944"/>
      </g>
     </g>
     <g id="text_2">
      <!-- 2 -->
      <defs>
       <path d="M 19.1875 8.296875 
L 53.609375 8.296875 
L 53.609375 0 
L 7.328125 0 
L 7.328125 8.296875 
Q 12.9375 14.109375 22.625 23.890625 
Q 32.328125 33.6875 34.8125 36.53125 
Q 39.546875 41.84375 41.421875 45.53125 
Q 43.3125 49.21875 43.3125 52.78125 
Q 43.3125 58.59375 39.234375 62.25 
Q 35.15625 65.921875 28.609375 65.921875 
Q 23.96875 65.921875 18.8125 64.3125 
Q 13.671875 62.703125 7.8125 59.421875 
L 7.8125 69.390625 
Q 13.765625 71.78125 18.9375 73 
Q 24.125 74.21875 28.421875 74.21875 
Q 39.75 74.21875 46.484375 68.546875 
Q 53.21875 62.890625 53.21875 53.421875 
Q 53.21875 48.921875 51.53125 44.890625 
Q 49.859375 40.875 45.40625 35.40625 
Q 44.1875 33.984375 37.640625 27.21875 
Q 31.109375 20.453125 19.1875 8.296875 
z
" id="DejaVuSans-50"/>
      </defs>
      <g transform="translate(131.548357 321.140875)scale(0.2 -0.2)">
       <use xlink:href="#DejaVuSans-50"/>
      </g>
     </g>
    </g>
    <g id="xtick_3">
     <g id="line2d_9">
      <path clip-path="url(#p3425c8f894)" d="M 218.221714 298.944 
L 218.221714 27.648 
" style="fill:none;stroke:#b0b0b0;stroke-linecap:square;stroke-width:0.8;"/>
     </g>
     <g id="line2d_10">
      <g>
       <use style="stroke:#000000;stroke-width:0.8;" x="218.221714" xlink:href="#md3b48c7344" y="298.944"/>
      </g>
     </g>
     <g id="text_3">
      <!-- 4 -->
      <defs>
       <path d="M 37.796875 64.3125 
L 12.890625 25.390625 
L 37.796875 25.390625 
z
M 35.203125 72.90625 
L 47.609375 72.90625 
L 47.609375 25.390625 
L 58.015625 25.390625 
L 58.015625 17.1875 
L 47.609375 17.1875 
L 47.609375 0 
L 37.796875 0 
L 37.796875 17.1875 
L 4.890625 17.1875 
L 4.890625 26.703125 
z
" id="DejaVuSans-52"/>
      </defs>
      <g transform="translate(211.859214 321.140875)scale(0.2 -0.2)">
       <use xlink:href="#DejaVuSans-52"/>
      </g>
     </g>
    </g>
    <g id="xtick_4">
     <g id="line2d_11">
      <path clip-path="url(#p3425c8f894)" d="M 298.532571 298.944 
L 298.532571 27.648 
" style="fill:none;stroke:#b0b0b0;stroke-linecap:square;stroke-width:0.8;"/>
     </g>
     <g id="line2d_12">
      <g>
       <use style="stroke:#000000;stroke-width:0.8;" x="298.532571" xlink:href="#md3b48c7344" y="298.944"/>
      </g>
     </g>
     <g id="text_4">
      <!-- 6 -->
      <defs>
       <path d="M 33.015625 40.375 
Q 26.375 40.375 22.484375 35.828125 
Q 18.609375 31.296875 18.609375 23.390625 
Q 18.609375 15.53125 22.484375 10.953125 
Q 26.375 6.390625 33.015625 6.390625 
Q 39.65625 6.390625 43.53125 10.953125 
Q 47.40625 15.53125 47.40625 23.390625 
Q 47.40625 31.296875 43.53125 35.828125 
Q 39.65625 40.375 33.015625 40.375 
z
M 52.59375 71.296875 
L 52.59375 62.3125 
Q 48.875 64.0625 45.09375 64.984375 
Q 41.3125 65.921875 37.59375 65.921875 
Q 27.828125 65.921875 22.671875 59.328125 
Q 17.53125 52.734375 16.796875 39.40625 
Q 19.671875 43.65625 24.015625 45.921875 
Q 28.375 48.1875 33.59375 48.1875 
Q 44.578125 48.1875 50.953125 41.515625 
Q 57.328125 34.859375 57.328125 23.390625 
Q 57.328125 12.15625 50.6875 5.359375 
Q 44.046875 -1.421875 33.015625 -1.421875 
Q 20.359375 -1.421875 13.671875 8.265625 
Q 6.984375 17.96875 6.984375 36.375 
Q 6.984375 53.65625 15.1875 63.9375 
Q 23.390625 74.21875 37.203125 74.21875 
Q 40.921875 74.21875 44.703125 73.484375 
Q 48.484375 72.75 52.59375 71.296875 
z
" id="DejaVuSans-54"/>
      </defs>
      <g transform="translate(292.170071 321.140875)scale(0.2 -0.2)">
       <use xlink:href="#DejaVuSans-54"/>
      </g>
     </g>
    </g>
    <g id="xtick_5">
     <g id="line2d_13">
      <path clip-path="url(#p3425c8f894)" d="M 97.755429 298.944 
L 97.755429 27.648 
" style="fill:none;stroke:#b0b0b0;stroke-linecap:square;stroke-width:0.8;"/>
     </g>
     <g id="line2d_14">
      <defs>
       <path d="M 0 0 
L 0 2 
" id="mb1e7557e96" style="stroke:#000000;stroke-width:0.6;"/>
      </defs>
      <g>
       <use style="stroke:#000000;stroke-width:0.6;" x="97.755429" xlink:href="#mb1e7557e96" y="298.944"/>
      </g>
     </g>
    </g>
    <g id="xtick_6">
     <g id="line2d_15">
      <path clip-path="url(#p3425c8f894)" d="M 178.066286 298.944 
L 178.066286 27.648 
" style="fill:none;stroke:#b0b0b0;stroke-linecap:square;stroke-width:0.8;"/>
     </g>
     <g id="line2d_16">
      <g>
       <use style="stroke:#000000;stroke-width:0.6;" x="178.066286" xlink:href="#mb1e7557e96" y="298.944"/>
      </g>
     </g>
    </g>
    <g id="xtick_7">
     <g id="line2d_17">
      <path clip-path="url(#p3425c8f894)" d="M 258.377143 298.944 
L 258.377143 27.648 
" style="fill:none;stroke:#b0b0b0;stroke-linecap:square;stroke-width:0.8;"/>
     </g>
     <g id="line2d_18">
      <g>
       <use style="stroke:#000000;stroke-width:0.6;" x="258.377143" xlink:href="#mb1e7557e96" y="298.944"/>
      </g>
     </g>
    </g>
    <g id="xtick_8">
     <g id="line2d_19">
      <path clip-path="url(#p3425c8f894)" d="M 338.688 298.944 
L 338.688 27.648 
" style="fill:none;stroke:#b0b0b0;stroke-linecap:square;stroke-width:0.8;"/>
     </g>
     <g id="line2d_20">
      <g>
       <use style="stroke:#000000;stroke-width:0.6;" x="338.688" xlink:href="#mb1e7557e96" y="298.944"/>
      </g>
     </g>
    </g>
    <g id="text_5">
     <!-- log10(# f-evals / dimension) -->
     <defs>
      <path d="M 9.421875 75.984375 
L 18.40625 75.984375 
L 18.40625 0 
L 9.421875 0 
z
" id="DejaVuSans-108"/>
      <path d="M 30.609375 48.390625 
Q 23.390625 48.390625 19.1875 42.75 
Q 14.984375 37.109375 14.984375 27.296875 
Q 14.984375 17.484375 19.15625 11.84375 
Q 23.34375 6.203125 30.609375 6.203125 
Q 37.796875 6.203125 41.984375 11.859375 
Q 46.1875 17.53125 46.1875 27.296875 
Q 46.1875 37.015625 41.984375 42.703125 
Q 37.796875 48.390625 30.609375 48.390625 
z
M 30.609375 56 
Q 42.328125 56 49.015625 48.375 
Q 55.71875 40.765625 55.71875 27.296875 
Q 55.71875 13.875 49.015625 6.21875 
Q 42.328125 -1.421875 30.609375 -1.421875 
Q 18.84375 -1.421875 12.171875 6.21875 
Q 5.515625 13.875 5.515625 27.296875 
Q 5.515625 40.765625 12.171875 48.375 
Q 18.84375 56 30.609375 56 
z
" id="DejaVuSans-111"/>
      <path d="M 45.40625 27.984375 
Q 45.40625 37.75 41.375 43.109375 
Q 37.359375 48.484375 30.078125 48.484375 
Q 22.859375 48.484375 18.828125 43.109375 
Q 14.796875 37.75 14.796875 27.984375 
Q 14.796875 18.265625 18.828125 12.890625 
Q 22.859375 7.515625 30.078125 7.515625 
Q 37.359375 7.515625 41.375 12.890625 
Q 45.40625 18.265625 45.40625 27.984375 
z
M 54.390625 6.78125 
Q 54.390625 -7.171875 48.1875 -13.984375 
Q 42 -20.796875 29.203125 -20.796875 
Q 24.46875 -20.796875 20.265625 -20.09375 
Q 16.0625 -19.390625 12.109375 -17.921875 
L 12.109375 -9.1875 
Q 16.0625 -11.328125 19.921875 -12.34375 
Q 23.78125 -13.375 27.78125 -13.375 
Q 36.625 -13.375 41.015625 -8.765625 
Q 45.40625 -4.15625 45.40625 5.171875 
L 45.40625 9.625 
Q 42.625 4.78125 38.28125 2.390625 
Q 33.9375 0 27.875 0 
Q 17.828125 0 11.671875 7.65625 
Q 5.515625 15.328125 5.515625 27.984375 
Q 5.515625 40.671875 11.671875 48.328125 
Q 17.828125 56 27.875 56 
Q 33.9375 56 38.28125 53.609375 
Q 42.625 51.21875 45.40625 46.390625 
L 45.40625 54.6875 
L 54.390625 54.6875 
z
" id="DejaVuSans-103"/>
      <path d="M 12.40625 8.296875 
L 28.515625 8.296875 
L 28.515625 63.921875 
L 10.984375 60.40625 
L 10.984375 69.390625 
L 28.421875 72.90625 
L 38.28125 72.90625 
L 38.28125 8.296875 
L 54.390625 8.296875 
L 54.390625 0 
L 12.40625 0 
z
" id="DejaVuSans-49"/>
      <path d="M 31 75.875 
Q 24.46875 64.65625 21.28125 53.65625 
Q 18.109375 42.671875 18.109375 31.390625 
Q 18.109375 20.125 21.3125 9.0625 
Q 24.515625 -2 31 -13.1875 
L 23.1875 -13.1875 
Q 15.875 -1.703125 12.234375 9.375 
Q 8.59375 20.453125 8.59375 31.390625 
Q 8.59375 42.28125 12.203125 53.3125 
Q 15.828125 64.359375 23.1875 75.875 
z
" id="DejaVuSans-40"/>
      <path d="M 51.125 44 
L 36.921875 44 
L 32.8125 27.6875 
L 47.125 27.6875 
z
M 43.796875 71.78125 
L 38.71875 51.515625 
L 52.984375 51.515625 
L 58.109375 71.78125 
L 65.921875 71.78125 
L 60.890625 51.515625 
L 76.125 51.515625 
L 76.125 44 
L 58.984375 44 
L 54.984375 27.6875 
L 70.515625 27.6875 
L 70.515625 20.21875 
L 53.078125 20.21875 
L 48 0 
L 40.1875 0 
L 45.21875 20.21875 
L 30.90625 20.21875 
L 25.875 0 
L 18.015625 0 
L 23.09375 20.21875 
L 7.71875 20.21875 
L 7.71875 27.6875 
L 24.90625 27.6875 
L 29 44 
L 13.28125 44 
L 13.28125 51.515625 
L 30.90625 51.515625 
L 35.890625 71.78125 
z
" id="DejaVuSans-35"/>
      <path id="DejaVuSans-32"/>
      <path d="M 37.109375 75.984375 
L 37.109375 68.5 
L 28.515625 68.5 
Q 23.6875 68.5 21.796875 66.546875 
Q 19.921875 64.59375 19.921875 59.515625 
L 19.921875 54.6875 
L 34.71875 54.6875 
L 34.71875 47.703125 
L 19.921875 47.703125 
L 19.921875 0 
L 10.890625 0 
L 10.890625 47.703125 
L 2.296875 47.703125 
L 2.296875 54.6875 
L 10.890625 54.6875 
L 10.890625 58.5 
Q 10.890625 67.625 15.140625 71.796875 
Q 19.390625 75.984375 28.609375 75.984375 
z
" id="DejaVuSans-102"/>
      <path d="M 4.890625 31.390625 
L 31.203125 31.390625 
L 31.203125 23.390625 
L 4.890625 23.390625 
z
" id="DejaVuSans-45"/>
      <path d="M 56.203125 29.59375 
L 56.203125 25.203125 
L 14.890625 25.203125 
Q 15.484375 15.921875 20.484375 11.0625 
Q 25.484375 6.203125 34.421875 6.203125 
Q 39.59375 6.203125 44.453125 7.46875 
Q 49.3125 8.734375 54.109375 11.28125 
L 54.109375 2.78125 
Q 49.265625 0.734375 44.1875 -0.34375 
Q 39.109375 -1.421875 33.890625 -1.421875 
Q 20.796875 -1.421875 13.15625 6.1875 
Q 5.515625 13.8125 5.515625 26.8125 
Q 5.515625 40.234375 12.765625 48.109375 
Q 20.015625 56 32.328125 56 
Q 43.359375 56 49.78125 48.890625 
Q 56.203125 41.796875 56.203125 29.59375 
z
M 47.21875 32.234375 
Q 47.125 39.59375 43.09375 43.984375 
Q 39.0625 48.390625 32.421875 48.390625 
Q 24.90625 48.390625 20.390625 44.140625 
Q 15.875 39.890625 15.1875 32.171875 
z
" id="DejaVuSans-101"/>
      <path d="M 2.984375 54.6875 
L 12.5 54.6875 
L 29.59375 8.796875 
L 46.6875 54.6875 
L 56.203125 54.6875 
L 35.6875 0 
L 23.484375 0 
z
" id="DejaVuSans-118"/>
      <path d="M 34.28125 27.484375 
Q 23.390625 27.484375 19.1875 25 
Q 14.984375 22.515625 14.984375 16.5 
Q 14.984375 11.71875 18.140625 8.90625 
Q 21.296875 6.109375 26.703125 6.109375 
Q 34.1875 6.109375 38.703125 11.40625 
Q 43.21875 16.703125 43.21875 25.484375 
L 43.21875 27.484375 
z
M 52.203125 31.203125 
L 52.203125 0 
L 43.21875 0 
L 43.21875 8.296875 
Q 40.140625 3.328125 35.546875 0.953125 
Q 30.953125 -1.421875 24.3125 -1.421875 
Q 15.921875 -1.421875 10.953125 3.296875 
Q 6 8.015625 6 15.921875 
Q 6 25.140625 12.171875 29.828125 
Q 18.359375 34.515625 30.609375 34.515625 
L 43.21875 34.515625 
L 43.21875 35.40625 
Q 43.21875 41.609375 39.140625 45 
Q 35.0625 48.390625 27.6875 48.390625 
Q 23 48.390625 18.546875 47.265625 
Q 14.109375 46.140625 10.015625 43.890625 
L 10.015625 52.203125 
Q 14.9375 54.109375 19.578125 55.046875 
Q 24.21875 56 28.609375 56 
Q 40.484375 56 46.34375 49.84375 
Q 52.203125 43.703125 52.203125 31.203125 
z
" id="DejaVuSans-97"/>
      <path d="M 44.28125 53.078125 
L 44.28125 44.578125 
Q 40.484375 46.53125 36.375 47.5 
Q 32.28125 48.484375 27.875 48.484375 
Q 21.1875 48.484375 17.84375 46.4375 
Q 14.5 44.390625 14.5 40.28125 
Q 14.5 37.15625 16.890625 35.375 
Q 19.28125 33.59375 26.515625 31.984375 
L 29.59375 31.296875 
Q 39.15625 29.25 43.1875 25.515625 
Q 47.21875 21.78125 47.21875 15.09375 
Q 47.21875 7.46875 41.1875 3.015625 
Q 35.15625 -1.421875 24.609375 -1.421875 
Q 20.21875 -1.421875 15.453125 -0.5625 
Q 10.6875 0.296875 5.421875 2 
L 5.421875 11.28125 
Q 10.40625 8.6875 15.234375 7.390625 
Q 20.0625 6.109375 24.8125 6.109375 
Q 31.15625 6.109375 34.5625 8.28125 
Q 37.984375 10.453125 37.984375 14.40625 
Q 37.984375 18.0625 35.515625 20.015625 
Q 33.0625 21.96875 24.703125 23.78125 
L 21.578125 24.515625 
Q 13.234375 26.265625 9.515625 29.90625 
Q 5.8125 33.546875 5.8125 39.890625 
Q 5.8125 47.609375 11.28125 51.796875 
Q 16.75 56 26.8125 56 
Q 31.78125 56 36.171875 55.265625 
Q 40.578125 54.546875 44.28125 53.078125 
z
" id="DejaVuSans-115"/>
      <path d="M 25.390625 72.90625 
L 33.6875 72.90625 
L 8.296875 -9.28125 
L 0 -9.28125 
z
" id="DejaVuSans-47"/>
      <path d="M 45.40625 46.390625 
L 45.40625 75.984375 
L 54.390625 75.984375 
L 54.390625 0 
L 45.40625 0 
L 45.40625 8.203125 
Q 42.578125 3.328125 38.25 0.953125 
Q 33.9375 -1.421875 27.875 -1.421875 
Q 17.96875 -1.421875 11.734375 6.484375 
Q 5.515625 14.40625 5.515625 27.296875 
Q 5.515625 40.1875 11.734375 48.09375 
Q 17.96875 56 27.875 56 
Q 33.9375 56 38.25 53.625 
Q 42.578125 51.265625 45.40625 46.390625 
z
M 14.796875 27.296875 
Q 14.796875 17.390625 18.875 11.75 
Q 22.953125 6.109375 30.078125 6.109375 
Q 37.203125 6.109375 41.296875 11.75 
Q 45.40625 17.390625 45.40625 27.296875 
Q 45.40625 37.203125 41.296875 42.84375 
Q 37.203125 48.484375 30.078125 48.484375 
Q 22.953125 48.484375 18.875 42.84375 
Q 14.796875 37.203125 14.796875 27.296875 
z
" id="DejaVuSans-100"/>
      <path d="M 9.421875 54.6875 
L 18.40625 54.6875 
L 18.40625 0 
L 9.421875 0 
z
M 9.421875 75.984375 
L 18.40625 75.984375 
L 18.40625 64.59375 
L 9.421875 64.59375 
z
" id="DejaVuSans-105"/>
      <path d="M 52 44.1875 
Q 55.375 50.25 60.0625 53.125 
Q 64.75 56 71.09375 56 
Q 79.640625 56 84.28125 50.015625 
Q 88.921875 44.046875 88.921875 33.015625 
L 88.921875 0 
L 79.890625 0 
L 79.890625 32.71875 
Q 79.890625 40.578125 77.09375 44.375 
Q 74.3125 48.1875 68.609375 48.1875 
Q 61.625 48.1875 57.5625 43.546875 
Q 53.515625 38.921875 53.515625 30.90625 
L 53.515625 0 
L 44.484375 0 
L 44.484375 32.71875 
Q 44.484375 40.625 41.703125 44.40625 
Q 38.921875 48.1875 33.109375 48.1875 
Q 26.21875 48.1875 22.15625 43.53125 
Q 18.109375 38.875 18.109375 30.90625 
L 18.109375 0 
L 9.078125 0 
L 9.078125 54.6875 
L 18.109375 54.6875 
L 18.109375 46.1875 
Q 21.1875 51.21875 25.484375 53.609375 
Q 29.78125 56 35.6875 56 
Q 41.65625 56 45.828125 52.96875 
Q 50 49.953125 52 44.1875 
z
" id="DejaVuSans-109"/>
      <path d="M 54.890625 33.015625 
L 54.890625 0 
L 45.90625 0 
L 45.90625 32.71875 
Q 45.90625 40.484375 42.875 44.328125 
Q 39.84375 48.1875 33.796875 48.1875 
Q 26.515625 48.1875 22.3125 43.546875 
Q 18.109375 38.921875 18.109375 30.90625 
L 18.109375 0 
L 9.078125 0 
L 9.078125 54.6875 
L 18.109375 54.6875 
L 18.109375 46.1875 
Q 21.34375 51.125 25.703125 53.5625 
Q 30.078125 56 35.796875 56 
Q 45.21875 56 50.046875 50.171875 
Q 54.890625 44.34375 54.890625 33.015625 
z
" id="DejaVuSans-110"/>
      <path d="M 8.015625 75.875 
L 15.828125 75.875 
Q 23.140625 64.359375 26.78125 53.3125 
Q 30.421875 42.28125 30.421875 31.390625 
Q 30.421875 20.453125 26.78125 9.375 
Q 23.140625 -1.703125 15.828125 -13.1875 
L 8.015625 -13.1875 
Q 14.5 -2 17.703125 9.0625 
Q 20.90625 20.125 20.90625 31.390625 
Q 20.90625 42.671875 17.703125 53.65625 
Q 14.5 64.65625 8.015625 75.875 
z
" id="DejaVuSans-41"/>
     </defs>
     <g transform="translate(77.764078 342.217594)scale(0.17 -0.17)">
      <use xlink:href="#DejaVuSans-108"/>
      <use x="27.783203" xlink:href="#DejaVuSans-111"/>
      <use x="88.964844" xlink:href="#DejaVuSans-103"/>
      <use x="152.441406" xlink:href="#DejaVuSans-49"/>
      <use x="216.064453" xlink:href="#DejaVuSans-48"/>
      <use x="279.6875" xlink:href="#DejaVuSans-40"/>
      <use x="318.701172" xlink:href="#DejaVuSans-35"/>
      <use x="402.490234" xlink:href="#DejaVuSans-32"/>
      <use x="434.277344" xlink:href="#DejaVuSans-102"/>
      <use x="463.982422" xlink:href="#DejaVuSans-45"/>
      <use x="500.066406" xlink:href="#DejaVuSans-101"/>
      <use x="561.589844" xlink:href="#DejaVuSans-118"/>
      <use x="620.769531" xlink:href="#DejaVuSans-97"/>
      <use x="682.048828" xlink:href="#DejaVuSans-108"/>
      <use x="709.832031" xlink:href="#DejaVuSans-115"/>
      <use x="761.931641" xlink:href="#DejaVuSans-32"/>
      <use x="793.71875" xlink:href="#DejaVuSans-47"/>
      <use x="827.410156" xlink:href="#DejaVuSans-32"/>
      <use x="859.197266" xlink:href="#DejaVuSans-100"/>
      <use x="922.673828" xlink:href="#DejaVuSans-105"/>
      <use x="950.457031" xlink:href="#DejaVuSans-109"/>
      <use x="1047.869141" xlink:href="#DejaVuSans-101"/>
      <use x="1109.392578" xlink:href="#DejaVuSans-110"/>
      <use x="1172.771484" xlink:href="#DejaVuSans-115"/>
      <use x="1224.871094" xlink:href="#DejaVuSans-105"/>
      <use x="1252.654297" xlink:href="#DejaVuSans-111"/>
      <use x="1313.835938" xlink:href="#DejaVuSans-110"/>
      <use x="1377.214844" xlink:href="#DejaVuSans-41"/>
     </g>
    </g>
   </g>
   <g id="matplotlib.axis_2">
    <g id="ytick_1">
     <g id="line2d_21">
      <path clip-path="url(#p3425c8f894)" d="M 57.6 298.944 
L 338.688 298.944 
" style="fill:none;stroke:#b0b0b0;stroke-linecap:square;stroke-width:0.8;"/>
     </g>
     <g id="line2d_22">
      <defs>
       <path d="M 0 0 
L -3.5 0 
" id="mb861df0e97" style="stroke:#000000;stroke-width:0.8;"/>
      </defs>
      <g>
       <use style="stroke:#000000;stroke-width:0.8;" x="57.6" xlink:href="#mb861df0e97" y="298.944"/>
      </g>
     </g>
     <g id="text_6">
      <!-- 0.0 -->
      <defs>
       <path d="M 10.6875 12.40625 
L 21 12.40625 
L 21 0 
L 10.6875 0 
z
" id="DejaVuSans-46"/>
      </defs>
      <g transform="translate(25.155 305.02275)scale(0.16 -0.16)">
       <use xlink:href="#DejaVuSans-48"/>
       <use x="63.623047" xlink:href="#DejaVuSans-46"/>
       <use x="95.410156" xlink:href="#DejaVuSans-48"/>
      </g>
     </g>
    </g>
    <g id="ytick_2">
     <g id="line2d_23">
      <path clip-path="url(#p3425c8f894)" d="M 57.6 245.22202 
L 338.688 245.22202 
" style="fill:none;stroke:#b0b0b0;stroke-linecap:square;stroke-width:0.8;"/>
     </g>
     <g id="line2d_24">
      <g>
       <use style="stroke:#000000;stroke-width:0.8;" x="57.6" xlink:href="#mb861df0e97" y="245.22202"/>
      </g>
     </g>
     <g id="text_7">
      <!-- 0.2 -->
      <g transform="translate(25.155 251.30077)scale(0.16 -0.16)">
       <use xlink:href="#DejaVuSans-48"/>
       <use x="63.623047" xlink:href="#DejaVuSans-46"/>
       <use x="95.410156" xlink:href="#DejaVuSans-50"/>
      </g>
     </g>
    </g>
    <g id="ytick_3">
     <g id="line2d_25">
      <path clip-path="url(#p3425c8f894)" d="M 57.6 191.50004 
L 338.688 191.50004 
" style="fill:none;stroke:#b0b0b0;stroke-linecap:square;stroke-width:0.8;"/>
     </g>
     <g id="line2d_26">
      <g>
       <use style="stroke:#000000;stroke-width:0.8;" x="57.6" xlink:href="#mb861df0e97" y="191.50004"/>
      </g>
     </g>
     <g id="text_8">
      <!-- 0.4 -->
      <g transform="translate(25.155 197.57879)scale(0.16 -0.16)">
       <use xlink:href="#DejaVuSans-48"/>
       <use x="63.623047" xlink:href="#DejaVuSans-46"/>
       <use x="95.410156" xlink:href="#DejaVuSans-52"/>
      </g>
     </g>
    </g>
    <g id="ytick_4">
     <g id="line2d_27">
      <path clip-path="url(#p3425c8f894)" d="M 57.6 137.778059 
L 338.688 137.778059 
" style="fill:none;stroke:#b0b0b0;stroke-linecap:square;stroke-width:0.8;"/>
     </g>
     <g id="line2d_28">
      <g>
       <use style="stroke:#000000;stroke-width:0.8;" x="57.6" xlink:href="#mb861df0e97" y="137.778059"/>
      </g>
     </g>
     <g id="text_9">
      <!-- 0.6 -->
      <g transform="translate(25.155 143.856809)scale(0.16 -0.16)">
       <use xlink:href="#DejaVuSans-48"/>
       <use x="63.623047" xlink:href="#DejaVuSans-46"/>
       <use x="95.410156" xlink:href="#DejaVuSans-54"/>
      </g>
     </g>
    </g>
    <g id="ytick_5">
     <g id="line2d_29">
      <path clip-path="url(#p3425c8f894)" d="M 57.6 84.056079 
L 338.688 84.056079 
" style="fill:none;stroke:#b0b0b0;stroke-linecap:square;stroke-width:0.8;"/>
     </g>
     <g id="line2d_30">
      <g>
       <use style="stroke:#000000;stroke-width:0.8;" x="57.6" xlink:href="#mb861df0e97" y="84.056079"/>
      </g>
     </g>
     <g id="text_10">
      <!-- 0.8 -->
      <defs>
       <path d="M 31.78125 34.625 
Q 24.75 34.625 20.71875 30.859375 
Q 16.703125 27.09375 16.703125 20.515625 
Q 16.703125 13.921875 20.71875 10.15625 
Q 24.75 6.390625 31.78125 6.390625 
Q 38.8125 6.390625 42.859375 10.171875 
Q 46.921875 13.96875 46.921875 20.515625 
Q 46.921875 27.09375 42.890625 30.859375 
Q 38.875 34.625 31.78125 34.625 
z
M 21.921875 38.8125 
Q 15.578125 40.375 12.03125 44.71875 
Q 8.5 49.078125 8.5 55.328125 
Q 8.5 64.0625 14.71875 69.140625 
Q 20.953125 74.21875 31.78125 74.21875 
Q 42.671875 74.21875 48.875 69.140625 
Q 55.078125 64.0625 55.078125 55.328125 
Q 55.078125 49.078125 51.53125 44.71875 
Q 48 40.375 41.703125 38.8125 
Q 48.828125 37.15625 52.796875 32.3125 
Q 56.78125 27.484375 56.78125 20.515625 
Q 56.78125 9.90625 50.3125 4.234375 
Q 43.84375 -1.421875 31.78125 -1.421875 
Q 19.734375 -1.421875 13.25 4.234375 
Q 6.78125 9.90625 6.78125 20.515625 
Q 6.78125 27.484375 10.78125 32.3125 
Q 14.796875 37.15625 21.921875 38.8125 
z
M 18.3125 54.390625 
Q 18.3125 48.734375 21.84375 45.5625 
Q 25.390625 42.390625 31.78125 42.390625 
Q 38.140625 42.390625 41.71875 45.5625 
Q 45.3125 48.734375 45.3125 54.390625 
Q 45.3125 60.0625 41.71875 63.234375 
Q 38.140625 66.40625 31.78125 66.40625 
Q 25.390625 66.40625 21.84375 63.234375 
Q 18.3125 60.0625 18.3125 54.390625 
z
" id="DejaVuSans-56"/>
      </defs>
      <g transform="translate(25.155 90.134829)scale(0.16 -0.16)">
       <use xlink:href="#DejaVuSans-48"/>
       <use x="63.623047" xlink:href="#DejaVuSans-46"/>
       <use x="95.410156" xlink:href="#DejaVuSans-56"/>
      </g>
     </g>
    </g>
    <g id="ytick_6">
     <g id="line2d_31">
      <path clip-path="url(#p3425c8f894)" d="M 57.6 30.334099 
L 338.688 30.334099 
" style="fill:none;stroke:#b0b0b0;stroke-linecap:square;stroke-width:0.8;"/>
     </g>
     <g id="line2d_32">
      <g>
       <use style="stroke:#000000;stroke-width:0.8;" x="57.6" xlink:href="#mb861df0e97" y="30.334099"/>
      </g>
     </g>
     <g id="text_11">
      <!-- 1.0 -->
      <g transform="translate(25.155 36.412849)scale(0.16 -0.16)">
       <use xlink:href="#DejaVuSans-49"/>
       <use x="63.623047" xlink:href="#DejaVuSans-46"/>
       <use x="95.410156" xlink:href="#DejaVuSans-48"/>
      </g>
     </g>
    </g>
    <g id="text_12">
     <!-- Fraction of function,target pairs -->
     <defs>
      <path d="M 9.8125 72.90625 
L 51.703125 72.90625 
L 51.703125 64.59375 
L 19.671875 64.59375 
L 19.671875 43.109375 
L 48.578125 43.109375 
L 48.578125 34.8125 
L 19.671875 34.8125 
L 19.671875 0 
L 9.8125 0 
z
" id="DejaVuSans-70"/>
      <path d="M 41.109375 46.296875 
Q 39.59375 47.171875 37.8125 47.578125 
Q 36.03125 48 33.890625 48 
Q 26.265625 48 22.1875 43.046875 
Q 18.109375 38.09375 18.109375 28.8125 
L 18.109375 0 
L 9.078125 0 
L 9.078125 54.6875 
L 18.109375 54.6875 
L 18.109375 46.1875 
Q 20.953125 51.171875 25.484375 53.578125 
Q 30.03125 56 36.53125 56 
Q 37.453125 56 38.578125 55.875 
Q 39.703125 55.765625 41.0625 55.515625 
z
" id="DejaVuSans-114"/>
      <path d="M 48.78125 52.59375 
L 48.78125 44.1875 
Q 44.96875 46.296875 41.140625 47.34375 
Q 37.3125 48.390625 33.40625 48.390625 
Q 24.65625 48.390625 19.8125 42.84375 
Q 14.984375 37.3125 14.984375 27.296875 
Q 14.984375 17.28125 19.8125 11.734375 
Q 24.65625 6.203125 33.40625 6.203125 
Q 37.3125 6.203125 41.140625 7.25 
Q 44.96875 8.296875 48.78125 10.40625 
L 48.78125 2.09375 
Q 45.015625 0.34375 40.984375 -0.53125 
Q 36.96875 -1.421875 32.421875 -1.421875 
Q 20.0625 -1.421875 12.78125 6.34375 
Q 5.515625 14.109375 5.515625 27.296875 
Q 5.515625 40.671875 12.859375 48.328125 
Q 20.21875 56 33.015625 56 
Q 37.15625 56 41.109375 55.140625 
Q 45.0625 54.296875 48.78125 52.59375 
z
" id="DejaVuSans-99"/>
      <path d="M 18.3125 70.21875 
L 18.3125 54.6875 
L 36.8125 54.6875 
L 36.8125 47.703125 
L 18.3125 47.703125 
L 18.3125 18.015625 
Q 18.3125 11.328125 20.140625 9.421875 
Q 21.96875 7.515625 27.59375 7.515625 
L 36.8125 7.515625 
L 36.8125 0 
L 27.59375 0 
Q 17.1875 0 13.234375 3.875 
Q 9.28125 7.765625 9.28125 18.015625 
L 9.28125 47.703125 
L 2.6875 47.703125 
L 2.6875 54.6875 
L 9.28125 54.6875 
L 9.28125 70.21875 
z
" id="DejaVuSans-116"/>
      <path d="M 8.5 21.578125 
L 8.5 54.6875 
L 17.484375 54.6875 
L 17.484375 21.921875 
Q 17.484375 14.15625 20.5 10.265625 
Q 23.53125 6.390625 29.59375 6.390625 
Q 36.859375 6.390625 41.078125 11.03125 
Q 45.3125 15.671875 45.3125 23.6875 
L 45.3125 54.6875 
L 54.296875 54.6875 
L 54.296875 0 
L 45.3125 0 
L 45.3125 8.40625 
Q 42.046875 3.421875 37.71875 1 
Q 33.40625 -1.421875 27.6875 -1.421875 
Q 18.265625 -1.421875 13.375 4.4375 
Q 8.5 10.296875 8.5 21.578125 
z
M 31.109375 56 
z
" id="DejaVuSans-117"/>
      <path d="M 11.71875 12.40625 
L 22.015625 12.40625 
L 22.015625 4 
L 14.015625 -11.625 
L 7.71875 -11.625 
L 11.71875 4 
z
" id="DejaVuSans-44"/>
      <path d="M 18.109375 8.203125 
L 18.109375 -20.796875 
L 9.078125 -20.796875 
L 9.078125 54.6875 
L 18.109375 54.6875 
L 18.109375 46.390625 
Q 20.953125 51.265625 25.265625 53.625 
Q 29.59375 56 35.59375 56 
Q 45.5625 56 51.78125 48.09375 
Q 58.015625 40.1875 58.015625 27.296875 
Q 58.015625 14.40625 51.78125 6.484375 
Q 45.5625 -1.421875 35.59375 -1.421875 
Q 29.59375 -1.421875 25.265625 0.953125 
Q 20.953125 3.328125 18.109375 8.203125 
z
M 48.6875 27.296875 
Q 48.6875 37.203125 44.609375 42.84375 
Q 40.53125 48.484375 33.40625 48.484375 
Q 26.265625 48.484375 22.1875 42.84375 
Q 18.109375 37.203125 18.109375 27.296875 
Q 18.109375 17.390625 22.1875 11.75 
Q 26.265625 6.109375 33.40625 6.109375 
Q 40.53125 6.109375 44.609375 11.75 
Q 48.6875 17.390625 48.6875 27.296875 
z
" id="DejaVuSans-112"/>
     </defs>
     <g transform="translate(17.619531 297.681)rotate(-90)scale(0.17 -0.17)">
      <use xlink:href="#DejaVuSans-70"/>
      <use x="50.269531" xlink:href="#DejaVuSans-114"/>
      <use x="91.382812" xlink:href="#DejaVuSans-97"/>
      <use x="152.662109" xlink:href="#DejaVuSans-99"/>
      <use x="207.642578" xlink:href="#DejaVuSans-116"/>
      <use x="246.851562" xlink:href="#DejaVuSans-105"/>
      <use x="274.634766" xlink:href="#DejaVuSans-111"/>
      <use x="335.816406" xlink:href="#DejaVuSans-110"/>
      <use x="399.195312" xlink:href="#DejaVuSans-32"/>
      <use x="430.982422" xlink:href="#DejaVuSans-111"/>
      <use x="492.164062" xlink:href="#DejaVuSans-102"/>
      <use x="527.369141" xlink:href="#DejaVuSans-32"/>
      <use x="559.15625" xlink:href="#DejaVuSans-102"/>
      <use x="594.361328" xlink:href="#DejaVuSans-117"/>
      <use x="657.740234" xlink:href="#DejaVuSans-110"/>
      <use x="721.119141" xlink:href="#DejaVuSans-99"/>
      <use x="776.099609" xlink:href="#DejaVuSans-116"/>
      <use x="815.308594" xlink:href="#DejaVuSans-105"/>
      <use x="843.091797" xlink:href="#DejaVuSans-111"/>
      <use x="904.273438" xlink:href="#DejaVuSans-110"/>
      <use x="967.652344" xlink:href="#DejaVuSans-44"/>
      <use x="999.439453" xlink:href="#DejaVuSans-116"/>
      <use x="1038.648438" xlink:href="#DejaVuSans-97"/>
      <use x="1099.927734" xlink:href="#DejaVuSans-114"/>
      <use x="1139.291016" xlink:href="#DejaVuSans-103"/>
      <use x="1202.767578" xlink:href="#DejaVuSans-101"/>
      <use x="1264.291016" xlink:href="#DejaVuSans-116"/>
      <use x="1303.5" xlink:href="#DejaVuSans-32"/>
      <use x="1335.287109" xlink:href="#DejaVuSans-112"/>
      <use x="1398.763672" xlink:href="#DejaVuSans-97"/>
      <use x="1460.042969" xlink:href="#DejaVuSans-105"/>
      <use x="1487.826172" xlink:href="#DejaVuSans-114"/>
      <use x="1528.939453" xlink:href="#DejaVuSans-115"/>
     </g>
    </g>
   </g>
   <g id="line2d_33">
    <defs>
     <path d="M 0 1.5 
C 0.397805 1.5 0.77937 1.341951 1.06066 1.06066 
C 1.341951 0.77937 1.5 0.397805 1.5 0 
C 1.5 -0.397805 1.341951 -0.77937 1.06066 -1.06066 
C 0.77937 -1.341951 0.397805 -1.5 0 -1.5 
C -0.397805 -1.5 -0.77937 -1.341951 -1.06066 -1.06066 
C -1.341951 -0.77937 -1.5 -0.397805 -1.5 0 
C -1.5 0.397805 -1.341951 0.77937 -1.06066 1.06066 
C -0.77937 1.341951 -0.397805 1.5 0 1.5 
z
" id="mc6477c0db7" style="stroke:#f5deb3;"/>
    </defs>
    <g>
     <use style="fill:#f5deb3;stroke:#f5deb3;" x="72.867545" xlink:href="#mc6477c0db7" y="30.334099"/>
     <use style="fill:#f5deb3;stroke:#f5deb3;" x="72.867545" xlink:href="#mc6477c0db7" y="30.334099"/>
    </g>
   </g>
   <g id="line2d_34">
    <defs>
     <path d="M 0 1.5 
C 0.397805 1.5 0.77937 1.341951 1.06066 1.06066 
C 1.341951 0.77937 1.5 0.397805 1.5 0 
C 1.5 -0.397805 1.341951 -0.77937 1.06066 -1.06066 
C 0.77937 -1.341951 0.397805 -1.5 0 -1.5 
C -0.397805 -1.5 -0.77937 -1.341951 -1.06066 -1.06066 
C -1.341951 -0.77937 -1.5 -0.397805 -1.5 0 
C -1.5 0.397805 -1.341951 0.77937 -1.06066 1.06066 
C -0.77937 1.341951 -0.397805 1.5 0 1.5 
z
" id="me86eafb222" style="stroke:#000080;"/>
    </defs>
    <g>
     <use style="fill:#000080;stroke:#000080;" x="146.916676" xlink:href="#me86eafb222" y="30.334099"/>
     <use style="fill:#000080;stroke:#000080;" x="146.916676" xlink:href="#me86eafb222" y="30.334099"/>
    </g>
   </g>
   <g id="line2d_35">
    <path d="M 29.53256 298.944 
L 29.53256 283.670104 
L 41.620548 283.670104 
L 41.620548 282.616732 
L 53.708537 282.616732 
L 53.708537 281.563359 
L 60.779557 281.563359 
L 60.779557 279.456615 
L 72.867545 279.456615 
L 72.867545 278.929929 
L 78.941764 278.929929 
L 78.941764 277.349871 
L 79.938565 277.349871 
L 79.938565 276.296499 
L 81.775977 276.296499 
L 81.775977 275.769812 
L 83.438118 275.769812 
L 83.438118 274.71644 
L 85.66744 274.71644 
L 85.66744 274.189754 
L 86.351421 274.189754 
L 86.351421 273.663068 
L 88.846997 273.663068 
L 88.846997 273.136382 
L 89.972502 273.136382 
L 89.972502 272.08301 
L 90.509138 272.08301 
L 90.509138 271.556324 
L 91.029752 271.556324 
L 91.029752 270.502952 
L 91.535274 270.502952 
L 91.535274 269.976266 
L 92.504372 269.976266 
L 92.504372 269.449579 
L 95.125186 269.449579 
L 95.125186 268.922893 
L 95.526106 268.922893 
L 95.526106 267.342835 
L 96.301313 267.342835 
L 96.301313 266.816149 
L 97.043522 266.816149 
L 97.043522 266.289463 
L 97.403108 266.289463 
L 97.403108 265.762777 
L 97.755429 265.762777 
L 97.755429 264.182719 
L 98.43941 264.182719 
L 98.43941 261.022602 
L 99.41757 261.022602 
L 99.41757 260.495916 
L 99.731799 260.495916 
L 99.731799 258.389172 
L 100.040467 258.389172 
L 100.040467 256.809114 
L 100.641881 256.809114 
L 100.641881 256.282427 
L 100.934985 256.282427 
L 100.934985 255.229055 
L 101.506816 255.229055 
L 101.506816 254.702369 
L 102.060491 254.702369 
L 102.060491 254.175683 
L 102.330873 254.175683 
L 102.330873 253.648997 
L 102.859376 253.648997 
L 102.859376 253.122311 
L 103.372333 253.122311 
L 103.372333 251.015567 
L 103.870632 251.015567 
L 103.870632 249.962195 
L 104.114542 249.962195 
L 104.114542 249.435508 
L 104.355088 249.435508 
L 104.355088 247.328764 
L 105.057436 247.328764 
L 105.057436 246.802078 
L 105.285403 246.802078 
L 105.285403 246.275392 
L 105.51043 246.275392 
L 105.51043 245.748706 
L 106.382575 245.748706 
L 106.382575 245.22202 
L 108.198707 245.22202 
L 108.198707 244.695334 
L 108.577836 244.695334 
L 108.577836 243.641962 
L 109.31223 243.641962 
L 109.31223 242.588589 
L 109.843417 242.588589 
L 109.843417 241.008531 
L 111.346294 241.008531 
L 111.346294 239.428473 
L 113.594805 239.428473 
L 113.594805 238.901787 
L 113.73488 238.901787 
L 113.73488 238.375101 
L 113.873839 238.375101 
L 113.873839 236.268356 
L 114.816733 236.268356 
L 114.816733 235.214984 
L 115.077025 235.214984 
L 115.077025 234.688298 
L 115.205729 234.688298 
L 115.205729 234.161612 
L 115.33349 234.161612 
L 115.33349 228.368065 
L 116.202531 228.368065 
L 116.202531 227.841379 
L 117.145424 227.841379 
L 117.145424 226.788007 
L 117.259781 226.788007 
L 117.259781 224.681263 
L 117.373392 224.681263 
L 117.373392 222.047832 
L 118.039942 222.047832 
L 118.148599 216.254285 
L 118.363901 216.254285 
L 118.363901 215.200913 
L 118.681952 215.200913 
L 118.681952 214.674227 
L 119.199476 214.674227 
L 119.199476 214.147541 
L 119.40226 214.147541 
L 119.502775 213.094169 
L 120.093994 213.094169 
L 120.093994 212.567483 
L 120.47729 212.567483 
L 120.47729 212.040797 
L 120.852343 212.040797 
L 120.944859 210.460738 
L 121.310093 210.460738 
L 121.310093 209.934052 
L 122.018385 209.934052 
L 122.018385 209.407366 
L 122.191052 209.407366 
L 122.276749 206.24725 
L 122.782271 206.24725 
L 122.865118 204.667192 
L 123.985457 204.667192 
L 123.985457 203.613819 
L 124.216444 203.613819 
L 124.216444 200.453703 
L 124.669438 200.453703 
L 124.669438 198.873645 
L 125.399222 198.873645 
L 125.470548 195.186842 
L 125.892487 195.186842 
L 125.892487 193.606784 
L 126.439646 193.606784 
L 126.439646 190.446667 
L 126.70692 190.446667 
L 126.773103 186.759865 
L 126.839037 186.759865 
L 126.839037 183.599748 
L 127.035353 183.599748 
L 127.035353 183.073062 
L 127.357715 183.073062 
L 127.421479 182.01969 
L 127.611382 182.01969 
L 127.611382 180.966318 
L 127.861412 180.966318 
L 127.861412 177.806202 
L 127.985095 177.806202 
L 127.985095 177.279515 
L 128.168991 177.279515 
L 128.229861 175.699457 
L 128.350967 175.699457 
L 128.350967 174.646085 
L 128.471239 174.646085 
L 128.471239 172.539341 
L 128.827155 172.539341 
L 128.827155 172.012655 
L 129.002426 172.012655 
L 129.002426 170.432596 
L 129.175952 170.432596 
L 129.175952 169.90591 
L 129.290685 169.90591 
L 129.347769 166.219108 
L 129.630422 166.219108 
L 129.630422 165.692422 
L 129.853291 165.692422 
L 129.853291 164.112363 
L 130.558552 164.112363 
L 130.558552 162.532305 
L 131.236397 162.532305 
L 131.236397 162.005619 
L 131.590764 162.005619 
L 131.640805 158.845503 
L 131.740458 158.845503 
L 131.740458 158.318817 
L 131.888878 158.318817 
L 131.938072 157.265444 
L 132.326708 157.265444 
L 132.326708 154.105328 
L 132.470242 154.105328 
L 132.470242 153.578642 
L 132.659801 153.578642 
L 132.659801 153.051956 
L 132.847322 153.051956 
L 132.940331 150.418525 
L 133.032848 150.418525 
L 133.078923 148.311781 
L 133.352844 148.311781 
L 133.352844 147.258409 
L 133.488207 147.258409 
L 133.488207 146.731723 
L 133.622529 146.731723 
L 133.622529 145.678351 
L 133.800029 145.678351 
L 133.844123 144.624978 
L 134.106373 144.624978 
L 134.106373 144.098292 
L 134.279041 144.098292 
L 134.279041 143.571606 
L 134.787017 143.571606 
L 134.870259 139.358118 
L 134.994383 139.358118 
L 134.994383 138.831432 
L 135.158519 138.831432 
L 135.240011 134.617943 
L 135.482227 134.617943 
L 135.562224 132.511199 
L 135.995765 132.511199 
L 136.034648 131.457826 
L 136.112156 131.457826 
L 136.112156 128.824396 
L 136.456742 128.824396 
L 136.494612 127.771024 
L 136.570107 127.771024 
L 136.645276 121.450791 
L 136.905847 121.450791 
L 136.942755 119.870733 
L 137.053015 119.870733 
L 137.126135 118.290674 
L 137.271464 118.290674 
L 137.271464 117.237302 
L 137.415591 117.237302 
L 137.48721 116.18393 
L 137.594091 116.18393 
L 137.70032 108.810325 
L 137.805906 108.810325 
L 137.805906 108.283639 
L 138.084384 108.283639 
L 138.084384 107.756953 
L 138.256201 107.756953 
L 138.324456 106.703581 
L 138.628343 106.703581 
L 138.69516 103.543464 
L 138.89409 103.543464 
L 138.99271 98.803289 
L 139.155847 98.803289 
L 139.155847 98.276603 
L 139.413734 98.276603 
L 139.445704 93.536429 
L 139.541262 93.536429 
L 139.541262 93.009743 
L 139.762215 93.009743 
L 139.793552 90.376312 
L 140.134598 90.376312 
L 140.195896 84.582765 
L 140.378508 84.582765 
L 140.469102 83.002707 
L 140.559227 83.002707 
L 140.559227 82.476021 
L 140.79731 82.476021 
L 140.79731 80.369277 
L 141.002999 80.369277 
L 141.061324 78.789218 
L 141.177393 78.789218 
L 141.177393 78.262532 
L 141.378673 78.262532 
L 141.378673 75.629102 
L 141.549369 75.629102 
L 141.549369 75.102416 
L 141.69035 75.102416 
L 141.69035 74.049044 
L 141.80232 74.049044 
L 141.830201 70.362241 
L 142.024126 70.362241 
L 142.051655 63.515322 
L 142.215919 63.515322 
L 142.270332 61.935264 
L 142.539878 61.935264 
L 142.646541 60.355206 
L 142.673105 60.355206 
L 142.673105 58.775147 
L 142.884173 58.775147 
L 142.988757 55.615031 
L 143.040814 55.615031 
L 143.092717 54.034973 
L 143.170282 54.034973 
L 143.221802 51.928228 
L 143.298796 51.928228 
L 143.375453 50.874856 
L 143.42637 50.874856 
L 143.502469 49.294798 
L 143.703791 49.294798 
L 143.703791 46.134681 
L 144.026061 46.134681 
L 144.124035 42.447879 
L 144.197155 42.447879 
L 144.294175 39.814448 
L 144.366588 39.814448 
L 144.366588 39.287762 
L 144.510517 39.287762 
L 144.510517 38.23439 
L 144.700592 38.23439 
L 144.700592 37.707704 
L 145.005114 37.707704 
L 145.074639 35.60096 
L 145.166911 35.60096 
L 145.166911 35.074274 
L 145.48607 35.074274 
L 145.553708 34.020902 
L 145.888018 34.020902 
L 145.910079 31.914157 
L 146.019967 31.914157 
L 146.019967 31.387471 
L 146.237689 31.387471 
L 146.237689 30.860785 
L 146.916676 30.860785 
L 146.916676 30.334099 
L 338.688 30.334099 
L 338.688 30.334099 
" style="fill:none;stroke:#000080;stroke-linecap:square;stroke-width:1.5;"/>
   </g>
   <g id="line2d_36">
    <defs>
     <path d="M 0 6 
C 1.591219 6 3.117479 5.367802 4.242641 4.242641 
C 5.367802 3.117479 6 1.591219 6 0 
C 6 -1.591219 5.367802 -3.117479 4.242641 -4.242641 
C 3.117479 -5.367802 1.591219 -6 0 -6 
C -1.591219 -6 -3.117479 -5.367802 -4.242641 -4.242641 
C -5.367802 -3.117479 -6 -1.591219 -6 0 
C -6 1.591219 -5.367802 3.117479 -4.242641 4.242641 
C -3.117479 5.367802 -1.591219 6 0 6 
z
" id="m58b92adb7e" style="stroke:#000080;stroke-width:1.5;"/>
    </defs>
    <g>
     <use style="fill-opacity:0;stroke:#000080;stroke-width:1.5;" x="126.439646" xlink:href="#m58b92adb7e" y="190.446667"/>
     <use style="fill-opacity:0;stroke:#000080;stroke-width:1.5;" x="143.502469" xlink:href="#m58b92adb7e" y="49.294798"/>
     <use style="fill-opacity:0;stroke:#000080;stroke-width:1.5;" x="146.916676" xlink:href="#m58b92adb7e" y="30.860785"/>
     <use style="fill-opacity:0;stroke:#000080;stroke-width:1.5;" x="146.916676" xlink:href="#m58b92adb7e" y="30.334099"/>
     <use style="fill-opacity:0;stroke:#000080;stroke-width:1.5;" x="146.916676" xlink:href="#m58b92adb7e" y="30.334099"/>
     <use style="fill-opacity:0;stroke:#000080;stroke-width:1.5;" x="338.688" xlink:href="#m58b92adb7e" y="30.334099"/>
    </g>
   </g>
   <g id="line2d_37">
    <path style="fill:none;stroke:#000080;stroke-linecap:square;stroke-width:1.5;"/>
    <g/>
   </g>
   <g id="line2d_38">
    <defs>
     <path d="M 0 1.5 
C 0.397805 1.5 0.77937 1.341951 1.06066 1.06066 
C 1.341951 0.77937 1.5 0.397805 1.5 0 
C 1.5 -0.397805 1.341951 -0.77937 1.06066 -1.06066 
C 0.77937 -1.341951 0.397805 -1.5 0 -1.5 
C -0.397805 -1.5 -0.77937 -1.341951 -1.06066 -1.06066 
C -1.341951 -0.77937 -1.5 -0.397805 -1.5 0 
C -1.5 0.397805 -1.341951 0.77937 -1.06066 1.06066 
C -0.77937 1.341951 -0.397805 1.5 0 1.5 
z
" id="m79e2cb19c9" style="stroke:#ff00ff;"/>
    </defs>
    <g>
     <use style="fill:#ff00ff;stroke:#ff00ff;" x="199.372108" xlink:href="#m79e2cb19c9" y="30.334099"/>
     <use style="fill:#ff00ff;stroke:#ff00ff;" x="199.372108" xlink:href="#m79e2cb19c9" y="30.334099"/>
    </g>
   </g>
   <g id="line2d_39">
    <path d="M 29.53256 298.944 
L 29.53256 293.677139 
L 41.620548 293.677139 
L 41.620548 290.517023 
L 48.691568 290.517023 
L 48.691568 288.410278 
L 57.6 288.410278 
L 57.6 286.83022 
L 60.779557 286.83022 
L 60.779557 285.250162 
L 63.467834 285.250162 
L 63.467834 284.19679 
L 67.850577 284.19679 
L 67.850577 282.616732 
L 69.687988 282.616732 
L 69.687988 279.983301 
L 71.35013 279.983301 
L 71.35013 277.349871 
L 74.263433 277.349871 
L 74.263433 275.769812 
L 77.884514 275.769812 
L 77.884514 274.71644 
L 81.775977 274.71644 
L 81.775977 273.663068 
L 82.626842 273.663068 
L 82.626842 273.136382 
L 84.955534 273.136382 
L 84.955534 272.609696 
L 86.351421 272.609696 
L 86.351421 272.08301 
L 88.846997 272.08301 
L 88.846997 271.029638 
L 92.504372 271.029638 
L 92.504372 270.502952 
L 94.294587 270.502952 
L 94.294587 269.976266 
L 94.714831 269.976266 
L 94.714831 269.449579 
L 97.403108 269.449579 
L 97.403108 267.869521 
L 101.785851 267.869521 
L 101.785851 267.342835 
L 104.355088 267.342835 
L 104.355088 266.289463 
L 108.764355 266.289463 
L 108.764355 265.236091 
L 110.358901 265.236091 
L 110.358901 264.709405 
L 111.346294 264.709405 
L 111.346294 264.182719 
L 112.431755 264.182719 
L 112.431755 263.656033 
L 113.311233 263.656033 
L 113.311233 263.129347 
L 113.453595 263.129347 
L 113.453595 262.60266 
L 114.816733 262.60266 
L 114.816733 262.075974 
L 115.460322 262.075974 
L 115.460322 261.549288 
L 116.202531 261.549288 
L 116.202531 261.022602 
L 116.914437 261.022602 
L 116.914437 260.495916 
L 117.820578 260.495916 
L 117.820578 259.96923 
L 118.148599 259.96923 
L 118.148599 259.442544 
L 118.363901 259.442544 
L 118.363901 258.915858 
L 119.097192 258.915858 
L 119.097192 258.389172 
L 120.190611 258.389172 
L 120.190611 257.862486 
L 121.667835 257.862486 
L 121.667835 256.282427 
L 122.947573 256.282427 
L 122.947573 255.755741 
L 124.216444 255.755741 
L 124.216444 254.175683 
L 124.891598 254.175683 
L 124.891598 253.648997 
L 125.183475 253.648997 
L 125.183475 251.542253 
L 126.304457 251.542253 
L 126.304457 251.015567 
L 127.611382 251.015567 
L 127.611382 250.488881 
L 127.736845 250.488881 
L 127.736845 249.962195 
L 128.229861 249.962195 
L 128.229861 248.382136 
L 128.471239 248.382136 
L 128.471239 247.85545 
L 128.650105 247.85545 
L 128.709321 246.275392 
L 129.404667 246.275392 
L 129.404667 245.748706 
L 129.79784 245.748706 
L 129.79784 244.695334 
L 130.073348 244.695334 
L 130.073348 244.168648 
L 130.717333 244.168648 
L 130.717333 241.535217 
L 131.185181 241.535217 
L 131.185181 241.008531 
L 131.640805 241.008531 
L 131.640805 240.481845 
L 131.987128 240.481845 
L 131.987128 239.428473 
L 132.659801 239.428473 
L 132.659801 238.901787 
L 133.124876 238.901787 
L 133.124876 238.375101 
L 133.57787 238.375101 
L 133.57787 236.795043 
L 133.888106 236.795043 
L 133.975741 235.74167 
L 135.035562 235.74167 
L 135.035562 235.214984 
L 135.482227 235.214984 
L 135.482227 234.688298 
L 135.681535 234.688298 
L 135.681535 233.634926 
L 135.800036 233.634926 
L 135.839358 232.581554 
L 136.418789 232.581554 
L 136.418789 231.528182 
L 136.607732 231.528182 
L 136.645276 229.421437 
L 136.720123 229.421437 
L 136.720123 228.894751 
L 137.089613 228.894751 
L 137.089613 228.368065 
L 137.235245 228.368065 
L 137.235245 227.314693 
L 137.558536 227.314693 
L 137.558536 226.788007 
L 138.324456 226.788007 
L 138.426341 224.154577 
L 138.728473 224.154577 
L 138.728473 223.627891 
L 139.220677 223.627891 
L 139.220677 223.101204 
L 139.572998 223.101204 
L 139.572998 222.574518 
L 140.103868 222.574518 
L 140.103868 222.047832 
L 141.090414 222.047832 
L 141.090414 221.521146 
L 141.235139 221.521146 
L 141.292695 219.941088 
L 141.378673 219.941088 
L 141.46423 218.887716 
L 141.634094 218.887716 
L 141.71841 217.834344 
L 142.243147 217.834344 
L 142.351634 216.780971 
L 142.646541 216.780971 
L 142.646541 216.254285 
L 142.778958 216.254285 
L 142.778958 215.200913 
L 143.014805 215.200913 
L 143.014805 214.674227 
L 143.247504 214.674227 
L 143.349938 213.094169 
L 143.75376 213.094169 
L 143.75376 212.567483 
L 143.87806 212.567483 
L 143.87806 211.514111 
L 144.075117 211.514111 
L 144.075117 210.987425 
L 144.221461 210.987425 
L 144.269971 208.88068 
L 144.676946 208.88068 
L 144.676946 208.353994 
L 144.818346 208.353994 
L 144.865226 207.300622 
L 145.005114 207.300622 
L 145.02832 205.720564 
L 145.120836 205.720564 
L 145.120836 205.193878 
L 145.235796 205.193878 
L 145.235796 204.667192 
L 145.440832 204.667192 
L 145.440832 203.613819 
L 145.710517 203.613819 
L 145.732804 202.560447 
L 145.888018 202.560447 
L 145.998045 201.507075 
L 146.019967 201.507075 
L 146.019967 200.980389 
L 146.686244 200.980389 
L 146.686244 200.453703 
L 147.12355 200.453703 
L 147.164632 198.873645 
L 147.550159 198.873645 
L 147.550159 197.820273 
L 147.828875 197.820273 
L 147.828875 197.293586 
L 147.946974 197.293586 
L 147.946974 196.240214 
L 148.1808 196.240214 
L 148.27731 195.186842 
L 148.296548 195.186842 
L 148.296548 194.660156 
L 148.430623 194.660156 
L 148.430623 194.13347 
L 148.658095 194.13347 
L 148.676918 193.080098 
L 148.956849 193.080098 
L 148.956849 192.553412 
L 149.195872 192.553412 
L 149.286939 190.446667 
L 149.664311 190.446667 
L 149.664311 189.919981 
L 149.85877 189.919981 
L 149.876341 188.339923 
L 150.224095 188.339923 
L 150.258492 184.126434 
L 150.395406 184.126434 
L 150.49739 183.073062 
L 150.531253 183.073062 
L 150.531253 182.546376 
L 150.816462 182.546376 
L 150.816462 182.01969 
L 150.982078 182.01969 
L 151.0643 180.966318 
L 151.1298 180.966318 
L 151.1298 180.439632 
L 151.276281 180.439632 
L 151.340991 177.806202 
L 151.405461 177.806202 
L 151.405461 177.279515 
L 152.037389 177.279515 
L 152.037389 176.752829 
L 152.161072 176.752829 
L 152.253262 175.172771 
L 152.314453 175.172771 
L 152.314453 174.119399 
L 152.466496 174.119399 
L 152.466496 173.592713 
L 152.736878 173.592713 
L 152.811246 172.539341 
L 152.855715 172.539341 
L 152.914832 170.959282 
L 153.105587 170.959282 
L 153.149313 169.90591 
L 153.380683 169.90591 
L 153.466662 167.27248 
L 153.523746 167.27248 
L 153.523746 166.745794 
L 153.764292 166.745794 
L 153.764292 165.165736 
L 153.959927 165.165736 
L 154.056927 163.585677 
L 154.276638 163.585677 
L 154.344733 162.532305 
L 154.641235 162.532305 
L 154.654594 159.898875 
L 154.880133 159.898875 
L 154.972161 158.845503 
L 155.335493 158.845503 
L 155.373976 157.265444 
L 155.488919 157.265444 
L 155.488919 156.738758 
L 155.691409 156.738758 
L 155.741666 154.105328 
L 155.804285 154.105328 
L 155.904009 152.52527 
L 155.966049 152.52527 
L 156.003167 150.945211 
L 156.333721 150.945211 
L 156.333721 150.418525 
L 156.454576 150.418525 
L 156.49067 148.311781 
L 156.988292 148.311781 
L 156.988292 147.785095 
L 157.104709 147.785095 
L 157.174189 146.205037 
L 157.2549 146.205037 
L 157.266399 145.151665 
L 157.369557 145.151665 
L 157.392398 144.098292 
L 157.60791 144.098292 
L 157.60791 143.04492 
L 157.753847 143.04492 
L 157.753847 142.518234 
L 158.140788 142.518234 
L 158.140788 141.991548 
L 158.336493 141.991548 
L 158.444276 139.358118 
L 158.647247 139.358118 
L 158.647247 138.831432 
L 158.784773 138.831432 
L 158.889829 137.251373 
L 158.931675 137.251373 
L 158.983842 135.144629 
L 159.046236 135.144629 
L 159.046236 132.511199 
L 159.567767 132.511199 
L 159.668223 130.404454 
L 159.788013 130.404454 
L 159.897102 129.351082 
L 159.916863 129.351082 
L 160.005512 128.29771 
L 160.083935 128.29771 
L 160.191194 125.66428 
L 160.230035 125.66428 
L 160.230035 125.137593 
L 160.384537 125.137593 
L 160.470846 120.924105 
L 160.537682 120.924105 
L 160.642194 119.344047 
L 160.746084 119.344047 
L 160.849359 115.657244 
L 161.21983 115.657244 
L 161.302112 113.023814 
L 161.402155 113.023814 
L 161.420284 110.917069 
L 161.734513 110.917069 
L 161.734513 110.390383 
L 161.867469 110.390383 
L 161.92917 108.810325 
L 162.078112 108.810325 
L 162.156452 107.756953 
L 162.286241 107.756953 
L 162.286241 107.230267 
L 162.397949 107.230267 
L 162.491916 104.07015 
L 162.52596 104.07015 
L 162.619242 103.016778 
L 162.712026 103.016778 
L 162.745644 99.856662 
L 162.837761 99.856662 
L 162.929393 98.276603 
L 162.9543 98.276603 
L 162.9543 97.749917 
L 163.070067 97.749917 
L 163.168687 94.589801 
L 163.266752 94.589801 
L 163.372371 91.429684 
L 163.501492 91.429684 
L 163.597709 90.376312 
L 163.653591 90.376312 
L 163.66156 88.269568 
L 163.89108 88.269568 
L 163.89108 87.742882 
L 164.179597 87.742882 
L 164.202782 86.162824 
L 164.310575 86.162824 
L 164.371873 85.109451 
L 164.448194 85.109451 
L 164.509011 82.476021 
L 164.577177 82.476021 
L 164.660132 80.895963 
L 164.809955 80.895963 
L 164.884386 78.789218 
L 165.047026 78.789218 
L 165.157053 75.629102 
L 165.280918 75.629102 
L 165.280918 75.102416 
L 165.411116 75.102416 
L 165.411116 74.57573 
L 165.746566 74.57573 
L 165.746566 74.049044 
L 165.97132 74.049044 
L 165.978297 72.995672 
L 166.227632 72.995672 
L 166.316801 71.415613 
L 166.419124 71.415613 
L 166.419124 70.362241 
L 166.554628 70.362241 
L 166.554628 68.782183 
L 166.695783 68.782183 
L 166.802568 67.728811 
L 166.822518 67.728811 
L 166.849082 66.675439 
L 166.935137 66.675439 
L 166.935137 65.622066 
L 167.132118 65.622066 
L 167.158215 64.042008 
L 167.294587 64.042008 
L 167.294587 63.515322 
L 167.417059 63.515322 
L 167.487573 61.408578 
L 167.570541 61.408578 
L 167.627751 59.82852 
L 167.917258 59.82852 
L 167.985782 58.775147 
L 168.214315 58.775147 
L 168.214315 58.248461 
L 168.554604 58.248461 
L 168.554604 57.721775 
L 180.603434 57.721775 
L 180.633564 56.668403 
L 181.225485 56.668403 
L 181.286487 55.615031 
L 181.47683 55.615031 
L 181.488299 54.561659 
L 181.625347 54.561659 
L 181.653764 53.508287 
L 181.932618 53.508287 
L 181.932618 52.9816 
L 182.344078 52.9816 
L 182.344078 52.454914 
L 182.474588 52.454914 
L 182.509766 51.401542 
L 182.767376 51.401542 
L 182.767376 50.874856 
L 183.118098 50.874856 
L 183.20144 49.821484 
L 183.464465 49.821484 
L 183.566539 48.768112 
L 183.660429 48.768112 
L 183.713493 47.71474 
L 183.954039 47.71474 
L 184.023578 46.134681 
L 184.220745 46.134681 
L 184.311187 45.081309 
L 184.367171 45.081309 
L 184.468943 41.394507 
L 184.562917 41.394507 
L 184.562917 40.867821 
L 184.99723 40.867821 
L 184.99723 40.341135 
L 185.17447 40.341135 
L 185.17447 39.814448 
L 185.427852 39.814448 
L 185.46212 38.23439 
L 185.539547 38.23439 
L 185.539547 37.707704 
L 186.240998 37.707704 
L 186.240998 37.181018 
L 192.044795 37.181018 
L 192.096356 36.127646 
L 192.293377 36.127646 
L 192.293377 35.60096 
L 192.439313 35.60096 
L 192.439313 35.074274 
L 192.938452 35.074274 
L 192.938452 34.547588 
L 193.407791 34.547588 
L 193.477115 33.494215 
L 193.660643 33.494215 
L 193.660643 32.967529 
L 193.774374 32.967529 
L 193.863419 31.914157 
L 194.592347 31.914157 
L 194.592347 31.387471 
L 198.917004 31.387471 
L 198.917004 30.860785 
L 199.372108 30.860785 
L 199.372108 30.334099 
L 338.688 30.334099 
L 338.688 30.334099 
" style="fill:none;stroke:#ff00ff;stroke-linecap:square;stroke-width:1.5;"/>
   </g>
   <g id="line2d_40">
    <defs>
     <path d="M -0 8.485281 
L 5.091169 0 
L 0 -8.485281 
L -5.091169 -0 
z
" id="m32e0063b5f" style="stroke:#ff00ff;stroke-linejoin:miter;stroke-width:1.5;"/>
    </defs>
    <g>
     <use style="fill-opacity:0;stroke:#ff00ff;stroke-linejoin:miter;stroke-width:1.5;" x="74.263433" xlink:href="#m32e0063b5f" y="275.769812"/>
     <use style="fill-opacity:0;stroke:#ff00ff;stroke-linejoin:miter;stroke-width:1.5;" x="137.558536" xlink:href="#m32e0063b5f" y="226.788007"/>
     <use style="fill-opacity:0;stroke:#ff00ff;stroke-linejoin:miter;stroke-width:1.5;" x="162.9543" xlink:href="#m32e0063b5f" y="97.749917"/>
     <use style="fill-opacity:0;stroke:#ff00ff;stroke-linejoin:miter;stroke-width:1.5;" x="199.372108" xlink:href="#m32e0063b5f" y="30.860785"/>
     <use style="fill-opacity:0;stroke:#ff00ff;stroke-linejoin:miter;stroke-width:1.5;" x="199.372108" xlink:href="#m32e0063b5f" y="30.334099"/>
     <use style="fill-opacity:0;stroke:#ff00ff;stroke-linejoin:miter;stroke-width:1.5;" x="338.688" xlink:href="#m32e0063b5f" y="30.334099"/>
    </g>
   </g>
   <g id="line2d_41">
    <path style="fill:none;stroke:#ff00ff;stroke-linecap:square;stroke-width:1.5;"/>
    <g/>
   </g>
   <g id="line2d_42">
    <path clip-path="url(#p3425c8f894)" d="M 178.066286 57.721775 
" style="fill:none;stroke:#ff00ff;stroke-linecap:square;stroke-width:1.5;"/>
    <defs>
     <path d="M -12 12 
L 12 -12 
M -12 -12 
L 12 12 
" id="m1f13517aa4" style="stroke:#ff00ff;"/>
    </defs>
    <g clip-path="url(#p3425c8f894)">
     <use style="fill:#ff00ff;stroke:#ff00ff;" x="178.066286" xlink:href="#m1f13517aa4" y="57.721775"/>
    </g>
   </g>
   <g id="line2d_43">
    <defs>
     <path d="M 0 1.5 
C 0.397805 1.5 0.77937 1.341951 1.06066 1.06066 
C 1.341951 0.77937 1.5 0.397805 1.5 0 
C 1.5 -0.397805 1.341951 -0.77937 1.06066 -1.06066 
C 0.77937 -1.341951 0.397805 -1.5 0 -1.5 
C -0.397805 -1.5 -0.77937 -1.341951 -1.06066 -1.06066 
C -1.341951 -0.77937 -1.5 -0.397805 -1.5 0 
C -1.5 0.397805 -1.341951 0.77937 -1.06066 1.06066 
C -0.77937 1.341951 -0.397805 1.5 0 1.5 
z
" id="m2066c4fc3f" style="stroke:#ff7500;"/>
    </defs>
    <g>
     <use style="fill:#ff7500;stroke:#ff7500;" x="218.157419" xlink:href="#m2066c4fc3f" y="30.334099"/>
     <use style="fill:#ff7500;stroke:#ff7500;" x="218.157419" xlink:href="#m2066c4fc3f" y="30.334099"/>
    </g>
   </g>
   <g id="line2d_44">
    <path d="M 29.53256 298.944 
L 29.53256 293.677139 
L 41.620548 293.677139 
L 41.620548 291.570395 
L 48.691568 291.570395 
L 48.691568 287.883592 
L 57.6 287.883592 
L 57.6 285.250162 
L 60.779557 285.250162 
L 60.779557 283.143418 
L 67.850577 283.143418 
L 67.850577 281.036673 
L 69.687988 281.036673 
L 69.687988 279.456615 
L 71.35013 279.456615 
L 71.35013 277.876557 
L 74.263433 277.876557 
L 74.263433 276.823185 
L 77.884514 276.823185 
L 77.884514 275.243126 
L 79.938565 275.243126 
L 79.938565 274.71644 
L 81.775977 274.71644 
L 81.775977 273.663068 
L 82.626842 273.663068 
L 82.626842 272.609696 
L 84.955534 272.609696 
L 84.955534 272.08301 
L 88.846997 272.08301 
L 88.846997 271.556324 
L 92.504372 271.556324 
L 92.504372 271.029638 
L 96.301313 271.029638 
L 96.301313 270.502952 
L 99.731799 270.502952 
L 99.731799 269.449579 
L 100.934985 269.449579 
L 100.934985 268.396207 
L 101.506816 268.396207 
L 101.506816 267.869521 
L 102.060491 267.869521 
L 102.060491 267.342835 
L 102.597126 267.342835 
L 102.597126 266.816149 
L 108.577836 266.816149 
L 108.577836 266.289463 
L 110.358901 266.289463 
L 110.358901 265.236091 
L 112.72987 265.236091 
L 112.72987 264.709405 
L 112.877038 264.709405 
L 112.877038 264.182719 
L 113.311233 264.182719 
L 113.311233 263.129347 
L 114.148479 263.129347 
L 114.148479 262.60266 
L 114.816733 262.60266 
L 114.816733 262.075974 
L 115.077025 262.075974 
L 115.077025 261.549288 
L 115.205729 261.549288 
L 115.205729 259.96923 
L 115.460322 259.96923 
L 115.460322 259.442544 
L 116.202531 259.442544 
L 116.202531 258.389172 
L 117.930605 258.389172 
L 117.930605 257.862486 
L 118.256582 257.862486 
L 118.256582 257.3358 
L 119.301163 257.3358 
L 119.40226 256.282427 
L 122.018385 256.282427 
L 122.018385 255.755741 
L 122.191052 255.755741 
L 122.191052 254.702369 
L 122.615387 254.702369 
L 122.699028 252.595625 
L 123.273551 252.595625 
L 123.273551 252.068939 
L 123.434283 252.068939 
L 123.434283 251.542253 
L 123.751369 251.542253 
L 123.751369 251.015567 
L 123.907776 251.015567 
L 123.907776 250.488881 
L 125.038147 250.488881 
L 125.038147 249.962195 
L 125.682793 249.962195 
L 125.682793 249.435508 
L 125.822869 249.435508 
L 125.822869 248.908822 
L 128.411207 248.908822 
L 128.411207 248.382136 
L 128.590686 248.382136 
L 128.590686 246.802078 
L 128.885774 246.802078 
L 128.944197 245.748706 
L 130.127931 245.748706 
L 130.127931 244.695334 
L 130.558552 244.695334 
L 130.558552 244.168648 
L 131.790072 244.168648 
L 131.790072 243.115275 
L 132.326708 243.115275 
L 132.326708 242.061903 
L 132.659801 242.061903 
L 132.659801 241.535217 
L 132.893889 241.535217 
L 132.893889 240.481845 
L 133.216421 240.481845 
L 133.216421 239.955159 
L 133.398082 239.955159 
L 133.398082 239.428473 
L 133.800029 239.428473 
L 133.844123 238.375101 
L 134.364738 238.375101 
L 134.364738 237.848415 
L 134.492498 237.848415 
L 134.492498 236.795043 
L 135.199312 236.795043 
L 135.199312 236.268356 
L 135.602085 236.268356 
L 135.602085 235.74167 
L 136.073445 235.74167 
L 136.073445 235.214984 
L 136.380754 235.214984 
L 136.380754 234.161612 
L 136.570107 234.161612 
L 136.607732 232.581554 
L 136.905847 232.581554 
L 136.905847 231.528182 
L 137.198951 231.528182 
L 137.198951 231.001496 
L 137.415591 231.001496 
L 137.415591 230.47481 
L 137.770782 230.47481 
L 137.84096 229.421437 
L 137.980475 229.421437 
L 137.980475 228.894751 
L 138.661784 228.894751 
L 138.661784 228.368065 
L 138.861092 228.368065 
L 138.861092 227.314693 
L 139.253002 227.314693 
L 139.253002 225.734635 
L 141.292695 225.734635 
L 141.292695 223.101204 
L 141.605898 223.101204 
L 141.605898 222.047832 
L 141.774395 222.047832 
L 141.830201 219.941088 
L 142.805321 219.941088 
L 142.805321 219.414402 
L 143.527762 219.414402 
L 143.527762 218.36103 
L 143.778691 218.36103 
L 143.87806 217.307658 
L 144.294175 217.307658 
L 144.318346 216.254285 
L 144.414696 216.254285 
L 144.414696 215.200913 
L 144.676946 215.200913 
L 144.676946 214.674227 
L 145.395476 214.674227 
L 145.395476 213.620855 
L 146.107383 213.620855 
L 146.107383 213.094169 
L 146.999721 213.094169 
L 146.999721 212.567483 
L 147.509976 212.567483 
L 147.590249 211.514111 
L 147.78933 211.514111 
L 147.78933 210.987425 
L 148.219468 210.987425 
L 148.27731 209.407366 
L 148.695721 209.407366 
L 148.695721 208.88068 
L 149.104327 208.88068 
L 149.104327 207.300622 
L 149.268764 207.300622 
L 149.323233 205.720564 
L 149.646525 205.720564 
L 149.646525 205.193878 
L 149.928949 205.193878 
L 149.928949 204.140506 
L 151.097081 204.140506 
L 151.097081 203.613819 
L 151.389366 203.613819 
L 151.389366 202.560447 
L 151.755852 202.560447 
L 151.755852 202.033761 
L 152.451351 202.033761 
L 152.511852 200.980389 
L 153.279836 200.980389 
L 153.351929 199.927017 
L 153.707991 199.927017 
L 153.707991 199.400331 
L 154.153391 199.400331 
L 154.167129 198.346959 
L 154.344733 198.346959 
L 154.344733 197.820273 
L 154.57429 197.820273 
L 154.57429 197.293586 
L 155.30979 197.293586 
L 155.30979 196.7669 
L 155.539762 196.7669 
L 155.539762 196.240214 
L 156.478647 196.240214 
L 156.538679 195.186842 
L 157.369557 195.186842 
L 157.403807 193.080098 
L 157.596634 193.080098 
L 157.596634 192.553412 
L 157.77619 192.553412 
L 157.77619 192.026726 
L 158.009087 192.026726 
L 158.009087 191.50004 
L 158.325678 191.50004 
L 158.325678 190.973354 
L 158.921223 190.973354 
L 159.015067 189.393295 
L 159.118749 189.393295 
L 159.190962 188.339923 
L 159.303838 188.339923 
L 159.303838 187.813237 
L 159.668223 187.813237 
L 159.668223 186.759865 
L 160.230035 186.759865 
L 160.249422 185.706493 
L 160.547209 185.706493 
L 160.547209 185.179807 
L 160.830627 185.179807 
L 160.830627 184.653121 
L 161.411222 184.653121 
L 161.411222 184.126434 
L 161.6095 184.126434 
L 161.6095 183.073062 
L 161.902754 183.073062 
L 161.902754 182.546376 
L 162.051921 182.546376 
L 162.051921 182.01969 
L 162.268992 182.01969 
L 162.268992 181.493004 
L 162.508946 181.493004 
L 162.508946 180.966318 
L 162.703612 180.966318 
L 162.703612 180.439632 
L 162.837761 180.439632 
L 162.837761 179.912946 
L 162.979172 179.912946 
L 162.987455 178.859574 
L 163.66156 178.859574 
L 163.66156 177.806202 
L 163.788565 177.806202 
L 163.788565 177.279515 
L 163.977355 177.279515 
L 163.977355 176.752829 
L 164.569616 176.752829 
L 164.622474 175.699457 
L 164.6902 175.699457 
L 164.6902 174.646085 
L 164.869525 174.646085 
L 164.869525 173.592713 
L 165.024937 173.592713 
L 165.024937 173.066027 
L 165.164364 173.066027 
L 165.164364 172.012655 
L 165.360599 172.012655 
L 165.382267 170.959282 
L 165.682828 170.959282 
L 165.774819 167.799166 
L 165.96434 167.799166 
L 166.020101 165.692422 
L 166.096483 165.692422 
L 166.193215 164.63905 
L 166.227632 164.63905 
L 166.323641 163.585677 
L 166.46667 163.585677 
L 166.46667 163.058991 
L 166.58834 163.058991 
L 166.58834 162.532305 
L 166.782596 162.532305 
L 166.81587 160.425561 
L 166.928532 160.425561 
L 166.928532 159.898875 
L 167.255733 159.898875 
L 167.352708 157.79213 
L 167.423481 157.79213 
L 167.487573 156.738758 
L 167.653117 156.738758 
L 167.653117 156.212072 
L 167.829655 156.212072 
L 167.886022 154.632014 
L 168.010633 154.632014 
L 168.023045 153.578642 
L 168.183606 153.578642 
L 168.257216 152.52527 
L 168.512429 152.52527 
L 168.584667 151.471897 
L 168.710367 151.471897 
L 168.78179 150.418525 
L 168.858837 150.418525 
L 168.935546 148.838467 
L 169.175285 148.838467 
L 169.250616 147.785095 
L 169.308343 147.785095 
L 169.348639 145.678351 
L 169.678981 145.678351 
L 169.729685 144.098292 
L 169.791457 144.098292 
L 169.791457 143.04492 
L 169.969922 143.04492 
L 169.969922 142.518234 
L 170.086056 142.518234 
L 170.168537 139.358118 
L 170.217839 139.358118 
L 170.245169 138.304745 
L 170.440691 138.304745 
L 170.521516 137.251373 
L 170.575192 137.251373 
L 170.666063 135.671315 
L 170.713981 135.671315 
L 170.798844 134.617943 
L 170.835842 134.617943 
L 170.835842 134.091257 
L 171.019664 134.091257 
L 171.123841 131.457826 
L 171.35599 131.457826 
L 171.447991 129.351082 
L 171.483639 129.351082 
L 171.514136 128.29771 
L 171.811218 128.29771 
L 171.910786 126.190966 
L 172.264595 126.190966 
L 172.318023 124.084221 
L 172.48694 124.084221 
L 172.549266 121.977477 
L 172.630434 121.977477 
L 172.720707 119.344047 
L 172.9233 119.344047 
L 173.016733 114.077186 
L 173.053967 114.077186 
L 173.053967 113.5505 
L 173.206721 113.5505 
L 173.303236 111.970441 
L 173.408333 111.970441 
L 173.449287 110.390383 
L 173.562544 110.390383 
L 173.64813 109.337011 
L 173.684041 109.337011 
L 173.782417 104.07015 
L 174.025955 104.07015 
L 174.122426 100.383348 
L 174.144277 100.383348 
L 174.227062 98.803289 
L 174.331074 98.803289 
L 174.331074 98.276603 
L 174.455933 98.276603 
L 174.507338 95.643173 
L 174.626698 95.643173 
L 174.732584 93.536429 
L 174.745247 93.536429 
L 174.766332 91.429684 
L 174.979954 91.429684 
L 175.083722 89.849626 
L 175.129186 89.849626 
L 175.227969 87.742882 
L 175.411692 87.742882 
L 175.508892 81.949335 
L 175.5935 81.949335 
L 175.697687 79.842591 
L 175.717652 79.842591 
L 175.821103 77.735846 
L 175.872598 77.735846 
L 175.872598 77.20916 
L 176.022259 77.20916 
L 176.104418 71.415613 
L 176.182307 71.415613 
L 176.182307 70.888927 
L 176.325491 70.888927 
L 176.402401 66.675439 
L 176.49043 66.675439 
L 176.49043 65.622066 
L 176.638688 65.622066 
L 176.744358 60.881892 
L 176.770676 60.881892 
L 176.811953 59.82852 
L 177.005766 59.82852 
L 177.016882 58.775147 
L 177.153401 58.775147 
L 177.25966 49.821484 
L 177.266964 49.821484 
L 177.336204 47.71474 
L 177.40517 47.71474 
L 177.412414 45.607995 
L 177.517111 45.607995 
L 177.624761 42.974565 
L 177.809795 42.974565 
L 177.873391 40.341135 
L 177.936755 40.341135 
L 178.024381 39.287762 
L 189.538383 39.287762 
L 189.538383 38.761076 
L 189.746701 38.761076 
L 189.746701 37.707704 
L 189.904861 37.707704 
L 189.91724 35.60096 
L 190.044059 35.60096 
L 190.133334 34.020902 
L 196.985314 34.020902 
L 196.985314 33.494215 
L 197.211337 33.494215 
L 197.211337 32.967529 
L 202.03702 32.967529 
L 202.081079 31.387471 
L 209.306306 31.387471 
L 209.306306 30.860785 
L 218.157419 30.860785 
L 218.157419 30.334099 
L 338.688 30.334099 
L 338.688 30.334099 
" style="fill:none;stroke:#ff7500;stroke-linecap:square;stroke-width:1.5;"/>
   </g>
   <g id="line2d_45">
    <defs>
     <path d="M 0 -6 
L -1.347084 -1.854102 
L -5.706339 -1.854102 
L -2.179628 0.708204 
L -3.526712 4.854102 
L -0 2.291796 
L 3.526712 4.854102 
L 2.179628 0.708204 
L 5.706339 -1.854102 
L 1.347084 -1.854102 
z
" id="mf019222672" style="stroke:#ff7500;stroke-linejoin:bevel;stroke-width:1.5;"/>
    </defs>
    <g>
     <use style="fill-opacity:0;stroke:#ff7500;stroke-linejoin:bevel;stroke-width:1.5;" x="128.411207" xlink:href="#mf019222672" y="248.908822"/>
     <use style="fill-opacity:0;stroke:#ff7500;stroke-linejoin:bevel;stroke-width:1.5;" x="175.697687" xlink:href="#mf019222672" y="79.842591"/>
     <use style="fill-opacity:0;stroke:#ff7500;stroke-linejoin:bevel;stroke-width:1.5;" x="218.157419" xlink:href="#mf019222672" y="30.860785"/>
     <use style="fill-opacity:0;stroke:#ff7500;stroke-linejoin:bevel;stroke-width:1.5;" x="218.157419" xlink:href="#mf019222672" y="30.334099"/>
     <use style="fill-opacity:0;stroke:#ff7500;stroke-linejoin:bevel;stroke-width:1.5;" x="218.157419" xlink:href="#mf019222672" y="30.334099"/>
     <use style="fill-opacity:0;stroke:#ff7500;stroke-linejoin:bevel;stroke-width:1.5;" x="338.688" xlink:href="#mf019222672" y="30.334099"/>
    </g>
   </g>
   <g id="line2d_46">
    <path style="fill:none;stroke:#ff7500;stroke-linecap:square;stroke-width:1.5;"/>
    <g/>
   </g>
   <g id="line2d_47">
    <path clip-path="url(#p3425c8f894)" d="M 178.066286 39.287762 
" style="fill:none;stroke:#ff7500;stroke-linecap:square;stroke-width:1.5;"/>
    <defs>
     <path d="M -12 12 
L 12 -12 
M -12 -12 
L 12 12 
" id="m7c3e42c6be" style="stroke:#ff7500;"/>
    </defs>
    <g clip-path="url(#p3425c8f894)">
     <use style="fill:#ff7500;stroke:#ff7500;" x="178.066286" xlink:href="#m7c3e42c6be" y="39.287762"/>
    </g>
   </g>
   <g id="line2d_48">
    <defs>
     <path d="M 0 1.5 
C 0.397805 1.5 0.77937 1.341951 1.06066 1.06066 
C 1.341951 0.77937 1.5 0.397805 1.5 0 
C 1.5 -0.397805 1.341951 -0.77937 1.06066 -1.06066 
C 0.77937 -1.341951 0.397805 -1.5 0 -1.5 
C -0.397805 -1.5 -0.77937 -1.341951 -1.06066 -1.06066 
C -1.341951 -0.77937 -1.5 -0.397805 -1.5 0 
C -1.5 0.397805 -1.341951 0.77937 -1.06066 1.06066 
C -0.77937 1.341951 -0.397805 1.5 0 1.5 
z
" id="m7d0a8ea8e1" style="stroke:#6495ed;"/>
    </defs>
    <g>
     <use style="fill:#6495ed;stroke:#6495ed;" x="171.217072" xlink:href="#m7d0a8ea8e1" y="30.334099"/>
     <use style="fill:#6495ed;stroke:#6495ed;" x="171.217072" xlink:href="#m7d0a8ea8e1" y="30.334099"/>
    </g>
   </g>
   <g id="line2d_49">
    <path d="M 29.53256 298.944 
L 29.53256 294.730511 
L 41.620548 294.730511 
L 41.620548 292.623767 
L 48.691568 292.623767 
L 48.691568 289.990337 
L 57.6 289.990337 
L 57.6 288.410278 
L 60.779557 288.410278 
L 60.779557 285.250162 
L 63.467834 285.250162 
L 63.467834 284.19679 
L 67.850577 284.19679 
L 67.850577 282.616732 
L 69.687988 282.616732 
L 69.687988 279.456615 
L 71.35013 279.456615 
L 71.35013 278.403243 
L 74.263433 278.403243 
L 74.263433 276.823185 
L 77.884514 276.823185 
L 77.884514 274.71644 
L 81.775977 274.71644 
L 81.775977 273.663068 
L 82.626842 273.663068 
L 82.626842 273.136382 
L 84.955534 273.136382 
L 84.955534 272.609696 
L 86.351421 272.609696 
L 86.351421 272.08301 
L 88.846997 272.08301 
L 88.846997 271.029638 
L 96.301313 271.029638 
L 96.301313 270.502952 
L 97.755429 270.502952 
L 97.755429 269.976266 
L 98.100772 269.976266 
L 98.100772 269.449579 
L 99.731799 269.449579 
L 99.731799 268.396207 
L 100.934985 268.396207 
L 100.934985 267.869521 
L 103.372333 267.869521 
L 103.372333 267.342835 
L 105.51043 267.342835 
L 105.51043 266.816149 
L 105.732589 266.816149 
L 105.732589 266.289463 
L 106.382575 266.289463 
L 106.382575 265.762777 
L 106.593963 265.762777 
L 106.593963 265.236091 
L 107.811151 265.236091 
L 107.811151 263.656033 
L 108.948899 263.656033 
L 108.948899 263.129347 
L 109.131511 263.129347 
L 109.131511 258.915858 
L 109.491096 258.915858 
L 109.491096 257.862486 
L 112.58145 257.862486 
L 112.58145 257.3358 
L 112.877038 257.3358 
L 112.877038 255.755741 
L 113.311233 255.755741 
L 113.311233 254.702369 
L 114.284194 254.702369 
L 114.284194 253.648997 
L 114.418861 253.648997 
L 114.418861 252.595625 
L 116.797786 252.595625 
L 116.797786 252.068939 
L 117.709852 252.068939 
L 117.709852 251.015567 
L 119.097192 251.015567 
L 119.097192 250.488881 
L 120.286695 250.488881 
L 120.382253 249.435508 
L 120.944859 249.435508 
L 120.944859 248.908822 
L 121.756135 248.908822 
L 121.756135 248.382136 
L 121.931406 248.382136 
L 121.931406 247.85545 
L 122.531342 247.85545 
L 122.531342 247.328764 
L 122.782271 247.328764 
L 122.782271 246.275392 
L 123.593547 246.275392 
L 123.593547 245.748706 
L 123.751369 245.748706 
L 123.751369 245.22202 
L 124.292765 245.22202 
L 124.292765 244.168648 
L 124.817858 244.168648 
L 124.891598 241.535217 
L 125.255688 241.535217 
L 125.255688 241.008531 
L 125.822869 241.008531 
L 125.822869 239.428473 
L 126.304457 239.428473 
L 126.304457 238.901787 
L 126.640485 238.901787 
L 126.640485 238.375101 
L 127.229484 238.375101 
L 127.293718 236.795043 
L 127.421479 236.795043 
L 127.421479 236.268356 
L 127.674226 236.268356 
L 127.736845 234.161612 
L 128.107907 234.161612 
L 128.107907 233.634926 
L 128.590686 233.634926 
L 128.590686 232.581554 
L 128.709321 232.581554 
L 128.709321 232.054868 
L 128.827155 232.054868 
L 128.827155 231.528182 
L 129.06046 231.528182 
L 129.06046 229.948123 
L 129.46138 229.948123 
L 129.46138 229.421437 
L 129.79784 229.421437 
L 129.79784 228.894751 
L 130.505303 228.894751 
L 130.61164 226.788007 
L 130.822389 226.788007 
L 130.822389 225.734635 
L 131.133813 225.734635 
L 131.133813 225.207949 
L 131.338382 225.207949 
L 131.338382 224.154577 
L 131.540579 224.154577 
L 131.540579 223.101204 
L 131.839545 223.101204 
L 131.839545 222.574518 
L 132.084827 222.574518 
L 132.181982 220.467774 
L 132.565279 220.467774 
L 132.659801 218.36103 
L 132.893889 218.36103 
L 132.893889 217.834344 
L 133.032848 217.834344 
L 133.032848 217.307658 
L 133.216421 217.307658 
L 133.216421 216.780971 
L 133.352844 216.780971 
L 133.398082 215.200913 
L 134.703375 215.200913 
L 134.703375 214.674227 
L 135.361539 214.674227 
L 135.361539 214.147541 
L 135.522271 214.147541 
L 135.522271 213.620855 
L 135.681535 213.620855 
L 135.721125 210.460738 
L 135.956794 210.460738 
L 135.956794 209.934052 
L 136.757427 209.934052 
L 136.757427 209.407366 
L 137.089613 209.407366 
L 137.089613 208.88068 
L 137.664982 208.88068 
L 137.664982 208.353994 
L 137.875944 208.353994 
L 137.875944 207.827308 
L 138.324456 207.827308 
L 138.324456 207.300622 
L 138.628343 207.300622 
L 138.628343 205.720564 
L 139.123342 205.720564 
L 139.123342 205.193878 
L 139.349619 205.193878 
L 139.349619 203.613819 
L 139.667863 203.613819 
L 139.667863 203.087133 
L 140.073083 203.087133 
L 140.073083 202.560447 
L 140.678675 202.560447 
L 140.678675 202.033761 
L 141.177393 202.033761 
L 141.177393 201.507075 
L 141.407239 201.507075 
L 141.407239 200.453703 
L 141.605898 200.453703 
L 141.605898 199.927017 
L 142.243147 199.927017 
L 142.243147 198.346959 
L 142.486301 198.346959 
L 142.486301 197.820273 
L 142.699628 197.820273 
L 142.699628 197.293586 
L 143.040814 197.293586 
L 143.040814 196.7669 
L 143.170282 196.7669 
L 143.170282 196.240214 
L 144.099593 196.240214 
L 144.148442 194.660156 
L 144.582038 194.660156 
L 144.582038 194.13347 
L 144.700592 194.13347 
L 144.700592 192.553412 
L 144.818346 192.553412 
L 144.818346 192.026726 
L 144.981877 192.026726 
L 144.981877 191.50004 
L 145.732804 191.50004 
L 145.732804 190.973354 
L 145.865929 190.973354 
L 145.865929 190.446667 
L 146.431341 190.446667 
L 146.516724 188.866609 
L 146.749392 188.866609 
L 146.833235 187.286551 
L 147.409112 187.286551 
L 147.449528 184.653121 
L 147.70997 184.653121 
L 147.70997 184.126434 
L 148.025265 184.126434 
L 148.083753 182.546376 
L 148.956849 182.546376 
L 148.956849 182.01969 
L 149.413639 182.01969 
L 149.449671 180.966318 
L 149.646525 180.966318 
L 149.752971 179.38626 
L 150.632448 179.38626 
L 150.682827 178.332888 
L 150.899466 178.332888 
L 150.899466 177.279515 
L 151.113448 177.279515 
L 151.178764 174.119399 
L 151.660987 174.119399 
L 151.660987 173.592713 
L 152.253262 173.592713 
L 152.253262 172.539341 
L 152.481628 172.539341 
L 152.481628 172.012655 
L 153.308709 172.012655 
L 153.308709 171.485969 
L 153.495227 171.485969 
L 153.495227 170.959282 
L 153.637357 170.959282 
L 153.722083 169.379224 
L 153.904255 169.379224 
L 153.904255 168.325852 
L 154.235652 168.325852 
L 154.276638 167.27248 
L 154.747816 167.27248 
L 154.800864 166.219108 
L 154.998366 166.219108 
L 154.998366 165.165736 
L 155.193657 165.165736 
L 155.193657 164.112363 
L 155.386785 164.112363 
L 155.412374 163.058991 
L 155.577798 163.058991 
L 155.577798 162.005619 
L 156.027868 162.005619 
L 156.027868 161.478933 
L 156.150854 161.478933 
L 156.224231 160.425561 
L 156.406335 160.425561 
L 156.406335 159.898875 
L 156.717545 159.898875 
L 156.717545 159.372189 
L 156.92979 159.372189 
L 156.92979 157.79213 
L 157.069866 157.79213 
L 157.104709 156.738758 
L 157.220355 156.738758 
L 157.220355 156.212072 
L 157.596634 156.212072 
L 157.697862 154.632014 
L 158.042106 154.632014 
L 158.042106 154.105328 
L 158.763686 154.105328 
L 158.868869 152.52527 
L 158.942121 152.52527 
L 158.994256 149.891839 
L 159.129083 149.891839 
L 159.17036 148.838467 
L 159.446449 148.838467 
L 159.446449 148.311781 
L 159.688246 148.311781 
L 159.788013 143.04492 
L 159.827761 143.04492 
L 159.827761 142.518234 
L 160.054568 142.518234 
L 160.152267 141.464862 
L 160.802491 141.464862 
L 160.877419 140.41149 
L 160.961329 140.41149 
L 161.054091 138.304745 
L 161.072584 138.304745 
L 161.072584 137.251373 
L 161.384008 137.251373 
L 161.420284 135.671315 
L 161.519653 135.671315 
L 161.627414 131.984513 
L 161.64531 131.984513 
L 161.689969 128.29771 
L 161.937967 128.29771 
L 161.937967 127.771024 
L 162.286241 127.771024 
L 162.355069 126.190966 
L 162.627697 126.190966 
L 162.653039 125.137593 
L 162.879471 125.137593 
L 162.979172 123.557535 
L 163.01228 123.557535 
L 163.01228 122.504163 
L 163.209614 122.504163 
L 163.291183 120.924105 
L 163.323704 120.924105 
L 163.388564 118.817361 
L 163.533623 118.817361 
L 163.629664 114.077186 
L 163.985177 114.077186 
L 164.039833 113.023814 
L 164.148635 113.023814 
L 164.195057 110.917069 
L 164.37952 110.917069 
L 164.37952 110.390383 
L 164.809955 110.390383 
L 164.906654 107.756953 
L 165.017568 107.756953 
L 165.024937 106.703581 
L 165.14974 106.703581 
L 165.14974 105.650209 
L 165.273656 105.650209 
L 165.273656 105.123522 
L 165.389484 105.123522 
L 165.475853 101.963406 
L 165.533195 101.963406 
L 165.533195 100.910034 
L 165.675732 100.910034 
L 165.753633 98.276603 
L 165.817113 98.276603 
L 165.894387 97.223231 
L 165.929399 97.223231 
L 166.020101 95.116487 
L 166.075685 95.116487 
L 166.075685 94.589801 
L 166.193215 94.589801 
L 166.234507 93.536429 
L 166.480231 93.536429 
L 166.527611 91.429684 
L 166.601807 91.429684 
L 166.675688 90.376312 
L 166.722541 90.376312 
L 166.775933 88.796254 
L 166.908703 88.796254 
L 167.014197 86.68951 
L 167.04047 86.68951 
L 167.132118 84.582765 
L 167.236273 84.582765 
L 167.294587 83.529393 
L 167.359153 83.529393 
L 167.417059 82.476021 
L 167.481174 82.476021 
L 167.564173 79.842591 
L 167.615054 79.842591 
L 167.615054 79.315904 
L 167.741609 79.315904 
L 167.848464 74.049044 
L 167.929737 74.049044 
L 167.985782 71.942299 
L 168.146685 71.942299 
L 168.244969 69.308869 
L 168.263336 69.308869 
L 168.330516 67.202125 
L 168.403509 67.202125 
L 168.506396 64.042008 
L 168.542565 64.042008 
L 168.632659 59.82852 
L 168.746115 59.82852 
L 168.787729 56.668403 
L 168.95908 56.668403 
L 169.064596 54.034973 
L 169.198498 54.034973 
L 169.308343 51.928228 
L 169.331381 51.928228 
L 169.434674 49.821484 
L 169.486092 49.821484 
L 169.577129 47.71474 
L 169.690261 47.71474 
L 169.729685 45.607995 
L 169.808266 45.607995 
L 169.903212 43.501251 
L 170.080543 43.501251 
L 170.152072 39.814448 
L 170.195944 39.814448 
L 170.25063 38.23439 
L 170.316028 38.23439 
L 170.343204 36.127646 
L 170.446091 36.127646 
L 170.526891 34.020902 
L 170.607318 34.020902 
L 170.682051 32.967529 
L 170.756464 32.967529 
L 170.756464 32.440843 
L 170.872762 32.440843 
L 170.967341 31.387471 
L 171.061409 31.387471 
L 171.061409 30.860785 
L 171.217072 30.860785 
L 171.217072 30.334099 
L 338.688 30.334099 
L 338.688 30.334099 
" style="fill:none;stroke:#6495ed;stroke-linecap:square;stroke-width:1.5;"/>
   </g>
   <g id="line2d_50">
    <defs>
     <path d="M -0 6 
L 6 -6 
L -6 -6 
z
" id="mad9eb36e41" style="stroke:#6495ed;stroke-linejoin:miter;stroke-width:1.5;"/>
    </defs>
    <g>
     <use style="fill-opacity:0;stroke:#6495ed;stroke-linejoin:miter;stroke-width:1.5;" x="98.100772" xlink:href="#mad9eb36e41" y="269.976266"/>
     <use style="fill-opacity:0;stroke:#6495ed;stroke-linejoin:miter;stroke-width:1.5;" x="151.178764" xlink:href="#mad9eb36e41" y="174.119399"/>
     <use style="fill-opacity:0;stroke:#6495ed;stroke-linejoin:miter;stroke-width:1.5;" x="171.217072" xlink:href="#mad9eb36e41" y="30.860785"/>
     <use style="fill-opacity:0;stroke:#6495ed;stroke-linejoin:miter;stroke-width:1.5;" x="171.217072" xlink:href="#mad9eb36e41" y="30.334099"/>
     <use style="fill-opacity:0;stroke:#6495ed;stroke-linejoin:miter;stroke-width:1.5;" x="171.217072" xlink:href="#mad9eb36e41" y="30.334099"/>
     <use style="fill-opacity:0;stroke:#6495ed;stroke-linejoin:miter;stroke-width:1.5;" x="338.688" xlink:href="#mad9eb36e41" y="30.334099"/>
    </g>
   </g>
   <g id="line2d_51">
    <path style="fill:none;stroke:#6495ed;stroke-linecap:square;stroke-width:1.5;"/>
    <g/>
   </g>
   <g id="line2d_52">
    <path d="M 338.688 30.334099 
L 369.60768 293.571802 
" style="fill:none;stroke:#ff7500;stroke-linecap:square;stroke-width:1.5;"/>
    <g>
     <use style="fill-opacity:0;stroke:#ff7500;stroke-linejoin:bevel;stroke-width:1.5;" x="338.688" xlink:href="#mf019222672" y="30.334099"/>
     <use style="fill-opacity:0;stroke:#ff7500;stroke-linejoin:bevel;stroke-width:1.5;" x="369.60768" xlink:href="#mf019222672" y="293.571802"/>
    </g>
   </g>
   <g id="line2d_53">
    <path d="M 338.688 30.334099 
L 369.60768 229.105426 
" style="fill:none;stroke:#ff00ff;stroke-linecap:square;stroke-width:1.5;"/>
    <g>
     <use style="fill-opacity:0;stroke:#ff00ff;stroke-linejoin:miter;stroke-width:1.5;" x="338.688" xlink:href="#m32e0063b5f" y="30.334099"/>
     <use style="fill-opacity:0;stroke:#ff00ff;stroke-linejoin:miter;stroke-width:1.5;" x="369.60768" xlink:href="#m32e0063b5f" y="229.105426"/>
    </g>
   </g>
   <g id="line2d_54">
    <path d="M 338.688 30.334099 
L 369.60768 164.63905 
" style="fill:none;stroke:#6495ed;stroke-linecap:square;stroke-width:1.5;"/>
    <g>
     <use style="fill-opacity:0;stroke:#6495ed;stroke-linejoin:miter;stroke-width:1.5;" x="338.688" xlink:href="#mad9eb36e41" y="30.334099"/>
     <use style="fill-opacity:0;stroke:#6495ed;stroke-linejoin:miter;stroke-width:1.5;" x="369.60768" xlink:href="#mad9eb36e41" y="164.63905"/>
    </g>
   </g>
   <g id="line2d_55">
    <path d="M 338.688 30.334099 
L 369.60768 100.172673 
" style="fill:none;stroke:#000080;stroke-linecap:square;stroke-width:1.5;"/>
    <g>
     <use style="fill-opacity:0;stroke:#000080;stroke-width:1.5;" x="338.688" xlink:href="#m58b92adb7e" y="30.334099"/>
     <use style="fill-opacity:0;stroke:#000080;stroke-width:1.5;" x="369.60768" xlink:href="#m58b92adb7e" y="100.172673"/>
    </g>
   </g>
   <g id="line2d_56">
    <path d="M 338.688 298.944 
L 338.688 30.334099 
" style="fill:none;stroke:#000000;stroke-linecap:square;stroke-width:1.5;"/>
   </g>
   <g id="patch_3">
    <path d="M 57.6 298.944 
L 57.6 27.648 
" style="fill:none;stroke:#000000;stroke-linecap:square;stroke-linejoin:miter;stroke-width:0.8;"/>
   </g>
   <g id="patch_4">
    <path d="M 338.688 298.944 
L 338.688 27.648 
" style="fill:none;stroke:#000000;stroke-linecap:square;stroke-linejoin:miter;stroke-width:0.8;"/>
   </g>
   <g id="patch_5">
    <path d="M 57.6 298.944 
L 338.688 298.944 
" style="fill:none;stroke:#000000;stroke-linecap:square;stroke-linejoin:miter;stroke-width:0.8;"/>
   </g>
   <g id="patch_6">
    <path d="M 57.6 27.648 
L 338.688 27.648 
" style="fill:none;stroke:#000000;stroke-linecap:square;stroke-linejoin:miter;stroke-width:0.8;"/>
   </g>
   <g id="text_13">
    <!-- DEPSO -->
    <defs>
     <path d="M 19.671875 64.796875 
L 19.671875 8.109375 
L 31.59375 8.109375 
Q 46.6875 8.109375 53.6875 14.9375 
Q 60.6875 21.78125 60.6875 36.53125 
Q 60.6875 51.171875 53.6875 57.984375 
Q 46.6875 64.796875 31.59375 64.796875 
z
M 9.8125 72.90625 
L 30.078125 72.90625 
Q 51.265625 72.90625 61.171875 64.09375 
Q 71.09375 55.28125 71.09375 36.53125 
Q 71.09375 17.671875 61.125 8.828125 
Q 51.171875 0 30.078125 0 
L 9.8125 0 
z
" id="DejaVuSans-68"/>
     <path d="M 9.8125 72.90625 
L 55.90625 72.90625 
L 55.90625 64.59375 
L 19.671875 64.59375 
L 19.671875 43.015625 
L 54.390625 43.015625 
L 54.390625 34.71875 
L 19.671875 34.71875 
L 19.671875 8.296875 
L 56.78125 8.296875 
L 56.78125 0 
L 9.8125 0 
z
" id="DejaVuSans-69"/>
     <path d="M 19.671875 64.796875 
L 19.671875 37.40625 
L 32.078125 37.40625 
Q 38.96875 37.40625 42.71875 40.96875 
Q 46.484375 44.53125 46.484375 51.125 
Q 46.484375 57.671875 42.71875 61.234375 
Q 38.96875 64.796875 32.078125 64.796875 
z
M 9.8125 72.90625 
L 32.078125 72.90625 
Q 44.34375 72.90625 50.609375 67.359375 
Q 56.890625 61.8125 56.890625 51.125 
Q 56.890625 40.328125 50.609375 34.8125 
Q 44.34375 29.296875 32.078125 29.296875 
L 19.671875 29.296875 
L 19.671875 0 
L 9.8125 0 
z
" id="DejaVuSans-80"/>
     <path d="M 53.515625 70.515625 
L 53.515625 60.890625 
Q 47.90625 63.578125 42.921875 64.890625 
Q 37.9375 66.21875 33.296875 66.21875 
Q 25.25 66.21875 20.875 63.09375 
Q 16.5 59.96875 16.5 54.203125 
Q 16.5 49.359375 19.40625 46.890625 
Q 22.3125 44.4375 30.421875 42.921875 
L 36.375 41.703125 
Q 47.40625 39.59375 52.65625 34.296875 
Q 57.90625 29 57.90625 20.125 
Q 57.90625 9.515625 50.796875 4.046875 
Q 43.703125 -1.421875 29.984375 -1.421875 
Q 24.8125 -1.421875 18.96875 -0.25 
Q 13.140625 0.921875 6.890625 3.21875 
L 6.890625 13.375 
Q 12.890625 10.015625 18.65625 8.296875 
Q 24.421875 6.59375 29.984375 6.59375 
Q 38.421875 6.59375 43.015625 9.90625 
Q 47.609375 13.234375 47.609375 19.390625 
Q 47.609375 24.75 44.3125 27.78125 
Q 41.015625 30.8125 33.5 32.328125 
L 27.484375 33.5 
Q 16.453125 35.6875 11.515625 40.375 
Q 6.59375 45.0625 6.59375 53.421875 
Q 6.59375 63.09375 13.40625 68.65625 
Q 20.21875 74.21875 32.171875 74.21875 
Q 37.3125 74.21875 42.625 73.28125 
Q 47.953125 72.359375 53.515625 70.515625 
z
" id="DejaVuSans-83"/>
     <path d="M 39.40625 66.21875 
Q 28.65625 66.21875 22.328125 58.203125 
Q 16.015625 50.203125 16.015625 36.375 
Q 16.015625 22.609375 22.328125 14.59375 
Q 28.65625 6.59375 39.40625 6.59375 
Q 50.140625 6.59375 56.421875 14.59375 
Q 62.703125 22.609375 62.703125 36.375 
Q 62.703125 50.203125 56.421875 58.203125 
Q 50.140625 66.21875 39.40625 66.21875 
z
M 39.40625 74.21875 
Q 54.734375 74.21875 63.90625 63.9375 
Q 73.09375 53.65625 73.09375 36.375 
Q 73.09375 19.140625 63.90625 8.859375 
Q 54.734375 -1.421875 39.40625 -1.421875 
Q 24.03125 -1.421875 14.8125 8.828125 
Q 5.609375 19.09375 5.609375 36.375 
Q 5.609375 53.65625 14.8125 63.9375 
Q 24.03125 74.21875 39.40625 74.21875 
z
" id="DejaVuSans-79"/>
    </defs>
    <g transform="translate(375.22944 298.262739)scale(0.17 -0.17)">
     <use xlink:href="#DejaVuSans-68"/>
     <use x="77.001953" xlink:href="#DejaVuSans-69"/>
     <use x="140.185547" xlink:href="#DejaVuSans-80"/>
     <use x="200.488281" xlink:href="#DejaVuSans-83"/>
     <use x="263.964844" xlink:href="#DejaVuSans-79"/>
    </g>
   </g>
   <g id="text_14">
    <!-- DE -->
    <g transform="translate(375.22944 233.796363)scale(0.17 -0.17)">
     <use xlink:href="#DejaVuSans-68"/>
     <use x="77.001953" xlink:href="#DejaVuSans-69"/>
    </g>
   </g>
   <g id="text_15">
    <!-- PSO -->
    <g transform="translate(375.22944 169.329987)scale(0.17 -0.17)">
     <use xlink:href="#DejaVuSans-80"/>
     <use x="60.302734" xlink:href="#DejaVuSans-83"/>
     <use x="123.779297" xlink:href="#DejaVuSans-79"/>
    </g>
   </g>
   <g id="text_16">
    <!-- CMA-ES -->
    <defs>
     <path d="M 64.40625 67.28125 
L 64.40625 56.890625 
Q 59.421875 61.53125 53.78125 63.8125 
Q 48.140625 66.109375 41.796875 66.109375 
Q 29.296875 66.109375 22.65625 58.46875 
Q 16.015625 50.828125 16.015625 36.375 
Q 16.015625 21.96875 22.65625 14.328125 
Q 29.296875 6.6875 41.796875 6.6875 
Q 48.140625 6.6875 53.78125 8.984375 
Q 59.421875 11.28125 64.40625 15.921875 
L 64.40625 5.609375 
Q 59.234375 2.09375 53.4375 0.328125 
Q 47.65625 -1.421875 41.21875 -1.421875 
Q 24.65625 -1.421875 15.125 8.703125 
Q 5.609375 18.84375 5.609375 36.375 
Q 5.609375 53.953125 15.125 64.078125 
Q 24.65625 74.21875 41.21875 74.21875 
Q 47.75 74.21875 53.53125 72.484375 
Q 59.328125 70.75 64.40625 67.28125 
z
" id="DejaVuSans-67"/>
     <path d="M 9.8125 72.90625 
L 24.515625 72.90625 
L 43.109375 23.296875 
L 61.8125 72.90625 
L 76.515625 72.90625 
L 76.515625 0 
L 66.890625 0 
L 66.890625 64.015625 
L 48.09375 14.015625 
L 38.1875 14.015625 
L 19.390625 64.015625 
L 19.390625 0 
L 9.8125 0 
z
" id="DejaVuSans-77"/>
     <path d="M 34.1875 63.1875 
L 20.796875 26.90625 
L 47.609375 26.90625 
z
M 28.609375 72.90625 
L 39.796875 72.90625 
L 67.578125 0 
L 57.328125 0 
L 50.6875 18.703125 
L 17.828125 18.703125 
L 11.1875 0 
L 0.78125 0 
z
" id="DejaVuSans-65"/>
    </defs>
    <g transform="translate(375.22944 104.863611)scale(0.17 -0.17)">
     <use xlink:href="#DejaVuSans-67"/>
     <use x="69.824219" xlink:href="#DejaVuSans-77"/>
     <use x="156.103516" xlink:href="#DejaVuSans-65"/>
     <use x="222.261719" xlink:href="#DejaVuSans-45"/>
     <use x="258.345703" xlink:href="#DejaVuSans-69"/>
     <use x="321.529297" xlink:href="#DejaVuSans-83"/>
    </g>
   </g>
   <g id="text_17">
    <!-- best 2009 -->
    <defs>
     <path d="M 48.6875 27.296875 
Q 48.6875 37.203125 44.609375 42.84375 
Q 40.53125 48.484375 33.40625 48.484375 
Q 26.265625 48.484375 22.1875 42.84375 
Q 18.109375 37.203125 18.109375 27.296875 
Q 18.109375 17.390625 22.1875 11.75 
Q 26.265625 6.109375 33.40625 6.109375 
Q 40.53125 6.109375 44.609375 11.75 
Q 48.6875 17.390625 48.6875 27.296875 
z
M 18.109375 46.390625 
Q 20.953125 51.265625 25.265625 53.625 
Q 29.59375 56 35.59375 56 
Q 45.5625 56 51.78125 48.09375 
Q 58.015625 40.1875 58.015625 27.296875 
Q 58.015625 14.40625 51.78125 6.484375 
Q 45.5625 -1.421875 35.59375 -1.421875 
Q 29.59375 -1.421875 25.265625 0.953125 
Q 20.953125 3.328125 18.109375 8.203125 
L 18.109375 0 
L 9.078125 0 
L 9.078125 75.984375 
L 18.109375 75.984375 
z
" id="DejaVuSans-98"/>
     <path d="M 10.984375 1.515625 
L 10.984375 10.5 
Q 14.703125 8.734375 18.5 7.8125 
Q 22.3125 6.890625 25.984375 6.890625 
Q 35.75 6.890625 40.890625 13.453125 
Q 46.046875 20.015625 46.78125 33.40625 
Q 43.953125 29.203125 39.59375 26.953125 
Q 35.25 24.703125 29.984375 24.703125 
Q 19.046875 24.703125 12.671875 31.3125 
Q 6.296875 37.9375 6.296875 49.421875 
Q 6.296875 60.640625 12.9375 67.421875 
Q 19.578125 74.21875 30.609375 74.21875 
Q 43.265625 74.21875 49.921875 64.515625 
Q 56.59375 54.828125 56.59375 36.375 
Q 56.59375 19.140625 48.40625 8.859375 
Q 40.234375 -1.421875 26.421875 -1.421875 
Q 22.703125 -1.421875 18.890625 -0.6875 
Q 15.09375 0.046875 10.984375 1.515625 
z
M 30.609375 32.421875 
Q 37.25 32.421875 41.125 36.953125 
Q 45.015625 41.5 45.015625 49.421875 
Q 45.015625 57.28125 41.125 61.84375 
Q 37.25 66.40625 30.609375 66.40625 
Q 23.96875 66.40625 20.09375 61.84375 
Q 16.21875 57.28125 16.21875 49.421875 
Q 16.21875 41.5 20.09375 36.953125 
Q 23.96875 32.421875 30.609375 32.421875 
z
" id="DejaVuSans-57"/>
    </defs>
    <g transform="translate(375.22944 40.397235)scale(0.17 -0.17)">
     <use xlink:href="#DejaVuSans-98"/>
     <use x="63.476562" xlink:href="#DejaVuSans-101"/>
     <use x="125" xlink:href="#DejaVuSans-115"/>
     <use x="177.099609" xlink:href="#DejaVuSans-116"/>
     <use x="216.308594" xlink:href="#DejaVuSans-32"/>
     <use x="248.095703" xlink:href="#DejaVuSans-50"/>
     <use x="311.71875" xlink:href="#DejaVuSans-48"/>
     <use x="375.341797" xlink:href="#DejaVuSans-48"/>
     <use x="438.964844" xlink:href="#DejaVuSans-57"/>
    </g>
   </g>
   <g id="text_18">
    <!-- bbob f1, 5-D -->
    <defs>
     <path d="M 10.796875 72.90625 
L 49.515625 72.90625 
L 49.515625 64.59375 
L 19.828125 64.59375 
L 19.828125 46.734375 
Q 21.96875 47.46875 24.109375 47.828125 
Q 26.265625 48.1875 28.421875 48.1875 
Q 40.625 48.1875 47.75 41.5 
Q 54.890625 34.8125 54.890625 23.390625 
Q 54.890625 11.625 47.5625 5.09375 
Q 40.234375 -1.421875 26.90625 -1.421875 
Q 22.3125 -1.421875 17.546875 -0.640625 
Q 12.796875 0.140625 7.71875 1.703125 
L 7.71875 11.625 
Q 12.109375 9.234375 16.796875 8.0625 
Q 21.484375 6.890625 26.703125 6.890625 
Q 35.15625 6.890625 40.078125 11.328125 
Q 45.015625 15.765625 45.015625 23.390625 
Q 45.015625 31 40.078125 35.4375 
Q 35.15625 39.890625 26.703125 39.890625 
Q 22.75 39.890625 18.8125 39.015625 
Q 14.890625 38.140625 10.796875 36.28125 
z
" id="DejaVuSans-53"/>
    </defs>
    <g transform="translate(60.41088 38.111366)scale(0.102 -0.102)">
     <use xlink:href="#DejaVuSans-98"/>
     <use x="63.476562" xlink:href="#DejaVuSans-98"/>
     <use x="126.953125" xlink:href="#DejaVuSans-111"/>
     <use x="188.134766" xlink:href="#DejaVuSans-98"/>
     <use x="251.611328" xlink:href="#DejaVuSans-32"/>
     <use x="283.398438" xlink:href="#DejaVuSans-102"/>
     <use x="318.603516" xlink:href="#DejaVuSans-49"/>
     <use x="382.226562" xlink:href="#DejaVuSans-44"/>
     <use x="414.013672" xlink:href="#DejaVuSans-32"/>
     <use x="445.800781" xlink:href="#DejaVuSans-53"/>
     <use x="509.423828" xlink:href="#DejaVuSans-45"/>
     <use x="545.507812" xlink:href="#DejaVuSans-68"/>
    </g>
    <!-- 51 targets: 100..1e-08 -->
    <defs>
     <path d="M 11.71875 12.40625 
L 22.015625 12.40625 
L 22.015625 0 
L 11.71875 0 
z
M 11.71875 51.703125 
L 22.015625 51.703125 
L 22.015625 39.3125 
L 11.71875 39.3125 
z
" id="DejaVuSans-58"/>
    </defs>
    <g transform="translate(60.41088 49.533135)scale(0.102 -0.102)">
     <use xlink:href="#DejaVuSans-53"/>
     <use x="63.623047" xlink:href="#DejaVuSans-49"/>
     <use x="127.246094" xlink:href="#DejaVuSans-32"/>
     <use x="159.033203" xlink:href="#DejaVuSans-116"/>
     <use x="198.242188" xlink:href="#DejaVuSans-97"/>
     <use x="259.521484" xlink:href="#DejaVuSans-114"/>
     <use x="298.884766" xlink:href="#DejaVuSans-103"/>
     <use x="362.361328" xlink:href="#DejaVuSans-101"/>
     <use x="423.884766" xlink:href="#DejaVuSans-116"/>
     <use x="463.09375" xlink:href="#DejaVuSans-115"/>
     <use x="515.193359" xlink:href="#DejaVuSans-58"/>
     <use x="548.884766" xlink:href="#DejaVuSans-32"/>
     <use x="580.671875" xlink:href="#DejaVuSans-49"/>
     <use x="644.294922" xlink:href="#DejaVuSans-48"/>
     <use x="707.917969" xlink:href="#DejaVuSans-48"/>
     <use x="771.541016" xlink:href="#DejaVuSans-46"/>
     <use x="803.328125" xlink:href="#DejaVuSans-46"/>
     <use x="835.115234" xlink:href="#DejaVuSans-49"/>
     <use x="898.738281" xlink:href="#DejaVuSans-101"/>
     <use x="960.261719" xlink:href="#DejaVuSans-45"/>
     <use x="996.345703" xlink:href="#DejaVuSans-48"/>
     <use x="1059.96875" xlink:href="#DejaVuSans-56"/>
    </g>
    <!-- 24, 15 instances -->
    <g transform="translate(60.41088 60.954904)scale(0.102 -0.102)">
     <use xlink:href="#DejaVuSans-50"/>
     <use x="63.623047" xlink:href="#DejaVuSans-52"/>
     <use x="127.246094" xlink:href="#DejaVuSans-44"/>
     <use x="159.033203" xlink:href="#DejaVuSans-32"/>
     <use x="190.820312" xlink:href="#DejaVuSans-49"/>
     <use x="254.443359" xlink:href="#DejaVuSans-53"/>
     <use x="318.066406" xlink:href="#DejaVuSans-32"/>
     <use x="349.853516" xlink:href="#DejaVuSans-105"/>
     <use x="377.636719" xlink:href="#DejaVuSans-110"/>
     <use x="441.015625" xlink:href="#DejaVuSans-115"/>
     <use x="493.115234" xlink:href="#DejaVuSans-116"/>
     <use x="532.324219" xlink:href="#DejaVuSans-97"/>
     <use x="593.603516" xlink:href="#DejaVuSans-110"/>
     <use x="656.982422" xlink:href="#DejaVuSans-99"/>
     <use x="711.962891" xlink:href="#DejaVuSans-101"/>
     <use x="773.486328" xlink:href="#DejaVuSans-115"/>
    </g>
   </g>
   <g id="text_19">
    <!-- v2.4 -->
    <g style="fill:#808080;" transform="translate(187.233062 294.151352)scale(0.1 -0.1)">
     <use xlink:href="#DejaVuSans-118"/>
     <use x="59.179688" xlink:href="#DejaVuSans-50"/>
     <use x="122.802734" xlink:href="#DejaVuSans-46"/>
     <use x="154.589844" xlink:href="#DejaVuSans-52"/>
    </g>
   </g>
   <g id="text_20">
    <!-- 1 Sphere -->
    <defs>
     <path d="M 54.890625 33.015625 
L 54.890625 0 
L 45.90625 0 
L 45.90625 32.71875 
Q 45.90625 40.484375 42.875 44.328125 
Q 39.84375 48.1875 33.796875 48.1875 
Q 26.515625 48.1875 22.3125 43.546875 
Q 18.109375 38.921875 18.109375 30.90625 
L 18.109375 0 
L 9.078125 0 
L 9.078125 75.984375 
L 18.109375 75.984375 
L 18.109375 46.1875 
Q 21.34375 51.125 25.703125 53.5625 
Q 30.078125 56 35.796875 56 
Q 45.21875 56 50.046875 50.171875 
Q 54.890625 44.34375 54.890625 33.015625 
z
" id="DejaVuSans-104"/>
    </defs>
    <g transform="translate(153.376812 21.648)scale(0.2 -0.2)">
     <use xlink:href="#DejaVuSans-49"/>
     <use x="63.623047" xlink:href="#DejaVuSans-32"/>
     <use x="95.410156" xlink:href="#DejaVuSans-83"/>
     <use x="158.886719" xlink:href="#DejaVuSans-112"/>
     <use x="222.363281" xlink:href="#DejaVuSans-104"/>
     <use x="285.742188" xlink:href="#DejaVuSans-101"/>
     <use x="347.265625" xlink:href="#DejaVuSans-114"/>
     <use x="386.128906" xlink:href="#DejaVuSans-101"/>
    </g>
   </g>
  </g>
 </g>
 <defs>
  <clipPath id="p3425c8f894">
   <rect height="271.296" width="281.088" x="57.6" y="27.648"/>
  </clipPath>
 </defs>
</svg>
