<?xml version="1.0" encoding="utf-8" standalone="no"?>
<!DOCTYPE svg PUBLIC "-//W3C//DTD SVG 1.1//EN"
  "http://www.w3.org/Graphics/SVG/1.1/DTD/svg11.dtd">
<!-- Created with matplotlib (https://matplotlib.org/) -->
<svg height="345.6pt" version="1.1" viewBox="0 0 460.8 345.6" width="460.8pt" xmlns="http://www.w3.org/2000/svg" xmlns:xlink="http://www.w3.org/1999/xlink">
 <defs>
  <style type="text/css">
*{stroke-linecap:butt;stroke-linejoin:round;}
  </style>
 </defs>
 <g id="figure_1">
  <g id="patch_1">
   <path d="M 0 345.6 
L 460.8 345.6 
L 460.8 0 
L 0 0 
z
" style="fill:#ffffff;"/>
  </g>
  <g id="axes_1">
   <g id="patch_2">
    <path d="M 57.6 298.944 
L 338.688 298.944 
L 338.688 27.648 
L 57.6 27.648 
z
" style="fill:#ffffff;"/>
   </g>
   <g id="line2d_1">
    <path d="M 78.421149 298.944 
L 78.421149 293.677139 
L 87.643811 293.677139 
L 87.643811 288.410278 
L 92.026554 288.410278 
L 92.026554 283.143418 
L 92.73846 283.143418 
L 92.73846 277.876557 
L 94.294587 277.876557 
L 94.294587 272.609696 
L 107.213174 272.609696 
L 107.213174 267.342835 
L 120.665825 267.342835 
L 120.665825 262.075974 
L 131.133813 262.075974 
L 131.133813 256.809114 
L 133.667073 256.809114 
L 133.667073 251.542253 
L 136.942755 251.542253 
L 136.942755 246.275392 
L 146.226867 246.275392 
L 146.226867 241.008531 
L 155.603109 241.008531 
L 155.603109 235.74167 
L 158.025604 235.74167 
L 158.025604 230.47481 
L 158.444276 230.47481 
L 158.444276 225.207949 
L 162.547205 225.207949 
L 162.547205 219.941088 
L 162.916926 219.941088 
L 162.916926 214.674227 
L 163.725178 214.674227 
L 163.725178 209.407366 
L 164.448194 209.407366 
L 164.448194 204.140506 
L 164.783829 204.140506 
L 164.783829 198.873645 
L 165.259123 198.873645 
L 165.259123 193.606784 
L 166.320221 193.606784 
L 166.320221 188.339923 
L 166.405516 188.339923 
L 166.405516 183.073062 
L 166.463278 183.073062 
L 166.463278 72.468985 
L 167.086355 72.468985 
L 167.086355 67.202125 
L 167.135383 67.202125 
L 167.135383 61.935264 
L 167.284882 61.935264 
L 167.284882 56.668403 
L 168.238843 56.668403 
L 168.238843 51.401542 
L 168.473175 51.401542 
L 168.473175 46.134681 
L 168.602679 46.134681 
L 168.602679 40.867821 
L 168.686493 40.867821 
L 168.686493 35.60096 
L 168.844047 35.60096 
L 168.844047 30.334099 
L 338.688 30.334099 
" style="fill:none;stroke:#f5deb3;stroke-linecap:square;stroke-width:4;"/>
   </g>
   <g id="line2d_2">
    <defs>
     <path d="M -0 7.778175 
L 7.778175 0 
L 0 -7.778175 
L -7.778175 -0 
z
" id="m5d79ac3abd" style="stroke:#f5deb3;stroke-linejoin:miter;stroke-width:1.5;"/>
    </defs>
    <g>
     <use style="fill:#f5deb3;stroke:#f5deb3;stroke-linejoin:miter;stroke-width:1.5;" x="166.320221" xlink:href="#m5d79ac3abd" y="193.606784"/>
     <use style="fill:#f5deb3;stroke:#f5deb3;stroke-linejoin:miter;stroke-width:1.5;" x="168.844047" xlink:href="#m5d79ac3abd" y="35.60096"/>
     <use style="fill:#f5deb3;stroke:#f5deb3;stroke-linejoin:miter;stroke-width:1.5;" x="168.844047" xlink:href="#m5d79ac3abd" y="30.334099"/>
     <use style="fill:#f5deb3;stroke:#f5deb3;stroke-linejoin:miter;stroke-width:1.5;" x="168.844047" xlink:href="#m5d79ac3abd" y="30.334099"/>
     <use style="fill:#f5deb3;stroke:#f5deb3;stroke-linejoin:miter;stroke-width:1.5;" x="338.688" xlink:href="#m5d79ac3abd" y="30.334099"/>
    </g>
   </g>
   <g id="line2d_3">
    <path style="fill:none;stroke:#f5deb3;stroke-linecap:square;stroke-width:4;"/>
    <g/>
   </g>
   <g id="line2d_4">
    <path d="M 338.688 30.334099 
L 369.60768 35.706297 
" style="fill:none;stroke:#f5deb3;stroke-linecap:square;stroke-width:4;"/>
    <g>
     <use style="fill:#f5deb3;stroke:#f5deb3;stroke-linejoin:miter;stroke-width:1.5;" x="338.688" xlink:href="#m5d79ac3abd" y="30.334099"/>
     <use style="fill:#f5deb3;stroke:#f5deb3;stroke-linejoin:miter;stroke-width:1.5;" x="369.60768" xlink:href="#m5d79ac3abd" y="35.706297"/>
    </g>
   </g>
   <g id="matplotlib.axis_1">
    <g id="xtick_1">
     <g id="line2d_5">
      <path clip-path="url(#p542d8b877f)" d="M 57.6 298.944 
L 57.6 27.648 
" style="fill:none;stroke:#b0b0b0;stroke-linecap:square;stroke-width:0.8;"/>
     </g>
     <g id="line2d_6">
      <defs>
       <path d="M 0 0 
L 0 3.5 
" id="m7d9d64df8c" style="stroke:#000000;stroke-width:0.8;"/>
      </defs>
      <g>
       <use style="stroke:#000000;stroke-width:0.8;" x="57.6" xlink:href="#m7d9d64df8c" y="298.944"/>
      </g>
     </g>
     <g id="text_1">
      <!-- 0 -->
      <defs>
       <path d="M 31.78125 66.40625 
Q 24.171875 66.40625 20.328125 58.90625 
Q 16.5 51.421875 16.5 36.375 
Q 16.5 21.390625 20.328125 13.890625 
Q 24.171875 6.390625 31.78125 6.390625 
Q 39.453125 6.390625 43.28125 13.890625 
Q 47.125 21.390625 47.125 36.375 
Q 47.125 51.421875 43.28125 58.90625 
Q 39.453125 66.40625 31.78125 66.40625 
z
M 31.78125 74.21875 
Q 44.046875 74.21875 50.515625 64.515625 
Q 56.984375 54.828125 56.984375 36.375 
Q 56.984375 17.96875 50.515625 8.265625 
Q 44.046875 -1.421875 31.78125 -1.421875 
Q 19.53125 -1.421875 13.0625 8.265625 
Q 6.59375 17.96875 6.59375 36.375 
Q 6.59375 54.828125 13.0625 64.515625 
Q 19.53125 74.21875 31.78125 74.21875 
z
" id="DejaVuSans-48"/>
      </defs>
      <g transform="translate(51.2375 321.140875)scale(0.2 -0.2)">
       <use xlink:href="#DejaVuSans-48"/>
      </g>
     </g>
    </g>
    <g id="xtick_2">
     <g id="line2d_7">
      <path clip-path="url(#p542d8b877f)" d="M 137.910857 298.944 
L 137.910857 27.648 
" style="fill:none;stroke:#b0b0b0;stroke-linecap:square;stroke-width:0.8;"/>
     </g>
     <g id="line2d_8">
      <g>
       <use style="stroke:#000000;stroke-width:0.8;" x="137.910857" xlink:href="#m7d9d64df8c" y="298.944"/>
      </g>
     </g>
     <g id="text_2">
      <!-- 2 -->
      <defs>
       <path d="M 19.1875 8.296875 
L 53.609375 8.296875 
L 53.609375 0 
L 7.328125 0 
L 7.328125 8.296875 
Q 12.9375 14.109375 22.625 23.890625 
Q 32.328125 33.6875 34.8125 36.53125 
Q 39.546875 41.84375 41.421875 45.53125 
Q 43.3125 49.21875 43.3125 52.78125 
Q 43.3125 58.59375 39.234375 62.25 
Q 35.15625 65.921875 28.609375 65.921875 
Q 23.96875 65.921875 18.8125 64.3125 
Q 13.671875 62.703125 7.8125 59.421875 
L 7.8125 69.390625 
Q 13.765625 71.78125 18.9375 73 
Q 24.125 74.21875 28.421875 74.21875 
Q 39.75 74.21875 46.484375 68.546875 
Q 53.21875 62.890625 53.21875 53.421875 
Q 53.21875 48.921875 51.53125 44.890625 
Q 49.859375 40.875 45.40625 35.40625 
Q 44.1875 33.984375 37.640625 27.21875 
Q 31.109375 20.453125 19.1875 8.296875 
z
" id="DejaVuSans-50"/>
      </defs>
      <g transform="translate(131.548357 321.140875)scale(0.2 -0.2)">
       <use xlink:href="#DejaVuSans-50"/>
      </g>
     </g>
    </g>
    <g id="xtick_3">
     <g id="line2d_9">
      <path clip-path="url(#p542d8b877f)" d="M 218.221714 298.944 
L 218.221714 27.648 
" style="fill:none;stroke:#b0b0b0;stroke-linecap:square;stroke-width:0.8;"/>
     </g>
     <g id="line2d_10">
      <g>
       <use style="stroke:#000000;stroke-width:0.8;" x="218.221714" xlink:href="#m7d9d64df8c" y="298.944"/>
      </g>
     </g>
     <g id="text_3">
      <!-- 4 -->
      <defs>
       <path d="M 37.796875 64.3125 
L 12.890625 25.390625 
L 37.796875 25.390625 
z
M 35.203125 72.90625 
L 47.609375 72.90625 
L 47.609375 25.390625 
L 58.015625 25.390625 
L 58.015625 17.1875 
L 47.609375 17.1875 
L 47.609375 0 
L 37.796875 0 
L 37.796875 17.1875 
L 4.890625 17.1875 
L 4.890625 26.703125 
z
" id="DejaVuSans-52"/>
      </defs>
      <g transform="translate(211.859214 321.140875)scale(0.2 -0.2)">
       <use xlink:href="#DejaVuSans-52"/>
      </g>
     </g>
    </g>
    <g id="xtick_4">
     <g id="line2d_11">
      <path clip-path="url(#p542d8b877f)" d="M 298.532571 298.944 
L 298.532571 27.648 
" style="fill:none;stroke:#b0b0b0;stroke-linecap:square;stroke-width:0.8;"/>
     </g>
     <g id="line2d_12">
      <g>
       <use style="stroke:#000000;stroke-width:0.8;" x="298.532571" xlink:href="#m7d9d64df8c" y="298.944"/>
      </g>
     </g>
     <g id="text_4">
      <!-- 6 -->
      <defs>
       <path d="M 33.015625 40.375 
Q 26.375 40.375 22.484375 35.828125 
Q 18.609375 31.296875 18.609375 23.390625 
Q 18.609375 15.53125 22.484375 10.953125 
Q 26.375 6.390625 33.015625 6.390625 
Q 39.65625 6.390625 43.53125 10.953125 
Q 47.40625 15.53125 47.40625 23.390625 
Q 47.40625 31.296875 43.53125 35.828125 
Q 39.65625 40.375 33.015625 40.375 
z
M 52.59375 71.296875 
L 52.59375 62.3125 
Q 48.875 64.0625 45.09375 64.984375 
Q 41.3125 65.921875 37.59375 65.921875 
Q 27.828125 65.921875 22.671875 59.328125 
Q 17.53125 52.734375 16.796875 39.40625 
Q 19.671875 43.65625 24.015625 45.921875 
Q 28.375 48.1875 33.59375 48.1875 
Q 44.578125 48.1875 50.953125 41.515625 
Q 57.328125 34.859375 57.328125 23.390625 
Q 57.328125 12.15625 50.6875 5.359375 
Q 44.046875 -1.421875 33.015625 -1.421875 
Q 20.359375 -1.421875 13.671875 8.265625 
Q 6.984375 17.96875 6.984375 36.375 
Q 6.984375 53.65625 15.1875 63.9375 
Q 23.390625 74.21875 37.203125 74.21875 
Q 40.921875 74.21875 44.703125 73.484375 
Q 48.484375 72.75 52.59375 71.296875 
z
" id="DejaVuSans-54"/>
      </defs>
      <g transform="translate(292.170071 321.140875)scale(0.2 -0.2)">
       <use xlink:href="#DejaVuSans-54"/>
      </g>
     </g>
    </g>
    <g id="xtick_5">
     <g id="line2d_13">
      <path clip-path="url(#p542d8b877f)" d="M 97.755429 298.944 
L 97.755429 27.648 
" style="fill:none;stroke:#b0b0b0;stroke-linecap:square;stroke-width:0.8;"/>
     </g>
     <g id="line2d_14">
      <defs>
       <path d="M 0 0 
L 0 2 
" id="mf36837cf85" style="stroke:#000000;stroke-width:0.6;"/>
      </defs>
      <g>
       <use style="stroke:#000000;stroke-width:0.6;" x="97.755429" xlink:href="#mf36837cf85" y="298.944"/>
      </g>
     </g>
    </g>
    <g id="xtick_6">
     <g id="line2d_15">
      <path clip-path="url(#p542d8b877f)" d="M 178.066286 298.944 
L 178.066286 27.648 
" style="fill:none;stroke:#b0b0b0;stroke-linecap:square;stroke-width:0.8;"/>
     </g>
     <g id="line2d_16">
      <g>
       <use style="stroke:#000000;stroke-width:0.6;" x="178.066286" xlink:href="#mf36837cf85" y="298.944"/>
      </g>
     </g>
    </g>
    <g id="xtick_7">
     <g id="line2d_17">
      <path clip-path="url(#p542d8b877f)" d="M 258.377143 298.944 
L 258.377143 27.648 
" style="fill:none;stroke:#b0b0b0;stroke-linecap:square;stroke-width:0.8;"/>
     </g>
     <g id="line2d_18">
      <g>
       <use style="stroke:#000000;stroke-width:0.6;" x="258.377143" xlink:href="#mf36837cf85" y="298.944"/>
      </g>
     </g>
    </g>
    <g id="xtick_8">
     <g id="line2d_19">
      <path clip-path="url(#p542d8b877f)" d="M 338.688 298.944 
L 338.688 27.648 
" style="fill:none;stroke:#b0b0b0;stroke-linecap:square;stroke-width:0.8;"/>
     </g>
     <g id="line2d_20">
      <g>
       <use style="stroke:#000000;stroke-width:0.6;" x="338.688" xlink:href="#mf36837cf85" y="298.944"/>
      </g>
     </g>
    </g>
    <g id="text_5">
     <!-- log10(# f-evals / dimension) -->
     <defs>
      <path d="M 9.421875 75.984375 
L 18.40625 75.984375 
L 18.40625 0 
L 9.421875 0 
z
" id="DejaVuSans-108"/>
      <path d="M 30.609375 48.390625 
Q 23.390625 48.390625 19.1875 42.75 
Q 14.984375 37.109375 14.984375 27.296875 
Q 14.984375 17.484375 19.15625 11.84375 
Q 23.34375 6.203125 30.609375 6.203125 
Q 37.796875 6.203125 41.984375 11.859375 
Q 46.1875 17.53125 46.1875 27.296875 
Q 46.1875 37.015625 41.984375 42.703125 
Q 37.796875 48.390625 30.609375 48.390625 
z
M 30.609375 56 
Q 42.328125 56 49.015625 48.375 
Q 55.71875 40.765625 55.71875 27.296875 
Q 55.71875 13.875 49.015625 6.21875 
Q 42.328125 -1.421875 30.609375 -1.421875 
Q 18.84375 -1.421875 12.171875 6.21875 
Q 5.515625 13.875 5.515625 27.296875 
Q 5.515625 40.765625 12.171875 48.375 
Q 18.84375 56 30.609375 56 
z
" id="DejaVuSans-111"/>
      <path d="M 45.40625 27.984375 
Q 45.40625 37.75 41.375 43.109375 
Q 37.359375 48.484375 30.078125 48.484375 
Q 22.859375 48.484375 18.828125 43.109375 
Q 14.796875 37.75 14.796875 27.984375 
Q 14.796875 18.265625 18.828125 12.890625 
Q 22.859375 7.515625 30.078125 7.515625 
Q 37.359375 7.515625 41.375 12.890625 
Q 45.40625 18.265625 45.40625 27.984375 
z
M 54.390625 6.78125 
Q 54.390625 -7.171875 48.1875 -13.984375 
Q 42 -20.796875 29.203125 -20.796875 
Q 24.46875 -20.796875 20.265625 -20.09375 
Q 16.0625 -19.390625 12.109375 -17.921875 
L 12.109375 -9.1875 
Q 16.0625 -11.328125 19.921875 -12.34375 
Q 23.78125 -13.375 27.78125 -13.375 
Q 36.625 -13.375 41.015625 -8.765625 
Q 45.40625 -4.15625 45.40625 5.171875 
L 45.40625 9.625 
Q 42.625 4.78125 38.28125 2.390625 
Q 33.9375 0 27.875 0 
Q 17.828125 0 11.671875 7.65625 
Q 5.515625 15.328125 5.515625 27.984375 
Q 5.515625 40.671875 11.671875 48.328125 
Q 17.828125 56 27.875 56 
Q 33.9375 56 38.28125 53.609375 
Q 42.625 51.21875 45.40625 46.390625 
L 45.40625 54.6875 
L 54.390625 54.6875 
z
" id="DejaVuSans-103"/>
      <path d="M 12.40625 8.296875 
L 28.515625 8.296875 
L 28.515625 63.921875 
L 10.984375 60.40625 
L 10.984375 69.390625 
L 28.421875 72.90625 
L 38.28125 72.90625 
L 38.28125 8.296875 
L 54.390625 8.296875 
L 54.390625 0 
L 12.40625 0 
z
" id="DejaVuSans-49"/>
      <path d="M 31 75.875 
Q 24.46875 64.65625 21.28125 53.65625 
Q 18.109375 42.671875 18.109375 31.390625 
Q 18.109375 20.125 21.3125 9.0625 
Q 24.515625 -2 31 -13.1875 
L 23.1875 -13.1875 
Q 15.875 -1.703125 12.234375 9.375 
Q 8.59375 20.453125 8.59375 31.390625 
Q 8.59375 42.28125 12.203125 53.3125 
Q 15.828125 64.359375 23.1875 75.875 
z
" id="DejaVuSans-40"/>
      <path d="M 51.125 44 
L 36.921875 44 
L 32.8125 27.6875 
L 47.125 27.6875 
z
M 43.796875 71.78125 
L 38.71875 51.515625 
L 52.984375 51.515625 
L 58.109375 71.78125 
L 65.921875 71.78125 
L 60.890625 51.515625 
L 76.125 51.515625 
L 76.125 44 
L 58.984375 44 
L 54.984375 27.6875 
L 70.515625 27.6875 
L 70.515625 20.21875 
L 53.078125 20.21875 
L 48 0 
L 40.1875 0 
L 45.21875 20.21875 
L 30.90625 20.21875 
L 25.875 0 
L 18.015625 0 
L 23.09375 20.21875 
L 7.71875 20.21875 
L 7.71875 27.6875 
L 24.90625 27.6875 
L 29 44 
L 13.28125 44 
L 13.28125 51.515625 
L 30.90625 51.515625 
L 35.890625 71.78125 
z
" id="DejaVuSans-35"/>
      <path id="DejaVuSans-32"/>
      <path d="M 37.109375 75.984375 
L 37.109375 68.5 
L 28.515625 68.5 
Q 23.6875 68.5 21.796875 66.546875 
Q 19.921875 64.59375 19.921875 59.515625 
L 19.921875 54.6875 
L 34.71875 54.6875 
L 34.71875 47.703125 
L 19.921875 47.703125 
L 19.921875 0 
L 10.890625 0 
L 10.890625 47.703125 
L 2.296875 47.703125 
L 2.296875 54.6875 
L 10.890625 54.6875 
L 10.890625 58.5 
Q 10.890625 67.625 15.140625 71.796875 
Q 19.390625 75.984375 28.609375 75.984375 
z
" id="DejaVuSans-102"/>
      <path d="M 4.890625 31.390625 
L 31.203125 31.390625 
L 31.203125 23.390625 
L 4.890625 23.390625 
z
" id="DejaVuSans-45"/>
      <path d="M 56.203125 29.59375 
L 56.203125 25.203125 
L 14.890625 25.203125 
Q 15.484375 15.921875 20.484375 11.0625 
Q 25.484375 6.203125 34.421875 6.203125 
Q 39.59375 6.203125 44.453125 7.46875 
Q 49.3125 8.734375 54.109375 11.28125 
L 54.109375 2.78125 
Q 49.265625 0.734375 44.1875 -0.34375 
Q 39.109375 -1.421875 33.890625 -1.421875 
Q 20.796875 -1.421875 13.15625 6.1875 
Q 5.515625 13.8125 5.515625 26.8125 
Q 5.515625 40.234375 12.765625 48.109375 
Q 20.015625 56 32.328125 56 
Q 43.359375 56 49.78125 48.890625 
Q 56.203125 41.796875 56.203125 29.59375 
z
M 47.21875 32.234375 
Q 47.125 39.59375 43.09375 43.984375 
Q 39.0625 48.390625 32.421875 48.390625 
Q 24.90625 48.390625 20.390625 44.140625 
Q 15.875 39.890625 15.1875 32.171875 
z
" id="DejaVuSans-101"/>
      <path d="M 2.984375 54.6875 
L 12.5 54.6875 
L 29.59375 8.796875 
L 46.6875 54.6875 
L 56.203125 54.6875 
L 35.6875 0 
L 23.484375 0 
z
" id="DejaVuSans-118"/>
      <path d="M 34.28125 27.484375 
Q 23.390625 27.484375 19.1875 25 
Q 14.984375 22.515625 14.984375 16.5 
Q 14.984375 11.71875 18.140625 8.90625 
Q 21.296875 6.109375 26.703125 6.109375 
Q 34.1875 6.109375 38.703125 11.40625 
Q 43.21875 16.703125 43.21875 25.484375 
L 43.21875 27.484375 
z
M 52.203125 31.203125 
L 52.203125 0 
L 43.21875 0 
L 43.21875 8.296875 
Q 40.140625 3.328125 35.546875 0.953125 
Q 30.953125 -1.421875 24.3125 -1.421875 
Q 15.921875 -1.421875 10.953125 3.296875 
Q 6 8.015625 6 15.921875 
Q 6 25.140625 12.171875 29.828125 
Q 18.359375 34.515625 30.609375 34.515625 
L 43.21875 34.515625 
L 43.21875 35.40625 
Q 43.21875 41.609375 39.140625 45 
Q 35.0625 48.390625 27.6875 48.390625 
Q 23 48.390625 18.546875 47.265625 
Q 14.109375 46.140625 10.015625 43.890625 
L 10.015625 52.203125 
Q 14.9375 54.109375 19.578125 55.046875 
Q 24.21875 56 28.609375 56 
Q 40.484375 56 46.34375 49.84375 
Q 52.203125 43.703125 52.203125 31.203125 
z
" id="DejaVuSans-97"/>
      <path d="M 44.28125 53.078125 
L 44.28125 44.578125 
Q 40.484375 46.53125 36.375 47.5 
Q 32.28125 48.484375 27.875 48.484375 
Q 21.1875 48.484375 17.84375 46.4375 
Q 14.5 44.390625 14.5 40.28125 
Q 14.5 37.15625 16.890625 35.375 
Q 19.28125 33.59375 26.515625 31.984375 
L 29.59375 31.296875 
Q 39.15625 29.25 43.1875 25.515625 
Q 47.21875 21.78125 47.21875 15.09375 
Q 47.21875 7.46875 41.1875 3.015625 
Q 35.15625 -1.421875 24.609375 -1.421875 
Q 20.21875 -1.421875 15.453125 -0.5625 
Q 10.6875 0.296875 5.421875 2 
L 5.421875 11.28125 
Q 10.40625 8.6875 15.234375 7.390625 
Q 20.0625 6.109375 24.8125 6.109375 
Q 31.15625 6.109375 34.5625 8.28125 
Q 37.984375 10.453125 37.984375 14.40625 
Q 37.984375 18.0625 35.515625 20.015625 
Q 33.0625 21.96875 24.703125 23.78125 
L 21.578125 24.515625 
Q 13.234375 26.265625 9.515625 29.90625 
Q 5.8125 33.546875 5.8125 39.890625 
Q 5.8125 47.609375 11.28125 51.796875 
Q 16.75 56 26.8125 56 
Q 31.78125 56 36.171875 55.265625 
Q 40.578125 54.546875 44.28125 53.078125 
z
" id="DejaVuSans-115"/>
      <path d="M 25.390625 72.90625 
L 33.6875 72.90625 
L 8.296875 -9.28125 
L 0 -9.28125 
z
" id="DejaVuSans-47"/>
      <path d="M 45.40625 46.390625 
L 45.40625 75.984375 
L 54.390625 75.984375 
L 54.390625 0 
L 45.40625 0 
L 45.40625 8.203125 
Q 42.578125 3.328125 38.25 0.953125 
Q 33.9375 -1.421875 27.875 -1.421875 
Q 17.96875 -1.421875 11.734375 6.484375 
Q 5.515625 14.40625 5.515625 27.296875 
Q 5.515625 40.1875 11.734375 48.09375 
Q 17.96875 56 27.875 56 
Q 33.9375 56 38.25 53.625 
Q 42.578125 51.265625 45.40625 46.390625 
z
M 14.796875 27.296875 
Q 14.796875 17.390625 18.875 11.75 
Q 22.953125 6.109375 30.078125 6.109375 
Q 37.203125 6.109375 41.296875 11.75 
Q 45.40625 17.390625 45.40625 27.296875 
Q 45.40625 37.203125 41.296875 42.84375 
Q 37.203125 48.484375 30.078125 48.484375 
Q 22.953125 48.484375 18.875 42.84375 
Q 14.796875 37.203125 14.796875 27.296875 
z
" id="DejaVuSans-100"/>
      <path d="M 9.421875 54.6875 
L 18.40625 54.6875 
L 18.40625 0 
L 9.421875 0 
z
M 9.421875 75.984375 
L 18.40625 75.984375 
L 18.40625 64.59375 
L 9.421875 64.59375 
z
" id="DejaVuSans-105"/>
      <path d="M 52 44.1875 
Q 55.375 50.25 60.0625 53.125 
Q 64.75 56 71.09375 56 
Q 79.640625 56 84.28125 50.015625 
Q 88.921875 44.046875 88.921875 33.015625 
L 88.921875 0 
L 79.890625 0 
L 79.890625 32.71875 
Q 79.890625 40.578125 77.09375 44.375 
Q 74.3125 48.1875 68.609375 48.1875 
Q 61.625 48.1875 57.5625 43.546875 
Q 53.515625 38.921875 53.515625 30.90625 
L 53.515625 0 
L 44.484375 0 
L 44.484375 32.71875 
Q 44.484375 40.625 41.703125 44.40625 
Q 38.921875 48.1875 33.109375 48.1875 
Q 26.21875 48.1875 22.15625 43.53125 
Q 18.109375 38.875 18.109375 30.90625 
L 18.109375 0 
L 9.078125 0 
L 9.078125 54.6875 
L 18.109375 54.6875 
L 18.109375 46.1875 
Q 21.1875 51.21875 25.484375 53.609375 
Q 29.78125 56 35.6875 56 
Q 41.65625 56 45.828125 52.96875 
Q 50 49.953125 52 44.1875 
z
" id="DejaVuSans-109"/>
      <path d="M 54.890625 33.015625 
L 54.890625 0 
L 45.90625 0 
L 45.90625 32.71875 
Q 45.90625 40.484375 42.875 44.328125 
Q 39.84375 48.1875 33.796875 48.1875 
Q 26.515625 48.1875 22.3125 43.546875 
Q 18.109375 38.921875 18.109375 30.90625 
L 18.109375 0 
L 9.078125 0 
L 9.078125 54.6875 
L 18.109375 54.6875 
L 18.109375 46.1875 
Q 21.34375 51.125 25.703125 53.5625 
Q 30.078125 56 35.796875 56 
Q 45.21875 56 50.046875 50.171875 
Q 54.890625 44.34375 54.890625 33.015625 
z
" id="DejaVuSans-110"/>
      <path d="M 8.015625 75.875 
L 15.828125 75.875 
Q 23.140625 64.359375 26.78125 53.3125 
Q 30.421875 42.28125 30.421875 31.390625 
Q 30.421875 20.453125 26.78125 9.375 
Q 23.140625 -1.703125 15.828125 -13.1875 
L 8.015625 -13.1875 
Q 14.5 -2 17.703125 9.0625 
Q 20.90625 20.125 20.90625 31.390625 
Q 20.90625 42.671875 17.703125 53.65625 
Q 14.5 64.65625 8.015625 75.875 
z
" id="DejaVuSans-41"/>
     </defs>
     <g transform="translate(77.764078 342.217594)scale(0.17 -0.17)">
      <use xlink:href="#DejaVuSans-108"/>
      <use x="27.783203" xlink:href="#DejaVuSans-111"/>
      <use x="88.964844" xlink:href="#DejaVuSans-103"/>
      <use x="152.441406" xlink:href="#DejaVuSans-49"/>
      <use x="216.064453" xlink:href="#DejaVuSans-48"/>
      <use x="279.6875" xlink:href="#DejaVuSans-40"/>
      <use x="318.701172" xlink:href="#DejaVuSans-35"/>
      <use x="402.490234" xlink:href="#DejaVuSans-32"/>
      <use x="434.277344" xlink:href="#DejaVuSans-102"/>
      <use x="463.982422" xlink:href="#DejaVuSans-45"/>
      <use x="500.066406" xlink:href="#DejaVuSans-101"/>
      <use x="561.589844" xlink:href="#DejaVuSans-118"/>
      <use x="620.769531" xlink:href="#DejaVuSans-97"/>
      <use x="682.048828" xlink:href="#DejaVuSans-108"/>
      <use x="709.832031" xlink:href="#DejaVuSans-115"/>
      <use x="761.931641" xlink:href="#DejaVuSans-32"/>
      <use x="793.71875" xlink:href="#DejaVuSans-47"/>
      <use x="827.410156" xlink:href="#DejaVuSans-32"/>
      <use x="859.197266" xlink:href="#DejaVuSans-100"/>
      <use x="922.673828" xlink:href="#DejaVuSans-105"/>
      <use x="950.457031" xlink:href="#DejaVuSans-109"/>
      <use x="1047.869141" xlink:href="#DejaVuSans-101"/>
      <use x="1109.392578" xlink:href="#DejaVuSans-110"/>
      <use x="1172.771484" xlink:href="#DejaVuSans-115"/>
      <use x="1224.871094" xlink:href="#DejaVuSans-105"/>
      <use x="1252.654297" xlink:href="#DejaVuSans-111"/>
      <use x="1313.835938" xlink:href="#DejaVuSans-110"/>
      <use x="1377.214844" xlink:href="#DejaVuSans-41"/>
     </g>
    </g>
   </g>
   <g id="matplotlib.axis_2">
    <g id="ytick_1">
     <g id="line2d_21">
      <path clip-path="url(#p542d8b877f)" d="M 57.6 298.944 
L 338.688 298.944 
" style="fill:none;stroke:#b0b0b0;stroke-linecap:square;stroke-width:0.8;"/>
     </g>
     <g id="line2d_22">
      <defs>
       <path d="M 0 0 
L -3.5 0 
" id="med4940e83a" style="stroke:#000000;stroke-width:0.8;"/>
      </defs>
      <g>
       <use style="stroke:#000000;stroke-width:0.8;" x="57.6" xlink:href="#med4940e83a" y="298.944"/>
      </g>
     </g>
     <g id="text_6">
      <!-- 0.0 -->
      <defs>
       <path d="M 10.6875 12.40625 
L 21 12.40625 
L 21 0 
L 10.6875 0 
z
" id="DejaVuSans-46"/>
      </defs>
      <g transform="translate(25.155 305.02275)scale(0.16 -0.16)">
       <use xlink:href="#DejaVuSans-48"/>
       <use x="63.623047" xlink:href="#DejaVuSans-46"/>
       <use x="95.410156" xlink:href="#DejaVuSans-48"/>
      </g>
     </g>
    </g>
    <g id="ytick_2">
     <g id="line2d_23">
      <path clip-path="url(#p542d8b877f)" d="M 57.6 245.22202 
L 338.688 245.22202 
" style="fill:none;stroke:#b0b0b0;stroke-linecap:square;stroke-width:0.8;"/>
     </g>
     <g id="line2d_24">
      <g>
       <use style="stroke:#000000;stroke-width:0.8;" x="57.6" xlink:href="#med4940e83a" y="245.22202"/>
      </g>
     </g>
     <g id="text_7">
      <!-- 0.2 -->
      <g transform="translate(25.155 251.30077)scale(0.16 -0.16)">
       <use xlink:href="#DejaVuSans-48"/>
       <use x="63.623047" xlink:href="#DejaVuSans-46"/>
       <use x="95.410156" xlink:href="#DejaVuSans-50"/>
      </g>
     </g>
    </g>
    <g id="ytick_3">
     <g id="line2d_25">
      <path clip-path="url(#p542d8b877f)" d="M 57.6 191.50004 
L 338.688 191.50004 
" style="fill:none;stroke:#b0b0b0;stroke-linecap:square;stroke-width:0.8;"/>
     </g>
     <g id="line2d_26">
      <g>
       <use style="stroke:#000000;stroke-width:0.8;" x="57.6" xlink:href="#med4940e83a" y="191.50004"/>
      </g>
     </g>
     <g id="text_8">
      <!-- 0.4 -->
      <g transform="translate(25.155 197.57879)scale(0.16 -0.16)">
       <use xlink:href="#DejaVuSans-48"/>
       <use x="63.623047" xlink:href="#DejaVuSans-46"/>
       <use x="95.410156" xlink:href="#DejaVuSans-52"/>
      </g>
     </g>
    </g>
    <g id="ytick_4">
     <g id="line2d_27">
      <path clip-path="url(#p542d8b877f)" d="M 57.6 137.778059 
L 338.688 137.778059 
" style="fill:none;stroke:#b0b0b0;stroke-linecap:square;stroke-width:0.8;"/>
     </g>
     <g id="line2d_28">
      <g>
       <use style="stroke:#000000;stroke-width:0.8;" x="57.6" xlink:href="#med4940e83a" y="137.778059"/>
      </g>
     </g>
     <g id="text_9">
      <!-- 0.6 -->
      <g transform="translate(25.155 143.856809)scale(0.16 -0.16)">
       <use xlink:href="#DejaVuSans-48"/>
       <use x="63.623047" xlink:href="#DejaVuSans-46"/>
       <use x="95.410156" xlink:href="#DejaVuSans-54"/>
      </g>
     </g>
    </g>
    <g id="ytick_5">
     <g id="line2d_29">
      <path clip-path="url(#p542d8b877f)" d="M 57.6 84.056079 
L 338.688 84.056079 
" style="fill:none;stroke:#b0b0b0;stroke-linecap:square;stroke-width:0.8;"/>
     </g>
     <g id="line2d_30">
      <g>
       <use style="stroke:#000000;stroke-width:0.8;" x="57.6" xlink:href="#med4940e83a" y="84.056079"/>
      </g>
     </g>
     <g id="text_10">
      <!-- 0.8 -->
      <defs>
       <path d="M 31.78125 34.625 
Q 24.75 34.625 20.71875 30.859375 
Q 16.703125 27.09375 16.703125 20.515625 
Q 16.703125 13.921875 20.71875 10.15625 
Q 24.75 6.390625 31.78125 6.390625 
Q 38.8125 6.390625 42.859375 10.171875 
Q 46.921875 13.96875 46.921875 20.515625 
Q 46.921875 27.09375 42.890625 30.859375 
Q 38.875 34.625 31.78125 34.625 
z
M 21.921875 38.8125 
Q 15.578125 40.375 12.03125 44.71875 
Q 8.5 49.078125 8.5 55.328125 
Q 8.5 64.0625 14.71875 69.140625 
Q 20.953125 74.21875 31.78125 74.21875 
Q 42.671875 74.21875 48.875 69.140625 
Q 55.078125 64.0625 55.078125 55.328125 
Q 55.078125 49.078125 51.53125 44.71875 
Q 48 40.375 41.703125 38.8125 
Q 48.828125 37.15625 52.796875 32.3125 
Q 56.78125 27.484375 56.78125 20.515625 
Q 56.78125 9.90625 50.3125 4.234375 
Q 43.84375 -1.421875 31.78125 -1.421875 
Q 19.734375 -1.421875 13.25 4.234375 
Q 6.78125 9.90625 6.78125 20.515625 
Q 6.78125 27.484375 10.78125 32.3125 
Q 14.796875 37.15625 21.921875 38.8125 
z
M 18.3125 54.390625 
Q 18.3125 48.734375 21.84375 45.5625 
Q 25.390625 42.390625 31.78125 42.390625 
Q 38.140625 42.390625 41.71875 45.5625 
Q 45.3125 48.734375 45.3125 54.390625 
Q 45.3125 60.0625 41.71875 63.234375 
Q 38.140625 66.40625 31.78125 66.40625 
Q 25.390625 66.40625 21.84375 63.234375 
Q 18.3125 60.0625 18.3125 54.390625 
z
" id="DejaVuSans-56"/>
      </defs>
      <g transform="translate(25.155 90.134829)scale(0.16 -0.16)">
       <use xlink:href="#DejaVuSans-48"/>
       <use x="63.623047" xlink:href="#DejaVuSans-46"/>
       <use x="95.410156" xlink:href="#DejaVuSans-56"/>
      </g>
     </g>
    </g>
    <g id="ytick_6">
     <g id="line2d_31">
      <path clip-path="url(#p542d8b877f)" d="M 57.6 30.334099 
L 338.688 30.334099 
" style="fill:none;stroke:#b0b0b0;stroke-linecap:square;stroke-width:0.8;"/>
     </g>
     <g id="line2d_32">
      <g>
       <use style="stroke:#000000;stroke-width:0.8;" x="57.6" xlink:href="#med4940e83a" y="30.334099"/>
      </g>
     </g>
     <g id="text_11">
      <!-- 1.0 -->
      <g transform="translate(25.155 36.412849)scale(0.16 -0.16)">
       <use xlink:href="#DejaVuSans-49"/>
       <use x="63.623047" xlink:href="#DejaVuSans-46"/>
       <use x="95.410156" xlink:href="#DejaVuSans-48"/>
      </g>
     </g>
    </g>
    <g id="text_12">
     <!-- Fraction of function,target pairs -->
     <defs>
      <path d="M 9.8125 72.90625 
L 51.703125 72.90625 
L 51.703125 64.59375 
L 19.671875 64.59375 
L 19.671875 43.109375 
L 48.578125 43.109375 
L 48.578125 34.8125 
L 19.671875 34.8125 
L 19.671875 0 
L 9.8125 0 
z
" id="DejaVuSans-70"/>
      <path d="M 41.109375 46.296875 
Q 39.59375 47.171875 37.8125 47.578125 
Q 36.03125 48 33.890625 48 
Q 26.265625 48 22.1875 43.046875 
Q 18.109375 38.09375 18.109375 28.8125 
L 18.109375 0 
L 9.078125 0 
L 9.078125 54.6875 
L 18.109375 54.6875 
L 18.109375 46.1875 
Q 20.953125 51.171875 25.484375 53.578125 
Q 30.03125 56 36.53125 56 
Q 37.453125 56 38.578125 55.875 
Q 39.703125 55.765625 41.0625 55.515625 
z
" id="DejaVuSans-114"/>
      <path d="M 48.78125 52.59375 
L 48.78125 44.1875 
Q 44.96875 46.296875 41.140625 47.34375 
Q 37.3125 48.390625 33.40625 48.390625 
Q 24.65625 48.390625 19.8125 42.84375 
Q 14.984375 37.3125 14.984375 27.296875 
Q 14.984375 17.28125 19.8125 11.734375 
Q 24.65625 6.203125 33.40625 6.203125 
Q 37.3125 6.203125 41.140625 7.25 
Q 44.96875 8.296875 48.78125 10.40625 
L 48.78125 2.09375 
Q 45.015625 0.34375 40.984375 -0.53125 
Q 36.96875 -1.421875 32.421875 -1.421875 
Q 20.0625 -1.421875 12.78125 6.34375 
Q 5.515625 14.109375 5.515625 27.296875 
Q 5.515625 40.671875 12.859375 48.328125 
Q 20.21875 56 33.015625 56 
Q 37.15625 56 41.109375 55.140625 
Q 45.0625 54.296875 48.78125 52.59375 
z
" id="DejaVuSans-99"/>
      <path d="M 18.3125 70.21875 
L 18.3125 54.6875 
L 36.8125 54.6875 
L 36.8125 47.703125 
L 18.3125 47.703125 
L 18.3125 18.015625 
Q 18.3125 11.328125 20.140625 9.421875 
Q 21.96875 7.515625 27.59375 7.515625 
L 36.8125 7.515625 
L 36.8125 0 
L 27.59375 0 
Q 17.1875 0 13.234375 3.875 
Q 9.28125 7.765625 9.28125 18.015625 
L 9.28125 47.703125 
L 2.6875 47.703125 
L 2.6875 54.6875 
L 9.28125 54.6875 
L 9.28125 70.21875 
z
" id="DejaVuSans-116"/>
      <path d="M 8.5 21.578125 
L 8.5 54.6875 
L 17.484375 54.6875 
L 17.484375 21.921875 
Q 17.484375 14.15625 20.5 10.265625 
Q 23.53125 6.390625 29.59375 6.390625 
Q 36.859375 6.390625 41.078125 11.03125 
Q 45.3125 15.671875 45.3125 23.6875 
L 45.3125 54.6875 
L 54.296875 54.6875 
L 54.296875 0 
L 45.3125 0 
L 45.3125 8.40625 
Q 42.046875 3.421875 37.71875 1 
Q 33.40625 -1.421875 27.6875 -1.421875 
Q 18.265625 -1.421875 13.375 4.4375 
Q 8.5 10.296875 8.5 21.578125 
z
M 31.109375 56 
z
" id="DejaVuSans-117"/>
      <path d="M 11.71875 12.40625 
L 22.015625 12.40625 
L 22.015625 4 
L 14.015625 -11.625 
L 7.71875 -11.625 
L 11.71875 4 
z
" id="DejaVuSans-44"/>
      <path d="M 18.109375 8.203125 
L 18.109375 -20.796875 
L 9.078125 -20.796875 
L 9.078125 54.6875 
L 18.109375 54.6875 
L 18.109375 46.390625 
Q 20.953125 51.265625 25.265625 53.625 
Q 29.59375 56 35.59375 56 
Q 45.5625 56 51.78125 48.09375 
Q 58.015625 40.1875 58.015625 27.296875 
Q 58.015625 14.40625 51.78125 6.484375 
Q 45.5625 -1.421875 35.59375 -1.421875 
Q 29.59375 -1.421875 25.265625 0.953125 
Q 20.953125 3.328125 18.109375 8.203125 
z
M 48.6875 27.296875 
Q 48.6875 37.203125 44.609375 42.84375 
Q 40.53125 48.484375 33.40625 48.484375 
Q 26.265625 48.484375 22.1875 42.84375 
Q 18.109375 37.203125 18.109375 27.296875 
Q 18.109375 17.390625 22.1875 11.75 
Q 26.265625 6.109375 33.40625 6.109375 
Q 40.53125 6.109375 44.609375 11.75 
Q 48.6875 17.390625 48.6875 27.296875 
z
" id="DejaVuSans-112"/>
     </defs>
     <g transform="translate(17.619531 297.681)rotate(-90)scale(0.17 -0.17)">
      <use xlink:href="#DejaVuSans-70"/>
      <use x="50.269531" xlink:href="#DejaVuSans-114"/>
      <use x="91.382812" xlink:href="#DejaVuSans-97"/>
      <use x="152.662109" xlink:href="#DejaVuSans-99"/>
      <use x="207.642578" xlink:href="#DejaVuSans-116"/>
      <use x="246.851562" xlink:href="#DejaVuSans-105"/>
      <use x="274.634766" xlink:href="#DejaVuSans-111"/>
      <use x="335.816406" xlink:href="#DejaVuSans-110"/>
      <use x="399.195312" xlink:href="#DejaVuSans-32"/>
      <use x="430.982422" xlink:href="#DejaVuSans-111"/>
      <use x="492.164062" xlink:href="#DejaVuSans-102"/>
      <use x="527.369141" xlink:href="#DejaVuSans-32"/>
      <use x="559.15625" xlink:href="#DejaVuSans-102"/>
      <use x="594.361328" xlink:href="#DejaVuSans-117"/>
      <use x="657.740234" xlink:href="#DejaVuSans-110"/>
      <use x="721.119141" xlink:href="#DejaVuSans-99"/>
      <use x="776.099609" xlink:href="#DejaVuSans-116"/>
      <use x="815.308594" xlink:href="#DejaVuSans-105"/>
      <use x="843.091797" xlink:href="#DejaVuSans-111"/>
      <use x="904.273438" xlink:href="#DejaVuSans-110"/>
      <use x="967.652344" xlink:href="#DejaVuSans-44"/>
      <use x="999.439453" xlink:href="#DejaVuSans-116"/>
      <use x="1038.648438" xlink:href="#DejaVuSans-97"/>
      <use x="1099.927734" xlink:href="#DejaVuSans-114"/>
      <use x="1139.291016" xlink:href="#DejaVuSans-103"/>
      <use x="1202.767578" xlink:href="#DejaVuSans-101"/>
      <use x="1264.291016" xlink:href="#DejaVuSans-116"/>
      <use x="1303.5" xlink:href="#DejaVuSans-32"/>
      <use x="1335.287109" xlink:href="#DejaVuSans-112"/>
      <use x="1398.763672" xlink:href="#DejaVuSans-97"/>
      <use x="1460.042969" xlink:href="#DejaVuSans-105"/>
      <use x="1487.826172" xlink:href="#DejaVuSans-114"/>
      <use x="1528.939453" xlink:href="#DejaVuSans-115"/>
     </g>
    </g>
   </g>
   <g id="line2d_33">
    <defs>
     <path d="M 0 1.5 
C 0.397805 1.5 0.77937 1.341951 1.06066 1.06066 
C 1.341951 0.77937 1.5 0.397805 1.5 0 
C 1.5 -0.397805 1.341951 -0.77937 1.06066 -1.06066 
C 0.77937 -1.341951 0.397805 -1.5 0 -1.5 
C -0.397805 -1.5 -0.77937 -1.341951 -1.06066 -1.06066 
C -1.341951 -0.77937 -1.5 -0.397805 -1.5 0 
C -1.5 0.397805 -1.341951 0.77937 -1.06066 1.06066 
C -0.77937 1.341951 -0.397805 1.5 0 1.5 
z
" id="m69c49ff293" style="stroke:#f5deb3;"/>
    </defs>
    <g>
     <use style="fill:#f5deb3;stroke:#f5deb3;" x="168.844047" xlink:href="#m69c49ff293" y="30.334099"/>
     <use style="fill:#f5deb3;stroke:#f5deb3;" x="168.844047" xlink:href="#m69c49ff293" y="30.334099"/>
    </g>
   </g>
   <g id="line2d_34">
    <defs>
     <path d="M 0 1.5 
C 0.397805 1.5 0.77937 1.341951 1.06066 1.06066 
C 1.341951 0.77937 1.5 0.397805 1.5 0 
C 1.5 -0.397805 1.341951 -0.77937 1.06066 -1.06066 
C 0.77937 -1.341951 0.397805 -1.5 0 -1.5 
C -0.397805 -1.5 -0.77937 -1.341951 -1.06066 -1.06066 
C -1.341951 -0.77937 -1.5 -0.397805 -1.5 0 
C -1.5 0.397805 -1.341951 0.77937 -1.06066 1.06066 
C -0.77937 1.341951 -0.397805 1.5 0 1.5 
z
" id="m785b15248b" style="stroke:#000080;"/>
    </defs>
    <g>
     <use style="fill:#000080;stroke:#000080;" x="239.333254" xlink:href="#m785b15248b" y="193.606784"/>
     <use style="fill:#000080;stroke:#000080;" x="239.333254" xlink:href="#m785b15248b" y="193.606784"/>
    </g>
   </g>
   <g id="line2d_35">
    <path d="M 76.16779 298.944 
L 76.16779 298.417314 
L 82.206598 298.417314 
L 82.206598 297.890628 
L 86.012784 297.890628 
L 86.012784 296.31057 
L 87.643811 296.31057 
L 87.643811 295.783884 
L 89.697862 295.783884 
L 89.697862 295.257197 
L 91.284345 295.257197 
L 91.284345 294.730511 
L 91.535274 294.730511 
L 91.535274 293.677139 
L 92.267099 293.677139 
L 92.267099 293.150453 
L 92.73846 293.150453 
L 92.73846 292.623767 
L 94.080605 292.623767 
L 94.080605 290.517023 
L 96.86091 290.517023 
L 96.86091 289.990337 
L 97.928955 289.990337 
L 97.928955 289.463651 
L 98.43941 289.463651 
L 98.43941 288.410278 
L 98.771596 288.410278 
L 98.771596 287.883592 
L 99.41757 287.883592 
L 99.41757 287.356906 
L 100.192776 287.356906 
L 100.192776 286.83022 
L 100.343767 286.83022 
L 100.343767 286.303534 
L 100.789049 286.303534 
L 100.789049 285.776848 
L 101.365607 285.776848 
L 101.365607 285.250162 
L 102.597126 285.250162 
L 102.597126 283.670104 
L 102.728744 283.670104 
L 102.728744 283.143418 
L 103.372333 283.143418 
L 103.372333 282.090045 
L 104.355088 282.090045 
L 104.355088 281.563359 
L 106.168594 281.563359 
L 106.168594 281.036673 
L 106.48859 281.036673 
L 106.48859 280.509987 
L 106.698704 280.509987 
L 106.698704 279.983301 
L 107.213174 279.983301 
L 107.213174 279.456615 
L 108.389302 279.456615 
L 108.389302 278.929929 
L 108.948899 278.929929 
L 108.948899 278.403243 
L 109.131511 278.403243 
L 109.131511 277.876557 
L 109.756002 277.876557 
L 109.756002 277.349871 
L 110.274038 277.349871 
L 110.274038 276.823185 
L 111.023335 276.823185 
L 111.023335 276.296499 
L 113.167699 276.296499 
L 113.167699 275.769812 
L 113.453595 275.769812 
L 113.453595 275.243126 
L 113.942906 275.243126 
L 114.0117 273.663068 
L 115.269727 273.663068 
L 115.269727 273.136382 
L 115.523393 273.136382 
L 115.586238 272.08301 
L 115.711251 272.08301 
L 115.711251 271.556324 
L 116.914437 271.556324 
L 116.914437 271.029638 
L 117.202696 271.029638 
L 117.202696 270.502952 
L 118.039942 270.502952 
L 118.039942 269.976266 
L 118.890808 269.976266 
L 118.890808 269.449579 
L 119.89914 269.449579 
L 119.89914 268.922893 
L 120.712642 268.922893 
L 120.712642 268.396207 
L 121.53454 268.396207 
L 121.53454 267.869521 
L 121.974949 267.869521 
L 121.974949 267.342835 
L 122.657258 267.342835 
L 122.740699 266.289463 
L 122.782271 266.289463 
L 122.782271 265.762777 
L 123.029641 265.762777 
L 123.029641 264.709405 
L 123.152022 264.709405 
L 123.152022 264.182719 
L 123.474235 264.182719 
L 123.474235 263.656033 
L 124.706662 263.656033 
L 124.706662 263.129347 
L 124.891598 263.129347 
L 124.891598 262.60266 
L 126.673734 262.60266 
L 126.673734 262.075974 
L 126.904721 262.075974 
L 126.904721 261.549288 
L 127.261631 261.549288 
L 127.261631 261.022602 
L 129.546106 261.022602 
L 129.546106 260.495916 
L 129.79784 260.495916 
L 129.79784 259.96923 
L 130.263646 259.96923 
L 130.263646 259.442544 
L 130.717333 259.442544 
L 130.743656 257.862486 
L 131.056477 257.862486 
L 131.056477 257.3358 
L 131.740458 257.3358 
L 131.740458 256.809114 
L 132.588957 256.809114 
L 132.588957 256.282427 
L 132.753813 256.282427 
L 132.753813 255.755741 
L 133.170708 255.755741 
L 133.170708 255.229055 
L 134.513701 255.229055 
L 134.513701 254.702369 
L 136.68274 254.702369 
L 136.68274 254.175683 
L 137.415591 254.175683 
L 137.415591 253.648997 
L 137.594091 253.648997 
L 137.594091 253.122311 
L 140.499195 253.122311 
L 140.499195 252.595625 
L 141.046761 252.595625 
L 141.046761 252.068939 
L 141.191848 252.068939 
L 141.191848 251.542253 
L 157.86528 251.542253 
L 157.86528 251.015567 
L 158.113432 251.015567 
L 158.113432 250.488881 
L 158.663171 250.488881 
L 158.663171 249.962195 
L 159.817832 249.962195 
L 159.817832 249.435508 
L 160.37492 249.435508 
L 160.37492 248.908822 
L 160.689494 248.908822 
L 160.689494 248.382136 
L 160.900768 248.382136 
L 160.900768 247.85545 
L 161.510643 247.85545 
L 161.582595 246.802078 
L 161.854219 246.802078 
L 161.937967 245.748706 
L 162.850284 245.748706 
L 162.850284 245.22202 
L 163.0577 245.22202 
L 163.0577 244.695334 
L 163.266752 244.695334 
L 163.266752 244.168648 
L 164.375697 244.168648 
L 164.375697 243.641962 
L 169.279504 243.641962 
L 169.279504 243.115275 
L 170.25063 243.115275 
L 170.343204 242.061903 
L 171.019664 242.061903 
L 171.019664 241.535217 
L 171.748698 241.535217 
L 171.748698 241.008531 
L 172.554051 241.008531 
L 172.654236 239.955159 
L 172.734918 239.955159 
L 172.758578 238.901787 
L 174.255293 238.901787 
L 174.255293 238.375101 
L 176.482793 238.375101 
L 176.482793 237.848415 
L 177.08343 237.848415 
L 177.175439 236.795043 
L 177.25418 236.795043 
L 177.25418 236.268356 
L 177.628338 236.268356 
L 177.628338 235.74167 
L 177.769043 235.74167 
L 177.876917 234.688298 
L 177.984128 234.688298 
L 178.01214 233.634926 
L 181.07791 233.634926 
L 181.07791 233.10824 
L 181.374707 233.10824 
L 181.374707 232.581554 
L 181.604004 232.581554 
L 181.604004 232.054868 
L 182.127131 232.054868 
L 182.127131 231.528182 
L 182.249667 231.528182 
L 182.249667 231.001496 
L 182.508415 231.001496 
L 182.508415 230.47481 
L 183.080202 230.47481 
L 183.080202 229.948123 
L 183.345048 229.948123 
L 183.352778 228.894751 
L 183.493873 228.894751 
L 183.493873 228.368065 
L 183.660429 228.368065 
L 183.660429 227.841379 
L 184.935004 227.841379 
L 185.044047 226.788007 
L 185.775392 226.788007 
L 185.775392 226.261321 
L 186.598535 226.261321 
L 186.598535 225.734635 
L 188.573645 225.734635 
L 188.573645 225.207949 
L 188.990593 225.207949 
L 188.990593 224.681263 
L 189.641955 224.681263 
L 189.641955 224.154577 
L 189.962261 224.154577 
L 190.049323 223.101204 
L 190.175189 223.101204 
L 190.175189 222.574518 
L 190.719635 222.574518 
L 190.736509 221.521146 
L 191.841763 221.521146 
L 191.841763 220.99446 
L 192.097136 220.99446 
L 192.097136 220.467774 
L 192.451547 220.467774 
L 192.451547 219.941088 
L 193.335284 219.941088 
L 193.335284 219.414402 
L 195.102002 219.414402 
L 195.102002 218.887716 
L 195.249109 218.887716 
L 195.249109 218.36103 
L 195.91089 218.36103 
L 195.91089 217.834344 
L 196.835564 217.834344 
L 196.885426 216.780971 
L 198.996485 216.780971 
L 198.996485 216.254285 
L 199.979218 216.254285 
L 199.979218 215.727599 
L 200.713587 215.727599 
L 200.713587 215.200913 
L 201.198414 215.200913 
L 201.198414 214.674227 
L 201.760896 214.674227 
L 201.760896 214.147541 
L 202.601279 214.147541 
L 202.601279 213.620855 
L 203.188781 213.620855 
L 203.290072 212.567483 
L 203.361772 212.567483 
L 203.361772 212.040797 
L 204.846379 212.040797 
L 204.846379 211.514111 
L 205.613323 211.514111 
L 205.613323 210.987425 
L 205.965852 210.987425 
L 205.965852 210.460738 
L 206.983595 210.460738 
L 207.028052 209.407366 
L 209.183752 209.407366 
L 209.183752 208.88068 
L 211.446471 208.88068 
L 211.446471 208.353994 
L 212.719285 208.353994 
L 212.719285 207.827308 
L 212.984086 207.827308 
L 213.046378 206.24725 
L 213.593804 206.24725 
L 213.593804 205.720564 
L 213.904817 205.720564 
L 213.904817 205.193878 
L 214.427422 205.193878 
L 214.427422 204.667192 
L 215.728218 204.667192 
L 215.728218 204.140506 
L 215.963038 204.140506 
L 215.963038 203.613819 
L 218.85128 203.613819 
L 218.85128 203.087133 
L 219.922021 203.087133 
L 219.922021 202.560447 
L 220.075738 202.560447 
L 220.075738 202.033761 
L 223.327744 202.033761 
L 223.327744 201.507075 
L 223.602097 201.507075 
L 223.602097 200.980389 
L 225.991354 200.980389 
L 225.991354 200.453703 
L 226.360595 200.453703 
L 226.360595 199.927017 
L 226.725179 199.927017 
L 226.725179 199.400331 
L 227.017755 199.400331 
L 227.121703 197.820273 
L 227.828073 197.820273 
L 227.828073 197.293586 
L 228.83387 197.293586 
L 228.83387 196.7669 
L 230.650002 196.7669 
L 230.650002 196.240214 
L 232.41182 196.240214 
L 232.41182 195.713528 
L 232.599101 195.713528 
L 232.599101 195.186842 
L 233.52171 195.186842 
L 233.52171 194.660156 
L 235.164409 194.660156 
L 235.164409 194.13347 
L 239.333254 194.13347 
L 239.333254 193.606784 
L 338.688 193.606784 
L 338.688 193.606784 
" style="fill:none;stroke:#000080;stroke-linecap:square;stroke-width:1.5;"/>
   </g>
   <g id="line2d_36">
    <defs>
     <path d="M 0 6 
C 1.591219 6 3.117479 5.367802 4.242641 4.242641 
C 5.367802 3.117479 6 1.591219 6 0 
C 6 -1.591219 5.367802 -3.117479 4.242641 -4.242641 
C 3.117479 -5.367802 1.591219 -6 0 -6 
C -1.591219 -6 -3.117479 -5.367802 -4.242641 -4.242641 
C -5.367802 -3.117479 -6 -1.591219 -6 0 
C -6 1.591219 -5.367802 3.117479 -4.242641 4.242641 
C -3.117479 5.367802 -1.591219 6 0 6 
z
" id="m1caf1dbf2f" style="stroke:#000080;stroke-width:1.5;"/>
    </defs>
    <g>
     <use style="fill-opacity:0;stroke:#000080;stroke-width:1.5;" x="181.604004" xlink:href="#m1caf1dbf2f" y="232.054868"/>
     <use style="fill-opacity:0;stroke:#000080;stroke-width:1.5;" x="233.52171" xlink:href="#m1caf1dbf2f" y="194.660156"/>
     <use style="fill-opacity:0;stroke:#000080;stroke-width:1.5;" x="239.333254" xlink:href="#m1caf1dbf2f" y="193.606784"/>
     <use style="fill-opacity:0;stroke:#000080;stroke-width:1.5;" x="239.333254" xlink:href="#m1caf1dbf2f" y="193.606784"/>
     <use style="fill-opacity:0;stroke:#000080;stroke-width:1.5;" x="338.688" xlink:href="#m1caf1dbf2f" y="193.606784"/>
    </g>
   </g>
   <g id="line2d_37">
    <path style="fill:none;stroke:#000080;stroke-linecap:square;stroke-width:1.5;"/>
    <g/>
   </g>
   <g id="line2d_38">
    <path clip-path="url(#p542d8b877f)" d="M 156.717545 251.542253 
" style="fill:none;stroke:#000080;stroke-linecap:square;stroke-width:1.5;"/>
    <defs>
     <path d="M -12 12 
L 12 -12 
M -12 -12 
L 12 12 
" id="mfadc3ae0bc" style="stroke:#000080;"/>
    </defs>
    <g clip-path="url(#p542d8b877f)">
     <use style="fill:#000080;stroke:#000080;" x="156.717545" xlink:href="#mfadc3ae0bc" y="251.542253"/>
    </g>
   </g>
   <g id="line2d_39">
    <defs>
     <path d="M 0 1.5 
C 0.397805 1.5 0.77937 1.341951 1.06066 1.06066 
C 1.341951 0.77937 1.5 0.397805 1.5 0 
C 1.5 -0.397805 1.341951 -0.77937 1.06066 -1.06066 
C 0.77937 -1.341951 0.397805 -1.5 0 -1.5 
C -0.397805 -1.5 -0.77937 -1.341951 -1.06066 -1.06066 
C -1.341951 -0.77937 -1.5 -0.397805 -1.5 0 
C -1.5 0.397805 -1.341951 0.77937 -1.06066 1.06066 
C -0.77937 1.341951 -0.397805 1.5 0 1.5 
z
" id="ma08e1215d1" style="stroke:#ff00ff;"/>
    </defs>
    <g>
     <use style="fill:#ff00ff;stroke:#ff00ff;" x="239.804316" xlink:href="#ma08e1215d1" y="198.873645"/>
     <use style="fill:#ff00ff;stroke:#ff00ff;" x="239.804316" xlink:href="#ma08e1215d1" y="198.873645"/>
    </g>
   </g>
   <g id="line2d_40">
    <path d="M 97.403108 298.944 
L 97.403108 298.417314 
L 101.646892 298.417314 
L 101.646892 297.890628 
L 102.597126 297.890628 
L 102.597126 297.363942 
L 109.756002 297.363942 
L 109.756002 296.837256 
L 110.77713 296.837256 
L 110.77713 296.31057 
L 114.882171 296.31057 
L 114.882171 295.783884 
L 115.897107 295.783884 
L 115.897107 295.257197 
L 116.141872 295.257197 
L 116.202531 293.677139 
L 118.310324 293.677139 
L 118.310324 293.150453 
L 119.996839 293.150453 
L 119.996839 292.097081 
L 120.142369 292.097081 
L 120.142369 291.570395 
L 120.665825 291.570395 
L 120.665825 291.043709 
L 121.400219 291.043709 
L 121.489881 289.990337 
L 122.31944 289.990337 
L 122.31944 289.463651 
L 124.139788 289.463651 
L 124.216444 288.410278 
L 125.147256 288.410278 
L 125.147256 287.883592 
L 126.87191 287.883592 
L 126.87191 287.356906 
L 127.002787 287.356906 
L 127.100304 286.303534 
L 127.954256 286.303534 
L 128.046609 285.250162 
L 129.404667 285.250162 
L 129.404667 284.723476 
L 130.664567 284.723476 
L 130.664567 284.19679 
L 131.236397 284.19679 
L 131.338382 283.143418 
L 132.470242 283.143418 
L 132.470242 282.616732 
L 132.870621 282.616732 
L 132.870621 282.090045 
L 134.932432 282.090045 
L 134.932432 281.036673 
L 135.321124 281.036673 
L 135.321124 280.509987 
L 136.246972 280.509987 
L 136.304433 279.456615 
L 137.594091 279.456615 
L 137.594091 278.929929 
L 138.426341 278.929929 
L 138.426341 277.876557 
L 138.761723 277.876557 
L 138.761723 277.349871 
L 139.77789 277.349871 
L 139.77789 276.823185 
L 141.133958 276.823185 
L 141.133958 276.296499 
L 141.492656 276.296499 
L 141.492656 275.769812 
L 142.818488 275.769812 
L 142.831645 274.189754 
L 143.337167 274.189754 
L 143.42637 273.136382 
L 143.890442 273.136382 
L 143.890442 272.609696 
L 144.038338 272.609696 
L 144.038338 272.08301 
L 144.160633 272.08301 
L 144.18499 270.502952 
L 144.330419 270.502952 
L 144.330419 269.976266 
L 145.632289 269.976266 
L 145.632289 269.449579 
L 145.932112 269.449579 
L 145.932112 268.922893 
L 146.216039 268.922893 
L 146.216039 268.396207 
L 146.538004 268.396207 
L 146.538004 267.869521 
L 146.947864 267.869521 
L 146.947864 267.342835 
L 147.236294 267.342835 
L 147.236294 266.816149 
L 147.378739 266.816149 
L 147.378739 266.289463 
L 147.927346 266.289463 
L 147.927346 265.762777 
L 148.639252 265.762777 
L 148.639252 265.236091 
L 148.882639 265.236091 
L 148.882639 264.709405 
L 149.18674 264.709405 
L 149.18674 264.182719 
L 149.708697 264.182719 
L 149.708697 263.656033 
L 149.937701 263.656033 
L 149.937701 263.129347 
L 150.077146 263.129347 
L 150.077146 262.60266 
L 151.292481 262.60266 
L 151.292481 262.075974 
L 151.501723 262.075974 
L 151.573572 261.022602 
L 151.700576 261.022602 
L 151.700576 260.495916 
L 152.504301 260.495916 
L 152.504301 259.96923 
L 152.855715 259.96923 
L 152.914832 258.915858 
L 153.163864 258.915858 
L 153.250915 257.3358 
L 154.654594 257.3358 
L 154.654594 256.809114 
L 154.880133 256.809114 
L 154.880133 256.282427 
L 155.128803 256.282427 
L 155.128803 255.755741 
L 155.405981 255.755741 
L 155.405981 255.229055 
L 155.539762 255.229055 
L 155.539762 254.702369 
L 156.187581 254.702369 
L 156.230332 253.648997 
L 156.812195 253.648997 
L 156.812195 253.122311 
L 157.197287 253.122311 
L 157.208825 252.068939 
L 158.874111 252.068939 
L 158.874111 251.542253 
L 159.613044 251.542253 
L 159.613044 251.015567 
L 159.916863 251.015567 
L 159.916863 250.488881 
L 160.123015 250.488881 
L 160.123015 249.962195 
L 160.355672 249.962195 
L 160.355672 248.908822 
L 161.442917 248.908822 
L 161.442917 248.382136 
L 161.712255 248.382136 
L 161.778945 247.328764 
L 164.121498 247.328764 
L 164.121498 246.802078 
L 164.368048 246.802078 
L 164.368048 246.275392 
L 165.904898 246.275392 
L 165.904898 245.748706 
L 171.925672 245.748706 
L 171.925672 245.22202 
L 172.310747 245.22202 
L 172.310747 244.695334 
L 172.518131 244.695334 
L 172.518131 244.168648 
L 173.471997 244.168648 
L 173.471997 243.115275 
L 173.616647 243.115275 
L 173.616647 242.588589 
L 173.798016 242.588589 
L 173.798016 242.061903 
L 175.297603 242.061903 
L 175.297603 240.481845 
L 175.94562 240.481845 
L 175.94562 239.955159 
L 177.081585 239.955159 
L 177.186447 238.901787 
L 181.640982 238.901787 
L 181.68922 237.848415 
L 181.82611 237.848415 
L 181.82611 236.795043 
L 182.442052 236.795043 
L 182.442052 236.268356 
L 183.209233 236.268356 
L 183.209233 235.74167 
L 183.341183 235.74167 
L 183.341183 235.214984 
L 184.540072 235.214984 
L 184.540072 234.688298 
L 184.818171 234.688298 
L 184.818171 234.161612 
L 185.022995 234.161612 
L 185.022995 233.634926 
L 187.226459 233.634926 
L 187.226459 233.10824 
L 188.150397 233.10824 
L 188.150397 232.581554 
L 188.338164 232.581554 
L 188.338164 232.054868 
L 188.728569 232.054868 
L 188.82482 229.948123 
L 189.304673 229.948123 
L 189.304673 229.421437 
L 189.915472 229.421437 
L 189.915472 228.894751 
L 190.135953 228.894751 
L 190.135953 228.368065 
L 192.990406 228.368065 
L 192.990406 227.314693 
L 193.271957 227.314693 
L 193.271957 226.788007 
L 193.854958 226.788007 
L 193.854958 226.261321 
L 194.031082 226.261321 
L 194.031082 225.734635 
L 195.994682 225.734635 
L 195.994682 225.207949 
L 196.350346 225.207949 
L 196.350346 224.681263 
L 196.582885 224.681263 
L 196.582885 224.154577 
L 197.168233 224.154577 
L 197.168233 223.627891 
L 198.719636 223.627891 
L 198.719636 223.101204 
L 199.666685 223.101204 
L 199.666685 222.574518 
L 201.762688 222.574518 
L 201.822635 221.521146 
L 202.123271 221.521146 
L 202.123271 220.99446 
L 203.443356 220.99446 
L 203.443356 220.467774 
L 205.751127 220.467774 
L 205.751127 219.414402 
L 206.038597 219.414402 
L 206.038597 218.887716 
L 207.101127 218.887716 
L 207.101127 218.36103 
L 207.290811 218.36103 
L 207.324072 216.780971 
L 207.709408 216.780971 
L 207.709408 216.254285 
L 208.513048 216.254285 
L 208.513048 215.727599 
L 208.881295 215.727599 
L 208.881295 215.200913 
L 210.076455 215.200913 
L 210.076455 214.674227 
L 210.310795 214.674227 
L 210.310795 214.147541 
L 210.452135 214.147541 
L 210.452135 213.620855 
L 211.414808 213.620855 
L 211.414808 213.094169 
L 211.76301 213.094169 
L 211.76301 210.987425 
L 211.933664 210.987425 
L 211.933664 210.460738 
L 212.860016 210.460738 
L 212.860016 209.934052 
L 214.222668 209.934052 
L 214.325673 208.88068 
L 216.380233 208.88068 
L 216.380233 208.353994 
L 217.126875 208.353994 
L 217.126875 207.827308 
L 217.945746 207.827308 
L 217.945746 207.300622 
L 218.891436 207.300622 
L 218.891436 206.773936 
L 219.649553 206.773936 
L 219.649553 206.24725 
L 221.961144 206.24725 
L 221.961144 205.720564 
L 222.760632 205.720564 
L 222.760632 205.193878 
L 223.42015 205.193878 
L 223.42015 204.667192 
L 226.182532 204.667192 
L 226.182532 204.140506 
L 227.324242 204.140506 
L 227.324242 203.613819 
L 228.379909 203.613819 
L 228.379909 203.087133 
L 229.659814 203.087133 
L 229.659814 202.560447 
L 230.614993 202.560447 
L 230.614993 202.033761 
L 231.081414 202.033761 
L 231.081414 201.507075 
L 231.855086 201.507075 
L 231.855086 200.980389 
L 233.382262 200.980389 
L 233.382262 200.453703 
L 237.606833 200.453703 
L 237.614521 199.400331 
L 239.804316 199.400331 
L 239.804316 198.873645 
L 338.688 198.873645 
L 338.688 198.873645 
" style="fill:none;stroke:#ff00ff;stroke-linecap:square;stroke-width:1.5;"/>
   </g>
   <g id="line2d_41">
    <defs>
     <path d="M -0 8.485281 
L 5.091169 0 
L 0 -8.485281 
L -5.091169 -0 
z
" id="m212489457a" style="stroke:#ff00ff;stroke-linejoin:miter;stroke-width:1.5;"/>
    </defs>
    <g>
     <use style="fill-opacity:0;stroke:#ff00ff;stroke-linejoin:miter;stroke-width:1.5;" x="155.539762" xlink:href="#m212489457a" y="254.702369"/>
     <use style="fill-opacity:0;stroke:#ff00ff;stroke-linejoin:miter;stroke-width:1.5;" x="216.380233" xlink:href="#m212489457a" y="208.88068"/>
     <use style="fill-opacity:0;stroke:#ff00ff;stroke-linejoin:miter;stroke-width:1.5;" x="239.804316" xlink:href="#m212489457a" y="199.400331"/>
     <use style="fill-opacity:0;stroke:#ff00ff;stroke-linejoin:miter;stroke-width:1.5;" x="239.804316" xlink:href="#m212489457a" y="198.873645"/>
     <use style="fill-opacity:0;stroke:#ff00ff;stroke-linejoin:miter;stroke-width:1.5;" x="338.688" xlink:href="#m212489457a" y="198.873645"/>
    </g>
   </g>
   <g id="line2d_42">
    <path style="fill:none;stroke:#ff00ff;stroke-linecap:square;stroke-width:1.5;"/>
    <g/>
   </g>
   <g id="line2d_43">
    <path clip-path="url(#p542d8b877f)" d="M 165.978297 245.748706 
" style="fill:none;stroke:#ff00ff;stroke-linecap:square;stroke-width:1.5;"/>
    <defs>
     <path d="M -12 12 
L 12 -12 
M -12 -12 
L 12 12 
" id="me0e0e6a7a8" style="stroke:#ff00ff;"/>
    </defs>
    <g clip-path="url(#p542d8b877f)">
     <use style="fill:#ff00ff;stroke:#ff00ff;" x="165.978297" xlink:href="#me0e0e6a7a8" y="245.748706"/>
    </g>
   </g>
   <g id="line2d_44">
    <defs>
     <path d="M 0 1.5 
C 0.397805 1.5 0.77937 1.341951 1.06066 1.06066 
C 1.341951 0.77937 1.5 0.397805 1.5 0 
C 1.5 -0.397805 1.341951 -0.77937 1.06066 -1.06066 
C 0.77937 -1.341951 0.397805 -1.5 0 -1.5 
C -0.397805 -1.5 -0.77937 -1.341951 -1.06066 -1.06066 
C -1.341951 -0.77937 -1.5 -0.397805 -1.5 0 
C -1.5 0.397805 -1.341951 0.77937 -1.06066 1.06066 
C -0.77937 1.341951 -0.397805 1.5 0 1.5 
z
" id="m4caf088ada" style="stroke:#ff7500;"/>
    </defs>
    <g>
     <use style="fill:#ff7500;stroke:#ff7500;" x="233.104581" xlink:href="#m4caf088ada" y="209.407366"/>
     <use style="fill:#ff7500;stroke:#ff7500;" x="233.104581" xlink:href="#m4caf088ada" y="209.407366"/>
    </g>
   </g>
   <g id="line2d_45">
    <path d="M 98.100772 298.944 
L 98.100772 297.890628 
L 103.117741 297.890628 
L 103.117741 297.363942 
L 105.621863 297.363942 
L 105.621863 296.837256 
L 107.514726 296.837256 
L 107.514726 296.31057 
L 109.930396 296.31057 
L 109.930396 295.783884 
L 110.103064 295.783884 
L 110.103064 294.730511 
L 110.274038 294.730511 
L 110.274038 294.203825 
L 111.104637 294.203825 
L 111.104637 293.677139 
L 111.426108 293.677139 
L 111.505558 291.043709 
L 111.663381 291.043709 
L 111.663381 290.517023 
L 113.73488 290.517023 
L 113.73488 289.990337 
L 115.958621 289.990337 
L 115.958621 289.463651 
L 116.202531 289.463651 
L 116.262979 287.883592 
L 117.030313 287.883592 
L 117.030313 287.356906 
L 117.373392 287.356906 
L 117.373392 286.83022 
L 119.502775 286.83022 
L 119.502775 286.303534 
L 120.190611 286.303534 
L 120.238719 285.250162 
L 120.33454 285.250162 
L 120.33454 284.723476 
L 122.061712 284.723476 
L 122.061712 284.19679 
L 122.573415 284.19679 
L 122.573415 283.670104 
L 123.672636 283.670104 
L 123.672636 282.616732 
L 123.907776 282.616732 
L 123.985457 281.563359 
L 124.482119 281.563359 
L 124.482119 281.036673 
L 124.780872 281.036673 
L 124.780872 280.509987 
L 125.219619 280.509987 
L 125.219619 279.983301 
L 125.363449 279.983301 
L 125.363449 279.456615 
L 125.822869 279.456615 
L 125.822869 278.929929 
L 126.87191 278.929929 
L 126.87191 278.403243 
L 127.357715 278.403243 
L 127.357715 277.876557 
L 128.856489 277.876557 
L 128.856489 277.349871 
L 129.06046 277.349871 
L 129.06046 276.823185 
L 129.175952 276.823185 
L 129.175952 276.296499 
L 129.686407 276.296499 
L 129.686407 275.243126 
L 129.853291 275.243126 
L 129.853291 274.71644 
L 130.926816 274.71644 
L 130.926816 274.189754 
L 131.515432 274.189754 
L 131.515432 273.663068 
L 132.133473 273.663068 
L 132.133473 273.136382 
L 132.326708 273.136382 
L 132.326708 272.609696 
L 132.753813 272.609696 
L 132.753813 272.08301 
L 133.078923 272.08301 
L 133.078923 271.556324 
L 133.284766 271.556324 
L 133.33018 269.449579 
L 134.019394 269.449579 
L 134.019394 268.922893 
L 135.280614 268.922893 
L 135.280614 268.396207 
L 135.819708 268.396207 
L 135.819708 267.869521 
L 136.664018 267.869521 
L 136.664018 267.342835 
L 138.239095 267.342835 
L 138.239095 266.816149 
L 138.426341 266.816149 
L 138.426341 266.289463 
L 138.778323 266.289463 
L 138.778323 265.762777 
L 139.253002 265.762777 
L 139.253002 265.236091 
L 139.762215 265.236091 
L 139.762215 264.709405 
L 141.676303 264.709405 
L 141.676303 264.182719 
L 141.816266 264.182719 
L 141.844124 263.129347 
L 142.297475 263.129347 
L 142.297475 262.60266 
L 142.89728 262.60266 
L 142.89728 262.075974 
L 143.311596 262.075974 
L 143.311596 261.549288 
L 143.628567 261.549288 
L 143.628567 261.022602 
L 143.816021 261.022602 
L 143.816021 260.495916 
L 144.330419 260.495916 
L 144.378627 259.442544 
L 145.235796 259.442544 
L 145.235796 258.915858 
L 146.654584 258.915858 
L 146.654584 258.389172 
L 146.833235 258.389172 
L 146.833235 257.862486 
L 147.082371 257.862486 
L 147.185137 256.809114 
L 148.035027 256.809114 
L 148.035027 256.282427 
L 148.344551 256.282427 
L 148.411533 255.229055 
L 148.648676 255.229055 
L 148.648676 254.175683 
L 150.120495 254.175683 
L 150.137805 253.122311 
L 151.195055 253.122311 
L 151.195055 252.595625 
L 151.905007 252.595625 
L 151.905007 252.068939 
L 152.306816 252.068939 
L 152.306816 251.542253 
L 152.936949 251.542253 
L 153.047115 250.488881 
L 153.149313 250.488881 
L 153.163864 248.908822 
L 153.904255 248.908822 
L 153.904255 248.382136 
L 154.119001 248.382136 
L 154.221969 247.328764 
L 154.276638 247.328764 
L 154.276638 246.802078 
L 154.621179 246.802078 
L 154.621179 246.275392 
L 155.495282 246.275392 
L 155.495282 245.748706 
L 155.922644 245.748706 
L 155.922644 245.22202 
L 156.279062 245.22202 
L 156.279062 244.695334 
L 156.664077 244.695334 
L 156.664077 244.168648 
L 156.964915 244.168648 
L 157.075678 243.115275 
L 157.98704 243.115275 
L 158.047603 242.061903 
L 158.588735 242.061903 
L 158.673779 240.481845 
L 160.220333 240.481845 
L 160.220333 239.428473 
L 160.408554 239.428473 
L 160.408554 238.901787 
L 160.613753 238.901787 
L 160.613753 238.375101 
L 160.830627 238.375101 
L 160.830627 237.848415 
L 162.208484 237.848415 
L 162.208484 237.321729 
L 162.733045 237.321729 
L 162.733045 236.795043 
L 163.824119 236.795043 
L 163.824119 236.268356 
L 163.996903 236.268356 
L 163.996903 235.74167 
L 164.318249 235.74167 
L 164.421519 234.688298 
L 164.921483 234.688298 
L 164.940002 233.634926 
L 170.291532 233.634926 
L 170.291532 233.10824 
L 171.883461 233.10824 
L 171.883461 232.581554 
L 172.412336 232.581554 
L 172.412336 232.054868 
L 174.177002 232.054868 
L 174.177002 231.528182 
L 174.547927 231.528182 
L 174.547927 231.001496 
L 175.423872 231.001496 
L 175.502833 228.894751 
L 176.283045 228.894751 
L 176.283045 227.841379 
L 177.545883 227.841379 
L 177.649784 226.788007 
L 183.298602 226.788007 
L 183.298602 226.261321 
L 183.420902 226.261321 
L 183.420902 225.207949 
L 184.860746 225.207949 
L 184.860746 224.681263 
L 189.285437 224.681263 
L 189.285437 224.154577 
L 192.965933 224.154577 
L 192.965933 223.101204 
L 195.643074 223.101204 
L 195.643074 222.574518 
L 196.724644 222.574518 
L 196.724644 220.467774 
L 196.88424 220.467774 
L 196.88424 219.414402 
L 197.087563 219.414402 
L 197.087563 218.887716 
L 199.198551 218.887716 
L 199.241066 217.307658 
L 199.485329 217.307658 
L 199.485329 216.254285 
L 202.139066 216.254285 
L 202.139066 215.727599 
L 203.96415 215.727599 
L 204.069687 214.674227 
L 207.524568 214.674227 
L 207.524568 214.147541 
L 207.720875 214.147541 
L 207.720875 213.094169 
L 208.899758 213.094169 
L 208.924146 212.040797 
L 209.244553 212.040797 
L 209.244553 210.987425 
L 211.942665 210.987425 
L 211.942665 210.460738 
L 218.073023 210.460738 
L 218.073023 209.934052 
L 233.104581 209.934052 
L 233.104581 209.407366 
L 338.688 209.407366 
L 338.688 209.407366 
" style="fill:none;stroke:#ff7500;stroke-linecap:square;stroke-width:1.5;"/>
   </g>
   <g id="line2d_46">
    <defs>
     <path d="M 0 -6 
L -1.347084 -1.854102 
L -5.706339 -1.854102 
L -2.179628 0.708204 
L -3.526712 4.854102 
L -0 2.291796 
L 3.526712 4.854102 
L 2.179628 0.708204 
L 5.706339 -1.854102 
L 1.347084 -1.854102 
z
" id="m23e4a251e7" style="stroke:#ff7500;stroke-linejoin:bevel;stroke-width:1.5;"/>
    </defs>
    <g>
     <use style="fill-opacity:0;stroke:#ff7500;stroke-linejoin:bevel;stroke-width:1.5;" x="148.344551" xlink:href="#m23e4a251e7" y="255.755741"/>
     <use style="fill-opacity:0;stroke:#ff7500;stroke-linejoin:bevel;stroke-width:1.5;" x="211.942665" xlink:href="#m23e4a251e7" y="210.460738"/>
     <use style="fill-opacity:0;stroke:#ff7500;stroke-linejoin:bevel;stroke-width:1.5;" x="233.104581" xlink:href="#m23e4a251e7" y="209.407366"/>
     <use style="fill-opacity:0;stroke:#ff7500;stroke-linejoin:bevel;stroke-width:1.5;" x="233.104581" xlink:href="#m23e4a251e7" y="209.407366"/>
     <use style="fill-opacity:0;stroke:#ff7500;stroke-linejoin:bevel;stroke-width:1.5;" x="338.688" xlink:href="#m23e4a251e7" y="209.407366"/>
    </g>
   </g>
   <g id="line2d_47">
    <path style="fill:none;stroke:#ff7500;stroke-linecap:square;stroke-width:1.5;"/>
    <g/>
   </g>
   <g id="line2d_48">
    <path clip-path="url(#p542d8b877f)" d="M 165.978297 233.634926 
" style="fill:none;stroke:#ff7500;stroke-linecap:square;stroke-width:1.5;"/>
    <defs>
     <path d="M -12 12 
L 12 -12 
M -12 -12 
L 12 12 
" id="m045d2a894d" style="stroke:#ff7500;"/>
    </defs>
    <g clip-path="url(#p542d8b877f)">
     <use style="fill:#ff7500;stroke:#ff7500;" x="165.978297" xlink:href="#m045d2a894d" y="233.634926"/>
    </g>
   </g>
   <g id="line2d_49">
    <defs>
     <path d="M 0 1.5 
C 0.397805 1.5 0.77937 1.341951 1.06066 1.06066 
C 1.341951 0.77937 1.5 0.397805 1.5 0 
C 1.5 -0.397805 1.341951 -0.77937 1.06066 -1.06066 
C 0.77937 -1.341951 0.397805 -1.5 0 -1.5 
C -0.397805 -1.5 -0.77937 -1.341951 -1.06066 -1.06066 
C -1.341951 -0.77937 -1.5 -0.397805 -1.5 0 
C -1.5 0.397805 -1.341951 0.77937 -1.06066 1.06066 
C -0.77937 1.341951 -0.397805 1.5 0 1.5 
z
" id="mcfce2f7989" style="stroke:#6495ed;"/>
    </defs>
    <g>
     <use style="fill:#6495ed;stroke:#6495ed;" x="229.18987" xlink:href="#mcfce2f7989" y="246.275392"/>
     <use style="fill:#6495ed;stroke:#6495ed;" x="229.18987" xlink:href="#mcfce2f7989" y="246.275392"/>
    </g>
   </g>
   <g id="line2d_50">
    <path d="M 94.921215 298.944 
L 94.921215 298.417314 
L 95.723163 298.417314 
L 95.723163 297.890628 
L 98.43941 297.890628 
L 98.43941 297.363942 
L 100.789049 297.363942 
L 100.789049 296.837256 
L 101.079711 296.837256 
L 101.079711 295.783884 
L 101.365607 295.783884 
L 101.365607 294.730511 
L 102.196206 294.730511 
L 102.196206 294.203825 
L 103.870632 294.203825 
L 103.870632 293.677139 
L 103.993014 293.677139 
L 103.993014 292.623767 
L 104.474128 292.623767 
L 104.474128 291.570395 
L 105.621863 291.570395 
L 105.621863 291.043709 
L 106.06061 291.043709 
L 106.06061 290.517023 
L 106.48859 290.517023 
L 106.48859 289.463651 
L 110.016944 289.463651 
L 110.103064 288.410278 
L 110.274038 288.410278 
L 110.274038 287.883592 
L 110.527398 287.883592 
L 110.61104 286.83022 
L 111.505558 286.83022 
L 111.505558 286.303534 
L 112.803609 286.303534 
L 112.803609 285.776848 
L 113.167699 285.776848 
L 113.167699 285.250162 
L 113.524343 285.250162 
L 113.524343 284.723476 
L 113.804498 284.723476 
L 113.804498 283.670104 
L 114.351658 283.670104 
L 114.351658 283.143418 
L 115.835374 283.143418 
L 115.835374 282.616732 
L 115.958621 282.616732 
L 116.019919 281.036673 
L 116.141872 281.036673 
L 116.202531 279.983301 
L 116.739166 279.983301 
L 116.797786 278.929929 
L 117.486268 278.929929 
L 117.486268 278.403243 
L 117.654224 278.403243 
L 117.654224 277.876557 
L 118.202674 277.876557 
L 118.202674 277.349871 
L 120.142369 277.349871 
L 120.142369 276.823185 
L 120.990934 276.823185 
L 120.990934 276.296499 
L 121.128432 276.296499 
L 121.128432 275.769812 
L 121.756135 275.769812 
L 121.756135 275.243126 
L 122.276749 275.243126 
L 122.276749 274.71644 
L 126.236468 274.71644 
L 126.338353 273.663068 
L 127.357715 273.663068 
L 127.357715 273.136382 
L 128.107907 273.136382 
L 128.107907 272.609696 
L 130.425122 272.609696 
L 130.425122 272.08301 
L 131.108073 272.08301 
L 131.108073 271.029638 
L 132.206187 271.029638 
L 132.206187 270.502952 
L 132.659801 270.502952 
L 132.659801 269.976266 
L 133.375477 269.976266 
L 133.398082 268.922893 
L 134.428735 268.922893 
L 134.428735 268.396207 
L 135.562224 268.396207 
L 135.562224 267.869521 
L 137.162581 267.869521 
L 137.162581 267.342835 
L 137.858461 267.342835 
L 137.858461 266.816149 
L 139.123342 266.816149 
L 139.123342 266.289463 
L 139.509467 266.289463 
L 139.509467 265.762777 
L 141.061324 265.762777 
L 141.061324 265.236091 
L 145.292992 265.236091 
L 145.292992 264.709405 
L 147.398994 264.709405 
L 147.398994 264.182719 
L 152.5194 264.182719 
L 152.5194 263.656033 
L 154.310719 263.656033 
L 154.310719 263.129347 
L 167.481174 263.129347 
L 167.481174 262.60266 
L 168.192825 262.60266 
L 168.192825 261.549288 
L 168.327468 261.549288 
L 168.327468 260.495916 
L 169.724059 260.495916 
L 169.724059 259.96923 
L 170.176764 259.96923 
L 170.176764 259.442544 
L 171.142009 259.442544 
L 171.142009 258.389172 
L 173.190583 258.389172 
L 173.190583 257.3358 
L 179.458416 257.3358 
L 179.458416 256.809114 
L 179.661713 256.809114 
L 179.661713 256.282427 
L 190.87929 256.282427 
L 190.87929 255.755741 
L 194.615993 255.755741 
L 194.615993 255.229055 
L 197.711971 255.229055 
L 197.711971 254.702369 
L 198.653883 254.702369 
L 198.653883 254.175683 
L 200.331549 254.175683 
L 200.439695 253.122311 
L 204.573515 253.122311 
L 204.615422 252.068939 
L 212.628194 252.068939 
L 212.628194 251.542253 
L 213.39691 251.542253 
L 213.39691 251.015567 
L 215.560824 251.015567 
L 215.606066 249.962195 
L 216.544586 249.962195 
L 216.544586 249.435508 
L 216.873618 249.435508 
L 216.873618 248.908822 
L 218.662711 248.908822 
L 218.662711 248.382136 
L 220.017938 248.382136 
L 220.017938 247.85545 
L 226.695167 247.85545 
L 226.695167 247.328764 
L 227.736248 247.328764 
L 227.736248 246.802078 
L 229.18987 246.802078 
L 229.18987 246.275392 
L 338.688 246.275392 
L 338.688 246.275392 
" style="fill:none;stroke:#6495ed;stroke-linecap:square;stroke-width:1.5;"/>
   </g>
   <g id="line2d_51">
    <defs>
     <path d="M -0 6 
L 6 -6 
L -6 -6 
z
" id="m94ac86658a" style="stroke:#6495ed;stroke-linejoin:miter;stroke-width:1.5;"/>
    </defs>
    <g>
     <use style="fill-opacity:0;stroke:#6495ed;stroke-linejoin:miter;stroke-width:1.5;" x="126.236468" xlink:href="#m94ac86658a" y="274.189754"/>
     <use style="fill-opacity:0;stroke:#6495ed;stroke-linejoin:miter;stroke-width:1.5;" x="216.873618" xlink:href="#m94ac86658a" y="248.908822"/>
     <use style="fill-opacity:0;stroke:#6495ed;stroke-linejoin:miter;stroke-width:1.5;" x="229.18987" xlink:href="#m94ac86658a" y="246.802078"/>
     <use style="fill-opacity:0;stroke:#6495ed;stroke-linejoin:miter;stroke-width:1.5;" x="229.18987" xlink:href="#m94ac86658a" y="246.275392"/>
     <use style="fill-opacity:0;stroke:#6495ed;stroke-linejoin:miter;stroke-width:1.5;" x="338.688" xlink:href="#m94ac86658a" y="246.275392"/>
    </g>
   </g>
   <g id="line2d_52">
    <path style="fill:none;stroke:#6495ed;stroke-linecap:square;stroke-width:1.5;"/>
    <g/>
   </g>
   <g id="line2d_53">
    <path clip-path="url(#p542d8b877f)" d="M 165.978297 263.129347 
" style="fill:none;stroke:#6495ed;stroke-linecap:square;stroke-width:1.5;"/>
    <defs>
     <path d="M -12 12 
L 12 -12 
M -12 -12 
L 12 12 
" id="m549e6fc8c4" style="stroke:#6495ed;"/>
    </defs>
    <g clip-path="url(#p542d8b877f)">
     <use style="fill:#6495ed;stroke:#6495ed;" x="165.978297" xlink:href="#m549e6fc8c4" y="263.129347"/>
    </g>
   </g>
   <g id="line2d_54">
    <path d="M 338.688 246.275392 
L 369.60768 293.571802 
" style="fill:none;stroke:#6495ed;stroke-linecap:square;stroke-width:1.5;"/>
    <g>
     <use style="fill-opacity:0;stroke:#6495ed;stroke-linejoin:miter;stroke-width:1.5;" x="338.688" xlink:href="#m94ac86658a" y="246.275392"/>
     <use style="fill-opacity:0;stroke:#6495ed;stroke-linejoin:miter;stroke-width:1.5;" x="369.60768" xlink:href="#m94ac86658a" y="293.571802"/>
    </g>
   </g>
   <g id="line2d_55">
    <path d="M 338.688 209.407366 
L 369.60768 229.105426 
" style="fill:none;stroke:#ff7500;stroke-linecap:square;stroke-width:1.5;"/>
    <g>
     <use style="fill-opacity:0;stroke:#ff7500;stroke-linejoin:bevel;stroke-width:1.5;" x="338.688" xlink:href="#m23e4a251e7" y="209.407366"/>
     <use style="fill-opacity:0;stroke:#ff7500;stroke-linejoin:bevel;stroke-width:1.5;" x="369.60768" xlink:href="#m23e4a251e7" y="229.105426"/>
    </g>
   </g>
   <g id="line2d_56">
    <path d="M 338.688 198.873645 
L 369.60768 164.63905 
" style="fill:none;stroke:#ff00ff;stroke-linecap:square;stroke-width:1.5;"/>
    <g>
     <use style="fill-opacity:0;stroke:#ff00ff;stroke-linejoin:miter;stroke-width:1.5;" x="338.688" xlink:href="#m212489457a" y="198.873645"/>
     <use style="fill-opacity:0;stroke:#ff00ff;stroke-linejoin:miter;stroke-width:1.5;" x="369.60768" xlink:href="#m212489457a" y="164.63905"/>
    </g>
   </g>
   <g id="line2d_57">
    <path d="M 338.688 193.606784 
L 369.60768 100.172673 
" style="fill:none;stroke:#000080;stroke-linecap:square;stroke-width:1.5;"/>
    <g>
     <use style="fill-opacity:0;stroke:#000080;stroke-width:1.5;" x="338.688" xlink:href="#m1caf1dbf2f" y="193.606784"/>
     <use style="fill-opacity:0;stroke:#000080;stroke-width:1.5;" x="369.60768" xlink:href="#m1caf1dbf2f" y="100.172673"/>
    </g>
   </g>
   <g id="line2d_58">
    <path d="M 338.688 298.944 
L 338.688 30.334099 
" style="fill:none;stroke:#000000;stroke-linecap:square;stroke-width:1.5;"/>
   </g>
   <g id="patch_3">
    <path d="M 57.6 298.944 
L 57.6 27.648 
" style="fill:none;stroke:#000000;stroke-linecap:square;stroke-linejoin:miter;stroke-width:0.8;"/>
   </g>
   <g id="patch_4">
    <path d="M 338.688 298.944 
L 338.688 27.648 
" style="fill:none;stroke:#000000;stroke-linecap:square;stroke-linejoin:miter;stroke-width:0.8;"/>
   </g>
   <g id="patch_5">
    <path d="M 57.6 298.944 
L 338.688 298.944 
" style="fill:none;stroke:#000000;stroke-linecap:square;stroke-linejoin:miter;stroke-width:0.8;"/>
   </g>
   <g id="patch_6">
    <path d="M 57.6 27.648 
L 338.688 27.648 
" style="fill:none;stroke:#000000;stroke-linecap:square;stroke-linejoin:miter;stroke-width:0.8;"/>
   </g>
   <g id="text_13">
    <!-- PSO -->
    <defs>
     <path d="M 19.671875 64.796875 
L 19.671875 37.40625 
L 32.078125 37.40625 
Q 38.96875 37.40625 42.71875 40.96875 
Q 46.484375 44.53125 46.484375 51.125 
Q 46.484375 57.671875 42.71875 61.234375 
Q 38.96875 64.796875 32.078125 64.796875 
z
M 9.8125 72.90625 
L 32.078125 72.90625 
Q 44.34375 72.90625 50.609375 67.359375 
Q 56.890625 61.8125 56.890625 51.125 
Q 56.890625 40.328125 50.609375 34.8125 
Q 44.34375 29.296875 32.078125 29.296875 
L 19.671875 29.296875 
L 19.671875 0 
L 9.8125 0 
z
" id="DejaVuSans-80"/>
     <path d="M 53.515625 70.515625 
L 53.515625 60.890625 
Q 47.90625 63.578125 42.921875 64.890625 
Q 37.9375 66.21875 33.296875 66.21875 
Q 25.25 66.21875 20.875 63.09375 
Q 16.5 59.96875 16.5 54.203125 
Q 16.5 49.359375 19.40625 46.890625 
Q 22.3125 44.4375 30.421875 42.921875 
L 36.375 41.703125 
Q 47.40625 39.59375 52.65625 34.296875 
Q 57.90625 29 57.90625 20.125 
Q 57.90625 9.515625 50.796875 4.046875 
Q 43.703125 -1.421875 29.984375 -1.421875 
Q 24.8125 -1.421875 18.96875 -0.25 
Q 13.140625 0.921875 6.890625 3.21875 
L 6.890625 13.375 
Q 12.890625 10.015625 18.65625 8.296875 
Q 24.421875 6.59375 29.984375 6.59375 
Q 38.421875 6.59375 43.015625 9.90625 
Q 47.609375 13.234375 47.609375 19.390625 
Q 47.609375 24.75 44.3125 27.78125 
Q 41.015625 30.8125 33.5 32.328125 
L 27.484375 33.5 
Q 16.453125 35.6875 11.515625 40.375 
Q 6.59375 45.0625 6.59375 53.421875 
Q 6.59375 63.09375 13.40625 68.65625 
Q 20.21875 74.21875 32.171875 74.21875 
Q 37.3125 74.21875 42.625 73.28125 
Q 47.953125 72.359375 53.515625 70.515625 
z
" id="DejaVuSans-83"/>
     <path d="M 39.40625 66.21875 
Q 28.65625 66.21875 22.328125 58.203125 
Q 16.015625 50.203125 16.015625 36.375 
Q 16.015625 22.609375 22.328125 14.59375 
Q 28.65625 6.59375 39.40625 6.59375 
Q 50.140625 6.59375 56.421875 14.59375 
Q 62.703125 22.609375 62.703125 36.375 
Q 62.703125 50.203125 56.421875 58.203125 
Q 50.140625 66.21875 39.40625 66.21875 
z
M 39.40625 74.21875 
Q 54.734375 74.21875 63.90625 63.9375 
Q 73.09375 53.65625 73.09375 36.375 
Q 73.09375 19.140625 63.90625 8.859375 
Q 54.734375 -1.421875 39.40625 -1.421875 
Q 24.03125 -1.421875 14.8125 8.828125 
Q 5.609375 19.09375 5.609375 36.375 
Q 5.609375 53.65625 14.8125 63.9375 
Q 24.03125 74.21875 39.40625 74.21875 
z
" id="DejaVuSans-79"/>
    </defs>
    <g transform="translate(375.22944 298.262739)scale(0.17 -0.17)">
     <use xlink:href="#DejaVuSans-80"/>
     <use x="60.302734" xlink:href="#DejaVuSans-83"/>
     <use x="123.779297" xlink:href="#DejaVuSans-79"/>
    </g>
   </g>
   <g id="text_14">
    <!-- DEPSO -->
    <defs>
     <path d="M 19.671875 64.796875 
L 19.671875 8.109375 
L 31.59375 8.109375 
Q 46.6875 8.109375 53.6875 14.9375 
Q 60.6875 21.78125 60.6875 36.53125 
Q 60.6875 51.171875 53.6875 57.984375 
Q 46.6875 64.796875 31.59375 64.796875 
z
M 9.8125 72.90625 
L 30.078125 72.90625 
Q 51.265625 72.90625 61.171875 64.09375 
Q 71.09375 55.28125 71.09375 36.53125 
Q 71.09375 17.671875 61.125 8.828125 
Q 51.171875 0 30.078125 0 
L 9.8125 0 
z
" id="DejaVuSans-68"/>
     <path d="M 9.8125 72.90625 
L 55.90625 72.90625 
L 55.90625 64.59375 
L 19.671875 64.59375 
L 19.671875 43.015625 
L 54.390625 43.015625 
L 54.390625 34.71875 
L 19.671875 34.71875 
L 19.671875 8.296875 
L 56.78125 8.296875 
L 56.78125 0 
L 9.8125 0 
z
" id="DejaVuSans-69"/>
    </defs>
    <g transform="translate(375.22944 233.796363)scale(0.17 -0.17)">
     <use xlink:href="#DejaVuSans-68"/>
     <use x="77.001953" xlink:href="#DejaVuSans-69"/>
     <use x="140.185547" xlink:href="#DejaVuSans-80"/>
     <use x="200.488281" xlink:href="#DejaVuSans-83"/>
     <use x="263.964844" xlink:href="#DejaVuSans-79"/>
    </g>
   </g>
   <g id="text_15">
    <!-- DE -->
    <g transform="translate(375.22944 169.329987)scale(0.17 -0.17)">
     <use xlink:href="#DejaVuSans-68"/>
     <use x="77.001953" xlink:href="#DejaVuSans-69"/>
    </g>
   </g>
   <g id="text_16">
    <!-- CMA-ES -->
    <defs>
     <path d="M 64.40625 67.28125 
L 64.40625 56.890625 
Q 59.421875 61.53125 53.78125 63.8125 
Q 48.140625 66.109375 41.796875 66.109375 
Q 29.296875 66.109375 22.65625 58.46875 
Q 16.015625 50.828125 16.015625 36.375 
Q 16.015625 21.96875 22.65625 14.328125 
Q 29.296875 6.6875 41.796875 6.6875 
Q 48.140625 6.6875 53.78125 8.984375 
Q 59.421875 11.28125 64.40625 15.921875 
L 64.40625 5.609375 
Q 59.234375 2.09375 53.4375 0.328125 
Q 47.65625 -1.421875 41.21875 -1.421875 
Q 24.65625 -1.421875 15.125 8.703125 
Q 5.609375 18.84375 5.609375 36.375 
Q 5.609375 53.953125 15.125 64.078125 
Q 24.65625 74.21875 41.21875 74.21875 
Q 47.75 74.21875 53.53125 72.484375 
Q 59.328125 70.75 64.40625 67.28125 
z
" id="DejaVuSans-67"/>
     <path d="M 9.8125 72.90625 
L 24.515625 72.90625 
L 43.109375 23.296875 
L 61.8125 72.90625 
L 76.515625 72.90625 
L 76.515625 0 
L 66.890625 0 
L 66.890625 64.015625 
L 48.09375 14.015625 
L 38.1875 14.015625 
L 19.390625 64.015625 
L 19.390625 0 
L 9.8125 0 
z
" id="DejaVuSans-77"/>
     <path d="M 34.1875 63.1875 
L 20.796875 26.90625 
L 47.609375 26.90625 
z
M 28.609375 72.90625 
L 39.796875 72.90625 
L 67.578125 0 
L 57.328125 0 
L 50.6875 18.703125 
L 17.828125 18.703125 
L 11.1875 0 
L 0.78125 0 
z
" id="DejaVuSans-65"/>
    </defs>
    <g transform="translate(375.22944 104.863611)scale(0.17 -0.17)">
     <use xlink:href="#DejaVuSans-67"/>
     <use x="69.824219" xlink:href="#DejaVuSans-77"/>
     <use x="156.103516" xlink:href="#DejaVuSans-65"/>
     <use x="222.261719" xlink:href="#DejaVuSans-45"/>
     <use x="258.345703" xlink:href="#DejaVuSans-69"/>
     <use x="321.529297" xlink:href="#DejaVuSans-83"/>
    </g>
   </g>
   <g id="text_17">
    <!-- best 2009 -->
    <defs>
     <path d="M 48.6875 27.296875 
Q 48.6875 37.203125 44.609375 42.84375 
Q 40.53125 48.484375 33.40625 48.484375 
Q 26.265625 48.484375 22.1875 42.84375 
Q 18.109375 37.203125 18.109375 27.296875 
Q 18.109375 17.390625 22.1875 11.75 
Q 26.265625 6.109375 33.40625 6.109375 
Q 40.53125 6.109375 44.609375 11.75 
Q 48.6875 17.390625 48.6875 27.296875 
z
M 18.109375 46.390625 
Q 20.953125 51.265625 25.265625 53.625 
Q 29.59375 56 35.59375 56 
Q 45.5625 56 51.78125 48.09375 
Q 58.015625 40.1875 58.015625 27.296875 
Q 58.015625 14.40625 51.78125 6.484375 
Q 45.5625 -1.421875 35.59375 -1.421875 
Q 29.59375 -1.421875 25.265625 0.953125 
Q 20.953125 3.328125 18.109375 8.203125 
L 18.109375 0 
L 9.078125 0 
L 9.078125 75.984375 
L 18.109375 75.984375 
z
" id="DejaVuSans-98"/>
     <path d="M 10.984375 1.515625 
L 10.984375 10.5 
Q 14.703125 8.734375 18.5 7.8125 
Q 22.3125 6.890625 25.984375 6.890625 
Q 35.75 6.890625 40.890625 13.453125 
Q 46.046875 20.015625 46.78125 33.40625 
Q 43.953125 29.203125 39.59375 26.953125 
Q 35.25 24.703125 29.984375 24.703125 
Q 19.046875 24.703125 12.671875 31.3125 
Q 6.296875 37.9375 6.296875 49.421875 
Q 6.296875 60.640625 12.9375 67.421875 
Q 19.578125 74.21875 30.609375 74.21875 
Q 43.265625 74.21875 49.921875 64.515625 
Q 56.59375 54.828125 56.59375 36.375 
Q 56.59375 19.140625 48.40625 8.859375 
Q 40.234375 -1.421875 26.421875 -1.421875 
Q 22.703125 -1.421875 18.890625 -0.6875 
Q 15.09375 0.046875 10.984375 1.515625 
z
M 30.609375 32.421875 
Q 37.25 32.421875 41.125 36.953125 
Q 45.015625 41.5 45.015625 49.421875 
Q 45.015625 57.28125 41.125 61.84375 
Q 37.25 66.40625 30.609375 66.40625 
Q 23.96875 66.40625 20.09375 61.84375 
Q 16.21875 57.28125 16.21875 49.421875 
Q 16.21875 41.5 20.09375 36.953125 
Q 23.96875 32.421875 30.609375 32.421875 
z
" id="DejaVuSans-57"/>
    </defs>
    <g transform="translate(375.22944 40.397235)scale(0.17 -0.17)">
     <use xlink:href="#DejaVuSans-98"/>
     <use x="63.476562" xlink:href="#DejaVuSans-101"/>
     <use x="125" xlink:href="#DejaVuSans-115"/>
     <use x="177.099609" xlink:href="#DejaVuSans-116"/>
     <use x="216.308594" xlink:href="#DejaVuSans-32"/>
     <use x="248.095703" xlink:href="#DejaVuSans-50"/>
     <use x="311.71875" xlink:href="#DejaVuSans-48"/>
     <use x="375.341797" xlink:href="#DejaVuSans-48"/>
     <use x="438.964844" xlink:href="#DejaVuSans-57"/>
    </g>
   </g>
   <g id="text_18">
    <!-- bbob f7, 10-D -->
    <defs>
     <path d="M 8.203125 72.90625 
L 55.078125 72.90625 
L 55.078125 68.703125 
L 28.609375 0 
L 18.3125 0 
L 43.21875 64.59375 
L 8.203125 64.59375 
z
" id="DejaVuSans-55"/>
    </defs>
    <g transform="translate(60.41088 38.111366)scale(0.102 -0.102)">
     <use xlink:href="#DejaVuSans-98"/>
     <use x="63.476562" xlink:href="#DejaVuSans-98"/>
     <use x="126.953125" xlink:href="#DejaVuSans-111"/>
     <use x="188.134766" xlink:href="#DejaVuSans-98"/>
     <use x="251.611328" xlink:href="#DejaVuSans-32"/>
     <use x="283.398438" xlink:href="#DejaVuSans-102"/>
     <use x="318.603516" xlink:href="#DejaVuSans-55"/>
     <use x="382.226562" xlink:href="#DejaVuSans-44"/>
     <use x="414.013672" xlink:href="#DejaVuSans-32"/>
     <use x="445.800781" xlink:href="#DejaVuSans-49"/>
     <use x="509.423828" xlink:href="#DejaVuSans-48"/>
     <use x="573.046875" xlink:href="#DejaVuSans-45"/>
     <use x="609.130859" xlink:href="#DejaVuSans-68"/>
    </g>
    <!-- 51 targets: 100..1e-08 -->
    <defs>
     <path d="M 10.796875 72.90625 
L 49.515625 72.90625 
L 49.515625 64.59375 
L 19.828125 64.59375 
L 19.828125 46.734375 
Q 21.96875 47.46875 24.109375 47.828125 
Q 26.265625 48.1875 28.421875 48.1875 
Q 40.625 48.1875 47.75 41.5 
Q 54.890625 34.8125 54.890625 23.390625 
Q 54.890625 11.625 47.5625 5.09375 
Q 40.234375 -1.421875 26.90625 -1.421875 
Q 22.3125 -1.421875 17.546875 -0.640625 
Q 12.796875 0.140625 7.71875 1.703125 
L 7.71875 11.625 
Q 12.109375 9.234375 16.796875 8.0625 
Q 21.484375 6.890625 26.703125 6.890625 
Q 35.15625 6.890625 40.078125 11.328125 
Q 45.015625 15.765625 45.015625 23.390625 
Q 45.015625 31 40.078125 35.4375 
Q 35.15625 39.890625 26.703125 39.890625 
Q 22.75 39.890625 18.8125 39.015625 
Q 14.890625 38.140625 10.796875 36.28125 
z
" id="DejaVuSans-53"/>
     <path d="M 11.71875 12.40625 
L 22.015625 12.40625 
L 22.015625 0 
L 11.71875 0 
z
M 11.71875 51.703125 
L 22.015625 51.703125 
L 22.015625 39.3125 
L 11.71875 39.3125 
z
" id="DejaVuSans-58"/>
    </defs>
    <g transform="translate(60.41088 49.533135)scale(0.102 -0.102)">
     <use xlink:href="#DejaVuSans-53"/>
     <use x="63.623047" xlink:href="#DejaVuSans-49"/>
     <use x="127.246094" xlink:href="#DejaVuSans-32"/>
     <use x="159.033203" xlink:href="#DejaVuSans-116"/>
     <use x="198.242188" xlink:href="#DejaVuSans-97"/>
     <use x="259.521484" xlink:href="#DejaVuSans-114"/>
     <use x="298.884766" xlink:href="#DejaVuSans-103"/>
     <use x="362.361328" xlink:href="#DejaVuSans-101"/>
     <use x="423.884766" xlink:href="#DejaVuSans-116"/>
     <use x="463.09375" xlink:href="#DejaVuSans-115"/>
     <use x="515.193359" xlink:href="#DejaVuSans-58"/>
     <use x="548.884766" xlink:href="#DejaVuSans-32"/>
     <use x="580.671875" xlink:href="#DejaVuSans-49"/>
     <use x="644.294922" xlink:href="#DejaVuSans-48"/>
     <use x="707.917969" xlink:href="#DejaVuSans-48"/>
     <use x="771.541016" xlink:href="#DejaVuSans-46"/>
     <use x="803.328125" xlink:href="#DejaVuSans-46"/>
     <use x="835.115234" xlink:href="#DejaVuSans-49"/>
     <use x="898.738281" xlink:href="#DejaVuSans-101"/>
     <use x="960.261719" xlink:href="#DejaVuSans-45"/>
     <use x="996.345703" xlink:href="#DejaVuSans-48"/>
     <use x="1059.96875" xlink:href="#DejaVuSans-56"/>
    </g>
    <!-- 24, 15 instances -->
    <g transform="translate(60.41088 60.954904)scale(0.102 -0.102)">
     <use xlink:href="#DejaVuSans-50"/>
     <use x="63.623047" xlink:href="#DejaVuSans-52"/>
     <use x="127.246094" xlink:href="#DejaVuSans-44"/>
     <use x="159.033203" xlink:href="#DejaVuSans-32"/>
     <use x="190.820312" xlink:href="#DejaVuSans-49"/>
     <use x="254.443359" xlink:href="#DejaVuSans-53"/>
     <use x="318.066406" xlink:href="#DejaVuSans-32"/>
     <use x="349.853516" xlink:href="#DejaVuSans-105"/>
     <use x="377.636719" xlink:href="#DejaVuSans-110"/>
     <use x="441.015625" xlink:href="#DejaVuSans-115"/>
     <use x="493.115234" xlink:href="#DejaVuSans-116"/>
     <use x="532.324219" xlink:href="#DejaVuSans-97"/>
     <use x="593.603516" xlink:href="#DejaVuSans-110"/>
     <use x="656.982422" xlink:href="#DejaVuSans-99"/>
     <use x="711.962891" xlink:href="#DejaVuSans-101"/>
     <use x="773.486328" xlink:href="#DejaVuSans-115"/>
    </g>
   </g>
   <g id="text_19">
    <!-- v2.4 -->
    <g style="fill:#808080;" transform="translate(187.233062 294.151352)scale(0.1 -0.1)">
     <use xlink:href="#DejaVuSans-118"/>
     <use x="59.179688" xlink:href="#DejaVuSans-50"/>
     <use x="122.802734" xlink:href="#DejaVuSans-46"/>
     <use x="154.589844" xlink:href="#DejaVuSans-52"/>
    </g>
   </g>
   <g id="text_20">
    <!-- 7 Step-ellipsoid -->
    <g transform="translate(120.934625 21.648)scale(0.2 -0.2)">
     <use xlink:href="#DejaVuSans-55"/>
     <use x="63.623047" xlink:href="#DejaVuSans-32"/>
     <use x="95.410156" xlink:href="#DejaVuSans-83"/>
     <use x="158.886719" xlink:href="#DejaVuSans-116"/>
     <use x="198.095703" xlink:href="#DejaVuSans-101"/>
     <use x="259.619141" xlink:href="#DejaVuSans-112"/>
     <use x="323.095703" xlink:href="#DejaVuSans-45"/>
     <use x="359.179688" xlink:href="#DejaVuSans-101"/>
     <use x="420.703125" xlink:href="#DejaVuSans-108"/>
     <use x="448.486328" xlink:href="#DejaVuSans-108"/>
     <use x="476.269531" xlink:href="#DejaVuSans-105"/>
     <use x="504.052734" xlink:href="#DejaVuSans-112"/>
     <use x="567.529297" xlink:href="#DejaVuSans-115"/>
     <use x="619.628906" xlink:href="#DejaVuSans-111"/>
     <use x="680.810547" xlink:href="#DejaVuSans-105"/>
     <use x="708.59375" xlink:href="#DejaVuSans-100"/>
    </g>
   </g>
  </g>
 </g>
 <defs>
  <clipPath id="p542d8b877f">
   <rect height="271.296" width="281.088" x="57.6" y="27.648"/>
  </clipPath>
 </defs>
</svg>
