<?xml version="1.0" encoding="utf-8" standalone="no"?>
<!DOCTYPE svg PUBLIC "-//W3C//DTD SVG 1.1//EN"
  "http://www.w3.org/Graphics/SVG/1.1/DTD/svg11.dtd">
<!-- Created with matplotlib (https://matplotlib.org/) -->
<svg height="345.6pt" version="1.1" viewBox="0 0 460.8 345.6" width="460.8pt" xmlns="http://www.w3.org/2000/svg" xmlns:xlink="http://www.w3.org/1999/xlink">
 <defs>
  <style type="text/css">
*{stroke-linecap:butt;stroke-linejoin:round;}
  </style>
 </defs>
 <g id="figure_1">
  <g id="patch_1">
   <path d="M 0 345.6 
L 460.8 345.6 
L 460.8 0 
L 0 0 
z
" style="fill:#ffffff;"/>
  </g>
  <g id="axes_1">
   <g id="patch_2">
    <path d="M 57.6 298.944 
L 338.688 298.944 
L 338.688 27.648 
L 57.6 27.648 
z
" style="fill:#ffffff;"/>
   </g>
   <g id="line2d_1">
    <path d="M 65.796525 298.944 
L 65.796525 293.677139 
L 68.79347 293.677139 
L 68.79347 288.410278 
L 69.687988 288.410278 
L 69.687988 30.334099 
L 338.688 30.334099 
" style="fill:none;stroke:#f5deb3;stroke-linecap:square;stroke-width:4;"/>
   </g>
   <g id="line2d_2">
    <defs>
     <path d="M -0 7.778175 
L 7.778175 0 
L 0 -7.778175 
L -7.778175 -0 
z
" id="m2e073ee598" style="stroke:#f5deb3;stroke-linejoin:miter;stroke-width:1.5;"/>
    </defs>
    <g>
     <use style="fill:#f5deb3;stroke:#f5deb3;stroke-linejoin:miter;stroke-width:1.5;" x="69.687988" xlink:href="#m2e073ee598" y="288.410278"/>
     <use style="fill:#f5deb3;stroke:#f5deb3;stroke-linejoin:miter;stroke-width:1.5;" x="69.687988" xlink:href="#m2e073ee598" y="288.410278"/>
     <use style="fill:#f5deb3;stroke:#f5deb3;stroke-linejoin:miter;stroke-width:1.5;" x="69.687988" xlink:href="#m2e073ee598" y="30.334099"/>
     <use style="fill:#f5deb3;stroke:#f5deb3;stroke-linejoin:miter;stroke-width:1.5;" x="69.687988" xlink:href="#m2e073ee598" y="30.334099"/>
     <use style="fill:#f5deb3;stroke:#f5deb3;stroke-linejoin:miter;stroke-width:1.5;" x="338.688" xlink:href="#m2e073ee598" y="30.334099"/>
    </g>
   </g>
   <g id="line2d_3">
    <path style="fill:none;stroke:#f5deb3;stroke-linecap:square;stroke-width:4;"/>
    <g/>
   </g>
   <g id="line2d_4">
    <path d="M 338.688 30.334099 
L 369.60768 35.706297 
" style="fill:none;stroke:#f5deb3;stroke-linecap:square;stroke-width:4;"/>
    <g>
     <use style="fill:#f5deb3;stroke:#f5deb3;stroke-linejoin:miter;stroke-width:1.5;" x="338.688" xlink:href="#m2e073ee598" y="30.334099"/>
     <use style="fill:#f5deb3;stroke:#f5deb3;stroke-linejoin:miter;stroke-width:1.5;" x="369.60768" xlink:href="#m2e073ee598" y="35.706297"/>
    </g>
   </g>
   <g id="matplotlib.axis_1">
    <g id="xtick_1">
     <g id="line2d_5">
      <path clip-path="url(#pc49bfc53fd)" d="M 57.6 298.944 
L 57.6 27.648 
" style="fill:none;stroke:#b0b0b0;stroke-linecap:square;stroke-width:0.8;"/>
     </g>
     <g id="line2d_6">
      <defs>
       <path d="M 0 0 
L 0 3.5 
" id="m68ba0e632f" style="stroke:#000000;stroke-width:0.8;"/>
      </defs>
      <g>
       <use style="stroke:#000000;stroke-width:0.8;" x="57.6" xlink:href="#m68ba0e632f" y="298.944"/>
      </g>
     </g>
     <g id="text_1">
      <!-- 0 -->
      <defs>
       <path d="M 31.78125 66.40625 
Q 24.171875 66.40625 20.328125 58.90625 
Q 16.5 51.421875 16.5 36.375 
Q 16.5 21.390625 20.328125 13.890625 
Q 24.171875 6.390625 31.78125 6.390625 
Q 39.453125 6.390625 43.28125 13.890625 
Q 47.125 21.390625 47.125 36.375 
Q 47.125 51.421875 43.28125 58.90625 
Q 39.453125 66.40625 31.78125 66.40625 
z
M 31.78125 74.21875 
Q 44.046875 74.21875 50.515625 64.515625 
Q 56.984375 54.828125 56.984375 36.375 
Q 56.984375 17.96875 50.515625 8.265625 
Q 44.046875 -1.421875 31.78125 -1.421875 
Q 19.53125 -1.421875 13.0625 8.265625 
Q 6.59375 17.96875 6.59375 36.375 
Q 6.59375 54.828125 13.0625 64.515625 
Q 19.53125 74.21875 31.78125 74.21875 
z
" id="DejaVuSans-48"/>
      </defs>
      <g transform="translate(51.2375 321.140875)scale(0.2 -0.2)">
       <use xlink:href="#DejaVuSans-48"/>
      </g>
     </g>
    </g>
    <g id="xtick_2">
     <g id="line2d_7">
      <path clip-path="url(#pc49bfc53fd)" d="M 137.910857 298.944 
L 137.910857 27.648 
" style="fill:none;stroke:#b0b0b0;stroke-linecap:square;stroke-width:0.8;"/>
     </g>
     <g id="line2d_8">
      <g>
       <use style="stroke:#000000;stroke-width:0.8;" x="137.910857" xlink:href="#m68ba0e632f" y="298.944"/>
      </g>
     </g>
     <g id="text_2">
      <!-- 2 -->
      <defs>
       <path d="M 19.1875 8.296875 
L 53.609375 8.296875 
L 53.609375 0 
L 7.328125 0 
L 7.328125 8.296875 
Q 12.9375 14.109375 22.625 23.890625 
Q 32.328125 33.6875 34.8125 36.53125 
Q 39.546875 41.84375 41.421875 45.53125 
Q 43.3125 49.21875 43.3125 52.78125 
Q 43.3125 58.59375 39.234375 62.25 
Q 35.15625 65.921875 28.609375 65.921875 
Q 23.96875 65.921875 18.8125 64.3125 
Q 13.671875 62.703125 7.8125 59.421875 
L 7.8125 69.390625 
Q 13.765625 71.78125 18.9375 73 
Q 24.125 74.21875 28.421875 74.21875 
Q 39.75 74.21875 46.484375 68.546875 
Q 53.21875 62.890625 53.21875 53.421875 
Q 53.21875 48.921875 51.53125 44.890625 
Q 49.859375 40.875 45.40625 35.40625 
Q 44.1875 33.984375 37.640625 27.21875 
Q 31.109375 20.453125 19.1875 8.296875 
z
" id="DejaVuSans-50"/>
      </defs>
      <g transform="translate(131.548357 321.140875)scale(0.2 -0.2)">
       <use xlink:href="#DejaVuSans-50"/>
      </g>
     </g>
    </g>
    <g id="xtick_3">
     <g id="line2d_9">
      <path clip-path="url(#pc49bfc53fd)" d="M 218.221714 298.944 
L 218.221714 27.648 
" style="fill:none;stroke:#b0b0b0;stroke-linecap:square;stroke-width:0.8;"/>
     </g>
     <g id="line2d_10">
      <g>
       <use style="stroke:#000000;stroke-width:0.8;" x="218.221714" xlink:href="#m68ba0e632f" y="298.944"/>
      </g>
     </g>
     <g id="text_3">
      <!-- 4 -->
      <defs>
       <path d="M 37.796875 64.3125 
L 12.890625 25.390625 
L 37.796875 25.390625 
z
M 35.203125 72.90625 
L 47.609375 72.90625 
L 47.609375 25.390625 
L 58.015625 25.390625 
L 58.015625 17.1875 
L 47.609375 17.1875 
L 47.609375 0 
L 37.796875 0 
L 37.796875 17.1875 
L 4.890625 17.1875 
L 4.890625 26.703125 
z
" id="DejaVuSans-52"/>
      </defs>
      <g transform="translate(211.859214 321.140875)scale(0.2 -0.2)">
       <use xlink:href="#DejaVuSans-52"/>
      </g>
     </g>
    </g>
    <g id="xtick_4">
     <g id="line2d_11">
      <path clip-path="url(#pc49bfc53fd)" d="M 298.532571 298.944 
L 298.532571 27.648 
" style="fill:none;stroke:#b0b0b0;stroke-linecap:square;stroke-width:0.8;"/>
     </g>
     <g id="line2d_12">
      <g>
       <use style="stroke:#000000;stroke-width:0.8;" x="298.532571" xlink:href="#m68ba0e632f" y="298.944"/>
      </g>
     </g>
     <g id="text_4">
      <!-- 6 -->
      <defs>
       <path d="M 33.015625 40.375 
Q 26.375 40.375 22.484375 35.828125 
Q 18.609375 31.296875 18.609375 23.390625 
Q 18.609375 15.53125 22.484375 10.953125 
Q 26.375 6.390625 33.015625 6.390625 
Q 39.65625 6.390625 43.53125 10.953125 
Q 47.40625 15.53125 47.40625 23.390625 
Q 47.40625 31.296875 43.53125 35.828125 
Q 39.65625 40.375 33.015625 40.375 
z
M 52.59375 71.296875 
L 52.59375 62.3125 
Q 48.875 64.0625 45.09375 64.984375 
Q 41.3125 65.921875 37.59375 65.921875 
Q 27.828125 65.921875 22.671875 59.328125 
Q 17.53125 52.734375 16.796875 39.40625 
Q 19.671875 43.65625 24.015625 45.921875 
Q 28.375 48.1875 33.59375 48.1875 
Q 44.578125 48.1875 50.953125 41.515625 
Q 57.328125 34.859375 57.328125 23.390625 
Q 57.328125 12.15625 50.6875 5.359375 
Q 44.046875 -1.421875 33.015625 -1.421875 
Q 20.359375 -1.421875 13.671875 8.265625 
Q 6.984375 17.96875 6.984375 36.375 
Q 6.984375 53.65625 15.1875 63.9375 
Q 23.390625 74.21875 37.203125 74.21875 
Q 40.921875 74.21875 44.703125 73.484375 
Q 48.484375 72.75 52.59375 71.296875 
z
" id="DejaVuSans-54"/>
      </defs>
      <g transform="translate(292.170071 321.140875)scale(0.2 -0.2)">
       <use xlink:href="#DejaVuSans-54"/>
      </g>
     </g>
    </g>
    <g id="xtick_5">
     <g id="line2d_13">
      <path clip-path="url(#pc49bfc53fd)" d="M 97.755429 298.944 
L 97.755429 27.648 
" style="fill:none;stroke:#b0b0b0;stroke-linecap:square;stroke-width:0.8;"/>
     </g>
     <g id="line2d_14">
      <defs>
       <path d="M 0 0 
L 0 2 
" id="me0fc4a18c0" style="stroke:#000000;stroke-width:0.6;"/>
      </defs>
      <g>
       <use style="stroke:#000000;stroke-width:0.6;" x="97.755429" xlink:href="#me0fc4a18c0" y="298.944"/>
      </g>
     </g>
    </g>
    <g id="xtick_6">
     <g id="line2d_15">
      <path clip-path="url(#pc49bfc53fd)" d="M 178.066286 298.944 
L 178.066286 27.648 
" style="fill:none;stroke:#b0b0b0;stroke-linecap:square;stroke-width:0.8;"/>
     </g>
     <g id="line2d_16">
      <g>
       <use style="stroke:#000000;stroke-width:0.6;" x="178.066286" xlink:href="#me0fc4a18c0" y="298.944"/>
      </g>
     </g>
    </g>
    <g id="xtick_7">
     <g id="line2d_17">
      <path clip-path="url(#pc49bfc53fd)" d="M 258.377143 298.944 
L 258.377143 27.648 
" style="fill:none;stroke:#b0b0b0;stroke-linecap:square;stroke-width:0.8;"/>
     </g>
     <g id="line2d_18">
      <g>
       <use style="stroke:#000000;stroke-width:0.6;" x="258.377143" xlink:href="#me0fc4a18c0" y="298.944"/>
      </g>
     </g>
    </g>
    <g id="xtick_8">
     <g id="line2d_19">
      <path clip-path="url(#pc49bfc53fd)" d="M 338.688 298.944 
L 338.688 27.648 
" style="fill:none;stroke:#b0b0b0;stroke-linecap:square;stroke-width:0.8;"/>
     </g>
     <g id="line2d_20">
      <g>
       <use style="stroke:#000000;stroke-width:0.6;" x="338.688" xlink:href="#me0fc4a18c0" y="298.944"/>
      </g>
     </g>
    </g>
    <g id="text_5">
     <!-- log10(# f-evals / dimension) -->
     <defs>
      <path d="M 9.421875 75.984375 
L 18.40625 75.984375 
L 18.40625 0 
L 9.421875 0 
z
" id="DejaVuSans-108"/>
      <path d="M 30.609375 48.390625 
Q 23.390625 48.390625 19.1875 42.75 
Q 14.984375 37.109375 14.984375 27.296875 
Q 14.984375 17.484375 19.15625 11.84375 
Q 23.34375 6.203125 30.609375 6.203125 
Q 37.796875 6.203125 41.984375 11.859375 
Q 46.1875 17.53125 46.1875 27.296875 
Q 46.1875 37.015625 41.984375 42.703125 
Q 37.796875 48.390625 30.609375 48.390625 
z
M 30.609375 56 
Q 42.328125 56 49.015625 48.375 
Q 55.71875 40.765625 55.71875 27.296875 
Q 55.71875 13.875 49.015625 6.21875 
Q 42.328125 -1.421875 30.609375 -1.421875 
Q 18.84375 -1.421875 12.171875 6.21875 
Q 5.515625 13.875 5.515625 27.296875 
Q 5.515625 40.765625 12.171875 48.375 
Q 18.84375 56 30.609375 56 
z
" id="DejaVuSans-111"/>
      <path d="M 45.40625 27.984375 
Q 45.40625 37.75 41.375 43.109375 
Q 37.359375 48.484375 30.078125 48.484375 
Q 22.859375 48.484375 18.828125 43.109375 
Q 14.796875 37.75 14.796875 27.984375 
Q 14.796875 18.265625 18.828125 12.890625 
Q 22.859375 7.515625 30.078125 7.515625 
Q 37.359375 7.515625 41.375 12.890625 
Q 45.40625 18.265625 45.40625 27.984375 
z
M 54.390625 6.78125 
Q 54.390625 -7.171875 48.1875 -13.984375 
Q 42 -20.796875 29.203125 -20.796875 
Q 24.46875 -20.796875 20.265625 -20.09375 
Q 16.0625 -19.390625 12.109375 -17.921875 
L 12.109375 -9.1875 
Q 16.0625 -11.328125 19.921875 -12.34375 
Q 23.78125 -13.375 27.78125 -13.375 
Q 36.625 -13.375 41.015625 -8.765625 
Q 45.40625 -4.15625 45.40625 5.171875 
L 45.40625 9.625 
Q 42.625 4.78125 38.28125 2.390625 
Q 33.9375 0 27.875 0 
Q 17.828125 0 11.671875 7.65625 
Q 5.515625 15.328125 5.515625 27.984375 
Q 5.515625 40.671875 11.671875 48.328125 
Q 17.828125 56 27.875 56 
Q 33.9375 56 38.28125 53.609375 
Q 42.625 51.21875 45.40625 46.390625 
L 45.40625 54.6875 
L 54.390625 54.6875 
z
" id="DejaVuSans-103"/>
      <path d="M 12.40625 8.296875 
L 28.515625 8.296875 
L 28.515625 63.921875 
L 10.984375 60.40625 
L 10.984375 69.390625 
L 28.421875 72.90625 
L 38.28125 72.90625 
L 38.28125 8.296875 
L 54.390625 8.296875 
L 54.390625 0 
L 12.40625 0 
z
" id="DejaVuSans-49"/>
      <path d="M 31 75.875 
Q 24.46875 64.65625 21.28125 53.65625 
Q 18.109375 42.671875 18.109375 31.390625 
Q 18.109375 20.125 21.3125 9.0625 
Q 24.515625 -2 31 -13.1875 
L 23.1875 -13.1875 
Q 15.875 -1.703125 12.234375 9.375 
Q 8.59375 20.453125 8.59375 31.390625 
Q 8.59375 42.28125 12.203125 53.3125 
Q 15.828125 64.359375 23.1875 75.875 
z
" id="DejaVuSans-40"/>
      <path d="M 51.125 44 
L 36.921875 44 
L 32.8125 27.6875 
L 47.125 27.6875 
z
M 43.796875 71.78125 
L 38.71875 51.515625 
L 52.984375 51.515625 
L 58.109375 71.78125 
L 65.921875 71.78125 
L 60.890625 51.515625 
L 76.125 51.515625 
L 76.125 44 
L 58.984375 44 
L 54.984375 27.6875 
L 70.515625 27.6875 
L 70.515625 20.21875 
L 53.078125 20.21875 
L 48 0 
L 40.1875 0 
L 45.21875 20.21875 
L 30.90625 20.21875 
L 25.875 0 
L 18.015625 0 
L 23.09375 20.21875 
L 7.71875 20.21875 
L 7.71875 27.6875 
L 24.90625 27.6875 
L 29 44 
L 13.28125 44 
L 13.28125 51.515625 
L 30.90625 51.515625 
L 35.890625 71.78125 
z
" id="DejaVuSans-35"/>
      <path id="DejaVuSans-32"/>
      <path d="M 37.109375 75.984375 
L 37.109375 68.5 
L 28.515625 68.5 
Q 23.6875 68.5 21.796875 66.546875 
Q 19.921875 64.59375 19.921875 59.515625 
L 19.921875 54.6875 
L 34.71875 54.6875 
L 34.71875 47.703125 
L 19.921875 47.703125 
L 19.921875 0 
L 10.890625 0 
L 10.890625 47.703125 
L 2.296875 47.703125 
L 2.296875 54.6875 
L 10.890625 54.6875 
L 10.890625 58.5 
Q 10.890625 67.625 15.140625 71.796875 
Q 19.390625 75.984375 28.609375 75.984375 
z
" id="DejaVuSans-102"/>
      <path d="M 4.890625 31.390625 
L 31.203125 31.390625 
L 31.203125 23.390625 
L 4.890625 23.390625 
z
" id="DejaVuSans-45"/>
      <path d="M 56.203125 29.59375 
L 56.203125 25.203125 
L 14.890625 25.203125 
Q 15.484375 15.921875 20.484375 11.0625 
Q 25.484375 6.203125 34.421875 6.203125 
Q 39.59375 6.203125 44.453125 7.46875 
Q 49.3125 8.734375 54.109375 11.28125 
L 54.109375 2.78125 
Q 49.265625 0.734375 44.1875 -0.34375 
Q 39.109375 -1.421875 33.890625 -1.421875 
Q 20.796875 -1.421875 13.15625 6.1875 
Q 5.515625 13.8125 5.515625 26.8125 
Q 5.515625 40.234375 12.765625 48.109375 
Q 20.015625 56 32.328125 56 
Q 43.359375 56 49.78125 48.890625 
Q 56.203125 41.796875 56.203125 29.59375 
z
M 47.21875 32.234375 
Q 47.125 39.59375 43.09375 43.984375 
Q 39.0625 48.390625 32.421875 48.390625 
Q 24.90625 48.390625 20.390625 44.140625 
Q 15.875 39.890625 15.1875 32.171875 
z
" id="DejaVuSans-101"/>
      <path d="M 2.984375 54.6875 
L 12.5 54.6875 
L 29.59375 8.796875 
L 46.6875 54.6875 
L 56.203125 54.6875 
L 35.6875 0 
L 23.484375 0 
z
" id="DejaVuSans-118"/>
      <path d="M 34.28125 27.484375 
Q 23.390625 27.484375 19.1875 25 
Q 14.984375 22.515625 14.984375 16.5 
Q 14.984375 11.71875 18.140625 8.90625 
Q 21.296875 6.109375 26.703125 6.109375 
Q 34.1875 6.109375 38.703125 11.40625 
Q 43.21875 16.703125 43.21875 25.484375 
L 43.21875 27.484375 
z
M 52.203125 31.203125 
L 52.203125 0 
L 43.21875 0 
L 43.21875 8.296875 
Q 40.140625 3.328125 35.546875 0.953125 
Q 30.953125 -1.421875 24.3125 -1.421875 
Q 15.921875 -1.421875 10.953125 3.296875 
Q 6 8.015625 6 15.921875 
Q 6 25.140625 12.171875 29.828125 
Q 18.359375 34.515625 30.609375 34.515625 
L 43.21875 34.515625 
L 43.21875 35.40625 
Q 43.21875 41.609375 39.140625 45 
Q 35.0625 48.390625 27.6875 48.390625 
Q 23 48.390625 18.546875 47.265625 
Q 14.109375 46.140625 10.015625 43.890625 
L 10.015625 52.203125 
Q 14.9375 54.109375 19.578125 55.046875 
Q 24.21875 56 28.609375 56 
Q 40.484375 56 46.34375 49.84375 
Q 52.203125 43.703125 52.203125 31.203125 
z
" id="DejaVuSans-97"/>
      <path d="M 44.28125 53.078125 
L 44.28125 44.578125 
Q 40.484375 46.53125 36.375 47.5 
Q 32.28125 48.484375 27.875 48.484375 
Q 21.1875 48.484375 17.84375 46.4375 
Q 14.5 44.390625 14.5 40.28125 
Q 14.5 37.15625 16.890625 35.375 
Q 19.28125 33.59375 26.515625 31.984375 
L 29.59375 31.296875 
Q 39.15625 29.25 43.1875 25.515625 
Q 47.21875 21.78125 47.21875 15.09375 
Q 47.21875 7.46875 41.1875 3.015625 
Q 35.15625 -1.421875 24.609375 -1.421875 
Q 20.21875 -1.421875 15.453125 -0.5625 
Q 10.6875 0.296875 5.421875 2 
L 5.421875 11.28125 
Q 10.40625 8.6875 15.234375 7.390625 
Q 20.0625 6.109375 24.8125 6.109375 
Q 31.15625 6.109375 34.5625 8.28125 
Q 37.984375 10.453125 37.984375 14.40625 
Q 37.984375 18.0625 35.515625 20.015625 
Q 33.0625 21.96875 24.703125 23.78125 
L 21.578125 24.515625 
Q 13.234375 26.265625 9.515625 29.90625 
Q 5.8125 33.546875 5.8125 39.890625 
Q 5.8125 47.609375 11.28125 51.796875 
Q 16.75 56 26.8125 56 
Q 31.78125 56 36.171875 55.265625 
Q 40.578125 54.546875 44.28125 53.078125 
z
" id="DejaVuSans-115"/>
      <path d="M 25.390625 72.90625 
L 33.6875 72.90625 
L 8.296875 -9.28125 
L 0 -9.28125 
z
" id="DejaVuSans-47"/>
      <path d="M 45.40625 46.390625 
L 45.40625 75.984375 
L 54.390625 75.984375 
L 54.390625 0 
L 45.40625 0 
L 45.40625 8.203125 
Q 42.578125 3.328125 38.25 0.953125 
Q 33.9375 -1.421875 27.875 -1.421875 
Q 17.96875 -1.421875 11.734375 6.484375 
Q 5.515625 14.40625 5.515625 27.296875 
Q 5.515625 40.1875 11.734375 48.09375 
Q 17.96875 56 27.875 56 
Q 33.9375 56 38.25 53.625 
Q 42.578125 51.265625 45.40625 46.390625 
z
M 14.796875 27.296875 
Q 14.796875 17.390625 18.875 11.75 
Q 22.953125 6.109375 30.078125 6.109375 
Q 37.203125 6.109375 41.296875 11.75 
Q 45.40625 17.390625 45.40625 27.296875 
Q 45.40625 37.203125 41.296875 42.84375 
Q 37.203125 48.484375 30.078125 48.484375 
Q 22.953125 48.484375 18.875 42.84375 
Q 14.796875 37.203125 14.796875 27.296875 
z
" id="DejaVuSans-100"/>
      <path d="M 9.421875 54.6875 
L 18.40625 54.6875 
L 18.40625 0 
L 9.421875 0 
z
M 9.421875 75.984375 
L 18.40625 75.984375 
L 18.40625 64.59375 
L 9.421875 64.59375 
z
" id="DejaVuSans-105"/>
      <path d="M 52 44.1875 
Q 55.375 50.25 60.0625 53.125 
Q 64.75 56 71.09375 56 
Q 79.640625 56 84.28125 50.015625 
Q 88.921875 44.046875 88.921875 33.015625 
L 88.921875 0 
L 79.890625 0 
L 79.890625 32.71875 
Q 79.890625 40.578125 77.09375 44.375 
Q 74.3125 48.1875 68.609375 48.1875 
Q 61.625 48.1875 57.5625 43.546875 
Q 53.515625 38.921875 53.515625 30.90625 
L 53.515625 0 
L 44.484375 0 
L 44.484375 32.71875 
Q 44.484375 40.625 41.703125 44.40625 
Q 38.921875 48.1875 33.109375 48.1875 
Q 26.21875 48.1875 22.15625 43.53125 
Q 18.109375 38.875 18.109375 30.90625 
L 18.109375 0 
L 9.078125 0 
L 9.078125 54.6875 
L 18.109375 54.6875 
L 18.109375 46.1875 
Q 21.1875 51.21875 25.484375 53.609375 
Q 29.78125 56 35.6875 56 
Q 41.65625 56 45.828125 52.96875 
Q 50 49.953125 52 44.1875 
z
" id="DejaVuSans-109"/>
      <path d="M 54.890625 33.015625 
L 54.890625 0 
L 45.90625 0 
L 45.90625 32.71875 
Q 45.90625 40.484375 42.875 44.328125 
Q 39.84375 48.1875 33.796875 48.1875 
Q 26.515625 48.1875 22.3125 43.546875 
Q 18.109375 38.921875 18.109375 30.90625 
L 18.109375 0 
L 9.078125 0 
L 9.078125 54.6875 
L 18.109375 54.6875 
L 18.109375 46.1875 
Q 21.34375 51.125 25.703125 53.5625 
Q 30.078125 56 35.796875 56 
Q 45.21875 56 50.046875 50.171875 
Q 54.890625 44.34375 54.890625 33.015625 
z
" id="DejaVuSans-110"/>
      <path d="M 8.015625 75.875 
L 15.828125 75.875 
Q 23.140625 64.359375 26.78125 53.3125 
Q 30.421875 42.28125 30.421875 31.390625 
Q 30.421875 20.453125 26.78125 9.375 
Q 23.140625 -1.703125 15.828125 -13.1875 
L 8.015625 -13.1875 
Q 14.5 -2 17.703125 9.0625 
Q 20.90625 20.125 20.90625 31.390625 
Q 20.90625 42.671875 17.703125 53.65625 
Q 14.5 64.65625 8.015625 75.875 
z
" id="DejaVuSans-41"/>
     </defs>
     <g transform="translate(77.764078 342.217594)scale(0.17 -0.17)">
      <use xlink:href="#DejaVuSans-108"/>
      <use x="27.783203" xlink:href="#DejaVuSans-111"/>
      <use x="88.964844" xlink:href="#DejaVuSans-103"/>
      <use x="152.441406" xlink:href="#DejaVuSans-49"/>
      <use x="216.064453" xlink:href="#DejaVuSans-48"/>
      <use x="279.6875" xlink:href="#DejaVuSans-40"/>
      <use x="318.701172" xlink:href="#DejaVuSans-35"/>
      <use x="402.490234" xlink:href="#DejaVuSans-32"/>
      <use x="434.277344" xlink:href="#DejaVuSans-102"/>
      <use x="463.982422" xlink:href="#DejaVuSans-45"/>
      <use x="500.066406" xlink:href="#DejaVuSans-101"/>
      <use x="561.589844" xlink:href="#DejaVuSans-118"/>
      <use x="620.769531" xlink:href="#DejaVuSans-97"/>
      <use x="682.048828" xlink:href="#DejaVuSans-108"/>
      <use x="709.832031" xlink:href="#DejaVuSans-115"/>
      <use x="761.931641" xlink:href="#DejaVuSans-32"/>
      <use x="793.71875" xlink:href="#DejaVuSans-47"/>
      <use x="827.410156" xlink:href="#DejaVuSans-32"/>
      <use x="859.197266" xlink:href="#DejaVuSans-100"/>
      <use x="922.673828" xlink:href="#DejaVuSans-105"/>
      <use x="950.457031" xlink:href="#DejaVuSans-109"/>
      <use x="1047.869141" xlink:href="#DejaVuSans-101"/>
      <use x="1109.392578" xlink:href="#DejaVuSans-110"/>
      <use x="1172.771484" xlink:href="#DejaVuSans-115"/>
      <use x="1224.871094" xlink:href="#DejaVuSans-105"/>
      <use x="1252.654297" xlink:href="#DejaVuSans-111"/>
      <use x="1313.835938" xlink:href="#DejaVuSans-110"/>
      <use x="1377.214844" xlink:href="#DejaVuSans-41"/>
     </g>
    </g>
   </g>
   <g id="matplotlib.axis_2">
    <g id="ytick_1">
     <g id="line2d_21">
      <path clip-path="url(#pc49bfc53fd)" d="M 57.6 298.944 
L 338.688 298.944 
" style="fill:none;stroke:#b0b0b0;stroke-linecap:square;stroke-width:0.8;"/>
     </g>
     <g id="line2d_22">
      <defs>
       <path d="M 0 0 
L -3.5 0 
" id="m08d6e53a34" style="stroke:#000000;stroke-width:0.8;"/>
      </defs>
      <g>
       <use style="stroke:#000000;stroke-width:0.8;" x="57.6" xlink:href="#m08d6e53a34" y="298.944"/>
      </g>
     </g>
     <g id="text_6">
      <!-- 0.0 -->
      <defs>
       <path d="M 10.6875 12.40625 
L 21 12.40625 
L 21 0 
L 10.6875 0 
z
" id="DejaVuSans-46"/>
      </defs>
      <g transform="translate(25.155 305.02275)scale(0.16 -0.16)">
       <use xlink:href="#DejaVuSans-48"/>
       <use x="63.623047" xlink:href="#DejaVuSans-46"/>
       <use x="95.410156" xlink:href="#DejaVuSans-48"/>
      </g>
     </g>
    </g>
    <g id="ytick_2">
     <g id="line2d_23">
      <path clip-path="url(#pc49bfc53fd)" d="M 57.6 245.22202 
L 338.688 245.22202 
" style="fill:none;stroke:#b0b0b0;stroke-linecap:square;stroke-width:0.8;"/>
     </g>
     <g id="line2d_24">
      <g>
       <use style="stroke:#000000;stroke-width:0.8;" x="57.6" xlink:href="#m08d6e53a34" y="245.22202"/>
      </g>
     </g>
     <g id="text_7">
      <!-- 0.2 -->
      <g transform="translate(25.155 251.30077)scale(0.16 -0.16)">
       <use xlink:href="#DejaVuSans-48"/>
       <use x="63.623047" xlink:href="#DejaVuSans-46"/>
       <use x="95.410156" xlink:href="#DejaVuSans-50"/>
      </g>
     </g>
    </g>
    <g id="ytick_3">
     <g id="line2d_25">
      <path clip-path="url(#pc49bfc53fd)" d="M 57.6 191.50004 
L 338.688 191.50004 
" style="fill:none;stroke:#b0b0b0;stroke-linecap:square;stroke-width:0.8;"/>
     </g>
     <g id="line2d_26">
      <g>
       <use style="stroke:#000000;stroke-width:0.8;" x="57.6" xlink:href="#m08d6e53a34" y="191.50004"/>
      </g>
     </g>
     <g id="text_8">
      <!-- 0.4 -->
      <g transform="translate(25.155 197.57879)scale(0.16 -0.16)">
       <use xlink:href="#DejaVuSans-48"/>
       <use x="63.623047" xlink:href="#DejaVuSans-46"/>
       <use x="95.410156" xlink:href="#DejaVuSans-52"/>
      </g>
     </g>
    </g>
    <g id="ytick_4">
     <g id="line2d_27">
      <path clip-path="url(#pc49bfc53fd)" d="M 57.6 137.778059 
L 338.688 137.778059 
" style="fill:none;stroke:#b0b0b0;stroke-linecap:square;stroke-width:0.8;"/>
     </g>
     <g id="line2d_28">
      <g>
       <use style="stroke:#000000;stroke-width:0.8;" x="57.6" xlink:href="#m08d6e53a34" y="137.778059"/>
      </g>
     </g>
     <g id="text_9">
      <!-- 0.6 -->
      <g transform="translate(25.155 143.856809)scale(0.16 -0.16)">
       <use xlink:href="#DejaVuSans-48"/>
       <use x="63.623047" xlink:href="#DejaVuSans-46"/>
       <use x="95.410156" xlink:href="#DejaVuSans-54"/>
      </g>
     </g>
    </g>
    <g id="ytick_5">
     <g id="line2d_29">
      <path clip-path="url(#pc49bfc53fd)" d="M 57.6 84.056079 
L 338.688 84.056079 
" style="fill:none;stroke:#b0b0b0;stroke-linecap:square;stroke-width:0.8;"/>
     </g>
     <g id="line2d_30">
      <g>
       <use style="stroke:#000000;stroke-width:0.8;" x="57.6" xlink:href="#m08d6e53a34" y="84.056079"/>
      </g>
     </g>
     <g id="text_10">
      <!-- 0.8 -->
      <defs>
       <path d="M 31.78125 34.625 
Q 24.75 34.625 20.71875 30.859375 
Q 16.703125 27.09375 16.703125 20.515625 
Q 16.703125 13.921875 20.71875 10.15625 
Q 24.75 6.390625 31.78125 6.390625 
Q 38.8125 6.390625 42.859375 10.171875 
Q 46.921875 13.96875 46.921875 20.515625 
Q 46.921875 27.09375 42.890625 30.859375 
Q 38.875 34.625 31.78125 34.625 
z
M 21.921875 38.8125 
Q 15.578125 40.375 12.03125 44.71875 
Q 8.5 49.078125 8.5 55.328125 
Q 8.5 64.0625 14.71875 69.140625 
Q 20.953125 74.21875 31.78125 74.21875 
Q 42.671875 74.21875 48.875 69.140625 
Q 55.078125 64.0625 55.078125 55.328125 
Q 55.078125 49.078125 51.53125 44.71875 
Q 48 40.375 41.703125 38.8125 
Q 48.828125 37.15625 52.796875 32.3125 
Q 56.78125 27.484375 56.78125 20.515625 
Q 56.78125 9.90625 50.3125 4.234375 
Q 43.84375 -1.421875 31.78125 -1.421875 
Q 19.734375 -1.421875 13.25 4.234375 
Q 6.78125 9.90625 6.78125 20.515625 
Q 6.78125 27.484375 10.78125 32.3125 
Q 14.796875 37.15625 21.921875 38.8125 
z
M 18.3125 54.390625 
Q 18.3125 48.734375 21.84375 45.5625 
Q 25.390625 42.390625 31.78125 42.390625 
Q 38.140625 42.390625 41.71875 45.5625 
Q 45.3125 48.734375 45.3125 54.390625 
Q 45.3125 60.0625 41.71875 63.234375 
Q 38.140625 66.40625 31.78125 66.40625 
Q 25.390625 66.40625 21.84375 63.234375 
Q 18.3125 60.0625 18.3125 54.390625 
z
" id="DejaVuSans-56"/>
      </defs>
      <g transform="translate(25.155 90.134829)scale(0.16 -0.16)">
       <use xlink:href="#DejaVuSans-48"/>
       <use x="63.623047" xlink:href="#DejaVuSans-46"/>
       <use x="95.410156" xlink:href="#DejaVuSans-56"/>
      </g>
     </g>
    </g>
    <g id="ytick_6">
     <g id="line2d_31">
      <path clip-path="url(#pc49bfc53fd)" d="M 57.6 30.334099 
L 338.688 30.334099 
" style="fill:none;stroke:#b0b0b0;stroke-linecap:square;stroke-width:0.8;"/>
     </g>
     <g id="line2d_32">
      <g>
       <use style="stroke:#000000;stroke-width:0.8;" x="57.6" xlink:href="#m08d6e53a34" y="30.334099"/>
      </g>
     </g>
     <g id="text_11">
      <!-- 1.0 -->
      <g transform="translate(25.155 36.412849)scale(0.16 -0.16)">
       <use xlink:href="#DejaVuSans-49"/>
       <use x="63.623047" xlink:href="#DejaVuSans-46"/>
       <use x="95.410156" xlink:href="#DejaVuSans-48"/>
      </g>
     </g>
    </g>
    <g id="text_12">
     <!-- Fraction of function,target pairs -->
     <defs>
      <path d="M 9.8125 72.90625 
L 51.703125 72.90625 
L 51.703125 64.59375 
L 19.671875 64.59375 
L 19.671875 43.109375 
L 48.578125 43.109375 
L 48.578125 34.8125 
L 19.671875 34.8125 
L 19.671875 0 
L 9.8125 0 
z
" id="DejaVuSans-70"/>
      <path d="M 41.109375 46.296875 
Q 39.59375 47.171875 37.8125 47.578125 
Q 36.03125 48 33.890625 48 
Q 26.265625 48 22.1875 43.046875 
Q 18.109375 38.09375 18.109375 28.8125 
L 18.109375 0 
L 9.078125 0 
L 9.078125 54.6875 
L 18.109375 54.6875 
L 18.109375 46.1875 
Q 20.953125 51.171875 25.484375 53.578125 
Q 30.03125 56 36.53125 56 
Q 37.453125 56 38.578125 55.875 
Q 39.703125 55.765625 41.0625 55.515625 
z
" id="DejaVuSans-114"/>
      <path d="M 48.78125 52.59375 
L 48.78125 44.1875 
Q 44.96875 46.296875 41.140625 47.34375 
Q 37.3125 48.390625 33.40625 48.390625 
Q 24.65625 48.390625 19.8125 42.84375 
Q 14.984375 37.3125 14.984375 27.296875 
Q 14.984375 17.28125 19.8125 11.734375 
Q 24.65625 6.203125 33.40625 6.203125 
Q 37.3125 6.203125 41.140625 7.25 
Q 44.96875 8.296875 48.78125 10.40625 
L 48.78125 2.09375 
Q 45.015625 0.34375 40.984375 -0.53125 
Q 36.96875 -1.421875 32.421875 -1.421875 
Q 20.0625 -1.421875 12.78125 6.34375 
Q 5.515625 14.109375 5.515625 27.296875 
Q 5.515625 40.671875 12.859375 48.328125 
Q 20.21875 56 33.015625 56 
Q 37.15625 56 41.109375 55.140625 
Q 45.0625 54.296875 48.78125 52.59375 
z
" id="DejaVuSans-99"/>
      <path d="M 18.3125 70.21875 
L 18.3125 54.6875 
L 36.8125 54.6875 
L 36.8125 47.703125 
L 18.3125 47.703125 
L 18.3125 18.015625 
Q 18.3125 11.328125 20.140625 9.421875 
Q 21.96875 7.515625 27.59375 7.515625 
L 36.8125 7.515625 
L 36.8125 0 
L 27.59375 0 
Q 17.1875 0 13.234375 3.875 
Q 9.28125 7.765625 9.28125 18.015625 
L 9.28125 47.703125 
L 2.6875 47.703125 
L 2.6875 54.6875 
L 9.28125 54.6875 
L 9.28125 70.21875 
z
" id="DejaVuSans-116"/>
      <path d="M 8.5 21.578125 
L 8.5 54.6875 
L 17.484375 54.6875 
L 17.484375 21.921875 
Q 17.484375 14.15625 20.5 10.265625 
Q 23.53125 6.390625 29.59375 6.390625 
Q 36.859375 6.390625 41.078125 11.03125 
Q 45.3125 15.671875 45.3125 23.6875 
L 45.3125 54.6875 
L 54.296875 54.6875 
L 54.296875 0 
L 45.3125 0 
L 45.3125 8.40625 
Q 42.046875 3.421875 37.71875 1 
Q 33.40625 -1.421875 27.6875 -1.421875 
Q 18.265625 -1.421875 13.375 4.4375 
Q 8.5 10.296875 8.5 21.578125 
z
M 31.109375 56 
z
" id="DejaVuSans-117"/>
      <path d="M 11.71875 12.40625 
L 22.015625 12.40625 
L 22.015625 4 
L 14.015625 -11.625 
L 7.71875 -11.625 
L 11.71875 4 
z
" id="DejaVuSans-44"/>
      <path d="M 18.109375 8.203125 
L 18.109375 -20.796875 
L 9.078125 -20.796875 
L 9.078125 54.6875 
L 18.109375 54.6875 
L 18.109375 46.390625 
Q 20.953125 51.265625 25.265625 53.625 
Q 29.59375 56 35.59375 56 
Q 45.5625 56 51.78125 48.09375 
Q 58.015625 40.1875 58.015625 27.296875 
Q 58.015625 14.40625 51.78125 6.484375 
Q 45.5625 -1.421875 35.59375 -1.421875 
Q 29.59375 -1.421875 25.265625 0.953125 
Q 20.953125 3.328125 18.109375 8.203125 
z
M 48.6875 27.296875 
Q 48.6875 37.203125 44.609375 42.84375 
Q 40.53125 48.484375 33.40625 48.484375 
Q 26.265625 48.484375 22.1875 42.84375 
Q 18.109375 37.203125 18.109375 27.296875 
Q 18.109375 17.390625 22.1875 11.75 
Q 26.265625 6.109375 33.40625 6.109375 
Q 40.53125 6.109375 44.609375 11.75 
Q 48.6875 17.390625 48.6875 27.296875 
z
" id="DejaVuSans-112"/>
     </defs>
     <g transform="translate(17.619531 297.681)rotate(-90)scale(0.17 -0.17)">
      <use xlink:href="#DejaVuSans-70"/>
      <use x="50.269531" xlink:href="#DejaVuSans-114"/>
      <use x="91.382812" xlink:href="#DejaVuSans-97"/>
      <use x="152.662109" xlink:href="#DejaVuSans-99"/>
      <use x="207.642578" xlink:href="#DejaVuSans-116"/>
      <use x="246.851562" xlink:href="#DejaVuSans-105"/>
      <use x="274.634766" xlink:href="#DejaVuSans-111"/>
      <use x="335.816406" xlink:href="#DejaVuSans-110"/>
      <use x="399.195312" xlink:href="#DejaVuSans-32"/>
      <use x="430.982422" xlink:href="#DejaVuSans-111"/>
      <use x="492.164062" xlink:href="#DejaVuSans-102"/>
      <use x="527.369141" xlink:href="#DejaVuSans-32"/>
      <use x="559.15625" xlink:href="#DejaVuSans-102"/>
      <use x="594.361328" xlink:href="#DejaVuSans-117"/>
      <use x="657.740234" xlink:href="#DejaVuSans-110"/>
      <use x="721.119141" xlink:href="#DejaVuSans-99"/>
      <use x="776.099609" xlink:href="#DejaVuSans-116"/>
      <use x="815.308594" xlink:href="#DejaVuSans-105"/>
      <use x="843.091797" xlink:href="#DejaVuSans-111"/>
      <use x="904.273438" xlink:href="#DejaVuSans-110"/>
      <use x="967.652344" xlink:href="#DejaVuSans-44"/>
      <use x="999.439453" xlink:href="#DejaVuSans-116"/>
      <use x="1038.648438" xlink:href="#DejaVuSans-97"/>
      <use x="1099.927734" xlink:href="#DejaVuSans-114"/>
      <use x="1139.291016" xlink:href="#DejaVuSans-103"/>
      <use x="1202.767578" xlink:href="#DejaVuSans-101"/>
      <use x="1264.291016" xlink:href="#DejaVuSans-116"/>
      <use x="1303.5" xlink:href="#DejaVuSans-32"/>
      <use x="1335.287109" xlink:href="#DejaVuSans-112"/>
      <use x="1398.763672" xlink:href="#DejaVuSans-97"/>
      <use x="1460.042969" xlink:href="#DejaVuSans-105"/>
      <use x="1487.826172" xlink:href="#DejaVuSans-114"/>
      <use x="1528.939453" xlink:href="#DejaVuSans-115"/>
     </g>
    </g>
   </g>
   <g id="line2d_33">
    <defs>
     <path d="M 0 1.5 
C 0.397805 1.5 0.77937 1.341951 1.06066 1.06066 
C 1.341951 0.77937 1.5 0.397805 1.5 0 
C 1.5 -0.397805 1.341951 -0.77937 1.06066 -1.06066 
C 0.77937 -1.341951 0.397805 -1.5 0 -1.5 
C -0.397805 -1.5 -0.77937 -1.341951 -1.06066 -1.06066 
C -1.341951 -0.77937 -1.5 -0.397805 -1.5 0 
C -1.5 0.397805 -1.341951 0.77937 -1.06066 1.06066 
C -0.77937 1.341951 -0.397805 1.5 0 1.5 
z
" id="m25bad5bcb4" style="stroke:#f5deb3;"/>
    </defs>
    <g>
     <use style="fill:#f5deb3;stroke:#f5deb3;" x="69.687988" xlink:href="#m25bad5bcb4" y="30.334099"/>
     <use style="fill:#f5deb3;stroke:#f5deb3;" x="69.687988" xlink:href="#m25bad5bcb4" y="30.334099"/>
    </g>
   </g>
   <g id="line2d_34">
    <defs>
     <path d="M 0 1.5 
C 0.397805 1.5 0.77937 1.341951 1.06066 1.06066 
C 1.341951 0.77937 1.5 0.397805 1.5 0 
C 1.5 -0.397805 1.341951 -0.77937 1.06066 -1.06066 
C 0.77937 -1.341951 0.397805 -1.5 0 -1.5 
C -0.397805 -1.5 -0.77937 -1.341951 -1.06066 -1.06066 
C -1.341951 -0.77937 -1.5 -0.397805 -1.5 0 
C -1.5 0.397805 -1.341951 0.77937 -1.06066 1.06066 
C -0.77937 1.341951 -0.397805 1.5 0 1.5 
z
" id="md27cd8df5c" style="stroke:#000080;"/>
    </defs>
    <g>
     <use style="fill:#000080;stroke:#000080;" x="117.373392" xlink:href="#md27cd8df5c" y="30.334099"/>
     <use style="fill:#000080;stroke:#000080;" x="117.373392" xlink:href="#md27cd8df5c" y="30.334099"/>
    </g>
   </g>
   <g id="line2d_35">
    <path d="M 94.505975 298.944 
L 94.505975 297.890628 
L 95.326798 297.890628 
L 95.326798 297.363942 
L 97.928955 297.363942 
L 97.928955 296.837256 
L 98.100772 296.837256 
L 98.100772 294.730511 
L 98.270913 294.730511 
L 98.270913 294.203825 
L 99.258306 294.203825 
L 99.258306 293.677139 
L 99.731799 293.677139 
L 99.731799 293.150453 
L 100.040467 293.150453 
L 100.040467 292.623767 
L 100.493461 292.623767 
L 100.493461 292.097081 
L 100.641881 292.097081 
L 100.641881 291.570395 
L 101.079711 291.570395 
L 101.079711 289.990337 
L 101.785851 289.990337 
L 101.785851 289.463651 
L 102.464508 289.463651 
L 102.464508 288.936964 
L 102.728744 288.936964 
L 102.728744 288.410278 
L 102.989037 288.410278 
L 102.989037 287.883592 
L 103.498249 287.883592 
L 103.498249 287.356906 
L 103.870632 287.356906 
L 103.870632 286.83022 
L 103.993014 286.83022 
L 103.993014 286.303534 
L 104.114542 286.303534 
L 104.114542 285.776848 
L 104.474128 285.776848 
L 104.474128 285.250162 
L 104.592361 285.250162 
L 104.592361 284.723476 
L 104.942325 284.723476 
L 104.942325 283.670104 
L 105.057436 283.670104 
L 105.057436 282.616732 
L 105.285403 282.616732 
L 105.285403 282.090045 
L 105.398279 282.090045 
L 105.398279 281.563359 
L 105.732589 281.563359 
L 105.842616 280.509987 
L 105.951954 280.509987 
L 105.951954 279.456615 
L 106.168594 279.456615 
L 106.168594 278.403243 
L 106.593963 278.403243 
L 106.593963 277.349871 
L 107.009204 277.349871 
L 107.009204 276.296499 
L 107.213174 276.296499 
L 107.213174 275.769812 
L 107.414787 275.769812 
L 107.414787 274.71644 
L 108.102622 274.71644 
L 108.102622 273.136382 
L 108.294265 273.136382 
L 108.389302 263.656033 
L 108.671345 263.656033 
L 108.764355 262.60266 
L 108.948899 262.60266 
L 109.040444 260.495916 
L 109.131511 260.495916 
L 109.222105 245.22202 
L 109.31223 245.22202 
L 109.401893 244.168648 
L 109.491096 244.168648 
L 109.491096 243.115275 
L 109.756002 243.115275 
L 109.756002 242.588589 
L 110.016944 242.588589 
L 110.016944 229.948123 
L 110.443353 229.948123 
L 110.527398 228.368065 
L 110.61104 228.368065 
L 110.694282 207.827308 
L 110.77713 207.827308 
L 110.77713 190.973354 
L 110.941652 190.973354 
L 111.023335 178.332888 
L 111.185562 178.332888 
L 111.185562 177.806202 
L 111.426108 177.806202 
L 111.505558 176.752829 
L 111.584648 176.752829 
L 111.663381 147.258409 
L 111.74176 147.258409 
L 111.819788 114.603872 
L 112.280765 114.603872 
L 112.356423 103.016778 
L 112.58145 103.016778 
L 112.58145 101.963406 
L 112.803609 101.963406 
L 112.803609 101.43672 
L 113.167699 101.43672 
L 113.239614 80.369277 
L 113.382559 80.369277 
L 113.453595 70.362241 
L 113.942906 70.362241 
L 114.0117 60.881892 
L 114.816733 60.881892 
L 114.816733 50.34817 
L 115.397021 50.34817 
L 115.397021 41.921193 
L 116.972471 41.921193 
L 116.972471 41.394507 
L 117.373392 41.394507 
L 117.373392 30.334099 
L 338.688 30.334099 
L 338.688 30.334099 
" style="fill:none;stroke:#000080;stroke-linecap:square;stroke-width:1.5;"/>
   </g>
   <g id="line2d_36">
    <defs>
     <path d="M 0 6 
C 1.591219 6 3.117479 5.367802 4.242641 4.242641 
C 5.367802 3.117479 6 1.591219 6 0 
C 6 -1.591219 5.367802 -3.117479 4.242641 -4.242641 
C 3.117479 -5.367802 1.591219 -6 0 -6 
C -1.591219 -6 -3.117479 -5.367802 -4.242641 -4.242641 
C -5.367802 -3.117479 -6 -1.591219 -6 0 
C -6 1.591219 -5.367802 3.117479 -4.242641 4.242641 
C -3.117479 5.367802 -1.591219 6 0 6 
z
" id="m8960a38f4d" style="stroke:#000080;stroke-width:1.5;"/>
    </defs>
    <g>
     <use style="fill-opacity:0;stroke:#000080;stroke-width:1.5;" x="111.74176" xlink:href="#m8960a38f4d" y="139.884804"/>
     <use style="fill-opacity:0;stroke:#000080;stroke-width:1.5;" x="117.373392" xlink:href="#m8960a38f4d" y="41.394507"/>
     <use style="fill-opacity:0;stroke:#000080;stroke-width:1.5;" x="117.373392" xlink:href="#m8960a38f4d" y="30.334099"/>
     <use style="fill-opacity:0;stroke:#000080;stroke-width:1.5;" x="117.373392" xlink:href="#m8960a38f4d" y="30.334099"/>
     <use style="fill-opacity:0;stroke:#000080;stroke-width:1.5;" x="338.688" xlink:href="#m8960a38f4d" y="30.334099"/>
    </g>
   </g>
   <g id="line2d_37">
    <path style="fill:none;stroke:#000080;stroke-linecap:square;stroke-width:1.5;"/>
    <g/>
   </g>
   <g id="line2d_38">
    <defs>
     <path d="M 0 1.5 
C 0.397805 1.5 0.77937 1.341951 1.06066 1.06066 
C 1.341951 0.77937 1.5 0.397805 1.5 0 
C 1.5 -0.397805 1.341951 -0.77937 1.06066 -1.06066 
C 0.77937 -1.341951 0.397805 -1.5 0 -1.5 
C -0.397805 -1.5 -0.77937 -1.341951 -1.06066 -1.06066 
C -1.341951 -0.77937 -1.5 -0.397805 -1.5 0 
C -1.5 0.397805 -1.341951 0.77937 -1.06066 1.06066 
C -0.77937 1.341951 -0.397805 1.5 0 1.5 
z
" id="m0009ac4e34" style="stroke:#ff00ff;"/>
    </defs>
    <g>
     <use style="fill:#ff00ff;stroke:#ff00ff;" x="202.669481" xlink:href="#m0009ac4e34" y="30.334099"/>
     <use style="fill:#ff00ff;stroke:#ff00ff;" x="202.669481" xlink:href="#m0009ac4e34" y="30.334099"/>
    </g>
   </g>
   <g id="line2d_39">
    <path d="M 77.884514 298.944 
L 77.884514 298.417314 
L 79.938565 298.417314 
L 79.938565 297.890628 
L 83.830028 297.890628 
L 83.830028 296.837256 
L 96.489848 296.837256 
L 96.489848 296.31057 
L 99.575392 296.31057 
L 99.575392 295.783884 
L 100.493461 295.783884 
L 100.493461 295.257197 
L 103.245502 295.257197 
L 103.245502 294.730511 
L 103.870632 294.730511 
L 103.870632 294.203825 
L 105.171792 294.203825 
L 105.171792 293.677139 
L 106.06061 293.677139 
L 106.06061 293.150453 
L 106.593963 293.150453 
L 106.593963 292.623767 
L 110.443353 292.623767 
L 110.443353 292.097081 
L 111.74176 292.097081 
L 111.74176 291.570395 
L 114.0117 291.570395 
L 114.0117 291.043709 
L 114.284194 291.043709 
L 114.284194 290.517023 
L 114.485807 290.517023 
L 114.485807 289.463651 
L 115.205729 289.463651 
L 115.269727 288.410278 
L 115.33349 288.410278 
L 115.33349 287.356906 
L 116.081002 287.356906 
L 116.081002 286.83022 
L 116.323218 286.83022 
L 116.323218 286.303534 
L 116.502698 286.303534 
L 116.502698 285.776848 
L 117.875678 285.776848 
L 117.875678 285.250162 
L 118.734401 285.250162 
L 118.734401 284.723476 
L 121.036887 284.723476 
L 121.036887 284.19679 
L 121.667835 284.19679 
L 121.667835 283.670104 
L 123.152022 283.670104 
L 123.152022 283.143418 
L 123.553867 283.143418 
L 123.593547 282.090045 
L 124.062793 282.090045 
L 124.062793 281.563359 
L 124.216444 281.563359 
L 124.216444 281.036673 
L 124.669438 281.036673 
L 124.669438 280.509987 
L 125.647598 280.509987 
L 125.752972 279.456615 
L 125.787955 279.456615 
L 125.787955 278.929929 
L 125.927192 278.929929 
L 125.927192 276.823185 
L 126.236468 276.823185 
L 126.236468 276.296499 
L 126.937471 276.296499 
L 126.937471 275.769812 
L 127.54831 275.769812 
L 127.54831 275.243126 
L 128.290519 275.243126 
L 128.350967 274.189754 
L 128.411207 274.189754 
L 128.411207 273.663068 
L 128.560901 273.663068 
L 128.560901 273.136382 
L 128.679738 273.136382 
L 128.679738 272.08301 
L 129.147151 272.08301 
L 129.147151 271.556324 
L 129.658437 271.556324 
L 129.658437 271.029638 
L 130.182344 271.029638 
L 130.209487 269.976266 
L 130.558552 269.976266 
L 130.664567 268.922893 
L 130.822389 268.922893 
L 130.848555 267.869521 
L 131.615802 267.869521 
L 131.615802 267.342835 
L 132.109167 267.342835 
L 132.109167 247.85545 
L 132.326708 247.85545 
L 132.326708 247.328764 
L 132.541568 247.328764 
L 132.588957 246.275392 
L 133.032848 246.275392 
L 133.078923 245.22202 
L 133.443203 245.22202 
L 133.46572 244.168648 
L 133.622529 244.168648 
L 133.622529 243.641962 
L 133.77794 243.641962 
L 133.77794 243.115275 
L 133.953874 243.115275 
L 133.953874 242.588589 
L 134.214491 242.588589 
L 134.236034 241.535217 
L 134.386096 241.535217 
L 134.386096 241.008531 
L 134.640379 241.008531 
L 134.640379 240.481845 
L 134.766144 240.481845 
L 134.766144 239.955159 
L 135.178927 239.955159 
L 135.178927 238.901787 
L 135.421987 238.901787 
L 135.482227 237.848415 
L 135.602085 237.848415 
L 135.602085 236.795043 
L 136.304433 236.795043 
L 136.304433 236.268356 
L 136.738785 236.268356 
L 136.738785 235.74167 
L 136.942755 235.74167 
L 136.942755 235.214984 
L 137.126135 235.214984 
L 137.180776 212.040797 
L 137.289545 212.040797 
L 137.289545 210.987425 
L 137.540732 210.987425 
L 137.61184 192.553412 
L 137.770782 192.553412 
L 137.770782 179.912946 
L 138.170504 179.912946 
L 138.170504 179.38626 
L 138.358484 179.38626 
L 138.358484 178.859574 
L 138.561269 178.859574 
L 138.661784 177.279515 
L 138.728473 177.279515 
L 138.811478 176.226143 
L 139.683624 176.226143 
L 139.793552 174.646085 
L 139.887228 174.646085 
L 139.980403 160.425561 
L 140.195896 160.425561 
L 140.256979 159.372189 
L 140.574203 159.372189 
L 140.574203 158.318817 
L 140.693549 158.318817 
L 140.693549 157.79213 
L 140.871049 157.79213 
L 140.871049 157.265444 
L 141.090414 157.265444 
L 141.090414 144.624978 
L 141.535208 144.624978 
L 141.634094 141.464862 
L 141.774395 141.464862 
L 141.774395 129.877768 
L 142.432559 129.877768 
L 142.432559 118.817361 
L 146.052799 118.817361 
L 146.052799 118.290674 
L 156.646219 118.290674 
L 156.646219 117.763988 
L 168.31527 117.763988 
L 168.31527 111.970441 
L 168.557613 111.970441 
L 168.557613 111.443755 
L 168.731229 111.443755 
L 168.731229 110.390383 
L 169.029495 110.390383 
L 169.134586 88.269568 
L 169.296813 88.269568 
L 169.296813 87.742882 
L 169.503198 87.742882 
L 169.503198 83.002707 
L 169.630959 83.002707 
L 169.729685 77.735846 
L 169.816664 77.735846 
L 169.864179 71.942299 
L 169.997643 71.942299 
L 169.997643 67.202125 
L 170.806779 67.202125 
L 170.806779 66.675439 
L 171.077038 66.675439 
L 171.077038 66.148752 
L 179.273889 66.148752 
L 179.273889 63.515322 
L 179.65853 63.515322 
L 179.715739 54.561659 
L 179.788568 54.561659 
L 179.788568 54.034973 
L 179.917643 54.034973 
L 179.917643 52.454914 
L 180.042657 52.454914 
L 180.117237 45.607995 
L 180.191499 45.607995 
L 180.191499 42.974565 
L 185.951593 42.974565 
L 185.951593 40.867821 
L 186.16663 40.867821 
L 186.254089 38.23439 
L 186.393118 38.23439 
L 186.479451 36.654332 
L 186.531046 36.654332 
L 186.531046 35.60096 
L 190.968562 35.60096 
L 190.968562 34.547588 
L 191.201673 34.547588 
L 191.249234 32.967529 
L 194.715627 32.967529 
L 194.724352 31.914157 
L 194.895274 31.914157 
L 194.895274 31.387471 
L 197.909275 31.387471 
L 197.909275 30.860785 
L 202.669481 30.860785 
L 202.669481 30.334099 
L 338.688 30.334099 
L 338.688 30.334099 
" style="fill:none;stroke:#ff00ff;stroke-linecap:square;stroke-width:1.5;"/>
   </g>
   <g id="line2d_40">
    <defs>
     <path d="M -0 8.485281 
L 5.091169 0 
L 0 -8.485281 
L -5.091169 -0 
z
" id="mf0cd102a8a" style="stroke:#ff00ff;stroke-linejoin:miter;stroke-width:1.5;"/>
    </defs>
    <g>
     <use style="fill-opacity:0;stroke:#ff00ff;stroke-linejoin:miter;stroke-width:1.5;" x="140.693549" xlink:href="#mf0cd102a8a" y="157.79213"/>
     <use style="fill-opacity:0;stroke:#ff00ff;stroke-linejoin:miter;stroke-width:1.5;" x="186.531046" xlink:href="#mf0cd102a8a" y="35.60096"/>
     <use style="fill-opacity:0;stroke:#ff00ff;stroke-linejoin:miter;stroke-width:1.5;" x="202.669481" xlink:href="#mf0cd102a8a" y="30.334099"/>
     <use style="fill-opacity:0;stroke:#ff00ff;stroke-linejoin:miter;stroke-width:1.5;" x="202.669481" xlink:href="#mf0cd102a8a" y="30.334099"/>
     <use style="fill-opacity:0;stroke:#ff00ff;stroke-linejoin:miter;stroke-width:1.5;" x="338.688" xlink:href="#mf0cd102a8a" y="30.334099"/>
    </g>
   </g>
   <g id="line2d_41">
    <path style="fill:none;stroke:#ff00ff;stroke-linecap:square;stroke-width:1.5;"/>
    <g/>
   </g>
   <g id="line2d_42">
    <path clip-path="url(#pc49bfc53fd)" d="M 165.978297 117.763988 
" style="fill:none;stroke:#ff00ff;stroke-linecap:square;stroke-width:1.5;"/>
    <defs>
     <path d="M -12 12 
L 12 -12 
M -12 -12 
L 12 12 
" id="m70509c93ad" style="stroke:#ff00ff;"/>
    </defs>
    <g clip-path="url(#pc49bfc53fd)">
     <use style="fill:#ff00ff;stroke:#ff00ff;" x="165.978297" xlink:href="#m70509c93ad" y="117.763988"/>
    </g>
   </g>
   <g id="line2d_43">
    <defs>
     <path d="M 0 1.5 
C 0.397805 1.5 0.77937 1.341951 1.06066 1.06066 
C 1.341951 0.77937 1.5 0.397805 1.5 0 
C 1.5 -0.397805 1.341951 -0.77937 1.06066 -1.06066 
C 0.77937 -1.341951 0.397805 -1.5 0 -1.5 
C -0.397805 -1.5 -0.77937 -1.341951 -1.06066 -1.06066 
C -1.341951 -0.77937 -1.5 -0.397805 -1.5 0 
C -1.5 0.397805 -1.341951 0.77937 -1.06066 1.06066 
C -0.77937 1.341951 -0.397805 1.5 0 1.5 
z
" id="ma17d25b03a" style="stroke:#ff7500;"/>
    </defs>
    <g>
     <use style="fill:#ff7500;stroke:#ff7500;" x="147.398994" xlink:href="#ma17d25b03a" y="30.334099"/>
     <use style="fill:#ff7500;stroke:#ff7500;" x="147.398994" xlink:href="#ma17d25b03a" y="30.334099"/>
    </g>
   </g>
   <g id="line2d_44">
    <path d="M 77.884514 298.944 
L 77.884514 298.417314 
L 79.938565 298.417314 
L 79.938565 297.890628 
L 92.969447 297.890628 
L 92.969447 297.363942 
L 96.110718 297.363942 
L 96.110718 296.837256 
L 96.301313 296.837256 
L 96.301313 296.31057 
L 110.188761 296.31057 
L 110.188761 295.783884 
L 113.167699 295.783884 
L 113.167699 295.257197 
L 114.284194 295.257197 
L 114.284194 294.730511 
L 119.45259 294.730511 
L 119.45259 294.203825 
L 120.238719 294.203825 
L 120.238719 293.677139 
L 120.524615 293.677139 
L 120.524615 293.150453 
L 121.036887 293.150453 
L 121.036887 292.623767 
L 122.699028 292.623767 
L 122.699028 292.097081 
L 123.712047 292.097081 
L 123.751369 291.043709 
L 123.94666 291.043709 
L 123.94666 290.517023 
L 125.038147 290.517023 
L 125.038147 289.990337 
L 126.607172 289.990337 
L 126.607172 289.463651 
L 126.87191 289.463651 
L 126.87191 288.936964 
L 128.768338 288.936964 
L 128.768338 288.410278 
L 129.06046 288.410278 
L 129.089405 287.356906 
L 129.433047 287.356906 
L 129.51791 285.776848 
L 129.88095 285.776848 
L 129.88095 285.250162 
L 130.344571 285.250162 
L 130.344571 284.723476 
L 130.585116 284.723476 
L 130.585116 284.19679 
L 131.439773 284.19679 
L 131.439773 283.670104 
L 131.590764 283.670104 
L 131.590764 283.143418 
L 131.962617 283.143418 
L 131.962617 282.616732 
L 132.870621 282.616732 
L 132.870621 282.090045 
L 133.147807 282.090045 
L 133.170708 279.983301 
L 133.307488 279.983301 
L 133.352844 278.403243 
L 133.510666 278.403243 
L 133.510666 277.876557 
L 134.12805 277.876557 
L 134.12805 277.349871 
L 134.47127 277.349871 
L 134.47127 276.823185 
L 134.891008 276.823185 
L 134.891008 274.189754 
L 135.035562 274.189754 
L 135.035562 273.136382 
L 135.46217 273.136382 
L 135.46217 272.609696 
L 135.621981 272.609696 
L 135.621981 272.08301 
L 136.189322 272.08301 
L 136.189322 271.556324 
L 136.342635 271.556324 
L 136.342635 271.029638 
L 136.475687 271.029638 
L 136.570107 255.229055 
L 136.607732 255.229055 
L 136.607732 254.702369 
L 137.089613 254.702369 
L 137.089613 254.175683 
L 137.307607 254.175683 
L 137.37967 253.122311 
L 137.928288 253.122311 
L 138.032507 250.488881 
L 138.084384 250.488881 
L 138.084384 249.962195 
L 138.510793 249.962195 
L 138.611599 248.908822 
L 138.711825 248.908822 
L 138.711825 248.382136 
L 139.269142 248.382136 
L 139.349619 246.275392 
L 139.397728 246.275392 
L 139.397728 245.748706 
L 139.541262 245.748706 
L 139.557137 244.695334 
L 139.69937 244.695334 
L 139.8092 243.641962 
L 139.840453 243.641962 
L 139.840453 243.115275 
L 140.026805 243.115275 
L 140.026805 241.008531 
L 140.180592 241.008531 
L 140.226464 239.955159 
L 140.423864 239.955159 
L 140.514223 229.421437 
L 140.544239 229.421437 
L 140.64889 226.261321 
L 141.235139 226.261321 
L 141.307054 225.207949 
L 141.478449 225.207949 
L 141.506851 211.514111 
L 141.676303 211.514111 
L 141.704386 183.599748 
L 141.80232 183.599748 
L 141.80232 182.546376 
L 141.913576 182.546376 
L 141.913576 182.01969 
L 142.405626 182.01969 
L 142.432559 180.966318 
L 142.765762 180.966318 
L 142.805321 174.646085 
L 142.884173 174.646085 
L 142.884173 161.478933 
L 143.260342 161.478933 
L 143.298796 160.425561 
L 143.388196 160.425561 
L 143.388196 159.898875 
L 143.628567 159.898875 
L 143.666219 145.678351 
L 143.791143 145.678351 
L 143.890442 111.970441 
L 143.93988 111.970441 
L 144.026061 110.390383 
L 144.582038 110.390383 
L 144.641416 89.849626 
L 144.759569 89.849626 
L 144.759569 89.32294 
L 144.900303 89.32294 
L 144.923649 88.269568 
L 145.224334 88.269568 
L 145.224334 76.155788 
L 145.406826 76.155788 
L 145.406826 59.301833 
L 145.587429 59.301833 
L 145.587429 58.775147 
L 145.76618 58.775147 
L 145.76618 57.721775 
L 146.302479 57.721775 
L 146.324022 55.615031 
L 146.633446 55.615031 
L 146.707319 54.034973 
L 147.061745 54.034973 
L 147.154371 40.341135 
L 147.398994 40.341135 
L 147.398994 30.334099 
L 338.688 30.334099 
L 338.688 30.334099 
" style="fill:none;stroke:#ff7500;stroke-linecap:square;stroke-width:1.5;"/>
   </g>
   <g id="line2d_45">
    <defs>
     <path d="M 0 -6 
L -1.347084 -1.854102 
L -5.706339 -1.854102 
L -2.179628 0.708204 
L -3.526712 4.854102 
L -0 2.291796 
L 3.526712 4.854102 
L 2.179628 0.708204 
L 5.706339 -1.854102 
L 1.347084 -1.854102 
z
" id="m2e2c19a595" style="stroke:#ff7500;stroke-linejoin:bevel;stroke-width:1.5;"/>
    </defs>
    <g>
     <use style="fill-opacity:0;stroke:#ff7500;stroke-linejoin:bevel;stroke-width:1.5;" x="141.676303" xlink:href="#m2e2c19a595" y="210.460738"/>
     <use style="fill-opacity:0;stroke:#ff7500;stroke-linejoin:bevel;stroke-width:1.5;" x="147.398994" xlink:href="#m2e2c19a595" y="40.341135"/>
     <use style="fill-opacity:0;stroke:#ff7500;stroke-linejoin:bevel;stroke-width:1.5;" x="147.398994" xlink:href="#m2e2c19a595" y="30.334099"/>
     <use style="fill-opacity:0;stroke:#ff7500;stroke-linejoin:bevel;stroke-width:1.5;" x="147.398994" xlink:href="#m2e2c19a595" y="30.334099"/>
     <use style="fill-opacity:0;stroke:#ff7500;stroke-linejoin:bevel;stroke-width:1.5;" x="338.688" xlink:href="#m2e2c19a595" y="30.334099"/>
    </g>
   </g>
   <g id="line2d_46">
    <path style="fill:none;stroke:#ff7500;stroke-linecap:square;stroke-width:1.5;"/>
    <g/>
   </g>
   <g id="line2d_47">
    <defs>
     <path d="M 0 1.5 
C 0.397805 1.5 0.77937 1.341951 1.06066 1.06066 
C 1.341951 0.77937 1.5 0.397805 1.5 0 
C 1.5 -0.397805 1.341951 -0.77937 1.06066 -1.06066 
C 0.77937 -1.341951 0.397805 -1.5 0 -1.5 
C -0.397805 -1.5 -0.77937 -1.341951 -1.06066 -1.06066 
C -1.341951 -0.77937 -1.5 -0.397805 -1.5 0 
C -1.5 0.397805 -1.341951 0.77937 -1.06066 1.06066 
C -0.77937 1.341951 -0.397805 1.5 0 1.5 
z
" id="m88c02e564c" style="stroke:#6495ed;"/>
    </defs>
    <g>
     <use style="fill:#6495ed;stroke:#6495ed;" x="186.350875" xlink:href="#m88c02e564c" y="30.334099"/>
     <use style="fill:#6495ed;stroke:#6495ed;" x="186.350875" xlink:href="#m88c02e564c" y="30.334099"/>
    </g>
   </g>
   <g id="line2d_48">
    <path d="M 87.643811 298.944 
L 87.643811 298.417314 
L 92.969447 298.417314 
L 92.969447 297.890628 
L 97.043522 297.890628 
L 97.043522 297.363942 
L 102.196206 297.363942 
L 102.196206 296.837256 
L 104.23523 296.837256 
L 104.23523 296.31057 
L 105.842616 296.31057 
L 105.842616 295.783884 
L 106.48859 295.783884 
L 106.48859 295.257197 
L 107.614095 295.257197 
L 107.614095 294.730511 
L 110.103064 294.730511 
L 110.103064 294.203825 
L 111.584648 294.203825 
L 111.584648 293.677139 
L 112.431755 293.677139 
L 112.431755 293.150453 
L 113.239614 293.150453 
L 113.239614 292.623767 
L 113.594805 292.623767 
L 113.594805 292.097081 
L 114.685115 292.097081 
L 114.685115 291.570395 
L 115.523393 291.570395 
L 115.586238 290.517023 
L 115.897107 290.517023 
L 115.897107 289.990337 
L 116.019919 289.990337 
L 116.019919 289.463651 
L 116.202531 289.463651 
L 116.202531 288.410278 
L 118.470564 288.410278 
L 118.470564 287.356906 
L 118.838828 287.356906 
L 118.890808 286.303534 
L 120.238719 286.303534 
L 120.33454 285.250162 
L 120.429836 285.250162 
L 120.47729 284.19679 
L 120.944859 284.19679 
L 120.990934 282.616732 
L 122.018385 282.616732 
L 122.061712 281.563359 
L 122.148045 281.563359 
L 122.233953 279.983301 
L 123.633136 279.983301 
L 123.712047 277.876557 
L 123.751369 277.876557 
L 123.751369 277.349871 
L 124.330801 277.349871 
L 124.330801 276.823185 
L 125.147256 276.823185 
L 125.255688 273.136382 
L 126.540355 273.136382 
L 126.607172 269.976266 
L 127.830353 269.976266 
L 127.892415 266.289463 
L 128.738855 266.289463 
L 128.827155 265.236091 
L 129.031467 265.236091 
L 129.06046 250.488881 
L 129.175952 250.488881 
L 129.175952 249.962195 
L 130.155159 249.962195 
L 130.236587 246.802078 
L 131.210808 246.802078 
L 131.26195 241.535217 
L 131.338382 241.535217 
L 131.338382 241.008531 
L 131.515432 241.008531 
L 131.515432 237.848415 
L 132.206187 237.848415 
L 132.30267 198.346959 
L 132.636218 198.346959 
L 132.683351 197.293586 
L 133.147807 197.293586 
L 133.147807 174.119399 
L 134.04118 174.119399 
L 134.04118 171.485969 
L 134.891008 171.485969 
L 134.994383 151.998584 
L 135.056115 151.998584 
L 135.056115 140.41149 
L 135.701341 140.41149 
L 135.800036 137.251373 
L 135.97629 137.251373 
L 135.97629 136.198001 
L 136.475687 136.198001 
L 136.5324 120.924105 
L 137.217107 120.924105 
L 137.217107 94.589801 
L 137.753193 94.589801 
L 137.753193 94.063115 
L 138.341479 94.063115 
L 138.341479 93.536429 
L 138.611599 93.536429 
L 138.611599 93.009743 
L 139.269142 93.009743 
L 139.269142 78.262532 
L 167.580089 78.262532 
L 167.580089 77.20916 
L 167.839062 77.20916 
L 167.839062 76.682474 
L 167.957782 76.682474 
L 167.973343 72.995672 
L 168.081883 72.995672 
L 168.084975 71.415613 
L 168.226583 71.415613 
L 168.327468 58.775147 
L 168.388327 58.775147 
L 168.448975 54.561659 
L 168.689479 54.561659 
L 168.713348 50.34817 
L 168.808499 50.34817 
L 168.849965 49.294798 
L 168.926712 49.294798 
L 168.926712 45.607995 
L 169.044129 45.607995 
L 169.044129 40.341135 
L 169.391709 40.341135 
L 169.391709 37.707704 
L 179.084099 37.707704 
L 179.084099 36.654332 
L 179.280397 36.654332 
L 179.345342 35.074274 
L 179.47451 35.074274 
L 179.47451 34.547588 
L 179.602729 34.547588 
L 179.666487 33.494215 
L 179.856373 33.494215 
L 179.856373 32.967529 
L 185.786597 32.967529 
L 185.786597 32.440843 
L 186.088641 32.440843 
L 186.176491 31.387471 
L 186.220251 31.387471 
L 186.220251 30.860785 
L 186.350875 30.860785 
L 186.350875 30.334099 
L 338.688 30.334099 
L 338.688 30.334099 
" style="fill:none;stroke:#6495ed;stroke-linecap:square;stroke-width:1.5;"/>
   </g>
   <g id="line2d_49">
    <defs>
     <path d="M -0 6 
L 6 -6 
L -6 -6 
z
" id="mb932f5ed55" style="stroke:#6495ed;stroke-linejoin:miter;stroke-width:1.5;"/>
    </defs>
    <g>
     <use style="fill-opacity:0;stroke:#6495ed;stroke-linejoin:miter;stroke-width:1.5;" x="135.701341" xlink:href="#mb932f5ed55" y="137.778059"/>
     <use style="fill-opacity:0;stroke:#6495ed;stroke-linejoin:miter;stroke-width:1.5;" x="185.786597" xlink:href="#mb932f5ed55" y="32.967529"/>
     <use style="fill-opacity:0;stroke:#6495ed;stroke-linejoin:miter;stroke-width:1.5;" x="186.350875" xlink:href="#mb932f5ed55" y="30.334099"/>
     <use style="fill-opacity:0;stroke:#6495ed;stroke-linejoin:miter;stroke-width:1.5;" x="186.350875" xlink:href="#mb932f5ed55" y="30.334099"/>
     <use style="fill-opacity:0;stroke:#6495ed;stroke-linejoin:miter;stroke-width:1.5;" x="338.688" xlink:href="#mb932f5ed55" y="30.334099"/>
    </g>
   </g>
   <g id="line2d_50">
    <path style="fill:none;stroke:#6495ed;stroke-linecap:square;stroke-width:1.5;"/>
    <g/>
   </g>
   <g id="line2d_51">
    <path clip-path="url(#pc49bfc53fd)" d="M 165.978297 78.262532 
" style="fill:none;stroke:#6495ed;stroke-linecap:square;stroke-width:1.5;"/>
    <defs>
     <path d="M -12 12 
L 12 -12 
M -12 -12 
L 12 12 
" id="m397eccd450" style="stroke:#6495ed;"/>
    </defs>
    <g clip-path="url(#pc49bfc53fd)">
     <use style="fill:#6495ed;stroke:#6495ed;" x="165.978297" xlink:href="#m397eccd450" y="78.262532"/>
    </g>
   </g>
   <g id="line2d_52">
    <path d="M 338.688 30.334099 
L 369.60768 293.571802 
" style="fill:none;stroke:#ff00ff;stroke-linecap:square;stroke-width:1.5;"/>
    <g>
     <use style="fill-opacity:0;stroke:#ff00ff;stroke-linejoin:miter;stroke-width:1.5;" x="338.688" xlink:href="#mf0cd102a8a" y="30.334099"/>
     <use style="fill-opacity:0;stroke:#ff00ff;stroke-linejoin:miter;stroke-width:1.5;" x="369.60768" xlink:href="#mf0cd102a8a" y="293.571802"/>
    </g>
   </g>
   <g id="line2d_53">
    <path d="M 338.688 30.334099 
L 369.60768 229.105426 
" style="fill:none;stroke:#6495ed;stroke-linecap:square;stroke-width:1.5;"/>
    <g>
     <use style="fill-opacity:0;stroke:#6495ed;stroke-linejoin:miter;stroke-width:1.5;" x="338.688" xlink:href="#mb932f5ed55" y="30.334099"/>
     <use style="fill-opacity:0;stroke:#6495ed;stroke-linejoin:miter;stroke-width:1.5;" x="369.60768" xlink:href="#mb932f5ed55" y="229.105426"/>
    </g>
   </g>
   <g id="line2d_54">
    <path d="M 338.688 30.334099 
L 369.60768 164.63905 
" style="fill:none;stroke:#ff7500;stroke-linecap:square;stroke-width:1.5;"/>
    <g>
     <use style="fill-opacity:0;stroke:#ff7500;stroke-linejoin:bevel;stroke-width:1.5;" x="338.688" xlink:href="#m2e2c19a595" y="30.334099"/>
     <use style="fill-opacity:0;stroke:#ff7500;stroke-linejoin:bevel;stroke-width:1.5;" x="369.60768" xlink:href="#m2e2c19a595" y="164.63905"/>
    </g>
   </g>
   <g id="line2d_55">
    <path d="M 338.688 30.334099 
L 369.60768 100.172673 
" style="fill:none;stroke:#000080;stroke-linecap:square;stroke-width:1.5;"/>
    <g>
     <use style="fill-opacity:0;stroke:#000080;stroke-width:1.5;" x="338.688" xlink:href="#m8960a38f4d" y="30.334099"/>
     <use style="fill-opacity:0;stroke:#000080;stroke-width:1.5;" x="369.60768" xlink:href="#m8960a38f4d" y="100.172673"/>
    </g>
   </g>
   <g id="line2d_56">
    <path d="M 338.688 298.944 
L 338.688 30.334099 
" style="fill:none;stroke:#000000;stroke-linecap:square;stroke-width:1.5;"/>
   </g>
   <g id="patch_3">
    <path d="M 57.6 298.944 
L 57.6 27.648 
" style="fill:none;stroke:#000000;stroke-linecap:square;stroke-linejoin:miter;stroke-width:0.8;"/>
   </g>
   <g id="patch_4">
    <path d="M 338.688 298.944 
L 338.688 27.648 
" style="fill:none;stroke:#000000;stroke-linecap:square;stroke-linejoin:miter;stroke-width:0.8;"/>
   </g>
   <g id="patch_5">
    <path d="M 57.6 298.944 
L 338.688 298.944 
" style="fill:none;stroke:#000000;stroke-linecap:square;stroke-linejoin:miter;stroke-width:0.8;"/>
   </g>
   <g id="patch_6">
    <path d="M 57.6 27.648 
L 338.688 27.648 
" style="fill:none;stroke:#000000;stroke-linecap:square;stroke-linejoin:miter;stroke-width:0.8;"/>
   </g>
   <g id="text_13">
    <!-- DE -->
    <defs>
     <path d="M 19.671875 64.796875 
L 19.671875 8.109375 
L 31.59375 8.109375 
Q 46.6875 8.109375 53.6875 14.9375 
Q 60.6875 21.78125 60.6875 36.53125 
Q 60.6875 51.171875 53.6875 57.984375 
Q 46.6875 64.796875 31.59375 64.796875 
z
M 9.8125 72.90625 
L 30.078125 72.90625 
Q 51.265625 72.90625 61.171875 64.09375 
Q 71.09375 55.28125 71.09375 36.53125 
Q 71.09375 17.671875 61.125 8.828125 
Q 51.171875 0 30.078125 0 
L 9.8125 0 
z
" id="DejaVuSans-68"/>
     <path d="M 9.8125 72.90625 
L 55.90625 72.90625 
L 55.90625 64.59375 
L 19.671875 64.59375 
L 19.671875 43.015625 
L 54.390625 43.015625 
L 54.390625 34.71875 
L 19.671875 34.71875 
L 19.671875 8.296875 
L 56.78125 8.296875 
L 56.78125 0 
L 9.8125 0 
z
" id="DejaVuSans-69"/>
    </defs>
    <g transform="translate(375.22944 298.262739)scale(0.17 -0.17)">
     <use xlink:href="#DejaVuSans-68"/>
     <use x="77.001953" xlink:href="#DejaVuSans-69"/>
    </g>
   </g>
   <g id="text_14">
    <!-- PSO -->
    <defs>
     <path d="M 19.671875 64.796875 
L 19.671875 37.40625 
L 32.078125 37.40625 
Q 38.96875 37.40625 42.71875 40.96875 
Q 46.484375 44.53125 46.484375 51.125 
Q 46.484375 57.671875 42.71875 61.234375 
Q 38.96875 64.796875 32.078125 64.796875 
z
M 9.8125 72.90625 
L 32.078125 72.90625 
Q 44.34375 72.90625 50.609375 67.359375 
Q 56.890625 61.8125 56.890625 51.125 
Q 56.890625 40.328125 50.609375 34.8125 
Q 44.34375 29.296875 32.078125 29.296875 
L 19.671875 29.296875 
L 19.671875 0 
L 9.8125 0 
z
" id="DejaVuSans-80"/>
     <path d="M 53.515625 70.515625 
L 53.515625 60.890625 
Q 47.90625 63.578125 42.921875 64.890625 
Q 37.9375 66.21875 33.296875 66.21875 
Q 25.25 66.21875 20.875 63.09375 
Q 16.5 59.96875 16.5 54.203125 
Q 16.5 49.359375 19.40625 46.890625 
Q 22.3125 44.4375 30.421875 42.921875 
L 36.375 41.703125 
Q 47.40625 39.59375 52.65625 34.296875 
Q 57.90625 29 57.90625 20.125 
Q 57.90625 9.515625 50.796875 4.046875 
Q 43.703125 -1.421875 29.984375 -1.421875 
Q 24.8125 -1.421875 18.96875 -0.25 
Q 13.140625 0.921875 6.890625 3.21875 
L 6.890625 13.375 
Q 12.890625 10.015625 18.65625 8.296875 
Q 24.421875 6.59375 29.984375 6.59375 
Q 38.421875 6.59375 43.015625 9.90625 
Q 47.609375 13.234375 47.609375 19.390625 
Q 47.609375 24.75 44.3125 27.78125 
Q 41.015625 30.8125 33.5 32.328125 
L 27.484375 33.5 
Q 16.453125 35.6875 11.515625 40.375 
Q 6.59375 45.0625 6.59375 53.421875 
Q 6.59375 63.09375 13.40625 68.65625 
Q 20.21875 74.21875 32.171875 74.21875 
Q 37.3125 74.21875 42.625 73.28125 
Q 47.953125 72.359375 53.515625 70.515625 
z
" id="DejaVuSans-83"/>
     <path d="M 39.40625 66.21875 
Q 28.65625 66.21875 22.328125 58.203125 
Q 16.015625 50.203125 16.015625 36.375 
Q 16.015625 22.609375 22.328125 14.59375 
Q 28.65625 6.59375 39.40625 6.59375 
Q 50.140625 6.59375 56.421875 14.59375 
Q 62.703125 22.609375 62.703125 36.375 
Q 62.703125 50.203125 56.421875 58.203125 
Q 50.140625 66.21875 39.40625 66.21875 
z
M 39.40625 74.21875 
Q 54.734375 74.21875 63.90625 63.9375 
Q 73.09375 53.65625 73.09375 36.375 
Q 73.09375 19.140625 63.90625 8.859375 
Q 54.734375 -1.421875 39.40625 -1.421875 
Q 24.03125 -1.421875 14.8125 8.828125 
Q 5.609375 19.09375 5.609375 36.375 
Q 5.609375 53.65625 14.8125 63.9375 
Q 24.03125 74.21875 39.40625 74.21875 
z
" id="DejaVuSans-79"/>
    </defs>
    <g transform="translate(375.22944 233.796363)scale(0.17 -0.17)">
     <use xlink:href="#DejaVuSans-80"/>
     <use x="60.302734" xlink:href="#DejaVuSans-83"/>
     <use x="123.779297" xlink:href="#DejaVuSans-79"/>
    </g>
   </g>
   <g id="text_15">
    <!-- DEPSO -->
    <g transform="translate(375.22944 169.329987)scale(0.17 -0.17)">
     <use xlink:href="#DejaVuSans-68"/>
     <use x="77.001953" xlink:href="#DejaVuSans-69"/>
     <use x="140.185547" xlink:href="#DejaVuSans-80"/>
     <use x="200.488281" xlink:href="#DejaVuSans-83"/>
     <use x="263.964844" xlink:href="#DejaVuSans-79"/>
    </g>
   </g>
   <g id="text_16">
    <!-- CMA-ES -->
    <defs>
     <path d="M 64.40625 67.28125 
L 64.40625 56.890625 
Q 59.421875 61.53125 53.78125 63.8125 
Q 48.140625 66.109375 41.796875 66.109375 
Q 29.296875 66.109375 22.65625 58.46875 
Q 16.015625 50.828125 16.015625 36.375 
Q 16.015625 21.96875 22.65625 14.328125 
Q 29.296875 6.6875 41.796875 6.6875 
Q 48.140625 6.6875 53.78125 8.984375 
Q 59.421875 11.28125 64.40625 15.921875 
L 64.40625 5.609375 
Q 59.234375 2.09375 53.4375 0.328125 
Q 47.65625 -1.421875 41.21875 -1.421875 
Q 24.65625 -1.421875 15.125 8.703125 
Q 5.609375 18.84375 5.609375 36.375 
Q 5.609375 53.953125 15.125 64.078125 
Q 24.65625 74.21875 41.21875 74.21875 
Q 47.75 74.21875 53.53125 72.484375 
Q 59.328125 70.75 64.40625 67.28125 
z
" id="DejaVuSans-67"/>
     <path d="M 9.8125 72.90625 
L 24.515625 72.90625 
L 43.109375 23.296875 
L 61.8125 72.90625 
L 76.515625 72.90625 
L 76.515625 0 
L 66.890625 0 
L 66.890625 64.015625 
L 48.09375 14.015625 
L 38.1875 14.015625 
L 19.390625 64.015625 
L 19.390625 0 
L 9.8125 0 
z
" id="DejaVuSans-77"/>
     <path d="M 34.1875 63.1875 
L 20.796875 26.90625 
L 47.609375 26.90625 
z
M 28.609375 72.90625 
L 39.796875 72.90625 
L 67.578125 0 
L 57.328125 0 
L 50.6875 18.703125 
L 17.828125 18.703125 
L 11.1875 0 
L 0.78125 0 
z
" id="DejaVuSans-65"/>
    </defs>
    <g transform="translate(375.22944 104.863611)scale(0.17 -0.17)">
     <use xlink:href="#DejaVuSans-67"/>
     <use x="69.824219" xlink:href="#DejaVuSans-77"/>
     <use x="156.103516" xlink:href="#DejaVuSans-65"/>
     <use x="222.261719" xlink:href="#DejaVuSans-45"/>
     <use x="258.345703" xlink:href="#DejaVuSans-69"/>
     <use x="321.529297" xlink:href="#DejaVuSans-83"/>
    </g>
   </g>
   <g id="text_17">
    <!-- best 2009 -->
    <defs>
     <path d="M 48.6875 27.296875 
Q 48.6875 37.203125 44.609375 42.84375 
Q 40.53125 48.484375 33.40625 48.484375 
Q 26.265625 48.484375 22.1875 42.84375 
Q 18.109375 37.203125 18.109375 27.296875 
Q 18.109375 17.390625 22.1875 11.75 
Q 26.265625 6.109375 33.40625 6.109375 
Q 40.53125 6.109375 44.609375 11.75 
Q 48.6875 17.390625 48.6875 27.296875 
z
M 18.109375 46.390625 
Q 20.953125 51.265625 25.265625 53.625 
Q 29.59375 56 35.59375 56 
Q 45.5625 56 51.78125 48.09375 
Q 58.015625 40.1875 58.015625 27.296875 
Q 58.015625 14.40625 51.78125 6.484375 
Q 45.5625 -1.421875 35.59375 -1.421875 
Q 29.59375 -1.421875 25.265625 0.953125 
Q 20.953125 3.328125 18.109375 8.203125 
L 18.109375 0 
L 9.078125 0 
L 9.078125 75.984375 
L 18.109375 75.984375 
z
" id="DejaVuSans-98"/>
     <path d="M 10.984375 1.515625 
L 10.984375 10.5 
Q 14.703125 8.734375 18.5 7.8125 
Q 22.3125 6.890625 25.984375 6.890625 
Q 35.75 6.890625 40.890625 13.453125 
Q 46.046875 20.015625 46.78125 33.40625 
Q 43.953125 29.203125 39.59375 26.953125 
Q 35.25 24.703125 29.984375 24.703125 
Q 19.046875 24.703125 12.671875 31.3125 
Q 6.296875 37.9375 6.296875 49.421875 
Q 6.296875 60.640625 12.9375 67.421875 
Q 19.578125 74.21875 30.609375 74.21875 
Q 43.265625 74.21875 49.921875 64.515625 
Q 56.59375 54.828125 56.59375 36.375 
Q 56.59375 19.140625 48.40625 8.859375 
Q 40.234375 -1.421875 26.421875 -1.421875 
Q 22.703125 -1.421875 18.890625 -0.6875 
Q 15.09375 0.046875 10.984375 1.515625 
z
M 30.609375 32.421875 
Q 37.25 32.421875 41.125 36.953125 
Q 45.015625 41.5 45.015625 49.421875 
Q 45.015625 57.28125 41.125 61.84375 
Q 37.25 66.40625 30.609375 66.40625 
Q 23.96875 66.40625 20.09375 61.84375 
Q 16.21875 57.28125 16.21875 49.421875 
Q 16.21875 41.5 20.09375 36.953125 
Q 23.96875 32.421875 30.609375 32.421875 
z
" id="DejaVuSans-57"/>
    </defs>
    <g transform="translate(375.22944 40.397235)scale(0.17 -0.17)">
     <use xlink:href="#DejaVuSans-98"/>
     <use x="63.476562" xlink:href="#DejaVuSans-101"/>
     <use x="125" xlink:href="#DejaVuSans-115"/>
     <use x="177.099609" xlink:href="#DejaVuSans-116"/>
     <use x="216.308594" xlink:href="#DejaVuSans-32"/>
     <use x="248.095703" xlink:href="#DejaVuSans-50"/>
     <use x="311.71875" xlink:href="#DejaVuSans-48"/>
     <use x="375.341797" xlink:href="#DejaVuSans-48"/>
     <use x="438.964844" xlink:href="#DejaVuSans-57"/>
    </g>
   </g>
   <g id="text_18">
    <!-- bbob f5, 10-D -->
    <defs>
     <path d="M 10.796875 72.90625 
L 49.515625 72.90625 
L 49.515625 64.59375 
L 19.828125 64.59375 
L 19.828125 46.734375 
Q 21.96875 47.46875 24.109375 47.828125 
Q 26.265625 48.1875 28.421875 48.1875 
Q 40.625 48.1875 47.75 41.5 
Q 54.890625 34.8125 54.890625 23.390625 
Q 54.890625 11.625 47.5625 5.09375 
Q 40.234375 -1.421875 26.90625 -1.421875 
Q 22.3125 -1.421875 17.546875 -0.640625 
Q 12.796875 0.140625 7.71875 1.703125 
L 7.71875 11.625 
Q 12.109375 9.234375 16.796875 8.0625 
Q 21.484375 6.890625 26.703125 6.890625 
Q 35.15625 6.890625 40.078125 11.328125 
Q 45.015625 15.765625 45.015625 23.390625 
Q 45.015625 31 40.078125 35.4375 
Q 35.15625 39.890625 26.703125 39.890625 
Q 22.75 39.890625 18.8125 39.015625 
Q 14.890625 38.140625 10.796875 36.28125 
z
" id="DejaVuSans-53"/>
    </defs>
    <g transform="translate(60.41088 38.111366)scale(0.102 -0.102)">
     <use xlink:href="#DejaVuSans-98"/>
     <use x="63.476562" xlink:href="#DejaVuSans-98"/>
     <use x="126.953125" xlink:href="#DejaVuSans-111"/>
     <use x="188.134766" xlink:href="#DejaVuSans-98"/>
     <use x="251.611328" xlink:href="#DejaVuSans-32"/>
     <use x="283.398438" xlink:href="#DejaVuSans-102"/>
     <use x="318.603516" xlink:href="#DejaVuSans-53"/>
     <use x="382.226562" xlink:href="#DejaVuSans-44"/>
     <use x="414.013672" xlink:href="#DejaVuSans-32"/>
     <use x="445.800781" xlink:href="#DejaVuSans-49"/>
     <use x="509.423828" xlink:href="#DejaVuSans-48"/>
     <use x="573.046875" xlink:href="#DejaVuSans-45"/>
     <use x="609.130859" xlink:href="#DejaVuSans-68"/>
    </g>
    <!-- 51 targets: 100..1e-08 -->
    <defs>
     <path d="M 11.71875 12.40625 
L 22.015625 12.40625 
L 22.015625 0 
L 11.71875 0 
z
M 11.71875 51.703125 
L 22.015625 51.703125 
L 22.015625 39.3125 
L 11.71875 39.3125 
z
" id="DejaVuSans-58"/>
    </defs>
    <g transform="translate(60.41088 49.533135)scale(0.102 -0.102)">
     <use xlink:href="#DejaVuSans-53"/>
     <use x="63.623047" xlink:href="#DejaVuSans-49"/>
     <use x="127.246094" xlink:href="#DejaVuSans-32"/>
     <use x="159.033203" xlink:href="#DejaVuSans-116"/>
     <use x="198.242188" xlink:href="#DejaVuSans-97"/>
     <use x="259.521484" xlink:href="#DejaVuSans-114"/>
     <use x="298.884766" xlink:href="#DejaVuSans-103"/>
     <use x="362.361328" xlink:href="#DejaVuSans-101"/>
     <use x="423.884766" xlink:href="#DejaVuSans-116"/>
     <use x="463.09375" xlink:href="#DejaVuSans-115"/>
     <use x="515.193359" xlink:href="#DejaVuSans-58"/>
     <use x="548.884766" xlink:href="#DejaVuSans-32"/>
     <use x="580.671875" xlink:href="#DejaVuSans-49"/>
     <use x="644.294922" xlink:href="#DejaVuSans-48"/>
     <use x="707.917969" xlink:href="#DejaVuSans-48"/>
     <use x="771.541016" xlink:href="#DejaVuSans-46"/>
     <use x="803.328125" xlink:href="#DejaVuSans-46"/>
     <use x="835.115234" xlink:href="#DejaVuSans-49"/>
     <use x="898.738281" xlink:href="#DejaVuSans-101"/>
     <use x="960.261719" xlink:href="#DejaVuSans-45"/>
     <use x="996.345703" xlink:href="#DejaVuSans-48"/>
     <use x="1059.96875" xlink:href="#DejaVuSans-56"/>
    </g>
    <!-- 24, 15 instances -->
    <g transform="translate(60.41088 60.954904)scale(0.102 -0.102)">
     <use xlink:href="#DejaVuSans-50"/>
     <use x="63.623047" xlink:href="#DejaVuSans-52"/>
     <use x="127.246094" xlink:href="#DejaVuSans-44"/>
     <use x="159.033203" xlink:href="#DejaVuSans-32"/>
     <use x="190.820312" xlink:href="#DejaVuSans-49"/>
     <use x="254.443359" xlink:href="#DejaVuSans-53"/>
     <use x="318.066406" xlink:href="#DejaVuSans-32"/>
     <use x="349.853516" xlink:href="#DejaVuSans-105"/>
     <use x="377.636719" xlink:href="#DejaVuSans-110"/>
     <use x="441.015625" xlink:href="#DejaVuSans-115"/>
     <use x="493.115234" xlink:href="#DejaVuSans-116"/>
     <use x="532.324219" xlink:href="#DejaVuSans-97"/>
     <use x="593.603516" xlink:href="#DejaVuSans-110"/>
     <use x="656.982422" xlink:href="#DejaVuSans-99"/>
     <use x="711.962891" xlink:href="#DejaVuSans-101"/>
     <use x="773.486328" xlink:href="#DejaVuSans-115"/>
    </g>
   </g>
   <g id="text_19">
    <!-- v2.4 -->
    <g style="fill:#808080;" transform="translate(187.233062 294.151352)scale(0.1 -0.1)">
     <use xlink:href="#DejaVuSans-118"/>
     <use x="59.179688" xlink:href="#DejaVuSans-50"/>
     <use x="122.802734" xlink:href="#DejaVuSans-46"/>
     <use x="154.589844" xlink:href="#DejaVuSans-52"/>
    </g>
   </g>
   <g id="text_20">
    <!-- 5 Linear slope -->
    <defs>
     <path d="M 9.8125 72.90625 
L 19.671875 72.90625 
L 19.671875 8.296875 
L 55.171875 8.296875 
L 55.171875 0 
L 9.8125 0 
z
" id="DejaVuSans-76"/>
    </defs>
    <g transform="translate(127.73775 21.648)scale(0.2 -0.2)">
     <use xlink:href="#DejaVuSans-53"/>
     <use x="63.623047" xlink:href="#DejaVuSans-32"/>
     <use x="95.410156" xlink:href="#DejaVuSans-76"/>
     <use x="151.123047" xlink:href="#DejaVuSans-105"/>
     <use x="178.90625" xlink:href="#DejaVuSans-110"/>
     <use x="242.285156" xlink:href="#DejaVuSans-101"/>
     <use x="303.808594" xlink:href="#DejaVuSans-97"/>
     <use x="365.087891" xlink:href="#DejaVuSans-114"/>
     <use x="406.201172" xlink:href="#DejaVuSans-32"/>
     <use x="437.988281" xlink:href="#DejaVuSans-115"/>
     <use x="490.087891" xlink:href="#DejaVuSans-108"/>
     <use x="517.871094" xlink:href="#DejaVuSans-111"/>
     <use x="579.052734" xlink:href="#DejaVuSans-112"/>
     <use x="642.529297" xlink:href="#DejaVuSans-101"/>
    </g>
   </g>
  </g>
 </g>
 <defs>
  <clipPath id="pc49bfc53fd">
   <rect height="271.296" width="281.088" x="57.6" y="27.648"/>
  </clipPath>
 </defs>
</svg>
