<?xml version="1.0" encoding="utf-8" standalone="no"?>
<!DOCTYPE svg PUBLIC "-//W3C//DTD SVG 1.1//EN"
  "http://www.w3.org/Graphics/SVG/1.1/DTD/svg11.dtd">
<!-- Created with matplotlib (https://matplotlib.org/) -->
<svg height="345.6pt" version="1.1" viewBox="0 0 460.8 345.6" width="460.8pt" xmlns="http://www.w3.org/2000/svg" xmlns:xlink="http://www.w3.org/1999/xlink">
 <defs>
  <style type="text/css">
*{stroke-linecap:butt;stroke-linejoin:round;}
  </style>
 </defs>
 <g id="figure_1">
  <g id="patch_1">
   <path d="M 0 345.6 
L 460.8 345.6 
L 460.8 0 
L 0 0 
z
" style="fill:#ffffff;"/>
  </g>
  <g id="axes_1">
   <g id="patch_2">
    <path d="M 57.6 298.944 
L 338.688 298.944 
L 338.688 27.648 
L 57.6 27.648 
z
" style="fill:#ffffff;"/>
   </g>
   <g id="line2d_1">
    <path d="M 36.60358 298.944 
L 36.60358 293.677139 
L 60.779557 293.677139 
L 60.779557 288.410278 
L 70.538854 288.410278 
L 70.538854 277.876557 
L 70.949209 277.876557 
L 70.949209 30.334099 
L 338.688 30.334099 
" style="fill:none;stroke:#f5deb3;stroke-linecap:square;stroke-width:4;"/>
   </g>
   <g id="line2d_2">
    <defs>
     <path d="M -0 7.778175 
L 7.778175 0 
L 0 -7.778175 
L -7.778175 -0 
z
" id="m875df315fa" style="stroke:#f5deb3;stroke-linejoin:miter;stroke-width:1.5;"/>
    </defs>
    <g>
     <use style="fill:#f5deb3;stroke:#f5deb3;stroke-linejoin:miter;stroke-width:1.5;" x="70.538854" xlink:href="#m875df315fa" y="277.876557"/>
     <use style="fill:#f5deb3;stroke:#f5deb3;stroke-linejoin:miter;stroke-width:1.5;" x="70.949209" xlink:href="#m875df315fa" y="277.876557"/>
     <use style="fill:#f5deb3;stroke:#f5deb3;stroke-linejoin:miter;stroke-width:1.5;" x="70.949209" xlink:href="#m875df315fa" y="277.876557"/>
     <use style="fill:#f5deb3;stroke:#f5deb3;stroke-linejoin:miter;stroke-width:1.5;" x="70.949209" xlink:href="#m875df315fa" y="30.334099"/>
     <use style="fill:#f5deb3;stroke:#f5deb3;stroke-linejoin:miter;stroke-width:1.5;" x="70.949209" xlink:href="#m875df315fa" y="30.334099"/>
     <use style="fill:#f5deb3;stroke:#f5deb3;stroke-linejoin:miter;stroke-width:1.5;" x="338.688" xlink:href="#m875df315fa" y="30.334099"/>
    </g>
   </g>
   <g id="line2d_3">
    <path style="fill:none;stroke:#f5deb3;stroke-linecap:square;stroke-width:4;"/>
    <g/>
   </g>
   <g id="line2d_4">
    <path d="M 338.688 30.334099 
L 369.60768 35.706297 
" style="fill:none;stroke:#f5deb3;stroke-linecap:square;stroke-width:4;"/>
    <g>
     <use style="fill:#f5deb3;stroke:#f5deb3;stroke-linejoin:miter;stroke-width:1.5;" x="338.688" xlink:href="#m875df315fa" y="30.334099"/>
     <use style="fill:#f5deb3;stroke:#f5deb3;stroke-linejoin:miter;stroke-width:1.5;" x="369.60768" xlink:href="#m875df315fa" y="35.706297"/>
    </g>
   </g>
   <g id="matplotlib.axis_1">
    <g id="xtick_1">
     <g id="line2d_5">
      <path clip-path="url(#p2048326cd2)" d="M 57.6 298.944 
L 57.6 27.648 
" style="fill:none;stroke:#b0b0b0;stroke-linecap:square;stroke-width:0.8;"/>
     </g>
     <g id="line2d_6">
      <defs>
       <path d="M 0 0 
L 0 3.5 
" id="m946f4537dd" style="stroke:#000000;stroke-width:0.8;"/>
      </defs>
      <g>
       <use style="stroke:#000000;stroke-width:0.8;" x="57.6" xlink:href="#m946f4537dd" y="298.944"/>
      </g>
     </g>
     <g id="text_1">
      <!-- 0 -->
      <defs>
       <path d="M 31.78125 66.40625 
Q 24.171875 66.40625 20.328125 58.90625 
Q 16.5 51.421875 16.5 36.375 
Q 16.5 21.390625 20.328125 13.890625 
Q 24.171875 6.390625 31.78125 6.390625 
Q 39.453125 6.390625 43.28125 13.890625 
Q 47.125 21.390625 47.125 36.375 
Q 47.125 51.421875 43.28125 58.90625 
Q 39.453125 66.40625 31.78125 66.40625 
z
M 31.78125 74.21875 
Q 44.046875 74.21875 50.515625 64.515625 
Q 56.984375 54.828125 56.984375 36.375 
Q 56.984375 17.96875 50.515625 8.265625 
Q 44.046875 -1.421875 31.78125 -1.421875 
Q 19.53125 -1.421875 13.0625 8.265625 
Q 6.59375 17.96875 6.59375 36.375 
Q 6.59375 54.828125 13.0625 64.515625 
Q 19.53125 74.21875 31.78125 74.21875 
z
" id="DejaVuSans-48"/>
      </defs>
      <g transform="translate(51.2375 321.140875)scale(0.2 -0.2)">
       <use xlink:href="#DejaVuSans-48"/>
      </g>
     </g>
    </g>
    <g id="xtick_2">
     <g id="line2d_7">
      <path clip-path="url(#p2048326cd2)" d="M 137.910857 298.944 
L 137.910857 27.648 
" style="fill:none;stroke:#b0b0b0;stroke-linecap:square;stroke-width:0.8;"/>
     </g>
     <g id="line2d_8">
      <g>
       <use style="stroke:#000000;stroke-width:0.8;" x="137.910857" xlink:href="#m946f4537dd" y="298.944"/>
      </g>
     </g>
     <g id="text_2">
      <!-- 2 -->
      <defs>
       <path d="M 19.1875 8.296875 
L 53.609375 8.296875 
L 53.609375 0 
L 7.328125 0 
L 7.328125 8.296875 
Q 12.9375 14.109375 22.625 23.890625 
Q 32.328125 33.6875 34.8125 36.53125 
Q 39.546875 41.84375 41.421875 45.53125 
Q 43.3125 49.21875 43.3125 52.78125 
Q 43.3125 58.59375 39.234375 62.25 
Q 35.15625 65.921875 28.609375 65.921875 
Q 23.96875 65.921875 18.8125 64.3125 
Q 13.671875 62.703125 7.8125 59.421875 
L 7.8125 69.390625 
Q 13.765625 71.78125 18.9375 73 
Q 24.125 74.21875 28.421875 74.21875 
Q 39.75 74.21875 46.484375 68.546875 
Q 53.21875 62.890625 53.21875 53.421875 
Q 53.21875 48.921875 51.53125 44.890625 
Q 49.859375 40.875 45.40625 35.40625 
Q 44.1875 33.984375 37.640625 27.21875 
Q 31.109375 20.453125 19.1875 8.296875 
z
" id="DejaVuSans-50"/>
      </defs>
      <g transform="translate(131.548357 321.140875)scale(0.2 -0.2)">
       <use xlink:href="#DejaVuSans-50"/>
      </g>
     </g>
    </g>
    <g id="xtick_3">
     <g id="line2d_9">
      <path clip-path="url(#p2048326cd2)" d="M 218.221714 298.944 
L 218.221714 27.648 
" style="fill:none;stroke:#b0b0b0;stroke-linecap:square;stroke-width:0.8;"/>
     </g>
     <g id="line2d_10">
      <g>
       <use style="stroke:#000000;stroke-width:0.8;" x="218.221714" xlink:href="#m946f4537dd" y="298.944"/>
      </g>
     </g>
     <g id="text_3">
      <!-- 4 -->
      <defs>
       <path d="M 37.796875 64.3125 
L 12.890625 25.390625 
L 37.796875 25.390625 
z
M 35.203125 72.90625 
L 47.609375 72.90625 
L 47.609375 25.390625 
L 58.015625 25.390625 
L 58.015625 17.1875 
L 47.609375 17.1875 
L 47.609375 0 
L 37.796875 0 
L 37.796875 17.1875 
L 4.890625 17.1875 
L 4.890625 26.703125 
z
" id="DejaVuSans-52"/>
      </defs>
      <g transform="translate(211.859214 321.140875)scale(0.2 -0.2)">
       <use xlink:href="#DejaVuSans-52"/>
      </g>
     </g>
    </g>
    <g id="xtick_4">
     <g id="line2d_11">
      <path clip-path="url(#p2048326cd2)" d="M 298.532571 298.944 
L 298.532571 27.648 
" style="fill:none;stroke:#b0b0b0;stroke-linecap:square;stroke-width:0.8;"/>
     </g>
     <g id="line2d_12">
      <g>
       <use style="stroke:#000000;stroke-width:0.8;" x="298.532571" xlink:href="#m946f4537dd" y="298.944"/>
      </g>
     </g>
     <g id="text_4">
      <!-- 6 -->
      <defs>
       <path d="M 33.015625 40.375 
Q 26.375 40.375 22.484375 35.828125 
Q 18.609375 31.296875 18.609375 23.390625 
Q 18.609375 15.53125 22.484375 10.953125 
Q 26.375 6.390625 33.015625 6.390625 
Q 39.65625 6.390625 43.53125 10.953125 
Q 47.40625 15.53125 47.40625 23.390625 
Q 47.40625 31.296875 43.53125 35.828125 
Q 39.65625 40.375 33.015625 40.375 
z
M 52.59375 71.296875 
L 52.59375 62.3125 
Q 48.875 64.0625 45.09375 64.984375 
Q 41.3125 65.921875 37.59375 65.921875 
Q 27.828125 65.921875 22.671875 59.328125 
Q 17.53125 52.734375 16.796875 39.40625 
Q 19.671875 43.65625 24.015625 45.921875 
Q 28.375 48.1875 33.59375 48.1875 
Q 44.578125 48.1875 50.953125 41.515625 
Q 57.328125 34.859375 57.328125 23.390625 
Q 57.328125 12.15625 50.6875 5.359375 
Q 44.046875 -1.421875 33.015625 -1.421875 
Q 20.359375 -1.421875 13.671875 8.265625 
Q 6.984375 17.96875 6.984375 36.375 
Q 6.984375 53.65625 15.1875 63.9375 
Q 23.390625 74.21875 37.203125 74.21875 
Q 40.921875 74.21875 44.703125 73.484375 
Q 48.484375 72.75 52.59375 71.296875 
z
" id="DejaVuSans-54"/>
      </defs>
      <g transform="translate(292.170071 321.140875)scale(0.2 -0.2)">
       <use xlink:href="#DejaVuSans-54"/>
      </g>
     </g>
    </g>
    <g id="xtick_5">
     <g id="line2d_13">
      <path clip-path="url(#p2048326cd2)" d="M 97.755429 298.944 
L 97.755429 27.648 
" style="fill:none;stroke:#b0b0b0;stroke-linecap:square;stroke-width:0.8;"/>
     </g>
     <g id="line2d_14">
      <defs>
       <path d="M 0 0 
L 0 2 
" id="m32fcdb56b4" style="stroke:#000000;stroke-width:0.6;"/>
      </defs>
      <g>
       <use style="stroke:#000000;stroke-width:0.6;" x="97.755429" xlink:href="#m32fcdb56b4" y="298.944"/>
      </g>
     </g>
    </g>
    <g id="xtick_6">
     <g id="line2d_15">
      <path clip-path="url(#p2048326cd2)" d="M 178.066286 298.944 
L 178.066286 27.648 
" style="fill:none;stroke:#b0b0b0;stroke-linecap:square;stroke-width:0.8;"/>
     </g>
     <g id="line2d_16">
      <g>
       <use style="stroke:#000000;stroke-width:0.6;" x="178.066286" xlink:href="#m32fcdb56b4" y="298.944"/>
      </g>
     </g>
    </g>
    <g id="xtick_7">
     <g id="line2d_17">
      <path clip-path="url(#p2048326cd2)" d="M 258.377143 298.944 
L 258.377143 27.648 
" style="fill:none;stroke:#b0b0b0;stroke-linecap:square;stroke-width:0.8;"/>
     </g>
     <g id="line2d_18">
      <g>
       <use style="stroke:#000000;stroke-width:0.6;" x="258.377143" xlink:href="#m32fcdb56b4" y="298.944"/>
      </g>
     </g>
    </g>
    <g id="xtick_8">
     <g id="line2d_19">
      <path clip-path="url(#p2048326cd2)" d="M 338.688 298.944 
L 338.688 27.648 
" style="fill:none;stroke:#b0b0b0;stroke-linecap:square;stroke-width:0.8;"/>
     </g>
     <g id="line2d_20">
      <g>
       <use style="stroke:#000000;stroke-width:0.6;" x="338.688" xlink:href="#m32fcdb56b4" y="298.944"/>
      </g>
     </g>
    </g>
    <g id="text_5">
     <!-- log10(# f-evals / dimension) -->
     <defs>
      <path d="M 9.421875 75.984375 
L 18.40625 75.984375 
L 18.40625 0 
L 9.421875 0 
z
" id="DejaVuSans-108"/>
      <path d="M 30.609375 48.390625 
Q 23.390625 48.390625 19.1875 42.75 
Q 14.984375 37.109375 14.984375 27.296875 
Q 14.984375 17.484375 19.15625 11.84375 
Q 23.34375 6.203125 30.609375 6.203125 
Q 37.796875 6.203125 41.984375 11.859375 
Q 46.1875 17.53125 46.1875 27.296875 
Q 46.1875 37.015625 41.984375 42.703125 
Q 37.796875 48.390625 30.609375 48.390625 
z
M 30.609375 56 
Q 42.328125 56 49.015625 48.375 
Q 55.71875 40.765625 55.71875 27.296875 
Q 55.71875 13.875 49.015625 6.21875 
Q 42.328125 -1.421875 30.609375 -1.421875 
Q 18.84375 -1.421875 12.171875 6.21875 
Q 5.515625 13.875 5.515625 27.296875 
Q 5.515625 40.765625 12.171875 48.375 
Q 18.84375 56 30.609375 56 
z
" id="DejaVuSans-111"/>
      <path d="M 45.40625 27.984375 
Q 45.40625 37.75 41.375 43.109375 
Q 37.359375 48.484375 30.078125 48.484375 
Q 22.859375 48.484375 18.828125 43.109375 
Q 14.796875 37.75 14.796875 27.984375 
Q 14.796875 18.265625 18.828125 12.890625 
Q 22.859375 7.515625 30.078125 7.515625 
Q 37.359375 7.515625 41.375 12.890625 
Q 45.40625 18.265625 45.40625 27.984375 
z
M 54.390625 6.78125 
Q 54.390625 -7.171875 48.1875 -13.984375 
Q 42 -20.796875 29.203125 -20.796875 
Q 24.46875 -20.796875 20.265625 -20.09375 
Q 16.0625 -19.390625 12.109375 -17.921875 
L 12.109375 -9.1875 
Q 16.0625 -11.328125 19.921875 -12.34375 
Q 23.78125 -13.375 27.78125 -13.375 
Q 36.625 -13.375 41.015625 -8.765625 
Q 45.40625 -4.15625 45.40625 5.171875 
L 45.40625 9.625 
Q 42.625 4.78125 38.28125 2.390625 
Q 33.9375 0 27.875 0 
Q 17.828125 0 11.671875 7.65625 
Q 5.515625 15.328125 5.515625 27.984375 
Q 5.515625 40.671875 11.671875 48.328125 
Q 17.828125 56 27.875 56 
Q 33.9375 56 38.28125 53.609375 
Q 42.625 51.21875 45.40625 46.390625 
L 45.40625 54.6875 
L 54.390625 54.6875 
z
" id="DejaVuSans-103"/>
      <path d="M 12.40625 8.296875 
L 28.515625 8.296875 
L 28.515625 63.921875 
L 10.984375 60.40625 
L 10.984375 69.390625 
L 28.421875 72.90625 
L 38.28125 72.90625 
L 38.28125 8.296875 
L 54.390625 8.296875 
L 54.390625 0 
L 12.40625 0 
z
" id="DejaVuSans-49"/>
      <path d="M 31 75.875 
Q 24.46875 64.65625 21.28125 53.65625 
Q 18.109375 42.671875 18.109375 31.390625 
Q 18.109375 20.125 21.3125 9.0625 
Q 24.515625 -2 31 -13.1875 
L 23.1875 -13.1875 
Q 15.875 -1.703125 12.234375 9.375 
Q 8.59375 20.453125 8.59375 31.390625 
Q 8.59375 42.28125 12.203125 53.3125 
Q 15.828125 64.359375 23.1875 75.875 
z
" id="DejaVuSans-40"/>
      <path d="M 51.125 44 
L 36.921875 44 
L 32.8125 27.6875 
L 47.125 27.6875 
z
M 43.796875 71.78125 
L 38.71875 51.515625 
L 52.984375 51.515625 
L 58.109375 71.78125 
L 65.921875 71.78125 
L 60.890625 51.515625 
L 76.125 51.515625 
L 76.125 44 
L 58.984375 44 
L 54.984375 27.6875 
L 70.515625 27.6875 
L 70.515625 20.21875 
L 53.078125 20.21875 
L 48 0 
L 40.1875 0 
L 45.21875 20.21875 
L 30.90625 20.21875 
L 25.875 0 
L 18.015625 0 
L 23.09375 20.21875 
L 7.71875 20.21875 
L 7.71875 27.6875 
L 24.90625 27.6875 
L 29 44 
L 13.28125 44 
L 13.28125 51.515625 
L 30.90625 51.515625 
L 35.890625 71.78125 
z
" id="DejaVuSans-35"/>
      <path id="DejaVuSans-32"/>
      <path d="M 37.109375 75.984375 
L 37.109375 68.5 
L 28.515625 68.5 
Q 23.6875 68.5 21.796875 66.546875 
Q 19.921875 64.59375 19.921875 59.515625 
L 19.921875 54.6875 
L 34.71875 54.6875 
L 34.71875 47.703125 
L 19.921875 47.703125 
L 19.921875 0 
L 10.890625 0 
L 10.890625 47.703125 
L 2.296875 47.703125 
L 2.296875 54.6875 
L 10.890625 54.6875 
L 10.890625 58.5 
Q 10.890625 67.625 15.140625 71.796875 
Q 19.390625 75.984375 28.609375 75.984375 
z
" id="DejaVuSans-102"/>
      <path d="M 4.890625 31.390625 
L 31.203125 31.390625 
L 31.203125 23.390625 
L 4.890625 23.390625 
z
" id="DejaVuSans-45"/>
      <path d="M 56.203125 29.59375 
L 56.203125 25.203125 
L 14.890625 25.203125 
Q 15.484375 15.921875 20.484375 11.0625 
Q 25.484375 6.203125 34.421875 6.203125 
Q 39.59375 6.203125 44.453125 7.46875 
Q 49.3125 8.734375 54.109375 11.28125 
L 54.109375 2.78125 
Q 49.265625 0.734375 44.1875 -0.34375 
Q 39.109375 -1.421875 33.890625 -1.421875 
Q 20.796875 -1.421875 13.15625 6.1875 
Q 5.515625 13.8125 5.515625 26.8125 
Q 5.515625 40.234375 12.765625 48.109375 
Q 20.015625 56 32.328125 56 
Q 43.359375 56 49.78125 48.890625 
Q 56.203125 41.796875 56.203125 29.59375 
z
M 47.21875 32.234375 
Q 47.125 39.59375 43.09375 43.984375 
Q 39.0625 48.390625 32.421875 48.390625 
Q 24.90625 48.390625 20.390625 44.140625 
Q 15.875 39.890625 15.1875 32.171875 
z
" id="DejaVuSans-101"/>
      <path d="M 2.984375 54.6875 
L 12.5 54.6875 
L 29.59375 8.796875 
L 46.6875 54.6875 
L 56.203125 54.6875 
L 35.6875 0 
L 23.484375 0 
z
" id="DejaVuSans-118"/>
      <path d="M 34.28125 27.484375 
Q 23.390625 27.484375 19.1875 25 
Q 14.984375 22.515625 14.984375 16.5 
Q 14.984375 11.71875 18.140625 8.90625 
Q 21.296875 6.109375 26.703125 6.109375 
Q 34.1875 6.109375 38.703125 11.40625 
Q 43.21875 16.703125 43.21875 25.484375 
L 43.21875 27.484375 
z
M 52.203125 31.203125 
L 52.203125 0 
L 43.21875 0 
L 43.21875 8.296875 
Q 40.140625 3.328125 35.546875 0.953125 
Q 30.953125 -1.421875 24.3125 -1.421875 
Q 15.921875 -1.421875 10.953125 3.296875 
Q 6 8.015625 6 15.921875 
Q 6 25.140625 12.171875 29.828125 
Q 18.359375 34.515625 30.609375 34.515625 
L 43.21875 34.515625 
L 43.21875 35.40625 
Q 43.21875 41.609375 39.140625 45 
Q 35.0625 48.390625 27.6875 48.390625 
Q 23 48.390625 18.546875 47.265625 
Q 14.109375 46.140625 10.015625 43.890625 
L 10.015625 52.203125 
Q 14.9375 54.109375 19.578125 55.046875 
Q 24.21875 56 28.609375 56 
Q 40.484375 56 46.34375 49.84375 
Q 52.203125 43.703125 52.203125 31.203125 
z
" id="DejaVuSans-97"/>
      <path d="M 44.28125 53.078125 
L 44.28125 44.578125 
Q 40.484375 46.53125 36.375 47.5 
Q 32.28125 48.484375 27.875 48.484375 
Q 21.1875 48.484375 17.84375 46.4375 
Q 14.5 44.390625 14.5 40.28125 
Q 14.5 37.15625 16.890625 35.375 
Q 19.28125 33.59375 26.515625 31.984375 
L 29.59375 31.296875 
Q 39.15625 29.25 43.1875 25.515625 
Q 47.21875 21.78125 47.21875 15.09375 
Q 47.21875 7.46875 41.1875 3.015625 
Q 35.15625 -1.421875 24.609375 -1.421875 
Q 20.21875 -1.421875 15.453125 -0.5625 
Q 10.6875 0.296875 5.421875 2 
L 5.421875 11.28125 
Q 10.40625 8.6875 15.234375 7.390625 
Q 20.0625 6.109375 24.8125 6.109375 
Q 31.15625 6.109375 34.5625 8.28125 
Q 37.984375 10.453125 37.984375 14.40625 
Q 37.984375 18.0625 35.515625 20.015625 
Q 33.0625 21.96875 24.703125 23.78125 
L 21.578125 24.515625 
Q 13.234375 26.265625 9.515625 29.90625 
Q 5.8125 33.546875 5.8125 39.890625 
Q 5.8125 47.609375 11.28125 51.796875 
Q 16.75 56 26.8125 56 
Q 31.78125 56 36.171875 55.265625 
Q 40.578125 54.546875 44.28125 53.078125 
z
" id="DejaVuSans-115"/>
      <path d="M 25.390625 72.90625 
L 33.6875 72.90625 
L 8.296875 -9.28125 
L 0 -9.28125 
z
" id="DejaVuSans-47"/>
      <path d="M 45.40625 46.390625 
L 45.40625 75.984375 
L 54.390625 75.984375 
L 54.390625 0 
L 45.40625 0 
L 45.40625 8.203125 
Q 42.578125 3.328125 38.25 0.953125 
Q 33.9375 -1.421875 27.875 -1.421875 
Q 17.96875 -1.421875 11.734375 6.484375 
Q 5.515625 14.40625 5.515625 27.296875 
Q 5.515625 40.1875 11.734375 48.09375 
Q 17.96875 56 27.875 56 
Q 33.9375 56 38.25 53.625 
Q 42.578125 51.265625 45.40625 46.390625 
z
M 14.796875 27.296875 
Q 14.796875 17.390625 18.875 11.75 
Q 22.953125 6.109375 30.078125 6.109375 
Q 37.203125 6.109375 41.296875 11.75 
Q 45.40625 17.390625 45.40625 27.296875 
Q 45.40625 37.203125 41.296875 42.84375 
Q 37.203125 48.484375 30.078125 48.484375 
Q 22.953125 48.484375 18.875 42.84375 
Q 14.796875 37.203125 14.796875 27.296875 
z
" id="DejaVuSans-100"/>
      <path d="M 9.421875 54.6875 
L 18.40625 54.6875 
L 18.40625 0 
L 9.421875 0 
z
M 9.421875 75.984375 
L 18.40625 75.984375 
L 18.40625 64.59375 
L 9.421875 64.59375 
z
" id="DejaVuSans-105"/>
      <path d="M 52 44.1875 
Q 55.375 50.25 60.0625 53.125 
Q 64.75 56 71.09375 56 
Q 79.640625 56 84.28125 50.015625 
Q 88.921875 44.046875 88.921875 33.015625 
L 88.921875 0 
L 79.890625 0 
L 79.890625 32.71875 
Q 79.890625 40.578125 77.09375 44.375 
Q 74.3125 48.1875 68.609375 48.1875 
Q 61.625 48.1875 57.5625 43.546875 
Q 53.515625 38.921875 53.515625 30.90625 
L 53.515625 0 
L 44.484375 0 
L 44.484375 32.71875 
Q 44.484375 40.625 41.703125 44.40625 
Q 38.921875 48.1875 33.109375 48.1875 
Q 26.21875 48.1875 22.15625 43.53125 
Q 18.109375 38.875 18.109375 30.90625 
L 18.109375 0 
L 9.078125 0 
L 9.078125 54.6875 
L 18.109375 54.6875 
L 18.109375 46.1875 
Q 21.1875 51.21875 25.484375 53.609375 
Q 29.78125 56 35.6875 56 
Q 41.65625 56 45.828125 52.96875 
Q 50 49.953125 52 44.1875 
z
" id="DejaVuSans-109"/>
      <path d="M 54.890625 33.015625 
L 54.890625 0 
L 45.90625 0 
L 45.90625 32.71875 
Q 45.90625 40.484375 42.875 44.328125 
Q 39.84375 48.1875 33.796875 48.1875 
Q 26.515625 48.1875 22.3125 43.546875 
Q 18.109375 38.921875 18.109375 30.90625 
L 18.109375 0 
L 9.078125 0 
L 9.078125 54.6875 
L 18.109375 54.6875 
L 18.109375 46.1875 
Q 21.34375 51.125 25.703125 53.5625 
Q 30.078125 56 35.796875 56 
Q 45.21875 56 50.046875 50.171875 
Q 54.890625 44.34375 54.890625 33.015625 
z
" id="DejaVuSans-110"/>
      <path d="M 8.015625 75.875 
L 15.828125 75.875 
Q 23.140625 64.359375 26.78125 53.3125 
Q 30.421875 42.28125 30.421875 31.390625 
Q 30.421875 20.453125 26.78125 9.375 
Q 23.140625 -1.703125 15.828125 -13.1875 
L 8.015625 -13.1875 
Q 14.5 -2 17.703125 9.0625 
Q 20.90625 20.125 20.90625 31.390625 
Q 20.90625 42.671875 17.703125 53.65625 
Q 14.5 64.65625 8.015625 75.875 
z
" id="DejaVuSans-41"/>
     </defs>
     <g transform="translate(77.764078 342.217594)scale(0.17 -0.17)">
      <use xlink:href="#DejaVuSans-108"/>
      <use x="27.783203" xlink:href="#DejaVuSans-111"/>
      <use x="88.964844" xlink:href="#DejaVuSans-103"/>
      <use x="152.441406" xlink:href="#DejaVuSans-49"/>
      <use x="216.064453" xlink:href="#DejaVuSans-48"/>
      <use x="279.6875" xlink:href="#DejaVuSans-40"/>
      <use x="318.701172" xlink:href="#DejaVuSans-35"/>
      <use x="402.490234" xlink:href="#DejaVuSans-32"/>
      <use x="434.277344" xlink:href="#DejaVuSans-102"/>
      <use x="463.982422" xlink:href="#DejaVuSans-45"/>
      <use x="500.066406" xlink:href="#DejaVuSans-101"/>
      <use x="561.589844" xlink:href="#DejaVuSans-118"/>
      <use x="620.769531" xlink:href="#DejaVuSans-97"/>
      <use x="682.048828" xlink:href="#DejaVuSans-108"/>
      <use x="709.832031" xlink:href="#DejaVuSans-115"/>
      <use x="761.931641" xlink:href="#DejaVuSans-32"/>
      <use x="793.71875" xlink:href="#DejaVuSans-47"/>
      <use x="827.410156" xlink:href="#DejaVuSans-32"/>
      <use x="859.197266" xlink:href="#DejaVuSans-100"/>
      <use x="922.673828" xlink:href="#DejaVuSans-105"/>
      <use x="950.457031" xlink:href="#DejaVuSans-109"/>
      <use x="1047.869141" xlink:href="#DejaVuSans-101"/>
      <use x="1109.392578" xlink:href="#DejaVuSans-110"/>
      <use x="1172.771484" xlink:href="#DejaVuSans-115"/>
      <use x="1224.871094" xlink:href="#DejaVuSans-105"/>
      <use x="1252.654297" xlink:href="#DejaVuSans-111"/>
      <use x="1313.835938" xlink:href="#DejaVuSans-110"/>
      <use x="1377.214844" xlink:href="#DejaVuSans-41"/>
     </g>
    </g>
   </g>
   <g id="matplotlib.axis_2">
    <g id="ytick_1">
     <g id="line2d_21">
      <path clip-path="url(#p2048326cd2)" d="M 57.6 298.944 
L 338.688 298.944 
" style="fill:none;stroke:#b0b0b0;stroke-linecap:square;stroke-width:0.8;"/>
     </g>
     <g id="line2d_22">
      <defs>
       <path d="M 0 0 
L -3.5 0 
" id="m554d1a305b" style="stroke:#000000;stroke-width:0.8;"/>
      </defs>
      <g>
       <use style="stroke:#000000;stroke-width:0.8;" x="57.6" xlink:href="#m554d1a305b" y="298.944"/>
      </g>
     </g>
     <g id="text_6">
      <!-- 0.0 -->
      <defs>
       <path d="M 10.6875 12.40625 
L 21 12.40625 
L 21 0 
L 10.6875 0 
z
" id="DejaVuSans-46"/>
      </defs>
      <g transform="translate(25.155 305.02275)scale(0.16 -0.16)">
       <use xlink:href="#DejaVuSans-48"/>
       <use x="63.623047" xlink:href="#DejaVuSans-46"/>
       <use x="95.410156" xlink:href="#DejaVuSans-48"/>
      </g>
     </g>
    </g>
    <g id="ytick_2">
     <g id="line2d_23">
      <path clip-path="url(#p2048326cd2)" d="M 57.6 245.22202 
L 338.688 245.22202 
" style="fill:none;stroke:#b0b0b0;stroke-linecap:square;stroke-width:0.8;"/>
     </g>
     <g id="line2d_24">
      <g>
       <use style="stroke:#000000;stroke-width:0.8;" x="57.6" xlink:href="#m554d1a305b" y="245.22202"/>
      </g>
     </g>
     <g id="text_7">
      <!-- 0.2 -->
      <g transform="translate(25.155 251.30077)scale(0.16 -0.16)">
       <use xlink:href="#DejaVuSans-48"/>
       <use x="63.623047" xlink:href="#DejaVuSans-46"/>
       <use x="95.410156" xlink:href="#DejaVuSans-50"/>
      </g>
     </g>
    </g>
    <g id="ytick_3">
     <g id="line2d_25">
      <path clip-path="url(#p2048326cd2)" d="M 57.6 191.50004 
L 338.688 191.50004 
" style="fill:none;stroke:#b0b0b0;stroke-linecap:square;stroke-width:0.8;"/>
     </g>
     <g id="line2d_26">
      <g>
       <use style="stroke:#000000;stroke-width:0.8;" x="57.6" xlink:href="#m554d1a305b" y="191.50004"/>
      </g>
     </g>
     <g id="text_8">
      <!-- 0.4 -->
      <g transform="translate(25.155 197.57879)scale(0.16 -0.16)">
       <use xlink:href="#DejaVuSans-48"/>
       <use x="63.623047" xlink:href="#DejaVuSans-46"/>
       <use x="95.410156" xlink:href="#DejaVuSans-52"/>
      </g>
     </g>
    </g>
    <g id="ytick_4">
     <g id="line2d_27">
      <path clip-path="url(#p2048326cd2)" d="M 57.6 137.778059 
L 338.688 137.778059 
" style="fill:none;stroke:#b0b0b0;stroke-linecap:square;stroke-width:0.8;"/>
     </g>
     <g id="line2d_28">
      <g>
       <use style="stroke:#000000;stroke-width:0.8;" x="57.6" xlink:href="#m554d1a305b" y="137.778059"/>
      </g>
     </g>
     <g id="text_9">
      <!-- 0.6 -->
      <g transform="translate(25.155 143.856809)scale(0.16 -0.16)">
       <use xlink:href="#DejaVuSans-48"/>
       <use x="63.623047" xlink:href="#DejaVuSans-46"/>
       <use x="95.410156" xlink:href="#DejaVuSans-54"/>
      </g>
     </g>
    </g>
    <g id="ytick_5">
     <g id="line2d_29">
      <path clip-path="url(#p2048326cd2)" d="M 57.6 84.056079 
L 338.688 84.056079 
" style="fill:none;stroke:#b0b0b0;stroke-linecap:square;stroke-width:0.8;"/>
     </g>
     <g id="line2d_30">
      <g>
       <use style="stroke:#000000;stroke-width:0.8;" x="57.6" xlink:href="#m554d1a305b" y="84.056079"/>
      </g>
     </g>
     <g id="text_10">
      <!-- 0.8 -->
      <defs>
       <path d="M 31.78125 34.625 
Q 24.75 34.625 20.71875 30.859375 
Q 16.703125 27.09375 16.703125 20.515625 
Q 16.703125 13.921875 20.71875 10.15625 
Q 24.75 6.390625 31.78125 6.390625 
Q 38.8125 6.390625 42.859375 10.171875 
Q 46.921875 13.96875 46.921875 20.515625 
Q 46.921875 27.09375 42.890625 30.859375 
Q 38.875 34.625 31.78125 34.625 
z
M 21.921875 38.8125 
Q 15.578125 40.375 12.03125 44.71875 
Q 8.5 49.078125 8.5 55.328125 
Q 8.5 64.0625 14.71875 69.140625 
Q 20.953125 74.21875 31.78125 74.21875 
Q 42.671875 74.21875 48.875 69.140625 
Q 55.078125 64.0625 55.078125 55.328125 
Q 55.078125 49.078125 51.53125 44.71875 
Q 48 40.375 41.703125 38.8125 
Q 48.828125 37.15625 52.796875 32.3125 
Q 56.78125 27.484375 56.78125 20.515625 
Q 56.78125 9.90625 50.3125 4.234375 
Q 43.84375 -1.421875 31.78125 -1.421875 
Q 19.734375 -1.421875 13.25 4.234375 
Q 6.78125 9.90625 6.78125 20.515625 
Q 6.78125 27.484375 10.78125 32.3125 
Q 14.796875 37.15625 21.921875 38.8125 
z
M 18.3125 54.390625 
Q 18.3125 48.734375 21.84375 45.5625 
Q 25.390625 42.390625 31.78125 42.390625 
Q 38.140625 42.390625 41.71875 45.5625 
Q 45.3125 48.734375 45.3125 54.390625 
Q 45.3125 60.0625 41.71875 63.234375 
Q 38.140625 66.40625 31.78125 66.40625 
Q 25.390625 66.40625 21.84375 63.234375 
Q 18.3125 60.0625 18.3125 54.390625 
z
" id="DejaVuSans-56"/>
      </defs>
      <g transform="translate(25.155 90.134829)scale(0.16 -0.16)">
       <use xlink:href="#DejaVuSans-48"/>
       <use x="63.623047" xlink:href="#DejaVuSans-46"/>
       <use x="95.410156" xlink:href="#DejaVuSans-56"/>
      </g>
     </g>
    </g>
    <g id="ytick_6">
     <g id="line2d_31">
      <path clip-path="url(#p2048326cd2)" d="M 57.6 30.334099 
L 338.688 30.334099 
" style="fill:none;stroke:#b0b0b0;stroke-linecap:square;stroke-width:0.8;"/>
     </g>
     <g id="line2d_32">
      <g>
       <use style="stroke:#000000;stroke-width:0.8;" x="57.6" xlink:href="#m554d1a305b" y="30.334099"/>
      </g>
     </g>
     <g id="text_11">
      <!-- 1.0 -->
      <g transform="translate(25.155 36.412849)scale(0.16 -0.16)">
       <use xlink:href="#DejaVuSans-49"/>
       <use x="63.623047" xlink:href="#DejaVuSans-46"/>
       <use x="95.410156" xlink:href="#DejaVuSans-48"/>
      </g>
     </g>
    </g>
    <g id="text_12">
     <!-- Fraction of function,target pairs -->
     <defs>
      <path d="M 9.8125 72.90625 
L 51.703125 72.90625 
L 51.703125 64.59375 
L 19.671875 64.59375 
L 19.671875 43.109375 
L 48.578125 43.109375 
L 48.578125 34.8125 
L 19.671875 34.8125 
L 19.671875 0 
L 9.8125 0 
z
" id="DejaVuSans-70"/>
      <path d="M 41.109375 46.296875 
Q 39.59375 47.171875 37.8125 47.578125 
Q 36.03125 48 33.890625 48 
Q 26.265625 48 22.1875 43.046875 
Q 18.109375 38.09375 18.109375 28.8125 
L 18.109375 0 
L 9.078125 0 
L 9.078125 54.6875 
L 18.109375 54.6875 
L 18.109375 46.1875 
Q 20.953125 51.171875 25.484375 53.578125 
Q 30.03125 56 36.53125 56 
Q 37.453125 56 38.578125 55.875 
Q 39.703125 55.765625 41.0625 55.515625 
z
" id="DejaVuSans-114"/>
      <path d="M 48.78125 52.59375 
L 48.78125 44.1875 
Q 44.96875 46.296875 41.140625 47.34375 
Q 37.3125 48.390625 33.40625 48.390625 
Q 24.65625 48.390625 19.8125 42.84375 
Q 14.984375 37.3125 14.984375 27.296875 
Q 14.984375 17.28125 19.8125 11.734375 
Q 24.65625 6.203125 33.40625 6.203125 
Q 37.3125 6.203125 41.140625 7.25 
Q 44.96875 8.296875 48.78125 10.40625 
L 48.78125 2.09375 
Q 45.015625 0.34375 40.984375 -0.53125 
Q 36.96875 -1.421875 32.421875 -1.421875 
Q 20.0625 -1.421875 12.78125 6.34375 
Q 5.515625 14.109375 5.515625 27.296875 
Q 5.515625 40.671875 12.859375 48.328125 
Q 20.21875 56 33.015625 56 
Q 37.15625 56 41.109375 55.140625 
Q 45.0625 54.296875 48.78125 52.59375 
z
" id="DejaVuSans-99"/>
      <path d="M 18.3125 70.21875 
L 18.3125 54.6875 
L 36.8125 54.6875 
L 36.8125 47.703125 
L 18.3125 47.703125 
L 18.3125 18.015625 
Q 18.3125 11.328125 20.140625 9.421875 
Q 21.96875 7.515625 27.59375 7.515625 
L 36.8125 7.515625 
L 36.8125 0 
L 27.59375 0 
Q 17.1875 0 13.234375 3.875 
Q 9.28125 7.765625 9.28125 18.015625 
L 9.28125 47.703125 
L 2.6875 47.703125 
L 2.6875 54.6875 
L 9.28125 54.6875 
L 9.28125 70.21875 
z
" id="DejaVuSans-116"/>
      <path d="M 8.5 21.578125 
L 8.5 54.6875 
L 17.484375 54.6875 
L 17.484375 21.921875 
Q 17.484375 14.15625 20.5 10.265625 
Q 23.53125 6.390625 29.59375 6.390625 
Q 36.859375 6.390625 41.078125 11.03125 
Q 45.3125 15.671875 45.3125 23.6875 
L 45.3125 54.6875 
L 54.296875 54.6875 
L 54.296875 0 
L 45.3125 0 
L 45.3125 8.40625 
Q 42.046875 3.421875 37.71875 1 
Q 33.40625 -1.421875 27.6875 -1.421875 
Q 18.265625 -1.421875 13.375 4.4375 
Q 8.5 10.296875 8.5 21.578125 
z
M 31.109375 56 
z
" id="DejaVuSans-117"/>
      <path d="M 11.71875 12.40625 
L 22.015625 12.40625 
L 22.015625 4 
L 14.015625 -11.625 
L 7.71875 -11.625 
L 11.71875 4 
z
" id="DejaVuSans-44"/>
      <path d="M 18.109375 8.203125 
L 18.109375 -20.796875 
L 9.078125 -20.796875 
L 9.078125 54.6875 
L 18.109375 54.6875 
L 18.109375 46.390625 
Q 20.953125 51.265625 25.265625 53.625 
Q 29.59375 56 35.59375 56 
Q 45.5625 56 51.78125 48.09375 
Q 58.015625 40.1875 58.015625 27.296875 
Q 58.015625 14.40625 51.78125 6.484375 
Q 45.5625 -1.421875 35.59375 -1.421875 
Q 29.59375 -1.421875 25.265625 0.953125 
Q 20.953125 3.328125 18.109375 8.203125 
z
M 48.6875 27.296875 
Q 48.6875 37.203125 44.609375 42.84375 
Q 40.53125 48.484375 33.40625 48.484375 
Q 26.265625 48.484375 22.1875 42.84375 
Q 18.109375 37.203125 18.109375 27.296875 
Q 18.109375 17.390625 22.1875 11.75 
Q 26.265625 6.109375 33.40625 6.109375 
Q 40.53125 6.109375 44.609375 11.75 
Q 48.6875 17.390625 48.6875 27.296875 
z
" id="DejaVuSans-112"/>
     </defs>
     <g transform="translate(17.619531 297.681)rotate(-90)scale(0.17 -0.17)">
      <use xlink:href="#DejaVuSans-70"/>
      <use x="50.269531" xlink:href="#DejaVuSans-114"/>
      <use x="91.382812" xlink:href="#DejaVuSans-97"/>
      <use x="152.662109" xlink:href="#DejaVuSans-99"/>
      <use x="207.642578" xlink:href="#DejaVuSans-116"/>
      <use x="246.851562" xlink:href="#DejaVuSans-105"/>
      <use x="274.634766" xlink:href="#DejaVuSans-111"/>
      <use x="335.816406" xlink:href="#DejaVuSans-110"/>
      <use x="399.195312" xlink:href="#DejaVuSans-32"/>
      <use x="430.982422" xlink:href="#DejaVuSans-111"/>
      <use x="492.164062" xlink:href="#DejaVuSans-102"/>
      <use x="527.369141" xlink:href="#DejaVuSans-32"/>
      <use x="559.15625" xlink:href="#DejaVuSans-102"/>
      <use x="594.361328" xlink:href="#DejaVuSans-117"/>
      <use x="657.740234" xlink:href="#DejaVuSans-110"/>
      <use x="721.119141" xlink:href="#DejaVuSans-99"/>
      <use x="776.099609" xlink:href="#DejaVuSans-116"/>
      <use x="815.308594" xlink:href="#DejaVuSans-105"/>
      <use x="843.091797" xlink:href="#DejaVuSans-111"/>
      <use x="904.273438" xlink:href="#DejaVuSans-110"/>
      <use x="967.652344" xlink:href="#DejaVuSans-44"/>
      <use x="999.439453" xlink:href="#DejaVuSans-116"/>
      <use x="1038.648438" xlink:href="#DejaVuSans-97"/>
      <use x="1099.927734" xlink:href="#DejaVuSans-114"/>
      <use x="1139.291016" xlink:href="#DejaVuSans-103"/>
      <use x="1202.767578" xlink:href="#DejaVuSans-101"/>
      <use x="1264.291016" xlink:href="#DejaVuSans-116"/>
      <use x="1303.5" xlink:href="#DejaVuSans-32"/>
      <use x="1335.287109" xlink:href="#DejaVuSans-112"/>
      <use x="1398.763672" xlink:href="#DejaVuSans-97"/>
      <use x="1460.042969" xlink:href="#DejaVuSans-105"/>
      <use x="1487.826172" xlink:href="#DejaVuSans-114"/>
      <use x="1528.939453" xlink:href="#DejaVuSans-115"/>
     </g>
    </g>
   </g>
   <g id="line2d_33">
    <defs>
     <path d="M 0 1.5 
C 0.397805 1.5 0.77937 1.341951 1.06066 1.06066 
C 1.341951 0.77937 1.5 0.397805 1.5 0 
C 1.5 -0.397805 1.341951 -0.77937 1.06066 -1.06066 
C 0.77937 -1.341951 0.397805 -1.5 0 -1.5 
C -0.397805 -1.5 -0.77937 -1.341951 -1.06066 -1.06066 
C -1.341951 -0.77937 -1.5 -0.397805 -1.5 0 
C -1.5 0.397805 -1.341951 0.77937 -1.06066 1.06066 
C -0.77937 1.341951 -0.397805 1.5 0 1.5 
z
" id="m608629a1dc" style="stroke:#f5deb3;"/>
    </defs>
    <g>
     <use style="fill:#f5deb3;stroke:#f5deb3;" x="70.949209" xlink:href="#m608629a1dc" y="30.334099"/>
     <use style="fill:#f5deb3;stroke:#f5deb3;" x="70.949209" xlink:href="#m608629a1dc" y="30.334099"/>
    </g>
   </g>
   <g id="line2d_34">
    <defs>
     <path d="M 0 1.5 
C 0.397805 1.5 0.77937 1.341951 1.06066 1.06066 
C 1.341951 0.77937 1.5 0.397805 1.5 0 
C 1.5 -0.397805 1.341951 -0.77937 1.06066 -1.06066 
C 0.77937 -1.341951 0.397805 -1.5 0 -1.5 
C -0.397805 -1.5 -0.77937 -1.341951 -1.06066 -1.06066 
C -1.341951 -0.77937 -1.5 -0.397805 -1.5 0 
C -1.5 0.397805 -1.341951 0.77937 -1.06066 1.06066 
C -0.77937 1.341951 -0.397805 1.5 0 1.5 
z
" id="mefa7fd2603" style="stroke:#000080;"/>
    </defs>
    <g>
     <use style="fill:#000080;stroke:#000080;" x="144.712404" xlink:href="#mefa7fd2603" y="30.334099"/>
     <use style="fill:#000080;stroke:#000080;" x="144.712404" xlink:href="#mefa7fd2603" y="30.334099"/>
    </g>
   </g>
   <g id="line2d_35">
    <path d="M 5.356583 298.944 
L 5.356583 296.31057 
L 17.444571 296.31057 
L 17.444571 295.783884 
L 62.833608 295.783884 
L 62.833608 295.257197 
L 71.35013 295.257197 
L 71.35013 294.730511 
L 73.227131 294.730511 
L 73.227131 294.203825 
L 74.921597 294.203825 
L 74.921597 293.677139 
L 76.759008 293.677139 
L 76.759008 293.150453 
L 79.196356 293.150453 
L 79.196356 292.623767 
L 81.334453 292.623767 
L 81.334453 292.097081 
L 81.775977 292.097081 
L 81.775977 291.570395 
L 85.136253 291.570395 
L 85.136253 291.043709 
L 85.492169 291.043709 
L 85.492169 290.517023 
L 85.66744 290.517023 
L 85.66744 289.990337 
L 86.351421 289.990337 
L 86.351421 289.463651 
L 87.170317 289.463651 
L 87.170317 288.936964 
L 87.329581 288.936964 
L 87.329581 288.410278 
L 87.643811 288.410278 
L 87.643811 287.883592 
L 89.135256 287.883592 
L 89.135256 287.356906 
L 89.277618 287.356906 
L 89.277618 286.83022 
L 89.418828 286.83022 
L 89.418828 286.303534 
L 89.558903 286.303534 
L 89.558903 285.776848 
L 89.697862 285.776848 
L 89.697862 285.250162 
L 89.835723 285.250162 
L 89.835723 284.723476 
L 89.972502 284.723476 
L 89.972502 284.19679 
L 90.108217 284.19679 
L 90.108217 283.670104 
L 90.242884 283.670104 
L 90.242884 283.143418 
L 90.771388 283.143418 
L 90.771388 282.616732 
L 91.284345 282.616732 
L 91.284345 282.090045 
L 91.782644 282.090045 
L 91.782644 281.563359 
L 93.310291 281.563359 
L 93.310291 281.036673 
L 93.533875 281.036673 
L 93.644601 279.983301 
L 93.754628 279.983301 
L 93.754628 279.456615 
L 94.505975 279.456615 
L 94.505975 278.929929 
L 95.326798 278.929929 
L 95.426737 277.876557 
L 95.723163 277.876557 
L 95.723163 277.349871 
L 96.395835 277.349871 
L 96.395835 276.823185 
L 97.580158 276.823185 
L 97.580158 276.296499 
L 97.842408 276.296499 
L 97.842408 275.769812 
L 98.270913 275.769812 
L 98.355365 273.663068 
L 101.294571 273.663068 
L 101.294571 273.136382 
L 101.436355 273.136382 
L 101.436355 272.609696 
L 101.992235 272.609696 
L 101.992235 272.08301 
L 102.263669 272.08301 
L 102.263669 271.556324 
L 102.794183 271.556324 
L 102.794183 271.029638 
L 104.414709 271.029638 
L 104.414709 270.502952 
L 104.768221 270.502952 
L 104.768221 269.976266 
L 106.541356 269.976266 
L 106.541356 269.449579 
L 107.009204 269.449579 
L 107.009204 268.922893 
L 107.162405 268.922893 
L 107.162405 266.816149 
L 107.564481 266.816149 
L 107.564481 265.762777 
L 108.341848 265.762777 
L 108.341848 265.236091 
L 108.764355 265.236091 
L 108.764355 264.709405 
L 108.902946 264.709405 
L 108.948899 262.075974 
L 109.040444 262.075974 
L 109.040444 261.549288 
L 109.535528 261.549288 
L 109.535528 260.495916 
L 110.016944 260.495916 
L 110.016944 259.96923 
L 110.145965 259.96923 
L 110.145965 259.442544 
L 110.485426 259.442544 
L 110.485426 258.915858 
L 110.77713 258.915858 
L 110.818406 257.862486 
L 110.941652 257.862486 
L 110.941652 257.3358 
L 111.266113 257.3358 
L 111.266113 256.809114 
L 111.386247 256.809114 
L 111.465878 255.755741 
L 111.505558 255.755741 
L 111.505558 255.229055 
L 111.624059 255.229055 
L 111.624059 254.702369 
L 111.974805 254.702369 
L 112.051799 253.122311 
L 112.39413 253.122311 
L 112.39413 252.595625 
L 113.059268 252.595625 
L 113.059268 252.068939 
L 113.203693 252.068939 
L 113.203693 251.542253 
L 113.382559 251.542253 
L 113.382559 251.015567 
L 113.55961 251.015567 
L 113.664983 248.908822 
L 114.250364 248.908822 
L 114.351658 246.275392 
L 114.849483 246.275392 
L 114.947365 244.695334 
L 115.10929 244.695334 
L 115.10929 244.168648 
L 115.237757 244.168648 
L 115.301637 242.588589 
L 115.773423 242.588589 
L 115.773423 242.061903 
L 116.293125 242.061903 
L 116.35326 241.008531 
L 116.914437 241.008531 
L 116.972471 239.955159 
L 117.792962 239.955159 
L 117.792962 239.428473 
L 117.958004 239.428473 
L 117.958004 237.321729 
L 118.202674 237.321729 
L 118.283474 235.74167 
L 118.390628 235.74167 
L 118.470564 234.161612 
L 118.708196 234.161612 
L 118.708196 233.634926 
L 118.942633 233.634926 
L 118.942633 233.10824 
L 119.148409 233.10824 
L 119.148409 232.581554 
L 119.427443 232.581554 
L 119.502775 231.001496 
L 120.142369 231.001496 
L 120.166507 229.421437 
L 120.262724 229.421437 
L 120.358413 226.261321 
L 120.689249 226.261321 
L 120.712642 224.681263 
L 120.990934 224.681263 
L 120.990934 224.154577 
L 121.196777 224.154577 
L 121.287489 223.101204 
L 121.332668 223.101204 
L 121.422678 222.047832 
L 121.734102 222.047832 
L 121.800118 220.99446 
L 122.126502 220.99446 
L 122.126502 219.414402 
L 122.573415 219.414402 
L 122.657258 217.307658 
L 122.823744 217.307658 
L 122.906394 216.254285 
L 122.947573 216.254285 
L 123.029641 214.147541 
L 123.152022 214.147541 
L 123.152022 213.094169 
L 123.849288 213.094169 
L 123.849288 212.567483 
L 124.311793 212.567483 
L 124.311793 212.040797 
L 124.463275 212.040797 
L 124.557288 210.987425 
L 124.68806 210.987425 
L 124.725244 207.300622 
L 125.038147 207.300622 
L 125.147256 206.24725 
L 125.219619 206.24725 
L 125.255688 204.667192 
L 125.381344 204.667192 
L 125.488334 203.613819 
L 125.594671 203.613819 
L 125.594671 203.087133 
L 125.840299 203.087133 
L 125.840299 200.980389 
L 126.372183 200.980389 
L 126.372183 200.453703 
L 126.657117 200.453703 
L 126.756581 199.400331 
L 126.937471 199.400331 
L 127.035353 196.7669 
L 127.341738 196.7669 
L 127.40556 195.713528 
L 127.48501 195.713528 
L 127.5641 192.553412 
L 127.76807 192.553412 
L 127.76807 192.026726 
L 128.000494 192.026726 
L 128.000494 190.973354 
L 128.138476 190.973354 
L 128.245045 187.813237 
L 128.275374 187.813237 
L 128.335875 185.706493 
L 128.486215 185.706493 
L 128.486215 184.653121 
L 128.738855 184.653121 
L 128.827155 183.073062 
L 128.973336 183.073062 
L 128.973336 182.546376 
L 129.304973 182.546376 
L 129.304973 182.01969 
L 129.51791 182.01969 
L 129.560187 180.966318 
L 129.825588 180.966318 
L 129.825588 179.912946 
L 130.032298 179.912946 
L 130.100661 178.332888 
L 130.250122 178.332888 
L 130.358022 175.172771 
L 130.438511 175.172771 
L 130.51863 173.592713 
L 130.61164 173.592713 
L 130.61164 173.066027 
L 130.835477 173.066027 
L 130.900768 170.432596 
L 130.965816 170.432596 
L 131.043554 169.379224 
L 131.108073 169.379224 
L 131.185181 167.799166 
L 131.26195 167.799166 
L 131.26195 167.27248 
L 131.401821 167.27248 
L 131.502845 163.585677 
L 131.553138 163.585677 
L 131.615802 162.005619 
L 131.703155 162.005619 
L 131.703155 161.478933 
L 131.876558 161.478933 
L 131.974877 158.845503 
L 132.230358 158.845503 
L 132.230358 158.318817 
L 132.410579 158.318817 
L 132.505941 157.265444 
L 132.541568 157.265444 
L 132.541568 156.738758 
L 132.730358 156.738758 
L 132.777237 154.105328 
L 132.928732 154.105328 
L 132.928732 153.578642 
L 133.113399 153.578642 
L 133.113399 153.051956 
L 133.33018 153.051956 
L 133.375477 151.471897 
L 133.57787 151.471897 
L 133.678192 149.365153 
L 133.733678 149.365153 
L 133.766885 145.678351 
L 134.008491 145.678351 
L 134.117215 143.04492 
L 134.12805 143.04492 
L 134.171324 141.991548 
L 134.246796 141.991548 
L 134.279041 140.938176 
L 134.386096 140.938176 
L 134.386096 140.41149 
L 134.566596 140.41149 
L 134.577155 139.358118 
L 134.818279 139.358118 
L 134.818279 138.831432 
L 134.932432 138.831432 
L 135.035562 135.671315 
L 135.189123 135.671315 
L 135.270472 133.564571 
L 135.321124 133.564571 
L 135.401861 131.984513 
L 135.46217 131.984513 
L 135.46217 131.457826 
L 135.612036 131.457826 
L 135.701341 129.877768 
L 135.740886 129.877768 
L 135.839358 127.771024 
L 135.907958 127.771024 
L 135.995765 123.030849 
L 136.20856 123.030849 
L 136.2853 121.977477 
L 136.323544 121.977477 
L 136.39027 119.870733 
L 136.645276 119.870733 
L 136.738785 115.657244 
L 136.831795 115.657244 
L 136.831795 115.130558 
L 136.979586 115.130558 
L 137.043853 114.077186 
L 137.244307 114.077186 
L 137.244307 113.5505 
L 137.39764 113.5505 
L 137.469333 111.970441 
L 137.52291 111.970441 
L 137.620709 109.337011 
L 137.76199 109.337011 
L 137.867204 108.283639 
L 137.910857 108.283639 
L 137.997836 106.703581 
L 138.118883 106.703581 
L 138.221972 105.650209 
L 138.281828 105.650209 
L 138.366981 100.910034 
L 138.510793 100.910034 
L 138.578062 99.856662 
L 138.636709 99.856662 
L 138.720151 97.223231 
L 138.761723 97.223231 
L 138.869347 96.169859 
L 138.89409 96.169859 
L 138.935249 94.589801 
L 139.074469 94.589801 
L 139.098923 92.483056 
L 139.212587 92.483056 
L 139.269142 91.429684 
L 139.381706 91.429684 
L 139.413734 89.32294 
L 139.493548 89.32294 
L 139.596763 87.216196 
L 139.612588 87.216196 
L 139.691499 86.162824 
L 139.746525 86.162824 
L 139.754371 85.109451 
L 140.011351 85.109451 
L 140.042245 83.002707 
L 140.149942 83.002707 
L 140.211187 80.895963 
L 140.2646 80.895963 
L 140.2646 77.735846 
L 140.393639 77.735846 
L 140.484155 76.155788 
L 140.506711 76.155788 
L 140.589166 75.102416 
L 140.64889 75.102416 
L 140.700981 72.995672 
L 140.834218 72.995672 
L 140.937149 70.888927 
L 140.959126 70.888927 
L 141.061324 68.782183 
L 141.083146 68.782183 
L 141.141205 67.202125 
L 141.227931 67.202125 
L 141.292695 64.042008 
L 141.350061 64.042008 
L 141.457116 60.881892 
L 141.46423 60.881892 
L 141.46423 59.82852 
L 141.584721 59.82852 
L 141.676303 58.248461 
L 141.732423 58.248461 
L 141.767407 56.141717 
L 142.037896 56.141717 
L 142.113436 52.9816 
L 142.256745 52.9816 
L 142.358392 51.401542 
L 142.432559 51.401542 
L 142.44601 50.34817 
L 142.546564 50.34817 
L 142.619936 48.241426 
L 142.686372 48.241426 
L 142.745948 46.661368 
L 142.811906 46.661368 
L 142.916923 45.081309 
L 142.936543 45.081309 
L 143.04731 41.921193 
L 143.157379 41.921193 
L 143.260342 39.814448 
L 143.285988 39.814448 
L 143.311596 37.707704 
L 143.432725 37.707704 
L 143.534079 35.60096 
L 143.546707 35.60096 
L 143.653678 34.020902 
L 143.703791 34.020902 
L 143.703791 33.494215 
L 143.834656 33.494215 
L 143.927534 32.440843 
L 143.995331 32.440843 
L 143.995331 31.914157 
L 144.191074 31.914157 
L 144.191074 31.387471 
L 144.426702 31.387471 
L 144.426702 30.860785 
L 144.712404 30.860785 
L 144.712404 30.334099 
L 338.688 30.334099 
L 338.688 30.334099 
" style="fill:none;stroke:#000080;stroke-linecap:square;stroke-width:1.5;"/>
   </g>
   <g id="line2d_36">
    <defs>
     <path d="M 0 6 
C 1.591219 6 3.117479 5.367802 4.242641 4.242641 
C 5.367802 3.117479 6 1.591219 6 0 
C 6 -1.591219 5.367802 -3.117479 4.242641 -4.242641 
C 3.117479 -5.367802 1.591219 -6 0 -6 
C -1.591219 -6 -3.117479 -5.367802 -4.242641 -4.242641 
C -5.367802 -3.117479 -6 -1.591219 -6 0 
C -6 1.591219 -5.367802 3.117479 -4.242641 4.242641 
C -3.117479 5.367802 -1.591219 6 0 6 
z
" id="m9d3ed63c07" style="stroke:#000080;stroke-width:1.5;"/>
    </defs>
    <g>
     <use style="fill-opacity:0;stroke:#000080;stroke-width:1.5;" x="117.792962" xlink:href="#m9d3ed63c07" y="239.428473"/>
     <use style="fill-opacity:0;stroke:#000080;stroke-width:1.5;" x="138.307417" xlink:href="#m9d3ed63c07" y="103.016778"/>
     <use style="fill-opacity:0;stroke:#000080;stroke-width:1.5;" x="144.712404" xlink:href="#m9d3ed63c07" y="30.860785"/>
     <use style="fill-opacity:0;stroke:#000080;stroke-width:1.5;" x="144.712404" xlink:href="#m9d3ed63c07" y="30.334099"/>
     <use style="fill-opacity:0;stroke:#000080;stroke-width:1.5;" x="144.712404" xlink:href="#m9d3ed63c07" y="30.334099"/>
     <use style="fill-opacity:0;stroke:#000080;stroke-width:1.5;" x="338.688" xlink:href="#m9d3ed63c07" y="30.334099"/>
    </g>
   </g>
   <g id="line2d_37">
    <path style="fill:none;stroke:#000080;stroke-linecap:square;stroke-width:1.5;"/>
    <g/>
   </g>
   <g id="line2d_38">
    <defs>
     <path d="M 0 1.5 
C 0.397805 1.5 0.77937 1.341951 1.06066 1.06066 
C 1.341951 0.77937 1.5 0.397805 1.5 0 
C 1.5 -0.397805 1.341951 -0.77937 1.06066 -1.06066 
C 0.77937 -1.341951 0.397805 -1.5 0 -1.5 
C -0.397805 -1.5 -0.77937 -1.341951 -1.06066 -1.06066 
C -1.341951 -0.77937 -1.5 -0.397805 -1.5 0 
C -1.5 0.397805 -1.341951 0.77937 -1.06066 1.06066 
C -0.77937 1.341951 -0.397805 1.5 0 1.5 
z
" id="mf394a40686" style="stroke:#ff00ff;"/>
    </defs>
    <g>
     <use style="fill:#ff00ff;stroke:#ff00ff;" x="228.470547" xlink:href="#mf394a40686" y="135.671315"/>
     <use style="fill:#ff00ff;stroke:#ff00ff;" x="228.470547" xlink:href="#mf394a40686" y="135.671315"/>
    </g>
   </g>
   <g id="line2d_39">
    <path d="M 45.512012 298.944 
L 45.512012 298.417314 
L 76.465904 298.417314 
L 76.465904 297.890628 
L 94.818328 297.890628 
L 94.818328 297.363942 
L 95.125186 297.363942 
L 95.125186 296.837256 
L 95.526106 296.837256 
L 95.526106 296.31057 
L 96.86091 296.31057 
L 96.952455 295.257197 
L 97.403108 295.257197 
L 97.403108 294.730511 
L 98.270913 294.730511 
L 98.270913 294.203825 
L 98.853664 294.203825 
L 98.853664 293.677139 
L 101.646892 293.677139 
L 101.646892 293.150453 
L 103.560868 293.150453 
L 103.560868 292.623767 
L 105.285403 292.623767 
L 105.285403 292.097081 
L 105.732589 292.097081 
L 105.732589 291.570395 
L 106.593963 291.570395 
L 106.646412 290.517023 
L 106.854645 290.517023 
L 106.854645 289.990337 
L 108.436627 289.990337 
L 108.436627 289.463651 
L 109.086037 289.463651 
L 109.086037 288.936964 
L 109.267226 288.936964 
L 109.267226 288.410278 
L 110.016944 288.410278 
L 110.060057 287.356906 
L 110.401178 287.356906 
L 110.401178 286.83022 
L 111.819788 286.83022 
L 111.819788 286.303534 
L 112.58145 286.303534 
L 112.58145 285.776848 
L 113.524343 285.776848 
L 113.594805 284.723476 
L 114.250364 284.723476 
L 114.250364 284.19679 
L 114.914798 284.19679 
L 114.914798 283.670104 
L 115.0447 283.670104 
L 115.10929 282.616732 
L 115.927891 282.616732 
L 115.927891 282.090045 
L 116.262979 282.090045 
L 116.35326 281.036673 
L 116.413189 281.036673 
L 116.413189 280.509987 
L 117.458117 280.509987 
L 117.458117 279.983301 
L 117.737599 279.983301 
L 117.737599 279.456615 
L 118.734401 279.456615 
L 118.734401 278.929929 
L 118.994305 278.929929 
L 118.994305 278.403243 
L 119.122819 278.403243 
L 119.122819 277.876557 
L 120.069756 277.876557 
L 120.093994 276.823185 
L 120.262724 276.823185 
L 120.262724 276.296499 
L 120.571812 276.296499 
L 120.571812 275.769812 
L 120.829137 275.769812 
L 120.829137 275.243126 
L 121.287489 275.243126 
L 121.287489 274.71644 
L 121.667835 274.71644 
L 121.667835 274.189754 
L 121.953191 274.189754 
L 122.018385 273.136382 
L 122.083336 273.136382 
L 122.083336 272.609696 
L 122.657258 272.609696 
L 122.657258 272.08301 
L 122.885768 272.08301 
L 122.885768 271.556324 
L 123.111324 271.556324 
L 123.111324 271.029638 
L 123.553867 271.029638 
L 123.553867 270.502952 
L 124.519744 270.502952 
L 124.594752 269.449579 
L 124.92835 269.449579 
L 124.92835 268.922893 
L 125.770472 268.922893 
L 125.822869 267.342835 
L 126.270496 267.342835 
L 126.270496 266.816149 
L 126.640485 266.816149 
L 126.640485 265.762777 
L 127.067859 265.762777 
L 127.067859 265.236091 
L 127.736845 265.236091 
L 127.736845 264.709405 
L 128.426234 264.709405 
L 128.471239 263.129347 
L 128.768338 263.129347 
L 128.768338 262.60266 
L 128.885774 262.60266 
L 128.885774 262.075974 
L 129.06046 262.075974 
L 129.06046 261.549288 
L 129.175952 261.549288 
L 129.175952 261.022602 
L 129.532014 261.022602 
L 129.532014 260.495916 
L 129.78395 260.495916 
L 129.867126 259.442544 
L 130.571839 259.442544 
L 130.638123 258.389172 
L 130.848555 258.389172 
L 130.952826 257.3358 
L 131.133813 257.3358 
L 131.223607 256.282427 
L 131.465029 256.282427 
L 131.465029 255.755741 
L 131.640805 255.755741 
L 131.703155 254.702369 
L 131.913493 254.702369 
L 131.913493 254.175683 
L 132.133473 254.175683 
L 132.133473 253.648997 
L 132.326708 253.648997 
L 132.386657 252.595625 
L 132.577122 252.595625 
L 132.577122 252.068939 
L 132.905511 252.068939 
L 132.905511 251.542253 
L 133.170708 251.542253 
L 133.170708 250.488881 
L 133.844123 250.488881 
L 133.844123 249.962195 
L 134.160516 249.962195 
L 134.160516 249.435508 
L 134.343353 249.435508 
L 134.418085 248.382136 
L 134.61933 248.382136 
L 134.661403 247.328764 
L 134.870259 247.328764 
L 134.870259 246.802078 
L 135.004687 246.802078 
L 135.004687 246.275392 
L 135.199312 246.275392 
L 135.25017 244.695334 
L 135.401861 244.695334 
L 135.50226 243.641962 
L 135.621981 243.641962 
L 135.621981 243.115275 
L 135.858985 243.115275 
L 135.858985 242.588589 
L 136.015217 242.588589 
L 136.063754 241.535217 
L 136.275726 241.535217 
L 136.275726 241.008531 
L 136.664018 241.008531 
L 136.664018 240.481845 
L 137.025515 240.481845 
L 137.025515 239.955159 
L 137.208032 239.955159 
L 137.208032 239.428473 
L 137.361683 239.428473 
L 137.433523 238.375101 
L 137.505069 238.375101 
L 137.558536 237.321729 
L 137.76199 237.321729 
L 137.814676 236.268356 
L 137.919575 236.268356 
L 137.919575 235.74167 
L 138.885846 235.74167 
L 138.99271 234.161612 
L 139.009092 234.161612 
L 139.107066 232.581554 
L 139.517421 232.581554 
L 139.541262 231.528182 
L 139.980403 231.528182 
L 139.980403 231.001496 
L 140.27983 231.001496 
L 140.27983 230.47481 
L 140.678675 230.47481 
L 140.752916 229.421437 
L 140.789919 229.421437 
L 140.84896 228.368065 
L 141.170161 228.368065 
L 141.170161 227.841379 
L 141.577657 227.841379 
L 141.577657 226.788007 
L 141.871938 226.788007 
L 141.89277 225.734635 
L 142.044777 225.734635 
L 142.044777 225.207949 
L 142.174998 225.207949 
L 142.26354 224.154577 
L 142.579953 224.154577 
L 142.639893 223.101204 
L 143.066785 223.101204 
L 143.066785 222.574518 
L 143.2025 222.574518 
L 143.2025 222.047832 
L 143.324386 222.047832 
L 143.369078 220.467774 
L 143.571936 220.467774 
L 143.571936 219.941088 
L 144.203235 219.941088 
L 144.312307 218.887716 
L 144.444697 218.887716 
L 144.456682 217.834344 
L 144.570138 217.834344 
L 144.570138 217.307658 
L 145.051495 217.307658 
L 145.051495 216.780971 
L 145.224334 216.780971 
L 145.224334 216.254285 
L 145.378437 216.254285 
L 145.389799 215.200913 
L 145.632289 215.200913 
L 145.632289 214.674227 
L 145.777292 214.674227 
L 145.777292 214.147541 
L 145.981585 214.147541 
L 146.014489 212.567483 
L 146.345539 212.567483 
L 146.367029 211.514111 
L 146.47942 211.514111 
L 146.548634 210.460738 
L 146.854132 210.460738 
L 146.854132 209.934052 
L 147.113265 209.934052 
L 147.113265 209.407366 
L 147.424279 209.407366 
L 147.434383 208.353994 
L 147.640233 208.353994 
L 147.650212 207.300622 
L 147.833811 207.300622 
L 147.863403 206.24725 
L 148.262868 206.24725 
L 148.262868 205.720564 
L 148.430623 205.720564 
L 148.430623 205.193878 
L 148.601505 205.193878 
L 148.601505 204.667192 
L 148.82211 204.667192 
L 148.868689 203.087133 
L 149.218684 203.087133 
L 149.305096 202.033761 
L 149.345879 202.033761 
L 149.345879 201.507075 
L 149.646525 201.507075 
L 149.646525 200.980389 
L 150.090162 200.980389 
L 150.090162 200.453703 
L 150.399667 200.453703 
L 150.399667 199.927017 
L 150.649257 199.927017 
L 150.695399 198.873645 
L 151.207263 198.873645 
L 151.223527 197.820273 
L 152.257093 197.820273 
L 152.257093 197.293586 
L 152.774102 197.293586 
L 152.848312 196.240214 
L 153.138392 196.240214 
L 153.160227 195.186842 
L 153.59484 195.186842 
L 153.59484 194.660156 
L 153.764292 194.660156 
L 153.764292 194.13347 
L 160.074152 194.13347 
L 160.110812 192.553412 
L 160.232459 192.553412 
L 160.232459 192.026726 
L 160.37492 192.026726 
L 160.37492 191.50004 
L 160.535299 191.50004 
L 160.630349 189.393295 
L 160.684769 189.393295 
L 160.684769 188.866609 
L 160.886762 188.866609 
L 160.991531 187.813237 
L 161.000813 187.813237 
L 161.000813 187.286551 
L 161.210663 187.286551 
L 161.210663 186.759865 
L 161.393084 186.759865 
L 161.483584 185.706493 
L 161.798902 185.706493 
L 161.891735 184.126434 
L 162.152109 184.126434 
L 162.178151 183.073062 
L 162.33359 183.073062 
L 162.33359 182.546376 
L 162.619242 182.546376 
L 162.619242 182.01969 
L 163.047387 182.01969 
L 163.047387 181.493004 
L 163.223916 181.493004 
L 163.223916 180.966318 
L 163.390587 180.966318 
L 163.461244 179.38626 
L 163.533623 179.38626 
L 163.627668 177.279515 
L 163.798448 177.279515 
L 163.853692 176.226143 
L 164.18153 176.226143 
L 164.272154 174.119399 
L 164.320167 174.119399 
L 164.320167 173.592713 
L 164.432956 173.592713 
L 164.432956 173.066027 
L 164.67893 173.066027 
L 164.695832 172.012655 
L 165.017568 172.012655 
L 165.017568 171.485969 
L 165.831189 171.485969 
L 165.831189 170.959282 
L 170.883296 170.959282 
L 170.883296 170.432596 
L 171.367517 170.432596 
L 171.412271 169.379224 
L 171.633072 169.379224 
L 171.650717 167.799166 
L 171.768729 167.799166 
L 171.768729 167.27248 
L 171.961595 167.27248 
L 171.961595 166.745794 
L 172.193917 166.745794 
L 172.193917 166.219108 
L 172.386994 166.219108 
L 172.386994 165.692422 
L 172.672065 165.692422 
L 172.708856 164.63905 
L 172.802263 164.63905 
L 172.802263 164.112363 
L 176.077075 164.112363 
L 176.142433 163.058991 
L 176.380324 163.058991 
L 176.405278 162.005619 
L 177.098184 162.005619 
L 177.098184 161.478933 
L 177.25692 161.478933 
L 177.25692 160.952247 
L 177.436839 160.952247 
L 177.436839 160.425561 
L 177.592536 160.425561 
L 177.672096 159.372189 
L 177.784115 159.372189 
L 177.784115 158.845503 
L 178.034867 158.845503 
L 178.034867 158.318817 
L 180.759545 158.318817 
L 180.759545 157.265444 
L 181.062496 157.265444 
L 181.062496 156.738758 
L 181.187615 156.738758 
L 181.187615 156.212072 
L 181.313289 156.212072 
L 181.355943 155.1587 
L 181.452432 155.1587 
L 181.452432 154.632014 
L 181.626058 154.632014 
L 181.643113 153.051956 
L 181.754271 153.051956 
L 181.754271 152.52527 
L 181.932618 152.52527 
L 181.932618 151.998584 
L 184.031631 151.998584 
L 184.031631 151.471897 
L 184.457463 151.471897 
L 184.457463 150.945211 
L 184.822907 150.945211 
L 184.861337 149.891839 
L 185.017728 149.891839 
L 185.116366 147.785095 
L 187.244498 147.785095 
L 187.244498 147.258409 
L 187.367697 147.258409 
L 187.466651 146.205037 
L 190.013759 146.205037 
L 190.013759 145.678351 
L 192.024833 145.678351 
L 192.095575 144.624978 
L 192.194369 144.624978 
L 192.194369 144.098292 
L 193.795263 144.098292 
L 193.857779 142.518234 
L 195.681223 142.518234 
L 195.69646 141.464862 
L 197.087856 141.464862 
L 197.087856 140.938176 
L 199.795833 140.938176 
L 199.892632 139.884804 
L 202.234413 139.884804 
L 202.234413 139.358118 
L 204.255381 139.358118 
L 204.255381 138.831432 
L 206.127447 138.831432 
L 206.127447 138.304745 
L 206.931195 138.304745 
L 206.931195 137.778059 
L 210.013466 137.778059 
L 210.013466 137.251373 
L 216.356183 137.251373 
L 216.356183 136.724687 
L 223.436581 136.724687 
L 223.436581 136.198001 
L 228.470547 136.198001 
L 228.470547 135.671315 
L 338.688 135.671315 
L 338.688 135.671315 
" style="fill:none;stroke:#ff00ff;stroke-linecap:square;stroke-width:1.5;"/>
   </g>
   <g id="line2d_40">
    <defs>
     <path d="M -0 8.485281 
L 5.091169 0 
L 0 -8.485281 
L -5.091169 -0 
z
" id="m9bfd9159d3" style="stroke:#ff00ff;stroke-linejoin:miter;stroke-width:1.5;"/>
    </defs>
    <g>
     <use style="fill-opacity:0;stroke:#ff00ff;stroke-linejoin:miter;stroke-width:1.5;" x="139.541262" xlink:href="#m9bfd9159d3" y="231.528182"/>
     <use style="fill-opacity:0;stroke:#ff00ff;stroke-linejoin:miter;stroke-width:1.5;" x="165.017568" xlink:href="#m9bfd9159d3" y="171.485969"/>
     <use style="fill-opacity:0;stroke:#ff00ff;stroke-linejoin:miter;stroke-width:1.5;" x="228.470547" xlink:href="#m9bfd9159d3" y="136.198001"/>
     <use style="fill-opacity:0;stroke:#ff00ff;stroke-linejoin:miter;stroke-width:1.5;" x="228.470547" xlink:href="#m9bfd9159d3" y="135.671315"/>
     <use style="fill-opacity:0;stroke:#ff00ff;stroke-linejoin:miter;stroke-width:1.5;" x="228.470547" xlink:href="#m9bfd9159d3" y="135.671315"/>
     <use style="fill-opacity:0;stroke:#ff00ff;stroke-linejoin:miter;stroke-width:1.5;" x="338.688" xlink:href="#m9bfd9159d3" y="135.671315"/>
    </g>
   </g>
   <g id="line2d_41">
    <path style="fill:none;stroke:#ff00ff;stroke-linecap:square;stroke-width:1.5;"/>
    <g/>
   </g>
   <g id="line2d_42">
    <path clip-path="url(#p2048326cd2)" d="M 153.890309 194.13347 
" style="fill:none;stroke:#ff00ff;stroke-linecap:square;stroke-width:1.5;"/>
    <defs>
     <path d="M -12 12 
L 12 -12 
M -12 -12 
L 12 12 
" id="ma1d05b816e" style="stroke:#ff00ff;"/>
    </defs>
    <g clip-path="url(#p2048326cd2)">
     <use style="fill:#ff00ff;stroke:#ff00ff;" x="153.890309" xlink:href="#ma1d05b816e" y="194.13347"/>
    </g>
   </g>
   <g id="line2d_43">
    <defs>
     <path d="M 0 1.5 
C 0.397805 1.5 0.77937 1.341951 1.06066 1.06066 
C 1.341951 0.77937 1.5 0.397805 1.5 0 
C 1.5 -0.397805 1.341951 -0.77937 1.06066 -1.06066 
C 0.77937 -1.341951 0.397805 -1.5 0 -1.5 
C -0.397805 -1.5 -0.77937 -1.341951 -1.06066 -1.06066 
C -1.341951 -0.77937 -1.5 -0.397805 -1.5 0 
C -1.5 0.397805 -1.341951 0.77937 -1.06066 1.06066 
C -0.77937 1.341951 -0.397805 1.5 0 1.5 
z
" id="mde3cfc867b" style="stroke:#ff7500;"/>
    </defs>
    <g>
     <use style="fill:#ff7500;stroke:#ff7500;" x="224.699411" xlink:href="#mde3cfc867b" y="162.005619"/>
     <use style="fill:#ff7500;stroke:#ff7500;" x="224.699411" xlink:href="#mde3cfc867b" y="162.005619"/>
    </g>
   </g>
   <g id="line2d_44">
    <path d="M 24.515591 298.944 
L 24.515591 298.417314 
L 77.884514 298.417314 
L 77.884514 297.890628 
L 89.277618 297.890628 
L 89.277618 296.837256 
L 89.418828 296.837256 
L 89.418828 295.783884 
L 89.558903 295.783884 
L 89.558903 295.257197 
L 91.157513 295.257197 
L 91.157513 294.730511 
L 95.624913 294.730511 
L 95.624913 294.203825 
L 98.606294 294.203825 
L 98.606294 293.677139 
L 100.418775 293.677139 
L 100.418775 293.150453 
L 101.646892 293.150453 
L 101.646892 292.623767 
L 101.785851 292.623767 
L 101.785851 292.097081 
L 102.196206 292.097081 
L 102.196206 291.570395 
L 102.397818 291.570395 
L 102.464508 290.517023 
L 103.685435 290.517023 
L 103.685435 289.990337 
L 103.809118 289.990337 
L 103.870632 288.936964 
L 105.341933 288.936964 
L 105.341933 288.410278 
L 108.389302 288.410278 
L 108.389302 287.883592 
L 108.530893 287.883592 
L 108.530893 287.356906 
L 108.717912 287.356906 
L 108.717912 286.83022 
L 109.535528 286.83022 
L 109.535528 286.303534 
L 109.973724 286.303534 
L 109.973724 285.776848 
L 111.426108 285.776848 
L 111.426108 285.250162 
L 111.974805 285.250162 
L 112.013345 284.19679 
L 112.318635 284.19679 
L 112.318635 283.670104 
L 112.506763 283.670104 
L 112.506763 283.143418 
L 112.655818 283.143418 
L 112.655818 282.616732 
L 113.55961 282.616732 
L 113.55961 282.090045 
L 114.385292 282.090045 
L 114.385292 281.563359 
L 114.519183 281.563359 
L 114.552496 280.509987 
L 114.652055 280.509987 
L 114.652055 279.983301 
L 115.460322 279.983301 
L 115.460322 279.456615 
L 116.943478 279.456615 
L 116.943478 278.929929 
L 117.059162 278.929929 
L 117.059162 278.403243 
L 117.231262 278.403243 
L 117.231262 277.876557 
L 117.40168 277.876557 
L 117.40168 277.349871 
L 118.786692 277.349871 
L 118.786692 276.823185 
L 119.173961 276.823185 
L 119.250393 275.769812 
L 119.301163 275.769812 
L 119.377041 274.189754 
L 119.602714 274.189754 
L 119.602714 273.663068 
L 119.80089 273.663068 
L 119.80089 273.136382 
L 121.310093 273.136382 
L 121.400219 272.08301 
L 121.579085 272.08301 
L 121.579085 271.029638 
L 121.734102 271.029638 
L 121.734102 270.502952 
L 122.968126 270.502952 
L 122.968126 269.976266 
L 123.131685 269.976266 
L 123.131685 269.449579 
L 124.519744 269.449579 
L 124.538526 268.396207 
L 124.983335 268.396207 
L 124.983335 267.869521 
L 125.944518 267.869521 
L 125.944518 267.342835 
L 126.065325 267.342835 
L 126.151107 265.236091 
L 126.25349 265.236091 
L 126.25349 264.709405 
L 128.199452 264.709405 
L 128.199452 264.182719 
L 128.441249 264.182719 
L 128.531065 263.129347 
L 128.753602 263.129347 
L 128.812469 262.075974 
L 128.871138 262.075974 
L 128.871138 261.549288 
L 129.002426 261.549288 
L 129.002426 261.022602 
L 129.147151 261.022602 
L 129.147151 260.495916 
L 129.404667 260.495916 
L 129.404667 259.96923 
L 129.616397 259.96923 
L 129.616397 259.442544 
L 129.728278 259.442544 
L 129.728278 258.915858 
L 129.936138 258.915858 
L 129.936138 258.389172 
L 130.952826 258.389172 
L 130.952826 257.3358 
L 131.338382 257.3358 
L 131.338382 256.809114 
L 131.814826 256.809114 
L 131.864229 255.755741 
L 132.011604 255.755741 
L 132.011604 255.229055 
L 132.695115 255.229055 
L 132.695115 254.702369 
L 132.847322 254.702369 
L 132.847322 254.175683 
L 132.986651 254.175683 
L 133.090422 253.122311 
L 134.481887 253.122311 
L 134.534878 251.015567 
L 135.199312 251.015567 
L 135.199312 250.488881 
L 136.005494 250.488881 
L 136.005494 249.962195 
L 136.218171 249.962195 
L 136.2853 248.908822 
L 136.841068 248.908822 
L 136.841068 247.85545 
L 137.144368 247.85545 
L 137.144368 247.328764 
L 137.325651 247.328764 
L 137.325651 246.802078 
L 138.136107 246.802078 
L 138.170504 245.748706 
L 138.341479 245.748706 
L 138.434805 244.168648 
L 138.502366 244.168648 
L 138.502366 243.641962 
L 138.753416 243.641962 
L 138.753416 243.115275 
L 139.785723 243.115275 
L 139.87165 242.061903 
L 140.011351 242.061903 
L 140.011351 241.535217 
L 140.149942 241.535217 
L 140.149942 241.008531 
L 140.656341 241.008531 
L 140.656341 240.481845 
L 140.856326 240.481845 
L 140.915143 239.428473 
L 141.278324 239.428473 
L 141.278324 238.901787 
L 141.400102 238.901787 
L 141.400102 238.375101 
L 141.711399 238.375101 
L 141.711399 237.848415 
L 142.031013 237.848415 
L 142.120287 236.268356 
L 142.586623 236.268356 
L 142.586623 235.74167 
L 142.943078 235.74167 
L 142.943078 235.214984 
L 143.131543 235.214984 
L 143.131543 234.688298 
L 143.565632 234.688298 
L 143.65995 233.634926 
L 143.735038 233.634926 
L 143.75376 232.581554 
L 143.915178 232.581554 
L 143.915178 232.054868 
L 144.40869 232.054868 
L 144.40869 231.528182 
L 144.599873 231.528182 
L 144.647343 230.47481 
L 144.747789 230.47481 
L 144.747789 229.421437 
L 145.02832 229.421437 
L 145.091978 227.841379 
L 145.581813 227.841379 
L 145.581813 227.314693 
L 145.777292 227.314693 
L 145.777292 226.788007 
L 146.329404 226.788007 
L 146.40993 225.207949 
L 146.516724 225.207949 
L 146.516724 224.681263 
L 146.786123 224.681263 
L 146.885432 223.627891 
L 147.215849 223.627891 
L 147.322917 222.574518 
L 147.419225 222.574518 
L 147.419225 222.047832 
L 147.535101 222.047832 
L 147.615259 220.467774 
L 147.704998 220.467774 
L 147.704998 219.941088 
L 147.86833 219.941088 
L 147.95678 218.887716 
L 148.137196 218.887716 
L 148.200145 217.834344 
L 148.516274 217.834344 
L 148.558941 216.254285 
L 148.752007 216.254285 
L 148.850072 213.620855 
L 149.163886 213.620855 
L 149.236911 212.040797 
L 149.386567 212.040797 
L 149.386567 211.514111 
L 149.512548 211.514111 
L 149.566262 210.460738 
L 149.83238 210.460738 
L 149.849978 209.407366 
L 150.18963 209.407366 
L 150.18963 208.88068 
L 150.361278 208.88068 
L 150.361278 208.353994 
L 150.602994 208.353994 
L 150.602994 207.827308 
L 150.82478 207.827308 
L 150.878752 205.193878 
L 151.190983 205.193878 
L 151.195055 204.140506 
L 151.413504 204.140506 
L 151.52171 202.560447 
L 151.537684 202.560447 
L 151.60541 200.980389 
L 151.700576 200.980389 
L 151.759793 199.927017 
L 151.826663 199.927017 
L 151.869796 197.820273 
L 151.975216 197.820273 
L 151.986891 196.7669 
L 152.203386 196.7669 
L 152.310635 194.660156 
L 152.31827 194.660156 
L 152.31827 194.13347 
L 152.443774 194.13347 
L 152.443774 193.606784 
L 152.800111 193.606784 
L 152.866815 192.553412 
L 152.962716 192.553412 
L 153.054435 191.50004 
L 153.094638 191.50004 
L 153.094638 190.973354 
L 153.214697 190.973354 
L 153.214697 190.446667 
L 153.330332 190.446667 
L 153.366312 188.339923 
L 153.767805 188.339923 
L 153.767805 187.813237 
L 159.308951 187.813237 
L 159.308951 187.286551 
L 159.882266 187.286551 
L 159.939068 186.233179 
L 160.309871 186.233179 
L 160.309871 185.706493 
L 161.023997 185.706493 
L 161.023997 185.179807 
L 161.636364 185.179807 
L 161.636364 184.653121 
L 161.962134 184.653121 
L 161.962134 184.126434 
L 162.634036 184.126434 
L 162.634036 183.599748 
L 163.15844 183.599748 
L 163.15844 183.073062 
L 163.507521 183.073062 
L 163.507521 182.546376 
L 163.926426 182.546376 
L 163.926426 182.01969 
L 164.067097 182.01969 
L 164.067097 181.493004 
L 164.680809 181.493004 
L 164.680809 180.966318 
L 164.83418 180.966318 
L 164.917777 179.38626 
L 165.122286 179.38626 
L 165.155225 177.806202 
L 165.583216 177.806202 
L 165.643763 176.226143 
L 165.702328 176.226143 
L 165.718267 175.172771 
L 165.868082 175.172771 
L 165.917153 174.119399 
L 169.525979 174.119399 
L 169.525979 173.592713 
L 171.286669 173.592713 
L 171.286669 173.066027 
L 172.779844 173.066027 
L 172.879917 170.432596 
L 172.975918 170.432596 
L 173.008578 168.852538 
L 181.856307 168.852538 
L 181.913746 167.799166 
L 185.100645 167.799166 
L 185.100645 167.27248 
L 187.730654 167.27248 
L 187.730654 166.745794 
L 190.07124 166.745794 
L 190.07124 166.219108 
L 192.152042 166.219108 
L 192.152042 165.692422 
L 194.033526 165.692422 
L 194.033526 165.165736 
L 197.215118 165.165736 
L 197.215118 164.63905 
L 204.289531 164.63905 
L 204.289531 164.112363 
L 206.10056 164.112363 
L 206.10056 163.585677 
L 206.978777 163.585677 
L 206.978777 163.058991 
L 207.790317 163.058991 
L 207.790317 162.532305 
L 224.699411 162.532305 
L 224.699411 162.005619 
L 338.688 162.005619 
L 338.688 162.005619 
" style="fill:none;stroke:#ff7500;stroke-linecap:square;stroke-width:1.5;"/>
   </g>
   <g id="line2d_45">
    <defs>
     <path d="M 0 -6 
L -1.347084 -1.854102 
L -5.706339 -1.854102 
L -2.179628 0.708204 
L -3.526712 4.854102 
L -0 2.291796 
L 3.526712 4.854102 
L 2.179628 0.708204 
L 5.706339 -1.854102 
L 1.347084 -1.854102 
z
" id="m0ce4700fd3" style="stroke:#ff7500;stroke-linejoin:bevel;stroke-width:1.5;"/>
    </defs>
    <g>
     <use style="fill-opacity:0;stroke:#ff7500;stroke-linejoin:bevel;stroke-width:1.5;" x="126.151107" xlink:href="#m0ce4700fd3" y="265.762777"/>
     <use style="fill-opacity:0;stroke:#ff7500;stroke-linejoin:bevel;stroke-width:1.5;" x="172.879917" xlink:href="#m0ce4700fd3" y="170.432596"/>
     <use style="fill-opacity:0;stroke:#ff7500;stroke-linejoin:bevel;stroke-width:1.5;" x="224.699411" xlink:href="#m0ce4700fd3" y="162.532305"/>
     <use style="fill-opacity:0;stroke:#ff7500;stroke-linejoin:bevel;stroke-width:1.5;" x="224.699411" xlink:href="#m0ce4700fd3" y="162.005619"/>
     <use style="fill-opacity:0;stroke:#ff7500;stroke-linejoin:bevel;stroke-width:1.5;" x="224.699411" xlink:href="#m0ce4700fd3" y="162.005619"/>
     <use style="fill-opacity:0;stroke:#ff7500;stroke-linejoin:bevel;stroke-width:1.5;" x="338.688" xlink:href="#m0ce4700fd3" y="162.005619"/>
    </g>
   </g>
   <g id="line2d_46">
    <path style="fill:none;stroke:#ff7500;stroke-linecap:square;stroke-width:1.5;"/>
    <g/>
   </g>
   <g id="line2d_47">
    <path clip-path="url(#p2048326cd2)" d="M 153.890309 187.813237 
" style="fill:none;stroke:#ff7500;stroke-linecap:square;stroke-width:1.5;"/>
    <defs>
     <path d="M -12 12 
L 12 -12 
M -12 -12 
L 12 12 
" id="mb9dfecaecd" style="stroke:#ff7500;"/>
    </defs>
    <g clip-path="url(#p2048326cd2)">
     <use style="fill:#ff7500;stroke:#ff7500;" x="153.890309" xlink:href="#mb9dfecaecd" y="187.813237"/>
    </g>
   </g>
   <g id="line2d_48">
    <defs>
     <path d="M 0 1.5 
C 0.397805 1.5 0.77937 1.341951 1.06066 1.06066 
C 1.341951 0.77937 1.5 0.397805 1.5 0 
C 1.5 -0.397805 1.341951 -0.77937 1.06066 -1.06066 
C 0.77937 -1.341951 0.397805 -1.5 0 -1.5 
C -0.397805 -1.5 -0.77937 -1.341951 -1.06066 -1.06066 
C -1.341951 -0.77937 -1.5 -0.397805 -1.5 0 
C -1.5 0.397805 -1.341951 0.77937 -1.06066 1.06066 
C -0.77937 1.341951 -0.397805 1.5 0 1.5 
z
" id="m782ae2e6ac" style="stroke:#6495ed;"/>
    </defs>
    <g>
     <use style="fill:#6495ed;stroke:#6495ed;" x="212.276418" xlink:href="#m782ae2e6ac" y="219.941088"/>
     <use style="fill:#6495ed;stroke:#6495ed;" x="212.276418" xlink:href="#m782ae2e6ac" y="219.941088"/>
    </g>
   </g>
   <g id="line2d_49">
    <path d="M 24.515591 298.944 
L 24.515591 298.417314 
L 45.512012 298.417314 
L 45.512012 297.890628 
L 77.884514 297.890628 
L 77.884514 297.363942 
L 82.417986 297.363942 
L 82.417986 295.783884 
L 83.830028 295.783884 
L 83.830028 295.257197 
L 87.798828 295.257197 
L 87.798828 294.730511 
L 89.277618 294.730511 
L 89.277618 293.677139 
L 90.242884 293.677139 
L 90.242884 292.623767 
L 92.267099 292.623767 
L 92.267099 292.097081 
L 92.386139 292.097081 
L 92.386139 291.570395 
L 93.083804 291.570395 
L 93.083804 291.043709 
L 93.972622 291.043709 
L 93.972622 290.517023 
L 95.526106 290.517023 
L 95.526106 289.990337 
L 95.723163 289.990337 
L 95.723163 289.463651 
L 97.928955 289.463651 
L 97.928955 288.936964 
L 98.270913 288.936964 
L 98.270913 288.410278 
L 98.771596 288.410278 
L 98.771596 287.883592 
L 99.575392 287.883592 
L 99.575392 287.356906 
L 100.418775 287.356906 
L 100.418775 286.83022 
L 101.436355 286.83022 
L 101.436355 286.303534 
L 101.576995 286.303534 
L 101.576995 285.776848 
L 101.854917 285.776848 
L 101.854917 285.250162 
L 103.747386 285.250162 
L 103.747386 284.723476 
L 103.93193 284.723476 
L 103.93193 283.670104 
L 104.053884 283.670104 
L 104.053884 283.143418 
L 104.17499 283.143418 
L 104.17499 282.090045 
L 105.398279 282.090045 
L 105.398279 281.563359 
L 106.646412 281.563359 
L 106.646412 281.036673 
L 108.054381 281.036673 
L 108.054381 280.509987 
L 108.948899 280.509987 
L 108.948899 279.983301 
L 109.930396 279.983301 
L 109.930396 279.456615 
L 110.231452 279.456615 
L 110.231452 278.403243 
L 110.485426 278.403243 
L 110.485426 277.876557 
L 111.064034 277.876557 
L 111.064034 277.349871 
L 111.936179 277.349871 
L 111.974805 276.296499 
L 112.469299 276.296499 
L 112.469299 275.769812 
L 112.58145 275.769812 
L 112.58145 275.243126 
L 113.059268 275.243126 
L 113.059268 274.71644 
L 113.203693 274.71644 
L 113.203693 274.189754 
L 113.55961 274.189754 
L 113.594805 273.136382 
L 114.114385 273.136382 
L 114.148479 272.08301 
L 114.519183 272.08301 
L 114.519183 271.556324 
L 114.718113 271.556324 
L 114.718113 271.029638 
L 116.050487 271.029638 
L 116.050487 270.502952 
L 116.202531 270.502952 
L 116.202531 269.976266 
L 117.001416 269.976266 
L 117.001416 269.449579 
L 117.174084 269.449579 
L 117.174084 268.922893 
L 117.429921 268.922893 
L 117.429921 268.396207 
L 118.310324 268.396207 
L 118.310324 267.869521 
L 119.351785 267.869521 
L 119.351785 267.342835 
L 119.972465 267.342835 
L 119.972465 266.816149 
L 120.358413 266.816149 
L 120.358413 266.289463 
L 120.571812 266.289463 
L 120.571812 265.762777 
L 121.996681 265.762777 
L 121.996681 265.236091 
L 122.552391 265.236091 
L 122.552391 264.709405 
L 122.844443 264.709405 
L 122.844443 263.656033 
L 123.553867 263.656033 
L 123.553867 263.129347 
L 123.849288 263.129347 
L 123.849288 262.60266 
L 124.500941 262.60266 
L 124.500941 262.075974 
L 125.165375 262.075974 
L 125.183475 260.495916 
L 125.857712 260.495916 
L 125.857712 259.96923 
L 128.275374 259.96923 
L 128.335875 258.915858 
L 128.516128 258.915858 
L 128.516128 258.389172 
L 128.885774 258.389172 
L 128.885774 257.862486 
L 129.489668 257.862486 
L 129.489668 257.3358 
L 129.742212 257.3358 
L 129.756136 256.282427 
L 130.155159 256.282427 
L 130.155159 255.755741 
L 130.822389 255.755741 
L 130.822389 255.229055 
L 132.254495 255.229055 
L 132.254495 254.175683 
L 132.742089 254.175683 
L 132.742089 253.648997 
L 133.46572 253.648997 
L 133.46572 253.122311 
L 134.608796 253.122311 
L 134.608796 252.595625 
L 135.351444 252.595625 
L 135.351444 251.542253 
L 135.522271 251.542253 
L 135.522271 251.015567 
L 136.121821 251.015567 
L 136.121821 250.488881 
L 136.513517 250.488881 
L 136.522961 249.435508 
L 136.96118 249.435508 
L 136.96118 248.908822 
L 137.080471 248.908822 
L 137.080471 248.382136 
L 138.213405 248.382136 
L 138.213405 247.85545 
L 138.65343 247.85545 
L 138.67848 246.275392 
L 139.285267 246.275392 
L 139.285267 245.748706 
L 139.596763 245.748706 
L 139.596763 245.22202 
L 140.47663 245.22202 
L 140.574203 244.168648 
L 140.589166 244.168648 
L 140.589166 243.641962 
L 141.133958 243.641962 
L 141.133958 243.115275 
L 142.519806 243.115275 
L 142.519806 242.588589 
L 143.317992 242.588589 
L 143.317992 242.061903 
L 143.615998 242.061903 
L 143.615998 241.535217 
L 144.987689 241.535217 
L 144.993499 240.481845 
L 157.787352 240.481845 
L 157.787352 239.955159 
L 158.009087 239.955159 
L 158.009087 239.428473 
L 158.33379 239.428473 
L 158.33379 238.901787 
L 158.668475 238.901787 
L 158.668475 238.375101 
L 159.265439 238.375101 
L 159.370195 236.795043 
L 159.862466 236.795043 
L 159.862466 236.268356 
L 160.162007 236.268356 
L 160.162007 235.214984 
L 160.307457 235.214984 
L 160.307457 234.688298 
L 168.836647 234.688298 
L 168.934074 233.634926 
L 169.434674 233.634926 
L 169.480386 232.054868 
L 169.612562 232.054868 
L 169.612562 231.001496 
L 175.005954 231.001496 
L 175.005954 230.47481 
L 175.439084 230.47481 
L 175.439084 229.421437 
L 176.230812 229.421437 
L 176.230812 228.894751 
L 179.605922 228.894751 
L 179.605922 228.368065 
L 179.797255 228.368065 
L 179.797255 227.841379 
L 183.355997 227.841379 
L 183.355997 226.788007 
L 183.503451 226.788007 
L 183.503451 226.261321 
L 183.934742 226.261321 
L 183.934742 225.734635 
L 186.31016 225.734635 
L 186.31016 225.207949 
L 188.721944 225.207949 
L 188.721944 224.681263 
L 188.835639 224.681263 
L 188.835639 224.154577 
L 190.941078 224.154577 
L 190.941078 223.627891 
L 193.334194 223.627891 
L 193.334194 223.101204 
L 196.454552 223.101204 
L 196.454552 222.574518 
L 204.650394 222.574518 
L 204.650394 222.047832 
L 206.649379 222.047832 
L 206.649379 221.521146 
L 208.265268 221.521146 
L 208.265268 220.99446 
L 211.664104 220.99446 
L 211.664104 220.467774 
L 212.276418 220.467774 
L 212.276418 219.941088 
L 338.688 219.941088 
L 338.688 219.941088 
" style="fill:none;stroke:#6495ed;stroke-linecap:square;stroke-width:1.5;"/>
   </g>
   <g id="line2d_50">
    <defs>
     <path d="M -0 6 
L 6 -6 
L -6 -6 
z
" id="m7edc43b572" style="stroke:#6495ed;stroke-linejoin:miter;stroke-width:1.5;"/>
    </defs>
    <g>
     <use style="fill-opacity:0;stroke:#6495ed;stroke-linejoin:miter;stroke-width:1.5;" x="104.17499" xlink:href="#m7edc43b572" y="283.143418"/>
     <use style="fill-opacity:0;stroke:#6495ed;stroke-linejoin:miter;stroke-width:1.5;" x="175.005954" xlink:href="#m7edc43b572" y="230.47481"/>
     <use style="fill-opacity:0;stroke:#6495ed;stroke-linejoin:miter;stroke-width:1.5;" x="212.276418" xlink:href="#m7edc43b572" y="220.467774"/>
     <use style="fill-opacity:0;stroke:#6495ed;stroke-linejoin:miter;stroke-width:1.5;" x="212.276418" xlink:href="#m7edc43b572" y="219.941088"/>
     <use style="fill-opacity:0;stroke:#6495ed;stroke-linejoin:miter;stroke-width:1.5;" x="212.276418" xlink:href="#m7edc43b572" y="219.941088"/>
     <use style="fill-opacity:0;stroke:#6495ed;stroke-linejoin:miter;stroke-width:1.5;" x="338.688" xlink:href="#m7edc43b572" y="219.941088"/>
    </g>
   </g>
   <g id="line2d_51">
    <path style="fill:none;stroke:#6495ed;stroke-linecap:square;stroke-width:1.5;"/>
    <g/>
   </g>
   <g id="line2d_52">
    <path clip-path="url(#p2048326cd2)" d="M 153.890309 240.481845 
" style="fill:none;stroke:#6495ed;stroke-linecap:square;stroke-width:1.5;"/>
    <defs>
     <path d="M -12 12 
L 12 -12 
M -12 -12 
L 12 12 
" id="m99643d090b" style="stroke:#6495ed;"/>
    </defs>
    <g clip-path="url(#p2048326cd2)">
     <use style="fill:#6495ed;stroke:#6495ed;" x="153.890309" xlink:href="#m99643d090b" y="240.481845"/>
    </g>
   </g>
   <g id="line2d_53">
    <path d="M 338.688 219.941088 
L 369.60768 293.571802 
" style="fill:none;stroke:#6495ed;stroke-linecap:square;stroke-width:1.5;"/>
    <g>
     <use style="fill-opacity:0;stroke:#6495ed;stroke-linejoin:miter;stroke-width:1.5;" x="338.688" xlink:href="#m7edc43b572" y="219.941088"/>
     <use style="fill-opacity:0;stroke:#6495ed;stroke-linejoin:miter;stroke-width:1.5;" x="369.60768" xlink:href="#m7edc43b572" y="293.571802"/>
    </g>
   </g>
   <g id="line2d_54">
    <path d="M 338.688 162.005619 
L 369.60768 229.105426 
" style="fill:none;stroke:#ff7500;stroke-linecap:square;stroke-width:1.5;"/>
    <g>
     <use style="fill-opacity:0;stroke:#ff7500;stroke-linejoin:bevel;stroke-width:1.5;" x="338.688" xlink:href="#m0ce4700fd3" y="162.005619"/>
     <use style="fill-opacity:0;stroke:#ff7500;stroke-linejoin:bevel;stroke-width:1.5;" x="369.60768" xlink:href="#m0ce4700fd3" y="229.105426"/>
    </g>
   </g>
   <g id="line2d_55">
    <path d="M 338.688 135.671315 
L 369.60768 164.63905 
" style="fill:none;stroke:#ff00ff;stroke-linecap:square;stroke-width:1.5;"/>
    <g>
     <use style="fill-opacity:0;stroke:#ff00ff;stroke-linejoin:miter;stroke-width:1.5;" x="338.688" xlink:href="#m9bfd9159d3" y="135.671315"/>
     <use style="fill-opacity:0;stroke:#ff00ff;stroke-linejoin:miter;stroke-width:1.5;" x="369.60768" xlink:href="#m9bfd9159d3" y="164.63905"/>
    </g>
   </g>
   <g id="line2d_56">
    <path d="M 338.688 30.334099 
L 369.60768 100.172673 
" style="fill:none;stroke:#000080;stroke-linecap:square;stroke-width:1.5;"/>
    <g>
     <use style="fill-opacity:0;stroke:#000080;stroke-width:1.5;" x="338.688" xlink:href="#m9d3ed63c07" y="30.334099"/>
     <use style="fill-opacity:0;stroke:#000080;stroke-width:1.5;" x="369.60768" xlink:href="#m9d3ed63c07" y="100.172673"/>
    </g>
   </g>
   <g id="line2d_57">
    <path d="M 338.688 298.944 
L 338.688 30.334099 
" style="fill:none;stroke:#000000;stroke-linecap:square;stroke-width:1.5;"/>
   </g>
   <g id="patch_3">
    <path d="M 57.6 298.944 
L 57.6 27.648 
" style="fill:none;stroke:#000000;stroke-linecap:square;stroke-linejoin:miter;stroke-width:0.8;"/>
   </g>
   <g id="patch_4">
    <path d="M 338.688 298.944 
L 338.688 27.648 
" style="fill:none;stroke:#000000;stroke-linecap:square;stroke-linejoin:miter;stroke-width:0.8;"/>
   </g>
   <g id="patch_5">
    <path d="M 57.6 298.944 
L 338.688 298.944 
" style="fill:none;stroke:#000000;stroke-linecap:square;stroke-linejoin:miter;stroke-width:0.8;"/>
   </g>
   <g id="patch_6">
    <path d="M 57.6 27.648 
L 338.688 27.648 
" style="fill:none;stroke:#000000;stroke-linecap:square;stroke-linejoin:miter;stroke-width:0.8;"/>
   </g>
   <g id="text_13">
    <!-- PSO -->
    <defs>
     <path d="M 19.671875 64.796875 
L 19.671875 37.40625 
L 32.078125 37.40625 
Q 38.96875 37.40625 42.71875 40.96875 
Q 46.484375 44.53125 46.484375 51.125 
Q 46.484375 57.671875 42.71875 61.234375 
Q 38.96875 64.796875 32.078125 64.796875 
z
M 9.8125 72.90625 
L 32.078125 72.90625 
Q 44.34375 72.90625 50.609375 67.359375 
Q 56.890625 61.8125 56.890625 51.125 
Q 56.890625 40.328125 50.609375 34.8125 
Q 44.34375 29.296875 32.078125 29.296875 
L 19.671875 29.296875 
L 19.671875 0 
L 9.8125 0 
z
" id="DejaVuSans-80"/>
     <path d="M 53.515625 70.515625 
L 53.515625 60.890625 
Q 47.90625 63.578125 42.921875 64.890625 
Q 37.9375 66.21875 33.296875 66.21875 
Q 25.25 66.21875 20.875 63.09375 
Q 16.5 59.96875 16.5 54.203125 
Q 16.5 49.359375 19.40625 46.890625 
Q 22.3125 44.4375 30.421875 42.921875 
L 36.375 41.703125 
Q 47.40625 39.59375 52.65625 34.296875 
Q 57.90625 29 57.90625 20.125 
Q 57.90625 9.515625 50.796875 4.046875 
Q 43.703125 -1.421875 29.984375 -1.421875 
Q 24.8125 -1.421875 18.96875 -0.25 
Q 13.140625 0.921875 6.890625 3.21875 
L 6.890625 13.375 
Q 12.890625 10.015625 18.65625 8.296875 
Q 24.421875 6.59375 29.984375 6.59375 
Q 38.421875 6.59375 43.015625 9.90625 
Q 47.609375 13.234375 47.609375 19.390625 
Q 47.609375 24.75 44.3125 27.78125 
Q 41.015625 30.8125 33.5 32.328125 
L 27.484375 33.5 
Q 16.453125 35.6875 11.515625 40.375 
Q 6.59375 45.0625 6.59375 53.421875 
Q 6.59375 63.09375 13.40625 68.65625 
Q 20.21875 74.21875 32.171875 74.21875 
Q 37.3125 74.21875 42.625 73.28125 
Q 47.953125 72.359375 53.515625 70.515625 
z
" id="DejaVuSans-83"/>
     <path d="M 39.40625 66.21875 
Q 28.65625 66.21875 22.328125 58.203125 
Q 16.015625 50.203125 16.015625 36.375 
Q 16.015625 22.609375 22.328125 14.59375 
Q 28.65625 6.59375 39.40625 6.59375 
Q 50.140625 6.59375 56.421875 14.59375 
Q 62.703125 22.609375 62.703125 36.375 
Q 62.703125 50.203125 56.421875 58.203125 
Q 50.140625 66.21875 39.40625 66.21875 
z
M 39.40625 74.21875 
Q 54.734375 74.21875 63.90625 63.9375 
Q 73.09375 53.65625 73.09375 36.375 
Q 73.09375 19.140625 63.90625 8.859375 
Q 54.734375 -1.421875 39.40625 -1.421875 
Q 24.03125 -1.421875 14.8125 8.828125 
Q 5.609375 19.09375 5.609375 36.375 
Q 5.609375 53.65625 14.8125 63.9375 
Q 24.03125 74.21875 39.40625 74.21875 
z
" id="DejaVuSans-79"/>
    </defs>
    <g transform="translate(375.22944 298.262739)scale(0.17 -0.17)">
     <use xlink:href="#DejaVuSans-80"/>
     <use x="60.302734" xlink:href="#DejaVuSans-83"/>
     <use x="123.779297" xlink:href="#DejaVuSans-79"/>
    </g>
   </g>
   <g id="text_14">
    <!-- DEPSO -->
    <defs>
     <path d="M 19.671875 64.796875 
L 19.671875 8.109375 
L 31.59375 8.109375 
Q 46.6875 8.109375 53.6875 14.9375 
Q 60.6875 21.78125 60.6875 36.53125 
Q 60.6875 51.171875 53.6875 57.984375 
Q 46.6875 64.796875 31.59375 64.796875 
z
M 9.8125 72.90625 
L 30.078125 72.90625 
Q 51.265625 72.90625 61.171875 64.09375 
Q 71.09375 55.28125 71.09375 36.53125 
Q 71.09375 17.671875 61.125 8.828125 
Q 51.171875 0 30.078125 0 
L 9.8125 0 
z
" id="DejaVuSans-68"/>
     <path d="M 9.8125 72.90625 
L 55.90625 72.90625 
L 55.90625 64.59375 
L 19.671875 64.59375 
L 19.671875 43.015625 
L 54.390625 43.015625 
L 54.390625 34.71875 
L 19.671875 34.71875 
L 19.671875 8.296875 
L 56.78125 8.296875 
L 56.78125 0 
L 9.8125 0 
z
" id="DejaVuSans-69"/>
    </defs>
    <g transform="translate(375.22944 233.796363)scale(0.17 -0.17)">
     <use xlink:href="#DejaVuSans-68"/>
     <use x="77.001953" xlink:href="#DejaVuSans-69"/>
     <use x="140.185547" xlink:href="#DejaVuSans-80"/>
     <use x="200.488281" xlink:href="#DejaVuSans-83"/>
     <use x="263.964844" xlink:href="#DejaVuSans-79"/>
    </g>
   </g>
   <g id="text_15">
    <!-- DE -->
    <g transform="translate(375.22944 169.329987)scale(0.17 -0.17)">
     <use xlink:href="#DejaVuSans-68"/>
     <use x="77.001953" xlink:href="#DejaVuSans-69"/>
    </g>
   </g>
   <g id="text_16">
    <!-- CMA-ES -->
    <defs>
     <path d="M 64.40625 67.28125 
L 64.40625 56.890625 
Q 59.421875 61.53125 53.78125 63.8125 
Q 48.140625 66.109375 41.796875 66.109375 
Q 29.296875 66.109375 22.65625 58.46875 
Q 16.015625 50.828125 16.015625 36.375 
Q 16.015625 21.96875 22.65625 14.328125 
Q 29.296875 6.6875 41.796875 6.6875 
Q 48.140625 6.6875 53.78125 8.984375 
Q 59.421875 11.28125 64.40625 15.921875 
L 64.40625 5.609375 
Q 59.234375 2.09375 53.4375 0.328125 
Q 47.65625 -1.421875 41.21875 -1.421875 
Q 24.65625 -1.421875 15.125 8.703125 
Q 5.609375 18.84375 5.609375 36.375 
Q 5.609375 53.953125 15.125 64.078125 
Q 24.65625 74.21875 41.21875 74.21875 
Q 47.75 74.21875 53.53125 72.484375 
Q 59.328125 70.75 64.40625 67.28125 
z
" id="DejaVuSans-67"/>
     <path d="M 9.8125 72.90625 
L 24.515625 72.90625 
L 43.109375 23.296875 
L 61.8125 72.90625 
L 76.515625 72.90625 
L 76.515625 0 
L 66.890625 0 
L 66.890625 64.015625 
L 48.09375 14.015625 
L 38.1875 14.015625 
L 19.390625 64.015625 
L 19.390625 0 
L 9.8125 0 
z
" id="DejaVuSans-77"/>
     <path d="M 34.1875 63.1875 
L 20.796875 26.90625 
L 47.609375 26.90625 
z
M 28.609375 72.90625 
L 39.796875 72.90625 
L 67.578125 0 
L 57.328125 0 
L 50.6875 18.703125 
L 17.828125 18.703125 
L 11.1875 0 
L 0.78125 0 
z
" id="DejaVuSans-65"/>
    </defs>
    <g transform="translate(375.22944 104.863611)scale(0.17 -0.17)">
     <use xlink:href="#DejaVuSans-67"/>
     <use x="69.824219" xlink:href="#DejaVuSans-77"/>
     <use x="156.103516" xlink:href="#DejaVuSans-65"/>
     <use x="222.261719" xlink:href="#DejaVuSans-45"/>
     <use x="258.345703" xlink:href="#DejaVuSans-69"/>
     <use x="321.529297" xlink:href="#DejaVuSans-83"/>
    </g>
   </g>
   <g id="text_17">
    <!-- best 2009 -->
    <defs>
     <path d="M 48.6875 27.296875 
Q 48.6875 37.203125 44.609375 42.84375 
Q 40.53125 48.484375 33.40625 48.484375 
Q 26.265625 48.484375 22.1875 42.84375 
Q 18.109375 37.203125 18.109375 27.296875 
Q 18.109375 17.390625 22.1875 11.75 
Q 26.265625 6.109375 33.40625 6.109375 
Q 40.53125 6.109375 44.609375 11.75 
Q 48.6875 17.390625 48.6875 27.296875 
z
M 18.109375 46.390625 
Q 20.953125 51.265625 25.265625 53.625 
Q 29.59375 56 35.59375 56 
Q 45.5625 56 51.78125 48.09375 
Q 58.015625 40.1875 58.015625 27.296875 
Q 58.015625 14.40625 51.78125 6.484375 
Q 45.5625 -1.421875 35.59375 -1.421875 
Q 29.59375 -1.421875 25.265625 0.953125 
Q 20.953125 3.328125 18.109375 8.203125 
L 18.109375 0 
L 9.078125 0 
L 9.078125 75.984375 
L 18.109375 75.984375 
z
" id="DejaVuSans-98"/>
     <path d="M 10.984375 1.515625 
L 10.984375 10.5 
Q 14.703125 8.734375 18.5 7.8125 
Q 22.3125 6.890625 25.984375 6.890625 
Q 35.75 6.890625 40.890625 13.453125 
Q 46.046875 20.015625 46.78125 33.40625 
Q 43.953125 29.203125 39.59375 26.953125 
Q 35.25 24.703125 29.984375 24.703125 
Q 19.046875 24.703125 12.671875 31.3125 
Q 6.296875 37.9375 6.296875 49.421875 
Q 6.296875 60.640625 12.9375 67.421875 
Q 19.578125 74.21875 30.609375 74.21875 
Q 43.265625 74.21875 49.921875 64.515625 
Q 56.59375 54.828125 56.59375 36.375 
Q 56.59375 19.140625 48.40625 8.859375 
Q 40.234375 -1.421875 26.421875 -1.421875 
Q 22.703125 -1.421875 18.890625 -0.6875 
Q 15.09375 0.046875 10.984375 1.515625 
z
M 30.609375 32.421875 
Q 37.25 32.421875 41.125 36.953125 
Q 45.015625 41.5 45.015625 49.421875 
Q 45.015625 57.28125 41.125 61.84375 
Q 37.25 66.40625 30.609375 66.40625 
Q 23.96875 66.40625 20.09375 61.84375 
Q 16.21875 57.28125 16.21875 49.421875 
Q 16.21875 41.5 20.09375 36.953125 
Q 23.96875 32.421875 30.609375 32.421875 
z
" id="DejaVuSans-57"/>
    </defs>
    <g transform="translate(375.22944 40.397235)scale(0.17 -0.17)">
     <use xlink:href="#DejaVuSans-98"/>
     <use x="63.476562" xlink:href="#DejaVuSans-101"/>
     <use x="125" xlink:href="#DejaVuSans-115"/>
     <use x="177.099609" xlink:href="#DejaVuSans-116"/>
     <use x="216.308594" xlink:href="#DejaVuSans-32"/>
     <use x="248.095703" xlink:href="#DejaVuSans-50"/>
     <use x="311.71875" xlink:href="#DejaVuSans-48"/>
     <use x="375.341797" xlink:href="#DejaVuSans-48"/>
     <use x="438.964844" xlink:href="#DejaVuSans-57"/>
    </g>
   </g>
   <g id="text_18">
    <!-- bbob f1, 20-D -->
    <g transform="translate(60.41088 38.111366)scale(0.102 -0.102)">
     <use xlink:href="#DejaVuSans-98"/>
     <use x="63.476562" xlink:href="#DejaVuSans-98"/>
     <use x="126.953125" xlink:href="#DejaVuSans-111"/>
     <use x="188.134766" xlink:href="#DejaVuSans-98"/>
     <use x="251.611328" xlink:href="#DejaVuSans-32"/>
     <use x="283.398438" xlink:href="#DejaVuSans-102"/>
     <use x="318.603516" xlink:href="#DejaVuSans-49"/>
     <use x="382.226562" xlink:href="#DejaVuSans-44"/>
     <use x="414.013672" xlink:href="#DejaVuSans-32"/>
     <use x="445.800781" xlink:href="#DejaVuSans-50"/>
     <use x="509.423828" xlink:href="#DejaVuSans-48"/>
     <use x="573.046875" xlink:href="#DejaVuSans-45"/>
     <use x="609.130859" xlink:href="#DejaVuSans-68"/>
    </g>
    <!-- 51 targets: 100..1e-08 -->
    <defs>
     <path d="M 10.796875 72.90625 
L 49.515625 72.90625 
L 49.515625 64.59375 
L 19.828125 64.59375 
L 19.828125 46.734375 
Q 21.96875 47.46875 24.109375 47.828125 
Q 26.265625 48.1875 28.421875 48.1875 
Q 40.625 48.1875 47.75 41.5 
Q 54.890625 34.8125 54.890625 23.390625 
Q 54.890625 11.625 47.5625 5.09375 
Q 40.234375 -1.421875 26.90625 -1.421875 
Q 22.3125 -1.421875 17.546875 -0.640625 
Q 12.796875 0.140625 7.71875 1.703125 
L 7.71875 11.625 
Q 12.109375 9.234375 16.796875 8.0625 
Q 21.484375 6.890625 26.703125 6.890625 
Q 35.15625 6.890625 40.078125 11.328125 
Q 45.015625 15.765625 45.015625 23.390625 
Q 45.015625 31 40.078125 35.4375 
Q 35.15625 39.890625 26.703125 39.890625 
Q 22.75 39.890625 18.8125 39.015625 
Q 14.890625 38.140625 10.796875 36.28125 
z
" id="DejaVuSans-53"/>
     <path d="M 11.71875 12.40625 
L 22.015625 12.40625 
L 22.015625 0 
L 11.71875 0 
z
M 11.71875 51.703125 
L 22.015625 51.703125 
L 22.015625 39.3125 
L 11.71875 39.3125 
z
" id="DejaVuSans-58"/>
    </defs>
    <g transform="translate(60.41088 49.533135)scale(0.102 -0.102)">
     <use xlink:href="#DejaVuSans-53"/>
     <use x="63.623047" xlink:href="#DejaVuSans-49"/>
     <use x="127.246094" xlink:href="#DejaVuSans-32"/>
     <use x="159.033203" xlink:href="#DejaVuSans-116"/>
     <use x="198.242188" xlink:href="#DejaVuSans-97"/>
     <use x="259.521484" xlink:href="#DejaVuSans-114"/>
     <use x="298.884766" xlink:href="#DejaVuSans-103"/>
     <use x="362.361328" xlink:href="#DejaVuSans-101"/>
     <use x="423.884766" xlink:href="#DejaVuSans-116"/>
     <use x="463.09375" xlink:href="#DejaVuSans-115"/>
     <use x="515.193359" xlink:href="#DejaVuSans-58"/>
     <use x="548.884766" xlink:href="#DejaVuSans-32"/>
     <use x="580.671875" xlink:href="#DejaVuSans-49"/>
     <use x="644.294922" xlink:href="#DejaVuSans-48"/>
     <use x="707.917969" xlink:href="#DejaVuSans-48"/>
     <use x="771.541016" xlink:href="#DejaVuSans-46"/>
     <use x="803.328125" xlink:href="#DejaVuSans-46"/>
     <use x="835.115234" xlink:href="#DejaVuSans-49"/>
     <use x="898.738281" xlink:href="#DejaVuSans-101"/>
     <use x="960.261719" xlink:href="#DejaVuSans-45"/>
     <use x="996.345703" xlink:href="#DejaVuSans-48"/>
     <use x="1059.96875" xlink:href="#DejaVuSans-56"/>
    </g>
    <!-- 24, 15 instances -->
    <g transform="translate(60.41088 60.954904)scale(0.102 -0.102)">
     <use xlink:href="#DejaVuSans-50"/>
     <use x="63.623047" xlink:href="#DejaVuSans-52"/>
     <use x="127.246094" xlink:href="#DejaVuSans-44"/>
     <use x="159.033203" xlink:href="#DejaVuSans-32"/>
     <use x="190.820312" xlink:href="#DejaVuSans-49"/>
     <use x="254.443359" xlink:href="#DejaVuSans-53"/>
     <use x="318.066406" xlink:href="#DejaVuSans-32"/>
     <use x="349.853516" xlink:href="#DejaVuSans-105"/>
     <use x="377.636719" xlink:href="#DejaVuSans-110"/>
     <use x="441.015625" xlink:href="#DejaVuSans-115"/>
     <use x="493.115234" xlink:href="#DejaVuSans-116"/>
     <use x="532.324219" xlink:href="#DejaVuSans-97"/>
     <use x="593.603516" xlink:href="#DejaVuSans-110"/>
     <use x="656.982422" xlink:href="#DejaVuSans-99"/>
     <use x="711.962891" xlink:href="#DejaVuSans-101"/>
     <use x="773.486328" xlink:href="#DejaVuSans-115"/>
    </g>
   </g>
   <g id="text_19">
    <!-- v2.4 -->
    <g style="fill:#808080;" transform="translate(187.233062 294.151352)scale(0.1 -0.1)">
     <use xlink:href="#DejaVuSans-118"/>
     <use x="59.179688" xlink:href="#DejaVuSans-50"/>
     <use x="122.802734" xlink:href="#DejaVuSans-46"/>
     <use x="154.589844" xlink:href="#DejaVuSans-52"/>
    </g>
   </g>
   <g id="text_20">
    <!-- 1 Sphere -->
    <defs>
     <path d="M 54.890625 33.015625 
L 54.890625 0 
L 45.90625 0 
L 45.90625 32.71875 
Q 45.90625 40.484375 42.875 44.328125 
Q 39.84375 48.1875 33.796875 48.1875 
Q 26.515625 48.1875 22.3125 43.546875 
Q 18.109375 38.921875 18.109375 30.90625 
L 18.109375 0 
L 9.078125 0 
L 9.078125 75.984375 
L 18.109375 75.984375 
L 18.109375 46.1875 
Q 21.34375 51.125 25.703125 53.5625 
Q 30.078125 56 35.796875 56 
Q 45.21875 56 50.046875 50.171875 
Q 54.890625 44.34375 54.890625 33.015625 
z
" id="DejaVuSans-104"/>
    </defs>
    <g transform="translate(153.376812 21.648)scale(0.2 -0.2)">
     <use xlink:href="#DejaVuSans-49"/>
     <use x="63.623047" xlink:href="#DejaVuSans-32"/>
     <use x="95.410156" xlink:href="#DejaVuSans-83"/>
     <use x="158.886719" xlink:href="#DejaVuSans-112"/>
     <use x="222.363281" xlink:href="#DejaVuSans-104"/>
     <use x="285.742188" xlink:href="#DejaVuSans-101"/>
     <use x="347.265625" xlink:href="#DejaVuSans-114"/>
     <use x="386.128906" xlink:href="#DejaVuSans-101"/>
    </g>
   </g>
  </g>
 </g>
 <defs>
  <clipPath id="p2048326cd2">
   <rect height="271.296" width="281.088" x="57.6" y="27.648"/>
  </clipPath>
 </defs>
</svg>
