<?xml version="1.0" encoding="utf-8" standalone="no"?>
<!DOCTYPE svg PUBLIC "-//W3C//DTD SVG 1.1//EN"
  "http://www.w3.org/Graphics/SVG/1.1/DTD/svg11.dtd">
<!-- Created with matplotlib (https://matplotlib.org/) -->
<svg height="345.6pt" version="1.1" viewBox="0 0 460.8 345.6" width="460.8pt" xmlns="http://www.w3.org/2000/svg" xmlns:xlink="http://www.w3.org/1999/xlink">
 <defs>
  <style type="text/css">
*{stroke-linecap:butt;stroke-linejoin:round;}
  </style>
 </defs>
 <g id="figure_1">
  <g id="patch_1">
   <path d="M 0 345.6 
L 460.8 345.6 
L 460.8 0 
L 0 0 
z
" style="fill:#ffffff;"/>
  </g>
  <g id="axes_1">
   <g id="patch_2">
    <path d="M 57.6 298.944 
L 338.688 298.944 
L 338.688 27.648 
L 57.6 27.648 
z
" style="fill:#ffffff;"/>
   </g>
   <g id="line2d_1">
    <path d="M 38.440992 298.944 
L 38.440992 277.876557 
L 50.52898 277.876557 
L 50.52898 272.609696 
L 62.616969 272.609696 
L 62.616969 267.342835 
L 84.464254 267.342835 
L 84.464254 262.075974 
L 95.918017 262.075974 
L 95.918017 256.809114 
L 99.938184 256.809114 
L 99.938184 251.542253 
L 107.680028 251.542253 
L 107.680028 246.275392 
L 114.418861 246.275392 
L 114.418861 241.008531 
L 118.751849 241.008531 
L 118.751849 235.74167 
L 124.241922 235.74167 
L 124.241922 230.47481 
L 129.853291 230.47481 
L 129.853291 225.207949 
L 135.482227 225.207949 
L 135.482227 219.941088 
L 136.831795 219.941088 
L 136.831795 214.674227 
L 139.572998 214.674227 
L 139.572998 209.407366 
L 141.138789 209.407366 
L 141.138789 204.140506 
L 143.187472 204.140506 
L 143.187472 198.873645 
L 145.212864 198.873645 
L 145.212864 193.606784 
L 146.502522 193.606784 
L 146.502522 188.339923 
L 148.48143 188.339923 
L 148.48143 183.073062 
L 154.840544 183.073062 
L 154.840544 177.806202 
L 157.735205 177.806202 
L 157.735205 172.539341 
L 159.456591 172.539341 
L 159.456591 167.27248 
L 161.100288 167.27248 
L 161.100288 162.005619 
L 165.096013 162.005619 
L 165.096013 156.738758 
L 165.363008 156.738758 
L 165.363008 151.471897 
L 166.151824 151.471897 
L 166.151824 146.205037 
L 167.298899 146.205037 
L 167.298899 140.938176 
L 169.225542 140.938176 
L 169.225542 135.671315 
L 169.3984 135.671315 
L 169.3984 130.404454 
L 170.455087 130.404454 
L 170.455087 125.137593 
L 171.879317 125.137593 
L 171.879317 119.870733 
L 172.264595 119.870733 
L 172.264595 114.603872 
L 173.785389 114.603872 
L 173.785389 109.337011 
L 176.968661 109.337011 
L 176.968661 104.07015 
L 178.066286 104.07015 
L 178.066286 98.803289 
L 178.239812 98.803289 
L 178.239812 93.536429 
L 178.955862 93.536429 
L 178.955862 88.269568 
L 179.343721 88.269568 
L 179.343721 83.002707 
L 179.622413 83.002707 
L 179.622413 77.735846 
L 179.969841 77.735846 
L 179.969841 72.468985 
L 180.161626 72.468985 
L 180.161626 67.202125 
L 180.417488 67.202125 
L 180.417488 61.935264 
L 180.599412 61.935264 
L 180.599412 56.668403 
L 180.764525 56.668403 
L 180.764525 51.401542 
L 180.839063 51.401542 
L 180.839063 46.134681 
L 180.997019 46.134681 
L 180.997019 40.867821 
L 181.114555 40.867821 
L 181.114555 35.60096 
L 181.197333 35.60096 
L 181.197333 30.334099 
L 338.688 30.334099 
" style="fill:none;stroke:#f5deb3;stroke-linecap:square;stroke-width:4;"/>
   </g>
   <g id="line2d_2">
    <defs>
     <path d="M -0 7.778175 
L 7.778175 0 
L 0 -7.778175 
L -7.778175 -0 
z
" id="m2edfabc04f" style="stroke:#f5deb3;stroke-linejoin:miter;stroke-width:1.5;"/>
    </defs>
    <g>
     <use style="fill:#f5deb3;stroke:#f5deb3;stroke-linejoin:miter;stroke-width:1.5;" x="62.616969" xlink:href="#m2edfabc04f" y="272.609696"/>
     <use style="fill:#f5deb3;stroke:#f5deb3;stroke-linejoin:miter;stroke-width:1.5;" x="141.138789" xlink:href="#m2edfabc04f" y="209.407366"/>
     <use style="fill:#f5deb3;stroke:#f5deb3;stroke-linejoin:miter;stroke-width:1.5;" x="179.622413" xlink:href="#m2edfabc04f" y="83.002707"/>
     <use style="fill:#f5deb3;stroke:#f5deb3;stroke-linejoin:miter;stroke-width:1.5;" x="181.197333" xlink:href="#m2edfabc04f" y="35.60096"/>
     <use style="fill:#f5deb3;stroke:#f5deb3;stroke-linejoin:miter;stroke-width:1.5;" x="181.197333" xlink:href="#m2edfabc04f" y="30.334099"/>
     <use style="fill:#f5deb3;stroke:#f5deb3;stroke-linejoin:miter;stroke-width:1.5;" x="338.688" xlink:href="#m2edfabc04f" y="30.334099"/>
    </g>
   </g>
   <g id="line2d_3">
    <path style="fill:none;stroke:#f5deb3;stroke-linecap:square;stroke-width:4;"/>
    <g/>
   </g>
   <g id="line2d_4">
    <path d="M 338.688 30.334099 
L 369.60768 35.706297 
" style="fill:none;stroke:#f5deb3;stroke-linecap:square;stroke-width:4;"/>
    <g>
     <use style="fill:#f5deb3;stroke:#f5deb3;stroke-linejoin:miter;stroke-width:1.5;" x="338.688" xlink:href="#m2edfabc04f" y="30.334099"/>
     <use style="fill:#f5deb3;stroke:#f5deb3;stroke-linejoin:miter;stroke-width:1.5;" x="369.60768" xlink:href="#m2edfabc04f" y="35.706297"/>
    </g>
   </g>
   <g id="matplotlib.axis_1">
    <g id="xtick_1">
     <g id="line2d_5">
      <path clip-path="url(#p8c333e420b)" d="M 57.6 298.944 
L 57.6 27.648 
" style="fill:none;stroke:#b0b0b0;stroke-linecap:square;stroke-width:0.8;"/>
     </g>
     <g id="line2d_6">
      <defs>
       <path d="M 0 0 
L 0 3.5 
" id="m17347b3c12" style="stroke:#000000;stroke-width:0.8;"/>
      </defs>
      <g>
       <use style="stroke:#000000;stroke-width:0.8;" x="57.6" xlink:href="#m17347b3c12" y="298.944"/>
      </g>
     </g>
     <g id="text_1">
      <!-- 0 -->
      <defs>
       <path d="M 31.78125 66.40625 
Q 24.171875 66.40625 20.328125 58.90625 
Q 16.5 51.421875 16.5 36.375 
Q 16.5 21.390625 20.328125 13.890625 
Q 24.171875 6.390625 31.78125 6.390625 
Q 39.453125 6.390625 43.28125 13.890625 
Q 47.125 21.390625 47.125 36.375 
Q 47.125 51.421875 43.28125 58.90625 
Q 39.453125 66.40625 31.78125 66.40625 
z
M 31.78125 74.21875 
Q 44.046875 74.21875 50.515625 64.515625 
Q 56.984375 54.828125 56.984375 36.375 
Q 56.984375 17.96875 50.515625 8.265625 
Q 44.046875 -1.421875 31.78125 -1.421875 
Q 19.53125 -1.421875 13.0625 8.265625 
Q 6.59375 17.96875 6.59375 36.375 
Q 6.59375 54.828125 13.0625 64.515625 
Q 19.53125 74.21875 31.78125 74.21875 
z
" id="DejaVuSans-48"/>
      </defs>
      <g transform="translate(51.2375 321.140875)scale(0.2 -0.2)">
       <use xlink:href="#DejaVuSans-48"/>
      </g>
     </g>
    </g>
    <g id="xtick_2">
     <g id="line2d_7">
      <path clip-path="url(#p8c333e420b)" d="M 137.910857 298.944 
L 137.910857 27.648 
" style="fill:none;stroke:#b0b0b0;stroke-linecap:square;stroke-width:0.8;"/>
     </g>
     <g id="line2d_8">
      <g>
       <use style="stroke:#000000;stroke-width:0.8;" x="137.910857" xlink:href="#m17347b3c12" y="298.944"/>
      </g>
     </g>
     <g id="text_2">
      <!-- 2 -->
      <defs>
       <path d="M 19.1875 8.296875 
L 53.609375 8.296875 
L 53.609375 0 
L 7.328125 0 
L 7.328125 8.296875 
Q 12.9375 14.109375 22.625 23.890625 
Q 32.328125 33.6875 34.8125 36.53125 
Q 39.546875 41.84375 41.421875 45.53125 
Q 43.3125 49.21875 43.3125 52.78125 
Q 43.3125 58.59375 39.234375 62.25 
Q 35.15625 65.921875 28.609375 65.921875 
Q 23.96875 65.921875 18.8125 64.3125 
Q 13.671875 62.703125 7.8125 59.421875 
L 7.8125 69.390625 
Q 13.765625 71.78125 18.9375 73 
Q 24.125 74.21875 28.421875 74.21875 
Q 39.75 74.21875 46.484375 68.546875 
Q 53.21875 62.890625 53.21875 53.421875 
Q 53.21875 48.921875 51.53125 44.890625 
Q 49.859375 40.875 45.40625 35.40625 
Q 44.1875 33.984375 37.640625 27.21875 
Q 31.109375 20.453125 19.1875 8.296875 
z
" id="DejaVuSans-50"/>
      </defs>
      <g transform="translate(131.548357 321.140875)scale(0.2 -0.2)">
       <use xlink:href="#DejaVuSans-50"/>
      </g>
     </g>
    </g>
    <g id="xtick_3">
     <g id="line2d_9">
      <path clip-path="url(#p8c333e420b)" d="M 218.221714 298.944 
L 218.221714 27.648 
" style="fill:none;stroke:#b0b0b0;stroke-linecap:square;stroke-width:0.8;"/>
     </g>
     <g id="line2d_10">
      <g>
       <use style="stroke:#000000;stroke-width:0.8;" x="218.221714" xlink:href="#m17347b3c12" y="298.944"/>
      </g>
     </g>
     <g id="text_3">
      <!-- 4 -->
      <defs>
       <path d="M 37.796875 64.3125 
L 12.890625 25.390625 
L 37.796875 25.390625 
z
M 35.203125 72.90625 
L 47.609375 72.90625 
L 47.609375 25.390625 
L 58.015625 25.390625 
L 58.015625 17.1875 
L 47.609375 17.1875 
L 47.609375 0 
L 37.796875 0 
L 37.796875 17.1875 
L 4.890625 17.1875 
L 4.890625 26.703125 
z
" id="DejaVuSans-52"/>
      </defs>
      <g transform="translate(211.859214 321.140875)scale(0.2 -0.2)">
       <use xlink:href="#DejaVuSans-52"/>
      </g>
     </g>
    </g>
    <g id="xtick_4">
     <g id="line2d_11">
      <path clip-path="url(#p8c333e420b)" d="M 298.532571 298.944 
L 298.532571 27.648 
" style="fill:none;stroke:#b0b0b0;stroke-linecap:square;stroke-width:0.8;"/>
     </g>
     <g id="line2d_12">
      <g>
       <use style="stroke:#000000;stroke-width:0.8;" x="298.532571" xlink:href="#m17347b3c12" y="298.944"/>
      </g>
     </g>
     <g id="text_4">
      <!-- 6 -->
      <defs>
       <path d="M 33.015625 40.375 
Q 26.375 40.375 22.484375 35.828125 
Q 18.609375 31.296875 18.609375 23.390625 
Q 18.609375 15.53125 22.484375 10.953125 
Q 26.375 6.390625 33.015625 6.390625 
Q 39.65625 6.390625 43.53125 10.953125 
Q 47.40625 15.53125 47.40625 23.390625 
Q 47.40625 31.296875 43.53125 35.828125 
Q 39.65625 40.375 33.015625 40.375 
z
M 52.59375 71.296875 
L 52.59375 62.3125 
Q 48.875 64.0625 45.09375 64.984375 
Q 41.3125 65.921875 37.59375 65.921875 
Q 27.828125 65.921875 22.671875 59.328125 
Q 17.53125 52.734375 16.796875 39.40625 
Q 19.671875 43.65625 24.015625 45.921875 
Q 28.375 48.1875 33.59375 48.1875 
Q 44.578125 48.1875 50.953125 41.515625 
Q 57.328125 34.859375 57.328125 23.390625 
Q 57.328125 12.15625 50.6875 5.359375 
Q 44.046875 -1.421875 33.015625 -1.421875 
Q 20.359375 -1.421875 13.671875 8.265625 
Q 6.984375 17.96875 6.984375 36.375 
Q 6.984375 53.65625 15.1875 63.9375 
Q 23.390625 74.21875 37.203125 74.21875 
Q 40.921875 74.21875 44.703125 73.484375 
Q 48.484375 72.75 52.59375 71.296875 
z
" id="DejaVuSans-54"/>
      </defs>
      <g transform="translate(292.170071 321.140875)scale(0.2 -0.2)">
       <use xlink:href="#DejaVuSans-54"/>
      </g>
     </g>
    </g>
    <g id="xtick_5">
     <g id="line2d_13">
      <path clip-path="url(#p8c333e420b)" d="M 97.755429 298.944 
L 97.755429 27.648 
" style="fill:none;stroke:#b0b0b0;stroke-linecap:square;stroke-width:0.8;"/>
     </g>
     <g id="line2d_14">
      <defs>
       <path d="M 0 0 
L 0 2 
" id="m0676b5cbda" style="stroke:#000000;stroke-width:0.6;"/>
      </defs>
      <g>
       <use style="stroke:#000000;stroke-width:0.6;" x="97.755429" xlink:href="#m0676b5cbda" y="298.944"/>
      </g>
     </g>
    </g>
    <g id="xtick_6">
     <g id="line2d_15">
      <path clip-path="url(#p8c333e420b)" d="M 178.066286 298.944 
L 178.066286 27.648 
" style="fill:none;stroke:#b0b0b0;stroke-linecap:square;stroke-width:0.8;"/>
     </g>
     <g id="line2d_16">
      <g>
       <use style="stroke:#000000;stroke-width:0.6;" x="178.066286" xlink:href="#m0676b5cbda" y="298.944"/>
      </g>
     </g>
    </g>
    <g id="xtick_7">
     <g id="line2d_17">
      <path clip-path="url(#p8c333e420b)" d="M 258.377143 298.944 
L 258.377143 27.648 
" style="fill:none;stroke:#b0b0b0;stroke-linecap:square;stroke-width:0.8;"/>
     </g>
     <g id="line2d_18">
      <g>
       <use style="stroke:#000000;stroke-width:0.6;" x="258.377143" xlink:href="#m0676b5cbda" y="298.944"/>
      </g>
     </g>
    </g>
    <g id="xtick_8">
     <g id="line2d_19">
      <path clip-path="url(#p8c333e420b)" d="M 338.688 298.944 
L 338.688 27.648 
" style="fill:none;stroke:#b0b0b0;stroke-linecap:square;stroke-width:0.8;"/>
     </g>
     <g id="line2d_20">
      <g>
       <use style="stroke:#000000;stroke-width:0.6;" x="338.688" xlink:href="#m0676b5cbda" y="298.944"/>
      </g>
     </g>
    </g>
    <g id="text_5">
     <!-- log10(# f-evals / dimension) -->
     <defs>
      <path d="M 9.421875 75.984375 
L 18.40625 75.984375 
L 18.40625 0 
L 9.421875 0 
z
" id="DejaVuSans-108"/>
      <path d="M 30.609375 48.390625 
Q 23.390625 48.390625 19.1875 42.75 
Q 14.984375 37.109375 14.984375 27.296875 
Q 14.984375 17.484375 19.15625 11.84375 
Q 23.34375 6.203125 30.609375 6.203125 
Q 37.796875 6.203125 41.984375 11.859375 
Q 46.1875 17.53125 46.1875 27.296875 
Q 46.1875 37.015625 41.984375 42.703125 
Q 37.796875 48.390625 30.609375 48.390625 
z
M 30.609375 56 
Q 42.328125 56 49.015625 48.375 
Q 55.71875 40.765625 55.71875 27.296875 
Q 55.71875 13.875 49.015625 6.21875 
Q 42.328125 -1.421875 30.609375 -1.421875 
Q 18.84375 -1.421875 12.171875 6.21875 
Q 5.515625 13.875 5.515625 27.296875 
Q 5.515625 40.765625 12.171875 48.375 
Q 18.84375 56 30.609375 56 
z
" id="DejaVuSans-111"/>
      <path d="M 45.40625 27.984375 
Q 45.40625 37.75 41.375 43.109375 
Q 37.359375 48.484375 30.078125 48.484375 
Q 22.859375 48.484375 18.828125 43.109375 
Q 14.796875 37.75 14.796875 27.984375 
Q 14.796875 18.265625 18.828125 12.890625 
Q 22.859375 7.515625 30.078125 7.515625 
Q 37.359375 7.515625 41.375 12.890625 
Q 45.40625 18.265625 45.40625 27.984375 
z
M 54.390625 6.78125 
Q 54.390625 -7.171875 48.1875 -13.984375 
Q 42 -20.796875 29.203125 -20.796875 
Q 24.46875 -20.796875 20.265625 -20.09375 
Q 16.0625 -19.390625 12.109375 -17.921875 
L 12.109375 -9.1875 
Q 16.0625 -11.328125 19.921875 -12.34375 
Q 23.78125 -13.375 27.78125 -13.375 
Q 36.625 -13.375 41.015625 -8.765625 
Q 45.40625 -4.15625 45.40625 5.171875 
L 45.40625 9.625 
Q 42.625 4.78125 38.28125 2.390625 
Q 33.9375 0 27.875 0 
Q 17.828125 0 11.671875 7.65625 
Q 5.515625 15.328125 5.515625 27.984375 
Q 5.515625 40.671875 11.671875 48.328125 
Q 17.828125 56 27.875 56 
Q 33.9375 56 38.28125 53.609375 
Q 42.625 51.21875 45.40625 46.390625 
L 45.40625 54.6875 
L 54.390625 54.6875 
z
" id="DejaVuSans-103"/>
      <path d="M 12.40625 8.296875 
L 28.515625 8.296875 
L 28.515625 63.921875 
L 10.984375 60.40625 
L 10.984375 69.390625 
L 28.421875 72.90625 
L 38.28125 72.90625 
L 38.28125 8.296875 
L 54.390625 8.296875 
L 54.390625 0 
L 12.40625 0 
z
" id="DejaVuSans-49"/>
      <path d="M 31 75.875 
Q 24.46875 64.65625 21.28125 53.65625 
Q 18.109375 42.671875 18.109375 31.390625 
Q 18.109375 20.125 21.3125 9.0625 
Q 24.515625 -2 31 -13.1875 
L 23.1875 -13.1875 
Q 15.875 -1.703125 12.234375 9.375 
Q 8.59375 20.453125 8.59375 31.390625 
Q 8.59375 42.28125 12.203125 53.3125 
Q 15.828125 64.359375 23.1875 75.875 
z
" id="DejaVuSans-40"/>
      <path d="M 51.125 44 
L 36.921875 44 
L 32.8125 27.6875 
L 47.125 27.6875 
z
M 43.796875 71.78125 
L 38.71875 51.515625 
L 52.984375 51.515625 
L 58.109375 71.78125 
L 65.921875 71.78125 
L 60.890625 51.515625 
L 76.125 51.515625 
L 76.125 44 
L 58.984375 44 
L 54.984375 27.6875 
L 70.515625 27.6875 
L 70.515625 20.21875 
L 53.078125 20.21875 
L 48 0 
L 40.1875 0 
L 45.21875 20.21875 
L 30.90625 20.21875 
L 25.875 0 
L 18.015625 0 
L 23.09375 20.21875 
L 7.71875 20.21875 
L 7.71875 27.6875 
L 24.90625 27.6875 
L 29 44 
L 13.28125 44 
L 13.28125 51.515625 
L 30.90625 51.515625 
L 35.890625 71.78125 
z
" id="DejaVuSans-35"/>
      <path id="DejaVuSans-32"/>
      <path d="M 37.109375 75.984375 
L 37.109375 68.5 
L 28.515625 68.5 
Q 23.6875 68.5 21.796875 66.546875 
Q 19.921875 64.59375 19.921875 59.515625 
L 19.921875 54.6875 
L 34.71875 54.6875 
L 34.71875 47.703125 
L 19.921875 47.703125 
L 19.921875 0 
L 10.890625 0 
L 10.890625 47.703125 
L 2.296875 47.703125 
L 2.296875 54.6875 
L 10.890625 54.6875 
L 10.890625 58.5 
Q 10.890625 67.625 15.140625 71.796875 
Q 19.390625 75.984375 28.609375 75.984375 
z
" id="DejaVuSans-102"/>
      <path d="M 4.890625 31.390625 
L 31.203125 31.390625 
L 31.203125 23.390625 
L 4.890625 23.390625 
z
" id="DejaVuSans-45"/>
      <path d="M 56.203125 29.59375 
L 56.203125 25.203125 
L 14.890625 25.203125 
Q 15.484375 15.921875 20.484375 11.0625 
Q 25.484375 6.203125 34.421875 6.203125 
Q 39.59375 6.203125 44.453125 7.46875 
Q 49.3125 8.734375 54.109375 11.28125 
L 54.109375 2.78125 
Q 49.265625 0.734375 44.1875 -0.34375 
Q 39.109375 -1.421875 33.890625 -1.421875 
Q 20.796875 -1.421875 13.15625 6.1875 
Q 5.515625 13.8125 5.515625 26.8125 
Q 5.515625 40.234375 12.765625 48.109375 
Q 20.015625 56 32.328125 56 
Q 43.359375 56 49.78125 48.890625 
Q 56.203125 41.796875 56.203125 29.59375 
z
M 47.21875 32.234375 
Q 47.125 39.59375 43.09375 43.984375 
Q 39.0625 48.390625 32.421875 48.390625 
Q 24.90625 48.390625 20.390625 44.140625 
Q 15.875 39.890625 15.1875 32.171875 
z
" id="DejaVuSans-101"/>
      <path d="M 2.984375 54.6875 
L 12.5 54.6875 
L 29.59375 8.796875 
L 46.6875 54.6875 
L 56.203125 54.6875 
L 35.6875 0 
L 23.484375 0 
z
" id="DejaVuSans-118"/>
      <path d="M 34.28125 27.484375 
Q 23.390625 27.484375 19.1875 25 
Q 14.984375 22.515625 14.984375 16.5 
Q 14.984375 11.71875 18.140625 8.90625 
Q 21.296875 6.109375 26.703125 6.109375 
Q 34.1875 6.109375 38.703125 11.40625 
Q 43.21875 16.703125 43.21875 25.484375 
L 43.21875 27.484375 
z
M 52.203125 31.203125 
L 52.203125 0 
L 43.21875 0 
L 43.21875 8.296875 
Q 40.140625 3.328125 35.546875 0.953125 
Q 30.953125 -1.421875 24.3125 -1.421875 
Q 15.921875 -1.421875 10.953125 3.296875 
Q 6 8.015625 6 15.921875 
Q 6 25.140625 12.171875 29.828125 
Q 18.359375 34.515625 30.609375 34.515625 
L 43.21875 34.515625 
L 43.21875 35.40625 
Q 43.21875 41.609375 39.140625 45 
Q 35.0625 48.390625 27.6875 48.390625 
Q 23 48.390625 18.546875 47.265625 
Q 14.109375 46.140625 10.015625 43.890625 
L 10.015625 52.203125 
Q 14.9375 54.109375 19.578125 55.046875 
Q 24.21875 56 28.609375 56 
Q 40.484375 56 46.34375 49.84375 
Q 52.203125 43.703125 52.203125 31.203125 
z
" id="DejaVuSans-97"/>
      <path d="M 44.28125 53.078125 
L 44.28125 44.578125 
Q 40.484375 46.53125 36.375 47.5 
Q 32.28125 48.484375 27.875 48.484375 
Q 21.1875 48.484375 17.84375 46.4375 
Q 14.5 44.390625 14.5 40.28125 
Q 14.5 37.15625 16.890625 35.375 
Q 19.28125 33.59375 26.515625 31.984375 
L 29.59375 31.296875 
Q 39.15625 29.25 43.1875 25.515625 
Q 47.21875 21.78125 47.21875 15.09375 
Q 47.21875 7.46875 41.1875 3.015625 
Q 35.15625 -1.421875 24.609375 -1.421875 
Q 20.21875 -1.421875 15.453125 -0.5625 
Q 10.6875 0.296875 5.421875 2 
L 5.421875 11.28125 
Q 10.40625 8.6875 15.234375 7.390625 
Q 20.0625 6.109375 24.8125 6.109375 
Q 31.15625 6.109375 34.5625 8.28125 
Q 37.984375 10.453125 37.984375 14.40625 
Q 37.984375 18.0625 35.515625 20.015625 
Q 33.0625 21.96875 24.703125 23.78125 
L 21.578125 24.515625 
Q 13.234375 26.265625 9.515625 29.90625 
Q 5.8125 33.546875 5.8125 39.890625 
Q 5.8125 47.609375 11.28125 51.796875 
Q 16.75 56 26.8125 56 
Q 31.78125 56 36.171875 55.265625 
Q 40.578125 54.546875 44.28125 53.078125 
z
" id="DejaVuSans-115"/>
      <path d="M 25.390625 72.90625 
L 33.6875 72.90625 
L 8.296875 -9.28125 
L 0 -9.28125 
z
" id="DejaVuSans-47"/>
      <path d="M 45.40625 46.390625 
L 45.40625 75.984375 
L 54.390625 75.984375 
L 54.390625 0 
L 45.40625 0 
L 45.40625 8.203125 
Q 42.578125 3.328125 38.25 0.953125 
Q 33.9375 -1.421875 27.875 -1.421875 
Q 17.96875 -1.421875 11.734375 6.484375 
Q 5.515625 14.40625 5.515625 27.296875 
Q 5.515625 40.1875 11.734375 48.09375 
Q 17.96875 56 27.875 56 
Q 33.9375 56 38.25 53.625 
Q 42.578125 51.265625 45.40625 46.390625 
z
M 14.796875 27.296875 
Q 14.796875 17.390625 18.875 11.75 
Q 22.953125 6.109375 30.078125 6.109375 
Q 37.203125 6.109375 41.296875 11.75 
Q 45.40625 17.390625 45.40625 27.296875 
Q 45.40625 37.203125 41.296875 42.84375 
Q 37.203125 48.484375 30.078125 48.484375 
Q 22.953125 48.484375 18.875 42.84375 
Q 14.796875 37.203125 14.796875 27.296875 
z
" id="DejaVuSans-100"/>
      <path d="M 9.421875 54.6875 
L 18.40625 54.6875 
L 18.40625 0 
L 9.421875 0 
z
M 9.421875 75.984375 
L 18.40625 75.984375 
L 18.40625 64.59375 
L 9.421875 64.59375 
z
" id="DejaVuSans-105"/>
      <path d="M 52 44.1875 
Q 55.375 50.25 60.0625 53.125 
Q 64.75 56 71.09375 56 
Q 79.640625 56 84.28125 50.015625 
Q 88.921875 44.046875 88.921875 33.015625 
L 88.921875 0 
L 79.890625 0 
L 79.890625 32.71875 
Q 79.890625 40.578125 77.09375 44.375 
Q 74.3125 48.1875 68.609375 48.1875 
Q 61.625 48.1875 57.5625 43.546875 
Q 53.515625 38.921875 53.515625 30.90625 
L 53.515625 0 
L 44.484375 0 
L 44.484375 32.71875 
Q 44.484375 40.625 41.703125 44.40625 
Q 38.921875 48.1875 33.109375 48.1875 
Q 26.21875 48.1875 22.15625 43.53125 
Q 18.109375 38.875 18.109375 30.90625 
L 18.109375 0 
L 9.078125 0 
L 9.078125 54.6875 
L 18.109375 54.6875 
L 18.109375 46.1875 
Q 21.1875 51.21875 25.484375 53.609375 
Q 29.78125 56 35.6875 56 
Q 41.65625 56 45.828125 52.96875 
Q 50 49.953125 52 44.1875 
z
" id="DejaVuSans-109"/>
      <path d="M 54.890625 33.015625 
L 54.890625 0 
L 45.90625 0 
L 45.90625 32.71875 
Q 45.90625 40.484375 42.875 44.328125 
Q 39.84375 48.1875 33.796875 48.1875 
Q 26.515625 48.1875 22.3125 43.546875 
Q 18.109375 38.921875 18.109375 30.90625 
L 18.109375 0 
L 9.078125 0 
L 9.078125 54.6875 
L 18.109375 54.6875 
L 18.109375 46.1875 
Q 21.34375 51.125 25.703125 53.5625 
Q 30.078125 56 35.796875 56 
Q 45.21875 56 50.046875 50.171875 
Q 54.890625 44.34375 54.890625 33.015625 
z
" id="DejaVuSans-110"/>
      <path d="M 8.015625 75.875 
L 15.828125 75.875 
Q 23.140625 64.359375 26.78125 53.3125 
Q 30.421875 42.28125 30.421875 31.390625 
Q 30.421875 20.453125 26.78125 9.375 
Q 23.140625 -1.703125 15.828125 -13.1875 
L 8.015625 -13.1875 
Q 14.5 -2 17.703125 9.0625 
Q 20.90625 20.125 20.90625 31.390625 
Q 20.90625 42.671875 17.703125 53.65625 
Q 14.5 64.65625 8.015625 75.875 
z
" id="DejaVuSans-41"/>
     </defs>
     <g transform="translate(77.764078 342.217594)scale(0.17 -0.17)">
      <use xlink:href="#DejaVuSans-108"/>
      <use x="27.783203" xlink:href="#DejaVuSans-111"/>
      <use x="88.964844" xlink:href="#DejaVuSans-103"/>
      <use x="152.441406" xlink:href="#DejaVuSans-49"/>
      <use x="216.064453" xlink:href="#DejaVuSans-48"/>
      <use x="279.6875" xlink:href="#DejaVuSans-40"/>
      <use x="318.701172" xlink:href="#DejaVuSans-35"/>
      <use x="402.490234" xlink:href="#DejaVuSans-32"/>
      <use x="434.277344" xlink:href="#DejaVuSans-102"/>
      <use x="463.982422" xlink:href="#DejaVuSans-45"/>
      <use x="500.066406" xlink:href="#DejaVuSans-101"/>
      <use x="561.589844" xlink:href="#DejaVuSans-118"/>
      <use x="620.769531" xlink:href="#DejaVuSans-97"/>
      <use x="682.048828" xlink:href="#DejaVuSans-108"/>
      <use x="709.832031" xlink:href="#DejaVuSans-115"/>
      <use x="761.931641" xlink:href="#DejaVuSans-32"/>
      <use x="793.71875" xlink:href="#DejaVuSans-47"/>
      <use x="827.410156" xlink:href="#DejaVuSans-32"/>
      <use x="859.197266" xlink:href="#DejaVuSans-100"/>
      <use x="922.673828" xlink:href="#DejaVuSans-105"/>
      <use x="950.457031" xlink:href="#DejaVuSans-109"/>
      <use x="1047.869141" xlink:href="#DejaVuSans-101"/>
      <use x="1109.392578" xlink:href="#DejaVuSans-110"/>
      <use x="1172.771484" xlink:href="#DejaVuSans-115"/>
      <use x="1224.871094" xlink:href="#DejaVuSans-105"/>
      <use x="1252.654297" xlink:href="#DejaVuSans-111"/>
      <use x="1313.835938" xlink:href="#DejaVuSans-110"/>
      <use x="1377.214844" xlink:href="#DejaVuSans-41"/>
     </g>
    </g>
   </g>
   <g id="matplotlib.axis_2">
    <g id="ytick_1">
     <g id="line2d_21">
      <path clip-path="url(#p8c333e420b)" d="M 57.6 298.944 
L 338.688 298.944 
" style="fill:none;stroke:#b0b0b0;stroke-linecap:square;stroke-width:0.8;"/>
     </g>
     <g id="line2d_22">
      <defs>
       <path d="M 0 0 
L -3.5 0 
" id="m3bba4add31" style="stroke:#000000;stroke-width:0.8;"/>
      </defs>
      <g>
       <use style="stroke:#000000;stroke-width:0.8;" x="57.6" xlink:href="#m3bba4add31" y="298.944"/>
      </g>
     </g>
     <g id="text_6">
      <!-- 0.0 -->
      <defs>
       <path d="M 10.6875 12.40625 
L 21 12.40625 
L 21 0 
L 10.6875 0 
z
" id="DejaVuSans-46"/>
      </defs>
      <g transform="translate(25.155 305.02275)scale(0.16 -0.16)">
       <use xlink:href="#DejaVuSans-48"/>
       <use x="63.623047" xlink:href="#DejaVuSans-46"/>
       <use x="95.410156" xlink:href="#DejaVuSans-48"/>
      </g>
     </g>
    </g>
    <g id="ytick_2">
     <g id="line2d_23">
      <path clip-path="url(#p8c333e420b)" d="M 57.6 245.22202 
L 338.688 245.22202 
" style="fill:none;stroke:#b0b0b0;stroke-linecap:square;stroke-width:0.8;"/>
     </g>
     <g id="line2d_24">
      <g>
       <use style="stroke:#000000;stroke-width:0.8;" x="57.6" xlink:href="#m3bba4add31" y="245.22202"/>
      </g>
     </g>
     <g id="text_7">
      <!-- 0.2 -->
      <g transform="translate(25.155 251.30077)scale(0.16 -0.16)">
       <use xlink:href="#DejaVuSans-48"/>
       <use x="63.623047" xlink:href="#DejaVuSans-46"/>
       <use x="95.410156" xlink:href="#DejaVuSans-50"/>
      </g>
     </g>
    </g>
    <g id="ytick_3">
     <g id="line2d_25">
      <path clip-path="url(#p8c333e420b)" d="M 57.6 191.50004 
L 338.688 191.50004 
" style="fill:none;stroke:#b0b0b0;stroke-linecap:square;stroke-width:0.8;"/>
     </g>
     <g id="line2d_26">
      <g>
       <use style="stroke:#000000;stroke-width:0.8;" x="57.6" xlink:href="#m3bba4add31" y="191.50004"/>
      </g>
     </g>
     <g id="text_8">
      <!-- 0.4 -->
      <g transform="translate(25.155 197.57879)scale(0.16 -0.16)">
       <use xlink:href="#DejaVuSans-48"/>
       <use x="63.623047" xlink:href="#DejaVuSans-46"/>
       <use x="95.410156" xlink:href="#DejaVuSans-52"/>
      </g>
     </g>
    </g>
    <g id="ytick_4">
     <g id="line2d_27">
      <path clip-path="url(#p8c333e420b)" d="M 57.6 137.778059 
L 338.688 137.778059 
" style="fill:none;stroke:#b0b0b0;stroke-linecap:square;stroke-width:0.8;"/>
     </g>
     <g id="line2d_28">
      <g>
       <use style="stroke:#000000;stroke-width:0.8;" x="57.6" xlink:href="#m3bba4add31" y="137.778059"/>
      </g>
     </g>
     <g id="text_9">
      <!-- 0.6 -->
      <g transform="translate(25.155 143.856809)scale(0.16 -0.16)">
       <use xlink:href="#DejaVuSans-48"/>
       <use x="63.623047" xlink:href="#DejaVuSans-46"/>
       <use x="95.410156" xlink:href="#DejaVuSans-54"/>
      </g>
     </g>
    </g>
    <g id="ytick_5">
     <g id="line2d_29">
      <path clip-path="url(#p8c333e420b)" d="M 57.6 84.056079 
L 338.688 84.056079 
" style="fill:none;stroke:#b0b0b0;stroke-linecap:square;stroke-width:0.8;"/>
     </g>
     <g id="line2d_30">
      <g>
       <use style="stroke:#000000;stroke-width:0.8;" x="57.6" xlink:href="#m3bba4add31" y="84.056079"/>
      </g>
     </g>
     <g id="text_10">
      <!-- 0.8 -->
      <defs>
       <path d="M 31.78125 34.625 
Q 24.75 34.625 20.71875 30.859375 
Q 16.703125 27.09375 16.703125 20.515625 
Q 16.703125 13.921875 20.71875 10.15625 
Q 24.75 6.390625 31.78125 6.390625 
Q 38.8125 6.390625 42.859375 10.171875 
Q 46.921875 13.96875 46.921875 20.515625 
Q 46.921875 27.09375 42.890625 30.859375 
Q 38.875 34.625 31.78125 34.625 
z
M 21.921875 38.8125 
Q 15.578125 40.375 12.03125 44.71875 
Q 8.5 49.078125 8.5 55.328125 
Q 8.5 64.0625 14.71875 69.140625 
Q 20.953125 74.21875 31.78125 74.21875 
Q 42.671875 74.21875 48.875 69.140625 
Q 55.078125 64.0625 55.078125 55.328125 
Q 55.078125 49.078125 51.53125 44.71875 
Q 48 40.375 41.703125 38.8125 
Q 48.828125 37.15625 52.796875 32.3125 
Q 56.78125 27.484375 56.78125 20.515625 
Q 56.78125 9.90625 50.3125 4.234375 
Q 43.84375 -1.421875 31.78125 -1.421875 
Q 19.734375 -1.421875 13.25 4.234375 
Q 6.78125 9.90625 6.78125 20.515625 
Q 6.78125 27.484375 10.78125 32.3125 
Q 14.796875 37.15625 21.921875 38.8125 
z
M 18.3125 54.390625 
Q 18.3125 48.734375 21.84375 45.5625 
Q 25.390625 42.390625 31.78125 42.390625 
Q 38.140625 42.390625 41.71875 45.5625 
Q 45.3125 48.734375 45.3125 54.390625 
Q 45.3125 60.0625 41.71875 63.234375 
Q 38.140625 66.40625 31.78125 66.40625 
Q 25.390625 66.40625 21.84375 63.234375 
Q 18.3125 60.0625 18.3125 54.390625 
z
" id="DejaVuSans-56"/>
      </defs>
      <g transform="translate(25.155 90.134829)scale(0.16 -0.16)">
       <use xlink:href="#DejaVuSans-48"/>
       <use x="63.623047" xlink:href="#DejaVuSans-46"/>
       <use x="95.410156" xlink:href="#DejaVuSans-56"/>
      </g>
     </g>
    </g>
    <g id="ytick_6">
     <g id="line2d_31">
      <path clip-path="url(#p8c333e420b)" d="M 57.6 30.334099 
L 338.688 30.334099 
" style="fill:none;stroke:#b0b0b0;stroke-linecap:square;stroke-width:0.8;"/>
     </g>
     <g id="line2d_32">
      <g>
       <use style="stroke:#000000;stroke-width:0.8;" x="57.6" xlink:href="#m3bba4add31" y="30.334099"/>
      </g>
     </g>
     <g id="text_11">
      <!-- 1.0 -->
      <g transform="translate(25.155 36.412849)scale(0.16 -0.16)">
       <use xlink:href="#DejaVuSans-49"/>
       <use x="63.623047" xlink:href="#DejaVuSans-46"/>
       <use x="95.410156" xlink:href="#DejaVuSans-48"/>
      </g>
     </g>
    </g>
    <g id="text_12">
     <!-- Fraction of function,target pairs -->
     <defs>
      <path d="M 9.8125 72.90625 
L 51.703125 72.90625 
L 51.703125 64.59375 
L 19.671875 64.59375 
L 19.671875 43.109375 
L 48.578125 43.109375 
L 48.578125 34.8125 
L 19.671875 34.8125 
L 19.671875 0 
L 9.8125 0 
z
" id="DejaVuSans-70"/>
      <path d="M 41.109375 46.296875 
Q 39.59375 47.171875 37.8125 47.578125 
Q 36.03125 48 33.890625 48 
Q 26.265625 48 22.1875 43.046875 
Q 18.109375 38.09375 18.109375 28.8125 
L 18.109375 0 
L 9.078125 0 
L 9.078125 54.6875 
L 18.109375 54.6875 
L 18.109375 46.1875 
Q 20.953125 51.171875 25.484375 53.578125 
Q 30.03125 56 36.53125 56 
Q 37.453125 56 38.578125 55.875 
Q 39.703125 55.765625 41.0625 55.515625 
z
" id="DejaVuSans-114"/>
      <path d="M 48.78125 52.59375 
L 48.78125 44.1875 
Q 44.96875 46.296875 41.140625 47.34375 
Q 37.3125 48.390625 33.40625 48.390625 
Q 24.65625 48.390625 19.8125 42.84375 
Q 14.984375 37.3125 14.984375 27.296875 
Q 14.984375 17.28125 19.8125 11.734375 
Q 24.65625 6.203125 33.40625 6.203125 
Q 37.3125 6.203125 41.140625 7.25 
Q 44.96875 8.296875 48.78125 10.40625 
L 48.78125 2.09375 
Q 45.015625 0.34375 40.984375 -0.53125 
Q 36.96875 -1.421875 32.421875 -1.421875 
Q 20.0625 -1.421875 12.78125 6.34375 
Q 5.515625 14.109375 5.515625 27.296875 
Q 5.515625 40.671875 12.859375 48.328125 
Q 20.21875 56 33.015625 56 
Q 37.15625 56 41.109375 55.140625 
Q 45.0625 54.296875 48.78125 52.59375 
z
" id="DejaVuSans-99"/>
      <path d="M 18.3125 70.21875 
L 18.3125 54.6875 
L 36.8125 54.6875 
L 36.8125 47.703125 
L 18.3125 47.703125 
L 18.3125 18.015625 
Q 18.3125 11.328125 20.140625 9.421875 
Q 21.96875 7.515625 27.59375 7.515625 
L 36.8125 7.515625 
L 36.8125 0 
L 27.59375 0 
Q 17.1875 0 13.234375 3.875 
Q 9.28125 7.765625 9.28125 18.015625 
L 9.28125 47.703125 
L 2.6875 47.703125 
L 2.6875 54.6875 
L 9.28125 54.6875 
L 9.28125 70.21875 
z
" id="DejaVuSans-116"/>
      <path d="M 8.5 21.578125 
L 8.5 54.6875 
L 17.484375 54.6875 
L 17.484375 21.921875 
Q 17.484375 14.15625 20.5 10.265625 
Q 23.53125 6.390625 29.59375 6.390625 
Q 36.859375 6.390625 41.078125 11.03125 
Q 45.3125 15.671875 45.3125 23.6875 
L 45.3125 54.6875 
L 54.296875 54.6875 
L 54.296875 0 
L 45.3125 0 
L 45.3125 8.40625 
Q 42.046875 3.421875 37.71875 1 
Q 33.40625 -1.421875 27.6875 -1.421875 
Q 18.265625 -1.421875 13.375 4.4375 
Q 8.5 10.296875 8.5 21.578125 
z
M 31.109375 56 
z
" id="DejaVuSans-117"/>
      <path d="M 11.71875 12.40625 
L 22.015625 12.40625 
L 22.015625 4 
L 14.015625 -11.625 
L 7.71875 -11.625 
L 11.71875 4 
z
" id="DejaVuSans-44"/>
      <path d="M 18.109375 8.203125 
L 18.109375 -20.796875 
L 9.078125 -20.796875 
L 9.078125 54.6875 
L 18.109375 54.6875 
L 18.109375 46.390625 
Q 20.953125 51.265625 25.265625 53.625 
Q 29.59375 56 35.59375 56 
Q 45.5625 56 51.78125 48.09375 
Q 58.015625 40.1875 58.015625 27.296875 
Q 58.015625 14.40625 51.78125 6.484375 
Q 45.5625 -1.421875 35.59375 -1.421875 
Q 29.59375 -1.421875 25.265625 0.953125 
Q 20.953125 3.328125 18.109375 8.203125 
z
M 48.6875 27.296875 
Q 48.6875 37.203125 44.609375 42.84375 
Q 40.53125 48.484375 33.40625 48.484375 
Q 26.265625 48.484375 22.1875 42.84375 
Q 18.109375 37.203125 18.109375 27.296875 
Q 18.109375 17.390625 22.1875 11.75 
Q 26.265625 6.109375 33.40625 6.109375 
Q 40.53125 6.109375 44.609375 11.75 
Q 48.6875 17.390625 48.6875 27.296875 
z
" id="DejaVuSans-112"/>
     </defs>
     <g transform="translate(17.619531 297.681)rotate(-90)scale(0.17 -0.17)">
      <use xlink:href="#DejaVuSans-70"/>
      <use x="50.269531" xlink:href="#DejaVuSans-114"/>
      <use x="91.382812" xlink:href="#DejaVuSans-97"/>
      <use x="152.662109" xlink:href="#DejaVuSans-99"/>
      <use x="207.642578" xlink:href="#DejaVuSans-116"/>
      <use x="246.851562" xlink:href="#DejaVuSans-105"/>
      <use x="274.634766" xlink:href="#DejaVuSans-111"/>
      <use x="335.816406" xlink:href="#DejaVuSans-110"/>
      <use x="399.195312" xlink:href="#DejaVuSans-32"/>
      <use x="430.982422" xlink:href="#DejaVuSans-111"/>
      <use x="492.164062" xlink:href="#DejaVuSans-102"/>
      <use x="527.369141" xlink:href="#DejaVuSans-32"/>
      <use x="559.15625" xlink:href="#DejaVuSans-102"/>
      <use x="594.361328" xlink:href="#DejaVuSans-117"/>
      <use x="657.740234" xlink:href="#DejaVuSans-110"/>
      <use x="721.119141" xlink:href="#DejaVuSans-99"/>
      <use x="776.099609" xlink:href="#DejaVuSans-116"/>
      <use x="815.308594" xlink:href="#DejaVuSans-105"/>
      <use x="843.091797" xlink:href="#DejaVuSans-111"/>
      <use x="904.273438" xlink:href="#DejaVuSans-110"/>
      <use x="967.652344" xlink:href="#DejaVuSans-44"/>
      <use x="999.439453" xlink:href="#DejaVuSans-116"/>
      <use x="1038.648438" xlink:href="#DejaVuSans-97"/>
      <use x="1099.927734" xlink:href="#DejaVuSans-114"/>
      <use x="1139.291016" xlink:href="#DejaVuSans-103"/>
      <use x="1202.767578" xlink:href="#DejaVuSans-101"/>
      <use x="1264.291016" xlink:href="#DejaVuSans-116"/>
      <use x="1303.5" xlink:href="#DejaVuSans-32"/>
      <use x="1335.287109" xlink:href="#DejaVuSans-112"/>
      <use x="1398.763672" xlink:href="#DejaVuSans-97"/>
      <use x="1460.042969" xlink:href="#DejaVuSans-105"/>
      <use x="1487.826172" xlink:href="#DejaVuSans-114"/>
      <use x="1528.939453" xlink:href="#DejaVuSans-115"/>
     </g>
    </g>
   </g>
   <g id="line2d_33">
    <defs>
     <path d="M 0 1.5 
C 0.397805 1.5 0.77937 1.341951 1.06066 1.06066 
C 1.341951 0.77937 1.5 0.397805 1.5 0 
C 1.5 -0.397805 1.341951 -0.77937 1.06066 -1.06066 
C 0.77937 -1.341951 0.397805 -1.5 0 -1.5 
C -0.397805 -1.5 -0.77937 -1.341951 -1.06066 -1.06066 
C -1.341951 -0.77937 -1.5 -0.397805 -1.5 0 
C -1.5 0.397805 -1.341951 0.77937 -1.06066 1.06066 
C -0.77937 1.341951 -0.397805 1.5 0 1.5 
z
" id="mb6e516f565" style="stroke:#f5deb3;"/>
    </defs>
    <g>
     <use style="fill:#f5deb3;stroke:#f5deb3;" x="181.197333" xlink:href="#mb6e516f565" y="30.334099"/>
     <use style="fill:#f5deb3;stroke:#f5deb3;" x="181.197333" xlink:href="#mb6e516f565" y="30.334099"/>
    </g>
   </g>
   <g id="line2d_34">
    <defs>
     <path d="M 0 1.5 
C 0.397805 1.5 0.77937 1.341951 1.06066 1.06066 
C 1.341951 0.77937 1.5 0.397805 1.5 0 
C 1.5 -0.397805 1.341951 -0.77937 1.06066 -1.06066 
C 0.77937 -1.341951 0.397805 -1.5 0 -1.5 
C -0.397805 -1.5 -0.77937 -1.341951 -1.06066 -1.06066 
C -1.341951 -0.77937 -1.5 -0.397805 -1.5 0 
C -1.5 0.397805 -1.341951 0.77937 -1.06066 1.06066 
C -0.77937 1.341951 -0.397805 1.5 0 1.5 
z
" id="m03466a742b" style="stroke:#ff00ff;"/>
    </defs>
    <g>
     <use style="fill:#ff00ff;stroke:#ff00ff;" x="246.23944" xlink:href="#m03466a742b" y="30.334099"/>
     <use style="fill:#ff00ff;stroke:#ff00ff;" x="246.23944" xlink:href="#m03466a742b" y="30.334099"/>
    </g>
   </g>
   <g id="line2d_35">
    <path d="M 38.440992 298.944 
L 38.440992 283.143418 
L 50.52898 283.143418 
L 50.52898 281.036673 
L 57.6 281.036673 
L 57.6 274.189754 
L 62.616969 274.189754 
L 62.616969 272.08301 
L 69.687988 272.08301 
L 69.687988 271.029638 
L 72.376266 271.029638 
L 72.376266 270.502952 
L 74.704957 270.502952 
L 74.704957 269.449579 
L 78.59642 269.449579 
L 78.59642 268.396207 
L 80.258561 268.396207 
L 80.258561 265.236091 
L 84.464254 265.236091 
L 84.464254 263.656033 
L 86.792945 263.656033 
L 86.792945 263.129347 
L 87.850195 263.129347 
L 87.850195 262.075974 
L 88.846997 262.075974 
L 88.846997 261.549288 
L 93.863965 261.549288 
L 93.863965 259.96923 
L 97.16421 259.96923 
L 97.16421 259.442544 
L 102.330873 259.442544 
L 102.330873 258.389172 
L 108.640231 258.389172 
L 108.640231 257.862486 
L 109.843417 257.862486 
L 109.843417 257.3358 
L 111.505558 257.3358 
L 111.505558 256.809114 
L 114.860386 256.809114 
L 114.860386 255.755741 
L 115.917635 255.755741 
L 115.917635 255.229055 
L 119.267333 255.229055 
L 119.267333 254.702369 
L 120.093994 254.702369 
L 120.093994 254.175683 
L 121.931406 254.175683 
L 121.931406 253.122311 
L 122.362027 253.122311 
L 122.362027 252.595625 
L 123.056911 252.595625 
L 123.056911 252.068939 
L 123.327293 252.068939 
L 123.327293 251.542253 
L 125.110962 251.542253 
L 125.110962 250.488881 
L 125.23165 250.488881 
L 125.23165 249.435508 
L 129.099042 249.435508 
L 129.099042 248.908822 
L 129.574256 248.908822 
L 129.574256 248.382136 
L 129.853291 248.382136 
L 129.853291 247.85545 
L 130.664567 247.85545 
L 130.664567 247.328764 
L 131.856005 247.328764 
L 131.856005 245.748706 
L 132.422528 245.748706 
L 132.422528 245.22202 
L 135.348078 245.22202 
L 135.348078 244.695334 
L 135.482227 244.695334 
L 135.482227 243.641962 
L 136.456742 243.641962 
L 136.456742 243.115275 
L 136.769843 243.115275 
L 136.769843 242.588589 
L 137.558536 242.588589 
L 137.558536 242.061903 
L 138.981779 242.061903 
L 138.981779 241.535217 
L 139.520072 241.535217 
L 139.520072 241.008531 
L 139.835248 241.008531 
L 139.835248 240.481845 
L 140.39868 240.481845 
L 140.39868 239.955159 
L 141.041904 239.955159 
L 141.041904 239.428473 
L 141.80232 239.428473 
L 141.80232 238.901787 
L 142.033307 238.901787 
L 142.033307 238.375101 
L 142.796538 238.375101 
L 142.884173 237.321729 
L 143.014805 237.321729 
L 143.014805 236.795043 
L 143.273169 236.795043 
L 143.273169 236.268356 
L 143.985075 236.268356 
L 143.985075 235.214984 
L 144.589967 235.214984 
L 144.589967 234.161612 
L 145.365173 234.161612 
L 145.365173 233.634926 
L 146.502522 233.634926 
L 146.502522 233.10824 
L 146.714338 233.10824 
L 146.714338 232.054868 
L 147.50327 232.054868 
L 147.50327 231.528182 
L 148.031773 231.528182 
L 148.031773 231.001496 
L 148.48143 231.001496 
L 148.48143 229.948123 
L 148.733265 229.948123 
L 148.733265 229.421437 
L 149.073705 229.421437 
L 149.104327 227.841379 
L 149.646525 227.841379 
L 149.646525 227.314693 
L 149.998846 227.314693 
L 149.998846 226.788007 
L 150.172372 226.788007 
L 150.172372 226.261321 
L 150.570677 226.261321 
L 150.570677 225.734635 
L 150.682827 225.734635 
L 150.682827 225.207949 
L 151.634543 225.207949 
L 151.634543 224.154577 
L 151.975216 224.154577 
L 151.975216 223.627891 
L 152.662192 223.627891 
L 152.687123 221.521146 
L 152.786492 221.521146 
L 152.786492 220.99446 
L 153.514245 220.99446 
L 153.514245 220.467774 
L 154.167129 220.467774 
L 154.167129 219.414402 
L 154.46214 219.414402 
L 154.46214 218.887716 
L 154.663493 218.887716 
L 154.663493 218.36103 
L 154.972161 218.36103 
L 155.059358 216.780971 
L 155.232454 216.780971 
L 155.232454 216.254285 
L 155.446436 216.254285 
L 155.446436 215.727599 
L 155.741666 215.727599 
L 155.741666 215.200913 
L 156.277034 215.200913 
L 156.277034 214.674227 
L 156.658127 214.674227 
L 156.658127 213.620855 
L 156.855406 213.620855 
L 156.855406 213.094169 
L 157.319964 213.094169 
L 157.377174 209.934052 
L 157.434196 209.934052 
L 157.434196 209.407366 
L 158.51933 209.407366 
L 158.554957 208.353994 
L 159.028927 208.353994 
L 159.028927 207.300622 
L 160.152267 207.300622 
L 160.184713 205.720564 
L 160.265562 205.720564 
L 160.265562 205.193878 
L 160.727241 205.193878 
L 160.727241 204.140506 
L 161.161694 204.140506 
L 161.161694 203.613819 
L 161.39006 203.613819 
L 161.39006 202.560447 
L 162.231559 202.560447 
L 162.231559 202.033761 
L 162.474869 202.033761 
L 162.474869 200.453703 
L 162.672723 200.453703 
L 162.672723 199.927017 
L 163.402046 199.927017 
L 163.428979 198.346959 
L 163.642961 198.346959 
L 163.642961 196.240214 
L 163.788565 196.240214 
L 163.841212 194.660156 
L 163.985177 194.660156 
L 164.076176 193.080098 
L 164.295217 193.080098 
L 164.295217 192.553412 
L 164.435497 192.553412 
L 164.486229 190.973354 
L 164.787563 190.973354 
L 164.787563 190.446667 
L 165.083779 190.446667 
L 165.083779 189.919981 
L 165.779524 189.919981 
L 165.885039 188.866609 
L 165.920069 188.866609 
L 166.02474 186.759865 
L 166.266556 186.759865 
L 166.357802 184.653121 
L 166.595075 184.653121 
L 166.595075 183.599748 
L 167.363449 183.599748 
L 167.363449 183.073062 
L 167.59811 183.073062 
L 167.59811 182.546376 
L 167.756314 182.546376 
L 167.756314 180.966318 
L 168.01684 180.966318 
L 168.058166 178.859574 
L 168.415645 178.859574 
L 168.48627 177.279515 
L 168.596677 177.279515 
L 168.70639 175.699457 
L 168.972794 175.699457 
L 168.972794 175.172771 
L 169.360135 175.172771 
L 169.369709 173.066027 
L 169.701534 173.066027 
L 169.739058 172.012655 
L 170.346825 172.012655 
L 170.455087 169.90591 
L 170.544796 169.90591 
L 170.544796 169.379224 
L 170.916612 169.379224 
L 170.916612 168.852538 
L 171.047505 168.852538 
L 171.047505 168.325852 
L 171.263501 168.325852 
L 171.289242 167.27248 
L 171.687629 167.27248 
L 171.746192 166.219108 
L 171.945501 166.219108 
L 171.945501 165.692422 
L 172.06072 165.692422 
L 172.06072 164.112363 
L 172.232135 164.112363 
L 172.232135 163.058991 
L 172.353551 163.058991 
L 172.353551 162.532305 
L 172.482136 162.532305 
L 172.498143 160.952247 
L 172.60978 160.952247 
L 172.657407 158.318817 
L 173.00275 158.318817 
L 173.00275 157.79213 
L 173.545979 157.79213 
L 173.60614 156.738758 
L 173.710926 156.738758 
L 173.770522 154.632014 
L 174.036212 154.632014 
L 174.050855 153.578642 
L 174.26903 153.578642 
L 174.26903 152.52527 
L 174.463082 152.52527 
L 174.47737 151.471897 
L 174.844824 151.471897 
L 174.844824 150.945211 
L 175.032607 150.945211 
L 175.142939 147.785095 
L 175.259407 147.785095 
L 175.259407 147.258409 
L 175.817135 147.258409 
L 175.817135 146.731723 
L 175.955464 146.731723 
L 175.955464 146.205037 
L 176.144704 146.205037 
L 176.235332 144.098292 
L 176.338333 144.098292 
L 176.402401 142.518234 
L 176.586878 142.518234 
L 176.650041 140.938176 
L 176.706692 140.938176 
L 176.706692 140.41149 
L 176.819447 140.41149 
L 176.881775 137.251373 
L 176.94388 137.251373 
L 177.036626 136.198001 
L 177.055116 136.198001 
L 177.122746 133.564571 
L 177.790908 133.564571 
L 177.867512 131.457826 
L 177.949635 131.457826 
L 178.031372 129.351082 
L 178.10693 129.351082 
L 178.199477 128.29771 
L 178.417327 128.29771 
L 178.417327 127.771024 
L 178.598693 127.771024 
L 178.60433 126.717652 
L 178.716697 126.717652 
L 178.806073 125.137593 
L 178.83947 125.137593 
L 178.83947 124.610907 
L 178.999998 124.610907 
L 179.027527 123.557535 
L 179.235335 123.557535 
L 179.295031 122.504163 
L 179.542477 122.504163 
L 179.542477 121.450791 
L 179.6755 121.450791 
L 179.749552 120.397419 
L 179.886249 120.397419 
L 179.948981 118.817361 
L 180.047846 118.817361 
L 180.125504 116.710616 
L 180.249041 116.710616 
L 180.249041 116.18393 
L 180.386982 116.18393 
L 180.493521 115.130558 
L 180.684666 115.130558 
L 180.749579 113.5505 
L 180.893522 113.5505 
L 180.893522 112.497128 
L 181.016664 112.497128 
L 181.119435 110.917069 
L 181.182753 110.917069 
L 181.265209 109.337011 
L 181.36653 109.337011 
L 181.467266 108.283639 
L 181.581685 108.283639 
L 181.581685 107.756953 
L 181.742504 107.756953 
L 181.836415 106.176895 
L 181.985629 106.176895 
L 181.985629 105.650209 
L 182.184146 105.650209 
L 182.207084 104.596836 
L 182.32132 104.596836 
L 182.398576 103.016778 
L 182.570037 103.016778 
L 182.574526 101.963406 
L 182.96514 101.963406 
L 183.057076 100.383348 
L 183.109394 100.383348 
L 183.213561 97.749917 
L 183.295588 97.749917 
L 183.39437 96.696545 
L 183.467024 96.696545 
L 183.564843 94.063115 
L 183.611432 94.063115 
L 183.674764 91.429684 
L 183.771427 91.429684 
L 183.771427 90.902998 
L 183.884222 90.902998 
L 183.938271 89.32294 
L 184.070607 89.32294 
L 184.181489 86.162824 
L 184.222379 86.162824 
L 184.222379 85.636137 
L 184.352584 85.636137 
L 184.352584 85.109451 
L 184.513985 85.109451 
L 184.513985 84.582765 
L 184.844202 84.582765 
L 184.883568 81.949335 
L 184.973775 81.949335 
L 185.036253 79.315904 
L 185.19534 79.315904 
L 185.241629 78.262532 
L 185.310832 78.262532 
L 185.417939 75.629102 
L 185.467445 75.629102 
L 185.467445 75.102416 
L 185.603808 75.102416 
L 185.682864 70.888927 
L 185.73537 70.888927 
L 185.802645 69.835555 
L 185.958619 69.835555 
L 186.032405 67.728811 
L 186.200937 67.728811 
L 186.309979 65.622066 
L 186.407536 65.622066 
L 186.407536 65.09538 
L 186.636627 65.09538 
L 186.739451 62.988636 
L 186.774768 62.988636 
L 186.795923 61.935264 
L 186.96774 61.935264 
L 186.96774 61.408578 
L 197.279465 61.408578 
L 197.279465 60.881892 
L 197.684249 60.881892 
L 197.684249 60.355206 
L 197.800875 60.355206 
L 197.886903 59.301833 
L 198.029963 59.301833 
L 198.029963 58.775147 
L 198.195702 58.775147 
L 198.195702 58.248461 
L 198.390719 58.248461 
L 198.486515 57.195089 
L 198.526125 57.195089 
L 198.597914 55.088345 
L 198.919114 55.088345 
L 198.927904 54.034973 
L 199.059218 54.034973 
L 199.059218 53.508287 
L 204.554052 53.508287 
L 204.623918 52.454914 
L 205.226965 52.454914 
L 205.30273 50.874856 
L 205.501567 50.874856 
L 205.501567 50.34817 
L 205.630085 50.34817 
L 205.630085 49.821484 
L 205.799191 49.821484 
L 205.879595 48.241426 
L 206.043974 48.241426 
L 206.043974 47.71474 
L 210.358674 47.71474 
L 210.358674 47.188054 
L 210.531189 47.188054 
L 210.567291 46.134681 
L 210.753829 46.134681 
L 210.753829 45.081309 
L 210.919847 45.081309 
L 210.98687 43.501251 
L 211.100921 43.501251 
L 211.100921 42.447879 
L 214.318621 42.447879 
L 214.318621 41.921193 
L 214.829502 41.921193 
L 214.829502 41.394507 
L 214.988362 41.394507 
L 214.988362 40.867821 
L 217.673739 40.867821 
L 217.697718 39.814448 
L 217.958143 39.814448 
L 218.068156 38.761076 
L 218.188548 38.761076 
L 218.188548 38.23439 
L 220.417288 38.23439 
L 220.417288 37.707704 
L 224.91073 37.707704 
L 224.91073 37.181018 
L 225.035851 37.181018 
L 225.035851 36.654332 
L 226.972482 36.654332 
L 227.016421 35.60096 
L 228.774204 35.60096 
L 228.774204 35.074274 
L 230.037868 35.074274 
L 230.049672 34.020902 
L 230.185149 34.020902 
L 230.185149 33.494215 
L 231.4657 33.494215 
L 231.4657 32.967529 
L 233.993453 32.967529 
L 233.993453 32.440843 
L 236.200774 32.440843 
L 236.200774 31.914157 
L 242.335526 31.914157 
L 242.335526 31.387471 
L 244.975001 31.387471 
L 244.975001 30.860785 
L 246.23944 30.860785 
L 246.23944 30.334099 
L 338.688 30.334099 
L 338.688 30.334099 
" style="fill:none;stroke:#ff00ff;stroke-linecap:square;stroke-width:1.5;"/>
   </g>
   <g id="line2d_36">
    <defs>
     <path d="M -0 8.485281 
L 5.091169 0 
L 0 -8.485281 
L -5.091169 -0 
z
" id="m1159d9c845" style="stroke:#ff00ff;stroke-linejoin:miter;stroke-width:1.5;"/>
    </defs>
    <g>
     <use style="fill-opacity:0;stroke:#ff00ff;stroke-linejoin:miter;stroke-width:1.5;" x="74.704957" xlink:href="#m1159d9c845" y="270.502952"/>
     <use style="fill-opacity:0;stroke:#ff00ff;stroke-linejoin:miter;stroke-width:1.5;" x="148.48143" xlink:href="#m1159d9c845" y="229.948123"/>
     <use style="fill-opacity:0;stroke:#ff00ff;stroke-linejoin:miter;stroke-width:1.5;" x="184.513985" xlink:href="#m1159d9c845" y="85.109451"/>
     <use style="fill-opacity:0;stroke:#ff00ff;stroke-linejoin:miter;stroke-width:1.5;" x="236.200774" xlink:href="#m1159d9c845" y="31.914157"/>
     <use style="fill-opacity:0;stroke:#ff00ff;stroke-linejoin:miter;stroke-width:1.5;" x="246.23944" xlink:href="#m1159d9c845" y="30.334099"/>
     <use style="fill-opacity:0;stroke:#ff00ff;stroke-linejoin:miter;stroke-width:1.5;" x="338.688" xlink:href="#m1159d9c845" y="30.334099"/>
    </g>
   </g>
   <g id="line2d_37">
    <path style="fill:none;stroke:#ff00ff;stroke-linecap:square;stroke-width:1.5;"/>
    <g/>
   </g>
   <g id="line2d_38">
    <path clip-path="url(#p8c333e420b)" d="M 186.974717 61.408578 
" style="fill:none;stroke:#ff00ff;stroke-linecap:square;stroke-width:1.5;"/>
    <defs>
     <path d="M -12 12 
L 12 -12 
M -12 -12 
L 12 12 
" id="m1211bb4f3b" style="stroke:#ff00ff;"/>
    </defs>
    <g clip-path="url(#p8c333e420b)">
     <use style="fill:#ff00ff;stroke:#ff00ff;" x="186.974717" xlink:href="#m1211bb4f3b" y="61.408578"/>
    </g>
   </g>
   <g id="line2d_39">
    <defs>
     <path d="M 0 1.5 
C 0.397805 1.5 0.77937 1.341951 1.06066 1.06066 
C 1.341951 0.77937 1.5 0.397805 1.5 0 
C 1.5 -0.397805 1.341951 -0.77937 1.06066 -1.06066 
C 0.77937 -1.341951 0.397805 -1.5 0 -1.5 
C -0.397805 -1.5 -0.77937 -1.341951 -1.06066 -1.06066 
C -1.341951 -0.77937 -1.5 -0.397805 -1.5 0 
C -1.5 0.397805 -1.341951 0.77937 -1.06066 1.06066 
C -0.77937 1.341951 -0.397805 1.5 0 1.5 
z
" id="m275e387c5d" style="stroke:#ff7500;"/>
    </defs>
    <g>
     <use style="fill:#ff7500;stroke:#ff7500;" x="250.858248" xlink:href="#m275e387c5d" y="125.137593"/>
     <use style="fill:#ff7500;stroke:#ff7500;" x="250.858248" xlink:href="#m275e387c5d" y="125.137593"/>
    </g>
   </g>
   <g id="line2d_40">
    <path d="M 38.440992 298.944 
L 38.440992 284.723476 
L 50.52898 284.723476 
L 50.52898 282.090045 
L 57.6 282.090045 
L 57.6 273.663068 
L 62.616969 273.663068 
L 62.616969 271.556324 
L 69.687988 271.556324 
L 69.687988 269.449579 
L 74.704957 269.449579 
L 74.704957 267.869521 
L 76.759008 267.869521 
L 76.759008 267.342835 
L 78.59642 267.342835 
L 78.59642 266.816149 
L 80.258561 266.816149 
L 80.258561 266.289463 
L 84.464254 266.289463 
L 84.464254 264.709405 
L 85.66744 264.709405 
L 85.66744 263.656033 
L 86.792945 263.656033 
L 86.792945 263.129347 
L 87.850195 263.129347 
L 87.850195 262.075974 
L 88.846997 262.075974 
L 88.846997 261.549288 
L 93.863965 261.549288 
L 93.863965 259.442544 
L 97.16421 259.442544 
L 97.16421 258.915858 
L 98.32726 258.915858 
L 98.32726 258.389172 
L 102.330873 258.389172 
L 102.330873 257.862486 
L 104.033617 257.862486 
L 104.033617 256.809114 
L 104.826449 256.809114 
L 104.826449 256.282427 
L 107.009204 256.282427 
L 107.009204 255.755741 
L 108.640231 255.755741 
L 108.640231 255.229055 
L 112.026172 255.229055 
L 112.026172 254.702369 
L 114.641021 254.702369 
L 114.641021 253.648997 
L 116.522527 253.648997 
L 116.522527 252.595625 
L 124.114161 252.595625 
L 124.114161 251.542253 
L 125.110962 251.542253 
L 125.110962 251.015567 
L 125.351508 251.015567 
L 125.351508 249.962195 
L 127.05703 249.962195 
L 127.165014 248.382136 
L 129.853291 248.382136 
L 129.853291 247.85545 
L 131.690703 247.85545 
L 131.690703 247.328764 
L 132.101058 247.328764 
L 132.181982 246.275392 
L 132.971225 246.275392 
L 132.971225 245.748706 
L 133.503183 245.748706 
L 133.503183 245.22202 
L 133.873458 245.22202 
L 133.873458 244.168648 
L 135.415281 244.168648 
L 135.415281 243.641962 
L 136.393441 243.641962 
L 136.393441 242.588589 
L 137.016339 242.588589 
L 137.016339 241.535217 
L 137.676769 241.535217 
L 137.676769 241.008531 
L 138.369812 241.008531 
L 138.369812 240.481845 
L 138.650644 240.481845 
L 138.650644 239.428473 
L 141.187031 239.428473 
L 141.187031 238.901787 
L 141.378673 238.901787 
L 141.378673 238.375101 
L 141.755753 238.375101 
L 141.755753 237.848415 
L 141.941279 237.848415 
L 141.941279 237.321729 
L 142.124852 237.321729 
L 142.124852 236.795043 
L 142.441528 236.795043 
L 142.441528 236.268356 
L 144.94308 236.268356 
L 144.94308 235.74167 
L 145.097753 235.74167 
L 145.097753 235.214984 
L 145.212864 235.214984 
L 145.212864 234.688298 
L 145.961446 234.688298 
L 145.961446 233.634926 
L 146.143677 233.634926 
L 146.216039 232.581554 
L 147.027314 232.581554 
L 147.027314 231.001496 
L 148.161434 231.001496 
L 148.161434 230.47481 
L 149.437669 230.47481 
L 149.437669 228.368065 
L 152.511852 228.368065 
L 152.511852 227.314693 
L 153.250915 227.314693 
L 153.250915 226.788007 
L 153.561699 226.788007 
L 153.561699 226.261321 
L 153.843742 226.261321 
L 153.843742 225.734635 
L 154.235652 225.734635 
L 154.235652 224.154577 
L 154.928399 224.154577 
L 154.928399 223.627891 
L 156.175347 223.627891 
L 156.175347 223.101204 
L 156.398281 223.101204 
L 156.398281 222.574518 
L 156.894595 222.574518 
L 156.992185 221.521146 
L 157.491032 221.521146 
L 157.491032 220.99446 
L 158.231665 220.99446 
L 158.231665 220.467774 
L 159.807898 220.467774 
L 159.807898 219.941088 
L 160.184713 219.941088 
L 160.184713 218.887716 
L 161.283861 218.887716 
L 161.39006 216.254285 
L 162.742845 216.254285 
L 162.742845 215.727599 
L 163.629664 215.727599 
L 163.642961 214.674227 
L 164.140886 214.674227 
L 164.140886 214.147541 
L 164.47356 214.147541 
L 164.47356 213.620855 
L 165.578458 213.620855 
L 165.578458 213.094169 
L 165.826498 213.094169 
L 165.826498 212.567483 
L 166.220754 212.567483 
L 166.220754 212.040797 
L 166.639906 212.040797 
L 166.639906 211.514111 
L 167.136471 211.514111 
L 167.136471 210.987425 
L 167.374185 210.987425 
L 167.384913 209.934052 
L 167.523787 209.934052 
L 167.523787 209.407366 
L 168.283721 209.407366 
L 168.354881 208.353994 
L 168.536542 208.353994 
L 168.536542 207.827308 
L 169.128764 207.827308 
L 169.128764 207.300622 
L 169.906925 207.300622 
L 169.906925 206.773936 
L 171.211906 206.773936 
L 171.211906 206.24725 
L 171.67086 206.24725 
L 171.67086 205.720564 
L 172.264595 205.720564 
L 172.264595 205.193878 
L 173.033809 205.193878 
L 173.033809 204.667192 
L 173.356625 204.667192 
L 173.440194 203.087133 
L 174.087407 203.087133 
L 174.13117 202.033761 
L 175.074063 202.033761 
L 175.074063 201.507075 
L 175.54386 201.507075 
L 175.54386 200.980389 
L 175.77741 200.980389 
L 175.77741 200.453703 
L 176.001331 200.453703 
L 176.066647 198.873645 
L 176.319066 198.873645 
L 176.331913 197.293586 
L 176.956275 197.293586 
L 176.956275 196.7669 
L 177.122746 196.7669 
L 177.122746 195.713528 
L 177.263313 195.713528 
L 177.263313 194.660156 
L 177.396715 194.660156 
L 177.396715 194.13347 
L 177.678338 194.13347 
L 177.779092 192.026726 
L 178.228297 192.026726 
L 178.228297 191.50004 
L 178.508246 191.50004 
L 178.576125 189.919981 
L 178.883902 189.919981 
L 178.883902 189.393295 
L 179.569163 189.393295 
L 179.6755 187.813237 
L 179.770653 187.813237 
L 179.770653 186.759865 
L 180.192528 186.759865 
L 180.192528 186.233179 
L 180.310483 186.233179 
L 180.32581 185.179807 
L 180.463148 185.179807 
L 180.569223 183.073062 
L 180.699667 183.073062 
L 180.699667 182.546376 
L 181.182753 182.546376 
L 181.182753 182.01969 
L 181.457697 182.01969 
L 181.457697 180.966318 
L 181.845779 180.966318 
L 181.943792 179.38626 
L 182.330427 179.38626 
L 182.330427 178.859574 
L 182.556562 178.859574 
L 182.579015 177.279515 
L 182.690848 177.279515 
L 182.690848 176.226143 
L 182.859474 176.226143 
L 182.92559 174.119399 
L 183.100685 174.119399 
L 183.100685 173.592713 
L 183.286971 173.592713 
L 183.342901 171.485969 
L 183.632568 171.485969 
L 183.716857 167.27248 
L 183.963161 167.27248 
L 184.05412 164.112363 
L 184.372841 164.112363 
L 184.417324 163.058991 
L 184.542078 163.058991 
L 184.550096 162.005619 
L 184.665945 162.005619 
L 184.665945 160.952247 
L 184.871767 160.952247 
L 184.918922 159.372189 
L 184.989415 159.372189 
L 185.040151 157.265444 
L 185.245481 157.265444 
L 185.32234 154.105328 
L 185.584933 154.105328 
L 185.6302 153.051956 
L 186.127863 153.051956 
L 186.168092 151.471897 
L 186.43274 151.471897 
L 186.504551 149.365153 
L 186.707605 149.365153 
L 186.788874 145.151665 
L 186.827609 145.151665 
L 186.918822 144.098292 
L 198.098291 144.098292 
L 198.098291 143.04492 
L 198.225002 143.04492 
L 198.225002 142.518234 
L 198.651562 142.518234 
L 198.651562 141.991548 
L 198.929661 141.991548 
L 199.034781 138.831432 
L 205.191414 138.831432 
L 205.191414 138.304745 
L 205.954932 138.304745 
L 205.954932 137.778059 
L 211.016771 137.778059 
L 211.088675 135.671315 
L 215.030993 135.671315 
L 215.030993 135.144629 
L 218.180392 135.144629 
L 218.212411 133.564571 
L 220.902017 133.564571 
L 220.902017 133.037885 
L 223.231706 133.037885 
L 223.231706 132.511199 
L 227.0767 132.511199 
L 227.0767 131.984513 
L 228.76976 131.984513 
L 228.76976 131.457826 
L 230.289054 131.457826 
L 230.289054 130.93114 
L 231.686531 130.93114 
L 231.686531 130.404454 
L 232.993993 130.404454 
L 232.993993 129.877768 
L 234.184649 129.877768 
L 234.184649 128.824396 
L 237.36696 128.824396 
L 237.36696 128.29771 
L 238.310578 128.29771 
L 238.310578 127.771024 
L 239.191432 127.771024 
L 239.205748 126.717652 
L 240.057204 126.717652 
L 240.057204 126.190966 
L 247.94379 126.190966 
L 247.94379 125.66428 
L 250.858248 125.66428 
L 250.858248 125.137593 
L 338.688 125.137593 
L 338.688 125.137593 
" style="fill:none;stroke:#ff7500;stroke-linecap:square;stroke-width:1.5;"/>
   </g>
   <g id="line2d_41">
    <defs>
     <path d="M 0 -6 
L -1.347084 -1.854102 
L -5.706339 -1.854102 
L -2.179628 0.708204 
L -3.526712 4.854102 
L -0 2.291796 
L 3.526712 4.854102 
L 2.179628 0.708204 
L 5.706339 -1.854102 
L 1.347084 -1.854102 
z
" id="m79c70068d4" style="stroke:#ff7500;stroke-linejoin:bevel;stroke-width:1.5;"/>
    </defs>
    <g>
     <use style="fill-opacity:0;stroke:#ff7500;stroke-linejoin:bevel;stroke-width:1.5;" x="127.05703" xlink:href="#m79c70068d4" y="249.962195"/>
     <use style="fill-opacity:0;stroke:#ff7500;stroke-linejoin:bevel;stroke-width:1.5;" x="176.066647" xlink:href="#m79c70068d4" y="199.927017"/>
     <use style="fill-opacity:0;stroke:#ff7500;stroke-linejoin:bevel;stroke-width:1.5;" x="223.231706" xlink:href="#m79c70068d4" y="133.037885"/>
     <use style="fill-opacity:0;stroke:#ff7500;stroke-linejoin:bevel;stroke-width:1.5;" x="250.858248" xlink:href="#m79c70068d4" y="125.137593"/>
     <use style="fill-opacity:0;stroke:#ff7500;stroke-linejoin:bevel;stroke-width:1.5;" x="250.858248" xlink:href="#m79c70068d4" y="125.137593"/>
     <use style="fill-opacity:0;stroke:#ff7500;stroke-linejoin:bevel;stroke-width:1.5;" x="338.688" xlink:href="#m79c70068d4" y="125.137593"/>
    </g>
   </g>
   <g id="line2d_42">
    <path style="fill:none;stroke:#ff7500;stroke-linecap:square;stroke-width:1.5;"/>
    <g/>
   </g>
   <g id="line2d_43">
    <path clip-path="url(#p8c333e420b)" d="M 186.974717 144.098292 
" style="fill:none;stroke:#ff7500;stroke-linecap:square;stroke-width:1.5;"/>
    <defs>
     <path d="M -12 12 
L 12 -12 
M -12 -12 
L 12 12 
" id="m6e282472eb" style="stroke:#ff7500;"/>
    </defs>
    <g clip-path="url(#p8c333e420b)">
     <use style="fill:#ff7500;stroke:#ff7500;" x="186.974717" xlink:href="#m6e282472eb" y="144.098292"/>
    </g>
   </g>
   <g id="line2d_44">
    <defs>
     <path d="M 0 1.5 
C 0.397805 1.5 0.77937 1.341951 1.06066 1.06066 
C 1.341951 0.77937 1.5 0.397805 1.5 0 
C 1.5 -0.397805 1.341951 -0.77937 1.06066 -1.06066 
C 0.77937 -1.341951 0.397805 -1.5 0 -1.5 
C -0.397805 -1.5 -0.77937 -1.341951 -1.06066 -1.06066 
C -1.341951 -0.77937 -1.5 -0.397805 -1.5 0 
C -1.5 0.397805 -1.341951 0.77937 -1.06066 1.06066 
C -0.77937 1.341951 -0.397805 1.5 0 1.5 
z
" id="m7229c6c87b" style="stroke:#6495ed;"/>
    </defs>
    <g>
     <use style="fill:#6495ed;stroke:#6495ed;" x="236.306195" xlink:href="#m7229c6c87b" y="30.334099"/>
     <use style="fill:#6495ed;stroke:#6495ed;" x="236.306195" xlink:href="#m7229c6c87b" y="30.334099"/>
    </g>
   </g>
   <g id="line2d_45">
    <path d="M 38.440992 298.944 
L 38.440992 285.250162 
L 50.52898 285.250162 
L 50.52898 283.143418 
L 57.6 283.143418 
L 57.6 274.71644 
L 62.616969 274.71644 
L 62.616969 273.136382 
L 69.687988 273.136382 
L 69.687988 272.08301 
L 74.704957 272.08301 
L 74.704957 271.556324 
L 78.59642 271.556324 
L 78.59642 271.029638 
L 80.258561 271.029638 
L 80.258561 268.396207 
L 84.464254 268.396207 
L 84.464254 266.816149 
L 85.66744 266.816149 
L 85.66744 265.762777 
L 86.792945 265.762777 
L 86.792945 265.236091 
L 87.850195 265.236091 
L 87.850195 263.129347 
L 88.846997 263.129347 
L 88.846997 261.549288 
L 93.863965 261.549288 
L 93.863965 259.442544 
L 97.16421 259.442544 
L 97.16421 258.389172 
L 98.32726 258.389172 
L 98.32726 257.862486 
L 102.330873 257.862486 
L 102.330873 257.3358 
L 104.826449 257.3358 
L 104.826449 256.282427 
L 105.951954 256.282427 
L 105.951954 255.755741 
L 107.009204 255.755741 
L 107.009204 255.229055 
L 108.640231 255.229055 
L 108.640231 254.702369 
L 111.505558 254.702369 
L 111.505558 254.175683 
L 114.641021 254.175683 
L 114.641021 253.648997 
L 116.121606 253.648997 
L 116.121606 252.595625 
L 116.522527 252.595625 
L 116.522527 252.068939 
L 119.43583 252.068939 
L 119.43583 251.542253 
L 119.768017 251.542253 
L 119.768017 251.015567 
L 122.362027 251.015567 
L 122.362027 250.488881 
L 123.192626 250.488881 
L 123.192626 249.962195 
L 123.327293 249.962195 
L 123.327293 249.435508 
L 124.989434 249.435508 
L 124.989434 248.382136 
L 125.588781 248.382136 
L 125.588781 247.85545 
L 126.618283 247.85545 
L 126.618283 247.328764 
L 126.839037 247.328764 
L 126.948374 245.748706 
L 127.902737 245.748706 
L 127.902737 244.168648 
L 128.209594 244.168648 
L 128.209594 243.641962 
L 129.760775 243.641962 
L 129.760775 243.115275 
L 130.218525 243.115275 
L 130.30865 242.061903 
L 131.355321 242.061903 
L 131.355321 241.535217 
L 131.856005 241.535217 
L 131.856005 241.008531 
L 132.659801 241.008531 
L 132.659801 240.481845 
L 132.971225 240.481845 
L 132.971225 239.955159 
L 133.277185 239.955159 
L 133.277185 239.428473 
L 133.428175 239.428473 
L 133.428175 238.901787 
L 133.800029 238.901787 
L 133.800029 237.848415 
L 134.091907 237.848415 
L 134.091907 235.74167 
L 135.212889 235.74167 
L 135.212889 235.214984 
L 135.878591 235.214984 
L 135.878591 233.10824 
L 137.910857 233.10824 
L 137.910857 232.581554 
L 138.706272 232.581554 
L 138.706272 232.054868 
L 139.466984 232.054868 
L 139.520072 229.421437 
L 140.499195 229.421437 
L 140.499195 228.894751 
L 141.755753 228.894751 
L 141.755753 228.368065 
L 141.895083 228.368065 
L 141.895083 227.841379 
L 142.396639 227.841379 
L 142.396639 227.314693 
L 143.902815 227.314693 
L 143.902815 226.788007 
L 144.981877 226.788007 
L 144.981877 226.261321 
L 145.628555 226.261321 
L 145.628555 225.207949 
L 147.70334 225.207949 
L 147.802521 223.627891 
L 148.417899 223.627891 
L 148.417899 222.047832 
L 149.646525 222.047832 
L 149.646525 220.99446 
L 150.598782 220.99446 
L 150.598782 220.467774 
L 151.818809 220.467774 
L 151.818809 219.941088 
L 151.949246 219.941088 
L 151.949246 219.414402 
L 152.587184 219.414402 
L 152.587184 218.887716 
L 153.514245 218.887716 
L 153.514245 218.36103 
L 153.679772 218.36103 
L 153.679772 217.834344 
L 154.484627 217.834344 
L 154.484627 217.307658 
L 154.77436 217.307658 
L 154.840544 215.727599 
L 155.61575 215.727599 
L 155.61575 215.200913 
L 156.195732 215.200913 
L 156.195732 214.147541 
L 156.337763 214.147541 
L 156.337763 213.620855 
L 158.285965 213.620855 
L 158.285965 213.094169 
L 159.286782 213.094169 
L 159.286782 212.567483 
L 159.405822 212.567483 
L 159.405822 212.040797 
L 159.54088 212.040797 
L 159.54088 210.460738 
L 159.923445 210.460738 
L 159.923445 209.934052 
L 160.505887 209.934052 
L 160.569418 208.353994 
L 162.289115 208.353994 
L 162.375093 206.773936 
L 162.616422 206.773936 
L 162.616422 206.24725 
L 162.979172 206.24725 
L 162.992975 205.193878 
L 163.171418 205.193878 
L 163.171418 204.140506 
L 163.33453 204.140506 
L 163.33453 203.613819 
L 163.52292 203.613819 
L 163.52292 203.087133 
L 163.656248 203.087133 
L 163.669525 202.033761 
L 164.153799 202.033761 
L 164.218222 200.453703 
L 164.599841 200.453703 
L 164.650098 199.400331 
L 164.837283 199.400331 
L 164.9363 197.820273 
L 165.896723 197.820273 
L 165.896723 197.293586 
L 166.059491 197.293586 
L 166.059491 196.7669 
L 166.516342 196.7669 
L 166.516342 196.240214 
L 166.639906 196.240214 
L 166.639906 195.713528 
L 166.906499 195.713528 
L 166.906499 195.186842 
L 167.714267 195.186842 
L 167.714267 194.660156 
L 168.435853 194.660156 
L 168.435853 194.13347 
L 168.913944 194.13347 
L 169.011918 192.553412 
L 169.512694 192.553412 
L 169.512694 192.026726 
L 169.823193 192.026726 
L 169.823193 191.50004 
L 170.036379 191.50004 
L 170.036379 190.973354 
L 170.192293 190.973354 
L 170.228776 188.866609 
L 171.082245 188.866609 
L 171.108254 187.813237 
L 171.229121 187.813237 
L 171.297814 186.233179 
L 171.451389 186.233179 
L 171.451389 185.706493 
L 171.578344 185.706493 
L 171.578344 185.179807 
L 171.862732 185.179807 
L 171.928978 184.126434 
L 172.085312 184.126434 
L 172.085312 183.073062 
L 172.280803 183.073062 
L 172.280803 182.01969 
L 172.442055 182.01969 
L 172.442055 181.493004 
L 172.63361 181.493004 
L 172.696997 180.439632 
L 172.862299 180.439632 
L 172.862299 179.912946 
L 173.234351 179.912946 
L 173.234351 179.38626 
L 173.379457 179.38626 
L 173.379457 178.859574 
L 173.545979 178.859574 
L 173.561039 177.806202 
L 173.777957 177.806202 
L 173.777957 177.279515 
L 174.028886 177.279515 
L 174.080103 175.172771 
L 174.348349 175.172771 
L 174.348349 174.119399 
L 174.463082 174.119399 
L 174.463082 173.592713 
L 174.949398 173.592713 
L 175.039523 172.012655 
L 175.184134 172.012655 
L 175.23891 169.90591 
L 175.354741 169.90591 
L 175.415753 168.325852 
L 175.630972 168.325852 
L 175.717652 167.27248 
L 175.869961 167.27248 
L 175.948902 164.63905 
L 176.209486 164.63905 
L 176.319066 163.585677 
L 176.363988 163.585677 
L 176.363988 163.058991 
L 176.668945 163.058991 
L 176.668945 162.532305 
L 176.881775 162.532305 
L 176.881775 162.005619 
L 177.299796 162.005619 
L 177.336204 160.425561 
L 177.523109 160.425561 
L 177.624761 158.318817 
L 177.961335 158.318817 
L 177.961335 157.79213 
L 178.268566 157.79213 
L 178.274311 156.738758 
L 178.553528 156.738758 
L 178.553528 156.212072 
L 178.671837 156.212072 
L 178.755855 154.632014 
L 178.811643 154.632014 
L 178.811643 153.578642 
L 179.022024 153.578642 
L 179.082454 152.52527 
L 179.24077 152.52527 
L 179.316688 151.471897 
L 179.403048 151.471897 
L 179.478263 149.365153 
L 179.6808 149.365153 
L 179.744273 148.311781 
L 179.901953 148.311781 
L 179.901953 147.258409 
L 180.021883 147.258409 
L 180.130669 146.205037 
L 180.315593 146.205037 
L 180.36152 144.624978 
L 180.463148 144.624978 
L 180.498578 143.571606 
L 180.997019 143.571606 
L 180.997019 142.518234 
L 181.109673 142.518234 
L 181.177891 141.464862 
L 181.279719 141.464862 
L 181.294218 139.884804 
L 181.524569 139.884804 
L 181.567424 137.251373 
L 181.681189 137.251373 
L 181.695358 135.144629 
L 181.939137 135.144629 
L 181.939137 134.617943 
L 182.064383 134.617943 
L 182.064383 133.564571 
L 182.211667 133.564571 
L 182.211667 133.037885 
L 182.348626 133.037885 
L 182.348626 131.984513 
L 182.493539 131.984513 
L 182.502556 130.404454 
L 182.850639 130.404454 
L 182.92119 128.824396 
L 182.96514 128.824396 
L 182.96514 127.771024 
L 183.10504 127.771024 
L 183.10504 127.244338 
L 183.278351 127.244338 
L 183.37723 124.084221 
L 183.407213 124.084221 
L 183.407213 123.557535 
L 183.746262 123.557535 
L 183.746262 123.030849 
L 183.89671 123.030849 
L 183.89671 122.504163 
L 184.352584 122.504163 
L 184.401161 121.450791 
L 184.473775 121.450791 
L 184.473775 120.924105 
L 184.749358 120.924105 
L 184.749358 120.397419 
L 184.871767 120.397419 
L 184.871767 119.870733 
L 185.106275 119.870733 
L 185.106275 118.817361 
L 185.326174 118.817361 
L 185.326174 118.290674 
L 185.452227 118.290674 
L 185.452227 117.763988 
L 185.716636 117.763988 
L 185.731624 116.710616 
L 185.99924 116.710616 
L 186.05448 115.130558 
L 186.160784 115.130558 
L 186.266444 114.077186 
L 186.317224 114.077186 
L 186.317224 113.5505 
L 186.468683 113.5505 
L 186.504551 111.970441 
L 186.63307 111.970441 
L 186.63307 111.443755 
L 186.813533 111.443755 
L 186.813533 110.917069 
L 187.795661 110.917069 
L 187.881962 109.863697 
L 188.086048 109.863697 
L 188.086048 109.337011 
L 188.477594 109.337011 
L 188.477594 108.810325 
L 190.76544 108.810325 
L 190.76544 108.283639 
L 192.616878 108.283639 
L 192.616878 107.756953 
L 192.92953 107.756953 
L 192.92953 107.230267 
L 193.374959 107.230267 
L 193.374959 106.703581 
L 193.764452 106.703581 
L 193.868118 105.123522 
L 193.905662 105.123522 
L 193.905662 104.596836 
L 194.066652 104.596836 
L 194.161613 103.543464 
L 194.327134 103.543464 
L 194.397918 101.43672 
L 194.662515 101.43672 
L 194.662515 100.910034 
L 194.901031 100.910034 
L 195.006978 99.856662 
L 195.355558 99.856662 
L 195.433037 98.803289 
L 195.68461 98.803289 
L 195.714219 96.696545 
L 195.882451 96.696545 
L 195.974292 95.643173 
L 196.020032 95.643173 
L 196.067723 94.589801 
L 196.328736 94.589801 
L 196.375591 93.536429 
L 196.446652 93.536429 
L 196.446652 93.009743 
L 196.565788 93.009743 
L 196.622044 91.429684 
L 196.72604 91.429684 
L 196.72604 90.902998 
L 196.902607 90.902998 
L 196.902607 88.796254 
L 197.153452 88.796254 
L 197.153452 88.269568 
L 197.356562 88.269568 
L 197.356562 87.216196 
L 197.498299 87.216196 
L 197.498299 86.68951 
L 197.800875 86.68951 
L 197.885037 84.582765 
L 198.005892 84.582765 
L 198.005892 84.056079 
L 198.153496 84.056079 
L 198.257906 81.422649 
L 198.452233 81.422649 
L 198.452233 80.369277 
L 198.581787 80.369277 
L 198.660487 77.20916 
L 198.737058 77.20916 
L 198.829207 75.629102 
L 198.866284 75.629102 
L 198.892719 74.57573 
L 198.9823 74.57573 
L 198.9823 74.049044 
L 202.052306 74.049044 
L 202.052306 73.522358 
L 202.38987 73.522358 
L 202.491884 71.942299 
L 202.537668 71.942299 
L 202.537668 71.415613 
L 203.16633 71.415613 
L 203.16633 70.888927 
L 203.779771 70.888927 
L 203.779771 70.362241 
L 203.91629 70.362241 
L 203.91629 69.835555 
L 204.437836 69.835555 
L 204.540045 67.728811 
L 204.611236 67.728811 
L 204.673291 66.675439 
L 204.76659 66.675439 
L 204.869395 65.622066 
L 204.896874 65.622066 
L 204.986505 64.568694 
L 205.00884 64.568694 
L 205.106533 61.935264 
L 205.166853 61.935264 
L 205.166853 61.408578 
L 205.60134 61.408578 
L 205.640851 59.301833 
L 205.814591 59.301833 
L 205.917304 56.141717 
L 205.966674 56.141717 
L 206.003024 54.034973 
L 206.080163 54.034973 
L 206.080163 53.508287 
L 208.638678 53.508287 
L 208.638678 52.9816 
L 209.226841 52.9816 
L 209.226841 52.454914 
L 209.858841 52.454914 
L 209.946885 50.874856 
L 210.046568 50.874856 
L 210.104068 49.821484 
L 210.211143 49.821484 
L 210.313905 48.241426 
L 210.782351 48.241426 
L 210.782351 47.188054 
L 210.925147 47.188054 
L 210.976304 46.134681 
L 213.838722 46.134681 
L 213.838722 45.607995 
L 214.08585 45.607995 
L 214.08585 45.081309 
L 214.209942 45.081309 
L 214.209942 44.554623 
L 214.379593 44.554623 
L 214.379593 43.501251 
L 214.556935 43.501251 
L 214.619225 42.447879 
L 214.882381 42.447879 
L 214.949133 39.287762 
L 217.598595 39.287762 
L 217.681536 38.23439 
L 217.977018 38.23439 
L 217.977018 37.707704 
L 218.08867 37.707704 
L 218.115009 36.127646 
L 220.287646 36.127646 
L 220.287646 35.60096 
L 220.655018 35.60096 
L 220.655018 35.074274 
L 220.781465 35.074274 
L 220.861592 33.494215 
L 223.126274 33.494215 
L 223.126274 32.967529 
L 224.91865 32.967529 
L 224.91865 32.440843 
L 225.129986 32.440843 
L 225.129986 31.914157 
L 226.983741 31.914157 
L 226.983741 31.387471 
L 234.14807 31.387471 
L 234.14807 30.860785 
L 236.306195 30.860785 
L 236.306195 30.334099 
L 338.688 30.334099 
L 338.688 30.334099 
" style="fill:none;stroke:#6495ed;stroke-linecap:square;stroke-width:1.5;"/>
   </g>
   <g id="line2d_46">
    <defs>
     <path d="M -0 6 
L 6 -6 
L -6 -6 
z
" id="ma449181524" style="stroke:#6495ed;stroke-linejoin:miter;stroke-width:1.5;"/>
    </defs>
    <g>
     <use style="fill-opacity:0;stroke:#6495ed;stroke-linejoin:miter;stroke-width:1.5;" x="140.499195" xlink:href="#ma449181524" y="228.894751"/>
     <use style="fill-opacity:0;stroke:#6495ed;stroke-linejoin:miter;stroke-width:1.5;" x="182.493539" xlink:href="#ma449181524" y="131.984513"/>
     <use style="fill-opacity:0;stroke:#6495ed;stroke-linejoin:miter;stroke-width:1.5;" x="236.306195" xlink:href="#ma449181524" y="30.860785"/>
     <use style="fill-opacity:0;stroke:#6495ed;stroke-linejoin:miter;stroke-width:1.5;" x="236.306195" xlink:href="#ma449181524" y="30.334099"/>
     <use style="fill-opacity:0;stroke:#6495ed;stroke-linejoin:miter;stroke-width:1.5;" x="236.306195" xlink:href="#ma449181524" y="30.334099"/>
     <use style="fill-opacity:0;stroke:#6495ed;stroke-linejoin:miter;stroke-width:1.5;" x="338.688" xlink:href="#ma449181524" y="30.334099"/>
    </g>
   </g>
   <g id="line2d_47">
    <path style="fill:none;stroke:#6495ed;stroke-linecap:square;stroke-width:1.5;"/>
    <g/>
   </g>
   <g id="line2d_48">
    <path clip-path="url(#p8c333e420b)" d="M 186.974717 110.917069 
" style="fill:none;stroke:#6495ed;stroke-linecap:square;stroke-width:1.5;"/>
    <defs>
     <path d="M -12 12 
L 12 -12 
M -12 -12 
L 12 12 
" id="m8f8fd91c87" style="stroke:#6495ed;"/>
    </defs>
    <g clip-path="url(#p8c333e420b)">
     <use style="fill:#6495ed;stroke:#6495ed;" x="186.974717" xlink:href="#m8f8fd91c87" y="110.917069"/>
    </g>
   </g>
   <g id="line2d_49">
    <path d="M 338.688 125.137593 
L 369.60768 293.571802 
" style="fill:none;stroke:#ff7500;stroke-linecap:square;stroke-width:1.5;"/>
    <g>
     <use style="fill-opacity:0;stroke:#ff7500;stroke-linejoin:bevel;stroke-width:1.5;" x="338.688" xlink:href="#m79c70068d4" y="125.137593"/>
     <use style="fill-opacity:0;stroke:#ff7500;stroke-linejoin:bevel;stroke-width:1.5;" x="369.60768" xlink:href="#m79c70068d4" y="293.571802"/>
    </g>
   </g>
   <g id="line2d_50">
    <path d="M 338.688 30.334099 
L 369.60768 207.616634 
" style="fill:none;stroke:#ff00ff;stroke-linecap:square;stroke-width:1.5;"/>
    <g>
     <use style="fill-opacity:0;stroke:#ff00ff;stroke-linejoin:miter;stroke-width:1.5;" x="338.688" xlink:href="#m1159d9c845" y="30.334099"/>
     <use style="fill-opacity:0;stroke:#ff00ff;stroke-linejoin:miter;stroke-width:1.5;" x="369.60768" xlink:href="#m1159d9c845" y="207.616634"/>
    </g>
   </g>
   <g id="line2d_51">
    <path d="M 338.688 30.334099 
L 369.60768 121.661465 
" style="fill:none;stroke:#6495ed;stroke-linecap:square;stroke-width:1.5;"/>
    <g>
     <use style="fill-opacity:0;stroke:#6495ed;stroke-linejoin:miter;stroke-width:1.5;" x="338.688" xlink:href="#ma449181524" y="30.334099"/>
     <use style="fill-opacity:0;stroke:#6495ed;stroke-linejoin:miter;stroke-width:1.5;" x="369.60768" xlink:href="#ma449181524" y="121.661465"/>
    </g>
   </g>
   <g id="line2d_52">
    <path d="M 338.688 298.944 
L 338.688 30.334099 
" style="fill:none;stroke:#000000;stroke-linecap:square;stroke-width:1.5;"/>
   </g>
   <g id="patch_3">
    <path d="M 57.6 298.944 
L 57.6 27.648 
" style="fill:none;stroke:#000000;stroke-linecap:square;stroke-linejoin:miter;stroke-width:0.8;"/>
   </g>
   <g id="patch_4">
    <path d="M 338.688 298.944 
L 338.688 27.648 
" style="fill:none;stroke:#000000;stroke-linecap:square;stroke-linejoin:miter;stroke-width:0.8;"/>
   </g>
   <g id="patch_5">
    <path d="M 57.6 298.944 
L 338.688 298.944 
" style="fill:none;stroke:#000000;stroke-linecap:square;stroke-linejoin:miter;stroke-width:0.8;"/>
   </g>
   <g id="patch_6">
    <path d="M 57.6 27.648 
L 338.688 27.648 
" style="fill:none;stroke:#000000;stroke-linecap:square;stroke-linejoin:miter;stroke-width:0.8;"/>
   </g>
   <g id="text_13">
    <!-- DEPSO -->
    <defs>
     <path d="M 19.671875 64.796875 
L 19.671875 8.109375 
L 31.59375 8.109375 
Q 46.6875 8.109375 53.6875 14.9375 
Q 60.6875 21.78125 60.6875 36.53125 
Q 60.6875 51.171875 53.6875 57.984375 
Q 46.6875 64.796875 31.59375 64.796875 
z
M 9.8125 72.90625 
L 30.078125 72.90625 
Q 51.265625 72.90625 61.171875 64.09375 
Q 71.09375 55.28125 71.09375 36.53125 
Q 71.09375 17.671875 61.125 8.828125 
Q 51.171875 0 30.078125 0 
L 9.8125 0 
z
" id="DejaVuSans-68"/>
     <path d="M 9.8125 72.90625 
L 55.90625 72.90625 
L 55.90625 64.59375 
L 19.671875 64.59375 
L 19.671875 43.015625 
L 54.390625 43.015625 
L 54.390625 34.71875 
L 19.671875 34.71875 
L 19.671875 8.296875 
L 56.78125 8.296875 
L 56.78125 0 
L 9.8125 0 
z
" id="DejaVuSans-69"/>
     <path d="M 19.671875 64.796875 
L 19.671875 37.40625 
L 32.078125 37.40625 
Q 38.96875 37.40625 42.71875 40.96875 
Q 46.484375 44.53125 46.484375 51.125 
Q 46.484375 57.671875 42.71875 61.234375 
Q 38.96875 64.796875 32.078125 64.796875 
z
M 9.8125 72.90625 
L 32.078125 72.90625 
Q 44.34375 72.90625 50.609375 67.359375 
Q 56.890625 61.8125 56.890625 51.125 
Q 56.890625 40.328125 50.609375 34.8125 
Q 44.34375 29.296875 32.078125 29.296875 
L 19.671875 29.296875 
L 19.671875 0 
L 9.8125 0 
z
" id="DejaVuSans-80"/>
     <path d="M 53.515625 70.515625 
L 53.515625 60.890625 
Q 47.90625 63.578125 42.921875 64.890625 
Q 37.9375 66.21875 33.296875 66.21875 
Q 25.25 66.21875 20.875 63.09375 
Q 16.5 59.96875 16.5 54.203125 
Q 16.5 49.359375 19.40625 46.890625 
Q 22.3125 44.4375 30.421875 42.921875 
L 36.375 41.703125 
Q 47.40625 39.59375 52.65625 34.296875 
Q 57.90625 29 57.90625 20.125 
Q 57.90625 9.515625 50.796875 4.046875 
Q 43.703125 -1.421875 29.984375 -1.421875 
Q 24.8125 -1.421875 18.96875 -0.25 
Q 13.140625 0.921875 6.890625 3.21875 
L 6.890625 13.375 
Q 12.890625 10.015625 18.65625 8.296875 
Q 24.421875 6.59375 29.984375 6.59375 
Q 38.421875 6.59375 43.015625 9.90625 
Q 47.609375 13.234375 47.609375 19.390625 
Q 47.609375 24.75 44.3125 27.78125 
Q 41.015625 30.8125 33.5 32.328125 
L 27.484375 33.5 
Q 16.453125 35.6875 11.515625 40.375 
Q 6.59375 45.0625 6.59375 53.421875 
Q 6.59375 63.09375 13.40625 68.65625 
Q 20.21875 74.21875 32.171875 74.21875 
Q 37.3125 74.21875 42.625 73.28125 
Q 47.953125 72.359375 53.515625 70.515625 
z
" id="DejaVuSans-83"/>
     <path d="M 39.40625 66.21875 
Q 28.65625 66.21875 22.328125 58.203125 
Q 16.015625 50.203125 16.015625 36.375 
Q 16.015625 22.609375 22.328125 14.59375 
Q 28.65625 6.59375 39.40625 6.59375 
Q 50.140625 6.59375 56.421875 14.59375 
Q 62.703125 22.609375 62.703125 36.375 
Q 62.703125 50.203125 56.421875 58.203125 
Q 50.140625 66.21875 39.40625 66.21875 
z
M 39.40625 74.21875 
Q 54.734375 74.21875 63.90625 63.9375 
Q 73.09375 53.65625 73.09375 36.375 
Q 73.09375 19.140625 63.90625 8.859375 
Q 54.734375 -1.421875 39.40625 -1.421875 
Q 24.03125 -1.421875 14.8125 8.828125 
Q 5.609375 19.09375 5.609375 36.375 
Q 5.609375 53.65625 14.8125 63.9375 
Q 24.03125 74.21875 39.40625 74.21875 
z
" id="DejaVuSans-79"/>
    </defs>
    <g transform="translate(375.22944 298.262739)scale(0.17 -0.17)">
     <use xlink:href="#DejaVuSans-68"/>
     <use x="77.001953" xlink:href="#DejaVuSans-69"/>
     <use x="140.185547" xlink:href="#DejaVuSans-80"/>
     <use x="200.488281" xlink:href="#DejaVuSans-83"/>
     <use x="263.964844" xlink:href="#DejaVuSans-79"/>
    </g>
   </g>
   <g id="text_14">
    <!-- DE -->
    <g transform="translate(375.22944 212.307571)scale(0.17 -0.17)">
     <use xlink:href="#DejaVuSans-68"/>
     <use x="77.001953" xlink:href="#DejaVuSans-69"/>
    </g>
   </g>
   <g id="text_15">
    <!-- PSO -->
    <g transform="translate(375.22944 126.352403)scale(0.17 -0.17)">
     <use xlink:href="#DejaVuSans-80"/>
     <use x="60.302734" xlink:href="#DejaVuSans-83"/>
     <use x="123.779297" xlink:href="#DejaVuSans-79"/>
    </g>
   </g>
   <g id="text_16">
    <!-- best 2009 -->
    <defs>
     <path d="M 48.6875 27.296875 
Q 48.6875 37.203125 44.609375 42.84375 
Q 40.53125 48.484375 33.40625 48.484375 
Q 26.265625 48.484375 22.1875 42.84375 
Q 18.109375 37.203125 18.109375 27.296875 
Q 18.109375 17.390625 22.1875 11.75 
Q 26.265625 6.109375 33.40625 6.109375 
Q 40.53125 6.109375 44.609375 11.75 
Q 48.6875 17.390625 48.6875 27.296875 
z
M 18.109375 46.390625 
Q 20.953125 51.265625 25.265625 53.625 
Q 29.59375 56 35.59375 56 
Q 45.5625 56 51.78125 48.09375 
Q 58.015625 40.1875 58.015625 27.296875 
Q 58.015625 14.40625 51.78125 6.484375 
Q 45.5625 -1.421875 35.59375 -1.421875 
Q 29.59375 -1.421875 25.265625 0.953125 
Q 20.953125 3.328125 18.109375 8.203125 
L 18.109375 0 
L 9.078125 0 
L 9.078125 75.984375 
L 18.109375 75.984375 
z
" id="DejaVuSans-98"/>
     <path d="M 10.984375 1.515625 
L 10.984375 10.5 
Q 14.703125 8.734375 18.5 7.8125 
Q 22.3125 6.890625 25.984375 6.890625 
Q 35.75 6.890625 40.890625 13.453125 
Q 46.046875 20.015625 46.78125 33.40625 
Q 43.953125 29.203125 39.59375 26.953125 
Q 35.25 24.703125 29.984375 24.703125 
Q 19.046875 24.703125 12.671875 31.3125 
Q 6.296875 37.9375 6.296875 49.421875 
Q 6.296875 60.640625 12.9375 67.421875 
Q 19.578125 74.21875 30.609375 74.21875 
Q 43.265625 74.21875 49.921875 64.515625 
Q 56.59375 54.828125 56.59375 36.375 
Q 56.59375 19.140625 48.40625 8.859375 
Q 40.234375 -1.421875 26.421875 -1.421875 
Q 22.703125 -1.421875 18.890625 -0.6875 
Q 15.09375 0.046875 10.984375 1.515625 
z
M 30.609375 32.421875 
Q 37.25 32.421875 41.125 36.953125 
Q 45.015625 41.5 45.015625 49.421875 
Q 45.015625 57.28125 41.125 61.84375 
Q 37.25 66.40625 30.609375 66.40625 
Q 23.96875 66.40625 20.09375 61.84375 
Q 16.21875 57.28125 16.21875 49.421875 
Q 16.21875 41.5 20.09375 36.953125 
Q 23.96875 32.421875 30.609375 32.421875 
z
" id="DejaVuSans-57"/>
    </defs>
    <g transform="translate(375.22944 40.397235)scale(0.17 -0.17)">
     <use xlink:href="#DejaVuSans-98"/>
     <use x="63.476562" xlink:href="#DejaVuSans-101"/>
     <use x="125" xlink:href="#DejaVuSans-115"/>
     <use x="177.099609" xlink:href="#DejaVuSans-116"/>
     <use x="216.308594" xlink:href="#DejaVuSans-32"/>
     <use x="248.095703" xlink:href="#DejaVuSans-50"/>
     <use x="311.71875" xlink:href="#DejaVuSans-48"/>
     <use x="375.341797" xlink:href="#DejaVuSans-48"/>
     <use x="438.964844" xlink:href="#DejaVuSans-57"/>
    </g>
   </g>
   <g id="text_17">
    <!-- bbob f17, 3-D -->
    <defs>
     <path d="M 8.203125 72.90625 
L 55.078125 72.90625 
L 55.078125 68.703125 
L 28.609375 0 
L 18.3125 0 
L 43.21875 64.59375 
L 8.203125 64.59375 
z
" id="DejaVuSans-55"/>
     <path d="M 40.578125 39.3125 
Q 47.65625 37.796875 51.625 33 
Q 55.609375 28.21875 55.609375 21.1875 
Q 55.609375 10.40625 48.1875 4.484375 
Q 40.765625 -1.421875 27.09375 -1.421875 
Q 22.515625 -1.421875 17.65625 -0.515625 
Q 12.796875 0.390625 7.625 2.203125 
L 7.625 11.71875 
Q 11.71875 9.328125 16.59375 8.109375 
Q 21.484375 6.890625 26.8125 6.890625 
Q 36.078125 6.890625 40.9375 10.546875 
Q 45.796875 14.203125 45.796875 21.1875 
Q 45.796875 27.640625 41.28125 31.265625 
Q 36.765625 34.90625 28.71875 34.90625 
L 20.21875 34.90625 
L 20.21875 43.015625 
L 29.109375 43.015625 
Q 36.375 43.015625 40.234375 45.921875 
Q 44.09375 48.828125 44.09375 54.296875 
Q 44.09375 59.90625 40.109375 62.90625 
Q 36.140625 65.921875 28.71875 65.921875 
Q 24.65625 65.921875 20.015625 65.03125 
Q 15.375 64.15625 9.8125 62.3125 
L 9.8125 71.09375 
Q 15.4375 72.65625 20.34375 73.4375 
Q 25.25 74.21875 29.59375 74.21875 
Q 40.828125 74.21875 47.359375 69.109375 
Q 53.90625 64.015625 53.90625 55.328125 
Q 53.90625 49.265625 50.4375 45.09375 
Q 46.96875 40.921875 40.578125 39.3125 
z
" id="DejaVuSans-51"/>
    </defs>
    <g transform="translate(60.41088 38.111366)scale(0.102 -0.102)">
     <use xlink:href="#DejaVuSans-98"/>
     <use x="63.476562" xlink:href="#DejaVuSans-98"/>
     <use x="126.953125" xlink:href="#DejaVuSans-111"/>
     <use x="188.134766" xlink:href="#DejaVuSans-98"/>
     <use x="251.611328" xlink:href="#DejaVuSans-32"/>
     <use x="283.398438" xlink:href="#DejaVuSans-102"/>
     <use x="318.603516" xlink:href="#DejaVuSans-49"/>
     <use x="382.226562" xlink:href="#DejaVuSans-55"/>
     <use x="445.849609" xlink:href="#DejaVuSans-44"/>
     <use x="477.636719" xlink:href="#DejaVuSans-32"/>
     <use x="509.423828" xlink:href="#DejaVuSans-51"/>
     <use x="573.046875" xlink:href="#DejaVuSans-45"/>
     <use x="609.130859" xlink:href="#DejaVuSans-68"/>
    </g>
    <!-- 51 targets: 100..1e-08 -->
    <defs>
     <path d="M 10.796875 72.90625 
L 49.515625 72.90625 
L 49.515625 64.59375 
L 19.828125 64.59375 
L 19.828125 46.734375 
Q 21.96875 47.46875 24.109375 47.828125 
Q 26.265625 48.1875 28.421875 48.1875 
Q 40.625 48.1875 47.75 41.5 
Q 54.890625 34.8125 54.890625 23.390625 
Q 54.890625 11.625 47.5625 5.09375 
Q 40.234375 -1.421875 26.90625 -1.421875 
Q 22.3125 -1.421875 17.546875 -0.640625 
Q 12.796875 0.140625 7.71875 1.703125 
L 7.71875 11.625 
Q 12.109375 9.234375 16.796875 8.0625 
Q 21.484375 6.890625 26.703125 6.890625 
Q 35.15625 6.890625 40.078125 11.328125 
Q 45.015625 15.765625 45.015625 23.390625 
Q 45.015625 31 40.078125 35.4375 
Q 35.15625 39.890625 26.703125 39.890625 
Q 22.75 39.890625 18.8125 39.015625 
Q 14.890625 38.140625 10.796875 36.28125 
z
" id="DejaVuSans-53"/>
     <path d="M 11.71875 12.40625 
L 22.015625 12.40625 
L 22.015625 0 
L 11.71875 0 
z
M 11.71875 51.703125 
L 22.015625 51.703125 
L 22.015625 39.3125 
L 11.71875 39.3125 
z
" id="DejaVuSans-58"/>
    </defs>
    <g transform="translate(60.41088 49.533135)scale(0.102 -0.102)">
     <use xlink:href="#DejaVuSans-53"/>
     <use x="63.623047" xlink:href="#DejaVuSans-49"/>
     <use x="127.246094" xlink:href="#DejaVuSans-32"/>
     <use x="159.033203" xlink:href="#DejaVuSans-116"/>
     <use x="198.242188" xlink:href="#DejaVuSans-97"/>
     <use x="259.521484" xlink:href="#DejaVuSans-114"/>
     <use x="298.884766" xlink:href="#DejaVuSans-103"/>
     <use x="362.361328" xlink:href="#DejaVuSans-101"/>
     <use x="423.884766" xlink:href="#DejaVuSans-116"/>
     <use x="463.09375" xlink:href="#DejaVuSans-115"/>
     <use x="515.193359" xlink:href="#DejaVuSans-58"/>
     <use x="548.884766" xlink:href="#DejaVuSans-32"/>
     <use x="580.671875" xlink:href="#DejaVuSans-49"/>
     <use x="644.294922" xlink:href="#DejaVuSans-48"/>
     <use x="707.917969" xlink:href="#DejaVuSans-48"/>
     <use x="771.541016" xlink:href="#DejaVuSans-46"/>
     <use x="803.328125" xlink:href="#DejaVuSans-46"/>
     <use x="835.115234" xlink:href="#DejaVuSans-49"/>
     <use x="898.738281" xlink:href="#DejaVuSans-101"/>
     <use x="960.261719" xlink:href="#DejaVuSans-45"/>
     <use x="996.345703" xlink:href="#DejaVuSans-48"/>
     <use x="1059.96875" xlink:href="#DejaVuSans-56"/>
    </g>
    <!-- 15 instances -->
    <g transform="translate(60.41088 60.954904)scale(0.102 -0.102)">
     <use xlink:href="#DejaVuSans-49"/>
     <use x="63.623047" xlink:href="#DejaVuSans-53"/>
     <use x="127.246094" xlink:href="#DejaVuSans-32"/>
     <use x="159.033203" xlink:href="#DejaVuSans-105"/>
     <use x="186.816406" xlink:href="#DejaVuSans-110"/>
     <use x="250.195312" xlink:href="#DejaVuSans-115"/>
     <use x="302.294922" xlink:href="#DejaVuSans-116"/>
     <use x="341.503906" xlink:href="#DejaVuSans-97"/>
     <use x="402.783203" xlink:href="#DejaVuSans-110"/>
     <use x="466.162109" xlink:href="#DejaVuSans-99"/>
     <use x="521.142578" xlink:href="#DejaVuSans-101"/>
     <use x="582.666016" xlink:href="#DejaVuSans-115"/>
    </g>
   </g>
   <g id="text_18">
    <!-- v2.4 -->
    <g style="fill:#808080;" transform="translate(187.233062 294.151352)scale(0.1 -0.1)">
     <use xlink:href="#DejaVuSans-118"/>
     <use x="59.179688" xlink:href="#DejaVuSans-50"/>
     <use x="122.802734" xlink:href="#DejaVuSans-46"/>
     <use x="154.589844" xlink:href="#DejaVuSans-52"/>
    </g>
   </g>
   <g id="text_19">
    <!-- 17 Schaffer F7, condition 10 -->
    <defs>
     <path d="M 54.890625 33.015625 
L 54.890625 0 
L 45.90625 0 
L 45.90625 32.71875 
Q 45.90625 40.484375 42.875 44.328125 
Q 39.84375 48.1875 33.796875 48.1875 
Q 26.515625 48.1875 22.3125 43.546875 
Q 18.109375 38.921875 18.109375 30.90625 
L 18.109375 0 
L 9.078125 0 
L 9.078125 75.984375 
L 18.109375 75.984375 
L 18.109375 46.1875 
Q 21.34375 51.125 25.703125 53.5625 
Q 30.078125 56 35.796875 56 
Q 45.21875 56 50.046875 50.171875 
Q 54.890625 44.34375 54.890625 33.015625 
z
" id="DejaVuSans-104"/>
    </defs>
    <g transform="translate(56.836187 21.648)scale(0.2 -0.2)">
     <use xlink:href="#DejaVuSans-49"/>
     <use x="63.623047" xlink:href="#DejaVuSans-55"/>
     <use x="127.246094" xlink:href="#DejaVuSans-32"/>
     <use x="159.033203" xlink:href="#DejaVuSans-83"/>
     <use x="222.509766" xlink:href="#DejaVuSans-99"/>
     <use x="277.490234" xlink:href="#DejaVuSans-104"/>
     <use x="340.869141" xlink:href="#DejaVuSans-97"/>
     <use x="402.148438" xlink:href="#DejaVuSans-102"/>
     <use x="437.353516" xlink:href="#DejaVuSans-102"/>
     <use x="472.558594" xlink:href="#DejaVuSans-101"/>
     <use x="534.082031" xlink:href="#DejaVuSans-114"/>
     <use x="575.195312" xlink:href="#DejaVuSans-32"/>
     <use x="606.982422" xlink:href="#DejaVuSans-70"/>
     <use x="664.501953" xlink:href="#DejaVuSans-55"/>
     <use x="728.125" xlink:href="#DejaVuSans-44"/>
     <use x="759.912109" xlink:href="#DejaVuSans-32"/>
     <use x="791.699219" xlink:href="#DejaVuSans-99"/>
     <use x="846.679688" xlink:href="#DejaVuSans-111"/>
     <use x="907.861328" xlink:href="#DejaVuSans-110"/>
     <use x="971.240234" xlink:href="#DejaVuSans-100"/>
     <use x="1034.716797" xlink:href="#DejaVuSans-105"/>
     <use x="1062.5" xlink:href="#DejaVuSans-116"/>
     <use x="1101.708984" xlink:href="#DejaVuSans-105"/>
     <use x="1129.492188" xlink:href="#DejaVuSans-111"/>
     <use x="1190.673828" xlink:href="#DejaVuSans-110"/>
     <use x="1254.052734" xlink:href="#DejaVuSans-32"/>
     <use x="1285.839844" xlink:href="#DejaVuSans-49"/>
     <use x="1349.462891" xlink:href="#DejaVuSans-48"/>
    </g>
   </g>
  </g>
 </g>
 <defs>
  <clipPath id="p8c333e420b">
   <rect height="271.296" width="281.088" x="57.6" y="27.648"/>
  </clipPath>
 </defs>
</svg>
