<?xml version="1.0" encoding="utf-8" standalone="no"?>
<!DOCTYPE svg PUBLIC "-//W3C//DTD SVG 1.1//EN"
  "http://www.w3.org/Graphics/SVG/1.1/DTD/svg11.dtd">
<!-- Created with matplotlib (https://matplotlib.org/) -->
<svg height="345.6pt" version="1.1" viewBox="0 0 460.8 345.6" width="460.8pt" xmlns="http://www.w3.org/2000/svg" xmlns:xlink="http://www.w3.org/1999/xlink">
 <defs>
  <style type="text/css">
*{stroke-linecap:butt;stroke-linejoin:round;}
  </style>
 </defs>
 <g id="figure_1">
  <g id="patch_1">
   <path d="M 0 345.6 
L 460.8 345.6 
L 460.8 0 
L 0 0 
z
" style="fill:#ffffff;"/>
  </g>
  <g id="axes_1">
   <g id="patch_2">
    <path d="M 57.6 298.944 
L 338.688 298.944 
L 338.688 27.648 
L 57.6 27.648 
z
" style="fill:#ffffff;"/>
   </g>
   <g id="line2d_1">
    <path d="M 29.53256 298.944 
L 29.53256 293.677139 
L 36.60358 293.677139 
L 36.60358 288.410278 
L 59.262141 288.410278 
L 59.262141 283.143418 
L 87.643811 283.143418 
L 87.643811 277.876557 
L 107.213174 277.876557 
L 107.213174 272.609696 
L 112.877038 272.609696 
L 112.877038 267.342835 
L 119.751557 267.342835 
L 119.751557 262.075974 
L 123.553867 262.075974 
L 123.553867 256.809114 
L 127.830353 256.809114 
L 127.830353 251.542253 
L 131.236397 251.542253 
L 131.236397 246.275392 
L 134.787017 246.275392 
L 134.787017 241.008531 
L 138.761723 241.008531 
L 138.761723 235.74167 
L 147.580235 235.74167 
L 147.580235 230.47481 
L 154.754456 230.47481 
L 154.754456 225.207949 
L 162.619242 225.207949 
L 162.619242 219.941088 
L 171.876001 219.941088 
L 171.876001 214.674227 
L 178.339672 214.674227 
L 178.339672 209.407366 
L 179.532325 209.407366 
L 179.532325 204.140506 
L 181.023534 204.140506 
L 181.023534 198.873645 
L 185.07091 198.873645 
L 185.07091 193.606784 
L 186.184157 193.606784 
L 186.184157 188.339923 
L 189.567264 188.339923 
L 189.567264 183.073062 
L 190.407906 183.073062 
L 190.407906 177.806202 
L 192.034621 177.806202 
L 192.034621 172.539341 
L 193.072473 172.539341 
L 193.072473 167.27248 
L 195.730693 167.27248 
L 195.730693 162.005619 
L 196.334447 162.005619 
L 196.334447 156.738758 
L 196.939283 156.738758 
L 196.939283 151.471897 
L 197.169982 151.471897 
L 197.169982 146.205037 
L 197.915981 146.205037 
L 197.915981 140.938176 
L 198.136953 140.938176 
L 198.136953 135.671315 
L 198.249138 135.671315 
L 198.249138 130.404454 
L 198.428558 130.404454 
L 198.428558 125.137593 
L 199.594267 125.137593 
L 199.594267 119.870733 
L 199.873165 119.870733 
L 199.873165 114.603872 
L 200.992614 114.603872 
L 200.992614 109.337011 
L 201.10978 109.337011 
L 201.10978 104.07015 
L 201.236329 104.07015 
L 201.236329 98.803289 
L 201.297189 98.803289 
L 201.297189 93.536429 
L 201.368842 93.536429 
L 201.368842 88.269568 
L 201.527631 88.269568 
L 201.527631 83.002707 
L 201.705232 83.002707 
L 201.705232 77.735846 
L 201.986215 77.735846 
L 201.986215 72.468985 
L 203.098525 72.468985 
L 203.098525 67.202125 
L 203.233735 67.202125 
L 203.233735 61.935264 
L 203.384654 61.935264 
L 203.384654 56.668403 
L 203.503077 56.668403 
L 203.503077 51.401542 
L 203.62916 51.401542 
L 203.62916 46.134681 
L 203.727131 46.134681 
L 203.727131 40.867821 
L 203.822564 40.867821 
L 203.822564 35.60096 
L 203.916686 35.60096 
L 203.916686 30.334099 
L 338.688 30.334099 
" style="fill:none;stroke:#f5deb3;stroke-linecap:square;stroke-width:4;"/>
   </g>
   <g id="line2d_2">
    <defs>
     <path d="M -0 7.778175 
L 7.778175 0 
L 0 -7.778175 
L -7.778175 -0 
z
" id="m9018d3a31f" style="stroke:#f5deb3;stroke-linejoin:miter;stroke-width:1.5;"/>
    </defs>
    <g>
     <use style="fill:#f5deb3;stroke:#f5deb3;stroke-linejoin:miter;stroke-width:1.5;" x="112.877038" xlink:href="#m9018d3a31f" y="272.609696"/>
     <use style="fill:#f5deb3;stroke:#f5deb3;stroke-linejoin:miter;stroke-width:1.5;" x="190.407906" xlink:href="#m9018d3a31f" y="183.073062"/>
     <use style="fill:#f5deb3;stroke:#f5deb3;stroke-linejoin:miter;stroke-width:1.5;" x="201.297189" xlink:href="#m9018d3a31f" y="93.536429"/>
     <use style="fill:#f5deb3;stroke:#f5deb3;stroke-linejoin:miter;stroke-width:1.5;" x="203.916686" xlink:href="#m9018d3a31f" y="30.334099"/>
     <use style="fill:#f5deb3;stroke:#f5deb3;stroke-linejoin:miter;stroke-width:1.5;" x="203.916686" xlink:href="#m9018d3a31f" y="30.334099"/>
     <use style="fill:#f5deb3;stroke:#f5deb3;stroke-linejoin:miter;stroke-width:1.5;" x="338.688" xlink:href="#m9018d3a31f" y="30.334099"/>
    </g>
   </g>
   <g id="line2d_3">
    <path style="fill:none;stroke:#f5deb3;stroke-linecap:square;stroke-width:4;"/>
    <g/>
   </g>
   <g id="line2d_4">
    <path d="M 338.688 30.334099 
L 369.60768 35.706297 
" style="fill:none;stroke:#f5deb3;stroke-linecap:square;stroke-width:4;"/>
    <g>
     <use style="fill:#f5deb3;stroke:#f5deb3;stroke-linejoin:miter;stroke-width:1.5;" x="338.688" xlink:href="#m9018d3a31f" y="30.334099"/>
     <use style="fill:#f5deb3;stroke:#f5deb3;stroke-linejoin:miter;stroke-width:1.5;" x="369.60768" xlink:href="#m9018d3a31f" y="35.706297"/>
    </g>
   </g>
   <g id="matplotlib.axis_1">
    <g id="xtick_1">
     <g id="line2d_5">
      <path clip-path="url(#p4c465a8ff0)" d="M 57.6 298.944 
L 57.6 27.648 
" style="fill:none;stroke:#b0b0b0;stroke-linecap:square;stroke-width:0.8;"/>
     </g>
     <g id="line2d_6">
      <defs>
       <path d="M 0 0 
L 0 3.5 
" id="m7a15311c98" style="stroke:#000000;stroke-width:0.8;"/>
      </defs>
      <g>
       <use style="stroke:#000000;stroke-width:0.8;" x="57.6" xlink:href="#m7a15311c98" y="298.944"/>
      </g>
     </g>
     <g id="text_1">
      <!-- 0 -->
      <defs>
       <path d="M 31.78125 66.40625 
Q 24.171875 66.40625 20.328125 58.90625 
Q 16.5 51.421875 16.5 36.375 
Q 16.5 21.390625 20.328125 13.890625 
Q 24.171875 6.390625 31.78125 6.390625 
Q 39.453125 6.390625 43.28125 13.890625 
Q 47.125 21.390625 47.125 36.375 
Q 47.125 51.421875 43.28125 58.90625 
Q 39.453125 66.40625 31.78125 66.40625 
z
M 31.78125 74.21875 
Q 44.046875 74.21875 50.515625 64.515625 
Q 56.984375 54.828125 56.984375 36.375 
Q 56.984375 17.96875 50.515625 8.265625 
Q 44.046875 -1.421875 31.78125 -1.421875 
Q 19.53125 -1.421875 13.0625 8.265625 
Q 6.59375 17.96875 6.59375 36.375 
Q 6.59375 54.828125 13.0625 64.515625 
Q 19.53125 74.21875 31.78125 74.21875 
z
" id="DejaVuSans-48"/>
      </defs>
      <g transform="translate(51.2375 321.140875)scale(0.2 -0.2)">
       <use xlink:href="#DejaVuSans-48"/>
      </g>
     </g>
    </g>
    <g id="xtick_2">
     <g id="line2d_7">
      <path clip-path="url(#p4c465a8ff0)" d="M 137.910857 298.944 
L 137.910857 27.648 
" style="fill:none;stroke:#b0b0b0;stroke-linecap:square;stroke-width:0.8;"/>
     </g>
     <g id="line2d_8">
      <g>
       <use style="stroke:#000000;stroke-width:0.8;" x="137.910857" xlink:href="#m7a15311c98" y="298.944"/>
      </g>
     </g>
     <g id="text_2">
      <!-- 2 -->
      <defs>
       <path d="M 19.1875 8.296875 
L 53.609375 8.296875 
L 53.609375 0 
L 7.328125 0 
L 7.328125 8.296875 
Q 12.9375 14.109375 22.625 23.890625 
Q 32.328125 33.6875 34.8125 36.53125 
Q 39.546875 41.84375 41.421875 45.53125 
Q 43.3125 49.21875 43.3125 52.78125 
Q 43.3125 58.59375 39.234375 62.25 
Q 35.15625 65.921875 28.609375 65.921875 
Q 23.96875 65.921875 18.8125 64.3125 
Q 13.671875 62.703125 7.8125 59.421875 
L 7.8125 69.390625 
Q 13.765625 71.78125 18.9375 73 
Q 24.125 74.21875 28.421875 74.21875 
Q 39.75 74.21875 46.484375 68.546875 
Q 53.21875 62.890625 53.21875 53.421875 
Q 53.21875 48.921875 51.53125 44.890625 
Q 49.859375 40.875 45.40625 35.40625 
Q 44.1875 33.984375 37.640625 27.21875 
Q 31.109375 20.453125 19.1875 8.296875 
z
" id="DejaVuSans-50"/>
      </defs>
      <g transform="translate(131.548357 321.140875)scale(0.2 -0.2)">
       <use xlink:href="#DejaVuSans-50"/>
      </g>
     </g>
    </g>
    <g id="xtick_3">
     <g id="line2d_9">
      <path clip-path="url(#p4c465a8ff0)" d="M 218.221714 298.944 
L 218.221714 27.648 
" style="fill:none;stroke:#b0b0b0;stroke-linecap:square;stroke-width:0.8;"/>
     </g>
     <g id="line2d_10">
      <g>
       <use style="stroke:#000000;stroke-width:0.8;" x="218.221714" xlink:href="#m7a15311c98" y="298.944"/>
      </g>
     </g>
     <g id="text_3">
      <!-- 4 -->
      <defs>
       <path d="M 37.796875 64.3125 
L 12.890625 25.390625 
L 37.796875 25.390625 
z
M 35.203125 72.90625 
L 47.609375 72.90625 
L 47.609375 25.390625 
L 58.015625 25.390625 
L 58.015625 17.1875 
L 47.609375 17.1875 
L 47.609375 0 
L 37.796875 0 
L 37.796875 17.1875 
L 4.890625 17.1875 
L 4.890625 26.703125 
z
" id="DejaVuSans-52"/>
      </defs>
      <g transform="translate(211.859214 321.140875)scale(0.2 -0.2)">
       <use xlink:href="#DejaVuSans-52"/>
      </g>
     </g>
    </g>
    <g id="xtick_4">
     <g id="line2d_11">
      <path clip-path="url(#p4c465a8ff0)" d="M 298.532571 298.944 
L 298.532571 27.648 
" style="fill:none;stroke:#b0b0b0;stroke-linecap:square;stroke-width:0.8;"/>
     </g>
     <g id="line2d_12">
      <g>
       <use style="stroke:#000000;stroke-width:0.8;" x="298.532571" xlink:href="#m7a15311c98" y="298.944"/>
      </g>
     </g>
     <g id="text_4">
      <!-- 6 -->
      <defs>
       <path d="M 33.015625 40.375 
Q 26.375 40.375 22.484375 35.828125 
Q 18.609375 31.296875 18.609375 23.390625 
Q 18.609375 15.53125 22.484375 10.953125 
Q 26.375 6.390625 33.015625 6.390625 
Q 39.65625 6.390625 43.53125 10.953125 
Q 47.40625 15.53125 47.40625 23.390625 
Q 47.40625 31.296875 43.53125 35.828125 
Q 39.65625 40.375 33.015625 40.375 
z
M 52.59375 71.296875 
L 52.59375 62.3125 
Q 48.875 64.0625 45.09375 64.984375 
Q 41.3125 65.921875 37.59375 65.921875 
Q 27.828125 65.921875 22.671875 59.328125 
Q 17.53125 52.734375 16.796875 39.40625 
Q 19.671875 43.65625 24.015625 45.921875 
Q 28.375 48.1875 33.59375 48.1875 
Q 44.578125 48.1875 50.953125 41.515625 
Q 57.328125 34.859375 57.328125 23.390625 
Q 57.328125 12.15625 50.6875 5.359375 
Q 44.046875 -1.421875 33.015625 -1.421875 
Q 20.359375 -1.421875 13.671875 8.265625 
Q 6.984375 17.96875 6.984375 36.375 
Q 6.984375 53.65625 15.1875 63.9375 
Q 23.390625 74.21875 37.203125 74.21875 
Q 40.921875 74.21875 44.703125 73.484375 
Q 48.484375 72.75 52.59375 71.296875 
z
" id="DejaVuSans-54"/>
      </defs>
      <g transform="translate(292.170071 321.140875)scale(0.2 -0.2)">
       <use xlink:href="#DejaVuSans-54"/>
      </g>
     </g>
    </g>
    <g id="xtick_5">
     <g id="line2d_13">
      <path clip-path="url(#p4c465a8ff0)" d="M 97.755429 298.944 
L 97.755429 27.648 
" style="fill:none;stroke:#b0b0b0;stroke-linecap:square;stroke-width:0.8;"/>
     </g>
     <g id="line2d_14">
      <defs>
       <path d="M 0 0 
L 0 2 
" id="m6a1f633903" style="stroke:#000000;stroke-width:0.6;"/>
      </defs>
      <g>
       <use style="stroke:#000000;stroke-width:0.6;" x="97.755429" xlink:href="#m6a1f633903" y="298.944"/>
      </g>
     </g>
    </g>
    <g id="xtick_6">
     <g id="line2d_15">
      <path clip-path="url(#p4c465a8ff0)" d="M 178.066286 298.944 
L 178.066286 27.648 
" style="fill:none;stroke:#b0b0b0;stroke-linecap:square;stroke-width:0.8;"/>
     </g>
     <g id="line2d_16">
      <g>
       <use style="stroke:#000000;stroke-width:0.6;" x="178.066286" xlink:href="#m6a1f633903" y="298.944"/>
      </g>
     </g>
    </g>
    <g id="xtick_7">
     <g id="line2d_17">
      <path clip-path="url(#p4c465a8ff0)" d="M 258.377143 298.944 
L 258.377143 27.648 
" style="fill:none;stroke:#b0b0b0;stroke-linecap:square;stroke-width:0.8;"/>
     </g>
     <g id="line2d_18">
      <g>
       <use style="stroke:#000000;stroke-width:0.6;" x="258.377143" xlink:href="#m6a1f633903" y="298.944"/>
      </g>
     </g>
    </g>
    <g id="xtick_8">
     <g id="line2d_19">
      <path clip-path="url(#p4c465a8ff0)" d="M 338.688 298.944 
L 338.688 27.648 
" style="fill:none;stroke:#b0b0b0;stroke-linecap:square;stroke-width:0.8;"/>
     </g>
     <g id="line2d_20">
      <g>
       <use style="stroke:#000000;stroke-width:0.6;" x="338.688" xlink:href="#m6a1f633903" y="298.944"/>
      </g>
     </g>
    </g>
    <g id="text_5">
     <!-- log10(# f-evals / dimension) -->
     <defs>
      <path d="M 9.421875 75.984375 
L 18.40625 75.984375 
L 18.40625 0 
L 9.421875 0 
z
" id="DejaVuSans-108"/>
      <path d="M 30.609375 48.390625 
Q 23.390625 48.390625 19.1875 42.75 
Q 14.984375 37.109375 14.984375 27.296875 
Q 14.984375 17.484375 19.15625 11.84375 
Q 23.34375 6.203125 30.609375 6.203125 
Q 37.796875 6.203125 41.984375 11.859375 
Q 46.1875 17.53125 46.1875 27.296875 
Q 46.1875 37.015625 41.984375 42.703125 
Q 37.796875 48.390625 30.609375 48.390625 
z
M 30.609375 56 
Q 42.328125 56 49.015625 48.375 
Q 55.71875 40.765625 55.71875 27.296875 
Q 55.71875 13.875 49.015625 6.21875 
Q 42.328125 -1.421875 30.609375 -1.421875 
Q 18.84375 -1.421875 12.171875 6.21875 
Q 5.515625 13.875 5.515625 27.296875 
Q 5.515625 40.765625 12.171875 48.375 
Q 18.84375 56 30.609375 56 
z
" id="DejaVuSans-111"/>
      <path d="M 45.40625 27.984375 
Q 45.40625 37.75 41.375 43.109375 
Q 37.359375 48.484375 30.078125 48.484375 
Q 22.859375 48.484375 18.828125 43.109375 
Q 14.796875 37.75 14.796875 27.984375 
Q 14.796875 18.265625 18.828125 12.890625 
Q 22.859375 7.515625 30.078125 7.515625 
Q 37.359375 7.515625 41.375 12.890625 
Q 45.40625 18.265625 45.40625 27.984375 
z
M 54.390625 6.78125 
Q 54.390625 -7.171875 48.1875 -13.984375 
Q 42 -20.796875 29.203125 -20.796875 
Q 24.46875 -20.796875 20.265625 -20.09375 
Q 16.0625 -19.390625 12.109375 -17.921875 
L 12.109375 -9.1875 
Q 16.0625 -11.328125 19.921875 -12.34375 
Q 23.78125 -13.375 27.78125 -13.375 
Q 36.625 -13.375 41.015625 -8.765625 
Q 45.40625 -4.15625 45.40625 5.171875 
L 45.40625 9.625 
Q 42.625 4.78125 38.28125 2.390625 
Q 33.9375 0 27.875 0 
Q 17.828125 0 11.671875 7.65625 
Q 5.515625 15.328125 5.515625 27.984375 
Q 5.515625 40.671875 11.671875 48.328125 
Q 17.828125 56 27.875 56 
Q 33.9375 56 38.28125 53.609375 
Q 42.625 51.21875 45.40625 46.390625 
L 45.40625 54.6875 
L 54.390625 54.6875 
z
" id="DejaVuSans-103"/>
      <path d="M 12.40625 8.296875 
L 28.515625 8.296875 
L 28.515625 63.921875 
L 10.984375 60.40625 
L 10.984375 69.390625 
L 28.421875 72.90625 
L 38.28125 72.90625 
L 38.28125 8.296875 
L 54.390625 8.296875 
L 54.390625 0 
L 12.40625 0 
z
" id="DejaVuSans-49"/>
      <path d="M 31 75.875 
Q 24.46875 64.65625 21.28125 53.65625 
Q 18.109375 42.671875 18.109375 31.390625 
Q 18.109375 20.125 21.3125 9.0625 
Q 24.515625 -2 31 -13.1875 
L 23.1875 -13.1875 
Q 15.875 -1.703125 12.234375 9.375 
Q 8.59375 20.453125 8.59375 31.390625 
Q 8.59375 42.28125 12.203125 53.3125 
Q 15.828125 64.359375 23.1875 75.875 
z
" id="DejaVuSans-40"/>
      <path d="M 51.125 44 
L 36.921875 44 
L 32.8125 27.6875 
L 47.125 27.6875 
z
M 43.796875 71.78125 
L 38.71875 51.515625 
L 52.984375 51.515625 
L 58.109375 71.78125 
L 65.921875 71.78125 
L 60.890625 51.515625 
L 76.125 51.515625 
L 76.125 44 
L 58.984375 44 
L 54.984375 27.6875 
L 70.515625 27.6875 
L 70.515625 20.21875 
L 53.078125 20.21875 
L 48 0 
L 40.1875 0 
L 45.21875 20.21875 
L 30.90625 20.21875 
L 25.875 0 
L 18.015625 0 
L 23.09375 20.21875 
L 7.71875 20.21875 
L 7.71875 27.6875 
L 24.90625 27.6875 
L 29 44 
L 13.28125 44 
L 13.28125 51.515625 
L 30.90625 51.515625 
L 35.890625 71.78125 
z
" id="DejaVuSans-35"/>
      <path id="DejaVuSans-32"/>
      <path d="M 37.109375 75.984375 
L 37.109375 68.5 
L 28.515625 68.5 
Q 23.6875 68.5 21.796875 66.546875 
Q 19.921875 64.59375 19.921875 59.515625 
L 19.921875 54.6875 
L 34.71875 54.6875 
L 34.71875 47.703125 
L 19.921875 47.703125 
L 19.921875 0 
L 10.890625 0 
L 10.890625 47.703125 
L 2.296875 47.703125 
L 2.296875 54.6875 
L 10.890625 54.6875 
L 10.890625 58.5 
Q 10.890625 67.625 15.140625 71.796875 
Q 19.390625 75.984375 28.609375 75.984375 
z
" id="DejaVuSans-102"/>
      <path d="M 4.890625 31.390625 
L 31.203125 31.390625 
L 31.203125 23.390625 
L 4.890625 23.390625 
z
" id="DejaVuSans-45"/>
      <path d="M 56.203125 29.59375 
L 56.203125 25.203125 
L 14.890625 25.203125 
Q 15.484375 15.921875 20.484375 11.0625 
Q 25.484375 6.203125 34.421875 6.203125 
Q 39.59375 6.203125 44.453125 7.46875 
Q 49.3125 8.734375 54.109375 11.28125 
L 54.109375 2.78125 
Q 49.265625 0.734375 44.1875 -0.34375 
Q 39.109375 -1.421875 33.890625 -1.421875 
Q 20.796875 -1.421875 13.15625 6.1875 
Q 5.515625 13.8125 5.515625 26.8125 
Q 5.515625 40.234375 12.765625 48.109375 
Q 20.015625 56 32.328125 56 
Q 43.359375 56 49.78125 48.890625 
Q 56.203125 41.796875 56.203125 29.59375 
z
M 47.21875 32.234375 
Q 47.125 39.59375 43.09375 43.984375 
Q 39.0625 48.390625 32.421875 48.390625 
Q 24.90625 48.390625 20.390625 44.140625 
Q 15.875 39.890625 15.1875 32.171875 
z
" id="DejaVuSans-101"/>
      <path d="M 2.984375 54.6875 
L 12.5 54.6875 
L 29.59375 8.796875 
L 46.6875 54.6875 
L 56.203125 54.6875 
L 35.6875 0 
L 23.484375 0 
z
" id="DejaVuSans-118"/>
      <path d="M 34.28125 27.484375 
Q 23.390625 27.484375 19.1875 25 
Q 14.984375 22.515625 14.984375 16.5 
Q 14.984375 11.71875 18.140625 8.90625 
Q 21.296875 6.109375 26.703125 6.109375 
Q 34.1875 6.109375 38.703125 11.40625 
Q 43.21875 16.703125 43.21875 25.484375 
L 43.21875 27.484375 
z
M 52.203125 31.203125 
L 52.203125 0 
L 43.21875 0 
L 43.21875 8.296875 
Q 40.140625 3.328125 35.546875 0.953125 
Q 30.953125 -1.421875 24.3125 -1.421875 
Q 15.921875 -1.421875 10.953125 3.296875 
Q 6 8.015625 6 15.921875 
Q 6 25.140625 12.171875 29.828125 
Q 18.359375 34.515625 30.609375 34.515625 
L 43.21875 34.515625 
L 43.21875 35.40625 
Q 43.21875 41.609375 39.140625 45 
Q 35.0625 48.390625 27.6875 48.390625 
Q 23 48.390625 18.546875 47.265625 
Q 14.109375 46.140625 10.015625 43.890625 
L 10.015625 52.203125 
Q 14.9375 54.109375 19.578125 55.046875 
Q 24.21875 56 28.609375 56 
Q 40.484375 56 46.34375 49.84375 
Q 52.203125 43.703125 52.203125 31.203125 
z
" id="DejaVuSans-97"/>
      <path d="M 44.28125 53.078125 
L 44.28125 44.578125 
Q 40.484375 46.53125 36.375 47.5 
Q 32.28125 48.484375 27.875 48.484375 
Q 21.1875 48.484375 17.84375 46.4375 
Q 14.5 44.390625 14.5 40.28125 
Q 14.5 37.15625 16.890625 35.375 
Q 19.28125 33.59375 26.515625 31.984375 
L 29.59375 31.296875 
Q 39.15625 29.25 43.1875 25.515625 
Q 47.21875 21.78125 47.21875 15.09375 
Q 47.21875 7.46875 41.1875 3.015625 
Q 35.15625 -1.421875 24.609375 -1.421875 
Q 20.21875 -1.421875 15.453125 -0.5625 
Q 10.6875 0.296875 5.421875 2 
L 5.421875 11.28125 
Q 10.40625 8.6875 15.234375 7.390625 
Q 20.0625 6.109375 24.8125 6.109375 
Q 31.15625 6.109375 34.5625 8.28125 
Q 37.984375 10.453125 37.984375 14.40625 
Q 37.984375 18.0625 35.515625 20.015625 
Q 33.0625 21.96875 24.703125 23.78125 
L 21.578125 24.515625 
Q 13.234375 26.265625 9.515625 29.90625 
Q 5.8125 33.546875 5.8125 39.890625 
Q 5.8125 47.609375 11.28125 51.796875 
Q 16.75 56 26.8125 56 
Q 31.78125 56 36.171875 55.265625 
Q 40.578125 54.546875 44.28125 53.078125 
z
" id="DejaVuSans-115"/>
      <path d="M 25.390625 72.90625 
L 33.6875 72.90625 
L 8.296875 -9.28125 
L 0 -9.28125 
z
" id="DejaVuSans-47"/>
      <path d="M 45.40625 46.390625 
L 45.40625 75.984375 
L 54.390625 75.984375 
L 54.390625 0 
L 45.40625 0 
L 45.40625 8.203125 
Q 42.578125 3.328125 38.25 0.953125 
Q 33.9375 -1.421875 27.875 -1.421875 
Q 17.96875 -1.421875 11.734375 6.484375 
Q 5.515625 14.40625 5.515625 27.296875 
Q 5.515625 40.1875 11.734375 48.09375 
Q 17.96875 56 27.875 56 
Q 33.9375 56 38.25 53.625 
Q 42.578125 51.265625 45.40625 46.390625 
z
M 14.796875 27.296875 
Q 14.796875 17.390625 18.875 11.75 
Q 22.953125 6.109375 30.078125 6.109375 
Q 37.203125 6.109375 41.296875 11.75 
Q 45.40625 17.390625 45.40625 27.296875 
Q 45.40625 37.203125 41.296875 42.84375 
Q 37.203125 48.484375 30.078125 48.484375 
Q 22.953125 48.484375 18.875 42.84375 
Q 14.796875 37.203125 14.796875 27.296875 
z
" id="DejaVuSans-100"/>
      <path d="M 9.421875 54.6875 
L 18.40625 54.6875 
L 18.40625 0 
L 9.421875 0 
z
M 9.421875 75.984375 
L 18.40625 75.984375 
L 18.40625 64.59375 
L 9.421875 64.59375 
z
" id="DejaVuSans-105"/>
      <path d="M 52 44.1875 
Q 55.375 50.25 60.0625 53.125 
Q 64.75 56 71.09375 56 
Q 79.640625 56 84.28125 50.015625 
Q 88.921875 44.046875 88.921875 33.015625 
L 88.921875 0 
L 79.890625 0 
L 79.890625 32.71875 
Q 79.890625 40.578125 77.09375 44.375 
Q 74.3125 48.1875 68.609375 48.1875 
Q 61.625 48.1875 57.5625 43.546875 
Q 53.515625 38.921875 53.515625 30.90625 
L 53.515625 0 
L 44.484375 0 
L 44.484375 32.71875 
Q 44.484375 40.625 41.703125 44.40625 
Q 38.921875 48.1875 33.109375 48.1875 
Q 26.21875 48.1875 22.15625 43.53125 
Q 18.109375 38.875 18.109375 30.90625 
L 18.109375 0 
L 9.078125 0 
L 9.078125 54.6875 
L 18.109375 54.6875 
L 18.109375 46.1875 
Q 21.1875 51.21875 25.484375 53.609375 
Q 29.78125 56 35.6875 56 
Q 41.65625 56 45.828125 52.96875 
Q 50 49.953125 52 44.1875 
z
" id="DejaVuSans-109"/>
      <path d="M 54.890625 33.015625 
L 54.890625 0 
L 45.90625 0 
L 45.90625 32.71875 
Q 45.90625 40.484375 42.875 44.328125 
Q 39.84375 48.1875 33.796875 48.1875 
Q 26.515625 48.1875 22.3125 43.546875 
Q 18.109375 38.921875 18.109375 30.90625 
L 18.109375 0 
L 9.078125 0 
L 9.078125 54.6875 
L 18.109375 54.6875 
L 18.109375 46.1875 
Q 21.34375 51.125 25.703125 53.5625 
Q 30.078125 56 35.796875 56 
Q 45.21875 56 50.046875 50.171875 
Q 54.890625 44.34375 54.890625 33.015625 
z
" id="DejaVuSans-110"/>
      <path d="M 8.015625 75.875 
L 15.828125 75.875 
Q 23.140625 64.359375 26.78125 53.3125 
Q 30.421875 42.28125 30.421875 31.390625 
Q 30.421875 20.453125 26.78125 9.375 
Q 23.140625 -1.703125 15.828125 -13.1875 
L 8.015625 -13.1875 
Q 14.5 -2 17.703125 9.0625 
Q 20.90625 20.125 20.90625 31.390625 
Q 20.90625 42.671875 17.703125 53.65625 
Q 14.5 64.65625 8.015625 75.875 
z
" id="DejaVuSans-41"/>
     </defs>
     <g transform="translate(77.764078 342.217594)scale(0.17 -0.17)">
      <use xlink:href="#DejaVuSans-108"/>
      <use x="27.783203" xlink:href="#DejaVuSans-111"/>
      <use x="88.964844" xlink:href="#DejaVuSans-103"/>
      <use x="152.441406" xlink:href="#DejaVuSans-49"/>
      <use x="216.064453" xlink:href="#DejaVuSans-48"/>
      <use x="279.6875" xlink:href="#DejaVuSans-40"/>
      <use x="318.701172" xlink:href="#DejaVuSans-35"/>
      <use x="402.490234" xlink:href="#DejaVuSans-32"/>
      <use x="434.277344" xlink:href="#DejaVuSans-102"/>
      <use x="463.982422" xlink:href="#DejaVuSans-45"/>
      <use x="500.066406" xlink:href="#DejaVuSans-101"/>
      <use x="561.589844" xlink:href="#DejaVuSans-118"/>
      <use x="620.769531" xlink:href="#DejaVuSans-97"/>
      <use x="682.048828" xlink:href="#DejaVuSans-108"/>
      <use x="709.832031" xlink:href="#DejaVuSans-115"/>
      <use x="761.931641" xlink:href="#DejaVuSans-32"/>
      <use x="793.71875" xlink:href="#DejaVuSans-47"/>
      <use x="827.410156" xlink:href="#DejaVuSans-32"/>
      <use x="859.197266" xlink:href="#DejaVuSans-100"/>
      <use x="922.673828" xlink:href="#DejaVuSans-105"/>
      <use x="950.457031" xlink:href="#DejaVuSans-109"/>
      <use x="1047.869141" xlink:href="#DejaVuSans-101"/>
      <use x="1109.392578" xlink:href="#DejaVuSans-110"/>
      <use x="1172.771484" xlink:href="#DejaVuSans-115"/>
      <use x="1224.871094" xlink:href="#DejaVuSans-105"/>
      <use x="1252.654297" xlink:href="#DejaVuSans-111"/>
      <use x="1313.835938" xlink:href="#DejaVuSans-110"/>
      <use x="1377.214844" xlink:href="#DejaVuSans-41"/>
     </g>
    </g>
   </g>
   <g id="matplotlib.axis_2">
    <g id="ytick_1">
     <g id="line2d_21">
      <path clip-path="url(#p4c465a8ff0)" d="M 57.6 298.944 
L 338.688 298.944 
" style="fill:none;stroke:#b0b0b0;stroke-linecap:square;stroke-width:0.8;"/>
     </g>
     <g id="line2d_22">
      <defs>
       <path d="M 0 0 
L -3.5 0 
" id="ma371a8c495" style="stroke:#000000;stroke-width:0.8;"/>
      </defs>
      <g>
       <use style="stroke:#000000;stroke-width:0.8;" x="57.6" xlink:href="#ma371a8c495" y="298.944"/>
      </g>
     </g>
     <g id="text_6">
      <!-- 0.0 -->
      <defs>
       <path d="M 10.6875 12.40625 
L 21 12.40625 
L 21 0 
L 10.6875 0 
z
" id="DejaVuSans-46"/>
      </defs>
      <g transform="translate(25.155 305.02275)scale(0.16 -0.16)">
       <use xlink:href="#DejaVuSans-48"/>
       <use x="63.623047" xlink:href="#DejaVuSans-46"/>
       <use x="95.410156" xlink:href="#DejaVuSans-48"/>
      </g>
     </g>
    </g>
    <g id="ytick_2">
     <g id="line2d_23">
      <path clip-path="url(#p4c465a8ff0)" d="M 57.6 245.22202 
L 338.688 245.22202 
" style="fill:none;stroke:#b0b0b0;stroke-linecap:square;stroke-width:0.8;"/>
     </g>
     <g id="line2d_24">
      <g>
       <use style="stroke:#000000;stroke-width:0.8;" x="57.6" xlink:href="#ma371a8c495" y="245.22202"/>
      </g>
     </g>
     <g id="text_7">
      <!-- 0.2 -->
      <g transform="translate(25.155 251.30077)scale(0.16 -0.16)">
       <use xlink:href="#DejaVuSans-48"/>
       <use x="63.623047" xlink:href="#DejaVuSans-46"/>
       <use x="95.410156" xlink:href="#DejaVuSans-50"/>
      </g>
     </g>
    </g>
    <g id="ytick_3">
     <g id="line2d_25">
      <path clip-path="url(#p4c465a8ff0)" d="M 57.6 191.50004 
L 338.688 191.50004 
" style="fill:none;stroke:#b0b0b0;stroke-linecap:square;stroke-width:0.8;"/>
     </g>
     <g id="line2d_26">
      <g>
       <use style="stroke:#000000;stroke-width:0.8;" x="57.6" xlink:href="#ma371a8c495" y="191.50004"/>
      </g>
     </g>
     <g id="text_8">
      <!-- 0.4 -->
      <g transform="translate(25.155 197.57879)scale(0.16 -0.16)">
       <use xlink:href="#DejaVuSans-48"/>
       <use x="63.623047" xlink:href="#DejaVuSans-46"/>
       <use x="95.410156" xlink:href="#DejaVuSans-52"/>
      </g>
     </g>
    </g>
    <g id="ytick_4">
     <g id="line2d_27">
      <path clip-path="url(#p4c465a8ff0)" d="M 57.6 137.778059 
L 338.688 137.778059 
" style="fill:none;stroke:#b0b0b0;stroke-linecap:square;stroke-width:0.8;"/>
     </g>
     <g id="line2d_28">
      <g>
       <use style="stroke:#000000;stroke-width:0.8;" x="57.6" xlink:href="#ma371a8c495" y="137.778059"/>
      </g>
     </g>
     <g id="text_9">
      <!-- 0.6 -->
      <g transform="translate(25.155 143.856809)scale(0.16 -0.16)">
       <use xlink:href="#DejaVuSans-48"/>
       <use x="63.623047" xlink:href="#DejaVuSans-46"/>
       <use x="95.410156" xlink:href="#DejaVuSans-54"/>
      </g>
     </g>
    </g>
    <g id="ytick_5">
     <g id="line2d_29">
      <path clip-path="url(#p4c465a8ff0)" d="M 57.6 84.056079 
L 338.688 84.056079 
" style="fill:none;stroke:#b0b0b0;stroke-linecap:square;stroke-width:0.8;"/>
     </g>
     <g id="line2d_30">
      <g>
       <use style="stroke:#000000;stroke-width:0.8;" x="57.6" xlink:href="#ma371a8c495" y="84.056079"/>
      </g>
     </g>
     <g id="text_10">
      <!-- 0.8 -->
      <defs>
       <path d="M 31.78125 34.625 
Q 24.75 34.625 20.71875 30.859375 
Q 16.703125 27.09375 16.703125 20.515625 
Q 16.703125 13.921875 20.71875 10.15625 
Q 24.75 6.390625 31.78125 6.390625 
Q 38.8125 6.390625 42.859375 10.171875 
Q 46.921875 13.96875 46.921875 20.515625 
Q 46.921875 27.09375 42.890625 30.859375 
Q 38.875 34.625 31.78125 34.625 
z
M 21.921875 38.8125 
Q 15.578125 40.375 12.03125 44.71875 
Q 8.5 49.078125 8.5 55.328125 
Q 8.5 64.0625 14.71875 69.140625 
Q 20.953125 74.21875 31.78125 74.21875 
Q 42.671875 74.21875 48.875 69.140625 
Q 55.078125 64.0625 55.078125 55.328125 
Q 55.078125 49.078125 51.53125 44.71875 
Q 48 40.375 41.703125 38.8125 
Q 48.828125 37.15625 52.796875 32.3125 
Q 56.78125 27.484375 56.78125 20.515625 
Q 56.78125 9.90625 50.3125 4.234375 
Q 43.84375 -1.421875 31.78125 -1.421875 
Q 19.734375 -1.421875 13.25 4.234375 
Q 6.78125 9.90625 6.78125 20.515625 
Q 6.78125 27.484375 10.78125 32.3125 
Q 14.796875 37.15625 21.921875 38.8125 
z
M 18.3125 54.390625 
Q 18.3125 48.734375 21.84375 45.5625 
Q 25.390625 42.390625 31.78125 42.390625 
Q 38.140625 42.390625 41.71875 45.5625 
Q 45.3125 48.734375 45.3125 54.390625 
Q 45.3125 60.0625 41.71875 63.234375 
Q 38.140625 66.40625 31.78125 66.40625 
Q 25.390625 66.40625 21.84375 63.234375 
Q 18.3125 60.0625 18.3125 54.390625 
z
" id="DejaVuSans-56"/>
      </defs>
      <g transform="translate(25.155 90.134829)scale(0.16 -0.16)">
       <use xlink:href="#DejaVuSans-48"/>
       <use x="63.623047" xlink:href="#DejaVuSans-46"/>
       <use x="95.410156" xlink:href="#DejaVuSans-56"/>
      </g>
     </g>
    </g>
    <g id="ytick_6">
     <g id="line2d_31">
      <path clip-path="url(#p4c465a8ff0)" d="M 57.6 30.334099 
L 338.688 30.334099 
" style="fill:none;stroke:#b0b0b0;stroke-linecap:square;stroke-width:0.8;"/>
     </g>
     <g id="line2d_32">
      <g>
       <use style="stroke:#000000;stroke-width:0.8;" x="57.6" xlink:href="#ma371a8c495" y="30.334099"/>
      </g>
     </g>
     <g id="text_11">
      <!-- 1.0 -->
      <g transform="translate(25.155 36.412849)scale(0.16 -0.16)">
       <use xlink:href="#DejaVuSans-49"/>
       <use x="63.623047" xlink:href="#DejaVuSans-46"/>
       <use x="95.410156" xlink:href="#DejaVuSans-48"/>
      </g>
     </g>
    </g>
    <g id="text_12">
     <!-- Fraction of function,target pairs -->
     <defs>
      <path d="M 9.8125 72.90625 
L 51.703125 72.90625 
L 51.703125 64.59375 
L 19.671875 64.59375 
L 19.671875 43.109375 
L 48.578125 43.109375 
L 48.578125 34.8125 
L 19.671875 34.8125 
L 19.671875 0 
L 9.8125 0 
z
" id="DejaVuSans-70"/>
      <path d="M 41.109375 46.296875 
Q 39.59375 47.171875 37.8125 47.578125 
Q 36.03125 48 33.890625 48 
Q 26.265625 48 22.1875 43.046875 
Q 18.109375 38.09375 18.109375 28.8125 
L 18.109375 0 
L 9.078125 0 
L 9.078125 54.6875 
L 18.109375 54.6875 
L 18.109375 46.1875 
Q 20.953125 51.171875 25.484375 53.578125 
Q 30.03125 56 36.53125 56 
Q 37.453125 56 38.578125 55.875 
Q 39.703125 55.765625 41.0625 55.515625 
z
" id="DejaVuSans-114"/>
      <path d="M 48.78125 52.59375 
L 48.78125 44.1875 
Q 44.96875 46.296875 41.140625 47.34375 
Q 37.3125 48.390625 33.40625 48.390625 
Q 24.65625 48.390625 19.8125 42.84375 
Q 14.984375 37.3125 14.984375 27.296875 
Q 14.984375 17.28125 19.8125 11.734375 
Q 24.65625 6.203125 33.40625 6.203125 
Q 37.3125 6.203125 41.140625 7.25 
Q 44.96875 8.296875 48.78125 10.40625 
L 48.78125 2.09375 
Q 45.015625 0.34375 40.984375 -0.53125 
Q 36.96875 -1.421875 32.421875 -1.421875 
Q 20.0625 -1.421875 12.78125 6.34375 
Q 5.515625 14.109375 5.515625 27.296875 
Q 5.515625 40.671875 12.859375 48.328125 
Q 20.21875 56 33.015625 56 
Q 37.15625 56 41.109375 55.140625 
Q 45.0625 54.296875 48.78125 52.59375 
z
" id="DejaVuSans-99"/>
      <path d="M 18.3125 70.21875 
L 18.3125 54.6875 
L 36.8125 54.6875 
L 36.8125 47.703125 
L 18.3125 47.703125 
L 18.3125 18.015625 
Q 18.3125 11.328125 20.140625 9.421875 
Q 21.96875 7.515625 27.59375 7.515625 
L 36.8125 7.515625 
L 36.8125 0 
L 27.59375 0 
Q 17.1875 0 13.234375 3.875 
Q 9.28125 7.765625 9.28125 18.015625 
L 9.28125 47.703125 
L 2.6875 47.703125 
L 2.6875 54.6875 
L 9.28125 54.6875 
L 9.28125 70.21875 
z
" id="DejaVuSans-116"/>
      <path d="M 8.5 21.578125 
L 8.5 54.6875 
L 17.484375 54.6875 
L 17.484375 21.921875 
Q 17.484375 14.15625 20.5 10.265625 
Q 23.53125 6.390625 29.59375 6.390625 
Q 36.859375 6.390625 41.078125 11.03125 
Q 45.3125 15.671875 45.3125 23.6875 
L 45.3125 54.6875 
L 54.296875 54.6875 
L 54.296875 0 
L 45.3125 0 
L 45.3125 8.40625 
Q 42.046875 3.421875 37.71875 1 
Q 33.40625 -1.421875 27.6875 -1.421875 
Q 18.265625 -1.421875 13.375 4.4375 
Q 8.5 10.296875 8.5 21.578125 
z
M 31.109375 56 
z
" id="DejaVuSans-117"/>
      <path d="M 11.71875 12.40625 
L 22.015625 12.40625 
L 22.015625 4 
L 14.015625 -11.625 
L 7.71875 -11.625 
L 11.71875 4 
z
" id="DejaVuSans-44"/>
      <path d="M 18.109375 8.203125 
L 18.109375 -20.796875 
L 9.078125 -20.796875 
L 9.078125 54.6875 
L 18.109375 54.6875 
L 18.109375 46.390625 
Q 20.953125 51.265625 25.265625 53.625 
Q 29.59375 56 35.59375 56 
Q 45.5625 56 51.78125 48.09375 
Q 58.015625 40.1875 58.015625 27.296875 
Q 58.015625 14.40625 51.78125 6.484375 
Q 45.5625 -1.421875 35.59375 -1.421875 
Q 29.59375 -1.421875 25.265625 0.953125 
Q 20.953125 3.328125 18.109375 8.203125 
z
M 48.6875 27.296875 
Q 48.6875 37.203125 44.609375 42.84375 
Q 40.53125 48.484375 33.40625 48.484375 
Q 26.265625 48.484375 22.1875 42.84375 
Q 18.109375 37.203125 18.109375 27.296875 
Q 18.109375 17.390625 22.1875 11.75 
Q 26.265625 6.109375 33.40625 6.109375 
Q 40.53125 6.109375 44.609375 11.75 
Q 48.6875 17.390625 48.6875 27.296875 
z
" id="DejaVuSans-112"/>
     </defs>
     <g transform="translate(17.619531 297.681)rotate(-90)scale(0.17 -0.17)">
      <use xlink:href="#DejaVuSans-70"/>
      <use x="50.269531" xlink:href="#DejaVuSans-114"/>
      <use x="91.382812" xlink:href="#DejaVuSans-97"/>
      <use x="152.662109" xlink:href="#DejaVuSans-99"/>
      <use x="207.642578" xlink:href="#DejaVuSans-116"/>
      <use x="246.851562" xlink:href="#DejaVuSans-105"/>
      <use x="274.634766" xlink:href="#DejaVuSans-111"/>
      <use x="335.816406" xlink:href="#DejaVuSans-110"/>
      <use x="399.195312" xlink:href="#DejaVuSans-32"/>
      <use x="430.982422" xlink:href="#DejaVuSans-111"/>
      <use x="492.164062" xlink:href="#DejaVuSans-102"/>
      <use x="527.369141" xlink:href="#DejaVuSans-32"/>
      <use x="559.15625" xlink:href="#DejaVuSans-102"/>
      <use x="594.361328" xlink:href="#DejaVuSans-117"/>
      <use x="657.740234" xlink:href="#DejaVuSans-110"/>
      <use x="721.119141" xlink:href="#DejaVuSans-99"/>
      <use x="776.099609" xlink:href="#DejaVuSans-116"/>
      <use x="815.308594" xlink:href="#DejaVuSans-105"/>
      <use x="843.091797" xlink:href="#DejaVuSans-111"/>
      <use x="904.273438" xlink:href="#DejaVuSans-110"/>
      <use x="967.652344" xlink:href="#DejaVuSans-44"/>
      <use x="999.439453" xlink:href="#DejaVuSans-116"/>
      <use x="1038.648438" xlink:href="#DejaVuSans-97"/>
      <use x="1099.927734" xlink:href="#DejaVuSans-114"/>
      <use x="1139.291016" xlink:href="#DejaVuSans-103"/>
      <use x="1202.767578" xlink:href="#DejaVuSans-101"/>
      <use x="1264.291016" xlink:href="#DejaVuSans-116"/>
      <use x="1303.5" xlink:href="#DejaVuSans-32"/>
      <use x="1335.287109" xlink:href="#DejaVuSans-112"/>
      <use x="1398.763672" xlink:href="#DejaVuSans-97"/>
      <use x="1460.042969" xlink:href="#DejaVuSans-105"/>
      <use x="1487.826172" xlink:href="#DejaVuSans-114"/>
      <use x="1528.939453" xlink:href="#DejaVuSans-115"/>
     </g>
    </g>
   </g>
   <g id="line2d_33">
    <defs>
     <path d="M 0 1.5 
C 0.397805 1.5 0.77937 1.341951 1.06066 1.06066 
C 1.341951 0.77937 1.5 0.397805 1.5 0 
C 1.5 -0.397805 1.341951 -0.77937 1.06066 -1.06066 
C 0.77937 -1.341951 0.397805 -1.5 0 -1.5 
C -0.397805 -1.5 -0.77937 -1.341951 -1.06066 -1.06066 
C -1.341951 -0.77937 -1.5 -0.397805 -1.5 0 
C -1.5 0.397805 -1.341951 0.77937 -1.06066 1.06066 
C -0.77937 1.341951 -0.397805 1.5 0 1.5 
z
" id="ma3c1f0b4bc" style="stroke:#f5deb3;"/>
    </defs>
    <g>
     <use style="fill:#f5deb3;stroke:#f5deb3;" x="203.916686" xlink:href="#ma3c1f0b4bc" y="30.334099"/>
     <use style="fill:#f5deb3;stroke:#f5deb3;" x="203.916686" xlink:href="#ma3c1f0b4bc" y="30.334099"/>
    </g>
   </g>
   <g id="line2d_34">
    <defs>
     <path d="M 0 1.5 
C 0.397805 1.5 0.77937 1.341951 1.06066 1.06066 
C 1.341951 0.77937 1.5 0.397805 1.5 0 
C 1.5 -0.397805 1.341951 -0.77937 1.06066 -1.06066 
C 0.77937 -1.341951 0.397805 -1.5 0 -1.5 
C -0.397805 -1.5 -0.77937 -1.341951 -1.06066 -1.06066 
C -1.341951 -0.77937 -1.5 -0.397805 -1.5 0 
C -1.5 0.397805 -1.341951 0.77937 -1.06066 1.06066 
C -0.77937 1.341951 -0.397805 1.5 0 1.5 
z
" id="md4841e9c37" style="stroke:#000080;"/>
    </defs>
    <g>
     <use style="fill:#000080;stroke:#000080;" x="244.030756" xlink:href="#md4841e9c37" y="172.539341"/>
     <use style="fill:#000080;stroke:#000080;" x="244.030756" xlink:href="#md4841e9c37" y="172.539341"/>
    </g>
   </g>
   <g id="line2d_35">
    <path d="M 17.444571 298.944 
L 17.444571 293.677139 
L 29.53256 293.677139 
L 29.53256 293.150453 
L 36.60358 293.150453 
L 36.60358 292.623767 
L 41.620548 292.623767 
L 41.620548 292.097081 
L 45.512012 292.097081 
L 45.512012 291.043709 
L 51.379845 291.043709 
L 51.379845 290.517023 
L 59.262141 290.517023 
L 59.262141 289.463651 
L 60.779557 289.463651 
L 60.779557 288.936964 
L 67.850577 288.936964 
L 67.850577 288.410278 
L 76.16779 288.410278 
L 76.16779 287.883592 
L 77.330839 287.883592 
L 77.330839 287.356906 
L 78.421149 287.356906 
L 78.421149 286.303534 
L 83.438118 286.303534 
L 83.438118 285.776848 
L 86.351421 285.776848 
L 86.351421 285.250162 
L 92.73846 285.250162 
L 92.73846 284.723476 
L 94.714831 284.723476 
L 94.714831 284.19679 
L 97.580158 284.19679 
L 97.580158 283.670104 
L 98.100772 283.670104 
L 98.100772 283.143418 
L 100.493461 283.143418 
L 100.493461 282.616732 
L 101.785851 282.616732 
L 101.785851 282.090045 
L 102.330873 282.090045 
L 102.330873 281.563359 
L 102.464508 281.563359 
L 102.464508 281.036673 
L 104.709797 281.036673 
L 104.709797 279.983301 
L 107.414787 279.983301 
L 107.414787 279.456615 
L 108.006005 279.456615 
L 108.006005 278.929929 
L 108.198707 278.929929 
L 108.198707 278.403243 
L 110.103064 278.403243 
L 110.103064 277.876557 
L 111.023335 277.876557 
L 111.104637 276.823185 
L 111.897469 276.823185 
L 111.897469 276.296499 
L 113.524343 276.296499 
L 113.524343 275.769812 
L 114.485807 275.769812 
L 114.485807 275.243126 
L 115.012316 275.243126 
L 115.012316 274.71644 
L 116.739166 274.71644 
L 116.739166 274.189754 
L 118.363901 274.189754 
L 118.363901 273.663068 
L 118.890808 273.663068 
L 118.890808 273.136382 
L 121.174025 273.136382 
L 121.174025 272.609696 
L 121.355214 272.609696 
L 121.355214 272.08301 
L 121.84399 272.08301 
L 121.84399 271.556324 
L 122.276749 271.556324 
L 122.276749 271.029638 
L 122.865118 271.029638 
L 122.865118 270.502952 
L 123.029641 270.502952 
L 123.029641 269.976266 
L 124.482119 269.976266 
L 124.482119 269.449579 
L 124.854767 269.449579 
L 124.854767 268.922893 
L 127.100304 268.922893 
L 127.100304 267.869521 
L 128.168991 267.869521 
L 128.168991 267.342835 
L 128.471239 267.342835 
L 128.471239 266.816149 
L 128.738855 266.816149 
L 128.738855 266.289463 
L 129.88095 266.289463 
L 129.88095 265.762777 
L 130.638123 265.762777 
L 130.638123 265.236091 
L 131.236397 265.236091 
L 131.26195 264.182719 
L 131.414481 264.182719 
L 131.414481 263.656033 
L 131.740458 263.656033 
L 131.740458 263.129347 
L 132.011604 263.129347 
L 132.011604 262.60266 
L 132.278599 262.60266 
L 132.278599 262.075974 
L 132.494049 262.075974 
L 132.494049 261.549288 
L 132.940331 261.549288 
L 132.940331 261.022602 
L 133.124876 261.022602 
L 133.124876 260.495916 
L 133.689303 260.495916 
L 133.689303 259.96923 
L 134.61933 259.96923 
L 134.661403 258.915858 
L 134.973757 258.915858 
L 134.973757 258.389172 
L 135.44209 258.389172 
L 135.44209 257.3358 
L 135.582166 257.3358 
L 135.582166 256.809114 
L 136.092812 256.809114 
L 136.092812 256.282427 
L 136.437776 256.282427 
L 136.437776 255.229055 
L 137.198951 255.229055 
L 137.198951 254.702369 
L 137.451437 254.702369 
L 137.451437 254.175683 
L 137.945701 254.175683 
L 137.945701 253.648997 
L 138.493936 253.648997 
L 138.54446 252.068939 
L 139.204493 252.068939 
L 139.204493 251.542253 
L 140.469102 251.542253 
L 140.469102 251.015567 
L 140.663789 251.015567 
L 140.663789 250.488881 
L 140.915143 250.488881 
L 140.944478 249.435508 
L 141.075875 249.435508 
L 141.075875 248.908822 
L 141.307054 248.908822 
L 141.307054 248.382136 
L 141.521035 248.382136 
L 141.620002 247.328764 
L 142.311031 247.328764 
L 142.311031 246.802078 
L 143.170282 246.802078 
L 143.196061 245.748706 
L 143.803587 245.748706 
L 143.803587 245.22202 
L 145.440832 245.22202 
L 145.440832 244.695334 
L 145.987073 244.695334 
L 145.987073 244.168648 
L 146.161795 244.168648 
L 146.161795 243.641962 
L 146.612281 243.641962 
L 146.612281 243.115275 
L 146.759894 243.115275 
L 146.759894 242.588589 
L 147.358461 242.588589 
L 147.358461 242.061903 
L 147.650212 242.061903 
L 147.739772 241.008531 
L 148.209809 241.008531 
L 148.209809 240.481845 
L 149.030744 240.481845 
L 149.030744 239.955159 
L 150.420958 239.955159 
L 150.420958 239.428473 
L 151.84236 239.428473 
L 151.84236 238.901787 
L 152.466496 238.901787 
L 152.466496 238.375101 
L 152.803824 238.375101 
L 152.803824 237.848415 
L 156.150854 237.848415 
L 156.150854 237.321729 
L 158.779504 237.321729 
L 158.779504 236.795043 
L 160.098601 236.795043 
L 160.098601 236.268356 
L 162.427903 236.268356 
L 162.427903 235.74167 
L 166.832484 235.74167 
L 166.832484 235.214984 
L 167.728995 235.214984 
L 167.728995 234.161612 
L 168.177458 234.161612 
L 168.177458 233.634926 
L 168.415645 233.634926 
L 168.415645 232.581554 
L 169.218785 232.581554 
L 169.227472 231.528182 
L 169.582803 231.528182 
L 169.630959 230.47481 
L 169.83904 230.47481 
L 169.919913 229.421437 
L 170.261547 229.421437 
L 170.26973 228.368065 
L 170.486538 228.368065 
L 170.486538 227.841379 
L 170.599292 227.841379 
L 170.599292 227.314693 
L 171.105655 227.314693 
L 171.105655 226.788007 
L 171.486182 226.788007 
L 171.486182 226.261321 
L 171.653236 226.261321 
L 171.653236 225.734635 
L 172.563617 225.734635 
L 172.563617 225.207949 
L 175.914081 225.207949 
L 175.914081 224.681263 
L 176.46942 224.681263 
L 176.574218 223.627891 
L 179.501836 223.627891 
L 179.501836 223.101204 
L 179.65853 223.101204 
L 179.65853 222.574518 
L 179.972447 222.574518 
L 179.972447 222.047832 
L 180.132734 222.047832 
L 180.132734 221.521146 
L 180.257758 221.521146 
L 180.257758 220.99446 
L 180.41698 220.99446 
L 180.450477 219.941088 
L 180.846003 219.941088 
L 180.859381 218.887716 
L 181.032363 218.887716 
L 181.118947 217.834344 
L 181.653764 217.834344 
L 181.653764 217.307658 
L 183.907941 217.307658 
L 183.907941 216.780971 
L 184.643235 216.780971 
L 184.643235 216.254285 
L 184.846566 216.254285 
L 184.846566 215.727599 
L 186.531046 215.727599 
L 186.617769 214.674227 
L 190.127222 214.674227 
L 190.127222 214.147541 
L 191.583399 214.147541 
L 191.590627 212.567483 
L 191.823548 212.567483 
L 191.823548 212.040797 
L 192.059654 212.040797 
L 192.059654 211.514111 
L 193.173234 211.514111 
L 193.173234 210.987425 
L 193.304013 210.987425 
L 193.304013 210.460738 
L 194.887964 210.460738 
L 194.887964 209.934052 
L 195.004557 209.934052 
L 195.019077 208.88068 
L 195.191722 208.88068 
L 195.269281 207.827308 
L 195.387237 207.827308 
L 195.387237 207.300622 
L 197.169399 207.300622 
L 197.169399 206.773936 
L 198.139711 206.773936 
L 198.139711 205.720564 
L 198.507591 205.720564 
L 198.507591 205.193878 
L 199.376733 205.193878 
L 199.376733 204.667192 
L 200.594198 204.667192 
L 200.594198 204.140506 
L 200.817977 204.140506 
L 200.817977 203.613819 
L 201.667423 203.613819 
L 201.667423 203.087133 
L 202.786929 203.087133 
L 202.786929 202.560447 
L 203.083991 202.560447 
L 203.083991 202.033761 
L 203.941225 202.033761 
L 203.941225 201.507075 
L 204.739786 201.507075 
L 204.739786 200.980389 
L 204.894004 200.980389 
L 204.894004 200.453703 
L 205.039444 200.453703 
L 205.133887 199.400331 
L 206.101957 199.400331 
L 206.101957 198.873645 
L 206.623116 198.873645 
L 206.702294 197.293586 
L 206.901015 197.293586 
L 206.901015 196.240214 
L 207.423151 196.240214 
L 207.423151 195.713528 
L 207.638843 195.713528 
L 207.638843 195.186842 
L 208.25863 195.186842 
L 208.25863 194.660156 
L 208.400091 194.660156 
L 208.400091 194.13347 
L 209.003026 194.13347 
L 209.003026 193.606784 
L 209.716377 193.606784 
L 209.716377 193.080098 
L 209.832435 193.080098 
L 209.832435 192.553412 
L 210.676676 192.553412 
L 210.676676 192.026726 
L 211.249903 192.026726 
L 211.249903 191.50004 
L 211.957657 191.50004 
L 211.957657 190.973354 
L 212.351543 190.973354 
L 212.351543 190.446667 
L 214.657419 190.446667 
L 214.657419 189.393295 
L 216.292797 189.393295 
L 216.292797 188.866609 
L 216.635356 188.866609 
L 216.635356 188.339923 
L 217.4809 188.339923 
L 217.4809 187.813237 
L 218.430085 187.813237 
L 218.430085 187.286551 
L 218.645359 187.286551 
L 218.645359 186.759865 
L 218.969801 186.759865 
L 218.969801 186.233179 
L 221.297344 186.233179 
L 221.297344 185.706493 
L 222.079522 185.706493 
L 222.079522 185.179807 
L 222.310861 185.179807 
L 222.403586 184.126434 
L 222.618906 184.126434 
L 222.618906 183.599748 
L 223.415749 183.599748 
L 223.415749 183.073062 
L 224.346617 183.073062 
L 224.346617 182.546376 
L 224.631498 182.546376 
L 224.631498 182.01969 
L 226.310547 182.01969 
L 226.344512 180.966318 
L 226.889116 180.966318 
L 226.889116 180.439632 
L 229.10935 180.439632 
L 229.10935 179.912946 
L 229.365274 179.912946 
L 229.365274 179.38626 
L 230.275576 179.38626 
L 230.287628 178.332888 
L 232.108994 178.332888 
L 232.123302 177.279515 
L 233.726914 177.279515 
L 233.726914 176.752829 
L 234.282938 176.752829 
L 234.282938 176.226143 
L 235.377107 176.226143 
L 235.465306 175.172771 
L 235.50898 175.172771 
L 235.50898 174.646085 
L 237.75835 174.646085 
L 237.75835 174.119399 
L 239.235478 174.119399 
L 239.235478 173.592713 
L 241.794757 173.592713 
L 241.794757 173.066027 
L 244.030756 173.066027 
L 244.030756 172.539341 
L 338.688 172.539341 
L 338.688 172.539341 
" style="fill:none;stroke:#000080;stroke-linecap:square;stroke-width:1.5;"/>
   </g>
   <g id="line2d_36">
    <defs>
     <path d="M 0 6 
C 1.591219 6 3.117479 5.367802 4.242641 4.242641 
C 5.367802 3.117479 6 1.591219 6 0 
C 6 -1.591219 5.367802 -3.117479 4.242641 -4.242641 
C 3.117479 -5.367802 1.591219 -6 0 -6 
C -1.591219 -6 -3.117479 -5.367802 -4.242641 -4.242641 
C -5.367802 -3.117479 -6 -1.591219 -6 0 
C -6 1.591219 -5.367802 3.117479 -4.242641 4.242641 
C -3.117479 5.367802 -1.591219 6 0 6 
z
" id="m8c67b0e6f9" style="stroke:#000080;stroke-width:1.5;"/>
    </defs>
    <g>
     <use style="fill-opacity:0;stroke:#000080;stroke-width:1.5;" x="123.029641" xlink:href="#m8c67b0e6f9" y="270.502952"/>
     <use style="fill-opacity:0;stroke:#000080;stroke-width:1.5;" x="180.846003" xlink:href="#m8c67b0e6f9" y="219.941088"/>
     <use style="fill-opacity:0;stroke:#000080;stroke-width:1.5;" x="244.030756" xlink:href="#m8c67b0e6f9" y="173.066027"/>
     <use style="fill-opacity:0;stroke:#000080;stroke-width:1.5;" x="244.030756" xlink:href="#m8c67b0e6f9" y="172.539341"/>
     <use style="fill-opacity:0;stroke:#000080;stroke-width:1.5;" x="244.030756" xlink:href="#m8c67b0e6f9" y="172.539341"/>
     <use style="fill-opacity:0;stroke:#000080;stroke-width:1.5;" x="338.688" xlink:href="#m8c67b0e6f9" y="172.539341"/>
    </g>
   </g>
   <g id="line2d_37">
    <path style="fill:none;stroke:#000080;stroke-linecap:square;stroke-width:1.5;"/>
    <g/>
   </g>
   <g id="line2d_38">
    <path clip-path="url(#p4c465a8ff0)" d="M 165.943384 235.74167 
" style="fill:none;stroke:#000080;stroke-linecap:square;stroke-width:1.5;"/>
    <defs>
     <path d="M -12 12 
L 12 -12 
M -12 -12 
L 12 12 
" id="m06d9a39ed5" style="stroke:#000080;"/>
    </defs>
    <g clip-path="url(#p4c465a8ff0)">
     <use style="fill:#000080;stroke:#000080;" x="165.943384" xlink:href="#m06d9a39ed5" y="235.74167"/>
    </g>
   </g>
   <g id="line2d_39">
    <defs>
     <path d="M 0 1.5 
C 0.397805 1.5 0.77937 1.341951 1.06066 1.06066 
C 1.341951 0.77937 1.5 0.397805 1.5 0 
C 1.5 -0.397805 1.341951 -0.77937 1.06066 -1.06066 
C 0.77937 -1.341951 0.397805 -1.5 0 -1.5 
C -0.397805 -1.5 -0.77937 -1.341951 -1.06066 -1.06066 
C -1.341951 -0.77937 -1.5 -0.397805 -1.5 0 
C -1.5 0.397805 -1.341951 0.77937 -1.06066 1.06066 
C -0.77937 1.341951 -0.397805 1.5 0 1.5 
z
" id="m2b50f79b77" style="stroke:#ff00ff;"/>
    </defs>
    <g>
     <use style="fill:#ff00ff;stroke:#ff00ff;" x="222.730898" xlink:href="#m2b50f79b77" y="230.47481"/>
     <use style="fill:#ff00ff;stroke:#ff00ff;" x="222.730898" xlink:href="#m2b50f79b77" y="230.47481"/>
    </g>
   </g>
   <g id="line2d_40">
    <path d="M 17.444571 298.944 
L 17.444571 297.890628 
L 29.53256 297.890628 
L 29.53256 296.31057 
L 41.620548 296.31057 
L 41.620548 295.257197 
L 45.512012 295.257197 
L 45.512012 292.097081 
L 48.691568 292.097081 
L 48.691568 291.043709 
L 53.708537 291.043709 
L 53.708537 290.517023 
L 55.762588 290.517023 
L 55.762588 289.990337 
L 59.262141 289.990337 
L 59.262141 289.463651 
L 60.779557 289.463651 
L 60.779557 288.936964 
L 63.467834 288.936964 
L 63.467834 288.410278 
L 67.850577 288.410278 
L 67.850577 287.883592 
L 76.16779 287.883592 
L 76.16779 287.356906 
L 76.759008 287.356906 
L 76.759008 286.83022 
L 78.941764 286.83022 
L 78.941764 286.303534 
L 89.135256 286.303534 
L 89.135256 285.776848 
L 89.418828 285.776848 
L 89.418828 285.250162 
L 98.100772 285.250162 
L 98.100772 284.723476 
L 102.597126 284.723476 
L 102.597126 284.19679 
L 102.989037 284.19679 
L 102.989037 283.670104 
L 104.114542 283.670104 
L 104.114542 283.143418 
L 104.355088 283.143418 
L 104.355088 282.616732 
L 106.06061 282.616732 
L 106.06061 282.090045 
L 107.414787 282.090045 
L 107.414787 281.563359 
L 109.401893 281.563359 
L 109.401893 281.036673 
L 110.941652 281.036673 
L 110.941652 280.509987 
L 112.356423 280.509987 
L 112.356423 279.983301 
L 114.080224 279.983301 
L 114.080224 278.929929 
L 114.685115 278.929929 
L 114.685115 277.876557 
L 116.443076 277.876557 
L 116.443076 277.349871 
L 120.571812 277.349871 
L 120.571812 276.823185 
L 121.579085 276.823185 
L 121.579085 276.296499 
L 124.254646 276.296499 
L 124.254646 275.769812 
L 124.854767 275.769812 
L 124.854767 275.243126 
L 128.168991 275.243126 
L 128.168991 274.71644 
L 128.501178 274.71644 
L 128.501178 274.189754 
L 129.147151 274.189754 
L 129.147151 273.663068 
L 129.630422 273.663068 
L 129.630422 273.136382 
L 130.874681 273.136382 
L 130.874681 272.609696 
L 131.056477 272.609696 
L 131.056477 272.08301 
L 131.439773 272.08301 
L 131.439773 271.556324 
L 132.206187 271.556324 
L 132.206187 271.029638 
L 135.178927 271.029638 
L 135.178927 270.502952 
L 136.399782 270.502952 
L 136.399782 269.976266 
L 136.570107 269.976266 
L 136.570107 269.449579 
L 136.997972 269.449579 
L 136.997972 268.922893 
L 138.118883 268.922893 
L 138.118883 268.396207 
L 138.239095 268.396207 
L 138.307417 267.342835 
L 138.910565 267.342835 
L 138.910565 266.816149 
L 139.285267 266.816149 
L 139.285267 266.289463 
L 139.541262 266.289463 
L 139.541262 265.762777 
L 140.752916 265.762777 
L 140.752916 265.236091 
L 140.915143 265.236091 
L 140.915143 264.709405 
L 142.120287 264.709405 
L 142.120287 264.182719 
L 142.778958 264.182719 
L 142.778958 263.656033 
L 144.136243 263.656033 
L 144.136243 263.129347 
L 145.051495 263.129347 
L 145.051495 262.60266 
L 145.166911 262.60266 
L 145.166911 262.075974 
L 147.680117 262.075974 
L 147.779429 261.022602 
L 148.296548 261.022602 
L 148.296548 260.495916 
L 148.440161 260.495916 
L 148.440161 259.96923 
L 148.639252 259.96923 
L 148.639252 259.442544 
L 149.07677 259.442544 
L 149.07677 258.915858 
L 149.521512 258.915858 
L 149.521512 258.389172 
L 150.033689 258.389172 
L 150.033689 257.862486 
L 151.692666 257.862486 
L 151.779487 256.809114 
L 151.889366 256.809114 
L 151.889366 256.282427 
L 153.31592 256.282427 
L 153.31592 255.755741 
L 153.466662 255.755741 
L 153.48095 254.702369 
L 153.93907 254.702369 
L 153.93907 254.175683 
L 154.09144 254.175683 
L 154.09144 253.648997 
L 155.647315 253.648997 
L 155.647315 253.122311 
L 156.364014 253.122311 
L 156.364014 252.595625 
L 156.610446 252.595625 
L 156.622378 251.542253 
L 157.289376 251.542253 
L 157.289376 251.015567 
L 158.18992 251.015567 
L 158.18992 250.488881 
L 159.314063 250.488881 
L 159.400737 249.435508 
L 160.599515 249.435508 
L 160.599515 248.908822 
L 160.741375 248.908822 
L 160.741375 248.382136 
L 161.054091 248.382136 
L 161.054091 247.85545 
L 161.663187 247.85545 
L 161.663187 247.328764 
L 162.33359 247.328764 
L 162.33359 246.802078 
L 162.821048 246.802078 
L 162.90861 245.748706 
L 163.070067 245.748706 
L 163.070067 245.22202 
L 163.266752 245.22202 
L 163.266752 244.695334 
L 163.867476 244.695334 
L 163.867476 244.168648 
L 164.167992 244.168648 
L 164.167992 243.641962 
L 164.630012 243.641962 
L 164.630012 243.115275 
L 164.765143 243.115275 
L 164.86209 241.535217 
L 165.30631 241.535217 
L 165.30631 241.008531 
L 174.257463 241.008531 
L 174.257463 240.481845 
L 174.603317 240.481845 
L 174.603317 239.955159 
L 175.315989 239.955159 
L 175.315989 239.428473 
L 175.643668 239.428473 
L 175.643668 238.901787 
L 176.855001 238.901787 
L 176.855001 238.375101 
L 177.184613 238.375101 
L 177.184613 237.848415 
L 177.644425 237.848415 
L 177.644425 237.321729 
L 182.906662 237.321729 
L 182.906662 236.795043 
L 183.185844 236.795043 
L 183.185844 236.268356 
L 183.645238 236.268356 
L 183.645238 235.74167 
L 184.554504 235.74167 
L 184.554504 234.688298 
L 189.94462 234.688298 
L 189.94462 234.161612 
L 193.165899 234.161612 
L 193.165899 233.634926 
L 193.698399 233.634926 
L 193.698399 232.581554 
L 207.638843 232.581554 
L 207.638843 232.054868 
L 214.222449 232.054868 
L 214.222449 231.528182 
L 216.288512 231.528182 
L 216.288512 231.001496 
L 222.730898 231.001496 
L 222.730898 230.47481 
L 338.688 230.47481 
L 338.688 230.47481 
" style="fill:none;stroke:#ff00ff;stroke-linecap:square;stroke-width:1.5;"/>
   </g>
   <g id="line2d_41">
    <defs>
     <path d="M -0 8.485281 
L 5.091169 0 
L 0 -8.485281 
L -5.091169 -0 
z
" id="mecb2750d83" style="stroke:#ff00ff;stroke-linejoin:miter;stroke-width:1.5;"/>
    </defs>
    <g>
     <use style="fill-opacity:0;stroke:#ff00ff;stroke-linejoin:miter;stroke-width:1.5;" x="124.854767" xlink:href="#mecb2750d83" y="275.243126"/>
     <use style="fill-opacity:0;stroke:#ff00ff;stroke-linejoin:miter;stroke-width:1.5;" x="174.603317" xlink:href="#mecb2750d83" y="239.955159"/>
     <use style="fill-opacity:0;stroke:#ff00ff;stroke-linejoin:miter;stroke-width:1.5;" x="222.730898" xlink:href="#mecb2750d83" y="231.001496"/>
     <use style="fill-opacity:0;stroke:#ff00ff;stroke-linejoin:miter;stroke-width:1.5;" x="222.730898" xlink:href="#mecb2750d83" y="230.47481"/>
     <use style="fill-opacity:0;stroke:#ff00ff;stroke-linejoin:miter;stroke-width:1.5;" x="338.688" xlink:href="#mecb2750d83" y="230.47481"/>
    </g>
   </g>
   <g id="line2d_42">
    <path style="fill:none;stroke:#ff00ff;stroke-linecap:square;stroke-width:1.5;"/>
    <g/>
   </g>
   <g id="line2d_43">
    <path clip-path="url(#p4c465a8ff0)" d="M 165.978297 241.008531 
" style="fill:none;stroke:#ff00ff;stroke-linecap:square;stroke-width:1.5;"/>
    <defs>
     <path d="M -12 12 
L 12 -12 
M -12 -12 
L 12 12 
" id="m18fdb5f437" style="stroke:#ff00ff;"/>
    </defs>
    <g clip-path="url(#p4c465a8ff0)">
     <use style="fill:#ff00ff;stroke:#ff00ff;" x="165.978297" xlink:href="#m18fdb5f437" y="241.008531"/>
    </g>
   </g>
   <g id="line2d_44">
    <defs>
     <path d="M 0 1.5 
C 0.397805 1.5 0.77937 1.341951 1.06066 1.06066 
C 1.341951 0.77937 1.5 0.397805 1.5 0 
C 1.5 -0.397805 1.341951 -0.77937 1.06066 -1.06066 
C 0.77937 -1.341951 0.397805 -1.5 0 -1.5 
C -0.397805 -1.5 -0.77937 -1.341951 -1.06066 -1.06066 
C -1.341951 -0.77937 -1.5 -0.397805 -1.5 0 
C -1.5 0.397805 -1.341951 0.77937 -1.06066 1.06066 
C -0.77937 1.341951 -0.397805 1.5 0 1.5 
z
" id="m6d9d5c3a3f" style="stroke:#ff7500;"/>
    </defs>
    <g>
     <use style="fill:#ff7500;stroke:#ff7500;" x="237.080937" xlink:href="#m6d9d5c3a3f" y="214.674227"/>
     <use style="fill:#ff7500;stroke:#ff7500;" x="237.080937" xlink:href="#m6d9d5c3a3f" y="214.674227"/>
    </g>
   </g>
   <g id="line2d_45">
    <path d="M 17.444571 298.944 
L 17.444571 297.890628 
L 29.53256 297.890628 
L 29.53256 297.363942 
L 36.60358 297.363942 
L 36.60358 296.837256 
L 41.620548 296.837256 
L 41.620548 295.783884 
L 45.512012 295.783884 
L 45.512012 292.623767 
L 48.691568 292.623767 
L 48.691568 291.570395 
L 55.762588 291.570395 
L 55.762588 290.517023 
L 59.262141 290.517023 
L 59.262141 288.936964 
L 60.779557 288.936964 
L 60.779557 288.410278 
L 67.850577 288.410278 
L 67.850577 287.883592 
L 76.16779 287.883592 
L 76.16779 287.356906 
L 76.759008 287.356906 
L 76.759008 286.83022 
L 78.941764 286.83022 
L 78.941764 286.303534 
L 84.955534 286.303534 
L 84.955534 285.776848 
L 85.315119 285.776848 
L 85.315119 283.670104 
L 91.029752 283.670104 
L 91.029752 283.143418 
L 92.267099 283.143418 
L 92.267099 282.616732 
L 95.723163 282.616732 
L 95.723163 281.563359 
L 96.301313 281.563359 
L 96.301313 281.036673 
L 102.196206 281.036673 
L 102.196206 280.509987 
L 108.483824 280.509987 
L 108.483824 279.983301 
L 110.358901 279.983301 
L 110.358901 279.456615 
L 111.426108 279.456615 
L 111.426108 278.929929 
L 115.586238 278.929929 
L 115.586238 278.403243 
L 115.897107 278.403243 
L 115.897107 277.349871 
L 116.739166 277.349871 
L 116.739166 276.823185 
L 116.972471 276.823185 
L 116.972471 276.296499 
L 117.598418 276.296499 
L 117.598418 275.769812 
L 119.552816 275.769812 
L 119.552816 275.243126 
L 123.633136 275.243126 
L 123.633136 274.71644 
L 123.829748 274.71644 
L 123.829748 274.189754 
L 123.985457 274.189754 
L 123.985457 273.663068 
L 124.368753 273.663068 
L 124.368753 273.136382 
L 124.519744 273.136382 
L 124.519744 272.609696 
L 126.573795 272.609696 
L 126.573795 272.08301 
L 127.799239 272.08301 
L 127.799239 271.556324 
L 128.590686 271.556324 
L 128.590686 271.029638 
L 129.262072 271.029638 
L 129.262072 270.502952 
L 129.404667 270.502952 
L 129.404667 269.976266 
L 130.263646 269.976266 
L 130.344571 268.922893 
L 131.108073 268.922893 
L 131.108073 268.396207 
L 131.312942 268.396207 
L 131.312942 267.869521 
L 131.439773 267.869521 
L 131.439773 267.342835 
L 134.911732 267.342835 
L 134.911732 266.816149 
L 135.482227 266.816149 
L 135.482227 266.289463 
L 135.721125 266.289463 
L 135.800036 265.236091 
L 138.927025 265.236091 
L 138.927025 264.709405 
L 139.413734 264.709405 
L 139.413734 264.182719 
L 139.77789 264.182719 
L 139.77789 263.656033 
L 140.378508 263.656033 
L 140.378508 263.129347 
L 141.177393 263.129347 
L 141.177393 262.60266 
L 141.392962 262.60266 
L 141.392962 262.075974 
L 143.092717 262.075974 
L 143.092717 261.549288 
L 143.553018 261.549288 
L 143.553018 261.022602 
L 143.816021 261.022602 
L 143.816021 260.495916 
L 144.366588 260.495916 
L 144.366588 259.96923 
L 146.906268 259.96923 
L 146.906268 259.442544 
L 147.072061 259.442544 
L 147.072061 258.915858 
L 147.409112 258.915858 
L 147.409112 258.389172 
L 147.530079 258.389172 
L 147.530079 257.862486 
L 149.104327 257.862486 
L 149.104327 257.3358 
L 149.368495 257.3358 
L 149.449671 256.282427 
L 150.103169 256.282427 
L 150.103169 255.755741 
L 151.300575 255.755741 
L 151.300575 255.229055 
L 151.692666 255.229055 
L 151.692666 254.702369 
L 153.658577 254.702369 
L 153.658577 254.175683 
L 153.834414 254.175683 
L 153.834414 253.648997 
L 155.373976 253.648997 
L 155.373976 253.122311 
L 155.922644 253.122311 
L 155.922644 252.595625 
L 156.224231 252.595625 
L 156.224231 252.068939 
L 156.640261 252.068939 
L 156.717545 251.015567 
L 156.788581 251.015567 
L 156.788581 250.488881 
L 157.249147 250.488881 
L 157.249147 249.962195 
L 158.184468 249.962195 
L 158.184468 249.435508 
L 158.588735 249.435508 
L 158.588735 248.908822 
L 158.999461 248.908822 
L 158.999461 248.382136 
L 159.16005 248.382136 
L 159.16005 247.85545 
L 159.990769 247.85545 
L 159.990769 247.328764 
L 160.998493 247.328764 
L 160.998493 246.802078 
L 161.370386 246.802078 
L 161.370386 246.275392 
L 161.627414 246.275392 
L 161.725614 245.22202 
L 161.915967 245.22202 
L 161.915967 244.695334 
L 163.13177 244.695334 
L 163.225959 243.641962 
L 164.024234 243.641962 
L 164.024234 243.115275 
L 164.252911 243.115275 
L 164.252911 242.588589 
L 164.599841 242.588589 
L 164.599841 242.061903 
L 164.880672 242.061903 
L 164.910363 241.008531 
L 165.200871 241.008531 
L 165.200871 240.481845 
L 165.450706 240.481845 
L 165.450706 239.955159 
L 165.579648 239.955159 
L 165.579648 239.428473 
L 165.76423 239.428473 
L 165.77129 237.848415 
L 171.595202 237.848415 
L 171.595202 237.321729 
L 173.546732 237.321729 
L 173.546732 236.795043 
L 174.043535 236.795043 
L 174.043535 236.268356 
L 176.069255 236.268356 
L 176.15314 234.688298 
L 176.744358 234.688298 
L 176.744358 234.161612 
L 177.224922 234.161612 
L 177.224922 233.10824 
L 177.390674 233.10824 
L 177.390674 232.581554 
L 177.540492 232.581554 
L 177.540492 232.054868 
L 177.681904 232.054868 
L 177.681904 231.528182 
L 180.857895 231.528182 
L 180.857895 231.001496 
L 181.099906 231.001496 
L 181.099906 230.47481 
L 182.450191 230.47481 
L 182.450191 229.948123 
L 182.577219 229.948123 
L 182.577219 229.421437 
L 183.106346 229.421437 
L 183.106346 228.894751 
L 183.804087 228.894751 
L 183.804087 228.368065 
L 184.493087 228.368065 
L 184.493087 227.841379 
L 184.963209 227.841379 
L 185.066241 226.788007 
L 188.68309 226.788007 
L 188.68309 226.261321 
L 189.164037 226.261321 
L 189.164037 225.734635 
L 193.714047 225.734635 
L 193.714047 225.207949 
L 193.966733 225.207949 
L 193.966733 224.681263 
L 196.949325 224.681263 
L 196.949325 224.154577 
L 199.534283 224.154577 
L 199.534283 223.627891 
L 204.252467 223.627891 
L 204.272658 222.574518 
L 207.76 222.574518 
L 207.776514 219.941088 
L 209.280408 219.941088 
L 209.280408 219.414402 
L 210.692796 219.414402 
L 210.692796 218.887716 
L 213.094882 218.887716 
L 213.094882 218.36103 
L 219.053802 218.36103 
L 219.053802 217.834344 
L 220.641918 217.834344 
L 220.641918 217.307658 
L 222.104665 217.307658 
L 222.104665 216.780971 
L 222.781993 216.780971 
L 222.781993 216.254285 
L 224.68792 216.254285 
L 224.68792 215.727599 
L 231.967008 215.727599 
L 231.967008 215.200913 
L 237.080937 215.200913 
L 237.080937 214.674227 
L 338.688 214.674227 
L 338.688 214.674227 
" style="fill:none;stroke:#ff7500;stroke-linecap:square;stroke-width:1.5;"/>
   </g>
   <g id="line2d_46">
    <defs>
     <path d="M 0 -6 
L -1.347084 -1.854102 
L -5.706339 -1.854102 
L -2.179628 0.708204 
L -3.526712 4.854102 
L -0 2.291796 
L 3.526712 4.854102 
L 2.179628 0.708204 
L 5.706339 -1.854102 
L 1.347084 -1.854102 
z
" id="m024417ae40" style="stroke:#ff7500;stroke-linejoin:bevel;stroke-width:1.5;"/>
    </defs>
    <g>
     <use style="fill-opacity:0;stroke:#ff7500;stroke-linejoin:bevel;stroke-width:1.5;" x="96.301313" xlink:href="#m024417ae40" y="281.036673"/>
     <use style="fill-opacity:0;stroke:#ff7500;stroke-linejoin:bevel;stroke-width:1.5;" x="165.77129" xlink:href="#m024417ae40" y="238.375101"/>
     <use style="fill-opacity:0;stroke:#ff7500;stroke-linejoin:bevel;stroke-width:1.5;" x="220.641918" xlink:href="#m024417ae40" y="217.307658"/>
     <use style="fill-opacity:0;stroke:#ff7500;stroke-linejoin:bevel;stroke-width:1.5;" x="237.080937" xlink:href="#m024417ae40" y="214.674227"/>
     <use style="fill-opacity:0;stroke:#ff7500;stroke-linejoin:bevel;stroke-width:1.5;" x="237.080937" xlink:href="#m024417ae40" y="214.674227"/>
     <use style="fill-opacity:0;stroke:#ff7500;stroke-linejoin:bevel;stroke-width:1.5;" x="338.688" xlink:href="#m024417ae40" y="214.674227"/>
    </g>
   </g>
   <g id="line2d_47">
    <path style="fill:none;stroke:#ff7500;stroke-linecap:square;stroke-width:1.5;"/>
    <g/>
   </g>
   <g id="line2d_48">
    <path clip-path="url(#p4c465a8ff0)" d="M 165.978297 237.848415 
" style="fill:none;stroke:#ff7500;stroke-linecap:square;stroke-width:1.5;"/>
    <defs>
     <path d="M -12 12 
L 12 -12 
M -12 -12 
L 12 12 
" id="me542a124ba" style="stroke:#ff7500;"/>
    </defs>
    <g clip-path="url(#p4c465a8ff0)">
     <use style="fill:#ff7500;stroke:#ff7500;" x="165.978297" xlink:href="#me542a124ba" y="237.848415"/>
    </g>
   </g>
   <g id="line2d_49">
    <defs>
     <path d="M 0 1.5 
C 0.397805 1.5 0.77937 1.341951 1.06066 1.06066 
C 1.341951 0.77937 1.5 0.397805 1.5 0 
C 1.5 -0.397805 1.341951 -0.77937 1.06066 -1.06066 
C 0.77937 -1.341951 0.397805 -1.5 0 -1.5 
C -0.397805 -1.5 -0.77937 -1.341951 -1.06066 -1.06066 
C -1.341951 -0.77937 -1.5 -0.397805 -1.5 0 
C -1.5 0.397805 -1.341951 0.77937 -1.06066 1.06066 
C -0.77937 1.341951 -0.397805 1.5 0 1.5 
z
" id="mf98e8a3d7f" style="stroke:#6495ed;"/>
    </defs>
    <g>
     <use style="fill:#6495ed;stroke:#6495ed;" x="231.823056" xlink:href="#mf98e8a3d7f" y="246.275392"/>
     <use style="fill:#6495ed;stroke:#6495ed;" x="231.823056" xlink:href="#mf98e8a3d7f" y="246.275392"/>
    </g>
   </g>
   <g id="line2d_50">
    <path d="M 17.444571 298.944 
L 17.444571 297.363942 
L 29.53256 297.363942 
L 29.53256 295.783884 
L 36.60358 295.783884 
L 36.60358 295.257197 
L 41.620548 295.257197 
L 41.620548 294.730511 
L 45.512012 294.730511 
L 45.512012 292.623767 
L 55.762588 292.623767 
L 55.762588 291.570395 
L 59.262141 291.570395 
L 59.262141 289.990337 
L 60.779557 289.990337 
L 60.779557 289.463651 
L 63.467834 289.463651 
L 63.467834 288.936964 
L 67.850577 288.936964 
L 67.850577 288.410278 
L 76.16779 288.410278 
L 76.16779 287.883592 
L 78.941764 287.883592 
L 78.941764 287.356906 
L 84.955534 287.356906 
L 84.955534 286.83022 
L 85.315119 286.83022 
L 85.315119 285.250162 
L 87.952479 285.250162 
L 87.952479 284.723476 
L 91.284345 284.723476 
L 91.284345 284.19679 
L 94.921215 284.19679 
L 94.921215 283.670104 
L 95.326798 283.670104 
L 95.326798 283.143418 
L 95.723163 283.143418 
L 95.723163 282.616732 
L 97.928955 282.616732 
L 97.928955 282.090045 
L 99.097574 282.090045 
L 99.097574 281.563359 
L 101.223245 281.563359 
L 101.223245 281.036673 
L 101.923711 281.036673 
L 101.923711 280.509987 
L 103.870632 280.509987 
L 103.870632 279.983301 
L 111.819788 279.983301 
L 111.819788 279.456615 
L 111.974805 279.456615 
L 111.974805 278.929929 
L 112.506763 278.929929 
L 112.506763 278.403243 
L 113.453595 278.403243 
L 113.453595 277.876557 
L 114.685115 277.876557 
L 114.685115 277.349871 
L 115.835374 277.349871 
L 115.835374 276.823185 
L 116.019919 276.823185 
L 116.019919 276.296499 
L 117.202696 276.296499 
L 117.202696 275.769812 
L 117.709852 275.769812 
L 117.709852 275.243126 
L 118.786692 275.243126 
L 118.786692 274.71644 
L 118.994305 274.71644 
L 118.994305 274.189754 
L 119.199476 274.189754 
L 119.199476 273.663068 
L 120.429836 273.663068 
L 120.429836 273.136382 
L 124.965026 273.136382 
L 124.965026 272.609696 
L 125.183475 272.609696 
L 125.183475 272.08301 
L 125.327602 272.08301 
L 125.327602 271.556324 
L 126.133984 271.556324 
L 126.133984 271.029638 
L 127.48501 271.029638 
L 127.48501 270.502952 
L 127.705564 270.502952 
L 127.705564 269.976266 
L 128.797771 269.976266 
L 128.797771 269.449579 
L 130.344571 269.449579 
L 130.344571 268.922893 
L 130.505303 268.922893 
L 130.505303 268.396207 
L 132.70687 268.396207 
L 132.70687 267.869521 
L 132.940331 267.869521 
L 132.940331 267.342835 
L 137.594091 267.342835 
L 137.594091 266.816149 
L 142.659828 266.816149 
L 142.659828 266.289463 
L 142.910378 266.289463 
L 142.910378 265.762777 
L 145.212864 265.762777 
L 145.212864 265.236091 
L 145.888018 265.236091 
L 145.888018 264.709405 
L 148.27731 264.709405 
L 148.27731 264.182719 
L 150.866312 264.182719 
L 150.866312 263.656033 
L 155.380382 263.656033 
L 155.380382 263.129347 
L 155.904009 263.129347 
L 155.904009 262.60266 
L 156.058696 262.60266 
L 156.058696 262.075974 
L 157.815223 262.075974 
L 157.815223 261.549288 
L 167.105982 261.549288 
L 167.105982 261.022602 
L 167.798261 261.022602 
L 167.798261 259.96923 
L 170.286084 259.96923 
L 170.286084 259.442544 
L 170.967341 259.442544 
L 170.967341 258.915858 
L 178.639242 258.915858 
L 178.639242 258.389172 
L 180.352854 258.389172 
L 180.352854 257.862486 
L 182.816585 257.862486 
L 182.816585 257.3358 
L 188.152354 257.3358 
L 188.152354 256.809114 
L 190.749155 256.809114 
L 190.749155 256.282427 
L 191.335007 256.282427 
L 191.335007 255.229055 
L 192.690668 255.229055 
L 192.690668 254.702369 
L 194.996633 254.702369 
L 194.996633 254.175683 
L 196.103509 254.175683 
L 196.103509 253.648997 
L 198.797895 253.648997 
L 198.797895 253.122311 
L 198.956527 253.122311 
L 198.956527 252.595625 
L 202.949704 252.595625 
L 202.949704 252.068939 
L 203.434808 252.068939 
L 203.434808 251.542253 
L 205.469349 251.542253 
L 205.469349 251.015567 
L 206.615654 251.015567 
L 206.615654 250.488881 
L 208.761408 250.488881 
L 208.761408 249.962195 
L 212.347148 249.962195 
L 212.347148 249.435508 
L 215.672598 249.435508 
L 215.672598 248.908822 
L 217.89269 248.908822 
L 217.89269 248.382136 
L 221.603695 248.382136 
L 221.603695 247.85545 
L 224.475268 247.85545 
L 224.475268 247.328764 
L 229.081679 247.328764 
L 229.081679 246.802078 
L 231.823056 246.802078 
L 231.823056 246.275392 
L 338.688 246.275392 
L 338.688 246.275392 
" style="fill:none;stroke:#6495ed;stroke-linecap:square;stroke-width:1.5;"/>
   </g>
   <g id="line2d_51">
    <defs>
     <path d="M -0 6 
L 6 -6 
L -6 -6 
z
" id="m94c849bde1" style="stroke:#6495ed;stroke-linejoin:miter;stroke-width:1.5;"/>
    </defs>
    <g>
     <use style="fill-opacity:0;stroke:#6495ed;stroke-linejoin:miter;stroke-width:1.5;" x="67.850577" xlink:href="#m94c849bde1" y="288.410278"/>
     <use style="fill-opacity:0;stroke:#6495ed;stroke-linejoin:miter;stroke-width:1.5;" x="132.940331" xlink:href="#m94c849bde1" y="267.869521"/>
     <use style="fill-opacity:0;stroke:#6495ed;stroke-linejoin:miter;stroke-width:1.5;" x="191.335007" xlink:href="#m94c849bde1" y="256.282427"/>
     <use style="fill-opacity:0;stroke:#6495ed;stroke-linejoin:miter;stroke-width:1.5;" x="231.823056" xlink:href="#m94c849bde1" y="246.802078"/>
     <use style="fill-opacity:0;stroke:#6495ed;stroke-linejoin:miter;stroke-width:1.5;" x="231.823056" xlink:href="#m94c849bde1" y="246.275392"/>
     <use style="fill-opacity:0;stroke:#6495ed;stroke-linejoin:miter;stroke-width:1.5;" x="338.688" xlink:href="#m94c849bde1" y="246.275392"/>
    </g>
   </g>
   <g id="line2d_52">
    <path style="fill:none;stroke:#6495ed;stroke-linecap:square;stroke-width:1.5;"/>
    <g/>
   </g>
   <g id="line2d_53">
    <path clip-path="url(#p4c465a8ff0)" d="M 165.978297 261.549288 
" style="fill:none;stroke:#6495ed;stroke-linecap:square;stroke-width:1.5;"/>
    <defs>
     <path d="M -12 12 
L 12 -12 
M -12 -12 
L 12 12 
" id="m4eae368ae0" style="stroke:#6495ed;"/>
    </defs>
    <g clip-path="url(#p4c465a8ff0)">
     <use style="fill:#6495ed;stroke:#6495ed;" x="165.978297" xlink:href="#m4eae368ae0" y="261.549288"/>
    </g>
   </g>
   <g id="line2d_54">
    <path d="M 338.688 246.275392 
L 369.60768 293.571802 
" style="fill:none;stroke:#6495ed;stroke-linecap:square;stroke-width:1.5;"/>
    <g>
     <use style="fill-opacity:0;stroke:#6495ed;stroke-linejoin:miter;stroke-width:1.5;" x="338.688" xlink:href="#m94c849bde1" y="246.275392"/>
     <use style="fill-opacity:0;stroke:#6495ed;stroke-linejoin:miter;stroke-width:1.5;" x="369.60768" xlink:href="#m94c849bde1" y="293.571802"/>
    </g>
   </g>
   <g id="line2d_55">
    <path d="M 338.688 230.47481 
L 369.60768 229.105426 
" style="fill:none;stroke:#ff00ff;stroke-linecap:square;stroke-width:1.5;"/>
    <g>
     <use style="fill-opacity:0;stroke:#ff00ff;stroke-linejoin:miter;stroke-width:1.5;" x="338.688" xlink:href="#mecb2750d83" y="230.47481"/>
     <use style="fill-opacity:0;stroke:#ff00ff;stroke-linejoin:miter;stroke-width:1.5;" x="369.60768" xlink:href="#mecb2750d83" y="229.105426"/>
    </g>
   </g>
   <g id="line2d_56">
    <path d="M 338.688 214.674227 
L 369.60768 164.63905 
" style="fill:none;stroke:#ff7500;stroke-linecap:square;stroke-width:1.5;"/>
    <g>
     <use style="fill-opacity:0;stroke:#ff7500;stroke-linejoin:bevel;stroke-width:1.5;" x="338.688" xlink:href="#m024417ae40" y="214.674227"/>
     <use style="fill-opacity:0;stroke:#ff7500;stroke-linejoin:bevel;stroke-width:1.5;" x="369.60768" xlink:href="#m024417ae40" y="164.63905"/>
    </g>
   </g>
   <g id="line2d_57">
    <path d="M 338.688 172.539341 
L 369.60768 100.172673 
" style="fill:none;stroke:#000080;stroke-linecap:square;stroke-width:1.5;"/>
    <g>
     <use style="fill-opacity:0;stroke:#000080;stroke-width:1.5;" x="338.688" xlink:href="#m8c67b0e6f9" y="172.539341"/>
     <use style="fill-opacity:0;stroke:#000080;stroke-width:1.5;" x="369.60768" xlink:href="#m8c67b0e6f9" y="100.172673"/>
    </g>
   </g>
   <g id="line2d_58">
    <path d="M 338.688 298.944 
L 338.688 30.334099 
" style="fill:none;stroke:#000000;stroke-linecap:square;stroke-width:1.5;"/>
   </g>
   <g id="patch_3">
    <path d="M 57.6 298.944 
L 57.6 27.648 
" style="fill:none;stroke:#000000;stroke-linecap:square;stroke-linejoin:miter;stroke-width:0.8;"/>
   </g>
   <g id="patch_4">
    <path d="M 338.688 298.944 
L 338.688 27.648 
" style="fill:none;stroke:#000000;stroke-linecap:square;stroke-linejoin:miter;stroke-width:0.8;"/>
   </g>
   <g id="patch_5">
    <path d="M 57.6 298.944 
L 338.688 298.944 
" style="fill:none;stroke:#000000;stroke-linecap:square;stroke-linejoin:miter;stroke-width:0.8;"/>
   </g>
   <g id="patch_6">
    <path d="M 57.6 27.648 
L 338.688 27.648 
" style="fill:none;stroke:#000000;stroke-linecap:square;stroke-linejoin:miter;stroke-width:0.8;"/>
   </g>
   <g id="text_13">
    <!-- PSO -->
    <defs>
     <path d="M 19.671875 64.796875 
L 19.671875 37.40625 
L 32.078125 37.40625 
Q 38.96875 37.40625 42.71875 40.96875 
Q 46.484375 44.53125 46.484375 51.125 
Q 46.484375 57.671875 42.71875 61.234375 
Q 38.96875 64.796875 32.078125 64.796875 
z
M 9.8125 72.90625 
L 32.078125 72.90625 
Q 44.34375 72.90625 50.609375 67.359375 
Q 56.890625 61.8125 56.890625 51.125 
Q 56.890625 40.328125 50.609375 34.8125 
Q 44.34375 29.296875 32.078125 29.296875 
L 19.671875 29.296875 
L 19.671875 0 
L 9.8125 0 
z
" id="DejaVuSans-80"/>
     <path d="M 53.515625 70.515625 
L 53.515625 60.890625 
Q 47.90625 63.578125 42.921875 64.890625 
Q 37.9375 66.21875 33.296875 66.21875 
Q 25.25 66.21875 20.875 63.09375 
Q 16.5 59.96875 16.5 54.203125 
Q 16.5 49.359375 19.40625 46.890625 
Q 22.3125 44.4375 30.421875 42.921875 
L 36.375 41.703125 
Q 47.40625 39.59375 52.65625 34.296875 
Q 57.90625 29 57.90625 20.125 
Q 57.90625 9.515625 50.796875 4.046875 
Q 43.703125 -1.421875 29.984375 -1.421875 
Q 24.8125 -1.421875 18.96875 -0.25 
Q 13.140625 0.921875 6.890625 3.21875 
L 6.890625 13.375 
Q 12.890625 10.015625 18.65625 8.296875 
Q 24.421875 6.59375 29.984375 6.59375 
Q 38.421875 6.59375 43.015625 9.90625 
Q 47.609375 13.234375 47.609375 19.390625 
Q 47.609375 24.75 44.3125 27.78125 
Q 41.015625 30.8125 33.5 32.328125 
L 27.484375 33.5 
Q 16.453125 35.6875 11.515625 40.375 
Q 6.59375 45.0625 6.59375 53.421875 
Q 6.59375 63.09375 13.40625 68.65625 
Q 20.21875 74.21875 32.171875 74.21875 
Q 37.3125 74.21875 42.625 73.28125 
Q 47.953125 72.359375 53.515625 70.515625 
z
" id="DejaVuSans-83"/>
     <path d="M 39.40625 66.21875 
Q 28.65625 66.21875 22.328125 58.203125 
Q 16.015625 50.203125 16.015625 36.375 
Q 16.015625 22.609375 22.328125 14.59375 
Q 28.65625 6.59375 39.40625 6.59375 
Q 50.140625 6.59375 56.421875 14.59375 
Q 62.703125 22.609375 62.703125 36.375 
Q 62.703125 50.203125 56.421875 58.203125 
Q 50.140625 66.21875 39.40625 66.21875 
z
M 39.40625 74.21875 
Q 54.734375 74.21875 63.90625 63.9375 
Q 73.09375 53.65625 73.09375 36.375 
Q 73.09375 19.140625 63.90625 8.859375 
Q 54.734375 -1.421875 39.40625 -1.421875 
Q 24.03125 -1.421875 14.8125 8.828125 
Q 5.609375 19.09375 5.609375 36.375 
Q 5.609375 53.65625 14.8125 63.9375 
Q 24.03125 74.21875 39.40625 74.21875 
z
" id="DejaVuSans-79"/>
    </defs>
    <g transform="translate(375.22944 298.262739)scale(0.17 -0.17)">
     <use xlink:href="#DejaVuSans-80"/>
     <use x="60.302734" xlink:href="#DejaVuSans-83"/>
     <use x="123.779297" xlink:href="#DejaVuSans-79"/>
    </g>
   </g>
   <g id="text_14">
    <!-- DE -->
    <defs>
     <path d="M 19.671875 64.796875 
L 19.671875 8.109375 
L 31.59375 8.109375 
Q 46.6875 8.109375 53.6875 14.9375 
Q 60.6875 21.78125 60.6875 36.53125 
Q 60.6875 51.171875 53.6875 57.984375 
Q 46.6875 64.796875 31.59375 64.796875 
z
M 9.8125 72.90625 
L 30.078125 72.90625 
Q 51.265625 72.90625 61.171875 64.09375 
Q 71.09375 55.28125 71.09375 36.53125 
Q 71.09375 17.671875 61.125 8.828125 
Q 51.171875 0 30.078125 0 
L 9.8125 0 
z
" id="DejaVuSans-68"/>
     <path d="M 9.8125 72.90625 
L 55.90625 72.90625 
L 55.90625 64.59375 
L 19.671875 64.59375 
L 19.671875 43.015625 
L 54.390625 43.015625 
L 54.390625 34.71875 
L 19.671875 34.71875 
L 19.671875 8.296875 
L 56.78125 8.296875 
L 56.78125 0 
L 9.8125 0 
z
" id="DejaVuSans-69"/>
    </defs>
    <g transform="translate(375.22944 233.796363)scale(0.17 -0.17)">
     <use xlink:href="#DejaVuSans-68"/>
     <use x="77.001953" xlink:href="#DejaVuSans-69"/>
    </g>
   </g>
   <g id="text_15">
    <!-- DEPSO -->
    <g transform="translate(375.22944 169.329987)scale(0.17 -0.17)">
     <use xlink:href="#DejaVuSans-68"/>
     <use x="77.001953" xlink:href="#DejaVuSans-69"/>
     <use x="140.185547" xlink:href="#DejaVuSans-80"/>
     <use x="200.488281" xlink:href="#DejaVuSans-83"/>
     <use x="263.964844" xlink:href="#DejaVuSans-79"/>
    </g>
   </g>
   <g id="text_16">
    <!-- CMA-ES -->
    <defs>
     <path d="M 64.40625 67.28125 
L 64.40625 56.890625 
Q 59.421875 61.53125 53.78125 63.8125 
Q 48.140625 66.109375 41.796875 66.109375 
Q 29.296875 66.109375 22.65625 58.46875 
Q 16.015625 50.828125 16.015625 36.375 
Q 16.015625 21.96875 22.65625 14.328125 
Q 29.296875 6.6875 41.796875 6.6875 
Q 48.140625 6.6875 53.78125 8.984375 
Q 59.421875 11.28125 64.40625 15.921875 
L 64.40625 5.609375 
Q 59.234375 2.09375 53.4375 0.328125 
Q 47.65625 -1.421875 41.21875 -1.421875 
Q 24.65625 -1.421875 15.125 8.703125 
Q 5.609375 18.84375 5.609375 36.375 
Q 5.609375 53.953125 15.125 64.078125 
Q 24.65625 74.21875 41.21875 74.21875 
Q 47.75 74.21875 53.53125 72.484375 
Q 59.328125 70.75 64.40625 67.28125 
z
" id="DejaVuSans-67"/>
     <path d="M 9.8125 72.90625 
L 24.515625 72.90625 
L 43.109375 23.296875 
L 61.8125 72.90625 
L 76.515625 72.90625 
L 76.515625 0 
L 66.890625 0 
L 66.890625 64.015625 
L 48.09375 14.015625 
L 38.1875 14.015625 
L 19.390625 64.015625 
L 19.390625 0 
L 9.8125 0 
z
" id="DejaVuSans-77"/>
     <path d="M 34.1875 63.1875 
L 20.796875 26.90625 
L 47.609375 26.90625 
z
M 28.609375 72.90625 
L 39.796875 72.90625 
L 67.578125 0 
L 57.328125 0 
L 50.6875 18.703125 
L 17.828125 18.703125 
L 11.1875 0 
L 0.78125 0 
z
" id="DejaVuSans-65"/>
    </defs>
    <g transform="translate(375.22944 104.863611)scale(0.17 -0.17)">
     <use xlink:href="#DejaVuSans-67"/>
     <use x="69.824219" xlink:href="#DejaVuSans-77"/>
     <use x="156.103516" xlink:href="#DejaVuSans-65"/>
     <use x="222.261719" xlink:href="#DejaVuSans-45"/>
     <use x="258.345703" xlink:href="#DejaVuSans-69"/>
     <use x="321.529297" xlink:href="#DejaVuSans-83"/>
    </g>
   </g>
   <g id="text_17">
    <!-- best 2009 -->
    <defs>
     <path d="M 48.6875 27.296875 
Q 48.6875 37.203125 44.609375 42.84375 
Q 40.53125 48.484375 33.40625 48.484375 
Q 26.265625 48.484375 22.1875 42.84375 
Q 18.109375 37.203125 18.109375 27.296875 
Q 18.109375 17.390625 22.1875 11.75 
Q 26.265625 6.109375 33.40625 6.109375 
Q 40.53125 6.109375 44.609375 11.75 
Q 48.6875 17.390625 48.6875 27.296875 
z
M 18.109375 46.390625 
Q 20.953125 51.265625 25.265625 53.625 
Q 29.59375 56 35.59375 56 
Q 45.5625 56 51.78125 48.09375 
Q 58.015625 40.1875 58.015625 27.296875 
Q 58.015625 14.40625 51.78125 6.484375 
Q 45.5625 -1.421875 35.59375 -1.421875 
Q 29.59375 -1.421875 25.265625 0.953125 
Q 20.953125 3.328125 18.109375 8.203125 
L 18.109375 0 
L 9.078125 0 
L 9.078125 75.984375 
L 18.109375 75.984375 
z
" id="DejaVuSans-98"/>
     <path d="M 10.984375 1.515625 
L 10.984375 10.5 
Q 14.703125 8.734375 18.5 7.8125 
Q 22.3125 6.890625 25.984375 6.890625 
Q 35.75 6.890625 40.890625 13.453125 
Q 46.046875 20.015625 46.78125 33.40625 
Q 43.953125 29.203125 39.59375 26.953125 
Q 35.25 24.703125 29.984375 24.703125 
Q 19.046875 24.703125 12.671875 31.3125 
Q 6.296875 37.9375 6.296875 49.421875 
Q 6.296875 60.640625 12.9375 67.421875 
Q 19.578125 74.21875 30.609375 74.21875 
Q 43.265625 74.21875 49.921875 64.515625 
Q 56.59375 54.828125 56.59375 36.375 
Q 56.59375 19.140625 48.40625 8.859375 
Q 40.234375 -1.421875 26.421875 -1.421875 
Q 22.703125 -1.421875 18.890625 -0.6875 
Q 15.09375 0.046875 10.984375 1.515625 
z
M 30.609375 32.421875 
Q 37.25 32.421875 41.125 36.953125 
Q 45.015625 41.5 45.015625 49.421875 
Q 45.015625 57.28125 41.125 61.84375 
Q 37.25 66.40625 30.609375 66.40625 
Q 23.96875 66.40625 20.09375 61.84375 
Q 16.21875 57.28125 16.21875 49.421875 
Q 16.21875 41.5 20.09375 36.953125 
Q 23.96875 32.421875 30.609375 32.421875 
z
" id="DejaVuSans-57"/>
    </defs>
    <g transform="translate(375.22944 40.397235)scale(0.17 -0.17)">
     <use xlink:href="#DejaVuSans-98"/>
     <use x="63.476562" xlink:href="#DejaVuSans-101"/>
     <use x="125" xlink:href="#DejaVuSans-115"/>
     <use x="177.099609" xlink:href="#DejaVuSans-116"/>
     <use x="216.308594" xlink:href="#DejaVuSans-32"/>
     <use x="248.095703" xlink:href="#DejaVuSans-50"/>
     <use x="311.71875" xlink:href="#DejaVuSans-48"/>
     <use x="375.341797" xlink:href="#DejaVuSans-48"/>
     <use x="438.964844" xlink:href="#DejaVuSans-57"/>
    </g>
   </g>
   <g id="text_18">
    <!-- bbob f18, 10-D -->
    <g transform="translate(60.41088 38.111366)scale(0.102 -0.102)">
     <use xlink:href="#DejaVuSans-98"/>
     <use x="63.476562" xlink:href="#DejaVuSans-98"/>
     <use x="126.953125" xlink:href="#DejaVuSans-111"/>
     <use x="188.134766" xlink:href="#DejaVuSans-98"/>
     <use x="251.611328" xlink:href="#DejaVuSans-32"/>
     <use x="283.398438" xlink:href="#DejaVuSans-102"/>
     <use x="318.603516" xlink:href="#DejaVuSans-49"/>
     <use x="382.226562" xlink:href="#DejaVuSans-56"/>
     <use x="445.849609" xlink:href="#DejaVuSans-44"/>
     <use x="477.636719" xlink:href="#DejaVuSans-32"/>
     <use x="509.423828" xlink:href="#DejaVuSans-49"/>
     <use x="573.046875" xlink:href="#DejaVuSans-48"/>
     <use x="636.669922" xlink:href="#DejaVuSans-45"/>
     <use x="672.753906" xlink:href="#DejaVuSans-68"/>
    </g>
    <!-- 51 targets: 100..1e-08 -->
    <defs>
     <path d="M 10.796875 72.90625 
L 49.515625 72.90625 
L 49.515625 64.59375 
L 19.828125 64.59375 
L 19.828125 46.734375 
Q 21.96875 47.46875 24.109375 47.828125 
Q 26.265625 48.1875 28.421875 48.1875 
Q 40.625 48.1875 47.75 41.5 
Q 54.890625 34.8125 54.890625 23.390625 
Q 54.890625 11.625 47.5625 5.09375 
Q 40.234375 -1.421875 26.90625 -1.421875 
Q 22.3125 -1.421875 17.546875 -0.640625 
Q 12.796875 0.140625 7.71875 1.703125 
L 7.71875 11.625 
Q 12.109375 9.234375 16.796875 8.0625 
Q 21.484375 6.890625 26.703125 6.890625 
Q 35.15625 6.890625 40.078125 11.328125 
Q 45.015625 15.765625 45.015625 23.390625 
Q 45.015625 31 40.078125 35.4375 
Q 35.15625 39.890625 26.703125 39.890625 
Q 22.75 39.890625 18.8125 39.015625 
Q 14.890625 38.140625 10.796875 36.28125 
z
" id="DejaVuSans-53"/>
     <path d="M 11.71875 12.40625 
L 22.015625 12.40625 
L 22.015625 0 
L 11.71875 0 
z
M 11.71875 51.703125 
L 22.015625 51.703125 
L 22.015625 39.3125 
L 11.71875 39.3125 
z
" id="DejaVuSans-58"/>
    </defs>
    <g transform="translate(60.41088 49.533135)scale(0.102 -0.102)">
     <use xlink:href="#DejaVuSans-53"/>
     <use x="63.623047" xlink:href="#DejaVuSans-49"/>
     <use x="127.246094" xlink:href="#DejaVuSans-32"/>
     <use x="159.033203" xlink:href="#DejaVuSans-116"/>
     <use x="198.242188" xlink:href="#DejaVuSans-97"/>
     <use x="259.521484" xlink:href="#DejaVuSans-114"/>
     <use x="298.884766" xlink:href="#DejaVuSans-103"/>
     <use x="362.361328" xlink:href="#DejaVuSans-101"/>
     <use x="423.884766" xlink:href="#DejaVuSans-116"/>
     <use x="463.09375" xlink:href="#DejaVuSans-115"/>
     <use x="515.193359" xlink:href="#DejaVuSans-58"/>
     <use x="548.884766" xlink:href="#DejaVuSans-32"/>
     <use x="580.671875" xlink:href="#DejaVuSans-49"/>
     <use x="644.294922" xlink:href="#DejaVuSans-48"/>
     <use x="707.917969" xlink:href="#DejaVuSans-48"/>
     <use x="771.541016" xlink:href="#DejaVuSans-46"/>
     <use x="803.328125" xlink:href="#DejaVuSans-46"/>
     <use x="835.115234" xlink:href="#DejaVuSans-49"/>
     <use x="898.738281" xlink:href="#DejaVuSans-101"/>
     <use x="960.261719" xlink:href="#DejaVuSans-45"/>
     <use x="996.345703" xlink:href="#DejaVuSans-48"/>
     <use x="1059.96875" xlink:href="#DejaVuSans-56"/>
    </g>
    <!-- 24, 15 instances -->
    <g transform="translate(60.41088 60.954904)scale(0.102 -0.102)">
     <use xlink:href="#DejaVuSans-50"/>
     <use x="63.623047" xlink:href="#DejaVuSans-52"/>
     <use x="127.246094" xlink:href="#DejaVuSans-44"/>
     <use x="159.033203" xlink:href="#DejaVuSans-32"/>
     <use x="190.820312" xlink:href="#DejaVuSans-49"/>
     <use x="254.443359" xlink:href="#DejaVuSans-53"/>
     <use x="318.066406" xlink:href="#DejaVuSans-32"/>
     <use x="349.853516" xlink:href="#DejaVuSans-105"/>
     <use x="377.636719" xlink:href="#DejaVuSans-110"/>
     <use x="441.015625" xlink:href="#DejaVuSans-115"/>
     <use x="493.115234" xlink:href="#DejaVuSans-116"/>
     <use x="532.324219" xlink:href="#DejaVuSans-97"/>
     <use x="593.603516" xlink:href="#DejaVuSans-110"/>
     <use x="656.982422" xlink:href="#DejaVuSans-99"/>
     <use x="711.962891" xlink:href="#DejaVuSans-101"/>
     <use x="773.486328" xlink:href="#DejaVuSans-115"/>
    </g>
   </g>
   <g id="text_19">
    <!-- v2.4 -->
    <g style="fill:#808080;" transform="translate(187.233062 294.151352)scale(0.1 -0.1)">
     <use xlink:href="#DejaVuSans-118"/>
     <use x="59.179688" xlink:href="#DejaVuSans-50"/>
     <use x="122.802734" xlink:href="#DejaVuSans-46"/>
     <use x="154.589844" xlink:href="#DejaVuSans-52"/>
    </g>
   </g>
   <g id="text_20">
    <!-- 18 Schaffer F7, condition 1000 -->
    <defs>
     <path d="M 54.890625 33.015625 
L 54.890625 0 
L 45.90625 0 
L 45.90625 32.71875 
Q 45.90625 40.484375 42.875 44.328125 
Q 39.84375 48.1875 33.796875 48.1875 
Q 26.515625 48.1875 22.3125 43.546875 
Q 18.109375 38.921875 18.109375 30.90625 
L 18.109375 0 
L 9.078125 0 
L 9.078125 75.984375 
L 18.109375 75.984375 
L 18.109375 46.1875 
Q 21.34375 51.125 25.703125 53.5625 
Q 30.078125 56 35.796875 56 
Q 45.21875 56 50.046875 50.171875 
Q 54.890625 44.34375 54.890625 33.015625 
z
" id="DejaVuSans-104"/>
     <path d="M 8.203125 72.90625 
L 55.078125 72.90625 
L 55.078125 68.703125 
L 28.609375 0 
L 18.3125 0 
L 43.21875 64.59375 
L 8.203125 64.59375 
z
" id="DejaVuSans-55"/>
    </defs>
    <g transform="translate(44.111187 21.648)scale(0.2 -0.2)">
     <use xlink:href="#DejaVuSans-49"/>
     <use x="63.623047" xlink:href="#DejaVuSans-56"/>
     <use x="127.246094" xlink:href="#DejaVuSans-32"/>
     <use x="159.033203" xlink:href="#DejaVuSans-83"/>
     <use x="222.509766" xlink:href="#DejaVuSans-99"/>
     <use x="277.490234" xlink:href="#DejaVuSans-104"/>
     <use x="340.869141" xlink:href="#DejaVuSans-97"/>
     <use x="402.148438" xlink:href="#DejaVuSans-102"/>
     <use x="437.353516" xlink:href="#DejaVuSans-102"/>
     <use x="472.558594" xlink:href="#DejaVuSans-101"/>
     <use x="534.082031" xlink:href="#DejaVuSans-114"/>
     <use x="575.195312" xlink:href="#DejaVuSans-32"/>
     <use x="606.982422" xlink:href="#DejaVuSans-70"/>
     <use x="664.501953" xlink:href="#DejaVuSans-55"/>
     <use x="728.125" xlink:href="#DejaVuSans-44"/>
     <use x="759.912109" xlink:href="#DejaVuSans-32"/>
     <use x="791.699219" xlink:href="#DejaVuSans-99"/>
     <use x="846.679688" xlink:href="#DejaVuSans-111"/>
     <use x="907.861328" xlink:href="#DejaVuSans-110"/>
     <use x="971.240234" xlink:href="#DejaVuSans-100"/>
     <use x="1034.716797" xlink:href="#DejaVuSans-105"/>
     <use x="1062.5" xlink:href="#DejaVuSans-116"/>
     <use x="1101.708984" xlink:href="#DejaVuSans-105"/>
     <use x="1129.492188" xlink:href="#DejaVuSans-111"/>
     <use x="1190.673828" xlink:href="#DejaVuSans-110"/>
     <use x="1254.052734" xlink:href="#DejaVuSans-32"/>
     <use x="1285.839844" xlink:href="#DejaVuSans-49"/>
     <use x="1349.462891" xlink:href="#DejaVuSans-48"/>
     <use x="1413.085938" xlink:href="#DejaVuSans-48"/>
     <use x="1476.708984" xlink:href="#DejaVuSans-48"/>
    </g>
   </g>
  </g>
 </g>
 <defs>
  <clipPath id="p4c465a8ff0">
   <rect height="271.296" width="281.088" x="57.6" y="27.648"/>
  </clipPath>
 </defs>
</svg>
