<?xml version="1.0" encoding="utf-8" standalone="no"?>
<!DOCTYPE svg PUBLIC "-//W3C//DTD SVG 1.1//EN"
  "http://www.w3.org/Graphics/SVG/1.1/DTD/svg11.dtd">
<!-- Created with matplotlib (https://matplotlib.org/) -->
<svg height="345.6pt" version="1.1" viewBox="0 0 460.8 345.6" width="460.8pt" xmlns="http://www.w3.org/2000/svg" xmlns:xlink="http://www.w3.org/1999/xlink">
 <defs>
  <style type="text/css">
*{stroke-linecap:butt;stroke-linejoin:round;}
  </style>
 </defs>
 <g id="figure_1">
  <g id="patch_1">
   <path d="M 0 345.6 
L 460.8 345.6 
L 460.8 0 
L 0 0 
z
" style="fill:#ffffff;"/>
  </g>
  <g id="axes_1">
   <g id="patch_2">
    <path d="M 57.6 298.944 
L 338.688 298.944 
L 338.688 27.648 
L 57.6 27.648 
z
" style="fill:#ffffff;"/>
   </g>
   <g id="line2d_1">
    <path d="M 5.356583 298.944 
L 5.356583 288.410278 
L 24.515591 288.410278 
L 24.515591 283.143418 
L 52.583031 283.143418 
L 52.583031 277.876557 
L 70.538854 277.876557 
L 70.538854 272.609696 
L 80.650472 272.609696 
L 80.650472 267.342835 
L 88.104788 267.342835 
L 88.104788 262.075974 
L 94.294587 262.075974 
L 94.294587 256.809114 
L 97.134116 256.809114 
L 97.134116 251.542253 
L 99.338119 251.542253 
L 99.338119 246.275392 
L 100.86217 246.275392 
L 100.86217 241.008531 
L 101.923711 241.008531 
L 101.923711 235.74167 
L 102.794183 235.74167 
L 102.794183 230.47481 
L 103.498249 230.47481 
L 103.498249 225.207949 
L 104.355088 225.207949 
L 104.355088 219.941088 
L 105.057436 219.941088 
L 105.057436 214.674227 
L 106.168594 214.674227 
L 106.168594 209.407366 
L 107.614095 209.407366 
L 107.614095 204.140506 
L 109.176867 204.140506 
L 109.176867 198.873645 
L 110.443353 198.873645 
L 110.443353 193.606784 
L 111.936179 193.606784 
L 111.936179 188.339923 
L 113.699967 188.339923 
L 113.699967 183.073062 
L 116.621333 183.073062 
L 116.621333 177.806202 
L 119.377041 177.806202 
L 119.377041 172.539341 
L 121.974949 172.539341 
L 121.974949 167.27248 
L 124.594752 167.27248 
L 124.594752 162.005619 
L 127.579875 162.005619 
L 127.579875 156.738758 
L 128.531065 156.738758 
L 128.531065 151.471897 
L 129.262072 151.471897 
L 129.262072 146.205037 
L 130.032298 146.205037 
L 130.032298 140.938176 
L 130.809292 140.938176 
L 130.809292 135.671315 
L 131.52801 135.671315 
L 131.52801 130.404454 
L 132.362702 130.404454 
L 132.362702 125.137593 
L 133.22783 125.137593 
L 133.22783 119.870733 
L 133.83311 119.870733 
L 133.83311 114.603872 
L 134.534878 114.603872 
L 134.534878 109.337011 
L 135.432042 109.337011 
L 135.432042 104.07015 
L 150.064121 104.07015 
L 150.064121 98.803289 
L 169.224577 98.803289 
L 169.224577 93.536429 
L 170.402844 93.536429 
L 170.402844 88.269568 
L 171.031415 88.269568 
L 171.031415 83.002707 
L 171.659533 83.002707 
L 171.659533 77.735846 
L 172.175591 77.735846 
L 172.175591 72.468985 
L 172.719523 72.468985 
L 172.719523 67.202125 
L 173.289481 67.202125 
L 173.289481 61.935264 
L 173.801357 61.935264 
L 173.801357 56.668403 
L 174.263971 56.668403 
L 174.263971 51.401542 
L 174.819983 51.401542 
L 174.819983 46.134681 
L 175.211544 46.134681 
L 175.211544 40.867821 
L 175.660692 40.867821 
L 175.660692 35.60096 
L 176.102467 35.60096 
L 176.102467 30.334099 
L 338.688 30.334099 
" style="fill:none;stroke:#f5deb3;stroke-linecap:square;stroke-width:4;"/>
   </g>
   <g id="line2d_2">
    <defs>
     <path d="M -0 7.778175 
L 7.778175 0 
L 0 -7.778175 
L -7.778175 -0 
z
" id="m98440a8a51" style="stroke:#f5deb3;stroke-linejoin:miter;stroke-width:1.5;"/>
    </defs>
    <g>
     <use style="fill:#f5deb3;stroke:#f5deb3;stroke-linejoin:miter;stroke-width:1.5;" x="80.650472" xlink:href="#m98440a8a51" y="272.609696"/>
     <use style="fill:#f5deb3;stroke:#f5deb3;stroke-linejoin:miter;stroke-width:1.5;" x="116.621333" xlink:href="#m98440a8a51" y="183.073062"/>
     <use style="fill:#f5deb3;stroke:#f5deb3;stroke-linejoin:miter;stroke-width:1.5;" x="150.064121" xlink:href="#m98440a8a51" y="104.07015"/>
     <use style="fill:#f5deb3;stroke:#f5deb3;stroke-linejoin:miter;stroke-width:1.5;" x="176.102467" xlink:href="#m98440a8a51" y="35.60096"/>
     <use style="fill:#f5deb3;stroke:#f5deb3;stroke-linejoin:miter;stroke-width:1.5;" x="176.102467" xlink:href="#m98440a8a51" y="30.334099"/>
     <use style="fill:#f5deb3;stroke:#f5deb3;stroke-linejoin:miter;stroke-width:1.5;" x="338.688" xlink:href="#m98440a8a51" y="30.334099"/>
    </g>
   </g>
   <g id="line2d_3">
    <path style="fill:none;stroke:#f5deb3;stroke-linecap:square;stroke-width:4;"/>
    <g/>
   </g>
   <g id="line2d_4">
    <path d="M 338.688 30.334099 
L 369.60768 35.706297 
" style="fill:none;stroke:#f5deb3;stroke-linecap:square;stroke-width:4;"/>
    <g>
     <use style="fill:#f5deb3;stroke:#f5deb3;stroke-linejoin:miter;stroke-width:1.5;" x="338.688" xlink:href="#m98440a8a51" y="30.334099"/>
     <use style="fill:#f5deb3;stroke:#f5deb3;stroke-linejoin:miter;stroke-width:1.5;" x="369.60768" xlink:href="#m98440a8a51" y="35.706297"/>
    </g>
   </g>
   <g id="matplotlib.axis_1">
    <g id="xtick_1">
     <g id="line2d_5">
      <path clip-path="url(#pc27da9b055)" d="M 57.6 298.944 
L 57.6 27.648 
" style="fill:none;stroke:#b0b0b0;stroke-linecap:square;stroke-width:0.8;"/>
     </g>
     <g id="line2d_6">
      <defs>
       <path d="M 0 0 
L 0 3.5 
" id="mfec694072a" style="stroke:#000000;stroke-width:0.8;"/>
      </defs>
      <g>
       <use style="stroke:#000000;stroke-width:0.8;" x="57.6" xlink:href="#mfec694072a" y="298.944"/>
      </g>
     </g>
     <g id="text_1">
      <!-- 0 -->
      <defs>
       <path d="M 31.78125 66.40625 
Q 24.171875 66.40625 20.328125 58.90625 
Q 16.5 51.421875 16.5 36.375 
Q 16.5 21.390625 20.328125 13.890625 
Q 24.171875 6.390625 31.78125 6.390625 
Q 39.453125 6.390625 43.28125 13.890625 
Q 47.125 21.390625 47.125 36.375 
Q 47.125 51.421875 43.28125 58.90625 
Q 39.453125 66.40625 31.78125 66.40625 
z
M 31.78125 74.21875 
Q 44.046875 74.21875 50.515625 64.515625 
Q 56.984375 54.828125 56.984375 36.375 
Q 56.984375 17.96875 50.515625 8.265625 
Q 44.046875 -1.421875 31.78125 -1.421875 
Q 19.53125 -1.421875 13.0625 8.265625 
Q 6.59375 17.96875 6.59375 36.375 
Q 6.59375 54.828125 13.0625 64.515625 
Q 19.53125 74.21875 31.78125 74.21875 
z
" id="DejaVuSans-48"/>
      </defs>
      <g transform="translate(51.2375 321.140875)scale(0.2 -0.2)">
       <use xlink:href="#DejaVuSans-48"/>
      </g>
     </g>
    </g>
    <g id="xtick_2">
     <g id="line2d_7">
      <path clip-path="url(#pc27da9b055)" d="M 137.910857 298.944 
L 137.910857 27.648 
" style="fill:none;stroke:#b0b0b0;stroke-linecap:square;stroke-width:0.8;"/>
     </g>
     <g id="line2d_8">
      <g>
       <use style="stroke:#000000;stroke-width:0.8;" x="137.910857" xlink:href="#mfec694072a" y="298.944"/>
      </g>
     </g>
     <g id="text_2">
      <!-- 2 -->
      <defs>
       <path d="M 19.1875 8.296875 
L 53.609375 8.296875 
L 53.609375 0 
L 7.328125 0 
L 7.328125 8.296875 
Q 12.9375 14.109375 22.625 23.890625 
Q 32.328125 33.6875 34.8125 36.53125 
Q 39.546875 41.84375 41.421875 45.53125 
Q 43.3125 49.21875 43.3125 52.78125 
Q 43.3125 58.59375 39.234375 62.25 
Q 35.15625 65.921875 28.609375 65.921875 
Q 23.96875 65.921875 18.8125 64.3125 
Q 13.671875 62.703125 7.8125 59.421875 
L 7.8125 69.390625 
Q 13.765625 71.78125 18.9375 73 
Q 24.125 74.21875 28.421875 74.21875 
Q 39.75 74.21875 46.484375 68.546875 
Q 53.21875 62.890625 53.21875 53.421875 
Q 53.21875 48.921875 51.53125 44.890625 
Q 49.859375 40.875 45.40625 35.40625 
Q 44.1875 33.984375 37.640625 27.21875 
Q 31.109375 20.453125 19.1875 8.296875 
z
" id="DejaVuSans-50"/>
      </defs>
      <g transform="translate(131.548357 321.140875)scale(0.2 -0.2)">
       <use xlink:href="#DejaVuSans-50"/>
      </g>
     </g>
    </g>
    <g id="xtick_3">
     <g id="line2d_9">
      <path clip-path="url(#pc27da9b055)" d="M 218.221714 298.944 
L 218.221714 27.648 
" style="fill:none;stroke:#b0b0b0;stroke-linecap:square;stroke-width:0.8;"/>
     </g>
     <g id="line2d_10">
      <g>
       <use style="stroke:#000000;stroke-width:0.8;" x="218.221714" xlink:href="#mfec694072a" y="298.944"/>
      </g>
     </g>
     <g id="text_3">
      <!-- 4 -->
      <defs>
       <path d="M 37.796875 64.3125 
L 12.890625 25.390625 
L 37.796875 25.390625 
z
M 35.203125 72.90625 
L 47.609375 72.90625 
L 47.609375 25.390625 
L 58.015625 25.390625 
L 58.015625 17.1875 
L 47.609375 17.1875 
L 47.609375 0 
L 37.796875 0 
L 37.796875 17.1875 
L 4.890625 17.1875 
L 4.890625 26.703125 
z
" id="DejaVuSans-52"/>
      </defs>
      <g transform="translate(211.859214 321.140875)scale(0.2 -0.2)">
       <use xlink:href="#DejaVuSans-52"/>
      </g>
     </g>
    </g>
    <g id="xtick_4">
     <g id="line2d_11">
      <path clip-path="url(#pc27da9b055)" d="M 298.532571 298.944 
L 298.532571 27.648 
" style="fill:none;stroke:#b0b0b0;stroke-linecap:square;stroke-width:0.8;"/>
     </g>
     <g id="line2d_12">
      <g>
       <use style="stroke:#000000;stroke-width:0.8;" x="298.532571" xlink:href="#mfec694072a" y="298.944"/>
      </g>
     </g>
     <g id="text_4">
      <!-- 6 -->
      <defs>
       <path d="M 33.015625 40.375 
Q 26.375 40.375 22.484375 35.828125 
Q 18.609375 31.296875 18.609375 23.390625 
Q 18.609375 15.53125 22.484375 10.953125 
Q 26.375 6.390625 33.015625 6.390625 
Q 39.65625 6.390625 43.53125 10.953125 
Q 47.40625 15.53125 47.40625 23.390625 
Q 47.40625 31.296875 43.53125 35.828125 
Q 39.65625 40.375 33.015625 40.375 
z
M 52.59375 71.296875 
L 52.59375 62.3125 
Q 48.875 64.0625 45.09375 64.984375 
Q 41.3125 65.921875 37.59375 65.921875 
Q 27.828125 65.921875 22.671875 59.328125 
Q 17.53125 52.734375 16.796875 39.40625 
Q 19.671875 43.65625 24.015625 45.921875 
Q 28.375 48.1875 33.59375 48.1875 
Q 44.578125 48.1875 50.953125 41.515625 
Q 57.328125 34.859375 57.328125 23.390625 
Q 57.328125 12.15625 50.6875 5.359375 
Q 44.046875 -1.421875 33.015625 -1.421875 
Q 20.359375 -1.421875 13.671875 8.265625 
Q 6.984375 17.96875 6.984375 36.375 
Q 6.984375 53.65625 15.1875 63.9375 
Q 23.390625 74.21875 37.203125 74.21875 
Q 40.921875 74.21875 44.703125 73.484375 
Q 48.484375 72.75 52.59375 71.296875 
z
" id="DejaVuSans-54"/>
      </defs>
      <g transform="translate(292.170071 321.140875)scale(0.2 -0.2)">
       <use xlink:href="#DejaVuSans-54"/>
      </g>
     </g>
    </g>
    <g id="xtick_5">
     <g id="line2d_13">
      <path clip-path="url(#pc27da9b055)" d="M 97.755429 298.944 
L 97.755429 27.648 
" style="fill:none;stroke:#b0b0b0;stroke-linecap:square;stroke-width:0.8;"/>
     </g>
     <g id="line2d_14">
      <defs>
       <path d="M 0 0 
L 0 2 
" id="m9957a81260" style="stroke:#000000;stroke-width:0.6;"/>
      </defs>
      <g>
       <use style="stroke:#000000;stroke-width:0.6;" x="97.755429" xlink:href="#m9957a81260" y="298.944"/>
      </g>
     </g>
    </g>
    <g id="xtick_6">
     <g id="line2d_15">
      <path clip-path="url(#pc27da9b055)" d="M 178.066286 298.944 
L 178.066286 27.648 
" style="fill:none;stroke:#b0b0b0;stroke-linecap:square;stroke-width:0.8;"/>
     </g>
     <g id="line2d_16">
      <g>
       <use style="stroke:#000000;stroke-width:0.6;" x="178.066286" xlink:href="#m9957a81260" y="298.944"/>
      </g>
     </g>
    </g>
    <g id="xtick_7">
     <g id="line2d_17">
      <path clip-path="url(#pc27da9b055)" d="M 258.377143 298.944 
L 258.377143 27.648 
" style="fill:none;stroke:#b0b0b0;stroke-linecap:square;stroke-width:0.8;"/>
     </g>
     <g id="line2d_18">
      <g>
       <use style="stroke:#000000;stroke-width:0.6;" x="258.377143" xlink:href="#m9957a81260" y="298.944"/>
      </g>
     </g>
    </g>
    <g id="xtick_8">
     <g id="line2d_19">
      <path clip-path="url(#pc27da9b055)" d="M 338.688 298.944 
L 338.688 27.648 
" style="fill:none;stroke:#b0b0b0;stroke-linecap:square;stroke-width:0.8;"/>
     </g>
     <g id="line2d_20">
      <g>
       <use style="stroke:#000000;stroke-width:0.6;" x="338.688" xlink:href="#m9957a81260" y="298.944"/>
      </g>
     </g>
    </g>
    <g id="text_5">
     <!-- log10(# f-evals / dimension) -->
     <defs>
      <path d="M 9.421875 75.984375 
L 18.40625 75.984375 
L 18.40625 0 
L 9.421875 0 
z
" id="DejaVuSans-108"/>
      <path d="M 30.609375 48.390625 
Q 23.390625 48.390625 19.1875 42.75 
Q 14.984375 37.109375 14.984375 27.296875 
Q 14.984375 17.484375 19.15625 11.84375 
Q 23.34375 6.203125 30.609375 6.203125 
Q 37.796875 6.203125 41.984375 11.859375 
Q 46.1875 17.53125 46.1875 27.296875 
Q 46.1875 37.015625 41.984375 42.703125 
Q 37.796875 48.390625 30.609375 48.390625 
z
M 30.609375 56 
Q 42.328125 56 49.015625 48.375 
Q 55.71875 40.765625 55.71875 27.296875 
Q 55.71875 13.875 49.015625 6.21875 
Q 42.328125 -1.421875 30.609375 -1.421875 
Q 18.84375 -1.421875 12.171875 6.21875 
Q 5.515625 13.875 5.515625 27.296875 
Q 5.515625 40.765625 12.171875 48.375 
Q 18.84375 56 30.609375 56 
z
" id="DejaVuSans-111"/>
      <path d="M 45.40625 27.984375 
Q 45.40625 37.75 41.375 43.109375 
Q 37.359375 48.484375 30.078125 48.484375 
Q 22.859375 48.484375 18.828125 43.109375 
Q 14.796875 37.75 14.796875 27.984375 
Q 14.796875 18.265625 18.828125 12.890625 
Q 22.859375 7.515625 30.078125 7.515625 
Q 37.359375 7.515625 41.375 12.890625 
Q 45.40625 18.265625 45.40625 27.984375 
z
M 54.390625 6.78125 
Q 54.390625 -7.171875 48.1875 -13.984375 
Q 42 -20.796875 29.203125 -20.796875 
Q 24.46875 -20.796875 20.265625 -20.09375 
Q 16.0625 -19.390625 12.109375 -17.921875 
L 12.109375 -9.1875 
Q 16.0625 -11.328125 19.921875 -12.34375 
Q 23.78125 -13.375 27.78125 -13.375 
Q 36.625 -13.375 41.015625 -8.765625 
Q 45.40625 -4.15625 45.40625 5.171875 
L 45.40625 9.625 
Q 42.625 4.78125 38.28125 2.390625 
Q 33.9375 0 27.875 0 
Q 17.828125 0 11.671875 7.65625 
Q 5.515625 15.328125 5.515625 27.984375 
Q 5.515625 40.671875 11.671875 48.328125 
Q 17.828125 56 27.875 56 
Q 33.9375 56 38.28125 53.609375 
Q 42.625 51.21875 45.40625 46.390625 
L 45.40625 54.6875 
L 54.390625 54.6875 
z
" id="DejaVuSans-103"/>
      <path d="M 12.40625 8.296875 
L 28.515625 8.296875 
L 28.515625 63.921875 
L 10.984375 60.40625 
L 10.984375 69.390625 
L 28.421875 72.90625 
L 38.28125 72.90625 
L 38.28125 8.296875 
L 54.390625 8.296875 
L 54.390625 0 
L 12.40625 0 
z
" id="DejaVuSans-49"/>
      <path d="M 31 75.875 
Q 24.46875 64.65625 21.28125 53.65625 
Q 18.109375 42.671875 18.109375 31.390625 
Q 18.109375 20.125 21.3125 9.0625 
Q 24.515625 -2 31 -13.1875 
L 23.1875 -13.1875 
Q 15.875 -1.703125 12.234375 9.375 
Q 8.59375 20.453125 8.59375 31.390625 
Q 8.59375 42.28125 12.203125 53.3125 
Q 15.828125 64.359375 23.1875 75.875 
z
" id="DejaVuSans-40"/>
      <path d="M 51.125 44 
L 36.921875 44 
L 32.8125 27.6875 
L 47.125 27.6875 
z
M 43.796875 71.78125 
L 38.71875 51.515625 
L 52.984375 51.515625 
L 58.109375 71.78125 
L 65.921875 71.78125 
L 60.890625 51.515625 
L 76.125 51.515625 
L 76.125 44 
L 58.984375 44 
L 54.984375 27.6875 
L 70.515625 27.6875 
L 70.515625 20.21875 
L 53.078125 20.21875 
L 48 0 
L 40.1875 0 
L 45.21875 20.21875 
L 30.90625 20.21875 
L 25.875 0 
L 18.015625 0 
L 23.09375 20.21875 
L 7.71875 20.21875 
L 7.71875 27.6875 
L 24.90625 27.6875 
L 29 44 
L 13.28125 44 
L 13.28125 51.515625 
L 30.90625 51.515625 
L 35.890625 71.78125 
z
" id="DejaVuSans-35"/>
      <path id="DejaVuSans-32"/>
      <path d="M 37.109375 75.984375 
L 37.109375 68.5 
L 28.515625 68.5 
Q 23.6875 68.5 21.796875 66.546875 
Q 19.921875 64.59375 19.921875 59.515625 
L 19.921875 54.6875 
L 34.71875 54.6875 
L 34.71875 47.703125 
L 19.921875 47.703125 
L 19.921875 0 
L 10.890625 0 
L 10.890625 47.703125 
L 2.296875 47.703125 
L 2.296875 54.6875 
L 10.890625 54.6875 
L 10.890625 58.5 
Q 10.890625 67.625 15.140625 71.796875 
Q 19.390625 75.984375 28.609375 75.984375 
z
" id="DejaVuSans-102"/>
      <path d="M 4.890625 31.390625 
L 31.203125 31.390625 
L 31.203125 23.390625 
L 4.890625 23.390625 
z
" id="DejaVuSans-45"/>
      <path d="M 56.203125 29.59375 
L 56.203125 25.203125 
L 14.890625 25.203125 
Q 15.484375 15.921875 20.484375 11.0625 
Q 25.484375 6.203125 34.421875 6.203125 
Q 39.59375 6.203125 44.453125 7.46875 
Q 49.3125 8.734375 54.109375 11.28125 
L 54.109375 2.78125 
Q 49.265625 0.734375 44.1875 -0.34375 
Q 39.109375 -1.421875 33.890625 -1.421875 
Q 20.796875 -1.421875 13.15625 6.1875 
Q 5.515625 13.8125 5.515625 26.8125 
Q 5.515625 40.234375 12.765625 48.109375 
Q 20.015625 56 32.328125 56 
Q 43.359375 56 49.78125 48.890625 
Q 56.203125 41.796875 56.203125 29.59375 
z
M 47.21875 32.234375 
Q 47.125 39.59375 43.09375 43.984375 
Q 39.0625 48.390625 32.421875 48.390625 
Q 24.90625 48.390625 20.390625 44.140625 
Q 15.875 39.890625 15.1875 32.171875 
z
" id="DejaVuSans-101"/>
      <path d="M 2.984375 54.6875 
L 12.5 54.6875 
L 29.59375 8.796875 
L 46.6875 54.6875 
L 56.203125 54.6875 
L 35.6875 0 
L 23.484375 0 
z
" id="DejaVuSans-118"/>
      <path d="M 34.28125 27.484375 
Q 23.390625 27.484375 19.1875 25 
Q 14.984375 22.515625 14.984375 16.5 
Q 14.984375 11.71875 18.140625 8.90625 
Q 21.296875 6.109375 26.703125 6.109375 
Q 34.1875 6.109375 38.703125 11.40625 
Q 43.21875 16.703125 43.21875 25.484375 
L 43.21875 27.484375 
z
M 52.203125 31.203125 
L 52.203125 0 
L 43.21875 0 
L 43.21875 8.296875 
Q 40.140625 3.328125 35.546875 0.953125 
Q 30.953125 -1.421875 24.3125 -1.421875 
Q 15.921875 -1.421875 10.953125 3.296875 
Q 6 8.015625 6 15.921875 
Q 6 25.140625 12.171875 29.828125 
Q 18.359375 34.515625 30.609375 34.515625 
L 43.21875 34.515625 
L 43.21875 35.40625 
Q 43.21875 41.609375 39.140625 45 
Q 35.0625 48.390625 27.6875 48.390625 
Q 23 48.390625 18.546875 47.265625 
Q 14.109375 46.140625 10.015625 43.890625 
L 10.015625 52.203125 
Q 14.9375 54.109375 19.578125 55.046875 
Q 24.21875 56 28.609375 56 
Q 40.484375 56 46.34375 49.84375 
Q 52.203125 43.703125 52.203125 31.203125 
z
" id="DejaVuSans-97"/>
      <path d="M 44.28125 53.078125 
L 44.28125 44.578125 
Q 40.484375 46.53125 36.375 47.5 
Q 32.28125 48.484375 27.875 48.484375 
Q 21.1875 48.484375 17.84375 46.4375 
Q 14.5 44.390625 14.5 40.28125 
Q 14.5 37.15625 16.890625 35.375 
Q 19.28125 33.59375 26.515625 31.984375 
L 29.59375 31.296875 
Q 39.15625 29.25 43.1875 25.515625 
Q 47.21875 21.78125 47.21875 15.09375 
Q 47.21875 7.46875 41.1875 3.015625 
Q 35.15625 -1.421875 24.609375 -1.421875 
Q 20.21875 -1.421875 15.453125 -0.5625 
Q 10.6875 0.296875 5.421875 2 
L 5.421875 11.28125 
Q 10.40625 8.6875 15.234375 7.390625 
Q 20.0625 6.109375 24.8125 6.109375 
Q 31.15625 6.109375 34.5625 8.28125 
Q 37.984375 10.453125 37.984375 14.40625 
Q 37.984375 18.0625 35.515625 20.015625 
Q 33.0625 21.96875 24.703125 23.78125 
L 21.578125 24.515625 
Q 13.234375 26.265625 9.515625 29.90625 
Q 5.8125 33.546875 5.8125 39.890625 
Q 5.8125 47.609375 11.28125 51.796875 
Q 16.75 56 26.8125 56 
Q 31.78125 56 36.171875 55.265625 
Q 40.578125 54.546875 44.28125 53.078125 
z
" id="DejaVuSans-115"/>
      <path d="M 25.390625 72.90625 
L 33.6875 72.90625 
L 8.296875 -9.28125 
L 0 -9.28125 
z
" id="DejaVuSans-47"/>
      <path d="M 45.40625 46.390625 
L 45.40625 75.984375 
L 54.390625 75.984375 
L 54.390625 0 
L 45.40625 0 
L 45.40625 8.203125 
Q 42.578125 3.328125 38.25 0.953125 
Q 33.9375 -1.421875 27.875 -1.421875 
Q 17.96875 -1.421875 11.734375 6.484375 
Q 5.515625 14.40625 5.515625 27.296875 
Q 5.515625 40.1875 11.734375 48.09375 
Q 17.96875 56 27.875 56 
Q 33.9375 56 38.25 53.625 
Q 42.578125 51.265625 45.40625 46.390625 
z
M 14.796875 27.296875 
Q 14.796875 17.390625 18.875 11.75 
Q 22.953125 6.109375 30.078125 6.109375 
Q 37.203125 6.109375 41.296875 11.75 
Q 45.40625 17.390625 45.40625 27.296875 
Q 45.40625 37.203125 41.296875 42.84375 
Q 37.203125 48.484375 30.078125 48.484375 
Q 22.953125 48.484375 18.875 42.84375 
Q 14.796875 37.203125 14.796875 27.296875 
z
" id="DejaVuSans-100"/>
      <path d="M 9.421875 54.6875 
L 18.40625 54.6875 
L 18.40625 0 
L 9.421875 0 
z
M 9.421875 75.984375 
L 18.40625 75.984375 
L 18.40625 64.59375 
L 9.421875 64.59375 
z
" id="DejaVuSans-105"/>
      <path d="M 52 44.1875 
Q 55.375 50.25 60.0625 53.125 
Q 64.75 56 71.09375 56 
Q 79.640625 56 84.28125 50.015625 
Q 88.921875 44.046875 88.921875 33.015625 
L 88.921875 0 
L 79.890625 0 
L 79.890625 32.71875 
Q 79.890625 40.578125 77.09375 44.375 
Q 74.3125 48.1875 68.609375 48.1875 
Q 61.625 48.1875 57.5625 43.546875 
Q 53.515625 38.921875 53.515625 30.90625 
L 53.515625 0 
L 44.484375 0 
L 44.484375 32.71875 
Q 44.484375 40.625 41.703125 44.40625 
Q 38.921875 48.1875 33.109375 48.1875 
Q 26.21875 48.1875 22.15625 43.53125 
Q 18.109375 38.875 18.109375 30.90625 
L 18.109375 0 
L 9.078125 0 
L 9.078125 54.6875 
L 18.109375 54.6875 
L 18.109375 46.1875 
Q 21.1875 51.21875 25.484375 53.609375 
Q 29.78125 56 35.6875 56 
Q 41.65625 56 45.828125 52.96875 
Q 50 49.953125 52 44.1875 
z
" id="DejaVuSans-109"/>
      <path d="M 54.890625 33.015625 
L 54.890625 0 
L 45.90625 0 
L 45.90625 32.71875 
Q 45.90625 40.484375 42.875 44.328125 
Q 39.84375 48.1875 33.796875 48.1875 
Q 26.515625 48.1875 22.3125 43.546875 
Q 18.109375 38.921875 18.109375 30.90625 
L 18.109375 0 
L 9.078125 0 
L 9.078125 54.6875 
L 18.109375 54.6875 
L 18.109375 46.1875 
Q 21.34375 51.125 25.703125 53.5625 
Q 30.078125 56 35.796875 56 
Q 45.21875 56 50.046875 50.171875 
Q 54.890625 44.34375 54.890625 33.015625 
z
" id="DejaVuSans-110"/>
      <path d="M 8.015625 75.875 
L 15.828125 75.875 
Q 23.140625 64.359375 26.78125 53.3125 
Q 30.421875 42.28125 30.421875 31.390625 
Q 30.421875 20.453125 26.78125 9.375 
Q 23.140625 -1.703125 15.828125 -13.1875 
L 8.015625 -13.1875 
Q 14.5 -2 17.703125 9.0625 
Q 20.90625 20.125 20.90625 31.390625 
Q 20.90625 42.671875 17.703125 53.65625 
Q 14.5 64.65625 8.015625 75.875 
z
" id="DejaVuSans-41"/>
     </defs>
     <g transform="translate(77.764078 342.217594)scale(0.17 -0.17)">
      <use xlink:href="#DejaVuSans-108"/>
      <use x="27.783203" xlink:href="#DejaVuSans-111"/>
      <use x="88.964844" xlink:href="#DejaVuSans-103"/>
      <use x="152.441406" xlink:href="#DejaVuSans-49"/>
      <use x="216.064453" xlink:href="#DejaVuSans-48"/>
      <use x="279.6875" xlink:href="#DejaVuSans-40"/>
      <use x="318.701172" xlink:href="#DejaVuSans-35"/>
      <use x="402.490234" xlink:href="#DejaVuSans-32"/>
      <use x="434.277344" xlink:href="#DejaVuSans-102"/>
      <use x="463.982422" xlink:href="#DejaVuSans-45"/>
      <use x="500.066406" xlink:href="#DejaVuSans-101"/>
      <use x="561.589844" xlink:href="#DejaVuSans-118"/>
      <use x="620.769531" xlink:href="#DejaVuSans-97"/>
      <use x="682.048828" xlink:href="#DejaVuSans-108"/>
      <use x="709.832031" xlink:href="#DejaVuSans-115"/>
      <use x="761.931641" xlink:href="#DejaVuSans-32"/>
      <use x="793.71875" xlink:href="#DejaVuSans-47"/>
      <use x="827.410156" xlink:href="#DejaVuSans-32"/>
      <use x="859.197266" xlink:href="#DejaVuSans-100"/>
      <use x="922.673828" xlink:href="#DejaVuSans-105"/>
      <use x="950.457031" xlink:href="#DejaVuSans-109"/>
      <use x="1047.869141" xlink:href="#DejaVuSans-101"/>
      <use x="1109.392578" xlink:href="#DejaVuSans-110"/>
      <use x="1172.771484" xlink:href="#DejaVuSans-115"/>
      <use x="1224.871094" xlink:href="#DejaVuSans-105"/>
      <use x="1252.654297" xlink:href="#DejaVuSans-111"/>
      <use x="1313.835938" xlink:href="#DejaVuSans-110"/>
      <use x="1377.214844" xlink:href="#DejaVuSans-41"/>
     </g>
    </g>
   </g>
   <g id="matplotlib.axis_2">
    <g id="ytick_1">
     <g id="line2d_21">
      <path clip-path="url(#pc27da9b055)" d="M 57.6 298.944 
L 338.688 298.944 
" style="fill:none;stroke:#b0b0b0;stroke-linecap:square;stroke-width:0.8;"/>
     </g>
     <g id="line2d_22">
      <defs>
       <path d="M 0 0 
L -3.5 0 
" id="m12f795c09e" style="stroke:#000000;stroke-width:0.8;"/>
      </defs>
      <g>
       <use style="stroke:#000000;stroke-width:0.8;" x="57.6" xlink:href="#m12f795c09e" y="298.944"/>
      </g>
     </g>
     <g id="text_6">
      <!-- 0.0 -->
      <defs>
       <path d="M 10.6875 12.40625 
L 21 12.40625 
L 21 0 
L 10.6875 0 
z
" id="DejaVuSans-46"/>
      </defs>
      <g transform="translate(25.155 305.02275)scale(0.16 -0.16)">
       <use xlink:href="#DejaVuSans-48"/>
       <use x="63.623047" xlink:href="#DejaVuSans-46"/>
       <use x="95.410156" xlink:href="#DejaVuSans-48"/>
      </g>
     </g>
    </g>
    <g id="ytick_2">
     <g id="line2d_23">
      <path clip-path="url(#pc27da9b055)" d="M 57.6 245.22202 
L 338.688 245.22202 
" style="fill:none;stroke:#b0b0b0;stroke-linecap:square;stroke-width:0.8;"/>
     </g>
     <g id="line2d_24">
      <g>
       <use style="stroke:#000000;stroke-width:0.8;" x="57.6" xlink:href="#m12f795c09e" y="245.22202"/>
      </g>
     </g>
     <g id="text_7">
      <!-- 0.2 -->
      <g transform="translate(25.155 251.30077)scale(0.16 -0.16)">
       <use xlink:href="#DejaVuSans-48"/>
       <use x="63.623047" xlink:href="#DejaVuSans-46"/>
       <use x="95.410156" xlink:href="#DejaVuSans-50"/>
      </g>
     </g>
    </g>
    <g id="ytick_3">
     <g id="line2d_25">
      <path clip-path="url(#pc27da9b055)" d="M 57.6 191.50004 
L 338.688 191.50004 
" style="fill:none;stroke:#b0b0b0;stroke-linecap:square;stroke-width:0.8;"/>
     </g>
     <g id="line2d_26">
      <g>
       <use style="stroke:#000000;stroke-width:0.8;" x="57.6" xlink:href="#m12f795c09e" y="191.50004"/>
      </g>
     </g>
     <g id="text_8">
      <!-- 0.4 -->
      <g transform="translate(25.155 197.57879)scale(0.16 -0.16)">
       <use xlink:href="#DejaVuSans-48"/>
       <use x="63.623047" xlink:href="#DejaVuSans-46"/>
       <use x="95.410156" xlink:href="#DejaVuSans-52"/>
      </g>
     </g>
    </g>
    <g id="ytick_4">
     <g id="line2d_27">
      <path clip-path="url(#pc27da9b055)" d="M 57.6 137.778059 
L 338.688 137.778059 
" style="fill:none;stroke:#b0b0b0;stroke-linecap:square;stroke-width:0.8;"/>
     </g>
     <g id="line2d_28">
      <g>
       <use style="stroke:#000000;stroke-width:0.8;" x="57.6" xlink:href="#m12f795c09e" y="137.778059"/>
      </g>
     </g>
     <g id="text_9">
      <!-- 0.6 -->
      <g transform="translate(25.155 143.856809)scale(0.16 -0.16)">
       <use xlink:href="#DejaVuSans-48"/>
       <use x="63.623047" xlink:href="#DejaVuSans-46"/>
       <use x="95.410156" xlink:href="#DejaVuSans-54"/>
      </g>
     </g>
    </g>
    <g id="ytick_5">
     <g id="line2d_29">
      <path clip-path="url(#pc27da9b055)" d="M 57.6 84.056079 
L 338.688 84.056079 
" style="fill:none;stroke:#b0b0b0;stroke-linecap:square;stroke-width:0.8;"/>
     </g>
     <g id="line2d_30">
      <g>
       <use style="stroke:#000000;stroke-width:0.8;" x="57.6" xlink:href="#m12f795c09e" y="84.056079"/>
      </g>
     </g>
     <g id="text_10">
      <!-- 0.8 -->
      <defs>
       <path d="M 31.78125 34.625 
Q 24.75 34.625 20.71875 30.859375 
Q 16.703125 27.09375 16.703125 20.515625 
Q 16.703125 13.921875 20.71875 10.15625 
Q 24.75 6.390625 31.78125 6.390625 
Q 38.8125 6.390625 42.859375 10.171875 
Q 46.921875 13.96875 46.921875 20.515625 
Q 46.921875 27.09375 42.890625 30.859375 
Q 38.875 34.625 31.78125 34.625 
z
M 21.921875 38.8125 
Q 15.578125 40.375 12.03125 44.71875 
Q 8.5 49.078125 8.5 55.328125 
Q 8.5 64.0625 14.71875 69.140625 
Q 20.953125 74.21875 31.78125 74.21875 
Q 42.671875 74.21875 48.875 69.140625 
Q 55.078125 64.0625 55.078125 55.328125 
Q 55.078125 49.078125 51.53125 44.71875 
Q 48 40.375 41.703125 38.8125 
Q 48.828125 37.15625 52.796875 32.3125 
Q 56.78125 27.484375 56.78125 20.515625 
Q 56.78125 9.90625 50.3125 4.234375 
Q 43.84375 -1.421875 31.78125 -1.421875 
Q 19.734375 -1.421875 13.25 4.234375 
Q 6.78125 9.90625 6.78125 20.515625 
Q 6.78125 27.484375 10.78125 32.3125 
Q 14.796875 37.15625 21.921875 38.8125 
z
M 18.3125 54.390625 
Q 18.3125 48.734375 21.84375 45.5625 
Q 25.390625 42.390625 31.78125 42.390625 
Q 38.140625 42.390625 41.71875 45.5625 
Q 45.3125 48.734375 45.3125 54.390625 
Q 45.3125 60.0625 41.71875 63.234375 
Q 38.140625 66.40625 31.78125 66.40625 
Q 25.390625 66.40625 21.84375 63.234375 
Q 18.3125 60.0625 18.3125 54.390625 
z
" id="DejaVuSans-56"/>
      </defs>
      <g transform="translate(25.155 90.134829)scale(0.16 -0.16)">
       <use xlink:href="#DejaVuSans-48"/>
       <use x="63.623047" xlink:href="#DejaVuSans-46"/>
       <use x="95.410156" xlink:href="#DejaVuSans-56"/>
      </g>
     </g>
    </g>
    <g id="ytick_6">
     <g id="line2d_31">
      <path clip-path="url(#pc27da9b055)" d="M 57.6 30.334099 
L 338.688 30.334099 
" style="fill:none;stroke:#b0b0b0;stroke-linecap:square;stroke-width:0.8;"/>
     </g>
     <g id="line2d_32">
      <g>
       <use style="stroke:#000000;stroke-width:0.8;" x="57.6" xlink:href="#m12f795c09e" y="30.334099"/>
      </g>
     </g>
     <g id="text_11">
      <!-- 1.0 -->
      <g transform="translate(25.155 36.412849)scale(0.16 -0.16)">
       <use xlink:href="#DejaVuSans-49"/>
       <use x="63.623047" xlink:href="#DejaVuSans-46"/>
       <use x="95.410156" xlink:href="#DejaVuSans-48"/>
      </g>
     </g>
    </g>
    <g id="text_12">
     <!-- Fraction of function,target pairs -->
     <defs>
      <path d="M 9.8125 72.90625 
L 51.703125 72.90625 
L 51.703125 64.59375 
L 19.671875 64.59375 
L 19.671875 43.109375 
L 48.578125 43.109375 
L 48.578125 34.8125 
L 19.671875 34.8125 
L 19.671875 0 
L 9.8125 0 
z
" id="DejaVuSans-70"/>
      <path d="M 41.109375 46.296875 
Q 39.59375 47.171875 37.8125 47.578125 
Q 36.03125 48 33.890625 48 
Q 26.265625 48 22.1875 43.046875 
Q 18.109375 38.09375 18.109375 28.8125 
L 18.109375 0 
L 9.078125 0 
L 9.078125 54.6875 
L 18.109375 54.6875 
L 18.109375 46.1875 
Q 20.953125 51.171875 25.484375 53.578125 
Q 30.03125 56 36.53125 56 
Q 37.453125 56 38.578125 55.875 
Q 39.703125 55.765625 41.0625 55.515625 
z
" id="DejaVuSans-114"/>
      <path d="M 48.78125 52.59375 
L 48.78125 44.1875 
Q 44.96875 46.296875 41.140625 47.34375 
Q 37.3125 48.390625 33.40625 48.390625 
Q 24.65625 48.390625 19.8125 42.84375 
Q 14.984375 37.3125 14.984375 27.296875 
Q 14.984375 17.28125 19.8125 11.734375 
Q 24.65625 6.203125 33.40625 6.203125 
Q 37.3125 6.203125 41.140625 7.25 
Q 44.96875 8.296875 48.78125 10.40625 
L 48.78125 2.09375 
Q 45.015625 0.34375 40.984375 -0.53125 
Q 36.96875 -1.421875 32.421875 -1.421875 
Q 20.0625 -1.421875 12.78125 6.34375 
Q 5.515625 14.109375 5.515625 27.296875 
Q 5.515625 40.671875 12.859375 48.328125 
Q 20.21875 56 33.015625 56 
Q 37.15625 56 41.109375 55.140625 
Q 45.0625 54.296875 48.78125 52.59375 
z
" id="DejaVuSans-99"/>
      <path d="M 18.3125 70.21875 
L 18.3125 54.6875 
L 36.8125 54.6875 
L 36.8125 47.703125 
L 18.3125 47.703125 
L 18.3125 18.015625 
Q 18.3125 11.328125 20.140625 9.421875 
Q 21.96875 7.515625 27.59375 7.515625 
L 36.8125 7.515625 
L 36.8125 0 
L 27.59375 0 
Q 17.1875 0 13.234375 3.875 
Q 9.28125 7.765625 9.28125 18.015625 
L 9.28125 47.703125 
L 2.6875 47.703125 
L 2.6875 54.6875 
L 9.28125 54.6875 
L 9.28125 70.21875 
z
" id="DejaVuSans-116"/>
      <path d="M 8.5 21.578125 
L 8.5 54.6875 
L 17.484375 54.6875 
L 17.484375 21.921875 
Q 17.484375 14.15625 20.5 10.265625 
Q 23.53125 6.390625 29.59375 6.390625 
Q 36.859375 6.390625 41.078125 11.03125 
Q 45.3125 15.671875 45.3125 23.6875 
L 45.3125 54.6875 
L 54.296875 54.6875 
L 54.296875 0 
L 45.3125 0 
L 45.3125 8.40625 
Q 42.046875 3.421875 37.71875 1 
Q 33.40625 -1.421875 27.6875 -1.421875 
Q 18.265625 -1.421875 13.375 4.4375 
Q 8.5 10.296875 8.5 21.578125 
z
M 31.109375 56 
z
" id="DejaVuSans-117"/>
      <path d="M 11.71875 12.40625 
L 22.015625 12.40625 
L 22.015625 4 
L 14.015625 -11.625 
L 7.71875 -11.625 
L 11.71875 4 
z
" id="DejaVuSans-44"/>
      <path d="M 18.109375 8.203125 
L 18.109375 -20.796875 
L 9.078125 -20.796875 
L 9.078125 54.6875 
L 18.109375 54.6875 
L 18.109375 46.390625 
Q 20.953125 51.265625 25.265625 53.625 
Q 29.59375 56 35.59375 56 
Q 45.5625 56 51.78125 48.09375 
Q 58.015625 40.1875 58.015625 27.296875 
Q 58.015625 14.40625 51.78125 6.484375 
Q 45.5625 -1.421875 35.59375 -1.421875 
Q 29.59375 -1.421875 25.265625 0.953125 
Q 20.953125 3.328125 18.109375 8.203125 
z
M 48.6875 27.296875 
Q 48.6875 37.203125 44.609375 42.84375 
Q 40.53125 48.484375 33.40625 48.484375 
Q 26.265625 48.484375 22.1875 42.84375 
Q 18.109375 37.203125 18.109375 27.296875 
Q 18.109375 17.390625 22.1875 11.75 
Q 26.265625 6.109375 33.40625 6.109375 
Q 40.53125 6.109375 44.609375 11.75 
Q 48.6875 17.390625 48.6875 27.296875 
z
" id="DejaVuSans-112"/>
     </defs>
     <g transform="translate(17.619531 297.681)rotate(-90)scale(0.17 -0.17)">
      <use xlink:href="#DejaVuSans-70"/>
      <use x="50.269531" xlink:href="#DejaVuSans-114"/>
      <use x="91.382812" xlink:href="#DejaVuSans-97"/>
      <use x="152.662109" xlink:href="#DejaVuSans-99"/>
      <use x="207.642578" xlink:href="#DejaVuSans-116"/>
      <use x="246.851562" xlink:href="#DejaVuSans-105"/>
      <use x="274.634766" xlink:href="#DejaVuSans-111"/>
      <use x="335.816406" xlink:href="#DejaVuSans-110"/>
      <use x="399.195312" xlink:href="#DejaVuSans-32"/>
      <use x="430.982422" xlink:href="#DejaVuSans-111"/>
      <use x="492.164062" xlink:href="#DejaVuSans-102"/>
      <use x="527.369141" xlink:href="#DejaVuSans-32"/>
      <use x="559.15625" xlink:href="#DejaVuSans-102"/>
      <use x="594.361328" xlink:href="#DejaVuSans-117"/>
      <use x="657.740234" xlink:href="#DejaVuSans-110"/>
      <use x="721.119141" xlink:href="#DejaVuSans-99"/>
      <use x="776.099609" xlink:href="#DejaVuSans-116"/>
      <use x="815.308594" xlink:href="#DejaVuSans-105"/>
      <use x="843.091797" xlink:href="#DejaVuSans-111"/>
      <use x="904.273438" xlink:href="#DejaVuSans-110"/>
      <use x="967.652344" xlink:href="#DejaVuSans-44"/>
      <use x="999.439453" xlink:href="#DejaVuSans-116"/>
      <use x="1038.648438" xlink:href="#DejaVuSans-97"/>
      <use x="1099.927734" xlink:href="#DejaVuSans-114"/>
      <use x="1139.291016" xlink:href="#DejaVuSans-103"/>
      <use x="1202.767578" xlink:href="#DejaVuSans-101"/>
      <use x="1264.291016" xlink:href="#DejaVuSans-116"/>
      <use x="1303.5" xlink:href="#DejaVuSans-32"/>
      <use x="1335.287109" xlink:href="#DejaVuSans-112"/>
      <use x="1398.763672" xlink:href="#DejaVuSans-97"/>
      <use x="1460.042969" xlink:href="#DejaVuSans-105"/>
      <use x="1487.826172" xlink:href="#DejaVuSans-114"/>
      <use x="1528.939453" xlink:href="#DejaVuSans-115"/>
     </g>
    </g>
   </g>
   <g id="line2d_33">
    <defs>
     <path d="M 0 1.5 
C 0.397805 1.5 0.77937 1.341951 1.06066 1.06066 
C 1.341951 0.77937 1.5 0.397805 1.5 0 
C 1.5 -0.397805 1.341951 -0.77937 1.06066 -1.06066 
C 0.77937 -1.341951 0.397805 -1.5 0 -1.5 
C -0.397805 -1.5 -0.77937 -1.341951 -1.06066 -1.06066 
C -1.341951 -0.77937 -1.5 -0.397805 -1.5 0 
C -1.5 0.397805 -1.341951 0.77937 -1.06066 1.06066 
C -0.77937 1.341951 -0.397805 1.5 0 1.5 
z
" id="m6b29fbfd28" style="stroke:#f5deb3;"/>
    </defs>
    <g>
     <use style="fill:#f5deb3;stroke:#f5deb3;" x="176.102467" xlink:href="#m6b29fbfd28" y="30.334099"/>
     <use style="fill:#f5deb3;stroke:#f5deb3;" x="176.102467" xlink:href="#m6b29fbfd28" y="30.334099"/>
    </g>
   </g>
   <g id="line2d_34">
    <defs>
     <path d="M 0 1.5 
C 0.397805 1.5 0.77937 1.341951 1.06066 1.06066 
C 1.341951 0.77937 1.5 0.397805 1.5 0 
C 1.5 -0.397805 1.341951 -0.77937 1.06066 -1.06066 
C 0.77937 -1.341951 0.397805 -1.5 0 -1.5 
C -0.397805 -1.5 -0.77937 -1.341951 -1.06066 -1.06066 
C -1.341951 -0.77937 -1.5 -0.397805 -1.5 0 
C -1.5 0.397805 -1.341951 0.77937 -1.06066 1.06066 
C -0.77937 1.341951 -0.397805 1.5 0 1.5 
z
" id="mf12d9f30d0" style="stroke:#000080;"/>
    </defs>
    <g>
     <use style="fill:#000080;stroke:#000080;" x="184.833557" xlink:href="#mf12d9f30d0" y="146.205037"/>
     <use style="fill:#000080;stroke:#000080;" x="184.833557" xlink:href="#mf12d9f30d0" y="146.205037"/>
    </g>
   </g>
   <g id="line2d_35">
    <path d="M 5.356583 298.944 
L 5.356583 288.936964 
L 24.515591 288.936964 
L 24.515591 287.883592 
L 41.620548 287.883592 
L 41.620548 287.356906 
L 45.512012 287.356906 
L 45.512012 286.83022 
L 50.087456 286.83022 
L 50.087456 286.303534 
L 61.491463 286.303534 
L 61.491463 285.250162 
L 64.67102 285.250162 
L 64.67102 284.723476 
L 68.328395 284.723476 
L 68.328395 282.616732 
L 71.74204 282.616732 
L 71.74204 282.090045 
L 73.227131 282.090045 
L 73.227131 281.563359 
L 78.941764 281.563359 
L 78.941764 281.036673 
L 80.179111 281.036673 
L 80.179111 280.509987 
L 80.416384 280.509987 
L 80.416384 279.983301 
L 82.206598 279.983301 
L 82.206598 279.456615 
L 82.833227 279.456615 
L 82.833227 278.929929 
L 83.037197 278.929929 
L 83.037197 278.403243 
L 83.23881 278.403243 
L 83.23881 277.876557 
L 83.635174 277.876557 
L 83.635174 277.349871 
L 83.830028 277.349871 
L 83.830028 276.823185 
L 85.315119 276.823185 
L 85.315119 276.296499 
L 86.518305 276.296499 
L 86.518305 275.769812 
L 87.329581 275.769812 
L 87.329581 275.243126 
L 88.701061 275.243126 
L 88.701061 274.71644 
L 89.558903 274.71644 
L 89.558903 274.189754 
L 89.972502 274.189754 
L 89.972502 273.663068 
L 90.640756 273.663068 
L 90.640756 273.136382 
L 91.029752 273.136382 
L 91.029752 272.609696 
L 92.026554 272.609696 
L 92.026554 272.08301 
L 93.083804 272.08301 
L 93.083804 271.029638 
L 93.644601 271.029638 
L 93.644601 269.976266 
L 94.505975 269.976266 
L 94.505975 269.449579 
L 95.023499 269.449579 
L 95.023499 268.922893 
L 95.918017 268.922893 
L 95.918017 268.396207 
L 96.110718 268.396207 
L 96.110718 267.869521 
L 98.771596 267.869521 
L 98.771596 267.342835 
L 99.258306 267.342835 
L 99.338119 266.289463 
L 100.268435 266.289463 
L 100.268435 265.236091 
L 100.641881 265.236091 
L 100.641881 264.182719 
L 101.436355 264.182719 
L 101.436355 263.656033 
L 101.785851 263.656033 
L 101.785851 263.129347 
L 102.924327 263.129347 
L 102.924327 262.60266 
L 103.117741 262.60266 
L 103.181738 261.549288 
L 103.372333 261.549288 
L 103.372333 261.022602 
L 103.498249 261.022602 
L 103.498249 260.495916 
L 104.23523 260.495916 
L 104.295262 259.442544 
L 104.592361 259.442544 
L 104.592361 258.915858 
L 106.802819 258.915858 
L 106.802819 258.389172 
L 107.009204 258.389172 
L 107.009204 257.862486 
L 107.213174 257.862486 
L 107.213174 257.3358 
L 107.364602 257.3358 
L 107.364602 256.809114 
L 108.436627 256.809114 
L 108.436627 256.282427 
L 108.764355 256.282427 
L 108.764355 255.755741 
L 108.902946 255.755741 
L 108.902946 255.229055 
L 109.040444 255.229055 
L 109.040444 254.702369 
L 110.016944 254.702369 
L 110.016944 254.175683 
L 110.358901 254.175683 
L 110.358901 253.648997 
L 110.941652 253.648997 
L 110.941652 253.122311 
L 111.225884 253.122311 
L 111.225884 252.595625 
L 111.386247 252.595625 
L 111.465878 251.542253 
L 112.166658 251.542253 
L 112.166658 251.015567 
L 113.022974 251.015567 
L 113.059268 249.962195 
L 113.346933 249.962195 
L 113.346933 249.435508 
L 113.55961 249.435508 
L 113.55961 248.908822 
L 113.73488 248.908822 
L 113.804498 247.85545 
L 114.250364 247.85545 
L 114.351658 246.802078 
L 114.485807 246.802078 
L 114.485807 246.275392 
L 114.618932 246.275392 
L 114.652055 245.22202 
L 115.012316 245.22202 
L 115.10929 243.115275 
L 115.301637 243.115275 
L 115.301637 241.535217 
L 115.866268 241.535217 
L 115.866268 241.008531 
L 116.972471 241.008531 
L 117.059162 238.901787 
L 117.316679 238.901787 
L 117.316679 237.848415 
L 117.458117 237.848415 
L 117.458117 237.321729 
L 117.958004 237.321729 
L 117.958004 235.74167 
L 118.094355 235.74167 
L 118.094355 235.214984 
L 118.576578 235.214984 
L 118.576578 234.688298 
L 118.942633 234.688298 
L 119.020084 233.634926 
L 119.477701 233.634926 
L 119.577783 232.581554 
L 120.406061 232.581554 
L 120.406061 232.054868 
L 120.595363 232.054868 
L 120.689249 230.47481 
L 120.8059 230.47481 
L 120.8059 229.948123 
L 120.944859 229.948123 
L 120.990934 228.894751 
L 121.105591 228.894751 
L 121.105591 228.368065 
L 121.579085 228.368065 
L 121.623516 227.314693 
L 122.148045 227.314693 
L 122.233953 225.734635 
L 122.425713 225.734635 
L 122.510267 224.681263 
L 122.594413 224.681263 
L 122.636335 223.627891 
L 122.865118 223.627891 
L 122.865118 223.101204 
L 122.988655 223.101204 
L 122.988655 222.574518 
L 123.212892 222.574518 
L 123.212892 222.047832 
L 123.333999 222.047832 
L 123.333999 221.521146 
L 123.770997 221.521146 
L 123.810186 220.467774 
L 123.94666 220.467774 
L 123.94666 219.941088 
L 124.139788 219.941088 
L 124.139788 219.414402 
L 124.557288 219.414402 
L 124.557288 218.887716 
L 124.669438 218.887716 
L 124.725244 217.834344 
L 125.056379 217.834344 
L 125.074593 216.780971 
L 125.345535 216.780971 
L 125.345535 216.254285 
L 125.488334 216.254285 
L 125.488334 215.727599 
L 125.996395 215.727599 
L 125.996395 215.200913 
L 126.116845 215.200913 
L 126.202373 213.620855 
L 126.806101 213.620855 
L 126.806101 213.094169 
L 126.97016 213.094169 
L 127.035353 212.040797 
L 127.132689 212.040797 
L 127.132689 211.514111 
L 127.309739 211.514111 
L 127.40556 209.934052 
L 127.5641 209.934052 
L 127.5641 209.407366 
L 127.752464 209.407366 
L 127.752464 208.88068 
L 127.969682 208.88068 
L 127.969682 208.353994 
L 128.245045 208.353994 
L 128.275374 207.300622 
L 128.827155 207.300622 
L 128.92961 205.720564 
L 128.973336 205.720564 
L 129.031467 204.140506 
L 129.161557 204.140506 
L 129.204706 203.087133 
L 129.79784 203.087133 
L 129.79784 202.560447 
L 130.073348 202.560447 
L 130.073348 201.507075 
L 130.331109 201.507075 
L 130.358022 199.927017 
L 130.545255 199.927017 
L 130.545255 199.400331 
L 131.338382 199.400331 
L 131.338382 198.873645 
L 131.90119 198.873645 
L 131.90119 198.346959 
L 132.048254 198.346959 
L 132.048254 197.820273 
L 132.314693 197.820273 
L 132.314693 197.293586 
L 132.494049 197.293586 
L 132.494049 196.7669 
L 132.70687 196.7669 
L 132.70687 196.240214 
L 133.589045 196.240214 
L 133.589045 195.713528 
L 133.899085 195.713528 
L 133.986665 194.660156 
L 134.04118 194.660156 
L 134.12805 193.606784 
L 134.439378 193.606784 
L 134.439378 193.080098 
L 134.650895 193.080098 
L 134.650895 192.553412 
L 135.014985 192.553412 
L 135.014985 192.026726 
L 135.270472 192.026726 
L 135.300881 190.446667 
L 135.966545 190.446667 
L 136.015217 189.393295 
L 137.016339 189.393295 
L 137.016339 188.866609 
L 137.135254 188.866609 
L 137.244307 187.813237 
L 137.460387 187.813237 
L 137.460387 187.286551 
L 137.638431 187.286551 
L 137.647286 186.233179 
L 137.814676 186.233179 
L 137.814676 185.706493 
L 138.041164 185.706493 
L 138.041164 185.179807 
L 138.366981 185.179807 
L 138.477062 184.126434 
L 138.594838 184.126434 
L 138.611599 183.073062 
L 139.155847 183.073062 
L 139.155847 182.546376 
L 139.469642 182.546376 
L 139.469642 182.01969 
L 139.754371 182.01969 
L 139.754371 181.493004 
L 140.386075 181.493004 
L 140.454035 180.439632 
L 140.53674 180.439632 
L 140.53674 179.912946 
L 140.900458 179.912946 
L 140.900458 179.38626 
L 141.292695 179.38626 
L 141.292695 178.859574 
L 141.428632 178.859574 
L 141.428632 178.332888 
L 141.795343 178.332888 
L 141.795343 177.806202 
L 141.989655 177.806202 
L 142.051655 176.752829 
L 142.304254 176.752829 
L 142.304254 176.226143 
L 142.871056 176.226143 
L 142.871056 175.699457 
L 143.49614 175.699457 
L 143.527762 174.646085 
L 143.778691 174.646085 
L 143.778691 174.119399 
L 144.172816 174.119399 
L 144.172816 173.592713 
L 144.456682 173.592713 
L 144.456682 173.066027 
L 144.75368 173.066027 
L 144.75368 172.539341 
L 144.999308 172.539341 
L 145.080421 171.485969 
L 145.2186 171.485969 
L 145.2186 170.959282 
L 145.384119 170.959282 
L 145.384119 170.432596 
L 145.621085 170.432596 
L 145.621085 169.90591 
L 146.09648 169.90591 
L 146.09648 169.379224 
L 146.38313 169.379224 
L 146.40993 167.799166 
L 147.035929 167.799166 
L 147.097825 166.219108 
L 147.149238 166.219108 
L 147.149238 165.692422 
L 147.393932 165.692422 
L 147.393932 165.165736 
L 147.515004 165.165736 
L 147.515004 164.63905 
L 148.098345 164.63905 
L 148.098345 164.112363 
L 148.40198 164.112363 
L 148.40198 163.585677 
L 148.629823 163.585677 
L 148.629823 163.058991 
L 148.924421 163.058991 
L 148.924421 162.532305 
L 149.205001 162.532305 
L 149.241465 161.478933 
L 149.735275 161.478933 
L 149.735275 160.952247 
L 149.880731 160.952247 
L 149.920192 159.898875 
L 150.042389 159.898875 
L 150.042389 159.372189 
L 150.202563 159.372189 
L 150.202563 158.845503 
L 150.318524 158.845503 
L 150.318524 158.318817 
L 151.340991 158.318817 
L 151.340991 157.79213 
L 151.505722 157.79213 
L 151.585518 156.212072 
L 151.672873 156.212072 
L 151.672873 155.685386 
L 151.865879 155.685386 
L 151.865879 155.1587 
L 152.029629 155.1587 
L 152.137948 154.105328 
L 152.325902 154.105328 
L 152.325902 153.578642 
L 152.443774 153.578642 
L 152.474064 152.52527 
L 152.662192 152.52527 
L 152.703309 150.945211 
L 152.788969 150.945211 
L 152.840905 149.891839 
L 152.962716 149.891839 
L 152.962716 149.365153 
L 165.659755 149.365153 
L 165.659755 148.838467 
L 172.140107 148.838467 
L 172.140107 148.311781 
L 172.32166 148.311781 
L 172.32166 147.258409 
L 181.513362 147.258409 
L 181.513362 146.731723 
L 184.833557 146.731723 
L 184.833557 146.205037 
L 338.688 146.205037 
L 338.688 146.205037 
" style="fill:none;stroke:#000080;stroke-linecap:square;stroke-width:1.5;"/>
   </g>
   <g id="line2d_36">
    <defs>
     <path d="M 0 6 
C 1.591219 6 3.117479 5.367802 4.242641 4.242641 
C 5.367802 3.117479 6 1.591219 6 0 
C 6 -1.591219 5.367802 -3.117479 4.242641 -4.242641 
C 3.117479 -5.367802 1.591219 -6 0 -6 
C -1.591219 -6 -3.117479 -5.367802 -4.242641 -4.242641 
C -5.367802 -3.117479 -6 -1.591219 -6 0 
C -6 1.591219 -5.367802 3.117479 -4.242641 4.242641 
C -3.117479 5.367802 -1.591219 6 0 6 
z
" id="mc25dff0aef" style="stroke:#000080;stroke-width:1.5;"/>
    </defs>
    <g>
     <use style="fill-opacity:0;stroke:#000080;stroke-width:1.5;" x="95.918017" xlink:href="#mc25dff0aef" y="268.922893"/>
     <use style="fill-opacity:0;stroke:#000080;stroke-width:1.5;" x="152.962716" xlink:href="#mc25dff0aef" y="149.891839"/>
     <use style="fill-opacity:0;stroke:#000080;stroke-width:1.5;" x="184.833557" xlink:href="#mc25dff0aef" y="146.731723"/>
     <use style="fill-opacity:0;stroke:#000080;stroke-width:1.5;" x="184.833557" xlink:href="#mc25dff0aef" y="146.205037"/>
     <use style="fill-opacity:0;stroke:#000080;stroke-width:1.5;" x="184.833557" xlink:href="#mc25dff0aef" y="146.205037"/>
     <use style="fill-opacity:0;stroke:#000080;stroke-width:1.5;" x="338.688" xlink:href="#mc25dff0aef" y="146.205037"/>
    </g>
   </g>
   <g id="line2d_37">
    <path style="fill:none;stroke:#000080;stroke-linecap:square;stroke-width:1.5;"/>
    <g/>
   </g>
   <g id="line2d_38">
    <path clip-path="url(#pc27da9b055)" d="M 153.862384 149.365153 
" style="fill:none;stroke:#000080;stroke-linecap:square;stroke-width:1.5;"/>
    <defs>
     <path d="M -12 12 
L 12 -12 
M -12 -12 
L 12 12 
" id="m4cee9c21f3" style="stroke:#000080;"/>
    </defs>
    <g clip-path="url(#pc27da9b055)">
     <use style="fill:#000080;stroke:#000080;" x="153.862384" xlink:href="#m4cee9c21f3" y="149.365153"/>
    </g>
   </g>
   <g id="line2d_39">
    <defs>
     <path d="M 0 1.5 
C 0.397805 1.5 0.77937 1.341951 1.06066 1.06066 
C 1.341951 0.77937 1.5 0.397805 1.5 0 
C 1.5 -0.397805 1.341951 -0.77937 1.06066 -1.06066 
C 0.77937 -1.341951 0.397805 -1.5 0 -1.5 
C -0.397805 -1.5 -0.77937 -1.341951 -1.06066 -1.06066 
C -1.341951 -0.77937 -1.5 -0.397805 -1.5 0 
C -1.5 0.397805 -1.341951 0.77937 -1.06066 1.06066 
C -0.77937 1.341951 -0.397805 1.5 0 1.5 
z
" id="m8ca7a46db9" style="stroke:#ff00ff;"/>
    </defs>
    <g>
     <use style="fill:#ff00ff;stroke:#ff00ff;" x="211.230644" xlink:href="#m8ca7a46db9" y="193.606784"/>
     <use style="fill:#ff00ff;stroke:#ff00ff;" x="211.230644" xlink:href="#m8ca7a46db9" y="193.606784"/>
    </g>
   </g>
   <g id="line2d_40">
    <path d="M 5.356583 298.944 
L 5.356583 298.417314 
L 17.444571 298.417314 
L 17.444571 295.783884 
L 24.515591 295.783884 
L 24.515591 294.730511 
L 29.53256 294.730511 
L 29.53256 293.677139 
L 33.424023 293.677139 
L 33.424023 292.623767 
L 45.512012 292.623767 
L 45.512012 292.097081 
L 47.174153 292.097081 
L 47.174153 291.570395 
L 54.765787 291.570395 
L 54.765787 291.043709 
L 58.450865 291.043709 
L 58.450865 290.517023 
L 60.037348 290.517023 
L 60.037348 289.990337 
L 61.491463 289.990337 
L 61.491463 288.410278 
L 62.833608 288.410278 
L 62.833608 287.356906 
L 66.333161 287.356906 
L 66.333161 286.83022 
L 75.86449 286.83022 
L 75.86449 286.303534 
L 79.938565 286.303534 
L 79.938565 285.776848 
L 83.037197 285.776848 
L 83.037197 285.250162 
L 85.136253 285.250162 
L 85.136253 284.723476 
L 89.277618 284.723476 
L 89.277618 284.19679 
L 91.782644 284.19679 
L 91.782644 283.670104 
L 91.905025 283.670104 
L 91.905025 283.143418 
L 94.187924 283.143418 
L 94.187924 282.616732 
L 96.676366 282.616732 
L 96.676366 282.090045 
L 97.491858 282.090045 
L 97.491858 281.563359 
L 99.731799 281.563359 
L 99.731799 281.036673 
L 102.397818 281.036673 
L 102.397818 280.509987 
L 103.053508 280.509987 
L 103.053508 279.983301 
L 106.222336 279.983301 
L 106.222336 279.456615 
L 106.541356 279.456615 
L 106.541356 278.929929 
L 107.314272 278.929929 
L 107.314272 278.403243 
L 107.712901 278.403243 
L 107.712901 277.876557 
L 110.316522 277.876557 
L 110.316522 277.349871 
L 111.30625 277.349871 
L 111.30625 276.823185 
L 111.702614 276.823185 
L 111.702614 276.296499 
L 112.877038 276.296499 
L 112.877038 275.769812 
L 114.080224 275.769812 
L 114.080224 275.243126 
L 114.485807 275.243126 
L 114.485807 274.71644 
L 115.4287 274.71644 
L 115.4287 274.189754 
L 115.958621 274.189754 
L 115.958621 273.663068 
L 116.768501 273.663068 
L 116.768501 273.136382 
L 119.577783 273.136382 
L 119.62761 272.08301 
L 120.642369 272.08301 
L 120.642369 271.556324 
L 120.829137 271.556324 
L 120.829137 271.029638 
L 120.944859 271.029638 
L 120.944859 270.502952 
L 122.018385 270.502952 
L 122.018385 269.976266 
L 122.44689 269.976266 
L 122.44689 269.449579 
L 123.152022 269.449579 
L 123.152022 268.396207 
L 123.751369 268.396207 
L 123.751369 267.869521 
L 124.311793 267.869521 
L 124.311793 267.342835 
L 125.717918 267.342835 
L 125.717918 266.816149 
L 126.855481 266.816149 
L 126.855481 266.289463 
L 127.309739 266.289463 
L 127.309739 265.236091 
L 127.892415 265.236091 
L 127.892415 264.709405 
L 128.590686 264.709405 
L 128.590686 264.182719 
L 128.841828 264.182719 
L 128.841828 263.656033 
L 128.987887 263.656033 
L 128.987887 263.129347 
L 129.560187 263.129347 
L 129.560187 262.60266 
L 129.686407 262.60266 
L 129.686407 262.075974 
L 130.505303 262.075974 
L 130.505303 261.549288 
L 130.65135 261.549288 
L 130.7305 260.495916 
L 131.427132 260.495916 
L 131.490249 259.442544 
L 131.553138 259.442544 
L 131.553138 258.915858 
L 131.765283 258.915858 
L 131.765283 258.389172 
L 132.157744 258.389172 
L 132.157744 257.862486 
L 132.434469 257.862486 
L 132.517825 256.809114 
L 132.742089 256.809114 
L 132.742089 256.282427 
L 133.589045 256.282427 
L 133.589045 255.755741 
L 134.225266 255.755741 
L 134.225266 255.229055 
L 134.492498 255.229055 
L 134.492498 254.702369 
L 135.341343 254.702369 
L 135.341343 254.175683 
L 135.740886 254.175683 
L 135.740886 253.122311 
L 136.092812 253.122311 
L 136.092812 252.595625 
L 136.380754 252.595625 
L 136.380754 252.068939 
L 136.560688 252.068939 
L 136.635898 251.015567 
L 137.226179 251.015567 
L 137.289545 249.435508 
L 137.68266 249.435508 
L 137.68266 248.908822 
L 138.264747 248.908822 
L 138.264747 248.382136 
L 138.745106 248.382136 
L 138.852833 247.328764 
L 139.066311 247.328764 
L 139.066311 246.802078 
L 139.293324 246.802078 
L 139.293324 246.275392 
L 139.445704 246.275392 
L 139.445704 245.748706 
L 139.557137 245.748706 
L 139.557137 245.22202 
L 139.926112 245.22202 
L 139.926112 244.695334 
L 140.080785 244.695334 
L 140.11924 243.115275 
L 140.633978 243.115275 
L 140.64889 242.061903 
L 141.119455 242.061903 
L 141.227931 241.008531 
L 141.299876 241.008531 
L 141.299876 240.481845 
L 141.577657 240.481845 
L 141.577657 239.955159 
L 142.432559 239.955159 
L 142.432559 239.428473 
L 142.719495 239.428473 
L 142.792145 238.375101 
L 142.857929 238.375101 
L 142.857929 237.848415 
L 142.988757 237.848415 
L 142.988757 237.321729 
L 143.381826 237.321729 
L 143.381826 236.795043 
L 143.49614 236.795043 
L 143.49614 236.268356 
L 143.853271 236.268356 
L 143.884252 234.688298 
L 144.056737 234.688298 
L 144.160633 233.10824 
L 144.178904 233.10824 
L 144.178904 232.054868 
L 144.647343 232.054868 
L 144.647343 231.528182 
L 144.788982 231.528182 
L 144.788982 231.001496 
L 145.103527 231.001496 
L 145.103527 230.47481 
L 145.252974 230.47481 
L 145.252974 229.948123 
L 145.503004 229.948123 
L 145.503004 229.421437 
L 145.981585 229.421437 
L 145.981585 228.894751 
L 146.388493 228.894751 
L 146.415286 227.841379 
L 146.723108 227.841379 
L 146.723108 227.314693 
L 147.277111 227.314693 
L 147.277111 226.788007 
L 147.479778 226.788007 
L 147.479778 226.261321 
L 147.675136 226.261321 
L 147.675136 225.734635 
L 148.117781 225.734635 
L 148.117781 225.207949 
L 148.368502 225.207949 
L 148.368502 224.681263 
L 148.525764 224.681263 
L 148.525764 224.154577 
L 148.87334 224.154577 
L 148.87334 223.627891 
L 149.099738 223.627891 
L 149.099738 223.101204 
L 149.309632 223.101204 
L 149.309632 222.574518 
L 149.659866 222.574518 
L 149.659866 222.047832 
L 150.429467 222.047832 
L 150.429467 221.521146 
L 150.911883 221.521146 
L 150.911883 220.99446 
L 151.421542 220.99446 
L 151.421542 220.467774 
L 151.905007 220.467774 
L 151.905007 219.414402 
L 152.214909 219.414402 
L 152.214909 218.887716 
L 153.116529 218.887716 
L 153.116529 218.36103 
L 153.809903 218.36103 
L 153.809903 217.834344 
L 159.257749 217.834344 
L 159.257749 217.307658 
L 160.164441 217.307658 
L 160.164441 216.780971 
L 160.358079 216.780971 
L 160.358079 216.254285 
L 160.585265 216.254285 
L 160.585265 215.727599 
L 160.77196 215.727599 
L 160.877419 214.674227 
L 161.415753 214.674227 
L 161.415753 214.147541 
L 161.790035 214.147541 
L 161.790035 213.620855 
L 162.02569 213.620855 
L 162.02569 213.094169 
L 163.146135 213.094169 
L 163.146135 212.567483 
L 163.329794 212.567483 
L 163.435034 211.514111 
L 163.683455 211.514111 
L 163.746993 210.460738 
L 164.285611 210.460738 
L 164.333587 209.407366 
L 164.787563 209.407366 
L 164.787563 208.88068 
L 165.013882 208.88068 
L 165.013882 207.827308 
L 169.318426 207.827308 
L 169.318426 207.300622 
L 170.072271 207.300622 
L 170.072271 206.773936 
L 170.299701 206.773936 
L 170.299701 206.24725 
L 170.97127 206.24725 
L 170.97127 205.720564 
L 171.395661 205.720564 
L 171.395661 205.193878 
L 172.412336 205.193878 
L 172.412336 204.667192 
L 172.795186 204.667192 
L 172.795186 204.140506 
L 175.549233 204.140506 
L 175.549233 203.613819 
L 176.468464 203.613819 
L 176.468464 203.087133 
L 176.956585 203.087133 
L 176.956585 202.560447 
L 177.122133 202.560447 
L 177.122133 202.033761 
L 177.48108 202.033761 
L 177.590744 200.980389 
L 177.662282 200.980389 
L 177.662282 199.927017 
L 177.876036 199.927017 
L 177.876036 198.873645 
L 180.577782 198.873645 
L 180.577782 198.346959 
L 181.20656 198.346959 
L 181.20656 197.820273 
L 181.578358 197.820273 
L 181.578358 196.7669 
L 184.513584 196.7669 
L 184.513584 196.240214 
L 189.953442 196.240214 
L 189.953442 195.713528 
L 195.306958 195.713528 
L 195.306958 195.186842 
L 199.77902 195.186842 
L 199.77902 194.660156 
L 205.117628 194.660156 
L 205.117628 194.13347 
L 211.230644 194.13347 
L 211.230644 193.606784 
L 338.688 193.606784 
L 338.688 193.606784 
" style="fill:none;stroke:#ff00ff;stroke-linecap:square;stroke-width:1.5;"/>
   </g>
   <g id="line2d_41">
    <defs>
     <path d="M -0 8.485281 
L 5.091169 0 
L 0 -8.485281 
L -5.091169 -0 
z
" id="m7b2498ede9" style="stroke:#ff00ff;stroke-linejoin:miter;stroke-width:1.5;"/>
    </defs>
    <g>
     <use style="fill-opacity:0;stroke:#ff00ff;stroke-linejoin:miter;stroke-width:1.5;" x="61.491463" xlink:href="#m7b2498ede9" y="288.410278"/>
     <use style="fill-opacity:0;stroke:#ff00ff;stroke-linejoin:miter;stroke-width:1.5;" x="139.926112" xlink:href="#m7b2498ede9" y="244.695334"/>
     <use style="fill-opacity:0;stroke:#ff00ff;stroke-linejoin:miter;stroke-width:1.5;" x="184.513584" xlink:href="#m7b2498ede9" y="196.7669"/>
     <use style="fill-opacity:0;stroke:#ff00ff;stroke-linejoin:miter;stroke-width:1.5;" x="211.230644" xlink:href="#m7b2498ede9" y="194.13347"/>
     <use style="fill-opacity:0;stroke:#ff00ff;stroke-linejoin:miter;stroke-width:1.5;" x="211.230644" xlink:href="#m7b2498ede9" y="193.606784"/>
     <use style="fill-opacity:0;stroke:#ff00ff;stroke-linejoin:miter;stroke-width:1.5;" x="338.688" xlink:href="#m7b2498ede9" y="193.606784"/>
    </g>
   </g>
   <g id="line2d_42">
    <path style="fill:none;stroke:#ff00ff;stroke-linecap:square;stroke-width:1.5;"/>
    <g/>
   </g>
   <g id="line2d_43">
    <path clip-path="url(#pc27da9b055)" d="M 153.890309 217.834344 
" style="fill:none;stroke:#ff00ff;stroke-linecap:square;stroke-width:1.5;"/>
    <defs>
     <path d="M -12 12 
L 12 -12 
M -12 -12 
L 12 12 
" id="m7fcb514544" style="stroke:#ff00ff;"/>
    </defs>
    <g clip-path="url(#pc27da9b055)">
     <use style="fill:#ff00ff;stroke:#ff00ff;" x="153.890309" xlink:href="#m7fcb514544" y="217.834344"/>
    </g>
   </g>
   <g id="line2d_44">
    <defs>
     <path d="M 0 1.5 
C 0.397805 1.5 0.77937 1.341951 1.06066 1.06066 
C 1.341951 0.77937 1.5 0.397805 1.5 0 
C 1.5 -0.397805 1.341951 -0.77937 1.06066 -1.06066 
C 0.77937 -1.341951 0.397805 -1.5 0 -1.5 
C -0.397805 -1.5 -0.77937 -1.341951 -1.06066 -1.06066 
C -1.341951 -0.77937 -1.5 -0.397805 -1.5 0 
C -1.5 0.397805 -1.341951 0.77937 -1.06066 1.06066 
C -0.77937 1.341951 -0.397805 1.5 0 1.5 
z
" id="mefea72fea6" style="stroke:#ff7500;"/>
    </defs>
    <g>
     <use style="fill:#ff7500;stroke:#ff7500;" x="181.914446" xlink:href="#mefea72fea6" y="193.606784"/>
     <use style="fill:#ff7500;stroke:#ff7500;" x="181.914446" xlink:href="#mefea72fea6" y="193.606784"/>
    </g>
   </g>
   <g id="line2d_45">
    <path d="M 5.356583 298.944 
L 5.356583 298.417314 
L 17.444571 298.417314 
L 17.444571 296.31057 
L 24.515591 296.31057 
L 24.515591 293.677139 
L 33.424023 293.677139 
L 33.424023 292.623767 
L 45.512012 292.623767 
L 45.512012 291.570395 
L 54.765787 291.570395 
L 54.765787 291.043709 
L 55.762588 291.043709 
L 55.762588 290.517023 
L 58.450865 290.517023 
L 58.450865 289.990337 
L 60.037348 289.990337 
L 60.037348 289.463651 
L 61.491463 289.463651 
L 61.491463 288.936964 
L 62.175444 288.936964 
L 62.175444 288.410278 
L 62.833608 288.410278 
L 62.833608 287.356906 
L 66.333161 287.356906 
L 66.333161 286.303534 
L 70.949209 286.303534 
L 70.949209 285.250162 
L 76.465904 285.250162 
L 76.465904 284.723476 
L 77.330839 284.723476 
L 77.330839 284.19679 
L 82.417986 284.19679 
L 82.417986 283.670104 
L 84.955534 283.670104 
L 84.955534 283.143418 
L 85.492169 283.143418 
L 85.492169 282.616732 
L 87.170317 282.616732 
L 87.170317 282.090045 
L 89.135256 282.090045 
L 89.135256 281.563359 
L 91.659398 281.563359 
L 91.659398 281.036673 
L 97.403108 281.036673 
L 97.403108 280.509987 
L 97.842408 280.509987 
L 97.842408 279.983301 
L 98.689141 279.983301 
L 98.689141 279.456615 
L 99.496659 279.456615 
L 99.496659 278.929929 
L 100.418775 278.929929 
L 100.418775 278.403243 
L 103.993014 278.403243 
L 103.993014 277.876557 
L 104.23523 277.876557 
L 104.295262 276.823185 
L 104.474128 276.823185 
L 104.474128 276.296499 
L 104.651178 276.296499 
L 104.651178 275.769812 
L 105.114708 275.769812 
L 105.114708 275.243126 
L 105.677314 275.243126 
L 105.787689 274.189754 
L 108.341848 274.189754 
L 108.341848 273.663068 
L 110.188761 273.663068 
L 110.188761 273.136382 
L 111.584648 273.136382 
L 111.624059 272.08301 
L 111.74176 272.08301 
L 111.74176 271.556324 
L 111.858671 271.556324 
L 111.858671 271.029638 
L 112.242812 271.029638 
L 112.242812 270.502952 
L 114.585746 270.502952 
L 114.585746 269.976266 
L 115.0447 269.976266 
L 115.0447 269.449579 
L 116.472913 269.449579 
L 116.472913 268.922893 
L 116.827022 268.922893 
L 116.827022 268.396207 
L 116.943478 268.396207 
L 117.030313 266.816149 
L 117.087964 266.816149 
L 117.174084 265.236091 
L 117.542433 265.236091 
L 117.542433 264.709405 
L 119.351785 264.709405 
L 119.351785 264.182719 
L 120.759333 264.182719 
L 120.759333 263.656033 
L 121.264855 263.656033 
L 121.264855 263.129347 
L 121.909593 263.129347 
L 121.909593 262.60266 
L 122.657258 262.60266 
L 122.657258 262.075974 
L 122.865118 262.075974 
L 122.865118 261.549288 
L 124.500941 261.549288 
L 124.500941 261.022602 
L 124.650796 261.022602 
L 124.650796 260.495916 
L 125.147256 260.495916 
L 125.147256 259.442544 
L 125.875108 259.442544 
L 125.961828 257.862486 
L 126.030894 257.862486 
L 126.030894 257.3358 
L 127.067859 257.3358 
L 127.067859 256.809114 
L 127.325746 256.809114 
L 127.389626 255.755741 
L 127.437383 255.755741 
L 127.437383 255.229055 
L 127.5641 255.229055 
L 127.5641 254.702369 
L 128.516128 254.702369 
L 128.60556 253.648997 
L 128.958773 253.648997 
L 128.958773 253.122311 
L 129.616397 253.122311 
L 129.616397 252.595625 
L 129.825588 252.595625 
L 129.825588 252.068939 
L 130.004878 252.068939 
L 130.004878 251.542253 
L 130.411722 251.542253 
L 130.411722 251.015567 
L 130.677773 251.015567 
L 130.76994 249.962195 
L 130.822389 249.962195 
L 130.822389 249.435508 
L 131.678241 249.435508 
L 131.678241 248.908822 
L 131.814826 248.908822 
L 131.82719 247.85545 
L 132.254495 247.85545 
L 132.254495 247.328764 
L 132.517825 247.328764 
L 132.517825 246.802078 
L 132.951923 246.802078 
L 132.951923 246.275392 
L 133.284766 246.275392 
L 133.284766 245.748706 
L 133.611375 245.748706 
L 133.700407 244.695334 
L 133.788988 244.695334 
L 133.788988 244.168648 
L 133.953874 244.168648 
L 133.953874 243.641962 
L 134.682402 243.641962 
L 134.682402 243.115275 
L 134.807865 243.115275 
L 134.807865 242.588589 
L 135.321124 242.588589 
L 135.401861 241.535217 
L 135.472201 241.535217 
L 135.472201 241.008531 
L 135.612036 241.008531 
L 135.721125 239.428473 
L 136.579521 239.428473 
L 136.579521 238.901787 
L 136.729457 238.901787 
L 136.729457 238.375101 
L 136.988781 238.375101 
L 136.988781 237.848415 
L 137.307607 237.848415 
L 137.352682 236.795043 
L 137.971788 236.795043 
L 137.971788 236.268356 
L 138.33297 236.268356 
L 138.33297 235.74167 
L 138.477062 235.74167 
L 138.477062 235.214984 
L 139.115206 235.214984 
L 139.115206 234.688298 
L 139.738675 234.688298 
L 139.738675 234.161612 
L 140.065379 234.161612 
L 140.088482 233.10824 
L 140.47663 233.10824 
L 140.47663 232.581554 
L 140.819464 232.581554 
L 140.878406 231.528182 
L 141.641136 231.528182 
L 141.641136 231.001496 
L 141.774395 231.001496 
L 141.774395 230.47481 
L 142.161336 230.47481 
L 142.161336 229.421437 
L 142.472881 229.421437 
L 142.566605 228.368065 
L 143.298796 228.368065 
L 143.343554 227.314693 
L 143.697534 227.314693 
L 143.697534 226.788007 
L 143.915178 226.788007 
L 143.915178 226.261321 
L 144.087359 226.261321 
L 144.142344 224.681263 
L 144.348513 224.681263 
L 144.348513 224.154577 
L 145.355693 224.154577 
L 145.355693 223.627891 
L 145.531191 223.627891 
L 145.604265 222.574518 
L 145.682619 222.574518 
L 145.682619 222.047832 
L 145.976095 222.047832 
L 145.976095 221.521146 
L 146.367029 221.521146 
L 146.367029 220.99446 
L 146.617575 220.99446 
L 146.696785 219.414402 
L 146.807077 219.414402 
L 146.807077 218.887716 
L 147.600257 218.887716 
L 147.6552 217.307658 
L 147.799224 217.307658 
L 147.799224 216.780971 
L 148.044783 216.780971 
L 148.044783 216.254285 
L 148.373289 216.254285 
L 148.444928 214.674227 
L 148.76605 214.674227 
L 148.76605 214.147541 
L 149.300559 214.147541 
L 149.309632 213.094169 
L 149.485628 213.094169 
L 149.494606 212.040797 
L 149.633173 212.040797 
L 149.633173 211.514111 
L 149.83238 211.514111 
L 149.937701 209.934052 
L 150.301393 209.934052 
L 150.318524 208.88068 
L 150.594569 208.88068 
L 150.594569 208.353994 
L 150.749772 208.353994 
L 150.858013 207.300622 
L 150.882897 207.300622 
L 150.882897 206.773936 
L 151.272229 206.773936 
L 151.272229 206.24725 
L 151.469695 206.24725 
L 151.545665 205.193878 
L 151.62925 205.193878 
L 151.63719 204.140506 
L 152.052897 204.140506 
L 152.052897 203.613819 
L 152.222586 203.613819 
L 152.310635 202.560447 
L 152.511852 202.560447 
L 152.511852 202.033761 
L 152.744329 202.033761 
L 152.8372 200.980389 
L 153.039792 200.980389 
L 153.039792 200.453703 
L 153.341134 200.453703 
L 153.359122 199.400331 
L 153.690359 199.400331 
L 153.725604 198.346959 
L 161.756743 198.346959 
L 161.756743 197.820273 
L 162.825228 197.820273 
L 162.825228 197.293586 
L 164.53934 197.293586 
L 164.53934 196.7669 
L 165.558223 196.7669 
L 165.558223 196.240214 
L 165.896139 196.240214 
L 165.896139 195.713528 
L 172.705299 195.713528 
L 172.792827 194.660156 
L 172.868174 194.660156 
L 172.868174 194.13347 
L 181.914446 194.13347 
L 181.914446 193.606784 
L 338.688 193.606784 
L 338.688 193.606784 
" style="fill:none;stroke:#ff7500;stroke-linecap:square;stroke-width:1.5;"/>
   </g>
   <g id="line2d_46">
    <defs>
     <path d="M 0 -6 
L -1.347084 -1.854102 
L -5.706339 -1.854102 
L -2.179628 0.708204 
L -3.526712 4.854102 
L -0 2.291796 
L 3.526712 4.854102 
L 2.179628 0.708204 
L 5.706339 -1.854102 
L 1.347084 -1.854102 
z
" id="m710036c2be" style="stroke:#ff7500;stroke-linejoin:bevel;stroke-width:1.5;"/>
    </defs>
    <g>
     <use style="fill-opacity:0;stroke:#ff7500;stroke-linejoin:bevel;stroke-width:1.5;" x="89.135256" xlink:href="#m710036c2be" y="282.090045"/>
     <use style="fill-opacity:0;stroke:#ff7500;stroke-linejoin:bevel;stroke-width:1.5;" x="140.47663" xlink:href="#m710036c2be" y="233.10824"/>
     <use style="fill-opacity:0;stroke:#ff7500;stroke-linejoin:bevel;stroke-width:1.5;" x="181.914446" xlink:href="#m710036c2be" y="194.13347"/>
     <use style="fill-opacity:0;stroke:#ff7500;stroke-linejoin:bevel;stroke-width:1.5;" x="181.914446" xlink:href="#m710036c2be" y="193.606784"/>
     <use style="fill-opacity:0;stroke:#ff7500;stroke-linejoin:bevel;stroke-width:1.5;" x="181.914446" xlink:href="#m710036c2be" y="193.606784"/>
     <use style="fill-opacity:0;stroke:#ff7500;stroke-linejoin:bevel;stroke-width:1.5;" x="338.688" xlink:href="#m710036c2be" y="193.606784"/>
    </g>
   </g>
   <g id="line2d_47">
    <path style="fill:none;stroke:#ff7500;stroke-linecap:square;stroke-width:1.5;"/>
    <g/>
   </g>
   <g id="line2d_48">
    <path clip-path="url(#pc27da9b055)" d="M 153.890309 198.346959 
" style="fill:none;stroke:#ff7500;stroke-linecap:square;stroke-width:1.5;"/>
    <defs>
     <path d="M -12 12 
L 12 -12 
M -12 -12 
L 12 12 
" id="m72253a45dd" style="stroke:#ff7500;"/>
    </defs>
    <g clip-path="url(#pc27da9b055)">
     <use style="fill:#ff7500;stroke:#ff7500;" x="153.890309" xlink:href="#m72253a45dd" y="198.346959"/>
    </g>
   </g>
   <g id="line2d_49">
    <defs>
     <path d="M 0 1.5 
C 0.397805 1.5 0.77937 1.341951 1.06066 1.06066 
C 1.341951 0.77937 1.5 0.397805 1.5 0 
C 1.5 -0.397805 1.341951 -0.77937 1.06066 -1.06066 
C 0.77937 -1.341951 0.397805 -1.5 0 -1.5 
C -0.397805 -1.5 -0.77937 -1.341951 -1.06066 -1.06066 
C -1.341951 -0.77937 -1.5 -0.397805 -1.5 0 
C -1.5 0.397805 -1.341951 0.77937 -1.06066 1.06066 
C -0.77937 1.341951 -0.397805 1.5 0 1.5 
z
" id="m18cae5064c" style="stroke:#6495ed;"/>
    </defs>
    <g>
     <use style="fill:#6495ed;stroke:#6495ed;" x="210.532951" xlink:href="#m18cae5064c" y="219.941088"/>
     <use style="fill:#6495ed;stroke:#6495ed;" x="210.532951" xlink:href="#m18cae5064c" y="219.941088"/>
    </g>
   </g>
   <g id="line2d_50">
    <path d="M 5.356583 298.944 
L 5.356583 298.417314 
L 17.444571 298.417314 
L 17.444571 295.783884 
L 24.515591 295.783884 
L 24.515591 293.150453 
L 29.53256 293.150453 
L 29.53256 292.623767 
L 33.424023 292.623767 
L 33.424023 291.570395 
L 45.512012 291.570395 
L 45.512012 291.043709 
L 47.174153 291.043709 
L 47.174153 290.517023 
L 50.087456 290.517023 
L 50.087456 289.990337 
L 54.765787 289.990337 
L 54.765787 289.463651 
L 58.450865 289.463651 
L 58.450865 288.936964 
L 60.037348 288.936964 
L 60.037348 288.410278 
L 61.491463 288.410278 
L 61.491463 287.883592 
L 62.833608 287.883592 
L 62.833608 286.83022 
L 66.333161 286.83022 
L 66.333161 285.776848 
L 70.949209 285.776848 
L 70.949209 285.250162 
L 76.465904 285.250162 
L 76.465904 284.723476 
L 78.941764 284.723476 
L 78.941764 284.19679 
L 82.833227 284.19679 
L 82.833227 283.670104 
L 84.02273 283.670104 
L 84.02273 283.143418 
L 85.136253 283.143418 
L 85.136253 282.616732 
L 85.840967 282.616732 
L 85.840967 282.090045 
L 88.991722 282.090045 
L 88.991722 281.036673 
L 89.135256 281.036673 
L 89.135256 280.509987 
L 89.697862 280.509987 
L 89.697862 279.983301 
L 90.242884 279.983301 
L 90.242884 279.456615 
L 90.901048 279.456615 
L 90.901048 278.929929 
L 93.083804 278.929929 
L 93.083804 278.403243 
L 94.400601 278.403243 
L 94.400601 277.876557 
L 94.921215 277.876557 
L 94.921215 277.349871 
L 95.326798 277.349871 
L 95.326798 276.823185 
L 97.928955 276.823185 
L 97.928955 276.296499 
L 98.935347 276.296499 
L 98.935347 275.769812 
L 99.731799 275.769812 
L 99.731799 275.243126 
L 101.007498 275.243126 
L 101.007498 274.189754 
L 101.223245 274.189754 
L 101.223245 273.663068 
L 101.646892 273.663068 
L 101.646892 273.136382 
L 101.854917 273.136382 
L 101.854917 272.08301 
L 101.992235 272.08301 
L 101.992235 271.556324 
L 104.053884 271.556324 
L 104.053884 271.029638 
L 104.355088 271.029638 
L 104.355088 270.502952 
L 105.398279 270.502952 
L 105.398279 269.976266 
L 106.382575 269.976266 
L 106.382575 269.449579 
L 106.541356 269.449579 
L 106.541356 268.922893 
L 107.111487 268.922893 
L 107.111487 268.396207 
L 107.564481 268.396207 
L 107.564481 267.869521 
L 108.150731 267.869521 
L 108.150731 267.342835 
L 108.530893 267.342835 
L 108.530893 266.816149 
L 108.764355 266.816149 
L 108.764355 266.289463 
L 108.994731 266.289463 
L 108.994731 265.762777 
L 110.274038 265.762777 
L 110.274038 265.236091 
L 110.694282 265.236091 
L 110.694282 264.709405 
L 113.311233 264.709405 
L 113.311233 263.656033 
L 113.804498 263.656033 
L 113.804498 263.129347 
L 114.114385 263.129347 
L 114.114385 262.60266 
L 114.351658 262.60266 
L 114.351658 262.075974 
L 116.502698 262.075974 
L 116.502698 261.549288 
L 117.202696 261.549288 
L 117.202696 261.022602 
L 118.310324 261.022602 
L 118.310324 260.495916 
L 118.681952 260.495916 
L 118.681952 259.96923 
L 119.677294 259.96923 
L 119.677294 259.442544 
L 119.972465 259.442544 
L 119.972465 258.915858 
L 120.310634 258.915858 
L 120.358413 257.862486 
L 122.510267 257.862486 
L 122.510267 257.3358 
L 123.613353 257.3358 
L 123.633136 256.282427 
L 123.751369 256.282427 
L 123.751369 255.755741 
L 124.082074 255.755741 
L 124.082074 255.229055 
L 124.946698 255.229055 
L 124.946698 254.702369 
L 125.183475 254.702369 
L 125.183475 254.175683 
L 126.70692 254.175683 
L 126.78961 253.122311 
L 127.197279 253.122311 
L 127.213389 252.068939 
L 127.325746 252.068939 
L 127.325746 251.542253 
L 127.500856 251.542253 
L 127.500856 251.015567 
L 128.45625 251.015567 
L 128.45625 250.488881 
L 128.650105 250.488881 
L 128.650105 249.962195 
L 129.002426 249.962195 
L 129.074938 248.908822 
L 130.182344 248.908822 
L 130.182344 248.382136 
L 130.677773 248.382136 
L 130.704156 247.328764 
L 130.822389 247.328764 
L 130.822389 246.802078 
L 131.790072 246.802078 
L 131.790072 246.275392 
L 131.950349 246.275392 
L 131.950349 245.748706 
L 132.206187 245.748706 
L 132.206187 245.22202 
L 134.922085 245.22202 
L 135.004687 243.641962 
L 135.371629 243.641962 
L 135.421987 242.588589 
L 136.494612 242.588589 
L 136.494612 242.061903 
L 136.850337 242.061903 
L 136.850337 241.535217 
L 138.976312 241.535217 
L 139.000903 240.481845 
L 140.521732 240.481845 
L 140.53674 239.428473 
L 140.826843 239.428473 
L 140.826843 238.901787 
L 141.126708 238.901787 
L 141.126708 238.375101 
L 141.506851 238.375101 
L 141.506851 237.848415 
L 141.697369 237.848415 
L 141.697369 237.321729 
L 141.837164 237.321729 
L 141.837164 236.795043 
L 142.290693 236.795043 
L 142.290693 236.268356 
L 143.65995 236.268356 
L 143.65995 235.74167 
L 145.287281 235.74167 
L 145.287281 235.214984 
L 147.056585 235.214984 
L 147.149238 234.161612 
L 147.804169 234.161612 
L 147.804169 233.634926 
L 148.606228 233.634926 
L 148.606228 233.10824 
L 159.030659 233.10824 
L 159.030659 232.581554 
L 162.106442 232.581554 
L 162.210648 231.001496 
L 162.894047 231.001496 
L 162.894047 230.47481 
L 164.677051 230.47481 
L 164.677051 229.948123 
L 170.183616 229.948123 
L 170.183616 229.421437 
L 171.459457 229.421437 
L 171.459457 228.894751 
L 175.360852 228.894751 
L 175.360852 228.368065 
L 175.962352 228.368065 
L 175.962352 227.841379 
L 176.887684 227.841379 
L 176.887684 227.314693 
L 180.295399 227.314693 
L 180.295399 226.788007 
L 180.546799 226.788007 
L 180.546799 226.261321 
L 181.448841 226.261321 
L 181.448841 225.734635 
L 186.437956 225.734635 
L 186.437956 225.207949 
L 189.134016 225.207949 
L 189.134016 224.681263 
L 189.574928 224.681263 
L 189.574928 224.154577 
L 189.837952 224.154577 
L 189.837952 223.627891 
L 191.69431 223.627891 
L 191.69431 223.101204 
L 193.79314 223.101204 
L 193.79314 222.574518 
L 195.288454 222.574518 
L 195.288454 222.047832 
L 198.266944 222.047832 
L 198.266944 221.521146 
L 205.904292 221.521146 
L 205.904292 220.99446 
L 209.122298 220.99446 
L 209.122298 220.467774 
L 210.532951 220.467774 
L 210.532951 219.941088 
L 338.688 219.941088 
L 338.688 219.941088 
" style="fill:none;stroke:#6495ed;stroke-linecap:square;stroke-width:1.5;"/>
   </g>
   <g id="line2d_51">
    <defs>
     <path d="M -0 6 
L 6 -6 
L -6 -6 
z
" id="m60fa452372" style="stroke:#6495ed;stroke-linejoin:miter;stroke-width:1.5;"/>
    </defs>
    <g>
     <use style="fill-opacity:0;stroke:#6495ed;stroke-linejoin:miter;stroke-width:1.5;" x="116.502698" xlink:href="#m60fa452372" y="261.549288"/>
     <use style="fill-opacity:0;stroke:#6495ed;stroke-linejoin:miter;stroke-width:1.5;" x="170.183616" xlink:href="#m60fa452372" y="229.421437"/>
     <use style="fill-opacity:0;stroke:#6495ed;stroke-linejoin:miter;stroke-width:1.5;" x="210.532951" xlink:href="#m60fa452372" y="220.467774"/>
     <use style="fill-opacity:0;stroke:#6495ed;stroke-linejoin:miter;stroke-width:1.5;" x="210.532951" xlink:href="#m60fa452372" y="219.941088"/>
     <use style="fill-opacity:0;stroke:#6495ed;stroke-linejoin:miter;stroke-width:1.5;" x="210.532951" xlink:href="#m60fa452372" y="219.941088"/>
     <use style="fill-opacity:0;stroke:#6495ed;stroke-linejoin:miter;stroke-width:1.5;" x="338.688" xlink:href="#m60fa452372" y="219.941088"/>
    </g>
   </g>
   <g id="line2d_52">
    <path style="fill:none;stroke:#6495ed;stroke-linecap:square;stroke-width:1.5;"/>
    <g/>
   </g>
   <g id="line2d_53">
    <path clip-path="url(#pc27da9b055)" d="M 153.890309 233.10824 
" style="fill:none;stroke:#6495ed;stroke-linecap:square;stroke-width:1.5;"/>
    <defs>
     <path d="M -12 12 
L 12 -12 
M -12 -12 
L 12 12 
" id="m9f87685fbf" style="stroke:#6495ed;"/>
    </defs>
    <g clip-path="url(#pc27da9b055)">
     <use style="fill:#6495ed;stroke:#6495ed;" x="153.890309" xlink:href="#m9f87685fbf" y="233.10824"/>
    </g>
   </g>
   <g id="line2d_54">
    <path d="M 338.688 219.941088 
L 369.60768 293.571802 
" style="fill:none;stroke:#6495ed;stroke-linecap:square;stroke-width:1.5;"/>
    <g>
     <use style="fill-opacity:0;stroke:#6495ed;stroke-linejoin:miter;stroke-width:1.5;" x="338.688" xlink:href="#m60fa452372" y="219.941088"/>
     <use style="fill-opacity:0;stroke:#6495ed;stroke-linejoin:miter;stroke-width:1.5;" x="369.60768" xlink:href="#m60fa452372" y="293.571802"/>
    </g>
   </g>
   <g id="line2d_55">
    <path d="M 338.688 193.606784 
L 369.60768 229.105426 
" style="fill:none;stroke:#ff00ff;stroke-linecap:square;stroke-width:1.5;"/>
    <g>
     <use style="fill-opacity:0;stroke:#ff00ff;stroke-linejoin:miter;stroke-width:1.5;" x="338.688" xlink:href="#m7b2498ede9" y="193.606784"/>
     <use style="fill-opacity:0;stroke:#ff00ff;stroke-linejoin:miter;stroke-width:1.5;" x="369.60768" xlink:href="#m7b2498ede9" y="229.105426"/>
    </g>
   </g>
   <g id="line2d_56">
    <path d="M 338.688 193.606784 
L 369.60768 164.63905 
" style="fill:none;stroke:#ff7500;stroke-linecap:square;stroke-width:1.5;"/>
    <g>
     <use style="fill-opacity:0;stroke:#ff7500;stroke-linejoin:bevel;stroke-width:1.5;" x="338.688" xlink:href="#m710036c2be" y="193.606784"/>
     <use style="fill-opacity:0;stroke:#ff7500;stroke-linejoin:bevel;stroke-width:1.5;" x="369.60768" xlink:href="#m710036c2be" y="164.63905"/>
    </g>
   </g>
   <g id="line2d_57">
    <path d="M 338.688 146.205037 
L 369.60768 100.172673 
" style="fill:none;stroke:#000080;stroke-linecap:square;stroke-width:1.5;"/>
    <g>
     <use style="fill-opacity:0;stroke:#000080;stroke-width:1.5;" x="338.688" xlink:href="#mc25dff0aef" y="146.205037"/>
     <use style="fill-opacity:0;stroke:#000080;stroke-width:1.5;" x="369.60768" xlink:href="#mc25dff0aef" y="100.172673"/>
    </g>
   </g>
   <g id="line2d_58">
    <path d="M 338.688 298.944 
L 338.688 30.334099 
" style="fill:none;stroke:#000000;stroke-linecap:square;stroke-width:1.5;"/>
   </g>
   <g id="patch_3">
    <path d="M 57.6 298.944 
L 57.6 27.648 
" style="fill:none;stroke:#000000;stroke-linecap:square;stroke-linejoin:miter;stroke-width:0.8;"/>
   </g>
   <g id="patch_4">
    <path d="M 338.688 298.944 
L 338.688 27.648 
" style="fill:none;stroke:#000000;stroke-linecap:square;stroke-linejoin:miter;stroke-width:0.8;"/>
   </g>
   <g id="patch_5">
    <path d="M 57.6 298.944 
L 338.688 298.944 
" style="fill:none;stroke:#000000;stroke-linecap:square;stroke-linejoin:miter;stroke-width:0.8;"/>
   </g>
   <g id="patch_6">
    <path d="M 57.6 27.648 
L 338.688 27.648 
" style="fill:none;stroke:#000000;stroke-linecap:square;stroke-linejoin:miter;stroke-width:0.8;"/>
   </g>
   <g id="text_13">
    <!-- PSO -->
    <defs>
     <path d="M 19.671875 64.796875 
L 19.671875 37.40625 
L 32.078125 37.40625 
Q 38.96875 37.40625 42.71875 40.96875 
Q 46.484375 44.53125 46.484375 51.125 
Q 46.484375 57.671875 42.71875 61.234375 
Q 38.96875 64.796875 32.078125 64.796875 
z
M 9.8125 72.90625 
L 32.078125 72.90625 
Q 44.34375 72.90625 50.609375 67.359375 
Q 56.890625 61.8125 56.890625 51.125 
Q 56.890625 40.328125 50.609375 34.8125 
Q 44.34375 29.296875 32.078125 29.296875 
L 19.671875 29.296875 
L 19.671875 0 
L 9.8125 0 
z
" id="DejaVuSans-80"/>
     <path d="M 53.515625 70.515625 
L 53.515625 60.890625 
Q 47.90625 63.578125 42.921875 64.890625 
Q 37.9375 66.21875 33.296875 66.21875 
Q 25.25 66.21875 20.875 63.09375 
Q 16.5 59.96875 16.5 54.203125 
Q 16.5 49.359375 19.40625 46.890625 
Q 22.3125 44.4375 30.421875 42.921875 
L 36.375 41.703125 
Q 47.40625 39.59375 52.65625 34.296875 
Q 57.90625 29 57.90625 20.125 
Q 57.90625 9.515625 50.796875 4.046875 
Q 43.703125 -1.421875 29.984375 -1.421875 
Q 24.8125 -1.421875 18.96875 -0.25 
Q 13.140625 0.921875 6.890625 3.21875 
L 6.890625 13.375 
Q 12.890625 10.015625 18.65625 8.296875 
Q 24.421875 6.59375 29.984375 6.59375 
Q 38.421875 6.59375 43.015625 9.90625 
Q 47.609375 13.234375 47.609375 19.390625 
Q 47.609375 24.75 44.3125 27.78125 
Q 41.015625 30.8125 33.5 32.328125 
L 27.484375 33.5 
Q 16.453125 35.6875 11.515625 40.375 
Q 6.59375 45.0625 6.59375 53.421875 
Q 6.59375 63.09375 13.40625 68.65625 
Q 20.21875 74.21875 32.171875 74.21875 
Q 37.3125 74.21875 42.625 73.28125 
Q 47.953125 72.359375 53.515625 70.515625 
z
" id="DejaVuSans-83"/>
     <path d="M 39.40625 66.21875 
Q 28.65625 66.21875 22.328125 58.203125 
Q 16.015625 50.203125 16.015625 36.375 
Q 16.015625 22.609375 22.328125 14.59375 
Q 28.65625 6.59375 39.40625 6.59375 
Q 50.140625 6.59375 56.421875 14.59375 
Q 62.703125 22.609375 62.703125 36.375 
Q 62.703125 50.203125 56.421875 58.203125 
Q 50.140625 66.21875 39.40625 66.21875 
z
M 39.40625 74.21875 
Q 54.734375 74.21875 63.90625 63.9375 
Q 73.09375 53.65625 73.09375 36.375 
Q 73.09375 19.140625 63.90625 8.859375 
Q 54.734375 -1.421875 39.40625 -1.421875 
Q 24.03125 -1.421875 14.8125 8.828125 
Q 5.609375 19.09375 5.609375 36.375 
Q 5.609375 53.65625 14.8125 63.9375 
Q 24.03125 74.21875 39.40625 74.21875 
z
" id="DejaVuSans-79"/>
    </defs>
    <g transform="translate(375.22944 298.262739)scale(0.17 -0.17)">
     <use xlink:href="#DejaVuSans-80"/>
     <use x="60.302734" xlink:href="#DejaVuSans-83"/>
     <use x="123.779297" xlink:href="#DejaVuSans-79"/>
    </g>
   </g>
   <g id="text_14">
    <!-- DE -->
    <defs>
     <path d="M 19.671875 64.796875 
L 19.671875 8.109375 
L 31.59375 8.109375 
Q 46.6875 8.109375 53.6875 14.9375 
Q 60.6875 21.78125 60.6875 36.53125 
Q 60.6875 51.171875 53.6875 57.984375 
Q 46.6875 64.796875 31.59375 64.796875 
z
M 9.8125 72.90625 
L 30.078125 72.90625 
Q 51.265625 72.90625 61.171875 64.09375 
Q 71.09375 55.28125 71.09375 36.53125 
Q 71.09375 17.671875 61.125 8.828125 
Q 51.171875 0 30.078125 0 
L 9.8125 0 
z
" id="DejaVuSans-68"/>
     <path d="M 9.8125 72.90625 
L 55.90625 72.90625 
L 55.90625 64.59375 
L 19.671875 64.59375 
L 19.671875 43.015625 
L 54.390625 43.015625 
L 54.390625 34.71875 
L 19.671875 34.71875 
L 19.671875 8.296875 
L 56.78125 8.296875 
L 56.78125 0 
L 9.8125 0 
z
" id="DejaVuSans-69"/>
    </defs>
    <g transform="translate(375.22944 233.796363)scale(0.17 -0.17)">
     <use xlink:href="#DejaVuSans-68"/>
     <use x="77.001953" xlink:href="#DejaVuSans-69"/>
    </g>
   </g>
   <g id="text_15">
    <!-- DEPSO -->
    <g transform="translate(375.22944 169.329987)scale(0.17 -0.17)">
     <use xlink:href="#DejaVuSans-68"/>
     <use x="77.001953" xlink:href="#DejaVuSans-69"/>
     <use x="140.185547" xlink:href="#DejaVuSans-80"/>
     <use x="200.488281" xlink:href="#DejaVuSans-83"/>
     <use x="263.964844" xlink:href="#DejaVuSans-79"/>
    </g>
   </g>
   <g id="text_16">
    <!-- CMA-ES -->
    <defs>
     <path d="M 64.40625 67.28125 
L 64.40625 56.890625 
Q 59.421875 61.53125 53.78125 63.8125 
Q 48.140625 66.109375 41.796875 66.109375 
Q 29.296875 66.109375 22.65625 58.46875 
Q 16.015625 50.828125 16.015625 36.375 
Q 16.015625 21.96875 22.65625 14.328125 
Q 29.296875 6.6875 41.796875 6.6875 
Q 48.140625 6.6875 53.78125 8.984375 
Q 59.421875 11.28125 64.40625 15.921875 
L 64.40625 5.609375 
Q 59.234375 2.09375 53.4375 0.328125 
Q 47.65625 -1.421875 41.21875 -1.421875 
Q 24.65625 -1.421875 15.125 8.703125 
Q 5.609375 18.84375 5.609375 36.375 
Q 5.609375 53.953125 15.125 64.078125 
Q 24.65625 74.21875 41.21875 74.21875 
Q 47.75 74.21875 53.53125 72.484375 
Q 59.328125 70.75 64.40625 67.28125 
z
" id="DejaVuSans-67"/>
     <path d="M 9.8125 72.90625 
L 24.515625 72.90625 
L 43.109375 23.296875 
L 61.8125 72.90625 
L 76.515625 72.90625 
L 76.515625 0 
L 66.890625 0 
L 66.890625 64.015625 
L 48.09375 14.015625 
L 38.1875 14.015625 
L 19.390625 64.015625 
L 19.390625 0 
L 9.8125 0 
z
" id="DejaVuSans-77"/>
     <path d="M 34.1875 63.1875 
L 20.796875 26.90625 
L 47.609375 26.90625 
z
M 28.609375 72.90625 
L 39.796875 72.90625 
L 67.578125 0 
L 57.328125 0 
L 50.6875 18.703125 
L 17.828125 18.703125 
L 11.1875 0 
L 0.78125 0 
z
" id="DejaVuSans-65"/>
    </defs>
    <g transform="translate(375.22944 104.863611)scale(0.17 -0.17)">
     <use xlink:href="#DejaVuSans-67"/>
     <use x="69.824219" xlink:href="#DejaVuSans-77"/>
     <use x="156.103516" xlink:href="#DejaVuSans-65"/>
     <use x="222.261719" xlink:href="#DejaVuSans-45"/>
     <use x="258.345703" xlink:href="#DejaVuSans-69"/>
     <use x="321.529297" xlink:href="#DejaVuSans-83"/>
    </g>
   </g>
   <g id="text_17">
    <!-- best 2009 -->
    <defs>
     <path d="M 48.6875 27.296875 
Q 48.6875 37.203125 44.609375 42.84375 
Q 40.53125 48.484375 33.40625 48.484375 
Q 26.265625 48.484375 22.1875 42.84375 
Q 18.109375 37.203125 18.109375 27.296875 
Q 18.109375 17.390625 22.1875 11.75 
Q 26.265625 6.109375 33.40625 6.109375 
Q 40.53125 6.109375 44.609375 11.75 
Q 48.6875 17.390625 48.6875 27.296875 
z
M 18.109375 46.390625 
Q 20.953125 51.265625 25.265625 53.625 
Q 29.59375 56 35.59375 56 
Q 45.5625 56 51.78125 48.09375 
Q 58.015625 40.1875 58.015625 27.296875 
Q 58.015625 14.40625 51.78125 6.484375 
Q 45.5625 -1.421875 35.59375 -1.421875 
Q 29.59375 -1.421875 25.265625 0.953125 
Q 20.953125 3.328125 18.109375 8.203125 
L 18.109375 0 
L 9.078125 0 
L 9.078125 75.984375 
L 18.109375 75.984375 
z
" id="DejaVuSans-98"/>
     <path d="M 10.984375 1.515625 
L 10.984375 10.5 
Q 14.703125 8.734375 18.5 7.8125 
Q 22.3125 6.890625 25.984375 6.890625 
Q 35.75 6.890625 40.890625 13.453125 
Q 46.046875 20.015625 46.78125 33.40625 
Q 43.953125 29.203125 39.59375 26.953125 
Q 35.25 24.703125 29.984375 24.703125 
Q 19.046875 24.703125 12.671875 31.3125 
Q 6.296875 37.9375 6.296875 49.421875 
Q 6.296875 60.640625 12.9375 67.421875 
Q 19.578125 74.21875 30.609375 74.21875 
Q 43.265625 74.21875 49.921875 64.515625 
Q 56.59375 54.828125 56.59375 36.375 
Q 56.59375 19.140625 48.40625 8.859375 
Q 40.234375 -1.421875 26.421875 -1.421875 
Q 22.703125 -1.421875 18.890625 -0.6875 
Q 15.09375 0.046875 10.984375 1.515625 
z
M 30.609375 32.421875 
Q 37.25 32.421875 41.125 36.953125 
Q 45.015625 41.5 45.015625 49.421875 
Q 45.015625 57.28125 41.125 61.84375 
Q 37.25 66.40625 30.609375 66.40625 
Q 23.96875 66.40625 20.09375 61.84375 
Q 16.21875 57.28125 16.21875 49.421875 
Q 16.21875 41.5 20.09375 36.953125 
Q 23.96875 32.421875 30.609375 32.421875 
z
" id="DejaVuSans-57"/>
    </defs>
    <g transform="translate(375.22944 40.397235)scale(0.17 -0.17)">
     <use xlink:href="#DejaVuSans-98"/>
     <use x="63.476562" xlink:href="#DejaVuSans-101"/>
     <use x="125" xlink:href="#DejaVuSans-115"/>
     <use x="177.099609" xlink:href="#DejaVuSans-116"/>
     <use x="216.308594" xlink:href="#DejaVuSans-32"/>
     <use x="248.095703" xlink:href="#DejaVuSans-50"/>
     <use x="311.71875" xlink:href="#DejaVuSans-48"/>
     <use x="375.341797" xlink:href="#DejaVuSans-48"/>
     <use x="438.964844" xlink:href="#DejaVuSans-57"/>
    </g>
   </g>
   <g id="text_18">
    <!-- bbob f14, 20-D -->
    <g transform="translate(60.41088 38.111366)scale(0.102 -0.102)">
     <use xlink:href="#DejaVuSans-98"/>
     <use x="63.476562" xlink:href="#DejaVuSans-98"/>
     <use x="126.953125" xlink:href="#DejaVuSans-111"/>
     <use x="188.134766" xlink:href="#DejaVuSans-98"/>
     <use x="251.611328" xlink:href="#DejaVuSans-32"/>
     <use x="283.398438" xlink:href="#DejaVuSans-102"/>
     <use x="318.603516" xlink:href="#DejaVuSans-49"/>
     <use x="382.226562" xlink:href="#DejaVuSans-52"/>
     <use x="445.849609" xlink:href="#DejaVuSans-44"/>
     <use x="477.636719" xlink:href="#DejaVuSans-32"/>
     <use x="509.423828" xlink:href="#DejaVuSans-50"/>
     <use x="573.046875" xlink:href="#DejaVuSans-48"/>
     <use x="636.669922" xlink:href="#DejaVuSans-45"/>
     <use x="672.753906" xlink:href="#DejaVuSans-68"/>
    </g>
    <!-- 51 targets: 100..1e-08 -->
    <defs>
     <path d="M 10.796875 72.90625 
L 49.515625 72.90625 
L 49.515625 64.59375 
L 19.828125 64.59375 
L 19.828125 46.734375 
Q 21.96875 47.46875 24.109375 47.828125 
Q 26.265625 48.1875 28.421875 48.1875 
Q 40.625 48.1875 47.75 41.5 
Q 54.890625 34.8125 54.890625 23.390625 
Q 54.890625 11.625 47.5625 5.09375 
Q 40.234375 -1.421875 26.90625 -1.421875 
Q 22.3125 -1.421875 17.546875 -0.640625 
Q 12.796875 0.140625 7.71875 1.703125 
L 7.71875 11.625 
Q 12.109375 9.234375 16.796875 8.0625 
Q 21.484375 6.890625 26.703125 6.890625 
Q 35.15625 6.890625 40.078125 11.328125 
Q 45.015625 15.765625 45.015625 23.390625 
Q 45.015625 31 40.078125 35.4375 
Q 35.15625 39.890625 26.703125 39.890625 
Q 22.75 39.890625 18.8125 39.015625 
Q 14.890625 38.140625 10.796875 36.28125 
z
" id="DejaVuSans-53"/>
     <path d="M 11.71875 12.40625 
L 22.015625 12.40625 
L 22.015625 0 
L 11.71875 0 
z
M 11.71875 51.703125 
L 22.015625 51.703125 
L 22.015625 39.3125 
L 11.71875 39.3125 
z
" id="DejaVuSans-58"/>
    </defs>
    <g transform="translate(60.41088 49.533135)scale(0.102 -0.102)">
     <use xlink:href="#DejaVuSans-53"/>
     <use x="63.623047" xlink:href="#DejaVuSans-49"/>
     <use x="127.246094" xlink:href="#DejaVuSans-32"/>
     <use x="159.033203" xlink:href="#DejaVuSans-116"/>
     <use x="198.242188" xlink:href="#DejaVuSans-97"/>
     <use x="259.521484" xlink:href="#DejaVuSans-114"/>
     <use x="298.884766" xlink:href="#DejaVuSans-103"/>
     <use x="362.361328" xlink:href="#DejaVuSans-101"/>
     <use x="423.884766" xlink:href="#DejaVuSans-116"/>
     <use x="463.09375" xlink:href="#DejaVuSans-115"/>
     <use x="515.193359" xlink:href="#DejaVuSans-58"/>
     <use x="548.884766" xlink:href="#DejaVuSans-32"/>
     <use x="580.671875" xlink:href="#DejaVuSans-49"/>
     <use x="644.294922" xlink:href="#DejaVuSans-48"/>
     <use x="707.917969" xlink:href="#DejaVuSans-48"/>
     <use x="771.541016" xlink:href="#DejaVuSans-46"/>
     <use x="803.328125" xlink:href="#DejaVuSans-46"/>
     <use x="835.115234" xlink:href="#DejaVuSans-49"/>
     <use x="898.738281" xlink:href="#DejaVuSans-101"/>
     <use x="960.261719" xlink:href="#DejaVuSans-45"/>
     <use x="996.345703" xlink:href="#DejaVuSans-48"/>
     <use x="1059.96875" xlink:href="#DejaVuSans-56"/>
    </g>
    <!-- 24, 15 instances -->
    <g transform="translate(60.41088 60.954904)scale(0.102 -0.102)">
     <use xlink:href="#DejaVuSans-50"/>
     <use x="63.623047" xlink:href="#DejaVuSans-52"/>
     <use x="127.246094" xlink:href="#DejaVuSans-44"/>
     <use x="159.033203" xlink:href="#DejaVuSans-32"/>
     <use x="190.820312" xlink:href="#DejaVuSans-49"/>
     <use x="254.443359" xlink:href="#DejaVuSans-53"/>
     <use x="318.066406" xlink:href="#DejaVuSans-32"/>
     <use x="349.853516" xlink:href="#DejaVuSans-105"/>
     <use x="377.636719" xlink:href="#DejaVuSans-110"/>
     <use x="441.015625" xlink:href="#DejaVuSans-115"/>
     <use x="493.115234" xlink:href="#DejaVuSans-116"/>
     <use x="532.324219" xlink:href="#DejaVuSans-97"/>
     <use x="593.603516" xlink:href="#DejaVuSans-110"/>
     <use x="656.982422" xlink:href="#DejaVuSans-99"/>
     <use x="711.962891" xlink:href="#DejaVuSans-101"/>
     <use x="773.486328" xlink:href="#DejaVuSans-115"/>
    </g>
   </g>
   <g id="text_19">
    <!-- v2.4 -->
    <g style="fill:#808080;" transform="translate(187.233062 294.151352)scale(0.1 -0.1)">
     <use xlink:href="#DejaVuSans-118"/>
     <use x="59.179688" xlink:href="#DejaVuSans-50"/>
     <use x="122.802734" xlink:href="#DejaVuSans-46"/>
     <use x="154.589844" xlink:href="#DejaVuSans-52"/>
    </g>
   </g>
   <g id="text_20">
    <!-- 14 Sum of different powers -->
    <defs>
     <path d="M 4.203125 54.6875 
L 13.1875 54.6875 
L 24.421875 12.015625 
L 35.59375 54.6875 
L 46.1875 54.6875 
L 57.421875 12.015625 
L 68.609375 54.6875 
L 77.59375 54.6875 
L 63.28125 0 
L 52.6875 0 
L 40.921875 44.828125 
L 29.109375 0 
L 18.5 0 
z
" id="DejaVuSans-119"/>
    </defs>
    <g transform="translate(61.904937 21.648)scale(0.2 -0.2)">
     <use xlink:href="#DejaVuSans-49"/>
     <use x="63.623047" xlink:href="#DejaVuSans-52"/>
     <use x="127.246094" xlink:href="#DejaVuSans-32"/>
     <use x="159.033203" xlink:href="#DejaVuSans-83"/>
     <use x="222.509766" xlink:href="#DejaVuSans-117"/>
     <use x="285.888672" xlink:href="#DejaVuSans-109"/>
     <use x="383.300781" xlink:href="#DejaVuSans-32"/>
     <use x="415.087891" xlink:href="#DejaVuSans-111"/>
     <use x="476.269531" xlink:href="#DejaVuSans-102"/>
     <use x="511.474609" xlink:href="#DejaVuSans-32"/>
     <use x="543.261719" xlink:href="#DejaVuSans-100"/>
     <use x="606.738281" xlink:href="#DejaVuSans-105"/>
     <use x="634.521484" xlink:href="#DejaVuSans-102"/>
     <use x="669.726562" xlink:href="#DejaVuSans-102"/>
     <use x="704.931641" xlink:href="#DejaVuSans-101"/>
     <use x="766.455078" xlink:href="#DejaVuSans-114"/>
     <use x="805.318359" xlink:href="#DejaVuSans-101"/>
     <use x="866.841797" xlink:href="#DejaVuSans-110"/>
     <use x="930.220703" xlink:href="#DejaVuSans-116"/>
     <use x="969.429688" xlink:href="#DejaVuSans-32"/>
     <use x="1001.216797" xlink:href="#DejaVuSans-112"/>
     <use x="1064.693359" xlink:href="#DejaVuSans-111"/>
     <use x="1125.875" xlink:href="#DejaVuSans-119"/>
     <use x="1207.662109" xlink:href="#DejaVuSans-101"/>
     <use x="1269.185547" xlink:href="#DejaVuSans-114"/>
     <use x="1310.298828" xlink:href="#DejaVuSans-115"/>
    </g>
   </g>
  </g>
 </g>
 <defs>
  <clipPath id="pc27da9b055">
   <rect height="271.296" width="281.088" x="57.6" y="27.648"/>
  </clipPath>
 </defs>
</svg>
