<?xml version="1.0" encoding="utf-8" standalone="no"?>
<!DOCTYPE svg PUBLIC "-//W3C//DTD SVG 1.1//EN"
  "http://www.w3.org/Graphics/SVG/1.1/DTD/svg11.dtd">
<!-- Created with matplotlib (https://matplotlib.org/) -->
<svg height="345.6pt" version="1.1" viewBox="0 0 460.8 345.6" width="460.8pt" xmlns="http://www.w3.org/2000/svg" xmlns:xlink="http://www.w3.org/1999/xlink">
 <defs>
  <style type="text/css">
*{stroke-linecap:butt;stroke-linejoin:round;}
  </style>
 </defs>
 <g id="figure_1">
  <g id="patch_1">
   <path d="M 0 345.6 
L 460.8 345.6 
L 460.8 0 
L 0 0 
z
" style="fill:#ffffff;"/>
  </g>
  <g id="axes_1">
   <g id="patch_2">
    <path d="M 57.6 298.944 
L 338.688 298.944 
L 338.688 27.648 
L 57.6 27.648 
z
" style="fill:#ffffff;"/>
   </g>
   <g id="line2d_1">
    <path d="M 73.579452 298.944 
L 73.579452 293.677139 
L 83.830028 293.677139 
L 83.830028 288.410278 
L 91.535274 288.410278 
L 91.535274 283.143418 
L 95.918017 283.143418 
L 95.918017 277.876557 
L 97.755429 277.876557 
L 97.755429 272.609696 
L 100.192776 272.609696 
L 100.192776 267.342835 
L 100.934985 267.342835 
L 100.934985 262.075974 
L 102.989037 262.075974 
L 102.989037 256.809114 
L 105.398279 256.809114 
L 105.398279 251.542253 
L 106.48859 251.542253 
L 106.48859 246.275392 
L 107.514726 246.275392 
L 107.514726 241.008531 
L 108.948899 241.008531 
L 108.948899 235.74167 
L 109.843417 235.74167 
L 109.843417 230.47481 
L 110.694282 230.47481 
L 110.694282 225.207949 
L 111.104637 225.207949 
L 111.104637 219.941088 
L 112.280765 219.941088 
L 112.280765 214.674227 
L 114.080224 214.674227 
L 114.080224 209.407366 
L 114.751048 209.407366 
L 114.751048 204.140506 
L 115.397021 204.140506 
L 115.397021 198.873645 
L 116.019919 198.873645 
L 116.019919 193.606784 
L 116.914437 193.606784 
L 116.914437 188.339923 
L 117.486268 188.339923 
L 117.486268 183.073062 
L 118.039942 183.073062 
L 118.039942 177.806202 
L 118.838828 177.806202 
L 118.838828 172.539341 
L 119.097192 172.539341 
L 119.097192 167.27248 
L 119.850084 167.27248 
L 119.850084 162.005619 
L 120.571812 162.005619 
L 120.571812 156.738758 
L 121.036887 156.738758 
L 121.036887 151.471897 
L 121.712041 151.471897 
L 121.712041 146.205037 
L 122.148045 146.205037 
L 122.148045 140.938176 
L 122.573415 140.938176 
L 122.573415 135.671315 
L 123.394238 135.671315 
L 123.394238 130.404454 
L 123.790603 130.404454 
L 123.790603 125.137593 
L 124.178158 125.137593 
L 124.178158 119.870733 
L 124.557288 119.870733 
L 124.557288 114.603872 
L 124.92835 114.603872 
L 124.92835 109.337011 
L 125.470548 109.337011 
L 125.470548 104.07015 
L 125.822869 104.07015 
L 125.822869 98.803289 
L 126.168212 98.803289 
L 126.168212 93.536429 
L 126.50685 93.536429 
L 126.50685 88.269568 
L 127.165014 88.269568 
L 127.165014 83.002707 
L 127.799239 83.002707 
L 127.799239 77.735846 
L 128.107907 77.735846 
L 128.107907 72.468985 
L 128.411207 72.468985 
L 128.411207 67.202125 
L 128.709321 67.202125 
L 128.709321 61.935264 
L 129.290685 61.935264 
L 129.290685 56.668403 
L 129.574256 56.668403 
L 129.574256 51.401542 
L 129.991152 51.401542 
L 129.991152 46.134681 
L 130.127931 46.134681 
L 130.127931 40.867821 
L 130.398313 40.867821 
L 130.398313 35.60096 
L 130.796184 35.60096 
L 130.796184 30.334099 
L 338.688 30.334099 
" style="fill:none;stroke:#f5deb3;stroke-linecap:square;stroke-width:4;"/>
   </g>
   <g id="line2d_2">
    <defs>
     <path d="M -0 7.778175 
L 7.778175 0 
L 0 -7.778175 
L -7.778175 -0 
z
" id="m3b5214ae73" style="stroke:#f5deb3;stroke-linejoin:miter;stroke-width:1.5;"/>
    </defs>
    <g>
     <use style="fill:#f5deb3;stroke:#f5deb3;stroke-linejoin:miter;stroke-width:1.5;" x="109.843417" xlink:href="#m3b5214ae73" y="235.74167"/>
     <use style="fill:#f5deb3;stroke:#f5deb3;stroke-linejoin:miter;stroke-width:1.5;" x="123.790603" xlink:href="#m3b5214ae73" y="130.404454"/>
     <use style="fill:#f5deb3;stroke:#f5deb3;stroke-linejoin:miter;stroke-width:1.5;" x="130.796184" xlink:href="#m3b5214ae73" y="35.60096"/>
     <use style="fill:#f5deb3;stroke:#f5deb3;stroke-linejoin:miter;stroke-width:1.5;" x="130.796184" xlink:href="#m3b5214ae73" y="30.334099"/>
     <use style="fill:#f5deb3;stroke:#f5deb3;stroke-linejoin:miter;stroke-width:1.5;" x="338.688" xlink:href="#m3b5214ae73" y="30.334099"/>
    </g>
   </g>
   <g id="line2d_3">
    <path style="fill:none;stroke:#f5deb3;stroke-linecap:square;stroke-width:4;"/>
    <g/>
   </g>
   <g id="line2d_4">
    <path d="M 338.688 30.334099 
L 369.60768 35.706297 
" style="fill:none;stroke:#f5deb3;stroke-linecap:square;stroke-width:4;"/>
    <g>
     <use style="fill:#f5deb3;stroke:#f5deb3;stroke-linejoin:miter;stroke-width:1.5;" x="338.688" xlink:href="#m3b5214ae73" y="30.334099"/>
     <use style="fill:#f5deb3;stroke:#f5deb3;stroke-linejoin:miter;stroke-width:1.5;" x="369.60768" xlink:href="#m3b5214ae73" y="35.706297"/>
    </g>
   </g>
   <g id="matplotlib.axis_1">
    <g id="xtick_1">
     <g id="line2d_5">
      <path clip-path="url(#p87b81c19fe)" d="M 57.6 298.944 
L 57.6 27.648 
" style="fill:none;stroke:#b0b0b0;stroke-linecap:square;stroke-width:0.8;"/>
     </g>
     <g id="line2d_6">
      <defs>
       <path d="M 0 0 
L 0 3.5 
" id="mccd5398d55" style="stroke:#000000;stroke-width:0.8;"/>
      </defs>
      <g>
       <use style="stroke:#000000;stroke-width:0.8;" x="57.6" xlink:href="#mccd5398d55" y="298.944"/>
      </g>
     </g>
     <g id="text_1">
      <!-- 0 -->
      <defs>
       <path d="M 31.78125 66.40625 
Q 24.171875 66.40625 20.328125 58.90625 
Q 16.5 51.421875 16.5 36.375 
Q 16.5 21.390625 20.328125 13.890625 
Q 24.171875 6.390625 31.78125 6.390625 
Q 39.453125 6.390625 43.28125 13.890625 
Q 47.125 21.390625 47.125 36.375 
Q 47.125 51.421875 43.28125 58.90625 
Q 39.453125 66.40625 31.78125 66.40625 
z
M 31.78125 74.21875 
Q 44.046875 74.21875 50.515625 64.515625 
Q 56.984375 54.828125 56.984375 36.375 
Q 56.984375 17.96875 50.515625 8.265625 
Q 44.046875 -1.421875 31.78125 -1.421875 
Q 19.53125 -1.421875 13.0625 8.265625 
Q 6.59375 17.96875 6.59375 36.375 
Q 6.59375 54.828125 13.0625 64.515625 
Q 19.53125 74.21875 31.78125 74.21875 
z
" id="DejaVuSans-48"/>
      </defs>
      <g transform="translate(51.2375 321.140875)scale(0.2 -0.2)">
       <use xlink:href="#DejaVuSans-48"/>
      </g>
     </g>
    </g>
    <g id="xtick_2">
     <g id="line2d_7">
      <path clip-path="url(#p87b81c19fe)" d="M 137.910857 298.944 
L 137.910857 27.648 
" style="fill:none;stroke:#b0b0b0;stroke-linecap:square;stroke-width:0.8;"/>
     </g>
     <g id="line2d_8">
      <g>
       <use style="stroke:#000000;stroke-width:0.8;" x="137.910857" xlink:href="#mccd5398d55" y="298.944"/>
      </g>
     </g>
     <g id="text_2">
      <!-- 2 -->
      <defs>
       <path d="M 19.1875 8.296875 
L 53.609375 8.296875 
L 53.609375 0 
L 7.328125 0 
L 7.328125 8.296875 
Q 12.9375 14.109375 22.625 23.890625 
Q 32.328125 33.6875 34.8125 36.53125 
Q 39.546875 41.84375 41.421875 45.53125 
Q 43.3125 49.21875 43.3125 52.78125 
Q 43.3125 58.59375 39.234375 62.25 
Q 35.15625 65.921875 28.609375 65.921875 
Q 23.96875 65.921875 18.8125 64.3125 
Q 13.671875 62.703125 7.8125 59.421875 
L 7.8125 69.390625 
Q 13.765625 71.78125 18.9375 73 
Q 24.125 74.21875 28.421875 74.21875 
Q 39.75 74.21875 46.484375 68.546875 
Q 53.21875 62.890625 53.21875 53.421875 
Q 53.21875 48.921875 51.53125 44.890625 
Q 49.859375 40.875 45.40625 35.40625 
Q 44.1875 33.984375 37.640625 27.21875 
Q 31.109375 20.453125 19.1875 8.296875 
z
" id="DejaVuSans-50"/>
      </defs>
      <g transform="translate(131.548357 321.140875)scale(0.2 -0.2)">
       <use xlink:href="#DejaVuSans-50"/>
      </g>
     </g>
    </g>
    <g id="xtick_3">
     <g id="line2d_9">
      <path clip-path="url(#p87b81c19fe)" d="M 218.221714 298.944 
L 218.221714 27.648 
" style="fill:none;stroke:#b0b0b0;stroke-linecap:square;stroke-width:0.8;"/>
     </g>
     <g id="line2d_10">
      <g>
       <use style="stroke:#000000;stroke-width:0.8;" x="218.221714" xlink:href="#mccd5398d55" y="298.944"/>
      </g>
     </g>
     <g id="text_3">
      <!-- 4 -->
      <defs>
       <path d="M 37.796875 64.3125 
L 12.890625 25.390625 
L 37.796875 25.390625 
z
M 35.203125 72.90625 
L 47.609375 72.90625 
L 47.609375 25.390625 
L 58.015625 25.390625 
L 58.015625 17.1875 
L 47.609375 17.1875 
L 47.609375 0 
L 37.796875 0 
L 37.796875 17.1875 
L 4.890625 17.1875 
L 4.890625 26.703125 
z
" id="DejaVuSans-52"/>
      </defs>
      <g transform="translate(211.859214 321.140875)scale(0.2 -0.2)">
       <use xlink:href="#DejaVuSans-52"/>
      </g>
     </g>
    </g>
    <g id="xtick_4">
     <g id="line2d_11">
      <path clip-path="url(#p87b81c19fe)" d="M 298.532571 298.944 
L 298.532571 27.648 
" style="fill:none;stroke:#b0b0b0;stroke-linecap:square;stroke-width:0.8;"/>
     </g>
     <g id="line2d_12">
      <g>
       <use style="stroke:#000000;stroke-width:0.8;" x="298.532571" xlink:href="#mccd5398d55" y="298.944"/>
      </g>
     </g>
     <g id="text_4">
      <!-- 6 -->
      <defs>
       <path d="M 33.015625 40.375 
Q 26.375 40.375 22.484375 35.828125 
Q 18.609375 31.296875 18.609375 23.390625 
Q 18.609375 15.53125 22.484375 10.953125 
Q 26.375 6.390625 33.015625 6.390625 
Q 39.65625 6.390625 43.53125 10.953125 
Q 47.40625 15.53125 47.40625 23.390625 
Q 47.40625 31.296875 43.53125 35.828125 
Q 39.65625 40.375 33.015625 40.375 
z
M 52.59375 71.296875 
L 52.59375 62.3125 
Q 48.875 64.0625 45.09375 64.984375 
Q 41.3125 65.921875 37.59375 65.921875 
Q 27.828125 65.921875 22.671875 59.328125 
Q 17.53125 52.734375 16.796875 39.40625 
Q 19.671875 43.65625 24.015625 45.921875 
Q 28.375 48.1875 33.59375 48.1875 
Q 44.578125 48.1875 50.953125 41.515625 
Q 57.328125 34.859375 57.328125 23.390625 
Q 57.328125 12.15625 50.6875 5.359375 
Q 44.046875 -1.421875 33.015625 -1.421875 
Q 20.359375 -1.421875 13.671875 8.265625 
Q 6.984375 17.96875 6.984375 36.375 
Q 6.984375 53.65625 15.1875 63.9375 
Q 23.390625 74.21875 37.203125 74.21875 
Q 40.921875 74.21875 44.703125 73.484375 
Q 48.484375 72.75 52.59375 71.296875 
z
" id="DejaVuSans-54"/>
      </defs>
      <g transform="translate(292.170071 321.140875)scale(0.2 -0.2)">
       <use xlink:href="#DejaVuSans-54"/>
      </g>
     </g>
    </g>
    <g id="xtick_5">
     <g id="line2d_13">
      <path clip-path="url(#p87b81c19fe)" d="M 97.755429 298.944 
L 97.755429 27.648 
" style="fill:none;stroke:#b0b0b0;stroke-linecap:square;stroke-width:0.8;"/>
     </g>
     <g id="line2d_14">
      <defs>
       <path d="M 0 0 
L 0 2 
" id="md5cddb8ee8" style="stroke:#000000;stroke-width:0.6;"/>
      </defs>
      <g>
       <use style="stroke:#000000;stroke-width:0.6;" x="97.755429" xlink:href="#md5cddb8ee8" y="298.944"/>
      </g>
     </g>
    </g>
    <g id="xtick_6">
     <g id="line2d_15">
      <path clip-path="url(#p87b81c19fe)" d="M 178.066286 298.944 
L 178.066286 27.648 
" style="fill:none;stroke:#b0b0b0;stroke-linecap:square;stroke-width:0.8;"/>
     </g>
     <g id="line2d_16">
      <g>
       <use style="stroke:#000000;stroke-width:0.6;" x="178.066286" xlink:href="#md5cddb8ee8" y="298.944"/>
      </g>
     </g>
    </g>
    <g id="xtick_7">
     <g id="line2d_17">
      <path clip-path="url(#p87b81c19fe)" d="M 258.377143 298.944 
L 258.377143 27.648 
" style="fill:none;stroke:#b0b0b0;stroke-linecap:square;stroke-width:0.8;"/>
     </g>
     <g id="line2d_18">
      <g>
       <use style="stroke:#000000;stroke-width:0.6;" x="258.377143" xlink:href="#md5cddb8ee8" y="298.944"/>
      </g>
     </g>
    </g>
    <g id="xtick_8">
     <g id="line2d_19">
      <path clip-path="url(#p87b81c19fe)" d="M 338.688 298.944 
L 338.688 27.648 
" style="fill:none;stroke:#b0b0b0;stroke-linecap:square;stroke-width:0.8;"/>
     </g>
     <g id="line2d_20">
      <g>
       <use style="stroke:#000000;stroke-width:0.6;" x="338.688" xlink:href="#md5cddb8ee8" y="298.944"/>
      </g>
     </g>
    </g>
    <g id="text_5">
     <!-- log10(# f-evals / dimension) -->
     <defs>
      <path d="M 9.421875 75.984375 
L 18.40625 75.984375 
L 18.40625 0 
L 9.421875 0 
z
" id="DejaVuSans-108"/>
      <path d="M 30.609375 48.390625 
Q 23.390625 48.390625 19.1875 42.75 
Q 14.984375 37.109375 14.984375 27.296875 
Q 14.984375 17.484375 19.15625 11.84375 
Q 23.34375 6.203125 30.609375 6.203125 
Q 37.796875 6.203125 41.984375 11.859375 
Q 46.1875 17.53125 46.1875 27.296875 
Q 46.1875 37.015625 41.984375 42.703125 
Q 37.796875 48.390625 30.609375 48.390625 
z
M 30.609375 56 
Q 42.328125 56 49.015625 48.375 
Q 55.71875 40.765625 55.71875 27.296875 
Q 55.71875 13.875 49.015625 6.21875 
Q 42.328125 -1.421875 30.609375 -1.421875 
Q 18.84375 -1.421875 12.171875 6.21875 
Q 5.515625 13.875 5.515625 27.296875 
Q 5.515625 40.765625 12.171875 48.375 
Q 18.84375 56 30.609375 56 
z
" id="DejaVuSans-111"/>
      <path d="M 45.40625 27.984375 
Q 45.40625 37.75 41.375 43.109375 
Q 37.359375 48.484375 30.078125 48.484375 
Q 22.859375 48.484375 18.828125 43.109375 
Q 14.796875 37.75 14.796875 27.984375 
Q 14.796875 18.265625 18.828125 12.890625 
Q 22.859375 7.515625 30.078125 7.515625 
Q 37.359375 7.515625 41.375 12.890625 
Q 45.40625 18.265625 45.40625 27.984375 
z
M 54.390625 6.78125 
Q 54.390625 -7.171875 48.1875 -13.984375 
Q 42 -20.796875 29.203125 -20.796875 
Q 24.46875 -20.796875 20.265625 -20.09375 
Q 16.0625 -19.390625 12.109375 -17.921875 
L 12.109375 -9.1875 
Q 16.0625 -11.328125 19.921875 -12.34375 
Q 23.78125 -13.375 27.78125 -13.375 
Q 36.625 -13.375 41.015625 -8.765625 
Q 45.40625 -4.15625 45.40625 5.171875 
L 45.40625 9.625 
Q 42.625 4.78125 38.28125 2.390625 
Q 33.9375 0 27.875 0 
Q 17.828125 0 11.671875 7.65625 
Q 5.515625 15.328125 5.515625 27.984375 
Q 5.515625 40.671875 11.671875 48.328125 
Q 17.828125 56 27.875 56 
Q 33.9375 56 38.28125 53.609375 
Q 42.625 51.21875 45.40625 46.390625 
L 45.40625 54.6875 
L 54.390625 54.6875 
z
" id="DejaVuSans-103"/>
      <path d="M 12.40625 8.296875 
L 28.515625 8.296875 
L 28.515625 63.921875 
L 10.984375 60.40625 
L 10.984375 69.390625 
L 28.421875 72.90625 
L 38.28125 72.90625 
L 38.28125 8.296875 
L 54.390625 8.296875 
L 54.390625 0 
L 12.40625 0 
z
" id="DejaVuSans-49"/>
      <path d="M 31 75.875 
Q 24.46875 64.65625 21.28125 53.65625 
Q 18.109375 42.671875 18.109375 31.390625 
Q 18.109375 20.125 21.3125 9.0625 
Q 24.515625 -2 31 -13.1875 
L 23.1875 -13.1875 
Q 15.875 -1.703125 12.234375 9.375 
Q 8.59375 20.453125 8.59375 31.390625 
Q 8.59375 42.28125 12.203125 53.3125 
Q 15.828125 64.359375 23.1875 75.875 
z
" id="DejaVuSans-40"/>
      <path d="M 51.125 44 
L 36.921875 44 
L 32.8125 27.6875 
L 47.125 27.6875 
z
M 43.796875 71.78125 
L 38.71875 51.515625 
L 52.984375 51.515625 
L 58.109375 71.78125 
L 65.921875 71.78125 
L 60.890625 51.515625 
L 76.125 51.515625 
L 76.125 44 
L 58.984375 44 
L 54.984375 27.6875 
L 70.515625 27.6875 
L 70.515625 20.21875 
L 53.078125 20.21875 
L 48 0 
L 40.1875 0 
L 45.21875 20.21875 
L 30.90625 20.21875 
L 25.875 0 
L 18.015625 0 
L 23.09375 20.21875 
L 7.71875 20.21875 
L 7.71875 27.6875 
L 24.90625 27.6875 
L 29 44 
L 13.28125 44 
L 13.28125 51.515625 
L 30.90625 51.515625 
L 35.890625 71.78125 
z
" id="DejaVuSans-35"/>
      <path id="DejaVuSans-32"/>
      <path d="M 37.109375 75.984375 
L 37.109375 68.5 
L 28.515625 68.5 
Q 23.6875 68.5 21.796875 66.546875 
Q 19.921875 64.59375 19.921875 59.515625 
L 19.921875 54.6875 
L 34.71875 54.6875 
L 34.71875 47.703125 
L 19.921875 47.703125 
L 19.921875 0 
L 10.890625 0 
L 10.890625 47.703125 
L 2.296875 47.703125 
L 2.296875 54.6875 
L 10.890625 54.6875 
L 10.890625 58.5 
Q 10.890625 67.625 15.140625 71.796875 
Q 19.390625 75.984375 28.609375 75.984375 
z
" id="DejaVuSans-102"/>
      <path d="M 4.890625 31.390625 
L 31.203125 31.390625 
L 31.203125 23.390625 
L 4.890625 23.390625 
z
" id="DejaVuSans-45"/>
      <path d="M 56.203125 29.59375 
L 56.203125 25.203125 
L 14.890625 25.203125 
Q 15.484375 15.921875 20.484375 11.0625 
Q 25.484375 6.203125 34.421875 6.203125 
Q 39.59375 6.203125 44.453125 7.46875 
Q 49.3125 8.734375 54.109375 11.28125 
L 54.109375 2.78125 
Q 49.265625 0.734375 44.1875 -0.34375 
Q 39.109375 -1.421875 33.890625 -1.421875 
Q 20.796875 -1.421875 13.15625 6.1875 
Q 5.515625 13.8125 5.515625 26.8125 
Q 5.515625 40.234375 12.765625 48.109375 
Q 20.015625 56 32.328125 56 
Q 43.359375 56 49.78125 48.890625 
Q 56.203125 41.796875 56.203125 29.59375 
z
M 47.21875 32.234375 
Q 47.125 39.59375 43.09375 43.984375 
Q 39.0625 48.390625 32.421875 48.390625 
Q 24.90625 48.390625 20.390625 44.140625 
Q 15.875 39.890625 15.1875 32.171875 
z
" id="DejaVuSans-101"/>
      <path d="M 2.984375 54.6875 
L 12.5 54.6875 
L 29.59375 8.796875 
L 46.6875 54.6875 
L 56.203125 54.6875 
L 35.6875 0 
L 23.484375 0 
z
" id="DejaVuSans-118"/>
      <path d="M 34.28125 27.484375 
Q 23.390625 27.484375 19.1875 25 
Q 14.984375 22.515625 14.984375 16.5 
Q 14.984375 11.71875 18.140625 8.90625 
Q 21.296875 6.109375 26.703125 6.109375 
Q 34.1875 6.109375 38.703125 11.40625 
Q 43.21875 16.703125 43.21875 25.484375 
L 43.21875 27.484375 
z
M 52.203125 31.203125 
L 52.203125 0 
L 43.21875 0 
L 43.21875 8.296875 
Q 40.140625 3.328125 35.546875 0.953125 
Q 30.953125 -1.421875 24.3125 -1.421875 
Q 15.921875 -1.421875 10.953125 3.296875 
Q 6 8.015625 6 15.921875 
Q 6 25.140625 12.171875 29.828125 
Q 18.359375 34.515625 30.609375 34.515625 
L 43.21875 34.515625 
L 43.21875 35.40625 
Q 43.21875 41.609375 39.140625 45 
Q 35.0625 48.390625 27.6875 48.390625 
Q 23 48.390625 18.546875 47.265625 
Q 14.109375 46.140625 10.015625 43.890625 
L 10.015625 52.203125 
Q 14.9375 54.109375 19.578125 55.046875 
Q 24.21875 56 28.609375 56 
Q 40.484375 56 46.34375 49.84375 
Q 52.203125 43.703125 52.203125 31.203125 
z
" id="DejaVuSans-97"/>
      <path d="M 44.28125 53.078125 
L 44.28125 44.578125 
Q 40.484375 46.53125 36.375 47.5 
Q 32.28125 48.484375 27.875 48.484375 
Q 21.1875 48.484375 17.84375 46.4375 
Q 14.5 44.390625 14.5 40.28125 
Q 14.5 37.15625 16.890625 35.375 
Q 19.28125 33.59375 26.515625 31.984375 
L 29.59375 31.296875 
Q 39.15625 29.25 43.1875 25.515625 
Q 47.21875 21.78125 47.21875 15.09375 
Q 47.21875 7.46875 41.1875 3.015625 
Q 35.15625 -1.421875 24.609375 -1.421875 
Q 20.21875 -1.421875 15.453125 -0.5625 
Q 10.6875 0.296875 5.421875 2 
L 5.421875 11.28125 
Q 10.40625 8.6875 15.234375 7.390625 
Q 20.0625 6.109375 24.8125 6.109375 
Q 31.15625 6.109375 34.5625 8.28125 
Q 37.984375 10.453125 37.984375 14.40625 
Q 37.984375 18.0625 35.515625 20.015625 
Q 33.0625 21.96875 24.703125 23.78125 
L 21.578125 24.515625 
Q 13.234375 26.265625 9.515625 29.90625 
Q 5.8125 33.546875 5.8125 39.890625 
Q 5.8125 47.609375 11.28125 51.796875 
Q 16.75 56 26.8125 56 
Q 31.78125 56 36.171875 55.265625 
Q 40.578125 54.546875 44.28125 53.078125 
z
" id="DejaVuSans-115"/>
      <path d="M 25.390625 72.90625 
L 33.6875 72.90625 
L 8.296875 -9.28125 
L 0 -9.28125 
z
" id="DejaVuSans-47"/>
      <path d="M 45.40625 46.390625 
L 45.40625 75.984375 
L 54.390625 75.984375 
L 54.390625 0 
L 45.40625 0 
L 45.40625 8.203125 
Q 42.578125 3.328125 38.25 0.953125 
Q 33.9375 -1.421875 27.875 -1.421875 
Q 17.96875 -1.421875 11.734375 6.484375 
Q 5.515625 14.40625 5.515625 27.296875 
Q 5.515625 40.1875 11.734375 48.09375 
Q 17.96875 56 27.875 56 
Q 33.9375 56 38.25 53.625 
Q 42.578125 51.265625 45.40625 46.390625 
z
M 14.796875 27.296875 
Q 14.796875 17.390625 18.875 11.75 
Q 22.953125 6.109375 30.078125 6.109375 
Q 37.203125 6.109375 41.296875 11.75 
Q 45.40625 17.390625 45.40625 27.296875 
Q 45.40625 37.203125 41.296875 42.84375 
Q 37.203125 48.484375 30.078125 48.484375 
Q 22.953125 48.484375 18.875 42.84375 
Q 14.796875 37.203125 14.796875 27.296875 
z
" id="DejaVuSans-100"/>
      <path d="M 9.421875 54.6875 
L 18.40625 54.6875 
L 18.40625 0 
L 9.421875 0 
z
M 9.421875 75.984375 
L 18.40625 75.984375 
L 18.40625 64.59375 
L 9.421875 64.59375 
z
" id="DejaVuSans-105"/>
      <path d="M 52 44.1875 
Q 55.375 50.25 60.0625 53.125 
Q 64.75 56 71.09375 56 
Q 79.640625 56 84.28125 50.015625 
Q 88.921875 44.046875 88.921875 33.015625 
L 88.921875 0 
L 79.890625 0 
L 79.890625 32.71875 
Q 79.890625 40.578125 77.09375 44.375 
Q 74.3125 48.1875 68.609375 48.1875 
Q 61.625 48.1875 57.5625 43.546875 
Q 53.515625 38.921875 53.515625 30.90625 
L 53.515625 0 
L 44.484375 0 
L 44.484375 32.71875 
Q 44.484375 40.625 41.703125 44.40625 
Q 38.921875 48.1875 33.109375 48.1875 
Q 26.21875 48.1875 22.15625 43.53125 
Q 18.109375 38.875 18.109375 30.90625 
L 18.109375 0 
L 9.078125 0 
L 9.078125 54.6875 
L 18.109375 54.6875 
L 18.109375 46.1875 
Q 21.1875 51.21875 25.484375 53.609375 
Q 29.78125 56 35.6875 56 
Q 41.65625 56 45.828125 52.96875 
Q 50 49.953125 52 44.1875 
z
" id="DejaVuSans-109"/>
      <path d="M 54.890625 33.015625 
L 54.890625 0 
L 45.90625 0 
L 45.90625 32.71875 
Q 45.90625 40.484375 42.875 44.328125 
Q 39.84375 48.1875 33.796875 48.1875 
Q 26.515625 48.1875 22.3125 43.546875 
Q 18.109375 38.921875 18.109375 30.90625 
L 18.109375 0 
L 9.078125 0 
L 9.078125 54.6875 
L 18.109375 54.6875 
L 18.109375 46.1875 
Q 21.34375 51.125 25.703125 53.5625 
Q 30.078125 56 35.796875 56 
Q 45.21875 56 50.046875 50.171875 
Q 54.890625 44.34375 54.890625 33.015625 
z
" id="DejaVuSans-110"/>
      <path d="M 8.015625 75.875 
L 15.828125 75.875 
Q 23.140625 64.359375 26.78125 53.3125 
Q 30.421875 42.28125 30.421875 31.390625 
Q 30.421875 20.453125 26.78125 9.375 
Q 23.140625 -1.703125 15.828125 -13.1875 
L 8.015625 -13.1875 
Q 14.5 -2 17.703125 9.0625 
Q 20.90625 20.125 20.90625 31.390625 
Q 20.90625 42.671875 17.703125 53.65625 
Q 14.5 64.65625 8.015625 75.875 
z
" id="DejaVuSans-41"/>
     </defs>
     <g transform="translate(77.764078 342.217594)scale(0.17 -0.17)">
      <use xlink:href="#DejaVuSans-108"/>
      <use x="27.783203" xlink:href="#DejaVuSans-111"/>
      <use x="88.964844" xlink:href="#DejaVuSans-103"/>
      <use x="152.441406" xlink:href="#DejaVuSans-49"/>
      <use x="216.064453" xlink:href="#DejaVuSans-48"/>
      <use x="279.6875" xlink:href="#DejaVuSans-40"/>
      <use x="318.701172" xlink:href="#DejaVuSans-35"/>
      <use x="402.490234" xlink:href="#DejaVuSans-32"/>
      <use x="434.277344" xlink:href="#DejaVuSans-102"/>
      <use x="463.982422" xlink:href="#DejaVuSans-45"/>
      <use x="500.066406" xlink:href="#DejaVuSans-101"/>
      <use x="561.589844" xlink:href="#DejaVuSans-118"/>
      <use x="620.769531" xlink:href="#DejaVuSans-97"/>
      <use x="682.048828" xlink:href="#DejaVuSans-108"/>
      <use x="709.832031" xlink:href="#DejaVuSans-115"/>
      <use x="761.931641" xlink:href="#DejaVuSans-32"/>
      <use x="793.71875" xlink:href="#DejaVuSans-47"/>
      <use x="827.410156" xlink:href="#DejaVuSans-32"/>
      <use x="859.197266" xlink:href="#DejaVuSans-100"/>
      <use x="922.673828" xlink:href="#DejaVuSans-105"/>
      <use x="950.457031" xlink:href="#DejaVuSans-109"/>
      <use x="1047.869141" xlink:href="#DejaVuSans-101"/>
      <use x="1109.392578" xlink:href="#DejaVuSans-110"/>
      <use x="1172.771484" xlink:href="#DejaVuSans-115"/>
      <use x="1224.871094" xlink:href="#DejaVuSans-105"/>
      <use x="1252.654297" xlink:href="#DejaVuSans-111"/>
      <use x="1313.835938" xlink:href="#DejaVuSans-110"/>
      <use x="1377.214844" xlink:href="#DejaVuSans-41"/>
     </g>
    </g>
   </g>
   <g id="matplotlib.axis_2">
    <g id="ytick_1">
     <g id="line2d_21">
      <path clip-path="url(#p87b81c19fe)" d="M 57.6 298.944 
L 338.688 298.944 
" style="fill:none;stroke:#b0b0b0;stroke-linecap:square;stroke-width:0.8;"/>
     </g>
     <g id="line2d_22">
      <defs>
       <path d="M 0 0 
L -3.5 0 
" id="m2ea58e6388" style="stroke:#000000;stroke-width:0.8;"/>
      </defs>
      <g>
       <use style="stroke:#000000;stroke-width:0.8;" x="57.6" xlink:href="#m2ea58e6388" y="298.944"/>
      </g>
     </g>
     <g id="text_6">
      <!-- 0.0 -->
      <defs>
       <path d="M 10.6875 12.40625 
L 21 12.40625 
L 21 0 
L 10.6875 0 
z
" id="DejaVuSans-46"/>
      </defs>
      <g transform="translate(25.155 305.02275)scale(0.16 -0.16)">
       <use xlink:href="#DejaVuSans-48"/>
       <use x="63.623047" xlink:href="#DejaVuSans-46"/>
       <use x="95.410156" xlink:href="#DejaVuSans-48"/>
      </g>
     </g>
    </g>
    <g id="ytick_2">
     <g id="line2d_23">
      <path clip-path="url(#p87b81c19fe)" d="M 57.6 245.22202 
L 338.688 245.22202 
" style="fill:none;stroke:#b0b0b0;stroke-linecap:square;stroke-width:0.8;"/>
     </g>
     <g id="line2d_24">
      <g>
       <use style="stroke:#000000;stroke-width:0.8;" x="57.6" xlink:href="#m2ea58e6388" y="245.22202"/>
      </g>
     </g>
     <g id="text_7">
      <!-- 0.2 -->
      <g transform="translate(25.155 251.30077)scale(0.16 -0.16)">
       <use xlink:href="#DejaVuSans-48"/>
       <use x="63.623047" xlink:href="#DejaVuSans-46"/>
       <use x="95.410156" xlink:href="#DejaVuSans-50"/>
      </g>
     </g>
    </g>
    <g id="ytick_3">
     <g id="line2d_25">
      <path clip-path="url(#p87b81c19fe)" d="M 57.6 191.50004 
L 338.688 191.50004 
" style="fill:none;stroke:#b0b0b0;stroke-linecap:square;stroke-width:0.8;"/>
     </g>
     <g id="line2d_26">
      <g>
       <use style="stroke:#000000;stroke-width:0.8;" x="57.6" xlink:href="#m2ea58e6388" y="191.50004"/>
      </g>
     </g>
     <g id="text_8">
      <!-- 0.4 -->
      <g transform="translate(25.155 197.57879)scale(0.16 -0.16)">
       <use xlink:href="#DejaVuSans-48"/>
       <use x="63.623047" xlink:href="#DejaVuSans-46"/>
       <use x="95.410156" xlink:href="#DejaVuSans-52"/>
      </g>
     </g>
    </g>
    <g id="ytick_4">
     <g id="line2d_27">
      <path clip-path="url(#p87b81c19fe)" d="M 57.6 137.778059 
L 338.688 137.778059 
" style="fill:none;stroke:#b0b0b0;stroke-linecap:square;stroke-width:0.8;"/>
     </g>
     <g id="line2d_28">
      <g>
       <use style="stroke:#000000;stroke-width:0.8;" x="57.6" xlink:href="#m2ea58e6388" y="137.778059"/>
      </g>
     </g>
     <g id="text_9">
      <!-- 0.6 -->
      <g transform="translate(25.155 143.856809)scale(0.16 -0.16)">
       <use xlink:href="#DejaVuSans-48"/>
       <use x="63.623047" xlink:href="#DejaVuSans-46"/>
       <use x="95.410156" xlink:href="#DejaVuSans-54"/>
      </g>
     </g>
    </g>
    <g id="ytick_5">
     <g id="line2d_29">
      <path clip-path="url(#p87b81c19fe)" d="M 57.6 84.056079 
L 338.688 84.056079 
" style="fill:none;stroke:#b0b0b0;stroke-linecap:square;stroke-width:0.8;"/>
     </g>
     <g id="line2d_30">
      <g>
       <use style="stroke:#000000;stroke-width:0.8;" x="57.6" xlink:href="#m2ea58e6388" y="84.056079"/>
      </g>
     </g>
     <g id="text_10">
      <!-- 0.8 -->
      <defs>
       <path d="M 31.78125 34.625 
Q 24.75 34.625 20.71875 30.859375 
Q 16.703125 27.09375 16.703125 20.515625 
Q 16.703125 13.921875 20.71875 10.15625 
Q 24.75 6.390625 31.78125 6.390625 
Q 38.8125 6.390625 42.859375 10.171875 
Q 46.921875 13.96875 46.921875 20.515625 
Q 46.921875 27.09375 42.890625 30.859375 
Q 38.875 34.625 31.78125 34.625 
z
M 21.921875 38.8125 
Q 15.578125 40.375 12.03125 44.71875 
Q 8.5 49.078125 8.5 55.328125 
Q 8.5 64.0625 14.71875 69.140625 
Q 20.953125 74.21875 31.78125 74.21875 
Q 42.671875 74.21875 48.875 69.140625 
Q 55.078125 64.0625 55.078125 55.328125 
Q 55.078125 49.078125 51.53125 44.71875 
Q 48 40.375 41.703125 38.8125 
Q 48.828125 37.15625 52.796875 32.3125 
Q 56.78125 27.484375 56.78125 20.515625 
Q 56.78125 9.90625 50.3125 4.234375 
Q 43.84375 -1.421875 31.78125 -1.421875 
Q 19.734375 -1.421875 13.25 4.234375 
Q 6.78125 9.90625 6.78125 20.515625 
Q 6.78125 27.484375 10.78125 32.3125 
Q 14.796875 37.15625 21.921875 38.8125 
z
M 18.3125 54.390625 
Q 18.3125 48.734375 21.84375 45.5625 
Q 25.390625 42.390625 31.78125 42.390625 
Q 38.140625 42.390625 41.71875 45.5625 
Q 45.3125 48.734375 45.3125 54.390625 
Q 45.3125 60.0625 41.71875 63.234375 
Q 38.140625 66.40625 31.78125 66.40625 
Q 25.390625 66.40625 21.84375 63.234375 
Q 18.3125 60.0625 18.3125 54.390625 
z
" id="DejaVuSans-56"/>
      </defs>
      <g transform="translate(25.155 90.134829)scale(0.16 -0.16)">
       <use xlink:href="#DejaVuSans-48"/>
       <use x="63.623047" xlink:href="#DejaVuSans-46"/>
       <use x="95.410156" xlink:href="#DejaVuSans-56"/>
      </g>
     </g>
    </g>
    <g id="ytick_6">
     <g id="line2d_31">
      <path clip-path="url(#p87b81c19fe)" d="M 57.6 30.334099 
L 338.688 30.334099 
" style="fill:none;stroke:#b0b0b0;stroke-linecap:square;stroke-width:0.8;"/>
     </g>
     <g id="line2d_32">
      <g>
       <use style="stroke:#000000;stroke-width:0.8;" x="57.6" xlink:href="#m2ea58e6388" y="30.334099"/>
      </g>
     </g>
     <g id="text_11">
      <!-- 1.0 -->
      <g transform="translate(25.155 36.412849)scale(0.16 -0.16)">
       <use xlink:href="#DejaVuSans-49"/>
       <use x="63.623047" xlink:href="#DejaVuSans-46"/>
       <use x="95.410156" xlink:href="#DejaVuSans-48"/>
      </g>
     </g>
    </g>
    <g id="text_12">
     <!-- Fraction of function,target pairs -->
     <defs>
      <path d="M 9.8125 72.90625 
L 51.703125 72.90625 
L 51.703125 64.59375 
L 19.671875 64.59375 
L 19.671875 43.109375 
L 48.578125 43.109375 
L 48.578125 34.8125 
L 19.671875 34.8125 
L 19.671875 0 
L 9.8125 0 
z
" id="DejaVuSans-70"/>
      <path d="M 41.109375 46.296875 
Q 39.59375 47.171875 37.8125 47.578125 
Q 36.03125 48 33.890625 48 
Q 26.265625 48 22.1875 43.046875 
Q 18.109375 38.09375 18.109375 28.8125 
L 18.109375 0 
L 9.078125 0 
L 9.078125 54.6875 
L 18.109375 54.6875 
L 18.109375 46.1875 
Q 20.953125 51.171875 25.484375 53.578125 
Q 30.03125 56 36.53125 56 
Q 37.453125 56 38.578125 55.875 
Q 39.703125 55.765625 41.0625 55.515625 
z
" id="DejaVuSans-114"/>
      <path d="M 48.78125 52.59375 
L 48.78125 44.1875 
Q 44.96875 46.296875 41.140625 47.34375 
Q 37.3125 48.390625 33.40625 48.390625 
Q 24.65625 48.390625 19.8125 42.84375 
Q 14.984375 37.3125 14.984375 27.296875 
Q 14.984375 17.28125 19.8125 11.734375 
Q 24.65625 6.203125 33.40625 6.203125 
Q 37.3125 6.203125 41.140625 7.25 
Q 44.96875 8.296875 48.78125 10.40625 
L 48.78125 2.09375 
Q 45.015625 0.34375 40.984375 -0.53125 
Q 36.96875 -1.421875 32.421875 -1.421875 
Q 20.0625 -1.421875 12.78125 6.34375 
Q 5.515625 14.109375 5.515625 27.296875 
Q 5.515625 40.671875 12.859375 48.328125 
Q 20.21875 56 33.015625 56 
Q 37.15625 56 41.109375 55.140625 
Q 45.0625 54.296875 48.78125 52.59375 
z
" id="DejaVuSans-99"/>
      <path d="M 18.3125 70.21875 
L 18.3125 54.6875 
L 36.8125 54.6875 
L 36.8125 47.703125 
L 18.3125 47.703125 
L 18.3125 18.015625 
Q 18.3125 11.328125 20.140625 9.421875 
Q 21.96875 7.515625 27.59375 7.515625 
L 36.8125 7.515625 
L 36.8125 0 
L 27.59375 0 
Q 17.1875 0 13.234375 3.875 
Q 9.28125 7.765625 9.28125 18.015625 
L 9.28125 47.703125 
L 2.6875 47.703125 
L 2.6875 54.6875 
L 9.28125 54.6875 
L 9.28125 70.21875 
z
" id="DejaVuSans-116"/>
      <path d="M 8.5 21.578125 
L 8.5 54.6875 
L 17.484375 54.6875 
L 17.484375 21.921875 
Q 17.484375 14.15625 20.5 10.265625 
Q 23.53125 6.390625 29.59375 6.390625 
Q 36.859375 6.390625 41.078125 11.03125 
Q 45.3125 15.671875 45.3125 23.6875 
L 45.3125 54.6875 
L 54.296875 54.6875 
L 54.296875 0 
L 45.3125 0 
L 45.3125 8.40625 
Q 42.046875 3.421875 37.71875 1 
Q 33.40625 -1.421875 27.6875 -1.421875 
Q 18.265625 -1.421875 13.375 4.4375 
Q 8.5 10.296875 8.5 21.578125 
z
M 31.109375 56 
z
" id="DejaVuSans-117"/>
      <path d="M 11.71875 12.40625 
L 22.015625 12.40625 
L 22.015625 4 
L 14.015625 -11.625 
L 7.71875 -11.625 
L 11.71875 4 
z
" id="DejaVuSans-44"/>
      <path d="M 18.109375 8.203125 
L 18.109375 -20.796875 
L 9.078125 -20.796875 
L 9.078125 54.6875 
L 18.109375 54.6875 
L 18.109375 46.390625 
Q 20.953125 51.265625 25.265625 53.625 
Q 29.59375 56 35.59375 56 
Q 45.5625 56 51.78125 48.09375 
Q 58.015625 40.1875 58.015625 27.296875 
Q 58.015625 14.40625 51.78125 6.484375 
Q 45.5625 -1.421875 35.59375 -1.421875 
Q 29.59375 -1.421875 25.265625 0.953125 
Q 20.953125 3.328125 18.109375 8.203125 
z
M 48.6875 27.296875 
Q 48.6875 37.203125 44.609375 42.84375 
Q 40.53125 48.484375 33.40625 48.484375 
Q 26.265625 48.484375 22.1875 42.84375 
Q 18.109375 37.203125 18.109375 27.296875 
Q 18.109375 17.390625 22.1875 11.75 
Q 26.265625 6.109375 33.40625 6.109375 
Q 40.53125 6.109375 44.609375 11.75 
Q 48.6875 17.390625 48.6875 27.296875 
z
" id="DejaVuSans-112"/>
     </defs>
     <g transform="translate(17.619531 297.681)rotate(-90)scale(0.17 -0.17)">
      <use xlink:href="#DejaVuSans-70"/>
      <use x="50.269531" xlink:href="#DejaVuSans-114"/>
      <use x="91.382812" xlink:href="#DejaVuSans-97"/>
      <use x="152.662109" xlink:href="#DejaVuSans-99"/>
      <use x="207.642578" xlink:href="#DejaVuSans-116"/>
      <use x="246.851562" xlink:href="#DejaVuSans-105"/>
      <use x="274.634766" xlink:href="#DejaVuSans-111"/>
      <use x="335.816406" xlink:href="#DejaVuSans-110"/>
      <use x="399.195312" xlink:href="#DejaVuSans-32"/>
      <use x="430.982422" xlink:href="#DejaVuSans-111"/>
      <use x="492.164062" xlink:href="#DejaVuSans-102"/>
      <use x="527.369141" xlink:href="#DejaVuSans-32"/>
      <use x="559.15625" xlink:href="#DejaVuSans-102"/>
      <use x="594.361328" xlink:href="#DejaVuSans-117"/>
      <use x="657.740234" xlink:href="#DejaVuSans-110"/>
      <use x="721.119141" xlink:href="#DejaVuSans-99"/>
      <use x="776.099609" xlink:href="#DejaVuSans-116"/>
      <use x="815.308594" xlink:href="#DejaVuSans-105"/>
      <use x="843.091797" xlink:href="#DejaVuSans-111"/>
      <use x="904.273438" xlink:href="#DejaVuSans-110"/>
      <use x="967.652344" xlink:href="#DejaVuSans-44"/>
      <use x="999.439453" xlink:href="#DejaVuSans-116"/>
      <use x="1038.648438" xlink:href="#DejaVuSans-97"/>
      <use x="1099.927734" xlink:href="#DejaVuSans-114"/>
      <use x="1139.291016" xlink:href="#DejaVuSans-103"/>
      <use x="1202.767578" xlink:href="#DejaVuSans-101"/>
      <use x="1264.291016" xlink:href="#DejaVuSans-116"/>
      <use x="1303.5" xlink:href="#DejaVuSans-32"/>
      <use x="1335.287109" xlink:href="#DejaVuSans-112"/>
      <use x="1398.763672" xlink:href="#DejaVuSans-97"/>
      <use x="1460.042969" xlink:href="#DejaVuSans-105"/>
      <use x="1487.826172" xlink:href="#DejaVuSans-114"/>
      <use x="1528.939453" xlink:href="#DejaVuSans-115"/>
     </g>
    </g>
   </g>
   <g id="line2d_33">
    <defs>
     <path d="M 0 1.5 
C 0.397805 1.5 0.77937 1.341951 1.06066 1.06066 
C 1.341951 0.77937 1.5 0.397805 1.5 0 
C 1.5 -0.397805 1.341951 -0.77937 1.06066 -1.06066 
C 0.77937 -1.341951 0.397805 -1.5 0 -1.5 
C -0.397805 -1.5 -0.77937 -1.341951 -1.06066 -1.06066 
C -1.341951 -0.77937 -1.5 -0.397805 -1.5 0 
C -1.5 0.397805 -1.341951 0.77937 -1.06066 1.06066 
C -0.77937 1.341951 -0.397805 1.5 0 1.5 
z
" id="m7ec9825a66" style="stroke:#f5deb3;"/>
    </defs>
    <g>
     <use style="fill:#f5deb3;stroke:#f5deb3;" x="130.796184" xlink:href="#m7ec9825a66" y="30.334099"/>
     <use style="fill:#f5deb3;stroke:#f5deb3;" x="130.796184" xlink:href="#m7ec9825a66" y="30.334099"/>
    </g>
   </g>
   <g id="line2d_34">
    <defs>
     <path d="M 0 1.5 
C 0.397805 1.5 0.77937 1.341951 1.06066 1.06066 
C 1.341951 0.77937 1.5 0.397805 1.5 0 
C 1.5 -0.397805 1.341951 -0.77937 1.06066 -1.06066 
C 0.77937 -1.341951 0.397805 -1.5 0 -1.5 
C -0.397805 -1.5 -0.77937 -1.341951 -1.06066 -1.06066 
C -1.341951 -0.77937 -1.5 -0.397805 -1.5 0 
C -1.5 0.397805 -1.341951 0.77937 -1.06066 1.06066 
C -0.77937 1.341951 -0.397805 1.5 0 1.5 
z
" id="m40f1b42420" style="stroke:#ff00ff;"/>
    </defs>
    <g>
     <use style="fill:#ff00ff;stroke:#ff00ff;" x="236.744646" xlink:href="#m40f1b42420" y="30.334099"/>
     <use style="fill:#ff00ff;stroke:#ff00ff;" x="236.744646" xlink:href="#m40f1b42420" y="30.334099"/>
    </g>
   </g>
   <g id="line2d_35">
    <path d="M 45.512012 298.944 
L 45.512012 297.890628 
L 57.6 297.890628 
L 57.6 297.363942 
L 83.830028 297.363942 
L 83.830028 296.31057 
L 85.66744 296.31057 
L 85.66744 295.783884 
L 90.242884 295.783884 
L 90.242884 294.730511 
L 91.535274 294.730511 
L 91.535274 294.203825 
L 99.41757 294.203825 
L 99.41757 293.677139 
L 100.192776 293.677139 
L 100.192776 293.150453 
L 100.934985 293.150453 
L 100.934985 292.097081 
L 101.646892 292.097081 
L 101.646892 289.990337 
L 103.623262 289.990337 
L 103.623262 288.410278 
L 108.006005 288.410278 
L 108.006005 286.83022 
L 109.401893 286.83022 
L 109.401893 286.303534 
L 116.914437 286.303534 
L 116.914437 285.776848 
L 119.351785 285.776848 
L 119.351785 285.250162 
L 119.602714 285.250162 
L 119.602714 282.616732 
L 122.362027 282.616732 
L 122.362027 281.563359 
L 122.988655 281.563359 
L 122.988655 279.456615 
L 124.557288 279.456615 
L 124.557288 278.929929 
L 127.002787 278.929929 
L 127.002787 277.876557 
L 127.325746 277.876557 
L 127.325746 277.349871 
L 128.107907 277.349871 
L 128.107907 276.296499 
L 129.002426 276.296499 
L 129.002426 274.189754 
L 129.714332 274.189754 
L 129.714332 272.609696 
L 131.814826 272.609696 
L 131.814826 272.08301 
L 132.060454 272.08301 
L 132.060454 271.556324 
L 132.181982 271.556324 
L 132.181982 271.029638 
L 132.659801 271.029638 
L 132.659801 270.502952 
L 133.009765 270.502952 
L 133.009765 269.976266 
L 136.073445 269.976266 
L 136.073445 268.922893 
L 136.361705 268.922893 
L 136.361705 267.869521 
L 137.198951 267.869521 
L 137.289545 266.816149 
L 137.910857 266.816149 
L 137.910857 265.762777 
L 139.493548 265.762777 
L 139.493548 265.236091 
L 141.235139 265.236091 
L 141.307054 263.656033 
L 142.686372 263.656033 
L 142.686372 263.129347 
L 143.337167 263.129347 
L 143.337167 261.549288 
L 144.209312 261.549288 
L 144.269971 260.495916 
L 145.832743 260.495916 
L 145.832743 259.96923 
L 146.161795 259.96923 
L 146.161795 259.442544 
L 146.377764 259.442544 
L 146.377764 258.389172 
L 146.538004 258.389172 
L 146.538004 257.862486 
L 147.368603 257.862486 
L 147.368603 257.3358 
L 147.570215 257.3358 
L 147.570215 256.809114 
L 148.015498 256.809114 
L 148.015498 256.282427 
L 148.161434 256.282427 
L 148.161434 255.229055 
L 148.54473 255.229055 
L 148.54473 254.175683 
L 149.104327 254.175683 
L 149.104327 253.648997 
L 149.467659 253.648997 
L 149.467659 252.068939 
L 149.60198 252.068939 
L 149.60198 250.488881 
L 149.911431 250.488881 
L 149.955193 249.435508 
L 151.219462 249.435508 
L 151.219462 248.908822 
L 151.461678 248.908822 
L 151.461678 246.802078 
L 151.779487 246.802078 
L 151.779487 246.275392 
L 151.936246 246.275392 
L 151.936246 245.22202 
L 152.091608 245.22202 
L 152.091608 244.168648 
L 152.474064 244.168648 
L 152.474064 243.115275 
L 152.922207 243.115275 
L 152.922207 241.008531 
L 153.502361 241.008531 
L 153.502361 240.481845 
L 153.644434 240.481845 
L 153.644434 239.428473 
L 153.994632 239.428473 
L 153.994632 238.901787 
L 154.473387 238.901787 
L 154.57429 237.848415 
L 154.77436 237.848415 
L 154.77436 236.795043 
L 154.93935 236.795043 
L 154.93935 235.214984 
L 156.236431 235.214984 
L 156.297301 234.161612 
L 156.478647 234.161612 
L 156.478647 233.634926 
L 156.747178 233.634926 
L 156.747178 233.10824 
L 156.923929 233.10824 
L 156.923929 231.528182 
L 157.669802 231.528182 
L 157.753847 230.47481 
L 158.031107 230.47481 
L 158.058592 228.894751 
L 159.072168 228.894751 
L 159.072168 228.368065 
L 159.252621 228.368065 
L 159.252621 226.788007 
L 160.418152 226.788007 
L 160.418152 225.734635 
L 160.938061 225.734635 
L 160.938061 225.207949 
L 161.26102 225.207949 
L 161.26102 224.154577 
L 161.465522 224.154577 
L 161.465522 223.627891 
L 162.065021 223.627891 
L 162.065021 223.101204 
L 162.346481 223.101204 
L 162.346481 222.047832 
L 162.875305 222.047832 
L 162.896128 220.99446 
L 163.061823 220.99446 
L 163.061823 219.941088 
L 163.225959 219.941088 
L 163.225959 219.414402 
L 163.348054 219.414402 
L 163.348054 218.887716 
L 163.729146 218.887716 
L 163.729146 218.36103 
L 163.906798 218.36103 
L 163.906798 217.307658 
L 164.787563 217.307658 
L 164.787563 215.727599 
L 165.102127 215.727599 
L 165.102127 215.200913 
L 165.483031 215.200913 
L 165.483031 214.147541 
L 165.608172 214.147541 
L 165.608172 213.094169 
L 165.785402 213.094169 
L 165.785402 212.567483 
L 166.186323 212.567483 
L 166.186323 210.460738 
L 166.6119 210.460738 
L 166.6119 209.934052 
L 166.795913 209.934052 
L 166.795913 208.88068 
L 167.141909 208.88068 
L 167.141909 208.353994 
L 167.43311 208.353994 
L 167.449146 207.300622 
L 167.735303 207.300622 
L 167.735303 206.773936 
L 167.907893 206.773936 
L 168.001318 205.720564 
L 168.370092 205.720564 
L 168.370092 204.667192 
L 168.835167 204.667192 
L 168.835167 204.140506 
L 169.813865 204.140506 
L 169.883706 202.560447 
L 169.981016 202.560447 
L 170.036379 201.507075 
L 170.242438 201.507075 
L 170.242438 200.453703 
L 170.767069 200.453703 
L 170.872762 196.240214 
L 170.899085 196.240214 
L 170.977818 194.660156 
L 171.082245 194.660156 
L 171.082245 194.13347 
L 171.569909 194.13347 
L 171.569909 192.553412 
L 171.970255 192.553412 
L 171.970255 192.026726 
L 172.732551 192.026726 
L 172.827009 190.446667 
L 172.909242 190.446667 
L 173.00275 187.813237 
L 173.349008 187.813237 
L 173.383259 185.706493 
L 173.598631 185.706493 
L 173.609893 184.653121 
L 173.844732 184.653121 
L 173.955458 183.599748 
L 174.196608 183.599748 
L 174.196608 183.073062 
L 174.359138 183.073062 
L 174.359138 182.01969 
L 174.647927 182.01969 
L 174.690307 180.439632 
L 175.077514 180.439632 
L 175.077514 179.912946 
L 175.405599 179.912946 
L 175.405599 177.279515 
L 175.62763 177.279515 
L 175.62763 176.752829 
L 176.043814 176.752829 
L 176.043814 176.226143 
L 176.277249 176.226143 
L 176.296562 173.592713 
L 176.402401 173.592713 
L 176.402401 173.066027 
L 176.536182 173.066027 
L 176.536182 172.539341 
L 176.772554 172.539341 
L 176.85687 171.485969 
L 177.107399 171.485969 
L 177.107399 170.959282 
L 177.272441 170.959282 
L 177.272441 167.27248 
L 177.517111 167.27248 
L 177.517111 166.745794 
L 177.678338 166.745794 
L 177.678338 165.692422 
L 177.899821 165.692422 
L 177.899821 165.165736 
L 178.022633 165.165736 
L 178.022633 164.63905 
L 178.351686 164.63905 
L 178.351686 164.112363 
L 178.479885 164.112363 
L 178.479885 163.585677 
L 178.666222 163.585677 
L 178.683063 161.478933 
L 179.008261 161.478933 
L 179.008261 160.952247 
L 179.180888 160.952247 
L 179.221739 158.845503 
L 179.456806 158.845503 
L 179.513075 157.265444 
L 179.736352 157.265444 
L 179.736352 156.738758 
L 180.089306 156.738758 
L 180.089306 156.212072 
L 180.397157 156.212072 
L 180.49605 155.1587 
L 180.541504 155.1587 
L 180.541504 154.105328 
L 180.796864 154.105328 
L 180.796864 153.578642 
L 180.989647 153.578642 
L 180.989647 150.418525 
L 181.165729 150.418525 
L 181.165729 149.891839 
L 181.690637 149.891839 
L 181.718947 148.311781 
L 181.894854 148.311781 
L 181.894854 146.731723 
L 182.138181 146.731723 
L 182.138181 146.205037 
L 182.303092 146.205037 
L 182.303092 144.098292 
L 182.675235 144.098292 
L 182.681928 143.04492 
L 183.052709 143.04492 
L 183.144185 140.938176 
L 183.594505 140.938176 
L 183.594505 140.41149 
L 183.708446 140.41149 
L 183.739965 139.358118 
L 183.959015 139.358118 
L 183.959015 138.831432 
L 184.150759 138.831432 
L 184.248905 137.251373 
L 185.545227 137.251373 
L 185.545227 136.724687 
L 186.799447 136.724687 
L 186.799447 136.198001 
L 188.321706 136.198001 
L 188.321706 135.671315 
L 194.288194 135.671315 
L 194.305384 134.617943 
L 194.972836 134.617943 
L 194.97945 133.564571 
L 195.248458 133.564571 
L 195.358793 131.984513 
L 195.378191 131.984513 
L 195.478075 130.404454 
L 195.50055 130.404454 
L 195.50055 129.351082 
L 195.622056 129.351082 
L 195.685669 128.29771 
L 195.790124 128.29771 
L 195.805896 127.244338 
L 195.959713 127.244338 
L 195.987819 126.190966 
L 196.127669 126.190966 
L 196.127669 125.66428 
L 196.413188 125.66428 
L 196.480052 124.610907 
L 196.631068 124.610907 
L 196.727037 123.557535 
L 196.870007 123.557535 
L 196.870007 123.030849 
L 197.082289 123.030849 
L 197.16415 120.397419 
L 197.332506 120.397419 
L 197.332506 119.870733 
L 197.476348 119.870733 
L 197.579184 117.237302 
L 197.647407 117.237302 
L 197.647407 116.710616 
L 197.881305 116.710616 
L 197.970652 115.130558 
L 198.106583 115.130558 
L 198.186535 112.497128 
L 198.290749 112.497128 
L 198.378027 110.917069 
L 198.588956 110.917069 
L 198.690799 109.863697 
L 198.749491 109.863697 
L 198.834509 108.283639 
L 198.892719 108.283639 
L 198.913838 107.230267 
L 199.013807 107.230267 
L 199.110598 105.650209 
L 199.193878 105.650209 
L 199.263837 104.596836 
L 199.359254 104.596836 
L 199.420868 103.016778 
L 199.489924 103.016778 
L 199.489924 102.490092 
L 199.690422 102.490092 
L 199.690422 100.383348 
L 199.803607 100.383348 
L 199.803607 99.856662 
L 200.032747 99.856662 
L 200.119135 96.169859 
L 200.246698 96.169859 
L 200.322304 93.009743 
L 200.363626 93.009743 
L 200.363626 92.483056 
L 200.657337 92.483056 
L 200.738317 90.902998 
L 200.799991 90.902998 
L 200.856727 88.796254 
L 201.023499 88.796254 
L 201.095818 84.582765 
L 201.232633 84.582765 
L 201.232633 84.056079 
L 201.503086 84.056079 
L 201.503086 83.529393 
L 201.679585 83.529393 
L 201.679585 83.002707 
L 201.878816 83.002707 
L 201.914393 81.949335 
L 203.505511 81.949335 
L 203.505511 81.422649 
L 206.814353 81.422649 
L 206.903017 79.842591 
L 207.027721 79.842591 
L 207.116958 78.789218 
L 207.416023 78.789218 
L 207.495237 77.20916 
L 207.958402 77.20916 
L 207.980378 75.629102 
L 208.130327 75.629102 
L 208.229581 73.522358 
L 208.245039 73.522358 
L 208.326736 71.415613 
L 208.434055 71.415613 
L 208.540718 70.362241 
L 208.565007 70.362241 
L 208.643712 69.308869 
L 208.72507 69.308869 
L 208.740095 68.255497 
L 208.897079 68.255497 
L 208.897079 67.728811 
L 209.183459 67.728811 
L 209.222946 66.148752 
L 209.322 66.148752 
L 209.322 65.622066 
L 209.555739 65.622066 
L 209.602971 64.568694 
L 209.736813 64.568694 
L 209.83582 60.881892 
L 209.880894 60.881892 
L 209.880894 60.355206 
L 210.094807 60.355206 
L 210.094807 59.82852 
L 210.24975 59.82852 
L 210.24975 59.301833 
L 211.49732 59.301833 
L 211.49732 58.775147 
L 213.721359 58.775147 
L 213.721359 58.248461 
L 213.859637 58.248461 
L 213.859637 57.721775 
L 214.207747 57.721775 
L 214.299706 56.668403 
L 214.409637 56.668403 
L 214.457312 54.561659 
L 214.696953 54.561659 
L 214.771503 53.508287 
L 214.894345 53.508287 
L 214.897511 52.454914 
L 215.06133 52.454914 
L 215.094745 51.401542 
L 215.367999 51.401542 
L 215.367999 50.874856 
L 215.678451 50.874856 
L 215.678451 50.34817 
L 215.884052 50.34817 
L 215.942778 47.188054 
L 216.136462 47.188054 
L 216.15905 46.134681 
L 216.553992 46.134681 
L 216.553992 45.081309 
L 218.93669 45.081309 
L 218.937526 44.027937 
L 219.301108 44.027937 
L 219.301108 43.501251 
L 219.658067 43.501251 
L 219.658067 42.974565 
L 219.940836 42.974565 
L 220.020455 40.867821 
L 220.268789 40.867821 
L 220.314477 39.287762 
L 222.670601 39.287762 
L 222.670601 38.761076 
L 222.821958 38.761076 
L 222.821958 38.23439 
L 223.42688 38.23439 
L 223.501765 37.181018 
L 223.542302 37.181018 
L 223.542302 36.654332 
L 223.886574 36.654332 
L 223.996498 35.60096 
L 226.583671 35.60096 
L 226.668219 34.020902 
L 228.583354 34.020902 
L 228.583354 33.494215 
L 229.093277 33.494215 
L 229.093277 32.967529 
L 231.300763 32.967529 
L 231.300763 32.440843 
L 233.234908 32.440843 
L 233.234908 31.914157 
L 233.403305 31.914157 
L 233.403305 31.387471 
L 236.689392 31.387471 
L 236.744646 30.334099 
L 338.688 30.334099 
L 338.688 30.334099 
" style="fill:none;stroke:#ff00ff;stroke-linecap:square;stroke-width:1.5;"/>
   </g>
   <g id="line2d_36">
    <defs>
     <path d="M -0 8.485281 
L 5.091169 0 
L 0 -8.485281 
L -5.091169 -0 
z
" id="m170ad30bc7" style="stroke:#ff00ff;stroke-linejoin:miter;stroke-width:1.5;"/>
    </defs>
    <g>
     <use style="fill-opacity:0;stroke:#ff00ff;stroke-linejoin:miter;stroke-width:1.5;" x="157.753847" xlink:href="#m170ad30bc7" y="230.47481"/>
     <use style="fill-opacity:0;stroke:#ff00ff;stroke-linejoin:miter;stroke-width:1.5;" x="198.106583" xlink:href="#m170ad30bc7" y="114.603872"/>
     <use style="fill-opacity:0;stroke:#ff00ff;stroke-linejoin:miter;stroke-width:1.5;" x="229.093277" xlink:href="#m170ad30bc7" y="32.967529"/>
     <use style="fill-opacity:0;stroke:#ff00ff;stroke-linejoin:miter;stroke-width:1.5;" x="236.744646" xlink:href="#m170ad30bc7" y="30.334099"/>
     <use style="fill-opacity:0;stroke:#ff00ff;stroke-linejoin:miter;stroke-width:1.5;" x="236.744646" xlink:href="#m170ad30bc7" y="30.334099"/>
     <use style="fill-opacity:0;stroke:#ff00ff;stroke-linejoin:miter;stroke-width:1.5;" x="338.688" xlink:href="#m170ad30bc7" y="30.334099"/>
    </g>
   </g>
   <g id="line2d_37">
    <path style="fill:none;stroke:#ff00ff;stroke-linecap:square;stroke-width:1.5;"/>
    <g/>
   </g>
   <g id="line2d_38">
    <path clip-path="url(#p87b81c19fe)" d="M 194.045737 135.671315 
" style="fill:none;stroke:#ff00ff;stroke-linecap:square;stroke-width:1.5;"/>
    <defs>
     <path d="M -12 12 
L 12 -12 
M -12 -12 
L 12 12 
" id="m384cc4600c" style="stroke:#ff00ff;"/>
    </defs>
    <g clip-path="url(#p87b81c19fe)">
     <use style="fill:#ff00ff;stroke:#ff00ff;" x="194.045737" xlink:href="#m384cc4600c" y="135.671315"/>
    </g>
   </g>
   <g id="line2d_39">
    <defs>
     <path d="M 0 1.5 
C 0.397805 1.5 0.77937 1.341951 1.06066 1.06066 
C 1.341951 0.77937 1.5 0.397805 1.5 0 
C 1.5 -0.397805 1.341951 -0.77937 1.06066 -1.06066 
C 0.77937 -1.341951 0.397805 -1.5 0 -1.5 
C -0.397805 -1.5 -0.77937 -1.341951 -1.06066 -1.06066 
C -1.341951 -0.77937 -1.5 -0.397805 -1.5 0 
C -1.5 0.397805 -1.341951 0.77937 -1.06066 1.06066 
C -0.77937 1.341951 -0.397805 1.5 0 1.5 
z
" id="md3d57532b4" style="stroke:#ff7500;"/>
    </defs>
    <g>
     <use style="fill:#ff7500;stroke:#ff7500;" x="269.79319" xlink:href="#md3d57532b4" y="135.671315"/>
     <use style="fill:#ff7500;stroke:#ff7500;" x="269.79319" xlink:href="#md3d57532b4" y="135.671315"/>
    </g>
   </g>
   <g id="line2d_40">
    <path d="M 45.512012 298.944 
L 45.512012 297.363942 
L 57.6 297.363942 
L 57.6 296.31057 
L 69.687988 296.31057 
L 69.687988 295.783884 
L 83.830028 295.783884 
L 83.830028 295.257197 
L 85.66744 295.257197 
L 85.66744 294.730511 
L 90.242884 294.730511 
L 90.242884 293.677139 
L 91.535274 293.677139 
L 91.535274 292.623767 
L 99.41757 292.623767 
L 99.41757 292.097081 
L 100.934985 292.097081 
L 100.934985 291.570395 
L 101.646892 291.570395 
L 101.646892 288.936964 
L 102.330873 288.936964 
L 102.330873 288.410278 
L 103.623262 288.410278 
L 103.623262 287.356906 
L 108.006005 287.356906 
L 108.006005 285.776848 
L 109.401893 285.776848 
L 109.401893 285.250162 
L 111.505558 285.250162 
L 111.505558 284.723476 
L 111.897469 284.723476 
L 111.897469 283.670104 
L 115.077025 283.670104 
L 115.077025 282.616732 
L 116.621333 282.616732 
L 116.621333 281.563359 
L 117.202696 281.563359 
L 117.202696 281.036673 
L 117.765302 281.036673 
L 117.765302 280.509987 
L 120.8059 280.509987 
L 120.8059 278.403243 
L 124.557288 278.403243 
L 124.557288 277.349871 
L 126.50685 277.349871 
L 126.50685 276.823185 
L 126.839037 276.823185 
L 126.839037 276.296499 
L 127.48501 276.296499 
L 127.48501 275.769812 
L 127.642832 275.769812 
L 127.642832 275.243126 
L 129.433047 275.243126 
L 129.433047 273.136382 
L 129.574256 273.136382 
L 129.574256 272.08301 
L 132.060454 272.08301 
L 132.060454 271.556324 
L 132.181982 271.556324 
L 132.181982 268.922893 
L 132.30267 268.922893 
L 132.30267 266.816149 
L 132.777237 266.816149 
L 132.777237 266.289463 
L 134.450015 266.289463 
L 134.450015 265.236091 
L 136.266147 265.236091 
L 136.266147 264.709405 
L 136.831795 264.709405 
L 136.831795 264.182719 
L 140.042245 264.182719 
L 140.042245 263.656033 
L 145.097753 263.656033 
L 145.155404 260.495916 
L 145.212864 260.495916 
L 145.212864 259.96923 
L 145.553708 259.96923 
L 145.553708 258.915858 
L 145.721664 258.915858 
L 145.721664 257.862486 
L 147.317833 257.862486 
L 147.317833 257.3358 
L 148.306159 257.3358 
L 148.306159 255.755741 
L 148.449693 255.755741 
L 148.449693 254.175683 
L 148.780082 254.175683 
L 148.780082 253.648997 
L 149.377533 253.648997 
L 149.467659 251.542253 
L 149.557321 251.542253 
L 149.557321 251.015567 
L 149.998846 251.015567 
L 149.998846 250.488881 
L 150.344189 250.488881 
L 150.344189 249.962195 
L 150.766468 249.962195 
L 150.766468 248.908822 
L 152.587184 248.908822 
L 152.587184 248.382136 
L 153.750233 248.382136 
L 153.785358 247.328764 
L 153.994632 247.328764 
L 153.994632 246.802078 
L 155.004911 246.802078 
L 155.004911 245.748706 
L 156.418408 245.748706 
L 156.418408 245.22202 
L 156.747178 245.22202 
L 156.747178 244.695334 
L 157.528821 244.695334 
L 157.528821 244.168648 
L 158.358103 244.168648 
L 158.358103 243.115275 
L 160.394148 243.115275 
L 160.394148 242.588589 
L 160.56149 242.588589 
L 160.56149 241.008531 
L 160.961329 241.008531 
L 161.054091 238.901787 
L 161.734513 238.901787 
L 161.734513 237.848415 
L 162.173813 237.848415 
L 162.173813 236.795043 
L 162.453536 236.795043 
L 162.453536 236.268356 
L 162.749842 236.268356 
L 162.854457 234.688298 
L 165.102127 234.688298 
L 165.102127 234.161612 
L 165.643763 234.161612 
L 165.714726 233.10824 
L 165.978297 233.10824 
L 165.978297 232.581554 
L 166.493781 232.581554 
L 166.493781 232.054868 
L 166.679039 232.054868 
L 166.679039 231.001496 
L 167.207042 231.001496 
L 167.207042 230.47481 
L 168.125111 230.47481 
L 168.155922 228.368065 
L 168.521475 228.368065 
L 168.521475 227.841379 
L 170.647393 227.841379 
L 170.647393 225.734635 
L 171.43014 225.734635 
L 171.43014 225.207949 
L 172.361615 225.207949 
L 172.361615 224.681263 
L 173.417442 224.681263 
L 173.508272 221.521146 
L 173.576085 221.521146 
L 173.576085 220.467774 
L 174.185719 220.467774 
L 174.185719 219.414402 
L 174.305129 219.414402 
L 174.326753 217.307658 
L 174.466655 217.307658 
L 174.466655 215.727599 
L 174.753684 215.727599 
L 174.84832 212.567483 
L 175.232072 212.567483 
L 175.232072 211.514111 
L 176.160922 211.514111 
L 176.160922 210.460738 
L 176.383205 210.460738 
L 176.383205 209.934052 
L 176.574218 209.934052 
L 176.67839 207.827308 
L 176.744358 207.827308 
L 176.791327 206.773936 
L 177.36346 206.773936 
L 177.36346 206.24725 
L 178.187935 206.24725 
L 178.187935 205.720564 
L 178.649364 205.720564 
L 178.649364 205.193878 
L 179.024776 205.193878 
L 179.024776 204.140506 
L 179.688747 204.140506 
L 179.688747 202.560447 
L 180.05044 202.560447 
L 180.05044 200.980389 
L 180.781946 200.980389 
L 180.796864 196.240214 
L 181.978663 196.240214 
L 182.027367 192.553412 
L 182.446122 192.553412 
L 182.446122 190.973354 
L 183.144185 190.973354 
L 183.144185 189.919981 
L 184.089136 189.919981 
L 184.132295 187.813237 
L 185.201133 187.813237 
L 185.224285 186.233179 
L 185.499738 186.233179 
L 185.596261 185.179807 
L 186.355212 185.179807 
L 186.355212 184.653121 
L 187.959598 184.653121 
L 187.959598 184.126434 
L 188.077864 184.126434 
L 188.087684 181.493004 
L 188.413479 181.493004 
L 188.413479 180.439632 
L 188.742757 180.439632 
L 188.742757 179.912946 
L 189.273518 179.912946 
L 189.273518 178.859574 
L 190.930239 178.859574 
L 190.955242 177.279515 
L 191.56089 177.279515 
L 191.657151 173.592713 
L 191.962451 173.592713 
L 192.056526 172.012655 
L 192.281803 172.012655 
L 192.281803 171.485969 
L 192.496585 171.485969 
L 192.496585 170.432596 
L 192.625709 170.432596 
L 192.625709 169.90591 
L 192.780157 169.90591 
L 192.877395 165.165736 
L 193.140201 165.165736 
L 193.187895 164.112363 
L 193.625663 164.112363 
L 193.625663 163.585677 
L 201.872138 163.585677 
L 201.872138 163.058991 
L 204.469841 163.058991 
L 204.469841 162.005619 
L 204.935522 162.005619 
L 204.935522 161.478933 
L 205.167467 161.478933 
L 205.167467 160.425561 
L 205.369059 160.425561 
L 205.438161 157.79213 
L 205.512413 157.79213 
L 205.559337 155.685386 
L 205.924954 155.685386 
L 205.924954 154.632014 
L 212.113311 154.632014 
L 212.113311 153.578642 
L 212.698711 153.578642 
L 212.698711 152.52527 
L 212.82393 152.52527 
L 212.82393 151.998584 
L 217.936885 151.998584 
L 217.936885 151.471897 
L 218.117641 151.471897 
L 218.117641 150.945211 
L 222.029968 150.945211 
L 222.029968 149.365153 
L 224.97656 149.365153 
L 224.97656 148.838467 
L 225.177253 148.838467 
L 225.223421 147.785095 
L 227.854492 147.785095 
L 227.921617 146.205037 
L 230.121656 146.205037 
L 230.223164 143.571606 
L 230.257744 143.571606 
L 230.257744 143.04492 
L 232.286852 143.04492 
L 232.317576 141.991548 
L 235.825534 141.991548 
L 235.825534 141.464862 
L 237.3461 141.464862 
L 237.3461 139.884804 
L 240.039328 139.884804 
L 240.039328 139.358118 
L 243.366701 139.358118 
L 243.430509 137.778059 
L 247.120244 137.778059 
L 247.120244 137.251373 
L 250.164007 137.251373 
L 250.164007 136.724687 
L 253.918611 136.724687 
L 253.918611 136.198001 
L 269.79319 136.198001 
L 269.79319 135.671315 
L 338.688 135.671315 
L 338.688 135.671315 
" style="fill:none;stroke:#ff7500;stroke-linecap:square;stroke-width:1.5;"/>
   </g>
   <g id="line2d_41">
    <defs>
     <path d="M 0 -6 
L -1.347084 -1.854102 
L -5.706339 -1.854102 
L -2.179628 0.708204 
L -3.526712 4.854102 
L -0 2.291796 
L 3.526712 4.854102 
L 2.179628 0.708204 
L 5.706339 -1.854102 
L 1.347084 -1.854102 
z
" id="m4997c45d6d" style="stroke:#ff7500;stroke-linejoin:bevel;stroke-width:1.5;"/>
    </defs>
    <g>
     <use style="fill-opacity:0;stroke:#ff7500;stroke-linejoin:bevel;stroke-width:1.5;" x="69.687988" xlink:href="#m4997c45d6d" y="295.783884"/>
     <use style="fill-opacity:0;stroke:#ff7500;stroke-linejoin:bevel;stroke-width:1.5;" x="153.994632" xlink:href="#m4997c45d6d" y="246.802078"/>
     <use style="fill-opacity:0;stroke:#ff7500;stroke-linejoin:bevel;stroke-width:1.5;" x="192.281803" xlink:href="#m4997c45d6d" y="171.485969"/>
     <use style="fill-opacity:0;stroke:#ff7500;stroke-linejoin:bevel;stroke-width:1.5;" x="253.918611" xlink:href="#m4997c45d6d" y="136.724687"/>
     <use style="fill-opacity:0;stroke:#ff7500;stroke-linejoin:bevel;stroke-width:1.5;" x="269.79319" xlink:href="#m4997c45d6d" y="135.671315"/>
     <use style="fill-opacity:0;stroke:#ff7500;stroke-linejoin:bevel;stroke-width:1.5;" x="338.688" xlink:href="#m4997c45d6d" y="135.671315"/>
    </g>
   </g>
   <g id="line2d_42">
    <path style="fill:none;stroke:#ff7500;stroke-linecap:square;stroke-width:1.5;"/>
    <g/>
   </g>
   <g id="line2d_43">
    <path clip-path="url(#p87b81c19fe)" d="M 194.045737 163.585677 
" style="fill:none;stroke:#ff7500;stroke-linecap:square;stroke-width:1.5;"/>
    <defs>
     <path d="M -12 12 
L 12 -12 
M -12 -12 
L 12 12 
" id="mc965199fd4" style="stroke:#ff7500;"/>
    </defs>
    <g clip-path="url(#p87b81c19fe)">
     <use style="fill:#ff7500;stroke:#ff7500;" x="194.045737" xlink:href="#mc965199fd4" y="163.585677"/>
    </g>
   </g>
   <g id="line2d_44">
    <defs>
     <path d="M 0 1.5 
C 0.397805 1.5 0.77937 1.341951 1.06066 1.06066 
C 1.341951 0.77937 1.5 0.397805 1.5 0 
C 1.5 -0.397805 1.341951 -0.77937 1.06066 -1.06066 
C 0.77937 -1.341951 0.397805 -1.5 0 -1.5 
C -0.397805 -1.5 -0.77937 -1.341951 -1.06066 -1.06066 
C -1.341951 -0.77937 -1.5 -0.397805 -1.5 0 
C -1.5 0.397805 -1.341951 0.77937 -1.06066 1.06066 
C -0.77937 1.341951 -0.397805 1.5 0 1.5 
z
" id="me3a25a5378" style="stroke:#6495ed;"/>
    </defs>
    <g>
     <use style="fill:#6495ed;stroke:#6495ed;" x="212.847679" xlink:href="#me3a25a5378" y="30.334099"/>
     <use style="fill:#6495ed;stroke:#6495ed;" x="212.847679" xlink:href="#me3a25a5378" y="30.334099"/>
    </g>
   </g>
   <g id="line2d_45">
    <path d="M 45.512012 298.944 
L 45.512012 297.890628 
L 57.6 297.890628 
L 57.6 296.31057 
L 83.830028 296.31057 
L 83.830028 295.257197 
L 85.66744 295.257197 
L 85.66744 294.730511 
L 90.242884 294.730511 
L 90.242884 293.677139 
L 91.535274 293.677139 
L 91.535274 293.150453 
L 99.41757 293.150453 
L 99.41757 292.623767 
L 100.934985 292.623767 
L 100.934985 292.097081 
L 101.646892 292.097081 
L 101.646892 288.936964 
L 102.330873 288.936964 
L 102.330873 287.883592 
L 103.623262 287.883592 
L 103.623262 285.776848 
L 108.006005 285.776848 
L 108.006005 284.723476 
L 111.505558 284.723476 
L 111.505558 284.19679 
L 112.655818 284.19679 
L 112.655818 283.670104 
L 115.077025 283.670104 
L 115.077025 282.616732 
L 119.850084 282.616732 
L 119.850084 282.090045 
L 124.178158 282.090045 
L 124.178158 280.509987 
L 125.110962 280.509987 
L 125.110962 279.983301 
L 125.996395 279.983301 
L 125.996395 278.929929 
L 126.50685 278.929929 
L 126.50685 277.349871 
L 126.673734 277.349871 
L 126.673734 276.296499 
L 128.260216 276.296499 
L 128.260216 275.243126 
L 129.714332 275.243126 
L 129.714332 274.189754 
L 129.991152 274.189754 
L 129.991152 272.609696 
L 131.690703 272.609696 
L 131.690703 272.08301 
L 131.938072 272.08301 
L 131.938072 271.556324 
L 133.800029 271.556324 
L 133.800029 271.029638 
L 134.236034 271.029638 
L 134.236034 269.976266 
L 134.661403 269.976266 
L 134.661403 269.449579 
L 134.973757 269.449579 
L 134.973757 267.342835 
L 136.361705 267.342835 
L 136.361705 266.289463 
L 136.551264 266.289463 
L 136.551264 265.762777 
L 137.016339 265.762777 
L 137.107884 263.656033 
L 137.289545 263.656033 
L 137.289545 262.60266 
L 137.823442 262.60266 
L 137.823442 261.022602 
L 138.67848 261.022602 
L 138.67848 260.495916 
L 139.253002 260.495916 
L 139.253002 259.96923 
L 139.493548 259.96923 
L 139.493548 259.442544 
L 139.652088 259.442544 
L 139.652088 258.915858 
L 140.195896 258.915858 
L 140.195896 258.389172 
L 140.79731 258.389172 
L 140.79731 257.3358 
L 142.147664 257.3358 
L 142.147664 256.809114 
L 142.686372 256.809114 
L 142.686372 255.755741 
L 143.527762 255.755741 
L 143.527762 255.229055 
L 144.148442 255.229055 
L 144.148442 253.648997 
L 144.510517 253.648997 
L 144.510517 253.122311 
L 145.721664 253.122311 
L 145.721664 252.595625 
L 146.801841 252.595625 
L 146.801841 249.962195 
L 147.71991 249.962195 
L 147.769524 247.85545 
L 148.015498 247.85545 
L 148.015498 247.328764 
L 149.467659 247.328764 
L 149.467659 246.802078 
L 149.911431 246.802078 
L 149.911431 246.275392 
L 150.301393 246.275392 
L 150.301393 245.22202 
L 150.51433 245.22202 
L 150.51433 244.695334 
L 151.015013 244.695334 
L 151.015013 244.168648 
L 152.662192 244.168648 
L 152.662192 243.115275 
L 153.502361 243.115275 
L 153.502361 242.061903 
L 153.715038 242.061903 
L 153.715038 241.008531 
L 154.641235 241.008531 
L 154.641235 239.428473 
L 158.003578 239.428473 
L 158.003578 238.901787 
L 160.394148 238.901787 
L 160.394148 238.375101 
L 161.077205 238.375101 
L 161.077205 237.321729 
L 161.510643 237.321729 
L 161.510643 236.268356 
L 161.712255 236.268356 
L 161.712255 235.74167 
L 161.88953 235.74167 
L 161.88953 235.214984 
L 163.061823 235.214984 
L 163.061823 234.688298 
L 164.024234 234.688298 
L 164.024234 234.161612 
L 164.505216 234.161612 
L 164.505216 233.634926 
L 165.855793 233.634926 
L 165.890882 229.421437 
L 167.304287 229.421437 
L 167.304287 228.894751 
L 168.293904 228.894751 
L 168.293904 228.368065 
L 168.521475 228.368065 
L 168.521475 226.261321 
L 168.909031 226.261321 
L 168.909031 225.734635 
L 169.488944 225.734635 
L 169.488944 225.207949 
L 169.799863 225.207949 
L 169.799863 224.681263 
L 170.119095 224.681263 
L 170.119095 222.574518 
L 170.419074 222.574518 
L 170.432588 220.99446 
L 170.58055 220.99446 
L 170.58055 219.414402 
L 170.938496 219.414402 
L 170.938496 217.834344 
L 171.455636 217.834344 
L 171.455636 217.307658 
L 172.154799 217.307658 
L 172.154799 216.780971 
L 172.494143 216.780971 
L 172.494143 216.254285 
L 172.874047 216.254285 
L 172.874047 215.200913 
L 173.199806 215.200913 
L 173.199806 214.674227 
L 173.371849 214.674227 
L 173.428822 212.567483 
L 174.261802 212.567483 
L 174.261802 212.040797 
L 175.283289 212.040797 
L 175.283289 210.460738 
L 175.547218 210.460738 
L 175.547218 208.88068 
L 175.93577 208.88068 
L 175.93577 208.353994 
L 178.179274 208.353994 
L 178.265693 207.300622 
L 178.496907 207.300622 
L 178.496907 206.24725 
L 178.683063 206.24725 
L 178.792138 205.193878 
L 178.808858 205.193878 
L 178.808858 204.667192 
L 179.041275 204.667192 
L 179.041275 204.140506 
L 179.246204 204.140506 
L 179.351823 202.560447 
L 179.480944 202.560447 
L 179.545147 201.507075 
L 179.656938 201.507075 
L 179.768016 200.453703 
L 179.862667 200.453703 
L 179.862667 199.400331 
L 180.243911 199.400331 
L 180.313038 194.660156 
L 180.774482 194.660156 
L 180.774482 193.606784 
L 181.004389 193.606784 
L 181.004389 193.080098 
L 181.426562 193.080098 
L 181.512647 190.973354 
L 181.655184 190.973354 
L 181.655184 190.446667 
L 182.220831 190.446667 
L 182.296252 188.866609 
L 182.391773 188.866609 
L 182.486773 187.813237 
L 182.507063 187.813237 
L 182.547572 186.233179 
L 182.648436 186.233179 
L 182.65514 185.179807 
L 182.762047 185.179807 
L 182.762047 184.653121 
L 182.92779 184.653121 
L 183.019922 183.599748 
L 183.052709 183.599748 
L 183.124623 179.912946 
L 183.2287 179.912946 
L 183.338605 177.279515 
L 183.460626 177.279515 
L 183.467024 176.226143 
L 183.594505 176.226143 
L 183.702136 173.066027 
L 183.739965 173.066027 
L 183.790277 171.485969 
L 183.965233 171.485969 
L 184.039681 168.325852 
L 184.113812 168.325852 
L 184.113812 167.799166 
L 184.382961 167.799166 
L 184.491881 162.532305 
L 184.564118 162.532305 
L 184.648019 160.952247 
L 184.707702 160.952247 
L 184.802771 157.79213 
L 185.038202 157.79213 
L 185.038202 157.265444 
L 185.189545 157.265444 
L 185.189545 156.738758 
L 185.692252 156.738758 
L 185.692252 155.685386 
L 185.80451 155.685386 
L 185.899365 154.632014 
L 185.949374 154.632014 
L 186.026882 151.998584 
L 186.076527 151.998584 
L 186.137014 149.365153 
L 186.441733 149.365153 
L 186.441733 148.838467 
L 186.846944 148.838467 
L 186.946792 147.258409 
L 186.962506 147.258409 
L 187.009561 143.04492 
L 187.077307 143.04492 
L 187.170676 137.778059 
L 187.232646 137.778059 
L 187.248104 136.724687 
L 187.355928 136.724687 
L 187.371278 134.091257 
L 187.5291 134.091257 
L 187.589811 132.511199 
L 187.665404 132.511199 
L 187.750682 129.877768 
L 187.805641 129.877768 
L 187.840524 128.824396 
L 187.969484 128.824396 
L 188.023758 125.66428 
L 188.097498 125.66428 
L 188.185575 118.817361 
L 188.234315 118.817361 
L 188.321706 116.18393 
L 188.360406 116.18393 
L 188.466391 113.023814 
L 188.533502 113.023814 
L 188.571736 111.970441 
L 188.704897 111.970441 
L 188.794681 110.917069 
L 188.822938 110.917069 
L 188.926157 107.230267 
L 189.010157 107.230267 
L 189.061292 106.176895 
L 189.176953 106.176895 
L 189.195387 104.07015 
L 189.310165 104.07015 
L 189.383229 103.016778 
L 189.465061 103.016778 
L 189.541995 101.963406 
L 189.582589 101.963406 
L 189.667976 97.749917 
L 189.72616 97.749917 
L 189.824183 93.536429 
L 189.95697 93.536429 
L 190.014199 87.742882 
L 190.09313 87.742882 
L 190.09313 86.162824 
L 190.21086 86.162824 
L 190.314846 84.582765 
L 190.413921 84.582765 
L 190.461106 81.949335 
L 190.525245 81.949335 
L 190.525245 81.422649 
L 190.678222 81.422649 
L 190.724699 79.842591 
L 190.842447 79.842591 
L 190.934409 78.262532 
L 190.96773 78.262532 
L 191.063174 72.995672 
L 191.203315 72.995672 
L 191.203315 69.308869 
L 191.500456 69.308869 
L 191.589021 67.728811 
L 191.82434 67.728811 
L 191.907338 65.622066 
L 191.942787 65.622066 
L 192.040882 62.46195 
L 192.064343 62.46195 
L 192.173412 59.301833 
L 192.196696 59.301833 
L 192.304942 56.668403 
L 192.328051 56.668403 
L 192.328051 55.088345 
L 192.466063 55.088345 
L 192.527053 51.928228 
L 192.580245 51.928228 
L 192.682373 47.71474 
L 192.731333 47.71474 
L 192.731333 47.188054 
L 192.922092 47.188054 
L 192.98151 44.027937 
L 193.062882 44.027937 
L 193.081322 42.974565 
L 193.220837 42.974565 
L 193.220837 41.394507 
L 193.62209 41.394507 
L 193.62209 40.867821 
L 193.954816 40.867821 
L 194.024798 39.814448 
L 204.113213 39.814448 
L 204.113213 39.287762 
L 204.269165 39.287762 
L 204.269165 38.761076 
L 204.706128 38.761076 
L 204.770362 37.181018 
L 204.920572 37.181018 
L 204.920572 36.654332 
L 205.119476 36.654332 
L 205.119476 36.127646 
L 205.363592 36.127646 
L 205.465363 33.494215 
L 205.580951 33.494215 
L 205.580951 32.967529 
L 206.112786 32.967529 
L 206.112786 32.440843 
L 211.957907 32.440843 
L 211.957907 31.387471 
L 212.762029 31.387471 
L 212.847679 30.334099 
L 338.688 30.334099 
L 338.688 30.334099 
" style="fill:none;stroke:#6495ed;stroke-linecap:square;stroke-width:1.5;"/>
   </g>
   <g id="line2d_46">
    <defs>
     <path d="M -0 6 
L 6 -6 
L -6 -6 
z
" id="m2769f9af58" style="stroke:#6495ed;stroke-linejoin:miter;stroke-width:1.5;"/>
    </defs>
    <g>
     <use style="fill-opacity:0;stroke:#6495ed;stroke-linejoin:miter;stroke-width:1.5;" x="115.077025" xlink:href="#m2769f9af58" y="282.616732"/>
     <use style="fill-opacity:0;stroke:#6495ed;stroke-linejoin:miter;stroke-width:1.5;" x="170.432588" xlink:href="#m2769f9af58" y="220.99446"/>
     <use style="fill-opacity:0;stroke:#6495ed;stroke-linejoin:miter;stroke-width:1.5;" x="191.063174" xlink:href="#m2769f9af58" y="72.995672"/>
     <use style="fill-opacity:0;stroke:#6495ed;stroke-linejoin:miter;stroke-width:1.5;" x="212.847679" xlink:href="#m2769f9af58" y="30.860785"/>
     <use style="fill-opacity:0;stroke:#6495ed;stroke-linejoin:miter;stroke-width:1.5;" x="212.847679" xlink:href="#m2769f9af58" y="30.334099"/>
     <use style="fill-opacity:0;stroke:#6495ed;stroke-linejoin:miter;stroke-width:1.5;" x="338.688" xlink:href="#m2769f9af58" y="30.334099"/>
    </g>
   </g>
   <g id="line2d_47">
    <path style="fill:none;stroke:#6495ed;stroke-linecap:square;stroke-width:1.5;"/>
    <g/>
   </g>
   <g id="line2d_48">
    <path clip-path="url(#p87b81c19fe)" d="M 194.045737 39.814448 
" style="fill:none;stroke:#6495ed;stroke-linecap:square;stroke-width:1.5;"/>
    <defs>
     <path d="M -12 12 
L 12 -12 
M -12 -12 
L 12 12 
" id="m94a1536293" style="stroke:#6495ed;"/>
    </defs>
    <g clip-path="url(#p87b81c19fe)">
     <use style="fill:#6495ed;stroke:#6495ed;" x="194.045737" xlink:href="#m94a1536293" y="39.814448"/>
    </g>
   </g>
   <g id="line2d_49">
    <path d="M 338.688 135.671315 
L 369.60768 293.571802 
" style="fill:none;stroke:#ff7500;stroke-linecap:square;stroke-width:1.5;"/>
    <g>
     <use style="fill-opacity:0;stroke:#ff7500;stroke-linejoin:bevel;stroke-width:1.5;" x="338.688" xlink:href="#m4997c45d6d" y="135.671315"/>
     <use style="fill-opacity:0;stroke:#ff7500;stroke-linejoin:bevel;stroke-width:1.5;" x="369.60768" xlink:href="#m4997c45d6d" y="293.571802"/>
    </g>
   </g>
   <g id="line2d_50">
    <path d="M 338.688 30.334099 
L 369.60768 207.616634 
" style="fill:none;stroke:#ff00ff;stroke-linecap:square;stroke-width:1.5;"/>
    <g>
     <use style="fill-opacity:0;stroke:#ff00ff;stroke-linejoin:miter;stroke-width:1.5;" x="338.688" xlink:href="#m170ad30bc7" y="30.334099"/>
     <use style="fill-opacity:0;stroke:#ff00ff;stroke-linejoin:miter;stroke-width:1.5;" x="369.60768" xlink:href="#m170ad30bc7" y="207.616634"/>
    </g>
   </g>
   <g id="line2d_51">
    <path d="M 338.688 30.334099 
L 369.60768 121.661465 
" style="fill:none;stroke:#6495ed;stroke-linecap:square;stroke-width:1.5;"/>
    <g>
     <use style="fill-opacity:0;stroke:#6495ed;stroke-linejoin:miter;stroke-width:1.5;" x="338.688" xlink:href="#m2769f9af58" y="30.334099"/>
     <use style="fill-opacity:0;stroke:#6495ed;stroke-linejoin:miter;stroke-width:1.5;" x="369.60768" xlink:href="#m2769f9af58" y="121.661465"/>
    </g>
   </g>
   <g id="line2d_52">
    <path d="M 338.688 298.944 
L 338.688 30.334099 
" style="fill:none;stroke:#000000;stroke-linecap:square;stroke-width:1.5;"/>
   </g>
   <g id="patch_3">
    <path d="M 57.6 298.944 
L 57.6 27.648 
" style="fill:none;stroke:#000000;stroke-linecap:square;stroke-linejoin:miter;stroke-width:0.8;"/>
   </g>
   <g id="patch_4">
    <path d="M 338.688 298.944 
L 338.688 27.648 
" style="fill:none;stroke:#000000;stroke-linecap:square;stroke-linejoin:miter;stroke-width:0.8;"/>
   </g>
   <g id="patch_5">
    <path d="M 57.6 298.944 
L 338.688 298.944 
" style="fill:none;stroke:#000000;stroke-linecap:square;stroke-linejoin:miter;stroke-width:0.8;"/>
   </g>
   <g id="patch_6">
    <path d="M 57.6 27.648 
L 338.688 27.648 
" style="fill:none;stroke:#000000;stroke-linecap:square;stroke-linejoin:miter;stroke-width:0.8;"/>
   </g>
   <g id="text_13">
    <!-- DEPSO -->
    <defs>
     <path d="M 19.671875 64.796875 
L 19.671875 8.109375 
L 31.59375 8.109375 
Q 46.6875 8.109375 53.6875 14.9375 
Q 60.6875 21.78125 60.6875 36.53125 
Q 60.6875 51.171875 53.6875 57.984375 
Q 46.6875 64.796875 31.59375 64.796875 
z
M 9.8125 72.90625 
L 30.078125 72.90625 
Q 51.265625 72.90625 61.171875 64.09375 
Q 71.09375 55.28125 71.09375 36.53125 
Q 71.09375 17.671875 61.125 8.828125 
Q 51.171875 0 30.078125 0 
L 9.8125 0 
z
" id="DejaVuSans-68"/>
     <path d="M 9.8125 72.90625 
L 55.90625 72.90625 
L 55.90625 64.59375 
L 19.671875 64.59375 
L 19.671875 43.015625 
L 54.390625 43.015625 
L 54.390625 34.71875 
L 19.671875 34.71875 
L 19.671875 8.296875 
L 56.78125 8.296875 
L 56.78125 0 
L 9.8125 0 
z
" id="DejaVuSans-69"/>
     <path d="M 19.671875 64.796875 
L 19.671875 37.40625 
L 32.078125 37.40625 
Q 38.96875 37.40625 42.71875 40.96875 
Q 46.484375 44.53125 46.484375 51.125 
Q 46.484375 57.671875 42.71875 61.234375 
Q 38.96875 64.796875 32.078125 64.796875 
z
M 9.8125 72.90625 
L 32.078125 72.90625 
Q 44.34375 72.90625 50.609375 67.359375 
Q 56.890625 61.8125 56.890625 51.125 
Q 56.890625 40.328125 50.609375 34.8125 
Q 44.34375 29.296875 32.078125 29.296875 
L 19.671875 29.296875 
L 19.671875 0 
L 9.8125 0 
z
" id="DejaVuSans-80"/>
     <path d="M 53.515625 70.515625 
L 53.515625 60.890625 
Q 47.90625 63.578125 42.921875 64.890625 
Q 37.9375 66.21875 33.296875 66.21875 
Q 25.25 66.21875 20.875 63.09375 
Q 16.5 59.96875 16.5 54.203125 
Q 16.5 49.359375 19.40625 46.890625 
Q 22.3125 44.4375 30.421875 42.921875 
L 36.375 41.703125 
Q 47.40625 39.59375 52.65625 34.296875 
Q 57.90625 29 57.90625 20.125 
Q 57.90625 9.515625 50.796875 4.046875 
Q 43.703125 -1.421875 29.984375 -1.421875 
Q 24.8125 -1.421875 18.96875 -0.25 
Q 13.140625 0.921875 6.890625 3.21875 
L 6.890625 13.375 
Q 12.890625 10.015625 18.65625 8.296875 
Q 24.421875 6.59375 29.984375 6.59375 
Q 38.421875 6.59375 43.015625 9.90625 
Q 47.609375 13.234375 47.609375 19.390625 
Q 47.609375 24.75 44.3125 27.78125 
Q 41.015625 30.8125 33.5 32.328125 
L 27.484375 33.5 
Q 16.453125 35.6875 11.515625 40.375 
Q 6.59375 45.0625 6.59375 53.421875 
Q 6.59375 63.09375 13.40625 68.65625 
Q 20.21875 74.21875 32.171875 74.21875 
Q 37.3125 74.21875 42.625 73.28125 
Q 47.953125 72.359375 53.515625 70.515625 
z
" id="DejaVuSans-83"/>
     <path d="M 39.40625 66.21875 
Q 28.65625 66.21875 22.328125 58.203125 
Q 16.015625 50.203125 16.015625 36.375 
Q 16.015625 22.609375 22.328125 14.59375 
Q 28.65625 6.59375 39.40625 6.59375 
Q 50.140625 6.59375 56.421875 14.59375 
Q 62.703125 22.609375 62.703125 36.375 
Q 62.703125 50.203125 56.421875 58.203125 
Q 50.140625 66.21875 39.40625 66.21875 
z
M 39.40625 74.21875 
Q 54.734375 74.21875 63.90625 63.9375 
Q 73.09375 53.65625 73.09375 36.375 
Q 73.09375 19.140625 63.90625 8.859375 
Q 54.734375 -1.421875 39.40625 -1.421875 
Q 24.03125 -1.421875 14.8125 8.828125 
Q 5.609375 19.09375 5.609375 36.375 
Q 5.609375 53.65625 14.8125 63.9375 
Q 24.03125 74.21875 39.40625 74.21875 
z
" id="DejaVuSans-79"/>
    </defs>
    <g transform="translate(375.22944 298.262739)scale(0.17 -0.17)">
     <use xlink:href="#DejaVuSans-68"/>
     <use x="77.001953" xlink:href="#DejaVuSans-69"/>
     <use x="140.185547" xlink:href="#DejaVuSans-80"/>
     <use x="200.488281" xlink:href="#DejaVuSans-83"/>
     <use x="263.964844" xlink:href="#DejaVuSans-79"/>
    </g>
   </g>
   <g id="text_14">
    <!-- DE -->
    <g transform="translate(375.22944 212.307571)scale(0.17 -0.17)">
     <use xlink:href="#DejaVuSans-68"/>
     <use x="77.001953" xlink:href="#DejaVuSans-69"/>
    </g>
   </g>
   <g id="text_15">
    <!-- PSO -->
    <g transform="translate(375.22944 126.352403)scale(0.17 -0.17)">
     <use xlink:href="#DejaVuSans-80"/>
     <use x="60.302734" xlink:href="#DejaVuSans-83"/>
     <use x="123.779297" xlink:href="#DejaVuSans-79"/>
    </g>
   </g>
   <g id="text_16">
    <!-- best 2009 -->
    <defs>
     <path d="M 48.6875 27.296875 
Q 48.6875 37.203125 44.609375 42.84375 
Q 40.53125 48.484375 33.40625 48.484375 
Q 26.265625 48.484375 22.1875 42.84375 
Q 18.109375 37.203125 18.109375 27.296875 
Q 18.109375 17.390625 22.1875 11.75 
Q 26.265625 6.109375 33.40625 6.109375 
Q 40.53125 6.109375 44.609375 11.75 
Q 48.6875 17.390625 48.6875 27.296875 
z
M 18.109375 46.390625 
Q 20.953125 51.265625 25.265625 53.625 
Q 29.59375 56 35.59375 56 
Q 45.5625 56 51.78125 48.09375 
Q 58.015625 40.1875 58.015625 27.296875 
Q 58.015625 14.40625 51.78125 6.484375 
Q 45.5625 -1.421875 35.59375 -1.421875 
Q 29.59375 -1.421875 25.265625 0.953125 
Q 20.953125 3.328125 18.109375 8.203125 
L 18.109375 0 
L 9.078125 0 
L 9.078125 75.984375 
L 18.109375 75.984375 
z
" id="DejaVuSans-98"/>
     <path d="M 10.984375 1.515625 
L 10.984375 10.5 
Q 14.703125 8.734375 18.5 7.8125 
Q 22.3125 6.890625 25.984375 6.890625 
Q 35.75 6.890625 40.890625 13.453125 
Q 46.046875 20.015625 46.78125 33.40625 
Q 43.953125 29.203125 39.59375 26.953125 
Q 35.25 24.703125 29.984375 24.703125 
Q 19.046875 24.703125 12.671875 31.3125 
Q 6.296875 37.9375 6.296875 49.421875 
Q 6.296875 60.640625 12.9375 67.421875 
Q 19.578125 74.21875 30.609375 74.21875 
Q 43.265625 74.21875 49.921875 64.515625 
Q 56.59375 54.828125 56.59375 36.375 
Q 56.59375 19.140625 48.40625 8.859375 
Q 40.234375 -1.421875 26.421875 -1.421875 
Q 22.703125 -1.421875 18.890625 -0.6875 
Q 15.09375 0.046875 10.984375 1.515625 
z
M 30.609375 32.421875 
Q 37.25 32.421875 41.125 36.953125 
Q 45.015625 41.5 45.015625 49.421875 
Q 45.015625 57.28125 41.125 61.84375 
Q 37.25 66.40625 30.609375 66.40625 
Q 23.96875 66.40625 20.09375 61.84375 
Q 16.21875 57.28125 16.21875 49.421875 
Q 16.21875 41.5 20.09375 36.953125 
Q 23.96875 32.421875 30.609375 32.421875 
z
" id="DejaVuSans-57"/>
    </defs>
    <g transform="translate(375.22944 40.397235)scale(0.17 -0.17)">
     <use xlink:href="#DejaVuSans-98"/>
     <use x="63.476562" xlink:href="#DejaVuSans-101"/>
     <use x="125" xlink:href="#DejaVuSans-115"/>
     <use x="177.099609" xlink:href="#DejaVuSans-116"/>
     <use x="216.308594" xlink:href="#DejaVuSans-32"/>
     <use x="248.095703" xlink:href="#DejaVuSans-50"/>
     <use x="311.71875" xlink:href="#DejaVuSans-48"/>
     <use x="375.341797" xlink:href="#DejaVuSans-48"/>
     <use x="438.964844" xlink:href="#DejaVuSans-57"/>
    </g>
   </g>
   <g id="text_17">
    <!-- bbob f13, 2-D -->
    <defs>
     <path d="M 40.578125 39.3125 
Q 47.65625 37.796875 51.625 33 
Q 55.609375 28.21875 55.609375 21.1875 
Q 55.609375 10.40625 48.1875 4.484375 
Q 40.765625 -1.421875 27.09375 -1.421875 
Q 22.515625 -1.421875 17.65625 -0.515625 
Q 12.796875 0.390625 7.625 2.203125 
L 7.625 11.71875 
Q 11.71875 9.328125 16.59375 8.109375 
Q 21.484375 6.890625 26.8125 6.890625 
Q 36.078125 6.890625 40.9375 10.546875 
Q 45.796875 14.203125 45.796875 21.1875 
Q 45.796875 27.640625 41.28125 31.265625 
Q 36.765625 34.90625 28.71875 34.90625 
L 20.21875 34.90625 
L 20.21875 43.015625 
L 29.109375 43.015625 
Q 36.375 43.015625 40.234375 45.921875 
Q 44.09375 48.828125 44.09375 54.296875 
Q 44.09375 59.90625 40.109375 62.90625 
Q 36.140625 65.921875 28.71875 65.921875 
Q 24.65625 65.921875 20.015625 65.03125 
Q 15.375 64.15625 9.8125 62.3125 
L 9.8125 71.09375 
Q 15.4375 72.65625 20.34375 73.4375 
Q 25.25 74.21875 29.59375 74.21875 
Q 40.828125 74.21875 47.359375 69.109375 
Q 53.90625 64.015625 53.90625 55.328125 
Q 53.90625 49.265625 50.4375 45.09375 
Q 46.96875 40.921875 40.578125 39.3125 
z
" id="DejaVuSans-51"/>
    </defs>
    <g transform="translate(60.41088 38.111366)scale(0.102 -0.102)">
     <use xlink:href="#DejaVuSans-98"/>
     <use x="63.476562" xlink:href="#DejaVuSans-98"/>
     <use x="126.953125" xlink:href="#DejaVuSans-111"/>
     <use x="188.134766" xlink:href="#DejaVuSans-98"/>
     <use x="251.611328" xlink:href="#DejaVuSans-32"/>
     <use x="283.398438" xlink:href="#DejaVuSans-102"/>
     <use x="318.603516" xlink:href="#DejaVuSans-49"/>
     <use x="382.226562" xlink:href="#DejaVuSans-51"/>
     <use x="445.849609" xlink:href="#DejaVuSans-44"/>
     <use x="477.636719" xlink:href="#DejaVuSans-32"/>
     <use x="509.423828" xlink:href="#DejaVuSans-50"/>
     <use x="573.046875" xlink:href="#DejaVuSans-45"/>
     <use x="609.130859" xlink:href="#DejaVuSans-68"/>
    </g>
    <!-- 51 targets: 100..1e-08 -->
    <defs>
     <path d="M 10.796875 72.90625 
L 49.515625 72.90625 
L 49.515625 64.59375 
L 19.828125 64.59375 
L 19.828125 46.734375 
Q 21.96875 47.46875 24.109375 47.828125 
Q 26.265625 48.1875 28.421875 48.1875 
Q 40.625 48.1875 47.75 41.5 
Q 54.890625 34.8125 54.890625 23.390625 
Q 54.890625 11.625 47.5625 5.09375 
Q 40.234375 -1.421875 26.90625 -1.421875 
Q 22.3125 -1.421875 17.546875 -0.640625 
Q 12.796875 0.140625 7.71875 1.703125 
L 7.71875 11.625 
Q 12.109375 9.234375 16.796875 8.0625 
Q 21.484375 6.890625 26.703125 6.890625 
Q 35.15625 6.890625 40.078125 11.328125 
Q 45.015625 15.765625 45.015625 23.390625 
Q 45.015625 31 40.078125 35.4375 
Q 35.15625 39.890625 26.703125 39.890625 
Q 22.75 39.890625 18.8125 39.015625 
Q 14.890625 38.140625 10.796875 36.28125 
z
" id="DejaVuSans-53"/>
     <path d="M 11.71875 12.40625 
L 22.015625 12.40625 
L 22.015625 0 
L 11.71875 0 
z
M 11.71875 51.703125 
L 22.015625 51.703125 
L 22.015625 39.3125 
L 11.71875 39.3125 
z
" id="DejaVuSans-58"/>
    </defs>
    <g transform="translate(60.41088 49.533135)scale(0.102 -0.102)">
     <use xlink:href="#DejaVuSans-53"/>
     <use x="63.623047" xlink:href="#DejaVuSans-49"/>
     <use x="127.246094" xlink:href="#DejaVuSans-32"/>
     <use x="159.033203" xlink:href="#DejaVuSans-116"/>
     <use x="198.242188" xlink:href="#DejaVuSans-97"/>
     <use x="259.521484" xlink:href="#DejaVuSans-114"/>
     <use x="298.884766" xlink:href="#DejaVuSans-103"/>
     <use x="362.361328" xlink:href="#DejaVuSans-101"/>
     <use x="423.884766" xlink:href="#DejaVuSans-116"/>
     <use x="463.09375" xlink:href="#DejaVuSans-115"/>
     <use x="515.193359" xlink:href="#DejaVuSans-58"/>
     <use x="548.884766" xlink:href="#DejaVuSans-32"/>
     <use x="580.671875" xlink:href="#DejaVuSans-49"/>
     <use x="644.294922" xlink:href="#DejaVuSans-48"/>
     <use x="707.917969" xlink:href="#DejaVuSans-48"/>
     <use x="771.541016" xlink:href="#DejaVuSans-46"/>
     <use x="803.328125" xlink:href="#DejaVuSans-46"/>
     <use x="835.115234" xlink:href="#DejaVuSans-49"/>
     <use x="898.738281" xlink:href="#DejaVuSans-101"/>
     <use x="960.261719" xlink:href="#DejaVuSans-45"/>
     <use x="996.345703" xlink:href="#DejaVuSans-48"/>
     <use x="1059.96875" xlink:href="#DejaVuSans-56"/>
    </g>
    <!-- 15 instances -->
    <g transform="translate(60.41088 60.954904)scale(0.102 -0.102)">
     <use xlink:href="#DejaVuSans-49"/>
     <use x="63.623047" xlink:href="#DejaVuSans-53"/>
     <use x="127.246094" xlink:href="#DejaVuSans-32"/>
     <use x="159.033203" xlink:href="#DejaVuSans-105"/>
     <use x="186.816406" xlink:href="#DejaVuSans-110"/>
     <use x="250.195312" xlink:href="#DejaVuSans-115"/>
     <use x="302.294922" xlink:href="#DejaVuSans-116"/>
     <use x="341.503906" xlink:href="#DejaVuSans-97"/>
     <use x="402.783203" xlink:href="#DejaVuSans-110"/>
     <use x="466.162109" xlink:href="#DejaVuSans-99"/>
     <use x="521.142578" xlink:href="#DejaVuSans-101"/>
     <use x="582.666016" xlink:href="#DejaVuSans-115"/>
    </g>
   </g>
   <g id="text_18">
    <!-- v2.4 -->
    <g style="fill:#808080;" transform="translate(187.233062 294.151352)scale(0.1 -0.1)">
     <use xlink:href="#DejaVuSans-118"/>
     <use x="59.179688" xlink:href="#DejaVuSans-50"/>
     <use x="122.802734" xlink:href="#DejaVuSans-46"/>
     <use x="154.589844" xlink:href="#DejaVuSans-52"/>
    </g>
   </g>
   <g id="text_19">
    <!-- 13 Sharp ridge -->
    <defs>
     <path d="M 54.890625 33.015625 
L 54.890625 0 
L 45.90625 0 
L 45.90625 32.71875 
Q 45.90625 40.484375 42.875 44.328125 
Q 39.84375 48.1875 33.796875 48.1875 
Q 26.515625 48.1875 22.3125 43.546875 
Q 18.109375 38.921875 18.109375 30.90625 
L 18.109375 0 
L 9.078125 0 
L 9.078125 75.984375 
L 18.109375 75.984375 
L 18.109375 46.1875 
Q 21.34375 51.125 25.703125 53.5625 
Q 30.078125 56 35.796875 56 
Q 45.21875 56 50.046875 50.171875 
Q 54.890625 44.34375 54.890625 33.015625 
z
" id="DejaVuSans-104"/>
    </defs>
    <g transform="translate(124.05025 21.648)scale(0.2 -0.2)">
     <use xlink:href="#DejaVuSans-49"/>
     <use x="63.623047" xlink:href="#DejaVuSans-51"/>
     <use x="127.246094" xlink:href="#DejaVuSans-32"/>
     <use x="159.033203" xlink:href="#DejaVuSans-83"/>
     <use x="222.509766" xlink:href="#DejaVuSans-104"/>
     <use x="285.888672" xlink:href="#DejaVuSans-97"/>
     <use x="347.167969" xlink:href="#DejaVuSans-114"/>
     <use x="388.28125" xlink:href="#DejaVuSans-112"/>
     <use x="451.757812" xlink:href="#DejaVuSans-32"/>
     <use x="483.544922" xlink:href="#DejaVuSans-114"/>
     <use x="524.658203" xlink:href="#DejaVuSans-105"/>
     <use x="552.441406" xlink:href="#DejaVuSans-100"/>
     <use x="615.917969" xlink:href="#DejaVuSans-103"/>
     <use x="679.394531" xlink:href="#DejaVuSans-101"/>
    </g>
   </g>
  </g>
 </g>
 <defs>
  <clipPath id="p87b81c19fe">
   <rect height="271.296" width="281.088" x="57.6" y="27.648"/>
  </clipPath>
 </defs>
</svg>
