<?xml version="1.0" encoding="utf-8" standalone="no"?>
<!DOCTYPE svg PUBLIC "-//W3C//DTD SVG 1.1//EN"
  "http://www.w3.org/Graphics/SVG/1.1/DTD/svg11.dtd">
<!-- Created with matplotlib (https://matplotlib.org/) -->
<svg height="345.6pt" version="1.1" viewBox="0 0 460.8 345.6" width="460.8pt" xmlns="http://www.w3.org/2000/svg" xmlns:xlink="http://www.w3.org/1999/xlink">
 <defs>
  <style type="text/css">
*{stroke-linecap:butt;stroke-linejoin:round;}
  </style>
 </defs>
 <g id="figure_1">
  <g id="patch_1">
   <path d="M 0 345.6 
L 460.8 345.6 
L 460.8 0 
L 0 0 
z
" style="fill:#ffffff;"/>
  </g>
  <g id="axes_1">
   <g id="patch_2">
    <path d="M 57.6 298.944 
L 338.688 298.944 
L 338.688 27.648 
L 57.6 27.648 
z
" style="fill:#ffffff;"/>
   </g>
   <g id="line2d_1">
    <path d="M 95.526106 298.944 
L 95.526106 293.677139 
L 98.43941 293.677139 
L 98.43941 288.410278 
L 100.343767 288.410278 
L 100.343767 283.143418 
L 108.577836 283.143418 
L 108.577836 277.876557 
L 111.974805 277.876557 
L 111.974805 272.609696 
L 114.685115 272.609696 
L 114.685115 267.342835 
L 116.323218 267.342835 
L 116.323218 262.075974 
L 117.930605 262.075974 
L 117.930605 256.809114 
L 119.301163 256.809114 
L 119.301163 251.542253 
L 120.382253 251.542253 
L 120.382253 246.275392 
L 121.489881 246.275392 
L 121.489881 241.008531 
L 122.699028 241.008531 
L 122.699028 235.74167 
L 123.514096 235.74167 
L 123.514096 230.47481 
L 124.292765 230.47481 
L 124.292765 225.207949 
L 124.965026 225.207949 
L 124.965026 219.941088 
L 125.822869 219.941088 
L 125.822869 214.674227 
L 126.773103 214.674227 
L 126.773103 209.407366 
L 127.54831 209.407366 
L 127.54831 204.140506 
L 128.650105 204.140506 
L 128.650105 198.873645 
L 129.290685 198.873645 
L 129.290685 193.606784 
L 130.073348 193.606784 
L 130.073348 188.339923 
L 130.61164 188.339923 
L 130.61164 183.073062 
L 131.236397 183.073062 
L 131.236397 177.806202 
L 135.401861 177.806202 
L 135.401861 172.539341 
L 148.733265 172.539341 
L 148.733265 167.27248 
L 154.707925 167.27248 
L 154.707925 162.005619 
L 155.271165 162.005619 
L 155.271165 156.738758 
L 155.928852 156.738758 
L 155.928852 151.471897 
L 156.394253 151.471897 
L 156.394253 146.205037 
L 156.871092 146.205037 
L 156.871092 140.938176 
L 157.335239 140.938176 
L 157.335239 135.671315 
L 157.809652 135.671315 
L 157.809652 130.404454 
L 158.325678 130.404454 
L 158.325678 125.137593 
L 158.795307 125.137593 
L 158.795307 119.870733 
L 159.232092 119.870733 
L 159.232092 114.603872 
L 159.778062 114.603872 
L 159.778062 109.337011 
L 160.239731 109.337011 
L 160.239731 104.07015 
L 160.783709 104.07015 
L 160.783709 98.803289 
L 161.210663 98.803289 
L 161.210663 93.536429 
L 161.840959 93.536429 
L 161.840959 88.269568 
L 162.147765 88.269568 
L 162.147765 83.002707 
L 162.568423 83.002707 
L 162.568423 77.735846 
L 162.90445 77.735846 
L 162.90445 72.468985 
L 163.356164 72.468985 
L 163.356164 67.202125 
L 163.764822 67.202125 
L 163.764822 61.935264 
L 164.179597 61.935264 
L 164.179597 56.668403 
L 164.410075 56.668403 
L 164.410075 51.401542 
L 164.675172 51.401542 
L 164.675172 46.134681 
L 165.054383 46.134681 
L 165.054383 40.867821 
L 165.518877 40.867821 
L 165.518877 35.60096 
L 165.810071 35.60096 
L 165.810071 30.334099 
L 338.688 30.334099 
" style="fill:none;stroke:#f5deb3;stroke-linecap:square;stroke-width:4;"/>
   </g>
   <g id="line2d_2">
    <defs>
     <path d="M -0 7.778175 
L 7.778175 0 
L 0 -7.778175 
L -7.778175 -0 
z
" id="mdcc0a6bf7d" style="stroke:#f5deb3;stroke-linejoin:miter;stroke-width:1.5;"/>
    </defs>
    <g>
     <use style="fill:#f5deb3;stroke:#f5deb3;stroke-linejoin:miter;stroke-width:1.5;" x="135.401861" xlink:href="#mdcc0a6bf7d" y="172.539341"/>
     <use style="fill:#f5deb3;stroke:#f5deb3;stroke-linejoin:miter;stroke-width:1.5;" x="165.810071" xlink:href="#mdcc0a6bf7d" y="35.60096"/>
     <use style="fill:#f5deb3;stroke:#f5deb3;stroke-linejoin:miter;stroke-width:1.5;" x="165.810071" xlink:href="#mdcc0a6bf7d" y="30.334099"/>
     <use style="fill:#f5deb3;stroke:#f5deb3;stroke-linejoin:miter;stroke-width:1.5;" x="165.810071" xlink:href="#mdcc0a6bf7d" y="30.334099"/>
     <use style="fill:#f5deb3;stroke:#f5deb3;stroke-linejoin:miter;stroke-width:1.5;" x="338.688" xlink:href="#mdcc0a6bf7d" y="30.334099"/>
    </g>
   </g>
   <g id="line2d_3">
    <path style="fill:none;stroke:#f5deb3;stroke-linecap:square;stroke-width:4;"/>
    <g/>
   </g>
   <g id="line2d_4">
    <path d="M 338.688 30.334099 
L 369.60768 35.706297 
" style="fill:none;stroke:#f5deb3;stroke-linecap:square;stroke-width:4;"/>
    <g>
     <use style="fill:#f5deb3;stroke:#f5deb3;stroke-linejoin:miter;stroke-width:1.5;" x="338.688" xlink:href="#mdcc0a6bf7d" y="30.334099"/>
     <use style="fill:#f5deb3;stroke:#f5deb3;stroke-linejoin:miter;stroke-width:1.5;" x="369.60768" xlink:href="#mdcc0a6bf7d" y="35.706297"/>
    </g>
   </g>
   <g id="matplotlib.axis_1">
    <g id="xtick_1">
     <g id="line2d_5">
      <path clip-path="url(#p397d868060)" d="M 57.6 298.944 
L 57.6 27.648 
" style="fill:none;stroke:#b0b0b0;stroke-linecap:square;stroke-width:0.8;"/>
     </g>
     <g id="line2d_6">
      <defs>
       <path d="M 0 0 
L 0 3.5 
" id="maefbf501b6" style="stroke:#000000;stroke-width:0.8;"/>
      </defs>
      <g>
       <use style="stroke:#000000;stroke-width:0.8;" x="57.6" xlink:href="#maefbf501b6" y="298.944"/>
      </g>
     </g>
     <g id="text_1">
      <!-- 0 -->
      <defs>
       <path d="M 31.78125 66.40625 
Q 24.171875 66.40625 20.328125 58.90625 
Q 16.5 51.421875 16.5 36.375 
Q 16.5 21.390625 20.328125 13.890625 
Q 24.171875 6.390625 31.78125 6.390625 
Q 39.453125 6.390625 43.28125 13.890625 
Q 47.125 21.390625 47.125 36.375 
Q 47.125 51.421875 43.28125 58.90625 
Q 39.453125 66.40625 31.78125 66.40625 
z
M 31.78125 74.21875 
Q 44.046875 74.21875 50.515625 64.515625 
Q 56.984375 54.828125 56.984375 36.375 
Q 56.984375 17.96875 50.515625 8.265625 
Q 44.046875 -1.421875 31.78125 -1.421875 
Q 19.53125 -1.421875 13.0625 8.265625 
Q 6.59375 17.96875 6.59375 36.375 
Q 6.59375 54.828125 13.0625 64.515625 
Q 19.53125 74.21875 31.78125 74.21875 
z
" id="DejaVuSans-48"/>
      </defs>
      <g transform="translate(51.2375 321.140875)scale(0.2 -0.2)">
       <use xlink:href="#DejaVuSans-48"/>
      </g>
     </g>
    </g>
    <g id="xtick_2">
     <g id="line2d_7">
      <path clip-path="url(#p397d868060)" d="M 137.910857 298.944 
L 137.910857 27.648 
" style="fill:none;stroke:#b0b0b0;stroke-linecap:square;stroke-width:0.8;"/>
     </g>
     <g id="line2d_8">
      <g>
       <use style="stroke:#000000;stroke-width:0.8;" x="137.910857" xlink:href="#maefbf501b6" y="298.944"/>
      </g>
     </g>
     <g id="text_2">
      <!-- 2 -->
      <defs>
       <path d="M 19.1875 8.296875 
L 53.609375 8.296875 
L 53.609375 0 
L 7.328125 0 
L 7.328125 8.296875 
Q 12.9375 14.109375 22.625 23.890625 
Q 32.328125 33.6875 34.8125 36.53125 
Q 39.546875 41.84375 41.421875 45.53125 
Q 43.3125 49.21875 43.3125 52.78125 
Q 43.3125 58.59375 39.234375 62.25 
Q 35.15625 65.921875 28.609375 65.921875 
Q 23.96875 65.921875 18.8125 64.3125 
Q 13.671875 62.703125 7.8125 59.421875 
L 7.8125 69.390625 
Q 13.765625 71.78125 18.9375 73 
Q 24.125 74.21875 28.421875 74.21875 
Q 39.75 74.21875 46.484375 68.546875 
Q 53.21875 62.890625 53.21875 53.421875 
Q 53.21875 48.921875 51.53125 44.890625 
Q 49.859375 40.875 45.40625 35.40625 
Q 44.1875 33.984375 37.640625 27.21875 
Q 31.109375 20.453125 19.1875 8.296875 
z
" id="DejaVuSans-50"/>
      </defs>
      <g transform="translate(131.548357 321.140875)scale(0.2 -0.2)">
       <use xlink:href="#DejaVuSans-50"/>
      </g>
     </g>
    </g>
    <g id="xtick_3">
     <g id="line2d_9">
      <path clip-path="url(#p397d868060)" d="M 218.221714 298.944 
L 218.221714 27.648 
" style="fill:none;stroke:#b0b0b0;stroke-linecap:square;stroke-width:0.8;"/>
     </g>
     <g id="line2d_10">
      <g>
       <use style="stroke:#000000;stroke-width:0.8;" x="218.221714" xlink:href="#maefbf501b6" y="298.944"/>
      </g>
     </g>
     <g id="text_3">
      <!-- 4 -->
      <defs>
       <path d="M 37.796875 64.3125 
L 12.890625 25.390625 
L 37.796875 25.390625 
z
M 35.203125 72.90625 
L 47.609375 72.90625 
L 47.609375 25.390625 
L 58.015625 25.390625 
L 58.015625 17.1875 
L 47.609375 17.1875 
L 47.609375 0 
L 37.796875 0 
L 37.796875 17.1875 
L 4.890625 17.1875 
L 4.890625 26.703125 
z
" id="DejaVuSans-52"/>
      </defs>
      <g transform="translate(211.859214 321.140875)scale(0.2 -0.2)">
       <use xlink:href="#DejaVuSans-52"/>
      </g>
     </g>
    </g>
    <g id="xtick_4">
     <g id="line2d_11">
      <path clip-path="url(#p397d868060)" d="M 298.532571 298.944 
L 298.532571 27.648 
" style="fill:none;stroke:#b0b0b0;stroke-linecap:square;stroke-width:0.8;"/>
     </g>
     <g id="line2d_12">
      <g>
       <use style="stroke:#000000;stroke-width:0.8;" x="298.532571" xlink:href="#maefbf501b6" y="298.944"/>
      </g>
     </g>
     <g id="text_4">
      <!-- 6 -->
      <defs>
       <path d="M 33.015625 40.375 
Q 26.375 40.375 22.484375 35.828125 
Q 18.609375 31.296875 18.609375 23.390625 
Q 18.609375 15.53125 22.484375 10.953125 
Q 26.375 6.390625 33.015625 6.390625 
Q 39.65625 6.390625 43.53125 10.953125 
Q 47.40625 15.53125 47.40625 23.390625 
Q 47.40625 31.296875 43.53125 35.828125 
Q 39.65625 40.375 33.015625 40.375 
z
M 52.59375 71.296875 
L 52.59375 62.3125 
Q 48.875 64.0625 45.09375 64.984375 
Q 41.3125 65.921875 37.59375 65.921875 
Q 27.828125 65.921875 22.671875 59.328125 
Q 17.53125 52.734375 16.796875 39.40625 
Q 19.671875 43.65625 24.015625 45.921875 
Q 28.375 48.1875 33.59375 48.1875 
Q 44.578125 48.1875 50.953125 41.515625 
Q 57.328125 34.859375 57.328125 23.390625 
Q 57.328125 12.15625 50.6875 5.359375 
Q 44.046875 -1.421875 33.015625 -1.421875 
Q 20.359375 -1.421875 13.671875 8.265625 
Q 6.984375 17.96875 6.984375 36.375 
Q 6.984375 53.65625 15.1875 63.9375 
Q 23.390625 74.21875 37.203125 74.21875 
Q 40.921875 74.21875 44.703125 73.484375 
Q 48.484375 72.75 52.59375 71.296875 
z
" id="DejaVuSans-54"/>
      </defs>
      <g transform="translate(292.170071 321.140875)scale(0.2 -0.2)">
       <use xlink:href="#DejaVuSans-54"/>
      </g>
     </g>
    </g>
    <g id="xtick_5">
     <g id="line2d_13">
      <path clip-path="url(#p397d868060)" d="M 97.755429 298.944 
L 97.755429 27.648 
" style="fill:none;stroke:#b0b0b0;stroke-linecap:square;stroke-width:0.8;"/>
     </g>
     <g id="line2d_14">
      <defs>
       <path d="M 0 0 
L 0 2 
" id="m02a1546aa0" style="stroke:#000000;stroke-width:0.6;"/>
      </defs>
      <g>
       <use style="stroke:#000000;stroke-width:0.6;" x="97.755429" xlink:href="#m02a1546aa0" y="298.944"/>
      </g>
     </g>
    </g>
    <g id="xtick_6">
     <g id="line2d_15">
      <path clip-path="url(#p397d868060)" d="M 178.066286 298.944 
L 178.066286 27.648 
" style="fill:none;stroke:#b0b0b0;stroke-linecap:square;stroke-width:0.8;"/>
     </g>
     <g id="line2d_16">
      <g>
       <use style="stroke:#000000;stroke-width:0.6;" x="178.066286" xlink:href="#m02a1546aa0" y="298.944"/>
      </g>
     </g>
    </g>
    <g id="xtick_7">
     <g id="line2d_17">
      <path clip-path="url(#p397d868060)" d="M 258.377143 298.944 
L 258.377143 27.648 
" style="fill:none;stroke:#b0b0b0;stroke-linecap:square;stroke-width:0.8;"/>
     </g>
     <g id="line2d_18">
      <g>
       <use style="stroke:#000000;stroke-width:0.6;" x="258.377143" xlink:href="#m02a1546aa0" y="298.944"/>
      </g>
     </g>
    </g>
    <g id="xtick_8">
     <g id="line2d_19">
      <path clip-path="url(#p397d868060)" d="M 338.688 298.944 
L 338.688 27.648 
" style="fill:none;stroke:#b0b0b0;stroke-linecap:square;stroke-width:0.8;"/>
     </g>
     <g id="line2d_20">
      <g>
       <use style="stroke:#000000;stroke-width:0.6;" x="338.688" xlink:href="#m02a1546aa0" y="298.944"/>
      </g>
     </g>
    </g>
    <g id="text_5">
     <!-- log10(# f-evals / dimension) -->
     <defs>
      <path d="M 9.421875 75.984375 
L 18.40625 75.984375 
L 18.40625 0 
L 9.421875 0 
z
" id="DejaVuSans-108"/>
      <path d="M 30.609375 48.390625 
Q 23.390625 48.390625 19.1875 42.75 
Q 14.984375 37.109375 14.984375 27.296875 
Q 14.984375 17.484375 19.15625 11.84375 
Q 23.34375 6.203125 30.609375 6.203125 
Q 37.796875 6.203125 41.984375 11.859375 
Q 46.1875 17.53125 46.1875 27.296875 
Q 46.1875 37.015625 41.984375 42.703125 
Q 37.796875 48.390625 30.609375 48.390625 
z
M 30.609375 56 
Q 42.328125 56 49.015625 48.375 
Q 55.71875 40.765625 55.71875 27.296875 
Q 55.71875 13.875 49.015625 6.21875 
Q 42.328125 -1.421875 30.609375 -1.421875 
Q 18.84375 -1.421875 12.171875 6.21875 
Q 5.515625 13.875 5.515625 27.296875 
Q 5.515625 40.765625 12.171875 48.375 
Q 18.84375 56 30.609375 56 
z
" id="DejaVuSans-111"/>
      <path d="M 45.40625 27.984375 
Q 45.40625 37.75 41.375 43.109375 
Q 37.359375 48.484375 30.078125 48.484375 
Q 22.859375 48.484375 18.828125 43.109375 
Q 14.796875 37.75 14.796875 27.984375 
Q 14.796875 18.265625 18.828125 12.890625 
Q 22.859375 7.515625 30.078125 7.515625 
Q 37.359375 7.515625 41.375 12.890625 
Q 45.40625 18.265625 45.40625 27.984375 
z
M 54.390625 6.78125 
Q 54.390625 -7.171875 48.1875 -13.984375 
Q 42 -20.796875 29.203125 -20.796875 
Q 24.46875 -20.796875 20.265625 -20.09375 
Q 16.0625 -19.390625 12.109375 -17.921875 
L 12.109375 -9.1875 
Q 16.0625 -11.328125 19.921875 -12.34375 
Q 23.78125 -13.375 27.78125 -13.375 
Q 36.625 -13.375 41.015625 -8.765625 
Q 45.40625 -4.15625 45.40625 5.171875 
L 45.40625 9.625 
Q 42.625 4.78125 38.28125 2.390625 
Q 33.9375 0 27.875 0 
Q 17.828125 0 11.671875 7.65625 
Q 5.515625 15.328125 5.515625 27.984375 
Q 5.515625 40.671875 11.671875 48.328125 
Q 17.828125 56 27.875 56 
Q 33.9375 56 38.28125 53.609375 
Q 42.625 51.21875 45.40625 46.390625 
L 45.40625 54.6875 
L 54.390625 54.6875 
z
" id="DejaVuSans-103"/>
      <path d="M 12.40625 8.296875 
L 28.515625 8.296875 
L 28.515625 63.921875 
L 10.984375 60.40625 
L 10.984375 69.390625 
L 28.421875 72.90625 
L 38.28125 72.90625 
L 38.28125 8.296875 
L 54.390625 8.296875 
L 54.390625 0 
L 12.40625 0 
z
" id="DejaVuSans-49"/>
      <path d="M 31 75.875 
Q 24.46875 64.65625 21.28125 53.65625 
Q 18.109375 42.671875 18.109375 31.390625 
Q 18.109375 20.125 21.3125 9.0625 
Q 24.515625 -2 31 -13.1875 
L 23.1875 -13.1875 
Q 15.875 -1.703125 12.234375 9.375 
Q 8.59375 20.453125 8.59375 31.390625 
Q 8.59375 42.28125 12.203125 53.3125 
Q 15.828125 64.359375 23.1875 75.875 
z
" id="DejaVuSans-40"/>
      <path d="M 51.125 44 
L 36.921875 44 
L 32.8125 27.6875 
L 47.125 27.6875 
z
M 43.796875 71.78125 
L 38.71875 51.515625 
L 52.984375 51.515625 
L 58.109375 71.78125 
L 65.921875 71.78125 
L 60.890625 51.515625 
L 76.125 51.515625 
L 76.125 44 
L 58.984375 44 
L 54.984375 27.6875 
L 70.515625 27.6875 
L 70.515625 20.21875 
L 53.078125 20.21875 
L 48 0 
L 40.1875 0 
L 45.21875 20.21875 
L 30.90625 20.21875 
L 25.875 0 
L 18.015625 0 
L 23.09375 20.21875 
L 7.71875 20.21875 
L 7.71875 27.6875 
L 24.90625 27.6875 
L 29 44 
L 13.28125 44 
L 13.28125 51.515625 
L 30.90625 51.515625 
L 35.890625 71.78125 
z
" id="DejaVuSans-35"/>
      <path id="DejaVuSans-32"/>
      <path d="M 37.109375 75.984375 
L 37.109375 68.5 
L 28.515625 68.5 
Q 23.6875 68.5 21.796875 66.546875 
Q 19.921875 64.59375 19.921875 59.515625 
L 19.921875 54.6875 
L 34.71875 54.6875 
L 34.71875 47.703125 
L 19.921875 47.703125 
L 19.921875 0 
L 10.890625 0 
L 10.890625 47.703125 
L 2.296875 47.703125 
L 2.296875 54.6875 
L 10.890625 54.6875 
L 10.890625 58.5 
Q 10.890625 67.625 15.140625 71.796875 
Q 19.390625 75.984375 28.609375 75.984375 
z
" id="DejaVuSans-102"/>
      <path d="M 4.890625 31.390625 
L 31.203125 31.390625 
L 31.203125 23.390625 
L 4.890625 23.390625 
z
" id="DejaVuSans-45"/>
      <path d="M 56.203125 29.59375 
L 56.203125 25.203125 
L 14.890625 25.203125 
Q 15.484375 15.921875 20.484375 11.0625 
Q 25.484375 6.203125 34.421875 6.203125 
Q 39.59375 6.203125 44.453125 7.46875 
Q 49.3125 8.734375 54.109375 11.28125 
L 54.109375 2.78125 
Q 49.265625 0.734375 44.1875 -0.34375 
Q 39.109375 -1.421875 33.890625 -1.421875 
Q 20.796875 -1.421875 13.15625 6.1875 
Q 5.515625 13.8125 5.515625 26.8125 
Q 5.515625 40.234375 12.765625 48.109375 
Q 20.015625 56 32.328125 56 
Q 43.359375 56 49.78125 48.890625 
Q 56.203125 41.796875 56.203125 29.59375 
z
M 47.21875 32.234375 
Q 47.125 39.59375 43.09375 43.984375 
Q 39.0625 48.390625 32.421875 48.390625 
Q 24.90625 48.390625 20.390625 44.140625 
Q 15.875 39.890625 15.1875 32.171875 
z
" id="DejaVuSans-101"/>
      <path d="M 2.984375 54.6875 
L 12.5 54.6875 
L 29.59375 8.796875 
L 46.6875 54.6875 
L 56.203125 54.6875 
L 35.6875 0 
L 23.484375 0 
z
" id="DejaVuSans-118"/>
      <path d="M 34.28125 27.484375 
Q 23.390625 27.484375 19.1875 25 
Q 14.984375 22.515625 14.984375 16.5 
Q 14.984375 11.71875 18.140625 8.90625 
Q 21.296875 6.109375 26.703125 6.109375 
Q 34.1875 6.109375 38.703125 11.40625 
Q 43.21875 16.703125 43.21875 25.484375 
L 43.21875 27.484375 
z
M 52.203125 31.203125 
L 52.203125 0 
L 43.21875 0 
L 43.21875 8.296875 
Q 40.140625 3.328125 35.546875 0.953125 
Q 30.953125 -1.421875 24.3125 -1.421875 
Q 15.921875 -1.421875 10.953125 3.296875 
Q 6 8.015625 6 15.921875 
Q 6 25.140625 12.171875 29.828125 
Q 18.359375 34.515625 30.609375 34.515625 
L 43.21875 34.515625 
L 43.21875 35.40625 
Q 43.21875 41.609375 39.140625 45 
Q 35.0625 48.390625 27.6875 48.390625 
Q 23 48.390625 18.546875 47.265625 
Q 14.109375 46.140625 10.015625 43.890625 
L 10.015625 52.203125 
Q 14.9375 54.109375 19.578125 55.046875 
Q 24.21875 56 28.609375 56 
Q 40.484375 56 46.34375 49.84375 
Q 52.203125 43.703125 52.203125 31.203125 
z
" id="DejaVuSans-97"/>
      <path d="M 44.28125 53.078125 
L 44.28125 44.578125 
Q 40.484375 46.53125 36.375 47.5 
Q 32.28125 48.484375 27.875 48.484375 
Q 21.1875 48.484375 17.84375 46.4375 
Q 14.5 44.390625 14.5 40.28125 
Q 14.5 37.15625 16.890625 35.375 
Q 19.28125 33.59375 26.515625 31.984375 
L 29.59375 31.296875 
Q 39.15625 29.25 43.1875 25.515625 
Q 47.21875 21.78125 47.21875 15.09375 
Q 47.21875 7.46875 41.1875 3.015625 
Q 35.15625 -1.421875 24.609375 -1.421875 
Q 20.21875 -1.421875 15.453125 -0.5625 
Q 10.6875 0.296875 5.421875 2 
L 5.421875 11.28125 
Q 10.40625 8.6875 15.234375 7.390625 
Q 20.0625 6.109375 24.8125 6.109375 
Q 31.15625 6.109375 34.5625 8.28125 
Q 37.984375 10.453125 37.984375 14.40625 
Q 37.984375 18.0625 35.515625 20.015625 
Q 33.0625 21.96875 24.703125 23.78125 
L 21.578125 24.515625 
Q 13.234375 26.265625 9.515625 29.90625 
Q 5.8125 33.546875 5.8125 39.890625 
Q 5.8125 47.609375 11.28125 51.796875 
Q 16.75 56 26.8125 56 
Q 31.78125 56 36.171875 55.265625 
Q 40.578125 54.546875 44.28125 53.078125 
z
" id="DejaVuSans-115"/>
      <path d="M 25.390625 72.90625 
L 33.6875 72.90625 
L 8.296875 -9.28125 
L 0 -9.28125 
z
" id="DejaVuSans-47"/>
      <path d="M 45.40625 46.390625 
L 45.40625 75.984375 
L 54.390625 75.984375 
L 54.390625 0 
L 45.40625 0 
L 45.40625 8.203125 
Q 42.578125 3.328125 38.25 0.953125 
Q 33.9375 -1.421875 27.875 -1.421875 
Q 17.96875 -1.421875 11.734375 6.484375 
Q 5.515625 14.40625 5.515625 27.296875 
Q 5.515625 40.1875 11.734375 48.09375 
Q 17.96875 56 27.875 56 
Q 33.9375 56 38.25 53.625 
Q 42.578125 51.265625 45.40625 46.390625 
z
M 14.796875 27.296875 
Q 14.796875 17.390625 18.875 11.75 
Q 22.953125 6.109375 30.078125 6.109375 
Q 37.203125 6.109375 41.296875 11.75 
Q 45.40625 17.390625 45.40625 27.296875 
Q 45.40625 37.203125 41.296875 42.84375 
Q 37.203125 48.484375 30.078125 48.484375 
Q 22.953125 48.484375 18.875 42.84375 
Q 14.796875 37.203125 14.796875 27.296875 
z
" id="DejaVuSans-100"/>
      <path d="M 9.421875 54.6875 
L 18.40625 54.6875 
L 18.40625 0 
L 9.421875 0 
z
M 9.421875 75.984375 
L 18.40625 75.984375 
L 18.40625 64.59375 
L 9.421875 64.59375 
z
" id="DejaVuSans-105"/>
      <path d="M 52 44.1875 
Q 55.375 50.25 60.0625 53.125 
Q 64.75 56 71.09375 56 
Q 79.640625 56 84.28125 50.015625 
Q 88.921875 44.046875 88.921875 33.015625 
L 88.921875 0 
L 79.890625 0 
L 79.890625 32.71875 
Q 79.890625 40.578125 77.09375 44.375 
Q 74.3125 48.1875 68.609375 48.1875 
Q 61.625 48.1875 57.5625 43.546875 
Q 53.515625 38.921875 53.515625 30.90625 
L 53.515625 0 
L 44.484375 0 
L 44.484375 32.71875 
Q 44.484375 40.625 41.703125 44.40625 
Q 38.921875 48.1875 33.109375 48.1875 
Q 26.21875 48.1875 22.15625 43.53125 
Q 18.109375 38.875 18.109375 30.90625 
L 18.109375 0 
L 9.078125 0 
L 9.078125 54.6875 
L 18.109375 54.6875 
L 18.109375 46.1875 
Q 21.1875 51.21875 25.484375 53.609375 
Q 29.78125 56 35.6875 56 
Q 41.65625 56 45.828125 52.96875 
Q 50 49.953125 52 44.1875 
z
" id="DejaVuSans-109"/>
      <path d="M 54.890625 33.015625 
L 54.890625 0 
L 45.90625 0 
L 45.90625 32.71875 
Q 45.90625 40.484375 42.875 44.328125 
Q 39.84375 48.1875 33.796875 48.1875 
Q 26.515625 48.1875 22.3125 43.546875 
Q 18.109375 38.921875 18.109375 30.90625 
L 18.109375 0 
L 9.078125 0 
L 9.078125 54.6875 
L 18.109375 54.6875 
L 18.109375 46.1875 
Q 21.34375 51.125 25.703125 53.5625 
Q 30.078125 56 35.796875 56 
Q 45.21875 56 50.046875 50.171875 
Q 54.890625 44.34375 54.890625 33.015625 
z
" id="DejaVuSans-110"/>
      <path d="M 8.015625 75.875 
L 15.828125 75.875 
Q 23.140625 64.359375 26.78125 53.3125 
Q 30.421875 42.28125 30.421875 31.390625 
Q 30.421875 20.453125 26.78125 9.375 
Q 23.140625 -1.703125 15.828125 -13.1875 
L 8.015625 -13.1875 
Q 14.5 -2 17.703125 9.0625 
Q 20.90625 20.125 20.90625 31.390625 
Q 20.90625 42.671875 17.703125 53.65625 
Q 14.5 64.65625 8.015625 75.875 
z
" id="DejaVuSans-41"/>
     </defs>
     <g transform="translate(77.764078 342.217594)scale(0.17 -0.17)">
      <use xlink:href="#DejaVuSans-108"/>
      <use x="27.783203" xlink:href="#DejaVuSans-111"/>
      <use x="88.964844" xlink:href="#DejaVuSans-103"/>
      <use x="152.441406" xlink:href="#DejaVuSans-49"/>
      <use x="216.064453" xlink:href="#DejaVuSans-48"/>
      <use x="279.6875" xlink:href="#DejaVuSans-40"/>
      <use x="318.701172" xlink:href="#DejaVuSans-35"/>
      <use x="402.490234" xlink:href="#DejaVuSans-32"/>
      <use x="434.277344" xlink:href="#DejaVuSans-102"/>
      <use x="463.982422" xlink:href="#DejaVuSans-45"/>
      <use x="500.066406" xlink:href="#DejaVuSans-101"/>
      <use x="561.589844" xlink:href="#DejaVuSans-118"/>
      <use x="620.769531" xlink:href="#DejaVuSans-97"/>
      <use x="682.048828" xlink:href="#DejaVuSans-108"/>
      <use x="709.832031" xlink:href="#DejaVuSans-115"/>
      <use x="761.931641" xlink:href="#DejaVuSans-32"/>
      <use x="793.71875" xlink:href="#DejaVuSans-47"/>
      <use x="827.410156" xlink:href="#DejaVuSans-32"/>
      <use x="859.197266" xlink:href="#DejaVuSans-100"/>
      <use x="922.673828" xlink:href="#DejaVuSans-105"/>
      <use x="950.457031" xlink:href="#DejaVuSans-109"/>
      <use x="1047.869141" xlink:href="#DejaVuSans-101"/>
      <use x="1109.392578" xlink:href="#DejaVuSans-110"/>
      <use x="1172.771484" xlink:href="#DejaVuSans-115"/>
      <use x="1224.871094" xlink:href="#DejaVuSans-105"/>
      <use x="1252.654297" xlink:href="#DejaVuSans-111"/>
      <use x="1313.835938" xlink:href="#DejaVuSans-110"/>
      <use x="1377.214844" xlink:href="#DejaVuSans-41"/>
     </g>
    </g>
   </g>
   <g id="matplotlib.axis_2">
    <g id="ytick_1">
     <g id="line2d_21">
      <path clip-path="url(#p397d868060)" d="M 57.6 298.944 
L 338.688 298.944 
" style="fill:none;stroke:#b0b0b0;stroke-linecap:square;stroke-width:0.8;"/>
     </g>
     <g id="line2d_22">
      <defs>
       <path d="M 0 0 
L -3.5 0 
" id="m4ab72d1d47" style="stroke:#000000;stroke-width:0.8;"/>
      </defs>
      <g>
       <use style="stroke:#000000;stroke-width:0.8;" x="57.6" xlink:href="#m4ab72d1d47" y="298.944"/>
      </g>
     </g>
     <g id="text_6">
      <!-- 0.0 -->
      <defs>
       <path d="M 10.6875 12.40625 
L 21 12.40625 
L 21 0 
L 10.6875 0 
z
" id="DejaVuSans-46"/>
      </defs>
      <g transform="translate(25.155 305.02275)scale(0.16 -0.16)">
       <use xlink:href="#DejaVuSans-48"/>
       <use x="63.623047" xlink:href="#DejaVuSans-46"/>
       <use x="95.410156" xlink:href="#DejaVuSans-48"/>
      </g>
     </g>
    </g>
    <g id="ytick_2">
     <g id="line2d_23">
      <path clip-path="url(#p397d868060)" d="M 57.6 245.22202 
L 338.688 245.22202 
" style="fill:none;stroke:#b0b0b0;stroke-linecap:square;stroke-width:0.8;"/>
     </g>
     <g id="line2d_24">
      <g>
       <use style="stroke:#000000;stroke-width:0.8;" x="57.6" xlink:href="#m4ab72d1d47" y="245.22202"/>
      </g>
     </g>
     <g id="text_7">
      <!-- 0.2 -->
      <g transform="translate(25.155 251.30077)scale(0.16 -0.16)">
       <use xlink:href="#DejaVuSans-48"/>
       <use x="63.623047" xlink:href="#DejaVuSans-46"/>
       <use x="95.410156" xlink:href="#DejaVuSans-50"/>
      </g>
     </g>
    </g>
    <g id="ytick_3">
     <g id="line2d_25">
      <path clip-path="url(#p397d868060)" d="M 57.6 191.50004 
L 338.688 191.50004 
" style="fill:none;stroke:#b0b0b0;stroke-linecap:square;stroke-width:0.8;"/>
     </g>
     <g id="line2d_26">
      <g>
       <use style="stroke:#000000;stroke-width:0.8;" x="57.6" xlink:href="#m4ab72d1d47" y="191.50004"/>
      </g>
     </g>
     <g id="text_8">
      <!-- 0.4 -->
      <g transform="translate(25.155 197.57879)scale(0.16 -0.16)">
       <use xlink:href="#DejaVuSans-48"/>
       <use x="63.623047" xlink:href="#DejaVuSans-46"/>
       <use x="95.410156" xlink:href="#DejaVuSans-52"/>
      </g>
     </g>
    </g>
    <g id="ytick_4">
     <g id="line2d_27">
      <path clip-path="url(#p397d868060)" d="M 57.6 137.778059 
L 338.688 137.778059 
" style="fill:none;stroke:#b0b0b0;stroke-linecap:square;stroke-width:0.8;"/>
     </g>
     <g id="line2d_28">
      <g>
       <use style="stroke:#000000;stroke-width:0.8;" x="57.6" xlink:href="#m4ab72d1d47" y="137.778059"/>
      </g>
     </g>
     <g id="text_9">
      <!-- 0.6 -->
      <g transform="translate(25.155 143.856809)scale(0.16 -0.16)">
       <use xlink:href="#DejaVuSans-48"/>
       <use x="63.623047" xlink:href="#DejaVuSans-46"/>
       <use x="95.410156" xlink:href="#DejaVuSans-54"/>
      </g>
     </g>
    </g>
    <g id="ytick_5">
     <g id="line2d_29">
      <path clip-path="url(#p397d868060)" d="M 57.6 84.056079 
L 338.688 84.056079 
" style="fill:none;stroke:#b0b0b0;stroke-linecap:square;stroke-width:0.8;"/>
     </g>
     <g id="line2d_30">
      <g>
       <use style="stroke:#000000;stroke-width:0.8;" x="57.6" xlink:href="#m4ab72d1d47" y="84.056079"/>
      </g>
     </g>
     <g id="text_10">
      <!-- 0.8 -->
      <defs>
       <path d="M 31.78125 34.625 
Q 24.75 34.625 20.71875 30.859375 
Q 16.703125 27.09375 16.703125 20.515625 
Q 16.703125 13.921875 20.71875 10.15625 
Q 24.75 6.390625 31.78125 6.390625 
Q 38.8125 6.390625 42.859375 10.171875 
Q 46.921875 13.96875 46.921875 20.515625 
Q 46.921875 27.09375 42.890625 30.859375 
Q 38.875 34.625 31.78125 34.625 
z
M 21.921875 38.8125 
Q 15.578125 40.375 12.03125 44.71875 
Q 8.5 49.078125 8.5 55.328125 
Q 8.5 64.0625 14.71875 69.140625 
Q 20.953125 74.21875 31.78125 74.21875 
Q 42.671875 74.21875 48.875 69.140625 
Q 55.078125 64.0625 55.078125 55.328125 
Q 55.078125 49.078125 51.53125 44.71875 
Q 48 40.375 41.703125 38.8125 
Q 48.828125 37.15625 52.796875 32.3125 
Q 56.78125 27.484375 56.78125 20.515625 
Q 56.78125 9.90625 50.3125 4.234375 
Q 43.84375 -1.421875 31.78125 -1.421875 
Q 19.734375 -1.421875 13.25 4.234375 
Q 6.78125 9.90625 6.78125 20.515625 
Q 6.78125 27.484375 10.78125 32.3125 
Q 14.796875 37.15625 21.921875 38.8125 
z
M 18.3125 54.390625 
Q 18.3125 48.734375 21.84375 45.5625 
Q 25.390625 42.390625 31.78125 42.390625 
Q 38.140625 42.390625 41.71875 45.5625 
Q 45.3125 48.734375 45.3125 54.390625 
Q 45.3125 60.0625 41.71875 63.234375 
Q 38.140625 66.40625 31.78125 66.40625 
Q 25.390625 66.40625 21.84375 63.234375 
Q 18.3125 60.0625 18.3125 54.390625 
z
" id="DejaVuSans-56"/>
      </defs>
      <g transform="translate(25.155 90.134829)scale(0.16 -0.16)">
       <use xlink:href="#DejaVuSans-48"/>
       <use x="63.623047" xlink:href="#DejaVuSans-46"/>
       <use x="95.410156" xlink:href="#DejaVuSans-56"/>
      </g>
     </g>
    </g>
    <g id="ytick_6">
     <g id="line2d_31">
      <path clip-path="url(#p397d868060)" d="M 57.6 30.334099 
L 338.688 30.334099 
" style="fill:none;stroke:#b0b0b0;stroke-linecap:square;stroke-width:0.8;"/>
     </g>
     <g id="line2d_32">
      <g>
       <use style="stroke:#000000;stroke-width:0.8;" x="57.6" xlink:href="#m4ab72d1d47" y="30.334099"/>
      </g>
     </g>
     <g id="text_11">
      <!-- 1.0 -->
      <g transform="translate(25.155 36.412849)scale(0.16 -0.16)">
       <use xlink:href="#DejaVuSans-49"/>
       <use x="63.623047" xlink:href="#DejaVuSans-46"/>
       <use x="95.410156" xlink:href="#DejaVuSans-48"/>
      </g>
     </g>
    </g>
    <g id="text_12">
     <!-- Fraction of function,target pairs -->
     <defs>
      <path d="M 9.8125 72.90625 
L 51.703125 72.90625 
L 51.703125 64.59375 
L 19.671875 64.59375 
L 19.671875 43.109375 
L 48.578125 43.109375 
L 48.578125 34.8125 
L 19.671875 34.8125 
L 19.671875 0 
L 9.8125 0 
z
" id="DejaVuSans-70"/>
      <path d="M 41.109375 46.296875 
Q 39.59375 47.171875 37.8125 47.578125 
Q 36.03125 48 33.890625 48 
Q 26.265625 48 22.1875 43.046875 
Q 18.109375 38.09375 18.109375 28.8125 
L 18.109375 0 
L 9.078125 0 
L 9.078125 54.6875 
L 18.109375 54.6875 
L 18.109375 46.1875 
Q 20.953125 51.171875 25.484375 53.578125 
Q 30.03125 56 36.53125 56 
Q 37.453125 56 38.578125 55.875 
Q 39.703125 55.765625 41.0625 55.515625 
z
" id="DejaVuSans-114"/>
      <path d="M 48.78125 52.59375 
L 48.78125 44.1875 
Q 44.96875 46.296875 41.140625 47.34375 
Q 37.3125 48.390625 33.40625 48.390625 
Q 24.65625 48.390625 19.8125 42.84375 
Q 14.984375 37.3125 14.984375 27.296875 
Q 14.984375 17.28125 19.8125 11.734375 
Q 24.65625 6.203125 33.40625 6.203125 
Q 37.3125 6.203125 41.140625 7.25 
Q 44.96875 8.296875 48.78125 10.40625 
L 48.78125 2.09375 
Q 45.015625 0.34375 40.984375 -0.53125 
Q 36.96875 -1.421875 32.421875 -1.421875 
Q 20.0625 -1.421875 12.78125 6.34375 
Q 5.515625 14.109375 5.515625 27.296875 
Q 5.515625 40.671875 12.859375 48.328125 
Q 20.21875 56 33.015625 56 
Q 37.15625 56 41.109375 55.140625 
Q 45.0625 54.296875 48.78125 52.59375 
z
" id="DejaVuSans-99"/>
      <path d="M 18.3125 70.21875 
L 18.3125 54.6875 
L 36.8125 54.6875 
L 36.8125 47.703125 
L 18.3125 47.703125 
L 18.3125 18.015625 
Q 18.3125 11.328125 20.140625 9.421875 
Q 21.96875 7.515625 27.59375 7.515625 
L 36.8125 7.515625 
L 36.8125 0 
L 27.59375 0 
Q 17.1875 0 13.234375 3.875 
Q 9.28125 7.765625 9.28125 18.015625 
L 9.28125 47.703125 
L 2.6875 47.703125 
L 2.6875 54.6875 
L 9.28125 54.6875 
L 9.28125 70.21875 
z
" id="DejaVuSans-116"/>
      <path d="M 8.5 21.578125 
L 8.5 54.6875 
L 17.484375 54.6875 
L 17.484375 21.921875 
Q 17.484375 14.15625 20.5 10.265625 
Q 23.53125 6.390625 29.59375 6.390625 
Q 36.859375 6.390625 41.078125 11.03125 
Q 45.3125 15.671875 45.3125 23.6875 
L 45.3125 54.6875 
L 54.296875 54.6875 
L 54.296875 0 
L 45.3125 0 
L 45.3125 8.40625 
Q 42.046875 3.421875 37.71875 1 
Q 33.40625 -1.421875 27.6875 -1.421875 
Q 18.265625 -1.421875 13.375 4.4375 
Q 8.5 10.296875 8.5 21.578125 
z
M 31.109375 56 
z
" id="DejaVuSans-117"/>
      <path d="M 11.71875 12.40625 
L 22.015625 12.40625 
L 22.015625 4 
L 14.015625 -11.625 
L 7.71875 -11.625 
L 11.71875 4 
z
" id="DejaVuSans-44"/>
      <path d="M 18.109375 8.203125 
L 18.109375 -20.796875 
L 9.078125 -20.796875 
L 9.078125 54.6875 
L 18.109375 54.6875 
L 18.109375 46.390625 
Q 20.953125 51.265625 25.265625 53.625 
Q 29.59375 56 35.59375 56 
Q 45.5625 56 51.78125 48.09375 
Q 58.015625 40.1875 58.015625 27.296875 
Q 58.015625 14.40625 51.78125 6.484375 
Q 45.5625 -1.421875 35.59375 -1.421875 
Q 29.59375 -1.421875 25.265625 0.953125 
Q 20.953125 3.328125 18.109375 8.203125 
z
M 48.6875 27.296875 
Q 48.6875 37.203125 44.609375 42.84375 
Q 40.53125 48.484375 33.40625 48.484375 
Q 26.265625 48.484375 22.1875 42.84375 
Q 18.109375 37.203125 18.109375 27.296875 
Q 18.109375 17.390625 22.1875 11.75 
Q 26.265625 6.109375 33.40625 6.109375 
Q 40.53125 6.109375 44.609375 11.75 
Q 48.6875 17.390625 48.6875 27.296875 
z
" id="DejaVuSans-112"/>
     </defs>
     <g transform="translate(17.619531 297.681)rotate(-90)scale(0.17 -0.17)">
      <use xlink:href="#DejaVuSans-70"/>
      <use x="50.269531" xlink:href="#DejaVuSans-114"/>
      <use x="91.382812" xlink:href="#DejaVuSans-97"/>
      <use x="152.662109" xlink:href="#DejaVuSans-99"/>
      <use x="207.642578" xlink:href="#DejaVuSans-116"/>
      <use x="246.851562" xlink:href="#DejaVuSans-105"/>
      <use x="274.634766" xlink:href="#DejaVuSans-111"/>
      <use x="335.816406" xlink:href="#DejaVuSans-110"/>
      <use x="399.195312" xlink:href="#DejaVuSans-32"/>
      <use x="430.982422" xlink:href="#DejaVuSans-111"/>
      <use x="492.164062" xlink:href="#DejaVuSans-102"/>
      <use x="527.369141" xlink:href="#DejaVuSans-32"/>
      <use x="559.15625" xlink:href="#DejaVuSans-102"/>
      <use x="594.361328" xlink:href="#DejaVuSans-117"/>
      <use x="657.740234" xlink:href="#DejaVuSans-110"/>
      <use x="721.119141" xlink:href="#DejaVuSans-99"/>
      <use x="776.099609" xlink:href="#DejaVuSans-116"/>
      <use x="815.308594" xlink:href="#DejaVuSans-105"/>
      <use x="843.091797" xlink:href="#DejaVuSans-111"/>
      <use x="904.273438" xlink:href="#DejaVuSans-110"/>
      <use x="967.652344" xlink:href="#DejaVuSans-44"/>
      <use x="999.439453" xlink:href="#DejaVuSans-116"/>
      <use x="1038.648438" xlink:href="#DejaVuSans-97"/>
      <use x="1099.927734" xlink:href="#DejaVuSans-114"/>
      <use x="1139.291016" xlink:href="#DejaVuSans-103"/>
      <use x="1202.767578" xlink:href="#DejaVuSans-101"/>
      <use x="1264.291016" xlink:href="#DejaVuSans-116"/>
      <use x="1303.5" xlink:href="#DejaVuSans-32"/>
      <use x="1335.287109" xlink:href="#DejaVuSans-112"/>
      <use x="1398.763672" xlink:href="#DejaVuSans-97"/>
      <use x="1460.042969" xlink:href="#DejaVuSans-105"/>
      <use x="1487.826172" xlink:href="#DejaVuSans-114"/>
      <use x="1528.939453" xlink:href="#DejaVuSans-115"/>
     </g>
    </g>
   </g>
   <g id="line2d_33">
    <defs>
     <path d="M 0 1.5 
C 0.397805 1.5 0.77937 1.341951 1.06066 1.06066 
C 1.341951 0.77937 1.5 0.397805 1.5 0 
C 1.5 -0.397805 1.341951 -0.77937 1.06066 -1.06066 
C 0.77937 -1.341951 0.397805 -1.5 0 -1.5 
C -0.397805 -1.5 -0.77937 -1.341951 -1.06066 -1.06066 
C -1.341951 -0.77937 -1.5 -0.397805 -1.5 0 
C -1.5 0.397805 -1.341951 0.77937 -1.06066 1.06066 
C -0.77937 1.341951 -0.397805 1.5 0 1.5 
z
" id="m81d246a485" style="stroke:#f5deb3;"/>
    </defs>
    <g>
     <use style="fill:#f5deb3;stroke:#f5deb3;" x="165.810071" xlink:href="#m81d246a485" y="30.334099"/>
     <use style="fill:#f5deb3;stroke:#f5deb3;" x="165.810071" xlink:href="#m81d246a485" y="30.334099"/>
    </g>
   </g>
   <g id="line2d_34">
    <defs>
     <path d="M 0 1.5 
C 0.397805 1.5 0.77937 1.341951 1.06066 1.06066 
C 1.341951 0.77937 1.5 0.397805 1.5 0 
C 1.5 -0.397805 1.341951 -0.77937 1.06066 -1.06066 
C 0.77937 -1.341951 0.397805 -1.5 0 -1.5 
C -0.397805 -1.5 -0.77937 -1.341951 -1.06066 -1.06066 
C -1.341951 -0.77937 -1.5 -0.397805 -1.5 0 
C -1.5 0.397805 -1.341951 0.77937 -1.06066 1.06066 
C -0.77937 1.341951 -0.397805 1.5 0 1.5 
z
" id="m88cc195b0a" style="stroke:#000080;"/>
    </defs>
    <g>
     <use style="fill:#000080;stroke:#000080;" x="188.351706" xlink:href="#m88cc195b0a" y="30.334099"/>
     <use style="fill:#000080;stroke:#000080;" x="188.351706" xlink:href="#m88cc195b0a" y="30.334099"/>
    </g>
   </g>
   <g id="line2d_35">
    <path d="M 97.043522 298.944 
L 97.043522 298.417314 
L 98.100772 298.417314 
L 98.100772 297.890628 
L 103.870632 297.890628 
L 103.870632 297.363942 
L 108.577836 297.363942 
L 108.577836 296.837256 
L 111.505558 296.837256 
L 111.505558 296.31057 
L 111.974805 296.31057 
L 111.974805 295.783884 
L 113.311233 295.783884 
L 113.311233 295.257197 
L 113.873839 295.257197 
L 113.873839 294.730511 
L 114.284194 294.730511 
L 114.284194 294.203825 
L 114.816733 294.203825 
L 114.816733 293.677139 
L 115.33349 293.677139 
L 115.33349 293.150453 
L 116.202531 293.150453 
L 116.202531 292.623767 
L 117.373392 292.623767 
L 117.373392 292.097081 
L 117.930605 292.097081 
L 117.930605 291.570395 
L 118.148599 291.570395 
L 118.148599 291.043709 
L 118.363901 291.043709 
L 118.363901 289.990337 
L 119.40226 289.990337 
L 119.40226 288.936964 
L 120.190611 288.936964 
L 120.190611 288.410278 
L 121.219499 288.410278 
L 121.310093 287.356906 
L 122.191052 287.356906 
L 122.191052 286.83022 
L 123.029641 286.83022 
L 123.029641 286.303534 
L 123.192626 286.303534 
L 123.192626 285.776848 
L 123.907776 285.776848 
L 123.985457 284.723476 
L 124.216444 284.723476 
L 124.216444 283.670104 
L 124.669438 283.670104 
L 124.669438 283.143418 
L 125.038147 283.143418 
L 125.038147 282.616732 
L 125.470548 282.616732 
L 125.470548 281.036673 
L 125.822869 281.036673 
L 125.892487 279.456615 
L 126.70692 279.456615 
L 126.773103 278.403243 
L 126.839037 278.403243 
L 126.904721 276.296499 
L 127.357715 276.296499 
L 127.357715 275.769812 
L 127.48501 275.769812 
L 127.48501 275.243126 
L 128.290519 275.243126 
L 128.290519 274.71644 
L 128.650105 274.71644 
L 128.650105 274.189754 
L 128.944197 274.189754 
L 128.944197 273.663068 
L 130.717333 273.663068 
L 130.717333 273.136382 
L 131.590764 273.136382 
L 131.590764 272.609696 
L 131.888878 272.609696 
L 131.888878 272.08301 
L 132.326708 272.08301 
L 132.374684 270.502952 
L 132.470242 270.502952 
L 132.470242 269.976266 
L 133.032848 269.976266 
L 133.078923 268.922893 
L 133.352844 268.922893 
L 133.443203 267.342835 
L 134.661403 267.342835 
L 134.661403 266.816149 
L 134.787017 266.816149 
L 134.870259 265.236091 
L 135.076644 265.236091 
L 135.076644 263.656033 
L 136.79465 263.656033 
L 136.79465 262.60266 
L 137.235245 262.60266 
L 137.235245 262.075974 
L 137.629572 262.075974 
L 137.735587 259.96923 
L 137.805906 259.96923 
L 137.805906 259.442544 
L 138.084384 259.442544 
L 138.084384 258.915858 
L 138.324456 258.915858 
L 138.324456 258.389172 
L 138.69516 258.389172 
L 138.69516 257.862486 
L 139.155847 257.862486 
L 139.253002 256.809114 
L 139.317473 256.809114 
L 139.381706 255.755741 
L 139.69937 255.755741 
L 139.730821 254.702369 
L 140.469102 254.702369 
L 140.469102 254.175683 
L 140.79731 254.175683 
L 140.79731 253.122311 
L 141.350061 253.122311 
L 141.378673 252.068939 
L 141.69035 252.068939 
L 141.69035 251.542253 
L 141.941279 251.542253 
L 141.941279 251.015567 
L 142.405626 251.015567 
L 142.405626 250.488881 
L 143.375453 250.488881 
L 143.375453 249.962195 
L 143.703791 249.962195 
L 143.703791 249.435508 
L 144.075117 249.435508 
L 144.172816 248.382136 
L 144.462672 248.382136 
L 144.462672 247.85545 
L 144.653267 247.85545 
L 144.653267 247.328764 
L 145.166911 247.328764 
L 145.166911 246.802078 
L 145.954117 246.802078 
L 145.954117 246.275392 
L 146.388493 246.275392 
L 146.388493 245.748706 
L 146.875005 245.748706 
L 146.875005 245.22202 
L 147.185137 245.22202 
L 147.185137 244.695334 
L 147.348313 244.695334 
L 147.348313 244.168648 
L 147.509976 244.168648 
L 147.509976 243.641962 
L 148.639252 243.641962 
L 148.733265 242.588589 
L 148.845415 242.588589 
L 148.882639 241.535217 
L 149.012299 241.535217 
L 149.012299 241.008531 
L 149.195872 241.008531 
L 149.195872 240.481845 
L 149.323233 240.481845 
L 149.323233 239.955159 
L 149.610898 239.955159 
L 149.682079 238.375101 
L 149.735275 238.375101 
L 149.735275 237.321729 
L 150.429467 237.321729 
L 150.429467 236.795043 
L 150.699587 236.795043 
L 150.699587 235.214984 
L 150.899466 235.214984 
L 150.982078 234.161612 
L 151.292481 234.161612 
L 151.324836 231.528182 
L 151.485716 231.528182 
L 151.485716 231.001496 
L 151.755852 231.001496 
L 151.755852 229.948123 
L 152.191856 229.948123 
L 152.191856 229.421437 
L 152.496747 229.421437 
L 152.496747 228.894751 
L 152.632227 228.894751 
L 152.721966 227.314693 
L 153.076375 227.314693 
L 153.149313 225.734635 
L 153.221946 225.734635 
L 153.221946 225.207949 
L 153.337534 225.207949 
L 153.337534 224.681263 
L 153.609024 224.681263 
L 153.693887 223.101204 
L 153.806399 223.101204 
L 153.806399 222.574518 
L 153.973817 222.574518 
L 153.973817 222.047832 
L 154.098334 222.047832 
L 154.125885 220.99446 
L 154.317527 220.99446 
L 154.317527 219.941088 
L 154.694607 219.941088 
L 154.77436 218.36103 
L 154.827327 218.36103 
L 154.840544 217.307658 
L 154.972161 217.307658 
L 154.972161 216.780971 
L 155.141793 216.780971 
L 155.219531 215.727599 
L 155.30979 215.727599 
L 155.399584 213.094169 
L 155.488919 213.094169 
L 155.590458 212.040797 
L 155.641006 212.040797 
L 155.641006 211.514111 
L 155.791779 211.514111 
L 155.879132 209.407366 
L 155.953659 209.407366 
L 156.027868 206.773936 
L 156.064855 206.773936 
L 156.114049 204.667192 
L 156.285144 204.667192 
L 156.30945 203.613819 
L 156.418408 203.613819 
L 156.418408 202.560447 
L 156.574599 202.560447 
L 156.681918 200.980389 
L 156.800392 200.980389 
L 156.800392 200.453703 
L 157.023299 200.453703 
L 157.116308 199.400331 
L 157.139484 199.400331 
L 157.231877 197.820273 
L 157.266399 197.820273 
L 157.312322 195.186842 
L 157.403807 195.186842 
L 157.483465 193.080098 
L 157.528821 193.080098 
L 157.574059 191.50004 
L 157.664184 191.50004 
L 157.686643 189.919981 
L 157.86528 189.919981 
L 157.898572 188.339923 
L 158.140788 188.339923 
L 158.162642 187.286551 
L 158.28235 187.286551 
L 158.347301 185.706493 
L 158.583406 185.706493 
L 158.625992 184.653121 
L 158.742573 184.653121 
L 158.742573 184.126434 
L 158.9003 184.126434 
L 158.9003 182.546376 
L 159.035853 182.546376 
L 159.129083 181.493004 
L 159.180664 181.493004 
L 159.273126 179.912946 
L 159.587904 179.912946 
L 159.668223 177.279515 
L 159.807898 177.279515 
L 159.867418 176.226143 
L 159.966168 176.226143 
L 159.966168 175.699457 
L 160.093714 175.699457 
L 160.162007 174.119399 
L 160.220333 174.119399 
L 160.326759 172.539341 
L 160.336402 172.539341 
L 160.422949 169.90591 
L 160.470846 169.90591 
L 160.575759 167.799166 
L 160.613753 167.799166 
L 160.613753 167.27248 
L 161.164758 167.27248 
L 161.164758 166.745794 
L 161.329454 166.745794 
L 161.329454 166.219108 
L 161.546656 166.219108 
L 161.618459 164.63905 
L 161.911563 164.63905 
L 161.999419 163.058991 
L 162.043181 163.058991 
L 162.060656 162.005619 
L 162.156452 162.005619 
L 162.234442 160.425561 
L 162.286241 160.425561 
L 162.355069 159.372189 
L 162.432178 159.372189 
L 162.542958 158.318817 
L 162.576903 158.318817 
L 162.678343 157.265444 
L 162.745644 157.265444 
L 162.821048 156.212072 
L 162.871137 156.212072 
L 162.921083 155.1587 
L 163.185069 155.1587 
L 163.185069 154.632014 
L 163.372371 154.632014 
L 163.469301 151.471897 
L 163.501492 151.471897 
L 163.501492 150.945211 
L 163.637643 150.945211 
L 163.66156 149.891839 
L 163.883215 149.891839 
L 163.953867 147.258409 
L 164.008622 147.258409 
L 164.078769 145.151665 
L 164.225937 145.151665 
L 164.310575 141.464862 
L 164.356568 141.464862 
L 164.425332 140.41149 
L 164.569616 140.41149 
L 164.577177 139.358118 
L 164.705214 139.358118 
L 164.809955 137.778059 
L 164.817412 137.778059 
L 164.854652 136.198001 
L 164.980675 136.198001 
L 165.024937 135.144629 
L 165.098459 135.144629 
L 165.186277 132.511199 
L 165.215452 132.511199 
L 165.237301 129.351082 
L 165.331666 129.351082 
L 165.346138 127.771024 
L 165.55465 127.771024 
L 165.59035 126.717652 
L 165.76776 126.717652 
L 165.810071 125.137593 
L 165.887376 125.137593 
L 165.978297 121.450791 
L 166.131092 121.450791 
L 166.200103 120.397419 
L 166.24825 120.397419 
L 166.357802 115.130558 
L 166.364626 115.130558 
L 166.419124 114.077186 
L 166.487008 114.077186 
L 166.581603 112.497128 
L 166.729224 112.497128 
L 166.775933 109.863697 
L 166.902089 109.863697 
L 166.915315 108.810325 
L 167.04047 108.810325 
L 167.04047 108.283639 
L 167.262214 108.283639 
L 167.275171 106.703581 
L 167.378477 106.703581 
L 167.46837 104.596836 
L 167.493969 104.596836 
L 167.595991 100.910034 
L 167.627751 100.910034 
L 167.627751 100.383348 
L 167.760513 100.383348 
L 167.867253 97.749917 
L 168.004423 97.749917 
L 168.035449 96.169859 
L 168.226583 96.169859 
L 168.330516 94.589801 
L 168.373132 94.589801 
L 168.445948 92.483056 
L 168.512429 92.483056 
L 168.620674 89.849626 
L 168.686493 89.849626 
L 168.710367 88.796254 
L 168.82332 88.796254 
L 168.82332 88.269568 
L 168.976711 88.269568 
L 169.047054 85.636137 
L 169.163666 85.636137 
L 169.250616 84.056079 
L 169.302579 84.056079 
L 169.314106 83.002707 
L 169.463258 83.002707 
L 169.474679 81.949335 
L 169.582803 81.949335 
L 169.690261 80.895963 
L 169.76902 80.895963 
L 169.808266 79.315904 
L 169.997643 79.315904 
L 170.075029 78.262532 
L 170.16305 78.262532 
L 170.261547 75.629102 
L 170.299701 75.629102 
L 170.299701 74.57573 
L 170.419074 74.57573 
L 170.419074 74.049044 
L 170.634045 74.049044 
L 170.708663 72.995672 
L 170.81471 72.995672 
L 170.899085 70.362241 
L 170.993522 70.362241 
L 171.08745 68.255497 
L 171.149789 68.255497 
L 171.206738 66.675439 
L 171.289242 66.675439 
L 171.366236 64.568694 
L 171.427588 64.568694 
L 171.519214 62.988636 
L 171.580031 62.988636 
L 171.675893 61.935264 
L 171.831177 61.935264 
L 171.895887 59.82852 
L 171.950454 59.82852 
L 171.999913 58.248461 
L 172.078757 58.248461 
L 172.157246 56.668403 
L 172.206123 56.668403 
L 172.298614 55.615031 
L 172.32772 55.615031 
L 172.332566 54.034973 
L 172.534903 54.034973 
L 172.534903 53.508287 
L 172.786927 53.508287 
L 172.857598 52.454914 
L 173.08184 52.454914 
L 173.114303 51.401542 
L 173.211329 51.401542 
L 173.211329 50.874856 
L 173.467457 50.874856 
L 173.467457 50.34817 
L 173.612145 50.34817 
L 173.612145 49.821484 
L 173.862495 49.821484 
L 173.862495 49.294798 
L 174.074257 49.294798 
L 174.144277 47.71474 
L 174.231408 47.71474 
L 174.231408 47.188054 
L 174.430173 47.188054 
L 174.430173 46.661368 
L 174.694539 46.661368 
L 174.774759 45.607995 
L 175.000757 45.607995 
L 175.096133 44.027937 
L 175.116798 44.027937 
L 175.166295 42.974565 
L 175.256675 42.974565 
L 175.338435 41.394507 
L 175.371032 41.394507 
L 175.472506 39.814448 
L 175.553262 39.814448 
L 175.617599 38.23439 
L 175.681699 38.23439 
L 175.781387 36.654332 
L 175.793311 36.654332 
L 175.840927 35.60096 
L 175.919999 35.60096 
L 175.919999 35.074274 
L 176.065343 35.074274 
L 176.139511 34.020902 
L 176.390886 34.020902 
L 176.390886 33.494215 
L 176.800705 33.494215 
L 176.800705 32.967529 
L 176.976088 32.967529 
L 176.976088 32.440843 
L 177.127655 32.440843 
L 177.127655 31.914157 
L 185.52136 31.914157 
L 185.52136 31.387471 
L 185.939384 31.387471 
L 185.939384 30.860785 
L 188.351706 30.860785 
L 188.351706 30.334099 
L 338.688 30.334099 
L 338.688 30.334099 
" style="fill:none;stroke:#000080;stroke-linecap:square;stroke-width:1.5;"/>
   </g>
   <g id="line2d_36">
    <defs>
     <path d="M 0 6 
C 1.591219 6 3.117479 5.367802 4.242641 4.242641 
C 5.367802 3.117479 6 1.591219 6 0 
C 6 -1.591219 5.367802 -3.117479 4.242641 -4.242641 
C 3.117479 -5.367802 1.591219 -6 0 -6 
C -1.591219 -6 -3.117479 -5.367802 -4.242641 -4.242641 
C -5.367802 -3.117479 -6 -1.591219 -6 0 
C -6 1.591219 -5.367802 3.117479 -4.242641 4.242641 
C -3.117479 5.367802 -1.591219 6 0 6 
z
" id="m1ac5b8bcd7" style="stroke:#000080;stroke-width:1.5;"/>
    </defs>
    <g>
     <use style="fill-opacity:0;stroke:#000080;stroke-width:1.5;" x="143.375453" xlink:href="#m1ac5b8bcd7" y="250.488881"/>
     <use style="fill-opacity:0;stroke:#000080;stroke-width:1.5;" x="166.24825" xlink:href="#m1ac5b8bcd7" y="120.397419"/>
     <use style="fill-opacity:0;stroke:#000080;stroke-width:1.5;" x="188.351706" xlink:href="#m1ac5b8bcd7" y="30.860785"/>
     <use style="fill-opacity:0;stroke:#000080;stroke-width:1.5;" x="188.351706" xlink:href="#m1ac5b8bcd7" y="30.334099"/>
     <use style="fill-opacity:0;stroke:#000080;stroke-width:1.5;" x="338.688" xlink:href="#m1ac5b8bcd7" y="30.334099"/>
    </g>
   </g>
   <g id="line2d_37">
    <path style="fill:none;stroke:#000080;stroke-linecap:square;stroke-width:1.5;"/>
    <g/>
   </g>
   <g id="line2d_38">
    <path clip-path="url(#p397d868060)" d="M 178.038361 31.914157 
" style="fill:none;stroke:#000080;stroke-linecap:square;stroke-width:1.5;"/>
    <defs>
     <path d="M -12 12 
L 12 -12 
M -12 -12 
L 12 12 
" id="m82c96d2ba0" style="stroke:#000080;"/>
    </defs>
    <g clip-path="url(#p397d868060)">
     <use style="fill:#000080;stroke:#000080;" x="178.038361" xlink:href="#m82c96d2ba0" y="31.914157"/>
    </g>
   </g>
   <g id="line2d_39">
    <defs>
     <path d="M 0 1.5 
C 0.397805 1.5 0.77937 1.341951 1.06066 1.06066 
C 1.341951 0.77937 1.5 0.397805 1.5 0 
C 1.5 -0.397805 1.341951 -0.77937 1.06066 -1.06066 
C 0.77937 -1.341951 0.397805 -1.5 0 -1.5 
C -0.397805 -1.5 -0.77937 -1.341951 -1.06066 -1.06066 
C -1.341951 -0.77937 -1.5 -0.397805 -1.5 0 
C -1.5 0.397805 -1.341951 0.77937 -1.06066 1.06066 
C -0.77937 1.341951 -0.397805 1.5 0 1.5 
z
" id="me58a62d0fb" style="stroke:#ff00ff;"/>
    </defs>
    <g>
     <use style="fill:#ff00ff;stroke:#ff00ff;" x="239.562042" xlink:href="#me58a62d0fb" y="219.941088"/>
     <use style="fill:#ff00ff;stroke:#ff00ff;" x="239.562042" xlink:href="#me58a62d0fb" y="219.941088"/>
    </g>
   </g>
   <g id="line2d_40">
    <path d="M 124.139788 298.944 
L 124.139788 298.417314 
L 125.327602 298.417314 
L 125.327602 297.890628 
L 130.182344 297.890628 
L 130.182344 297.363942 
L 132.517825 297.363942 
L 132.517825 296.837256 
L 135.321124 296.837256 
L 135.321124 296.31057 
L 138.99271 296.31057 
L 138.99271 295.783884 
L 140.103868 295.783884 
L 140.103868 295.257197 
L 142.51311 295.257197 
L 142.51311 294.730511 
L 143.273169 294.730511 
L 143.298796 293.677139 
L 143.47714 293.677139 
L 143.502469 292.097081 
L 144.414696 292.097081 
L 144.414696 291.043709 
L 144.653267 291.043709 
L 144.653267 290.517023 
L 145.418169 290.517023 
L 145.418169 289.990337 
L 147.650212 289.990337 
L 147.70997 288.410278 
L 147.828875 288.410278 
L 147.828875 287.883592 
L 148.219468 287.883592 
L 148.219468 286.83022 
L 148.48777 286.83022 
L 148.48777 285.776848 
L 148.620389 285.776848 
L 148.620389 285.250162 
L 149.305096 285.250162 
L 149.305096 284.723476 
L 149.449671 284.723476 
L 149.449671 284.19679 
L 149.928949 284.19679 
L 149.928949 283.670104 
L 150.120495 283.670104 
L 150.120495 283.143418 
L 150.344189 283.143418 
L 150.429467 282.090045 
L 151.533692 282.090045 
L 151.533692 281.563359 
L 152.114793 281.563359 
L 152.114793 281.036673 
L 152.237931 281.036673 
L 152.26858 279.983301 
L 152.436193 279.983301 
L 152.496747 278.929929 
L 152.900071 278.929929 
L 152.900071 278.403243 
L 153.279836 278.403243 
L 153.279836 277.876557 
L 153.452361 277.876557 
L 153.452361 277.349871 
L 153.566437 277.349871 
L 153.566437 276.823185 
L 153.693887 276.823185 
L 153.693887 276.296499 
L 154.493614 276.296499 
L 154.493614 275.769812 
L 155.450689 275.769812 
L 155.450689 275.243126 
L 155.653621 275.243126 
L 155.653621 274.71644 
L 156.101764 274.71644 
L 156.101764 274.189754 
L 156.764934 274.189754 
L 156.764934 273.663068 
L 157.081488 273.663068 
L 157.081488 273.136382 
L 157.61918 273.136382 
L 157.61918 272.609696 
L 158.228039 272.609696 
L 158.228039 271.556324 
L 158.805835 271.556324 
L 158.805835 271.029638 
L 159.118749 271.029638 
L 159.211539 269.976266 
L 159.62811 269.976266 
L 159.62811 269.449579 
L 159.788013 269.449579 
L 159.788013 268.922893 
L 160.171742 268.922893 
L 160.230035 267.869521 
L 161.902754 267.869521 
L 161.902754 267.342835 
L 162.896128 267.342835 
L 162.896128 266.816149 
L 163.445119 266.816149 
L 163.445119 266.289463 
L 164.140886 266.289463 
L 164.140886 265.762777 
L 164.928893 265.762777 
L 164.928893 265.236091 
L 165.788929 265.236091 
L 165.788929 264.709405 
L 167.06015 264.709405 
L 167.06015 264.182719 
L 167.262214 264.182719 
L 167.313982 263.129347 
L 167.621403 263.129347 
L 167.621403 262.60266 
L 167.779397 262.60266 
L 167.779397 262.075974 
L 167.991998 262.075974 
L 167.991998 261.549288 
L 168.306117 261.549288 
L 168.306117 261.022602 
L 168.560621 261.022602 
L 168.560621 260.495916 
L 169.594146 260.495916 
L 169.594146 259.96923 
L 170.569832 259.96923 
L 170.569832 259.442544 
L 170.983054 259.442544 
L 170.983054 258.915858 
L 171.554716 258.915858 
L 171.554716 258.389172 
L 172.269459 258.389172 
L 172.298614 256.809114 
L 172.796366 256.809114 
L 172.899863 255.755741 
L 172.909242 255.755741 
L 172.909242 255.229055 
L 173.764571 255.229055 
L 173.764571 254.702369 
L 173.937789 254.702369 
L 173.937789 254.175683 
L 174.515891 254.175683 
L 174.515891 253.648997 
L 176.255981 253.648997 
L 176.255981 253.122311 
L 176.927754 253.122311 
L 176.927754 252.595625 
L 177.361644 252.595625 
L 177.361644 252.068939 
L 178.017387 252.068939 
L 178.017387 251.542253 
L 183.586883 251.542253 
L 183.586883 251.015567 
L 184.169204 251.015567 
L 184.169204 250.488881 
L 184.333115 250.488881 
L 184.333115 249.962195 
L 184.794473 249.962195 
L 184.794473 249.435508 
L 185.593996 249.435508 
L 185.702385 248.382136 
L 186.969834 248.382136 
L 186.969834 247.85545 
L 187.200656 247.85545 
L 187.200656 247.328764 
L 187.495619 247.328764 
L 187.495619 246.802078 
L 187.761688 246.802078 
L 187.761688 246.275392 
L 188.135719 246.275392 
L 188.241128 244.168648 
L 188.469273 244.168648 
L 188.469273 243.641962 
L 190.129842 243.641962 
L 190.129842 243.115275 
L 192.747122 243.115275 
L 192.747122 242.588589 
L 193.840848 242.588589 
L 193.840848 242.061903 
L 194.536823 242.061903 
L 194.536823 241.535217 
L 195.639255 241.535217 
L 195.639255 241.008531 
L 195.954712 241.008531 
L 195.954712 240.481845 
L 196.559348 240.481845 
L 196.642492 238.901787 
L 197.20901 238.901787 
L 197.20901 238.375101 
L 200.96918 238.375101 
L 201.06646 236.268356 
L 201.311911 236.268356 
L 201.420105 235.214984 
L 201.745202 235.214984 
L 201.745202 234.688298 
L 202.230051 234.688298 
L 202.230051 234.161612 
L 204.570845 234.161612 
L 204.570845 233.634926 
L 204.928796 233.634926 
L 204.928796 233.10824 
L 205.47913 233.10824 
L 205.47913 232.581554 
L 205.737217 232.581554 
L 205.737217 232.054868 
L 209.024316 232.054868 
L 209.024316 231.528182 
L 211.015541 231.528182 
L 211.015541 231.001496 
L 211.285501 231.001496 
L 211.285501 230.47481 
L 211.468318 230.47481 
L 211.468318 229.948123 
L 211.994583 229.948123 
L 211.994583 229.421437 
L 214.113976 229.421437 
L 214.113976 228.894751 
L 215.871484 228.894751 
L 215.880263 227.841379 
L 216.023676 227.841379 
L 216.023676 227.314693 
L 216.192191 227.314693 
L 216.192191 226.788007 
L 221.257386 226.788007 
L 221.257386 226.261321 
L 222.449765 226.261321 
L 222.449765 225.734635 
L 223.558105 225.734635 
L 223.558105 225.207949 
L 223.966291 225.207949 
L 223.966291 224.681263 
L 225.289479 224.681263 
L 225.289479 223.627891 
L 227.374047 223.627891 
L 227.374047 223.101204 
L 228.266852 223.101204 
L 228.266852 222.574518 
L 232.425496 222.574518 
L 232.425496 222.047832 
L 232.744927 222.047832 
L 232.744927 221.521146 
L 236.78782 221.521146 
L 236.78782 220.99446 
L 238.990679 220.99446 
L 238.990679 220.467774 
L 239.562042 220.467774 
L 239.562042 219.941088 
L 338.688 219.941088 
L 338.688 219.941088 
" style="fill:none;stroke:#ff00ff;stroke-linecap:square;stroke-width:1.5;"/>
   </g>
   <g id="line2d_41">
    <defs>
     <path d="M -0 8.485281 
L 5.091169 0 
L 0 -8.485281 
L -5.091169 -0 
z
" id="m92c08827af" style="stroke:#ff00ff;stroke-linejoin:miter;stroke-width:1.5;"/>
    </defs>
    <g>
     <use style="fill-opacity:0;stroke:#ff00ff;stroke-linejoin:miter;stroke-width:1.5;" x="167.991998" xlink:href="#m92c08827af" y="261.549288"/>
     <use style="fill-opacity:0;stroke:#ff00ff;stroke-linejoin:miter;stroke-width:1.5;" x="228.266852" xlink:href="#m92c08827af" y="223.101204"/>
     <use style="fill-opacity:0;stroke:#ff00ff;stroke-linejoin:miter;stroke-width:1.5;" x="239.562042" xlink:href="#m92c08827af" y="219.941088"/>
     <use style="fill-opacity:0;stroke:#ff00ff;stroke-linejoin:miter;stroke-width:1.5;" x="239.562042" xlink:href="#m92c08827af" y="219.941088"/>
     <use style="fill-opacity:0;stroke:#ff00ff;stroke-linejoin:miter;stroke-width:1.5;" x="338.688" xlink:href="#m92c08827af" y="219.941088"/>
    </g>
   </g>
   <g id="line2d_42">
    <path style="fill:none;stroke:#ff00ff;stroke-linecap:square;stroke-width:1.5;"/>
    <g/>
   </g>
   <g id="line2d_43">
    <path clip-path="url(#p397d868060)" d="M 178.066286 251.542253 
" style="fill:none;stroke:#ff00ff;stroke-linecap:square;stroke-width:1.5;"/>
    <defs>
     <path d="M -12 12 
L 12 -12 
M -12 -12 
L 12 12 
" id="m5332cfdc29" style="stroke:#ff00ff;"/>
    </defs>
    <g clip-path="url(#p397d868060)">
     <use style="fill:#ff00ff;stroke:#ff00ff;" x="178.066286" xlink:href="#m5332cfdc29" y="251.542253"/>
    </g>
   </g>
   <g id="line2d_44">
    <defs>
     <path d="M 0 1.5 
C 0.397805 1.5 0.77937 1.341951 1.06066 1.06066 
C 1.341951 0.77937 1.5 0.397805 1.5 0 
C 1.5 -0.397805 1.341951 -0.77937 1.06066 -1.06066 
C 0.77937 -1.341951 0.397805 -1.5 0 -1.5 
C -0.397805 -1.5 -0.77937 -1.341951 -1.06066 -1.06066 
C -1.341951 -0.77937 -1.5 -0.397805 -1.5 0 
C -1.5 0.397805 -1.341951 0.77937 -1.06066 1.06066 
C -0.77937 1.341951 -0.397805 1.5 0 1.5 
z
" id="m743bee861f" style="stroke:#ff7500;"/>
    </defs>
    <g>
     <use style="fill:#ff7500;stroke:#ff7500;" x="242.394116" xlink:href="#m743bee861f" y="214.674227"/>
     <use style="fill:#ff7500;stroke:#ff7500;" x="242.394116" xlink:href="#m743bee861f" y="214.674227"/>
    </g>
   </g>
   <g id="line2d_45">
    <path d="M 125.399222 298.944 
L 125.399222 297.890628 
L 130.664567 297.890628 
L 130.664567 297.363942 
L 132.659801 297.363942 
L 132.659801 296.837256 
L 133.398082 296.837256 
L 133.398082 296.31057 
L 133.533096 296.31057 
L 133.533096 295.783884 
L 134.492498 295.783884 
L 134.492498 295.257197 
L 136.227776 295.257197 
L 136.227776 294.203825 
L 136.380754 294.203825 
L 136.380754 293.150453 
L 138.01518 293.150453 
L 138.01518 292.623767 
L 138.794909 292.623767 
L 138.794909 292.097081 
L 139.220677 292.097081 
L 139.317473 291.043709 
L 140.011351 291.043709 
L 140.011351 290.517023 
L 140.678675 290.517023 
L 140.678675 289.990337 
L 141.119455 289.990337 
L 141.119455 289.463651 
L 143.040814 289.463651 
L 143.040814 288.936964 
L 143.527762 288.936964 
L 143.527762 288.410278 
L 144.414696 288.410278 
L 144.414696 287.883592 
L 144.582038 287.883592 
L 144.582038 287.356906 
L 144.724207 287.356906 
L 144.747789 286.303534 
L 147.061745 286.303534 
L 147.061745 285.776848 
L 149.485628 285.776848 
L 149.557321 283.670104 
L 150.327083 283.670104 
L 150.327083 283.143418 
L 150.49739 283.143418 
L 150.49739 282.616732 
L 151.113448 282.616732 
L 151.113448 282.090045 
L 152.114793 282.090045 
L 152.114793 281.563359 
L 152.988446 281.563359 
L 153.032466 280.509987 
L 153.192929 280.509987 
L 153.192929 279.983301 
L 154.399019 279.983301 
L 154.453136 278.929929 
L 154.654594 278.929929 
L 154.654594 278.403243 
L 155.527065 278.403243 
L 155.55245 276.296499 
L 156.622378 276.296499 
L 156.622378 275.769812 
L 157.494815 275.769812 
L 157.494815 275.243126 
L 159.004665 275.243126 
L 159.07735 274.189754 
L 160.914762 274.189754 
L 160.914762 273.663068 
L 161.338558 273.663068 
L 161.338558 273.136382 
L 161.8498 273.136382 
L 161.8498 272.609696 
L 164.712717 272.609696 
L 164.787563 271.556324 
L 165.083779 271.556324 
L 165.113126 269.976266 
L 165.461488 269.976266 
L 165.475853 267.342835 
L 165.810071 267.342835 
L 165.810071 266.816149 
L 166.412321 266.816149 
L 166.412321 266.289463 
L 166.96153 266.289463 
L 166.96153 265.762777 
L 167.728995 265.762777 
L 167.728995 265.236091 
L 168.650622 265.236091 
L 168.650622 264.709405 
L 169.215888 264.709405 
L 169.215888 263.656033 
L 169.463258 263.656033 
L 169.463258 263.129347 
L 169.969922 263.129347 
L 169.97547 262.075974 
L 170.184987 262.075974 
L 170.239707 261.022602 
L 170.402844 261.022602 
L 170.462281 259.96923 
L 170.618014 259.96923 
L 170.713981 258.389172 
L 171.082245 258.389172 
L 171.082245 257.862486 
L 171.402051 257.862486 
L 171.402051 257.3358 
L 172.405099 257.3358 
L 172.405099 256.809114 
L 172.60183 256.809114 
L 172.616138 255.755741 
L 172.824653 255.755741 
L 172.824653 255.229055 
L 173.284893 255.229055 
L 173.298652 254.175683 
L 173.719878 254.175683 
L 173.751176 252.595625 
L 173.87137 252.595625 
L 173.955458 251.542253 
L 174.391462 251.542253 
L 174.417279 250.488881 
L 174.741027 250.488881 
L 174.741027 249.962195 
L 174.900675 249.962195 
L 174.979954 248.908822 
L 175.174531 248.908822 
L 175.174531 248.382136 
L 175.391374 248.382136 
L 175.391374 247.85545 
L 175.74158 247.85545 
L 175.801256 246.802078 
L 176.01049 246.802078 
L 176.088799 245.22202 
L 176.379363 245.22202 
L 176.379363 244.695334 
L 176.638688 244.695334 
L 176.650041 243.115275 
L 176.968661 243.115275 
L 176.968661 242.588589 
L 177.226752 242.588589 
L 177.336204 239.428473 
L 177.628338 239.428473 
L 177.628338 238.901787 
L 177.841622 238.901787 
L 177.922694 236.795043 
L 178.013889 236.795043 
L 178.013889 236.268356 
L 186.67641 236.268356 
L 186.763474 235.214984 
L 186.824794 235.214984 
L 186.906921 234.161612 
L 188.116129 234.161612 
L 188.116129 233.634926 
L 188.570781 233.634926 
L 188.643199 232.581554 
L 188.905562 232.581554 
L 188.905562 232.054868 
L 189.460524 232.054868 
L 189.460524 231.528182 
L 189.592497 231.528182 
L 189.592497 230.47481 
L 189.74313 230.47481 
L 189.74313 229.948123 
L 189.936675 229.948123 
L 189.936675 229.421437 
L 196.091726 229.421437 
L 196.091726 228.894751 
L 196.566593 228.894751 
L 196.590724 227.841379 
L 196.852794 227.841379 
L 196.952278 226.261321 
L 197.171732 226.261321 
L 197.171732 225.734635 
L 201.768513 225.734635 
L 201.768513 225.207949 
L 201.974265 225.207949 
L 201.974265 224.681263 
L 202.133803 224.681263 
L 202.202106 223.627891 
L 205.911182 223.627891 
L 205.911182 223.101204 
L 206.047012 223.101204 
L 206.105102 221.521146 
L 209.128027 221.521146 
L 209.135076 220.467774 
L 209.289433 220.467774 
L 209.289433 219.941088 
L 211.84289 219.941088 
L 211.885076 218.887716 
L 216.261018 218.887716 
L 216.261018 218.36103 
L 219.87085 218.36103 
L 219.87085 217.307658 
L 221.308889 217.307658 
L 221.38935 215.727599 
L 225.283198 215.727599 
L 225.283198 215.200913 
L 242.394116 215.200913 
L 242.394116 214.674227 
L 338.688 214.674227 
L 338.688 214.674227 
" style="fill:none;stroke:#ff7500;stroke-linecap:square;stroke-width:1.5;"/>
   </g>
   <g id="line2d_46">
    <defs>
     <path d="M 0 -6 
L -1.347084 -1.854102 
L -5.706339 -1.854102 
L -2.179628 0.708204 
L -3.526712 4.854102 
L -0 2.291796 
L 3.526712 4.854102 
L 2.179628 0.708204 
L 5.706339 -1.854102 
L 1.347084 -1.854102 
z
" id="m89f919fe3d" style="stroke:#ff7500;stroke-linejoin:bevel;stroke-width:1.5;"/>
    </defs>
    <g>
     <use style="fill-opacity:0;stroke:#ff7500;stroke-linejoin:bevel;stroke-width:1.5;" x="176.968661" xlink:href="#m89f919fe3d" y="243.115275"/>
     <use style="fill-opacity:0;stroke:#ff7500;stroke-linejoin:bevel;stroke-width:1.5;" x="242.394116" xlink:href="#m89f919fe3d" y="215.200913"/>
     <use style="fill-opacity:0;stroke:#ff7500;stroke-linejoin:bevel;stroke-width:1.5;" x="242.394116" xlink:href="#m89f919fe3d" y="214.674227"/>
     <use style="fill-opacity:0;stroke:#ff7500;stroke-linejoin:bevel;stroke-width:1.5;" x="242.394116" xlink:href="#m89f919fe3d" y="214.674227"/>
     <use style="fill-opacity:0;stroke:#ff7500;stroke-linejoin:bevel;stroke-width:1.5;" x="338.688" xlink:href="#m89f919fe3d" y="214.674227"/>
    </g>
   </g>
   <g id="line2d_47">
    <path style="fill:none;stroke:#ff7500;stroke-linecap:square;stroke-width:1.5;"/>
    <g/>
   </g>
   <g id="line2d_48">
    <path clip-path="url(#p397d868060)" d="M 178.066286 236.268356 
" style="fill:none;stroke:#ff7500;stroke-linecap:square;stroke-width:1.5;"/>
    <defs>
     <path d="M -12 12 
L 12 -12 
M -12 -12 
L 12 12 
" id="m0f98dde18c" style="stroke:#ff7500;"/>
    </defs>
    <g clip-path="url(#p397d868060)">
     <use style="fill:#ff7500;stroke:#ff7500;" x="178.066286" xlink:href="#m0f98dde18c" y="236.268356"/>
    </g>
   </g>
   <g id="line2d_49">
    <defs>
     <path d="M 0 1.5 
C 0.397805 1.5 0.77937 1.341951 1.06066 1.06066 
C 1.341951 0.77937 1.5 0.397805 1.5 0 
C 1.5 -0.397805 1.341951 -0.77937 1.06066 -1.06066 
C 0.77937 -1.341951 0.397805 -1.5 0 -1.5 
C -0.397805 -1.5 -0.77937 -1.341951 -1.06066 -1.06066 
C -1.341951 -0.77937 -1.5 -0.397805 -1.5 0 
C -1.5 0.397805 -1.341951 0.77937 -1.06066 1.06066 
C -0.77937 1.341951 -0.397805 1.5 0 1.5 
z
" id="me042f556ab" style="stroke:#6495ed;"/>
    </defs>
    <g>
     <use style="fill:#6495ed;stroke:#6495ed;" x="257.442781" xlink:href="#me042f556ab" y="130.404454"/>
     <use style="fill:#6495ed;stroke:#6495ed;" x="257.442781" xlink:href="#me042f556ab" y="130.404454"/>
    </g>
   </g>
   <g id="line2d_50">
    <path d="M 119.199476 298.944 
L 119.199476 298.417314 
L 125.255688 298.417314 
L 125.255688 297.890628 
L 125.612332 297.890628 
L 125.612332 296.837256 
L 127.357715 296.837256 
L 127.357715 296.31057 
L 128.471239 296.31057 
L 128.471239 295.783884 
L 128.709321 295.783884 
L 128.709321 295.257197 
L 129.002426 295.257197 
L 129.002426 294.730511 
L 129.46138 294.730511 
L 129.46138 294.203825 
L 129.963666 294.203825 
L 129.963666 293.677139 
L 131.082294 293.677139 
L 131.082294 292.623767 
L 131.540579 292.623767 
L 131.540579 292.097081 
L 132.181982 292.097081 
L 132.181982 291.570395 
L 132.326708 291.570395 
L 132.326708 291.043709 
L 132.659801 291.043709 
L 132.659801 290.517023 
L 132.847322 290.517023 
L 132.847322 289.990337 
L 132.986651 289.990337 
L 132.986651 289.463651 
L 133.124876 289.463651 
L 133.216421 288.410278 
L 134.703375 288.410278 
L 134.745246 287.356906 
L 135.117629 287.356906 
L 135.117629 286.83022 
L 135.522271 286.83022 
L 135.522271 286.303534 
L 135.681535 286.303534 
L 135.681535 285.776848 
L 137.271464 285.776848 
L 137.271464 285.250162 
L 137.664982 285.250162 
L 137.664982 284.723476 
L 137.805906 284.723476 
L 137.805906 284.19679 
L 139.413734 284.19679 
L 139.445704 282.090045 
L 139.793552 282.090045 
L 139.793552 281.563359 
L 140.826843 281.563359 
L 140.826843 281.036673 
L 141.177393 281.036673 
L 141.177393 279.456615 
L 141.407239 279.456615 
L 141.407239 278.929929 
L 143.040814 278.929929 
L 143.040814 277.876557 
L 144.888619 277.876557 
L 144.888619 277.349871 
L 147.164632 277.349871 
L 147.185137 276.296499 
L 150.632448 276.296499 
L 150.632448 275.769812 
L 151.113448 275.769812 
L 151.178764 274.71644 
L 152.436193 274.71644 
L 152.436193 274.189754 
L 153.637357 274.189754 
L 153.651507 273.136382 
L 154.029268 273.136382 
L 154.029268 272.08301 
L 154.439623 272.08301 
L 154.439623 271.556324 
L 155.966049 271.556324 
L 155.966049 271.029638 
L 156.224231 271.029638 
L 156.224231 270.502952 
L 157.876384 270.502952 
L 157.876384 269.976266 
L 158.433528 269.976266 
L 158.444276 268.922893 
L 158.583406 268.922893 
L 158.583406 268.396207 
L 160.113253 268.396207 
L 160.113253 267.869521 
L 161.292989 267.869521 
L 161.292989 267.342835 
L 161.420284 267.342835 
L 161.420284 266.816149 
L 162.346481 266.816149 
L 162.346481 266.289463 
L 162.987455 266.289463 
L 162.987455 265.762777 
L 163.315579 265.762777 
L 163.315579 265.236091 
L 163.469301 265.236091 
L 163.469301 264.709405 
L 164.727712 264.709405 
L 164.727712 264.182719 
L 165.957358 264.182719 
L 165.957358 263.656033 
L 166.775933 263.656033 
L 166.775933 263.129347 
L 168.238843 263.129347 
L 168.238843 262.60266 
L 168.769907 262.60266 
L 168.769907 262.075974 
L 169.052903 262.075974 
L 169.052903 261.549288 
L 169.186895 261.549288 
L 169.186895 261.022602 
L 169.662047 261.022602 
L 169.662047 260.495916 
L 170.299701 260.495916 
L 170.299701 259.442544 
L 170.553741 259.442544 
L 170.553741 258.915858 
L 171.407162 258.915858 
L 171.407162 258.389172 
L 171.559782 258.389172 
L 171.559782 257.862486 
L 171.811218 257.862486 
L 171.8212 256.282427 
L 172.240256 256.282427 
L 172.240256 255.755741 
L 172.772758 255.755741 
L 172.772758 255.229055 
L 173.303236 255.229055 
L 173.303236 254.175683 
L 173.804698 254.175683 
L 173.804698 253.648997 
L 174.170462 253.648997 
L 174.170462 253.122311 
L 174.395768 253.122311 
L 174.395768 252.595625 
L 174.592679 252.595625 
L 174.592679 252.068939 
L 175.36696 252.068939 
L 175.36696 251.542253 
L 175.745565 251.542253 
L 175.745565 251.015567 
L 179.873676 251.015567 
L 179.908231 249.962195 
L 181.576933 249.962195 
L 181.684969 248.382136 
L 182.968651 248.382136 
L 182.968651 247.85545 
L 183.128538 247.85545 
L 183.128538 246.802078 
L 184.196221 246.802078 
L 184.196221 246.275392 
L 185.60079 246.275392 
L 185.60079 245.748706 
L 185.923832 245.748706 
L 185.923832 245.22202 
L 186.699812 245.22202 
L 186.699812 244.695334 
L 187.140645 244.695334 
L 187.202721 243.115275 
L 187.305693 243.115275 
L 187.309799 241.535217 
L 187.707594 241.535217 
L 187.707594 241.008531 
L 188.856786 241.008531 
L 188.856786 240.481845 
L 191.286863 240.481845 
L 191.286863 239.955159 
L 192.22382 239.955159 
L 192.22382 239.428473 
L 192.334978 239.428473 
L 192.334978 238.375101 
L 193.020024 238.375101 
L 193.020024 237.848415 
L 193.487202 237.848415 
L 193.487202 237.321729 
L 193.802692 237.321729 
L 193.802692 236.795043 
L 194.325303 236.795043 
L 194.325303 236.268356 
L 194.474317 236.268356 
L 194.474317 235.74167 
L 194.640955 235.74167 
L 194.736424 234.688298 
L 194.791318 234.688298 
L 194.791318 234.161612 
L 194.992008 234.161612 
L 194.999935 232.581554 
L 195.275132 232.581554 
L 195.378838 231.528182 
L 195.777496 231.528182 
L 195.777496 231.001496 
L 195.917157 231.001496 
L 195.917157 230.47481 
L 196.085521 230.47481 
L 196.142521 229.421437 
L 196.371115 229.421437 
L 196.371115 228.894751 
L 198.430185 228.894751 
L 198.430185 228.368065 
L 199.016955 228.368065 
L 199.016955 226.788007 
L 199.330941 226.788007 
L 199.438797 224.681263 
L 199.516451 224.681263 
L 199.576497 223.101204 
L 199.740314 223.101204 
L 199.740314 222.574518 
L 200.340789 222.574518 
L 200.449361 220.99446 
L 200.594677 220.99446 
L 200.645397 219.414402 
L 200.763487 219.414402 
L 200.828855 217.834344 
L 200.877956 217.834344 
L 200.95792 216.254285 
L 201.061795 216.254285 
L 201.167838 213.620855 
L 201.346827 213.620855 
L 201.43655 210.987425 
L 201.498537 210.987425 
L 201.498537 210.460738 
L 202.81775 210.460738 
L 202.81775 209.934052 
L 203.602968 209.934052 
L 203.602968 209.407366 
L 204.519651 209.407366 
L 204.535713 207.827308 
L 204.665957 207.827308 
L 204.665957 207.300622 
L 204.832856 207.300622 
L 204.832856 206.773936 
L 204.989981 206.773936 
L 205.049468 204.667192 
L 205.11393 204.667192 
L 205.195831 203.613819 
L 205.360675 203.613819 
L 205.360675 203.087133 
L 205.492161 203.087133 
L 205.492161 202.033761 
L 205.626255 202.033761 
L 205.693632 200.980389 
L 205.770725 200.980389 
L 205.770725 199.927017 
L 206.518008 199.927017 
L 206.518008 199.400331 
L 207.134092 199.400331 
L 207.134092 198.873645 
L 207.427361 198.873645 
L 207.427361 198.346959 
L 207.869906 198.346959 
L 207.869906 197.820273 
L 208.098882 197.820273 
L 208.16482 196.240214 
L 208.232365 196.240214 
L 208.232365 195.713528 
L 208.604404 195.713528 
L 208.604404 194.660156 
L 208.721463 194.660156 
L 208.821006 192.553412 
L 208.891422 192.553412 
L 208.891422 192.026726 
L 209.011309 192.026726 
L 209.011309 191.50004 
L 210.232112 191.50004 
L 210.232112 190.446667 
L 210.49646 190.446667 
L 210.49646 189.919981 
L 210.771839 189.919981 
L 210.864092 188.339923 
L 210.934155 188.339923 
L 210.934155 187.813237 
L 211.082373 187.813237 
L 211.171957 186.759865 
L 211.23507 186.759865 
L 211.23507 186.233179 
L 211.395731 186.233179 
L 211.395731 185.706493 
L 211.522177 185.706493 
L 211.522177 185.179807 
L 211.688345 185.179807 
L 211.688345 184.653121 
L 212.618337 184.653121 
L 212.618337 184.126434 
L 213.259072 184.126434 
L 213.259072 183.599748 
L 213.528648 183.599748 
L 213.637862 182.546376 
L 213.660983 182.546376 
L 213.660983 182.01969 
L 213.851125 182.01969 
L 213.851125 181.493004 
L 213.962353 181.493004 
L 213.962353 180.966318 
L 214.871114 180.966318 
L 214.871114 179.912946 
L 215.316368 179.912946 
L 215.316368 179.38626 
L 215.559809 179.38626 
L 215.610118 177.806202 
L 215.673607 177.806202 
L 215.770217 176.752829 
L 215.791079 176.752829 
L 215.791079 176.226143 
L 215.959067 176.226143 
L 216.057667 175.172771 
L 216.141179 175.172771 
L 216.141179 174.646085 
L 217.063066 174.646085 
L 217.063066 174.119399 
L 217.401202 174.119399 
L 217.401202 173.592713 
L 217.541751 173.592713 
L 217.541751 173.066027 
L 218.003056 173.066027 
L 218.003056 172.539341 
L 219.231958 172.539341 
L 219.231958 172.012655 
L 219.37325 172.012655 
L 219.399677 169.90591 
L 219.536711 169.90591 
L 219.595158 168.852538 
L 219.719791 168.852538 
L 219.719791 167.27248 
L 220.763687 167.27248 
L 220.870983 165.692422 
L 221.016593 165.692422 
L 221.016593 165.165736 
L 221.219247 165.165736 
L 221.219247 164.63905 
L 222.193909 164.63905 
L 222.193909 164.112363 
L 222.355359 164.112363 
L 222.411954 163.058991 
L 222.540668 163.058991 
L 222.629203 161.478933 
L 223.585309 161.478933 
L 223.585309 160.952247 
L 223.71026 160.952247 
L 223.817376 159.898875 
L 224.80273 159.898875 
L 224.868372 158.318817 
L 225.097488 158.318817 
L 225.172571 156.738758 
L 225.58328 156.738758 
L 225.58328 156.212072 
L 225.961953 156.212072 
L 226.032521 154.105328 
L 226.155775 154.105328 
L 226.155775 153.578642 
L 226.305611 153.578642 
L 226.305611 153.051956 
L 227.163945 153.051956 
L 227.163945 152.52527 
L 227.946497 152.52527 
L 227.946497 151.998584 
L 228.194944 151.998584 
L 228.260969 150.418525 
L 228.332802 150.418525 
L 228.332802 149.891839 
L 228.861273 149.891839 
L 228.861273 149.365153 
L 229.194425 149.365153 
L 229.283065 148.311781 
L 230.001813 148.311781 
L 230.001813 147.785095 
L 230.134256 147.785095 
L 230.134256 147.258409 
L 231.621303 147.258409 
L 231.621303 146.731723 
L 232.594588 146.731723 
L 232.594588 146.205037 
L 233.398485 146.205037 
L 233.398485 145.678351 
L 233.94779 145.678351 
L 234.033644 144.098292 
L 234.100846 144.098292 
L 234.114031 143.04492 
L 234.750345 143.04492 
L 234.772772 141.991548 
L 235.347673 141.991548 
L 235.347673 141.464862 
L 235.937725 141.464862 
L 236.028041 140.41149 
L 236.087993 140.41149 
L 236.087993 139.884804 
L 237.152054 139.884804 
L 237.152054 139.358118 
L 237.320745 139.358118 
L 237.320745 138.831432 
L 238.851251 138.831432 
L 238.851251 138.304745 
L 239.383026 138.304745 
L 239.383026 137.778059 
L 239.906206 137.778059 
L 239.968961 136.724687 
L 240.856923 136.724687 
L 240.856923 136.198001 
L 241.403392 136.198001 
L 241.420093 134.617943 
L 242.32473 134.617943 
L 242.32473 134.091257 
L 243.59105 134.091257 
L 243.59105 133.564571 
L 245.516468 133.564571 
L 245.516468 133.037885 
L 245.900137 133.037885 
L 245.900137 132.511199 
L 246.892797 132.511199 
L 246.892797 131.984513 
L 250.816077 131.984513 
L 250.816077 131.457826 
L 252.373727 131.457826 
L 252.373727 130.93114 
L 257.442781 130.93114 
L 257.442781 130.404454 
L 338.688 130.404454 
L 338.688 130.404454 
" style="fill:none;stroke:#6495ed;stroke-linecap:square;stroke-width:1.5;"/>
   </g>
   <g id="line2d_51">
    <defs>
     <path d="M -0 6 
L 6 -6 
L -6 -6 
z
" id="m62b20065d7" style="stroke:#6495ed;stroke-linejoin:miter;stroke-width:1.5;"/>
    </defs>
    <g>
     <use style="fill-opacity:0;stroke:#6495ed;stroke-linejoin:miter;stroke-width:1.5;" x="207.427361" xlink:href="#m62b20065d7" y="198.346959"/>
     <use style="fill-opacity:0;stroke:#6495ed;stroke-linejoin:miter;stroke-width:1.5;" x="257.442781" xlink:href="#m62b20065d7" y="130.93114"/>
     <use style="fill-opacity:0;stroke:#6495ed;stroke-linejoin:miter;stroke-width:1.5;" x="257.442781" xlink:href="#m62b20065d7" y="130.404454"/>
     <use style="fill-opacity:0;stroke:#6495ed;stroke-linejoin:miter;stroke-width:1.5;" x="257.442781" xlink:href="#m62b20065d7" y="130.404454"/>
     <use style="fill-opacity:0;stroke:#6495ed;stroke-linejoin:miter;stroke-width:1.5;" x="338.688" xlink:href="#m62b20065d7" y="130.404454"/>
    </g>
   </g>
   <g id="line2d_52">
    <path style="fill:none;stroke:#6495ed;stroke-linecap:square;stroke-width:1.5;"/>
    <g/>
   </g>
   <g id="line2d_53">
    <path clip-path="url(#p397d868060)" d="M 178.066286 251.015567 
" style="fill:none;stroke:#6495ed;stroke-linecap:square;stroke-width:1.5;"/>
    <defs>
     <path d="M -12 12 
L 12 -12 
M -12 -12 
L 12 12 
" id="me9d9799ae5" style="stroke:#6495ed;"/>
    </defs>
    <g clip-path="url(#p397d868060)">
     <use style="fill:#6495ed;stroke:#6495ed;" x="178.066286" xlink:href="#me9d9799ae5" y="251.015567"/>
    </g>
   </g>
   <g id="line2d_54">
    <path d="M 338.688 219.941088 
L 369.60768 293.571802 
" style="fill:none;stroke:#ff00ff;stroke-linecap:square;stroke-width:1.5;"/>
    <g>
     <use style="fill-opacity:0;stroke:#ff00ff;stroke-linejoin:miter;stroke-width:1.5;" x="338.688" xlink:href="#m92c08827af" y="219.941088"/>
     <use style="fill-opacity:0;stroke:#ff00ff;stroke-linejoin:miter;stroke-width:1.5;" x="369.60768" xlink:href="#m92c08827af" y="293.571802"/>
    </g>
   </g>
   <g id="line2d_55">
    <path d="M 338.688 214.674227 
L 369.60768 229.105426 
" style="fill:none;stroke:#ff7500;stroke-linecap:square;stroke-width:1.5;"/>
    <g>
     <use style="fill-opacity:0;stroke:#ff7500;stroke-linejoin:bevel;stroke-width:1.5;" x="338.688" xlink:href="#m89f919fe3d" y="214.674227"/>
     <use style="fill-opacity:0;stroke:#ff7500;stroke-linejoin:bevel;stroke-width:1.5;" x="369.60768" xlink:href="#m89f919fe3d" y="229.105426"/>
    </g>
   </g>
   <g id="line2d_56">
    <path d="M 338.688 130.404454 
L 369.60768 164.63905 
" style="fill:none;stroke:#6495ed;stroke-linecap:square;stroke-width:1.5;"/>
    <g>
     <use style="fill-opacity:0;stroke:#6495ed;stroke-linejoin:miter;stroke-width:1.5;" x="338.688" xlink:href="#m62b20065d7" y="130.404454"/>
     <use style="fill-opacity:0;stroke:#6495ed;stroke-linejoin:miter;stroke-width:1.5;" x="369.60768" xlink:href="#m62b20065d7" y="164.63905"/>
    </g>
   </g>
   <g id="line2d_57">
    <path d="M 338.688 30.334099 
L 369.60768 100.172673 
" style="fill:none;stroke:#000080;stroke-linecap:square;stroke-width:1.5;"/>
    <g>
     <use style="fill-opacity:0;stroke:#000080;stroke-width:1.5;" x="338.688" xlink:href="#m1ac5b8bcd7" y="30.334099"/>
     <use style="fill-opacity:0;stroke:#000080;stroke-width:1.5;" x="369.60768" xlink:href="#m1ac5b8bcd7" y="100.172673"/>
    </g>
   </g>
   <g id="line2d_58">
    <path d="M 338.688 298.944 
L 338.688 30.334099 
" style="fill:none;stroke:#000000;stroke-linecap:square;stroke-width:1.5;"/>
   </g>
   <g id="patch_3">
    <path d="M 57.6 298.944 
L 57.6 27.648 
" style="fill:none;stroke:#000000;stroke-linecap:square;stroke-linejoin:miter;stroke-width:0.8;"/>
   </g>
   <g id="patch_4">
    <path d="M 338.688 298.944 
L 338.688 27.648 
" style="fill:none;stroke:#000000;stroke-linecap:square;stroke-linejoin:miter;stroke-width:0.8;"/>
   </g>
   <g id="patch_5">
    <path d="M 57.6 298.944 
L 338.688 298.944 
" style="fill:none;stroke:#000000;stroke-linecap:square;stroke-linejoin:miter;stroke-width:0.8;"/>
   </g>
   <g id="patch_6">
    <path d="M 57.6 27.648 
L 338.688 27.648 
" style="fill:none;stroke:#000000;stroke-linecap:square;stroke-linejoin:miter;stroke-width:0.8;"/>
   </g>
   <g id="text_13">
    <!-- DE -->
    <defs>
     <path d="M 19.671875 64.796875 
L 19.671875 8.109375 
L 31.59375 8.109375 
Q 46.6875 8.109375 53.6875 14.9375 
Q 60.6875 21.78125 60.6875 36.53125 
Q 60.6875 51.171875 53.6875 57.984375 
Q 46.6875 64.796875 31.59375 64.796875 
z
M 9.8125 72.90625 
L 30.078125 72.90625 
Q 51.265625 72.90625 61.171875 64.09375 
Q 71.09375 55.28125 71.09375 36.53125 
Q 71.09375 17.671875 61.125 8.828125 
Q 51.171875 0 30.078125 0 
L 9.8125 0 
z
" id="DejaVuSans-68"/>
     <path d="M 9.8125 72.90625 
L 55.90625 72.90625 
L 55.90625 64.59375 
L 19.671875 64.59375 
L 19.671875 43.015625 
L 54.390625 43.015625 
L 54.390625 34.71875 
L 19.671875 34.71875 
L 19.671875 8.296875 
L 56.78125 8.296875 
L 56.78125 0 
L 9.8125 0 
z
" id="DejaVuSans-69"/>
    </defs>
    <g transform="translate(375.22944 298.262739)scale(0.17 -0.17)">
     <use xlink:href="#DejaVuSans-68"/>
     <use x="77.001953" xlink:href="#DejaVuSans-69"/>
    </g>
   </g>
   <g id="text_14">
    <!-- DEPSO -->
    <defs>
     <path d="M 19.671875 64.796875 
L 19.671875 37.40625 
L 32.078125 37.40625 
Q 38.96875 37.40625 42.71875 40.96875 
Q 46.484375 44.53125 46.484375 51.125 
Q 46.484375 57.671875 42.71875 61.234375 
Q 38.96875 64.796875 32.078125 64.796875 
z
M 9.8125 72.90625 
L 32.078125 72.90625 
Q 44.34375 72.90625 50.609375 67.359375 
Q 56.890625 61.8125 56.890625 51.125 
Q 56.890625 40.328125 50.609375 34.8125 
Q 44.34375 29.296875 32.078125 29.296875 
L 19.671875 29.296875 
L 19.671875 0 
L 9.8125 0 
z
" id="DejaVuSans-80"/>
     <path d="M 53.515625 70.515625 
L 53.515625 60.890625 
Q 47.90625 63.578125 42.921875 64.890625 
Q 37.9375 66.21875 33.296875 66.21875 
Q 25.25 66.21875 20.875 63.09375 
Q 16.5 59.96875 16.5 54.203125 
Q 16.5 49.359375 19.40625 46.890625 
Q 22.3125 44.4375 30.421875 42.921875 
L 36.375 41.703125 
Q 47.40625 39.59375 52.65625 34.296875 
Q 57.90625 29 57.90625 20.125 
Q 57.90625 9.515625 50.796875 4.046875 
Q 43.703125 -1.421875 29.984375 -1.421875 
Q 24.8125 -1.421875 18.96875 -0.25 
Q 13.140625 0.921875 6.890625 3.21875 
L 6.890625 13.375 
Q 12.890625 10.015625 18.65625 8.296875 
Q 24.421875 6.59375 29.984375 6.59375 
Q 38.421875 6.59375 43.015625 9.90625 
Q 47.609375 13.234375 47.609375 19.390625 
Q 47.609375 24.75 44.3125 27.78125 
Q 41.015625 30.8125 33.5 32.328125 
L 27.484375 33.5 
Q 16.453125 35.6875 11.515625 40.375 
Q 6.59375 45.0625 6.59375 53.421875 
Q 6.59375 63.09375 13.40625 68.65625 
Q 20.21875 74.21875 32.171875 74.21875 
Q 37.3125 74.21875 42.625 73.28125 
Q 47.953125 72.359375 53.515625 70.515625 
z
" id="DejaVuSans-83"/>
     <path d="M 39.40625 66.21875 
Q 28.65625 66.21875 22.328125 58.203125 
Q 16.015625 50.203125 16.015625 36.375 
Q 16.015625 22.609375 22.328125 14.59375 
Q 28.65625 6.59375 39.40625 6.59375 
Q 50.140625 6.59375 56.421875 14.59375 
Q 62.703125 22.609375 62.703125 36.375 
Q 62.703125 50.203125 56.421875 58.203125 
Q 50.140625 66.21875 39.40625 66.21875 
z
M 39.40625 74.21875 
Q 54.734375 74.21875 63.90625 63.9375 
Q 73.09375 53.65625 73.09375 36.375 
Q 73.09375 19.140625 63.90625 8.859375 
Q 54.734375 -1.421875 39.40625 -1.421875 
Q 24.03125 -1.421875 14.8125 8.828125 
Q 5.609375 19.09375 5.609375 36.375 
Q 5.609375 53.65625 14.8125 63.9375 
Q 24.03125 74.21875 39.40625 74.21875 
z
" id="DejaVuSans-79"/>
    </defs>
    <g transform="translate(375.22944 233.796363)scale(0.17 -0.17)">
     <use xlink:href="#DejaVuSans-68"/>
     <use x="77.001953" xlink:href="#DejaVuSans-69"/>
     <use x="140.185547" xlink:href="#DejaVuSans-80"/>
     <use x="200.488281" xlink:href="#DejaVuSans-83"/>
     <use x="263.964844" xlink:href="#DejaVuSans-79"/>
    </g>
   </g>
   <g id="text_15">
    <!-- PSO -->
    <g transform="translate(375.22944 169.329987)scale(0.17 -0.17)">
     <use xlink:href="#DejaVuSans-80"/>
     <use x="60.302734" xlink:href="#DejaVuSans-83"/>
     <use x="123.779297" xlink:href="#DejaVuSans-79"/>
    </g>
   </g>
   <g id="text_16">
    <!-- CMA-ES -->
    <defs>
     <path d="M 64.40625 67.28125 
L 64.40625 56.890625 
Q 59.421875 61.53125 53.78125 63.8125 
Q 48.140625 66.109375 41.796875 66.109375 
Q 29.296875 66.109375 22.65625 58.46875 
Q 16.015625 50.828125 16.015625 36.375 
Q 16.015625 21.96875 22.65625 14.328125 
Q 29.296875 6.6875 41.796875 6.6875 
Q 48.140625 6.6875 53.78125 8.984375 
Q 59.421875 11.28125 64.40625 15.921875 
L 64.40625 5.609375 
Q 59.234375 2.09375 53.4375 0.328125 
Q 47.65625 -1.421875 41.21875 -1.421875 
Q 24.65625 -1.421875 15.125 8.703125 
Q 5.609375 18.84375 5.609375 36.375 
Q 5.609375 53.953125 15.125 64.078125 
Q 24.65625 74.21875 41.21875 74.21875 
Q 47.75 74.21875 53.53125 72.484375 
Q 59.328125 70.75 64.40625 67.28125 
z
" id="DejaVuSans-67"/>
     <path d="M 9.8125 72.90625 
L 24.515625 72.90625 
L 43.109375 23.296875 
L 61.8125 72.90625 
L 76.515625 72.90625 
L 76.515625 0 
L 66.890625 0 
L 66.890625 64.015625 
L 48.09375 14.015625 
L 38.1875 14.015625 
L 19.390625 64.015625 
L 19.390625 0 
L 9.8125 0 
z
" id="DejaVuSans-77"/>
     <path d="M 34.1875 63.1875 
L 20.796875 26.90625 
L 47.609375 26.90625 
z
M 28.609375 72.90625 
L 39.796875 72.90625 
L 67.578125 0 
L 57.328125 0 
L 50.6875 18.703125 
L 17.828125 18.703125 
L 11.1875 0 
L 0.78125 0 
z
" id="DejaVuSans-65"/>
    </defs>
    <g transform="translate(375.22944 104.863611)scale(0.17 -0.17)">
     <use xlink:href="#DejaVuSans-67"/>
     <use x="69.824219" xlink:href="#DejaVuSans-77"/>
     <use x="156.103516" xlink:href="#DejaVuSans-65"/>
     <use x="222.261719" xlink:href="#DejaVuSans-45"/>
     <use x="258.345703" xlink:href="#DejaVuSans-69"/>
     <use x="321.529297" xlink:href="#DejaVuSans-83"/>
    </g>
   </g>
   <g id="text_17">
    <!-- best 2009 -->
    <defs>
     <path d="M 48.6875 27.296875 
Q 48.6875 37.203125 44.609375 42.84375 
Q 40.53125 48.484375 33.40625 48.484375 
Q 26.265625 48.484375 22.1875 42.84375 
Q 18.109375 37.203125 18.109375 27.296875 
Q 18.109375 17.390625 22.1875 11.75 
Q 26.265625 6.109375 33.40625 6.109375 
Q 40.53125 6.109375 44.609375 11.75 
Q 48.6875 17.390625 48.6875 27.296875 
z
M 18.109375 46.390625 
Q 20.953125 51.265625 25.265625 53.625 
Q 29.59375 56 35.59375 56 
Q 45.5625 56 51.78125 48.09375 
Q 58.015625 40.1875 58.015625 27.296875 
Q 58.015625 14.40625 51.78125 6.484375 
Q 45.5625 -1.421875 35.59375 -1.421875 
Q 29.59375 -1.421875 25.265625 0.953125 
Q 20.953125 3.328125 18.109375 8.203125 
L 18.109375 0 
L 9.078125 0 
L 9.078125 75.984375 
L 18.109375 75.984375 
z
" id="DejaVuSans-98"/>
     <path d="M 10.984375 1.515625 
L 10.984375 10.5 
Q 14.703125 8.734375 18.5 7.8125 
Q 22.3125 6.890625 25.984375 6.890625 
Q 35.75 6.890625 40.890625 13.453125 
Q 46.046875 20.015625 46.78125 33.40625 
Q 43.953125 29.203125 39.59375 26.953125 
Q 35.25 24.703125 29.984375 24.703125 
Q 19.046875 24.703125 12.671875 31.3125 
Q 6.296875 37.9375 6.296875 49.421875 
Q 6.296875 60.640625 12.9375 67.421875 
Q 19.578125 74.21875 30.609375 74.21875 
Q 43.265625 74.21875 49.921875 64.515625 
Q 56.59375 54.828125 56.59375 36.375 
Q 56.59375 19.140625 48.40625 8.859375 
Q 40.234375 -1.421875 26.421875 -1.421875 
Q 22.703125 -1.421875 18.890625 -0.6875 
Q 15.09375 0.046875 10.984375 1.515625 
z
M 30.609375 32.421875 
Q 37.25 32.421875 41.125 36.953125 
Q 45.015625 41.5 45.015625 49.421875 
Q 45.015625 57.28125 41.125 61.84375 
Q 37.25 66.40625 30.609375 66.40625 
Q 23.96875 66.40625 20.09375 61.84375 
Q 16.21875 57.28125 16.21875 49.421875 
Q 16.21875 41.5 20.09375 36.953125 
Q 23.96875 32.421875 30.609375 32.421875 
z
" id="DejaVuSans-57"/>
    </defs>
    <g transform="translate(375.22944 40.397235)scale(0.17 -0.17)">
     <use xlink:href="#DejaVuSans-98"/>
     <use x="63.476562" xlink:href="#DejaVuSans-101"/>
     <use x="125" xlink:href="#DejaVuSans-115"/>
     <use x="177.099609" xlink:href="#DejaVuSans-116"/>
     <use x="216.308594" xlink:href="#DejaVuSans-32"/>
     <use x="248.095703" xlink:href="#DejaVuSans-50"/>
     <use x="311.71875" xlink:href="#DejaVuSans-48"/>
     <use x="375.341797" xlink:href="#DejaVuSans-48"/>
     <use x="438.964844" xlink:href="#DejaVuSans-57"/>
    </g>
   </g>
   <g id="text_18">
    <!-- bbob f13, 5-D -->
    <defs>
     <path d="M 40.578125 39.3125 
Q 47.65625 37.796875 51.625 33 
Q 55.609375 28.21875 55.609375 21.1875 
Q 55.609375 10.40625 48.1875 4.484375 
Q 40.765625 -1.421875 27.09375 -1.421875 
Q 22.515625 -1.421875 17.65625 -0.515625 
Q 12.796875 0.390625 7.625 2.203125 
L 7.625 11.71875 
Q 11.71875 9.328125 16.59375 8.109375 
Q 21.484375 6.890625 26.8125 6.890625 
Q 36.078125 6.890625 40.9375 10.546875 
Q 45.796875 14.203125 45.796875 21.1875 
Q 45.796875 27.640625 41.28125 31.265625 
Q 36.765625 34.90625 28.71875 34.90625 
L 20.21875 34.90625 
L 20.21875 43.015625 
L 29.109375 43.015625 
Q 36.375 43.015625 40.234375 45.921875 
Q 44.09375 48.828125 44.09375 54.296875 
Q 44.09375 59.90625 40.109375 62.90625 
Q 36.140625 65.921875 28.71875 65.921875 
Q 24.65625 65.921875 20.015625 65.03125 
Q 15.375 64.15625 9.8125 62.3125 
L 9.8125 71.09375 
Q 15.4375 72.65625 20.34375 73.4375 
Q 25.25 74.21875 29.59375 74.21875 
Q 40.828125 74.21875 47.359375 69.109375 
Q 53.90625 64.015625 53.90625 55.328125 
Q 53.90625 49.265625 50.4375 45.09375 
Q 46.96875 40.921875 40.578125 39.3125 
z
" id="DejaVuSans-51"/>
     <path d="M 10.796875 72.90625 
L 49.515625 72.90625 
L 49.515625 64.59375 
L 19.828125 64.59375 
L 19.828125 46.734375 
Q 21.96875 47.46875 24.109375 47.828125 
Q 26.265625 48.1875 28.421875 48.1875 
Q 40.625 48.1875 47.75 41.5 
Q 54.890625 34.8125 54.890625 23.390625 
Q 54.890625 11.625 47.5625 5.09375 
Q 40.234375 -1.421875 26.90625 -1.421875 
Q 22.3125 -1.421875 17.546875 -0.640625 
Q 12.796875 0.140625 7.71875 1.703125 
L 7.71875 11.625 
Q 12.109375 9.234375 16.796875 8.0625 
Q 21.484375 6.890625 26.703125 6.890625 
Q 35.15625 6.890625 40.078125 11.328125 
Q 45.015625 15.765625 45.015625 23.390625 
Q 45.015625 31 40.078125 35.4375 
Q 35.15625 39.890625 26.703125 39.890625 
Q 22.75 39.890625 18.8125 39.015625 
Q 14.890625 38.140625 10.796875 36.28125 
z
" id="DejaVuSans-53"/>
    </defs>
    <g transform="translate(60.41088 38.111366)scale(0.102 -0.102)">
     <use xlink:href="#DejaVuSans-98"/>
     <use x="63.476562" xlink:href="#DejaVuSans-98"/>
     <use x="126.953125" xlink:href="#DejaVuSans-111"/>
     <use x="188.134766" xlink:href="#DejaVuSans-98"/>
     <use x="251.611328" xlink:href="#DejaVuSans-32"/>
     <use x="283.398438" xlink:href="#DejaVuSans-102"/>
     <use x="318.603516" xlink:href="#DejaVuSans-49"/>
     <use x="382.226562" xlink:href="#DejaVuSans-51"/>
     <use x="445.849609" xlink:href="#DejaVuSans-44"/>
     <use x="477.636719" xlink:href="#DejaVuSans-32"/>
     <use x="509.423828" xlink:href="#DejaVuSans-53"/>
     <use x="573.046875" xlink:href="#DejaVuSans-45"/>
     <use x="609.130859" xlink:href="#DejaVuSans-68"/>
    </g>
    <!-- 51 targets: 100..1e-08 -->
    <defs>
     <path d="M 11.71875 12.40625 
L 22.015625 12.40625 
L 22.015625 0 
L 11.71875 0 
z
M 11.71875 51.703125 
L 22.015625 51.703125 
L 22.015625 39.3125 
L 11.71875 39.3125 
z
" id="DejaVuSans-58"/>
    </defs>
    <g transform="translate(60.41088 49.533135)scale(0.102 -0.102)">
     <use xlink:href="#DejaVuSans-53"/>
     <use x="63.623047" xlink:href="#DejaVuSans-49"/>
     <use x="127.246094" xlink:href="#DejaVuSans-32"/>
     <use x="159.033203" xlink:href="#DejaVuSans-116"/>
     <use x="198.242188" xlink:href="#DejaVuSans-97"/>
     <use x="259.521484" xlink:href="#DejaVuSans-114"/>
     <use x="298.884766" xlink:href="#DejaVuSans-103"/>
     <use x="362.361328" xlink:href="#DejaVuSans-101"/>
     <use x="423.884766" xlink:href="#DejaVuSans-116"/>
     <use x="463.09375" xlink:href="#DejaVuSans-115"/>
     <use x="515.193359" xlink:href="#DejaVuSans-58"/>
     <use x="548.884766" xlink:href="#DejaVuSans-32"/>
     <use x="580.671875" xlink:href="#DejaVuSans-49"/>
     <use x="644.294922" xlink:href="#DejaVuSans-48"/>
     <use x="707.917969" xlink:href="#DejaVuSans-48"/>
     <use x="771.541016" xlink:href="#DejaVuSans-46"/>
     <use x="803.328125" xlink:href="#DejaVuSans-46"/>
     <use x="835.115234" xlink:href="#DejaVuSans-49"/>
     <use x="898.738281" xlink:href="#DejaVuSans-101"/>
     <use x="960.261719" xlink:href="#DejaVuSans-45"/>
     <use x="996.345703" xlink:href="#DejaVuSans-48"/>
     <use x="1059.96875" xlink:href="#DejaVuSans-56"/>
    </g>
    <!-- 24, 15 instances -->
    <g transform="translate(60.41088 60.954904)scale(0.102 -0.102)">
     <use xlink:href="#DejaVuSans-50"/>
     <use x="63.623047" xlink:href="#DejaVuSans-52"/>
     <use x="127.246094" xlink:href="#DejaVuSans-44"/>
     <use x="159.033203" xlink:href="#DejaVuSans-32"/>
     <use x="190.820312" xlink:href="#DejaVuSans-49"/>
     <use x="254.443359" xlink:href="#DejaVuSans-53"/>
     <use x="318.066406" xlink:href="#DejaVuSans-32"/>
     <use x="349.853516" xlink:href="#DejaVuSans-105"/>
     <use x="377.636719" xlink:href="#DejaVuSans-110"/>
     <use x="441.015625" xlink:href="#DejaVuSans-115"/>
     <use x="493.115234" xlink:href="#DejaVuSans-116"/>
     <use x="532.324219" xlink:href="#DejaVuSans-97"/>
     <use x="593.603516" xlink:href="#DejaVuSans-110"/>
     <use x="656.982422" xlink:href="#DejaVuSans-99"/>
     <use x="711.962891" xlink:href="#DejaVuSans-101"/>
     <use x="773.486328" xlink:href="#DejaVuSans-115"/>
    </g>
   </g>
   <g id="text_19">
    <!-- v2.4 -->
    <g style="fill:#808080;" transform="translate(187.233062 294.151352)scale(0.1 -0.1)">
     <use xlink:href="#DejaVuSans-118"/>
     <use x="59.179688" xlink:href="#DejaVuSans-50"/>
     <use x="122.802734" xlink:href="#DejaVuSans-46"/>
     <use x="154.589844" xlink:href="#DejaVuSans-52"/>
    </g>
   </g>
   <g id="text_20">
    <!-- 13 Sharp ridge -->
    <defs>
     <path d="M 54.890625 33.015625 
L 54.890625 0 
L 45.90625 0 
L 45.90625 32.71875 
Q 45.90625 40.484375 42.875 44.328125 
Q 39.84375 48.1875 33.796875 48.1875 
Q 26.515625 48.1875 22.3125 43.546875 
Q 18.109375 38.921875 18.109375 30.90625 
L 18.109375 0 
L 9.078125 0 
L 9.078125 75.984375 
L 18.109375 75.984375 
L 18.109375 46.1875 
Q 21.34375 51.125 25.703125 53.5625 
Q 30.078125 56 35.796875 56 
Q 45.21875 56 50.046875 50.171875 
Q 54.890625 44.34375 54.890625 33.015625 
z
" id="DejaVuSans-104"/>
    </defs>
    <g transform="translate(124.05025 21.648)scale(0.2 -0.2)">
     <use xlink:href="#DejaVuSans-49"/>
     <use x="63.623047" xlink:href="#DejaVuSans-51"/>
     <use x="127.246094" xlink:href="#DejaVuSans-32"/>
     <use x="159.033203" xlink:href="#DejaVuSans-83"/>
     <use x="222.509766" xlink:href="#DejaVuSans-104"/>
     <use x="285.888672" xlink:href="#DejaVuSans-97"/>
     <use x="347.167969" xlink:href="#DejaVuSans-114"/>
     <use x="388.28125" xlink:href="#DejaVuSans-112"/>
     <use x="451.757812" xlink:href="#DejaVuSans-32"/>
     <use x="483.544922" xlink:href="#DejaVuSans-114"/>
     <use x="524.658203" xlink:href="#DejaVuSans-105"/>
     <use x="552.441406" xlink:href="#DejaVuSans-100"/>
     <use x="615.917969" xlink:href="#DejaVuSans-103"/>
     <use x="679.394531" xlink:href="#DejaVuSans-101"/>
    </g>
   </g>
  </g>
 </g>
 <defs>
  <clipPath id="p397d868060">
   <rect height="271.296" width="281.088" x="57.6" y="27.648"/>
  </clipPath>
 </defs>
</svg>
