<?xml version="1.0" encoding="utf-8" standalone="no"?>
<!DOCTYPE svg PUBLIC "-//W3C//DTD SVG 1.1//EN"
  "http://www.w3.org/Graphics/SVG/1.1/DTD/svg11.dtd">
<!-- Created with matplotlib (https://matplotlib.org/) -->
<svg height="345.6pt" version="1.1" viewBox="0 0 460.8 345.6" width="460.8pt" xmlns="http://www.w3.org/2000/svg" xmlns:xlink="http://www.w3.org/1999/xlink">
 <defs>
  <style type="text/css">
*{stroke-linecap:butt;stroke-linejoin:round;}
  </style>
 </defs>
 <g id="figure_1">
  <g id="patch_1">
   <path d="M 0 345.6 
L 460.8 345.6 
L 460.8 0 
L 0 0 
z
" style="fill:#ffffff;"/>
  </g>
  <g id="axes_1">
   <g id="patch_2">
    <path d="M 57.6 298.944 
L 338.688 298.944 
L 338.688 27.648 
L 57.6 27.648 
z
" style="fill:#ffffff;"/>
   </g>
   <g id="line2d_1">
    <path d="M 17.444571 298.944 
L 17.444571 288.410278 
L 101.646892 288.410278 
L 101.646892 283.143418 
L 104.592361 283.143418 
L 104.592361 277.876557 
L 108.006005 277.876557 
L 108.006005 272.609696 
L 109.843417 272.609696 
L 109.843417 267.342835 
L 113.664983 267.342835 
L 113.664983 262.075974 
L 120.665825 262.075974 
L 120.665825 256.809114 
L 125.219619 256.809114 
L 125.219619 251.542253 
L 127.892415 251.542253 
L 127.892415 246.275392 
L 130.344571 246.275392 
L 130.344571 241.008531 
L 131.565689 241.008531 
L 131.565689 235.74167 
L 132.823992 235.74167 
L 132.823992 230.47481 
L 133.689303 230.47481 
L 133.689303 225.207949 
L 134.849486 225.207949 
L 134.849486 219.941088 
L 135.219673 219.941088 
L 135.219673 214.674227 
L 136.150782 214.674227 
L 136.150782 209.407366 
L 136.246972 209.407366 
L 136.246972 204.140506 
L 136.701442 204.140506 
L 136.701442 198.873645 
L 137.307607 198.873645 
L 137.307607 193.606784 
L 137.788353 193.606784 
L 137.788353 188.339923 
L 137.875944 188.339923 
L 137.875944 183.073062 
L 137.893409 183.073062 
L 137.893409 177.806202 
L 138.307417 177.806202 
L 138.307417 172.539341 
L 138.628343 172.539341 
L 138.628343 167.27248 
L 139.009092 167.27248 
L 139.009092 162.005619 
L 139.317473 162.005619 
L 139.317473 156.738758 
L 139.620495 156.738758 
L 139.620495 146.205037 
L 139.715103 146.205037 
L 139.715103 140.938176 
L 139.77789 140.938176 
L 139.77789 130.404454 
L 139.793552 130.404454 
L 139.793552 125.137593 
L 139.933878 125.137593 
L 139.933878 119.870733 
L 139.964909 119.870733 
L 139.964909 114.603872 
L 140.165274 114.603872 
L 140.165274 109.337011 
L 140.256979 109.337011 
L 140.256979 104.07015 
L 140.469102 104.07015 
L 140.469102 93.536429 
L 140.559227 93.536429 
L 140.559227 88.269568 
L 140.812083 88.269568 
L 140.812083 83.002707 
L 140.826843 83.002707 
L 140.826843 77.735846 
L 140.871049 77.735846 
L 140.871049 56.668403 
L 140.959126 56.668403 
L 140.959126 51.401542 
L 141.002999 51.401542 
L 141.002999 46.134681 
L 141.046761 46.134681 
L 141.046761 30.334099 
L 338.688 30.334099 
" style="fill:none;stroke:#f5deb3;stroke-linecap:square;stroke-width:4;"/>
   </g>
   <g id="line2d_2">
    <defs>
     <path d="M -0 7.778175 
L 7.778175 0 
L 0 -7.778175 
L -7.778175 -0 
z
" id="m23bf27d168" style="stroke:#f5deb3;stroke-linejoin:miter;stroke-width:1.5;"/>
    </defs>
    <g>
     <use style="fill:#f5deb3;stroke:#f5deb3;stroke-linejoin:miter;stroke-width:1.5;" x="130.344571" xlink:href="#m23bf27d168" y="241.008531"/>
     <use style="fill:#f5deb3;stroke:#f5deb3;stroke-linejoin:miter;stroke-width:1.5;" x="139.964909" xlink:href="#m23bf27d168" y="119.870733"/>
     <use style="fill:#f5deb3;stroke:#f5deb3;stroke-linejoin:miter;stroke-width:1.5;" x="141.046761" xlink:href="#m23bf27d168" y="46.134681"/>
     <use style="fill:#f5deb3;stroke:#f5deb3;stroke-linejoin:miter;stroke-width:1.5;" x="141.046761" xlink:href="#m23bf27d168" y="30.334099"/>
     <use style="fill:#f5deb3;stroke:#f5deb3;stroke-linejoin:miter;stroke-width:1.5;" x="141.046761" xlink:href="#m23bf27d168" y="30.334099"/>
     <use style="fill:#f5deb3;stroke:#f5deb3;stroke-linejoin:miter;stroke-width:1.5;" x="338.688" xlink:href="#m23bf27d168" y="30.334099"/>
    </g>
   </g>
   <g id="line2d_3">
    <path style="fill:none;stroke:#f5deb3;stroke-linecap:square;stroke-width:4;"/>
    <g/>
   </g>
   <g id="line2d_4">
    <path d="M 338.688 30.334099 
L 369.60768 35.706297 
" style="fill:none;stroke:#f5deb3;stroke-linecap:square;stroke-width:4;"/>
    <g>
     <use style="fill:#f5deb3;stroke:#f5deb3;stroke-linejoin:miter;stroke-width:1.5;" x="338.688" xlink:href="#m23bf27d168" y="30.334099"/>
     <use style="fill:#f5deb3;stroke:#f5deb3;stroke-linejoin:miter;stroke-width:1.5;" x="369.60768" xlink:href="#m23bf27d168" y="35.706297"/>
    </g>
   </g>
   <g id="matplotlib.axis_1">
    <g id="xtick_1">
     <g id="line2d_5">
      <path clip-path="url(#pa054e11cd1)" d="M 57.6 298.944 
L 57.6 27.648 
" style="fill:none;stroke:#b0b0b0;stroke-linecap:square;stroke-width:0.8;"/>
     </g>
     <g id="line2d_6">
      <defs>
       <path d="M 0 0 
L 0 3.5 
" id="m837529ab48" style="stroke:#000000;stroke-width:0.8;"/>
      </defs>
      <g>
       <use style="stroke:#000000;stroke-width:0.8;" x="57.6" xlink:href="#m837529ab48" y="298.944"/>
      </g>
     </g>
     <g id="text_1">
      <!-- 0 -->
      <defs>
       <path d="M 31.78125 66.40625 
Q 24.171875 66.40625 20.328125 58.90625 
Q 16.5 51.421875 16.5 36.375 
Q 16.5 21.390625 20.328125 13.890625 
Q 24.171875 6.390625 31.78125 6.390625 
Q 39.453125 6.390625 43.28125 13.890625 
Q 47.125 21.390625 47.125 36.375 
Q 47.125 51.421875 43.28125 58.90625 
Q 39.453125 66.40625 31.78125 66.40625 
z
M 31.78125 74.21875 
Q 44.046875 74.21875 50.515625 64.515625 
Q 56.984375 54.828125 56.984375 36.375 
Q 56.984375 17.96875 50.515625 8.265625 
Q 44.046875 -1.421875 31.78125 -1.421875 
Q 19.53125 -1.421875 13.0625 8.265625 
Q 6.59375 17.96875 6.59375 36.375 
Q 6.59375 54.828125 13.0625 64.515625 
Q 19.53125 74.21875 31.78125 74.21875 
z
" id="DejaVuSans-48"/>
      </defs>
      <g transform="translate(51.2375 321.140875)scale(0.2 -0.2)">
       <use xlink:href="#DejaVuSans-48"/>
      </g>
     </g>
    </g>
    <g id="xtick_2">
     <g id="line2d_7">
      <path clip-path="url(#pa054e11cd1)" d="M 137.910857 298.944 
L 137.910857 27.648 
" style="fill:none;stroke:#b0b0b0;stroke-linecap:square;stroke-width:0.8;"/>
     </g>
     <g id="line2d_8">
      <g>
       <use style="stroke:#000000;stroke-width:0.8;" x="137.910857" xlink:href="#m837529ab48" y="298.944"/>
      </g>
     </g>
     <g id="text_2">
      <!-- 2 -->
      <defs>
       <path d="M 19.1875 8.296875 
L 53.609375 8.296875 
L 53.609375 0 
L 7.328125 0 
L 7.328125 8.296875 
Q 12.9375 14.109375 22.625 23.890625 
Q 32.328125 33.6875 34.8125 36.53125 
Q 39.546875 41.84375 41.421875 45.53125 
Q 43.3125 49.21875 43.3125 52.78125 
Q 43.3125 58.59375 39.234375 62.25 
Q 35.15625 65.921875 28.609375 65.921875 
Q 23.96875 65.921875 18.8125 64.3125 
Q 13.671875 62.703125 7.8125 59.421875 
L 7.8125 69.390625 
Q 13.765625 71.78125 18.9375 73 
Q 24.125 74.21875 28.421875 74.21875 
Q 39.75 74.21875 46.484375 68.546875 
Q 53.21875 62.890625 53.21875 53.421875 
Q 53.21875 48.921875 51.53125 44.890625 
Q 49.859375 40.875 45.40625 35.40625 
Q 44.1875 33.984375 37.640625 27.21875 
Q 31.109375 20.453125 19.1875 8.296875 
z
" id="DejaVuSans-50"/>
      </defs>
      <g transform="translate(131.548357 321.140875)scale(0.2 -0.2)">
       <use xlink:href="#DejaVuSans-50"/>
      </g>
     </g>
    </g>
    <g id="xtick_3">
     <g id="line2d_9">
      <path clip-path="url(#pa054e11cd1)" d="M 218.221714 298.944 
L 218.221714 27.648 
" style="fill:none;stroke:#b0b0b0;stroke-linecap:square;stroke-width:0.8;"/>
     </g>
     <g id="line2d_10">
      <g>
       <use style="stroke:#000000;stroke-width:0.8;" x="218.221714" xlink:href="#m837529ab48" y="298.944"/>
      </g>
     </g>
     <g id="text_3">
      <!-- 4 -->
      <defs>
       <path d="M 37.796875 64.3125 
L 12.890625 25.390625 
L 37.796875 25.390625 
z
M 35.203125 72.90625 
L 47.609375 72.90625 
L 47.609375 25.390625 
L 58.015625 25.390625 
L 58.015625 17.1875 
L 47.609375 17.1875 
L 47.609375 0 
L 37.796875 0 
L 37.796875 17.1875 
L 4.890625 17.1875 
L 4.890625 26.703125 
z
" id="DejaVuSans-52"/>
      </defs>
      <g transform="translate(211.859214 321.140875)scale(0.2 -0.2)">
       <use xlink:href="#DejaVuSans-52"/>
      </g>
     </g>
    </g>
    <g id="xtick_4">
     <g id="line2d_11">
      <path clip-path="url(#pa054e11cd1)" d="M 298.532571 298.944 
L 298.532571 27.648 
" style="fill:none;stroke:#b0b0b0;stroke-linecap:square;stroke-width:0.8;"/>
     </g>
     <g id="line2d_12">
      <g>
       <use style="stroke:#000000;stroke-width:0.8;" x="298.532571" xlink:href="#m837529ab48" y="298.944"/>
      </g>
     </g>
     <g id="text_4">
      <!-- 6 -->
      <defs>
       <path d="M 33.015625 40.375 
Q 26.375 40.375 22.484375 35.828125 
Q 18.609375 31.296875 18.609375 23.390625 
Q 18.609375 15.53125 22.484375 10.953125 
Q 26.375 6.390625 33.015625 6.390625 
Q 39.65625 6.390625 43.53125 10.953125 
Q 47.40625 15.53125 47.40625 23.390625 
Q 47.40625 31.296875 43.53125 35.828125 
Q 39.65625 40.375 33.015625 40.375 
z
M 52.59375 71.296875 
L 52.59375 62.3125 
Q 48.875 64.0625 45.09375 64.984375 
Q 41.3125 65.921875 37.59375 65.921875 
Q 27.828125 65.921875 22.671875 59.328125 
Q 17.53125 52.734375 16.796875 39.40625 
Q 19.671875 43.65625 24.015625 45.921875 
Q 28.375 48.1875 33.59375 48.1875 
Q 44.578125 48.1875 50.953125 41.515625 
Q 57.328125 34.859375 57.328125 23.390625 
Q 57.328125 12.15625 50.6875 5.359375 
Q 44.046875 -1.421875 33.015625 -1.421875 
Q 20.359375 -1.421875 13.671875 8.265625 
Q 6.984375 17.96875 6.984375 36.375 
Q 6.984375 53.65625 15.1875 63.9375 
Q 23.390625 74.21875 37.203125 74.21875 
Q 40.921875 74.21875 44.703125 73.484375 
Q 48.484375 72.75 52.59375 71.296875 
z
" id="DejaVuSans-54"/>
      </defs>
      <g transform="translate(292.170071 321.140875)scale(0.2 -0.2)">
       <use xlink:href="#DejaVuSans-54"/>
      </g>
     </g>
    </g>
    <g id="xtick_5">
     <g id="line2d_13">
      <path clip-path="url(#pa054e11cd1)" d="M 97.755429 298.944 
L 97.755429 27.648 
" style="fill:none;stroke:#b0b0b0;stroke-linecap:square;stroke-width:0.8;"/>
     </g>
     <g id="line2d_14">
      <defs>
       <path d="M 0 0 
L 0 2 
" id="m15bfc04cc5" style="stroke:#000000;stroke-width:0.6;"/>
      </defs>
      <g>
       <use style="stroke:#000000;stroke-width:0.6;" x="97.755429" xlink:href="#m15bfc04cc5" y="298.944"/>
      </g>
     </g>
    </g>
    <g id="xtick_6">
     <g id="line2d_15">
      <path clip-path="url(#pa054e11cd1)" d="M 178.066286 298.944 
L 178.066286 27.648 
" style="fill:none;stroke:#b0b0b0;stroke-linecap:square;stroke-width:0.8;"/>
     </g>
     <g id="line2d_16">
      <g>
       <use style="stroke:#000000;stroke-width:0.6;" x="178.066286" xlink:href="#m15bfc04cc5" y="298.944"/>
      </g>
     </g>
    </g>
    <g id="xtick_7">
     <g id="line2d_17">
      <path clip-path="url(#pa054e11cd1)" d="M 258.377143 298.944 
L 258.377143 27.648 
" style="fill:none;stroke:#b0b0b0;stroke-linecap:square;stroke-width:0.8;"/>
     </g>
     <g id="line2d_18">
      <g>
       <use style="stroke:#000000;stroke-width:0.6;" x="258.377143" xlink:href="#m15bfc04cc5" y="298.944"/>
      </g>
     </g>
    </g>
    <g id="xtick_8">
     <g id="line2d_19">
      <path clip-path="url(#pa054e11cd1)" d="M 338.688 298.944 
L 338.688 27.648 
" style="fill:none;stroke:#b0b0b0;stroke-linecap:square;stroke-width:0.8;"/>
     </g>
     <g id="line2d_20">
      <g>
       <use style="stroke:#000000;stroke-width:0.6;" x="338.688" xlink:href="#m15bfc04cc5" y="298.944"/>
      </g>
     </g>
    </g>
    <g id="text_5">
     <!-- log10(# f-evals / dimension) -->
     <defs>
      <path d="M 9.421875 75.984375 
L 18.40625 75.984375 
L 18.40625 0 
L 9.421875 0 
z
" id="DejaVuSans-108"/>
      <path d="M 30.609375 48.390625 
Q 23.390625 48.390625 19.1875 42.75 
Q 14.984375 37.109375 14.984375 27.296875 
Q 14.984375 17.484375 19.15625 11.84375 
Q 23.34375 6.203125 30.609375 6.203125 
Q 37.796875 6.203125 41.984375 11.859375 
Q 46.1875 17.53125 46.1875 27.296875 
Q 46.1875 37.015625 41.984375 42.703125 
Q 37.796875 48.390625 30.609375 48.390625 
z
M 30.609375 56 
Q 42.328125 56 49.015625 48.375 
Q 55.71875 40.765625 55.71875 27.296875 
Q 55.71875 13.875 49.015625 6.21875 
Q 42.328125 -1.421875 30.609375 -1.421875 
Q 18.84375 -1.421875 12.171875 6.21875 
Q 5.515625 13.875 5.515625 27.296875 
Q 5.515625 40.765625 12.171875 48.375 
Q 18.84375 56 30.609375 56 
z
" id="DejaVuSans-111"/>
      <path d="M 45.40625 27.984375 
Q 45.40625 37.75 41.375 43.109375 
Q 37.359375 48.484375 30.078125 48.484375 
Q 22.859375 48.484375 18.828125 43.109375 
Q 14.796875 37.75 14.796875 27.984375 
Q 14.796875 18.265625 18.828125 12.890625 
Q 22.859375 7.515625 30.078125 7.515625 
Q 37.359375 7.515625 41.375 12.890625 
Q 45.40625 18.265625 45.40625 27.984375 
z
M 54.390625 6.78125 
Q 54.390625 -7.171875 48.1875 -13.984375 
Q 42 -20.796875 29.203125 -20.796875 
Q 24.46875 -20.796875 20.265625 -20.09375 
Q 16.0625 -19.390625 12.109375 -17.921875 
L 12.109375 -9.1875 
Q 16.0625 -11.328125 19.921875 -12.34375 
Q 23.78125 -13.375 27.78125 -13.375 
Q 36.625 -13.375 41.015625 -8.765625 
Q 45.40625 -4.15625 45.40625 5.171875 
L 45.40625 9.625 
Q 42.625 4.78125 38.28125 2.390625 
Q 33.9375 0 27.875 0 
Q 17.828125 0 11.671875 7.65625 
Q 5.515625 15.328125 5.515625 27.984375 
Q 5.515625 40.671875 11.671875 48.328125 
Q 17.828125 56 27.875 56 
Q 33.9375 56 38.28125 53.609375 
Q 42.625 51.21875 45.40625 46.390625 
L 45.40625 54.6875 
L 54.390625 54.6875 
z
" id="DejaVuSans-103"/>
      <path d="M 12.40625 8.296875 
L 28.515625 8.296875 
L 28.515625 63.921875 
L 10.984375 60.40625 
L 10.984375 69.390625 
L 28.421875 72.90625 
L 38.28125 72.90625 
L 38.28125 8.296875 
L 54.390625 8.296875 
L 54.390625 0 
L 12.40625 0 
z
" id="DejaVuSans-49"/>
      <path d="M 31 75.875 
Q 24.46875 64.65625 21.28125 53.65625 
Q 18.109375 42.671875 18.109375 31.390625 
Q 18.109375 20.125 21.3125 9.0625 
Q 24.515625 -2 31 -13.1875 
L 23.1875 -13.1875 
Q 15.875 -1.703125 12.234375 9.375 
Q 8.59375 20.453125 8.59375 31.390625 
Q 8.59375 42.28125 12.203125 53.3125 
Q 15.828125 64.359375 23.1875 75.875 
z
" id="DejaVuSans-40"/>
      <path d="M 51.125 44 
L 36.921875 44 
L 32.8125 27.6875 
L 47.125 27.6875 
z
M 43.796875 71.78125 
L 38.71875 51.515625 
L 52.984375 51.515625 
L 58.109375 71.78125 
L 65.921875 71.78125 
L 60.890625 51.515625 
L 76.125 51.515625 
L 76.125 44 
L 58.984375 44 
L 54.984375 27.6875 
L 70.515625 27.6875 
L 70.515625 20.21875 
L 53.078125 20.21875 
L 48 0 
L 40.1875 0 
L 45.21875 20.21875 
L 30.90625 20.21875 
L 25.875 0 
L 18.015625 0 
L 23.09375 20.21875 
L 7.71875 20.21875 
L 7.71875 27.6875 
L 24.90625 27.6875 
L 29 44 
L 13.28125 44 
L 13.28125 51.515625 
L 30.90625 51.515625 
L 35.890625 71.78125 
z
" id="DejaVuSans-35"/>
      <path id="DejaVuSans-32"/>
      <path d="M 37.109375 75.984375 
L 37.109375 68.5 
L 28.515625 68.5 
Q 23.6875 68.5 21.796875 66.546875 
Q 19.921875 64.59375 19.921875 59.515625 
L 19.921875 54.6875 
L 34.71875 54.6875 
L 34.71875 47.703125 
L 19.921875 47.703125 
L 19.921875 0 
L 10.890625 0 
L 10.890625 47.703125 
L 2.296875 47.703125 
L 2.296875 54.6875 
L 10.890625 54.6875 
L 10.890625 58.5 
Q 10.890625 67.625 15.140625 71.796875 
Q 19.390625 75.984375 28.609375 75.984375 
z
" id="DejaVuSans-102"/>
      <path d="M 4.890625 31.390625 
L 31.203125 31.390625 
L 31.203125 23.390625 
L 4.890625 23.390625 
z
" id="DejaVuSans-45"/>
      <path d="M 56.203125 29.59375 
L 56.203125 25.203125 
L 14.890625 25.203125 
Q 15.484375 15.921875 20.484375 11.0625 
Q 25.484375 6.203125 34.421875 6.203125 
Q 39.59375 6.203125 44.453125 7.46875 
Q 49.3125 8.734375 54.109375 11.28125 
L 54.109375 2.78125 
Q 49.265625 0.734375 44.1875 -0.34375 
Q 39.109375 -1.421875 33.890625 -1.421875 
Q 20.796875 -1.421875 13.15625 6.1875 
Q 5.515625 13.8125 5.515625 26.8125 
Q 5.515625 40.234375 12.765625 48.109375 
Q 20.015625 56 32.328125 56 
Q 43.359375 56 49.78125 48.890625 
Q 56.203125 41.796875 56.203125 29.59375 
z
M 47.21875 32.234375 
Q 47.125 39.59375 43.09375 43.984375 
Q 39.0625 48.390625 32.421875 48.390625 
Q 24.90625 48.390625 20.390625 44.140625 
Q 15.875 39.890625 15.1875 32.171875 
z
" id="DejaVuSans-101"/>
      <path d="M 2.984375 54.6875 
L 12.5 54.6875 
L 29.59375 8.796875 
L 46.6875 54.6875 
L 56.203125 54.6875 
L 35.6875 0 
L 23.484375 0 
z
" id="DejaVuSans-118"/>
      <path d="M 34.28125 27.484375 
Q 23.390625 27.484375 19.1875 25 
Q 14.984375 22.515625 14.984375 16.5 
Q 14.984375 11.71875 18.140625 8.90625 
Q 21.296875 6.109375 26.703125 6.109375 
Q 34.1875 6.109375 38.703125 11.40625 
Q 43.21875 16.703125 43.21875 25.484375 
L 43.21875 27.484375 
z
M 52.203125 31.203125 
L 52.203125 0 
L 43.21875 0 
L 43.21875 8.296875 
Q 40.140625 3.328125 35.546875 0.953125 
Q 30.953125 -1.421875 24.3125 -1.421875 
Q 15.921875 -1.421875 10.953125 3.296875 
Q 6 8.015625 6 15.921875 
Q 6 25.140625 12.171875 29.828125 
Q 18.359375 34.515625 30.609375 34.515625 
L 43.21875 34.515625 
L 43.21875 35.40625 
Q 43.21875 41.609375 39.140625 45 
Q 35.0625 48.390625 27.6875 48.390625 
Q 23 48.390625 18.546875 47.265625 
Q 14.109375 46.140625 10.015625 43.890625 
L 10.015625 52.203125 
Q 14.9375 54.109375 19.578125 55.046875 
Q 24.21875 56 28.609375 56 
Q 40.484375 56 46.34375 49.84375 
Q 52.203125 43.703125 52.203125 31.203125 
z
" id="DejaVuSans-97"/>
      <path d="M 44.28125 53.078125 
L 44.28125 44.578125 
Q 40.484375 46.53125 36.375 47.5 
Q 32.28125 48.484375 27.875 48.484375 
Q 21.1875 48.484375 17.84375 46.4375 
Q 14.5 44.390625 14.5 40.28125 
Q 14.5 37.15625 16.890625 35.375 
Q 19.28125 33.59375 26.515625 31.984375 
L 29.59375 31.296875 
Q 39.15625 29.25 43.1875 25.515625 
Q 47.21875 21.78125 47.21875 15.09375 
Q 47.21875 7.46875 41.1875 3.015625 
Q 35.15625 -1.421875 24.609375 -1.421875 
Q 20.21875 -1.421875 15.453125 -0.5625 
Q 10.6875 0.296875 5.421875 2 
L 5.421875 11.28125 
Q 10.40625 8.6875 15.234375 7.390625 
Q 20.0625 6.109375 24.8125 6.109375 
Q 31.15625 6.109375 34.5625 8.28125 
Q 37.984375 10.453125 37.984375 14.40625 
Q 37.984375 18.0625 35.515625 20.015625 
Q 33.0625 21.96875 24.703125 23.78125 
L 21.578125 24.515625 
Q 13.234375 26.265625 9.515625 29.90625 
Q 5.8125 33.546875 5.8125 39.890625 
Q 5.8125 47.609375 11.28125 51.796875 
Q 16.75 56 26.8125 56 
Q 31.78125 56 36.171875 55.265625 
Q 40.578125 54.546875 44.28125 53.078125 
z
" id="DejaVuSans-115"/>
      <path d="M 25.390625 72.90625 
L 33.6875 72.90625 
L 8.296875 -9.28125 
L 0 -9.28125 
z
" id="DejaVuSans-47"/>
      <path d="M 45.40625 46.390625 
L 45.40625 75.984375 
L 54.390625 75.984375 
L 54.390625 0 
L 45.40625 0 
L 45.40625 8.203125 
Q 42.578125 3.328125 38.25 0.953125 
Q 33.9375 -1.421875 27.875 -1.421875 
Q 17.96875 -1.421875 11.734375 6.484375 
Q 5.515625 14.40625 5.515625 27.296875 
Q 5.515625 40.1875 11.734375 48.09375 
Q 17.96875 56 27.875 56 
Q 33.9375 56 38.25 53.625 
Q 42.578125 51.265625 45.40625 46.390625 
z
M 14.796875 27.296875 
Q 14.796875 17.390625 18.875 11.75 
Q 22.953125 6.109375 30.078125 6.109375 
Q 37.203125 6.109375 41.296875 11.75 
Q 45.40625 17.390625 45.40625 27.296875 
Q 45.40625 37.203125 41.296875 42.84375 
Q 37.203125 48.484375 30.078125 48.484375 
Q 22.953125 48.484375 18.875 42.84375 
Q 14.796875 37.203125 14.796875 27.296875 
z
" id="DejaVuSans-100"/>
      <path d="M 9.421875 54.6875 
L 18.40625 54.6875 
L 18.40625 0 
L 9.421875 0 
z
M 9.421875 75.984375 
L 18.40625 75.984375 
L 18.40625 64.59375 
L 9.421875 64.59375 
z
" id="DejaVuSans-105"/>
      <path d="M 52 44.1875 
Q 55.375 50.25 60.0625 53.125 
Q 64.75 56 71.09375 56 
Q 79.640625 56 84.28125 50.015625 
Q 88.921875 44.046875 88.921875 33.015625 
L 88.921875 0 
L 79.890625 0 
L 79.890625 32.71875 
Q 79.890625 40.578125 77.09375 44.375 
Q 74.3125 48.1875 68.609375 48.1875 
Q 61.625 48.1875 57.5625 43.546875 
Q 53.515625 38.921875 53.515625 30.90625 
L 53.515625 0 
L 44.484375 0 
L 44.484375 32.71875 
Q 44.484375 40.625 41.703125 44.40625 
Q 38.921875 48.1875 33.109375 48.1875 
Q 26.21875 48.1875 22.15625 43.53125 
Q 18.109375 38.875 18.109375 30.90625 
L 18.109375 0 
L 9.078125 0 
L 9.078125 54.6875 
L 18.109375 54.6875 
L 18.109375 46.1875 
Q 21.1875 51.21875 25.484375 53.609375 
Q 29.78125 56 35.6875 56 
Q 41.65625 56 45.828125 52.96875 
Q 50 49.953125 52 44.1875 
z
" id="DejaVuSans-109"/>
      <path d="M 54.890625 33.015625 
L 54.890625 0 
L 45.90625 0 
L 45.90625 32.71875 
Q 45.90625 40.484375 42.875 44.328125 
Q 39.84375 48.1875 33.796875 48.1875 
Q 26.515625 48.1875 22.3125 43.546875 
Q 18.109375 38.921875 18.109375 30.90625 
L 18.109375 0 
L 9.078125 0 
L 9.078125 54.6875 
L 18.109375 54.6875 
L 18.109375 46.1875 
Q 21.34375 51.125 25.703125 53.5625 
Q 30.078125 56 35.796875 56 
Q 45.21875 56 50.046875 50.171875 
Q 54.890625 44.34375 54.890625 33.015625 
z
" id="DejaVuSans-110"/>
      <path d="M 8.015625 75.875 
L 15.828125 75.875 
Q 23.140625 64.359375 26.78125 53.3125 
Q 30.421875 42.28125 30.421875 31.390625 
Q 30.421875 20.453125 26.78125 9.375 
Q 23.140625 -1.703125 15.828125 -13.1875 
L 8.015625 -13.1875 
Q 14.5 -2 17.703125 9.0625 
Q 20.90625 20.125 20.90625 31.390625 
Q 20.90625 42.671875 17.703125 53.65625 
Q 14.5 64.65625 8.015625 75.875 
z
" id="DejaVuSans-41"/>
     </defs>
     <g transform="translate(77.764078 342.217594)scale(0.17 -0.17)">
      <use xlink:href="#DejaVuSans-108"/>
      <use x="27.783203" xlink:href="#DejaVuSans-111"/>
      <use x="88.964844" xlink:href="#DejaVuSans-103"/>
      <use x="152.441406" xlink:href="#DejaVuSans-49"/>
      <use x="216.064453" xlink:href="#DejaVuSans-48"/>
      <use x="279.6875" xlink:href="#DejaVuSans-40"/>
      <use x="318.701172" xlink:href="#DejaVuSans-35"/>
      <use x="402.490234" xlink:href="#DejaVuSans-32"/>
      <use x="434.277344" xlink:href="#DejaVuSans-102"/>
      <use x="463.982422" xlink:href="#DejaVuSans-45"/>
      <use x="500.066406" xlink:href="#DejaVuSans-101"/>
      <use x="561.589844" xlink:href="#DejaVuSans-118"/>
      <use x="620.769531" xlink:href="#DejaVuSans-97"/>
      <use x="682.048828" xlink:href="#DejaVuSans-108"/>
      <use x="709.832031" xlink:href="#DejaVuSans-115"/>
      <use x="761.931641" xlink:href="#DejaVuSans-32"/>
      <use x="793.71875" xlink:href="#DejaVuSans-47"/>
      <use x="827.410156" xlink:href="#DejaVuSans-32"/>
      <use x="859.197266" xlink:href="#DejaVuSans-100"/>
      <use x="922.673828" xlink:href="#DejaVuSans-105"/>
      <use x="950.457031" xlink:href="#DejaVuSans-109"/>
      <use x="1047.869141" xlink:href="#DejaVuSans-101"/>
      <use x="1109.392578" xlink:href="#DejaVuSans-110"/>
      <use x="1172.771484" xlink:href="#DejaVuSans-115"/>
      <use x="1224.871094" xlink:href="#DejaVuSans-105"/>
      <use x="1252.654297" xlink:href="#DejaVuSans-111"/>
      <use x="1313.835938" xlink:href="#DejaVuSans-110"/>
      <use x="1377.214844" xlink:href="#DejaVuSans-41"/>
     </g>
    </g>
   </g>
   <g id="matplotlib.axis_2">
    <g id="ytick_1">
     <g id="line2d_21">
      <path clip-path="url(#pa054e11cd1)" d="M 57.6 298.944 
L 338.688 298.944 
" style="fill:none;stroke:#b0b0b0;stroke-linecap:square;stroke-width:0.8;"/>
     </g>
     <g id="line2d_22">
      <defs>
       <path d="M 0 0 
L -3.5 0 
" id="m7b3553df0a" style="stroke:#000000;stroke-width:0.8;"/>
      </defs>
      <g>
       <use style="stroke:#000000;stroke-width:0.8;" x="57.6" xlink:href="#m7b3553df0a" y="298.944"/>
      </g>
     </g>
     <g id="text_6">
      <!-- 0.0 -->
      <defs>
       <path d="M 10.6875 12.40625 
L 21 12.40625 
L 21 0 
L 10.6875 0 
z
" id="DejaVuSans-46"/>
      </defs>
      <g transform="translate(25.155 305.02275)scale(0.16 -0.16)">
       <use xlink:href="#DejaVuSans-48"/>
       <use x="63.623047" xlink:href="#DejaVuSans-46"/>
       <use x="95.410156" xlink:href="#DejaVuSans-48"/>
      </g>
     </g>
    </g>
    <g id="ytick_2">
     <g id="line2d_23">
      <path clip-path="url(#pa054e11cd1)" d="M 57.6 245.22202 
L 338.688 245.22202 
" style="fill:none;stroke:#b0b0b0;stroke-linecap:square;stroke-width:0.8;"/>
     </g>
     <g id="line2d_24">
      <g>
       <use style="stroke:#000000;stroke-width:0.8;" x="57.6" xlink:href="#m7b3553df0a" y="245.22202"/>
      </g>
     </g>
     <g id="text_7">
      <!-- 0.2 -->
      <g transform="translate(25.155 251.30077)scale(0.16 -0.16)">
       <use xlink:href="#DejaVuSans-48"/>
       <use x="63.623047" xlink:href="#DejaVuSans-46"/>
       <use x="95.410156" xlink:href="#DejaVuSans-50"/>
      </g>
     </g>
    </g>
    <g id="ytick_3">
     <g id="line2d_25">
      <path clip-path="url(#pa054e11cd1)" d="M 57.6 191.50004 
L 338.688 191.50004 
" style="fill:none;stroke:#b0b0b0;stroke-linecap:square;stroke-width:0.8;"/>
     </g>
     <g id="line2d_26">
      <g>
       <use style="stroke:#000000;stroke-width:0.8;" x="57.6" xlink:href="#m7b3553df0a" y="191.50004"/>
      </g>
     </g>
     <g id="text_8">
      <!-- 0.4 -->
      <g transform="translate(25.155 197.57879)scale(0.16 -0.16)">
       <use xlink:href="#DejaVuSans-48"/>
       <use x="63.623047" xlink:href="#DejaVuSans-46"/>
       <use x="95.410156" xlink:href="#DejaVuSans-52"/>
      </g>
     </g>
    </g>
    <g id="ytick_4">
     <g id="line2d_27">
      <path clip-path="url(#pa054e11cd1)" d="M 57.6 137.778059 
L 338.688 137.778059 
" style="fill:none;stroke:#b0b0b0;stroke-linecap:square;stroke-width:0.8;"/>
     </g>
     <g id="line2d_28">
      <g>
       <use style="stroke:#000000;stroke-width:0.8;" x="57.6" xlink:href="#m7b3553df0a" y="137.778059"/>
      </g>
     </g>
     <g id="text_9">
      <!-- 0.6 -->
      <g transform="translate(25.155 143.856809)scale(0.16 -0.16)">
       <use xlink:href="#DejaVuSans-48"/>
       <use x="63.623047" xlink:href="#DejaVuSans-46"/>
       <use x="95.410156" xlink:href="#DejaVuSans-54"/>
      </g>
     </g>
    </g>
    <g id="ytick_5">
     <g id="line2d_29">
      <path clip-path="url(#pa054e11cd1)" d="M 57.6 84.056079 
L 338.688 84.056079 
" style="fill:none;stroke:#b0b0b0;stroke-linecap:square;stroke-width:0.8;"/>
     </g>
     <g id="line2d_30">
      <g>
       <use style="stroke:#000000;stroke-width:0.8;" x="57.6" xlink:href="#m7b3553df0a" y="84.056079"/>
      </g>
     </g>
     <g id="text_10">
      <!-- 0.8 -->
      <defs>
       <path d="M 31.78125 34.625 
Q 24.75 34.625 20.71875 30.859375 
Q 16.703125 27.09375 16.703125 20.515625 
Q 16.703125 13.921875 20.71875 10.15625 
Q 24.75 6.390625 31.78125 6.390625 
Q 38.8125 6.390625 42.859375 10.171875 
Q 46.921875 13.96875 46.921875 20.515625 
Q 46.921875 27.09375 42.890625 30.859375 
Q 38.875 34.625 31.78125 34.625 
z
M 21.921875 38.8125 
Q 15.578125 40.375 12.03125 44.71875 
Q 8.5 49.078125 8.5 55.328125 
Q 8.5 64.0625 14.71875 69.140625 
Q 20.953125 74.21875 31.78125 74.21875 
Q 42.671875 74.21875 48.875 69.140625 
Q 55.078125 64.0625 55.078125 55.328125 
Q 55.078125 49.078125 51.53125 44.71875 
Q 48 40.375 41.703125 38.8125 
Q 48.828125 37.15625 52.796875 32.3125 
Q 56.78125 27.484375 56.78125 20.515625 
Q 56.78125 9.90625 50.3125 4.234375 
Q 43.84375 -1.421875 31.78125 -1.421875 
Q 19.734375 -1.421875 13.25 4.234375 
Q 6.78125 9.90625 6.78125 20.515625 
Q 6.78125 27.484375 10.78125 32.3125 
Q 14.796875 37.15625 21.921875 38.8125 
z
M 18.3125 54.390625 
Q 18.3125 48.734375 21.84375 45.5625 
Q 25.390625 42.390625 31.78125 42.390625 
Q 38.140625 42.390625 41.71875 45.5625 
Q 45.3125 48.734375 45.3125 54.390625 
Q 45.3125 60.0625 41.71875 63.234375 
Q 38.140625 66.40625 31.78125 66.40625 
Q 25.390625 66.40625 21.84375 63.234375 
Q 18.3125 60.0625 18.3125 54.390625 
z
" id="DejaVuSans-56"/>
      </defs>
      <g transform="translate(25.155 90.134829)scale(0.16 -0.16)">
       <use xlink:href="#DejaVuSans-48"/>
       <use x="63.623047" xlink:href="#DejaVuSans-46"/>
       <use x="95.410156" xlink:href="#DejaVuSans-56"/>
      </g>
     </g>
    </g>
    <g id="ytick_6">
     <g id="line2d_31">
      <path clip-path="url(#pa054e11cd1)" d="M 57.6 30.334099 
L 338.688 30.334099 
" style="fill:none;stroke:#b0b0b0;stroke-linecap:square;stroke-width:0.8;"/>
     </g>
     <g id="line2d_32">
      <g>
       <use style="stroke:#000000;stroke-width:0.8;" x="57.6" xlink:href="#m7b3553df0a" y="30.334099"/>
      </g>
     </g>
     <g id="text_11">
      <!-- 1.0 -->
      <g transform="translate(25.155 36.412849)scale(0.16 -0.16)">
       <use xlink:href="#DejaVuSans-49"/>
       <use x="63.623047" xlink:href="#DejaVuSans-46"/>
       <use x="95.410156" xlink:href="#DejaVuSans-48"/>
      </g>
     </g>
    </g>
    <g id="text_12">
     <!-- Fraction of function,target pairs -->
     <defs>
      <path d="M 9.8125 72.90625 
L 51.703125 72.90625 
L 51.703125 64.59375 
L 19.671875 64.59375 
L 19.671875 43.109375 
L 48.578125 43.109375 
L 48.578125 34.8125 
L 19.671875 34.8125 
L 19.671875 0 
L 9.8125 0 
z
" id="DejaVuSans-70"/>
      <path d="M 41.109375 46.296875 
Q 39.59375 47.171875 37.8125 47.578125 
Q 36.03125 48 33.890625 48 
Q 26.265625 48 22.1875 43.046875 
Q 18.109375 38.09375 18.109375 28.8125 
L 18.109375 0 
L 9.078125 0 
L 9.078125 54.6875 
L 18.109375 54.6875 
L 18.109375 46.1875 
Q 20.953125 51.171875 25.484375 53.578125 
Q 30.03125 56 36.53125 56 
Q 37.453125 56 38.578125 55.875 
Q 39.703125 55.765625 41.0625 55.515625 
z
" id="DejaVuSans-114"/>
      <path d="M 48.78125 52.59375 
L 48.78125 44.1875 
Q 44.96875 46.296875 41.140625 47.34375 
Q 37.3125 48.390625 33.40625 48.390625 
Q 24.65625 48.390625 19.8125 42.84375 
Q 14.984375 37.3125 14.984375 27.296875 
Q 14.984375 17.28125 19.8125 11.734375 
Q 24.65625 6.203125 33.40625 6.203125 
Q 37.3125 6.203125 41.140625 7.25 
Q 44.96875 8.296875 48.78125 10.40625 
L 48.78125 2.09375 
Q 45.015625 0.34375 40.984375 -0.53125 
Q 36.96875 -1.421875 32.421875 -1.421875 
Q 20.0625 -1.421875 12.78125 6.34375 
Q 5.515625 14.109375 5.515625 27.296875 
Q 5.515625 40.671875 12.859375 48.328125 
Q 20.21875 56 33.015625 56 
Q 37.15625 56 41.109375 55.140625 
Q 45.0625 54.296875 48.78125 52.59375 
z
" id="DejaVuSans-99"/>
      <path d="M 18.3125 70.21875 
L 18.3125 54.6875 
L 36.8125 54.6875 
L 36.8125 47.703125 
L 18.3125 47.703125 
L 18.3125 18.015625 
Q 18.3125 11.328125 20.140625 9.421875 
Q 21.96875 7.515625 27.59375 7.515625 
L 36.8125 7.515625 
L 36.8125 0 
L 27.59375 0 
Q 17.1875 0 13.234375 3.875 
Q 9.28125 7.765625 9.28125 18.015625 
L 9.28125 47.703125 
L 2.6875 47.703125 
L 2.6875 54.6875 
L 9.28125 54.6875 
L 9.28125 70.21875 
z
" id="DejaVuSans-116"/>
      <path d="M 8.5 21.578125 
L 8.5 54.6875 
L 17.484375 54.6875 
L 17.484375 21.921875 
Q 17.484375 14.15625 20.5 10.265625 
Q 23.53125 6.390625 29.59375 6.390625 
Q 36.859375 6.390625 41.078125 11.03125 
Q 45.3125 15.671875 45.3125 23.6875 
L 45.3125 54.6875 
L 54.296875 54.6875 
L 54.296875 0 
L 45.3125 0 
L 45.3125 8.40625 
Q 42.046875 3.421875 37.71875 1 
Q 33.40625 -1.421875 27.6875 -1.421875 
Q 18.265625 -1.421875 13.375 4.4375 
Q 8.5 10.296875 8.5 21.578125 
z
M 31.109375 56 
z
" id="DejaVuSans-117"/>
      <path d="M 11.71875 12.40625 
L 22.015625 12.40625 
L 22.015625 4 
L 14.015625 -11.625 
L 7.71875 -11.625 
L 11.71875 4 
z
" id="DejaVuSans-44"/>
      <path d="M 18.109375 8.203125 
L 18.109375 -20.796875 
L 9.078125 -20.796875 
L 9.078125 54.6875 
L 18.109375 54.6875 
L 18.109375 46.390625 
Q 20.953125 51.265625 25.265625 53.625 
Q 29.59375 56 35.59375 56 
Q 45.5625 56 51.78125 48.09375 
Q 58.015625 40.1875 58.015625 27.296875 
Q 58.015625 14.40625 51.78125 6.484375 
Q 45.5625 -1.421875 35.59375 -1.421875 
Q 29.59375 -1.421875 25.265625 0.953125 
Q 20.953125 3.328125 18.109375 8.203125 
z
M 48.6875 27.296875 
Q 48.6875 37.203125 44.609375 42.84375 
Q 40.53125 48.484375 33.40625 48.484375 
Q 26.265625 48.484375 22.1875 42.84375 
Q 18.109375 37.203125 18.109375 27.296875 
Q 18.109375 17.390625 22.1875 11.75 
Q 26.265625 6.109375 33.40625 6.109375 
Q 40.53125 6.109375 44.609375 11.75 
Q 48.6875 17.390625 48.6875 27.296875 
z
" id="DejaVuSans-112"/>
     </defs>
     <g transform="translate(17.619531 297.681)rotate(-90)scale(0.17 -0.17)">
      <use xlink:href="#DejaVuSans-70"/>
      <use x="50.269531" xlink:href="#DejaVuSans-114"/>
      <use x="91.382812" xlink:href="#DejaVuSans-97"/>
      <use x="152.662109" xlink:href="#DejaVuSans-99"/>
      <use x="207.642578" xlink:href="#DejaVuSans-116"/>
      <use x="246.851562" xlink:href="#DejaVuSans-105"/>
      <use x="274.634766" xlink:href="#DejaVuSans-111"/>
      <use x="335.816406" xlink:href="#DejaVuSans-110"/>
      <use x="399.195312" xlink:href="#DejaVuSans-32"/>
      <use x="430.982422" xlink:href="#DejaVuSans-111"/>
      <use x="492.164062" xlink:href="#DejaVuSans-102"/>
      <use x="527.369141" xlink:href="#DejaVuSans-32"/>
      <use x="559.15625" xlink:href="#DejaVuSans-102"/>
      <use x="594.361328" xlink:href="#DejaVuSans-117"/>
      <use x="657.740234" xlink:href="#DejaVuSans-110"/>
      <use x="721.119141" xlink:href="#DejaVuSans-99"/>
      <use x="776.099609" xlink:href="#DejaVuSans-116"/>
      <use x="815.308594" xlink:href="#DejaVuSans-105"/>
      <use x="843.091797" xlink:href="#DejaVuSans-111"/>
      <use x="904.273438" xlink:href="#DejaVuSans-110"/>
      <use x="967.652344" xlink:href="#DejaVuSans-44"/>
      <use x="999.439453" xlink:href="#DejaVuSans-116"/>
      <use x="1038.648438" xlink:href="#DejaVuSans-97"/>
      <use x="1099.927734" xlink:href="#DejaVuSans-114"/>
      <use x="1139.291016" xlink:href="#DejaVuSans-103"/>
      <use x="1202.767578" xlink:href="#DejaVuSans-101"/>
      <use x="1264.291016" xlink:href="#DejaVuSans-116"/>
      <use x="1303.5" xlink:href="#DejaVuSans-32"/>
      <use x="1335.287109" xlink:href="#DejaVuSans-112"/>
      <use x="1398.763672" xlink:href="#DejaVuSans-97"/>
      <use x="1460.042969" xlink:href="#DejaVuSans-105"/>
      <use x="1487.826172" xlink:href="#DejaVuSans-114"/>
      <use x="1528.939453" xlink:href="#DejaVuSans-115"/>
     </g>
    </g>
   </g>
   <g id="line2d_33">
    <defs>
     <path d="M 0 1.5 
C 0.397805 1.5 0.77937 1.341951 1.06066 1.06066 
C 1.341951 0.77937 1.5 0.397805 1.5 0 
C 1.5 -0.397805 1.341951 -0.77937 1.06066 -1.06066 
C 0.77937 -1.341951 0.397805 -1.5 0 -1.5 
C -0.397805 -1.5 -0.77937 -1.341951 -1.06066 -1.06066 
C -1.341951 -0.77937 -1.5 -0.397805 -1.5 0 
C -1.5 0.397805 -1.341951 0.77937 -1.06066 1.06066 
C -0.77937 1.341951 -0.397805 1.5 0 1.5 
z
" id="m264d1bd4ce" style="stroke:#f5deb3;"/>
    </defs>
    <g>
     <use style="fill:#f5deb3;stroke:#f5deb3;" x="141.046761" xlink:href="#m264d1bd4ce" y="30.334099"/>
     <use style="fill:#f5deb3;stroke:#f5deb3;" x="141.046761" xlink:href="#m264d1bd4ce" y="30.334099"/>
    </g>
   </g>
   <g id="line2d_34">
    <defs>
     <path d="M 0 1.5 
C 0.397805 1.5 0.77937 1.341951 1.06066 1.06066 
C 1.341951 0.77937 1.5 0.397805 1.5 0 
C 1.5 -0.397805 1.341951 -0.77937 1.06066 -1.06066 
C 0.77937 -1.341951 0.397805 -1.5 0 -1.5 
C -0.397805 -1.5 -0.77937 -1.341951 -1.06066 -1.06066 
C -1.341951 -0.77937 -1.5 -0.397805 -1.5 0 
C -1.5 0.397805 -1.341951 0.77937 -1.06066 1.06066 
C -0.77937 1.341951 -0.397805 1.5 0 1.5 
z
" id="mec88bdc018" style="stroke:#000080;"/>
    </defs>
    <g>
     <use style="fill:#000080;stroke:#000080;" x="256.110703" xlink:href="#mec88bdc018" y="30.334099"/>
     <use style="fill:#000080;stroke:#000080;" x="256.110703" xlink:href="#mec88bdc018" y="30.334099"/>
    </g>
   </g>
   <g id="line2d_35">
    <path d="M 90.509138 298.944 
L 90.509138 298.417314 
L 92.026554 298.417314 
L 92.026554 297.890628 
L 92.969447 297.890628 
L 92.969447 297.363942 
L 93.863965 297.363942 
L 93.863965 296.31057 
L 94.080605 296.31057 
L 94.080605 295.783884 
L 94.921215 295.783884 
L 94.921215 295.257197 
L 95.918017 295.257197 
L 95.918017 294.730511 
L 96.489848 294.730511 
L 96.489848 294.203825 
L 101.223245 294.203825 
L 101.223245 293.677139 
L 101.646892 293.677139 
L 101.646892 293.150453 
L 102.464508 293.150453 
L 102.464508 292.623767 
L 102.597126 292.623767 
L 102.597126 291.043709 
L 104.355088 291.043709 
L 104.355088 290.517023 
L 104.942325 290.517023 
L 104.942325 289.990337 
L 105.951954 289.990337 
L 106.06061 288.936964 
L 106.593963 288.936964 
L 106.593963 288.410278 
L 107.009204 288.410278 
L 107.009204 287.883592 
L 107.213174 287.883592 
L 107.213174 287.356906 
L 107.414787 287.356906 
L 107.514726 286.303534 
L 108.102622 286.303534 
L 108.102622 285.776848 
L 109.579846 285.776848 
L 109.579846 285.250162 
L 110.61104 285.250162 
L 110.61104 284.723476 
L 111.023335 284.723476 
L 111.023335 284.19679 
L 111.584648 284.19679 
L 111.584648 283.670104 
L 111.819788 283.670104 
L 111.819788 283.143418 
L 112.803609 283.143418 
L 112.803609 282.616732 
L 113.167699 282.616732 
L 113.167699 282.090045 
L 114.485807 282.090045 
L 114.485807 281.563359 
L 115.269727 281.563359 
L 115.269727 281.036673 
L 115.958621 281.036673 
L 115.958621 280.509987 
L 116.262979 280.509987 
L 116.262979 279.983301 
L 116.621333 279.983301 
L 116.621333 278.929929 
L 116.856209 278.929929 
L 116.856209 278.403243 
L 118.094355 278.403243 
L 118.094355 277.876557 
L 118.363901 277.876557 
L 118.363901 276.296499 
L 118.681952 276.296499 
L 118.681952 275.769812 
L 118.890808 275.769812 
L 118.890808 275.243126 
L 120.990934 275.243126 
L 120.990934 274.71644 
L 121.355214 274.71644 
L 121.355214 274.189754 
L 121.579085 274.189754 
L 121.579085 273.663068 
L 122.906394 273.663068 
L 122.906394 273.136382 
L 123.152022 273.136382 
L 123.152022 272.609696 
L 123.672636 272.609696 
L 123.672636 272.08301 
L 125.996395 272.08301 
L 125.996395 271.556324 
L 130.127931 271.556324 
L 130.127931 271.029638 
L 131.338382 271.029638 
L 131.338382 270.502952 
L 131.839545 270.502952 
L 131.839545 269.976266 
L 132.870621 269.976266 
L 132.870621 269.449579 
L 133.216421 269.449579 
L 133.216421 268.922893 
L 133.711505 268.922893 
L 133.711505 268.396207 
L 134.932432 268.396207 
L 134.932432 267.869521 
L 135.621981 267.869521 
L 135.621981 267.342835 
L 137.217107 267.342835 
L 137.217107 266.816149 
L 139.445704 266.816149 
L 139.445704 266.289463 
L 139.746525 266.289463 
L 139.746525 265.762777 
L 139.995884 265.762777 
L 139.995884 265.236091 
L 141.263941 265.236091 
L 141.263941 264.709405 
L 144.342484 264.709405 
L 144.342484 264.182719 
L 144.900303 264.182719 
L 144.900303 263.656033 
L 148.267683 263.656033 
L 148.267683 263.129347 
L 148.705114 263.129347 
L 148.705114 262.60266 
L 149.485628 262.60266 
L 149.575199 261.549288 
L 150.412445 261.549288 
L 150.412445 261.022602 
L 151.581536 261.022602 
L 151.581536 260.495916 
L 152.5194 260.495916 
L 152.5194 259.96923 
L 153.601933 259.96923 
L 153.601933 259.442544 
L 153.897283 259.442544 
L 153.897283 258.915858 
L 154.022346 258.915858 
L 154.022346 258.389172 
L 154.187714 258.389172 
L 154.187714 257.862486 
L 154.601099 257.862486 
L 154.601099 257.3358 
L 155.128803 257.3358 
L 155.128803 256.809114 
L 155.393186 256.809114 
L 155.393186 256.282427 
L 156.003167 256.282427 
L 156.003167 255.755741 
L 156.199806 255.755741 
L 156.199806 255.229055 
L 156.339784 255.229055 
L 156.339784 254.702369 
L 156.900466 254.702369 
L 156.900466 254.175683 
L 157.122105 254.175683 
L 157.226117 253.122311 
L 157.409509 253.122311 
L 157.409509 252.595625 
L 157.624812 252.595625 
L 157.624812 252.068939 
L 158.080549 252.068939 
L 158.113432 251.015567 
L 158.352703 251.015567 
L 158.352703 250.488881 
L 158.497919 250.488881 
L 158.508628 249.435508 
L 159.216679 249.435508 
L 159.262876 248.382136 
L 159.451521 248.382136 
L 159.451521 247.85545 
L 159.562728 247.85545 
L 159.592935 246.802078 
L 159.683242 246.802078 
L 159.763125 245.748706 
L 159.832723 245.748706 
L 159.892158 244.168648 
L 159.946463 244.168648 
L 159.946463 243.641962 
L 160.220333 243.641962 
L 160.220333 243.115275 
L 160.604262 243.115275 
L 160.637457 242.061903 
L 160.825941 242.061903 
L 160.900768 240.481845 
L 161.026314 240.481845 
L 161.095674 239.428473 
L 161.150963 239.428473 
L 161.21983 237.848415 
L 161.334007 237.848415 
L 161.379469 236.795043 
L 161.796686 236.795043 
L 161.867469 234.161612 
L 161.946759 234.161612 
L 161.946759 233.634926 
L 162.091193 233.634926 
L 162.104265 232.581554 
L 162.208484 232.581554 
L 162.208484 232.054868 
L 162.324991 232.054868 
L 162.324991 231.001496 
L 162.568423 231.001496 
L 162.568423 230.47481 
L 162.695193 230.47481 
L 162.783387 228.894751 
L 162.887802 228.894751 
L 162.925238 227.314693 
L 163.082425 227.314693 
L 163.135875 226.261321 
L 163.278972 226.261321 
L 163.380469 223.627891 
L 163.39261 223.627891 
L 163.501492 222.047832 
L 163.517565 222.047832 
L 163.565696 220.467774 
L 163.649606 220.467774 
L 163.752938 218.36103 
L 163.800424 218.36103 
L 163.847782 216.780971 
L 164.035935 216.780971 
L 164.086545 215.200913 
L 164.167992 215.200913 
L 164.272154 213.620855 
L 164.345081 213.620855 
L 164.455807 210.987425 
L 164.490028 210.987425 
L 164.565835 208.88068 
L 164.611161 208.88068 
L 164.716466 207.300622 
L 164.77262 207.300622 
L 164.806225 206.24725 
L 164.9363 206.24725 
L 165.039666 200.980389 
L 165.116791 200.980389 
L 165.197224 198.346959 
L 165.24094 198.346959 
L 165.24094 196.7669 
L 165.364212 196.7669 
L 165.447111 194.13347 
L 165.490206 194.13347 
L 165.601045 190.446667 
L 165.618857 190.446667 
L 165.693467 188.866609 
L 165.735959 188.866609 
L 165.806549 185.706493 
L 165.862816 185.706493 
L 165.890882 184.653121 
L 172.288901 184.653121 
L 172.366452 183.599748 
L 173.125882 183.599748 
L 173.125882 182.546376 
L 174.211842 182.546376 
L 174.211842 182.01969 
L 175.009071 182.01969 
L 175.009071 181.493004 
L 175.131249 181.493004 
L 175.131249 180.966318 
L 175.266916 180.966318 
L 175.266916 180.439632 
L 175.555276 180.439632 
L 175.555276 179.912946 
L 175.878531 179.912946 
L 175.878531 179.38626 
L 176.014414 179.38626 
L 176.049688 177.806202 
L 176.1473 177.806202 
L 176.1473 177.279515 
L 176.286908 177.279515 
L 176.286908 176.226143 
L 176.413908 176.226143 
L 176.482793 174.646085 
L 176.570418 174.646085 
L 176.570418 174.119399 
L 176.687829 174.119399 
L 176.77631 172.539341 
L 176.860608 172.539341 
L 176.860608 172.012655 
L 176.992788 172.012655 
L 176.992788 171.485969 
L 177.16626 171.485969 
L 177.272441 168.325852 
L 177.356196 168.325852 
L 177.356196 167.799166 
L 177.535099 167.799166 
L 177.633702 165.165736 
L 177.662282 165.165736 
L 177.744191 163.585677 
L 177.806255 163.585677 
L 177.89806 159.898875 
L 177.963089 159.898875 
L 178.024381 157.265444 
L 183.806597 157.265444 
L 183.826662 156.212072 
L 183.959015 156.212072 
L 183.981391 155.1587 
L 184.111346 155.1587 
L 184.174119 153.578642 
L 184.325809 153.578642 
L 184.33068 152.52527 
L 184.564118 152.52527 
L 184.655192 149.891839 
L 184.731518 149.891839 
L 184.838289 147.258409 
L 184.853658 147.258409 
L 184.962035 145.151665 
L 184.994886 145.151665 
L 185.084909 140.41149 
L 188.975673 140.41149 
L 188.975673 139.884804 
L 189.137252 139.884804 
L 189.137252 138.831432 
L 189.427829 138.831432 
L 189.502213 136.724687 
L 189.544705 136.724687 
L 189.607799 134.617943 
L 189.716327 134.617943 
L 189.795724 129.877768 
L 189.892474 129.877768 
L 189.979884 128.29771 
L 190.038793 128.29771 
L 190.085253 125.66428 
L 193.231804 125.66428 
L 193.231804 125.137593 
L 193.381723 125.137593 
L 193.474953 123.030849 
L 193.551906 123.030849 
L 193.551906 122.504163 
L 193.706936 122.504163 
L 193.772249 120.397419 
L 193.828845 120.397419 
L 193.87258 118.290674 
L 193.982143 118.290674 
L 193.991941 117.237302 
L 196.543638 117.237302 
L 196.543638 116.710616 
L 196.67132 116.710616 
L 196.750947 115.130558 
L 196.933372 115.130558 
L 197.039451 113.5505 
L 197.063523 113.5505 
L 197.167649 109.337011 
L 197.18572 109.337011 
L 197.18572 108.810325 
L 199.478178 108.810325 
L 199.588177 104.07015 
L 199.594267 104.07015 
L 199.639374 103.016778 
L 199.708581 103.016778 
L 199.780024 99.856662 
L 199.823151 99.856662 
L 199.832665 98.803289 
L 201.865011 98.803289 
L 201.921944 97.749917 
L 202.018041 97.749917 
L 202.12766 94.589801 
L 202.13775 94.589801 
L 202.190304 92.483056 
L 204.04061 92.483056 
L 204.129262 89.849626 
L 204.160536 89.849626 
L 204.240419 85.636137 
L 205.819445 85.636137 
L 205.895985 82.476021 
L 205.975006 82.476021 
L 206.085177 80.369277 
L 207.519415 80.369277 
L 207.623478 77.735846 
L 207.650677 77.735846 
L 207.747922 76.155788 
L 209.053547 76.155788 
L 209.152392 74.049044 
L 209.177309 74.049044 
L 209.204238 72.995672 
L 210.472816 72.995672 
L 210.5217 70.888927 
L 210.605839 70.888927 
L 210.605839 70.362241 
L 211.818234 70.362241 
L 211.903124 68.255497 
L 211.944165 68.255497 
L 211.944165 67.728811 
L 213.034876 67.728811 
L 213.110552 65.09538 
L 213.148851 65.09538 
L 213.148851 64.568694 
L 214.102496 64.568694 
L 214.126994 63.515322 
L 214.221133 63.515322 
L 214.275231 62.46195 
L 215.134133 62.46195 
L 215.233563 60.881892 
L 215.306271 60.881892 
L 215.344157 59.82852 
L 216.223119 59.82852 
L 216.331906 57.721775 
L 216.338901 57.721775 
L 216.341815 56.668403 
L 217.185825 56.668403 
L 217.284739 55.088345 
L 218.085682 55.088345 
L 218.179635 52.9816 
L 218.941376 52.9816 
L 219.007351 50.34817 
L 219.75704 50.34817 
L 219.75704 49.821484 
L 220.526934 49.821484 
L 220.585511 48.768112 
L 221.273497 48.768112 
L 221.352956 47.188054 
L 222.72807 47.188054 
L 222.754985 45.081309 
L 223.364532 45.081309 
L 223.406036 42.974565 
L 223.958637 42.974565 
L 224.022903 41.394507 
L 225.783142 41.394507 
L 225.819277 40.341135 
L 226.373494 40.341135 
L 226.378848 39.287762 
L 227.404253 39.287762 
L 227.436361 38.23439 
L 228.432135 38.23439 
L 228.432135 37.707704 
L 229.348421 37.707704 
L 229.348421 37.181018 
L 229.801603 37.181018 
L 229.810489 36.127646 
L 230.271207 36.127646 
L 230.271207 35.60096 
L 230.697567 35.60096 
L 230.697567 35.074274 
L 231.118164 35.074274 
L 231.118164 34.547588 
L 231.484242 34.547588 
L 231.484242 34.020902 
L 232.705298 34.020902 
L 232.705298 33.494215 
L 235.176353 33.494215 
L 235.176353 32.967529 
L 235.822674 32.967529 
L 235.822674 32.440843 
L 236.444484 32.440843 
L 236.444484 31.914157 
L 248.219812 31.914157 
L 248.219812 31.387471 
L 249.577339 31.387471 
L 249.577339 30.860785 
L 256.110703 30.860785 
L 256.110703 30.334099 
L 338.688 30.334099 
L 338.688 30.334099 
" style="fill:none;stroke:#000080;stroke-linecap:square;stroke-width:1.5;"/>
   </g>
   <g id="line2d_36">
    <defs>
     <path d="M 0 6 
C 1.591219 6 3.117479 5.367802 4.242641 4.242641 
C 5.367802 3.117479 6 1.591219 6 0 
C 6 -1.591219 5.367802 -3.117479 4.242641 -4.242641 
C 3.117479 -5.367802 1.591219 -6 0 -6 
C -1.591219 -6 -3.117479 -5.367802 -4.242641 -4.242641 
C -5.367802 -3.117479 -6 -1.591219 -6 0 
C -6 1.591219 -5.367802 3.117479 -4.242641 4.242641 
C -3.117479 5.367802 -1.591219 6 0 6 
z
" id="m0f09c43155" style="stroke:#000080;stroke-width:1.5;"/>
    </defs>
    <g>
     <use style="fill-opacity:0;stroke:#000080;stroke-width:1.5;" x="159.892158" xlink:href="#m0f09c43155" y="244.695334"/>
     <use style="fill-opacity:0;stroke:#000080;stroke-width:1.5;" x="189.544705" xlink:href="#m0f09c43155" y="136.198001"/>
     <use style="fill-opacity:0;stroke:#000080;stroke-width:1.5;" x="256.110703" xlink:href="#m0f09c43155" y="30.860785"/>
     <use style="fill-opacity:0;stroke:#000080;stroke-width:1.5;" x="256.110703" xlink:href="#m0f09c43155" y="30.334099"/>
     <use style="fill-opacity:0;stroke:#000080;stroke-width:1.5;" x="338.688" xlink:href="#m0f09c43155" y="30.334099"/>
    </g>
   </g>
   <g id="line2d_37">
    <path style="fill:none;stroke:#000080;stroke-linecap:square;stroke-width:1.5;"/>
    <g/>
   </g>
   <g id="line2d_38">
    <path clip-path="url(#pa054e11cd1)" d="M 165.943384 184.653121 
" style="fill:none;stroke:#000080;stroke-linecap:square;stroke-width:1.5;"/>
    <defs>
     <path d="M -12 12 
L 12 -12 
M -12 -12 
L 12 12 
" id="m2df732f08d" style="stroke:#000080;"/>
    </defs>
    <g clip-path="url(#pa054e11cd1)">
     <use style="fill:#000080;stroke:#000080;" x="165.943384" xlink:href="#m2df732f08d" y="184.653121"/>
    </g>
   </g>
   <g id="line2d_39">
    <defs>
     <path d="M 0 1.5 
C 0.397805 1.5 0.77937 1.341951 1.06066 1.06066 
C 1.341951 0.77937 1.5 0.397805 1.5 0 
C 1.5 -0.397805 1.341951 -0.77937 1.06066 -1.06066 
C 0.77937 -1.341951 0.397805 -1.5 0 -1.5 
C -0.397805 -1.5 -0.77937 -1.341951 -1.06066 -1.06066 
C -1.341951 -0.77937 -1.5 -0.397805 -1.5 0 
C -1.5 0.397805 -1.341951 0.77937 -1.06066 1.06066 
C -0.77937 1.341951 -0.397805 1.5 0 1.5 
z
" id="m075aa8be34" style="stroke:#ff00ff;"/>
    </defs>
    <g>
     <use style="fill:#ff00ff;stroke:#ff00ff;" x="227.910414" xlink:href="#m075aa8be34" y="262.075974"/>
     <use style="fill:#ff00ff;stroke:#ff00ff;" x="227.910414" xlink:href="#m075aa8be34" y="262.075974"/>
    </g>
   </g>
   <g id="line2d_40">
    <path d="M 135.681535 298.944 
L 135.681535 298.417314 
L 136.246972 298.417314 
L 136.246972 297.890628 
L 137.071324 297.890628 
L 137.071324 297.363942 
L 138.443265 297.363942 
L 138.510793 296.31057 
L 139.188293 296.31057 
L 139.188293 295.783884 
L 139.588845 295.783884 
L 139.588845 295.257197 
L 139.715103 295.257197 
L 139.746525 294.203825 
L 140.333034 294.203825 
L 140.333034 293.677139 
L 141.506851 293.677139 
L 141.506851 293.150453 
L 141.80232 293.150453 
L 141.899708 292.097081 
L 142.365148 292.097081 
L 142.365148 291.570395 
L 142.526499 291.570395 
L 142.526499 291.043709 
L 142.89728 291.043709 
L 142.89728 290.517023 
L 143.628567 290.517023 
L 143.628567 289.990337 
L 143.75376 289.990337 
L 143.75376 289.463651 
L 144.197155 289.463651 
L 144.197155 288.936964 
L 144.665111 288.936964 
L 144.665111 288.410278 
L 144.830078 288.410278 
L 144.830078 287.883592 
L 144.946964 287.883592 
L 144.946964 287.356906 
L 145.063071 287.356906 
L 145.063071 286.83022 
L 145.338615 286.83022 
L 145.338615 286.303534 
L 145.665858 286.303534 
L 145.665858 285.776848 
L 145.876977 285.776848 
L 145.876977 285.250162 
L 146.00901 285.250162 
L 146.00901 284.723476 
L 146.226867 284.723476 
L 146.226867 284.19679 
L 146.388493 284.19679 
L 146.452726 283.143418 
L 147.570215 283.143418 
L 147.570215 282.616732 
L 147.809113 282.616732 
L 147.838747 281.563359 
L 148.142046 281.563359 
L 148.142046 281.036673 
L 148.714503 281.036673 
L 148.714503 280.509987 
L 149.039959 280.509987 
L 149.039959 279.983301 
L 149.503579 279.983301 
L 149.503579 279.456615 
L 149.637625 279.456615 
L 149.682079 278.403243 
L 150.590355 278.403243 
L 150.590355 277.876557 
L 151.373256 277.876557 
L 151.373256 277.349871 
L 151.873711 277.349871 
L 151.967429 275.243126 
L 152.360205 275.243126 
L 152.360205 274.71644 
L 153.090987 274.71644 
L 153.090987 274.189754 
L 153.373499 274.189754 
L 153.473807 273.136382 
L 154.587699 273.136382 
L 154.587699 272.609696 
L 155.533415 272.609696 
L 155.609431 271.029638 
L 156.442528 271.029638 
L 156.526689 269.976266 
L 157.15106 269.976266 
L 157.15106 269.449579 
L 160.830627 269.449579 
L 160.830627 268.922893 
L 170.849036 268.922893 
L 170.849036 268.396207 
L 172.61137 268.396207 
L 172.61137 267.869521 
L 172.786927 267.869521 
L 172.786927 267.342835 
L 176.787574 267.342835 
L 176.787574 266.816149 
L 184.295332 266.816149 
L 184.295332 265.762777 
L 209.10657 265.762777 
L 209.10657 264.709405 
L 215.241841 264.709405 
L 215.241841 264.182719 
L 219.771407 264.182719 
L 219.771407 263.656033 
L 222.014261 263.656033 
L 222.014261 263.129347 
L 224.001257 263.129347 
L 224.001257 262.60266 
L 227.910414 262.60266 
L 227.910414 262.075974 
L 338.688 262.075974 
L 338.688 262.075974 
" style="fill:none;stroke:#ff00ff;stroke-linecap:square;stroke-width:1.5;"/>
   </g>
   <g id="line2d_41">
    <defs>
     <path d="M -0 8.485281 
L 5.091169 0 
L 0 -8.485281 
L -5.091169 -0 
z
" id="m4c41956a92" style="stroke:#ff00ff;stroke-linejoin:miter;stroke-width:1.5;"/>
    </defs>
    <g>
     <use style="fill-opacity:0;stroke:#ff00ff;stroke-linejoin:miter;stroke-width:1.5;" x="157.15106" xlink:href="#m4c41956a92" y="269.976266"/>
     <use style="fill-opacity:0;stroke:#ff00ff;stroke-linejoin:miter;stroke-width:1.5;" x="215.241841" xlink:href="#m4c41956a92" y="264.182719"/>
     <use style="fill-opacity:0;stroke:#ff00ff;stroke-linejoin:miter;stroke-width:1.5;" x="227.910414" xlink:href="#m4c41956a92" y="262.075974"/>
     <use style="fill-opacity:0;stroke:#ff00ff;stroke-linejoin:miter;stroke-width:1.5;" x="227.910414" xlink:href="#m4c41956a92" y="262.075974"/>
     <use style="fill-opacity:0;stroke:#ff00ff;stroke-linejoin:miter;stroke-width:1.5;" x="338.688" xlink:href="#m4c41956a92" y="262.075974"/>
    </g>
   </g>
   <g id="line2d_42">
    <path style="fill:none;stroke:#ff00ff;stroke-linecap:square;stroke-width:1.5;"/>
    <g/>
   </g>
   <g id="line2d_43">
    <path clip-path="url(#pa054e11cd1)" d="M 165.978297 268.922893 
" style="fill:none;stroke:#ff00ff;stroke-linecap:square;stroke-width:1.5;"/>
    <defs>
     <path d="M -12 12 
L 12 -12 
M -12 -12 
L 12 12 
" id="medeb90e20d" style="stroke:#ff00ff;"/>
    </defs>
    <g clip-path="url(#pa054e11cd1)">
     <use style="fill:#ff00ff;stroke:#ff00ff;" x="165.978297" xlink:href="#medeb90e20d" y="268.922893"/>
    </g>
   </g>
   <g id="line2d_44">
    <defs>
     <path d="M 0 1.5 
C 0.397805 1.5 0.77937 1.341951 1.06066 1.06066 
C 1.341951 0.77937 1.5 0.397805 1.5 0 
C 1.5 -0.397805 1.341951 -0.77937 1.06066 -1.06066 
C 0.77937 -1.341951 0.397805 -1.5 0 -1.5 
C -0.397805 -1.5 -0.77937 -1.341951 -1.06066 -1.06066 
C -1.341951 -0.77937 -1.5 -0.397805 -1.5 0 
C -1.5 0.397805 -1.341951 0.77937 -1.06066 1.06066 
C -0.77937 1.341951 -0.397805 1.5 0 1.5 
z
" id="m12fe8dbfb6" style="stroke:#ff7500;"/>
    </defs>
    <g>
     <use style="fill:#ff7500;stroke:#ff7500;" x="240.005805" xlink:href="#m12fe8dbfb6" y="262.075974"/>
     <use style="fill:#ff7500;stroke:#ff7500;" x="240.005805" xlink:href="#m12fe8dbfb6" y="262.075974"/>
    </g>
   </g>
   <g id="line2d_45">
    <path d="M 116.323218 298.944 
L 116.323218 298.417314 
L 127.261631 298.417314 
L 127.261631 297.890628 
L 129.06046 297.890628 
L 129.06046 296.837256 
L 129.262072 296.837256 
L 129.262072 296.31057 
L 131.540579 296.31057 
L 131.540579 295.783884 
L 131.690703 295.783884 
L 131.690703 295.257197 
L 132.133473 295.257197 
L 132.133473 294.730511 
L 133.800029 294.730511 
L 133.800029 293.677139 
L 135.158519 293.677139 
L 135.158519 293.150453 
L 138.324456 293.150453 
L 138.324456 292.623767 
L 138.828032 292.623767 
L 138.828032 292.097081 
L 138.99271 292.097081 
L 138.99271 291.570395 
L 139.301378 291.570395 
L 139.301378 291.043709 
L 139.715103 291.043709 
L 139.8092 289.463651 
L 140.363363 289.463651 
L 140.363363 288.936964 
L 141.885829 288.936964 
L 141.941279 287.356906 
L 142.133981 287.356906 
L 142.174998 286.303534 
L 142.44601 286.303534 
L 142.44601 285.776848 
L 143.144465 285.776848 
L 143.144465 285.250162 
L 144.160633 285.250162 
L 144.160633 284.723476 
L 144.853518 284.723476 
L 144.853518 284.19679 
L 145.120836 284.19679 
L 145.120836 283.670104 
L 145.576196 283.670104 
L 145.576196 283.143418 
L 146.291697 283.143418 
L 146.291697 282.616732 
L 146.654584 282.616732 
L 146.654584 282.090045 
L 147.358461 282.090045 
L 147.358461 281.036673 
L 147.56019 281.036673 
L 147.580235 279.456615 
L 148.103206 279.456615 
L 148.103206 278.929929 
L 149.049169 278.929929 
L 149.049169 278.403243 
L 149.458667 278.403243 
L 149.458667 277.876557 
L 149.575199 277.876557 
L 149.60198 276.823185 
L 149.928949 276.823185 
L 149.928949 275.769812 
L 150.446473 275.769812 
L 150.446473 275.243126 
L 151.047887 275.243126 
L 151.047887 274.71644 
L 151.21133 274.71644 
L 151.21133 274.189754 
L 151.771612 274.189754 
L 151.795227 273.136382 
L 155.354745 273.136382 
L 155.354745 272.609696 
L 155.760475 272.609696 
L 155.760475 272.08301 
L 156.193695 272.08301 
L 156.193695 271.556324 
L 156.454576 271.556324 
L 156.454576 271.029638 
L 156.953214 271.029638 
L 156.953214 270.502952 
L 157.590993 270.502952 
L 157.590993 269.976266 
L 158.12438 269.976266 
L 158.12438 269.449579 
L 158.567409 269.449579 
L 158.567409 268.922893 
L 158.726721 268.922893 
L 158.726721 268.396207 
L 159.431225 268.396207 
L 159.431225 267.869521 
L 160.176607 267.869521 
L 160.176607 267.342835 
L 183.599585 267.342835 
L 183.599585 266.816149 
L 189.013881 266.816149 
L 189.013881 266.289463 
L 205.686477 266.289463 
L 205.686477 265.236091 
L 207.389754 265.236091 
L 207.389754 264.709405 
L 208.941376 264.709405 
L 208.941376 264.182719 
L 217.093232 264.182719 
L 217.093232 263.656033 
L 229.298595 263.656033 
L 229.298595 263.129347 
L 229.754588 263.129347 
L 229.754588 262.60266 
L 240.005805 262.60266 
L 240.005805 262.075974 
L 338.688 262.075974 
L 338.688 262.075974 
" style="fill:none;stroke:#ff7500;stroke-linecap:square;stroke-width:1.5;"/>
   </g>
   <g id="line2d_46">
    <defs>
     <path d="M 0 -6 
L -1.347084 -1.854102 
L -5.706339 -1.854102 
L -2.179628 0.708204 
L -3.526712 4.854102 
L -0 2.291796 
L 3.526712 4.854102 
L 2.179628 0.708204 
L 5.706339 -1.854102 
L 1.347084 -1.854102 
z
" id="mcc0e56c4b1" style="stroke:#ff7500;stroke-linejoin:bevel;stroke-width:1.5;"/>
    </defs>
    <g>
     <use style="fill-opacity:0;stroke:#ff7500;stroke-linejoin:bevel;stroke-width:1.5;" x="142.44601" xlink:href="#mcc0e56c4b1" y="286.303534"/>
     <use style="fill-opacity:0;stroke:#ff7500;stroke-linejoin:bevel;stroke-width:1.5;" x="189.013881" xlink:href="#mcc0e56c4b1" y="266.289463"/>
     <use style="fill-opacity:0;stroke:#ff7500;stroke-linejoin:bevel;stroke-width:1.5;" x="240.005805" xlink:href="#mcc0e56c4b1" y="262.60266"/>
     <use style="fill-opacity:0;stroke:#ff7500;stroke-linejoin:bevel;stroke-width:1.5;" x="240.005805" xlink:href="#mcc0e56c4b1" y="262.075974"/>
     <use style="fill-opacity:0;stroke:#ff7500;stroke-linejoin:bevel;stroke-width:1.5;" x="338.688" xlink:href="#mcc0e56c4b1" y="262.075974"/>
    </g>
   </g>
   <g id="line2d_47">
    <path style="fill:none;stroke:#ff7500;stroke-linecap:square;stroke-width:1.5;"/>
    <g/>
   </g>
   <g id="line2d_48">
    <path clip-path="url(#pa054e11cd1)" d="M 165.978297 267.342835 
" style="fill:none;stroke:#ff7500;stroke-linecap:square;stroke-width:1.5;"/>
    <defs>
     <path d="M -12 12 
L 12 -12 
M -12 -12 
L 12 12 
" id="me55e3f21ca" style="stroke:#ff7500;"/>
    </defs>
    <g clip-path="url(#pa054e11cd1)">
     <use style="fill:#ff7500;stroke:#ff7500;" x="165.978297" xlink:href="#me55e3f21ca" y="267.342835"/>
    </g>
   </g>
   <g id="line2d_49">
    <defs>
     <path d="M 0 1.5 
C 0.397805 1.5 0.77937 1.341951 1.06066 1.06066 
C 1.341951 0.77937 1.5 0.397805 1.5 0 
C 1.5 -0.397805 1.341951 -0.77937 1.06066 -1.06066 
C 0.77937 -1.341951 0.397805 -1.5 0 -1.5 
C -0.397805 -1.5 -0.77937 -1.341951 -1.06066 -1.06066 
C -1.341951 -0.77937 -1.5 -0.397805 -1.5 0 
C -1.5 0.397805 -1.341951 0.77937 -1.06066 1.06066 
C -0.77937 1.341951 -0.397805 1.5 0 1.5 
z
" id="md54c24c454" style="stroke:#6495ed;"/>
    </defs>
    <g>
     <use style="fill:#6495ed;stroke:#6495ed;" x="235.393141" xlink:href="#md54c24c454" y="262.075974"/>
     <use style="fill:#6495ed;stroke:#6495ed;" x="235.393141" xlink:href="#md54c24c454" y="262.075974"/>
    </g>
   </g>
   <g id="line2d_50">
    <path d="M 116.202531 298.944 
L 116.202531 298.417314 
L 117.030313 298.417314 
L 117.030313 297.890628 
L 117.654224 297.890628 
L 117.654224 297.363942 
L 119.199476 297.363942 
L 119.199476 296.837256 
L 119.351785 296.837256 
L 119.351785 296.31057 
L 120.142369 296.31057 
L 120.142369 295.783884 
L 120.712642 295.783884 
L 120.712642 295.257197 
L 121.756135 295.257197 
L 121.756135 294.730511 
L 122.061712 294.730511 
L 122.061712 294.203825 
L 122.40451 294.203825 
L 122.40451 293.677139 
L 122.823744 293.677139 
L 122.823744 293.150453 
L 123.394238 293.150453 
L 123.394238 292.623767 
L 124.292765 292.623767 
L 124.292765 292.097081 
L 124.780872 292.097081 
L 124.780872 291.570395 
L 125.110962 291.570395 
L 125.110962 290.517023 
L 125.506102 290.517023 
L 125.506102 289.990337 
L 125.682793 289.990337 
L 125.682793 289.463651 
L 127.067859 289.463651 
L 127.067859 288.936964 
L 128.138476 288.936964 
L 128.138476 288.410278 
L 128.32077 288.410278 
L 128.32077 287.883592 
L 130.073348 287.883592 
L 130.073348 287.356906 
L 130.900768 287.356906 
L 130.900768 286.303534 
L 131.839545 286.303534 
L 131.839545 285.776848 
L 132.206187 285.776848 
L 132.206187 285.250162 
L 133.0559 285.250162 
L 133.0559 284.723476 
L 133.644815 284.723476 
L 133.644815 284.19679 
L 134.321942 284.19679 
L 134.364738 283.143418 
L 134.849486 283.143418 
L 134.849486 282.616732 
L 135.917737 282.616732 
L 135.917737 282.090045 
L 136.13148 282.090045 
L 136.13148 281.563359 
L 136.380754 281.563359 
L 136.380754 281.036673 
L 136.979586 281.036673 
L 136.979586 280.509987 
L 137.37967 280.509987 
L 137.37967 279.456615 
L 137.61184 279.456615 
L 137.61184 278.929929 
L 137.928288 278.929929 
L 137.928288 278.403243 
L 138.611599 278.403243 
L 138.628343 277.349871 
L 139.397728 277.349871 
L 139.397728 276.823185 
L 140.469102 276.823185 
L 140.469102 276.296499 
L 141.71841 276.296499 
L 141.71841 275.769812 
L 141.982752 275.769812 
L 141.982752 275.243126 
L 143.87806 275.243126 
L 143.87806 274.71644 
L 144.653267 274.71644 
L 144.653267 274.189754 
L 145.120836 274.189754 
L 145.120836 273.663068 
L 145.899052 273.663068 
L 145.899052 272.609696 
L 147.19538 272.609696 
L 147.19538 272.08301 
L 148.229122 272.08301 
L 148.248413 271.029638 
L 149.039959 271.029638 
L 149.039959 270.502952 
L 152.306816 270.502952 
L 152.306816 269.976266 
L 157.081488 269.976266 
L 157.081488 269.449579 
L 167.576907 269.449579 
L 167.576907 268.922893 
L 168.168232 268.922893 
L 168.168232 268.396207 
L 169.905996 268.396207 
L 169.905996 267.869521 
L 179.554757 267.869521 
L 179.554757 267.342835 
L 182.213959 267.342835 
L 182.213959 266.816149 
L 188.008973 266.816149 
L 188.008973 266.289463 
L 192.351129 266.289463 
L 192.351129 265.236091 
L 201.20258 265.236091 
L 201.20258 264.709405 
L 205.306997 264.709405 
L 205.306997 264.182719 
L 210.076733 264.182719 
L 210.076733 263.656033 
L 217.813248 263.656033 
L 217.813248 263.129347 
L 221.061551 263.129347 
L 221.061551 262.60266 
L 235.393141 262.60266 
L 235.393141 262.075974 
L 338.688 262.075974 
L 338.688 262.075974 
" style="fill:none;stroke:#6495ed;stroke-linecap:square;stroke-width:1.5;"/>
   </g>
   <g id="line2d_51">
    <defs>
     <path d="M -0 6 
L 6 -6 
L -6 -6 
z
" id="m393b0a4791" style="stroke:#6495ed;stroke-linejoin:miter;stroke-width:1.5;"/>
    </defs>
    <g>
     <use style="fill-opacity:0;stroke:#6495ed;stroke-linejoin:miter;stroke-width:1.5;" x="188.008973" xlink:href="#m393b0a4791" y="266.289463"/>
     <use style="fill-opacity:0;stroke:#6495ed;stroke-linejoin:miter;stroke-width:1.5;" x="235.393141" xlink:href="#m393b0a4791" y="262.60266"/>
     <use style="fill-opacity:0;stroke:#6495ed;stroke-linejoin:miter;stroke-width:1.5;" x="235.393141" xlink:href="#m393b0a4791" y="262.075974"/>
     <use style="fill-opacity:0;stroke:#6495ed;stroke-linejoin:miter;stroke-width:1.5;" x="235.393141" xlink:href="#m393b0a4791" y="262.075974"/>
     <use style="fill-opacity:0;stroke:#6495ed;stroke-linejoin:miter;stroke-width:1.5;" x="338.688" xlink:href="#m393b0a4791" y="262.075974"/>
    </g>
   </g>
   <g id="line2d_52">
    <path style="fill:none;stroke:#6495ed;stroke-linecap:square;stroke-width:1.5;"/>
    <g/>
   </g>
   <g id="line2d_53">
    <path clip-path="url(#pa054e11cd1)" d="M 165.978297 269.449579 
" style="fill:none;stroke:#6495ed;stroke-linecap:square;stroke-width:1.5;"/>
    <defs>
     <path d="M -12 12 
L 12 -12 
M -12 -12 
L 12 12 
" id="mdba525a696" style="stroke:#6495ed;"/>
    </defs>
    <g clip-path="url(#pa054e11cd1)">
     <use style="fill:#6495ed;stroke:#6495ed;" x="165.978297" xlink:href="#mdba525a696" y="269.449579"/>
    </g>
   </g>
   <g id="line2d_54">
    <path d="M 338.688 262.075974 
L 369.60768 293.571802 
" style="fill:none;stroke:#ff7500;stroke-linecap:square;stroke-width:1.5;"/>
    <g>
     <use style="fill-opacity:0;stroke:#ff7500;stroke-linejoin:bevel;stroke-width:1.5;" x="338.688" xlink:href="#mcc0e56c4b1" y="262.075974"/>
     <use style="fill-opacity:0;stroke:#ff7500;stroke-linejoin:bevel;stroke-width:1.5;" x="369.60768" xlink:href="#mcc0e56c4b1" y="293.571802"/>
    </g>
   </g>
   <g id="line2d_55">
    <path d="M 338.688 262.075974 
L 369.60768 229.105426 
" style="fill:none;stroke:#6495ed;stroke-linecap:square;stroke-width:1.5;"/>
    <g>
     <use style="fill-opacity:0;stroke:#6495ed;stroke-linejoin:miter;stroke-width:1.5;" x="338.688" xlink:href="#m393b0a4791" y="262.075974"/>
     <use style="fill-opacity:0;stroke:#6495ed;stroke-linejoin:miter;stroke-width:1.5;" x="369.60768" xlink:href="#m393b0a4791" y="229.105426"/>
    </g>
   </g>
   <g id="line2d_56">
    <path d="M 338.688 262.075974 
L 369.60768 164.63905 
" style="fill:none;stroke:#ff00ff;stroke-linecap:square;stroke-width:1.5;"/>
    <g>
     <use style="fill-opacity:0;stroke:#ff00ff;stroke-linejoin:miter;stroke-width:1.5;" x="338.688" xlink:href="#m4c41956a92" y="262.075974"/>
     <use style="fill-opacity:0;stroke:#ff00ff;stroke-linejoin:miter;stroke-width:1.5;" x="369.60768" xlink:href="#m4c41956a92" y="164.63905"/>
    </g>
   </g>
   <g id="line2d_57">
    <path d="M 338.688 30.334099 
L 369.60768 100.172673 
" style="fill:none;stroke:#000080;stroke-linecap:square;stroke-width:1.5;"/>
    <g>
     <use style="fill-opacity:0;stroke:#000080;stroke-width:1.5;" x="338.688" xlink:href="#m0f09c43155" y="30.334099"/>
     <use style="fill-opacity:0;stroke:#000080;stroke-width:1.5;" x="369.60768" xlink:href="#m0f09c43155" y="100.172673"/>
    </g>
   </g>
   <g id="line2d_58">
    <path d="M 338.688 298.944 
L 338.688 30.334099 
" style="fill:none;stroke:#000000;stroke-linecap:square;stroke-width:1.5;"/>
   </g>
   <g id="patch_3">
    <path d="M 57.6 298.944 
L 57.6 27.648 
" style="fill:none;stroke:#000000;stroke-linecap:square;stroke-linejoin:miter;stroke-width:0.8;"/>
   </g>
   <g id="patch_4">
    <path d="M 338.688 298.944 
L 338.688 27.648 
" style="fill:none;stroke:#000000;stroke-linecap:square;stroke-linejoin:miter;stroke-width:0.8;"/>
   </g>
   <g id="patch_5">
    <path d="M 57.6 298.944 
L 338.688 298.944 
" style="fill:none;stroke:#000000;stroke-linecap:square;stroke-linejoin:miter;stroke-width:0.8;"/>
   </g>
   <g id="patch_6">
    <path d="M 57.6 27.648 
L 338.688 27.648 
" style="fill:none;stroke:#000000;stroke-linecap:square;stroke-linejoin:miter;stroke-width:0.8;"/>
   </g>
   <g id="text_13">
    <!-- DEPSO -->
    <defs>
     <path d="M 19.671875 64.796875 
L 19.671875 8.109375 
L 31.59375 8.109375 
Q 46.6875 8.109375 53.6875 14.9375 
Q 60.6875 21.78125 60.6875 36.53125 
Q 60.6875 51.171875 53.6875 57.984375 
Q 46.6875 64.796875 31.59375 64.796875 
z
M 9.8125 72.90625 
L 30.078125 72.90625 
Q 51.265625 72.90625 61.171875 64.09375 
Q 71.09375 55.28125 71.09375 36.53125 
Q 71.09375 17.671875 61.125 8.828125 
Q 51.171875 0 30.078125 0 
L 9.8125 0 
z
" id="DejaVuSans-68"/>
     <path d="M 9.8125 72.90625 
L 55.90625 72.90625 
L 55.90625 64.59375 
L 19.671875 64.59375 
L 19.671875 43.015625 
L 54.390625 43.015625 
L 54.390625 34.71875 
L 19.671875 34.71875 
L 19.671875 8.296875 
L 56.78125 8.296875 
L 56.78125 0 
L 9.8125 0 
z
" id="DejaVuSans-69"/>
     <path d="M 19.671875 64.796875 
L 19.671875 37.40625 
L 32.078125 37.40625 
Q 38.96875 37.40625 42.71875 40.96875 
Q 46.484375 44.53125 46.484375 51.125 
Q 46.484375 57.671875 42.71875 61.234375 
Q 38.96875 64.796875 32.078125 64.796875 
z
M 9.8125 72.90625 
L 32.078125 72.90625 
Q 44.34375 72.90625 50.609375 67.359375 
Q 56.890625 61.8125 56.890625 51.125 
Q 56.890625 40.328125 50.609375 34.8125 
Q 44.34375 29.296875 32.078125 29.296875 
L 19.671875 29.296875 
L 19.671875 0 
L 9.8125 0 
z
" id="DejaVuSans-80"/>
     <path d="M 53.515625 70.515625 
L 53.515625 60.890625 
Q 47.90625 63.578125 42.921875 64.890625 
Q 37.9375 66.21875 33.296875 66.21875 
Q 25.25 66.21875 20.875 63.09375 
Q 16.5 59.96875 16.5 54.203125 
Q 16.5 49.359375 19.40625 46.890625 
Q 22.3125 44.4375 30.421875 42.921875 
L 36.375 41.703125 
Q 47.40625 39.59375 52.65625 34.296875 
Q 57.90625 29 57.90625 20.125 
Q 57.90625 9.515625 50.796875 4.046875 
Q 43.703125 -1.421875 29.984375 -1.421875 
Q 24.8125 -1.421875 18.96875 -0.25 
Q 13.140625 0.921875 6.890625 3.21875 
L 6.890625 13.375 
Q 12.890625 10.015625 18.65625 8.296875 
Q 24.421875 6.59375 29.984375 6.59375 
Q 38.421875 6.59375 43.015625 9.90625 
Q 47.609375 13.234375 47.609375 19.390625 
Q 47.609375 24.75 44.3125 27.78125 
Q 41.015625 30.8125 33.5 32.328125 
L 27.484375 33.5 
Q 16.453125 35.6875 11.515625 40.375 
Q 6.59375 45.0625 6.59375 53.421875 
Q 6.59375 63.09375 13.40625 68.65625 
Q 20.21875 74.21875 32.171875 74.21875 
Q 37.3125 74.21875 42.625 73.28125 
Q 47.953125 72.359375 53.515625 70.515625 
z
" id="DejaVuSans-83"/>
     <path d="M 39.40625 66.21875 
Q 28.65625 66.21875 22.328125 58.203125 
Q 16.015625 50.203125 16.015625 36.375 
Q 16.015625 22.609375 22.328125 14.59375 
Q 28.65625 6.59375 39.40625 6.59375 
Q 50.140625 6.59375 56.421875 14.59375 
Q 62.703125 22.609375 62.703125 36.375 
Q 62.703125 50.203125 56.421875 58.203125 
Q 50.140625 66.21875 39.40625 66.21875 
z
M 39.40625 74.21875 
Q 54.734375 74.21875 63.90625 63.9375 
Q 73.09375 53.65625 73.09375 36.375 
Q 73.09375 19.140625 63.90625 8.859375 
Q 54.734375 -1.421875 39.40625 -1.421875 
Q 24.03125 -1.421875 14.8125 8.828125 
Q 5.609375 19.09375 5.609375 36.375 
Q 5.609375 53.65625 14.8125 63.9375 
Q 24.03125 74.21875 39.40625 74.21875 
z
" id="DejaVuSans-79"/>
    </defs>
    <g transform="translate(375.22944 298.262739)scale(0.17 -0.17)">
     <use xlink:href="#DejaVuSans-68"/>
     <use x="77.001953" xlink:href="#DejaVuSans-69"/>
     <use x="140.185547" xlink:href="#DejaVuSans-80"/>
     <use x="200.488281" xlink:href="#DejaVuSans-83"/>
     <use x="263.964844" xlink:href="#DejaVuSans-79"/>
    </g>
   </g>
   <g id="text_14">
    <!-- PSO -->
    <g transform="translate(375.22944 233.796363)scale(0.17 -0.17)">
     <use xlink:href="#DejaVuSans-80"/>
     <use x="60.302734" xlink:href="#DejaVuSans-83"/>
     <use x="123.779297" xlink:href="#DejaVuSans-79"/>
    </g>
   </g>
   <g id="text_15">
    <!-- DE -->
    <g transform="translate(375.22944 169.329987)scale(0.17 -0.17)">
     <use xlink:href="#DejaVuSans-68"/>
     <use x="77.001953" xlink:href="#DejaVuSans-69"/>
    </g>
   </g>
   <g id="text_16">
    <!-- CMA-ES -->
    <defs>
     <path d="M 64.40625 67.28125 
L 64.40625 56.890625 
Q 59.421875 61.53125 53.78125 63.8125 
Q 48.140625 66.109375 41.796875 66.109375 
Q 29.296875 66.109375 22.65625 58.46875 
Q 16.015625 50.828125 16.015625 36.375 
Q 16.015625 21.96875 22.65625 14.328125 
Q 29.296875 6.6875 41.796875 6.6875 
Q 48.140625 6.6875 53.78125 8.984375 
Q 59.421875 11.28125 64.40625 15.921875 
L 64.40625 5.609375 
Q 59.234375 2.09375 53.4375 0.328125 
Q 47.65625 -1.421875 41.21875 -1.421875 
Q 24.65625 -1.421875 15.125 8.703125 
Q 5.609375 18.84375 5.609375 36.375 
Q 5.609375 53.953125 15.125 64.078125 
Q 24.65625 74.21875 41.21875 74.21875 
Q 47.75 74.21875 53.53125 72.484375 
Q 59.328125 70.75 64.40625 67.28125 
z
" id="DejaVuSans-67"/>
     <path d="M 9.8125 72.90625 
L 24.515625 72.90625 
L 43.109375 23.296875 
L 61.8125 72.90625 
L 76.515625 72.90625 
L 76.515625 0 
L 66.890625 0 
L 66.890625 64.015625 
L 48.09375 14.015625 
L 38.1875 14.015625 
L 19.390625 64.015625 
L 19.390625 0 
L 9.8125 0 
z
" id="DejaVuSans-77"/>
     <path d="M 34.1875 63.1875 
L 20.796875 26.90625 
L 47.609375 26.90625 
z
M 28.609375 72.90625 
L 39.796875 72.90625 
L 67.578125 0 
L 57.328125 0 
L 50.6875 18.703125 
L 17.828125 18.703125 
L 11.1875 0 
L 0.78125 0 
z
" id="DejaVuSans-65"/>
    </defs>
    <g transform="translate(375.22944 104.863611)scale(0.17 -0.17)">
     <use xlink:href="#DejaVuSans-67"/>
     <use x="69.824219" xlink:href="#DejaVuSans-77"/>
     <use x="156.103516" xlink:href="#DejaVuSans-65"/>
     <use x="222.261719" xlink:href="#DejaVuSans-45"/>
     <use x="258.345703" xlink:href="#DejaVuSans-69"/>
     <use x="321.529297" xlink:href="#DejaVuSans-83"/>
    </g>
   </g>
   <g id="text_17">
    <!-- best 2009 -->
    <defs>
     <path d="M 48.6875 27.296875 
Q 48.6875 37.203125 44.609375 42.84375 
Q 40.53125 48.484375 33.40625 48.484375 
Q 26.265625 48.484375 22.1875 42.84375 
Q 18.109375 37.203125 18.109375 27.296875 
Q 18.109375 17.390625 22.1875 11.75 
Q 26.265625 6.109375 33.40625 6.109375 
Q 40.53125 6.109375 44.609375 11.75 
Q 48.6875 17.390625 48.6875 27.296875 
z
M 18.109375 46.390625 
Q 20.953125 51.265625 25.265625 53.625 
Q 29.59375 56 35.59375 56 
Q 45.5625 56 51.78125 48.09375 
Q 58.015625 40.1875 58.015625 27.296875 
Q 58.015625 14.40625 51.78125 6.484375 
Q 45.5625 -1.421875 35.59375 -1.421875 
Q 29.59375 -1.421875 25.265625 0.953125 
Q 20.953125 3.328125 18.109375 8.203125 
L 18.109375 0 
L 9.078125 0 
L 9.078125 75.984375 
L 18.109375 75.984375 
z
" id="DejaVuSans-98"/>
     <path d="M 10.984375 1.515625 
L 10.984375 10.5 
Q 14.703125 8.734375 18.5 7.8125 
Q 22.3125 6.890625 25.984375 6.890625 
Q 35.75 6.890625 40.890625 13.453125 
Q 46.046875 20.015625 46.78125 33.40625 
Q 43.953125 29.203125 39.59375 26.953125 
Q 35.25 24.703125 29.984375 24.703125 
Q 19.046875 24.703125 12.671875 31.3125 
Q 6.296875 37.9375 6.296875 49.421875 
Q 6.296875 60.640625 12.9375 67.421875 
Q 19.578125 74.21875 30.609375 74.21875 
Q 43.265625 74.21875 49.921875 64.515625 
Q 56.59375 54.828125 56.59375 36.375 
Q 56.59375 19.140625 48.40625 8.859375 
Q 40.234375 -1.421875 26.421875 -1.421875 
Q 22.703125 -1.421875 18.890625 -0.6875 
Q 15.09375 0.046875 10.984375 1.515625 
z
M 30.609375 32.421875 
Q 37.25 32.421875 41.125 36.953125 
Q 45.015625 41.5 45.015625 49.421875 
Q 45.015625 57.28125 41.125 61.84375 
Q 37.25 66.40625 30.609375 66.40625 
Q 23.96875 66.40625 20.09375 61.84375 
Q 16.21875 57.28125 16.21875 49.421875 
Q 16.21875 41.5 20.09375 36.953125 
Q 23.96875 32.421875 30.609375 32.421875 
z
" id="DejaVuSans-57"/>
    </defs>
    <g transform="translate(375.22944 40.397235)scale(0.17 -0.17)">
     <use xlink:href="#DejaVuSans-98"/>
     <use x="63.476562" xlink:href="#DejaVuSans-101"/>
     <use x="125" xlink:href="#DejaVuSans-115"/>
     <use x="177.099609" xlink:href="#DejaVuSans-116"/>
     <use x="216.308594" xlink:href="#DejaVuSans-32"/>
     <use x="248.095703" xlink:href="#DejaVuSans-50"/>
     <use x="311.71875" xlink:href="#DejaVuSans-48"/>
     <use x="375.341797" xlink:href="#DejaVuSans-48"/>
     <use x="438.964844" xlink:href="#DejaVuSans-57"/>
    </g>
   </g>
   <g id="text_18">
    <!-- bbob f9, 10-D -->
    <g transform="translate(60.41088 38.111366)scale(0.102 -0.102)">
     <use xlink:href="#DejaVuSans-98"/>
     <use x="63.476562" xlink:href="#DejaVuSans-98"/>
     <use x="126.953125" xlink:href="#DejaVuSans-111"/>
     <use x="188.134766" xlink:href="#DejaVuSans-98"/>
     <use x="251.611328" xlink:href="#DejaVuSans-32"/>
     <use x="283.398438" xlink:href="#DejaVuSans-102"/>
     <use x="318.603516" xlink:href="#DejaVuSans-57"/>
     <use x="382.226562" xlink:href="#DejaVuSans-44"/>
     <use x="414.013672" xlink:href="#DejaVuSans-32"/>
     <use x="445.800781" xlink:href="#DejaVuSans-49"/>
     <use x="509.423828" xlink:href="#DejaVuSans-48"/>
     <use x="573.046875" xlink:href="#DejaVuSans-45"/>
     <use x="609.130859" xlink:href="#DejaVuSans-68"/>
    </g>
    <!-- 51 targets: 100..1e-08 -->
    <defs>
     <path d="M 10.796875 72.90625 
L 49.515625 72.90625 
L 49.515625 64.59375 
L 19.828125 64.59375 
L 19.828125 46.734375 
Q 21.96875 47.46875 24.109375 47.828125 
Q 26.265625 48.1875 28.421875 48.1875 
Q 40.625 48.1875 47.75 41.5 
Q 54.890625 34.8125 54.890625 23.390625 
Q 54.890625 11.625 47.5625 5.09375 
Q 40.234375 -1.421875 26.90625 -1.421875 
Q 22.3125 -1.421875 17.546875 -0.640625 
Q 12.796875 0.140625 7.71875 1.703125 
L 7.71875 11.625 
Q 12.109375 9.234375 16.796875 8.0625 
Q 21.484375 6.890625 26.703125 6.890625 
Q 35.15625 6.890625 40.078125 11.328125 
Q 45.015625 15.765625 45.015625 23.390625 
Q 45.015625 31 40.078125 35.4375 
Q 35.15625 39.890625 26.703125 39.890625 
Q 22.75 39.890625 18.8125 39.015625 
Q 14.890625 38.140625 10.796875 36.28125 
z
" id="DejaVuSans-53"/>
     <path d="M 11.71875 12.40625 
L 22.015625 12.40625 
L 22.015625 0 
L 11.71875 0 
z
M 11.71875 51.703125 
L 22.015625 51.703125 
L 22.015625 39.3125 
L 11.71875 39.3125 
z
" id="DejaVuSans-58"/>
    </defs>
    <g transform="translate(60.41088 49.533135)scale(0.102 -0.102)">
     <use xlink:href="#DejaVuSans-53"/>
     <use x="63.623047" xlink:href="#DejaVuSans-49"/>
     <use x="127.246094" xlink:href="#DejaVuSans-32"/>
     <use x="159.033203" xlink:href="#DejaVuSans-116"/>
     <use x="198.242188" xlink:href="#DejaVuSans-97"/>
     <use x="259.521484" xlink:href="#DejaVuSans-114"/>
     <use x="298.884766" xlink:href="#DejaVuSans-103"/>
     <use x="362.361328" xlink:href="#DejaVuSans-101"/>
     <use x="423.884766" xlink:href="#DejaVuSans-116"/>
     <use x="463.09375" xlink:href="#DejaVuSans-115"/>
     <use x="515.193359" xlink:href="#DejaVuSans-58"/>
     <use x="548.884766" xlink:href="#DejaVuSans-32"/>
     <use x="580.671875" xlink:href="#DejaVuSans-49"/>
     <use x="644.294922" xlink:href="#DejaVuSans-48"/>
     <use x="707.917969" xlink:href="#DejaVuSans-48"/>
     <use x="771.541016" xlink:href="#DejaVuSans-46"/>
     <use x="803.328125" xlink:href="#DejaVuSans-46"/>
     <use x="835.115234" xlink:href="#DejaVuSans-49"/>
     <use x="898.738281" xlink:href="#DejaVuSans-101"/>
     <use x="960.261719" xlink:href="#DejaVuSans-45"/>
     <use x="996.345703" xlink:href="#DejaVuSans-48"/>
     <use x="1059.96875" xlink:href="#DejaVuSans-56"/>
    </g>
    <!-- 24, 15 instances -->
    <g transform="translate(60.41088 60.954904)scale(0.102 -0.102)">
     <use xlink:href="#DejaVuSans-50"/>
     <use x="63.623047" xlink:href="#DejaVuSans-52"/>
     <use x="127.246094" xlink:href="#DejaVuSans-44"/>
     <use x="159.033203" xlink:href="#DejaVuSans-32"/>
     <use x="190.820312" xlink:href="#DejaVuSans-49"/>
     <use x="254.443359" xlink:href="#DejaVuSans-53"/>
     <use x="318.066406" xlink:href="#DejaVuSans-32"/>
     <use x="349.853516" xlink:href="#DejaVuSans-105"/>
     <use x="377.636719" xlink:href="#DejaVuSans-110"/>
     <use x="441.015625" xlink:href="#DejaVuSans-115"/>
     <use x="493.115234" xlink:href="#DejaVuSans-116"/>
     <use x="532.324219" xlink:href="#DejaVuSans-97"/>
     <use x="593.603516" xlink:href="#DejaVuSans-110"/>
     <use x="656.982422" xlink:href="#DejaVuSans-99"/>
     <use x="711.962891" xlink:href="#DejaVuSans-101"/>
     <use x="773.486328" xlink:href="#DejaVuSans-115"/>
    </g>
   </g>
   <g id="text_19">
    <!-- v2.4 -->
    <g style="fill:#808080;" transform="translate(187.233062 294.151352)scale(0.1 -0.1)">
     <use xlink:href="#DejaVuSans-118"/>
     <use x="59.179688" xlink:href="#DejaVuSans-50"/>
     <use x="122.802734" xlink:href="#DejaVuSans-46"/>
     <use x="154.589844" xlink:href="#DejaVuSans-52"/>
    </g>
   </g>
   <g id="text_20">
    <!-- 9 Rosenbrock rotated -->
    <defs>
     <path d="M 44.390625 34.1875 
Q 47.5625 33.109375 50.5625 29.59375 
Q 53.5625 26.078125 56.59375 19.921875 
L 66.609375 0 
L 56 0 
L 46.6875 18.703125 
Q 43.0625 26.03125 39.671875 28.421875 
Q 36.28125 30.8125 30.421875 30.8125 
L 19.671875 30.8125 
L 19.671875 0 
L 9.8125 0 
L 9.8125 72.90625 
L 32.078125 72.90625 
Q 44.578125 72.90625 50.734375 67.671875 
Q 56.890625 62.453125 56.890625 51.90625 
Q 56.890625 45.015625 53.6875 40.46875 
Q 50.484375 35.9375 44.390625 34.1875 
z
M 19.671875 64.796875 
L 19.671875 38.921875 
L 32.078125 38.921875 
Q 39.203125 38.921875 42.84375 42.21875 
Q 46.484375 45.515625 46.484375 51.90625 
Q 46.484375 58.296875 42.84375 61.546875 
Q 39.203125 64.796875 32.078125 64.796875 
z
" id="DejaVuSans-82"/>
     <path d="M 9.078125 75.984375 
L 18.109375 75.984375 
L 18.109375 31.109375 
L 44.921875 54.6875 
L 56.390625 54.6875 
L 27.390625 29.109375 
L 57.625 0 
L 45.90625 0 
L 18.109375 26.703125 
L 18.109375 0 
L 9.078125 0 
z
" id="DejaVuSans-107"/>
    </defs>
    <g transform="translate(90.990875 21.648)scale(0.2 -0.2)">
     <use xlink:href="#DejaVuSans-57"/>
     <use x="63.623047" xlink:href="#DejaVuSans-32"/>
     <use x="95.410156" xlink:href="#DejaVuSans-82"/>
     <use x="160.392578" xlink:href="#DejaVuSans-111"/>
     <use x="221.574219" xlink:href="#DejaVuSans-115"/>
     <use x="273.673828" xlink:href="#DejaVuSans-101"/>
     <use x="335.197266" xlink:href="#DejaVuSans-110"/>
     <use x="398.576172" xlink:href="#DejaVuSans-98"/>
     <use x="462.052734" xlink:href="#DejaVuSans-114"/>
     <use x="500.916016" xlink:href="#DejaVuSans-111"/>
     <use x="562.097656" xlink:href="#DejaVuSans-99"/>
     <use x="617.078125" xlink:href="#DejaVuSans-107"/>
     <use x="674.988281" xlink:href="#DejaVuSans-32"/>
     <use x="706.775391" xlink:href="#DejaVuSans-114"/>
     <use x="745.638672" xlink:href="#DejaVuSans-111"/>
     <use x="806.820312" xlink:href="#DejaVuSans-116"/>
     <use x="846.029297" xlink:href="#DejaVuSans-97"/>
     <use x="907.308594" xlink:href="#DejaVuSans-116"/>
     <use x="946.517578" xlink:href="#DejaVuSans-101"/>
     <use x="1008.041016" xlink:href="#DejaVuSans-100"/>
    </g>
   </g>
  </g>
 </g>
 <defs>
  <clipPath id="pa054e11cd1">
   <rect height="271.296" width="281.088" x="57.6" y="27.648"/>
  </clipPath>
 </defs>
</svg>
