<?xml version="1.0" encoding="utf-8" standalone="no"?>
<!DOCTYPE svg PUBLIC "-//W3C//DTD SVG 1.1//EN"
  "http://www.w3.org/Graphics/SVG/1.1/DTD/svg11.dtd">
<!-- Created with matplotlib (https://matplotlib.org/) -->
<svg height="345.6pt" version="1.1" viewBox="0 0 460.8 345.6" width="460.8pt" xmlns="http://www.w3.org/2000/svg" xmlns:xlink="http://www.w3.org/1999/xlink">
 <defs>
  <style type="text/css">
*{stroke-linecap:butt;stroke-linejoin:round;}
  </style>
 </defs>
 <g id="figure_1">
  <g id="patch_1">
   <path d="M 0 345.6 
L 460.8 345.6 
L 460.8 0 
L 0 0 
z
" style="fill:#ffffff;"/>
  </g>
  <g id="axes_1">
   <g id="patch_2">
    <path d="M 57.6 298.944 
L 338.688 298.944 
L 338.688 27.648 
L 57.6 27.648 
z
" style="fill:#ffffff;"/>
   </g>
   <g id="line2d_1">
    <path d="M 102.597126 298.944 
L 102.597126 293.677139 
L 110.103064 293.677139 
L 110.103064 288.410278 
L 112.128456 288.410278 
L 112.128456 283.143418 
L 113.664983 283.143418 
L 113.664983 277.876557 
L 115.269727 277.876557 
L 115.269727 272.609696 
L 118.363901 272.609696 
L 118.363901 267.342835 
L 122.906394 267.342835 
L 122.906394 262.075974 
L 132.350712 262.075974 
L 132.350712 256.809114 
L 134.300504 256.809114 
L 134.300504 251.542253 
L 135.522271 251.542253 
L 135.522271 246.275392 
L 136.475687 246.275392 
L 136.475687 241.008531 
L 137.289545 241.008531 
L 137.289545 235.74167 
L 138.049816 235.74167 
L 138.049816 230.47481 
L 138.745106 230.47481 
L 138.745106 225.207949 
L 139.333553 225.207949 
L 139.333553 219.941088 
L 139.793552 219.941088 
L 139.793552 214.674227 
L 140.195896 214.674227 
L 140.195896 209.407366 
L 140.619053 209.407366 
L 140.619053 204.140506 
L 140.900458 204.140506 
L 140.900458 198.873645 
L 141.090414 198.873645 
L 141.090414 193.606784 
L 141.335737 193.606784 
L 141.335737 188.339923 
L 141.549369 188.339923 
L 141.549369 183.073062 
L 141.704386 183.073062 
L 141.704386 177.806202 
L 141.830201 177.806202 
L 141.830201 172.539341 
L 141.913576 172.539341 
L 141.913576 167.27248 
L 142.037896 167.27248 
L 142.037896 162.005619 
L 142.120287 162.005619 
L 142.120287 156.738758 
L 142.243147 156.738758 
L 142.243147 151.471897 
L 142.297475 151.471897 
L 142.297475 146.205037 
L 142.365148 146.205037 
L 142.365148 140.938176 
L 142.419098 140.938176 
L 142.419098 135.671315 
L 142.499711 135.671315 
L 142.499711 130.404454 
L 142.606619 130.404454 
L 142.606619 125.137593 
L 142.646541 125.137593 
L 142.646541 119.870733 
L 142.673105 119.870733 
L 142.673105 114.603872 
L 142.686372 114.603872 
L 142.686372 109.337011 
L 142.739338 109.337011 
L 142.739338 104.07015 
L 142.765762 104.07015 
L 142.765762 98.803289 
L 142.805321 98.803289 
L 142.805321 93.536429 
L 142.871056 93.536429 
L 142.871056 88.269568 
L 142.923465 88.269568 
L 142.923465 83.002707 
L 142.949611 83.002707 
L 142.949611 77.735846 
L 142.975718 77.735846 
L 142.975718 72.468985 
L 143.027814 72.468985 
L 143.027814 67.202125 
L 143.040814 67.202125 
L 143.040814 61.935264 
L 143.053804 61.935264 
L 143.053804 56.668403 
L 143.079756 56.668403 
L 143.079756 51.401542 
L 143.11861 51.401542 
L 143.11861 46.134681 
L 143.131543 46.134681 
L 143.131543 40.867821 
L 143.144465 40.867821 
L 143.144465 35.60096 
L 143.157379 35.60096 
L 143.157379 30.334099 
L 338.688 30.334099 
" style="fill:none;stroke:#f5deb3;stroke-linecap:square;stroke-width:4;"/>
   </g>
   <g id="line2d_2">
    <defs>
     <path d="M -0 7.778175 
L 7.778175 0 
L 0 -7.778175 
L -7.778175 -0 
z
" id="m102400b932" style="stroke:#f5deb3;stroke-linejoin:miter;stroke-width:1.5;"/>
    </defs>
    <g>
     <use style="fill:#f5deb3;stroke:#f5deb3;stroke-linejoin:miter;stroke-width:1.5;" x="142.499711" xlink:href="#m102400b932" y="135.671315"/>
     <use style="fill:#f5deb3;stroke:#f5deb3;stroke-linejoin:miter;stroke-width:1.5;" x="143.157379" xlink:href="#m102400b932" y="35.60096"/>
     <use style="fill:#f5deb3;stroke:#f5deb3;stroke-linejoin:miter;stroke-width:1.5;" x="143.157379" xlink:href="#m102400b932" y="30.334099"/>
     <use style="fill:#f5deb3;stroke:#f5deb3;stroke-linejoin:miter;stroke-width:1.5;" x="143.157379" xlink:href="#m102400b932" y="30.334099"/>
     <use style="fill:#f5deb3;stroke:#f5deb3;stroke-linejoin:miter;stroke-width:1.5;" x="338.688" xlink:href="#m102400b932" y="30.334099"/>
    </g>
   </g>
   <g id="line2d_3">
    <path style="fill:none;stroke:#f5deb3;stroke-linecap:square;stroke-width:4;"/>
    <g/>
   </g>
   <g id="line2d_4">
    <path d="M 338.688 30.334099 
L 369.60768 35.706297 
" style="fill:none;stroke:#f5deb3;stroke-linecap:square;stroke-width:4;"/>
    <g>
     <use style="fill:#f5deb3;stroke:#f5deb3;stroke-linejoin:miter;stroke-width:1.5;" x="338.688" xlink:href="#m102400b932" y="30.334099"/>
     <use style="fill:#f5deb3;stroke:#f5deb3;stroke-linejoin:miter;stroke-width:1.5;" x="369.60768" xlink:href="#m102400b932" y="35.706297"/>
    </g>
   </g>
   <g id="matplotlib.axis_1">
    <g id="xtick_1">
     <g id="line2d_5">
      <path clip-path="url(#p91bbdda6a8)" d="M 57.6 298.944 
L 57.6 27.648 
" style="fill:none;stroke:#b0b0b0;stroke-linecap:square;stroke-width:0.8;"/>
     </g>
     <g id="line2d_6">
      <defs>
       <path d="M 0 0 
L 0 3.5 
" id="m9cce5be748" style="stroke:#000000;stroke-width:0.8;"/>
      </defs>
      <g>
       <use style="stroke:#000000;stroke-width:0.8;" x="57.6" xlink:href="#m9cce5be748" y="298.944"/>
      </g>
     </g>
     <g id="text_1">
      <!-- 0 -->
      <defs>
       <path d="M 31.78125 66.40625 
Q 24.171875 66.40625 20.328125 58.90625 
Q 16.5 51.421875 16.5 36.375 
Q 16.5 21.390625 20.328125 13.890625 
Q 24.171875 6.390625 31.78125 6.390625 
Q 39.453125 6.390625 43.28125 13.890625 
Q 47.125 21.390625 47.125 36.375 
Q 47.125 51.421875 43.28125 58.90625 
Q 39.453125 66.40625 31.78125 66.40625 
z
M 31.78125 74.21875 
Q 44.046875 74.21875 50.515625 64.515625 
Q 56.984375 54.828125 56.984375 36.375 
Q 56.984375 17.96875 50.515625 8.265625 
Q 44.046875 -1.421875 31.78125 -1.421875 
Q 19.53125 -1.421875 13.0625 8.265625 
Q 6.59375 17.96875 6.59375 36.375 
Q 6.59375 54.828125 13.0625 64.515625 
Q 19.53125 74.21875 31.78125 74.21875 
z
" id="DejaVuSans-48"/>
      </defs>
      <g transform="translate(51.2375 321.140875)scale(0.2 -0.2)">
       <use xlink:href="#DejaVuSans-48"/>
      </g>
     </g>
    </g>
    <g id="xtick_2">
     <g id="line2d_7">
      <path clip-path="url(#p91bbdda6a8)" d="M 137.910857 298.944 
L 137.910857 27.648 
" style="fill:none;stroke:#b0b0b0;stroke-linecap:square;stroke-width:0.8;"/>
     </g>
     <g id="line2d_8">
      <g>
       <use style="stroke:#000000;stroke-width:0.8;" x="137.910857" xlink:href="#m9cce5be748" y="298.944"/>
      </g>
     </g>
     <g id="text_2">
      <!-- 2 -->
      <defs>
       <path d="M 19.1875 8.296875 
L 53.609375 8.296875 
L 53.609375 0 
L 7.328125 0 
L 7.328125 8.296875 
Q 12.9375 14.109375 22.625 23.890625 
Q 32.328125 33.6875 34.8125 36.53125 
Q 39.546875 41.84375 41.421875 45.53125 
Q 43.3125 49.21875 43.3125 52.78125 
Q 43.3125 58.59375 39.234375 62.25 
Q 35.15625 65.921875 28.609375 65.921875 
Q 23.96875 65.921875 18.8125 64.3125 
Q 13.671875 62.703125 7.8125 59.421875 
L 7.8125 69.390625 
Q 13.765625 71.78125 18.9375 73 
Q 24.125 74.21875 28.421875 74.21875 
Q 39.75 74.21875 46.484375 68.546875 
Q 53.21875 62.890625 53.21875 53.421875 
Q 53.21875 48.921875 51.53125 44.890625 
Q 49.859375 40.875 45.40625 35.40625 
Q 44.1875 33.984375 37.640625 27.21875 
Q 31.109375 20.453125 19.1875 8.296875 
z
" id="DejaVuSans-50"/>
      </defs>
      <g transform="translate(131.548357 321.140875)scale(0.2 -0.2)">
       <use xlink:href="#DejaVuSans-50"/>
      </g>
     </g>
    </g>
    <g id="xtick_3">
     <g id="line2d_9">
      <path clip-path="url(#p91bbdda6a8)" d="M 218.221714 298.944 
L 218.221714 27.648 
" style="fill:none;stroke:#b0b0b0;stroke-linecap:square;stroke-width:0.8;"/>
     </g>
     <g id="line2d_10">
      <g>
       <use style="stroke:#000000;stroke-width:0.8;" x="218.221714" xlink:href="#m9cce5be748" y="298.944"/>
      </g>
     </g>
     <g id="text_3">
      <!-- 4 -->
      <defs>
       <path d="M 37.796875 64.3125 
L 12.890625 25.390625 
L 37.796875 25.390625 
z
M 35.203125 72.90625 
L 47.609375 72.90625 
L 47.609375 25.390625 
L 58.015625 25.390625 
L 58.015625 17.1875 
L 47.609375 17.1875 
L 47.609375 0 
L 37.796875 0 
L 37.796875 17.1875 
L 4.890625 17.1875 
L 4.890625 26.703125 
z
" id="DejaVuSans-52"/>
      </defs>
      <g transform="translate(211.859214 321.140875)scale(0.2 -0.2)">
       <use xlink:href="#DejaVuSans-52"/>
      </g>
     </g>
    </g>
    <g id="xtick_4">
     <g id="line2d_11">
      <path clip-path="url(#p91bbdda6a8)" d="M 298.532571 298.944 
L 298.532571 27.648 
" style="fill:none;stroke:#b0b0b0;stroke-linecap:square;stroke-width:0.8;"/>
     </g>
     <g id="line2d_12">
      <g>
       <use style="stroke:#000000;stroke-width:0.8;" x="298.532571" xlink:href="#m9cce5be748" y="298.944"/>
      </g>
     </g>
     <g id="text_4">
      <!-- 6 -->
      <defs>
       <path d="M 33.015625 40.375 
Q 26.375 40.375 22.484375 35.828125 
Q 18.609375 31.296875 18.609375 23.390625 
Q 18.609375 15.53125 22.484375 10.953125 
Q 26.375 6.390625 33.015625 6.390625 
Q 39.65625 6.390625 43.53125 10.953125 
Q 47.40625 15.53125 47.40625 23.390625 
Q 47.40625 31.296875 43.53125 35.828125 
Q 39.65625 40.375 33.015625 40.375 
z
M 52.59375 71.296875 
L 52.59375 62.3125 
Q 48.875 64.0625 45.09375 64.984375 
Q 41.3125 65.921875 37.59375 65.921875 
Q 27.828125 65.921875 22.671875 59.328125 
Q 17.53125 52.734375 16.796875 39.40625 
Q 19.671875 43.65625 24.015625 45.921875 
Q 28.375 48.1875 33.59375 48.1875 
Q 44.578125 48.1875 50.953125 41.515625 
Q 57.328125 34.859375 57.328125 23.390625 
Q 57.328125 12.15625 50.6875 5.359375 
Q 44.046875 -1.421875 33.015625 -1.421875 
Q 20.359375 -1.421875 13.671875 8.265625 
Q 6.984375 17.96875 6.984375 36.375 
Q 6.984375 53.65625 15.1875 63.9375 
Q 23.390625 74.21875 37.203125 74.21875 
Q 40.921875 74.21875 44.703125 73.484375 
Q 48.484375 72.75 52.59375 71.296875 
z
" id="DejaVuSans-54"/>
      </defs>
      <g transform="translate(292.170071 321.140875)scale(0.2 -0.2)">
       <use xlink:href="#DejaVuSans-54"/>
      </g>
     </g>
    </g>
    <g id="xtick_5">
     <g id="line2d_13">
      <path clip-path="url(#p91bbdda6a8)" d="M 97.755429 298.944 
L 97.755429 27.648 
" style="fill:none;stroke:#b0b0b0;stroke-linecap:square;stroke-width:0.8;"/>
     </g>
     <g id="line2d_14">
      <defs>
       <path d="M 0 0 
L 0 2 
" id="m4605db3dc8" style="stroke:#000000;stroke-width:0.6;"/>
      </defs>
      <g>
       <use style="stroke:#000000;stroke-width:0.6;" x="97.755429" xlink:href="#m4605db3dc8" y="298.944"/>
      </g>
     </g>
    </g>
    <g id="xtick_6">
     <g id="line2d_15">
      <path clip-path="url(#p91bbdda6a8)" d="M 178.066286 298.944 
L 178.066286 27.648 
" style="fill:none;stroke:#b0b0b0;stroke-linecap:square;stroke-width:0.8;"/>
     </g>
     <g id="line2d_16">
      <g>
       <use style="stroke:#000000;stroke-width:0.6;" x="178.066286" xlink:href="#m4605db3dc8" y="298.944"/>
      </g>
     </g>
    </g>
    <g id="xtick_7">
     <g id="line2d_17">
      <path clip-path="url(#p91bbdda6a8)" d="M 258.377143 298.944 
L 258.377143 27.648 
" style="fill:none;stroke:#b0b0b0;stroke-linecap:square;stroke-width:0.8;"/>
     </g>
     <g id="line2d_18">
      <g>
       <use style="stroke:#000000;stroke-width:0.6;" x="258.377143" xlink:href="#m4605db3dc8" y="298.944"/>
      </g>
     </g>
    </g>
    <g id="xtick_8">
     <g id="line2d_19">
      <path clip-path="url(#p91bbdda6a8)" d="M 338.688 298.944 
L 338.688 27.648 
" style="fill:none;stroke:#b0b0b0;stroke-linecap:square;stroke-width:0.8;"/>
     </g>
     <g id="line2d_20">
      <g>
       <use style="stroke:#000000;stroke-width:0.6;" x="338.688" xlink:href="#m4605db3dc8" y="298.944"/>
      </g>
     </g>
    </g>
    <g id="text_5">
     <!-- log10(# f-evals / dimension) -->
     <defs>
      <path d="M 9.421875 75.984375 
L 18.40625 75.984375 
L 18.40625 0 
L 9.421875 0 
z
" id="DejaVuSans-108"/>
      <path d="M 30.609375 48.390625 
Q 23.390625 48.390625 19.1875 42.75 
Q 14.984375 37.109375 14.984375 27.296875 
Q 14.984375 17.484375 19.15625 11.84375 
Q 23.34375 6.203125 30.609375 6.203125 
Q 37.796875 6.203125 41.984375 11.859375 
Q 46.1875 17.53125 46.1875 27.296875 
Q 46.1875 37.015625 41.984375 42.703125 
Q 37.796875 48.390625 30.609375 48.390625 
z
M 30.609375 56 
Q 42.328125 56 49.015625 48.375 
Q 55.71875 40.765625 55.71875 27.296875 
Q 55.71875 13.875 49.015625 6.21875 
Q 42.328125 -1.421875 30.609375 -1.421875 
Q 18.84375 -1.421875 12.171875 6.21875 
Q 5.515625 13.875 5.515625 27.296875 
Q 5.515625 40.765625 12.171875 48.375 
Q 18.84375 56 30.609375 56 
z
" id="DejaVuSans-111"/>
      <path d="M 45.40625 27.984375 
Q 45.40625 37.75 41.375 43.109375 
Q 37.359375 48.484375 30.078125 48.484375 
Q 22.859375 48.484375 18.828125 43.109375 
Q 14.796875 37.75 14.796875 27.984375 
Q 14.796875 18.265625 18.828125 12.890625 
Q 22.859375 7.515625 30.078125 7.515625 
Q 37.359375 7.515625 41.375 12.890625 
Q 45.40625 18.265625 45.40625 27.984375 
z
M 54.390625 6.78125 
Q 54.390625 -7.171875 48.1875 -13.984375 
Q 42 -20.796875 29.203125 -20.796875 
Q 24.46875 -20.796875 20.265625 -20.09375 
Q 16.0625 -19.390625 12.109375 -17.921875 
L 12.109375 -9.1875 
Q 16.0625 -11.328125 19.921875 -12.34375 
Q 23.78125 -13.375 27.78125 -13.375 
Q 36.625 -13.375 41.015625 -8.765625 
Q 45.40625 -4.15625 45.40625 5.171875 
L 45.40625 9.625 
Q 42.625 4.78125 38.28125 2.390625 
Q 33.9375 0 27.875 0 
Q 17.828125 0 11.671875 7.65625 
Q 5.515625 15.328125 5.515625 27.984375 
Q 5.515625 40.671875 11.671875 48.328125 
Q 17.828125 56 27.875 56 
Q 33.9375 56 38.28125 53.609375 
Q 42.625 51.21875 45.40625 46.390625 
L 45.40625 54.6875 
L 54.390625 54.6875 
z
" id="DejaVuSans-103"/>
      <path d="M 12.40625 8.296875 
L 28.515625 8.296875 
L 28.515625 63.921875 
L 10.984375 60.40625 
L 10.984375 69.390625 
L 28.421875 72.90625 
L 38.28125 72.90625 
L 38.28125 8.296875 
L 54.390625 8.296875 
L 54.390625 0 
L 12.40625 0 
z
" id="DejaVuSans-49"/>
      <path d="M 31 75.875 
Q 24.46875 64.65625 21.28125 53.65625 
Q 18.109375 42.671875 18.109375 31.390625 
Q 18.109375 20.125 21.3125 9.0625 
Q 24.515625 -2 31 -13.1875 
L 23.1875 -13.1875 
Q 15.875 -1.703125 12.234375 9.375 
Q 8.59375 20.453125 8.59375 31.390625 
Q 8.59375 42.28125 12.203125 53.3125 
Q 15.828125 64.359375 23.1875 75.875 
z
" id="DejaVuSans-40"/>
      <path d="M 51.125 44 
L 36.921875 44 
L 32.8125 27.6875 
L 47.125 27.6875 
z
M 43.796875 71.78125 
L 38.71875 51.515625 
L 52.984375 51.515625 
L 58.109375 71.78125 
L 65.921875 71.78125 
L 60.890625 51.515625 
L 76.125 51.515625 
L 76.125 44 
L 58.984375 44 
L 54.984375 27.6875 
L 70.515625 27.6875 
L 70.515625 20.21875 
L 53.078125 20.21875 
L 48 0 
L 40.1875 0 
L 45.21875 20.21875 
L 30.90625 20.21875 
L 25.875 0 
L 18.015625 0 
L 23.09375 20.21875 
L 7.71875 20.21875 
L 7.71875 27.6875 
L 24.90625 27.6875 
L 29 44 
L 13.28125 44 
L 13.28125 51.515625 
L 30.90625 51.515625 
L 35.890625 71.78125 
z
" id="DejaVuSans-35"/>
      <path id="DejaVuSans-32"/>
      <path d="M 37.109375 75.984375 
L 37.109375 68.5 
L 28.515625 68.5 
Q 23.6875 68.5 21.796875 66.546875 
Q 19.921875 64.59375 19.921875 59.515625 
L 19.921875 54.6875 
L 34.71875 54.6875 
L 34.71875 47.703125 
L 19.921875 47.703125 
L 19.921875 0 
L 10.890625 0 
L 10.890625 47.703125 
L 2.296875 47.703125 
L 2.296875 54.6875 
L 10.890625 54.6875 
L 10.890625 58.5 
Q 10.890625 67.625 15.140625 71.796875 
Q 19.390625 75.984375 28.609375 75.984375 
z
" id="DejaVuSans-102"/>
      <path d="M 4.890625 31.390625 
L 31.203125 31.390625 
L 31.203125 23.390625 
L 4.890625 23.390625 
z
" id="DejaVuSans-45"/>
      <path d="M 56.203125 29.59375 
L 56.203125 25.203125 
L 14.890625 25.203125 
Q 15.484375 15.921875 20.484375 11.0625 
Q 25.484375 6.203125 34.421875 6.203125 
Q 39.59375 6.203125 44.453125 7.46875 
Q 49.3125 8.734375 54.109375 11.28125 
L 54.109375 2.78125 
Q 49.265625 0.734375 44.1875 -0.34375 
Q 39.109375 -1.421875 33.890625 -1.421875 
Q 20.796875 -1.421875 13.15625 6.1875 
Q 5.515625 13.8125 5.515625 26.8125 
Q 5.515625 40.234375 12.765625 48.109375 
Q 20.015625 56 32.328125 56 
Q 43.359375 56 49.78125 48.890625 
Q 56.203125 41.796875 56.203125 29.59375 
z
M 47.21875 32.234375 
Q 47.125 39.59375 43.09375 43.984375 
Q 39.0625 48.390625 32.421875 48.390625 
Q 24.90625 48.390625 20.390625 44.140625 
Q 15.875 39.890625 15.1875 32.171875 
z
" id="DejaVuSans-101"/>
      <path d="M 2.984375 54.6875 
L 12.5 54.6875 
L 29.59375 8.796875 
L 46.6875 54.6875 
L 56.203125 54.6875 
L 35.6875 0 
L 23.484375 0 
z
" id="DejaVuSans-118"/>
      <path d="M 34.28125 27.484375 
Q 23.390625 27.484375 19.1875 25 
Q 14.984375 22.515625 14.984375 16.5 
Q 14.984375 11.71875 18.140625 8.90625 
Q 21.296875 6.109375 26.703125 6.109375 
Q 34.1875 6.109375 38.703125 11.40625 
Q 43.21875 16.703125 43.21875 25.484375 
L 43.21875 27.484375 
z
M 52.203125 31.203125 
L 52.203125 0 
L 43.21875 0 
L 43.21875 8.296875 
Q 40.140625 3.328125 35.546875 0.953125 
Q 30.953125 -1.421875 24.3125 -1.421875 
Q 15.921875 -1.421875 10.953125 3.296875 
Q 6 8.015625 6 15.921875 
Q 6 25.140625 12.171875 29.828125 
Q 18.359375 34.515625 30.609375 34.515625 
L 43.21875 34.515625 
L 43.21875 35.40625 
Q 43.21875 41.609375 39.140625 45 
Q 35.0625 48.390625 27.6875 48.390625 
Q 23 48.390625 18.546875 47.265625 
Q 14.109375 46.140625 10.015625 43.890625 
L 10.015625 52.203125 
Q 14.9375 54.109375 19.578125 55.046875 
Q 24.21875 56 28.609375 56 
Q 40.484375 56 46.34375 49.84375 
Q 52.203125 43.703125 52.203125 31.203125 
z
" id="DejaVuSans-97"/>
      <path d="M 44.28125 53.078125 
L 44.28125 44.578125 
Q 40.484375 46.53125 36.375 47.5 
Q 32.28125 48.484375 27.875 48.484375 
Q 21.1875 48.484375 17.84375 46.4375 
Q 14.5 44.390625 14.5 40.28125 
Q 14.5 37.15625 16.890625 35.375 
Q 19.28125 33.59375 26.515625 31.984375 
L 29.59375 31.296875 
Q 39.15625 29.25 43.1875 25.515625 
Q 47.21875 21.78125 47.21875 15.09375 
Q 47.21875 7.46875 41.1875 3.015625 
Q 35.15625 -1.421875 24.609375 -1.421875 
Q 20.21875 -1.421875 15.453125 -0.5625 
Q 10.6875 0.296875 5.421875 2 
L 5.421875 11.28125 
Q 10.40625 8.6875 15.234375 7.390625 
Q 20.0625 6.109375 24.8125 6.109375 
Q 31.15625 6.109375 34.5625 8.28125 
Q 37.984375 10.453125 37.984375 14.40625 
Q 37.984375 18.0625 35.515625 20.015625 
Q 33.0625 21.96875 24.703125 23.78125 
L 21.578125 24.515625 
Q 13.234375 26.265625 9.515625 29.90625 
Q 5.8125 33.546875 5.8125 39.890625 
Q 5.8125 47.609375 11.28125 51.796875 
Q 16.75 56 26.8125 56 
Q 31.78125 56 36.171875 55.265625 
Q 40.578125 54.546875 44.28125 53.078125 
z
" id="DejaVuSans-115"/>
      <path d="M 25.390625 72.90625 
L 33.6875 72.90625 
L 8.296875 -9.28125 
L 0 -9.28125 
z
" id="DejaVuSans-47"/>
      <path d="M 45.40625 46.390625 
L 45.40625 75.984375 
L 54.390625 75.984375 
L 54.390625 0 
L 45.40625 0 
L 45.40625 8.203125 
Q 42.578125 3.328125 38.25 0.953125 
Q 33.9375 -1.421875 27.875 -1.421875 
Q 17.96875 -1.421875 11.734375 6.484375 
Q 5.515625 14.40625 5.515625 27.296875 
Q 5.515625 40.1875 11.734375 48.09375 
Q 17.96875 56 27.875 56 
Q 33.9375 56 38.25 53.625 
Q 42.578125 51.265625 45.40625 46.390625 
z
M 14.796875 27.296875 
Q 14.796875 17.390625 18.875 11.75 
Q 22.953125 6.109375 30.078125 6.109375 
Q 37.203125 6.109375 41.296875 11.75 
Q 45.40625 17.390625 45.40625 27.296875 
Q 45.40625 37.203125 41.296875 42.84375 
Q 37.203125 48.484375 30.078125 48.484375 
Q 22.953125 48.484375 18.875 42.84375 
Q 14.796875 37.203125 14.796875 27.296875 
z
" id="DejaVuSans-100"/>
      <path d="M 9.421875 54.6875 
L 18.40625 54.6875 
L 18.40625 0 
L 9.421875 0 
z
M 9.421875 75.984375 
L 18.40625 75.984375 
L 18.40625 64.59375 
L 9.421875 64.59375 
z
" id="DejaVuSans-105"/>
      <path d="M 52 44.1875 
Q 55.375 50.25 60.0625 53.125 
Q 64.75 56 71.09375 56 
Q 79.640625 56 84.28125 50.015625 
Q 88.921875 44.046875 88.921875 33.015625 
L 88.921875 0 
L 79.890625 0 
L 79.890625 32.71875 
Q 79.890625 40.578125 77.09375 44.375 
Q 74.3125 48.1875 68.609375 48.1875 
Q 61.625 48.1875 57.5625 43.546875 
Q 53.515625 38.921875 53.515625 30.90625 
L 53.515625 0 
L 44.484375 0 
L 44.484375 32.71875 
Q 44.484375 40.625 41.703125 44.40625 
Q 38.921875 48.1875 33.109375 48.1875 
Q 26.21875 48.1875 22.15625 43.53125 
Q 18.109375 38.875 18.109375 30.90625 
L 18.109375 0 
L 9.078125 0 
L 9.078125 54.6875 
L 18.109375 54.6875 
L 18.109375 46.1875 
Q 21.1875 51.21875 25.484375 53.609375 
Q 29.78125 56 35.6875 56 
Q 41.65625 56 45.828125 52.96875 
Q 50 49.953125 52 44.1875 
z
" id="DejaVuSans-109"/>
      <path d="M 54.890625 33.015625 
L 54.890625 0 
L 45.90625 0 
L 45.90625 32.71875 
Q 45.90625 40.484375 42.875 44.328125 
Q 39.84375 48.1875 33.796875 48.1875 
Q 26.515625 48.1875 22.3125 43.546875 
Q 18.109375 38.921875 18.109375 30.90625 
L 18.109375 0 
L 9.078125 0 
L 9.078125 54.6875 
L 18.109375 54.6875 
L 18.109375 46.1875 
Q 21.34375 51.125 25.703125 53.5625 
Q 30.078125 56 35.796875 56 
Q 45.21875 56 50.046875 50.171875 
Q 54.890625 44.34375 54.890625 33.015625 
z
" id="DejaVuSans-110"/>
      <path d="M 8.015625 75.875 
L 15.828125 75.875 
Q 23.140625 64.359375 26.78125 53.3125 
Q 30.421875 42.28125 30.421875 31.390625 
Q 30.421875 20.453125 26.78125 9.375 
Q 23.140625 -1.703125 15.828125 -13.1875 
L 8.015625 -13.1875 
Q 14.5 -2 17.703125 9.0625 
Q 20.90625 20.125 20.90625 31.390625 
Q 20.90625 42.671875 17.703125 53.65625 
Q 14.5 64.65625 8.015625 75.875 
z
" id="DejaVuSans-41"/>
     </defs>
     <g transform="translate(77.764078 342.217594)scale(0.17 -0.17)">
      <use xlink:href="#DejaVuSans-108"/>
      <use x="27.783203" xlink:href="#DejaVuSans-111"/>
      <use x="88.964844" xlink:href="#DejaVuSans-103"/>
      <use x="152.441406" xlink:href="#DejaVuSans-49"/>
      <use x="216.064453" xlink:href="#DejaVuSans-48"/>
      <use x="279.6875" xlink:href="#DejaVuSans-40"/>
      <use x="318.701172" xlink:href="#DejaVuSans-35"/>
      <use x="402.490234" xlink:href="#DejaVuSans-32"/>
      <use x="434.277344" xlink:href="#DejaVuSans-102"/>
      <use x="463.982422" xlink:href="#DejaVuSans-45"/>
      <use x="500.066406" xlink:href="#DejaVuSans-101"/>
      <use x="561.589844" xlink:href="#DejaVuSans-118"/>
      <use x="620.769531" xlink:href="#DejaVuSans-97"/>
      <use x="682.048828" xlink:href="#DejaVuSans-108"/>
      <use x="709.832031" xlink:href="#DejaVuSans-115"/>
      <use x="761.931641" xlink:href="#DejaVuSans-32"/>
      <use x="793.71875" xlink:href="#DejaVuSans-47"/>
      <use x="827.410156" xlink:href="#DejaVuSans-32"/>
      <use x="859.197266" xlink:href="#DejaVuSans-100"/>
      <use x="922.673828" xlink:href="#DejaVuSans-105"/>
      <use x="950.457031" xlink:href="#DejaVuSans-109"/>
      <use x="1047.869141" xlink:href="#DejaVuSans-101"/>
      <use x="1109.392578" xlink:href="#DejaVuSans-110"/>
      <use x="1172.771484" xlink:href="#DejaVuSans-115"/>
      <use x="1224.871094" xlink:href="#DejaVuSans-105"/>
      <use x="1252.654297" xlink:href="#DejaVuSans-111"/>
      <use x="1313.835938" xlink:href="#DejaVuSans-110"/>
      <use x="1377.214844" xlink:href="#DejaVuSans-41"/>
     </g>
    </g>
   </g>
   <g id="matplotlib.axis_2">
    <g id="ytick_1">
     <g id="line2d_21">
      <path clip-path="url(#p91bbdda6a8)" d="M 57.6 298.944 
L 338.688 298.944 
" style="fill:none;stroke:#b0b0b0;stroke-linecap:square;stroke-width:0.8;"/>
     </g>
     <g id="line2d_22">
      <defs>
       <path d="M 0 0 
L -3.5 0 
" id="m84ea1c0de1" style="stroke:#000000;stroke-width:0.8;"/>
      </defs>
      <g>
       <use style="stroke:#000000;stroke-width:0.8;" x="57.6" xlink:href="#m84ea1c0de1" y="298.944"/>
      </g>
     </g>
     <g id="text_6">
      <!-- 0.0 -->
      <defs>
       <path d="M 10.6875 12.40625 
L 21 12.40625 
L 21 0 
L 10.6875 0 
z
" id="DejaVuSans-46"/>
      </defs>
      <g transform="translate(25.155 305.02275)scale(0.16 -0.16)">
       <use xlink:href="#DejaVuSans-48"/>
       <use x="63.623047" xlink:href="#DejaVuSans-46"/>
       <use x="95.410156" xlink:href="#DejaVuSans-48"/>
      </g>
     </g>
    </g>
    <g id="ytick_2">
     <g id="line2d_23">
      <path clip-path="url(#p91bbdda6a8)" d="M 57.6 245.22202 
L 338.688 245.22202 
" style="fill:none;stroke:#b0b0b0;stroke-linecap:square;stroke-width:0.8;"/>
     </g>
     <g id="line2d_24">
      <g>
       <use style="stroke:#000000;stroke-width:0.8;" x="57.6" xlink:href="#m84ea1c0de1" y="245.22202"/>
      </g>
     </g>
     <g id="text_7">
      <!-- 0.2 -->
      <g transform="translate(25.155 251.30077)scale(0.16 -0.16)">
       <use xlink:href="#DejaVuSans-48"/>
       <use x="63.623047" xlink:href="#DejaVuSans-46"/>
       <use x="95.410156" xlink:href="#DejaVuSans-50"/>
      </g>
     </g>
    </g>
    <g id="ytick_3">
     <g id="line2d_25">
      <path clip-path="url(#p91bbdda6a8)" d="M 57.6 191.50004 
L 338.688 191.50004 
" style="fill:none;stroke:#b0b0b0;stroke-linecap:square;stroke-width:0.8;"/>
     </g>
     <g id="line2d_26">
      <g>
       <use style="stroke:#000000;stroke-width:0.8;" x="57.6" xlink:href="#m84ea1c0de1" y="191.50004"/>
      </g>
     </g>
     <g id="text_8">
      <!-- 0.4 -->
      <g transform="translate(25.155 197.57879)scale(0.16 -0.16)">
       <use xlink:href="#DejaVuSans-48"/>
       <use x="63.623047" xlink:href="#DejaVuSans-46"/>
       <use x="95.410156" xlink:href="#DejaVuSans-52"/>
      </g>
     </g>
    </g>
    <g id="ytick_4">
     <g id="line2d_27">
      <path clip-path="url(#p91bbdda6a8)" d="M 57.6 137.778059 
L 338.688 137.778059 
" style="fill:none;stroke:#b0b0b0;stroke-linecap:square;stroke-width:0.8;"/>
     </g>
     <g id="line2d_28">
      <g>
       <use style="stroke:#000000;stroke-width:0.8;" x="57.6" xlink:href="#m84ea1c0de1" y="137.778059"/>
      </g>
     </g>
     <g id="text_9">
      <!-- 0.6 -->
      <g transform="translate(25.155 143.856809)scale(0.16 -0.16)">
       <use xlink:href="#DejaVuSans-48"/>
       <use x="63.623047" xlink:href="#DejaVuSans-46"/>
       <use x="95.410156" xlink:href="#DejaVuSans-54"/>
      </g>
     </g>
    </g>
    <g id="ytick_5">
     <g id="line2d_29">
      <path clip-path="url(#p91bbdda6a8)" d="M 57.6 84.056079 
L 338.688 84.056079 
" style="fill:none;stroke:#b0b0b0;stroke-linecap:square;stroke-width:0.8;"/>
     </g>
     <g id="line2d_30">
      <g>
       <use style="stroke:#000000;stroke-width:0.8;" x="57.6" xlink:href="#m84ea1c0de1" y="84.056079"/>
      </g>
     </g>
     <g id="text_10">
      <!-- 0.8 -->
      <defs>
       <path d="M 31.78125 34.625 
Q 24.75 34.625 20.71875 30.859375 
Q 16.703125 27.09375 16.703125 20.515625 
Q 16.703125 13.921875 20.71875 10.15625 
Q 24.75 6.390625 31.78125 6.390625 
Q 38.8125 6.390625 42.859375 10.171875 
Q 46.921875 13.96875 46.921875 20.515625 
Q 46.921875 27.09375 42.890625 30.859375 
Q 38.875 34.625 31.78125 34.625 
z
M 21.921875 38.8125 
Q 15.578125 40.375 12.03125 44.71875 
Q 8.5 49.078125 8.5 55.328125 
Q 8.5 64.0625 14.71875 69.140625 
Q 20.953125 74.21875 31.78125 74.21875 
Q 42.671875 74.21875 48.875 69.140625 
Q 55.078125 64.0625 55.078125 55.328125 
Q 55.078125 49.078125 51.53125 44.71875 
Q 48 40.375 41.703125 38.8125 
Q 48.828125 37.15625 52.796875 32.3125 
Q 56.78125 27.484375 56.78125 20.515625 
Q 56.78125 9.90625 50.3125 4.234375 
Q 43.84375 -1.421875 31.78125 -1.421875 
Q 19.734375 -1.421875 13.25 4.234375 
Q 6.78125 9.90625 6.78125 20.515625 
Q 6.78125 27.484375 10.78125 32.3125 
Q 14.796875 37.15625 21.921875 38.8125 
z
M 18.3125 54.390625 
Q 18.3125 48.734375 21.84375 45.5625 
Q 25.390625 42.390625 31.78125 42.390625 
Q 38.140625 42.390625 41.71875 45.5625 
Q 45.3125 48.734375 45.3125 54.390625 
Q 45.3125 60.0625 41.71875 63.234375 
Q 38.140625 66.40625 31.78125 66.40625 
Q 25.390625 66.40625 21.84375 63.234375 
Q 18.3125 60.0625 18.3125 54.390625 
z
" id="DejaVuSans-56"/>
      </defs>
      <g transform="translate(25.155 90.134829)scale(0.16 -0.16)">
       <use xlink:href="#DejaVuSans-48"/>
       <use x="63.623047" xlink:href="#DejaVuSans-46"/>
       <use x="95.410156" xlink:href="#DejaVuSans-56"/>
      </g>
     </g>
    </g>
    <g id="ytick_6">
     <g id="line2d_31">
      <path clip-path="url(#p91bbdda6a8)" d="M 57.6 30.334099 
L 338.688 30.334099 
" style="fill:none;stroke:#b0b0b0;stroke-linecap:square;stroke-width:0.8;"/>
     </g>
     <g id="line2d_32">
      <g>
       <use style="stroke:#000000;stroke-width:0.8;" x="57.6" xlink:href="#m84ea1c0de1" y="30.334099"/>
      </g>
     </g>
     <g id="text_11">
      <!-- 1.0 -->
      <g transform="translate(25.155 36.412849)scale(0.16 -0.16)">
       <use xlink:href="#DejaVuSans-49"/>
       <use x="63.623047" xlink:href="#DejaVuSans-46"/>
       <use x="95.410156" xlink:href="#DejaVuSans-48"/>
      </g>
     </g>
    </g>
    <g id="text_12">
     <!-- Fraction of function,target pairs -->
     <defs>
      <path d="M 9.8125 72.90625 
L 51.703125 72.90625 
L 51.703125 64.59375 
L 19.671875 64.59375 
L 19.671875 43.109375 
L 48.578125 43.109375 
L 48.578125 34.8125 
L 19.671875 34.8125 
L 19.671875 0 
L 9.8125 0 
z
" id="DejaVuSans-70"/>
      <path d="M 41.109375 46.296875 
Q 39.59375 47.171875 37.8125 47.578125 
Q 36.03125 48 33.890625 48 
Q 26.265625 48 22.1875 43.046875 
Q 18.109375 38.09375 18.109375 28.8125 
L 18.109375 0 
L 9.078125 0 
L 9.078125 54.6875 
L 18.109375 54.6875 
L 18.109375 46.1875 
Q 20.953125 51.171875 25.484375 53.578125 
Q 30.03125 56 36.53125 56 
Q 37.453125 56 38.578125 55.875 
Q 39.703125 55.765625 41.0625 55.515625 
z
" id="DejaVuSans-114"/>
      <path d="M 48.78125 52.59375 
L 48.78125 44.1875 
Q 44.96875 46.296875 41.140625 47.34375 
Q 37.3125 48.390625 33.40625 48.390625 
Q 24.65625 48.390625 19.8125 42.84375 
Q 14.984375 37.3125 14.984375 27.296875 
Q 14.984375 17.28125 19.8125 11.734375 
Q 24.65625 6.203125 33.40625 6.203125 
Q 37.3125 6.203125 41.140625 7.25 
Q 44.96875 8.296875 48.78125 10.40625 
L 48.78125 2.09375 
Q 45.015625 0.34375 40.984375 -0.53125 
Q 36.96875 -1.421875 32.421875 -1.421875 
Q 20.0625 -1.421875 12.78125 6.34375 
Q 5.515625 14.109375 5.515625 27.296875 
Q 5.515625 40.671875 12.859375 48.328125 
Q 20.21875 56 33.015625 56 
Q 37.15625 56 41.109375 55.140625 
Q 45.0625 54.296875 48.78125 52.59375 
z
" id="DejaVuSans-99"/>
      <path d="M 18.3125 70.21875 
L 18.3125 54.6875 
L 36.8125 54.6875 
L 36.8125 47.703125 
L 18.3125 47.703125 
L 18.3125 18.015625 
Q 18.3125 11.328125 20.140625 9.421875 
Q 21.96875 7.515625 27.59375 7.515625 
L 36.8125 7.515625 
L 36.8125 0 
L 27.59375 0 
Q 17.1875 0 13.234375 3.875 
Q 9.28125 7.765625 9.28125 18.015625 
L 9.28125 47.703125 
L 2.6875 47.703125 
L 2.6875 54.6875 
L 9.28125 54.6875 
L 9.28125 70.21875 
z
" id="DejaVuSans-116"/>
      <path d="M 8.5 21.578125 
L 8.5 54.6875 
L 17.484375 54.6875 
L 17.484375 21.921875 
Q 17.484375 14.15625 20.5 10.265625 
Q 23.53125 6.390625 29.59375 6.390625 
Q 36.859375 6.390625 41.078125 11.03125 
Q 45.3125 15.671875 45.3125 23.6875 
L 45.3125 54.6875 
L 54.296875 54.6875 
L 54.296875 0 
L 45.3125 0 
L 45.3125 8.40625 
Q 42.046875 3.421875 37.71875 1 
Q 33.40625 -1.421875 27.6875 -1.421875 
Q 18.265625 -1.421875 13.375 4.4375 
Q 8.5 10.296875 8.5 21.578125 
z
M 31.109375 56 
z
" id="DejaVuSans-117"/>
      <path d="M 11.71875 12.40625 
L 22.015625 12.40625 
L 22.015625 4 
L 14.015625 -11.625 
L 7.71875 -11.625 
L 11.71875 4 
z
" id="DejaVuSans-44"/>
      <path d="M 18.109375 8.203125 
L 18.109375 -20.796875 
L 9.078125 -20.796875 
L 9.078125 54.6875 
L 18.109375 54.6875 
L 18.109375 46.390625 
Q 20.953125 51.265625 25.265625 53.625 
Q 29.59375 56 35.59375 56 
Q 45.5625 56 51.78125 48.09375 
Q 58.015625 40.1875 58.015625 27.296875 
Q 58.015625 14.40625 51.78125 6.484375 
Q 45.5625 -1.421875 35.59375 -1.421875 
Q 29.59375 -1.421875 25.265625 0.953125 
Q 20.953125 3.328125 18.109375 8.203125 
z
M 48.6875 27.296875 
Q 48.6875 37.203125 44.609375 42.84375 
Q 40.53125 48.484375 33.40625 48.484375 
Q 26.265625 48.484375 22.1875 42.84375 
Q 18.109375 37.203125 18.109375 27.296875 
Q 18.109375 17.390625 22.1875 11.75 
Q 26.265625 6.109375 33.40625 6.109375 
Q 40.53125 6.109375 44.609375 11.75 
Q 48.6875 17.390625 48.6875 27.296875 
z
" id="DejaVuSans-112"/>
     </defs>
     <g transform="translate(17.619531 297.681)rotate(-90)scale(0.17 -0.17)">
      <use xlink:href="#DejaVuSans-70"/>
      <use x="50.269531" xlink:href="#DejaVuSans-114"/>
      <use x="91.382812" xlink:href="#DejaVuSans-97"/>
      <use x="152.662109" xlink:href="#DejaVuSans-99"/>
      <use x="207.642578" xlink:href="#DejaVuSans-116"/>
      <use x="246.851562" xlink:href="#DejaVuSans-105"/>
      <use x="274.634766" xlink:href="#DejaVuSans-111"/>
      <use x="335.816406" xlink:href="#DejaVuSans-110"/>
      <use x="399.195312" xlink:href="#DejaVuSans-32"/>
      <use x="430.982422" xlink:href="#DejaVuSans-111"/>
      <use x="492.164062" xlink:href="#DejaVuSans-102"/>
      <use x="527.369141" xlink:href="#DejaVuSans-32"/>
      <use x="559.15625" xlink:href="#DejaVuSans-102"/>
      <use x="594.361328" xlink:href="#DejaVuSans-117"/>
      <use x="657.740234" xlink:href="#DejaVuSans-110"/>
      <use x="721.119141" xlink:href="#DejaVuSans-99"/>
      <use x="776.099609" xlink:href="#DejaVuSans-116"/>
      <use x="815.308594" xlink:href="#DejaVuSans-105"/>
      <use x="843.091797" xlink:href="#DejaVuSans-111"/>
      <use x="904.273438" xlink:href="#DejaVuSans-110"/>
      <use x="967.652344" xlink:href="#DejaVuSans-44"/>
      <use x="999.439453" xlink:href="#DejaVuSans-116"/>
      <use x="1038.648438" xlink:href="#DejaVuSans-97"/>
      <use x="1099.927734" xlink:href="#DejaVuSans-114"/>
      <use x="1139.291016" xlink:href="#DejaVuSans-103"/>
      <use x="1202.767578" xlink:href="#DejaVuSans-101"/>
      <use x="1264.291016" xlink:href="#DejaVuSans-116"/>
      <use x="1303.5" xlink:href="#DejaVuSans-32"/>
      <use x="1335.287109" xlink:href="#DejaVuSans-112"/>
      <use x="1398.763672" xlink:href="#DejaVuSans-97"/>
      <use x="1460.042969" xlink:href="#DejaVuSans-105"/>
      <use x="1487.826172" xlink:href="#DejaVuSans-114"/>
      <use x="1528.939453" xlink:href="#DejaVuSans-115"/>
     </g>
    </g>
   </g>
   <g id="line2d_33">
    <defs>
     <path d="M 0 1.5 
C 0.397805 1.5 0.77937 1.341951 1.06066 1.06066 
C 1.341951 0.77937 1.5 0.397805 1.5 0 
C 1.5 -0.397805 1.341951 -0.77937 1.06066 -1.06066 
C 0.77937 -1.341951 0.397805 -1.5 0 -1.5 
C -0.397805 -1.5 -0.77937 -1.341951 -1.06066 -1.06066 
C -1.341951 -0.77937 -1.5 -0.397805 -1.5 0 
C -1.5 0.397805 -1.341951 0.77937 -1.06066 1.06066 
C -0.77937 1.341951 -0.397805 1.5 0 1.5 
z
" id="m80729b0e11" style="stroke:#f5deb3;"/>
    </defs>
    <g>
     <use style="fill:#f5deb3;stroke:#f5deb3;" x="143.157379" xlink:href="#m80729b0e11" y="30.334099"/>
     <use style="fill:#f5deb3;stroke:#f5deb3;" x="143.157379" xlink:href="#m80729b0e11" y="30.334099"/>
    </g>
   </g>
   <g id="line2d_34">
    <defs>
     <path d="M 0 1.5 
C 0.397805 1.5 0.77937 1.341951 1.06066 1.06066 
C 1.341951 0.77937 1.5 0.397805 1.5 0 
C 1.5 -0.397805 1.341951 -0.77937 1.06066 -1.06066 
C 0.77937 -1.341951 0.397805 -1.5 0 -1.5 
C -0.397805 -1.5 -0.77937 -1.341951 -1.06066 -1.06066 
C -1.341951 -0.77937 -1.5 -0.397805 -1.5 0 
C -1.5 0.397805 -1.341951 0.77937 -1.06066 1.06066 
C -0.77937 1.341951 -0.397805 1.5 0 1.5 
z
" id="m951c984e00" style="stroke:#000080;"/>
    </defs>
    <g>
     <use style="fill:#000080;stroke:#000080;" x="253.307894" xlink:href="#m951c984e00" y="30.334099"/>
     <use style="fill:#000080;stroke:#000080;" x="253.307894" xlink:href="#m951c984e00" y="30.334099"/>
    </g>
   </g>
   <g id="line2d_35">
    <path d="M 110.941652 298.944 
L 110.941652 298.417314 
L 112.431755 298.417314 
L 112.431755 297.890628 
L 114.485807 297.890628 
L 114.485807 297.363942 
L 115.269727 297.363942 
L 115.33349 296.31057 
L 115.397021 296.31057 
L 115.397021 295.783884 
L 116.562116 295.783884 
L 116.562116 295.257197 
L 116.856209 295.257197 
L 116.856209 294.730511 
L 117.875678 294.730511 
L 117.875678 293.677139 
L 118.838828 293.677139 
L 118.838828 293.150453 
L 119.199476 293.150453 
L 119.301163 292.097081 
L 119.552816 292.097081 
L 119.552816 291.570395 
L 120.093994 291.570395 
L 120.093994 291.043709 
L 120.524615 291.043709 
L 120.524615 290.517023 
L 120.898662 290.517023 
L 120.990934 288.936964 
L 121.712041 288.936964 
L 121.712041 288.410278 
L 121.84399 288.410278 
L 121.84399 287.883592 
L 122.489167 287.883592 
L 122.531342 286.83022 
L 122.865118 286.83022 
L 122.865118 286.303534 
L 123.553867 286.303534 
L 123.553867 285.776848 
L 123.751369 285.776848 
L 123.751369 285.250162 
L 123.94666 285.250162 
L 124.024168 284.19679 
L 124.178158 284.19679 
L 124.178158 283.670104 
L 124.854767 283.670104 
L 124.854767 283.143418 
L 125.001625 283.143418 
L 125.110962 282.090045 
L 126.573795 282.090045 
L 126.573795 281.563359 
L 126.97016 281.563359 
L 127.035353 280.509987 
L 127.100304 280.509987 
L 127.100304 279.983301 
L 127.705564 279.983301 
L 127.705564 279.456615 
L 127.830353 279.456615 
L 127.830353 278.929929 
L 128.015879 278.929929 
L 128.015879 278.403243 
L 129.118302 278.403243 
L 129.118302 277.876557 
L 130.952826 277.876557 
L 131.030622 276.823185 
L 131.765283 276.823185 
L 131.765283 276.296499 
L 132.109167 276.296499 
L 132.109167 275.769812 
L 132.446401 275.769812 
L 132.446401 275.243126 
L 132.730358 275.243126 
L 132.730358 274.71644 
L 134.106373 274.71644 
L 134.106373 274.189754 
L 134.766144 274.189754 
L 134.766144 273.663068 
L 136.380754 273.663068 
L 136.380754 273.136382 
L 137.289545 273.136382 
L 137.289545 272.609696 
L 139.9494 272.609696 
L 139.9494 272.08301 
L 140.544239 272.08301 
L 140.544239 271.556324 
L 141.20629 271.556324 
L 141.20629 271.029638 
L 142.147664 271.029638 
L 142.147664 270.502952 
L 142.311031 270.502952 
L 142.311031 269.976266 
L 142.792145 269.976266 
L 142.792145 269.449579 
L 143.234658 269.449579 
L 143.234658 268.922893 
L 143.741281 268.922893 
L 143.741281 268.396207 
L 143.964547 268.396207 
L 143.964547 267.869521 
L 144.736002 267.869521 
L 144.736002 267.342835 
L 145.932112 267.342835 
L 145.932112 266.816149 
L 146.313254 266.816149 
L 146.313254 266.289463 
L 147.56019 266.289463 
L 147.56019 265.762777 
L 148.938326 265.762777 
L 148.938326 265.236091 
L 150.224095 265.236091 
L 150.224095 264.709405 
L 150.463462 264.709405 
L 150.463462 264.182719 
L 150.699587 264.182719 
L 150.699587 263.656033 
L 151.170613 263.656033 
L 151.170613 263.129347 
L 151.920633 263.129347 
L 151.920633 262.60266 
L 152.253262 262.60266 
L 152.253262 262.075974 
L 152.496747 262.075974 
L 152.496747 261.549288 
L 152.759222 261.549288 
L 152.759222 261.022602 
L 154.119001 261.022602 
L 154.119001 260.495916 
L 154.527275 260.495916 
L 154.533999 259.442544 
L 154.827327 259.442544 
L 154.827327 258.915858 
L 155.063706 258.915858 
L 155.063706 258.389172 
L 155.577798 258.389172 
L 155.577798 257.862486 
L 156.08947 257.862486 
L 156.181465 256.809114 
L 156.436501 256.809114 
L 156.436501 256.282427 
L 156.735331 256.282427 
L 156.735331 255.755741 
L 157.579705 255.755741 
L 157.686643 253.122311 
L 158.492562 253.122311 
L 158.562073 252.068939 
L 158.636623 252.068939 
L 158.657864 250.488881 
L 158.947342 250.488881 
L 158.962994 249.435508 
L 159.123917 249.435508 
L 159.123917 248.908822 
L 159.415988 248.908822 
L 159.415988 248.382136 
L 159.946463 248.382136 
L 159.946463 247.85545 
L 160.166875 247.85545 
L 160.166875 247.328764 
L 160.355672 247.328764 
L 160.355672 246.802078 
L 160.532916 246.802078 
L 160.532916 246.275392 
L 160.825941 246.275392 
L 160.882091 244.695334 
L 161.132553 244.695334 
L 161.132553 244.168648 
L 161.47907 244.168648 
L 161.47907 243.641962 
L 161.703344 243.641962 
L 161.787817 242.061903 
L 161.818836 242.061903 
L 161.858637 241.008531 
L 162.086834 241.008531 
L 162.086834 240.481845 
L 162.238764 240.481845 
L 162.238764 239.955159 
L 162.402232 239.955159 
L 162.402232 239.428473 
L 162.678343 239.428473 
L 162.749842 237.848415 
L 162.816868 237.848415 
L 162.816868 237.321729 
L 162.995734 237.321729 
L 162.995734 236.268356 
L 163.135875 236.268356 
L 163.135875 235.74167 
L 163.250446 235.74167 
L 163.250446 235.214984 
L 163.424942 235.214984 
L 163.497471 233.634926 
L 163.545657 233.634926 
L 163.625673 232.581554 
L 163.764822 232.581554 
L 163.792519 231.528182 
L 163.89108 231.528182 
L 163.89108 231.001496 
L 164.086545 231.001496 
L 164.195057 228.368065 
L 164.206643 228.368065 
L 164.260611 226.788007 
L 164.440577 226.788007 
L 164.53934 225.207949 
L 164.686444 225.207949 
L 164.791297 222.574518 
L 164.843488 222.574518 
L 164.940002 221.521146 
L 165.006508 221.521146 
L 165.032303 219.414402 
L 165.24094 219.414402 
L 165.299059 213.620855 
L 165.407513 213.620855 
L 165.508131 212.040797 
L 165.55465 212.040797 
L 165.63665 209.407366 
L 165.672183 209.407366 
L 165.753633 208.353994 
L 165.785402 208.353994 
L 165.890882 206.773936 
L 171.955406 206.773936 
L 172.02459 205.720564 
L 174.68819 205.720564 
L 174.68819 205.193878 
L 174.940359 205.193878 
L 174.940359 204.667192 
L 175.289425 204.667192 
L 175.289425 204.140506 
L 175.452258 204.140506 
L 175.454284 203.087133 
L 175.659691 203.087133 
L 175.659691 202.033761 
L 175.791324 202.033761 
L 175.791324 201.507075 
L 176.039897 201.507075 
L 176.09661 200.453703 
L 176.232749 200.453703 
L 176.310068 198.346959 
L 176.457949 198.346959 
L 176.457949 197.820273 
L 176.595102 197.820273 
L 176.644365 195.713528 
L 176.736832 195.713528 
L 176.843781 194.13347 
L 176.853131 194.13347 
L 176.957514 192.553412 
L 176.990933 192.553412 
L 177.01503 191.50004 
L 177.127655 191.50004 
L 177.184613 189.393295 
L 177.296151 189.393295 
L 177.403359 188.339923 
L 177.428701 188.339923 
L 177.428701 187.813237 
L 177.581781 187.813237 
L 177.683687 185.706493 
L 177.697942 185.706493 
L 177.697942 185.179807 
L 177.838089 185.179807 
L 177.896299 183.599748 
L 177.989384 183.599748 
L 178.027877 180.966318 
L 182.127131 180.966318 
L 182.127131 180.439632 
L 182.73805 180.439632 
L 182.73805 179.912946 
L 183.427315 179.912946 
L 183.514301 178.859574 
L 183.555086 178.859574 
L 183.579257 177.279515 
L 183.857968 177.279515 
L 183.942837 175.699457 
L 184.079257 175.699457 
L 184.101478 174.119399 
L 184.212165 174.119399 
L 184.250129 173.066027 
L 184.345286 173.066027 
L 184.345286 172.539341 
L 184.538869 172.539341 
L 184.615705 170.959282 
L 184.657582 170.959282 
L 184.731518 169.379224 
L 184.795659 169.379224 
L 184.880815 163.585677 
L 184.973775 163.585677 
L 185.054564 161.478933 
L 185.089573 161.478933 
L 185.089573 160.952247 
L 188.802221 160.952247 
L 188.802221 160.425561 
L 188.973807 160.425561 
L 189.035278 158.845503 
L 189.152035 158.845503 
L 189.243227 156.212072 
L 189.299179 156.212072 
L 189.299179 155.685386 
L 189.439643 155.685386 
L 189.4841 153.051956 
L 189.618592 153.051956 
L 189.698435 151.471897 
L 189.755625 151.471897 
L 189.841059 149.891839 
L 189.960498 149.891839 
L 190.022987 148.838467 
L 190.072116 148.838467 
L 190.117613 147.258409 
L 192.904227 147.258409 
L 192.904227 146.731723 
L 193.075423 146.731723 
L 193.149016 145.678351 
L 193.450429 145.678351 
L 193.560515 143.04492 
L 193.677037 143.04492 
L 193.772249 140.938176 
L 193.87258 140.938176 
L 193.878216 139.884804 
L 196.323432 139.884804 
L 196.414406 138.831432 
L 196.435099 138.831432 
L 196.539406 137.778059 
L 196.551495 137.778059 
L 196.647901 135.671315 
L 196.681518 135.671315 
L 196.769455 134.617943 
L 197.07584 134.617943 
L 197.176396 131.984513 
L 199.267457 131.984513 
L 199.267457 131.457826 
L 199.383412 131.457826 
L 199.403946 129.877768 
L 199.502682 129.877768 
L 199.594267 127.771024 
L 199.625196 127.771024 
L 199.718661 124.610907 
L 199.751381 124.610907 
L 199.780024 123.557535 
L 199.877659 123.557535 
L 199.877659 123.030849 
L 201.541706 123.030849 
L 201.628629 121.977477 
L 201.70703 121.977477 
L 201.774784 120.924105 
L 201.859218 120.924105 
L 201.859218 120.397419 
L 202.041872 120.397419 
L 202.124587 118.290674 
L 202.195113 118.290674 
L 202.195113 117.763988 
L 203.747939 117.763988 
L 203.768323 116.710616 
L 203.952296 116.710616 
L 204.012666 115.130558 
L 204.065368 115.130558 
L 204.065368 114.603872 
L 204.184734 114.603872 
L 204.187854 113.023814 
L 205.763601 113.023814 
L 205.847478 110.390383 
L 205.921777 110.390383 
L 206.029828 108.283639 
L 207.447428 108.283639 
L 207.532618 106.176895 
L 207.600727 106.176895 
L 207.698251 103.543464 
L 207.744424 103.543464 
L 207.744424 102.490092 
L 208.946423 102.490092 
L 209.025794 101.43672 
L 209.069176 101.43672 
L 209.179359 100.383348 
L 209.220901 100.383348 
L 209.220901 99.856662 
L 210.279474 99.856662 
L 210.382291 98.276603 
L 210.416975 98.276603 
L 210.502434 97.223231 
L 210.546632 97.223231 
L 210.546632 96.696545 
L 211.736218 96.696545 
L 211.807153 94.063115 
L 211.881815 94.063115 
L 211.881815 93.536429 
L 213.021018 93.536429 
L 213.087392 90.902998 
L 214.046972 90.902998 
L 214.138679 89.32294 
L 215.147867 89.32294 
L 215.236047 86.68951 
L 215.341894 86.68951 
L 215.341894 86.162824 
L 216.170431 86.162824 
L 216.280716 83.002707 
L 216.311098 83.002707 
L 216.311098 82.476021 
L 217.109225 82.476021 
L 217.174903 79.842591 
L 217.233507 79.842591 
L 217.291915 78.789218 
L 218.075309 78.789218 
L 218.098859 76.682474 
L 218.872126 76.682474 
L 218.918435 74.049044 
L 219.02568 74.049044 
L 219.02568 73.522358 
L 219.668664 73.522358 
L 219.735148 71.942299 
L 219.818892 71.942299 
L 219.818892 71.415613 
L 220.479196 71.415613 
L 220.547702 70.362241 
L 221.262075 70.362241 
L 221.297344 69.308869 
L 222.028847 69.308869 
L 222.04272 68.255497 
L 222.638547 68.255497 
L 222.736822 65.622066 
L 223.257594 65.622066 
L 223.317982 64.042008 
L 223.42015 64.042008 
L 223.42015 63.515322 
L 224.007515 63.515322 
L 224.007515 62.988636 
L 224.54191 62.988636 
L 224.609507 61.935264 
L 225.165663 61.935264 
L 225.165663 61.408578 
L 225.74546 61.408578 
L 225.807428 58.775147 
L 226.259586 58.775147 
L 226.331591 57.721775 
L 226.810431 57.721775 
L 226.882537 55.615031 
L 227.359286 55.615031 
L 227.401781 54.561659 
L 227.836214 54.561659 
L 227.910814 52.9816 
L 228.367925 52.9816 
L 228.391399 51.401542 
L 228.777505 51.401542 
L 228.881821 49.821484 
L 229.29573 49.821484 
L 229.311619 48.768112 
L 229.790827 48.768112 
L 229.790827 48.241426 
L 230.212294 48.241426 
L 230.241819 46.661368 
L 230.657183 46.661368 
L 230.657183 46.134681 
L 231.053863 46.134681 
L 231.066141 44.554623 
L 231.497524 44.554623 
L 231.497524 44.027937 
L 231.89932 44.027937 
L 231.89932 43.501251 
L 232.299537 43.501251 
L 232.299537 42.974565 
L 232.655444 42.974565 
L 232.657806 41.921193 
L 233.051983 41.921193 
L 233.051983 41.394507 
L 233.402283 41.394507 
L 233.402283 40.867821 
L 233.768511 40.867821 
L 233.768511 40.341135 
L 234.089406 40.341135 
L 234.131129 39.287762 
L 234.462599 39.287762 
L 234.462599 38.761076 
L 234.826493 38.761076 
L 234.826493 38.23439 
L 235.787933 38.23439 
L 235.796466 37.181018 
L 236.111266 37.181018 
L 236.113079 36.127646 
L 236.407459 36.127646 
L 236.407459 35.60096 
L 236.998302 35.60096 
L 236.998302 35.074274 
L 237.593113 35.074274 
L 237.593113 34.547588 
L 239.783056 34.547588 
L 239.783056 34.020902 
L 240.738842 34.020902 
L 240.738842 33.494215 
L 241.428622 33.494215 
L 241.428622 32.967529 
L 242.334972 32.967529 
L 242.334972 32.440843 
L 242.773228 32.440843 
L 242.773228 31.914157 
L 246.396008 31.914157 
L 246.396008 31.387471 
L 246.750544 31.387471 
L 246.750544 30.860785 
L 253.307894 30.860785 
L 253.307894 30.334099 
L 338.688 30.334099 
L 338.688 30.334099 
" style="fill:none;stroke:#000080;stroke-linecap:square;stroke-width:1.5;"/>
   </g>
   <g id="line2d_36">
    <defs>
     <path d="M 0 6 
C 1.591219 6 3.117479 5.367802 4.242641 4.242641 
C 5.367802 3.117479 6 1.591219 6 0 
C 6 -1.591219 5.367802 -3.117479 4.242641 -4.242641 
C 3.117479 -5.367802 1.591219 -6 0 -6 
C -1.591219 -6 -3.117479 -5.367802 -4.242641 -4.242641 
C -5.367802 -3.117479 -6 -1.591219 -6 0 
C -6 1.591219 -5.367802 3.117479 -4.242641 4.242641 
C -3.117479 5.367802 -1.591219 6 0 6 
z
" id="mcbc356e17d" style="stroke:#000080;stroke-width:1.5;"/>
    </defs>
    <g>
     <use style="fill-opacity:0;stroke:#000080;stroke-width:1.5;" x="165.407513" xlink:href="#mcbc356e17d" y="213.620855"/>
     <use style="fill-opacity:0;stroke:#000080;stroke-width:1.5;" x="220.547702" xlink:href="#mcbc356e17d" y="70.362241"/>
     <use style="fill-opacity:0;stroke:#000080;stroke-width:1.5;" x="253.307894" xlink:href="#mcbc356e17d" y="30.860785"/>
     <use style="fill-opacity:0;stroke:#000080;stroke-width:1.5;" x="253.307894" xlink:href="#mcbc356e17d" y="30.334099"/>
     <use style="fill-opacity:0;stroke:#000080;stroke-width:1.5;" x="338.688" xlink:href="#mcbc356e17d" y="30.334099"/>
    </g>
   </g>
   <g id="line2d_37">
    <path style="fill:none;stroke:#000080;stroke-linecap:square;stroke-width:1.5;"/>
    <g/>
   </g>
   <g id="line2d_38">
    <path clip-path="url(#p91bbdda6a8)" d="M 165.943384 206.773936 
" style="fill:none;stroke:#000080;stroke-linecap:square;stroke-width:1.5;"/>
    <defs>
     <path d="M -12 12 
L 12 -12 
M -12 -12 
L 12 12 
" id="ma6d8e14c55" style="stroke:#000080;"/>
    </defs>
    <g clip-path="url(#p91bbdda6a8)">
     <use style="fill:#000080;stroke:#000080;" x="165.943384" xlink:href="#ma6d8e14c55" y="206.773936"/>
    </g>
   </g>
   <g id="line2d_39">
    <defs>
     <path d="M 0 1.5 
C 0.397805 1.5 0.77937 1.341951 1.06066 1.06066 
C 1.341951 0.77937 1.5 0.397805 1.5 0 
C 1.5 -0.397805 1.341951 -0.77937 1.06066 -1.06066 
C 0.77937 -1.341951 0.397805 -1.5 0 -1.5 
C -0.397805 -1.5 -0.77937 -1.341951 -1.06066 -1.06066 
C -1.341951 -0.77937 -1.5 -0.397805 -1.5 0 
C -1.5 0.397805 -1.341951 0.77937 -1.06066 1.06066 
C -0.77937 1.341951 -0.397805 1.5 0 1.5 
z
" id="me5be0f5e45" style="stroke:#ff00ff;"/>
    </defs>
    <g>
     <use style="fill:#ff00ff;stroke:#ff00ff;" x="235.459531" xlink:href="#me5be0f5e45" y="246.275392"/>
     <use style="fill:#ff00ff;stroke:#ff00ff;" x="235.459531" xlink:href="#me5be0f5e45" y="246.275392"/>
    </g>
   </g>
   <g id="line2d_40">
    <path d="M 137.39764 298.944 
L 137.39764 298.417314 
L 137.594091 298.417314 
L 137.594091 297.890628 
L 138.067109 297.890628 
L 138.101642 296.837256 
L 138.392446 296.837256 
L 138.426341 295.783884 
L 138.54446 295.783884 
L 138.54446 295.257197 
L 139.301378 295.257197 
L 139.301378 294.730511 
L 139.840453 294.730511 
L 139.840453 294.203825 
L 140.438956 294.203825 
L 140.438956 293.677139 
L 140.782525 293.677139 
L 140.782525 293.150453 
L 142.120287 293.150453 
L 142.120287 292.623767 
L 142.432559 292.623767 
L 142.526499 291.570395 
L 142.949611 291.570395 
L 142.949611 291.043709 
L 143.653678 291.043709 
L 143.653678 289.990337 
L 143.927534 289.990337 
L 143.927534 289.463651 
L 144.111818 289.463651 
L 144.209312 288.410278 
L 144.783103 288.410278 
L 144.853518 287.356906 
L 144.946964 287.356906 
L 145.051495 285.250162 
L 146.09648 285.250162 
L 146.09648 284.19679 
L 146.947864 284.19679 
L 146.947864 283.143418 
L 147.061745 283.143418 
L 147.061745 282.616732 
L 147.368603 282.616732 
L 147.368603 282.090045 
L 148.695721 282.090045 
L 148.695721 281.563359 
L 148.87334 281.563359 
L 148.975352 280.509987 
L 149.646525 280.509987 
L 149.646525 279.983301 
L 149.981398 279.983301 
L 150.016276 278.929929 
L 150.249899 278.929929 
L 150.249899 278.403243 
L 150.429467 278.403243 
L 150.429467 277.876557 
L 151.227591 277.876557 
L 151.227591 277.349871 
L 151.747966 277.349871 
L 151.747966 276.823185 
L 152.060646 276.823185 
L 152.060646 276.296499 
L 152.572143 276.296499 
L 152.677155 275.243126 
L 153.15659 275.243126 
L 153.15659 274.71644 
L 153.897283 274.71644 
L 153.897283 274.189754 
L 154.208275 274.189754 
L 154.290278 273.136382 
L 156.871092 273.136382 
L 156.871092 272.609696 
L 157.652944 272.609696 
L 157.652944 272.08301 
L 158.363501 272.08301 
L 158.390468 271.029638 
L 158.481843 271.029638 
L 158.481843 270.502952 
L 158.879352 270.502952 
L 158.879352 269.976266 
L 160.259108 269.976266 
L 160.259108 269.449579 
L 160.755498 269.449579 
L 160.755498 268.922893 
L 161.438393 268.922893 
L 161.438393 268.396207 
L 162.19549 268.396207 
L 162.19549 267.869521 
L 162.393666 267.869521 
L 162.393666 267.342835 
L 164.187328 267.342835 
L 164.187328 266.816149 
L 164.648843 266.816149 
L 164.648843 266.289463 
L 171.204153 266.289463 
L 171.204153 265.762777 
L 172.782205 265.762777 
L 172.782205 265.236091 
L 173.051642 265.236091 
L 173.051642 264.709405 
L 174.875564 264.709405 
L 174.875564 264.182719 
L 175.649678 264.182719 
L 175.649678 263.656033 
L 177.193782 263.656033 
L 177.193782 263.129347 
L 181.45674 263.129347 
L 181.549819 262.075974 
L 182.03848 262.075974 
L 182.03848 261.549288 
L 183.563995 261.549288 
L 183.563995 261.022602 
L 184.532852 261.022602 
L 184.532852 260.495916 
L 188.631784 260.495916 
L 188.631784 259.96923 
L 189.282687 259.96923 
L 189.282687 258.915858 
L 196.22521 258.915858 
L 196.22521 258.389172 
L 196.649103 258.389172 
L 196.649103 257.862486 
L 199.420868 257.862486 
L 199.420868 257.3358 
L 202.028195 257.3358 
L 202.081519 256.282427 
L 207.257487 256.282427 
L 207.257487 255.755741 
L 207.380664 255.755741 
L 207.380664 255.229055 
L 210.445599 255.229055 
L 210.445599 254.175683 
L 211.382313 254.175683 
L 211.382313 253.648997 
L 211.579955 253.648997 
L 211.579955 253.122311 
L 214.116404 253.122311 
L 214.116404 252.595625 
L 215.119972 252.595625 
L 215.186306 251.542253 
L 218.792645 251.542253 
L 218.792645 251.015567 
L 219.728591 251.015567 
L 219.728591 250.488881 
L 221.156575 250.488881 
L 221.156575 249.962195 
L 223.237985 249.962195 
L 223.237985 249.435508 
L 227.342238 249.435508 
L 227.342238 248.908822 
L 227.81359 248.908822 
L 227.81359 248.382136 
L 229.752067 248.382136 
L 229.752067 247.85545 
L 234.110666 247.85545 
L 234.110666 247.328764 
L 235.131969 247.328764 
L 235.131969 246.802078 
L 235.459531 246.802078 
L 235.459531 246.275392 
L 338.688 246.275392 
L 338.688 246.275392 
" style="fill:none;stroke:#ff00ff;stroke-linecap:square;stroke-width:1.5;"/>
   </g>
   <g id="line2d_41">
    <defs>
     <path d="M -0 8.485281 
L 5.091169 0 
L 0 -8.485281 
L -5.091169 -0 
z
" id="me38a87a984" style="stroke:#ff00ff;stroke-linejoin:miter;stroke-width:1.5;"/>
    </defs>
    <g>
     <use style="fill-opacity:0;stroke:#ff00ff;stroke-linejoin:miter;stroke-width:1.5;" x="171.204153" xlink:href="#me38a87a984" y="265.762777"/>
     <use style="fill-opacity:0;stroke:#ff00ff;stroke-linejoin:miter;stroke-width:1.5;" x="221.156575" xlink:href="#me38a87a984" y="249.962195"/>
     <use style="fill-opacity:0;stroke:#ff00ff;stroke-linejoin:miter;stroke-width:1.5;" x="235.459531" xlink:href="#me38a87a984" y="246.275392"/>
     <use style="fill-opacity:0;stroke:#ff00ff;stroke-linejoin:miter;stroke-width:1.5;" x="235.459531" xlink:href="#me38a87a984" y="246.275392"/>
     <use style="fill-opacity:0;stroke:#ff00ff;stroke-linejoin:miter;stroke-width:1.5;" x="338.688" xlink:href="#me38a87a984" y="246.275392"/>
    </g>
   </g>
   <g id="line2d_42">
    <path style="fill:none;stroke:#ff00ff;stroke-linecap:square;stroke-width:1.5;"/>
    <g/>
   </g>
   <g id="line2d_43">
    <path clip-path="url(#p91bbdda6a8)" d="M 165.978297 266.289463 
" style="fill:none;stroke:#ff00ff;stroke-linecap:square;stroke-width:1.5;"/>
    <defs>
     <path d="M -12 12 
L 12 -12 
M -12 -12 
L 12 12 
" id="ma4b53295a3" style="stroke:#ff00ff;"/>
    </defs>
    <g clip-path="url(#p91bbdda6a8)">
     <use style="fill:#ff00ff;stroke:#ff00ff;" x="165.978297" xlink:href="#ma4b53295a3" y="266.289463"/>
    </g>
   </g>
   <g id="line2d_44">
    <defs>
     <path d="M 0 1.5 
C 0.397805 1.5 0.77937 1.341951 1.06066 1.06066 
C 1.341951 0.77937 1.5 0.397805 1.5 0 
C 1.5 -0.397805 1.341951 -0.77937 1.06066 -1.06066 
C 0.77937 -1.341951 0.397805 -1.5 0 -1.5 
C -0.397805 -1.5 -0.77937 -1.341951 -1.06066 -1.06066 
C -1.341951 -0.77937 -1.5 -0.397805 -1.5 0 
C -1.5 0.397805 -1.341951 0.77937 -1.06066 1.06066 
C -0.77937 1.341951 -0.397805 1.5 0 1.5 
z
" id="mc2ad52a0ea" style="stroke:#ff7500;"/>
    </defs>
    <g>
     <use style="fill:#ff7500;stroke:#ff7500;" x="222.050003" xlink:href="#mc2ad52a0ea" y="256.809114"/>
     <use style="fill:#ff7500;stroke:#ff7500;" x="222.050003" xlink:href="#mc2ad52a0ea" y="256.809114"/>
    </g>
   </g>
   <g id="line2d_45">
    <path d="M 131.515432 298.944 
L 131.515432 298.417314 
L 133.488207 298.417314 
L 133.488207 297.890628 
L 134.428735 297.890628 
L 134.428735 297.363942 
L 135.178927 297.363942 
L 135.178927 296.837256 
L 135.46217 296.837256 
L 135.46217 296.31057 
L 135.898175 296.31057 
L 135.898175 295.783884 
L 136.96118 295.783884 
L 136.96118 295.257197 
L 137.928288 295.257197 
L 137.980475 294.203825 
L 138.049816 294.203825 
L 138.049816 293.677139 
L 138.256201 293.677139 
L 138.256201 293.150453 
L 138.745106 293.150453 
L 138.745106 292.623767 
L 140.693549 292.623767 
L 140.693549 292.097081 
L 142.215919 292.097081 
L 142.215919 291.570395 
L 142.818488 291.570395 
L 142.818488 291.043709 
L 143.51512 291.043709 
L 143.51512 290.517023 
L 144.001481 290.517023 
L 144.026061 289.463651 
L 144.794859 289.463651 
L 144.794859 288.936964 
L 145.063071 288.936964 
L 145.166911 287.883592 
L 146.259313 287.883592 
L 146.259313 287.356906 
L 146.843687 287.356906 
L 146.843687 286.83022 
L 147.378739 286.83022 
L 147.439433 285.776848 
L 147.640233 285.776848 
L 147.700024 284.723476 
L 147.779429 284.723476 
L 147.779429 284.19679 
L 148.190475 284.19679 
L 148.190475 283.670104 
L 148.45922 283.670104 
L 148.478259 282.616732 
L 148.733265 282.616732 
L 148.733265 282.090045 
L 150.129152 282.090045 
L 150.129152 281.563359 
L 150.361278 281.563359 
L 150.361278 281.036673 
L 151.732184 281.036673 
L 151.732184 280.509987 
L 151.873711 280.509987 
L 151.873711 279.983301 
L 152.322086 279.983301 
L 152.322086 279.456615 
L 152.877907 279.456615 
L 152.922207 278.403243 
L 153.523746 278.403243 
L 153.616112 276.823185 
L 155.04413 276.823185 
L 155.04413 276.296499 
L 155.245367 276.296499 
L 155.303359 274.71644 
L 155.879132 274.71644 
L 155.879132 274.189754 
L 156.150854 274.189754 
L 156.248622 273.136382 
L 156.279062 273.136382 
L 156.327657 272.08301 
L 156.794487 272.08301 
L 156.794487 271.556324 
L 159.486982 271.556324 
L 159.492042 270.502952 
L 160.475629 270.502952 
L 160.585265 269.449579 
L 161.040208 269.449579 
L 161.040208 268.922893 
L 162.987455 268.922893 
L 162.987455 268.396207 
L 163.613694 268.396207 
L 163.625673 267.342835 
L 164.171861 267.342835 
L 164.229793 266.289463 
L 164.325919 266.289463 
L 164.325919 265.762777 
L 165.454301 265.762777 
L 165.454301 265.236091 
L 175.122993 265.236091 
L 175.122993 264.709405 
L 177.186447 264.709405 
L 177.186447 264.182719 
L 184.555706 264.182719 
L 184.555706 263.656033 
L 189.755625 263.656033 
L 189.755625 263.129347 
L 192.927299 263.129347 
L 192.927299 262.60266 
L 193.69911 262.60266 
L 193.69911 261.549288 
L 205.961273 261.549288 
L 205.975358 260.495916 
L 207.651955 260.495916 
L 207.651955 258.915858 
L 210.587476 258.915858 
L 210.587476 258.389172 
L 211.888587 258.389172 
L 211.888587 257.862486 
L 216.296498 257.862486 
L 216.296498 257.3358 
L 222.050003 257.3358 
L 222.050003 256.809114 
L 338.688 256.809114 
L 338.688 256.809114 
" style="fill:none;stroke:#ff7500;stroke-linecap:square;stroke-width:1.5;"/>
   </g>
   <g id="line2d_46">
    <defs>
     <path d="M 0 -6 
L -1.347084 -1.854102 
L -5.706339 -1.854102 
L -2.179628 0.708204 
L -3.526712 4.854102 
L -0 2.291796 
L 3.526712 4.854102 
L 2.179628 0.708204 
L 5.706339 -1.854102 
L 1.347084 -1.854102 
z
" id="m917021f3ba" style="stroke:#ff7500;stroke-linejoin:bevel;stroke-width:1.5;"/>
    </defs>
    <g>
     <use style="fill-opacity:0;stroke:#ff7500;stroke-linejoin:bevel;stroke-width:1.5;" x="192.927299" xlink:href="#m917021f3ba" y="263.129347"/>
     <use style="fill-opacity:0;stroke:#ff7500;stroke-linejoin:bevel;stroke-width:1.5;" x="222.050003" xlink:href="#m917021f3ba" y="257.3358"/>
     <use style="fill-opacity:0;stroke:#ff7500;stroke-linejoin:bevel;stroke-width:1.5;" x="222.050003" xlink:href="#m917021f3ba" y="256.809114"/>
     <use style="fill-opacity:0;stroke:#ff7500;stroke-linejoin:bevel;stroke-width:1.5;" x="222.050003" xlink:href="#m917021f3ba" y="256.809114"/>
     <use style="fill-opacity:0;stroke:#ff7500;stroke-linejoin:bevel;stroke-width:1.5;" x="338.688" xlink:href="#m917021f3ba" y="256.809114"/>
    </g>
   </g>
   <g id="line2d_47">
    <path style="fill:none;stroke:#ff7500;stroke-linecap:square;stroke-width:1.5;"/>
    <g/>
   </g>
   <g id="line2d_48">
    <path clip-path="url(#p91bbdda6a8)" d="M 165.978297 265.236091 
" style="fill:none;stroke:#ff7500;stroke-linecap:square;stroke-width:1.5;"/>
    <defs>
     <path d="M -12 12 
L 12 -12 
M -12 -12 
L 12 12 
" id="m5a8ffcfc40" style="stroke:#ff7500;"/>
    </defs>
    <g clip-path="url(#p91bbdda6a8)">
     <use style="fill:#ff7500;stroke:#ff7500;" x="165.978297" xlink:href="#m5a8ffcfc40" y="265.236091"/>
    </g>
   </g>
   <g id="line2d_49">
    <defs>
     <path d="M 0 1.5 
C 0.397805 1.5 0.77937 1.341951 1.06066 1.06066 
C 1.341951 0.77937 1.5 0.397805 1.5 0 
C 1.5 -0.397805 1.341951 -0.77937 1.06066 -1.06066 
C 0.77937 -1.341951 0.397805 -1.5 0 -1.5 
C -0.397805 -1.5 -0.77937 -1.341951 -1.06066 -1.06066 
C -1.341951 -0.77937 -1.5 -0.397805 -1.5 0 
C -1.5 0.397805 -1.341951 0.77937 -1.06066 1.06066 
C -0.77937 1.341951 -0.397805 1.5 0 1.5 
z
" id="mdfc1a5282d" style="stroke:#6495ed;"/>
    </defs>
    <g>
     <use style="fill:#6495ed;stroke:#6495ed;" x="231.047929" xlink:href="#mdfc1a5282d" y="219.941088"/>
     <use style="fill:#6495ed;stroke:#6495ed;" x="231.047929" xlink:href="#mdfc1a5282d" y="219.941088"/>
    </g>
   </g>
   <g id="line2d_50">
    <path d="M 122.699028 298.944 
L 122.699028 298.417314 
L 123.273551 298.417314 
L 123.273551 297.890628 
L 123.672636 297.890628 
L 123.672636 297.363942 
L 123.868806 297.363942 
L 123.868806 296.837256 
L 124.482119 296.837256 
L 124.482119 296.31057 
L 124.92835 296.31057 
L 124.92835 295.783884 
L 126.439646 295.783884 
L 126.439646 295.257197 
L 127.229484 295.257197 
L 127.229484 294.730511 
L 127.861412 294.730511 
L 127.861412 294.203825 
L 127.985095 294.203825 
L 127.985095 293.677139 
L 128.138476 293.677139 
L 128.138476 293.150453 
L 129.031467 293.150453 
L 129.031467 292.623767 
L 129.714332 292.623767 
L 129.714332 292.097081 
L 131.765283 292.097081 
L 131.839545 291.043709 
L 131.962617 291.043709 
L 131.962617 290.517023 
L 132.917126 290.517023 
L 132.917126 289.990337 
L 133.420657 289.990337 
L 133.420657 289.463651 
L 133.975741 289.463651 
L 133.975741 288.936964 
L 134.257551 288.936964 
L 134.321942 287.883592 
L 134.953107 287.883592 
L 134.973757 286.303534 
L 135.956794 286.303534 
L 135.956794 285.776848 
L 137.594091 285.776848 
L 137.594091 285.250162 
L 138.578062 285.250162 
L 138.578062 284.723476 
L 138.828032 284.723476 
L 138.828032 284.19679 
L 139.429726 284.19679 
L 139.429726 283.670104 
L 139.620495 283.670104 
L 139.620495 283.143418 
L 140.11924 283.143418 
L 140.11924 282.616732 
L 140.287441 282.616732 
L 140.287441 282.090045 
L 141.177393 282.090045 
L 141.177393 281.563359 
L 141.46423 281.563359 
L 141.46423 281.036673 
L 142.188649 281.036673 
L 142.188649 280.509987 
L 142.526499 280.509987 
L 142.526499 279.983301 
L 142.712875 279.983301 
L 142.712875 279.456615 
L 144.474645 279.456615 
L 144.474645 278.929929 
L 145.074639 278.929929 
L 145.074639 278.403243 
L 146.516724 278.403243 
L 146.516724 277.876557 
L 147.378739 277.876557 
L 147.378739 277.349871 
L 150.335638 277.349871 
L 150.335638 276.823185 
L 150.816462 276.823185 
L 150.816462 276.296499 
L 151.023238 276.296499 
L 151.105266 275.243126 
L 151.178764 275.243126 
L 151.178764 274.71644 
L 151.581536 274.71644 
L 151.581536 274.189754 
L 152.168773 274.189754 
L 152.168773 273.663068 
L 152.352588 273.663068 
L 152.352588 273.136382 
L 152.617226 273.136382 
L 152.617226 272.609696 
L 152.729424 272.609696 
L 152.788969 271.556324 
L 154.015422 271.556324 
L 154.036187 270.502952 
L 154.767728 270.502952 
L 154.767728 269.976266 
L 155.245367 269.976266 
L 155.245367 269.449579 
L 155.55245 269.449579 
L 155.55245 268.922893 
L 155.885354 268.922893 
L 155.885354 267.869521 
L 156.823991 267.869521 
L 156.859328 266.816149 
L 157.231877 266.816149 
L 157.231877 266.289463 
L 157.781772 266.289463 
L 157.815223 264.709405 
L 159.293606 264.709405 
L 159.293606 264.182719 
L 160.48041 264.182719 
L 160.48041 263.656033 
L 161.228992 263.656033 
L 161.228992 263.129347 
L 168.701418 263.129347 
L 168.701418 262.60266 
L 169.825059 262.60266 
L 169.825059 262.075974 
L 170.753812 262.075974 
L 170.753812 261.549288 
L 170.920115 261.549288 
L 170.920115 261.022602 
L 171.711078 261.022602 
L 171.711078 260.495916 
L 172.145006 260.495916 
L 172.169479 258.915858 
L 172.313173 258.915858 
L 172.313173 257.862486 
L 172.551658 257.862486 
L 172.551658 257.3358 
L 172.742019 257.3358 
L 172.742019 256.809114 
L 172.871698 256.809114 
L 172.871698 256.282427 
L 173.098079 256.282427 
L 173.098079 255.755741 
L 173.740004 255.755741 
L 173.760107 254.175683 
L 174.096169 254.175683 
L 174.096169 253.648997 
L 174.778971 253.648997 
L 174.778971 253.122311 
L 175.85281 253.122311 
L 175.85281 252.068939 
L 181.322696 252.068939 
L 181.420808 250.488881 
L 181.626769 250.488881 
L 181.626769 249.962195 
L 181.774021 249.962195 
L 181.851394 248.382136 
L 182.593369 248.382136 
L 182.593369 247.85545 
L 182.809943 247.85545 
L 182.809943 247.328764 
L 183.49004 247.328764 
L 183.49004 246.802078 
L 183.693297 246.802078 
L 183.693297 246.275392 
L 187.453931 246.275392 
L 187.453931 245.748706 
L 187.694546 245.748706 
L 187.694546 245.22202 
L 187.846497 245.22202 
L 187.846497 244.695334 
L 188.025729 244.695334 
L 188.133761 243.641962 
L 188.276123 243.641962 
L 188.281949 242.588589 
L 188.58796 242.588589 
L 188.58796 242.061903 
L 189.082631 242.061903 
L 189.082631 241.535217 
L 192.025224 241.535217 
L 192.025224 240.481845 
L 192.14932 240.481845 
L 192.224595 239.428473 
L 192.448489 239.428473 
L 192.448489 238.375101 
L 192.559747 238.375101 
L 192.559747 237.848415 
L 192.686898 237.848415 
L 192.686898 237.321729 
L 192.898268 237.321729 
L 192.898268 236.795043 
L 195.721191 236.795043 
L 195.721191 236.268356 
L 196.27439 236.268356 
L 196.27439 235.74167 
L 198.580353 235.74167 
L 198.580353 235.214984 
L 201.328459 235.214984 
L 201.405474 234.161612 
L 201.642623 234.161612 
L 201.642623 233.634926 
L 203.202816 233.634926 
L 203.202816 233.10824 
L 203.488877 233.10824 
L 203.488877 232.581554 
L 205.246916 232.581554 
L 205.246916 232.054868 
L 207.136068 232.054868 
L 207.136068 231.528182 
L 207.361821 231.528182 
L 207.361821 230.47481 
L 208.499654 230.47481 
L 208.548008 228.894751 
L 208.915822 228.894751 
L 208.915822 228.368065 
L 210.342607 228.368065 
L 210.342607 227.841379 
L 211.419445 227.841379 
L 211.485263 226.788007 
L 211.702036 226.788007 
L 211.702036 225.734635 
L 213.781302 225.734635 
L 213.781302 225.207949 
L 215.819323 225.207949 
L 215.819323 224.154577 
L 217.106995 224.154577 
L 217.106995 223.627891 
L 218.731102 223.627891 
L 218.731102 223.101204 
L 218.84657 223.101204 
L 218.84657 222.574518 
L 220.979262 222.574518 
L 220.979262 222.047832 
L 224.369433 222.047832 
L 224.369433 221.521146 
L 224.538146 221.521146 
L 224.538146 220.99446 
L 225.633974 220.99446 
L 225.633974 220.467774 
L 231.047929 220.467774 
L 231.047929 219.941088 
L 338.688 219.941088 
L 338.688 219.941088 
" style="fill:none;stroke:#6495ed;stroke-linecap:square;stroke-width:1.5;"/>
   </g>
   <g id="line2d_51">
    <defs>
     <path d="M -0 6 
L 6 -6 
L -6 -6 
z
" id="m56c4539df3" style="stroke:#6495ed;stroke-linejoin:miter;stroke-width:1.5;"/>
    </defs>
    <g>
     <use style="fill-opacity:0;stroke:#6495ed;stroke-linejoin:miter;stroke-width:1.5;" x="198.580353" xlink:href="#m56c4539df3" y="235.214984"/>
     <use style="fill-opacity:0;stroke:#6495ed;stroke-linejoin:miter;stroke-width:1.5;" x="231.047929" xlink:href="#m56c4539df3" y="220.467774"/>
     <use style="fill-opacity:0;stroke:#6495ed;stroke-linejoin:miter;stroke-width:1.5;" x="231.047929" xlink:href="#m56c4539df3" y="219.941088"/>
     <use style="fill-opacity:0;stroke:#6495ed;stroke-linejoin:miter;stroke-width:1.5;" x="231.047929" xlink:href="#m56c4539df3" y="219.941088"/>
     <use style="fill-opacity:0;stroke:#6495ed;stroke-linejoin:miter;stroke-width:1.5;" x="338.688" xlink:href="#m56c4539df3" y="219.941088"/>
    </g>
   </g>
   <g id="line2d_52">
    <path style="fill:none;stroke:#6495ed;stroke-linecap:square;stroke-width:1.5;"/>
    <g/>
   </g>
   <g id="line2d_53">
    <path clip-path="url(#p91bbdda6a8)" d="M 165.978297 263.129347 
" style="fill:none;stroke:#6495ed;stroke-linecap:square;stroke-width:1.5;"/>
    <defs>
     <path d="M -12 12 
L 12 -12 
M -12 -12 
L 12 12 
" id="m6d7527daae" style="stroke:#6495ed;"/>
    </defs>
    <g clip-path="url(#p91bbdda6a8)">
     <use style="fill:#6495ed;stroke:#6495ed;" x="165.978297" xlink:href="#m6d7527daae" y="263.129347"/>
    </g>
   </g>
   <g id="line2d_54">
    <path d="M 338.688 256.809114 
L 369.60768 293.571802 
" style="fill:none;stroke:#ff7500;stroke-linecap:square;stroke-width:1.5;"/>
    <g>
     <use style="fill-opacity:0;stroke:#ff7500;stroke-linejoin:bevel;stroke-width:1.5;" x="338.688" xlink:href="#m917021f3ba" y="256.809114"/>
     <use style="fill-opacity:0;stroke:#ff7500;stroke-linejoin:bevel;stroke-width:1.5;" x="369.60768" xlink:href="#m917021f3ba" y="293.571802"/>
    </g>
   </g>
   <g id="line2d_55">
    <path d="M 338.688 246.275392 
L 369.60768 229.105426 
" style="fill:none;stroke:#ff00ff;stroke-linecap:square;stroke-width:1.5;"/>
    <g>
     <use style="fill-opacity:0;stroke:#ff00ff;stroke-linejoin:miter;stroke-width:1.5;" x="338.688" xlink:href="#me38a87a984" y="246.275392"/>
     <use style="fill-opacity:0;stroke:#ff00ff;stroke-linejoin:miter;stroke-width:1.5;" x="369.60768" xlink:href="#me38a87a984" y="229.105426"/>
    </g>
   </g>
   <g id="line2d_56">
    <path d="M 338.688 219.941088 
L 369.60768 164.63905 
" style="fill:none;stroke:#6495ed;stroke-linecap:square;stroke-width:1.5;"/>
    <g>
     <use style="fill-opacity:0;stroke:#6495ed;stroke-linejoin:miter;stroke-width:1.5;" x="338.688" xlink:href="#m56c4539df3" y="219.941088"/>
     <use style="fill-opacity:0;stroke:#6495ed;stroke-linejoin:miter;stroke-width:1.5;" x="369.60768" xlink:href="#m56c4539df3" y="164.63905"/>
    </g>
   </g>
   <g id="line2d_57">
    <path d="M 338.688 30.334099 
L 369.60768 100.172673 
" style="fill:none;stroke:#000080;stroke-linecap:square;stroke-width:1.5;"/>
    <g>
     <use style="fill-opacity:0;stroke:#000080;stroke-width:1.5;" x="338.688" xlink:href="#mcbc356e17d" y="30.334099"/>
     <use style="fill-opacity:0;stroke:#000080;stroke-width:1.5;" x="369.60768" xlink:href="#mcbc356e17d" y="100.172673"/>
    </g>
   </g>
   <g id="line2d_58">
    <path d="M 338.688 298.944 
L 338.688 30.334099 
" style="fill:none;stroke:#000000;stroke-linecap:square;stroke-width:1.5;"/>
   </g>
   <g id="patch_3">
    <path d="M 57.6 298.944 
L 57.6 27.648 
" style="fill:none;stroke:#000000;stroke-linecap:square;stroke-linejoin:miter;stroke-width:0.8;"/>
   </g>
   <g id="patch_4">
    <path d="M 338.688 298.944 
L 338.688 27.648 
" style="fill:none;stroke:#000000;stroke-linecap:square;stroke-linejoin:miter;stroke-width:0.8;"/>
   </g>
   <g id="patch_5">
    <path d="M 57.6 298.944 
L 338.688 298.944 
" style="fill:none;stroke:#000000;stroke-linecap:square;stroke-linejoin:miter;stroke-width:0.8;"/>
   </g>
   <g id="patch_6">
    <path d="M 57.6 27.648 
L 338.688 27.648 
" style="fill:none;stroke:#000000;stroke-linecap:square;stroke-linejoin:miter;stroke-width:0.8;"/>
   </g>
   <g id="text_13">
    <!-- DEPSO -->
    <defs>
     <path d="M 19.671875 64.796875 
L 19.671875 8.109375 
L 31.59375 8.109375 
Q 46.6875 8.109375 53.6875 14.9375 
Q 60.6875 21.78125 60.6875 36.53125 
Q 60.6875 51.171875 53.6875 57.984375 
Q 46.6875 64.796875 31.59375 64.796875 
z
M 9.8125 72.90625 
L 30.078125 72.90625 
Q 51.265625 72.90625 61.171875 64.09375 
Q 71.09375 55.28125 71.09375 36.53125 
Q 71.09375 17.671875 61.125 8.828125 
Q 51.171875 0 30.078125 0 
L 9.8125 0 
z
" id="DejaVuSans-68"/>
     <path d="M 9.8125 72.90625 
L 55.90625 72.90625 
L 55.90625 64.59375 
L 19.671875 64.59375 
L 19.671875 43.015625 
L 54.390625 43.015625 
L 54.390625 34.71875 
L 19.671875 34.71875 
L 19.671875 8.296875 
L 56.78125 8.296875 
L 56.78125 0 
L 9.8125 0 
z
" id="DejaVuSans-69"/>
     <path d="M 19.671875 64.796875 
L 19.671875 37.40625 
L 32.078125 37.40625 
Q 38.96875 37.40625 42.71875 40.96875 
Q 46.484375 44.53125 46.484375 51.125 
Q 46.484375 57.671875 42.71875 61.234375 
Q 38.96875 64.796875 32.078125 64.796875 
z
M 9.8125 72.90625 
L 32.078125 72.90625 
Q 44.34375 72.90625 50.609375 67.359375 
Q 56.890625 61.8125 56.890625 51.125 
Q 56.890625 40.328125 50.609375 34.8125 
Q 44.34375 29.296875 32.078125 29.296875 
L 19.671875 29.296875 
L 19.671875 0 
L 9.8125 0 
z
" id="DejaVuSans-80"/>
     <path d="M 53.515625 70.515625 
L 53.515625 60.890625 
Q 47.90625 63.578125 42.921875 64.890625 
Q 37.9375 66.21875 33.296875 66.21875 
Q 25.25 66.21875 20.875 63.09375 
Q 16.5 59.96875 16.5 54.203125 
Q 16.5 49.359375 19.40625 46.890625 
Q 22.3125 44.4375 30.421875 42.921875 
L 36.375 41.703125 
Q 47.40625 39.59375 52.65625 34.296875 
Q 57.90625 29 57.90625 20.125 
Q 57.90625 9.515625 50.796875 4.046875 
Q 43.703125 -1.421875 29.984375 -1.421875 
Q 24.8125 -1.421875 18.96875 -0.25 
Q 13.140625 0.921875 6.890625 3.21875 
L 6.890625 13.375 
Q 12.890625 10.015625 18.65625 8.296875 
Q 24.421875 6.59375 29.984375 6.59375 
Q 38.421875 6.59375 43.015625 9.90625 
Q 47.609375 13.234375 47.609375 19.390625 
Q 47.609375 24.75 44.3125 27.78125 
Q 41.015625 30.8125 33.5 32.328125 
L 27.484375 33.5 
Q 16.453125 35.6875 11.515625 40.375 
Q 6.59375 45.0625 6.59375 53.421875 
Q 6.59375 63.09375 13.40625 68.65625 
Q 20.21875 74.21875 32.171875 74.21875 
Q 37.3125 74.21875 42.625 73.28125 
Q 47.953125 72.359375 53.515625 70.515625 
z
" id="DejaVuSans-83"/>
     <path d="M 39.40625 66.21875 
Q 28.65625 66.21875 22.328125 58.203125 
Q 16.015625 50.203125 16.015625 36.375 
Q 16.015625 22.609375 22.328125 14.59375 
Q 28.65625 6.59375 39.40625 6.59375 
Q 50.140625 6.59375 56.421875 14.59375 
Q 62.703125 22.609375 62.703125 36.375 
Q 62.703125 50.203125 56.421875 58.203125 
Q 50.140625 66.21875 39.40625 66.21875 
z
M 39.40625 74.21875 
Q 54.734375 74.21875 63.90625 63.9375 
Q 73.09375 53.65625 73.09375 36.375 
Q 73.09375 19.140625 63.90625 8.859375 
Q 54.734375 -1.421875 39.40625 -1.421875 
Q 24.03125 -1.421875 14.8125 8.828125 
Q 5.609375 19.09375 5.609375 36.375 
Q 5.609375 53.65625 14.8125 63.9375 
Q 24.03125 74.21875 39.40625 74.21875 
z
" id="DejaVuSans-79"/>
    </defs>
    <g transform="translate(375.22944 298.262739)scale(0.17 -0.17)">
     <use xlink:href="#DejaVuSans-68"/>
     <use x="77.001953" xlink:href="#DejaVuSans-69"/>
     <use x="140.185547" xlink:href="#DejaVuSans-80"/>
     <use x="200.488281" xlink:href="#DejaVuSans-83"/>
     <use x="263.964844" xlink:href="#DejaVuSans-79"/>
    </g>
   </g>
   <g id="text_14">
    <!-- DE -->
    <g transform="translate(375.22944 233.796363)scale(0.17 -0.17)">
     <use xlink:href="#DejaVuSans-68"/>
     <use x="77.001953" xlink:href="#DejaVuSans-69"/>
    </g>
   </g>
   <g id="text_15">
    <!-- PSO -->
    <g transform="translate(375.22944 169.329987)scale(0.17 -0.17)">
     <use xlink:href="#DejaVuSans-80"/>
     <use x="60.302734" xlink:href="#DejaVuSans-83"/>
     <use x="123.779297" xlink:href="#DejaVuSans-79"/>
    </g>
   </g>
   <g id="text_16">
    <!-- CMA-ES -->
    <defs>
     <path d="M 64.40625 67.28125 
L 64.40625 56.890625 
Q 59.421875 61.53125 53.78125 63.8125 
Q 48.140625 66.109375 41.796875 66.109375 
Q 29.296875 66.109375 22.65625 58.46875 
Q 16.015625 50.828125 16.015625 36.375 
Q 16.015625 21.96875 22.65625 14.328125 
Q 29.296875 6.6875 41.796875 6.6875 
Q 48.140625 6.6875 53.78125 8.984375 
Q 59.421875 11.28125 64.40625 15.921875 
L 64.40625 5.609375 
Q 59.234375 2.09375 53.4375 0.328125 
Q 47.65625 -1.421875 41.21875 -1.421875 
Q 24.65625 -1.421875 15.125 8.703125 
Q 5.609375 18.84375 5.609375 36.375 
Q 5.609375 53.953125 15.125 64.078125 
Q 24.65625 74.21875 41.21875 74.21875 
Q 47.75 74.21875 53.53125 72.484375 
Q 59.328125 70.75 64.40625 67.28125 
z
" id="DejaVuSans-67"/>
     <path d="M 9.8125 72.90625 
L 24.515625 72.90625 
L 43.109375 23.296875 
L 61.8125 72.90625 
L 76.515625 72.90625 
L 76.515625 0 
L 66.890625 0 
L 66.890625 64.015625 
L 48.09375 14.015625 
L 38.1875 14.015625 
L 19.390625 64.015625 
L 19.390625 0 
L 9.8125 0 
z
" id="DejaVuSans-77"/>
     <path d="M 34.1875 63.1875 
L 20.796875 26.90625 
L 47.609375 26.90625 
z
M 28.609375 72.90625 
L 39.796875 72.90625 
L 67.578125 0 
L 57.328125 0 
L 50.6875 18.703125 
L 17.828125 18.703125 
L 11.1875 0 
L 0.78125 0 
z
" id="DejaVuSans-65"/>
    </defs>
    <g transform="translate(375.22944 104.863611)scale(0.17 -0.17)">
     <use xlink:href="#DejaVuSans-67"/>
     <use x="69.824219" xlink:href="#DejaVuSans-77"/>
     <use x="156.103516" xlink:href="#DejaVuSans-65"/>
     <use x="222.261719" xlink:href="#DejaVuSans-45"/>
     <use x="258.345703" xlink:href="#DejaVuSans-69"/>
     <use x="321.529297" xlink:href="#DejaVuSans-83"/>
    </g>
   </g>
   <g id="text_17">
    <!-- best 2009 -->
    <defs>
     <path d="M 48.6875 27.296875 
Q 48.6875 37.203125 44.609375 42.84375 
Q 40.53125 48.484375 33.40625 48.484375 
Q 26.265625 48.484375 22.1875 42.84375 
Q 18.109375 37.203125 18.109375 27.296875 
Q 18.109375 17.390625 22.1875 11.75 
Q 26.265625 6.109375 33.40625 6.109375 
Q 40.53125 6.109375 44.609375 11.75 
Q 48.6875 17.390625 48.6875 27.296875 
z
M 18.109375 46.390625 
Q 20.953125 51.265625 25.265625 53.625 
Q 29.59375 56 35.59375 56 
Q 45.5625 56 51.78125 48.09375 
Q 58.015625 40.1875 58.015625 27.296875 
Q 58.015625 14.40625 51.78125 6.484375 
Q 45.5625 -1.421875 35.59375 -1.421875 
Q 29.59375 -1.421875 25.265625 0.953125 
Q 20.953125 3.328125 18.109375 8.203125 
L 18.109375 0 
L 9.078125 0 
L 9.078125 75.984375 
L 18.109375 75.984375 
z
" id="DejaVuSans-98"/>
     <path d="M 10.984375 1.515625 
L 10.984375 10.5 
Q 14.703125 8.734375 18.5 7.8125 
Q 22.3125 6.890625 25.984375 6.890625 
Q 35.75 6.890625 40.890625 13.453125 
Q 46.046875 20.015625 46.78125 33.40625 
Q 43.953125 29.203125 39.59375 26.953125 
Q 35.25 24.703125 29.984375 24.703125 
Q 19.046875 24.703125 12.671875 31.3125 
Q 6.296875 37.9375 6.296875 49.421875 
Q 6.296875 60.640625 12.9375 67.421875 
Q 19.578125 74.21875 30.609375 74.21875 
Q 43.265625 74.21875 49.921875 64.515625 
Q 56.59375 54.828125 56.59375 36.375 
Q 56.59375 19.140625 48.40625 8.859375 
Q 40.234375 -1.421875 26.421875 -1.421875 
Q 22.703125 -1.421875 18.890625 -0.6875 
Q 15.09375 0.046875 10.984375 1.515625 
z
M 30.609375 32.421875 
Q 37.25 32.421875 41.125 36.953125 
Q 45.015625 41.5 45.015625 49.421875 
Q 45.015625 57.28125 41.125 61.84375 
Q 37.25 66.40625 30.609375 66.40625 
Q 23.96875 66.40625 20.09375 61.84375 
Q 16.21875 57.28125 16.21875 49.421875 
Q 16.21875 41.5 20.09375 36.953125 
Q 23.96875 32.421875 30.609375 32.421875 
z
" id="DejaVuSans-57"/>
    </defs>
    <g transform="translate(375.22944 40.397235)scale(0.17 -0.17)">
     <use xlink:href="#DejaVuSans-98"/>
     <use x="63.476562" xlink:href="#DejaVuSans-101"/>
     <use x="125" xlink:href="#DejaVuSans-115"/>
     <use x="177.099609" xlink:href="#DejaVuSans-116"/>
     <use x="216.308594" xlink:href="#DejaVuSans-32"/>
     <use x="248.095703" xlink:href="#DejaVuSans-50"/>
     <use x="311.71875" xlink:href="#DejaVuSans-48"/>
     <use x="375.341797" xlink:href="#DejaVuSans-48"/>
     <use x="438.964844" xlink:href="#DejaVuSans-57"/>
    </g>
   </g>
   <g id="text_18">
    <!-- bbob f8, 10-D -->
    <g transform="translate(60.41088 38.111366)scale(0.102 -0.102)">
     <use xlink:href="#DejaVuSans-98"/>
     <use x="63.476562" xlink:href="#DejaVuSans-98"/>
     <use x="126.953125" xlink:href="#DejaVuSans-111"/>
     <use x="188.134766" xlink:href="#DejaVuSans-98"/>
     <use x="251.611328" xlink:href="#DejaVuSans-32"/>
     <use x="283.398438" xlink:href="#DejaVuSans-102"/>
     <use x="318.603516" xlink:href="#DejaVuSans-56"/>
     <use x="382.226562" xlink:href="#DejaVuSans-44"/>
     <use x="414.013672" xlink:href="#DejaVuSans-32"/>
     <use x="445.800781" xlink:href="#DejaVuSans-49"/>
     <use x="509.423828" xlink:href="#DejaVuSans-48"/>
     <use x="573.046875" xlink:href="#DejaVuSans-45"/>
     <use x="609.130859" xlink:href="#DejaVuSans-68"/>
    </g>
    <!-- 51 targets: 100..1e-08 -->
    <defs>
     <path d="M 10.796875 72.90625 
L 49.515625 72.90625 
L 49.515625 64.59375 
L 19.828125 64.59375 
L 19.828125 46.734375 
Q 21.96875 47.46875 24.109375 47.828125 
Q 26.265625 48.1875 28.421875 48.1875 
Q 40.625 48.1875 47.75 41.5 
Q 54.890625 34.8125 54.890625 23.390625 
Q 54.890625 11.625 47.5625 5.09375 
Q 40.234375 -1.421875 26.90625 -1.421875 
Q 22.3125 -1.421875 17.546875 -0.640625 
Q 12.796875 0.140625 7.71875 1.703125 
L 7.71875 11.625 
Q 12.109375 9.234375 16.796875 8.0625 
Q 21.484375 6.890625 26.703125 6.890625 
Q 35.15625 6.890625 40.078125 11.328125 
Q 45.015625 15.765625 45.015625 23.390625 
Q 45.015625 31 40.078125 35.4375 
Q 35.15625 39.890625 26.703125 39.890625 
Q 22.75 39.890625 18.8125 39.015625 
Q 14.890625 38.140625 10.796875 36.28125 
z
" id="DejaVuSans-53"/>
     <path d="M 11.71875 12.40625 
L 22.015625 12.40625 
L 22.015625 0 
L 11.71875 0 
z
M 11.71875 51.703125 
L 22.015625 51.703125 
L 22.015625 39.3125 
L 11.71875 39.3125 
z
" id="DejaVuSans-58"/>
    </defs>
    <g transform="translate(60.41088 49.533135)scale(0.102 -0.102)">
     <use xlink:href="#DejaVuSans-53"/>
     <use x="63.623047" xlink:href="#DejaVuSans-49"/>
     <use x="127.246094" xlink:href="#DejaVuSans-32"/>
     <use x="159.033203" xlink:href="#DejaVuSans-116"/>
     <use x="198.242188" xlink:href="#DejaVuSans-97"/>
     <use x="259.521484" xlink:href="#DejaVuSans-114"/>
     <use x="298.884766" xlink:href="#DejaVuSans-103"/>
     <use x="362.361328" xlink:href="#DejaVuSans-101"/>
     <use x="423.884766" xlink:href="#DejaVuSans-116"/>
     <use x="463.09375" xlink:href="#DejaVuSans-115"/>
     <use x="515.193359" xlink:href="#DejaVuSans-58"/>
     <use x="548.884766" xlink:href="#DejaVuSans-32"/>
     <use x="580.671875" xlink:href="#DejaVuSans-49"/>
     <use x="644.294922" xlink:href="#DejaVuSans-48"/>
     <use x="707.917969" xlink:href="#DejaVuSans-48"/>
     <use x="771.541016" xlink:href="#DejaVuSans-46"/>
     <use x="803.328125" xlink:href="#DejaVuSans-46"/>
     <use x="835.115234" xlink:href="#DejaVuSans-49"/>
     <use x="898.738281" xlink:href="#DejaVuSans-101"/>
     <use x="960.261719" xlink:href="#DejaVuSans-45"/>
     <use x="996.345703" xlink:href="#DejaVuSans-48"/>
     <use x="1059.96875" xlink:href="#DejaVuSans-56"/>
    </g>
    <!-- 24, 15 instances -->
    <g transform="translate(60.41088 60.954904)scale(0.102 -0.102)">
     <use xlink:href="#DejaVuSans-50"/>
     <use x="63.623047" xlink:href="#DejaVuSans-52"/>
     <use x="127.246094" xlink:href="#DejaVuSans-44"/>
     <use x="159.033203" xlink:href="#DejaVuSans-32"/>
     <use x="190.820312" xlink:href="#DejaVuSans-49"/>
     <use x="254.443359" xlink:href="#DejaVuSans-53"/>
     <use x="318.066406" xlink:href="#DejaVuSans-32"/>
     <use x="349.853516" xlink:href="#DejaVuSans-105"/>
     <use x="377.636719" xlink:href="#DejaVuSans-110"/>
     <use x="441.015625" xlink:href="#DejaVuSans-115"/>
     <use x="493.115234" xlink:href="#DejaVuSans-116"/>
     <use x="532.324219" xlink:href="#DejaVuSans-97"/>
     <use x="593.603516" xlink:href="#DejaVuSans-110"/>
     <use x="656.982422" xlink:href="#DejaVuSans-99"/>
     <use x="711.962891" xlink:href="#DejaVuSans-101"/>
     <use x="773.486328" xlink:href="#DejaVuSans-115"/>
    </g>
   </g>
   <g id="text_19">
    <!-- v2.4 -->
    <g style="fill:#808080;" transform="translate(187.233062 294.151352)scale(0.1 -0.1)">
     <use xlink:href="#DejaVuSans-118"/>
     <use x="59.179688" xlink:href="#DejaVuSans-50"/>
     <use x="122.802734" xlink:href="#DejaVuSans-46"/>
     <use x="154.589844" xlink:href="#DejaVuSans-52"/>
    </g>
   </g>
   <g id="text_20">
    <!-- 8 Rosenbrock original -->
    <defs>
     <path d="M 44.390625 34.1875 
Q 47.5625 33.109375 50.5625 29.59375 
Q 53.5625 26.078125 56.59375 19.921875 
L 66.609375 0 
L 56 0 
L 46.6875 18.703125 
Q 43.0625 26.03125 39.671875 28.421875 
Q 36.28125 30.8125 30.421875 30.8125 
L 19.671875 30.8125 
L 19.671875 0 
L 9.8125 0 
L 9.8125 72.90625 
L 32.078125 72.90625 
Q 44.578125 72.90625 50.734375 67.671875 
Q 56.890625 62.453125 56.890625 51.90625 
Q 56.890625 45.015625 53.6875 40.46875 
Q 50.484375 35.9375 44.390625 34.1875 
z
M 19.671875 64.796875 
L 19.671875 38.921875 
L 32.078125 38.921875 
Q 39.203125 38.921875 42.84375 42.21875 
Q 46.484375 45.515625 46.484375 51.90625 
Q 46.484375 58.296875 42.84375 61.546875 
Q 39.203125 64.796875 32.078125 64.796875 
z
" id="DejaVuSans-82"/>
     <path d="M 9.078125 75.984375 
L 18.109375 75.984375 
L 18.109375 31.109375 
L 44.921875 54.6875 
L 56.390625 54.6875 
L 27.390625 29.109375 
L 57.625 0 
L 45.90625 0 
L 18.109375 26.703125 
L 18.109375 0 
L 9.078125 0 
z
" id="DejaVuSans-107"/>
    </defs>
    <g transform="translate(90.08775 21.648)scale(0.2 -0.2)">
     <use xlink:href="#DejaVuSans-56"/>
     <use x="63.623047" xlink:href="#DejaVuSans-32"/>
     <use x="95.410156" xlink:href="#DejaVuSans-82"/>
     <use x="160.392578" xlink:href="#DejaVuSans-111"/>
     <use x="221.574219" xlink:href="#DejaVuSans-115"/>
     <use x="273.673828" xlink:href="#DejaVuSans-101"/>
     <use x="335.197266" xlink:href="#DejaVuSans-110"/>
     <use x="398.576172" xlink:href="#DejaVuSans-98"/>
     <use x="462.052734" xlink:href="#DejaVuSans-114"/>
     <use x="500.916016" xlink:href="#DejaVuSans-111"/>
     <use x="562.097656" xlink:href="#DejaVuSans-99"/>
     <use x="617.078125" xlink:href="#DejaVuSans-107"/>
     <use x="674.988281" xlink:href="#DejaVuSans-32"/>
     <use x="706.775391" xlink:href="#DejaVuSans-111"/>
     <use x="767.957031" xlink:href="#DejaVuSans-114"/>
     <use x="809.070312" xlink:href="#DejaVuSans-105"/>
     <use x="836.853516" xlink:href="#DejaVuSans-103"/>
     <use x="900.330078" xlink:href="#DejaVuSans-105"/>
     <use x="928.113281" xlink:href="#DejaVuSans-110"/>
     <use x="991.492188" xlink:href="#DejaVuSans-97"/>
     <use x="1052.771484" xlink:href="#DejaVuSans-108"/>
    </g>
   </g>
  </g>
 </g>
 <defs>
  <clipPath id="p91bbdda6a8">
   <rect height="271.296" width="281.088" x="57.6" y="27.648"/>
  </clipPath>
 </defs>
</svg>
