<?xml version="1.0" encoding="utf-8" standalone="no"?>
<!DOCTYPE svg PUBLIC "-//W3C//DTD SVG 1.1//EN"
  "http://www.w3.org/Graphics/SVG/1.1/DTD/svg11.dtd">
<!-- Created with matplotlib (https://matplotlib.org/) -->
<svg height="345.6pt" version="1.1" viewBox="0 0 460.8 345.6" width="460.8pt" xmlns="http://www.w3.org/2000/svg" xmlns:xlink="http://www.w3.org/1999/xlink">
 <defs>
  <style type="text/css">
*{stroke-linecap:butt;stroke-linejoin:round;}
  </style>
 </defs>
 <g id="figure_1">
  <g id="patch_1">
   <path d="M 0 345.6 
L 460.8 345.6 
L 460.8 0 
L 0 0 
z
" style="fill:#ffffff;"/>
  </g>
  <g id="axes_1">
   <g id="patch_2">
    <path d="M 57.6 298.944 
L 338.688 298.944 
L 338.688 27.648 
L 57.6 27.648 
z
" style="fill:#ffffff;"/>
   </g>
   <g id="line2d_1">
    <path d="M 17.444571 298.944 
L 17.444571 293.677139 
L 67.850577 293.677139 
L 67.850577 288.410278 
L 76.759008 288.410278 
L 76.759008 283.143418 
L 83.037197 283.143418 
L 83.037197 277.876557 
L 93.197415 277.876557 
L 93.197415 272.609696 
L 97.403108 272.609696 
L 97.403108 267.342835 
L 105.398279 267.342835 
L 105.398279 262.075974 
L 129.88095 262.075974 
L 129.88095 256.809114 
L 134.279041 256.809114 
L 134.279041 251.542253 
L 156.040206 251.542253 
L 156.040206 246.275392 
L 156.107908 246.275392 
L 156.107908 241.008531 
L 169.443254 241.008531 
L 169.443254 235.74167 
L 169.724059 235.74167 
L 169.724059 230.47481 
L 169.830653 230.47481 
L 169.830653 225.207949 
L 169.878129 225.207949 
L 169.878129 219.941088 
L 170.154817 219.941088 
L 170.154817 214.674227 
L 170.2479 214.674227 
L 170.2479 209.407366 
L 170.432588 209.407366 
L 170.432588 204.140506 
L 170.559106 204.140506 
L 170.559106 198.873645 
L 170.671394 198.873645 
L 170.671394 193.606784 
L 170.872762 193.606784 
L 170.872762 188.339923 
L 170.951613 188.339923 
L 170.951613 183.073062 
L 170.990905 183.073062 
L 170.990905 177.806202 
L 171.196397 177.806202 
L 171.196397 172.539341 
L 171.309807 172.539341 
L 171.309807 167.27248 
L 171.335479 167.27248 
L 171.335479 162.005619 
L 171.534438 162.005619 
L 171.534438 156.738758 
L 171.559782 156.738758 
L 171.559782 151.471897 
L 171.577501 151.471897 
L 171.577501 146.205037 
L 171.620458 146.205037 
L 171.620458 140.938176 
L 171.655755 140.938176 
L 171.655755 135.671315 
L 171.890917 135.671315 
L 171.890917 130.404454 
L 171.920711 130.404454 
L 171.920711 125.137593 
L 172.066461 125.137593 
L 172.066461 119.870733 
L 174.789496 119.870733 
L 174.789496 114.603872 
L 174.808425 114.603872 
L 174.808425 109.337011 
L 175.006993 109.337011 
L 175.006993 104.07015 
L 175.058874 104.07015 
L 175.058874 98.803289 
L 175.081653 98.803289 
L 175.081653 93.536429 
L 175.174531 93.536429 
L 175.174531 88.269568 
L 178.534298 88.269568 
L 178.534298 83.002707 
L 178.547874 83.002707 
L 178.547874 77.735846 
L 178.578383 77.735846 
L 178.578383 72.468985 
L 178.597002 72.468985 
L 178.597002 67.202125 
L 178.624047 67.202125 
L 178.624047 61.935264 
L 178.667907 61.935264 
L 178.667907 56.668403 
L 178.679696 56.668403 
L 178.679696 51.401542 
L 183.266275 51.401542 
L 183.266275 46.134681 
L 183.310225 46.134681 
L 183.310225 40.867821 
L 183.341183 40.867821 
L 183.341183 35.60096 
L 183.572899 35.60096 
L 183.572899 30.334099 
L 338.688 30.334099 
" style="fill:none;stroke:#f5deb3;stroke-linecap:square;stroke-width:4;"/>
   </g>
   <g id="line2d_2">
    <defs>
     <path d="M -0 7.778175 
L 7.778175 0 
L 0 -7.778175 
L -7.778175 -0 
z
" id="mb6e4eadd4c" style="stroke:#f5deb3;stroke-linejoin:miter;stroke-width:1.5;"/>
    </defs>
    <g>
     <use style="fill:#f5deb3;stroke:#f5deb3;stroke-linejoin:miter;stroke-width:1.5;" x="105.398279" xlink:href="#mb6e4eadd4c" y="267.342835"/>
     <use style="fill:#f5deb3;stroke:#f5deb3;stroke-linejoin:miter;stroke-width:1.5;" x="170.951613" xlink:href="#mb6e4eadd4c" y="188.339923"/>
     <use style="fill:#f5deb3;stroke:#f5deb3;stroke-linejoin:miter;stroke-width:1.5;" x="175.081653" xlink:href="#mb6e4eadd4c" y="98.803289"/>
     <use style="fill:#f5deb3;stroke:#f5deb3;stroke-linejoin:miter;stroke-width:1.5;" x="183.572899" xlink:href="#mb6e4eadd4c" y="35.60096"/>
     <use style="fill:#f5deb3;stroke:#f5deb3;stroke-linejoin:miter;stroke-width:1.5;" x="183.572899" xlink:href="#mb6e4eadd4c" y="30.334099"/>
     <use style="fill:#f5deb3;stroke:#f5deb3;stroke-linejoin:miter;stroke-width:1.5;" x="338.688" xlink:href="#mb6e4eadd4c" y="30.334099"/>
    </g>
   </g>
   <g id="line2d_3">
    <path style="fill:none;stroke:#f5deb3;stroke-linecap:square;stroke-width:4;"/>
    <g/>
   </g>
   <g id="line2d_4">
    <path d="M 338.688 30.334099 
L 369.60768 35.706297 
" style="fill:none;stroke:#f5deb3;stroke-linecap:square;stroke-width:4;"/>
    <g>
     <use style="fill:#f5deb3;stroke:#f5deb3;stroke-linejoin:miter;stroke-width:1.5;" x="338.688" xlink:href="#mb6e4eadd4c" y="30.334099"/>
     <use style="fill:#f5deb3;stroke:#f5deb3;stroke-linejoin:miter;stroke-width:1.5;" x="369.60768" xlink:href="#mb6e4eadd4c" y="35.706297"/>
    </g>
   </g>
   <g id="matplotlib.axis_1">
    <g id="xtick_1">
     <g id="line2d_5">
      <path clip-path="url(#pf930833913)" d="M 57.6 298.944 
L 57.6 27.648 
" style="fill:none;stroke:#b0b0b0;stroke-linecap:square;stroke-width:0.8;"/>
     </g>
     <g id="line2d_6">
      <defs>
       <path d="M 0 0 
L 0 3.5 
" id="m2a0705754d" style="stroke:#000000;stroke-width:0.8;"/>
      </defs>
      <g>
       <use style="stroke:#000000;stroke-width:0.8;" x="57.6" xlink:href="#m2a0705754d" y="298.944"/>
      </g>
     </g>
     <g id="text_1">
      <!-- 0 -->
      <defs>
       <path d="M 31.78125 66.40625 
Q 24.171875 66.40625 20.328125 58.90625 
Q 16.5 51.421875 16.5 36.375 
Q 16.5 21.390625 20.328125 13.890625 
Q 24.171875 6.390625 31.78125 6.390625 
Q 39.453125 6.390625 43.28125 13.890625 
Q 47.125 21.390625 47.125 36.375 
Q 47.125 51.421875 43.28125 58.90625 
Q 39.453125 66.40625 31.78125 66.40625 
z
M 31.78125 74.21875 
Q 44.046875 74.21875 50.515625 64.515625 
Q 56.984375 54.828125 56.984375 36.375 
Q 56.984375 17.96875 50.515625 8.265625 
Q 44.046875 -1.421875 31.78125 -1.421875 
Q 19.53125 -1.421875 13.0625 8.265625 
Q 6.59375 17.96875 6.59375 36.375 
Q 6.59375 54.828125 13.0625 64.515625 
Q 19.53125 74.21875 31.78125 74.21875 
z
" id="DejaVuSans-48"/>
      </defs>
      <g transform="translate(51.2375 321.140875)scale(0.2 -0.2)">
       <use xlink:href="#DejaVuSans-48"/>
      </g>
     </g>
    </g>
    <g id="xtick_2">
     <g id="line2d_7">
      <path clip-path="url(#pf930833913)" d="M 137.910857 298.944 
L 137.910857 27.648 
" style="fill:none;stroke:#b0b0b0;stroke-linecap:square;stroke-width:0.8;"/>
     </g>
     <g id="line2d_8">
      <g>
       <use style="stroke:#000000;stroke-width:0.8;" x="137.910857" xlink:href="#m2a0705754d" y="298.944"/>
      </g>
     </g>
     <g id="text_2">
      <!-- 2 -->
      <defs>
       <path d="M 19.1875 8.296875 
L 53.609375 8.296875 
L 53.609375 0 
L 7.328125 0 
L 7.328125 8.296875 
Q 12.9375 14.109375 22.625 23.890625 
Q 32.328125 33.6875 34.8125 36.53125 
Q 39.546875 41.84375 41.421875 45.53125 
Q 43.3125 49.21875 43.3125 52.78125 
Q 43.3125 58.59375 39.234375 62.25 
Q 35.15625 65.921875 28.609375 65.921875 
Q 23.96875 65.921875 18.8125 64.3125 
Q 13.671875 62.703125 7.8125 59.421875 
L 7.8125 69.390625 
Q 13.765625 71.78125 18.9375 73 
Q 24.125 74.21875 28.421875 74.21875 
Q 39.75 74.21875 46.484375 68.546875 
Q 53.21875 62.890625 53.21875 53.421875 
Q 53.21875 48.921875 51.53125 44.890625 
Q 49.859375 40.875 45.40625 35.40625 
Q 44.1875 33.984375 37.640625 27.21875 
Q 31.109375 20.453125 19.1875 8.296875 
z
" id="DejaVuSans-50"/>
      </defs>
      <g transform="translate(131.548357 321.140875)scale(0.2 -0.2)">
       <use xlink:href="#DejaVuSans-50"/>
      </g>
     </g>
    </g>
    <g id="xtick_3">
     <g id="line2d_9">
      <path clip-path="url(#pf930833913)" d="M 218.221714 298.944 
L 218.221714 27.648 
" style="fill:none;stroke:#b0b0b0;stroke-linecap:square;stroke-width:0.8;"/>
     </g>
     <g id="line2d_10">
      <g>
       <use style="stroke:#000000;stroke-width:0.8;" x="218.221714" xlink:href="#m2a0705754d" y="298.944"/>
      </g>
     </g>
     <g id="text_3">
      <!-- 4 -->
      <defs>
       <path d="M 37.796875 64.3125 
L 12.890625 25.390625 
L 37.796875 25.390625 
z
M 35.203125 72.90625 
L 47.609375 72.90625 
L 47.609375 25.390625 
L 58.015625 25.390625 
L 58.015625 17.1875 
L 47.609375 17.1875 
L 47.609375 0 
L 37.796875 0 
L 37.796875 17.1875 
L 4.890625 17.1875 
L 4.890625 26.703125 
z
" id="DejaVuSans-52"/>
      </defs>
      <g transform="translate(211.859214 321.140875)scale(0.2 -0.2)">
       <use xlink:href="#DejaVuSans-52"/>
      </g>
     </g>
    </g>
    <g id="xtick_4">
     <g id="line2d_11">
      <path clip-path="url(#pf930833913)" d="M 298.532571 298.944 
L 298.532571 27.648 
" style="fill:none;stroke:#b0b0b0;stroke-linecap:square;stroke-width:0.8;"/>
     </g>
     <g id="line2d_12">
      <g>
       <use style="stroke:#000000;stroke-width:0.8;" x="298.532571" xlink:href="#m2a0705754d" y="298.944"/>
      </g>
     </g>
     <g id="text_4">
      <!-- 6 -->
      <defs>
       <path d="M 33.015625 40.375 
Q 26.375 40.375 22.484375 35.828125 
Q 18.609375 31.296875 18.609375 23.390625 
Q 18.609375 15.53125 22.484375 10.953125 
Q 26.375 6.390625 33.015625 6.390625 
Q 39.65625 6.390625 43.53125 10.953125 
Q 47.40625 15.53125 47.40625 23.390625 
Q 47.40625 31.296875 43.53125 35.828125 
Q 39.65625 40.375 33.015625 40.375 
z
M 52.59375 71.296875 
L 52.59375 62.3125 
Q 48.875 64.0625 45.09375 64.984375 
Q 41.3125 65.921875 37.59375 65.921875 
Q 27.828125 65.921875 22.671875 59.328125 
Q 17.53125 52.734375 16.796875 39.40625 
Q 19.671875 43.65625 24.015625 45.921875 
Q 28.375 48.1875 33.59375 48.1875 
Q 44.578125 48.1875 50.953125 41.515625 
Q 57.328125 34.859375 57.328125 23.390625 
Q 57.328125 12.15625 50.6875 5.359375 
Q 44.046875 -1.421875 33.015625 -1.421875 
Q 20.359375 -1.421875 13.671875 8.265625 
Q 6.984375 17.96875 6.984375 36.375 
Q 6.984375 53.65625 15.1875 63.9375 
Q 23.390625 74.21875 37.203125 74.21875 
Q 40.921875 74.21875 44.703125 73.484375 
Q 48.484375 72.75 52.59375 71.296875 
z
" id="DejaVuSans-54"/>
      </defs>
      <g transform="translate(292.170071 321.140875)scale(0.2 -0.2)">
       <use xlink:href="#DejaVuSans-54"/>
      </g>
     </g>
    </g>
    <g id="xtick_5">
     <g id="line2d_13">
      <path clip-path="url(#pf930833913)" d="M 97.755429 298.944 
L 97.755429 27.648 
" style="fill:none;stroke:#b0b0b0;stroke-linecap:square;stroke-width:0.8;"/>
     </g>
     <g id="line2d_14">
      <defs>
       <path d="M 0 0 
L 0 2 
" id="m78c455590d" style="stroke:#000000;stroke-width:0.6;"/>
      </defs>
      <g>
       <use style="stroke:#000000;stroke-width:0.6;" x="97.755429" xlink:href="#m78c455590d" y="298.944"/>
      </g>
     </g>
    </g>
    <g id="xtick_6">
     <g id="line2d_15">
      <path clip-path="url(#pf930833913)" d="M 178.066286 298.944 
L 178.066286 27.648 
" style="fill:none;stroke:#b0b0b0;stroke-linecap:square;stroke-width:0.8;"/>
     </g>
     <g id="line2d_16">
      <g>
       <use style="stroke:#000000;stroke-width:0.6;" x="178.066286" xlink:href="#m78c455590d" y="298.944"/>
      </g>
     </g>
    </g>
    <g id="xtick_7">
     <g id="line2d_17">
      <path clip-path="url(#pf930833913)" d="M 258.377143 298.944 
L 258.377143 27.648 
" style="fill:none;stroke:#b0b0b0;stroke-linecap:square;stroke-width:0.8;"/>
     </g>
     <g id="line2d_18">
      <g>
       <use style="stroke:#000000;stroke-width:0.6;" x="258.377143" xlink:href="#m78c455590d" y="298.944"/>
      </g>
     </g>
    </g>
    <g id="xtick_8">
     <g id="line2d_19">
      <path clip-path="url(#pf930833913)" d="M 338.688 298.944 
L 338.688 27.648 
" style="fill:none;stroke:#b0b0b0;stroke-linecap:square;stroke-width:0.8;"/>
     </g>
     <g id="line2d_20">
      <g>
       <use style="stroke:#000000;stroke-width:0.6;" x="338.688" xlink:href="#m78c455590d" y="298.944"/>
      </g>
     </g>
    </g>
    <g id="text_5">
     <!-- log10(# f-evals / dimension) -->
     <defs>
      <path d="M 9.421875 75.984375 
L 18.40625 75.984375 
L 18.40625 0 
L 9.421875 0 
z
" id="DejaVuSans-108"/>
      <path d="M 30.609375 48.390625 
Q 23.390625 48.390625 19.1875 42.75 
Q 14.984375 37.109375 14.984375 27.296875 
Q 14.984375 17.484375 19.15625 11.84375 
Q 23.34375 6.203125 30.609375 6.203125 
Q 37.796875 6.203125 41.984375 11.859375 
Q 46.1875 17.53125 46.1875 27.296875 
Q 46.1875 37.015625 41.984375 42.703125 
Q 37.796875 48.390625 30.609375 48.390625 
z
M 30.609375 56 
Q 42.328125 56 49.015625 48.375 
Q 55.71875 40.765625 55.71875 27.296875 
Q 55.71875 13.875 49.015625 6.21875 
Q 42.328125 -1.421875 30.609375 -1.421875 
Q 18.84375 -1.421875 12.171875 6.21875 
Q 5.515625 13.875 5.515625 27.296875 
Q 5.515625 40.765625 12.171875 48.375 
Q 18.84375 56 30.609375 56 
z
" id="DejaVuSans-111"/>
      <path d="M 45.40625 27.984375 
Q 45.40625 37.75 41.375 43.109375 
Q 37.359375 48.484375 30.078125 48.484375 
Q 22.859375 48.484375 18.828125 43.109375 
Q 14.796875 37.75 14.796875 27.984375 
Q 14.796875 18.265625 18.828125 12.890625 
Q 22.859375 7.515625 30.078125 7.515625 
Q 37.359375 7.515625 41.375 12.890625 
Q 45.40625 18.265625 45.40625 27.984375 
z
M 54.390625 6.78125 
Q 54.390625 -7.171875 48.1875 -13.984375 
Q 42 -20.796875 29.203125 -20.796875 
Q 24.46875 -20.796875 20.265625 -20.09375 
Q 16.0625 -19.390625 12.109375 -17.921875 
L 12.109375 -9.1875 
Q 16.0625 -11.328125 19.921875 -12.34375 
Q 23.78125 -13.375 27.78125 -13.375 
Q 36.625 -13.375 41.015625 -8.765625 
Q 45.40625 -4.15625 45.40625 5.171875 
L 45.40625 9.625 
Q 42.625 4.78125 38.28125 2.390625 
Q 33.9375 0 27.875 0 
Q 17.828125 0 11.671875 7.65625 
Q 5.515625 15.328125 5.515625 27.984375 
Q 5.515625 40.671875 11.671875 48.328125 
Q 17.828125 56 27.875 56 
Q 33.9375 56 38.28125 53.609375 
Q 42.625 51.21875 45.40625 46.390625 
L 45.40625 54.6875 
L 54.390625 54.6875 
z
" id="DejaVuSans-103"/>
      <path d="M 12.40625 8.296875 
L 28.515625 8.296875 
L 28.515625 63.921875 
L 10.984375 60.40625 
L 10.984375 69.390625 
L 28.421875 72.90625 
L 38.28125 72.90625 
L 38.28125 8.296875 
L 54.390625 8.296875 
L 54.390625 0 
L 12.40625 0 
z
" id="DejaVuSans-49"/>
      <path d="M 31 75.875 
Q 24.46875 64.65625 21.28125 53.65625 
Q 18.109375 42.671875 18.109375 31.390625 
Q 18.109375 20.125 21.3125 9.0625 
Q 24.515625 -2 31 -13.1875 
L 23.1875 -13.1875 
Q 15.875 -1.703125 12.234375 9.375 
Q 8.59375 20.453125 8.59375 31.390625 
Q 8.59375 42.28125 12.203125 53.3125 
Q 15.828125 64.359375 23.1875 75.875 
z
" id="DejaVuSans-40"/>
      <path d="M 51.125 44 
L 36.921875 44 
L 32.8125 27.6875 
L 47.125 27.6875 
z
M 43.796875 71.78125 
L 38.71875 51.515625 
L 52.984375 51.515625 
L 58.109375 71.78125 
L 65.921875 71.78125 
L 60.890625 51.515625 
L 76.125 51.515625 
L 76.125 44 
L 58.984375 44 
L 54.984375 27.6875 
L 70.515625 27.6875 
L 70.515625 20.21875 
L 53.078125 20.21875 
L 48 0 
L 40.1875 0 
L 45.21875 20.21875 
L 30.90625 20.21875 
L 25.875 0 
L 18.015625 0 
L 23.09375 20.21875 
L 7.71875 20.21875 
L 7.71875 27.6875 
L 24.90625 27.6875 
L 29 44 
L 13.28125 44 
L 13.28125 51.515625 
L 30.90625 51.515625 
L 35.890625 71.78125 
z
" id="DejaVuSans-35"/>
      <path id="DejaVuSans-32"/>
      <path d="M 37.109375 75.984375 
L 37.109375 68.5 
L 28.515625 68.5 
Q 23.6875 68.5 21.796875 66.546875 
Q 19.921875 64.59375 19.921875 59.515625 
L 19.921875 54.6875 
L 34.71875 54.6875 
L 34.71875 47.703125 
L 19.921875 47.703125 
L 19.921875 0 
L 10.890625 0 
L 10.890625 47.703125 
L 2.296875 47.703125 
L 2.296875 54.6875 
L 10.890625 54.6875 
L 10.890625 58.5 
Q 10.890625 67.625 15.140625 71.796875 
Q 19.390625 75.984375 28.609375 75.984375 
z
" id="DejaVuSans-102"/>
      <path d="M 4.890625 31.390625 
L 31.203125 31.390625 
L 31.203125 23.390625 
L 4.890625 23.390625 
z
" id="DejaVuSans-45"/>
      <path d="M 56.203125 29.59375 
L 56.203125 25.203125 
L 14.890625 25.203125 
Q 15.484375 15.921875 20.484375 11.0625 
Q 25.484375 6.203125 34.421875 6.203125 
Q 39.59375 6.203125 44.453125 7.46875 
Q 49.3125 8.734375 54.109375 11.28125 
L 54.109375 2.78125 
Q 49.265625 0.734375 44.1875 -0.34375 
Q 39.109375 -1.421875 33.890625 -1.421875 
Q 20.796875 -1.421875 13.15625 6.1875 
Q 5.515625 13.8125 5.515625 26.8125 
Q 5.515625 40.234375 12.765625 48.109375 
Q 20.015625 56 32.328125 56 
Q 43.359375 56 49.78125 48.890625 
Q 56.203125 41.796875 56.203125 29.59375 
z
M 47.21875 32.234375 
Q 47.125 39.59375 43.09375 43.984375 
Q 39.0625 48.390625 32.421875 48.390625 
Q 24.90625 48.390625 20.390625 44.140625 
Q 15.875 39.890625 15.1875 32.171875 
z
" id="DejaVuSans-101"/>
      <path d="M 2.984375 54.6875 
L 12.5 54.6875 
L 29.59375 8.796875 
L 46.6875 54.6875 
L 56.203125 54.6875 
L 35.6875 0 
L 23.484375 0 
z
" id="DejaVuSans-118"/>
      <path d="M 34.28125 27.484375 
Q 23.390625 27.484375 19.1875 25 
Q 14.984375 22.515625 14.984375 16.5 
Q 14.984375 11.71875 18.140625 8.90625 
Q 21.296875 6.109375 26.703125 6.109375 
Q 34.1875 6.109375 38.703125 11.40625 
Q 43.21875 16.703125 43.21875 25.484375 
L 43.21875 27.484375 
z
M 52.203125 31.203125 
L 52.203125 0 
L 43.21875 0 
L 43.21875 8.296875 
Q 40.140625 3.328125 35.546875 0.953125 
Q 30.953125 -1.421875 24.3125 -1.421875 
Q 15.921875 -1.421875 10.953125 3.296875 
Q 6 8.015625 6 15.921875 
Q 6 25.140625 12.171875 29.828125 
Q 18.359375 34.515625 30.609375 34.515625 
L 43.21875 34.515625 
L 43.21875 35.40625 
Q 43.21875 41.609375 39.140625 45 
Q 35.0625 48.390625 27.6875 48.390625 
Q 23 48.390625 18.546875 47.265625 
Q 14.109375 46.140625 10.015625 43.890625 
L 10.015625 52.203125 
Q 14.9375 54.109375 19.578125 55.046875 
Q 24.21875 56 28.609375 56 
Q 40.484375 56 46.34375 49.84375 
Q 52.203125 43.703125 52.203125 31.203125 
z
" id="DejaVuSans-97"/>
      <path d="M 44.28125 53.078125 
L 44.28125 44.578125 
Q 40.484375 46.53125 36.375 47.5 
Q 32.28125 48.484375 27.875 48.484375 
Q 21.1875 48.484375 17.84375 46.4375 
Q 14.5 44.390625 14.5 40.28125 
Q 14.5 37.15625 16.890625 35.375 
Q 19.28125 33.59375 26.515625 31.984375 
L 29.59375 31.296875 
Q 39.15625 29.25 43.1875 25.515625 
Q 47.21875 21.78125 47.21875 15.09375 
Q 47.21875 7.46875 41.1875 3.015625 
Q 35.15625 -1.421875 24.609375 -1.421875 
Q 20.21875 -1.421875 15.453125 -0.5625 
Q 10.6875 0.296875 5.421875 2 
L 5.421875 11.28125 
Q 10.40625 8.6875 15.234375 7.390625 
Q 20.0625 6.109375 24.8125 6.109375 
Q 31.15625 6.109375 34.5625 8.28125 
Q 37.984375 10.453125 37.984375 14.40625 
Q 37.984375 18.0625 35.515625 20.015625 
Q 33.0625 21.96875 24.703125 23.78125 
L 21.578125 24.515625 
Q 13.234375 26.265625 9.515625 29.90625 
Q 5.8125 33.546875 5.8125 39.890625 
Q 5.8125 47.609375 11.28125 51.796875 
Q 16.75 56 26.8125 56 
Q 31.78125 56 36.171875 55.265625 
Q 40.578125 54.546875 44.28125 53.078125 
z
" id="DejaVuSans-115"/>
      <path d="M 25.390625 72.90625 
L 33.6875 72.90625 
L 8.296875 -9.28125 
L 0 -9.28125 
z
" id="DejaVuSans-47"/>
      <path d="M 45.40625 46.390625 
L 45.40625 75.984375 
L 54.390625 75.984375 
L 54.390625 0 
L 45.40625 0 
L 45.40625 8.203125 
Q 42.578125 3.328125 38.25 0.953125 
Q 33.9375 -1.421875 27.875 -1.421875 
Q 17.96875 -1.421875 11.734375 6.484375 
Q 5.515625 14.40625 5.515625 27.296875 
Q 5.515625 40.1875 11.734375 48.09375 
Q 17.96875 56 27.875 56 
Q 33.9375 56 38.25 53.625 
Q 42.578125 51.265625 45.40625 46.390625 
z
M 14.796875 27.296875 
Q 14.796875 17.390625 18.875 11.75 
Q 22.953125 6.109375 30.078125 6.109375 
Q 37.203125 6.109375 41.296875 11.75 
Q 45.40625 17.390625 45.40625 27.296875 
Q 45.40625 37.203125 41.296875 42.84375 
Q 37.203125 48.484375 30.078125 48.484375 
Q 22.953125 48.484375 18.875 42.84375 
Q 14.796875 37.203125 14.796875 27.296875 
z
" id="DejaVuSans-100"/>
      <path d="M 9.421875 54.6875 
L 18.40625 54.6875 
L 18.40625 0 
L 9.421875 0 
z
M 9.421875 75.984375 
L 18.40625 75.984375 
L 18.40625 64.59375 
L 9.421875 64.59375 
z
" id="DejaVuSans-105"/>
      <path d="M 52 44.1875 
Q 55.375 50.25 60.0625 53.125 
Q 64.75 56 71.09375 56 
Q 79.640625 56 84.28125 50.015625 
Q 88.921875 44.046875 88.921875 33.015625 
L 88.921875 0 
L 79.890625 0 
L 79.890625 32.71875 
Q 79.890625 40.578125 77.09375 44.375 
Q 74.3125 48.1875 68.609375 48.1875 
Q 61.625 48.1875 57.5625 43.546875 
Q 53.515625 38.921875 53.515625 30.90625 
L 53.515625 0 
L 44.484375 0 
L 44.484375 32.71875 
Q 44.484375 40.625 41.703125 44.40625 
Q 38.921875 48.1875 33.109375 48.1875 
Q 26.21875 48.1875 22.15625 43.53125 
Q 18.109375 38.875 18.109375 30.90625 
L 18.109375 0 
L 9.078125 0 
L 9.078125 54.6875 
L 18.109375 54.6875 
L 18.109375 46.1875 
Q 21.1875 51.21875 25.484375 53.609375 
Q 29.78125 56 35.6875 56 
Q 41.65625 56 45.828125 52.96875 
Q 50 49.953125 52 44.1875 
z
" id="DejaVuSans-109"/>
      <path d="M 54.890625 33.015625 
L 54.890625 0 
L 45.90625 0 
L 45.90625 32.71875 
Q 45.90625 40.484375 42.875 44.328125 
Q 39.84375 48.1875 33.796875 48.1875 
Q 26.515625 48.1875 22.3125 43.546875 
Q 18.109375 38.921875 18.109375 30.90625 
L 18.109375 0 
L 9.078125 0 
L 9.078125 54.6875 
L 18.109375 54.6875 
L 18.109375 46.1875 
Q 21.34375 51.125 25.703125 53.5625 
Q 30.078125 56 35.796875 56 
Q 45.21875 56 50.046875 50.171875 
Q 54.890625 44.34375 54.890625 33.015625 
z
" id="DejaVuSans-110"/>
      <path d="M 8.015625 75.875 
L 15.828125 75.875 
Q 23.140625 64.359375 26.78125 53.3125 
Q 30.421875 42.28125 30.421875 31.390625 
Q 30.421875 20.453125 26.78125 9.375 
Q 23.140625 -1.703125 15.828125 -13.1875 
L 8.015625 -13.1875 
Q 14.5 -2 17.703125 9.0625 
Q 20.90625 20.125 20.90625 31.390625 
Q 20.90625 42.671875 17.703125 53.65625 
Q 14.5 64.65625 8.015625 75.875 
z
" id="DejaVuSans-41"/>
     </defs>
     <g transform="translate(77.764078 342.217594)scale(0.17 -0.17)">
      <use xlink:href="#DejaVuSans-108"/>
      <use x="27.783203" xlink:href="#DejaVuSans-111"/>
      <use x="88.964844" xlink:href="#DejaVuSans-103"/>
      <use x="152.441406" xlink:href="#DejaVuSans-49"/>
      <use x="216.064453" xlink:href="#DejaVuSans-48"/>
      <use x="279.6875" xlink:href="#DejaVuSans-40"/>
      <use x="318.701172" xlink:href="#DejaVuSans-35"/>
      <use x="402.490234" xlink:href="#DejaVuSans-32"/>
      <use x="434.277344" xlink:href="#DejaVuSans-102"/>
      <use x="463.982422" xlink:href="#DejaVuSans-45"/>
      <use x="500.066406" xlink:href="#DejaVuSans-101"/>
      <use x="561.589844" xlink:href="#DejaVuSans-118"/>
      <use x="620.769531" xlink:href="#DejaVuSans-97"/>
      <use x="682.048828" xlink:href="#DejaVuSans-108"/>
      <use x="709.832031" xlink:href="#DejaVuSans-115"/>
      <use x="761.931641" xlink:href="#DejaVuSans-32"/>
      <use x="793.71875" xlink:href="#DejaVuSans-47"/>
      <use x="827.410156" xlink:href="#DejaVuSans-32"/>
      <use x="859.197266" xlink:href="#DejaVuSans-100"/>
      <use x="922.673828" xlink:href="#DejaVuSans-105"/>
      <use x="950.457031" xlink:href="#DejaVuSans-109"/>
      <use x="1047.869141" xlink:href="#DejaVuSans-101"/>
      <use x="1109.392578" xlink:href="#DejaVuSans-110"/>
      <use x="1172.771484" xlink:href="#DejaVuSans-115"/>
      <use x="1224.871094" xlink:href="#DejaVuSans-105"/>
      <use x="1252.654297" xlink:href="#DejaVuSans-111"/>
      <use x="1313.835938" xlink:href="#DejaVuSans-110"/>
      <use x="1377.214844" xlink:href="#DejaVuSans-41"/>
     </g>
    </g>
   </g>
   <g id="matplotlib.axis_2">
    <g id="ytick_1">
     <g id="line2d_21">
      <path clip-path="url(#pf930833913)" d="M 57.6 298.944 
L 338.688 298.944 
" style="fill:none;stroke:#b0b0b0;stroke-linecap:square;stroke-width:0.8;"/>
     </g>
     <g id="line2d_22">
      <defs>
       <path d="M 0 0 
L -3.5 0 
" id="me97dd70d02" style="stroke:#000000;stroke-width:0.8;"/>
      </defs>
      <g>
       <use style="stroke:#000000;stroke-width:0.8;" x="57.6" xlink:href="#me97dd70d02" y="298.944"/>
      </g>
     </g>
     <g id="text_6">
      <!-- 0.0 -->
      <defs>
       <path d="M 10.6875 12.40625 
L 21 12.40625 
L 21 0 
L 10.6875 0 
z
" id="DejaVuSans-46"/>
      </defs>
      <g transform="translate(25.155 305.02275)scale(0.16 -0.16)">
       <use xlink:href="#DejaVuSans-48"/>
       <use x="63.623047" xlink:href="#DejaVuSans-46"/>
       <use x="95.410156" xlink:href="#DejaVuSans-48"/>
      </g>
     </g>
    </g>
    <g id="ytick_2">
     <g id="line2d_23">
      <path clip-path="url(#pf930833913)" d="M 57.6 245.22202 
L 338.688 245.22202 
" style="fill:none;stroke:#b0b0b0;stroke-linecap:square;stroke-width:0.8;"/>
     </g>
     <g id="line2d_24">
      <g>
       <use style="stroke:#000000;stroke-width:0.8;" x="57.6" xlink:href="#me97dd70d02" y="245.22202"/>
      </g>
     </g>
     <g id="text_7">
      <!-- 0.2 -->
      <g transform="translate(25.155 251.30077)scale(0.16 -0.16)">
       <use xlink:href="#DejaVuSans-48"/>
       <use x="63.623047" xlink:href="#DejaVuSans-46"/>
       <use x="95.410156" xlink:href="#DejaVuSans-50"/>
      </g>
     </g>
    </g>
    <g id="ytick_3">
     <g id="line2d_25">
      <path clip-path="url(#pf930833913)" d="M 57.6 191.50004 
L 338.688 191.50004 
" style="fill:none;stroke:#b0b0b0;stroke-linecap:square;stroke-width:0.8;"/>
     </g>
     <g id="line2d_26">
      <g>
       <use style="stroke:#000000;stroke-width:0.8;" x="57.6" xlink:href="#me97dd70d02" y="191.50004"/>
      </g>
     </g>
     <g id="text_8">
      <!-- 0.4 -->
      <g transform="translate(25.155 197.57879)scale(0.16 -0.16)">
       <use xlink:href="#DejaVuSans-48"/>
       <use x="63.623047" xlink:href="#DejaVuSans-46"/>
       <use x="95.410156" xlink:href="#DejaVuSans-52"/>
      </g>
     </g>
    </g>
    <g id="ytick_4">
     <g id="line2d_27">
      <path clip-path="url(#pf930833913)" d="M 57.6 137.778059 
L 338.688 137.778059 
" style="fill:none;stroke:#b0b0b0;stroke-linecap:square;stroke-width:0.8;"/>
     </g>
     <g id="line2d_28">
      <g>
       <use style="stroke:#000000;stroke-width:0.8;" x="57.6" xlink:href="#me97dd70d02" y="137.778059"/>
      </g>
     </g>
     <g id="text_9">
      <!-- 0.6 -->
      <g transform="translate(25.155 143.856809)scale(0.16 -0.16)">
       <use xlink:href="#DejaVuSans-48"/>
       <use x="63.623047" xlink:href="#DejaVuSans-46"/>
       <use x="95.410156" xlink:href="#DejaVuSans-54"/>
      </g>
     </g>
    </g>
    <g id="ytick_5">
     <g id="line2d_29">
      <path clip-path="url(#pf930833913)" d="M 57.6 84.056079 
L 338.688 84.056079 
" style="fill:none;stroke:#b0b0b0;stroke-linecap:square;stroke-width:0.8;"/>
     </g>
     <g id="line2d_30">
      <g>
       <use style="stroke:#000000;stroke-width:0.8;" x="57.6" xlink:href="#me97dd70d02" y="84.056079"/>
      </g>
     </g>
     <g id="text_10">
      <!-- 0.8 -->
      <defs>
       <path d="M 31.78125 34.625 
Q 24.75 34.625 20.71875 30.859375 
Q 16.703125 27.09375 16.703125 20.515625 
Q 16.703125 13.921875 20.71875 10.15625 
Q 24.75 6.390625 31.78125 6.390625 
Q 38.8125 6.390625 42.859375 10.171875 
Q 46.921875 13.96875 46.921875 20.515625 
Q 46.921875 27.09375 42.890625 30.859375 
Q 38.875 34.625 31.78125 34.625 
z
M 21.921875 38.8125 
Q 15.578125 40.375 12.03125 44.71875 
Q 8.5 49.078125 8.5 55.328125 
Q 8.5 64.0625 14.71875 69.140625 
Q 20.953125 74.21875 31.78125 74.21875 
Q 42.671875 74.21875 48.875 69.140625 
Q 55.078125 64.0625 55.078125 55.328125 
Q 55.078125 49.078125 51.53125 44.71875 
Q 48 40.375 41.703125 38.8125 
Q 48.828125 37.15625 52.796875 32.3125 
Q 56.78125 27.484375 56.78125 20.515625 
Q 56.78125 9.90625 50.3125 4.234375 
Q 43.84375 -1.421875 31.78125 -1.421875 
Q 19.734375 -1.421875 13.25 4.234375 
Q 6.78125 9.90625 6.78125 20.515625 
Q 6.78125 27.484375 10.78125 32.3125 
Q 14.796875 37.15625 21.921875 38.8125 
z
M 18.3125 54.390625 
Q 18.3125 48.734375 21.84375 45.5625 
Q 25.390625 42.390625 31.78125 42.390625 
Q 38.140625 42.390625 41.71875 45.5625 
Q 45.3125 48.734375 45.3125 54.390625 
Q 45.3125 60.0625 41.71875 63.234375 
Q 38.140625 66.40625 31.78125 66.40625 
Q 25.390625 66.40625 21.84375 63.234375 
Q 18.3125 60.0625 18.3125 54.390625 
z
" id="DejaVuSans-56"/>
      </defs>
      <g transform="translate(25.155 90.134829)scale(0.16 -0.16)">
       <use xlink:href="#DejaVuSans-48"/>
       <use x="63.623047" xlink:href="#DejaVuSans-46"/>
       <use x="95.410156" xlink:href="#DejaVuSans-56"/>
      </g>
     </g>
    </g>
    <g id="ytick_6">
     <g id="line2d_31">
      <path clip-path="url(#pf930833913)" d="M 57.6 30.334099 
L 338.688 30.334099 
" style="fill:none;stroke:#b0b0b0;stroke-linecap:square;stroke-width:0.8;"/>
     </g>
     <g id="line2d_32">
      <g>
       <use style="stroke:#000000;stroke-width:0.8;" x="57.6" xlink:href="#me97dd70d02" y="30.334099"/>
      </g>
     </g>
     <g id="text_11">
      <!-- 1.0 -->
      <g transform="translate(25.155 36.412849)scale(0.16 -0.16)">
       <use xlink:href="#DejaVuSans-49"/>
       <use x="63.623047" xlink:href="#DejaVuSans-46"/>
       <use x="95.410156" xlink:href="#DejaVuSans-48"/>
      </g>
     </g>
    </g>
    <g id="text_12">
     <!-- Fraction of function,target pairs -->
     <defs>
      <path d="M 9.8125 72.90625 
L 51.703125 72.90625 
L 51.703125 64.59375 
L 19.671875 64.59375 
L 19.671875 43.109375 
L 48.578125 43.109375 
L 48.578125 34.8125 
L 19.671875 34.8125 
L 19.671875 0 
L 9.8125 0 
z
" id="DejaVuSans-70"/>
      <path d="M 41.109375 46.296875 
Q 39.59375 47.171875 37.8125 47.578125 
Q 36.03125 48 33.890625 48 
Q 26.265625 48 22.1875 43.046875 
Q 18.109375 38.09375 18.109375 28.8125 
L 18.109375 0 
L 9.078125 0 
L 9.078125 54.6875 
L 18.109375 54.6875 
L 18.109375 46.1875 
Q 20.953125 51.171875 25.484375 53.578125 
Q 30.03125 56 36.53125 56 
Q 37.453125 56 38.578125 55.875 
Q 39.703125 55.765625 41.0625 55.515625 
z
" id="DejaVuSans-114"/>
      <path d="M 48.78125 52.59375 
L 48.78125 44.1875 
Q 44.96875 46.296875 41.140625 47.34375 
Q 37.3125 48.390625 33.40625 48.390625 
Q 24.65625 48.390625 19.8125 42.84375 
Q 14.984375 37.3125 14.984375 27.296875 
Q 14.984375 17.28125 19.8125 11.734375 
Q 24.65625 6.203125 33.40625 6.203125 
Q 37.3125 6.203125 41.140625 7.25 
Q 44.96875 8.296875 48.78125 10.40625 
L 48.78125 2.09375 
Q 45.015625 0.34375 40.984375 -0.53125 
Q 36.96875 -1.421875 32.421875 -1.421875 
Q 20.0625 -1.421875 12.78125 6.34375 
Q 5.515625 14.109375 5.515625 27.296875 
Q 5.515625 40.671875 12.859375 48.328125 
Q 20.21875 56 33.015625 56 
Q 37.15625 56 41.109375 55.140625 
Q 45.0625 54.296875 48.78125 52.59375 
z
" id="DejaVuSans-99"/>
      <path d="M 18.3125 70.21875 
L 18.3125 54.6875 
L 36.8125 54.6875 
L 36.8125 47.703125 
L 18.3125 47.703125 
L 18.3125 18.015625 
Q 18.3125 11.328125 20.140625 9.421875 
Q 21.96875 7.515625 27.59375 7.515625 
L 36.8125 7.515625 
L 36.8125 0 
L 27.59375 0 
Q 17.1875 0 13.234375 3.875 
Q 9.28125 7.765625 9.28125 18.015625 
L 9.28125 47.703125 
L 2.6875 47.703125 
L 2.6875 54.6875 
L 9.28125 54.6875 
L 9.28125 70.21875 
z
" id="DejaVuSans-116"/>
      <path d="M 8.5 21.578125 
L 8.5 54.6875 
L 17.484375 54.6875 
L 17.484375 21.921875 
Q 17.484375 14.15625 20.5 10.265625 
Q 23.53125 6.390625 29.59375 6.390625 
Q 36.859375 6.390625 41.078125 11.03125 
Q 45.3125 15.671875 45.3125 23.6875 
L 45.3125 54.6875 
L 54.296875 54.6875 
L 54.296875 0 
L 45.3125 0 
L 45.3125 8.40625 
Q 42.046875 3.421875 37.71875 1 
Q 33.40625 -1.421875 27.6875 -1.421875 
Q 18.265625 -1.421875 13.375 4.4375 
Q 8.5 10.296875 8.5 21.578125 
z
M 31.109375 56 
z
" id="DejaVuSans-117"/>
      <path d="M 11.71875 12.40625 
L 22.015625 12.40625 
L 22.015625 4 
L 14.015625 -11.625 
L 7.71875 -11.625 
L 11.71875 4 
z
" id="DejaVuSans-44"/>
      <path d="M 18.109375 8.203125 
L 18.109375 -20.796875 
L 9.078125 -20.796875 
L 9.078125 54.6875 
L 18.109375 54.6875 
L 18.109375 46.390625 
Q 20.953125 51.265625 25.265625 53.625 
Q 29.59375 56 35.59375 56 
Q 45.5625 56 51.78125 48.09375 
Q 58.015625 40.1875 58.015625 27.296875 
Q 58.015625 14.40625 51.78125 6.484375 
Q 45.5625 -1.421875 35.59375 -1.421875 
Q 29.59375 -1.421875 25.265625 0.953125 
Q 20.953125 3.328125 18.109375 8.203125 
z
M 48.6875 27.296875 
Q 48.6875 37.203125 44.609375 42.84375 
Q 40.53125 48.484375 33.40625 48.484375 
Q 26.265625 48.484375 22.1875 42.84375 
Q 18.109375 37.203125 18.109375 27.296875 
Q 18.109375 17.390625 22.1875 11.75 
Q 26.265625 6.109375 33.40625 6.109375 
Q 40.53125 6.109375 44.609375 11.75 
Q 48.6875 17.390625 48.6875 27.296875 
z
" id="DejaVuSans-112"/>
     </defs>
     <g transform="translate(17.619531 297.681)rotate(-90)scale(0.17 -0.17)">
      <use xlink:href="#DejaVuSans-70"/>
      <use x="50.269531" xlink:href="#DejaVuSans-114"/>
      <use x="91.382812" xlink:href="#DejaVuSans-97"/>
      <use x="152.662109" xlink:href="#DejaVuSans-99"/>
      <use x="207.642578" xlink:href="#DejaVuSans-116"/>
      <use x="246.851562" xlink:href="#DejaVuSans-105"/>
      <use x="274.634766" xlink:href="#DejaVuSans-111"/>
      <use x="335.816406" xlink:href="#DejaVuSans-110"/>
      <use x="399.195312" xlink:href="#DejaVuSans-32"/>
      <use x="430.982422" xlink:href="#DejaVuSans-111"/>
      <use x="492.164062" xlink:href="#DejaVuSans-102"/>
      <use x="527.369141" xlink:href="#DejaVuSans-32"/>
      <use x="559.15625" xlink:href="#DejaVuSans-102"/>
      <use x="594.361328" xlink:href="#DejaVuSans-117"/>
      <use x="657.740234" xlink:href="#DejaVuSans-110"/>
      <use x="721.119141" xlink:href="#DejaVuSans-99"/>
      <use x="776.099609" xlink:href="#DejaVuSans-116"/>
      <use x="815.308594" xlink:href="#DejaVuSans-105"/>
      <use x="843.091797" xlink:href="#DejaVuSans-111"/>
      <use x="904.273438" xlink:href="#DejaVuSans-110"/>
      <use x="967.652344" xlink:href="#DejaVuSans-44"/>
      <use x="999.439453" xlink:href="#DejaVuSans-116"/>
      <use x="1038.648438" xlink:href="#DejaVuSans-97"/>
      <use x="1099.927734" xlink:href="#DejaVuSans-114"/>
      <use x="1139.291016" xlink:href="#DejaVuSans-103"/>
      <use x="1202.767578" xlink:href="#DejaVuSans-101"/>
      <use x="1264.291016" xlink:href="#DejaVuSans-116"/>
      <use x="1303.5" xlink:href="#DejaVuSans-32"/>
      <use x="1335.287109" xlink:href="#DejaVuSans-112"/>
      <use x="1398.763672" xlink:href="#DejaVuSans-97"/>
      <use x="1460.042969" xlink:href="#DejaVuSans-105"/>
      <use x="1487.826172" xlink:href="#DejaVuSans-114"/>
      <use x="1528.939453" xlink:href="#DejaVuSans-115"/>
     </g>
    </g>
   </g>
   <g id="line2d_33">
    <defs>
     <path d="M 0 1.5 
C 0.397805 1.5 0.77937 1.341951 1.06066 1.06066 
C 1.341951 0.77937 1.5 0.397805 1.5 0 
C 1.5 -0.397805 1.341951 -0.77937 1.06066 -1.06066 
C 0.77937 -1.341951 0.397805 -1.5 0 -1.5 
C -0.397805 -1.5 -0.77937 -1.341951 -1.06066 -1.06066 
C -1.341951 -0.77937 -1.5 -0.397805 -1.5 0 
C -1.5 0.397805 -1.341951 0.77937 -1.06066 1.06066 
C -0.77937 1.341951 -0.397805 1.5 0 1.5 
z
" id="madb38e90ad" style="stroke:#f5deb3;"/>
    </defs>
    <g>
     <use style="fill:#f5deb3;stroke:#f5deb3;" x="183.572899" xlink:href="#madb38e90ad" y="30.334099"/>
     <use style="fill:#f5deb3;stroke:#f5deb3;" x="183.572899" xlink:href="#madb38e90ad" y="30.334099"/>
    </g>
   </g>
   <g id="line2d_34">
    <defs>
     <path d="M 0 1.5 
C 0.397805 1.5 0.77937 1.341951 1.06066 1.06066 
C 1.341951 0.77937 1.5 0.397805 1.5 0 
C 1.5 -0.397805 1.341951 -0.77937 1.06066 -1.06066 
C 0.77937 -1.341951 0.397805 -1.5 0 -1.5 
C -0.397805 -1.5 -0.77937 -1.341951 -1.06066 -1.06066 
C -1.341951 -0.77937 -1.5 -0.397805 -1.5 0 
C -1.5 0.397805 -1.341951 0.77937 -1.06066 1.06066 
C -0.77937 1.341951 -0.397805 1.5 0 1.5 
z
" id="me1a5403b2b" style="stroke:#000080;"/>
    </defs>
    <g>
     <use style="fill:#000080;stroke:#000080;" x="199.18245" xlink:href="#me1a5403b2b" y="241.008531"/>
     <use style="fill:#000080;stroke:#000080;" x="199.18245" xlink:href="#me1a5403b2b" y="241.008531"/>
    </g>
   </g>
   <g id="line2d_35">
    <path d="M 17.444571 298.944 
L 17.444571 293.677139 
L 75.555822 293.677139 
L 75.555822 293.150453 
L 79.447285 293.150453 
L 79.447285 292.623767 
L 85.315119 292.623767 
L 85.315119 292.097081 
L 86.012784 292.097081 
L 86.012784 291.570395 
L 87.329581 291.570395 
L 87.329581 290.517023 
L 89.135256 290.517023 
L 89.135256 289.990337 
L 89.418828 289.990337 
L 89.418828 289.463651 
L 89.697862 289.463651 
L 89.697862 288.936964 
L 92.267099 288.936964 
L 92.267099 288.410278 
L 92.73846 288.410278 
L 92.73846 287.883592 
L 94.080605 287.883592 
L 94.080605 287.356906 
L 95.723163 287.356906 
L 95.723163 286.83022 
L 95.918017 286.83022 
L 95.918017 286.303534 
L 96.110718 286.303534 
L 96.110718 285.250162 
L 96.676366 285.250162 
L 96.676366 284.723476 
L 97.755429 284.723476 
L 97.755429 284.19679 
L 98.100772 284.19679 
L 98.100772 283.670104 
L 98.771596 283.670104 
L 98.771596 283.143418 
L 99.097574 283.143418 
L 99.097574 282.616732 
L 99.886816 282.616732 
L 99.886816 282.090045 
L 100.192776 282.090045 
L 100.192776 281.563359 
L 101.223245 281.563359 
L 101.223245 280.509987 
L 101.506816 280.509987 
L 101.506816 279.983301 
L 102.196206 279.983301 
L 102.196206 278.929929 
L 102.464508 278.929929 
L 102.464508 278.403243 
L 102.597126 278.403243 
L 102.597126 277.349871 
L 102.728744 277.349871 
L 102.728744 276.823185 
L 104.114542 276.823185 
L 104.114542 276.296499 
L 104.23523 276.296499 
L 104.23523 275.769812 
L 105.285403 275.769812 
L 105.285403 275.243126 
L 105.51043 275.243126 
L 105.51043 274.71644 
L 107.414787 274.71644 
L 107.514726 273.663068 
L 107.712901 273.663068 
L 107.712901 273.136382 
L 108.102622 273.136382 
L 108.102622 272.08301 
L 108.856871 272.08301 
L 108.856871 271.556324 
L 109.131511 271.556324 
L 109.131511 271.029638 
L 109.401893 271.029638 
L 109.401893 270.502952 
L 112.431755 270.502952 
L 112.506763 269.449579 
L 113.239614 269.449579 
L 113.239614 268.922893 
L 113.453595 268.922893 
L 113.453595 267.869521 
L 113.873839 267.869521 
L 113.873839 267.342835 
L 114.485807 267.342835 
L 114.485807 266.816149 
L 115.711251 266.816149 
L 115.711251 266.289463 
L 116.081002 266.289463 
L 116.081002 265.762777 
L 116.262979 265.762777 
L 116.262979 265.236091 
L 117.709852 265.236091 
L 117.709852 264.709405 
L 117.875678 264.709405 
L 117.875678 264.182719 
L 118.363901 264.182719 
L 118.363901 263.656033 
L 118.629344 263.656033 
L 118.629344 263.129347 
L 119.250393 263.129347 
L 119.250393 262.60266 
L 121.355214 262.60266 
L 121.355214 262.075974 
L 121.974949 262.075974 
L 122.061712 261.022602 
L 122.489167 261.022602 
L 122.489167 260.495916 
L 125.219619 260.495916 
L 125.219619 259.96923 
L 136.96118 259.96923 
L 136.96118 259.442544 
L 154.866947 259.442544 
L 154.866947 258.915858 
L 155.213066 258.915858 
L 155.213066 258.389172 
L 156.058696 258.389172 
L 156.058696 257.862486 
L 157.104709 257.862486 
L 157.168409 256.809114 
L 157.714676 256.809114 
L 157.714676 256.282427 
L 159.892158 256.282427 
L 159.892158 255.755741 
L 163.835954 255.755741 
L 163.835954 255.229055 
L 164.109855 255.229055 
L 164.109855 254.702369 
L 164.603615 254.702369 
L 164.603615 254.175683 
L 165.862816 254.175683 
L 165.862816 253.648997 
L 166.296264 253.648997 
L 166.296264 253.122311 
L 172.532508 253.122311 
L 172.532508 252.595625 
L 172.763306 252.595625 
L 172.763306 252.068939 
L 173.786875 252.068939 
L 173.786875 251.542253 
L 174.447351 251.542253 
L 174.447351 251.015567 
L 175.42793 251.015567 
L 175.42793 250.488881 
L 176.365911 250.488881 
L 176.365911 249.962195 
L 177.379793 249.962195 
L 177.379793 249.435508 
L 177.83102 249.435508 
L 177.83102 248.908822 
L 178.438964 248.908822 
L 178.438964 248.382136 
L 180.473278 248.382136 
L 180.473278 247.85545 
L 180.630553 247.85545 
L 180.630553 247.328764 
L 180.973417 247.328764 
L 180.973417 246.802078 
L 181.283587 246.802078 
L 181.283587 246.275392 
L 181.429438 246.275392 
L 181.429438 245.748706 
L 181.869633 245.748706 
L 181.869633 245.22202 
L 184.528037 245.22202 
L 184.528037 244.695334 
L 185.138468 244.695334 
L 185.138468 244.168648 
L 187.931887 244.168648 
L 187.931887 243.641962 
L 192.095575 243.641962 
L 192.095575 243.115275 
L 193.551906 243.115275 
L 193.551906 242.588589 
L 195.209349 242.588589 
L 195.209349 242.061903 
L 198.434525 242.061903 
L 198.434525 241.535217 
L 199.18245 241.535217 
L 199.18245 241.008531 
L 338.688 241.008531 
L 338.688 241.008531 
" style="fill:none;stroke:#000080;stroke-linecap:square;stroke-width:1.5;"/>
   </g>
   <g id="line2d_36">
    <defs>
     <path d="M 0 6 
C 1.591219 6 3.117479 5.367802 4.242641 4.242641 
C 5.367802 3.117479 6 1.591219 6 0 
C 6 -1.591219 5.367802 -3.117479 4.242641 -4.242641 
C 3.117479 -5.367802 1.591219 -6 0 -6 
C -1.591219 -6 -3.117479 -5.367802 -4.242641 -4.242641 
C -5.367802 -3.117479 -6 -1.591219 -6 0 
C -6 1.591219 -5.367802 3.117479 -4.242641 4.242641 
C -3.117479 5.367802 -1.591219 6 0 6 
z
" id="m3f6cb7bfd5" style="stroke:#000080;stroke-width:1.5;"/>
    </defs>
    <g>
     <use style="fill-opacity:0;stroke:#000080;stroke-width:1.5;" x="87.329581" xlink:href="#m3f6cb7bfd5" y="291.570395"/>
     <use style="fill-opacity:0;stroke:#000080;stroke-width:1.5;" x="136.96118" xlink:href="#m3f6cb7bfd5" y="259.442544"/>
     <use style="fill-opacity:0;stroke:#000080;stroke-width:1.5;" x="199.18245" xlink:href="#m3f6cb7bfd5" y="241.535217"/>
     <use style="fill-opacity:0;stroke:#000080;stroke-width:1.5;" x="199.18245" xlink:href="#m3f6cb7bfd5" y="241.008531"/>
     <use style="fill-opacity:0;stroke:#000080;stroke-width:1.5;" x="199.18245" xlink:href="#m3f6cb7bfd5" y="241.008531"/>
     <use style="fill-opacity:0;stroke:#000080;stroke-width:1.5;" x="338.688" xlink:href="#m3f6cb7bfd5" y="241.008531"/>
    </g>
   </g>
   <g id="line2d_37">
    <path style="fill:none;stroke:#000080;stroke-linecap:square;stroke-width:1.5;"/>
    <g/>
   </g>
   <g id="line2d_38">
    <path clip-path="url(#pf930833913)" d="M 159.046236 256.282427 
" style="fill:none;stroke:#000080;stroke-linecap:square;stroke-width:1.5;"/>
    <defs>
     <path d="M -12 12 
L 12 -12 
M -12 -12 
L 12 12 
" id="me9bc2e94f0" style="stroke:#000080;"/>
    </defs>
    <g clip-path="url(#pf930833913)">
     <use style="fill:#000080;stroke:#000080;" x="159.046236" xlink:href="#me9bc2e94f0" y="256.282427"/>
    </g>
   </g>
   <g id="line2d_39">
    <defs>
     <path d="M 0 1.5 
C 0.397805 1.5 0.77937 1.341951 1.06066 1.06066 
C 1.341951 0.77937 1.5 0.397805 1.5 0 
C 1.5 -0.397805 1.341951 -0.77937 1.06066 -1.06066 
C 0.77937 -1.341951 0.397805 -1.5 0 -1.5 
C -0.397805 -1.5 -0.77937 -1.341951 -1.06066 -1.06066 
C -1.341951 -0.77937 -1.5 -0.397805 -1.5 0 
C -1.5 0.397805 -1.341951 0.77937 -1.06066 1.06066 
C -0.77937 1.341951 -0.397805 1.5 0 1.5 
z
" id="m1407b4ddbc" style="stroke:#ff00ff;"/>
    </defs>
    <g>
     <use style="fill:#ff00ff;stroke:#ff00ff;" x="200.925038" xlink:href="#m1407b4ddbc" y="241.008531"/>
     <use style="fill:#ff00ff;stroke:#ff00ff;" x="200.925038" xlink:href="#m1407b4ddbc" y="241.008531"/>
    </g>
   </g>
   <g id="line2d_40">
    <path d="M 17.444571 298.944 
L 17.444571 293.677139 
L 78.421149 293.677139 
L 78.421149 293.150453 
L 105.398279 293.150453 
L 105.398279 291.570395 
L 113.453595 291.570395 
L 113.453595 290.517023 
L 114.080224 290.517023 
L 114.080224 289.990337 
L 115.586238 289.990337 
L 115.586238 288.936964 
L 116.262979 288.936964 
L 116.262979 288.410278 
L 117.373392 288.410278 
L 117.373392 287.883592 
L 119.045825 287.883592 
L 119.045825 287.356906 
L 119.40226 287.356906 
L 119.40226 286.83022 
L 119.948058 286.83022 
L 119.948058 286.303534 
L 122.191052 286.303534 
L 122.191052 285.250162 
L 126.839037 285.250162 
L 126.839037 284.723476 
L 127.261631 284.723476 
L 127.261631 284.19679 
L 129.175952 284.19679 
L 129.175952 283.670104 
L 130.344571 283.670104 
L 130.344571 283.143418 
L 131.056477 283.143418 
L 131.159516 282.090045 
L 131.414481 282.090045 
L 131.414481 281.563359 
L 131.888878 281.563359 
L 131.888878 281.036673 
L 132.109167 281.036673 
L 132.109167 280.509987 
L 133.555497 280.509987 
L 133.622529 278.929929 
L 133.844123 278.929929 
L 133.953874 277.876557 
L 135.117629 277.876557 
L 135.219673 276.296499 
L 136.887363 276.296499 
L 136.887363 275.769812 
L 137.144368 275.769812 
L 137.144368 275.243126 
L 137.37967 275.243126 
L 137.37967 274.71644 
L 138.594838 274.71644 
L 138.594838 274.189754 
L 138.778323 274.189754 
L 138.778323 273.663068 
L 138.943469 273.663068 
L 138.943469 273.136382 
L 139.397728 273.136382 
L 139.397728 272.609696 
L 139.525372 272.609696 
L 139.525372 271.556324 
L 140.317849 271.556324 
L 140.317849 271.029638 
L 140.619053 271.029638 
L 140.619053 270.502952 
L 141.148448 270.502952 
L 141.148448 269.976266 
L 141.321401 269.976266 
L 141.321401 269.449579 
L 141.478449 269.449579 
L 141.478449 268.922893 
L 141.704386 268.922893 
L 141.704386 268.396207 
L 142.229539 268.396207 
L 142.283909 267.342835 
L 143.388196 267.342835 
L 143.388196 266.816149 
L 143.927534 266.816149 
L 143.927534 266.289463 
L 144.712404 266.289463 
L 144.783103 265.236091 
L 145.132366 265.236091 
L 145.212864 264.182719 
L 145.508645 264.182719 
L 145.508645 263.656033 
L 146.030918 263.656033 
L 146.030918 263.129347 
L 146.707319 263.129347 
L 146.707319 262.60266 
L 147.4697 262.60266 
L 147.4697 262.075974 
L 148.966103 262.075974 
L 148.966103 261.549288 
L 149.40462 261.549288 
L 149.458667 260.495916 
L 149.876341 260.495916 
L 149.876341 259.96923 
L 150.598782 259.96923 
L 150.598782 259.442544 
L 150.766468 259.442544 
L 150.766468 258.915858 
L 152.191856 258.915858 
L 152.191856 258.389172 
L 154.78099 258.389172 
L 154.78099 257.862486 
L 156.126326 257.862486 
L 156.126326 257.3358 
L 158.118907 257.3358 
L 158.118907 256.809114 
L 169.437534 256.809114 
L 169.437534 256.282427 
L 169.664871 256.282427 
L 169.740933 255.229055 
L 169.967148 255.229055 
L 169.967148 254.702369 
L 170.386599 254.702369 
L 170.386599 254.175683 
L 170.967341 254.175683 
L 170.967341 253.648997 
L 171.160157 253.648997 
L 171.160157 252.595625 
L 171.693494 252.595625 
L 171.693494 252.068939 
L 172.068921 252.068939 
L 172.068921 251.542253 
L 173.351294 251.542253 
L 173.351294 251.015567 
L 173.746708 251.015567 
L 173.82695 249.962195 
L 174.575644 249.962195 
L 174.575644 249.435508 
L 179.868959 249.435508 
L 179.9615 248.382136 
L 180.067552 248.382136 
L 180.067552 247.85545 
L 181.1482 247.85545 
L 181.1482 247.328764 
L 181.631034 247.328764 
L 181.631034 246.802078 
L 182.139561 246.802078 
L 182.139561 246.275392 
L 186.306355 246.275392 
L 186.306355 245.748706 
L 187.201688 245.748706 
L 187.257372 244.695334 
L 187.592842 244.695334 
L 187.592842 244.168648 
L 188.496144 244.168648 
L 188.496144 243.641962 
L 191.498841 243.641962 
L 191.498841 243.115275 
L 191.725016 243.115275 
L 191.725016 242.588589 
L 193.017064 242.588589 
L 193.017064 241.535217 
L 200.925038 241.535217 
L 200.925038 241.008531 
L 338.688 241.008531 
L 338.688 241.008531 
" style="fill:none;stroke:#ff00ff;stroke-linecap:square;stroke-width:1.5;"/>
   </g>
   <g id="line2d_41">
    <defs>
     <path d="M -0 8.485281 
L 5.091169 0 
L 0 -8.485281 
L -5.091169 -0 
z
" id="mbbb604294c" style="stroke:#ff00ff;stroke-linejoin:miter;stroke-width:1.5;"/>
    </defs>
    <g>
     <use style="fill-opacity:0;stroke:#ff00ff;stroke-linejoin:miter;stroke-width:1.5;" x="78.421149" xlink:href="#mbbb604294c" y="293.677139"/>
     <use style="fill-opacity:0;stroke:#ff00ff;stroke-linejoin:miter;stroke-width:1.5;" x="146.030918" xlink:href="#mbbb604294c" y="263.656033"/>
     <use style="fill-opacity:0;stroke:#ff00ff;stroke-linejoin:miter;stroke-width:1.5;" x="200.925038" xlink:href="#mbbb604294c" y="241.535217"/>
     <use style="fill-opacity:0;stroke:#ff00ff;stroke-linejoin:miter;stroke-width:1.5;" x="200.925038" xlink:href="#mbbb604294c" y="241.008531"/>
     <use style="fill-opacity:0;stroke:#ff00ff;stroke-linejoin:miter;stroke-width:1.5;" x="200.925038" xlink:href="#mbbb604294c" y="241.008531"/>
     <use style="fill-opacity:0;stroke:#ff00ff;stroke-linejoin:miter;stroke-width:1.5;" x="338.688" xlink:href="#mbbb604294c" y="241.008531"/>
    </g>
   </g>
   <g id="line2d_42">
    <path style="fill:none;stroke:#ff00ff;stroke-linecap:square;stroke-width:1.5;"/>
    <g/>
   </g>
   <g id="line2d_43">
    <path clip-path="url(#pf930833913)" d="M 165.978297 256.809114 
" style="fill:none;stroke:#ff00ff;stroke-linecap:square;stroke-width:1.5;"/>
    <defs>
     <path d="M -12 12 
L 12 -12 
M -12 -12 
L 12 12 
" id="mc84d2b1288" style="stroke:#ff00ff;"/>
    </defs>
    <g clip-path="url(#pf930833913)">
     <use style="fill:#ff00ff;stroke:#ff00ff;" x="165.978297" xlink:href="#mc84d2b1288" y="256.809114"/>
    </g>
   </g>
   <g id="line2d_44">
    <defs>
     <path d="M 0 1.5 
C 0.397805 1.5 0.77937 1.341951 1.06066 1.06066 
C 1.341951 0.77937 1.5 0.397805 1.5 0 
C 1.5 -0.397805 1.341951 -0.77937 1.06066 -1.06066 
C 0.77937 -1.341951 0.397805 -1.5 0 -1.5 
C -0.397805 -1.5 -0.77937 -1.341951 -1.06066 -1.06066 
C -1.341951 -0.77937 -1.5 -0.397805 -1.5 0 
C -1.5 0.397805 -1.341951 0.77937 -1.06066 1.06066 
C -0.77937 1.341951 -0.397805 1.5 0 1.5 
z
" id="me538a8761b" style="stroke:#ff7500;"/>
    </defs>
    <g>
     <use style="fill:#ff7500;stroke:#ff7500;" x="222.549378" xlink:href="#me538a8761b" y="188.339923"/>
     <use style="fill:#ff7500;stroke:#ff7500;" x="222.549378" xlink:href="#me538a8761b" y="188.339923"/>
    </g>
   </g>
   <g id="line2d_45">
    <path d="M 17.444571 298.944 
L 17.444571 293.677139 
L 78.421149 293.677139 
L 78.421149 293.150453 
L 86.012784 293.150453 
L 86.012784 292.623767 
L 87.329581 292.623767 
L 87.329581 292.097081 
L 99.258306 292.097081 
L 99.258306 291.570395 
L 104.114542 291.570395 
L 104.114542 291.043709 
L 106.06061 291.043709 
L 106.06061 290.517023 
L 107.514726 290.517023 
L 107.514726 289.990337 
L 109.668146 289.990337 
L 109.668146 289.463651 
L 110.274038 289.463651 
L 110.274038 288.936964 
L 111.185562 288.936964 
L 111.185562 288.410278 
L 111.505558 288.410278 
L 111.584648 287.356906 
L 111.74176 287.356906 
L 111.74176 286.83022 
L 114.685115 286.83022 
L 114.685115 285.776848 
L 115.33349 285.776848 
L 115.33349 285.250162 
L 116.621333 285.250162 
L 116.621333 284.723476 
L 117.486268 284.723476 
L 117.542433 283.670104 
L 120.712642 283.670104 
L 120.8059 282.616732 
L 121.310093 282.616732 
L 121.310093 281.563359 
L 121.931406 281.563359 
L 121.931406 280.509987 
L 122.148045 280.509987 
L 122.148045 279.983301 
L 123.829748 279.983301 
L 123.829748 279.456615 
L 124.024168 279.456615 
L 124.062793 278.403243 
L 124.330801 278.403243 
L 124.368753 276.823185 
L 126.540355 276.823185 
L 126.540355 276.296499 
L 126.806101 276.296499 
L 126.806101 275.769812 
L 127.197279 275.769812 
L 127.197279 275.243126 
L 127.579875 275.243126 
L 127.579875 274.71644 
L 127.736845 274.71644 
L 127.736845 274.189754 
L 129.658437 274.189754 
L 129.658437 273.663068 
L 130.290663 273.663068 
L 130.290663 273.136382 
L 132.157744 273.136382 
L 132.157744 271.029638 
L 133.510666 271.029638 
L 133.510666 270.502952 
L 133.888106 270.502952 
L 133.888106 269.976266 
L 134.932432 269.976266 
L 134.932432 269.449579 
L 135.138086 269.449579 
L 135.138086 268.922893 
L 135.44209 268.922893 
L 135.482227 267.869521 
L 138.118883 267.869521 
L 138.118883 267.342835 
L 141.732423 267.342835 
L 141.732423 266.816149 
L 142.818488 266.816149 
L 142.818488 266.289463 
L 143.208936 266.289463 
L 143.208936 265.762777 
L 143.964547 265.762777 
L 143.964547 264.709405 
L 144.087359 264.709405 
L 144.148442 263.656033 
L 144.59393 263.656033 
L 144.59393 263.129347 
L 145.96511 263.129347 
L 145.96511 262.075974 
L 147.818997 262.075974 
L 147.818997 261.549288 
L 149.752971 261.549288 
L 149.823575 259.96923 
L 150.267081 259.96923 
L 150.267081 259.442544 
L 151.097081 259.442544 
L 151.097081 258.915858 
L 151.905007 258.915858 
L 151.905007 258.389172 
L 152.283884 258.389172 
L 152.383036 256.282427 
L 152.5194 256.282427 
L 152.5194 255.755741 
L 153.025137 255.755741 
L 153.025137 255.229055 
L 154.337936 255.229055 
L 154.337936 254.702369 
L 154.833936 254.702369 
L 154.833936 254.175683 
L 155.271165 254.175683 
L 155.271165 253.122311 
L 155.953659 253.122311 
L 155.953659 252.595625 
L 157.295115 252.595625 
L 157.295115 252.068939 
L 158.009087 252.068939 
L 158.009087 251.542253 
L 162.716232 251.542253 
L 162.716232 251.015567 
L 165.302685 251.015567 
L 165.302685 250.488881 
L 165.77129 250.488881 
L 165.77129 249.962195 
L 167.320442 249.962195 
L 167.320442 249.435508 
L 167.509949 249.435508 
L 167.513144 248.382136 
L 168.235778 248.382136 
L 168.32137 244.695334 
L 168.418678 244.695334 
L 168.482242 243.641962 
L 169.111287 243.641962 
L 169.111287 243.115275 
L 170.160306 243.115275 
L 170.160306 242.588589 
L 170.324185 242.588589 
L 170.351349 241.535217 
L 170.543006 241.535217 
L 170.543006 241.008531 
L 170.785611 241.008531 
L 170.785611 239.955159 
L 172.193917 239.955159 
L 172.193917 239.428473 
L 172.604215 239.428473 
L 172.604215 238.901787 
L 173.521856 238.901787 
L 173.521856 238.375101 
L 174.526577 238.375101 
L 174.532984 236.795043 
L 175.114733 236.795043 
L 175.114733 236.268356 
L 177.662282 236.268356 
L 177.662282 235.74167 
L 177.963089 235.74167 
L 177.963089 235.214984 
L 178.848922 235.214984 
L 178.848922 234.688298 
L 179.004957 234.688298 
L 179.004957 234.161612 
L 179.275516 234.161612 
L 179.277143 233.10824 
L 179.477727 233.10824 
L 179.477727 232.581554 
L 179.703042 232.581554 
L 179.785408 231.001496 
L 179.922347 231.001496 
L 179.922347 230.47481 
L 180.282349 230.47481 
L 180.389527 228.368065 
L 180.453518 228.368065 
L 180.453518 227.841379 
L 180.635069 227.841379 
L 180.635069 227.314693 
L 181.205103 227.314693 
L 181.216753 226.261321 
L 181.578358 226.261321 
L 181.656603 224.681263 
L 181.692053 224.681263 
L 181.692053 224.154577 
L 182.150603 224.154577 
L 182.242806 222.574518 
L 182.859032 222.574518 
L 182.859032 222.047832 
L 184.116277 222.047832 
L 184.116277 220.99446 
L 184.425399 220.99446 
L 184.425399 220.467774 
L 184.914997 220.467774 
L 184.914997 219.941088 
L 185.953812 219.941088 
L 185.953812 218.36103 
L 186.795218 218.36103 
L 186.795218 217.834344 
L 187.077307 217.834344 
L 187.077307 217.307658 
L 187.351833 217.307658 
L 187.351833 216.780971 
L 187.464108 216.780971 
L 187.464108 216.254285 
L 187.611011 216.254285 
L 187.611011 215.727599 
L 189.451449 215.727599 
L 189.451449 214.674227 
L 189.623088 214.674227 
L 189.623088 214.147541 
L 189.987809 214.147541 
L 189.987809 213.620855 
L 190.77021 213.620855 
L 190.77021 213.094169 
L 190.991847 213.094169 
L 191.093771 212.040797 
L 191.388707 212.040797 
L 191.388707 211.514111 
L 192.047142 211.514111 
L 192.047142 210.987425 
L 192.293377 210.987425 
L 192.293377 210.460738 
L 192.717036 210.460738 
L 192.717036 209.407366 
L 193.62209 209.407366 
L 193.62209 208.88068 
L 193.885257 208.88068 
L 193.885257 208.353994 
L 194.363019 208.353994 
L 194.363019 207.827308 
L 194.539536 207.827308 
L 194.539536 207.300622 
L 195.576112 207.300622 
L 195.587609 206.24725 
L 195.838028 206.24725 
L 195.838028 205.720564 
L 196.722251 205.720564 
L 196.722251 205.193878 
L 197.091664 205.193878 
L 197.091664 204.667192 
L 197.490095 204.667192 
L 197.490095 204.140506 
L 197.788122 204.140506 
L 197.857215 203.087133 
L 198.029038 203.087133 
L 198.029038 202.560447 
L 198.367686 202.560447 
L 198.367686 202.033761 
L 198.695609 202.033761 
L 198.695609 201.507075 
L 198.908033 201.507075 
L 198.908033 200.980389 
L 199.483286 200.980389 
L 199.483286 200.453703 
L 200.268194 200.453703 
L 200.268194 199.927017 
L 200.575979 199.927017 
L 200.629623 198.346959 
L 200.949001 198.346959 
L 201.020226 197.293586 
L 202.216521 197.293586 
L 202.216521 196.7669 
L 202.441239 196.7669 
L 202.441239 196.240214 
L 202.823233 196.240214 
L 202.823233 195.713528 
L 203.081498 195.713528 
L 203.151576 194.660156 
L 203.211479 194.660156 
L 203.211479 194.13347 
L 203.570677 194.13347 
L 203.570677 193.606784 
L 205.140166 193.606784 
L 205.140166 193.080098 
L 206.638032 193.080098 
L 206.638032 192.553412 
L 207.030703 192.553412 
L 207.030703 192.026726 
L 207.162722 192.026726 
L 207.162722 191.50004 
L 209.702739 191.50004 
L 209.702739 190.973354 
L 211.538558 190.973354 
L 211.538558 190.446667 
L 211.787744 190.446667 
L 211.787744 189.919981 
L 215.211609 189.919981 
L 215.211609 189.393295 
L 220.202911 189.393295 
L 220.202911 188.866609 
L 222.549378 188.866609 
L 222.549378 188.339923 
L 338.688 188.339923 
L 338.688 188.339923 
" style="fill:none;stroke:#ff7500;stroke-linecap:square;stroke-width:1.5;"/>
   </g>
   <g id="line2d_46">
    <defs>
     <path d="M 0 -6 
L -1.347084 -1.854102 
L -5.706339 -1.854102 
L -2.179628 0.708204 
L -3.526712 4.854102 
L -0 2.291796 
L 3.526712 4.854102 
L 2.179628 0.708204 
L 5.706339 -1.854102 
L 1.347084 -1.854102 
z
" id="m3060fe4964" style="stroke:#ff7500;stroke-linejoin:bevel;stroke-width:1.5;"/>
    </defs>
    <g>
     <use style="fill-opacity:0;stroke:#ff7500;stroke-linejoin:bevel;stroke-width:1.5;" x="78.421149" xlink:href="#m3060fe4964" y="293.150453"/>
     <use style="fill-opacity:0;stroke:#ff7500;stroke-linejoin:bevel;stroke-width:1.5;" x="158.009087" xlink:href="#m3060fe4964" y="252.068939"/>
     <use style="fill-opacity:0;stroke:#ff7500;stroke-linejoin:bevel;stroke-width:1.5;" x="202.823233" xlink:href="#m3060fe4964" y="195.713528"/>
     <use style="fill-opacity:0;stroke:#ff7500;stroke-linejoin:bevel;stroke-width:1.5;" x="222.549378" xlink:href="#m3060fe4964" y="188.339923"/>
     <use style="fill-opacity:0;stroke:#ff7500;stroke-linejoin:bevel;stroke-width:1.5;" x="222.549378" xlink:href="#m3060fe4964" y="188.339923"/>
     <use style="fill-opacity:0;stroke:#ff7500;stroke-linejoin:bevel;stroke-width:1.5;" x="338.688" xlink:href="#m3060fe4964" y="188.339923"/>
    </g>
   </g>
   <g id="line2d_47">
    <path style="fill:none;stroke:#ff7500;stroke-linecap:square;stroke-width:1.5;"/>
    <g/>
   </g>
   <g id="line2d_48">
    <path clip-path="url(#pf930833913)" d="M 165.978297 249.962195 
" style="fill:none;stroke:#ff7500;stroke-linecap:square;stroke-width:1.5;"/>
    <defs>
     <path d="M -12 12 
L 12 -12 
M -12 -12 
L 12 12 
" id="m6e5aca6d58" style="stroke:#ff7500;"/>
    </defs>
    <g clip-path="url(#pf930833913)">
     <use style="fill:#ff7500;stroke:#ff7500;" x="165.978297" xlink:href="#m6e5aca6d58" y="249.962195"/>
    </g>
   </g>
   <g id="line2d_49">
    <defs>
     <path d="M 0 1.5 
C 0.397805 1.5 0.77937 1.341951 1.06066 1.06066 
C 1.341951 0.77937 1.5 0.397805 1.5 0 
C 1.5 -0.397805 1.341951 -0.77937 1.06066 -1.06066 
C 0.77937 -1.341951 0.397805 -1.5 0 -1.5 
C -0.397805 -1.5 -0.77937 -1.341951 -1.06066 -1.06066 
C -1.341951 -0.77937 -1.5 -0.397805 -1.5 0 
C -1.5 0.397805 -1.341951 0.77937 -1.06066 1.06066 
C -0.77937 1.341951 -0.397805 1.5 0 1.5 
z
" id="me8a974cd13" style="stroke:#6495ed;"/>
    </defs>
    <g>
     <use style="fill:#6495ed;stroke:#6495ed;" x="240.247755" xlink:href="#me8a974cd13" y="151.471897"/>
     <use style="fill:#6495ed;stroke:#6495ed;" x="240.247755" xlink:href="#me8a974cd13" y="151.471897"/>
    </g>
   </g>
   <g id="line2d_50">
    <path d="M 17.444571 298.944 
L 17.444571 293.677139 
L 78.421149 293.677139 
L 78.421149 293.150453 
L 95.723163 293.150453 
L 95.723163 292.623767 
L 97.928955 292.623767 
L 97.928955 292.097081 
L 99.575392 292.097081 
L 99.575392 291.570395 
L 101.506816 291.570395 
L 101.506816 291.043709 
L 102.597126 291.043709 
L 102.597126 290.517023 
L 103.623262 290.517023 
L 103.623262 289.990337 
L 106.48859 289.990337 
L 106.593963 288.410278 
L 106.906317 288.410278 
L 106.906317 287.883592 
L 108.006005 287.883592 
L 108.006005 287.356906 
L 109.668146 287.356906 
L 109.668146 286.83022 
L 110.103064 286.83022 
L 110.103064 285.776848 
L 111.426108 285.776848 
L 111.426108 284.723476 
L 111.974805 284.723476 
L 111.974805 284.19679 
L 112.950158 284.19679 
L 112.950158 282.090045 
L 113.095487 282.090045 
L 113.095487 281.563359 
L 113.664983 281.563359 
L 113.664983 281.036673 
L 114.284194 281.036673 
L 114.284194 280.509987 
L 115.835374 280.509987 
L 115.835374 279.983301 
L 116.019919 279.983301 
L 116.019919 279.456615 
L 116.262979 279.456615 
L 116.262979 278.929929 
L 116.443076 278.929929 
L 116.443076 277.876557 
L 117.259781 277.876557 
L 117.316679 275.243126 
L 117.598418 275.243126 
L 117.598418 274.71644 
L 118.094355 274.71644 
L 118.094355 274.189754 
L 118.942633 274.189754 
L 118.994305 273.136382 
L 119.301163 273.136382 
L 119.301163 272.609696 
L 119.80089 272.609696 
L 119.80089 272.08301 
L 120.238719 272.08301 
L 120.238719 271.556324 
L 120.712642 271.556324 
L 120.712642 271.029638 
L 121.174025 271.029638 
L 121.264855 269.449579 
L 122.31944 269.449579 
L 122.31944 268.922893 
L 122.531342 268.922893 
L 122.531342 268.396207 
L 122.657258 268.396207 
L 122.657258 267.869521 
L 123.394238 267.869521 
L 123.394238 267.342835 
L 123.633136 267.342835 
L 123.633136 266.816149 
L 123.868806 266.816149 
L 123.868806 266.289463 
L 124.139788 266.289463 
L 124.139788 265.762777 
L 124.632135 265.762777 
L 124.632135 265.236091 
L 124.743806 265.236091 
L 124.743806 264.709405 
L 125.327602 264.709405 
L 125.327602 264.182719 
L 125.682793 264.182719 
L 125.682793 263.656033 
L 126.773103 263.656033 
L 126.773103 263.129347 
L 128.501178 263.129347 
L 128.501178 262.60266 
L 128.620421 262.60266 
L 128.620421 262.075974 
L 129.031467 262.075974 
L 129.031467 261.549288 
L 129.262072 261.549288 
L 129.262072 261.022602 
L 130.236587 261.022602 
L 130.290663 259.96923 
L 130.45189 259.96923 
L 130.45189 259.442544 
L 131.715598 259.442544 
L 131.715598 258.915858 
L 134.214491 258.915858 
L 134.214491 258.389172 
L 137.162581 258.389172 
L 137.217107 257.3358 
L 141.549369 257.3358 
L 141.549369 256.809114 
L 142.324576 256.809114 
L 142.324576 256.282427 
L 144.794859 256.282427 
L 144.794859 255.755741 
L 146.334784 255.755741 
L 146.334784 255.229055 
L 146.622867 255.229055 
L 146.622867 254.702369 
L 148.601505 254.702369 
L 148.667509 253.122311 
L 149.205001 253.122311 
L 149.205001 252.595625 
L 152.137948 252.595625 
L 152.137948 252.068939 
L 154.533999 252.068939 
L 154.533999 251.542253 
L 155.953659 251.542253 
L 155.953659 251.015567 
L 159.522371 251.015567 
L 159.522371 250.488881 
L 161.738962 250.488881 
L 161.738962 249.962195 
L 163.752938 249.962195 
L 163.752938 249.435508 
L 167.014197 249.435508 
L 167.014197 248.908822 
L 167.20054 248.908822 
L 167.20054 248.382136 
L 167.627751 248.382136 
L 167.728995 247.328764 
L 167.901647 247.328764 
L 167.901647 246.275392 
L 168.208177 246.275392 
L 168.208177 245.748706 
L 168.593675 245.748706 
L 168.64763 244.695334 
L 169.044129 244.695334 
L 169.044129 244.168648 
L 169.560096 244.168648 
L 169.560096 242.588589 
L 169.97547 242.588589 
L 169.97547 242.061903 
L 170.108089 242.061903 
L 170.108089 241.535217 
L 170.510761 241.535217 
L 170.510761 241.008531 
L 170.801489 241.008531 
L 170.875396 238.375101 
L 171.126438 238.375101 
L 171.126438 237.848415 
L 171.476006 237.848415 
L 171.476006 237.321729 
L 171.622982 237.321729 
L 171.622982 236.795043 
L 172.484538 236.795043 
L 172.484538 235.74167 
L 173.764571 235.74167 
L 173.764571 235.214984 
L 174.436617 235.214984 
L 174.436617 234.161612 
L 175.135376 234.161612 
L 175.135376 233.634926 
L 175.448206 233.634926 
L 175.448206 232.581554 
L 176.07512 232.581554 
L 176.07512 231.528182 
L 178.721737 231.528182 
L 178.77875 230.47481 
L 179.247834 230.47481 
L 179.247834 229.948123 
L 179.538738 229.948123 
L 179.538738 229.421437 
L 179.661713 229.421437 
L 179.661713 228.894751 
L 179.958371 228.894751 
L 179.958371 227.841379 
L 180.092412 227.841379 
L 180.179144 226.788007 
L 180.424599 226.788007 
L 180.424599 226.261321 
L 180.644097 226.261321 
L 180.750576 224.681263 
L 180.829639 224.681263 
L 180.829639 224.154577 
L 181.02059 224.154577 
L 181.116019 221.521146 
L 181.423685 221.521146 
L 181.423685 219.941088 
L 181.621081 219.941088 
L 181.621081 219.414402 
L 182.088402 219.414402 
L 182.088402 218.887716 
L 183.288264 218.887716 
L 183.288264 218.36103 
L 183.835434 218.36103 
L 183.835434 217.307658 
L 185.489487 217.307658 
L 185.489487 216.780971 
L 185.688873 216.780971 
L 185.704636 215.727599 
L 185.806748 215.727599 
L 185.806748 215.200913 
L 186.132622 215.200913 
L 186.220251 213.620855 
L 186.292215 213.620855 
L 186.292215 213.094169 
L 186.625244 213.094169 
L 186.625244 212.567483 
L 187.027305 212.567483 
L 187.043988 210.987425 
L 187.585771 210.987425 
L 187.585771 210.460738 
L 188.135719 210.460738 
L 188.135719 209.934052 
L 188.433701 209.934052 
L 188.433701 208.88068 
L 188.750319 208.88068 
L 188.750319 208.353994 
L 188.894318 208.353994 
L 188.894318 207.827308 
L 190.419075 207.827308 
L 190.485079 206.24725 
L 190.608699 206.24725 
L 190.713724 204.667192 
L 190.755053 204.667192 
L 190.845799 203.613819 
L 190.906036 203.613819 
L 190.906036 203.087133 
L 191.281959 203.087133 
L 191.281959 202.560447 
L 191.548015 202.560447 
L 191.548015 202.033761 
L 192.281031 202.033761 
L 192.281031 201.507075 
L 192.931761 201.507075 
L 192.931761 200.980389 
L 193.622805 200.980389 
L 193.622805 200.453703 
L 194.378766 200.453703 
L 194.378766 199.927017 
L 194.613292 199.927017 
L 194.70354 198.873645 
L 194.92183 198.873645 
L 194.953644 197.820273 
L 195.214569 197.820273 
L 195.214569 196.7669 
L 195.467148 196.7669 
L 195.467148 196.240214 
L 196.873567 196.240214 
L 196.873567 195.713528 
L 197.773482 195.713528 
L 197.879066 193.606784 
L 199.125201 193.606784 
L 199.125201 193.080098 
L 199.612527 193.080098 
L 199.612527 192.026726 
L 200.203627 192.026726 
L 200.214405 190.973354 
L 200.385948 190.973354 
L 200.385948 190.446667 
L 200.756368 190.446667 
L 200.809933 189.393295 
L 201.160417 189.393295 
L 201.160417 188.866609 
L 201.623661 188.866609 
L 201.623661 188.339923 
L 201.765377 188.339923 
L 201.765377 187.813237 
L 202.470955 187.813237 
L 202.505775 186.759865 
L 202.935045 186.759865 
L 202.98191 185.706493 
L 203.686243 185.706493 
L 203.701487 184.126434 
L 204.062619 184.126434 
L 204.062619 183.599748 
L 204.66368 183.599748 
L 204.66368 183.073062 
L 204.862143 183.073062 
L 204.929543 181.493004 
L 205.021609 181.493004 
L 205.021609 180.966318 
L 205.273685 180.966318 
L 205.273685 180.439632 
L 205.585631 180.439632 
L 205.599303 179.38626 
L 205.753266 179.38626 
L 205.753266 178.859574 
L 206.376526 178.859574 
L 206.464702 177.806202 
L 206.528922 177.806202 
L 206.528922 177.279515 
L 206.704657 177.279515 
L 206.765983 176.226143 
L 207.31071 176.226143 
L 207.31071 175.699457 
L 207.604895 175.699457 
L 207.604895 175.172771 
L 208.21442 175.172771 
L 208.249056 174.119399 
L 208.869075 174.119399 
L 208.869075 173.592713 
L 209.483068 173.592713 
L 209.58953 172.539341 
L 209.609259 172.539341 
L 209.643232 171.485969 
L 209.729152 171.485969 
L 209.790347 170.432596 
L 210.289096 170.432596 
L 210.331096 169.379224 
L 211.051357 169.379224 
L 211.131413 168.325852 
L 211.197543 168.325852 
L 211.269659 167.27248 
L 211.730652 167.27248 
L 211.730652 166.745794 
L 211.851687 166.745794 
L 211.851687 166.219108 
L 213.064905 166.219108 
L 213.064905 165.692422 
L 213.538231 165.692422 
L 213.546442 164.63905 
L 213.998161 164.63905 
L 213.998161 164.112363 
L 214.471805 164.112363 
L 214.471805 163.585677 
L 215.099126 163.585677 
L 215.099126 162.532305 
L 216.089425 162.532305 
L 216.173962 161.478933 
L 216.267847 161.478933 
L 216.267847 160.952247 
L 216.703791 160.952247 
L 216.713872 159.898875 
L 216.817003 159.898875 
L 216.92122 158.845503 
L 217.455407 158.845503 
L 217.455407 158.318817 
L 217.642458 158.318817 
L 217.674519 157.265444 
L 219.188621 157.265444 
L 219.188621 156.738758 
L 219.711947 156.738758 
L 219.711947 156.212072 
L 219.994638 156.212072 
L 219.994638 155.685386 
L 220.428714 155.685386 
L 220.428714 155.1587 
L 221.197499 155.1587 
L 221.197499 154.632014 
L 223.57864 154.632014 
L 223.57864 154.105328 
L 224.519076 154.105328 
L 224.519076 153.578642 
L 229.743062 153.578642 
L 229.743062 153.051956 
L 230.608222 153.051956 
L 230.608222 152.52527 
L 235.11523 152.52527 
L 235.11523 151.998584 
L 240.247755 151.998584 
L 240.247755 151.471897 
L 338.688 151.471897 
L 338.688 151.471897 
" style="fill:none;stroke:#6495ed;stroke-linecap:square;stroke-width:1.5;"/>
   </g>
   <g id="line2d_51">
    <defs>
     <path d="M -0 6 
L 6 -6 
L -6 -6 
z
" id="mf560fb9cdb" style="stroke:#6495ed;stroke-linejoin:miter;stroke-width:1.5;"/>
    </defs>
    <g>
     <use style="fill-opacity:0;stroke:#6495ed;stroke-linejoin:miter;stroke-width:1.5;" x="101.506816" xlink:href="#mf560fb9cdb" y="291.570395"/>
     <use style="fill-opacity:0;stroke:#6495ed;stroke-linejoin:miter;stroke-width:1.5;" x="169.97547" xlink:href="#mf560fb9cdb" y="242.061903"/>
     <use style="fill-opacity:0;stroke:#6495ed;stroke-linejoin:miter;stroke-width:1.5;" x="204.862143" xlink:href="#mf560fb9cdb" y="183.073062"/>
     <use style="fill-opacity:0;stroke:#6495ed;stroke-linejoin:miter;stroke-width:1.5;" x="240.247755" xlink:href="#mf560fb9cdb" y="151.998584"/>
     <use style="fill-opacity:0;stroke:#6495ed;stroke-linejoin:miter;stroke-width:1.5;" x="240.247755" xlink:href="#mf560fb9cdb" y="151.471897"/>
     <use style="fill-opacity:0;stroke:#6495ed;stroke-linejoin:miter;stroke-width:1.5;" x="338.688" xlink:href="#mf560fb9cdb" y="151.471897"/>
    </g>
   </g>
   <g id="line2d_52">
    <path style="fill:none;stroke:#6495ed;stroke-linecap:square;stroke-width:1.5;"/>
    <g/>
   </g>
   <g id="line2d_53">
    <path clip-path="url(#pf930833913)" d="M 165.978297 249.435508 
" style="fill:none;stroke:#6495ed;stroke-linecap:square;stroke-width:1.5;"/>
    <defs>
     <path d="M -12 12 
L 12 -12 
M -12 -12 
L 12 12 
" id="mfbd23b9a48" style="stroke:#6495ed;"/>
    </defs>
    <g clip-path="url(#pf930833913)">
     <use style="fill:#6495ed;stroke:#6495ed;" x="165.978297" xlink:href="#mfbd23b9a48" y="249.435508"/>
    </g>
   </g>
   <g id="line2d_54">
    <path d="M 338.688 241.008531 
L 369.60768 293.571802 
" style="fill:none;stroke:#ff00ff;stroke-linecap:square;stroke-width:1.5;"/>
    <g>
     <use style="fill-opacity:0;stroke:#ff00ff;stroke-linejoin:miter;stroke-width:1.5;" x="338.688" xlink:href="#mbbb604294c" y="241.008531"/>
     <use style="fill-opacity:0;stroke:#ff00ff;stroke-linejoin:miter;stroke-width:1.5;" x="369.60768" xlink:href="#mbbb604294c" y="293.571802"/>
    </g>
   </g>
   <g id="line2d_55">
    <path d="M 338.688 241.008531 
L 369.60768 229.105426 
" style="fill:none;stroke:#000080;stroke-linecap:square;stroke-width:1.5;"/>
    <g>
     <use style="fill-opacity:0;stroke:#000080;stroke-width:1.5;" x="338.688" xlink:href="#m3f6cb7bfd5" y="241.008531"/>
     <use style="fill-opacity:0;stroke:#000080;stroke-width:1.5;" x="369.60768" xlink:href="#m3f6cb7bfd5" y="229.105426"/>
    </g>
   </g>
   <g id="line2d_56">
    <path d="M 338.688 188.339923 
L 369.60768 164.63905 
" style="fill:none;stroke:#ff7500;stroke-linecap:square;stroke-width:1.5;"/>
    <g>
     <use style="fill-opacity:0;stroke:#ff7500;stroke-linejoin:bevel;stroke-width:1.5;" x="338.688" xlink:href="#m3060fe4964" y="188.339923"/>
     <use style="fill-opacity:0;stroke:#ff7500;stroke-linejoin:bevel;stroke-width:1.5;" x="369.60768" xlink:href="#m3060fe4964" y="164.63905"/>
    </g>
   </g>
   <g id="line2d_57">
    <path d="M 338.688 151.471897 
L 369.60768 100.172673 
" style="fill:none;stroke:#6495ed;stroke-linecap:square;stroke-width:1.5;"/>
    <g>
     <use style="fill-opacity:0;stroke:#6495ed;stroke-linejoin:miter;stroke-width:1.5;" x="338.688" xlink:href="#mf560fb9cdb" y="151.471897"/>
     <use style="fill-opacity:0;stroke:#6495ed;stroke-linejoin:miter;stroke-width:1.5;" x="369.60768" xlink:href="#mf560fb9cdb" y="100.172673"/>
    </g>
   </g>
   <g id="line2d_58">
    <path d="M 338.688 298.944 
L 338.688 30.334099 
" style="fill:none;stroke:#000000;stroke-linecap:square;stroke-width:1.5;"/>
   </g>
   <g id="patch_3">
    <path d="M 57.6 298.944 
L 57.6 27.648 
" style="fill:none;stroke:#000000;stroke-linecap:square;stroke-linejoin:miter;stroke-width:0.8;"/>
   </g>
   <g id="patch_4">
    <path d="M 338.688 298.944 
L 338.688 27.648 
" style="fill:none;stroke:#000000;stroke-linecap:square;stroke-linejoin:miter;stroke-width:0.8;"/>
   </g>
   <g id="patch_5">
    <path d="M 57.6 298.944 
L 338.688 298.944 
" style="fill:none;stroke:#000000;stroke-linecap:square;stroke-linejoin:miter;stroke-width:0.8;"/>
   </g>
   <g id="patch_6">
    <path d="M 57.6 27.648 
L 338.688 27.648 
" style="fill:none;stroke:#000000;stroke-linecap:square;stroke-linejoin:miter;stroke-width:0.8;"/>
   </g>
   <g id="text_13">
    <!-- DE -->
    <defs>
     <path d="M 19.671875 64.796875 
L 19.671875 8.109375 
L 31.59375 8.109375 
Q 46.6875 8.109375 53.6875 14.9375 
Q 60.6875 21.78125 60.6875 36.53125 
Q 60.6875 51.171875 53.6875 57.984375 
Q 46.6875 64.796875 31.59375 64.796875 
z
M 9.8125 72.90625 
L 30.078125 72.90625 
Q 51.265625 72.90625 61.171875 64.09375 
Q 71.09375 55.28125 71.09375 36.53125 
Q 71.09375 17.671875 61.125 8.828125 
Q 51.171875 0 30.078125 0 
L 9.8125 0 
z
" id="DejaVuSans-68"/>
     <path d="M 9.8125 72.90625 
L 55.90625 72.90625 
L 55.90625 64.59375 
L 19.671875 64.59375 
L 19.671875 43.015625 
L 54.390625 43.015625 
L 54.390625 34.71875 
L 19.671875 34.71875 
L 19.671875 8.296875 
L 56.78125 8.296875 
L 56.78125 0 
L 9.8125 0 
z
" id="DejaVuSans-69"/>
    </defs>
    <g transform="translate(375.22944 298.262739)scale(0.17 -0.17)">
     <use xlink:href="#DejaVuSans-68"/>
     <use x="77.001953" xlink:href="#DejaVuSans-69"/>
    </g>
   </g>
   <g id="text_14">
    <!-- CMA-ES -->
    <defs>
     <path d="M 64.40625 67.28125 
L 64.40625 56.890625 
Q 59.421875 61.53125 53.78125 63.8125 
Q 48.140625 66.109375 41.796875 66.109375 
Q 29.296875 66.109375 22.65625 58.46875 
Q 16.015625 50.828125 16.015625 36.375 
Q 16.015625 21.96875 22.65625 14.328125 
Q 29.296875 6.6875 41.796875 6.6875 
Q 48.140625 6.6875 53.78125 8.984375 
Q 59.421875 11.28125 64.40625 15.921875 
L 64.40625 5.609375 
Q 59.234375 2.09375 53.4375 0.328125 
Q 47.65625 -1.421875 41.21875 -1.421875 
Q 24.65625 -1.421875 15.125 8.703125 
Q 5.609375 18.84375 5.609375 36.375 
Q 5.609375 53.953125 15.125 64.078125 
Q 24.65625 74.21875 41.21875 74.21875 
Q 47.75 74.21875 53.53125 72.484375 
Q 59.328125 70.75 64.40625 67.28125 
z
" id="DejaVuSans-67"/>
     <path d="M 9.8125 72.90625 
L 24.515625 72.90625 
L 43.109375 23.296875 
L 61.8125 72.90625 
L 76.515625 72.90625 
L 76.515625 0 
L 66.890625 0 
L 66.890625 64.015625 
L 48.09375 14.015625 
L 38.1875 14.015625 
L 19.390625 64.015625 
L 19.390625 0 
L 9.8125 0 
z
" id="DejaVuSans-77"/>
     <path d="M 34.1875 63.1875 
L 20.796875 26.90625 
L 47.609375 26.90625 
z
M 28.609375 72.90625 
L 39.796875 72.90625 
L 67.578125 0 
L 57.328125 0 
L 50.6875 18.703125 
L 17.828125 18.703125 
L 11.1875 0 
L 0.78125 0 
z
" id="DejaVuSans-65"/>
     <path d="M 53.515625 70.515625 
L 53.515625 60.890625 
Q 47.90625 63.578125 42.921875 64.890625 
Q 37.9375 66.21875 33.296875 66.21875 
Q 25.25 66.21875 20.875 63.09375 
Q 16.5 59.96875 16.5 54.203125 
Q 16.5 49.359375 19.40625 46.890625 
Q 22.3125 44.4375 30.421875 42.921875 
L 36.375 41.703125 
Q 47.40625 39.59375 52.65625 34.296875 
Q 57.90625 29 57.90625 20.125 
Q 57.90625 9.515625 50.796875 4.046875 
Q 43.703125 -1.421875 29.984375 -1.421875 
Q 24.8125 -1.421875 18.96875 -0.25 
Q 13.140625 0.921875 6.890625 3.21875 
L 6.890625 13.375 
Q 12.890625 10.015625 18.65625 8.296875 
Q 24.421875 6.59375 29.984375 6.59375 
Q 38.421875 6.59375 43.015625 9.90625 
Q 47.609375 13.234375 47.609375 19.390625 
Q 47.609375 24.75 44.3125 27.78125 
Q 41.015625 30.8125 33.5 32.328125 
L 27.484375 33.5 
Q 16.453125 35.6875 11.515625 40.375 
Q 6.59375 45.0625 6.59375 53.421875 
Q 6.59375 63.09375 13.40625 68.65625 
Q 20.21875 74.21875 32.171875 74.21875 
Q 37.3125 74.21875 42.625 73.28125 
Q 47.953125 72.359375 53.515625 70.515625 
z
" id="DejaVuSans-83"/>
    </defs>
    <g transform="translate(375.22944 233.796363)scale(0.17 -0.17)">
     <use xlink:href="#DejaVuSans-67"/>
     <use x="69.824219" xlink:href="#DejaVuSans-77"/>
     <use x="156.103516" xlink:href="#DejaVuSans-65"/>
     <use x="222.261719" xlink:href="#DejaVuSans-45"/>
     <use x="258.345703" xlink:href="#DejaVuSans-69"/>
     <use x="321.529297" xlink:href="#DejaVuSans-83"/>
    </g>
   </g>
   <g id="text_15">
    <!-- DEPSO -->
    <defs>
     <path d="M 19.671875 64.796875 
L 19.671875 37.40625 
L 32.078125 37.40625 
Q 38.96875 37.40625 42.71875 40.96875 
Q 46.484375 44.53125 46.484375 51.125 
Q 46.484375 57.671875 42.71875 61.234375 
Q 38.96875 64.796875 32.078125 64.796875 
z
M 9.8125 72.90625 
L 32.078125 72.90625 
Q 44.34375 72.90625 50.609375 67.359375 
Q 56.890625 61.8125 56.890625 51.125 
Q 56.890625 40.328125 50.609375 34.8125 
Q 44.34375 29.296875 32.078125 29.296875 
L 19.671875 29.296875 
L 19.671875 0 
L 9.8125 0 
z
" id="DejaVuSans-80"/>
     <path d="M 39.40625 66.21875 
Q 28.65625 66.21875 22.328125 58.203125 
Q 16.015625 50.203125 16.015625 36.375 
Q 16.015625 22.609375 22.328125 14.59375 
Q 28.65625 6.59375 39.40625 6.59375 
Q 50.140625 6.59375 56.421875 14.59375 
Q 62.703125 22.609375 62.703125 36.375 
Q 62.703125 50.203125 56.421875 58.203125 
Q 50.140625 66.21875 39.40625 66.21875 
z
M 39.40625 74.21875 
Q 54.734375 74.21875 63.90625 63.9375 
Q 73.09375 53.65625 73.09375 36.375 
Q 73.09375 19.140625 63.90625 8.859375 
Q 54.734375 -1.421875 39.40625 -1.421875 
Q 24.03125 -1.421875 14.8125 8.828125 
Q 5.609375 19.09375 5.609375 36.375 
Q 5.609375 53.65625 14.8125 63.9375 
Q 24.03125 74.21875 39.40625 74.21875 
z
" id="DejaVuSans-79"/>
    </defs>
    <g transform="translate(375.22944 169.329987)scale(0.17 -0.17)">
     <use xlink:href="#DejaVuSans-68"/>
     <use x="77.001953" xlink:href="#DejaVuSans-69"/>
     <use x="140.185547" xlink:href="#DejaVuSans-80"/>
     <use x="200.488281" xlink:href="#DejaVuSans-83"/>
     <use x="263.964844" xlink:href="#DejaVuSans-79"/>
    </g>
   </g>
   <g id="text_16">
    <!-- PSO -->
    <g transform="translate(375.22944 104.863611)scale(0.17 -0.17)">
     <use xlink:href="#DejaVuSans-80"/>
     <use x="60.302734" xlink:href="#DejaVuSans-83"/>
     <use x="123.779297" xlink:href="#DejaVuSans-79"/>
    </g>
   </g>
   <g id="text_17">
    <!-- best 2009 -->
    <defs>
     <path d="M 48.6875 27.296875 
Q 48.6875 37.203125 44.609375 42.84375 
Q 40.53125 48.484375 33.40625 48.484375 
Q 26.265625 48.484375 22.1875 42.84375 
Q 18.109375 37.203125 18.109375 27.296875 
Q 18.109375 17.390625 22.1875 11.75 
Q 26.265625 6.109375 33.40625 6.109375 
Q 40.53125 6.109375 44.609375 11.75 
Q 48.6875 17.390625 48.6875 27.296875 
z
M 18.109375 46.390625 
Q 20.953125 51.265625 25.265625 53.625 
Q 29.59375 56 35.59375 56 
Q 45.5625 56 51.78125 48.09375 
Q 58.015625 40.1875 58.015625 27.296875 
Q 58.015625 14.40625 51.78125 6.484375 
Q 45.5625 -1.421875 35.59375 -1.421875 
Q 29.59375 -1.421875 25.265625 0.953125 
Q 20.953125 3.328125 18.109375 8.203125 
L 18.109375 0 
L 9.078125 0 
L 9.078125 75.984375 
L 18.109375 75.984375 
z
" id="DejaVuSans-98"/>
     <path d="M 10.984375 1.515625 
L 10.984375 10.5 
Q 14.703125 8.734375 18.5 7.8125 
Q 22.3125 6.890625 25.984375 6.890625 
Q 35.75 6.890625 40.890625 13.453125 
Q 46.046875 20.015625 46.78125 33.40625 
Q 43.953125 29.203125 39.59375 26.953125 
Q 35.25 24.703125 29.984375 24.703125 
Q 19.046875 24.703125 12.671875 31.3125 
Q 6.296875 37.9375 6.296875 49.421875 
Q 6.296875 60.640625 12.9375 67.421875 
Q 19.578125 74.21875 30.609375 74.21875 
Q 43.265625 74.21875 49.921875 64.515625 
Q 56.59375 54.828125 56.59375 36.375 
Q 56.59375 19.140625 48.40625 8.859375 
Q 40.234375 -1.421875 26.421875 -1.421875 
Q 22.703125 -1.421875 18.890625 -0.6875 
Q 15.09375 0.046875 10.984375 1.515625 
z
M 30.609375 32.421875 
Q 37.25 32.421875 41.125 36.953125 
Q 45.015625 41.5 45.015625 49.421875 
Q 45.015625 57.28125 41.125 61.84375 
Q 37.25 66.40625 30.609375 66.40625 
Q 23.96875 66.40625 20.09375 61.84375 
Q 16.21875 57.28125 16.21875 49.421875 
Q 16.21875 41.5 20.09375 36.953125 
Q 23.96875 32.421875 30.609375 32.421875 
z
" id="DejaVuSans-57"/>
    </defs>
    <g transform="translate(375.22944 40.397235)scale(0.17 -0.17)">
     <use xlink:href="#DejaVuSans-98"/>
     <use x="63.476562" xlink:href="#DejaVuSans-101"/>
     <use x="125" xlink:href="#DejaVuSans-115"/>
     <use x="177.099609" xlink:href="#DejaVuSans-116"/>
     <use x="216.308594" xlink:href="#DejaVuSans-32"/>
     <use x="248.095703" xlink:href="#DejaVuSans-50"/>
     <use x="311.71875" xlink:href="#DejaVuSans-48"/>
     <use x="375.341797" xlink:href="#DejaVuSans-48"/>
     <use x="438.964844" xlink:href="#DejaVuSans-57"/>
    </g>
   </g>
   <g id="text_18">
    <!-- bbob f22, 10-D -->
    <g transform="translate(60.41088 38.111366)scale(0.102 -0.102)">
     <use xlink:href="#DejaVuSans-98"/>
     <use x="63.476562" xlink:href="#DejaVuSans-98"/>
     <use x="126.953125" xlink:href="#DejaVuSans-111"/>
     <use x="188.134766" xlink:href="#DejaVuSans-98"/>
     <use x="251.611328" xlink:href="#DejaVuSans-32"/>
     <use x="283.398438" xlink:href="#DejaVuSans-102"/>
     <use x="318.603516" xlink:href="#DejaVuSans-50"/>
     <use x="382.226562" xlink:href="#DejaVuSans-50"/>
     <use x="445.849609" xlink:href="#DejaVuSans-44"/>
     <use x="477.636719" xlink:href="#DejaVuSans-32"/>
     <use x="509.423828" xlink:href="#DejaVuSans-49"/>
     <use x="573.046875" xlink:href="#DejaVuSans-48"/>
     <use x="636.669922" xlink:href="#DejaVuSans-45"/>
     <use x="672.753906" xlink:href="#DejaVuSans-68"/>
    </g>
    <!-- 51 targets: 100..1e-08 -->
    <defs>
     <path d="M 10.796875 72.90625 
L 49.515625 72.90625 
L 49.515625 64.59375 
L 19.828125 64.59375 
L 19.828125 46.734375 
Q 21.96875 47.46875 24.109375 47.828125 
Q 26.265625 48.1875 28.421875 48.1875 
Q 40.625 48.1875 47.75 41.5 
Q 54.890625 34.8125 54.890625 23.390625 
Q 54.890625 11.625 47.5625 5.09375 
Q 40.234375 -1.421875 26.90625 -1.421875 
Q 22.3125 -1.421875 17.546875 -0.640625 
Q 12.796875 0.140625 7.71875 1.703125 
L 7.71875 11.625 
Q 12.109375 9.234375 16.796875 8.0625 
Q 21.484375 6.890625 26.703125 6.890625 
Q 35.15625 6.890625 40.078125 11.328125 
Q 45.015625 15.765625 45.015625 23.390625 
Q 45.015625 31 40.078125 35.4375 
Q 35.15625 39.890625 26.703125 39.890625 
Q 22.75 39.890625 18.8125 39.015625 
Q 14.890625 38.140625 10.796875 36.28125 
z
" id="DejaVuSans-53"/>
     <path d="M 11.71875 12.40625 
L 22.015625 12.40625 
L 22.015625 0 
L 11.71875 0 
z
M 11.71875 51.703125 
L 22.015625 51.703125 
L 22.015625 39.3125 
L 11.71875 39.3125 
z
" id="DejaVuSans-58"/>
    </defs>
    <g transform="translate(60.41088 49.533135)scale(0.102 -0.102)">
     <use xlink:href="#DejaVuSans-53"/>
     <use x="63.623047" xlink:href="#DejaVuSans-49"/>
     <use x="127.246094" xlink:href="#DejaVuSans-32"/>
     <use x="159.033203" xlink:href="#DejaVuSans-116"/>
     <use x="198.242188" xlink:href="#DejaVuSans-97"/>
     <use x="259.521484" xlink:href="#DejaVuSans-114"/>
     <use x="298.884766" xlink:href="#DejaVuSans-103"/>
     <use x="362.361328" xlink:href="#DejaVuSans-101"/>
     <use x="423.884766" xlink:href="#DejaVuSans-116"/>
     <use x="463.09375" xlink:href="#DejaVuSans-115"/>
     <use x="515.193359" xlink:href="#DejaVuSans-58"/>
     <use x="548.884766" xlink:href="#DejaVuSans-32"/>
     <use x="580.671875" xlink:href="#DejaVuSans-49"/>
     <use x="644.294922" xlink:href="#DejaVuSans-48"/>
     <use x="707.917969" xlink:href="#DejaVuSans-48"/>
     <use x="771.541016" xlink:href="#DejaVuSans-46"/>
     <use x="803.328125" xlink:href="#DejaVuSans-46"/>
     <use x="835.115234" xlink:href="#DejaVuSans-49"/>
     <use x="898.738281" xlink:href="#DejaVuSans-101"/>
     <use x="960.261719" xlink:href="#DejaVuSans-45"/>
     <use x="996.345703" xlink:href="#DejaVuSans-48"/>
     <use x="1059.96875" xlink:href="#DejaVuSans-56"/>
    </g>
    <!-- 24, 15 instances -->
    <g transform="translate(60.41088 60.954904)scale(0.102 -0.102)">
     <use xlink:href="#DejaVuSans-50"/>
     <use x="63.623047" xlink:href="#DejaVuSans-52"/>
     <use x="127.246094" xlink:href="#DejaVuSans-44"/>
     <use x="159.033203" xlink:href="#DejaVuSans-32"/>
     <use x="190.820312" xlink:href="#DejaVuSans-49"/>
     <use x="254.443359" xlink:href="#DejaVuSans-53"/>
     <use x="318.066406" xlink:href="#DejaVuSans-32"/>
     <use x="349.853516" xlink:href="#DejaVuSans-105"/>
     <use x="377.636719" xlink:href="#DejaVuSans-110"/>
     <use x="441.015625" xlink:href="#DejaVuSans-115"/>
     <use x="493.115234" xlink:href="#DejaVuSans-116"/>
     <use x="532.324219" xlink:href="#DejaVuSans-97"/>
     <use x="593.603516" xlink:href="#DejaVuSans-110"/>
     <use x="656.982422" xlink:href="#DejaVuSans-99"/>
     <use x="711.962891" xlink:href="#DejaVuSans-101"/>
     <use x="773.486328" xlink:href="#DejaVuSans-115"/>
    </g>
   </g>
   <g id="text_19">
    <!-- v2.4 -->
    <g style="fill:#808080;" transform="translate(187.233062 294.151352)scale(0.1 -0.1)">
     <use xlink:href="#DejaVuSans-118"/>
     <use x="59.179688" xlink:href="#DejaVuSans-50"/>
     <use x="122.802734" xlink:href="#DejaVuSans-46"/>
     <use x="154.589844" xlink:href="#DejaVuSans-52"/>
    </g>
   </g>
   <g id="text_20">
    <!-- 22 Gallagher 21 peaks -->
    <defs>
     <path d="M 59.515625 10.40625 
L 59.515625 29.984375 
L 43.40625 29.984375 
L 43.40625 38.09375 
L 69.28125 38.09375 
L 69.28125 6.78125 
Q 63.578125 2.734375 56.6875 0.65625 
Q 49.8125 -1.421875 42 -1.421875 
Q 24.90625 -1.421875 15.25 8.5625 
Q 5.609375 18.5625 5.609375 36.375 
Q 5.609375 54.25 15.25 64.234375 
Q 24.90625 74.21875 42 74.21875 
Q 49.125 74.21875 55.546875 72.453125 
Q 61.96875 70.703125 67.390625 67.28125 
L 67.390625 56.78125 
Q 61.921875 61.421875 55.765625 63.765625 
Q 49.609375 66.109375 42.828125 66.109375 
Q 29.4375 66.109375 22.71875 58.640625 
Q 16.015625 51.171875 16.015625 36.375 
Q 16.015625 21.625 22.71875 14.15625 
Q 29.4375 6.6875 42.828125 6.6875 
Q 48.046875 6.6875 52.140625 7.59375 
Q 56.25 8.5 59.515625 10.40625 
z
" id="DejaVuSans-71"/>
     <path d="M 54.890625 33.015625 
L 54.890625 0 
L 45.90625 0 
L 45.90625 32.71875 
Q 45.90625 40.484375 42.875 44.328125 
Q 39.84375 48.1875 33.796875 48.1875 
Q 26.515625 48.1875 22.3125 43.546875 
Q 18.109375 38.921875 18.109375 30.90625 
L 18.109375 0 
L 9.078125 0 
L 9.078125 75.984375 
L 18.109375 75.984375 
L 18.109375 46.1875 
Q 21.34375 51.125 25.703125 53.5625 
Q 30.078125 56 35.796875 56 
Q 45.21875 56 50.046875 50.171875 
Q 54.890625 44.34375 54.890625 33.015625 
z
" id="DejaVuSans-104"/>
     <path d="M 9.078125 75.984375 
L 18.109375 75.984375 
L 18.109375 31.109375 
L 44.921875 54.6875 
L 56.390625 54.6875 
L 27.390625 29.109375 
L 57.625 0 
L 45.90625 0 
L 18.109375 26.703125 
L 18.109375 0 
L 9.078125 0 
z
" id="DejaVuSans-107"/>
    </defs>
    <g transform="translate(85.019 21.648)scale(0.2 -0.2)">
     <use xlink:href="#DejaVuSans-50"/>
     <use x="63.623047" xlink:href="#DejaVuSans-50"/>
     <use x="127.246094" xlink:href="#DejaVuSans-32"/>
     <use x="159.033203" xlink:href="#DejaVuSans-71"/>
     <use x="236.523438" xlink:href="#DejaVuSans-97"/>
     <use x="297.802734" xlink:href="#DejaVuSans-108"/>
     <use x="325.585938" xlink:href="#DejaVuSans-108"/>
     <use x="353.369141" xlink:href="#DejaVuSans-97"/>
     <use x="414.648438" xlink:href="#DejaVuSans-103"/>
     <use x="478.125" xlink:href="#DejaVuSans-104"/>
     <use x="541.503906" xlink:href="#DejaVuSans-101"/>
     <use x="603.027344" xlink:href="#DejaVuSans-114"/>
     <use x="644.140625" xlink:href="#DejaVuSans-32"/>
     <use x="675.927734" xlink:href="#DejaVuSans-50"/>
     <use x="739.550781" xlink:href="#DejaVuSans-49"/>
     <use x="803.173828" xlink:href="#DejaVuSans-32"/>
     <use x="834.960938" xlink:href="#DejaVuSans-112"/>
     <use x="898.4375" xlink:href="#DejaVuSans-101"/>
     <use x="959.960938" xlink:href="#DejaVuSans-97"/>
     <use x="1021.240234" xlink:href="#DejaVuSans-107"/>
     <use x="1079.150391" xlink:href="#DejaVuSans-115"/>
    </g>
   </g>
  </g>
 </g>
 <defs>
  <clipPath id="pf930833913">
   <rect height="271.296" width="281.088" x="57.6" y="27.648"/>
  </clipPath>
 </defs>
</svg>
